<svg version="1.1" xmlns="http://www.w3.org/2000/svg" xmlns:xlink="http://www.w3.org/1999/xlink" width="103.89889" height="256.34874" viewBox="0,0,103.89889,256.34874"><defs><linearGradient x1="265.50658" y1="239.36349" x2="265.50658" y2="259.08715" gradientUnits="userSpaceOnUse" id="color-1"><stop offset="0" stop-color="#f7aa11"/><stop offset="1" stop-color="#f75b50"/></linearGradient><linearGradient x1="247.44504" y1="192.15968" x2="247.44504" y2="245.7903" gradientUnits="userSpaceOnUse" id="color-2"><stop offset="0" stop-color="#f7aa11"/><stop offset="1" stop-color="#f75b50"/></linearGradient><linearGradient x1="241.57224" y1="258.20069" x2="241.57224" y2="316.70683" gradientUnits="userSpaceOnUse" id="color-3"><stop offset="0" stop-color="#f75b50"/><stop offset="1" stop-color="#f7aa11"/></linearGradient><linearGradient x1="228.49763" y1="279.49203" x2="263.43567" y2="125.90267" gradientUnits="userSpaceOnUse" id="color-4"><stop offset="0" stop-color="#f7aa11"/><stop offset="1" stop-color="#f75b50"/></linearGradient><linearGradient x1="247.89699" y1="167.69968" x2="240.23977" y2="174.31135" gradientUnits="userSpaceOnUse" id="color-5"><stop offset="0" stop-color="#000000" stop-opacity="0"/><stop offset="1" stop-color="#000000"/></linearGradient><linearGradient x1="247.89699" y1="167.69968" x2="240.23977" y2="174.31135" gradientUnits="userSpaceOnUse" id="color-6"><stop offset="0" stop-color="#000000" stop-opacity="0"/><stop offset="1" stop-color="#000000" stop-opacity="0"/></linearGradient><linearGradient x1="238.83364" y1="36.48959" x2="203.8956" y2="190.07895" gradientUnits="userSpaceOnUse" id="color-7"><stop offset="0" stop-color="#f7aa11"/><stop offset="1" stop-color="#f75b50"/></linearGradient><linearGradient x1="169.01396" y1="293.02677" x2="203.952" y2="139.43741" gradientUnits="userSpaceOnUse" id="color-8"><stop offset="0" stop-color="#f7aa11"/><stop offset="1" stop-color="#f75b50"/></linearGradient><linearGradient x1="236.06696" y1="164.43796" x2="237.27155" y2="174.48264" gradientUnits="userSpaceOnUse" id="color-9"><stop offset="0" stop-color="#000000" stop-opacity="0"/><stop offset="1" stop-color="#000000"/></linearGradient><linearGradient x1="236.06696" y1="164.43796" x2="237.27155" y2="174.48264" gradientUnits="userSpaceOnUse" id="color-10"><stop offset="0" stop-color="#000000" stop-opacity="0"/><stop offset="1" stop-color="#000000" stop-opacity="0"/></linearGradient></defs><g transform="translate(-181.47877,-84.8084)"><g data-paper-data="{&quot;isPaintingLayer&quot;:true}" fill-rule="nonzero" stroke-linejoin="miter" stroke-miterlimit="10" stroke-dasharray="" stroke-dashoffset="0" style="mix-blend-mode: normal"><g stroke="none" stroke-width="1.5" stroke-linecap="butt"><g><path d="M267.62464,174.81547c-0.47258,1.61722 -4.17241,9.80331 -6.36312,17.51483c-2.04751,7.20743 -2.61,14.02381 -2.61,14.02381l-0.97817,-13.2179l-0.7726,-2.79655c0,0 -1.36035,2.32495 -2.66614,3.44028c-1.30579,1.11533 -3.86586,2.79033 -3.86586,2.79033l0.49481,-4.17156c0,0 -8.73396,11.38479 -25.83224,8.80798c-16.10635,-2.5619 -24.12779,-15.62259 -24.12779,-15.62259l-10.8411,12.49258c0,0 6.97028,-13.76838 5.72071,-21.28928c-0.44528,-2.68002 -2.78696,6.18407 -2.78696,6.18407c0,0 -1.29644,-6.25419 -1.06095,-9.42045c0.26607,-3.57728 2.57686,-10.96106 2.57686,-10.96106c0,0 -2.61663,1.80583 -6.09999,2.31715c-4.36487,0.64073 -6.93333,-0.5816 -6.93333,-0.5816c0,0 4.00249,-2.54715 6.28388,-4.57605c2.03209,-1.80718 3.15493,-3.42235 3.15493,-3.42235c0,0 -2.25856,0.92374 -4.44731,1.22591c-2.28372,0.31529 -4.07465,0.03379 -4.07465,0.03379c0,0 5.7231,-4.96122 8.68216,-11.22759c0.92253,-1.95364 1.65153,-3.92644 2.21418,-5.69276c2.55791,0.52087 5.27071,1.19908 7.17993,2.70104c2.0634,1.60946 1.69649,7.53768 1.41278,9.9054c1.65709,3.38243 2.6821,6.26429 5.50159,8.95303c0.87228,0.82249 2.92206,0.87505 3.55234,1.65127c0.60629,0.74667 0.49197,1.95851 0.88875,2.78721c0.31657,0.66121 1.57871,2.28263 1.46299,2.59098c-0.228,1.61815 -1.52614,5.72267 -0.30894,7.11219c0.67172,0.76682 2.67738,0.37373 3.58971,0.49535c2.41933,0.33421 1.21402,2.91971 2.47295,4.51667c1.01727,1.29042 2.51945,0.56133 3.09118,2.66545c0.57921,1.54536 0.8322,5.07953 2.17161,6.11878c1.03075,0.79976 3.07402,-0.38617 4.03174,-0.85178c1.61519,-0.78525 3.02789,-2.34148 3.87143,-4.04078c0.04083,1.15944 0.40229,2.4498 1.02679,2.41182c1.28247,-0.078 3.566,-2.46929 4.59365,-3.23275c1.78325,-1.32519 3.89315,-2.47794 4.63408,-4.62933c0.20937,0.93525 1.30125,1.43334 2.36887,0.73494c1.50927,-0.98731 2.84918,-3.2028 3.96019,-4.61073c0.71232,-0.90269 1.77535,-1.61281 2.41701,-2.54568c0.33262,-0.48355 0.21498,-1.951 0.69741,-1.61674c0.19165,0.13279 0.06907,0.46234 0.14522,0.68435l-0.05533,0.39269c-0.01927,0.13671 0.07596,0.26317 0.21268,0.28243c0.06088,0.00858 0.11972,-0.00554 0.16796,-0.03592l0.42362,-0.26251l-0.01445,-0.02333c2.65655,-1.21739 5.47985,-3.71945 7.46211,-5.67954c1.36098,0.96417 2.86975,0.17689 4.25582,-0.49132c0.20145,-0.09711 4.32656,-16.92846 4.4914,-16.85666c1.41805,0.61783 -2.82913,19.07525 -0.4019,18.29172c0.17798,-0.0586 0.37043,-0.15844 0.57317,-0.28492c-0.34564,2.29289 -0.84187,4.66877 -1.54368,7.01562z" fill="#cc1414"/><path d="M196.3852,127.07619c0.69244,-2.50227 6.18883,-45.12574 42.19245,-41.65653c10.61833,1.24565 -6.34477,18.46877 -1.16919,22.78184c3.44784,2.87327 30.28697,-7.7622 32.01333,-4.20397c6.50466,13.40676 2.75956,29.75606 3.60649,34.58358c1.93212,11.01317 3.34391,20.39411 3.34391,20.39411c0,0 -2.41524,-2.69156 -3.54403,-4.0877c-1.05281,-1.30218 -3.26662,-4.06223 -3.26662,-4.06223c0,0 -0.79815,5.18413 -0.91312,10.79525c-0.06002,2.92901 0.76812,5.86336 0.49073,8.47498c-1.15205,0.70325 -2.28678,0.1531 -3.32109,0.85614c-1.57112,1.06807 -5.81509,8.39074 -7.17883,8.41078c-1.1986,0.01763 0.47419,-7.29926 -0.75243,-6.16335c-1.63879,1.5189 -3.54944,12.1385 -4.9714,13.80628c-0.82609,0.9689 -1.10353,-6.96773 -2.06875,-6.10262c-1.13755,0.85615 -3.73568,7.32455 -4.85172,8.19212c-1.64473,1.27858 -1.78634,-3.02116 -3.30702,-1.57295c-3.01207,2.86858 -4.63724,4.00632 -8.69175,4.74059c-3.54176,0.0074 -6.84921,-0.29961 -10.35725,-0.79389c-4.06202,-0.57236 -6.06336,-1.13804 -8.61847,-4.51725c-2.50787,-2.31352 -5.08649,-4.74405 -7.3256,-7.24951c-2.04768,-2.29124 -5.02808,-5.54073 -5.62152,-8.6309c-0.81042,-1.10897 -2.41667,5.26577 -2.84418,3.88926c-0.62453,-2.01081 0.0376,-11.84183 -0.78107,-13.65759c-0.6211,-0.61997 -1.80073,6.24459 -2.33698,5.54978c-1.58864,-2.05834 -2.29898,-11.88388 -3.99288,-13.85617c-0.65944,-0.63584 -1.85481,0.90631 -2.51947,0.28245c-0.47217,-0.44322 -0.41432,-3.05257 -0.88219,-3.49959c0.84974,-1.23697 1.65622,-2.58185 2.32255,-3.99294c2.79382,-5.91646 3.8125,-12.00878 3.8125,-12.00878c0,0 -1.453,0.55283 -3.42334,0.42807c-1.24558,-0.07886 -2.34095,-0.385 -2.34684,-0.38667c0.01617,-0.0133 7.04006,-5.78961 7.30378,-6.74259z" fill="#000000"/><path d="M238.29149,85.00908c8.52071,0.99957 14.98688,3.28125 19.88343,6.37241c0.51151,0.32292 1.00173,1.0992 1.26209,1.92478c0.39128,1.2407 0.48609,2.64337 1.13115,3.19004c0.58637,0.49693 1.09033,-0.52759 1.91806,-0.67107c0.73876,-0.12806 1.81062,0.6142 2.23921,1.1005c4.35043,4.93628 6.5082,10.80564 7.52128,16.58678c-0.70788,0.72619 -1.42055,1.44291 -2.12206,2.1533c-2.25616,2.28469 -6.09798,4.42222 -7.78179,6.93082c-1.94659,2.90016 -4.21803,5.56585 -6.3962,8.2942c-1.35089,1.69211 -2.74614,3.34747 -4.12777,5.01452c-0.09924,0.11975 -1.20351,1.26126 -1.20612,1.26039c-0.0452,-0.01513 -0.15563,-1.53163 -0.1409,-1.69949c0.01814,-0.22423 0.03551,-0.44841 0.05365,-0.67249c0.06306,-0.34015 0.10818,-0.68599 0.08957,-0.98664c0.01136,-0.10765 0.02343,-0.21525 0.03635,-0.3228l0.05947,-0.4958c0.0166,-0.13499 -0.07803,-0.25891 -0.21326,-0.27797c-0.13666,-0.01925 -0.26307,0.07588 -0.28241,0.21251c0,0 0,0 0,0.00001v0.00001l-0.07006,0.49505l0.01046,0.00147l-0.00062,0.00516c-0.00482,0.04019 -0.00951,0.08037 -0.0141,0.12057c-0.99515,2.73883 -0.92701,6.48164 -1.31775,9.2549c-0.0556,0.39455 -0.57045,2.34434 -0.2687,2.61978c0.47148,0.43041 1.90757,-0.41842 2.53131,-0.05874c1.36114,0.78489 1.32969,3.62248 1.95504,4.88577c0.61082,1.43469 2.34157,0.435 3.09628,1.34426c0.97866,1.17908 -2.21739,4.96376 -2.75831,5.94767c-1.50864,2.74487 -4.16396,6.33728 -4.58688,9.33891c-0.5313,3.77079 -2.23738,6.25677 -1.5162,10.23602c0.61156,3.37034 0.29375,6.97759 0.62805,10.41299c0.00302,2.24175 -0.0966,4.47239 -0.21484,6.70469c-3.83846,3.18459 -11.53623,7.71642 -22.98246,5.99142c-9.4956,-1.51038 -16.18108,-6.66992 -20.06946,-10.65084c0.3902,-3.01069 0.73167,-6.4873 1.77857,-9.21975c0.21149,-0.55205 0.3036,-1.37352 0.58896,-1.86676c0.66976,-1.15773 2.35092,-1.38028 2.94938,-2.64823c0.63678,-1.34911 0.95917,-2.8166 1.68779,-4.17009c0.14026,-0.64817 0.66724,-2.13689 0.08289,-2.71153c-0.58895,-0.57916 -2.21422,-0.1455 -2.91497,-0.73403c-1.00818,-0.84673 -1.03067,-3.43357 -1.24577,-4.62436c-0.47209,-3.49089 -0.76651,-6.8304 -1.13551,-10.3184c-0.1893,-1.7885 -0.99545,-2.50929 -1.55279,-4.11844c-0.65821,-1.90042 -0.9258,-3.83912 -1.4126,-5.79387c-0.61883,-1.91308 -1.58335,-6.24019 -3.57659,-7.26101c-0.64289,-0.32925 -1.83425,-0.27275 -2.55361,-0.37427c-0.49241,-0.0731 -0.98665,-0.13909 -1.47798,-0.2193c-0.23542,-0.03844 -0.91994,0.01571 -0.70916,-0.09598c2.2144,-1.17342 4.47882,-2.73947 6.50109,-4.32869c2.75306,-2.16354 5.50123,-4.33116 8.22705,-6.52894c1.42867,-1.1519 5.18289,-3.22602 5.75181,-5.00392c0.292,-0.91254 -0.68235,-2.17952 -1.07883,-2.9314c-1.64126,-2.7129 -2.75205,-7.07389 -5.01806,-9.15027c-1.67142,-1.53156 -3.59367,-2.76983 -5.4529,-4.08981c5.98035,-10.45273 16.33631,-20.09683 34.21564,-18.37403z" fill="#cc1414"/></g><path d="M238.40136,85.18569c6.6137,0.77467 11.98867,2.32883 16.35188,4.43961c-0.49937,3.17537 -1.16619,5.8346 -2.49528,8.89065c-0.63393,1.45901 -0.9145,3.29028 -1.75168,4.64099c-0.88943,1.43503 -2.63548,2.71224 -3.7953,3.95041c-0.26574,0.28789 -0.64234,1.51765 -0.95185,1.63326c-1.0294,0.38446 -3.60675,-1.32375 -4.519,-0.58498c-0.61666,0.49938 -0.04369,3.49969 -0.00471,4.23302c0.1864,3.50635 0.1583,7.04491 0.12151,10.55768c-0.01459,1.39326 -0.56611,3.26985 -0.0766,4.60142c0.63953,1.73973 2.52277,3.1605 0.75773,5.10883c-1.48827,0.9986 -3.82132,-0.61346 -5.21368,0.28019c-0.81189,0.5211 -1.03207,3.71999 -1.75018,4.71947c-1.09403,1.52272 -2.85136,5.62677 -1.12877,7.36301c0.61467,0.61954 1.96698,0.999 2.75017,1.39097c1.03692,0.51895 5.08714,1.97595 5.36888,3.20542c0.02596,0.11327 -1.51899,2.77683 -1.64081,3.37024c-0.20223,0.99044 -2.53857,3.75376 -1.99134,4.60309c0.43309,0.67215 4.17749,2.60126 3.14864,3.42217c-0.2035,1.22914 0.30185,1.39194 0.55328,2.44164c0.60849,2.54037 -1.96739,5.22696 -3.56433,6.44203c-0.27029,0.42553 -0.65958,0.72322 -0.11138,1.25196c0.38591,0.37222 2.0613,0.32914 2.60146,0.40524c1.99375,0.28093 3.28094,0.69876 4.90076,1.57788c0.41715,0.2264 0.87143,-0.14082 1.01915,0.34234c-2.68209,2.486 -4.53029,4.85017 -6.86922,7.53581c-1.92724,3.09737 -0.31678,7.24789 0.39703,10.42894c0.54186,2.4148 1.25659,4.81757 2.01972,7.17977c-4.26673,2.17112 -10.22336,3.80931 -17.83491,2.66166c-5.47493,-0.87163 -10.01419,-2.96648 -13.6213,-5.35223c0.37344,-0.85149 0.71902,-1.72067 1.32255,-2.42207c1.88123,-3.17688 3.57641,-5.82765 4.03209,-9.58006c0.56318,-0.73069 0.51294,-1.98989 0.64098,-2.89859c0.35147,-2.49449 0.70295,-4.98899 1.05443,-7.48347c0.34539,-2.45132 0.42211,-4.95179 0.83537,-7.42943c0.17715,-1.06214 1.03202,-1.75212 0.93551,-2.8767c-0.62854,-2.14812 -1.52576,-4.12664 -2.92648,-5.90429c-0.37358,-0.47412 -1.40585,-0.12548 -1.678,-0.66529c-0.04001,-0.07935 0.78947,-1.36712 0.87373,-1.52393c0.54401,-0.74995 3.03922,-2.53098 3.15875,-3.23594c0.21567,-1.27191 -1.43163,-4.2946 -1.58038,-5.80849c-0.09942,-1.00589 0.00962,-1.91913 0.20776,-2.91407c0.01195,-0.06 0.06429,-0.11172 0.13598,-0.15691c0.32756,0.04784 0.87788,0.11509 0.93704,0.00911c0.39945,-0.71566 -0.41997,-1.04576 -0.85115,-0.94032c-0.20369,0.04981 -0.36731,0.17681 -0.49814,0.3574c-1.3276,-0.26156 -2.76017,-0.22517 -4.05261,-0.64825c-1.80298,-2.5527 5.06292,-4.66762 6.40795,-6.2474c1.27723,-0.46125 1.69286,-2.74853 2.19367,-3.87929c0.77255,-1.74437 2.0594,-2.2007 3.69058,-2.45364l0.43456,0.06122c0.13672,0.01926 0.26328,-0.07679 0.28271,-0.21457c0.01403,-0.09958 -0.03176,-0.19371 -0.10987,-0.24549l-0.4038,-0.28023l-0.00099,0.00146l-0.00436,-0.00506c-0.13963,-0.08656 -0.27927,-0.17313 -0.41889,-0.2597c-3.10912,-1.92675 -5.32293,-4.0883 -8.77329,-5.58861c-0.86748,-0.29032 -1.74165,-0.57456 -2.6165,-0.8625c0.6781,-0.60905 1.20798,-1.22914 1.3952,-1.81676c0.29301,-0.9197 -0.68015,-2.19514 -1.0759,-2.95222c-0.98169,-1.63643 -1.77233,-3.86903 -2.73534,-5.84541c3.23934,-1.31789 6.46177,-2.60981 9.65771,-4.03759c3.40219,-1.51992 6.12243,-3.45984 7.24823,-7.20286c0.56194,-0.59047 1.87896,-2.81997 1.68607,-3.72905c-0.24361,-1.14818 -4.52328,-2.94634 -5.56771,-3.53757c-1.38588,-1.65683 -2.87694,-3.21774 -4.26766,-4.86772c-0.00738,-0.00874 -0.01491,-0.01755 -0.02261,-0.02644c4.89527,-2.21271 10.75954,-3.30412 17.78298,-2.62976z" fill="#da7f7f"/></g><g><g><g><path d="M246.33696,239.36349l34.35019,19.72366" fill="none" stroke="url(#color-1)" stroke-width="3" stroke-linecap="round"/><path d="M202.41183,317.20841c0,0 -0.63536,-94.38387 -0.79335,-118.01201c-0.05451,-8.15261 8.18688,-36.76129 40.20201,-36.9211c31.60235,-0.15775 39.85672,29.48704 39.84884,36.89673c-0.02888,17.43724 -2.60024,38.50046 -3.03159,57.9757c-0.71256,32.17216 0.58328,60.01079 0.58328,60.01079l-11.16151,0.31775c0,0 -0.00431,-42.26094 0.61926,-62.14406c0.57544,-18.34836 2.98936,-52.92067 2.98936,-52.92067c0,0 0.07549,-3.0993 -2.81625,-3.15415c-3.43441,-0.06514 -2.7399,117.98557 -2.7399,117.98557l-48.21366,0.07222c0,0 -0.0259,-118.15209 -3.19099,-118.16752c-3.11083,-0.01515 -2.81569,2.90899 -2.81569,2.90899l0.35311,115.0668z" fill="#ffffff" stroke="#000000" stroke-width="2" stroke-linecap="butt"/><path d="M257.00897,213.15058c-0.57113,0 -1.03411,-0.46299 -1.03411,-1.03411c0,-0.57113 0.46299,-1.03413 1.03411,-1.03413c0.57113,0 1.03411,0.463 1.03411,1.03413c0,0.57113 -0.46299,1.03411 -1.03411,1.03411z" fill="#000000" stroke="none" stroke-width="1.5" stroke-linecap="butt"/><path d="M251.74912,217.38617c-4.4635,-0.31439 -6.55245,-1.79392 -6.16985,-2.58011c0.11788,-0.24224 2.84645,1.06355 6.97038,1.3048c6.40897,0.37493 8.51033,-0.63173 8.51033,-0.63173v1.34616c0,0 -2.4135,1.04672 -9.31086,0.56089z" fill="#000000" stroke="#000000" stroke-width="0" stroke-linecap="butt"/><path d="M223.93637,212.11647c0,-0.57113 0.46299,-1.03413 1.03411,-1.03413c0.57113,0 1.03413,0.463 1.03413,1.03413c0,0.57113 -0.463,1.03411 -1.03413,1.03411c-0.57113,0 -1.03411,-0.46299 -1.03411,-1.03411z" fill="#000000" stroke="none" stroke-width="1.5" stroke-linecap="butt"/><path d="M230.23035,217.38617c-6.89736,0.48585 -9.31086,-0.56089 -9.31086,-0.56089v-1.34616c0,0 2.10136,1.00666 8.51033,0.63173c4.12393,-0.24126 6.85251,-1.54704 6.97039,-1.3048c0.3826,0.78618 -1.70634,2.26571 -6.16985,2.58011z" fill="#000000" stroke="#000000" stroke-width="0" stroke-linecap="butt"/><path d="M241.51079,273.93792c-0.81895,0 -1.48284,-0.66389 -1.48284,-1.48284c0,-0.81895 0.66389,-1.48284 1.48284,-1.48284c0.81895,0 1.48284,0.66389 1.48284,1.48284c0,0.81895 -0.66389,1.48284 -1.48284,1.48284z" data-paper-data="{&quot;index&quot;:null}" fill="#000000" stroke="none" stroke-width="1.5" stroke-linecap="butt"/><path d="M217.44756,341.15713l-3.54583,-140.69804l-12.632,-15.91618l8.56126,-12.69841l17.44424,-8.70151c0,0 -0.34206,19.66088 2.20526,36.47051c-0.00333,1.194 -0.01459,2.38808 -0.01459,3.58104c0,3.54301 0.29514,6.97938 0.66916,10.50209c0.97999,2.98618 1.47592,7.10974 1.54064,10.28754c0.00965,2.8428 -0.31842,6.25472 0.3498,9.01643l0.05744,0.48208c0.01319,0.12566 0.11947,0.22359 0.24862,0.22359c0.08838,0 0.16605,-0.04586 0.21051,-0.11509l0.27418,-0.41343l-0.04301,-0.02852c0.96974,-1.22733 1.20209,-2.60549 2.00243,-3.98809c0.78867,-1.36244 2.13497,-2.42531 3.015,-3.75744c-0.0479,0.72674 0.25991,1.63849 0.3029,2.31624c0.14582,2.29887 0.01527,4.64597 0.01527,6.9493c0,2.99368 0.26655,5.83777 0.65088,8.76284c-0.8612,-0.07456 -2.05813,-0.1751 -2.40346,0.108c-0.97682,0.8008 0.2369,1.66228 0.47474,2.3285c-0.13956,0.25735 -0.26713,0.51893 -0.38552,0.78369c-0.5406,0.41623 -1.39895,0.79406 -1.81122,1.54968c-0.53647,1.43768 -0.31395,2.32671 0.11032,3.20145c-0.04583,0.11268 -0.09299,0.22481 -0.14169,0.33631c-0.11454,1.24058 0.14059,2.36694 0.4557,3.48009c-0.16724,0.88578 -0.03948,1.95798 -0.04308,2.83277c-0.0019,1.7403 0.20967,3.2278 0.54085,4.74174c0.13665,1.36578 0.54888,2.94702 0.21588,4.18178c-0.12108,0.44897 -0.24935,0.82053 -0.3525,1.15405c-0.77834,0.33215 -1.44387,1.00585 -0.89901,1.90954c0.44149,0.73224 1.24773,1.19246 1.95316,1.67761c2.05841,2.49189 4.83894,4.92728 7.17031,7.24929c0.05871,0.29437 0.15208,0.56332 0.2955,0.78963l0.10806,0.44966c0.02447,0.1124 0.12454,0.19657 0.24428,0.19657c0.11485,0 0.2116,-0.07744 0.24091,-0.18295l0.07455,-0.24622c0.4294,0.47183 0.79478,0.89577 1.18492,1.28933c0.2472,1.04314 0.49837,2.24795 1.06782,2.4276c0.47131,0.14869 0.88325,-0.21819 1.22815,-0.76473c0.00116,0.00059 0.00234,0.00117 0.0035,0.00176l0.39836,0.05498c0,0 0.2488,0.0245 0.2733,-0.22429c0.02451,-0.24879 -0.22429,-0.2733 -0.22429,-0.2733l-0.20064,-0.00592c0.41408,-0.82245 0.70527,-1.81262 0.85533,-2.17209c0.0113,-0.129 0.02736,-0.25473 0.04719,-0.37794c0.20627,-0.03308 0.4102,-0.081 0.61142,-0.14245c0.00119,0.03693 0.00184,0.06621 0.00184,0.08684v0.48905c0,0.13807 0.11193,0.25 0.25,0.25c0.13807,0 0.25,-0.11193 0.25,-0.25c0,0 0,-0.41583 0,-0.48905c0,-0.03585 0.00139,-0.08474 0.00377,-0.14484c0.01148,-0.04692 0.02271,-0.09394 0.03367,-0.14107c2.63229,-1.13965 4.71426,-4.50601 5.33565,-6.93417c0.02842,-0.84625 0.49077,-3.51004 -0.0143,-4.18697c-0.51894,-0.69553 -2.45926,-0.62219 -3.73707,-0.65253c0.84336,-2.42358 2.06877,-4.76989 2.55751,-7.21501c0.73679,-3.02177 0.60142,-7.43429 0.08724,-10.50221c-0.07215,-1.58161 -0.48328,-3.26152 -0.9613,-4.94571c0.18873,-0.48163 0.35282,-1.03302 0.41608,-1.19402c0.77221,-1.16704 1.12949,-2.26048 1.46824,-3.60336c0.3152,1.57145 0.8876,2.95417 0.95719,4.64063l0.02262,0.03353l-0.01204,0.00441l0.16986,0.46406c0.03349,0.0986 0.12685,0.16955 0.23677,0.16955c0.13239,0 0.24075,-0.10291 0.24944,-0.2331l0.03801,-0.49635l-0.04287,-0.00328c0.65569,-2.74924 0.33604,-6.9669 -0.0072,-9.54443c-0.46971,-3.49846 -0.5958,-6.90716 -0.59601,-10.4329c-0.00021,-3.50252 0.39078,-6.97562 0.41736,-10.46957c0.02598,-3.51425 0.24443,-6.95196 0.64996,-10.44268c0.03339,-3.5053 0.04064,-7.01002 0.04065,-10.51546c0.00001,-3.5 0.00002,-7 0.00002,-10.5c0,-3.5 0,-7 0,-10.5c-0.00099,-2.98318 -0.37675,-5.98841 -0.80153,-8.94979l12.60078,4.56573l12.53964,14.19201l-12.98287,15.0826l-2.43776,119.80474z" fill="#f7dfaf" stroke="#000000" stroke-width="0" stroke-linecap="butt"/><path d="M251.26437,270.47901c0.12434,-0.73864 0.31718,-1.465 0.54975,-2.18361c1.18311,0.02381 3.08752,-0.03704 3.50218,0.47473c0.36055,0.44497 -0.06605,3.16358 -0.08379,3.81207c-0.55676,2.12059 -2.39834,5.22408 -4.71668,6.41253c0.5159,-2.75434 0.29223,-5.80495 0.74853,-8.51571z" fill="#f7dfaf" stroke="#000000" stroke-width="0" stroke-linecap="butt"/><path d="M237.39216,271.4028c0.95949,1.09927 2.09522,1.52164 3.15068,2.44526c0.3041,0.26612 0.65946,1.14004 1.09056,1.20771c0.79789,0.12525 1.53197,-1.5312 1.95009,-1.52267c0.06199,0.00126 0.05771,2.04486 0.05866,2.21766c0.00357,0.65458 -0.10041,1.51033 -0.08486,2.31287c-1.11874,-1.13399 -2.04529,-2.52274 -3.3711,-3.31889c-0.16054,-0.09622 -0.36943,-0.2368 -0.61046,-0.41195c-0.99508,-0.99026 -1.94726,-1.99374 -2.77658,-3.00705c-0.4304,-0.52371 -1.34579,-1.54075 -1.50733,-2.27537c0.1202,-0.34618 0.48555,-0.59244 1.1869,-0.68398c0.26867,-0.23417 0.41883,-0.47421 0.49081,-0.72338c-0.2686,1.53791 -0.25889,2.93435 0.42264,3.75981z" fill="#f7dfaf" stroke="#000000" stroke-width="0" stroke-linecap="butt"/><path d="M238.91792,244.5966c-0.24138,0.00689 -0.48955,0.05574 -0.72709,0.13683c-0.14202,0 -0.28405,0 -0.42607,0c0,0 -0.25,0 -0.25,0.25c0,0.03094 0.00383,0.05804 0.01054,0.0818c-0.1774,0.12148 -0.33236,0.26089 -0.45243,0.41129c-0.35771,-0.57947 -0.89821,-1.141 -0.39961,-1.54975c0.21212,-0.1739 1.35859,-0.06722 2.15321,0.00558c0.02989,0.22085 0.0604,0.44224 0.09147,0.66426z" fill="#f7dfaf" stroke="#000000" stroke-width="0" stroke-linecap="butt"/><path d="M235.08901,248.4098c0.26525,-0.48605 0.65719,-0.7671 1.04538,-1.00558c-0.42541,1.10666 -0.74127,2.24995 -1.14329,3.35647c-0.23605,-0.61036 -0.29408,-1.30545 0.09791,-2.35089z" fill="#f7dfaf" stroke="#000000" stroke-width="0" stroke-linecap="butt"/><path d="M235.67949,253.24956c0.1139,0.27448 -0.12471,0.77172 -0.33039,1.19218c-0.19015,-0.77387 -0.31631,-1.5655 -0.2731,-2.4058c0.20262,0.37236 0.417,0.76422 0.60348,1.21362z" fill="#f7dfaf" stroke="#000000" stroke-width="0" stroke-linecap="butt"/><path d="M235.71912,257.65196c0.19009,0.90863 0.05585,1.86241 -0.06702,2.80911c-0.08776,-0.77146 -0.13752,-1.5661 -0.13661,-2.40718c0.00099,-0.2411 0.03841,-0.54089 0.09552,-0.87449c0.03863,0.15656 0.07494,0.31399 0.10811,0.47256z" fill="#f7dfaf" stroke="#000000" stroke-width="0" stroke-linecap="butt"/><path d="M236.25614,267.10187c0.08503,-0.33831 0.12141,-0.69398 0.12633,-1.05974c0.17499,0.67477 0.32736,1.53492 -0.10051,1.8646c-0.19909,0.01724 -0.42159,0.06465 -0.64323,0.13978c0.22956,-0.23818 0.50133,-0.4828 0.61741,-0.94464z" fill="#f7dfaf" stroke="#000000" stroke-width="0" stroke-linecap="butt"/><path d="M249.77575,277.86821c0.00721,0.27747 0.01768,0.56014 0.02864,0.82318c-0.01843,0.20649 -0.0247,0.41142 -0.00978,0.60343c-0.14781,0.04722 -0.2971,0.08611 -0.4477,0.116c0.12667,-0.52117 0.29887,-1.01372 0.42884,-1.54261z" fill="#f7dfaf" stroke="#000000" stroke-width="0" stroke-linecap="butt"/><path d="M245.52145,280.27939c-0.11391,-0.12996 -0.22976,-0.26381 -0.35027,-0.40198c0.06406,0.02436 0.1308,0.04589 0.19984,0.06488c0.05399,0.09302 0.10366,0.20718 0.15043,0.3371z" fill="#f7dfaf" stroke="#000000" stroke-width="0" stroke-linecap="butt"/><path d="M253.06665,245.45582c-0.14976,0.15305 -0.10969,-0.41447 -0.14753,-0.62523c-0.07302,-0.40672 -0.15413,-0.81124 -0.22642,-1.21788c0.1613,0.54902 0.32483,1.1008 0.48102,1.65199c-0.0366,0.0886 -0.07258,0.15587 -0.10707,0.19111z" fill="#f7dfaf" stroke="#000000" stroke-width="0" stroke-linecap="butt"/><path d="M244.65745,280.5656l0.0872,-0.288c1.24713,-1.3965 1.059,3.38609 2.24009,3.7587c1.22028,0.38497 2.0426,-2.68621 2.33371,-3.3836c0.07766,-0.88663 0.38045,-1.6189 0.58183,-2.4384c0.00721,0.27747 0.01769,0.56014 0.02865,0.82318c-0.02947,0.33022 -0.02784,0.65645 0.0418,0.93225c0.00506,0.11761 0.00817,0.20425 0.00817,0.24941v0.48906c0,0.13807 0.11193,0.25 0.25,0.25c0.13807,0 0.25,-0.11193 0.25,-0.25c0,0 0,-0.41583 0,-0.48906c0,-0.03585 0.0014,-0.08474 0.00377,-0.14484c0.71918,-2.9379 0.40899,-6.29533 0.90622,-9.24922c0.57343,-3.40656 2.60392,-6.55199 3.26925,-9.88055c0.7368,-3.02176 0.60143,-7.43429 0.08724,-10.50221c-0.07215,-1.58161 2.26672,-3.26152 1.7887,-4.94571c0.18874,-0.48163 -2.39718,-1.03302 -2.33392,-1.19402c0.77222,-1.16703 1.12949,-2.26048 1.46825,-3.60336c0.3152,1.57145 0.88761,2.95417 0.95719,4.64064l0.02262,0.03353l-0.01204,0.00441l0.16986,0.46406c0.03349,0.0986 0.12684,0.16954 0.23677,0.16954c0.13239,0 0.24075,-0.10291 0.24944,-0.2331l0.038,-0.49635l-0.04287,-0.00328c0.65569,-2.74925 0.33605,-6.9669 -0.00719,-9.54444c-0.46971,-3.49846 -0.5958,-6.90716 -0.59601,-10.4329c-0.0002,-3.50252 0.39078,-6.97562 0.41737,-10.46958c0.02598,-3.51425 0.24443,-6.95196 0.64996,-10.44267c0.03339,-3.5053 0.04064,-7.01002 0.04065,-10.51546c0.00002,-3.5 0.00002,-7 0.00002,-10.5c0,-3.5 0,-7 0,-10.5c-0.00099,-2.98318 -0.37676,-5.98841 -0.80154,-8.94978l12.60078,4.56573l12.53964,14.19201l-12.98287,15.0826l-2.43776,119.80474l-22.9724,11.18939c0.3627,-2.71046 0.68928,-5.41241 0.86051,-8.15214c0.21882,-3.50113 0.43713,-6.97705 0.43713,-10.48554c0,-3.49615 0.00128,-6.99226 -0.01042,-10.48839c-0.01171,-3.49987 -0.43281,-6.97147 -0.43281,-10.48082c0,-2.82508 0,-5.65015 0,-8.47523c0.03046,-0.03016 0.05321,-0.06811 0.06501,-0.1106z" fill="#f7aa11" stroke="#000000" stroke-width="0" stroke-linecap="butt"/><path d="M232.38803,260.93529c-0.07904,-0.5267 1.12459,-2.4237 1.40442,-3.36544c0.56552,-1.90328 0.58924,-4.52209 0.59443,-6.51538c0.00885,-3.43468 0.50369,-6.92767 0.50441,-10.43886c0.00001,-0.80684 0.44375,-3.54867 -0.05666,-4.1586c-1.60148,-1.95195 -2.44965,1.32293 -2.8581,1.94501c-0.25273,0.38492 -1.74866,0.16439 -2.15088,0.18227c-1.06333,-1.09242 -3.32943,-2.60096 -3.75186,-4.14047c-0.18377,-0.66972 0.81387,-1.49676 1.09058,-1.87258c0.3762,-0.51094 0.22292,-1.53748 0.22493,-2.13317c0.01138,-3.4152 -0.49791,-6.83317 -0.49793,-10.37825c-0.00002,-3.70138 -0.15754,-6.84094 -0.95941,-10.3939c-0.78127,-3.43551 -2.1439,-6.66727 -2.96809,-10.07279c-1.38143,-3.21437 -0.91885,-6.82176 -1.48149,-10.24322c-0.32625,-1.96436 0.2154,-4.03621 -0.0941,-5.99184c-0.22625,-1.42964 -0.94933,-2.93409 -1.40643,-4.30883c-0.87713,-3.36662 -0.59029,-6.89818 -0.59048,-10.36222c-0.00001,-1.47048 -0.00002,-2.94096 -0.00002,-4.41144c0.4475,0.12115 0.81064,0.27474 1.01082,0.46483l0.13485,0.34624c0,0 0.1032,0.2277 0.33091,0.1245c0.2277,-0.1032 0.1245,-0.33091 0.1245,-0.33091l-0.25257,-0.50857c-0.27459,-0.24447 -0.76362,-0.44002 -1.34852,-0.58979c0,-0.11032 0,-0.22064 0,-0.33096l7.63385,-3.80791c0,0 -0.34206,19.66088 2.20526,36.47051c-0.00333,1.194 -0.01459,2.38808 -0.01459,3.58104c0,3.54301 0.29514,6.97938 0.66916,10.50209c0.97999,2.98618 1.47592,7.10974 1.54064,10.28754c0.00965,2.8428 -0.31842,6.25472 0.3498,9.01643l0.05744,0.48208c0.01319,0.12566 0.11947,0.22359 0.24862,0.22359c0.08838,0 0.16605,-0.04586 0.21051,-0.11509l0.27418,-0.41343l-0.04301,-0.02852c0.96974,-1.22733 1.20209,-2.60549 2.00243,-3.98809c0.78867,-1.36244 2.13497,-2.42531 3.015,-3.75744c-0.0479,0.72674 0.25991,1.63849 0.3029,2.31624c0.14582,2.29887 0.01527,4.64597 0.01527,6.9493c0,3.55734 0.37638,6.90344 0.87949,10.4252c0.34725,2.43078 0.80146,4.82862 1.31141,7.2249c-0.57384,2.89865 -0.98331,5.80911 -1.53227,8.70904c-0.45089,2.38189 -3.12361,8.25688 -1.37529,10.37442c0.95949,1.09927 2.09522,1.52164 3.15068,2.44526c0.3041,0.26612 0.65946,1.14004 1.09056,1.20771c0.79789,0.12525 1.53197,-1.5312 1.95009,-1.52267c0.06199,0.00126 0.05771,2.04486 0.05866,2.21766c0.00642,1.17781 -0.33536,3.00687 0.29752,4.00546l0.10806,0.44966c0.02447,0.1124 0.12454,0.19657 0.24428,0.19657c0.11485,0 0.2116,-0.07744 0.24091,-0.18295l0.08719,-0.28799c1.24713,-1.3965 1.05901,3.38609 2.2401,3.7587c1.22029,0.38497 2.0426,-2.68621 2.33371,-3.3836c0.07766,-0.88663 0.38045,-1.6189 0.58183,-2.4384c0.00721,0.27747 0.01768,0.56014 0.02864,0.82318c-0.02947,0.33023 -0.02784,0.65645 0.0418,0.93226c0.00506,0.11761 0.00817,0.20424 0.00817,0.24941v0.48905c0,0.13807 0.11193,0.25 0.25,0.25c0.13807,0 0.25,-0.11193 0.25,-0.25c0,0 0,-0.41583 0,-0.48905c0,-0.03585 0.00139,-0.08474 0.00377,-0.14484c0.71918,-2.93789 0.40899,-6.29532 0.90622,-9.24921c0.57343,-3.40655 2.60392,-6.55199 3.26925,-9.88055c0.73679,-3.02177 0.60142,-7.43429 0.08724,-10.50221c-0.07215,-1.58161 -0.48328,-3.26152 -0.9613,-4.94571c0.18873,-0.48163 0.35282,-1.03302 0.41608,-1.19402c0.77221,-1.16704 1.12949,-2.26048 1.46824,-3.60336c0.3152,1.57145 0.8876,2.95417 0.95719,4.64063l0.02262,0.03353l-0.01204,0.00441l0.16986,0.46406c0.03349,0.0986 0.12685,0.16955 0.23677,0.16955c0.13239,0 0.24075,-0.10291 0.24944,-0.2331l0.03801,-0.49635l-0.04287,-0.00328c0.65569,-2.74924 0.33604,-6.9669 -0.0072,-9.54443c-0.46971,-3.49846 -0.5958,-6.90716 -0.59601,-10.4329c-0.00021,-3.50252 0.39078,-6.97562 0.41736,-10.46957c0.02598,-3.51425 0.24443,-6.95196 0.64996,-10.44268c0.03339,-3.5053 0.04064,-7.01002 0.04065,-10.51546c0.00001,-3.5 0.00002,-7 0.00002,-10.5c0,-3.5 0,-7 0,-10.5c-0.00099,-2.98318 -0.37675,-5.98841 -0.80153,-8.94979l4.27527,1.54909c0,1.02267 0,2.04534 0,3.06802c-0.36183,0.59329 -0.59785,1.22295 -0.62065,1.8632l-0.00582,0.16661c0,0 -0.00873,0.24985 0.24111,0.25858c0.24984,0.00873 0.25858,-0.24112 0.25858,-0.24112l0.00583,-0.1666c0.0081,-0.2363 0.05039,-0.47197 0.12095,-0.70516c0,1.1488 0,2.2976 0,3.44639c0,3.30401 0.58027,7.21567 -0.46427,10.35278c-0.81968,3.23418 -0.85068,7.15595 -1.02168,10.3773c-0.03904,3.50214 -0.01405,7.00562 -0.01405,10.50796c0,3.5 0,7 0,10.5c0,3.5 0,7 0,10.5c0,3.52258 -0.45038,6.97151 -0.4961,10.46247c-0.01707,3.50062 -0.00389,7.00158 -0.00389,10.50224c0,3.29105 0.6508,7.22476 -0.76087,10.23208c-0.50985,1.11658 -0.04528,2.34177 -0.23591,3.51887c-0.32452,2.0038 -1.12078,4.8785 -2.41551,6.37411c-0.30648,3.502 -1.3902,6.79974 -1.57233,10.36614c-0.04002,3.37761 -1.56353,6.79147 -3.05294,9.8104c-0.93416,1.89348 -2.16722,3.88424 -2.87792,5.81678c-0.42598,1.15834 -0.48896,2.5238 -1.22947,3.60256c-2.83435,1.46605 -5.88335,3.25833 -8.94933,4.7292c-0.17274,0.02712 -1.55585,0.70122 -1.63467,0.62025c-0.06162,-0.0633 0.12608,-1.6074 0.13104,-1.80835c0.05762,-2.33164 0.31145,-4.0902 1.0529,-6.30102c0.0128,-0.59717 -0.33783,-3.53558 -0.00857,-3.88801c0.45375,-0.48568 1.12397,-0.88028 1.69386,-1.52835c-0.03938,0.30023 -0.06584,0.59672 -0.08428,0.88106l-0.00108,0.01672l-0.03548,0.00026l0.00368,0.49975c0.00087,0.13733 0.11246,0.2484 0.24999,0.2484c0.13327,0 0.2422,-0.10429 0.2496,-0.2357l0.03224,-0.49707c0.08381,-1.29209 0.64941,-2.23547 0.96963,-3.38457c0.10997,-0.04992 0.23947,-0.08437 0.39346,-0.09997l-0.01339,-0.17291l0.08582,0.00162l0.00946,-0.49914c0.00004,-0.00184 0.00006,-0.00367 0.00006,-0.00551c0,-0.13807 -0.11193,-0.25 -0.25,-0.25c-0.06901,0 -0.13148,0.02796 -0.17672,0.07316v0l-0.35367,0.35343l0.07574,0.0758c-0.02961,0.03298 -0.05852,0.06656 -0.08674,0.10073c-0.29022,0.07774 -0.45324,0.289 -0.56129,0.55585c-0.03025,-0.44045 -0.09378,-0.78367 -0.19761,-0.91605c-1.36139,-1.73584 -3.76801,1.44862 -3.94382,-1.88653c-0.00517,-0.98647 0.54698,-4.41212 -0.06045,-5.14864c-0.47066,-0.5707 -1.54231,0.03532 -2.08773,-0.18927c-0.95238,-0.39216 -1.46864,-1.77636 -1.79387,-2.63439c-0.01053,-0.20124 -0.0467,-0.53385 -0.0914,-0.93812c0.25747,-1.82571 0.90492,-3.96065 0.56689,-5.67622c0.30569,-1.08286 0.4522,-2.46632 0.45735,-3.40161z" fill="#b57e0c" stroke="#000000" stroke-width="0" stroke-linecap="butt"/><path d="M200.46282,334.21432l-0.58857,-73.51584l2.69045,14.38785l-0.55058,-59.65719l3.15684,9.20184l3.59682,-16.19025l2.77575,19.17719l0.94428,58.54604l1.81045,-5.97623l0.34786,54.02659z" fill="#000000" stroke="none" stroke-width="0" stroke-linecap="butt"/><path d="M280.90873,192.15968c0,0 -24.22703,28.14913 -36.14722,37.70107c-10.07837,8.07604 -30.78024,15.92955 -30.78024,15.92955" fill="none" stroke="url(#color-2)" stroke-width="3" stroke-linecap="round"/><path d="M280.24393,259.53038c0,0 -21.12205,23.38756 -35.16381,32.89615c-14.10297,9.55005 -45.28212,24.2803 -45.28212,24.2803" fill="none" stroke="url(#color-3)" stroke-width="3" stroke-linecap="round"/></g><g fill="#000000" stroke="#ffffff"><path d="M213.82944,187.67121z" stroke-width="0.5" stroke-linecap="butt"/><path d="M218.15025,189.22004l-12.22218,0.05904" stroke-width="0.5" stroke-linecap="round"/><text transform="translate(205.92806,188.98386) scale(0.06197,0.06197)" font-size="40" xml:space="preserve" fill="#000000" fill-rule="nonzero" stroke="#ffffff" stroke-width="1" stroke-linecap="butt" stroke-linejoin="miter" stroke-miterlimit="10" stroke-dasharray="" stroke-dashoffset="0" font-family="Pixel" font-weight="normal" text-anchor="start" style="mix-blend-mode: normal"><tspan x="0" dy="0">DONK</tspan></text><text transform="translate(205.7802,191.49297) scale(0.06197,0.06197)" font-size="40" xml:space="preserve" fill="#000000" fill-rule="nonzero" stroke="#ffffff" stroke-width="1" stroke-linecap="butt" stroke-linejoin="miter" stroke-miterlimit="10" stroke-dasharray="" stroke-dashoffset="0" font-family="Sans Serif" font-weight="normal" text-anchor="start" style="mix-blend-mode: normal"><tspan x="0" dy="0">Industries</tspan></text><path d="M213.5448,187.62584v-0.70853h4.6645v0.70853z" stroke-width="0.5" stroke-linecap="butt"/><path d="M213.5448,188.79688v-0.68885h4.6645v0.68885z" stroke-width="0.5" stroke-linecap="butt"/><text transform="translate(204.43788,185.39464) scale(0.21474,0.21474)" font-size="40" xml:space="preserve" fill="#000000" fill-rule="nonzero" stroke="#ffffff" stroke-width="1" stroke-linecap="butt" stroke-linejoin="miter" stroke-miterlimit="10" stroke-dasharray="" stroke-dashoffset="0" font-family="Marker" font-weight="normal" text-anchor="start" style="mix-blend-mode: normal"><tspan x="0" dy="0">END</tspan></text></g></g><path d="M268.29922,318.97826l0.18564,-44.18118l3.20459,10.74039l6.44844,-15.56691l7.23977,56.61874z" fill="#000000" stroke="none" stroke-width="0" stroke-linecap="butt"/><path d="M279.84292,223.69959c0.79497,0.73946 0.79497,1.90415 0.79497,1.90415c0,5.77485 -0.16392,11.48716 -0.56284,17.25065c-0.14604,2.10988 0.62304,4.50302 -0.44363,6.32925c-2.38263,4.07926 -6.90074,3.36767 -10.60713,2.4289c-1.15282,-0.29199 -2.5722,-0.23116 -3.39809,-1.08682c-1.32863,-1.37651 -2.67185,-3.2087 -2.59304,-5.1202c0.03972,-0.96348 2.03506,-0.05716 2.82906,-0.60437c0.35017,-0.24133 -0.85679,-0.24472 -1.14975,-0.55299c-0.35595,-0.37455 -0.2905,-1.06286 -0.69336,-1.38642c-0.63865,-0.51294 -1.71607,-0.36203 -2.25342,-0.98029c-1.2104,-1.39268 -1.84395,-3.19662 -2.76592,-4.79494c1.24222,-0.81748 2.34957,-1.90941 3.65512,-2.59802c-0.41339,-0.29426 -0.7762,-0.64054 -1.00108,-1.0792c-0.80972,-1.57946 -2.0388,-3.49616 -1.37782,-5.14342c1.7963,-4.47665 4.41094,-1.3415 6.80373,-1.87434c1.10391,-0.24583 0.14783,-2.25715 0.20459,-3.38667c0.07373,-1.4673 -0.46943,-3.23106 0.43922,-4.3855c3.05916,-3.88665 5.24443,-1.62002 8.22862,-0.4015c1.50941,0.61633 3.78948,0.3106 4.57057,1.74172c0.61346,1.124 -0.15851,2.45032 -0.67979,3.74003z" fill="#000000" stroke="none" stroke-width="0.5" stroke-linecap="butt"/><path d="M258.73294,242.31092c0,0.12245 -0.006,0.23891 -0.01741,0.34966l0.66085,2.47819c0.06451,0.22189 0.0991,0.45652 0.0991,0.69922c0,1.38071 -1.11929,2.5 -2.5,2.5c-0.44574,0 -0.86424,-0.11665 -1.22662,-0.3211l-2.37189,-1.27717l0.20758,-0.38551c-0.5821,-0.28301 -1.08461,-0.66252 -1.44802,-1.21067c-0.84717,-1.27781 1.22043,-2.81291 1.83065,-4.21937l2.26576,-1.11325c0,0 2.5,0 2.5,2.5z" fill="#000000" stroke="none" stroke-width="0.5" stroke-linecap="butt"/><path d="M250.04536,232.30433c0.15534,-1.08741 0.72022,-1.62878 1.30475,-1.89401c0.18778,-1.19488 1.22195,-2.10879 2.46957,-2.10879c0.93821,0 1.75571,0.51682 2.18334,1.28129l1.25401,2.14973c0.22977,0.37805 0.36209,0.82187 0.36209,1.2966c0,1.18507 -0.82456,2.17755 -1.93126,2.43502c-0.29033,0.19441 -0.66373,0.3426 -1.14336,0.41112c-1.08108,0.15444 -1.75738,-0.23082 -2.17625,-0.71374l-0.20157,-0.0288c0,0 -2.47487,-0.35355 -2.12132,-2.82843z" fill="#000000" stroke="none" stroke-width="0.5" stroke-linecap="butt"/><path d="M258.18093,217.5862c0.85281,0.25865 1.21493,1.10769 1.49439,2.05617c0.28071,0.20665 0.56142,0.4133 0.84213,0.61994c0,0 2,1.5 0.5,3.5c-1.5,2 -3.5,0.5 -3.5,0.5c-0.47116,-0.36205 -0.94232,-0.72409 -1.41347,-1.08614l-0.3264,0.59492c-0.05441,-0.29159 -0.07697,-0.5941 -0.06973,-0.89931c-0.00969,-0.00745 -0.01938,-0.01489 -0.02907,-0.02234l-0.22371,-0.0799l-0.80429,0.14671c0,0 -0.2221,-0.2221 -0.43013,-0.58758l-0.81576,-0.29134c-0.99563,-0.32948 -1.71397,-1.26782 -1.71397,-2.37393c0,-1.38071 1.11929,-2.5 2.5,-2.5h2.59889v0.30428c0.46564,-0.04873 0.92961,-0.02147 1.3911,0.1185z" fill="#000000" stroke="none" stroke-width="0.5" stroke-linecap="butt"/></g><g><path d="M190.55958,135.9773c0,0 0.00001,0 0.00002,0c-0.00001,0.00002 -0.00001,0.00003 -0.00001,0.00003z" fill="#000000" stroke="none" stroke-width="1.5" stroke-linecap="butt"/><path d="M196.12779,140.33565c0,0 0,0 0.00001,0c-0.00001,0.00002 0,0.00003 0,0.00003z" fill="#000000" stroke="none" stroke-width="1.5" stroke-linecap="butt"/><path d="M196.12779,140.33565c0,0 0,0 0.00001,0c-0.00001,0.00002 0,0.00003 0,0.00003z" fill="#000000" stroke="none" stroke-width="1.5" stroke-linecap="butt"/><path d="M207.5886,138.78692c-0.65001,-3.20263 0.17116,-6.66815 -0.09138,-9.83442c-0.32521,-3.92216 -1.65154,-7.23458 -1.65154,-7.23458c0,0 2.13679,1.0563 2.6491,1.98499c0.44402,0.80489 0.24937,3.26903 0.24937,3.26903c0,0 0.90615,-3.22383 2.93491,-5.43963c2.13857,-2.33573 5.45767,-3.69231 7.5983,-4.61897c0.73985,-0.32027 -1.04592,1.28996 -2.25789,3.53152c-1.18241,2.18689 -1.78293,5.00264 -1.78293,5.00264c0,0 4.38705,-5.32452 7.56912,-8.11695c1.2614,-1.10695 3.15345,-2.63811 5.19228,-4.24537c0.15392,0.8363 0.2842,1.68554 0.3902,2.55525c0.19751,1.6205 0.24012,3.31422 0.36973,4.86597c0.06943,0.83122 1.05792,1.30604 1.16728,2.12165c0.12249,0.91349 0.74287,3.39134 1.59212,1.33875c0.22025,-0.5932 1.46147,-4.10706 2.26565,-4.04563c0.08779,0.00671 0.30715,1.10276 0.33054,1.17694c0.33106,1.05002 0.33116,1.99848 0.81352,2.89251l-0.07456,0.03679l0.21866,0.44319c0.04441,0.09562 0.14669,0.15621 0.25701,0.14275c0.12775,-0.01556 0.22117,-0.12492 0.21977,-0.25069l0.00159,-0.49668c0.00004,-0.15792 0.00009,-0.31586 0.00014,-0.47379c0.03913,-0.17831 0.22316,-1.54877 0.5045,-1.50727c0.41435,0.06111 0.88423,1.53768 0.92416,1.87656c0.21915,1.85967 0.6128,4.09791 1.59701,5.72082c0.37098,3.39339 1.63242,6.94887 1.31077,10.23419c1.28537,2.75772 3.7218,4.86388 5.45474,7.46277l0.13339,0.40433c0.03497,0.11346 0.14713,0.18909 0.26912,0.17423c0.09907,-0.01208 0.1775,-0.08055 0.20706,-0.16933l0.16219,-0.45507c0.38348,-1.07601 0.60781,-2.23188 0.55137,-3.31993c-0.04538,-0.54227 1.06782,-2.45678 1.70415,-1.7349c1.49949,1.70105 2.4203,4.03705 3.68026,5.92012c0.95295,0.81152 3.37473,1.40689 4.57425,0.43877c0.2363,0.10451 0.54991,-0.02213 0.97768,-0.51112c0.0103,-0.0118 0.53753,-0.86249 0.55314,-0.8904c0.24484,-0.43765 0.45435,-0.90125 0.68002,-1.34914c0.62992,-1.25023 1.6393,-2.50603 2.53791,-3.81135c-0.10482,0.57778 -0.18597,1.12445 -0.22766,1.6431c-0.17862,2.22219 -1.37036,2.62399 -1.43653,7.48119c-0.02535,1.86029 1.34918,5.92506 1.18708,8.7076c-0.36525,6.27046 -3.0515,9.36262 -8.17207,15.76533c-5.12056,6.40272 -20.94743,7.8523 -26.54955,3.21377c-5.96534,-4.9393 -10.16513,-8.34734 -11.80567,-14.85932c-1.47747,-5.86471 -1.96962,-9.74181 -2.95926,-15.00052c-0.7233,-3.84346 -3.02433,-6.12413 -3.81907,-10.0397z" fill="#ffffff" stroke="#000000" stroke-width="0" stroke-linecap="butt"/><g data-paper-data="{&quot;index&quot;:null}" stroke="none" stroke-linecap="butt"><g><path d="M260.30601,165.15349c0,0 0.03676,24.34635 -6.25818,29.12964c-2.87921,2.18779 -6.96165,3.26346 -12.06336,4.36129c-0.7404,0.03406 -1.85644,3.06554 -2.82337,3.09888c-1.12081,0.03863 -2.11958,-2.92423 -3.34465,-2.94094c-2.86876,-0.03915 -5.7289,-0.31015 -7.20107,-1.18794c-9.08051,-5.41427 -13.02945,-28.71245 -13.02945,-28.71245l23.73491,-1.99417l20.98521,-1.75428z" fill="#000000" stroke-width="0"/><path d="M234.92217,188.70381c0.63693,0.08491 1.922,2.17038 2.912,2.11954c0.9903,-0.05086 1.68559,-2.23808 2.63327,-2.35358c1.87376,-0.22838 4.55607,-0.59904 5.69997,-0.96461c2.34497,-0.79468 2.73788,-0.2433 0.77345,1.0138c-0.96093,0.626 -3.16355,1.28594 -6.65556,1.71155c-0.77158,0.09404 -1.4264,3.24296 -2.02089,3.29431c-1.11615,0.09645 -1.96992,-2.95735 -2.6345,-3.00192c-0.92534,-0.06207 -1.52216,-0.25489 -2.09448,-0.56194c-2.12525,-1.12619 -1.78211,-1.72896 0.84506,-1.27171z" data-paper-data="{&quot;noHover&quot;:false,&quot;origItem&quot;:[&quot;Path&quot;,{&quot;applyMatrix&quot;:true,&quot;segments&quot;:[[[15.92589,311.65151],[0,0],[-0.92968,-0.4187]],[[15.56651,312.25289],[-0.71874,-0.74602],[0.40626,0.4263]],[[17.90245,312.74771],[-1.55468,0],[1.28126,0]],[[20.27745,312.35185],[-0.375,0.27406],[0.76562,-0.5481]],[[20.04307,311.78091],[0.88282,-0.27406],[-0.42968,0.1218]],[[17.99619,312.00167],[0.6875,0],[-0.69532,0]],[[15.92587,311.65149],[0.45314,0.1751],[0,0]]],&quot;closed&quot;:true,&quot;fillColor&quot;:[0,0,0]}]}" fill="#ffffff" stroke-width="0.5"/><path d="M218.94857,171.02149c-0.72599,-1.16954 0.31361,-1.12369 3.11439,-0.30599c2.10673,0.61959 4.73877,13.00835 8.30095,17.9455c1.13686,1.57032 2.39692,2.41999 4.37878,2.72212c0.99728,0.15204 2.39905,3.92803 3.83813,3.82487c0.66867,-0.04794 1.17157,-3.88365 1.95977,-3.97971c6.40905,-0.78115 7.72787,-1.51356 10.87441,-6.90088c2.53038,-4.23795 6.07441,-18.09831 6.92334,-17.69291c0.63093,0.38957 -0.91391,19.34175 -2.22656,22.04605c-0.68364,1.48269 -1.96164,3.26798 -2.72588,3.91239c-2.2214,1.81857 -6.86847,3.4491 -11.51144,4.18564c-1.10671,0.17556 -1.6556,3.90357 -2.72895,3.968c-0.75643,0.0454 -2.05401,-3.54241 -2.76601,-3.56032c-7.45195,-0.15187 -10.05102,-2.0438 -14.2744,-10.27864c-1.38286,-2.6585 -2.83481,-15.37395 -3.15656,-15.88599z" data-paper-data="{&quot;noHover&quot;:false,&quot;origItem&quot;:[&quot;Path&quot;,{&quot;applyMatrix&quot;:true,&quot;segments&quot;:[[[10.70715,306.57397],[0,0],[0.09376,0.29688]],[[11.56653,309.88543],[-0.38282,-1.52252],[1.16406,4.71216]],[[16.20715,316.24189],[-2.6875,-0.57094],[2.14844,0.47198]],[[22.44933,314.91731],[-1.24218,1.17232],[0.30468,-0.29688]],[[23.58995,313.02179],[-0.3125,0.75364],[0.59376,-1.37026]],[[24.97277,306.79473],[0.21094,0.25122],[-0.28906,-0.27406]],[[22.27745,310.38023],[1.10158,-2.11628],[-1.375,2.69484]],[[17.94933,313.50137],[2.35156,0],[-2.14844,0]],[[14.27745,311.35463],[0.59376,1.59864],[-1.07032,-2.89276]],[[11.68371,306.49783],[0.73436,0.47198],[-0.97656,-0.62422]],[[10.70715,306.57395],[-0.21094,-0.67752],[0,0]]],&quot;closed&quot;:true,&quot;fillColor&quot;:[0,0,0]}]}" fill="#ffffff" stroke-width="0.5"/></g><g data-paper-data="{&quot;index&quot;:null}"><path d="M216.51322,169.05847c0,0 0.55322,-10.33531 6.84818,-15.11861c1.36506,-1.03725 3.2891,-1.85968 5.47896,-2.55483c0.71397,-0.22665 2.54037,2.62559 3.30069,2.42297c1.23564,-0.3293 1.4349,-3.69621 2.7225,-3.98308c0.61557,-0.13714 1.2321,-0.27094 1.84482,-0.40277c3.60834,-0.16598 9.44226,-0.38958 12.08547,1.18644c9.08051,5.41427 12.43947,14.70142 12.43947,14.70142l-23.7349,1.99418l-20.98519,1.75427z" fill="#000000" stroke-width="0"/><path d="M242.37035,159.53339c-1.27406,-0.16983 -3.65021,0.00308 -5.54527,0.23405c-0.89376,0.10893 -1.7213,4.24622 -2.72828,4.40391c-1.10414,0.17289 -2.3734,-3.63049 -2.97168,-3.43929c-2.34497,0.79468 -1.80143,-0.81823 0.163,-2.07533c0.5651,-0.36813 1.3857,3.65494 2.81932,3.31788c1.00422,-0.2361 1.46134,-3.79259 2.89979,-3.96789c4.2372,-0.51643 5.54757,-0.37549 6.74986,0.26953c2.12525,1.12619 1.78211,1.72896 -0.84506,1.27172z" data-paper-data="{&quot;noHover&quot;:false,&quot;origItem&quot;:[&quot;Path&quot;,{&quot;applyMatrix&quot;:true,&quot;segments&quot;:[[[15.92589,311.65151],[0,0],[-0.92968,-0.4187]],[[15.56651,312.25289],[-0.71874,-0.74602],[0.40626,0.4263]],[[17.90245,312.74771],[-1.55468,0],[1.28126,0]],[[20.27745,312.35185],[-0.375,0.27406],[0.76562,-0.5481]],[[20.04307,311.78091],[0.88282,-0.27406],[-0.42968,0.1218]],[[17.99619,312.00167],[0.6875,0],[-0.69532,0]],[[15.92587,311.65149],[0.45314,0.1751],[0,0]]],&quot;closed&quot;:true,&quot;fillColor&quot;:[0,0,0]}]}" fill="#ffffff" stroke-width="0.5"/><path d="M257.75395,163.2047c0.72599,1.16954 -0.31361,1.12368 -3.11439,0.30598c-2.10673,-0.61959 -4.1488,1.00268 -7.71096,-3.93447c-1.97476,-2.72768 -4.32121,-3.28095 -10.17667,-2.56727c-0.85051,0.10368 -2.13247,3.70433 -2.81987,3.81727c-1.06659,0.17523 -1.4352,-3.12298 -2.20839,-2.85788c-2.48349,0.85151 -3.76508,2.3784 -5.84616,5.9415c-2.53037,4.23795 -6.66439,4.0873 -7.51332,3.68189c-0.63093,-0.38957 1.5039,-5.33072 2.81654,-8.03503c0.68364,-1.48269 1.96163,-3.268 2.72589,-3.9124c1.22,-0.99875 3.17163,-1.94081 5.45238,-2.70919c0.68488,-0.23074 3.09259,3.72958 3.82592,3.53333c1.08581,-0.29057 0.51963,-4.71526 1.65241,-4.91302c2.07856,-0.36287 4.17663,-0.55218 6.07567,-0.50443c7.45195,0.15187 10.05102,2.0438 14.2744,10.27865c1.38286,2.6585 2.24483,1.36292 2.56658,1.87497z" data-paper-data="{&quot;noHover&quot;:false,&quot;origItem&quot;:[&quot;Path&quot;,{&quot;applyMatrix&quot;:true,&quot;segments&quot;:[[[10.70715,306.57397],[0,0],[0.09376,0.29688]],[[11.56653,309.88543],[-0.38282,-1.52252],[1.16406,4.71216]],[[16.20715,316.24189],[-2.6875,-0.57094],[2.14844,0.47198]],[[22.44933,314.91731],[-1.24218,1.17232],[0.30468,-0.29688]],[[23.58995,313.02179],[-0.3125,0.75364],[0.59376,-1.37026]],[[24.97277,306.79473],[0.21094,0.25122],[-0.28906,-0.27406]],[[22.27745,310.38023],[1.10158,-2.11628],[-1.375,2.69484]],[[17.94933,313.50137],[2.35156,0],[-2.14844,0]],[[14.27745,311.35463],[0.59376,1.59864],[-1.07032,-2.89276]],[[11.68371,306.49783],[0.73436,0.47198],[-0.97656,-0.62422]],[[10.70715,306.57395],[-0.21094,-0.67752],[0,0]]],&quot;closed&quot;:true,&quot;fillColor&quot;:[0,0,0]}]}" fill="#ffffff" stroke-width="0.5"/></g></g><path d="M238.7983,164.6279c-1.02616,0.12507 -3.90658,-2.80841 -4.40781,-4.86617c-0.44848,-1.84113 0.84232,-3.95897 3.29575,-4.258c2.45343,-0.29903 4.23062,-0.02123 4.50715,3.67019c0.23468,3.1328 -0.94165,5.15496 -3.39507,5.454z" fill="#ffffff" stroke="#000000" stroke-width="1.15" stroke-linecap="butt"/><path d="M212.66657,140.32966c-0.52145,-4.86453 3.72165,-9.45582 9.06464,-10.02857c5.34297,-0.57273 9.47493,3.12503 9.99637,7.98955c0.52145,4.86453 -3.02923,9.22868 -8.37221,9.80142c-5.34297,0.57273 -10.16736,-2.89787 -10.68881,-7.76241z" fill="#838383" stroke="#000000" stroke-width="0" stroke-linecap="butt"/><path d="M212.22807,137.73764c-0.52145,-4.86453 3.72165,-9.45582 9.06464,-10.02857c5.34297,-0.57273 9.47493,3.12503 9.99637,7.98955c0.52145,4.86453 -3.02923,9.22867 -8.37221,9.80142c-5.34298,0.57274 -10.16736,-2.89787 -10.68881,-7.76241z" fill="#000000" stroke="#000000" stroke-width="1.4" stroke-linecap="butt"/><path d="M219.2655,137.53485c-0.48964,-2.83152 3.20352,-9.75829 3.20352,-9.75829c0,0 1.65454,5.8858 2.14417,8.71731c0.48964,2.83152 -4.66457,9.0105 -4.66457,9.0105c0,0 -0.19349,-5.13801 -0.68313,-7.96951z" fill="#750000" stroke="none" stroke-width="1.5" stroke-linecap="butt"/><path d="M219.86419,137.41749c-0.29404,-2.743 2.69409,-9.90349 2.69409,-9.90349c0,0 1.09387,5.64318 1.3879,8.38618c0.29404,2.743 -3.78122,9.30167 -3.78122,9.30167c0,0 -0.00674,-5.04137 -0.30077,-7.78435z" fill="#bd0000" stroke="none" stroke-width="1.5" stroke-linecap="butt"/><path d="M210.72077,148.60328c0,0 -5.32139,-2.8945 -7.20474,-8.16331c-1.98165,-5.54382 -2.62799,-9.48452 -0.73228,-9.97663c1.8957,-0.49212 2.97093,2.03241 4.71613,7.84271c1.74519,5.81031 3.22092,10.29722 3.22092,10.29722z" data-paper-data="{&quot;index&quot;:null}" fill="#ffffff" stroke="#000000" stroke-width="1" stroke-linecap="butt"/><path d="M210.04208,144.70924c0,0 -3.89137,-2.47073 -5.30884,-7.8661c-0.79073,-3.0097 1.86504,-2.52435 1.86504,-2.52435" fill="none" stroke="#000000" stroke-width="0.25" stroke-linecap="round"/><path d="M242.74667,174.93312c0,0 3.53686,-26.41595 6.40758,-39.93629c2.72873,-12.85156 10.4124,-39.28122 10.4124,-39.28122" data-paper-data="{&quot;index&quot;:null}" fill="none" stroke="url(#color-4)" stroke-width="3" stroke-linecap="round"/><path d="M233.9761,167.05712l7.65722,-6.61165l12.52737,14.50842l-7.65722,6.61166c0,0 -6.19227,3.26726 -8.58133,2.30034c-1.32568,-0.53655 1.02032,-4.96005 0.28484,-5.81184c-2.11356,-2.44779 -4.23087,-10.99693 -4.23087,-10.99693z" fill="url(#color-5)" stroke="url(#color-6)" stroke-width="0" stroke-linecap="butt"/><path d="M242.44511,176.24839c0,0 -14.96047,-12.95481 -20.63579,-20.45971c-6.09625,-8.06151 -14.76935,-26.35904 -14.76935,-26.35904" fill="none" stroke="url(#color-7)" stroke-width="3" stroke-linecap="round"/><path d="M214.58285,168.64485c4.72366,-0.54273 18.07308,4.23998 18.07308,4.23998" data-paper-data="{&quot;index&quot;:null}" fill="none" stroke="url(#color-8)" stroke-width="3" stroke-linecap="round"/><path d="M227.7555,175.62386l-2.77759,-3.12971c0,0 -5.19451,-7.72285 -11.14916,-10.16562c-6.74494,-2.76696 -14.30084,-0.33019 -13.37417,-1.02312c2.62851,-1.96552 38.76029,0.54277 38.76029,0.54277c0,0 2.21789,8.17682 3.35449,10.81362c0.68433,1.58756 2.82658,3.52589 2.82658,3.52589c0,0 0.64121,4.11485 -1.49563,5.55585c-1.18573,0.79961 -3.54336,-3.61769 -4.66073,-3.48369c-3.211,0.38507 -11.4841,-2.63597 -11.4841,-2.63597z" fill="url(#color-9)" stroke="url(#color-10)" stroke-width="0" stroke-linecap="butt"/><path d="M238.8275,134.30792c0,0 0.48765,3.9397 0.77346,7.0851c0.56596,6.2284 2.28513,27.68762 2.28513,27.68762l-2.95872,0.36931c0,0 -1.30188,-4.04494 -2.26431,-9.29412c-1.30273,-7.10521 -2.41745,-16.11913 -3.13307,-19.39571c-0.67833,-3.10588 -1.58072,-5.56417 -1.58072,-5.56417" fill="#ffffff" stroke="#000000" stroke-width="1.3" stroke-linecap="round"/></g></g></g></svg>