<svg version="1.1" xmlns="http://www.w3.org/2000/svg" xmlns:xlink="http://www.w3.org/1999/xlink" width="93.13705" height="259.35811" viewBox="0,0,93.13705,259.35811"><g transform="translate(-196.97695,-49.18032)"><g data-paper-data="{&quot;isPaintingLayer&quot;:true}" fill-rule="nonzero" stroke-linejoin="miter" stroke-miterlimit="10" stroke-dasharray="" stroke-dashoffset="0" style="mix-blend-mode: normal"><path d="M196.97695,308.53842v-229.46124c0.0906,0.48147 0.24413,0.89304 0.50441,0.97262c1.10553,0.33801 0.98163,-1.39602 2.39375,-0.24268l0.21231,0.40512c0.04096,0.08216 0.12583,0.1386 0.22387,0.1386c0.11406,0 0.21028,-0.07638 0.24029,-0.18078l0.14758,-0.47177l-0.06647,-0.02079c0.48444,-1.37317 0.40889,-2.91972 1.56293,-3.97319c1.21407,-1.10828 3.48812,-0.79776 4.2852,-2.26323c1.02212,-0.61389 1.88298,0.1309 2.69028,-0.30062c1.93579,-1.0347 1.01137,-5.85754 3.53981,-5.96564c1.42378,0.59896 3.39621,0.47729 4.30876,-0.81173c0.37419,-0.52857 1.20902,-2.57305 1.90379,-2.60516c0.64055,-0.02961 1.54033,0.79917 2.04484,1.12968c1.21898,0.54251 1.74318,-0.84442 2.37267,-1.72269c1.45709,-2.03293 2.85004,-4.10823 4.31408,-6.13726c0.4804,-0.70784 1.01818,-1.19969 1.59154,-1.71424h58.91237v253.22501zM245.05468,59.0571l-0.11065,-0.08051c-1.29844,-0.9265 -2.89937,-0.96708 -4.43882,-0.96758c-0.9418,-0.00328 -3.33278,-0.75521 -4.09808,-0.2374c-1.28685,0.87071 0.9652,2.73898 0.53357,3.35703c-0.35157,0.50342 -1.08246,0.39683 -1.76176,0.4076l-0.01917,-0.1388l-0.49175,0.06791c-0.12361,0.01511 -0.21935,0.12045 -0.21935,0.24814c0,0.07043 0.02913,0.13406 0.07599,0.1795l0.35835,0.34825l0.00058,-0.0006l0.00243,0.00348c1.36838,1.24258 2.89733,2.16881 4.15016,3.55399c0.45588,0.50404 0.96473,1.31938 1.52248,2.00571c-0.14067,-0.09163 -0.28257,-0.18135 -0.42645,-0.26844l0.01709,-0.01972l-0.37684,-0.32664c-0.04399,-0.03856 -0.10163,-0.06194 -0.16472,-0.06194c-0.13807,0 -0.25,0.11193 -0.25,0.25c0,0.02573 0.00389,0.05055 0.0111,0.07391l0.13514,0.4754l0.01054,-0.003l0.00203,0.03739c0.09578,0.15103 0.19156,0.30206 0.28734,0.4531c1.14906,1.78309 1.59373,4.04327 2.53872,5.94477c0.2693,0.54189 1.33084,1.96234 1.30459,2.52139c-0.00896,0.19086 -0.38625,0.08006 -0.57211,0.0357c-2.95141,-1.25188 -1.01361,2.60371 -2.11368,3.48544c-0.54704,0.43846 -2.25052,-0.39233 -2.9749,0.17778c-0.49708,0.39122 -0.58611,1.87181 -0.7611,2.48595c-0.81092,1.60945 -2.51545,0.65551 -3.20211,1.80557c-0.7738,1.29601 0.07504,5.15052 0.18739,6.63461c0.04578,0.60475 0.47233,2.78906 -0.13025,3.21699c-0.6338,0.4501 -2.39724,-0.5771 -3.03658,0.21664c-0.37415,0.46451 0.33683,2.16052 0.02026,2.47708c-0.03364,0.03364 -1.20706,-0.07322 -1.32322,-0.07322c-0.30408,0 -1.46729,-0.13311 -1.67726,0.07786c-0.34291,0.34453 0.16233,1.56874 -0.24366,1.92587c-0.17879,0.15727 -1.22284,-1.05603 -1.77862,-0.74914c-0.82789,0.45715 -1.42975,4.00269 -1.34096,4.83885c-1.11534,0.15243 -1.01725,-3.71227 -1.77241,-4.01829c-0.84003,-0.34041 -0.68921,0.9153 -1.26551,0.59359c-0.3545,-0.19789 -0.32585,-0.91424 -0.55607,-1.23569c-0.49833,-0.69582 -1.32914,-0.9984 -1.93139,-1.59703c-0.41921,-0.40974 -1.92566,-2.26803 -2.41766,-1.9812c-0.12519,0.07298 -0.11052,2.3566 -0.29127,2.31524c-1.22783,-0.28096 -0.76172,-4.58621 -3.26853,-3.09194c-0.07121,0.11929 -0.99436,1.42487 -0.99549,1.42451c-0.04783,-0.01518 -0.22684,-1.15969 -0.25591,-1.24463c-0.4225,-1.23468 -0.50133,-2.58837 -0.76929,-3.87231c-0.26027,-1.24706 -0.68747,-2.7398 -1.68588,-0.99797c-0.46102,0.61181 -0.33638,1.9954 -1.10214,2.01667c-0.43137,0.01198 -0.38724,-0.77418 -0.62993,-1.131c-0.68764,-1.01102 -2.10585,-4.04337 -3.29649,-3.58033c0,0 -0.22361,0.1118 -0.1118,0.33541c0.1118,0.22361 0.33541,0.1118 0.33541,0.1118c0.8326,-0.62757 2.67453,4.79287 3.71669,4.76392c0.43382,-0.01205 1.24497,-1.89639 1.50539,-2.24077c0.13788,-0.23947 0.08748,-0.63342 0.3337,-0.75885c0.07932,-0.04041 0.51446,1.91329 0.54771,2.0727c0.38998,1.86916 0.7199,6.99226 2.76728,3.44861c1.48441,-1.05147 1.90915,3.2252 2.88453,3.24356c1.13353,0.02134 0.48853,-1.97014 0.61483,-2.41374c0.05592,-0.19642 0.13422,0.39048 0.24727,0.56057c0.32251,0.48524 1.09193,0.95686 1.52058,1.37584c0.5166,0.51351 2.17521,2.73036 2.62346,2.92805c0.42292,0.18652 0.96653,-0.96724 1.24936,-0.60164c0.78161,1.01037 0.28919,4.37761 2.38827,3.89428c0.10289,-0.98577 0.42542,-4.07892 1.21998,-4.73343c0.29768,-0.24521 1.1546,1.11256 1.78783,0.74328c0.62317,-0.36342 0.07189,-1.73677 0.32525,-1.99223c0.03601,-0.0363 1.20557,0.06958 1.32272,0.06958c0.30177,0 1.46932,0.13423 1.67678,-0.07322c0.50681,-0.5068 -0.32975,-2.03902 0.02029,-2.52292c0.36733,-0.50781 2.40665,0.25642 2.93199,-0.11669c0.85115,-0.60451 0.40316,-2.81889 0.33931,-3.66239c-0.11197,-1.47898 -0.91593,-5.03306 -0.25069,-6.35083c0.20309,-0.4023 1.42651,-0.19337 1.75949,-0.27757c0.74488,-0.18836 1.15353,-0.95854 1.47289,-1.59163c0.12413,-0.42851 0.2745,-2.0399 0.59807,-2.27025c0.72618,-0.51696 2.35104,0.35589 2.99368,-0.19278c1.02121,-0.87188 -0.4692,-4.34658 1.6464,-3.39033c0.44285,0.06644 0.98122,0.30683 1.20378,-0.39516c0.14723,-0.46439 -0.902,-1.97666 -1.11996,-2.41504c-0.9973,-2.00583 -1.52145,-4.36548 -2.68562,-6.27541c0.37744,0.28417 0.84725,0.51946 1.16305,0.73715l0.40905,0.28197c0.0408,0.02895 0.09067,0.04597 0.1445,0.04597c0.13807,0 0.25,-0.11193 0.25,-0.25c0,-0.0449 -0.01184,-0.08704 -0.03257,-0.12347l-0.23653,-0.43523l-0.05686,0.0309c-1.17018,-2.77744 -4.65375,-4.81824 -6.73872,-6.71516l-0.00319,-0.0031l-0.00603,-0.04366c0.17561,0.00134 0.35576,-0.03582 0.52279,-0.08249c0.22871,-0.0639 1.52911,-0.21351 1.61645,-0.34912c0.32772,-0.50883 -1.34615,-2.88293 -0.69115,-3.20405c0.80286,-0.39361 2.89893,0.30765 3.83613,0.31092c1.41008,0.00046 2.96622,-0.00697 4.14558,0.87188l0.11065,0.08051c0,0 0.20215,0.14709 0.34924,-0.05505c0.14709,-0.20215 -0.05505,-0.34924 -0.05505,-0.34924zM216.49294,265.89973l0.04781,0.14274c0.10724,0.32 0.22267,0.63737 0.34605,0.9515c0.60954,1.55118 1.21421,3.10436 1.82864,4.65361c0.10279,0.25917 0.67196,1.45101 1.03009,1.42227c0.83696,-0.06717 0.63942,-3.52007 0.64108,-4.0816c0.01032,-3.4812 0.46191,-6.97989 0.75099,-10.44889c0.05989,-0.72242 -0.28314,-3.67294 0.51172,-4.09935c0.19712,-0.10575 1.39801,0.60872 1.64224,0.69503c0.93722,0.33119 1.94987,0.79446 2.93842,0.81833v0.11697h0.5c0.13807,0 0.25,-0.11193 0.25,-0.25c0,-0.09959 -0.05824,-0.18558 -0.14251,-0.22578l-0.36212,-0.18208c-0.60323,-0.73484 -1.19651,-1.52084 -1.72564,-2.3114c-1.3657,-3.19069 3.44461,-5.78941 5.4298,-7.69627c-0.45889,-0.33155 -3.88215,-0.32592 -3.89289,-1.17719c-0.01409,-1.11686 2.49206,-3.93132 3.12286,-4.94966c0.19943,-0.32195 1.52461,-2.04568 1.31985,-2.38301c-0.22173,-0.36529 -1.40524,0.04818 -1.72179,0.0764c-2.04879,0.18264 -4.5698,0.13869 -3.42856,-2.57346c-0.87344,-1.20103 -6.57807,-0.69394 -8.56523,0.37707c-0.04707,0.00069 -0.09414,0.00138 -0.1412,0.00206l-0.0356,0.05724l-0.01876,-0.03753l-0.06771,0.03385l-0.2441,-0.12205l-0.19775,0.3955c-0.01829,0.03474 -0.02864,0.07431 -0.02864,0.1163c0,0.13807 0.11193,0.25 0.25,0.25c0.04199,0 0.08156,-0.01035 0.1163,-0.02864l0.35553,-0.17776c0.10939,0.00214 0.21878,0.00427 0.32817,0.00641c0,0 0.25,0 0.25,-0.25c0,-0.02198 -0.00193,-0.04202 -0.00546,-0.06031c1.7893,-0.21589 3.63312,-0.66995 5.35956,-0.68973c0.53319,-0.00611 1.81953,-0.22734 2.14691,0.17249c-1.03527,1.60358 0.2423,3.07347 1.96569,3.21738c0.65636,0.05481 1.35296,-0.13134 2.00575,-0.19084c0.42694,-0.03892 1.31054,-0.74594 1.24512,-0.32224c-0.05407,0.35021 -1.06725,1.47062 -1.31314,1.86757c-0.6354,1.02576 -3.31855,4.09028 -3.1963,5.25172c0.14627,1.38969 3.01517,1.28669 3.89235,1.1695c-0.7038,0.15878 -1.53149,1.32471 -2.10274,1.83115c-1.94496,1.72427 -4.57728,3.04698 -3.26746,6.07258c0.45934,0.69142 0.96627,1.38319 1.49584,2.03432c-1.30675,-0.63126 -3.93393,-1.59904 -4.39545,-1.37326c-1.08996,0.53324 -0.69268,3.55846 -0.77132,4.49719c-0.2902,3.48242 -0.74236,6.99423 -0.75272,10.48893c-0.00241,0.81425 0.05895,1.64369 -0.09671,2.44387c-0.07273,0.37388 0.04308,1.50216 -0.07544,1.14018c-0.61842,-1.88868 -1.61525,-3.85857 -2.3623,-5.75971c-0.12036,-0.30615 -0.23287,-0.6155 -0.3373,-0.92744l-0.04781,-0.14274c0,0 -0.0794,-0.23705 -0.31646,-0.15765c-0.23705,0.0794 -0.15765,0.31646 -0.15765,0.31646z" fill-opacity="0.01" fill="#000000" stroke="none" stroke-width="0" stroke-linecap="butt"/><path d="M201.5454,304.39158c0,0 -0.63536,-94.38387 -0.79335,-118.01201c-0.05451,-8.15261 8.18688,-36.76129 40.20201,-36.9211c31.60235,-0.15775 39.85672,29.48704 39.84884,36.89673c-0.07659,46.24274 0.65429,117.98648 0.65429,117.98648l-10.49667,0.09614l-0.15882,-114.84311c0,0 0.07549,-3.0993 -2.81625,-3.15415c-3.43441,-0.06514 -2.94538,3.11562 -2.94538,3.11562l0.20548,114.86995l-48.21366,0.07222l-0.0962,-36.30108c0.1998,0.50841 0.40014,1.01661 0.60152,1.52439c0.10279,0.25917 0.67196,1.45101 1.03009,1.42227c0.83696,-0.06717 0.63942,-3.52007 0.64108,-4.0816c0.01032,-3.4812 0.46191,-6.97989 0.75099,-10.44889c0.05989,-0.72242 -0.28314,-3.67294 0.51172,-4.09935c0.19712,-0.10575 1.39801,0.60872 1.64224,0.69503c0.93722,0.33119 1.94987,0.79446 2.93842,0.81833v0.11697h0.5c0.13807,0 0.25,-0.11193 0.25,-0.25c0,-0.09959 -0.05824,-0.18558 -0.14251,-0.22578l-0.36212,-0.18208c-0.60323,-0.73484 -1.19651,-1.52084 -1.72564,-2.3114c-1.3657,-3.19069 3.44461,-5.78941 5.4298,-7.69627c-0.45889,-0.33155 -3.88215,-0.32592 -3.89289,-1.17719c-0.01409,-1.11686 2.49206,-3.93132 3.12286,-4.94966c0.19943,-0.32195 1.52461,-2.04568 1.31985,-2.38301c-0.22173,-0.36529 -1.40524,0.04818 -1.72179,0.0764c-2.04879,0.18264 -4.5698,0.13869 -3.42856,-2.57346c-0.75364,-1.0363 -5.10409,-0.80091 -7.55982,-0.02884l-0.11443,-43.17786c0,0 0.27949,-2.919 -2.8856,-2.93443c-3.11083,-0.01515 -2.81569,2.90899 -2.81569,2.90899l0.35311,115.0668z" fill="#ffffff" stroke="#000000" stroke-width="2" stroke-linecap="butt"/><path d="M223.55586,232.14438c0.53319,-0.00611 1.81953,-0.22734 2.14691,0.17249c-1.03527,1.60358 0.2423,3.07347 1.96569,3.21738c0.65636,0.05481 1.35296,-0.13134 2.00575,-0.19084c0.42694,-0.03892 1.31054,-0.74594 1.24512,-0.32224c-0.05407,0.35021 -1.06725,1.47062 -1.31314,1.86757c-0.6354,1.02576 -3.31855,4.09028 -3.1963,5.25172c0.14627,1.38969 3.01517,1.28669 3.89235,1.1695c-0.7038,0.15878 -1.53149,1.32471 -2.10274,1.83115c-1.94496,1.72427 -4.57728,3.04698 -3.26746,6.07258c0.45934,0.69142 0.96627,1.38319 1.49584,2.03432c-1.30675,-0.63126 -3.93393,-1.59904 -4.39545,-1.37326c-1.08996,0.53324 -0.69268,3.55846 -0.77132,4.49719c-0.2902,3.48242 -0.74236,6.99423 -0.75272,10.48893c-0.00241,0.81425 0.05895,1.64369 -0.09671,2.44387c-0.07273,0.37388 0.04308,1.50216 -0.07544,1.14018c-0.42433,-1.29593 -1.02682,-2.63009 -1.60453,-3.95403l-0.08935,-33.71498c1.64817,-0.22997 3.33021,-0.61337 4.91352,-0.6315z" fill="#da7f7f" stroke="#ff0000" stroke-width="2" stroke-linecap="butt"/><path d="M256.14252,200.33376c-0.57113,0 -1.03411,-0.46299 -1.03411,-1.03411c0,-0.57113 0.46299,-1.03413 1.03411,-1.03413c0.57113,0 1.03411,0.463 1.03411,1.03413c0,0.57113 -0.46299,1.03411 -1.03411,1.03411z" fill="#000000" stroke="none" stroke-width="1.5" stroke-linecap="butt"/><path d="M250.88269,204.56935c-4.4635,-0.31439 -6.55245,-1.79392 -6.16985,-2.58011c0.11788,-0.24224 2.84645,1.06355 6.97038,1.3048c6.40897,0.37493 8.51033,-0.63173 8.51033,-0.63173v1.34616c0,0 -2.4135,1.04672 -9.31086,0.56089z" fill="#000000" stroke="#000000" stroke-width="0" stroke-linecap="butt"/><path d="M223.06993,199.29965c0,-0.57113 0.46299,-1.03413 1.03411,-1.03413c0.57113,0 1.03413,0.463 1.03413,1.03413c0,0.57113 -0.463,1.03411 -1.03413,1.03411c-0.57113,0 -1.03411,-0.46299 -1.03411,-1.03411z" fill="#000000" stroke="none" stroke-width="1.5" stroke-linecap="butt"/><path d="M229.36392,204.56935c-6.89736,0.48585 -9.31086,-0.56089 -9.31086,-0.56089v-1.34616c0,0 2.10136,1.00666 8.51033,0.63173c4.12393,-0.24126 6.85251,-1.54704 6.97039,-1.3048c0.3826,0.78618 -1.70634,2.26571 -6.16985,2.58011z" fill="#000000" stroke="#000000" stroke-width="0" stroke-linecap="butt"/><path d="M240.64439,261.12113c-0.81895,0 -1.48284,-0.66389 -1.48284,-1.48284c0,-0.81895 0.66389,-1.48284 1.48284,-1.48284c0.81895,0 1.48284,0.66389 1.48284,1.48284c0,0.81895 -0.66389,1.48284 -1.48284,1.48284z" data-paper-data="{&quot;index&quot;:null}" fill="#000000" stroke="none" stroke-width="1.5" stroke-linecap="butt"/><path d="M216.58112,304.40601l-0.08502,-37.3292c0.34567,0.88216 0.6918,1.76414 1.04109,2.64485c0.10279,0.25917 0.67196,1.45101 1.03009,1.42227c0.83696,-0.06717 0.63942,-3.52007 0.64108,-4.0816c0.01032,-3.4812 0.46191,-6.97989 0.75099,-10.44889c0.05989,-0.72242 -0.28314,-3.67294 0.51172,-4.09935c0.19712,-0.10575 1.39801,0.60872 1.64224,0.69503c0.93722,0.33119 1.94987,0.79446 2.93842,0.81833v0.11697h0.5c0.13807,0 0.25,-0.11193 0.25,-0.25c0,-0.09959 -0.05824,-0.18558 -0.14251,-0.22578l-0.36212,-0.18208c-0.60323,-0.73484 -1.19651,-1.52084 -1.72564,-2.3114c-1.3657,-3.19069 3.44461,-5.78941 5.4298,-7.69627c-0.45889,-0.33155 -3.88215,-0.32592 -3.89289,-1.17719c-0.01409,-1.11686 2.49206,-3.93132 3.12286,-4.94966c0.19943,-0.32195 1.52461,-2.04568 1.31985,-2.38301c-0.22173,-0.36529 -1.40524,0.04818 -1.72179,0.0764c-2.04879,0.18264 -4.5698,0.13869 -3.42856,-2.57346c-0.7992,-1.09894 -5.6432,-0.76781 -7.98318,0.11689l-0.08577,-37.66028l-18.12728,-2.45631c0,0 3.42578,-15.22405 3.42578,-16.9204c0,-4.498 14.95083,-18.67388 14.95083,-18.67388c0,0 2.67319,-2.35297 4.6557,-3.74807c1.98251,-1.3951 5.17197,-2.80371 5.17197,-2.80371c0,0 -0.6016,26.18341 14.55952,26.11306c15.43477,-0.07162 13.83154,-26.11306 13.83154,-26.11306l10.91964,6.55178c0,0 14.7015,11.4193 14.7015,16.18668c0,1.68761 2.90852,19.38765 2.90852,19.38765l-18.35802,1.23574l0.748,110.71798z" fill="#008235" stroke="#00421b" stroke-width="2" stroke-linecap="butt"/><path d="M245.47117,63.12143c-1.52245,1.03013 1.14191,3.24044 0.63126,3.97165c-0.41594,0.59559 -1.28064,0.46948 -2.08431,0.48223l-0.02268,-0.16421l-0.58178,0.08034c-0.14624,0.01788 -0.25951,0.1425 -0.25951,0.29357c0,0.08333 0.03446,0.15861 0.0899,0.21236l0.42396,0.412l0.00069,-0.00071l0.00287,0.00412c1.61891,1.47007 3.42778,2.56588 4.90999,4.20467c0.53934,0.59632 1.14135,1.56094 1.80122,2.37293c-0.16643,-0.1084 -0.33431,-0.21456 -0.50453,-0.31759l0.02022,-0.02333l-0.44584,-0.38645c-0.05204,-0.04562 -0.12023,-0.07328 -0.19488,-0.07328c-0.16335,0 -0.29577,0.13242 -0.29577,0.29577c0,0.03044 0.0046,0.0598 0.01314,0.08744l0.15988,0.56243l0.01247,-0.00354l0.0024,0.04424c0.11332,0.17868 0.22663,0.35737 0.33995,0.53605c1.35944,2.10954 1.88551,4.78353 3.00352,7.03317c0.31861,0.6411 1.57449,2.32161 1.54344,2.98302c-0.0106,0.22581 -0.45697,0.09471 -0.67685,0.04224c-3.49177,-1.48108 -1.19918,3.08041 -2.50066,4.12357c-0.6472,0.51874 -2.66256,-0.46416 -3.51955,0.21033c-0.58809,0.46284 -0.69342,2.21451 -0.90045,2.94109c-0.95939,1.90412 -2.97598,0.77552 -3.78837,2.13614c-0.91548,1.53328 0.08877,6.0935 0.2217,7.84931c0.05416,0.71547 0.5588,3.2997 -0.15409,3.80597c-0.74984,0.53251 -2.83614,-0.68276 -3.59253,0.2563c-0.44265,0.54955 0.39849,2.55607 0.02397,2.93059c-0.0398,0.0398 -1.42806,-0.08663 -1.56549,-0.08663c-0.35975,0 -1.73592,-0.15748 -1.98434,0.09211c-0.40569,0.4076 0.19205,1.85595 -0.28828,2.27846c-0.21153,0.18607 -1.44673,-1.24937 -2.10426,-0.88629c-0.97946,0.54085 -1.69151,4.73552 -1.58646,5.72477c-1.31955,0.18034 -1.20349,-4.39193 -2.09691,-4.75397c-0.99382,-0.40273 -0.8154,1.08287 -1.4972,0.70226c-0.4194,-0.23413 -0.3855,-1.08162 -0.65787,-1.46193c-0.58957,-0.82321 -1.57248,-1.18119 -2.28499,-1.88942c-0.49596,-0.48476 -2.27822,-2.68327 -2.86029,-2.34393c-0.14811,0.08635 -0.13075,2.78806 -0.34459,2.73912c-1.45262,-0.3324 -0.90118,-5.42588 -3.86695,-3.65802c-0.08425,0.14113 -1.17642,1.68574 -1.17774,1.68532c-0.05658,-0.01796 -0.26837,-1.37201 -0.30276,-1.4725c-0.49985,-1.46073 -0.59312,-3.06226 -0.91014,-4.58127c-0.30792,-1.47538 -0.81333,-3.24142 -1.99453,-1.18068c-0.54543,0.72382 -0.39796,2.36073 -1.30393,2.38588c-0.51034,0.01417 -0.45813,-0.91592 -0.74526,-1.33807c-0.60344,-0.88723 -1.68244,-3.09021 -2.77437,-3.94529c1.2714,-5.68343 3.02675,-13.30151 7.09232,-19.26406c1.65007,-2.41999 3.97503,-3.47861 6.3379,-5.45396c2.31617,-1.93631 4.76661,-5.16107 7.75827,-6.7958c4.32052,-2.36086 9.58893,-2.85299 15.69368,-3.50499c-0.07994,0.02881 -0.15187,0.06403 -0.21457,0.10646z" fill="#da7f7f" stroke="#ff0000" stroke-width="1.5" stroke-linecap="butt"/><path d="M249.10264,86.50209c1.71893,11.14953 -6.52072,21.67314 -18.40377,23.50516c-10.76011,1.65889 -20.81797,-4.37756 -23.89901,-13.81121c0.22276,0.21574 0.44381,0.43141 0.66283,0.64666c0.41642,0.40923 0.8461,1.65242 1.48911,1.74825c0.27199,0.04053 0.9637,-0.49865 1.16522,-0.64043c0.17314,-0.35567 1.9255,-3.55222 2.06269,-3.5509c0.45531,0.00438 0.50015,0.76177 0.725,1.15771c0.76237,1.34246 1.67215,3.39084 1.90552,4.90875c0.07971,0.50595 0.43394,2.61089 1.10824,2.7085c1.23002,0.17804 0.81433,-1.64411 2.50367,-0.64998l0.29195,0.39567c0.05698,0.08059 0.1564,0.12665 0.26057,0.11059c0.12119,-0.01868 0.21091,-0.1156 0.22571,-0.23145l0.07953,-0.52544l-0.07403,-0.0112c0.28979,-1.53838 -0.04382,-3.16926 1.00981,-4.47765c1.10844,-1.37645 3.57554,-1.41903 4.1824,-3.1067c0.98547,-0.81971 2.02216,-0.16937 2.80925,-0.76011c1.88733,-1.4165 0.11509,-6.38946 2.78391,-6.91851c1.61092,0.40318 3.68674,-0.04919 4.4452,-1.5683c0.31101,-0.62291 0.86313,-2.93198 1.59607,-3.07991c0.67575,-0.13639 1.76755,0.59682 2.35775,0.86535c1.38407,0.37675 1.71385,-1.18277 2.23884,-2.21907c0.93098,-1.83773 1.81789,-3.69572 2.73187,-5.54158c2.99228,2.90903 5.07243,6.70485 5.74168,11.0458z" fill="#ffffff" stroke="#000000" stroke-width="1.5" stroke-linecap="butt"/><path d="M205.30142,99.0184c0.11082,-0.74771 7.59768,-0.70626 9.64506,-4.24991c1.48441,-1.05147 1.90915,3.2252 2.88453,3.24356c1.13353,0.02134 0.48853,-1.97014 0.61483,-2.41374c0.05592,-0.19642 0.13422,0.39048 0.24727,0.56057c0.32251,0.48524 1.09193,0.95686 1.52058,1.37584c0.5166,0.51351 2.17521,2.73036 2.62346,2.92805c0.42292,0.18652 0.96653,-0.96724 1.24936,-0.60164c0.78161,1.01037 0.28919,4.37761 2.38827,3.89428c0.10289,-0.98577 0.42542,-4.07892 1.21998,-4.73343c0.29768,-0.24521 1.1546,1.11256 1.78783,0.74328c0.62317,-0.36342 0.07189,-1.73677 0.32525,-1.99223c0.03601,-0.0363 1.20557,0.06958 1.32272,0.06958c0.30177,0 1.46932,0.13423 1.67678,-0.07322c0.50681,-0.5068 -0.32975,-2.03902 0.02029,-2.52292c0.36733,-0.50781 2.40665,0.25642 2.93199,-0.11669c0.85115,-0.60451 0.40316,-2.81889 0.33931,-3.66239c-0.11197,-1.47898 -0.91593,-5.03306 -0.25069,-6.35083c0.20309,-0.4023 1.42651,-0.19337 1.75949,-0.27757c0.74488,-0.18836 1.15353,-0.95854 1.47289,-1.59163c0.12413,-0.42851 0.2745,-2.0399 0.59807,-2.27025c0.72618,-0.51696 2.35104,0.35589 2.99368,-0.19278c1.02121,-0.87188 -0.4692,-4.34658 1.6464,-3.39033c0.44285,0.06644 0.98122,0.30683 1.20378,-0.39516c0.14723,-0.46439 -0.902,-1.97666 -1.11996,-2.41504c-0.9973,-2.00583 -1.52145,-4.36548 -2.68562,-6.27541c0.37744,0.28417 0.84725,0.51946 1.16305,0.73715l0.40905,0.28197c0.0408,0.02895 0.09067,0.04597 0.1445,0.04597c0.13807,0 0.25,-0.11193 0.25,-0.25c0,-0.0449 -0.01184,-0.08704 -0.03257,-0.12347l-0.23653,-0.43523l-0.05686,0.0309c-1.17018,-2.77744 -4.65375,-4.81824 -6.73872,-6.71516l-0.00319,-0.0031l-0.00603,-0.04366c0.17561,0.00134 0.35576,-0.03582 0.52279,-0.08249c0.22871,-0.0639 1.52911,-0.21351 1.61645,-0.34912c0.32772,-0.50883 -1.34615,-2.88293 -0.69115,-3.20405c0.80286,-0.39361 2.89893,0.30765 3.83613,0.31092c1.41008,0.00046 1.5404,-0.49949 0.00095,-0.49999c-0.6534,-0.00228 -2.00432,-0.3649 -3.02598,-0.41385c0.78157,-0.06838 1.58152,-0.11885 2.40028,-0.15059c5.40412,-0.11061 4.48399,-8.26427 4.48399,-8.26427c0,0 3.82557,3.59421 5.41409,4.35999c1.24865,0.60194 3.34523,-0.13735 3.34523,-0.13735l4.56496,-2.16382c0,0 2.27954,5.47487 3.67093,5.5849c1.93766,0.15323 5.42658,-2.34063 5.42658,-2.34063c0,0 9.38858,15.80334 11.03248,19.67088c1.42317,3.34823 6.34922,6.50493 6.34922,6.50493c0,0 -2.4747,3.64434 -2.72736,8.04727c-0.06516,1.13554 4.79908,1.73842 4.79908,1.73842c0,0 -2.91114,5.609 -2.40797,7.27672c0.45356,1.50332 4.89363,7.48768 4.89363,7.48768c0,0 -5.3546,-0.0663 -5.14585,0.89209c0.85573,3.92882 4.58852,8.33364 4.58852,8.33364c0,0 -3.36715,0.54649 -4.6797,-0.53397c-0.38252,-0.31488 1.74217,2.18889 2.69553,5.61114c1.27186,4.56552 1.55072,10.4538 1.55072,10.4538c0,0 -2.45487,-1.91664 -2.93676,0.88419c-0.30201,1.83282 -2.93401,14.6592 -2.93401,14.6592c0,0 -1.80382,-1.84638 -3.34288,-2.45583c-0.71078,-0.28146 -1.36511,-0.29909 -1.75919,0.25081c-1.14916,1.60355 -2.56175,7.87124 -2.56175,7.87124c0,0 -2.67788,-2.64941 -3.81527,-1.51461c-1.1374,1.13479 -3.43873,2.91273 -3.43873,2.91273l-0.09205,-3.70421c0,0 -7.0601,11.01795 -24.35066,10.87154c-16.30625,-0.25547 -26.07151,-10.6752 -26.07151,-10.6752l-0.1162,2.65484c0,0 -1.8491,-2.75423 -3.06364,-3.17396c-1.40473,-0.48546 -4.87747,0.42959 -4.87747,0.42959c0,0 2.50934,-4.86009 1.75966,-6.96317c-1.13178,-3.17498 -3.70618,-0.17042 -3.70618,-0.17042l0.46672,-12.07282l-4.41306,3.6831c0,0 -1.82088,-4.72263 -1.68842,-7.02919c0.07252,-1.26284 -0.43924,-0.59666 -2.56443,-0.06341c-2.21739,0.5564 3.73873,-20.63904 1.77025,-20.50554c-1.2457,0.08449 -2.37411,-0.04846 -2.37784,-0.0489c0.00872,-0.00838 6.16337,-5.92247 6.2916,-6.7876z" fill="#000000" stroke="none" stroke-width="1.5" stroke-linecap="butt"/><path d="M199.00981,105.806c0,0 0,0 0.00001,0c-0.00001,0.00001 -0.00001,0.00001 -0.00001,0.00001z" fill="#000000" stroke="none" stroke-width="1.5" stroke-linecap="butt"/><path d="M215.79569,117.12763c-0.57709,-7.29323 0.335,-17.15448 0.335,-17.15448c0,0 1.45443,-0.01759 5.38881,-0.89392c0.546,0.65714 1.08911,1.28274 1.31764,1.38352c0.42292,0.18652 0.96653,-0.96724 1.24936,-0.60164c0.78161,1.01037 0.28919,4.37761 2.38827,3.89428c0.10289,-0.98577 0.42542,-4.07892 1.21998,-4.73343c0.29768,-0.24521 1.1546,1.11256 1.78783,0.74328c0.62317,-0.36342 0.07189,-1.73677 0.32525,-1.99223c0.03601,-0.0363 1.20557,0.06958 1.32272,0.06958c0.30177,0 1.46932,0.13423 1.67678,-0.07322c0.35346,-0.35346 0.05351,-1.20568 -0.04163,-1.85319c0.61372,-0.22674 1.24004,-0.47021 1.87327,-0.72643c0.47807,0.05788 0.91516,0.08594 1.12064,-0.05999c0.17831,-0.12664 0.29961,-0.32394 0.37936,-0.56449c7.07743,-3.02466 14.45332,-7.22358 14.45332,-7.22358c0,0 -2.16005,3.00503 -3.40781,4.46015c-1.32651,1.54696 -3.99292,4.56297 -3.99292,4.56297c0,0 7.838,-1.66761 14.67476,-4.72931c8.56837,-3.53575 10.59252,-6.05309 12.95042,-4.5927c2.7829,1.72362 1.03006,23.1827 0.71846,28.74062c-0.42163,5.66922 -2.53327,9.49969 -3.15031,12.52053c-0.61704,3.02084 -0.4096,6.13662 -2.20622,16.0397c-1.12121,6.18021 -4.16183,8.92466 -10.01942,14.66081c-5.85759,5.73616 -9.05378,9.25275 -13.01359,9.32173c-3.81077,0.06639 -8.93565,-5.1002 -13.93542,-10.38244c-5.32393,-5.62474 -8.87489,-8.47713 -9.71551,-15.13975c-0.75707,-6.00039 -0.77653,-9.90853 -1.12266,-15.24835c-0.25298,-3.90273 -2.26119,-6.44504 -2.57636,-10.42801z" fill="#ffffff" stroke="#000000" stroke-width="1.5" stroke-linecap="butt"/><g stroke="none" stroke-linecap="butt"><path d="M264.9792,149.98713c0,0 -5.01717,14.44448 -21.46232,14.22203c-15.23489,-0.20606 -21.46234,-16.29068 -21.46234,-16.29068c0,0 7.65191,-7.12382 12.06422,-7.09301c5.50233,0.03842 10.49203,3.96239 10.49203,3.96239c0,0 4.88878,-3.77652 8.79989,-1.72682c4.35218,2.28086 11.56853,6.92609 11.56853,6.92609z" fill="#000000" stroke-width="0"/><path d="M250.18251,150.5968c-0.45926,0.12206 -1.86641,0.12786 -2.45094,0.0058c-0.62627,-0.2034 -6.74989,-0.34058 -5.72699,-0.34058c0,0 8.55367,0.13138 8.17793,0.33478z" data-paper-data="{&quot;noHover&quot;:false,&quot;origItem&quot;:[&quot;Path&quot;,{&quot;applyMatrix&quot;:true,&quot;segments&quot;:[[[88.08267,353.4293],[0,0],[-0.38282,0]],[[87.79361,353.5511],[-0.23438,-0.07612],[0.21876,0.04568]],[[88.51237,353.5511],[-0.17188,0.04568],[0.14062,-0.07612]],[[88.08269,353.4293],[0.40624,0],[0,0]]],&quot;closed&quot;:true,&quot;fillColor&quot;:[0,0,0]}]}" fill="#ffffff" stroke-width="0.5"/><path d="M248.79756,150.4745c-0.45922,0.12206 -7.99583,0.255 -8.37157,0.13294c-0.45926,-0.2034 0.09919,-0.63231 0.99683,-0.63231c0.89764,0 7.75049,0.29597 7.37475,0.49937z" data-paper-data="{&quot;noHover&quot;:false,&quot;origItem&quot;:[&quot;Path&quot;,{&quot;applyMatrix&quot;:true,&quot;segments&quot;:[[[85.34047,353.4293],[0.33594,0],[-0.33594,0]],[[85.05923,353.5511],[-0.17188,-0.07612],[0.14062,0.04568]],[[85.65297,353.5511],[-0.17186,0.04568],[0.14062,-0.07612]]],&quot;closed&quot;:true,&quot;fillColor&quot;:[0,0,0]}]}" fill="#ffffff" stroke-width="0.5"/><path d="M257.62064,147.23973c1.85786,1.34248 3.2336,2.64262 3.02486,2.76468c-0.43837,0.5289 -13.63435,-1.96642 -16.58458,-3.15261c-1.95729,-0.78696 -0.24113,-0.47984 -0.11041,-0.74801c0,0 3.34238,-1.73023 7.08679,-1.57054c2.3196,0.09892 4.93042,1.53937 6.58334,2.70648z" data-paper-data="{&quot;noHover&quot;:false,&quot;origItem&quot;:[&quot;Path&quot;,{&quot;applyMatrix&quot;:true,&quot;segments&quot;:[[[87.98891,351.57946],[0,0],[-0.14844,0.3045]],[[87.72329,352.32548],[0,-0.1218],[0,0.22838]],[[92.38735,353.29988],[-0.16406,0.19794],[0.07812,-0.04568]],[[91.24673,352.30264],[0.6953,0.50242],[-1.61718,-1.14188]],[[87.98891,351.57944],[0.35156,-0.69274],[0,0]]],&quot;closed&quot;:true,&quot;fillColor&quot;:[0,0,0]}]}" fill="#ffffff" stroke-width="0.5"/><path d="M236.2437,143.54721c2.21837,0.70445 9.52807,2.70131 9.52807,2.9861c0,1.26114 -12.41449,2.0396 -17.94642,1.04289l-2.86978,-0.57248l3.50715,-1.86478c2.98518,-1.54587 4.54527,-1.85615 7.78092,-1.59172z" data-paper-data="{&quot;noHover&quot;:false,&quot;origItem&quot;:[&quot;Path&quot;,{&quot;applyMatrix&quot;:true,&quot;segments&quot;:[[[83.31651,350.98568],[0,0],[-1.21094,-0.09896]],[[80.58213,351.53378],[1.1172,-0.57854],[0,0]],[79.26963,352.20368],[[80.33995,352.4016],[0,0],[2.07032,0.37302]],[[85.33995,352.158],[0,0.47198],[0,-0.10658]],[[85.03527,351.53378],[0.16406,0.2436],[-0.21874,-0.3045]],[[83.31653,350.98568],[0.97656,0.06852],[0,0]]],&quot;closed&quot;:true,&quot;fillColor&quot;:[0,0,0]}]}" fill="#ffffff" stroke-width="0.5"/><path d="M226.11411,149.69213c0.75153,0.18309 5.2919,1.17267 9.98883,2.23041c7.01405,1.46454 9.78053,1.73667 12.91181,1.32984c2.08749,-0.32545 6.10936,-0.68789 8.90664,-0.95231l5.09546,-0.3768l-2.54272,2.82392c-1.39864,1.52556 -3.96159,3.70259 -5.73597,4.63828c-2.85992,1.58659 -4.08229,1.96011 -9.73943,1.96011c-5.59452,0 -7.10113,-0.35789 -10.29505,-1.94448c-3.48619,-1.72896 -10.05382,-7.84804 -10.05382,-9.3736c0,-0.40684 0.62923,-0.53871 1.46424,-0.33532z" data-paper-data="{&quot;noHover&quot;:false,&quot;origItem&quot;:[&quot;Path&quot;,{&quot;applyMatrix&quot;:true,&quot;segments&quot;:[[[79.69939,353.25422],[0,0],[-0.3125,-0.07612]],[[79.15251,353.37602],[0,-0.15226],[0,0.57094]],[[82.91033,356.81688],[-1.3047,-0.64706],[1.19532,0.59378]],[[86.65251,357.48678],[-2.09374,0],[2.11718,0]],[[90.22283,356.81688],[-1.07032,0.59378],[0.66406,-0.35018]],[[92.36345,355.11928],[-0.52344,0.57094],[0,0]],[93.31657,354.07636],[[91.41033,354.221],[0,0],[-1.04688,0.09896]],[[88.08221,354.59402],[0.78124,-0.1218],[-1.17188,0.15226]],[[83.43377,354.0992],[2.625,0.5481],[-1.75782,-0.39586]],[[79.69939,353.2542],[0.28126,0.06852],[0,0]]],&quot;closed&quot;:true,&quot;fillColor&quot;:[0,0,0]}]}" fill="#ffffff" stroke-width="0.5"/></g><path d="M264.29467,104.30338c0,0 1.49388,0.43927 4.15307,1.44795c2.42887,0.92133 4.29519,2.09517 4.29519,2.09517l0.10063,1.18223c0,0 -6.97532,-3.70118 -14.86904,-3.67465c-6.31162,0.02124 -10.15661,2.00449 -10.15661,2.00449l0.38051,-4.15971c0,0 3.25406,-1.44796 7.98712,-1.21908c4.90106,0.23702 8.01738,1.23808 8.01738,1.23808z" data-paper-data="{&quot;index&quot;:null}" fill="#000000" stroke="none" stroke-width="1.5" stroke-linecap="butt"/><path d="M243.42785,146.55473c-1.03376,0 -3.5381,-3.26042 -3.7867,-5.3637c-0.22243,-1.88186 1.31512,-3.82799 3.7867,-3.82799c2.47159,0 4.2021,0.49077 4.02999,4.18853c-0.14607,3.13818 -1.55841,5.00317 -4.02999,5.00317z" fill="#ffffff" stroke="#000000" stroke-width="1.15" stroke-linecap="butt"/><path d="M247.02994,116.46101c0,0 0.1026,3.96976 0.00576,7.12662c-0.19174,6.25113 -1.08147,27.7607 -1.08147,27.7607l-2.98167,0.00864c0,0 -0.80294,-4.17274 -1.12322,-9.49979c-0.43353,-7.21063 -0.4495,-16.29321 -0.76344,-19.63229c-0.29758,-3.16513 -0.89593,-5.71453 -0.89593,-5.71453" fill="#ffffff" stroke="#000000" stroke-width="1.3" stroke-linecap="round"/><path d="M217.49535,127.25085c0,0 -4.93211,-3.51705 -6.16417,-8.97502c-1.29636,-5.74284 -1.46118,-9.7328 0.48013,-9.99193c1.94131,-0.25915 2.70321,2.37692 3.73262,8.35569c1.0294,5.97877 1.95143,10.61127 1.95143,10.61127z" data-paper-data="{&quot;index&quot;:null}" fill="#ffffff" stroke="#000000" stroke-width="1" stroke-linecap="butt"/><path d="M217.29274,123.30329c0,0 -3.56385,-2.92338 -4.31816,-8.45061c-0.42079,-3.08327 2.15675,-2.28016 2.15675,-2.28016" fill="none" stroke="#000000" stroke-width="0.25" stroke-linecap="round"/><path d="M220.30616,116.64739c0.07093,-4.89188 4.83834,-8.93609 10.21137,-8.8582c5.37302,0.0779 9.02724,4.2484 8.95632,9.14029c-0.07093,4.89188 -4.12352,8.79439 -9.49655,8.7165c-5.37302,-0.0779 -9.74207,-4.1067 -9.67114,-8.99859z" fill="#cc1414" stroke="#000000" stroke-width="1.4" stroke-linecap="butt"/><path d="M223.24393,116.84601c0.05066,-3.49474 2.92477,-6.28667 6.41948,-6.236c3.49474,0.05066 6.28667,2.92477 6.236,6.41948c-0.05066,3.49474 -2.92476,6.28667 -6.41948,6.236c-3.49474,-0.05066 -6.28667,-2.92477 -6.236,-6.41948z" fill="#000000" stroke="none" stroke-width="1.5" stroke-linecap="butt"/><path d="M247.36241,116.64812c0.20353,-4.88817 4.45264,-8.85847 9.77048,-8.85847c5.31783,0 9.27453,3.96607 9.27453,8.85847c0,4.8924 -3.88585,9.07104 -9.69964,9.14188c-5.52997,0.06739 -9.55792,-4.03692 -9.34537,-9.14188z" fill="#cc1414" stroke="#000000" stroke-width="1.4" stroke-linecap="butt"/><path d="M250.51517,116.68367c0,-3.48119 2.82206,-6.30325 6.30325,-6.30325c3.48119,0 6.30325,2.82206 6.30325,6.30325c0,3.48119 -2.82205,6.30325 -6.30325,6.30325c-3.48119,0 -6.30325,-2.82206 -6.30325,-6.30325z" fill="#000000" stroke="none" stroke-width="1.5" stroke-linecap="butt"/><path d="M220.23772,116.11521c0,0 0.06357,-9.01512 10.60111,-8.8249c9.47101,0.16586 9.55554,9.40723 9.55554,9.40723c0,0 -7.66588,0.77853 -11.18947,0.67674c-3.15434,-0.09113 -8.96719,-1.25907 -8.96719,-1.25907z" fill="#ffffff" stroke="#000000" stroke-width="1.15" stroke-linecap="butt"/><path d="M223.76757,106.10355c0,0 3.36963,-1.819 8.03244,-2.28178c5.16698,-0.51283 7.76823,-0.06628 7.76823,-0.06628l0.29508,4.13747c0,0 -3.83554,-0.68065 -8.01795,-0.52113c-5.59346,0.21333 -6.64488,1.43293 -10.89774,1.89119c-3.64408,0.39266 -6.73723,0.15884 -6.73723,0.15884l-0.02589,-1.23155c0,0 3.59517,0.07398 5.23371,-0.06836c1.35239,-0.11749 3.9757,-0.93808 3.9757,-0.93808z" fill="#000000" stroke="none" stroke-width="1.5" stroke-linecap="butt"/><path d="M271.72848,116.63958c1.0294,-5.97877 1.7913,-8.61483 3.73262,-8.35569c1.94131,0.25914 1.77649,4.24909 0.48013,9.99193c-1.23206,5.45797 -6.16417,8.97502 -6.16417,8.97502c0,0 0.92203,-4.6325 1.95143,-10.61127z" data-paper-data="{&quot;index&quot;:null}" fill="#ffffff" stroke="#000000" stroke-width="1" stroke-linecap="butt"/><path d="M272.14102,112.57252c0,0 2.57754,-0.80312 2.15675,2.28016c-0.75431,5.52723 -4.31816,8.45061 -4.31816,8.45061" data-paper-data="{&quot;index&quot;:null}" fill="none" stroke="#000000" stroke-width="0.25" stroke-linecap="round"/><path d="M239.19925,118.32043c0,0 -0.67735,9.16901 -9.43265,8.70796c-9.7416,-0.50772 -9.21567,-8.83547 -9.21567,-8.83547c0,0 5.51445,1.81251 8.53906,1.93731c3.18337,0.13135 10.10926,-1.16783 10.10926,-1.16783z" data-paper-data="{&quot;index&quot;:null}" fill="#ffffff" stroke="#000000" stroke-width="1.15" stroke-linecap="butt"/><path d="M218.87271,264.88035c0.0319,0.03024 0.06343,0.06158 0.09461,0.09391c0.38821,0.22355 0.80609,0.31844 1.38145,0.51644c0.0512,-0.27519 0.08656,-0.5048 0.08626,-0.65221c-0.0078,-3.8515 -1.74949,-11.54219 2.75,-12.75c0.53387,0.12025 1.29665,1.12354 1.51879,0.6234c0.77958,-1.75525 1.10599,-9.13434 4.943,-7.9888c0.25242,0.07536 -0.50407,-0.16189 -0.73753,-0.28394c-0.75987,-0.39723 -1.91714,-0.33563 -2.33176,-1.08616c-0.72051,-1.30418 1.1701,-4.44923 1.80391,-5.35646c0.31793,-0.45507 2.32727,-1.7361 1.45664,-1.47015c-1.62753,-0.3957 -2.64002,-1.04496 -4.08282,-1.78494c-1.46369,-0.7507 -3.35422,-0.88302 -5.14239,-1.06615c-0.47964,0.28116 -0.9699,0.55228 -1.48063,0.80764c0,0 -0.89443,0.44721 -1.34164,-0.44721c-0.14475,-0.28949 -0.14895,-0.53215 -0.08841,-0.72794c-0.29547,-0.06737 -0.76716,-0.28248 -0.76716,-0.96927c0,-1 1,-1 1,-1l0.74254,0.02986c0.44187,0.11434 0.90225,0.20092 1.37391,0.27246c1.47115,-0.94816 2.87336,-2.00816 4.50087,-2.7262c0.49919,-0.22024 2.70599,-0.64786 2.9981,-0.36433c0.53991,0.52407 0.3954,1.47545 0.36655,2.22732c-0.0106,0.2763 -0.24302,0.78796 -0.45091,1.12867c0.57535,-0.19747 1.74081,-0.31675 2.02459,-0.46363c1.68233,-0.87074 2.84891,-1.92875 4.20167,-3.22436c0.83098,-0.22734 1.51804,-0.87123 2.36001,-1.05368c5.08038,-1.10087 -0.5169,5.24477 -0.16502,7.3687c0.2028,1.22407 4.7304,0.11083 5.75749,0.08225l0.84301,-0.4215l0.18419,0.36839l1.07426,-0.05867c-0.17072,0.29786 -0.32561,0.60673 -0.48001,0.91594l0.37587,0.37588l-1.41421,1.41421l-0.00962,-0.00962c-0.01932,0.02415 -0.03889,0.04812 -0.05872,0.07192c-0.71212,0.85474 -1.96417,1.08026 -2.80481,1.80898c-2.50054,2.16763 -3.33647,5.80829 0.90115,5.75992l0.06767,0.02759l0.00287,-0.02006l1.73544,0.24792c0.49239,0.06234 0.87313,0.48272 0.87313,0.99203c0,0.3992 -0.23392,0.74377 -0.57217,0.90411l-1.48062,0.74032l-0.00643,-0.01286c-0.035,0.02085 -0.0704,0.04112 -0.10621,0.0608c-0.61997,0.34067 -1.37969,0.31324 -2.07002,0.46768c-2.54979,0.57043 -8.16425,3.31491 -4.35935,6.0845l0.03265,0.06761l0.01926,-0.01925l0.75,0.75c0.18096,0.18096 0.29289,0.43097 0.29289,0.7071c0,0.55229 -0.44771,1 -1,1c-0.09149,0 -0.1801,-0.01228 -0.26429,-0.03529l-0.97825,-0.24456l0.06544,-0.26174c-1.35452,-0.0949 -2.84103,-0.2294 -3.70749,0.0798c-0.36675,0.13088 1.10764,4.81723 0.98524,4.98753c-0.86827,1.20803 -2.57657,0.30894 -3.37638,-0.17508c-0.4023,-0.24346 -0.77335,-0.53812 -1.12947,-0.84519c-0.27012,-0.23291 -0.58679,-1.24608 -0.59466,-0.88951c-0.04085,1.85044 -0.11793,3.72086 0.245,5.53552c0.00187,0.51858 0.10643,2.86173 -0.37973,3.13674c-1.77253,1.00269 -2.27402,0.27024 -2.31179,-0.6119c-0.02631,0.26563 -0.05195,0.53577 -0.0611,0.69588c-0.03572,0.62493 0.00586,1.25187 0.00749,1.87781c0.00412,1.58331 0,3.16668 0,4.75v1c0,0.55228 -0.44771,1 -1,1c-0.37064,0 -0.6942,-0.20164 -0.86693,-0.50122l-0.74057,-1.23428l0.07972,-0.04783c-2.18581,-2.30801 -3.31553,-4.40897 -4.21474,-8.09448l0.03991,-0.12219h-0.04739v-1c0,-0.24635 0.08908,-0.47189 0.23678,-0.64618c-0.0433,-0.0516 -0.08757,-0.10491 -0.1329,-0.16l0.17119,-0.08734c-0.02132,-0.05244 -0.04258,-0.10554 -0.06377,-0.15931l-0.18145,0.04536l-0.24456,-0.97825c-0.02301,-0.08419 -0.03529,-0.17281 -0.03529,-0.26429c0,-0.2622 0.10091,-0.50082 0.26601,-0.67916c0.08444,-0.46679 0.49287,-0.82084 0.98399,-0.82084c0.3992,0 0.74377,0.23392 0.90411,0.57217l0.49031,0.98062l-0.23179,0.1159c0.22543,0.36314 0.38668,0.72147 0.52505,1.12318z" fill="#cc1414" stroke="none" stroke-width="0.5" stroke-linecap="butt"/><path d="M221.12271,263.88035c0.0319,0.03024 0.06344,0.06157 0.09461,0.0939c0.38821,0.22355 0.8061,0.31844 1.38145,0.51645c0.05119,-0.27519 0.08656,-0.5048 0.08626,-0.65221c-0.00781,-3.85151 -1.74949,-11.54219 2.75,-12.75c0.53388,0.12025 1.29666,1.12353 1.51879,0.62339c0.77958,-1.75525 1.10599,-9.13434 4.943,-7.98881c0.25242,0.07536 -0.50407,-0.16189 -0.73753,-0.28394c-0.75987,-0.39724 -1.91713,-0.33563 -2.33176,-1.08616c-0.7205,-1.30418 1.1701,-4.44923 1.80391,-5.35646c0.31793,-0.45508 2.32727,-1.7361 1.45664,-1.47015c-1.62753,-0.3957 -2.64002,-1.04497 -4.08283,-1.78495c-1.46369,-0.75069 -3.35422,-0.88302 -5.14238,-1.06615c-0.47964,0.28116 -0.9699,0.55228 -1.48063,0.80764c0,0 -0.89443,0.44721 -1.34164,-0.44721c-0.14475,-0.2895 -0.14895,-0.53214 -0.08841,-0.72794c-0.29547,-0.06737 -0.76716,-0.28248 -0.76716,-0.96928c0,-1 1,-1 1,-1l0.74254,0.02986c0.44187,0.11435 0.90225,0.20092 1.3739,0.27246c1.47115,-0.94817 2.87336,-2.00817 4.50088,-2.7262c0.49919,-0.22023 2.70599,-0.64787 2.9981,-0.36433c0.5399,0.52407 0.3954,1.47544 0.36654,2.22731c-0.0106,0.2763 -0.24302,0.78796 -0.45091,1.12867c0.57535,-0.19748 1.74082,-0.31675 2.02459,-0.46363c1.68233,-0.87074 2.8489,-1.92875 4.20166,-3.22435c0.83098,-0.22734 1.51804,-0.87123 2.36002,-1.05368c5.08038,-1.10087 -0.5169,5.24477 -0.16502,7.3687c0.20279,1.22407 4.7304,0.11083 5.75749,0.08225l0.843,-0.4215l0.18419,0.36838l1.07426,-0.05867c-0.17072,0.29786 -0.32562,0.60673 -0.48001,0.91594l0.37587,0.37587l-1.41421,1.41421l-0.00962,-0.00962c-0.01932,0.02415 -0.03889,0.04812 -0.05872,0.07192c-0.71213,0.85474 -1.96417,1.08026 -2.80481,1.80898c-2.50054,2.16763 -3.33647,5.8083 0.90115,5.75992l0.06767,0.0276l0.00287,-0.02006l1.73545,0.24792c0.49238,0.06234 0.87313,0.48272 0.87313,0.99203c0,0.3992 -0.23392,0.74377 -0.57216,0.90412l-1.48062,0.74031l-0.00643,-0.01286c-0.035,0.02084 -0.07039,0.04112 -0.1062,0.0608c-0.61997,0.34067 -1.37969,0.31324 -2.07002,0.46768c-2.54979,0.57043 -8.16425,3.31491 -4.35935,6.0845l0.03265,0.0676l0.01926,-0.01926l0.75,0.75c0.18096,0.18096 0.29289,0.43096 0.29289,0.70711c0,0.55228 -0.44772,1 -1,1c-0.09149,0 -0.1801,-0.01229 -0.26429,-0.0353l-0.97824,-0.24456l0.06544,-0.26174c-1.35452,-0.0949 -2.84103,-0.22939 -3.70749,0.07981c-0.36675,0.13087 1.10763,4.81724 0.98524,4.98753c-0.86827,1.20803 -2.57657,0.30894 -3.37638,-0.17508c-0.4023,-0.24346 -0.77334,-0.53813 -1.12947,-0.8452c-0.27011,-0.2329 -0.58679,-1.24608 -0.59466,-0.88951c-0.04085,1.85044 -0.11794,3.72086 0.24499,5.53552c0.00187,0.51858 0.10643,2.86174 -0.37972,3.13674c-1.77253,1.00269 -2.27403,0.27023 -2.3118,-0.61189c-0.02631,0.26562 -0.05195,0.53577 -0.06111,0.69587c-0.03572,0.62492 0.00586,1.25187 0.00749,1.87782c0.00412,1.58331 0,3.16668 0,4.75v1c0,0.55228 -0.44772,1 -1,1c-0.37064,0 -0.69419,-0.20165 -0.86692,-0.50122l-0.74057,-1.23428l0.07972,-0.04783c-2.18581,-2.30801 -3.31553,-4.40897 -4.21473,-8.09448l0.0399,-0.12218h-0.04739v-1c0,-0.24635 0.08908,-0.4719 0.23679,-0.64618c-0.04329,-0.0516 -0.08757,-0.10491 -0.1329,-0.16l0.17119,-0.08734c-0.02133,-0.05244 -0.04258,-0.10553 -0.06377,-0.1593l-0.18145,0.04536l-0.24456,-0.97824c-0.02301,-0.08419 -0.0353,-0.1728 -0.0353,-0.26429c0,-0.26219 0.10091,-0.50082 0.266,-0.67916c0.08443,-0.46679 0.49287,-0.82084 0.984,-0.82084c0.3992,0 0.74377,0.23392 0.90412,0.57216l0.49031,0.98062l-0.23179,0.1159c0.22543,0.36314 0.38669,0.72147 0.52504,1.12318z" fill="#a10000" stroke="none" stroke-width="0.5" stroke-linecap="butt"/><path d="M216.50293,127.01442c-1,0 -1,-1 -1,-1c0,-2.16666 0,-4.58334 0,-6.75c0.01343,-4.59956 -0.24523,-9.34068 -0.74514,-13.90146c-0.33694,-3.07403 -0.26261,-5.97667 -1.66797,-8.78317c-0.59109,0.50178 -0.98682,1.58667 -1.31116,1.78529c-0.26415,0.16175 -0.5286,0.26474 -0.79003,0.31907c0.65666,1.65029 1.06795,3.67178 1.23444,4.33774l0.17428,0.29532c0,0 0.44721,0.89443 -0.44721,1.34164c-0.89443,0.44721 -1.34164,-0.44721 -1.34164,-0.44721l-0.32572,-0.70468c-0.35307,-1.41228 -0.48496,-3.44982 -1.34109,-4.65783c-0.50164,-0.70781 -1.81439,-0.75964 -2.05896,-1.59201c-0.04787,-0.16293 -0.06208,-0.32731 -0.05306,-0.4927h-0.07674v-0.97297c-0.35673,-0.37046 -0.68788,-0.68695 -0.9736,-0.82981l-0.0264,0.05279c0,0 -0.5,0 -0.5,-0.5c0,-0.5 0.5,-0.5 0.5,-0.5l0.4736,0.05279c0.46005,0.23002 0.82752,0.48748 1.14586,0.77217c0.1173,-0.0483 0.24581,-0.07495 0.38054,-0.07495c0.27614,0 0.52614,0.11193 0.70711,0.2929l0.75,0.75l-0.01677,0.01677l0.06512,0.03513c0.05521,0.09508 0.10994,0.1795 0.16428,0.25399c0.26641,-0.53849 0.58116,-1.20881 0.67464,-1.39114c0.63247,-0.63247 1.16116,-2.16677 2.34696,-1.66959c0.55303,0.23188 0.74957,0.72526 0.98438,1.19559c0.35007,-0.03992 0.61264,0.14403 0.76837,0.30035c0.03449,0.00624 0.06865,0.01311 0.10247,0.02058c0.3299,-0.4781 0.7293,-1.01715 0.79532,-1.02892c1.47022,-0.26211 1.45866,3.5577 2.79324,2.73772c0.40115,-0.00872 2.63553,0.25437 2.85201,0.0613c1.90815,-1.70171 3.97418,-3.33566 6.15931,-4.42823c0.08492,-0.18979 0.14994,-0.3851 0.20022,-0.58422c0.04218,-0.71868 0.09444,-1.51362 0.2122,-2.24441c0.06819,-1.22158 0.28208,-2.35474 1.7498,-3.02977c0.58641,-0.2697 4.02847,0.23285 3.70471,-0.40293c0.64799,-1.29598 1.71697,-3.42732 2.88307,-4.23868c0.90377,-0.62883 1.69455,0.19522 2.05077,0.87995c0.01628,0.0313 0.03566,0.06954 0.05714,0.11248c0.17846,-0.0993 0.36097,-0.19396 0.54843,-0.2833c0.90971,-0.43359 1.73699,-3.22322 2.55159,-4.33659c0.73504,-1.96504 1.65527,-3.74347 2.99607,-3.28535l0.09485,-0.06569c0,0 0.83205,-0.5547 1.38675,0.27735c0.30872,0.46308 0.18789,0.84024 0.02003,1.08369c0.1027,0.13639 0.20732,0.28411 0.31394,0.44366c0,0 0.27735,0.41603 -0.13867,0.69338c-0.41602,0.27735 -0.69338,-0.13867 -0.69338,-0.13867c-0.01125,-0.01691 -0.10331,-0.18385 -0.23487,-0.40936l-0.142,0.08912c-0.81042,0.7875 -1.19595,1.67876 -2,2.5c-1.38178,1.34271 -1.56538,3.88518 -3.25989,4.93732c-0.19893,0.12351 -0.44567,0.07954 -0.69168,0.05038c-0.16697,0.07459 -0.35656,0.09823 -0.57957,0.04892c-0.39854,0.14432 -0.78466,0.44029 -1.16321,0.8072c0.07762,1.98019 0.4841,4.06344 0.95738,5.95655l0.02985,0.49253c0,0 0,1 -1,1c-1,0 -1,-1 -1,-1l0.02985,-0.00746c-0.35579,-1.42315 -0.65607,-2.92284 -0.83906,-4.42077c-0.31476,0.32839 -0.62977,0.61155 -0.9481,0.79843c-1.36486,0.80127 -2.76092,-0.01288 -4.11002,0.30368c-0.7214,0.16927 -0.83047,4.35029 -0.88765,4.92562c0,0 -0.03623,0.36236 -0.28364,0.62787c0.00602,0.01919 0.00875,0.03009 0.00875,0.03009c1.02339,4.09357 1.50597,8.22491 2.02237,12.37035c0.26546,2.13098 -0.0204,4.41841 0.5,6.5c0,1.3889 0.25749,2.71249 0.25749,4.12218v0.25c0,0 0,1 -1,1c-1,0 -1,-1 -1,-1v-0.25c0,-1.33085 -0.24251,-2.56412 -0.24251,-3.87781c-0.52099,-2.08396 -0.23272,-4.36942 -0.5,-6.5c-0.5101,-4.06618 -0.97408,-8.11544 -1.97763,-12.12965c0,0 -0.14971,-0.59883 0.2566,-0.97316c-0.00824,-0.03481 -0.01458,-0.06853 -0.01943,-0.10051c-0.4577,0.26296 -0.88956,0.54981 -1.30719,0.84659c0.29017,0.29626 0.29017,0.73454 0.29017,0.73454c-0.00037,0.08831 -0.00055,0.1774 -0.00052,0.26722c0.25021,0.04944 0.51736,0.20731 0.67899,0.6114c0.37139,0.92848 -0.55709,1.29987 -0.55709,1.29987c-0.02999,0.01197 -0.05999,0.02408 -0.09004,0.03633c0.08766,2.7296 0.36643,5.78409 0.96116,8.16301l0.00749,1.12218c0,0 0,1 -1,1c-1,0 -1,-1 -1,-1l0.00749,-0.87781c-0.54894,-2.19576 -0.81759,-4.93992 -0.9332,-7.50118c-1.92165,0.93381 -3.9458,1.87394 -6.05404,1.35224c-0.99308,-0.24574 -1.71925,-0.86218 -2.43085,-1.46806c0.77889,2.45964 0.85322,4.96608 1.15574,7.64628c0.52232,4.62757 0.74292,9.43019 0.75486,14.09853c0,2.16666 0,4.33334 0,6.5v0.25c0,0 0,1 -1,1zM224.00665,95.04926c-1.23439,0.91567 -2.48825,1.73941 -4.10128,2.06232c1.38829,-0.17531 2.81562,-0.96567 4.10694,-1.62895c-0.00231,-0.14598 -0.00419,-0.29049 -0.00566,-0.43337zM215.29828,94.61925c-0.03273,0.0824 -0.07508,0.18425 -0.12521,0.29646c0.02979,0.01701 0.05937,0.03441 0.08879,0.05217c-0.00528,-0.11892 0.00606,-0.23575 0.03643,-0.34864zM212.06159,93.97636c-0.11184,-0.09169 -1.06405,1.24143 -1.15304,1.33041c-0.12316,0.25486 -0.2615,0.74614 -0.40228,1.18343c0.60978,-0.29635 1.25558,-1.22543 2.08096,-1.69701c-0.14282,-0.32563 -0.29698,-0.62937 -0.52564,-0.81683zM236.80571,82.73803c-0.10991,-0.23035 -0.48598,-0.87263 -0.44923,-0.62006c0.02845,0.19545 -0.14193,0.52345 -0.40875,0.91034c0.21617,0.03238 0.37431,0.11845 0.48999,0.22705c0.15194,-0.11029 0.30535,-0.2181 0.46097,-0.32289c-0.03287,-0.06767 -0.06373,-0.13313 -0.09297,-0.19443zM234.67708,84.63288c0.02893,-0.02319 0.05782,-0.04637 0.08665,-0.06953c-0.00036,-0.01117 -0.00071,-0.02233 -0.00106,-0.03349c-0.02872,0.03454 -0.05727,0.06889 -0.08559,0.10302z" fill="#ff0000" stroke="none" stroke-width="0.5" stroke-linecap="butt"/><path d="M217.62271,264.63035c0.0319,0.03024 0.06344,0.06157 0.09461,0.0939c0.38821,0.22355 0.8061,0.31844 1.38145,0.51645c0.05119,-0.27519 0.08656,-0.5048 0.08626,-0.65221c-0.00781,-3.85151 -1.74949,-11.54219 2.75,-12.75c0.53388,0.12025 1.29666,1.12353 1.51879,0.62339c0.77958,-1.75525 1.10599,-9.13434 4.943,-7.98881c0.25242,0.07536 -0.50407,-0.16189 -0.73753,-0.28394c-0.75987,-0.39724 -1.91713,-0.33563 -2.33176,-1.08616c-0.7205,-1.30418 1.1701,-4.44923 1.80391,-5.35646c0.31793,-0.45508 2.32727,-1.7361 1.45664,-1.47015c-1.62753,-0.3957 -2.64002,-1.04497 -4.08283,-1.78495c-1.46369,-0.75069 -3.35422,-0.88302 -5.14238,-1.06615c-0.47964,0.28116 -0.9699,0.55228 -1.48063,0.80764c0,0 -0.89443,0.44721 -1.34164,-0.44721c-0.14475,-0.2895 -0.14895,-0.53214 -0.08841,-0.72794c-0.29547,-0.06737 -0.76716,-0.28248 -0.76716,-0.96928c0,-1 1,-1 1,-1l0.74254,0.02986c0.44187,0.11435 0.90225,0.20092 1.3739,0.27246c1.47115,-0.94817 2.87336,-2.00817 4.50088,-2.7262c0.49919,-0.22023 2.70599,-0.64787 2.9981,-0.36433c0.5399,0.52407 0.3954,1.47544 0.36654,2.22731c-0.0106,0.2763 -0.24302,0.78796 -0.45091,1.12867c0.57535,-0.19748 1.74082,-0.31675 2.02459,-0.46363c1.68233,-0.87074 2.8489,-1.92875 4.20166,-3.22435c0.83098,-0.22734 1.51804,-0.87123 2.36002,-1.05368c5.08038,-1.10087 -0.5169,5.24477 -0.16502,7.3687c0.20279,1.22407 4.7304,0.11083 5.75749,0.08225l0.843,-0.4215l0.18419,0.36838l1.07426,-0.05867c-0.17072,0.29786 -0.32562,0.60673 -0.48001,0.91594l0.37587,0.37587l-1.41421,1.41421l-0.00962,-0.00962c-0.01932,0.02415 -0.03889,0.04812 -0.05872,0.07192c-0.71213,0.85474 -1.96417,1.08026 -2.80481,1.80898c-2.50054,2.16763 -3.33647,5.8083 0.90115,5.75992l0.06767,0.0276l0.00287,-0.02006l1.73545,0.24792c0.49238,0.06234 0.87313,0.48272 0.87313,0.99203c0,0.3992 -0.23392,0.74377 -0.57216,0.90412l-1.48062,0.74031l-0.00643,-0.01286c-0.035,0.02084 -0.07039,0.04112 -0.1062,0.0608c-0.61997,0.34067 -1.37969,0.31324 -2.07002,0.46768c-2.54979,0.57043 -8.16425,3.31491 -4.35935,6.0845l0.03265,0.0676l0.01926,-0.01926l0.75,0.75c0.18096,0.18096 0.29289,0.43096 0.29289,0.70711c0,0.55228 -0.44772,1 -1,1c-0.09149,0 -0.1801,-0.01229 -0.26429,-0.0353l-0.97824,-0.24456l0.06544,-0.26174c-1.35452,-0.0949 -2.84103,-0.22939 -3.70749,0.07981c-0.36675,0.13087 1.10763,4.81724 0.98524,4.98753c-0.86827,1.20803 -2.57657,0.30894 -3.37638,-0.17508c-0.4023,-0.24346 -0.77334,-0.53813 -1.12947,-0.8452c-0.27011,-0.2329 -0.58679,-1.24608 -0.59466,-0.88951c-0.04085,1.85044 -0.11794,3.72086 0.24499,5.53552c0.00187,0.51858 0.10643,2.86174 -0.37972,3.13674c-1.77253,1.00269 -2.27403,0.27023 -2.3118,-0.61189c-0.02631,0.26562 -0.05195,0.53577 -0.06111,0.69587c-0.03572,0.62492 0.00586,1.25187 0.00749,1.87782c0.00412,1.58331 0,3.16668 0,4.75v1c0,0.55228 -0.44772,1 -1,1c-0.37064,0 -0.69419,-0.20165 -0.86692,-0.50122l-0.74057,-1.23428l0.07972,-0.04783c-2.18581,-2.30801 -3.31553,-4.40897 -4.21473,-8.09448l0.0399,-0.12218h-0.04739v-1c0,-0.24635 0.08908,-0.4719 0.23679,-0.64618c-0.04329,-0.0516 -0.08757,-0.10491 -0.1329,-0.16l0.17119,-0.08734c-0.02133,-0.05244 -0.04258,-0.10553 -0.06377,-0.1593l-0.18145,0.04536l-0.24456,-0.97824c-0.02301,-0.08419 -0.0353,-0.1728 -0.0353,-0.26429c0,-0.26219 0.10091,-0.50082 0.266,-0.67916c0.08443,-0.46679 0.49287,-0.82084 0.984,-0.82084c0.3992,0 0.74377,0.23392 0.90412,0.57216l0.49031,0.98062l-0.23179,0.1159c0.22543,0.36314 0.38669,0.72147 0.52504,1.12318z" fill="#ff0000" stroke="none" stroke-width="0.5" stroke-linecap="butt"/><path d="M247.06488,115.97941c0,0 0.06357,-9.01512 10.60111,-8.8249c9.47101,0.16586 9.55554,9.40723 9.55554,9.40723c0,0 -6.38192,2.06248 -9.90551,1.96069c-3.15434,-0.09113 -10.25115,-2.54302 -10.25115,-2.54302z" fill="#ffffff" stroke="#000000" stroke-width="1.15" stroke-linecap="butt"/><path d="M266.66839,118.8266c0,0 -2.60328,7.88506 -11.35858,7.42401c-9.7416,-0.50772 -7.28974,-7.55152 -7.28974,-7.55152c0,0 4.87247,0.52855 7.89708,0.65335c3.18337,0.13135 10.75124,0.11613 10.75124,0.11613z" data-paper-data="{&quot;index&quot;:null}" fill="#ffffff" stroke="#000000" stroke-width="1.15" stroke-linecap="butt"/></g></g></svg>