<svg version="1.1" xmlns="http://www.w3.org/2000/svg" xmlns:xlink="http://www.w3.org/1999/xlink" width="517.59938" height="228.56347" viewBox="0,0,517.59938,228.56347"><defs><linearGradient x1="240" y1="53.79879" x2="240" y2="240.03036" gradientUnits="userSpaceOnUse" id="color-1"><stop offset="0" stop-color="#292929"/><stop offset="1" stop-color="#000000"/></linearGradient><radialGradient cx="18.31579" cy="81.54615" r="4.97368" gradientUnits="userSpaceOnUse" id="color-2"><stop offset="0" stop-color="#d6d6d6"/><stop offset="1" stop-color="#d6d6d6" stop-opacity="0"/></radialGradient><radialGradient cx="44.25" cy="138.38826" r="6.39474" gradientUnits="userSpaceOnUse" id="color-3"><stop offset="0" stop-color="#d6d6d6"/><stop offset="1" stop-color="#d6d6d6" stop-opacity="0"/></radialGradient><radialGradient cx="179.25" cy="85.45405" r="8.17105" gradientUnits="userSpaceOnUse" id="color-4"><stop offset="0" stop-color="#d6d6d6"/><stop offset="1" stop-color="#d6d6d6" stop-opacity="0"/></radialGradient><radialGradient cx="159" cy="142.65142" r="5.68421" gradientUnits="userSpaceOnUse" id="color-5"><stop offset="0" stop-color="#d6d6d6"/><stop offset="1" stop-color="#d6d6d6" stop-opacity="0"/></radialGradient><radialGradient cx="244.97368" cy="96.82247" r="9.23684" gradientUnits="userSpaceOnUse" id="color-6"><stop offset="0" stop-color="#d6d6d6"/><stop offset="1" stop-color="#d6d6d6" stop-opacity="0"/></radialGradient><radialGradient cx="232.53947" cy="173.55931" r="4.61842" gradientUnits="userSpaceOnUse" id="color-7"><stop offset="0" stop-color="#d6d6d6"/><stop offset="1" stop-color="#d6d6d6" stop-opacity="0"/></radialGradient><radialGradient cx="297.90789" cy="149.40142" r="7.46053" gradientUnits="userSpaceOnUse" id="color-8"><stop offset="0" stop-color="#d6d6d6"/><stop offset="1" stop-color="#d6d6d6" stop-opacity="0"/></radialGradient><radialGradient cx="229.34211" cy="129.15142" r="4.97368" gradientUnits="userSpaceOnUse" id="color-9"><stop offset="0" stop-color="#d6d6d6"/><stop offset="1" stop-color="#d6d6d6" stop-opacity="0"/></radialGradient><radialGradient cx="324.90789" cy="94.33563" r="5.32895" gradientUnits="userSpaceOnUse" id="color-10"><stop offset="0" stop-color="#d6d6d6"/><stop offset="1" stop-color="#d6d6d6" stop-opacity="0"/></radialGradient><radialGradient cx="343.38158" cy="180.30931" r="7.46053" gradientUnits="userSpaceOnUse" id="color-11"><stop offset="0" stop-color="#d6d6d6"/><stop offset="1" stop-color="#d6d6d6" stop-opacity="0"/></radialGradient><radialGradient cx="436.46053" cy="84.74352" r="3.19737" gradientUnits="userSpaceOnUse" id="color-12"><stop offset="0" stop-color="#d6d6d6"/><stop offset="1" stop-color="#d6d6d6" stop-opacity="0"/></radialGradient><radialGradient cx="474.47368" cy="81.19089" r="7.10526" gradientUnits="userSpaceOnUse" id="color-13"><stop offset="0" stop-color="#d6d6d6"/><stop offset="1" stop-color="#d6d6d6" stop-opacity="0"/></radialGradient><radialGradient cx="424.73684" cy="134.1251" r="8.52632" gradientUnits="userSpaceOnUse" id="color-14"><stop offset="0" stop-color="#d6d6d6"/><stop offset="1" stop-color="#d6d6d6" stop-opacity="0"/></radialGradient><radialGradient cx="469.85526" cy="169.65142" r="10.65789" gradientUnits="userSpaceOnUse" id="color-15"><stop offset="0" stop-color="#d6d6d6"/><stop offset="1" stop-color="#d6d6d6" stop-opacity="0"/></radialGradient><radialGradient cx="46.38158" cy="182.08563" r="5.32895" gradientUnits="userSpaceOnUse" id="color-16"><stop offset="0" stop-color="#d6d6d6"/><stop offset="1" stop-color="#d6d6d6" stop-opacity="0"/></radialGradient><radialGradient cx="31.81579" cy="157.21721" r="7.46053" gradientUnits="userSpaceOnUse" id="color-17"><stop offset="0" stop-color="#d6d6d6"/><stop offset="1" stop-color="#d6d6d6" stop-opacity="0"/></radialGradient><radialGradient cx="167.17105" cy="192.38826" r="6.03947" gradientUnits="userSpaceOnUse" id="color-18"><stop offset="0" stop-color="#d6d6d6"/><stop offset="1" stop-color="#d6d6d6" stop-opacity="0"/></radialGradient><radialGradient cx="147.63158" cy="170.00668" r="6.03947" gradientUnits="userSpaceOnUse" id="color-19"><stop offset="0" stop-color="#d6d6d6"/><stop offset="1" stop-color="#d6d6d6" stop-opacity="0"/></radialGradient><linearGradient x1="288.27927" y1="60.23036" x2="288.27927" y2="112.2501" gradientUnits="userSpaceOnUse" id="color-20"><stop offset="0" stop-color="#d6d6d6"/><stop offset="1" stop-color="#808080"/></linearGradient><radialGradient cx="276.38593" cy="77.0284" r="4.33498" gradientUnits="userSpaceOnUse" id="color-21"><stop offset="0" stop-color="#d6d6d6"/><stop offset="1" stop-color="#d6d6d6" stop-opacity="0"/></radialGradient><radialGradient cx="298.06082" cy="70.79687" r="6.23153" gradientUnits="userSpaceOnUse" id="color-22"><stop offset="0" stop-color="#d6d6d6"/><stop offset="1" stop-color="#d6d6d6" stop-opacity="0"/></radialGradient><radialGradient cx="297.24801" cy="94.36832" r="7.58621" gradientUnits="userSpaceOnUse" id="color-23"><stop offset="0" stop-color="#d6d6d6"/><stop offset="1" stop-color="#d6d6d6" stop-opacity="0"/></radialGradient><radialGradient cx="274.21844" cy="88.40772" r="3.25123" gradientUnits="userSpaceOnUse" id="color-24"><stop offset="0" stop-color="#d6d6d6"/><stop offset="1" stop-color="#d6d6d6" stop-opacity="0"/></radialGradient><radialGradient cx="288.03618" cy="80.55057" r="3.52217" gradientUnits="userSpaceOnUse" id="color-25"><stop offset="0" stop-color="#d6d6d6"/><stop offset="1" stop-color="#d6d6d6" stop-opacity="0"/></radialGradient><radialGradient cx="282.61746" cy="100.05798" r="3.79311" gradientUnits="userSpaceOnUse" id="color-26"><stop offset="0" stop-color="#d6d6d6"/><stop offset="1" stop-color="#d6d6d6" stop-opacity="0"/></radialGradient></defs><g transform="translate(21.0136,-30.85435)"><g data-paper-data="{&quot;isPaintingLayer&quot;:true}" fill-rule="nonzero" stroke-linecap="butt" stroke-linejoin="miter" stroke-miterlimit="10" stroke-dasharray="" stroke-dashoffset="0" style="mix-blend-mode: normal"><path d="M492,53.79879v186.23157h-504v-186.23157z" data-paper-data="{&quot;index&quot;:null}" fill="url(#color-1)" stroke="none" stroke-width="NaN"/><path d="M-11.88671,224.01181c0.11755,0.11755 0.20904,0.23509 0.27881,0.35119c2.48362,-0.63242 5.29694,-1.30686 7.02031,-2.63897c1.16218,-0.89833 3.01919,-2.03124 3.92336,-3.21283c0.43489,-0.56833 0.49963,-1.4981 1.13879,-1.81996c0.87194,-0.43908 1.94411,-0.20497 2.92018,-0.22402c4.57224,-0.08927 8.36913,5.01381 13.15537,5.01381c2.39896,-1.29778 4.31493,-2.91286 6.77907,-4.14493c0.99386,-0.49693 3.09967,-1.07695 3.87332,-1.8506c1.50173,-1.50173 0.68068,-4.66459 4.37711,-3.915c0.79891,0.16201 0.92572,1.34538 1.45305,1.96701c1.19711,1.41119 2.68541,2.8527 3.08512,4.79559c0.59948,2.91392 -0.97991,6.70055 3.16918,6.70055c2.9211,-1.53684 3.92918,-5.65921 5.39773,-8.44779c0.84998,-1.61401 1.13466,-2.84186 3.47322,-2.96076c2.77591,-0.14113 4.44885,3.09293 5.96639,4.63864c0.46704,0.47571 1.40032,0.45315 1.70432,1.04645c0.28455,0.55532 -0.4214,1.27055 -0.21532,1.85952c0.09124,0.26076 0.48366,-0.26712 0.72629,-0.39921c0.62413,-0.3398 2.04111,-1.1175 2.61271,-1.347c3.00073,-1.20478 5.92012,-2.48061 9.02227,-3.44279c1.16525,-1.19092 2.96375,-1.57286 3.99109,-2.62679c0.44411,-0.4556 0.40117,-1.37801 0.98259,-1.63637c3.01609,-1.34025 5.70152,1.26221 8.60439,1.19703l0.49985,0.73662c2.51571,0.09761 5.33491,0.41555 7.68183,0.01403c2.23565,-0.38248 4.04845,-1.36207 6.21895,-2.07853c3.0957,-1.02187 6.29839,-0.904 9.41263,-1.4741c1.04188,-0.19073 1.80629,-1.19974 2.84211,-1.42105c2.55118,-0.54509 5.12758,-0.77089 7.81579,-0.71053c3.48677,-1.74338 6.58321,0.46041 10.00085,1.44075c4.60508,1.32095 8.53809,3.98312 12.94412,5.73857c1.1104,0.4424 2.15116,1.11258 3.32324,1.347c0.77209,0.15442 1.63031,-0.21937 2.36097,0.07405c0.69298,0.27828 1.00458,1.1316 1.63562,1.5309c1.5698,0.9933 2.00249,0.15017 3.81919,0.52663c1.21478,0.25173 2.27461,0.99834 3.44828,1.40029c0.6347,-0.0065 3.98711,-0.0575 4.36751,0.02076c1.03746,0.21344 1.80184,1.22173 2.84211,1.42105c2.30017,0.44072 6.35778,0.31423 8.65194,-0.02076c2.84527,-0.41546 5.6016,-0.93023 8.42196,-1.40029c1.3815,-0.23025 2.75276,-0.94095 4.13753,-0.73128c2.87391,0.43514 4.95313,2.86982 7.57552,3.53326c0.57013,0.14424 0.6743,-0.97194 0.91472,-1.50864c0.41737,-0.37267 1.01492,-0.61123 1.2521,-1.11801c0.40915,-0.87426 -0.20823,-2.30158 0.59722,-2.83353c0.33866,-0.22366 4.51948,1.10927 5.00026,1.34956c4.19217,2.09516 9.02528,5.49108 13.79177,6.26158c5.0695,0.81948 11.18279,-0.03923 16.17786,-0.62358c2.9974,-0.35065 5.30672,-0.06588 8.26701,-0.8056c2.81316,-0.01366 6.35295,0.59784 9.07549,0.02889c2.99718,-0.62634 6.15304,-0.92048 9.23684,-1.42105c0.63128,-0.10247 1.12728,-0.78883 1.76568,-0.75065c1.52731,0.09133 3.23242,1.62864 4.05897,2.75451c0.20918,0.28493 -0.03501,0.86634 0.28226,1.02214c1.04176,0.51158 2.31397,-0.22402 3.47456,-0.22402c5.79732,0 10.42681,-0.0448 15.67128,-2.68375c1.99456,0.46751 -1.12582,-0.07899 -0.02074,-1.32301c2.33897,-2.63304 6.81055,-2.43453 9.94577,-2.83775c4.20687,-0.54105 8.53288,-0.26076 12.7721,-0.26076c5.04195,0 10.15453,-0.37532 15.11212,0.5837l2.02483,0.12916c0.7892,0.04373 1.41568,0.69754 1.41568,1.49767c0,0.41421 -0.16789,0.78921 -0.43934,1.06066l-0.9079,0.9079c-0.31073,0.61294 -0.64825,1.20825 -1.06748,1.75061c-0.46727,0.60451 -2.01808,1.32171 -1.42105,1.7985c1.01568,0.81112 5.73872,0.08759 6.91472,0.08759c6.15789,0 12.31579,0 18.47368,0c1.25736,0 5.09124,0.6826 6.08169,0.17749c0.59659,-0.30425 0.54841,-1.23877 0.96883,-1.76005c1.70459,-2.11353 2.38005,-2.36347 4.47155,-3.76114c1.83058,-1.83044 4.56908,-2.53258 6.2857,-4.16433c0.53274,-0.50641 0.58489,-1.60069 1.29684,-1.78342c2.67559,-0.68673 5.87356,3.08112 7.61339,4.34135c3.1379,2.27292 6.96884,2.8557 10.48263,4.22012c0.91506,0.35532 1.6522,1.17181 2.61769,1.34905c1.74049,0.31951 5.24845,1.36409 7.03648,0.73476c2.16841,-0.7632 4.27001,-2.13407 6.58914,-2.8871c3.05882,0.03132 5.48451,-1.75847 8.58331,-2.13971c2.39867,-0.29511 4.03617,-0.25843 6.23338,-0.68164c3.762,-0.7246 8.30193,0.07249 11.95332,0.68977c3.37418,0.57041 7.87745,2.69012 11.404,1.46605c2.33517,-0.81054 4.62326,-3.04139 6.86912,-4.16916c1.25126,-0.61766 2.79499,-0.53801 3.99539,-1.24947c0.41224,-0.24433 0.24275,-0.9798 0.58846,-1.31165c1.74623,-1.67622 5.50387,-2.94737 7.80003,-2.53079c2.72914,0.49513 4.54231,3.10924 6.803,4.42567c1.17892,0.6865 2.57544,0.9081 3.89144,1.26766c1.00992,0.27593 1.77573,1.22342 2.80556,1.41194c1.87591,0.34341 5.13557,0.06142 6.8387,0.89442c0.52484,0.2567 0.37089,1.2082 0.86052,1.52697c0.86666,0.56422 3.99775,0.38375 4.74562,0.38059c4.26434,0 8.37632,-0.09513 12.42358,0.75065c1.41042,0.29475 3.81143,-0.76854 4.97919,0.39921c0.53621,0.53621 0.43934,4.34072 0.43934,5.32382c0,4.26316 0,8.52632 0,12.78947c0,0.60269 0.02996,4.5108 -0.11418,4.83718c-1.06765,2.41751 -3.6552,2.5865 -5.68868,3.60972c-6.47753,3.23876 -12.80654,4.24169 -19.81939,5.11951c-9.98509,1.24986 -19.90707,2.14412 -30.03564,2.14412c-5.16165,-0.00768 -10.26716,0.71053 -15.47368,0.71053c-13.44895,0 -27.11386,-0.60931 -40.44868,1.07105c-7.15695,0.88715 -14.6318,0.35001 -21.8408,0.35001c-11.97368,0 -23.94737,0 -35.92105,0c-13.04342,0 -25.9803,-1.35416 -38.97612,-2.13016c-7.47091,-0.4461 -15.11832,-0.00142 -22.60282,-0.00142c-19.78507,0 -39.39238,-0.71053 -59.13158,-0.71053c-19.13158,0 -38.26316,0 -57.39474,0c-9.73984,-0.00957 -19.8482,-0.91136 -29.47985,-2.01903c-8.99919,-1.03494 -18.20055,-0.06818 -27.21326,-1.21789c-6.85211,-0.88961 -14.03866,-1.34999 -20.93954,-1.74054c-2.64309,-0.14959 -5.38884,0.26956 -8.02182,-0.0042c-2.00447,-0.20842 -3.90035,-1.06048 -5.89721,-1.33224c-1.97479,-0.26876 -3.99946,0.14569 -5.97828,-0.09159c-5.70447,-0.68403 -11.31717,-1.41029 -17.10161,-1.41029c-5.43293,0 -11.11696,-0.52855 -16.42448,-1.44042c-5.28845,-0.90859 -11.03369,0.86036 -16.34211,0c-5.67261,-0.91939 -11.31941,-1.34721 -17.15699,-1.44181c-0.45315,-0.21494 -3.22724,-1.48937 -3.55814,-1.82027c-1.57523,-1.57523 -1.8427,-4.00216 -1.86039,-6.03434c-0.01766,-2.02818 -0.40151,-4.77056 0.04013,-6.73937c0.69255,-3.08735 3.89551,-5.39235 6.47326,-6.68122l0.32069,-0.42955c0,0 1.06066,-1.06066 2.12132,0z" fill="#193f1d" stroke="none" stroke-width="0.5"/><g stroke="none" stroke-width="0.5"><path d="M136.26316,233.51984c1.5,0 1.5,1.5 1.5,1.5l-0.15836,0.03971c0.63378,1.52152 2.20125,2.96212 3.63204,2.72345c1.40624,0.02279 4.32601,-0.38235 4.97566,1.73618c0.75798,2.47183 -2.84811,4.39607 -4.63103,4.77632c-3.6842,0.78575 -7.73276,-0.04924 -11.36842,0.71053c-8.44122,1.76402 -17.1083,1.46118 -25.92358,1.46118c-5.72321,-0.00007 -11.28306,0.71053 -17.05263,0.71053c-4.24671,0 -9.05389,-0.65471 -13.24212,-0.02233c-1.93566,0.29226 -6.96726,2.10323 -8.63912,0.02146c-0.59439,-0.74012 0.35601,-1.8665 0.60068,-2.78367c0.4882,-1.8301 1.33747,-3.3939 2.17576,-5.07048c0,0 0.23838,-0.47677 0.71515,-0.71977c1.41951,-2.83902 2.83902,-5.67805 4.25853,-8.51707c0.55071,-1.10142 1.79211,-2.73184 2.01335,-3.93697c0.12829,-0.69885 -0.14846,-1.43674 0,-2.13158c0.33599,-1.57252 1.68263,-2.92002 2.18462,-4.43895c1.23683,-3.74238 1.50455,-7.39824 2.7683,-11.08828c0.02182,-3.09719 0.9044,-5.51911 1.42105,-8.52632c0.36045,-2.09798 -0.39934,-4.397 0.02076,-6.49909c0.24312,-1.21653 1.23367,-2.21893 1.40029,-3.44828c0.3462,-2.55419 -0.35839,-5.25563 0,-7.81579c0.10383,-0.74173 0.58371,-1.39343 0.71053,-2.13158c0.592,-3.44574 -0.56111,-7.19586 0,-10.65789c0.36667,-2.26233 0.69116,-3.79267 0.69116,-6.15446c0,-15.09888 0.71053,-29.67302 0.71053,-44.76316c0,-2.53946 0.51577,-5.69928 0.04013,-8.18169c-0.19932,-1.04027 -1.22561,-1.8011 -1.42105,-2.84211c-0.10441,-0.55615 0.44333,-1.18472 0.1839,-1.68761c-0.2428,-0.47066 -1.20248,-0.22814 -1.42105,-0.71053c-0.32239,-0.71152 -0.22448,-1.53081 -0.21072,-2.32852c-0.11067,-0.07468 -0.20509,-0.15992 -0.28327,-0.2431l-0.00122,0.00157c0,0 -0.0679,-0.0679 -0.15216,-0.18651c-0.08588,-0.11744 -0.12883,-0.20333 -0.12883,-0.20333c-0.63376,-1.26751 -1.17538,-2.91174 -2.0068,-4.05691c-0.64978,-0.89498 -1.90386,-1.16594 -2.6859,-1.94798c-0.78205,-0.78205 -1.05301,-2.03613 -1.94798,-2.6859c-1.46451,-1.06328 -4.80979,-2.98597 -6.57283,-3.30962c-0.69885,-0.12829 -1.43587,0.14433 -2.13158,0c-2.06394,-0.42816 -3.07689,-1.4041 -5.33958,-1.38093l-0.10658,0c-0.12805,0.20348 -0.33132,0.396 -0.64365,0.55217c-1.34164,0.67082 -2.01246,-0.67082 -2.01246,-0.67082c-0.00258,-0.00619 -0.00519,-0.01234 -0.00784,-0.01848c-0.32572,-0.13351 -0.68002,-0.39701 -0.80978,-0.91707c-0.34845,-0.26436 -0.73198,-0.5052 -1.03298,-0.80619c-1.50532,-1.50532 -3.06397,-3.32614 -4.41936,-5.15728c-5.03279,-6.79933 -6.67787,-14.55972 -6.67787,-22.90338c0,-3.55263 0,-7.10526 0,-10.65789v-1.42105c0,-0.52094 0.18092,-0.86097 0.4171,-1.0829c0.22193,-0.23618 0.56196,-0.4171 1.0829,-0.4171c2.15157,0 3.39354,-0.29557 5.33958,-0.6704c1.3954,-0.26877 2.87215,0.29069 4.26316,0c1.53855,-0.32152 3.30622,-1.27969 4.68586,-0.52663c0.79823,0.43571 0.9212,1.56827 1.3818,2.3524l0.04013,2.47621c0,0 0,0.91149 -0.71053,1.31341v0.81817c0,6.83177 -0.05398,13.66024 0.6704,20.26063c0.04973,0.45311 0.67187,1.06876 1.32119,1.68942c0.0389,-0.00269 0.06104,-0.00269 0.06104,-0.00269h1.42105c3.56988,0 6.26912,0.77403 9.58147,1.46118c0.77096,0.15994 1.63178,-0.22299 2.36097,0.07405c1.18877,0.48425 3.01804,2.21533 4.35995,2.88628c4.88393,2.50696 6.62253,6.47296 8.53079,11.42551c0.42577,1.10502 1.68483,1.7454 2.13158,2.84211c0.29704,0.7292 -0.08036,1.58889 0.07405,2.36097c0.25697,1.28487 1.21639,2.36621 1.44181,3.65699c0.02391,0.13692 0.04534,0.27653 0.06464,0.41852c1.2245,-7.17318 0.8324,-15.50114 -0.1838,-22.67482c-0.34327,-2.42327 -0.0914,-5.18428 -1.28206,-7.38524l-0.71053,-1.42105c0,0 -0.63002,-1.26003 0.55217,-1.94843c0,-3.83729 0,-7.67457 0,-11.51186v-1.42105c0,0 0,-1.5 1.5,-1.5c0.6686,0 1.03918,0.29801 1.24458,0.62837c2.04519,-0.97433 4.16747,-1.74314 6.22658,-2.71983l2.47621,-0.04013c0,0 1.5,0 1.5,1.5c0,0.30144 -0.06058,0.5423 -0.15738,0.73476c0.15738,0.3526 0.15738,0.68629 0.15738,0.68629v0.71053c-0.03768,1.67785 0.39207,2.82949 0.60133,4.31576c0.81972,0.36582 0.81972,1.36845 0.81972,1.36845l-0.15836,1.38135c-0.55545,1.1109 -1.78075,2.72304 -2.01335,3.93697c-0.4999,2.60901 -0.17669,5.36942 -0.60042,7.88437c1.86534,-0.89122 3.74464,-1.74011 5.67178,-2.50956c2.27573,-0.90863 3.64702,-0.9008 5.38117,-2.67315l1.6273,-0.8353c0,0 1.20275,-0.60138 1.90006,0.47347c5.03403,-2.46527 10.23986,-4.18446 15.82339,-4.18446l0.61375,0c0.13009,-0.34452 0.19727,-0.73304 0.45717,-0.98171c1.77244,-1.69592 3.64226,-1.0093 5.46032,-1.74621c0.62083,-0.25164 0.79807,-1.17478 1.42105,-1.42105c1.09101,-0.4313 2.42398,-0.10814 3.45584,-0.66635l1.38135,-0.15836c0,0 1.48331,0 1.49986,1.47503c0.38516,-0.7645 1.34224,-0.7645 1.34224,-0.7645c1.30624,0 2.61261,0.0108 3.91853,0.04013l0.32073,-0.17351c0.17466,-2.10459 0.69858,-3.16062 2.77269,-4.18763c-0.35622,-0.19603 -0.69616,-0.57017 -0.69616,-1.28425c0,-1.5 1.5,-1.5 1.5,-1.5c3.07384,0 8.12256,-0.9648 11.00252,0.04013c0.95065,0.33171 2.12501,0.76141 2.49945,1.69606c0.33291,0.831 -0.52794,1.71081 -0.79191,2.56621l0.15836,0.75023c0,0 0,1.34779 -1.27758,1.48821l-0.30183,0.60366c-1.3171,2.40555 -3.397,2.88612 -5.25466,4.653c-0.76748,0.72997 -0.68879,2.07681 -1.42105,2.84211c-0.36613,0.38265 -1.0354,0.34756 -1.42105,0.71053c-0.71462,0.67259 -0.67781,1.8721 -1.26485,2.65851c-0.87974,1.17852 -2.6802,3.44941 -3.70883,4.44675c-1.05572,1.0236 -3.32194,1.74703 -4.653,2.41256c0,0 -1.11704,0.55852 -1.82223,-0.36296c-2.12028,0.46856 -3.99563,1.6977 -6.09035,2.53872c-2.02787,0.81418 -5.06846,1.333 -6.80222,2.67315c-1.48104,1.1448 -2.76657,2.43019 -4.26316,3.55263c-1.51256,1.13442 -3.7756,1.95617 -4.50911,3.71712c-0.96543,1.93086 -1.69038,2.59405 -3.12309,3.94247c-0.71462,0.67259 -0.681,1.86973 -1.26485,2.65851c-0.37946,0.51266 -1.7478,1.40032 -1.88857,2.30967c-0.53966,3.48624 -2.12845,6.53239 -2.84211,9.94737c-0.37226,1.78132 0.04013,4.22482 0.04013,6.05011c0,3.55263 0,7.10526 0,10.65789c-0.01393,1.36054 0.47348,2.6798 0.69116,4.02288c0.95391,5.88561 0.01937,12.72502 0.01937,18.71396c0,2.72437 0.18527,4.95245 0.6704,7.47116c0.99215,5.15106 0.04013,11.41051 0.04013,16.68673c-0.02452,1.09216 0.49475,2.12978 0.6704,3.208c0.3681,2.25954 -0.46542,4.87813 0,7.10526c0.10833,0.5184 0.61036,0.90102 0.71053,1.42105c0.39554,2.05357 -0.42292,4.37096 0,6.39474c0.77228,3.69551 1.39097,7.66538 2.13158,11.36842c0.71762,3.5881 0.46703,8.03932 2.13158,11.36842c0,4.85681 2.38776,9.49454 4.1891,13.98113c0.3961,0.98657 0.92121,3.65391 1.80642,4.48705c1.52055,1.43111 3.16311,3.28131 4.61658,5.24488c0.00232,-0.00001 0.00464,-0.00001 0.00697,-0.00001zM69.14161,244.81842c2.31741,-0.41205 5.1161,-0.63218 7.43733,-0.64068c6.33542,-0.0232 13.20054,0.7363 19.48816,0.00963c2.82002,-0.32591 5.34029,-0.72012 8.22237,-0.72016c6.05679,0 13.00347,1.03998 18.94394,0.01937c2.13278,-0.36643 4.24527,-1.00639 6.29038,-1.40029c3.01535,-0.58079 6.3087,-0.22832 9.3412,-0.73128c1.0075,-0.1671 2.09052,-0.11711 3.02217,-0.52565c-0.23897,-0.02635 -0.46752,-0.05046 -0.65032,-0.04635c-1.19781,-0.09189 -2.18609,-0.35422 -3.03483,-0.79974c-1.23963,0.49966 -1.85944,-0.73996 -1.85944,-0.73996c-1.00872,-2.09202 -2.77452,-3.63539 -4.13838,-5.47797c-0.58385,-0.78878 -0.55023,-1.98592 -1.26485,-2.65851c-0.38565,-0.36297 -1.05492,-0.32788 -1.42105,-0.71053c-1.27493,-1.33245 -1.80576,-3.82643 -2.45674,-5.46032c-1.83109,-4.59587 -4.33721,-9.4686 -4.33721,-14.43992c-1.66859,-3.33718 -1.41411,-7.78109 -2.13158,-11.36842c-0.74192,-3.70959 -1.42048,-7.67651 -2.13158,-11.36842c-0.39554,-2.05357 0.42292,-4.37096 0,-6.39474c-0.58367,-2.793 -0.22383,-5.68157 -0.71053,-8.52632c-0.2231,-1.30402 -0.72922,-2.57447 -0.75065,-3.89726c0,-3.78947 0,-7.57895 0,-11.36842c0,-1.54308 0.35578,-3.11861 0.04013,-4.62905c-0.70997,-3.39737 -0.75065,-6.69412 -0.75065,-10.292c0,-5.11794 0.88019,-11.09141 0.01937,-16.10183c-0.2575,-1.49877 -0.71748,-2.98275 -0.7299,-4.50343c0,-5.47676 -0.99404,-12.02803 0.04013,-17.39726c0.22841,-1.18587 0.45819,-2.37163 0.71053,-3.55263c0.31907,-1.49333 1.86151,-2.79198 2.13158,-4.26316c0.12829,-0.69885 -0.16151,-1.43965 0,-2.13158c0.31265,-1.33942 1.54141,-2.28019 2.37459,-3.37454c0.68898,-0.90495 0.79095,-2.20391 1.57726,-3.0257c0.36613,-0.38265 1.0354,-0.34756 1.42105,-0.71053c0.65643,-0.61782 0.73694,-1.64599 1.14007,-2.45227c1.29752,-2.3698 3.33847,-3.23436 5.43826,-4.8092c1.48688,-1.11516 2.76384,-2.45595 4.26316,-3.55263c2.04062,-1.49263 5.07854,-2.08284 7.4083,-3.01106c3.15853,-1.25842 5.62358,-2.89995 9.10034,-2.95629l-0.35013,-0.27119c0,0 0.9721,-0.9721 1.98567,-0.1244c0.35654,-0.18408 0.65963,-0.37921 0.85644,-0.58613c1.03785,-1.09118 2.43829,-2.80992 3.39643,-4.07956c0.68512,-0.90787 0.79095,-2.20391 1.57726,-3.0257c0.36613,-0.38265 1.0354,-0.34756 1.42105,-0.71053c0.7713,-0.72593 0.68375,-2.08167 1.42105,-2.84211c1.40437,-1.44843 3.89261,-1.95252 4.6927,-3.87332l0.71053,-1.42105c0,0 0.21832,-0.43665 0.65497,-0.68719l0.05318,-0.70245c-0.49637,0.03916 -0.99934,0.00272 -1.49809,0.00782c-0.71049,0.00728 -1.42105,0 -2.13158,0c-1.23234,0 -2.46467,0 -3.69701,0l-0.92654,1.69224c-1.83052,0.98873 -2.50157,0.98163 -2.42052,2.89982c0.12078,0.46489 -0.00682,0.8312 -0.19385,1.09894c-0.14998,0.27625 -0.40627,0.5441 -0.84419,0.65287l-1.52062,0.72127c-1.53579,0.02489 -3.0718,0.04013 -4.60779,0.04013c0,0 -1.48331,0 -1.49986,-1.47503c-0.38516,0.7645 -1.34224,0.7645 -1.34224,0.7645l-0.03971,-0.15836c-1.12236,0.53236 -2.49819,0.28808 -3.64943,0.7547c-0.62083,0.25164 -0.79807,1.17478 -1.42105,1.42105c-1.2863,0.5085 -3.30636,-0.15859 -4.48705,1.09589c-0.09052,0.09618 -0.18133,0.1917 -0.27242,0.28659c0.00082,0.02419 0.00124,0.04879 0.00124,0.0738c0,1.5 -1.5,1.5 -1.5,1.5h-0.101c-1.25183,1.16291 -2.57115,2.23638 -3.99562,3.26949c-1.59803,1.15899 -1.59976,2.5048 -3.43699,3.46029c-0.50013,0.78108 -1.05061,1.52007 -1.63338,2.23185c0.00597,0.06239 0.0091,0.12776 0.0091,0.19626c0,1.42929 -1.36192,1.49667 -1.49032,1.49984c-1.9818,2.15307 -4.1411,4.15427 -5.89808,6.48249c-4.05875,5.37833 -6.66391,11.63198 -11.52462,16.5257c0,0 -1.06066,1.06066 -2.12132,0c-0.18289,-0.18289 -0.30271,-0.36578 -0.37577,-0.54324c0.06285,0.83764 0.1986,1.68263 0.08309,2.50796c-0.35564,2.54103 -0.69929,4.34579 -0.69929,6.92199c0,0 0,1.5 -1.5,1.5c-1.5,0 -1.5,-1.5 -1.5,-1.5c0,-2.65635 0.34111,-4.68088 0.72176,-7.28854c0.21304,-1.4594 -0.26015,-2.97824 0.02889,-4.42451c0.24312,-1.21653 1.20233,-2.22359 1.40029,-3.44828c0.4359,-2.69656 -0.02362,-5.89242 0.02076,-8.63067l0.67923,-1.432c0.07629,-0.35638 0.29311,-0.60926 0.50704,-0.77913c0.19456,-0.18411 0.46853,-0.35969 0.82191,-0.39012c5.12982,-1.75555 8.58211,-6.9866 14.37274,-7.08043l-0.35013,-0.27119c0,0 0.85416,-0.85416 1.79596,-0.26294c0.33956,-0.88693 1.39628,-0.88693 1.39628,-0.88693l0.7465,0c0.89509,-1.00944 1.75105,-2.05547 2.52395,-3.17715c1.9445,-0.92931 1.84436,-2.23663 3.66827,-3.64498c0.21555,-0.16644 0.41514,-0.35072 0.60654,-0.54422c-3.8602,0.58468 -7.51323,2.00107 -11.1376,3.81325c0,0 -1.20621,0.60311 -1.90307,-0.47811l-0.73279,0.35333c-1.88572,1.84905 -3.60199,2.05511 -5.98725,3.01106c-3.12508,1.25245 -6.11932,2.70862 -9.14005,4.21898c0,0 -0.01154,0.00577 -0.03301,0.01517c-0.27524,0.14151 -0.66044,0.25185 -1.08112,0.10757c-0.27302,-0.07188 -0.55154,-0.241 -0.778,-0.5841c-0.25388,-0.32334 -0.32624,-0.64105 -0.3081,-0.92279c-0.00384,-0.44472 0.22264,-0.77526 0.44393,-0.99163c0.01571,-0.0174 0.02483,-0.02652 0.02483,-0.02652c1.88496,-1.60721 0.56126,-2.57691 1.02184,-4.96818c0.63904,-3.31777 1.10773,-6.15887 2.48215,-9.25934c-0.3907,-0.44215 -0.3907,-1.05392 -0.3907,-1.05392c0.04839,-2.15483 -0.67419,-3.44174 -0.71053,-5.68421v-0.66526l-0.28695,-0.00644c-1.98065,1.07149 -4.06985,1.71816 -6.06855,2.72387c0,0 -0.25185,0.12592 -0.59187,0.15954c0,3.88711 0,8.43852 0,11.99882c0,0 0,0.35565 -0.17318,0.7206l0.01482,0.02963c1.27834,2.69508 1.14333,5.35267 1.56004,8.24634c1.12264,7.79564 1.58504,17.05872 -0.02076,24.7428c-0.46403,2.22047 0.21547,3.80889 -0.82876,6.0104c0,0 -0.24702,0.49404 -0.74106,0.73263c0.01007,0.01918 0.02024,0.03829 0.03053,0.05731c0,0 0.67082,1.34164 -0.67082,2.01246c-1.34164,0.67082 -2.01246,-0.67082 -2.01246,-0.67082c-1.04423,-2.20151 -0.36473,-3.78993 -0.82876,-6.0104c-0.48802,-2.33528 -1.65948,-4.74477 -2.13158,-7.10526c-0.12444,-0.62222 0.30464,-1.31102 0.07405,-1.90218c-0.43033,-1.10325 -1.68011,-1.74733 -2.13158,-2.84211c-1.74085,-4.22146 -2.80736,-7.8201 -7.10079,-9.89028c-0.23688,-0.11844 -2.94109,-1.46428 -3.04835,-1.54583c-0.4454,-0.33866 -0.59673,-1.04877 -1.11801,-1.2521c-0.59116,-0.23059 -1.27897,0.19341 -1.90218,0.07405c-3.11865,-0.59729 -5.55934,-1.38093 -8.89221,-1.38093h-0.10658c-0.12805,0.20348 -0.33132,0.396 -0.64365,0.55217c-1.34164,0.67082 -2.01246,-0.67082 -2.01246,-0.67082c-0.82502,-1.98062 -2.29738,-1.32873 -2.96034,-3.87882c-1.67346,-6.43703 -0.75065,-14.18432 -0.75065,-20.94989v-2.13158c0,0 0,-0.93685 0.74039,-1.32977l0.01027,-0.45718c-0.10623,-1.32535 -1.9138,0.29977 -2.45866,0.40472c-1.3954,0.26877 -2.87215,-0.29069 -4.26316,0c-1.59561,0.33345 -2.9586,0.59703 -4.52884,0.70172c0,3.37049 0,7.53701 0,10.62788c0,7.69435 1.36258,14.91159 6.1116,21.14925c1.6867,2.21542 3.86712,3.70473 5.49418,5.7718l1.10475,0c2.41121,0.01969 3.85732,1.04529 6.02884,1.46118c0.69784,0.13365 1.43674,-0.14846 2.13158,0c2.09612,0.44786 5.93148,2.48826 7.6377,3.79564c1.0023,0.76801 1.4223,2.10544 2.31517,2.99831c0.89287,0.89287 2.2303,1.31288 2.99831,2.31517c0.93911,1.22559 1.56316,3.08302 2.25636,4.4694c0,0 0.02202,0.04403 0.05009,0.12013l0.81879,1.26122c-0.07467,0.44766 -0.45258,0.95089 -0.22402,1.34298c0.26671,0.45754 1.18863,0.23466 1.42105,0.71053c0.37773,0.77339 0.00582,1.73347 0.1839,2.57555c0.21914,1.03627 1.20762,1.80464 1.42105,2.84211c0.55551,2.70022 0.04013,6.10868 0.04013,8.87095c0,15.09192 -0.71053,29.66567 -0.71053,44.76316c0,2.45542 -0.32567,4.28221 -0.7299,6.63501c-0.70796,4.12069 -0.10611,8.65013 -0.71053,12.78947c-0.37182,2.54642 0.37959,5.26232 0,7.81579c-0.19267,1.29607 -1.18458,2.37217 -1.44181,3.65699c-0.39906,1.9932 0.34869,4.26703 0.02076,6.29038c-0.48437,2.98856 -1.44422,5.47093 -1.42105,8.52632c-1.26726,3.87937 -1.59912,7.72711 -2.91591,11.64857c-0.44643,1.3295 -1.82794,2.72229 -2.07853,4.08737c-0.12829,0.69885 0.14846,1.43674 0,2.13158c-0.92016,4.30662 -4.53709,9.16392 -6.51297,13.11566c0,0 -0.23838,0.47676 -0.71514,0.71977c-0.54907,1.10245 -1.06385,2.90498 -1.6691,4.14483zM108.19224,91.85391c0.04212,0.04212 0.0809,0.08424 0.11653,0.1263c3.03451,-4.0626 5.23227,-8.67098 8.26384,-12.73218c0.86489,-1.15864 1.81485,-2.24374 2.79556,-3.30357c-2.30557,0.08795 -3.01982,1.11575 -4.96479,2.5554c-2.06265,1.52675 -5.20386,3.30399 -7.64249,4.25554l-0.30102,0.55643c0.0584,2.60056 0.44894,5.65359 0.0507,8.2374c0.40723,-0.20411 1.04445,-0.33254 1.68167,0.30468z" fill="#000000"/><path d="M70.82891,240.62701c0.47676,-0.24301 0.71495,-0.71984 0.71495,-0.71984c1.97587,-3.95175 5.59207,-8.80932 6.51224,-13.11594c0.14846,-0.69484 -0.16325,-1.33904 -0.03496,-2.03789c0.25059,-1.36507 1.63239,-2.75776 2.07882,-4.08726c1.31679,-3.92146 1.64775,-7.76954 2.915,-11.64891c-0.02317,-3.05539 0.93528,-5.53833 1.41966,-8.52689c0.32794,-2.02336 -0.42192,-4.29815 -0.02287,-6.29134c0.25723,-1.28482 1.24887,-2.36104 1.44154,-3.65712c0.37959,-2.55347 -0.37534,-5.27128 -0.00352,-7.8177c0.60441,-4.13935 -0.0049,-8.67422 0.70306,-12.79492c0.40423,-2.3528 0.72491,-4.18466 0.72491,-6.64008c0,-15.09749 0.71905,-29.74403 0.71905,-44.83595c0,-2.76226 0.52072,-6.17414 -0.03479,-8.87435c-0.21344,-1.03746 -1.20178,-1.8059 -1.42092,-2.84218c-0.17808,-0.84208 0.24093,-1.71395 -0.1368,-2.48734c-0.23242,-0.47587 -1.15349,-0.25345 -1.42019,-0.71098c-0.22856,-0.39209 0.10231,-0.98356 0.17698,-1.43122l-0.77238,-1.17265c-0.02808,-0.0761 -0.09662,-0.20864 -0.09662,-0.20864c-0.69319,-1.38638 -1.2708,-3.15525 -2.2099,-4.38085c-0.76801,-1.0023 -2.10426,-1.42294 -2.99713,-2.31581c-0.89287,-0.89287 -1.31249,-2.23052 -2.31479,-2.99853c-1.70622,-1.30739 -5.5387,-3.34956 -7.63481,-3.79742c-0.69484,-0.14846 -1.43271,0.13295 -2.13055,-0.0007c-2.17152,-0.41589 -3.61547,-1.44309 -6.02668,-1.46278l-1.1043,-0.00035c-1.62706,-2.06707 -3.87035,-3.63415 -5.55705,-5.84957c-4.74902,-6.23766 -6.10832,-13.45736 -6.10832,-21.15171c0,-3.09087 0.00221,-7.25882 0.00221,-10.62931c1.57024,-0.1047 2.93485,-0.36923 4.53046,-0.70267c1.391,-0.29069 2.86923,0.26797 4.26464,-0.0008c0.54485,-0.10494 2.35339,-1.73056 2.45962,-0.4052l0.0339,0.54689c-0.74039,0.39292 -0.73987,1.32951 -0.73987,1.32951l0.0004,2.13137c0,6.76557 -0.9184,14.51028 0.75505,20.94731c0.66296,2.55009 2.0806,1.8145 2.90562,3.79512c0,0 0.6715,1.34121 2.01314,0.67039c0.31233,-0.15616 0.51603,-0.34895 0.64408,-0.55244l0.10663,-0.00003c3.33288,0 5.7775,0.78146 8.89615,1.37875c0.62321,0.11936 1.31206,-0.30514 1.90322,-0.07455c0.52128,0.20333 0.67291,0.9133 1.11831,1.25196c0.10726,0.08155 2.81283,1.42679 3.04972,1.54523c4.29343,2.07018 5.36204,5.66798 7.10289,9.88945c0.45147,1.09478 1.7021,1.73854 2.13243,2.8418c0.23059,0.59116 -0.16486,1.37413 -0.04042,1.99635c0.4721,2.36049 1.64399,4.76983 2.13201,7.1051c0.46403,2.22047 -0.21396,3.8083 0.83027,6.00981c0,0 0.63457,1.24846 1.97622,0.57764c1.34164,-0.67082 0.67233,-2.01299 0.67233,-2.01299c-0.01029,-0.01902 -0.02048,-0.03812 -0.03055,-0.0573c0.49404,-0.23859 0.74212,-0.73297 0.74212,-0.73297c1.04423,-2.20151 0.36732,-3.79064 0.83135,-6.01112c1.6058,-7.68408 1.14749,-16.94799 0.02484,-24.74363c-0.41671,-2.89367 -0.26568,-5.45255 -1.54402,-8.14763l-0.03099,-0.12832c0.17318,-0.36495 0.17335,-0.72063 0.17335,-0.72063c0,-3.5603 0.00101,-8.11187 0.00101,-11.99897c0.34002,-0.03361 0.5922,-0.15958 0.5922,-0.15958c1.99869,-1.00572 4.09124,-1.65272 6.07189,-2.7242l0.2871,0.00643l-0.00002,0.66526c0.03634,2.24247 0.75911,3.52937 0.71073,5.6842c0,0 0.00561,0.71161 0.39631,1.15377c-1.37442,3.10047 -1.84121,5.94143 -2.48025,9.2592c-0.46058,2.39127 0.86412,3.36086 -1.02084,4.96808c0,0 -0.0091,0.00912 -0.02481,0.02652c-0.22129,0.21636 -0.4474,0.54686 -0.44355,0.99158c-0.01814,0.28174 0.04234,0.50016 0.29622,0.8235c0.22646,0.3431 0.50548,0.51216 0.7785,0.58405c0.42068,0.14428 0.80665,0.03387 1.08189,-0.10765c0.02147,-0.0094 0.03304,-0.01517 0.03304,-0.01517c3.02072,-1.51036 6.02131,-2.96671 9.14639,-4.21916c2.38526,-0.95595 4.10527,-1.16174 5.991,-3.01079l0.73323,-0.35328c0.69685,1.08122 1.9043,0.47827 1.9043,0.47827c3.62436,-1.81218 7.28347,-3.22731 11.14367,-3.81199c-0.1914,0.1935 -0.41721,0.47428 -0.63276,0.64072c-1.82391,1.40835 -1.72218,2.71606 -3.66669,3.64538c-0.7729,1.12168 -1.62774,2.16796 -2.52283,3.1774l-0.74603,0.0001c0,0 -1.05592,0.00015 -1.39549,0.88708c-0.9418,-0.59122 -1.79482,0.26313 -1.79482,0.26313l0.34987,0.27114c-5.79063,0.09384 -9.23298,5.32552 -14.3628,7.08107c-0.35338,0.03044 -0.62671,0.20599 -0.82127,0.3901c-0.21393,0.16987 -0.43033,0.42272 -0.50662,0.7791l-0.67863,1.43196c-0.04437,2.73825 0.4157,5.93407 -0.02019,8.63063c-0.19797,1.22469 -1.15555,2.23159 -1.39867,3.44812c-0.28904,1.44627 0.18471,2.96504 -0.02833,4.42445c-0.38066,2.60766 -0.71975,4.63189 -0.71975,7.28824c0,0 -0.01486,1.40112 1.48514,1.40112c1.5,0 1.50212,-1.50024 1.50212,-1.50024c0,-2.5762 0.34507,-4.38107 0.70071,-6.9221c0.11551,-0.82533 -0.02016,-1.67032 -0.08301,-2.50796c0.07306,0.17745 0.19323,0.36033 0.37613,0.54322c1.06066,1.06066 2.12352,-0.00007 2.12352,-0.00007c4.86071,-4.89372 7.47478,-11.14666 11.53353,-16.52498c1.75699,-2.32822 3.91944,-4.32877 5.90124,-6.48184c0.1284,-0.00318 1.49103,-0.07037 1.49103,-1.49967c0,-0.0685 -0.00317,-0.13388 -0.00914,-0.19627c0.58277,-0.71179 1.13389,-1.4506 1.63403,-2.23168c1.83723,-0.95548 1.84039,-2.30089 3.43842,-3.45988c1.42447,-1.03311 2.74539,-2.10608 3.99722,-3.26899l0.10105,0.00002c0,0 1.5005,0.00017 1.5005,-1.49983c0,-0.02502 -0.00043,-0.04962 -0.00125,-0.07381c0.0911,-0.09488 0.18199,-0.19038 0.27251,-0.28656c1.18069,-1.25448 3.20273,-0.58665 4.48903,-1.09515c0.62298,-0.24628 0.80062,-1.16925 1.42145,-1.42089c1.15124,-0.46663 2.52856,-0.2217 3.65092,-0.75407l0.03975,0.15838c0,0 0.95751,0.0002 1.34267,-0.76431c0.01655,1.47503 1.5008,1.47547 1.5008,1.47547c1.53599,0 3.07388,-0.01428 4.60966,-0.03916l1.52106,-0.72102c0.43793,-0.10876 0.6944,-0.37651 0.84438,-0.65276c0.18703,-0.26774 0.26607,-0.54663 0.14529,-1.01152c-0.08105,-1.9182 0.6387,-1.99843 2.46922,-2.98716l0.92653,-1.69224c1.23234,0 2.46595,0.00074 3.69829,0.00074c0.71053,0 1.4218,0.00771 2.13229,0.00043c0.49874,-0.00511 1.0022,0.03164 1.49857,-0.00752l-0.05305,0.70253c-0.43665,0.25054 -0.65504,0.68714 -0.65504,0.68714l-0.76464,1.50515c-0.8001,1.9208 -3.28757,2.42537 -4.69194,3.8738c-0.7373,0.76044 -0.64987,2.1161 -1.42118,2.84203c-0.38565,0.36297 -1.05456,0.3281 -1.42069,0.71075c-0.78631,0.82179 -0.89224,2.11776 -1.57736,3.02564c-0.95814,1.26965 -2.35821,2.98861 -3.39606,4.07979c-0.1968,0.20691 -0.49969,0.40217 -0.85623,0.58625c-1.01357,-0.8477 -1.98485,0.12488 -1.98485,0.12488l0.34991,0.27106c-3.47676,0.05634 -5.93825,1.69974 -9.09678,2.95816c-2.32976,0.92822 -5.36432,1.51988 -7.40495,3.01251c-1.49932,1.09668 -2.77445,2.43814 -4.26133,3.5533c-2.09979,1.57484 -4.13802,2.44025 -5.43554,4.81005c-0.40314,0.80627 -0.4833,1.83455 -1.13973,2.45236c-0.38565,0.36297 -1.05396,0.32813 -1.42009,0.71078c-0.78631,0.82179 -0.88759,2.12092 -1.57657,3.02587c-0.83318,1.09435 -2.06051,2.03544 -2.37315,3.37486c-0.16151,0.69193 0.12787,1.43264 -0.00042,2.13149c-0.27007,1.47117 -1.81123,2.77008 -2.1303,4.26342c-0.25234,1.18101 -0.46363,2.26849 -0.69204,3.45435c-1.03417,5.36923 -0.03394,11.92207 -0.03394,17.39884c0.01242,1.52068 0.47706,3.00643 0.73456,4.5052c0.86082,5.01042 0.00756,11.01264 0.00756,16.13057c0,3.59787 0.03281,6.94281 0.74278,10.34018c0.31565,1.51045 -0.0489,3.09458 -0.0489,4.63766c0,3.78947 -0.01217,7.58579 -0.01217,11.37526c0.02144,1.32279 0.52639,2.59368 0.74949,3.8977c0.48669,2.84474 0.124,5.73425 0.70767,8.52725c0.42292,2.02378 -0.39756,4.34171 -0.00202,6.39529c0.7111,3.69191 1.38905,7.65898 2.13096,11.36857c0.71747,3.58733 0.44031,7.93384 2.10891,11.27103c0,4.97132 2.50552,9.8442 4.33661,14.44006c0.65097,1.63389 1.1812,4.12802 2.45612,5.46047c0.36613,0.38265 1.03474,0.34773 1.4204,0.7107c0.71462,0.67259 0.68072,1.8698 1.26457,2.65859c1.36386,1.84258 3.12842,3.3863 4.13714,5.47833c0,0 0.61906,1.23986 1.85869,0.7402c0.84875,0.44553 1.83578,0.70827 3.03359,0.80016c0.18279,-0.0041 0.4447,0.11428 0.68366,0.14063c-0.93165,0.40854 -2.01609,0.35903 -3.02359,0.52613c-3.03249,0.50296 -6.3303,0.15171 -9.34565,0.7325c-2.04511,0.39391 -4.1608,1.03448 -6.29358,1.4009c-5.94047,1.02061 -12.89674,-0.0188 -18.95353,-0.0188c-2.88207,0.00004 -5.40647,0.39392 -8.22648,0.71984c-6.28762,0.72667 -13.16193,-0.03483 -19.49735,-0.01163c-2.32123,0.0085 -5.12298,0.22755 -7.44039,0.6396c0.60525,-1.23986 1.15644,-3.13552 1.70551,-4.23797z" data-paper-data="{&quot;noHover&quot;:false,&quot;origItem&quot;:[&quot;Path&quot;,{&quot;applyMatrix&quot;:true,&quot;segments&quot;:[[[69.14161,244.81842],[0.60525,-1.23986],[2.31741,-0.41205]],[[76.57895,244.17773],[-2.32123,0.0085],[6.33542,-0.0232]],[[96.06711,244.18737],[-6.28762,0.72667],[2.82002,-0.32591]],[[104.28947,243.46721],[-2.88207,0.00004],[6.05679,0]],[[123.23341,243.48658],[-5.94047,1.02061],[2.13278,-0.36643]],[[129.52379,242.08628],[-2.04511,0.39391],[3.01535,-0.58079]],[[138.86499,241.355],[-3.03249,0.50296],[1.0075,-0.1671]],[[141.88716,240.82935],[-0.93165,0.40854],[-0.23897,-0.02635]],[[141.23684,240.783],[0.18279,-0.0041],[-1.19781,-0.09189]],[[138.20201,239.98325],[0.84875,0.44553],[-1.23963,0.49966]],[[136.34257,239.24329],[0,0],[-1.00872,-2.09202]],[[132.20419,233.76532],[1.36386,1.84258],[-0.58385,-0.78878]],[[130.93934,231.10681],[0.71462,0.67259],[-0.38565,-0.36297]],[[129.51829,230.39629],[0.36613,0.38265],[-1.27493,-1.33245]],[[127.06155,224.93597],[0.65097,1.63389],[-1.83109,-4.59587]],[[122.72434,210.49605],[0,4.97132],[-1.66859,-3.33718]],[[120.59276,199.12763],[0.71747,3.58733],[-0.74192,-3.70959]],[[118.46118,187.7592],[0.7111,3.69191],[-0.39554,-2.05357]],[[118.46118,181.36447],[0.42292,2.02378],[-0.58367,-2.793]],[[117.75065,172.83815],[0.48669,2.84474],[-0.2231,-1.30402]],[[117,168.94089],[0.02144,1.32279],[0,-3.78947]],[[117,157.57247],[0,3.78947],[0,-1.54308]],[[117.04013,152.94341],[0.31565,1.51045],[-0.70997,-3.39737]],[[116.28947,142.65142],[0,3.59787],[0,-5.11794]],[[116.30884,126.54959],[0.86082,5.01042],[-0.2575,-1.49877]],[[115.57895,122.04615],[0.01242,1.52068],[0,-5.47676]],[[115.61907,104.64889],[-1.03417,5.36923],[0.22841,-1.18587]],[[116.3296,101.09626],[-0.25234,1.18101],[0.31907,-1.49333]],[[118.46118,96.8331],[-0.27007,1.47117],[0.12829,-0.69885]],[[118.46118,94.70152],[-0.16151,0.69193],[0.31265,-1.33942]],[[120.83577,91.32698],[-0.83318,1.09435],[0.68898,-0.90495]],[[122.41302,88.30128],[-0.78631,0.82179],[0.36613,-0.38265]],[[123.83408,87.59076],[-0.38565,0.36297],[0.65643,-0.61782]],[[124.97415,85.13849],[-0.40314,0.80627],[1.29752,-2.3698]],[[130.41241,80.32929],[-2.09979,1.57484],[1.48688,-1.11516]],[[134.67557,76.77666],[-1.49932,1.09668],[2.04062,-1.49263]],[[142.08387,73.7656],[-2.32976,0.92822],[3.15853,-1.25842]],[[151.18421,70.80931],[-3.47676,0.05634],[0,0]],[150.83408,70.53813],[[152.81975,70.41372],[-1.01357,-0.8477],[0.35654,-0.18408]],[[153.67618,69.8276],[-0.1968,0.20691],[1.03785,-1.09118]],[[157.07261,65.74804],[-0.95814,1.26965],[0.68512,-0.90787]],[[158.64987,62.72234],[-0.78631,0.82179],[0.36613,-0.38265]],[[160.07092,62.01181],[-0.38565,0.36297],[0.7713,-0.72593]],[[161.49197,59.1697],[-0.7373,0.76044],[1.40437,-1.44843]],[[166.18468,55.29639],[-0.8001,1.9208],[0,0]],[166.8952,53.87533],[[167.55017,53.18815],[-0.43665,0.25054],[0,0]],[[167.60335,52.4857],[0,0],[-0.49637,0.03916]],[[166.10526,52.49352],[0.49874,-0.00511],[-0.71049,0.00728]],[[163.97368,52.49352],[0.71053,0],[-1.23234,0]],[[160.27668,52.49352],[1.23234,0],[0,0]],[[159.35013,54.18576],[0,0],[-1.83052,0.98873]],[[156.92961,57.08559],[-0.08105,-1.9182],[0.12078,0.46489]],[[156.73576,58.18453],[0.18703,-0.26774],[-0.14998,0.27625]],[[155.89156,58.83739],[0.43793,-0.10876],[0,0]],[[154.37095,59.55866],[0,0],[-1.53579,0.02489]],[[149.76316,59.59879],[1.53599,0],[0,0]],[[148.2633,58.12376],[0.01655,1.47503],[-0.38516,0.7645]],[146.92105,58.88826],[[146.88135,58.7299],[0,0],[-1.12236,0.53236]],[[143.23192,59.4846],[1.15124,-0.46663],[-0.62083,0.25164]],[[141.81087,60.90566],[0.62298,-0.24628],[-1.2863,0.5085]],[[137.32382,62.00155],[1.18069,-1.25448],[-0.09052,0.09618]],[[137.05139,62.28814],[0.0911,-0.09488],[0.00082,0.02419]],[[137.05263,62.36194],[0,-0.02502],[0,1.5]],[135.55263,63.86194],[[135.45163,63.86194],[0,0],[-1.25183,1.16291]],[[131.45601,67.13144],[1.42447,-1.03311],[-1.59803,1.15899]],[[128.01902,70.59172],[1.83723,-0.95548],[-0.50013,0.78108]],[[126.38564,72.82358],[0.58277,-0.71179],[0.00597,0.06239]],[[126.39474,73.01984],[0,-0.0685],[0,1.42929]],[[124.90442,74.51968],[0.1284,-0.00318],[-1.9818,2.15307]],[[119.00634,81.00217],[1.75699,-2.32822],[-4.05875,5.37833]],[[107.48171,97.52787],[4.86071,-4.89372],[0,0]],[[105.36039,97.52787],[1.06066,1.06066],[-0.18289,-0.18289]],[[104.98462,96.98463],[0.07306,0.17745],[0.06285,0.83764]],[[105.06771,99.49259],[0.11551,-0.82533],[-0.35564,2.54103]],[[104.36842,106.41458],[0,-2.5762],[0,0]],[[102.86842,107.91458],[1.5,0],[-1.5,0]],[[101.36842,106.41458],[0,0],[0,-2.65635]],[[102.09019,99.12604],[-0.38066,2.60766],[0.21304,-1.4594]],[[102.11907,94.70152],[-0.28904,1.44627],[0.24312,-1.21653]],[[103.51937,91.25325],[-0.19797,1.22469],[0.4359,-2.69656]],[[103.54013,82.62258],[-0.04437,2.73825],[0,0]],[[104.21936,81.19058],[0,0],[0.07629,-0.35638]],[[104.7264,80.41145],[-0.21393,0.16987],[0.19456,-0.18411]],[[105.54831,80.02132],[-0.35338,0.03044],[5.12982,-1.75555]],[[119.92105,72.94089],[-5.79063,0.09384],[0,0]],[119.57092,72.6697],[[121.36688,72.40677],[-0.9418,-0.59122],[0.33956,-0.88693]],[122.76316,71.51984],[[123.50966,71.51984],[0,0],[0.89509,-1.00944]],[[126.03361,68.34269],[-0.7729,1.12168],[1.9445,-0.92931]],[[129.70188,64.69771],[-1.82391,1.40835],[0.21555,-0.16644]],[[130.30842,64.15349],[-0.1914,0.1935],[-3.8602,0.58468]],[[119.17082,67.96674],[3.62436,-1.81218],[0,0]],[[117.26775,67.48863],[0.69685,1.08122],[0,0]],[[116.53496,67.84196],[0,0],[-1.88572,1.84905]],[[110.54771,70.85303],[2.38526,-0.95595],[-3.12508,1.25245]],[[101.40766,75.07201],[3.02072,-1.51036],[0,0]],[[101.37465,75.08717],[0.02147,-0.0094],[-0.27524,0.14151]],[[100.29352,75.19474],[0.42068,0.14428],[-0.27302,-0.07188]],[[99.51552,74.61064],[0.22646,0.3431],[-0.25388,-0.32334]],[[99.20742,73.68786],[-0.01814,0.28174],[-0.00384,-0.44472]],[[99.65135,72.69623],[-0.22129,0.21636],[0.01571,-0.0174]],[[99.67618,72.6697],[0,0],[1.88496,-1.60721]],[[100.69802,67.70152],[-0.46058,2.39127],[0.63904,-3.31777]],[[103.18017,58.44218],[-1.37442,3.10047],[-0.3907,-0.44215]],[[102.78947,57.38826],[0,0],[0.04839,-2.15483]],[[102.07895,51.70405],[0.03634,2.24247],[0,0]],[102.07895,51.03879],[[101.792,51.03234],[0,0],[-1.98065,1.07149]],[[95.72345,53.75622],[1.99869,-1.00572],[0,0]],[[95.13158,53.91576],[0.34002,-0.03361],[0,3.88711]],[[95.13158,65.91458],[0,-3.5603],[0,0]],[[94.9584,66.63517],[0.17318,-0.36495],[0,0]],[[94.97322,66.66481],[0,0],[1.27834,2.69508]],[[96.53326,74.91114],[-0.41671,-2.89367],[1.12264,7.79564]],[[96.51251,99.65394],[1.6058,-7.68408],[-0.46403,2.22047]],[[95.68375,105.66434],[1.04423,-2.20151],[0,0]],[[94.94269,106.39697],[0.49404,-0.23859],[0.01007,0.01918]],[[94.97322,106.45428],[-0.01029,-0.01902],[0,0]],[[94.3024,108.46674],[1.34164,-0.67082],[-1.34164,0.67082]],[[92.28994,107.79592],[0,0],[-1.04423,-2.20151]],[[91.46118,101.78552],[0.46403,2.22047],[-0.48802,-2.33528]],[[89.3296,94.68026],[0.4721,2.36049],[-0.12444,-0.62222]],[[89.40365,92.77807],[0.23059,0.59116],[-0.43033,-1.10325]],[[87.27208,89.93597],[0.45147,1.09478],[-1.74085,-4.22146]],[[80.17128,80.04569],[4.29343,2.07018],[-0.23688,-0.11844]],[[77.12293,78.49986],[0.10726,0.08155],[-0.4454,-0.33866]],[[76.00492,77.24776],[0.52128,0.20333],[-0.59116,-0.23059]],[[74.10274,77.32182],[0.62321,0.11936],[-3.11865,-0.59729]],[[65.21053,75.94089],[3.33288,0],[0,0]],[[65.10394,75.94089],[0,0],[-0.12805,0.20348]],[[64.46029,76.49306],[0.31233,-0.15616],[-1.34164,0.67082]],[[62.44783,75.82224],[0,0],[-0.82502,-1.98062]],[[59.48749,71.94341],[0.66296,2.55009],[-1.67346,-6.43703]],[[58.73684,50.99352],[0,6.76557],[0,0]],[58.73684,48.86194],[[59.47723,47.53217],[-0.74039,0.39292],[0,0]],[[59.48749,47.07499],[0,0],[-0.10623,-1.32535]],[[57.02884,47.47971],[0.54485,-0.10494],[-1.3954,0.26877]],[[52.76568,47.47971],[1.391,-0.29069],[-1.59561,0.33345]],[[48.23684,48.18143],[1.57024,-0.1047],[0,3.37049]],[[48.23684,58.80931],[0,-3.09087],[0,7.69435]],[[54.34844,79.95856],[-4.74902,-6.23766],[1.6867,2.21542]],[[59.84262,85.73036],[-1.62706,-2.06707],[0,0]],[[60.94737,85.73036],[0,0],[2.41121,0.01969]],[[66.97621,87.19154],[-2.17152,-0.41589],[0.69784,0.13365]],[[69.10779,87.19154],[-0.69484,-0.14846],[2.09612,0.44786]],[[76.74549,90.98719],[-1.70622,-1.30739],[1.0023,0.76801]],[[79.06066,93.98549],[-0.89287,-0.89287],[0.89287,0.89287]],[[82.05897,96.30067],[-0.76801,-1.0023],[0.93911,1.22559]],[[84.31532,100.77007],[-0.69319,-1.38638],[0,0]],[[84.36542,100.8902],[-0.02808,-0.0761],[0,0]],[[85.18421,102.15142],[0,0],[-0.07467,0.44766]],[[84.96019,103.4944],[-0.22856,-0.39209],[0.26671,0.45754]],[[86.38124,104.20493],[-0.23242,-0.47587],[0.37773,0.77339]],[[86.56514,106.78047],[-0.17808,-0.84208],[0.21914,1.03627]],[[87.98619,109.62258],[-0.21344,-1.03746],[0.55551,2.70022]],[[88.02632,118.49352],[0,-2.76226],[0,15.09192]],[[87.31579,163.25668],[0,-15.09749],[0,2.45542]],[[86.58589,169.89169],[0.40423,-2.3528],[-0.70796,4.12069]],[[85.87537,182.68116],[0.60441,-4.13935],[-0.37182,2.54642]],[[85.87537,190.49695],[0.37959,-2.55347],[-0.19267,1.29607]],[[84.43356,194.15394],[0.25723,-1.28482],[-0.39906,1.9932]],[[84.45432,200.44432],[0.32794,-2.02336],[-0.48437,2.98856]],[[83.03326,208.97064],[-0.02317,-3.05539],[-1.26726,3.87937]],[[80.11735,220.6192],[1.31679,-3.92146],[-0.44643,1.3295]],[[78.03882,224.70657],[0.25059,-1.36507],[-0.12829,0.69885]],[[78.03882,226.83815],[0.14846,-0.69484],[-0.92016,4.30662]],[[71.52585,239.95382],[1.97587,-3.95175],[0,0]],[[70.81071,240.67358],[0.47676,-0.24301],[-0.54907,1.10245]]],&quot;closed&quot;:true}]}" fill="#5c1f00"/></g><g stroke="none" stroke-width="0.5"><path d="M379.52977,239.48281c-1.08064,0.19144 -0.87774,1.76221 -0.87774,1.76221l0.11946,0.02137c-0.25078,1.67419 -1.18517,3.3828 -2.24823,3.31548c-1.01001,0.20334 -3.16829,0.15172 -3.34975,2.45312c-0.21172,2.68518 2.64648,4.23997 3.98237,4.41061c2.76048,0.35262 5.56421,-1.03847 8.2862,-0.70686c6.31988,0.76993 12.52289,-0.65335 18.87364,-1.77841c4.12313,-0.73051 8.22471,-0.69596 12.38126,-1.43231c3.05944,-0.54199 6.43409,-1.84111 9.53694,-1.71343c1.43403,0.05901 5.30388,1.31325 6.22674,-1.08011c0.3281,-0.8509 -0.50895,-1.90912 -0.80928,-2.83834c-0.59926,-1.85413 -1.42262,-3.38332 -2.25332,-5.03201c0,0 -0.23623,-0.46883 -0.61257,-0.66246c-1.40667,-2.7918 -2.81334,-5.58359 -4.22001,-8.37538c-0.54573,-1.0831 -1.6606,-2.632 -1.98299,-3.86575c-0.18695,-0.71545 -0.08738,-1.52346 -0.28833,-2.23214c-0.45476,-1.60383 -1.60718,-2.84304 -2.17429,-4.36955c-1.39725,-3.76108 -2.08463,-7.55525 -3.49419,-11.25808c-0.43466,-3.24052 -1.39809,-5.66406 -2.17706,-8.7472c-0.54345,-2.15096 -0.30706,-4.65541 -0.89404,-6.80306c-0.3397,-1.24289 -1.1889,-2.16617 -1.47523,-3.43224c-0.5949,-2.63051 -0.4527,-5.54931 -1.05719,-8.18452c-0.17513,-0.76347 -0.609,-1.38467 -0.8002,-2.14146c-0.89258,-3.53275 -0.5691,-7.60695 -1.44163,-11.16071c-0.57017,-2.32226 -1.01094,-3.88339 -1.3304,-6.35661c-2.04233,-15.81121 -4.52556,-30.98224 -6.56671,-46.78429c-0.3435,-2.65927 -1.14248,-5.90233 -1.13559,-8.56256c0.00289,-1.11478 0.63934,-2.04249 0.63933,-3.15755c-0.00001,-0.59571 -0.47964,-1.18403 -0.36075,-1.74376c0.11126,-0.52385 0.83544,-0.39237 0.92765,-0.92541c0.13602,-0.78623 -0.04534,-1.63168 -0.16315,-2.46527c0.06963,-0.09233 0.12612,-0.19364 0.17119,-0.29072l0.00109,0.00149c0,0 0.03973,-0.07976 0.08439,-0.21473c0.04599,-0.13395 0.06531,-0.22936 0.06531,-0.22936c0.28513,-1.40819 0.45292,-3.19912 0.897,-4.50443c0.34706,-1.02013 1.21388,-1.46393 1.6715,-2.38268c0.45762,-0.91875 0.4832,-2.26658 1.04007,-3.06123c0.91125,-1.30035 3.0612,-3.74069 4.28756,-4.30462c0.48612,-0.22353 1.05396,-0.03212 1.53564,-0.27205c1.429,-0.71178 2.02675,-1.86303 3.65998,-2.12754l0.07679,-0.0136c0.11978,0.19674 0.29226,0.3724 0.53839,0.49607c1.05729,0.53124 1.35909,-0.95931 1.35909,-0.95931c0.00102,-0.00681 0.00207,-0.01358 0.00315,-0.02035c0.2166,-0.18138 0.43621,-0.50253 0.45934,-1.06368c0.21527,-0.3213 0.45901,-0.62245 0.63514,-0.97606c0.88086,-1.76846 1.75746,-3.8741 2.48623,-5.96461c2.70605,-7.76242 2.84151,-16.09888 1.71291,-24.83618c-0.48054,-3.72023 -0.96108,-7.44047 -1.44163,-11.16071l-0.19222,-1.48809c-0.07046,-0.54552 -0.2468,-0.87849 -0.44697,-1.08076c-0.19183,-0.21899 -0.46126,-0.36506 -0.83657,-0.29857c-1.55005,0.2746 -2.48478,0.12359 -3.93745,-0.02056c-1.04164,-0.10336 -2.02985,0.67097 -3.07128,0.54409c-1.1519,-0.14033 -2.55498,-0.9181 -3.44705,0.04656c-0.51613,0.55814 -0.45153,1.75982 -0.67729,2.63973l0.30603,2.59815c0,0 0.12329,0.95449 0.68954,1.28469l0.11067,0.85677c0.92409,7.15408 1.88663,14.29781 2.25755,21.30204c0.02546,0.48084 -0.33946,1.20493 -0.7233,1.93775c-0.02839,0.00215 -0.04434,0.00497 -0.04434,0.00497l-1.02376,0.18136c-2.57183,0.45561 -4.41173,1.61065 -6.70509,2.75296c-0.53379,0.26588 -1.20573,-0.02525 -1.69089,0.37887c-0.79092,0.65881 -1.87462,2.70502 -2.75061,3.5789c-3.1794,3.24854 -3.89548,7.62354 -4.60034,13.05329c-0.15727,1.21149 -0.97771,2.04277 -1.15121,3.24823c-0.11536,0.80151 0.27282,1.65359 0.26601,2.48181c-0.01134,1.37828 -0.55626,2.63308 -0.54406,4.01353c0.00129,0.14643 0.00474,0.29536 0.01005,0.44651c-1.85243,-7.35531 -2.69642,-16.12621 -2.93467,-23.76801c-0.08048,-2.5814 -0.6354,-5.44053 -0.07533,-7.89728l0.31967,-1.57878c0,0 0.28344,-1.39988 -0.66135,-1.96988c-0.51905,-4.01832 -1.03809,-8.03665 -1.55714,-12.05497l-0.19222,-1.48809c0,0 -0.2029,-1.57077 -1.28353,-1.37933c-0.48167,0.08533 -0.70834,0.4447 -0.81163,0.81686c-1.6052,-0.75928 -3.23814,-1.2935 -4.85368,-2.05347l-1.78935,0.27401c0,0 -1.08064,0.19144 -0.87774,1.76221c0.04077,0.31566 0.11699,0.56015 0.21277,0.74934c-0.06569,0.38933 -0.02055,0.73875 -0.02055,0.73875l0.09611,0.74405c0.25409,1.7522 0.10027,3.01302 0.15055,4.59611c-0.54107,0.4877 -0.40545,1.53763 -0.40545,1.53763l0.30093,1.4263c0.55043,1.09242 1.65123,2.62425 1.98299,3.86575c0.71305,2.6683 0.85358,5.60017 1.49903,8.17971c-1.46439,-0.6952 -2.93311,-1.34429 -4.42555,-1.90409c-1.7624,-0.66105 -2.74925,-0.47784 -4.23831,-2.11248l-1.28533,-0.66703c0,0 -0.94784,-0.47625 -1.30481,0.7383c-3.96011,-1.9391 -7.94306,-3.07499 -11.96557,-2.36239l-0.44216,0.07833c-0.14032,-0.34417 -0.24128,-0.74244 -0.46215,-0.96968c-1.50631,-1.54972 -2.7605,-0.59207 -4.16995,-1.13171c-0.4813,-0.18428 -0.73386,-1.12835 -1.21598,-1.30673c-0.84433,-0.3124 -1.76093,0.19612 -2.5798,-0.25673l-1.01658,0.01047c0,0 -1.06861,0.18931 -0.88102,1.73604c-0.38089,-0.75142 -1.0704,-0.62927 -1.0704,-0.62927c-0.94105,0.16671 -1.88073,0.34475 -2.81758,0.54212l-0.25453,-0.14076c-0.4105,-2.18158 -0.93079,-3.22057 -2.56395,-4.03133c0.23011,-0.25074 0.42441,-0.68592 0.32782,-1.43369c-0.2029,-1.57077 -1.28353,-1.37933 -1.28353,-1.37933c-2.21447,0.3923 -5.9822,0.02634 -7.92107,1.44623c-0.64,0.46869 -1.42792,1.06854 -1.57125,2.09507c-0.12744,0.9127 0.61175,1.72414 0.91763,2.58621l-0.01261,0.80584c0,0 0.18231,1.41137 1.12171,1.39537l0.2991,0.59362c1.27425,2.35094 2.83768,2.58874 4.41497,4.20188c0.65165,0.66646 0.77714,2.08688 1.40819,2.79483c0.31553,0.35397 0.79294,0.23181 1.11987,0.56268c0.60581,0.61311 0.74154,1.87391 1.27083,2.6225c0.79319,1.12185 2.39746,3.27009 3.27342,4.1832c0.89902,0.93715 2.62952,1.40549 3.67847,1.93254c0,0 0.88029,0.4423 1.26368,-0.61265c1.59089,0.22006 3.10819,1.26784 4.73104,1.8812c1.57106,0.59378 3.83176,0.74902 5.26207,1.93112c1.22183,1.00979 2.32182,2.19175 3.55183,3.17614c1.24314,0.9949 2.98464,1.5666 3.75127,3.317c0.9567,1.89874 1.56867,2.50069 2.78322,3.72988c0.60581,0.61311 0.74352,1.87102 1.27083,2.6225c0.34272,0.48842 1.44857,1.24331 1.67299,2.1776c0.86035,3.58184 2.41698,6.56892 3.39304,10.05393c0.50913,1.81785 0.54256,4.42926 0.78945,6.34066c0.48054,3.72023 0.96108,7.44047 1.44163,11.16071c0.19407,1.42294 0.02137,2.86666 0.04622,4.30088c0.10889,6.28502 1.70728,13.32782 2.51736,19.5993c0.36851,2.8529 0.53641,5.20974 0.5276,7.90919c-0.01802,5.52069 1.51452,11.95396 2.2282,17.47909c0.1654,1.14056 -0.06835,2.29341 -0.04905,3.44491c0.04044,2.41311 0.99513,5.04887 0.96108,7.44047c-0.00793,0.55668 -0.31784,1.02143 -0.31966,1.57878c-0.00718,2.20094 0.89592,4.52319 0.86498,6.69642c-0.0565,3.96841 0.03475,8.20454 0.00209,12.1768c-0.03165,3.84896 0.75097,8.47821 0.00209,12.1768c0.65695,5.08594 -0.43593,10.24721 -1.1268,15.17536c-0.15191,1.08366 -0.16943,3.94386 -0.69446,4.92928c-0.90187,1.69269 -1.83494,3.83981 -2.61646,6.08152c-0.00167,0.00029 -0.00335,0.00058 -0.00502,0.00088zM429.41411,242.74797c-1.72526,-0.13573 -3.77127,-0.00906 -5.4447,0.27829c-4.56733,0.78427 -9.41041,2.45577 -14.03846,2.49728c-2.0757,0.01862 -3.94469,-0.07254 -6.02101,0.29525c-4.36346,0.773 -9.22735,2.74862 -13.64507,2.43802c-1.58607,-0.11151 -3.19453,-0.51206 -4.72116,-0.66354c-2.25089,-0.22335 -4.57583,0.56606 -6.82855,0.42639c-0.74843,-0.0464 -1.5219,0.14417 -2.24835,-0.16474c0.16859,-0.05809 0.32999,-0.1125 0.46224,-0.13153c0.8505,-0.2491 1.527,-0.64993 2.07819,-1.22479c0.96064,0.36503 1.2395,-1.01219 1.2395,-1.01219c0.44373,-2.31946 1.5071,-4.161 2.24042,-6.26457c0.31393,-0.90051 0.12777,-2.14984 0.55163,-2.94536c0.22874,-0.42931 0.71564,-0.47798 0.92766,-0.92541c0.73826,-1.55803 0.78334,-4.23741 1.03131,-6.03147c0.69751,-5.04638 1.84388,-10.46885 1.17144,-15.67471c0.75069,-3.70758 -0.03374,-8.32865 -0.00209,-12.1768c0.03273,-3.97929 -0.015,-8.21996 -0.00209,-12.1768c0.00718,-2.20094 -0.89592,-4.52319 -0.86498,-6.69642c0.0427,-2.99926 -0.60725,-5.97819 -0.64142,-9.01925c-0.01566,-1.39401 0.17712,-2.78899 0.01363,-4.17693c-0.51258,-3.96825 -1.02516,-7.9365 -1.53773,-11.90475c-0.20872,-1.61587 -0.67814,-3.22033 -0.65505,-4.84232c0.05194,-3.64826 -0.36468,-7.10574 -0.85135,-10.87335c-0.69227,-5.35939 -2.13438,-11.50233 -2.19194,-16.859c-0.01722,-1.60235 0.11343,-3.21504 -0.08332,-4.80904c-0.74081,-5.73514 -0.91082,-12.72234 -2.38213,-18.2129c-0.32496,-1.21266 -0.65089,-2.42504 -0.99242,-3.62956c-0.43186,-1.52307 -1.71873,-2.68612 -2.11229,-4.19223c-0.18695,-0.71545 -0.07838,-1.52819 -0.28833,-2.23214c-0.40642,-1.36271 -1.4189,-2.19103 -2.16717,-3.23068c-0.61877,-0.85971 -0.86793,-2.20694 -1.54556,-2.96715c-0.31553,-0.35397 -0.79294,-0.23182 -1.11987,-0.56269c-0.55648,-0.56318 -0.75355,-1.62959 -1.15304,-2.42245c-1.25531,-2.316 -2.84261,-2.96087 -4.56837,-4.34202c-1.22202,-0.978 -2.32334,-2.21907 -3.55183,-3.17614c-1.67202,-1.30261 -3.94044,-1.53294 -5.74442,-2.20762c-2.4457,-0.91468 -4.44363,-2.31905 -6.95599,-1.93432l0.21556,-0.32867c0,0 -0.83182,-0.8939 -1.44735,0.12315c-0.28176,-0.14727 -0.52651,-0.31291 -0.69628,-0.50447c-0.89529,-1.0102 -2.13669,-2.6313 -2.99869,-3.83856c-0.61638,-0.86326 -0.86793,-2.20694 -1.54556,-2.96715c-0.31553,-0.35397 -0.79294,-0.23181 -1.11987,-0.56268c-0.65386,-0.66174 -0.77416,-2.09261 -1.40819,-2.79483c-1.20766,-1.33754 -3.06844,-1.54784 -3.90466,-3.45714l-0.7041,-1.39741c0,0 -0.21635,-0.42938 -0.56481,-0.63601l-0.13333,-0.72881c0.3629,-0.02234 0.72032,-0.12469 1.08032,-0.183c0.51284,-0.08306 1.02376,-0.18136 1.53564,-0.27205c0.88781,-0.15728 1.77561,-0.31456 2.66342,-0.47183l0.8964,1.65382c1.45249,0.80175 1.93498,0.70867 2.13605,2.72771c-0.02413,0.50224 0.11735,0.86955 0.2883,1.12604c0.14542,0.27015 0.36628,0.51792 0.69649,0.57593l1.19305,0.56122c1.10978,-0.16995 2.21843,-0.35002 3.32499,-0.54606c0,0 1.06861,-0.18931 0.88102,-1.73604c0.38089,0.75142 1.07039,0.62927 1.07039,0.62927l0.00719,-0.1709c0.88059,0.41423 1.83872,-0.01717 2.73122,0.32455c0.4813,0.18428 0.73386,1.12834 1.21598,1.30673c0.99546,0.36832 2.36053,-0.58805 3.38081,0.57493c0.07823,0.08916 0.15657,0.17761 0.23503,0.26534c0.00268,0.02544 0.00571,0.05125 0.00909,0.07744c0.2029,1.57077 1.28353,1.37933 1.28353,1.37933l0.07276,-0.01289c1.05915,1.05801 2.15483,2.01374 3.32079,2.9138c1.30803,1.00972 1.49132,2.4188 2.94415,3.18488c0.46596,0.75411 0.96249,1.45769 1.47862,2.12868c0.00414,0.0661 0.01073,0.13495 0.02,0.20669c0.19333,1.49673 1.18361,1.39346 1.27653,1.3804c1.71897,2.00171 3.54527,3.82175 5.12597,6.03556c3.65151,5.11406 6.37423,11.33026 10.53795,15.8345c0,0 0.9076,0.97533 1.52826,-0.27074c0.10702,-0.21486 0.1686,-0.42167 0.19723,-0.61682c0.06802,0.88518 0.08452,1.78735 0.27938,2.63688c0.59992,2.61552 1.09161,4.46157 1.44008,7.1593c0,0 0.2029,1.57077 1.28353,1.37933c1.08064,-0.19144 0.87774,-1.76221 0.87774,-1.76221c-0.35931,-2.78167 -0.8789,-4.85818 -1.50585,-7.54028c-0.35088,-1.50106 -0.21543,-3.15195 -0.61929,-4.62956c-0.3397,-1.24289 -1.16696,-2.17505 -1.47523,-3.43224c-0.67878,-2.76814 -0.78002,-6.17343 -1.18237,-9.0352l-0.68304,-1.41287c-0.10317,-0.36346 -0.29357,-0.60059 -0.47067,-0.75117c-0.16507,-0.16796 -0.3862,-0.31686 -0.6449,-0.30363c-3.93311,-1.18367 -7.1278,-6.22091 -11.31221,-5.58014l0.21556,-0.32867c0,0 -0.73089,-0.78544 -1.32942,-0.04613c-0.3646,-0.88544 -1.12588,-0.75057 -1.12588,-0.75057l-0.5378,0.09527c-0.78139,-0.94282 -1.53953,-1.92896 -2.24807,-3.00492c-1.52657,-0.72499 -1.63126,-2.10676 -3.13575,-3.34877c-0.1778,-0.14678 -0.34652,-0.31428 -0.51058,-0.49248c2.86007,0.1196 5.6834,1.13659 8.5396,2.5717c0,0 0.95056,0.47762 1.30635,-0.74355l0.57572,0.27648c1.60863,1.69562 2.87295,1.69236 4.72065,2.38899c2.4208,0.91269 4.7749,2.05542 7.1554,3.25151c0,0 0.00909,0.00457 0.02583,0.01167c0.21743,0.11306 0.50986,0.17944 0.79342,-0.02533c0.18697,-0.11012 0.36475,-0.32276 0.48149,-0.71095c0.13917,-0.371 0.14832,-0.71293 0.09714,-1.00565c-0.05738,-0.46619 -0.26526,-0.78343 -0.45395,-0.98176c-0.01367,-0.01622 -0.02148,-0.0246 -0.02148,-0.0246c-1.57537,-1.44247 -0.7529,-2.62685 -1.40817,-5.07215c-0.90915,-3.39273 -1.63111,-6.30805 -3.04066,-9.37939c0.22166,-0.51287 0.13891,-1.15351 0.13891,-1.15351c-0.32633,-2.25031 0.02016,-3.69016 -0.25698,-6.04306l-0.08999,-0.69665l0.20585,-0.04337c1.57185,0.86925 3.16443,1.27979 4.74038,2.07787c0,0 0.19847,0.09972 0.44798,0.09153c0.52578,4.07049 1.14142,8.83662 1.623,12.56489c0,0 0.04811,0.37243 0.22223,0.73249l-0.00667,0.03292c-0.5564,2.98538 -0.09966,5.75111 -0.00847,8.83448c0.24569,8.3067 1.16552,18.0658 3.36176,25.90745c0.63465,2.26601 0.35998,4.01609 1.41005,6.18819c0,0 0.24479,0.48582 0.63298,0.67262c-0.00466,0.02137 -0.00941,0.04267 -0.01425,0.06391c0,0 -0.3018,1.49055 0.75549,2.02179c1.05729,0.53124 1.35909,-0.95931 1.35909,-0.95931c0.45451,-2.43864 -0.24988,-4.01527 -0.21593,-6.39973c0.0357,-2.50774 0.55374,-5.18041 0.57456,-7.71252c0.00549,-0.66746 -0.3968,-1.33399 -0.31065,-1.98247c0.16079,-1.21023 0.97405,-2.04419 1.15121,-3.24823c0.68315,-4.6428 0.96472,-8.54733 3.77779,-11.26312c0.15463,-0.15426 1.92077,-1.90872 1.98701,-2.00781c0.27507,-0.41149 0.28804,-1.1744 0.63608,-1.45385c0.3947,-0.31691 0.94756,0.03931 1.38039,-0.16522c2.16596,-1.02349 3.8183,-2.15559 6.21939,-2.58095l0.07678,-0.0136c0.11978,0.19674 0.29226,0.3724 0.53839,0.49607c1.05729,0.53124 1.35909,-0.95932 1.35909,-0.95932c0.32646,-2.17935 1.47537,-1.68462 1.60804,-4.43963c0.33491,-6.95429 -1.37783,-14.94931 -2.29297,-22.03406l-0.28832,-2.23214c0,0 -0.12673,-0.98105 -0.71327,-1.29802l-0.06923,-0.47743c-0.10275,-1.40144 1.4193,0.06966 1.82602,0.11002c1.04164,0.10336 2.02985,-0.67097 3.07129,-0.54409c1.19462,0.14554 2.21221,0.2476 3.35761,0.15683c0.4559,3.5295 1.01948,7.89258 1.43757,11.12927c1.04077,8.05734 1.03536,15.78898 -1.54223,22.92702c-0.91548,2.5352 -2.28485,4.37306 -3.17743,6.7453l-0.79589,0.14099c-1.73443,0.32835 -2.63752,1.58689 -4.14568,2.29955c-0.48467,0.22902 -1.05514,0.0279 -1.53564,0.27204c-1.44951,0.73651 -3.93661,3.36265 -4.98898,4.94948c-0.6182,0.93216 -0.73987,2.38629 -1.26235,3.43524c-0.52247,1.04895 -1.42918,1.65946 -1.8469,2.80706c-0.51078,1.40327 -0.70912,3.42797 -1.02099,4.96823c0,0 -0.0099,0.04892 -0.01984,0.13218l-0.41928,1.42522c0.11435,0.45925 0.45467,0.93799 0.34305,1.37775c-0.13025,0.51316 -0.82458,0.39743 -0.92766,0.92541c-0.16752,0.85808 0.23028,1.81599 0.2159,2.72052c-0.01771,1.11313 -0.6259,2.0439 -0.63933,3.15755c-0.03496,2.8985 0.79738,6.40199 1.17101,9.29457c2.04139,15.80392 4.52457,30.97454 6.56671,46.78429c0.33213,2.57126 0.81385,4.44268 1.42331,6.85488c1.06741,4.22474 1.24649,9.04468 2.24183,13.30217c0.61231,2.6191 0.43833,5.55903 1.05719,8.18452c0.31412,1.33263 1.17427,2.3329 1.53337,3.6455c0.5571,2.0363 0.32597,4.51283 0.83591,6.58979c0.7532,3.06773 1.78047,5.54472 2.17706,8.74721c1.4377,3.90065 2.19724,7.88756 3.67632,11.82597c0.50146,1.33525 1.68512,2.61743 2.0503,4.01493c0.18695,0.71545 0.08738,1.52346 0.28832,2.23214c1.24544,4.39236 4.50818,9.01719 6.46618,12.9032c0,0 0.23622,0.46883 0.61256,0.66246c0.54469,1.08439 1.15936,2.90625 1.76311,4.12735zM380.59051,87.55087c-0.02465,0.04948 -0.04689,0.09854 -0.06687,0.14713c-2.73566,-3.86698 -4.94232,-8.41228 -7.67568,-12.27817c-0.77981,-1.10292 -1.61096,-2.11797 -2.46085,-3.10264c1.67289,-0.20216 2.32648,0.78298 3.92242,2.04232c1.6925,1.33553 4.1959,2.79572 6.08146,3.48093l0.29212,0.54426c0.30969,2.7307 0.4413,5.9776 1.0777,8.63249c-0.32098,-0.16177 -0.79743,-0.21493 -1.17031,0.53368z" fill="#000000"/><path d="M427.63159,238.57417c-0.37634,-0.19363 -0.61244,-0.66255 -0.61244,-0.66255c-1.958,-3.88601 -5.22025,-8.51122 -6.46569,-12.90359c-0.20094,-0.70868 -0.06351,-1.42305 -0.25046,-2.13849c-0.36518,-1.39749 -1.54904,-2.67953 -2.0505,-4.01477c-1.47908,-3.93841 -2.23802,-7.92579 -3.67572,-11.82645c-0.39659,-3.20249 -1.42294,-5.68025 -2.17613,-8.74798c-0.50994,-2.07696 -0.27742,-4.55477 -0.83452,-6.59107c-0.35911,-1.3126 -1.21908,-2.31304 -1.5332,-3.64567c-0.61886,-2.62549 -0.44261,-5.56787 -1.05491,-8.18697c-0.99534,-4.25749 -1.16978,-9.08407 -2.23719,-13.30882c-0.60946,-2.4122 -1.08828,-4.28956 -1.4204,-6.86082c-2.04214,-15.80975 -4.54131,-31.0555 -6.5827,-46.85943c-0.37363,-2.89258 -1.21027,-6.39896 -1.17531,-9.29747c0.01343,-1.11365 0.62152,-2.04448 0.63922,-3.15761c0.01439,-0.90453 -0.40541,-1.76407 -0.23789,-2.62215c0.10307,-0.52798 0.79672,-0.41262 0.92697,-0.92578c0.11162,-0.43976 -0.20674,-1.01691 -0.32109,-1.47616l0.39783,-1.32654c0.00993,-0.08327 0.04139,-0.23081 0.04139,-0.23081c0.31186,-1.54026 0.48872,-3.4663 0.9995,-4.86957c0.41772,-1.1476 1.32349,-1.75862 1.84597,-2.80757c0.52247,-1.04895 0.64384,-2.50326 1.26204,-3.43542c1.05237,-1.58682 3.53715,-4.21447 4.98666,-4.95097c0.4805,-0.24414 1.05014,-0.04363 1.53481,-0.27265c1.50816,-0.71266 2.40948,-1.9726 4.14391,-2.30095l0.79552,-0.1413c0.89258,-2.37224 2.29673,-4.29956 3.2122,-6.83476c2.57758,-7.13804 2.5803,-14.87183 1.53953,-22.92917c-0.41808,-3.23669 -0.98345,-7.60099 -1.43935,-11.13049c-1.1454,0.09077 -2.16429,-0.01209 -3.3589,-0.15762c-1.04143,-0.12688 -2.03082,0.64681 -3.07246,0.54345c-0.40672,-0.04036 -1.92953,-1.51185 -1.82678,-0.11041l0.04955,0.57702c0.58654,0.31697 0.71286,1.29781 0.71286,1.29781l0.28801,2.23198c0.91514,7.08475 2.62436,15.07763 2.28945,22.03192c-0.13267,2.75501 -1.25348,2.16565 -1.57994,4.345c0,0 -0.30235,1.49018 -1.35964,0.95894c-0.24613,-0.12367 -0.41896,-0.29955 -0.53874,-0.4963l-0.07682,0.01358c-2.40109,0.42536 -4.05656,1.55569 -6.22252,2.57918c-0.43283,0.20453 -0.98651,-0.15208 -1.38121,0.16483c-0.34804,0.27945 -0.36124,1.04226 -0.63631,1.45374c-0.06624,0.09909 -1.83344,1.85309 -1.98808,2.00735c-2.81307,2.7158 -3.09628,6.61972 -3.77942,11.26252c-0.17716,1.20404 -0.99107,2.0378 -1.15186,3.24802c-0.08616,0.64848 0.30464,1.41792 0.29915,2.08538c-0.02082,2.5321 -0.53919,5.20467 -0.57489,7.71241c-0.03395,2.38445 0.66926,3.96065 0.21476,6.3993c0,0 -0.28829,1.38835 -1.34558,0.85711c-1.05729,-0.53124 -0.75665,-2.02215 -0.75665,-2.02215c0.00484,-0.02123 0.0096,-0.04253 0.01425,-0.06391c-0.38819,-0.18679 -0.63379,-0.67283 -0.63379,-0.67283c-1.05007,-2.1721 -0.77736,-3.9226 -1.41201,-6.18861c-2.19623,-7.84165 -3.11912,-17.6011 -3.36481,-25.9078c-0.0912,-3.08337 -0.54613,-5.74369 0.01027,-8.72907l0.00497,-0.13833c-0.17412,-0.36006 -0.22236,-0.7325 -0.22236,-0.7325c-0.48158,-3.72827 -1.09797,-8.49443 -1.62376,-12.56492c-0.24951,0.0082 -0.44822,-0.09153 -0.44822,-0.09153c-1.57595,-0.79808 -3.17098,-1.20854 -4.74283,-2.07779l-0.20596,0.04337l0.09,0.69665c0.27714,2.3529 -0.06949,3.79276 0.25684,6.04307c0,0 0.09221,0.7459 -0.12945,1.25878c1.40954,3.07134 2.13012,5.98675 3.03927,9.37948c0.65527,2.4453 -0.16793,3.62971 1.40744,5.07218c0,0 0.00779,0.00839 0.02146,0.0246c0.18869,0.19833 0.39629,0.51556 0.45367,0.98176c0.05118,0.29272 0.03715,0.52915 -0.10202,0.90015c-0.11674,0.38819 -0.29488,0.60084 -0.48185,0.71095c-0.28356,0.20478 -0.57655,0.13842 -0.79398,0.02535c-0.01674,-0.0071 -0.02585,-0.01167 -0.02585,-0.01167c-2.3805,-1.19609 -4.7392,-2.3382 -7.15999,-3.25089c-1.84771,-0.69662 -3.11468,-0.6926 -4.72331,-2.38822l-0.57602,-0.27637c-0.35578,1.22117 -1.30721,0.74388 -1.30721,0.74388c-2.85621,-1.43511 -5.68374,-2.45001 -8.54381,-2.5696c0.16406,0.17821 0.36472,0.44341 0.54253,0.59019c1.50449,1.24201 1.60809,2.6244 3.13466,3.34939c0.70854,1.07596 1.46592,2.0625 2.2473,3.00532l0.53747,-0.09511c0,0 0.76073,-0.13461 1.12533,0.75083c0.59853,-0.73932 1.32863,0.04648 1.32863,0.04648l-0.21538,0.32859c4.18441,-0.64077 7.37202,4.39839 11.30513,5.58207c0.2587,-0.01323 0.47936,0.13572 0.64443,0.30369c0.1771,0.15058 0.3672,0.38775 0.47037,0.7512l0.6826,1.4129c0.40235,2.86177 0.50318,6.26708 1.18196,9.03522c0.30828,1.2572 1.13434,2.18939 1.47405,3.43229c0.40386,1.47761 0.26799,3.1285 0.61887,4.62956c0.62695,2.6821 1.14505,4.75856 1.50436,7.54023c0,0 0.20022,1.46533 -0.88042,1.65676c-1.08064,0.19144 -1.2851,-1.3793 -1.2851,-1.3793c-0.34847,-2.69773 -0.84119,-4.54372 -1.44111,-7.15924c-0.19486,-0.84952 -0.21141,-1.75169 -0.27943,-2.63687c-0.02863,0.19515 -0.09047,0.40199 -0.19749,0.61685c-0.62066,1.24607 -1.52985,0.27095 -1.52985,0.27095c-4.16372,-4.50424 -6.89276,-10.71855 -10.54427,-15.83261c-1.5807,-2.21382 -3.40919,-4.03277 -5.12816,-6.03448c-0.09293,0.01306 -1.08369,0.1166 -1.27702,-1.38012c-0.00927,-0.07173 -0.01583,-0.1406 -0.01997,-0.2067c-0.51612,-0.67099 -1.0131,-1.37432 -1.47906,-2.12843c-1.45283,-0.76608 -1.63709,-2.17456 -2.94512,-3.18428c-1.16596,-0.90006 -2.26272,-1.85505 -3.32187,-2.91306l-0.0728,0.01291c0,0 -1.08098,0.19169 -1.28387,-1.37908c-0.00338,-0.0262 -0.0064,-0.05202 -0.00908,-0.07745c-0.07846,-0.08774 -0.15686,-0.17613 -0.23509,-0.26529c-1.02029,-1.16298 -2.38668,-0.20558 -3.38214,-0.5739c-0.48212,-0.17839 -0.73494,-1.12224 -1.21624,-1.30652c-0.8925,-0.34172 -1.85162,0.09054 -2.73221,-0.32369l-0.00722,0.17093c0,0 -0.68979,0.12241 -1.07068,-0.629c0.18759,1.54673 -0.88163,1.73662 -0.88163,1.73662c-1.10656,0.19603 -2.21643,0.37735 -3.32622,0.5473l-1.19334,-0.56091c-0.3302,-0.05801 -0.55119,-0.30565 -0.6966,-0.5758c-0.17096,-0.2565 -0.26562,-0.53846 -0.2415,-1.0407c-0.20107,-2.01904 -0.73045,-2.0112 -2.18294,-2.81296l-0.8964,-1.65383c-0.88781,0.15728 -1.77644,0.3155 -2.66424,0.47278c-0.51188,0.09068 -1.02326,0.18953 -1.5361,0.27259c-0.36,0.05831 -0.71773,0.16104 -1.08062,0.18338l0.13325,0.72891c0.34846,0.20663 0.56485,0.63596 0.56485,0.63596l0.75446,1.47857c0.83623,1.9093 2.69651,2.12021 3.90417,3.45775c0.63403,0.70222 0.75442,2.13299 1.40828,2.79473c0.32693,0.33087 0.80411,0.20899 1.11964,0.56297c0.67764,0.76021 0.92925,2.1038 1.54563,2.96706c0.862,1.20726 2.10316,2.82864 2.99845,3.83883c0.16977,0.19156 0.41439,0.35736 0.69615,0.50463c0.61554,-1.01705 1.44683,-0.12255 1.44683,-0.12255l-0.21542,0.32851c2.51237,-0.38473 4.50798,1.02205 6.95368,1.93673c1.80397,0.67468 4.07018,0.90696 5.74219,2.20957c1.22849,0.95707 2.32858,2.19908 3.5506,3.17708c1.72576,1.38115 3.31121,2.02726 4.56653,4.34326c0.39949,0.79286 0.59633,1.85941 1.15281,2.4226c0.32693,0.33087 0.80368,0.2091 1.11921,0.56307c0.67764,0.76021 0.92633,2.1077 1.54509,2.96741c0.74827,1.03965 1.75976,1.86849 2.16618,3.2312c0.20995,0.70396 0.10166,1.51655 0.28862,2.23199c0.39356,1.50611 1.67955,2.66961 2.11141,4.19267c0.34154,1.20452 0.64085,2.31634 0.96581,3.529c1.4713,5.49055 1.63707,12.4802 2.37788,18.21534c0.19675,1.59401 0.06297,3.20915 0.08019,4.81149c0.05757,5.35667 1.48416,11.53315 2.17643,16.89254c0.48666,3.76761 0.91548,7.27454 0.86353,10.9228c-0.02309,1.62199 0.45381,3.23433 0.66253,4.85021c0.51258,3.96825 1.03485,7.94212 1.54743,11.91037c0.16348,1.38793 -0.0284,2.78322 -0.01273,4.17724c0.03417,3.04106 0.68631,6.0206 0.6436,9.01987c-0.03094,2.17323 0.87368,4.4958 0.8665,6.69674c-0.01291,3.95684 0.03528,8.19759 0.00255,12.17688c-0.03164,3.84814 0.75595,8.36433 0.00525,12.07191c0.67244,5.20585 -0.47348,10.62839 -1.17099,15.67477c-0.24797,1.79405 -0.2926,4.47352 -1.03085,6.03155c-0.21201,0.44743 -0.69842,0.4962 -0.92716,0.9255c-0.42386,0.79552 -0.23749,2.0449 -0.55142,2.94541c-0.73332,2.10357 -1.79575,3.94532 -2.23948,6.26478c0,0 -0.27828,1.37737 -1.23892,1.01234c-0.55119,0.57487 -1.22674,0.97598 -2.07724,1.22507c-0.13225,0.01903 -0.30491,0.17643 -0.4735,0.23451c0.72645,0.30892 1.50101,0.11867 2.24944,0.16507c2.25272,0.13966 4.58103,-0.64904 6.83193,-0.42569c1.52663,0.15148 3.13747,0.55226 4.72354,0.66377c4.41772,0.3106 9.28859,-1.66565 13.65205,-2.43865c2.07632,-0.36779 3.94824,-0.2775 6.02394,-0.29611c4.62805,-0.04151 9.47748,-1.71627 14.04481,-2.50055c1.67343,-0.28735 3.7215,-0.41554 5.44676,-0.27981c-0.60374,-1.2211 -1.25725,-3.13585 -1.80194,-4.22024z" data-paper-data="{&quot;noHover&quot;:false,&quot;origItem&quot;:[&quot;Path&quot;,{&quot;applyMatrix&quot;:true,&quot;segments&quot;:[[[138.28323,489.63683],[1.2105,-2.47971],[4.63482,-0.8241]],[[153.15789,488.35547],[-4.64247,0.017],[12.67083,-0.04639]],[[192.13421,488.37473],[-12.57524,1.45334],[5.64004,-0.65183]],[[208.57895,486.93441],[-5.76415,0.00007],[12.11358,0]],[[246.46682,486.97315],[-11.88094,2.04122],[4.26556,-0.73285]],[[259.04758,484.17256],[-4.09022,0.78782],[6.0307,-1.16158]],[[277.72998,482.70999],[-6.06499,1.00592],[2.015,-0.3342]],[[283.77432,481.65869],[-1.8633,0.81709],[-0.47793,-0.05269]],[[282.47368,481.56599],[0.36559,-0.00821],[-2.39561,-0.18378]],[[276.40402,479.96651],[1.69749,0.89105],[-2.47925,0.99933]],[[272.68514,478.48658],[0,0],[-2.01744,-4.18405]],[[264.40838,467.53065],[2.72771,3.68515],[-1.1677,-1.57757]],[[261.87868,462.21363],[1.42925,1.34517],[-0.7713,-0.72593]],[[259.03657,460.79258],[0.73226,0.7653],[-2.54985,-2.66491]],[[254.1231,449.87194],[1.30195,3.26778],[-3.66217,-9.19173]],[[245.44867,420.99209],[0,9.94264],[-3.33718,-6.67437]],[[241.18552,398.25525],[1.43493,7.17467],[-1.48384,-7.41918]],[[236.92236,375.51841],[1.4222,7.38382],[-0.79108,-4.10715]],[[236.92236,362.72894],[0.84585,4.04756],[-1.16735,-5.58601]],[[235.50131,345.6763],[0.97338,5.68948],[-0.44619,-2.60804]],[[234,337.88178],[0.04287,2.64558],[0,-7.57895]],[[234,315.14494],[0,7.57895],[0,-3.08615]],[[234.08025,305.88683],[0.6313,3.02089],[-1.41995,-6.79474]],[[232.57895,285.30283],[0,7.19575],[0,-10.23587]],[[232.61768,253.09917],[1.72165,10.02085],[-0.515,-2.99755]],[[231.15789,244.09231],[0.02484,3.04136],[0,-10.95353]],[[231.23815,209.29779],[-2.06834,10.73847],[0.45682,-2.37173]],[[232.6592,202.19252],[-0.50467,2.36201],[0.63814,-2.98667]],[[236.92236,193.66621],[-0.54014,2.94235],[0.25658,-1.3977]],[[236.92236,189.40305],[-0.32302,1.38385],[0.6253,-2.67884]],[[241.67154,182.65397],[-1.66636,2.18871],[1.37796,-1.8099]],[[244.82605,176.60257],[-1.57262,1.64358],[0.73226,-0.7653]],[[247.66815,175.18151],[-0.7713,0.72593],[1.31286,-1.23563]],[[249.9483,170.27698],[-0.80627,1.61255],[2.59504,-4.7396]],[[260.82482,160.65858],[-4.19958,3.14968],[2.97375,-2.23031]],[[269.35113,153.55332],[-2.99863,2.19337],[4.08125,-2.98525]],[[284.16774,147.5312],[-4.65952,1.85645],[6.31705,-2.51684]],[[302.36842,141.61862],[-6.95352,0.11268],[0,0]],[301.66815,141.07625],[[305.63949,140.82745],[-2.02714,-1.6954],[0.71308,-0.36817]],[[307.35236,139.6552],[-0.3936,0.41383],[2.0757,-2.18235]],[[314.14522,131.49607],[-1.91627,2.53929],[1.37025,-1.81574]],[[317.29973,125.44467],[-1.57262,1.64358],[0.73226,-0.7653]],[[320.14184,124.02362],[-0.7713,0.72593],[1.5426,-1.45186]],[[322.98394,118.33941],[-1.47461,1.52088],[2.80873,-2.89687]],[[332.36935,110.59277],[-1.6002,3.8416],[0,0]],[333.7904,107.75067],[[335.10034,106.3763],[-0.87329,0.50108],[0,0]],[[335.2067,104.97139],[0,0],[-0.99275,0.07832]],[[332.21053,104.98704],[0.99749,-0.01021],[-1.42098,0.01455]],[[327.94737,104.98704],[1.42105,0],[-2.46467,0]],[[320.55335,104.98704],[2.46467,0],[0,0]],[[318.70027,108.37152],[0,0],[-3.66104,1.97746]],[[313.85922,114.17117],[-0.1621,-3.8364],[0.24155,0.92978]],[[313.47151,116.36905],[0.37406,-0.53547],[-0.29996,0.55251]],[[311.78313,117.67479],[0.87585,-0.21753],[0,0]],[[308.74189,119.11732],[0,0],[-3.07157,0.04977]],[[299.52632,119.19757],[3.07197,0],[0,0]],[[296.52659,116.24751],[0.03311,2.95006],[-0.77032,1.52901]],[293.84211,117.77652],[[293.76269,117.4598],[0,0],[-2.24472,1.06472]],[[286.46384,118.96921],[2.30248,-0.93326],[-1.24166,0.50328]],[[283.62173,121.81131],[1.24596,-0.49255],[-2.5726,1.017]],[[274.64764,124.0031],[2.36138,-2.50897],[-0.18105,0.19236]],[[274.10279,124.57628],[0.18219,-0.18977],[0.00164,0.04838]],[[274.10526,124.72389],[0,-0.05003],[0,3]],[271.10526,127.72389],[[270.90327,127.72389],[0,0],[-2.50366,2.32582]],[[262.91203,134.26288],[2.84893,-2.06623],[-3.19606,2.31798]],[[256.03804,141.18345],[3.67446,-1.91096],[-1.00026,1.56217]],[[252.77128,145.64715],[1.16555,-1.42357],[0.01194,0.12478]],[[252.78947,146.03968],[0,-0.137],[0,2.85859]],[[249.80884,149.03936],[0.25679,-0.00635],[-3.96361,4.30613]],[[238.01267,162.00433],[3.51397,-4.65643],[-8.11749,10.75665]],[[214.96343,195.05573],[9.72143,-9.78744],[0,0]],[[210.72078,195.05573],[2.12132,2.12132],[-0.36578,-0.36578]],[[209.96924,193.96926],[0.14612,0.35491],[0.12571,1.67529]],[[210.13542,198.98517],[0.23103,-1.65066],[-0.71128,5.08206]],[[208.73684,212.82915],[0,-5.15239],[0,0]],[[205.73684,215.82915],[3,0],[-3,0]],[[202.73684,212.82915],[0,0],[0,-5.3127]],[[204.18037,198.25207],[-0.76131,5.21531],[0.42608,-2.9188]],[[204.23815,189.40305],[-0.57807,2.89254],[0.48624,-2.43306]],[[207.03874,182.5065],[-0.39594,2.44937],[0.87179,-5.39311]],[[207.08025,165.24515],[-0.08875,5.47649],[0,0]],[[208.43872,162.38115],[0,0],[0.15258,-0.71276]],[[209.4528,160.8229],[-0.42786,0.33973],[0.38912,-0.36822]],[[211.09663,160.04265],[-0.70676,0.06087],[10.25964,-3.5111]],[[239.84211,145.88178],[-11.58126,0.18767],[0,0]],[239.14184,145.33941],[[242.73376,144.81354],[-1.88361,-1.18245],[0.67913,-1.77386]],[245.52632,143.03968],[[247.01932,143.03968],[0,0],[1.79018,-2.01887]],[[252.06722,136.68538],[-1.54581,2.24336],[3.88901,-1.85863]],[[259.40376,129.39542],[-3.64782,2.8167],[0.43111,-0.33288]],[[260.61684,128.30698],[-0.38279,0.38701],[-7.7204,1.16935]],[[238.34164,135.93348],[7.24873,-3.62436],[0,0]],[[234.53551,134.97726],[1.39371,2.16244],[0,0]],[[233.06992,135.68393],[0,0],[-3.77145,3.6981]],[[221.09542,141.70605],[4.77052,-1.91189],[-6.25016,2.50489]],[[202.81532,150.14401],[6.04144,-3.02072],[0,0]],[[202.7493,150.17435],[0.04295,-0.0188],[-0.55048,0.28303]],[[200.58705,150.38949],[0.84137,0.28856],[-0.54604,-0.14376]],[[199.03104,149.22129],[0.45292,0.68621],[-0.50777,-0.64668]],[[198.41484,147.37571],[-0.03629,0.56348],[-0.00769,-0.88944]],[[199.3027,145.39245],[-0.44258,0.43273],[0.03142,-0.0348]],[[199.35236,145.33941],[0,0],[3.76991,-3.21443]],[[201.39604,135.40305],[-0.92117,4.78254],[1.27807,-6.63553]],[[206.36034,116.88437],[-2.74883,6.20095],[-0.78139,-0.8843]],[[205.57895,114.77652],[0,0],[0.09677,-4.30966]],[[204.15789,103.4081],[0.07268,4.48494],[0,0]],[204.15789,102.07757],[[203.584,102.06469],[0,0],[-3.96131,2.14297]],[[191.4469,107.51243],[3.99739,-2.01143],[0,0]],[[190.26316,107.83151],[0.68005,-0.06723],[0,7.77421]],[[190.26316,131.82915],[0,-7.12061],[0,0]],[[189.9168,133.27035],[0.34635,-0.72989],[0,0]],[[189.94644,133.32961],[0,0],[2.55668,5.39016]],[[193.06653,149.82229],[-0.83343,-5.78734],[2.24529,15.59128]],[[193.02501,199.30788],[3.2116,-15.36815],[-0.92806,4.44095]],[[191.36749,211.32869],[2.08846,-4.40302],[0,0]],[[189.88537,212.79395],[0.98808,-0.47718],[0.02013,0.03837]],[[189.94644,212.90856],[-0.02058,-0.03804],[0,0]],[[188.6048,216.93348],[2.68328,-1.34164],[-2.68328,1.34164]],[[184.57988,215.59184],[0,0],[-2.08846,-4.40302]],[[182.92236,203.57104],[0.92806,4.44095],[-0.97604,-4.67056]],[[178.6592,189.36051],[0.9442,4.72098],[-0.24889,-1.24444]],[[178.80731,185.55615],[0.46117,1.18232],[-0.86066,-2.20651]],[[174.54415,179.87194],[0.90293,2.18955],[-3.48171,-8.44292]],[[160.34257,160.09138],[8.58685,4.14036],[-0.47376,-0.23688]],[[154.24587,156.99972],[0.21452,0.16311],[-0.89081,-0.67733]],[[152.00984,154.49553],[1.04256,0.40666],[-1.18232,-0.46117]],[[148.20548,154.64363],[1.24643,0.23872],[-6.2373,-1.19458]],[[130.42105,151.88178],[6.66575,0],[0,0]],[[130.20789,151.88178],[0,0],[-0.25611,0.40697]],[[128.92059,152.98612],[0.62466,-0.31233],[-2.68328,1.34164]],[[124.89567,151.64447],[0,0],[-1.65003,-3.96124]],[[118.97499,143.88683],[1.32591,5.10018],[-3.34692,-12.87406]],[[117.47368,101.98704],[0,13.53114],[0,0]],[117.47368,97.72389],[[118.95446,95.06434],[-1.48077,0.78585],[0,0]],[[118.97499,94.14999],[0,0],[-0.21245,-2.65071]],[[114.05768,94.95942],[1.0897,-0.20989],[-2.79081,0.53754]],[[105.53136,94.95942],[2.78201,-0.58138],[-3.19121,0.66689]],[[96.47368,96.36287],[3.14048,-0.20939],[0,6.74098]],[[96.47368,117.61862],[0,-6.18174],[0,15.38869]],[[108.69688,159.91712],[-9.49804,-12.47533],[3.3734,4.43084]],[[119.68524,171.46073],[-3.25412,-4.13414],[0,0]],[[121.89474,171.46073],[0,0],[4.82241,0.03938]],[[133.95242,174.38309],[-4.34303,-0.83179],[1.39569,0.2673]],[[138.21557,174.38309],[-1.38969,-0.29692],[4.19223,0.89572]],[[153.49097,181.97437],[-3.41245,-2.61477],[2.00459,1.53601]],[[158.12132,187.97099],[-1.78574,-1.78574],[1.78574,1.78574]],[[164.11794,192.60133],[-1.53601,-2.00459],[1.87821,2.45119]],[[168.63065,201.54014],[-1.38638,-2.77277],[0,0]],[[168.73083,201.78039],[-0.05615,-0.15219],[0,0]],[[170.36842,204.30283],[0,0],[-0.14935,0.89532]],[[169.92037,206.9888],[-0.45712,-0.78419],[0.53341,0.91507]],[[172.76248,208.40985],[-0.46484,-0.95174],[0.75546,1.54677]],[[173.13027,213.56094],[-0.35615,-1.68416],[0.43829,2.07254]],[[175.97238,219.24515],[-0.42687,-2.07493],[1.11102,5.40043]],[[176.05263,236.98704],[0,-5.52453],[0,30.18385]],[[174.63158,326.51336],[0,-30.19497],[0,4.91084]],[[173.17179,339.78338],[0.80845,-4.70559],[-1.41592,8.24139]],[[171.75074,365.36233],[1.20883,-8.27869],[-0.74364,5.09284]],[[171.75074,380.99391],[0.75918,-5.10694],[-0.38534,2.59215]],[[168.86712,388.30788],[0.51447,-2.56964],[-0.79811,3.98639]],[[168.90863,400.88864],[0.65587,-4.04671],[-0.96874,5.97712]],[[166.06653,417.94128],[-0.04633,-6.11078],[-2.53451,7.75874]],[[160.23471,441.23841],[2.63359,-7.84292],[-0.89287,2.659]],[[156.07764,449.41315],[0.50119,-2.73015],[-0.25658,1.3977]],[[156.07764,453.6763],[0.29692,-1.38969],[-1.84033,8.61325]],[[143.0517,479.90763],[3.95175,-7.9035],[0,0]],[[141.62143,481.34717],[0.95352,-0.48602],[-1.09814,2.2049]]],&quot;closed&quot;:true}]}" fill="#5c1f00"/></g><path d="M22.57895,81.54615c0,2.74689 -1.90868,4.97368 -4.26316,4.97368c-2.35448,0 -4.26316,-2.22679 -4.26316,-4.97368c0,-2.74689 1.90868,-4.97368 4.26316,-4.97368c2.35448,0 4.26316,2.22679 4.26316,4.97368z" fill="url(#color-2)" stroke="none" stroke-width="0"/><path d="M49.57895,138.38826c0,3.53172 -2.38585,6.39474 -5.32895,6.39474c-2.9431,0 -5.32895,-2.86302 -5.32895,-6.39474c0,-3.53172 2.38585,-6.39474 5.32895,-6.39474c2.9431,0 5.32895,2.86302 5.32895,6.39474z" fill="url(#color-3)" stroke="none" stroke-width="0"/><path d="M187.42105,85.45405c0,3.72792 -3.6583,6.75 -8.17105,6.75c-4.51275,0 -8.17105,-3.02208 -8.17105,-6.75c0,-3.72792 3.6583,-6.75 8.17105,-6.75c4.51275,0 8.17105,3.02208 8.17105,6.75z" fill="url(#color-4)" stroke="none" stroke-width="0"/><path d="M164.68421,142.65142c0,3.1393 -2.54491,5.68421 -5.68421,5.68421c-3.1393,0 -5.68421,-2.54491 -5.68421,-5.68421c0,-3.1393 2.54491,-5.68421 5.68421,-5.68421c3.1393,0 5.68421,2.54491 5.68421,5.68421z" fill="url(#color-5)" stroke="none" stroke-width="0"/><path d="M254.21053,96.82247c0,4.12033 -4.13548,7.46053 -9.23684,7.46053c-5.10137,0 -9.23684,-3.34019 -9.23684,-7.46053c0,-4.12033 4.13548,-7.46053 9.23684,-7.46053c5.10137,0 9.23684,3.34019 9.23684,7.46053z" fill="url(#color-6)" stroke="none" stroke-width="0"/><path d="M237.15789,173.55931c0,2.15827 -2.06774,3.90789 -4.61842,3.90789c-2.55068,0 -4.61842,-1.74962 -4.61842,-3.90789c0,-2.15827 2.06774,-3.90789 4.61842,-3.90789c2.55068,0 4.61842,1.74962 4.61842,3.90789z" fill="url(#color-7)" stroke="none" stroke-width="0"/><path d="M305.36842,149.40142c0,2.9431 -3.34019,5.32895 -7.46053,5.32895c-4.12033,0 -7.46053,-2.38585 -7.46053,-5.32895c0,-2.9431 3.34019,-5.32895 7.46053,-5.32895c4.12033,0 7.46053,2.38585 7.46053,5.32895z" fill="url(#color-8)" stroke="none" stroke-width="0"/><path d="M234.31579,129.15142c0,2.74689 -2.22679,4.97368 -4.97368,4.97368c-2.74689,0 -4.97368,-2.22679 -4.97368,-4.97368c0,-2.74689 2.22679,-4.97368 4.97368,-4.97368c2.74689,0 4.97368,2.22679 4.97368,4.97368z" fill="url(#color-9)" stroke="none" stroke-width="0"/><path d="M330.23684,94.33563c0,2.74689 -2.38585,4.97368 -5.32895,4.97368c-2.9431,0 -5.32895,-2.22679 -5.32895,-4.97368c0,-2.74689 2.38585,-4.97368 5.32895,-4.97368c2.9431,0 5.32895,2.22679 5.32895,4.97368z" fill="url(#color-10)" stroke="none" stroke-width="0"/><path d="M350.84211,180.30931c0,3.92413 -3.34019,7.10526 -7.46053,7.10526c-4.12033,0 -7.46053,-3.18113 -7.46053,-7.10526c0,-3.92413 3.34019,-7.10526 7.46053,-7.10526c4.12033,0 7.46053,3.18113 7.46053,7.10526z" fill="url(#color-11)" stroke="none" stroke-width="0"/><path d="M439.65789,84.74352c0,1.76586 -1.43151,3.19737 -3.19737,3.19737c-1.76586,0 -3.19737,-1.43151 -3.19737,-3.19737c0,-1.76586 1.43151,-3.19737 3.19737,-3.19737c1.76586,0 3.19737,1.43151 3.19737,3.19737z" fill="url(#color-12)" stroke="none" stroke-width="0"/><path d="M481.57895,81.19089c0,2.9431 -3.18113,5.32895 -7.10526,5.32895c-3.92413,0 -7.10526,-2.38585 -7.10526,-5.32895c0,-2.9431 3.18113,-5.32895 7.10526,-5.32895c3.92413,0 7.10526,2.38585 7.10526,5.32895z" fill="url(#color-13)" stroke="none" stroke-width="0"/><path d="M431.13158,134.1251c0,4.70895 -2.86302,8.52632 -6.39474,8.52632c-3.53172,0 -6.39474,-3.81736 -6.39474,-8.52632c0,-4.70895 2.86302,-8.52632 6.39474,-8.52632c3.53172,0 6.39474,3.81736 6.39474,8.52632z" fill="url(#color-14)" stroke="none" stroke-width="0"/><path d="M476.60526,169.65142c0,5.88619 -3.02208,10.65789 -6.75,10.65789c-3.72792,0 -6.75,-4.7717 -6.75,-10.65789c0,-5.88619 3.02208,-10.65789 6.75,-10.65789c3.72792,0 6.75,4.7717 6.75,10.65789z" fill="url(#color-15)" stroke="none" stroke-width="0"/><path d="M50.28947,182.08563c0,2.9431 -1.74962,5.32895 -3.90789,5.32895c-2.15827,0 -3.90789,-2.38585 -3.90789,-5.32895c0,-2.9431 1.74962,-5.32895 3.90789,-5.32895c2.15827,0 3.90789,2.38585 3.90789,5.32895z" fill="url(#color-16)" stroke="none" stroke-width="0"/><path d="M38.92105,157.21721c0,4.12033 -3.18113,7.46053 -7.10526,7.46053c-3.92413,0 -7.10526,-3.34019 -7.10526,-7.46053c0,-4.12033 3.18113,-7.46053 7.10526,-7.46053c3.92413,0 7.10526,3.34019 7.10526,7.46053z" fill="url(#color-17)" stroke="none" stroke-width="0"/><path d="M173.21053,192.38826c0,2.74689 -2.70396,4.97368 -6.03947,4.97368c-3.33551,0 -6.03947,-2.22679 -6.03947,-4.97368c0,-2.74689 2.70396,-4.97368 6.03947,-4.97368c3.33551,0 6.03947,2.22679 6.03947,4.97368z" fill="url(#color-18)" stroke="none" stroke-width="0"/><path d="M153.31579,170.00668c0,3.33551 -2.54491,6.03947 -5.68421,6.03947c-3.1393,0 -5.68421,-2.70396 -5.68421,-6.03947c0,-3.33551 2.54491,-6.03947 5.68421,-6.03947c3.1393,0 5.68421,2.70396 5.68421,6.03947z" fill="url(#color-19)" stroke="none" stroke-width="0"/><g><path d="M314.53222,86.24023c0,14.36485 -11.75385,26.00987 -26.25295,26.00987c-14.4991,0 -26.25295,-11.64501 -26.25295,-26.00987c0,-14.36485 11.75385,-26.00987 26.25295,-26.00987c14.4991,0 26.25295,11.64501 26.25295,26.00987z" fill="url(#color-20)" stroke="#4e4e4e" stroke-width="0.5"/><path d="M279.9081,77.0284c0,2.39414 -1.57693,4.33498 -3.52217,4.33498c-1.94524,0 -3.52217,-1.94084 -3.52217,-4.33498c0,-2.39414 1.57693,-4.33498 3.52217,-4.33498c1.94524,0 3.52217,1.94084 3.52217,4.33498z" fill="url(#color-21)" stroke="#4e4e4e" stroke-width="0"/><path d="M304.29235,70.79687c0,2.54378 -2.78995,4.60591 -6.23153,4.60591c-3.44158,0 -6.23153,-2.06214 -6.23153,-4.60591c0,-2.54378 2.78995,-4.60591 6.23153,-4.60591c3.44158,0 6.23153,2.06214 6.23153,4.60591z" fill="url(#color-22)" stroke="none" stroke-width="0"/><path d="M304.83422,94.36832c0,3.89048 -3.39646,7.04434 -7.58621,7.04434c-4.18975,0 -7.58621,-3.15386 -7.58621,-7.04434c0,-3.89048 3.39646,-7.04434 7.58621,-7.04434c4.18975,0 7.58621,3.15386 7.58621,7.04434z" fill="url(#color-23)" stroke="none" stroke-width="0"/><path d="M277.19874,88.40772c0,1.79561 -1.33432,3.25123 -2.9803,3.25123c-1.64597,0 -2.9803,-1.45563 -2.9803,-3.25123c0,-1.79561 1.33432,-3.25123 2.9803,-3.25123c1.64597,0 2.9803,1.45563 2.9803,3.25123z" fill="url(#color-24)" stroke="none" stroke-width="0"/><path d="M291.28742,80.55057c0,1.94524 -1.45563,3.52217 -3.25123,3.52217c-1.79561,0 -3.25123,-1.57693 -3.25123,-3.52217c0,-1.94524 1.45563,-3.52217 3.25123,-3.52217c1.79561,0 3.25123,1.57693 3.25123,3.52217z" fill="url(#color-25)" stroke="none" stroke-width="0"/><path d="M286.41057,100.05798c0,1.94524 -1.69823,3.52217 -3.79311,3.52217c-2.09487,0 -3.79311,-1.57693 -3.79311,-3.52217c0,-1.94524 1.69823,-3.52217 3.79311,-3.52217c2.09487,0 3.79311,1.57693 3.79311,3.52217z" fill="url(#color-26)" stroke="none" stroke-width="0"/></g></g></g></svg>