<svg version="1.1" xmlns="http://www.w3.org/2000/svg" xmlns:xlink="http://www.w3.org/1999/xlink" width="35.67311" height="35.67311" viewBox="0,0,35.67311,35.67311"><g transform="translate(-222.16345,-162.16345)"><g data-paper-data="{&quot;isPaintingLayer&quot;:true}" stroke-miterlimit="10" stroke-dasharray="" stroke-dashoffset="0" style="mix-blend-mode: normal"><path d="M229.98311,162.91345h20.03379c3.9166,0 7.06966,3.15307 7.06966,7.06966v20.03379c0,3.91659 -3.15306,7.06966 -7.06966,7.06966h-20.03379c-3.91659,0 -7.06966,-3.15307 -7.06966,-7.06966v-20.03379c0,-3.91659 3.15307,-7.06966 7.06966,-7.06966z" fill="#ffffff" fill-rule="evenodd" stroke="#000000" stroke-width="1.5" stroke-linecap="round" stroke-linejoin="round"/><path d="M228.97104,179.84011c0.08831,-6.09116 5.09774,-10.95736 11.18885,-10.86906c6.09116,0.08831 10.95736,5.09774 10.86906,11.18885c-0.08831,6.09116 -5.09771,10.95736 -11.18885,10.86906c-6.09116,-0.08831 -10.95736,-5.09774 -10.86906,-11.18885z" fill="#000000" fill-rule="nonzero" stroke="#ffffff" stroke-width="1" stroke-linecap="butt" stroke-linejoin="miter"/><path d="M246.81937,179.99421c0,3.92753 -2.96432,7.11142 -6.62098,7.11142c-3.65666,0 -6.62097,-3.18389 -6.62097,-7.11142c0,-3.92753 2.96431,-7.11142 6.62097,-7.11142c3.65666,0 6.62098,3.18389 6.62098,7.11142z" fill="#000000" fill-rule="nonzero" stroke="#ffffff" stroke-width="1" stroke-linecap="butt" stroke-linejoin="miter"/></g></g></svg>