<svg version="1.1" xmlns="http://www.w3.org/2000/svg" xmlns:xlink="http://www.w3.org/1999/xlink" width="35.67311" height="35.67311" viewBox="0,0,35.67311,35.67311"><defs><linearGradient x1="240.00001" y1="162.91345" x2="240.00001" y2="197.08656" gradientUnits="userSpaceOnUse" id="color-1"><stop offset="0" stop-color="#0362fc"/><stop offset="1" stop-color="#01378d"/></linearGradient></defs><g transform="translate(-222.16345,-162.16345)"><g data-paper-data="{&quot;isPaintingLayer&quot;:true}" stroke-miterlimit="10" stroke-dasharray="" stroke-dashoffset="0" style="mix-blend-mode: normal"><path d="M229.98311,162.91345h20.03379c3.9166,0 7.06966,3.15307 7.06966,7.06966v20.03379c0,3.91659 -3.15306,7.06966 -7.06966,7.06966h-20.03379c-3.91659,0 -7.06966,-3.15307 -7.06966,-7.06966v-20.03379c0,-3.91659 3.15307,-7.06966 7.06966,-7.06966z" fill="url(#color-1)" fill-rule="evenodd" stroke="#000000" stroke-width="1.5" stroke-linecap="round" stroke-linejoin="round"/><g fill-rule="nonzero" stroke-width="1" stroke-linecap="butt" stroke-linejoin="miter"><path d="M254.01424,187.22577c-1.39534,4.05386 -5.48581,5.80364 -9.13632,3.90825c-3.65051,-1.89539 -5.47867,-6.71821 -4.08333,-10.77206c1.39534,-4.05386 5.48581,-5.80364 9.13632,-3.90825c3.65051,1.89539 5.47867,6.71821 4.08333,10.77206z" fill="#000000" stroke="#ffffff"/><path d="M252.02221,185.12896c-1.04447,3.03447 -4.05247,4.37221 -6.71857,2.98793c-2.6661,-1.38427 -3.98069,-4.96637 -2.93622,-8.00083c1.04447,-3.03447 4.05247,-4.37221 6.71857,-2.98793c2.6661,1.38427 3.98069,4.96637 2.93622,8.00083z" fill="#ffffff" stroke="#000000"/><path d="M249.21481,183.62073c-0.4488,1.30387 -1.64388,1.92926 -2.66931,1.39685c-1.02542,-0.53242 -1.49287,-2.02102 -1.04408,-3.32488c0.4488,-1.30387 1.64388,-1.92926 2.66931,-1.39685c1.02542,0.53242 1.49287,2.02102 1.04408,3.32488z" fill="#000000" stroke="#000000"/></g><g data-paper-data="{&quot;index&quot;:null}" fill-rule="nonzero" stroke-width="1" stroke-linecap="butt" stroke-linejoin="miter"><path d="M235.12208,168.86598c3.65051,1.89539 5.47867,6.71821 4.08333,10.77206c-1.39534,4.05386 -5.48581,5.80364 -9.13632,3.90825c-3.65051,-1.89539 -5.47867,-6.71821 -4.08333,-10.77206c1.39534,-4.05386 5.48581,-5.80364 9.13632,-3.90825z" fill="#000000" stroke="#ffffff"/><path d="M235.31692,170.08025c2.6661,1.38427 3.98069,4.96637 2.93622,8.00083c-1.04447,3.03447 -4.05247,4.37221 -6.71857,2.98793c-2.6661,-1.38427 -3.98069,-4.96637 -2.93622,-8.00083c1.04447,-3.03447 4.05247,-4.37221 6.71857,-2.98793z" fill="#ffffff" stroke="#000000"/><path d="M234.1046,173.09372c1.02542,0.53242 1.49287,2.02102 1.04408,3.32488c-0.4488,1.30387 -1.64388,1.92926 -2.66931,1.39685c-1.02542,-0.53242 -1.49287,-2.02102 -1.04408,-3.32488c0.4488,-1.30387 1.64388,-1.92926 2.66931,-1.39685z" fill="#000000" stroke="#000000"/></g></g></g></svg>