<svg version="1.1" xmlns="http://www.w3.org/2000/svg" xmlns:xlink="http://www.w3.org/1999/xlink" width="108.56017" height="255.88235" viewBox="0,0,108.56017,255.88235"><defs><radialGradient cx="228.78145" cy="122.58333" r="14.98278" gradientUnits="userSpaceOnUse" id="color-1"><stop offset="0" stop-color="#ffffff"/><stop offset="1" stop-color="#ffffff" stop-opacity="0"/></radialGradient><radialGradient cx="255.63132" cy="121.96478" r="14.98278" gradientUnits="userSpaceOnUse" id="color-2"><stop offset="0" stop-color="#ffffff"/><stop offset="1" stop-color="#ffffff" stop-opacity="0"/></radialGradient></defs><g transform="translate(-189.16603,-44.72108)"><g data-paper-data="{&quot;isPaintingLayer&quot;:true}" fill-rule="nonzero" stroke-linejoin="miter" stroke-miterlimit="10" stroke-dasharray="" stroke-dashoffset="0" style="mix-blend-mode: normal"><g stroke-linecap="butt"><path d="M198.79267,299.16903c0,0 -0.63536,-94.38386 -0.79335,-118.012c-0.05451,-8.15261 8.18688,-36.76129 40.20201,-36.9211c31.60235,-0.15775 39.85672,29.48704 39.84884,36.89674c-0.07659,46.24274 0.65429,117.98648 0.65429,117.98648l-10.49667,0.09614l-0.15882,-114.84311c0,0 0.07549,-3.0993 -2.81625,-3.15415c-3.43441,-0.06514 -2.94538,3.11562 -2.94538,3.11562l0.20548,114.86995l-48.21366,0.07222l-0.30539,-115.23309c0,0 0.27949,-2.919 -2.8856,-2.93443c-3.11083,-0.01515 -2.81569,2.90899 -2.81569,2.90899l0.35311,115.0668z" fill="#353535" stroke="#000000" stroke-width="2"/><path d="M253.38981,195.11124c-0.57113,0 -1.03411,-0.46299 -1.03411,-1.03411c0,-0.57113 0.46299,-1.03413 1.03411,-1.03413c0.57113,0 1.03411,0.463 1.03411,1.03413c0,0.57113 -0.46299,1.03411 -1.03411,1.03411z" fill="#000000" stroke="none" stroke-width="1.5"/><path d="M248.12997,199.34684c-4.4635,-0.31439 -6.55245,-1.79392 -6.16985,-2.58011c0.11788,-0.24224 2.84645,1.06355 6.97038,1.3048c6.40897,0.37493 8.51033,-0.63173 8.51033,-0.63173v1.34616c0,0 -2.4135,1.04672 -9.31086,0.56089z" fill="#000000" stroke="#000000" stroke-width="0"/><path d="M220.31721,194.07713c0,-0.57113 0.46299,-1.03413 1.03411,-1.03413c0.57113,0 1.03413,0.463 1.03413,1.03413c0,0.57113 -0.463,1.03411 -1.03413,1.03411c-0.57113,0 -1.03411,-0.46299 -1.03411,-1.03411z" fill="#000000" stroke="none" stroke-width="1.5"/><path d="M226.61123,199.34684c-6.89736,0.48585 -9.31086,-0.56089 -9.31086,-0.56089v-1.34616c0,0 2.10136,1.00666 8.51033,0.63173c4.12393,-0.24126 6.85251,-1.54704 6.97039,-1.3048c0.3826,0.78618 -1.70634,2.26571 -6.16985,2.58011z" fill="#000000" stroke="#000000" stroke-width="0"/><path d="M213.8284,299.18349v-119.20147c0,0 0.75721,-9.73105 0.75721,-14.63937c0,-4.498 -0.75721,-13.6872 -0.75721,-13.6872c0,0 2.67319,-2.35297 4.6557,-3.74807c1.98251,-1.3951 5.17197,-2.80371 5.17197,-2.80371c0,0 -0.60161,40.10902 14.55952,40.03867c15.43477,-0.07162 13.83154,-40.03867 13.83154,-40.03867c0,0 3.91276,1.51959 6.16585,2.94655c2.25309,1.42695 4.75379,3.60523 4.75379,3.60523c0,0 -0.75721,9.42463 -0.75721,14.19201c0,4.84193 0.75721,14.63937 0.75721,14.63937v118.69667z" fill="#ffffff" stroke="#000000" stroke-width="2"/><path d="M193.12467,271.47855c-0.61874,-0.76833 -0.55556,-2.25 -0.55556,-2.25v-11.36111c0,0 1.19108,0 2.75,0c8.85608,0 88.75,0 88.75,0v12.47222c0,0 -0.09724,1.17944 -0.77778,1.58333c-0.68054,0.4039 -2.63889,0.44444 -2.63889,0.44444h-85.55556c0,0 -1.35348,-0.12056 -1.97222,-0.88889z" fill="#380a60" stroke="none" stroke-width="0"/><path d="M209.86386,300.60343l-1.24856,-41.766l-13.95144,2.49714c0,0 -2.84135,-91.59462 11.55689,-108.83305c1.99443,-2.38785 7.17662,-7.42403 10.87286,-8.81928c7.99025,-3.01615 16.38263,-0.77178 22.37122,-0.78542c8.43659,-0.01922 13.44967,-4.139 21.52768,1.41046c2.12654,1.4609 6.22493,5.25193 9.38183,8.91771c2.76679,3.21278 4.67128,6.28297 5.76006,8.22691c5.26863,9.40676 5.74512,20.95834 5.89369,29.28907c0.10623,5.9569 -3.30994,68.52075 -3.30994,68.52075l-11.8543,2.07285v39.26886z" fill="#402b6b" stroke="none" stroke-width="0"/><path d="M246.84271,239.6906c0,1.58782 -1.27313,5.18269 -2.65385,5.18269c-0.24957,0 -2.41368,-0.88821 -2.6411,-0.96649c-1.03075,-0.35481 -1.16659,-2.99231 -1.16659,-4.29312c0,-1.58782 1.11929,-2.875 2.5,-2.875c1.38071,0 3.96154,1.3641 3.96154,2.95192z" fill="#000000" stroke="#5d0000" stroke-width="3"/><path d="M238.58019,241.70614c0,0 -0.57322,-0.48365 -0.08957,-1.05687c0.02553,-0.03026 0.05131,-0.05758 0.07725,-0.08217c0.00656,-0.36181 0.02573,-0.70675 0.0592,-1.01859l-0.2816,-0.78494c0.38401,-1.25748 0.91102,-2.12149 1.96068,-2.92295c2.87115,-2.12849 8.18689,0.79119 7.18186,4.68702c-0.03509,0.13603 -0.07997,0.2668 -0.13367,0.39232c0.02032,0.28059 0.00835,0.5488 -0.00569,0.7484c-0.1179,1.67624 -1.09847,3.2856 -1.62832,4.85219c-0.16784,1.39315 -0.82707,2.73115 -2.51128,1.65822c-0.80879,-0.51524 -0.51793,-1.43066 -0.73029,-2.06289c-0.29052,-0.08793 -0.58808,-0.19444 -0.87867,-0.3115c-0.74076,0.05789 -1.82509,0.15754 -2.35438,-0.51279c-0.3266,-0.41363 -0.58788,-1.99977 -0.66036,-3.58111c-0.00172,-0.00145 -0.00344,-0.0029 -0.00516,-0.00435zM240.50238,237.69905c0.18586,-0.02086 0.69375,-0.0207 0.83073,0.57291c0.16864,0.73079 -0.56215,0.89944 -0.56215,0.89944c-0.33227,-0.00385 -0.55475,0.84891 -0.6473,1.87442c0.26772,0.22589 0.53545,0.45178 0.80317,0.67768c1.07647,-0.13917 2.40883,0.12761 3.45416,-0.03984c0.13817,-0.48421 0.28614,-0.8952 0.45149,-1.14545c0.29814,-0.45122 0.72314,-1.00968 1.24979,-1.07109c-0.15926,-2.1634 -3.21595,-3.68973 -4.87611,-2.42651c-0.28689,0.21012 -0.51561,0.42523 -0.70379,0.65844zM244.08653,246.96027c0.02543,0.02984 0.04911,0.02047 0.07134,-0.04004c-0.02296,0.01459 -0.04677,0.02797 -0.07134,0.04004z" fill="#5d0000" stroke="none" stroke-width="0.5"/></g><g><path d="M198.31475,111.40164c0,0 6.16329,-5.92187 6.29161,-6.78761c0.33654,-2.27063 -0.16776,-40.17317 35.96775,-41.57382c44.63633,-0.91362 39.01489,35.34872 41.53088,42.1903c3.44981,9.38084 6.15664,17.40016 6.15664,17.40016c0,0 -2.76715,-2.05351 -4.0797,-3.13397c-1.2242,-1.00773 -3.80143,-3.14585 -3.80143,-3.14585c0,0 3.09111,10.3481 1.31092,20.69498c-1.5623,9.48098 -7.29782,17.22543 -7.29782,17.22543l-1.15522,-2.34735c0,0 -1.02266,2.19794 -2.16005,3.33274c-1.1374,1.13479 -3.43873,2.91273 -3.43873,2.91273l-0.09205,-3.70421c0,0 -7.0601,11.01795 -24.35066,10.87154c-16.30625,-0.25547 -26.07151,-10.6752 -26.07151,-10.6752l-0.1162,2.65484c0,0 -3.89477,-3.29276 -6.18145,-9.70754c-2.72545,-7.64567 -3.23946,-12.24324 -3.23946,-12.24324c0,0 -2.33908,1.89916 -5.71704,2.7744c-4.23278,1.09673 -6.94665,0.34526 -6.94665,0.34526c0,0 3.60795,-2.71717 5.58396,-4.76989c1.76007,-1.8284 2.64658,-3.37722 2.64658,-3.37722c0,0 -2.10758,1.0847 -4.23277,1.61795c-2.21739,0.5564 -4.03008,0.53093 -4.03008,0.53093c0,0 4.97492,-5.03728 7.03074,-10.87429c1.94102,-5.51108 2.09972,-10.95731 2.09972,-10.95731c0,0 -1.36165,0.66163 -3.33013,0.79513c-1.24776,0.08463 -2.37785,-0.0489 -2.37785,-0.0489z" fill="#000000" stroke="none" stroke-width="1.5" stroke-linecap="butt"/><path d="M263.17062,107.6029c0,0 1.52429,0.31807 4.2558,1.11029c2.49492,0.72361 4.44935,1.74403 4.44935,1.74403l0.1951,1.17035c0,0 -7.24963,-3.12997 -15.1158,-2.4706c-6.2896,0.52724 -9.96319,2.8124 -9.96319,2.8124l0.04575,-4.17683c0,0 3.12748,-1.70421 7.86366,-1.85557c4.90428,-0.15672 8.09084,0.59125 8.09084,0.59125z" data-paper-data="{&quot;index&quot;:null}" fill="#000000" stroke="none" stroke-width="1.5" stroke-linecap="butt"/><path d="M216.80027,132.84648c0,0 -4.93211,-3.51705 -6.16417,-8.97502c-1.29636,-5.74284 -1.46118,-9.7328 0.48013,-9.99193c1.94131,-0.25915 2.70321,2.37692 3.73262,8.35569c1.0294,5.97877 1.95143,10.61127 1.95143,10.61127z" data-paper-data="{&quot;index&quot;:null}" fill="#000000" stroke="#000000" stroke-width="1" stroke-linecap="butt"/><path d="M216.59767,128.89892c0,0 -3.56385,-2.92338 -4.31816,-8.45061c-0.42079,-3.08327 2.15675,-2.28016 2.15675,-2.28016" fill="none" stroke="#000000" stroke-width="0.25" stroke-linecap="round"/><g><g><path d="M195.04795,141.13075l0.19556,-24.35057l97.45792,0.82211l-0.19556,24.35057c0,0 -34.2787,21.58273 -50.10286,21.44925c-16.62251,-0.14022 -47.35506,-22.27136 -47.35506,-22.27136z" fill="#000000" stroke="none" stroke-width="0" stroke-linecap="butt"/><path d="M202.91758,107.89704c0,0 -2.28039,0.6511 -3.16282,0.66721c-0.95463,0.01744 -2.36543,-0.56623 -2.36543,-0.56623l6.23796,-6.093l41.41437,-45.18447c0,0 37.2415,41.45671 37.2033,46.21275c-0.01878,2.33826 6.11542,17.63806 6.11542,17.63806l-7.14003,-5.3653c0,0 2.46397,9.83904 0.6834,20.46661c-1.66773,9.95401 -7.90379,18.04374 -7.90379,18.04374l-1.15511,-2.35975c0,0 -1.05688,2.184 -2.22233,3.36728c-1.16546,1.18327 -3.62938,2.55998 -3.62938,2.55998l0.04795,-3.42236c0,0 -8.51236,10.3328 -25.28356,9.91943c-16.56895,-0.40837 -26.02995,-9.8628 -26.02995,-9.8628l-0.20207,1.94035c0,0 -4.55436,-4.90137 -6.74597,-10.40471c-2.84488,-7.14374 -2.58446,-11.47875 -2.58446,-11.47875c0,0 -2.78652,1.65689 -5.75924,2.16069c-3.46608,0.58742 -6.65199,0.30688 -6.65199,0.30688l7.46744,-7.51198c0,0 -2.60427,1.09413 -3.90194,1.31433c-1.20106,0.20384 -3.61666,-0.03843 -3.61666,-0.03843c0,0 5.84976,-7.64162 7.44309,-11.51171c1.45592,-3.53632 1.74185,-10.7979 1.74185,-10.7979z" fill="#000000" stroke="none" stroke-width="1.5" stroke-linecap="butt"/><path d="M222.28911,109.48062l0.44249,-1.58214c0,0 3.40211,-1.75744 7.78359,-2.14351c4.36729,-0.38482 7.50911,0.22504 7.50911,0.22504l-0.1618,4.49419c0,0 -3.22546,-0.72753 -7.26863,-0.5258c-3.07361,-0.11553 -17.1437,3.03607 -17.1437,3.03607l-0.0141,-1.36156z" fill="#000000" stroke="none" stroke-width="1.5" stroke-linecap="butt"/><path d="M263.36994,104.48929c0,0 2.58009,0.61648 3.90521,0.99906c1.37433,0.39678 4.19856,1.34056 4.19856,1.34056l0.01338,1.64371c0,0 -7.54374,-3.24104 -15.34014,-2.63744c-6.2338,0.48265 -9.72289,2.60218 -9.72289,2.60218l0.30523,-4.69307c0,0 4.99953,-1.56853 8.30319,-1.7567c3.30365,-0.18818 7.84068,0.83717 7.84068,0.83717z" data-paper-data="{&quot;index&quot;:null}" fill="#000000" stroke="none" stroke-width="1.5" stroke-linecap="butt"/><path d="M219.51308,119.40246c0.03988,-4.96621 4.38674,-8.95572 9.709,-8.91082c5.32225,0.04489 9.60445,4.10719 9.56457,9.07341c-0.03988,4.96621 -4.38674,8.95572 -9.709,8.91082c-5.32225,-0.04489 -9.60445,-4.10719 -9.56457,-9.07341z" fill="#3f1010" stroke="#000000" stroke-width="1.5" stroke-linecap="butt"/><path d="M246.37536,119.62905c0.03988,-4.96621 4.34197,-8.95609 9.609,-8.91166c5.26703,0.04443 9.50445,4.10634 9.46457,9.07256c-0.03988,4.96621 -4.34197,8.95609 -9.609,8.91166c-5.26702,-0.04443 -9.50445,-4.10634 -9.46457,-9.07256z" fill="#ffffff" stroke="#000000" stroke-width="1.5" stroke-linecap="butt"/><path d="M250.79417,119.60934c0.02298,-2.86097 2.30458,-5.16115 5.09611,-5.1376c2.79153,0.02356 5.03587,2.36191 5.01289,5.22288c-0.02298,2.86097 -2.30457,5.16115 -5.09611,5.1376c-2.79153,-0.02356 -5.03587,-2.36191 -5.01289,-5.22288z" fill="#000000" stroke="none" stroke-width="1.5" stroke-linecap="butt"/><path d="M245.83486,118.84654c0,0 0.08679,-9.94244 10.99852,-9.49001c10.2503,0.42499 10.01016,9.66724 10.01016,9.66724z" fill="#ffffff" stroke="#000000" stroke-width="1.25" stroke-linecap="butt"/><path d="M216.02737,128.60083c-0.51219,1.5159 -4.1556,-3.23909 -5.34741,-8.54354c-1.1918,-5.30446 -1.0318,-9.23647 1.35094,-9.24383c2.25303,-0.00696 2.30568,3.80613 2.92685,7.61887c0.66557,4.08523 1.68125,8.35827 1.06962,10.1685z" data-paper-data="{&quot;index&quot;:null}" fill="#ffffff" stroke="#000000" stroke-width="1" stroke-linecap="butt"/><path d="M270.25122,118.62188c0.68232,-3.80174 0.7962,-7.61343 3.04883,-7.56846c2.38229,0.04756 2.47913,3.98174 1.2023,9.26538c-1.27684,5.28364 -4.99612,9.9765 -5.4839,8.45218c-0.58248,-1.8203 0.50169,-6.07563 1.23278,-10.14908z" data-paper-data="{&quot;index&quot;:null}" fill="#ffffff" stroke="#000000" stroke-width="1" stroke-linecap="butt"/><path d="M216.45285,125.06824c0,0 -3.38231,-2.26013 -4.07696,-7.81794c-0.3875,-3.10033 2.4083,-2.31715 2.4083,-2.31715" fill="none" stroke="#000000" stroke-width="0.5" stroke-linecap="round"/><path d="M270.82822,114.63726c0,0 2.3585,-0.39806 1.98701,2.69586c-0.66596,5.54632 -3.5392,7.41205 -3.5392,7.41205" data-paper-data="{&quot;index&quot;:null}" fill="none" stroke="#000000" stroke-width="0.5" stroke-linecap="round"/><path d="M206.76238,134.72239c0,0 0.28853,-11.48121 2.19564,-17.38361c3.15424,-9.76227 14.95134,-35.68584 14.95134,-35.68584l44.86817,1.73139l10.80872,51.27593c0,0 -17.65692,7.67177 -30.88108,9.5789c-1.8685,0.26946 -3.64852,0.42385 -5.27773,0.42524c-10.51807,0.00897 -36.66506,-9.94199 -36.66506,-9.94199z" fill="#040404" stroke="none" stroke-width="0" stroke-linecap="butt"/><path d="M231.41703,158.51274l11.178,4.37848l-0.58946,4.73018l-7.89477,-1.19403l-43.68791,-30.58331l-0.13491,-6.08918l18.80717,-52.8081l31.50776,-32.2257l37.26809,32.68427l18.3657,43.99844l1.48951,20.53156l-55.54586,26.81494l0.59127,-4.95566l44.48286,-22.62407l-41.45595,-56.72056l-48.17444,47.39612l4.54635,6.1264l26.86613,19.39272z" fill="#402b6b" stroke="none" stroke-width="0" stroke-linecap="round"/><path d="M230.29509,162.62357l11.178,4.37848l-0.58946,4.73018l-7.89477,-1.19402l-43.68791,-30.58331l-0.13492,-6.0892l55.29646,-60.63955l50.65224,52.28848l1.48951,20.53156l-54.807,26.3702l0.77327,-4.72863l43.562,-22.40636l-41.45595,-56.72056l-48.17443,47.39611l4.54636,6.12641l26.86613,19.39272z" fill="#6712b1" stroke="none" stroke-width="0" stroke-linecap="round"/></g><path d="M241.43164,173.31523c-3.03751,-0.02562 -5.48205,-2.2672 -5.46005,-5.0067c0.022,-2.7395 2.50222,-4.93953 5.53972,-4.9139c3.03751,0.02562 5.48205,2.2672 5.46005,5.0067c-0.022,2.7395 -2.50222,4.93953 -5.53972,4.9139z" fill="#b5b5b5" stroke="none" stroke-width="0" stroke-linecap="butt"/><path d="M241.46242,169.48227c-2.18701,-0.01845 -3.951,-1.1438 -3.94,-2.51355c0.011,-1.36975 1.79284,-2.46519 3.97984,-2.44675c2.18701,0.01845 3.951,1.1438 3.94,2.51355c-0.011,1.36975 -1.79284,2.46519 -3.97984,2.44674z" fill="#ffffff" stroke="none" stroke-width="0" stroke-linecap="butt"/><path d="M241.22249,171.96056c-0.72901,-0.00616 -1.31714,-0.36445 -1.31364,-0.80027c0.0035,-0.43582 0.59732,-0.78416 1.32632,-0.778c0.72901,0.00616 1.31714,0.36445 1.31364,0.80027c-0.0035,0.43582 -0.59732,0.78416 -1.32632,0.778z" fill="#ffffff" stroke="none" stroke-width="0" stroke-linecap="butt"/></g><path d="M219.61108,122.24302c0.07093,-4.89188 4.83834,-8.93609 10.21137,-8.8582c5.37302,0.0779 9.02724,4.2484 8.95632,9.14029c-0.07093,4.89188 -4.12352,8.79439 -9.49655,8.7165c-5.37302,-0.0779 -9.74207,-4.1067 -9.67114,-8.99859z" fill="#ffffff" stroke="#000000" stroke-width="1.4" stroke-linecap="butt"/><path d="M246.66736,122.24375c0.20353,-4.88817 4.45264,-8.85847 9.77048,-8.85847c5.31783,0 9.27453,3.96607 9.27453,8.85847c0,4.8924 -3.88585,9.07104 -9.69964,9.14188c-5.52997,0.06739 -9.55792,-4.03692 -9.34537,-9.14188z" fill="#ffffff" stroke="#000000" stroke-width="1.4" stroke-linecap="butt"/><path d="M214.11081,137.56611v-29.96557h29.34129v29.96557z" fill="url(#color-1)" stroke="#0015ff" stroke-width="0" stroke-linecap="butt"/><path d="M240.9607,136.94757v-29.96557h29.34129v29.96557z" fill="url(#color-2)" stroke="#0015ff" stroke-width="0" stroke-linecap="butt"/></g><path d="M214.60122,175.50127l-4.36998,84.90244" fill="none" stroke="#000000" stroke-width="1" stroke-linecap="round"/><path d="M270.78664,266.02225l-1.87284,-4.99426l-1.87285,-81.78104" fill="none" stroke="#000000" stroke-width="1" stroke-linecap="round"/><path d="M251.56254,237.06252l-11.125,5.375" fill="none" stroke="#000000" stroke-width="1.5" stroke-linecap="round"/><path d="M241.43754,235.31252l8.5,12" fill="none" stroke="#000000" stroke-width="1.5" stroke-linecap="round"/><path d="M251.43754,243.81252l-10.875,-5.125" fill="none" stroke="#000000" stroke-width="1.5" stroke-linecap="round"/><path d="M246.68754,234.81252l-2.5,12" fill="none" stroke="#000000" stroke-width="1.5" stroke-linecap="round"/><path d="M240.06254,244.68752l11.25,-5.25" fill="none" stroke="#000000" stroke-width="1.5" stroke-linecap="round"/><path d="M248.56254,248.93752l-9,-12.625" fill="none" stroke="#000000" stroke-width="1.5" stroke-linecap="round"/><g fill="#000000" stroke="#6e6e6e" stroke-width="0.5" stroke-linecap="butt"><path d="M263.01984,191.80619c0.03249,2.56089 -2.01721,4.66323 -4.5781,4.69571c-2.56089,0.03249 0.44423,-2.16058 0.41174,-4.72147c-0.03249,-2.56089 -3.09024,-4.51984 -0.52935,-4.55233c2.56088,-0.03249 4.66322,2.0172 4.6957,4.57809z"/><path d="M253.21684,193.58121l-0.04485,-3.53662l3.11375,-2.39761c0,0 0.41518,1.01085 0.93744,2.00778c0.43669,0.83358 0.83407,1.32079 0.83941,1.74267c0.0041,0.32361 -0.29252,1.30374 -0.66467,2.10059c-0.60304,1.29127 -1.23832,2.79699 -1.23832,2.79699z"/><path d="M262.6296,187.89404c0.00698,0.55048 -0.84758,-0.59574 -2.49827,-1.24341c-0.84395,-0.33114 -1.82321,-0.28695 -2.78747,-0.27472c-0.23847,0.00302 -0.48465,0.05293 -0.69196,0.13228c-0.52065,0.19926 -0.98827,0.5342 -1.44117,0.84296c-1.52228,1.03781 -2.53986,2.43589 -2.54731,1.84837c-0.01055,-0.83193 2.20953,-3.86653 5.05978,-3.90268c2.85025,-0.03615 4.89584,1.76528 4.90639,2.59721z"/></g></g></g></svg>