<svg version="1.1" xmlns="http://www.w3.org/2000/svg" xmlns:xlink="http://www.w3.org/1999/xlink" width="162.2891" height="259.23112" viewBox="0,0,162.2891,259.23112"><defs><linearGradient x1="199.9184" y1="226.97814" x2="280.62381" y2="226.97814" gradientUnits="userSpaceOnUse" id="color-1"><stop offset="0" stop-color="#ffffff"/><stop offset="1" stop-color="#00ff08"/></linearGradient><linearGradient x1="254.27505" y1="199.29974" x2="256.34327" y2="199.29974" gradientUnits="userSpaceOnUse" id="color-2"><stop offset="0" stop-color="#ffffff"/><stop offset="1" stop-color="#00ff08"/></linearGradient><linearGradient x1="243.835" y1="203.32882" x2="259.36018" y2="203.32882" gradientUnits="userSpaceOnUse" id="color-3"><stop offset="0" stop-color="#ffffff"/><stop offset="1" stop-color="#00ff08"/></linearGradient><linearGradient x1="222.23656" y1="199.29974" x2="224.3048" y2="199.29974" gradientUnits="userSpaceOnUse" id="color-4"><stop offset="0" stop-color="#ffffff"/><stop offset="1" stop-color="#00ff08"/></linearGradient><linearGradient x1="219.21969" y1="203.32881" x2="234.74487" y2="203.32881" gradientUnits="userSpaceOnUse" id="color-5"><stop offset="0" stop-color="#ffffff"/><stop offset="1" stop-color="#00ff08"/></linearGradient><linearGradient x1="238.32817" y1="259.63827" x2="241.29385" y2="259.63827" gradientUnits="userSpaceOnUse" id="color-6"><stop offset="0" stop-color="#ffffff"/><stop offset="1" stop-color="#00ff08"/></linearGradient><linearGradient x1="215.74775" y1="227.36613" x2="264.88612" y2="227.36613" gradientUnits="userSpaceOnUse" id="color-7"><stop offset="0" stop-color="#ffffff"/><stop offset="1" stop-color="#00ff08"/></linearGradient><linearGradient x1="227.70832" y1="174.82595" x2="252.375" y2="174.82595" gradientUnits="userSpaceOnUse" id="color-8"><stop offset="0" stop-color="#ffffff"/><stop offset="1" stop-color="#00ff08"/></linearGradient><linearGradient x1="192.68606" y1="98.15927" x2="286.05542" y2="98.15927" gradientUnits="userSpaceOnUse" id="color-9"><stop offset="0" stop-color="#ffffff"/><stop offset="1" stop-color="#00ff08"/></linearGradient><linearGradient x1="212.70305" y1="117.04767" x2="269.46471" y2="117.04767" gradientUnits="userSpaceOnUse" id="color-10"><stop offset="0" stop-color="#ffffff"/><stop offset="1" stop-color="#00ff08"/></linearGradient><linearGradient x1="218.04562" y1="146.00976" x2="260.48678" y2="146.00976" gradientUnits="userSpaceOnUse" id="color-11"><stop offset="0" stop-color="#ffffff"/><stop offset="1" stop-color="#00ff08"/></linearGradient><linearGradient x1="243.70776" y1="146.28165" x2="246.16899" y2="146.28165" gradientUnits="userSpaceOnUse" id="color-12"><stop offset="0" stop-color="#ffffff"/><stop offset="1" stop-color="#00ff08"/></linearGradient><linearGradient x1="239.13986" y1="142.3511" x2="256.08374" y2="142.3511" gradientUnits="userSpaceOnUse" id="color-13"><stop offset="0" stop-color="#ffffff"/><stop offset="1" stop-color="#00ff08"/></linearGradient><linearGradient x1="221.64596" y1="138.0499" x2="241.97264" y2="138.0499" gradientUnits="userSpaceOnUse" id="color-14"><stop offset="0" stop-color="#ffffff"/><stop offset="1" stop-color="#00ff08"/></linearGradient><linearGradient x1="224.15112" y1="144.53774" x2="245.65978" y2="144.53774" gradientUnits="userSpaceOnUse" id="color-15"><stop offset="0" stop-color="#ffffff"/><stop offset="1" stop-color="#00ff08"/></linearGradient><linearGradient x1="220.57046" y1="150.7538" x2="258.48956" y2="150.7538" gradientUnits="userSpaceOnUse" id="color-16"><stop offset="0" stop-color="#ffffff"/><stop offset="1" stop-color="#00ff08"/></linearGradient><linearGradient x1="225.62796" y1="144.69427" x2="246.07034" y2="144.69427" gradientUnits="userSpaceOnUse" id="color-17"><stop offset="0" stop-color="#ffffff"/><stop offset="1" stop-color="#00ff08"/></linearGradient><linearGradient x1="236.71857" y1="131.53301" x2="244.56834" y2="131.53301" gradientUnits="userSpaceOnUse" id="color-18"><stop offset="0" stop-color="#ffffff"/><stop offset="1" stop-color="#00ff08"/></linearGradient><linearGradient x1="237.2887" y1="123.48318" x2="244.17602" y2="123.48318" gradientUnits="userSpaceOnUse" id="color-19"><stop offset="0" stop-color="#ffffff"/><stop offset="1" stop-color="#00ff08"/></linearGradient><linearGradient x1="207.45294" y1="107.33289" x2="214.59408" y2="107.33289" gradientUnits="userSpaceOnUse" id="color-20"><stop offset="0" stop-color="#ffffff"/><stop offset="1" stop-color="#00ff08"/></linearGradient><linearGradient x1="210.02687" y1="107.46498" x2="214.39147" y2="107.46498" gradientUnits="userSpaceOnUse" id="color-21"><stop offset="0" stop-color="#ffffff"/><stop offset="1" stop-color="#00ff08"/></linearGradient><linearGradient x1="217.40402" y1="106.2918" x2="236.57358" y2="106.2918" gradientUnits="userSpaceOnUse" id="color-22"><stop offset="0" stop-color="#ffffff"/><stop offset="1" stop-color="#00ff08"/></linearGradient><linearGradient x1="221.84196" y1="106.41191" x2="231.83213" y2="106.41191" gradientUnits="userSpaceOnUse" id="color-23"><stop offset="0" stop-color="#ffffff"/><stop offset="1" stop-color="#00ff08"/></linearGradient><linearGradient x1="244.4531" y1="106.36442" x2="263.50615" y2="106.36442" gradientUnits="userSpaceOnUse" id="color-24"><stop offset="0" stop-color="#ffffff"/><stop offset="1" stop-color="#00ff08"/></linearGradient><linearGradient x1="249.06391" y1="106.30785" x2="259.27041" y2="106.30785" gradientUnits="userSpaceOnUse" id="color-25"><stop offset="0" stop-color="#ffffff"/><stop offset="1" stop-color="#00ff08"/></linearGradient><linearGradient x1="266.8758" y1="107.33286" x2="274.01692" y2="107.33286" gradientUnits="userSpaceOnUse" id="color-26"><stop offset="0" stop-color="#ffffff"/><stop offset="1" stop-color="#00ff08"/></linearGradient><linearGradient x1="267.07836" y1="107.46498" x2="271.44295" y2="107.46498" gradientUnits="userSpaceOnUse" id="color-27"><stop offset="0" stop-color="#ffffff"/><stop offset="1" stop-color="#00ff08"/></linearGradient><linearGradient x1="167.83333" y1="146.13897" x2="207.83333" y2="146.13897" gradientUnits="userSpaceOnUse" id="color-28"><stop offset="0" stop-color="#ffffff"/><stop offset="1" stop-color="#00ff08"/></linearGradient><linearGradient x1="271.16667" y1="146.27785" x2="312.16667" y2="146.27785" gradientUnits="userSpaceOnUse" id="color-29"><stop offset="0" stop-color="#ffffff"/><stop offset="1" stop-color="#00ff08"/></linearGradient><linearGradient x1="172.91667" y1="144.22922" x2="204.16667" y2="144.22922" gradientUnits="userSpaceOnUse" id="color-30"><stop offset="0" stop-color="#ffffff"/><stop offset="1" stop-color="#00ff08"/></linearGradient><linearGradient x1="274.91667" y1="144.85423" x2="306.91667" y2="144.85423" gradientUnits="userSpaceOnUse" id="color-31"><stop offset="0" stop-color="#ffffff"/><stop offset="1" stop-color="#00ff08"/></linearGradient><linearGradient x1="217.96157" y1="214.24451" x2="253.46894" y2="214.24451" gradientUnits="userSpaceOnUse" id="color-32"><stop offset="0" stop-color="#ffffff"/><stop offset="1" stop-color="#00ff08"/></linearGradient><linearGradient x1="233.65245" y1="149.83087" x2="235.98332" y2="149.83087" gradientUnits="userSpaceOnUse" id="color-33"><stop offset="0" stop-color="#ffffff"/><stop offset="1" stop-color="#00ff08"/></linearGradient><linearGradient x1="220.04165" y1="126.19449" x2="234.54165" y2="126.19449" gradientUnits="userSpaceOnUse" id="color-34"><stop offset="0" stop-color="#ffffff"/><stop offset="1" stop-color="#00ff08"/></linearGradient><linearGradient x1="244.88948" y1="127.9148" x2="259.54413" y2="127.9148" gradientUnits="userSpaceOnUse" id="color-35"><stop offset="0" stop-color="#ffffff"/><stop offset="1" stop-color="#00ff08"/></linearGradient><linearGradient x1="225.54165" y1="122.52539" x2="228.20499" y2="122.52539" gradientUnits="userSpaceOnUse" id="color-36"><stop offset="0" stop-color="#ffffff"/><stop offset="1" stop-color="#00ff08"/></linearGradient><linearGradient x1="251.54165" y1="123.86772" x2="253.96192" y2="123.86772" gradientUnits="userSpaceOnUse" id="color-37"><stop offset="0" stop-color="#ffffff"/><stop offset="1" stop-color="#00ff08"/></linearGradient><linearGradient x1="219.54166" y1="116.94449" x2="234.37499" y2="116.94449" gradientUnits="userSpaceOnUse" id="color-38"><stop offset="0" stop-color="#ffffff"/><stop offset="1" stop-color="#00ff08"/></linearGradient><linearGradient x1="245.70831" y1="117.52781" x2="260.54165" y2="117.52781" gradientUnits="userSpaceOnUse" id="color-39"><stop offset="0" stop-color="#ffffff"/><stop offset="1" stop-color="#00ff08"/></linearGradient><linearGradient x1="219.54165" y1="120.19448" x2="221.54165" y2="120.19448" gradientUnits="userSpaceOnUse" id="color-40"><stop offset="0" stop-color="#ffffff"/><stop offset="1" stop-color="#00ff08"/></linearGradient><linearGradient x1="232.37499" y1="119.19449" x2="234.37499" y2="119.19449" gradientUnits="userSpaceOnUse" id="color-41"><stop offset="0" stop-color="#ffffff"/><stop offset="1" stop-color="#00ff08"/></linearGradient><linearGradient x1="245.54165" y1="121.19448" x2="247.54165" y2="121.19448" gradientUnits="userSpaceOnUse" id="color-42"><stop offset="0" stop-color="#ffffff"/><stop offset="1" stop-color="#00ff08"/></linearGradient><linearGradient x1="257.54165" y1="120.86113" x2="259.54165" y2="120.86113" gradientUnits="userSpaceOnUse" id="color-43"><stop offset="0" stop-color="#ffffff"/><stop offset="1" stop-color="#00ff08"/></linearGradient><linearGradient x1="225.85984" y1="106.52781" x2="227.85984" y2="106.52781" gradientUnits="userSpaceOnUse" id="color-44"><stop offset="0" stop-color="#ffffff"/><stop offset="1" stop-color="#00ff08"/></linearGradient><linearGradient x1="253.26893" y1="106.52782" x2="255.26893" y2="106.52782" gradientUnits="userSpaceOnUse" id="color-45"><stop offset="0" stop-color="#ffffff"/><stop offset="1" stop-color="#00ff08"/></linearGradient><linearGradient x1="202.54236" y1="184.55907" x2="211.22795" y2="184.55907" gradientUnits="userSpaceOnUse" id="color-46"><stop offset="0" stop-color="#ffffff"/><stop offset="1" stop-color="#00ff08"/></linearGradient><linearGradient x1="266.53256" y1="181.23031" x2="275.98066" y2="181.23031" gradientUnits="userSpaceOnUse" id="color-47"><stop offset="0" stop-color="#ffffff"/><stop offset="1" stop-color="#00ff08"/></linearGradient><linearGradient x1="244.211" y1="94.17087" x2="269.28999" y2="94.17087" gradientUnits="userSpaceOnUse" id="color-48"><stop offset="0" stop-color="#ffffff"/><stop offset="1" stop-color="#00ff08"/></linearGradient><linearGradient x1="217.73737" y1="106.69173" x2="236.90693" y2="106.69173" gradientUnits="userSpaceOnUse" id="color-49"><stop offset="0" stop-color="#ffffff"/><stop offset="1" stop-color="#00ff08"/></linearGradient><linearGradient x1="222.17533" y1="106.81186" x2="232.1655" y2="106.81186" gradientUnits="userSpaceOnUse" id="color-50"><stop offset="0" stop-color="#ffffff"/><stop offset="1" stop-color="#00ff08"/></linearGradient><linearGradient x1="245.28647" y1="107.26436" x2="264.33952" y2="107.26436" gradientUnits="userSpaceOnUse" id="color-51"><stop offset="0" stop-color="#ffffff"/><stop offset="1" stop-color="#00ff08"/></linearGradient><linearGradient x1="249.89725" y1="107.20779" x2="260.10375" y2="107.20779" gradientUnits="userSpaceOnUse" id="color-52"><stop offset="0" stop-color="#ffffff"/><stop offset="1" stop-color="#00ff08"/></linearGradient><linearGradient x1="213.50592" y1="94.09588" x2="238.58491" y2="94.09588" gradientUnits="userSpaceOnUse" id="color-53"><stop offset="0" stop-color="#ffffff"/><stop offset="1" stop-color="#00ff08"/></linearGradient><linearGradient x1="244.62213" y1="106.68779" x2="263.79169" y2="106.68779" gradientUnits="userSpaceOnUse" id="color-54"><stop offset="0" stop-color="#ffffff"/><stop offset="1" stop-color="#00ff08"/></linearGradient><linearGradient x1="249.06009" y1="106.80791" x2="259.05026" y2="106.80791" gradientUnits="userSpaceOnUse" id="color-55"><stop offset="0" stop-color="#ffffff"/><stop offset="1" stop-color="#00ff08"/></linearGradient><linearGradient x1="244.55455" y1="105.4268" x2="264.7112" y2="105.4268" gradientUnits="userSpaceOnUse" id="color-56"><stop offset="0" stop-color="#ffffff"/><stop offset="1" stop-color="#00ff08"/></linearGradient><linearGradient x1="218.49713" y1="106.93779" x2="237.66669" y2="106.93779" gradientUnits="userSpaceOnUse" id="color-57"><stop offset="0" stop-color="#ffffff"/><stop offset="1" stop-color="#00ff08"/></linearGradient><linearGradient x1="222.93509" y1="107.05791" x2="232.92526" y2="107.05791" gradientUnits="userSpaceOnUse" id="color-58"><stop offset="0" stop-color="#ffffff"/><stop offset="1" stop-color="#00ff08"/></linearGradient><linearGradient x1="218.42955" y1="105.6768" x2="238.5862" y2="105.6768" gradientUnits="userSpaceOnUse" id="color-59"><stop offset="0" stop-color="#ffffff"/><stop offset="1" stop-color="#00ff08"/></linearGradient><linearGradient x1="155.16517" y1="81.9855" x2="183.27424" y2="81.9855" gradientTransform="translate(-210.86808,-123.41757) scale(1.35899,1.35899)" gradientUnits="userSpaceOnUse" id="color-60"><stop offset="0" stop-color="#ffffff"/><stop offset="1" stop-color="#00ff08"/></linearGradient></defs><g transform="translate(-154.79725,-46.26877)"><g data-paper-data="{&quot;isPaintingLayer&quot;:true}" fill-rule="nonzero" stroke="#ffffff" stroke-linejoin="miter" stroke-miterlimit="10" stroke-dasharray="" stroke-dashoffset="0" style="mix-blend-mode: normal"><path d="M200.71202,304.39162c0,0 -0.63536,-94.38387 -0.79335,-118.01201c-0.05451,-8.15261 8.18688,-36.76129 40.20201,-36.9211c31.60235,-0.15775 39.85672,29.48704 39.84884,36.89673c-0.07659,46.24274 0.65429,117.98648 0.65429,117.98648l-10.49667,0.09614l-0.15882,-114.84311c0,0 0.07549,-3.0993 -2.81625,-3.15415c-3.43441,-0.06514 -2.94538,3.11562 -2.94538,3.11562l0.20548,114.86995l-48.21366,0.07222l-0.30539,-115.23309c0,0 0.27949,-2.919 -2.8856,-2.93443c-3.11083,-0.01515 -2.81569,2.90899 -2.81569,2.90899l0.35311,115.0668z" fill="url(#color-1)" stroke-width="2" stroke-linecap="butt"/><path d="M255.30916,200.33386c-0.57113,0 -1.03411,-0.46299 -1.03411,-1.03411c0,-0.57113 0.46299,-1.03413 1.03411,-1.03413c0.57113,0 1.03411,0.463 1.03411,1.03413c0,0.57113 -0.46299,1.03411 -1.03411,1.03411z" fill="url(#color-2)" stroke-width="1.5" stroke-linecap="butt"/><path d="M250.04932,204.56945c-4.4635,-0.31439 -6.55245,-1.79392 -6.16985,-2.58011c0.11788,-0.24224 2.84645,1.06355 6.97038,1.3048c6.40897,0.37493 8.51033,-0.63173 8.51033,-0.63173v1.34616c0,0 -2.4135,1.04672 -9.31086,0.56089z" fill="url(#color-3)" stroke-width="0" stroke-linecap="butt"/><path d="M222.23656,199.29975c0,-0.57113 0.46299,-1.03413 1.03411,-1.03413c0.57113,0 1.03413,0.463 1.03413,1.03413c0,0.57113 -0.463,1.03411 -1.03413,1.03411c-0.57113,0 -1.03411,-0.46299 -1.03411,-1.03411z" fill="url(#color-4)" stroke-width="1.5" stroke-linecap="butt"/><path d="M228.53055,204.56945c-6.89736,0.48585 -9.31086,-0.56089 -9.31086,-0.56089v-1.34616c0,0 2.10136,1.00666 8.51033,0.63173c4.12393,-0.24126 6.85251,-1.54704 6.97039,-1.3048c0.3826,0.78618 -1.70634,2.26571 -6.16985,2.58011z" fill="url(#color-5)" stroke-width="0" stroke-linecap="butt"/><path d="M239.81101,261.12111c-0.81895,0 -1.48284,-0.66389 -1.48284,-1.48284c0,-0.81895 0.66389,-1.48284 1.48284,-1.48284c0.81895,0 1.48284,0.66389 1.48284,1.48284c0,0.81895 -0.66389,1.48284 -1.48284,1.48284z" data-paper-data="{&quot;index&quot;:null}" fill="url(#color-6)" stroke-width="1.5" stroke-linecap="butt"/><path d="M215.74775,304.40603v-119.20147c0,0 0.75721,-9.73105 0.75721,-14.63937c0,-4.498 -0.75721,-13.6872 -0.75721,-13.6872c0,0 2.67319,-2.35297 4.6557,-3.74807c1.98251,-1.3951 5.17197,-2.80371 5.17197,-2.80371c0,0 -0.6016,40.10902 14.55952,40.03867c15.43477,-0.07162 13.83154,-40.03867 13.83154,-40.03867c0,0 3.91276,1.51959 6.16585,2.94655c2.25309,1.42695 4.75379,3.60523 4.75379,3.60523c0,0 -0.75721,9.42463 -0.75721,14.19201c0,4.84193 0.75721,14.63937 0.75721,14.63937v118.69667z" fill="url(#color-7)" stroke-width="2" stroke-linecap="butt"/><path d="M252.37499,168.86115c0,1 -1,1 -1,1h-0.33334c-0.91536,0 -3.52709,-0.45437 -4.24454,0.32187c-0.59572,0.64453 -0.08879,3.67661 -0.08879,4.51147c0,4.50936 -1.47674,6.4373 -5.91752,7.16325c-2.62784,0 -5.52169,-0.85215 -6.06957,-3.83641c-0.30069,-1.63786 -0.38189,-3.34837 -0.66666,-5c-0.12246,-0.71025 0.1594,-1.70293 -0.62377,-2.20177c-1.39781,-0.89033 -3.13603,-0.96121 -4.72248,-0.95841c0,0 -1,0 -1,-1c0,-1 1,-1 1,-1c2.34083,0.00375 5.58087,0.19815 6.87842,2.52212c2.00923,3.59862 -0.83603,9.48129 5.0391,9.48129c0.78566,-0.1339 2.76129,-0.16737 3.32703,-0.82528c2.26469,-2.63366 -0.87651,-7.64959 1.33333,-10.16666c1.28836,-1.4675 4.04651,-1.01147 5.75546,-1.01147h0.33334c0,0 1,0 1,1z" fill="url(#color-8)" stroke-width="0.5" stroke-linecap="butt"/><path d="M196.10854,95.3802c0,0 6.16329,-5.92187 6.29161,-6.78761c0.33654,-2.27063 -0.16776,-40.17317 35.96775,-41.57382c44.63633,-0.91362 39.01489,35.34872 41.53088,42.1903c3.44981,9.38084 6.15664,17.40016 6.15664,17.40016c0,0 -2.76715,-2.05351 -4.0797,-3.13397c-1.2242,-1.00773 -3.80143,-3.14585 -3.80143,-3.14585c0,0 3.09111,10.3481 1.31092,20.69498c-1.5623,9.48098 -7.29782,17.22543 -7.29782,17.22543l-1.15522,-2.34735c0,0 -1.02266,2.19794 -2.16005,3.33274c-1.1374,1.13479 -3.43873,2.91273 -3.43873,2.91273l-0.09205,-3.70421c0,0 -7.0601,11.01795 -24.35066,10.87154c-16.30625,-0.25547 -26.07151,-10.6752 -26.07151,-10.6752l-0.1162,2.65484c0,0 -3.89477,-3.29276 -6.18145,-9.70754c-2.72545,-7.64567 -3.23946,-12.24324 -3.23946,-12.24324c0,0 -2.33908,1.89916 -5.71704,2.7744c-4.23278,1.09673 -6.94665,0.34526 -6.94665,0.34526c0,0 3.60795,-2.71717 5.58396,-4.76989c1.76007,-1.8284 2.64658,-3.37722 2.64658,-3.37722c0,0 -2.10758,1.0847 -4.23277,1.61795c-2.21739,0.5564 -4.03008,0.53093 -4.03008,0.53093c0,0 4.97492,-5.03728 7.03074,-10.87429c1.94102,-5.51108 2.09972,-10.95731 2.09972,-10.95731c0,0 -1.36165,0.66163 -3.33013,0.79513c-1.24776,0.08463 -2.37785,-0.0489 -2.37785,-0.0489z" fill="url(#color-9)" stroke-width="1.5" stroke-linecap="butt"/><path d="M212.89442,106.70179c-0.57709,-7.29323 0.335,-17.15448 0.335,-17.15448c0,0 3.41059,-0.04124 13.91429,-3.14424c8.0696,-2.38394 20.54731,-9.48722 20.54731,-9.48722c0,0 -2.16005,3.00503 -3.40781,4.46015c-1.32651,1.54696 -3.99292,4.56297 -3.99292,4.56297c0,0 7.838,-1.66761 14.67476,-4.72931c8.56837,-3.53575 10.59252,-6.05309 12.95042,-4.5927c2.7829,1.72362 1.03006,23.1827 0.71846,28.74062c-0.42163,5.66922 -2.53327,9.49969 -3.15031,12.52053c-0.61704,3.02084 -0.4096,6.13662 -2.20622,16.0397c-1.12121,6.18021 -4.16183,8.92466 -10.01942,14.66081c-5.85759,5.73616 -9.05378,9.25275 -13.01359,9.32173c-3.81077,0.06639 -8.93565,-5.1002 -13.93542,-10.38244c-5.32393,-5.62474 -8.87489,-8.47713 -9.71551,-15.13975c-0.75707,-6.00039 -0.77653,-9.90853 -1.12266,-15.24835c-0.25298,-3.90273 -2.26119,-6.44504 -2.57636,-10.42801z" fill="url(#color-10)" stroke-width="1.5" stroke-linecap="butt"/><path d="M260.48677,146.47545c0,0 -4.47588,12.5898 -20.82469,12.7482c-15.55656,0.25538 -21.61646,-15.75707 -21.61646,-15.75707c0,0 2.96575,-10.78857 12.0456,-10.67281c7.23454,0.16487 10.85944,6.22375 10.85944,6.22375c0,0 5.06617,-2.78488 11.04827,-0.34503c5.86553,2.39231 8.48785,7.80297 8.48785,7.80297z" fill="url(#color-11)" stroke-width="0" stroke-linecap="butt"/><path d="M246.16899,146.58403c0,0.12297 -0.72323,0.46768 -1.228,0.46768c-0.52583,0 -1.23323,-0.57887 -1.23323,-0.98878c0,-0.32791 0.7074,-0.69732 1.23323,-0.4924c0.50478,0.26641 1.228,0.87011 1.228,1.01349z" data-paper-data="{&quot;noHover&quot;:false,&quot;origItem&quot;:[&quot;Path&quot;,{&quot;applyMatrix&quot;:true,&quot;segments&quot;:[[[293.59779,354.27433],[0.1875,0.09896],[-0.19532,-0.07612]],[[293.23841,354.37329],[0,-0.1218],[0,0.15226]],[[293.59779,354.62451],[-0.19532,0],[0.1875,0]],[[293.95717,354.52555],[0,0.04568],[0,-0.05328]]],&quot;closed&quot;:true,&quot;fillColor&quot;:[0,0,0]}]}" fill="url(#color-12)" stroke-width="0.5" stroke-linecap="butt"/><path d="M247.3397,139.19358c2.22949,0 3.68821,0.59566 6.0018,2.54259c1.47229,1.3526 2.74224,2.99935 2.74224,3.40926c0,1.47557 -14.47453,-1.91316 -16.66191,-3.57321c-0.84131,-0.67632 0.43783,0.53431 0.75335,-0.73633c1.07075,-0.94567 4.72483,-1.64236 7.16457,-1.64236z" data-paper-data="{&quot;noHover&quot;:false,&quot;origItem&quot;:[&quot;Path&quot;,{&quot;applyMatrix&quot;:true,&quot;segments&quot;:[[[294.55087,351.88399],[0,0],[-0.90624,0]],[[293.37899,352.53105],[0.125,-0.57854],[-0.11718,0.47198]],[[293.64461,353.52829],[-0.3125,-0.25122],[0.8125,0.61662]],[[297.64461,353.97743],[0,0.5481],[0,-0.15226]],[[296.62117,352.77465],[0.54688,0.50242],[-0.85938,-0.72318]],[[294.55085,351.88399],[0.82814,0],[0,0]]],&quot;closed&quot;:true,&quot;fillColor&quot;:[0,0,0]}]}" fill="url(#color-13)" stroke-width="0.5" stroke-linecap="butt"/><path d="M222.73688,138.41355c2.75527,-4.2218 6.06017,-5.44161 10.09841,-3.63813c4.30213,1.49311 8.69485,6.57979 9.07342,7.11262c0.65204,0.81976 -3.83722,-0.61864 -6.46628,-1.49989c-3.02868,-0.94275 -10.56351,-0.82068 -13.25567,0.24504c-0.84131,0.34837 -0.73287,-0.19077 0.55012,-2.21969z" data-paper-data="{&quot;noHover&quot;:false,&quot;origItem&quot;:[&quot;Path&quot;,{&quot;applyMatrix&quot;:true,&quot;segments&quot;:[[[285.44933,351.50335],[0,0],[-0.47656,0.75364]],[[285.23839,352.30267],[-0.3125,0.1294],[1,-0.39586]],[[289.98057,352.20371],[-1.125,-0.35018],[0.97656,0.32734]],[[290.83213,352.22655],[0.2422,0.3045],[-0.14062,-0.19792]],[[290.76181,351.88399],[-0.11718,0],[0.38282,0]],[[289.02743,350.23207],[0.73438,0.32734],[-1.5,-0.6699]],[[285.44931,351.50337],[1.02344,-1.56818],[0,0]]],&quot;closed&quot;:true,&quot;fillColor&quot;:[0,0,0]}]}" fill="url(#color-14)" stroke-width="0.5" stroke-linecap="butt"/><path d="M228.68521,142.07025c2.50286,-0.06149 5.99335,0.25813 7.21322,0.58609c9.47905,2.70455 10.39326,3.24099 9.48885,4.16321c-0.63099,0.67628 -8.23344,-0.56094 -12.58716,-1.56517c-4.81644,-1.08623 -7.21494,-1.0175 -5.30097,-1.28392c1.99813,-0.26641 2.9799,0.06481 -0.15394,-0.28361l-3.19409,-1.47563l4.53414,-0.14102z" data-paper-data="{&quot;noHover&quot;:false,&quot;origItem&quot;:[&quot;Path&quot;,{&quot;applyMatrix&quot;:true,&quot;segments&quot;:[[287.64455,352.92691],[285.97267,352.94975],[[287.28517,353.12483],[0,0],[1.16406,0.12942]],[[287.76173,353.37605],[0.7422,-0.09896],[-0.71094,0.09896]],[[289.02735,353.97745],[-1.78906,-0.40348],[1.61718,0.37302]],[[291.40235,354.14493],[-0.23438,0.2512],[0.33594,-0.34256]],[[290.14453,353.12485],[1.25782,0.37302],[-0.45312,-0.1218]],[[287.64453,352.92693],[0.92968,-0.02284],[0,0]]],&quot;closed&quot;:true,&quot;fillColor&quot;:[0,0,0]}]}" fill="url(#color-15)" stroke-width="0.5" stroke-linecap="butt"/><path d="M221.85541,147.6596c-2.3767,-3.60696 -2.1106,-3.65735 6.49173,-1.23904c8.58128,2.33631 15.5116,2.91066 22.873,1.84494c8.3499,-1.20916 8.60777,-1.01048 5.26362,2.47361c-4.29061,4.48821 -7.73728,6.01392 -14.99352,6.01392c-3.32315,0 -7.53542,-0.48712 -9.00765,-0.95847c-3.84894,-1.20916 -8.46083,-4.77385 -10.62716,-8.13491z" data-paper-data="{&quot;noHover&quot;:false,&quot;origItem&quot;:[&quot;Path&quot;,{&quot;applyMatrix&quot;:true,&quot;segments&quot;:[[[285.12125,354.96707],[0,0],[0.80468,1.24846]],[[289.05093,357.91313],[-1.42968,-0.44914],[0.54688,0.17508]],[[292.28531,358.23285],[-1.23438,0],[2.69532,0]],[[297.78531,356.09373],[-1.59374,1.66714],[1.24218,-1.29414]],[[295.83219,355.19545],[3.10156,-0.44914],[-2.73438,0.39586]],[[287.52751,354.52555],[3.1875,0.86782],[-3.19532,-0.89828]],[[285.12127,354.96707],[-0.88282,-1.3398],[0,0]]],&quot;closed&quot;:true,&quot;fillColor&quot;:[0,0,0]}]}" fill="url(#color-16)" stroke-width="0.5" stroke-linecap="butt"/><path d="M246.07034,145.40978l-0.14171,1.06675l-20.25824,-2.51181l-0.04243,-1.05271z" fill="url(#color-17)" stroke-width="0" stroke-linecap="butt"/><path d="M240.52657,136.12885c-1.03376,0 -3.5381,-3.26042 -3.7867,-5.3637c-0.22243,-1.88186 1.31512,-3.82799 3.7867,-3.82799c2.47159,0 4.2021,0.49077 4.02999,4.18853c-0.14607,3.13818 -1.55841,5.00317 -4.02999,5.00317z" fill="url(#color-18)" stroke-width="1.15" stroke-linecap="butt"/><path d="M244.12867,106.0352c0,0 0.1026,3.96976 0.00576,7.12662c-0.19174,6.25113 -1.08147,27.7607 -1.08147,27.7607l-2.98167,0.00864c0,0 -0.80294,-4.17274 -1.12322,-9.49979c-0.43353,-7.21063 -0.4495,-16.29321 -0.76344,-19.63229c-0.29758,-3.16513 -0.89593,-5.71453 -0.89593,-5.71453" fill="url(#color-19)" stroke-width="1.3" stroke-linecap="round"/><path d="M214.59407,116.82503c0,0 -4.93211,-3.51705 -6.16417,-8.97502c-1.29636,-5.74284 -1.46118,-9.7328 0.48013,-9.99193c1.94131,-0.25915 2.70321,2.37692 3.73262,8.35569c1.0294,5.97877 1.95143,10.61127 1.95143,10.61127z" data-paper-data="{&quot;index&quot;:null}" fill="url(#color-20)" stroke-width="1" stroke-linecap="butt"/><path d="M214.39147,112.87747c0,0 -3.56385,-2.92338 -4.31816,-8.45061c-0.42079,-3.08327 2.15675,-2.28016 2.15675,-2.28016" fill="url(#color-21)" stroke-width="0.25" stroke-linecap="round"/><path d="M217.40488,106.22158c0.07093,-4.89188 4.83834,-8.93609 10.21137,-8.8582c5.37302,0.0779 9.02724,4.2484 8.95632,9.14029c-0.07093,4.89188 -4.12352,8.79439 -9.49655,8.7165c-5.37302,-0.0779 -9.74207,-4.1067 -9.67114,-8.99859z" fill="url(#color-22)" stroke-width="1.4" stroke-linecap="butt"/><path d="M221.8425,106.3395c0.03999,-2.75843 2.30855,-4.96213 5.06696,-4.92214c2.75843,0.03999 4.96213,2.30855 4.92214,5.06696c-0.03999,2.75843 -2.30854,4.96213 -5.06696,4.92214c-2.75843,-0.03999 -4.96213,-2.30855 -4.92214,-5.06696z" fill="url(#color-23)" stroke-width="1.5" stroke-linecap="butt"/><path d="M244.46114,106.2223c0.20353,-4.88817 4.45264,-8.85847 9.77048,-8.85847c5.31783,0 9.27453,3.96607 9.27453,8.85847c0,4.8924 -3.88585,9.07104 -9.69964,9.14188c-5.52997,0.06739 -9.55792,-4.03692 -9.34537,-9.14188z" fill="url(#color-24)" stroke-width="1.4" stroke-linecap="butt"/><path d="M249.06391,106.30785c0,-2.81845 2.2848,-5.10325 5.10325,-5.10325c2.81845,0 5.10325,2.2848 5.10325,5.10325c0,2.81845 -2.28479,5.10325 -5.10325,5.10325c-2.81845,0 -5.10325,-2.2848 -5.10325,-5.10325z" fill="url(#color-25)" stroke-width="1.5" stroke-linecap="butt"/><path d="M268.82722,106.21375c1.0294,-5.97877 1.7913,-8.61483 3.73262,-8.35569c1.94131,0.25914 1.77649,4.24909 0.48013,9.99193c-1.23206,5.45797 -6.16417,8.97502 -6.16417,8.97502c0,0 0.92203,-4.6325 1.95143,-10.61127z" data-paper-data="{&quot;index&quot;:null}" fill="url(#color-26)" stroke-width="1" stroke-linecap="butt"/><path d="M269.23977,102.1467c0,0 2.57754,-0.80312 2.15675,2.28016c-0.75431,5.52723 -4.31816,8.45061 -4.31816,8.45061" data-paper-data="{&quot;index&quot;:null}" fill="url(#color-27)" stroke-width="0.25" stroke-linecap="round"/><path d="M200.49999,181.2223l-1.33333,-3.55556l-31.33333,-66.6111l40,52" fill="url(#color-28)" stroke-width="2" stroke-linecap="round"/><path d="M271.16667,163.66673l41,-52l-32,66l-1,3.22223" fill="url(#color-29)" stroke-width="2" stroke-linecap="round"/><path d="M204.16667,169.47922l-31.25,-50.5" fill="url(#color-30)" stroke-width="2" stroke-linecap="round"/><path d="M306.91667,120.22923l-32,49.25" fill="url(#color-31)" stroke-width="2" stroke-linecap="round"/><path d="M224.09198,203.10198c0.08489,-0.08694 0.14088,-0.1336 0.14088,-0.1336c2.91134,-2.42294 7.20444,-6.31169 11.47234,-5.18742c1.50185,0.39562 2.85636,1.35162 3.97779,2.42609c1.38619,1.32815 0.49111,2.92489 2.45867,3.26563c2.45511,0.42517 8.35602,-1.35524 10.12609,0.64848c3.93395,4.45325 -2.71847,12.5837 -6.68921,14.35648c-0.13487,0.06021 -2.91336,0.70322 -4.93587,1.0456c1.69436,0.52624 3.86239,1.28598 4.12859,1.98772c0.74374,1.96057 -2.68655,7.63522 -4.3864,8.56108c-2.40096,1.30774 -8.1155,0.7029 -10.88487,0.65023c-1.50646,-0.02865 -3.12047,0.41451 -4.51773,-0.14932c-1.43075,-0.57734 -2.83787,-1.66051 -3.46293,-3.07106c-0.59511,-1.34296 0.11896,-2.93559 0.15043,-4.40416c0.04073,-1.90116 -0.24453,-5.17354 0.86787,-6.75772c0.47741,-0.67988 1.60804,-0.41848 2.41562,-0.61334c0.62201,-0.15008 -1.32869,0.01966 -1.90098,-0.26653c-3.04408,-1.52221 -3.9625,-2.04512 -4.64635,-5.63984c-0.28397,-1.49273 -0.81528,-3.24833 -0.04525,-4.55827c0.74826,-1.27292 2.61879,-1.36485 3.92818,-2.04727z" fill="url(#color-32)" stroke-width="0.5" stroke-linecap="butt"/><path d="M234.53955,152.87909c-0.99388,-0.11043 -0.88345,-1.10432 -0.88345,-1.10432l0.11111,-1c0.1127,-1.01428 0.21759,-1.9791 0.21611,-3.00068c0,0 0,-1 1,-1c1,0 1,1 1,1c-0.00144,1.09529 -0.10755,2.13448 -0.22834,3.22154l-0.11111,1c0,0 -0.11043,0.99388 -1.10432,0.88345z" fill="url(#color-33)" stroke-width="0.5" stroke-linecap="butt"/><path d="M233.54165,121.36113c1,0 1,1 1,1c0,0.66666 0,2.16667 0,2.83334c-0.05731,5.14862 -4.22618,5.83936 -8.5,5.83333c-1.11675,-0.00158 -2.74787,-0.00759 -3.71233,-0.66199c-1.98353,-1.34585 -2.28078,-4.98308 -2.28767,-7.17133c0,0 0,-1 1,-1c1,0 1,1 1,1c-0.00507,1.36575 0.08365,4.66131 1.379,5.49533c3.0154,1.9415 9.18143,0.43454 9.121,-3.49533c0,-0.66666 0,-1.33334 0,-2v-0.83334c0,0 0,-1 1,-1z" fill="url(#color-34)" stroke-width="0.5" stroke-linecap="butt"/><path d="M258.54165,123.69448c1,0 1,1 1,1c0,1.05555 0,2.44445 0,3.5c-0.01024,0.91977 0.11694,1.94096 -0.62622,2.7071c-1.7884,1.8437 -7.94217,1.14257 -10.278,0.95705c-0.68009,-0.05402 -2.51673,-0.32614 -2.96955,-0.79038c-1.31681,-1.35002 -0.64821,-5.04217 -0.26304,-6.61631c0,0 0.24254,-0.97014 1.21268,-0.72761c0.97015,0.24254 0.7276,1.21268 0.7276,1.21268c-0.18662,0.72795 -0.90545,4.12607 -0.26304,4.71703c0.38794,0.35686 2.11848,0.20771 2.62623,0.2071c2.11399,-0.00254 7.8753,1.0624 7.83334,-1.66666c0,-1.05555 0,-2.11112 0,-3.16667v-0.33333c0,0 0,-1 1,-1z" fill="url(#color-35)" stroke-width="0.5" stroke-linecap="butt"/><path d="M226.54165,126.52783c-1,0 -1,-1 -1,-1l0.03848,-1.10805c0.48569,-1.64382 0.36534,-3.36521 0.6418,-5.05635c0,0 0.1644,-0.9864 1.15079,-0.822c0.98639,0.1644 0.822,1.15079 0.822,1.15079c-0.30275,1.77643 -0.20591,3.53011 -0.69154,5.27699l0.03848,0.55861c0,0 0,1 -1,1z" fill="url(#color-36)" stroke-width="0.5" stroke-linecap="butt"/><path d="M252.22542,128.47645c-0.94869,-0.31623 -0.63246,-1.26491 -0.63246,-1.26491l0.31151,-0.92482c0.35908,-2.14916 -0.34718,-3.97988 -0.36282,-6.09228c0,0 0,-1 1,-1c1,0 1,1 1,1c-0.02135,2.27081 0.69344,4.2326 0.30384,6.57439l-0.35516,1.07518c0,0 -0.31623,0.94868 -1.26492,0.63245z" fill="url(#color-37)" stroke-width="0.5" stroke-linecap="butt"/><path d="M234.37499,116.69449c0,0.5954 -0.35451,0.8363 -0.64138,0.93377c-0.11132,0.04278 -0.23224,0.06623 -0.35862,0.06623h-0.66667c-4.04797,-0.01503 -8.13184,0.4873 -12.16666,0.5c0,0 -1,0 -1,-1c0,-1 1,-1 1,-1c4.02851,0.01496 8.12327,-0.48727 12.16666,-0.5h0.66667c0,0 0.16369,0 0.35862,0.06623c0.28687,0.09746 0.64138,0.33836 0.64138,0.93377z" fill="url(#color-38)" stroke-width="0.5" stroke-linecap="butt"/><path d="M260.54165,117.52781c0,1 -1,1 -1,1c-4.16666,0 -8.66667,0 -12.83334,0c0,0 -1,0 -1,-1c0,-1 1,-1 1,-1c4.16666,0 8.33334,0 12.5,0h0.33333c0,0 1,0 1,1z" fill="url(#color-39)" stroke-width="0.5" stroke-linecap="butt"/><path d="M219.54165,120.19448c0,-0.55229 0.44771,-1 1,-1c0.55229,0 1,0.44771 1,1c0,0.55229 -0.44771,1 -1,1c-0.55229,0 -1,-0.44771 -1,-1z" fill="url(#color-40)" stroke-width="0.5" stroke-linecap="butt"/><path d="M232.37499,119.19449c0,-0.55228 0.44771,-1 1,-1c0.55229,0 1,0.44772 1,1c0,0.55229 -0.44771,1 -1,1c-0.55229,0 -1,-0.44771 -1,-1z" fill="url(#color-41)" stroke-width="0.5" stroke-linecap="butt"/><path d="M245.54165,121.19448c0,-0.55229 0.44771,-1 1,-1c0.55229,0 1,0.44771 1,1c0,0.55229 -0.44771,1 -1,1c-0.55229,0 -1,-0.44771 -1,-1z" fill="url(#color-42)" stroke-width="0.5" stroke-linecap="butt"/><path d="M257.54165,120.86113c0,-0.55229 0.44772,-1 1,-1c0.55228,0 1,0.44771 1,1c0,0.55229 -0.44772,1 -1,1c-0.55228,0 -1,-0.44771 -1,-1z" fill="url(#color-43)" stroke-width="0.5" stroke-linecap="butt"/><path d="M225.85984,106.52781c0,-0.55228 0.44771,-1 1,-1c0.55229,0 1,0.44772 1,1c0,0.55228 -0.44771,1 -1,1c-0.55229,0 -1,-0.44772 -1,-1z" fill="url(#color-44)" stroke-width="0.5" stroke-linecap="butt"/><path d="M253.26893,106.52782c0,-0.55228 0.44771,-1 1,-1c0.55229,0 1,0.44772 1,1c0,0.55228 -0.44771,1 -1,1c-0.55229,0 -1,-0.44772 -1,-1z" fill="url(#color-45)" stroke-width="0.5" stroke-linecap="butt"/><path d="M203.22542,194.17092c-0.94868,-0.31623 -0.63246,-1.26491 -0.63246,-1.26491l0.3219,-0.96336c1.38154,-5.39829 1.29389,-14.03765 6.84624,-16.94817c0,0 0.89443,-0.44721 1.34164,0.44721c0.44721,0.89443 -0.44721,1.34164 -0.44721,1.34164c-1.78267,0.83165 -2.13005,2.13677 -2.86603,3.84346c-1.59187,3.69143 -1.98256,7.91369 -2.95439,11.87503l-0.34477,1.03664c0,0 -0.31623,0.94868 -1.26491,0.63246z" fill="url(#color-46)" stroke-width="0.5" stroke-linecap="butt"/><path d="M274.22541,189.17093c-0.94868,-0.31623 -0.63246,-1.26491 -0.63246,-1.26491l0.29493,-0.84395c-0.03921,-4.57467 -1.67922,-5.82369 -4.45292,-9.20583c-0.95547,-1.16506 -0.58472,-2.46696 -2.13586,-2.66385c0,0 -0.97014,-0.24254 -0.72761,-1.21268c0.24254,-0.97014 1.21268,-0.72761 1.21268,-0.72761c2.39955,0.75499 1.74143,1.62113 3.19747,3.33615c1.84487,2.173 4.06831,3.81869 4.86657,6.73757c0.28591,1.04545 0.02103,3.03944 0.01384,4.0566l-0.37174,1.15605c0,0 -0.31623,0.94868 -1.26491,0.63246z" fill="url(#color-47)" stroke-width="0.5" stroke-linecap="butt"/><path d="M260.38974,92.83139c0,0 1.52429,0.31807 4.2558,1.11029c2.49492,0.72361 4.44935,1.74403 4.44935,1.74403l0.1951,1.17035c0,0 -7.24963,-3.12997 -15.1158,-2.4706c-6.2896,0.52724 -9.96319,2.8124 -9.96319,2.8124l0.04575,-4.17683c0,0 3.12748,-1.70421 7.86366,-1.85557c4.90428,-0.15672 8.09084,0.59125 8.09084,0.59125z" data-paper-data="{&quot;index&quot;:null}" fill="url(#color-48)" stroke-width="1.5" stroke-linecap="butt"/><path d="M217.73823,106.62151c0.07093,-4.89188 4.83834,-8.93609 10.21137,-8.8582c5.37302,0.0779 9.02724,4.2484 8.95632,9.14029c-0.07093,4.89188 -4.12352,8.79439 -9.49655,8.7165c-5.37302,-0.0779 -9.74207,-4.1067 -9.67114,-8.99859z" fill="url(#color-49)" stroke-width="1.4" stroke-linecap="butt"/><path d="M222.17587,106.73945c0.03999,-2.75843 2.30855,-4.96213 5.06696,-4.92214c2.75843,0.03999 4.96213,2.30855 4.92214,5.06696c-0.03999,2.75843 -2.30854,4.96213 -5.06696,4.92214c-2.75843,-0.03999 -4.96213,-2.30855 -4.92214,-5.06696z" fill="url(#color-50)" stroke-width="1.5" stroke-linecap="butt"/><path d="M245.29451,107.12224c0.20353,-4.88817 4.45264,-8.85847 9.77048,-8.85847c5.31783,0 9.27453,3.96607 9.27453,8.85847c0,4.8924 -3.88585,9.07104 -9.69964,9.14188c-5.52997,0.06739 -9.55792,-4.03692 -9.34537,-9.14188z" fill="url(#color-51)" stroke-width="1.4" stroke-linecap="butt"/><path d="M249.89725,107.20779c0,-2.81845 2.2848,-5.10325 5.10325,-5.10325c2.81845,0 5.10325,2.2848 5.10325,5.10325c0,2.81845 -2.28479,5.10325 -5.10325,5.10325c-2.81845,0 -5.10325,-2.2848 -5.10325,-5.10325z" fill="url(#color-52)" stroke-width="1.5" stroke-linecap="butt"/><path d="M222.58466,91.68172c0,0 3.18656,-0.74797 8.09084,-0.59125c4.73618,0.15136 7.86366,1.85557 7.86366,1.85557l0.04575,4.17683c0,0 -3.67359,-2.28516 -9.96319,-2.8124c-7.86617,-0.65937 -15.1158,2.4706 -15.1158,2.4706l0.1951,-1.17035c0,0 1.95443,-1.02042 4.44935,-1.74403c2.73151,-0.79222 4.2558,-1.11029 4.2558,-1.11029z" data-paper-data="{&quot;index&quot;:null}" fill="url(#color-53)" stroke-width="1.5" stroke-linecap="butt"/><path d="M244.62299,106.61757c0.07093,-4.89188 4.83834,-8.93609 10.21137,-8.8582c5.37302,0.0779 9.02724,4.2484 8.95632,9.14029c-0.07093,4.89188 -4.12352,8.79439 -9.49655,8.7165c-5.37302,-0.0779 -9.74207,-4.1067 -9.67114,-8.99859z" fill="url(#color-54)" stroke-width="1.4" stroke-linecap="butt"/><path d="M249.06063,106.7355c0.03999,-2.75843 2.30855,-4.96213 5.06696,-4.92214c2.75843,0.03999 4.96213,2.30855 4.92214,5.06696c-0.03999,2.75843 -2.30854,4.96213 -5.06696,4.92214c-2.75843,-0.03999 -4.96213,-2.30855 -4.92214,-5.06696z" fill="url(#color-55)" stroke-width="1.5" stroke-linecap="butt"/><path d="M244.55455,106.08539c0,0 0.06357,-9.01512 10.60111,-8.8249c9.47101,0.16586 9.55554,9.40723 9.55554,9.40723c0,0 -2.11763,6.92217 -10.5084,6.92835c-8.54416,0.00629 -9.64825,-7.51068 -9.64825,-7.51068z" fill="url(#color-56)" stroke-width="1.15" stroke-linecap="butt"/><path d="M218.49799,106.86757c0.07093,-4.89188 4.83834,-8.93609 10.21137,-8.8582c5.37302,0.0779 9.02724,4.2484 8.95632,9.14029c-0.07093,4.89188 -4.12352,8.79439 -9.49655,8.7165c-5.37302,-0.0779 -9.74207,-4.1067 -9.67114,-8.99859z" fill="url(#color-57)" stroke-width="1.4" stroke-linecap="butt"/><path d="M222.93563,106.9855c0.03999,-2.75843 2.30855,-4.96213 5.06696,-4.92214c2.75843,0.03999 4.96213,2.30855 4.92214,5.06696c-0.03999,2.75843 -2.30854,4.96213 -5.06696,4.92214c-2.75843,-0.03999 -4.96213,-2.30855 -4.92214,-5.06696z" fill="url(#color-58)" stroke-width="1.5" stroke-linecap="butt"/><path d="M218.42955,106.33539c0,0 0.06357,-9.01512 10.60111,-8.8249c9.47101,0.16586 9.55554,9.40723 9.55554,9.40723c0,0 -2.11763,6.92217 -10.5084,6.92835c-8.54416,0.00629 -9.64825,-7.51068 -9.64825,-7.51068z" fill="url(#color-59)" stroke-width="1.15" stroke-linecap="butt"/><text transform="translate(155.16517,90.81558) scale(0.73584,0.73584)" font-size="40" xml:space="preserve" fill="url(#color-60)" fill-rule="nonzero" stroke="#ffffff" stroke-width="1" stroke-linecap="butt" stroke-linejoin="miter" stroke-miterlimit="10" stroke-dasharray="" stroke-dashoffset="0" font-family="Sans Serif" font-weight="normal" text-anchor="start" style="mix-blend-mode: normal"><tspan x="0" dy="0">C-</tspan></text></g></g></svg>