<svg version="1.1" xmlns="http://www.w3.org/2000/svg" xmlns:xlink="http://www.w3.org/1999/xlink" width="662.2435" height="500.47918" viewBox="0,0,662.2435,500.47918"><defs><linearGradient x1="246.00601" y1="-13.44344" x2="246.00601" y2="379.94995" gradientUnits="userSpaceOnUse" id="color-1"><stop offset="0" stop-color="#ed810b"/><stop offset="1" stop-color="#ffeb00"/></linearGradient></defs><g transform="translate(81.77565,43.25436)"><g data-paper-data="{&quot;isPaintingLayer&quot;:true}" fill-rule="nonzero" stroke-linejoin="miter" stroke-miterlimit="10" stroke-dasharray="" stroke-dashoffset="0" style="mix-blend-mode: normal"><path d="M-32.52252,379.94995v-393.39339h557.05706v393.39339z" fill="url(#color-1)" stroke="none" stroke-width="0" stroke-linecap="butt"/><g fill="none" stroke="#000000" stroke-width="6" stroke-linecap="round"><path d="M204.71472,418.98899l-151.65165,-447.44744l80.68694,24.04179l-49,86l98.5,48l-62,86.25l109,41.98899l-66.5,87.75l115.22748,36.58333z"/><path d="M270.78078,400.97097l-150.15015,-439.93994l-63.88063,33.55231l102.5,69l-52.5,86l98.5,39.25l-62.5,84.98899l110.5,47.75l-81.27252,78.58333z"/></g><g data-paper-data="{&quot;index&quot;:null}" fill="none" stroke="#000000" stroke-width="6" stroke-linecap="round"><path d="M217.22223,405.17367l115.22748,-36.58334l-66.5,-87.75l109,-41.98898l-62,-86.25l98.5,-48l-49,-86l80.68694,-24.04179l-151.65165,447.44745z"/><path d="M225.41892,423.98899l150.15015,-439.93994l63.88063,33.55231l-102.5,69l52.5,86l-98.5,39.25l62.5,84.98898l-110.5,47.75l81.27252,78.58334z"/></g><g data-paper-data="{&quot;index&quot;:null}" fill="none" stroke="#000000" stroke-width="6" stroke-linecap="round"><path d="M372.37237,424.48448l-151.65165,-447.44744l80.68693,24.04179l-49,86l98.5,48l-62,86.25l109,41.98899l-66.5,87.75l115.22748,36.58333z"/><path d="M339.63513,405.65115l81.27252,-78.58333l-110.5,-47.75l62.5,-84.98899l-98.5,-39.25l52.5,-86l-102.5,-69l63.88063,-33.55231l150.15015,439.93994z"/></g><g fill="none" stroke="#000000" stroke-width="6" stroke-linecap="round"><path d="M74.57958,443.50851l-151.65165,-447.44744l80.68693,24.04179l-49,86l98.5,48l-62,86.25l109,41.98899l-66.5,87.75l115.22748,36.58333z"/><path d="M140.64565,425.49049l-150.15015,-439.93994l-63.88063,33.55231l102.5,69l-52.5,86l98.5,39.25l-62.5,84.98899l110.5,47.75l-81.27252,78.58333z"/></g><g data-paper-data="{&quot;index&quot;:null}" fill="none" stroke="#000000" stroke-width="6" stroke-linecap="round"><path d="M349.84985,416.17968l115.22747,-36.58334l-66.5,-87.75l109,-41.98898l-62,-86.25l98.5,-48l-49,-86l80.68693,-24.04179l-151.65165,447.44745z"/><path d="M358.04655,434.99499l150.15015,-439.93994l63.88063,33.55231l-102.5,69l52.5,86l-98.5,39.25l62.5,84.98898l-110.5,47.75l81.27252,78.58334z"/></g></g></g></svg>