<svg version="1.1" xmlns="http://www.w3.org/2000/svg" xmlns:xlink="http://www.w3.org/1999/xlink" width="93.36936" height="253.22501" viewBox="0,0,93.36936,253.22501"><defs><linearGradient x1="236.24122" y1="152.33497" x2="236.24122" y2="304.13899" gradientUnits="userSpaceOnUse" id="color-1"><stop offset="0" stop-color="#8000ff"/><stop offset="1" stop-color="#1a1a1a"/></linearGradient></defs><g transform="translate(-193.31532,-58.99669)"><g data-paper-data="{&quot;isPaintingLayer&quot;:true}" fill-rule="nonzero" stroke-linejoin="miter" stroke-miterlimit="10" stroke-dasharray="" stroke-dashoffset="0" style="mix-blend-mode: normal"><path d="M194.40898,312.2217v-253.22501h91.18203v253.22501z" fill-opacity="0.01" fill="#000000" stroke="none" stroke-width="0" stroke-linecap="butt"/><path d="M201.38457,305.09389c0,0 -0.63536,-94.38387 -0.79335,-118.01201c-0.05451,-8.15261 8.18688,-36.76129 40.20201,-36.9211c31.60235,-0.15775 39.85672,29.48704 39.84884,36.89673c-0.07659,46.24274 0.65429,117.98648 0.65429,117.98648l-10.49667,0.09614l-0.15882,-114.84311c0,0 0.07549,-3.0993 -2.81625,-3.15415c-3.43441,-0.06514 -2.94538,3.11562 -2.94538,3.11562l-2.46119,115.20328l-42.21366,-0.26111l-3.63872,-115.23309c0,0 0.27949,-2.919 -2.8856,-2.93443c-3.11083,-0.01515 -2.81569,2.90899 -2.81569,2.90899l0.35311,115.0668z" fill="#ffffff" stroke="#000000" stroke-width="2" stroke-linecap="butt"/><path d="M216.23286,304.13895v-116.10693c0,0 -2.83488,3.15661 -5.26634,12.75061c-1.29734,5.11903 1.03136,16.81832 -0.67351,20.83178c-4.1397,9.74536 -12.26858,9.52044 -12.26858,7.33107c0,-1.09287 -2.38612,-13.65762 -0.1974,-21.53801c0.9305,-3.35021 7.6317,-0.55679 7.64206,-4.30305c0.01376,-4.97499 -8.01734,-6.504 -9.81695,-11.30212c-1.45432,-3.8775 3.10498,-11.08627 4.09085,-14.63392c3.37729,-12.1532 15.19676,-19.74481 15.19676,-19.74481c0,0 3.9663,-0.99878 5.94881,-2.35766c1.98251,-1.35888 4.3099,-2.73093 4.3099,-2.73093c0,0 -1.38459,16.69067 10.81645,21.25281c0.89079,0.33308 3.57355,19.47525 4.60514,19.47059c1.2134,-0.00548 1.35373,-8.72673 3.74438,-9.12447c1.92229,-0.31982 6.21362,7.94128 6.74025,6.12641c1.4955,-5.15383 -3.13942,-15.97222 -1.98881,-19.02602c4.34998,-11.54513 5.33572,-16.97516 5.33572,-16.97516c0,0 5.63691,0.18703 7.89,1.57695c2.25309,1.3899 6.47794,4.37371 6.47794,4.37371c0,0 8.29457,7.88685 8.29457,12.53047c0,1.94346 -5.87338,-0.60415 -8.21806,2.31732c-3.34521,4.16813 -3.52482,13.66615 -3.52482,13.66615v115.61524z" fill="url(#color-1)" stroke="#000000" stroke-width="2" stroke-linecap="butt"/><path d="" data-paper-data="{&quot;index&quot;:null}" fill="#000000" stroke="none" stroke-width="1.5" stroke-linecap="butt"/><path d="" fill="#ffffff" stroke="none" stroke-width="0.5" stroke-linecap="butt"/><path d="" fill="#000000" stroke="none" stroke-width="0.5" stroke-linecap="butt"/><path d="" fill="#ff0000" stroke="none" stroke-width="0.5" stroke-linecap="butt"/><path d="" fill="#000000" stroke="none" stroke-width="0.5" stroke-linecap="butt"/><path d="" fill="#000000" stroke="none" stroke-width="0.5" stroke-linecap="butt"/><path d="" fill="#000000" stroke="none" stroke-width="0.5" stroke-linecap="butt"/><path d="" fill="#000000" stroke="none" stroke-width="0.5" stroke-linecap="butt"/><path d="" fill="#000000" stroke="none" stroke-width="0.5" stroke-linecap="butt"/><path d="" fill="#000000" stroke="none" stroke-width="0.5" stroke-linecap="butt"/><path d="M196.7378,109.48936c0,0 6.16329,-5.92187 6.29161,-6.78761c0.33654,-2.27063 -0.16776,-40.17317 35.96775,-41.57382c44.63633,-0.91362 39.01489,35.34872 41.53088,42.1903c3.44981,9.38084 6.15664,17.40016 6.15664,17.40016c0,0 -2.76715,-2.05351 -4.0797,-3.13397c-1.2242,-1.00773 -3.80143,-3.14585 -3.80143,-3.14585c0,0 3.09111,10.3481 1.31092,20.69498c-1.5623,9.48098 -7.29782,17.22543 -7.29782,17.22543l-1.15522,-2.34735c0,0 -1.02266,2.19794 -2.16005,3.33274c-1.1374,1.13479 -3.43873,2.91273 -3.43873,2.91273l-0.09205,-3.70421c0,0 -7.0601,11.01795 -24.35066,10.87154c-16.30625,-0.25547 -26.07151,-10.6752 -26.07151,-10.6752l-0.1162,2.65484c0,0 -3.89477,-3.29276 -6.18145,-9.70754c-2.72545,-7.64567 -3.23946,-12.24324 -3.23946,-12.24324c0,0 -2.33908,1.89916 -5.71704,2.7744c-4.23278,1.09673 -6.94665,0.34526 -6.94665,0.34526c0,0 3.60795,-2.71717 5.58396,-4.76989c1.76007,-1.8284 2.64658,-3.37722 2.64658,-3.37722c0,0 -2.10758,1.0847 -4.23277,1.61795c-2.21739,0.5564 -4.03008,0.53093 -4.03008,0.53093c0,0 4.97492,-5.03728 7.03074,-10.87429c1.94102,-5.51108 2.09972,-10.95731 2.09972,-10.95731c0,0 -1.36165,0.66163 -3.33013,0.79513c-1.24776,0.08463 -2.37785,-0.0489 -2.37785,-0.0489z" fill="#000000" stroke="none" stroke-width="1.5" stroke-linecap="butt"/><path d="M213.52369,120.81098c-0.57709,-7.29323 0.335,-17.15448 0.335,-17.15448c0,0 3.41059,-0.04124 13.91429,-3.14424c8.0696,-2.38394 20.54731,-9.48722 20.54731,-9.48722c0,0 -2.16005,3.00503 -3.40781,4.46015c-1.32651,1.54696 -3.99292,4.56297 -3.99292,4.56297c0,0 7.838,-1.66761 14.67476,-4.72931c8.56837,-3.53575 10.59252,-6.05309 12.95042,-4.5927c2.7829,1.72362 1.03006,23.1827 0.71846,28.74062c-0.42163,5.66922 -2.53327,9.49969 -3.15031,12.52053c-0.61704,3.02084 -0.4096,6.13662 -2.20622,16.0397c-1.12121,6.18021 -4.16183,8.92466 -10.01942,14.66081c-5.85759,5.73616 -9.05378,9.25275 -13.01359,9.32173c-3.81077,0.06639 -8.93565,-5.1002 -13.93542,-10.38244c-5.32393,-5.62474 -8.87489,-8.47713 -9.71551,-15.13975c-0.75707,-6.00039 -0.77653,-9.90853 -1.12266,-15.24835c-0.25298,-3.90273 -2.26119,-6.44504 -2.57636,-10.42801z" fill="#ffffff" stroke="#000000" stroke-width="1.5" stroke-linecap="butt"/><path d="M261.71089,108.81927c0,0 1.45102,0.56497 4.01459,1.79659c2.34152,1.12494 4.10102,2.45356 4.10102,2.45356l-0.00048,1.1865c0,0 -6.63456,-4.28211 -14.50182,-4.92833c-6.29047,-0.51669 -10.29048,1.13171 -10.29048,1.13171l0.73359,-4.11216c0,0 3.3656,-1.1654 8.06195,-0.53403c4.86303,0.65379 7.88272,1.91677 7.88272,1.91677z" data-paper-data="{&quot;index&quot;:null}" fill="#000000" stroke="none" stroke-width="1.5" stroke-linecap="butt"/><path d="M215.22333,130.9342c0,0 -4.93211,-3.51705 -6.16417,-8.97502c-1.29636,-5.74284 -1.46118,-9.7328 0.48013,-9.99193c1.94131,-0.25915 2.70321,2.37692 3.73262,8.35569c1.0294,5.97877 1.95143,10.61127 1.95143,10.61127z" data-paper-data="{&quot;index&quot;:null}" fill="#ffffff" stroke="#000000" stroke-width="1" stroke-linecap="butt"/><path d="M215.02074,126.98664c0,0 -3.56385,-2.92338 -4.31816,-8.45061c-0.42079,-3.08327 2.15675,-2.28016 2.15675,-2.28016" fill="none" stroke="#000000" stroke-width="0.25" stroke-linecap="round"/><path d="M216.79123,122.0961c0.07093,-4.89188 4.83834,-8.93609 10.21137,-8.8582c5.37302,0.0779 9.02724,4.2484 8.95632,9.14029c-0.07093,4.89188 -4.12352,8.79439 -9.49655,8.7165c-5.37302,-0.0779 -9.74207,-4.1067 -9.67114,-8.99859z" fill="#8e8e8e" stroke="none" stroke-width="0" stroke-linecap="butt"/><path d="M246.49818,122.09683c0.20353,-4.88817 4.45264,-8.85847 9.77048,-8.85847c5.31783,0 9.27453,3.96607 9.27453,8.85847c0,4.8924 -3.88585,9.07104 -9.69964,9.14188c-5.52997,0.06739 -9.55792,-4.03692 -9.34537,-9.14188z" fill="#8e8e8e" stroke="none" stroke-width="0" stroke-linecap="butt"/><path d="M218.03414,120.33074c0.07093,-4.89188 4.83834,-8.93609 10.21137,-8.8582c5.37302,0.0779 9.02724,4.2484 8.95632,9.14029c-0.07093,4.89188 -4.12352,8.79439 -9.49655,8.7165c-5.37302,-0.0779 -9.74207,-4.1067 -9.67114,-8.99859z" fill="#ffffff" stroke="#000000" stroke-width="1.4" stroke-linecap="butt"/><path d="M222.47178,120.44869c0.03999,-2.75843 2.30855,-4.96213 5.06696,-4.92214c2.75843,0.03999 4.96213,2.30855 4.92214,5.06696c-0.03999,2.75843 -2.30854,4.96213 -5.06696,4.92214c-2.75843,-0.03999 -4.96213,-2.30855 -4.92214,-5.06696z" fill="#000000" stroke="none" stroke-width="1.5" stroke-linecap="butt"/><path d="M245.09042,120.33147c0.20353,-4.88817 4.45264,-8.85847 9.77048,-8.85847c5.31783,0 9.27453,3.96607 9.27453,8.85847c0,4.8924 -3.88585,9.07104 -9.69964,9.14188c-5.52997,0.06739 -9.55792,-4.03692 -9.34537,-9.14188z" fill="#ffffff" stroke="#000000" stroke-width="1.4" stroke-linecap="butt"/><path d="M249.69317,120.41702c0,-2.81845 2.2848,-5.10325 5.10325,-5.10325c2.81845,0 5.10325,2.2848 5.10325,5.10325c0,2.81845 -2.28479,5.10325 -5.10325,5.10325c-2.81845,0 -5.10325,-2.2848 -5.10325,-5.10325z" fill="#000000" stroke="none" stroke-width="1.5" stroke-linecap="butt"/><path d="M221.47533,110.03611c0,0 3.21438,-2.08109 7.82565,-2.91304c5.10986,-0.92192 7.73838,-0.68356 7.73838,-0.68356l0.62303,4.10093c0,0 -3.87751,-0.37362 -8.034,0.11785c-5.55881,0.65727 -6.50995,1.95658 -10.71293,2.75145c-3.60134,0.68108 -6.70329,0.69387 -6.70329,0.69387l-0.12371,-1.22559c0,0 3.58968,-0.21202 5.21172,-0.48416c1.33877,-0.22461 3.88855,-1.25114 3.88855,-1.25114z" fill="#000000" stroke="none" stroke-width="1.5" stroke-linecap="butt"/><path d="M269.45649,120.32293c1.0294,-5.97877 1.7913,-8.61483 3.73262,-8.35569c1.94131,0.25914 1.77649,4.24909 0.48013,9.99193c-1.23206,5.45797 -6.16417,8.97502 -6.16417,8.97502c0,0 0.92203,-4.6325 1.95143,-10.61127z" data-paper-data="{&quot;index&quot;:null}" fill="#ffffff" stroke="#000000" stroke-width="1" stroke-linecap="butt"/><path d="M269.86905,116.25587c0,0 2.57754,-0.80312 2.15675,2.28016c-0.75431,5.52723 -4.31816,8.45061 -4.31816,8.45061" data-paper-data="{&quot;index&quot;:null}" fill="none" stroke="#000000" stroke-width="0.25" stroke-linecap="round"/><path d="M217.692,120.2383c0,0 0.06357,-9.01512 10.60111,-8.8249c9.47101,0.16586 9.55554,9.40723 9.55554,9.40723c0,0 -2.86442,-1.33791 -10.11316,-1.38243c-7.29086,-0.04478 -10.04349,0.8001 -10.04349,0.8001z" fill="#ffffff" stroke="#000000" stroke-width="1.15" stroke-linecap="butt"/><path d="M244.43908,120.36921c0,0 -0.24686,-9.4582 11.19813,-9.1032c9.71427,0.33347 9.54677,9.65229 9.54677,9.65229c0,0 -3.69266,-0.79269 -10.11723,-0.78109c-9.70875,0.01753 -10.62767,0.232 -10.62767,0.232z" fill="#ffffff" stroke="#000000" stroke-width="1.15" stroke-linecap="butt"/><path d="M241.15583,150.23804c-1.03376,0 -3.5381,-3.26042 -3.7867,-5.3637c-0.22243,-1.88186 1.31512,-3.82799 3.7867,-3.82799c2.47159,0 4.2021,0.49077 4.02999,4.18853c-0.14607,3.13818 -1.55841,5.00317 -4.02999,5.00317z" fill="#ffffff" stroke="#000000" stroke-width="1.15" stroke-linecap="butt"/><path d="M243.87245,212.07852c-0.35536,1.19842 -1.55379,0.84306 -1.55379,0.84306l-2.29003,-0.67936c-5.34594,-1.33662 -10.45572,-3.59688 -15.76134,-4.90987c0,0 -1.21268,-0.30317 -0.90951,-1.51585c0.30317,-1.21268 1.51585,-0.90951 1.51585,-0.90951c5.32497,1.34329 10.44523,3.58158 15.81369,4.92356l2.34208,0.69418c0,0 1.19842,0.35536 0.84306,1.55379z" fill="#1d003a" stroke="none" stroke-width="0.5" stroke-linecap="butt"/><path d="M250.80762,222.24792c-0.17987,1.23699 -1.41686,1.05712 -1.41686,1.05712l-2.43328,-0.35848c-7.73492,-2.51533 -15.63864,-4.61125 -23.25696,-7.46677c0,0 -1.17041,-0.4389 -0.73151,-1.60932c0.4389,-1.17041 1.60932,-0.73151 1.60932,-0.73151c7.51876,2.8209 15.32433,4.86302 22.94978,7.37359l2.2224,0.31851c0,0 1.23699,0.17987 1.05712,1.41686z" fill="#1d003a" stroke="none" stroke-width="0.5" stroke-linecap="butt"/><path d="M243.12688,248.77055c0.88388,0.88388 0,1.76777 0,1.76777l-1.05258,1.01825c-1.88301,1.24381 -3.03348,2.82289 -4.46811,4.49383c-2.12756,2.47801 -4.5946,4.10112 -6.39218,6.79749c0,0 -0.69338,1.04006 -1.73344,0.34669c-1.04006,-0.69338 -0.34669,-1.73344 -0.34669,-1.73344c1.86393,-2.7959 4.35989,-4.44896 6.53895,-6.99571c1.59469,-1.86378 2.93417,-3.59103 5.01471,-4.98899l0.67157,-0.7059c0,0 0.88388,-0.88388 1.76777,0z" fill="#1d003a" stroke="none" stroke-width="0.5" stroke-linecap="butt"/><path d="M251.55074,243.49194c0.55902,1.11803 -0.55902,1.67705 -0.55902,1.67705l-0.38103,0.00638c-3.80824,5.71236 -7.64323,12.52218 -9.76807,19.09859c0,0 -0.39528,1.18585 -1.58114,0.79057c-1.18585,-0.39528 -0.79057,-1.58114 -0.79057,-1.58114c2.32185,-6.80115 6.09268,-13.74432 10.05965,-19.69477l1.34312,-0.8557c0,0 1.11803,-0.55902 1.67705,0.55902z" fill="#1d003a" stroke="none" stroke-width="0.5" stroke-linecap="butt"/><path d="M262.45864,166.03319c0,1.25 -1.25,1.25 -1.25,1.25l-1.6884,-0.06415c-0.87762,-0.65822 -1.95726,-1.28186 -3.05301,-1.22897c0,0 -1.25,0 -1.25,-1.25c0,-1.25 1.25,-1.25 1.25,-1.25c1.35811,0.0411 2.7566,0.54202 3.84358,1.35726l0.89783,-0.06415c0,0 1.25,0 1.25,1.25z" fill="#1d003a" stroke="none" stroke-width="0.5" stroke-linecap="butt"/><path d="M266.83393,170.36538c-0.88388,0.88388 -1.76777,0 -1.76777,0l0.45285,-0.06492c-2.73223,-0.01174 -5.41981,-0.43104 -8.18971,-0.43104c0,0 -1.25,0 -1.25,-1.25c0,-1.25 1.25,-1.25 1.25,-1.25c2.7582,0 5.47715,0.44514 8.18971,0.43104l1.31492,0.79715c0,0 0.88388,0.88388 0,1.76777z" fill="#1d003a" stroke="none" stroke-width="0.5" stroke-linecap="butt"/><g stroke="none" stroke-linecap="butt"><path d="M261.23501,157.00157c0,0 -8.80504,14.21875 -24.14929,14.21875c-12.41023,0 -18.95833,-17.15277 -18.95833,-17.15277c0,0 8.40233,-8.5788 11.32441,-8.48271c4.58274,0.06906 12.40999,4.94116 12.40999,4.94116c0,0 5.25064,-4.28875 9.21776,-2.32142c4.73512,2.90518 10.15546,8.79699 10.15546,8.79699z" fill="#000000" stroke-width="0"/><path d="M251.9042,150.5774c2.20052,0.92776 6.53174,5.487 5.30454,5.487c-1.73502,0 -15.76756,-3.26633 -16.23307,-3.80236c-0.31736,-0.28866 -0.75254,0.45088 -0.37169,-0.35317c5.81869,-2.19841 8.21104,-2.75405 11.30022,-1.33147z" data-paper-data="{&quot;noHover&quot;:false,&quot;origItem&quot;:[&quot;Path&quot;,{&quot;applyMatrix&quot;:true,&quot;segments&quot;:[[[396.56765,351.16082],[0.33594,-0.62422],[-0.14062,0.29688]],[[396.52077,351.88402],[-0.11718,-0.10658],[0.17188,0.19792]],[[400.95045,352.87364],[-0.64062,0],[0.45312,0]],[[399.04421,350.98574],[0.8125,0.34256],[-1.14062,-0.52526]]],&quot;closed&quot;:true,&quot;fillColor&quot;:[0,0,0]}]}" fill="#ffffff" stroke-width="0.5"/><path d="M230.95413,147.87538c1.92541,0.26801 4.61402,1.07623 5.84123,1.61227c2.64485,1.15456 7.25533,3.65625 4.73744,3.12022c-0.95214,-0.20621 -8.53837,-0.23039 -11.43715,0.24378c-2.83524,0.47418 -6.32624,0.56715 -7.36304,0.42285l-1.89139,-0.29386l3.1651,-2.63669c3.02569,-2.4947 3.71044,-2.88099 6.94777,-2.46862z" data-paper-data="{&quot;noHover&quot;:false,&quot;origItem&quot;:[&quot;Path&quot;,{&quot;applyMatrix&quot;:true,&quot;segments&quot;:[[[391.30993,349.9885],[0,0],[-1.19532,-0.15226]],[[388.88025,350.81066],[1.11718,-0.92112],[0,0]],[387.70837,351.75462],[[388.40369,351.85358],[0,0],[0.38282,0.05328]],[[391.02087,351.63282],[-1.04686,0.17508],[1.07032,-0.17508]],[[393.59119,351.4349],[-0.35156,-0.07614],[0.92968,0.19792]],[[393.40369,350.50618],[0.97656,0.4263],[-0.45312,-0.19792]],[[391.30995,349.98852],[0.71092,0.09896],[0,0]]],&quot;closed&quot;:true,&quot;fillColor&quot;:[0,0,0]}]}" fill="#ffffff" stroke-width="0.5"/><path d="M240.28962,155.28318c9.11111,0.47072 -6.61424,0.80413 -8.94172,0.00008c-1.10029,-0.41237 -0.03951,-0.73615 3.51517,-0.81865c2.89878,-0.06186 5.01478,0.7973 5.42655,0.81857z" data-paper-data="{&quot;noHover&quot;:false,&quot;origItem&quot;:[&quot;Path&quot;,{&quot;applyMatrix&quot;:true,&quot;segments&quot;:[[[392.85669,352.40166],[1.07032,-0.02284],[-1.3125,0.03046]],[[391.59107,352.63004],[-0.40626,-0.15226],[0.85938,0.29688]],[[394.69263,352.63004],[0,0.29688],[0,-0.15224]]],&quot;closed&quot;:true,&quot;fillColor&quot;:[0,0,0]}]}" fill="#ffffff" stroke-width="0.5"/><path d="M231.69397,156.16781c1.41765,0.18558 4.38401,0.42976 6.01323,0.49161c11.7877,0 2.77125,0.1381 1.29012,0.73599c-1.81962,0.82474 -7.18288,0.29762 -8.8121,-0.85694c-0.82523,-0.53603 -0.50132,-0.65927 1.50875,-0.37061z" data-paper-data="{&quot;noHover&quot;:false,&quot;origItem&quot;:[&quot;Path&quot;,{&quot;applyMatrix&quot;:true,&quot;segments&quot;:[[[391.71611,352.98022],[0,0],[-0.74218,-0.10658]],[[391.16143,353.10202],[-0.3047,-0.19792],[0.60156,0.4263]],[[394.21611,353.3989],[-0.67186,0.30452],[0.54688,-0.22076]],[[393.73955,353.14768],[0.97656,0],[-0.60156,-0.02284]],[[391.71611,352.9802],[0.52344,0.06852],[0,0]]],&quot;closed&quot;:true,&quot;fillColor&quot;:[0,0,0]}]}" fill="#ffffff" stroke-width="0.5"/><path d="M225.7595,156.71191c1.10029,0.74224 3.35795,1.66465 5.60077,2.26254c3.87205,1.01021 4.94526,0.93644 13.00678,-0.48614c4.63379,-0.80405 9.96317,-1.25407 11.69818,-1.10977l3.24052,0.19903l-3.29523,3.48888c-4.12598,4.3296 -9.15923,6.69232 -16.20512,7.16649c-6.24189,0.41237 -10.06473,-1.11524 -14.4446,-5.44488c-2.70833,-2.63906 -4.96078,-5.97854 -4.96078,-7.25682c0,-0.80405 3.41289,-0.09761 5.35947,1.18067z" data-paper-data="{&quot;noHover&quot;:false,&quot;origItem&quot;:[&quot;Path&quot;,{&quot;applyMatrix&quot;:true,&quot;segments&quot;:[[[387.54419,352.75184],[0,-0.29688],[0,0.47198]],[[389.38013,355.3934],[-1,-0.97442],[1.61718,1.59864]],[[394.61451,357.31176],[-2.3047,0.15226],[2.60156,-0.17508]],[[400.49733,354.76918],[-1.52344,1.59862],[0,0]],[401.71607,353.49788],[[400.52075,353.42936],[0,0],[-0.64062,-0.05328]],[[396.21607,353.87088],[1.71094,-0.29688],[-2.97656,0.52526]],[[391.59107,354.02314],[1.42968,0.373],[-0.82812,-0.22076]],[[389.33325,353.12486],[0.40626,0.27406],[-0.71874,-0.47198]]],&quot;closed&quot;:true,&quot;fillColor&quot;:[0,0,0]}]}" fill="#ffffff" stroke-width="0.5"/></g><path d="M244.75794,120.14436c0,0 0.1026,3.96976 0.00576,7.12662c-0.19174,6.25113 -1.08147,27.7607 -1.08147,27.7607l-2.98167,0.00864c0,0 -0.80294,-4.17274 -1.12322,-9.49979c-0.43353,-7.21063 -0.4495,-16.29321 -0.76344,-19.63229c-0.29758,-3.16513 -0.89593,-5.71453 -0.89593,-5.71453" fill="#ffffff" stroke="#000000" stroke-width="1.3" stroke-linecap="round"/></g></g></svg>