<svg version="1.1" xmlns="http://www.w3.org/2000/svg" xmlns:xlink="http://www.w3.org/1999/xlink" width="88.70272" height="250.36692" viewBox="0,0,88.70272,250.36692"><defs><linearGradient x1="237.91892" y1="154.66151" x2="237.91892" y2="314.21403" gradientUnits="userSpaceOnUse" id="color-1"><stop offset="0" stop-color="#000000"/><stop offset="1" stop-color="#6a00b1"/></linearGradient><linearGradient x1="237.87604" y1="121.04707" x2="237.87604" y2="154.3799" gradientUnits="userSpaceOnUse" id="color-2"><stop offset="0" stop-color="#000000"/><stop offset="1" stop-color="#000000" stop-opacity="0"/></linearGradient></defs><g transform="translate(-193.56755,-64.8471)"><g data-paper-data="{&quot;isPaintingLayer&quot;:true}" fill-rule="nonzero" stroke-linejoin="miter" stroke-miterlimit="10" stroke-dasharray="" stroke-dashoffset="0" style="mix-blend-mode: normal"><path d="M236.83386,64.85758c16.10973,-0.32973 24.2834,7.19669 30.04554,12.5365c10.20342,9.45557 9.8774,19.96883 11.48534,24.34121c0.91919,2.4995 0.05466,6.11844 0.29863,8.91813c0.67166,7.70781 0.59366,15.3072 -0.7122,22.89719c-0.30736,1.86524 1.07667,14.02081 0.41257,21.11812c-0.92859,9.92398 -4.09022,15.71525 -5.85895,20.42292c-3.39601,9.03886 -8.14181,-3.0311 -8.14181,-3.0311c0,0 -40.61608,9.76332 -42.90276,3.34854c-2.72545,-7.64567 -16.68493,2.82496 -16.68493,2.82496c0,0 -4.60003,-9.10519 -6.02545,-23.36345c-0.68134,-6.81533 0.11456,-15.17722 0.30043,-23.14432c0.26456,-11.33967 0.24454,-22.35513 1.12351,-31.04961c1.45291,-14.37168 7.32347,-18.26373 12.86249,-23.34999c6.46792,-5.93923 13.24154,-11.8229 23.56598,-12.22309z" fill="#000000" stroke="none" stroke-width="1.5" stroke-linecap="butt"/><path d="M199.87853,305.6963c0,0 -0.63536,-94.38387 -0.79335,-118.01201c-0.05451,-8.15261 8.18688,-36.76129 40.20201,-36.9211c31.60235,-0.15775 39.85672,29.48704 39.84884,36.89673c-0.07659,46.24274 0.65429,117.98648 0.65429,117.98648l-10.49667,0.09614l-0.15882,-114.84311c0,0 0.07549,-3.0993 -2.81625,-3.15415c-3.43441,-0.06514 -2.94538,3.11562 -2.94538,3.11562l-2.46119,115.20328l-42.21366,-0.26111l-3.63872,-115.23309c0,0 0.27949,-2.919 -2.8856,-2.93443c-3.11083,-0.01515 -2.81569,2.90899 -2.81569,2.90899l0.35311,115.0668z" fill="#ffffff" stroke="#000000" stroke-width="2" stroke-linecap="butt"/><path d="M211.4112,311.37261c0,0 1.19974,-41.55572 1.9521,-61.92957c0.75474,-20.4382 1.36352,-60.80862 1.36352,-60.80862c0,0 -1.90078,58.76336 -3.10841,94.75414c-0.52432,15.62612 1.03884,26.95952 -0.31567,27.32709c-2.58066,0.70031 -11.62987,13.38714 -14.41253,-14.34964c-3.09328,-30.83294 -2.2042,-103.7293 -2.2042,-105.11136c0,-2.64255 4.57793,-17.60941 10.36453,-25.48381c3.80731,-5.18099 9.07343,-7.4404 9.07343,-7.4404c0,0 3.27603,0.42089 5.25854,-0.93799c1.98251,-1.35888 5.17197,-2.73093 5.17197,-2.73093c0,0 -0.7634,18.06361 14.39772,17.99509c15.43477,-0.06976 13.99334,-17.99508 13.99334,-17.99508c0,0 6.32412,-0.02696 8.57721,1.36296c0.1558,0.09611 5.84867,2.56844 9.38805,5.58992c5.0811,4.33761 6.1907,11.63385 6.87586,15.85536c5.7397,35.36453 2.65665,129.8456 2.65665,129.8456c0,0 -4.49966,-0.43953 -7.51754,2.45725c-1.54918,1.48701 -0.95681,1.77795 -1.98748,-1.04823c-0.39587,-1.0855 -2.05899,1.99434 -2.65467,-2.33533c-2.14807,-15.61301 -4.5728,-120.52744 -4.5728,-119.164c0,4.71623 0.15437,1.90108 0.15437,1.90108c0,0 0.58322,50.77503 1.61137,72.34273c0.6401,13.42761 1.4688,34.8637 2.41597,44.01483c0.3024,2.92165 1.69966,3.77899 1.69966,3.77899z" fill="url(#color-1)" stroke="#000000" stroke-width="2" stroke-linecap="butt"/><path d="M211.56092,121.37594c-0.57709,-7.29323 0.335,-17.15448 0.335,-17.15448c0,0 3.41059,-0.04124 13.91429,-3.14424c8.0696,-2.38394 20.54731,-9.48722 20.54731,-9.48722c0,0 -2.16005,3.00503 -3.40781,4.46015c-1.32651,1.54696 -3.99292,4.56297 -3.99292,4.56297c0,0 7.838,-1.66761 14.67476,-4.72931c8.56837,-3.53575 10.59252,-6.05309 12.95042,-4.5927c2.7829,1.72362 1.03006,23.1827 0.71846,28.74062c-0.42163,5.66922 -2.53327,9.49969 -3.15031,12.52053c-0.61704,3.02084 -0.4096,6.13662 -2.20622,16.0397c-1.12121,6.18021 -4.16183,8.92466 -10.01942,14.66081c-5.85759,5.73616 -9.05378,9.25275 -13.01359,9.32173c-3.81077,0.06639 -8.93565,-5.1002 -13.93542,-10.38244c-5.32393,-5.62474 -8.87489,-8.47713 -9.71551,-15.13975c-0.75707,-6.00039 -0.77653,-9.90853 -1.12266,-15.24835c-0.25298,-3.90273 -2.26119,-6.44504 -2.57636,-10.42801z" fill="#ffffff" stroke="#000000" stroke-width="1.5" stroke-linecap="butt"/><g stroke-linecap="butt"><path d="M249.76479,158.53051c0,4.09899 -5.14173,7.42188 -11.48438,7.42188c-6.34265,0 -11.48438,-3.32289 -11.48438,-7.42187c0,-4.09899 5.14173,-7.42187 11.48438,-7.42187c6.34265,0 11.48438,3.32289 11.48438,7.42188z" fill="#000000" stroke="none" stroke-width="0"/><path d="M239.40898,152.90893c0.24666,0.0234 0.6086,-1.44147 2.34631,-2.08459c1.67939,-0.62153 4.07183,-0.42472 5.53918,-0.25563c1.61805,0.54491 10.03261,4.51373 10.03261,4.51373c0,0 -7.20299,0.56304 -10.4167,0.96448c-2.69313,0.33641 -4.6365,-1.26669 -7.78124,-1.3725c-3.14474,-0.10581 -5.02981,0.78805 -7.96412,0.58281c-6.18625,-0.43269 -12.14485,-2.33757 -12.14485,-2.33757c0,0 1.85053,-0.41485 4.59385,-1.34455c3.16904,-1.07398 4.04458,-1.54001 5.02564,-1.667c2.33124,-0.30176 5.0884,-0.29325 7.71556,0.55526c2.81497,0.90917 2.80847,2.42228 3.05375,2.44555z" fill="#929292" stroke="#000000" stroke-width="1.4"/><path d="M238.77238,168.50866c-13.27509,-0.33993 -20.5702,-15.00334 -20.5702,-15.00334c0,0 9.82026,1.80718 13.19626,2.60193c3.48786,0.82108 2.25057,2.90596 7.69375,3.08981c5.75568,0.34009 4.53249,-2.43008 7.16422,-2.70598c2.04031,-0.2139 11.59913,-0.52901 11.59913,-0.52901c0,0 -4.46457,12.92092 -19.08316,12.54659z" fill="#929292" stroke="#000000" stroke-width="1.9"/></g><path d="M239.19308,150.80304c-1.03376,0 -3.5381,-3.26042 -3.7867,-5.3637c-0.22243,-1.88186 1.31512,-3.82799 3.7867,-3.82799c2.47159,0 4.2021,0.49077 4.02999,4.18853c-0.14607,3.13818 -1.55841,5.00317 -4.02999,5.00317z" fill="#ffffff" stroke="#000000" stroke-width="1.15" stroke-linecap="butt"/><path d="M242.79517,120.70932c0,0 0.1026,3.96976 0.00576,7.12662c-0.19174,6.25113 -1.08147,27.7607 -1.08147,27.7607l-2.98167,0.00864c0,0 -0.80294,-4.17274 -1.12322,-9.49979c-0.43353,-7.21063 -0.4495,-16.29321 -0.76344,-19.63229c-0.29758,-3.16513 -0.89593,-5.71453 -0.89593,-5.71453" fill="#ffffff" stroke="#000000" stroke-width="1.3" stroke-linecap="round"/><path d="M213.26059,131.49916c0,0 -4.93211,-3.51705 -6.16417,-8.97502c-1.29636,-5.74284 -1.46118,-9.7328 0.48013,-9.99193c1.94131,-0.25915 2.70321,2.37692 3.73262,8.35569c1.0294,5.97877 1.95143,10.61127 1.95143,10.61127z" data-paper-data="{&quot;index&quot;:null}" fill="#ffffff" stroke="#000000" stroke-width="1" stroke-linecap="butt"/><path d="M213.05797,127.5516c0,0 -3.56385,-2.92338 -4.31816,-8.45061c-0.42079,-3.08327 2.15675,-2.28016 2.15675,-2.28016" fill="none" stroke="#000000" stroke-width="0.25" stroke-linecap="round"/><path d="M267.4937,120.88789c1.0294,-5.97877 1.7913,-8.61483 3.73262,-8.35569c1.94131,0.25914 1.77649,4.24909 0.48013,9.99193c-1.23206,5.45797 -6.16417,8.97502 -6.16417,8.97502c0,0 0.92203,-4.6325 1.95143,-10.61127z" data-paper-data="{&quot;index&quot;:null}" fill="#ffffff" stroke="#000000" stroke-width="1" stroke-linecap="butt"/><path d="M267.90626,116.82083c0,0 2.57754,-0.80312 2.15675,2.28016c-0.75431,5.52723 -4.31816,8.45061 -4.31816,8.45061" data-paper-data="{&quot;index&quot;:null}" fill="none" stroke="#000000" stroke-width="0.25" stroke-linecap="round"/><path d="" data-paper-data="{&quot;index&quot;:null}" fill="#000000" stroke="none" stroke-width="1.5" stroke-linecap="butt"/><path d="" fill="#ffffff" stroke="none" stroke-width="0.5" stroke-linecap="butt"/><path d="" fill="#000000" stroke="none" stroke-width="0.5" stroke-linecap="butt"/><path d="" fill="#ff0000" stroke="none" stroke-width="0.5" stroke-linecap="butt"/><path d="" fill="#000000" stroke="none" stroke-width="0.5" stroke-linecap="butt"/><path d="" fill="#000000" stroke="none" stroke-width="0.5" stroke-linecap="butt"/><path d="" fill="#000000" stroke="none" stroke-width="0.5" stroke-linecap="butt"/><path d="" fill="#000000" stroke="none" stroke-width="0.5" stroke-linecap="butt"/><path d="" fill="#000000" stroke="none" stroke-width="0.5" stroke-linecap="butt"/><path d="" fill="#000000" stroke="none" stroke-width="0.5" stroke-linecap="butt"/><path d="M200.65161,149.29903l-0.13249,-0.31392c-0.23702,-4.26951 -0.59976,-9.07371 -0.22422,-13.33898c0.86782,-9.85657 5.99367,-18.77888 8.39196,-28.02088c3.26307,-11.51879 11.47665,-21.56715 20.46542,-24.24461c5.45551,-1.62501 11.40121,-1.73532 16.95337,-2.38922c5.08693,-0.59911 11.89115,-3.48372 16.63313,0.1358c7.56622,5.77526 8.84665,20.04691 9.81556,30.73833c0.01049,8.07704 0.2722,16.05333 0.4584,24.11585c0.04595,1.98987 0.93714,4.4124 0.03752,5.97238c-2.47857,4.29796 -7.74762,1.19439 -10.79141,0.84551c-9.28884,-1.06468 -16.11641,-8.17233 -20.01893,-19.85979c-0.01894,-0.05674 -0.03886,-0.11618 -0.05964,-0.17821c-2.28477,3.36617 -4.61998,6.77133 -7.24697,9.36345c-6.02286,5.94288 -13.72535,8.78436 -20.19388,13.70179c-4.92281,3.74237 -9.51975,8.12437 -14.48786,11.80434c0,0 2.07595,2.08904 0.87044,-0.98928c-1.20551,-3.07834 -3.28146,-5.16737 -3.28146,-5.16737c0.94932,-0.70252 1.88465,-1.43067 2.81105,-2.17513z" fill="#000000" stroke="none" stroke-width="0.5" stroke-linecap="butt"/><path d="M230.85431,216.66524c0.22008,0.97548 -0.7554,1.19556 -0.7554,1.19556l-1.12965,0.25486c-4.4991,1.01504 -11.28121,1.12351 -14.7168,-2.4009c0,0 -0.6906,-0.72324 0.03264,-1.41384c0.72324,-0.6906 1.41384,0.03264 1.41384,0.03264c2.81075,3.02391 9.12595,2.66685 12.83017,1.83113l1.12965,-0.25486c0,0 0.97548,-0.22008 1.19556,0.7554z" fill="#000000" stroke="none" stroke-width="0.5" stroke-linecap="butt"/><path d="M246.81024,215.46132c0.4055,-0.89443 1.21651,-0.44721 1.21651,-0.44721l0.30124,0.17735c5.24028,1.92829 9.66831,-0.04111 15.04377,-0.05132c0,0 0.90673,0 0.90673,1c0,1 -0.90673,1 -0.90673,1c-5.61293,-0.01181 -10.11121,1.97078 -15.61723,-0.05132l-0.53878,-0.28586c0,0 -0.811,-0.44721 -0.4055,-1.34164z" fill="#000000" stroke="none" stroke-width="0.5" stroke-linecap="butt"/><path d="M211.35682,154.3799v-33.33284h53.03843v33.33284z" fill="url(#color-2)" stroke="none" stroke-width="0" stroke-linecap="butt"/></g></g></svg>