<svg version="1.1" xmlns="http://www.w3.org/2000/svg" xmlns:xlink="http://www.w3.org/1999/xlink" width="110.95644" height="379.66844" viewBox="0,0,110.95644,379.66844"><defs><linearGradient x1="244.34287" y1="42.51979" x2="238.38163" y2="264.11467" gradientUnits="userSpaceOnUse" id="color-1"><stop offset="0" stop-color="#a50060"/><stop offset="1" stop-color="#ff0095"/></linearGradient><linearGradient x1="240.59186" y1="168.44487" x2="236.57671" y2="317.69887" gradientUnits="userSpaceOnUse" id="color-2"><stop offset="0" stop-color="#000000"/><stop offset="1" stop-color="#8a8a8a"/></linearGradient><linearGradient x1="243.09337" y1="77.64547" x2="240.63509" y2="169.026" gradientUnits="userSpaceOnUse" id="color-3"><stop offset="0" stop-color="#ff0095"/><stop offset="1" stop-color="#710042"/></linearGradient><linearGradient x1="208.23581" y1="116.84433" x2="205.09181" y2="233.71521" gradientUnits="userSpaceOnUse" id="color-4"><stop offset="0" stop-color="#ff0095"/><stop offset="1" stop-color="#710042"/></linearGradient><linearGradient x1="275.98758" y1="128.00045" x2="272.84357" y2="244.87133" gradientUnits="userSpaceOnUse" id="color-5"><stop offset="0" stop-color="#ff0095"/><stop offset="1" stop-color="#710042"/></linearGradient><linearGradient x1="256.86669" y1="72.04578" x2="256.34467" y2="91.45089" gradientUnits="userSpaceOnUse" id="color-6"><stop offset="0" stop-color="#000000"/><stop offset="1" stop-color="#8a8a8a"/></linearGradient></defs><g transform="translate(-181.63938,53.0308)"><g data-paper-data="{&quot;isPaintingLayer&quot;:true}" fill-rule="nonzero" stroke-linejoin="miter" stroke-miterlimit="10" stroke-dasharray="" stroke-dashoffset="0" style="mix-blend-mode: normal"><path d="" data-paper-data="{&quot;index&quot;:null}" fill="#000000" stroke="none" stroke-width="1.5" stroke-linecap="butt"/><path d="" fill="#ffffff" stroke="none" stroke-width="0.5" stroke-linecap="butt"/><path d="" fill="#000000" stroke="none" stroke-width="0.5" stroke-linecap="butt"/><path d="" fill="#ff0000" stroke="none" stroke-width="0.5" stroke-linecap="butt"/><path d="" fill="#000000" stroke="none" stroke-width="0.5" stroke-linecap="butt"/><path d="" fill="#000000" stroke="none" stroke-width="0.5" stroke-linecap="butt"/><path d="" fill="#000000" stroke="none" stroke-width="0.5" stroke-linecap="butt"/><path d="" fill="#000000" stroke="none" stroke-width="0.5" stroke-linecap="butt"/><path d="" fill="#000000" stroke="none" stroke-width="0.5" stroke-linecap="butt"/><path d="" fill="#000000" stroke="none" stroke-width="0.5" stroke-linecap="butt"/><path d="M202.78642,77.71644c0.16475,-8.15113 9.1725,-36.52784 41.18035,-35.82664c31.59516,0.69215 39.04935,30.54819 38.84221,37.95499c-0.9886,34.6157 -5.0144,206.49256 -5.0144,206.49256l-10.39745,-0.28002l5.32715,-203.24315c0,0 0.15881,-3.09615 -2.73041,-3.22874c-3.43142,-0.15747 -3.0281,3.03529 -3.0281,3.03529l-6.07352,233.40965l-13.87678,-0.35469c0,0 3.38472,-117.79081 1.86164,-120.78107c-1.32718,-2.60565 -15.65362,-3.44946 -17.44835,-0.08699c-1.45537,2.72668 -4.90722,120.3429 -4.90722,120.3429l-13.82745,-0.34451l5.98341,-233.77535c0,0 0.35789,-2.91043 -2.80564,-3.01097c-3.1093,-0.0988 -2.8929,2.83222 -2.8929,2.83222l-5.13743,202.34506l-9.88148,-0.07182c0,0 4.46333,-187.44683 4.82637,-205.40873z" fill="#ffffff" stroke="#000000" stroke-width="2" stroke-linecap="butt"/><path d="M257.78167,93.15514c-0.57092,-0.01536 -1.02129,-0.49063 -1.00593,-1.06155c0.01536,-0.57092 0.49063,-1.02131 1.06155,-1.00595c0.57092,0.01536 1.02129,0.49064 1.00593,1.06157c-0.01536,0.57092 -0.49063,1.02129 -1.06155,1.00593z" fill="#000000" stroke="none" stroke-width="1.5" stroke-linecap="butt"/><path d="M252.40977,97.24777c-4.45343,-0.43431 -6.50184,-1.96948 -6.09823,-2.7451c0.12435,-0.23898 2.81682,1.13971 6.93277,1.49177c6.39657,0.54714 8.52424,-0.40264 8.52424,-0.40264l-0.0362,1.34567c0,0 -2.44078,0.98144 -9.32258,0.3103z" fill="#000000" stroke="#000000" stroke-width="0" stroke-linecap="butt"/><path d="M224.74881,91.23204c0.01536,-0.57092 0.49063,-1.02131 1.06155,-1.00595c0.57092,0.01536 1.02131,0.49064 1.00595,1.06157c-0.01536,0.57092 -0.49064,1.02129 -1.06157,1.00593c-0.57092,-0.01536 -1.02129,-0.49063 -1.00593,-1.06155z" fill="#000000" stroke="none" stroke-width="1.5" stroke-linecap="butt"/><path d="M230.89882,96.6691c-6.90793,0.30019 -9.29241,-0.81107 -9.29241,-0.81107l0.0362,-1.34567c0,0 2.07353,1.06281 8.49026,0.86036c4.12893,-0.13027 6.89163,-1.3622 7.00296,-1.11688c0.36132,0.79618 -1.76665,2.219 -6.237,2.41326z" fill="#000000" stroke="#000000" stroke-width="0" stroke-linecap="butt"/><path d="M240.65442,153.50371c-0.81865,-0.02202 -1.46445,-0.70353 -1.44243,-1.52218c0.02202,-0.81865 0.70353,-1.46445 1.52218,-1.44243c0.81865,0.02202 1.46445,0.70353 1.44243,1.52218c-0.02202,0.81865 -0.70353,1.46445 -1.52218,1.44243z" data-paper-data="{&quot;index&quot;:null}" fill="#000000" stroke="none" stroke-width="1.5" stroke-linecap="butt"/><path d="M208.35546,263.38152c0,0 -0.22766,3.26422 0.13875,4.31034c0.36641,1.04612 2.92762,4.39213 3.16172,7.06906c0.3191,3.64871 0.31216,7.34246 1.35123,11.59232c1.23339,3.46924 3.84835,8.7981 2.49543,10.05546c-1.12661,1.04705 -3.68281,-1.80625 -4.53358,-3.35469c-0.93934,-1.70966 -1.51429,-4.8141 -1.61045,-5.16826c-0.23704,-0.87298 -1.01157,-1.6892 -1.41453,-2.46638c-0.30087,-0.58031 -0.37666,-0.30893 -0.37666,-0.30893c0,0 -0.00556,0.66291 -0.00914,2.19032c-0.00252,1.07123 0.23252,2.41816 0.29136,3.36856c0.07196,1.16241 0.10917,2.92829 0.25538,3.94514c0.06395,0.4448 0.40687,1.32841 0.69263,2.22649c0.31147,0.9789 0.56799,1.97482 0.65136,2.43438c0.51248,2.82502 1.59118,4.29276 2.06866,5.81669c0.26316,0.8399 0.25035,2.51738 -0.13965,3.24624c-0.46427,0.86767 -1.24129,0.85857 -1.24129,0.85857c0,0 -0.4284,1.28936 -1.59787,1.11984c-1.32184,-0.1916 -2.86483,-2.10938 -2.86483,-2.10938c0,0 -0.73388,0.47145 -1.73437,-0.48787c-0.55066,-0.528 -1.73251,-2.92053 -1.73251,-2.92053c0,0 -0.79096,0.33099 -1.6367,-0.95279c-0.86849,-1.31829 -1.47968,-2.96825 -2.18499,-5.05469c-0.41164,-1.21773 -1.2645,-3.09463 -1.90491,-5.10831c-0.45685,-1.43652 -1.02775,-2.94862 -1.03108,-4.33471c0.00452,-1.92346 0.15183,-3.64516 0.07801,-5.27257c-0.19203,-4.23293 -0.06397,-7.37379 0.71641,-10.70823c0.38596,-1.64915 1.18035,-3.2333 1.68474,-5.24143c0.30907,-1.2305 0.47426,-5.1897 0.47426,-5.1897" fill="#ffffff" stroke="#000000" stroke-width="2" stroke-linecap="butt"/><path d="M278.3722,265.42125c0,0 -0.1911,4.0146 0.0562,5.27761c0.40358,2.06117 1.12546,3.70884 1.42812,5.4c0.61196,3.41939 0.5706,6.60707 0.14379,10.8832c-0.16409,1.64401 -0.10827,3.39559 -0.20882,5.3437c-0.07915,1.40348 -0.74282,2.90355 -1.28631,4.33333c-0.76184,2.00422 -1.73241,3.85831 -2.21792,5.06898c-0.83186,2.07434 -1.54408,3.71183 -2.50003,4.99937c-0.93092,1.25383 -1.71781,0.87541 -1.71781,0.87541c0,0 -1.33358,2.35827 -1.92287,2.86288c-1.07066,0.91679 -1.79179,0.39925 -1.79179,0.39925c0,0 -1.67519,1.85776 -3.03094,1.97954c-1.19948,0.10774 -1.565,-1.22139 -1.565,-1.22139c0,0 -0.79128,-0.03325 -1.21636,-0.9373c-0.35708,-0.75943 -0.27841,-2.45888 0.03532,-3.29505c0.56925,-1.51717 1.7473,-2.94456 2.42328,-5.77739c0.10996,-0.46084 0.42548,-1.45536 0.79598,-2.42965c0.3399,-0.89384 0.7372,-1.76992 0.8266,-2.21686c0.20438,-1.02174 0.33877,-2.80801 0.47555,-3.98122c0.11184,-0.95925 0.42465,-2.31042 0.48065,-3.39537c0.07984,-1.54698 0.11042,-2.21859 0.11042,-2.21859c0,0 -0.06229,-0.27896 -0.40022,0.29226c-0.45258,0.76501 -1.28547,1.54925 -1.57443,2.42035c-0.11723,0.3534 -0.87205,3.46579 -1.92151,5.14579c-0.95049,1.52157 -3.70797,4.27134 -4.79734,3.14943c-1.30817,-1.34727 1.64442,-6.60078 3.08932,-10.04661c1.28979,-4.24696 1.48464,-7.98794 2.00883,-11.6655c0.38459,-2.69808 3.0313,-5.95037 3.4614,-6.98973c0.43009,-1.03936 0.37681,-4.35743 0.37681,-4.35743" data-paper-data="{&quot;index&quot;:null}" fill="#ffffff" stroke="#000000" stroke-width="2" stroke-linecap="butt"/><path d="M214.83016,169.05975l2.48506,-92.37607c0,0 -3.14708,105.34274 -9.25258,158.74441c-2.26925,19.84796 -9.39529,28.25297 -10.51633,27.55169c-2.76028,-1.72672 5.38157,-194.54988 5.43439,-196.51341c0.12096,-4.49637 15.09626,-18.09903 15.09626,-18.09903c0,0 2.85785,-2.27694 4.96791,-3.61578c2.11005,-1.33884 5.48223,-2.65724 5.48223,-2.65724c0,0 -0.39853,9.30973 15.45297,9.66578c16.1376,0.36248 14.22735,-8.86734 14.22735,-8.86734c0,0 4.04959,1.62908 6.36661,3.11889c2.31702,1.4898 4.87271,3.73762 4.87271,3.73762c0,0 15.13907,16.09218 15.01086,20.85783c-0.06289,2.33781 -2.08631,192.98861 -5.87969,194.3668c-1.18616,0.43095 -8.39963,-11.60538 -9.70032,-34.08899c-3.15172,-54.4804 -0.20618,-152.3147 -0.20618,-152.3147l-2.47148,91.87144z" fill="url(#color-1)" stroke="#000000" stroke-width="2" stroke-linecap="butt"/><path d="M248.87713,194.89463c0,0 -5.56874,1.63853 -9.22335,1.6203c-3.6546,-0.01823 -8.22501,-1.70729 -8.22501,-1.70729l1.36368,0.6002c0,0 -0.43613,8.1544 -1.04009,13.35343c-0.60396,5.19902 -4.59573,107.51352 -4.59573,107.51352c0,0 -4.88924,0.36084 -7.46784,0.34737c-2.45009,-0.01279 -5.2332,-0.36155 -5.2332,-0.36155c0,0 0.3478,-100.2732 0.32375,-107.33333c-0.01529,-4.48846 0.27299,-9.61249 0.32498,-14.39111c0.06163,-5.66445 -0.10751,-10.84085 -0.07424,-13.85948c0.05732,-5.20154 0.63253,-12.02927 0.63253,-12.02927c0,0 4.84628,-0.84996 10.01036,-0.50288c4.89165,0.32877 10.64254,1.2448 14.55126,1.34099c3.86829,0.0952 9.63195,-0.52795 14.60193,-0.60873c5.49449,-0.08931 10.63702,0.74902 10.63702,0.74902c0,0 0.2118,7.16233 -0.00469,12.5357c-0.10123,2.51266 -0.4753,7.20699 -0.61415,11.68263c-0.14667,4.7279 -0.06217,9.29786 -0.32451,14.11805c-0.44859,8.24272 -4.17234,107.3716 -4.17234,107.3716c0,0 -3.703,2.99627 -5.98033,2.84158c-2.63034,-0.17868 -7.98565,-1.90242 -7.98565,-1.90242c0,0 1.82737,-102.53091 1.46479,-107.92472c-0.36258,-5.39382 -0.47641,-12.82403 -0.47641,-12.82403z" fill="url(#color-2)" stroke="#000000" stroke-width="2" stroke-linecap="butt"/><path d="M223.97857,324.79173l13.81825,0.37173z" fill="#1c8d26" stroke="none" stroke-width="0" stroke-linecap="butt"/><path d="M237.70431,325.16097l13.81825,0.37173z" fill="#17721e" stroke="none" stroke-width="0" stroke-linecap="butt"/><path d="M251.43005,325.53022l13.81826,0.37173z" fill="#125a18" stroke="none" stroke-width="0" stroke-linecap="butt"/><path d="M278.97399,326.27119l-13.81825,-0.37173z" fill="#0c3d10" stroke="none" stroke-width="0" stroke-linecap="butt"/><path d="M292.59582,326.63764l-13.81825,-0.37173z" fill="#07250a" stroke="none" stroke-width="0" stroke-linecap="butt"/><path d="" fill="#5a5a5a" stroke="none" stroke-width="0" stroke-linecap="butt"/><path d="" fill="#3f3f3f" stroke="none" stroke-width="0" stroke-linecap="butt"/><path d="" fill="#2a2a2a" stroke="none" stroke-width="0" stroke-linecap="butt"/><path d="" fill="#191919" stroke="none" stroke-width="0" stroke-linecap="butt"/><path d="" fill="#0c0c0c" stroke="none" stroke-width="0" stroke-linecap="butt"/><path d="M224.27317,324.79966l-14.64394,-0.39394z" fill="#21a42c" stroke="none" stroke-width="0" stroke-linecap="butt"/><path d="" fill="#727272" stroke="none" stroke-width="0" stroke-linecap="butt"/><path d="M195.9887,324.03876l13.81825,0.37173z" fill="#26bc32" stroke="none" stroke-width="0" stroke-linecap="butt"/><path d="" fill="#8a8a8a" stroke="none" stroke-width="0" stroke-linecap="butt"/><path d="M181.63938,323.65274l14.64394,0.39394z" fill="#2ad138" stroke="none" stroke-width="0" stroke-linecap="butt"/><path d="" fill="#9e9e9e" stroke="none" stroke-width="0" stroke-linecap="butt"/><path d="M215.43695,166.42294l2.40652,-89.45673c0,0 15.86086,32.93063 24.36526,42.07651c7.80779,8.39673 24.75011,10.74367 24.75011,10.74367l-1.55482,39.90593z" fill="url(#color-3)" stroke="#000000" stroke-width="2" stroke-linecap="butt"/><path d="M198.67535,206.1086l2.40652,-89.45673c0,0 3.93838,10.95147 12.44278,20.09737c2.9364,3.1579 -0.30127,13.51546 -1.21881,22.92307c-1.52216,15.60688 -1.30915,35.69789 -1.30915,35.69789l-1.51601,38.46307z" fill="url(#color-4)" stroke="#000000" stroke-width="2" stroke-linecap="butt"/><path d="M268.45475,244.75327l0.55411,-38.48896c0,0 1.29287,-20.0505 0.61201,-35.71665c-0.41042,-9.44334 -3.08655,-19.95999 0.01539,-22.95545c8.98382,-8.67543 13.5053,-19.39931 13.5053,-19.39931l-2.40652,89.45674z" data-paper-data="{&quot;index&quot;:null}" fill="url(#color-5)" stroke="#000000" stroke-width="2" stroke-linecap="butt"/><g><path d="M205.29991,-13.26305c0,0 7.51614,-4.47928 7.86848,-5.33603c0.92408,-2.24706 10.43533,-41.35579 45.71324,-33.35404c43.36159,10.72384 28.36528,46.54524 28.99107,54.23817c0.85806,10.54819 1.35754,19.50212 1.35754,19.50212c0,0 -2.13148,-2.83477 -3.11445,-4.28883c-0.9168,-1.35618 -2.84249,-4.22833 -2.84249,-4.22833c0,0 0.25639,11.44913 -4.19278,21.62416c-4.01027,9.34152 -11.59395,15.80682 -11.59395,15.80682l-0.49678,-2.71575c0,0 -1.56774,1.99303 -2.96585,2.8628c-1.39813,0.86976 -4.09032,2.09677 -4.09032,2.09677l0.88822,-3.83327c0,0 -9.72681,9.4855 -26.3916,4.81696c-15.68514,-4.52349 -22.37013,-17.79022 -22.37013,-17.79022l-0.81258,2.69973c0,0 -2.8939,-4.4038 -3.41076,-11.59793c-0.61603,-8.57456 0.10023,-13.43676 0.10023,-13.43676c0,0 -2.76063,1.34179 -6.25477,1.35919c-4.37835,0.0218 -6.80184,-1.4601 -6.80184,-1.4601c0,0 4.2022,-1.85145 6.65261,-3.44603c2.18262,-1.42033 3.4476,-2.78141 3.4476,-2.78141c0,0 -2.32215,0.56475 -4.51584,0.55781c-2.28888,-0.00723 -4.03328,-0.50708 -4.03328,-0.50708c0,0 6.13478,-3.88014 9.66055,-9.34543c3.32889,-5.16012 4.91888,-10.71927 4.91888,-10.71927c0,0 -1.48994,0.32459 -3.4268,-0.05249c-1.22771,-0.23901 -2.28421,-0.67161 -2.28421,-0.67161z" fill="#000000" stroke="none" stroke-width="1.5" stroke-linecap="butt"/><path d="M218.52925,2.76561c1.36641,-7.65076 4.84886,-17.55322 4.84886,-17.55322c0,0 3.30565,0.84877 14.27122,0.4024c8.42444,-0.34295 22.35223,-4.3872 22.35223,-4.3872c0,0 -2.87941,2.5258 -4.46865,3.69612c-1.68954,1.2442 -5.06101,3.64898 -5.06101,3.64898c0,0 8.01174,0.33317 15.42399,-1.0289c9.21011,-1.39709 11.82959,-3.45688 13.72217,-1.33898c2.23372,2.49964 -5.12036,24.10902 -6.88751,29.74307c-1.90281,5.71976 -4.9532,9.10703 -6.34615,12.05228c-1.39297,2.94524 -2.01449,6.20354 -6.36246,15.91789c-2.71343,6.06243 -6.37477,8.09017 -13.5466,12.45835c-7.17184,4.36819 -11.18715,7.14931 -15.03069,6.18556c-3.69888,-0.92747 -7.28682,-7.57964 -10.72339,-14.31805c-3.65937,-7.17531 -6.33731,-11.03642 -5.39184,-18.10755c0.8515,-6.36831 1.86364,-10.39231 2.93787,-15.97394c0.78512,-4.07946 -0.48425,-7.21858 0.26196,-11.39681z" fill="#ffffff" stroke="#000000" stroke-width="1.5" stroke-linecap="butt"/><path d="M266.38435,28.00019c-1.39297,2.94524 -0.23838,1.09861 -4.58635,10.81296c-0.41241,0.9214 -3.63386,3.22074 -6.25094,1.4325c-1.54914,-1.05852 -0.06921,-2.8342 -1.16773,-3.40285c-2.17361,-1.12514 -6.25774,9.01685 -10.21935,6.72286c-2.62412,-1.5195 -0.09536,-8.91058 -2.76262,-7.28602c0,0 -4.42287,4.87886 -1.92546,-8.99625c1.64494,-9.13896 28.3054,-2.22847 26.91244,0.71678z" fill="#a00000" stroke="none" stroke-width="0" stroke-linecap="butt"/><path d="M237.46042,40.2471c-0.99866,-0.27012 -2.55787,-4.27733 -2.2432,-6.5052c0.28155,-1.99332 2.28026,-3.59287 4.66791,-2.94705c2.38766,0.64582 3.92994,1.60268 2.78824,5.36029c-0.96894,3.18897 -2.82529,4.73779 -5.21295,4.09197z" fill="#ffffff" stroke="#000000" stroke-width="1.15" stroke-linecap="butt"/><path d="M257.25615,49.39776c0,0 -4.71385,10.52325 -13.60698,13.60492c-3.15437,1.09306 -7.74942,0.23899 -12.31057,-1.06708c-5.70333,-1.63311 -9.85865,-4.52543 -12.35297,-7.66589c-6.10936,-7.69197 -4.03608,-17.72108 -4.03608,-17.72108c0,0 6.89167,-3.12965 14.19978,-1.49914c5.13016,1.05375 8.43637,6.79774 8.43637,6.79774c0,0 3.25302,-3.29582 9.82447,-0.33141c5.89944,2.66125 9.84598,7.88196 9.84598,7.88196z" fill="#000000" stroke="none" stroke-width="0" stroke-linecap="butt"/><path d="M249.83074,44.84564c4.27903,2.84845 3.83701,3.67735 -1.61537,2.84476c-1.93336,-0.30884 -5.18982,-0.86107 -6.67317,-1.04826l-5.84928,-2.48592l1.51158,-0.5151c3.41558,-2.39907 6.44049,-2.99455 12.62624,1.20449z" data-paper-data="{&quot;noHover&quot;:false,&quot;origItem&quot;:[&quot;Path&quot;,{&quot;applyMatrix&quot;:true,&quot;segments&quot;:[[[429.93415,305.67568],[0,-1.32458],[0,0]],[429.93415,306.54352],[[430.95759,306.42172],[0,0],[0.54688,-0.07612]],[[433.27009,306.14766],[-0.71874,0.07614],[2.02344,-0.22838]],[[433.57477,305.0743],[1.78908,0.60138],[-2.59374,-0.89828]]],&quot;closed&quot;:true,&quot;fillColor&quot;:[0,0,0]}]}" fill="#ffffff" stroke="none" stroke-width="0.5" stroke-linecap="butt"/><path d="M222.96725,36.32015c5.50398,0.37559 8.22547,1.1193 10.45418,2.83526c1.05298,0.84136 3.9946,4.49426 4.02467,5.14459c0.11163,0.92928 -2.76,0.02982 -4.92841,-0.5567c-3.37538,-0.91299 -10.68561,-4.68592 -12.30562,-6.38706c-1.16516,-1.17144 -0.92781,-1.26167 2.75519,-1.03613z" data-paper-data="{&quot;noHover&quot;:false,&quot;origItem&quot;:[&quot;Path&quot;,{&quot;applyMatrix&quot;:true,&quot;segments&quot;:[[[423.38725,304.62518],[0,0],[-1.33594,0.27406]],[[422.50443,305.22658],[-0.52342,-0.30452],[0.73438,0.44914]],[[427.29349,306.2695],[-1.28906,0],[0.82812,0]],[[428.16849,305.87364],[0.125,0.31974],[-0.07032,-0.22838]],[[428.02787,305.24942],[0,0.1218],[0,-0.15224]],[[427.19193,304.6252],[0.45312,0.19792],[-0.95312,-0.39586]],[[423.38725,304.6252],[2,-0.39586],[0,0]]],&quot;closed&quot;:true,&quot;fillColor&quot;:[0,0,0]}]}" fill="#ffffff" stroke="none" stroke-width="0.5" stroke-linecap="butt"/><path d="M216.74475,37.1484c0.20456,0.05532 1.5559,1.13792 2.53211,2.02273c0.90969,0.88824 3.63054,3.89575 6.03723,6.7087c0,0 2.08465,3.76514 4.32668,4.96054c2.24202,1.1954 6.89543,3.04716 10.20323,2.78653c2.63266,-0.20743 5.72272,-2.00894 5.72272,-2.00894c8.43338,-3.02766 10.49229,-2.8557 8.25341,0.67007c-2.1621,3.48233 -7.40446,7.38682 -11.23169,8.23536c-3.11096,0.69983 -4.5733,0.58146 -10.62853,-1.05637c-10.22842,-2.76661 -12.95228,-5.72384 -14.84588,-15.48346c-0.76323,-4.27359 -0.92157,-6.98462 -0.36922,-6.83521z" data-paper-data="{&quot;noHover&quot;:false,&quot;origItem&quot;:[&quot;Path&quot;,{&quot;applyMatrix&quot;:true,&quot;segments&quot;:[[[421.23883,305.52346],[0,0],[-0.21094,0]],[[422.00445,307.89096],[-0.66406,-1.44638],[1.57032,3.28862]],[[428.62163,311.8571],[-3.90624,0],[2.3125,0]],[[432.43413,311.2557],[-1.04688,0.54812],[1.28906,-0.6699]],[[435.67631,307.32002],[-0.45312,1.44638],[0.47656,-1.46922]],[[432.86381,307.83768],[2.73438,-1.88792],[0,0]],[431.00443,309.13942],[426.91069,309.13942],[[424.91069,307.73872],[0,0],[-1.11718,-0.76886]],[[422.14507,305.91932],[0.40624,0.22838],[-0.42968,-0.22076]],[[421.23883,305.52348],[0.07812,0],[0,0]]],&quot;closed&quot;:true,&quot;fillColor&quot;:[0,0,0]}]}" fill="#ffffff" stroke="none" stroke-width="0.5" stroke-linecap="butt"/><path d="M248.87869,10.24152c0,0 -0.94808,4.1091 -1.87438,7.33014c-1.83423,6.37823 -8.36783,28.26505 -8.36783,28.26505l-2.8827,-0.77022c0,0 0.32506,-4.50083 1.4209,-10.06258c1.4833,-7.5283 3.8638,-16.87254 4.44135,-20.38829c0.54747,-3.33261 0.64195,-6.11063 0.64195,-6.11063" fill="#ffffff" stroke="#000000" stroke-width="1.3" stroke-linecap="round"/><path d="M237.68355,59.34348l1.23695,-8.25491" fill="none" stroke="#a00000" stroke-width="2" stroke-linecap="round"/><path d="M233.73753,56.75723l1.05704,-7.0542" fill="none" stroke="#a00000" stroke-width="2" stroke-linecap="round"/><path d="M241.11631,51.34449c-2.01102,0.59057 -9.77644,-1.50986 -11.7341,-3.17389c-1.34947,-1.05001 -0.24499,-1.18126 5.933,0.48978c5.91207,1.5991 7.09053,2.3479 5.8011,2.68411z" data-paper-data="{&quot;noHover&quot;:false,&quot;origItem&quot;:[&quot;Path&quot;,{&quot;applyMatrix&quot;:true,&quot;segments&quot;:[[[428.84035,307.89094],[2.25782,0],[-2.35938,0]],[[426.77003,308.18782],[-0.57812,-0.2436],[0.85156,0.40346]],[[431.05129,308.18782],[-0.66408,0.40346],[0.42968,-0.2436]]],&quot;closed&quot;:true,&quot;fillColor&quot;:[0,0,0]}]}" fill="#ffffff" stroke="none" stroke-width="0.5" stroke-linecap="butt"/><path d="M239.84463,47.77201c4.89425,1.38799 5.32067,1.60219 3.28456,1.69363c-2.81875,0.07243 -13.98286,-3.52982 -15.92014,-5.10274c-1.09382,-0.93804 -0.60552,-0.95843 2.54452,0.23608c2.13753,0.79226 6.98169,2.24633 10.09106,3.17302z" data-paper-data="{&quot;noHover&quot;:false,&quot;origItem&quot;:[&quot;Path&quot;,{&quot;applyMatrix&quot;:true,&quot;segments&quot;:[[[426.57475,306.89362],[0.83594,0.07614],[-1.23438,-0.1218]],[[425.64507,307.04588],[-0.47656,-0.22838],[0.83594,0.37302]],[[431.59819,307.31992],[-1,0.2969],[0.71876,-0.22838]],[[430.27007,307.04588],[1.875,0.02282],[-1.19532,-0.03046]]],&quot;closed&quot;:true,&quot;fillColor&quot;:[0,0,0]}]}" fill="#ffffff" stroke="none" stroke-width="0.5" stroke-linecap="butt"/><path d="M221.92303,-17.86349l67.18881,1.45797l-21.67155,43.40472c0,0 -6.46338,8.02192 -9.28593,8.84906c-2.42915,0.71187 -1.02252,-5.90741 -3.72456,-4.2733c-3.04323,1.84044 -4.60632,6.71599 -6.99698,7.43934c-2.9938,0.90583 -0.87206,-7.61249 -2.7142,-5.82126c-2.60756,2.53551 -8.53862,5.61994 -11.56399,10.57019c-4.22447,6.91226 -5.22949,15.65601 -5.22949,15.65601c0,0 -6.31228,-2.32748 -8.02847,-5.16457c-2.43092,-4.01859 -5.17454,-16.66161 -5.17454,-16.66161l4.77257,-41.15746z" fill="#000000" stroke="#000000" stroke-width="0.5" stroke-linecap="round"/><path d="M249.15053,10.52081c1.48608,-4.97356 6.63823,-7.94612 11.7755,-6.55659c5.13724,1.38954 7.91337,6.50191 6.62278,11.53299c-1.29058,5.03108 -6.14677,8.31281 -11.78183,6.86654c-5.35996,-1.37566 -8.16844,-6.64881 -6.61646,-11.84294z" fill="#ffffff" stroke="#000000" stroke-width="1.4" stroke-linecap="butt"/><path d="M251.22955,11.28722c1.07857,-4.20462 5.15491,-6.74703 9.10478,-5.67867c3.94987,1.06836 6.2775,5.34295 5.19893,9.54756c-1.07857,4.20462 -5.1549,6.74703 -9.10478,5.67867c-3.94987,-1.06836 -6.2775,-5.34295 -5.19893,-9.54756z" fill="#000000" stroke="none" stroke-width="1.5" stroke-linecap="butt"/></g><path d="M263.4996,81.93379c-0.14415,5.35858 -2.36042,9.64608 -7.15494,9.5171c-4.79452,-0.12898 -7.31521,-3.52185 -7.17105,-8.88043c0.05228,-1.94355 -2.2249,-9.75372 -1.24217,-10.34642c1.72677,-1.04145 6.24611,5.11521 9.30167,5.19741c2.49632,0.06715 6.0227,-4.96893 7.46043,-4.43811c1.32363,0.48869 -1.12484,6.38188 -1.19394,8.95045z" fill="url(#color-6)" stroke="#000000" stroke-width="1.5" stroke-linecap="butt"/></g></g></svg>