<svg version="1.1" xmlns="http://www.w3.org/2000/svg" xmlns:xlink="http://www.w3.org/1999/xlink" width="35.67311" height="35.67311" viewBox="0,0,35.67311,35.67311"><g transform="translate(-222.16348,-162.16347)"><g data-paper-data="{&quot;isPaintingLayer&quot;:true}" stroke="#000000" stroke-miterlimit="10" stroke-dasharray="" stroke-dashoffset="0" style="mix-blend-mode: normal"><path d="M229.98314,162.91348h20.03379c3.9166,0 7.06966,3.15307 7.06966,7.06966v20.03379c0,3.91659 -3.15306,7.06966 -7.06966,7.06966h-20.03379c-3.91659,0 -7.06966,-3.15307 -7.06966,-7.06966v-20.03379c0,-3.91659 3.15307,-7.06966 7.06966,-7.06966z" fill="#7c008c" fill-rule="evenodd" stroke-width="1.5" stroke-linecap="round" stroke-linejoin="round"/><g fill="#ffffff" fill-rule="nonzero" stroke-width="1" stroke-linejoin="miter"><path d="M241.8908,172.78767z" stroke-linecap="butt"/><path d="M230.37564,181.88605c-0.10843,-0.42232 -2.89655,-5.08048 0.00152,-9.2046c0.04786,-0.06811 -0.86632,0.07327 -0.86632,0.07327c0,0 4.07082,-3.46048 5.1318,-3.96126c2.78399,-1.25444 7.13344,-1.04241 7.13344,-1.04241c0,0 1.3037,-0.7715 1.97781,-0.10284c0.3649,0.36195 1.25347,1.57869 2.02621,2.15078c0.61448,0.45493 1.15191,-0.06357 1.15191,-0.06357l-0.45879,0.99219c0,0 1.19861,0.15404 1.38848,0.9222c0.46516,1.88188 2.20804,4.44345 2.20804,4.44345l-0.65709,0.18934l0.89553,1.03039l-0.74545,0.53029c0,0 1.15152,0.77752 1.67346,1.77268c0.77087,1.46976 1.06265,3.4233 1.52867,4.12165c0.34796,0.52143 1.08533,1.58466 1.08533,1.58466l-1.37931,-0.38253c0,0 0.17425,0.75174 0.17102,1.11622c-0.00323,0.36401 -0.19042,1.06924 -0.19042,1.06924l-0.81931,-0.86656c0,0 -0.16842,0.82759 -0.2212,1.03691c-0.06372,0.2527 -0.30477,0.77742 -0.30477,0.77742l-0.44097,-0.7084l-1.17359,1.91046c0,0 -1.52204,1.72766 -4.04582,2.81343c-3.58942,1.54422 -5.61062,0.74224 -5.61062,0.74224c0,0 -0.00424,0.27066 0.04471,0.42195c0.05572,0.17224 0.27195,0.55681 0.27195,0.55681c0,0 -0.67115,-0.04008 -0.92821,-0.12477c-0.23601,-0.07775 -0.55637,-0.36434 -0.55637,-0.36434l-0.12172,1.07722c0,0 -0.51687,-0.28477 -0.70675,-0.50019c-0.23642,-0.26823 -0.60299,-0.98577 -0.60299,-0.98577l-0.32075,0.92802c0,0 -1.07078,-1.82633 -2.21416,-3.03627c-1.36277,-1.44211 -0.69392,-2.32712 -0.69392,-2.32712l-0.98237,0.85524c0,0 0.26785,-0.52661 0.08914,-1.01536c-0.23037,-0.63004 -1.35824,-2.16209 -1.94567,-3.40602c-0.39179,-0.82966 -0.35014,-1.61358 -0.35014,-1.61358l-0.71767,0.59225c0,0 0.32837,-1.79615 0.27535,-2.00269z" stroke-linecap="butt"/><g stroke-linecap="butt"><path d="M240.758,181.95006c0.66005,1.54572 -0.17071,3.38201 -1.85554,4.10146c-1.68484,0.71945 -3.58574,0.04963 -4.24579,-1.4961c-0.66005,-1.54572 0.17071,-3.38201 1.85554,-4.10146c1.68484,-0.71945 3.58574,-0.04963 4.24579,1.4961z"/><path d="M240.29557,182.11114c0.59216,1.38673 -0.10254,3.01253 -1.55165,3.63132c-1.44911,0.61879 -3.10388,-0.00375 -3.69604,-1.39048c-0.59216,-1.38673 0.10254,-3.01253 1.55165,-3.63133c1.44911,-0.61879 3.10388,0.00375 3.69604,1.39048z"/><path d="M238.06458,182.06162c0.27911,0.65362 -0.12223,1.45148 -0.89641,1.78207c-0.77418,0.33059 -1.62804,0.06872 -1.90715,-0.5849c-0.27911,-0.65362 0.12223,-1.45147 0.89641,-1.78206c0.77418,-0.33059 1.62804,-0.06872 1.90714,0.5849z"/><path d="M236.05393,184.31948c0.07543,0.17665 -0.01629,0.38514 -0.20487,0.46567c-0.18858,0.08053 -0.40261,0.0026 -0.47805,-0.17405c-0.07543,-0.17665 0.01629,-0.38514 0.20487,-0.46567c0.18858,-0.08053 0.40261,-0.0026 0.47805,0.17405z"/><path d="M237.63975,184.54995c0.12824,0.30031 -0.05746,0.66745 -0.41478,0.82003c-0.35732,0.15258 -0.75093,0.03282 -0.87917,-0.26749c-0.12824,-0.30031 0.05746,-0.66745 0.41478,-0.82003c0.35732,-0.15258 0.75093,-0.03282 0.87917,0.26749z"/></g><g stroke-linecap="butt"><path d="M247.97067,179.0025c0.66005,1.54572 -0.17071,3.38201 -1.85554,4.10146c-1.68484,0.71945 -3.58574,0.04963 -4.24579,-1.4961c-0.66005,-1.54572 0.17071,-3.38201 1.85554,-4.10146c1.68484,-0.71945 3.58574,-0.04963 4.24579,1.4961z"/><path d="M247.50824,179.16358c0.59216,1.38673 -0.10254,3.01253 -1.55165,3.63132c-1.44911,0.61879 -3.10388,-0.00375 -3.69604,-1.39048c-0.59216,-1.38673 0.10254,-3.01253 1.55165,-3.63133c1.44911,-0.61879 3.10388,0.00375 3.69604,1.39048z"/><path d="M245.27726,179.11406c0.27911,0.65362 -0.12223,1.45148 -0.89641,1.78207c-0.77418,0.33059 -1.62804,0.06872 -1.90715,-0.5849c-0.27911,-0.65362 0.12223,-1.45147 0.89641,-1.78206c0.77418,-0.33059 1.62804,-0.06872 1.90714,0.5849z"/><path d="M243.26661,181.37192c0.07543,0.17665 -0.01629,0.38514 -0.20487,0.46567c-0.18858,0.08053 -0.40261,0.0026 -0.47805,-0.17405c-0.07543,-0.17665 0.01629,-0.38514 0.20487,-0.46567c0.18858,-0.08053 0.40261,-0.0026 0.47805,0.17405z"/><path d="M244.85242,181.60239c0.12824,0.30031 -0.05746,0.66745 -0.41478,0.82003c-0.35732,0.15258 -0.75093,0.03282 -0.87917,-0.26749c-0.12824,-0.30031 0.05746,-0.66745 0.41478,-0.82003c0.35732,-0.15258 0.75093,-0.03282 0.87917,0.26749z"/></g><path d="M245.92443,188.65167c0,0 -0.13549,0.88771 -0.2642,1.20686c-0.0791,0.19614 -0.4346,0.52585 -0.4346,0.52585c0,0 -0.64699,-0.09876 -0.88923,-0.18949c-0.25386,-0.09509 -0.60072,-0.36859 -0.60072,-0.36859" data-paper-data="{&quot;index&quot;:null}" stroke-linecap="round"/><path d="M234.68684,184.68578c0,0 -1.71073,-3.06904 1.71447,-4.47623c3.36616,-1.38293 4.55479,1.79916 4.55479,1.79916c0,0 -1.93194,1.48843 -2.99257,1.94134c-1.02812,0.43902 -3.27669,0.73573 -3.27669,0.73573z" stroke-linecap="butt"/><path d="M241.87561,181.68224c0,0 -2.00155,-3.38717 1.42365,-4.79436c3.36617,-1.38293 4.78963,2.14119 4.78963,2.14119c0,0 0.9927,3.22504 -1.93645,4.4144c-3.01932,1.22597 -4.27683,-1.76123 -4.27683,-1.76123z" stroke-linecap="butt"/><path d="M239.38603,167.36296c0.04066,-0.34474 2.40384,-1.58604 2.40384,-1.58604l-0.92104,1.40835c0,0 -0.66856,0.7608 -0.37589,0.74984c0.34023,-0.01275 1.13538,-0.16139 1.649,-0.49711c0.36842,-0.24081 0.53894,-0.70211 0.53894,-0.70211c0,0 0.13274,0.42952 0.13029,0.86128c-0.00183,0.32263 -0.14977,0.67667 -0.1023,0.69026c0.0186,0.00533 0.03713,0.01072 0.0556,0.01618c-0.00568,0.00583 -0.01132,0.01167 -0.01693,0.01751c-0.02787,0.02264 -0.05397,0.05053 -0.07933,0.08514c-0.01799,0.01994 -0.03541,0.03972 -0.05217,0.05923l-0.00569,-0.0074l-0.09549,0.0734c-0.02228,0.01636 -0.03122,0.04643 -0.0199,0.07294c0.0009,0.00211 0.00191,0.00415 0.00302,0.00611c-0.10249,0.04051 -0.20787,0.07265 -0.31734,0.09061c-0.84199,0.14028 -1.61837,0.24455 -2.47756,0.10104c-0.33732,0.08949 -1.27029,-0.28181 -1.5696,-0.6972c0.29027,-0.09221 1.2191,-0.45855 1.25253,-0.74205z" stroke-linecap="butt"/><g stroke-linecap="butt"><path d="M228.9637,177.17416l-0.03378,-0.01812l0.09118,0.00012l-0.0574,0.018"/><path d="M231.09713,174.03058l-0.13058,0.07528l-0.02437,0.0039l0.05282,-0.12019l-0.20809,-0.15197c-0.60729,-0.42629 -1.10646,-0.58415 -1.49751,-0.47357c-0.4398,0.11837 -0.77014,0.28981 -0.99105,0.51432c-0.22614,0.22241 -0.33603,0.50365 -0.32966,0.84374c0.00636,0.34009 0.1524,0.66176 0.43811,0.96501c0.25692,0.27649 0.55059,0.50691 0.88099,0.69127l0.13745,0.078l0.32754,0.17257l0.14659,-0.29692c0.01658,0.14046 -0.05407,0.27477 -0.21196,0.40294l-0.3509,0.2605l-0.18878,0.10665l-0.27582,-0.05145l-0.01175,-0.02753l-0.00396,0.02122c-0.26454,-0.06061 -0.5162,-0.15709 -0.75497,-0.28946c-1.01113,-0.54892 -1.52857,-1.16111 -1.55231,-1.83658c-0.01309,-0.40664 0.14939,-0.83402 0.48744,-1.28213c0.13385,-0.17432 0.29207,-0.35253 0.47467,-0.53465c1.22302,-1.1905 2.3743,-1.21781 3.45383,-0.08192l0.36807,0.43515c-0.01545,0.19753 -0.09405,0.38948 -0.23577,0.57583"/><path d="M230.62937,174.09363l-1.01195,2.06587l-0.02357,-0.00947c-1.06543,-0.30008 -1.39786,-0.94138 -0.99727,-1.92389c0.42328,-0.7058 1.00951,-0.80643 1.7587,-0.30187l0.27409,0.16935"/><path d="M228.8719,177.05064l0.27582,0.05145l0.36075,0.0217l-0.48737,0.03237l-0.09118,-0.00012c-1.5825,0.00316 -2.49883,-0.70991 -2.749,-2.1392c-0.10754,-0.70912 0.06417,-1.3791 0.51512,-2.00993c0.93866,-0.92154 1.92563,-1.32346 2.96091,-1.20577c1.03528,0.11769 1.63029,0.71846 1.78501,1.80231l-0.10906,-0.1487l-0.36807,-0.43515c-1.07953,-1.13589 -2.23081,-1.10859 -3.45383,0.08192c-0.18259,0.18211 -0.34081,0.36033 -0.47467,0.53465c-0.33805,0.4481 -0.50053,0.87548 -0.48744,1.28213c0.02374,0.67547 0.54118,1.28767 1.55231,1.83658c0.23877,0.13236 0.49043,0.22885 0.75497,0.28946l0.01571,0.00631"/><path d="M229.89937,176.33201l-0.14659,0.29692l-0.32754,-0.17257l-0.13745,-0.07799c-0.33041,-0.18436 -0.62407,-0.41479 -0.88099,-0.69127c-0.28571,-0.30325 -0.43175,-0.62492 -0.43811,-0.96501c-0.00636,-0.34009 0.10352,-0.62134 0.32966,-0.84374c0.2209,-0.22451 0.55125,-0.39595 0.99105,-0.51432c0.39105,-0.11057 0.89023,0.04728 1.49751,0.47357l0.20809,0.15197l-0.05282,0.12019l-1.04281,2.22225M230.35528,173.92428c-0.74919,-0.50456 -1.33542,-0.40393 -1.7587,0.30187c-0.40058,0.98251 -0.06816,1.6238 0.99727,1.92389l0.02357,0.00947l1.01195,-2.06587l-0.27409,-0.16935"/><path d="M230.35909,173.91966l0.27514,0.17047l-1.01678,2.07534l-0.02367,-0.00946c-1.06543,-0.30008 -1.40294,-0.95041 -1.00236,-1.93292c0.42328,-0.7058 1.01848,-0.80799 1.76767,-0.30344" data-paper-data="{&quot;noHover&quot;:false,&quot;origItem&quot;:[&quot;Path&quot;,{&quot;applyMatrix&quot;:true,&quot;segments&quot;:[[[182.06768,52.57922],[0,0],[-4.1,-6.33334]],[[167.56768,49.12922],[5.56667,-4.03334],[-6.3,6.23334]],[[168.91768,67.17922],[-7.2,-5.8],[0,0]],[169.06768,67.32922],[183.61768,54.77922],[182.06768,52.57922]]}]}"/></g><path d="M246.84977,170.12234l-0.0527,0.02902l0.06297,-0.06594l-0.01027,0.03693" stroke-linecap="butt"/><path d="M243.1037,169.4894c-0.23262,-0.0265 -0.42562,-0.10248 -0.57899,-0.22792l-0.05978,-0.56679c-0.07392,-1.5653 0.74198,-2.37801 2.44769,-2.43812c0.25782,-0.00595 0.49597,0.00301 0.71444,0.02688c0.55745,0.06571 0.97852,0.2439 1.2632,0.53457c0.47149,0.48428 0.55585,1.2814 0.25309,2.39137c-0.06952,0.26401 -0.17385,0.51251 -0.31302,0.74551l-0.01806,-0.01181l0.01175,0.02753l-0.15358,0.23481l-0.20759,0.06261l-0.43083,0.07332c-0.20178,0.02541 -0.34766,-0.01644 -0.43764,-0.12555l0.31584,0.09945l0.10186,-0.35593l0.03872,-0.15322c0.09533,-0.36616 0.13197,-0.73763 0.10993,-1.11441c-0.02146,-0.41609 -0.15282,-0.74403 -0.39407,-0.98382c-0.24125,-0.23979 -0.52039,-0.35491 -0.83743,-0.34537c-0.31493,0.0043 -0.66723,0.12436 -1.05687,0.36017c-0.35031,0.206 -0.58149,0.67573 -0.69354,1.40919l-0.03413,0.25541l0.12334,0.04497l-0.01967,0.01491l-0.14468,0.04225" stroke-linecap="butt"/><path d="M243.47272,169.19513l0.06722,-0.3151c0.15366,-0.89009 0.63175,-1.24394 1.43429,-1.06158c0.98671,0.39011 1.22004,1.07372 0.69999,2.05083l-0.00946,0.02357l-2.19205,-0.69771" stroke-linecap="butt"/><path d="M246.82403,169.97061l0.00631,-0.01571c0.13917,-0.233 0.24351,-0.4815 0.31302,-0.74551c0.30276,-1.10997 0.2184,-1.90709 -0.25309,-2.39137c-0.28468,-0.29067 -0.70574,-0.46886 -1.2632,-0.53457c-0.21848,-0.02387 -0.45663,-0.03283 -0.71444,-0.02688c-1.70572,0.06011 -2.52162,0.87282 -2.44769,2.43812l0.05978,0.56679l0.03199,0.18161c-0.67588,-0.86131 -0.69835,-1.70656 -0.06741,-2.53575c0.63095,-0.8292 1.60381,-1.26415 2.91859,-1.30486c0.76752,0.11052 1.37021,0.44983 1.80805,1.0179c0.85941,1.16914 0.74077,2.32416 -0.3559,3.46504l-0.06297,0.06594l-0.36042,0.32965l0.23381,-0.27558l0.15358,-0.23481" stroke-linecap="butt"/><path d="M245.59439,170.2158l-2.32634,-0.78357l-0.12334,-0.04497l0.03413,-0.25541c0.11205,-0.73346 0.34323,-1.20319 0.69354,-1.40919c0.38965,-0.23581 0.74194,-0.35587 1.05687,-0.36017c0.31704,-0.00954 0.59618,0.10558 0.83743,0.34537c0.24125,0.23979 0.37261,0.56773 0.39407,0.98382c0.02204,0.37679 -0.01461,0.74826 -0.10993,1.11441l-0.03872,0.15322l-0.10186,0.35593l-0.31584,-0.09945M243.53995,168.88002l-0.06722,0.3151l2.19205,0.69771l0.00946,-0.02357c0.52005,-0.97711 0.28672,-1.66072 -0.69999,-2.05083c-0.80254,-0.18236 -1.28063,0.1715 -1.43429,1.06158" stroke-linecap="butt"/><path d="M243.53398,168.8796c0.15366,-0.89009 0.63909,-1.24934 1.44163,-1.06698c0.98671,0.39011 1.22305,1.08364 0.703,2.06075l-0.00953,0.02364l-2.20223,-0.70078l0.06714,-0.31663" data-paper-data="{&quot;noHover&quot;:false,&quot;origItem&quot;:[&quot;Path&quot;,{&quot;applyMatrix&quot;:true,&quot;segments&quot;:[[292.89462,54.07922],[291.34462,56.27922],[305.89462,68.82922],[[306.04462,68.67922],[0,0],[7.2,-5.8]],[[307.39462,50.62922],[6.3,6.23334],[-5.56666,-4.03334]],[[292.89462,54.07922],[4.1,-6.33334],[0,0]]]}]}" stroke-linecap="butt"/><g stroke-linecap="butt"><path d="M246.88847,175.00825c0.81834,1.91641 1.60443,5.24756 -3.59354,7.99786c-0.20706,0.10956 -0.62274,0.08256 -0.95417,-0.18906c-0.43752,-0.35857 -0.83148,-0.98699 -1.42597,-0.74333c-0.55627,0.228 -0.54987,0.96653 -0.6279,1.50981c-0.06852,0.47713 -0.23549,0.77465 -0.45024,0.84002c-5.75999,1.75342 -7.69661,-0.9711 -8.48823,-2.82494c-0.03143,-0.0736 15.50581,-6.67054 15.54004,-6.59037z"/><path d="M239.95472,184.39961c-0.72344,0.22023 -1.38656,0.36981 -1.99468,0.45936c-0.31503,0.04639 -0.48772,0.07513 -0.77397,0.09076c-0.11305,0.00617 0.96601,-6.03455 0.96601,-6.03455c0,0 0.7303,-0.5536 1.21569,-0.7595c0.38249,-0.16224 0.96183,-0.22499 0.96183,-0.22499l0.20315,0.02241c0,0 -0.36717,6.38232 -0.57803,6.44651z"/><path d="M244.26516,176.34589c0.09902,0.23188 2.43622,-1.32723 2.43622,-1.32723l-0.96463,6.33053c0,0 -1.94358,1.4133 -2.39796,1.68877c-0.21361,0.1295 0.89214,-6.77223 0.92637,-6.69207z"/><path d="M231.62587,182.18472c0,0 -2.24337,-1.87284 -2.32132,-2.0554c-0.06719,-0.15736 1.88107,1.0244 1.88107,1.0244l15.75721,-6.76639c0,0 0.95758,-1.73504 1.16511,-1.22411c0.21735,0.53512 -0.72485,2.2551 -0.72485,2.2551z"/></g></g></g></g></svg>