<svg version="1.1" xmlns="http://www.w3.org/2000/svg" xmlns:xlink="http://www.w3.org/1999/xlink" width="93.36936" height="242.99025" viewBox="0,0,93.36936,242.99025"><defs><linearGradient x1="201.04769" y1="226.97811" x2="281.75309" y2="226.97811" gradientUnits="userSpaceOnUse" id="color-1"><stop offset="0" stop-color="#000000"/><stop offset="1" stop-color="#797979"/></linearGradient><linearGradient x1="248.14144" y1="149.4374" x2="251.50247" y2="160.4353" gradientUnits="userSpaceOnUse" id="color-2"><stop offset="0" stop-color="#000000"/><stop offset="1" stop-color="#480000"/></linearGradient><radialGradient cx="252.67471" cy="121.52822" r="9.52652" gradientUnits="userSpaceOnUse" id="color-3"><stop offset="0" stop-color="#ffffff"/><stop offset="1" stop-color="#ff9191"/></radialGradient><linearGradient x1="239.62551" y1="155.62213" x2="239.62551" y2="181.99396" gradientUnits="userSpaceOnUse" id="color-4"><stop offset="0" stop-color="#7c0000"/><stop offset="1" stop-color="#a90000"/></linearGradient><linearGradient x1="206.24279" y1="235.05558" x2="206.24279" y2="247.88892" gradientUnits="userSpaceOnUse" id="color-5"><stop offset="0" stop-color="#ff0000"/><stop offset="1" stop-color="#a00000" stop-opacity="0.83921"/></linearGradient><linearGradient x1="206.35945" y1="245.88892" x2="206.35945" y2="260.88892" gradientUnits="userSpaceOnUse" id="color-6"><stop offset="0" stop-color="#a00000"/><stop offset="1" stop-color="#580000" stop-opacity="0.72513"/></linearGradient></defs><g transform="translate(-193.31533,-62.64474)"><g data-paper-data="{&quot;isPaintingLayer&quot;:true}" fill-rule="nonzero" stroke-linejoin="miter" stroke-miterlimit="10" stroke-dasharray="" stroke-dashoffset="0" style="mix-blend-mode: normal"><path d="M201.8413,304.26104c0,0 -0.63536,-94.38387 -0.79335,-118.01201c-0.05451,-8.15261 8.18688,-36.76129 40.20201,-36.9211c31.60235,-0.15775 39.85672,29.48704 39.84884,36.89673c-0.07659,46.24274 0.65429,117.98648 0.65429,117.98648l-10.49667,0.09614l-0.15882,-114.84311c0,0 0.07549,-3.0993 -2.81625,-3.15415c-3.43441,-0.06514 -2.94538,3.11562 -2.94538,3.11562l-2.46119,115.20328l-42.21366,-0.26111l-3.63872,-115.23309c0,0 0.27949,-2.919 -2.8856,-2.93443c-3.11083,-0.01515 -2.81569,2.90899 -2.81569,2.90899l0.35311,115.0668z" fill="url(#color-1)" stroke="#000000" stroke-width="2" stroke-linecap="butt"/><path d="M216.6896,303.3061v-116.10693c0,0 0.75721,-9.47843 0.75721,-14.25932c0,-4.38123 -0.75721,-13.33187 -0.75721,-13.33187c0,0 2.67319,-2.29189 4.6557,-3.65077c1.98251,-1.35888 5.17197,-2.73093 5.17197,-2.73093c0,0 -0.6016,-0.13223 14.55952,-0.20075c15.43477,-0.06976 13.83154,0.20076 13.83154,0.20076c0,0 3.91276,1.48014 6.16585,2.87006c2.25309,1.3899 4.75379,3.51164 4.75379,3.51164c0,0 -0.75721,9.17996 -0.75721,13.82358c0,4.71623 0.75721,14.25932 0.75721,14.25932v115.61524z" fill="#313131" stroke="#000000" stroke-width="2" stroke-linecap="butt"/><path d="M196.73782,111.02314c0,0 6.16329,-5.92187 6.29161,-6.78761c0.33654,-2.27063 -0.16776,-40.17317 35.96775,-41.57382c44.63633,-0.91362 39.01489,35.34872 41.53088,42.1903c3.44981,9.38084 6.15664,17.40016 6.15664,17.40016c0,0 -2.76715,-2.05351 -4.0797,-3.13397c-1.2242,-1.00773 -3.80143,-3.14585 -3.80143,-3.14585c0,0 3.09111,10.3481 1.31092,20.69498c-1.5623,9.48098 -7.29782,17.22543 -7.29782,17.22543l-1.15522,-2.34735c0,0 -1.02266,2.19794 -2.16005,3.33274c-1.1374,1.13479 -3.43873,2.91273 -3.43873,2.91273l-0.09205,-3.70421c0,0 -7.0601,11.01795 -24.35066,10.87154c-16.30625,-0.25547 -26.07151,-10.6752 -26.07151,-10.6752l-0.1162,2.65484c0,0 -3.89477,-3.29276 -6.18145,-9.70754c-2.72545,-7.64567 -3.23946,-12.24324 -3.23946,-12.24324c0,0 -2.33908,1.89916 -5.71704,2.7744c-4.23278,1.09673 -6.94665,0.34526 -6.94665,0.34526c0,0 3.60795,-2.71717 5.58396,-4.76989c1.76007,-1.8284 2.64658,-3.37722 2.64658,-3.37722c0,0 -2.10758,1.0847 -4.23277,1.61795c-2.21739,0.5564 -4.03008,0.53093 -4.03008,0.53093c0,0 4.97492,-5.03728 7.03074,-10.87429c1.94102,-5.51108 2.09972,-10.95731 2.09972,-10.95731c0,0 -1.36165,0.66163 -3.33013,0.79513c-1.24776,0.08463 -2.37785,-0.0489 -2.37785,-0.0489z" fill="#000000" stroke="none" stroke-width="1.5" stroke-linecap="butt"/><path d="M240.15707,153.60216l1.5,149" fill="none" stroke="#000000" stroke-width="1.5" stroke-linecap="round"/><path d="M213.52369,122.34476c-0.57709,-7.29323 0.335,-17.15448 0.335,-17.15448c0,0 3.41059,-0.04124 13.91429,-3.14424c8.0696,-2.38394 20.54731,-9.48722 20.54731,-9.48722c0,0 -2.16005,3.00503 -3.40781,4.46015c-1.32651,1.54696 -3.99292,4.56297 -3.99292,4.56297c0,0 7.838,-1.66761 14.67476,-4.72931c8.56837,-3.53575 10.59252,-6.05309 12.95042,-4.5927c2.7829,1.72362 1.03006,23.1827 0.71846,28.74062c-0.42163,5.66922 -2.53327,9.49969 -3.15031,12.52053c-0.61704,3.02084 -0.4096,6.13662 -2.20622,16.0397c-1.12121,6.18021 -4.16183,8.92466 -10.01942,14.66081c-5.85759,5.73616 -9.05378,9.25275 -13.01359,9.32173c-3.81077,0.06639 -8.93565,-5.1002 -13.93542,-10.38244c-5.32393,-5.62474 -8.87489,-8.47713 -9.71551,-15.13975c-0.75707,-6.00039 -0.77653,-9.90853 -1.12266,-15.24835c-0.25298,-3.90273 -2.26119,-6.44504 -2.57636,-10.42801z" fill="#ffffff" stroke="#000000" stroke-width="1.5" stroke-linecap="butt"/><path d="M248.14144,149.4374c5.80988,-1.77554 11.27211,-0.75293 12.20023,2.28405c0.92812,3.03698 -3.02932,6.9383 -8.8392,8.71384c-5.80988,1.77554 -11.27212,0.75293 -12.20024,-2.28405c-0.92812,-3.03698 3.02933,-6.9383 8.83921,-8.71384z" fill="url(#color-2)" stroke="none" stroke-width="0" stroke-linecap="butt"/><path d="M261.59369,107.2244c0,0 1.52429,0.31807 4.2558,1.11029c2.49492,0.72361 4.44935,1.74403 4.44935,1.74403l0.1951,1.17035c0,0 -7.24963,-3.12997 -15.1158,-2.4706c-6.2896,0.52724 -9.96319,2.8124 -9.96319,2.8124l0.04575,-4.17683c0,0 3.12748,-1.70421 7.86366,-1.85557c4.90428,-0.15672 8.09084,0.59125 8.09084,0.59125z" data-paper-data="{&quot;index&quot;:null}" fill="#000000" stroke="none" stroke-width="1.5" stroke-linecap="butt"/><path d="M248.82957,150.21191c0.5704,0.21186 5.08357,-2.35058 8.02385,-1.15414c2.1557,0.87718 3.93376,0.5504 4.73555,2.07545c0.30052,0.57162 -1.03611,2.08938 -1.04143,2.13506c-0.02476,0.21265 -7.68477,-1.02306 -10.92937,-0.61776c-2.71902,0.33964 -7.93867,3.95564 -7.93867,3.95564c0,0 -7.10401,-1.16169 -13.27235,-2.44521c-4.94371,-1.02869 -10.39929,-1.66108 -10.40995,-1.75461c-0.01439,-0.12613 3.86835,-0.71071 6.82417,-1.39467c1.14585,-0.49661 5.43971,-1.48513 5.43971,-1.48513c0,0 4.95585,-0.27766 7.60826,0.579c2.84203,0.91791 2.83546,2.44556 3.0831,2.46906c0,0 1.18436,-1.74932 2.36886,-2.10461c1.18451,-0.35528 5.08219,-0.41633 5.50828,-0.25808z" fill="#ffffff" stroke="#000000" stroke-width="1.4" stroke-linecap="butt"/><path d="M241.15585,151.77186c-1.03376,0 -3.5381,-3.26042 -3.7867,-5.3637c-0.22243,-1.88186 1.31512,-3.82799 3.7867,-3.82799c2.47159,0 4.2021,0.49077 4.02999,4.18853c-0.14607,3.13818 -1.55841,5.00317 -4.02999,5.00317z" fill="#ffffff" stroke="#000000" stroke-width="1.15" stroke-linecap="butt"/><path d="M244.75794,121.67814c0,0 0.1026,3.96976 0.00576,7.12662c-0.19174,6.25113 -1.08147,27.7607 -1.08147,27.7607l-2.98167,0.00864c0,0 -0.80294,-4.17274 -1.12322,-9.49979c-0.43353,-7.21063 -0.4495,-16.29321 -0.76344,-19.63229c-0.29758,-3.16513 -0.89593,-5.71453 -0.89593,-5.71453" fill="#ffffff" stroke="#000000" stroke-width="1.3" stroke-linecap="round"/><path d="M215.22337,132.46798c0,0 -4.93211,-3.51705 -6.16417,-8.97502c-1.29636,-5.74284 -1.46118,-9.7328 0.48013,-9.99193c1.94131,-0.25915 2.70321,2.37692 3.73262,8.35569c1.0294,5.97877 1.95143,10.61127 1.95143,10.61127z" data-paper-data="{&quot;index&quot;:null}" fill="#ffffff" stroke="#000000" stroke-width="1" stroke-linecap="butt"/><path d="M215.02074,128.52042c0,0 -3.56385,-2.92338 -4.31816,-8.45061c-0.42079,-3.08327 2.15675,-2.28016 2.15675,-2.28016" fill="none" stroke="#000000" stroke-width="0.25" stroke-linecap="round"/><path d="M218.03417,121.86452c0.07093,-4.89188 4.83834,-8.93609 10.21137,-8.8582c5.37302,0.0779 9.02724,4.2484 8.95632,9.14029c-0.07093,4.89188 -4.12352,8.79439 -9.49655,8.7165c-5.37302,-0.0779 -9.74207,-4.1067 -9.67114,-8.99859z" fill="#ffffff" stroke="#000000" stroke-width="1.4" stroke-linecap="butt"/><path d="M244.49819,122.3438c0.20353,-4.88817 4.45264,-8.85847 9.77048,-8.85847c5.31783,0 9.27453,3.96607 9.27453,8.85847c0,4.8924 -3.88585,9.07104 -9.69964,9.14188c-5.52997,0.06739 -9.55792,-4.03692 -9.34537,-9.14188z" fill="url(#color-3)" stroke="#000000" stroke-width="1.4" stroke-linecap="butt"/><path d="M222.4718,121.98246c0.03999,-2.75843 2.30855,-4.96213 5.06696,-4.92214c2.75843,0.03999 4.96213,2.30855 4.92214,5.06696c-0.03999,2.75843 -2.30854,4.96213 -5.06696,4.92214c-2.75843,-0.03999 -4.96213,-2.30855 -4.92214,-5.06696z" fill="#000000" stroke="none" stroke-width="1.5" stroke-linecap="butt"/><path d="M249.55986,122.5508c0,-2.37662 1.92663,-4.30325 4.30325,-4.30325c2.37662,0 4.30325,1.92663 4.30325,4.30325c0,2.37662 -1.92662,4.30325 -4.30325,4.30325c-2.37662,0 -4.30325,-1.92663 -4.30325,-4.30325z" fill="#000000" stroke="none" stroke-width="1.5" stroke-linecap="butt"/><path d="M217.96575,121.33234c0,0 0.06357,-9.01512 10.60111,-8.8249c9.47101,0.16586 9.55554,9.40723 9.55554,9.40723z" fill="#ffffff" stroke="#000000" stroke-width="1.15" stroke-linecap="butt"/><path d="M221.49558,111.32068c0,0 3.36963,-1.819 8.03244,-2.28178c5.16698,-0.51283 7.76823,-0.06628 7.76823,-0.06628l0.29508,4.13747c0,0 -3.83554,-0.68065 -8.01795,-0.52113c-5.59346,0.21333 -6.64488,1.43293 -10.89774,1.89119c-3.64408,0.39266 -6.73723,0.15884 -6.73723,0.15884l-0.02589,-1.23155c0,0 3.59517,0.07398 5.23371,-0.06836c1.35239,-0.11749 3.9757,-0.93808 3.9757,-0.93808z" fill="#000000" stroke="none" stroke-width="1.5" stroke-linecap="butt"/><path d="M269.45649,121.85671c1.0294,-5.97877 1.7913,-8.61483 3.73262,-8.35569c1.94131,0.25914 1.77649,4.24909 0.48013,9.99193c-1.23206,5.45797 -6.16417,8.97502 -6.16417,8.97502c0,0 0.92203,-4.6325 1.95143,-10.61127z" data-paper-data="{&quot;index&quot;:null}" fill="#ffffff" stroke="#000000" stroke-width="1" stroke-linecap="butt"/><path d="M269.86902,117.78965c0,0 2.57754,-0.80312 2.15675,2.28016c-0.75431,5.52723 -4.31816,8.45061 -4.31816,8.45061" data-paper-data="{&quot;index&quot;:null}" fill="none" stroke="#000000" stroke-width="0.25" stroke-linecap="round"/><path d="" data-paper-data="{&quot;index&quot;:null}" fill="#000000" stroke="none" stroke-width="1.5" stroke-linecap="butt"/><path d="" fill="#ffffff" stroke="none" stroke-width="0.5" stroke-linecap="butt"/><path d="" fill="#000000" stroke="none" stroke-width="0.5" stroke-linecap="butt"/><path d="" fill="#ff0000" stroke="none" stroke-width="0.5" stroke-linecap="butt"/><path d="" fill="#000000" stroke="none" stroke-width="0.5" stroke-linecap="butt"/><path d="" fill="#000000" stroke="none" stroke-width="0.5" stroke-linecap="butt"/><path d="" fill="#000000" stroke="none" stroke-width="0.5" stroke-linecap="butt"/><path d="" fill="#000000" stroke="none" stroke-width="0.5" stroke-linecap="butt"/><path d="" fill="#000000" stroke="none" stroke-width="0.5" stroke-linecap="butt"/><path d="" fill="#000000" stroke="none" stroke-width="0.5" stroke-linecap="butt"/><path d="M201.80001,231.43336l0.2,-47.35c0,0 1.29315,-7.93499 4.60112,-14.363c3.11908,-6.06095 8.49209,-11.14341 9.17726,-10.92807c0.3849,0.12097 0.51305,6.19822 0.9264,12.13592c0.43447,6.24113 -0.55579,13.15948 -0.47998,14.42772c0.04763,0.7967 -1.28854,0.29467 -2.23096,0.20016c-0.25838,-0.02591 -0.86763,0.25228 -1.10526,0.33268c-1.56241,0.52863 -1.97191,1.11125 -1.97191,1.11125l-0.11666,44.73333z" fill="#313131" stroke="none" stroke-width="0" stroke-linecap="butt"/><path d="M271.61544,231.13335l0.08334,-43.33333c0,0 -0.4095,-0.58262 -1.97191,-1.11125c-0.23763,-0.0804 -0.84688,-0.35859 -1.10526,-0.33268c-0.94242,0.09451 -2.27859,0.59654 -2.23096,-0.20016c0.07581,-1.26824 -0.91445,-8.18659 -0.47998,-14.42772c0.41335,-5.9377 0.5415,-12.01495 0.9264,-12.13592c0.68517,-0.21534 6.05818,4.86712 9.17726,10.92807c3.30797,6.42801 4.60112,14.363 4.60112,14.363v47.95z" data-paper-data="{&quot;index&quot;:null}" fill="#313131" stroke="none" stroke-width="0" stroke-linecap="butt"/><path d="M199.65706,235.20216v-5.6h13.6v5.6z" fill="#313131" stroke="#000000" stroke-width="1.5" stroke-linecap="butt"/><path d="M269.85706,235.40217v-5.6h13.6v5.6z" fill="#313131" stroke="#000000" stroke-width="1.5" stroke-linecap="butt"/><path d="M244.95706,169.91193c0,0.60751 -0.44772,1.1 -1,1.1c-0.55228,0 -1,-0.49249 -1,-1.1c0,-0.60751 0.44772,-1.1 1,-1.1c0.55228,0 1,0.49249 1,1.1z" fill="#000000" stroke="none" stroke-width="0" stroke-linecap="butt"/><path d="M244.8142,173.48336c0,0.60751 -0.44772,1.1 -1,1.1c-0.55228,0 -1,-0.49249 -1,-1.1c0,-0.60751 0.44772,-1.1 1,-1.1c0.55228,0 1,0.49249 1,1.1z" fill="#000000" stroke="none" stroke-width="0" stroke-linecap="butt"/><path d="M244.74277,176.69764c0,0.60751 -0.44772,1.1 -1,1.1c-0.55228,0 -1,-0.49249 -1,-1.1c0,-0.60751 0.44772,-1.1 1,-1.1c0.55228,0 1,0.49249 1,1.1z" fill="#000000" stroke="none" stroke-width="0" stroke-linecap="butt"/><path d="M199.655,223.80893l13.39057,0.05008l-0.5227,10.39405l-13.39057,-0.05008z" fill-opacity="0.51613" fill="#4b2525" stroke="#000000" stroke-width="0" stroke-linecap="butt"/><path d="M206.9889,200.31324c1.32761,1.28777 2.37051,3.09459 2.33687,5.02136c-0.03901,2.23397 -1.61991,2.41711 -1.34235,4.21034c0.25714,1.66132 2.11279,2.4679 1.6513,4.40016c-0.55192,2.31087 -3.35833,2.03912 -3.3086,4.41924c0.04327,2.07078 1.58856,3.22848 1.66667,5.33333c-0.05362,2.59863 -3.63219,6.73486 -6.68593,4.31859c-1.53494,-1.21451 -0.83013,-5.07489 -0.44341,-6.62176c1.32587,-5.30348 -0.27897,-10.99114 0.6336,-16.4666c0.01118,-3.0278 0.55083,-6.16495 3.91241,-6.48023l1.21722,0.69945c0,0 0.52269,0.52269 0.36223,1.16612z" fill-opacity="0.51613" fill="#4b2525" stroke="none" stroke-width="0.5" stroke-linecap="butt"/><g stroke="none" stroke-linecap="butt"><path d="M261.30436,154.42057c0,0 0.0573,19.32671 -7.93614,27.63844c-2.52381,2.6243 -9.01509,2.83817 -13.93345,2.64252c-4.14889,-0.16503 -9.58897,-1.29288 -12.11524,-3.47048c-9.63019,-8.30102 -8.9132,-27.37125 -8.9132,-27.37125c0,0 6.17739,2.49798 12.13445,1.49322c0.48729,-0.08219 4.00256,-1.86323 4.45192,-1.85707c1.36679,0.01868 7.932,-0.32796 7.932,-0.32796c0,0 4.48628,-0.71611 9.13334,0.98024c5.257,2.2238 9.24626,0.27233 9.24626,0.27233z" fill="#000000" stroke-width="0"/><path d="M246.7769,154.84211c2.51904,0.83245 2.13873,1.14933 -5.26502,1.21337c-4.46851,0.06404 -8.32862,-0.4278 -8.32862,-0.7693c0,-1.47278 9.71649,-1.7674 13.59363,-0.44406z" data-paper-data="{&quot;noHover&quot;:false,&quot;origItem&quot;:[&quot;Path&quot;,{&quot;applyMatrix&quot;:true,&quot;segments&quot;:[[[700.70179,396.02156],[0,-0.52528],[0,0.1218]],[[703.51429,396.21948],[-1.59374,0.02284],[2.64062,-0.02284]],[[705.35023,395.8693],[0.89844,0.2969],[-1.38282,-0.47198]]],&quot;closed&quot;:true,&quot;fillColor&quot;:[0,0,0]}]}" fill="#868686" stroke-width="0.5"/><path d="M236.08133,168.11692c2.86952,1.6008 7.66535,1.46857 10.14059,-0.28161c2.73807,-1.89962 4.49571,-1.99125 3.42236,-0.02759c-1.20473,2.02771 -5.54354,4.42467 -8.41306,4.42467c-2.86952,0 -7.10515,-1.89413 -9.18607,-3.92183c-2.93524,-2.8601 -0.91432,-2.92564 4.03612,-0.19363z" data-paper-data="{&quot;noHover&quot;:false,&quot;origItem&quot;:[&quot;Path&quot;,{&quot;applyMatrix&quot;:true,&quot;segments&quot;:[[[700.29563,400.68044],[-1.04688,-1.02008],[0.74218,0.7232]],[[703.44407,401.97458],[-1.02344,0],[1.02344,0]],[[706.37375,400.50536],[-0.42968,0.7232],[0.38282,-0.70036]],[[705.35031,400.48252],[0.97656,-0.67752],[-0.88282,0.62422]],[[701.53781,400.58148],[1.02344,0.57094],[-1.76562,-0.9744]]],&quot;closed&quot;:true,&quot;fillColor&quot;:[0,0,0]}]}" fill="#868686" stroke-width="0.5"/><path d="M222.23148,167.61244c-2.93524,-12.23009 -2.81719,-13.48574 0.79707,-10.83907c0.78854,0.55493 3.09461,3.98133 4.56222,7.18293c3.39523,7.40639 6.75664,9.8246 13.10897,9.8246c1.02686,0 5.97087,5.03657 6.31104,3.38545c0.64994,-3.15471 7.70622,-0.61126 5.80771,-2.01715c-0.78661,-0.58251 -2.6816,-1.16684 -3.02219,-3.24849c-0.24682,-1.50853 4.80382,-4.83282 2.95075,-4.31183c-1.00516,0.2826 -0.36473,-3.00733 -0.18334,-3.55475c0.40115,-1.22153 5.36571,-1.84036 3.36202,-2.48191c-2.59906,-0.83218 0.67375,-4.80155 1.81524,-4.80155c0.45999,0 1.34812,-0.23866 1.34812,-0.08933c0,3.62844 -2.32692,17.16874 -3.40027,19.40987c-2.05905,4.54624 -4.34969,5.53895 -13.90014,5.81641c-7.20659,0.27747 -8.63277,0.06959 -11.69939,-1.31784c-4.33707,-1.96366 -5.84271,-4.41978 -7.85797,-12.95739z" data-paper-data="{&quot;noHover&quot;:false,&quot;origItem&quot;:[&quot;Path&quot;,{&quot;applyMatrix&quot;:true,&quot;segments&quot;:[[[696.79563,400.42922],[0,0],[0.71876,3.04502]],[[699.56125,404.9663],[-1.54686,-0.70036],[1.09374,0.49482]],[[703.65499,405.41544],[-2.5703,0.09896],[3.40626,-0.09896]],[[708.53781,403.39812],[-0.73438,1.62146],[0.38282,-0.79932]],[[709.75657,396.56968],[0,1.29412],[0,-0.05328]],[[709.44407,396.49356],[0.16406,0],[-0.57032,0]],[[707.60813,399.11228],[0.5,-1.52252],[-0.88282,2.66438]],[[703.30345,402.72062],[2.30468,0],[-2.26562,0]],[[698.51439,399.08182],[1.21094,2.64156],[-0.52344,-1.14188]],[[697.06127,396.61536],[0.28124,0.19792],[-1.28906,-0.94396]],[[696.79565,400.42924],[-1.04688,-4.36198],[0,0]]],&quot;closed&quot;:true,&quot;fillColor&quot;:[0,0,0]}]}" fill="url(#color-4)" stroke-width="0.5"/></g><path d="M201.40944,247.88892v-12.83333h9.66667v12.83333z" fill="url(#color-5)" stroke="#000000" stroke-width="0" stroke-linecap="butt"/><path d="M201.60945,260.88892v-15h9.5v15z" fill="url(#color-6)" stroke="none" stroke-width="0" stroke-linecap="butt"/><path d="M207.75945,142.7111v-49.75h34.5c0,0 7.31398,2.71515 7.65464,6.05481c0.40392,3.95988 11.68806,6.5358 -2.15464,13.77853c-4.22083,5.44437 -2.69078,8.22299 -2.92016,14.76594c-0.03902,1.11299 0.11362,3.1615 0.05618,4.22774c-0.06008,1.11543 -3.08034,1.87692 -3.15532,2.99501c-0.12718,1.89673 1.3882,3.86855 0.48468,5.07879c-1.68871,2.26198 0.03461,2.84918 0.03461,2.84918c0,0 -2.18574,0.46553 -2.27858,2.98872c-0.01711,0.46505 -3.61016,1.93643 -2.35617,2.93146c1.56686,1.24329 6.80715,2.67962 6.22474,3.75754c-1.09542,2.0274 -2.40906,1.93326 -3.04067,4.89731c-0.39601,1.85843 1.60772,3.68144 1.79634,5.40189c0.26378,2.40605 2.65909,4.36152 2.56867,6.18284c-0.09413,1.89611 -2.69374,3.62586 -3.43112,4.48208c-0.4742,0.55062 -4.7578,-1.14183 -5.35823,-1.14183c-3.60788,0 -14.83891,-10.69476 -22.18855,-18.89879c-4.40588,-4.91807 -6.43644,-10.60121 -6.43644,-10.60121z" fill="#000000" stroke="none" stroke-width="0" stroke-linecap="butt"/><path d="M216.63445,132.76931l0.18466,-6.00559l0.9233,-8.10754l1.47727,-5.40503l2.03125,-3.60335l2.58523,-3.00279l1.84659,-0.60056l2.21591,0.90084l2.21591,3.30307l1.66193,4.65433l0.9233,5.10475l0.18466,5.40503l-0.36932,7.50698" fill="none" stroke="#ffffff" stroke-width="1.5" stroke-linecap="round"/><path d="M226.13445,120.79444c0,0.48325 -0.39175,0.875 -0.875,0.875c-0.48325,0 -0.875,-0.39175 -0.875,-0.875c0,-0.48325 0.39175,-0.875 0.875,-0.875c0.48325,0 0.875,0.39175 0.875,0.875z" fill="#ff0000" stroke="none" stroke-width="0" stroke-linecap="butt"/><path d="M230.92036,168.98375c0.11869,0.09857 0.2319,0.2049 0.33833,0.31788l0.06738,-0.47168c0.07792,-0.61548 0.6034,-1.09142 1.24004,-1.09142c0.63664,0 1.16211,0.47594 1.24004,1.09142l0.22629,1.58401c0.03581,0.17793 0.0807,0.36678 0.13237,0.56453c0.2293,-0.27442 0.5741,-0.449 0.95968,-0.449c0.438,0 0.82338,0.22528 1.04661,0.56628c0.22322,-0.34101 0.60861,-0.56628 1.04661,-0.56628c0.42919,0 0.80786,0.21631 1.03294,0.54585c0.22046,-0.19495 0.51026,-0.31327 0.82769,-0.31327c0.2549,0 0.49198,0.0763 0.68965,0.2073l0.16719,-1.00317c0.0895,-0.60252 0.60895,-1.06477 1.23637,-1.06477c0.62742,0 1.14687,0.46225 1.23637,1.06477l0.2292,1.37521c0.53907,3.23442 2.24237,7.38796 0.87034,10.6383c-1.37694,3.26198 -3.71091,1.89058 -6.25741,1.49971c-1.52436,-0.23398 -3.81124,0.23259 -5.22872,-0.48863c-0.04791,-0.02438 -0.09496,-0.05003 -0.14122,-0.07684l-0.01082,0.02705l-1.13586,-0.45435c-0.47474,-0.17726 -0.8128,-0.63486 -0.8128,-1.17141c0,-0.33257 0.12987,-0.6348 0.34167,-0.85875c-1.42583,-0.28332 -2.86907,-0.72055 -3.73279,-1.55098c-1.06269,-1.02173 -1.85992,-3.61086 -2.52575,-4.94252c-0.97538,-1.95077 -2.51991,-3.92141 -3.10749,-6.03312c-0.70055,-2.51772 -0.51139,-5.19945 -0.51139,-7.77936c0,0 0,-1.25 1.25,-1.25c1.25,0 1.25,1.25 1.25,1.25c0,0.11438 -0.00045,0.229 -0.00125,0.34381l0.94695,0.78913l-0.25431,0.30517c1.69142,1.21106 3.08685,2.74616 4.23487,4.47713c1.25396,0.31232 2.61737,1.14739 2.89889,2.01091c0.11145,0.34187 0.17959,0.6418 0.21033,0.90709zM223.30476,167.25991c0.01821,-0.03077 0.03754,-0.06112 0.05802,-0.09103c-0.05361,-0.11318 -0.10789,-0.22608 -0.16275,-0.33867c0.03171,0.14253 0.06622,0.28456 0.10376,0.42602c0.00033,0.00123 0.00065,0.00245 0.00098,0.00368zM241.28685,180.93132c-0.03137,0.05949 -0.06442,0.11725 -0.09921,0.17326l0.05434,0.0347c0.01711,-0.06576 0.03198,-0.13536 0.04487,-0.20796z" fill="#000000" stroke="none" stroke-width="0.5" stroke-linecap="butt"/><path d="M262.43138,118.99512c0,1.31249 1.95457,3.63442 0.53443,4.50251c-1.45522,0.88954 -6.68975,0.49786 -8.93128,0.49786c-2.91474,0 -7.62961,0.57655 -9.4807,-0.81886c-0.96169,-0.72495 0.32908,-2.89556 0.32908,-3.80413c0,-2.65742 4.7226,-6.13253 9.15162,-6.13253c4.42902,0 8.39685,3.09773 8.39685,5.75514z" fill="#ffffff" stroke="#000000" stroke-width="1.5" stroke-linecap="butt"/></g></g></svg>