<svg version="1.1" xmlns="http://www.w3.org/2000/svg" xmlns:xlink="http://www.w3.org/1999/xlink" width="99.36939" height="251.46759" viewBox="0,0,99.36939,251.46759"><defs><linearGradient x1="203.68941" y1="213.20742" x2="203.68941" y2="247.45742" gradientUnits="userSpaceOnUse" id="color-1"><stop offset="0" stop-color="#8e8e8e"/><stop offset="1" stop-color="#000000"/></linearGradient><linearGradient x1="274.6894" y1="214.45742" x2="274.6894" y2="256.20742" gradientUnits="userSpaceOnUse" id="color-2"><stop offset="0" stop-color="#8e8e8e"/><stop offset="1" stop-color="#000000"/></linearGradient><linearGradient x1="203.93941" y1="253.70742" x2="203.93941" y2="264.70742" gradientUnits="userSpaceOnUse" id="color-3"><stop offset="0" stop-color="#8e8e8e"/><stop offset="1" stop-color="#000000"/></linearGradient><radialGradient cx="225.8144" cy="118.52581" r="7.875" gradientUnits="userSpaceOnUse" id="color-4"><stop offset="0" stop-color="#00ffb5"/><stop offset="1" stop-color="#00ffb5" stop-opacity="0"/></radialGradient><radialGradient cx="252.8144" cy="118.27581" r="7.875" gradientUnits="userSpaceOnUse" id="color-5"><stop offset="0" stop-color="#00ffb5"/><stop offset="1" stop-color="#00ffb5" stop-opacity="0"/></radialGradient><linearGradient x1="203.41667" y1="189.41668" x2="203.41667" y2="207.41668" gradientUnits="userSpaceOnUse" id="color-6"><stop offset="0" stop-color="#00ffff"/><stop offset="1" stop-color="#00ffb5"/></linearGradient><linearGradient x1="272.58333" y1="183.58334" x2="272.58333" y2="201.58334" gradientUnits="userSpaceOnUse" id="color-7"><stop offset="0" stop-color="#00ffff"/><stop offset="1" stop-color="#00ffb5"/></linearGradient></defs><g transform="translate(-187.31529,-58.17993)"><g data-paper-data="{&quot;isPaintingLayer&quot;:true}" fill-rule="nonzero" stroke-linejoin="miter" stroke-miterlimit="10" stroke-dasharray="" stroke-dashoffset="0" style="mix-blend-mode: normal"><path d="M190.95774,108.68609c0,0 6.55935,-6.18232 6.69591,-7.08614c0.35817,-2.3705 -0.17854,-41.94006 38.27907,-43.40231c47.5047,-0.9538 41.52202,36.90342 44.19969,44.04591c3.6715,9.79343 6.55227,18.16545 6.55227,18.16545c0,0 -2.94497,-2.14383 -4.34187,-3.27181c-1.30287,-1.05205 -4.04571,-3.28421 -4.04571,-3.28421c0,0 3.28975,10.80323 1.39516,21.60518c-1.66269,9.89797 -7.76678,17.98304 -7.76678,17.98304l-1.22946,-2.45059c0,0 -1.08838,2.29461 -2.29886,3.47932c-1.21049,1.1847 -3.65971,3.04084 -3.65971,3.04084l-0.09797,-3.86713c0,0 -7.51379,11.50254 -25.91546,11.34969c-17.3541,-0.26671 -27.74689,-11.14472 -27.74689,-11.14472l-0.12367,2.7716c0,0 -4.14505,-3.43758 -6.57868,-10.1345c-2.90059,-7.98194 -3.44763,-12.78172 -3.44763,-12.78172c0,0 -2.48939,1.98269 -6.08442,2.89642c-4.50478,1.14497 -7.39305,0.36045 -7.39305,0.36045c0,0 3.8398,-2.83668 5.94279,-4.97968c1.87317,-1.90882 2.81665,-3.52576 2.81665,-3.52576c0,0 -2.24302,1.13241 -4.50477,1.68911c-2.35988,0.58087 -4.28906,0.55428 -4.28906,0.55428c0,0 5.29461,-5.25883 7.48254,-11.35256c2.06575,-5.75347 2.23465,-11.43923 2.23465,-11.43923c0,0 -1.44915,0.69073 -3.54413,0.8301c-1.32794,0.08835 -2.53065,-0.05105 -2.53065,-0.05105z" fill="#000000" stroke="none" stroke-width="1.5" stroke-linecap="butt"/><path d="M211.36184,118.43973c-0.58146,-7.34858 0.33754,-17.28467 0.33754,-17.28467l3.88787,5.50333l1.51577,-18.27769l4.67794,16.36091l3.6177,-11.81989l2.76298,3.19669l4.4269,-9.62938l-0.36908,16.93284l4.04951,-10.12639l0.84751,6.18211l1.83566,-3.03456l2.75977,-1.88736l1.28312,5.54377l1.40257,-11.05977l3.79041,15.82844l1.38814,-16.05409l5.28405,5.92118l3.06015,-7.9683l0.9603,15.58972c0,0 7.39468,-14.55523 7.91979,-14.23c2.80401,1.7367 1.03788,23.35864 0.72392,28.95873c-0.42483,5.71225 -2.55249,9.57178 -3.17422,12.61555c-0.62172,3.04377 -0.4127,6.1832 -2.22297,16.16143c-1.12971,6.22711 -4.19341,8.99239 -10.09546,14.77207c-5.90205,5.77969 -9.12249,9.32297 -13.11235,9.39247c-3.83969,0.0669 -9.00346,-5.1389 -14.04118,-10.46123c-5.36434,-5.66743 -8.94224,-8.54147 -9.78924,-15.25465c-0.28776,-2.28065 -1.03629,-13.90006 -1.13118,-15.36407c-0.2549,-3.93235 -2.27836,-6.49395 -2.59591,-10.50714z" fill="#ffffff" stroke="#000000" stroke-width="1.5" stroke-linecap="butt"/><path d="M212.9495,128.63977c0,0 -4.96954,-3.54375 -6.21095,-9.04314c-1.3062,-5.78643 -1.47226,-9.80666 0.48377,-10.06776c1.95604,-0.26111 2.72373,2.39496 3.76095,8.4191c1.03721,6.02414 1.96624,10.6918 1.96624,10.6918z" data-paper-data="{&quot;index&quot;:null}" fill="#ffffff" stroke="#000000" stroke-width="1" stroke-linecap="butt"/><path d="M212.74537,124.66226c0,0 -3.5909,-2.94557 -4.35092,-8.51474c-0.42398,-3.10667 2.17312,-2.29746 2.17312,-2.29746" fill="none" stroke="#000000" stroke-width="0.25" stroke-linecap="round"/><path d="M267.59423,117.94798c1.03721,-6.02414 1.8049,-8.68021 3.76095,-8.4191c1.53228,0.20453 1.76233,2.71582 1.16222,6.57584c-0.16597,1.06757 -0.39544,2.23829 -0.67843,3.49192c-1.2414,5.49939 -6.21095,9.04313 -6.21095,9.04313c0,0 0.92902,-4.66766 1.96624,-10.6918z" data-paper-data="{&quot;index&quot;:null}" fill="#ffffff" stroke="#000000" stroke-width="1" stroke-linecap="butt"/><path d="M268.0099,113.85005c0,0 2.5971,-0.80922 2.17311,2.29746c-0.76003,5.56917 -4.35092,8.51474 -4.35092,8.51474" data-paper-data="{&quot;index&quot;:null}" fill="none" stroke="#000000" stroke-width="0.25" stroke-linecap="round"/><path d="M199.87855,305.69632c0,0 -0.63536,-94.38387 -0.79335,-118.01201c-0.05451,-8.15261 8.18688,-36.76129 40.20201,-36.9211c31.60235,-0.15775 39.85672,29.48704 39.84884,36.89673c-0.07659,46.24274 0.65429,117.98648 0.65429,117.98648l-10.49667,0.09614l-0.15882,-114.84311c0,0 0.07549,-3.0993 -2.81625,-3.15415c-3.43441,-0.06514 -2.94538,3.11562 -2.94538,3.11562l-2.46119,115.20328l-42.21366,-0.26111l-3.63872,-115.23309c0,0 0.27949,-2.919 -2.8856,-2.93443c-3.11083,-0.01515 -2.81569,2.90899 -2.81569,2.90899l0.35311,115.0668z" fill="#ffffff" stroke="#000000" stroke-width="2" stroke-linecap="butt"/><path d="M215.15786,308.62072l-0.43103,-119.98626c0,0 0.75721,-9.47843 0.75721,-14.25932c0,-4.38123 -0.75721,-13.33187 -0.75721,-13.33187c0,0 2.67319,-2.29189 4.6557,-3.65077c1.98251,-1.35888 5.17197,-2.73093 5.17197,-2.73093c0,0 -0.6016,20.53316 14.55952,20.46464c15.43477,-0.06976 13.83154,-20.46463 13.83154,-20.46463c0,0 3.91276,1.48014 6.16585,2.87006c2.25309,1.3899 4.75379,3.51164 4.75379,3.51164c0,0 -0.75721,9.17996 -0.75721,13.82358c0,4.71623 0.75721,14.25932 0.75721,14.25932v118.20146z" fill="#585858" stroke="#000000" stroke-width="2" stroke-linecap="butt"/><path d="M257.77758,102.98451c0,0 1.55712,-0.00229 4.39318,0.2111c2.59042,0.19491 4.71295,0.79148 4.71295,0.79148l0.43168,1.10518c0,0 -7.73845,-1.57173 -15.30075,0.69166c-6.04663,1.80978 -9.17158,4.80175 -9.17158,4.80175l-0.81443,-4.09692c0,0 2.71003,-2.3111 7.31379,-3.43349c4.76716,-1.16221 8.03943,-1.08573 8.03943,-1.08573z" data-paper-data="{&quot;index&quot;:null}" fill="#000000" stroke="none" stroke-width="1.5" stroke-linecap="butt"/><path d="M239.1931,147.75194c-1.03376,0 -3.5381,-3.26042 -3.7867,-5.3637c-0.22243,-1.88186 1.31512,-3.82799 3.7867,-3.82799c2.47159,0 4.2021,0.49077 4.02999,4.18853c-0.14607,3.13818 -1.55841,5.00317 -4.02999,5.00317z" fill="#ffffff" stroke="#000000" stroke-width="1.15" stroke-linecap="butt"/><path d="M213.26062,128.44806c0,0 -4.93211,-3.51705 -6.16417,-8.97502c-1.29636,-5.74284 -1.46118,-9.7328 0.48013,-9.99193c1.94131,-0.25915 2.70321,2.37692 3.73262,8.35569c1.0294,5.97877 1.95143,10.61127 1.95143,10.61127z" data-paper-data="{&quot;index&quot;:null}" fill="#ffffff" stroke="#000000" stroke-width="1" stroke-linecap="butt"/><path d="M213.05799,124.5005c0,0 -3.56385,-2.92338 -4.31816,-8.45061c-0.42079,-3.08327 2.15675,-2.28016 2.15675,-2.28016" fill="none" stroke="#000000" stroke-width="0.25" stroke-linecap="round"/><path d="M216.07141,117.8446c0.07093,-4.89188 4.83834,-8.93609 10.21137,-8.8582c5.37302,0.0779 9.02724,4.2484 8.95632,9.14029c-0.07093,4.89188 -4.12352,8.79439 -9.49655,8.7165c-5.37302,-0.0779 -9.74207,-4.1067 -9.67114,-8.99859z" fill="#ffffff" stroke="#000000" stroke-width="1.4" stroke-linecap="butt"/><path d="M223.25878,117.99515c0.02198,-1.51592 1.26868,-2.72697 2.78458,-2.705c1.51592,0.02198 2.72697,1.26868 2.705,2.78458c-0.02198,1.51592 -1.26867,2.72697 -2.78458,2.705c-1.51592,-0.02198 -2.72697,-1.26868 -2.705,-2.78458z" fill="#00ffb5" stroke="#000000" stroke-width="1" stroke-linecap="butt"/><path d="M243.12766,117.84533c0.20353,-4.88817 4.45264,-8.85847 9.77048,-8.85847c5.31783,0 9.27453,3.96607 9.27453,8.85847c0,4.8924 -3.88585,9.07104 -9.69964,9.14188c-5.52997,0.06739 -9.55792,-4.03692 -9.34537,-9.14188z" fill="#ffffff" stroke="#000000" stroke-width="1.4" stroke-linecap="butt"/><path d="M219.8058,103.60638c0,0 3.75699,-0.74039 8.34792,0.19736c5.08732,1.03914 7.43993,2.23545 7.43993,2.23545l-0.94249,4.03948c0,0 -3.46234,-1.78517 -7.50464,-2.87045c-5.40607,-1.45143 -6.77131,-0.59759 -10.9693,-1.41836c-3.59707,-0.70328 -6.48249,-1.84194 -6.48249,-1.84194l0.33971,-1.18406c0,0 3.41226,1.13454 5.01953,1.48345c1.32659,0.28797 4.07523,0.28042 4.07523,0.28042z" fill="#000000" stroke="none" stroke-width="1.5" stroke-linecap="butt"/><path d="M267.4937,117.83679c1.0294,-5.97877 1.7913,-8.61483 3.73262,-8.35569c1.94131,0.25914 1.77649,4.24909 0.48013,9.99193c-1.23206,5.45797 -6.16417,8.97502 -6.16417,8.97502c0,0 0.92203,-4.6325 1.95143,-10.61127z" data-paper-data="{&quot;index&quot;:null}" fill="#ffffff" stroke="#000000" stroke-width="1" stroke-linecap="butt"/><path d="M267.90628,113.76973c0,0 2.57754,-0.80312 2.15675,2.28016c-0.75431,5.52723 -4.31816,8.45061 -4.31816,8.45061" data-paper-data="{&quot;index&quot;:null}" fill="none" stroke="#000000" stroke-width="0.25" stroke-linecap="round"/><path d="" data-paper-data="{&quot;index&quot;:null}" fill="#000000" stroke="none" stroke-width="1.5" stroke-linecap="butt"/><path d="" fill="#ffffff" stroke="none" stroke-width="0.5" stroke-linecap="butt"/><path d="" fill="#000000" stroke="none" stroke-width="0.5" stroke-linecap="butt"/><path d="" fill="#ff0000" stroke="none" stroke-width="0.5" stroke-linecap="butt"/><path d="" fill="#000000" stroke="none" stroke-width="0.5" stroke-linecap="butt"/><path d="" fill="#000000" stroke="none" stroke-width="0.5" stroke-linecap="butt"/><path d="" fill="#000000" stroke="none" stroke-width="0.5" stroke-linecap="butt"/><path d="" fill="#000000" stroke="none" stroke-width="0.5" stroke-linecap="butt"/><path d="" fill="#000000" stroke="none" stroke-width="0.5" stroke-linecap="butt"/><path d="" fill="#000000" stroke="none" stroke-width="0.5" stroke-linecap="butt"/><g fill="#ff0000" stroke="#ffffff" stroke-width="0.5" stroke-linecap="butt"><path d="M245.54831,189.95501c0,0.37075 2.40254,0.51917 3.06435,1.41164c0.29118,0.39267 -0.70659,0.85876 -0.92492,1.35507c-0.27681,0.62923 0.12185,1.26375 -0.36496,1.38241c-0.11065,0.02698 -1.91025,-1.76624 -2.77055,-1.92822c-0.72726,-0.13692 -1.3404,-0.09667 -1.45683,-0.07951c-1.34446,0.19803 -1.64337,0.80566 -2.20531,0.80566c-0.19015,0 -0.33279,0.30746 -0.47842,0.46973c-0.36974,0.41201 -0.84606,1.16965 -1.0001,2.02687c-0.28784,1.60184 -0.04253,3.37372 -0.04253,2.63694c0,-0.13354 -0.39139,-0.59622 -0.44296,-1.29649c-0.11302,-1.53479 0.14076,-3.93967 0.78811,-4.60699c1.1837,-1.22022 1.88963,-1.62463 2.50779,-2.13311c0.14812,-0.12184 0.33133,0.16283 0.46577,-0.45491c0.09285,-0.4266 0.08039,-1.12682 0.16516,-1.68937c0.10347,-0.68674 -0.09882,-1.0369 0.03357,-1.0369c0.40142,0 0.71489,-2.06757 1.8466,-3.09737c1.04141,-0.94762 3.3254,-1.03716 3.36715,-0.89906c0.01319,0.04362 -2.40122,1.37376 -3.36229,2.8935c-0.75018,1.18625 -0.10412,2.64585 -0.07378,2.66477c0.19885,0.12394 0.88415,1.08807 0.88415,1.57532z" data-paper-data="{&quot;index&quot;:null}"/><path d="M253.07339,188.28462c0.03034,-0.01892 0.67638,-1.47852 -0.07378,-2.66477c-0.96107,-1.51974 -3.37548,-2.8499 -3.36229,-2.8935c0.04176,-0.13812 2.32574,-0.04856 3.36715,0.89906c1.13171,1.02978 1.44519,3.09737 1.8466,3.09737c0.13239,0 -0.0699,0.35016 0.03357,1.0369c0.08476,0.56255 0.07231,1.26278 0.16516,1.68937c0.13445,0.61775 0.31767,0.33307 0.46579,0.45491c0.61818,0.50848 1.32409,0.91291 2.50779,2.13313c0.64733,0.66732 0.90112,3.07218 0.78811,4.60697c-0.05157,0.70027 -0.44296,1.16294 -0.44296,1.29649c0,0.73677 0.24531,-1.0351 -0.04253,-2.63694c-0.15403,-0.85722 -0.63037,-1.61486 -1.00011,-2.02687c-0.14563,-0.16227 -0.28826,-0.46973 -0.47841,-0.46973c-0.56194,0 -0.86086,-0.60763 -2.20531,-0.80565c-0.11642,-0.01714 -0.72957,-0.05741 -1.45683,0.07951c-0.8603,0.16197 -2.65989,1.9552 -2.77055,1.92822c-0.48681,-0.11867 -0.08816,-0.75319 -0.36496,-1.38241c-0.21835,-0.49632 -1.21611,-0.96241 -0.92494,-1.35507c0.66181,-0.89248 3.06435,-1.0409 3.06435,-1.41164c0,-0.48727 0.6853,-1.45136 0.88415,-1.57532z" data-paper-data="{&quot;index&quot;:null}"/><path d="M247.80621,197.78232c0.32555,-0.1774 -0.69367,-2.35808 -0.22666,-3.36625c0.20549,-0.44356 1.09216,0.20956 1.63243,0.16381c0.68496,-0.058 1.0514,-0.71166 1.38853,-0.34097c0.07664,0.08427 -0.63696,2.5225 -0.36755,3.35543c0.22774,0.70412 0.55647,1.22327 0.62723,1.31729c0.81719,1.08582 1.49376,1.05755 1.76264,1.551c0.09098,0.16698 0.42922,0.1451 0.64139,0.19534c0.53869,0.12753 1.4319,0.18328 2.25833,-0.09162c1.54431,-0.51368 2.9828,-1.57689 2.33586,-1.22437c-0.11726,0.0639 -0.33627,0.62896 -0.92651,1.0093c-1.29363,0.83359 -3.52677,1.76143 -4.42248,1.5123c-1.63786,-0.45555 -2.33073,-0.88193 -3.07301,-1.18145c-0.17787,-0.07176 -0.01554,-0.36887 -0.62231,-0.19134c-0.41903,0.1226 -1.02795,0.46857 -1.56248,0.6633c-0.65255,0.23772 -0.86322,0.58289 -0.92657,0.46665c-0.19208,-0.35248 -2.15759,0.36153 -3.60335,-0.1395c-1.3304,-0.46106 -2.50188,-2.42378 -2.40057,-2.52653c0.03197,-0.03245 2.35523,1.4512 4.14957,1.56796c1.40059,0.09113 2.37315,-1.17456 2.37524,-1.21025c0.01369,-0.23392 0.53238,-1.29698 0.96026,-1.53012z" data-paper-data="{&quot;index&quot;:null}"/><path d="M243.48482,194.42242v-1.80625h1.18832c0,0 0.17787,1.95446 0.64456,2.78956c0.43408,0.77677 2.06481,2.0588 2.06481,2.0588c0,0 -0.18279,1.55461 -0.8542,1.03058c-0.26475,-0.20663 -1.23238,-0.82759 -1.82121,-1.63866c-0.79993,-1.10188 -1.22228,-2.43404 -1.22228,-2.43404z" data-paper-data="{&quot;index&quot;:null}"/><path d="M253.19508,196.71385c-0.58883,0.81107 -1.55646,1.43203 -1.82121,1.63866c-0.67141,0.52403 -0.8542,-1.03057 -0.8542,-1.03057c0,0 1.63073,-1.28203 2.06481,-2.05881c0.46668,-0.83511 0.64456,-2.78956 0.64456,-2.78956h1.18832v1.80625c0,0 -0.42236,1.33216 -1.22229,2.43404z" data-paper-data="{&quot;index&quot;:null}"/><path d="M250.8174,188.20527l1.55897,0.91224l-0.60016,1.02564c0,0 -1.7767,-0.83357 -2.73318,-0.85257c-0.88966,-0.01767 -2.81976,0.74231 -2.81976,0.74231c0,0 -1.24945,-0.94292 -0.45807,-1.25776c0.31205,-0.12414 1.33671,-0.64567 2.33412,-0.74425c1.35502,-0.13391 2.7181,0.17437 2.7181,0.17437z" data-paper-data="{&quot;index&quot;:null}"/></g><path d="M215.37703,307.76585v-119.20147c0,0 0.25181,-3.23602 0.465,-6.91711c0.96323,3.37696 1.91843,6.75399 2.82923,10.13702c0.53789,1.99789 0.48566,4.12509 1.03187,6.12071c0.46631,1.7037 1.594,3.19206 1.97749,4.91629c0.53459,2.4036 0.71244,4.9411 1.73829,7.17957c1.24807,2.72336 3.20005,5.06536 4.82018,7.58519c2.88015,4.47959 5.38583,9.03039 8.71187,13.29553c4.35092,5.5794 9.76375,10.13873 15.05695,14.77002c3.18532,2.41688 6.06787,5.3023 9.56925,7.23307c0.97327,0.53669 1.95277,1.06334 2.93823,1.57978v53.30141z" fill="#000000" stroke="#000000" stroke-width="2" stroke-linecap="butt"/><path d="M195.56441,247.45742v-34.25h16.25v34.25z" fill="url(#color-1)" stroke="#000000" stroke-width="1.5" stroke-linecap="butt"/><path d="M266.5644,256.20742v-41.75h16.25v41.75z" fill="url(#color-2)" stroke="#000000" stroke-width="1.5" stroke-linecap="butt"/><path d="M195.81441,264.70742v-11h16.25v11z" fill="url(#color-3)" stroke="#000000" stroke-width="1.5" stroke-linecap="butt"/><path d="M250.25879,118.24515c0.02197,-1.51592 1.26868,-2.72697 2.78458,-2.70499c1.51592,0.02197 2.72697,1.26868 2.70499,2.78459c-0.02197,1.51592 -1.26867,2.72697 -2.78458,2.70499c-1.51592,-0.02197 -2.72697,-1.26868 -2.70499,-2.78459z" fill="#00ffb5" stroke="#000000" stroke-width="1" stroke-linecap="butt"/><path d="M232.8144,118.52581c0,3.86599 -3.13401,7 -7,7c-3.86599,0 -7,-3.13401 -7,-7c0,-3.86599 3.13401,-7 7,-7c3.86599,0 7,3.13401 7,7z" fill="url(#color-4)" stroke="none" stroke-width="0" stroke-linecap="butt"/><path d="M259.8144,118.27581c0,3.86599 -3.13401,7 -7,7c-3.86599,0 -7,-3.13401 -7,-7c0,-3.86599 3.13401,-7 7,-7c3.86599,0 7,3.13401 7,7z" fill="url(#color-5)" stroke="none" stroke-width="0" stroke-linecap="butt"/><path d="M194.75,309.25001v-16.5h18.5v16.5z" fill="#000000" stroke="none" stroke-width="0" stroke-linecap="butt"/><path d="M266.75,309.25001v-16.5h18.5v16.5z" fill="#000000" stroke="none" stroke-width="0" stroke-linecap="butt"/><path d="M200.41667,206.75001c0,0 -1.27916,-13.57093 -1.10333,-18.67023c0.15481,-4.48948 2.10333,-10.32977 2.10333,-10.32977c0,0 1.48685,5.60593 2.64491,7.28512c1.05443,1.52892 4.02176,2.38155 4.02176,2.38155c0,0 -1.73124,5.3962 -1.61265,8.95376c0.1007,3.02101 2.27932,11.04624 2.27932,11.04624c0,0 -3.41561,-5.52658 -4.72284,-5.63116c-1.45475,-0.11638 -3.61049,4.96449 -3.61049,4.96449z" fill="url(#color-6)" stroke="none" stroke-width="0" stroke-linecap="butt"/><path d="M269.58333,200.91668c0,0 3.95845,-9.0788 3.62852,-14.49768c-0.17713,-2.90933 -3.45994,-10.22452 -3.39851,-12.00589c0.15481,-4.48948 -4.89667,-13.82977 -4.89667,-13.82977c0,0 6.48685,7.60593 7.64491,9.28512c1.05443,1.52892 4.68843,11.71488 4.68843,11.71488c0,0 1.26876,6.22953 1.38734,9.78709c0.1007,3.02101 -0.72068,10.21291 -0.72068,10.21291c0,0 -3.41562,-5.52658 -4.72284,-5.63116c-1.45475,-0.11638 -3.6105,4.96449 -3.6105,4.96449z" fill="url(#color-7)" stroke="none" stroke-width="0" stroke-linecap="butt"/><g stroke="none" stroke-linecap="butt"><g stroke-width="0"><path d="M261.21899,149.61138c-3.21576,8.82937 -1.40936,21.98141 -22.95863,22.77252c-21.01663,-0.1494 -18.73692,-14.56681 -23.2753,-24.1287c-0.03739,-0.07877 15.44239,-4.86385 17.50997,-4.71443c2.51417,-0.17607 6.56391,3.71791 6.56391,3.71791c0,0 3.93055,-4.48416 7.25973,-3.15053c1.42491,0.57081 14.98087,5.388 14.90033,5.50323z" fill="#000000"/><path d="M258.4272,152.62753c0,0 -1.1502,18.06032 -20.42527,17.74335c-19.27699,-0.317 -19.91623,-20.13352 -20.05699,-19.85028c10.93197,2.79732 5.96233,10.32026 20.09766,11.15508c14.12416,0.2612 10.74599,-6.43346 19.5919,-8.96272c1.34477,-0.3845 0.79269,-0.08542 0.79269,-0.08542z" fill="#ffffff"/><path d="M250.2993,153.58818c0,0 -1.42535,2.94397 -12.13904,2.31681c-10.65024,-0.62344 -12.13904,-3.33394 -12.13904,-3.33394c0,0 7.55137,0.78747 12.3615,1.13564c3.95243,0.28609 11.91658,-0.11851 11.91658,-0.11851z" fill="#ffffff"/><path d="M249.24376,156.018c0,0 -1.70467,4.1623 -10.5557,3.84251c-9.38385,-0.33904 -10.13347,-3.95552 -10.13347,-3.95552c0,0 6.55602,1.51077 10.13318,1.53031c3.29624,0.01801 10.55599,-1.4173 10.55599,-1.4173z" fill="#ffffff"/><path d="M235.73246,151.27137c-8.09027,0.22603 -16.78354,-2.59934 -16.78354,-2.59934c0,0 5.31546,-0.45206 9.0779,-2.03427c0.8362,-0.35164 1.84013,-1.66914 5.04949,-0.74691c4.37104,1.25604 14.17537,6.58202 2.65616,5.38053z" fill="#ffffff"/><path d="M257.33789,150.48027c0,0 -12.59888,1.13015 -20.68915,0.90412c-0.5291,-0.01478 5.12283,-4.30187 5.12283,-4.30187c0,0 2.18392,-1.27601 3.25923,-1.00969c5.01897,1.24303 12.30709,4.40744 12.30709,4.40744z" data-paper-data="{&quot;index&quot;:null}" fill="#ffffff"/></g><path d="M243.99319,160.60924c-0.07614,-0.49754 0.4214,-0.74631 0.4214,-0.74631l0.8752,-0.43259c1.09283,-0.27321 2.02574,-0.75648 2.92988,-1.42692c0.64664,-0.8775 1.76483,-2.83598 2.98187,-3.00483c1.55537,-0.21579 3.26566,3.56582 3.29846,4.93516c0.01645,0.6868 -0.54327,2.69333 -1.1557,3.03799c-1.36327,0.7672 -2.23235,-0.72112 -2.55986,-1.49537c0.06669,0.22505 0.15622,0.5495 0.26898,0.99717c0.6344,1.25306 2.05961,3.29774 0.29088,4.4982c-1.75538,1.1914 -2.22056,-0.83504 -2.71444,-1.49767c-0.17032,-0.22851 0.16044,0.65324 -0.04188,0.85398c-0.40876,0.40559 -0.98274,0.76875 -1.55812,0.74602c-1.18447,-0.04679 -3.19516,-5.00509 -3.22986,-5.94032c0,0 0,-0.30363 0.19319,-0.52451z" fill="#000000" stroke-width="0.5"/></g><path d="M242.79519,117.65822c0,0 0.1026,3.96976 0.00576,7.12662c-0.19174,6.25113 -1.08147,27.7607 -1.08147,27.7607l-2.98167,0.00864c0,0 -0.80294,-4.17274 -1.12322,-9.49979c-0.43353,-7.21063 -0.4495,-16.29321 -0.76344,-19.63229c-0.29758,-3.16513 -0.89593,-5.71453 -0.89593,-5.71453" fill="#ffffff" stroke="#000000" stroke-width="1.3" stroke-linecap="round"/></g></g></svg>