<svg version="1.1" xmlns="http://www.w3.org/2000/svg" xmlns:xlink="http://www.w3.org/1999/xlink" width="93.36936" height="253.22501" viewBox="0,0,93.36936,253.22501"><defs><linearGradient x1="236.24122" y1="152.33497" x2="236.24122" y2="304.13899" gradientUnits="userSpaceOnUse" id="color-1"><stop offset="0" stop-color="#8000ff"/><stop offset="1" stop-color="#1a1a1a"/></linearGradient></defs><g transform="translate(-192.88384,-61.15407)"><g data-paper-data="{&quot;isPaintingLayer&quot;:true}" fill-rule="nonzero" stroke-linejoin="miter" stroke-miterlimit="10" stroke-dasharray="" stroke-dashoffset="0" style="mix-blend-mode: normal"><path d="M193.9775,314.37908v-253.22501h91.18203v253.22501z" fill-opacity="0.01" fill="#000000" stroke="none" stroke-width="0" stroke-linecap="butt"/><path d="M201.38457,305.09389c0,0 -0.63536,-94.38387 -0.79335,-118.01201c-0.05451,-8.15261 8.18688,-36.76129 40.20201,-36.9211c31.60235,-0.15775 39.85672,29.48704 39.84884,36.89673c-0.07659,46.24274 0.65429,117.98648 0.65429,117.98648l-10.49667,0.09614l-0.15882,-114.84311c0,0 0.07549,-3.0993 -2.81625,-3.15415c-3.43441,-0.06514 -2.94538,3.11562 -2.94538,3.11562l-2.46119,115.20328l-42.21366,-0.26111l-3.63872,-115.23309c0,0 0.27949,-2.919 -2.8856,-2.93443c-3.11083,-0.01515 -2.81569,2.90899 -2.81569,2.90899l0.35311,115.0668z" fill="#ffffff" stroke="#000000" stroke-width="2" stroke-linecap="butt"/><path d="M216.23286,304.13895v-116.10693c0,0 -2.83488,3.15661 -5.26634,12.75061c-1.29734,5.11903 1.03136,16.81832 -0.67351,20.83178c-4.1397,9.74536 -12.26858,9.52044 -12.26858,7.33107c0,-1.09287 -2.38612,-13.65762 -0.1974,-21.53801c0.9305,-3.35021 7.6317,-0.55679 7.64206,-4.30305c0.01376,-4.97499 -8.01734,-6.504 -9.81695,-11.30212c-1.45432,-3.8775 3.10498,-11.08627 4.09085,-14.63392c3.37729,-12.1532 15.19676,-19.74481 15.19676,-19.74481c0,0 3.9663,-0.99878 5.94881,-2.35766c1.98251,-1.35888 4.3099,-2.73093 4.3099,-2.73093c0,0 -1.38459,16.69067 10.81645,21.25281c0.89079,0.33308 3.57355,19.47525 4.60514,19.47059c1.2134,-0.00548 1.35373,-8.72673 3.74438,-9.12447c1.92229,-0.31982 6.21362,7.94128 6.74025,6.12641c1.4955,-5.15383 -3.13942,-15.97222 -1.98881,-19.02602c4.34998,-11.54513 5.33572,-16.97516 5.33572,-16.97516c0,0 5.63691,0.18703 7.89,1.57695c2.25309,1.3899 6.47794,4.37371 6.47794,4.37371c0,0 8.29457,7.88685 8.29457,12.53047c0,1.94346 -5.87338,-0.60415 -8.21806,2.31732c-3.34521,4.16813 -3.52482,13.66615 -3.52482,13.66615v115.61524z" fill="url(#color-1)" stroke="#000000" stroke-width="2" stroke-linecap="butt"/><path d="" data-paper-data="{&quot;index&quot;:null}" fill="#000000" stroke="none" stroke-width="1.5" stroke-linecap="butt"/><path d="" fill="#ffffff" stroke="none" stroke-width="0.5" stroke-linecap="butt"/><path d="" fill="#000000" stroke="none" stroke-width="0.5" stroke-linecap="butt"/><path d="" fill="#ff0000" stroke="none" stroke-width="0.5" stroke-linecap="butt"/><path d="" fill="#000000" stroke="none" stroke-width="0.5" stroke-linecap="butt"/><path d="" fill="#000000" stroke="none" stroke-width="0.5" stroke-linecap="butt"/><path d="" fill="#000000" stroke="none" stroke-width="0.5" stroke-linecap="butt"/><path d="" fill="#000000" stroke="none" stroke-width="0.5" stroke-linecap="butt"/><path d="" fill="#000000" stroke="none" stroke-width="0.5" stroke-linecap="butt"/><path d="" fill="#000000" stroke="none" stroke-width="0.5" stroke-linecap="butt"/><path d="M196.30632,111.64674c0,0 6.16329,-5.92187 6.29161,-6.78761c0.33654,-2.27063 -0.16776,-40.17317 35.96775,-41.57382c44.63633,-0.91362 39.01489,35.34872 41.53088,42.1903c3.44981,9.38084 6.15664,17.40016 6.15664,17.40016c0,0 -2.76715,-2.05351 -4.0797,-3.13397c-1.2242,-1.00773 -3.80143,-3.14585 -3.80143,-3.14585c0,0 3.09111,10.3481 1.31092,20.69498c-1.5623,9.48098 -7.29782,17.22543 -7.29782,17.22543l-1.15522,-2.34735c0,0 -1.02266,2.19794 -2.16005,3.33274c-1.1374,1.13479 -3.43873,2.91273 -3.43873,2.91273l-0.09205,-3.70421c0,0 -7.0601,11.01795 -24.35066,10.87154c-16.30625,-0.25547 -26.07151,-10.6752 -26.07151,-10.6752l-0.1162,2.65484c0,0 -3.89477,-3.29276 -6.18145,-9.70754c-2.72545,-7.64567 -3.23946,-12.24324 -3.23946,-12.24324c0,0 -2.33908,1.89916 -5.71704,2.7744c-4.23278,1.09673 -6.94665,0.34526 -6.94665,0.34526c0,0 3.60795,-2.71717 5.58396,-4.76989c1.76007,-1.8284 2.64658,-3.37722 2.64658,-3.37722c0,0 -2.10758,1.0847 -4.23277,1.61795c-2.21739,0.5564 -4.03008,0.53093 -4.03008,0.53093c0,0 4.97492,-5.03728 7.03074,-10.87429c1.94102,-5.51108 2.09972,-10.95731 2.09972,-10.95731c0,0 -1.36165,0.66163 -3.33013,0.79513c-1.24776,0.08463 -2.37785,-0.0489 -2.37785,-0.0489z" fill="#000000" stroke="none" stroke-width="1.5" stroke-linecap="butt"/><path d="M213.09221,122.96836c-0.57709,-7.29323 0.335,-17.15448 0.335,-17.15448c0,0 3.41059,-0.04124 13.91429,-3.14424c8.0696,-2.38394 20.54731,-9.48722 20.54731,-9.48722c0,0 -2.16005,3.00503 -3.40781,4.46015c-1.32651,1.54696 -3.99292,4.56297 -3.99292,4.56297c0,0 7.838,-1.66761 14.67476,-4.72931c8.56837,-3.53575 10.59252,-6.05309 12.95042,-4.5927c2.7829,1.72362 1.03006,23.1827 0.71846,28.74062c-0.42163,5.66922 -2.53327,9.49969 -3.15031,12.52053c-0.61704,3.02084 -0.4096,6.13662 -2.20622,16.0397c-1.12121,6.18021 -4.16183,8.92466 -10.01942,14.66081c-5.85759,5.73616 -9.05378,9.25275 -13.01359,9.32173c-3.81077,0.06639 -8.93565,-5.1002 -13.93542,-10.38244c-5.32393,-5.62474 -8.87489,-8.47713 -9.71551,-15.13975c-0.75707,-6.00039 -0.77653,-9.90853 -1.12266,-15.24835c-0.25298,-3.90273 -2.26119,-6.44504 -2.57636,-10.42801z" fill="#ffffff" stroke="#000000" stroke-width="1.5" stroke-linecap="butt"/><path d="M261.27941,110.97665c0,0 1.45102,0.56497 4.01459,1.79659c2.34152,1.12494 4.10102,2.45356 4.10102,2.45356l-0.00048,1.1865c0,0 -6.63456,-4.28211 -14.50182,-4.92833c-6.29047,-0.51669 -10.29048,1.13171 -10.29048,1.13171l0.73359,-4.11216c0,0 3.3656,-1.1654 8.06195,-0.53403c4.86303,0.65379 7.88272,1.91677 7.88272,1.91677z" data-paper-data="{&quot;index&quot;:null}" fill="#000000" stroke="none" stroke-width="1.5" stroke-linecap="butt"/><path d="M214.79185,133.09158c0,0 -4.93211,-3.51705 -6.16417,-8.97502c-1.29636,-5.74284 -1.46118,-9.7328 0.48013,-9.99193c1.94131,-0.25915 2.70321,2.37692 3.73262,8.35569c1.0294,5.97877 1.95143,10.61127 1.95143,10.61127z" data-paper-data="{&quot;index&quot;:null}" fill="#ffffff" stroke="#000000" stroke-width="1" stroke-linecap="butt"/><path d="M214.58926,129.14402c0,0 -3.56385,-2.92338 -4.31816,-8.45061c-0.42079,-3.08327 2.15675,-2.28016 2.15675,-2.28016" fill="none" stroke="#000000" stroke-width="0.25" stroke-linecap="round"/><path d="M216.35975,124.25348c0.07093,-4.89188 4.83834,-8.93609 10.21137,-8.8582c5.37302,0.0779 9.02724,4.2484 8.95632,9.14029c-0.07093,4.89188 -4.12352,8.79439 -9.49655,8.7165c-5.37302,-0.0779 -9.74207,-4.1067 -9.67114,-8.99859z" fill="#8e8e8e" stroke="none" stroke-width="0" stroke-linecap="butt"/><path d="M246.0667,124.25421c0.20353,-4.88817 4.45264,-8.85847 9.77048,-8.85847c5.31783,0 9.27453,3.96607 9.27453,8.85847c0,4.8924 -3.88585,9.07104 -9.69964,9.14188c-5.52997,0.06739 -9.55792,-4.03692 -9.34537,-9.14188z" fill="#8e8e8e" stroke="none" stroke-width="0" stroke-linecap="butt"/><path d="M217.60266,122.48812c0.07093,-4.89188 4.83834,-8.93609 10.21137,-8.8582c5.37302,0.0779 9.02724,4.2484 8.95632,9.14029c-0.07093,4.89188 -4.12352,8.79439 -9.49655,8.7165c-5.37302,-0.0779 -9.74207,-4.1067 -9.67114,-8.99859z" fill="#ffffff" stroke="#000000" stroke-width="1.4" stroke-linecap="butt"/><path d="M222.0403,122.60607c0.03999,-2.75843 2.30855,-4.96213 5.06696,-4.92214c2.75843,0.03999 4.96213,2.30855 4.92214,5.06696c-0.03999,2.75843 -2.30854,4.96213 -5.06696,4.92214c-2.75843,-0.03999 -4.96213,-2.30855 -4.92214,-5.06696z" fill="#000000" stroke="none" stroke-width="1.5" stroke-linecap="butt"/><path d="M244.65894,122.48885c0.20353,-4.88817 4.45264,-8.85847 9.77048,-8.85847c5.31783,0 9.27453,3.96607 9.27453,8.85847c0,4.8924 -3.88585,9.07104 -9.69964,9.14188c-5.52997,0.06739 -9.55792,-4.03692 -9.34537,-9.14188z" fill="#ffffff" stroke="#000000" stroke-width="1.4" stroke-linecap="butt"/><path d="M249.26169,122.5744c0,-2.81845 2.2848,-5.10325 5.10325,-5.10325c2.81845,0 5.10325,2.2848 5.10325,5.10325c0,2.81845 -2.28479,5.10325 -5.10325,5.10325c-2.81845,0 -5.10325,-2.2848 -5.10325,-5.10325z" fill="#000000" stroke="none" stroke-width="1.5" stroke-linecap="butt"/><path d="M221.04385,112.19349c0,0 3.21438,-2.08109 7.82565,-2.91304c5.10986,-0.92192 7.73838,-0.68356 7.73838,-0.68356l0.62303,4.10093c0,0 -3.87751,-0.37362 -8.034,0.11785c-5.55881,0.65727 -6.50995,1.95658 -10.71293,2.75145c-3.60134,0.68108 -6.70329,0.69387 -6.70329,0.69387l-0.12371,-1.22559c0,0 3.58968,-0.21202 5.21172,-0.48416c1.33877,-0.22461 3.88855,-1.25114 3.88855,-1.25114z" fill="#000000" stroke="none" stroke-width="1.5" stroke-linecap="butt"/><path d="M269.02501,122.48031c1.0294,-5.97877 1.7913,-8.61483 3.73262,-8.35569c1.94131,0.25914 1.77649,4.24909 0.48013,9.99193c-1.23206,5.45797 -6.16417,8.97502 -6.16417,8.97502c0,0 0.92203,-4.6325 1.95143,-10.61127z" data-paper-data="{&quot;index&quot;:null}" fill="#ffffff" stroke="#000000" stroke-width="1" stroke-linecap="butt"/><path d="M269.43757,118.41325c0,0 2.57754,-0.80312 2.15675,2.28016c-0.75431,5.52723 -4.31816,8.45061 -4.31816,8.45061" data-paper-data="{&quot;index&quot;:null}" fill="none" stroke="#000000" stroke-width="0.25" stroke-linecap="round"/><path d="M217.26052,122.39568c0,0 0.06357,-9.01512 10.60111,-8.8249c9.47101,0.16586 9.55554,9.40723 9.55554,9.40723c0,0 -2.86442,0.81947 -10.11316,0.77495c-7.29086,-0.04478 -10.04349,-1.35728 -10.04349,-1.35728z" fill="#ffffff" stroke="#000000" stroke-width="1.15" stroke-linecap="butt"/><path d="M244.0076,122.52659c0,0 -0.24686,-9.4582 11.19813,-9.1032c9.71427,0.33347 9.54677,9.65229 9.54677,9.65229c0,0 -4.12414,1.36469 -10.54871,1.37629c-9.70875,0.01753 -10.19619,-1.92538 -10.19619,-1.92538z" fill="#ffffff" stroke="#000000" stroke-width="1.15" stroke-linecap="butt"/><path d="M240.72435,152.39542c-1.03376,0 -3.5381,-3.26042 -3.7867,-5.3637c-0.22243,-1.88186 1.31512,-3.82799 3.7867,-3.82799c2.47159,0 4.2021,0.49077 4.02999,4.18853c-0.14607,3.13818 -1.55841,5.00317 -4.02999,5.00317z" fill="#ffffff" stroke="#000000" stroke-width="1.15" stroke-linecap="butt"/><path d="M243.87245,212.07852c-0.35536,1.19842 -1.55379,0.84306 -1.55379,0.84306l-2.29003,-0.67936c-5.34594,-1.33662 -10.45572,-3.59688 -15.76134,-4.90987c0,0 -1.21268,-0.30317 -0.90951,-1.51585c0.30317,-1.21268 1.51585,-0.90951 1.51585,-0.90951c5.32497,1.34329 10.44523,3.58158 15.81369,4.92356l2.34208,0.69418c0,0 1.19842,0.35536 0.84306,1.55379z" fill="#1d003a" stroke="none" stroke-width="0.5" stroke-linecap="butt"/><path d="M250.80762,222.24792c-0.17987,1.23699 -1.41686,1.05712 -1.41686,1.05712l-2.43328,-0.35848c-7.73492,-2.51533 -15.63864,-4.61125 -23.25696,-7.46677c0,0 -1.17041,-0.4389 -0.73151,-1.60932c0.4389,-1.17041 1.60932,-0.73151 1.60932,-0.73151c7.51876,2.8209 15.32433,4.86302 22.94978,7.37359l2.2224,0.31851c0,0 1.23699,0.17987 1.05712,1.41686z" fill="#1d003a" stroke="none" stroke-width="0.5" stroke-linecap="butt"/><path d="M243.12688,248.77055c0.88388,0.88388 0,1.76777 0,1.76777l-1.05258,1.01825c-1.88301,1.24381 -3.03348,2.82289 -4.46811,4.49383c-2.12756,2.47801 -4.5946,4.10112 -6.39218,6.79749c0,0 -0.69338,1.04006 -1.73344,0.34669c-1.04006,-0.69338 -0.34669,-1.73344 -0.34669,-1.73344c1.86393,-2.7959 4.35989,-4.44896 6.53895,-6.99571c1.59469,-1.86378 2.93417,-3.59103 5.01471,-4.98899l0.67157,-0.7059c0,0 0.88388,-0.88388 1.76777,0z" fill="#1d003a" stroke="none" stroke-width="0.5" stroke-linecap="butt"/><path d="M251.55074,243.49194c0.55902,1.11803 -0.55902,1.67705 -0.55902,1.67705l-0.38103,0.00638c-3.80824,5.71236 -7.64323,12.52218 -9.76807,19.09859c0,0 -0.39528,1.18585 -1.58114,0.79057c-1.18585,-0.39528 -0.79057,-1.58114 -0.79057,-1.58114c2.32185,-6.80115 6.09268,-13.74432 10.05965,-19.69477l1.34312,-0.8557c0,0 1.11803,-0.55902 1.67705,0.55902z" fill="#1d003a" stroke="none" stroke-width="0.5" stroke-linecap="butt"/><path d="M262.45864,166.03319c0,1.25 -1.25,1.25 -1.25,1.25l-1.6884,-0.06415c-0.87762,-0.65822 -1.95726,-1.28186 -3.05301,-1.22897c0,0 -1.25,0 -1.25,-1.25c0,-1.25 1.25,-1.25 1.25,-1.25c1.35811,0.0411 2.7566,0.54202 3.84358,1.35726l0.89783,-0.06415c0,0 1.25,0 1.25,1.25z" fill="#1d003a" stroke="none" stroke-width="0.5" stroke-linecap="butt"/><path d="M266.83393,170.36538c-0.88388,0.88388 -1.76777,0 -1.76777,0l0.45285,-0.06492c-2.73223,-0.01174 -5.41981,-0.43104 -8.18971,-0.43104c0,0 -1.25,0 -1.25,-1.25c0,-1.25 1.25,-1.25 1.25,-1.25c2.7582,0 5.47715,0.44514 8.18971,0.43104l1.31492,0.79715c0,0 0.88388,0.88388 0,1.76777z" fill="#1d003a" stroke="none" stroke-width="0.5" stroke-linecap="butt"/><g stroke="none" stroke-linecap="butt"><path d="M261.59643,159.50078c0,0 -5.26148,13.74274 -26.81827,15.19319c-20.13717,1.35493 -17.38009,-17.72539 -17.38009,-17.72539c0,0 6.45395,-9.08296 8.50603,-9.23981c8.80608,-0.67311 13.61227,4.47346 13.61227,4.47346c0,0 5.31234,-4.9927 10.5501,-1.98721c6.24824,3.58532 11.52997,9.28577 11.52997,9.28577z" fill="#000000" stroke-width="0"/><path d="M224.29249,150.07557c1.9639,-1.15656 5.1272,-0.80095 8.5586,0.98648c3.0861,1.66125 8.69351,4.76282 7.83026,5.58292c-0.1942,0.21027 -5.30598,0.23674 -7.91733,-0.31c-4.22995,-0.90425 -5.49262,-0.88988 -7.06807,-0.04873c-1.7265,0.8832 -5.85896,1.27974 -5.85896,0.52268c0,-0.8832 3.39794,-6.10245 4.45544,-6.73332z" data-paper-data="{&quot;noHover&quot;:false,&quot;origItem&quot;:[&quot;Path&quot;,{&quot;applyMatrix&quot;:true,&quot;segments&quot;:[[[492.02085,349.40997],[0,0],[-0.38282,0.22838]],[[490.41929,351.75463],[0,-0.31972],[0,0.27406]],[[492.52085,351.53387],[-0.625,0.31972],[0.57032,-0.3045]],[[494.92711,351.55671],[-1.53126,-0.32734],[0.94532,0.19792]],[[496.77867,351.77747],[-0.0703,0.07612],[0.3125,-0.29688]],[[494.95055,349.76015],[1.11718,0.60138],[-1.24218,-0.64706]],[[492.02087,349.40997],[0.71094,-0.41868],[0,0]]],&quot;closed&quot;:true,&quot;fillColor&quot;:[0,0,0]}]}" fill="#ffffff" stroke-width="0.5"/><path d="M247.13439,151.36381c0.73375,0 2.75834,0.53422 4.26904,1.29128c1.5107,0.75707 3.76933,2.67505 4.89152,3.85266l1.87939,2.19726l-2.98184,-0.4425c-8.02824,-1.2407 -15.49672,-1.1748 -15.75572,-2.47859c0.89206,-1.45097 5.73369,-4.42006 7.69759,-4.42006z" data-paper-data="{&quot;noHover&quot;:false,&quot;origItem&quot;:[&quot;Path&quot;,{&quot;applyMatrix&quot;:true,&quot;segments&quot;:[[[500.27873,349.88955],[0,0],[-0.71094,0]],[[499.02091,351.00859],[-0.09374,-0.52526],[0.09376,0.47198]],[[503.04435,352.25705],[-2.90626,-0.44914],[0,0]],[504.11467,352.43213],[[503.42717,351.65565],[0,0],[-0.40624,-0.4263]],[[501.73185,350.38435],[0.54688,0.27406],[-0.54688,-0.27406]],[[500.27873,349.88953],[0.26562,0],[0,0]]],&quot;closed&quot;:true,&quot;fillColor&quot;:[0,0,0]}]}" fill="#ffffff" stroke-width="0.5"/><path d="M247.67171,159.13091c-1.8344,0.8201 -4.15652,0.81938 -4.15652,-0.00072c0,-0.4206 1.54406,-0.93032 2.92526,-0.86723c1.9639,0 2.28876,0.38431 1.23126,0.86795z" data-paper-data="{&quot;noHover&quot;:false,&quot;origItem&quot;:[&quot;Path&quot;,{&quot;applyMatrix&quot;:true,&quot;segments&quot;:[[[499.90373,352.40169],[0.71094,0],[-0.5,-0.02284]],[[498.99749,352.63007],[0,-0.15226],[0,0.29688]],[[500.30217,352.63007],[-0.66406,0.29688],[0.38282,-0.17508]]],&quot;closed&quot;:true,&quot;fillColor&quot;:[0,0,0]}]}" fill="#ffffff" stroke-width="0.5"/><path d="M227.13366,161.27665c5.5248,3.02814 7.71096,3.03869 13.4947,1.39844c4.6184,-1.3038 17.04919,-2.64386 17.69664,-2.03403c0.73375,0.75707 -4.20995,5.79244 -7.6198,7.70607c-4.81259,2.75477 -11.23907,4.1958 -17.69187,3.92244c-6.647,-0.27337 -9.76306,-2.11688 -11.87801,-6.68014c-1.5107,-3.21742 -1.75203,-7.25204 -0.43558,-7.25204c0.51795,0 3.6715,1.42521 6.4339,2.93928z" data-paper-data="{&quot;noHover&quot;:false,&quot;origItem&quot;:[&quot;Path&quot;,{&quot;applyMatrix&quot;:true,&quot;segments&quot;:[[[490.73181,352.37885],[0.1875,0],[-0.47656,0]],[[490.89587,354.96711],[-0.54688,-1.16472],[0.76562,1.65192]],[[495.16149,357.31177],[-2.40624,-0.09896],[2.33594,0.09896]],[[501.40367,355.94151],[-1.74218,0.99724],[1.23438,-0.69274]],[[504.16149,353.20099],[0.26562,0.27406],[-0.23438,-0.22076]],[[497.80211,354.00031],[1.67188,-0.47198],[-2.09374,0.59378]],[[492.87243,353.37609],[2,1.0962],[-1,-0.5481]]],&quot;closed&quot;:true,&quot;fillColor&quot;:[0,0,0]}]}" fill="#ffffff" stroke-width="0.5"/><path d="M233.79798,157.59271c6.7765,1.3038 23.69618,0.6061 0.4748,3.8289c-1.90252,0.26403 -4.16232,-0.55273 -4.68027,-1.03637c-0.4748,-0.4837 -1.39969,-1.2059 -2.00398,-1.47926c-0.64739,-0.21027 -1.18029,-0.80614 -1.18029,-1.22675c0,-0.8832 2.46926,-1.05385 7.38975,-0.08652z" data-paper-data="{&quot;noHover&quot;:false,&quot;origItem&quot;:[&quot;Path&quot;,{&quot;applyMatrix&quot;:true,&quot;segments&quot;:[[[492.80219,352.12765],[0,-0.31972],[0,0.15226]],[[493.23187,352.55395],[-0.23436,-0.07612],[0.21876,0.09896]],[[493.95063,353.04877],[-0.17188,-0.1751],[0.1875,0.17508]],[[495.49751,353.37611],[-0.69532,0],[2.40624,0]],[[495.32563,352.15811],[2.45312,0.47198],[-1.78124,-0.35018]]],&quot;closed&quot;:true,&quot;fillColor&quot;:[0,0,0]}]}" fill="#ffffff" stroke-width="0.5"/></g><path d="M244.32646,122.30174c0,0 0.1026,3.96976 0.00576,7.12662c-0.19174,6.25113 -1.08147,27.7607 -1.08147,27.7607l-2.98167,0.00864c0,0 -0.80294,-4.17274 -1.12322,-9.49979c-0.43353,-7.21063 -0.4495,-16.29321 -0.76344,-19.63229c-0.29758,-3.16513 -0.89593,-5.71453 -0.89593,-5.71453" fill="#ffffff" stroke="#000000" stroke-width="1.3" stroke-linecap="round"/></g></g></svg>