<svg version="1.1" xmlns="http://www.w3.org/2000/svg" xmlns:xlink="http://www.w3.org/1999/xlink" width="35.67311" height="35.67311" viewBox="0,0,35.67311,35.67311"><g transform="translate(-222.16347,-162.16347)"><g data-paper-data="{&quot;isPaintingLayer&quot;:true}" stroke="#000000" stroke-miterlimit="10" stroke-dasharray="" stroke-dashoffset="0" style="mix-blend-mode: normal"><path d="M229.98314,162.91348h20.03379c3.9166,0 7.06966,3.15307 7.06966,7.06966v20.03379c0,3.91659 -3.15306,7.06966 -7.06966,7.06966h-20.03379c-3.91659,0 -7.06966,-3.15307 -7.06966,-7.06966v-20.03379c0,-3.91659 3.15307,-7.06966 7.06966,-7.06966z" fill="#7004dc" fill-rule="evenodd" stroke-width="1.5" stroke-linecap="round" stroke-linejoin="round"/><g fill="#ffffff" fill-rule="nonzero" stroke-width="1" stroke-linecap="butt" stroke-linejoin="miter"><path d="M228.59797,185.10428c-1.82145,-5.54665 1.98522,-11.96246 8.07741,-13.96308c6.09219,-2.0006 11.83599,1.28421 13.65746,6.83087c1.82145,5.54665 -1.23383,11.52475 -7.32602,13.52537c-6.09219,2.0006 -12.58739,-0.84649 -14.40884,-6.39315z"/><path d="M229.31404,182.62946c-1.82145,-5.54665 1.98522,-11.96246 8.07741,-13.96308c6.09219,-2.0006 11.83599,1.28421 13.65746,6.83087c1.82145,5.54665 -1.23383,11.52475 -7.32602,13.52537c-6.09219,2.0006 -12.58739,-0.84649 -14.40884,-6.39315z"/><path d="M234.36649,181.03762c-1.02708,-3.12764 0.67576,-6.49567 3.80337,-7.52274c3.12764,-1.02708 6.49567,0.67576 7.52274,3.80337c1.02708,3.12764 -0.67574,6.49566 -3.80337,7.52274c-3.12764,1.02708 -6.49567,-0.67576 -7.52274,-3.80337z"/><path d="M228.89211,182.65816c0,0 -3.43245,-10.19568 8.53006,-14.07701c10.74978,-3.49425 14.43726,6.89911 14.43726,6.89911c0,0 -4.42258,-2.34324 -12.618,0.42412c-8.24304,2.78343 -10.34933,6.75378 -10.34933,6.75378z"/></g></g></g></svg>