<svg version="1.1" xmlns="http://www.w3.org/2000/svg" xmlns:xlink="http://www.w3.org/1999/xlink" width="35.67311" height="35.67311" viewBox="0,0,35.67311,35.67311"><g transform="translate(-222.16345,-162.16345)"><g data-paper-data="{&quot;isPaintingLayer&quot;:true}" stroke="#000000" stroke-miterlimit="10" stroke-dasharray="" stroke-dashoffset="0" style="mix-blend-mode: normal"><path d="M229.98313,162.91346h20.03378c3.9166,0 7.06966,3.15307 7.06966,7.06966v20.03379c0,3.91659 -3.15306,7.06966 -7.06966,7.06966h-20.03378c-3.91659,0 -7.06967,-3.15307 -7.06967,-7.06966v-20.03379c0,-3.91659 3.15308,-7.06966 7.06967,-7.06966z" fill="#ffffff" fill-rule="evenodd" stroke-width="1.5" stroke-linecap="round" stroke-linejoin="round"/><path d="M249.52907,177.08481c2.64665,6.15023 2.38261,12.17288 -3.12022,14.54093c-5.50283,2.36805 -10.1396,-0.15634 -12.78624,-6.30657c-0.95993,-2.23068 -7.6371,-9.89034 -6.83386,-11.07759c1.41137,-2.08614 9.7632,2.52325 13.27017,1.01409c2.86511,-1.23295 4.22177,-8.79124 6.12998,-8.94345c1.75677,-0.14012 2.07154,7.82454 3.34018,10.77258z" fill="#000000" fill-rule="nonzero" stroke-width="0" stroke-linecap="butt" stroke-linejoin="miter"/></g></g></svg>