<svg version="1.1" xmlns="http://www.w3.org/2000/svg" xmlns:xlink="http://www.w3.org/1999/xlink" width="35.67311" height="35.67311" viewBox="0,0,35.67311,35.67311"><g transform="translate(-222.16348,-162.1635)"><g data-paper-data="{&quot;isPaintingLayer&quot;:true}" stroke="#000000" stroke-miterlimit="10" stroke-dasharray="" stroke-dashoffset="0" style="mix-blend-mode: normal"><path d="M229.98314,162.9135h20.03379c3.9166,0 7.06966,3.15307 7.06966,7.06966v20.03379c0,3.91659 -3.15306,7.06966 -7.06966,7.06966h-20.03379c-3.91659,0 -7.06966,-3.15307 -7.06966,-7.06966v-20.03379c0,-3.91659 3.15307,-7.06966 7.06966,-7.06966z" fill="#4db8c0" fill-rule="evenodd" stroke-width="1.5" stroke-linecap="round" stroke-linejoin="round"/><g fill="#ffffff" fill-rule="nonzero" stroke-width="1" stroke-linecap="butt" stroke-linejoin="miter"><path d="M251.52236,170.03037c1.09279,1.90602 0.03813,14.29806 -6.56607,18.08447c-6.6042,3.78641 -16.98684,-4.3008 -18.07963,-6.20682c-1.09279,-1.90602 5.54105,0.76513 12.14525,-3.02128c6.6042,-3.78641 11.40766,-10.76239 12.50045,-8.85637z"/><path d="M248.94734,171.13187c0.02974,0.05188 -0.19413,2.34046 -0.78492,3.94941c-0.41807,1.13857 -1.15447,1.49185 -1.51901,2.44058c-0.91663,2.38559 -1.24747,3.05981 -1.6072,3.53605c-0.77679,1.0284 -1.90832,1.5358 -2.66383,1.96896c-4.06283,2.32936 -9.41141,0.21244 -9.98656,-0.79073c-0.57515,-1.00317 2.97309,-2.02637 7.03592,-4.35573c4.06283,-2.32936 8.95044,-7.7517 9.52559,-6.74853z"/><path d="M244.41804,171.14678c2.4117,-1.75747 6.89867,-2.95382 6.91783,-2.90909c0.02022,0.04721 -0.42716,2.33524 -1.91989,4.317c-1.98156,2.63074 -5.23051,5.18943 -6.06267,5.81532c-1.2227,0.9196 -4.92417,3.33596 -7.3905,3.85968c-1.62224,0.34447 -3.51311,0.15856 -5.23585,0.14523c-2.96005,-0.02291 -6.44547,-1.66637 -6.45809,-1.68353c-0.00671,-0.00912 1.94918,-0.38946 3.49318,-0.57199c1.42548,-0.16852 2.80387,-1.16914 4.56371,-1.37423c3.12807,-0.36454 6.48684,0.08464 6.51194,0.07326c0,0 0.08787,-1.17623 0.56295,-1.67727c0.23922,-0.25229 3.89743,-5.17823 5.0174,-5.99439z"/><path d="M246.1279,188.03367c-0.58386,0.33475 -1.35657,0.66826 -2.22046,0.96258c-2.73658,0.93233 -6.38799,1.47132 -7.8488,0.41009c-0.20508,-0.14898 0.18776,-3.01094 0.49842,-4.7668c0.01755,-0.09918 2.38629,0.508 4.15556,0.45347c0.86868,-0.02677 1.50034,-0.5874 1.8184,-0.74054c2.34919,-1.13109 3.18979,-4.24294 3.93173,-4.66832c2.40961,-1.38151 3.8547,0.55402 3.4641,3.10451c-0.28967,1.89145 -2.01199,4.22048 -3.79896,5.24501z"/><path d="M251.38774,168.2904c0.02225,0.02996 0.87409,2.63824 1.87595,6.07297c0.37353,1.28062 0.13089,3.85304 -1.09331,6.60563c-1.35497,3.04661 -2.4549,7.11318 -4.67476,8.4736c-4.32154,2.6484 -8.70435,1.50715 -9.52654,1.15618c-0.86385,-0.36875 -3.88328,-0.49606 -6.29794,-2.79348c-3.50716,-3.33688 -7.4651,-6.98234 -7.47063,-7.00019c-0.00828,-0.02672 4.20512,1.53162 7.72129,3.36442c2.75524,1.43617 4.89884,3.20818 5.47268,3.40126c0.28907,0.09727 2.13819,0.39958 3.64346,-0.08807c1.21566,-0.39382 5.80278,-1.85934 7.64479,-5.33099c2.88953,-5.44589 2.65577,-13.92764 2.70501,-13.86133z"/></g></g></g></svg>