<svg version="1.1" xmlns="http://www.w3.org/2000/svg" xmlns:xlink="http://www.w3.org/1999/xlink" width="93.36936" height="248.44545" viewBox="0,0,93.36936,248.44545"><defs><linearGradient x1="201.0477" y1="226.97811" x2="281.7531" y2="226.97811" gradientUnits="userSpaceOnUse" id="color-1"><stop offset="0" stop-color="#000000"/><stop offset="1" stop-color="#797979"/></linearGradient><linearGradient x1="249.05064" y1="145.19447" x2="252.41167" y2="156.19237" gradientUnits="userSpaceOnUse" id="color-2"><stop offset="0" stop-color="#000000"/><stop offset="1" stop-color="#480000"/></linearGradient><radialGradient cx="253.58393" cy="116.07302" r="9.52652" gradientUnits="userSpaceOnUse" id="color-3"><stop offset="0" stop-color="#ffffff"/><stop offset="1" stop-color="#ff9191"/></radialGradient><linearGradient x1="206.24281" y1="235.05558" x2="206.24281" y2="247.88892" gradientUnits="userSpaceOnUse" id="color-4"><stop offset="0" stop-color="#ff0000"/><stop offset="1" stop-color="#a00000" stop-opacity="0.83921"/></linearGradient><linearGradient x1="240.67348" y1="149.5876" x2="240.67348" y2="165.56329" gradientUnits="userSpaceOnUse" id="color-5"><stop offset="0" stop-color="#7c0000"/><stop offset="1" stop-color="#a90000"/></linearGradient><linearGradient x1="206.35948" y1="245.88892" x2="206.35948" y2="260.88892" gradientUnits="userSpaceOnUse" id="color-6"><stop offset="0" stop-color="#a00000"/><stop offset="1" stop-color="#580000" stop-opacity="0.72513"/></linearGradient></defs><g transform="translate(-194.22456,-57.18954)"><g data-paper-data="{&quot;isPaintingLayer&quot;:true}" fill-rule="nonzero" stroke-linejoin="miter" stroke-miterlimit="10" stroke-dasharray="" stroke-dashoffset="0" style="mix-blend-mode: normal"><path d="M201.84131,304.26104c0,0 -0.63536,-94.38387 -0.79335,-118.01201c-0.05451,-8.15261 8.18688,-36.76129 40.20201,-36.9211c31.60235,-0.15775 39.85672,29.48704 39.84884,36.89673c-0.07659,46.24274 0.65429,117.98648 0.65429,117.98648l-10.49667,0.09614l-0.15882,-114.84311c0,0 0.07549,-3.0993 -2.81625,-3.15415c-3.43441,-0.06514 -2.94538,3.11562 -2.94538,3.11562l-2.46119,115.20328l-42.21366,-0.26111l-3.63872,-115.23309c0,0 0.27949,-2.919 -2.8856,-2.93443c-3.11083,-0.01515 -2.81569,2.90899 -2.81569,2.90899l0.35311,115.0668z" fill="url(#color-1)" stroke="#000000" stroke-width="2" stroke-linecap="butt"/><path d="M216.68962,303.3061v-116.10693c0,0 0.75721,-9.47843 0.75721,-14.25932c0,-4.38123 -0.75721,-13.33187 -0.75721,-13.33187c0,0 2.67319,-2.29189 4.6557,-3.65077c1.98251,-1.35888 5.17197,-2.73093 5.17197,-2.73093c0,0 -0.6016,-0.13223 14.55952,-0.20075c15.43477,-0.06976 13.83154,0.20076 13.83154,0.20076c0,0 3.91276,1.48014 6.16585,2.87006c2.25309,1.3899 4.75379,3.51164 4.75379,3.51164c0,0 -0.75721,9.17996 -0.75721,13.82358c0,4.71623 0.75721,14.25932 0.75721,14.25932v115.61524z" fill="#313131" stroke="#000000" stroke-width="2" stroke-linecap="butt"/><path d="M197.64704,105.56794c0,0 6.16329,-5.92187 6.29161,-6.78761c0.33654,-2.27063 -0.16776,-40.17317 35.96775,-41.57382c44.63633,-0.91362 39.01489,35.34872 41.53088,42.1903c3.44981,9.38084 6.15664,17.40016 6.15664,17.40016c0,0 -2.76715,-2.05351 -4.0797,-3.13397c-1.2242,-1.00773 -3.80143,-3.14585 -3.80143,-3.14585c0,0 3.09111,10.3481 1.31092,20.69498c-1.5623,9.48098 -7.29782,17.22543 -7.29782,17.22543l-1.15522,-2.34735c0,0 -1.02266,2.19794 -2.16005,3.33274c-1.1374,1.13479 -3.43873,2.91273 -3.43873,2.91273l-0.09205,-3.70421c0,0 -7.0601,11.01795 -24.35066,10.87154c-16.30625,-0.25547 -26.07151,-10.6752 -26.07151,-10.6752l-0.1162,2.65484c0,0 -3.89477,-3.29276 -6.18145,-9.70754c-2.72545,-7.64567 -3.23946,-12.24324 -3.23946,-12.24324c0,0 -2.33908,1.89916 -5.71704,2.7744c-4.23278,1.09673 -6.94665,0.34526 -6.94665,0.34526c0,0 3.60795,-2.71717 5.58396,-4.76989c1.76007,-1.8284 2.64658,-3.37722 2.64658,-3.37722c0,0 -2.10758,1.0847 -4.23277,1.61795c-2.21739,0.5564 -4.03008,0.53093 -4.03008,0.53093c0,0 4.97492,-5.03728 7.03074,-10.87429c1.94102,-5.51108 2.09972,-10.95731 2.09972,-10.95731c0,0 -1.36165,0.66163 -3.33013,0.79513c-1.24776,0.08463 -2.37785,-0.0489 -2.37785,-0.0489z" fill="#000000" stroke="none" stroke-width="1.5" stroke-linecap="butt"/><path d="M240.1571,153.60216l1.5,149" fill="none" stroke="#000000" stroke-width="1.5" stroke-linecap="round"/><path d="M214.43289,116.88956c-0.57709,-7.29323 0.335,-17.15448 0.335,-17.15448c0,0 3.41059,-0.04124 13.91429,-3.14424c8.0696,-2.38394 20.54731,-9.48722 20.54731,-9.48722c0,0 -2.16005,3.00503 -3.40781,4.46015c-1.32651,1.54696 -3.99292,4.56297 -3.99292,4.56297c0,0 7.838,-1.66761 14.67476,-4.72931c8.56837,-3.53575 10.59252,-6.05309 12.95042,-4.5927c2.7829,1.72362 1.03006,23.1827 0.71846,28.74062c-0.42163,5.66922 -2.53327,9.49969 -3.15031,12.52053c-0.61704,3.02084 -0.4096,6.13662 -2.20622,16.0397c-1.12121,6.18021 -4.16183,8.92466 -10.01942,14.66081c-5.85759,5.73616 -9.05378,9.25275 -13.01359,9.32173c-3.81077,0.06639 -8.93565,-5.1002 -13.93542,-10.38244c-5.32393,-5.62474 -8.87489,-8.47713 -9.71551,-15.13975c-0.75707,-6.00039 -0.77653,-9.90853 -1.12266,-15.24835c-0.25298,-3.90273 -2.26119,-6.44504 -2.57636,-10.42801z" fill="#ffffff" stroke="#000000" stroke-width="1.5" stroke-linecap="butt"/><path d="M249.05064,145.19447c5.80988,-1.77554 11.27211,-0.75293 12.20023,2.28405c0.92812,3.03698 -3.02932,6.9383 -8.8392,8.71384c-5.80988,1.77554 -11.27212,0.75293 -12.20024,-2.28405c-0.92812,-3.03698 3.02933,-6.9383 8.83921,-8.71384z" fill="url(#color-2)" stroke="none" stroke-width="0" stroke-linecap="butt"/><path d="M262.50289,101.7692c0,0 1.52429,0.31807 4.2558,1.11029c2.49492,0.72361 4.44935,1.74403 4.44935,1.74403l0.1951,1.17035c0,0 -7.24963,-3.12997 -15.1158,-2.4706c-6.2896,0.52724 -9.96319,2.8124 -9.96319,2.8124l0.04575,-4.17683c0,0 3.12748,-1.70421 7.86366,-1.85557c4.90428,-0.15672 8.09084,0.59125 8.09084,0.59125z" data-paper-data="{&quot;index&quot;:null}" fill="#000000" stroke="none" stroke-width="1.5" stroke-linecap="butt"/><path d="M249.73877,144.75671c0.5704,0.21186 5.08357,-2.35058 8.02385,-1.15414c2.1557,0.87718 3.93376,0.5504 4.73555,2.07545c0.30052,0.57162 -1.03611,2.08938 -1.04143,2.13506c-0.02476,0.21265 -7.68477,-1.02306 -10.92937,-0.61776c-2.71902,0.33964 -7.93867,3.95564 -7.93867,3.95564c0,0 -7.10401,-1.16169 -13.27235,-2.44521c-4.94371,-1.02869 -10.39929,-1.66108 -10.40995,-1.75461c-0.01439,-0.12613 3.86835,-0.71071 6.82417,-1.39467c1.14585,-0.49661 5.43971,-1.48513 5.43971,-1.48513c0,0 4.95585,-0.27766 7.60826,0.579c2.84203,0.91791 2.83546,2.44556 3.0831,2.46906c0,0 1.18436,-1.74932 2.36886,-2.10461c1.18451,-0.35528 5.08219,-0.41633 5.50828,-0.25808z" fill="#ffffff" stroke="#000000" stroke-width="1.4" stroke-linecap="butt"/><path d="M242.06505,146.31666c-1.03376,0 -3.5381,-3.26042 -3.7867,-5.3637c-0.22243,-1.88186 1.31512,-3.82799 3.7867,-3.82799c2.47159,0 4.2021,0.49077 4.02999,4.18853c-0.14607,3.13818 -1.55841,5.00317 -4.02999,5.00317z" fill="#ffffff" stroke="#000000" stroke-width="1.15" stroke-linecap="butt"/><path d="M245.66714,116.22294c0,0 0.1026,3.96976 0.00576,7.12662c-0.19174,6.25113 -1.08147,27.7607 -1.08147,27.7607l-2.98167,0.00864c0,0 -0.80294,-4.17274 -1.12322,-9.49979c-0.43353,-7.21063 -0.4495,-16.29321 -0.76344,-19.63229c-0.29758,-3.16513 -0.89593,-5.71453 -0.89593,-5.71453" fill="#ffffff" stroke="#000000" stroke-width="1.3" stroke-linecap="round"/><path d="M216.13257,127.01278c0,0 -4.93211,-3.51705 -6.16417,-8.97502c-1.29636,-5.74284 -1.46118,-9.7328 0.48013,-9.99193c1.94131,-0.25915 2.70321,2.37692 3.73262,8.35569c1.0294,5.97877 1.95143,10.61127 1.95143,10.61127z" data-paper-data="{&quot;index&quot;:null}" fill="#ffffff" stroke="#000000" stroke-width="1" stroke-linecap="butt"/><path d="M215.92994,123.06522c0,0 -3.56385,-2.92338 -4.31816,-8.45061c-0.42079,-3.08327 2.15675,-2.28016 2.15675,-2.28016" fill="none" stroke="#000000" stroke-width="0.25" stroke-linecap="round"/><path d="M218.94337,116.40932c0.07093,-4.89188 4.83834,-8.93609 10.21137,-8.8582c5.37302,0.0779 9.02724,4.2484 8.95632,9.14029c-0.07093,4.89188 -4.12352,8.79439 -9.49655,8.7165c-5.37302,-0.0779 -9.74207,-4.1067 -9.67114,-8.99859z" fill="#ffffff" stroke="#000000" stroke-width="1.4" stroke-linecap="butt"/><path d="M245.40739,116.8886c0.20353,-4.88817 4.45264,-8.85847 9.77048,-8.85847c5.31783,0 9.27453,3.96607 9.27453,8.85847c0,4.8924 -3.88585,9.07104 -9.69964,9.14188c-5.52997,0.06739 -9.55792,-4.03692 -9.34537,-9.14188z" fill="url(#color-3)" stroke="#000000" stroke-width="1.4" stroke-linecap="butt"/><path d="M223.38102,116.52726c0.03999,-2.75843 2.30855,-4.96213 5.06696,-4.92214c2.75843,0.03999 4.96213,2.30855 4.92214,5.06696c-0.03999,2.75843 -2.30854,4.96213 -5.06696,4.92214c-2.75843,-0.03999 -4.96213,-2.30855 -4.92214,-5.06696z" fill="#000000" stroke="none" stroke-width="1.5" stroke-linecap="butt"/><path d="M250.46906,117.0956c0,-2.37662 1.92663,-4.30325 4.30325,-4.30325c2.37662,0 4.30325,1.92663 4.30325,4.30325c0,2.37662 -1.92662,4.30325 -4.30325,4.30325c-2.37662,0 -4.30325,-1.92663 -4.30325,-4.30325z" fill="#000000" stroke="none" stroke-width="1.5" stroke-linecap="butt"/><path d="M218.87496,115.87714c0,0 0.06357,-9.01512 10.60111,-8.8249c9.47101,0.16586 9.55554,9.40723 9.55554,9.40723z" fill="#ffffff" stroke="#000000" stroke-width="1.15" stroke-linecap="butt"/><path d="M222.40478,105.86548c0,0 3.36963,-1.819 8.03244,-2.28178c5.16698,-0.51283 7.76823,-0.06628 7.76823,-0.06628l0.29508,4.13747c0,0 -3.83554,-0.68065 -8.01795,-0.52113c-5.59346,0.21333 -6.64488,1.43293 -10.89774,1.89119c-3.64408,0.39266 -6.73723,0.15884 -6.73723,0.15884l-0.02589,-1.23155c0,0 3.59517,0.07398 5.23371,-0.06836c1.35239,-0.11749 3.9757,-0.93808 3.9757,-0.93808z" fill="#000000" stroke="none" stroke-width="1.5" stroke-linecap="butt"/><path d="M270.36569,116.40151c1.0294,-5.97877 1.7913,-8.61483 3.73262,-8.35569c1.94131,0.25914 1.77649,4.24909 0.48013,9.99193c-1.23206,5.45797 -6.16417,8.97502 -6.16417,8.97502c0,0 0.92203,-4.6325 1.95143,-10.61127z" data-paper-data="{&quot;index&quot;:null}" fill="#ffffff" stroke="#000000" stroke-width="1" stroke-linecap="butt"/><path d="M270.77822,112.33445c0,0 2.57754,-0.80312 2.15675,2.28016c-0.75431,5.52723 -4.31816,8.45061 -4.31816,8.45061" data-paper-data="{&quot;index&quot;:null}" fill="none" stroke="#000000" stroke-width="0.25" stroke-linecap="round"/><path d="" data-paper-data="{&quot;index&quot;:null}" fill="#000000" stroke="none" stroke-width="1.5" stroke-linecap="butt"/><path d="" fill="#ffffff" stroke="none" stroke-width="0.5" stroke-linecap="butt"/><path d="" fill="#000000" stroke="none" stroke-width="0.5" stroke-linecap="butt"/><path d="" fill="#ff0000" stroke="none" stroke-width="0.5" stroke-linecap="butt"/><path d="" fill="#000000" stroke="none" stroke-width="0.5" stroke-linecap="butt"/><path d="" fill="#000000" stroke="none" stroke-width="0.5" stroke-linecap="butt"/><path d="" fill="#000000" stroke="none" stroke-width="0.5" stroke-linecap="butt"/><path d="" fill="#000000" stroke="none" stroke-width="0.5" stroke-linecap="butt"/><path d="" fill="#000000" stroke="none" stroke-width="0.5" stroke-linecap="butt"/><path d="" fill="#000000" stroke="none" stroke-width="0.5" stroke-linecap="butt"/><path d="M201.80002,231.43336l0.2,-47.35c0,0 1.29315,-7.93499 4.60112,-14.363c3.11908,-6.06095 8.49209,-11.14341 9.17726,-10.92807c0.3849,0.12097 0.51305,6.19822 0.9264,12.13592c0.43447,6.24113 -0.55579,13.15948 -0.47998,14.42772c0.04763,0.7967 -1.28854,0.29467 -2.23096,0.20016c-0.25838,-0.02591 -0.86763,0.25228 -1.10526,0.33268c-1.56241,0.52863 -1.97191,1.11125 -1.97191,1.11125l-0.11666,44.73333z" fill="#313131" stroke="none" stroke-width="0" stroke-linecap="butt"/><path d="M271.61545,231.13335l0.08334,-43.33333c0,0 -0.4095,-0.58262 -1.97191,-1.11125c-0.23763,-0.0804 -0.84688,-0.35859 -1.10526,-0.33268c-0.94242,0.09451 -2.27859,0.59654 -2.23096,-0.20016c0.07581,-1.26824 -0.91445,-8.18659 -0.47998,-14.42772c0.41335,-5.9377 0.5415,-12.01495 0.9264,-12.13592c0.68517,-0.21534 6.05818,4.86712 9.17726,10.92807c3.30797,6.42801 4.60112,14.363 4.60112,14.363v47.95z" data-paper-data="{&quot;index&quot;:null}" fill="#313131" stroke="none" stroke-width="0" stroke-linecap="butt"/><path d="M199.65709,235.20216v-5.6h13.6v5.6z" fill="#313131" stroke="#000000" stroke-width="1.5" stroke-linecap="butt"/><path d="M269.85707,235.40217v-5.6h13.6v5.6z" fill="#313131" stroke="#000000" stroke-width="1.5" stroke-linecap="butt"/><path d="M244.95708,169.91193c0,0.60751 -0.44772,1.1 -1,1.1c-0.55228,0 -1,-0.49249 -1,-1.1c0,-0.60751 0.44772,-1.1 1,-1.1c0.55228,0 1,0.49249 1,1.1z" fill="#000000" stroke="none" stroke-width="0" stroke-linecap="butt"/><path d="M244.81423,173.48336c0,0.60751 -0.44772,1.1 -1,1.1c-0.55228,0 -1,-0.49249 -1,-1.1c0,-0.60751 0.44772,-1.1 1,-1.1c0.55228,0 1,0.49249 1,1.1z" fill="#000000" stroke="none" stroke-width="0" stroke-linecap="butt"/><path d="M244.7428,176.69764c0,0.60751 -0.44772,1.1 -1,1.1c-0.55228,0 -1,-0.49249 -1,-1.1c0,-0.60751 0.44772,-1.1 1,-1.1c0.55228,0 1,0.49249 1,1.1z" fill="#000000" stroke="none" stroke-width="0" stroke-linecap="butt"/><path d="M199.65503,223.80893l13.39057,0.05008l-0.5227,10.39405l-13.39057,-0.05008z" fill-opacity="0.51613" fill="#4b2525" stroke="#000000" stroke-width="0" stroke-linecap="butt"/><path d="M206.98893,200.31324c1.32761,1.28777 2.37051,3.09459 2.33687,5.02136c-0.03901,2.23397 -1.61991,2.41711 -1.34235,4.21034c0.25714,1.66132 2.11279,2.4679 1.6513,4.40016c-0.55192,2.31087 -3.35833,2.03912 -3.3086,4.41924c0.04327,2.07078 1.58856,3.22848 1.66667,5.33333c-0.05362,2.59863 -3.63219,6.73486 -6.68593,4.31859c-1.53494,-1.21451 -0.83013,-5.07489 -0.44341,-6.62176c1.32587,-5.30348 -0.27897,-10.99114 0.6336,-16.4666c0.01118,-3.0278 0.55083,-6.16495 3.91241,-6.48023l1.21722,0.69945c0,0 0.52269,0.52269 0.36223,1.16612z" fill-opacity="0.51613" fill="#4b2525" stroke="none" stroke-width="0.5" stroke-linecap="butt"/><path d="M201.40945,247.88892v-12.83333h9.66667v12.83333z" fill="url(#color-4)" stroke="#000000" stroke-width="0" stroke-linecap="butt"/><g stroke="none" stroke-linecap="butt"><path d="M260.22051,150.38922c0,0 -0.139,17.29097 -19.71217,17.02883c-4.85855,-0.06507 -9.12518,-1.0865 -12.17144,-3.23408c-7.58133,-5.34477 -8.36639,-15.65245 -8.36639,-15.65245c0,0 8.79329,0.624 14.86417,-0.46892c2.49169,-0.44858 6.43342,-0.43873 6.43342,-0.43873c0,0 4.63685,0.63886 8.60759,1.5457c7.24294,1.65412 10.34483,1.21965 10.34483,1.21965z" fill="#000000" stroke-width="0"/><path d="M246.81811,149.04759c1.27877,0.32683 -0.61242,0.79856 -4.76322,0.79856c-4.36041,-0.08168 -5.94076,-0.47175 -4.4104,-0.79859c2.89295,-0.6741 6.74187,-0.67408 9.17362,0.00003z" data-paper-data="{&quot;noHover&quot;:false,&quot;origItem&quot;:[&quot;Path&quot;,{&quot;applyMatrix&quot;:true,&quot;segments&quot;:[[[497.32625,398.73924],[1.07812,-0.25122],[-0.57032,0.1218]],[[498.88093,398.93716],[-1.625,-0.03044],[1.54688,0]],[[500.54499,398.73924],[0.47656,0.1218],[-0.90624,-0.25122]]],&quot;closed&quot;:true,&quot;fillColor&quot;:[0,0,0]}]}" fill="#868686" stroke-width="0.5"/><path d="M245.22096,153.88462c2.80913,-0.28593 2.81302,-0.23442 1.28266,0.78691c-2.05446,1.26648 -6.36398,1.33842 -9.17311,0.13323c-1.21587,-0.53114 -2.21863,-1.20651 -2.21863,-1.32908c0,-0.14302 1.53776,-0.03118 3.38255,0.23437c1.7819,0.26554 5.13332,0.35843 6.72652,0.17458z" data-paper-data="{&quot;noHover&quot;:false,&quot;origItem&quot;:[&quot;Path&quot;,{&quot;applyMatrix&quot;:true,&quot;segments&quot;:[[[497.63875,400.50534],[0.66406,0.09896],[-0.6875,-0.09896]],[[496.38093,400.40638],[0,-0.0533],[0,0.04568]],[[497.20905,400.87836],[-0.45312,-0.19794],[1.04688,0.44914]],[[500.42781,400.83268],[-0.76564,0.47198],[0.57032,-0.38062]],[[499.95125,400.55862],[1.04688,-0.10656],[-0.59374,0.06852]]],&quot;closed&quot;:true,&quot;fillColor&quot;:[0,0,0]}]}" fill="#868686" stroke-width="0.5"/><path d="M224.25324,149.79234c1.15303,0.26555 5.0389,2.22097 8.09956,4.16155c4.73775,3.02315 5.56698,3.41076 8.81633,3.61502c1.48771,0.07372 5.03935,2.04966 6.76288,2.30088c1.2088,0.17619 0.67152,-1.25816 1.52874,-1.51934c0.96896,-0.29523 -0.17128,-2.96525 1.25617,-2.81656c0.68122,-0.47888 0.87939,1.23103 1.56016,0.68395c0.69832,-0.56119 1.97975,-1.35114 2.04728,-2.68044c0.01225,-0.24115 -1.93043,0.38813 -1.80792,0.23923c1.38014,-1.67748 4.80458,-3.5052 5.20241,-3.5052c1.34166,0 1.41398,0.23007 0.91086,1.70081c-2.18021,5.88299 -5.0883,10.20032 -8.54728,12.05917c-2.28502,1.28687 -3.77094,1.58568 -9.01181,1.5244c-3.96211,-0.06128 -7.26798,-0.63327 -8.98697,-1.30737c-4.0879,-1.73628 -7.37882,-6.46635 -9.43323,-13.22771c-0.44028,-1.53202 -0.36778,-1.63699 1.60281,-1.22843z" data-paper-data="{&quot;noHover&quot;:false,&quot;origItem&quot;:[&quot;Path&quot;,{&quot;applyMatrix&quot;:true,&quot;segments&quot;:[[[492.32625,399.05896],[0,0],[-0.73438,-0.15226]],[[491.73251,399.5081],[-0.16408,-0.57094],[0.76562,2.51976]],[[495.23251,404.34206],[-1.52344,-0.64706],[0.64062,0.25122]],[[498.49813,404.7912],[-1.47656,-0.02284],[1.95312,0.02284]],[[501.77937,404.26594],[-0.85156,0.47958],[1.28906,-0.69274]],[[504.95125,399.85828],[-0.8125,2.19242],[0.1875,-0.5481]],[[504.61531,399.23406],[0.5,0],[-0.30468,0]],[[502.06843,400.62716],[1.09376,-0.76888],[-1.95312,1.34742]],[[498.63875,401.9289],[1.3828,0.06852],[-1.21094,-0.07612]],[[495.16219,400.5282],[1.76562,1.12664],[-1.14062,-0.7232]],[[492.32625,399.05898],[0.4297,0.09896],[0,0]]],&quot;closed&quot;:true,&quot;fillColor&quot;:[0,0,0]}]}" fill="url(#color-5)" stroke-width="0.5"/></g><path d="M201.60948,260.88892v-15h9.5v15z" fill="url(#color-6)" stroke="none" stroke-width="0" stroke-linecap="butt"/><path d="M208.66865,137.2559v-49.75h34.5c0,0 7.31398,2.71515 7.65464,6.05481c0.40392,3.95988 11.68806,6.5358 -2.15464,13.77853c-4.22083,5.44437 -2.69078,8.22299 -2.92016,14.76594c-0.03902,1.11299 0.11362,3.1615 0.05618,4.22774c-0.06008,1.11543 -3.08034,1.87692 -3.15532,2.99501c-0.12718,1.89673 1.3882,3.86855 0.48468,5.07879c-1.68871,2.26198 0.03461,2.84918 0.03461,2.84918c0,0 -2.18574,0.46553 -2.27858,2.98872c-0.01711,0.46505 -3.61016,1.93643 -2.35617,2.93146c1.56686,1.24329 6.80715,2.67962 6.22474,3.75754c-1.09542,2.0274 -2.40906,1.93326 -3.04067,4.89731c-0.39601,1.85843 1.60772,3.68144 1.79634,5.40189c0.26378,2.40605 2.65909,4.36152 2.56867,6.18284c-0.09413,1.89611 -2.69374,3.62586 -3.43112,4.48208c-0.4742,0.55062 -4.7578,-1.14183 -5.35823,-1.14183c-3.60788,0 -14.83891,-10.69476 -22.18855,-18.89879c-4.40588,-4.91807 -6.43644,-10.60121 -6.43644,-10.60121z" fill="#000000" stroke="none" stroke-width="0" stroke-linecap="butt"/><path d="M217.54365,127.31411l0.18466,-6.00559l0.9233,-8.10754l1.47727,-5.40503l2.03125,-3.60335l2.58523,-3.00279l1.84659,-0.60056l2.21591,0.90084l2.21591,3.30307l1.66193,4.65433l0.9233,5.10475l0.18466,5.40503l-0.36932,7.50698" fill="none" stroke="#ffffff" stroke-width="1.5" stroke-linecap="round"/><path d="M227.04365,115.33924c0,0.48325 -0.39175,0.875 -0.875,0.875c-0.48325,0 -0.875,-0.39175 -0.875,-0.875c0,-0.48325 0.39175,-0.875 0.875,-0.875c0.48325,0 0.875,0.39175 0.875,0.875z" fill="#ff0000" stroke="none" stroke-width="0" stroke-linecap="butt"/><path d="M232.69076,164.06244c-0.55902,1.11803 -1.67705,0.55902 -1.67705,0.55902l-1.21227,-0.60613c-3.05318,-1.53975 -4.79069,-4.19075 -6.05677,-7.32126c0,0 -0.46424,-1.1606 0.69636,-1.62483c1.1606,-0.46424 1.62483,0.69636 1.62483,0.69636c1.00358,2.54186 2.37594,4.78739 4.85362,6.01367l1.21227,0.60613c0,0 1.11803,0.55902 0.55902,1.67705z" fill="#000000" stroke="none" stroke-width="0.5" stroke-linecap="butt"/></g></g></svg>