<svg version="1.1" xmlns="http://www.w3.org/2000/svg" xmlns:xlink="http://www.w3.org/1999/xlink" width="995.75" height="603.75" viewBox="0,0,995.75,603.75"><g transform="translate(243.5,153)"><g data-paper-data="{&quot;isPaintingLayer&quot;:true}" fill-rule="nonzero" stroke-linejoin="miter" stroke-miterlimit="10" stroke-dasharray="" stroke-dashoffset="0" style="mix-blend-mode: normal"><path d="M-243.5,123v-276h453v276z" fill="#d8d8d8" stroke="none" stroke-width="0" stroke-linecap="butt"/><path d="M-66.5,318v-276h613v276z" fill="#d8d8d8" stroke="none" stroke-width="0" stroke-linecap="butt"/><path d="M-66.5,409v-458h613v458z" fill="#d8d8d8" stroke="none" stroke-width="0" stroke-linecap="butt"/><path d="M-113,298l708,-4" fill="none" stroke="#000000" stroke-width="0.5" stroke-linecap="round"/><path d="M-188,450.5v-157h940v157z" fill="#9f9f9f" stroke="#000000" stroke-width="0.5" stroke-linecap="butt"/><g fill="none" stroke="#000000" stroke-width="0.5" stroke-linecap="butt"><path d="M383,399.5v-275h238v275z"/><path d="M384,258.5v-275h238v275z"/></g><g fill="none" stroke="#000000" stroke-width="0.5" stroke-linecap="butt"><path d="M-87,419.5v-275h238v275z"/><path d="M-86,278.5v-275h238v275z"/></g><g fill="none" stroke="#000000" stroke-width="0.5" stroke-linecap="butt"><path d="M149,399.5v-275h238v275z"/><path d="M150,258.5v-275h238v275z"/></g><path d="M-188,450.5v-157h940v157z" fill="#9f9f9f" stroke="#000000" stroke-width="0.5" stroke-linecap="butt"/><path d="M276,334v-105h70v105z" fill="#000000" stroke="none" stroke-width="0" stroke-linecap="butt"/><text transform="translate(187,63) scale(0.5,0.5)" font-size="40" xml:space="preserve" fill="#000000" fill-rule="nonzero" stroke="none" stroke-width="1" stroke-linecap="butt" stroke-linejoin="miter" stroke-miterlimit="10" stroke-dasharray="" stroke-dashoffset="0" font-family="Pixel" font-weight="normal" text-anchor="start" style="mix-blend-mode: normal"><tspan x="0" dy="0">Bananas restore</tspan><tspan x="0" dy="46.15px">your health to</tspan><tspan x="0" dy="46.15px">full</tspan></text></g></g></svg>