<svg version="1.1" xmlns="http://www.w3.org/2000/svg" xmlns:xlink="http://www.w3.org/1999/xlink" width="100.91447" height="262.23144" viewBox="0,0,100.91447,262.23144"><defs><linearGradient x1="237.86562" y1="43.55355" x2="240.14883" y2="155.11456" gradientUnits="userSpaceOnUse" id="color-1"><stop offset="0" stop-color="#ffffff"/><stop offset="1" stop-color="#d00000"/></linearGradient><linearGradient x1="240.29374" y1="69.57851" x2="241.75413" y2="140.93558" gradientUnits="userSpaceOnUse" id="color-2"><stop offset="0" stop-color="#ffffff"/><stop offset="1" stop-color="#cc0000"/></linearGradient><linearGradient x1="213.18601" y1="208.39833" x2="213.18601" y2="210.43774" gradientUnits="userSpaceOnUse" id="color-3"><stop offset="0" stop-color="#4f0000"/><stop offset="1" stop-color="#690000"/></linearGradient><linearGradient x1="240.58953" y1="145.59537" x2="240.58953" y2="303.69106" gradientUnits="userSpaceOnUse" id="color-4"><stop offset="0" stop-color="#000000"/><stop offset="1" stop-color="#4a0000"/></linearGradient><linearGradient x1="240.9023" y1="90.56225" x2="240.9023" y2="162.96759" gradientUnits="userSpaceOnUse" id="color-5"><stop offset="0" stop-color="#000000"/><stop offset="1" stop-color="#bb0000"/></linearGradient></defs><g transform="translate(-188.73293,-42.46113)"><g data-paper-data="{&quot;isPaintingLayer&quot;:true}" fill-rule="nonzero" stroke-linejoin="miter" stroke-miterlimit="10" stroke-dasharray="" stroke-dashoffset="0" style="mix-blend-mode: normal"><path d="M194.16735,99.3424c0,0 6.25943,-6.28553 6.37398,-7.1874c0.20211,-1.59138 -1.82612,-20.53775 9.19067,-33.18161c1.55321,-1.78261 4.08877,-5.40008 6.99569,-8.15224c2.93146,-2.77538 7.71701,-4.26452 7.71701,-4.26452l0.81093,3.03858l6.66075,-4.65031l0.83784,2.23149c0,0 2.19812,-2.55158 3.67476,-3.09258c1.82806,-0.66974 6.46609,-0.62273 6.46609,-0.62273c0,0 1.26119,2.91224 3.50169,3.60392c4.86957,1.50333 8.17153,-0.68673 11.34466,0.44701c7.00266,2.502 11.60969,9.36709 14.8081,13.97772c7.71235,11.11766 6.70911,25.53441 8.29507,29.59686c3.77344,9.6656 6.74821,17.9337 6.74821,17.9337l-4.29325,-3.16457c0,0 3.02692,10.23804 1.40251,21.02215c-0.60721,4.23359 -3.15468,6.8638 -2.84453,9.63428c0.57776,5.16099 5.21611,6.77635 5.21611,6.77635c0,0 -3.36111,2.92016 -6.58537,3.41385c-2.36307,0.36183 -6.80213,-0.96674 -6.80213,-0.96674l3.00459,3.56185c0,0 -3.32873,0.4023 -5.06382,0.45726c-1.83032,0.05796 -5.64768,-0.11802 -5.64768,-0.11802c0,0 -1.47057,2.1153 -2.43383,2.95637c-0.9651,0.84271 -3.35126,2.09495 -3.35126,2.09495c0,0 1.24975,-3.22132 1.61151,-4.64647c0.21822,-0.85965 0.35549,-3.10259 0.35549,-3.10259c0,0 -1.61303,5.00335 -9.61676,7.1413c-2.78623,0.74425 -5.38062,-0.53441 -10.00708,-0.47522c-3.53528,0.0197 -7.28668,0.53395 -10.05383,0.54982c-4.22805,0.02423 -7.66108,0.25325 -9.89198,-0.18948c-3.28836,-0.65257 -4.15552,-2.32993 -4.15552,-2.32993c0,0 -3.52192,1.35195 -5.26032,1.57874c-1.69715,0.22141 -6.08831,-0.36007 -6.08831,-0.36007c0,0 2.31181,-1.47527 3.32459,-2.13657c0.85956,-0.56126 2.05069,-2.08454 2.05069,-2.08454c0,0 -3.9018,-2.54012 -5.45674,-4.16663c-1.72914,-1.80873 -4.90119,-6.48452 -4.90119,-6.48452l-3.35904,-0.0817l2.56364,-5.75071l-2.92694,-0.28013c0,0 1.38206,-1.57365 2.25631,-2.73585c1.05784,-1.40622 2.03576,-4.18504 2.03576,-4.18504c0,0 -0.77315,1.09902 -4.25419,2.0824c-4.36193,1.23224 -7.18953,0.5117 -7.18953,0.5117c0,0 3.68016,-2.90123 5.68372,-5.07647c1.78462,-1.93753 2.67014,-3.56547 2.67014,-3.56547c0,0 -2.16045,1.17289 -4.35085,1.7735c-2.28544,0.62669 -4.16395,0.64021 -4.16395,0.64021c0,0 5.04706,-5.34072 7.05288,-11.44757c0.48318,-1.47109 -0.04691,-2.92708 -0.04691,-2.92708l-3.10998,0.35224c0,0 2.09811,-3.09402 2.81639,-4.5712c0.54087,-1.11236 1.54296,-4.26327 1.54296,-4.26327c0,0 -0.65662,0.70135 -2.69317,0.88339c-1.29091,0.1154 -2.46454,0.00164 -2.46454,0.00164z" fill="#000000" stroke="url(#color-1)" stroke-width="2" stroke-linecap="butt"/><path d="M212.7588,101.85914c-0.73197,-7.56148 -0.02966,-17.82143 -0.02966,-17.82143c0,0 3.40897,-0.11538 13.84444,-3.56122c8.01718,-2.64732 20.3412,-10.2893 20.3412,-10.2893c0,0 -2.09572,3.16657 -3.31227,4.70421c-1.29334,1.63469 -3.89507,4.82343 -3.89507,4.82343c0,0 7.80085,-1.89851 14.57105,-5.22343c8.49136,-3.85405 10.46157,-6.51129 12.84999,-5.04489c2.81892,1.73071 1.52254,24.05248 1.32914,29.8308c-0.30105,5.89625 -2.33082,9.91898 -2.88353,13.06914c-0.37853,2.15751 1.40757,3.36917 -0.08007,6.83712c-0.42282,0.98568 -0.5609,3.00383 -0.7225,5.16947c-3.21062,0.06833 -6.42123,0.13665 -9.63185,0.20497c-3.49924,0.07446 -6.99848,0.14893 -10.49771,0.2234c-3.49924,0.07446 -6.99848,0.14893 -10.49771,0.2234c-3.49924,0.07446 -6.99848,0.14893 -10.49771,0.2234c-2.05032,0.04363 -4.10063,0.08726 -6.15094,0.13089c-0.82172,-5.47026 -1.50438,-7.48418 -1.93934,-12.72565c-0.33587,-4.04746 -2.39767,-6.64483 -2.79743,-10.77429z" fill="#000000" stroke="url(#color-2)" stroke-width="1.5" stroke-linecap="butt"/><path d="M215.26371,101.58608c-0.03107,-6.89699 5.73158,-12.74586 12.33832,-12.80379c6.60673,-0.05792 11.19956,5.70606 11.23063,12.60307c0.03107,6.89699 -4.85629,12.52383 -11.46304,12.58176c-6.60673,0.05792 -12.07484,-5.48403 -12.10591,-12.38104z" fill="#cccccc" stroke="#000000" stroke-width="1.4" stroke-linecap="butt"/><path d="M221.69849,101.35272c-0.02569,-3.20946 2.18992,-5.82108 4.94868,-5.83325c2.75878,-0.01218 5.01601,2.57974 5.0417,5.78919c0.02569,3.20946 -2.18991,5.82108 -4.94868,5.83324c-2.75878,0.01218 -5.01601,-2.57973 -5.0417,-5.78918z" fill="#000000" stroke="#000000" stroke-width="2.5" stroke-linecap="butt"/><path d="M244.30848,100.68956c0.09959,-5.08052 4.2634,-9.29393 9.58008,-9.40707c5.31667,-0.11314 9.35681,3.92129 9.46079,9.00187c0.10398,5.08058 -3.69222,9.50262 -9.50324,9.69988c-5.52733,0.18764 -9.64164,-3.98884 -9.53763,-9.29468z" fill="#de9999" stroke="#000000" stroke-width="1.4" stroke-linecap="butt"/><path d="M250.49385,95.15904c-0.03458,-1.68989 1.25627,-3.08788 2.88322,-3.1225c1.62695,-0.03462 2.97388,1.30723 3.00846,2.99712c0.03458,1.68989 -1.25627,3.08788 -2.88322,3.1225c-1.62695,0.03462 -2.97388,-1.30723 -3.00847,-2.99712z" fill="#000000" stroke="#000000" stroke-width="0.5" stroke-linecap="butt"/><path d="M250.92454,95.33552c-0.22593,-0.11134 -0.11891,-0.34593 -0.11891,-0.34593l0.19322,-0.3924c0.2903,-0.17047 0.49201,-0.38277 0.71829,-0.53808c-0.3878,-0.2345 -0.68527,-0.59758 -0.97352,-1.43616c0,0 -0.08409,-0.24461 0.15135,-0.33176c0.23544,-0.08714 0.31952,0.15746 0.31952,0.15746c0.52412,1.52481 0.90908,1.24576 2.38383,1.88417l0.22359,0.20428c0,0 0.1805,0.17981 0.00751,0.36715c-0.17299,0.18734 -0.35347,0.00753 -0.35347,0.00753l-0.09168,-0.10978c-0.40049,-0.213 -0.73867,-0.34012 -1.03139,-0.45342c-0.05325,0.02275 -0.10089,0.02377 -0.10089,0.02377c-0.19772,-0.03886 -0.58961,0.43803 -0.89213,0.58448l-0.10235,0.25546c0,0 -0.10702,0.23459 -0.33296,0.12324z" fill="#ff0000" stroke="none" stroke-width="0.5" stroke-linecap="butt"/><path d="M257.70124,95.46343c-0.17298,0.18734 -0.35348,0.00753 -0.35348,0.00753l-0.15762,-0.15703c-0.67037,-0.6918 -1.84961,-0.28909 -1.15965,-1.55826c0.69653,-1.28126 1.48951,0.55133 1.94876,0.17453c0.13864,-0.11375 0.01692,-0.92404 0.01408,-1.06249c0,0 -0.00531,-0.25962 0.24463,-0.26493c0.24995,-0.00532 0.25526,0.25429 0.25526,0.25429c0.05059,2.47169 -0.79744,0.83051 -1.98845,0.92383c-0.14365,0.01125 -0.21706,0.35501 -0.26711,0.53055c0.26833,0.01206 1.22002,0.55178 1.29844,0.6278l0.15762,0.15703c0,0 0.1805,0.17982 0.00752,0.36715z" fill="#ff0000" stroke="none" stroke-width="0.5" stroke-linecap="butt"/><path d="M259.59824,98.70695c-0.24995,0.00532 -0.25526,-0.2543 -0.25526,-0.2543l0.12685,-0.55579c0.66237,-0.36194 -0.66491,-3.44635 1.71783,-2.44241c0,0 0.22594,0.11134 0.11891,0.34594c-0.10703,0.23459 -0.33296,0.12324 -0.33296,0.12324c-1.48199,-0.95555 -0.52682,2.0264 -1.27071,2.43289l0.13998,0.0855c0,0 0.00531,0.25962 -0.24464,0.26493z" fill="#ff0000" stroke="none" stroke-width="0.5" stroke-linecap="butt"/><path d="M259.4447,103.42258c-0.00531,-0.25962 0.24463,-0.26493 0.24463,-0.26493l0.15435,-0.00328c1.05404,-0.02243 1.00245,-0.9401 0.9552,-1.8866c-0.03162,-0.03099 -0.06221,-0.06241 -0.09165,-0.09426c-0.61082,-0.66081 0.87361,-2.68995 -1.13243,-1.53114l-0.08711,0.11359c0,0 -0.17298,0.18734 -0.35347,0.00752c-0.1805,-0.17981 -0.00752,-0.36715 -0.00752,-0.36715l0.21504,-0.21362c0.28128,-0.14756 1.81231,-0.31919 2.02419,0.05269c0.22108,0.38804 -0.47042,0.92163 -0.41064,1.33708c0.02094,-0.00559 0.04441,-0.00895 0.07069,-0.00951c0.24995,-0.00532 0.25525,0.25429 0.25525,0.25429c0.00157,0.07647 0.00359,0.15333 0.00574,0.23029c0.49901,0.44374 1.41531,0.88974 1.76354,1.11985c0,0 0.21091,0.13959 0.07669,0.35855c-0.13423,0.21896 -0.34514,0.07938 -0.34514,0.07938c-0.44455,-0.29467 -1.004,-0.5885 -1.48227,-0.92747c0.00126,1.04961 -0.16358,1.96846 -1.44548,1.99574l-0.15434,0.00329c0,0 -0.24995,0.00532 -0.25526,-0.2543z" fill="#ff0000" stroke="none" stroke-width="0.5" stroke-linecap="butt"/><path d="M258.9471,104.61695c0.24995,-0.00532 0.25526,0.2543 0.25526,0.2543l-0.01745,0.43731c-0.39571,0.84888 -1.01995,1.68854 -1.00065,2.63177c0,0 0.00532,0.25962 -0.24463,0.26493c-0.24995,0.00532 -0.25526,-0.2543 -0.25526,-0.2543c-0.03278,-1.60177 0.52686,-1.68936 1.04868,-2.8651l-0.03057,-0.20398c0,0 -0.00531,-0.25962 0.24463,-0.26493z" fill="#ff0000" stroke="none" stroke-width="0.5" stroke-linecap="butt"/><path d="M247.9293,107.42853c-0.22593,-0.11134 -0.11891,-0.34593 -0.11891,-0.34593l0.16785,-0.36007c0.6207,-0.63608 1.30361,-0.93061 2.24826,-0.95072c0.86909,0.4101 0.78937,1.05688 1.51153,1.61381c0.44866,0.346 1.25071,-0.0403 1.76588,0.08073c0.83982,0.1973 1.18949,1.05463 1.93649,1.42278c0,0 0.22594,0.11134 0.1189,0.34594c-0.10702,0.23459 -0.33296,0.12323 -0.33296,0.12323c-0.70262,-0.34627 -1.09876,-1.20917 -1.82694,-1.38415c-0.6501,-0.15621 -1.33721,0.28273 -1.94505,-0.16107c-0.6601,-0.48196 -0.68437,-1.19476 -1.33237,-1.53347c-0.65387,0.01391 -1.34063,0.26688 -1.73199,0.73789l-0.12773,0.28779c0,0 -0.10702,0.23458 -0.33296,0.12323z" fill="#ff0000" stroke="none" stroke-width="0.5" stroke-linecap="butt"/><path d="M249.44455,104.71389c-0.10702,0.23459 -0.33296,0.12324 -0.33296,0.12324l-0.31789,-0.15677c-0.16349,-0.099 -0.36414,-0.12001 -0.55716,-0.11842c-0.00048,0.02026 -0.0014,0.04078 -0.00276,0.06156c-0.06113,0.93259 -1.17659,0.76594 -1.77828,0.77874c0,0 -0.24994,0.00532 -0.25526,-0.2543c-0.00531,-0.25962 0.24464,-0.26493 0.24464,-0.26493c0.12466,-0.00265 1.36549,0.09843 1.28901,-0.24887c-0.24824,-1.12728 -0.85743,-1.8012 0.39617,-2.48621l0.30542,-0.16689c0,0 0.22118,-0.12086 0.33771,0.10897c0.11653,0.22984 -0.10465,0.35069 -0.10465,0.35069l-0.30541,0.16689c-0.88137,0.48162 -0.41182,0.81162 -0.20636,1.43762c0.29375,0.00041 0.60229,0.03333 0.86283,0.17201l0.30606,0.15074c0,0 0.22593,0.11134 0.1189,0.34593z" fill="#ff0000" stroke="none" stroke-width="0.5" stroke-linecap="butt"/><path d="M248.76121,96.24872c0.1805,0.17981 0.00751,0.36716 0.00751,0.36716l-0.21504,0.21361c-0.44852,0.23529 -1.35428,0.20507 -1.72007,0.53816c-0.28596,0.26039 0.0683,0.70109 0.25488,1.12494c0.21619,-0.12291 0.51189,-0.20188 0.91967,-0.21885l-0.02411,-0.0838c0,0 0.17298,-0.18734 0.35347,-0.00752c0.1805,0.17981 0.00751,0.36715 0.00751,0.36715l-0.32625,0.24341c-1.88646,-0.01646 -0.6296,1.77831 -1.11998,2.78767c-0.30709,0.63207 -1.5406,0.47675 -2.05572,0.48771c0,0 -0.24994,0.00532 -0.25526,-0.2543c-0.00531,-0.25962 0.24463,-0.26493 0.24463,-0.26493c2.132,-0.04537 1.32507,-1.72232 1.85756,-2.65989c-0.00032,-0.00445 -0.00037,-0.00692 -0.00037,-0.00692c-0.00349,-0.17055 -0.33873,-1.66498 -0.32708,-1.68924c0.27579,-0.57417 1.49885,-0.55797 1.95804,-0.82323l0.0871,-0.11359c0,0 0.17298,-0.18735 0.35347,-0.00753z" fill="#ff0000" stroke="none" stroke-width="0.5" stroke-linecap="butt"/><path d="M247.95288,93.49065c0.22118,-0.12086 0.33772,0.10896 0.33772,0.10896l0.1394,0.2821c0.07226,0.07082 0.14452,0.14166 0.21678,0.21248c0.21194,-0.05578 0.28861,0.16728 0.28861,0.16728c0.14711,0.50375 0.37104,0.45293 0.62282,0.91507l0.03205,0.27587c0,0 0.00531,0.25961 -0.24463,0.26493c-0.24994,0.00532 -0.25526,-0.25429 -0.25526,-0.25429l0.02548,-0.04478c-0.19026,-0.42349 -0.37602,-0.39823 -0.57364,-0.80159c-0.09711,-0.00524 -0.16958,-0.07744 -0.16958,-0.07744c-0.11398,-0.11509 -0.22796,-0.2302 -0.34194,-0.34529l-0.18243,-0.35261c0,0 -0.11653,-0.22983 0.10465,-0.35069z" fill="#ff0000" stroke="none" stroke-width="0.5" stroke-linecap="butt"/><path d="M269.20619,194.87912l-3.87833,0.81822" fill="none" stroke="#ffffff" stroke-width="2" stroke-linecap="round"/><path d="M215.12518,209.00894l-3.87834,0.81822" fill="none" stroke="url(#color-3)" stroke-width="2" stroke-linecap="round"/><path d="M201.03044,303.5822c0,0 -0.15565,-23.57834 -0.33203,-50.31591c-0.03839,-5.81983 3.15139,-11.78933 3.11243,-17.69793c-0.03504,-5.31365 -3.29891,-10.57804 -3.33227,-15.64004c-0.0061,-0.92494 -0.01215,-1.84314 -0.01815,-2.75363c-0.01038,-1.57511 0.89223,-3.87184 0.88218,-5.39608c-0.00874,-1.32565 -0.93017,-1.88556 -0.9386,-3.16588c-0.0714,-10.83684 -0.13128,-19.9361 -0.1669,-25.36807c-0.02066,-3.15123 1.15068,-9.29964 4.35706,-15.7291c0.95329,-1.91155 4.19466,-1.78996 5.62486,-3.67982c1.59924,-2.11323 1.43916,-6.22625 3.46841,-8.1233c6.15479,-5.75379 14.51482,-10.05416 26.75168,-10.11645c18.20854,-0.09268 28.66603,9.90344 34.25804,19.83851c1.20115,2.13403 -1.85863,3.85364 -1.07785,5.88144c0.74618,1.93795 3.52423,2.8899 3.93755,4.55116c0.25116,1.0095 -1.56276,2.88253 -1.41969,3.73772c0.21879,1.30781 2.32598,3.52917 2.32511,4.35963c-0.00374,2.30074 -3.42725,5.15353 -3.42733,7.56657c-0.00009,3.2119 5.25028,5.27828 5.25594,8.64157c0.07727,45.89632 0.65135,103.35871 0.65135,103.35871l-10.49667,0.09803l-0.15882,-117.1062c0,0 0.07549,-3.16037 -2.81625,-3.21631c-3.43441,-0.06642 -2.94538,3.17702 -2.94538,3.17702l0.20548,117.13357l-48.21366,0.07364l-0.30539,-117.50387c0,0 0.27949,-2.97652 -2.8856,-2.99226c-3.11083,-0.01545 -2.81569,2.96631 -2.81569,2.96631l0.35311,117.3343z" fill="url(#color-4)" stroke="#ffffff" stroke-width="2" stroke-linecap="butt"/><path d="M263.77267,150.67336c-1.12121,6.5122 -4.16183,1.55875 -10.01942,7.60304c-5.85759,6.0443 -10.40748,4.04411 -14.36729,4.1168c-3.81077,0.06996 -7.58195,2.47116 -12.58172,-3.09484c-5.32393,-5.9269 -8.87489,-4.65325 -9.71551,-11.67378c-0.01835,-0.15322 -0.03666,-0.3039 -0.05493,-0.45214c2.02874,0 4.05749,0 6.08623,0c3.5,0 7,0 10.5,0c3.5,0 7,0 10.5,0c3.5,0 7,0 10.5,0c3.19469,0 6.38937,0 9.58406,0c-0.11424,1.19181 -0.2429,2.40598 -0.43142,3.50092z" fill="#000000" stroke="url(#color-5)" stroke-width="1.5" stroke-linecap="butt"/><path d="M277.61598,192.315c0,0 -19.65277,16.77275 -31.69064,23.67748c-13.60347,7.80274 -45.07881,20.40283 -45.07881,20.40283" fill="none" stroke="#ffffff" stroke-width="2" stroke-linecap="round"/><path d="M277.13533,171.3627c0,0 -27.94455,2.40301 -40.39151,1.09001c-10.69884,-1.12858 -29.84262,-8.49878 -29.84262,-8.49878" fill="none" stroke="#ffffff" stroke-width="2" stroke-linecap="round"/><path d="M279.14716,179.54167c0,0 -22.20871,8.20915 -34.24658,15.11389c-13.60347,7.80274 -45.80908,17.98269 -45.80908,17.98269" fill="none" stroke="#ffffff" stroke-width="2" stroke-linecap="round"/></g></g></svg>