<svg version="1.1" xmlns="http://www.w3.org/2000/svg" xmlns:xlink="http://www.w3.org/1999/xlink" width="35.67311" height="35.67311" viewBox="0,0,35.67311,35.67311"><g transform="translate(-222.16345,-162.16344)"><g data-paper-data="{&quot;isPaintingLayer&quot;:true}" stroke-miterlimit="10" stroke-dasharray="" stroke-dashoffset="0" style="mix-blend-mode: normal"><path d="M229.98311,162.91345h20.03379c3.9166,0 7.06966,3.15307 7.06966,7.06966v20.03379c0,3.91659 -3.15306,7.06966 -7.06966,7.06966h-20.03379c-3.91659,0 -7.06966,-3.15307 -7.06966,-7.06966v-20.03379c0,-3.91659 3.15307,-7.06966 7.06966,-7.06966z" fill="#000000" fill-rule="evenodd" stroke="#ffffff" stroke-width="1.5" stroke-linecap="round" stroke-linejoin="round"/><g fill="#ffffff" fill-rule="nonzero" stroke="#000000" stroke-linecap="butt" stroke-linejoin="miter"><path d="M227.58784,181.17847l-2.51846,-5.58328l24.38412,-10.99898l2.51846,5.58328z" stroke-width="0"/><path d="M231.83784,190.05347l-2.51846,-5.58328l24.38412,-10.99898l2.51846,5.58328z" stroke-width="0"/><path d="M227.08784,184.05347l-2.51846,-5.58328l24.38412,-10.99898l2.51846,5.58328z" stroke-width="1.5"/><path d="M231.04652,192.4038l-2.51846,-5.58328l24.38412,-10.99898l2.51846,5.58328z" stroke-width="1.5"/></g></g></g></svg>