<svg version="1.1" xmlns="http://www.w3.org/2000/svg" xmlns:xlink="http://www.w3.org/1999/xlink" width="109.47301" height="257.39772" viewBox="0,0,109.47301,257.39772"><defs><linearGradient x1="245.78663" y1="41.57075" x2="245.78663" y2="83.86819" gradientUnits="userSpaceOnUse" id="color-1"><stop offset="0" stop-color="#525656"/><stop offset="1" stop-color="#000000"/></linearGradient><linearGradient x1="242.30407" y1="82.00382" x2="242.30407" y2="155.96866" gradientUnits="userSpaceOnUse" id="color-2"><stop offset="0" stop-color="#f1feff"/><stop offset="1" stop-color="#f1feff" stop-opacity="0"/></linearGradient></defs><g transform="translate(-185.26348,-50.18097)"><g data-paper-data="{&quot;isPaintingLayer&quot;:true}" fill-rule="nonzero" stroke-linejoin="miter" stroke-miterlimit="10" stroke-dasharray="" stroke-dashoffset="0" style="mix-blend-mode: normal"><path d="M200.84702,306.46655c0,0 -0.6584,-97.80638 -0.82212,-122.29131c-0.05649,-8.44824 8.48375,-38.09431 41.6598,-38.25992c32.7483,-0.16347 41.30199,30.55629 41.29382,38.23466c-0.07937,47.91957 0.67802,122.26485 0.67802,122.26485l-10.8773,0.09963l-0.16458,-119.0075c0,0 0.07823,-3.21169 -2.91837,-3.26852c-3.55895,-0.0675 -3.05218,3.2286 -3.05218,3.2286l0.21293,119.03531l-49.96196,0.07484l-0.31646,-119.41162c0,0 0.28962,-3.02485 -2.99024,-3.04084c-3.22363,-0.0157 -2.91779,3.01447 -2.91779,3.01447l0.36591,119.2393z" fill="#4e4e4e" stroke="#000000" stroke-width="2" stroke-linecap="butt"/><path d="M257.42397,198.63547c-0.59184,0 -1.07161,-0.47978 -1.07161,-1.07161c0,-0.59184 0.47978,-1.07163 1.07161,-1.07163c0.59184,0 1.07161,0.47979 1.07161,1.07163c0,0.59184 -0.47978,1.07161 -1.07161,1.07161z" fill="#000000" stroke="none" stroke-width="1.5" stroke-linecap="butt"/><path d="M251.97336,203.02466c-4.62535,-0.32579 -6.79005,-1.85897 -6.39358,-2.67367c0.12215,-0.25102 2.94967,1.10212 7.22314,1.35211c6.64137,0.38853 8.81893,-0.65464 8.81893,-0.65464v1.39497c0,0 -2.50102,1.08468 -9.64849,0.58123z" fill="#000000" stroke="#000000" stroke-width="0" stroke-linecap="butt"/><path d="M223.15208,197.56386c0,-0.59184 0.47978,-1.07163 1.07161,-1.07163c0.59184,0 1.07163,0.47979 1.07163,1.07163c0,0.59184 -0.47979,1.07161 -1.07163,1.07161c-0.59184,0 -1.07161,-0.47978 -1.07161,-1.07161z" fill="#000000" stroke="none" stroke-width="1.5" stroke-linecap="butt"/><path d="M229.6743,203.02466c-7.14747,0.50347 -9.64849,-0.58123 -9.64849,-0.58123v-1.39497c0,0 2.17756,1.04316 8.81893,0.65464c4.27347,-0.25001 7.10099,-1.60314 7.22315,-1.35211c0.39647,0.81469 -1.76821,2.34787 -6.39358,2.67367z" fill="#000000" stroke="#000000" stroke-width="0" stroke-linecap="butt"/><path d="M241.3638,261.627c-0.84865,0 -1.53661,-0.68796 -1.53661,-1.53661c0,-0.84865 0.68796,-1.53661 1.53661,-1.53661c0.84865,0 1.53661,0.68796 1.53661,1.53661c0,0.84865 -0.68796,1.53661 -1.53661,1.53661z" data-paper-data="{&quot;index&quot;:null}" fill="#000000" stroke="none" stroke-width="1.5" stroke-linecap="butt"/><path d="M216.42797,262.96346v-79.35633c0,0 -5.06104,22.39224 -5.06104,17.30594c0,-2.2614 -6.8348,2.05126 -12.53482,0.40331c-6.04862,-1.74872 -10.98316,-9.39065 -10.98316,-9.39065c0,0 -4.35712,-17.95524 1.37473,-31.3177c1.76896,-4.12393 0.90758,-9.61949 4.92298,-12.08631c2.2058,-1.35511 9.5114,0.01782 11.04613,-1.2093c2.95657,-2.36397 15.68793,3.31861 16.05971,3.05699c2.0544,-1.44569 5.35951,-2.90538 5.35951,-2.90538c0,0 -0.62341,34.41868 15.08747,34.34578c15.99446,-0.07422 14.33309,-34.34578 14.33309,-34.34578c0,0 4.05464,1.57469 6.38943,3.0534c2.33479,1.47869 7.52426,-1.46023 7.52426,-1.46023c0,0 10.48484,-3.067 14.82459,2.05448c1.22271,1.44296 6.91676,5.72155 7.84931,7.65888c1.29164,2.68332 0.26156,23.24821 0.91471,26.25664c1.59883,7.36431 -6.83614,10.71558 -6.83614,12.51183c0,3.31847 -8.54566,4.29791 -13.89325,0.18187c-1.04201,-0.80204 -5.42305,0.09732 -6.42735,-2.50406c-1.63454,-4.2338 0.32053,-12.38566 0.32053,-12.38566l1.29904,83.37988z" fill="#2a2a2a" stroke="#000000" stroke-width="2" stroke-linecap="butt"/><path d="M266.67703,224.32997l-49.36376,0.64952" fill="none" stroke="#000000" stroke-width="1.5" stroke-linecap="round"/><path d="M267.32654,244.46519l-51.31232,-0.64952" fill="none" stroke="#000000" stroke-width="1.5" stroke-linecap="round"/><path d="M216.66375,201.59666l49.36376,1.29905" fill="none" stroke="#000000" stroke-width="1.5" stroke-linecap="round"/><path d="M216.01422,178.21383l-0.64952,-29.22854" fill="none" stroke="#000000" stroke-width="1.5" stroke-linecap="round"/><path d="M267.97608,192.50334l24.03236,-1.29905" fill="none" stroke="#000000" stroke-width="1.5" stroke-linecap="round"/><path d="M188.73426,191.85381l25.98092,1.94857" fill="none" stroke="#000000" stroke-width="1.5" stroke-linecap="round"/><path d="M240.69609,162.62527l1.29905,18.83617l-0.64952,81.19039l-23.38283,44.16757" fill="none" stroke="#000000" stroke-width="1.5" stroke-linecap="round"/><path d="M239.39706,264.6004l26.63045,40.27043" fill="none" stroke="#000000" stroke-width="1.5" stroke-linecap="round"/><text transform="translate(218.17407,191.17112) scale(0.11873,0.11873)" font-size="40" xml:space="preserve" fill="#ffffff" fill-rule="nonzero" stroke="none" stroke-width="1" stroke-linecap="butt" stroke-linejoin="miter" stroke-miterlimit="10" stroke-dasharray="" stroke-dashoffset="0" font-family="Sans Serif" font-weight="normal" text-anchor="start" style="mix-blend-mode: normal"><tspan x="0" dy="0">Donk</tspan><tspan x="0" dy="46.150000000000006px">Hardware</tspan></text><path d="M266.67703,174.96621v-23.38283" fill="none" stroke="#000000" stroke-width="1.5" stroke-linecap="round"/><path d="M198.72906,99.45103c0,0 6.05479,-5.81762 6.18086,-6.66812c0.33062,-2.23066 -0.16481,-39.46598 35.33459,-40.84197c43.85057,-0.89754 38.32809,34.72646 40.79979,41.4476c3.38908,9.2157 6.04826,17.09386 6.04826,17.09386c0,0 -2.71844,-2.01736 -4.00788,-3.0788c-1.20265,-0.98999 -3.73451,-3.09047 -3.73451,-3.09047c0,0 3.0367,10.16594 1.28784,20.33068c-1.5348,9.31408 -7.16935,16.9222 -7.16935,16.9222l-1.13488,-2.30603c0,0 -1.00466,2.15925 -2.12203,3.27407c-1.11738,1.11481 -3.3782,2.86146 -3.3782,2.86146l-0.09043,-3.639c0,0 -6.93582,10.824 -23.922,10.68016c-16.0192,-0.25097 -25.61256,-10.48728 -25.61256,-10.48728l-0.11415,2.60811c0,0 -3.82621,-3.2348 -6.07263,-9.53665c-2.67747,-7.51108 -3.18243,-12.02772 -3.18243,-12.02772c0,0 -2.2979,1.86573 -5.6164,2.72556c-4.15827,1.07742 -6.82436,0.33918 -6.82436,0.33918c0,0 3.54444,-2.66934 5.48566,-4.68592c1.72909,-1.79621 2.59999,-3.31777 2.59999,-3.31777c0,0 -2.07048,1.06561 -4.15826,1.58947c-2.17836,0.54661 -3.95914,0.52158 -3.95914,0.52158c0,0 4.88734,-4.94861 6.90697,-10.68286c1.90685,-5.41407 2.06276,-10.76442 2.06276,-10.76442c0,0 -1.33768,0.64998 -3.27151,0.78113c-1.2258,0.08314 -2.33599,-0.04804 -2.33599,-0.04804z" fill="#000000" stroke="none" stroke-width="1.5" stroke-linecap="butt"/><path d="M215.21946,110.57335c-0.56693,-7.16484 0.3291,-16.8525 0.3291,-16.8525c0,0 3.35055,-0.04051 13.66935,-3.08889c7.92755,-2.34197 20.1856,-9.32021 20.1856,-9.32021c0,0 -2.12203,2.95213 -3.34782,4.38164c-1.30316,1.51973 -3.92263,4.48265 -3.92263,4.48265c0,0 7.70002,-1.63825 14.41643,-4.64606c8.41754,-3.47351 10.40605,-5.94653 12.72245,-4.51185c2.73391,1.69328 1.01193,22.7746 0.70581,28.23468c-0.41421,5.56942 -2.48868,9.33246 -3.09485,12.30012c-0.60618,2.96766 -0.40239,6.02859 -2.16738,15.75734c-1.10147,6.07142 -4.08857,8.76755 -9.84304,14.40273c-5.75448,5.63518 -8.8944,9.08987 -12.7845,9.15763c-3.74369,0.06522 -8.77835,-5.01042 -13.69011,-10.19967c-5.23021,-5.52572 -8.71866,-8.3279 -9.54448,-14.87324c-0.74374,-5.89476 -0.76286,-9.7341 -1.1029,-14.97993c-0.24853,-3.83403 -2.22139,-6.33158 -2.53101,-10.24444z" fill="#ffffff" stroke="#000000" stroke-width="1.5" stroke-linecap="butt"/><path d="M259.40139,96.46849c0,0 1.52363,-0.13633 4.3174,-0.17172c2.5518,-0.03232 4.68033,0.36871 4.68033,0.36871l0.51762,1.04438c0,0 -7.7083,-0.87176 -14.91399,1.99443c-5.76148,2.29176 -8.56197,5.48883 -8.56197,5.48883l-1.14981,-3.93917c0,0 1.54754,-1.57402 4.39334,-2.97068c0.39337,0.56016 0.85921,1.2386 0.86767,1.24208c1.59836,0.65811 3.58324,-1.66895 3.88776,-2.85664c0.00886,-0.03453 0.01491,-0.07198 0.01842,-0.11204c3.30343,-0.90773 5.46854,-1.04736 5.46854,-1.04736z" data-paper-data="{&quot;index&quot;:null}" fill="#000000" stroke="none" stroke-width="1.5" stroke-linecap="butt"/><path d="M242.3652,139.48242c-1.01556,0 -3.47582,-4.00303 -3.72004,-6.06928c-0.21851,-1.84873 1.29197,-2.9606 3.72004,-2.9606c2.42808,0 4.52813,-0.11787 4.35905,3.5148c-0.1435,3.08294 -1.93098,5.5151 -4.35905,5.5151z" fill="#ffffff" stroke="#000000" stroke-width="1.15" stroke-linecap="butt"/><path d="M216.88922,120.51836c0,0 -4.84529,-3.45514 -6.05566,-8.81703c-1.27354,-5.64175 -1.43546,-9.56147 0.47168,-9.81604c1.90714,-0.25459 2.65562,2.33508 3.66691,8.2086c1.01128,5.87352 1.91708,10.42447 1.91708,10.42447z" data-paper-data="{&quot;index&quot;:null}" fill="#ffffff" stroke="#000000" stroke-width="1" stroke-linecap="butt"/><path d="M216.69016,116.64029c0,0 -3.50111,-2.87192 -4.24215,-8.30185c-0.41338,-3.02899 2.11878,-2.24002 2.11878,-2.24002" fill="none" stroke="#000000" stroke-width="0.25" stroke-linecap="round"/><path d="M219.65054,110.10156c0.06968,-4.80577 4.75317,-8.77878 10.03161,-8.70226c5.27844,0.07653 8.86833,4.17361 8.79866,8.97939c-0.06968,4.80577 -4.05093,8.63958 -9.32938,8.56306c-5.27844,-0.07653 -9.57058,-4.03441 -9.50089,-8.84018z" fill="#ffffff" stroke="#000000" stroke-width="1.4" stroke-linecap="butt"/><path d="M224.01007,110.21742c0.03929,-2.70987 2.26791,-4.87478 4.97776,-4.83549c2.70987,0.03929 4.87478,2.26791 4.83549,4.97776c-0.03929,2.70987 -2.2679,4.87478 -4.97776,4.83549c-2.70987,-0.03929 -4.87478,-2.26791 -4.83549,-4.97776z" fill="#000000" stroke="none" stroke-width="1.5" stroke-linecap="butt"/><path d="M246.23055,110.10228c0.19995,-4.80212 4.37426,-8.70253 9.59849,-8.70253c5.22422,0 9.11127,3.89625 9.11127,8.70253c0,4.80628 -3.81745,8.91136 -9.52889,8.98095c-5.43262,0.0662 -9.38967,-3.96586 -9.18086,-8.98095z" fill="#ffffff" stroke="#000000" stroke-width="1.4" stroke-linecap="butt"/><path d="M250.75225,110.18632c0,-2.76884 2.24458,-5.01341 5.01341,-5.01341c2.76884,0 5.01341,2.24458 5.01341,5.01341c0,2.76884 -2.24457,5.01341 -5.01341,5.01341c-2.76884,0 -5.01341,-2.24458 -5.01341,-5.01341z" fill="#000000" stroke="none" stroke-width="1.5" stroke-linecap="butt"/><path d="M259.09961,135.17884c-0.35656,0.33785 -0.69441,-0.01872 -0.69441,-0.01872l-0.13361,-0.141c-3.01248,-3.18172 -4.92216,-6.81405 -7.30766,-10.3923c0,0 -0.27247,-0.40871 0.13624,-0.68117c0.40871,-0.27247 0.68117,0.13624 0.68117,0.13624c2.35764,3.53647 4.22178,7.11705 7.20339,10.26155l0.13361,0.141c0,0 0.33785,0.35656 -0.01872,0.69441z" fill="#ff0000" stroke="none" stroke-width="0.5" stroke-linecap="butt"/><path d="M263.40867,133.94852c-0.35775,0.33658 -0.69434,-0.02117 -0.69434,-0.02117l-0.16112,-0.17126c-2.45908,-2.61562 -5.73059,-6.13212 -7.30959,-9.18207c0,0 -0.21967,-0.43934 0.21967,-0.65901c0.43934,-0.21967 0.65901,0.21967 0.65901,0.21967c0.70336,1.47269 2.02835,2.28534 3.00493,3.59357c1.34117,1.79663 2.59193,3.70887 4.14149,5.35467l0.16112,0.17126c0,0 0.33658,0.35775 -0.02117,0.69434z" fill="#ff0000" stroke="none" stroke-width="0.5" stroke-linecap="butt"/><path d="M254.62467,137.12919c-0.45963,0.17324 -0.63287,-0.28641 -0.63287,-0.28641l-0.03823,-0.48426c-1.78265,-0.87807 -1.24625,-1.91327 -2.36475,-3.07512c-1.53756,-1.59714 -2.54341,-4.09767 -2.55467,-6.46603c0,0 0,-0.4912 0.4912,-0.4912c0.4912,0 0.4912,0.4912 0.4912,0.4912c-0.01199,2.18548 0.97933,4.31363 2.29551,5.80117c1.09712,1.23996 0.41041,2.06932 2.06953,2.85572l0.52949,1.02206c0,0 0.17324,0.45963 -0.28641,0.63287z" fill="#ff0000" stroke="none" stroke-width="0.5" stroke-linecap="butt"/><path d="M236.95024,123.4c0.33858,0.35586 -0.01728,0.69445 -0.01728,0.69445l-0.12386,0.11785c-1.55955,1.48274 -3.56991,3.20413 -5.31889,4.37504c-0.66375,0.44437 -2.00854,0.43852 -2.56723,1.12434c-0.83738,1.02793 -1.50527,3.40335 -2.47693,4.25063c-0.51847,0.45211 -1.33361,0.37258 -1.94722,0.68353c0,0 -0.43934,0.21967 -0.65901,-0.21967c-0.21967,-0.43934 0.21967,-0.65901 0.21967,-0.65901c0.54598,-0.26981 1.28102,-0.15057 1.74313,-0.54721c0.8978,-0.7706 1.52564,-3.16721 2.36941,-4.14167c0.71283,-0.82324 1.97235,-0.76187 2.76832,-1.30505c1.70475,-1.16336 3.65966,-2.81406 5.19157,-4.27267l0.12386,-0.11785c0,0 0.35586,-0.33858 0.69445,0.01728z" fill="#ff0000" stroke="none" stroke-width="0.5" stroke-linecap="butt"/><path d="M223.11778,111.93324c0,0.4912 -0.4912,0.4912 -0.4912,0.4912l-0.28824,-0.07336c-0.22925,1.03645 -0.73792,0.78373 -0.91184,1.44124c0,0 -0.21967,0.43934 -0.65901,0.21967c-0.43934,-0.21967 -0.21967,-0.65901 -0.21967,-0.65901c0.38821,-0.63627 0.90053,-1.19257 1.27404,-1.83758l0.80471,-0.07336c0,0 0.4912,0 0.4912,0.4912z" fill="#ff0000" stroke="none" stroke-width="0.5" stroke-linecap="butt"/><path d="M235.19542,111.44204c0.4912,0 0.4912,0.4912 0.4912,0.4912l-0.1085,-0.06637c0.72676,0.48803 0.48312,0.99621 1.05757,1.63169c0.22148,0.24501 1.19238,0.30196 1.51175,0.45446c0,0 0.43934,0.21967 0.21967,0.65901c-0.21967,0.43934 -0.65901,0.21967 -0.65901,0.21967c-0.61741,-0.32933 -1.20236,-0.09851 -1.76708,-0.63848c-0.58827,-0.56249 -0.19356,-1.2432 -0.96528,-1.5474l-0.27152,-0.71258c0,0 0,-0.4912 0.4912,-0.4912z" fill="#ff0000" stroke="none" stroke-width="0.5" stroke-linecap="butt"/><path d="M270.44282,105.15762c0.4912,0 0.4912,0.4912 0.4912,0.4912v0.27323c0,1.76526 0.43642,4.36286 -0.32509,5.95762c-0.6698,1.3396 -0.55609,2.74761 -1.07847,4.06684c-0.73324,1.85172 -1.87526,3.90285 -1.87526,6.09645c0,0 0,0.4912 -0.4912,0.4912c-0.4912,0 -0.4912,-0.4912 -0.4912,-0.4912c0,-2.33405 1.1498,-4.49399 1.95004,-6.47239c0.52965,-1.30942 0.42278,-2.76098 1.10741,-4.13023c0.7034,-1.31866 0.22138,-4.02504 0.22138,-5.51828v-0.27323c0,0 0,-0.4912 0.4912,-0.4912z" fill="#ff0000" stroke="none" stroke-width="0.5" stroke-linecap="butt"/><path d="M276.6963,67.27458c0,6.17682 3.52591,7.60209 -0.52636,10.89031c-1.98527,1.61095 11.51987,4.84031 -0.06299,5.79629c-9.4817,0.78257 -19.68752,-0.093 -30.32032,-0.093c-21.57654,0 -35.60892,2.10252 -40.88759,-0.13998c-6.98669,-2.96811 2.16917,-3.94374 2.16917,-10.59706c0,-7.18637 4.27744,-12.86635 10.73343,-15.17175c4.03703,-1.44161 4.14133,-7.27842 23.42988,-7.27842c20.36607,0 19.84115,6.46548 24.40172,6.42604c6.66608,-0.05765 11.06305,3.23224 11.06305,10.16757z" fill="url(#color-1)" stroke="#000000" stroke-width="1" stroke-linecap="butt"/><path d="M223.31599,98.82251c0,0 3.68912,-0.73608 8.20139,0.17453c5.00016,1.00905 7.31412,2.17884 7.31412,2.17884l-0.91652,3.97056c0,0 -3.40552,-1.74571 -7.37917,-2.80251c-5.31426,-1.41335 -6.65348,-0.57136 -10.77946,-1.36794c-3.53537,-0.68255 -6.37263,-1.79448 -6.37263,-1.79448l0.33098,-1.16399c0,0 3.35481,1.10666 4.93461,1.44569c1.3039,0.27982 4.00413,0.26602 4.00413,0.26602z" fill="#000000" stroke="none" stroke-width="1.5" stroke-linecap="butt"/><g data-paper-data="{&quot;index&quot;:null}" stroke="none" stroke-linecap="butt"><path d="M261.6578,144.44466c0,0 -2.17178,10.88307 -7.42633,16.22537c-2.34606,2.38526 -6.06247,3.33096 -12.3832,2.4836c-4.86891,-0.65275 -10.00115,-0.42128 -12.27103,-3.47085c-4.37349,-5.87575 -6.90961,-16.81031 -6.90961,-16.81031c0,0 8.17615,-7.2295 13.22972,-7.02572c1.60465,0.0647 6.89513,2.82414 6.89513,2.82414c0,0 3.78685,-3.67315 7.96314,-2.21453c6.63639,2.3178 10.90216,7.9883 10.90216,7.9883z" fill="#000000" stroke-width="0"/><path d="M230.03385,139.54911c4.50713,-2.48319 6.55894,-2.61553 9.50754,-0.6659c1.70108,1.16452 5.26404,2.33372 4.2366,3.25141c-1.45312,1.29789 -8.62853,2.09276 -13.29221,1.65994c-2.61163,-0.26678 -4.81729,-0.86979 -4.81729,-1.13657c0,-0.26678 1.92222,-1.77492 4.3653,-3.10888z" data-paper-data="{&quot;noHover&quot;:false,&quot;origItem&quot;:[&quot;Path&quot;,{&quot;applyMatrix&quot;:true,&quot;segments&quot;:[[[800.91191,350.53662],[0,0],[-0.90624,0.49482]],[[799.29473,351.63282],[0,-0.09896],[0,0.09896]],[[801.05255,352.00584],[-0.96876,-0.09896],[2.95312,0.27406]],[[804.24787,350.2854],[1.52344,1.04292],[-1.09376,-0.7232]],[[800.91193,350.53662],[1.67188,-0.92112],[0,0]]],&quot;closed&quot;:true,&quot;fillColor&quot;:[0,0,0]}]}" fill="#ffffff" stroke-width="0.5"/><path d="M254.37266,140.52052c1.7902,1.47759 3.26887,3.18493 3.26887,3.51328c0,0.94403 -7.41829,0.78296 -10.11413,-0.22265c-0.90853,-0.34269 -4.28426,-0.72821 -4.18589,-1.4432c0.18092,-1.31474 2.00862,-4.69039 5.21163,-4.69039c1.5375,0 3.50277,0.95489 5.81952,2.84295z" data-paper-data="{&quot;noHover&quot;:false,&quot;origItem&quot;:[&quot;Path&quot;,{&quot;applyMatrix&quot;:true,&quot;segments&quot;:[[[807.74787,349.88954],[0.57032,0],[-1.54688,0]],[[807.38849,352.02866],[-1.45312,-0.5481],[1,0.37302]],[[810.96661,352.12762],[0,0.35018],[0,-0.1218]],[[809.74787,350.88678],[0.66406,0.5481],[-0.85938,-0.70036]]],&quot;closed&quot;:true,&quot;fillColor&quot;:[0,0,0]}]}" fill="#ffffff" stroke-width="0.5"/><path d="M241.05602,144.60083c1.15835,-0.80034 2.35045,-0.80044 4.07747,-0.0001c0.96878,0.47199 0.34895,0.86418 -1.84143,0.86418c-2.12723,0.08211 -2.93114,-0.39209 -2.2361,-0.86408z" data-paper-data="{&quot;noHover&quot;:false,&quot;origItem&quot;:[&quot;Path&quot;,{&quot;applyMatrix&quot;:true,&quot;segments&quot;:[[[805.00575,352.37884],[0,0],[-0.25782,0.17508]],[[805.72451,352.5996],[-0.78908,0.03046],[0.8125,0]],[[806.31827,352.37884],[0.35936,0.17508],[-0.64062,-0.29688]],[[805.00577,352.37884],[0.42968,-0.29688],[0,0]]],&quot;closed&quot;:true,&quot;fillColor&quot;:[0,0,0]}]}" fill="#ffffff" stroke-width="0.5"/><path d="M246.41617,150.95515c0.37909,0.06158 -0.1944,0.62109 -1.28962,1.03157c-2.04291,0.86197 -4.38608,0.51542 -6.23948,-0.88011c-1.09521,-0.82089 -0.6724,-1.0768 2.67633,-0.87159c2.04291,0.20521 4.53686,0.5765 4.85277,0.72014z" data-paper-data="{&quot;noHover&quot;:false,&quot;origItem&quot;:[&quot;Path&quot;,{&quot;applyMatrix&quot;:true,&quot;segments&quot;:[[[805.15403,354.54842],[0.7578,0.07612],[-1.24218,-0.07612]],[[804.20091,354.79964],[-0.40626,-0.3045],[0.6875,0.51766]],[[806.31809,355.09652],[-0.7578,0.31974],[0.40626,-0.15226]],[[806.79465,354.74634],[0.14062,0.02284],[-0.11718,-0.05328]]],&quot;closed&quot;:true,&quot;fillColor&quot;:[0,0,0]}]}" fill="#ffffff" stroke-width="0.5"/><path d="M226.69583,149.7273c-2.50632,-5.70516 -2.41141,-5.93676 2.538,-4.52074c1.79026,0.53361 4.06682,2.17821 6.57309,4.92819c2.75904,3.09882 3.81368,3.74124 5.68815,4.0696c3.2645,0.53356 5.54808,-0.41325 7.61207,-3.49158c1.66388,-2.48319 3.77763,-3.6681 7.44231,-4.46845c2.04291,-0.47204 2.12484,0.01445 0.77692,4.57038c-2.23248,7.88049 -4.51398,9.505 -14.139,9.505c-5.0126,0 -7.5235,-0.41979 -9.44009,-1.36382c-3.41197,-1.62123 -4.35565,-2.96937 -7.05149,-9.22863z" data-paper-data="{&quot;noHover&quot;:false,&quot;origItem&quot;:[&quot;Path&quot;,{&quot;applyMatrix&quot;:true,&quot;segments&quot;:[[[799.67749,354.2972],[0,0],[1,2.32182]],[[802.27125,357.6391],[-1.26564,-0.60138],[0.71094,0.35018]],[[805.67751,358.11108],[-1.85938,0],[3.57032,0]],[[810.84157,354.69306],[-0.82812,2.9232],[0.5,-1.68998]],[[810.56033,353.02592],[0.7578,-0.1751],[-1.35938,0.29688]],[[807.99001,354.62456],[0.6172,-0.92112],[-0.76562,1.14188]],[[805.06033,356.0405],[1.21094,0.19792],[-0.69532,-0.1218]],[[802.86501,354.3962],[1.02344,1.14948],[-0.92968,-1.02008]],[[800.60719,352.65292],[0.66408,0.19794],[-1.83594,-0.52526]],[[799.67751,354.29722],[-0.9297,-2.11628],[0,0]]],&quot;closed&quot;:true,&quot;fillColor&quot;:[0,0,0]}]}" fill="#ffffff" stroke-width="0.5"/></g><path d="M245.90388,109.91846c0,0 0.10079,3.89988 0.00566,7.00117c-0.18836,6.14109 -1.06243,27.27201 -1.06243,27.27201l-2.92918,0.00849c0,0 -0.78881,-4.09929 -1.10345,-9.33256c-0.4259,-7.0837 -0.44159,-16.00639 -0.75,-19.28669c-0.29234,-3.10941 -0.88016,-5.61393 -0.88016,-5.61393" fill="#ffffff" stroke="#000000" stroke-width="1.3" stroke-linecap="round"/><path d="M211.59113,155.96866v-73.96484h61.42587v73.96484z" fill="url(#color-2)" stroke="#ffffff" stroke-width="0.5" stroke-linecap="butt"/><text transform="translate(239.15305,79.72916) scale(0.28873,0.28873)" font-size="40" xml:space="preserve" fill="#000000" fill-rule="nonzero" stroke="none" stroke-width="1" stroke-linecap="butt" stroke-linejoin="miter" stroke-miterlimit="10" stroke-dasharray="" stroke-dashoffset="0" font-family="Sans Serif" font-weight="normal" text-anchor="start" style="mix-blend-mode: normal"><tspan x="0" dy="0">S</tspan></text></g></g></svg>