<svg version="1.1" xmlns="http://www.w3.org/2000/svg" xmlns:xlink="http://www.w3.org/1999/xlink" width="96.73822" height="240.42748" viewBox="0,0,96.73822,240.42748"><g transform="translate(-192.80278,-67.57735)"><g data-paper-data="{&quot;isPaintingLayer&quot;:true}" fill-rule="nonzero" stroke-linejoin="miter" stroke-miterlimit="10" stroke-dasharray="" stroke-dashoffset="0" style="mix-blend-mode: normal"><path d="M199.20504,126.92202c0,0 0.78829,-18.0143 0.91661,-18.89061c0.0165,-0.11269 -3.46902,0.95315 -3.45214,0.67563c0.09157,-1.50576 5.26785,-7.26384 6.58684,-11.70823c3.39568,-11.44195 12.70803,-28.43323 37.45806,-29.40429c24.39809,-0.50548 33.78074,10.23173 37.68425,21.20314c3.23796,9.10079 9.70587,16.71787 10.84663,19.85776c0.78197,2.15232 -0.23427,6.43685 -0.23427,6.43685c0,0 -3.55386,-7.76975 -3.71185,-6.80939c-0.06817,0.41441 0.70371,6.97297 0.50856,13.02607c-0.16575,5.1412 -1.30773,9.95302 -1.30773,9.95302l-1.6042,-3.37915c0,0 1.09111,12.62549 -0.68908,23.09878c-0.48605,2.9857 -1.28733,5.23377 -2.33287,6.56556c-0.93847,1.1954 0.00645,-5.0176 -0.9165,-4.70356c-0.58887,0.20037 -1.47192,2.54017 -2.42309,3.83351c-1.23567,1.68018 -2.50036,2.37735 -2.50036,2.37735l-1.08412,-1.85229c0,0 -1.53778,2.71614 -3.13022,4.48475c-1.1895,1.3211 -2.46476,1.77792 -2.85343,1.99465c-0.41381,0.23076 0.72171,-3.54516 0.72171,-3.54516c0,0 -7.0601,11.15256 -24.35066,11.00436c-16.30625,-0.25859 -25.07151,-10.17299 -25.07151,-10.17299l-0.3662,2.56075l-5.26179,-6.51084c0,0 -0.36241,2.23184 -1.11597,1.51161c-1.72713,-1.65073 -5.04315,-5.70576 -5.04315,-5.70576l-0.79026,4.29903c0,0 -2.01351,-1.8741 -2.52975,-5.73146c-0.49924,-3.73034 0.50706,-9.36465 0.00477,-14.11012c-0.32551,-3.07535 -0.81214,-3.5606 -1.00536,-6.09c-0.26033,-3.40799 -0.19185,-8.36041 -0.40574,-7.88022c-0.76904,1.72648 -2.54717,3.61122 -2.54717,3.61122z" fill="#000000" stroke="none" stroke-width="1.5" stroke-linecap="butt"/><path d="M212.69317,282.46792v-37.58307l18.37778,37.58307z" fill="#9f9f9f" stroke="none" stroke-width="0" stroke-linecap="butt"/><path d="M253.12429,282.72472l18.37777,-37.58307v37.58307z" data-paper-data="{&quot;index&quot;:null}" fill="#e6e6e6" stroke="none" stroke-width="0" stroke-linecap="butt"/><path d="M192.80278,307.0959l5.36842,-123.5773c0,0 10.52545,-36.28045 41.56482,-36.44035c30.63915,-0.15784 40.35971,37.4165 40.35971,37.4165l6.66512,119.54965z" fill="#1f1f1f" stroke="none" stroke-width="0" stroke-linecap="butt"/><path d="M205.82273,195.24515l26.86852,0.19998c1.55388,3.14703 4.53337,5.20081 7.87242,5.02964c3.02727,-0.15518 5.62101,-2.10182 7.05403,-4.91857l26.44411,0.19682l-30.49137,13.58114z" fill="#4c4c4c" stroke="none" stroke-width="0" stroke-linecap="butt"/><path d="M241.07482,308.0048v-100.05285l31.91986,-11.00581l-1.84154,111.05869z" fill="#d2d2d2" stroke="none" stroke-width="0" stroke-linecap="butt"/><path d="M210.23334,307.0043l-1.94107,-111.05869l33.64525,11.00582v100.05285z" data-paper-data="{&quot;index&quot;:null}" fill="#afafaf" stroke="none" stroke-width="0" stroke-linecap="butt"/><path d="M244.95695,231.4644v-22.01162h12.07777z" fill="#e6e6e6" stroke="none" stroke-width="0" stroke-linecap="butt"/><path d="M226.40894,208.95249h12.07778v22.01163z" data-paper-data="{&quot;index&quot;:null}" fill="#939393" stroke="none" stroke-width="0" stroke-linecap="butt"/><path d="M241.03356,263.9337l-7.52048,-35.68013l8.00567,-31.35529l7.03528,30.27406z" fill="#000000" stroke="none" stroke-width="0" stroke-linecap="butt"/><path d="M215.83681,114.82897c-0.57709,-7.29323 0.335,-17.15448 0.335,-17.15448c0,0 3.41059,-0.04124 13.91429,-3.14424c8.0696,-2.38394 20.54731,-9.48722 20.54731,-9.48722c0,0 -2.16005,3.00503 -3.40781,4.46015c-1.32651,1.54696 -3.99292,4.56297 -3.99292,4.56297c0,0 7.838,-1.66761 14.67476,-4.72931c8.56837,-3.53575 10.59252,-6.05309 12.95042,-4.5927c2.7829,1.72362 1.03006,23.1827 0.71846,28.74062c-0.42163,5.66922 -2.53327,9.49969 -3.15031,12.52053c-0.61704,3.02084 -0.4096,6.13662 -2.20622,16.0397c-1.12121,6.18021 -4.16183,8.92466 -10.01942,14.66081c-5.85759,5.73616 -9.05378,9.25275 -13.01359,9.32173c-3.81077,0.06639 -8.93565,-5.1002 -13.93542,-10.38244c-5.32393,-5.62474 -8.87489,-8.47713 -9.71551,-15.13975c-0.75707,-6.00039 -0.77653,-9.90853 -1.12266,-15.24835c-0.25298,-3.90273 -2.26119,-6.44504 -2.57636,-10.42801z" fill="#ffffff" stroke="#000000" stroke-width="1.5" stroke-linecap="butt"/><path d="M263.90681,99.70861c0,0 1.52429,0.31807 4.2558,1.11029c2.49492,0.72361 4.44935,1.74403 4.44935,1.74403l0.1951,1.17035c0,0 -7.24963,-3.12997 -15.1158,-2.4706c-6.2896,0.52724 -9.96319,2.8124 -9.96319,2.8124l0.04575,-4.17683c0,0 3.12748,-1.70421 7.86366,-1.85557c4.90428,-0.15672 8.09084,0.59125 8.09084,0.59125z" data-paper-data="{&quot;index&quot;:null}" fill="#000000" stroke="none" stroke-width="1.5" stroke-linecap="butt"/><g><path d="M253.53801,152.99263c0,4.01748 -5.83501,7.27427 -13.03287,7.27427c-7.19786,0 -13.03287,-3.2568 -13.03287,-7.27427c0,-4.01748 5.69216,-4.84571 12.89002,-4.84571c7.19786,0 13.17573,0.82824 13.17573,4.84571z" fill="#ffffff" stroke="none" stroke-width="NaN" stroke-linecap="butt"/><path d="M245.14358,148.08428c0.24666,0.02641 0.6086,-1.62699 2.34631,-2.35288c1.67939,-0.70152 4.07183,-0.47938 5.53918,-0.28853c1.61805,0.61504 10.03261,5.09465 10.03261,5.09465c0,0 -6.35924,-0.0911 -9.57295,0.362c-2.69313,0.37971 -14.82476,-0.66433 -18.02124,-1.45574c-1.49167,-0.36932 -3.67129,0.50065 -5.67569,0.32552c-2.6745,-0.23368 -6.60846,-1.87291 -6.60846,-1.87291c0,0 7.6019,-5.78777 8.55758,-5.93574c4.65641,-0.72094 13.15736,6.09735 13.40264,6.12361z" fill="#ffffff" stroke="#000000" stroke-width="1.25" stroke-linecap="butt"/><path d="M256.99838,152.60777c0,0 -4.84153,1.66172 -11.79029,1.29699c-5.33676,-0.28011 -18.20971,-3.05735 -18.20971,-3.05735" fill="none" stroke="#000000" stroke-width="0.5" stroke-linecap="round"/><path d="M242.4778,165.35455c-16.27509,-0.75991 -18.7577,-16.86746 -18.7577,-16.86746c0,0 2.63751,0.0298 5.05334,1.46116c2.12793,1.26078 2.74938,4.96601 5.93042,5.38612c3.18105,0.4201 16.93874,-3.16583 19.57047,-3.47724c2.04031,-0.24143 9.09913,-0.5971 9.09913,-0.5971c0,0 -6.27707,14.51703 -20.89566,14.09453z" fill="#ffffff" stroke="#000000" stroke-width="1.9" stroke-linecap="butt"/></g><path d="M243.46895,144.25607c-1.03376,0 -3.5381,-3.26042 -3.7867,-5.3637c-0.22243,-1.88186 1.31512,-3.82799 3.7867,-3.82799c2.47159,0 4.2021,0.49077 4.02999,4.18853c-0.14607,3.13818 -1.55841,5.00317 -4.02999,5.00317z" fill="#ffffff" stroke="#000000" stroke-width="1.15" stroke-linecap="butt"/><path d="M247.07106,114.16235c0,0 0.1026,3.96976 0.00576,7.12662c-0.19174,6.25113 -1.08147,27.7607 -1.08147,27.7607l-2.98167,0.00864c0,0 -0.80294,-4.17274 -1.12322,-9.49979c-0.43353,-7.21063 -0.4495,-16.29321 -0.76344,-19.63229c-0.29758,-3.16513 -0.89593,-5.71453 -0.89593,-5.71453" fill="#ffffff" stroke="#000000" stroke-width="1.3" stroke-linecap="round"/><path d="M217.53645,124.95219c0,0 -4.93211,-3.51705 -6.16417,-8.97502c-1.29636,-5.74284 -1.46118,-9.7328 0.48013,-9.99193c1.94131,-0.25915 2.70321,2.37692 3.73262,8.35569c1.0294,5.97877 1.95143,10.61127 1.95143,10.61127z" data-paper-data="{&quot;index&quot;:null}" fill="#ffffff" stroke="#000000" stroke-width="1" stroke-linecap="butt"/><path d="M217.33386,121.00463c0,0 -3.56385,-2.92338 -4.31816,-8.45061c-0.42079,-3.08327 2.15675,-2.28016 2.15675,-2.28016" fill="none" stroke="#000000" stroke-width="0.25" stroke-linecap="round"/><path d="M220.34726,114.34873c0.07093,-4.89188 4.83834,-8.93609 10.21137,-8.8582c5.37302,0.0779 9.02724,4.2484 8.95632,9.14029c-0.07093,4.89188 -4.12352,8.79439 -9.49655,8.7165c-5.37302,-0.0779 -9.74207,-4.1067 -9.67114,-8.99859z" fill="#ffffff" stroke="#000000" stroke-width="1.4" stroke-linecap="butt"/><path d="M224.78489,114.46667c0.03999,-2.75843 2.30855,-4.96213 5.06696,-4.92214c2.75843,0.03999 4.96213,2.30855 4.92214,5.06696c-0.03999,2.75843 -2.30854,4.96213 -5.06696,4.92214c-2.75843,-0.03999 -4.96213,-2.30855 -4.92214,-5.06696z" fill="#000000" stroke="none" stroke-width="1.5" stroke-linecap="butt"/><path d="M247.40353,114.34946c0.20353,-4.88817 4.45264,-8.85847 9.77048,-8.85847c5.31783,0 9.27453,3.96607 9.27453,8.85847c0,4.8924 -3.88585,9.07104 -9.69964,9.14188c-5.52997,0.06739 -9.55792,-4.03692 -9.34537,-9.14188z" fill="#ffffff" stroke="#000000" stroke-width="1.4" stroke-linecap="butt"/><path d="M252.00629,114.43501c0,-2.81845 2.2848,-5.10325 5.10325,-5.10325c2.81845,0 5.10325,2.2848 5.10325,5.10325c0,2.81845 -2.28479,5.10325 -5.10325,5.10325c-2.81845,0 -5.10325,-2.2848 -5.10325,-5.10325z" fill="#000000" stroke="none" stroke-width="1.5" stroke-linecap="butt"/><path d="M220.27882,113.81655c0,0 0.06357,-9.01512 10.60111,-8.8249c9.47101,0.16586 9.55554,9.40723 9.55554,9.40723z" fill="#ffffff" stroke="#000000" stroke-width="1.15" stroke-linecap="butt"/><path d="M247.02589,113.94745c0,0 -0.24686,-9.4582 11.19813,-9.1032c9.71427,0.33347 9.54677,9.65229 9.54677,9.65229z" fill="#ffffff" stroke="#000000" stroke-width="1.15" stroke-linecap="butt"/><path d="M223.80868,103.80489c0,0 3.36963,-1.819 8.03244,-2.28178c5.16698,-0.51283 7.76823,-0.06628 7.76823,-0.06628l0.29508,4.13747c0,0 -3.83554,-0.68065 -8.01795,-0.52113c-5.59346,0.21333 -6.64488,1.43293 -10.89774,1.89119c-3.64408,0.39266 -6.73723,0.15884 -6.73723,0.15884l-0.02589,-1.23155c0,0 3.59517,0.07398 5.23371,-0.06836c1.35239,-0.11749 3.9757,-0.93808 3.9757,-0.93808z" fill="#000000" stroke="none" stroke-width="1.5" stroke-linecap="butt"/><path d="M271.76961,114.34092c1.0294,-5.97877 1.7913,-8.61483 3.73262,-8.35569c1.94131,0.25914 1.77649,4.24909 0.48013,9.99193c-1.23206,5.45797 -6.16417,8.97502 -6.16417,8.97502c0,0 0.92203,-4.6325 1.95143,-10.61127z" data-paper-data="{&quot;index&quot;:null}" fill="#ffffff" stroke="#000000" stroke-width="1" stroke-linecap="butt"/><path d="M272.18218,110.27386c0,0 2.57754,-0.80312 2.15675,2.28016c-0.75431,5.52723 -4.31816,8.45061 -4.31816,8.45061" data-paper-data="{&quot;index&quot;:null}" fill="none" stroke="#000000" stroke-width="0.25" stroke-linecap="round"/><g stroke="none" stroke-width="0" stroke-linecap="butt"><path d="M218.63224,139.04788c-0.04869,-2.91844 -0.20203,-12.10908 -0.20203,-12.10908l50.01536,-0.54072c0,0 0.13742,8.23679 0.18668,11.18932c0.03227,1.9342 -2.10478,4.82555 -5.52057,4.86248c-10.57358,0.11431 -32.94179,0.35614 -38.80822,0.41956c-2.75777,0.02982 -5.64366,-2.1691 -5.67123,-3.82156z" fill="#808080"/><path d="M218.5768,138.73779l-0.14648,-8.77951l50.15428,-0.54223l0.14648,8.77951z" fill="#4d4d4d"/><path d="M210.51497,127.54293c-0.18851,-11.29836 -0.52468,-31.44682 -0.62094,-37.21688c-0.0574,-3.4403 3.25902,-6.20246 6.6137,-6.23873c7.41866,-0.08021 36.70007,-0.39677 51.40764,-0.55578c5.15905,-0.05578 8.59462,4.08739 8.64613,7.17504c0.09697,5.81205 0.42568,25.51392 0.60625,36.33601c0.0726,4.35141 -4.29418,7.31493 -8.40363,7.35936c-7.72628,0.08353 -34.4605,0.37256 -48.82435,0.52785c-5.58506,0.06038 -9.338,-2.18434 -9.4248,-7.38688z" fill="#808080"/><path d="M210.07428,103.90668l-0.18371,-11.01091l11.58613,-8.8509l15.70615,-0.12875z" fill="#adadad"/><path d="M210.40843,117.25897l-0.10953,-6.56465l38.15973,-27.10783l9.02086,0.07526z" fill="#adadad"/><path d="M215.67271,124.35763c-0.15994,-9.58613 -0.44516,-26.68114 -0.52684,-31.57676c-0.0487,-2.91894 2.728,-5.26209 5.53722,-5.29246c6.21244,-0.06716 30.7329,-0.33226 43.04913,-0.46541c4.32022,-0.0467 7.19797,3.46898 7.24168,6.08869c0.08227,4.93126 0.36118,21.64735 0.51437,30.82938c0.0616,3.69196 -3.59463,6.20585 -7.03593,6.24305c-6.47004,0.06995 -28.85747,0.31198 -40.88586,0.44203c-4.67697,0.05056 -7.82012,-1.85442 -7.89377,-6.26852z" fill="#000000"/></g><path d="M260.47346,116.42558l6.75,-5.75l-7.5,-12l8.5,-9.5" fill="none" stroke="#ffffff" stroke-width="0.5" stroke-linecap="round"/><path d="M216.47346,126.67558l14,-3.75l6.75,4" fill="none" stroke="#ffffff" stroke-width="0.5" stroke-linecap="round"/><path d="M260.84928,106.19071l-34.50934,7.52578" fill="none" stroke="#ffffff" stroke-width="4" stroke-linecap="round"/><path d="" fill="#9966ff" stroke="none" stroke-width="0.5" stroke-linecap="butt"/><path d="" fill="#9966ff" stroke="none" stroke-width="0.5" stroke-linecap="butt"/><path d="" fill="#9966ff" stroke="none" stroke-width="0.5" stroke-linecap="butt"/><path d="" fill="#9966ff" stroke="none" stroke-width="0.5" stroke-linecap="butt"/><path d="" fill="#9966ff" stroke="none" stroke-width="0.5" stroke-linecap="butt"/><path d="" fill="#9966ff" stroke="none" stroke-width="0.5" stroke-linecap="butt"/><path d="" fill="#9966ff" stroke="none" stroke-width="0.5" stroke-linecap="butt"/><path d="" fill="#9966ff" stroke="none" stroke-width="0.5" stroke-linecap="butt"/><path d="" fill="#000000" stroke="none" stroke-width="0.5" stroke-linecap="butt"/><path d="" fill="#ff0000" stroke="none" stroke-width="0.5" stroke-linecap="butt"/><path d="" fill="#000000" stroke="none" stroke-width="0.5" stroke-linecap="butt"/><path d="" fill="#000000" stroke="none" stroke-width="0.5" stroke-linecap="butt"/><path d="" fill="#000000" stroke="none" stroke-width="0.5" stroke-linecap="butt"/><path d="" fill="#000000" stroke="none" stroke-width="0.5" stroke-linecap="butt"/><path d="" fill="#000000" stroke="none" stroke-width="0.5" stroke-linecap="butt"/></g></g></svg>