<svg version="1.1" xmlns="http://www.w3.org/2000/svg" xmlns:xlink="http://www.w3.org/1999/xlink" width="102.45099" height="253.2851" viewBox="0,0,102.45099,253.2851"><g transform="translate(-193.59955,-52.46512)"><g data-paper-data="{&quot;isPaintingLayer&quot;:true}" fill-rule="nonzero" stroke-linejoin="miter" stroke-miterlimit="10" stroke-dasharray="" stroke-dashoffset="0" style="mix-blend-mode: normal"><path d="M201.54534,304.39158c0,0 -0.63536,-94.38387 -0.79335,-118.01201c-0.05451,-8.15261 8.18688,-36.76129 40.20201,-36.9211c31.60235,-0.15775 39.85672,29.48704 39.84884,36.89673c-0.07659,46.24274 0.65429,117.98648 0.65429,117.98648l-10.49667,0.09614l-0.15882,-114.84311c0,0 0.07549,-3.0993 -2.81625,-3.15415c-3.43441,-0.06514 -2.94538,3.11562 -2.94538,3.11562l0.20548,114.86995l-48.21366,0.07222l-0.30539,-115.23309c0,0 0.27949,-2.919 -2.8856,-2.93443c-3.11083,-0.01515 -2.81569,2.90899 -2.81569,2.90899l0.35311,115.0668z" fill="#72bfbf" stroke="none" stroke-width="0" stroke-linecap="butt"/><path d="M256.1425,200.33376c-0.57113,0 -1.03411,-0.46299 -1.03411,-1.03411c0,-0.57113 0.46299,-1.03413 1.03411,-1.03413c0.57113,0 1.03411,0.463 1.03411,1.03413c0,0.57113 -0.46299,1.03411 -1.03411,1.03411z" fill="#000000" stroke="none" stroke-width="1.5" stroke-linecap="butt"/><path d="M223.06988,199.29965c0,-0.57113 0.46299,-1.03413 1.03411,-1.03413c0.57113,0 1.03413,0.463 1.03413,1.03413c0,0.57113 -0.463,1.03411 -1.03413,1.03411c-0.57113,0 -1.03411,-0.46299 -1.03411,-1.03411z" fill="#000000" stroke="none" stroke-width="1.5" stroke-linecap="butt"/><path d="M229.36386,204.56935c-6.89736,0.48585 -9.31086,-0.56089 -9.31086,-0.56089v-1.34616c0,0 2.10136,1.00666 8.51033,0.63173c4.12393,-0.24126 6.85251,-1.54704 6.97039,-1.3048c0.3826,0.78618 -1.70634,2.26571 -6.16985,2.58011z" fill="#000000" stroke="#000000" stroke-width="0" stroke-linecap="butt"/><path d="M201.54534,304.39158c0,0 -0.63536,-94.38387 -0.79335,-118.01201c-0.05137,-7.68273 7.26443,-33.19813 34.90028,-36.28599c1.30183,-0.14546 -1.20304,107.88814 0.21596,154.19078c-0.08537,0.06075 -0.16975,0.12281 -0.2531,0.18615l-18.58331,0.02784l-0.30539,-115.23309c0,0 0.27949,-2.919 -2.8856,-2.93443c-3.11083,-0.01515 -2.81569,2.90899 -2.81569,2.90899l0.35311,115.0668z" fill="#bfbfbf" stroke="#bfbfbf" stroke-width="2.5" stroke-linecap="butt"/><path d="M248.73315,150.06836c25.20622,4.25644 32.07688,29.52636 32.06969,36.28684c-0.07659,46.24274 0.65429,117.98648 0.65429,117.98648l-10.49667,0.09614l-0.15882,-114.84311c0,0 0.07549,-3.0993 -2.81625,-3.15415c-3.43441,-0.06514 -2.94538,3.11562 -2.94538,3.11562l0.20548,114.86995l-17.56487,0.02631c-0.16054,-0.12124 -0.32484,-0.23774 -0.49271,-0.34931c1.17046,-35.21983 -0.51779,-154.38314 1.54524,-154.03477z" fill="#bfbfbf" stroke="#bfbfbf" stroke-width="2.5" stroke-linecap="butt"/><path d="M206.10366,100.84351c0,0 6.16329,-5.92187 6.29161,-6.78761c0.33654,-2.27063 -0.16776,-40.17317 35.96775,-41.57382c44.63633,-0.91362 39.01489,35.34872 41.53088,42.1903c3.44981,9.38084 6.15664,17.40016 6.15664,17.40016c0,0 -2.76715,-2.05351 -4.0797,-3.13397c-1.2242,-1.00773 -3.80143,-3.14585 -3.80143,-3.14585c0,0 3.09111,10.3481 1.31092,20.69498c-1.5623,9.48098 -7.29782,17.22543 -7.29782,17.22543l-1.15522,-2.34735c0,0 -1.02266,2.19794 -2.16005,3.33274c-1.1374,1.13479 -3.43873,2.91273 -3.43873,2.91273l-0.09205,-3.70421c0,0 -7.0601,11.01795 -24.35066,10.87154c-16.30625,-0.25547 -26.07151,-10.6752 -26.07151,-10.6752l-0.1162,2.65484c0,0 -3.89477,-3.29276 -6.18145,-9.70754c-2.72545,-7.64567 -3.23946,-12.24324 -3.23946,-12.24324c0,0 -2.33908,1.89916 -5.71704,2.7744c-4.23278,1.09673 -6.94665,0.34526 -6.94665,0.34526c0,0 3.60795,-2.71717 5.58396,-4.76989c1.76007,-1.8284 2.64658,-3.37722 2.64658,-3.37722c0,0 -2.10758,1.0847 -4.23277,1.61795c-2.21739,0.5564 -4.03008,0.53093 -4.03008,0.53093c0,0 4.97492,-5.03728 7.03074,-10.87429c1.94102,-5.51108 2.09972,-10.95731 2.09972,-10.95731c0,0 -1.36165,0.66163 -3.33013,0.79513c-1.24776,0.08463 -2.37785,-0.0489 -2.37785,-0.0489z" fill="#000000" stroke="none" stroke-width="1.5" stroke-linecap="butt"/><path d="M222.88955,112.16513c-0.57709,-7.29323 0.335,-17.15448 0.335,-17.15448c0,0 3.41059,-0.04124 13.91429,-3.14424c8.0696,-2.38394 20.54731,-9.48722 20.54731,-9.48722c0,0 -2.16005,3.00503 -3.40781,4.46015c-1.32651,1.54696 -3.99292,4.56297 -3.99292,4.56297c0,0 7.838,-1.66761 14.67476,-4.72931c8.56837,-3.53575 10.59252,-6.05309 12.95042,-4.5927c2.7829,1.72362 1.03006,23.1827 0.71846,28.74062c-0.42163,5.66922 -2.53327,9.49969 -3.15031,12.52053c-0.61704,3.02084 -0.4096,6.13662 -2.20622,16.0397c-1.12121,6.18021 -4.16183,8.92466 -10.01942,14.66081c-5.85759,5.73616 -9.05378,9.25275 -13.01359,9.32173c-3.81077,0.06639 -8.93565,-5.1002 -13.93542,-10.38244c-5.32393,-5.62474 -8.87489,-8.47713 -9.71551,-15.13975c-0.75707,-6.00039 -0.77653,-9.90853 -1.12266,-15.24835c-0.25298,-3.90273 -2.26119,-6.44504 -2.57636,-10.42801z" fill="#ffffff" stroke="#000000" stroke-width="1.5" stroke-linecap="butt"/><g fill="#bfbfbf" stroke="#a7a7a7" stroke-width="1.5" stroke-linecap="butt"><path d="M248.59458,222.33649v-17.23077h19.05325v17.23077l-9.77515,6.13018z"/><path d="M247.43481,205.76844v-5.30177h21.37278v5.30177z"/></g><g fill="#bfbfbf" stroke="#a7a7a7" stroke-width="1.5" stroke-linecap="butt"><path d="M215.79458,221.93649v-17.23077h19.05325v17.23077l-9.77515,6.13018z"/><path d="M214.63481,205.36844v-5.30177h21.37278v5.30177z"/></g><g stroke="none" stroke-width="0" stroke-linecap="butt"><path d="M201.80204,165.11778l11.88747,-21.56995l19.46778,-4.68638l13.21166,32.15077l-17.68009,-0.20692l-26.85781,2.86144l12.73897,-14.13001z" fill="#003e3e"/><path d="M203.67187,163.11827l12.29829,-19.09196l18.98544,-5.3857l9.5769,30.77304l-17.96079,0.47975l-22.58266,3.00218l12.64333,-15.33886z" fill="#000000"/></g><path d="M270.95955,97.04477c0,0 1.52429,0.31807 4.2558,1.11029c2.49492,0.72361 4.44935,1.74403 4.44935,1.74403l0.1951,1.17035c0,0 -7.24963,-3.12997 -15.1158,-2.4706c-6.2896,0.52724 -9.96319,2.8124 -9.96319,2.8124l0.04575,-4.17683c0,0 3.12748,-1.70421 7.86366,-1.85557c4.90428,-0.15672 8.09084,0.59125 8.09084,0.59125z" data-paper-data="{&quot;index&quot;:null}" fill="#000000" stroke="none" stroke-width="1.5" stroke-linecap="butt"/><g data-paper-data="{&quot;index&quot;:null}" stroke="none" stroke-width="0" stroke-linecap="butt"><path d="M281.13732,181.00772l-35.83815,-13.85468l0.0247,-12.66303l7.55384,-13.53658l11.63487,1.77197l18.75133,19.63286l-7.6341,10.4821z" fill="#003e3e"/><path d="M279.9866,180.33902l-28.85773,-15.35758l-1.47306,-7.54532l0.90466,-16.14391l13.5601,2.6586l18.1309,18.29404l-8.8251,11.70435z" fill="#000000"/></g><g stroke="none" stroke-linecap="butt"><g><g><g><path d="M271.68433,150.24308c0,0 0.52943,33.42708 -7.29691,43.08972c-2.47104,3.05083 -8.82663,3.29947 -13.64217,3.072c-4.06215,-0.19186 -9.38851,-1.50303 -11.86197,-4.03455c-9.42886,-9.65021 -9.2002,-42.77908 -9.2002,-42.77908c0,0 10.30516,-12.67408 16.12369,-12.57948c1.33822,0.02171 4.95973,2.2841 4.95973,2.2841c0,0 3.17315,-3.06116 7.72307,-1.08912c5.14708,2.58522 13.19466,12.03638 13.19466,12.03638z" fill="#000000" stroke-width="0"/><path d="M245.36726,144.96853c-2.52038,-0.13783 -8.69708,4.71072 -10.12544,4.71072c-3.6674,0 -4.11388,-0.0437 1.15128,-4.91368c5.62814,-5.20571 7.91871,-7.18512 14.89805,-3.3291c1.72571,0.95344 0.06547,3.85959 -5.92388,3.53205z" data-paper-data="{&quot;noHover&quot;:false,&quot;origItem&quot;:[&quot;Path&quot;,{&quot;applyMatrix&quot;:true,&quot;segments&quot;:[[[698.34237,394.12604],[1.90626,-1.07338],[-2.11718,1.19516]],[[697.44393,395.4963],[-1.33594,0],[0.95312,0]],[[702.35019,394.59802],[-0.28908,0.22838],[0.04688,-0.05328]],[[702.03769,393.87482],[0.21094,0.35018],[-0.57032,-0.89828]]],&quot;closed&quot;:true,&quot;fillColor&quot;:[0,0,0]}]}" fill="#ffffff" stroke-width="0.5"/><path d="M267.2023,150.31545c-2.48517,-1.01671 -5.50831,-5.14734 -12.14357,-5.59117c-3.33127,-0.22281 -5.35274,-2.29784 -4.72901,-3.26848c1.02779,-1.59944 2.48154,-2.426 5.01707,-2.11039c6.3904,0.79546 16.61603,12.9176 11.8555,10.97005z" data-paper-data="{&quot;noHover&quot;:false,&quot;origItem&quot;:[&quot;Path&quot;,{&quot;applyMatrix&quot;:true,&quot;segments&quot;:[[[704.70179,393.42568],[0,0],[-0.39844,0.09896]],[[704.15491,394.47622],[-0.1875,-0.30452],[0.19532,0.35018]],[[708.60803,395.69422],[-0.78124,0.07614],[0,0]],[709.39709,395.6181],[[707.80335,394.42294],[0,0],[-1.47656,-1.0962]],[[704.70179,393.4257],[1.02344,-0.2969],[0,0]]],&quot;closed&quot;:true,&quot;fillColor&quot;:[0,0,0]}]}" fill="#ffffff" stroke-width="0.5"/><path d="M234.08549,176.53819c-2.87388,-14.21784 -4.33499,-28.38354 -0.79629,-25.30673c0.77206,0.64514 4.42273,17.33438 5.85963,21.05637c3.32425,8.61013 6.61539,11.42139 12.83493,11.42139c6.32676,0 9.19243,-2.64638 11.61593,-11.33089c1.37258,-4.96265 2.84617,-20.73653 6.61855,-20.73653c0.45038,0 -2.87563,31.90626 -3.92653,34.51163c-2.01601,5.28515 -3.89098,6.65752 -13.24175,6.98011c-7.05594,0.32259 -8.45231,-0.13747 -11.4548,-1.75038c-4.24641,-2.28282 -5.72056,-4.91978 -7.69369,-14.845z" data-paper-data="{&quot;noHover&quot;:false,&quot;origItem&quot;:[&quot;Path&quot;,{&quot;applyMatrix&quot;:true,&quot;segments&quot;:[[[696.79563,400.42922],[0,0],[0.71876,3.04502]],[[699.56125,404.9663],[-1.54686,-0.70036],[1.09374,0.49482]],[[703.65499,405.41544],[-2.5703,0.09896],[3.40626,-0.09896]],[[708.53781,403.39812],[-0.73438,1.62146],[0.38282,-0.79932]],[[709.75657,396.56968],[0,1.29412],[0,-0.05328]],[[709.44407,396.49356],[0.16406,0],[-0.57032,0]],[[707.60813,399.11228],[0.5,-1.52252],[-0.88282,2.66438]],[[703.30345,402.72062],[2.30468,0],[-2.26562,0]],[[698.51439,399.08182],[1.21094,2.64156],[-0.52344,-1.14188]],[[697.06127,396.61536],[0.28124,0.19792],[-1.28906,-0.94396]],[[696.79565,400.42924],[-1.04688,-4.36198],[0,0]]],&quot;closed&quot;:true,&quot;fillColor&quot;:[0,0,0]}]}" fill="#ffffff" stroke-width="0.5"/></g><path d="M267.8421,153.50332c0,0.45252 0.16293,30.83893 -1.30741,33.32537c-0.57848,0.97823 -0.74243,-17.08606 -1.55559,-16.57601c-1.96769,1.23419 -2.85845,56.12148 -5.18385,59.45995c-0.50028,0.71823 -2.28614,-60.11826 -2.77875,-59.37397c-3.39668,5.13201 -6.5091,10.58322 -7.93126,12.21323c-1.37678,1.57801 -0.82706,3.2669 -2.29906,3.2669c-1.19741,0 -1.87171,-5.41921 -2.5228,-1.31909c-1.66009,10.45425 -1.05408,23.39507 -2.20999,22.29146c-0.33432,-0.3192 -0.77064,-19.75686 -2.86399,-31.55379c-1.43357,-8.07877 -3.16107,-16.23953 -3.16107,-16.4937c0,-2.4118 6.12295,4.5853 11.86121,4.5853c5.73827,0 19.95257,-12.23745 19.95257,-9.82566z" fill="#000000" stroke-width="0"/></g><path d="M250.98789,147.06038c14.27375,0.13654 12.01752,7.76882 12.01752,7.76882c0,0 -0.3394,-5.62478 -11.93259,-5.92978c-10.82622,-0.28482 -11.21402,5.92485 -11.21402,5.92485c0,0 -2.72023,-7.8964 11.1291,-7.7639z" fill="#ffffff" stroke-width="0"/><path d="M262.75707,166.01212c0,0 -0.75493,15.57354 -11.57276,15.92252c-9.15734,0.2954 -11.01407,-15.7629 -11.01407,-15.7629c0,0 4.43915,13.19132 11.1737,12.57041c10.0799,-0.92936 11.41313,-12.73004 11.41313,-12.73004z" fill="#ffffff" stroke-width="0"/></g><g stroke-width="0"><path d="M241.25351,164.37363c0,0 -0.59304,-3.12298 -0.63612,-4.61628c-0.0406,-1.40761 0.38464,-4.10167 0.38464,-4.10167c0,0 0.62833,-1.20236 1.2419,-1.90159c0.12857,-0.14653 -0.2049,3.53128 -0.09326,3.42196c0.09386,-0.0919 0.66235,-3.94369 0.78427,-4.0499c0.77861,-0.67825 2.09075,-1.41031 2.09075,-1.41031c0,0 -1.17108,5.47416 -1.38812,8.28223c-0.22935,2.96718 0.04691,9.06984 0.04691,9.06984c0,0 -0.79396,-1.22277 -1.25951,-2.05625c-0.05496,-0.0984 -0.1188,-4.94445 -0.45423,-4.97217c-0.41427,-0.03422 0.17414,4.43355 0.10325,4.28017c-0.37513,-0.81163 -0.82046,-1.94604 -0.82046,-1.94604z" fill="#ffffff"/><path d="M244.52799,170.48628c0,0 0.04749,-6.82821 0.04749,-9.87753c0,-2.94647 1.51962,-8.97527 1.51962,-8.97527c0,0 1.87667,-0.44954 2.79282,-0.52992c0.88749,-0.07785 2.62084,0.05503 2.62084,0.05503c0,0 -0.23874,1.35508 -0.29042,2.08234c-0.05686,0.80019 -0.03665,2.52095 -0.03665,2.52095l-3.86099,1.42359l3.72023,0.42168c0,0 -0.3498,2.85781 -0.45975,4.37345c-0.11905,1.64085 -0.22941,5.12586 -0.22941,5.12586l-3.47816,-0.65878l3.34717,2.46417c0,0 -0.24808,2.11031 -0.3256,3.17876c-0.07882,1.08648 -0.14349,3.28696 -0.14349,3.28696c0,0 -1.95314,-0.98918 -2.81858,-1.79955c-0.87567,-0.81995 -2.40511,-3.09174 -2.40511,-3.09174z" fill="#ffffff"/><path d="M250.67533,175.36276c0,0 0.30961,-3.67154 0.6088,-6.6655c0.03634,-0.36365 -1.24705,-0.98624 -1.24705,-0.98624c0,0 1.26583,0.05216 1.30069,-0.31979c0.08636,-0.92165 0.1638,-1.96026 0.22232,-2.70898c0.14935,-1.91084 0.28963,-4.78161 0.45485,-7.47786c0.01045,-0.17056 -1.11536,-0.60757 -1.11536,-0.60757c0,0 1.21534,-0.30552 1.22262,-0.42562c0.16394,-2.70466 0.28757,-4.87383 0.28757,-4.87383c0,0 1.3365,-0.08875 2.07284,0.01166c0.8399,0.11454 1.77545,0.31355 1.77545,0.31355c0,0 -2.07719,14.26121 -1.88768,18.91587c0.0143,0.35156 2.57449,-2.04629 2.58528,-1.78136c0.07573,1.86035 0.16962,4.1666 0.16962,4.1666c0,0 -1.71076,1.39982 -2.74954,1.79264c-1.10687,0.41856 -3.70042,0.64641 -3.70042,0.64641z" fill="#ffffff"/><path d="M257.82992,172.79376l-0.32747,-4.92686l-2.27148,1.18682c0,0 0.51836,-6.27798 0.83714,-9.21704c0.29228,-2.69466 1.00298,-7.53101 1.00298,-7.53101c0,0 6.6982,0.99766 5.44353,9.86454c-0.22209,1.56954 -2.72275,5.20381 -2.72275,5.20381l-0.11914,3.1433c0,0 -0.46127,0.76903 -0.74552,1.10346c-0.32464,0.38193 -1.09732,1.173 -1.09732,1.173z" fill="#ffffff"/><path d="M259.33761,164.68215c0.30913,-0.63889 0.4124,-1.19315 0.80054,-0.88264c0.38813,0.3105 -0.22586,0.87183 -0.39001,1.21107c-0.16415,0.33924 -0.37661,1.15609 -0.71843,0.88264c-0.34181,-0.27345 -0.00125,-0.57218 0.3079,-1.21107z" fill="#000000"/></g></g><path d="M250.52169,141.59223c-1.03376,0 -3.5381,-3.26042 -3.7867,-5.3637c-0.22243,-1.88186 1.31512,-3.82799 3.7867,-3.82799c2.47159,0 4.2021,0.49077 4.02999,4.18853c-0.14607,3.13818 -1.55841,5.00317 -4.02999,5.00317z" fill="#ffffff" stroke="#000000" stroke-width="1.15" stroke-linecap="butt"/><path d="M254.1238,111.49851c0,0 0.1026,3.96976 0.00576,7.12662c-0.19174,6.25113 -1.08147,27.7607 -1.08147,27.7607l-2.98167,0.00864c0,0 -0.80294,-4.17274 -1.12322,-9.49979c-0.43353,-7.21063 -0.4495,-16.29321 -0.76344,-19.63229c-0.29758,-3.16513 -0.89593,-5.71453 -0.89593,-5.71453" fill="#ffffff" stroke="#000000" stroke-width="1.3" stroke-linecap="round"/><path d="M224.58919,122.28835c0,0 -4.93211,-3.51705 -6.16417,-8.97502c-1.29636,-5.74284 -1.46118,-9.7328 0.48013,-9.99193c1.94131,-0.25915 2.70321,2.37692 3.73262,8.35569c1.0294,5.97877 1.95143,10.61127 1.95143,10.61127z" data-paper-data="{&quot;index&quot;:null}" fill="#ffffff" stroke="#000000" stroke-width="1" stroke-linecap="butt"/><path d="M224.3866,118.34079c0,0 -3.56385,-2.92338 -4.31816,-8.45061c-0.42079,-3.08327 2.15675,-2.28016 2.15675,-2.28016" fill="none" stroke="#000000" stroke-width="0.25" stroke-linecap="round"/><path d="M227.4,111.68489c0.07093,-4.89188 4.83834,-8.93609 10.21137,-8.8582c5.37302,0.0779 9.02724,4.2484 8.95632,9.14029c-0.07093,4.89188 -4.12352,8.79439 -9.49655,8.7165c-5.37302,-0.0779 -9.74207,-4.1067 -9.67114,-8.99859z" fill="#ffffff" stroke="#000000" stroke-width="1.4" stroke-linecap="butt"/><path d="M254.45627,111.68562c0.20353,-4.88817 4.45264,-8.85847 9.77048,-8.85847c5.31783,0 9.27453,3.96607 9.27453,8.85847c0,4.8924 -3.88585,9.07104 -9.69964,9.14188c-5.52997,0.06739 -9.55792,-4.03692 -9.34537,-9.14188z" fill="#ffffff" stroke="#000000" stroke-width="1.4" stroke-linecap="butt"/><path d="M230.86142,101.14105c0,0 3.36963,-1.819 8.03244,-2.28178c5.16698,-0.51283 7.76823,-0.06628 7.76823,-0.06628l0.29508,4.13747c0,0 -3.83554,-0.68065 -8.01795,-0.52113c-5.59346,0.21333 -6.64488,1.43293 -10.89774,1.89119c-3.64408,0.39266 -6.73723,0.15884 -6.73723,0.15884l-0.02589,-1.23155c0,0 3.59517,0.07398 5.23371,-0.06836c1.35239,-0.11749 3.9757,-0.93808 3.9757,-0.93808z" fill="#000000" stroke="none" stroke-width="1.5" stroke-linecap="butt"/><path d="M278.82235,111.67708c1.0294,-5.97877 1.7913,-8.61483 3.73262,-8.35569c1.94131,0.25914 1.77649,4.24909 0.48013,9.99193c-1.23206,5.45797 -6.16417,8.97502 -6.16417,8.97502c0,0 0.92203,-4.6325 1.95143,-10.61127z" data-paper-data="{&quot;index&quot;:null}" fill="#ffffff" stroke="#000000" stroke-width="1" stroke-linecap="butt"/><path d="M279.23492,107.61002c0,0 2.57754,-0.80312 2.15675,2.28016c-0.75431,5.52723 -4.31816,8.45061 -4.31816,8.45061" data-paper-data="{&quot;index&quot;:null}" fill="none" stroke="#000000" stroke-width="0.25" stroke-linecap="round"/><path d="M220.92826,128.64392c0,0 -4.04451,-12.64642 -4.46639,-17.40761c-0.53177,-6.00142 0.71515,-24.54628 0.71515,-24.54628l64.07528,-5.59609c0,0 4.11034,19.95716 4.60054,27.51646c0.33774,5.20829 -4.01481,19.7276 -4.01481,19.7276c0,0 -17.3711,3.55591 -28.2495,4.20312c-0.24782,0.01474 -0.1123,-2.07133 -0.1123,-2.07133c0,0 -0.6952,0.46666 -2.25267,0.48213c-1.55735,0.01547 -2.40147,-0.34332 -2.40147,-0.34332c0,0 0.44273,2.01981 -0.75193,1.95989c-10.77651,-0.54045 -27.1419,-3.92456 -27.1419,-3.92456z" fill="#000000" stroke="none" stroke-width="0" stroke-linecap="butt"/><g stroke="none" stroke-width="0" stroke-linecap="butt"><path d="M288.44232,83.61524c0.68956,-0.6822 3.95553,1.20679 0.885,9.19381c-3.16762,8.23954 -7.39777,9.12748 -7.39777,9.12748c0,0 -0.92858,-4.67553 -0.28337,-6.31381c0.59409,-1.50851 2.91006,-4.15348 4.01393,-5.85883c1.10387,-1.70535 2.34876,-5.71984 2.7822,-6.14866z" fill="#36494c"/><g><path d="M193.59955,114.18461l3.45469,-3.25342c0,0 2.7031,-0.11327 4.10365,-1.704c2.5222,-2.86471 8.58951,-12.20281 8.58951,-12.20281l0.90513,-10.90946c0,0 0.71714,-4.31956 20.72973,-4.24174c24.57374,0.09555 50.63253,12.32575 50.63253,12.32575c0,0 3.32724,6.65399 -2.26578,15.59376c-2.73536,4.37214 -8.77837,11.1671 -8.77837,11.1671c0,0 -10.98635,7.19337 -35.34051,5.62385c-1.56708,-0.10099 -3.10199,-0.24626 -4.60518,-0.4063c-29.25726,-3.11486 -37.42539,-11.99273 -37.42539,-11.99273z" fill="#739ea5"/><path d="M196.83247,110.84814c0,0 3.04676,-3.33693 4.89028,-5.35602c2.39896,-2.62743 8.28108,-9.06975 8.28108,-9.06975c0,0 -1.01586,7.4622 22.16924,8.28895c32.94897,1.17493 48.078,-0.76246 48.078,-0.76246c0,0 -4.40914,11.82464 -22.9019,16.715c-6.67987,1.76647 -15.92448,1.53745 -26.43841,1.05588c-0.42894,-0.01965 -0.85412,-0.04904 -1.27652,-0.06972c-26.53478,-1.29878 -32.80175,-10.80188 -32.80175,-10.80188z" fill="#90c5cd"/><path d="M235.92845,120.91332l13.11642,-15.91138l16.20046,0.02507l-13.06922,16.00578c0,0 -3.95708,1.30327 -9.02811,1.26797c-6.95745,-0.04843 -7.21955,-1.38744 -7.21955,-1.38744z" fill="#7dabb2"/><path d="M220.46981,120.83811l13.88043,-16.24177l10.32145,0.31121l-14.49989,16.24177c0,0 -0.87515,0.94741 -4.76259,0.08685c-5.34772,-1.18381 -4.9394,-0.39806 -4.9394,-0.39806z" fill="#7dabb2"/></g></g></g></g></svg>