<svg version="1.1" xmlns="http://www.w3.org/2000/svg" xmlns:xlink="http://www.w3.org/1999/xlink" width="125.85823" height="312.20303" viewBox="0,0,125.85823,312.20303"><defs><linearGradient x1="241.92171" y1="-697.6074" x2="241.92171" y2="689.58999" gradientUnits="userSpaceOnUse" id="color-1"><stop offset="0" stop-color="#ff0000"/><stop offset="1" stop-color="#ff0000" stop-opacity="0"/></linearGradient><radialGradient cx="254.31158" cy="122.64286" r="10.30169" gradientUnits="userSpaceOnUse" id="color-2"><stop offset="0" stop-color="#000000"/><stop offset="1" stop-color="#000000" stop-opacity="0"/></radialGradient><radialGradient cx="220.11414" cy="103.7949" r="13.3471" gradientUnits="userSpaceOnUse" id="color-3"><stop offset="0" stop-color="#970000"/><stop offset="1" stop-color="#ec0000"/></radialGradient><radialGradient cx="263.46885" cy="75.47861" r="6.0245" gradientUnits="userSpaceOnUse" id="color-4"><stop offset="0" stop-color="#970000"/><stop offset="1" stop-color="#ec0000"/></radialGradient><radialGradient cx="242.17092" cy="86.41024" r="72.08159" gradientUnits="userSpaceOnUse" id="color-5"><stop offset="0" stop-color="#000000"/><stop offset="1" stop-color="#000000" stop-opacity="0"/></radialGradient><radialGradient cx="241.13324" cy="113.16972" r="51.0163" gradientUnits="userSpaceOnUse" id="color-6"><stop offset="0" stop-color="#000000"/><stop offset="1" stop-color="#000000" stop-opacity="0"/></radialGradient><radialGradient cx="240.90221" cy="162.83859" r="32.29712" gradientUnits="userSpaceOnUse" id="color-7"><stop offset="0" stop-color="#000000"/><stop offset="1" stop-color="#000000" stop-opacity="0"/></radialGradient><radialGradient cx="254.31268" cy="138.48491" r="11.49124" gradientUnits="userSpaceOnUse" id="color-8"><stop offset="0" stop-color="#000000"/><stop offset="1" stop-color="#000000" stop-opacity="0"/></radialGradient><radialGradient cx="228.86451" cy="137.8955" r="15.33235" gradientUnits="userSpaceOnUse" id="color-9"><stop offset="0" stop-color="#000000"/><stop offset="1" stop-color="#000000" stop-opacity="0"/></radialGradient><radialGradient cx="240.21399" cy="145.51407" r="21.59166" gradientUnits="userSpaceOnUse" id="color-10"><stop offset="0" stop-color="#000000"/><stop offset="1" stop-color="#000000" stop-opacity="0"/></radialGradient><radialGradient cx="240.75787" cy="177.24822" r="13.73263" gradientUnits="userSpaceOnUse" id="color-11"><stop offset="0" stop-color="#000000"/><stop offset="1" stop-color="#000000" stop-opacity="0"/></radialGradient><radialGradient cx="240.86446" cy="165.49077" r="28.69129" gradientUnits="userSpaceOnUse" id="color-12"><stop offset="0" stop-color="#000000"/><stop offset="1" stop-color="#000000" stop-opacity="0"/></radialGradient><radialGradient cx="247.87123" cy="180.20221" r="7.41798" gradientUnits="userSpaceOnUse" id="color-13"><stop offset="0" stop-color="#000000"/><stop offset="1" stop-color="#000000" stop-opacity="0"/></radialGradient><radialGradient cx="247.8567" cy="190.62069" r="4.86551" gradientUnits="userSpaceOnUse" id="color-14"><stop offset="0" stop-color="#000000"/><stop offset="1" stop-color="#000000" stop-opacity="0"/></radialGradient><radialGradient cx="262.26353" cy="82.36492" r="14.92482" gradientUnits="userSpaceOnUse" id="color-15"><stop offset="0" stop-color="#000000"/><stop offset="1" stop-color="#000000" stop-opacity="0"/></radialGradient><radialGradient cx="205.30999" cy="101.35911" r="12.84265" gradientUnits="userSpaceOnUse" id="color-16"><stop offset="0" stop-color="#000000"/><stop offset="1" stop-color="#000000" stop-opacity="0"/></radialGradient><radialGradient cx="206.20416" cy="101.39567" r="7.52891" gradientUnits="userSpaceOnUse" id="color-17"><stop offset="0" stop-color="#000000"/><stop offset="1" stop-color="#000000" stop-opacity="0"/></radialGradient><radialGradient cx="258.20324" cy="102.82511" r="14.90947" gradientUnits="userSpaceOnUse" id="color-18"><stop offset="0" stop-color="#000000"/><stop offset="1" stop-color="#000000" stop-opacity="0"/></radialGradient><radialGradient cx="259.34452" cy="102.76838" r="13.10622" gradientUnits="userSpaceOnUse" id="color-19"><stop offset="0" stop-color="#000000"/><stop offset="1" stop-color="#000000" stop-opacity="0"/></radialGradient><radialGradient cx="223.1925" cy="81.68827" r="16.8605" gradientUnits="userSpaceOnUse" id="color-20"><stop offset="0" stop-color="#000000"/><stop offset="1" stop-color="#000000" stop-opacity="0"/></radialGradient><radialGradient cx="279.21828" cy="100.47558" r="11.9591" gradientUnits="userSpaceOnUse" id="color-21"><stop offset="0" stop-color="#000000"/><stop offset="1" stop-color="#000000" stop-opacity="0"/></radialGradient><radialGradient cx="278.0023" cy="100.58383" r="6.87734" gradientUnits="userSpaceOnUse" id="color-22"><stop offset="0" stop-color="#000000"/><stop offset="1" stop-color="#000000" stop-opacity="0"/></radialGradient><radialGradient cx="241.90468" cy="130.96521" r="5.79028" gradientUnits="userSpaceOnUse" id="color-23"><stop offset="0" stop-color="#000000"/><stop offset="1" stop-color="#000000" stop-opacity="0"/></radialGradient><radialGradient cx="242.01336" cy="120.82322" r="21.98259" gradientUnits="userSpaceOnUse" id="color-24"><stop offset="0" stop-color="#000000"/><stop offset="1" stop-color="#000000" stop-opacity="0"/></radialGradient><radialGradient cx="257.34251" cy="25.12465" r="23.01272" gradientUnits="userSpaceOnUse" id="color-25"><stop offset="0" stop-color="#000000"/><stop offset="1" stop-color="#000000" stop-opacity="0"/></radialGradient><radialGradient cx="257.35423" cy="23.59761" r="21.41818" gradientUnits="userSpaceOnUse" id="color-26"><stop offset="0" stop-color="#000000"/><stop offset="1" stop-color="#000000" stop-opacity="0"/></radialGradient><radialGradient cx="273.77034" cy="5.18637" r="6.83941" gradientUnits="userSpaceOnUse" id="color-27"><stop offset="0" stop-color="#000000"/><stop offset="1" stop-color="#000000" stop-opacity="0"/></radialGradient><radialGradient cx="263.02244" cy="28.80249" r="12.88659" gradientUnits="userSpaceOnUse" id="color-28"><stop offset="0" stop-color="#000000"/><stop offset="1" stop-color="#000000" stop-opacity="0"/></radialGradient><radialGradient cx="272.00953" cy="34.71948" r="2.20506" gradientUnits="userSpaceOnUse" id="color-29"><stop offset="0" stop-color="#000000"/><stop offset="1" stop-color="#000000" stop-opacity="0"/></radialGradient><radialGradient cx="252.8092" cy="30.00221" r="1.7806" gradientUnits="userSpaceOnUse" id="color-30"><stop offset="0" stop-color="#000000"/><stop offset="1" stop-color="#000000" stop-opacity="0"/></radialGradient><radialGradient cx="274.89713" cy="7.38218" r="4.65349" gradientUnits="userSpaceOnUse" id="color-31"><stop offset="0" stop-color="#000000"/><stop offset="1" stop-color="#000000" stop-opacity="0"/></radialGradient><radialGradient cx="260.23371" cy="20.42079" r="5.37646" gradientUnits="userSpaceOnUse" id="color-32"><stop offset="0" stop-color="#000000"/><stop offset="1" stop-color="#000000" stop-opacity="0"/></radialGradient><radialGradient cx="260.24662" cy="24.18552" r="1.88985" gradientUnits="userSpaceOnUse" id="color-33"><stop offset="0" stop-color="#000000"/><stop offset="1" stop-color="#000000" stop-opacity="0"/></radialGradient><radialGradient cx="262.69088" cy="27.46127" r="1.13391" gradientUnits="userSpaceOnUse" id="color-34"><stop offset="0" stop-color="#000000"/><stop offset="1" stop-color="#000000" stop-opacity="0"/></radialGradient><radialGradient cx="257.90012" cy="118.59093" r="10.99917" gradientUnits="userSpaceOnUse" id="color-35"><stop offset="0" stop-color="#000000"/><stop offset="1" stop-color="#000000" stop-opacity="0"/></radialGradient><radialGradient cx="219.1237" cy="96.87324" r="34.4517" gradientUnits="userSpaceOnUse" id="color-36"><stop offset="0" stop-color="#000000"/><stop offset="1" stop-color="#000000" stop-opacity="0"/></radialGradient><radialGradient cx="220.22791" cy="100.09424" r="19.11506" gradientUnits="userSpaceOnUse" id="color-37"><stop offset="0" stop-color="#000000"/><stop offset="1" stop-color="#000000" stop-opacity="0"/></radialGradient><radialGradient cx="220.20951" cy="99.85832" r="14.29789" gradientUnits="userSpaceOnUse" id="color-38"><stop offset="0" stop-color="#000000"/><stop offset="1" stop-color="#000000" stop-opacity="0"/></radialGradient><radialGradient cx="226.29647" cy="126.62271" r="5.75118" gradientUnits="userSpaceOnUse" id="color-39"><stop offset="0" stop-color="#000000"/><stop offset="1" stop-color="#000000" stop-opacity="0"/></radialGradient><radialGradient cx="218.33807" cy="130.35949" r="5.54077" gradientUnits="userSpaceOnUse" id="color-40"><stop offset="0" stop-color="#000000"/><stop offset="1" stop-color="#000000" stop-opacity="0"/></radialGradient><radialGradient cx="211.84988" cy="128.15919" r="6.75629" gradientUnits="userSpaceOnUse" id="color-41"><stop offset="0" stop-color="#000000"/><stop offset="1" stop-color="#000000" stop-opacity="0"/></radialGradient><radialGradient cx="237.14038" cy="114.25317" r="15.52206" gradientUnits="userSpaceOnUse" id="color-42"><stop offset="0" stop-color="#000000"/><stop offset="1" stop-color="#000000" stop-opacity="0"/></radialGradient><radialGradient cx="210.20029" cy="99.17024" r="14.61475" gradientUnits="userSpaceOnUse" id="color-43"><stop offset="0" stop-color="#000000"/><stop offset="1" stop-color="#000000" stop-opacity="0"/></radialGradient><radialGradient cx="207.57948" cy="98.50777" r="6.04748" gradientUnits="userSpaceOnUse" id="color-44"><stop offset="0" stop-color="#000000"/><stop offset="1" stop-color="#000000" stop-opacity="0"/></radialGradient><radialGradient cx="233.24262" cy="103.36843" r="8.81925" gradientUnits="userSpaceOnUse" id="color-45"><stop offset="0" stop-color="#000000"/><stop offset="1" stop-color="#000000" stop-opacity="0"/></radialGradient><radialGradient cx="256.67798" cy="119.14368" r="5.35455" gradientUnits="userSpaceOnUse" id="color-46"><stop offset="0" stop-color="#000000"/><stop offset="1" stop-color="#000000" stop-opacity="0"/></radialGradient><radialGradient cx="263.19601" cy="121.66346" r="7.66434" gradientUnits="userSpaceOnUse" id="color-47"><stop offset="0" stop-color="#000000"/><stop offset="1" stop-color="#000000" stop-opacity="0"/></radialGradient><radialGradient cx="247.41018" cy="117.46381" r="9.55419" gradientUnits="userSpaceOnUse" id="color-48"><stop offset="0" stop-color="#000000"/><stop offset="1" stop-color="#000000" stop-opacity="0"/></radialGradient><radialGradient cx="252.095" cy="119.98362" r="6.61444" gradientUnits="userSpaceOnUse" id="color-49"><stop offset="0" stop-color="#000000"/><stop offset="1" stop-color="#000000" stop-opacity="0"/></radialGradient><radialGradient cx="265.33476" cy="121.97844" r="10.91906" gradientUnits="userSpaceOnUse" id="color-50"><stop offset="0" stop-color="#000000"/><stop offset="1" stop-color="#000000" stop-opacity="0"/></radialGradient><radialGradient cx="258.71488" cy="121.02209" r="6.50944" gradientUnits="userSpaceOnUse" id="color-51"><stop offset="0" stop-color="#000000"/><stop offset="1" stop-color="#000000" stop-opacity="0"/></radialGradient><radialGradient cx="266.14698" cy="75.15257" r="16.75209" gradientUnits="userSpaceOnUse" id="color-52"><stop offset="0" stop-color="#000000"/><stop offset="1" stop-color="#000000" stop-opacity="0"/></radialGradient><radialGradient cx="266.37337" cy="69.38783" r="10.94089" gradientUnits="userSpaceOnUse" id="color-53"><stop offset="0" stop-color="#000000"/><stop offset="1" stop-color="#000000" stop-opacity="0"/></radialGradient><radialGradient cx="266.69529" cy="69.19945" r="6.20476" gradientUnits="userSpaceOnUse" id="color-54"><stop offset="0" stop-color="#000000"/><stop offset="1" stop-color="#000000" stop-opacity="0"/></radialGradient><radialGradient cx="272.94036" cy="21.25556" r="5.94405" gradientUnits="userSpaceOnUse" id="color-55"><stop offset="0" stop-color="#000000"/><stop offset="1" stop-color="#000000" stop-opacity="0"/></radialGradient><radialGradient cx="261.93376" cy="41.90268" r="5.55841" gradientUnits="userSpaceOnUse" id="color-56"><stop offset="0" stop-color="#000000"/><stop offset="1" stop-color="#000000" stop-opacity="0"/></radialGradient><radialGradient cx="259.37101" cy="37.61488" r="16.73346" gradientUnits="userSpaceOnUse" id="color-57"><stop offset="0" stop-color="#000000"/><stop offset="1" stop-color="#000000" stop-opacity="0"/></radialGradient><radialGradient cx="260.83761" cy="37.22787" r="2.08876" gradientUnits="userSpaceOnUse" id="color-58"><stop offset="0" stop-color="#000000"/><stop offset="1" stop-color="#000000" stop-opacity="0"/></radialGradient></defs><g transform="translate(-179.24179,1.65304)"><g data-paper-data="{&quot;isPaintingLayer&quot;:true}" fill-rule="nonzero" stroke-linejoin="miter" stroke-miterlimit="10" stroke-dasharray="" stroke-dashoffset="0" style="mix-blend-mode: normal"><path d="M190.72784,308.83549c0,0 5.31399,-111.57556 5.14341,-137.87558c-0.05886,-9.07451 8.83952,-40.91827 43.4068,-41.09615c17.43477,-0.08972 28.28792,8.48128 34.73233,17.98609c-0.32762,1.45244 -0.64028,2.9159 -1.01643,4.31226c-0.95708,2.31527 -1.90327,4.61676 -2.71645,6.98672c-0.111,0.32351 -0.8114,1.90439 -0.50726,2.18014c0.14459,0.13109 1.056,-0.24764 1.23269,-0.31394c1.26179,-1.05802 2.85048,-2.09765 3.88303,-3.41701c-0.0285,0.67403 0.18839,1.52403 0.23809,2.05766c0.21585,2.31727 0.48795,4.63213 0.54749,6.95901c0.08947,3.49661 0.21283,6.99378 0.22339,10.49157c0.00101,0.33333 0.00353,1.16657 0.00454,1.4999c0,0.00003 0,0.00007 0,0.0001c0.00041,0.13772 0.11218,0.24924 0.25,0.24924c0.07491,0 0.14213,-0.03295 0.18795,-0.08515l0.33076,-0.37326l-0.10338,-0.0916c1.4599,-2.02812 1.70058,-7.06158 2.33033,-9.23602c0.34791,-1.20134 0.97768,-2.30297 1.39182,-3.4678c0.05867,0.75878 0.30899,1.62493 0.3896,2.21865c0.29503,2.17296 0.46909,4.24141 0.47042,6.4347c0.00212,3.50477 0.05831,7.00125 0.15525,10.50466c0.08632,3.11973 -0.05925,6.43503 0.53899,9.50193l0.05271,0.48627c0.01208,0.12681 0.11889,0.226 0.24886,0.226c0.08994,0 0.16877,-0.04749 0.21282,-0.11875l0.26727,-0.41763l-0.03695,-0.02365c0.0351,-0.04326 0.06984,-0.08705 0.10423,-0.13136c0.07069,2.28376 0.14997,4.59387 0.23691,6.92326c1.83481,49.15955 7.08292,106.90752 7.08292,106.90752l-15.33344,0.44034c0,0 -0.02526,-17.07387 -0.04361,-31.41953c-0.03143,-24.56274 -3.12787,-102.59545 -3.12787,-102.59545c0,0 0.08151,-3.44977 -3.04075,-3.51082c-3.70819,-0.0725 -3.18018,3.46794 -3.18018,3.46794l0.22186,134.04487l-52.05712,0.08039l-0.32973,-134.44907c0,0 0.30177,-3.24908 -3.11563,-3.26625c-3.35882,-0.01687 -3.04015,3.23794 -3.04015,3.23794c0,0 -3.10599,81.3947 -3.0371,105.65622c0.03691,12.99757 1.41836,28.60775 1.41836,28.60775z" fill="#ffffff" stroke="#000000" stroke-width="2" stroke-linecap="butt"/><path d="M194.44266,160.53007c0.1713,-3.28432 1.77468,-7.28312 1.92772,-8.87799c0.3658,-3.81186 10.384,-6.21146 10.384,-6.21146l65.50284,-1.46872c0,0 1.01874,0.5357 2.3567,1.36532c-0.58832,2.23655 -1.02462,4.61478 -1.61998,6.82491c-0.95708,2.31527 -1.90327,4.61676 -2.71645,6.98672c-0.111,0.32351 -0.8114,1.90439 -0.50726,2.18014c0.14459,0.13109 1.056,-0.24764 1.23269,-0.31394c1.26179,-1.05802 2.85048,-2.09765 3.88303,-3.41701c-0.0285,0.67403 0.18839,1.52403 0.23809,2.05766c0.21585,2.31727 0.48795,4.63213 0.54749,6.95901c0.08947,3.49661 0.21283,6.99378 0.22339,10.49157c0.00101,0.33333 0.00353,1.16657 0.00454,1.4999c0,0.00003 0,0.00007 0,0.0001c0.00041,0.13772 0.11218,0.24924 0.25,0.24924c0.07491,0 0.14213,-0.03295 0.18795,-0.08515l0.33076,-0.37326l-0.10338,-0.0916c1.4599,-2.02812 1.70058,-7.06158 2.33033,-9.23602c0.34791,-1.20134 0.97768,-2.30297 1.39182,-3.4678c0.05867,0.75878 0.30899,1.62493 0.3896,2.21865c0.29503,2.17296 0.46909,4.24141 0.47042,6.4347c0.00212,3.50477 0.05831,7.00125 0.15525,10.50466c0.08632,3.11973 -0.05925,6.43503 0.53899,9.50193l0.05271,0.48627c0.01208,0.12681 0.11889,0.226 0.24886,0.226c0.08994,0 0.16877,-0.04749 0.21282,-0.11875l0.26727,-0.41763l-0.03695,-0.02365c0.77707,-0.95771 1.37636,-2.17638 1.90845,-3.45665c0.46301,11.2619 0.95733,24.13138 1.43975,37.14329c-0.38577,0.59154 -0.75351,1.19612 -1.09748,1.81823c-1.12904,2.04199 -2.25808,4.08397 -3.38712,6.12596c-0.2775,0.50189 -0.81165,1.22995 -1.01905,1.89066c-0.36426,-1.67476 -0.5734,-3.33567 -0.7717,-5.04498c-0.40319,-3.47539 -0.71677,-6.97616 -1.24779,-10.43426c-0.39487,-2.57148 -0.28692,-6.9781 -1.6775,-9.38512l0.06294,-0.03168l-0.22235,-0.44181c-0.04021,-0.08424 -0.12618,-0.14243 -0.22574,-0.14243c-0.12711,0 -0.23207,0.09487 -0.24793,0.21766l-0.07152,0.49109c-0.26405,1.81307 -0.5312,3.62389 -0.83237,5.4312c-0.57532,3.45247 -1.15363,6.90446 -1.72547,10.35751c-0.4619,2.78918 -1.5237,6.09988 -1.67635,8.92522c-0.19869,-0.86732 -0.37072,-1.73165 -0.51984,-2.6113c-0.58704,-3.46295 -1.29286,-6.8779 -2.05286,-10.30686c-0.75718,-3.41628 -1.34152,-6.85857 -1.94883,-10.30437c-0.10005,-0.56771 -0.4171,-4.47656 -0.92028,-4.62129c-0.86158,-0.24783 -0.74546,0.68532 -0.75389,1.01963c-0.04197,1.66416 -0.00059,3.3349 -0.00089,4.99967c-0.00939,3.48521 0.11748,7.00222 -0.13019,10.47877c-0.20774,2.9161 -0.31843,5.89598 -0.48694,8.77166c-0.02193,0.3743 -0.28495,-0.69367 -0.42174,-1.04277c-0.28605,-3.49447 -0.6667,-6.9414 -1.1924,-10.40752c-0.52401,-3.45497 -0.80761,-6.94509 -1.16309,-10.42123c-0.06343,-0.62027 -0.69563,-5.34789 -1.98108,-4.73138c-0.15226,0.07302 -0.12748,1.02823 -0.12818,1.21523c-0.00563,1.49964 -0.06276,2.98589 -0.14616,4.48316c-0.19632,3.52448 -0.37847,6.92221 -1.07104,10.38612c-0.68486,3.42534 -1.32599,6.81264 -1.75958,10.27854c-0.05361,-0.51044 -0.28339,-2.15069 -0.35346,-2.6187c-0.32268,-2.15526 -0.9606,-4.23638 -1.52617,-6.33988c-0.91005,-3.38469 -1.96081,-6.72253 -2.98476,-10.07425c-0.13264,-0.43419 -0.44336,-2.33664 -0.84133,-2.53251c-0.87698,-0.43162 -1.26017,1.03858 -1.51208,1.54322c-0.9034,1.80976 -1.78886,3.58113 -2.49481,5.47769c-1.22095,3.28014 -2.4419,6.56027 -3.66285,9.8404c-0.79662,2.14812 -1.08949,4.61172 -1.5674,6.85378c-0.04627,0.21707 -0.88383,1.96737 -0.94512,1.96357c-0.26244,-0.01622 -0.11516,-0.51827 -0.23143,-0.75412c-1.45253,-3.22075 -2.74457,-6.35905 -3.80513,-9.73026c-1.05492,-3.35332 -2.2707,-6.61831 -3.52521,-9.90175c-0.50256,-1.31536 -1.66137,-6.06056 -3.45517,-6.23492c-0.9796,-0.09521 -1.3699,2.61033 -1.5779,3.29893c-1.00973,3.34272 -2.33154,6.58873 -3.55739,9.85797c-1.22887,3.2773 -2.45482,6.55566 -3.67962,9.83447c-0.81033,2.16925 -1.73562,4.39091 -2.29963,6.63985c-0.14222,0.56712 -0.13716,2.6757 -0.6024,2.9266c0.77698,-2.83604 -0.39159,-7.38883 -0.76172,-10.29591c-0.43922,-3.44977 -0.65174,-7.03329 -1.42713,-10.42292c-0.15519,-0.67841 -0.94356,-5.68018 -2.17676,-4.07372c-0.71208,0.92761 -0.34469,3.99662 -0.97034,5.34031c-1.4863,3.19208 -3.00231,6.32877 -4.16709,9.6532c-1.14331,3.26314 -2.08288,6.71499 -3.63779,9.80381c-0.58575,1.16358 -1.22277,3.48216 -2.13945,4.35623c-0.20679,0.19718 -0.35694,-1.23988 -0.37934,-1.37446c-0.19139,-1.1498 -0.36944,-2.30083 -0.54234,-3.45355c-0.51997,-3.46662 -0.92997,-6.91701 -1.26375,-10.40642c-0.28725,-3.00304 -0.27052,-6.5365 -1.42727,-9.40339l0.02924,-0.00652l-0.10761,-0.48323c-0.02298,-0.11434 -0.12398,-0.20047 -0.24509,-0.20047c-0.11087,0 -0.20489,0.07217 -0.23763,0.17209l-0.16483,0.46589c-0.90431,2.556 -2.85365,4.94569 -4.39742,7.16516c-0.63205,0.90869 -1.2641,1.81739 -1.89615,2.72608c0.47024,-29.40716 1.10122,-59.61202 1.85927,-74.14602z" fill="#111111" stroke="none" stroke-width="0" stroke-linecap="butt"/><path d="M286.96317,227.81518c-0.72735,0.62708 -1.41487,1.27417 -1.8822,2.01296c-0.42266,1.04337 -1.03859,2.26528 -1.75067,3.4604c-0.04142,-14.65431 -0.16898,-28.73451 -0.30209,-39.47386c1.08974,-1.61478 1.81327,-3.74987 2.5689,-5.68708c0.67903,16.73489 1.20617,34.21723 1.36606,39.68759z" data-paper-data="{&quot;index&quot;:null}" fill="#070707" stroke="none" stroke-width="0" stroke-linecap="butt"/><path d="M191.4224,229.65736c0,0 1.79427,-63.87246 3.42158,-75.3076c0.46521,-3.26898 8.45531,-8.15169 8.45531,-8.15169c0,0 -7.46066,21.39501 -7.68394,33.62363c-0.17283,9.4655 -0.4305,29.74688 -0.50378,51.59151c-0.44167,0.63659 -0.88941,1.27084 -1.31606,1.91546c-0.78873,0.98987 -1.58143,1.97706 -2.37311,2.96519z" fill="#070707" stroke="none" stroke-width="0" stroke-linecap="butt"/><path d="M255.67733,186.49207c-0.61666,0 -1.11655,-0.51535 -1.11655,-1.15105c0,-0.63571 0.4999,-1.15107 1.11655,-1.15107c0.61666,0 1.11655,0.51536 1.11655,1.15107c0,0.63571 -0.4999,1.15105 -1.11655,1.15105z" fill="#000000" stroke="none" stroke-width="1.5" stroke-linecap="butt"/><path d="M249.99816,191.20662c-4.81932,-0.34994 -7.07479,-1.99678 -6.66169,-2.87187c0.12728,-0.26963 3.07336,1.18381 7.52604,1.45235c6.91988,0.41733 9.18875,-0.70317 9.18875,-0.70317v1.49838c0,0 -2.6059,1.16508 -10.0531,0.62431z" fill="#000000" stroke="#000000" stroke-width="0" stroke-linecap="butt"/><path d="M219.96825,185.34102c0,-0.63571 0.4999,-1.15107 1.11655,-1.15107c0.61666,0 1.11657,0.51536 1.11657,1.15107c0,0.63571 -0.49991,1.15105 -1.11657,1.15105c-0.61666,0 -1.11655,-0.51535 -1.11655,-1.15105z" fill="#000000" stroke="none" stroke-width="1.5" stroke-linecap="butt"/><path d="M226.76397,191.20662c-7.4472,0.54079 -10.0531,-0.62431 -10.0531,-0.62431v-1.49838c0,0 2.26887,1.1205 9.18875,0.70317c4.45268,-0.26854 7.39877,-1.72198 7.52605,-1.45235c0.4131,0.87508 -1.84236,2.52192 -6.66169,2.87187z" fill="#000000" stroke="#000000" stroke-width="0" stroke-linecap="butt"/><path d="M238.94368,260.33865c-0.88423,0 -1.60105,-0.73896 -1.60105,-1.65052c0,-0.91155 0.71681,-1.65052 1.60105,-1.65052c0.88423,0 1.60105,0.73896 1.60105,1.65052c0,0.91155 -0.71681,1.65052 -1.60105,1.65052z" data-paper-data="{&quot;index&quot;:null}" fill="#000000" stroke="none" stroke-width="1.5" stroke-linecap="butt"/><path d="M212.96217,308.51822v-138.8662c0,0 0.81757,-10.83144 0.81757,-16.29479c0,-5.00664 -0.81757,-15.23496 -0.81757,-15.23496c0,0 2.88629,-2.61904 5.02684,-4.17191c2.14055,-1.55285 5.58427,-3.12075 5.58427,-3.12075c0,0 -0.64956,36.29646 15.72016,36.21815c16.66519,-0.07972 14.93415,-36.21815 14.93415,-36.21815c0,0 4.22467,1.69143 6.65737,3.27975c2.4327,1.58831 5.13275,4.01291 5.13275,4.01291c0,0 -0.81757,10.49037 -0.81757,15.79685c0,5.38946 0.81757,16.29479 0.81757,16.29479v138.30432z" fill="#000000" stroke="#000000" stroke-width="2" stroke-linecap="butt"/><path d="M261.46002,310.16256c-0.80979,0 -0.80979,-0.83481 -0.80979,-0.83481l0.04156,-0.10704c-1.51606,-4.68875 -4.43806,-8.40483 -5.77839,-13.42916c-0.64054,-2.40115 0.35254,-5.23086 0.33824,-7.61233c0,-0.51136 0.25357,-5.01309 -0.27218,-5.18975c-2.12065,-0.71257 -4.2592,3.78432 -6.49826,2.58654c-0.79655,-0.42612 -1.24597,-1.90508 -1.4751,-2.72879c-0.80191,-2.88288 -0.93922,-7.91868 -0.02184,-10.75587c-0.01775,-2.29225 -0.43344,-4.19257 -0.72421,-6.44276c-0.04908,-0.3798 0.26672,-1.19172 -0.10214,-1.14466c-3.34914,0.42734 -6.54602,10.91087 -9.87189,5.17194c-0.28205,-0.4867 -0.49615,-1.01199 -0.73923,-1.52054c-0.49353,-1.03254 -0.79491,-2.19983 -0.80979,-3.3508c0,-8.85352 4.08935,-25.70643 0.05029,-34.09379c-0.1861,-2.10214 -2.04033,-0.3156 -3.26638,0.52452c-2.01423,1.38019 -5.57805,3.7355 -8.16091,2.5543c-4.00371,-1.83097 -0.12241,-8.97289 -0.13999,-11.90207c0,-2.42396 -0.0093,-8.33068 -2.09166,-10.02375c-0.20483,-0.16654 -2.27494,1.02793 -2.54715,1.14831c-2.53651,1.12173 -4.10121,2.55897 -5.34409,5.16748c0,0 -0.36215,0.74669 -1.08644,0.37335c-0.7243,-0.37334 -0.36215,-1.12002 -0.36215,-1.12002c1.77868,-3.61281 3.878,-4.61369 7.20672,-6.31301c1.02025,-0.52084 1.50921,-1.5049 2.89732,-0.72817c0.86655,0.48488 1.18356,1.83385 1.46585,2.69819c0.97901,2.99774 1.48118,5.64472 1.48118,8.79761c-0.01354,2.70997 -1.43963,5.10051 -1.43963,7.79156c0,0.42347 -0.21607,2.31995 0.57982,2.56797c3.90933,1.2183 10.4746,-7.63947 12.32648,-2.11555c4.19831,8.58771 0.05029,25.61955 0.05029,34.67307c-0.01501,0.89522 0.24516,1.80599 0.6388,2.60411c0.01424,0.02888 1.04708,2.74564 1.60451,2.51983c2.84024,-1.15055 3.78967,-8.2952 7.93012,-7.04952c2.44952,0.73695 2.06662,7.35748 2.0529,9.47981c-0.7294,2.25581 -1.312,9.90953 0.66248,11.74515c0.06516,0.06058 3.47931,-2.22068 3.75071,-2.30262c4.33321,-1.30806 3.87508,3.22707 3.87508,6.37788c-0.01092,2.18597 -1.01464,5.04676 -0.38156,7.22873c1.43208,4.93583 4.2257,8.60583 5.7386,13.28478l0.04155,0.63501c0,0 0,0.83481 -0.80979,0.83481z" fill="#ec0000" stroke="none" stroke-width="0.5" stroke-linecap="butt"/><path d="M256.78351,310.44545c-0.7243,0.37334 -1.08644,-0.37335 -1.08644,-0.37335l-0.20822,-0.52509c-2.29681,-2.36778 -3.44804,-6.86485 -3.47633,-10.237c0,-1.39834 0.49584,-6.11341 -0.74342,-7.11433c-1.29262,-1.04401 -3.57955,1.81662 -5.35813,0.77025c-3.85946,-2.27063 -3.53979,-9.25917 -3.65283,-13.07141c-0.16708,-0.86449 0.09533,-5.86575 -0.90281,-6.15616c-2.09544,-0.60969 -4.18336,1.32096 -5.85851,1.85514c-1.16403,0.37119 -3.51223,-0.06921 -4.61821,-0.62033c-3.09771,-1.54362 -2.97977,-5.3847 -2.97977,-8.68456c0,-4.21833 0.45824,-14.93072 -0.00352,-19.11807c-0.08105,-0.73498 -0.07331,-3.65187 -0.69213,-4.16648c-1.04329,-0.86762 -4.24129,1.3382 -5.0981,1.57296c-3.85489,1.05624 -4.75587,-2.4124 -5.33619,-5.40807c-1.42608,-4.5202 0.87566,-9.11602 0.24631,-13.66859c-0.03526,-0.25508 -0.35659,-3.06412 -0.65694,-3.30669c-1.17364,-0.94792 -2.81894,1.69142 -3.07714,2.55497c0,0 -0.25608,0.79197 -1.02431,0.52798c-0.76823,-0.26399 -0.51215,-1.05597 -0.51215,-1.05597c1.25216,-3.67123 5.52698,-5.37985 6.59283,-0.67929c1.13892,5.02281 -1.6124,10.35836 -0.00325,15.19907c0.17024,0.8762 0.40638,3.34294 1.16367,4.01541c2.11975,1.88235 6.11931,-3.17568 8.55676,-1.17202c1.55027,1.27437 0.92862,2.19888 1.09903,3.77277c0.52742,4.87107 0.36474,16.00365 0.36474,20.93204c0,3.15168 -0.30897,6.55687 2.97374,7.34973c0.32137,0.07762 1.89834,0.59931 2.38489,0.41263c1.83603,-0.70443 4.78355,-2.9324 7.09809,-1.85514c2.3592,1.09806 1.48147,5.39969 1.89188,7.50699c0.12426,3.69511 -0.14934,8.0846 2.26659,11.12698c1.73693,2.18731 3.77855,-1.74579 6.0825,0.0114c1.91823,1.463 1.41601,6.43519 1.41601,8.46879c-0.03099,2.90243 1.03259,7.02615 3.00197,9.0564l0.51159,0.959c0,0 0.36215,0.74668 -0.36215,1.12002z" fill="#ec0000" stroke="none" stroke-width="0.5" stroke-linecap="butt"/><path d="M231.98998,210.06607l0.53041,0.10036c0.89975,0.97715 2.29268,1.12652 3.1976,1.88203c2.02783,1.69305 2.08473,3.53215 2.05659,5.94957c-1.83945,3.84842 -4.29973,5.09849 -8.26477,3.56028c-1.0941,-0.42445 -1.52954,-0.31985 -2.20985,-1.45806c-1.11495,-1.86542 -0.48937,-6.0068 0.3006,-7.80786c0.57704,-1.3156 2.1416,-1.53316 3.05478,-2.49699c0,0 0.57261,-0.5903 1.14521,0c0.08821,0.09094 0.14926,0.18189 0.18939,0.27068z" fill="#ec0000" stroke="none" stroke-width="0.5" stroke-linecap="butt"/><path d="M244.74368,246.87837c3.13706,2.16939 3.89089,1.02876 3.82809,4.81209c-0.73049,1.54804 -2.75129,7.47005 -4.56104,7.99015c-2.26779,0.65175 -4.37881,-3.54492 -4.58882,-5.1628c-0.47515,-3.66043 -0.30509,-6.33932 2.95647,-7.8117z" fill="#ec0000" stroke="none" stroke-width="0.5" stroke-linecap="butt"/><path d="M215.50332,296.87998c1.38997,-5.96717 2.09966,-12.12602 2.7852,-18.26822c-0.94834,-1.39684 -2.01954,-2.66268 -3.32213,-3.07934c-0.47505,-0.69266 -1.6638,-1.26614 -1.42514,-2.07797c0.23494,-0.79918 1.49566,-0.66676 2.28592,-0.85015c0.98507,-0.2286 2.07214,-0.28602 3.18176,-0.27451c0.13991,-1.14583 0.28686,-2.28857 0.4452,-3.42684c0.22878,-1.64469 0.45345,-3.21436 0.49183,-4.87665l0.03512,-1.46596c0.00932,-0.45271 0.36823,-0.81674 0.8096,-0.81674c0.33666,0 0.62533,0.21179 0.7475,0.51317l0.65026,1.5083l-0.21918,0.10042c1.37516,2.68801 1.75565,5.57513 2.50004,8.62996c0.84008,-0.00138 2.05735,0.02124 2.19346,0.16549c1.26387,1.33952 0.80467,2.55132 0.57738,4.04334c-0.14289,0.93793 -0.35345,1.87184 -0.61313,2.80014c1.56386,4.42488 3.39003,8.77387 4.98333,13.16448c0.72026,1.48503 1.26734,2.98416 1.83046,4.53795l0.005,0.04749l0.00741,-0.00191l0.35551,1.46595c0.01864,0.07028 0.02858,0.14425 0.02858,0.22063c0,0.46106 -0.36255,0.83481 -0.80979,0.83481c-0.38537,0 -0.70788,-0.27753 -0.78972,-0.64928l-0.34741,-1.43258c-0.01015,-0.02787 -0.0203,-0.0557 -0.03045,-0.08352c-2.96602,-3.20841 -5.52785,-7.02916 -8.03536,-10.7614c-0.41528,0.94487 -0.8297,1.87862 -1.22083,2.79939c-1.74157,3.5905 -2.57481,7.3957 -4.93804,10.63735l-0.43072,1.16132c-0.11162,0.32337 -0.41115,0.55487 -0.76313,0.55487c-0.38537,0 -0.70788,-0.27753 -0.78972,-0.64928l-0.3558,-1.46717l0.17274,-0.04452c-0.11991,-0.41596 -0.19477,-0.84006 -0.19692,-1.27104v-1.11308c0,0 0,-0.32991 0.20117,-0.57494zM219.66852,280.77243c-0.66021,5.77749 -1.39927,11.55025 -2.7468,17.1557v0.53556c1.8345,-2.98492 2.6582,-6.31461 4.21538,-9.52546c0.5161,-1.21684 1.06746,-2.44877 1.60784,-3.69399c-0.77512,-1.14519 -1.54986,-2.27214 -2.33464,-3.35999c-0.24325,-0.33719 -0.48957,-0.71402 -0.74178,-1.1118zM220.63363,272.38372c0.75864,0.03709 1.50981,0.08314 2.22836,0.10578c-0.15248,-0.59498 -0.29746,-1.19241 -0.43408,-1.79254c-0.2381,-1.04594 -0.72203,-2.37114 -1.08945,-3.68425c-0.08326,0.70424 -0.18127,1.40918 -0.28116,2.12725c-0.14995,1.0779 -0.28998,2.15951 -0.42368,3.24377zM229.52259,291.70198c-1.2162,-3.25975 -2.4942,-6.50086 -3.67816,-9.77322c-0.36634,1.01376 -0.77285,2.01902 -1.19451,3.01368c1.61039,2.21048 3.19744,4.44185 4.7979,6.65744c0.02452,0.03395 0.04946,0.06799 0.07479,0.10211zM223.52466,283.40752c0.53663,-1.30153 1.03731,-2.61639 1.45085,-3.94259c-0.59906,-1.74919 -1.16053,-3.51074 -1.66104,-5.29212c-0.96496,-0.00107 -1.9303,-0.00586 -2.89554,-0.0041c-0.17557,1.49288 -0.34286,2.98961 -0.51112,4.48736c0.02333,0.03038 0.04692,0.06069 0.07079,0.0909c1.2073,1.52954 2.38483,3.08752 3.54606,4.66055zM216.21217,274.27585c1.08817,0.51046 1.7283,1.33042 2.30997,2.24383c0.08762,-0.7808 0.17605,-1.56095 0.26665,-2.34002c-0.41334,0.00529 -0.82662,0.01283 -1.23981,0.02343c-0.28356,0.00727 -0.81674,0.08432 -1.33681,0.07276zM224.83025,273.87361c0.27031,0.97072 0.5624,1.93562 0.87137,2.89588c0.22346,-0.99541 0.40501,-2.22676 0.01419,-2.75409c-0.2008,-0.27092 -0.52594,-0.24293 -0.88555,-0.1418z" fill="#ec0000" stroke="none" stroke-width="0.5" stroke-linecap="butt"/><path d="M213.7398,305.46574c-0.57261,-0.5903 0,-1.1806 0,-1.1806l0.84254,-0.86857c0,-0.00841 0,-0.01681 0,-0.02524c0,0 0,-0.83481 0.80979,-0.83481c0.22549,0 0.38819,0.06473 0.50559,0.15814c0.05473,-0.03154 0.10947,-0.06306 0.1642,-0.09459l0.18706,0.77127h0.31284v1.11308h-0.04289l0.03243,0.13373c-0.02696,0.03772 -0.05392,0.07544 -0.08088,0.11316l0.04977,0.01711l-0.35401,1.09482c-0.10176,0.34112 -0.40986,0.58909 -0.77414,0.58909c-0.43164,0 -0.78439,-0.34813 -0.80847,-0.7869c-0.21939,0.09305 -0.53162,0.1222 -0.84385,-0.19967z" fill="#ec0000" stroke="none" stroke-width="0.5" stroke-linecap="butt"/><path d="M238.77881,207.04852c-0.71771,-0.37418 -0.35721,-1.11745 -0.35721,-1.11745c1.16561,-2.40325 2.7031,-4.41157 3.9836,-6.72546c0.2163,-0.39087 0.42025,-0.79107 0.61453,-1.19852c-2.24069,-2.78108 -4.47524,-5.56214 -6.76644,-8.2603l-0.59338,-0.69876c-0.12636,-0.14725 -0.20306,-0.34085 -0.20306,-0.5529c0,-0.46106 0.36255,-0.83481 0.80979,-0.83481h1.43963v0.14034c3.00704,-0.30237 6.10523,0.08144 9.17242,0.66435c0.67194,-1.60198 2.17882,-5.04058 3.30582,-4.47697c0.59323,0.29667 1.00394,3.19152 1.13357,3.92658c0.09926,0.51747 0.20016,1.03495 0.30194,1.55251c1.05637,0.23164 2.10105,0.4566 3.1287,0.65362c1.35213,0.25924 6.85677,0.08085 6.80006,2.40952c-0.02466,1.01261 -2.11855,3.12947 -2.77393,3.99432c-1.70537,1.18811 -3.46232,2.25357 -5.23989,3.26647c0.46934,3.08026 0.79085,6.17923 0.80568,9.31127l0.32363,1.0009c0.03076,0.08822 0.04754,0.18332 0.04754,0.28248c0,0.46106 -0.36255,0.83481 -0.80979,0.83481c-0.32327,0 -0.6023,-0.19528 -0.73215,-0.47765l-0.71646,-1.47718l0.00629,-0.00324c-1.77182,-1.95677 -3.49223,-3.97694 -5.18726,-6.02613c-2.15115,1.18902 -4.27968,2.42069 -6.33117,3.81802l-1.17942,0.41307c0,0 -0.6947,0.23873 -0.98307,-0.41889z" fill="#ffffff" stroke="none" stroke-width="0.5" stroke-linecap="butt"/><path d="M236.97928,210.01673c-0.71771,-0.37418 -0.35721,-1.11745 -0.35721,-1.11745c1.16561,-2.40325 2.7031,-4.41157 3.9836,-6.72546c0.2163,-0.39087 0.42025,-0.79107 0.61453,-1.19852c-2.24069,-2.78108 -4.47524,-5.56214 -6.76644,-8.2603l-0.59338,-0.69879c-0.12636,-0.14725 -0.20306,-0.34084 -0.20306,-0.5529c0,-0.46106 0.36255,-0.83481 0.80979,-0.83481h1.43963v0.14034c3.00704,-0.30237 6.10523,0.08143 9.17242,0.66434c0.67194,-1.60198 2.17882,-5.04058 3.30582,-4.47697c0.59323,0.29667 1.00394,3.19152 1.13357,3.92658c0.09926,0.51747 0.20016,1.03495 0.30194,1.55251c1.05637,0.23164 2.10105,0.4566 3.1287,0.65362c1.35214,0.25924 6.85677,0.08085 6.80005,2.40952c-0.02466,1.01261 -2.11853,3.12947 -2.77392,3.99432c-1.70537,1.18811 -3.46233,2.25357 -5.23989,3.26647c0.46934,3.08026 0.79085,6.17923 0.80568,9.31127l0.32363,1.0009c0.03076,0.08822 0.04754,0.18332 0.04754,0.28248c0,0.46106 -0.36255,0.83481 -0.80979,0.83481c-0.32327,0 -0.6023,-0.19528 -0.73215,-0.47765l-0.71646,-1.47718l0.00628,-0.00324c-1.77182,-1.95677 -3.49223,-3.97694 -5.18726,-6.02613c-2.15115,1.18902 -4.27968,2.42069 -6.33117,3.81802l-1.17942,0.41307c0,0 -0.6947,0.23873 -0.98307,-0.41888z" fill="#ec0000" stroke="none" stroke-width="0.5" stroke-linecap="butt"/><path d="M252.11596,272.98384c-0.09986,0.04711 -0.22256,0.07606 -0.37336,0.07606c-0.80979,0 -0.80979,-0.83481 -0.80979,-0.83481c0,-2.37118 -0.72847,-7.71771 1.3169,-9.49494c2.34647,-2.03886 5.38728,2.43797 5.69081,4.53788c0.45008,3.11377 -2.61644,8.64521 -5.77513,5.81622c-0.01648,-0.03346 -0.03295,-0.06693 -0.04943,-0.10039z" fill="#ec0000" stroke="none" stroke-width="0.5" stroke-linecap="butt"/><path d="M262.282,292.17699c0.51709,0.02751 1.01958,0.15328 1.46911,0.53319c2.3745,2.00676 1.02417,5.94407 -1.69649,6.65679c-3.11907,0.8171 -3.34005,-2.77012 -2.47771,-5.4187c-0.11579,-0.43663 0.23082,-0.79394 0.23082,-0.79394l0.12836,-0.12058c0.30479,-0.64946 0.67597,-1.17673 1.07478,-1.46783c0,0 0.67379,-0.46307 1.12298,0.23153c0.08792,0.13596 0.13283,0.26304 0.14817,0.37953z" fill="#ec0000" stroke="none" stroke-width="0.5" stroke-linecap="butt"/><path d="M243.09747,177.1046c0,2.51547 -2.17119,4.55467 -4.84949,4.55467c-2.67829,0 -4.84949,-2.03919 -4.84949,-4.55467c0,-2.51547 2.17119,-4.55467 4.84949,-4.55467c2.67829,0 4.84949,2.03919 4.84949,4.55467z" fill="#ffffff" stroke="none" stroke-width="0" stroke-linecap="butt"/><path d="M242.01776,186.00924c0,1.96221 -1.73608,3.55289 -3.87763,3.55289c-2.14155,0 -3.87763,-1.59069 -3.87763,-3.55289c0,-1.96221 1.73608,-3.5529 3.87763,-3.5529c2.14155,0 3.87763,1.59069 3.87763,3.5529z" fill="#e8e8e8" stroke="none" stroke-width="0" stroke-linecap="butt"/><path d="M190.78336,309.13336l1.41666,-47.33333l2.38766,-18.70722l0.27901,35.12388c0,0 1.78817,-7.66515 2.1997,-11.92843c0.43618,-4.51867 0.34774,-14.46203 0.34774,-14.46203l4.20533,15.70595l-1.14342,-29.47419l2.96936,11.26872l1.42129,12.47332l1,47.33333z" fill="#000000" stroke="none" stroke-width="0" stroke-linecap="butt"/><path d="M274.825,309.71666v-48.5c0,0 3.1118,33.51043 4.37318,30.80749c0.30874,-0.66159 -3.07545,-33.66052 -2.67859,-42.09538c0.2579,-5.48129 3.92942,19.66567 5.29566,22.42031c0.86939,1.75288 1.36516,-8.85557 1.54442,-10.40729c0.42411,-3.67125 2.10148,29.12228 2.50775,27.13054c1.34429,-6.59039 -0.54242,-50.35567 -0.54242,-50.35567l4.5,70z" fill="#000000" stroke="none" stroke-width="0" stroke-linecap="butt"/><path d="M247.32503,244.46669c0,1.10457 -0.50368,2 -1.125,2c-0.62132,0 -1.125,-0.89543 -1.125,-2c0,-1.10457 0.50368,-2 1.125,-2c0.62132,0 1.125,0.89543 1.125,2z" fill="#ff0000" stroke="#310000" stroke-width="2" stroke-linecap="butt"/><path d="M257.325,244.34169c0,2.00203 -1.45507,3.625 -3.25,3.625c-1.79493,0 -3.25,-1.62297 -3.25,-3.625c0,-2.00203 1.45507,-3.625 3.25,-3.625c1.79493,0 3.25,1.62297 3.25,3.625z" fill="#ff0000" stroke="#310000" stroke-width="2" stroke-linecap="butt"/><path d="M252.57503,266.25834c0,7.755 -2.12664,14.04167 -4.75,14.04167c-2.62336,0 -4.75,-6.28668 -4.75,-14.04167c0,-7.755 2.12664,-14.04166 4.75,-14.04166c2.62336,0 4.75,6.28667 4.75,14.04166z" fill="#ff0000" stroke="#310000" stroke-width="2" stroke-linecap="butt"/><path d="M198.15003,243.91564c0,0.89747 -0.7835,1.625 -1.75,1.625c-0.9665,0 -1.75,-0.72753 -1.75,-1.625c0,-0.89747 0.7835,-1.625 1.75,-1.625c0.9665,0 1.75,0.72753 1.75,1.625z" fill="#ff0000" stroke="none" stroke-width="0" stroke-linecap="butt"/><path d="M283.14117,254.00297c0.95081,8.71581 1.05399,15.8542 0.23045,15.94404c-0.82354,0.08984 -2.26194,-6.90289 -3.21276,-15.6187c-0.95081,-8.71581 -1.05399,-15.8542 -0.23045,-15.94404c0.82354,-0.08984 2.26194,6.90289 3.21275,15.6187z" fill="#ff0000" stroke="none" stroke-width="0" stroke-linecap="butt"/><path d="M242.43618,245.91147c-4.05824,0 -8.30853,-14.45126 -11.27185,-9.69468c-4.23221,6.79334 -6.61918,33.01063 -8.72207,28.0061c-6.99114,-16.63772 -1.8473,-74.47326 17.42163,-74.47326c10.24441,0 23.84871,8.41861 23.53013,18.49082c-0.05502,1.73958 1.01613,48.31728 -3.6894,49.08479c-5.38849,0.8789 -9.63981,-44.24332 -9.60141,-40.83689c0.15108,13.4042 9.15214,50.51721 5.0836,54.76625c-2.64955,2.76709 -5.70463,-43.02448 -10.15617,-41.7922c-1.64491,0.45534 -0.6759,16.44907 -2.59444,16.44907z" fill="url(#color-1)" stroke="none" stroke-width="0" stroke-linecap="butt"/><path d="M220.73359,230.30706c0,0 10.48819,-9.64984 13.07702,-12.30944c1.34117,-1.37784 18.44821,-42.33145 18.44821,-42.33145l-1.20283,6.60876c0,0 -9.87826,32.40325 -14.4405,40.71341c-1.43223,2.60881 -8.25617,5.61963 -8.25617,5.61963z" fill="#ff0000" stroke="#310000" stroke-width="2" stroke-linecap="butt"/><path d="M226.23359,240.55706c0,0 10.82089,-9.95594 13.49184,-12.69989c1.38371,-1.42154 19.03339,-43.67423 19.03339,-43.67423l-1.24099,6.81838c0,0 -10.1916,33.43111 -14.89856,42.00487c-1.47766,2.69157 -8.51806,5.79789 -8.51806,5.79789z" fill="#ff0000" stroke="#310000" stroke-width="2" stroke-linecap="butt"/><path d="M228.73359,251.70513c0,0 10.48819,-9.64984 13.07702,-12.30943c1.34117,-1.37784 18.44821,-42.33145 18.44821,-42.33145l-1.20283,6.60875c0,0 -0.56026,24.87786 -2.82915,31.8637c-0.69526,2.14065 -2.54363,-15.0191 -3.32401,-12.69811c-2.89323,8.60495 -6.16532,17.68256 -8.28734,21.54782c-0.29393,0.53539 -2.35644,0.42026 -3.18557,4.69284c-0.98284,5.06462 -0.78746,14.6301 -1.71464,15.18546c-2.10203,1.25907 -3.35595,-14.25867 -3.35595,-14.25867z" fill="#ff0000" stroke="#310000" stroke-width="2" stroke-linecap="butt"/><path d="M272.97704,144.71393c0,0 0.61005,0.38184 1.53787,1.0064c-0.1473,0.57981 -0.28569,1.16785 -0.42048,1.75883c-0.68439,-1.73693 -1.11739,-2.76523 -1.11739,-2.76523z" data-paper-data="{&quot;index&quot;:null}" fill="#070707" stroke="none" stroke-width="0" stroke-linecap="butt"/><path d="M280.28695,165.60168c0.00291,0.03763 0.00629,0.07552 0.0101,0.11363c-0.00737,-0.02665 -0.01475,-0.05329 -0.02214,-0.07994c0.00403,-0.01122 0.00805,-0.02246 0.01205,-0.03369z" data-paper-data="{&quot;index&quot;:null}" fill="#070707" stroke="none" stroke-width="0" stroke-linecap="butt"/><path d="M256.49334,159.94458c0,5.78877 -8.01648,10.48151 -17.90531,10.48151c-9.88883,0 -17.90532,-4.69274 -17.90532,-10.48151c0,-5.78877 8.01649,-10.4815 17.90532,-10.4815c9.88883,0 17.90531,4.69273 17.90531,10.4815z" fill="#e6e6e6" stroke="none" stroke-width="0" stroke-linecap="butt"/><path d="M271.24949,150.29791c0,5.78877 -6.44542,10.48151 -14.39623,10.48151c-7.95082,0 -14.39623,-4.69274 -14.39623,-10.48151c0,-5.78877 6.44542,-10.4815 14.39623,-10.4815c7.95081,0 14.39623,4.69273 14.39623,10.4815z" fill="#ffffff" stroke="none" stroke-width="0" stroke-linecap="butt"/><path d="M233.45938,148.8138c0,5.78877 -6.44542,10.48151 -14.39623,10.48151c-7.95082,0 -14.39623,-4.69274 -14.39623,-10.48151c0,-5.78877 6.44542,-10.4815 14.39623,-10.4815c7.95082,0 14.39623,4.69273 14.39623,10.4815z" fill="#ffffff" stroke="none" stroke-width="0" stroke-linecap="butt"/><path d="M224.10184,138.42504c0,5.78877 -4.99519,10.48151 -11.15707,10.48151c-6.16188,0 -11.15709,-4.69274 -11.15709,-10.48151c0,-5.78877 4.9952,-10.4815 11.15709,-10.4815c6.16188,0 11.15707,4.69273 11.15707,10.4815z" fill="#e6e6e6" stroke="none" stroke-width="0" stroke-linecap="butt"/><path d="M275.02849,138.98156c0,5.78877 -4.99519,10.48151 -11.15707,10.48151c-6.16188,0 -11.15707,-4.69274 -11.15707,-10.48151c0,-5.78877 4.9952,-10.4815 11.15707,-10.4815c6.16188,0 11.15707,4.69273 11.15707,10.4815z" fill="#e6e6e6" stroke="none" stroke-width="0" stroke-linecap="butt"/><path d="M196.59072,72.74673c0.07303,-0.32941 -1.39332,2.97579 -2.92706,4.32797c-2.15125,1.8966 -4.60344,2.12093 -4.60344,2.12093c0,0 11.34917,-20.33827 12.78551,-23.44808c0.26222,-0.5677 0.8206,-1.70919 0.8206,-1.70919l-6.68588,-0.85403l14.48339,-9.22063c0,0 4.39579,-5.81432 5.60742,-6.73853c1.02551,-0.78224 2.10249,-1.52328 3.23348,-2.2156c1.22026,-0.74697 -3.73875,-4.40577 -3.73875,-4.40577c0,0 9.886,1.34988 11.10402,0.92696c1.92202,-0.66738 -0.65329,-7.89089 -0.65329,-7.89089c0,0 3.8542,3.19515 8.22311,4.73004c3.4237,1.20282 7.30445,0.81642 8.95297,0.87728c1.13349,0.06357 10.76068,-8.45003 10.76068,-8.45003c0,0 -4.41295,9.03475 -2.98067,9.25897c42.36204,6.63165 36.41503,45.72253 38.52376,53.63312c0.10219,0.38332 8.53839,15.85854 8.53839,15.85854c0,0 -3.26143,-2.64426 -5.40203,-2.43651c-1.4121,0.13705 -2.06298,2.85833 -1.94092,3.62058c1.90004,11.86631 -2.92924,28.09549 -2.92924,28.09549c0,0 -0.72403,-4.62034 -1.31439,-6.52057c-0.62347,-2.00677 -2.33256,-5.21789 -2.33256,-5.21789l-1.13021,4.45222c0,0 0.55957,8.00144 0.83832,11.98754c0.2774,3.9667 0.83018,11.87117 0.83018,11.87117l-5.76031,-5.73192c0,0 -0.88588,1.32154 -1.35392,1.92537c-3.4003,4.3867 -7.4671,6.75389 -7.4671,6.75389l2.06217,-10.433l-9.40385,9.14269l-0.76143,-6.29014c0,0 -5.58903,12.15956 -25.24075,10.4594c-18.52215,-1.74309 -24.45461,-13.48174 -24.45461,-13.48174l-1.25882,5.4756l-7.8015,-9.02604l-1.60613,10.14403c0,0 -7.38846,-14.04033 -7.8591,-15.87669c-0.1844,-0.71952 -1.10292,-4.4396 -1.10292,-4.4396l-5.78574,7.06466c0,0 1.80263,-6.45006 2.92894,-11.24767c1.01146,-4.30841 3.49566,-15.89616 3.49566,-15.89616c0,0 -1.552,1.24526 -2.51511,1.47431c-1.38973,0.33054 -5.02337,0.31862 -5.02337,0.31862c0,0 2.93155,-3.25365 5.0384,-7.8491c0.36957,-0.80609 1.0123,-2.53182 1.0123,-2.53182l-8.65923,2.40112c0,0 6.24057,-6.23226 9.73204,-12.21993c2.77245,-4.75458 2.96153,-9.54443 2.97106,-9.58746z" fill="#000000" stroke="none" stroke-width="1.5" stroke-linecap="butt"/><path d="M209.60079,95.36854c0.00701,-8.39806 1.89563,-19.60735 1.89563,-19.60735c0,0 1.26108,4.33318 2.06512,5.71456c0.53023,0.91097 -0.24205,2.72217 -0.24205,2.72217c0,0 2.45092,-1.43688 4.86194,-4.25155c2.60381,-3.03975 7.22865,-6.18294 9.04413,-6.58547c2.37014,-0.5255 2.89442,3.69132 2.89442,3.69132c0,0 5.93672,-5.27019 9.25612,-7.31346c3.58166,-2.2047 11.507,-5.46729 11.507,-5.46729c0,0 -2.66533,3.25365 -4.18004,4.81179c-1.61031,1.65647 -5.69736,25.54056 -5.69736,25.54056c0,0 13.04812,-19.33288 20.91132,-22.24847c0.69772,-0.51457 4.33303,-1.25298 6.86782,-0.04048c2.78144,1.33048 4.44807,4.65033 4.44807,4.65033c0,0 -0.78219,15.31192 -1.62184,21.64705c-0.9717,6.45305 -3.6566,10.65575 -4.61004,14.06044c-0.95345,3.40469 1.12018,9.8283 -1.7543,21.00926c-1.79387,6.9777 -7.53386,7.01802 -14.54737,13.07934c-7.01351,6.06133 -10.87477,9.81129 -15.27772,9.54908c-4.23721,-0.25234 -9.46879,-6.60791 -14.55115,-13.0851c-5.41189,-6.89716 -11.57329,-7.04913 -11.91491,-14.74806c-0.12063,-2.71857 -2.5438,-1.66401 -3.15684,-3.78027c-1.35805,-4.68822 5.68185,-13.45588 5.73654,-17.1898c0.06574,-4.48913 -1.93829,-7.57225 -1.93447,-12.15859z" fill="#ffffff" stroke="#000000" stroke-width="1.5" stroke-linecap="butt"/><g stroke="none" stroke-linecap="butt"><g><path d="M266.14714,134.73153c0,0 -7.86627,40.99717 -13.69236,49.94879c-2.92712,4.49745 -18.03527,1.9027 -22.84569,2.04628c-7.82087,0.23347 -13.98468,-1.3712 -16.36179,-6.30408c-4.78527,-9.93022 -5.74341,-50.80543 -5.74341,-50.80543c0,0 14.72859,-3.74496 19.96438,-3.32068c3.40883,0.27625 11.54137,6.83663 11.54137,6.83663c0,0 7.92071,-5.85219 10.05528,-5.27733c8.72648,2.35011 17.08223,6.87582 17.08223,6.87582z" fill="#000000" stroke-width="0"/><path d="M254.67274,132.39067c7.3687,3.16185 6.54965,3.68162 -6.10604,4.07629l-10.32647,0.08254l0.9841,-0.6144c0.17174,-2.21326 8.2899,-6.61997 15.4484,-3.54444z" data-paper-data="{&quot;noHover&quot;:false,&quot;origItem&quot;:[&quot;Path&quot;,{&quot;applyMatrix&quot;:true,&quot;segments&quot;:[[[87.72283,305.82038],[0,-1.39308],[0,0]],[87.72283,306.59686],[[89.46501,306.42178],[0,0],[4.54688,-0.44914]],[[91.38689,305.05152],[2.74218,0.845],[-2.66406,-0.82216]]],&quot;closed&quot;:true,&quot;fillColor&quot;:[0,0,0,1]}]}" fill="#ec0000" stroke-width="0.5"/><path d="M217.47392,129.11914c6.83566,-1.98967 9.59585,-0.70332 12.6827,1.44954c1.62785,1.1063 9.47882,4.20152 9.40142,5.19888c-0.14037,1.80914 -7.9962,-0.0782 -17.9652,-2.15842l-9.68235,-2.74448l5.56336,-1.74552z" data-paper-data="{&quot;noHover&quot;:false,&quot;origItem&quot;:[&quot;Path&quot;,{&quot;applyMatrix&quot;:true,&quot;segments&quot;:[[81.36343,304.9982],[79.41031,305.67572],[[81.98063,305.9726],[0,0],[3.64844,0.4263]],[[86.05875,305.77468],[0,0.59378],[0,-0.32734]],[[85.10563,304.77744],[0.61718,0.31972],[-1.17188,-0.62422]],[[81.36345,304.9982],[2.40624,-0.82216],[0,0]]],&quot;closed&quot;:true,&quot;fillColor&quot;:[0,0,0,1]}]}" fill="#ec0000" stroke-width="0.5"/><path d="M224.47791,136.87691c1.96035,0.45544 12.70464,2.0585 17.49157,2.42993c8.086,0.62742 14.96972,-1.91385 13.22661,-0.97574c-0.40541,0.21531 -1.21841,1.35015 -2.81084,1.82765c-0.28854,0.08652 -1.33917,0.98985 -1.96519,2.22148c-0.73699,1.44996 -1.03745,3.25498 -1.03745,3.25498c0,0 -0.64601,-2.08678 -1.18276,-2.7818c-0.51335,-0.6647 -1.97067,-1.30141 -1.97067,-1.30141c0,0 -8.26543,1.42598 -10.56041,1.24791c-1.78912,-0.13883 -9.13224,-2.64868 -9.13224,-2.64868c0,0 -2.3882,0.15715 -3.22815,0.60732c-0.65029,0.34853 -1.38978,1.86767 -1.38978,1.86767c0,0 0.16266,-1.51965 -0.64332,-3.25494c-0.53316,-1.14789 -2.04875,-2.69039 -2.31303,-2.87323c-1.06598,-0.73747 -2.66291,-2.23569 -2.66291,-2.23569l8.72068,2.73076z" data-paper-data="{&quot;noHover&quot;:false,&quot;origItem&quot;:[&quot;Path&quot;,{&quot;applyMatrix&quot;:true,&quot;segments&quot;:[[83.43363,306.96974],[82.12895,306.77182],[[83.19927,307.34276],[0,0],[0.92968,0.47198]],[[87.01177,307.89086],[-2.35938,0],[2,0]],[[90.38677,307.51784],[-0.47656,0.27406],[0.60156,-0.35018]],[[87.88677,307.14482],[2.92968,0],[-1.73438,0]],[[83.43365,306.96974],[0.71874,0.09896],[0,0]]],&quot;closed&quot;:true,&quot;fillColor&quot;:[0,0,0,1]}]}" fill="#ffffff" stroke-width="0.5"/><path d="M222.72031,169.14178c0.15738,0.06515 2.46155,-3.46378 2.46155,-3.46378c0,0 -0.43261,1.13179 -0.33122,2.44391c0.11546,1.49421 0.79262,3.21212 1.27574,3.57921c1.25805,0.95594 2.55719,1.87437 3.33516,2.14436c2.19055,0.74275 8.64984,-0.4871 11.90012,-1.80858c0.39986,-0.16258 1.2683,-1.2199 1.62087,-2.38622c0.44405,-1.4689 0.32818,-3.09069 0.32818,-3.09069c0,0 1.495,4.06209 1.87967,3.92383c2.5895,-0.94238 -0.11875,4.12387 -2.82145,5.12755c-1.8599,0.76567 -8.571,0.91964 -13.03805,0.33971c-5.37267,-0.65021 -5.95808,-2.75843 -7.14921,-4.46089c-1.25583,-1.70748 -1.21337,-3.04915 0.00126,-2.4882z" data-paper-data="{&quot;noHover&quot;:false,&quot;origItem&quot;:[&quot;Path&quot;,{&quot;applyMatrix&quot;:true,&quot;segments&quot;:[[[83.55863,311.35458],[0,0],[-0.45312,-0.15226]],[[83.62895,311.78088],[-0.5,-0.52526],[0.47656,0.52526]],[[86.36333,312.45078],[-1.95312,-0.07612],[1.625,0.07612]],[[89.46489,312.1539],[-0.64844,0.29688],[0.94532,-0.39586]],[[89.81645,311.47638],[0.90626,-0.373],[-1.04688,0.4263]],[[85.22271,311.75804],[1.1875,0.27406],[-0.64062,-0.15226]],[[83.55865,311.35458],[0.25782,0.07612],[0,0]]],&quot;closed&quot;:true,&quot;fillColor&quot;:[0,0,0,1]}]}" fill="#ffffff" stroke-width="0.5"/><path d="M210.5474,133.53137c-0.37712,-1.8493 1.46998,-0.84581 3.47683,1.52666c1.26842,1.54513 2.56535,24.39779 3.6501,29.1487c2.06533,9.16714 2.54907,11.5795 10.41043,12.58617c17.07946,1.86199 18.1424,-0.91259 21.11552,-9.31543c1.01564,-2.7446 7.05865,-25.11486 7.75055,-26.20454c1.29225,-2.11641 5.76263,-5.20896 5.66365,-3.93332c-0.0306,0.39432 -5.62888,23.72051 -6.69321,28.21137c-2.08191,8.93871 -4.15147,15.77133 -7.09506,17.92298c-3.7163,2.60506 -22.66758,1.62592 -30.42988,-1.49645c-3.19474,-1.32126 -3.54926,-1.74824 -4.70421,-5.59461c-0.69153,-2.27034 -1.57639,-8.17243 -1.98732,-12.9411c-0.36778,-4.7653 -0.94722,-29.26407 -1.15741,-29.91041z" data-paper-data="{&quot;noHover&quot;:false,&quot;origItem&quot;:[&quot;Path&quot;,{&quot;applyMatrix&quot;:true,&quot;segments&quot;:[[[78.98051,306.64252],[0,0],[0.09376,0.20554]],[[79.62895,309.80934],[-0.26562,-1.54534],[0.28126,1.54534]],[[80.69927,313.9201],[-0.3125,-0.72318],[0.52344,1.22562]],[[82.52739,315.59486],[-1.1875,-0.35018],[2.88282,0.82216]],[[91.51177,315.3208],[-1.26562,0.94396],[1,-0.77648]],[[93.91803,309.38302],[-0.5,2.9689],[0.25782,-1.49206]],[[94.38679,306.46742],[0,0.12942],[0,-0.41868]],[[92.62897,307.792],[0.40626,-0.72318],[-0.21874,0.37302]],[[91.74615,310.13666],[0.28908,-0.92112],[-0.83594,2.81664]],[[85.83989,313.22734],[4.26564,0.1751],[-2.85938,-0.12942]],[[81.60551,309.8626],[1,2.93844],[-0.52344,-1.5225]],[[80.10551,306.947],[0.5,0.47198],[-0.78906,-0.7232]],[[78.98051,306.6425],[-0.1875,-0.59378],[0,0]]],&quot;closed&quot;:true,&quot;fillColor&quot;:[0,0,0,1]}]}" fill="#970000" stroke-width="0.5"/></g><path d="M237.64815,178.90214l0.91703,-11.81833l3.8197,0.29638l-0.84187,10.84962c0,0 -1.93682,3.45554 -2.6287,3.40185c-0.54698,-0.04245 -1.26617,-2.72954 -1.26617,-2.72954z" fill="#000000" stroke-width="0"/><path d="M243.47295,185.73795c0,0 -1.76811,0.84173 -3.67483,0.69378c-1.90672,-0.14795 -5.17882,-1.21763 -5.17882,-1.21763c0,0 3.54895,-2.49826 5.45567,-2.35031c1.90672,0.14795 3.39799,2.87414 3.39799,2.87414z" fill="#000000" stroke-width="0"/></g><path d="M265.31244,82.10802c0,0 1.44202,1.42033 3.93126,4.35788c2.27365,2.68312 3.86117,5.58573 3.86117,5.58573l-0.29752,2.17606c0,0 -6.16823,-9.6102 -14.59178,-12.87809c-6.73527,-2.6129 -11.51299,-0.64845 -11.51299,-0.64845l1.82987,-7.34796c0,0 3.96451,-1.24651 8.93144,1.15473c5.14323,2.4865 8.12237,5.60232 8.12237,5.60232z" data-paper-data="{&quot;index&quot;:null}" fill="#000000" stroke="none" stroke-width="1.5" stroke-linecap="butt"/><path d="M210.58887,107.10271c0,0 -2.55905,2.35714 -3.98271,0.92838c-0.38402,-0.3854 0.57751,-3.9736 0.17957,-4.44714c-0.75451,-0.89783 -1.49982,-1.94807 -2.10612,-3.12779c-0.60805,-1.18314 -1.07627,-2.49651 -1.27374,-3.91708c-0.92935,-6.68534 0.37777,-11.50762 2.55633,-11.63699c2.17858,-0.12938 2.79041,2.95368 3.40239,9.88609c0.61197,6.93239 1.2243,12.31452 1.2243,12.31452z" data-paper-data="{&quot;index&quot;:null}" fill="#ffffff" stroke="#000000" stroke-width="1" stroke-linecap="butt"/><path d="M210.71455,102.56661c0,0 -1.38365,1.81374 -2.24999,0.98408c-0.42025,-0.40245 -0.15839,-3.14462 -0.63037,-3.72993c-1.37193,-1.70135 -2.75249,-4.15815 -2.9213,-7.27121c-0.19337,-3.56557 4.35483,-2.45234 4.35483,-2.45234" fill="none" stroke="#000000" stroke-width="0.25" stroke-linecap="round"/><path d="M244.44611,100.73139c0.79683,-7.33919 5.97851,-12.94839 11.88324,-12.49022c5.9047,0.45817 9.83491,6.76802 9.26358,14.13109c-0.57133,7.36309 -5.374,13.31716 -11.83767,12.92287c-6.14812,-0.37502 -10.1413,-6.89907 -9.30914,-14.56375z" fill="#000000" stroke="#000000" stroke-width="3.5" stroke-linecap="butt"/><path d="M248.68808,101.48962c0.32914,-4.24187 6.94594,-11.7061 6.94594,-11.7061c0,0 5.38615,8.39559 5.05701,12.63747c-0.32914,4.24187 -6.90492,11.17771 -6.90492,11.17771c0,0 -5.42717,-7.86722 -5.09802,-12.10907z" fill="#ff0000" stroke="#720000" stroke-width="2" stroke-linecap="butt"/><path d="M219.75533,78.87077c0,0 3.76596,-3.12644 8.97479,-4.23715c5.77203,-1.23084 11.11464,8.6265 11.11464,8.6265l-2.20831,3.10624c0,0 -4.18801,-6.7759 -8.85986,-6.17966c-6.24803,0.79736 -7.4239,2.79351 -12.1748,3.86318c-4.07084,0.91656 -7.52554,0.80684 -7.52554,0.80684l-0.02744,-1.92556c0,0 4.01564,-0.18208 5.84602,-0.54066c1.51074,-0.29597 4.4419,-1.79777 4.4419,-1.79777z" fill="#000000" stroke="none" stroke-width="1.5" stroke-linecap="butt"/><path d="M271.74965,99.62891c1.67403,-6.75502 2.75416,-9.7068 4.88669,-9.24291c2.13255,0.46389 3.84123,4.86212 1.89173,11.32408c-1.85281,6.14141 -9.8877,9.89709 -9.8877,9.89709c0,0 1.43524,-5.22324 3.10928,-11.97826z" data-paper-data="{&quot;index&quot;:null}" fill="#ffffff" stroke="#000000" stroke-width="1" stroke-linecap="butt"/><path d="M272.56899,95.00901c0,0 5.02081,-0.86429 4.27971,2.6288c-1.32847,6.26187 -7.63275,9.46815 -7.63275,9.46815" data-paper-data="{&quot;index&quot;:null}" fill="none" stroke="#000000" stroke-width="0.25" stroke-linecap="round"/><path d="M237.6687,131.43354c-1.14785,-0.08906 -3.63897,-4.03693 -3.7282,-6.46592c-0.07983,-2.17328 1.80026,-4.26848 4.5446,-4.05553c2.74435,0.21294 4.62225,0.92381 4.10272,5.14169c-0.44092,3.5796 -2.17477,5.5927 -4.91912,5.37976z" fill="#ffffff" stroke="#000000" stroke-width="1.15" stroke-linecap="butt"/><path d="M244.34124,97.29654c0,0 -0.23867,4.5529 -0.62658,8.15812c-0.76812,7.13896 -3.66652,31.68365 -3.66652,31.68365l-3.31149,-0.247c0,0 -0.52093,-4.84558 -0.40341,-10.9709c0.15907,-8.29114 0.94805,-18.68906 0.89604,-22.53824c-0.04929,-3.64866 -0.48724,-6.61844 -0.48724,-6.61844" fill="#ffffff" stroke="#000000" stroke-width="1.3" stroke-linecap="round"/><path d="M242.20189,41.22157l35.68741,-29.73338l-3.1794,41.42748c0,0 -7.89751,1.04064 -17.70134,-3.18951c-10.5423,-4.54877 -14.80666,-8.50459 -14.80666,-8.50459z" fill="#970000" stroke="none" stroke-width="0" stroke-linecap="butt"/><path d="M242.42188,41.42538l35.28448,-29.88968c0,0 -17.41388,18.15259 -21.37399,24.03382c-2.31655,3.44034 -1.50897,13.34367 -1.50897,13.34367c0,0 -4.71125,-2.44513 -6.87399,-3.75093c-1.94879,-1.17662 -5.52755,-3.73686 -5.52755,-3.73686z" fill="#ec0000" stroke="none" stroke-width="0" stroke-linecap="butt"/><path d="M282.21149,14.63365c-0.26629,3.43185 -3.25185,5.999 -6.66845,5.73389c-3.4166,-0.26511 -5.97042,-3.2621 -5.70414,-6.69394c0.26629,-3.43185 3.25186,-5.999 6.66845,-5.73389c3.4166,0.26511 5.97042,3.2621 5.70414,6.69394z" fill="#ffffff" stroke="#000000" stroke-width="0" stroke-linecap="butt"/><path d="M275.26716,38.31873c-0.54344,-0.04217 -0.70388,-0.42238 -0.74977,-0.68151c-0.94803,-1.00873 -1.92669,-0.95319 -3.376,-0.82214c-2.94983,0.97795 -7.26522,2.70706 -9.98618,0.07409c-1.12041,-1.08418 -0.86573,-2.81196 -1.81124,-3.96034c-0.51514,-0.62565 -3.31291,-0.11809 -3.81965,-0.09617c0,0 -0.25144,0.01089 -0.48349,-0.12148l-0.71643,0.50307c0,0 -0.6919,0.48584 -1.16011,-0.2249c-0.46821,-0.71074 0.22369,-1.1966 0.22369,-1.1966l0.84387,-0.59256c0,0 0.49995,-0.35106 0.93747,-0.01981c0.15866,-0.06229 0.2927,-0.06809 0.2927,-0.06809c1.4591,-0.06314 3.85855,-0.60194 5.06324,0.5931c0.99201,0.98407 0.75475,3.02124 1.72928,3.8818c2.38417,2.1053 6.07857,0.33221 8.56633,-0.46044c2.15027,-0.20388 3.6954,-0.13564 5.16151,1.60857l0.18411,0.78949c0,0 -0.06661,0.8585 -0.89938,0.79388z" fill="#ffffff" stroke="none" stroke-width="0.5" stroke-linecap="butt"/><path d="M273.78549,39.62367c0.60838,0.18082 0.55374,0.88504 0.55374,0.88504l-0.00325,0.02565c0.05135,0.27705 0.02198,0.58259 -0.11451,0.90541l-0.04726,0.37368c-0.10534,0.08965 -0.21758,0.16944 -0.33498,0.23971c-0.57464,0.67196 -1.33408,0.71359 -1.9138,0.3858c-1.3522,-0.16424 -2.33983,-1.21602 -0.91324,-2.74841c0.76298,-0.81956 2.0366,-0.69358 2.77332,-0.0669z" fill="#000000" stroke="none" stroke-width="0.5" stroke-linecap="butt"/><path d="M255.02324,36.58082c-0.02981,0.00027 -0.0471,-0.00107 -0.0471,-0.00107l-1.04859,-0.62426c-0.06502,-0.49956 -0.46576,-1.0772 -0.19506,-1.49866c0.43026,-0.66982 2.83475,-1.33763 3.10893,0.21807c0.13287,0.75402 -0.22366,1.91786 -0.95043,2.08671c-0.28257,0.06564 -0.58829,-0.01427 -0.86776,-0.18077z" fill="#000000" stroke="none" stroke-width="0.5" stroke-linecap="butt"/><path d="M281.16986,15.93977c-0.15471,1.99381 -3.09157,4.01204 -5.02563,3.86196c-1.93405,-0.15007 -3.67615,-1.34824 -3.67615,-1.34824c0,0 4.05127,0.03809 5.65359,-0.94969c1.32105,-0.81438 3.28049,-4.5578 3.28049,-4.5578c0,0 -0.07759,0.99995 -0.2323,2.99375z" fill="#c3c3c3" stroke="none" stroke-width="0" stroke-linecap="butt"/><path d="M260.37041,28.72604c-0.64575,0.4897 -1.31357,0.93252 -2.04009,1.24418c0,0 -0.51643,0.21741 -0.72498,-0.31376c-0.20855,-0.53118 0.30785,-0.74861 0.30785,-0.74861c0.07369,-0.03034 0.14697,-0.06214 0.21985,-0.09535c-0.01433,-0.03447 -0.02673,-0.07257 -0.03683,-0.11463c-0.13343,-0.55658 0.40731,-0.69672 0.40731,-0.69672l0.68398,-0.17724c0.28551,-0.0738 0.57206,-0.13728 0.85883,-0.19825c0.57337,-0.43252 1.13377,-0.90521 1.69609,-1.36235c-0.37477,-0.66669 -0.49579,-1.28542 -0.11888,-1.7258c0.27906,-0.32606 1.48904,-0.31218 2.75263,-0.10057c0.48204,-0.27966 0.98835,-0.55369 1.04592,-0.50724c0.22071,0.1781 0.35374,0.47662 0.4301,0.84405c1.01282,0.30031 1.80386,0.70687 1.8007,1.12692c-0.00524,0.69267 -0.77924,1.18757 -1.77771,1.55136c-0.03239,0.54876 -0.05391,1.03926 -0.00178,1.36735l-0.0236,0.06772l0.02229,0.00173l-0.05329,0.6868c-0.02453,0.31609 -0.29298,0.55305 -0.59959,0.52926c-0.15331,-0.01189 -0.28713,-0.08674 -0.37956,-0.19809l-0.72234,-0.87033l0.03815,-0.03367c-0.29539,-0.26504 -0.61237,-0.56251 -0.92244,-0.87715c-0.6483,0.12495 -1.19993,0.21781 -1.50459,0.29696c-0.45114,0.11664 -0.90482,0.20743 -1.35795,0.30341zM263.54164,26.63011c0.3397,-0.1087 0.68934,-0.21635 1.02521,-0.31132c0.01027,-0.17489 0.02842,-0.34321 0.05645,-0.49964c-0.16278,-0.01483 -0.33228,-0.02675 -0.50245,-0.04041c-0.24814,0.21231 -0.5037,0.42511 -0.71678,0.59084c0.05723,0.08929 0.10272,0.1719 0.13039,0.24243c0.00238,0.00608 0.00478,0.0121 0.0072,0.0181zM264.64518,28.05239c-0.00868,-0.07345 -0.01709,-0.14909 -0.02508,-0.22642c-0.04603,0.01142 -0.0921,0.02264 -0.13812,0.03371c0.05598,0.06232 0.11072,0.12619 0.16321,0.19271zM262.62622,25.41351c0.02678,0.02862 0.05519,0.05932 0.08481,0.09176c0.00947,-0.00702 0.01896,-0.014 0.02844,-0.02099c-0.03973,-0.0218 -0.07753,-0.04534 -0.11324,-0.07076z" fill="#000000" stroke="none" stroke-width="0.5" stroke-linecap="butt"/><path d="M262.64313,28.75344c0.55519,0.04308 0.51077,0.61541 0.51077,0.61541l-0.05329,0.6868c-0.00362,0.04347 -0.00859,0.08666 -0.01484,0.12958c0.00575,0.15358 -0.04546,0.27813 -0.04546,0.27813c-0.0142,0.03345 -0.02841,0.06688 -0.0426,0.10034c-0.0293,0.09247 -0.06369,0.18367 -0.10222,0.27368l0.1245,0.0426l-0.28942,0.8871c-0.07589,0.25052 -0.31175,0.42363 -0.57596,0.40313c-0.30661,-0.02379 -0.53529,-0.29933 -0.51077,-0.61541l0.05329,-0.6868l0.03986,0.00309l-0.02559,-0.09421c0.09175,-0.22882 0.18349,-0.45765 0.27524,-0.68647c-0.00043,-0.04062 0.00077,-0.08097 0.00359,-0.12091l0.05329,-0.6868c0,0 0.04441,-0.57234 0.59959,-0.52926z" fill="#000000" stroke="none" stroke-width="0.5" stroke-linecap="butt"/><path d="M264.46795,32.5885c0.03472,-0.0028 0.07189,-0.00288 0.11169,0.00021c0.33057,0.02565 0.44855,0.23893 0.48992,0.4073c0.01881,0.06556 0.02646,0.13578 0.02085,0.2081c-0.00218,0.02805 -0.00628,0.05549 -0.01216,0.08217l-0.04814,0.32554l-0.27033,0.65737c-0.08792,0.22845 -0.31233,0.38207 -0.56206,0.36269c-0.30661,-0.02379 -0.53529,-0.29933 -0.51077,-0.61541l0.07106,-0.91573c0,0 0.04441,-0.57234 0.59959,-0.52926c0.0398,0.00309 0.07651,0.00889 0.11038,0.01702z" fill="#000000" stroke="none" stroke-width="0.5" stroke-linecap="butt"/><path d="M264.15801,109.71443c-0.26571,3.42433 -4.50945,15.29213 -10.18187,14.85198c-5.67241,-0.44014 -10.12953,-12.21538 -9.86382,-15.63971c0.26571,-3.42433 5.5015,0.71478 11.17391,1.15492c5.67241,0.44014 9.13748,-3.79153 8.87176,-0.3672z" fill="url(#color-2)" stroke="none" stroke-width="0" stroke-linecap="butt"/><path d="M200.6739,117.3761l4.37753,-56.41583l32.51767,2.52318l-0.65324,35.15418l-7.23424,21.14202c0,0 -4.33987,-0.83747 -6.41415,-0.03558c-2.26782,0.8767 -6.66397,5.09136 -6.66397,5.09136c0,0 -3.54583,-4.20618 -6.22432,-5.46044c-2.63052,-1.23177 -9.7053,-1.99888 -9.7053,-1.99888z" fill="#000000" stroke="none" stroke-width="0" stroke-linecap="butt"/><path d="M232.2726,98.2983c-3.27654,9.39498 -18.18867,15.26773 -18.18867,15.26773c0,0 -8.15559,-9.85763 -4.87905,-19.2526c3.27654,-9.39498 16.74444,-14.76962 16.74444,-14.76962c0,0 9.59982,9.35952 6.32328,18.7545z" fill="#ffffff" stroke="#ffffff" stroke-width="1.4" stroke-linecap="butt"/><path d="M233.67887,97.39939c-0.50568,6.51705 -6.73156,11.34889 -13.9059,10.7922c-7.17434,-0.55669 -12.58034,-6.29109 -12.07464,-12.80814c0.50568,-6.51705 6.73156,-11.34889 13.9059,-10.7922c7.17434,0.55669 12.58034,6.29109 12.07464,12.80814z" fill="url(#color-3)" stroke="#000000" stroke-width="1" stroke-linecap="butt"/><path d="M226.20626,118.00249c0.28932,0.2735 0.25495,0.71651 0.25495,0.71651l-0.08837,1.07443c-0.32741,1.10871 -1.97405,9.55588 -4.24346,5.36867c-0.21362,-0.39415 0.61245,-1.97773 0.7781,-2.48531c0.59336,-1.8181 1.75909,-4.03745 1.86915,-5.8981c0,0 0.06661,-0.8585 0.89938,-0.79388c0.83276,0.06462 0.76615,0.92311 0.76615,0.92311c-0.02008,0.22105 -0.10622,0.60908 -0.23591,1.09456z" fill="#000000" stroke="none" stroke-width="0.5" stroke-linecap="butt"/><path d="M217.26463,119.54189c0,0 0.32654,-0.79401 1.09551,-0.46123c0.366,0.15838 0.48382,0.42126 0.50681,0.65329c0.8071,0.07933 0.74179,0.92098 0.74179,0.92098l-0.10187,0.75873c-0.93494,2.26902 -1.76069,4.30183 -3.29254,5.86862l0.2637,0.27214l-1.03671,1.06686c-0.16718,0.17412 -0.40451,0.27448 -0.65941,0.2547c-0.45992,-0.03569 -0.80294,-0.44899 -0.76615,-0.92311c0.00928,-0.1196 0.04183,-0.23163 0.09272,-0.33175l0.34271,-0.71391c0.62065,-2.44727 1.83858,-4.99388 2.81344,-7.36531z" fill="#000000" stroke="none" stroke-width="0.5" stroke-linecap="butt"/><path d="M212.7465,116.97405c0.16923,-0.04283 0.37484,-0.02593 0.61143,0.12022c0.71506,0.44173 0.28306,1.1807 0.28306,1.1807l-0.07874,0.03205c-0.4479,2.3951 -0.8854,4.88213 -1.68455,7.17832c-0.4114,1.18212 -0.75874,3.01193 -2.6694,1.6776c-1.57681,-1.10117 -0.4971,-2.0433 -0.12443,-3.11615c0.90228,-2.5974 1.35513,-5.40073 2.21276,-8.03002c0,0 0.2666,-0.8172 1.05834,-0.54629c0.79174,0.2709 0.52515,1.08809 0.52515,1.08809c-0.04516,0.13837 -0.08967,0.27686 -0.13365,0.41547z" fill="#000000" stroke="none" stroke-width="0.5" stroke-linecap="butt"/><path d="M234.90056,108.67159c-0.24343,3.13727 -0.48687,6.27452 -0.7303,9.41178c-0.09794,1.2622 -0.01806,6.87351 -2.42292,6.5064c-1.6397,-0.25031 -0.6467,-4.27027 -0.47005,-5.11796c0.96577,-4.63451 0.23339,-11.62446 2.69883,-15.88138l-0.25615,-0.15824l0.18931,-0.32381c-0.3038,-1.91953 -0.53616,-3.84964 -0.59486,-5.80637c0,0 -0.02575,-0.86038 0.80927,-0.89097c0.83503,-0.03057 0.86079,0.82981 0.86079,0.82981c0.0386,1.2925 0.15155,2.57297 0.31018,3.84618l0.18804,-0.86054c0.08472,-0.41869 0.46015,-0.71839 0.88429,-0.68549c0.41799,0.03244 0.73943,0.37676 0.76695,0.7952l0.07989,0.96211c0.58674,4.3179 1.09503,8.69979 0.7563,13.05568c-0.1112,1.42986 0.06611,3.14385 -0.3857,4.48967c-0.01369,0.48511 -0.03945,0.97224 -0.07876,1.46164l-0.04524,0.06176l0.03128,0.00791l-0.23143,0.95509c-0.09173,0.40918 -0.46245,0.69981 -0.88044,0.66737c-0.45992,-0.03569 -0.80294,-0.44899 -0.76615,-0.92311c0.00212,-0.02742 0.00548,-0.05443 0.00999,-0.08101l0.2695,-1.69041l0.00813,0.00133c0.17269,-3.62581 -0.36824,-7.13747 -1.00081,-10.63261zM235.35607,101.56251c0.01791,-0.05858 0.03708,-0.11718 0.05763,-0.17612l-0.0833,-0.01895c0.00844,0.06503 0.017,0.13006 0.02567,0.19508zM236.20197,106.68519c-0.01653,-0.15879 -0.03352,-0.31757 -0.05092,-0.47627c-0.01077,0.00618 -0.0217,0.01212 -0.03276,0.0178c0.02781,0.15283 0.05572,0.30566 0.08368,0.45847z" fill="#000000" stroke="none" stroke-width="0.5" stroke-linecap="butt"/><path d="M226.21469,96.2906c-0.16117,2.07717 -2.71045,3.57339 -5.69399,3.34188c-2.98353,-0.2315 -5.27149,-2.10306 -5.11031,-4.18023c0.16117,-2.07717 2.71045,-3.5734 5.69399,-3.34189c2.98353,0.2315 5.27149,2.10307 5.11031,4.18024z" fill="#000000" stroke="#000000" stroke-width="2.5" stroke-linecap="butt"/><path d="M207.76968,108.11818c0,0 -0.48965,-5.69792 0.70608,-13.41847c0.37199,-2.40183 7.57254,-12.65537 7.57254,-12.65537" fill="none" stroke="#000000" stroke-width="2" stroke-linecap="round"/><path d="M207.55011,99.66502l3.51753,-10.78205" fill="none" stroke="#000000" stroke-width="2" stroke-linecap="round"/><path d="M230.16161,108.3957l4.24145,-15.79274" fill="none" stroke="#000000" stroke-width="2" stroke-linecap="round"/><path d="M253.78729,113.80385l-1.88755,7.53061l-0.17033,-9.80149" fill="none" stroke="#000000" stroke-width="1.5" stroke-linecap="round"/><path d="M259.67219,112.34122l-2.191,13.84065l0.25157,-12.83958" fill="none" stroke="#000000" stroke-width="1.5" stroke-linecap="round"/><path d="M245.33372,107.58202l-0.82895,15.48175l-0.68856,-17.51877" fill="none" stroke="#000000" stroke-width="1.5" stroke-linecap="round"/><path d="M250.20453,111.99045l-0.71056,9.15735l-0.88834,-7.746l-1.48041,9.48147l0.0073,-12.09082" fill="none" stroke="#000000" stroke-width="1.5" stroke-linecap="round"/><path d="M262.28522,109.85701l-4.31543,19.62553l2.99042,-19.3445" fill="none" stroke="#000000" stroke-width="1.5" stroke-linecap="round"/><path d="M255.23159,114.38529l-1.51002,9.86303l0.17755,-11.88568" fill="none" stroke="#000000" stroke-width="1.5" stroke-linecap="round"/><path d="M279.54763,76.28932c-0.20236,2.60784 -5.77535,15.96262 -8.40499,15.98302c-2.23833,0.01737 -1.36817,-13.21238 -3.71773,-12.44922c-2.13132,0.69229 -1.58437,7.86429 -4.05848,7.67231c-1.97309,-0.1531 -1.27118,-8.38281 -2.30372,-6.7056c-7.38202,11.99103 -4.37227,-0.26469 -5.72679,-1.53415c-1.52199,-1.42642 -4.12684,3.81585 -5.43618,3.05964c-0.95274,-0.55025 -0.90508,-6.93264 -0.79214,-8.38797c0.53084,-6.8412 7.77541,-11.85834 16.18119,-11.20611c8.40578,0.65224 14.78969,6.72688 14.25886,13.56807z" fill="#000000" stroke="#000000" stroke-width="1" stroke-linecap="butt"/><path d="M274.43451,76.39889c0,0 -1.06169,-0.98439 -2.55817,-0.47729c-2.45303,0.83124 -6.22697,3.13934 -9.53888,1.6139c-2.48337,-1.1438 -3.46945,-5.04617 -4.61424,-7.12821c-1.31333,-2.38857 -2.59886,-2.90245 -2.59886,-2.90245c0,0 1.19921,0.45769 3.34744,-0.12908c2.40833,-0.65781 5.93124,-2.30565 8.74962,-1.00754c3.12265,1.43825 4.18958,5.20412 5.26035,7.60396c0.75771,1.69821 1.95275,2.4267 1.95275,2.4267z" fill="#ffffff" stroke="#ffffff" stroke-width="1.4" stroke-linecap="butt"/><path d="M270.40916,74.97856c-1.60466,2.9913 -5.19663,4.11871 -8.0229,2.51813c-2.82627,-1.60058 -3.81657,-5.32305 -2.21191,-8.31434c1.60466,-2.9913 5.19663,-4.11871 8.0229,-2.51813c2.82627,1.60058 3.81657,5.32305 2.21191,8.31434z" fill="url(#color-4)" stroke="#000000" stroke-width="1" stroke-linecap="butt"/><path d="M268.08083,71.9653c-0.11764,1.51606 -1.457,2.64856 -2.99157,2.52948c-1.53457,-0.11907 -2.6832,-1.44461 -2.56557,-2.96068c0.11764,-1.51606 1.457,-2.64856 2.99157,-2.52948c1.53457,0.11907 2.6832,1.44461 2.56557,2.96068z" fill="#000000" stroke="#000000" stroke-width="2" stroke-linecap="butt"/><path d="M277.41033,27.10974c-0.1531,1.97309 -0.82614,7.20769 -1.97328,7.11868c-0.8102,-0.06287 -4.38959,-1.81196 -4.64168,-3.00239c-0.05979,-0.28232 1.76849,0.25429 2.47032,-0.84559c0.52887,-0.82882 -0.02885,-3.344 -0.00952,-3.59304c0.01481,-0.19079 -1.97596,-1.99805 -1.89679,-2.11149c0.31657,-0.45366 3.08958,1.24689 3.41262,0.75633c0.43155,-0.65537 0.24586,-2.10224 0.83848,-2.05626c1.14715,0.08901 1.95297,1.76068 1.79987,3.73377z" fill="#ff0000" stroke="none" stroke-width="0" stroke-linecap="butt"/><path d="M266.76259,45.84213c-0.1094,1.4099 0.70583,12.91322 -2.70332,0.46737c-0.19299,-0.70453 -0.95947,3.17684 -1.75386,3.11521c-0.8089,-0.06276 -0.54849,-2.43437 -1.15775,-2.85983c-1.11878,-0.78128 -2.80178,0.02883 -2.69343,-1.36743c0.09449,-1.21777 1.11567,-0.22663 2.10062,-0.87065c0.75937,-0.49652 1.35776,-2.78943 2.35656,-2.71193c2.29428,0.17802 4.01853,2.07064 3.85118,4.22727z" fill="#ff0000" stroke="none" stroke-width="0" stroke-linecap="butt"/><path d="M275.31093,48.79509c-0.51736,0.67848 -1.17333,0.14851 -1.17333,0.14851l-0.4187,-0.33954c-1.37462,-1.00925 -2.62568,-2.2124 -4.10833,-3.05288c-1.72158,-0.97593 -4.94079,0.74087 -6.61161,1.16948c-1.71075,0.11964 -4.57814,0.36584 -5.80606,-1.18043c-1.48494,-1.86991 -1.37142,-5.17018 -3.17975,-6.71607c-1.63329,-1.39627 -5.46509,-0.26615 -7.25971,0.1989c0,0 -0.8111,0.21018 -1.01125,-0.6247c-0.20016,-0.83488 0.61095,-1.04505 0.61095,-1.04505c2.41239,-0.62512 6.53248,-1.67504 8.70407,0.12154c2.00094,1.65541 2.02028,4.85546 3.41906,6.95665c0.63852,0.95913 3.34086,0.65118 4.26968,0.58843c2.28044,-0.59832 5.25501,-2.18279 7.60097,-1.01788c1.58738,0.78824 2.91354,2.15566 4.34313,3.1962l0.48228,0.38843c0,0 0.65595,0.52996 0.1386,1.20845z" fill="#ffffff" stroke="none" stroke-width="0.5" stroke-linecap="butt"/><path d="M262.27493,43.87466c-1.10944,0.66925 -1.44794,0.24032 -1.4827,-0.44527c-0.62937,-0.17127 -0.57356,-0.89069 -0.57356,-0.89069l0.28754,-1.33977c0.18218,-0.16431 0.40564,-0.30606 0.64987,-0.41899c0.20957,-0.13937 0.47675,-0.2206 0.75295,-0.24192c1.23493,-0.23682 2.48715,0.28413 1.68533,2.19717c-0.33159,0.79116 -0.82313,1.11576 -1.31945,1.13946z" fill="#000000" stroke="none" stroke-width="0.5" stroke-linecap="butt"/><g><path d="M191.83734,76.03504c0.05193,-0.3666 -1.27177,3.37402 -2.83499,4.9836c-2.19263,2.25765 -4.85646,2.71126 -4.85646,2.71126c0,0 10.69022,-23.21504 11.9977,-26.73933c0.23868,-0.64337 0.75269,-1.93964 0.75269,-1.93964l-7.38735,-0.36678l15.06312,-11.3176c0,0 4.31572,-6.73449 5.56288,-7.84848c1.05559,-0.94288 2.17097,-1.84506 3.34958,-2.69855c1.27165,-0.92083 -4.4645,-4.50284 -4.4645,-4.50284c0,0 10.93063,0.63761 12.2273,0.0715c2.04618,-0.89333 -1.38465,-8.57775 -1.38465,-8.57775c0,0 4.48803,3.16853 9.39824,4.47692c3.84789,1.02533 8.06092,0.27313 9.86969,0.19976c1.24551,-0.02667 11.05562,-10.15846 11.05562,-10.15846c0,0 -4.0611,10.25932 -2.47505,10.38304c46.91018,3.65924 43.72228,46.93242 46.70095,55.40817c0.14434,0.41071 10.68791,16.62556 10.68791,16.62556c0,0 -3.79272,-2.61615 -6.11706,-2.20711c-1.5333,0.26982 -2.0144,3.30235 -1.81615,4.12595c3.08615,12.82132 -0.81967,30.98722 -0.81967,30.98722c0,0 -1.18438,-4.99353 -1.9916,-7.02239c-0.85248,-2.14263 -2.99495,-5.51074 -2.99495,-5.51074l-0.85857,4.96702c0,0 1.29148,8.70666 1.93484,13.0441c0.64025,4.31632 1.91607,12.91746 1.91607,12.91746l-6.7888,-5.78213c0,0 -0.85702,1.52108 -1.31784,2.22145c-3.34778,5.08805 -7.59619,8.02316 -7.59619,8.02316l1.37047,-11.58954l-9.51235,10.80111l-1.36705,-6.81724c0,0 -5.08255,13.77791 -26.7273,13.58614c-20.41258,-0.33465 -27.89966,-12.67397 -27.89966,-12.67397l-0.9124,6.09759l-9.30168,-9.21285l-0.89607,11.23466c0,0 -9.27546,-14.73392 -9.94626,-16.70307c-0.26284,-0.77156 -1.58357,-4.76362 -1.58357,-4.76362l-5.73028,8.22044c0,0 1.42466,-7.20989 2.24961,-12.55443c0.74086,-4.79959 2.47503,-17.68834 2.47503,-17.68834c0,0 -1.59228,1.49417 -2.62656,1.82653c-1.49241,0.47961 -5.46889,0.77504 -5.46889,0.77504c0,0 2.93111,-3.80862 4.84604,-9.01521c0.33591,-0.91329 0.89259,-2.85593 0.89259,-2.85593l-9.26999,3.36211c0,0 6.29857,-7.34834 9.61017,-14.19569c2.62962,-5.43723 2.42988,-10.69373 2.43665,-10.74161z" fill="url(#color-5)" stroke="none" stroke-width="1.5" stroke-linecap="butt"/><path d="M207.99177,99.6805c-0.70528,-9.1887 0.40941,-21.61282 0.40941,-21.61282c0,0 1.74758,4.63377 2.74452,6.07683c0.65745,0.95166 -0.03373,2.99881 -0.03373,2.99881c0,0 2.5595,-1.78012 4.95838,-5.06426c2.59071,-3.54675 7.38378,-7.37827 9.33588,-7.97278c2.5485,-0.77615 3.48007,3.79286 3.48007,3.79286c0,0 6.0478,-6.26997 9.50601,-8.78724c3.73144,-2.71618 12.12538,-6.9585 12.12538,-6.9585c0,0 -2.63986,3.78602 -4.16478,5.61931c-1.62116,1.94901 -4.0651,28.42693 -4.0651,28.42693c0,0 12.63438,-22.2593 20.98977,-26.11671c0.71967,-0.62221 4.63429,-1.73869 7.51046,-0.62733c3.15605,1.21951 5.2613,4.71018 5.2613,4.71018c0,0 0.44412,16.81877 0.0633,23.82116c-0.51528,7.1426 -3.09599,11.96859 -3.85008,15.77452c-0.7541,3.80593 2.05993,10.65777 -0.13577,23.13461c-1.37027,7.78641 -7.64681,8.31782 -14.80555,15.54474c-7.15874,7.22695 -11.06488,11.65747 -15.9043,11.74437c-4.65725,0.08365 -10.92053,-6.4257 -17.03088,-13.08076c-6.50654,-7.08657 -13.26046,-6.72976 -14.28781,-15.12397c-0.36276,-2.96407 -2.92437,-1.6046 -3.77473,-3.86789c-1.88381,-5.01397 5.07405,-15.20408 4.81689,-19.2939c-0.30917,-4.91702 -2.76346,-8.12006 -3.14865,-13.13818z" fill="url(#color-6)" stroke="#000000" stroke-width="1.5" stroke-linecap="butt"/><g stroke="none" stroke-linecap="butt"><g><path d="M273.19932,137.54308c0,0 -5.12588,42.51065 -10.74012,52.11845c-2.82067,4.82712 -19.57038,3.37382 -24.82115,3.90187c-8.5368,0.85857 -15.41668,-0.29228 -18.43619,-5.14379c-6.07844,-9.76639 -10.59677,-51.45285 -10.59677,-51.45285c0,0 15.79624,-4.9939 21.5606,-4.9755c3.75297,0.01199 13.20751,6.07005 13.20751,6.07005c0,0 8.16904,-6.60715 10.5532,-6.18904c9.74693,1.70931 19.27293,5.67081 19.27293,5.67081z" fill="url(#color-7)" stroke-width="0"/><path d="M260.44676,136.06108c8.33034,2.6463 7.47834,3.24229 -6.3344,4.64884l-11.2909,0.903l1.02452,-0.70576c0,-2.27491 8.50777,-7.42087 16.60078,-4.84609z" data-paper-data="{&quot;noHover&quot;:false,&quot;origItem&quot;:[&quot;Path&quot;,{&quot;applyMatrix&quot;:true,&quot;segments&quot;:[[[87.72283,305.82038],[0,-1.39308],[0,0]],[87.72283,306.59686],[[89.46501,306.42178],[0,0],[4.54688,-0.44914]],[[91.38689,305.05152],[2.74218,0.845],[-2.66406,-0.82216]]],&quot;closed&quot;:true,&quot;fillColor&quot;:[0,0,0,1]}]}" fill="url(#color-8)" stroke-width="0.5"/><path d="M219.47079,135.66759c7.30981,-2.57478 10.43888,-1.47934 13.99887,0.47554c1.87491,1.00127 10.7272,3.54125 10.7272,4.5664c0,1.85954 -8.75508,0.55403 -19.8385,-0.78101l-10.82618,-2.03646l5.93854,-2.22446z" data-paper-data="{&quot;noHover&quot;:false,&quot;origItem&quot;:[&quot;Path&quot;,{&quot;applyMatrix&quot;:true,&quot;segments&quot;:[[81.36343,304.9982],[79.41031,305.67572],[[81.98063,305.9726],[0,0],[3.64844,0.4263]],[[86.05875,305.77468],[0,0.59378],[0,-0.32734]],[[85.10563,304.77744],[0.61718,0.31972],[-1.17188,-0.62422]],[[81.36345,304.9982],[2.40624,-0.82216],[0,0]]],&quot;closed&quot;:true,&quot;fillColor&quot;:[0,0,0,1]}]}" fill="url(#color-9)" stroke-width="0.5"/><path d="M227.79224,143.03849c2.18344,0.30991 14.07457,1.09598 19.34334,1.09598c8.89994,0 16.21551,-3.14217 14.38806,-2.0455c-0.42525,0.25212 -1.21839,1.47606 -2.92012,2.09017c-0.30833,0.11127 -1.38111,1.1175 -1.96147,2.42548c-0.68324,1.53986 -0.85872,3.40788 -0.85872,3.40788c0,0 -0.88395,-2.08086 -1.53018,-2.74842c-0.61806,-0.63843 -2.26654,-1.17343 -2.26654,-1.17343c0,0 -8.92195,2.1122 -11.44793,2.1122c-1.96922,0 -10.21621,-1.98218 -10.21621,-1.98218c0,0 -2.59952,0.34989 -3.48028,0.87644c-0.68188,0.40765 -1.36197,2.01839 -1.36197,2.01839c0,0 0.04897,-1.56552 -0.98017,-3.27458c-0.68076,-1.13053 -2.46989,-2.58637 -2.77454,-2.75222c-1.22887,-0.66896 -3.10321,-2.07309 -3.10321,-2.07309l9.7729,2.09868z" data-paper-data="{&quot;noHover&quot;:false,&quot;origItem&quot;:[&quot;Path&quot;,{&quot;applyMatrix&quot;:true,&quot;segments&quot;:[[83.43363,306.96974],[82.12895,306.77182],[[83.19927,307.34276],[0,0],[0.92968,0.47198]],[[87.01177,307.89086],[-2.35938,0],[2,0]],[[90.38677,307.51784],[-0.47656,0.27406],[0.60156,-0.35018]],[[87.88677,307.14482],[2.92968,0],[-1.73438,0]],[[83.43365,306.96974],[0.71874,0.09896],[0,0]]],&quot;closed&quot;:true,&quot;fillColor&quot;:[0,0,0,1]}]}" fill="url(#color-10)" stroke-width="0.5"/><path d="M228.60838,176.14304c0.17771,0.05409 2.39907,-3.73411 2.39907,-3.73411c0,0 -0.37722,1.19066 -0.1549,2.52322c0.25316,1.51749 1.13987,3.21899 1.69961,3.55576c1.45754,0.87694 2.95688,1.71233 3.83095,1.9265c2.45968,0.5852 9.42222,-1.1834 12.86608,-2.79125c0.42367,-0.19779 1.28405,-1.34693 1.57077,-2.56652c0.36112,-1.53599 0.09668,-3.18377 0.09668,-3.18377c0,0 1.98049,4.03173 2.38961,3.85999c2.7531,-1.16814 0.22017,4.22279 -2.65158,5.46252c-1.96986,0.92974 -9.29924,1.61909 -14.23576,1.38071c-5.93329,-0.23838 -6.75274,-2.34597 -8.20046,-3.99094c-1.51893,-1.64498 -1.58637,-3.01914 -0.20985,-2.54231z" data-paper-data="{&quot;noHover&quot;:false,&quot;origItem&quot;:[&quot;Path&quot;,{&quot;applyMatrix&quot;:true,&quot;segments&quot;:[[[83.55863,311.35458],[0,0],[-0.45312,-0.15226]],[[83.62895,311.78088],[-0.5,-0.52526],[0.47656,0.52526]],[[86.36333,312.45078],[-1.95312,-0.07612],[1.625,0.07612]],[[89.46489,312.1539],[-0.64844,0.29688],[0.94532,-0.39586]],[[89.81645,311.47638],[0.90626,-0.373],[-1.04688,0.4263]],[[85.22271,311.75804],[1.1875,0.27406],[-0.64062,-0.15226]],[[83.55865,311.35458],[0.25782,0.07612],[0,0]]],&quot;closed&quot;:true,&quot;fillColor&quot;:[0,0,0,1]}]}" fill="url(#color-11)" stroke-width="0.5"/><path d="M212.26722,140.72472c-0.5696,-1.85954 1.53647,-0.9807 3.9335,1.28416c1.51893,1.47811 4.8779,24.72398 6.46802,29.49202c3.03785,9.20238 3.77189,11.62874 12.45828,12.03404c18.84426,0.54837 19.77165,-2.37069 22.3111,-11.19162c0.87819,-2.88469 5.59059,-26.21959 6.25508,-27.38778c1.23415,-2.26479 5.86253,-5.77887 5.86253,-4.46769c0,0.40531 -4.14468,24.68163 -4.9279,29.35433c-1.51893,9.29777 -3.20313,16.44277 -6.24098,18.87448c-3.84477,2.95623 -24.66198,3.45827 -33.41957,0.8835c-3.60745,-1.09666 -4.03157,-1.5048 -5.6217,-5.3431c-0.94933,-2.26479 -2.41847,-8.22485 -3.2729,-13.06443c-0.80692,-4.83957 -3.52066,-29.82416 -3.80549,-30.46786z" data-paper-data="{&quot;noHover&quot;:false,&quot;origItem&quot;:[&quot;Path&quot;,{&quot;applyMatrix&quot;:true,&quot;segments&quot;:[[[78.98051,306.64252],[0,0],[0.09376,0.20554]],[[79.62895,309.80934],[-0.26562,-1.54534],[0.28126,1.54534]],[[80.69927,313.9201],[-0.3125,-0.72318],[0.52344,1.22562]],[[82.52739,315.59486],[-1.1875,-0.35018],[2.88282,0.82216]],[[91.51177,315.3208],[-1.26562,0.94396],[1,-0.77648]],[[93.91803,309.38302],[-0.5,2.9689],[0.25782,-1.49206]],[[94.38679,306.46742],[0,0.12942],[0,-0.41868]],[[92.62897,307.792],[0.40626,-0.72318],[-0.21874,0.37302]],[[91.74615,310.13666],[0.28908,-0.92112],[-0.83594,2.81664]],[[85.83989,313.22734],[4.26564,0.1751],[-2.85938,-0.12942]],[[81.60551,309.8626],[1,2.93844],[-0.52344,-1.5225]],[[80.10551,306.947],[0.5,0.47198],[-0.78906,-0.7232]],[[78.98051,306.6425],[-0.1875,-0.59378],[0,0]]],&quot;closed&quot;:true,&quot;fillColor&quot;:[0,0,0,1]}]}" fill="url(#color-12)" stroke-width="0.5"/></g><path d="M245.76914,184.93179v-12.14756h4.20419v11.15187c0,0 -1.82568,3.68409 -2.58719,3.68409c-0.60204,0 -1.61699,-2.68839 -1.61699,-2.68839z" fill="url(#color-13)" stroke-width="0"/><path d="M252.72222,191.45418c0,0 -1.86299,1.00017 -3.96164,1.00017c-2.09865,0 -5.76938,-0.83348 -5.76938,-0.83348c0,0 3.67074,-2.83383 5.76938,-2.83383c2.09865,0 3.96164,2.66713 3.96164,2.66713z" fill="url(#color-14)" stroke-width="0"/></g><path d="M267.81869,80.44293c0,0 1.69825,1.43153 4.67105,4.4341c2.71531,2.74252 4.6986,5.7834 4.6986,5.7834l-0.14076,2.40603c0,0 -7.56435,-9.99062 -17.05775,-12.85084c-7.5907,-2.28691 -12.6511,0.26793 -12.6511,0.26793l1.37822,-8.19456c0,0 4.23165,-1.70035 9.86969,0.50513c5.83816,2.28379 9.36209,5.43982 9.36209,5.43982z" data-paper-data="{&quot;index&quot;:null}" fill="url(#color-15)" stroke="none" stroke-width="1.5" stroke-linecap="butt"/><path d="M210.06897,112.43467c0,0 -2.59969,2.79613 -4.27856,1.35383c-0.45286,-0.38904 0.2945,-4.39643 -0.18107,-4.88074c-0.90171,-0.91824 -1.80628,-2.004 -2.56978,-3.24325c-0.76569,-1.24283 -1.38946,-2.64 -1.72611,-4.17743c-1.58432,-7.23536 -0.56361,-12.62226 1.8089,-12.94875c2.37254,-0.32649 3.30367,2.99466 4.56174,10.52728c1.25806,7.5326 2.3849,13.36906 2.3849,13.36906z" data-paper-data="{&quot;index&quot;:null}" fill="url(#color-16)" stroke="#000000" stroke-width="1" stroke-linecap="butt"/><path d="M209.82139,107.46116c0,0 -1.35984,2.10183 -2.37811,1.26766c-0.49395,-0.40464 -0.44025,-3.427 -1.00632,-4.02729c-1.64543,-1.74494 -3.36442,-4.31565 -3.81341,-7.70724c-0.51426,-3.88459 4.55632,-3.05274 4.55632,-3.05274" fill="url(#color-17)" stroke="#000000" stroke-width="0.25" stroke-linecap="round"/><path d="M246.5704,102.5897c0.24873,-8.09726 5.4417,-14.67403 11.94079,-14.67403c6.49907,0 11.33468,6.56979 11.33468,14.67403c0,8.10426 -4.74901,15.02617 -11.85422,15.14353c-6.75834,0.11164 -11.68101,-6.68716 -11.42125,-15.14353z" fill="url(#color-18)" stroke="#000000" stroke-width="3.5" stroke-linecap="butt"/><path d="M252.73895,103.05915c0,-4.66886 6.60559,-13.397 6.60559,-13.397c0,0 6.60558,8.72815 6.60558,13.39701c0,4.66886 -6.60558,12.81543 -6.60558,12.81543c0,0 -6.60559,-8.1466 -6.60559,-12.81543z" fill="url(#color-19)" stroke="#720000" stroke-width="2" stroke-linecap="butt"/><path d="M217.70104,80.76868c0,0 3.85484,-3.74026 9.45937,-5.39767c6.21053,-1.83663 12.89257,8.49447 12.89257,8.49447l-2.15236,3.58592c0,0 -5.15721,-7.0578 -10.21796,-6.00886c-6.76812,1.4028 -7.88514,3.68654 -12.99219,5.26016c-4.37599,1.34837 -8.165,1.52161 -8.165,1.52161l-0.1935,-2.10438c0,0 4.37795,-0.5401 6.35008,-1.08781c1.62773,-0.45205 4.70714,-2.34399 4.70714,-2.34399z" fill="url(#color-20)" stroke="none" stroke-width="1.5" stroke-linecap="butt"/><path d="M276.3489,99.06561c1.25806,-7.5326 2.1892,-10.85376 4.56174,-10.52728c2.37254,0.32648 4.61535,4.99342 3.03104,12.22879c-1.50575,6.87644 -9.97767,11.66755 -9.97767,11.66755c0,0 1.12683,-5.83645 2.3849,-13.36906z" data-paper-data="{&quot;index&quot;:null}" fill="url(#color-21)" stroke="#000000" stroke-width="1" stroke-linecap="butt"/><path d="M276.85312,93.94154c0,0 5.41976,-1.37183 4.90549,2.51279c-0.92187,6.96372 -7.54701,11.00683 -7.54701,11.00683" data-paper-data="{&quot;index&quot;:null}" fill="url(#color-22)" stroke="#000000" stroke-width="0.25" stroke-linecap="round"/><path d="M241.76183,136.7555c-1.26339,0 -4.32401,-4.10778 -4.62784,-6.75769c-0.27184,-2.37095 1.60725,-4.82287 4.62784,-4.82287c3.0206,0 5.13552,0.61831 4.92517,5.2771c-0.1785,3.95378 -1.90457,6.30346 -4.92517,6.30346z" fill="url(#color-23)" stroke="#000000" stroke-width="1.15" stroke-linecap="butt"/><path d="M246.16407,98.84063c0,0 0.12539,5.00146 0.00704,8.97877c-0.23433,7.87574 -1.3217,34.97551 -1.3217,34.97551l-3.64399,0.01089c0,0 -0.98129,-5.2572 -1.37273,-11.96872c-0.52983,-9.08462 -0.54934,-20.52771 -0.93302,-24.73458c-0.36368,-3.98773 -1.09494,-7.1997 -1.09494,-7.1997" fill="url(#color-24)" stroke="#000000" stroke-width="1.3" stroke-linecap="round"/><path d="M239.06306,37.6721l36.52048,-35.56016l0.03843,45.59463c0,0 -8.55212,1.80898 -19.63735,-1.98683c-11.92021,-4.08171 -16.92157,-8.04765 -16.92157,-8.04765z" fill="url(#color-25)" stroke="none" stroke-width="0" stroke-linecap="butt"/><path d="M239.32103,37.87638l36.0664,-35.69696c0,0 -17.51103,21.3386 -21.3444,28.10928c-2.2424,3.96065 -0.51813,14.72706 -0.51813,14.72706c0,0 -5.36204,-2.2752 -7.83909,-3.52024c-2.232,-1.12188 -6.36478,-3.61915 -6.36478,-3.61915z" fill="url(#color-26)" stroke="none" stroke-width="0" stroke-linecap="butt"/><path d="M280.57936,5.18637c0,3.7773 -3.0485,6.83941 -6.80901,6.83941c-3.76052,0 -6.80901,-3.06212 -6.80901,-6.83941c0,-3.7773 3.04851,-6.83941 6.80901,-6.83941c3.76052,0 6.80901,3.06212 6.80901,6.83941z" fill="url(#color-27)" stroke="#000000" stroke-width="0" stroke-linecap="butt"/><path d="M274.99247,31.68913c-0.59814,0 -0.80596,-0.40236 -0.87817,-0.68196c-1.12286,-1.02315 -2.18886,-0.8793 -3.76339,-0.61288c-3.14431,1.32036 -7.71888,3.5785 -10.91933,0.92883c-1.31785,-1.09106 -1.18588,-3.003 -2.31783,-4.17914c-0.61671,-0.64077 -3.63459,0.15204 -4.18715,0.21905c0,0 -0.27416,0.03326 -0.53929,-0.09186l-0.74112,0.6112c0,0 -0.71575,0.59029 -1.28833,-0.14757c-0.57259,-0.73785 0.14316,-1.32816 0.14316,-1.32816l0.87295,-0.71993c0,0 0.51718,-0.42654 1.02398,-0.10125c0.1683,-0.08163 0.31445,-0.09935 0.31445,-0.09935c1.59101,-0.19295 4.17044,-0.98613 5.5899,0.21905c1.16887,0.99242 1.08222,3.24137 2.2215,4.10017c2.78718,2.10095 6.67862,-0.15258 9.3331,-1.23098c2.33524,-0.40561 4.03153,-0.46211 5.78363,1.32172l0.26846,0.84813c0,0 0,0.94491 -0.9166,0.94491z" fill="url(#color-28)" stroke="none" stroke-width="0.5" stroke-linecap="butt"/><path d="M273.4822,33.24261c0.68096,0.1462 0.68097,0.92129 0.68097,0.92129l-0.00137,0.02835c0.07969,0.29875 0.0735,0.63553 -0.04843,1.00032l-0.01997,0.41285c-0.10764,0.10703 -0.22366,0.20386 -0.34615,0.2907c-0.57165,0.78396 -1.39901,0.89398 -2.06108,0.58457c-1.49335,-0.0649 -2.66318,-1.13179 -1.23248,-2.92943c0.76518,-0.96143 2.16931,-0.93173 3.02854,-0.30864z" fill="url(#color-29)" stroke="none" stroke-width="0.5" stroke-linecap="butt"/><path d="M252.69659,31.50632c-0.03259,0.00283 -0.05162,0.00282 -0.05162,0.00282l-1.20022,-0.59398c-0.11355,-0.54102 -0.60102,-1.13899 -0.34064,-1.62308c0.41388,-0.76936 2.98788,-1.70412 3.41991,-0.02536c0.20939,0.81368 -0.08188,2.11726 -0.86268,2.3637c-0.30357,0.09582 -0.64485,0.03432 -0.96475,-0.12411z" fill="url(#color-30)" stroke="none" stroke-width="0.5" stroke-linecap="butt"/><path d="M279.55061,6.70378c0,2.1945 -3.04182,4.65192 -5.17055,4.65192c-2.12873,0 -4.13644,-1.16298 -4.13644,-1.16298c0,0 4.43562,-0.30226 6.10483,-1.51898c1.37618,-1.00313 3.20216,-5.26506 3.20216,-5.26506c0,0 0,1.10061 0,3.29512z" fill="url(#color-31)" stroke="none" stroke-width="0" stroke-linecap="butt"/><path d="M257.87998,22.45865c-0.66493,0.59059 -1.35798,1.13177 -2.12639,1.5344c0,0 -0.54655,0.2817 -0.81983,-0.28172c-0.27326,-0.56344 0.27326,-0.84516 0.27326,-0.84516c0.07805,-0.03944 0.15552,-0.08048 0.23245,-0.12298c-0.01861,-0.03649 -0.03542,-0.07712 -0.05002,-0.12228c-0.19323,-0.59762 0.38648,-0.79683 0.38648,-0.79683l0.73328,-0.25198c0.3061,-0.10498 0.61421,-0.19876 0.92279,-0.28981c0.59059,-0.52189 1.16358,-1.0866 1.73999,-1.6345c-0.46662,-0.69759 -0.65156,-1.36426 -0.27658,-1.87806c0.27764,-0.38042 1.60261,-0.46796 3.00304,-0.34371c0.50365,-0.34688 1.03433,-0.68968 1.10124,-0.64374c0.25659,0.17613 0.42747,0.49144 0.54222,0.88695c1.1336,0.24257 2.03357,0.62023 2.06576,1.08006c0.05308,0.75828 -0.75172,1.36544 -1.81324,1.84821c0.01116,0.60313 0.02925,1.14161 0.11413,1.49613l-0.02008,0.0761h0.02453v0.75594c0,0.34791 -0.27359,0.62995 -0.61106,0.62995c-0.16873,0 -0.32151,-0.07051 -0.43207,-0.1845l-0.86418,-0.89088l0.03888,-0.04007c-0.34569,-0.26491 -0.71772,-0.56344 -1.08369,-0.88136c-0.69867,0.19175 -1.29433,0.34015 -1.62092,0.45261c-0.48369,0.16591 -0.97234,0.30374 -1.45994,0.44723zM261.1716,19.89634c0.36244,-0.14777 0.73583,-0.29523 1.09522,-0.42764c-0.00362,-0.19222 0.00196,-0.3779 0.01935,-0.55144c-0.17936,-0.00242 -0.36581,-0.00107 -0.55314,-0.00156c-0.25346,0.25334 -0.515,0.50786 -0.73406,0.70728c0.0702,0.09283 0.12698,0.17934 0.16323,0.25418c0.00312,0.00644 0.00625,0.01283 0.0094,0.01919zM262.4997,21.35873c-0.01573,-0.07962 -0.03137,-0.16166 -0.04666,-0.24559c-0.04939,0.01641 -0.09884,0.03259 -0.14825,0.04861c0.06655,0.06344 0.13185,0.12865 0.19493,0.19699zM260.06679,18.643c0.03172,0.02903 0.06542,0.06021 0.10058,0.09318c0.00977,-0.00848 0.01955,-0.01693 0.02933,-0.02539c-0.04531,-0.02049 -0.08868,-0.04303 -0.12989,-0.0678z" fill="url(#color-32)" stroke="none" stroke-width="0.5" stroke-linecap="butt"/><path d="M260.36883,22.29569c0.61106,0 0.61106,0.62995 0.61106,0.62995v0.75594c-0.00027,0.04786 -0.00204,0.09554 -0.00524,0.14302c0.01933,0.16753 -0.02613,0.30816 -0.02613,0.30816c-0.01269,0.03779 -0.02541,0.07558 -0.03808,0.11339c-0.02421,0.10366 -0.05409,0.20636 -0.0886,0.30811l0.13982,0.03604l-0.24134,0.99513c-0.06176,0.28053 -0.30511,0.48995 -0.59592,0.48995c-0.33748,0 -0.61106,-0.28205 -0.61106,-0.62995v-0.75594h0.04388l-0.036,-0.10091c0.08095,-0.25813 0.16191,-0.51629 0.24286,-0.77442c-0.00391,-0.0444 -0.00604,-0.08865 -0.00633,-0.13259v-0.75594c0,0 0,-0.62995 0.61106,-0.62995z" fill="url(#color-33)" stroke="none" stroke-width="0.5" stroke-linecap="butt"/><path d="M262.69087,26.33663c0.03775,-0.00602 0.07841,-0.00924 0.12221,-0.00924c0.36384,0 0.51103,0.22332 0.57058,0.40403c0.02616,0.07013 0.04049,0.1463 0.04049,0.2259c0,0.03088 -0.00216,0.06125 -0.00633,0.09093l-0.02504,0.36025l-0.23997,0.74216c-0.07681,0.25741 -0.30928,0.44453 -0.58416,0.44453c-0.33748,0 -0.61106,-0.28205 -0.61106,-0.62995v-1.00792c0,0 0,-0.62995 0.61106,-0.62995c0.04381,0 0.08446,0.00324 0.12221,0.00924z" fill="url(#color-34)" stroke="none" stroke-width="0.5" stroke-linecap="butt"/><path d="M268.89929,110.74438c0,3.76903 -3.63546,17.11354 -9.87887,17.11354c-6.24342,0 -12.11946,-12.50459 -12.11946,-16.27363c0,-3.76903 6.07973,0.31497 12.32313,0.31497c6.24342,0 9.67519,-4.92392 9.67519,-1.15489z" fill="url(#color-35)" stroke="none" stroke-width="0" stroke-linecap="butt"/><path d="M200.0934,124.51623v-62.09471h35.79093l2.26967,38.51672l-6.11997,23.74507c0,0 -4.81923,-0.54782 -7.02058,0.50559c-2.40673,1.15169 -6.85864,6.13604 -6.85864,6.13604c0,0 -4.23647,-4.30085 -7.27342,-5.44572c-2.98256,-1.12433 -10.78801,-1.363 -10.78801,-1.363z" fill="url(#color-36)" stroke="none" stroke-width="0" stroke-linecap="butt"/><path d="M233.04512,100.96118c-2.78721,10.55696 -18.60362,18.24813 -18.60362,18.24813c0,0 -9.75967,-10.09262 -6.97247,-20.64958c2.78721,-10.55696 17.06581,-17.58055 17.06581,-17.58055c0,0 11.29749,9.42504 8.51028,19.982z" fill="url(#color-37)" stroke="#ffffff" stroke-width="1.4" stroke-linecap="butt"/><path d="M234.50739,99.85832c0,6.16296 -6.40138,11.15905 -14.29789,11.15905c-7.89652,0 -14.29789,-4.99608 -14.29789,-11.15905c0,-6.16296 6.40138,-11.15905 14.29789,-11.15905c7.89652,0 14.29789,4.99608 14.29789,11.15905z" fill="url(#color-38)" stroke="#000000" stroke-width="1" stroke-linecap="butt"/><path d="M228.08086,123.034c0.33977,0.27467 0.33977,0.76226 0.33977,0.76226l-0.00548,1.18302c-0.26409,1.24079 -1.34853,10.62243 -4.18689,6.23395c-0.26719,-0.41309 0.50216,-2.21578 0.64031,-2.78517c0.49482,-2.03952 1.58183,-4.5666 1.54429,-6.61164c0,0 0,-0.94491 0.9166,-0.94491c0.9166,0 0.9166,0.94491 0.9166,0.94491c-0.0032,0.24355 -0.0645,0.67539 -0.16518,1.21755z" fill="url(#color-39)" stroke="none" stroke-width="0.5" stroke-linecap="butt"/><path d="M218.42874,125.47731c0,0 0.28986,-0.89642 1.15941,-0.59762c0.41389,0.14221 0.56509,0.41982 0.60995,0.67172c0.88976,0.01827 0.88976,0.94465 0.88976,0.94465l-0.04704,0.83876c-0.83026,2.56185 -1.56113,4.856 -3.10409,6.70022l0.31161,0.27536l-1.04367,1.25522c-0.16813,0.20469 -0.41925,0.33463 -0.69982,0.33463c-0.50621,0 -0.9166,-0.42307 -0.9166,-0.94491c0,-0.13164 0.02611,-0.25698 0.07328,-0.37084l0.31435,-0.81016c0.47129,-2.73018 1.58758,-5.61975 2.45285,-8.29704z" fill="url(#color-40)" stroke="none" stroke-width="0.5" stroke-linecap="butt"/><path d="M213.26759,123.05148c0.18151,-0.06123 0.4079,-0.0602 0.67915,0.07962c0.81983,0.42259 0.40992,1.26774 0.40992,1.26774l-0.08342,0.04173c-0.28671,2.65843 -0.55424,5.41657 -1.23363,7.99662c-0.34974,1.32825 -0.57442,3.35968 -2.7781,2.06204c-1.81862,-1.07091 -0.71733,-2.19332 -0.40069,-3.39873c0.76665,-2.91835 1.02412,-6.02384 1.73923,-8.97329c0,0 0.2223,-0.91671 1.11152,-0.68753c0.88923,0.22916 0.66692,1.14587 0.66692,1.14587c-0.03767,0.15522 -0.07461,0.31052 -0.11095,0.4659z" fill="url(#color-41)" stroke="none" stroke-width="0.5" stroke-linecap="butt"/><path d="M236.80093,112.08722c0,3.45307 0,6.90611 0,10.35919c0,1.38926 0.56377,7.52167 -2.09849,7.32417c-1.8152,-0.13465 -1.07005,-4.61709 -0.94875,-5.55952c0.66318,-5.15247 -0.73149,-12.73784 1.60451,-17.60452l-0.29368,-0.15138l0.17963,-0.37034c-0.49534,-2.07432 -0.91341,-4.16627 -1.14374,-6.30209c0,0 -0.10121,-0.93914 0.80976,-1.04349c0.91098,-0.10434 1.0122,0.83479 1.0122,0.83479c0.15195,1.41081 0.38424,2.80215 0.66588,4.18167l0.13267,-0.95745c0.05714,-0.46527 0.44246,-0.82504 0.90929,-0.82504c0.46007,0 0.84098,0.34943 0.90662,0.80489l0.16909,1.04584c1.00849,4.6743 1.9366,9.42526 1.93578,14.21968c-0.00027,1.57382 0.33921,3.434 -0.04084,4.94478c0.02622,0.5319 0.03937,1.06705 0.03792,1.60582l-0.04424,0.07142l0.03489,0.006l-0.17212,1.06458c-0.06563,0.45545 -0.44654,0.80489 -0.90662,0.80489c-0.50621,0 -0.9166,-0.42307 -0.9166,-0.94491c0,-0.03018 0.00137,-0.06002 0.00404,-0.08947l0.15134,-1.8723l0.00899,0.00077c-0.11887,-3.98157 -1.0088,-7.77765 -1.99758,-11.54789zM236.69578,104.2707c0.01462,-0.06562 0.03062,-0.13135 0.04811,-0.19758l-0.09275,-0.01366c0.01476,0.07044 0.02964,0.14087 0.04464,0.21125zM238.05614,109.80347c-0.03157,-0.17232 -0.06364,-0.34459 -0.09614,-0.51675c-0.01126,0.00768 -0.02271,0.0151 -0.03432,0.02225c0.0434,0.16484 0.08691,0.32969 0.13048,0.4945z" fill="url(#color-42)" stroke="none" stroke-width="0.5" stroke-linecap="butt"/><path d="M227.24688,99.27888c0,2.28627 -3.66207,5.38964 -6.94594,5.38964c-3.28385,0 -6.69594,-3.10338 -6.69594,-5.38964c0,-2.28627 3.66207,-5.13965 6.94594,-5.13965c3.28385,0 6.69594,2.85339 6.69594,5.13965z" fill="#ffffff" stroke="none" stroke-width="0" stroke-linecap="butt"/><path d="M207.07078,113.78499c0,0 -1.01943,-6.19238 -0.36664,-14.74074c0.20308,-2.65936 7.21056,-14.48878 7.21056,-14.48878" fill="url(#color-43)" stroke="#000000" stroke-width="2" stroke-linecap="round"/><path d="M206.11293,104.55527l2.93311,-12.09498" fill="url(#color-44)" stroke="#000000" stroke-width="2" stroke-linecap="round"/><path d="M231.59273,112.18771l3.29976,-17.63851" fill="url(#color-45)" stroke="#000000" stroke-width="2" stroke-linecap="round"/><path d="M257.90012,116.09894l-1.42582,8.39929l-1.01844,-10.7091" fill="url(#color-46)" stroke="#000000" stroke-width="1.5" stroke-linecap="round"/><path d="M264.21446,113.99912l-1.22213,15.32869l-0.81475,-14.06882" fill="url(#color-47)" stroke="#000000" stroke-width="1.5" stroke-linecap="round"/><path d="M248.12308,110.00946l0.40737,17.00854l-2.24057,-19.10838" fill="url(#color-48)" stroke="#000000" stroke-width="1.5" stroke-linecap="round"/><path d="M253.82637,114.41909v10.07914l-1.62951,-8.39929l-0.81475,10.4991l-1.01844,-13.22887" fill="url(#color-49)" stroke="#000000" stroke-width="1.5" stroke-linecap="round"/><path d="M266.86242,111.05938l-3.05532,21.83813l1.62951,-21.41818" fill="url(#color-50)" stroke="#000000" stroke-width="1.5" stroke-linecap="round"/><path d="M259.52962,116.61246l-0.81475,10.91907l-0.81475,-13.01887" fill="url(#color-51)" stroke="#000000" stroke-width="1.5" stroke-linecap="round"/><path d="M282.89908,72.86838c0,2.87035 -4.96353,17.95457 -7.83882,18.20013c-2.44743,0.20901 -2.61853,-14.33917 -5.12433,-13.30476c-2.27305,0.93835 -1.06578,8.73861 -3.78894,8.73861c-2.1717,0 -2.10242,-9.06349 -3.08972,-7.14084c-7.05851,13.74576 -4.80605,0.0816 -6.39579,-1.1923c-1.78626,-1.4314 -4.19113,4.52517 -5.68784,3.80898c-1.08907,-0.52113 -1.57876,-7.50797 -1.57876,-9.10982c0,-7.52984 7.50016,-13.63399 16.75209,-13.63399c9.25192,0 16.75209,6.10414 16.75209,13.63399z" fill="url(#color-52)" stroke="#000000" stroke-width="1" stroke-linecap="butt"/><path d="M277.31426,73.42232c0,0 -1.24514,-0.98688 -2.83935,-0.30503c-2.61323,1.11768 -6.54626,3.9633 -10.29923,2.57553c-2.8141,-1.04059 -4.22424,-5.22636 -5.65347,-7.40707c-1.63966,-2.50178 -3.08975,-2.95487 -3.08975,-2.95487c0,0 1.35087,0.39893 3.65138,-0.42539c2.57904,-0.92415 6.29348,-3.02608 9.4872,-1.84511c3.53851,1.30846 5.0255,5.33802 6.40074,7.87272c0.97317,1.79364 2.34246,2.48921 2.34246,2.48921z" fill="url(#color-53)" stroke="#ffffff" stroke-width="1.4" stroke-linecap="butt"/><path d="M272.06528,71.71344c-1.37967,3.13197 -4.90233,4.54538 -7.8681,3.15696c-2.96576,-1.38843 -4.25154,-5.05297 -2.87187,-8.18494c1.37967,-3.13197 4.90233,-4.54538 7.8681,-3.15696c2.96576,1.38843 4.25154,5.05297 2.87187,8.18494z" fill="url(#color-54)" stroke="#000000" stroke-width="1" stroke-linecap="butt"/><path d="M269.98649,69.11103c0,1.66867 -1.36922,3.02141 -3.05827,3.02141c-1.68904,0 -3.05827,-1.35273 -3.05827,-3.02141c0,-1.66867 1.36922,-3.02141 3.05827,-3.02141c1.68904,0 3.05827,1.35273 3.05827,3.02141z" fill="#ffffff" stroke="none" stroke-width="0" stroke-linecap="butt"/><path d="M276.38567,19.24373c0,2.1717 -0.29198,7.95587 -1.55459,7.95587c-0.89176,0 -4.95635,-1.60978 -5.33322,-2.89079c-0.08938,-0.3038 1.95645,0.12808 2.63093,-1.13485c0.50826,-0.95169 -0.31546,-3.65614 -0.31546,-3.93025c0,-0.21 -2.33147,-2.01827 -2.25448,-2.1491c0.30784,-0.52322 3.48607,1.1019 3.79786,0.53776c0.41652,-0.75366 0.09053,-2.32087 0.7428,-2.32087c1.26262,0 2.28617,1.76051 2.28617,3.93222z" fill="url(#color-55)" stroke="none" stroke-width="0" stroke-linecap="butt"/><path d="M266.32652,40.64228c0,1.55182 1.86848,14.06811 -2.91795,0.74084c-0.27095,-0.75442 -0.78004,3.55716 -1.6544,3.55716c-0.89032,0 -0.80674,-2.6168 -1.50944,-3.03058c-1.29036,-0.7598 -3.0629,0.26939 -3.0629,-1.26742c0,-1.34035 1.2014,-0.34267 2.22432,-1.13089c0.78865,-0.60771 1.2487,-3.16711 2.34802,-3.16711c2.52523,0 4.57235,1.92428 4.57235,4.29801z" fill="url(#color-56)" stroke="none" stroke-width="0" stroke-linecap="butt"/><path d="M275.92973,43.14732c-0.50843,0.78623 -1.2711,0.26208 -1.2711,0.26208l-0.48693,-0.33594c-1.58961,-0.98751 -3.06051,-2.19763 -4.75399,-2.9913c-1.96639,-0.92158 -5.3427,1.23001 -7.13431,1.84079c-1.86153,0.27613 -4.97777,0.78893 -6.45246,-0.79859c-1.78338,-1.91975 -1.93935,-5.54012 -4.04903,-7.07794c-1.90548,-1.38896 -6.00181,0.17277 -7.92578,0.83391c0,0 -0.86957,0.29881 -1.15941,-0.59762c-0.28986,-0.89642 0.57971,-1.19524 0.57971,-1.19524c2.58627,-0.88873 7.00481,-2.38719 9.53322,-0.60595c2.32971,1.64127 2.62253,5.14073 4.33128,7.32084c0.78001,0.99516 3.71043,0.42883 4.7213,0.28132c2.44418,-0.8482 5.56407,-2.83426 8.22961,-1.7589c1.80362,0.72764 3.37064,2.11111 5.02304,3.12817l0.56061,0.38402c0,0 0.76266,0.52413 0.25423,1.31035z" fill="url(#color-57)" stroke="none" stroke-width="0.5" stroke-linecap="butt"/><path d="M261.24968,38.8707c-1.15699,0.82639 -1.56376,0.38585 -1.65999,-0.36128c-0.70313,-0.13395 -0.70313,-0.92579 -0.70313,-0.92579l0.20085,-1.49021c0.18536,-0.19523 0.41782,-0.36929 0.67544,-0.51357c0.21745,-0.17026 0.50287,-0.28183 0.80325,-0.3286c1.33099,-0.36393 2.74524,0.09972 2.03041,2.26079c-0.29562,0.89375 -0.80585,1.29059 -1.34685,1.35866z" fill="url(#color-58)" stroke="none" stroke-width="0.5" stroke-linecap="butt"/></g></g></g></svg>