<svg version="1.1" xmlns="http://www.w3.org/2000/svg" xmlns:xlink="http://www.w3.org/1999/xlink" width="95.91155" height="252.58598" viewBox="0,0,95.91155,252.58598"><g transform="translate(-196.17115,-52.91391)"><g data-paper-data="{&quot;isPaintingLayer&quot;:true}" fill-rule="nonzero" stroke-linejoin="miter" stroke-miterlimit="10" stroke-dasharray="" stroke-dashoffset="0" style="mix-blend-mode: normal"><g stroke-linecap="butt"><g><path d="M201.03044,304.39162c0,0 -0.63536,-94.38387 -0.79335,-118.01201c-0.05451,-8.15261 8.18688,-36.76129 40.20201,-36.9211c31.60235,-0.15775 39.85672,29.48704 39.84884,36.89673c-0.07659,46.24274 0.65429,117.98648 0.65429,117.98648l-10.49667,0.09614l-0.15882,-114.84311c0,0 0.07549,-3.0993 -2.81625,-3.15415c-3.43441,-0.06514 -2.94538,3.11562 -2.94538,3.11562l0.20548,114.86995l-48.21366,0.07222l-0.30539,-115.23309c0,0 0.27949,-2.919 -2.8856,-2.93443c-3.11083,-0.01515 -2.81569,2.90899 -2.81569,2.90899l0.35311,115.0668z" fill="#ffffff" stroke="#000000" stroke-width="2"/><path d="M216.91668,304.66667v-15h47.33334v15z" fill="#000000" stroke="none" stroke-width="0"/><path d="M201.37501,283.83333c0,-0.69036 0.55964,-1.25 1.25,-1.25c0.69036,0 1.25,0.55964 1.25,1.25c0,0.25501 -0.07636,0.49219 -0.20747,0.68991c0.2949,-0.12237 0.6183,-0.18991 0.95747,-0.18991c0.5628,0 1.08217,0.18597 1.5,0.49982c0.41783,-0.31385 0.9372,-0.49982 1.5,-0.49982c1.38071,0 2.5,1.11929 2.5,2.5c0,1.38071 0.33333,18 0.33333,18l-9.08333,0.08333c0,0 -0.5,-14.45262 -0.5,-15.83333c0,-1.12076 0.2375,-2.06927 1.25367,-2.3867c0.03439,-0.63828 0.30821,-1.21292 0.73322,-1.63572c-0.07671,0.01472 -0.1559,0.02242 -0.2369,0.02242c-0.69036,0 -1.25,-0.55964 -1.25,-1.25z" fill="#000000" stroke="none" stroke-width="0.5"/><path d="M207.12501,281.58333c0,-0.69036 0.55964,-1.25 1.25,-1.25c0.69036,0 1.25,0.55964 1.25,1.25c0,0.69036 -0.55964,1.25 -1.25,1.25c-0.17949,0 -0.35014,-0.03783 -0.50442,-0.10595c0.00293,0.03493 0.00442,0.07027 0.00442,0.10595c0,0.69036 -0.55964,1.25 -1.25,1.25c-0.56154,0 -1.0366,-0.37027 -1.19433,-0.87999c-0.16738,0.08321 -0.35607,0.12999 -0.55567,0.12999c-0.69036,0 -1.25,-0.55964 -1.25,-1.25c0,-0.69036 0.55964,-1.25 1.25,-1.25c0.56154,0 1.0366,0.37027 1.19433,0.87999c0.16738,-0.08321 0.35607,-0.12999 0.55567,-0.12999c0.17949,0 0.35014,0.03783 0.50442,0.10596c-0.00293,-0.03493 -0.00442,-0.07027 -0.00442,-0.10596z" fill="#000000" stroke="none" stroke-width="0.5"/><path d="M207.62501,278.08333c0,-0.69036 0.55964,-1.25 1.25,-1.25c0.69036,0 1.25,0.55964 1.25,1.25c0,0.69036 -0.55964,1.25 -1.25,1.25c-0.69036,0 -1.25,-0.55964 -1.25,-1.25z" fill="#000000" stroke="none" stroke-width="0.5"/><path d="M203.62501,278.83333c0,-0.69036 0.55964,-1.25 1.25,-1.25c0.69036,0 1.25,0.55964 1.25,1.25c0,0.69036 -0.55964,1.25 -1.25,1.25c-0.69036,0 -1.25,-0.55964 -1.25,-1.25z" fill="#000000" stroke="none" stroke-width="0.5"/><path d="M202.37501,279.83333c0,-0.27614 0.22386,-0.5 0.5,-0.5c0.27614,0 0.5,0.22386 0.5,0.5c0,0.27614 -0.22386,0.5 -0.5,0.5c-0.27614,0 -0.5,-0.22386 -0.5,-0.5z" fill="#000000" stroke="none" stroke-width="0.5"/><path d="M203.87501,276.58333c0,-0.27614 0.22386,-0.5 0.5,-0.5c0.27614,0 0.5,0.22386 0.5,0.5c0,0.27614 -0.22386,0.5 -0.5,0.5c-0.27614,0 -0.5,-0.22386 -0.5,-0.5z" fill="#000000" stroke="none" stroke-width="0.5"/><path d="M206.87501,276.83333c0,-0.27614 0.22386,-0.5 0.5,-0.5c0.27614,0 0.5,0.22386 0.5,0.5c0,0.27614 -0.22386,0.5 -0.5,0.5c-0.27614,0 -0.5,-0.22386 -0.5,-0.5z" fill="#000000" stroke="none" stroke-width="0.5"/><path d="M205.87501,275.08333c0,-0.27614 0.22386,-0.5 0.5,-0.5c0.27614,0 0.5,0.22386 0.5,0.5c0,0.27614 -0.22386,0.5 -0.5,0.5c-0.27614,0 -0.5,-0.22386 -0.5,-0.5z" fill="#000000" stroke="none" stroke-width="0.5"/><path d="M206.37501,280.58333c0,-0.27614 0.22386,-0.5 0.5,-0.5c0.27614,0 0.5,0.22386 0.5,0.5c0,0.27614 -0.22386,0.5 -0.5,0.5c-0.27614,0 -0.5,-0.22386 -0.5,-0.5z" fill="#000000" stroke="none" stroke-width="0.5"/><path d="M202.12501,277.83333c0,-0.27614 0.22386,-0.5 0.5,-0.5c0.27614,0 0.5,0.22386 0.5,0.5c0,0.27614 -0.22386,0.5 -0.5,0.5c-0.27614,0 -0.5,-0.22386 -0.5,-0.5z" fill="#000000" stroke="none" stroke-width="0.5"/><path d="M207.62501,274.83333c0,-0.27614 0.22386,-0.5 0.5,-0.5c0.27614,0 0.5,0.22386 0.5,0.5c0,0.27614 -0.22386,0.5 -0.5,0.5c-0.27614,0 -0.5,-0.22386 -0.5,-0.5z" fill="#000000" stroke="none" stroke-width="0.5"/><path d="M205.37501,276.83333c0,-0.27614 0.22386,-0.5 0.5,-0.5c0.27614,0 0.5,0.22386 0.5,0.5c0,0.27614 -0.22386,0.5 -0.5,0.5c-0.27614,0 -0.5,-0.22386 -0.5,-0.5z" fill="#000000" stroke="none" stroke-width="0.5"/><path d="M202.87501,274.83333c0,-0.27614 0.22386,-0.5 0.5,-0.5c0.27614,0 0.5,0.22386 0.5,0.5c0,0.27614 -0.22386,0.5 -0.5,0.5c-0.27614,0 -0.5,-0.22386 -0.5,-0.5z" fill="#000000" stroke="none" stroke-width="0.5"/></g><path d="M255.62763,200.33379c-0.57113,0 -1.03411,-0.46299 -1.03411,-1.03411c0,-0.57113 0.46299,-1.03413 1.03411,-1.03413c0.57113,0 1.03411,0.463 1.03411,1.03413c0,0.57113 -0.46299,1.03411 -1.03411,1.03411z" fill="#000000" stroke="none" stroke-width="1.5"/><path d="M250.36774,204.5694c-4.4635,-0.31439 -6.55245,-1.79392 -6.16985,-2.58011c0.11788,-0.24224 2.84645,1.06355 6.97038,1.3048c6.40897,0.37493 8.51033,-0.63173 8.51033,-0.63173v1.34616c0,0 -2.4135,1.04672 -9.31086,0.56089z" fill="#000000" stroke="#000000" stroke-width="0"/><path d="M222.55498,199.29968c0,-0.57113 0.46299,-1.03413 1.03411,-1.03413c0.57113,0 1.03413,0.463 1.03413,1.03413c0,0.57113 -0.463,1.03411 -1.03413,1.03411c-0.57113,0 -1.03411,-0.46299 -1.03411,-1.03411z" fill="#000000" stroke="none" stroke-width="1.5"/><path d="M228.84899,204.5694c-6.89736,0.48585 -9.31086,-0.56089 -9.31086,-0.56089v-1.34616c0,0 2.10136,1.00666 8.51033,0.63173c4.12393,-0.24126 6.85251,-1.54704 6.97039,-1.3048c0.3826,0.78618 -1.70634,2.26571 -6.16985,2.58011z" fill="#000000" stroke="#000000" stroke-width="0"/><path d="M240.12945,261.12113c-0.81895,0 -1.48284,-0.66389 -1.48284,-1.48284c0,-0.81895 0.66389,-1.48284 1.48284,-1.48284c0.81895,0 1.48284,0.66389 1.48284,1.48284c0,0.81895 -0.66389,1.48284 -1.48284,1.48284z" data-paper-data="{&quot;index&quot;:null}" fill="#000000" stroke="none" stroke-width="1.5"/><path d="M213.92787,291.32495c0,0 -0.62598,-61.51103 4.81237,-79.95561c5.17086,-17.53738 17.42888,-27.63865 21.52581,-27.63865c3.79198,0 16.01921,7.36923 20.91736,23.45626c5.95975,19.57364 7.38217,83.85782 7.38217,83.85782z" fill="#22678c" stroke="none" stroke-width="0"/><g stroke="none" stroke-width="0"><path d="M215.30743,235.26198l50.43481,-0.80734l2.41823,37.93576c-1.11479,-1.03102 -3.49754,-2.94046 -4.25831,-2.61324c-0.20458,0.08799 -0.67997,1.52932 -0.93869,1.40363c-1.54915,-0.75261 -0.3483,-4.09896 -2.69807,-3.36624c-2.93325,1.63323 -6.40729,5.59859 -9.25965,3.45565c-1.77127,-1.5519 -2.98562,2.61633 -4.58369,1.44697c-0.74584,-0.54575 -0.58087,-2.31716 -1.08116,-3.08121c-0.64663,-0.98753 -1.7803,-1.96318 -2.69801,-2.35014c-1.10671,0.99549 -1.73483,3.21499 -2.90206,4.02467c-1.91171,1.32612 -4.11614,0.45185 -5.86611,-0.89466c-1.1021,-1.19632 -1.65669,0.01163 -2.83621,0.00677c-1.12186,-0.00462 -1.78594,-0.84057 -2.84008,-0.78411c-1.51624,0.08119 -2.86481,1.16494 -4.39837,1.23773c-1.27075,0.34864 -2.49923,1.18231 -3.83039,0.65632c-0.9965,-0.39375 -2.76475,-2.58261 -3.46868,-2.58686c-0.61802,-0.00373 -1.84513,0.83492 -2.45753,1.13646c-0.20024,0.14144 -0.37226,0.30348 -0.52275,0.48171z" fill="#00ab8c"/><path d="M242.76639,241.31703c0,0 1.00629,16.36436 12.86309,15.48771c8.85365,-0.65461 10.11276,-22.3501 10.11276,-22.3501l2.41823,37.93576c-1.11479,-1.03102 -3.49754,-2.94046 -4.25831,-2.61324c-0.20458,0.08799 -0.67997,1.52932 -0.93869,1.40363c-1.54915,-0.75261 -0.3483,-4.09896 -2.69807,-3.36624c-2.93325,1.63323 -6.40729,5.59859 -9.25965,3.45565c-1.77127,-1.5519 -2.98562,2.61633 -4.58369,1.44697c-0.74584,-0.54575 -0.58087,-2.31716 -1.08116,-3.08121c-0.64663,-0.98753 -1.7803,-1.96318 -2.69801,-2.35014c-1.10671,0.99549 -1.73483,3.21499 -2.90206,4.02467c-1.91171,1.32612 -4.11614,0.45185 -5.86611,-0.89466c-1.1021,-1.19632 -1.65669,0.01163 -2.83621,0.00677c-1.12186,-0.00462 -1.78594,-0.84057 -2.84008,-0.78411c-1.51624,0.08119 -2.86481,1.16494 -4.39837,1.23773c-1.27075,0.34864 -2.49923,1.18231 -3.83039,0.65632c-0.9965,-0.39375 -2.76475,-2.58261 -3.46868,-2.58686c-0.61802,-0.00373 -1.84513,0.83492 -2.45753,1.13646c-0.20024,0.14144 -0.37226,0.30348 -0.52275,0.48171c0,0 21.24089,-7.29593 26.60609,-12.21702c3.92776,-3.60263 2.63958,-17.0298 2.63958,-17.0298z" fill="#007962"/></g><g stroke="none" stroke-width="0"><path d="M199.10265,264.18831c0,0 -0.44533,-48.47072 1.29578,-63.27015c0.99541,-8.46097 8.2308,-17.70574 8.2308,-17.70574c0,0 4.06759,0.95493 5.38526,6.27267c1.29715,5.23491 2.46016,25.38918 2.46016,25.38918z" fill="#22678c"/><path d="M196.90458,238.73419c0,0 -0.44533,-48.47072 1.29577,-63.27016c0.99541,-8.46097 8.2308,-17.70574 8.2308,-17.70574l7.84542,31.66186z" fill="#2a81af"/></g><g data-paper-data="{&quot;index&quot;:null}" stroke="none" stroke-width="0"><path d="M264.33669,217.35254c0,0 1.16302,-20.15427 2.46016,-25.38918c1.31767,-5.31775 5.38525,-6.27268 5.38525,-6.27268c0,0 7.23539,9.24476 8.2308,17.70574c1.74111,14.79943 1.29577,63.27015 1.29577,63.27015z" fill="#22678c"/><path d="M266.53477,191.89842l6.44445,-31.94205c0,0 8.63636,9.52496 9.63177,17.98593c1.74111,14.79943 1.29577,63.27015 1.29577,63.27015z" fill="#2a81af"/></g><g stroke="#000000" stroke-width="0"><path d="M212.96135,191.90822l-8.96618,-46.5121l36.14495,38.38649l-24.93721,50.9952z" fill="#00ab8c"/><path d="M212.96135,191.90822l13.44928,8.686l14.00967,-17.0918l-25.2174,51.27539z" fill="#007962"/></g><g data-paper-data="{&quot;index&quot;:null}" stroke="#000000" stroke-width="0"><path d="M265.31403,234.45414l-24.93721,-50.71501l36.14494,-38.66669l-8.96618,46.5121z" fill="#00ab8c"/><path d="M265.31403,234.45413l-24.93721,-50.715l13.72948,16.53141l13.44928,-8.686z" fill="#007962"/></g></g><g fill="#000000" stroke="none" stroke-width="1.5" stroke-linecap="butt"><path d="M199.59364,103.54678c0,0 6.16329,-5.92187 6.29161,-6.78761c0.16306,-1.10021 0.73334,-19.21189 9.4008,-29.0171c9.22054,-10.4309 26.56695,-12.55672 26.56695,-12.55672c0,0 -14.02991,2.16645 -13.09234,2.18183c0.65976,0.01082 6.68246,-3.3299 13.39892,-4.29076c3.07692,-0.44018 9.83646,0.09197 12.21985,0.66595c32.77798,7.89372 26.64428,37.21544 29.00444,43.63328c3.44981,9.38084 6.15664,17.40016 6.15664,17.40016c0,0 -2.76715,-2.05351 -4.0797,-3.13397c-1.2242,-1.00773 -3.80143,-3.14585 -3.80143,-3.14585c0,0 3.09111,10.3481 1.31092,20.69498c-1.5623,9.48098 -7.29782,17.22543 -7.29782,17.22543l-1.15522,-2.34735c0,0 -1.02266,2.19794 -2.16005,3.33274c-1.1374,1.13479 -3.43873,2.91273 -3.43873,2.91273l-0.09205,-3.70421c0,0 -7.0601,11.01795 -24.35066,10.87154c-16.30625,-0.25547 -26.07151,-10.6752 -26.07151,-10.6752l-0.1162,2.65484c0,0 -3.89477,-3.29276 -6.18145,-9.70754c-2.72545,-7.64567 -3.23946,-12.24324 -3.23946,-12.24324c0,0 -2.33908,1.89916 -5.71704,2.7744c-4.23278,1.09673 -6.94665,0.34526 -6.94665,0.34526c0,0 3.60795,-2.71717 5.58396,-4.76989c1.76007,-1.8284 2.64658,-3.37722 2.64658,-3.37722c0,0 -2.10758,1.0847 -4.23277,1.61795c-2.21739,0.5564 -4.03008,0.53093 -4.03008,0.53093c0,0 4.97492,-5.03728 7.03074,-10.87429c1.94102,-5.51108 2.09972,-10.95731 2.09972,-10.95731c0,0 -1.36165,0.66163 -3.33013,0.79513c-1.24776,0.08463 -2.37785,-0.0489 -2.37785,-0.0489z"/><path d="M283.12899,128.35271c0.58372,6.16087 4.19329,12.25144 4.19329,12.25144c0,0 -1.76508,-0.4135 -3.78218,-1.48946c-1.93324,-1.0312 -3.71607,-2.59325 -3.71607,-2.59325c0,0 0.48577,1.7172 1.75162,3.91687c1.42115,2.46954 4.26518,5.97835 4.26518,5.97835c0,0 -2.81504,0.07309 -6.65713,-2.0144c-3.06617,-1.66592 -4.87673,-4.07423 -4.87673,-4.07423c0,0 8.2709,-17.79217 8.82202,-11.97531z" data-paper-data="{&quot;index&quot;:null}"/><path d="M274.35837,74.44194c5.91431,1.82152 12.92312,0.82121 12.92312,0.82121c0,0 -1.05828,1.47191 -2.82502,2.92278c-1.69327,1.39055 -3.81922,2.43878 -3.81922,2.43878c0,0 1.77227,0.20928 4.28909,-0.11709c2.8256,-0.36641 7.15636,-1.6489 7.15636,-1.6489c0,0 -1.01114,2.6282 -4.41149,5.37717c-2.71364,2.19382 -5.6319,2.94338 -5.6319,2.94338c0,0 -13.265,-14.45714 -7.68094,-12.73732z" data-paper-data="{&quot;index&quot;:null}"/><path d="M209.62091,84.76265c0,0 -3.01172,0.08746 -6.22656,-1.26954c-4.02839,-1.70039 -5.72748,-3.94603 -5.72748,-3.94603c0,0 4.51655,0.03368 7.33317,-0.39633c2.50883,-0.38302 4.15393,-1.07466 4.15393,-1.07466c0,0 -2.33304,-0.41883 -4.34504,-1.28638c-2.0993,-0.90517 -3.52365,-2.02666 -3.52365,-2.02666c0,0 7.01186,-0.97872 12.19093,-4.3661c4.88987,-3.19823 -3.8553,14.36569 -3.8553,14.36569z" data-paper-data="{&quot;index&quot;:null}"/></g><path d="M216.37951,114.8684c-0.57709,-7.29323 0.335,-17.15448 0.335,-17.15448c0,0 3.41059,-0.04124 13.91429,-3.14424c8.0696,-2.38394 20.54731,-9.48722 20.54731,-9.48722c0,0 -2.16005,3.00503 -3.40781,4.46015c-1.32651,1.54696 -3.99292,4.56297 -3.99292,4.56297c0,0 7.838,-1.66761 14.67476,-4.72931c8.56837,-3.53575 10.59252,-6.05309 12.95042,-4.5927c2.7829,1.72362 1.03006,23.1827 0.71846,28.74062c-0.42163,5.66922 -2.53327,9.49969 -3.15031,12.52053c-0.61704,3.02084 -0.4096,6.13662 -2.20622,16.0397c-1.12121,6.18021 -4.16183,8.92466 -10.01942,14.66081c-5.85759,5.73616 -9.05378,9.25275 -13.01359,9.32173c-3.81077,0.06639 -8.93565,-5.1002 -13.93542,-10.38244c-5.32393,-5.62474 -8.87489,-8.47713 -9.71551,-15.13975c-0.75707,-6.00039 -0.77653,-9.90853 -1.12266,-15.24835c-0.25298,-3.90273 -2.26119,-6.44504 -2.57636,-10.42801z" fill="#ffffff" stroke="#000000" stroke-width="1.5" stroke-linecap="butt"/><g stroke="none" stroke-linecap="butt"><path d="M263.49554,150.43741c-2.53711,7.91407 -0.60977,9.45659 -7.47514,13.73501c-3.08668,1.92359 -8.08024,2.54883 -12.33589,2.57996c-1.98172,0.0145 -6.82307,0.10089 -9.01965,-1.52049c-8.60709,-6.35322 -8.09798,-10.89675 -9.17001,-15.30115c-0.05028,-0.06666 8.38366,-8.92817 11.79235,-9.338c3.2126,0.2303 7.36409,2.10567 7.36409,2.10567c0,0 4.88275,-2.9164 8.80629,-1.59506c7.46112,4.84857 10.06728,9.2909 10.03797,9.33407z" fill="#000000" stroke-width="0"/><path d="M240.50511,149.87567v-0.42687c0,0 2.87345,-0.68469 4.35846,-0.68469c1.84942,0 5.88667,0.68469 5.88667,0.68469v0.42687z" data-paper-data="{&quot;noHover&quot;:false,&quot;origItem&quot;:[&quot;Path&quot;,{&quot;applyMatrix&quot;:true,&quot;segments&quot;:[[244.09109,444.00853],[244.09109,441.91058],[193.74019,441.91058],[193.74019,444.00853]],&quot;closed&quot;:true,&quot;fillColor&quot;:[0,0,0,1]}]}" fill="#ffffff" stroke-width="0.5"/><path d="M229.59436,149.74295l-0.47373,-1.04217c2.20401,-2.06006 4.57595,-3.98227 7.05847,-5.69656c2.55116,-1.55904 6.10139,-0.34222 9.34274,3.53861z" data-paper-data="{&quot;noHover&quot;:false,&quot;origItem&quot;:[&quot;Path&quot;,{&quot;applyMatrix&quot;:true,&quot;segments&quot;:[[[206.79413,429.55596],[0,0],[-6.99318,-18.64848]],[[172.29444,410.20816],[12.58773,-7.6925],[-12.24902,8.45849]],[[137.56164,438.18088],[10.87486,-10.16459],[0,0]],[139.8927,443.30921]],&quot;closed&quot;:true,&quot;fillColor&quot;:[0,0,0,1]}]}" fill="#ffffff" stroke-width="0.5"/><path d="M227.29713,151.00868c3.05014,-0.42879 6.13274,0.5237 8.40937,2.5984c5.13543,4.76297 13.11064,4.63805 18.09433,-0.28347c2.27653,-1.2272 4.75824,-2.02779 7.32277,-2.36218c0.34573,5.49765 -3.2309,10.47733 -8.55111,11.90541c-4.67811,0.83433 -9.45336,0.97761 -14.1731,0.42519c-6.51963,-0.80314 -9.44873,-6.14167 -11.10226,-12.28335z" fill="#ffffff" stroke-width="1"/><path d="M259.09212,150.48899l-14.58736,-3.91438c1.03936,-1.37007 4.241,-3.12493 5.18587,-3.36115c1.58333,-0.437 3.27389,-0.25106 4.72437,0.51968c1.86437,1.65277 3.55793,3.48876 5.05507,5.48027z" fill="#ffffff" stroke-width="1"/><path d="M238.16317,153.04015h12.75579c-3.71543,3.02076 -9.04036,3.02076 -12.75579,0z" fill="#ffffff" stroke-width="1"/></g><path d="M244.01166,144.29549c-1.03376,0 -3.5381,-3.26042 -3.7867,-5.3637c-0.22243,-1.88186 1.31512,-3.82799 3.7867,-3.82799c2.47159,0 4.2021,0.49077 4.02999,4.18853c-0.14607,3.13818 -1.55841,5.00317 -4.02999,5.00317z" fill="#ffffff" stroke="#000000" stroke-width="1.15" stroke-linecap="butt"/><path d="M247.61376,114.20178c0,0 0.1026,3.96976 0.00576,7.12662c-0.19174,6.25113 -1.08147,27.7607 -1.08147,27.7607l-2.98167,0.00864c0,0 -0.80294,-4.17274 -1.12322,-9.49979c-0.43353,-7.21063 -0.4495,-16.29321 -0.76344,-19.63229c-0.29758,-3.16513 -0.89593,-5.71453 -0.89593,-5.71453" fill="#ffffff" stroke="#000000" stroke-width="1.3" stroke-linecap="round"/><path d="" fill="#000000" stroke="none" stroke-width="0.5" stroke-linecap="butt"/><g fill="#000000" stroke="none" stroke-width="0.5" stroke-linecap="butt"><path d="M232.8964,115.87684c0,0.9665 -0.7835,1.75 -1.75,1.75c-0.83152,0 -1.52759,-0.57994 -1.70579,-1.35742c-0.77747,-0.1782 -1.35742,-0.87427 -1.35742,-1.70579c0,-0.9665 0.7835,-1.75 1.75,-1.75c0.52306,0 0.99253,0.22948 1.31321,0.59325c0.18911,0.21452 0.32648,0.47575 0.39258,0.76416c0.77747,0.1782 1.35742,0.87427 1.35742,1.70579z"/><path d="M235.96244,118.94099c0,-0.36308 0.11057,-0.70034 0.29988,-0.97994c-0.29449,-0.20921 -0.52145,-0.50726 -0.64182,-0.85508c-0.16848,0.05398 -0.34808,0.08312 -0.53448,0.08312c-0.9665,0 -1.75,-0.7835 -1.75,-1.75c0,-0.9665 0.7835,-1.75 1.75,-1.75c0.76599,0 1.41704,0.49213 1.6542,1.17746c0.16848,-0.05398 0.34808,-0.08312 0.53448,-0.08312c0.9665,0 1.75,0.7835 1.75,1.75c0,0.36308 -0.11057,0.70034 -0.29988,0.97994c0.44638,0.31712 0.73762,0.83836 0.73762,1.42761c0,0.9665 -0.7835,1.75 -1.75,1.75c-0.9665,0 -1.75,-0.7835 -1.75,-1.75z"/><path d="M239.02659,122.66175c0,-0.9665 0.7835,-1.75 1.75,-1.75c0.9665,0 1.75,0.7835 1.75,1.75c0,0.9665 -0.7835,1.75 -1.75,1.75c-0.9665,0 -1.75,-0.7835 -1.75,-1.75z"/><path d="M257.3483,131.41647c0,-0.22424 0.14762,-0.41401 0.35098,-0.47742c-0.78985,-0.16899 -1.38211,-0.87096 -1.38211,-1.71126c0,-0.9665 0.7835,-1.75 1.75,-1.75c0.9665,0 1.75,0.7835 1.75,1.75c0,0.95948 -0.77217,1.73862 -1.72898,1.74988c0.15501,0.08492 0.26011,0.24959 0.26011,0.4388c0,0.27614 -0.22386,0.5 -0.5,0.5c-0.27614,0 -0.5,-0.22386 -0.5,-0.5z"/><path d="M260.91339,129.44666c0,-0.9665 0.7835,-1.75 1.75,-1.75c0.9665,0 1.75,0.7835 1.75,1.75c0,0.9665 -0.7835,1.75 -1.75,1.75c-0.9665,0 -1.75,-0.7835 -1.75,-1.75z"/><path d="M254.06528,131.1976c0,-0.08404 0.02074,-0.16324 0.05737,-0.23276c-0.07013,0.00855 -0.14154,0.01295 -0.21397,0.01295c-0.9665,0 -1.75,-0.7835 -1.75,-1.75c0,-0.55548 0.25881,-1.05052 0.66243,-1.3711c-0.14194,0.03716 -0.29091,0.05695 -0.4445,0.05695c-0.9665,0 -1.75,-0.7835 -1.75,-1.75c0,-0.25462 0.05438,-0.49653 0.15215,-0.71477c-0.71575,-0.79685 -1.15121,-1.85056 -1.15121,-3.00599c0,-0.06783 0.0015,-0.1353 0.00447,-0.2024c-0.3143,0.06952 -0.64096,0.10617 -0.97617,0.10617c-0.93025,0 -1.79458,-0.28227 -2.51199,-0.76583c-0.14396,0.03232 -0.29054,0.05773 -0.43935,0.07589c0.69677,0.23074 1.19946,0.88749 1.19946,1.66164c0,0.2344 -0.04609,0.45804 -0.12969,0.66235c0.04313,-0.00318 0.08669,-0.0048 0.13063,-0.0048c0.9665,0 1.75,0.7835 1.75,1.75c0,0.9665 -0.7835,1.75 -1.75,1.75c-0.9665,0 -1.75,-0.7835 -1.75,-1.75c0,-0.2344 0.04609,-0.45804 0.12969,-0.66235c-0.04313,0.00318 -0.08669,0.0048 -0.13063,0.0048c-0.9665,0 -1.75,-0.7835 -1.75,-1.75c0,-0.77416 0.50269,-1.43091 1.19946,-1.66164c-2.22559,-0.27148 -3.94946,-2.16776 -3.94946,-4.46666c0,-0.595 0.11548,-1.16303 0.32524,-1.68289c-1.3587,-0.49789 -2.41045,-1.63225 -2.79411,-3.04194c-0.60365,0.30088 -1.28442,0.47011 -2.00472,0.47011c-1.74533,0 -3.25859,-0.99362 -4.00497,-2.44604c-0.19349,0.02539 -0.39084,0.0385 -0.59126,0.0385c-0.03498,0 -0.06987,-0.0004 -0.10466,-0.00119c-0.81405,0.81221 -1.93756,1.3144 -3.17836,1.3144c-0.03944,0 -0.07876,-0.00051 -0.11796,-0.00152c-0.82477,0.9401 -2.03504,1.53359 -3.38393,1.53359c-1.72759,0 -2.70724,0.02216 -2.40755,0.26261c0.29969,-0.24045 0.68022,-0.3843 1.09434,-0.3843c0.9665,0 1.75,0.7835 1.75,1.75c0,0.9665 -0.7835,1.75 -1.75,1.75c-0.41412,0 -0.79465,-0.14385 -1.09434,-0.3843c-0.29969,0.24045 -0.68022,0.3843 -1.09434,0.3843c-0.72099,0 -1.34015,-0.43601 -1.60818,-1.05875c-0.1984,1.09997 -0.43267,2.21248 -0.78444,3.16925c0.32023,-0.35407 0.78327,-0.57653 1.29827,-0.57653c0.32381,0 0.62707,0.08795 0.88722,0.24125c0.09722,-0.87446 0.8388,-1.55446 1.7392,-1.55446c0.9665,0 1.75,0.7835 1.75,1.75c0,0.9665 -0.7835,1.75 -1.75,1.75c-0.32381,0 -0.62707,-0.08795 -0.88722,-0.24125c-0.05667,0.50968 -0.33223,0.9533 -0.73056,1.23472c0.05502,0.16995 0.08476,0.35128 0.08476,0.53955c0,0.77243 -0.50045,1.42798 -1.19479,1.66009c-0.28211,0.19473 -0.62421,0.30878 -0.99294,0.30878c-0.9665,0 -1.75,-0.7835 -1.75,-1.75c0,-0.76599 0.49213,-1.41704 1.17746,-1.6542c-0.05398,-0.16848 -0.08312,-0.34808 -0.08312,-0.53448c0,-0.06264 0.00329,-0.12451 0.00971,-0.18545c-0.59616,1.08542 -1.45179,1.7879 -2.75704,1.71539c-1.25052,-0.06947 -2.50051,-0.27232 -3.70882,-0.60186c-3.25403,-0.88746 -1.99133,-6.43514 -1.9885,-8.7074c0.00563,-4.51493 -5.03349,-12.88532 2.43735,-14.5455l0.10863,-0.43452c1.20008,-2.25014 1.78781,-4.79382 4.07319,-6.22935c4.25647,-2.67363 9.62986,-1.87118 14.18737,-3.74619c3.9026,-1.60556 6.70165,-5.15762 10.95713,-6.22149c2.56754,-0.64188 6.07422,-0.51643 7.26467,2.13769c0.22431,0.5001 1.03468,-0.36443 1.53869,-0.57981c1.02866,-0.43959 2.33914,-0.83183 3.28458,-1.37124c0.52216,-0.29791 0.89416,-0.64186 1.47096,-0.7371c3.84303,-0.6345 14.48085,-3.19094 17.28955,-1.69297c4.16476,2.22121 1.27054,8.00415 1.54669,11.21781c0.12201,1.41995 1.73014,2.72162 2.0639,4.05666c0.23135,0.92538 0.07021,2.78853 0.12478,3.56523c0.13102,1.86493 2.16173,4.51051 2.62642,6.6016c0.76263,3.43185 -0.11176,13.73175 -2.41357,17.34888c-1.60657,2.52461 -3.25172,3.2292 -4.92438,3.14696c-0.46083,1.99565 -2.24902,3.48341 -4.38469,3.48341c-1.23111,0 -2.34676,-0.49438 -3.15923,-1.29543c-0.67581,0.40562 -1.4669,0.63883 -2.31247,0.63883c-1.76545,0 -3.29344,-1.01665 -4.03047,-2.49644c-0.81897,1.11563 -2.13986,1.83984 -3.62991,1.83984c-0.06089,0 -0.12149,-0.00121 -0.18179,-0.0036c-0.11511,0.23243 -0.28035,0.43563 -0.48158,0.59546c0.14194,-0.03716 0.29091,-0.05695 0.4445,-0.05695c0.9665,0 1.75,0.7835 1.75,1.75c0,0.64932 -0.35363,1.21604 -0.8788,1.51807c0.16876,0.08031 0.28541,0.2524 0.28541,0.45174c0,0.27614 -0.22386,0.5 -0.5,0.5c-0.27614,0 -0.5,-0.22386 -0.5,-0.5z"/><path d="M226.26904,119.15986c0,-0.27614 0.22386,-0.5 0.5,-0.5c0.27614,0 0.5,0.22386 0.5,0.5c0,0.27614 -0.22386,0.5 -0.5,0.5c-0.27614,0 -0.5,-0.22386 -0.5,-0.5z"/><path d="M222.54828,122.00514c0,-0.27614 0.22386,-0.5 0.5,-0.5c0.27614,0 0.5,0.22386 0.5,0.5c0,0.27614 -0.22386,0.5 -0.5,0.5c-0.27614,0 -0.5,-0.22386 -0.5,-0.5z"/><path d="M227.36338,121.12967c0,-0.25624 0.19275,-0.46745 0.44116,-0.49657c0.02912,-0.24841 0.24034,-0.44116 0.49657,-0.44116c0.27614,0 0.5,0.22386 0.5,0.5c0,0.25506 -0.19098,0.46551 -0.43774,0.49616c-0.00114,0.00014 -0.00228,0.00028 -0.00343,0.00041c-0.02912,0.24841 -0.24034,0.44116 -0.49657,0.44116c-0.27614,0 -0.5,-0.22386 -0.5,-0.5z"/><path d="M230.20866,118.28439c0,-0.27614 0.22386,-0.5 0.5,-0.5c0.27614,0 0.5,0.22386 0.5,0.5c0,0.27614 -0.22386,0.5 -0.5,0.5c-0.27614,0 -0.5,-0.22386 -0.5,-0.5z"/><path d="M231.52187,120.69194c0,-0.27614 0.22386,-0.5 0.5,-0.5c0.18843,0 0.35251,0.10423 0.43774,0.25818c0.08523,-0.15395 0.24931,-0.25818 0.43774,-0.25818c0.27614,0 0.5,0.22386 0.5,0.5c0,0.27614 -0.22386,0.5 -0.5,0.5c-0.18843,0 -0.35251,-0.10423 -0.43774,-0.25818c-0.08523,0.15395 -0.24931,0.25818 -0.43774,0.25818c-0.27614,0 -0.5,-0.22386 -0.5,-0.5z"/><path d="M225.61243,116.75231c0,-0.27614 0.22386,-0.5 0.5,-0.5c0.27614,0 0.5,0.22386 0.5,0.5c0,0.27614 -0.22386,0.5 -0.5,0.5c-0.27614,0 -0.5,-0.22386 -0.5,-0.5z"/><path d="M232.83508,119.5976c0,-0.27614 0.22386,-0.5 0.5,-0.5c0.27614,0 0.5,0.22386 0.5,0.5c0,0.27614 -0.22386,0.5 -0.5,0.5c-0.27614,0 -0.5,-0.22386 -0.5,-0.5z"/><path d="M235.68036,121.34854c0,-0.27614 0.22386,-0.5 0.5,-0.5c0.27614,0 0.5,0.22386 0.5,0.5c0,0.27614 -0.22386,0.5 -0.5,0.5c-0.27614,0 -0.5,-0.22386 -0.5,-0.5z"/><path d="M235.24263,122.88062c0,-0.17215 0.087,-0.32398 0.21943,-0.41392c-0.00037,-0.00789 -0.00056,-0.01583 -0.00056,-0.02382c0,-0.27614 0.22386,-0.5 0.5,-0.5c0.27614,0 0.5,0.22386 0.5,0.5c0,0.17215 -0.087,0.32398 -0.21943,0.41392c0.00037,0.00789 0.00056,0.01583 0.00056,0.02382c0,0.27614 -0.22386,0.5 -0.5,0.5c-0.27614,0 -0.5,-0.22386 -0.5,-0.5z"/><path d="M234.14829,119.81646c0,-0.27614 0.22386,-0.5 0.5,-0.5c0.27614,0 0.5,0.22386 0.5,0.5c0,0.27614 -0.22386,0.5 -0.5,0.5c-0.27614,0 -0.5,-0.22386 -0.5,-0.5z"/><path d="M224.73696,121.34854c0,-0.27614 0.22386,-0.5 0.5,-0.5c0.27614,0 0.5,0.22386 0.5,0.5c0,0.27614 -0.22386,0.5 -0.5,0.5c-0.27614,0 -0.5,-0.22386 -0.5,-0.5z"/><path d="M228.89545,123.09948c0,-0.27614 0.22386,-0.5 0.5,-0.5c0.27614,0 0.5,0.22386 0.5,0.5c0,0.27614 -0.22386,0.5 -0.5,0.5c-0.27614,0 -0.5,-0.22386 -0.5,-0.5z"/><path d="M222.54828,123.75609c0,-0.27614 0.22386,-0.5 0.5,-0.5c0.27614,0 0.5,0.22386 0.5,0.5c0,0.27614 -0.22386,0.5 -0.5,0.5c-0.27614,0 -0.5,-0.22386 -0.5,-0.5z"/><path d="M220.14073,124.63156c0,-0.27614 0.22386,-0.5 0.5,-0.5c0.27614,0 0.5,0.22386 0.5,0.5c0,0.27614 -0.22386,0.5 -0.5,0.5c-0.27614,0 -0.5,-0.22386 -0.5,-0.5z"/><path d="M226.05017,123.75609c0,-0.27614 0.22386,-0.5 0.5,-0.5c0.27614,0 0.5,0.22386 0.5,0.5c0,0.27614 -0.22386,0.5 -0.5,0.5c-0.27614,0 -0.5,-0.22386 -0.5,-0.5z"/><path d="M229.55206,120.9108c0,-0.27614 0.22386,-0.5 0.5,-0.5c0.27614,0 0.5,0.22386 0.5,0.5c0,0.27614 -0.22386,0.5 -0.5,0.5c-0.27614,0 -0.5,-0.22386 -0.5,-0.5z"/><path d="M231.08413,122.44288c0,-0.27614 0.22386,-0.5 0.5,-0.5c0.27614,0 0.5,0.22386 0.5,0.5c0,0.27614 -0.22386,0.5 -0.5,0.5c-0.27614,0 -0.5,-0.22386 -0.5,-0.5z"/><path d="M232.83508,122.44288c0,-0.27614 0.22386,-0.5 0.5,-0.5c0.27614,0 0.5,0.22386 0.5,0.5c0,0.27614 -0.22386,0.5 -0.5,0.5c-0.27614,0 -0.5,-0.22386 -0.5,-0.5z"/><path d="M239.40112,115.87684c0,-0.27614 0.22386,-0.5 0.5,-0.5c0.27614,0 0.5,0.22386 0.5,0.5c0,0.27614 -0.22386,0.5 -0.5,0.5c-0.27614,0 -0.5,-0.22386 -0.5,-0.5z"/><path d="M239.83886,118.72212c0,-0.27614 0.22386,-0.5 0.5,-0.5c0.27614,0 0.5,0.22386 0.5,0.5c0,0.27614 -0.22386,0.5 -0.5,0.5c-0.27614,0 -0.5,-0.22386 -0.5,-0.5z"/><path d="M237.86904,122.22401c0,-0.27614 0.22386,-0.5 0.5,-0.5c0.27614,0 0.5,0.22386 0.5,0.5c0,0.27614 -0.22386,0.5 -0.5,0.5c-0.27614,0 -0.5,-0.22386 -0.5,-0.5z"/><path d="M248.81244,127.47684c0,-0.27614 0.22386,-0.5 0.5,-0.5c0.27614,0 0.5,0.22386 0.5,0.5c0,0.27614 -0.22386,0.5 -0.5,0.5c-0.27614,0 -0.5,-0.22386 -0.5,-0.5z"/><path d="M248.15584,123.97496c0,-0.27614 0.22386,-0.5 0.5,-0.5c0.27614,0 0.5,0.22386 0.5,0.5c0,0.27614 -0.22386,0.5 -0.5,0.5c-0.27614,0 -0.5,-0.22386 -0.5,-0.5z"/><path d="M240.27659,126.3825c0,-0.27614 0.22386,-0.5 0.5,-0.5c0.27614,0 0.5,0.22386 0.5,0.5c0,0.27614 -0.22386,0.5 -0.5,0.5c-0.27614,0 -0.5,-0.22386 -0.5,-0.5z"/><path d="M237.21244,125.28816c0,-0.27614 0.22386,-0.5 0.5,-0.5c0.27614,0 0.5,0.22386 0.5,0.5c0,0.27614 -0.22386,0.5 -0.5,0.5c-0.27614,0 -0.5,-0.22386 -0.5,-0.5z"/><path d="M241.37093,126.16364c0,-0.27614 0.22386,-0.5 0.5,-0.5c0.27614,0 0.5,0.22386 0.5,0.5c0,0.27614 -0.22386,0.5 -0.5,0.5c-0.27614,0 -0.5,-0.22386 -0.5,-0.5z"/><path d="M242.90301,126.82024c0,-0.27614 0.22386,-0.5 0.5,-0.5c0.27614,0 0.5,0.22386 0.5,0.5c0,0.27614 -0.22386,0.5 -0.5,0.5c-0.27614,0 -0.5,-0.22386 -0.5,-0.5z"/><path d="M245.31056,127.91458c0,-0.27614 0.22386,-0.5 0.5,-0.5c0.27614,0 0.5,0.22386 0.5,0.5c0,0.27614 -0.22386,0.5 -0.5,0.5c-0.27614,0 -0.5,-0.22386 -0.5,-0.5z"/><path d="M247.0615,129.22779c0,-0.27614 0.22386,-0.5 0.5,-0.5c0.27614,0 0.5,0.22386 0.5,0.5c0,0.27614 -0.22386,0.5 -0.5,0.5c-0.27614,0 -0.5,-0.22386 -0.5,-0.5z"/><path d="M250.78226,130.541c0,-0.27614 0.22386,-0.5 0.5,-0.5c0.27614,0 0.5,0.22386 0.5,0.5c0,0.27614 -0.22386,0.5 -0.5,0.5c-0.27614,0 -0.5,-0.22386 -0.5,-0.5z"/><path d="M255.37848,131.1976c0,-0.27614 0.22386,-0.5 0.5,-0.5c0.27614,0 0.5,0.22386 0.5,0.5c0,0.27614 -0.22386,0.5 -0.5,0.5c-0.27614,0 -0.5,-0.22386 -0.5,-0.5z"/><path d="M260.41244,131.63532c0,-0.27614 0.22386,-0.5 0.5,-0.5c0.27614,0 0.5,0.22386 0.5,0.5c0,0.27614 -0.22386,0.5 -0.5,0.5c-0.27614,0 -0.5,-0.22386 -0.5,-0.5z"/><path d="M261.72565,132.07307c0,-0.27614 0.22386,-0.5 0.5,-0.5c0.27614,0 0.5,0.22386 0.5,0.5c0,0.27614 -0.22386,0.5 -0.5,0.5c-0.27614,0 -0.5,-0.22386 -0.5,-0.5z"/><path d="M265.4464,132.07307c0,-0.27614 0.22386,-0.5 0.5,-0.5c0.27614,0 0.5,0.22386 0.5,0.5c0,0.27614 -0.22386,0.5 -0.5,0.5c-0.27614,0 -0.5,-0.22386 -0.5,-0.5z"/></g><path d="M220.88997,114.38817c0.07093,-4.89188 4.83834,-8.93609 10.21137,-8.8582c5.37302,0.0779 9.02724,4.2484 8.95632,9.14029c-0.07093,4.89188 -4.12352,8.79439 -9.49655,8.7165c-5.37302,-0.0779 -9.74207,-4.1067 -9.67114,-8.99859z" fill="#ffffff" stroke="#000000" stroke-width="1.4" stroke-linecap="butt"/><path d="M225.32761,114.50612c0.03999,-2.75843 2.30855,-4.96213 5.06696,-4.92214c2.75843,0.03999 4.96213,2.30855 4.92214,5.06696c-0.03999,2.75843 -2.30854,4.96213 -5.06696,4.92214c-2.75843,-0.03999 -4.96213,-2.30855 -4.92214,-5.06696z" fill="#000000" stroke="none" stroke-width="1.5" stroke-linecap="butt"/><path d="M247.94625,114.38891c0.20353,-4.88817 4.45264,-8.85847 9.77048,-8.85847c5.31783,0 9.27453,3.96607 9.27453,8.85847c0,4.8924 -3.88585,9.07104 -9.69964,9.14188c-5.52997,0.06739 -9.55792,-4.03692 -9.34537,-9.14188z" fill="#000000" stroke="#ffffff" stroke-width="1.4" stroke-linecap="butt"/><path d="M252.54899,114.47445c0,-2.81845 2.2848,-5.10325 5.10325,-5.10325c2.81845,0 5.10325,2.2848 5.10325,5.10325c0,2.81845 -2.28479,5.10325 -5.10325,5.10325c-2.81845,0 -5.10325,-2.2848 -5.10325,-5.10325z" fill="#ffffff" stroke="none" stroke-width="1.5" stroke-linecap="butt"/><g stroke-linecap="butt"><path d="M231.08323,105.86196c5.37302,0.0779 9.02724,4.2484 8.95632,9.14029c-0.01179,0.81288 -0.13351,1.59846 -0.35298,2.34298c-0.28549,-0.01631 -0.57364,-0.03928 -0.86547,-0.0727c-1.36208,-0.15597 -1.81023,-1.66428 -3.32012,-0.66009c-1.49116,0.99411 -1.47301,-0.78957 -2.74936,-1.6286c-0.55137,-0.36245 -2.9339,0.3047 -3.33888,0.70967c-1.36211,0.91348 -0.92145,-0.92248 -1.69398,-1.53643c-0.32733,-0.26014 -3.43719,-0.54454 -3.57581,-0.43091c-0.35248,0.36042 -1.92497,-0.08652 -3.05656,-0.6968c0.98984,-4.09805 5.25777,-7.23611 9.99684,-7.16741z" fill="#000000" stroke="#ffffff" stroke-width="1.4"/><path d="M230.37646,109.91597c2.75843,0.03999 4.96213,2.30855 4.92214,5.06696c-0.00983,0.67798 -0.15429,1.32245 -0.40756,1.90833c-0.9084,0.1701 -1.06674,-1.20228 -2.13942,-1.90742c-0.55137,-0.36245 -2.9339,0.3047 -3.33888,0.70967c-1.36211,0.91348 -0.92145,-0.92248 -1.69398,-1.53643c-0.1913,-0.15204 -1.3331,-0.31236 -2.27667,-0.39668c0.52584,-2.23239 2.54657,-3.87905 4.93437,-3.84444z" fill="#ffffff" stroke="none" stroke-width="1.5"/></g></g></g></svg>