<svg version="1.1" xmlns="http://www.w3.org/2000/svg" xmlns:xlink="http://www.w3.org/1999/xlink" width="114.69159" height="326.60935" viewBox="0,0,114.69159,326.60935"><defs><radialGradient cx="254.62774" cy="100.01712" r="10.30169" gradientUnits="userSpaceOnUse" id="color-1"><stop offset="0" stop-color="#000000"/><stop offset="1" stop-color="#000000" stop-opacity="0"/></radialGradient><radialGradient cx="219.07468" cy="78.15887" r="13.3471" gradientUnits="userSpaceOnUse" id="color-2"><stop offset="0" stop-color="#970000"/><stop offset="1" stop-color="#ec0000"/></radialGradient><radialGradient cx="260.00778" cy="50.41574" r="5.53504" gradientUnits="userSpaceOnUse" id="color-3"><stop offset="0" stop-color="#970000"/><stop offset="1" stop-color="#ec0000"/></radialGradient><linearGradient x1="241.92169" y1="-697.60741" x2="241.92169" y2="689.58997" gradientUnits="userSpaceOnUse" id="color-4"><stop offset="0" stop-color="#ff0000"/><stop offset="1" stop-color="#ff0000" stop-opacity="0"/></linearGradient></defs><g transform="translate(-181.74179,16.05937)"><g data-paper-data="{&quot;isPaintingLayer&quot;:true}" fill-rule="nonzero" stroke-linejoin="miter" stroke-miterlimit="10" stroke-dasharray="" stroke-dashoffset="0" style="mix-blend-mode: normal"><path d="M190.72781,308.83549c0,0 5.31399,-111.57556 5.14341,-137.87558c-0.05886,-9.07451 8.83952,-40.91827 43.4068,-41.09615c17.43477,-0.08972 28.28792,8.48128 34.73233,17.98609c-0.32762,1.45244 -0.64028,2.9159 -1.01643,4.31226c-0.95708,2.31527 -1.90327,4.61676 -2.71645,6.98672c-0.111,0.32351 -0.8114,1.90439 -0.50726,2.18014c0.14459,0.13109 1.056,-0.24764 1.23269,-0.31394c1.26179,-1.05802 2.85048,-2.09765 3.88303,-3.41701c-0.0285,0.67403 0.18839,1.52403 0.23809,2.05766c0.21585,2.31727 0.48795,4.63213 0.54749,6.95901c0.08947,3.49661 0.21283,6.99378 0.22339,10.49157c0.00101,0.33333 0.00353,1.16657 0.00454,1.4999c0,0.00003 0,0.00007 0,0.0001c0.00041,0.13772 0.11218,0.24924 0.25,0.24924c0.07491,0 0.14213,-0.03295 0.18795,-0.08515l0.33076,-0.37326l-0.10338,-0.0916c1.4599,-2.02812 1.70058,-7.06158 2.33033,-9.23602c0.34791,-1.20134 0.97768,-2.30297 1.39182,-3.4678c0.05867,0.75878 0.30899,1.62493 0.3896,2.21865c0.29503,2.17296 0.46909,4.24141 0.47042,6.4347c0.00212,3.50477 0.05831,7.00125 0.15525,10.50466c0.08632,3.11973 -0.05925,6.43503 0.53899,9.50193l0.05271,0.48627c0.01208,0.12681 0.11889,0.226 0.24886,0.226c0.08994,0 0.16877,-0.04749 0.21282,-0.11875l0.26727,-0.41763l-0.03695,-0.02365c0.0351,-0.04326 0.06984,-0.08705 0.10423,-0.13136c0.07069,2.28376 0.14997,4.59387 0.23691,6.92326c1.83481,49.15955 7.08292,106.90752 7.08292,106.90752l-15.33344,0.44034c0,0 -0.02526,-17.07387 -0.04361,-31.41953c-0.03143,-24.56274 -3.12787,-102.59545 -3.12787,-102.59545c0,0 0.08151,-3.44977 -3.04075,-3.51082c-3.70819,-0.0725 -3.18018,3.46794 -3.18018,3.46794l0.22186,134.04487l-52.05712,0.08039l-0.32973,-134.44907c0,0 0.30177,-3.24908 -3.11563,-3.26625c-3.35882,-0.01687 -3.04015,3.23794 -3.04015,3.23794c0,0 -3.10599,81.3947 -3.0371,105.65622c0.03691,12.99757 1.41836,28.60775 1.41836,28.60775z" fill="#ffffff" stroke="#000000" stroke-width="2" stroke-linecap="butt"/><path d="M194.44264,160.53006c0.1713,-3.28432 1.77468,-7.28312 1.92772,-8.87799c0.3658,-3.81186 10.384,-6.21146 10.384,-6.21146l65.50284,-1.46872c0,0 1.01874,0.5357 2.3567,1.36532c-0.58832,2.23655 -1.02462,4.61478 -1.61998,6.82491c-0.95708,2.31527 -1.90327,4.61676 -2.71645,6.98672c-0.111,0.32351 -0.8114,1.90439 -0.50726,2.18014c0.14459,0.13109 1.056,-0.24764 1.23269,-0.31394c1.26179,-1.05802 2.85048,-2.09765 3.88303,-3.41701c-0.0285,0.67403 0.18839,1.52403 0.23809,2.05766c0.21585,2.31727 0.48795,4.63213 0.54749,6.95901c0.08947,3.49661 0.21283,6.99378 0.22339,10.49157c0.00101,0.33333 0.00353,1.16657 0.00454,1.4999c0,0.00003 0,0.00007 0,0.0001c0.00041,0.13772 0.11218,0.24924 0.25,0.24924c0.07491,0 0.14213,-0.03295 0.18795,-0.08515l0.33076,-0.37326l-0.10338,-0.0916c1.4599,-2.02812 1.70058,-7.06158 2.33033,-9.23602c0.34791,-1.20134 0.97768,-2.30297 1.39182,-3.4678c0.05867,0.75878 0.30899,1.62493 0.3896,2.21865c0.29503,2.17296 0.46909,4.24141 0.47042,6.4347c0.00212,3.50477 0.05831,7.00125 0.15525,10.50466c0.08632,3.11973 -0.05925,6.43503 0.53899,9.50193l0.05271,0.48627c0.01208,0.12681 0.11889,0.226 0.24886,0.226c0.08994,0 0.16877,-0.04749 0.21282,-0.11875l0.26727,-0.41763l-0.03695,-0.02365c0.77707,-0.95771 1.37636,-2.17638 1.90845,-3.45665c0.46301,11.2619 0.95733,24.13138 1.43975,37.14329c-0.38577,0.59154 -0.75351,1.19612 -1.09748,1.81823c-1.12904,2.04199 -2.25808,4.08397 -3.38712,6.12596c-0.2775,0.50189 -0.81165,1.22995 -1.01905,1.89066c-0.36426,-1.67476 -0.5734,-3.33567 -0.7717,-5.04498c-0.40319,-3.47539 -0.71677,-6.97616 -1.24779,-10.43426c-0.39487,-2.57148 -0.28692,-6.9781 -1.6775,-9.38512l0.06294,-0.03168l-0.22235,-0.44181c-0.04021,-0.08424 -0.12618,-0.14243 -0.22574,-0.14243c-0.12711,0 -0.23207,0.09487 -0.24793,0.21766l-0.07152,0.49109c-0.26405,1.81307 -0.5312,3.62389 -0.83237,5.4312c-0.57532,3.45247 -1.15363,6.90446 -1.72547,10.35751c-0.4619,2.78918 -1.5237,6.09988 -1.67635,8.92522c-0.19869,-0.86732 -0.37072,-1.73165 -0.51984,-2.6113c-0.58704,-3.46295 -1.29286,-6.8779 -2.05286,-10.30686c-0.75718,-3.41628 -1.34152,-6.85857 -1.94883,-10.30437c-0.10005,-0.56771 -0.4171,-4.47656 -0.92028,-4.62129c-0.86158,-0.24783 -0.74546,0.68532 -0.75389,1.01963c-0.04197,1.66416 -0.00059,3.3349 -0.00089,4.99967c-0.00939,3.48521 0.11748,7.00222 -0.13019,10.47877c-0.20774,2.9161 -0.31843,5.89598 -0.48694,8.77166c-0.02193,0.3743 -0.28495,-0.69367 -0.42174,-1.04277c-0.28605,-3.49447 -0.6667,-6.9414 -1.1924,-10.40752c-0.52401,-3.45497 -0.80761,-6.94509 -1.16309,-10.42123c-0.06343,-0.62027 -0.69563,-5.34789 -1.98108,-4.73138c-0.15226,0.07302 -0.12748,1.02823 -0.12818,1.21523c-0.00563,1.49964 -0.06276,2.98589 -0.14616,4.48316c-0.19632,3.52448 -0.37847,6.92221 -1.07104,10.38612c-0.68486,3.42534 -1.32599,6.81264 -1.75958,10.27854c-0.05361,-0.51044 -0.28339,-2.15069 -0.35346,-2.6187c-0.32268,-2.15526 -0.9606,-4.23638 -1.52617,-6.33988c-0.91005,-3.38469 -1.96081,-6.72253 -2.98476,-10.07425c-0.13264,-0.43419 -0.44336,-2.33664 -0.84133,-2.53251c-0.87698,-0.43162 -1.26017,1.03858 -1.51208,1.54322c-0.9034,1.80976 -1.78886,3.58113 -2.49481,5.47769c-1.22095,3.28014 -2.4419,6.56027 -3.66285,9.8404c-0.79662,2.14812 -1.08949,4.61172 -1.5674,6.85378c-0.04627,0.21707 -0.88383,1.96737 -0.94512,1.96357c-0.26244,-0.01622 -0.11516,-0.51827 -0.23143,-0.75412c-1.45253,-3.22075 -2.74457,-6.35905 -3.80513,-9.73026c-1.05492,-3.35332 -2.2707,-6.61831 -3.52521,-9.90175c-0.50256,-1.31536 -1.66137,-6.06056 -3.45517,-6.23492c-0.9796,-0.09521 -1.3699,2.61033 -1.5779,3.29893c-1.00973,3.34272 -2.33154,6.58873 -3.55739,9.85797c-1.22887,3.2773 -2.45482,6.55566 -3.67962,9.83447c-0.81033,2.16925 -1.73562,4.39091 -2.29963,6.63985c-0.14222,0.56712 -0.13716,2.6757 -0.6024,2.9266c0.77698,-2.83604 -0.39159,-7.38883 -0.76172,-10.29591c-0.43922,-3.44977 -0.65174,-7.03329 -1.42713,-10.42292c-0.15519,-0.67841 -0.94356,-5.68018 -2.17676,-4.07372c-0.71208,0.92761 -0.34469,3.99662 -0.97034,5.34031c-1.4863,3.19208 -3.00231,6.32877 -4.16709,9.6532c-1.14331,3.26314 -2.08288,6.71499 -3.63779,9.80381c-0.58575,1.16358 -1.22277,3.48216 -2.13945,4.35623c-0.20679,0.19718 -0.35694,-1.23988 -0.37934,-1.37446c-0.19139,-1.1498 -0.36944,-2.30083 -0.54234,-3.45355c-0.51997,-3.46662 -0.92997,-6.91701 -1.26375,-10.40642c-0.28725,-3.00304 -0.27052,-6.5365 -1.42727,-9.40339l0.02924,-0.00652l-0.10761,-0.48323c-0.02298,-0.11434 -0.12398,-0.20047 -0.24509,-0.20047c-0.11087,0 -0.20489,0.07217 -0.23763,0.17209l-0.16483,0.46589c-0.90431,2.556 -2.85365,4.94569 -4.39742,7.16516c-0.63205,0.90869 -1.2641,1.81739 -1.89615,2.72608c0.47024,-29.40716 1.10122,-59.61202 1.85927,-74.14602z" fill="#111111" stroke="none" stroke-width="0" stroke-linecap="butt"/><path d="M286.96317,227.81517c-0.72735,0.62708 -1.41487,1.27417 -1.8822,2.01296c-0.42266,1.04337 -1.03859,2.26528 -1.75067,3.4604c-0.04142,-14.65431 -0.16898,-28.73451 -0.30209,-39.47386c1.08974,-1.61478 1.81327,-3.74987 2.5689,-5.68708c0.67903,16.73489 1.20617,34.21723 1.36606,39.68759z" data-paper-data="{&quot;index&quot;:null}" fill="#070707" stroke="none" stroke-width="0" stroke-linecap="butt"/><path d="M272.97702,144.71392c0,0 0.61005,0.38184 1.53787,1.0064c-0.1473,0.57981 -0.28569,1.16785 -0.42048,1.75883c-0.68439,-1.73693 -1.11739,-2.76523 -1.11739,-2.76523z" data-paper-data="{&quot;index&quot;:null}" fill="#070707" stroke="none" stroke-width="0" stroke-linecap="butt"/><path d="M280.28694,165.60167c0.00291,0.03763 0.00629,0.07552 0.0101,0.11363c-0.00737,-0.02665 -0.01475,-0.05329 -0.02214,-0.07994c0.00403,-0.01122 0.00805,-0.02246 0.01205,-0.03369z" data-paper-data="{&quot;index&quot;:null}" fill="#070707" stroke="none" stroke-width="0" stroke-linecap="butt"/><path d="M191.42237,229.65735c0,0 1.79427,-63.87246 3.42158,-75.3076c0.46521,-3.26898 8.45531,-8.15169 8.45531,-8.15169c0,0 -7.46066,21.39501 -7.68394,33.62363c-0.17283,9.4655 -0.4305,29.74688 -0.50378,51.59151c-0.44167,0.63659 -0.88941,1.27084 -1.31606,1.91546c-0.78873,0.98987 -1.58143,1.97706 -2.37311,2.96519z" fill="#070707" stroke="none" stroke-width="0" stroke-linecap="butt"/><path d="M255.6773,186.49206c-0.61666,0 -1.11655,-0.51535 -1.11655,-1.15105c0,-0.63571 0.4999,-1.15107 1.11655,-1.15107c0.61666,0 1.11655,0.51536 1.11655,1.15107c0,0.63571 -0.4999,1.15105 -1.11655,1.15105z" fill="#000000" stroke="none" stroke-width="1.5" stroke-linecap="butt"/><path d="M249.99813,191.20661c-4.81932,-0.34994 -7.07479,-1.99678 -6.66169,-2.87187c0.12728,-0.26963 3.07336,1.18381 7.52604,1.45235c6.91988,0.41733 9.18875,-0.70317 9.18875,-0.70317v1.49838c0,0 -2.6059,1.16508 -10.0531,0.62431z" fill="#000000" stroke="#000000" stroke-width="0" stroke-linecap="butt"/><path d="M219.96822,185.34101c0,-0.63571 0.4999,-1.15107 1.11655,-1.15107c0.61666,0 1.11657,0.51536 1.11657,1.15107c0,0.63571 -0.49991,1.15105 -1.11657,1.15105c-0.61666,0 -1.11655,-0.51535 -1.11655,-1.15105z" fill="#000000" stroke="none" stroke-width="1.5" stroke-linecap="butt"/><path d="M226.76394,191.20661c-7.4472,0.54079 -10.0531,-0.62431 -10.0531,-0.62431v-1.49838c0,0 2.26887,1.1205 9.18875,0.70317c4.45268,-0.26854 7.39877,-1.72198 7.52605,-1.45235c0.4131,0.87508 -1.84236,2.52192 -6.66169,2.87187z" fill="#000000" stroke="#000000" stroke-width="0" stroke-linecap="butt"/><path d="M238.94365,260.33865c-0.88423,0 -1.60105,-0.73896 -1.60105,-1.65052c0,-0.91155 0.71681,-1.65052 1.60105,-1.65052c0.88423,0 1.60105,0.73896 1.60105,1.65052c0,0.91155 -0.71681,1.65052 -1.60105,1.65052z" data-paper-data="{&quot;index&quot;:null}" fill="#000000" stroke="none" stroke-width="1.5" stroke-linecap="butt"/><path d="M212.96214,308.51822v-138.8662c0,0 0.81757,-10.83144 0.81757,-16.29479c0,-5.00664 -0.81757,-15.23496 -0.81757,-15.23496c0,0 2.88629,-2.61904 5.02684,-4.17191c2.14055,-1.55285 5.58427,-3.12075 5.58427,-3.12075c0,0 -0.64956,36.29646 15.72016,36.21815c16.66519,-0.07972 14.93415,-36.21815 14.93415,-36.21815c0,0 4.22467,1.69143 6.65737,3.27975c2.4327,1.58831 5.13275,4.01291 5.13275,4.01291c0,0 -0.81757,10.49037 -0.81757,15.79685c0,5.38946 0.81757,16.29479 0.81757,16.29479v138.30432z" fill="#000000" stroke="#000000" stroke-width="2" stroke-linecap="butt"/><path d="M256.49333,159.94457c0,5.78877 -8.01648,10.48151 -17.90531,10.48151c-9.88883,0 -17.90532,-4.69274 -17.90532,-10.48151c0,-5.78877 8.01649,-10.4815 17.90532,-10.4815c9.88883,0 17.90531,4.69273 17.90531,10.4815z" fill="#e6e6e6" stroke="none" stroke-width="0" stroke-linecap="butt"/><path d="M271.24946,150.2979c0,5.78877 -6.44542,10.48151 -14.39623,10.48151c-7.95082,0 -14.39623,-4.69274 -14.39623,-10.48151c0,-5.78877 6.44542,-10.4815 14.39623,-10.4815c7.95081,0 14.39623,4.69273 14.39623,10.4815z" fill="#ffffff" stroke="none" stroke-width="0" stroke-linecap="butt"/><path d="M233.45935,148.81379c0,5.78877 -6.44542,10.48151 -14.39623,10.48151c-7.95082,0 -14.39623,-4.69274 -14.39623,-10.48151c0,-5.78877 6.44542,-10.4815 14.39623,-10.4815c7.95082,0 14.39623,4.69273 14.39623,10.4815z" fill="#ffffff" stroke="none" stroke-width="0" stroke-linecap="butt"/><path d="M224.10181,138.42503c0,5.78877 -4.99519,10.48151 -11.15707,10.48151c-6.16188,0 -11.15709,-4.69274 -11.15709,-10.48151c0,-5.78877 4.9952,-10.4815 11.15709,-10.4815c6.16188,0 11.15707,4.69273 11.15707,10.4815z" fill="#e6e6e6" stroke="none" stroke-width="0" stroke-linecap="butt"/><path d="M275.02847,138.98155c0,5.78877 -4.99519,10.48151 -11.15707,10.48151c-6.16188,0 -11.15707,-4.69274 -11.15707,-10.48151c0,-5.78877 4.9952,-10.4815 11.15707,-10.4815c6.16188,0 11.15707,4.69273 11.15707,10.4815z" fill="#e6e6e6" stroke="none" stroke-width="0" stroke-linecap="butt"/><path d="M261.46002,310.16256c-0.80979,0 -0.80979,-0.83481 -0.80979,-0.83481l0.04156,-0.10704c-1.51606,-4.68875 -4.43806,-8.40483 -5.77839,-13.42916c-0.64054,-2.40115 0.35254,-5.23086 0.33824,-7.61233c0,-0.51136 0.25357,-5.01309 -0.27218,-5.18975c-2.12065,-0.71257 -4.2592,3.78432 -6.49826,2.58654c-0.79655,-0.42612 -1.24597,-1.90508 -1.4751,-2.72879c-0.80191,-2.88288 -0.93922,-7.91868 -0.02184,-10.75587c-0.01775,-2.29225 -0.43344,-4.19257 -0.72421,-6.44276c-0.04908,-0.3798 0.26672,-1.19172 -0.10214,-1.14466c-3.34914,0.42734 -6.54602,10.91087 -9.87189,5.17194c-0.28205,-0.4867 -0.49615,-1.01199 -0.73923,-1.52054c-0.49353,-1.03254 -0.79491,-2.19983 -0.80979,-3.3508c0,-8.85352 4.08935,-25.70643 0.05029,-34.09379c-0.1861,-2.10214 -2.04033,-0.3156 -3.26638,0.52452c-2.01423,1.38019 -5.57805,3.7355 -8.16091,2.5543c-4.00371,-1.83097 -0.12241,-8.97289 -0.13999,-11.90207c0,-2.42396 -0.0093,-8.33068 -2.09166,-10.02375c-0.20483,-0.16654 -2.27494,1.02793 -2.54715,1.14831c-2.53651,1.12173 -4.10121,2.55897 -5.34409,5.16748c0,0 -0.36215,0.74669 -1.08644,0.37335c-0.7243,-0.37334 -0.36215,-1.12002 -0.36215,-1.12002c1.77868,-3.61281 3.878,-4.61369 7.20672,-6.31301c1.02025,-0.52084 1.50921,-1.5049 2.89732,-0.72817c0.86655,0.48488 1.18356,1.83385 1.46585,2.69819c0.97901,2.99774 1.48118,5.64472 1.48118,8.79761c-0.01354,2.70997 -1.43963,5.10051 -1.43963,7.79156c0,0.42347 -0.21607,2.31995 0.57982,2.56797c3.90933,1.2183 10.4746,-7.63947 12.32648,-2.11555c4.19831,8.58771 0.05029,25.61955 0.05029,34.67307c-0.01501,0.89522 0.24516,1.80599 0.6388,2.60411c0.01424,0.02888 1.04708,2.74564 1.60451,2.51983c2.84024,-1.15055 3.78967,-8.2952 7.93012,-7.04952c2.44952,0.73695 2.06662,7.35748 2.0529,9.47981c-0.7294,2.25581 -1.312,9.90953 0.66248,11.74515c0.06516,0.06058 3.47931,-2.22068 3.75071,-2.30262c4.33321,-1.30806 3.87508,3.22707 3.87508,6.37788c-0.01092,2.18597 -1.01464,5.04676 -0.38156,7.22873c1.43208,4.93583 4.2257,8.60583 5.7386,13.28478l0.04155,0.63501c0,0 0,0.83481 -0.80979,0.83481z" fill="#ec0000" stroke="none" stroke-width="0.5" stroke-linecap="butt"/><path d="M256.78349,310.44545c-0.7243,0.37334 -1.08644,-0.37335 -1.08644,-0.37335l-0.20822,-0.52509c-2.29681,-2.36778 -3.44804,-6.86485 -3.47633,-10.237c0,-1.39834 0.49584,-6.11341 -0.74342,-7.11433c-1.29262,-1.04401 -3.57955,1.81662 -5.35813,0.77025c-3.85946,-2.27063 -3.53979,-9.25917 -3.65283,-13.07141c-0.16708,-0.86449 0.09533,-5.86575 -0.90281,-6.15616c-2.09544,-0.60969 -4.18336,1.32096 -5.85851,1.85514c-1.16403,0.37119 -3.51223,-0.06921 -4.61821,-0.62033c-3.09771,-1.54362 -2.97977,-5.3847 -2.97977,-8.68456c0,-4.21833 0.45824,-14.93072 -0.00352,-19.11807c-0.08105,-0.73498 -0.07331,-3.65187 -0.69213,-4.16648c-1.04329,-0.86762 -4.24129,1.3382 -5.0981,1.57296c-3.85489,1.05624 -4.75587,-2.4124 -5.33619,-5.40807c-1.42608,-4.5202 0.87566,-9.11602 0.24631,-13.66859c-0.03526,-0.25508 -0.35659,-3.06412 -0.65694,-3.30669c-1.17364,-0.94792 -2.81894,1.69142 -3.07714,2.55497c0,0 -0.25608,0.79197 -1.02431,0.52798c-0.76823,-0.26399 -0.51215,-1.05597 -0.51215,-1.05597c1.25216,-3.67123 5.52698,-5.37985 6.59283,-0.67929c1.13892,5.02281 -1.6124,10.35836 -0.00325,15.19907c0.17024,0.8762 0.40638,3.34294 1.16367,4.01541c2.11975,1.88235 6.11931,-3.17568 8.55676,-1.17202c1.55027,1.27437 0.92862,2.19888 1.09903,3.77277c0.52742,4.87107 0.36474,16.00365 0.36474,20.93204c0,3.15168 -0.30897,6.55687 2.97374,7.34973c0.32137,0.07762 1.89834,0.59931 2.38489,0.41263c1.83603,-0.70443 4.78355,-2.9324 7.09809,-1.85514c2.3592,1.09806 1.48147,5.39969 1.89188,7.50699c0.12426,3.69511 -0.14934,8.0846 2.26659,11.12698c1.73693,2.18731 3.77855,-1.74579 6.0825,0.0114c1.91823,1.463 1.41601,6.43519 1.41601,8.46879c-0.03099,2.90243 1.03259,7.02615 3.00197,9.0564l0.51159,0.959c0,0 0.36215,0.74668 -0.36215,1.12002z" fill="#ec0000" stroke="none" stroke-width="0.5" stroke-linecap="butt"/><path d="M231.98995,210.06606l0.53041,0.10036c0.89975,0.97715 2.29268,1.12652 3.1976,1.88203c2.02783,1.69305 2.08473,3.53215 2.05659,5.94957c-1.83945,3.84842 -4.29973,5.09849 -8.26477,3.56028c-1.0941,-0.42445 -1.52954,-0.31985 -2.20985,-1.45806c-1.11495,-1.86542 -0.48937,-6.0068 0.3006,-7.80786c0.57704,-1.3156 2.1416,-1.53316 3.05478,-2.49699c0,0 0.57261,-0.5903 1.14521,0c0.08821,0.09094 0.14926,0.18189 0.18939,0.27068z" fill="#ec0000" stroke="none" stroke-width="0.5" stroke-linecap="butt"/><path d="M244.74365,246.87836c3.13706,2.16939 3.89089,1.02876 3.82809,4.81209c-0.73049,1.54804 -2.75129,7.47005 -4.56104,7.99015c-2.26779,0.65175 -4.37881,-3.54492 -4.58882,-5.1628c-0.47515,-3.66043 -0.30509,-6.33932 2.95647,-7.8117z" fill="#ec0000" stroke="none" stroke-width="0.5" stroke-linecap="butt"/><path d="M215.50329,296.87997c1.38997,-5.96717 2.09966,-12.12602 2.7852,-18.26822c-0.94834,-1.39684 -2.01954,-2.66268 -3.32213,-3.07934c-0.47505,-0.69266 -1.6638,-1.26614 -1.42514,-2.07797c0.23494,-0.79918 1.49566,-0.66676 2.28592,-0.85015c0.98507,-0.2286 2.07214,-0.28602 3.18176,-0.27451c0.13991,-1.14583 0.28686,-2.28857 0.4452,-3.42684c0.22878,-1.64469 0.45345,-3.21436 0.49183,-4.87665l0.03512,-1.46596c0.00932,-0.45271 0.36823,-0.81674 0.8096,-0.81674c0.33666,0 0.62533,0.21179 0.7475,0.51317l0.65026,1.5083l-0.21918,0.10042c1.37516,2.68801 1.75565,5.57513 2.50004,8.62996c0.84008,-0.00138 2.05735,0.02124 2.19346,0.16549c1.26387,1.33952 0.80467,2.55132 0.57738,4.04334c-0.14289,0.93793 -0.35345,1.87184 -0.61313,2.80014c1.56386,4.42488 3.39003,8.77387 4.98333,13.16448c0.72026,1.48503 1.26734,2.98416 1.83046,4.53795l0.005,0.04749l0.00741,-0.00191l0.35551,1.46595c0.01864,0.07028 0.02858,0.14425 0.02858,0.22063c0,0.46106 -0.36255,0.83481 -0.80979,0.83481c-0.38537,0 -0.70788,-0.27753 -0.78972,-0.64928l-0.34741,-1.43258c-0.01015,-0.02787 -0.0203,-0.0557 -0.03045,-0.08352c-2.96602,-3.20841 -5.52785,-7.02916 -8.03536,-10.7614c-0.41528,0.94487 -0.8297,1.87862 -1.22083,2.79939c-1.74157,3.5905 -2.57481,7.3957 -4.93804,10.63735l-0.43072,1.16132c-0.11162,0.32337 -0.41115,0.55487 -0.76313,0.55487c-0.38537,0 -0.70788,-0.27753 -0.78972,-0.64928l-0.3558,-1.46717l0.17274,-0.04452c-0.11991,-0.41596 -0.19477,-0.84006 -0.19692,-1.27104v-1.11308c0,0 0,-0.32991 0.20117,-0.57494zM219.66849,280.77242c-0.66021,5.77749 -1.39927,11.55025 -2.7468,17.1557v0.53556c1.8345,-2.98492 2.6582,-6.31461 4.21538,-9.52546c0.5161,-1.21684 1.06746,-2.44877 1.60784,-3.69399c-0.77512,-1.14519 -1.54986,-2.27214 -2.33464,-3.35999c-0.24325,-0.33719 -0.48957,-0.71402 -0.74178,-1.1118zM220.6336,272.38371c0.75864,0.03709 1.50981,0.08314 2.22836,0.10578c-0.15248,-0.59498 -0.29746,-1.19241 -0.43408,-1.79254c-0.2381,-1.04594 -0.72203,-2.37114 -1.08945,-3.68425c-0.08326,0.70424 -0.18127,1.40918 -0.28116,2.12725c-0.14995,1.0779 -0.28998,2.15951 -0.42368,3.24377zM229.52256,291.70198c-1.2162,-3.25975 -2.4942,-6.50086 -3.67816,-9.77322c-0.36634,1.01376 -0.77285,2.01902 -1.19451,3.01368c1.61039,2.21048 3.19744,4.44185 4.7979,6.65744c0.02452,0.03395 0.04946,0.06799 0.07479,0.10211zM223.52463,283.40751c0.53663,-1.30153 1.03731,-2.61639 1.45085,-3.94259c-0.59906,-1.74919 -1.16053,-3.51074 -1.66104,-5.29212c-0.96496,-0.00107 -1.9303,-0.00586 -2.89554,-0.0041c-0.17557,1.49288 -0.34286,2.98961 -0.51112,4.48736c0.02333,0.03038 0.04692,0.06069 0.07079,0.0909c1.2073,1.52954 2.38483,3.08752 3.54606,4.66055zM216.21215,274.27585c1.08817,0.51046 1.7283,1.33042 2.30997,2.24383c0.08762,-0.7808 0.17605,-1.56095 0.26665,-2.34002c-0.41334,0.00529 -0.82662,0.01283 -1.23981,0.02343c-0.28356,0.00727 -0.81674,0.08432 -1.33681,0.07276zM224.83022,273.87361c0.27031,0.97072 0.5624,1.93562 0.87137,2.89588c0.22346,-0.99541 0.40501,-2.22676 0.01419,-2.75409c-0.2008,-0.27092 -0.52594,-0.24293 -0.88555,-0.1418z" fill="#ec0000" stroke="none" stroke-width="0.5" stroke-linecap="butt"/><path d="M213.73977,305.46574c-0.57261,-0.5903 0,-1.1806 0,-1.1806l0.84254,-0.86857c0,-0.00841 0,-0.01681 0,-0.02524c0,0 0,-0.83481 0.80979,-0.83481c0.22549,0 0.38819,0.06473 0.50559,0.15814c0.05473,-0.03154 0.10947,-0.06306 0.1642,-0.09459l0.18706,0.77127h0.31284v1.11308h-0.04289l0.03243,0.13373c-0.02696,0.03772 -0.05392,0.07544 -0.08088,0.11316l0.04977,0.01711l-0.35401,1.09482c-0.10176,0.34112 -0.40986,0.58909 -0.77414,0.58909c-0.43164,0 -0.78439,-0.34813 -0.80847,-0.7869c-0.21939,0.09305 -0.53162,0.1222 -0.84385,-0.19967z" fill="#ec0000" stroke="none" stroke-width="0.5" stroke-linecap="butt"/><path d="M238.77879,207.04851c-0.71771,-0.37418 -0.35721,-1.11745 -0.35721,-1.11745c1.16561,-2.40325 2.7031,-4.41157 3.9836,-6.72546c0.2163,-0.39087 0.42025,-0.79107 0.61453,-1.19852c-2.24069,-2.78108 -4.47524,-5.56214 -6.76644,-8.2603l-0.59338,-0.69876c-0.12636,-0.14725 -0.20306,-0.34085 -0.20306,-0.5529c0,-0.46106 0.36255,-0.83481 0.80979,-0.83481h1.43963v0.14034c3.00704,-0.30237 6.10523,0.08144 9.17242,0.66435c0.67194,-1.60198 2.17882,-5.04058 3.30582,-4.47697c0.59323,0.29667 1.00394,3.19152 1.13357,3.92658c0.09926,0.51747 0.20016,1.03495 0.30194,1.55251c1.05637,0.23164 2.10105,0.4566 3.1287,0.65362c1.35213,0.25924 6.85677,0.08085 6.80006,2.40952c-0.02466,1.01261 -2.11855,3.12947 -2.77393,3.99432c-1.70537,1.18811 -3.46232,2.25357 -5.23989,3.26647c0.46934,3.08026 0.79085,6.17923 0.80568,9.31127l0.32363,1.0009c0.03076,0.08822 0.04754,0.18332 0.04754,0.28248c0,0.46106 -0.36255,0.83481 -0.80979,0.83481c-0.32327,0 -0.6023,-0.19528 -0.73215,-0.47765l-0.71646,-1.47718l0.00629,-0.00324c-1.77182,-1.95677 -3.49223,-3.97694 -5.18726,-6.02613c-2.15115,1.18902 -4.27968,2.42069 -6.33117,3.81802l-1.17942,0.41307c0,0 -0.6947,0.23873 -0.98307,-0.41889z" fill="#ffffff" stroke="none" stroke-width="0.5" stroke-linecap="butt"/><path d="M236.97925,210.01672c-0.71771,-0.37418 -0.35721,-1.11745 -0.35721,-1.11745c1.16561,-2.40325 2.7031,-4.41157 3.9836,-6.72546c0.2163,-0.39087 0.42025,-0.79107 0.61453,-1.19852c-2.24069,-2.78108 -4.47524,-5.56214 -6.76644,-8.2603l-0.59338,-0.69879c-0.12636,-0.14725 -0.20306,-0.34084 -0.20306,-0.5529c0,-0.46106 0.36255,-0.83481 0.80979,-0.83481h1.43963v0.14034c3.00704,-0.30237 6.10523,0.08143 9.17242,0.66434c0.67194,-1.60198 2.17882,-5.04058 3.30582,-4.47697c0.59323,0.29667 1.00394,3.19152 1.13357,3.92658c0.09926,0.51747 0.20016,1.03495 0.30194,1.55251c1.05637,0.23164 2.10105,0.4566 3.1287,0.65362c1.35214,0.25924 6.85677,0.08085 6.80005,2.40952c-0.02466,1.01261 -2.11853,3.12947 -2.77392,3.99432c-1.70537,1.18811 -3.46233,2.25357 -5.23989,3.26647c0.46934,3.08026 0.79085,6.17923 0.80568,9.31127l0.32363,1.0009c0.03076,0.08822 0.04754,0.18332 0.04754,0.28248c0,0.46106 -0.36255,0.83481 -0.80979,0.83481c-0.32327,0 -0.6023,-0.19528 -0.73215,-0.47765l-0.71646,-1.47718l0.00628,-0.00324c-1.77182,-1.95677 -3.49223,-3.97694 -5.18726,-6.02613c-2.15115,1.18902 -4.27968,2.42069 -6.33117,3.81802l-1.17942,0.41307c0,0 -0.6947,0.23873 -0.98307,-0.41888z" fill="#ec0000" stroke="none" stroke-width="0.5" stroke-linecap="butt"/><path d="M252.11593,272.98384c-0.09986,0.04711 -0.22256,0.07606 -0.37336,0.07606c-0.80979,0 -0.80979,-0.83481 -0.80979,-0.83481c0,-2.37118 -0.72847,-7.71771 1.3169,-9.49494c2.34647,-2.03886 5.38728,2.43797 5.69081,4.53788c0.45008,3.11377 -2.61644,8.64521 -5.77513,5.81622c-0.01648,-0.03346 -0.03295,-0.06693 -0.04943,-0.10039z" fill="#ec0000" stroke="none" stroke-width="0.5" stroke-linecap="butt"/><path d="M262.28198,292.17699c0.51709,0.02751 1.01958,0.15328 1.46911,0.53319c2.3745,2.00676 1.02417,5.94407 -1.69649,6.65679c-3.11907,0.8171 -3.34005,-2.77012 -2.47771,-5.4187c-0.11579,-0.43663 0.23082,-0.79394 0.23082,-0.79394l0.12836,-0.12058c0.30479,-0.64946 0.67597,-1.17673 1.07478,-1.46783c0,0 0.67379,-0.46307 1.12298,0.23153c0.08792,0.13596 0.13283,0.26304 0.14817,0.37953z" fill="#ec0000" stroke="none" stroke-width="0.5" stroke-linecap="butt"/><path d="M243.09745,177.10459c0,2.51547 -2.17119,4.55467 -4.84949,4.55467c-2.67829,0 -4.84949,-2.03919 -4.84949,-4.55467c0,-2.51547 2.17119,-4.55467 4.84949,-4.55467c2.67829,0 4.84949,2.03919 4.84949,4.55467z" fill="#ffffff" stroke="none" stroke-width="0" stroke-linecap="butt"/><path d="M242.01773,186.00923c0,1.96221 -1.73608,3.55289 -3.87763,3.55289c-2.14155,0 -3.87763,-1.59069 -3.87763,-3.55289c0,-1.96221 1.73608,-3.5529 3.87763,-3.5529c2.14155,0 3.87763,1.59069 3.87763,3.5529z" fill="#e8e8e8" stroke="none" stroke-width="0" stroke-linecap="butt"/><path d="M193.21981,54.7359c0.04732,-0.33408 -1.15893,3.07466 -2.58346,4.54144c-1.99808,2.05734 -4.42557,2.47071 -4.42557,2.47071c0,0 9.74175,-21.15531 10.93321,-24.36691c0.21751,-0.58629 0.68591,-1.76755 0.68591,-1.76755l-6.73191,-0.33424l13.72666,-10.31345c0,0 3.93281,-6.13697 5.06931,-7.15213c0.96193,-0.85923 1.97835,-1.68136 3.05239,-2.45911c1.15882,-0.83914 -4.06839,-4.10333 -4.06839,-4.10333c0,0 9.96081,0.58104 11.14245,0.06515c1.86463,-0.81407 -1.26179,-7.8167 -1.26179,-7.8167c0,0 4.08983,2.88741 8.56439,4.07971c3.50649,0.93435 7.34572,0.24889 8.99401,0.18203c1.13501,-0.02431 10.07472,-9.25717 10.07472,-9.25717c0,0 -3.70078,9.34907 -2.25545,9.46181c42.74812,3.33458 39.84306,42.76838 42.55745,50.49213c0.13153,0.37427 9.73964,15.15047 9.73964,15.15047c0,0 -3.45622,-2.38403 -5.57433,-2.01129c-1.39726,0.24588 -1.83567,3.00936 -1.65501,3.75988c2.81234,11.68376 -0.74695,28.2379 -0.74695,28.2379c0,0 -1.0793,-4.55048 -1.8149,-6.39934c-0.77685,-1.95253 -2.72923,-5.0218 -2.72923,-5.0218l-0.78239,4.52632c0,0 1.17689,7.93417 1.76318,11.88676c0.58344,3.93336 1.74607,11.77137 1.74607,11.77137l-6.18647,-5.26911c0,0 -0.78098,1.38612 -1.20092,2.02435c-3.05075,4.63661 -6.92223,7.31131 -6.92223,7.31131l1.24887,-10.56127l-8.66837,9.84279l-1.24576,-6.21238c0,0 -4.6316,12.55549 -24.35595,12.38072c-18.60149,-0.30496 -25.42429,-11.54949 -25.42429,-11.54949l-0.83145,5.55658l-8.47639,-8.39545l-0.81656,10.23788c0,0 -8.4525,-13.42667 -9.06379,-15.22111c-0.23951,-0.7031 -1.44307,-4.34097 -1.44307,-4.34097l-5.22187,7.49109c0,0 1.29825,-6.57019 2.05002,-11.44055c0.67512,-4.37375 2.25543,-16.11895 2.25543,-16.11895c0,0 -1.45101,1.3616 -2.39352,1.66447c-1.36,0.43706 -4.98367,0.70628 -4.98367,0.70628c0,0 2.67105,-3.47069 4.41608,-8.21535c0.3061,-0.83227 0.8134,-2.60255 0.8134,-2.60255l-8.44752,3.06382c0,0 5.73973,-6.69636 8.75752,-12.93619c2.39632,-4.95481 2.21428,-9.74493 2.22046,-9.78857z" fill="#000000" stroke="none" stroke-width="1.5" stroke-linecap="butt"/><path d="M207.94096,76.28344c-0.6427,-8.37343 0.37309,-19.69523 0.37309,-19.69523c0,0 1.59253,4.22264 2.50101,5.53767c0.59911,0.86722 -0.03073,2.73274 -0.03073,2.73274c0,0 2.33242,-1.62218 4.51846,-4.61494c2.36085,-3.23207 6.72866,-6.72363 8.50756,-7.2654c2.32238,-0.70728 3.17131,3.45634 3.17131,3.45634c0,0 5.51121,-5.71367 8.6626,-8.00761c3.40037,-2.47518 11.04956,-6.3411 11.04956,-6.3411c0,0 -2.40564,3.4501 -3.79527,5.12074c-1.47733,1.77608 -3.70443,25.90477 -3.70443,25.90477c0,0 11.5134,-20.28436 19.12747,-23.79952c0.65582,-0.567 4.22311,-1.58443 6.8441,-0.57167c2.87604,1.11131 4.79449,4.29228 4.79449,4.29228c0,0 0.40471,15.32654 0.05768,21.70765c-0.46957,6.50888 -2.8213,10.90669 -3.50849,14.37494c-0.6872,3.46825 -0.45617,7.04551 -2.45706,18.41534c-1.24869,7.09556 -4.63502,10.24649 -11.1586,16.83222c-6.52358,6.58574 -10.08316,10.62317 -14.4932,10.70237c-4.24404,0.07622 -9.95161,-5.85559 -15.51983,-11.92018c-5.92925,-6.45782 -9.88394,-9.73267 -10.82013,-17.3821c-0.33058,-2.70109 -3.06491,1.13777 -3.83982,-0.92472c-1.71667,-4.56911 2.82386,-12.85511 2.58951,-16.58207c-0.28175,-4.48076 -2.51828,-7.39961 -2.86928,-11.9725z" fill="#ffffff" stroke="#000000" stroke-width="1.5" stroke-linecap="butt"/><g stroke="none" stroke-linecap="butt"><g><path d="M265.91302,109.09166c0,0 -3.92109,39.26736 -9.03721,48.95488c-2.57042,4.86717 -15.33402,3.4018 -20.11892,3.93425c-7.77937,0.86569 -14.04885,-0.29471 -16.80045,-5.18647c-5.53914,-9.84743 -8.15658,-47.73052 -8.15658,-47.73052c0,0 13.39473,-5.03535 18.64765,-5.01678c3.41999,0.01209 8.53568,4.8954 8.53568,4.8954c0,0 7.19424,-5.9902 9.36688,-5.56861c8.88214,1.72348 17.56296,5.71786 17.56296,5.71786z" fill="#000000" stroke-width="0"/><path d="M254.29192,107.59737c7.59123,2.66826 6.81484,3.26918 -5.77239,4.68742l-11.2677,1.34518l2.29076,-2.00776c0,-2.29379 7.37436,-6.62098 14.74933,-4.02484z" data-paper-data="{&quot;noHover&quot;:false,&quot;origItem&quot;:[&quot;Path&quot;,{&quot;applyMatrix&quot;:true,&quot;segments&quot;:[[[87.72283,305.82038],[0,-1.39308],[0,0]],[87.72283,306.59686],[[89.46501,306.42178],[0,0],[4.54688,-0.44914]],[[91.38689,305.05152],[2.74218,0.845],[-2.66406,-0.82216]]],&quot;closed&quot;:true,&quot;fillColor&quot;:[0,0,0,1]}]}" fill="#ec0000" stroke-width="0.5"/><path d="M221.7015,107.75385c6.66125,-2.59614 9.51269,-1.49162 12.75683,0.47949c1.70856,1.00957 7.02544,3.0174 7.02544,4.05106c0,1.87498 -5.22829,1.11186 -15.32834,-0.23426l-9.86565,-2.05336l5.41165,-2.24292z" data-paper-data="{&quot;noHover&quot;:false,&quot;origItem&quot;:[&quot;Path&quot;,{&quot;applyMatrix&quot;:true,&quot;segments&quot;:[[81.36343,304.9982],[79.41031,305.67572],[[81.98063,305.9726],[0,0],[3.64844,0.4263]],[[86.05875,305.77468],[0,0.59378],[0,-0.32734]],[[85.10563,304.77744],[0.61718,0.31972],[-1.17188,-0.62422]],[[81.36345,304.9982],[2.40624,-0.82216],[0,0]]],&quot;closed&quot;:true,&quot;fillColor&quot;:[0,0,0,1]}]}" fill="#ec0000" stroke-width="0.5"/><path d="M229.28464,115.18591c1.98971,0.31249 8.07581,0.55184 12.87713,0.55184c8.1103,0 14.7768,-3.16824 13.11149,-2.06247c-0.38753,0.25421 -1.1103,1.4883 -2.66103,2.10751c-0.28098,0.1122 -1.25858,1.12677 -1.78744,2.44561c-0.62261,1.55264 -0.78253,3.43616 -0.78253,3.43616c0,0 -0.80551,-2.09813 -1.39442,-2.77121c-0.56323,-0.64373 -2.06544,-1.18316 -2.06544,-1.18316c0,0 -6.88035,1.5765 -9.18222,1.5765c-1.7945,0 -5.80978,-0.89216 -5.80978,-0.89216c0,0 -2.36889,0.3528 -3.17149,0.8837c-0.62138,0.41103 -1.24112,2.03514 -1.24112,2.03514c0,0 0.04462,-1.57852 -0.8932,-3.30176c-0.62036,-1.13992 -2.25075,-2.60783 -2.52837,-2.77505c-1.11984,-0.67451 -2.82789,-2.09031 -2.82789,-2.09031l8.9058,2.1161z" data-paper-data="{&quot;noHover&quot;:false,&quot;origItem&quot;:[&quot;Path&quot;,{&quot;applyMatrix&quot;:true,&quot;segments&quot;:[[83.43363,306.96974],[82.12895,306.77182],[[83.19927,307.34276],[0,0],[0.92968,0.47198]],[[87.01177,307.89086],[-2.35938,0],[2,0]],[[90.38677,307.51784],[-0.47656,0.27406],[0.60156,-0.35018]],[[87.88677,307.14482],[2.92968,0],[-1.73438,0]],[[83.43365,306.96974],[0.71874,0.09896],[0,0]]],&quot;closed&quot;:true,&quot;fillColor&quot;:[0,0,0,1]}]}" fill="#ffffff" stroke-width="0.5"/><path d="M228.52837,144.41587c0.16195,0.05454 2.18621,-3.76509 2.18621,-3.76509c0,0 -0.34375,1.20054 -0.14116,2.54416c0.23071,1.53008 1.03874,3.2457 1.54881,3.58527c1.32823,0.88422 2.69453,1.72653 3.49106,1.94248c2.24145,0.59006 6.08624,-1.19323 9.22454,-2.81441c0.38608,-0.19944 1.17013,-1.3581 1.43141,-2.58782c0.32908,-1.54873 0.0881,-3.21019 0.0881,-3.21019c0,0 1.80477,4.06518 2.17759,3.89201c2.50883,-1.17782 0.20063,4.25783 -2.41632,5.50784c-1.79509,0.93745 -5.97417,1.63253 -10.4727,1.39217c-5.40687,-0.24036 -6.15362,-2.36543 -7.47289,-4.02406c-1.38416,-1.65863 -1.44562,-3.04418 -0.19123,-2.5634z" data-paper-data="{&quot;noHover&quot;:false,&quot;origItem&quot;:[&quot;Path&quot;,{&quot;applyMatrix&quot;:true,&quot;segments&quot;:[[[83.55863,311.35458],[0,0],[-0.45312,-0.15226]],[[83.62895,311.78088],[-0.5,-0.52526],[0.47656,0.52526]],[[86.36333,312.45078],[-1.95312,-0.07612],[1.625,0.07612]],[[89.46489,312.1539],[-0.64844,0.29688],[0.94532,-0.39586]],[[89.81645,311.47638],[0.90626,-0.373],[-1.04688,0.4263]],[[85.22271,311.75804],[1.1875,0.27406],[-0.64062,-0.15226]],[[83.55865,311.35458],[0.25782,0.07612],[0,0]]],&quot;closed&quot;:true,&quot;fillColor&quot;:[0,0,0,1]}]}" fill="#ffffff" stroke-width="0.5"/><path d="M215.13706,112.85293c-0.51906,-1.87498 1.40014,-0.98884 3.58451,1.29481c1.38416,1.49038 2.94511,20.77986 4.39416,25.58747c2.76832,9.27874 3.43723,11.72523 11.35292,12.13389c17.17232,0.55292 15.51743,-2.39037 17.83158,-11.28449c0.80027,-2.90863 4.34457,-22.84112 4.9501,-24.019c1.12465,-2.28358 5.34239,-5.82681 5.34239,-4.50476c0,0.40867 -3.02695,21.2904 -3.74068,26.00188c-1.38416,9.37492 -2.91893,16.5792 -5.68725,19.03109c-3.50364,2.98075 -19.97387,3.48696 -27.95445,0.89083c-3.28738,-1.10577 -3.67387,-1.51729 -5.12292,-5.38744c-0.8651,-2.28358 -2.20389,-8.29309 -2.98251,-13.17283c-0.73533,-4.87972 -1.7083,-25.92237 -1.96786,-26.57141z" data-paper-data="{&quot;noHover&quot;:false,&quot;origItem&quot;:[&quot;Path&quot;,{&quot;applyMatrix&quot;:true,&quot;segments&quot;:[[[78.98051,306.64252],[0,0],[0.09376,0.20554]],[[79.62895,309.80934],[-0.26562,-1.54534],[0.28126,1.54534]],[[80.69927,313.9201],[-0.3125,-0.72318],[0.52344,1.22562]],[[82.52739,315.59486],[-1.1875,-0.35018],[2.88282,0.82216]],[[91.51177,315.3208],[-1.26562,0.94396],[1,-0.77648]],[[93.91803,309.38302],[-0.5,2.9689],[0.25782,-1.49206]],[[94.38679,306.46742],[0,0.12942],[0,-0.41868]],[[92.62897,307.792],[0.40626,-0.72318],[-0.21874,0.37302]],[[91.74615,310.13666],[0.28908,-0.92112],[-0.83594,2.81664]],[[85.83989,313.22734],[4.26564,0.1751],[-2.85938,-0.12942]],[[81.60551,309.8626],[1,2.93844],[-0.52344,-1.5225]],[[80.10551,306.947],[0.5,0.47198],[-0.78906,-0.7232]],[[78.98051,306.6425],[-0.1875,-0.59378],[0,0]]],&quot;closed&quot;:true,&quot;fillColor&quot;:[0,0,0,1]}]}" fill="#970000" stroke-width="0.5"/></g><path d="M241.66656,153.27755v-12.24835h3.83118v11.24439c0,0 -1.66369,3.71467 -2.35765,3.71467c-0.54862,0 -1.47353,-2.7107 -1.47353,-2.7107z" fill="#000000" stroke-width="0"/><path d="M248.00273,159.85408c0,0 -1.6977,1.00847 -3.61015,1.00847c-1.91245,0 -3.7575,-0.8404 -3.7575,-0.8404c0,0 1.84505,-2.85734 3.7575,-2.85734c1.91245,0 3.61015,2.68927 3.61015,2.68927z" fill="#000000" stroke-width="0"/></g><path d="M262.45978,58.75272c0,0 1.54758,1.30452 4.25662,4.04069c2.4744,2.49919 4.28172,5.27028 4.28172,5.27028l-0.12828,2.19256c0,0 -6.89321,-9.10421 -15.54432,-11.71065c-6.91723,-2.08401 -11.52865,0.24415 -11.52865,0.24415l1.25594,-7.4675c0,0 3.8562,-1.54948 8.99401,0.46032c5.32017,2.08116 8.53144,4.95717 8.53144,4.95717z" data-paper-data="{&quot;index&quot;:null}" fill="#000000" stroke="none" stroke-width="1.5" stroke-linecap="butt"/><path d="M209.83385,87.906c0,0 -2.36903,2.54805 -3.89895,1.23371c-0.41268,-0.35453 0.26837,-4.00637 -0.16501,-4.4477c-0.82171,-0.83677 -1.64603,-1.8262 -2.34178,-2.95549c-0.69775,-1.13256 -1.26618,-2.40577 -1.57296,-3.8068c-1.44375,-6.59341 -0.51361,-11.50236 1.64841,-11.79988c2.16204,-0.29753 3.01055,2.72896 4.157,9.59325c1.14644,6.86428 2.1733,12.1829 2.1733,12.1829z" data-paper-data="{&quot;index&quot;:null}" fill="#ffffff" stroke="#000000" stroke-width="1" stroke-linecap="butt"/><path d="M209.60823,83.37377c0,0 -1.23919,1.91535 -2.16712,1.15519c-0.45012,-0.36874 -0.40119,-3.12294 -0.91703,-3.66998c-1.49944,-1.59012 -3.06592,-3.93275 -3.47506,-7.02342c-0.46863,-3.53993 4.15206,-2.78189 4.15206,-2.78189" fill="none" stroke="#000000" stroke-width="0.25" stroke-linecap="round"/><path d="M243.09673,78.93452c0.22667,-7.37884 4.95889,-13.3721 10.88136,-13.3721c5.92245,0 10.32902,5.98689 10.32902,13.3721c0,7.38522 -4.32766,13.69299 -10.80246,13.79993c-6.15871,0.10173 -10.64463,-6.09385 -10.40791,-13.79993z" fill="#000000" stroke="#000000" stroke-width="3.5" stroke-linecap="butt"/><path d="M249.71797,75.03143c0,-3.16078 3.85285,-9.06967 3.85285,-9.06967c0,0 3.85284,5.90889 3.85284,9.06967c0,3.16078 -3.85284,8.67595 -3.85284,8.67595c0,0 -3.85285,-5.51518 -3.85285,-8.67595z" fill="#ff0000" stroke="#720000" stroke-width="2" stroke-linecap="butt"/><path d="M216.78878,59.04955c0,0 3.51281,-3.40841 8.6201,-4.91876c5.65951,-1.67368 11.74869,7.7408 11.74869,7.7408l-1.96139,3.26777c0,0 -4.69965,-6.4316 -9.31138,-5.47573c-6.16762,1.27833 -7.18554,3.35946 -11.83946,4.79346c-3.98773,1.22874 -7.44057,1.38661 -7.44057,1.38661l-0.17633,-1.91767c0,0 3.98952,-0.49219 5.78668,-0.99129c1.48331,-0.41195 4.28951,-2.13602 4.28951,-2.13602z" fill="#000000" stroke="none" stroke-width="1.5" stroke-linecap="butt"/><path d="M270.23315,75.7231c1.14644,-6.86428 1.99497,-9.89077 4.157,-9.59325c2.16204,0.29752 4.20586,4.55039 2.76211,11.1438c-1.37215,6.26634 -9.09241,10.63235 -9.09241,10.63235c0,0 1.02686,-5.31862 2.1733,-12.1829z" data-paper-data="{&quot;index&quot;:null}" fill="#ffffff" stroke="#000000" stroke-width="1" stroke-linecap="butt"/><path d="M270.69263,71.05366c0,0 4.9389,-1.25011 4.47026,2.28984c-0.84007,6.34587 -6.87741,10.03026 -6.87741,10.03026" data-paper-data="{&quot;index&quot;:null}" fill="none" stroke="#000000" stroke-width="0.25" stroke-linecap="round"/><path d="M238.71479,110.06898c-1.1513,0 -3.94037,-3.74332 -4.21724,-6.15812c-0.24772,-2.16059 1.46465,-4.39496 4.21724,-4.39496c2.7526,0 4.67987,0.56345 4.48819,4.80889c-0.16267,3.60298 -1.73559,5.74419 -4.48819,5.74419z" fill="#ffffff" stroke="#000000" stroke-width="1.15" stroke-linecap="butt"/><path d="M242.72645,75.51808c0,0 0.11427,4.55772 0.00642,8.18214c-0.21354,7.17698 -1.20443,31.87234 -1.20443,31.87234l-3.32068,0.00992c0,0 -0.89423,-4.79076 -1.25093,-10.90681c-0.48282,-8.27859 -0.5006,-18.7064 -0.85024,-22.54002c-0.33141,-3.63392 -0.99779,-6.56091 -0.99779,-6.56091" fill="#ffffff" stroke="#000000" stroke-width="1.3" stroke-linecap="round"/><path d="M236.25546,19.77668l33.28024,-32.40511l0.03502,41.54929c0,0 -7.79334,1.64848 -17.89504,-1.81055c-10.86261,-3.71957 -15.42022,-7.33363 -15.42022,-7.33363z" fill="#970000" stroke="none" stroke-width="0" stroke-linecap="butt"/><path d="M236.49056,19.96284l32.86643,-32.52977c0,0 -15.95738,19.44535 -19.45064,25.61532c-2.04345,3.60924 -0.47216,13.42042 -0.47216,13.42042c0,0 -4.88629,-2.07333 -7.14357,-3.20791c-2.03397,-1.02234 -5.80007,-3.29804 -5.80007,-3.29804z" fill="#ec0000" stroke="none" stroke-width="0" stroke-linecap="butt"/><path d="M274.08827,-9.82678c0,3.44216 -2.77802,6.23259 -6.20489,6.23259c-3.42687,0 -6.20489,-2.79044 -6.20489,-6.23259c0,-3.44216 2.77803,-6.23259 6.20489,-6.23259c3.42687,0 6.20489,2.79044 6.20489,6.23259z" fill="#ffffff" stroke="#000000" stroke-width="0" stroke-linecap="butt"/><path d="M268.99707,14.32454c-0.54507,0 -0.73445,-0.36666 -0.80025,-0.62146c-1.02323,-0.93237 -1.99466,-0.80128 -3.42948,-0.5585c-2.86533,1.20322 -7.03403,3.261 -9.95052,0.84642c-1.20093,-0.99425 -1.08067,-2.73656 -2.11219,-3.80835c-0.56199,-0.58392 -3.31212,0.13855 -3.81564,0.19962c0,0 -0.24984,0.03031 -0.49144,-0.08371l-0.67536,0.55698c0,0 -0.65224,0.53791 -1.17403,-0.13448c-0.52179,-0.67239 0.13045,-1.21032 0.13045,-1.21032l0.7955,-0.65606c0,0 0.47129,-0.38869 0.93313,-0.09227c0.15337,-0.07438 0.28656,-0.09053 0.28656,-0.09053c1.44984,-0.17583 3.80042,-0.89864 5.09395,0.19962c1.06516,0.90437 0.98621,2.95379 2.0244,3.73638c2.53989,1.91455 6.08606,-0.13904 8.50503,-1.12177c2.12805,-0.36962 3.67383,-0.42112 5.27049,1.20445l0.24464,0.77289c0,0 0,0.86108 -0.83527,0.86108z" fill="#ffffff" stroke="none" stroke-width="0.5" stroke-linecap="butt"/><path d="M267.6208,15.74019c0.62054,0.13322 0.62055,0.83955 0.62055,0.83955l-0.00125,0.02583c0.07262,0.27224 0.06698,0.57914 -0.04413,0.91156l-0.01821,0.37622c-0.09809,0.09753 -0.20382,0.18577 -0.31544,0.26491c-0.52093,0.7144 -1.27488,0.81466 -1.87822,0.5327c-1.36085,-0.05914 -2.42689,-1.03137 -1.12313,-2.66952c0.69729,-0.87613 1.97684,-0.84906 2.75983,-0.28125z" fill="#000000" stroke="none" stroke-width="0.5" stroke-linecap="butt"/><path d="M248.67938,14.15795c-0.0297,0.00258 -0.04704,0.00257 -0.04704,0.00257l-1.09374,-0.54127c-0.10348,-0.49303 -0.5477,-1.03794 -0.31041,-1.47908c0.37715,-0.7011 2.72278,-1.55292 3.11648,-0.0231c0.19081,0.74148 -0.07462,1.92941 -0.78615,2.15399c-0.27664,0.08731 -0.58763,0.03128 -0.87915,-0.1131z" fill="#000000" stroke="none" stroke-width="0.5" stroke-linecap="butt"/><path d="M273.1508,-8.444c0,1.9998 -2.77193,4.23918 -4.7118,4.23918c-1.93986,0 -3.76943,-1.0598 -3.76943,-1.0598c0,0 4.04207,-0.27544 5.56318,-1.38421c1.25409,-0.91413 2.91806,-4.79793 2.91806,-4.79793c0,0 0,1.00296 0,3.00275z" fill="#c3c3c3" stroke="none" stroke-width="0" stroke-linecap="butt"/><path d="M253.40287,5.91303c-0.60593,0.53819 -1.2375,1.03135 -1.93773,1.39827c0,0 -0.49806,0.25671 -0.74709,-0.25673c-0.24902,-0.51345 0.24902,-0.77018 0.24902,-0.77018c0.07113,-0.03595 0.14172,-0.07333 0.21182,-0.11207c-0.01695,-0.03326 -0.03227,-0.07028 -0.04558,-0.11144c-0.17609,-0.54459 0.35219,-0.72614 0.35219,-0.72614l0.66822,-0.22962c0.27895,-0.09567 0.55972,-0.18112 0.84092,-0.2641c0.53819,-0.47558 1.06034,-0.9902 1.58561,-1.48948c-0.42522,-0.6357 -0.59375,-1.24321 -0.25204,-1.71143c0.253,-0.34667 1.46043,-0.42644 2.7366,-0.31322c0.45896,-0.31611 0.94256,-0.62849 1.00354,-0.58663c0.23383,0.1605 0.38955,0.44783 0.49411,0.80825c1.03302,0.22105 1.85314,0.5652 1.88248,0.98423c0.04837,0.691 -0.68503,1.24429 -1.65236,1.68423c0.01016,0.54962 0.02665,1.04032 0.104,1.36339l-0.01829,0.06934h0.02236v0.68887c0,0.31704 -0.24932,0.57406 -0.55685,0.57406c-0.15377,0 -0.29298,-0.06426 -0.39374,-0.16813l-0.78751,-0.81184l0.03543,-0.03652c-0.31501,-0.2414 -0.65405,-0.51345 -0.98754,-0.80316c-0.63669,0.17473 -1.17949,0.30998 -1.47711,0.41246c-0.44077,0.15119 -0.88606,0.2768 -1.33041,0.40756zM256.40244,3.57804c0.33028,-0.13466 0.67054,-0.26903 0.99805,-0.3897c-0.00329,-0.17516 0.00178,-0.34438 0.01763,-0.50251c-0.16344,-0.0022 -0.33335,-0.00097 -0.50407,-0.00142c-0.23097,0.23087 -0.46931,0.4628 -0.66893,0.64452c0.06397,0.08459 0.11571,0.16343 0.14875,0.23162c0.00284,0.00587 0.0057,0.01169 0.00857,0.01749zM257.6127,4.9107c-0.01433,-0.07256 -0.02858,-0.14732 -0.04252,-0.22381c-0.04501,0.01495 -0.09007,0.0297 -0.1351,0.0443c0.06064,0.05781 0.12015,0.11724 0.17763,0.17951zM255.39566,2.43591c0.02891,0.02646 0.05961,0.05487 0.09165,0.08492c0.0089,-0.00773 0.01782,-0.01543 0.02673,-0.02313c-0.04129,-0.01867 -0.08081,-0.03921 -0.11837,-0.06179z" fill="#000000" stroke="none" stroke-width="0.5" stroke-linecap="butt"/><path d="M255.6709,5.76454c0.55685,0 0.55685,0.57406 0.55685,0.57406v0.68887c-0.00025,0.04362 -0.00186,0.08706 -0.00477,0.13034c0.01762,0.15267 -0.02381,0.28081 -0.02381,0.28081c-0.01157,0.03444 -0.02315,0.06888 -0.03471,0.10333c-0.02206,0.09446 -0.04929,0.18805 -0.08074,0.28077l0.12742,0.03284l-0.21992,0.90683c-0.05628,0.25564 -0.27804,0.44648 -0.54305,0.44648c-0.30753,0 -0.55685,-0.25702 -0.55685,-0.57406v-0.68887h0.03998l-0.0328,-0.09195c0.07377,-0.23523 0.14754,-0.47048 0.22131,-0.70571c-0.00357,-0.04046 -0.0055,-0.08079 -0.00577,-0.12083v-0.68887c0,0 0,-0.57406 0.55685,-0.57406z" fill="#000000" stroke="none" stroke-width="0.5" stroke-linecap="butt"/><path d="M257.78692,9.44693c0.0344,-0.00548 0.07145,-0.00843 0.11137,-0.00843c0.33156,0 0.46569,0.20351 0.51996,0.36818c0.02383,0.06391 0.03689,0.13332 0.03689,0.20586c0,0.02814 -0.00197,0.05581 -0.00577,0.08287l-0.02282,0.32829l-0.21867,0.67631c-0.06999,0.23457 -0.28183,0.40509 -0.53232,0.40509c-0.30753,0 -0.55685,-0.25702 -0.55685,-0.57406v-0.91848c0,0 0,-0.57406 0.55685,-0.57406c0.03992,0 0.07697,0.00295 0.11137,0.00843z" fill="#000000" stroke="none" stroke-width="0.5" stroke-linecap="butt"/><path d="M263.4445,86.36569c0,3.43462 -3.31291,15.59516 -9.00238,15.59516c-5.68947,0 -11.04417,-11.39513 -11.04417,-14.82976c0,-3.43462 5.54031,0.28703 11.22977,0.28703c5.68947,0 8.81677,-4.48705 8.81677,-1.05243z" fill="url(#color-1)" stroke="none" stroke-width="0" stroke-linecap="butt"/><path d="M200.74336,98.91564v-56.58541h32.61541l2.0683,35.09936l-5.57698,21.63831c0,0 -4.39165,-0.49922 -6.39768,0.46073c-2.1932,1.04951 -6.25012,5.59163 -6.25012,5.59163c0,0 -3.8606,-3.91927 -6.62809,-4.96255c-2.71793,-1.02458 -9.83085,-1.24207 -9.83085,-1.24207z" fill="#000000" stroke="none" stroke-width="0" stroke-linecap="butt"/><path d="M230.77147,77.45048c-2.53991,9.6203 -16.95303,16.62908 -16.95303,16.62908c0,0 -8.89375,-9.19716 -6.35384,-18.81746c2.53991,-9.6203 15.55166,-16.02073 15.55166,-16.02073c0,0 10.29512,8.58881 7.75521,18.20911z" fill="#ffffff" stroke="#ffffff" stroke-width="1.4" stroke-linecap="butt"/><path d="M232.104,71.77881c0,5.61616 -5.83342,10.16897 -13.02932,10.16897c-7.1959,0 -13.02932,-4.55281 -13.02932,-10.16897c0,-5.61616 5.83342,-10.16897 13.02932,-10.16897c7.1959,0 13.02932,4.55281 13.02932,10.16897z" fill="url(#color-2)" stroke="#000000" stroke-width="1" stroke-linecap="butt"/><path d="M226.24765,97.56492c0.30962,0.2503 0.30962,0.69464 0.30962,0.69464l-0.00499,1.07805c-0.24066,1.13071 -1.22888,9.67996 -3.81541,5.68086c-0.24348,-0.37644 0.45761,-2.01919 0.5835,-2.53806c0.45093,-1.85856 1.44147,-4.16143 1.40727,-6.02503c0,0 0,-0.86108 0.83527,-0.86108c0.83527,0 0.83527,0.86108 0.83527,0.86108c-0.00292,0.22194 -0.05878,0.61547 -0.15052,1.10953z" fill="#000000" stroke="none" stroke-width="0.5" stroke-linecap="butt"/><path d="M217.45191,99.79145c0,0 0.26414,-0.81689 1.05655,-0.54459c0.37716,0.1296 0.51496,0.38257 0.55583,0.61212c0.81082,0.01665 0.81082,0.86083 0.81082,0.86083l-0.04287,0.76434c-0.7566,2.33455 -1.42262,4.42515 -2.82867,6.10575l0.28396,0.25092l-0.95107,1.14386c-0.15321,0.18653 -0.38206,0.30495 -0.63773,0.30495c-0.4613,0 -0.83527,-0.38553 -0.83527,-0.86108c0,-0.11996 0.02379,-0.23418 0.06678,-0.33793l0.28646,-0.73828c0.42947,-2.48795 1.44673,-5.12115 2.23522,-7.56089z" fill="#000000" stroke="none" stroke-width="0.5" stroke-linecap="butt"/><path d="M212.74868,97.58084c0.16541,-0.05579 0.37171,-0.05486 0.6189,0.07256c0.74709,0.38509 0.37355,1.15526 0.37355,1.15526l-0.07602,0.03804c-0.26127,2.42257 -0.50506,4.93599 -1.12417,7.28713c-0.31872,1.21041 -0.52345,3.0616 -2.53162,1.87908c-1.65727,-0.97589 -0.65368,-1.99872 -0.36513,-3.09718c0.69864,-2.65942 0.93326,-5.48938 1.58492,-8.17714c0,0 0.20258,-0.83537 1.01291,-0.62653c0.81033,0.20884 0.60775,1.04421 0.60775,1.04421c-0.03432,0.14145 -0.06799,0.28297 -0.1011,0.42456z" fill="#000000" stroke="none" stroke-width="0.5" stroke-linecap="butt"/><path d="M231.75503,81.5206c-1.5,0 -1.5,-1.5 -1.5,-1.5v-1.4c0,-5.41058 -0.11136,-9.96433 -2.27872,-15.00912c0,0 -0.59088,-1.37872 0.78784,-1.9696c1.37872,-0.59088 1.9696,0.78784 1.9696,0.78784c1.92114,4.4928 2.39048,8.69659 2.49422,13.31671c0.14053,0.20872 0.16545,0.43996 0.16545,0.43996c0.13847,1.28564 0.35015,2.55353 0.6068,3.81065l0.1209,-0.8725c0.05207,-0.42399 0.4032,-0.75184 0.82861,-0.75184c0.41925,0 0.76636,0.31843 0.82617,0.73348l0.15408,0.95305c0.91902,4.25957 1.76477,8.58901 1.76404,12.95805c-0.00025,1.43418 0.30912,3.12932 -0.03722,4.50605c0.02388,0.48471 0.03588,0.97238 0.03455,1.46335l-0.04032,0.06508l0.0318,0.00547l-0.15685,0.97013c-0.0598,0.41505 -0.40692,0.73348 -0.82617,0.73348c-0.4613,0 -0.83527,-0.38553 -0.83527,-0.86108c0,-0.0275 0.00125,-0.0547 0.00369,-0.08154l0.13792,-1.70619l0.0082,0.0007c-0.10833,-3.62823 -0.91926,-7.08744 -1.8203,-10.52309c0,3.14661 0,6.29321 0,9.43981c0,1.266 0.51374,6.85431 -1.91231,6.67434c-1.65415,-0.12271 -0.97511,-4.20744 -0.86458,-5.06626c0.60434,-4.69533 -0.66659,-11.60768 1.46214,-16.04257l-0.26763,-0.13795l0.16369,-0.33749c-0.06443,-0.2698 -0.12742,-0.53993 -0.18869,-0.81046c-0.2067,0.12785 -0.47732,0.21154 -0.83164,0.21154zM234.09822,80.46638c0.01333,-0.05979 0.0279,-0.11969 0.04384,-0.18005l-0.08452,-0.01244c0.01345,0.06419 0.02701,0.12836 0.04068,0.19251zM235.25028,85.03736c-0.01026,0.007 -0.0207,0.01376 -0.03128,0.02028c0.03954,0.15018 0.07918,0.30035 0.11887,0.4505c-0.02876,-0.15699 -0.05798,-0.31394 -0.08759,-0.47078z" fill="#000000" stroke="none" stroke-width="0.5" stroke-linecap="butt"/><path d="M224.5764,71.25078c0,2.08342 -2.42589,3.77236 -5.41839,3.77236c-2.9925,0 -5.41839,-1.68894 -5.41839,-3.77236c0,-2.08342 2.42589,-3.77237 5.41839,-3.77237c2.9925,0 5.41839,1.68895 5.41839,3.77237z" fill="#000000" stroke="none" stroke-width="0" stroke-linecap="butt"/><path d="M207.10168,89.13652c0,0 -0.92898,-5.64296 -0.33411,-13.43288c0.18507,-2.42341 6.57081,-13.20327 6.57081,-13.20327" fill="none" stroke="#000000" stroke-width="2" stroke-linecap="round"/><path d="M206.22881,80.72569l2.67287,-11.02186" fill="none" stroke="#000000" stroke-width="2" stroke-linecap="round"/><path d="M229.44795,87.68094l3.00699,-16.07354" fill="none" stroke="#000000" stroke-width="2" stroke-linecap="round"/><path d="M253.42122,91.24516l-1.29931,7.65407l-0.92808,-9.75894" fill="none" stroke="#000000" stroke-width="1.5" stroke-linecap="round"/><path d="M259.17533,89.33165l-1.1137,13.96867l-0.74247,-12.82057" fill="none" stroke="#000000" stroke-width="1.5" stroke-linecap="round"/><path d="M244.51165,85.69596l0.37123,15.49948l-2.04178,-17.413" fill="none" stroke="#000000" stroke-width="1.5" stroke-linecap="round"/><path d="M249.70891,89.71436v9.18488l-1.48493,-7.65407l-0.74247,9.56758l-0.92808,-12.05515" fill="none" stroke="#000000" stroke-width="1.5" stroke-linecap="round"/><path d="M261.58835,86.65273l-2.78424,19.90056l1.48493,-19.51787" fill="none" stroke="#000000" stroke-width="1.5" stroke-linecap="round"/><path d="M254.90616,91.71312l-0.74247,9.95029l-0.74247,-11.86379" fill="none" stroke="#000000" stroke-width="1.5" stroke-linecap="round"/><path d="M276.20217,51.85019c0,2.61568 -4.52314,16.36157 -7.14333,16.58534c-2.23028,0.19047 -2.3862,-13.06694 -4.66968,-12.1243c-2.07138,0.85509 -0.97122,7.96329 -3.45277,7.96329c-1.97902,0 -1.91588,-8.25935 -2.81558,-6.50728c-6.43225,12.52618 -4.37964,0.07435 -5.82832,-1.08652c-1.62778,-1.3044 -3.81928,4.12368 -5.18319,3.47103c-0.99245,-0.4749 -1.43868,-6.84184 -1.43868,-8.30155c0,-6.86176 6.83472,-12.42432 15.26577,-12.42432c8.43105,0 15.26577,5.56256 15.26577,12.42432z" fill="#000000" stroke="#000000" stroke-width="1" stroke-linecap="butt"/><path d="M271.11286,52.35498c0,0 -1.13467,-0.89931 -2.58743,-0.27796c-2.38137,1.01852 -5.96545,3.61166 -9.38544,2.34701c-2.56441,-0.94826 -3.84944,-4.76265 -5.15186,-6.74988c-1.49418,-2.27981 -2.81561,-2.6927 -2.81561,-2.6927c0,0 1.23102,0.36354 3.32742,-0.38765c2.35023,-0.84215 5.7351,-2.75759 8.64546,-1.68141c3.22456,1.19237 4.57962,4.86441 5.83284,7.17422c0.88682,1.63451 2.13463,2.26836 2.13463,2.26836z" fill="#ffffff" stroke="#ffffff" stroke-width="1.4" stroke-linecap="butt"/><path d="M266.32959,49.46439c-1.25726,2.85409 -4.46738,4.1421 -7.17001,2.87685c-2.70263,-1.26525 -3.87433,-4.60465 -2.61707,-7.45874c1.25726,-2.85409 4.46738,-4.1421 7.17001,-2.87685c2.70263,1.26525 3.87433,4.60465 2.61707,7.45874z" fill="url(#color-3)" stroke="#000000" stroke-width="1" stroke-linecap="butt"/><path d="M264.43524,47.09288c0,1.52062 -1.24774,2.75333 -2.78692,2.75333c-1.53918,0 -2.78692,-1.23271 -2.78692,-2.75333c0,-1.52062 1.24774,-2.75333 2.78692,-2.75333c1.53918,0 2.78692,1.23271 2.78692,2.75333z" fill="#000000" stroke="none" stroke-width="0" stroke-linecap="butt"/><path d="M270.26667,2.98334c0,1.97902 -0.26607,7.25 -1.41666,7.25c-0.81264,0 -4.51661,-1.46695 -4.86004,-2.6343c-0.08145,-0.27685 1.78286,0.11671 2.3975,-1.03416c0.46317,-0.86725 -0.28746,-3.33175 -0.28746,-3.58154c0,-0.19136 -2.12461,-1.8392 -2.05446,-1.95842c0.28052,-0.4768 3.17678,1.00414 3.4609,0.49005c0.37956,-0.68679 0.08249,-2.11496 0.67689,-2.11496c1.1506,0 2.08333,1.60431 2.08333,3.58334z" fill="#ff0000" stroke="none" stroke-width="0" stroke-linecap="butt"/><path d="M261.1,22.48333c0,1.41414 1.7027,12.81992 -2.65906,0.67511c-0.24691,-0.68749 -0.71083,3.24155 -1.50761,3.24155c-0.81133,0 -0.73517,-2.38464 -1.37552,-2.76169c-1.17587,-0.69239 -2.79115,0.24549 -2.79115,-1.15497c0,-1.22143 1.0948,-0.31227 2.02697,-1.03055c0.71868,-0.55378 1.1379,-2.88611 2.1397,-2.88611c2.30118,0 4.16667,1.75355 4.16667,3.91667z" fill="#ff0000" stroke="none" stroke-width="0" stroke-linecap="butt"/><path d="M269.85117,24.76611c-0.46332,0.71647 -1.15832,0.23883 -1.15832,0.23883l-0.44372,-0.30613c-1.44857,-0.89989 -2.78897,-2.00264 -4.3322,-2.7259c-1.79192,-0.83982 -4.86867,1.12088 -6.50132,1.67746c-1.69637,0.25163 -4.53612,0.71892 -5.87997,-0.72773c-1.62515,-1.74943 -1.76728,-5.04859 -3.68979,-6.44995c-1.73642,-1.26573 -5.4693,0.15744 -7.22257,0.75992c0,0 -0.79241,0.2723 -1.05655,-0.54459c-0.26414,-0.81689 0.52827,-1.08919 0.52827,-1.08919c2.3568,-0.80987 6.38332,-2.17539 8.68739,-0.55219c2.12301,1.49566 2.38985,4.68462 3.94699,6.6713c0.7108,0.90686 3.38122,0.39078 4.30241,0.25636c2.22732,-0.77294 5.0704,-2.58279 7.49944,-1.60285c1.6436,0.66307 3.07157,1.9238 4.57737,2.85063l0.51088,0.34995c0,0 0.69499,0.47763 0.23167,1.1941z" fill="#ffffff" stroke="none" stroke-width="0.5" stroke-linecap="butt"/><path d="M256.4736,20.86892c-1.05434,0.75307 -1.42501,0.35161 -1.51271,-0.32923c-0.64074,-0.12207 -0.64074,-0.84365 -0.64074,-0.84365l0.18303,-1.358c0.16892,-0.17791 0.38075,-0.33653 0.61551,-0.46801c0.19816,-0.15516 0.45825,-0.25682 0.73198,-0.29945c1.2129,-0.33165 2.50168,0.09087 1.85026,2.0602c-0.26939,0.81444 -0.73435,1.17609 -1.22734,1.23812z" fill="#000000" stroke="none" stroke-width="0.5" stroke-linecap="butt"/><path d="M190.78333,309.13335l1.41666,-47.33333l2.38766,-18.70722l0.27901,35.12388c0,0 1.78817,-7.66515 2.1997,-11.92843c0.43618,-4.51867 0.34774,-14.46203 0.34774,-14.46203l4.20533,15.70595l-1.14342,-29.47419l2.96936,11.26872l1.42129,12.47332l1,47.33333z" fill="#000000" stroke="none" stroke-width="0" stroke-linecap="butt"/><path d="M274.825,309.71666v-48.5c0,0 3.1118,33.51043 4.37318,30.80749c0.30874,-0.66159 -3.07545,-33.66052 -2.67859,-42.09538c0.2579,-5.48129 3.92942,19.66567 5.29566,22.42031c0.86939,1.75288 1.36516,-8.85557 1.54442,-10.40729c0.42411,-3.67125 2.10148,29.12228 2.50775,27.13054c1.34429,-6.59039 -0.54242,-50.35567 -0.54242,-50.35567l4.5,70z" fill="#000000" stroke="none" stroke-width="0" stroke-linecap="butt"/><path d="M247.325,244.46668c0,1.10457 -0.50368,2 -1.125,2c-0.62132,0 -1.125,-0.89543 -1.125,-2c0,-1.10457 0.50368,-2 1.125,-2c0.62132,0 1.125,0.89543 1.125,2z" fill="#ff0000" stroke="#310000" stroke-width="2" stroke-linecap="butt"/><path d="M257.325,244.34168c0,2.00203 -1.45507,3.625 -3.25,3.625c-1.79493,0 -3.25,-1.62297 -3.25,-3.625c0,-2.00203 1.45507,-3.625 3.25,-3.625c1.79493,0 3.25,1.62297 3.25,3.625z" fill="#ff0000" stroke="#310000" stroke-width="2" stroke-linecap="butt"/><path d="M252.575,266.25834c0,7.755 -2.12664,14.04167 -4.75,14.04167c-2.62336,0 -4.75,-6.28668 -4.75,-14.04167c0,-7.755 2.12664,-14.04166 4.75,-14.04166c2.62336,0 4.75,6.28667 4.75,14.04166z" fill="#ff0000" stroke="#310000" stroke-width="2" stroke-linecap="butt"/><path d="M198.15,243.91563c0,0.89747 -0.7835,1.625 -1.75,1.625c-0.9665,0 -1.75,-0.72753 -1.75,-1.625c0,-0.89747 0.7835,-1.625 1.75,-1.625c0.9665,0 1.75,0.72753 1.75,1.625z" fill="#ff0000" stroke="none" stroke-width="0" stroke-linecap="butt"/><path d="M283.14115,254.00296c0.95081,8.71581 1.05399,15.8542 0.23045,15.94404c-0.82354,0.08984 -2.26194,-6.90289 -3.21276,-15.6187c-0.95081,-8.71581 -1.05399,-15.8542 -0.23045,-15.94404c0.82354,-0.08984 2.26194,6.90289 3.21275,15.6187z" fill="#ff0000" stroke="none" stroke-width="0" stroke-linecap="butt"/><path d="M242.43615,245.91146c-4.05824,0 -8.30853,-14.45126 -11.27185,-9.69468c-4.23221,6.79334 -6.61918,33.01063 -8.72207,28.0061c-6.99114,-16.63772 -1.8473,-74.47326 17.42163,-74.47326c10.24441,0 23.84871,8.41861 23.53013,18.49082c-0.05502,1.73958 1.01613,48.31728 -3.6894,49.08479c-5.38849,0.8789 -9.63981,-44.24332 -9.60141,-40.83689c0.15108,13.4042 9.15214,50.51721 5.0836,54.76625c-2.64955,2.76709 -5.70463,-43.02448 -10.15617,-41.7922c-1.64491,0.45534 -0.6759,16.44907 -2.59444,16.44907z" fill="url(#color-4)" stroke="none" stroke-width="0" stroke-linecap="butt"/><path d="M220.73357,230.30705c0,0 10.48819,-9.64984 13.07702,-12.30944c1.34117,-1.37784 18.44821,-42.33145 18.44821,-42.33145l-1.20283,6.60876c0,0 -9.87826,32.40325 -14.4405,40.71341c-1.43223,2.60881 -8.25617,5.61963 -8.25617,5.61963z" fill="#ff0000" stroke="#310000" stroke-width="2" stroke-linecap="butt"/><path d="M226.23357,240.55705c0,0 10.82089,-9.95594 13.49184,-12.69989c1.38371,-1.42154 19.03339,-43.67423 19.03339,-43.67423l-1.24099,6.81838c0,0 -10.1916,33.43111 -14.89856,42.00487c-1.47766,2.69157 -8.51806,5.79789 -8.51806,5.79789z" fill="#ff0000" stroke="#310000" stroke-width="2" stroke-linecap="butt"/><path d="M228.73357,251.70511c0,0 10.48819,-9.64984 13.07702,-12.30943c1.34117,-1.37784 18.44821,-42.33145 18.44821,-42.33145l-1.20283,6.60875c0,0 -0.56026,24.87786 -2.82915,31.8637c-0.69526,2.14065 -2.54363,-15.0191 -3.32401,-12.69811c-2.89323,8.60495 -6.16532,17.68256 -8.28734,21.54782c-0.29393,0.53539 -2.35644,0.42026 -3.18557,4.69284c-0.98284,5.06462 -0.78746,14.6301 -1.71464,15.18546c-2.10203,1.25907 -3.35595,-14.25867 -3.35595,-14.25867z" fill="#ff0000" stroke="#310000" stroke-width="2" stroke-linecap="butt"/><path d="M208.63831,70.91013c-0.34071,1.54342 -0.67532,3.08853 -1.01899,4.63586c0,0 -0.3254,1.46428 -1.78968,1.13888c-1.46428,-0.3254 -1.13888,-1.78968 -1.13888,-1.78968c0.10931,-0.49161 0.21771,-0.98301 0.32568,-1.4742c-0.56234,-0.21642 -0.9614,-0.76181 -0.9614,-1.4004c0,-0.18288 0.03273,-0.35812 0.09265,-0.52018l0.69453,-2.02283l0.01484,0.0051l0.00084,-0.04856c0.72137,-1.74446 1.36228,-3.21229 2.10708,-4.62711c0.04431,-0.18184 0.08893,-0.36366 0.13391,-0.54547l0.03323,-0.01821l-0.02615,-0.00746l0.0685,-0.24006l-0.0531,-0.01634l0.79002,-2.56755c0.17794,-0.6298 0.7569,-1.09132 1.44365,-1.09132c0.62669,0 1.16362,0.38432 1.38796,0.93014c0.1869,-0.08363 0.39404,-0.13014 0.61204,-0.13014c0.82843,0 1.5,0.67157 1.5,1.5c0,0.1621 -0.02571,0.31819 -0.07328,0.46442l-0.58998,1.96661l-0.17339,-0.05202l-0.0733,0.18309l-0.1583,-0.06337l0.12324,0.14401c-0.16473,0.30342 -0.32205,0.59169 -0.47383,0.86648c-0.45461,1.28696 -1.24355,2.46696 -2.41839,4.30036z" fill="#000000" stroke="none" stroke-width="0.5" stroke-linecap="butt"/></g></g></svg>