<svg version="1.1" xmlns="http://www.w3.org/2000/svg" xmlns:xlink="http://www.w3.org/1999/xlink" width="36.17311" height="36.17311" viewBox="0,0,36.17311,36.17311"><g transform="translate(-221.9135,-161.9135)"><g data-paper-data="{&quot;isPaintingLayer&quot;:true}" stroke-miterlimit="10" stroke-dasharray="" stroke-dashoffset="0" style="mix-blend-mode: normal"><path d="M229.98317,162.9135h20.03378c3.9166,0 7.06966,3.15307 7.06966,7.06966v20.03379c0,3.91659 -3.15306,7.06966 -7.06966,7.06966h-20.03378c-3.91659,0 -7.06967,-3.15307 -7.06967,-7.06966v-20.03379c0,-3.91659 3.15308,-7.06966 7.06967,-7.06966z" fill="#ffffff" fill-rule="evenodd" stroke="#000000" stroke-width="2" stroke-linecap="round" stroke-linejoin="round"/><g fill="#000000" fill-rule="nonzero" stroke="#ffffff" stroke-width="0.5" stroke-linejoin="miter"><g stroke-linecap="butt"><path d="M242.09924,190.3438c-2.27157,-2.64468 -5.59337,-6.96771 -6.81162,-10.87188c-0.42277,-1.35487 4.58138,2.82315 6.73182,1.66219c1.1975,-0.26146 -0.09496,-5.5378 0.35164,-5.69903c0.999,-0.36065 2.39275,1.63268 3.31497,2.84203c0.48394,0.63461 1.00374,1.57979 1.51045,2.63823c0.02374,0.0496 -0.4697,2.36161 -1.57314,4.42552c-1.39113,2.60202 -3.46803,5.06823 -3.52411,5.00294z"/><path d="M245.09557,193.71042c-0.86724,0.29434 -3.76685,-4.39009 -4.76019,-5.57021c-0.00673,-0.008 3.84923,-1.26845 4.88837,-3.9906c1.10226,-2.88747 0.44444,-5.8959 0.46228,-5.8725c1.21714,1.5961 4.715,8.39332 4.84342,9.94423c0.15091,1.82252 -3.38088,-1.01815 -4.05783,-0.45699c-0.30437,0.20143 -0.45266,5.63267 -1.37606,5.94607z"/></g><path d="M242.96902,185.52647l-12.14553,-17.55738l3.89558,1.3597l10.24855,14.81513z" stroke-linecap="butt"/><path d="M232.46633,171.31232c-0.70451,-0.32907 -3.63066,-4.47504 -2.87762,-4.99597c0.4528,-0.31323 4.54507,1.25988 5.75608,3.01049c0.72527,1.04843 -1.89811,2.44339 -2.87846,1.98548z" data-paper-data="{&quot;index&quot;:null}" stroke-linecap="butt"/><path d="M243.17555,185.22897l-12.50724,-18.08026" stroke-linecap="round"/><path d="M243.72072,185.02365l-12.12142,-17.52252" stroke-linecap="round"/><path d="M244.20875,184.68605l-11.57483,-16.73238" stroke-linecap="round"/><path d="M244.79323,184.48789l-11.1247,-16.08168" stroke-linecap="round"/><path d="M243.09212,185.95277l-0.3758,-0.54324l2.2124,-1.53045l0.37579,0.54324z" stroke-linecap="butt"/><path d="M230.40886,167.30181c-0.09322,-0.13476 -0.05955,-0.31958 0.07521,-0.41281c0.13476,-0.09322 0.31959,-0.05955 0.41281,0.07521c0.09322,0.13476 0.05955,0.31959 -0.07521,0.41281c-0.13476,0.09322 -0.31959,0.05955 -0.41281,-0.07521z" stroke-linecap="butt"/><path d="M231.3607,167.65126c-0.09322,-0.13476 -0.05955,-0.31959 0.07521,-0.41281c0.13476,-0.09322 0.31959,-0.05955 0.41281,0.07522c0.09322,0.13476 0.05955,0.31958 -0.07521,0.41281c-0.13476,0.09322 -0.31959,0.05955 -0.41281,-0.07521z" stroke-linecap="butt"/><path d="M232.42928,168.10322c-0.09322,-0.13476 -0.05955,-0.31959 0.07522,-0.41281c0.13476,-0.09322 0.31959,-0.05955 0.41281,0.07522c0.09322,0.13476 0.05955,0.31959 -0.07522,0.41281c-0.13476,0.09322 -0.31959,0.05955 -0.41281,-0.07522z" stroke-linecap="butt"/><path d="M233.42516,168.58256c-0.09322,-0.13476 -0.05955,-0.31959 0.07521,-0.41282c0.13476,-0.09322 0.31959,-0.05955 0.41281,0.07522c0.09322,0.13476 0.05955,0.31959 -0.07522,0.41281c-0.13476,0.09322 -0.31958,0.05955 -0.41281,-0.07521z" stroke-linecap="butt"/></g></g></g></svg>