<svg version="1.1" xmlns="http://www.w3.org/2000/svg" xmlns:xlink="http://www.w3.org/1999/xlink" width="105.54694" height="253.4625" viewBox="0,0,105.54694,253.4625"><g transform="translate(-188.57752,-53.3875)"><g data-paper-data="{&quot;isPaintingLayer&quot;:true}" fill-rule="nonzero" stroke-linejoin="miter" stroke-miterlimit="10" stroke-dasharray="" stroke-dashoffset="0" style="mix-blend-mode: normal"><path d="M216.38713,58.17468c1.78096,-1.01705 3.93754,-0.9164 5.80899,-1.67823c5.49629,-0.87 10.81549,-1.89644 16.45388,-1.89644c3.48809,0 7.11592,-0.25416 10.54921,0.25608c2.01131,0.29891 3.9073,1.53547 5.84502,2.11525c4.845,1.45766 8.6709,4.22893 13.07518,6.4106c0.84097,0.01349 1.68673,0.01605 2.53904,0.01605c1.44459,0 3.31443,0.17714 4.23866,-1.11687l0.56861,-0.6686c0.11575,-0.13611 0.27567,-0.2203 0.45232,-0.2203c0.35328,0 0.63968,0.33676 0.63968,0.75216v1.00288h-0.12925c0.07849,1.34203 -0.25596,2.3081 -0.92158,3.55181c1.35721,-0.34593 3.37817,-0.05703 3.9908,0.59646c1.57671,1.68187 1.77146,5.04468 2.68103,7.22159c1.31213,3.14036 2.47562,6.88353 3.44385,10.12144c0.30831,1.1133 1.03518,2.72302 1.98274,3.26057c0.47989,0.27226 3.99388,-0.91668 3.99388,-0.91668c0,0 -2.01945,3.76919 -2.92705,4.27189c-1.30573,0.72321 -2.93223,1.46984 -4.43837,1.5064c0.11883,0.52666 0.25441,1.14541 0.52004,1.85668c1.55278,4.15795 1.59769,8.47179 2.03401,12.89914c0.22418,2.27467 -0.22258,4.44358 0.33164,6.68044c0.47499,1.9562 1.25481,4.11596 3.09073,4.8311c0,0 3.4029,0.20967 3.11804,0.28568c0,0 -0.46359,0.92085 -0.89316,1.25802c-0.61671,0.48406 -2.45317,1.36852 -2.45317,1.36852c-1.95947,1.10208 -4.35422,1.89331 -6.34819,1.07204c-1.10327,-0.45441 -1.96423,-2.04398 -2.62593,-3.78427c-0.00255,0.57834 0.01319,1.13535 0.09123,1.63703c0.97456,6.26471 1.70796,12.87301 6.16195,17.21511c1.47615,1.45464 5.14057,1.67577 6.8635,2.59131l-1.91621,2.78825l-0.13943,-0.27325c-1.54377,0.98852 -3.40649,1.50824 -5.27258,1.85278c0.08387,3.32109 1.59976,5.12713 4.08009,6.62327c0.8334,0.5027 2.59115,1.27838 2.59115,1.27838c0,0 -1.09204,3.10489 -1.80791,3.64291c-1.68421,1.26577 -2.98569,1.93317 -5.13262,1.44472c-0.12246,1.69299 2.30271,4.9806 3.60294,5.73432c0.42466,0.24617 1.99692,1.00789 1.99692,1.00789c0,0 -1.52778,2.46418 -3.45495,3.41651c-1.884,0.93099 -4.15854,0.35508 -4.99564,-0.0265c-1.31519,-0.59952 -2.24027,-1.94828 -3.49705,-2.59689c0.36557,0.9018 0.58111,1.89893 1.14981,2.68721c0.73876,1.024 3.17014,2.90213 3.17014,2.90213l1.03554,0.53432c0,0 -3.34226,2.52751 -3.78841,2.52913c-2.97481,0.01086 -5.41575,-0.85831 -8.26808,-1.69707c-3.13682,-1.05355 -6.55626,-2.49485 -9.58455,-4.30432c0.20877,0.97595 0.51523,2.64296 0.30548,3.0517l-0.00004,-0.00001c-0.17554,0.34206 -1.98207,0.2753 -2.34265,0.2753c-3.45972,0 -6.7539,-0.50309 -9.99271,-1.43649c-2.00181,0.74598 -4.08532,0.8594 -6.1682,1.73396c-0.81074,0.34041 -2.89408,1.52389 -3.77747,0.48516c-0.67901,-0.79841 -0.38384,-4.21352 -0.24049,-6.20667c-0.28207,0.27513 -0.63411,0.54933 -1.01786,0.81262c0.08884,1.7138 0.08355,3.50662 -0.38437,4.05682c-0.88339,1.03872 -2.96672,-0.14473 -3.77746,-0.48515c-0.59176,-0.24847 -1.18357,-0.4355 -1.77355,-0.59305c-4.67156,1.9053 -9.3543,2.97002 -14.38736,2.97002c-0.36058,0 -2.16712,0.06676 -2.34265,-0.2753c-0.26165,-0.50988 0.28,-2.9778 0.43321,-3.61972c0.19232,-0.80577 0.35441,-1.6596 0.5388,-2.51476c-3.18647,2.00206 -6.88181,3.58103 -10.25109,4.71266c-2.85232,0.83876 -5.29327,1.70792 -8.26808,1.69707c-0.44615,-0.00163 -3.78841,-2.52913 -3.78841,-2.52913c0,0 0.71722,-0.29691 1.03554,-0.53433c0.95557,-0.71269 2.43138,-1.87813 3.17014,-2.90213c0.56869,-0.78827 0.78422,-1.7854 1.1498,-2.6872c-1.25679,0.64861 -2.18186,1.99736 -3.49706,2.59688c-1.69339,0.77192 -8.04646,-1.51888 -8.04646,-1.51888l-0.40413,-1.87113c0,0 1.57226,-0.76172 1.99692,-1.00789c1.30023,-0.75373 3.72541,-4.04133 3.60295,-5.73432c-2.14693,0.48846 -6.94053,-5.08761 -6.94053,-5.08761c0,0 1.75775,-0.77568 2.59115,-1.27839c2.48032,-1.49614 3.99622,-3.30218 4.08009,-6.62327c-1.86607,-0.34455 -6.81961,-2.71968 -6.81961,-2.99847c0,-0.36933 0.22637,-0.67648 0.52488,-0.74008l0.96652,-0.22922c1.72293,-0.91555 3.38735,-1.53666 4.8635,-2.99131c4.45399,-4.3421 5.1874,-10.9504 6.16195,-17.21511c0.07804,-0.50168 0.09379,-1.05869 0.09124,-1.63703c-0.66171,1.74029 -1.52266,3.32985 -2.62593,3.78427c-1.99397,0.82128 -4.38871,0.03003 -6.34819,-1.07205l-0.0221,0.10395c0,0 -1.33535,-1.81616 -0.98207,-1.81616h0.77588c1.83592,-0.71514 2.61574,-4.07489 3.09072,-6.0311c0.55423,-2.23685 0.10747,-4.40575 0.33165,-6.68042c0.43633,-4.42735 0.48123,-8.74119 2.03402,-12.89913c0.26562,-0.71126 0.4012,-1.33002 0.52003,-1.85668c-1.50614,-0.03655 -3.13264,-0.7832 -4.43837,-1.50641c-0.90759,-0.50269 -2.04475,-0.54945 -1.12705,-2.47188c0.30661,-0.6423 1.71398,-0.61107 2.19388,-0.88332c0.94755,-0.53755 1.67443,-2.14727 1.98274,-3.26056c0.96823,-3.23792 2.13171,-6.98109 3.44384,-10.12145c0.90957,-2.17691 1.10433,-5.53972 2.68104,-7.22158c0.61264,-0.6535 2.6336,-0.94241 3.9908,-0.59647c-0.66563,-1.24371 -1.00008,-2.20977 -0.92159,-3.5518h-0.12924v-1.00288c0,-0.41541 0.28639,-0.75217 0.63968,-0.75217c0.17664,0 0.33657,0.08419 0.45233,0.22031l0.5686,0.66859c0.71605,1.00252 1.99966,1.12204 3.21338,1.12501c1.93799,-1.34706 3.83366,-2.72709 5.87747,-3.89425z" fill="#000000" stroke="none" stroke-width="0.5" stroke-linecap="butt"/><g stroke-width="1.5" stroke-linecap="butt"><path d="M271.9,305.35v-48.75h9.5v48.75z" fill="#b8b7bb" stroke="#b8b7bb"/><path d="M271.9,256.6h9.5v16.5267c-3.19772,-0.92831 -6.3503,-1.46355 -9.5,-0.72989z" fill="#99989b" stroke="#99989b"/><path d="M281.4,278.60009c-1.61555,-0.32794 -3.28767,-0.50009 -5,-0.50009c-1.53631,0 -3.04025,0.13858 -4.5,0.40391v-2.40609c3.20488,-0.98672 6.17266,-0.03294 9.5,0.92028z" fill="#a1a0a4" stroke="#a1a0a4"/></g><g stroke-width="1.5" stroke-linecap="butt"><path d="M201.15,306.1v-48.75h9.5v48.75z" fill="#b8b7bb" stroke="#b8b7bb"/><path d="M201.15,257.35h9.5v16.5267c-3.19772,-0.92831 -6.35029,-1.46355 -9.5,-0.72989z" fill="#99989b" stroke="#99989b"/><path d="M210.65,279.35009c-1.61555,-0.32794 -3.28767,-0.50009 -5,-0.50009c-1.5363,0 -3.04024,0.13858 -4.5,0.40391v-2.40609c3.20488,-0.98672 6.17265,-0.03294 9.5,0.92028z" fill="#a1a0a4" stroke="#a1a0a4"/></g><path d="M200.75199,186.37957c-0.05451,-8.15261 8.18688,-36.76129 40.20201,-36.9211c31.60235,-0.15775 39.85672,29.48704 39.84884,36.89673c-0.03591,21.67911 0.10566,48.96294 0.26618,71.83165c-0.04079,0.02304 -0.0815,0.04618 -0.12215,0.0694c-3.83796,2.19312 -6.26194,4.98153 -7.77235,8.1121c-0.83399,1.00217 -1.5911,2.07057 -2.26229,3.19616l-0.11059,-79.9698c0,0 0.07549,-3.0993 -2.81625,-3.15415c-3.43441,-0.06514 -2.94538,3.11562 -2.94538,3.11562l0.20548,114.86995l-48.21366,0.07222l-0.30539,-115.23309c0,0 0.27949,-2.919 -2.8856,-2.93443c-3.11083,-0.01515 -2.81569,2.90899 -2.81569,2.90899l0.24711,80.52386c-2.26634,-4.01034 -5.52963,-7.27425 -10.02231,-9.269c-0.18842,-28.00886 -0.4127,-61.36443 -0.49796,-74.11512z" fill="#ffffff" stroke="#000000" stroke-width="2" stroke-linecap="butt"/><path d="" fill="#ffffff" stroke="#000000" stroke-width="2" stroke-linecap="butt"/><g stroke="none" stroke-width="0" stroke-linecap="butt"><path d="M273.65,165.1c0,0 7.18863,8.52291 9.07338,16.10604c1.42518,5.73412 0.42662,13.82382 0.42662,14.89396c0,6.08785 0,31.5 0,31.5h-18.37217c-0.00793,-4.05871 -0.17515,-8.18049 -0.12783,-12.25c0.17247,-14.83256 1.06139,-29.68864 0.25,-44.5c0,-1.96651 -0.22705,-3.88 -0.65638,-5.71567z" fill="#efcdb4"/><path d="M198.65,227.6c0,0 0,-27.09572 0,-32.75c0,-0.86003 -0.76879,-8.30922 0.62193,-14.47249c1.80472,-7.99801 5.87807,-15.02751 5.87807,-15.02751l10.36547,-0.03783c-0.40283,1.7813 -0.61547,3.63473 -0.61547,5.53783v0c-0.72917,13.31338 0.07843,26.6669 0,40c-0.03281,5.57832 -0.10849,11.12539 -0.18415,16.75z" fill="#ffeadb"/></g><g stroke="none" stroke-width="0" stroke-linecap="butt"><path d="M199.38306,228.06429c0,0 -2.5902,-0.95036 -2.5902,-2.125c0,-1.5419 0,-3.47026 0,-4.14286c0,-0.46908 1.61887,-1.125 1.61887,-1.125l44.27627,0.14286v7.25z" fill="#dcc5b4"/><path d="M240.82629,228.06429v-7.25l44.27627,-0.14286c0,0 1.61887,0.65592 1.61887,1.125c0,0.6726 0,2.60096 0,4.14286c0,1.17464 -2.5902,2.125 -2.5902,2.125z" data-paper-data="{&quot;index&quot;:null}" fill="#c9b19e"/></g><path d="M256.1425,200.33376c-0.57113,0 -1.03411,-0.46299 -1.03411,-1.03411c0,-0.57113 0.46299,-1.03413 1.03411,-1.03413c0.57113,0 1.03411,0.463 1.03411,1.03413c0,0.57113 -0.46299,1.03411 -1.03411,1.03411z" fill="#000000" stroke="none" stroke-width="1.5" stroke-linecap="butt"/><path d="M250.88263,204.56935c-4.4635,-0.31439 -6.55245,-1.79392 -6.16985,-2.58011c0.11788,-0.24224 2.84645,1.06355 6.97038,1.3048c6.40897,0.37493 8.51033,-0.63173 8.51033,-0.63173v1.34616c0,0 -2.4135,1.04672 -9.31086,0.56089z" fill="#000000" stroke="#000000" stroke-width="0" stroke-linecap="butt"/><path d="M223.06988,199.29965c0,-0.57113 0.46299,-1.03413 1.03411,-1.03413c0.57113,0 1.03413,0.463 1.03413,1.03413c0,0.57113 -0.463,1.03411 -1.03413,1.03411c-0.57113,0 -1.03411,-0.46299 -1.03411,-1.03411z" fill="#000000" stroke="none" stroke-width="1.5" stroke-linecap="butt"/><path d="M229.36386,204.56935c-6.89736,0.48585 -9.31086,-0.56089 -9.31086,-0.56089v-1.34616c0,0 2.10136,1.00666 8.51033,0.63173c4.12393,-0.24126 6.85251,-1.54704 6.97039,-1.3048c0.3826,0.78618 -1.70634,2.26571 -6.16985,2.58011z" fill="#000000" stroke="#000000" stroke-width="0" stroke-linecap="butt"/><path d="M240.64432,261.12113c-0.81895,0 -1.48284,-0.66389 -1.48284,-1.48284c0,-0.81895 0.66389,-1.48284 1.48284,-1.48284c0.81895,0 1.48284,0.66389 1.48284,1.48284c0,0.81895 -0.66389,1.48284 -1.48284,1.48284z" data-paper-data="{&quot;index&quot;:null}" fill="#000000" stroke="none" stroke-width="1.5" stroke-linecap="butt"/><path d="M215.02,305.61334l-0.47059,-97.69876c0,0 -6.64196,-8.28264 -6.81329,-25.54798c0.02819,-7.93288 7.58388,-24.75326 7.58388,-24.75326l10.61792,-6.05971c0,0 8.26862,26.72204 14.32506,26.77496c6.37693,0.05571 15.75847,-26.27001 15.75847,-26.27001l11.29855,6.55476c0,0 6.68407,13.36676 6.87685,24.00033c-0.20635,15.83755 -5.91788,25.79934 -5.91788,25.79934l-0.40897,97.40033z" fill="#a24524" stroke="none" stroke-width="0" stroke-linecap="butt"/><path d="M256.02145,152.05857l11.29855,6.55476c0,0 6.68407,13.36676 6.87685,24.00033c-0.20635,15.83755 -5.91788,25.79934 -5.91788,25.79934l-0.40897,97.40033l-27.47,-0.10395c0,-2.69533 0,-5.39066 0,-8.08599c0,-3.5 0,-7 0,-10.5c0,-3.5 0,-7 0,-10.5c0,-3.5 0,-7 0,-10.5c0,-3.5 0,-7 0,-10.5c0,-3.5 0,-7 0,-10.5c0,-3.5 0,-7 0,-10.5c0,-3.5 0,-7 0,-10.5c0,-3.5 0,-7 0,-10.5c0,-0.41072 0,-3.3434 0,-3.3434c0,0 0,-30.68835 0,-31.95422c6.37337,-0.31598 15.62145,-26.26719 15.62145,-26.26719z" fill="#994122" stroke="none" stroke-width="0" stroke-linecap="butt"/><path d="M215.02,305.61334l-0.47059,-97.69876c0,0 -4.9787,-6.20853 -6.42633,-19.07991c-0.22441,-1.99534 -0.36397,-4.1508 -0.38696,-6.46807c0.02819,-7.93288 7.58388,-24.75326 7.58388,-24.75326l10.61792,-6.05971c0,0 7.9438,25.6723 13.96208,26.74074c0,1.27634 3,9.62903 3,14.32903c0,7.1 -3,17.2566 -3,17.2566c0,0 0,2.22893 0,3.7434c0,3.5 0,7 0,10.5c0,3.5 0,7 0,10.5c0,3.5 0,7 0,10.5c0,3.5 0,7 0,10.5c0,3.5 0,7 0,10.5c0,3.5 0,7 0,10.5c0,3.5 0,7 0,10.5c0,3.5 0,7 0,10.5c0,2.6947 0,5.3894 0,8.0841z" fill="#a24524" stroke="none" stroke-width="0" stroke-linecap="butt"/><path d="M215.02,305.61334l-0.87149,-98.60994c0.42427,0 3.8701,8.08476 14.31536,8.80263c9.87384,0.09638 12.00301,-6.83817 12.00301,-6.83817c0,0 0.25482,6.57578 10.39703,6.50838c17.50565,-0.73238 17.44715,-8.54427 17.44715,-8.54427l-0.44104,98.88138z" fill="#8f3a1b" stroke="none" stroke-width="0" stroke-linecap="butt"/><path d="M240.46688,208.96786c0,0 0.25482,6.57578 10.39703,6.50838c17.22852,-0.72079 17.4446,-8.29871 17.44712,-8.53846l-0.44101,98.87557l-27.47002,-0.10396c0,-2.03646 0,-4.07293 0,-6.10939c0,-3.5 0,-7 0,-10.5c0,-3.5 0,-7 0,-10.5c0,-3.5 0,-7 0,-10.5c0,-3.5 0,-7 0,-10.5c0,-3.5 0,-7 0,-10.5c0,-3.5 0,-7 0,-10.5c0,-3.5 0,-7 0,-10.5c0,-3.5 0,-7 0,-10.5c0,-2.14828 0,-4.29656 0,-6.44483c0.04636,-0.12047 0.06688,-0.18731 0.06688,-0.18731z" fill="#7e3318" stroke="none" stroke-width="0" stroke-linecap="butt"/><path d="M268.31103,206.93778l0.00003,-0.00581c0,0 0.00001,0.00196 -0.00003,0.00581z" fill="#8f3a1b" stroke="none" stroke-width="0" stroke-linecap="butt"/><path d="M214.92,305.97999l-0.2,-78.8c0,0 12.13918,29.36996 20.7879,40.85855c9.1856,12.20176 32.8121,30.34145 32.8121,30.34145l-0.2,7.4z" fill="#763016" stroke="none" stroke-width="0" stroke-linecap="butt"/><path d="M214.92,305.97999l-0.2,-78.8c0,0 12.13918,29.36996 20.7879,40.85855c1.27604,1.69503 2.83075,3.50466 4.5621,5.36432c0,1.69238 0,3.38475 0,5.07713c0,3.5 0,7 0,10.5c0,3.5 0,7 0,10.5c0,2.13515 0,4.2703 0,6.40545z" fill="#763016" stroke="none" stroke-width="0" stroke-linecap="butt"/><path d="M268.32,298.38l-0.2,7.4l-27.55,0.10357c0,-2.13452 0,-4.26905 0,-6.40357c0,-3.5 0,-7 0,-10.5c0,-3.5 0,-7 0,-10.5c0,-1.51461 0,-3.02923 0,-4.54384c10.76664,11.40454 27.75,24.44384 27.75,24.44384z" fill="#6b2b13" stroke="none" stroke-width="0" stroke-linecap="butt"/><path d="M214.92,305.97999l-0.2,-62.4c0,0 11.93918,29.56996 20.5879,41.05855c9.1856,12.20177 33.0121,18.54145 33.0121,18.54145l-0.2,2.6z" fill="#632813" stroke="none" stroke-width="0" stroke-linecap="butt"/><path d="M268.32,303.18l-0.2,2.6l-27.35,0.10282c0,-2.93427 0,-5.86855 0,-8.80282c0,-2.32267 0,-4.64533 0,-6.968c10.82698,8.61839 27.55,13.068 27.55,13.068z" fill="#572311" stroke="none" stroke-width="0" stroke-linecap="butt"/><path d="M214.52,306.28v-5.6h54.2v5.6z" fill="#000000" stroke="none" stroke-width="0" stroke-linecap="butt"/><path d="M240.52,306.28v-5.6h28.4v5.6z" fill="#1f1f1f" stroke="none" stroke-width="0" stroke-linecap="butt"/><g stroke="none" stroke-width="0" stroke-linecap="butt"><path d="M210.9,306.50149l1.67164,-96.99932c0,0 -5.9365,-14.12611 -6.16539,-21.00921c-0.24402,-7.33801 4.74375,-22.74148 4.74375,-22.74148c0,0 2.20479,-8.45695 4.42068,-10.79827c2.20066,-2.32523 12.32932,-2.95173 12.32932,-2.95173c0,0 -3.36831,3.28857 -3.21232,7.47999c0.67972,18.26378 5.46232,146.77001 5.46232,146.77001z" fill="#3a1111"/><path d="M206.40626,188.49296c-0.24402,-7.338 4.74375,-22.74148 4.74375,-22.74148c0,0 2.20479,-8.45695 4.42069,-10.79828c2.20067,-2.32523 12.32931,-2.95172 12.32931,-2.95172c0,0 -3.36831,3.28857 -3.21231,7.47999c0.24977,6.71123 1.05354,28.30823 1.97044,52.94493c-2.76107,-0.00295 -5.41481,-0.063 -8.15053,-0.74693c-4.48739,-1.21533 -4.15401,-2.00041 -6.06266,-2.48296c-0.8614,-2.09339 -5.82967,-14.41825 -6.03868,-20.70355z" fill="#4d1616"/><path d="M213.2119,199.30074c0,0 7.82118,-34.40374 10.1805,-42.33773c0.98245,-3.30383 4.65878,-5.16227 4.65878,-5.16227c0,0 -2.16493,2.83241 -2.6993,6.86312c-0.7201,5.43169 0.12205,11.32518 -0.00422,17.11017c-0.21996,10.07788 1.23923,41.40171 1.23923,41.40171z" fill="#34180f"/><path d="M229.12262,265.17574l-15.89286,-52.375l13.125,-12.875l0.5,19.85715z" fill="#200f09"/><path d="M210.43333,306.49524c0,0 -0.29296,-1.90426 -0.43309,-2.81507c-0.13213,-0.85886 1.16036,-5.4122 1.16036,-5.4122l-0.01507,2.89594l19.62113,-0.16866v5.5z" fill="#823826"/><path d="M210.43333,306.49524c0,0 -0.29296,-1.90427 -0.43309,-2.81508c-0.13214,-0.85886 1.16036,-5.4122 1.16036,-5.4122l-0.01507,2.89594l7.19816,-0.06187c-0.67416,1.17593 -0.90001,2.55151 -0.90249,4.42811c0.03012,0.30316 0.07537,0.62942 0.13795,0.9651z" fill="#6b2e1f"/><path d="M210.825,298.675v-1.5h19.5v1.5z" fill="#2c0d0d"/></g><g data-paper-data="{&quot;index&quot;:null}" stroke="none" stroke-width="0" stroke-linecap="butt"><path d="M251.41424,306.05148c0,0 4.7826,-128.50623 5.46232,-146.77001c0.15599,-4.19142 -3.21232,-7.47999 -3.21232,-7.47999c0,0 10.12866,0.6265 12.32932,2.95173c2.21589,2.34132 4.42068,10.79827 4.42068,10.79827c0,0 4.98777,15.40347 4.74375,22.74148c-0.22889,6.8831 -6.16539,21.00921 -6.16539,21.00921l1.67164,96.99932z" fill="#260b0b"/><path d="M275.15797,188.29296c-0.20901,6.2853 -5.17728,18.61016 -6.03868,20.70355c-1.90865,0.48255 -1.57527,1.26763 -6.06266,2.48296c-2.73572,0.68393 -5.38946,0.74398 -8.15053,0.74693c0.9169,-24.6367 1.72067,-46.2337 1.97044,-52.94493c0.156,-4.19142 -3.21231,-7.47999 -3.21231,-7.47999c0,0 10.12864,0.62649 12.32931,2.95172c2.2159,2.34133 4.42069,10.79828 4.42069,10.79828c0,0 4.98777,15.40348 4.74375,22.74148z" fill="#3c1111"/><path d="M254.97735,216.97574c0,0 1.45919,-31.32383 1.23923,-41.40171c-0.12627,-5.78499 0.71588,-11.67848 -0.00422,-17.11017c-0.53437,-4.03071 -2.6993,-6.86312 -2.6993,-6.86312c0,0 3.67633,1.85844 4.65878,5.16227c2.35932,7.93399 10.1805,42.33773 10.1805,42.33773z" fill="#1e0e09"/><path d="M254.70948,219.58289l0.5,-19.85715l13.125,12.875l-15.89286,52.375z" fill="#100704"/><path d="M250.79758,306.29525v-5.5l19.62113,0.16866l-0.01507,-2.89594c0,0 1.29249,4.55334 1.16036,5.4122c-0.14013,0.91081 -0.43309,2.81507 -0.43309,2.81507z" fill="#763322"/><path d="M263.98509,306.29524c0.06258,-0.33568 0.10782,-0.66194 0.13795,-0.9651c-0.00248,-1.8766 -0.22832,-3.25219 -0.90249,-4.42811l7.19815,0.06188l-0.01507,-2.89594c0,0 1.29249,4.55334 1.16036,5.4122c-0.14013,0.91081 -0.43309,2.81507 -0.43309,2.81507z" fill="#522418"/><path d="M251.23924,298.475v-1.5h19.5v1.5z" fill="#2c0d0d"/></g><path d="M225.49643,151.18213c0,0 9.45204,19.78464 11.8364,24.14068c0.90695,1.65692 3.02074,3.00218 3.02074,3.00218c0,0 -5.61336,0.69682 -7.94954,2.02146c-2.28158,1.29368 -5.9076,5.83568 -5.9076,5.83568c0,0 -0.43336,-0.50493 -0.67584,-1.50701c-0.61939,-2.55973 -2.14329,-7.43126 -2.5486,-9.86571c-1.11281,-6.68388 2.22444,-23.62728 2.22444,-23.62728z" fill="#ffeadb" stroke="none" stroke-width="0" stroke-linecap="butt"/><path d="M204.09314,202.70056l2.42142,-13.08803l-4.2214,0.65654l6.65898,-13.83192l-8.16335,10.39118l4.7766,-19.31163l-6.46538,-2.78337l15.5,-9.06666l-1.66667,54.06667l-3.74504,-9.07162z" fill="#361010" stroke="none" stroke-width="0" stroke-linecap="butt"/><path d="M257.44783,174.80942c-0.40531,2.43445 -1.92921,7.30599 -2.5486,9.86572c-0.24248,1.00208 -0.67584,1.50701 -0.67584,1.50701c0,0 -3.62602,-4.542 -5.9076,-5.83568c-2.33618,-1.32464 -7.94954,-2.02146 -7.94954,-2.02146c0,0 2.11379,-1.34526 3.02074,-3.00218c2.38436,-4.35604 11.83641,-24.14068 11.83641,-24.14068c0,0 3.33725,16.9434 2.22444,23.62727z" data-paper-data="{&quot;index&quot;:null}" fill="#efcdb4" stroke="none" stroke-width="0" stroke-linecap="butt"/><path d="M273.11171,200.06172l-3.74504,9.07162l-3.26667,-54.06666l17.1,9.06666l-6.46538,2.78337l4.7766,19.31163l-8.16335,-10.39118l6.65898,13.83192l-4.2214,-0.65654l2.42142,13.08803z" data-paper-data="{&quot;index&quot;:null}" fill="#270c0c" stroke="none" stroke-width="0" stroke-linecap="butt"/><path d="M239.93333,210.56667c0,0 1.33333,-10.12127 1.33333,-15.33333c0,-5.54508 -1.33333,-17 -1.33333,-17h1c0,0 2.5,10.83796 2.5,16.33333c0,5.27324 -2.5,16 -2.5,16z" fill="#692d17" stroke="none" stroke-width="0" stroke-linecap="butt"/><path d="M239.76667,300.9v-90.66667h1.33333v90.66667z" fill="#502212" stroke="none" stroke-width="0" stroke-linecap="butt"/><path d="M206.15,256.35c0,3.86599 -1.34315,7 -3,7c-1.65685,0 -3,-3.13401 -3,-7c0,-3.86599 1.34315,-7 3,-7c1.65685,0 3,3.13401 3,7z" fill="#bb2525" stroke="#a9a8ac" stroke-width="0" stroke-linecap="butt"/><path d="M208.9,257.6c0,3.17564 -1.00736,5.75 -2.25,5.75c-1.24264,0 -2.25,-2.57436 -2.25,-5.75c0,-3.17564 1.00736,-5.75 2.25,-5.75c1.24264,0 2.25,2.57436 2.25,5.75z" fill="#9d1f1f" stroke="none" stroke-width="0" stroke-linecap="butt"/><path d="M208.9,245.35c0,1.38071 -0.61561,2.5 -1.375,2.5c-0.75939,0 -1.375,-1.11929 -1.375,-2.5c0,-1.38071 0.61561,-2.5 1.375,-2.5c0.75939,0 1.375,1.11929 1.375,2.5z" fill="#9d1f1f" stroke="none" stroke-width="0" stroke-linecap="butt"/><path d="M210.4,254.225c0,1.44975 -0.50368,2.625 -1.125,2.625c-0.62132,0 -1.125,-1.17525 -1.125,-2.625c0,-1.44975 0.50368,-2.625 1.125,-2.625c0.62132,0 1.125,1.17525 1.125,2.625z" fill="#9d1f1f" stroke="none" stroke-width="0" stroke-linecap="butt"/><path d="M282.15,254.85c0,1.933 -1.17525,3.5 -2.625,3.5c-1.44975,0 -2.625,-1.567 -2.625,-3.5c0,-1.933 1.17525,-3.5 2.625,-3.5c1.44975,0 2.625,1.567 2.625,3.5z" fill="#9d1f1f" stroke="none" stroke-width="0" stroke-linecap="butt"/><path d="M277.4,255.85c0,2.76142 -1.45507,5 -3.25,5c-1.79493,0 -3.25,-2.23858 -3.25,-5c0,-2.76142 1.45507,-5 3.25,-5c1.79493,0 3.25,2.23858 3.25,5z" fill="#9d1f1f" stroke="none" stroke-width="0" stroke-linecap="butt"/><path d="M279.4,253.85c0,4.14214 -0.95139,7.5 -2.125,7.5c-1.17361,0 -2.125,-3.35786 -2.125,-7.5c0,-4.14214 0.95139,-7.5 2.125,-7.5c1.17361,0 2.125,3.35786 2.125,7.5z" fill="#9d1f1f" stroke="none" stroke-width="0" stroke-linecap="butt"/><path d="M276.15,251.1c0,1.38071 -0.95139,2.5 -2.125,2.5c-1.17361,0 -2.125,-1.11929 -2.125,-2.5c0,-1.38071 0.95139,-2.5 2.125,-2.5c1.17361,0 2.125,1.11929 2.125,2.5z" fill="#c22727" stroke="none" stroke-width="0" stroke-linecap="butt"/><path d="M278.9,245.85c1.24264,0 2.25,1.45507 2.25,3.25c0,1.79493 -1.00736,3.25 -2.25,3.25c-1.24264,0 -2.25,-1.45507 -2.25,-3.25c0,-1.79493 1.00736,-3.25 2.25,-3.25z" fill="#c22727" stroke="none" stroke-width="0" stroke-linecap="butt"/><path d="M277.15,257.35c0,1.10457 -0.67157,2 -1.5,2c-0.82843,0 -1.5,-0.89543 -1.5,-2c0,-1.10457 0.67157,-2 1.5,-2c0.82843,0 1.5,0.89543 1.5,2z" fill="#c22727" stroke="none" stroke-width="0" stroke-linecap="butt"/><path d="M274.4,240.85c0,0.82843 -0.39175,1.5 -0.875,1.5c-0.48325,0 -0.875,-0.67157 -0.875,-1.5c0,-0.82843 0.39175,-1.5 0.875,-1.5c0.48325,0 0.875,0.67157 0.875,1.5z" fill="#c22727" stroke="none" stroke-width="0" stroke-linecap="butt"/><path d="M280.15,246.225c0,1.03553 -0.72754,1.875 -1.625,1.875c-0.89746,0 -1.625,-0.83947 -1.625,-1.875c0,-1.03553 0.72754,-1.875 1.625,-1.875c0.89746,0 1.625,0.83947 1.625,1.875z" fill="#c22727" stroke="none" stroke-width="0" stroke-linecap="butt"/><g stroke="none" stroke-width="0" stroke-linecap="butt"><g><path d="M199.12,264.95322v-11.87322l13,10.52678v11.87322z" fill="#d5d5d5"/><path d="M199.12,264.95322v-11.87322l6.90917,5.59472c-0.84894,2.51325 -1.30917,5.20552 -1.30917,8.00528c0,0.99704 0.05837,1.98046 0.17187,2.94701z" fill="#b7b7b7"/></g><g data-paper-data="{&quot;index&quot;:null}"><path d="M199.12,275.48v-11.87322l13,-10.52678v11.87322z" fill="#d5d5d5"/><path d="M206.34813,269.62701c0.11351,-0.96655 0.17187,-1.94996 0.17187,-2.947c0,-2.79976 -0.46023,-5.49203 -1.30917,-8.00529l6.90917,-5.59471v11.87322z" fill="#b7b7b7"/></g></g><g data-paper-data="{&quot;index&quot;:null}" stroke="none" stroke-width="0" stroke-linecap="butt"><g><path d="M270.12,274.68v-11.87322l13,-10.52678v11.87322z" fill="#d5d5d5"/><path d="M277.34813,268.82701c0.1135,-0.96655 0.17187,-1.94997 0.17187,-2.94701c0,-2.79976 -0.46023,-5.49203 -1.30917,-8.00528l6.90917,-5.59472v11.87322z" fill="#b7b7b7"/></g><g data-paper-data="{&quot;index&quot;:null}"><path d="M270.12,264.15322v-11.87322l13,10.52678v11.87322z" fill="#d5d5d5"/><path d="M270.12,264.15322v-11.87322l6.90917,5.59471c-0.84894,2.51325 -1.30917,5.20552 -1.30917,8.00528c0,0.99705 0.05837,1.98046 0.17187,2.947z" fill="#b7b7b7"/></g></g><path d="M195.79864,306.61251v-253.22501h91.18203v253.22501z" fill-opacity="0.01" fill="#000000" stroke="none" stroke-width="0" stroke-linecap="butt"/><path d="M265.26697,137.95985c0,0 -1.54493,3.84427 -1.65625,4.45787c-1.12121,6.18021 -4.16183,8.92466 -10.01942,14.66081c-5.85759,5.73616 -9.05378,9.25275 -13.01359,9.32173c-3.81077,0.06639 -8.93565,-5.1002 -13.93542,-10.38244c-5.32393,-5.62474 -8.87489,-8.47713 -9.71551,-15.13975c-0.21736,-1.72274 -1.41239,-4.6783 -1.41239,-4.6783l5.09931,0.11666c0,0 -3.88496,-7.71988 -4.67247,-10.12672c2.32923,0.44638 4.61038,0.54034 7.16853,0.53999c3.51298,-0.0027 6.97624,-0.57549 10.4725,-0.61024c2.82757,-0.02829 5.8325,-0.85589 8.39511,-2.09114c2.76686,0.90627 5.37949,1.56663 8.28718,1.98201c3.5205,0.50293 6.94668,0.51948 10.50009,0.51964c1.67145,0.00008 3.34289,0.00009 5.01433,0.00008c-0.58591,2.05721 -5.49786,10.9895 -5.49786,10.9895z" fill="#ffffff" stroke="#000000" stroke-width="1.5" stroke-linecap="butt"/><path d="M248.53361,143.06889c0.5704,0.21186 3.08357,1.39942 6.02385,2.59586c2.9637,1.20597 7.21362,2.29294 7.19412,2.4605c-0.02476,0.21265 -10.43477,0.22694 -13.67937,0.63224c-2.71902,0.33964 -6.68867,0.70564 -6.68867,0.70564c0,0 -7.10401,-1.16169 -13.27235,-2.44521c-4.94371,-1.02869 -10.39929,-1.66108 -10.40995,-1.75461c-0.01439,-0.12613 3.86835,-0.71071 6.82417,-1.39467c1.14585,-0.49661 5.43971,-1.48513 5.43971,-1.48513c0,0 4.95585,-0.27766 7.60826,0.579c2.84203,0.91791 2.83546,2.44556 3.0831,2.46906c0,0 1.18436,-1.74932 2.36886,-2.10461c1.18451,-0.35528 5.08219,-0.41633 5.50828,-0.25808z" fill="#ffffff" stroke="#000000" stroke-width="1.4" stroke-linecap="butt"/><path d="M229.88562,147.62248c5.09114,1.02674 11.91756,2.80736 11.91756,2.80736c0,0 5.78976,-1.55585 8.44678,-1.8344c2.05992,-0.21596 11.216,-0.70654 11.26026,-0.33377c0.04328,0.36447 -9.03119,12.90033 -21.14808,12.44714c-13.76954,-0.43578 -22.86459,-15.13559 -22.82675,-15.30472c0.03784,-0.16913 7.2591,1.19165 12.35024,2.2184z" fill="#ffffff" stroke="#000000" stroke-width="1.9" stroke-linecap="butt"/><path d="M240.85988,144.6288c-1.03376,0 -3.5381,-3.26042 -3.7867,-5.3637c-0.22243,-1.88186 1.31512,-3.82799 3.7867,-3.82799c2.47159,0 4.2021,0.49077 4.02999,4.18853c-0.14607,3.13818 -1.55841,5.00317 -4.02999,5.00317z" fill="#ffffff" stroke="#000000" stroke-width="1.15" stroke-linecap="butt"/><path d="M244.46199,114.53508c0,0 0.1026,3.96976 0.00576,7.12662c-0.19174,6.25113 -1.08147,27.7607 -1.08147,27.7607l-2.98167,0.00864c0,0 -0.80294,-4.17274 -1.12322,-9.49979c-0.43353,-7.21063 -0.4495,-16.29321 -0.76344,-19.63229c-0.29758,-3.16513 -0.89593,-5.71453 -0.89593,-5.71453" fill="#ffffff" stroke="#000000" stroke-width="1.3" stroke-linecap="round"/><path d="M213.22774,115.2017c-0.36233,-4.57913 -0.13762,-10.17057 0.07981,-13.69804c0.95818,-0.08742 2.58389,-5.16556 3.54323,-5.24045c2.06032,-0.16085 3.45536,4.69323 5.51301,4.50225c1.25543,-0.11652 3.71416,-6.7847 3.71416,-6.7847l3.98455,6.06466c0,0 10.31808,-2.8988 14.2269,-3.87635c2.82667,-0.70691 8.76062,5.58886 11.67685,2.2386c2.07009,-2.37817 1.13125,-14.70202 3.13878,-15.09399c1.89096,-0.36921 8.83245,19.97109 10.58189,19.66629c0.42741,7.24613 -0.50102,6.97721 -0.71969,10.87752c-0.4056,5.45377 -3.37521,9.80589 -4.07366,12.77256c-1.70965,0.00002 -2.61929,0.6 -4.32894,0.59992c-3.53003,-0.00016 -9.33237,-0.21505 -12.8294,-0.71462c-2.79761,-0.39966 -2.7151,-2.02681 -5.36822,-2.88582c-0.00504,-0.01941 -0.01269,-0.03986 -0.02343,-0.06133c-0.11181,-0.22361 -0.33541,-0.1118 -0.33541,-0.1118c-0.02238,0.01123 -0.04479,0.02242 -0.06725,0.03359c-0.04725,-0.01565 -0.09454,-0.03137 -0.14189,-0.04716c0,0 -0.23718,-0.07906 -0.31623,0.15811c-0.01475,0.04425 -0.01849,0.08299 -0.01482,0.11674c-2.4293,1.13202 -3.6445,2.67568 -6.29072,2.70179c-3.49502,0.03473 -9.55634,0.80752 -13.06775,0.81022c-1.63174,0.00022 -4.70523,-0.39704 -4.70541,-0.39998c-0.25298,-3.90273 -3.86119,-7.64504 -4.17636,-11.62801z" fill="#b8b7bb" stroke="#b8b7bb" stroke-width="1.5" stroke-linecap="butt"/><path d="M213.30755,101.50367c0.95818,-0.08742 2.58389,-5.16556 3.54323,-5.24045c2.06032,-0.16085 3.45536,4.69323 5.51301,4.50225c1.25543,-0.11652 3.71416,-6.7847 3.71416,-6.7847l3.98455,6.06466c0,0 10.31808,-2.8988 14.2269,-3.87635c3.09705,-0.77452 8.82287,5.30271 12.01308,1.7972c1.78836,-1.96512 1.06554,-14.31342 2.80256,-14.65257c1.89096,-0.36921 8.83245,19.97109 10.58189,19.66629c0.20542,3.48268 0.09765,5.22937 -0.094,6.53732c-1.3005,-1.45189 -2.70033,-3.09779 -3.49609,-4.61399c-3.13853,-1.66811 -5.71982,-3.2733 -9.37686,-3.2733c-3.20962,0 -6.61588,0.14609 -9.27245,2.01073c-1.92592,-0.02021 -3.53799,1.90453 -4.52924,3.29161c-0.32649,0.45687 -1.355,3.74435 -1.355,2.29022c-1.33984,-2.77086 -3.63097,-5.99455 -6.71915,-6.22943c-3.05604,-1.00939 -7.0616,-0.71556 -10.24005,-0.22442c-2.4862,0.38698 -7.88616,1.84009 -9.06089,4.33452c-1.14117,0.52862 -1.92823,1.30504 -2.50628,2.22597c0.00974,-2.90692 0.14146,-5.73032 0.2706,-7.82553z" fill="#a9a8ac" stroke="#a9a8ac" stroke-width="1.5" stroke-linecap="butt"/><path d="M244.46199,114.53508c0,0 0.1026,3.96976 0.00576,7.12662c-0.03251,1.05987 -0.08508,2.55838 -0.14998,4.31631c-0.7412,-0.40353 -1.54632,-1.42119 -2.38443,-1.49468c-1.08047,-0.09473 -2.16039,0.67902 -3.15646,1.37852c-0.06983,-2.37054 -0.14463,-4.34731 -0.25892,-5.5629c-0.29758,-3.16513 -0.89593,-5.71453 -0.89593,-5.71453z" fill="#b8b7bb" stroke="#8b8a8d" stroke-width="1.3" stroke-linecap="butt"/><path d="M244.79446,114.72219c0.11167,-2.68192 1.44114,-5.08754 3.49678,-6.71272c1.69105,-1.33695 3.87352,-2.14575 6.2737,-2.14575c5.31783,0 9.27453,3.96607 9.27453,8.85847c0,4.8924 -3.88585,9.07104 -9.69964,9.14188c-5.52997,0.06739 -9.55792,-4.03692 -9.34537,-9.14188z" fill="#000000" stroke="#000000" stroke-width="1.4" stroke-linecap="butt"/><path d="M217.73819,114.72146c0.07093,-4.89188 4.83834,-8.93609 10.21137,-8.8582c5.37302,0.0779 9.02724,4.2484 8.95632,9.14029c-0.07093,4.89188 -4.12352,8.79439 -9.49655,8.7165c-5.37302,-0.0779 -9.74207,-4.1067 -9.67114,-8.99859z" fill="#000000" stroke="#000000" stroke-width="1.4" stroke-linecap="butt"/><path d="M222.17582,114.8394c0.03999,-2.75843 2.30855,-4.96213 5.06696,-4.92214c2.75843,0.03999 4.96213,2.30855 4.92214,5.06696c-0.03999,2.75843 -2.30854,4.96213 -5.06696,4.92214c-2.75843,-0.03999 -4.96213,-2.30855 -4.92214,-5.06696z" fill="#ffffff" stroke="#fadede" stroke-width="1" stroke-linecap="butt"/><path d="M217.66975,114.18928c0,0 0.06357,-9.01512 10.60111,-8.8249c9.47101,0.16586 9.55554,9.40723 9.55554,9.40723z" fill="#525253" stroke="#525253" stroke-width="1.15" stroke-linecap="butt"/><path d="M249.39722,114.80774c0,-2.81845 2.2848,-5.10325 5.10325,-5.10325c2.81845,0 5.10325,2.2848 5.10325,5.10325c0,2.81845 -2.28479,5.10325 -5.10325,5.10325c-2.81845,0 -5.10325,-2.2848 -5.10325,-5.10325z" fill="#ffffff" stroke="#fadede" stroke-width="1" stroke-linecap="butt"/><path d="M244.41682,114.32018c0,0 -0.24686,-9.4582 11.19813,-9.1032c9.71427,0.33347 9.54677,9.65229 9.54677,9.65229z" fill="#525253" stroke="#525253" stroke-width="1.15" stroke-linecap="butt"/><path d="M217.08571,114.62857l-2.42857,2.42857l1.14286,-3.42857l-1.42857,-1.71429l2.62906,0.81904z" fill="#004a4a" stroke="#000000" stroke-width="1.5" stroke-linecap="round"/><path d="M265.3138,112.59046l2.62906,-0.81903l-1.42858,1.71428l1.14286,3.42858l-2.42858,-2.42858z" data-paper-data="{&quot;index&quot;:null}" fill="#004a4a" stroke="#000000" stroke-width="1.5" stroke-linecap="round"/><path d="M227.35,300.73334l-0.83334,-46.16667l1.5,6.33333l2,39.83334z" fill="#200f09" stroke="none" stroke-width="0" stroke-linecap="butt"/><path d="M251.51667,300.9l2,-39.83333l1.5,-6.33334l-0.83333,46.16667z" data-paper-data="{&quot;index&quot;:null}" fill="#100704" stroke="none" stroke-width="0" stroke-linecap="butt"/><path d="M261.87,282.78c0,1.82254 -1.43269,3.3 -3.2,3.3c-1.76731,0 -3.2,-1.47746 -3.2,-3.3c0,-1.82254 1.43269,-3.3 3.2,-3.3c1.76731,0 3.2,1.47746 3.2,3.3z" fill="#b46736" stroke="#000000" stroke-width="0.5" stroke-linecap="butt"/><path d="M260.47,282.18c0,1.27026 -0.98684,2.3 -2.20417,2.3c-1.21733,0 -2.20416,-1.02974 -2.20416,-2.3c0,-1.27026 0.98683,-2.3 2.20416,-2.3c1.21733,0 2.20417,1.02974 2.20417,2.3z" fill="#d2773f" stroke="none" stroke-width="0" stroke-linecap="butt"/></g></g></svg>