<svg version="1.1" xmlns="http://www.w3.org/2000/svg" xmlns:xlink="http://www.w3.org/1999/xlink" width="90.57756" height="243.97912" viewBox="0,0,90.57756,243.97912"><g transform="translate(-195.25421,-61.66108)"><g data-paper-data="{&quot;isPaintingLayer&quot;:true}" stroke-miterlimit="10" stroke-dasharray="" stroke-dashoffset="0" style="mix-blend-mode: normal"><path d="M197.11456,304.52296c0,0 -0.68879,-102.32019 -0.86006,-127.93512c-0.05909,-8.83812 8.87527,-39.85238 43.58242,-40.02563c34.25965,-0.17101 43.2081,31.96647 43.19955,39.99921c-0.08303,50.13108 0.70931,127.90744 0.70931,127.90744l-11.37928,0.10422l-0.17218,-124.49975c0,0 0.08184,-3.35991 -3.05305,-3.41937c-3.72319,-0.07062 -3.19305,3.3776 -3.19305,3.3776l0.22276,124.52886l-52.26774,0.07829l-0.33108,-124.92253c0,0 0.30299,-3.16445 -3.12823,-3.18117c-3.3724,-0.01643 -3.05245,3.15359 -3.05245,3.15359l0.3828,124.74226z" fill="#f54e52" fill-rule="nonzero" stroke="#000000" stroke-width="2" stroke-linecap="butt" stroke-linejoin="miter"/><path d="M256.30255,191.71539c-0.61915,0 -1.12106,-0.50192 -1.12106,-1.12106c0,-0.61915 0.50192,-1.12108 1.12106,-1.12108c0.61915,0 1.12106,0.50193 1.12106,1.12108c0,0.61915 -0.50192,1.12106 -1.12106,1.12106z" fill="#000000" fill-rule="nonzero" stroke="none" stroke-width="1.5" stroke-linecap="butt" stroke-linejoin="miter"/><path d="M250.6004,196.30713c-4.83881,-0.34083 -7.10341,-1.94476 -6.68864,-2.79706c0.12779,-0.2626 3.08579,1.15298 7.55649,1.41451c6.94787,0.40645 9.22593,-0.68485 9.22593,-0.68485v1.45936c0,0 -2.61645,1.13473 -10.09377,0.60805z" fill="#000000" fill-rule="nonzero" stroke="#000000" stroke-width="0" stroke-linecap="butt" stroke-linejoin="miter"/><path d="M220.44901,190.59432c0,-0.61915 0.50192,-1.12108 1.12106,-1.12108c0.61915,0 1.12109,0.50193 1.12109,1.12108c0,0.61915 -0.50193,1.12106 -1.12109,1.12106c-0.61915,0 -1.12106,-0.50192 -1.12106,-1.12106z" fill="#000000" fill-rule="nonzero" stroke="none" stroke-width="1.5" stroke-linecap="butt" stroke-linejoin="miter"/><path d="M227.27224,196.30713c-7.47733,0.5267 -10.09377,-0.60806 -10.09377,-0.60806v-1.45935c0,0 2.27805,1.0913 9.22592,0.68485c4.47069,-0.26155 7.42871,-1.67712 7.5565,-1.41451c0.41477,0.85229 -1.84982,2.45623 -6.68864,2.79706z" fill="#000000" fill-rule="nonzero" stroke="#000000" stroke-width="0" stroke-linecap="butt" stroke-linejoin="miter"/><path d="M239.50122,257.61409c-0.88781,0 -1.60753,-0.71971 -1.60753,-1.60753c0,-0.88781 0.71971,-1.60752 1.60753,-1.60752c0.88781,0 1.60753,0.71971 1.60753,1.60752c0,0.88781 -0.71971,1.60753 -1.60753,1.60753z" data-paper-data="{&quot;index&quot;:null}" fill="#000000" fill-rule="nonzero" stroke="none" stroke-width="1.5" stroke-linecap="butt" stroke-linejoin="miter"/><path d="M213.41458,304.53861v-129.2246c0,0 0.82088,-10.54929 0.82088,-15.87033c0,-4.87622 -0.82088,-14.8381 -0.82088,-14.8381c0,0 2.89797,-2.55083 5.04718,-4.06323c2.14921,-1.5124 5.60686,-3.03946 5.60686,-3.03946c0,0 -0.65219,43.4816 15.78376,43.40534c16.73262,-0.07764 14.99458,-43.40534 14.99458,-43.40534c0,0 4.24177,1.64737 6.68431,3.19431c2.44254,1.54694 5.15352,3.90838 5.15352,3.90838c0,0 -0.82088,10.2171 -0.82088,15.38535c0,5.24907 0.82088,15.87033 0.82088,15.87033v128.67735z" fill="#332a28" fill-rule="nonzero" stroke="#000000" stroke-width="2" stroke-linecap="butt" stroke-linejoin="miter"/><g fill-rule="evenodd" stroke="none" stroke-width="0.1" stroke-linecap="round" stroke-linejoin="round"><g><path d="M226.32723,288.11618c-4.95766,-0.39995 0.23444,3.38017 -3.67708,-1.01644c-6.02564,-6.77292 -3.61531,-141.38853 -5.76581,-145.28317c-2.15051,-3.89464 -1.35042,-16.71539 -2.11293,-22.83601c-0.76254,-6.12063 -1.97643,-7.69387 -2.17818,-13.89344c-0.20173,-6.19957 -0.20633,-9.91175 1.74931,-21.50364c0.68153,-4.03982 3.56595,-9.32002 6.78324,-12.54693c6.01443,-6.03244 15.94032,-10.09358 31.19947,-9.26935c23.42168,1.26512 32.84785,16.60131 33.39639,21.99243c0.54854,5.39113 -1.09539,10.89741 -1.77797,16.10773c-0.68259,5.21029 -1.22846,10.94041 -2.29897,15.15156c-1.0705,4.21117 -2.74696,7.52133 -3.65236,10.11878c-0.90541,2.59747 -1.05645,2.5139 -1.83296,5.4508c-0.77648,2.93689 -1.71483,8.6079 -3.67418,13.95414c-1.57388,4.29443 -23.07712,148.99742 -29.33884,152.83066c-5.12412,3.13682 11.61442,-88.51883 4.57038,-83.23595c-1.50385,1.12786 -9.13584,-20.89255 -10.03653,-20.96522z" fill="#000000"/><path d="M237.16335,188.09764c-4.35907,-0.28901 -10.62982,103.06742 -14.34022,98.81044c-4.98932,-5.72431 -1.56699,-139.33137 -4.51109,-145.37208c-2.94413,-6.04071 -0.94462,-15.64972 -1.55175,-21.03543c-0.60711,-5.38571 -2.07288,-7.42854 -2.32599,-14.77269c-0.25312,-7.34416 0.55618,-8.95804 1.47754,-20.23817c0.35462,-4.34867 2.98918,-9.23188 5.97204,-12.42498c5.83094,-6.24191 14.53792,-9.99223 29.24391,-9.19788c22.57263,1.21925 30.21282,15.03902 30.6561,19.39588c0.44331,4.35688 -0.75209,11.89693 -1.64515,16.9005c-0.89304,5.00357 -1.07487,12.72746 -2.3449,16.60285c-1.27004,3.87538 -2.20354,5.41715 -3.13426,7.59258c-0.93073,2.17541 -1.35548,2.93421 -2.10384,5.76463c-0.74834,2.83042 -1.22719,8.41761 -3.54673,13.55248c-2.31953,5.13489 -7.20681,8.49794 -13.44981,12.78538c-4.78801,3.28823 -5.29246,54.61705 -10.1557,54.48473z" fill="#ffffff"/></g><g><path d="M208.46469,110.35336c-0.93607,-7.993 0.37019,-9.13036 1.49972,-9.32281c1.12952,-0.19246 2.47124,1.64644 2.95806,3.10653c0.30131,0.90378 0.73407,6.61975 1.34786,10.97463c0.3778,2.68063 0.78303,4.87324 0.59506,5.02501c-0.49329,0.39831 -5.46462,-1.79036 -6.40071,-9.78336z" fill="#000000"/><path d="M210.44601,101.85337c0.96386,0.09688 1.7041,1.95902 1.7041,1.95902l0.2832,2.07974c-0.30971,-0.01129 -0.58414,0.02623 -0.81478,0.12156c-0.36604,0.15127 -0.62075,0.43209 -0.77596,0.78976c-0.31036,0.71533 -0.25455,1.74563 0.00869,2.89795c0.50057,2.19133 1.77002,4.80451 2.97314,6.39525l0.42742,3.27451c-0.73769,-0.34383 -6.0358,31.36686 -7.57001,27.76553c-0.94442,-2.21688 2.10874,-38.51756 2.06915,-40.05093c-0.10388,-4.02428 0.44195,-5.06197 1.49943,-5.22685c0.06609,-0.01031 0.13143,-0.01189 0.19562,-0.00553zM213.74811,115.53957c-1.07835,-1.57437 -2.1749,-3.92575 -2.62267,-5.88592c-0.25791,-1.12888 -0.29498,-2.12719 -0.02264,-2.75491c0.13617,-0.31386 0.34264,-0.53291 0.63713,-0.65462c0.19445,-0.08033 0.43738,-0.11325 0.728,-0.09745z" fill="#ffffff"/></g><g><path d="M276.5996,124.94118c-0.14509,-0.18169 0.63444,-2.23406 1.46969,-4.80258c1.35691,-4.17273 2.79534,-9.71418 3.23676,-10.55004c0.71316,-1.35036 2.28096,-2.92485 3.28386,-2.54013c1.00291,0.3847 1.99622,1.72846 -0.31929,9.42011c-2.31551,7.69163 -7.29027,8.94945 -7.67105,8.47262z" fill="#000000"/><path d="M283.9976,107.77355c0.0601,0.00486 0.11992,0.01777 0.17879,0.03929c0.94174,0.34515 1.25436,1.45924 0.42619,5.39545c-0.31555,1.4998 -1.30844,4.50805 -2.57992,6.52278c-2.06554,3.2729 -3.97928,4.35405 -4.71976,4.56414l0.99692,-3.11159c1.39521,-1.35467 3.03754,-3.70248 3.89651,-5.76896c0.4517,-1.08666 0.69058,-2.08932 0.53561,-2.84596c-0.07747,-0.3783 -0.26042,-0.69836 -0.56924,-0.91037c-0.19461,-0.13361 -0.43995,-0.21802 -0.72659,-0.26055l0.63889,-1.99445c0,0 1.01927,-1.70152 1.92262,-1.6298zM281.35793,111.64186c0.26995,0.0348 0.48716,0.10919 0.65122,0.2218c0.24846,0.17058 0.39833,0.42157 0.46632,0.75355c0.13597,0.66394 -0.0798,1.63846 -0.52238,2.70299c-0.76838,1.84848 -2.20413,3.969 -3.48172,5.3292z" fill="#ffffff"/></g></g><path d="M270.10674,85.95052c0,0 1.68008,-0.16397 4.76263,-0.22784c2.81557,-0.05832 5.16789,0.36528 5.16789,0.36528l0.58046,1.14786c0,0 -4.05722,16.87405 -7.51241,17.74843c-3.52208,0.8913 -6.47203,-14.18014 -9.54459,-10.24809c-7.32434,-0.108 -9.62831,3.13598 -9.62831,3.13598l-0.45713,-6.50679c0,0 2.68474,-2.77501 7.53631,-4.46366c5.02376,-1.74857 8.56285,-2.00542 8.56285,-2.00542z" data-paper-data="{&quot;index&quot;:null}" fill="#000000" fill-rule="nonzero" stroke="none" stroke-width="1.5" stroke-linecap="butt" stroke-linejoin="miter"/><path d="M252.99725,136.31733c0.59789,0.27865 3.21004,1.78098 6.28293,3.33014c3.09737,1.56149 7.59497,3.10652 7.5593,3.28589c-0.04529,0.22763 -11.29533,-0.66441 -14.8367,-0.50929c-2.96771,0.12998 -7.28912,0.17942 -7.28912,0.17942c0,0 -7.14585,1.78102 -13.69932,-0.14364c-5.25237,-1.54254 -11.5217,-6.35705 -11.52507,-6.45905c-0.00455,-0.13754 4.24199,-0.43076 7.49561,-0.91216c1.28147,-0.43674 6.00748,-1.1306 6.00748,-1.1306c0,0 5.37937,0.13199 8.17082,1.28889c2.99101,1.23962 2.85074,2.88978 3.11628,2.93677c0,0 1.43228,-1.78703 2.74319,-2.06768c1.31092,-0.28065 5.52798,-0.00685 5.97461,0.2013z" fill="#ffffff" fill-rule="nonzero" stroke="#000000" stroke-width="1.4" stroke-linecap="butt" stroke-linejoin="miter"/><path d="M233.11121,140.38977c5.41185,1.55328 12.63309,4.07246 12.63309,4.07246c0,0 6.39189,-1.17651 9.28729,-1.24588c2.24472,-0.05379 12.18132,0.21427 12.19666,0.62094c0.00455,0.1205 -6.20667,4.39564 -8.8483,9.83544c-2.28481,4.70501 -0.82636,10.55028 -3.32266,12.08379c-2.21115,1.35835 -3.15886,-9.39716 -5.0212,-12.44247c-1.62545,-2.65792 -4.09973,2.44303 -6.74499,2.12976c-1.92065,-0.21628 -6.25201,6.81175 -8.51678,6.36824c-2.977,-0.58298 -3.8531,-8.92323 -5.6716,-12.12981c-1.00426,-1.77082 -2.2752,9.15597 -3.645,7.74808c-2.53764,-2.60818 -0.0661,-11.78927 -0.8232,-16.58619c-0.62553,-3.96331 -4.68889,-3.88419 -4.67529,-3.92809c0.05564,-0.17946 7.74013,1.92046 13.15198,3.47375z" fill="#ffffff" fill-rule="nonzero" stroke="#000000" stroke-width="1.9" stroke-linecap="butt" stroke-linejoin="miter"/><path d="M244.56924,137.33398c-1.11705,-0.09012 -3.53896,-3.83155 -3.62425,-6.12598c-0.0763,-2.05288 1.75478,-4.02179 4.42551,-3.80633c2.67073,0.21546 4.49791,0.89663 3.98958,4.87732c-0.43141,3.37831 -2.12012,5.27044 -4.79084,5.05499z" fill="#ffffff" fill-rule="nonzero" stroke="#000000" stroke-width="1.15" stroke-linecap="butt" stroke-linejoin="miter"/><path d="M251.08494,105.12947c0,0 -0.23519,4.29857 -0.61502,7.70135c-0.75212,6.7381 -6.91731,58.72892 -6.91731,58.72892c0,0 -4.67065,14.58592 -5.53224,13.10828c-0.76091,-1.30495 0.62709,-21.52059 0.62709,-21.52059c0,0 4.5073,-25.24291 4.62558,-31.0271c0.16012,-7.82942 0.93461,-17.64522 0.88646,-21.28072c-0.04564,-3.4461 -0.46996,-6.25308 -0.46996,-6.25308" fill="#ffffff" fill-rule="nonzero" stroke="#000000" stroke-width="1.3" stroke-linecap="round" stroke-linejoin="miter"/><path d="M222.19164,103.00127c0.50309,-5.27986 6.00717,-9.23435 11.80635,-8.68178c5.79916,0.55256 9.38427,5.37765 8.88119,10.65752c-0.50309,5.27986 -5.38389,11.14517 -11.18307,10.59262c-5.79916,-0.55256 -10.00757,-7.28848 -9.50447,-12.56835z" fill="#ffffff" fill-rule="nonzero" stroke="#000000" stroke-width="1.4" stroke-linecap="butt" stroke-linejoin="miter"/><path d="M224.79218,105.71539c0.45651,-2.9772 4.71058,-5.16071 9.50173,-4.87704c4.79117,0.28367 8.30506,2.92712 7.84855,5.90431c-0.45651,2.9772 -4.8008,9.18551 -9.59197,8.90184c-4.79117,-0.28367 -8.21482,-6.95192 -7.75832,-9.92912z" fill="#000000" fill-rule="nonzero" stroke="none" stroke-width="1.5" stroke-linecap="butt" stroke-linejoin="miter"/><path d="M251.42791,105.36064c0.64604,-5.26429 5.58363,-9.18409 11.32996,-8.72052c5.74631,0.46357 9.6761,5.09413 9.24961,10.38073c-0.42649,5.2866 -6.87323,18.93685 -12.73142,27.04766c-3.54544,-11.18145 -8.52284,-23.21012 -7.84814,-28.70788z" fill="#ffffff" fill-rule="nonzero" stroke="#000000" stroke-width="1.4" stroke-linecap="butt" stroke-linejoin="miter"/><path d="M260.04385,105.85017c0.6823,-2.97828 3.64979,-4.83954 6.62808,-4.15724c2.97828,0.6823 4.83954,3.64979 4.15724,6.62808c-0.36616,1.59829 -4.02024,11.07955 -6.84625,16.7719c-2.44002,4.91485 -4.16198,6.37545 -3.81772,5.0022c0.81399,-3.24713 -0.80364,-21.26666 -0.12134,-24.24494z" fill="#000000" fill-rule="nonzero" stroke="none" stroke-width="1.5" stroke-linecap="butt" stroke-linejoin="miter"/><path d="M222.16409,102.42025c0,0 0.85456,-9.73597 12.22459,-8.61183c10.21967,1.00485 9.50542,10.9982 9.50542,10.9982z" fill="#ffffff" fill-rule="nonzero" stroke="#000000" stroke-width="1.15" stroke-linecap="butt" stroke-linejoin="miter"/><path d="M251.05488,104.89332c0,0 0.55775,-10.24182 12.89397,-8.86052c10.46793,1.20716 9.47458,11.26225 9.47458,11.26225z" fill="#ffffff" fill-rule="nonzero" stroke="#000000" stroke-width="1.15" stroke-linecap="butt" stroke-linejoin="miter"/><path d="M197.42148,303.59033v-124.94086l8.8954,2.5l0.5,122.44086z" fill="#ffffff" fill-rule="nonzero" stroke="none" stroke-width="0" stroke-linecap="butt" stroke-linejoin="miter"/><path d="M273.12676,303.59033v-124.60904l9.07609,-2.5l0.5,127.10904z" fill="#ffffff" fill-rule="nonzero" stroke="none" stroke-width="0" stroke-linecap="butt" stroke-linejoin="miter"/><g fill-rule="nonzero" stroke="none" stroke-linecap="butt" stroke-linejoin="miter"><path d="M279.33047,168.50123c0,2.52795 -1.72041,7.05643 -3.99556,7.05643c-2.27515,0 -4.24349,-4.52849 -4.24349,-7.05643c0,-2.52795 1.84438,-4.57725 4.11952,-4.57725c2.27515,0 4.11952,2.0493 4.11952,4.57725z" fill="#ffb66d" stroke-width="0"/><path d="M277.14443,170.77092c-0.16402,0.2115 -0.33745,0.65753 -0.83662,0.62733c-0.00959,-0.00349 -1.51032,3.48869 -1.51032,3.48869c-0.04789,-0.01748 -0.61428,-3.57761 -0.68133,-3.60207c-0.26822,-0.09788 0.13153,-0.51819 0.12663,-0.80219c-0.00244,-0.14202 0.05696,-0.30485 0.14074,-0.4154c0.007,-0.01917 0.02007,-0.02525 0.04273,-0.02784l0.00396,-0.00182c-0.05243,-0.09531 -0.08218,-0.20156 -0.08548,-0.31014c-0.16389,0.09216 -0.8236,1.94654 -1.03435,1.86962l-0.14311,-0.99866c-0.27781,-0.10138 0.11844,-1.18149 0.10306,-1.43676c-0.1569,0.07302 -0.58256,3.08393 -0.76456,3.01752c-0.30654,-0.11188 -0.19168,-3.31223 -0.17301,-3.63106l0.0316,-0.20556c0.09648,-0.56182 0.30793,-1.08168 0.61515,-1.5666c0.32197,-0.43609 0.60601,-0.44101 0.78801,-0.37457c0.16284,0.05943 0.26897,0.18501 0.31492,0.38631c0.18501,-0.269 0.53714,-0.40099 0.8341,-0.29263l0.01916,0.00699c0.20118,0.07342 0.33163,0.2513 0.38276,0.49791c0.1911,-0.25592 0.53015,-0.38185 0.81752,-0.27698l0.00957,0.0035c0.28739,0.10489 0.46561,0.41961 0.45044,0.72885c0.23457,-0.19662 0.44714,-0.18417 0.58126,-0.13523l0.08621,0.03146c0.30654,0.11188 0.45514,0.44832 0.38843,0.86905c-0.03111,0.18835 -0.06368,0.35292 -0.10123,0.50619c0.08735,0.14269 0.13507,0.33857 0.12172,0.59766c0,0 0,-0.00001 -0.00349,0.00957c-0.04419,0.53749 -0.21899,1.01645 -0.52437,1.4369zM274.66837,170.02962c0.05503,0.05534 0.1193,0.10495 0.19131,0.13496c0.00585,0.00238 0.01169,0.00477 0.01766,0.00693l0.00958,0.00349c0.26822,0.09788 0.53929,-0.02028 0.63369,-0.27892l0.05243,-0.14368l0.3426,-0.93878c0.02096,-0.05747 0.07327,-0.0818 0.13074,-0.06083c0.05747,0.02098 0.08182,0.07327 0.06085,0.13074l-0.3426,0.93877c-0.0839,0.22991 0.04476,0.47225 0.28425,0.55965l0.08621,0.03146c0.29696,0.10838 0.50022,-0.12139 0.59448,-0.26067l0.13969,-0.26382c0.23017,-0.4615 0.35129,-0.75789 0.44899,-1.09844c0.04885,-0.18086 0.08886,-0.37363 0.128,-0.60149c0.05516,-0.24041 0.00586,-0.55149 -0.24319,-0.64238l-0.08621,-0.03146c-0.15325,-0.05594 -0.30666,0.00748 -0.46021,0.19026c-0.03315,0.03132 -0.08197,0.04608 -0.12028,0.0321l-0.09579,-0.03496c-0.04788,-0.01748 -0.0818,-0.07328 -0.06083,-0.13076c0.08481,-0.26214 -0.0551,-0.56287 -0.29458,-0.65027l-0.00958,-0.00349c-0.23948,-0.0874 -0.54021,0.05252 -0.64418,0.30766c-0.01748,0.04789 -0.08286,0.07832 -0.13074,0.06085l-0.09579,-0.03496c-0.03832,-0.01398 -0.06966,-0.04712 -0.06524,-0.08893c-0.00504,-0.16466 -0.06314,-0.39212 -0.2643,-0.46554l-0.01916,-0.00699c-0.23948,-0.0874 -0.54022,0.05252 -0.64418,0.30766c-0.01748,0.04788 -0.08284,0.07831 -0.13074,0.06083l-0.09581,-0.03496c-0.04789,-0.01748 -0.06966,-0.04713 -0.07832,-0.08286c-0.02679,-0.19432 -0.0946,-0.30591 -0.20956,-0.34785c-0.17243,-0.06294 -0.35289,0.0449 -0.54398,0.30081c-0.29324,0.44657 -0.48811,0.9508 -0.58369,1.48039l-0.02811,0.19599c-0.01943,0.23173 0.05188,0.33373 0.28181,0.41763c0.22031,0.08042 0.43909,-0.01343 0.51251,-0.2146l0.2552,-0.69928c0.02096,-0.05747 0.07328,-0.08182 0.13076,-0.06085c0.05747,0.02098 0.08181,0.07328 0.06085,0.13076l-0.2552,0.69929l-0.02447,0.06705l-0.014,0.03832c-0.09089,0.24907 0.04034,0.51407 0.30856,0.61195l0.01917,0.007c0.26822,0.09788 0.53931,-0.02028 0.63019,-0.26935l0.29366,-0.80464c0.02096,-0.05747 0.07327,-0.08181 0.13074,-0.06085c0.05747,0.02098 0.08181,0.07327 0.06085,0.13075l-0.29366,0.80465l-0.06644,0.182c-0.06154,0.1686 -0.01837,0.35043 0.09608,0.47965zM277.4824,169.30942c0.00272,-0.09671 -0.00763,-0.18733 -0.01189,-0.26487c-0.10579,0.31961 -0.22984,0.6 -0.40708,0.93694l-0.14319,0.27338c-0.10229,0.16601 -0.22626,0.28137 -0.36249,0.34384c-0.15087,0.07338 -0.31735,0.08106 -0.48649,0.01933l-0.0862,-0.03146c-0.19892,-0.07259 -0.34223,-0.20994 -0.39996,-0.37982c-0.18401,0.19553 -0.47656,0.26619 -0.74892,0.1668l-0.00959,-0.0035l-0.00958,-0.0035c-0.09785,-0.03572 -0.18282,-0.0894 -0.2527,-0.15551l-0.02677,-0.00076c-0.05062,0.07921 -0.08907,0.1846 -0.0883,0.27171c-0.00376,0.24829 0.19375,0.45064 0.45772,0.47098l1.36157,0.10612c0.35108,0.01958 0.54384,-0.18146 0.72795,-0.4182c0.28534,-0.3952 0.44267,-0.82627 0.48594,-1.33152z" fill="#e2a261" stroke-width="1"/><path d="M277.05607,170.67498c-0.12199,0.1569 -0.2653,0.31202 -0.45027,0.39313c-0.09416,0.04129 -0.19911,0.0634 -0.31754,0.05678l-1.21051,2.57491c-0.4127,2.9051 -0.69836,-2.95077 -0.6946,-3.19907c-0.00077,-0.08711 0.03552,-0.20367 0.08614,-0.28289l0.16323,-0.01451c0.06989,0.06611 0.15287,0.10942 0.25072,0.14513l0.00949,0.00315l0.00949,0.00317c0.27234,0.09939 0.56249,0.02173 0.7465,-0.1738c0.05773,0.16989 0.13497,0.26439 0.33389,0.33698l0.07609,0.03258c0.16915,0.06173 0.29773,0.07498 0.4486,0.00159c0.13621,-0.06247 0.24347,-0.14552 0.34577,-0.31152l0.14185,-0.25471c0.17725,-0.33695 0.31277,-0.58357 0.41856,-0.90316c0.00426,0.07754 0.13331,0.09973 0.13059,0.19644c-0.04327,0.50523 -0.20262,1.00057 -0.48797,1.39576z" data-paper-data="{&quot;noHover&quot;:false,&quot;origItem&quot;:[&quot;Path&quot;,{&quot;applyMatrix&quot;:true,&quot;segments&quot;:[[[273.91213,176.61986],[-0.03151,0.36793],[0.00198,-0.07043]],[[273.90347,176.42697],[0.0031,0.05647],[-0.07704,0.23275]],[[273.60702,177.1093],[0.12908,-0.24538],[0,0]],[[273.50274,177.30839],[0,0],[-0.07449,0.12089]],[[273.23877,177.55879],[0.0992,-0.04549],[-0.10987,0.05344]],[[272.88449,177.57287],[0.12318,0.04495],[0,0]],[[272.82171,177.54996],[0,0],[-0.14486,-0.05286]],[[272.53043,177.27336],[0.04204,0.12372],[-0.134,0.14239]],[[271.98505,177.39483],[0.19833,0.07238],[0,0]],[271.97807,177.39228],[[271.9711,177.38973],[0,0],[-0.07126,-0.02601]],[[271.78706,177.27648],[0.0509,0.04814],[0,0]],[[271.76757,177.27592],[0,0],[-0.03686,0.05769]],[[271.70326,177.4738],[-0.00056,-0.06344],[-0.00274,0.18081]],[[272.03659,177.81679],[-0.19222,-0.01481],[0,0]],[[273.02814,177.89407],[0,0],[0.25567,0.01426]],[[273.55825,177.58952],[-0.13407,0.17242],[0.2078,-0.2878]]],&quot;closed&quot;:true,&quot;fillColor&quot;:[0,0,0,1]}]}" fill="#f54e52" stroke-width="0.5"/><path d="M274.54607,169.61344l0.06587,-0.18224l0.26629,-0.82565c0.02096,-0.05747 -0.00866,-0.18641 -0.06612,-0.20739c-0.05747,-0.02098 0.01819,0.04172 -0.00278,0.0992l-0.3227,0.74455c-0.09089,0.24907 -0.60144,1.21287 -0.86965,1.11499l-0.19322,1.13287c-0.26822,-0.09788 -0.09137,-2.27307 -0.00048,-2.52214l0.0136,-0.03972l0.02384,-0.06963l0.25638,-0.73414c0.02096,-0.05747 -0.00161,-0.11489 -0.05908,-0.13588c-0.05747,-0.02098 0.01987,0.04835 -0.0011,0.10583l-0.25301,0.66831c-0.07342,0.20116 -0.42705,0.32051 -0.64738,0.24011c-0.06526,-0.02382 -0.16746,3.1728 -0.20889,3.14201c-0.10454,-0.07768 -0.0884,-3.40672 -0.07448,-3.57266l0.02819,-0.2015c0.09558,-0.52958 0.30729,-1.07518 0.60053,-1.52175c0.19109,-0.25591 0.38461,-0.37532 0.55704,-0.31238c0.11495,0.04196 0.26076,0.26657 0.28755,0.46087c0.00866,0.03573 -0.04773,-0.04754 0.00017,-0.03006l0.09778,0.03366c0.04789,0.01748 0.11824,-0.01581 0.13572,-0.06371c0.10397,-0.25514 0.43102,-0.40265 0.67051,-0.31526l0.01986,0.00694c0.20118,0.07342 0.27103,0.30105 0.27607,0.46571c-0.00441,0.04182 0.03087,0.07549 0.06917,0.08946l0.10114,0.03605c0.04789,0.01748 0.11876,-0.01136 0.13625,-0.05925c0.10397,-0.25514 0.42133,-0.38685 0.66082,-0.29946l0.00987,0.00369c0.23948,0.0874 0.39748,0.40623 0.31266,0.66836c-0.02096,0.05747 0.01607,0.11832 0.06395,0.13579l0.09725,0.03769c0.03832,0.014 -0.03598,0.06004 -0.00283,0.02873c0.15354,-0.18279 0.43085,-0.30537 0.58411,-0.24944l0.08697,0.03316c0.24907,0.09089 0.30352,0.42056 0.24837,0.66097c-0.03913,0.22786 -0.07906,0.43784 -0.12791,0.6187c-0.0977,0.34054 -0.23177,0.66947 -0.46194,1.13096l-0.14518,0.27033c-0.09425,0.13928 -0.31216,0.38073 -0.60912,0.27236l-0.08782,-0.03053c-0.23948,-0.0874 -0.43607,-0.44909 -0.35217,-0.67899l0.31202,-0.90145c0.02096,-0.05747 -0.00521,-0.10335 -0.06267,-0.12432c-0.05747,-0.02098 0.0222,0.04077 0.00124,0.09824l-0.3791,0.97942l-0.05704,0.1456c-0.0944,0.25864 -0.39424,0.38099 -0.66246,0.28309l-0.00999,-0.00353c-0.00598,-0.00218 -0.01256,-0.00462 -0.01839,-0.00699c-0.07201,-0.03001 -0.14513,-0.08096 -0.20016,-0.13631c-0.11446,-0.12921 -0.1691,-0.31464 -0.10757,-0.48325z" data-paper-data="{&quot;noHover&quot;:false,&quot;origItem&quot;:[&quot;Path&quot;,{&quot;applyMatrix&quot;:true,&quot;segments&quot;:[[[271.86285,177.14434],[-0.08335,-0.0941],[0.04007,0.0403]],[[272.00217,177.24262],[-0.05244,-0.02185],[0.00426,0.00173]],[[272.01503,177.24767],[-0.00435,-0.00159],[0,0]],[[272.022,177.25022],[0,0],[0.19533,0.07128]],[[272.48348,177.04709],[-0.06874,0.18835],[0,0]],[272.52167,176.94245],[[272.77117,176.25881],[0,0],[0.01527,-0.04185]],[[272.86638,176.21451],[-0.04185,-0.01528],[0.04185,0.01528]],[[272.91069,176.30972],[0.01527,-0.04185],[0,0]],[[272.66119,176.99337],[0,0],[-0.0611,0.16742]],[[272.86819,177.40093],[-0.1744,-0.06365],[0,0]],[[272.93097,177.42384],[0,0],[0.21625,0.07892]],[[273.36389,177.234],[-0.06864,0.10143],[0,0]],[[273.46562,177.04189],[0,0],[0.16762,-0.33608]],[[273.79258,176.24196],[-0.07115,0.248],[0.03557,-0.13171]],[[273.88579,175.80393],[-0.0285,0.16593],[0.04017,-0.17507]],[[273.70869,175.33613],[0.18138,0.06619],[0,0]],[[273.64591,175.31322],[0,0],[-0.11161,-0.04074]],[[273.31077,175.45178],[0.11181,-0.13311],[-0.02414,0.02281]],[[273.22318,175.47515],[0.0279,0.01019],[0,0]],[[273.15342,175.44969],[0,0],[-0.03487,-0.01273]],[[273.10911,175.35447],[-0.01527,0.04185],[0.06176,-0.1909]],[[272.89459,174.88093],[0.1744,0.06365],[0,0]],[[272.88761,174.87838],[0,0],[-0.1744,-0.06365]],[[272.4185,175.10243],[0.07572,-0.1858],[-0.01273,0.03488]],[[272.32328,175.14674],[0.03488,0.01273],[0,0]],[[272.25352,175.12128],[0,0],[-0.0279,-0.01018]],[[272.20601,175.05651],[-0.00321,0.03045],[-0.00367,-0.11991]],[[272.01354,174.71749],[0.1465,0.05346],[0,0]],[[271.99959,174.7124],[0,0],[-0.1744,-0.06365]],[[271.53047,174.93645],[0.07572,-0.1858],[-0.01273,0.03487]],[[271.43526,174.98074],[0.03488,0.01273],[0,0]],[[271.36549,174.95528],[0,0],[-0.03488,-0.01273]],[[271.30846,174.89494],[0.00631,0.02602],[-0.01951,-0.14151]],[[271.15585,174.64162],[0.08371,0.03055],[-0.12557,-0.04583]],[[270.7597,174.86068],[0.13916,-0.18636],[-0.21355,0.32521]],[[270.33464,175.93875],[0.06961,-0.38566],[0,0]],[[270.31417,176.08148],[0,0],[-0.01415,0.16875]],[[270.51938,176.38561],[-0.16743,-0.0611],[0.16044,0.05856]],[[270.89261,176.22934],[-0.05347,0.14649],[0,0]],[[271.07846,175.72009],[0,0],[0.01527,-0.04185]],[[271.17368,175.67578],[-0.04185,-0.01528],[0.04185,0.01528]],[[271.21799,175.77101],[0.01527,-0.04185],[0,0]],[271.03214,176.28026],[271.01432,176.32909],[[271.00413,176.35699],[0,0],[-0.06619,0.18138]],[[271.22884,176.80264],[-0.19533,-0.07128],[0,0]],[[271.2428,176.80773],[0,0],[0.19533,0.07128]],[[271.70173,176.61158],[-0.06619,0.18138],[0,0]],[[271.91558,176.02561],[0,0],[0.01527,-0.04185]],[[272.01079,175.9813],[-0.04185,-0.01528],[0.04185,0.01528]],[[272.0551,176.07652],[0.01527,-0.04185],[0,0]],[271.84125,176.6625],[[271.79287,176.79505],[0,0],[-0.04481,0.12278]]],&quot;closed&quot;:true,&quot;fillColor&quot;:[0,0,0,1]}]}" fill="#f54e52" stroke-width="0.5"/></g><path d="M231.24048,88.32237c0,0 3.45213,0.82085 8.13063,3.35213c4.51812,2.44454 6.7233,5.61403 6.7233,5.61403l1.26714,19.77878c0,0 -5.99219,-16.1074 -11.83394,-19.66999c-7.30608,-4.45556 -16.07922,-7.6822 -16.07922,-7.6822l1.27351,-1.89369c0,0 2.63016,-0.24552 5.39997,0.26339c3.03246,0.55718 4.42417,1.1928 4.42417,1.1928z" data-paper-data="{&quot;index&quot;:null}" fill="#000000" fill-rule="nonzero" stroke="none" stroke-width="1.5" stroke-linecap="butt" stroke-linejoin="miter"/></g></g></svg>