<svg version="1.1" xmlns="http://www.w3.org/2000/svg" xmlns:xlink="http://www.w3.org/1999/xlink" width="36.17311" height="36.17311" viewBox="0,0,36.17311,36.17311"><g transform="translate(-221.9135,-161.9135)"><g data-paper-data="{&quot;isPaintingLayer&quot;:true}" stroke-miterlimit="10" stroke-dasharray="" stroke-dashoffset="0" style="mix-blend-mode: normal"><path d="M229.98317,162.9135h20.03378c3.9166,0 7.06966,3.15307 7.06966,7.06966v20.03379c0,3.91659 -3.15306,7.06966 -7.06966,7.06966h-20.03378c-3.91659,0 -7.06967,-3.15307 -7.06967,-7.06966v-20.03379c0,-3.91659 3.15308,-7.06966 7.06967,-7.06966z" fill="#ffffff" fill-rule="evenodd" stroke="#000000" stroke-width="2" stroke-linecap="round" stroke-linejoin="round"/><g data-paper-data="{&quot;index&quot;:null}" fill="#000000" fill-rule="nonzero" stroke="#ffffff" stroke-width="1" stroke-linecap="butt" stroke-linejoin="miter"><path d="M252.42759,176.984c0,0 -0.71544,0.90536 -1.69341,1.4065c-2.50625,1.28427 -13.51908,7.00876 -18.11049,9.2209c-1.20687,0.58147 -2.22839,0.66255 -2.22839,0.66255l-2.82289,-5.25793c0,0 0.63524,-0.82485 1.68079,-1.39356c4.32065,-2.35012 15.65605,-8.02908 18.20441,-9.33492c0.97797,-0.50114 2.14708,-0.56148 2.14708,-0.56148l2.82289,5.25793z"/><path d="M231.27051,170.32238l5.15473,-2.74606c0,0 0.94044,0.72456 1.4866,1.70559c1.42316,2.55633 7.82277,13.81941 10.16305,18.26682c0.56633,1.07623 0.65458,2.12889 0.65458,2.12889l-5.15473,2.74606c0,0 -0.80658,-0.6567 -1.5003,-1.83659c-2.63919,-4.48879 -8.74612,-15.60368 -10.14577,-18.11779c-0.54616,-0.98104 -0.65817,-2.14692 -0.65817,-2.14692z" data-paper-data="{&quot;index&quot;:null}"/><path d="M240.76676,184.0761c0,0 -1.04522,-1.06002 -1.46072,-1.75665c-0.48817,-0.81846 -1.65412,-2.67589 -2.34447,-4.03562c-0.42276,-0.83269 -0.5644,-1.53376 -0.5644,-1.53376l2.99354,-1.65912l3.8763,7.5902z"/></g></g></g></svg>