<svg version="1.1" xmlns="http://www.w3.org/2000/svg" xmlns:xlink="http://www.w3.org/1999/xlink" width="95.46131" height="255.07291" viewBox="0,0,95.46131,255.07291"><defs><linearGradient x1="241.10443" y1="149.45792" x2="241.10443" y2="304.49843" gradientUnits="userSpaceOnUse" id="color-1"><stop offset="0" stop-color="#242424"/><stop offset="1" stop-color="#fbfbfb"/></linearGradient><linearGradient x1="283.46374" y1="103.90646" x2="283.46374" y2="107.15646" gradientUnits="userSpaceOnUse" id="color-2"><stop offset="0" stop-color="#ffffff"/><stop offset="1" stop-color="#ffffff" stop-opacity="0"/></linearGradient><linearGradient x1="310.7965" y1="-159.89218" x2="310.7965" y2="411.54126" gradientUnits="userSpaceOnUse" id="color-3"><stop offset="0" stop-color="#ec0000"/><stop offset="1" stop-color="#ec0000" stop-opacity="0"/></linearGradient><linearGradient x1="244.0285" y1="82.30072" x2="244.0285" y2="164.00736" gradientUnits="userSpaceOnUse" id="color-4"><stop offset="0" stop-color="#ffffff"/><stop offset="1" stop-color="#171717"/></linearGradient><linearGradient x1="213.96813" y1="103.94709" x2="213.96813" y2="122.9314" gradientUnits="userSpaceOnUse" id="color-5"><stop offset="0" stop-color="#b2b2b2"/><stop offset="1" stop-color="#868686"/></linearGradient><radialGradient cx="229.5615" cy="111.32228" r="4.99509" gradientUnits="userSpaceOnUse" id="color-6"><stop offset="0" stop-color="#ff4a4a"/><stop offset="1" stop-color="#000000"/></radialGradient><linearGradient x1="229.56406" y1="105.78233" x2="229.56406" y2="115.77249" gradientUnits="userSpaceOnUse" id="color-7"><stop offset="0" stop-color="#ffffff"/><stop offset="1" stop-color="#ffffff" stop-opacity="0"/></linearGradient><linearGradient x1="280.90124" y1="86.28146" x2="280.90124" y2="101.15646" gradientUnits="userSpaceOnUse" id="color-8"><stop offset="0" stop-color="#ffffff"/><stop offset="1" stop-color="#ffffff" stop-opacity="0"/></linearGradient><linearGradient x1="243.58807" y1="133.04346" x2="243.58807" y2="142.23517" gradientUnits="userSpaceOnUse" id="color-9"><stop offset="0" stop-color="#5b5b5b"/><stop offset="1" stop-color="#4c4c4c"/></linearGradient><linearGradient x1="243.67699" y1="112.14155" x2="243.67699" y2="147.03737" gradientUnits="userSpaceOnUse" id="color-10"><stop offset="0" stop-color="#a9a9a9"/><stop offset="1" stop-color="#474747"/></linearGradient></defs><g transform="translate(-193.98781,-50.99384)"><g data-paper-data="{&quot;isPaintingLayer&quot;:true}" fill-rule="nonzero" stroke-linejoin="miter" stroke-miterlimit="10" stroke-dasharray="" stroke-dashoffset="0" style="mix-blend-mode: normal"><path d="M198.26709,304.21885v-253.22501h91.18203v253.22501z" fill-opacity="0.01" fill="#000000" stroke="none" stroke-width="0" stroke-linecap="butt"/><path d="M271.39828,305.56674c0,0 0,-34.70145 0,-41.66667c0,-2.33101 2.83333,-6.16667 2.83333,-6.16667l1.5,1c0,0 -0.83333,-0.34893 -0.83333,2.33333c0,2.87458 -0.74402,13.38221 -0.83787,20.82697c-0.14477,11.48319 0.83787,23.67303 0.83787,23.67303z" fill="#ffffff" stroke="#000000" stroke-width="1" stroke-linecap="butt"/><path d="M276.73161,305.56674c0,0 0.98264,-12.18984 0.83787,-23.67302c-0.09386,-7.44476 -0.6712,-16.78573 -0.6712,-19.6603c0,-2.68226 -1,-3.5 -1,-3.5l1.5,-1c0,0 2.83333,3.83566 2.83333,6.16666c0,6.96522 0,41.66667 0,41.66667z" data-paper-data="{&quot;index&quot;:null}" fill="#ffffff" stroke="#000000" stroke-width="1" stroke-linecap="butt"/><path d="M201.54534,304.39162c0,0 -0.63536,-94.38387 -0.79335,-118.01201c-0.05451,-8.15261 8.18688,-36.76129 40.20201,-36.9211c31.60235,-0.15775 39.85672,29.48704 39.84884,36.89673c-0.03784,22.84869 0.12145,51.92314 0.2923,75.49278c-3.39783,-0.00617 -6.79574,-0.00038 -10.19358,0.00148l-0.09992,-72.25475c0,0 0.07549,-3.0993 -2.81625,-3.15415c-3.43441,-0.06514 -2.94538,3.11562 -2.94538,3.11562l0.20548,114.86995l-48.21366,0.07222l-0.30539,-115.23309c0,0 0.27949,-2.919 -2.8856,-2.93443c-3.11083,-0.01515 -2.81569,2.90899 -2.81569,2.90899l0.35311,115.0668z" fill="url(#color-1)" stroke="#000000" stroke-width="2" stroke-linecap="butt"/><path d="M256.1425,200.33392c-0.57113,0 -1.03411,-0.46299 -1.03411,-1.03411c0,-0.57113 0.46299,-1.03413 1.03411,-1.03413c0.57113,0 1.03411,0.463 1.03411,1.03413c0,0.57113 -0.46299,1.03411 -1.03411,1.03411z" fill="#000000" stroke="none" stroke-width="1.5" stroke-linecap="butt"/><path d="M250.88263,204.56951c-4.4635,-0.31439 -6.55245,-1.79392 -6.16985,-2.58011c0.11788,-0.24224 2.84645,1.06355 6.97038,1.3048c6.40897,0.37493 8.51033,-0.63173 8.51033,-0.63173v1.34616c0,0 -2.4135,1.04672 -9.31086,0.56089z" fill="#000000" stroke="#000000" stroke-width="0" stroke-linecap="butt"/><path d="M223.06988,199.29981c0,-0.57113 0.46299,-1.03413 1.03411,-1.03413c0.57113,0 1.03413,0.463 1.03413,1.03413c0,0.57113 -0.463,1.03411 -1.03413,1.03411c-0.57113,0 -1.03411,-0.46299 -1.03411,-1.03411z" fill="#000000" stroke="none" stroke-width="1.5" stroke-linecap="butt"/><path d="M229.36386,204.56951c-6.89736,0.48585 -9.31086,-0.56089 -9.31086,-0.56089v-1.34616c0,0 2.10136,1.00666 8.51033,0.63173c4.12393,-0.24126 6.85251,-1.54704 6.97039,-1.3048c0.3826,0.78618 -1.70634,2.26571 -6.16985,2.58011z" fill="#000000" stroke="#000000" stroke-width="0" stroke-linecap="butt"/><path d="M195.92,241.7301c0,0 1.4178,-8.26883 1.25841,-12.65938c-0.37178,-10.2408 -1.85841,-51.19062 -1.85841,-51.19062c0,0 5.07256,-21.88858 18.64302,-19.97745c0.44724,0.06299 25.15698,26.57745 25.15698,26.57745l-16.8,21.8z" fill="#960000" stroke="none" stroke-width="0" stroke-linecap="butt"/><path d="M271.08495,224.38135v-20.1012c0,0 3.15501,1.01275 4.53647,1.69451c1.53555,0.75779 4.46353,2.77242 4.46353,2.77242l0.2,15.63427c0,0 -1.53118,-15.1883 -2.29886,-13.38423c-0.96149,2.25952 -1.29399,21.36643 -2.41859,18.27981c-0.99562,-2.73261 -1.32522,-24.12821 -1.88255,-24.12821c-1.00371,0 -2.6,19.23263 -2.6,19.23263z" fill="#040404" stroke="#000000" stroke-width="1.5" stroke-linecap="butt"/><path d="M240.64432,261.12113c-0.81895,0 -1.48284,-0.66389 -1.48284,-1.48284c0,-0.81895 0.66389,-1.48284 1.48284,-1.48284c0.81895,0 1.48284,0.66389 1.48284,1.48284c0,0.81895 -0.66389,1.48284 -1.48284,1.48284z" data-paper-data="{&quot;index&quot;:null}" fill="#000000" stroke="none" stroke-width="1.5" stroke-linecap="butt"/><path d="M264.08495,231.8135l-6.2,-5.4l-3.8,6l-9.4,-17.6l8.2,11.2l4.8,-5.4l6.6,5.2z" fill="#520000" stroke="#520000" stroke-width="0.5" stroke-linecap="round"/><path d="M264.08495,241.4135l-6.2,-5.4l-3.8,6l-9.4,-17.6l8.2,11.2l4.8,-5.4l6.6,5.2z" fill="#6a0000" stroke="#6a0000" stroke-width="0.5" stroke-linecap="round"/><path d="M264.48495,250.8135l-6.2,-5.4l-3.8,6l-9.4,-17.6l8.2,11.2l4.8,-5.4l6.6,5.2z" fill="#870000" stroke="#870000" stroke-width="0.5" stroke-linecap="round"/><path d="M215.08495,305.21335l1,-12.8l-1,-3.2l0.96399,-2.32006c0,0 19.31664,3.37006 26.03601,3.37006c4.7274,0 14.72889,-0.84965 20.28238,-1.80535c2.36561,-0.4071 3.92413,-0.69735 3.92413,-0.69735l0.99349,1.4527l-1,3.8l1,12.2z" fill="#720000" stroke="#000000" stroke-width="0" stroke-linecap="butt"/><path d="M216.03995,292.50838l-1.0086,-3.30924l1.1336,-2.19076l50.125,1l0.78109,1.13101l-0.78109,3.74399c0,0 -18.20362,-2.03323 -27.24738,-2.10073c-7.35443,-0.05489 -23.00262,1.72573 -23.00262,1.72573z" fill="#bf0000" stroke="none" stroke-width="0" stroke-linecap="butt"/><path d="M198.73995,305.35006c0,0 -1.09607,-0.6741 -1.05749,-1.57301c0.14491,-3.37656 2.13216,-24.58923 2.60136,-40.09919c0.14354,-4.74503 -0.91064,-7.83494 -0.99426,-10.88308c-0.07536,-2.74686 0.82539,-5.69471 0.82539,-5.69471l13.75,0.25v58z" fill="#580000" stroke="none" stroke-width="0" stroke-linecap="butt"/><path d="M208.80245,305.41256v-58.125h5v58.125z" fill="#9f0000" stroke="none" stroke-width="0" stroke-linecap="butt"/><path d="M199.17745,251.41265c0,0 -1.25,-3.0867 -1.25,-4.125c0,-0.69776 0.625,-1.75 0.625,-1.75h16v5.625z" fill="#000000" stroke="none" stroke-width="0" stroke-linecap="butt"/><path d="M197.92745,247.78765v-0.75h16.75v0.75z" fill="#ffffff" stroke="none" stroke-width="0" stroke-linecap="butt"/><path d="M211.42745,305.53756v-54.75h1v54.75z" fill="#ffffff" stroke="none" stroke-width="0" stroke-linecap="butt"/><path d="M271.73161,264.23339v-1.83333h3.16667v1.83333z" fill="#000000" stroke="none" stroke-width="0" stroke-linecap="butt"/><path d="M277.06494,263.90004v-1.5h2.5v1.5z" fill="#000000" stroke="none" stroke-width="0" stroke-linecap="butt"/><path d="M278.73161,264.23339v-1.33333h1.33333v1.33333z" fill="#000000" stroke="none" stroke-width="0" stroke-linecap="butt"/><path d="M210.73161,252.73348c0,0.46024 -0.3731,0.83333 -0.83333,0.83333c-0.46024,0 -0.83333,-0.3731 -0.83333,-0.83333c0,-0.46024 0.3731,-0.83333 0.83333,-0.83333c0.46024,0 0.83333,0.3731 0.83333,0.83333z" fill="#ffffff" stroke="none" stroke-width="0" stroke-linecap="butt"/><path d="M210.89828,260.56674c0,0.55228 -0.41041,1 -0.91667,1c-0.50626,0 -0.91667,-0.44772 -0.91667,-1c0,-0.55228 0.41041,-1 0.91667,-1c0.50626,0 0.91667,0.44772 0.91667,1z" fill="#ffffff" stroke="none" stroke-width="0" stroke-linecap="butt"/><path d="M195.92,241.7301c0,0 1.4178,-8.26882 1.25841,-12.65938c-0.37178,-10.2408 -1.85841,-51.19062 -1.85841,-51.19062c0,0 15.27256,-0.08858 18.64302,-19.97745c0.44724,0.06298 25.15698,26.57745 25.15698,26.57745l-16.8,21.8z" fill="#700000" stroke="none" stroke-width="0" stroke-linecap="butt"/><g stroke="none" stroke-width="0" stroke-linecap="butt"><path d="M195.92,241.7301c0,0 1.4178,-8.26883 1.25841,-12.65938c-0.37178,-10.2408 -1.85841,-51.19062 -1.85841,-51.19062c0,0 2.62559,-11.32964 9.15231,-16.97506c0.04524,12.33891 7.32332,27.31998 16.8808,33.37125c1.64646,1.04244 3.99749,2.80754 6.6841,4.58506l-5.71721,7.41876z" fill="#a80000"/><path d="" fill="#a80000"/><path d="M195.92,241.7301c0,0 1.4178,-8.26882 1.25841,-12.65938c-0.37178,-10.2408 -1.85841,-51.19062 -1.85841,-51.19062c0,0 5.92055,-0.03433 11.20263,-4.86074c2.81841,8.79505 8.29085,17.1164 14.83048,21.25694c1.64646,1.04244 3.99749,2.80754 6.6841,4.58506l-5.7172,7.41875z" fill="#830000"/><path d="" fill="#830000"/></g><g stroke="none" stroke-width="0" stroke-linecap="butt"><path d="M200.33694,235.79901c0.18324,-21.98256 0.11006,-43.96826 -0.18694,-65.94896c0,-0.20327 -0.00607,-0.40513 -0.01802,-0.6054c-0.04508,-0.95809 -0.16651,-1.76265 -0.36085,-2.44996c0.7832,-1.34134 1.67916,-2.65776 2.69516,-3.85225c-0.03622,0.31417 -0.05787,0.63278 -0.06427,0.95512c-0.00047,0.06842 -0.0011,0.13596 -0.00201,0.20249c-0.31404,23.04206 -0.37771,46.08976 -0.15245,69.13338z" fill="#debaba"/><path d="" fill="#a80000"/><path d="" fill="#a80000"/><path d="M200.33694,235.799c0.16382,-19.65322 0.12269,-39.30895 -0.10011,-58.96138c0.64287,-0.23523 1.32298,-0.52354 2.02383,-0.87688c-0.18805,19.09001 -0.19972,38.18275 -0.01311,57.27269z" fill="#f7cfcf"/><path d="" fill="#830000"/><path d="" fill="#830000"/></g><path d="M205.65,224.60006c0,0.69036 -0.50368,1.25 -1.125,1.25c-0.62132,0 -1.125,-0.55964 -1.125,-1.25c0,-0.69036 0.50368,-1.25 1.125,-1.25c0.62132,0 1.125,0.55964 1.125,1.25z" fill="#f7cfcf" stroke="none" stroke-width="0" stroke-linecap="butt"/><g data-paper-data="{&quot;index&quot;:null}" stroke="none" stroke-width="0" stroke-linecap="butt"><path d="M255.97906,206.28011l-16.8,-21.8c0,0 24.70974,-26.51446 25.15698,-26.57745c13.57046,-1.91113 18.64302,19.97745 18.64302,19.97745c0,0 -1.48663,40.94982 -1.85841,51.19062c-0.15939,4.39055 1.25841,12.65938 1.25841,12.65938z" fill="#960000"/><path d="M255.97906,206.28008l-16.8,-21.8c0,0 24.70974,-26.51447 25.15698,-26.57745c3.37046,19.88887 18.64302,19.97745 18.64302,19.97745c0,0 -1.48663,40.94982 -1.85841,51.19062c-0.15939,4.39056 1.25841,12.65938 1.25841,12.65938z" fill="#700000"/><g><path d="M255.97906,206.28011l-5.71721,-7.41876c2.68661,-1.77752 5.03764,-3.54262 6.6841,-4.58506c9.55748,-6.05127 16.83556,-21.03234 16.8808,-33.37125c6.52672,5.64542 9.15231,16.97506 9.15231,16.97506c0,0 -1.48663,40.94982 -1.85841,51.19062c-0.15939,4.39055 1.25841,12.65938 1.25841,12.65938z" fill="#a80000"/><path d="" fill="#a80000"/><path d="M255.97905,206.28008l-5.7172,-7.41875c2.68661,-1.77752 5.03764,-3.54262 6.6841,-4.58506c6.53963,-4.14054 12.01207,-12.46189 14.83048,-21.25694c5.28208,4.82641 11.20263,4.86074 11.20263,4.86074c0,0 -0.73663,40.44982 -1.10841,50.69062c-0.15939,4.39056 0.50841,13.15938 0.50841,13.15938z" fill="#830000"/><path d="" fill="#830000"/></g><g><path d="M276.0515,233.23341c0.22526,-23.04362 0.16159,-46.09132 -0.15245,-69.13338c-0.00091,-0.06653 -0.00154,-0.13407 -0.00201,-0.20249c-0.0064,-0.32234 -0.02805,-0.64095 -0.06427,-0.95512c1.016,1.19449 1.91196,2.51091 2.69516,3.85225c-0.19434,0.68731 -0.31577,1.49187 -0.36085,2.44996c-0.01195,0.20027 -0.01802,0.40213 -0.01802,0.6054c-0.297,21.9807 -0.37018,43.9664 -0.18694,65.94896z" fill="#debaba"/><path d="" fill="#a80000"/><path d="" fill="#a80000"/><path d="M276.05151,233.23341c0.18661,-19.08994 0.17494,-38.18268 -0.01311,-57.27269c0.70085,0.35334 1.38096,0.64165 2.02383,0.87688c-0.2228,19.65243 -0.26393,39.30816 -0.10011,58.96138z" fill="#f7cfcf"/><path d="" fill="#830000"/><path d="" fill="#830000"/></g></g><path d="M268.4,162.97501c0,11.94316 -29.375,21.625 -29.375,21.625c0,0 -29.375,-9.68184 -29.375,-21.625c0,-11.94316 9.8183,-19.95834 29.20833,-19.95834c20.5567,0 29.54167,8.01517 29.54167,19.95834z" fill="#c10000" stroke="none" stroke-width="0" stroke-linecap="butt"/><path d="M238.88495,182.88016c0,0 -22.80731,-20.45747 -25.20537,-26.77003c-1.16439,-3.06507 10.60537,-8.77997 10.60537,-8.77997l29.4,-0.25c0,0 12.30428,6.80992 10.77021,9.93964c-2.39093,5.78347 -25.57021,25.86036 -25.57021,25.86036z" fill="#000000" stroke="none" stroke-width="0" stroke-linecap="butt"/><path d="M283.52624,107.15646l-0.125,-3.25" fill="none" stroke="url(#color-2)" stroke-width="2" stroke-linecap="round"/><path d="M257.5191,132.81513v-37.84866l19.12145,0.59139l3.71001,5.05092l-6.26299,27.96001l-16.37135,6.80901z" fill="#f00000" stroke="none" stroke-width="0" stroke-linecap="butt"/><path d="M257.66196,126.66361v-27.42857l13.85714,0.42857l2.68861,3.66036l-4.53873,20.26236l-11.86416,4.93443z" fill="#bd0000" stroke="none" stroke-width="0" stroke-linecap="butt"/><path d="M261.53871,91.33854l18.96557,-9.4563c0,0 5.75502,17.5247 5.81671,26.40719c0.05449,7.84621 -5.46549,24.16555 -5.46549,24.16555l-22.3021,-2.80056z" fill="url(#color-3)" stroke="none" stroke-width="0" stroke-linecap="butt"/><path d="M205.2019,94.69894c0.17735,-1.19658 0.12119,-12.28855 5.31678,-22.71918c0.64674,-1.29838 -3.40509,-0.64404 -3.40509,-0.64404c0,0 10.21342,-9.2269 13.52161,-11.65305c5.00824,-3.67292 11.66853,-6.21391 20.53445,-6.55756c31.81248,-0.65114 38.09669,17.58112 39.99261,30.58774c-5.90964,1.51428 -11.92972,4.03494 -16.73708,7.50253c-6.02672,4.34712 -1.92131,13.69851 -3.32893,19.58493c-0.72733,3.04155 -2.93333,5.52409 -4.4,8.28613l1.60628,5.43774c0.19159,3.44865 8.4647,4.99944 10.58174,5.43958c0.95516,0.19858 1.9112,0.39346 2.87024,0.57237c1.23389,0.23017 5.24123,1.10103 9.30937,1.60976c-0.97385,3.04647 -2.28678,6.15968 -3.46402,8.7133c-1.5476,3.357 -1.36072,8.24695 -1.36072,8.24695c0,0 -1.60837,-1.95592 -2.79637,-3.9836c-0.97607,-1.66596 -1.50589,-3.54284 -2.0189,-3.03101c-1.1374,1.13479 -3.18873,6.16273 -3.18873,6.16273l-0.09205,-3.70421c0,0 -7.0601,11.01795 -24.35066,10.87154c-16.30625,-0.25547 -26.07151,-10.6752 -26.07151,-10.6752l-8.6162,2.90484c0,0 4.60523,-3.54276 2.31855,-9.95754c-2.72545,-7.64567 -3.23946,-12.24324 -3.23946,-12.24324l-3.41369,8.86966c0,0 -5.64205,-8.46717 -3.66604,-10.51989c1.76007,-1.8284 2.64658,-3.37722 2.64658,-3.37722c0,0 -2.10758,1.0847 -4.23277,1.61795c-2.21739,0.5564 -5.53008,-1.96907 -5.53008,-1.96907c0,0 6.47492,-2.53728 8.53074,-8.37429c1.94102,-5.51108 2.09972,-10.95731 2.09972,-10.95731c0,0 -1.36165,0.66163 -3.33013,0.79513c-1.2457,0.08449 -2.37411,-0.04846 -2.37784,-0.0489c0.00872,-0.00838 6.16337,-5.92247 6.2916,-6.7876z" fill="#000000" stroke="none" stroke-width="1.5" stroke-linecap="butt"/><path d="M198.91029,101.48653c0,0 0,0 0.00001,0c-0.00001,0.00001 -0.00001,0.00001 -0.00001,0.00001z" fill="#000000" stroke="none" stroke-width="1.5" stroke-linecap="butt"/><path d="M215.83904,112.80816c-0.57709,-7.29323 0.335,-17.15448 0.335,-17.15448c0,0 3.90843,-1.161 6.1638,-1.83095c2.74389,-0.81507 -1.07686,4.42331 -1.07686,4.42331c0,0 13.02795,-7.97016 14.49401,-8.40326c8.0696,-2.38394 14.88064,-6.82055 14.88064,-6.82055c0,0 -2.16005,3.00503 -3.40781,4.46015c-1.32651,1.54696 -5.39292,4.56297 -5.39292,4.56297c0,0 9.438,-0.66761 16.27476,-3.72931c8.56837,-3.53575 10.39252,-7.05309 12.75042,-5.5927c0.73375,0.45446 1.15218,2.2809 1.36485,4.82612c-0.37049,-0.04162 -0.7471,-0.06299 -1.1287,-0.06299c-5.31262,0 -9.65763,4.14279 -9.98073,9.37404c-0.0106,0.17162 -0.01687,0.34441 -0.0187,0.51827c-0.03228,0.88414 -0.07229,1.72452 -0.22957,2.37326c-1.56413,6.45169 -4.07654,15.06967 -3.171,21.73442c0.23129,1.70232 0.03522,3.78522 1.25,5c2.33753,2.33753 5.29482,4.91645 8.58973,4.99801c-0.25931,2.14414 -0.64963,4.87794 -1.31395,8.53971c-1.12121,6.18021 -4.98481,8.97666 -9.35275,13.99415c-2.67183,3.06915 -8.83159,10.6058 -14.25011,10.26076c-5.33814,-0.33992 -10.59143,-7.57316 -13.36557,-10.65481c-4.50501,-5.00438 -11.5917,-14.22546 -11.5917,-14.22546c0,0 -0.05573,-2.08736 0.53446,-3.73519c0.41291,-1.15286 0.81567,-2.58006 0.99196,-4.10116c0.32907,-2.83943 -0.62249,-6.00606 -0.77289,-8.3263c-0.25298,-3.90273 -2.26119,-6.44504 -2.57636,-10.42801z" fill="url(#color-4)" stroke="#000000" stroke-width="1.5" stroke-linecap="butt"/><path d="M257.76387,99.6627c-6.11722,1.55455 -9.36493,4.4128 -9.36493,4.4128l-0.64186,-4.12747c0,0 2.80459,-2.1954 7.45137,-3.12368c2.75168,-0.5497 4.99792,-0.71516 6.41691,-0.75608c-0.31773,0.93535 -0.50079,1.93292 -0.52609,2.96961c-1.09608,0.13805 -2.2159,0.34033 -3.3354,0.62482z" data-paper-data="{&quot;index&quot;:null}" fill="#000000" stroke="none" stroke-width="1.5" stroke-linecap="butt"/><path d="M217.53868,122.93139c0,0 -4.93211,-3.51705 -6.16417,-8.97502c-1.29636,-5.74284 -1.46118,-9.7328 0.48013,-9.99193c1.94131,-0.25915 2.70321,2.37692 3.73262,8.35569c1.0294,5.97877 1.95143,10.61127 1.95143,10.61127z" data-paper-data="{&quot;index&quot;:null}" fill="url(#color-5)" stroke="#000000" stroke-width="1" stroke-linecap="butt"/><path d="M217.33609,118.98384c0,0 -3.56385,-2.92338 -4.31816,-8.45061c-0.42079,-3.08327 2.15675,-2.28016 2.15675,-2.28016" fill="none" stroke="#000000" stroke-width="0.25" stroke-linecap="round"/><path d="M220.34949,112.32793c0.07093,-4.89188 4.83834,-8.93609 10.21137,-8.8582c5.37302,0.0779 9.02724,4.2484 8.95632,9.14029c-0.07093,4.89188 -4.12352,8.79439 -9.49655,8.7165c-5.37302,-0.0779 -9.74207,-4.1067 -9.67114,-8.99859z" fill="#000000" stroke="#000000" stroke-width="1.4" stroke-linecap="butt"/><path d="M224.56951,110.705c0.03999,-2.75843 2.30855,-4.96213 5.06696,-4.92214c2.75843,0.03999 4.96213,2.30855 4.92214,5.06696c-0.03999,2.75843 -2.30854,4.96213 -5.06696,4.92214c-2.75843,-0.03999 -4.96213,-2.30855 -4.92214,-5.06696z" fill="url(#color-6)" stroke="url(#color-7)" stroke-width="1" stroke-linecap="butt"/><path d="M247.40576,112.32865c0.20353,-4.88817 4.45264,-8.85847 9.77048,-8.85847c5.31783,0 9.27453,3.96607 9.27453,8.85847c0,4.8924 -3.88585,9.07104 -9.69964,9.14188c-5.52997,0.06739 -9.55792,-4.03692 -9.34537,-9.14188z" fill="#ffffff" stroke="#000000" stroke-width="1.4" stroke-linecap="butt"/><path d="M252.00852,112.41422c0,-2.81845 2.2848,-5.10325 5.10325,-5.10325c2.81845,0 5.10325,2.2848 5.10325,5.10325c0,2.81845 -2.28479,5.10325 -5.10325,5.10325c-2.81845,0 -5.10325,-2.2848 -5.10325,-5.10325z" fill="#000000" stroke="none" stroke-width="1.5" stroke-linecap="butt"/><path d="M239.77911,114.56314c0,0 -0.26583,3.55962 -1.8,4.9c-1.53417,1.34038 -4.40367,3.4 -7.7,3.4c-3.29633,0 -5.17306,-0.82201 -7.7,-3.4c-2.52694,-2.57799 -1.7,-6.7 -1.7,-6.7" fill="none" stroke="#000000" stroke-width="2.5" stroke-linecap="round"/><path d="M247.02812,111.92665c0,0 -0.24686,-9.4582 11.19813,-9.1032c9.71427,0.33347 9.54677,9.65229 9.54677,9.65229z" fill="#aeaeae" stroke="#000000" stroke-width="1.15" stroke-linecap="butt"/><path d="M224.76651,97.86468c0,0 3.73844,-0.829 8.35025,-0.00002c1.81191,0.32569 3.28062,0.67925 4.42172,0.99999c2.07736,0.58389 3.06897,1.05897 3.06897,1.05897l-0.84674,4.06064c0,0 -3.50357,-1.70283 -7.57039,-2.69225c-5.43887,-1.32324 -6.78354,-0.43736 -10.99977,-1.15866c-3.61269,-0.61805 -6.52422,-0.97391 -6.52422,-0.97391l0.31162,-1.19175c0,0 3.43813,0.33928 5.0532,0.6501c1.33302,0.25653 4.08073,0.18401 4.08073,0.18401z" fill="#000000" stroke="none" stroke-width="1.5" stroke-linecap="butt"/><path d="M227.4893,121.6822c2.39541,0.30164 5.78981,-0.01906 5.78981,-0.01906c0,0 -2.31418,0.33907 -2.80276,0.98149c-0.76202,1.00198 -1.32581,3.44708 -1.32581,3.44708l-1.37185,-3.74552c0,0 -2.52215,5.74841 -2.78825,6.42066c-0.6549,1.65448 -1.61133,6.43915 -1.61133,6.43915l-1.88571,-6.3l1.78571,-6.44286c0,0 -1.33091,-1.77168 -1.66988,-2.68994c-0.29213,-0.79137 -0.2444,-2.49577 -0.2444,-2.49577c0,0 4.0736,4.14651 6.12448,4.40477z" fill="#000000" stroke="#000000" stroke-width="1.5" stroke-linecap="round"/><path d="M240.33467,118.29646l0.74444,14.56667l-1.96667,2.14444c0,0 -2.87883,0.2244 -3.56794,-0.09019c-0.82101,-0.37481 -2.3654,-1.45425 -2.3654,-1.45425c0,0 1.12601,0.14075 1.80294,0.22537c0.87277,0.1091 2.99706,0.37463 2.99706,0.37463l0.8,-2.2c0,0 -1.94895,0.05619 -3.17778,-0.44444c-1.22883,-0.50063 -2.55556,-2.14444 -2.55556,-2.14444c0,0 1.18703,0.43064 1.6816,0.54068c0.83435,0.18564 3.19618,0.30377 3.19618,0.30377l0.45556,-1.25556l-0.4,-3.1c0,0 -1.34507,0.9529 -2.34444,1.16667c-0.99937,0.21377 -3.72222,0.05556 -3.72222,0.05556c0,0 1.43592,-0.43716 2.1352,-0.85562c0.71162,-0.42585 1.93146,-1.5666 1.93146,-1.5666c0,0 2.65567,-3.53091 3.43914,-4.64235c0.43902,-0.62279 0.91641,-1.62432 0.91641,-1.62432z" fill="#970000" stroke="#970000" stroke-width="0.5" stroke-linecap="round"/><path d="M239.60672,127.46887c0,0 -0.75741,-2.14406 -1.84491,-1.29256c-0.53326,0.41754 -1.17261,0.79394 -1.89386,0.98845c-0.69703,0.18798 -0.69968,0.03773 -2.37462,0.1305c-0.80749,0.04472 -2.88662,-0.10417 -2.88662,-0.10417c0,0 3.49438,-1.32568 4.15072,-1.91321c0.48975,-0.43841 0.97688,-0.89888 1.1848,-1.17025c0.86376,-1.12736 2.16117,-2.84285 2.70973,-3.68183c0.66945,-1.02387 1.78808,-2.73472 1.78808,-2.73472l0.38889,6.61111z" fill="#6b0000" stroke="#000000" stroke-width="0" stroke-linecap="butt"/><path d="M245.77625,123.15647l0.49924,-9.55416l-1.69125,-4.91811l0.75424,-6.03365l11.75977,-1.47933c0,0 2.27311,0.13671 3.87944,0.23333c2.63304,0.15837 10.42355,0.62693 10.42355,0.62693l0.7976,2.38013c0,0 -0.99379,6.52434 -1.59094,9.48943c-0.53742,2.66858 -1.83166,7.50544 -1.83166,7.50544l-1.74757,1.90441c0,0 -3.34955,0.22535 -5.05268,0.33625c-1.18892,0.07742 -5.23278,3.38818 -5.23278,3.38818c0,0 -3.85306,-3.35955 -5.76669,-3.49924c-1.79086,-0.13073 -5.20027,-0.3796 -5.20027,-0.3796z" fill="#c80000" stroke="none" stroke-width="0" stroke-linecap="butt"/><path d="M246.44389,113.72842l-1.9,-4.9l0.8,-6.2c0,0 7.44021,-1.38206 9.51985,-1.65483c0.93263,-0.12233 2.58186,-2.04354 2.58186,-2.04354c0,0 2.25707,1.66772 3.52028,1.75681c2.49638,0.17606 10.47801,1.34156 10.47801,1.34156l0.80288,2.90207l-1.50288,8.49793l-13.19894,-2.45198z" fill="#6b0000" stroke="none" stroke-width="0" stroke-linecap="butt"/><path d="M268.5318,112.48424c0,5.30807 -4.42741,9.61111 -9.88889,9.61111c-5.46149,0 -9.88889,-4.30304 -9.88889,-9.61111c0,-3.15513 0.42461,-8.7075 0.42461,-8.7075c0,0 7.24911,-0.90362 9.46428,-0.90362c2.20227,0 10.21323,0.32722 10.21323,0.32722c0,0 -0.32434,6.11623 -0.32434,9.28389z" fill="#000000" stroke="none" stroke-width="0" stroke-linecap="butt"/><path d="M279.90125,136.28137c0,0 -13.88414,-4.047 -23.5,-2c-1.38157,0.29411 0,-8.125 0,-8.125l0.1,0.5l3.05,-1.8l0.1,2.05l20.50293,5.24089l1.24707,1.75911z" fill="#6b0000" stroke="none" stroke-width="0" stroke-linecap="butt"/><path d="M256.15826,128.99206l0.21429,-2.45714l3.31429,-1.9l-0.1,4.28571z" fill="#3e0000" stroke="none" stroke-width="0" stroke-linecap="butt"/><path d="M257.43624,99.36076v-0.01429c0,0 0.3102,-7.40101 0.7,-8c1.70944,-2.62678 20.85873,-10.29087 20.85873,-10.29087l2.04127,-0.10913l0.4,1.9l-17.9782,9.94468l-2.2218,7.75532l0.08571,0.21429c0,0 -0.77593,0.00615 -1.27674,-0.17429c-0.71592,-0.25794 -2.60897,-1.22571 -2.60897,-1.22571z" fill="#c80000" stroke="#c80000" stroke-width="0" stroke-linecap="butt"/><path d="M257.47624,99.13503c0,0 -0.03062,1.27583 -0.00836,0.21862c0.02503,-1.18915 0.22265,-5.36148 0.22265,-5.36148c0,0 0.6604,2.70129 1.5677,3.24728c0.68358,0.41136 3.4323,-1.53299 3.4323,-1.53299l-1.35714,4.92857l-0.07143,0.14286c0,0 -0.97569,0.10346 -1.46296,-0.11331c-1.48307,-0.65977 -2.32276,-1.52955 -2.32276,-1.52955z" fill="#a20000" stroke="none" stroke-width="0" stroke-linecap="butt"/><path d="M255.80482,131.37781l8,-0.42857l17,3.85714" fill="none" stroke="#000000" stroke-width="1" stroke-linecap="round"/><path d="M258.09053,126.09204l-0.42857,7.85714" fill="none" stroke="#000000" stroke-width="1" stroke-linecap="round"/><path d="M259.94768,90.37788l-1.14286,9.42857" fill="none" stroke="#000000" stroke-width="1" stroke-linecap="round"/><path d="M257.94767,93.80645l1.85714,-1.28571l21.14286,-11" fill="none" stroke="#000000" stroke-width="1" stroke-linecap="round"/><path d="M279.37625,83.94931l-1.14286,-2.28571" fill="none" stroke="#000000" stroke-width="1" stroke-linecap="round"/><path d="M278.09053,135.80636l0.57143,-3.71429" fill="none" stroke="#000000" stroke-width="1" stroke-linecap="round"/><path d="M249.15124,113.28146l-2.625,0.5" fill="none" stroke="#000000" stroke-width="1" stroke-linecap="round"/><path d="M270.65124,113.28146l-2,-0.5" fill="none" stroke="#000000" stroke-width="1" stroke-linecap="round"/><path d="M271.69624,103.38646c0,0.93888 -0.85066,1.7 -1.9,1.7c-1.04934,0 -1.9,-0.76112 -1.9,-1.7c0,-0.93888 0.85066,-1.7 1.9,-1.7c1.04934,0 1.9,0.76112 1.9,1.7z" fill="#ffffff" stroke="#000000" stroke-width="0" stroke-linecap="butt"/><path d="M278.65124,86.28146l2.25,5.5l2.25,9.375" fill="none" stroke="url(#color-8)" stroke-width="2" stroke-linecap="round"/><g stroke="none" stroke-width="0" stroke-linecap="butt"><path d="M266.16361,141.7959c-3.33168,9.28715 1.2065,17.86186 -23.78624,18.694c-29.60757,-3.8386 -20.57901,-13.39368 -25.28099,-23.45134c-0.03874,-0.08285 17.33239,-3.18764 19.4745,-3.03047c2.6048,-0.1852 6.80053,3.91068 6.80053,3.91068c0,0 4.07224,-4.71665 7.52143,-3.31388c1.47628,0.60041 15.35424,7.06982 15.2708,7.19102z" fill="#000000"/><path d="M264.10451,144.26719c0,0 -0.85833,14.4387 -20.82823,14.10529c-13.20804,-1.24483 -19.71247,-1.48833 -22.36838,-11.57259c-1.20423,-4.57234 -2.18614,-9.25176 -2.24497,-9.13158c11.32605,2.94236 9.01059,14.53681 23.65548,15.41492c11.25793,0.21137 17.72445,-8.63001 17.72445,-8.63001l3.89497,-1.58848z" fill="#262626"/><path d="M258.18361,144.65154c0,0 -3.62192,1.39429 -6.37218,2.04233c-0.45868,0.10808 -1.86833,1.83115 -1.86833,1.83115c0,0 -1.18971,-1.35125 -2.09351,-1.29832c-1.53086,0.08964 -3.36993,0.09305 -5.57593,-0.03806c-1.8563,-0.11032 -3.55246,-0.37208 -5.08982,-0.7312c-0.56251,-0.1314 -2.00844,1.02574 -2.00844,1.02574c0,0 -0.65679,-1.78389 -1.14433,-1.96109c-5.47823,-1.99113 -8.16737,-4.99579 -8.16737,-4.99579c0,0 11.82358,3.80853 16.80711,4.17476c2.21101,0.16249 5.68232,0.16427 8.40837,0.13152c0.78607,-0.00945 1.51018,-0.02175 2.12423,-0.03391c1.20039,-0.02377 4.9802,-0.14714 4.9802,-0.14714z" fill="#ffffff"/><path d="M257.63764,145.93007c0,0 -5.4804,5.58022 -14.65049,5.24385c-3.6136,-0.13254 -6.76218,-0.82669 -8.87332,-2.08723c-3.56872,-2.13084 -6.29211,-6.10545 -6.29211,-6.10545c0,0 3.00392,2.1801 5.58061,3.24594c0.48104,0.19898 1.41762,2.15372 1.41762,2.15372c0,0 1.34824,-1.16615 2.62708,-0.8452c1.91461,0.48051 4.51113,1.08158 5.53982,1.0873c1.3338,0.00739 3.294,-0.21838 5.18783,-0.49634c0.63373,-0.09301 1.26003,1.31078 1.85294,1.21286c0.60123,-0.09928 1.16813,-1.70024 1.67364,-1.79052c1.32056,-0.23583 2.2221,-0.41679 2.2221,-0.41679z" fill="#ffffff"/><path d="M221.03643,137.47702c0,0 4.50707,-0.6508 9.57181,-1.2632c0.86634,-0.36987 3.40645,-1.40506 6.73152,-0.43501c4.52861,1.32116 14.51971,7.44921 2.58525,6.18541c0,0 -5.52193,-1.01772 -8.36417,-1.69292c-3.36521,-0.79945 -10.52441,-2.79429 -10.52441,-2.79429z" fill="#444444"/><path d="M259.17213,142.8049c0,0 -2.44995,0.7861 -5.92488,0.43126c-4.25329,-0.43432 -9.36705,-1.24323 -12.37295,-1.32849c-0.54817,-0.01555 5.3075,-4.1743 5.3075,-4.1743c0,0 2.26265,-1.34217 3.37672,-1.06204c5.1999,1.30748 14.25074,5.16188 14.25074,5.16188z" data-paper-data="{&quot;index&quot;:null}" fill="#444444"/></g><path d="M243.47118,142.23517c-1.03376,0 -3.5381,-3.26042 -3.7867,-5.3637c-0.22243,-1.88186 1.31512,-3.82799 3.7867,-3.82799c2.47159,0 4.2021,0.49077 4.02999,4.18853c-0.14607,3.13818 -1.55841,5.00317 -4.02999,5.00317z" fill="url(#color-9)" stroke="#000000" stroke-width="1.15" stroke-linecap="butt"/><path d="M247.07329,112.14155c0,0 0.1026,3.96976 0.00576,7.12662c-0.19174,6.25113 -1.08147,27.7607 -1.08147,27.7607l-2.98167,0.00864c0,0 -0.80294,-4.17274 -1.12322,-9.49979c-0.43353,-7.21063 -0.4495,-16.29321 -0.76344,-19.63229c-0.29758,-3.16513 -0.89593,-5.71453 -0.89593,-5.71453" fill="url(#color-10)" stroke="#000000" stroke-width="1.3" stroke-linecap="round"/><path d="M247.23625,110.94646l-0.2,1.9" fill="none" stroke="#6b0000" stroke-width="1.3" stroke-linecap="round"/><path d="M248.13625,123.14647l-1.2,-0.2l0.2,-9.2" fill="none" stroke="#c80000" stroke-width="1.3" stroke-linecap="round"/><path d="M220.28105,111.79576c0,0 0.06357,-9.01512 10.60111,-8.8249c9.47101,0.16586 9.55554,9.40723 9.55554,9.40723c0,0 -6.69098,-2.8046 -10.04482,-2.90149c-3.36501,-0.09722 -10.11183,2.31916 -10.11183,2.31916z" fill="#4b4b4b" stroke="#4b4b4b" stroke-width="1.15" stroke-linecap="butt"/><path d="M242.29625,123.28646l4,1.2" fill="none" stroke="#000000" stroke-width="2" stroke-linecap="round"/><path d="M266.69624,140.68637l-8.2,-6l7.6,0.2z" fill="#000000" stroke="#000000" stroke-width="2" stroke-linecap="round"/><g fill="none" stroke-width="1.5" stroke-linecap="butt"><path d="M251.73307,110.63265l8.31482,-5.38002l5.06041,7.82089l-8.31483,5.38001z" stroke="#ff9a9a"/><path d="M253.81246,110.96708l5.72021,-3.70121l3.48133,5.38041l-5.72022,3.70121z" stroke="#717171"/></g></g></g></svg>