<svg version="1.1" xmlns="http://www.w3.org/2000/svg" xmlns:xlink="http://www.w3.org/1999/xlink" width="100.36936" height="253.22501" viewBox="0,0,100.36936,253.22501"><defs><radialGradient cx="226.72591" cy="115.55202" r="3.46536" gradientUnits="userSpaceOnUse" id="color-1"><stop offset="0" stop-color="#ffffff"/><stop offset="1" stop-color="#1a1a1a"/></radialGradient><linearGradient x1="230.55852" y1="188.02458" x2="237.99222" y2="188.02458" gradientUnits="userSpaceOnUse" id="color-2"><stop offset="0" stop-color="#000000"/><stop offset="1" stop-color="#000000" stop-opacity="0"/></linearGradient><linearGradient x1="230.55852" y1="189.90654" x2="237.99222" y2="189.90654" gradientUnits="userSpaceOnUse" id="color-3"><stop offset="0" stop-color="#000000"/><stop offset="1" stop-color="#000000" stop-opacity="0"/></linearGradient><linearGradient x1="253.88219" y1="118.63735" x2="253.88219" y2="126.68177" gradientUnits="userSpaceOnUse" id="color-4"><stop offset="0" stop-color="#ffffff"/><stop offset="1" stop-color="#1a1a1a"/></linearGradient><linearGradient x1="227.17518" y1="117.79659" x2="227.17518" y2="125.841" gradientUnits="userSpaceOnUse" id="color-5"><stop offset="0" stop-color="#ffffff"/><stop offset="1" stop-color="#1a1a1a"/></linearGradient><linearGradient x1="277.18194" y1="262.31902" x2="279.68194" y2="262.31902" gradientUnits="userSpaceOnUse" id="color-6"><stop offset="0" stop-color="#ffffff"/><stop offset="1" stop-color="#000000"/></linearGradient><linearGradient x1="277.18194" y1="262.31902" x2="279.68194" y2="262.31902" gradientUnits="userSpaceOnUse" id="color-7"><stop offset="0" stop-color="#ffffff"/><stop offset="1" stop-color="#000000"/></linearGradient></defs><g transform="translate(-192.89111,-53.38751)"><g data-paper-data="{&quot;isPaintingLayer&quot;:true}" fill-rule="nonzero" stroke-linejoin="miter" stroke-miterlimit="10" stroke-dasharray="" stroke-dashoffset="0" style="mix-blend-mode: normal"><path d="M194.40899,306.61252v-253.22501h91.18203v253.22501z" fill-opacity="0.01" fill="#000000" stroke="none" stroke-width="0" stroke-linecap="butt"/><path d="M283.97537,133.65321l-42.62499,40.875l-43.62499,-40.875c0,0 19.30771,-15.375 43.12499,-15.375c23.81728,0 43.12499,15.375 43.12499,15.375z" fill="#140309" stroke="none" stroke-width="0" stroke-linecap="butt"/><path d="M202.60521,96.97573c0.33654,-2.27063 -0.16776,-40.17317 35.96775,-41.57382c44.63633,-0.91362 39.01489,35.34872 41.53088,42.1903c0.84379,2.29446 3.98712,3.74677 5.23298,6.14244c1.77526,3.41366 1.08299,6.17518 2.24602,8.96764c1.3578,3.26008 5.67763,6.04008 5.67763,6.04008l-8.8297,0.61603c0,0 0.63473,6.2029 -0.74778,12.53765c-1.16541,5.33993 -4.34306,10.77355 -4.72552,12.66436c-0.75524,3.73378 1.43498,6.32255 1.43498,6.32255c0,0 -4.10398,0.57808 -5.90263,0.19723c-1.4047,-0.29744 -4.00259,-2.29458 -4.00259,-2.29458c0,0 -2.09412,2.88658 -3.36368,4.17913c-1.41437,1.43999 -4.73511,4.06634 -4.73511,4.06634l0.65795,-6.45421c0,0 -4.5601,7.26795 -21.85066,7.12154c-16.30625,-0.25547 -22.82151,-6.4252 -22.82151,-6.4252l1.1338,5.40484c0,0 -7.19586,-3.76665 -9.83038,-6.66517c-2.3777,-2.61597 -5.28543,-9.96541 -5.28543,-9.96541l-3.81564,1.67304c0,0 0.088,-7.21602 0.95345,-9.20121c0.7995,-1.83389 4.05709,-4.79203 4.05709,-4.79203c0,0 -2.33908,1.89916 -5.71704,2.7744c-4.23278,1.09673 -6.94665,0.34526 -6.94665,0.34526c0,0 3.60795,-2.71717 5.58396,-4.76989c1.76007,-1.8284 2.64658,-3.37722 2.64658,-3.37722c0,0 -2.10758,1.0847 -4.23277,1.61795c-2.21739,0.5564 -4.03008,0.53093 -4.03008,0.53093c0,0 4.47492,-4.53728 6.53074,-10.37429c0.11149,-0.31655 -0.6141,-10.67007 -0.73041,-10.66218c-1.24776,0.08463 -2.37785,-0.0489 -2.37785,-0.0489c0,0 6.16329,-5.92186 6.29161,-6.7876z" fill="#000101" stroke="none" stroke-width="1.5" stroke-linecap="butt"/><path d="M213.09949,115.08496c-0.57709,-7.29323 0.335,-17.15448 0.335,-17.15448c0,0 3.41059,-0.04124 13.91429,-3.14424c8.0696,-2.38394 20.54731,-9.48722 20.54731,-9.48722c0,0 -2.16005,3.00503 -3.40781,4.46015c-1.32651,1.54696 -3.99292,4.56297 -3.99292,4.56297c0,0 7.838,-1.66761 14.67476,-4.72931c8.56837,-3.53575 10.59252,-6.05309 12.95042,-4.5927c2.7829,1.72362 1.03006,23.1827 0.71846,28.74062c-0.42163,5.66922 -2.53327,9.49969 -3.15031,12.52053c-0.61704,3.02084 -0.4096,6.13662 -2.20622,16.0397c-1.12121,6.18021 -4.16183,8.92466 -10.01942,14.66081c-5.85759,5.73616 -9.05378,9.25275 -13.01359,9.32173c-3.81077,0.06639 -8.93565,-5.1002 -13.93542,-10.38244c-5.32393,-5.62474 -8.87489,-8.47713 -9.71551,-15.13975c-0.75707,-6.00039 -0.77653,-9.90853 -1.12266,-15.24835c-0.25298,-3.90273 -2.26119,-6.44504 -2.57636,-10.42801z" fill="none" stroke="#000000" stroke-width="1.5" stroke-linecap="butt"/><path d="M201.03043,304.39162c0,0 -0.63536,-94.38387 -0.79335,-118.01201c-0.05451,-8.15261 8.18688,-36.76129 40.20201,-36.9211c31.60235,-0.15775 39.85672,29.48704 39.84884,36.89673c-0.07659,46.24274 0.65429,117.98648 0.65429,117.98648l-10.49667,0.09614l-0.15882,-114.84311c0,0 0.07549,-3.0993 -2.81625,-3.15415c-3.43441,-0.06514 -2.94538,3.11562 -2.94538,3.11562l0.20548,114.86995l-48.21366,0.07222l-0.30539,-115.23309c0,0 0.27949,-2.919 -2.8856,-2.93443c-3.11083,-0.01515 -2.81569,2.90899 -2.81569,2.90899l0.35311,115.0668z" fill="#000000" stroke="#000000" stroke-width="2" stroke-linecap="butt"/><path d="M255.6276,200.33383c-0.57113,0 -1.03411,-0.46299 -1.03411,-1.03411c0,-0.57113 0.46299,-1.03413 1.03411,-1.03413c0.57113,0 1.03411,0.463 1.03411,1.03413c0,0.57113 -0.46299,1.03411 -1.03411,1.03411z" fill="#000000" stroke="none" stroke-width="1.5" stroke-linecap="butt"/><path d="M250.36772,204.56943c-4.4635,-0.31439 -6.55245,-1.79392 -6.16985,-2.58011c0.11788,-0.24224 2.84645,1.06355 6.97038,1.3048c6.40897,0.37493 8.51033,-0.63173 8.51033,-0.63173v1.34616c0,0 -2.4135,1.04672 -9.31086,0.56089z" fill="#000000" stroke="#000000" stroke-width="0" stroke-linecap="butt"/><path d="M222.55497,199.29972c0,-0.57113 0.46299,-1.03413 1.03411,-1.03413c0.57113,0 1.03413,0.463 1.03413,1.03413c0,0.57113 -0.463,1.03411 -1.03413,1.03411c-0.57113,0 -1.03411,-0.46299 -1.03411,-1.03411z" fill="#000000" stroke="none" stroke-width="1.5" stroke-linecap="butt"/><path d="M228.84896,204.56943c-6.89736,0.48585 -9.31086,-0.56089 -9.31086,-0.56089v-1.34616c0,0 2.10136,1.00666 8.51033,0.63173c4.12393,-0.24126 6.85251,-1.54704 6.97039,-1.3048c0.3826,0.78618 -1.70634,2.26571 -6.16985,2.58011z" fill="#000000" stroke="#000000" stroke-width="0" stroke-linecap="butt"/><path d="M240.12942,261.12113c-0.81895,0 -1.48284,-0.66389 -1.48284,-1.48284c0,-0.81895 0.66389,-1.48284 1.48284,-1.48284c0.81895,0 1.48284,0.66389 1.48284,1.48284c0,0.81895 -0.66389,1.48284 -1.48284,1.48284z" data-paper-data="{&quot;index&quot;:null}" fill="#000000" stroke="none" stroke-width="1.5" stroke-linecap="butt"/><path d="M216.06616,305.05607v-119.20147c0,0 -2.25848,12.18674 -5.17958,15.12166c-5.3468,5.3721 -12.91362,2.66378 -12.91362,-0.5104c0,-2.22689 -0.11528,-19.2734 4.36313,-29.3557c4.56732,-10.28247 13.73007,-13.58212 13.73007,-13.58212c0,0 2.67319,-2.35297 4.6557,-3.74807c1.98251,-1.3951 5.17197,-2.80371 5.17197,-2.80371c0,0 -1.90163,23.85867 13.25949,23.78832c15.43477,-0.07162 15.13157,-23.78832 15.13157,-23.78832c0,0 3.91276,1.51959 6.16585,2.94655c1.25193,0.79289 14.99639,8.65913 20.03186,20.11458c4.0268,9.16077 0.97227,28.99162 0.97227,28.99162c0,0 -7.69712,6.72901 -12.23869,-0.76736c-2.96663,-4.89677 -4.76887,-18.775 -4.76887,-16.89132c0,4.84193 0.75721,0.98908 0.75721,0.98908v118.69667z" fill="#cc1414" stroke="#000000" stroke-width="2" stroke-linecap="butt"/><path d="M212.71283,115.20177c-0.57709,-7.29323 0.335,-17.15448 0.335,-17.15448c0,0 3.41059,-0.04124 13.91429,-3.14424c8.0696,-2.38394 20.54731,-9.48722 20.54731,-9.48722c0,0 -2.16005,3.00503 -3.40781,4.46015c-1.32651,1.54696 -3.99292,4.56297 -3.99292,4.56297c0,0 7.838,-1.66761 14.67476,-4.72931c8.56837,-3.53575 10.59252,-6.05309 12.95042,-4.5927c2.7829,1.72362 1.03006,23.1827 0.71846,28.74062c-0.42163,5.66922 -2.53327,9.49969 -3.15031,12.52053c-0.61704,3.02084 -0.4096,6.13662 -2.20622,16.0397c-1.12121,6.18021 -4.16183,8.92466 -10.01942,14.66081c-5.85759,5.73616 -9.05378,9.25275 -13.01359,9.32173c-3.81077,0.06639 -8.93565,-5.1002 -13.93542,-10.38244c-5.32393,-5.62474 -8.87489,-8.47713 -9.71551,-15.13975c-0.75707,-6.00039 -0.77653,-9.90853 -1.12266,-15.24835c-0.25298,-3.90273 -2.26119,-6.44504 -2.57636,-10.42801z" fill="#ffffff" stroke="#000000" stroke-width="1.5" stroke-linecap="butt"/><path d="M261.29607,101.25452c0,0 1.35479,0.76759 3.7148,2.35475c2.1556,1.4497 3.70595,3.01733 3.70595,3.01733l-0.17094,1.17412c0,0 -5.95048,-5.19092 -13.64326,-6.96079c-6.15097,-1.41513 -10.34632,-0.35855 -10.34632,-0.35855l1.31681,-3.9641c0,0 3.49813,-0.66974 8.05504,0.62984c4.71864,1.34572 7.52553,3.02946 7.52553,3.02946z" data-paper-data="{&quot;index&quot;:null}" fill="#000000" stroke="none" stroke-width="1.5" stroke-linecap="butt"/><path d="M240.34497,144.62885c-1.03376,0 -3.5381,-3.26042 -3.7867,-5.3637c-0.22243,-1.88186 1.31512,-3.82799 3.7867,-3.82799c2.47159,0 4.2021,0.49077 4.02999,4.18853c-0.14607,3.13818 -1.55841,5.00317 -4.02999,5.00317z" fill="#ffffff" stroke="#000000" stroke-width="1.15" stroke-linecap="butt"/><path d="M243.94708,114.53515c0,0 0.1026,3.96976 0.00576,7.12662c-0.19174,6.25113 -1.08147,27.7607 -1.08147,27.7607l-2.98167,0.00864c0,0 -0.80294,-4.17274 -1.12322,-9.49979c-0.43353,-7.21063 -0.4495,-16.29321 -0.76344,-19.63229c-0.29758,-3.16513 -0.89593,-5.71453 -0.89593,-5.71453" fill="#ffffff" stroke="#000000" stroke-width="1.3" stroke-linecap="round"/><path d="M214.41247,125.32499c0,0 -4.93211,-3.51705 -6.16417,-8.97502c-1.29636,-5.74284 -1.46118,-9.7328 0.48013,-9.99193c1.94131,-0.25915 2.70321,2.37692 3.73262,8.35569c1.0294,5.97877 1.95143,10.61127 1.95143,10.61127z" data-paper-data="{&quot;index&quot;:null}" fill="#ffffff" stroke="#000000" stroke-width="1" stroke-linecap="butt"/><path d="M214.20988,121.37743c0,0 -3.56385,-2.92338 -4.31816,-8.45061c-0.42079,-3.08327 2.15675,-2.28016 2.15675,-2.28016" fill="none" stroke="#000000" stroke-width="0.25" stroke-linecap="round"/><path d="M217.22328,114.72153c0.07093,-4.89188 4.83834,-8.93609 10.21137,-8.8582c5.37302,0.0779 9.02724,4.2484 8.95632,9.14029c-0.07093,4.89188 -4.12352,8.79439 -9.49655,8.7165c-5.37302,-0.0779 -9.74207,-4.1067 -9.67114,-8.99859z" fill="#ffffff" stroke="#000000" stroke-width="1.4" stroke-linecap="butt"/><path d="M223.32955,115.27884c0.02775,-1.91367 1.60157,-3.4425 3.51523,-3.41475c1.91367,0.02774 3.4425,1.60156 3.41475,3.51522c-0.02775,1.91367 -1.60156,3.4425 -3.51522,3.41475c-1.91367,-0.02774 -3.4425,-1.60156 -3.41476,-3.51522z" fill="url(#color-1)" stroke="none" stroke-width="1.5" stroke-linecap="butt"/><path d="M244.27956,114.72226c0.20353,-4.88817 4.45264,-8.85847 9.77048,-8.85847c5.31783,0 9.27453,3.96607 9.27453,8.85847c0,4.8924 -3.88585,9.07104 -9.69964,9.14188c-5.52997,0.06739 -9.55792,-4.03692 -9.34537,-9.14188z" fill="#ffffff" stroke="#000000" stroke-width="1.4" stroke-linecap="butt"/><path d="M250.5511,114.94687c0,-1.82 1.4754,-3.29539 3.2954,-3.29539c1.82,0 3.29539,1.4754 3.29539,3.29539c0,1.82 -1.47539,3.29539 -3.29539,3.29539c-1.82,0 -3.2954,-1.4754 -3.2954,-3.29539z" fill="#000000" stroke="none" stroke-width="1.5" stroke-linecap="butt"/><path d="M217.15485,114.18935c0,0 0.06357,-9.01512 10.60111,-8.8249c9.47101,0.16586 9.55554,9.40723 9.55554,9.40723c0,0 -7.14499,-3.2739 -10.63127,-3.37462c-3.20972,-0.09273 -9.52538,2.79229 -9.52538,2.79229z" fill="#ffffff" stroke="#000000" stroke-width="1.15" stroke-linecap="butt"/><path d="M243.62378,114.59838c0,0 -0.24686,-9.4582 11.19813,-9.1032c9.71427,0.33347 9.54677,9.65229 9.54677,9.65229c0,0 -6.77322,-4.34389 -10.1418,-4.43305c-3.53807,-0.09365 -10.6031,3.88396 -10.6031,3.88396z" fill="#ffffff" stroke="#000000" stroke-width="1.15" stroke-linecap="butt"/><path d="M219.26953,101.9818c0,0 2.99281,-2.38877 7.4992,-3.67269c4.99364,-1.42275 7.63285,-1.44549 7.63285,-1.44549l1.02553,4.0192c0,0 -3.89545,0.01168 -7.98297,0.9118c-5.46655,1.20378 -6.28454,2.5908 -10.38831,3.79742c-3.51633,1.0339 -6.60181,1.35339 -6.60181,1.35339l-0.2443,-1.20735c0,0 3.55111,-0.56599 5.13828,-0.9972c1.30999,-0.35591 3.74576,-1.62956 3.74576,-1.62956z" fill="#000000" stroke="none" stroke-width="1.5" stroke-linecap="butt"/><path d="M268.64563,114.71372c1.0294,-5.97877 1.7913,-8.61483 3.73262,-8.35569c1.94131,0.25914 1.77649,4.24909 0.48013,9.99193c-1.23206,5.45797 -6.16417,8.97502 -6.16417,8.97502c0,0 0.92203,-4.6325 1.95143,-10.61127z" data-paper-data="{&quot;index&quot;:null}" fill="#ffffff" stroke="#000000" stroke-width="1" stroke-linecap="butt"/><path d="M269.05818,110.64666c0,0 2.57754,-0.80312 2.15675,2.28016c-0.75431,5.52723 -4.31816,8.45061 -4.31816,8.45061" data-paper-data="{&quot;index&quot;:null}" fill="none" stroke="#000000" stroke-width="0.25" stroke-linecap="round"/><path d="M216.74855,304.34023v-37.70081c0,0 18.95235,-11.51149 26.55331,-20.6743c8.17431,-9.85396 20.8977,-36.52692 20.8977,-36.52692l0.65001,94.90203z" fill="#a10000" stroke="none" stroke-width="0" stroke-linecap="butt"/><g stroke="#ffffff" stroke-linecap="butt"><g fill="#000000" stroke-width="1" font-weight="normal" font-size="40" text-anchor="start"><text transform="translate(218.41995,190.75341) scale(0.09876,0.09876)" font-size="40" xml:space="preserve" fill="#000000" fill-rule="nonzero" stroke="#ffffff" stroke-width="1" stroke-linecap="butt" stroke-linejoin="miter" stroke-miterlimit="10" stroke-dasharray="" stroke-dashoffset="0" font-family="Pixel" font-weight="normal" text-anchor="start" style="mix-blend-mode: normal"><tspan x="0" dy="0">DONK</tspan></text><text transform="translate(218.18427,194.75213) scale(0.09876,0.09876)" font-size="40" xml:space="preserve" fill="#000000" fill-rule="nonzero" stroke="#ffffff" stroke-width="1" stroke-linecap="butt" stroke-linejoin="miter" stroke-miterlimit="10" stroke-dasharray="" stroke-dashoffset="0" font-family="Sans Serif" font-weight="normal" text-anchor="start" style="mix-blend-mode: normal"><tspan x="0" dy="0">Industries</tspan></text></g><path d="M230.55852,188.58917v-1.12917h7.4337v1.12917z" fill="url(#color-2)" stroke-width="0.5"/><path d="M230.55852,190.45544v-1.0978h7.4337v1.0978z" fill="url(#color-3)" stroke-width="0.5"/></g><path d="M263.11611,118.82322c0,0 2.38338,6.55244 -9.00119,7.77934c-9.66743,1.00952 -9.67426,-7.96522 -9.67426,-7.96522c0,0 2.10034,3.15325 4.87456,4.4563c1.46222,0.68681 3.51339,0.89055 4.6692,0.76067c1.30291,-0.14641 3.72803,-1.03837 5.21453,-1.75324c2.52628,-1.2149 3.91716,-3.27786 3.91716,-3.27786z" fill="url(#color-4)" stroke="#000000" stroke-width="1.15" stroke-linecap="butt"/><path d="M227.07294,123.29169c1.42273,0.15987 3.6374,-0.32906 5.39432,-1.26429c2.37835,-1.26601 4.14944,-4.23081 4.14944,-4.23081c0,0 -0.00683,8.97473 -9.67426,7.96522c-11.38458,-1.2269 -9.00119,-7.77935 -9.00119,-7.77935c0,0 1.53597,2.52913 3.96613,3.72273c1.55078,0.76168 3.79544,1.43254 5.16556,1.5865z" data-paper-data="{&quot;index&quot;:null}" fill="url(#color-5)" stroke="#000000" stroke-width="1.15" stroke-linecap="butt"/><path d="M278.67456,270.19021c0.00409,0.0016 0.00817,0.00322 0.01224,0.00486c0.00067,-0.00991 0.00133,-0.01983 0.002,-0.02974c-0.00475,0.00829 -0.00949,0.01659 -0.01424,0.02488zM279.68757,240.4668c0.61206,1.93696 0.53129,3.78164 0.19785,5.63444c0.01186,0.43755 0.01911,0.87622 0.01911,1.31661c0,6.15032 0.83739,12.26099 1.3025,18.40807c0.2746,3.62919 -0.44474,7.17251 -0.43207,10.7514c0,1.51981 0.49335,4.09701 -1.46914,4.87169c-2.05759,0.81221 -6.2011,-2.77536 -6.8293,-4.4398c-0.84924,-2.25013 -0.40429,-5.69881 0.72782,-7.7751c0.84818,-1.55556 2.36112,-2.6149 2.95581,-4.35897c0.47679,-1.39831 0.21159,-3.33963 -0.02441,-4.75233c-0.99541,-2.98621 -3.35582,-7.41094 -3.07954,-10.62667c0.1682,-1.95778 1.75289,-3.20877 2.46684,-4.90388c0.54361,-1.29066 -0.86494,-2.2972 -0.72234,-3.62145c0.17632,-1.63738 1.96895,-2.9968 3.21071,-3.76438c0,0 1.07187,-0.64312 1.71499,0.42874c0.34612,0.57688 0.19549,1.02956 -0.01745,1.32465l0.17857,1.07145l-0.2006,0.03343v0.17207c0,0.07672 0.00022,0.15339 0.00065,0.23002z" fill="#ffffff" stroke="none" stroke-width="0.5" stroke-linecap="butt"/><path d="M277.20205,285.76472c1.3626,2.20438 2.58781,4.73403 2.26412,7.43943c-0.20828,1.74086 -0.34496,3.67268 -3.1196,3.28762c-0.90091,-0.12502 -1.57199,-2.23418 -2.00908,-2.92015c-2.00231,-3.14245 -2.92344,-5.43826 -1.15316,-9.0666c0,0 0.55901,-1.11803 1.67705,-0.55901c0.30662,0.15331 0.4871,0.34866 0.58758,0.55147c0.19111,0.04309 0.36563,0.12997 0.51249,0.24953l1.08026,0.86422l-0.04703,0.05877z" fill="#ffffff" stroke="none" stroke-width="0.5" stroke-linecap="butt"/><path d="M280.17778,229.7916l0.43522,56.79569" fill="none" stroke="#000000" stroke-width="2.5" stroke-linecap="round"/><path d="M278.43194,237.83811l0.43521,42.65117" fill="url(#color-6)" stroke="url(#color-7)" stroke-width="2.5" stroke-linecap="round"/><path d="M225.85488,206.11616c0.0331,0.02285 0.05129,0.038 0.05129,0.038l0.8241,0.68809c2.3227,2.32831 1.90749,4.41017 1.90403,7.5083c-0.2974,2.45617 -3.79119,6.12257 -6.69594,4.06275c-1.68521,-1.19502 -1.44621,-4.95481 -0.57756,-6.57335c0.13082,-0.24375 1.13974,-1.36056 1.19737,-1.84428c0.17276,-1.45014 -1.30098,-1.87138 -0.43169,-3.63813c0.70799,-1.43893 1.34994,-1.27124 2.62048,-1.4807c0,0 0.99228,-0.12403 1.11631,0.86824c0.01755,0.14036 0.01275,0.26336 -0.00841,0.37108z" fill="#ffffff" stroke="none" stroke-width="0.5" stroke-linecap="butt"/><path d="M232.39834,209.36142c1.4284,0.61168 2.44339,1.03205 2.80964,2.81254c0.42776,2.07955 -1.68775,5.4802 -4.14879,3.6642c-1.20945,-0.89245 -0.60526,-4.84029 -0.60526,-6.15096c0,0 0,-1 1,-1c0.61836,0 0.85435,0.38236 0.94441,0.67422z" fill="#ffffff" stroke="none" stroke-width="0.5" stroke-linecap="butt"/><path d="M230.01882,217.75922c0.69405,-0.02832 0.93555,0.69618 0.93555,0.69618l-0.04518,1.8744c-2.32976,1.35735 -3.45174,0.03228 -2.43004,-2.31763c0,0 0.49614,-0.86824 1.36438,-0.3721c0.06605,0.03774 0.12421,0.07764 0.17529,0.11915z" fill="#ffffff" stroke="none" stroke-width="0.5" stroke-linecap="butt"/><path d="M205.15749,225.94769c0.10265,-0.00245 0.21127,0.00185 0.32619,0.01351c0.70013,0.071 0.77167,1.19035 1.0178,1.84963c0.65342,1.75032 1.01043,6.08567 -1.45342,6.68849c-1.29393,0.31658 -2.32319,-1.06908 -2.60385,-2.04187c-0.58199,-2.01725 -0.00339,-4.74532 1.04011,-6.44797c0,0 0.53,-0.848 1.378,-0.318c0.12729,0.07956 0.22353,0.16628 0.29517,0.25622z" fill="#ffffff" stroke="none" stroke-width="0.5" stroke-linecap="butt"/><path d="M205.8058,237.31487c0.12992,-0.15135 0.3309,-0.27469 0.64067,-0.31341c0.99228,-0.12403 1.11631,0.86824 1.11631,0.86824l0.1297,1.03762c0.00638,0.04565 0.00968,0.09228 0.00968,0.13968c0,0.55228 -0.44772,1 -1,1c-0.18686,0 -0.36176,-0.05125 -0.51139,-0.14047l-0.90636,-0.51792l0.04261,-0.07456c-0.14966,-0.07733 -0.28841,-0.17199 -0.41138,-0.29176c-0.37275,-0.36307 -0.09006,-1.0368 -0.13509,-1.55519z" fill="#ffffff" stroke="none" stroke-width="0.5" stroke-linecap="butt"/><path d="M205.56236,224.58726c0.17678,0.17678 0,0.35355 0,0.35355l-0.07126,0.03394c-0.05206,0.14912 -0.10411,0.29823 -0.15617,0.44735c-0.66818,0.68015 -1.15744,1.60176 -1.57333,2.58777c0.96139,0.12227 1.95247,0.20115 2.73469,0.59226l0.33754,-0.00669c0,0 0.25,0 0.25,0.25c0,0.25 -0.25,0.25 -0.25,0.25l-0.45241,-0.00669c-0.80016,-0.40008 -1.82133,-0.48691 -2.80843,-0.61611c-0.12292,0.31119 -0.24033,0.62593 -0.35541,0.93894c0.14442,-0.01148 0.2942,-0.01188 0.45668,0.01114l0.03948,-0.16246c0,0 0.1118,-0.22361 0.33541,-0.1118c0.13038,0.06519 0.14673,0.16839 0.1377,0.24311c1.01454,0.04949 1.90845,0.37982 2.96774,0.39548l0.31768,0.15136c0,0 0.22361,0.1118 0.1118,0.33541c-0.1118,0.22361 -0.33541,0.1118 -0.33541,0.1118l-0.20895,-0.11195c-1.1158,0.02211 -2.01894,-0.38829 -3.10236,-0.38829c0,0 -0.058,0 -0.11812,-0.02793c-0.27532,0.02429 -0.53785,0.06299 -0.80025,0.09622c-0.26669,0.72691 -0.53061,1.42713 -0.8329,2.0317c0,0 -0.1118,0.22361 -0.33541,0.1118c-0.22361,-0.1118 -0.1118,-0.33541 -0.1118,-0.33541c0.26078,-0.52157 0.4937,-1.12247 0.72554,-1.75319c-0.07868,0.00465 -0.15812,0.00764 -0.23862,0.00846c0,0 -0.25,0 -0.25,-0.25c0,-0.25 0.25,-0.25 0.25,-0.25c0.15115,0.00191 0.29187,-0.01168 0.42857,-0.03004c0.13073,-0.36056 0.26343,-0.72624 0.4028,-1.08832c-0.36297,-0.05819 -0.71482,-0.13116 -1.04209,-0.23768c0,0 -0.23717,-0.07906 -0.15811,-0.31623c0.07906,-0.23717 0.31623,-0.15811 0.31623,-0.15811c0.33448,0.11469 0.69501,0.19069 1.06694,0.24984c0.43657,-1.06909 0.95097,-2.07263 1.66948,-2.77727c0.03572,-0.1142 0.07143,-0.2284 0.10715,-0.3426l0.19205,-0.22938c0,0 0.17678,-0.17678 0.35355,0z" fill="#000000" stroke="none" stroke-width="0.5" stroke-linecap="butt"/><path d="M208.66372,231.74194c0,0.25 -0.25,0.25 -0.25,0.25h-0.26332c-1.76909,0 -3.41135,0.52663 -5.13467,0.52663c0,0 -0.25,0 -0.25,-0.25c0,-0.25 0.25,-0.25 0.25,-0.25c1.71856,0 3.36686,-0.52663 5.13467,-0.52663h0.26332c0,0 0.25,0 0.25,0.25z" fill="#000000" stroke="none" stroke-width="0.5" stroke-linecap="butt"/><path d="M207.40558,241.26645c-0.17678,0.17678 -0.35355,0 -0.35355,0l-0.17849,-0.19663c-0.66388,-1.32776 -1.79539,-2.61997 -2.25176,-3.9825c0,0 -0.07906,-0.23717 0.15811,-0.31623c0.23717,-0.07906 0.31623,0.15811 0.31623,0.15811c0.44163,1.33189 1.57351,2.61476 2.22463,3.917l0.08483,0.06669c0,0 0.17678,0.17678 0,0.35355z" fill="#000000" stroke="none" stroke-width="0.5" stroke-linecap="butt"/><path d="M279.24589,261.87837c-0.25,0 -0.25,-0.25 -0.25,-0.25v-0.13166c0.01338,-0.67519 -0.13166,-1.392 -0.13166,-2.10653c0,-2.74665 -0.6677,-4.94359 -1.4346,-7.42648c-0.41002,0.02496 -0.81993,0.05315 -1.22915,0.08208c-0.95981,0.95686 -2.06224,1.77784 -3.25585,2.67304c0,0 -0.2,0.15 -0.35,-0.05c-0.15,-0.2 0.05,-0.35 0.05,-0.35c1.00624,-0.75468 1.93329,-1.44899 2.76363,-2.21672c-1.10196,0.07786 -2.19629,0.14932 -3.27192,0.16522c0,0 -0.25,0 -0.25,-0.25c0,-0.25 0.25,-0.25 0.25,-0.25c1.23106,0.02439 2.50592,-0.06703 3.79008,-0.16802c0.32164,-0.32854 0.62656,-0.67407 0.91356,-1.04566c-0.19719,-0.3705 -0.40007,-0.7375 -0.60629,-1.10224c-1.31145,0.00986 -2.65649,-0.04968 -3.78501,0.1779c0,0 -0.24515,0.04903 -0.29417,-0.19612c-0.04903,-0.24515 0.19612,-0.29417 0.19612,-0.29417c1.03674,-0.20576 2.34477,-0.14408 3.62347,-0.14285c-0.88749,-1.54453 -1.81818,-3.05757 -2.61312,-4.63487c0,0 -0.1118,-0.22361 0.1118,-0.33541c0.22361,-0.1118 0.33541,0.1118 0.33541,0.1118c0.81942,1.65417 1.80781,3.23412 2.73584,4.85389c0.46388,-0.00886 0.91775,-0.03248 1.34673,-0.08709c0.01844,-0.03557 0.03675,-0.07138 0.05495,-0.10742c0.90036,-1.01835 1.43977,-2.61373 2.01898,-3.77215l0.28935,-0.29392c0,0 0.17678,-0.17678 0.35355,0c0.17678,0.17678 0,0.35355 0,0.35355l-0.23728,0.23272c-0.51852,1.03705 -1.00948,2.44666 -1.76645,3.45903c0.28683,-0.0694 0.55606,-0.16002 0.80199,-0.27807l0.23502,-0.02237c0,0 0.25,0 0.25,0.25c0,0.25 -0.25,0.25 -0.25,0.25l-0.0283,-0.02237c-0.42125,0.18359 -0.88704,0.30011 -1.38032,0.37387c-0.24386,0.46297 -0.51051,0.88804 -0.79772,1.28431c0.08556,0.16437 0.16978,0.32951 0.25245,0.49551c0.0363,0.11756 0.07249,0.23442 0.10851,0.35066c0.75162,-0.04991 1.50071,-0.0855 2.24036,-0.0855c0.16165,0.0032 0.3342,0.0082 0.48151,-0.05844l0.08483,-0.19834c0,0 0.1118,-0.22361 0.33541,-0.1118c0.22361,0.1118 0.1118,0.33541 0.1118,0.33541l-0.17849,0.32829c-0.2545,0.13182 -0.54849,0.20065 -0.83507,0.20488c-0.69539,0 -1.3939,0.02478 -2.09275,0.06198c0.76672,2.47918 1.42114,4.71481 1.42114,7.45586c0,0.73097 0.12133,1.40794 0.13166,2.10653v0.13166c0,0 0,0.25 -0.25,0.25zM277.22286,251.29319c-0.0408,-0.08125 -0.08195,-0.1623 -0.1234,-0.24315c-0.13521,0.16798 -0.27436,0.3309 -0.41726,0.48958c0.20076,-0.01571 0.40159,-0.03115 0.60235,-0.04591c-0.02052,-0.0666 -0.04109,-0.13343 -0.06169,-0.20052zM277.61929,249.39765c-0.26842,0.02253 -0.54248,0.03605 -0.81972,0.04404c0.12413,0.22088 0.24675,0.44269 0.3673,0.66571c0.15696,-0.22621 0.30785,-0.46222 0.45242,-0.70976z" fill="#000000" stroke="none" stroke-width="0.5" stroke-linecap="butt"/><path d="M278.71926,283.47033c-0.25,0 -0.25,-0.25 -0.25,-0.25v-0.28995c0.00811,-0.53676 -0.13166,-0.99377 -0.13166,-1.55327c0,-2.67332 -0.39598,-5.33416 -0.39481,-8.022c-0.14386,-1.98681 -0.42082,-4.02243 -0.60467,-6.04617c-0.1688,0.01228 -0.33854,0.02029 -0.5089,0.02529c-1.62088,1.66126 -4.18065,3.50975 -5.12756,5.46524c0,0 -0.1118,0.22361 -0.33541,0.1118c-0.22361,-0.1118 -0.1118,-0.33541 -0.1118,-0.33541c0.97445,-1.90276 3.23519,-3.6098 4.87641,-5.2347c-1.52062,-0.00723 -3.05921,-0.11419 -4.40935,0.56709c0,0 -0.22361,0.1118 -0.33541,-0.1118c-0.1118,-0.22361 0.1118,-0.33541 0.1118,-0.33541c1.5617,-0.77448 3.35182,-0.52476 5.07321,-0.57114c0.08045,-0.08584 0.15865,-0.17148 0.23429,-0.25693c0.14098,-0.24237 0.28223,-0.4813 0.4234,-0.71766c-0.0487,-0.76029 -0.07673,-1.51691 -0.07195,-2.26658c-0.97556,-2.42336 -1.54869,-5.3597 -3.9642,-6.809c0,0 -0.21437,-0.12862 -0.08575,-0.343c0.12862,-0.21437 0.343,-0.08575 0.343,-0.08575c2.51708,1.51025 3.24918,4.57486 4.19861,7.14678c0.00307,0.52568 0.01982,1.0538 0.04676,1.58355c0.93592,-1.54298 1.85145,-3.01541 2.64361,-4.67801l0.13166,-0.26332c0,0 0.1118,-0.22361 0.33541,-0.1118c0.22361,0.1118 0.1118,0.33541 0.1118,0.33541l-0.13166,0.26332c-0.96301,1.79738 -1.98811,3.54334 -3.03799,5.32597c0.01792,0.25715 0.03778,0.51457 0.05918,0.77219c0.52022,-0.08336 1.02678,-0.22648 1.51071,-0.46923c0.35314,-0.17657 0.55528,-0.26583 0.835,-0.54555l0.29769,-0.15245c0,0 0.22361,-0.1118 0.33541,0.1118c0.1118,0.22361 -0.1118,0.33541 -0.1118,0.33541l-0.22894,0.11086c-0.28627,0.28627 -0.54312,0.40683 -0.90374,0.58714c-0.54092,0.26964 -1.10966,0.41604 -1.6935,0.49405c0.18242,2.03328 0.44547,4.07477 0.59436,6.07971c0.00112,2.69358 0.39514,5.36043 0.39514,8.04031c0,0.57421 0.12488,0.98794 0.13166,1.55327v0.28995c0,0 0,0.25 -0.25,0.25zM277.25365,266.85258c0.01479,-0.00129 0.02956,-0.00262 0.04433,-0.00399c-0.00174,-0.02086 -0.00346,-0.04171 -0.00518,-0.06256c-0.01305,0.02218 -0.0261,0.04436 -0.03916,0.06655z" fill="#000000" stroke="none" stroke-width="0.5" stroke-linecap="butt"/><path d="M229.5974,216.60123c0,0.25 -0.25,0.25 -0.25,0.25c-0.16667,0 -0.62328,0 -0.78995,0c-0.80343,0 -1.64065,-0.00989 -2.4876,-0.00248c0.46161,1.04904 0.90466,2.10879 1.27033,3.21159c0.20189,0.40149 0.44996,0.76842 0.65093,1.16879l0.02639,0.37512c0,0 0,0.25 -0.25,0.25c-0.25,0 -0.25,-0.25 -0.25,-0.25l0.02639,-0.15151c-0.20467,-0.41112 -0.46013,-0.78794 -0.66565,-1.20106c-0.39055,-1.16605 -0.86373,-2.28543 -1.35322,-3.39553c-1.59509,0.03013 -3.20632,0.14166 -4.67478,0.51425c0,0 -0.24254,0.06063 -0.30317,-0.1819c-0.06063,-0.24254 0.1819,-0.30317 0.1819,-0.30317c1.44709,-0.35697 3.01748,-0.47897 4.57909,-0.51881c-0.62535,-1.40613 -1.26123,-2.80614 -1.77212,-4.2764c-0.21006,-0.60655 -0.49142,-1.2927 -0.79387,-2.01899c-0.73182,-0.12933 -1.43921,-0.20365 -2.08412,-0.19778c0,0 -0.25,0 -0.25,-0.25c0,-0.25 0.25,-0.25 0.25,-0.25c0.58537,0.00434 1.21442,0.06552 1.86353,0.16878c-0.33028,-0.7927 -0.67086,-1.62026 -0.96083,-2.4348c-0.05826,-0.0059 -0.23109,-0.04094 -0.23109,-0.2488c0,-0.09423 0.03551,-0.15294 0.07977,-0.18952c-0.35513,-1.06402 -0.60357,-2.09054 -0.60641,-2.97028c0,0 0,-0.25 0.25,-0.25c0.25,0 0.25,0.25 0.25,0.25c-0.00311,0.85947 0.24965,1.88056 0.61066,2.94217c1.67518,0.2278 4.21307,1.45113 5.84111,1.9282l0.1727,0.01591c0,0 0.2484,0.02824 0.22016,0.27664c-0.02824,0.2484 -0.27664,0.22016 -0.27664,0.22016l-0.25705,-0.03295c-1.29196,-0.37994 -2.80591,-0.51712 -4.03466,-1.01885c-0.30111,-0.12295 -0.94111,-0.52784 -1.44103,-0.75854c0.29597,0.79802 0.63575,1.60528 0.9586,2.37193c1.9361,0.37222 3.9855,1.07054 5.54821,1.72066c0.23249,0.07778 0.46307,0.16469 0.68256,0.27388l0.01985,-0.02639c0,0 0.25,0 0.25,0.25c0,0.25 -0.25,0.25 -0.25,0.25l-0.24346,-0.02639c-0.20326,-0.10221 -0.4181,-0.18105 -0.63402,-0.25275c-1.43069,-0.59338 -3.33143,-1.26548 -5.14592,-1.64824c0.26266,0.6281 0.50295,1.21883 0.68439,1.74227c0.52636,1.52386 1.19378,2.97112 1.84308,4.4293c0.91944,-0.01347 1.83049,-0.00449 2.70598,-0.00449c0.16667,0 0.33333,0 0.5,0h0.28995c0,0 0.25,0 0.25,0.25z" fill="#cc1414" stroke="none" stroke-width="0.5" stroke-linecap="butt"/><path d="M233.12037,213.61821c-0.17678,-0.17678 0,-0.35355 0,-0.35355l0.05844,0.04512c0,-1.51532 -1.03177,-2.7008 -0.5138,-4.29212c0,0 0.07906,-0.23717 0.31623,-0.15811c0.23717,0.07906 0.15811,0.31623 0.15811,0.31623c-0.50123,1.46177 0.53946,2.70083 0.53946,4.13401l-0.20488,0.30844c0,0 -0.17678,0.17678 -0.35355,0z" fill="#cc1414" stroke="none" stroke-width="0.5" stroke-linecap="butt"/><path d="M259.17235,132.48228c-0.20816,0.04211 -0.27526,-0.12839 -0.29074,-0.18066c-0.87284,-0.05087 -1.82765,-0.36605 -2.69011,-0.53746c-2.88969,-0.44812 -5.75491,-1.24282 -8.68537,-1.24282c0,0 -0.25,0 -0.25,-0.25c0,-0.25 0.25,-0.25 0.25,-0.25c2.96057,0 5.85351,0.79714 8.77243,1.25046c0.89485,0.17764 1.92271,0.5449 2.80806,0.53672l0.28119,0.37915c0,0 0.04957,0.24504 -0.19547,0.29461z" fill="#cc1414" stroke="none" stroke-width="0.5" stroke-linecap="butt"/><path d="M259.49371,136.15017c-0.15987,0.19221 -0.35207,0.03234 -0.35207,0.03234l-0.055,-0.12092c-0.77978,-0.00936 -1.47492,-0.36124 -2.27817,-0.40293c-2.63703,-0.8663 -5.80803,-1.74168 -8.58745,-1.74168c0,0 -0.25,0 -0.25,-0.25c0,-0.25 0.25,-0.25 0.25,-0.25c2.79396,0 6.03589,0.85436 8.67963,1.75025c0.76315,0.03529 1.45573,0.40539 2.18599,0.39436l0.37474,0.23651c0,0 0.19221,0.15987 0.03234,0.35207z" fill="#cc1414" stroke="none" stroke-width="0.5" stroke-linecap="butt"/><path d="M228.84126,105.21303c-0.22361,-0.1118 -0.1118,-0.33541 -0.1118,-0.33541l0.07782,-0.09663c0,-0.84538 0.1199,-1.64268 0.32011,-2.45761c0,0 0.06063,-0.24254 0.30317,-0.1819c0.24254,0.06063 0.1819,0.30317 0.1819,0.30317c-0.19729,0.77372 -0.30518,1.53321 -0.30518,2.33634l-0.13061,0.32024c0,0 -0.1118,0.22361 -0.33541,0.1118z" fill="#cc1414" stroke="none" stroke-width="0.5" stroke-linecap="butt"/><path d="M227.59066,111.04915c-0.22361,-0.1118 -0.1118,-0.33541 -0.1118,-0.33541l0.09065,-0.17569c0.49879,-1.49637 0.8209,-2.688 0.8209,-4.29803c0,0 0,-0.25 0.25,-0.25c0.25,0 0.25,0.25 0.25,0.25c0,1.657 -0.33552,2.92302 -0.84656,4.45615l-0.11778,0.24118c0,0 -0.1118,0.22361 -0.33541,0.1118z" fill="#cc1414" stroke="none" stroke-width="0.5" stroke-linecap="butt"/><path d="M226.6603,139.94347c-0.25,0 -0.25,-0.25 -0.25,-0.25v-0.20843c0,-1.8967 0.26348,-3.92929 0.63139,-5.78675c0.57038,-2.23914 0.09813,-5.12606 0.09813,-7.44873c0,0 0,-0.25 0.25,-0.25c0.25,0 0.25,0.25 0.25,0.25c0,2.37434 0.45403,5.26242 -0.11031,7.55843c-0.36716,1.81608 -0.61921,3.82107 -0.61921,5.67705v0.20843c0,0 0,0.25 -0.25,0.25z" fill="#cc1414" stroke="none" stroke-width="0.5" stroke-linecap="butt"/><g fill="#ffffff" stroke="#000000" stroke-linecap="butt"><path d="M248.03471,152.379c-2.71902,0.24427 -6.98046,1.67465 -6.98046,1.67465c0,0 -6.81223,-2.00265 -12.98057,-2.92575c-4.94371,-0.73983 -10.39929,-1.19465 -10.40995,-1.26191c-0.01439,-0.09071 4.09667,-4.30993 9.8035,-4.27985c5.70682,0.03009 12.9041,3.8004 13.15174,3.8173c0,0 6.96475,-3.08099 10.21144,-2.78282c3.24669,0.29817 8.15388,3.52485 8.13438,3.64535c0,0 -8.5515,1.89934 -10.93009,2.11303z" stroke-width="1.4"/><path d="M241.1821,153.85317c0,0 6.95691,-3.01479 9.61393,-3.29334c0.87258,-0.09148 8.31688,-0.25684 8.34239,-0.04198c0.02922,0.24607 -3.55642,5.49813 -7.63288,7.25511c-4.07646,1.75698 -7.05031,2.2679 -10.98641,2.12068c-4.20682,-0.13314 -9.99548,-1.43376 -14.24729,-3.61254c-4.25181,-2.17878 -8.80026,-7.33622 -8.77397,-7.45366c0.03784,-0.16913 7.55088,0.0245 12.64202,1.05125c5.09114,1.02675 11.04219,3.97449 11.04219,3.97449z" stroke-width="1.9"/></g></g></g></svg>