<svg version="1.1" xmlns="http://www.w3.org/2000/svg" xmlns:xlink="http://www.w3.org/1999/xlink" width="102.45099" height="248.31617" viewBox="0,0,102.45099,248.31617"><g transform="translate(-183.93774,-57.43404)"><g data-paper-data="{&quot;isPaintingLayer&quot;:true}" fill-rule="nonzero" stroke-linejoin="miter" stroke-miterlimit="10" stroke-dasharray="" stroke-dashoffset="0" style="mix-blend-mode: normal"><path d="M201.54534,304.39158c0,0 -0.63536,-94.38387 -0.79335,-118.01201c-0.05451,-8.15261 8.18688,-36.76129 40.20201,-36.9211c31.60235,-0.15775 39.85672,29.48704 39.84884,36.89673c-0.07659,46.24274 0.65429,117.98648 0.65429,117.98648l-10.49667,0.09614l-0.15882,-114.84311c0,0 0.07549,-3.0993 -2.81625,-3.15415c-3.43441,-0.06514 -2.94538,3.11562 -2.94538,3.11562l0.20548,114.86995l-48.21366,0.07222l-0.30539,-115.23309c0,0 0.27949,-2.919 -2.8856,-2.93443c-3.11083,-0.01515 -2.81569,2.90899 -2.81569,2.90899l0.35311,115.0668z" fill="#72bfbf" stroke="none" stroke-width="0" stroke-linecap="butt"/><path d="M256.1425,200.33376c-0.57113,0 -1.03411,-0.46299 -1.03411,-1.03411c0,-0.57113 0.46299,-1.03413 1.03411,-1.03413c0.57113,0 1.03411,0.463 1.03411,1.03413c0,0.57113 -0.46299,1.03411 -1.03411,1.03411z" fill="#000000" stroke="none" stroke-width="1.5" stroke-linecap="butt"/><path d="M223.06988,199.29965c0,-0.57113 0.46299,-1.03413 1.03411,-1.03413c0.57113,0 1.03413,0.463 1.03413,1.03413c0,0.57113 -0.463,1.03411 -1.03413,1.03411c-0.57113,0 -1.03411,-0.46299 -1.03411,-1.03411z" fill="#000000" stroke="none" stroke-width="1.5" stroke-linecap="butt"/><path d="M229.36386,204.56935c-6.89736,0.48585 -9.31086,-0.56089 -9.31086,-0.56089v-1.34616c0,0 2.10136,1.00666 8.51033,0.63173c4.12393,-0.24126 6.85251,-1.54704 6.97039,-1.3048c0.3826,0.78618 -1.70634,2.26571 -6.16985,2.58011z" fill="#000000" stroke="#000000" stroke-width="0" stroke-linecap="butt"/><path d="M201.54534,304.39158c0,0 -0.63536,-94.38387 -0.79335,-118.01201c-0.05137,-7.68273 7.26443,-33.19813 34.90028,-36.28599c1.30183,-0.14546 -1.20304,107.88814 0.21596,154.19078c-0.08537,0.06075 -0.16975,0.12281 -0.2531,0.18615l-18.58331,0.02784l-0.30539,-115.23309c0,0 0.27949,-2.919 -2.8856,-2.93443c-3.11083,-0.01515 -2.81569,2.90899 -2.81569,2.90899l0.35311,115.0668z" fill="#bfbfbf" stroke="#bfbfbf" stroke-width="2.5" stroke-linecap="butt"/><path d="M248.73315,150.06836c25.20622,4.25644 32.07688,29.52636 32.06969,36.28684c-0.07659,46.24274 0.65429,117.98648 0.65429,117.98648l-10.49667,0.09614l-0.15882,-114.84311c0,0 0.07549,-3.0993 -2.81625,-3.15415c-3.43441,-0.06514 -2.94538,3.11562 -2.94538,3.11562l0.20548,114.86995l-17.56487,0.02631c-0.16054,-0.12124 -0.32484,-0.23774 -0.49271,-0.34931c1.17046,-35.21983 -0.51779,-154.38314 1.54524,-154.03477z" fill="#bfbfbf" stroke="#bfbfbf" stroke-width="2.5" stroke-linecap="butt"/><path d="M196.44185,105.81244c0,0 6.16329,-5.92187 6.29161,-6.78761c0.33654,-2.27063 -0.16776,-40.17317 35.96775,-41.57382c44.63633,-0.91362 39.01489,35.34872 41.53088,42.1903c3.44981,9.38084 6.15664,17.40016 6.15664,17.40016c0,0 -2.76715,-2.05351 -4.0797,-3.13397c-1.2242,-1.00773 -3.80143,-3.14585 -3.80143,-3.14585c0,0 3.09111,10.3481 1.31092,20.69498c-1.5623,9.48098 -7.29782,17.22543 -7.29782,17.22543l-1.15522,-2.34735c0,0 -1.02266,2.19794 -2.16005,3.33274c-1.1374,1.13479 -3.43873,2.91273 -3.43873,2.91273l-0.09205,-3.70421c0,0 -7.0601,11.01795 -24.35066,10.87154c-16.30625,-0.25547 -26.07151,-10.6752 -26.07151,-10.6752l-0.1162,2.65484c0,0 -3.89477,-3.29276 -6.18145,-9.70754c-2.72545,-7.64567 -3.23946,-12.24324 -3.23946,-12.24324c0,0 -2.33908,1.89916 -5.71704,2.7744c-4.23278,1.09673 -6.94665,0.34526 -6.94665,0.34526c0,0 3.60795,-2.71717 5.58396,-4.76989c1.76007,-1.8284 2.64658,-3.37722 2.64658,-3.37722c0,0 -2.10758,1.0847 -4.23277,1.61795c-2.21739,0.5564 -4.03008,0.53093 -4.03008,0.53093c0,0 4.97492,-5.03728 7.03074,-10.87429c1.94102,-5.51108 2.09972,-10.95731 2.09972,-10.95731c0,0 -1.36165,0.66163 -3.33013,0.79513c-1.24776,0.08463 -2.37785,-0.0489 -2.37785,-0.0489z" fill="#000000" stroke="none" stroke-width="1.5" stroke-linecap="butt"/><path d="M213.22774,117.13406c-0.57709,-7.29323 0.335,-17.15448 0.335,-17.15448c0,0 3.41059,-0.04124 13.91429,-3.14424c8.0696,-2.38394 20.54731,-9.48722 20.54731,-9.48722c0,0 -2.16005,3.00503 -3.40781,4.46015c-1.32651,1.54696 -3.99292,4.56297 -3.99292,4.56297c0,0 7.838,-1.66761 14.67476,-4.72931c8.56837,-3.53575 10.59252,-6.05309 12.95042,-4.5927c2.7829,1.72362 1.03006,23.1827 0.71846,28.74062c-0.42163,5.66922 -2.53327,9.49969 -3.15031,12.52053c-0.61704,3.02084 -0.4096,6.13662 -2.20622,16.0397c-1.12121,6.18021 -4.16183,8.92466 -10.01942,14.66081c-5.85759,5.73616 -9.05378,9.25275 -13.01359,9.32173c-3.81077,0.06639 -8.93565,-5.1002 -13.93542,-10.38244c-5.32393,-5.62474 -8.87489,-8.47713 -9.71551,-15.13975c-0.75707,-6.00039 -0.77653,-9.90853 -1.12266,-15.24835c-0.25298,-3.90273 -2.26119,-6.44504 -2.57636,-10.42801z" fill="#ffffff" stroke="#000000" stroke-width="1.5" stroke-linecap="butt"/><g fill="#bfbfbf" stroke="#a7a7a7" stroke-width="1.5" stroke-linecap="butt"><path d="M248.59458,222.33649v-17.23077h19.05325v17.23077l-9.77515,6.13018z"/><path d="M247.43481,205.76844v-5.30177h21.37278v5.30177z"/></g><g fill="#bfbfbf" stroke="#a7a7a7" stroke-width="1.5" stroke-linecap="butt"><path d="M215.79458,221.93649v-17.23077h19.05325v17.23077l-9.77515,6.13018z"/><path d="M214.63481,205.36844v-5.30177h21.37278v5.30177z"/></g><g stroke="none" stroke-width="0" stroke-linecap="butt"><path d="M201.80204,165.11778l11.88747,-21.56995l19.46778,-4.68638l13.21166,32.15077l-17.68009,-0.20692l-26.85781,2.86144l12.73897,-14.13001z" fill="#003e3e"/><path d="M203.67187,163.11827l12.29829,-19.09196l18.98544,-5.3857l9.5769,30.77304l-17.96079,0.47975l-22.58266,3.00218l12.64333,-15.33886z" fill="#000000"/></g><path d="M261.29774,102.0137c0,0 1.52429,0.31807 4.2558,1.11029c2.49492,0.72361 4.44935,1.74403 4.44935,1.74403l0.1951,1.17035c0,0 -7.24963,-3.12997 -15.1158,-2.4706c-6.2896,0.52724 -9.96319,2.8124 -9.96319,2.8124l0.04575,-4.17683c0,0 3.12748,-1.70421 7.86366,-1.85557c4.90428,-0.15672 8.09084,0.59125 8.09084,0.59125z" data-paper-data="{&quot;index&quot;:null}" fill="#000000" stroke="none" stroke-width="1.5" stroke-linecap="butt"/><g data-paper-data="{&quot;index&quot;:null}" stroke="none" stroke-width="0" stroke-linecap="butt"><path d="M281.13732,181.00772l-35.83815,-13.85468l0.0247,-12.66303l7.55384,-13.53658l11.63487,1.77197l18.75133,19.63286l-7.6341,10.4821z" fill="#003e3e"/><path d="M279.9866,180.33902l-28.85773,-15.35758l-1.47306,-7.54532l0.90466,-16.14391l13.5601,2.6586l18.1309,18.29404l-8.8251,11.70435z" fill="#000000"/></g><g stroke="none" stroke-linecap="butt"><g><g><g><path d="M262.0864,154.48532c0,0 0.54552,34.44285 -7.51864,44.39911c-2.54613,3.14354 -9.09486,3.39973 -14.05673,3.16535c-4.18559,-0.19769 -9.6738,-1.54869 -12.22242,-4.15714c-9.71538,-9.94346 -9.47978,-44.07903 -9.47978,-44.07903c0,0 10.61831,-13.05922 16.61365,-12.96174c1.37889,0.02237 5.11045,2.35349 5.11045,2.35349c0,0 3.26957,-3.15418 7.95775,-1.12222c5.30349,2.66378 13.59563,12.40214 13.59563,12.40214z" fill="#000000" stroke-width="0"/><path d="M234.96963,149.05048c-2.59697,-0.14202 -8.96137,4.85387 -10.43312,4.85387c-3.77884,0 -4.23888,-0.04504 1.18626,-5.06299c5.79916,-5.3639 8.15933,-7.40347 15.35077,-3.43026c1.77814,0.98241 0.06746,3.97687 -6.10389,3.63938z" data-paper-data="{&quot;noHover&quot;:false,&quot;origItem&quot;:[&quot;Path&quot;,{&quot;applyMatrix&quot;:true,&quot;segments&quot;:[[[698.34237,394.12604],[1.90626,-1.07338],[-2.11718,1.19516]],[[697.44393,395.4963],[-1.33594,0],[0.95312,0]],[[702.35019,394.59802],[-0.28908,0.22838],[0.04688,-0.05328]],[[702.03769,393.87482],[0.21094,0.35018],[-0.57032,-0.89828]]],&quot;closed&quot;:true,&quot;fillColor&quot;:[0,0,0]}]}" fill="#ffffff" stroke-width="0.5"/><path d="M257.46818,154.55988c-2.56069,-1.0476 -5.6757,-5.30377 -12.51259,-5.76107c-3.4325,-0.22958 -5.5154,-2.36766 -4.87271,-3.36781c1.05903,-1.64805 2.55695,-2.49972 5.16952,-2.17452c6.58458,0.81963 17.12095,13.31014 12.21577,11.3034z" data-paper-data="{&quot;noHover&quot;:false,&quot;origItem&quot;:[&quot;Path&quot;,{&quot;applyMatrix&quot;:true,&quot;segments&quot;:[[[704.70179,393.42568],[0,0],[-0.39844,0.09896]],[[704.15491,394.47622],[-0.1875,-0.30452],[0.19532,0.35018]],[[708.60803,395.69422],[-0.78124,0.07614],[0,0]],[709.39709,395.6181],[[707.80335,394.42294],[0,0],[-1.47656,-1.0962]],[[704.70179,393.4257],[1.02344,-0.2969],[0,0]]],&quot;closed&quot;:true,&quot;fillColor&quot;:[0,0,0]}]}" fill="#ffffff" stroke-width="0.5"/><path d="M223.34503,181.57948c-2.96122,-14.64988 -4.46672,-29.24605 -0.82049,-26.07574c0.79552,0.66474 4.55712,17.86114 6.0377,21.69622c3.42527,8.87178 6.81641,11.76847 13.22495,11.76847c6.51902,0 9.47176,-2.7268 11.96892,-11.67521c1.41429,-5.11346 2.93265,-21.36666 6.81968,-21.36666c0.46406,0 -2.96302,32.87582 -4.04585,35.56036c-2.07728,5.44575 -4.00921,6.85984 -13.64415,7.19223c-7.27036,0.33239 -8.70915,-0.14165 -11.80289,-1.80357c-4.37546,-2.3522 -5.8944,-5.06928 -7.92749,-15.2961z" data-paper-data="{&quot;noHover&quot;:false,&quot;origItem&quot;:[&quot;Path&quot;,{&quot;applyMatrix&quot;:true,&quot;segments&quot;:[[[696.79563,400.42922],[0,0],[0.71876,3.04502]],[[699.56125,404.9663],[-1.54686,-0.70036],[1.09374,0.49482]],[[703.65499,405.41544],[-2.5703,0.09896],[3.40626,-0.09896]],[[708.53781,403.39812],[-0.73438,1.62146],[0.38282,-0.79932]],[[709.75657,396.56968],[0,1.29412],[0,-0.05328]],[[709.44407,396.49356],[0.16406,0],[-0.57032,0]],[[707.60813,399.11228],[0.5,-1.52252],[-0.88282,2.66438]],[[703.30345,402.72062],[2.30468,0],[-2.26562,0]],[[698.51439,399.08182],[1.21094,2.64156],[-0.52344,-1.14188]],[[697.06127,396.61536],[0.28124,0.19792],[-1.28906,-0.94396]],[[696.79565,400.42924],[-1.04688,-4.36198],[0,0]]],&quot;closed&quot;:true,&quot;fillColor&quot;:[0,0,0]}]}" fill="#ffffff" stroke-width="0.5"/></g><path d="M258.12742,157.84461c0,0.46627 0.16788,31.77605 -1.34714,34.33805c-0.59605,1.00797 -0.76499,-17.60525 -1.60285,-17.07972c-2.02748,1.27169 -2.94531,57.82688 -5.34138,61.26681c-0.51549,0.74005 -2.35561,-61.94511 -2.86319,-61.1782c-3.49989,5.28796 -6.7069,10.90481 -8.17228,12.58435c-1.41863,1.62596 -0.8522,3.36619 -2.36893,3.36619c-1.23379,0 -1.92858,-5.58389 -2.59945,-1.35918c-1.71053,10.77194 -1.08612,24.106 -2.27715,22.96884c-0.3445,-0.32891 -0.79405,-20.35722 -2.95103,-32.51264c-1.47714,-8.32427 -3.25712,-16.733 -3.25712,-16.9949c0,-2.48509 6.30901,4.72464 12.22164,4.72464c5.91264,0 20.55888,-12.60932 20.55888,-10.12423z" fill="#000000" stroke-width="0"/></g><path d="M253.14376,158.3912c0,0 -0.34972,-5.7957 -12.2952,-6.10997c-11.15521,-0.29348 -11.55479,6.10489 -11.55479,6.10489c0,0 -2.8029,-8.13635 11.46729,-7.99984c14.70749,0.14069 12.3827,8.00491 12.3827,8.00491z" fill="#ffffff" stroke-width="0"/><path d="M253.2157,171.38919c0,0 -0.77787,16.04679 -11.92442,16.40637c-9.43561,0.30438 -11.34877,-16.24189 -11.34877,-16.24189c0,0 4.57405,13.59218 11.51325,12.95239c10.3862,-0.9576 11.75995,-13.11688 11.75995,-13.11688z" fill="#ffffff" stroke-width="0"/></g><g stroke-width="0"><path d="M232.37589,170.80959c0,0 -0.5607,-4.4207 -0.65027,-6.53183c-0.08076,-1.90362 0.13656,-5.57694 0.13656,-5.57694c0,0 0.92647,-1.75638 1.88234,-2.53302c0.95587,-0.77665 2.81439,-1.28308 2.81439,-1.28308c0,0 0.48803,4.77992 -0.26372,7.93186c-0.75174,3.15194 -2.75297,4.23501 -2.81406,4.60588c-0.33865,2.05612 -0.00446,5.80888 -0.00446,5.80888z" fill="#ffffff"/><path d="M234.01714,173.83822l0.04232,-6.07364c0,0 2.05516,-0.36091 3.25289,-5.88884c0.52585,-2.42699 0.00555,-7.07442 0.00555,-7.07442l1.91904,-0.3838c0,0 -0.09905,1.38892 -0.11337,2.09709c-0.01523,0.75303 0.02457,2.29479 0.02457,2.29479l1.26165,0.0946c0,0 0.55065,5.40697 0.64939,8.11141c0.10241,2.80493 -0.04555,8.42771 -0.04555,8.42771l-1.47937,-0.32161l-0.0541,6.10476c0,0 -1.17659,-1.02995 -1.6091,-1.49781c-0.34776,-0.3762 -0.78757,-1.0948 -0.78757,-1.0948l-0.34881,-5.95522l-0.66084,-0.82099l-0.07173,5.75209c0,0 -0.80089,-1.44487 -1.15405,-2.11585c-0.29967,-0.56935 -0.83092,-1.65544 -0.83092,-1.65544z" fill="#ffffff"/><path d="M237.53559,166.75602c0.06359,0.0006 -0.12097,3.29977 -0.18456,3.29916c-0.06359,-0.0006 -0.7283,-0.10306 -0.72451,-0.50579c0.00379,-0.40273 0.84548,-2.79398 0.90907,-2.79337z" fill="#000000"/><path d="M235.16439,163.09022c0.03053,0.00029 -0.2413,0.80529 -0.5765,1.493c-0.36288,0.74454 -0.79385,1.37629 -0.8269,1.37598c-0.06359,-0.0006 0.05081,-0.86013 0.35094,-1.47369c0.30013,-0.61355 0.98889,-1.3959 1.05247,-1.3953z" fill="#000000"/><path d="M241.75325,176.4043c0,0 0.31153,-4.58315 0.25104,-7.92503c-0.06209,-3.43016 -0.65476,-10.35466 -0.65476,-10.35466l-1.27415,-0.03716c0,0 -0.08343,-1.29658 -0.07219,-1.90071c0.01024,-0.55048 0.1369,-1.57811 0.1369,-1.57811c0,0 2.70719,-0.16265 4.04206,-0.02336c0.57966,0.06049 3.17117,0.27113 4.67095,1.13133c2.14693,1.23138 3.18858,3.44474 3.18858,3.44474l0.00316,3.07251c0,0 -2.40939,-2.8638 -3.50857,-3.55087c-0.9212,-0.57582 -3.47191,-0.6197 -3.47191,-0.6197c0,0 -0.84524,6.31573 -0.90928,10.38273c-0.06405,4.067 0.59613,9.502 0.59613,9.502c0,0 0.71873,-0.11813 1.12803,-0.24747c2.55659,-0.80783 5.80912,-9.01441 5.80912,-9.01441l0.13966,3.35424c0,0 -1.14023,4.69027 -3.46986,6.94116c-4.32182,4.17576 -7.73592,2.65799 -7.73592,2.65799l-0.05326,-5.53309z" fill="#ffffff"/><path d="M245.25101,177.01586c0,0 -0.48877,-5.88847 -0.41087,-8.92661c0.07743,-3.02009 0.87689,-9.2484 0.87689,-9.2484c0,0 1.80044,-0.02875 2.80127,0.62092c0.21022,0.13646 0.47131,0.35478 0.75413,0.61632c0.07439,0.06879 0.82133,2.92721 0.82133,2.92721c0,0 -0.15589,-2.27966 0.06308,-2.05172c0.87722,0.91315 1.69023,1.86641 1.69023,1.86641l-0.211,4.89958c0,0 -2.3174,4.50434 -3.5769,6.79948c-0.07904,0.14403 -0.74342,-1.02604 -0.74342,-1.02604c0,0 0.42637,1.55602 0.26429,1.792c-1.1749,1.71059 -2.32902,1.73082 -2.32902,1.73082z" fill="#ffffff"/></g></g><path d="M240.85988,146.56116c-1.03376,0 -3.5381,-3.26042 -3.7867,-5.3637c-0.22243,-1.88186 1.31512,-3.82799 3.7867,-3.82799c2.47159,0 4.2021,0.49077 4.02999,4.18853c-0.14607,3.13818 -1.55841,5.00317 -4.02999,5.00317z" fill="#ffffff" stroke="#000000" stroke-width="1.15" stroke-linecap="butt"/><path d="M244.46199,116.46744c0,0 0.1026,3.96976 0.00576,7.12662c-0.19174,6.25113 -1.08147,27.7607 -1.08147,27.7607l-2.98167,0.00864c0,0 -0.80294,-4.17274 -1.12322,-9.49979c-0.43353,-7.21063 -0.4495,-16.29321 -0.76344,-19.63229c-0.29758,-3.16513 -0.89593,-5.71453 -0.89593,-5.71453" fill="#ffffff" stroke="#000000" stroke-width="1.3" stroke-linecap="round"/><path d="M214.92738,127.25728c0,0 -4.93211,-3.51705 -6.16417,-8.97502c-1.29636,-5.74284 -1.46118,-9.7328 0.48013,-9.99193c1.94131,-0.25915 2.70321,2.37692 3.73262,8.35569c1.0294,5.97877 1.95143,10.61127 1.95143,10.61127z" data-paper-data="{&quot;index&quot;:null}" fill="#ffffff" stroke="#000000" stroke-width="1" stroke-linecap="butt"/><path d="M214.72479,123.30972c0,0 -3.56385,-2.92338 -4.31816,-8.45061c-0.42079,-3.08327 2.15675,-2.28016 2.15675,-2.28016" fill="none" stroke="#000000" stroke-width="0.25" stroke-linecap="round"/><path d="M217.73819,116.65382c0.07093,-4.89188 4.83834,-8.93609 10.21137,-8.8582c5.37302,0.0779 9.02724,4.2484 8.95632,9.14029c-0.07093,4.89188 -4.12352,8.79439 -9.49655,8.7165c-5.37302,-0.0779 -9.74207,-4.1067 -9.67114,-8.99859z" fill="#ffffff" stroke="#000000" stroke-width="1.4" stroke-linecap="butt"/><path d="M244.79446,116.65455c0.20353,-4.88817 4.45264,-8.85847 9.77048,-8.85847c5.31783,0 9.27453,3.96607 9.27453,8.85847c0,4.8924 -3.88585,9.07104 -9.69964,9.14188c-5.52997,0.06739 -9.55792,-4.03692 -9.34537,-9.14188z" fill="#ffffff" stroke="#000000" stroke-width="1.4" stroke-linecap="butt"/><path d="M221.19961,106.10998c0,0 3.36963,-1.819 8.03244,-2.28178c5.16698,-0.51283 7.76823,-0.06628 7.76823,-0.06628l0.29508,4.13747c0,0 -3.83554,-0.68065 -8.01795,-0.52113c-5.59346,0.21333 -6.64488,1.43293 -10.89774,1.89119c-3.64408,0.39266 -6.73723,0.15884 -6.73723,0.15884l-0.02589,-1.23155c0,0 3.59517,0.07398 5.23371,-0.06836c1.35239,-0.11749 3.9757,-0.93808 3.9757,-0.93808z" fill="#000000" stroke="none" stroke-width="1.5" stroke-linecap="butt"/><path d="M269.16054,116.64601c1.0294,-5.97877 1.7913,-8.61483 3.73262,-8.35569c1.94131,0.25914 1.77649,4.24909 0.48013,9.99193c-1.23206,5.45797 -6.16417,8.97502 -6.16417,8.97502c0,0 0.92203,-4.6325 1.95143,-10.61127z" data-paper-data="{&quot;index&quot;:null}" fill="#ffffff" stroke="#000000" stroke-width="1" stroke-linecap="butt"/><path d="M269.57311,112.57895c0,0 2.57754,-0.80312 2.15675,2.28016c-0.75431,5.52723 -4.31816,8.45061 -4.31816,8.45061" data-paper-data="{&quot;index&quot;:null}" fill="none" stroke="#000000" stroke-width="0.25" stroke-linecap="round"/><path d="M211.26645,133.61285c0,0 -4.04451,-12.64642 -4.46639,-17.40761c-0.53177,-6.00142 0.71515,-24.54628 0.71515,-24.54628l64.07528,-5.59609c0,0 4.11034,19.95716 4.60054,27.51646c0.33774,5.20829 -4.01481,19.7276 -4.01481,19.7276c0,0 -17.3711,3.55591 -28.2495,4.20312c-0.24782,0.01474 -0.1123,-2.07133 -0.1123,-2.07133c0,0 -0.6952,0.46666 -2.25267,0.48213c-1.55735,0.01547 -2.40147,-0.34332 -2.40147,-0.34332c0,0 0.44273,2.01981 -0.75193,1.95989c-10.77651,-0.54045 -27.1419,-3.92456 -27.1419,-3.92456z" fill="#000000" stroke="none" stroke-width="0" stroke-linecap="butt"/><g stroke="none" stroke-width="0" stroke-linecap="butt"><path d="M278.78051,88.58417c0.68956,-0.6822 3.95553,1.20679 0.885,9.19381c-3.16762,8.23954 -7.39777,9.12748 -7.39777,9.12748c0,0 -0.92858,-4.67553 -0.28337,-6.31381c0.59409,-1.50851 2.91006,-4.15348 4.01393,-5.85883c1.10387,-1.70535 2.34876,-5.71984 2.7822,-6.14866z" fill="#36494c"/><g><path d="M183.93774,119.15354l3.45469,-3.25342c0,0 2.7031,-0.11327 4.10365,-1.704c2.5222,-2.86471 8.58951,-12.20281 8.58951,-12.20281l0.90513,-10.90946c0,0 0.71714,-4.31956 20.72973,-4.24174c24.57374,0.09555 50.63253,12.32575 50.63253,12.32575c0,0 3.32724,6.65399 -2.26578,15.59376c-2.73536,4.37214 -8.77837,11.1671 -8.77837,11.1671c0,0 -10.98635,7.19337 -35.34051,5.62385c-1.56708,-0.10099 -3.10199,-0.24626 -4.60518,-0.4063c-29.25726,-3.11486 -37.42539,-11.99273 -37.42539,-11.99273z" fill="#739ea5"/><path d="M187.17066,115.81707c0,0 3.04676,-3.33693 4.89028,-5.35602c2.39896,-2.62743 8.28108,-9.06975 8.28108,-9.06975c0,0 -1.01586,7.4622 22.16924,8.28895c32.94897,1.17493 48.078,-0.76246 48.078,-0.76246c0,0 -4.40914,11.82464 -22.9019,16.715c-6.67987,1.76647 -15.92448,1.53745 -26.43841,1.05588c-0.42894,-0.01965 -0.85412,-0.04904 -1.27652,-0.06972c-26.53478,-1.29878 -32.80175,-10.80188 -32.80175,-10.80188z" fill="#90c5cd"/><path d="M226.26664,125.88225l13.11642,-15.91138l16.20046,0.02507l-13.06922,16.00578c0,0 -3.95708,1.30327 -9.02811,1.26797c-6.95745,-0.04843 -7.21955,-1.38744 -7.21955,-1.38744z" fill="#7dabb2"/><path d="M210.808,125.80704l13.88043,-16.24177l10.32145,0.31121l-14.49989,16.24177c0,0 -0.87515,0.94741 -4.76259,0.08685c-5.34772,-1.18381 -4.9394,-0.39806 -4.9394,-0.39806z" fill="#7dabb2"/></g></g></g></g></svg>