<svg version="1.1" xmlns="http://www.w3.org/2000/svg" xmlns:xlink="http://www.w3.org/1999/xlink" width="137.10155" height="235.34879" viewBox="0,0,137.10155,235.34879"><g transform="translate(-171.44922,-70.29142)"><g data-paper-data="{&quot;isPaintingLayer&quot;:true}" stroke-miterlimit="10" stroke-dasharray="" stroke-dashoffset="0" style="mix-blend-mode: normal"><path d="M197.11457,304.52296c0,0 -0.68879,-102.32019 -0.86006,-127.93512c-0.05909,-8.83812 8.87527,-39.85238 43.58242,-40.02563c34.25965,-0.17101 43.2081,31.96647 43.19955,39.99921c-0.08303,50.13108 0.70931,127.90744 0.70931,127.90744l-11.37928,0.10422l-0.17218,-124.49975c0,0 0.08184,-3.35991 -3.05305,-3.41937c-3.72319,-0.07062 -3.19305,3.3776 -3.19305,3.3776l0.22276,124.52886l-52.26774,0.07829l-0.33108,-124.92253c0,0 0.30299,-3.16445 -3.12823,-3.18117c-3.3724,-0.01643 -3.05245,3.15359 -3.05245,3.15359l0.3828,124.74226z" fill="#f54e52" fill-rule="nonzero" stroke="#000000" stroke-width="2" stroke-linecap="butt" stroke-linejoin="miter"/><path d="M256.30256,191.71539c-0.61915,0 -1.12106,-0.50192 -1.12106,-1.12106c0,-0.61915 0.50192,-1.12108 1.12106,-1.12108c0.61915,0 1.12106,0.50193 1.12106,1.12108c0,0.61915 -0.50192,1.12106 -1.12106,1.12106z" fill="#000000" fill-rule="nonzero" stroke="none" stroke-width="1.5" stroke-linecap="butt" stroke-linejoin="miter"/><path d="M250.60041,196.30713c-4.83881,-0.34083 -7.10341,-1.94476 -6.68864,-2.79706c0.12779,-0.2626 3.08579,1.15298 7.55649,1.41451c6.94787,0.40645 9.22593,-0.68485 9.22593,-0.68485v1.45936c0,0 -2.61645,1.13473 -10.09377,0.60805z" fill="#000000" fill-rule="nonzero" stroke="#000000" stroke-width="0" stroke-linecap="butt" stroke-linejoin="miter"/><path d="M220.44902,190.59432c0,-0.61915 0.50192,-1.12108 1.12106,-1.12108c0.61915,0 1.12109,0.50193 1.12109,1.12108c0,0.61915 -0.50193,1.12106 -1.12109,1.12106c-0.61915,0 -1.12106,-0.50192 -1.12106,-1.12106z" fill="#000000" fill-rule="nonzero" stroke="none" stroke-width="1.5" stroke-linecap="butt" stroke-linejoin="miter"/><path d="M227.27225,196.30713c-7.47733,0.5267 -10.09377,-0.60806 -10.09377,-0.60806v-1.45935c0,0 2.27805,1.0913 9.22592,0.68485c4.47069,-0.26155 7.42871,-1.67712 7.5565,-1.41451c0.41477,0.85229 -1.84982,2.45623 -6.68864,2.79706z" fill="#000000" fill-rule="nonzero" stroke="#000000" stroke-width="0" stroke-linecap="butt" stroke-linejoin="miter"/><path d="M239.50123,257.61409c-0.88781,0 -1.60753,-0.71971 -1.60753,-1.60753c0,-0.88781 0.71971,-1.60752 1.60753,-1.60752c0.88781,0 1.60753,0.71971 1.60753,1.60752c0,0.88781 -0.71971,1.60753 -1.60753,1.60753z" data-paper-data="{&quot;index&quot;:null}" fill="#000000" fill-rule="nonzero" stroke="none" stroke-width="1.5" stroke-linecap="butt" stroke-linejoin="miter"/><path d="M213.41459,304.53861v-129.2246c0,0 0.82088,-10.54929 0.82088,-15.87033c0,-4.87622 -0.82088,-14.8381 -0.82088,-14.8381c0,0 2.89797,-2.55083 5.04718,-4.06323c2.14921,-1.5124 5.60686,-3.03946 5.60686,-3.03946c0,0 -0.65219,43.4816 15.78376,43.40534c16.73262,-0.07764 14.99458,-43.40534 14.99458,-43.40534c0,0 4.24177,1.64737 6.68431,3.19431c2.44254,1.54694 5.15352,3.90838 5.15352,3.90838c0,0 -0.82088,10.2171 -0.82088,15.38535c0,5.24907 0.82088,15.87033 0.82088,15.87033v128.67735z" fill="#332a28" fill-rule="nonzero" stroke="#000000" stroke-width="2" stroke-linecap="butt" stroke-linejoin="miter"/><path d="M197.42149,303.59033v-124.94086l8.8954,2.5l0.5,122.44086z" fill="#ffffff" fill-rule="nonzero" stroke="none" stroke-width="0" stroke-linecap="butt" stroke-linejoin="miter"/><path d="M273.12676,303.59033v-124.60904l9.07609,-2.5l0.5,127.10904z" fill="#ffffff" fill-rule="nonzero" stroke="none" stroke-width="0" stroke-linecap="butt" stroke-linejoin="miter"/><g fill-rule="nonzero" stroke="none" stroke-linecap="butt" stroke-linejoin="miter"><path d="M279.33047,168.50123c0,2.52795 -1.72041,7.05643 -3.99556,7.05643c-2.27515,0 -4.24349,-4.52849 -4.24349,-7.05643c0,-2.52795 1.84438,-4.57725 4.11952,-4.57725c2.27515,0 4.11952,2.0493 4.11952,4.57725z" fill="#ffb66d" stroke-width="0"/><path d="M277.14444,170.77092c-0.16402,0.2115 -0.33745,0.65753 -0.83662,0.62733c-0.00959,-0.00349 -1.51032,3.48869 -1.51032,3.48869c-0.04789,-0.01748 -0.61428,-3.57761 -0.68133,-3.60207c-0.26822,-0.09788 0.13153,-0.51819 0.12663,-0.80219c-0.00244,-0.14202 0.05696,-0.30485 0.14074,-0.4154c0.007,-0.01917 0.02007,-0.02525 0.04273,-0.02784l0.00396,-0.00182c-0.05243,-0.09531 -0.08218,-0.20156 -0.08548,-0.31014c-0.16389,0.09216 -0.8236,1.94654 -1.03435,1.86962l-0.14311,-0.99866c-0.27781,-0.10138 0.11844,-1.18149 0.10306,-1.43676c-0.1569,0.07302 -0.58256,3.08393 -0.76456,3.01752c-0.30654,-0.11188 -0.19168,-3.31223 -0.17301,-3.63106l0.0316,-0.20556c0.09648,-0.56182 0.30793,-1.08168 0.61515,-1.5666c0.32197,-0.43609 0.60601,-0.44101 0.78801,-0.37457c0.16284,0.05943 0.26897,0.18501 0.31492,0.38631c0.18501,-0.269 0.53714,-0.40099 0.8341,-0.29263l0.01916,0.00699c0.20118,0.07342 0.33163,0.2513 0.38276,0.49791c0.1911,-0.25592 0.53015,-0.38185 0.81752,-0.27698l0.00957,0.0035c0.28739,0.10489 0.46561,0.41961 0.45044,0.72885c0.23457,-0.19662 0.44714,-0.18417 0.58126,-0.13523l0.08621,0.03146c0.30654,0.11188 0.45514,0.44832 0.38843,0.86905c-0.03111,0.18835 -0.06368,0.35292 -0.10123,0.50619c0.08735,0.14269 0.13507,0.33857 0.12172,0.59766c0,0 0,-0.00001 -0.00349,0.00957c-0.04419,0.53749 -0.21899,1.01645 -0.52437,1.4369zM274.66838,170.02962c0.05503,0.05534 0.1193,0.10495 0.19131,0.13496c0.00585,0.00238 0.01169,0.00477 0.01766,0.00693l0.00958,0.00349c0.26822,0.09788 0.53929,-0.02028 0.63369,-0.27892l0.05243,-0.14368l0.3426,-0.93878c0.02096,-0.05747 0.07327,-0.0818 0.13074,-0.06083c0.05747,0.02098 0.08182,0.07327 0.06085,0.13074l-0.3426,0.93877c-0.0839,0.22991 0.04476,0.47225 0.28425,0.55965l0.08621,0.03146c0.29696,0.10838 0.50022,-0.12139 0.59448,-0.26067l0.13969,-0.26382c0.23017,-0.4615 0.35129,-0.75789 0.44899,-1.09844c0.04885,-0.18086 0.08886,-0.37363 0.128,-0.60149c0.05516,-0.24041 0.00586,-0.55149 -0.24319,-0.64238l-0.08621,-0.03146c-0.15325,-0.05594 -0.30666,0.00748 -0.46021,0.19026c-0.03315,0.03132 -0.08197,0.04608 -0.12028,0.0321l-0.09579,-0.03496c-0.04788,-0.01748 -0.0818,-0.07328 -0.06083,-0.13076c0.08481,-0.26214 -0.0551,-0.56287 -0.29458,-0.65027l-0.00958,-0.00349c-0.23948,-0.0874 -0.54021,0.05252 -0.64418,0.30766c-0.01748,0.04789 -0.08286,0.07832 -0.13074,0.06085l-0.09579,-0.03496c-0.03832,-0.01398 -0.06966,-0.04712 -0.06524,-0.08893c-0.00504,-0.16466 -0.06314,-0.39212 -0.2643,-0.46554l-0.01916,-0.00699c-0.23948,-0.0874 -0.54022,0.05252 -0.64418,0.30766c-0.01748,0.04788 -0.08284,0.07831 -0.13074,0.06083l-0.09581,-0.03496c-0.04789,-0.01748 -0.06966,-0.04713 -0.07832,-0.08286c-0.02679,-0.19432 -0.0946,-0.30591 -0.20956,-0.34785c-0.17243,-0.06294 -0.35289,0.0449 -0.54398,0.30081c-0.29324,0.44657 -0.48811,0.9508 -0.58369,1.48039l-0.02811,0.19599c-0.01943,0.23173 0.05188,0.33373 0.28181,0.41763c0.22031,0.08042 0.43909,-0.01343 0.51251,-0.2146l0.2552,-0.69928c0.02096,-0.05747 0.07328,-0.08182 0.13076,-0.06085c0.05747,0.02098 0.08181,0.07328 0.06085,0.13076l-0.2552,0.69929l-0.02447,0.06705l-0.014,0.03832c-0.09089,0.24907 0.04034,0.51407 0.30856,0.61195l0.01917,0.007c0.26822,0.09788 0.53931,-0.02028 0.63019,-0.26935l0.29366,-0.80464c0.02096,-0.05747 0.07327,-0.08181 0.13074,-0.06085c0.05747,0.02098 0.08181,0.07327 0.06085,0.13075l-0.29366,0.80465l-0.06644,0.182c-0.06154,0.1686 -0.01837,0.35043 0.09608,0.47965zM277.48241,169.30942c0.00272,-0.09671 -0.00763,-0.18733 -0.01189,-0.26487c-0.10579,0.31961 -0.22984,0.6 -0.40708,0.93694l-0.14319,0.27338c-0.10229,0.16601 -0.22626,0.28137 -0.36249,0.34384c-0.15087,0.07338 -0.31735,0.08106 -0.48649,0.01933l-0.0862,-0.03146c-0.19892,-0.07259 -0.34223,-0.20994 -0.39996,-0.37982c-0.18401,0.19553 -0.47656,0.26619 -0.74892,0.1668l-0.00959,-0.0035l-0.00958,-0.0035c-0.09785,-0.03572 -0.18282,-0.0894 -0.2527,-0.15551l-0.02677,-0.00076c-0.05062,0.07921 -0.08907,0.1846 -0.0883,0.27171c-0.00376,0.24829 0.19375,0.45064 0.45772,0.47098l1.36157,0.10612c0.35108,0.01958 0.54384,-0.18146 0.72795,-0.4182c0.28534,-0.3952 0.44267,-0.82627 0.48594,-1.33152z" fill="#e2a261" stroke-width="1"/><path d="M277.05608,170.67498c-0.12199,0.1569 -0.2653,0.31202 -0.45027,0.39313c-0.09416,0.04129 -0.19911,0.0634 -0.31754,0.05678l-1.21051,2.57491c-0.4127,2.9051 -0.69836,-2.95077 -0.6946,-3.19907c-0.00077,-0.08711 0.03552,-0.20367 0.08614,-0.28289l0.16323,-0.01451c0.06989,0.06611 0.15287,0.10942 0.25072,0.14513l0.00949,0.00315l0.00949,0.00317c0.27234,0.09939 0.56249,0.02173 0.7465,-0.1738c0.05773,0.16989 0.13497,0.26439 0.33389,0.33698l0.07609,0.03258c0.16915,0.06173 0.29773,0.07498 0.4486,0.00159c0.13621,-0.06247 0.24347,-0.14552 0.34577,-0.31152l0.14185,-0.25471c0.17725,-0.33695 0.31277,-0.58357 0.41856,-0.90316c0.00426,0.07754 0.13331,0.09973 0.13059,0.19644c-0.04327,0.50523 -0.20262,1.00057 -0.48797,1.39576z" data-paper-data="{&quot;noHover&quot;:false,&quot;origItem&quot;:[&quot;Path&quot;,{&quot;applyMatrix&quot;:true,&quot;segments&quot;:[[[273.91213,176.61986],[-0.03151,0.36793],[0.00198,-0.07043]],[[273.90347,176.42697],[0.0031,0.05647],[-0.07704,0.23275]],[[273.60702,177.1093],[0.12908,-0.24538],[0,0]],[[273.50274,177.30839],[0,0],[-0.07449,0.12089]],[[273.23877,177.55879],[0.0992,-0.04549],[-0.10987,0.05344]],[[272.88449,177.57287],[0.12318,0.04495],[0,0]],[[272.82171,177.54996],[0,0],[-0.14486,-0.05286]],[[272.53043,177.27336],[0.04204,0.12372],[-0.134,0.14239]],[[271.98505,177.39483],[0.19833,0.07238],[0,0]],[271.97807,177.39228],[[271.9711,177.38973],[0,0],[-0.07126,-0.02601]],[[271.78706,177.27648],[0.0509,0.04814],[0,0]],[[271.76757,177.27592],[0,0],[-0.03686,0.05769]],[[271.70326,177.4738],[-0.00056,-0.06344],[-0.00274,0.18081]],[[272.03659,177.81679],[-0.19222,-0.01481],[0,0]],[[273.02814,177.89407],[0,0],[0.25567,0.01426]],[[273.55825,177.58952],[-0.13407,0.17242],[0.2078,-0.2878]]],&quot;closed&quot;:true,&quot;fillColor&quot;:[0,0,0,1]}]}" fill="#f54e52" stroke-width="0.5"/><path d="M274.54607,169.61344l0.06587,-0.18224l0.26629,-0.82565c0.02096,-0.05747 -0.00866,-0.18641 -0.06612,-0.20739c-0.05747,-0.02098 0.01819,0.04172 -0.00278,0.0992l-0.3227,0.74455c-0.09089,0.24907 -0.60144,1.21287 -0.86965,1.11499l-0.19322,1.13287c-0.26822,-0.09788 -0.09137,-2.27307 -0.00048,-2.52214l0.0136,-0.03972l0.02384,-0.06963l0.25638,-0.73414c0.02096,-0.05747 -0.00161,-0.11489 -0.05908,-0.13588c-0.05747,-0.02098 0.01987,0.04835 -0.0011,0.10583l-0.25301,0.66831c-0.07342,0.20116 -0.42705,0.32051 -0.64738,0.24011c-0.06526,-0.02382 -0.16746,3.1728 -0.20889,3.14201c-0.10454,-0.07768 -0.0884,-3.40672 -0.07448,-3.57266l0.02819,-0.2015c0.09558,-0.52958 0.30729,-1.07518 0.60053,-1.52175c0.19109,-0.25591 0.38461,-0.37532 0.55704,-0.31238c0.11495,0.04196 0.26076,0.26657 0.28755,0.46087c0.00866,0.03573 -0.04773,-0.04754 0.00017,-0.03006l0.09778,0.03366c0.04789,0.01748 0.11824,-0.01581 0.13572,-0.06371c0.10397,-0.25514 0.43102,-0.40265 0.67051,-0.31526l0.01986,0.00694c0.20118,0.07342 0.27103,0.30105 0.27607,0.46571c-0.00441,0.04182 0.03087,0.07549 0.06917,0.08946l0.10114,0.03605c0.04789,0.01748 0.11876,-0.01136 0.13625,-0.05925c0.10397,-0.25514 0.42133,-0.38685 0.66082,-0.29946l0.00987,0.00369c0.23948,0.0874 0.39748,0.40623 0.31266,0.66836c-0.02096,0.05747 0.01607,0.11832 0.06395,0.13579l0.09725,0.03769c0.03832,0.014 -0.03598,0.06004 -0.00283,0.02873c0.15354,-0.18279 0.43085,-0.30537 0.58411,-0.24944l0.08697,0.03316c0.24907,0.09089 0.30352,0.42056 0.24837,0.66097c-0.03913,0.22786 -0.07906,0.43784 -0.12791,0.6187c-0.0977,0.34054 -0.23177,0.66947 -0.46194,1.13096l-0.14518,0.27033c-0.09425,0.13928 -0.31216,0.38073 -0.60912,0.27236l-0.08782,-0.03053c-0.23948,-0.0874 -0.43607,-0.44909 -0.35217,-0.67899l0.31202,-0.90145c0.02096,-0.05747 -0.00521,-0.10335 -0.06267,-0.12432c-0.05747,-0.02098 0.0222,0.04077 0.00124,0.09824l-0.3791,0.97942l-0.05704,0.1456c-0.0944,0.25864 -0.39424,0.38099 -0.66246,0.28309l-0.00999,-0.00353c-0.00598,-0.00218 -0.01256,-0.00462 -0.01839,-0.00699c-0.07201,-0.03001 -0.14513,-0.08096 -0.20016,-0.13631c-0.11446,-0.12921 -0.1691,-0.31464 -0.10757,-0.48325z" data-paper-data="{&quot;noHover&quot;:false,&quot;origItem&quot;:[&quot;Path&quot;,{&quot;applyMatrix&quot;:true,&quot;segments&quot;:[[[271.86285,177.14434],[-0.08335,-0.0941],[0.04007,0.0403]],[[272.00217,177.24262],[-0.05244,-0.02185],[0.00426,0.00173]],[[272.01503,177.24767],[-0.00435,-0.00159],[0,0]],[[272.022,177.25022],[0,0],[0.19533,0.07128]],[[272.48348,177.04709],[-0.06874,0.18835],[0,0]],[272.52167,176.94245],[[272.77117,176.25881],[0,0],[0.01527,-0.04185]],[[272.86638,176.21451],[-0.04185,-0.01528],[0.04185,0.01528]],[[272.91069,176.30972],[0.01527,-0.04185],[0,0]],[[272.66119,176.99337],[0,0],[-0.0611,0.16742]],[[272.86819,177.40093],[-0.1744,-0.06365],[0,0]],[[272.93097,177.42384],[0,0],[0.21625,0.07892]],[[273.36389,177.234],[-0.06864,0.10143],[0,0]],[[273.46562,177.04189],[0,0],[0.16762,-0.33608]],[[273.79258,176.24196],[-0.07115,0.248],[0.03557,-0.13171]],[[273.88579,175.80393],[-0.0285,0.16593],[0.04017,-0.17507]],[[273.70869,175.33613],[0.18138,0.06619],[0,0]],[[273.64591,175.31322],[0,0],[-0.11161,-0.04074]],[[273.31077,175.45178],[0.11181,-0.13311],[-0.02414,0.02281]],[[273.22318,175.47515],[0.0279,0.01019],[0,0]],[[273.15342,175.44969],[0,0],[-0.03487,-0.01273]],[[273.10911,175.35447],[-0.01527,0.04185],[0.06176,-0.1909]],[[272.89459,174.88093],[0.1744,0.06365],[0,0]],[[272.88761,174.87838],[0,0],[-0.1744,-0.06365]],[[272.4185,175.10243],[0.07572,-0.1858],[-0.01273,0.03488]],[[272.32328,175.14674],[0.03488,0.01273],[0,0]],[[272.25352,175.12128],[0,0],[-0.0279,-0.01018]],[[272.20601,175.05651],[-0.00321,0.03045],[-0.00367,-0.11991]],[[272.01354,174.71749],[0.1465,0.05346],[0,0]],[[271.99959,174.7124],[0,0],[-0.1744,-0.06365]],[[271.53047,174.93645],[0.07572,-0.1858],[-0.01273,0.03487]],[[271.43526,174.98074],[0.03488,0.01273],[0,0]],[[271.36549,174.95528],[0,0],[-0.03488,-0.01273]],[[271.30846,174.89494],[0.00631,0.02602],[-0.01951,-0.14151]],[[271.15585,174.64162],[0.08371,0.03055],[-0.12557,-0.04583]],[[270.7597,174.86068],[0.13916,-0.18636],[-0.21355,0.32521]],[[270.33464,175.93875],[0.06961,-0.38566],[0,0]],[[270.31417,176.08148],[0,0],[-0.01415,0.16875]],[[270.51938,176.38561],[-0.16743,-0.0611],[0.16044,0.05856]],[[270.89261,176.22934],[-0.05347,0.14649],[0,0]],[[271.07846,175.72009],[0,0],[0.01527,-0.04185]],[[271.17368,175.67578],[-0.04185,-0.01528],[0.04185,0.01528]],[[271.21799,175.77101],[0.01527,-0.04185],[0,0]],[271.03214,176.28026],[271.01432,176.32909],[[271.00413,176.35699],[0,0],[-0.06619,0.18138]],[[271.22884,176.80264],[-0.19533,-0.07128],[0,0]],[[271.2428,176.80773],[0,0],[0.19533,0.07128]],[[271.70173,176.61158],[-0.06619,0.18138],[0,0]],[[271.91558,176.02561],[0,0],[0.01527,-0.04185]],[[272.01079,175.9813],[-0.04185,-0.01528],[0.04185,0.01528]],[[272.0551,176.07652],[0.01527,-0.04185],[0,0]],[271.84125,176.6625],[[271.79287,176.79505],[0,0],[-0.04481,0.12278]]],&quot;closed&quot;:true,&quot;fillColor&quot;:[0,0,0,1]}]}" fill="#f54e52" stroke-width="0.5"/></g><path d="M174.56587,274.67266c-4.41981,-2.28114 -1.08741,3.20906 -3.00054,-2.35602c-2.94715,-8.57293 51.19705,-131.84328 50.71507,-136.26601c-0.48198,-4.42274 5.20108,-15.94292 6.85825,-21.88406c1.65715,-5.94117 1.14397,-7.86087 3.34896,-13.65857c2.20501,-5.7977 3.63253,-9.22443 9.90777,-19.16514c2.18693,-3.46439 6.88471,-7.22354 11.09767,-8.95989c7.87575,-3.24597 18.6,-3.16453 32.3606,3.48128c21.12153,10.20082 23.9033,27.98602 22.33007,33.17158c-1.57323,5.18557 -5.2137,9.63176 -7.85305,14.17568c-2.63935,4.54388 -5.35305,9.62011 -7.96495,13.09254c-2.61189,3.47245 -5.43535,5.8799 -7.27251,7.92717c-1.83718,2.04729 -1.9443,1.91193 -3.79348,4.32209c-1.84914,2.41017 -4.90216,7.28048 -8.77192,11.45736c-3.10844,3.35512 -78.7589,128.56835 -86.01459,129.68989c-5.9375,0.91778 44.85691,-77.19026 36.32032,-75.03297c-1.8225,0.46057 -0.37085,-22.79966 -1.17383,-23.2141z" fill="#000000" fill-rule="evenodd" stroke="none" stroke-width="0.1" stroke-linecap="round" stroke-linejoin="round"/><path d="M223.14006,186.57227c-3.91033,-1.94791 -49.55979,90.99293 -51.34121,85.63425c-2.39545,-7.20575 52.29345,-129.15526 51.907,-135.8641c-0.38647,-6.70885 5.16446,-14.80319 6.68154,-20.00636c1.5171,-5.20316 0.95264,-7.65327 3.55171,-14.5268c2.59906,-6.87355 3.9682,-8.05041 9.16895,-18.1024c2.00444,-3.87543 6.31857,-7.36467 10.3022,-9.16025c7.78725,-3.51 17.26702,-3.61192 30.52878,2.79297c20.35586,9.83103 22.07471,25.52829 20.80328,29.71902c-1.27141,4.19076 -5.28247,10.68635 -8.03627,14.95833c-2.75379,4.27199 -5.9006,11.32813 -8.56708,14.41383c-2.66648,3.08568 -4.1224,4.14812 -5.82016,5.79626c-1.69776,1.64812 -2.38231,2.18438 -4.16444,4.50717c-1.78211,2.32279 -4.37886,7.293 -8.49941,11.13593c-4.12055,3.84296 -9.9268,5.06081 -17.34039,6.60863c-5.6858,1.18711 -25.9484,48.3499 -30.38433,46.3521z" fill="#ffffff" fill-rule="evenodd" stroke="none" stroke-width="0.1" stroke-linecap="round" stroke-linejoin="round"/><path d="M292.93199,105.03463c0,0 1.61333,0.49671 4.48201,1.6267c2.62021,1.03214 4.62715,2.33024 4.62715,2.33024l0.09283,1.28293c0,0 -10.25151,14.00361 -13.77661,13.47769c-3.59333,-0.53611 -0.50208,-15.5792 -4.85348,-13.13645c-6.71598,-2.92459 -10.09287,-0.82024 -10.09287,-0.82024l2.08787,-6.17965c0,0 3.54732,-1.52481 8.67481,-1.21159c5.30947,0.32435 8.67379,1.45238 8.67379,1.45238z" data-paper-data="{&quot;index&quot;:null}" fill="#000000" fill-rule="nonzero" stroke="none" stroke-width="1.5" stroke-linecap="butt" stroke-linejoin="miter"/><g fill-rule="nonzero" stroke-linecap="butt" stroke-linejoin="miter"><g stroke="none"><path d="M264.21011,157.34886c0,0 -6.83405,15.40333 -17.53848,19.42815c-2.97275,1.11773 -9.64747,-1.78906 -13.52417,-3.73976c-3.71312,-1.8684 -8.09719,-4.94156 -9.70566,-7.77712c-5.53858,-9.76392 3.07143,-26.78034 3.07143,-26.78034c0,0 11.61053,-5.12016 17.04649,-2.40769c1.35068,0.67397 4.84322,6.46653 4.84322,6.46653c0,0 6.80647,-0.24197 10.24227,3.06132c4.81468,4.62901 5.56491,11.74892 5.56491,11.74892z" fill="#000000" stroke-width="0"/><path d="M237.82021,136.94123c2.89884,0.05872 4.22083,0.69889 6.25849,2.73549c1.44854,1.45479 5.29361,6.72188 4.49984,8.40431c-0.18042,0.3824 -6.61698,-2.13601 -11.6399,-4.50582c-4.25773,-2.00879 -7.80958,-4.20031 -7.66526,-4.50621c0.3608,-0.76474 5.72636,-2.14944 8.54675,-2.12774z" data-paper-data="{&quot;noHover&quot;:false,&quot;origItem&quot;:[&quot;Path&quot;,{&quot;applyMatrix&quot;:true,&quot;segments&quot;:[[[732.89469,393.12859],[0,0],[-0.92188,0.4263]],[[730.47281,395.02411],[0,-0.3045],[0,0.1218]],[[733.56657,395.24487],[-1.69532,0],[2,0]],[[736.66033,394.99365],[0,0.15226],[0,-0.6699]],[[735.20721,393.02961],[0.6953,0.25122],[-0.97656,-0.35018]],[[732.89471,393.12857],[0.95312,-0.4263],[0,0]]],&quot;closed&quot;:true,&quot;fillColor&quot;:[0,0,0]}]}" fill="#ffffff" stroke-width="0.5"/><path d="M260.85112,151.65715l1.05683,3.91015l-4.71867,-1.88098c-2.51573,-1.02332 -11.02652,-6.0189 -11.96563,-6.67238c-1.51443,-1.11182 -0.13783,-0.14324 1.41213,-0.56619c4.14614,-1.13139 6.42026,-2.83033 10.3284,-0.58909c2.13601,1.2181 2.93785,2.5224 3.88697,5.79851z" data-paper-data="{&quot;noHover&quot;:false,&quot;origItem&quot;:[&quot;Path&quot;,{&quot;applyMatrix&quot;:true,&quot;segments&quot;:[[[740.47281,393.10575],[0.88282,0.0685],[-1.61718,-0.12942]],[[738.32437,394.54451],[0,-1.24084],[0,0.57856]],[[739.11343,395.37427],[-0.66406,-0.1294],[0.40626,0.06852]],[[741.66031,395.44279],[-0.97656,0.05328],[0,0]],[743.44937,395.37427],[[742.49625,394.30091],[0,0],[-0.8125,-0.92112]]],&quot;closed&quot;:true,&quot;fillColor&quot;:[0,0,0]}]}" fill="#ffffff" stroke-width="0.5"/><path d="M234.2582,149.88681c0.08447,1.95652 0.45892,4.25301 0.71537,5.28556c0.63375,2.21573 3.69559,4.29312 7.96411,5.46551c3.17765,0.8915 3.16708,0.99752 7.04614,-1.98743c2.2883,-1.74867 4.50584,-2.8328 5.23608,-2.65187c0.64273,0.16305 1.57537,0.49386 1.24541,0.73558c-5.56702,4.78308 -7.3032,6.14535 -9.29906,6.81652c-2.12843,0.74888 -3.03513,0.64307 -7.56008,-1.56193c-6.30137,-3.06652 -7.74091,-5.36025 -8.02961,-11.71403c-0.29635,-5.42243 -0.08653,-6.11021 1.2603,-5.10079c0.46661,0.3838 1.34433,2.68977 1.42133,4.71288z" data-paper-data="{&quot;noHover&quot;:false,&quot;origItem&quot;:[&quot;Path&quot;,{&quot;applyMatrix&quot;:true,&quot;segments&quot;:[[[732.56655,396.53901],[0.21094,0.0533],[-0.59374,-0.1218]],[[732.94937,398.35841],[-0.9297,-1.72044],[1.07032,2.02494]],[[737.25405,400.83249],[-2.52342,-0.03046],[1.8125,0.02284]],[[739.87905,400.23109],[-0.57812,0.57094],[0.54688,-0.52526]],[[741.85561,396.66843],[-1.07812,2.41316],[0.07032,-0.12942]],[[741.51967,396.53901],[0.23438,-0.04566],[-0.26562,0.05328]],[[740.23061,398.23661],[0.47656,-0.92112],[-0.80468,1.56818]],[[738.20717,400.05601],[1.17188,-0.19792],[-1.57032,0.27406]],[[734.61343,399.45461],[0.54686,0.62424],[-0.24218,-0.29688]],[[733.56655,397.78747],[0.32814,0.62422],[-0.33594,-0.64706]]],&quot;closed&quot;:true,&quot;fillColor&quot;:[0,0,0]}]}" fill="#ffffff" stroke-width="0.5"/><path d="M229.46753,148.21091c0.04792,3.76254 0.6026,7.61579 1.15338,8.78722c1.4148,3.05168 4.25867,5.10393 9.59503,7.31777c5.72882,2.399 7.20108,2.29065 13.28637,-2.87909c2.23374,-1.93801 4.72446,-3.59654 5.50838,-3.8344c1.3493,-0.3685 1.77797,0.06091 -1.03929,5.06616c-6.88084,12.60137 -11.35203,14.17761 -24.04665,8.1883c-6.72248,-3.2418 -9.32262,-5.54173 -10.35814,-9.09232c-0.88977,-2.94424 -0.46688,-5.75429 2.02549,-14.13845c2.34852,-7.77418 2.23588,-7.2895 2.96185,-6.94699c0.29429,0.13885 0.92446,3.79707 0.91358,7.53179z" data-paper-data="{&quot;noHover&quot;:false,&quot;origItem&quot;:[&quot;Path&quot;,{&quot;applyMatrix&quot;:true,&quot;segments&quot;:[[[730.47281,395.74731],[0.11718,0],[-0.28906,0]],[[730.58999,398.43453],[-0.42968,-2.89276],[0.47656,3.11352]],[[732.08999,403.26849],[-0.74218,-0.82216],[0.88282,0.99724]],[[736.77749,404.59307],[-2.6875,-0.02284],[5.05468,0]],[[743.25405,398.35841],[-0.30468,5.1613],[0.14844,-2.063]],[[742.99623,396.47051],[0.38282,-0.32734],[-0.21876,0.19792]],[[741.80091,398.58679],[0.4297,-0.9744],[-1.1875,2.61872]],[[737.87903,401.67747],[2.23438,-0.09896],[-2.07812,0.09896]],[[733.47279,400.70307],[0.92968,0.77648],[-0.35938,-0.29688]],[[731.75405,397.96255],[0.59374,1.21802],[-0.57032,-1.218]]],&quot;closed&quot;:true,&quot;fillColor&quot;:[0,0,0]}]}" fill="#ffffff" stroke-width="0.5"/></g><path d="M231.64304,158.71125c4.75321,3.01791 7.6362,5.6399 7.6362,5.6399c0,0 4.20438,0.54413 7.29427,1.19834c0.35369,0.07489 1.84634,-1.01545 2.13364,-0.93833c0.64777,0.17388 2.93095,-3.82685 4.40948,-3.20158c0.46042,0.19471 0.83951,-1.03736 1.37508,-1.75475c0.65266,-0.87425 1.45687,-1.30754 1.9064,-1.53265c1.9627,-0.98281 3.38383,-0.00068 3.33429,0.19455c-0.02965,0.11688 -6.8618,13.96465 -10.93168,18.43742c-3.52014,3.86861 -3.77118,9.88785 -6.59886,10.65425c-2.50468,0.67887 -0.37747,-9.90669 -1.30434,-13.35388c-0.80898,-3.00868 -4.62266,1.18627 -7.07188,0.13896c-1.78147,-0.7497 -7.92072,4.76968 -9.96816,3.70485c-2.69133,-1.3997 -1.17727,-9.64803 -2.01655,-13.23755c-0.46349,-1.9823 -4.76746,8.14123 -5.68408,6.4039c-1.69811,-3.21849 3.2648,-11.32839 3.8927,-16.14392c0.51879,-3.97869 8.09838,-13.54991 8.12382,-13.58818c0.06996,-0.10521 1.29145,4.42924 1.34583,9.09297c0.01867,1.60139 1.13629,3.16023 0.86429,4.58206c-0.11385,0.59513 -0.19983,1.41199 0.25955,1.70366z" fill="#ffffff" stroke="#000000" stroke-width="1.9"/></g><path d="M249.55214,142.59275c-0.99586,-0.51399 -1.78734,-4.90005 -0.98108,-7.04984c0.72139,-1.92347 3.17019,-3.0338 5.55117,-1.80493c2.38099,1.22887 3.80407,2.56207 1.79974,6.0387c-1.70102,2.95053 -3.98885,4.04493 -6.36983,2.81607z" fill="#ffffff" fill-rule="nonzero" stroke="#000000" stroke-width="1.15" stroke-linecap="butt" stroke-linejoin="miter"/><path d="M267.98477,115.39307c0,0 -1.87492,3.87527 -3.53779,6.86826c-2.22176,3.99896 -3.61475,31.37681 -10.14054,46.48677c-3.14578,7.2838 -3.89292,10.53016 -3.89292,10.53016c0,0 0.36057,11.0982 -0.78844,14.50578c-1.23286,3.65624 -2.05239,15.16867 -4.29821,16.09229c-0.88613,0.36443 -6.99853,-3.68327 -6.81294,-4.51799c0.28696,-1.29066 1.28636,-9.76751 1.23961,-10.11977c-0.0494,-0.37227 -0.1182,-7.36435 0.5577,-9.39644c2.0429,-6.14195 5.32122,-18.21717 5.32122,-18.21717c0,0 6.39458,-23.05135 8.73463,-28.34238c3.16749,-7.16188 3.66794,-17.91948 5.02571,-21.29226c1.28703,-3.19707 1.97817,-5.95052 1.97817,-5.95052" fill="#ffffff" fill-rule="nonzero" stroke="#000000" stroke-width="1.3" stroke-linecap="round" stroke-linejoin="miter"/><path d="M242.14787,102.28558c2.50057,-4.6773 9.10401,-6.20293 14.24136,-3.45641c5.13734,2.7465 6.58406,8.58102 4.08349,13.25833c-2.50057,4.6773 -9.26594,8.2063 -14.40331,5.4598c-5.13734,-2.7465 -6.42214,-10.5844 -3.92155,-15.26171z" fill="#ffffff" fill-rule="nonzero" stroke="#000000" stroke-width="1.4" stroke-linecap="butt" stroke-linejoin="miter"/><path d="M243.50038,105.79271c1.56947,-2.57077 6.33656,-2.94457 10.64759,-0.83493c4.31105,2.10964 6.5335,5.90385 4.96403,8.47461c-1.56947,2.57077 -7.97214,6.62316 -12.28319,4.51352c-4.31105,-2.10964 -4.8979,-9.58243 -3.32844,-12.15321z" fill="#000000" fill-rule="nonzero" stroke="none" stroke-width="1.5" stroke-linecap="butt" stroke-linejoin="miter"/><path d="M268.21205,115.73863c2.62646,-4.6078 8.69385,-6.31992 13.81677,-3.6759c5.1229,2.64402 6.96266,8.43199 4.53016,13.14506c-2.4325,4.71307 -13.64525,14.82069 -22.17846,20.04448c1.04149,-11.68376 1.08859,-24.70149 3.83154,-29.51364z" fill="#ffffff" fill-rule="nonzero" stroke="#000000" stroke-width="1.4" stroke-linecap="butt" stroke-linejoin="miter"/><path d="M242.34654,101.73889c0,0 4.54354,-8.65307 14.60026,-3.23056c9.04138,4.86876 4.52802,13.81341 4.52802,13.81341z" fill="#ffffff" fill-rule="nonzero" stroke="#000000" stroke-width="1.15" stroke-linecap="butt" stroke-linejoin="miter"/><path d="M268.04812,115.1636c0,0 4.4648,-9.23426 15.31377,-3.20184c9.1924,5.15117 4.39773,14.04514 4.39773,14.04514z" fill="#ffffff" fill-rule="nonzero" stroke="#000000" stroke-width="1.15" stroke-linecap="butt" stroke-linejoin="miter"/><path d="M256.15813,92.23251c0,0 2.86843,2.0888 6.20864,6.2287c3.2257,3.99801 4.0378,7.77279 4.0378,7.77279l-6.45945,18.73716c0,0 0.68396,-17.17227 -3.33173,-22.71234c-5.02231,-6.92873 -11.87215,-13.28945 -11.87215,-13.28945l1.90536,-1.25599c0,0 2.52135,0.78791 4.88057,2.32574c2.58293,1.68367 3.6218,2.80688 3.6218,2.80688z" data-paper-data="{&quot;index&quot;:null}" fill="#000000" fill-rule="nonzero" stroke="none" stroke-width="1.5" stroke-linecap="butt" stroke-linejoin="miter"/><g fill-rule="evenodd" stroke="none" stroke-width="0.1" stroke-linecap="round" stroke-linejoin="round"><path d="M226.64736,103.77442c2.2192,-7.73559 3.86307,-8.28114 4.97943,-8.02304c1.11636,0.25808 1.64501,2.47219 1.53102,4.00707c-0.07059,0.95007 -1.87592,6.39069 -2.98927,10.64535c-0.68533,2.61894 -1.15713,4.79819 -1.38909,4.86572c-0.60875,0.17723 -4.35128,-3.7595 -2.13209,-11.4951z" fill="#000000"/><path d="M231.75377,96.69628c0.85192,0.46114 0.81667,2.4647 0.81667,2.4647l-0.54085,2.02805c-0.28139,-0.12987 -0.54906,-0.2011 -0.79862,-0.2021c-0.39606,-0.00161 -0.73937,0.15924 -1.02053,0.42937c-0.56224,0.54028 -0.90813,1.51239 -1.1097,2.67708c-0.38334,2.21485 -0.22,5.11546 0.27649,7.04715l-0.86861,3.186c-0.548,-0.60175 -17.66678,26.61194 -17.69328,22.69752c-0.01631,-2.40961 16.80155,-34.72401 17.35643,-36.15401c1.4563,-3.75298 2.36012,-4.49985 3.39938,-4.24411c0.06495,0.01598 0.12585,0.03972 0.18262,0.07035zM229.5217,110.59714c-0.38769,-1.86847 -0.49249,-4.46085 -0.14959,-6.44206c0.19745,-1.14101 0.54829,-2.07637 1.04166,-2.55049c0.24669,-0.23706 0.52167,-0.35952 0.84032,-0.35823c0.21039,0.00088 0.44722,0.06421 0.70926,0.19087z" fill="#ffffff"/></g><g fill-rule="evenodd" stroke="none" stroke-width="0.1" stroke-linecap="round" stroke-linejoin="round"><path d="M283.88404,143.51272c-0.06379,-0.22359 1.44701,-1.8165 3.2083,-3.86414c2.86132,-3.32652 6.32575,-7.88442 7.0554,-8.48535c1.17881,-0.97082 3.23257,-1.81879 4.00949,-1.07703c0.77694,0.74175 1.17511,2.36465 -3.92786,8.5681c-5.10296,6.20343 -10.17794,5.44519 -10.34535,4.85839z" fill="#000000"/><path d="M297.33108,130.52676c0.05358,0.02766 0.10379,0.06265 0.1498,0.10521c0.73575,0.68167 0.59449,1.83013 -1.68778,5.14237c-0.8696,1.26205 -2.94593,3.65459 -4.8961,5.02303c-3.16806,2.223 -5.35072,2.48238 -6.11494,2.39062l2.11991,-2.48633c1.80975,-0.71173 4.23054,-2.24445 5.82008,-3.81974c0.83587,-0.82836 1.44298,-1.66131 1.59184,-2.41918c0.07443,-0.37891 0.02908,-0.74477 -0.17407,-1.05948c-0.12802,-0.19833 -0.32182,-0.37084 -0.56988,-0.52063l1.3587,-1.59372c0,0 1.59667,-1.17674 2.40246,-0.76216zM293.40366,133.07767c0.23564,0.13623 0.40735,0.28864 0.51529,0.45581c0.16344,0.25321 0.20491,0.54259 0.1396,0.8751c-0.13063,0.66501 -0.70557,1.48091 -1.52449,2.29237c-1.42187,1.4091 -3.56441,2.81179 -5.26777,3.57399z" fill="#ffffff"/></g><text transform="translate(265.70129,132.14815) rotate(29.54177) scale(0.5,0.5)" font-size="40" xml:space="preserve" fill="#000000" fill-rule="nonzero" stroke="none" stroke-width="1" stroke-linecap="butt" stroke-linejoin="miter" stroke-miterlimit="10" stroke-dasharray="" stroke-dashoffset="0" font-family="Sans Serif" font-weight="normal" text-anchor="start" style="mix-blend-mode: normal"><tspan x="0" dy="0">P</tspan></text></g></g></svg>