<svg version="1.1" xmlns="http://www.w3.org/2000/svg" xmlns:xlink="http://www.w3.org/1999/xlink" width="102.45099" height="252.1809" viewBox="0,0,102.45099,252.1809"><g transform="translate(-189.73482,-53.56933)"><g data-paper-data="{&quot;isPaintingLayer&quot;:true}" fill-rule="nonzero" stroke-linejoin="miter" stroke-miterlimit="10" stroke-dasharray="" stroke-dashoffset="0" style="mix-blend-mode: normal"><path d="M201.54534,304.39158c0,0 -0.63536,-94.38387 -0.79335,-118.01201c-0.05451,-8.15261 8.18688,-36.76129 40.20201,-36.9211c31.60235,-0.15775 39.85672,29.48704 39.84884,36.89673c-0.07659,46.24274 0.65429,117.98648 0.65429,117.98648l-10.49667,0.09614l-0.15882,-114.84311c0,0 0.07549,-3.0993 -2.81625,-3.15415c-3.43441,-0.06514 -2.94538,3.11562 -2.94538,3.11562l0.20548,114.86995l-48.21366,0.07222l-0.30539,-115.23309c0,0 0.27949,-2.919 -2.8856,-2.93443c-3.11083,-0.01515 -2.81569,2.90899 -2.81569,2.90899l0.35311,115.0668z" fill="#72bfbf" stroke="none" stroke-width="0" stroke-linecap="butt"/><path d="M256.1425,200.33376c-0.57113,0 -1.03411,-0.46299 -1.03411,-1.03411c0,-0.57113 0.46299,-1.03413 1.03411,-1.03413c0.57113,0 1.03411,0.463 1.03411,1.03413c0,0.57113 -0.46299,1.03411 -1.03411,1.03411z" fill="#000000" stroke="none" stroke-width="1.5" stroke-linecap="butt"/><path d="M223.06988,199.29965c0,-0.57113 0.46299,-1.03413 1.03411,-1.03413c0.57113,0 1.03413,0.463 1.03413,1.03413c0,0.57113 -0.463,1.03411 -1.03413,1.03411c-0.57113,0 -1.03411,-0.46299 -1.03411,-1.03411z" fill="#000000" stroke="none" stroke-width="1.5" stroke-linecap="butt"/><path d="M229.36386,204.56935c-6.89736,0.48585 -9.31086,-0.56089 -9.31086,-0.56089v-1.34616c0,0 2.10136,1.00666 8.51033,0.63173c4.12393,-0.24126 6.85251,-1.54704 6.97039,-1.3048c0.3826,0.78618 -1.70634,2.26571 -6.16985,2.58011z" fill="#000000" stroke="#000000" stroke-width="0" stroke-linecap="butt"/><path d="M201.54534,304.39158c0,0 -0.63536,-94.38387 -0.79335,-118.01201c-0.05137,-7.68273 7.26443,-33.19813 34.90028,-36.28599c1.30183,-0.14546 -1.20304,107.88814 0.21596,154.19078c-0.08537,0.06075 -0.16975,0.12281 -0.2531,0.18615l-18.58331,0.02784l-0.30539,-115.23309c0,0 0.27949,-2.919 -2.8856,-2.93443c-3.11083,-0.01515 -2.81569,2.90899 -2.81569,2.90899l0.35311,115.0668z" fill="#bfbfbf" stroke="#bfbfbf" stroke-width="2.5" stroke-linecap="butt"/><path d="M248.73315,150.06836c25.20622,4.25644 32.07688,29.52636 32.06969,36.28684c-0.07659,46.24274 0.65429,117.98648 0.65429,117.98648l-10.49667,0.09614l-0.15882,-114.84311c0,0 0.07549,-3.0993 -2.81625,-3.15415c-3.43441,-0.06514 -2.94538,3.11562 -2.94538,3.11562l0.20548,114.86995l-17.56487,0.02631c-0.16054,-0.12124 -0.32484,-0.23774 -0.49271,-0.34931c1.17046,-35.21983 -0.51779,-154.38314 1.54524,-154.03477z" fill="#bfbfbf" stroke="#bfbfbf" stroke-width="2.5" stroke-linecap="butt"/><path d="M202.23893,101.94772c0,0 6.16329,-5.92187 6.29161,-6.78761c0.33654,-2.27063 -0.16776,-40.17317 35.96775,-41.57382c44.63633,-0.91362 39.01489,35.34872 41.53088,42.1903c3.44981,9.38084 6.15664,17.40016 6.15664,17.40016c0,0 -2.76715,-2.05351 -4.0797,-3.13397c-1.2242,-1.00773 -3.80143,-3.14585 -3.80143,-3.14585c0,0 3.09111,10.3481 1.31092,20.69498c-1.5623,9.48098 -7.29782,17.22543 -7.29782,17.22543l-1.15522,-2.34735c0,0 -1.02266,2.19794 -2.16005,3.33274c-1.1374,1.13479 -3.43873,2.91273 -3.43873,2.91273l-0.09205,-3.70421c0,0 -7.0601,11.01795 -24.35066,10.87154c-16.30625,-0.25547 -26.07151,-10.6752 -26.07151,-10.6752l-0.1162,2.65484c0,0 -3.89477,-3.29276 -6.18145,-9.70754c-2.72545,-7.64567 -3.23946,-12.24324 -3.23946,-12.24324c0,0 -2.33908,1.89916 -5.71704,2.7744c-4.23278,1.09673 -6.94665,0.34526 -6.94665,0.34526c0,0 3.60795,-2.71717 5.58396,-4.76989c1.76007,-1.8284 2.64658,-3.37722 2.64658,-3.37722c0,0 -2.10758,1.0847 -4.23277,1.61795c-2.21739,0.5564 -4.03008,0.53093 -4.03008,0.53093c0,0 4.97492,-5.03728 7.03074,-10.87429c1.94102,-5.51108 2.09972,-10.95731 2.09972,-10.95731c0,0 -1.36165,0.66163 -3.33013,0.79513c-1.24776,0.08463 -2.37785,-0.0489 -2.37785,-0.0489z" fill="#000000" stroke="none" stroke-width="1.5" stroke-linecap="butt"/><path d="M219.02482,113.26934c-0.57709,-7.29323 0.335,-17.15448 0.335,-17.15448c0,0 3.41059,-0.04124 13.91429,-3.14424c8.0696,-2.38394 20.54731,-9.48722 20.54731,-9.48722c0,0 -2.16005,3.00503 -3.40781,4.46015c-1.32651,1.54696 -3.99292,4.56297 -3.99292,4.56297c0,0 7.838,-1.66761 14.67476,-4.72931c8.56837,-3.53575 10.59252,-6.05309 12.95042,-4.5927c2.7829,1.72362 1.03006,23.1827 0.71846,28.74062c-0.42163,5.66922 -2.53327,9.49969 -3.15031,12.52053c-0.61704,3.02084 -0.4096,6.13662 -2.20622,16.0397c-1.12121,6.18021 -4.16183,8.92466 -10.01942,14.66081c-5.85759,5.73616 -9.05378,9.25275 -13.01359,9.32173c-3.81077,0.06639 -8.93565,-5.1002 -13.93542,-10.38244c-5.32393,-5.62474 -8.87489,-8.47713 -9.71551,-15.13975c-0.75707,-6.00039 -0.77653,-9.90853 -1.12266,-15.24835c-0.25298,-3.90273 -2.26119,-6.44504 -2.57636,-10.42801z" fill="#ffffff" stroke="#000000" stroke-width="1.5" stroke-linecap="butt"/><g fill="#bfbfbf" stroke="#a7a7a7" stroke-width="1.5" stroke-linecap="butt"><path d="M248.59458,222.33649v-17.23077h19.05325v17.23077l-9.77515,6.13018z"/><path d="M247.43481,205.76844v-5.30177h21.37278v5.30177z"/></g><g fill="#bfbfbf" stroke="#a7a7a7" stroke-width="1.5" stroke-linecap="butt"><path d="M215.79458,221.93649v-17.23077h19.05325v17.23077l-9.77515,6.13018z"/><path d="M214.63481,205.36844v-5.30177h21.37278v5.30177z"/></g><g stroke="none" stroke-width="0" stroke-linecap="butt"><path d="M201.80204,165.11778l11.88747,-21.56995l19.46778,-4.68638l13.21166,32.15077l-17.68009,-0.20692l-26.85781,2.86144l12.73897,-14.13001z" fill="#003e3e"/><path d="M203.67187,163.11827l12.29829,-19.09196l18.98544,-5.3857l9.5769,30.77304l-17.96079,0.47975l-22.58266,3.00218l12.64333,-15.33886z" fill="#000000"/></g><path d="M267.09482,98.14898c0,0 1.52429,0.31807 4.2558,1.11029c2.49492,0.72361 4.44935,1.74403 4.44935,1.74403l0.1951,1.17035c0,0 -7.24963,-3.12997 -15.1158,-2.4706c-6.2896,0.52724 -9.96319,2.8124 -9.96319,2.8124l0.04575,-4.17683c0,0 3.12748,-1.70421 7.86366,-1.85557c4.90428,-0.15672 8.09084,0.59125 8.09084,0.59125z" data-paper-data="{&quot;index&quot;:null}" fill="#000000" stroke="none" stroke-width="1.5" stroke-linecap="butt"/><g data-paper-data="{&quot;index&quot;:null}" stroke="none" stroke-width="0" stroke-linecap="butt"><path d="M281.13732,181.00772l-35.83815,-13.85468l0.0247,-12.66303l7.55384,-13.53658l11.63487,1.77197l18.75133,19.63286l-7.6341,10.4821z" fill="#003e3e"/><path d="M279.9866,180.33902l-28.85773,-15.35758l-1.47306,-7.54532l0.90466,-16.14391l13.5601,2.6586l18.1309,18.29404l-8.8251,11.70435z" fill="#000000"/></g><g stroke="none" stroke-linecap="butt"><g><g><path d="M269.27141,148.59123c0,0 0.55926,35.31051 -7.70805,45.5176c-2.61027,3.22274 -9.32397,3.48538 -14.41083,3.24509c-4.29103,-0.20267 -9.9175,-1.58772 -12.53032,-4.26187c-9.96013,-10.19394 -9.71859,-45.18945 -9.71859,-45.18945c0,0 10.8858,-13.3882 17.03217,-13.28826c1.41363,0.02293 5.23919,2.41279 5.23919,2.41279c0,0 3.35194,-3.23363 8.15822,-1.15049c5.43709,2.73089 13.93812,12.71457 13.93812,12.71457z" fill="#000000" stroke-width="0"/><path d="M241.47152,143.01949c-2.66239,-0.14559 -9.18712,4.97615 -10.69595,4.97615c-3.87403,0 -4.34567,-0.04617 1.21614,-5.19053c5.94525,-5.49902 8.36488,-7.58997 15.73748,-3.51668c1.82294,1.00716 0.06916,4.07705 -6.25766,3.73107z" data-paper-data="{&quot;noHover&quot;:false,&quot;origItem&quot;:[&quot;Path&quot;,{&quot;applyMatrix&quot;:true,&quot;segments&quot;:[[[698.34237,394.12604],[1.90626,-1.07338],[-2.11718,1.19516]],[[697.44393,395.4963],[-1.33594,0],[0.95312,0]],[[702.35019,394.59802],[-0.28908,0.22838],[0.04688,-0.05328]],[[702.03769,393.87482],[0.21094,0.35018],[-0.57032,-0.89828]]],&quot;closed&quot;:true,&quot;fillColor&quot;:[0,0,0]}]}" fill="#ffffff" stroke-width="0.5"/><path d="M264.53684,148.66767c-2.6252,-1.07398 -5.81868,-5.43738 -12.8278,-5.90619c-3.51897,-0.23537 -5.65434,-2.42731 -4.99546,-3.45265c1.08571,-1.68956 2.62137,-2.5627 5.29975,-2.2293c6.75046,0.84027 17.55226,13.64544 12.5235,11.58815z" data-paper-data="{&quot;noHover&quot;:false,&quot;origItem&quot;:[&quot;Path&quot;,{&quot;applyMatrix&quot;:true,&quot;segments&quot;:[[[704.70179,393.42568],[0,0],[-0.39844,0.09896]],[[704.15491,394.47622],[-0.1875,-0.30452],[0.19532,0.35018]],[[708.60803,395.69422],[-0.78124,0.07614],[0,0]],[709.39709,395.6181],[[707.80335,394.42294],[0,0],[-1.47656,-1.0962]],[[704.70179,393.4257],[1.02344,-0.2969],[0,0]]],&quot;closed&quot;:true,&quot;fillColor&quot;:[0,0,0]}]}" fill="#ffffff" stroke-width="0.5"/><path d="M229.55409,176.36794c-3.03582,-15.01893 -4.57924,-29.9828 -0.84115,-26.73262c0.81556,0.68148 4.67192,18.31108 6.1898,22.24277c3.51156,9.09527 6.98813,12.06493 13.55811,12.06493c6.68324,0 9.71037,-2.79549 12.27043,-11.96933c1.44992,-5.24228 3.00653,-21.90493 6.99147,-21.90493c0.47575,0 -3.03766,33.70401 -4.14777,36.45618c-2.12961,5.58294 -4.1102,7.03264 -13.98786,7.37341c-7.45351,0.34077 -8.92855,-0.14521 -12.10022,-1.849c-4.48568,-2.41145 -6.04289,-5.19699 -8.1272,-15.68144z" data-paper-data="{&quot;noHover&quot;:false,&quot;origItem&quot;:[&quot;Path&quot;,{&quot;applyMatrix&quot;:true,&quot;segments&quot;:[[[696.79563,400.42922],[0,0],[0.71876,3.04502]],[[699.56125,404.9663],[-1.54686,-0.70036],[1.09374,0.49482]],[[703.65499,405.41544],[-2.5703,0.09896],[3.40626,-0.09896]],[[708.53781,403.39812],[-0.73438,1.62146],[0.38282,-0.79932]],[[709.75657,396.56968],[0,1.29412],[0,-0.05328]],[[709.44407,396.49356],[0.16406,0],[-0.57032,0]],[[707.60813,399.11228],[0.5,-1.52252],[-0.88282,2.66438]],[[703.30345,402.72062],[2.30468,0],[-2.26562,0]],[[698.51439,399.08182],[1.21094,2.64156],[-0.52344,-1.14188]],[[697.06127,396.61536],[0.28124,0.19792],[-1.28906,-0.94396]],[[696.79565,400.42924],[-1.04688,-4.36198],[0,0]]],&quot;closed&quot;:true,&quot;fillColor&quot;:[0,0,0]}]}" fill="#ffffff" stroke-width="0.5"/></g><path d="M265.2127,152.03516c0,0.47801 0.17211,32.57654 -1.38108,35.20308c-0.61107,1.03336 -0.78426,-18.04876 -1.64323,-17.50998c-2.07856,1.30373 -3.01951,59.28363 -5.47594,62.81021c-0.52847,0.75869 -2.41495,-63.5056 -2.93532,-62.71937c-3.58806,5.42117 -6.87586,11.17953 -8.37815,12.90138c-1.45436,1.66692 -0.87366,3.45098 -2.4286,3.45098c-1.26487,0 -1.97717,-5.72456 -2.66494,-1.39342c-1.75362,11.0433 -1.11348,24.71326 -2.33451,23.54746c-0.35317,-0.3372 -0.81405,-20.87005 -3.02537,-33.33168c-1.51435,-8.53397 -3.33917,-17.15454 -3.33917,-17.42303c0,-2.54769 6.46794,4.84366 12.52952,4.84366c6.06159,0 21.07679,-12.92696 21.07679,-10.37928z" fill="#000000" stroke-width="0"/></g><path d="M247.40885,145.23747c15.07799,0.14423 12.69464,8.20656 12.69464,8.20656c0,0 -0.35853,-5.9417 -12.60494,-6.26388c-11.43623,-0.30087 -11.84588,6.25868 -11.84588,6.25868c0,0 -2.87349,-8.34132 11.75618,-8.20137z" fill="#ffffff" stroke-width="0"/><path d="M260.00782,164.56415c0,0 -0.79746,16.45104 -12.22482,16.81967c-9.6733,0.31205 -11.63466,-16.65105 -11.63466,-16.65105c0,0 4.68927,13.93459 11.80328,13.27868c10.64784,-0.98173 12.0562,-13.4473 12.0562,-13.4473z" fill="#ffffff" stroke-width="0"/></g><path d="M246.65696,142.69644c-1.03376,0 -3.5381,-3.26042 -3.7867,-5.3637c-0.22243,-1.88186 1.31512,-3.82799 3.7867,-3.82799c2.47159,0 4.2021,0.49077 4.02999,4.18853c-0.14607,3.13818 -1.55841,5.00317 -4.02999,5.00317z" fill="#ffffff" stroke="#000000" stroke-width="1.15" stroke-linecap="butt"/><path d="M250.25907,112.60272c0,0 0.1026,3.96976 0.00576,7.12662c-0.19174,6.25113 -1.08147,27.7607 -1.08147,27.7607l-2.98167,0.00864c0,0 -0.80294,-4.17274 -1.12322,-9.49979c-0.43353,-7.21063 -0.4495,-16.29321 -0.76344,-19.63229c-0.29758,-3.16513 -0.89593,-5.71453 -0.89593,-5.71453" fill="#ffffff" stroke="#000000" stroke-width="1.3" stroke-linecap="round"/><path d="M220.72446,123.39256c0,0 -4.93211,-3.51705 -6.16417,-8.97502c-1.29636,-5.74284 -1.46118,-9.7328 0.48013,-9.99193c1.94131,-0.25915 2.70321,2.37692 3.73262,8.35569c1.0294,5.97877 1.95143,10.61127 1.95143,10.61127z" data-paper-data="{&quot;index&quot;:null}" fill="#ffffff" stroke="#000000" stroke-width="1" stroke-linecap="butt"/><path d="M220.52187,119.445c0,0 -3.56385,-2.92338 -4.31816,-8.45061c-0.42079,-3.08327 2.15675,-2.28016 2.15675,-2.28016" fill="none" stroke="#000000" stroke-width="0.25" stroke-linecap="round"/><path d="M223.53527,112.7891c0.07093,-4.89188 4.83834,-8.93609 10.21137,-8.8582c5.37302,0.0779 9.02724,4.2484 8.95632,9.14029c-0.07093,4.89188 -4.12352,8.79439 -9.49655,8.7165c-5.37302,-0.0779 -9.74207,-4.1067 -9.67114,-8.99859z" fill="#ffffff" stroke="#000000" stroke-width="1.4" stroke-linecap="butt"/><path d="M250.59154,112.78983c0.20353,-4.88817 4.45264,-8.85847 9.77048,-8.85847c5.31783,0 9.27453,3.96607 9.27453,8.85847c0,4.8924 -3.88585,9.07104 -9.69964,9.14188c-5.52997,0.06739 -9.55792,-4.03692 -9.34537,-9.14188z" fill="#ffffff" stroke="#000000" stroke-width="1.4" stroke-linecap="butt"/><path d="M226.99669,102.24526c0,0 3.36963,-1.819 8.03244,-2.28178c5.16698,-0.51283 7.76823,-0.06628 7.76823,-0.06628l0.29508,4.13747c0,0 -3.83554,-0.68065 -8.01795,-0.52113c-5.59346,0.21333 -6.64488,1.43293 -10.89774,1.89119c-3.64408,0.39266 -6.73723,0.15884 -6.73723,0.15884l-0.02589,-1.23155c0,0 3.59517,0.07398 5.23371,-0.06836c1.35239,-0.11749 3.9757,-0.93808 3.9757,-0.93808z" fill="#000000" stroke="none" stroke-width="1.5" stroke-linecap="butt"/><path d="M274.95762,112.78129c1.0294,-5.97877 1.7913,-8.61483 3.73262,-8.35569c1.94131,0.25914 1.77649,4.24909 0.48013,9.99193c-1.23206,5.45797 -6.16417,8.97502 -6.16417,8.97502c0,0 0.92203,-4.6325 1.95143,-10.61127z" data-paper-data="{&quot;index&quot;:null}" fill="#ffffff" stroke="#000000" stroke-width="1" stroke-linecap="butt"/><path d="M275.37019,108.71423c0,0 2.57754,-0.80312 2.15675,2.28016c-0.75431,5.52723 -4.31816,8.45061 -4.31816,8.45061" data-paper-data="{&quot;index&quot;:null}" fill="none" stroke="#000000" stroke-width="0.25" stroke-linecap="round"/><path d="M217.06353,129.74813c0,0 -4.04451,-12.64642 -4.46639,-17.40761c-0.53177,-6.00142 0.71515,-24.54628 0.71515,-24.54628l64.07528,-5.59609c0,0 4.11034,19.95716 4.60054,27.51646c0.33774,5.20829 -4.01481,19.7276 -4.01481,19.7276c0,0 -17.3711,3.55591 -28.2495,4.20312c-0.24782,0.01474 -0.1123,-2.07133 -0.1123,-2.07133c0,0 -0.6952,0.46666 -2.25267,0.48213c-1.55735,0.01547 -2.40147,-0.34332 -2.40147,-0.34332c0,0 0.44273,2.01981 -0.75193,1.95989c-10.77651,-0.54045 -27.1419,-3.92456 -27.1419,-3.92456z" fill="#000000" stroke="none" stroke-width="0" stroke-linecap="butt"/><g stroke="none" stroke-width="0" stroke-linecap="butt"><path d="M284.57759,84.71945c0.68956,-0.6822 3.95553,1.20679 0.885,9.19381c-3.16762,8.23954 -7.39777,9.12748 -7.39777,9.12748c0,0 -0.92858,-4.67553 -0.28337,-6.31381c0.59409,-1.50851 2.91006,-4.15348 4.01393,-5.85883c1.10387,-1.70535 2.34876,-5.71984 2.7822,-6.14866z" fill="#36494c"/><g><path d="M189.73482,115.28882l3.45469,-3.25342c0,0 2.7031,-0.11327 4.10365,-1.704c2.5222,-2.86471 8.58951,-12.20281 8.58951,-12.20281l0.90513,-10.90946c0,0 0.71714,-4.31956 20.72973,-4.24174c24.57374,0.09555 50.63253,12.32575 50.63253,12.32575c0,0 3.32724,6.65399 -2.26578,15.59376c-2.73536,4.37214 -8.77837,11.1671 -8.77837,11.1671c0,0 -10.98635,7.19337 -35.34051,5.62385c-1.56708,-0.10099 -3.10199,-0.24626 -4.60518,-0.4063c-29.25726,-3.11486 -37.42539,-11.99273 -37.42539,-11.99273z" fill="#739ea5"/><path d="M192.96774,111.95235c0,0 3.04676,-3.33693 4.89028,-5.35602c2.39896,-2.62743 8.28108,-9.06975 8.28108,-9.06975c0,0 -1.01586,7.4622 22.16924,8.28895c32.94897,1.17493 48.078,-0.76246 48.078,-0.76246c0,0 -4.40914,11.82464 -22.9019,16.715c-6.67987,1.76647 -15.92448,1.53745 -26.43841,1.05588c-0.42894,-0.01965 -0.85412,-0.04904 -1.27652,-0.06972c-26.53478,-1.29878 -32.80175,-10.80188 -32.80175,-10.80188z" fill="#90c5cd"/><path d="M232.06372,122.01753l13.11642,-15.91138l16.20046,0.02507l-13.06922,16.00578c0,0 -3.95708,1.30327 -9.02811,1.26797c-6.95745,-0.04843 -7.21955,-1.38744 -7.21955,-1.38744z" fill="#7dabb2"/><path d="M216.60508,121.94232l13.88043,-16.24177l10.32145,0.31121l-14.49989,16.24177c0,0 -0.87515,0.94741 -4.76259,0.08685c-5.34772,-1.18381 -4.9394,-0.39806 -4.9394,-0.39806z" fill="#7dabb2"/></g></g></g></g></svg>