<svg version="1.1" xmlns="http://www.w3.org/2000/svg" xmlns:xlink="http://www.w3.org/1999/xlink" width="101.78858" height="248.06107" viewBox="0,0,101.78858,248.06107"><defs><linearGradient x1="267.26704" y1="196.38312" x2="267.26704" y2="198.38312" gradientUnits="userSpaceOnUse" id="color-1"><stop offset="0" stop-color="#ffffff"/><stop offset="1" stop-color="#690000"/></linearGradient><linearGradient x1="213.18599" y1="210.23985" x2="213.18599" y2="212.23985" gradientUnits="userSpaceOnUse" id="color-2"><stop offset="0" stop-color="#4f0000"/><stop offset="1" stop-color="#690000"/></linearGradient><linearGradient x1="243.33731" y1="57.37296" x2="234.62156" y2="164.44772" gradientUnits="userSpaceOnUse" id="color-3"><stop offset="0" stop-color="#ffffff"/><stop offset="1" stop-color="#d00000"/></linearGradient><linearGradient x1="240.58951" y1="148.65057" x2="240.58951" y2="303.69106" gradientUnits="userSpaceOnUse" id="color-4"><stop offset="0" stop-color="#000000"/><stop offset="1" stop-color="#4a0000"/></linearGradient><linearGradient x1="243.18979" y1="82.54381" x2="237.61498" y2="151.03137" gradientUnits="userSpaceOnUse" id="color-5"><stop offset="0" stop-color="#ffffff"/><stop offset="1" stop-color="#cc0000"/></linearGradient><linearGradient x1="240.90228" y1="92.13966" x2="240.90228" y2="160.85374" gradientUnits="userSpaceOnUse" id="color-6"><stop offset="0" stop-color="#000000"/><stop offset="1" stop-color="#ffffff"/></linearGradient></defs><g transform="translate(-186.3601,-56.63148)"><g data-paper-data="{&quot;isPaintingLayer&quot;:true}" fill-rule="nonzero" stroke-linejoin="miter" stroke-miterlimit="10" stroke-dasharray="" stroke-dashoffset="0" style="mix-blend-mode: normal"><path d="M265.32786,197.78431l3.87833,-0.80241" fill="none" stroke="url(#color-1)" stroke-width="2" stroke-linecap="round"/><path d="M211.24682,211.64107l3.87834,-0.80241" fill="none" stroke="url(#color-2)" stroke-width="2" stroke-linecap="round"/><path d="M194.37081,106.3658c0,0 6.84607,-5.38419 7.04885,-6.23629c0.35779,-1.50356 0.206,-19.85459 12.41101,-30.8452c1.72074,-1.54952 4.59944,-4.75657 7.76236,-7.0972c3.18962,-2.36038 8.09707,-3.30067 8.09707,-3.30067l0.50748,2.99241l7.08426,-3.7774l0.61373,2.22219c0,0 2.43804,-2.2205 3.96032,-2.5887c1.88455,-0.45582 6.49396,0.06009 6.49396,0.06009c0,0 0.96784,2.91713 3.12863,3.80703c4.69631,1.93415 8.19687,0.17195 11.24192,1.57991c6.72001,3.10716 10.62708,10.14966 13.35486,14.89003c6.5775,11.43051 4.15961,25.13569 5.33728,29.18736c2.80199,9.63995 4.94708,17.86039 4.94708,17.86039l-3.95938,-3.46662c0,0 2.00296,10.11237 -0.67513,20.27548c-1.02101,3.9929 -3.81434,6.25323 -3.77865,8.93803c0.06648,5.00138 4.52175,7.01935 4.52175,7.01935c0,0 -3.63131,2.45541 -6.88751,2.60087c-2.38648,0.10661 -6.67172,-1.61647 -6.67172,-1.61647l2.63824,3.71627c0,0 -3.35112,0.04734 -5.08264,-0.0762c-1.82656,-0.13032 -5.60683,-0.68644 -5.60683,-0.68644c0,0 -1.6713,1.87654 -2.71239,2.58424c-1.04311,0.70908 -3.54023,1.6661 -3.54023,1.6661c0,0 1.56054,-2.9582 2.06078,-4.28635c0.30175,-0.80114 0.65921,-2.93529 0.65921,-2.93529c0,0 -2.09743,4.62798 -10.2703,5.8629c-2.84511,0.42989 -5.30014,-1.05809 -9.90849,-1.47113c-3.51892,-0.34006 -7.30155,-0.22844 -10.05595,-0.49419c-4.20855,-0.40606 -7.64637,-0.53528 -9.82213,-1.18578c-3.20707,-0.95883 -3.90455,-2.65329 -3.90455,-2.65329c0,0 -3.63684,0.93719 -5.38858,0.9779c-1.71017,0.03973 -6.02133,-0.96298 -6.02133,-0.96298c0,0 2.44514,-1.17817 3.5178,-1.70867c0.91038,-0.45026 2.24538,-1.78818 2.24538,-1.78818c0,0 -3.63143,-2.82884 -5.01814,-4.54443c-1.54206,-1.9078 -4.23719,-6.7079 -4.23719,-6.7079l-3.3336,-0.41929l3.11673,-5.24722l-2.88421,-0.56545c0,0 1.5299,-1.36679 2.51408,-2.39106c1.19086,-1.23935 2.43739,-3.80136 2.43739,-3.80136c0,0 -0.87739,0.97405 -4.43726,1.56241c-4.46072,0.73726 -7.20272,-0.23989 -7.20272,-0.23989c0,0 3.94684,-2.40489 6.15427,-4.28472c1.96619,-1.6744 3.00746,-3.14359 3.00746,-3.14359c0,0 -2.26478,0.90394 -4.503,1.25676c-2.33533,0.36815 -4.20545,0.19037 -4.20545,0.19037c0,0 5.54692,-4.60243 8.1438,-10.24736c0.62557,-1.35982 0.24162,-2.80805 0.24162,-2.80805l-3.12858,0.02159c0,0 2.39197,-2.75015 3.25201,-4.09193c0.64763,-1.0104 1.95484,-3.92631 1.95484,-3.92631c0,0 -0.7223,0.60502 -2.76623,0.57259c-1.29559,-0.02055 -2.45195,-0.24865 -2.45195,-0.24865z" fill="#000000" stroke="url(#color-3)" stroke-width="2" stroke-linecap="butt"/><path d="M201.03042,303.5843c0,0 -0.15565,-23.12269 -0.33203,-49.34355c-0.03839,-5.70736 3.15139,-11.5615 3.11243,-17.35592c-0.03504,-5.21096 -3.29891,-10.37362 -3.33227,-15.33779c-0.0061,-0.90707 -0.01215,-1.80752 -0.01815,-2.70042c-0.01038,-1.54467 0.89223,-3.79702 0.88218,-5.2918c-0.00874,-1.30003 -0.93017,-1.84912 -0.9386,-3.1047c-0.0714,-10.62742 -0.13128,-19.55083 -0.1669,-24.87783c-0.02066,-3.09033 1.15068,-9.11992 4.35706,-15.42513c0.95329,-1.87461 4.19466,-1.75537 5.62486,-3.60871c1.59924,-2.07239 1.43916,-6.10593 3.46841,-7.96632c6.15479,-5.6426 14.51482,-9.85986 26.75168,-9.92095c18.20854,-0.09089 28.66603,9.71205 34.25804,19.45513c1.20115,2.09279 -1.85863,3.77917 -1.07785,5.76778c0.74618,1.9005 3.52423,2.83405 3.93755,4.46321c0.25116,0.98999 -1.56276,2.82682 -1.41969,3.66549c0.21879,1.28254 2.32598,3.46097 2.32511,4.27538c-0.00374,2.25628 -3.42725,5.05394 -3.42733,7.42035c-0.00009,3.14983 5.25028,5.17628 5.25594,8.47457c0.07727,45.00937 0.65135,101.36129 0.65135,101.36129l-10.49667,0.09614l-0.15882,-114.84311c0,0 0.07549,-3.0993 -2.81625,-3.15415c-3.43441,-0.06514 -2.94538,3.11562 -2.94538,3.11562l0.20548,114.86995l-48.21366,0.07222l-0.30539,-115.23309c0,0 0.27949,-2.919 -2.8856,-2.93443c-3.11083,-0.01515 -2.81569,2.90899 -2.81569,2.90899l0.35311,115.0668z" fill="url(#color-4)" stroke="#ffffff" stroke-width="2" stroke-linecap="butt"/><path d="M212.61817,110.66367c0.01651,-7.31601 1.72564,-17.07075 1.72564,-17.07075c0,0 3.40269,0.2356 14.12351,-2.005c8.23641,-1.72139 21.24928,-7.78893 21.24928,-7.78893c0,0 -2.39673,2.81988 -3.75843,4.16897c-1.44764,1.43424 -4.34996,4.22398 -4.34996,4.22398c0,0 7.94746,-1.02621 15.01007,-3.52315c8.82698,-2.82894 11.04869,-5.17376 13.28034,-3.52689c2.63389,1.94372 -0.85416,23.18985 -1.61565,28.70417c-0.88019,5.61632 -3.29563,9.26285 -4.15572,12.22367c-0.58906,2.02783 1.06847,3.36959 -0.75302,6.53984c-0.51771,0.90107 -0.85384,2.81985 -1.22786,4.8775c-3.20073,-0.26054 -6.40146,-0.52107 -9.60218,-0.78161c-3.48846,-0.28396 -6.97692,-0.56791 -10.46539,-0.85187c-3.48846,-0.28396 -6.97693,-0.56791 -10.46539,-0.85187c-3.48846,-0.28396 -6.97692,-0.56791 -10.46538,-0.85187c-2.044,-0.16638 -4.088,-0.33276 -6.132,-0.49914c-0.27873,-5.32234 -0.75953,-7.3204 -0.67601,-12.38437c0.06448,-3.91039 -1.73085,-6.60724 -1.72184,-10.60265z" fill="#000000" stroke="url(#color-5)" stroke-width="1.5" stroke-linecap="butt"/><path d="M263.77265,149.18628c-1.12121,6.18021 -4.16183,1.47929 -10.01942,7.21544c-5.85759,5.73616 -10.40748,3.83794 -14.36729,3.90692c-3.81077,0.06639 -7.58195,2.34517 -12.58172,-2.93707c-5.32393,-5.62474 -8.87489,-4.41602 -9.71551,-11.07864c-0.01835,-0.14542 -0.03666,-0.2884 -0.05493,-0.42908c2.02874,0 4.05749,0 6.08623,0c3.5,0 7,0 10.5,0c3.5,0 7,0 10.5,0c3.5,0 7,0 10.5,0c3.19468,0 6.38938,0 9.58406,0c-0.11424,1.13105 -0.2429,2.28332 -0.43142,3.32243z" fill="#000000" stroke="url(#color-6)" stroke-width="1.5" stroke-linecap="butt"/><path d="M215.15953,110.38869c0.4838,-4.86868 6.65426,-8.424 13.23247,-7.81039c6.57819,0.61361 10.71801,5.13488 10.23421,10.00357c-0.4838,4.86868 -5.76678,8.35407 -12.34499,7.74046c-6.57819,-0.61361 -11.6055,-5.06496 -11.1217,-9.93364z" fill="#cccccc" stroke="#000000" stroke-width="1.4" stroke-linecap="butt"/><path d="M222.91417,106.612c0.24573,-2.52593 2.67128,-4.36243 5.41761,-4.10197c2.74635,0.26045 4.77348,2.51927 4.52775,5.04518c-0.24573,2.52593 -2.67127,4.36243 -5.41761,4.10198c-2.74635,-0.26045 -4.77348,-2.51927 -4.52775,-5.04518z" fill="#000000" stroke="#000000" stroke-width="2.5" stroke-linecap="butt"/><path d="M244.11976,112.74676c0.59944,-4.85554 5.15665,-8.46802 10.45696,-8.03658c5.3003,0.43144 8.92219,4.70544 8.52527,9.58171c-0.39692,4.87627 -4.60898,8.72588 -10.40935,8.32481c-5.51721,-0.38148 -9.19889,-4.79905 -8.57288,-9.86993z" fill="#de9999" stroke="#000000" stroke-width="1.4" stroke-linecap="butt"/><path d="M250.83333,113.52935c0.13203,-1.62193 1.55388,-2.82974 3.17582,-2.69772c1.62193,0.13203 2.82974,1.55388 2.69772,3.17582c-0.13203,1.62193 -1.55388,2.82974 -3.17582,2.69772c-1.62193,-0.13203 -2.82974,-1.55388 -2.69772,-3.17582z" fill="#000000" stroke="none" stroke-width="1.5" stroke-linecap="butt"/><path d="M251.22888,108.29086c-0.2138,-0.12957 -0.08422,-0.34337 -0.08422,-0.34337l0.23087,-0.35619c0.30559,-0.13379 0.52715,-0.31663 0.76756,-0.4424c-0.36269,-0.26395 -0.62286,-0.64187 -0.82703,-1.47426c0,0 -0.05956,-0.2428 0.18324,-0.30236c0.2428,-0.05956 0.30236,0.18324 0.30236,0.18324c0.37124,1.51354 0.78168,1.28538 2.18592,2.04651l0.20231,0.21834c0,0 0.16186,0.19054 -0.02868,0.35238c-0.19054,0.16186 -0.35238,-0.02868 -0.35238,-0.02868l-0.08039,-0.11445c-0.37744,-0.24465 -0.70135,-0.40072 -0.9814,-0.53896c-0.05521,0.01638 -0.10271,0.01252 -0.10271,0.01252c-0.19287,-0.05728 -0.62969,0.35965 -0.94508,0.46918l-0.12698,0.23426c0,0 -0.12957,0.2138 -0.34338,0.08422z" fill="#ff0000" stroke="none" stroke-width="0.5" stroke-linecap="butt"/><path d="M257.95793,109.10139c-0.19054,0.16186 -0.35238,-0.02868 -0.35238,-0.02868l-0.14135,-0.1664c-0.59877,-0.73061 -1.81157,-0.46464 -1.00018,-1.61009c0.81912,-1.15636 1.42751,0.67924 1.92148,0.365c0.14912,-0.09487 0.10784,-0.88324 0.11865,-1.01612c0,0 0.02028,-0.24918 0.26945,-0.2289c0.24918,0.02028 0.2289,0.26946 0.2289,0.26946c-0.1931,2.37229 -0.87511,0.71443 -2.06915,0.68288c-0.14402,-0.00381 -0.25089,0.31795 -0.31798,0.48098c0.26576,0.03879 1.15937,0.65232 1.22989,0.73308l0.14135,0.16639c0,0 0.16186,0.19054 -0.02869,0.35239z" fill="#ff0000" stroke="none" stroke-width="0.5" stroke-linecap="butt"/><path d="M259.52566,112.40034c-0.24918,-0.02028 -0.2289,-0.26946 -0.2289,-0.26946l0.18094,-0.5194c0.69459,-0.27939 -0.32206,-3.3681 1.94948,-2.1647c0,0 0.2138,0.12957 0.08422,0.34338c-0.12957,0.2138 -0.34338,0.08422 -0.34338,0.08422c-1.38021,-1.0656 -0.72367,1.88722 -1.50375,2.20099l0.13084,0.09609c0,0 -0.02028,0.24918 -0.26945,0.22889z" fill="#ff0000" stroke="none" stroke-width="0.5" stroke-linecap="butt"/><path d="M258.90848,116.90094c0.02028,-0.24918 0.26946,-0.22889 0.26946,-0.22889l0.15387,0.01253c1.05079,0.08553 1.08985,-0.79856 1.13607,-1.70983c-0.02841,-0.03289 -0.05574,-0.06608 -0.08189,-0.09957c-0.54257,-0.69488 1.13401,-2.4875 -0.97578,-1.58137l-0.09784,0.09994c0,0 -0.19054,0.16186 -0.35239,-0.02868c-0.16186,-0.19054 0.02869,-0.35239 0.02869,-0.35239l0.23496,-0.18275c0.29436,-0.11276 1.83437,-0.12169 2.00852,0.25597c0.18172,0.39407 -0.55874,0.83489 -0.5402,1.23884c0.02138,-0.00323 0.04506,-0.00407 0.07126,-0.00193c0.24918,0.02028 0.22889,0.26946 0.22889,0.26946c-0.00598,0.0734 -0.01153,0.14721 -0.01698,0.22113c0.45272,0.47564 1.32036,0.99581 1.64412,1.25154c0,0 0.19607,0.1551 0.04098,0.35117c-0.1551,0.19607 -0.35117,0.04099 -0.35117,0.04099c-0.41322,-0.32734 -0.94085,-0.66555 -1.38326,-1.03874c-0.10212,1.00535 -0.35659,1.8686 -1.63455,1.76457l-0.15387,-0.01253c0,0 -0.24918,-0.02028 -0.22889,-0.26946z" fill="#ff0000" stroke="none" stroke-width="0.5" stroke-linecap="butt"/><path d="M258.29585,117.9943c0.24918,0.02028 0.22889,0.26945 0.22889,0.26945l-0.06042,0.41704c-0.47727,0.77281 -1.18097,1.51357 -1.25466,2.41887c0,0 -0.02028,0.24918 -0.26946,0.22889c-0.24918,-0.02028 -0.22889,-0.26946 -0.22889,-0.26946c0.12514,-1.53735 0.69051,-1.56443 1.32542,-2.63746l-0.01032,-0.19845c0,0 0.02028,-0.24918 0.26946,-0.2289z" fill="#ff0000" stroke="none" stroke-width="0.5" stroke-linecap="butt"/><path d="M247.05815,119.56834c-0.2138,-0.12957 -0.08422,-0.34338 -0.08422,-0.34338l0.20244,-0.32779c0.68013,-0.54616 1.38852,-0.7589 2.33025,-0.68225c0.8242,0.48099 0.6812,1.09233 1.34477,1.69902c0.41226,0.37692 1.24822,0.08839 1.7488,0.25661c0.81604,0.27422 1.07947,1.13079 1.78634,1.55922c0,0 0.2138,0.12957 0.08422,0.34337c-0.12957,0.2138 -0.34338,0.08422 -0.34338,0.08422c-0.66488,-0.40296 -0.97399,-1.2696 -1.68116,-1.51111c-0.63135,-0.21561 -1.35813,0.13501 -1.91912,-0.35174c-0.60921,-0.5286 -0.56316,-1.21371 -1.17445,-1.60389c-0.65185,-0.05306 -1.35998,0.11948 -1.7957,0.53084l-0.15541,0.26265c0,0 -0.12957,0.2138 -0.34338,0.08422z" fill="#ff0000" stroke="none" stroke-width="0.5" stroke-linecap="butt"/><path d="M248.83292,117.12235c-0.12957,0.2138 -0.34338,0.08422 -0.34338,0.08422l-0.30081,-0.18242c-0.1529,-0.11141 -0.35043,-0.1519 -0.54261,-0.16998c-0.00248,0.01935 -0.0054,0.03891 -0.00881,0.05868c-0.15266,0.88694 -1.24593,0.61409 -1.84577,0.56526c0,0 -0.24918,-0.02028 -0.22889,-0.26946c0.02028,-0.24918 0.26946,-0.22889 0.26946,-0.22889c0.12428,0.01012 1.34873,0.2329 1.30685,-0.10748c-0.13593,-1.10481 -0.6756,-1.81208 0.63898,-2.34084l0.32027,-0.12882c0,0 0.23194,-0.09329 0.32523,0.13864c0.09329,0.23194 -0.13864,0.32523 -0.13864,0.32523l-0.32026,0.12882c-0.92425,0.37176 -0.48962,0.73549 -0.34688,1.35587c0.29219,0.03022 0.59589,0.09308 0.84142,0.25235l0.28963,0.17543c0,0 0.2138,0.12957 0.08422,0.34338z" fill="#ff0000" stroke="none" stroke-width="0.5" stroke-linecap="butt"/><path d="M248.98681,108.9458c0.16186,0.19054 -0.02868,0.35238 -0.02868,0.35238l-0.23496,0.18275c-0.46937,0.1798 -1.36746,0.0589 -1.76417,0.34077c-0.31012,0.22034 -0.0011,0.67837 0.14277,1.10324c0.22718,-0.09577 0.52913,-0.14137 0.93647,-0.11622l-0.01573,-0.08271c0,0 0.19054,-0.16186 0.35238,0.02868c0.16186,0.19054 -0.02868,0.35238 -0.02868,0.35238l-0.34853,0.2c-1.87508,-0.20729 -0.80148,1.63918 -1.38873,2.55607c-0.36774,0.57417 -1.57958,0.30017 -2.09311,0.25836c0,0 -0.24918,-0.02028 -0.22889,-0.26946c0.02028,-0.24918 0.26946,-0.22889 0.26946,-0.22889c2.12544,0.17301 1.48784,-1.51496 2.10991,-2.35881c0.00012,-0.0043 0.00031,-0.00667 0.00031,-0.00667c0.01332,-0.16369 -0.17301,-1.62895 -0.15902,-1.65101c0.33091,-0.52188 1.54604,-0.3822 2.02898,-0.58962l0.09784,-0.09994c0,0 0.19054,-0.16186 0.35238,0.02868z" fill="#ff0000" stroke="none" stroke-width="0.5" stroke-linecap="butt"/><path d="M248.4543,106.2223c0.23194,-0.09329 0.32523,0.13864 0.32523,0.13864l0.11089,0.28433c0.06491,0.07516 0.12982,0.15034 0.19474,0.2255c0.21633,-0.03191 0.27064,0.18951 0.27064,0.18951c0.09673,0.49738 0.32452,0.47144 0.52949,0.93961l0.00471,0.26745c0,0 -0.02028,0.24918 -0.26946,0.22889c-0.24918,-0.02028 -0.22889,-0.26946 -0.22889,-0.26946l0.02976,-0.0403c-0.14757,-0.4249 -0.33486,-0.41957 -0.49174,-0.82592c-0.09609,-0.01488 -0.16108,-0.09138 -0.16108,-0.09138c-0.10205,-0.1218 -0.20411,-0.2436 -0.30616,-0.3654l-0.14676,-0.35622c0,0 -0.09329,-0.23195 0.13864,-0.32524z" fill="#ff0000" stroke="none" stroke-width="0.5" stroke-linecap="butt"/><path d="M277.61596,194.46733c0,0 -19.65277,16.44861 -31.69064,23.21991c-13.60347,7.65195 -45.07881,20.00854 -45.07881,20.00854" fill="none" stroke="#ffffff" stroke-width="2" stroke-linecap="round"/><path d="M277.13531,173.91994c0,0 -27.94455,2.35657 -40.39151,1.06895c-10.69884,-1.10677 -29.84262,-8.33454 -29.84262,-8.33454" fill="none" stroke="#ffffff" stroke-width="2" stroke-linecap="round"/><path d="M279.14716,181.94085c0,0 -22.20871,8.05051 -34.24658,14.82181c-13.60347,7.65195 -45.80908,17.63517 -45.80908,17.63517" fill="none" stroke="#ffffff" stroke-width="2" stroke-linecap="round"/></g></g></svg>