<svg version="1.1" xmlns="http://www.w3.org/2000/svg" xmlns:xlink="http://www.w3.org/1999/xlink" width="36.17311" height="36.17311" viewBox="0,0,36.17311,36.17311"><g transform="translate(-221.91344,-161.91344)"><g data-paper-data="{&quot;isPaintingLayer&quot;:true}" stroke-miterlimit="10" stroke-dasharray="" stroke-dashoffset="0" style="mix-blend-mode: normal"><path d="M229.9831,162.91345h20.03379c3.9166,0 7.06966,3.15307 7.06966,7.06966v20.03379c0,3.91659 -3.15306,7.06966 -7.06966,7.06966h-20.03379c-3.91659,0 -7.06966,-3.15307 -7.06966,-7.06966v-20.03379c0,-3.91659 3.15307,-7.06966 7.06966,-7.06966z" fill="#000000" fill-rule="evenodd" stroke="#ffffff" stroke-width="2" stroke-linecap="round" stroke-linejoin="round"/><g fill-rule="nonzero" stroke-width="0.5" stroke-linecap="butt" stroke-linejoin="miter"><g fill="#000000" stroke="#ffffff"><path d="M229.97946,177.07745c0,0 5.19866,-0.85694 6.53815,-1.15432c0.69395,-0.15405 14.28491,-9.34655 14.28491,-9.34655l-1.71162,1.79921c0,0 -9.62284,8.01468 -12.71793,9.65882c-0.97164,0.51615 -3.6916,0.06351 -3.6916,0.06351z"/><path d="M229.60181,181.36117c0,0 5.36356,-0.88413 6.74554,-1.19092c0.71596,-0.15894 14.73803,-9.64303 14.73803,-9.64303l-1.76592,1.85628c0,0 -9.92808,8.26891 -13.12135,9.9652c-1.00247,0.53251 -3.80871,0.06554 -3.80871,0.06554z"/><path d="M228.11464,185.31435c0,0 5.19866,-0.85694 6.53815,-1.15431c0.69395,-0.15405 14.28491,-9.34655 14.28491,-9.34655l-1.71163,1.79921c0,0 -5.21663,7.57726 -7.33427,9.27692c-0.64891,0.52081 2.25844,-5.15873 1.54666,-4.59941c-2.63889,2.07363 -5.49071,4.21658 -6.93032,4.98131c-0.19941,0.10593 -0.81368,-0.34779 -1.93617,0.80496c-1.33058,1.36645 -3.20936,4.36317 -3.60859,4.34689c-0.90508,-0.03691 1.85315,-5.08832 1.85315,-5.08832z"/></g><g fill="#ffffff" stroke="#000000"><path d="M229.97946,177.27744c0,0 5.19866,-0.85694 6.53815,-1.15432c0.69395,-0.15405 14.28491,-9.34655 14.28491,-9.34655l-1.71162,1.79921c0,0 -9.62284,8.01468 -12.71793,9.65882c-0.97164,0.51615 -3.6916,0.06351 -3.6916,0.06351z"/><path d="M229.6018,181.56116c0,0 5.36356,-0.88413 6.74554,-1.19092c0.71596,-0.15894 14.73803,-9.64303 14.73803,-9.64303l-1.76592,1.85628c0,0 -9.92808,8.26891 -13.12135,9.9652c-1.00247,0.53251 -3.80871,0.06554 -3.80871,0.06554z"/><path d="M228.11463,185.51434c0,0 5.19866,-0.85694 6.53815,-1.15431c0.69395,-0.15405 14.28491,-9.34655 14.28491,-9.34655l-1.71163,1.79921c0,0 -5.21663,7.57726 -7.33427,9.27692c-0.64891,0.52081 2.25844,-5.15873 1.54666,-4.59941c-2.63889,2.07363 -5.49071,4.21658 -6.93032,4.98131c-0.19941,0.10593 -0.81368,-0.34779 -1.93617,0.80496c-1.33058,1.36645 -3.20936,4.36317 -3.60859,4.34689c-0.90508,-0.03691 1.85315,-5.08832 1.85315,-5.08832z"/></g></g></g></g></svg>