<svg version="1.1" xmlns="http://www.w3.org/2000/svg" xmlns:xlink="http://www.w3.org/1999/xlink" width="284.93849" height="387.95722" viewBox="0,0,284.93849,387.95722"><defs><linearGradient x1="422.75833" y1="214.22243" x2="422.75833" y2="271.5229" gradientUnits="userSpaceOnUse" id="color-1"><stop offset="0" stop-color="#1a1a1a"/><stop offset="1" stop-color="#3c3c3c"/></linearGradient><radialGradient cx="408.96235" cy="218.43911" r="9.58478" gradientUnits="userSpaceOnUse" id="color-2"><stop offset="0" stop-color="#ffffff"/><stop offset="1" stop-color="#ff9090"/></radialGradient><radialGradient cx="435.73072" cy="221.89809" r="9.52652" gradientUnits="userSpaceOnUse" id="color-3"><stop offset="0" stop-color="#ffffff"/><stop offset="1" stop-color="#ff9090"/></radialGradient><linearGradient x1="207.29323" y1="122.93351" x2="207.29323" y2="135.44708" gradientUnits="userSpaceOnUse" id="color-4"><stop offset="0" stop-color="#000000"/><stop offset="1" stop-color="#000000" stop-opacity="0"/></linearGradient><linearGradient x1="278.65976" y1="122.36182" x2="278.65976" y2="134.87543" gradientUnits="userSpaceOnUse" id="color-5"><stop offset="0" stop-color="#000000"/><stop offset="1" stop-color="#000000" stop-opacity="0"/></linearGradient><linearGradient x1="242.39887" y1="120.12756" x2="242.39887" y2="132.64118" gradientUnits="userSpaceOnUse" id="color-6"><stop offset="0" stop-color="#000000"/><stop offset="1" stop-color="#000000" stop-opacity="0"/></linearGradient><linearGradient x1="246.55989" y1="-14.65484" x2="244.97977" y2="2.05964" gradientUnits="userSpaceOnUse" id="color-7"><stop offset="0" stop-color="#000000"/><stop offset="1" stop-color="#000000" stop-opacity="0"/></linearGradient><radialGradient cx="261.66445" cy="-11.56611" r="12.20725" gradientUnits="userSpaceOnUse" id="color-8"><stop offset="0" stop-color="#ffffff"/><stop offset="1" stop-color="#ffffff" stop-opacity="0"/></radialGradient></defs><g transform="translate(-187.62084,85.05342)"><g data-paper-data="{&quot;isPaintingLayer&quot;:true}" fill-rule="nonzero" stroke-linejoin="miter" stroke-miterlimit="10" stroke-dasharray="" stroke-dashoffset="0" style="mix-blend-mode: normal"><g fill="#884545" stroke="none" stroke-linecap="butt"><path d="M330.21866,146.72516c0,-3.00995 2.44005,-5.45 5.45,-5.45c3.00995,0 5.45,2.44005 5.45,5.45c0,3.00995 -2.44005,5.45 -5.45,5.45c-3.00995,0 -5.45,-2.44005 -5.45,-5.45z" stroke-width="NaN"/><path d="M332.21866,151.72516c0,-3.00995 2.44005,-5.45 5.45,-5.45c3.00995,0 5.45,2.44005 5.45,5.45c0,3.00995 -2.44005,5.45 -5.45,5.45c-3.00995,0 -5.45,-2.44005 -5.45,-5.45z" stroke-width="NaN"/><path d="M330.93295,157.01083c0,-3.00995 2.44005,-5.45 5.45,-5.45c3.00995,0 5.45,2.44005 5.45,5.45c0,3.00995 -2.54005,10.75 -5.55,10.75c-3.00995,0 -5.35,-7.74005 -5.35,-10.75z" stroke-width="NaN"/></g><path d="M202.29447,57.49634c-0.05451,-8.15261 8.18688,-36.76129 40.20201,-36.9211c31.60235,-0.15775 39.85672,29.48704 39.84884,36.89673c-0.05736,34.62977 -10.0012,3.23952 -10.0012,3.23952c0,0 0.07549,-3.0993 -2.81625,-3.15415c-3.43441,-0.06514 -2.94538,3.11562 -2.94538,3.11562l0.20548,233.48857l-13.8813,0.01861c0,0 0.21589,-117.83923 -1.38705,-120.78745c-1.39677,-2.56902 -15.74072,-3.02726 -17.44438,0.38226c-1.38152,2.76483 -1.66921,120.43134 -1.66921,120.43134l-13.83171,0.02746l-0.30539,-233.85171c0,0 0.27949,-2.919 -2.8856,-2.93443c-3.11083,-0.01515 -2.81569,2.90899 -2.81569,2.90899l0.30585,202.41004l-9.87984,0.19394c0,0 -0.57906,-187.49907 -0.69918,-205.46423z" fill="#ffffff" stroke="#000000" stroke-width="2" stroke-linecap="butt"/><path d="M251.70056,190.18132c0,0 -5.7036,0.55803 -9.35738,0.68936c-3.65377,0.13133 -8.08701,-0.06232 -8.08701,-0.06232l1.37933,0.92403c0,0 -0.21669,13.39057 -0.68062,21.94242c-0.46393,8.55183 -1.22172,21.02415 -1.22172,21.02415c0,0 -5.35889,1.59658 -7.93692,1.68824c-2.44955,0.0871 -7.16553,-1.15122 -7.16553,-1.15122c0,0 -0.42435,-8.9643 -0.63825,-20.54023c-0.13599,-7.35937 0.01439,-15.7743 -0.06214,-23.61243c-0.09072,-9.29111 -0.399,-17.77175 -0.44692,-22.72307c-0.08258,-8.53185 0.30881,-19.75313 0.30881,-19.75313c0,0 4.82167,-1.60752 9.99322,-1.26618c4.89872,0.32333 10.67217,1.57171 14.58206,1.55703c3.86945,-0.01453 9.61427,-1.2906 14.58028,-1.6423c5.4901,-0.38882 10.65332,0.759 10.65332,0.759c0,0 0.40433,11.73522 0.33242,20.55586c-0.03362,4.12464 -0.28132,11.83877 -0.29976,19.18391c-0.01948,7.75913 0.18789,15.24909 0.05527,23.16466c-0.22677,13.53594 -0.8023,24.71884 -0.8023,24.71884c0,0 -4.10221,1.13046 -6.38287,0.97725c-2.63419,-0.17696 -8.51504,-1.97805 -8.51504,-1.97805c0,0 -0.44941,-13.52092 -0.95691,-22.34953c-0.5075,-8.82863 -0.8211,-21.00743 -0.8211,-21.00743z" fill="#ab0000" stroke="#bd0000" stroke-width="2" stroke-linecap="butt"/><g><g><path d="M405.29192,302.22963l6.75088,-53.37306l12.98719,1.64268l-5.77034,45.62083l-1.83926,5.06465l-2.19687,-6.15877l0.88551,7.7295l-2.35815,-5.20344l0.24217,5.34856l-2.78186,-6.13358l-1.25748,6.13681l-1.1193,-5.67298z" fill="#a2a2a2" stroke="none" stroke-width="0" stroke-linecap="butt"/><path d="M409.23979,263.68235l14.91497,1.88652" fill="none" stroke="#7a7a7a" stroke-width="4" stroke-linecap="round"/><path d="M425.43669,257.2213l-14.91497,-1.88652" fill="none" stroke="#7a7a7a" stroke-width="4" stroke-linecap="round"/><path d="M406.73432,279.57331l14.91498,1.88652" fill="none" stroke="#7a7a7a" stroke-width="4" stroke-linecap="round"/><path d="M408.01624,271.22576l14.91497,1.88652" fill="none" stroke="#7a7a7a" stroke-width="4" stroke-linecap="round"/><path d="M420.48916,289.97443l-14.91497,-1.88652" fill="none" stroke="#7a7a7a" stroke-width="4" stroke-linecap="round"/></g><g stroke="none" stroke-width="0.5" stroke-linecap="butt"><path d="M388.4857,270.04965c-0.11813,-0.17117 0.1012,-0.24758 0.1012,-0.24758l0.08517,-0.02967c0.74455,-0.25916 1.90729,-0.39317 2.46925,-0.85675c0.84871,-0.70011 -0.07956,-2.43463 0.04034,-3.28782c0.32998,-0.86392 2.27028,-0.78025 3.34017,-1.09166c1.60468,-0.46708 3.59955,-1.60407 4.96961,-2.38167c0.57002,-1.38917 -0.08501,-2.3033 0.09796,-3.66861c0.1637,-1.22145 0.94343,-2.18274 1.09784,-3.4265c0.27531,-2.2175 -0.5803,-4.17396 1.1391,-6.14694c0,0 0.13183,-0.15127 0.34321,-0.04056c0.21139,0.11071 0.07956,0.26198 0.07956,0.26198c-1.66254,1.90774 -0.79897,3.83862 -1.06575,5.98763c-0.16258,1.30955 -1.48883,2.72052 -1.18524,4.04835c0.29853,1.30569 0.50628,1.93719 -0.09133,3.21432c-1.45971,0.89601 -3.83521,2.17866 -5.6512,2.61818c-0.69817,0.16898 -2.44723,0.17865 -2.58308,0.71704c-0.14605,1.01472 0.83358,2.59288 -0.14633,3.45519c-0.58732,0.51683 -1.8166,0.66079 -2.61786,0.94018l-0.08517,0.02967c0,0 -0.21934,0.07641 -0.33747,-0.09476z" fill="#0015ff"/><path d="M398.85301,278.16092c-0.24802,-0.03137 -0.22464,-0.21618 -0.22464,-0.21618l0.04645,-0.36727c0.10099,-0.79693 0.31297,-1.67276 0.80556,-2.36725c0.60861,-0.84601 1.75425,-1.46049 2.32624,-2.27606c0.89513,-1.27631 0.19272,-3.09225 -0.21333,-4.43766c-0.7552,-2.56851 1.81631,-4.93568 0.26692,-7.35407c-1.04104,-2.0519 -0.75175,-5.29894 3.2613,-4.82752c0,0 0.24802,0.03137 0.22465,0.21618c-0.02337,0.18481 -0.2714,0.15344 -0.2714,0.15344c-3.63852,-0.50405 -3.63074,2.60873 -2.75917,4.33156c1.60817,2.50603 -1.00422,4.81328 -0.23645,7.42462c0.43452,1.43974 1.12565,3.32736 0.17197,4.68715c-0.57724,0.82306 -1.71985,1.42695 -2.32817,2.2788c-0.46984,0.64747 -0.65743,1.4867 -0.75207,2.23357l-0.04645,0.36724c0,0 -0.02337,0.1848 -0.2714,0.15343z" fill="#ff0000"/><path d="M409.16788,283.03819c-0.06153,0.17772 -0.30293,0.11808 -0.30293,0.11808l-0.48874,-0.12392c-1.99314,-1.14747 -2.66782,-1.67744 -2.43218,-3.54044c0.27058,-2.13921 1.62522,-5.04859 3.38867,-6.71002c0.7911,-2.52064 -0.24763,-4.88659 0.06347,-7.38612c0.25451,-2.01222 0.5507,-4.82782 3.17559,-5.74385c0,0 0.21933,-0.07641 0.33747,0.09476c0.11813,0.17117 -0.10121,0.24759 -0.10121,0.24759c-2.45693,0.85453 -2.67794,3.5837 -2.9158,5.46425c-0.32686,2.54008 0.76878,4.94804 -0.1079,7.50649c-1.7133,1.68617 -3.07394,4.45258 -3.34424,6.58965c-0.21771,1.72121 0.32099,2.06577 2.14454,3.14972l0.40339,0.09646c0,0 0.24141,0.05963 0.17987,0.23735z" fill="#ff0000"/><path d="M417.31649,283.85418c-0.24661,-0.04023 -0.21132,-0.22332 -0.21132,-0.22332l0.06182,-0.3103c0.53062,-0.92587 0.95995,-1.72799 1.71176,-2.58606c1.05315,-1.08126 2.07933,-2.15015 3.30307,-3.12414c0.15449,-0.12296 1.66208,-1.04128 1.66219,-1.05289c0.00545,-0.57882 -1.2093,-0.81101 -1.64933,-1.31133c-1.50309,-1.71415 -0.83309,-2.83482 -0.59476,-4.71911c0.09311,-0.73609 0.59903,-1.97816 -0.10054,-2.62123c-1.29587,-1.25307 -5.49821,-4.75546 -3.2242,-6.1409c0,0 0.19191,-0.1085 0.35076,0.04437c0.15885,0.15286 -0.03305,0.26136 -0.03305,0.26136c-1.98688,1.00022 2.3349,4.695 3.29105,5.61889c2.0284,2.03555 -1.28568,5.07889 0.72048,7.36675c0.23695,0.2711 1.74005,1.28274 1.73741,1.51359c-0.00228,0.19832 -1.24068,0.88838 -1.45368,1.05243c-1.34381,1.03498 -2.45668,2.1748 -3.59348,3.34124c-0.72506,0.82806 -1.13769,1.59024 -1.64725,2.48287l-0.04904,0.26491c0,0 -0.03529,0.18309 -0.2819,0.14286z" fill="#ff0000"/><path d="M435.40083,284.89788c-0.24875,-0.024 -0.23527,-0.20991 -0.23527,-0.20991l0.01622,-0.08728c-0.10955,-0.3659 -0.29289,-0.65299 -0.50449,-0.99702c-1.67516,-2.16976 -2.16436,-5.1027 -4.04235,-7.0897c-0.45665,-0.6599 -1.23334,-1.3698 -1.3408,-2.11283c-0.15277,-1.05629 0.58009,-1.58374 1.14306,-2.32431c0.4009,-0.52738 0.30618,-2.1214 0.23095,-2.75015c-3.17049,-2.41998 -1.67157,-4.45251 -1.32569,-7.25022c0.21326,-2.2211 -1.08322,-4.54151 -0.81637,-6.7179c0,0 0.02337,-0.1848 0.2714,-0.15343c0.24803,0.03137 0.22465,0.21618 0.22465,0.21618c-0.28304,2.16374 1.02978,4.49795 0.81691,6.71337c-0.35492,2.87239 -1.73621,4.5421 1.27652,7.05244c0.14004,0.73439 0.2319,2.44678 -0.2391,3.09069c-0.50824,0.69482 -1.23138,1.11228 -1.08704,2.1103c0.09747,0.6739 0.85394,1.34979 1.26664,1.94953c1.86461,2.04006 2.36747,4.91387 4.05967,7.11288c0.23141,0.37513 0.42869,0.69368 0.55144,1.09282l-0.00408,0.19263c0,0 -0.01349,0.18591 -0.26225,0.16192z" fill="#0015ff"/><path d="M444.60401,278.21047c-0.02337,0.18481 -0.2714,0.15344 -0.2714,0.15344l-0.49331,-0.0624c-0.57277,-0.07497 -1.12466,-0.23607 -1.67532,-0.39065c-3.86589,-1.11208 -3.76713,-4.30705 -3.33765,-6.7088c-1.77377,-1.7727 -3.49826,-4.88708 -4.07197,-7.0286c-0.60921,-2.28755 -1.51504,-4.35195 -1.22536,-6.64212c0,0 0.02337,-0.1848 0.2714,-0.15344c0.24803,0.03137 0.22465,0.21618 0.22465,0.21618c-0.28451,2.24942 0.61857,4.28292 1.21761,6.53228c0.60409,2.28297 2.39933,5.02278 4.06482,7.00543c-0.20134,2.23437 -0.80458,5.39213 2.99963,6.42894c0.51812,0.14553 1.04057,0.30267 1.57982,0.37128l0.49243,0.06228c0,0 0.24802,0.03137 0.22465,0.21618z" fill="#0015ff"/><path d="M426.87844,289.53139c-0.22731,-0.08918 -0.12536,-0.25406 -0.12536,-0.25406l0.00594,-0.00961c1.33722,-2.11967 0.14846,-5.27611 0.43838,-7.56826c0.29715,-2.3493 -1.06414,-5.40092 -0.04344,-7.52608c1.21006,-2.96254 0.92849,-3.96494 -1.44855,-6.6984c-1.93712,-2.23076 -1.71212,-3.99289 -1.40362,-6.43192c0,0 0.02337,-0.1848 0.2714,-0.15343c0.24803,0.03137 0.22465,0.21618 0.22465,0.21618c-0.29797,2.35577 -0.55304,4.02846 1.31858,6.18075c2.45469,2.827 2.76488,3.96463 1.51126,7.02913c-1.00433,2.07173 0.35702,5.14398 0.06579,7.44652c-0.29967,2.3692 0.86177,5.47644 -0.47982,7.68387l-0.00594,0.00961c0,0 -0.10195,0.16489 -0.32925,0.0757z" fill="#0015ff"/><path d="M419.44185,289.66562c-0.19244,0.10798 -0.35064,-0.04525 -0.35064,-0.04525l-0.14853,-0.14386c-1.33833,-1.29624 -3.48987,-3.20965 -3.63806,-4.80264c0.30541,-2.4582 0.9531,-4.90273 1.27329,-7.43422c0.12916,-1.02113 0.4377,-2.12243 0.24151,-3.16595c-0.25394,-1.35068 -1.76457,-2.69857 -2.33076,-4.02658c0.23803,-2.10823 0.1227,-4.61271 1.66357,-6.38753c0,0 0.13183,-0.15127 0.34321,-0.04056c0.21139,0.11071 0.07955,0.26198 0.07955,0.26198c-1.49961,1.71363 -1.30112,4.12407 -1.59146,6.15031c0.6018,1.31439 2.06928,2.65709 2.32789,4.01082c0.20564,1.0765 -0.10421,2.20673 -0.23747,3.26026c-0.3188,2.52049 -0.95577,4.95735 -1.27112,7.40342c0.14475,1.48335 2.27428,3.34364 3.52472,4.55473l0.14854,0.14386c0,0 0.1582,0.15323 -0.03424,0.26121z" fill="#ff0000"/><path d="M406.30254,270.08466c-0.02337,0.18481 -0.2714,0.15344 -0.2714,0.15344l-0.48652,-0.06154c-0.34549,-0.0437 -0.69085,-0.08848 -1.0361,-0.13408c-1.3482,-0.55574 -1.07385,-0.91809 -1.613,-1.78256c-0.28709,-0.46032 -1.17172,-0.81413 -1.58462,-1.26355c-1.07313,-1.16807 -0.98824,-2.44699 -0.82476,-3.73943c0.37344,-2.95245 -1.46665,-4.37634 -2.75322,-7.14241c-1.10097,-2.37606 -0.63799,-4.64556 2.49129,-5.73573c0,0 0.21934,-0.07641 0.33746,0.09476c0.11813,0.17117 -0.1012,0.24759 -0.1012,0.24759c-2.91598,1.01586 -3.27717,3.09499 -2.2583,5.29387c1.30082,2.81896 3.1626,4.27997 2.78001,7.30467c-0.12044,0.95222 -0.26076,1.91417 0.21534,2.86801c0.41965,0.84076 1.68689,1.19882 2.14453,1.93128c0.49748,0.79622 0.09119,1.04559 1.30121,1.57108c0.31616,0.03787 0.63218,0.07693 0.94809,0.11689l0.48652,0.06154c0,0 0.24802,0.03137 0.22464,0.21618z" fill="#ff0000"/><path d="M402.45284,277.17762c-0.13668,-0.16391 0.07159,-0.25486 0.07159,-0.25486l0.05029,-0.02196c0.56932,-0.24862 1.13996,-0.47566 1.736,-0.68964c0.63403,-0.1109 1.17046,-0.53444 1.78982,-0.60872c1.51821,-0.18208 3.26925,0.74293 4.81582,0.72086c0.97258,-0.01387 2.0926,-0.72193 2.97087,-0.99626c0.43753,-0.05872 1.40916,-0.10198 1.67509,-0.41679c0.43874,-0.51938 0.23784,-2.10832 0.32563,-2.76124c0.15597,-1.16003 0.87014,-2.13485 1.64839,-3.08699c1.93163,-2.3631 3.25828,-4.04514 3.62151,-6.91688c0.29125,-2.3027 1.51651,-4.11753 2.62923,-6.1938c0,0 0.09062,-0.16908 0.32268,-0.08814c0.23206,0.08093 0.14144,0.25001 0.14144,0.25001c-1.09557,2.04426 -2.31061,3.82812 -2.5973,6.09468c-0.36986,2.92414 -1.72296,4.66355 -3.6878,7.06728c-0.74061,0.906 -1.43733,1.83276 -1.58232,2.93831c-0.09535,0.72707 0.10454,2.32256 -0.39523,2.91417c-0.34741,0.41125 -1.34898,0.48465 -1.92961,0.55994c-0.95435,0.30257 -2.03815,0.98078 -3.10401,1.01063c-1.5149,0.04242 -3.26993,-0.90214 -4.74075,-0.72541c-0.57473,0.06906 -1.1073,0.48685 -1.70783,0.59312c-0.56807,0.20696 -1.11391,0.42498 -1.65826,0.66269l-0.05029,0.02196c0,0 -0.20827,0.09095 -0.34496,-0.07296z" fill="#0015ff"/><path d="M411.88971,271.76617c-0.15703,0.13637 -0.35043,0.00775 -0.35043,0.00775l-0.0751,-0.04994c-1.46634,-0.97697 -2.17599,-2.20898 -2.40911,-3.61912c0.1001,-0.81689 0.40154,-1.73658 0.32929,-2.56228c-0.0331,-0.37825 -1.10011,-1.26961 -1.36325,-1.71558c-0.56453,-0.95676 -0.61639,-2.03832 -0.71092,-3.04706c0.28003,-2.2542 -1.27506,-4.4426 -1.00035,-6.61448c0,0 0.02337,-0.1848 0.2714,-0.15343c0.24803,0.03137 0.22464,0.21618 0.22464,0.21618c-0.27248,2.1543 1.29194,4.33904 1.00252,6.58359c0.08152,0.82932 0.10892,1.74155 0.46697,2.55141c0.31178,0.70521 1.49399,1.51926 1.60251,2.15552c0.13817,0.81009 -0.2197,1.80612 -0.32463,2.60766c0.22517,1.29793 0.87332,2.42754 2.225,3.32486l0.0751,0.04994c0,0 0.1934,0.12861 0.03637,0.26499z" fill="#0015ff"/><path d="M420.96849,275.76052c-0.09776,-0.17739 0.13138,-0.23798 0.13138,-0.23798l0.34453,-0.0889c0.69887,-0.40473 1.35153,-0.5598 2.18435,-0.7905c0.76485,-0.14285 1.57961,0.17093 2.13139,0.08479c1.14822,-0.17923 1.72899,-0.76736 2.60538,-1.18496c1.26852,-0.60445 2.65491,-0.49127 3.51687,-1.60079c1.57421,-2.00928 -1.29237,-4.9495 -0.41273,-7.35367c0.43075,-1.16908 3.364,-5.2977 5.46846,-4.22951c0,0 0.21138,0.11071 0.07956,0.26198c-0.13182,0.15127 -0.34321,0.04056 -0.34321,0.04056c-1.55849,-0.85141 -4.39709,3.16289 -4.72386,4.05147c-0.91733,2.47577 2.03901,5.30138 0.3659,7.43688c-0.9246,1.17132 -2.33142,1.06456 -3.65597,1.71083c-0.88545,0.43203 -1.59815,1.13164 -2.81304,1.24017c-0.7344,0.06561 -1.17578,-0.25915 -2.04089,-0.09858c-0.8154,0.22691 -1.41496,0.37619 -2.10184,0.76462l-0.40937,0.11041c0,0 -0.22914,0.06058 -0.3269,-0.11681z" fill="#ff0000"/><path d="M419.00989,281.76644c0.02337,-0.18481 0.2714,-0.15344 0.2714,-0.15344l0.16483,0.02085c0.50372,0.06386 0.96553,0.06061 1.46978,0.06218c3.5895,0.44954 5.77179,-1.87329 7.36951,-3.69259c1.98798,-2.0756 6.18177,-1.43052 7.62294,-4.12649c1.06684,-1.99051 1.87486,-4.27125 3.41836,-6.04237c0,0 0.13182,-0.15127 0.34321,-0.04056c0.21139,0.11071 0.07956,0.26198 0.07956,0.26198c-1.52693,1.75212 -2.32139,4.01324 -3.37702,5.98284c-1.49255,2.77796 -5.67359,2.10717 -7.67165,4.19421c-1.73924,1.87658 -3.98701,4.32276 -7.79045,3.83652c-0.51741,-0.00027 -0.99246,-0.00168 -1.51031,-0.06601l-0.16552,-0.02094c0,0 -0.24802,-0.03137 -0.22465,-0.21618z" fill="#ff0000"/><path d="M401.29151,276.49989c-0.13183,0.15127 -0.34321,0.04056 -0.34321,0.04056l-0.29797,-0.15659c-1.20252,-0.46933 -3.56482,-1.39587 -3.99691,-2.4677c-0.26893,-0.6671 0.20629,-1.88997 0.26926,-2.57618c-0.51612,-1.41012 -2.12297,-2.77837 -2.4287,-4.19432c-0.21575,-0.99919 0.28804,-2.28673 0.3915,-3.28537c-0.26909,-2.43976 -1.29536,-5.3864 -1.00396,-7.77229c0.17797,-1.40703 0.33575,-2.85876 0.92571,-4.18663c0.23464,-0.52813 0.83248,-1.37839 0.25017,-1.88707c0,0 -0.15885,-0.15286 0.03306,-0.26136c0.19191,-0.10849 0.35076,0.04436 0.35076,0.04436c1.04859,1.07713 -0.88658,4.95354 -1.06365,6.35345c-0.30994,2.35915 0.74941,5.31876 1.00616,7.73622c-0.0969,0.97475 -0.60874,2.25531 -0.39783,3.22672c0.30628,1.41065 1.92821,2.79821 2.43234,4.2151c-0.18804,2.56537 0.08407,3.43024 3.46548,4.73777l0.32823,0.17136c0,0 0.21138,0.11071 0.07956,0.26198z" fill="#ff0000"/><path d="M394.34392,273.54715c0.02337,-0.18481 0.2714,-0.15344 0.2714,-0.15344l0.27554,0.03911c1.79372,-0.0614 3.51694,-0.20792 5.28042,-0.40294c1.61218,-0.30801 4.69659,-0.47999 5.32783,-1.84391c0.37756,-0.81579 0.24794,-2.01389 0.35896,-2.89157c0.32188,-2.54483 2.55002,-4.34094 2.8875,-6.99c0.53454,-1.92652 4.94504,-2.44993 6.38914,-4.1167c0,0 0.13182,-0.15127 0.34321,-0.04056c0.21139,0.11071 0.07956,0.26198 0.07956,0.26198c-1.34548,1.53577 -5.8638,2.26444 -6.31898,3.97726c-0.33203,2.64524 -2.56498,4.44554 -2.88438,6.97076c-0.11501,0.90927 0.00898,2.12792 -0.38307,2.97503c-0.7063,1.52608 -3.85292,1.72067 -5.66785,2.06559c-1.78684,0.19932 -3.53506,0.34734 -5.353,0.40957l-0.38162,-0.04401c0,0 -0.24802,-0.03137 -0.22465,-0.21618z" fill="#0015ff"/><path d="M413.55446,282.69329c-0.02337,0.18481 -0.2714,0.15344 -0.2714,0.15344l-0.54923,-0.07449c-2.36326,-1.21958 -1.21848,-2.45859 -1.00291,-4.16286c0.19087,-1.29716 -0.45951,-2.70474 -0.1189,-4.13961c0.25575,-1.07742 1.0416,-1.97303 1.25688,-3.0546c0.54168,-2.72141 -0.77507,-4.72214 0.0964,-7.26752c0.54743,-0.88629 1.56883,-1.77206 1.9428,-2.70224c0.42703,-1.06215 0.27821,-2.11165 0.90769,-3.15196c0,0 0.10061,-0.16541 0.32851,-0.07721c0.2279,0.08821 0.1273,0.25361 0.1273,0.25361c-0.6294,1.02891 -0.46148,2.05303 -0.88562,3.108c-0.37766,0.93939 -1.39366,1.82779 -1.94998,2.71864c-0.84426,2.50869 0.46528,4.49048 -0.0742,7.20079c-0.21653,1.08786 -1.00263,1.98433 -1.25905,3.06457c-0.34548,1.45542 0.27166,2.77189 0.12423,4.11026c-0.19182,1.51649 -1.34431,2.67498 0.66634,3.7548l0.43651,0.05018c0,0 0.24802,0.03138 0.22465,0.21618z" fill="#ff0000"/><path d="M423.63942,282.78854c-0.24803,-0.03137 -0.22465,-0.21618 -0.22465,-0.21618l0.04555,-0.36015c0.06272,-0.49587 0.12529,-0.99176 0.18865,-1.48756c0.62454,-2.08683 2.17652,-5.22226 0.17625,-7.1507c-3.29963,-1.62612 -3.73657,-4.21118 -4.45436,-6.83522c-0.9521,-2.17238 -0.2271,-4.50619 0.04864,-6.68629c0,0 0.02337,-0.18481 0.2714,-0.15344c0.24803,0.03137 0.22464,0.21618 0.22464,0.21618c-0.27007,2.13523 -0.99059,4.42597 -0.06388,6.55232c0.71387,2.58755 1.09475,5.01292 4.29741,6.6404c2.1843,2.09812 0.67931,5.23263 -0.00794,7.50239c-0.06109,0.48829 -0.12302,0.97646 -0.18477,1.46466l-0.04555,0.36016c0,0 -0.02337,0.18481 -0.2714,0.15344z" fill="#0015ff"/><path d="M431.42486,282.79884c-0.09001,-0.17933 0.14228,-0.23392 0.14228,-0.23392l0.23539,-0.02537c-0.02042,-1.94833 -0.40548,-4.82002 0.6914,-6.5571c0.61294,-0.95403 1.64846,-1.70835 2.33179,-2.61965c0.76717,-1.02312 0.49692,-3.11045 0.64997,-4.30655c0.2088,-1.63166 0.43664,-3.24506 1.41779,-4.69878c0.28987,-0.42948 1.14411,-0.84539 1.17777,-1.324c0,0 0.02337,-0.1848 0.2714,-0.15344c0.24802,0.03137 0.22465,0.21618 0.22465,0.21618c-0.09676,0.59403 -0.87565,0.93102 -1.22607,1.45021c-0.95493,1.41487 -1.16642,2.98541 -1.36956,4.57297c-0.16271,1.27158 0.09201,3.34366 -0.70587,4.44323c-0.66197,0.91226 -1.71653,1.65312 -2.31976,2.60216c-1.2102,1.86717 -0.31889,4.57184 -0.74614,6.62246l-0.45274,0.13634c0,0 -0.23229,0.05459 -0.3223,-0.12474z" fill="#ff0000"/><path d="M411.96917,289.27251c-0.24799,-0.03164 -0.22424,-0.21641 -0.22424,-0.21641l0.04543,-0.29079c0.73746,-0.78547 1.58329,-1.66944 1.91983,-2.63416c0.35759,-0.99694 1.06468,-2.17286 2.14834,-2.84559c0.5202,-0.32295 1.79911,-0.22482 2.36167,-0.57566c-1.21923,1.09928 -3.34814,1.62749 -4.0281,3.54305c-0.35135,0.96616 -1.15588,1.89351 -1.93357,2.66638l-0.01764,0.20006c0,0 -0.02374,0.18476 -0.27173,0.15312zM418.42589,282.5091c0.00096,-0.00163 0.00191,-0.00327 0.00285,-0.00491c0.27696,-0.48221 0.21488,-1.44925 0.16011,-1.99437c-0.22382,-2.33713 1.3287,-5.07595 -0.34744,-7.25083c-1.12292,-1.63285 -2.02005,-4.98335 -1.8093,-6.74375c0,0 0.02337,-0.18481 0.2714,-0.15344c0.24803,0.03137 0.22465,0.21618 0.22465,0.21618c-0.2229,1.65922 0.67572,4.97501 1.74593,6.51973c1.74415,2.26163 0.16869,4.99308 0.41166,7.41225c0.08488,0.88667 -0.19413,1.50401 -0.65985,1.99913zM418.2202,282.70986c0.07189,-0.06482 0.14061,-0.13161 0.20569,-0.20079c-0.0473,0.08012 -0.11774,0.14594 -0.20569,0.20079z" fill="#0015ff"/></g><path d="M466.33841,191.72948c0.96844,0.09392 2.15781,1.46183 2.7406,2.42302l0.10705,-0.06547l0.25984,0.42484c0.02936,0.04709 0.0433,0.10419 0.0358,0.16352c-0.00608,0.0481 -0.02547,0.09128 -0.05398,0.12631c0.01229,0.00435 0.02459,0.00869 0.03691,0.01301c0.53517,0.18813 1.50371,0.22807 2.12763,0.47411c0.09392,0.01284 0.18801,0.02526 0.28228,0.03723h0.00002v0l0.46618,0.0591v0c0.13695,0.01736 0.23391,0.14243 0.21659,0.27939c-0.01733,0.13698 -0.14242,0.23398 -0.2794,0.21665l-0.49604,-0.06274l0.00002,-0.00016c-0.13885,-0.01777 -0.27731,-0.0365 -0.41541,-0.05613c-0.65533,-0.01773 -1.30647,-0.14498 -1.95492,-0.33576c-0.24051,-0.04776 -0.48032,-0.09748 -0.71961,-0.14885c-0.03564,0.09267 -0.07211,0.18496 -0.10937,0.27689c-0.04995,0.17943 -0.13247,0.36428 -0.23216,0.54747c-0.47494,1.07476 -1.03856,2.10897 -1.57271,3.15806c-0.33967,0.66063 -0.90728,1.53006 -1.59356,2.44889c0.4655,-0.15987 1.41983,-0.36525 1.56189,0.09715c0.13515,0.4399 -0.5613,0.63309 -1.33774,0.53742c-0.34612,0.15424 -0.68219,0.3261 -1.00795,0.51585c0.07517,1.58581 0.41536,3.27438 0.31592,4.58637c1.92989,-1.0741 0.97779,1.50745 1.41898,2.03189c0.41747,0.49624 -0.01791,4.02973 -0.47206,5.41937c2.92071,-1.57906 2.04924,1.67405 1.7646,3.92442c-0.04806,0.37998 -0.54318,2.10205 -0.51454,2.20676c0.07552,0.27603 0.638,0.00413 0.83106,0.21535c0.48052,0.5257 -0.00987,1.32625 0.28848,1.90811c0.454,0.8854 -0.65328,2.56069 -1.73971,1.96226c-0.42669,-0.23503 -0.39024,-0.94745 -0.78525,-1.23252c-0.20216,-0.40223 -0.01997,-1.26351 -0.47014,-1.26605c-0.32936,-0.00187 -0.8444,1.04219 -1.36463,0.19203c-0.24982,-0.40825 0.6726,-1.20109 0.24439,-1.41493c-0.4984,-0.24889 -1.09919,0.24132 -1.65604,0.22501c-0.27676,-0.00811 -0.47147,-0.30888 -0.59392,-0.70274c0.00865,0.92509 0.12792,1.88112 0.39418,2.69178c0.16066,0.73367 1.74226,1.91212 0.96913,2.79315c-1.02427,1.16724 -5.44464,-1.56872 -6.80967,-1.74245c-3.31092,-0.79999 -6.67763,-1.99303 -10.11554,-2.00605c-3.02514,0.61479 -7.35359,-0.46109 -10.39139,-1.04506c-3.46094,-0.66613 -6.86046,-1.36636 -10.25128,-2.33575c-3.40079,-0.97226 -6.57952,-2.15087 -9.7612,-3.6891c-3.47664,-1.68082 -5.84775,-2.58936 -9.65331,-3.07116c-3.81659,-0.4832 -6.60016,-1.32441 -9.74432,-3.58106c-0.9842,-0.70751 -1.49883,-2.158 -2.69085,-2.58999c-0.88583,-0.32104 -1.26287,0.86271 -2.04312,0.93444c-1.41224,0.12983 -2.36955,-1.16076 -3.39769,-1.22534c-0.73469,-0.10766 -2.23224,0.33892 -2.90641,-0.20468c-0.5205,-0.4197 -0.07043,-1.07936 -0.11485,-1.57183c-0.06137,-0.68054 -0.83815,-1.02857 -1.27494,-1.38614c-0.12938,-0.10592 -1.3728,0.18832 -2.23843,0.29176l-0.03037,0.24012l-0.49604,-0.06274v0c-0.13698,-0.01733 -0.23398,-0.14242 -0.21666,-0.2794c0.00777,-0.0614 0.03719,-0.11476 0.07962,-0.1534l0.35464,-0.32727c0.07307,-0.12255 -0.6803,-2.93396 -0.26631,-3.957c0.70444,-1.74079 2.74699,-0.34912 3.4516,-1.82024c1.25526,-1.36592 2.50788,-1.42273 4.25669,-2.05876c0.39402,-0.14329 1.30131,-1.09718 1.05096,-1.5786c-0.117,-0.22499 -2.29076,-0.53791 -2.65523,-0.61848c-0.25575,-0.05667 -1.55603,-0.16032 -1.65372,-0.37841c-0.17315,-0.38659 1.01271,-1.61343 1.25578,-1.86496c1.51683,-1.56961 3.51714,-2.97154 3.80198,-5.22351c0.10708,-0.84652 0.15972,-1.76072 0.23897,-2.67446c-0.47271,-0.88548 -0.6078,-2.14978 -0.53008,-2.86356c0.2594,-2.35534 1.54143,-4.63318 3.06831,-6.60883c-1.55013,-0.17595 -3.4625,-0.53803 -3.63365,-1.4808c-0.22047,-1.21449 4.00465,-1.56656 4.81828,-1.72753c0.60553,-0.09292 1.20941,-0.18371 1.81287,-0.27021c0.99894,-1.23795 2.36766,-2.9529 3.41654,-3.2002c0.0767,-1.70271 0.3076,-3.47275 0.90102,-3.89032c0.84593,-0.59524 1.73253,0.71893 2.24032,1.67742c0.09613,-0.47691 0.19979,-0.87762 0.25196,-1.08309c0.19744,-0.7777 1.73758,-4.99318 3.09706,-3.66674c0.19898,0.19414 0.30572,0.6439 0.34101,1.19682c0.33783,-0.53616 0.74104,-0.92456 1.19452,-1.1993c-0.00844,-0.01035 -0.01684,-0.02072 -0.02522,-0.03116c-1.99488,-2.48258 0.36084,-3.26861 2.53645,-2.79953c0.86847,0.18725 2.9005,0.96662 4.51241,1.81623c0.83767,-0.06004 1.70909,-0.11062 2.58718,-0.11691c-0.00738,-0.02934 -0.00953,-0.06052 -0.0055,-0.09234c0.01732,-0.13698 0.14241,-0.23398 0.27939,-0.21665c1.3228,0.16731 3.05793,0.38678 4.38072,0.55409c0.72129,0.09124 2.3691,0.50843 3.90929,0.73562c0.4343,0.02858 0.88646,0.07446 1.34199,0.13985c0.56011,0.02622 1.05087,-0.00461 1.40311,-0.12702c-1.16078,-1.05024 -2.60132,-2.62342 -1.69683,-3.25908c0.78071,-0.54866 4.53012,1.73837 5.30065,2.12253c0.14306,0.07132 0.2814,0.14698 0.41564,0.22638c2.62426,0.17901 5.48399,0.3675 7.55045,1.42142c0.97566,0.54937 4.86167,3.66894 3.62735,5.32062c0.39337,0.18628 0.77458,0.26865 1.11873,0.16361c1.02621,-0.3132 -0.55059,-5.81126 2.35987,-3.50176c1.47696,1.52827 2.96397,3.35496 3.97173,5.22686c0.12145,0.22559 0.91519,1.97514 1.09609,1.98029c0.39815,0.01133 0.50414,-0.61857 0.72357,-0.951c1.23476,-2.9077 1.75949,-0.27993 1.88393,1.5697c0.01124,0.16696 -0.31647,1.70448 -0.26521,1.74218c0.51056,0.37556 2.63101,0.27529 3.33029,0.37935c2.56816,0.72892 3.98942,2.26975 4.24262,4.88553c0.06104,0.63054 0.80552,0.0214 1.08587,0.4407c0.12555,0.18776 -0.13606,1.6319 -0.16675,1.93251c0.02202,0.08409 0.03972,0.17025 0.05349,0.25822c0.05433,0.02036 0.10837,0.04094 0.16211,0.06177c0.25766,0.09987 1.92737,0.47144 2.00595,0.62968c0.38229,0.76988 -1.53792,1.95542 -2.661,2.70987c-0.05513,0.21768 -0.10612,0.42767 -0.14782,0.62646c-0.08255,0.39348 -0.15164,0.7407 -0.45428,1.0417c-0.18487,0.18388 -0.95441,0.31432 -0.69689,0.35531c1.5858,0.25245 2.03585,0.44559 3.35254,1.35199c0.22013,0.38165 1.18925,2.80886 1.09161,3.02247c-0.3347,0.73218 -1.83664,1.62829 -3.21601,2.28478c0.00069,0.04052 0.00057,0.08142 -0.00051,0.12273c-0.00948,0.36416 -0.34055,0.58565 -0.73645,0.75101c0.46391,0.05867 0.9278,0.11735 1.39169,0.17602c0.02988,0.00382 0.0593,0.00779 0.0882,0.01191c0.68802,-0.22077 1.24957,-0.58687 1.88926,-1.45838l0.11361,-0.44687c0.02927,-0.12246 0.1467,-0.20578 0.27447,-0.18962c0.13674,0.01729 0.23363,0.14197 0.21675,0.27867c0,0.00003 -0.00001,0.00007 -0.00001,0.0001l-0.04551,0.36836c0.10192,0.34162 0.22553,0.63979 0.37143,0.90766z" fill="#000000" stroke="none" stroke-width="0.5" stroke-linecap="butt"/><path d="M379.69542,203.73878c0,0 6.85768,-5.10166 7.09362,-5.94446c0.37482,-1.33891 2.13706,-15.61802 11.47458,-25.97095c6.0781,-6.73906 15.36593,-11.81454 29.57018,-10.57457c44.39815,4.69479 34.12634,39.77884 35.76393,46.88205c2.24538,9.73959 3.92451,18.03519 3.92451,18.03519c0,0 -2.48759,-2.38451 -3.65418,-3.62114c-1.08807,-1.15339 -3.37663,-3.59801 -3.37663,-3.59801c0,0 1.76815,10.6542 -1.29635,20.6959c-2.73967,9.20999 -9.40167,16.1735 -9.40167,16.1735l-0.85153,-2.47376c0,0 -1.29039,2.05223 -2.56119,3.03534c-1.27081,0.9831 -3.77705,2.4582 -3.77705,2.4582l0.3735,-3.68648c0,0 -8.38689,10.04493 -25.5224,7.72996c-16.1453,-2.29964 -24.52585,-13.8624 -24.52585,-13.8624l-0.44842,2.61927c0,0 -3.45079,-3.75546 -4.91444,-10.40648c-1.74449,-7.92724 -1.67751,-12.55296 -1.67751,-12.55296c0,0 -2.5589,1.59063 -6.01999,2.03507c-4.33695,0.55691 -6.93507,-0.52917 -6.93507,-0.52917c0,0 3.9204,-2.24294 6.13837,-4.03148c1.97559,-1.59308 3.04945,-3.01842 3.04945,-3.01842c0,0 -2.22704,0.81165 -4.40234,1.07401c-2.26968,0.27375 -4.06485,0.02102 -4.06485,0.02102c0,0 5.5677,-4.37319 8.33972,-9.90608c2.61724,-5.22395 3.4581,-10.60722 3.4581,-10.60722c0,0 -1.43392,0.48554 -3.40359,0.37097c-1.24851,-0.07262 -2.35291,-0.3469 -2.35291,-0.3469z" fill="#000000" stroke="none" stroke-width="1.5" stroke-linecap="butt"/><path d="M395.02514,217.25751c0.34266,-7.308 56.47417,0.186 55.4676,5.66089c-1.1297,5.5715 -3.70531,9.10671 -4.69655,12.02624c-0.99124,2.91953 -1.17642,6.03671 -4.20152,15.63607c-1.88787,5.99067 -5.24884,8.33187 -11.77993,13.28764c-6.53109,4.95578 -10.1433,8.0435 -14.08046,7.61504c-3.78898,-0.41233 -8.22501,-6.18118 -12.52242,-12.04906c-4.57603,-6.24835 -7.74099,-9.52378 -7.7389,-16.23922c0.00188,-6.04796 0.47298,-9.92766 0.79966,-15.2687c0.23875,-3.90362 -1.43457,-6.67784 -1.24744,-10.66888z" fill="url(#color-1)" stroke="#000000" stroke-width="1.5" stroke-linecap="butt"/><path d="M444.51534,208.1085c0,0 1.47233,0.50683 4.08284,1.63555c2.38439,1.03097 4.19534,2.28857 4.19534,2.28857l0.04669,1.18558c0,0 -6.79956,-4.01495 -14.6863,-4.34788c-6.30604,-0.26618 -10.23735,1.53994 -10.23735,1.53994l0.56951,-4.13807c0,0 3.31662,-1.29829 8.03435,-0.85413c4.88518,0.45993 7.9527,1.60186 7.9527,1.60186z" data-paper-data="{&quot;index&quot;:null}" fill="#000000" stroke="none" stroke-width="1.5" stroke-linecap="butt"/><path d="M418.64899,249.73916c-1.02559,-0.12972 -3.101,-3.67863 -3.08371,-5.79648c0.01547,-1.89489 1.78508,-3.6327 4.23712,-3.32256c2.45206,0.31015 4.1073,1.01419 3.47253,4.66112c-0.53871,3.09505 -2.17391,4.76806 -4.62595,4.45792z" fill="#ffffff" stroke="#000000" stroke-width="1.15" stroke-linecap="butt"/><path d="M425.99894,220.33534c0,0 -0.39635,3.95126 -0.88857,7.07101c-0.97465,6.17766 -4.55647,27.40556 -4.55647,27.40556l-2.95918,-0.36559c0,0 -0.27297,-4.24051 0.07774,-9.56565c0.47472,-7.20803 1.5986,-16.22082 1.70615,-19.5729c0.10195,-3.17746 -0.17176,-5.78179 -0.17176,-5.78179" fill="#ffffff" stroke="#000000" stroke-width="1.3" stroke-linecap="round"/><path d="M399.46299,217.1668c0.68422,-4.84431 5.92144,-8.25832 11.24222,-7.50681c5.32078,0.75152 8.42278,5.3476 7.73856,10.19193c-0.68422,4.84431 -5.19449,8.20743 -10.51527,7.45592c-5.32078,-0.75152 -9.14974,-5.29672 -8.46551,-10.14104z" fill="url(#color-2)" stroke="#000000" stroke-width="1.4" stroke-linecap="butt"/><path d="M399.70669,217.77309c0.62175,-4.40202 4.6943,-7.4665 9.09628,-6.84475c4.40202,0.62176 7.4665,4.6943 6.84475,9.09629c-0.62176,4.40203 -4.69428,7.4665 -9.09628,6.84476c-4.40202,-0.62175 -7.4665,-4.6943 -6.84475,-9.09629z" fill="#000000" stroke="none" stroke-width="1.5" stroke-linecap="butt"/><path d="M426.3053,220.56271c0.81531,-4.82399 5.52905,-8.22971 10.80486,-7.5624c5.2758,0.66731 8.70354,5.09854 8.08961,9.95227c-0.61392,4.85373 -4.99341,8.51173 -10.77014,7.85246c-5.49472,-0.62707 -8.9758,-5.20439 -8.12433,-10.24232z" fill="url(#color-3)" stroke="#000000" stroke-width="1.4" stroke-linecap="butt"/><path d="M404.22014,207.14066c0,0 3.57125,-1.38179 8.25528,-1.2558c5.19049,0.1396 7.71515,0.90904 7.71515,0.90904l-0.22645,4.1418c0,0 -3.71981,-1.15657 -7.88918,-1.52314c-5.57601,-0.49025 -6.77216,0.58777 -11.04891,0.50874c-3.66455,-0.06772 -6.70391,-0.68784 -6.70391,-0.68784l0.12886,-1.22506c0,0 3.55747,0.52454 5.20092,0.58893c1.35645,0.05315 4.06199,-0.43177 4.06199,-0.43177z" fill="#000000" stroke="none" stroke-width="1.5" stroke-linecap="butt"/><path d="M429.52602,219.99722c0.62175,-4.40202 4.6943,-7.4665 9.09628,-6.84476c4.40202,0.62175 7.4665,4.6943 6.84475,9.09629c-0.62174,4.40203 -4.69428,7.4665 -9.09629,6.84476c-4.40202,-0.62175 -7.4665,-4.6943 -6.84475,-9.0963z" fill="#000000" stroke="none" stroke-width="1.5" stroke-linecap="butt"/><path d="M415.20539,223.65561c0.00117,-0.01544 0.00204,-0.0315 0.00261,-0.04818c0,0 0.03137,-0.24802 0.2794,-0.21665c0.24802,0.03137 0.21665,0.2794 0.21665,0.2794c-0.0727,0.40529 -0.2049,0.59805 -0.39148,0.69676c-0.02919,0.2496 -0.06097,0.49882 -0.0925,0.74815c-0.12289,0.97158 0.14216,1.89125 -0.16057,2.8315c-0.19561,0.60755 -1.12694,1.06462 -1.11675,1.69536c0.01104,0.68327 0.75733,0.99019 0.67695,1.79257c0.11541,0.96391 -0.58921,5.87442 -2.32934,5.07136c-0.23878,-0.1102 -0.31602,-2.41556 -0.28508,-2.66022c0.07142,-0.56471 0.22735,-1.17093 0.22317,-1.73876c-0.00238,-0.32434 -0.30254,-1.26158 -0.22159,-0.9475c0.5167,2.00461 -1.66784,2.05577 -1.57963,1.14617c-0.02519,0.01902 -0.05099,0.03814 -0.07748,0.05745c-1.3985,3.03601 -1.50038,0.24682 -1.14166,-1.70332c0.10933,-0.59437 -1.72104,-0.20299 -1.76846,0.39949c-0.14033,1.10949 -1.28451,6.68065 -2.84073,3.6891c-0.20691,-0.39776 0.11554,-1.78002 0.05483,-2.30398c0.10315,-0.82999 0.78845,-2.01047 0.49254,-2.85636c-0.22951,-0.6561 -1.2935,-1.52709 -1.60543,-2.09704c-0.30615,-0.55939 -0.67347,1.1564 -1.2326,1.46305c-1.19599,-1.64659 -0.12959,-2.20538 -0.4451,-3.74834c-0.13794,-0.67458 -1.06023,-0.50946 -0.82244,-1.44921c0.21706,-0.85788 0.50657,-1.92802 1.57412,-1.79298c0.63283,0.08808 1.0472,0.74936 1.47554,1.22343c1.06756,1.18152 4.28226,0.23101 5.62403,1.40305c1.937,0.74123 2.7148,0.00268 4.48861,-0.53912c0.22597,-0.06902 0.48439,0.00146 0.6827,-0.01453l0.1098,-0.23415c0,0 0.06845,-0.14259 0.20989,-0.14649z" fill="#7d2727" stroke="none" stroke-width="0.5" stroke-linecap="butt"/><path d="M428.60475,225.7076l0.0373,0.33904c0.18631,0.07892 0.45578,0.06206 0.65323,0.21859c1.54987,1.22871 2.08303,2.4242 4.16509,2.0187c1.63473,-1.14422 4.45275,1.04143 5.8262,-0.19537c0.55108,-0.49625 1.14342,-1.24201 1.77859,-1.17249c1.06757,0.13503 1.03356,1.62246 0.99185,2.8105c-0.04569,1.30142 -0.88562,0.81538 -1.21563,1.65936c-0.75482,1.93042 0.10879,2.97465 -1.52426,4.78355c-0.44883,-0.5654 -0.30105,-2.92197 -0.75939,-2.27816c-0.46699,0.65596 -1.74622,1.48672 -2.15902,2.27971c-0.5322,1.02235 -0.21731,2.77015 -0.36056,3.88833c-0.21161,0.6691 -0.30509,2.57535 -0.62063,3.03628c-2.3731,3.46671 -1.84656,-4.17088 -1.65742,-5.66631c0.13043,-0.80364 -1.51789,-1.8517 -1.58632,-1.0406c-0.22455,2.66127 -1.13791,6.28779 -1.59731,1.89917c-0.01987,-0.03305 -0.03913,-0.06566 -0.05784,-0.09796c-0.18091,1.21817 -2.26974,0.51258 -1.18622,-1.96421c0.16977,-0.38807 -0.39324,0.75282 -0.49034,1.1773c-0.16998,0.74315 -0.19702,1.5834 -0.2933,2.34455c-0.04171,0.32976 -0.78994,3.32925 -1.0521,3.40391c-1.91054,0.54409 -1.1538,-6.09896 -0.76091,-7.32881c0.15713,-1.07531 0.96553,-1.25953 1.17588,-2.15199c0.19417,-0.82385 -0.56913,-1.69524 -0.57993,-2.54883c-0.01671,-1.32105 0.50734,-2.44915 0.67298,-3.7587c0.04251,-0.33607 0.08474,-0.67206 0.12959,-1.00778c-0.15083,-0.18393 -0.22179,-0.47525 -0.17334,-1.0278c0,0 0.04228,-0.33431 0.2903,-0.30293c0.24802,0.03137 0.20574,0.36568 0.20574,0.36568c-0.00433,0.02203 -0.00818,0.04332 -0.01156,0.06391c0.13507,0.04644 0.15931,0.25339 0.15931,0.25339z" data-paper-data="{&quot;index&quot;:null}" fill="#7d2727" stroke="none" stroke-width="0.5" stroke-linecap="butt"/><path d="M383.95741,203.22686c0.19756,-0.1532 0.35075,0.04437 0.35075,0.04437l0.12366,0.1737c0.04137,-0.03191 0.09985,-0.05232 0.18225,-0.04191c0.24802,0.03137 0.21666,0.2794 0.21666,0.2794c-0.00485,0.03836 -0.00939,0.07823 -0.01367,0.11954c0.59757,0.18411 1.82857,0.05383 2.21817,0.50498c1.05479,1.22139 -0.58819,3.01997 -0.54572,4.05432c0.03283,1.81241 -2.00181,4.18804 -2.82535,5.76707c-0.51778,0.99278 -0.28891,2.31325 -1.25418,3.07575c-0.33608,0.60146 -1.80048,1.51422 -2.30794,0.36414c-0.3501,-0.79343 1.37423,-3.93052 1.69455,-4.78681c0.08229,-0.21997 -0.58533,-1.50346 -0.31058,-2.38127c0.60304,-0.78937 1.06351,-0.3975 1.6813,-0.79473c0.27714,-0.1782 0.26176,-1.38967 0.41411,-1.70561c0.71498,-1.48269 0.57425,-2.40647 0.70571,-3.84235c-0.1066,-0.08534 -0.19812,-0.20321 -0.26889,-0.36512l-0.10521,-0.11473c0,0 -0.1532,-0.19756 0.04437,-0.35075z" fill="#7d2727" stroke="none" stroke-width="0.5" stroke-linecap="butt"/><path d="M450.46021,184.94263c0.03137,-0.24803 0.27939,-0.21665 0.27939,-0.21665l0.3688,0.18595c0.25819,1.26409 1.04943,2.58139 0.8139,4.27961c-0.5579,0.8342 -1.97032,2.59891 -2.27953,3.53328c-0.55072,1.6642 -0.04759,3.51644 -0.36194,5.11337c-0.16242,0.34224 -0.52096,1.48924 -1.07039,1.42592c-0.61514,-0.07089 -0.09877,-1.47733 -0.32178,-1.83785c-0.53406,-0.86335 -1.88737,-0.99164 -2.40412,-1.77779c-0.81968,-1.24703 1.01853,-2.84072 1.82865,-3.45556c0.59318,-0.4502 1.62977,-0.74409 2.12017,-1.23649c0.73737,-0.74039 0.49979,-4.20103 1.15145,-5.57693c0,0 0.04148,-0.08642 0.12659,-0.12655c-0.02495,-0.05899 -0.04989,-0.11741 -0.07475,-0.17527l0.04021,0.14439c0,0 -0.24802,-0.03137 -0.21666,-0.27939z" fill="#7d2727" stroke="none" stroke-width="0.5" stroke-linecap="butt"/><path d="M422.73063,173.0705c0.06862,-0.1026 0.19514,-0.29178 0.26376,-0.39438c1.59241,-2.23998 2.65687,2.31321 2.73271,3.2487c0.01774,0.21876 -0.03983,1.04817 0.10449,1.19583c0.77319,0.7911 2.16195,0.22004 2.86658,1.658c-0.24989,2.33168 -1.01337,3.93818 -1.59515,6.07909c-0.32524,1.19688 0.09976,2.78052 -0.94069,3.58732c-1.29735,-0.10567 -3.34675,-2.31612 -2.85713,-3.8313c0.44828,-1.38722 2.22422,-2.34102 1.5204,-3.75819c-1.67913,-2.29291 -3.50905,-5.1409 -2.53841,-8.03871c0,0 0.07941,-0.23706 0.31645,-0.15766c0.23706,0.07941 0.15766,0.31645 0.15766,0.31645c-0.01059,0.03161 -0.02081,0.06324 -0.03067,0.09483z" fill="#7d2727" stroke="none" stroke-width="0.5" stroke-linecap="butt"/><path d="M460.53461,228.69623c0.07532,0.00952 0.12488,0.03904 0.15737,0.07551c0.04055,-0.02723 0.09589,-0.04348 0.17121,-0.03395c0.24802,0.03137 0.21666,0.27939 0.21666,0.27939c-0.02547,0.20138 -0.05264,0.40215 -0.08132,0.60238c2.6941,0.48882 0.81428,7.19826 0.03476,8.84153c-0.30949,0.63326 -1.01205,5.26098 -2.71862,3.73806c-0.51896,-0.46312 0.6082,-4.07255 0.69651,-4.76997c0.44099,-2.45917 1.0396,-4.90103 1.42795,-7.44181c-0.01079,-0.00222 -0.02166,-0.00435 -0.03258,-0.0064c-0.07142,-0.17246 -0.14283,-0.34493 -0.21425,-0.51739l0.06291,-0.5507c0,0 0.03137,-0.24802 0.2794,-0.21666z" fill="#7d2727" stroke="none" stroke-width="0.5" stroke-linecap="butt"/><g stroke="none" stroke-width="0" stroke-linecap="butt"><path d="M455.29477,226.65549l-3.16844,-41.71317l4.20066,2.85672l2.9286,38.55559z" fill="#404040"/><path d="M399.30741,238.77828l-31.94028,-18.67667l-1.1989,-5.54383l34.91291,21.18714z" fill="#404040"/><path d="M462.58555,227.10063c0.01007,0.13263 -0.04654,3.58168 -0.73588,7.54343c-0.24977,1.43541 -0.65634,2.91961 -1.05014,4.36857c-1.64945,-0.97217 -4.7258,-1.21277 -5.96222,-1.3387c-1.22031,0.70975 -1.50559,1.7442 -2.44996,2.50324c-0.49953,0.40149 -1.64613,0.47873 -2.41807,0.6984c-5.61935,-3.58557 -13.39531,-7.03548 -21.92343,-6.3877c-10.83996,0.82337 -19.83711,8.77294 -24.58456,13.5231c-2.05457,2.05575 4.88134,6.7342 4.88134,6.7342c0,0 -9.35192,-5.59608 -10.33235,-8.74723c-0.51749,-1.66323 -2.26189,-3.44596 -2.82952,-5.28105c-1.43513,-4.63965 -1.62093,-9.13743 -1.63896,-9.37473c-0.18475,-2.43225 14.19343,-4.17033 33.835,-5.66226c19.64158,-1.49193 35.02399,-1.01154 35.20874,1.42073z" fill="#ababab"/><path d="M449.68445,251.458c0,0 0.92227,-0.70059 1.9549,-1.71947c-0.02605,0.18875 -0.0559,0.38006 -0.08861,0.57268c-1.10598,0.70402 -1.86629,1.14679 -1.86629,1.14679z" fill="#ababab"/><path d="M397.33962,246.13271c0,0 -1.98201,-2.67317 -2.64566,-5.06226c-0.74357,-2.67687 -1.24474,-5.89631 -1.38288,-6.7017c-0.23593,-1.37545 -0.0085,-3.97549 -0.0085,-3.97549c0,0 22.18148,-7.82094 34.92427,-9.1603c16.32356,-1.7157 34.33616,5.5709 34.33616,5.5709c0,0 -0.0554,3.14832 -0.20678,4.38724c-0.07432,0.60822 -0.97314,5.01983 -1.55001,7.82548c-1.6478,-0.97547 -4.7308,-1.21656 -5.96892,-1.34265c-1.18671,0.6902 -1.48919,1.6875 -2.37345,2.43993c-7.03382,-1.00115 -17.19858,-2.17732 -23.6236,-1.72302c-10.59807,0.74937 -31.50063,7.74188 -31.50063,7.74188z" fill="#565656"/><path d="M453.67809,270.20921c0,0 -14.23982,15.79993 -19.27672,19.27212c-1.32872,0.91595 -2.99166,0.9114 -2.99166,0.9114c0,0 -2.19216,0.02443 -4.13712,-1.07513c-1.8169,-1.02717 -4.52991,-3.01975 -7.42129,-5.29142c0.33029,-0.02436 0.6638,-0.0543 1.00141,-0.09257l-0.00191,0.01543l0.49616,0.0611c0.00004,0 0.00006,0 0.00009,0.00001c0.13666,0.01683 0.26129,-0.08006 0.27858,-0.21676c0.01409,-0.11139 -0.04741,-0.2149 -0.14452,-0.25901l-0.44506,-0.2149c-1.4997,-0.72411 -2.98285,-1.46652 -4.45063,-2.25327c-0.62527,-0.33217 -2.71537,-1.76127 -2.93262,-2.4241c-0.31239,-0.95308 1.80057,-1.55741 1.87435,-2.65091c0.06966,-1.03215 -1.56299,-1.59393 -2.26308,-2.11467c-0.48342,-0.35958 -1.56137,-0.4025 -1.50413,-1.00227c0.04754,-0.49799 1.36948,-1.74532 1.65922,-2.32769c0.89423,-1.79738 0.36321,-3.42208 1.77861,-4.94704c0.86814,-0.93613 2.99214,-5.35708 1.2339,-6.24952c-1.00322,-0.50921 -2.91432,-0.37946 -4.039,-0.52172c-2.73711,-0.3462 -5.47423,-0.6924 -8.21135,-1.03861l-1.62562,-14.54698l-8.24142,-22.37968l26.80145,-10.97926c0.20294,0.10244 0.44299,0.1751 0.72488,0.2133c1.70464,0.22885 4.91527,1.1744 7.11137,1.06281c-1.09752,0.86963 -2.17826,2.12393 -3.02084,2.80086c-0.23559,0.18928 -1.22319,0.94299 -1.15786,1.28878c0.19295,1.02122 2.1339,0.43174 2.67658,0.31397c0.35043,-0.1132 1.86358,-0.80359 2.19707,-0.50594c0.86019,0.76776 0.6335,2.18704 2.58566,1.98858c1.63492,-0.1662 2.07428,-2.44242 2.81307,-3.53664c0.55153,-0.82475 1.08925,-2.22616 1.93944,-2.75109c0.04461,-0.02754 0.08871,-0.05443 0.13233,-0.08071l22.45205,5.32014l-4.88346,21.76875c-1.09458,0.70494 -1.39462,1.68398 -2.29868,2.41061c-0.58195,0.46774 -2.04214,0.4954 -2.76499,0.82087c-1.22444,0.55131 -0.66993,3.21147 -0.02469,4.03242c0.46688,0.57558 1.77074,1.44908 1.99126,2.11997c0.59105,1.79804 -0.63894,5.48121 -0.86926,7.37216c0.17016,1.1192 0.92723,1.65671 1.18096,2.72763c0.52298,2.2074 0.61705,3.79105 2.00761,5.06533z" fill="#d6d6d6"/><path d="M419.82582,283.28623c-0.29388,-0.00601 -0.5957,0.01223 -0.87315,0.02961c-0.52568,-0.41793 -1.05474,-0.84262 -1.583,-1.27006c0.81391,0.42365 1.63257,0.83571 2.45616,1.24045z" fill="#d6d6d6"/><path d="M402.56934,244.36641c0,0 -1.7837,-5.99578 -3.07768,-9.59667c-1.50111,-4.1773 -5.38759,-13.82945 -5.38759,-13.82945l26.82279,-11.16745c0.23801,0.16164 0.53888,0.2734 0.91377,0.32421c1.70465,0.22885 4.91528,1.1744 7.11138,1.06281c-1.09752,0.86963 -2.17826,2.12393 -3.02085,2.80086c-0.23559,0.18927 -1.22319,0.94298 -1.15785,1.28877c0.19295,1.02122 2.1339,0.43175 2.67658,0.31397c0.35042,-0.1132 1.86358,-0.80359 2.19706,-0.50594c0.8602,0.76776 0.63351,2.18705 2.58566,1.98858c1.63492,-0.1662 2.07429,-2.44243 2.81307,-3.53664c0.55152,-0.82475 1.08924,-2.22616 1.93943,-2.75109c0.20247,-0.12501 0.39461,-0.23649 0.57719,-0.33997l22.33957,5.35687c0,0 -2.60082,10.13328 -3.5563,14.48189c-0.46041,2.09541 -0.98058,5.19511 -1.33698,7.43389c-0.06039,-0.00596 -0.11756,-0.01165 -0.17127,-0.01712c-0.95495,0.55541 -1.33731,1.30966 -1.91099,1.97516l-25.98121,-13.26894z" fill="#7e7e7e"/><path d="M458.26972,217.54914l-5.15775,21.87466c-0.21042,0.26538 -0.43694,0.52215 -0.72463,0.75339c-0.58195,0.46774 -2.04214,0.4954 -2.76499,0.82086c-1.22444,0.55131 -0.66993,3.21147 -0.02469,4.03242c0.46688,0.57559 1.77074,1.44908 1.99126,2.11997c0.59105,1.79804 -0.63894,5.48121 -0.86926,7.37216c0.17016,1.1192 0.92722,1.6567 1.18095,2.72763c0.25848,1.09101 0.41219,2.02964 0.66944,2.85387l-0.21738,8.47351c0,0 -19.25222,20.03045 -19.28366,20.05943c-0.82287,0.75825 -2.62923,0.60708 -3.03732,0.34771c-1.47713,-0.93884 -9.77179,-6.90926 -15.90747,-11.34388c0.54931,-0.49471 1.35777,-0.98063 1.40292,-1.64968c0.06966,-1.03215 -1.56299,-1.59393 -2.26308,-2.11467c-0.48342,-0.35957 -1.56137,-0.4025 -1.50413,-1.00227c0.04753,-0.49799 1.36948,-1.74532 1.65922,-2.3277c0.89423,-1.79738 0.36322,-3.42208 1.77861,-4.94704c0.86814,-0.93613 2.99213,-5.35708 1.2339,-6.24952c-1.00321,-0.5092 -2.91432,-0.37946 -4.039,-0.52172c-2.30688,-0.29179 -4.61375,-0.58357 -6.92063,-0.87536l-1.79099,-14.15928l-7.87697,-22.10149l26.55697,-11.51271c1.78084,0.31543 4.60199,1.08148 6.59095,0.98041c-1.09752,0.86963 -2.17826,2.12393 -3.02084,2.80086c-0.23559,0.18928 -1.22319,0.94299 -1.15785,1.28878c0.19295,1.02123 2.1339,0.43174 2.67658,0.31397c0.35042,-0.1132 1.86357,-0.80359 2.19706,-0.50594c0.8602,0.76776 0.63351,2.18705 2.58567,1.98858c1.63492,-0.1662 2.07429,-2.44243 2.81307,-3.53664c0.38914,-0.58193 0.7714,-1.45092 1.26141,-2.09658z" fill="#3e0000"/><path d="M403.69767,243.58296l-7.92222,-22.24959l26.20605,-11.2163c1.73588,0.25898 4.83351,1.15139 6.97049,1.04281c-1.09752,0.86963 -2.17826,2.12393 -3.02085,2.80086c-0.23559,0.18927 -1.22319,0.94298 -1.15785,1.28877c0.19295,1.02122 2.1339,0.43175 2.67658,0.31397c0.35042,-0.1132 1.86358,-0.80359 2.19706,-0.50594c0.8602,0.76776 0.63351,2.18705 2.58566,1.98858c1.63492,-0.1662 2.07429,-2.44243 2.81307,-3.53664c0.42784,-0.6398 0.84738,-1.62664 1.41094,-2.28213l21.90709,6.06828l-5.80678,22.57608l-25.26189,-4.2656z" fill="#1e0000"/><path d="M423.694,236.60931c0.43224,5.69055 -3.71886,10.64559 -9.27174,11.06737c-5.55287,0.42178 -10.40477,-3.8494 -10.83701,-9.53995c-0.43224,-5.69055 3.71886,-10.64557 9.27173,-11.06736c5.55287,-0.42178 10.40477,3.84939 10.83702,9.53994z" fill="#770000"/><path d="M451.82434,234.32924c0.18124,2.38609 -0.44337,4.64288 -1.63925,6.49036c-0.21157,0.05039 -0.40476,0.10729 -0.56275,0.17842c-0.49216,0.22159 -0.69691,0.7839 -0.72388,1.43052c-1.64024,1.67453 -3.85164,2.7786 -6.34585,2.96805c-5.55287,0.42178 -10.40477,-3.8494 -10.83701,-9.53995c-0.43224,-5.69055 3.71884,-10.64558 9.27173,-11.06737c5.55287,-0.42178 10.40478,3.8494 10.83702,9.53995z" fill="#770000"/><path d="M421.1793,233.75976c0.47408,6.24126 -2.60144,11.56358 -6.86935,11.88776c-4.26791,0.32419 -8.11205,-4.47256 -8.58612,-10.7138c-0.47408,-6.24125 2.60145,-11.56358 6.86935,-11.88775c4.26791,-0.32418 8.11205,4.47256 8.58612,10.7138z" fill="#1e0000"/><path d="M449.36445,231.28461c0.47408,6.24126 -2.60144,11.56357 -6.86936,11.88775c-4.2679,0.32419 -8.11205,-4.47254 -8.58612,-10.7138c-0.47408,-6.24125 2.60145,-11.56359 6.86935,-11.88776c4.2679,-0.32418 8.11206,4.47256 8.58612,10.7138z" fill="#1e0000"/><path d="M444.14462,270.64144c0,0 -6.21145,-2.78756 -14.95378,-2.1235c-8.74233,0.66405 -14.7013,4.5014 -14.7013,4.5014c0,0 5.79167,-9.34048 14.534,-10.00454c8.74233,-0.66405 15.12108,7.62664 15.12108,7.62664z" fill="#770000"/></g><path d="M416.7485,131.72216c0.05827,-0.24312 0.30139,-0.18485 0.30139,-0.18485l0.51478,0.13111c1.67048,0.88509 2.28769,1.82323 2.36003,3.6021c0.02893,1.02389 0.66071,1.82405 0.83677,2.76493c0.3644,1.9474 0.54541,5.46053 2.45078,6.58138c3.16565,1.88381 5.54185,3.95327 8.40226,6.14137c2.75823,2.10993 6.16637,3.13523 9.38723,4.38646c0.88109,0.26674 2.18335,0.442 2.89715,1.06215c1.20591,1.04768 0.41265,6.39596 -0.6497,7.44904c-0.45629,0.67579 -0.0835,1.76545 -0.56615,2.38254c-0.46337,0.59243 -1.43973,0.22619 -2.07718,0.35408c-1.95923,0.3931 -3.92362,0.73864 -5.89375,1.07228c-1.84495,0.56185 -6.57347,2.99869 -8.3463,1.84634c-0.62006,-0.40304 -0.36086,-1.2396 -0.87399,-1.78052c-1.9833,-2.1353 -7.21967,-0.77533 -9.91464,-0.84726c-3.9092,-0.49203 -6.45003,-0.38827 -10.13768,1.04545c-1.01733,0.03749 -5.04339,0.4039 -5.71815,-0.52034c-0.9065,-1.24166 1.0676,-3.93721 1.55093,-4.84808c0.60878,-1.1285 1.26219,-3.03349 2.15079,-3.8814c1.5106,-1.44144 3.40282,-1.74333 4.35005,-3.7414c0.50642,-1.04921 1.66753,-1.7297 2.1078,-2.74566c0.85718,-1.97803 0.40304,-4.81063 0.21321,-6.83913c0.11727,-0.65578 0.01959,-1.26342 0.83538,-1.4433c1.01924,-0.22473 3.51891,1.02284 4.3786,0.39068c0.27109,-0.19934 0.58857,-1.36575 0.86541,-1.71624c0.5726,-0.72495 0.90144,-0.97616 0.27188,-1.83939c-0.43526,-0.67437 -1.7167,-2.60753 -1.32357,-3.46504c0.67735,-1.47746 2.29921,-2.6655 2.51864,-4.55351c0,0 0.01554,-0.12284 0.11119,-0.18468c-0.12982,-0.07673 -0.26908,-0.15301 -0.41838,-0.22959l-0.39992,-0.08811c0,0 -0.24313,-0.05827 -0.18486,-0.30138z" fill="#000000" stroke="none" stroke-width="0.5" stroke-linecap="butt"/></g><g stroke="#000000"><g stroke-width="2"><path d="M283.32227,159.01549c0,0 86.31839,-39.92537 97.22506,-44.85285c0.88326,-0.39904 3.17768,-1.84306 5.99351,-1.19242c4.15112,0.95917 9.83082,4.84877 9.83082,4.84877l-6.8481,4.6297l-101.44782,45.59211z" fill="#ffffff" stroke-linecap="butt"/><path d="M275.54805,70.45973l15.28397,88.07004l-14.69613,1.93352l-10.52423,-88.83739z" fill="#ffffff" stroke-linecap="butt"/><path d="M302.15371,161.6533c0,0 -19.81096,10.64791 -22.43401,7.79011c-3.63705,-3.96255 -3.84738,-9.4634 -4.32597,-14.10148c-0.55926,-5.41984 -1.04119,-9.70892 -1.04119,-9.70892" fill="#ffffff" stroke-linecap="round"/><path d="M287.29327,158.51008c0,0 1.92202,-1.89245 3.14395,-2.54775c0.99468,-0.53344 3.43533,-1.60781 3.43533,-1.60781" fill="none" stroke-linecap="round"/><path d="M288.52263,145.28711l1.91783,10.36261" fill="none" stroke-linecap="round"/></g><path d="M418.63122,120.56167l7.36506,3.58874l6.23635,10.04433l-7.85847,-6.5971l-12.71604,-1.58463l9.32631,4.3278l9.49492,11.23914l-13.3254,-8.08966l-14.73591,-2.53593l-1.6144,4.36593l12.6848,5.57952l9.69422,-2.01481l-10.38176,6.4153l-15.42328,-5.83016l-8.67602,-9.95751c0,0 0.69881,-4.66841 0.23153,-4.82501c-1.3182,-0.44181 -6.59468,-4.18508 -6.91422,-4.29216c0.52526,-0.89782 1.20512,-2.254 1.46707,-2.66693l0.07614,-3.89949c1.32209,0.44852 -0.1783,-0.74896 1.58824,-0.93853c1.02974,-0.1105 5.52302,0.66727 6.1444,0.87807c1.9499,0.66146 13.53467,-2.42201 13.53467,-2.42201l12.55213,3.6943l10.73338,4.89473l5.45546,9.18622l-6.92283,-7.08234z" data-paper-data="{&quot;index&quot;:null}" fill="#ffffff" stroke-width="2" stroke-linecap="butt"/><path d="M391.22694,120.18237c-0.13357,1.46669 0.59074,2.7315 -2.06763,2.4894c-2.65837,-0.2421 -8.9308,2.50644 -8.79722,1.03975c0.13357,-1.46669 -0.9556,-9.29163 1.70277,-9.04953c1.22288,0.11137 0.99346,-0.9787 3.01177,-0.72118c0.98688,0.12592 2.94819,0.00845 4.20882,0.99493c1.76577,1.38178 1.98357,4.78453 1.94149,5.24663z" fill="#ffffff" stroke-width="0" stroke-linecap="butt"/></g><g fill="#000000" stroke="none" stroke-linecap="butt"><g data-paper-data="{&quot;index&quot;:null}"><path d="M199.88445,-15.29084c0,0 8.09827,-3.85864 8.46946,-4.65325c0.97352,-2.08407 10.78497,-38.69886 49.17399,-29.26701c47.1972,12.43621 31.39031,45.6457 32.16984,52.97821c1.06886,10.05398 1.72777,18.57647 1.72777,18.57647c0,0 -2.35014,-2.80105 -3.43585,-4.23204c-1.01264,-1.33467 -3.13995,-4.16046 -3.13995,-4.16046c0,0 -0.84836,9.6337 0.96012,19.09603c1.64588,8.61151 0.1287,19.40723 0.1287,19.40723c0,0 -8.57734,-16.06591 -11.72259,-17.16728c-2.94374,-1.03079 -6.58447,10.75677 -6.58447,10.75677c0,0 -1.67534,1.80948 -3.18126,2.56193c-1.50594,0.75244 -4.41157,1.77643 -4.41157,1.77643l0.91389,-3.59112c0,0 -10.43202,8.49382 -28.57805,3.19514c-17.08099,-5.10998 -24.50889,-18.04735 -24.50889,-18.04735l-0.8466,2.51944c0,0 -3.19803,-4.32964 -3.85283,-11.18314c-0.78044,-8.16858 -0.06661,-12.74502 -0.06661,-12.74502c0,0 -1.06489,5.58112 -4.85659,5.41549c-4.75124,-0.20754 -10.2562,7.46705 -10.2562,7.46705c0,0 7.06778,-11.32544 9.70622,-12.71082c2.35009,-1.23399 2.11558,-6.33085 2.11558,-6.33085c0,0 -2.51269,0.41484 -4.89344,0.2939c-2.48403,-0.12617 -4.38365,-0.6914 -4.38365,-0.6914c0,0 6.60699,-3.36211 10.36193,-8.36438c3.54525,-4.72295 5.19821,-9.91518 5.19821,-9.91518c0,0 -1.61271,0.23034 -3.71955,-0.22843c-1.33547,-0.29079 -2.48764,-0.75636 -2.48764,-0.75636z" data-paper-data="{&quot;index&quot;:null}" stroke-width="1.5"/><path d="M299.36431,-12.81685c0,0 -1.18574,-0.1975 -2.43164,-0.63882c-1.96554,-0.69622 -3.16982,-1.7255 -3.16982,-1.7255c0,0 -1.32463,5.28535 -0.85431,11.14718c0.49814,6.20851 4.18323,12.48962 4.18323,12.48962c0,0 -1.85047,-0.49835 -3.95376,-1.67322c-2.01584,-1.126 -3.8633,-2.77745 -3.8633,-2.77745c0,0 0.47899,1.74576 1.7701,4.01245c1.44953,2.54479 4.37745,6.19953 4.37745,6.19953c0,0 -2.96507,-0.05983 -6.9706,-2.33585c-3.19661,-1.81637 -5.05727,-4.31815 -5.05727,-4.31815c0,0 -1.77721,4.27486 -6.63517,10.84428c-4.07586,5.51181 -8.93533,7.55621 -8.93533,7.55621l0.60621,-2.58762c0,0 -12.77444,7.20766 -29.42773,2.75007c-17.6246,-4.84643 -21.79849,-17.48273 -21.79849,-17.48273l-1.10433,3.53711c0,0 -1.85536,-2.37428 -2.70247,-3.79408c-0.84711,-1.41981 -1.28744,-3.82932 -1.28744,-3.82932l-1.81536,1.92507c0,0 -3.71996,-9.10494 -2.72191,-18.67679c1.01272,-10.46775 6.97992,-19.5316 6.97992,-19.5316c0,0 -3.20446,1.31362 -4.72445,1.93c-1.62968,0.66087 -5.0042,1.8383 -5.0042,1.8383c0,0 4.94098,-6.93427 11.00906,-14.9641c3.74364,-4.95392 6.16095,-33.89951 34.49879,-33.74226c2.94501,0.01634 31.22368,-2.95346 31.22368,-2.95346c0,0 -14.96081,7.17535 -11.97342,8.08546c4.67257,1.51227 31.54073,8.1082 31.54073,8.1082c0,0 -6.12286,4.6984 -7.62426,10.98965c-0.8074,3.38326 2.22909,7.93831 2.62818,10.87004c1.40618,10.32992 -1.17532,19.30534 -1.30872,20.40296c-0.10572,0.8699 4.5466,8.34481 4.5466,8.34481z" stroke-width="1.5"/><path d="M257.6542,65.12287c0,0 -3.03922,5.86868 -5.73411,8.58744c-7.9744,8.04502 -24.36392,21.52473 -24.36392,21.52473c0,0 13.60746,-23.4924 16.71876,-32.57757c2.78768,-8.14017 -12.60021,5.46019 -12.60021,5.46019c0,0 15.18217,-20.80052 23.70818,-37.43058c2.4387,-4.7567 -0.40439,-6.50698 -0.40439,-6.50698c0,0 4.88927,-1.5738 10.09859,-5.34044c4.97281,-3.59563 10.21001,-9.41861 12.88572,-8.35212c12.43636,4.9569 0.64138,11.11961 -2.79633,22.41605c-3.15495,10.36722 -2.59911,21.36486 -2.59911,21.36486c0,0 0.88621,9.13842 -1.01759,13.33108c-1.56562,3.44789 -8.29388,8.35423 -11.85743,13.34518c-3.3462,4.68654 -3.58623,9.57558 -3.58623,9.57558z" stroke-width="0"/><path d="M189.90037,80.40533c0,0 1.24279,-14.99905 0.85527,-20.74453c-0.4127,-6.11867 -3.56328,-13.82681 -3.08564,-17.58326c0.58082,-4.56788 6.13276,-11.88033 6.13276,-11.88033c0,0 6.24684,-9.06829 9.00448,-19.5482c3.00481,-11.41923 -3.79848,-22.85669 9.38851,-20.54641c2.83721,0.49706 4.23753,8.20255 6.58218,13.87353c2.45616,5.94069 5.79118,9.84703 5.79118,9.84703c0,0 -3.33866,-0.00296 -3.76036,5.32579c-1.47431,18.63004 -5.82478,50.81813 -5.82478,50.81813c0,0 0.39531,-26.16801 -1.5057,-17.77639c-2.1217,9.36584 -18.79838,41.34273 -18.79838,41.34273c0,0 9.05218,-24.91565 6.48881,-35.94935c-0.86628,-3.72877 -0.37189,-10.3192 -0.37189,-10.3192z" data-paper-data="{&quot;index&quot;:null}" stroke-width="0"/></g><g><path d="M295.10951,3.87335c0,0 -1.2423,0.03094 -2.59477,-0.16617c-2.13367,-0.31095 -3.56255,-1.09338 -3.56255,-1.09338c0,0 -0.27731,5.44194 1.38189,11.10957c1.75734,6.00283 6.76123,11.4725 6.76123,11.4725c0,0 -1.97708,-0.13845 -4.34699,-0.89334c-2.27137,-0.7235 -4.47797,-1.99496 -4.47797,-1.99496c0,0 -2.01085,4.68929 -0.24437,6.6705c1.98323,2.22429 4.61979,15.31121 4.61979,15.31121c0,0 -2.45654,-9.11972 -6.97761,-10.59525c-3.60802,-1.17753 -2.64348,-6.77687 -2.64348,-6.77687c0,0 -0.9401,4.53537 -4.54162,11.90856c-3.0217,6.18615 -7.53737,9.11564 -7.53737,9.11564l0.09287,-2.65625c0,0 -11.50091,9.50149 -29.28814,8.28235c-18.85066,-1.41679 -25.63201,-13.03511 -25.63201,-13.03511l-0.40651,3.68321c0,0 -2.36039,-1.97985 -3.50581,-3.21355c-1.1454,-1.23371 -2.07792,-3.51655 -2.07792,-3.51655c0,0 0.73428,-12.31512 -2.38394,-12.38467c-3.33168,-0.0743 -17.00823,11.95219 -17.00823,11.95219c0,0 2.37378,-10.64023 6.94119,-18.12393c5.01866,-8.2231 7.6102,-17.54038 7.6102,-17.54038c0,0 -2.98473,1.89788 -4.40184,2.79151c-1.51938,0.95813 -4.70403,2.75453 -4.70403,2.75453c0,0 3.61212,-7.74723 8.14628,-16.78417c3.30683,-6.59077 0.17985,-43.23705 48.73688,-38.29238c39.25487,4.66173 35.57209,42.38897 35.75105,44.68223c0.06824,0.87437 6.29377,7.33301 6.29377,7.33301z" data-paper-data="{&quot;index&quot;:null}" stroke-width="1.5"/><path d="M201.10635,-28.77284c0,0 6.98259,-5.36299 7.18935,-6.21455c0.26087,-1.07448 0.99848,-10.38459 5.94542,-19.56133c1.40399,-2.60445 5.84765,-5.80172 6.28081,-9.25292c0.80545,-6.41758 -3.27554,-12.96813 -3.27554,-12.96813c0,0 27.47229,3.26771 32.37826,3.49409c3.11667,0.19787 -8.36794,-11.77773 -8.36794,-11.77773c0,0 25.43092,12.71892 28.19381,13.73866c26.58533,9.81216 18.67546,37.76077 20.43921,43.71436c2.85888,9.65021 5.04759,17.87863 5.04759,17.87863c0,0 -2.74544,-2.2883 -4.03889,-3.47977c-1.20639,-1.11126 -3.74475,-3.46729 -3.74475,-3.46729c0,0 2.40103,10.58282 -0.32976,20.73871c-2.42966,9.312 -9.11226,16.52871 -9.11226,16.52871l-1.02298,-2.44028c0,0 -1.25907,2.10105 -2.55113,3.13256c-1.29206,1.03151 -3.8635,2.60225 -3.8635,2.60225l0.20924,-3.69958c0,0 -8.34867,10.36326 -26.55221,8.70632c-17.15754,-1.6796 -26.58391,-12.91705 -26.58391,-12.91705l-0.34188,2.6356c0,0 -3.83095,-3.62185 -5.70967,-10.21451c-2.23922,-7.85768 -2.40065,-12.48443 -2.40065,-12.48443c0,0 -2.62122,1.68824 -6.25227,2.26529c-4.54991,0.72307 -7.34686,-0.26299 -7.34686,-0.26299c0,0 4.02561,-2.39257 6.27703,-4.26558c2.00538,-1.66833 3.06736,-3.13438 3.06736,-3.13438c0,0 -2.31001,0.89681 -4.59298,1.2425c-2.38202,0.36072 -4.28959,0.17693 -4.28959,0.17693c0,0 5.65751,-4.58528 8.30586,-10.22266c2.50047,-5.32259 3.11789,-10.73631 3.11789,-10.73631c0,0 -1.4892,0.54037 -3.57403,0.50139c-1.32152,-0.0247 -2.50103,-0.25654 -2.50103,-0.25654z" stroke-width="1.5"/><path d="M205.28688,83.17521c0,0 1.49355,-4.6615 0.0079,-10.2251c-1.58213,-5.92497 -6.15684,-12.88298 -6.41081,-16.66115c-0.30884,-4.59428 3.73255,-12.83827 3.73255,-12.83827c0,0 4.38551,-10.10071 5.07541,-20.91538c0.75175,-11.78399 -8.12489,-21.69892 5.26021,-21.96882c2.87983,-0.05807 5.73644,7.23407 9.12833,12.34801c3.55321,5.35717 7.57745,8.54892 7.57745,8.54892c0,0 -3.27686,0.63942 -2.66548,5.94975c2.13745,18.56564 9.04071,43.37501 9.04071,43.37501c0,0 -9.62637,-18.14084 -9.8774,-9.54023c-0.28018,9.59906 4.20277,36.37515 4.20277,36.37515c0,0 -10.6065,-18.3799 -15.24475,-28.71431c-1.56746,-3.49245 -2.35023,-10.05488 -2.35023,-10.05488z" stroke-width="0"/><path d="M272.27001,62.11778c0,0 -1.85336,6.34376 -3.97486,9.5302c-6.27766,9.42891 -6.55959,35.93651 -6.55959,35.93651c0,0 -4.37449,-35.798 -3.06919,-45.31203c1.16952,-8.5244 -7.65718,16.11318 -7.65718,16.11318c0,0 7.23961,-31.66366 12.40691,-49.62337c1.478,-5.13701 -1.64872,-6.30762 -1.64872,-6.30762c0,0 4.49516,-2.48504 8.88249,-7.18353c4.18815,-4.48518 8.20724,-11.20696 11.03815,-10.67516c13.15768,2.47169 2.76869,10.78848 1.56851,22.53528c-1.10145,10.78053 1.55981,21.46578 1.55981,21.46578c0,0 2.62779,8.7972 1.56617,13.27781c-0.87303,3.68468 -6.53167,9.79381 -9.06846,15.3771c-2.38206,5.24276 -6.48999,19.72174 -6.48999,19.72174z" data-paper-data="{&quot;index&quot;:null}" stroke-width="0"/></g></g><path d="M257.68499,71.45052c-0.57113,0 -1.03411,-0.46299 -1.03411,-1.03411c0,-0.57113 0.46299,-1.03413 1.03411,-1.03413c0.57113,0 1.03411,0.463 1.03411,1.03413c0,0.57113 -0.46299,1.03411 -1.03411,1.03411z" fill="#000000" stroke="none" stroke-width="1.5" stroke-linecap="butt"/><path d="M202.16052,135.44708v-12.51362h10.26543v12.51362z" fill="url(#color-4)" stroke="none" stroke-width="0" stroke-linecap="butt"/><path d="M273.94372,134.87543l-1.66667,-12.51362h12.76543l1.66667,12.51362z" fill="url(#color-5)" stroke="none" stroke-width="0" stroke-linecap="butt"/><g fill="#ff0000" stroke="none" stroke-width="0" stroke-linecap="butt"><path d="M243.53507,138.50259c-6.16833,21.49702 -14.8096,59.80186 -17.96988,57.93185c-3.16028,-1.87 0.35718,-43.20672 6.52551,-64.70374c6.16833,-21.49702 7.15955,-15.32568 10.31983,-13.45567c3.16028,1.87 7.29287,-1.26946 1.12454,20.22756z"/><path d="M246.8993,137.41869c-1.03135,23.20325 -1.28955,66.01479 -4.70066,65.70213c-3.41111,-0.31266 -8.68341,-43.63115 -7.65206,-66.83439c1.03135,-23.20325 3.35084,-17.81651 6.76196,-17.50384c3.41111,0.31267 6.62212,-4.56714 5.59077,18.63611z"/><path d="M238.14895,138.7208c-3.33181,4.90998 -6.52218,11.18733 -9.42762,17.51098c-6.94814,15.12256 -12.26672,30.50987 -13.9929,28.09435c-1.69102,-2.36635 -5.99301,-58.16284 -2.49901,-63.31185c11.29957,-16.65183 27.67361,-5.093 30.1216,-1.66739c2.44799,3.4256 7.09749,2.7221 -4.20208,19.37393z"/><path d="M250.69056,132.02534c6.22726,21.46194 8.58914,63.29908 5.43401,65.18696c-3.15512,1.88788 -10.63247,-36.88843 -16.85973,-58.35036c-6.22726,-21.46194 -2.487,-18.106 0.66814,-19.99388c3.15513,-1.88788 4.53032,-8.30465 10.75759,13.1573z"/><path d="M271.97688,119.24689c4.03293,5.05109 -2.12074,58.51321 -3.62485,60.98973c-2.24667,3.69916 -13.12152,-28.25753 -25.32342,-43.53995c-12.2019,-15.28242 -7.81347,-14.65215 -5.5668,-18.35131c2.24667,-3.69916 22.31317,-14.3809 34.51507,0.90153z"/></g><path d="M210.99575,132.64118v-12.51362h62.80621v12.51362z" fill="url(#color-6)" stroke="none" stroke-width="0" stroke-linecap="butt"/><path d="M199.96248,123.87213c0,0 -1.55359,-9.15336 -1.01141,-18.51251c0.29539,-5.09893 2.90509,-9.58202 2.8278,-14.23899c-0.10437,-6.28813 -2.58086,-11.01415 -2.5599,-11.73806c0.37892,-13.08713 -0.67182,-26.0603 5.26346,-38.16507c3.85447,-7.86102 23.11267,-22.85918 41.50144,-22.85595c16.41935,0.00289 32.44245,15.85416 35.89081,24.17141c5.23494,12.62633 4.26725,22.18684 4.11408,35.50337c-0.00061,0.05339 -2.38207,3.18274 -2.34459,7.78358c0.0336,4.12439 2.40211,3.49509 2.77366,8.82864c0.80674,11.58085 -0.05397,29.22359 -0.05397,29.22359z" fill="#610000" stroke="#000000" stroke-width="0" stroke-linecap="butt"/><path d="M252.42511,75.68613c-4.4635,-0.31439 -6.55245,-1.79392 -6.16985,-2.58011c0.11788,-0.24224 2.84645,1.06355 6.97038,1.3048c6.40897,0.37493 8.51033,-0.63173 8.51033,-0.63173v1.34616c0,0 -2.4135,1.04672 -9.31086,0.56089z" fill="#000000" stroke="#000000" stroke-width="0" stroke-linecap="butt"/><path d="M224.61236,70.41646c0,-0.57113 0.46299,-1.03413 1.03411,-1.03413c0.57113,0 1.03413,0.463 1.03413,1.03413c0,0.57113 -0.463,1.03411 -1.03413,1.03411c-0.57113,0 -1.03411,-0.46299 -1.03411,-1.03411z" fill="#000000" stroke="none" stroke-width="1.5" stroke-linecap="butt"/><path d="M230.90635,75.68613c-6.89736,0.48585 -9.31086,-0.56089 -9.31086,-0.56089v-1.34616c0,0 2.10136,1.00666 8.51033,0.63173c4.12393,-0.24126 6.85251,-1.54704 6.97039,-1.3048c0.3826,0.78618 -1.70634,2.26571 -6.16985,2.58011z" fill="#000000" stroke="#000000" stroke-width="0" stroke-linecap="butt"/><path d="" fill="#5a5a5a" stroke="none" stroke-width="0" stroke-linecap="butt"/><path d="" fill="#3f3f3f" stroke="none" stroke-width="0" stroke-linecap="butt"/><path d="" fill="#2a2a2a" stroke="none" stroke-width="0" stroke-linecap="butt"/><path d="" fill="#191919" stroke="none" stroke-width="0" stroke-linecap="butt"/><path d="" fill="#0c0c0c" stroke="none" stroke-width="0" stroke-linecap="butt"/><path d="" fill="#727272" stroke="none" stroke-width="0" stroke-linecap="butt"/><path d="" fill="#8a8a8a" stroke="none" stroke-width="0" stroke-linecap="butt"/><path d="" fill="#9e9e9e" stroke="none" stroke-width="0" stroke-linecap="butt"/><path d="M219.5087,-15.34757c0.11188,-7.31517 1.94801,-17.04681 1.94801,-17.04681c0,0 3.39933,0.27993 14.14845,-1.82074c8.25815,-1.61389 21.349,-7.51129 21.349,-7.51129c0,0 -2.43328,2.7884 -3.81245,4.11963c-1.46621,1.41525 -4.40464,4.16692 -4.40464,4.16692c0,0 7.96016,-0.92253 15.05472,-3.3272c8.86311,-2.71364 11.11519,-5.0293 13.32518,-3.35348c2.60833,1.97788 -1.15636,23.17674 -1.98966,28.68067c-0.95332,5.60437 -3.41609,9.2191 -4.3147,12.16846c-0.89861,2.94936 -0.98533,6.07083 -3.70601,15.76087c-1.69789,6.04725 -4.9833,8.49335 -11.35475,13.65275c-6.37145,5.15941 -9.88442,8.35958 -13.83314,8.05558c-3.8001,-0.29256 -8.41598,-5.91854 -12.89642,-11.64789c-4.77092,-6.10084 -8.03767,-9.27477 -8.2475,-15.98693c-0.18898,-6.04501 0.15946,-9.93763 0.31743,-15.28633c0.11545,-3.90922 -1.64458,-6.62925 -1.58349,-10.6242z" fill="#000000" stroke="#000000" stroke-width="1.5" stroke-linecap="butt"/><path d="M214.73884,-16.20009l2.91072,-30.78991l64.43889,6.09173l-2.91072,30.78991z" fill="#000000" stroke="#000000" stroke-width="1.9" stroke-linecap="butt"/><path d="M215.50944,-0.72631l1.58011,-16.71453l58.94069,5.57195l-1.58011,16.71453z" fill="url(#color-7)" stroke="#000000" stroke-width="0" stroke-linecap="butt"/><path d="M249.53878,-12.89532c0.84915,-6.21133 6.74858,-10.76384 13.5326,-10.12251c6.784,0.64133 11.3533,6.17804 10.76328,12.41933c-0.59002,6.24127 -6.05118,11.10338 -13.47641,10.49261c-7.06276,-0.58093 -11.70628,-6.30261 -10.81947,-12.78941z" fill="url(#color-8)" stroke="#000000" stroke-width="0" stroke-linecap="butt"/><path d="M253.4885,-12.49061c0.40462,-4.2801 4.20231,-7.42177 8.48241,-7.01715c4.2801,0.40462 7.42178,4.20231 7.01716,8.48241c-0.40462,4.2801 -4.2023,7.42178 -8.48241,7.01716c-4.28009,-0.40462 -7.42177,-4.20231 -7.01715,-8.48241z" fill="#ffffff" stroke="none" stroke-width="1.5" stroke-linecap="butt"/><path d="M212.85434,242.94454c0,0 -0.1398,3.26916 0.25461,4.30505c0.39441,1.03589 3.04467,4.31181 3.35068,6.98148c0.4171,3.63881 0.5095,7.33141 1.66248,11.55179c1.32624,3.43482 4.08355,8.69143 2.76494,9.98472c-1.09805,1.07697 -3.73005,-1.70656 -4.62215,-3.23156c-0.98498,-1.68378 -1.6432,-4.77164 -1.74885,-5.12308c-0.26043,-0.86629 -1.05663,-1.66139 -1.48034,-2.42745c-0.31637,-0.57201 -0.38483,-0.29869 -0.38483,-0.29869c0,0 0.01227,0.66282 0.04976,2.18977c0.02629,1.07091 0.29746,2.41103 0.38184,3.35951c0.10319,1.16005 0.18788,2.9243 0.36138,3.93685c0.07589,0.44292 0.44245,1.31699 0.75225,2.20706c0.33768,0.97017 0.62089,1.95883 0.71659,2.41598c0.58826,2.81022 1.70604,4.24842 2.22433,5.75896c0.28565,0.83252 0.31796,2.50974 -0.0523,3.24882c-0.44077,0.87984 -1.21775,0.89164 -1.21775,0.89164c0,0 -0.39357,1.30041 -1.56718,1.1624c-1.32651,-0.15598 -2.92052,-2.03158 -2.92052,-2.03158c0,0 -0.72094,0.49101 -1.74686,-0.44105c-0.56466,-0.513 -1.81042,-2.87288 -1.81042,-2.87288c0,0 -0.78177,0.35214 -1.66173,-0.90843c-0.90363,-1.29446 -1.55897,-2.92739 -2.32013,-4.9941c-0.44424,-1.20622 -1.34726,-3.05951 -2.04159,-5.05524c-0.49532,-1.42371 -1.10667,-2.91992 -1.14728,-4.30541c-0.04721,-1.92289 0.05375,-3.64792 -0.06381,-5.27276c-0.30579,-4.22624 -0.26224,-7.3694 0.42819,-10.72362c0.34147,-1.65893 1.09297,-3.26387 1.54318,-5.28484c0.27587,-1.23837 0.33453,-5.20058 0.33453,-5.20058" fill="#ffffff" stroke="#000000" stroke-width="2" stroke-linecap="butt"/><path d="M200.10249,138.73019c0,0 -1.55359,-10.99339 -1.01141,-22.23394c0.14784,-3.06501 9.16187,11.60753 14.15765,-3.71587c4.98587,-15.29302 5.95368,-60.58509 5.95368,-60.58509c0,0 3.22126,-5.71205 3.77009,5.94695c0.7217,15.33131 -0.67095,50.08356 4.93046,61.41141c2.8802,5.82469 10.1762,5.52898 14.4028,5.71037c4.69947,0.20169 18.69616,-1.10563 21.6891,-10.16889c5.07148,-15.35757 -2.15255,-43.63172 0.54054,-56.58437c1.52774,-7.3478 5.24725,-4.30096 5.24725,-4.30096c0,0 0.66213,43.82405 4.83224,61.55332c3.25648,13.845 11.86334,1.88441 11.94297,3.25721c0.80674,13.90886 -1.05397,20.31037 -1.05397,20.31037c0,0 -0.38945,8.26237 -1.20049,11.85835c-1.00277,4.4461 -4.36391,12.81319 -4.36391,12.81319c0,0 -1.42335,-11.1233 -2.1904,-14.35897c-0.43266,-1.82509 -2.01505,-3.38102 -2.01505,-3.38102c0,0 -0.02415,6.25532 -0.74869,8.78793c-0.86351,3.01839 -4.08899,8.12211 -4.08899,8.12211c0,0 0.2051,-7.14767 -1.31392,-9.81471c-1.51447,-2.65904 -7.78658,-6.16363 -7.78658,-6.16363c0,0 1.54756,5.82921 0.3633,9.07877c-1.18426,3.24955 -7.7039,11.06349 -7.7039,11.06349c0,0 1.95191,-6.67675 1.64326,-8.91493c-0.36291,-2.6316 -3.6844,-5.88635 -3.6844,-5.88635c0,0 -2.52441,10.78468 -3.2311,12.10896c-1.73768,3.2563 -7.73647,8.44356 -7.73647,8.44356c0,0 1.7844,-8.64817 1.92273,-12.2704c0.13335,-3.49197 -1.10713,-9.08655 -1.10713,-9.08655l-11.93023,19.77943l-3.36241,-17.88985l-2.91129,11.68373c0,0 -8.46786,9.61801 -9.88828,10.03862c-1.75982,0.52112 3.11566,-6.82202 3.86345,-12.17553c0.6699,-4.79588 -2.86141,-7.63928 -2.86141,-7.63928l-9.95688,20.73454z" fill="#420000" stroke="#000000" stroke-width="0" stroke-linecap="butt"/><g stroke="none" stroke-width="0" stroke-linecap="butt"><path d="M201.09567,92.42515c-5.66727,-0.16948 -4.51738,-7.94169 -0.60602,-8.61456c12.19214,-2.09739 52.21035,-7.03516 85.74804,-6.03226c5.72108,0.17108 4.80146,7.89283 0.60602,8.61456c-12.19398,2.09771 -52.21605,7.03499 -85.74803,6.03225z" fill="#cacaca"/><path d="M200.94284,92.43589c-2.21769,-0.06632 26.18505,-2.57908 50.43822,-6.78505c7.27945,-1.2624 -35.57707,2.0537 -29.95411,0.55284c7.11685,-1.89961 62.05997,-8.49229 64.6579,-8.4146c5.72108,0.17109 4.80147,7.89283 0.60602,8.61456c-12.19398,2.0977 -52.21604,7.03498 -85.74803,6.03225z" fill="#b3b3b3"/></g><path d="M278.16228,27.45638c0,0 -3.13344,33.77299 -35.50957,35.28113c-27.40913,1.27677 -36.42376,-34.84986 -36.42376,-34.84986" fill="none" stroke="#000000" stroke-width="3" stroke-linecap="round"/><g stroke="#000000" stroke-width="0" stroke-linecap="butt"><path d="M278.90316,54.58047c0,5.86474 1.23062,16.40968 -6.44249,21.1662c-6.27706,3.89112 -50.62503,5.28404 -56.52727,2.147c-9.02593,-4.79726 -7.48377,-16.60377 -7.48377,-23.05054c0,-6.04418 4.79419,-13.60782 13.24604,-13.56508c2.21912,0.01122 9.04466,-0.40926 12.18105,1.10283c5.99098,2.88831 10.19697,8.12823 10.19697,8.12823c0,0 3.89739,-4.72079 9.49582,-7.43969c4.2583,-2.06806 10.05886,-2.3137 12.62099,-2.31767c7.55536,-0.01168 12.71266,7.85519 12.71266,13.8287z" fill="#cc1414"/><path d="M273.60589,43.37333c4.86829,2.42586 6.27783,12.8562 5.08306,20.97476c-0.85281,5.79489 -3.03248,10.81842 -6.2283,12.7995c-6.27706,3.89112 -50.88989,3.83936 -56.79213,0.70233c-0.23267,-0.12366 16.86318,-0.3764 31.82145,-9.25304c3.88252,-2.30399 -28.81961,-5.38307 -25.65174,-7.8094c2.993,-2.29239 16.53696,-3.2289 25.01025,-6.02102c14.94331,-4.92413 26.68096,-11.43123 26.75742,-11.39313z" fill="#a10000"/></g><path d="M316.27759,144.22159c-0.25,0 -0.25,-0.25 -0.25,-0.25l0.04199,-0.26368c0.08334,-0.125 0.16666,-0.25 0.25,-0.375c0,0 0.13868,-0.20801 0.34669,-0.06934c0.20801,0.13868 0.06934,0.34669 0.06934,0.34669c-0.08334,0.125 -0.16666,0.25 -0.25,0.375l0.04199,-0.01368c0,0 0,0.25 -0.25,0.25z" fill="#ff8383" stroke="none" stroke-width="0.5" stroke-linecap="butt"/><g fill="#964d4d" stroke="none" stroke-linecap="butt"><path d="M315.29008,139.89658c0,-3.00995 2.44005,-5.45 5.45,-5.45c3.00995,0 5.45,2.44005 5.45,5.45c0,3.00995 -2.44005,5.45 -5.45,5.45c-3.00995,0 -5.45,-2.44005 -5.45,-5.45z" stroke-width="NaN"/><path d="M315.09009,144.49659c0,-3.00995 2.44005,-5.45 5.45,-5.45c3.00995,0 5.45,2.44005 5.45,5.45c0,3.00995 -2.44005,5.45 -5.45,5.45c-3.00995,0 -5.45,-2.44005 -5.45,-5.45z" stroke-width="NaN"/><path d="M317.99009,149.69655c0,-3.00995 2.44005,-5.45 5.45,-5.45c3.00995,0 5.45,2.44005 5.45,5.45c0,3.00995 -2.44005,5.45 -5.45,5.45c-3.00995,0 -5.45,-2.44005 -5.45,-5.45z" stroke-width="NaN"/><path d="M323.69009,151.09659c0,-3.00995 2.44005,-5.45 5.45,-5.45c3.00995,0 5.45,2.44005 5.45,5.45c0,3.00995 -2.44005,5.45 -5.45,5.45c-3.00995,0 -5.45,-2.44005 -5.45,-5.45z" stroke-width="NaN"/><path d="M319.09009,136.09659c0,-3.00995 2.44005,-5.45 5.45,-5.45c3.00995,0 5.45,2.44005 5.45,5.45c0,3.00995 -2.44005,5.45 -5.45,5.45c-3.00995,0 -5.45,-2.44005 -5.45,-5.45z" stroke-width="NaN"/></g><path d="M319.09789,133.83037c0.35202,-0.998 2.21262,-0.78478 2.86897,-0.12842c0.38183,0.39446 0.65813,1.97427 1.11889,2.14581c2.42958,0.90452 4.22184,-0.75448 5.14764,2.68841c-1.76909,1.90084 -6.1176,-1.5818 -6.79519,1.07311c0.00194,0.54924 -0.09643,2.68175 -1.0249,2.14623c-0.45083,-0.26002 -1.27112,-3.33101 -1.27322,-3.87678c-0.00089,-0.2311 0.58113,-0.72114 0.70511,-0.94973c-0.50204,-0.19152 -2.69634,-0.59465 -2.89603,-1.18353c-0.22645,-0.66778 1.2154,-1.60756 2.14873,-1.91509z" fill="#7d2727" stroke="none" stroke-width="0.5" stroke-linecap="butt"/><path d="M320.84009,145.87873c0,-0.18021 0.1299,-0.23052 0.20243,-0.24456c0.04137,-0.20308 0.21796,-0.35532 0.64757,-0.40544c0,0 0.25,0 0.25,0.25c0,0.05667 -0.01284,0.10049 -0.03271,0.13438c2.35736,-0.11595 5.67065,-0.73584 4.50288,2.78812c-0.25381,0.57098 -1.28883,1.20374 -1.94111,1.41467c-0.19723,0.06378 -1.5608,-0.16667 -1.69563,0.03269c-0.43384,0.64148 -0.02017,2.2962 -0.93125,2.57463c-0.45596,0.13935 -1.06694,-0.50093 -1.3726,-0.72653c-0.09436,-1.33318 0.01948,-2.43224 0.38039,-3.68786c0.06307,-0.21941 0.63112,-0.96812 0.59224,-1.09692c-0.07121,-0.23591 -0.22666,-0.51758 -0.32429,-0.78318h-0.02792c0,0 -0.25,0 -0.25,-0.25z" fill="#7d2727" stroke="none" stroke-width="0.5" stroke-linecap="butt"/><path d="M333.32921,155.53976c0.74372,0.69203 0.80765,2.90422 0.80765,3.47901c-0.20538,0.61615 0.32679,2.86989 -0.63124,2.90947c-2.03836,0.08423 0.30413,-3.70003 -2.21553,-3.69952c-0.15777,0 -0.68837,0.01518 -0.77678,-0.07322c-0.13339,-0.13339 0.11763,-0.73836 0.04534,-0.56411c-0.23461,0.56556 -1.38052,0.43305 -1.67138,0.03351c-1.24643,-1.71212 -0.17763,-3.98151 1.98187,-3.28335c1.30102,0.45064 2.34333,-0.46873 2.46006,1.19821z" fill="#7d2727" stroke="none" stroke-width="0.5" stroke-linecap="butt"/><path d="M330.64775,146.32377c-0.01757,0.00321 -0.03674,0.00496 -0.05766,0.00496c-0.25,0 -0.25,-0.25 -0.25,-0.25l0.07322,-0.27678c0.39043,-0.35305 0.60974,-0.28031 1.12295,-0.22603c0.19713,0.5914 2.26662,0.29495 2.78479,1.40714c0.10605,0.22762 -0.06406,1.02041 -0.26111,1.1791c-0.37743,0.30396 -1.02142,-0.0563 -1.32368,0.21938c-0.5455,0.49752 -0.46738,1.20398 -0.81521,1.79286c-0.12467,0.51204 -0.22727,1.27144 -1.08947,0.89766c-0.809,-0.35071 -0.6952,-3.50479 -0.18384,-4.7483z" fill="#7d2727" stroke="none" stroke-width="0.5" stroke-linecap="butt"/><path d="M341.2348,146.9692c0.0024,-0.03902 0.01605,-0.08234 0.04728,-0.12918c0.13868,-0.20801 0.34669,-0.06934 0.34669,-0.06934l0.31982,0.21468c0.56487,0.56042 0.74288,1.14394 -0.08172,1.57011c-0.67376,1.47358 -0.32191,3.80171 -1.16411,5.05466c-0.92837,1.38114 -1.77454,-0.61071 -1.54342,-1.52763c0.76565,-1.27885 -0.21217,-4.70182 2.07546,-5.1133z" fill="#7d2727" stroke="none" stroke-width="0.5" stroke-linecap="butt"/><path d="M341.80403,158.15088c0.13606,0.06118 0.13606,0.22783 0.13606,0.22783c-0.00136,0.04711 -0.0038,0.09469 -0.00724,0.14269c0.00753,0.03547 0.01646,0.10862 -0.01663,0.17601c-0.11262,0.97052 -0.56603,2.08398 -0.5762,2.98725c-0.01261,1.12033 0.6117,2.11912 0.26762,3.41723c-0.40741,0.42309 -0.27891,2.19348 -1.06728,2.22172c-1.88381,0.06747 -1.16606,-4.35197 -1.09623,-5.48562c0.41006,-1.27402 1.8575,-2.05849 1.9022,-3.28778l-0.1776,-0.35519c-0.01829,-0.03474 -0.02864,-0.07431 -0.02864,-0.1163c0,-0.13807 0.11193,-0.25 0.25,-0.25c0.06904,0 0.13154,0.02798 0.17678,0.07322l0.2,0.2l-0.01879,0.01879c0.01823,0.00885 0.03645,0.0177 0.05468,0.02655z" fill="#7d2727" stroke="none" stroke-width="0.5" stroke-linecap="butt"/></g></g></svg>