<svg version="1.1" xmlns="http://www.w3.org/2000/svg" xmlns:xlink="http://www.w3.org/1999/xlink" width="114.77545" height="308.72163" viewBox="0,0,114.77545,308.72163"><defs><radialGradient cx="260.23295" cy="117.72" r="10.30169" gradientUnits="userSpaceOnUse" id="color-1"><stop offset="0" stop-color="#000000"/><stop offset="1" stop-color="#000000" stop-opacity="0"/></radialGradient><radialGradient cx="229.56028" cy="101.10988" r="13.3471" gradientUnits="userSpaceOnUse" id="color-2"><stop offset="0" stop-color="#970000"/><stop offset="1" stop-color="#ec0000"/></radialGradient><radialGradient cx="267.75067" cy="70.27729" r="5.53504" gradientUnits="userSpaceOnUse" id="color-3"><stop offset="0" stop-color="#970000"/><stop offset="1" stop-color="#ec0000"/></radialGradient><linearGradient x1="241.92169" y1="-697.60738" x2="241.92169" y2="689.59001" gradientUnits="userSpaceOnUse" id="color-4"><stop offset="0" stop-color="#ff0000"/><stop offset="1" stop-color="#ff0000" stop-opacity="0"/></linearGradient></defs><g transform="translate(-187.60861,-1.82836)"><g data-paper-data="{&quot;isPaintingLayer&quot;:true}" fill-rule="nonzero" stroke-linejoin="miter" stroke-miterlimit="10" stroke-dasharray="" stroke-dashoffset="0" style="mix-blend-mode: normal"><path d="M190.72781,308.83549c0,0 5.31399,-111.57556 5.14341,-137.87558c-0.05886,-9.07451 8.83952,-40.91827 43.4068,-41.09615c17.43477,-0.08972 28.28792,8.48128 34.73233,17.98609c-0.32762,1.45244 -0.64028,2.9159 -1.01643,4.31226c-0.95708,2.31527 -1.90327,4.61676 -2.71645,6.98672c-0.111,0.32351 -0.8114,1.90439 -0.50726,2.18014c0.14459,0.13109 1.056,-0.24764 1.23269,-0.31394c1.26179,-1.05802 2.85048,-2.09765 3.88303,-3.41701c-0.0285,0.67403 0.18839,1.52403 0.23809,2.05766c0.21585,2.31727 0.48795,4.63213 0.54749,6.95901c0.08947,3.49661 0.21283,6.99378 0.22339,10.49157c0.00101,0.33333 0.00353,1.16657 0.00454,1.4999c0,0.00003 0,0.00007 0,0.0001c0.00041,0.13772 0.11218,0.24924 0.25,0.24924c0.07491,0 0.14213,-0.03295 0.18795,-0.08515l0.33076,-0.37326l-0.10338,-0.0916c1.4599,-2.02812 1.70058,-7.06158 2.33033,-9.23602c0.34791,-1.20134 0.97768,-2.30297 1.39182,-3.4678c0.05867,0.75878 0.30899,1.62493 0.3896,2.21865c0.29503,2.17296 0.46909,4.24141 0.47042,6.4347c0.00212,3.50477 0.05831,7.00125 0.15525,10.50466c0.08632,3.11973 -0.05925,6.43503 0.53899,9.50193l0.05271,0.48627c0.01208,0.12681 0.11889,0.226 0.24886,0.226c0.08994,0 0.16877,-0.04749 0.21282,-0.11875l0.26727,-0.41763l-0.03695,-0.02365c0.0351,-0.04326 0.06984,-0.08705 0.10423,-0.13136c0.07069,2.28376 0.14997,4.59387 0.23691,6.92326c1.83481,49.15955 7.08292,106.90752 7.08292,106.90752l-15.33344,0.44034c0,0 -0.02526,-17.07387 -0.04361,-31.41953c-0.03143,-24.56274 -3.12787,-102.59545 -3.12787,-102.59545c0,0 0.08151,-3.44977 -3.04075,-3.51082c-3.70819,-0.0725 -3.18018,3.46794 -3.18018,3.46794l0.22186,134.04487l-52.05712,0.08039l-0.32973,-134.44907c0,0 0.30177,-3.24908 -3.11563,-3.26625c-3.35882,-0.01687 -3.04015,3.23794 -3.04015,3.23794c0,0 -3.10599,81.3947 -3.0371,105.65622c0.03691,12.99757 1.41836,28.60775 1.41836,28.60775z" fill="#ffffff" stroke="#000000" stroke-width="2" stroke-linecap="butt"/><path d="M194.44264,160.53009c0.1713,-3.28432 1.77468,-7.28312 1.92772,-8.87799c0.3658,-3.81186 10.384,-6.21146 10.384,-6.21146l65.50284,-1.46872c0,0 1.01874,0.5357 2.3567,1.36532c-0.58832,2.23655 -1.02462,4.61478 -1.61998,6.82491c-0.95708,2.31527 -1.90327,4.61676 -2.71645,6.98672c-0.111,0.32351 -0.8114,1.90439 -0.50726,2.18014c0.14459,0.13109 1.056,-0.24764 1.23269,-0.31394c1.26179,-1.05802 2.85048,-2.09765 3.88303,-3.41701c-0.0285,0.67403 0.18839,1.52403 0.23809,2.05766c0.21585,2.31727 0.48795,4.63213 0.54749,6.95901c0.08947,3.49661 0.21283,6.99378 0.22339,10.49157c0.00101,0.33333 0.00353,1.16657 0.00454,1.4999c0,0.00003 0,0.00007 0,0.0001c0.00041,0.13772 0.11218,0.24924 0.25,0.24924c0.07491,0 0.14213,-0.03295 0.18795,-0.08515l0.33076,-0.37326l-0.10338,-0.0916c1.4599,-2.02812 1.70058,-7.06158 2.33033,-9.23602c0.34791,-1.20134 0.97768,-2.30297 1.39182,-3.4678c0.05867,0.75878 0.30899,1.62493 0.3896,2.21865c0.29503,2.17296 0.46909,4.24141 0.47042,6.4347c0.00212,3.50477 0.05831,7.00125 0.15525,10.50466c0.08632,3.11973 -0.05925,6.43503 0.53899,9.50193l0.05271,0.48627c0.01208,0.12681 0.11889,0.226 0.24886,0.226c0.08994,0 0.16877,-0.04749 0.21282,-0.11875l0.26727,-0.41763l-0.03695,-0.02365c0.77707,-0.95771 1.37636,-2.17638 1.90845,-3.45665c0.46301,11.2619 0.95733,24.13138 1.43975,37.14329c-0.38577,0.59154 -0.75351,1.19612 -1.09748,1.81823c-1.12904,2.04199 -2.25808,4.08397 -3.38712,6.12596c-0.2775,0.50189 -0.81165,1.22995 -1.01905,1.89066c-0.36426,-1.67476 -0.5734,-3.33567 -0.7717,-5.04498c-0.40319,-3.47539 -0.71677,-6.97616 -1.24779,-10.43426c-0.39487,-2.57148 -0.28692,-6.9781 -1.6775,-9.38512l0.06294,-0.03168l-0.22235,-0.44181c-0.04021,-0.08424 -0.12618,-0.14243 -0.22574,-0.14243c-0.12711,0 -0.23207,0.09487 -0.24793,0.21766l-0.07152,0.49109c-0.26405,1.81307 -0.5312,3.62389 -0.83237,5.4312c-0.57532,3.45247 -1.15363,6.90446 -1.72547,10.35751c-0.4619,2.78918 -1.5237,6.09988 -1.67635,8.92522c-0.19869,-0.86732 -0.37072,-1.73165 -0.51984,-2.6113c-0.58704,-3.46295 -1.29286,-6.8779 -2.05286,-10.30686c-0.75718,-3.41628 -1.34152,-6.85857 -1.94883,-10.30437c-0.10005,-0.56771 -0.4171,-4.47656 -0.92028,-4.62129c-0.86158,-0.24783 -0.74546,0.68532 -0.75389,1.01963c-0.04197,1.66416 -0.00059,3.3349 -0.00089,4.99967c-0.00939,3.48521 0.11748,7.00222 -0.13019,10.47877c-0.20774,2.9161 -0.31843,5.89598 -0.48694,8.77166c-0.02193,0.3743 -0.28495,-0.69367 -0.42174,-1.04277c-0.28605,-3.49447 -0.6667,-6.9414 -1.1924,-10.40752c-0.52401,-3.45497 -0.80761,-6.94509 -1.16309,-10.42123c-0.06343,-0.62027 -0.69563,-5.34789 -1.98108,-4.73138c-0.15226,0.07302 -0.12748,1.02823 -0.12818,1.21523c-0.00563,1.49964 -0.06276,2.98589 -0.14616,4.48316c-0.19632,3.52448 -0.37847,6.92221 -1.07104,10.38612c-0.68486,3.42534 -1.32599,6.81264 -1.75958,10.27854c-0.05361,-0.51044 -0.28339,-2.15069 -0.35346,-2.6187c-0.32268,-2.15526 -0.9606,-4.23638 -1.52617,-6.33988c-0.91005,-3.38469 -1.96081,-6.72253 -2.98476,-10.07425c-0.13264,-0.43419 -0.44336,-2.33664 -0.84133,-2.53251c-0.87698,-0.43162 -1.26017,1.03858 -1.51208,1.54322c-0.9034,1.80976 -1.78886,3.58113 -2.49481,5.47769c-1.22095,3.28014 -2.4419,6.56027 -3.66285,9.8404c-0.79662,2.14812 -1.08949,4.61172 -1.5674,6.85378c-0.04627,0.21707 -0.88383,1.96737 -0.94512,1.96357c-0.26244,-0.01622 -0.11516,-0.51827 -0.23143,-0.75412c-1.45253,-3.22075 -2.74457,-6.35905 -3.80513,-9.73026c-1.05492,-3.35332 -2.2707,-6.61831 -3.52521,-9.90175c-0.50256,-1.31536 -1.66137,-6.06056 -3.45517,-6.23492c-0.9796,-0.09521 -1.3699,2.61033 -1.5779,3.29893c-1.00973,3.34272 -2.33154,6.58873 -3.55739,9.85797c-1.22887,3.2773 -2.45482,6.55566 -3.67962,9.83447c-0.81033,2.16925 -1.73562,4.39091 -2.29963,6.63985c-0.14222,0.56712 -0.13716,2.6757 -0.6024,2.9266c0.77698,-2.83604 -0.39159,-7.38883 -0.76172,-10.29591c-0.43922,-3.44977 -0.65174,-7.03329 -1.42713,-10.42292c-0.15519,-0.67841 -0.94356,-5.68018 -2.17676,-4.07372c-0.71208,0.92761 -0.34469,3.99662 -0.97034,5.34031c-1.4863,3.19208 -3.00231,6.32877 -4.16709,9.6532c-1.14331,3.26314 -2.08288,6.71499 -3.63779,9.80381c-0.58575,1.16358 -1.22277,3.48216 -2.13945,4.35623c-0.20679,0.19718 -0.35694,-1.23988 -0.37934,-1.37446c-0.19139,-1.1498 -0.36944,-2.30083 -0.54234,-3.45355c-0.51997,-3.46662 -0.92997,-6.91701 -1.26375,-10.40642c-0.28725,-3.00304 -0.27052,-6.5365 -1.42727,-9.40339l0.02924,-0.00652l-0.10761,-0.48323c-0.02298,-0.11434 -0.12398,-0.20047 -0.24509,-0.20047c-0.11087,0 -0.20489,0.07217 -0.23763,0.17209l-0.16483,0.46589c-0.90431,2.556 -2.85365,4.94569 -4.39742,7.16516c-0.63205,0.90869 -1.2641,1.81739 -1.89615,2.72608c0.47024,-29.40716 1.10122,-59.61202 1.85927,-74.14602z" fill="#111111" stroke="none" stroke-width="0" stroke-linecap="butt"/><path d="M286.96317,227.8152c-0.72735,0.62708 -1.41487,1.27417 -1.8822,2.01296c-0.42266,1.04337 -1.03859,2.26528 -1.75067,3.4604c-0.04142,-14.65431 -0.16898,-28.73451 -0.30209,-39.47386c1.08974,-1.61478 1.81327,-3.74987 2.5689,-5.68708c0.67903,16.73489 1.20617,34.21723 1.36606,39.68759z" data-paper-data="{&quot;index&quot;:null}" fill="#070707" stroke="none" stroke-width="0" stroke-linecap="butt"/><path d="M272.97702,144.71392c0,0 0.61005,0.38184 1.53787,1.0064c-0.1473,0.57981 -0.28569,1.16785 -0.42048,1.75883c-0.68439,-1.73693 -1.11739,-2.76523 -1.11739,-2.76523z" data-paper-data="{&quot;index&quot;:null}" fill="#070707" stroke="none" stroke-width="0" stroke-linecap="butt"/><path d="M280.28694,165.6017c0.00291,0.03763 0.00629,0.07552 0.0101,0.11363c-0.00737,-0.02665 -0.01475,-0.05329 -0.02214,-0.07994c0.00403,-0.01122 0.00805,-0.02246 0.01205,-0.03369z" data-paper-data="{&quot;index&quot;:null}" fill="#070707" stroke="none" stroke-width="0" stroke-linecap="butt"/><path d="M191.42237,229.65738c0,0 1.79427,-63.87246 3.42158,-75.3076c0.46521,-3.26898 8.45531,-8.15169 8.45531,-8.15169c0,0 -7.46066,21.39501 -7.68394,33.62363c-0.17283,9.4655 -0.4305,29.74688 -0.50378,51.59151c-0.44167,0.63659 -0.88941,1.27084 -1.31606,1.91546c-0.78873,0.98987 -1.58143,1.97706 -2.37311,2.96519z" fill="#070707" stroke="none" stroke-width="0" stroke-linecap="butt"/><path d="M255.6773,186.49209c-0.61666,0 -1.11655,-0.51535 -1.11655,-1.15105c0,-0.63571 0.4999,-1.15107 1.11655,-1.15107c0.61666,0 1.11655,0.51536 1.11655,1.15107c0,0.63571 -0.4999,1.15105 -1.11655,1.15105z" fill="#000000" stroke="none" stroke-width="1.5" stroke-linecap="butt"/><path d="M249.99813,191.20664c-4.81932,-0.34994 -7.07479,-1.99678 -6.66169,-2.87187c0.12728,-0.26963 3.07336,1.18381 7.52604,1.45235c6.91988,0.41733 9.18875,-0.70317 9.18875,-0.70317v1.49838c0,0 -2.6059,1.16508 -10.0531,0.62431z" fill="#000000" stroke="#000000" stroke-width="0" stroke-linecap="butt"/><path d="M219.96822,185.34104c0,-0.63571 0.4999,-1.15107 1.11655,-1.15107c0.61666,0 1.11657,0.51536 1.11657,1.15107c0,0.63571 -0.49991,1.15105 -1.11657,1.15105c-0.61666,0 -1.11655,-0.51535 -1.11655,-1.15105z" fill="#000000" stroke="none" stroke-width="1.5" stroke-linecap="butt"/><path d="M226.76394,191.20664c-7.4472,0.54079 -10.0531,-0.62431 -10.0531,-0.62431v-1.49838c0,0 2.26887,1.1205 9.18875,0.70317c4.45268,-0.26854 7.39877,-1.72198 7.52605,-1.45235c0.4131,0.87508 -1.84236,2.52192 -6.66169,2.87187z" fill="#000000" stroke="#000000" stroke-width="0" stroke-linecap="butt"/><path d="M238.94365,260.33868c-0.88423,0 -1.60105,-0.73896 -1.60105,-1.65052c0,-0.91155 0.71681,-1.65052 1.60105,-1.65052c0.88423,0 1.60105,0.73896 1.60105,1.65052c0,0.91155 -0.71681,1.65052 -1.60105,1.65052z" data-paper-data="{&quot;index&quot;:null}" fill="#000000" stroke="none" stroke-width="1.5" stroke-linecap="butt"/><path d="M212.96214,308.51822v-138.8662c0,0 0.81757,-10.83144 0.81757,-16.29479c0,-5.00664 -0.81757,-15.23496 -0.81757,-15.23496c0,0 2.88629,-2.61904 5.02684,-4.17191c2.14055,-1.55285 5.58427,-3.12075 5.58427,-3.12075c0,0 -0.64956,36.29646 15.72016,36.21815c16.66519,-0.07972 14.93415,-36.21815 14.93415,-36.21815c0,0 4.22467,1.69143 6.65737,3.27975c2.4327,1.58831 5.13275,4.01291 5.13275,4.01291c0,0 -0.81757,10.49037 -0.81757,15.79685c0,5.38946 0.81757,16.29479 0.81757,16.29479v138.30432z" fill="#000000" stroke="#000000" stroke-width="2" stroke-linecap="butt"/><path d="M256.49333,159.94457c0,5.78877 -8.01648,10.48151 -17.90531,10.48151c-9.88883,0 -17.90532,-4.69274 -17.90532,-10.48151c0,-5.78877 8.01649,-10.4815 17.90532,-10.4815c9.88883,0 17.90531,4.69273 17.90531,10.4815z" fill="#e6e6e6" stroke="none" stroke-width="0" stroke-linecap="butt"/><path d="M271.24946,150.2979c0,5.78877 -6.44542,10.48151 -14.39623,10.48151c-7.95082,0 -14.39623,-4.69274 -14.39623,-10.48151c0,-5.78877 6.44542,-10.4815 14.39623,-10.4815c7.95081,0 14.39623,4.69273 14.39623,10.4815z" fill="#ffffff" stroke="none" stroke-width="0" stroke-linecap="butt"/><path d="M233.45935,148.81382c0,5.78877 -6.44542,10.48151 -14.39623,10.48151c-7.95082,0 -14.39623,-4.69274 -14.39623,-10.48151c0,-5.78877 6.44542,-10.4815 14.39623,-10.4815c7.95082,0 14.39623,4.69273 14.39623,10.4815z" fill="#ffffff" stroke="none" stroke-width="0" stroke-linecap="butt"/><path d="M224.10181,138.42505c0,5.78877 -4.99519,10.48151 -11.15707,10.48151c-6.16188,0 -11.15709,-4.69274 -11.15709,-10.48151c0,-5.78877 4.9952,-10.4815 11.15709,-10.4815c6.16188,0 11.15707,4.69273 11.15707,10.4815z" fill="#e6e6e6" stroke="none" stroke-width="0" stroke-linecap="butt"/><path d="M275.02847,138.98155c0,5.78877 -4.99519,10.48151 -11.15707,10.48151c-6.16188,0 -11.15707,-4.69274 -11.15707,-10.48151c0,-5.78877 4.9952,-10.4815 11.15707,-10.4815c6.16188,0 11.15707,4.69273 11.15707,10.4815z" fill="#e6e6e6" stroke="none" stroke-width="0" stroke-linecap="butt"/><path d="M261.46002,310.16256c-0.80979,0 -0.80979,-0.83481 -0.80979,-0.83481l0.04156,-0.10704c-1.51606,-4.68875 -4.43806,-8.40483 -5.77839,-13.42916c-0.64054,-2.40115 0.35254,-5.23086 0.33824,-7.61233c0,-0.51136 0.25357,-5.01309 -0.27218,-5.18975c-2.12065,-0.71257 -4.2592,3.78432 -6.49826,2.58654c-0.79655,-0.42612 -1.24597,-1.90508 -1.4751,-2.72879c-0.80191,-2.88288 -0.93922,-7.91868 -0.02184,-10.75587c-0.01775,-2.29225 -0.43344,-4.19257 -0.72421,-6.44276c-0.04908,-0.3798 0.26672,-1.19172 -0.10214,-1.14466c-3.34914,0.42734 -6.54602,10.91087 -9.87189,5.17194c-0.28205,-0.4867 -0.49615,-1.01199 -0.73923,-1.52054c-0.49353,-1.03254 -0.79491,-2.19983 -0.80979,-3.3508c0,-8.85352 4.08935,-25.70643 0.05029,-34.09379c-0.1861,-2.10214 -2.04033,-0.3156 -3.26638,0.52452c-2.01423,1.38019 -5.57805,3.7355 -8.16091,2.5543c-4.00371,-1.83097 -0.12241,-8.97289 -0.13999,-11.90207c0,-2.42396 -0.0093,-8.33068 -2.09166,-10.02375c-0.20483,-0.16654 -2.27494,1.02793 -2.54715,1.14831c-2.53651,1.12173 -4.10121,2.55897 -5.34409,5.16748c0,0 -0.36215,0.74669 -1.08644,0.37335c-0.7243,-0.37334 -0.36215,-1.12002 -0.36215,-1.12002c1.77868,-3.61281 3.878,-4.61369 7.20672,-6.31301c1.02025,-0.52084 1.50921,-1.5049 2.89732,-0.72817c0.86655,0.48488 1.18356,1.83385 1.46585,2.69819c0.97901,2.99774 1.48118,5.64472 1.48118,8.79761c-0.01354,2.70997 -1.43963,5.10051 -1.43963,7.79156c0,0.42347 -0.21607,2.31995 0.57982,2.56797c3.90933,1.2183 10.4746,-7.63947 12.32648,-2.11555c4.19831,8.58771 0.05029,25.61955 0.05029,34.67307c-0.01501,0.89522 0.24516,1.80599 0.6388,2.60411c0.01424,0.02888 1.04708,2.74564 1.60451,2.51983c2.84024,-1.15055 3.78967,-8.2952 7.93012,-7.04952c2.44952,0.73695 2.06662,7.35748 2.0529,9.47981c-0.7294,2.25581 -1.312,9.90953 0.66248,11.74515c0.06516,0.06058 3.47931,-2.22068 3.75071,-2.30262c4.33321,-1.30806 3.87508,3.22707 3.87508,6.37788c-0.01092,2.18597 -1.01464,5.04676 -0.38156,7.22873c1.43208,4.93583 4.2257,8.60583 5.7386,13.28478l0.04155,0.63501c0,0 0,0.83481 -0.80979,0.83481z" fill="#ec0000" stroke="none" stroke-width="0.5" stroke-linecap="butt"/><path d="M256.78349,310.44545c-0.7243,0.37334 -1.08644,-0.37335 -1.08644,-0.37335l-0.20822,-0.52509c-2.29681,-2.36778 -3.44804,-6.86485 -3.47633,-10.237c0,-1.39834 0.49584,-6.11341 -0.74342,-7.11433c-1.29262,-1.04401 -3.57955,1.81662 -5.35813,0.77025c-3.85946,-2.27063 -3.53979,-9.25917 -3.65283,-13.07141c-0.16708,-0.86449 0.09533,-5.86575 -0.90281,-6.15616c-2.09544,-0.60969 -4.18336,1.32096 -5.85851,1.85514c-1.16403,0.37119 -3.51223,-0.06921 -4.61821,-0.62033c-3.09771,-1.54362 -2.97977,-5.3847 -2.97977,-8.68456c0,-4.21833 0.45824,-14.93072 -0.00352,-19.11807c-0.08105,-0.73498 -0.07331,-3.65187 -0.69213,-4.16648c-1.04329,-0.86762 -4.24129,1.3382 -5.0981,1.57296c-3.85489,1.05624 -4.75587,-2.4124 -5.33619,-5.40807c-1.42608,-4.5202 0.87566,-9.11602 0.24631,-13.66859c-0.03526,-0.25508 -0.35659,-3.06412 -0.65694,-3.30669c-1.17364,-0.94792 -2.81894,1.69142 -3.07714,2.55497c0,0 -0.25608,0.79197 -1.02431,0.52798c-0.76823,-0.26399 -0.51215,-1.05597 -0.51215,-1.05597c1.25216,-3.67123 5.52698,-5.37985 6.59283,-0.67929c1.13892,5.02281 -1.6124,10.35836 -0.00325,15.19907c0.17024,0.8762 0.40638,3.34294 1.16367,4.01541c2.11975,1.88235 6.11931,-3.17568 8.55676,-1.17202c1.55027,1.27437 0.92862,2.19888 1.09903,3.77277c0.52742,4.87107 0.36474,16.00365 0.36474,20.93204c0,3.15168 -0.30897,6.55687 2.97374,7.34973c0.32137,0.07762 1.89834,0.59931 2.38489,0.41263c1.83603,-0.70443 4.78355,-2.9324 7.09809,-1.85514c2.3592,1.09806 1.48147,5.39969 1.89188,7.50699c0.12426,3.69511 -0.14934,8.0846 2.26659,11.12698c1.73693,2.18731 3.77855,-1.74579 6.0825,0.0114c1.91823,1.463 1.41601,6.43519 1.41601,8.46879c-0.03099,2.90243 1.03259,7.02615 3.00197,9.0564l0.51159,0.959c0,0 0.36215,0.74668 -0.36215,1.12002z" fill="#ec0000" stroke="none" stroke-width="0.5" stroke-linecap="butt"/><path d="M231.98995,210.06609l0.53041,0.10036c0.89975,0.97715 2.29268,1.12652 3.1976,1.88203c2.02783,1.69305 2.08473,3.53215 2.05659,5.94957c-1.83945,3.84842 -4.29973,5.09849 -8.26477,3.56028c-1.0941,-0.42445 -1.52954,-0.31985 -2.20985,-1.45806c-1.11495,-1.86542 -0.48937,-6.0068 0.3006,-7.80786c0.57704,-1.3156 2.1416,-1.53316 3.05478,-2.49699c0,0 0.57261,-0.5903 1.14521,0c0.08821,0.09094 0.14926,0.18189 0.18939,0.27068z" fill="#ec0000" stroke="none" stroke-width="0.5" stroke-linecap="butt"/><path d="M244.74365,246.87839c3.13706,2.16939 3.89089,1.02876 3.82809,4.81209c-0.73049,1.54804 -2.75129,7.47005 -4.56104,7.99015c-2.26779,0.65175 -4.37881,-3.54492 -4.58882,-5.1628c-0.47515,-3.66043 -0.30509,-6.33932 2.95647,-7.8117z" fill="#ec0000" stroke="none" stroke-width="0.5" stroke-linecap="butt"/><path d="M215.50329,296.87998c1.38997,-5.96717 2.09966,-12.12602 2.7852,-18.26822c-0.94834,-1.39684 -2.01954,-2.66268 -3.32213,-3.07934c-0.47505,-0.69266 -1.6638,-1.26614 -1.42514,-2.07797c0.23494,-0.79918 1.49566,-0.66676 2.28592,-0.85015c0.98507,-0.2286 2.07214,-0.28602 3.18176,-0.27451c0.13991,-1.14583 0.28686,-2.28857 0.4452,-3.42684c0.22878,-1.64469 0.45345,-3.21436 0.49183,-4.87665l0.03512,-1.46596c0.00932,-0.45271 0.36823,-0.81674 0.8096,-0.81674c0.33666,0 0.62533,0.21179 0.7475,0.51317l0.65026,1.5083l-0.21918,0.10042c1.37516,2.68801 1.75565,5.57513 2.50004,8.62996c0.84008,-0.00138 2.05735,0.02124 2.19346,0.16549c1.26387,1.33952 0.80467,2.55132 0.57738,4.04334c-0.14289,0.93793 -0.35345,1.87184 -0.61313,2.80014c1.56386,4.42488 3.39003,8.77387 4.98333,13.16448c0.72026,1.48503 1.26734,2.98416 1.83046,4.53795l0.005,0.04749l0.00741,-0.00191l0.35551,1.46595c0.01864,0.07028 0.02858,0.14425 0.02858,0.22063c0,0.46106 -0.36255,0.83481 -0.80979,0.83481c-0.38537,0 -0.70788,-0.27753 -0.78972,-0.64928l-0.34741,-1.43258c-0.01015,-0.02787 -0.0203,-0.0557 -0.03045,-0.08352c-2.96602,-3.20841 -5.52785,-7.02916 -8.03536,-10.7614c-0.41528,0.94487 -0.8297,1.87862 -1.22083,2.79939c-1.74157,3.5905 -2.57481,7.3957 -4.93804,10.63735l-0.43072,1.16132c-0.11162,0.32337 -0.41115,0.55487 -0.76313,0.55487c-0.38537,0 -0.70788,-0.27753 -0.78972,-0.64928l-0.3558,-1.46717l0.17274,-0.04452c-0.11991,-0.41596 -0.19477,-0.84006 -0.19692,-1.27104v-1.11308c0,0 0,-0.32991 0.20117,-0.57494zM219.66849,280.77243c-0.66021,5.77749 -1.39927,11.55025 -2.7468,17.1557v0.53556c1.8345,-2.98492 2.6582,-6.31461 4.21538,-9.52546c0.5161,-1.21684 1.06746,-2.44877 1.60784,-3.69399c-0.77512,-1.14519 -1.54986,-2.27214 -2.33464,-3.35999c-0.24325,-0.33719 -0.48957,-0.71402 -0.74178,-1.1118zM220.6336,272.38374c0.75864,0.03709 1.50981,0.08314 2.22836,0.10578c-0.15248,-0.59498 -0.29746,-1.19241 -0.43408,-1.79254c-0.2381,-1.04594 -0.72203,-2.37114 -1.08945,-3.68425c-0.08326,0.70424 -0.18127,1.40918 -0.28116,2.12725c-0.14995,1.0779 -0.28998,2.15951 -0.42368,3.24377zM229.52256,291.70198c-1.2162,-3.25975 -2.4942,-6.50086 -3.67816,-9.77322c-0.36634,1.01376 -0.77285,2.01902 -1.19451,3.01368c1.61039,2.21048 3.19744,4.44185 4.7979,6.65744c0.02452,0.03395 0.04946,0.06799 0.07479,0.10211zM223.52463,283.40754c0.53663,-1.30153 1.03731,-2.61639 1.45085,-3.94259c-0.59906,-1.74919 -1.16053,-3.51074 -1.66104,-5.29212c-0.96496,-0.00107 -1.9303,-0.00586 -2.89554,-0.0041c-0.17557,1.49288 -0.34286,2.98961 -0.51112,4.48736c0.02333,0.03038 0.04692,0.06069 0.07079,0.0909c1.2073,1.52954 2.38483,3.08752 3.54606,4.66055zM216.21215,274.27585c1.08817,0.51046 1.7283,1.33042 2.30997,2.24383c0.08762,-0.7808 0.17605,-1.56095 0.26665,-2.34002c-0.41334,0.00529 -0.82662,0.01283 -1.23981,0.02343c-0.28356,0.00727 -0.81674,0.08432 -1.33681,0.07276zM224.83022,273.87361c0.27031,0.97072 0.5624,1.93562 0.87137,2.89588c0.22346,-0.99541 0.40501,-2.22676 0.01419,-2.75409c-0.2008,-0.27092 -0.52594,-0.24293 -0.88555,-0.1418z" fill="#ec0000" stroke="none" stroke-width="0.5" stroke-linecap="butt"/><path d="M213.73977,305.46576c-0.57261,-0.5903 0,-1.1806 0,-1.1806l0.84254,-0.86857c0,-0.00841 0,-0.01681 0,-0.02524c0,0 0,-0.83481 0.80979,-0.83481c0.22549,0 0.38819,0.06473 0.50559,0.15814c0.05473,-0.03154 0.10947,-0.06306 0.1642,-0.09459l0.18706,0.77127h0.31284v1.11308h-0.04289l0.03243,0.13373c-0.02696,0.03772 -0.05392,0.07544 -0.08088,0.11316l0.04977,0.01711l-0.35401,1.09482c-0.10176,0.34112 -0.40986,0.58909 -0.77414,0.58909c-0.43164,0 -0.78439,-0.34813 -0.80847,-0.7869c-0.21939,0.09305 -0.53162,0.1222 -0.84385,-0.19967z" fill="#ec0000" stroke="none" stroke-width="0.5" stroke-linecap="butt"/><path d="M238.77879,207.04854c-0.71771,-0.37418 -0.35721,-1.11745 -0.35721,-1.11745c1.16561,-2.40325 2.7031,-4.41157 3.9836,-6.72546c0.2163,-0.39087 0.42025,-0.79107 0.61453,-1.19852c-2.24069,-2.78108 -4.47524,-5.56214 -6.76644,-8.2603l-0.59338,-0.69876c-0.12636,-0.14725 -0.20306,-0.34085 -0.20306,-0.5529c0,-0.46106 0.36255,-0.83481 0.80979,-0.83481h1.43963v0.14034c3.00704,-0.30237 6.10523,0.08144 9.17242,0.66435c0.67194,-1.60198 2.17882,-5.04058 3.30582,-4.47697c0.59323,0.29667 1.00394,3.19152 1.13357,3.92658c0.09926,0.51747 0.20016,1.03495 0.30194,1.55251c1.05637,0.23164 2.10105,0.4566 3.1287,0.65362c1.35213,0.25924 6.85677,0.08085 6.80006,2.40952c-0.02466,1.01261 -2.11855,3.12947 -2.77393,3.99432c-1.70537,1.18811 -3.46232,2.25357 -5.23989,3.26647c0.46934,3.08026 0.79085,6.17923 0.80568,9.31127l0.32363,1.0009c0.03076,0.08822 0.04754,0.18332 0.04754,0.28248c0,0.46106 -0.36255,0.83481 -0.80979,0.83481c-0.32327,0 -0.6023,-0.19528 -0.73215,-0.47765l-0.71646,-1.47718l0.00629,-0.00324c-1.77182,-1.95677 -3.49223,-3.97694 -5.18726,-6.02613c-2.15115,1.18902 -4.27968,2.42069 -6.33117,3.81802l-1.17942,0.41307c0,0 -0.6947,0.23873 -0.98307,-0.41889z" fill="#ffffff" stroke="none" stroke-width="0.5" stroke-linecap="butt"/><path d="M236.97925,210.01675c-0.71771,-0.37418 -0.35721,-1.11745 -0.35721,-1.11745c1.16561,-2.40325 2.7031,-4.41157 3.9836,-6.72546c0.2163,-0.39087 0.42025,-0.79107 0.61453,-1.19852c-2.24069,-2.78108 -4.47524,-5.56214 -6.76644,-8.2603l-0.59338,-0.69879c-0.12636,-0.14725 -0.20306,-0.34084 -0.20306,-0.5529c0,-0.46106 0.36255,-0.83481 0.80979,-0.83481h1.43963v0.14034c3.00704,-0.30237 6.10523,0.08143 9.17242,0.66434c0.67194,-1.60198 2.17882,-5.04058 3.30582,-4.47697c0.59323,0.29667 1.00394,3.19152 1.13357,3.92658c0.09926,0.51747 0.20016,1.03495 0.30194,1.55251c1.05637,0.23164 2.10105,0.4566 3.1287,0.65362c1.35214,0.25924 6.85677,0.08085 6.80005,2.40952c-0.02466,1.01261 -2.11853,3.12947 -2.77392,3.99432c-1.70537,1.18811 -3.46233,2.25357 -5.23989,3.26647c0.46934,3.08026 0.79085,6.17923 0.80568,9.31127l0.32363,1.0009c0.03076,0.08822 0.04754,0.18332 0.04754,0.28248c0,0.46106 -0.36255,0.83481 -0.80979,0.83481c-0.32327,0 -0.6023,-0.19528 -0.73215,-0.47765l-0.71646,-1.47718l0.00628,-0.00324c-1.77182,-1.95677 -3.49223,-3.97694 -5.18726,-6.02613c-2.15115,1.18902 -4.27968,2.42069 -6.33117,3.81802l-1.17942,0.41307c0,0 -0.6947,0.23873 -0.98307,-0.41888z" fill="#ec0000" stroke="none" stroke-width="0.5" stroke-linecap="butt"/><path d="M252.11593,272.98384c-0.09986,0.04711 -0.22256,0.07606 -0.37336,0.07606c-0.80979,0 -0.80979,-0.83481 -0.80979,-0.83481c0,-2.37118 -0.72847,-7.71771 1.3169,-9.49494c2.34647,-2.03886 5.38728,2.43797 5.69081,4.53788c0.45008,3.11377 -2.61644,8.64521 -5.77513,5.81622c-0.01648,-0.03346 -0.03295,-0.06693 -0.04943,-0.10039z" fill="#ec0000" stroke="none" stroke-width="0.5" stroke-linecap="butt"/><path d="M262.28198,292.17699c0.51709,0.02751 1.01958,0.15328 1.46911,0.53319c2.3745,2.00676 1.02417,5.94407 -1.69649,6.65679c-3.11907,0.8171 -3.34005,-2.77012 -2.47771,-5.4187c-0.11579,-0.43663 0.23082,-0.79394 0.23082,-0.79394l0.12836,-0.12058c0.30479,-0.64946 0.67597,-1.17673 1.07478,-1.46783c0,0 0.67379,-0.46307 1.12298,0.23153c0.08792,0.13596 0.13283,0.26304 0.14817,0.37953z" fill="#ec0000" stroke="none" stroke-width="0.5" stroke-linecap="butt"/><path d="M243.09745,177.10462c0,2.51547 -2.17119,4.55467 -4.84949,4.55467c-2.67829,0 -4.84949,-2.03919 -4.84949,-4.55467c0,-2.51547 2.17119,-4.55467 4.84949,-4.55467c2.67829,0 4.84949,2.03919 4.84949,4.55467z" fill="#ffffff" stroke="none" stroke-width="0" stroke-linecap="butt"/><path d="M242.01773,186.00926c0,1.96221 -1.73608,3.55289 -3.87763,3.55289c-2.14155,0 -3.87763,-1.59069 -3.87763,-3.55289c0,-1.96221 1.73608,-3.5529 3.87763,-3.5529c2.14155,0 3.87763,1.59069 3.87763,3.5529z" fill="#e8e8e8" stroke="none" stroke-width="0" stroke-linecap="butt"/><path d="M199.42904,71.63084c0.05173,-0.33343 -1.19948,3.05907 -2.64328,4.50689c-2.02511,2.03074 -4.45785,2.41198 -4.45785,2.41198c0,0 10.02059,-21.02467 11.25441,-24.22023c0.22524,-0.58336 0.70922,-1.75833 0.70922,-1.75833l-6.7269,-0.42321l13.86181,-10.13107c0,0 4.0136,-6.08444 5.16342,-7.08448c0.97321,-0.84644 2.00041,-1.65506 3.08463,-2.41854c1.16981,-0.82375 -4.01378,-4.15676 -4.01378,-4.15676c0,0 9.95226,0.71268 11.14061,0.21246c1.87523,-0.78935 -1.15834,-7.8327 -1.15834,-7.8327c0,0 4.0513,2.94123 8.5097,4.19258c3.49383,0.98063 7.34179,0.34599 8.99082,0.30092c1.13523,-0.0093 10.19623,-9.12316 10.19623,-9.12316c0,0 -3.82406,9.29933 -2.38035,9.43116c42.7003,3.89946 39.27414,43.2914 41.88618,51.05037c0.12657,0.37598 9.53849,15.27791 9.53849,15.27791c0,0 -3.4244,-2.42952 -5.54725,-2.08481c-1.40039,0.22739 -1.8753,2.98483 -1.70457,3.73767c2.65762,11.71992 -1.12022,28.22556 -1.12022,28.22556c0,0 -1.01904,-4.56435 -1.73014,-6.42278c-0.75097,-1.96263 -2.6626,-5.05744 -2.6626,-5.05744l-0.84216,4.51558c0,0 1.07189,7.94904 1.60587,11.90903c0.53139,3.94073 1.59029,11.79343 1.59029,11.79343l-6.11627,-5.35044c0,0 -0.79924,1.37567 -1.22758,2.0083c-3.11178,4.59587 -7.01829,7.21915 -7.01829,7.21915l1.38839,-10.54384l-8.79774,9.72733l-1.16352,-6.22831c0,0 -4.79719,12.49316 -24.51751,12.05763c-18.59583,-0.55086 -25.26937,-11.88461 -25.26937,-11.88461l-0.90484,5.5451l-8.36465,-8.50678l-0.95184,10.22619c0,0 -8.27425,-13.53725 -8.86176,-15.33961c-0.23019,-0.70621 -1.38555,-4.35967 -1.38555,-4.35967l-5.32045,7.4214c0,0 1.385,-6.55245 2.2011,-11.41245c0.73289,-4.36444 2.46834,-16.08772 2.46834,-16.08772c0,0 -1.46888,1.3423 -2.41532,1.63268c-1.36566,0.41904 -4.99257,0.64033 -4.99257,0.64033c0,0 2.7167,-3.43507 4.52431,-8.15625c0.31708,-0.82815 0.84774,-2.59157 0.84774,-2.59157l-8.48729,2.95187c0,0 5.82776,-6.61989 8.92778,-12.81928c2.46162,-4.9227 2.34292,-9.7148 2.34968,-9.75836z" fill="#000000" stroke="none" stroke-width="1.5" stroke-linecap="butt"/><path d="M213.86403,93.37115c-0.53194,-8.3812 0.63345,-19.68858 0.63345,-19.68858c0,0 1.53656,4.24333 2.42758,5.57025c0.58759,0.87506 -0.06686,2.73209 -0.06686,2.73209c0,0 2.35366,-1.5912 4.57908,-4.5548c2.40337,-3.20057 6.81696,-6.63408 8.60287,-7.15229c2.33153,-0.67651 3.12534,3.49797 3.12534,3.49797c0,0 5.58627,-5.64031 8.76771,-7.89238c3.4328,-2.43001 11.13243,-6.19446 11.13243,-6.19446c0,0 -2.45104,3.41799 -3.86264,5.07012c-1.50068,1.75639 -4.04659,25.85353 -4.04659,25.85353c0,0 11.78057,-20.13037 19.44045,-23.54456c0.66326,-0.55828 4.24369,-1.52846 6.85106,-0.48113c2.8611,1.14924 4.73732,4.35529 4.73732,4.35529c0,0 0.20204,15.33055 -0.22932,21.70652c-0.55558,6.5021 -2.96525,10.86844 -3.69823,14.3273c-0.73299,3.45886 -0.54928,7.03886 -2.70031,18.38125c-1.34239,7.07843 -4.77008,10.18432 -11.38016,16.68322c-6.61008,6.49892 -10.22273,10.48893 -14.63343,10.50982c-4.24468,0.0201 -9.87332,-5.98665 -15.36088,-12.12432c-5.84335,-6.53565 -9.7544,-9.86249 -10.58938,-17.52363c-0.29484,-2.70522 -3.07968,1.09715 -3.82726,-0.97541c-1.65611,-4.59141 2.99357,-12.81665 2.80851,-16.54639c-0.22249,-4.48409 -2.42023,-7.43226 -2.71074,-12.00939z" fill="#ffffff" stroke="#000000" stroke-width="1.5" stroke-linecap="butt"/><g stroke="none" stroke-linecap="butt"><g><path d="M271.40457,126.67202c0,0 -4.38994,37.27205 -9.62137,46.40961c-2.62835,4.59086 -15.37333,3.02042 -20.16417,3.46001c-7.78903,0.71471 -14.0441,-0.47552 -16.73701,-5.16377c-5.42099,-9.43775 -7.58555,-45.48488 -7.58555,-45.48488c0,0 13.45373,-4.60019 18.70596,-4.5095c3.41955,0.05905 8.47644,4.77214 8.47644,4.77214c0,0 7.26519,-5.59408 9.4326,-5.16312c8.86077,1.76181 17.4931,5.6795 17.4931,5.6795z" fill="#000000" stroke-width="0"/><path d="M259.80234,125.08997c7.55868,2.64194 6.77518,3.20238 -5.82789,4.37547l-11.28279,1.12199l2.31455,-1.87667c0.02741,-2.18042 7.45283,-6.19119 14.79613,-3.6208z" data-paper-data="{&quot;noHover&quot;:false,&quot;origItem&quot;:[&quot;Path&quot;,{&quot;applyMatrix&quot;:true,&quot;segments&quot;:[[[87.72283,305.82038],[0,-1.39308],[0,0]],[87.72283,306.59686],[[89.46501,306.42178],[0,0],[4.54688,-0.44914]],[[91.38689,305.05152],[2.74218,0.845],[-2.66406,-0.82216]]],&quot;closed&quot;:true,&quot;fillColor&quot;:[0,0,0,1]}]}" fill="#ec0000" stroke-width="0.5"/><path d="M227.2129,124.78549c6.69169,-2.37519 9.52968,-1.28561 12.74999,0.6332c1.69635,0.98344 6.98877,2.96597 6.97642,3.94853c-0.0224,1.7823 -5.24112,0.98419 -15.3242,-0.43585l-9.84025,-2.08908l5.43798,-2.05681z" data-paper-data="{&quot;noHover&quot;:false,&quot;origItem&quot;:[&quot;Path&quot;,{&quot;applyMatrix&quot;:true,&quot;segments&quot;:[[81.36343,304.9982],[79.41031,305.67572],[[81.98063,305.9726],[0,0],[3.64844,0.4263]],[[86.05875,305.77468],[0,0.59378],[0,-0.32734]],[[85.10563,304.77744],[0.61718,0.31972],[-1.17188,-0.62422]],[[81.36345,304.9982],[2.40624,-0.82216],[0,0]]],&quot;closed&quot;:true,&quot;fillColor&quot;:[0,0,0,1]}]}" fill="#ec0000" stroke-width="0.5"/><path d="M234.70657,131.95567c1.9858,0.32472 8.06851,0.63688 12.86941,0.70363c8.10959,0.1128 14.81336,-2.80615 13.13499,-1.77819c-0.39053,0.23626 -1.12799,1.39929 -2.68598,1.96634c-0.2823,0.10275 -1.27193,1.05357 -1.81651,2.29989c-0.64111,1.46725 -0.82352,3.25544 -0.82352,3.25544c0,0 -0.78037,-2.00562 -1.36119,-2.65365c-0.55549,-0.61975 -2.05112,-1.1534 -2.05112,-1.1534c0,0 -6.89859,1.40289 -9.20025,1.37089c-1.79434,-0.02495 -5.79861,-0.92885 -5.79861,-0.92885c0,0 -2.3729,0.30242 -3.18177,0.79592c-0.62624,0.38207 -1.26533,1.9173 -1.26533,1.9173c0,0 0.06348,-1.49988 -0.85367,-3.15099c-0.60669,-1.09221 -2.21939,-2.51024 -2.49499,-2.67306c-1.11168,-0.65674 -2.80267,-2.02631 -2.80267,-2.02631l8.87974,2.13536z" data-paper-data="{&quot;noHover&quot;:false,&quot;origItem&quot;:[&quot;Path&quot;,{&quot;applyMatrix&quot;:true,&quot;segments&quot;:[[83.43363,306.96974],[82.12895,306.77182],[[83.19927,307.34276],[0,0],[0.92968,0.47198]],[[87.01177,307.89086],[-2.35938,0],[2,0]],[[90.38677,307.51784],[-0.47656,0.27406],[0.60156,-0.35018]],[[87.88677,307.14482],[2.92968,0],[-1.73438,0]],[[83.43365,306.96974],[0.71874,0.09896],[0,0]]],&quot;closed&quot;:true,&quot;fillColor&quot;:[0,0,0,1]}]}" fill="#ffffff" stroke-width="0.5"/><path d="M233.60111,159.73043c0.16128,0.0541 2.23101,-3.5486 2.23101,-3.5486c0,0 -0.35806,1.13642 -0.17155,2.41644c0.21241,1.45766 0.99987,3.09974 1.50584,3.4296c1.31755,0.85899 2.67366,1.67868 3.46754,1.89503c2.2342,0.59206 6.09997,-1.04962 9.25736,-2.54703c0.38843,-0.18422 1.18626,-1.2747 1.46221,-2.44001c0.34756,-1.46762 0.12645,-3.0503 0.12645,-3.0503c0,0 1.75604,3.88937 2.1309,3.72993c2.52268,-1.08472 0.14974,4.05019 -2.48192,5.20201c-1.80613,0.86615 -5.99315,1.46876 -10.48842,1.17772c-5.40353,-0.30366 -6.12482,-2.33409 -7.42415,-3.92909c-1.36422,-1.5959 -1.40912,-2.91382 -0.16058,-2.43937z" data-paper-data="{&quot;noHover&quot;:false,&quot;origItem&quot;:[&quot;Path&quot;,{&quot;applyMatrix&quot;:true,&quot;segments&quot;:[[[83.55863,311.35458],[0,0],[-0.45312,-0.15226]],[[83.62895,311.78088],[-0.5,-0.52526],[0.47656,0.52526]],[[86.36333,312.45078],[-1.95312,-0.07612],[1.625,0.07612]],[[89.46489,312.1539],[-0.64844,0.29688],[0.94532,-0.39586]],[[89.81645,311.47638],[0.90626,-0.373],[-1.04688,0.4263]],[[85.22271,311.75804],[1.1875,0.27406],[-0.64062,-0.15226]],[[83.55865,311.35458],[0.25782,0.07612],[0,0]]],&quot;closed&quot;:true,&quot;fillColor&quot;:[0,0,0,1]}]}" fill="#ffffff" stroke-width="0.5"/><path d="M220.58811,129.54125c-0.49661,-1.78952 1.41183,-0.9205 3.56873,1.28066c1.36623,1.43597 2.69656,19.79378 4.08804,24.38392c2.65721,8.85864 3.29683,11.19351 11.20694,11.69206c17.16421,0.76441 15.54464,-2.05643 17.96486,-10.47878c0.83495,-2.75374 4.61711,-21.65179 5.23666,-22.76303c1.15184,-2.15508 5.41155,-5.46453 5.39575,-4.20781c-0.00488,0.38848 -3.28108,20.19603 -4.05104,24.66472c-1.49606,8.89233 -3.11678,15.71918 -5.91415,18.0114c-3.53895,2.78469 -20.01379,3.03684 -27.96265,0.45804c-3.27388,-1.09683 -3.65542,-1.49339 -5.0581,-5.1924c-0.83774,-2.18276 -2.10461,-7.91385 -2.82485,-12.56324c-0.67696,-4.64877 -1.39841,-24.66492 -1.65019,-25.28549z" data-paper-data="{&quot;noHover&quot;:false,&quot;origItem&quot;:[&quot;Path&quot;,{&quot;applyMatrix&quot;:true,&quot;segments&quot;:[[[78.98051,306.64252],[0,0],[0.09376,0.20554]],[[79.62895,309.80934],[-0.26562,-1.54534],[0.28126,1.54534]],[[80.69927,313.9201],[-0.3125,-0.72318],[0.52344,1.22562]],[[82.52739,315.59486],[-1.1875,-0.35018],[2.88282,0.82216]],[[91.51177,315.3208],[-1.26562,0.94396],[1,-0.77648]],[[93.91803,309.38302],[-0.5,2.9689],[0.25782,-1.49206]],[[94.38679,306.46742],[0,0.12942],[0,-0.41868]],[[92.62897,307.792],[0.40626,-0.72318],[-0.21874,0.37302]],[[91.74615,310.13666],[0.28908,-0.92112],[-0.83594,2.81664]],[[85.83989,313.22734],[4.26564,0.1751],[-2.85938,-0.12942]],[[81.60551,309.8626],[1,2.93844],[-0.52344,-1.5225]],[[80.10551,306.947],[0.5,0.47198],[-0.78906,-0.7232]],[[78.98051,306.6425],[-0.1875,-0.59378],[0,0]]],&quot;closed&quot;:true,&quot;fillColor&quot;:[0,0,0,1]}]}" fill="#970000" stroke-width="0.5"/></g><path d="M246.63226,168.33684l0.14635,-11.64298l3.83085,0.05328l-0.13436,10.68864c0,0 -1.70793,3.50794 -2.40183,3.49828c-0.54857,-0.00762 -1.44101,-2.59722 -1.44101,-2.59722z" fill="#000000" stroke-width="0"/><path d="M252.8893,174.67644c0,0 -1.7096,0.93502 -3.62188,0.90842c-1.91228,-0.02659 -3.74713,-0.85112 -3.74713,-0.85112c0,0 1.87903,-2.69046 3.79131,-2.66386c1.91228,0.02659 3.5777,2.60657 3.5777,2.60657z" fill="#000000" stroke-width="0"/></g><path d="M268.60986,76.56275c0,0 1.5302,1.32487 4.20283,4.09661c2.44114,2.53169 4.21167,5.32643 4.21167,5.32643l-0.15726,2.19067c0,0 -6.77224,-9.19455 -15.38814,-11.91514c-6.88907,-2.17528 -11.53087,0.09171 -11.53087,0.09171l1.35456,-7.45024c0,0 3.87635,-1.49836 8.98714,0.57919c5.29219,2.15132 8.46516,5.06953 8.46516,5.06953z" data-paper-data="{&quot;index&quot;:null}" fill="#000000" stroke="none" stroke-width="1.5" stroke-linecap="butt"/><path d="M215.60309,105.01772c0,0 -2.40251,2.51651 -3.91492,1.18205c-0.40796,-0.35996 0.32131,-4.00247 -0.10619,-4.44949c-0.81058,-0.84756 -1.62174,-1.8478 -2.3025,-2.98619c-0.68272,-1.14169 -1.23426,-2.4223 -1.52249,-3.82726c-1.35645,-6.61192 -0.36149,-11.50815 1.80427,-11.77706c2.16578,-0.26892 2.97421,2.76852 4.02981,9.64737c1.05559,6.87884 2.01204,12.21057 2.01204,12.21057z" data-paper-data="{&quot;index&quot;:null}" fill="#ffffff" stroke="#000000" stroke-width="1" stroke-linecap="butt"/><path d="M215.43741,100.4829c0,0 -1.2644,1.8988 -2.1822,1.12644c-0.44521,-0.37466 -0.35987,-3.12797 -0.86843,-3.68178c-1.47829,-1.6098 -3.01366,-3.97294 -3.3819,-7.06875c-0.42179,-3.54582 4.18848,-2.72675 4.18848,-2.72675" fill="none" stroke="#000000" stroke-width="0.25" stroke-linecap="round"/><path d="M248.98168,96.48679c0.32421,-7.3752 5.13525,-13.30537 11.0572,-13.22707c5.92193,0.0783 10.24897,6.12293 10.15133,13.50749c-0.09764,7.38457 -4.50832,13.63458 -10.98396,13.65591c-6.15952,0.0203 -10.56313,-6.23405 -10.22455,-13.93633z" fill="#000000" stroke="#000000" stroke-width="3.5" stroke-linecap="butt"/><path d="M259.90106,98.12123c0.04179,-3.1605 3.97242,-9.01794 3.97242,-9.01794c0,0 3.77438,5.95931 3.73259,9.11982c-0.04179,3.1605 -3.96721,8.62425 -3.96721,8.62425c0,0 -3.7796,-5.56564 -3.73781,-8.72613z" fill="#ff0000" stroke="#720000" stroke-width="2" stroke-linecap="butt"/><path d="M222.93892,76.25571c0,0 3.55757,-3.36167 8.68438,-4.80436c5.68114,-1.59871 11.64532,7.89545 11.64532,7.89545l-2.00442,3.24155c0,0 -4.61421,-6.49317 -9.23817,-5.59836c-6.18398,1.19668 -7.22933,3.26417 -11.9018,4.63651c-4.00363,1.17591 -7.45825,1.28812 -7.45825,1.28812l-0.15096,-1.91983c0,0 3.99568,-0.4394 5.79928,-0.9147c1.48863,-0.3923 4.31738,-2.07912 4.31738,-2.07912z" fill="#000000" stroke="none" stroke-width="1.5" stroke-linecap="butt"/><path d="M276.15818,93.63442c1.23709,-6.84852 2.12556,-9.86353 4.28347,-9.53745c2.15792,0.32608 4.14533,4.6056 2.61454,11.17934c-1.45488,6.24765 -9.23218,10.51121 -9.23218,10.51121c0,0 1.09709,-5.30458 2.33418,-12.1531z" data-paper-data="{&quot;index&quot;:null}" fill="#ffffff" stroke="#000000" stroke-width="1" stroke-linecap="butt"/><path d="M276.67936,88.97146c0,0 4.955,-1.1847 4.4396,2.34874c-0.92389,6.33421 -7.00942,9.93846 -7.00942,9.93846" data-paper-data="{&quot;index&quot;:null}" fill="none" stroke="#000000" stroke-width="0.25" stroke-linecap="round"/><path d="M244.18849,127.5606c-1.1512,-0.01522 -3.89054,-3.79509 -4.13546,-6.21334c-0.21913,-2.16368 1.52263,-4.37521 4.27498,-4.33882c2.75236,0.03639 4.67201,0.62527 4.42422,4.86781c-0.21029,3.60051 -1.81138,5.72074 -4.56374,5.68435z" fill="#ffffff" stroke="#000000" stroke-width="1.15" stroke-linecap="butt"/><path d="M248.6566,93.06575c0,0 0.054,4.55883 -0.10176,8.18151c-0.30841,7.17353 -1.62571,31.85363 -1.62571,31.85363l-3.32052,-0.03398c0,0 -0.83081,-4.80216 -1.10662,-10.9224c-0.37333,-8.28425 -0.25324,-18.71138 -0.55217,-22.54929c-0.28334,-3.63798 -0.91096,-6.57353 -0.91096,-6.57353" fill="#ffffff" stroke="#000000" stroke-width="1.3" stroke-linecap="round"/><path d="M242.92313,37.24365l33.70576,-31.96228l-0.5143,41.54612c0,0 -7.81445,1.5453 -17.86954,-2.04698c-10.81248,-3.86286 -15.32192,-7.53686 -15.32192,-7.53686z" fill="#970000" stroke="none" stroke-width="0" stroke-linecap="butt"/><path d="M243.15574,37.43292l33.29363,-32.0924c0,0 -16.21307,19.23268 -19.7876,25.35593c-2.09099,3.58191 -0.64955,13.413 -0.64955,13.413c0,0 -4.85845,-2.13775 -7.10053,-3.30207c-2.02028,-1.04914 -5.75596,-3.37443 -5.75596,-3.37443z" fill="#ec0000" stroke="none" stroke-width="0" stroke-linecap="butt"/><path d="M281.14401,8.14299c-0.04551,3.44186 -2.86018,6.19532 -6.28675,6.15001c-3.42657,-0.04531 -6.16746,-2.87223 -6.12195,-6.31408c0.04551,-3.44186 2.86019,-6.19532 6.28675,-6.15001c3.42657,0.04531 6.16746,2.87223 6.12195,6.31408z" fill="#ffffff" stroke="#000000" stroke-width="0" stroke-linecap="butt"/><path d="M275.73396,32.22487c-0.54502,-0.00721 -0.72954,-0.37634 -0.79196,-0.63199c-1.01081,-0.94582 -1.98389,-0.82758 -3.4218,-0.60379c-2.88099,1.16523 -7.07653,3.16772 -9.96084,0.71479c-1.18768,-1.01004 -1.0444,-2.75061 -2.06166,-3.83594c-0.55422,-0.5913 -3.31366,0.09475 -3.81795,0.14916c0,0 -0.25022,0.027 -0.49029,-0.0902l-0.68266,0.548c0,0 -0.65929,0.52924 -1.17215,-0.14999c-0.51285,-0.67923 0.14644,-1.20849 0.14644,-1.20849l0.8041,-0.64549c0,0 0.47639,-0.38243 0.93427,-0.07993c0.15434,-0.07235 0.28773,-0.08673 0.28773,-0.08673c1.45204,-0.15665 3.81197,-0.84832 5.09087,0.26695c1.05311,0.91837 0.94707,2.96657 1.97482,3.76282c2.51436,1.94796 6.08737,-0.05856 8.51912,-1.00923c2.13275,-0.34145 3.67908,-0.37251 5.25411,1.27403l0.2344,0.77606c0,0 -0.01138,0.861 -0.84658,0.84996z" fill="#ffffff" stroke="none" stroke-width="0.5" stroke-linecap="butt"/><path d="M274.33909,33.62221c0.61872,0.14141 0.6094,0.84768 0.6094,0.84768l-0.00159,0.02581c0.06901,0.27318 0.05932,0.57997 -0.05618,0.9109l-0.02318,0.37595c-0.09937,0.09622 -0.20626,0.18306 -0.31891,0.26072c-0.53033,0.70745 -1.28554,0.79773 -1.8851,0.50782c-1.35995,-0.07713 -2.41304,-1.06337 -1.08774,-2.68414c0.70881,-0.86683 1.98789,-0.82285 2.76331,-0.24474z" fill="#000000" stroke="none" stroke-width="0.5" stroke-linecap="butt"/><path d="M255.42024,31.78969c-0.02973,0.00219 -0.04707,0.00195 -0.04707,0.00195l-1.08649,-0.55568c-0.09695,-0.49436 -0.53393,-1.04509 -0.29083,-1.48305c0.38639,-0.69605 2.74307,-1.51679 3.11651,0.0181c0.18099,0.74394 -0.10012,1.92825 -0.81456,2.14341c-0.27777,0.08364 -0.58799,0.02351 -0.87758,-0.12471z" fill="#000000" stroke="none" stroke-width="0.5" stroke-linecap="butt"/><path d="M280.18834,9.51325c-0.02644,1.99963 -2.82773,4.20216 -4.76743,4.17652c-1.93969,-0.02565 -3.75509,-1.10954 -3.75509,-1.10954c0,0 4.04536,-0.22198 5.58099,-1.31054c1.26607,-0.89747 2.98124,-4.75893 2.98124,-4.75893c0,0 -0.01326,1.00287 -0.0397,3.00249z" fill="#c3c3c3" stroke="none" stroke-width="0" stroke-linecap="butt"/><path d="M260.25233,23.60792c-0.61299,0.53013 -1.25103,1.0149 -1.95605,1.37253c0,0 -0.50141,0.2501 -0.74363,-0.26658c-0.24221,-0.5167 0.25918,-0.76682 0.25918,-0.76682c0.0716,-0.03501 0.14268,-0.07145 0.21328,-0.10926c-0.01651,-0.03348 -0.03134,-0.0707 -0.0441,-0.11203c-0.16887,-0.54687 0.36176,-0.72142 0.36176,-0.72142l0.6712,-0.22077c0.28019,-0.09197 0.56207,-0.1737 0.84434,-0.25296c0.54443,-0.46842 1.07334,-0.97609 1.60516,-1.46839c-0.41678,-0.64127 -0.57726,-1.25095 -0.22939,-1.71461c0.25756,-0.34329 1.46594,-0.40709 2.7405,-0.27701c0.4631,-0.31001 0.95079,-0.61597 1.01121,-0.57331c0.23169,0.16358 0.3836,0.45294 0.48338,0.81471c1.03001,0.23469 1.84551,0.58965 1.8693,1.00903c0.03923,0.69158 -0.70142,1.23512 -1.67448,1.66224c0.00289,0.54971 0.01289,1.04058 0.08597,1.36465l-0.01921,0.06909l0.02236,0.0003l-0.00911,0.68881c-0.00419,0.31701 -0.25689,0.57071 -0.56439,0.56665c-0.15376,-0.00203 -0.2921,-0.06813 -0.39148,-0.17332l-0.77671,-0.82218l0.03591,-0.03605c-0.31179,-0.24554 -0.6472,-0.52205 -0.97684,-0.81615c-0.63894,0.1663 -1.18349,0.29436 -1.48243,0.3929c-0.44273,0.14535 -0.88964,0.26506 -1.33568,0.38994zM263.28251,21.31282c0.33203,-0.13028 0.67404,-0.26014 1.00311,-0.37647c-0.00097,-0.17519 0.00633,-0.34433 0.02427,-0.50223c-0.1634,-0.00436 -0.33331,-0.00538 -0.50401,-0.00808c-0.234,0.2278 -0.47539,0.45655 -0.67739,0.63562c0.06285,0.08543 0.11354,0.16495 0.14567,0.23357c0.00276,0.00591 0.00554,0.01176 0.00834,0.0176zM264.47504,22.66136c-0.01337,-0.07274 -0.02663,-0.14768 -0.03956,-0.22435c-0.0452,0.01435 -0.09045,0.02851 -0.13567,0.04251c0.05987,0.05861 0.11859,0.11882 0.17524,0.18184zM262.29091,20.15745c0.02856,0.02684 0.05888,0.05565 0.09052,0.08612c0.009,-0.00761 0.01802,-0.01519 0.02703,-0.02277c-0.04104,-0.01921 -0.08028,-0.04027 -0.11754,-0.06335z" fill="#000000" stroke="none" stroke-width="0.5" stroke-linecap="butt"/><path d="M262.52212,23.48945c0.5568,0.00736 0.54921,0.58137 0.54921,0.58137l-0.00911,0.68881c-0.00083,0.04361 -0.00301,0.08703 -0.00649,0.13027c0.0156,0.15289 -0.02752,0.28047 -0.02752,0.28047c-0.01202,0.03428 -0.02406,0.06857 -0.03607,0.10286c-0.02331,0.09416 -0.05177,0.18738 -0.08444,0.27968l0.12697,0.03452l-0.23189,0.90384c-0.05965,0.25487 -0.28392,0.44277 -0.54891,0.43926c-0.3075,-0.00407 -0.5534,-0.26436 -0.54921,-0.58137l0.00911,-0.68881l0.03998,0.00053l-0.03158,-0.09238c0.07687,-0.23423 0.15375,-0.46849 0.23062,-0.70272c-0.00303,-0.0405 -0.00443,-0.08086 -0.00417,-0.1209l0.00911,-0.68881c0,0 0.00759,-0.57401 0.56439,-0.56665z" fill="#000000" stroke="none" stroke-width="0.5" stroke-linecap="butt"/><path d="M264.58927,27.19949c0.03447,-0.00502 0.07156,-0.00748 0.11147,-0.00696c0.33153,0.00438 0.46296,0.20965 0.51505,0.37502c0.02298,0.06422 0.03512,0.1338 0.03417,0.20633c-0.00037,0.02814 -0.00271,0.05578 -0.00687,0.08279l-0.02716,0.32796l-0.22759,0.67336c-0.07309,0.23362 -0.28716,0.40133 -0.53763,0.39802c-0.3075,-0.00407 -0.5534,-0.26436 -0.54921,-0.58137l0.01214,-0.9184c0,0 0.00759,-0.57401 0.56439,-0.56665c0.03992,0.00053 0.07692,0.00397 0.11125,0.0099z" fill="#000000" stroke="none" stroke-width="0.5" stroke-linecap="butt"/><path d="M269.22942,104.18633c-0.04541,3.43432 -3.5188,15.55 -9.20778,15.47478c-5.68897,-0.07522 -10.89255,-11.54015 -10.84714,-14.97448c0.04541,-3.43432 5.53603,0.36025 11.22499,0.43547c5.68897,0.07522 8.87532,-4.37009 8.82991,-0.93577z" fill="url(#color-1)" stroke="none" stroke-width="0" stroke-linecap="butt"/><path d="M206.36784,115.90621l0.74811,-56.58046l32.61256,0.43121l1.60407,35.12364l-5.86257,21.56269c0,0 -4.38467,-0.55724 -6.40321,0.37611c-2.20688,1.02042 -6.3235,5.50851 -6.3235,5.50851c0,0 -3.80845,-3.96997 -6.5619,-5.04975c-2.70415,-1.06042 -9.81357,-1.37193 -9.81357,-1.37193z" fill="#000000" stroke="none" stroke-width="0" stroke-linecap="butt"/><path d="M236.67712,94.83993c-2.66688,9.58588 -17.1714,16.40349 -17.1714,16.40349c0,0 -8.77138,-9.31394 -6.1045,-18.89982c2.66688,-9.58588 15.76211,-15.81372 15.76211,-15.81372c0,0 10.18067,8.72417 7.51379,18.31005z" fill="#ffffff" stroke="#ffffff" stroke-width="1.4" stroke-linecap="butt"/><path d="M239.17282,95.40263c-0.05179,3.91734 0.56491,6.77977 -3.61673,8.42296c-1.81291,0.71239 -3.86985,1.10164 -6.04589,1.07286c-7.19527,-0.09514 -12.96799,-4.72467 -12.89374,-10.34034c0.07425,-5.61567 5.96735,-10.09096 13.16262,-9.99582c3.85551,0.05098 7.30256,1.40389 9.66047,3.51282c2.0425,1.82683 -0.23227,4.72094 -0.26673,7.32752z" fill="url(#color-2)" stroke="#000000" stroke-width="1" stroke-linecap="butt"/><path d="M231.88776,114.8928c0.30628,0.25437 0.30041,0.69867 0.30041,0.69867l-0.01924,1.07789c-0.25559,1.12743 -1.35675,9.66287 -3.89018,5.62992c-0.23848,-0.37963 0.48427,-2.01296 0.617,-2.53012c0.47546,-1.85244 1.49636,-4.14201 1.4868,-6.0059c0,0 0.01138,-0.861 0.84658,-0.84996c0.8352,0.01104 0.82381,0.87205 0.82381,0.87205c-0.00585,0.22188 -0.06691,0.61464 -0.16518,1.10744z" fill="#000000" stroke="none" stroke-width="0.5" stroke-linecap="butt"/><path d="M223.06335,117.00285c0,0 0.27492,-0.81333 1.06366,-0.53057c0.37541,0.13458 0.50986,0.38934 0.54769,0.61942c0.81053,0.02737 0.79937,0.87147 0.79937,0.87147l-0.05297,0.76371c-0.7874,2.32434 -1.481,4.40595 -2.90915,6.06782l0.28062,0.25465l-0.96611,1.13119c-0.15566,0.18449 -0.38606,0.29987 -0.64171,0.29649c-0.46126,-0.0061 -0.8301,-0.39654 -0.82381,-0.87205c0.00159,-0.11995 0.02688,-0.23385 0.07124,-0.33702l0.2962,-0.73443c0.46233,-2.48205 1.51431,-5.10158 2.33499,-7.53068z" fill="#000000" stroke="none" stroke-width="0.5" stroke-linecap="butt"/><path d="M218.38976,114.73025c0.16613,-0.0536 0.3724,-0.04994 0.61789,0.08074c0.74193,0.39493 0.35824,1.1601 0.35824,1.1601l-0.07652,0.03703c-0.29328,2.4189 -0.57027,4.92888 -1.22041,7.27163c-0.33469,1.20609 -0.56388,3.05441 -2.55624,1.84545c-1.64422,-0.99772 -0.6272,-2.00719 -0.32415,-3.10174c0.73374,-2.64995 1.00575,-5.47656 1.69289,-8.15547c0,0 0.21361,-0.83262 1.0211,-0.61308c0.8075,0.21954 0.59389,1.05215 0.59389,1.05215c-0.03619,0.14098 -0.07173,0.28205 -0.1067,0.42319z" fill="#000000" stroke="none" stroke-width="0.5" stroke-linecap="butt"/><path d="M237.32,81.42063c1.5,0 1.5,1.5 1.5,1.5v1.6c0,0.36169 -0.0018,0.72737 -0.00582,1.09647c0.12707,-0.02972 0.24129,-0.0708 0.34394,-0.12063c-0.0155,0.51713 -0.04173,1.03127 -0.07906,1.54333c0.01804,-0.00272 0.03633,-0.00524 0.05489,-0.00756c1.48842,-0.18605 1.67447,1.30236 1.67447,1.30236c0.36849,2.97403 1.2666,5.82164 1.60094,8.80749l0.19613,1.56904c0.00957,0.06847 0.01452,0.13842 0.01452,0.20953c0,0.36891 -0.13318,0.70672 -0.35407,0.96796c0.6596,3.50256 1.17504,7.04596 1.12735,10.60825c-0.01921,1.43405 0.26772,3.13313 -0.09679,4.50516c0.01747,0.48498 0.02302,0.97277 0.0152,1.46368l-0.04118,0.06454l0.03172,0.00589l-0.16966,0.96797c-0.06528,0.41422 -0.41658,0.72804 -0.8358,0.72249c-0.46126,-0.0061 -0.8301,-0.39654 -0.82381,-0.87205c0.00036,-0.0275 0.00197,-0.05468 0.00477,-0.08148l0.16047,-1.70422l0.00819,0.00081c-0.06035,-3.62938 -0.8255,-7.09902 -1.68103,-10.54632c-0.0416,3.14637 -0.0832,6.29273 -0.12481,9.4391c-0.01674,1.26589 0.42307,6.8605 -2.00038,6.64847c-1.65238,-0.14457 -0.9194,-4.21996 -0.79752,-5.07725c0.44843,-3.15406 0.06097,-7.32326 0.42611,-11.05582c-0.24361,0.49904 -0.75604,0.84282 -1.34875,0.84282c-0.64822,0 -1.2004,-0.41117 -1.40996,-0.98693c-0.03622,0.03659 -0.07166,0.0723 -0.10625,0.10708c0.07052,-0.1654 0.13972,-0.33144 0.20771,-0.49805c-0.03719,-0.00439 -0.07506,-0.01042 -0.11362,-0.01823c-0.66328,1.06464 -1.43047,2.05749 -2.31724,2.95676c0,0 -1.06066,1.06066 -2.12132,0c-1.06066,-1.06066 0,-2.12132 0,-2.12132c5.05973,-4.97085 5.56066,-14.00942 5.56066,-20.73934v-1.6c0,0 0,-1.5 1.5,-1.5zM241.05523,102.48536c-0.01035,0.00686 -0.02088,0.01349 -0.03155,0.01986c0.03756,0.15072 0.07522,0.30144 0.11292,0.45213c-0.02669,-0.15739 -0.05383,-0.31474 -0.08137,-0.47199z" fill="#000000" stroke="none" stroke-width="0.5" stroke-linecap="butt"/><path d="M235.45285,95.32513c-0.02754,2.08324 -2.47555,3.73996 -5.46779,3.70039c-2.99224,-0.03956 -5.39559,-1.76043 -5.36804,-3.84367c0.02754,-2.08324 2.47555,-3.73997 5.46779,-3.7004c2.99224,0.03956 5.39559,1.76044 5.36804,3.84368z" fill="#000000" stroke="none" stroke-width="0" stroke-linecap="butt"/><path d="M212.85489,106.21201c0,0 -0.85429,-5.65475 -0.15649,-13.43612c0.21709,-2.42075 6.74479,-13.11524 6.74479,-13.11524" fill="none" stroke="#000000" stroke-width="2" stroke-linecap="round"/><path d="M214.91166,86.80482l-2.81836,10.98556" fill="none" stroke="#000000" stroke-width="2" stroke-linecap="round"/><path d="M237.03769,86.01962c0,0 0.86061,2.69312 0.53433,4.99349c-0.26399,1.86123 -0.65033,3.98907 -1.18416,5.59648c-0.67402,2.02953 -1.86431,3.93093 -2.06137,4.91234c-0.23637,1.17716 -5.30803,5.93007 -5.30803,5.93007" fill="none" stroke="#000000" stroke-width="2" stroke-linecap="round"/><path d="M259.14251,108.93285l-1.40039,7.63622l-0.79898,-9.77036" fill="none" stroke="#000000" stroke-width="1.5" stroke-linecap="round"/><path d="M264.92141,107.09559l-1.29828,13.95273l-0.57291,-12.82927" fill="none" stroke="#000000" stroke-width="1.5" stroke-linecap="round"/><path d="M250.30708,103.26635l0.16628,15.50303l-1.81139,-17.43847" fill="none" stroke="#000000" stroke-width="1.5" stroke-linecap="round"/><path d="M255.45076,107.35311l-0.12143,9.18408l-1.38361,-7.67303l-0.8689,9.55693l-0.76862,-12.06637" fill="none" stroke="#000000" stroke-width="1.5" stroke-linecap="round"/><path d="M267.36964,104.4488l-3.0471,19.86201l1.74284,-19.49653" fill="none" stroke="#000000" stroke-width="1.5" stroke-linecap="round"/><path d="M260.62113,109.42041l-0.87396,9.9396l-0.58556,-11.87257" fill="none" stroke="#000000" stroke-width="1.5" stroke-linecap="round"/><path d="M282.4423,69.84252c-0.03458,2.61545 -4.73906,16.30034 -7.36198,16.48945c-2.2326,0.16097 -2.21323,-13.09735 -4.50898,-12.18498c-2.0825,0.82763 -1.07642,7.94975 -3.55775,7.91695c-1.97885,-0.02616 -1.80652,-8.28396 -2.7293,-6.54394c-6.5973,12.44005 -4.38024,0.01644 -5.81345,-1.16348c-1.61039,-1.32581 -3.87346,4.07283 -5.22863,3.4022c-0.98608,-0.48798 -1.3481,-6.86026 -1.3288,-8.31985c0.09072,-6.86116 6.99838,-12.33287 15.4287,-12.22141c8.43031,0.11147 15.19089,5.7639 15.10017,12.62506z" fill="#000000" stroke="#000000" stroke-width="1" stroke-linecap="butt"/><path d="M277.34676,70.27997c0,0 -1.12268,-0.91423 -2.58353,-0.31214c-2.39463,0.98695 -6.01268,3.53248 -9.41565,2.22272c-2.55165,-0.98208 -3.78614,-4.81313 -5.06217,-6.8174c-1.46391,-2.29937 -2.77976,-2.72969 -2.77976,-2.72969c0,0 1.22611,0.37978 3.33225,-0.34362c2.36116,-0.811 5.77106,-2.68153 8.66693,-1.56696c3.20851,1.2349 4.51491,4.92453 5.73748,7.25071c0.86513,1.64609 2.10445,2.29638 2.10445,2.29638z" fill="#ffffff" stroke="#ffffff" stroke-width="1.4" stroke-linecap="butt"/><path d="M274.0845,69.40962c-1.29488,2.83722 -4.52175,4.08268 -7.20742,2.7818c-2.68567,-1.30087 -3.81311,-4.65547 -2.51823,-7.49269c1.29488,-2.83722 4.52175,-4.08268 7.20742,-2.7818c2.68567,1.30087 3.81311,4.65547 2.51823,7.49269z" fill="url(#color-3)" stroke="#000000" stroke-width="1" stroke-linecap="butt"/><path d="M271.97167,67.26327c-0.0201,1.52049 -1.28403,2.73659 -2.82308,2.71624c-1.53905,-0.02035 -2.77038,-1.26945 -2.75027,-2.78993c0.0201,-1.52049 1.28403,-2.73659 2.82308,-2.71624c1.53905,0.02035 2.77038,1.26945 2.75027,2.78993z" fill="#000000" stroke="none" stroke-width="0" stroke-linecap="butt"/><path d="M277.15339,20.90145c-0.02616,1.97885 -0.3619,7.24585 -1.51239,7.23064c-0.81257,-0.01074 -4.49682,-1.52654 -4.82479,-2.69832c-0.07778,-0.2779 1.78116,0.14027 2.41096,-1.00237c0.4746,-0.86105 -0.24339,-3.33526 -0.24008,-3.58503c0.00253,-0.19134 -2.10011,-1.86713 -2.02839,-1.98541c0.2868,-0.47305 3.16323,1.04605 3.45412,0.53576c0.38861,-0.68171 0.11044,-2.11368 0.70479,-2.10583c1.1505,0.01521 2.06194,1.63171 2.03577,3.61057z" fill="#ff0000" stroke="none" stroke-width="0" stroke-linecap="butt"/><path d="M267.72971,40.27855c-0.0187,1.41402 1.53306,12.84131 -2.66775,0.6399c-0.2378,-0.69069 -0.75362,3.23187 -1.55033,3.22133c-0.81126,-0.01073 -0.70358,-2.39415 -1.33889,-2.77963c-1.16661,-0.70788 -2.79415,0.20857 -2.77564,-1.19177c0.01615,-1.22132 1.09883,-0.29777 2.04042,-1.00366c0.72594,-0.54423 1.17596,-2.87081 2.17767,-2.85757c2.30098,0.03042 4.14312,1.80848 4.11452,3.97141z" fill="#ff0000" stroke="none" stroke-width="0" stroke-linecap="butt"/><path d="M276.44993,42.67684c-0.47275,0.71028 -1.16138,0.2235 -1.16138,0.2235l-0.43963,-0.31197c-1.43655,-0.91896 -2.76225,-2.03934 -4.29578,-2.78294c-1.78066,-0.86344 -4.88306,1.05641 -6.52293,1.59136c-1.69955,0.22918 -4.54523,0.65889 -5.86983,-0.8054c-1.60188,-1.77076 -1.70038,-5.07151 -3.60419,-6.49817c-1.71953,-1.28858 -5.4709,0.08512 -7.23199,0.66436c0,0 -0.79594,0.2618 -1.04926,-0.55851c-0.25332,-0.82031 0.54262,-1.08211 0.54262,-1.08211c2.3673,-0.77864 6.41152,-2.09081 8.69393,-0.43729c2.10305,1.5236 2.32771,4.71581 3.85844,6.7229c0.69875,0.91618 3.37576,0.43545 4.29864,0.31322c2.23734,-0.74343 5.1041,-2.51553 7.51998,-1.50356c1.63469,0.68474 3.04587,1.96424 4.53928,2.9109l0.50621,0.35667c0,0 0.68861,0.48678 0.21586,1.19706z" fill="#ffffff" stroke="none" stroke-width="0.5" stroke-linecap="butt"/><path d="M263.12506,38.60313c-1.0642,0.73906 -1.42953,0.33274 -1.50823,-0.3492c-0.63907,-0.13053 -0.62953,-0.85205 -0.62953,-0.85205l0.20097,-1.35546c0.17126,-0.17566 0.38517,-0.33147 0.62164,-0.45983c0.20019,-0.15253 0.46161,-0.25074 0.73588,-0.28975c1.21718,-0.31559 2.50026,0.12394 1.82286,2.08448c-0.28013,0.81081 -0.74983,1.16628 -1.2436,1.22179z" fill="#000000" stroke="none" stroke-width="0.5" stroke-linecap="butt"/><path d="M190.78333,309.13338l1.41666,-47.33333l2.38766,-18.70722l0.27901,35.12388c0,0 1.78817,-7.66515 2.1997,-11.92843c0.43618,-4.51867 0.34774,-14.46203 0.34774,-14.46203l4.20533,15.70595l-1.14342,-29.47419l2.96936,11.26872l1.42129,12.47332l1,47.33333z" fill="#000000" stroke="none" stroke-width="0" stroke-linecap="butt"/><path d="M274.825,309.71666v-48.5c0,0 3.1118,33.51043 4.37318,30.80749c0.30874,-0.66159 -3.07545,-33.66052 -2.67859,-42.09538c0.2579,-5.48129 3.92942,19.66567 5.29566,22.42031c0.86939,1.75288 1.36516,-8.85557 1.54442,-10.40729c0.42411,-3.67125 2.10148,29.12228 2.50775,27.13054c1.34429,-6.59039 -0.54242,-50.35567 -0.54242,-50.35567l4.5,70z" fill="#000000" stroke="none" stroke-width="0" stroke-linecap="butt"/><path d="M247.325,244.46671c0,1.10457 -0.50368,2 -1.125,2c-0.62132,0 -1.125,-0.89543 -1.125,-2c0,-1.10457 0.50368,-2 1.125,-2c0.62132,0 1.125,0.89543 1.125,2z" fill="#ff0000" stroke="#310000" stroke-width="2" stroke-linecap="butt"/><path d="M257.325,244.34171c0,2.00203 -1.45507,3.625 -3.25,3.625c-1.79493,0 -3.25,-1.62297 -3.25,-3.625c0,-2.00203 1.45507,-3.625 3.25,-3.625c1.79493,0 3.25,1.62297 3.25,3.625z" fill="#ff0000" stroke="#310000" stroke-width="2" stroke-linecap="butt"/><path d="M252.575,266.25837c0,7.755 -2.12664,14.04167 -4.75,14.04167c-2.62336,0 -4.75,-6.28668 -4.75,-14.04167c0,-7.755 2.12664,-14.04166 4.75,-14.04166c2.62336,0 4.75,6.28667 4.75,14.04166z" fill="#ff0000" stroke="#310000" stroke-width="2" stroke-linecap="butt"/><path d="M198.15,243.91566c0,0.89747 -0.7835,1.625 -1.75,1.625c-0.9665,0 -1.75,-0.72753 -1.75,-1.625c0,-0.89747 0.7835,-1.625 1.75,-1.625c0.9665,0 1.75,0.72753 1.75,1.625z" fill="#ff0000" stroke="none" stroke-width="0" stroke-linecap="butt"/><path d="M283.14115,254.00299c0.95081,8.71581 1.05399,15.8542 0.23045,15.94404c-0.82354,0.08984 -2.26194,-6.90289 -3.21276,-15.6187c-0.95081,-8.71581 -1.05399,-15.8542 -0.23045,-15.94404c0.82354,-0.08984 2.26194,6.90289 3.21275,15.6187z" fill="#ff0000" stroke="none" stroke-width="0" stroke-linecap="butt"/><path d="M242.43615,245.91149c-4.05824,0 -8.30853,-14.45126 -11.27185,-9.69468c-4.23221,6.79334 -6.61918,33.01063 -8.72207,28.0061c-6.99114,-16.63772 -1.8473,-74.47326 17.42163,-74.47326c10.24441,0 23.84871,8.41861 23.53013,18.49082c-0.05502,1.73958 1.01613,48.31728 -3.6894,49.08479c-5.38849,0.8789 -9.63981,-44.24332 -9.60141,-40.83689c0.15108,13.4042 9.15214,50.51721 5.0836,54.76625c-2.64955,2.76709 -5.70463,-43.02448 -10.15617,-41.7922c-1.64491,0.45534 -0.6759,16.44907 -2.59444,16.44907z" fill="url(#color-4)" stroke="none" stroke-width="0" stroke-linecap="butt"/><path d="M220.73357,230.30708c0,0 10.48819,-9.64984 13.07702,-12.30944c1.34117,-1.37784 18.44821,-42.33145 18.44821,-42.33145l-1.20283,6.60876c0,0 -9.87826,32.40325 -14.4405,40.71341c-1.43223,2.60881 -8.25617,5.61963 -8.25617,5.61963z" fill="#ff0000" stroke="#310000" stroke-width="2" stroke-linecap="butt"/><path d="M226.23357,240.55708c0,0 10.82089,-9.95594 13.49184,-12.69989c1.38371,-1.42154 19.03339,-43.67423 19.03339,-43.67423l-1.24099,6.81838c0,0 -10.1916,33.43111 -14.89856,42.00487c-1.47766,2.69157 -8.51806,5.79789 -8.51806,5.79789z" fill="#ff0000" stroke="#310000" stroke-width="2" stroke-linecap="butt"/><path d="M228.73357,251.70515c0,0 10.48819,-9.64984 13.07702,-12.30943c1.34117,-1.37784 18.44821,-42.33145 18.44821,-42.33145l-1.20283,6.60875c0,0 -0.56026,24.87786 -2.82915,31.8637c-0.69526,2.14065 -2.54363,-15.0191 -3.32401,-12.69811c-2.89323,8.60495 -6.16532,17.68256 -8.28734,21.54782c-0.29393,0.53539 -2.35644,0.42026 -3.18557,4.69284c-0.98284,5.06462 -0.78746,14.6301 -1.71464,15.18546c-2.10203,1.25907 -3.35595,-14.25867 -3.35595,-14.25867z" fill="#ff0000" stroke="#310000" stroke-width="2" stroke-linecap="butt"/></g></g></svg>