<svg version="1.1" xmlns="http://www.w3.org/2000/svg" xmlns:xlink="http://www.w3.org/1999/xlink" width="110.15342" height="253.35677" viewBox="0,0,110.15342,253.35677"><g transform="translate(-173.80438,-52.14311)"><g data-paper-data="{&quot;isPaintingLayer&quot;:true}" fill-rule="nonzero" stroke-linejoin="miter" stroke-miterlimit="10" stroke-dasharray="" stroke-dashoffset="0" style="mix-blend-mode: normal"><g stroke-linecap="butt"><g><path d="M201.03047,304.39162c0,0 -0.63536,-94.38387 -0.79335,-118.01201c-0.05451,-8.15261 8.18688,-36.76129 40.20201,-36.9211c31.60235,-0.15775 39.85672,29.48704 39.84884,36.89673c-0.07659,46.24274 0.65429,117.98648 0.65429,117.98648l-10.49667,0.09614l-0.15882,-114.84311c0,0 0.07549,-3.0993 -2.81625,-3.15415c-3.43441,-0.06514 -2.94538,3.11562 -2.94538,3.11562l0.20548,114.86995l-48.21366,0.07222l-0.30539,-115.23309c0,0 0.27949,-2.919 -2.8856,-2.93443c-3.11083,-0.01515 -2.81569,2.90899 -2.81569,2.90899l0.35311,115.0668z" fill="#ffffff" stroke="#000000" stroke-width="2"/><path d="M216.91671,304.66668v-15h47.33334v15z" fill="#000000" stroke="none" stroke-width="0"/><path d="M201.37504,283.83333c0,-0.69036 0.55964,-1.25 1.25,-1.25c0.69036,0 1.25,0.55964 1.25,1.25c0,0.25501 -0.07636,0.49219 -0.20747,0.68991c0.2949,-0.12237 0.6183,-0.18991 0.95747,-0.18991c0.5628,0 1.08217,0.18597 1.5,0.49982c0.41783,-0.31385 0.9372,-0.49982 1.5,-0.49982c1.38071,0 2.5,1.11929 2.5,2.5c0,1.38071 0.33333,18 0.33333,18l-9.08333,0.08333c0,0 -0.5,-14.45262 -0.5,-15.83333c0,-1.12076 0.2375,-2.06927 1.25367,-2.3867c0.03439,-0.63828 0.30821,-1.21292 0.73322,-1.63572c-0.07671,0.01472 -0.1559,0.02242 -0.2369,0.02242c-0.69036,0 -1.25,-0.55964 -1.25,-1.25z" fill="#000000" stroke="none" stroke-width="0.5"/><path d="M207.12504,281.58333c0,-0.69036 0.55964,-1.25 1.25,-1.25c0.69036,0 1.25,0.55964 1.25,1.25c0,0.69036 -0.55964,1.25 -1.25,1.25c-0.17949,0 -0.35014,-0.03783 -0.50442,-0.10595c0.00293,0.03493 0.00442,0.07027 0.00442,0.10595c0,0.69036 -0.55964,1.25 -1.25,1.25c-0.56154,0 -1.0366,-0.37027 -1.19433,-0.87999c-0.16738,0.08321 -0.35607,0.12999 -0.55567,0.12999c-0.69036,0 -1.25,-0.55964 -1.25,-1.25c0,-0.69036 0.55964,-1.25 1.25,-1.25c0.56154,0 1.0366,0.37027 1.19433,0.87999c0.16738,-0.08321 0.35607,-0.12999 0.55567,-0.12999c0.17949,0 0.35014,0.03783 0.50442,0.10596c-0.00293,-0.03493 -0.00442,-0.07027 -0.00442,-0.10596z" fill="#000000" stroke="none" stroke-width="0.5"/><path d="M207.62504,278.08333c0,-0.69036 0.55964,-1.25 1.25,-1.25c0.69036,0 1.25,0.55964 1.25,1.25c0,0.69036 -0.55964,1.25 -1.25,1.25c-0.69036,0 -1.25,-0.55964 -1.25,-1.25z" fill="#000000" stroke="none" stroke-width="0.5"/><path d="M203.62504,278.83333c0,-0.69036 0.55964,-1.25 1.25,-1.25c0.69036,0 1.25,0.55964 1.25,1.25c0,0.69036 -0.55964,1.25 -1.25,1.25c-0.69036,0 -1.25,-0.55964 -1.25,-1.25z" fill="#000000" stroke="none" stroke-width="0.5"/><path d="M202.37504,279.83333c0,-0.27614 0.22386,-0.5 0.5,-0.5c0.27614,0 0.5,0.22386 0.5,0.5c0,0.27614 -0.22386,0.5 -0.5,0.5c-0.27614,0 -0.5,-0.22386 -0.5,-0.5z" fill="#000000" stroke="none" stroke-width="0.5"/><path d="M203.87504,276.58333c0,-0.27614 0.22386,-0.5 0.5,-0.5c0.27614,0 0.5,0.22386 0.5,0.5c0,0.27614 -0.22386,0.5 -0.5,0.5c-0.27614,0 -0.5,-0.22386 -0.5,-0.5z" fill="#000000" stroke="none" stroke-width="0.5"/><path d="M206.87504,276.83333c0,-0.27614 0.22386,-0.5 0.5,-0.5c0.27614,0 0.5,0.22386 0.5,0.5c0,0.27614 -0.22386,0.5 -0.5,0.5c-0.27614,0 -0.5,-0.22386 -0.5,-0.5z" fill="#000000" stroke="none" stroke-width="0.5"/><path d="M205.87504,275.08333c0,-0.27614 0.22386,-0.5 0.5,-0.5c0.27614,0 0.5,0.22386 0.5,0.5c0,0.27614 -0.22386,0.5 -0.5,0.5c-0.27614,0 -0.5,-0.22386 -0.5,-0.5z" fill="#000000" stroke="none" stroke-width="0.5"/><path d="M206.37504,280.58333c0,-0.27614 0.22386,-0.5 0.5,-0.5c0.27614,0 0.5,0.22386 0.5,0.5c0,0.27614 -0.22386,0.5 -0.5,0.5c-0.27614,0 -0.5,-0.22386 -0.5,-0.5z" fill="#000000" stroke="none" stroke-width="0.5"/><path d="M202.12504,277.83333c0,-0.27614 0.22386,-0.5 0.5,-0.5c0.27614,0 0.5,0.22386 0.5,0.5c0,0.27614 -0.22386,0.5 -0.5,0.5c-0.27614,0 -0.5,-0.22386 -0.5,-0.5z" fill="#000000" stroke="none" stroke-width="0.5"/><path d="M207.62504,274.83333c0,-0.27614 0.22386,-0.5 0.5,-0.5c0.27614,0 0.5,0.22386 0.5,0.5c0,0.27614 -0.22386,0.5 -0.5,0.5c-0.27614,0 -0.5,-0.22386 -0.5,-0.5z" fill="#000000" stroke="none" stroke-width="0.5"/><path d="M205.37504,276.83333c0,-0.27614 0.22386,-0.5 0.5,-0.5c0.27614,0 0.5,0.22386 0.5,0.5c0,0.27614 -0.22386,0.5 -0.5,0.5c-0.27614,0 -0.5,-0.22386 -0.5,-0.5z" fill="#000000" stroke="none" stroke-width="0.5"/><path d="M202.87504,274.83333c0,-0.27614 0.22386,-0.5 0.5,-0.5c0.27614,0 0.5,0.22386 0.5,0.5c0,0.27614 -0.22386,0.5 -0.5,0.5c-0.27614,0 -0.5,-0.22386 -0.5,-0.5z" fill="#000000" stroke="none" stroke-width="0.5"/></g><path d="M255.62766,200.33381c-0.57113,0 -1.03411,-0.46299 -1.03411,-1.03411c0,-0.57113 0.46299,-1.03413 1.03411,-1.03413c0.57113,0 1.03411,0.463 1.03411,1.03413c0,0.57113 -0.46299,1.03411 -1.03411,1.03411z" fill="#000000" stroke="none" stroke-width="1.5"/><path d="M250.36777,204.56942c-4.4635,-0.31439 -6.55245,-1.79392 -6.16985,-2.58011c0.11788,-0.24224 2.84645,1.06355 6.97038,1.3048c6.40897,0.37493 8.51033,-0.63173 8.51033,-0.63173v1.34616c0,0 -2.4135,1.04672 -9.31086,0.56089z" fill="#000000" stroke="#000000" stroke-width="0"/><path d="M222.55501,199.2997c0,-0.57113 0.46299,-1.03413 1.03411,-1.03413c0.57113,0 1.03413,0.463 1.03413,1.03413c0,0.57113 -0.463,1.03411 -1.03413,1.03411c-0.57113,0 -1.03411,-0.46299 -1.03411,-1.03411z" fill="#000000" stroke="none" stroke-width="1.5"/><path d="M228.84902,204.56942c-6.89736,0.48585 -9.31086,-0.56089 -9.31086,-0.56089v-1.34616c0,0 2.10136,1.00666 8.51033,0.63173c4.12393,-0.24126 6.85251,-1.54704 6.97039,-1.3048c0.3826,0.78618 -1.70634,2.26571 -6.16985,2.58011z" fill="#000000" stroke="#000000" stroke-width="0"/><path d="M240.12948,261.12113c-0.81895,0 -1.48284,-0.66389 -1.48284,-1.48284c0,-0.81895 0.66389,-1.48284 1.48284,-1.48284c0.81895,0 1.48284,0.66389 1.48284,1.48284c0,0.81895 -0.66389,1.48284 -1.48284,1.48284z" data-paper-data="{&quot;index&quot;:null}" fill="#000000" stroke="none" stroke-width="1.5"/><path d="M213.9279,291.32497c0,0 -0.62598,-61.51103 4.81237,-79.95561c5.17086,-17.53738 17.42888,-27.63865 21.52581,-27.63865c3.79198,0 16.01921,7.36923 20.91736,23.45626c5.95975,19.57364 7.38217,83.85782 7.38217,83.85782z" fill="#22678c" stroke="none" stroke-width="0"/><g stroke="none" stroke-width="0"><path d="M215.30746,235.262l50.43481,-0.80734l2.41823,37.93576c-1.11479,-1.03102 -3.49754,-2.94046 -4.25831,-2.61324c-0.20458,0.08799 -0.67997,1.52932 -0.93869,1.40363c-1.54915,-0.75261 -0.3483,-4.09896 -2.69807,-3.36624c-2.93325,1.63323 -6.40729,5.59859 -9.25965,3.45565c-1.77127,-1.5519 -2.98562,2.61633 -4.58369,1.44697c-0.74584,-0.54575 -0.58087,-2.31716 -1.08116,-3.08121c-0.64663,-0.98753 -1.7803,-1.96318 -2.69801,-2.35014c-1.10671,0.99549 -1.73483,3.21499 -2.90206,4.02467c-1.91171,1.32612 -4.11614,0.45185 -5.86611,-0.89466c-1.1021,-1.19632 -1.65669,0.01163 -2.83621,0.00677c-1.12186,-0.00462 -1.78594,-0.84057 -2.84008,-0.78411c-1.51624,0.08119 -2.86481,1.16494 -4.39837,1.23773c-1.27075,0.34864 -2.49923,1.18231 -3.83039,0.65632c-0.9965,-0.39375 -2.76475,-2.58261 -3.46868,-2.58686c-0.61802,-0.00373 -1.84513,0.83492 -2.45753,1.13646c-0.20024,0.14144 -0.37226,0.30348 -0.52275,0.48171z" fill="#00ab8c"/><path d="M242.76642,241.31705c0,0 1.00629,16.36436 12.86309,15.48771c8.85365,-0.65461 10.11276,-22.3501 10.11276,-22.3501l2.41823,37.93576c-1.11479,-1.03102 -3.49754,-2.94046 -4.25831,-2.61324c-0.20458,0.08799 -0.67997,1.52932 -0.93869,1.40363c-1.54915,-0.75261 -0.3483,-4.09896 -2.69807,-3.36624c-2.93325,1.63323 -6.40729,5.59859 -9.25965,3.45565c-1.77127,-1.5519 -2.98562,2.61633 -4.58369,1.44697c-0.74584,-0.54575 -0.58087,-2.31716 -1.08116,-3.08121c-0.64663,-0.98753 -1.7803,-1.96318 -2.69801,-2.35014c-1.10671,0.99549 -1.73483,3.21499 -2.90206,4.02467c-1.91171,1.32612 -4.11614,0.45185 -5.86611,-0.89466c-1.1021,-1.19632 -1.65669,0.01163 -2.83621,0.00677c-1.12186,-0.00462 -1.78594,-0.84057 -2.84008,-0.78411c-1.51624,0.08119 -2.86481,1.16494 -4.39837,1.23773c-1.27075,0.34864 -2.49923,1.18231 -3.83039,0.65632c-0.9965,-0.39375 -2.76475,-2.58261 -3.46868,-2.58686c-0.61802,-0.00373 -1.84513,0.83492 -2.45753,1.13646c-0.20024,0.14144 -0.37226,0.30348 -0.52275,0.48171c0,0 21.24089,-7.29593 26.60609,-12.21702c3.92776,-3.60263 2.63958,-17.0298 2.63958,-17.0298z" fill="#007962"/></g><g stroke="none" stroke-width="0"><path d="M199.10268,264.18833c0,0 -0.44533,-48.47072 1.29578,-63.27015c0.99541,-8.46097 8.2308,-17.70574 8.2308,-17.70574c0,0 4.06759,0.95493 5.38526,6.27267c1.29715,5.23491 2.46016,25.38918 2.46016,25.38918z" fill="#22678c"/><path d="M196.90461,238.73421c0,0 -0.44533,-48.47072 1.29577,-63.27016c0.99541,-8.46097 8.2308,-17.70574 8.2308,-17.70574l7.84542,31.66186z" fill="#2a81af"/></g><g data-paper-data="{&quot;index&quot;:null}" stroke="none" stroke-width="0"><path d="M264.33673,217.35256c0,0 1.16302,-20.15427 2.46016,-25.38918c1.31767,-5.31775 5.38525,-6.27268 5.38525,-6.27268c0,0 7.23539,9.24476 8.2308,17.70574c1.74111,14.79943 1.29577,63.27015 1.29577,63.27015z" fill="#22678c"/><path d="M266.53479,191.89844l6.44445,-31.94205c0,0 8.63636,9.52496 9.63177,17.98593c1.74111,14.79943 1.29577,63.27015 1.29577,63.27015z" fill="#2a81af"/></g><g stroke="#000000" stroke-width="0"><path d="M212.96138,191.90824l-8.96618,-46.5121l36.14495,38.38649l-24.93721,50.9952z" fill="#00ab8c"/><path d="M212.96138,191.90824l13.44928,8.686l14.00967,-17.0918l-25.2174,51.27539z" fill="#007962"/></g><g data-paper-data="{&quot;index&quot;:null}" stroke="#000000" stroke-width="0"><path d="M265.31406,234.45416l-24.93721,-50.71501l36.14494,-38.66669l-8.96618,46.5121z" fill="#00ab8c"/><path d="M265.31406,234.45415l-24.93721,-50.715l13.72948,16.53141l13.44928,-8.686z" fill="#007962"/></g></g><g fill="#000000" stroke="none" stroke-width="1.5" stroke-linecap="butt"><path d="M182.24388,111.89768c0,0 4.85551,-7.03412 4.80822,-7.90803c-0.0601,-1.1106 -3.12087,-18.97089 3.41222,-30.31046c6.94997,-12.06317 23.52163,-17.6127 23.52163,-17.6127c0,0 -13.31394,4.92657 -12.39221,4.75426c0.64861,-0.12125 5.88219,-4.59819 12.27114,-6.88192c2.92688,-1.04621 9.65642,-1.87566 12.10643,-1.78957c33.69429,1.18395 33.54414,31.13997 37.13926,36.95667c5.25494,8.50217 9.50978,15.81878 9.50978,15.81878c0,0 -3.12172,-1.45909 -4.62371,-2.25544c-1.40089,-0.74275 -4.35343,-2.3227 -4.35343,-2.3227c0,0 5.09678,9.52161 5.42028,20.01553c0.36394,9.60195 -3.70818,18.33638 -3.70818,18.33638l-1.60103,-2.06913c0,0 -0.56278,2.35798 -1.45044,3.69719c-0.88768,1.3392 -2.78726,3.54119 -2.78726,3.54119l-0.83046,-3.61109c0,0 -4.71579,12.20662 -21.68681,15.5186c-16.02836,3.00842 -27.67897,-5.24958 -27.67897,-5.24958l0.4167,2.62451c0,0 -4.47424,-2.44799 -7.99676,-8.27638c-4.19842,-6.94677 -5.62087,-11.34887 -5.62087,-11.34887c0,0 -1.91235,2.32831 -5.04727,3.86096c-3.92822,1.92051 -6.73752,1.72656 -6.73752,1.72656c0,0 2.99216,-3.38339 4.51807,-5.7896c1.35917,-2.14326 1.91827,-3.838 1.91827,-3.838c0,0 -1.84829,1.48401 -3.82404,2.43121c-2.06147,0.98831 -3.84267,1.32561 -3.84267,1.32561c0,0 3.86789,-5.92988 4.71573,-12.05999c0.8005,-5.78781 -0.1324,-11.15589 -0.1324,-11.15589c0,0 -1.20196,0.9204 -3.10405,1.4446c-1.20568,0.33229 -2.33966,0.42729 -2.33966,0.42729z"/><path d="M269.05147,119.50903c1.80317,5.91993 6.5571,11.16628 6.5571,11.16628c0,0 -1.81211,-0.05241 -4.00355,-0.70356c-2.10032,-0.62405 -4.15936,-1.79829 -4.15936,-1.79829c0,0 0.81915,1.58548 2.49906,3.4878c1.88601,2.13571 5.37389,5.00538 5.37389,5.00538c0,0 -2.74364,0.63419 -6.9254,-0.64337c-3.33724,-1.01955 -5.59257,-3.01745 -5.59257,-3.01745c0,0 4.54837,-19.08615 6.25085,-13.49678z" data-paper-data="{&quot;index&quot;:null}"/><path d="M249.68395,68.43855c6.15903,0.60282 12.82654,-1.77798 12.82654,-1.77798c0,0 -0.74278,1.65371 -2.18393,3.42839c-1.38122,1.7009 -3.2548,3.15283 -3.2548,3.15283c0,0 1.77834,-0.14912 4.17916,-0.97188c2.69537,-0.9237 6.68247,-3.0458 6.68247,-3.0458c0,0 -0.4655,2.77726 -3.2479,6.15031c-2.22048,2.69187 -4.93007,4.00951 -4.93007,4.00951c0,0 -15.8866,-11.51455 -10.07149,-10.94537z" data-paper-data="{&quot;index&quot;:null}"/><path d="M188.31494,91.48857c0,0 -2.93349,0.68758 -6.35466,0.00042c-4.28694,-0.86103 -6.40054,-2.72182 -6.40054,-2.72182c0,0 4.43217,-0.86961 7.10603,-1.85383c2.38167,-0.87668 3.85537,-1.88313 3.85537,-1.88313c0,0 -2.36968,0.05586 -4.51447,-0.39209c-2.23785,-0.46737 -3.85759,-1.28159 -3.85759,-1.28159c0,0 6.67482,-2.36026 11.07246,-6.71433c4.15208,-4.11093 -0.90661,14.84636 -0.90661,14.84636z" data-paper-data="{&quot;index&quot;:null}"/></g><path d="M200.95372,119.63632c-2.02297,-7.03077 -3.10001,-16.87538 -3.10001,-16.87538c0,0 3.33355,-0.722 13.00524,-5.86152c7.43039,-3.94853 18.23684,-13.40212 18.23684,-13.40212c0,0 -1.51593,3.37608 -2.44773,5.05121c-0.9906,1.78085 -3.00049,5.26889 -3.00049,5.26889c0,0 7.34662,-3.20036 13.4336,-7.56659c7.68892,-5.17677 9.16915,-8.04786 11.77135,-7.08814c3.07122,1.1327 5.64224,22.50919 6.44765,28.01726c0.71984,5.63911 -0.5837,9.81432 -0.58459,12.89754c-0.00089,3.08322 0.82504,6.09468 1.04374,16.15704c0.1365,6.27961 -2.29432,9.57635 -6.8874,16.3674c-4.59308,6.79106 -7.02202,10.87545 -10.88817,11.7344c-3.72063,0.82661 -9.77465,-3.21157 -15.72919,-7.38807c-6.34061,-4.44731 -10.38997,-6.53252 -12.54513,-12.89274c-1.94095,-5.72805 -2.74105,-9.55346 -4.14732,-14.71639c-1.02782,-3.77345 -3.50359,-5.86314 -4.60838,-9.70277z" fill="#ffffff" stroke="#000000" stroke-width="1.5" stroke-linecap="butt"/><g stroke="none" stroke-linecap="butt"><path d="M255.04527,142.19919c0,0 4.95294,16.107 -0.48207,26.16904c-1.50937,2.79434 -8.45317,4.98181 -12.65839,6.05427c-4.02778,1.02722 -9.35248,1.58579 -12.42704,0.502c-10.58693,-3.73189 -15.25856,-22.22154 -15.25856,-22.22154c0,0 5.39977,-11.48316 11.2814,-13.00424c1.46141,-0.37795 7.89819,1.70038 7.89819,1.70038c0,0 4.97666,-4.64966 9.73692,-4.41225c6.6707,0.3327 11.90955,5.2123 11.90955,5.2123z" fill="#000000" stroke-width="0"/><path d="M221.74055,144.12136c2.22572,-1.8582 3.6433,-2.24283 6.51733,-2.04353c2.0477,0.14695 8.40559,1.59745 8.91088,3.38779c0.11484,0.40693 -6.39437,2.73112 -11.73947,4.23964c-4.53083,1.27872 -8.649,1.9563 -8.74087,1.63079c-0.22967,-0.8138 2.90986,-5.37997 5.05209,-7.21462z" data-paper-data="{&quot;noHover&quot;:false,&quot;origItem&quot;:[&quot;Path&quot;,{&quot;applyMatrix&quot;:true,&quot;segments&quot;:[[[732.89469,393.12859],[0,0],[-0.92188,0.4263]],[[730.47281,395.02411],[0,-0.3045],[0,0.1218]],[[733.56657,395.24487],[-1.69532,0],[2,0]],[[736.66033,394.99365],[0,0.15226],[0,-0.6699]],[[735.20721,393.02961],[0.6953,0.25122],[-0.97656,-0.35018]],[[732.89471,393.12857],[0.95312,-0.4263],[0,0]]],&quot;closed&quot;:true,&quot;fillColor&quot;:[0,0,0]}]}" fill="#ffffff" stroke-width="0.5"/><path d="M248.77544,140.10931l3.3636,2.25661l-4.79473,1.67767c-2.56972,0.87898 -12.26971,2.69546 -13.40715,2.81875c-1.87232,0.15506 -0.19801,-0.01761 0.69385,-1.35397c2.38573,-3.57476 2.98654,-6.3491 7.40615,-7.22301c2.41106,-0.48281 3.87206,-0.02496 6.73828,1.82395z" data-paper-data="{&quot;noHover&quot;:false,&quot;origItem&quot;:[&quot;Path&quot;,{&quot;applyMatrix&quot;:true,&quot;segments&quot;:[[[740.47281,393.10575],[0.88282,0.0685],[-1.61718,-0.12942]],[[738.32437,394.54451],[0,-1.24084],[0,0.57856]],[[739.11343,395.37427],[-0.66406,-0.1294],[0.40626,0.06852]],[[741.66031,395.44279],[-0.97656,0.05328],[0,0]],[743.44937,395.37427],[[742.49625,394.30091],[0,0],[-0.8125,-0.92112]]],&quot;closed&quot;:true,&quot;fillColor&quot;:[0,0,0]}]}" fill="#ffffff" stroke-width="0.5"/><path d="M227.54923,156.22654c1.3478,1.42076 3.13751,2.90769 4.00867,3.51845c1.93235,1.25583 5.60589,0.81373 9.59594,-1.10313c2.98263,-1.41285 3.04424,-1.32592 4.01196,-6.12389c0.57887,-2.82119 1.54048,-5.09454 2.21018,-5.43728c0.59196,-0.2988 1.51274,-0.66129 1.42242,-0.26237c-1.06117,7.26246 -1.47705,9.42977 -2.54244,11.24604c-1.11441,1.96191 -1.86796,2.47716 -6.72918,3.78321c-6.76694,1.82191 -9.35844,1.03606 -13.74626,-3.56839c-3.78234,-3.89673 -4.07542,-4.55336 -2.39676,-4.67569c0.60395,-0.01666 2.7796,1.14714 4.16546,2.62304z" data-paper-data="{&quot;noHover&quot;:false,&quot;origItem&quot;:[&quot;Path&quot;,{&quot;applyMatrix&quot;:true,&quot;segments&quot;:[[[732.56655,396.53901],[0.21094,0.0533],[-0.59374,-0.1218]],[[732.94937,398.35841],[-0.9297,-1.72044],[1.07032,2.02494]],[[737.25405,400.83249],[-2.52342,-0.03046],[1.8125,0.02284]],[[739.87905,400.23109],[-0.57812,0.57094],[0.54688,-0.52526]],[[741.85561,396.66843],[-1.07812,2.41316],[0.07032,-0.12942]],[[741.51967,396.53901],[0.23438,-0.04566],[-0.26562,0.05328]],[[740.23061,398.23661],[0.47656,-0.92112],[-0.80468,1.56818]],[[738.20717,400.05601],[1.17188,-0.19792],[-1.57032,0.27406]],[[734.61343,399.45461],[0.54686,0.62424],[-0.24218,-0.29688]],[[733.56655,397.78747],[0.32814,0.62422],[-0.33594,-0.64706]]],&quot;closed&quot;:true,&quot;fillColor&quot;:[0,0,0]}]}" fill="#ffffff" stroke-width="0.5"/><path d="M222.83476,158.1062c2.50552,2.80738 5.4529,5.35063 6.63728,5.87298c3.07028,1.37395 6.56288,1.05594 12.04211,-0.77599c5.89685,-1.94979 6.93657,-2.99778 8.13501,-10.89213c0.41343,-2.92824 1.20419,-5.81425 1.63955,-6.5082c0.77621,-1.16358 1.38145,-1.12092 2.54079,4.5045c3.0787,14.02364 0.73968,18.14735 -12.7692,21.9599c-7.1997,1.96604 -10.67095,1.93721 -13.78251,-0.0621c-2.60363,-1.63747 -4.12881,-4.0352 -7.75085,-11.99679c-3.33024,-7.40695 -3.09714,-6.96733 -2.3246,-7.18536c0.31317,-0.08839 3.18952,2.25816 5.63241,5.08314z" data-paper-data="{&quot;noHover&quot;:false,&quot;origItem&quot;:[&quot;Path&quot;,{&quot;applyMatrix&quot;:true,&quot;segments&quot;:[[[730.47281,395.74731],[0.11718,0],[-0.28906,0]],[[730.58999,398.43453],[-0.42968,-2.89276],[0.47656,3.11352]],[[732.08999,403.26849],[-0.74218,-0.82216],[0.88282,0.99724]],[[736.77749,404.59307],[-2.6875,-0.02284],[5.05468,0]],[[743.25405,398.35841],[-0.30468,5.1613],[0.14844,-2.063]],[[742.99623,396.47051],[0.38282,-0.32734],[-0.21876,0.19792]],[[741.80091,398.58679],[0.4297,-0.9744],[-1.1875,2.61872]],[[737.87903,401.67747],[2.23438,-0.09896],[-2.07812,0.09896]],[[733.47279,400.70307],[0.92968,0.77648],[-0.35938,-0.29688]],[[731.75405,397.96255],[0.59374,1.21802],[-0.57032,-1.218]]],&quot;closed&quot;:true,&quot;fillColor&quot;:[0,0,0]}]}" fill="#ffffff" stroke-width="0.5"/></g><path d="M233.90933,142.94762c-1.01291,0.20659 -4.11831,-2.48758 -4.78222,-4.49874c-0.59403,-1.79945 0.52359,-4.01359 2.9453,-4.50753c2.42173,-0.49393 4.21541,-0.3589 4.78575,3.29866c0.48403,3.10406 -0.52711,5.21368 -2.94884,5.70762z" fill="#ffffff" stroke="#000000" stroke-width="1.15" stroke-linecap="butt"/><path d="M231.42467,112.74113c0,0 0.89387,3.86918 1.42987,6.98171c1.06139,6.16335 4.4882,27.41682 4.4882,27.41682l-2.91979,0.60434c0,0 -1.62065,-3.9281 -2.99905,-9.08368c-1.8658,-6.97854 -3.69656,-15.87471 -4.67147,-19.08368c-0.92412,-3.04181 -2.01988,-5.42021 -2.01988,-5.42021" fill="#ffffff" stroke="#000000" stroke-width="1.3" stroke-linecap="round"/><path d="" fill="#000000" stroke="none" stroke-width="0.5" stroke-linecap="butt"/><g fill="#000000" stroke="none" stroke-width="0.5" stroke-linecap="butt"><path d="M217.33895,117.32359c0.19315,0.947 -0.41797,1.87128 -1.36497,2.06443c-0.81474,0.16618 -1.61267,-0.26296 -1.94266,-0.98915c-0.7974,-0.01923 -1.50476,-0.58536 -1.67094,-1.4001c-0.19315,-0.947 0.41797,-1.87128 1.36497,-2.06443c0.51251,-0.10453 1.01837,0.0265 1.40527,0.31885c0.22817,0.1724 0.41497,0.40091 0.53737,0.67029c0.7974,0.01923 1.50476,0.58536 1.67094,1.4001z"/><path d="M220.9555,119.7132c-0.07256,-0.35575 -0.03162,-0.70831 0.098,-1.0201c-0.33036,-0.14614 -0.6123,-0.39282 -0.79975,-0.70957c-0.15429,0.08656 -0.32445,0.15101 -0.50709,0.18826c-0.947,0.19315 -1.87128,-0.41797 -2.06443,-1.36497c-0.19315,-0.947 0.41797,-1.87128 1.36497,-2.06443c0.75053,-0.15308 1.4868,0.19902 1.85614,0.82313c0.15429,-0.08656 0.32445,-0.15101 0.50709,-0.18826c0.947,-0.19315 1.87128,0.41797 2.06443,1.36497c0.07256,0.35575 0.03162,0.70831 -0.098,1.0201c0.50075,0.22152 0.89028,0.67404 1.00804,1.2514c0.19315,0.947 -0.41797,1.87128 -1.36497,2.06443c-0.947,0.19315 -1.87128,-0.41797 -2.06443,-1.36497z"/><path d="M224.70141,122.74655c-0.19315,-0.947 0.41797,-1.87128 1.36497,-2.06443c0.947,-0.19315 1.87128,0.41797 2.06443,1.36497c0.19315,0.947 -0.41797,1.87128 -1.36497,2.06443c-0.947,0.19315 -1.87128,-0.41797 -2.06443,-1.36497z"/><path d="M244.40312,127.66314c-0.04481,-0.21971 0.0619,-0.43515 0.24849,-0.53793c-0.80769,-0.00774 -1.52828,-0.57718 -1.69622,-1.40053c-0.19315,-0.947 0.41797,-1.87128 1.36497,-2.06443c0.947,-0.19315 1.87128,0.41797 2.06443,1.36497c0.19175,0.94013 -0.40914,1.85787 -1.3444,2.06011c0.16886,0.05223 0.30474,0.19257 0.34256,0.37797c0.05519,0.27057 -0.11942,0.53465 -0.38999,0.58984c-0.27057,0.05519 -0.53465,-0.11942 -0.58984,-0.38999z"/><path d="M247.50263,125.02061c-0.19315,-0.947 0.41797,-1.87128 1.36497,-2.06443c0.947,-0.19315 1.87128,0.41797 2.06443,1.36497c0.19315,0.947 -0.41797,1.87128 -1.36497,2.06443c-0.947,0.19315 -1.87128,-0.41797 -2.06443,-1.36497z"/><path d="M241.14258,128.10479c-0.01679,-0.08234 -0.0123,-0.1641 0.0097,-0.23953c-0.06701,0.02239 -0.1361,0.04098 -0.20707,0.05545c-0.947,0.19315 -1.87128,-0.41797 -2.06443,-1.36497c-0.11101,-0.54428 0.04364,-1.08106 0.37506,-1.47582c-0.13165,0.06478 -0.27366,0.11394 -0.42415,0.14463c-0.947,0.19315 -1.87128,-0.41797 -2.06443,-1.36497c-0.05089,-0.24948 -0.04594,-0.49738 0.00623,-0.73076c-0.86056,-0.63773 -1.49781,-1.58317 -1.72872,-2.71528c-0.01356,-0.06646 -0.02557,-0.13287 -0.03606,-0.19921c-0.29406,0.13093 -0.60681,0.23212 -0.93526,0.29912c-0.91148,0.1859 -1.81479,0.08207 -2.61437,-0.24837c-0.1346,0.06044 -0.27314,0.11463 -0.41532,0.16216c0.72883,0.08684 1.35262,0.62988 1.50734,1.38842c0.04685,0.22967 0.04638,0.45801 0.00529,0.67491c0.04163,-0.01174 0.08398,-0.02203 0.12704,-0.03081c0.947,-0.19315 1.87128,0.41797 2.06443,1.36497c0.19315,0.947 -0.41797,1.87128 -1.36497,2.06443c-0.947,0.19315 -1.87128,-0.41797 -2.06443,-1.36497c-0.04685,-0.22967 -0.04638,-0.45801 -0.00529,-0.67491c-0.04163,0.01174 -0.08398,0.02203 -0.12704,0.03081c-0.947,0.19315 -1.87128,-0.41797 -2.06443,-1.36497c-0.15471,-0.75854 0.20659,-1.50251 0.84319,-1.86783c-2.23495,0.17877 -4.30301,-1.33475 -4.76243,-3.58727c-0.11891,-0.583 -0.11928,-1.16265 -0.01764,-1.71394c-1.43079,-0.21631 -2.68802,-1.1176 -3.34566,-2.42218c-0.53134,0.41544 -1.16456,0.71731 -1.87034,0.86126c-1.71012,0.3488 -3.39143,-0.32237 -4.41301,-1.59632c-0.18451,0.06355 -0.37526,0.11583 -0.57164,0.15588c-0.03427,0.00699 -0.06854,0.01358 -0.10278,0.01975c-0.63531,0.95851 -1.6358,1.6751 -2.85156,1.92306c-0.03864,0.00788 -0.07727,0.01524 -0.11589,0.02208c-0.62025,1.08596 -1.68751,1.90935 -3.00919,2.17891c-1.69274,0.34525 -2.6482,0.56275 -2.3065,0.73845c0.24559,-0.29549 0.58969,-0.51249 0.99546,-0.59525c0.947,-0.19315 1.87128,0.41797 2.06443,1.36497c0.19315,0.947 -0.41797,1.87128 -1.36497,2.06443c-0.40577,0.08276 -0.80737,0.01786 -1.14907,-0.15785c-0.24559,0.29549 -0.58969,0.51249 -0.99546,0.59525c-0.70644,0.14408 -1.40025,-0.15939 -1.78732,-0.71601c0.02542,1.11743 0.01821,2.25432 -0.13525,3.26208c0.24301,-0.41093 0.65225,-0.72144 1.15687,-0.82435c0.31728,-0.06472 0.63199,-0.03914 0.91754,0.05908c-0.0795,-0.87625 0.51123,-1.69073 1.39347,-1.87067c0.947,-0.19315 1.87128,0.41797 2.06443,1.36497c0.19315,0.947 -0.41797,1.87128 -1.36497,2.06443c-0.31728,0.06472 -0.63199,0.03914 -0.91754,-0.05908c0.04633,0.51073 -0.13501,1.00046 -0.46907,1.35581c0.08788,0.15553 0.15326,0.32725 0.19087,0.51173c0.15436,0.75684 -0.20498,1.49918 -0.83893,1.86537c-0.2375,0.24718 -0.54991,0.42729 -0.9112,0.50099c-0.947,0.19315 -1.87128,-0.41797 -2.06443,-1.36497c-0.15308,-0.75053 0.19902,-1.4868 0.82313,-1.85614c-0.08656,-0.15429 -0.15101,-0.32445 -0.18826,-0.50709c-0.01252,-0.06138 -0.02166,-0.12266 -0.02755,-0.18365c-0.36722,1.18267 -1.0652,2.04196 -2.35861,2.23177c-1.23918,0.18185 -2.50449,0.23289 -3.75428,0.15147c-3.36574,-0.21925 -3.2372,-5.90736 -3.68852,-8.13436c-0.89678,-4.42498 -7.50702,-11.61946 -0.51867,-14.73918l0.0196,-0.44746c0.72619,-2.44458 0.79372,-5.0544 2.74611,-6.9177c3.63629,-3.47033 9.06165,-3.75792 13.15251,-6.5059c3.50301,-2.35309 5.53574,-6.39287 9.49276,-8.28572c2.38747,-1.14204 5.84848,-1.71992 7.54533,0.64276c0.31973,0.44518 0.94098,-0.56386 1.39178,-0.87562c0.92006,-0.6363 2.12571,-1.28251 2.94429,-1.99999c0.45209,-0.39625 0.74785,-0.8076 1.29398,-1.0162c3.63871,-1.38971 13.55104,-6.02051 16.60244,-5.11406c4.52465,1.3441 2.8445,7.58877 3.75732,10.68242c0.40331,1.36693 2.23915,2.32095 2.83297,3.56236c0.41161,0.86048 0.62607,2.71824 0.83476,3.46837c0.50108,1.80113 3.01952,3.98751 3.89274,5.94355c1.43309,3.21021 2.63473,13.47708 1.10222,17.48125c-1.06962,2.79475 -2.54078,3.8139 -4.19614,4.0676c-0.05271,2.04748 -1.50751,3.8626 -3.6001,4.28941c-1.20628,0.24603 -2.39822,-0.01542 -3.35438,-0.63794c-0.58112,0.5325 -1.30965,0.9191 -2.13815,1.08808c-1.72983,0.35282 -3.43017,-0.33797 -4.44807,-1.64061c-0.5795,1.2568 -1.72901,2.23036 -3.189,2.52815c-0.05966,0.01217 -0.11928,0.02309 -0.17885,0.03281c-0.06634,0.25075 -0.18763,0.48287 -0.35286,0.67969c0.13165,-0.06478 0.27366,-0.11394 0.42415,-0.14463c0.947,-0.19315 1.87128,0.41797 2.06443,1.36497c0.12976,0.63622 -0.10348,1.26218 -0.55769,1.66307c0.18141,0.04496 0.33009,0.19027 0.36993,0.38559c0.05519,0.27057 -0.11942,0.53465 -0.38999,0.58984c-0.27057,0.05519 -0.53465,-0.11942 -0.58984,-0.38999z"/><path d="M211.50138,121.86484c-0.05519,-0.27057 0.11942,-0.53465 0.38999,-0.58984c0.27057,-0.05519 0.53465,0.11942 0.58984,0.38999c0.05519,0.27057 -0.11942,0.53465 -0.38999,0.58984c-0.27057,0.05519 -0.53465,-0.11942 -0.58984,-0.38999z"/><path d="M208.42429,125.39629c-0.05519,-0.27057 0.11942,-0.53465 0.38999,-0.58984c0.27057,-0.05519 0.53465,0.11942 0.58984,0.38999c0.05519,0.27057 -0.11942,0.53465 -0.38999,0.58984c-0.27057,0.05519 -0.53465,-0.11942 -0.58984,-0.38999z"/><path d="M212.9673,123.57621c-0.0512,-0.25107 0.09544,-0.49654 0.33303,-0.57471c-0.02111,-0.24922 0.14732,-0.48029 0.39838,-0.5315c0.27057,-0.05519 0.53465,0.11942 0.58984,0.38999c0.05097,0.24991 -0.0941,0.49428 -0.32975,0.57363c-0.00109,0.00036 -0.00218,0.00073 -0.00328,0.00109c0.02111,0.24922 -0.14732,0.48029 -0.39838,0.5315c-0.27057,0.05519 -0.53465,-0.11942 -0.58984,-0.38999z"/><path d="M215.18657,120.21971c-0.05519,-0.27057 0.11942,-0.53465 0.38999,-0.58984c0.27057,-0.05519 0.53465,0.11942 0.58984,0.38999c0.05519,0.27057 -0.11942,0.53465 -0.38999,0.58984c-0.27057,0.05519 -0.53465,-0.11942 -0.58984,-0.38999z"/><path d="M216.95442,122.31626c-0.05519,-0.27057 0.11942,-0.53465 0.38999,-0.58984c0.18463,-0.03766 0.36623,0.03168 0.48051,0.16549c0.05274,-0.16788 0.19269,-0.30279 0.37732,-0.34045c0.27057,-0.05519 0.53465,0.11942 0.58984,0.38999c0.05519,0.27057 -0.11942,0.53465 -0.38999,0.58984c-0.18463,0.03766 -0.36623,-0.03168 -0.48051,-0.16549c-0.05274,0.16788 -0.19269,0.30279 -0.37732,0.34045c-0.27057,0.05519 -0.53465,-0.11942 -0.58984,-0.38999z"/><path d="M210.37688,119.63707c-0.05519,-0.27057 0.11942,-0.53465 0.38999,-0.58984c0.27057,-0.05519 0.53465,0.11942 0.58984,0.38999c0.05519,0.27057 -0.11942,0.53465 -0.38999,0.58984c-0.27057,0.05519 -0.53465,-0.11942 -0.58984,-0.38999z"/><path d="M218.02244,120.98156c-0.05519,-0.27057 0.11942,-0.53465 0.38999,-0.58984c0.27057,-0.05519 0.53465,0.11942 0.58984,0.38999c0.05519,0.27057 -0.11942,0.53465 -0.38999,0.58984c-0.27057,0.05519 -0.53465,-0.11942 -0.58984,-0.38999z"/><path d="M221.16025,122.12856c-0.05519,-0.27057 0.11942,-0.53465 0.38999,-0.58984c0.27057,-0.05519 0.53465,0.11942 0.58984,0.38999c0.05519,0.27057 -0.11942,0.53465 -0.38999,0.58984c-0.27057,0.05519 -0.53465,-0.11942 -0.58984,-0.38999z"/><path d="M221.03753,123.7172c-0.0344,-0.16868 0.0205,-0.33483 0.13228,-0.44942c-0.00194,-0.00766 -0.00371,-0.0154 -0.00531,-0.02323c-0.05519,-0.27057 0.11942,-0.53465 0.38999,-0.58984c0.27057,-0.05519 0.53465,0.11942 0.58984,0.38999c0.0344,0.16868 -0.0205,0.33483 -0.13228,0.44942c0.00194,0.00766 0.00371,0.0154 0.00531,0.02323c0.05519,0.27057 -0.11942,0.53465 -0.38999,0.58984c-0.27057,0.05519 -0.53465,-0.11942 -0.58984,-0.38999z"/><path d="M219.3529,120.93356c-0.05519,-0.27057 0.11942,-0.53465 0.38999,-0.58984c0.27057,-0.05519 0.53465,0.11942 0.58984,0.38999c0.05519,0.27057 -0.11942,0.53465 -0.38999,0.58984c-0.27057,0.05519 -0.53465,-0.11942 -0.58984,-0.38999z"/><path d="M210.4376,124.31555c-0.05519,-0.27057 0.11942,-0.53465 0.38999,-0.58984c0.27057,-0.05519 0.53465,0.11942 0.58984,0.38999c0.05519,0.27057 -0.11942,0.53465 -0.38999,0.58984c-0.27057,0.05519 -0.53465,-0.11942 -0.58984,-0.38999z"/><path d="M214.86212,125.20011c-0.05519,-0.27057 0.11942,-0.53465 0.38999,-0.58984c0.27057,-0.05519 0.53465,0.11942 0.58984,0.38999c0.05519,0.27057 -0.11942,0.53465 -0.38999,0.58984c-0.27057,0.05519 -0.53465,-0.11942 -0.58984,-0.38999z"/><path d="M208.77421,127.11193c-0.05519,-0.27057 0.11942,-0.53465 0.38999,-0.58984c0.27057,-0.05519 0.53465,0.11942 0.58984,0.38999c0.05519,0.27057 -0.11942,0.53465 -0.38999,0.58984c-0.27057,0.05519 -0.53465,-0.11942 -0.58984,-0.38999z"/><path d="M206.59019,128.45087c-0.05519,-0.27057 0.11942,-0.53465 0.38999,-0.58984c0.27057,-0.05519 0.53465,0.11942 0.58984,0.38999c0.05519,0.27057 -0.11942,0.53465 -0.38999,0.58984c-0.27057,0.05519 -0.53465,-0.11942 -0.58984,-0.38999z"/><path d="M212.20546,126.41209c-0.05519,-0.27057 0.11942,-0.53465 0.38999,-0.58984c0.27057,-0.05519 0.53465,0.11942 0.58984,0.38999c0.05519,0.27057 -0.11942,0.53465 -0.38999,0.58984c-0.27057,0.05519 -0.53465,-0.11942 -0.58984,-0.38999z"/><path d="M215.06809,122.92435c-0.05519,-0.27057 0.11942,-0.53465 0.38999,-0.58984c0.27057,-0.05519 0.53465,0.11942 0.58984,0.38999c0.05519,0.27057 -0.11942,0.53465 -0.38999,0.58984c-0.27057,0.05519 -0.53465,-0.11942 -0.58984,-0.38999z"/><path d="M216.87543,124.11935c-0.05519,-0.27057 0.11942,-0.53465 0.38999,-0.58984c0.27057,-0.05519 0.53465,0.11942 0.58984,0.38999c0.05519,0.27057 -0.11942,0.53465 -0.38999,0.58984c-0.27057,0.05519 -0.53465,-0.11942 -0.58984,-0.38999z"/><path d="M218.59106,123.76944c-0.05519,-0.27057 0.11942,-0.53465 0.38999,-0.58984c0.27057,-0.05519 0.53465,0.11942 0.58984,0.38999c0.05519,0.27057 -0.11942,0.53465 -0.38999,0.58984c-0.27057,0.05519 -0.53465,-0.11942 -0.58984,-0.38999z"/><path d="M223.71245,116.02366c-0.05519,-0.27057 0.11942,-0.53465 0.38999,-0.58984c0.27057,-0.05519 0.53465,0.11942 0.58984,0.38999c0.05519,0.27057 -0.11942,0.53465 -0.38999,0.58984c-0.27057,0.05519 -0.53465,-0.11942 -0.58984,-0.38999z"/><path d="M224.70998,118.72406c-0.05519,-0.27057 0.11942,-0.53465 0.38999,-0.58984c0.27057,-0.05519 0.53465,0.11942 0.58984,0.38999c0.05519,0.27057 -0.11942,0.53465 -0.38999,0.58984c-0.27057,0.05519 -0.53465,-0.11942 -0.58984,-0.38999z"/><path d="M223.47973,122.54897c-0.05519,-0.27057 0.11942,-0.53465 0.38999,-0.58984c0.27057,-0.05519 0.53465,0.11942 0.58984,0.38999c0.05519,0.27057 -0.11942,0.53465 -0.38999,0.58984c-0.27057,0.05519 -0.53465,-0.11942 -0.58984,-0.38999z"/><path d="M235.25213,125.50884c-0.05519,-0.27057 0.11942,-0.53465 0.38999,-0.58984c0.27057,-0.05519 0.53465,0.11942 0.58984,0.38999c0.05519,0.27057 -0.11942,0.53465 -0.38999,0.58984c-0.27057,0.05519 -0.53465,-0.11942 -0.58984,-0.38999z"/><path d="M233.90894,122.20882c-0.05519,-0.27057 0.11942,-0.53465 0.38999,-0.58984c0.27057,-0.05519 0.53465,0.11942 0.58984,0.38999c0.05519,0.27057 -0.11942,0.53465 -0.38999,0.58984c-0.27057,0.05519 -0.53465,-0.11942 -0.58984,-0.38999z"/><path d="M226.66977,126.14243c-0.05519,-0.27057 0.11942,-0.53465 0.38999,-0.58984c0.27057,-0.05519 0.53465,0.11942 0.58984,0.38999c0.05519,0.27057 -0.11942,0.53465 -0.38999,0.58984c-0.27057,0.05519 -0.53465,-0.11942 -0.58984,-0.38999z"/><path d="M223.44874,125.68253c-0.05519,-0.27057 0.11942,-0.53465 0.38999,-0.58984c0.27057,-0.05519 0.53465,0.11942 0.58984,0.38999c0.05519,0.27057 -0.11942,0.53465 -0.38999,0.58984c-0.27057,0.05519 -0.53465,-0.11942 -0.58984,-0.38999z"/><path d="M227.6983,125.70929c-0.05519,-0.27057 0.11942,-0.53465 0.38999,-0.58984c0.27057,-0.05519 0.53465,0.11942 0.58984,0.38999c0.05519,0.27057 -0.11942,0.53465 -0.38999,0.58984c-0.27057,0.05519 -0.53465,-0.11942 -0.58984,-0.38999z"/><path d="M229.33069,126.04646c-0.05519,-0.27057 0.11942,-0.53465 0.38999,-0.58984c0.27057,-0.05519 0.53465,0.11942 0.58984,0.38999c0.05519,0.27057 -0.11942,0.53465 -0.38999,0.58984c-0.27057,0.05519 -0.53465,-0.11942 -0.58984,-0.38999z"/><path d="M231.90837,126.63759c-0.05519,-0.27057 0.11942,-0.53465 0.38999,-0.58984c0.27057,-0.05519 0.53465,0.11942 0.58984,0.38999c0.05519,0.27057 -0.11942,0.53465 -0.38999,0.58984c-0.27057,0.05519 -0.53465,-0.11942 -0.58984,-0.38999z"/><path d="M233.88643,127.57439c-0.05519,-0.27057 0.11942,-0.53465 0.38999,-0.58984c0.27057,-0.05519 0.53465,0.11942 0.58984,0.38999c0.05519,0.27057 -0.11942,0.53465 -0.38999,0.58984c-0.27057,0.05519 -0.53465,-0.11942 -0.58984,-0.38999z"/><path d="M237.79458,128.11754c-0.05519,-0.27057 0.11942,-0.53465 0.38999,-0.58984c0.27057,-0.05519 0.53465,0.11942 0.58984,0.38999c0.05519,0.27057 -0.11942,0.53465 -0.38999,0.58984c-0.27057,0.05519 -0.53465,-0.11942 -0.58984,-0.38999z"/><path d="M242.4293,127.84235c-0.05519,-0.27057 0.11942,-0.53465 0.38999,-0.58984c0.27057,-0.05519 0.53465,0.11942 0.58984,0.38999c0.05519,0.27057 -0.11942,0.53465 -0.38999,0.58984c-0.27057,0.05519 -0.53465,-0.11942 -0.58984,-0.38999z"/><path d="M247.44919,127.26523c-0.05519,-0.27057 0.11942,-0.53465 0.38999,-0.58984c0.27057,-0.05519 0.53465,0.11942 0.58984,0.38999c0.05519,0.27057 -0.11942,0.53465 -0.38999,0.58984c-0.27057,0.05519 -0.53465,-0.11942 -0.58984,-0.38999z"/><path d="M248.82337,127.43171c-0.05519,-0.27057 0.11942,-0.53465 0.38999,-0.58984c0.27057,-0.05519 0.53465,0.11942 0.58984,0.38999c0.05519,0.27057 -0.11942,0.53465 -0.38999,0.58984c-0.27057,0.05519 -0.53465,-0.11942 -0.58984,-0.38999z"/><path d="M252.46908,126.68813c-0.05519,-0.27057 0.11942,-0.53465 0.38999,-0.58984c0.27057,-0.05519 0.53465,0.11942 0.58984,0.38999c0.05519,0.27057 -0.11942,0.53465 -0.38999,0.58984c-0.27057,0.05519 -0.53465,-0.11942 -0.58984,-0.38999z"/></g><path d="M205.27722,118.26439c-0.90812,-4.80737 2.9549,-9.72275 8.23511,-10.72021c5.2802,-0.99745 9.69416,2.35865 10.6023,7.16603c0.90812,4.80737 -2.28282,9.44105 -7.56303,10.43851c-5.2802,0.99745 -10.36625,-2.07695 -11.27438,-6.88433z" fill="#ffffff" stroke="#000000" stroke-width="1.4" stroke-linecap="butt"/><path d="M209.89386,117.44316c-0.51208,-2.71078 1.27032,-5.32338 3.98108,-5.83546c2.71078,-0.51208 5.32338,1.27032 5.83546,3.98108c0.51208,2.71078 -1.27031,5.32338 -3.98108,5.83546c-2.71078,0.51208 -5.32338,-1.27032 -5.83546,-3.98108z" fill="#000000" stroke="none" stroke-width="1.5" stroke-linecap="butt"/><path d="M231.78785,112.85803c-0.77746,-4.83024 2.59249,-9.56961 7.80306,-10.63236c5.21056,-1.06275 9.88004,2.03259 10.85777,6.82629c0.97773,4.7937 -1.99465,9.66462 -7.67701,10.8959c-5.40495,1.17117 -10.17187,-2.04538 -10.98382,-7.08983z" fill="#000000" stroke="#ffffff" stroke-width="1.4" stroke-linecap="butt"/><path d="M236.23318,112.03867c-0.56326,-2.7616 1.21885,-5.45691 3.98044,-6.02017c2.7616,-0.56326 5.45691,1.21885 6.02017,3.98044c0.56326,2.7616 -1.21884,5.45691 -3.98044,6.02017c-2.7616,0.56326 -5.45691,-1.21885 -6.02017,-3.98044z" fill="#ffffff" stroke="none" stroke-width="1.5" stroke-linecap="butt"/><path d="M213.56092,107.87309c5.2802,-0.99745 9.69416,2.35865 10.6023,7.16603c0.15089,0.79884 0.18863,1.59289 0.12237,2.36626c-0.28299,0.04108 -0.56992,0.07615 -0.86254,0.10172c-1.36577,0.11938 -2.10631,-1.26894 -3.38506,0.01673c-1.26241,1.27206 -1.60109,-0.47926 -3.01936,-1.0463c-0.61268,-0.24495 -2.81382,0.88488 -3.1297,1.36261c-1.15208,1.16727 -1.08722,-0.71973 -1.96685,-1.1669c-0.37271,-0.18947 -3.47668,0.15336 -3.5898,0.29239c-0.27334,0.42359 -1.90342,0.29992 -3.13415,-0.0719c0.1509,-4.2132 3.7056,-8.14088 8.3628,-9.02065z" fill="#000000" stroke="#ffffff" stroke-width="1.4" stroke-linecap="butt"/><path d="M213.92354,111.93661c2.71078,-0.51208 5.32338,1.27032 5.83546,3.98108c0.12585,0.66627 0.11311,1.32661 -0.01797,1.95128c-0.45511,0.18511 -0.84935,-0.20176 -1.39143,-0.80308c-0.47759,-0.52979 -1.03747,-1.34686 -2.31081,-0.3885c-0.61268,-0.24495 -2.16061,0.75165 -2.47649,1.22938c-1.15208,1.16727 -0.90725,-0.67138 -1.7869,-1.11855c-0.21783,-0.11074 -0.97702,-0.20457 -1.91842,-0.09862c0.0691,-2.29244 1.71999,-4.30972 4.06654,-4.753z" fill="#ffffff" stroke="none" stroke-width="1.5" stroke-linecap="butt"/><path d="M177.40997,110.70586c-0.38289,0.86415 -1.23536,3.89756 -2.26653,4.07956c-1.06248,0.18752 -1.48478,-1.11269 -1.29505,-1.86503c0.36345,-1.44116 1.83063,-3.26987 3.16816,-3.79397c0,0 0.46844,-0.17482 0.64326,0.29362c0.11647,0.3121 -0.05259,0.49386 -0.17842,0.58043c0.00375,0.03754 0.00327,0.07573 -0.00171,0.11384l-0.05478,0.5126l-0.03112,-0.00333z" fill="#000000" stroke="none" stroke-width="0.5" stroke-linecap="butt"/><path d="M186.30741,144.8654c-0.31397,0.89151 -0.92602,3.98241 -1.93975,4.24468c-1.04451,0.27023 -1.56743,-0.99287 -1.43726,-1.75776c0.24935,-1.46521 1.56866,-3.40332 2.86099,-4.03066c0,0 0.45329,-0.211 0.6643,0.24229c0.14058,0.30201 -0.01371,0.49647 -0.13236,0.59263c0.00668,0.03713 0.0092,0.07524 0.00722,0.11362l-0.01443,0.51532l-0.03129,-0.00088z" fill="#000000" stroke="none" stroke-width="0.5" stroke-linecap="butt"/></g></g></svg>