<svg version="1.1" xmlns="http://www.w3.org/2000/svg" xmlns:xlink="http://www.w3.org/1999/xlink" width="491.33333" height="369.48102" viewBox="0,0,491.33333,369.48102"><g transform="translate(5.5,5.5)"><g data-paper-data="{&quot;isPaintingLayer&quot;:true}" stroke-miterlimit="10" stroke-dasharray="" stroke-dashoffset="0" style="mix-blend-mode: normal"><path d="M-5.38905,-3.98101h490.7781v367.96203h-490.7781z" fill="#000000" fill-rule="evenodd" stroke="none" stroke-width="2.07968" stroke-linecap="round" stroke-linejoin="round"/><path d="M-5.5,55.08069v-60.58069h491.33333v60.58069z" fill="#666666" fill-rule="nonzero" stroke="none" stroke-width="0" stroke-linecap="butt" stroke-linejoin="miter"/><path d="M201.36095,352.38196c-0.00002,0.02694 -0.02188,0.04879 -0.04884,0.04879c-0.02694,0 -0.04881,-0.02184 -0.04884,-0.04879c0.00002,-0.02694 0.02188,-0.04879 0.04884,-0.04879c0.02694,0 0.04881,0.02184 0.04884,0.04879z" fill="#ffffff" fill-rule="nonzero" stroke="#000000" stroke-width="0.27531" stroke-linecap="butt" stroke-linejoin="miter"/><g fill="#ffffff" fill-rule="evenodd" stroke="none" stroke-width="8.97707" stroke-linecap="round" stroke-linejoin="round"><path d="M23.49964,22.71956c-0.13767,-0.13767 -0.39335,-0.3245 -0.76703,-0.5605c-0.35401,-0.23601 -0.79652,-0.46217 -1.32752,-0.67852c-0.51134,-0.21634 -1.07185,-0.40317 -1.68152,-0.5605c-0.60968,-0.177 -1.2292,-0.2655 -1.85853,-0.2655c-1.10135,0 -1.9372,0.2065 -2.50754,0.61951c-0.55067,0.41301 -0.82601,0.99317 -0.82601,1.74052c0,0.57035 0.177,1.0227 0.531,1.35703c0.35401,0.33433 0.88502,0.6195 1.59303,0.85551c0.70801,0.23601 1.59302,0.49167 2.65504,0.76701c1.37669,0.33433 2.56655,0.74734 3.56956,1.23903c1.02269,0.47201 1.79953,1.10135 2.33053,1.88802c0.55067,0.76701 0.82601,1.7897 0.82601,3.06805c0,1.12102 -0.20649,2.08469 -0.6195,2.89105c-0.41301,0.78667 -0.98334,1.42586 -1.71103,1.91755c-0.72768,0.49167 -1.5537,0.85551 -2.47805,1.09152c-0.92435,0.21634 -1.90771,0.3245 -2.95005,0.3245c-1.04235,0 -2.0847,-0.10816 -3.12705,-0.3245c-1.04235,-0.21634 -2.04536,-0.52117 -3.00904,-0.91451c-0.96368,-0.41301 -1.84869,-0.90468 -2.65504,-1.47503l1.79952,-3.51056c0.177,0.177 0.49167,0.41301 0.94401,0.70802c0.45234,0.27533 1.00301,0.56049 1.65203,0.85551c0.64902,0.27533 1.35702,0.51135 2.12404,0.70802c0.76701,0.19667 1.54386,0.295 2.33053,0.295c1.10135,0 1.9372,-0.18684 2.50754,-0.5605c0.57035,-0.37367 0.85552,-0.90468 0.85552,-1.59303c0,-0.62934 -0.22618,-1.12102 -0.67852,-1.47501c-0.45234,-0.35401 -1.08168,-0.65884 -1.88802,-0.91451c-0.80636,-0.27533 -1.76019,-0.57035 -2.86155,-0.88502c-1.31769,-0.37367 -2.41904,-0.78669 -3.30406,-1.23903c-0.88501,-0.47201 -1.54386,-1.06201 -1.97654,-1.77002c-0.43267,-0.70801 -0.64902,-1.59304 -0.64902,-2.65505c0,-1.43569 0.33433,-2.63538 1.00301,-3.59905c0.68834,-0.98335 1.61269,-1.72087 2.77306,-2.21254c1.16035,-0.51134 2.44854,-0.76701 3.86456,-0.76701c0.98335,0 1.90771,0.10816 2.77306,0.3245c0.88501,0.21634 1.71103,0.50151 2.47804,0.85552c0.76701,0.35401 1.45535,0.73751 2.06503,1.15052z"/><path d="M43.6485,34.60826v3.56956h-14.54374v-20.94536h14.27824v3.56956h-10.20717v5.04459h8.82066v3.30406h-8.82066v5.45759z"/><path d="M62.49932,20.80202h-6.69662v17.3758h-4.04156v-17.3758h-6.69662v-3.56956h17.4348z"/><path d="M80.76012,20.80202h-6.69662v17.3758h-4.04158v-17.3758h-6.69661v-3.56956h17.4348z"/><path d="M83.35613,38.17782v-20.94536h4.07107v20.94536z"/><path d="M95.86432,24.72558v13.45223h-4.07107v-20.94536h3.24506l10.8267,13.80623v-13.77673h4.07107v20.91586h-3.39257z"/><path d="M123.0048,38.32531c-1.35701,0 -2.64521,-0.27533 -3.86455,-0.82602c-1.19968,-0.55067 -2.26172,-1.30786 -3.18605,-2.27153c-0.90466,-0.98335 -1.61268,-2.12405 -2.12404,-3.42206c-0.51133,-1.29802 -0.76701,-2.70421 -0.76701,-4.21857c0,-1.43569 0.25568,-2.78287 0.76701,-4.04156c0.51135,-1.27836 1.22918,-2.39938 2.15353,-3.36306c0.92434,-0.96368 2.00605,-1.72086 3.24508,-2.27153c1.23903,-0.55069 2.58619,-0.82602 4.04155,-0.82602c1.9667,0 3.64822,0.42284 5.04459,1.26852c1.41602,0.82602 2.47805,1.92737 3.18605,3.30406l-3.03856,2.24204c-0.53099,-1.04235 -1.27834,-1.83886 -2.24203,-2.38955c-0.94402,-0.55067 -1.97654,-0.82601 -3.09755,-0.82601c-0.88501,0 -1.69135,0.18683 -2.41904,0.56049c-0.72768,0.37367 -1.35703,0.88502 -1.88802,1.53404c-0.53101,0.64902 -0.94402,1.39635 -1.23903,2.24203c-0.27534,0.84568 -0.41301,1.74053 -0.41301,2.68454c0,1.00301 0.1476,1.92737 0.44251,2.77306c0.31466,0.84568 0.74733,1.5832 1.29801,2.21254c0.57035,0.62934 1.22918,1.13085 1.97654,1.50453c0.74734,0.35401 1.57336,0.531 2.47805,0.531c1.06201,0 2.07486,-0.27532 3.03856,-0.82601c0.98333,-0.55069 1.60099,-1.35703 2.44669,-2.41905v4.01206c-1.75038,1.88802 -3.4989,2.83206 -5.83926,2.83206zM128.84591,30.38969h-4.21858v-2.97955h7.58164v10.76768h-3.36306z"/><path d="M148.16873,22.71956c-0.13772,-0.13767 -0.39338,-0.3245 -0.767,-0.5605c-0.35401,-0.23601 -0.79652,-0.46217 -1.32753,-0.67852c-0.51133,-0.21634 -1.07185,-0.40317 -1.68154,-0.5605c-0.60968,-0.177 -1.22917,-0.2655 -1.85852,-0.2655c-1.10135,0 -1.9372,0.2065 -2.50754,0.61951c-0.55069,0.41301 -0.82602,0.99317 -0.82602,1.74052c0,0.57035 0.17701,1.0227 0.53101,1.35703c0.35401,0.33433 0.88501,0.6195 1.59302,0.85551c0.70802,0.23601 1.59304,0.49167 2.65505,0.76701c1.3767,0.33433 2.56655,0.74734 3.56956,1.23903c1.02269,0.47201 1.79953,1.10135 2.33052,1.88802c0.55069,0.76701 0.82602,1.7897 0.82602,3.06805c0,1.12102 -0.2065,2.08469 -0.6195,2.89105c-0.41302,0.78667 -0.98337,1.42586 -1.71105,1.91755c-0.72767,0.49167 -1.55368,0.85551 -2.47803,1.09152c-0.92435,0.21634 -1.90771,0.3245 -2.95005,0.3245c-1.04235,0 -2.08469,-0.10816 -3.12704,-0.3245c-1.04236,-0.21634 -2.04539,-0.52117 -3.00907,-0.91451c-0.96368,-0.41301 -1.84869,-0.90468 -2.65504,-1.47503l1.79953,-3.51056c0.177,0.177 0.49167,0.41301 0.94402,0.70802c0.45235,0.27533 1.00301,0.56049 1.65203,0.85551c0.64902,0.27533 1.35701,0.51135 2.12402,0.70802c0.76701,0.19667 1.54385,0.295 2.33052,0.295c1.10135,0 1.93721,-0.18684 2.50755,-0.5605c0.57035,-0.37367 0.85551,-0.90468 0.85551,-1.59303c0,-0.62934 -0.22617,-1.12102 -0.67852,-1.47501c-0.45233,-0.35401 -1.08167,-0.65884 -1.88801,-0.91451c-0.80636,-0.27533 -1.7602,-0.57035 -2.86155,-0.88502c-1.31768,-0.37367 -2.41905,-0.78669 -3.30407,-1.23903c-0.88501,-0.47201 -1.54384,-1.06201 -1.97653,-1.77002c-0.43268,-0.70801 -0.64903,-1.59304 -0.64903,-2.65505c0,-1.43569 0.33435,-2.63538 1.00304,-3.59905c0.68834,-0.98335 1.61268,-1.72087 2.77302,-2.21254c1.16035,-0.51134 2.44855,-0.76701 3.86457,-0.76701c0.98334,0 1.9077,0.10816 2.77303,0.3245c0.88502,0.21634 1.71103,0.50151 2.47804,0.85552c0.76701,0.35401 1.45535,0.73751 2.06504,1.15052z"/></g><path d="M467.76779,117.61081l-454.14356,-0.00002" fill="#ffffff" fill-rule="evenodd" stroke="#b2b2b2" stroke-width="0.8" stroke-linecap="round" stroke-linejoin="round"/><text transform="translate(17.92932,96.70174) scale(0.75762,0.75762)" font-size="40" xml:space="preserve" fill="#d0d0d0" fill-rule="nonzero" stroke="none" stroke-width="1" stroke-linecap="butt" stroke-linejoin="miter" stroke-miterlimit="10" stroke-dasharray="" stroke-dashoffset="0" font-family="Sans Serif" font-weight="normal" text-anchor="start" style="mix-blend-mode: normal"><tspan x="0" dy="0">Light Mode</tspan></text><text transform="translate(16.10021,140.28458) scale(0.40501,0.40501)" font-size="40" xml:space="preserve" fill="#d0d0d0" fill-rule="nonzero" stroke="none" stroke-width="1" stroke-linecap="butt" stroke-linejoin="miter" stroke-miterlimit="10" stroke-dasharray="" stroke-dashoffset="0" font-family="&quot;ヒラギノ角ゴ Pro W3&quot;, &quot;Hiragino Kaku Gothic Pro&quot;, Osaka, &quot;メイリオ&quot;, Meiryo, &quot;ＭＳ Ｐゴシック&quot;, &quot;MS PGothic&quot;" font-weight="normal" text-anchor="start" style="mix-blend-mode: normal"><tspan x="0" dy="0">CREDITS:</tspan><tspan x="0" dy="46.150000000000006px"> </tspan><tspan x="0" dy="46.150000000000006px">superpizzalover26 (B1, B3, V1, V4, M3, E1 &amp; The Thumbnail)</tspan><tspan x="0" dy="46.150000000000006px"> </tspan><tspan x="0" dy="46.150000000000006px">mr-re461 (B2, B5)</tspan><tspan x="0" dy="46.150000000000006px">IncrediboxModMaker (M2, Polo 2 in Glitch, V3)</tspan><tspan x="0" dy="46.150000000000006px">greenvrgt (M1, E2)</tspan><tspan x="0" dy="46.150000000000006px">XAVVIERLEE_TwT (M5)</tspan><tspan x="0" dy="46.150000000000006px">nikkipikexo (V5)</tspan><tspan x="0" dy="46.150000000000006px">Pootismansanvich (BG sound for V3, M4)</tspan><tspan x="0" dy="46.150000000000006px"> </tspan><tspan x="0" dy="46.150000000000006px">All sounds and animations by yours truly :3 (apart from V3)</tspan></text></g></g></svg>