<svg version="1.1" xmlns="http://www.w3.org/2000/svg" xmlns:xlink="http://www.w3.org/1999/xlink" width="92.33412" height="253.22501" viewBox="0,0,92.33412,253.22501"><defs><linearGradient x1="241.10443" y1="149.45788" x2="241.10443" y2="304.49836" gradientUnits="userSpaceOnUse" id="color-1"><stop offset="0" stop-color="#040404"/><stop offset="1" stop-color="#fbfbfb"/></linearGradient><linearGradient x1="282.73282" y1="116.32876" x2="282.73282" y2="119.57876" gradientUnits="userSpaceOnUse" id="color-2"><stop offset="0" stop-color="#ffffff"/><stop offset="1" stop-color="#ffffff" stop-opacity="0"/></linearGradient><linearGradient x1="310.06558" y1="-147.46985" x2="310.06558" y2="423.96356" gradientUnits="userSpaceOnUse" id="color-3"><stop offset="0" stop-color="#ec0000"/><stop offset="1" stop-color="#ec0000" stop-opacity="0"/></linearGradient><linearGradient x1="243.29758" y1="94.72303" x2="243.29758" y2="176.42967" gradientUnits="userSpaceOnUse" id="color-4"><stop offset="0" stop-color="#ffffff"/><stop offset="1" stop-color="#000000"/></linearGradient><linearGradient x1="213.23721" y1="116.36939" x2="213.23721" y2="135.35371" gradientUnits="userSpaceOnUse" id="color-5"><stop offset="0" stop-color="#b2b2b2"/><stop offset="1" stop-color="#868686"/></linearGradient><radialGradient cx="228.73399" cy="125.34297" r="6.56208" gradientUnits="userSpaceOnUse" id="color-6"><stop offset="0" stop-color="#ffffff"/><stop offset="1" stop-color="#000000"/></radialGradient><linearGradient x1="280.17032" y1="98.70376" x2="280.17032" y2="113.57876" gradientUnits="userSpaceOnUse" id="color-7"><stop offset="0" stop-color="#ffffff"/><stop offset="1" stop-color="#ffffff" stop-opacity="0"/></linearGradient><linearGradient x1="242.54375" y1="145.46587" x2="242.54375" y2="154.65756" gradientUnits="userSpaceOnUse" id="color-8"><stop offset="0" stop-color="#5b5b5b"/><stop offset="1" stop-color="#4c4c4c"/></linearGradient><linearGradient x1="242.94607" y1="124.56384" x2="242.94607" y2="159.45979" gradientUnits="userSpaceOnUse" id="color-9"><stop offset="0" stop-color="#a2a2a2"/><stop offset="1" stop-color="#474747"/></linearGradient></defs><g transform="translate(-193.25689,-53.3875)"><g data-paper-data="{&quot;isPaintingLayer&quot;:true}" fill-rule="nonzero" stroke-linejoin="miter" stroke-miterlimit="10" stroke-dasharray="" stroke-dashoffset="0" style="mix-blend-mode: normal"><path d="M194.40898,306.61251v-253.22501h91.18203v253.22501z" fill-opacity="0.01" fill="#000000" stroke="none" stroke-width="0" stroke-linecap="butt"/><path d="M271.39828,305.56667c0,0 0,-34.70145 0,-41.66667c0,-2.33101 2.83333,-6.16667 2.83333,-6.16667l1.5,1c0,0 -0.83333,-0.34893 -0.83333,2.33333c0,2.87458 -0.74402,13.38221 -0.83787,20.82697c-0.14477,11.48319 0.83787,23.67303 0.83787,23.67303z" fill="#ffffff" stroke="#000000" stroke-width="1" stroke-linecap="butt"/><path d="M276.73161,305.56667c0,0 0.98264,-12.18984 0.83787,-23.67302c-0.09386,-7.44476 -0.6712,-16.78573 -0.6712,-19.6603c0,-2.68226 -1,-3.5 -1,-3.5l1.5,-1c0,0 2.83333,3.83566 2.83333,6.16666c0,6.96522 0,41.66667 0,41.66667z" data-paper-data="{&quot;index&quot;:null}" fill="#ffffff" stroke="#000000" stroke-width="1" stroke-linecap="butt"/><path d="M197.49828,254.13338l0.66666,-65h85l1,65.33333c0,0 -28.4716,-43 -42.33333,-43c-14.74976,0 -44.33334,42.66667 -44.33334,42.66667z" fill="#390000" stroke="#000000" stroke-width="0" stroke-linecap="butt"/><path d="M201.54534,304.3916c0,0 -0.63536,-94.38387 -0.79335,-118.01201c-0.05451,-8.15261 8.18688,-36.76129 40.20201,-36.9211c31.60235,-0.15775 39.85672,29.48704 39.84884,36.89673c-0.03784,22.84869 0.12145,51.92314 0.2923,75.49278c-3.39783,-0.00617 -6.79574,-0.00038 -10.19358,0.00148l-0.09992,-72.25475c0,0 0.07549,-3.0993 -2.81625,-3.15415c-3.43441,-0.06514 -2.94538,3.11562 -2.94538,3.11562l0.20548,114.86995l-48.21366,0.07222l-0.30539,-115.23309c0,0 0.27949,-2.919 -2.8856,-2.93443c-3.11083,-0.01515 -2.81569,2.90899 -2.81569,2.90899l0.35311,115.0668z" fill="url(#color-1)" stroke="#000000" stroke-width="2" stroke-linecap="butt"/><path d="M256.1425,200.33378c-0.57113,0 -1.03411,-0.46299 -1.03411,-1.03411c0,-0.57113 0.46299,-1.03413 1.03411,-1.03413c0.57113,0 1.03411,0.463 1.03411,1.03413c0,0.57113 -0.46299,1.03411 -1.03411,1.03411z" fill="#000000" stroke="none" stroke-width="1.5" stroke-linecap="butt"/><path d="M250.88263,204.56937c-4.4635,-0.31439 -6.55245,-1.79392 -6.16985,-2.58011c0.11788,-0.24224 2.84645,1.06355 6.97038,1.3048c6.40897,0.37493 8.51033,-0.63173 8.51033,-0.63173v1.34616c0,0 -2.4135,1.04672 -9.31086,0.56089z" fill="#000000" stroke="#000000" stroke-width="0" stroke-linecap="butt"/><path d="M223.06988,199.29967c0,-0.57113 0.46299,-1.03413 1.03411,-1.03413c0.57113,0 1.03413,0.463 1.03413,1.03413c0,0.57113 -0.463,1.03411 -1.03413,1.03411c-0.57113,0 -1.03411,-0.46299 -1.03411,-1.03411z" fill="#000000" stroke="none" stroke-width="1.5" stroke-linecap="butt"/><path d="M229.36386,204.56937c-6.89736,0.48585 -9.31086,-0.56089 -9.31086,-0.56089v-1.34616c0,0 2.10136,1.00666 8.51033,0.63173c4.12393,-0.24126 6.85251,-1.54704 6.97039,-1.3048c0.3826,0.78618 -1.70634,2.26571 -6.16985,2.58011z" fill="#000000" stroke="#000000" stroke-width="0" stroke-linecap="butt"/><path d="M198.12252,236.93336l0.33334,-60.33334c0,0 11.03392,-14.69284 15.14152,-19.67735c2.74196,-3.32733 7.10848,-7.32265 7.10848,-7.32265l1.25,5.5h18v45.75c0,0 -12.39912,8.25 -19,8.25c-1.34842,0 -4.75,0 -4.75,0z" fill="#ad0000" stroke="none" stroke-width="0" stroke-linecap="butt"/><path d="M240.64432,261.12113c-0.81895,0 -1.48284,-0.66389 -1.48284,-1.48284c0,-0.81895 0.66389,-1.48284 1.48284,-1.48284c0.81895,0 1.48284,0.66389 1.48284,1.48284c0,0.81895 -0.66389,1.48284 -1.48284,1.48284z" data-paper-data="{&quot;index&quot;:null}" fill="#000000" stroke="none" stroke-width="1.5" stroke-linecap="butt"/><path d="M239.89828,201.4455v-39l20.16667,-10.66667c0,0 4.7918,2.96235 9.61028,7.72167c4.04113,3.99152 8.05159,9.39531 9.75038,13.934c1.48533,3.9684 2.02605,11.32565 2.83451,15.60937c0.29599,1.56832 1.63816,26.56829 1.63816,26.56829c0,0 -8.11092,-12.49383 -18.33333,-14.16666c-0.05746,-0.0094 -25.66667,0 -25.66667,0z" fill="#ad0000" stroke="none" stroke-width="0" stroke-linecap="butt"/><path d="M239.73161,179.44552v-17l20.5,-11c0,0 12.43122,8.6165 16.1481,13.24736c1.23172,1.53461 4.27863,11.15419 5.92449,19.40483c1.19724,6.00171 1.59408,30.84781 1.59408,30.84781l-13.16726,-37.01217z" fill="#720000" stroke="none" stroke-width="0" stroke-linecap="butt"/><path d="M209.23221,178.09999l-9.1405,56.62175l-1.69343,1.55709l-0.07259,-51.51448l0.25782,-8.23816c0,0 8.67336,-12.1981 12.43049,-16.85277c2.90262,-3.59602 8.21761,-8.72793 8.21761,-8.72793l21,11.66666v17z" data-paper-data="{&quot;index&quot;:null}" fill="#720000" stroke="none" stroke-width="0" stroke-linecap="butt"/><path d="M268.1,153.50435c0,12.75254 -29,31.69287 -29,31.69287c0,0 -27.2,-17.58206 -27.2,-30.33461c0,-6.75018 7.43497,-5.57976 11.95477,-9.80184c4.01908,-3.75433 9.97037,3.68964 15.84523,3.68964c7.13088,0 12.89039,-6.35998 17.03244,-1.08897c3.10805,3.95519 11.36756,0.376 11.36756,5.8429z" fill="#ad0000" stroke="none" stroke-width="0" stroke-linecap="butt"/><path d="M282.67032,116.32876l0.125,3.25" fill="none" stroke="url(#color-2)" stroke-width="2" stroke-linecap="round"/><path d="M264.08495,231.81336l-6.2,-5.4l-3.8,6l-9.4,-17.6l8.2,11.2l4.8,-5.4l6.6,5.2z" fill="#000000" stroke="#000000" stroke-width="0.5" stroke-linecap="round"/><path d="M264.08495,241.41337l-6.2,-5.4l-3.8,6l-9.4,-17.6l8.2,11.2l4.8,-5.4l6.6,5.2z" fill="#000000" stroke="#000000" stroke-width="0.5" stroke-linecap="round"/><path d="M264.48495,250.81336l-6.2,-5.4l-3.8,6l-9.4,-17.6l8.2,11.2l4.8,-5.4l6.6,5.2z" fill="#000000" stroke="#000000" stroke-width="0.5" stroke-linecap="round"/><path d="M215.08495,305.21333l1,-12.8l-1,-3.2l0.96399,-2.32006c0,0 19.31664,3.37006 26.03601,3.37006c4.7274,0 14.72889,-0.84965 20.28238,-1.80535c2.36561,-0.4071 3.92413,-0.69735 3.92413,-0.69735l0.99349,1.4527l-1,3.8l1,12.2z" fill="#720000" stroke="#000000" stroke-width="0" stroke-linecap="butt"/><path d="M216.03995,292.50836l-1.0086,-3.30924l1.1336,-2.19076l50.125,1l0.78109,1.13101l-0.78109,3.74399c0,0 -18.20362,-2.03323 -27.24738,-2.10073c-7.35443,-0.05489 -23.00262,1.72573 -23.00262,1.72573z" fill="#bf0000" stroke="none" stroke-width="0" stroke-linecap="butt"/><path d="M198.73995,305.35002c0,0 -1.09607,-0.6741 -1.05749,-1.57301c0.14491,-3.37656 2.13216,-24.58923 2.60136,-40.09919c0.14354,-4.74503 -0.91064,-7.83494 -0.99426,-10.88308c-0.07536,-2.74686 0.82539,-5.69471 0.82539,-5.69471l13.75,0.25v58z" fill="#580000" stroke="none" stroke-width="0" stroke-linecap="butt"/><path d="M208.80245,305.41252v-58.125h5v58.125z" fill="#9f0000" stroke="none" stroke-width="0" stroke-linecap="butt"/><path d="M199.17745,251.41254c0,0 -1.25,-3.0867 -1.25,-4.125c0,-0.69776 0.625,-1.75 0.625,-1.75h16v5.625z" fill="#000000" stroke="none" stroke-width="0" stroke-linecap="butt"/><path d="M197.92745,247.78754v-0.75h16.75v0.75z" fill="#ffffff" stroke="none" stroke-width="0" stroke-linecap="butt"/><path d="M211.42745,305.53752v-54.75h1v54.75z" fill="#ffffff" stroke="none" stroke-width="0" stroke-linecap="butt"/><path d="M238.88495,182.88005c0,0 -22.80731,-20.45747 -25.20537,-26.77003c-1.16439,-3.06507 11.60537,-9.02997 11.60537,-9.02997h28.4c0,0 13.30428,3.80992 10.77021,9.93964c-2.39093,5.78347 -25.57021,25.86036 -25.57021,25.86036z" fill="#000000" stroke="none" stroke-width="0" stroke-linecap="butt"/><path d="M256.78818,145.23751v-37.84866l19.12145,0.59139l3.71001,5.05092l-6.26299,27.96001l-16.37135,6.80901z" fill="#f00000" stroke="none" stroke-width="0" stroke-linecap="butt"/><path d="M256.93104,139.08592v-27.42857l13.85714,0.42857l2.68861,3.66036l-4.53873,20.26236l-11.86416,4.93443z" fill="#bd0000" stroke="none" stroke-width="0" stroke-linecap="butt"/><path d="M260.80779,103.76083l18.96557,-9.4563c0,0 5.75502,17.5247 5.81671,26.40719c0.05449,7.84621 -5.46549,24.16555 -5.46549,24.16555l-22.3021,-2.80056z" fill="url(#color-3)" stroke="none" stroke-width="0" stroke-linecap="butt"/><path d="M204.47098,107.12123c0.33654,-2.27063 -0.16776,-40.17317 35.96775,-41.57382c31.81248,-0.65114 38.09669,17.58112 39.99261,30.58774c-5.90964,1.51428 -11.92972,4.03494 -16.73708,7.50253c-6.02672,4.34712 -1.92131,13.69851 -3.32893,19.58493c-0.72733,3.04155 -2.93333,5.52409 -4.4,8.28613l1.60628,5.43774c0.19159,3.44865 8.4647,4.99944 10.58174,5.43958c0.95516,0.19858 1.9112,0.39346 2.87024,0.57237c1.23389,0.23017 5.24123,1.10103 9.30937,1.60976c-0.97385,3.04647 -2.28678,6.15968 -3.46402,8.7133c-1.5476,3.357 -1.36072,8.24695 -1.36072,8.24695c0,0 -1.60837,-1.95592 -2.79637,-3.9836c-0.97607,-1.66596 -1.50589,-3.54284 -2.0189,-3.03101c-1.1374,1.13479 -3.18873,6.16273 -3.18873,6.16273l-0.09205,-3.70421c0,0 -7.0601,11.01795 -24.35066,10.87154c-16.30625,-0.25547 -26.07151,-10.6752 -26.07151,-10.6752l-8.6162,2.90484c0,0 4.60523,-3.54276 2.31855,-9.95754c-2.72545,-7.64567 -3.23946,-12.24324 -3.23946,-12.24324l-3.41369,8.86966c0,0 -5.64205,-8.46717 -3.66604,-10.51989c1.76007,-1.8284 2.64658,-3.37722 2.64658,-3.37722c0,0 -2.10758,1.0847 -4.23277,1.61795c-2.21739,0.5564 -5.53008,-1.96907 -5.53008,-1.96907c0,0 6.47492,-2.53728 8.53074,-8.37429c1.94102,-5.51108 2.09972,-10.95731 2.09972,-10.95731c0,0 -1.36165,0.66163 -3.33013,0.79513c-1.2457,0.08449 -2.37411,-0.04846 -2.37784,-0.0489c0.00872,-0.00838 6.16337,-5.92247 6.2916,-6.7876z" fill="#000000" stroke="none" stroke-width="1.5" stroke-linecap="butt"/><path d="M198.17937,113.90883c0,0 0,0 0.00001,0c-0.00001,0.00001 -0.00001,0.00001 -0.00001,0.00001z" fill="#000000" stroke="none" stroke-width="1.5" stroke-linecap="butt"/><path d="M215.10812,125.23046c-0.57709,-7.29323 0.335,-17.15448 0.335,-17.15448c0,0 3.90843,-1.161 6.1638,-1.83095c2.74389,-0.81507 -0.87686,6.62331 -0.87686,6.62331c0,0 12.82795,-10.17016 14.29401,-10.60326c8.0696,-2.38394 14.88064,-6.82055 14.88064,-6.82055c0,0 -2.16005,3.00503 -3.40781,4.46015c-1.32651,1.54696 -3.99292,4.56297 -3.99292,4.56297c0,0 7.838,-1.66761 14.67476,-4.72931c8.56837,-3.53575 10.59252,-6.05309 12.95042,-4.5927c0.73375,0.45446 1.15218,2.2809 1.36485,4.82612c-0.37049,-0.04162 -0.7471,-0.06299 -1.1287,-0.06299c-5.31262,0 -9.65763,4.14279 -9.98073,9.37404c-0.0106,0.17162 -0.01687,0.34441 -0.0187,0.51827c-0.03228,0.88414 -0.07229,1.72452 -0.22957,2.37326c-1.56413,6.45169 -4.07654,15.06967 -3.171,21.73442c0.23129,1.70232 0.03522,3.78522 1.25,5c2.33753,2.33753 5.29482,4.91645 8.58973,4.99801c-0.25931,2.14414 -0.64963,4.87794 -1.31395,8.53971c-1.12121,6.18021 -4.16183,8.92466 -10.01942,14.66081c-5.85759,5.73616 -21.94924,4.22153 -26.94901,-1.06071c-5.32393,-5.62474 -12.01775,-9.76284 -12.85837,-16.42546c-0.75707,-6.00039 2.36633,-8.62282 2.0202,-13.96264c-0.25298,-3.90273 -2.26119,-6.44504 -2.57636,-10.42801z" fill="url(#color-4)" stroke="#000000" stroke-width="1.5" stroke-linecap="butt"/><path d="M257.03295,112.085c-6.11722,1.55455 -9.36493,4.4128 -9.36493,4.4128l-0.64186,-4.12747c0,0 2.80459,-2.1954 7.45137,-3.12368c2.75168,-0.5497 4.99792,-0.71516 6.41691,-0.75608c-0.31773,0.93535 -0.50079,1.93292 -0.52609,2.96961c-1.09608,0.13805 -2.2159,0.34033 -3.3354,0.62482z" data-paper-data="{&quot;index&quot;:null}" fill="#000000" stroke="none" stroke-width="1.5" stroke-linecap="butt"/><path d="M216.80776,135.35368c0,0 -4.93211,-3.51705 -6.16417,-8.97502c-1.29636,-5.74284 -1.46118,-9.7328 0.48013,-9.99193c1.94131,-0.25915 2.70321,2.37692 3.73262,8.35569c1.0294,5.97877 1.95143,10.61127 1.95143,10.61127z" data-paper-data="{&quot;index&quot;:null}" fill="url(#color-5)" stroke="#000000" stroke-width="1" stroke-linecap="butt"/><path d="M216.60517,131.40612c0,0 -3.56385,-2.92338 -4.31816,-8.45061c-0.42079,-3.08327 2.15675,-2.28016 2.15675,-2.28016" fill="none" stroke="#000000" stroke-width="0.25" stroke-linecap="round"/><path d="M219.61857,124.75022c0.07093,-4.89188 4.83834,-8.93609 10.21137,-8.8582c5.37302,0.0779 9.02724,4.2484 8.95632,9.14029c-0.07093,4.89188 -4.12352,8.79439 -9.49655,8.7165c-5.37302,-0.0779 -9.74207,-4.1067 -9.67114,-8.99859z" fill="#000000" stroke="#000000" stroke-width="1.4" stroke-linecap="butt"/><path d="M222.17598,124.53205c0.05254,-3.62376 3.03276,-6.51878 6.65649,-6.46624c3.62376,0.05254 6.51878,3.03276 6.46624,6.65649c-0.05254,3.62376 -3.03274,6.51878 -6.65649,6.46624c-3.62376,-0.05254 -6.51878,-3.03276 -6.46624,-6.65649z" fill="url(#color-6)" stroke="none" stroke-width="1.5" stroke-linecap="butt"/><path d="M246.67484,124.75095c0.20353,-4.88817 4.45264,-8.85847 9.77048,-8.85847c5.31783,0 9.27453,3.96607 9.27453,8.85847c0,4.8924 -3.88585,9.07104 -9.69964,9.14188c-5.52997,0.06739 -9.55792,-4.03692 -9.34537,-9.14188z" fill="#ffffff" stroke="#000000" stroke-width="1.4" stroke-linecap="butt"/><path d="M251.2776,124.83652c0,-2.81845 2.2848,-5.10325 5.10325,-5.10325c2.81845,0 5.10325,2.2848 5.10325,5.10325c0,2.81845 -2.28479,5.10325 -5.10325,5.10325c-2.81845,0 -5.10325,-2.2848 -5.10325,-5.10325z" fill="#000000" stroke="none" stroke-width="1.5" stroke-linecap="butt"/><path d="M219.55013,124.21806c0,0 0.06357,-9.01512 10.60111,-8.8249c9.47101,0.16586 9.55554,9.40723 9.55554,9.40723z" fill="#aeaeae" stroke="#000000" stroke-width="1.15" stroke-linecap="butt"/><path d="M246.2972,124.34894c0,0 -0.24686,-9.4582 11.19813,-9.1032c9.71427,0.33347 9.54677,9.65229 9.54677,9.65229z" fill="#aeaeae" stroke="#000000" stroke-width="1.15" stroke-linecap="butt"/><path d="M224.58798,111.15731c0,0 3.82606,-0.15639 8.21925,1.47328c4.86822,1.80587 7.0099,3.3483 7.0099,3.3483l-1.54991,3.84754c0,0 -3.14816,-2.29428 -6.97661,-3.98572c-5.12007,-2.2621 -6.59995,-1.62737 -10.62277,-3.08126c-3.44697,-1.24577 -6.25003,-2.10975 -6.25003,-2.10975l0.517,-1.11807c0,0 3.32433,0.94057 4.85922,1.53148c1.26685,0.4877 3.98424,0.90112 3.98424,0.90112z" fill="#000000" stroke="none" stroke-width="1.5" stroke-linecap="butt"/><path d="M239.04819,126.98543c0,0 -0.26583,3.55962 -1.8,4.9c-1.53417,1.34038 -4.40367,3.4 -7.7,3.4c-3.29633,0 -5.17306,-0.82201 -7.7,-3.4c-2.52694,-2.57799 -1.7,-6.7 -1.7,-6.7" fill="none" stroke="#000000" stroke-width="2.5" stroke-linecap="round"/><path d="M226.75838,134.10449c2.39541,0.30164 5.78981,-0.01906 5.78981,-0.01906l-3.52857,2.22857c0,0 -4.15177,3.33831 -4.7601,4.87514c-0.6549,1.65448 -1.61133,6.43915 -1.61133,6.43915l-1.88571,-6.3l1.78571,-6.44286c0,0 -1.33091,-1.77168 -1.66988,-2.68994c-0.29213,-0.79137 -0.2444,-2.49577 -0.2444,-2.49577c0,0 4.0736,4.14651 6.12448,4.40477z" fill="#000000" stroke="#000000" stroke-width="1.5" stroke-linecap="round"/><path d="M239.60375,130.71875l0.74444,14.56667l-1.96667,2.14444c0,0 -2.87883,0.2244 -3.56794,-0.09019c-0.82101,-0.37481 -2.3654,-1.45425 -2.3654,-1.45425c0,0 1.12601,0.14075 1.80294,0.22537c0.87277,0.1091 2.99706,0.37463 2.99706,0.37463l0.8,-2.2c0,0 -1.94895,0.05619 -3.17778,-0.44444c-1.22883,-0.50063 -2.55556,-2.14444 -2.55556,-2.14444c0,0 1.18703,0.43064 1.6816,0.54068c0.83435,0.18564 3.19618,0.30377 3.19618,0.30377l0.45556,-1.25556l-0.4,-3.1c0,0 -1.34507,0.9529 -2.34444,1.16667c-0.99937,0.21377 -3.72222,0.05556 -3.72222,0.05556c0,0 1.43592,-0.43716 2.1352,-0.85562c0.71162,-0.42585 1.93146,-1.5666 1.93146,-1.5666c0,0 2.65567,-3.53091 3.43914,-4.64235c0.43902,-0.62279 0.91641,-1.62432 0.91641,-1.62432z" fill="#970000" stroke="#970000" stroke-width="0.5" stroke-linecap="round"/><path d="M238.8758,139.89126c0,0 -0.75741,-2.14406 -1.84491,-1.29256c-0.53326,0.41754 -1.17261,0.79394 -1.89386,0.98845c-0.69703,0.18798 -0.69968,0.03773 -2.37462,0.1305c-0.80749,0.04472 -2.88662,-0.10417 -2.88662,-0.10417c0,0 3.49438,-1.32568 4.15072,-1.91321c0.48975,-0.43841 0.97688,-0.89888 1.1848,-1.17025c0.86376,-1.12736 2.16117,-2.84285 2.70973,-3.68183c0.66945,-1.02387 1.78808,-2.73472 1.78808,-2.73472l0.38889,6.61111z" fill="#6b0000" stroke="#000000" stroke-width="0" stroke-linecap="butt"/><path d="M245.04533,135.57876l0.49924,-9.55416l-1.69125,-4.91811l0.75424,-6.03365l11.75977,-1.47933c0,0 2.27311,0.13671 3.87944,0.23333c2.63304,0.15837 10.42355,0.62693 10.42355,0.62693l0.7976,2.38013c0,0 -0.99379,6.52434 -1.59094,9.48943c-0.53742,2.66858 -1.83166,7.50544 -1.83166,7.50544l-1.74757,1.90441c0,0 -3.34955,0.22535 -5.05268,0.33625c-1.18892,0.07742 -5.23278,3.38818 -5.23278,3.38818c0,0 -3.85306,-3.35955 -5.76669,-3.49924c-1.79086,-0.13073 -5.20027,-0.3796 -5.20027,-0.3796z" fill="#c80000" stroke="none" stroke-width="0" stroke-linecap="butt"/><path d="M245.71297,126.15072l-1.9,-4.9l0.8,-6.2c0,0 7.44021,-1.38206 9.51985,-1.65483c0.93263,-0.12233 2.58186,-2.04354 2.58186,-2.04354c0,0 2.25707,1.66772 3.52028,1.75681c2.49638,0.17606 10.47801,1.34156 10.47801,1.34156l0.80288,2.90207l-1.50288,8.49793l-13.19894,-2.45198z" fill="#6b0000" stroke="none" stroke-width="0" stroke-linecap="butt"/><path d="M267.80088,124.90654c0,5.30807 -4.42741,9.61111 -9.88889,9.61111c-5.46149,0 -9.88889,-4.30304 -9.88889,-9.61111c0,-3.15513 0.42461,-8.7075 0.42461,-8.7075c0,0 7.24911,-0.90362 9.46428,-0.90362c2.20227,0 10.21323,0.32722 10.21323,0.32722c0,0 -0.32434,6.11623 -0.32434,9.28389z" fill="#000000" stroke="none" stroke-width="0" stroke-linecap="butt"/><path d="M279.17033,148.70376c0,0 -13.88414,-4.047 -23.5,-2c-1.38157,0.29411 0,-8.125 0,-8.125l0.1,0.5l3.05,-1.8l0.1,2.05l20.50293,5.24089l1.24707,1.75911z" fill="#6b0000" stroke="none" stroke-width="0" stroke-linecap="butt"/><path d="M255.42734,141.41447l0.21429,-2.45714l3.31429,-1.9l-0.1,4.28571z" fill="#3e0000" stroke="none" stroke-width="0" stroke-linecap="butt"/><path d="M256.70532,111.78305v-0.01429c0,0 0.3102,-7.40101 0.7,-8c1.70944,-2.62678 20.85873,-10.29087 20.85873,-10.29087l2.04127,-0.10913l0.4,1.9l-17.9782,9.94468l-2.2218,7.75532l0.08571,0.21429c0,0 -0.77593,0.00615 -1.27674,-0.17429c-0.71592,-0.25794 -2.60897,-1.22571 -2.60897,-1.22571z" fill="#c80000" stroke="#c80000" stroke-width="0" stroke-linecap="butt"/><path d="M256.74532,111.55733c0,0 -0.03062,1.27583 -0.00836,0.21862c0.02503,-1.18915 0.22265,-5.36148 0.22265,-5.36148c0,0 0.6604,2.70129 1.5677,3.24728c0.68358,0.41136 3.4323,-1.53299 3.4323,-1.53299l-1.35714,4.92857l-0.07143,0.14286c0,0 -0.97569,0.10346 -1.46296,-0.11331c-1.48307,-0.65977 -2.32276,-1.52955 -2.32276,-1.52955z" fill="#a20000" stroke="none" stroke-width="0" stroke-linecap="butt"/><path d="M255.0739,143.80019l8,-0.42857l17,3.85714" fill="none" stroke="#000000" stroke-width="1" stroke-linecap="round"/><path d="M256.93104,146.37158l0.42857,-7.85714" fill="none" stroke="#000000" stroke-width="1" stroke-linecap="round"/><path d="M259.21676,102.80019l-1.14286,9.42857" fill="none" stroke="#000000" stroke-width="1" stroke-linecap="round"/><path d="M257.21675,106.22876l1.85714,-1.28571l21.14286,-11" fill="none" stroke="#000000" stroke-width="1" stroke-linecap="round"/><path d="M278.64533,96.3716l-1.14286,-2.28571" fill="none" stroke="#000000" stroke-width="1" stroke-linecap="round"/><path d="M277.93104,144.51447l-0.57143,3.71429" fill="none" stroke="#000000" stroke-width="1" stroke-linecap="round"/><path d="M248.42032,125.70376l-2.625,0.5" fill="none" stroke="#000000" stroke-width="1" stroke-linecap="round"/><path d="M269.92032,125.70376l-2,-0.5" fill="none" stroke="#000000" stroke-width="1" stroke-linecap="round"/><path d="M270.96532,115.80876c0,0.93888 -0.85066,1.7 -1.9,1.7c-1.04934,0 -1.9,-0.76112 -1.9,-1.7c0,-0.93888 0.85066,-1.7 1.9,-1.7c1.04934,0 1.9,0.76112 1.9,1.7z" fill="#ffffff" stroke="#000000" stroke-width="0" stroke-linecap="butt"/><path d="M277.92032,98.70376l2.25,5.5l2.25,9.375" fill="none" stroke="url(#color-7)" stroke-width="2" stroke-linecap="round"/><g stroke="none" stroke-width="0" stroke-linecap="butt"><path d="M265.43269,155.13973c-3.33168,8.82937 -1.2935,20.64808 -23.61958,21.43919c-25.94091,-3.48273 -20.74568,-16.40015 -25.44766,-25.96204c-0.03874,-0.07877 17.33239,-3.03051 19.4745,-2.88109c2.6048,-0.17607 6.80053,3.71791 6.80053,3.71791c0,0 4.07224,-4.48416 7.52143,-3.15053c1.47628,0.57081 15.35424,6.72133 15.2708,6.83656z" fill="#000000"/><path d="M263.37359,157.48922c0,0 -1.85833,17.39365 -21.82823,17.07668c-13.20804,-1.18347 -18.71247,-5.08164 -21.36838,-14.66882c-1.20423,-4.34696 -2.18614,-8.79572 -2.24497,-8.68146c11.32605,2.79732 9.01059,13.82026 23.65548,14.65508c11.25793,0.20095 15.43873,-7.91891 15.43873,-7.91891l5.68068,-1.12923z" fill="#262626"/><path d="M254.45269,158.28318c0,0 -0.62192,0.89699 -3.37218,1.51309c-0.45868,0.10275 -1.86833,1.74089 -1.86833,1.74089c0,0 -1.18971,-1.28464 -2.09351,-1.23432c-1.53086,0.08522 -3.36993,0.08846 -5.57593,-0.03618c-1.8563,-0.10488 -3.55246,-0.35374 -5.08982,-0.69516c-0.56251,-0.12492 -2.00844,0.97518 -2.00844,0.97518c0,0 -0.65679,-1.69596 -1.14433,-1.86442c-5.47823,-1.89298 -8.16737,-4.74954 -8.16737,-4.74954c0,0 11.82358,3.6208 16.80711,3.96898c2.21101,0.15448 5.68232,0.15617 8.40837,0.12504c0.78607,-0.00898 1.51018,-0.02068 2.12423,-0.03224c1.20039,-0.0226 1.98022,0.28869 1.98022,0.28869z" fill="#ffffff"/><path d="M253.19243,160.21299c0,0 -1.76612,4.1623 -10.93621,3.84251c-3.6136,-0.12601 -6.76218,-0.78594 -8.87332,-1.98435c-3.56872,-2.02581 -6.29211,-5.8045 -6.29211,-5.8045c0,0 3.28964,2.21549 5.86633,3.22879c0.48104,0.18917 1.27476,1.61899 1.27476,1.61899c0,0 1.20538,-0.82295 2.48422,-0.51782c1.91461,0.45682 4.51113,1.02827 5.53982,1.0337c1.3338,0.00703 3.294,-0.20762 5.18783,-0.47187c0.63373,-0.08843 1.26003,0.8176 1.85294,0.72451c0.60123,-0.09439 1.16813,-1.18786 1.67364,-1.27369c1.32056,-0.22421 2.2221,-0.39625 2.2221,-0.39625z" fill="#ffffff"/><path d="M237.19407,154.63304c-12.54857,-1.44063 -16.88856,-3.59934 -16.88856,-3.59934c0,0 4.50707,-0.61872 9.57181,-1.20093c0.86634,-0.35164 3.23979,-0.66914 6.56485,0.25309c4.52861,1.25604 14.68637,6.41536 2.75191,5.21386z" fill="#444444"/><path d="M263.07834,156.00858l-6.42285,1.09046c0,0 -0.66423,-0.25265 -4.13916,-0.59c-4.25329,-0.41291 -9.36705,-1.18195 -12.37295,-1.26301c-0.54817,-0.01478 5.3075,-3.96854 5.3075,-3.96854c0,0 2.26265,-1.27601 3.37672,-1.00969c5.1999,1.24303 14.25074,5.74077 14.25074,5.74077z" data-paper-data="{&quot;index&quot;:null}" fill="#444444"/></g><path d="M242.36153,154.65756c-1.61157,0 -5.51569,-3.26042 -5.90324,-5.3637c-0.34676,-1.88186 2.05019,-3.82799 5.90324,-3.82799c3.85306,0 6.55083,0.49077 6.28252,4.18853c-0.22771,3.13818 -2.42947,5.00317 -6.28252,5.00317z" fill="url(#color-8)" stroke="#000000" stroke-width="1.15" stroke-linecap="butt"/><path d="M246.34237,124.56384c0,0 0.1026,3.96976 0.00576,7.12662c-0.19174,6.25113 -1.08147,27.7607 -1.08147,27.7607l-2.98167,0.00864c0,0 -0.80294,-4.17274 -1.12322,-9.49979c-0.43353,-7.21063 -0.4495,-16.29321 -0.76344,-19.63229c-0.29758,-3.16513 -0.89593,-5.71453 -0.89593,-5.71453" fill="url(#color-9)" stroke="#000000" stroke-width="1.3" stroke-linecap="round"/><path d="M246.50533,123.36876l-0.2,1.9" fill="none" stroke="#6b0000" stroke-width="1.3" stroke-linecap="round"/><path d="M247.40533,135.56874l-1.2,-0.2l0.2,-9.2" fill="none" stroke="#c80000" stroke-width="1.3" stroke-linecap="round"/><path d="M249.08495,178.48001l-10.6,8.2l-9,-8" fill="none" stroke="#720000" stroke-width="1.5" stroke-linecap="round"/><path d="M228.21694,186.32899l-0.73009,8.48221c0,0 9.56408,4.14995 6.88456,5.05858c-2.67953,0.90863 -11.44807,-0.43642 -12.34661,-3.08617c-0.89854,-2.64975 6.19214,-10.45461 6.19214,-10.45461z" data-paper-data="{&quot;index&quot;:null}" fill="#000000" stroke="#ffffff" stroke-width="1" stroke-linecap="butt"/><path d="M224.28495,196.59236c0,2.79796 -7.87214,6.88769 -10.70154,6.88769c-2.8294,0 4.89539,-7.00154 4.89539,-7.00154l-3.41539,-7.79846c0,0 9.22154,5.11435 9.22154,7.91231z" fill="#000000" stroke="#ffffff" stroke-width="1" stroke-linecap="butt"/><path d="M233.68495,190.78004c0,1.933 -1.5,3.5 -1.5,3.5c0,0 -1.5,-1.567 -1.5,-3.5c0,-1.933 0.67157,-3.5 1.5,-3.5c0.82843,0 1.5,1.567 1.5,3.5z" fill="#000000" stroke="#ffffff" stroke-width="1" stroke-linecap="butt"/><path d="M271.08495,236.68003v-32.4c0,0 3.15501,1.6324 4.53647,2.73129c1.53555,1.22145 4.46353,4.46871 4.46353,4.46871l0.2,25.2c0,0 -1.53118,-24.48117 -2.29886,-21.57329c-0.96149,3.642 -1.29399,34.43935 -2.41859,29.46421c-0.99562,-4.40454 -1.32522,-38.89092 -1.88255,-38.89092c-1.00371,0 -2.6,31 -2.6,31z" fill="#040404" stroke="#000000" stroke-width="1.5" stroke-linecap="butt"/><path d="M271.73161,264.23335v-1.83333h3.16667v1.83333z" fill="#000000" stroke="none" stroke-width="0" stroke-linecap="butt"/><path d="M277.06494,263.90002v-1.5h2.5v1.5z" fill="#000000" stroke="none" stroke-width="0" stroke-linecap="butt"/><path d="M278.73161,264.23335v-1.33333h1.33333v1.33333z" fill="#000000" stroke="none" stroke-width="0" stroke-linecap="butt"/><path d="M210.73161,252.73337c0,0.46024 -0.3731,0.83333 -0.83333,0.83333c-0.46024,0 -0.83333,-0.3731 -0.83333,-0.83333c0,-0.46024 0.3731,-0.83333 0.83333,-0.83333c0.46024,0 0.83333,0.3731 0.83333,0.83333z" fill="#ffffff" stroke="none" stroke-width="0" stroke-linecap="butt"/><path d="M210.89828,260.56667c0,0.55228 -0.41041,1 -0.91667,1c-0.50626,0 -0.91667,-0.44772 -0.91667,-1c0,-0.55228 0.41041,-1 0.91667,-1c0.50626,0 0.91667,0.44772 0.91667,1z" fill="#ffffff" stroke="none" stroke-width="0" stroke-linecap="butt"/><path d="M241.56533,135.70873l4,1.2" fill="none" stroke="#000000" stroke-width="2" stroke-linecap="round"/><path d="M265.96532,153.10875l-8.2,-6l7.6,0.2z" fill="#000000" stroke="#000000" stroke-width="2" stroke-linecap="round"/><g fill="none" stroke-width="1.5" stroke-linecap="butt"><path d="M250.89232,124.18482l7.30362,-6.68865l6.29131,6.86976l-7.30363,6.68864z" stroke="#ff9a9a"/><path d="M252.99836,124.16856l5.02455,-4.60149l4.32813,4.72607l-5.02455,4.60149z" stroke="#717171"/></g></g></g></svg>