<svg version="1.1" xmlns="http://www.w3.org/2000/svg" xmlns:xlink="http://www.w3.org/1999/xlink" width="35.67311" height="35.67311" viewBox="0,0,35.67311,35.67311"><defs><linearGradient x1="222.91345" y1="180.00001" x2="257.08656" y2="180.00001" gradientUnits="userSpaceOnUse" id="color-1"><stop offset="0" stop-color="#9a0000"/><stop offset="1" stop-color="#000000"/></linearGradient></defs><g transform="translate(-222.16345,-162.16345)"><g data-paper-data="{&quot;isPaintingLayer&quot;:true}" stroke-miterlimit="10" stroke-dasharray="" stroke-dashoffset="0" style="mix-blend-mode: normal"><path d="M229.98311,162.91345h20.03379c3.9166,0 7.06966,3.15307 7.06966,7.06966v20.03379c0,3.91659 -3.15306,7.06966 -7.06966,7.06966h-20.03379c-3.91659,0 -7.06966,-3.15307 -7.06966,-7.06966v-20.03379c0,-3.91659 3.15307,-7.06966 7.06966,-7.06966z" fill="url(#color-1)" fill-rule="evenodd" stroke="#ffffff" stroke-width="1.5" stroke-linecap="round" stroke-linejoin="round"/><path d="M252.71457,183.94188c0.95654,1.76869 -9.79163,-15.00615 -17.03483,-11.08892c-7.2432,3.91723 -2.1635,22.96925 -3.12004,21.20056c-0.95654,-1.76869 -7.58709,-23.68832 -0.34388,-27.60556c7.2432,-3.91723 19.54221,15.72522 20.49874,17.4939z" fill="#ffffff" fill-rule="nonzero" stroke="#000000" stroke-width="1" stroke-linecap="butt" stroke-linejoin="miter"/></g></g></svg>