<svg version="1.1" xmlns="http://www.w3.org/2000/svg" xmlns:xlink="http://www.w3.org/1999/xlink" width="35.67311" height="35.67311" viewBox="0,0,35.67311,35.67311"><defs><linearGradient x1="222.91345" y1="180.00001" x2="257.08656" y2="180.00001" gradientUnits="userSpaceOnUse" id="color-1"><stop offset="0" stop-color="#9a0000"/><stop offset="1" stop-color="#000000"/></linearGradient></defs><g transform="translate(-222.16345,-162.16345)"><g data-paper-data="{&quot;isPaintingLayer&quot;:true}" stroke-miterlimit="10" stroke-dasharray="" stroke-dashoffset="0" style="mix-blend-mode: normal"><path d="M229.98311,162.91345h20.03379c3.9166,0 7.06966,3.15307 7.06966,7.06966v20.03379c0,3.91659 -3.15306,7.06966 -7.06966,7.06966h-20.03379c-3.91659,0 -7.06966,-3.15307 -7.06966,-7.06966v-20.03379c0,-3.91659 3.15307,-7.06966 7.06966,-7.06966z" fill="url(#color-1)" fill-rule="evenodd" stroke="#ffffff" stroke-width="1.5" stroke-linecap="round" stroke-linejoin="round"/><g fill-rule="nonzero" stroke="#000000" stroke-linecap="butt" stroke-linejoin="miter"><path d="M251.22106,173.68705c3.54881,6.30789 1.40185,14.24784 -4.79538,17.73439c-6.19722,3.48655 -14.09794,1.1994 -17.64675,-5.10848c-3.54881,-6.30789 -1.40185,-14.24784 4.79538,-17.73439c6.19722,-3.48655 14.09794,-1.1994 17.64675,5.10848z" fill="#ffffff" stroke-width="1.5"/><path d="M240.24031,169.64261c0.54515,0.96899 0.34255,2.37514 0.5025,4.00418c0.23736,2.41745 0.52029,5.115 -0.86808,5.8961c-1.22053,0.68667 -2.99649,-0.42349 -4.86557,-1.33301c-1.68975,-0.82226 -3.50594,-1.35583 -4.1489,-2.49867c-1.35415,-2.40696 1.78669,-3.57723 4.11065,-4.88468c2.32396,-1.30746 3.91525,-3.59087 5.2694,-1.18392z" fill="#000000" stroke-width="0.5"/><path d="M231.89515,185.7911c0.42935,-1.02557 1.66311,-1.72995 2.84987,-2.8573c1.76113,-1.67297 3.71521,-3.55403 5.18466,-2.93886c1.2918,0.5408 1.50753,2.62406 1.93875,4.65745c0.38986,1.83831 1.08514,3.59894 0.57877,4.8085c-1.06649,2.5475 -3.91997,0.78907 -6.37963,-0.24064c-2.45966,-1.02972 -5.23891,-0.88165 -4.17242,-3.42916z" fill="#000000" stroke-width="0.5"/><path d="M248.60268,185.20429c-1.11086,0.04601 -2.27191,-0.77269 -3.79611,-1.36949c-2.26187,-0.88563 -4.79402,-1.85777 -4.85994,-3.44942c-0.05795,-1.39923 1.73729,-2.47793 3.39601,-3.73065c1.49958,-1.13254 2.7993,-2.50875 4.10946,-2.56301c2.75937,-0.11429 2.37673,3.21558 2.48708,5.87979c0.11035,2.66421 1.42287,5.11849 -1.3365,5.23278z" fill="#000000" stroke-width="0.5"/></g></g></g></svg>