<svg version="1.1" xmlns="http://www.w3.org/2000/svg" xmlns:xlink="http://www.w3.org/1999/xlink" width="35.67311" height="35.67311" viewBox="0,0,35.67311,35.67311"><defs><linearGradient x1="222.91345" y1="180.00001" x2="257.08655" y2="180.00001" gradientUnits="userSpaceOnUse" id="color-1"><stop offset="0" stop-color="#9a0000"/><stop offset="1" stop-color="#000000"/></linearGradient></defs><g transform="translate(-222.16345,-162.16344)"><g data-paper-data="{&quot;isPaintingLayer&quot;:true}" stroke-linecap="round" stroke-miterlimit="10" stroke-dasharray="" stroke-dashoffset="0" style="mix-blend-mode: normal"><path d="M229.98311,162.91345h20.03379c3.9166,0 7.06966,3.15307 7.06966,7.06966v20.03379c0,3.91659 -3.15306,7.06966 -7.06966,7.06966h-20.03379c-3.91659,0 -7.06966,-3.15307 -7.06966,-7.06966v-20.03379c0,-3.91659 3.15307,-7.06966 7.06966,-7.06966z" fill="url(#color-1)" fill-rule="evenodd" stroke="#ffffff" stroke-width="1.5" stroke-linejoin="round"/><g fill="#ffffff" fill-rule="nonzero" stroke="#000000" stroke-width="1" stroke-linejoin="miter"><g><path d="M233.57105,166.41116l16.98607,8.26262l-0.8107,17.91507l-14.19359,-5.74441l-1.98174,-20.4333"/><path d="M234.41513,167.22054l12.41772,20.48428"/><path d="M247.80045,189.18518l1.32315,2.39588"/><path d="M250.17818,175.359l-1.89099,1.56583l-12.47103,9.53153"/><path d="M246.29351,176.84723l2.40771,-1.89"/></g><path d="M228.35123,183.96104l-2.40835,-2.76633l3.75928,-0.23032l1.89379,-2.0986l0.42202,2.96798l1.67858,2.58321l-3.48267,0.21738l-2.23365,1.95154z"/></g></g></g></svg>