<svg version="1.1" xmlns="http://www.w3.org/2000/svg" xmlns:xlink="http://www.w3.org/1999/xlink" width="92.39406" height="254.02097" viewBox="0,0,92.39406,254.02097"><g transform="translate(-194.90345,-51.47888)"><g data-paper-data="{&quot;isPaintingLayer&quot;:true}" fill-rule="nonzero" stroke-linejoin="miter" stroke-miterlimit="10" stroke-dasharray="" stroke-dashoffset="0" style="mix-blend-mode: normal"><path d="M201.54534,304.39159c0,0 -0.63536,-94.38387 -0.79335,-118.01201c-0.05451,-8.15261 8.18688,-36.76129 40.20201,-36.9211c31.60235,-0.15775 39.85672,29.48704 39.84884,36.89673c-0.07659,46.24274 0.65429,117.98648 0.65429,117.98648l-10.49667,0.09614l-0.15882,-114.84311c0,0 0.07549,-3.0993 -2.81625,-3.15415c-3.43441,-0.06514 -2.94538,3.11562 -2.94538,3.11562l0.20548,114.86995l-48.21366,0.07222l-0.30539,-115.23309c0,0 0.27949,-2.919 -2.8856,-2.93443c-3.11083,-0.01515 -2.81569,2.90899 -2.81569,2.90899l0.35311,115.0668z" fill="#ffffff" stroke="#000000" stroke-width="2" stroke-linecap="butt"/><path d="M256.1425,200.33377c-0.57113,0 -1.03411,-0.46299 -1.03411,-1.03411c0,-0.57113 0.46299,-1.03413 1.03411,-1.03413c0.57113,0 1.03411,0.463 1.03411,1.03413c0,0.57113 -0.46299,1.03411 -1.03411,1.03411z" fill="#000000" stroke="none" stroke-width="1.5" stroke-linecap="butt"/><path d="M250.88263,204.56936c-4.4635,-0.31439 -6.55245,-1.79392 -6.16985,-2.58011c0.11788,-0.24224 2.84645,1.06355 6.97038,1.3048c6.40897,0.37493 8.51033,-0.63173 8.51033,-0.63173v1.34616c0,0 -2.4135,1.04672 -9.31086,0.56089z" fill="#000000" stroke="#000000" stroke-width="0" stroke-linecap="butt"/><path d="M223.06988,199.29966c0,-0.57113 0.46299,-1.03413 1.03411,-1.03413c0.57113,0 1.03413,0.463 1.03413,1.03413c0,0.57113 -0.463,1.03411 -1.03413,1.03411c-0.57113,0 -1.03411,-0.46299 -1.03411,-1.03411z" fill="#000000" stroke="none" stroke-width="1.5" stroke-linecap="butt"/><path d="M229.36386,204.56936c-6.89736,0.48585 -9.31086,-0.56089 -9.31086,-0.56089v-1.34616c0,0 2.10136,1.00666 8.51033,0.63173c4.12393,-0.24126 6.85251,-1.54704 6.97039,-1.3048c0.3826,0.78618 -1.70634,2.26571 -6.16985,2.58011z" fill="#000000" stroke="#000000" stroke-width="0" stroke-linecap="butt"/><path d="M240.64432,261.12113c-0.81895,0 -1.48284,-0.66389 -1.48284,-1.48284c0,-0.81895 0.66389,-1.48284 1.48284,-1.48284c0.81895,0 1.48284,0.66389 1.48284,1.48284c0,0.81895 -0.66389,1.48284 -1.48284,1.48284z" data-paper-data="{&quot;index&quot;:null}" fill="#000000" stroke="none" stroke-width="1.5" stroke-linecap="butt"/><path d="M216.58107,304.40602v-119.20147c0,0 0.75721,-9.73105 0.75721,-14.63937c0,-4.498 -0.75721,-13.6872 -0.75721,-13.6872c0,0 2.67319,-2.35297 4.6557,-3.74807c1.98251,-1.3951 5.17197,-2.80371 5.17197,-2.80371c0,0 -0.6016,40.10902 14.55952,40.03867c15.43477,-0.07162 13.83154,-40.03867 13.83154,-40.03867c0,0 3.91276,1.51959 6.16585,2.94655c2.25309,1.42695 4.75379,3.60523 4.75379,3.60523c0,0 -0.75721,9.42463 -0.75721,14.19201c0,4.84193 0.75721,14.63937 0.75721,14.63937v118.69667z" fill="#970000" stroke="#000000" stroke-width="2" stroke-linecap="butt"/><path d="M285.4319,102.03878c0,0 -5.71201,6.35827 -5.77644,7.2311c-0.16897,2.2892 3.11594,40.05249 -32.81929,44.10164c-44.44888,4.18738 -41.50418,-32.38975 -44.51555,-39.02821c-4.12904,-9.10233 -7.41717,-16.90134 -7.41717,-16.90134c0,0 2.91041,1.84487 4.29872,2.82608c1.29486,0.91516 4.02208,2.85835 4.02208,2.85835c0,0 -3.8423,-10.09331 -2.82636,-20.54294c0.8622,-9.57008 6.01382,-17.71461 6.01382,-17.71461l1.32439,2.25623c0,0 0.85858,-2.26707 1.9096,-3.48229c1.05104,-1.21521 3.21567,-3.15727 3.21567,-3.15727l0.36368,3.68746c0,0 6.23236,-11.50643 23.48703,-12.62951c16.28102,-0.94206 26.78473,8.73281 26.78473,8.73281l-0.07898,-2.65621c0,0 4.12595,2.99801 6.87729,9.22765c3.27927,7.425 4.12936,11.97245 4.12936,11.97245c0,0 2.19337,-2.06572 5.49798,-3.18654c4.14087,-1.40445 6.90257,-0.8542 6.90257,-0.8542c0,0 -3.39879,2.97465 -5.2188,5.16687c-1.62112,1.95266 -2.39156,3.56237 -2.39156,3.56237c0,0 2.02228,-1.23646 4.1026,-1.92426c2.17057,-0.71765 3.98024,-0.8253 3.98024,-0.8253c0,0 -4.59177,5.38884 -6.21362,11.361c-1.53128,5.63868 -1.28981,11.08187 -1.28981,11.08187c0,0 1.30942,-0.75978 3.26279,-1.03741c1.23818,-0.17598 2.37502,-0.12576 2.37502,-0.12576z" fill="#000000" stroke="none" stroke-width="1.5" stroke-linecap="butt"/><path d="M213.22774,110.18735c-0.57709,-7.29323 0.335,-17.15448 0.335,-17.15448c0,0 3.41059,-0.04124 13.91429,-3.14424c8.0696,-2.38394 20.54731,-9.48722 20.54731,-9.48722c0,0 -2.16005,3.00503 -3.40781,4.46015c-1.32651,1.54696 -3.99292,4.56297 -3.99292,4.56297c0,0 7.838,-1.66761 14.67476,-4.72931c8.56837,-3.53575 10.59252,-6.05309 12.95042,-4.5927c2.7829,1.72362 1.03006,23.1827 0.71846,28.74062c-0.42163,5.66922 -2.53327,9.49969 -3.15031,12.52053c-0.61704,3.02084 -0.4096,6.13662 -2.20622,16.0397c-1.12121,6.18021 -4.16183,8.92466 -10.01942,14.66081c-5.85759,5.73616 -9.05378,9.25275 -13.01359,9.32173c-3.81077,0.06639 -8.93565,-5.1002 -13.93542,-10.38244c-5.32393,-5.62474 -8.87489,-8.47713 -9.71551,-15.13975c-0.75707,-6.00039 -0.77653,-9.90853 -1.12266,-15.24835c-0.25298,-3.90273 -2.26119,-6.44504 -2.57636,-10.42801z" fill="#000000" stroke="#000000" stroke-width="1.5" stroke-linecap="butt"/><path d="M261.29774,95.06699c0,0 1.52429,0.31807 4.2558,1.11029c2.49492,0.72361 4.44935,1.74403 4.44935,1.74403l0.1951,1.17035c0,0 -7.24963,-3.12997 -15.1158,-2.4706c-6.2896,0.52724 -9.96319,2.8124 -9.96319,2.8124l0.04575,-4.17683c0,0 3.12748,-1.70421 7.86366,-1.85557c4.90428,-0.15672 8.09084,0.59125 8.09084,0.59125z" data-paper-data="{&quot;index&quot;:null}" fill="#000000" stroke="none" stroke-width="1.5" stroke-linecap="butt"/><path d="M248.53361,138.05454c0.5704,0.21186 3.08357,1.39942 6.02385,2.59586c2.9637,1.20597 7.21362,2.29294 7.19412,2.4605c-0.02476,0.21265 -10.43477,0.22694 -13.67937,0.63224c-2.71902,0.33964 -6.68867,0.70564 -6.68867,0.70564c0,0 -7.10401,-1.16169 -13.27235,-2.44521c-4.94371,-1.02869 -10.39929,-1.66108 -10.40995,-1.75461c-0.01439,-0.12613 3.86835,-0.71071 6.82417,-1.39467c1.14585,-0.49661 5.43971,-1.48513 5.43971,-1.48513c0,0 4.95585,-0.27766 7.60826,0.579c2.84203,0.91791 2.83546,2.44556 3.0831,2.46906c0,0 1.18436,-1.74932 2.36886,-2.10461c1.18451,-0.35528 5.08219,-0.41633 5.50828,-0.25808z" fill="#000000" stroke="#000000" stroke-width="1.4" stroke-linecap="butt"/><path d="M229.88562,147.62249c5.09114,1.02674 11.91756,2.80736 11.91756,2.80736c0,0 5.78976,-1.55585 8.44678,-1.8344c2.05992,-0.21596 11.216,-0.70654 11.26026,-0.33377c0.04328,0.36447 -9.03119,12.90033 -21.14808,12.44714c-13.76954,-0.43578 -22.86459,-15.13559 -22.82675,-15.30472c0.03784,-0.16913 7.2591,1.19165 12.35024,2.2184z" fill="#000000" stroke="#000000" stroke-width="1.9" stroke-linecap="butt"/><path d="M240.85988,139.61445c-1.03376,0 -3.5381,-3.26042 -3.7867,-5.3637c-0.22243,-1.88186 1.31512,-3.82799 3.7867,-3.82799c2.47159,0 4.2021,0.49077 4.02999,4.18853c-0.14607,3.13818 -1.55841,5.00317 -4.02999,5.00317z" fill="#000000" stroke="#000000" stroke-width="1.15" stroke-linecap="butt"/><path d="M244.46199,109.52073c0,0 0.1026,3.96976 0.00576,7.12662c-0.19174,6.25113 -1.08147,27.7607 -1.08147,27.7607l-2.98167,0.00864c0,0 -0.80294,-4.17274 -1.12322,-9.49979c-0.43353,-7.21063 -0.4495,-16.29321 -0.76344,-19.63229c-0.29758,-3.16513 -0.89593,-5.71453 -0.89593,-5.71453" fill="#000000" stroke="#000000" stroke-width="1.3" stroke-linecap="round"/><path d="M214.92738,120.31057c0,0 -4.93211,-3.51705 -6.16417,-8.97502c-1.29636,-5.74284 -1.46118,-9.7328 0.48013,-9.99193c1.94131,-0.25915 2.70321,2.37692 3.73262,8.35569c1.0294,5.97877 1.95143,10.61127 1.95143,10.61127z" data-paper-data="{&quot;index&quot;:null}" fill="#000000" stroke="#000000" stroke-width="1" stroke-linecap="butt"/><path d="M214.72479,116.36301c0,0 -3.56385,-2.92338 -4.31816,-8.45061c-0.42079,-3.08327 2.15675,-2.28016 2.15675,-2.28016" fill="#000000" stroke="#000000" stroke-width="0.25" stroke-linecap="round"/><path d="M217.73819,109.70711c0.07093,-4.89188 4.83834,-8.93609 10.21137,-8.8582c5.37302,0.0779 9.02724,4.2484 8.95632,9.14029c-0.07093,4.89188 -4.12352,8.79439 -9.49655,8.7165c-5.37302,-0.0779 -9.74207,-4.1067 -9.67114,-8.99859z" fill="#000000" stroke="#000000" stroke-width="1.4" stroke-linecap="butt"/><path d="M222.17582,109.82505c0.03999,-2.75843 2.30855,-4.96213 5.06696,-4.92214c2.75843,0.03999 4.96213,2.30855 4.92214,5.06696c-0.03999,2.75843 -2.30854,4.96213 -5.06696,4.92214c-2.75843,-0.03999 -4.96213,-2.30855 -4.92214,-5.06696z" fill="#000000" stroke="none" stroke-width="1.5" stroke-linecap="butt"/><path d="M244.79446,109.70784c0.20353,-4.88817 4.45264,-8.85847 9.77048,-8.85847c5.31783,0 9.27453,3.96607 9.27453,8.85847c0,4.8924 -3.88585,9.07104 -9.69964,9.14188c-5.52997,0.06739 -9.55792,-4.03692 -9.34537,-9.14188z" fill="#000000" stroke="#000000" stroke-width="1.4" stroke-linecap="butt"/><path d="M249.39722,109.79339c0,-2.81845 2.2848,-5.10325 5.10325,-5.10325c2.81845,0 5.10325,2.2848 5.10325,5.10325c0,2.81845 -2.28479,5.10325 -5.10325,5.10325c-2.81845,0 -5.10325,-2.2848 -5.10325,-5.10325z" fill="#000000" stroke="none" stroke-width="1.5" stroke-linecap="butt"/><path d="M217.66975,109.17493c0,0 0.06357,-9.01512 10.60111,-8.8249c9.47101,0.16586 9.55554,9.40723 9.55554,9.40723z" fill="#000000" stroke="#000000" stroke-width="1.15" stroke-linecap="butt"/><path d="M244.41682,109.30583c0,0 -0.24686,-9.4582 11.19813,-9.1032c9.71427,0.33347 9.54677,9.65229 9.54677,9.65229z" fill="#000000" stroke="#000000" stroke-width="1.15" stroke-linecap="butt"/><path d="M221.19961,99.16327c0,0 3.36963,-1.819 8.03244,-2.28178c5.16698,-0.51283 7.76823,-0.06628 7.76823,-0.06628l0.29508,4.13747c0,0 -3.83554,-0.68065 -8.01795,-0.52113c-5.59346,0.21333 -6.64488,1.43293 -10.89774,1.89119c-3.64408,0.39266 -6.73723,0.15884 -6.73723,0.15884l-0.02589,-1.23155c0,0 3.59517,0.07398 5.23371,-0.06836c1.35239,-0.11749 3.9757,-0.93808 3.9757,-0.93808z" fill="#000000" stroke="none" stroke-width="1.5" stroke-linecap="butt"/><path d="M269.16054,109.6993c1.0294,-5.97877 1.7913,-8.61483 3.73262,-8.35569c1.94131,0.25914 1.77649,4.24909 0.48013,9.99193c-1.23206,5.45797 -6.16417,8.97502 -6.16417,8.97502c0,0 0.92203,-4.6325 1.95143,-10.61127z" data-paper-data="{&quot;index&quot;:null}" fill="#000000" stroke="#000000" stroke-width="1" stroke-linecap="butt"/><path d="M269.57311,105.63224c0,0 2.57754,-0.80312 2.15675,2.28016c-0.75431,5.52723 -4.31816,8.45061 -4.31816,8.45061" data-paper-data="{&quot;index&quot;:null}" fill="#000000" stroke="#000000" stroke-width="0.25" stroke-linecap="round"/><path d="M250.08268,109.01991c0.00334,-2.42588 2.07443,-4.39145 4.62876,-4.39145c2.5564,0 4.62876,1.96875 4.62876,4.39732c0,0.28081 -0.02771,0.55546 -0.08067,0.82164" fill="none" stroke="#ffffff" stroke-width="1" stroke-linecap="butt"/><path d="M200.48067,184.1659c0,-0.16796 0.04141,-0.32624 0.11457,-0.4652l0.45388,-0.90776c-0.00212,-0.00455 0.0212,-0.0558 0.06151,-0.13814c0.10459,-0.44039 0.23705,-0.85065 0.37192,-1.18597c0.20642,-0.51322 0.4538,-1.0401 0.73334,-1.57317c0.04681,-0.21414 0.09581,-0.4277 0.15617,-0.63811c0.64074,-2.23353 1.72137,-5.29569 3.29226,-7.6061c0.37232,-1.18781 0.65567,-2.37564 0.80503,-3.55698c0.41408,-0.59837 0.76459,-1.24408 1.04173,-1.92739c0.00615,-0.01253 0.01225,-0.02509 0.01832,-0.03768c0.98627,-1.79847 2.87888,-3.5034 4.35321,-4.88865c0.49543,-0.46551 0.45042,-1.3268 0.90495,-1.82914c2.51647,-2.17374 5.3721,-4.20542 6.89667,-5.10559c1.6936,-0.99998 3.39892,-1.94334 5.11849,-2.84227c0.17533,-0.06006 0.34817,-0.12918 0.51777,-0.20955c3.08843,-0.05105 5.88662,-0.48963 9.02441,-0.48963c2.77552,0 5.94268,0.42612 8.67247,0.00749c4.1239,-0.63243 8.70351,-1.85225 12.60417,0.09808c1.74735,0.87367 3.23616,1.69506 4.76626,2.86044c1.09922,0.83721 2.81406,0.98882 3.8254,1.95564c1.17753,1.12569 2.12136,2.5123 3.24014,3.70301c0.18652,0.19851 0.43659,0.31025 0.70164,0.40213c1.68946,2.03388 3.34751,3.86576 3.7864,4.36735c1.16798,1.33483 2.36,2.97753 3.63503,4.61539c-0.17055,0.51567 -0.76517,0.63459 -0.76517,0.63459c-2.96008,0.5841 -5.03143,2.15364 -7.5867,3.60062c-3.5138,1.98977 -7.57696,3.47514 -11.05406,5.52227c-2.55206,1.50251 -4.70205,3.74294 -7.43736,5.1106c-4.49992,2.99994 -9.24708,5.57384 -13.88629,8.33177c-3.10871,1.84808 -5.03493,4.37113 -8.38648,6.04691c-3.65503,1.76057 -5.37018,4.93198 -8.07188,7.68158l-0.92575,0.92575l-0.33858,-0.33857l-0.95324,0.44271c0.02552,-0.3639 0.06352,-0.71153 0.11093,-1.04813l-0.42065,-0.21033l0.46287,-0.92575l0.14168,0.07084c0.20696,-1.02817 0.47665,-2.00081 0.70525,-3.09351c0.32923,-1.57368 -0.17857,-3.19786 -0.46287,-4.63214c-0.70512,-3.55731 -0.60133,-7.79762 -1.58537,-11.09455c-0.12678,-0.42477 -0.7665,0.44621 -1.16006,0.65019c-0.51925,0.26913 -1.0512,0.5148 -1.59161,0.73844c-2.09799,5.06965 -1.55861,10.44645 -1.55861,15.95644c0,1.74518 0.39521,4.0973 -0.02676,5.78427c-0.33633,1.34463 -1.8682,2.41855 -2.58052,3.71749c-2.15333,1.18087 -3.31234,2.36796 -4.95863,4.01461l-0.39888,0.79776c-0.16035,0.33825 -0.50491,0.57217 -0.90412,0.57217c-0.55229,0 -1,-0.44771 -1,-1v-1.38863h0.32165c-0.1336,-1.77829 0.09575,-3.45748 -0.2949,-5.32476c-0.14805,-0.70768 -0.29075,-1.41414 -0.42757,-2.12009c0.97822,-4.46309 0.26077,-10.09317 0.29179,-16.4306c0.00554,-1.13108 0.23416,-2.31573 0.55129,-3.52986c-0.26677,-0.17959 -0.44226,-0.48437 -0.44226,-0.83014v-1.38863h0.11215l-0.0854,-0.22975c0.04543,-0.09087 0.08659,-0.18112 0.12404,-0.27087c-0.06097,-0.15472 -0.10616,-0.32228 -0.13768,-0.49901c-0.28561,-0.17606 -0.47599,-0.49174 -0.47599,-0.85188z" fill="#000000" stroke="none" stroke-width="0.5" stroke-linecap="butt"/><path d="M217.68134,211.01272c0,0 13.24293,-10.64261 22.32103,-16.50406c10.34979,-6.68254 36.46425,-21.45179 36.46425,-21.45179" fill="none" stroke="#000000" stroke-width="2.5" stroke-linecap="round"/><path d="M210.73819,215.17861l-9.25753,7.8689" fill="none" stroke="#000000" stroke-width="2.5" stroke-linecap="round"/><path d="M265.43183,211.4756l-0.10557,0.01566c1.11255,2.34795 0.05647,5.53178 -0.37021,8.01342c-0.36246,2.10814 0.01291,4.63766 0.01291,6.78296c0,9.8747 0,19.74938 0,29.62408c0,0 0,0.303 -0.16679,0.57542l0.07688,0.78188c-3.25137,1.62568 -6.55389,3.13086 -10.00743,4.25855c-2.44484,0.00929 -4.58533,1.04805 -6.98114,1.39405c-5.94204,0.85812 -14.71949,2.58396 -20.40911,-0.06802c-0.02106,-0.00926 -0.04238,-0.01927 -0.06396,-0.03006c-0.31063,-0.15531 -0.45944,-0.36457 -0.52136,-0.57157c-0.07466,-0.20275 -0.08117,-0.45944 0.07415,-0.77007c0.00679,-0.01358 0.01368,-0.02684 0.02067,-0.03981l0.5451,-1.04986c5.42648,-4.85213 9.75997,-10.22701 14.36735,-15.76066c2.37917,-2.85747 4.31101,-6.16251 6.94315,-8.79465c5.44251,-8.21884 10.31739,-16.5243 14.69095,-25.27141c0,0 0.44722,-0.89443 1.34164,-0.44721c0.61856,0.30928 0.59545,0.83245 0.52236,1.12575c0.03043,0.13408 0.03043,0.23155 0.03043,0.23155z" fill="#ec0000" stroke="none" stroke-width="0.5" stroke-linecap="butt"/><path d="M219.06996,231.9164c-0.09119,0 -0.17408,-0.00832 -0.2494,-0.02343c-0.19419,0.03515 -0.34751,0.01441 -0.34751,0.01441l-0.03566,-0.18684c-0.36743,-0.29114 -0.36743,-0.80414 -0.36743,-0.80414c0,-3.66034 0.30821,-7.35862 -0.87444,-10.7928l-0.03473,-0.84041c-0.24297,-0.12832 -0.47947,-0.37814 -0.47947,-0.86445c0,-1 1,-1 1,-1c2.58077,0.03317 4.5907,1.04788 7.10333,1.40154c3.64152,0.51257 7.72195,-0.01291 11.41172,-0.01291c2.56795,0 5.70229,0.34322 7.98483,-0.86363c1.9982,-0.49955 3.6219,-1.35475 5.45425,-2.27093l0.90776,-0.45388c0.13897,-0.07316 0.29725,-0.11457 0.4652,-0.11457c0.55229,0 1,0.44771 1,1c0,0.16796 -0.04141,0.32625 -0.11457,0.46521l-0.45387,0.90775l-0.05621,-0.0281c-0.03658,0.09859 -0.07974,0.19479 -0.13112,0.28799c-0.63494,1.15168 -4.60071,2.35773 -5.8144,2.96458c-4.37603,2.18802 -8.51884,4.70779 -12.96053,6.94314c-3.79731,1.89865 -8.2827,2.91599 -12.61155,3.9028c-0.14252,0.19932 -0.38468,0.36866 -0.7962,0.36866z" fill="#ec0000" stroke="none" stroke-width="0.5" stroke-linecap="butt"/><path d="M264.43182,303.12509l-47.21337,0.46288l0.46288,-24.99532l46.7505,-13.88629z" fill="#ec0000" stroke="#ec0000" stroke-width="0.5" stroke-linecap="round"/></g></g></svg>