<svg version="1.1" xmlns="http://www.w3.org/2000/svg" xmlns:xlink="http://www.w3.org/1999/xlink" width="112.36087" height="225.96753" viewBox="0,0,112.36087,225.96753"><g transform="translate(-194.62697,-79.53232)"><g data-paper-data="{&quot;isPaintingLayer&quot;:true}" fill-rule="nonzero" stroke-linejoin="miter" stroke-miterlimit="10" stroke-dasharray="" stroke-dashoffset="0" style="mix-blend-mode: normal"><path d="M201.54535,304.39158c0,0 -0.63536,-94.38387 -0.79335,-118.01201c-0.05451,-8.15261 8.18688,-36.76129 40.20201,-36.9211c31.60235,-0.15775 39.85672,29.48704 39.84884,36.89673c-0.07659,46.24274 0.65429,117.98648 0.65429,117.98648l-10.49667,0.09614l-0.15882,-114.84311c0,0 0.07549,-3.0993 -2.81625,-3.15415c-3.43441,-0.06514 -2.94538,3.11562 -2.94538,3.11562l0.20548,114.86995l-48.21366,0.07222l-0.30539,-115.23309c0,0 0.27949,-2.919 -2.8856,-2.93443c-3.11083,-0.01515 -2.81569,2.90899 -2.81569,2.90899l0.35311,115.0668z" fill="#000000" stroke="#000000" stroke-width="2" stroke-linecap="butt"/><path d="M256.14251,200.33376c-0.57113,0 -1.03411,-0.46299 -1.03411,-1.03411c0,-0.57113 0.46299,-1.03413 1.03411,-1.03413c0.57113,0 1.03411,0.463 1.03411,1.03413c0,0.57113 -0.46299,1.03411 -1.03411,1.03411z" fill="#000000" stroke="none" stroke-width="1.5" stroke-linecap="butt"/><path d="M250.88264,204.56935c-4.4635,-0.31439 -6.55245,-1.79392 -6.16985,-2.58011c0.11788,-0.24224 2.84645,1.06355 6.97038,1.3048c6.40897,0.37493 8.51033,-0.63173 8.51033,-0.63173v1.34616c0,0 -2.4135,1.04672 -9.31086,0.56089z" fill="#000000" stroke="#000000" stroke-width="0" stroke-linecap="butt"/><path d="M223.06989,199.29965c0,-0.57113 0.46299,-1.03413 1.03411,-1.03413c0.57113,0 1.03413,0.463 1.03413,1.03413c0,0.57113 -0.463,1.03411 -1.03413,1.03411c-0.57113,0 -1.03411,-0.46299 -1.03411,-1.03411z" fill="#000000" stroke="none" stroke-width="1.5" stroke-linecap="butt"/><path d="M229.36386,204.56935c-6.89736,0.48585 -9.31086,-0.56089 -9.31086,-0.56089v-1.34616c0,0 2.10136,1.00666 8.51033,0.63173c4.12393,-0.24126 6.85251,-1.54704 6.97039,-1.3048c0.3826,0.78618 -1.70634,2.26571 -6.16985,2.58011z" fill="#000000" stroke="#000000" stroke-width="0" stroke-linecap="butt"/><path d="M240.64432,261.12113c-0.81895,0 -1.48284,-0.66389 -1.48284,-1.48284c0,-0.81895 0.66389,-1.48284 1.48284,-1.48284c0.81895,0 1.48284,0.66389 1.48284,1.48284c0,0.81895 -0.66389,1.48284 -1.48284,1.48284z" data-paper-data="{&quot;index&quot;:null}" fill="#000000" stroke="none" stroke-width="1.5" stroke-linecap="butt"/><path d="M219.83207,302.10564v-119.20147c0,0 0.75721,-9.73105 0.75721,-14.63937c0,-4.498 -0.75721,-13.6872 -0.75721,-13.6872c0,0 2.67319,-2.35297 4.6557,-3.74807c1.98251,-1.3951 5.17197,-2.80371 5.17197,-2.80371c0,0 -0.6016,25.87552 14.55952,25.80517c15.43477,-0.07162 13.83154,-25.80517 13.83154,-25.80517c0,0 3.91276,1.51959 6.16585,2.94655c2.25309,1.42695 4.75379,3.60523 4.75379,3.60523c0,0 10.04764,6.92833 14.54833,20.25099c4.26445,12.62335 2.99467,31.61094 2.99467,33.93039c0,3.17572 -9.57995,5.51418 -14.77384,-3.04855c-2.72509,-4.49263 -2.76916,-22.30144 -2.76916,-22.30144v118.69667z" fill="#ffffff" stroke="none" stroke-width="0" stroke-linecap="butt"/><path d="M261.53576,85.28522c0,0 5.35839,6.659 6.20954,6.86277c2.23236,0.53442 40.03302,3.35692 38.25843,39.47599c-3.00545,44.5444 -38.63488,35.76367 -45.67079,37.66981c-9.6473,2.61361 -17.87315,4.60655 -17.87315,4.60655c0,0 2.28833,-2.57635 3.47976,-3.78906c1.11123,-1.13108 3.46719,-3.51082 3.46719,-3.51082c0,0 -10.57936,2.17145 -20.7302,-0.50952c-9.30739,-2.38796 -16.51886,-8.78072 -16.51886,-8.78072l2.43964,-0.94485c0,0 -2.09976,-1.21152 -3.13041,-2.44407c-1.03064,-1.23256 -2.59985,-3.68098 -2.59985,-3.68098l3.69801,0.23324c0,0 -10.35616,-7.99939 -8.69357,-25.21045c1.68489,-16.22098 12.92107,-25.03457 12.92107,-25.03457l-2.63441,-0.34864c0,0 3.62172,-3.59091 10.21236,-5.30607c7.85528,-2.04426 12.48021,-2.15298 12.48021,-2.15298c0,0 -1.68665,-2.49666 -2.2622,-5.93837c-0.7212,-4.31267 0.26544,-6.95016 0.26544,-6.95016c0,0 2.3902,3.83239 4.26167,5.98085c1.66696,1.91367 3.13204,2.93263 3.13204,2.93263c0,0 -0.89564,-2.19461 -1.24041,-4.35838c-0.35974,-2.25765 -0.17536,-4.06112 -0.17536,-4.06112c0,0 4.58146,5.39762 10.21563,7.95754c5.31957,2.41698 10.73088,3.05281 10.73088,3.05281c0,0 -0.53963,-1.41444 -0.49994,-3.38704c0.02515,-1.25037 0.2573,-2.36439 0.2573,-2.36439z" fill="#000000" stroke="none" stroke-width="1.5" stroke-linecap="butt"/><path d="M248.79406,101.2775c7.31574,0.0649 17.05896,1.83852 17.05896,1.83852c0,0 -0.2581,3.40106 1.91154,14.13647c1.66688,8.24761 7.64822,21.30033 7.64822,21.30033c0,0 -2.80396,-2.41533 -4.14402,-3.78592c-1.42463,-1.4571 -4.19512,-4.3778 -4.19512,-4.3778c0,0 0.97362,7.95407 3.42379,15.03305c2.77049,8.8455 5.10057,11.08267 3.43897,13.30337c-1.96109,2.62097 -23.18369,-1.00752 -28.69285,-1.80547c-5.61038,-0.91731 -9.24085,-3.35683 -12.19592,-4.23648c-2.95507,-0.87965 -6.07703,-0.94633 -15.78434,-3.60473c-6.05803,-1.65902 -8.52518,-4.92867 -13.72538,-11.26686c-5.20021,-6.33819 -8.42287,-9.83054 -8.14423,-13.78114c0.26815,-3.8019 5.86438,-8.45381 11.56485,-12.97094c6.07008,-4.81 9.22297,-8.09706 15.93364,-8.34998c6.04367,-0.22779 9.93845,0.09565 15.28805,0.21927c3.90988,0.09035 6.61855,-1.68711 10.61381,-1.65167z" fill="#000000" stroke="#000000" stroke-width="1.5" stroke-linecap="butt"/><path d="M259.63939,150.48855c0,0 -0.45056,1.49051 -1.47933,4.142c-0.93968,2.42183 -2.12761,4.27921 -2.12761,4.27921l-1.18295,0.09168c0,0 3.75385,-6.94712 3.78705,-14.84081c0.02652,-6.3116 -1.92758,-10.17149 -1.92758,-10.17149l4.15672,0.41197c0,0 1.42329,3.26492 1.15861,7.99612c-0.27409,4.89912 -1.29871,8.00779 -1.29871,8.00779z" data-paper-data="{&quot;index&quot;:null}" fill="#000000" stroke="none" stroke-width="1.5" stroke-linecap="butt"/><path d="M248.53362,143.06889c0.5704,0.21186 3.08357,1.39942 6.02385,2.59586c2.9637,1.20597 7.21362,2.29294 7.19412,2.4605c-0.02476,0.21265 -10.43477,0.22694 -13.67937,0.63224c-2.71902,0.33964 -6.68867,0.70564 -6.68867,0.70564c0,0 -7.10401,-1.16169 -13.27235,-2.44521c-4.94371,-1.02869 -10.39929,-1.66108 -10.40995,-1.75461c-0.01439,-0.12613 3.86835,-0.71071 6.82417,-1.39467c1.14585,-0.49661 5.43971,-1.48513 5.43971,-1.48513c0,0 4.95585,-0.27766 7.60826,0.579c2.84203,0.91791 2.83546,2.44556 3.0831,2.46906c0,0 1.18436,-1.74932 2.36886,-2.10461c1.18451,-0.35528 5.08219,-0.41633 5.50828,-0.25808z" fill="#000000" stroke="#000000" stroke-width="1.4" stroke-linecap="butt"/><path d="M230.86977,155.68992c5.09114,1.02674 12.40965,5.48852 12.40965,5.48852c0,0 6.57708,-4.33276 9.2341,-4.61131c2.05992,-0.21596 7.96827,-8.48672 8.01253,-8.11395c0.04328,0.36447 -6.71841,20.17779 -18.8353,19.7246c-13.76954,-0.43578 -21.48677,-20.80914 -21.44893,-20.97827c0.03784,-0.16913 5.88128,6.8652 10.97242,7.89195z" fill="#000000" stroke="#000000" stroke-width="1.9" stroke-linecap="butt"/><path d="M246.96395,132.57026c0,0 -3.96346,-0.24603 -7.09965,-0.61942c-6.21021,-0.73936 -27.55882,-3.5125 -27.55882,-3.5125l0.25295,-2.97093c0,0 4.22709,-0.43381 9.5617,-0.28556c7.22086,0.20067 16.26983,0.98149 19.62358,0.96167c3.17903,-0.01878 5.77109,-0.39119 5.77109,-0.39119" fill="#ffffff" stroke="#000000" stroke-width="1.3" stroke-linecap="round"/><path d="M242.51089,102.22704c0,0 3.22474,-3.29367 8.79683,-3.56022c3.1083,-0.1487 2.08218,2.34845 2.08218,2.34845" fill="none" stroke="#000000" stroke-width="0.25" stroke-linecap="round"/><path d="M248.87679,105.81269c4.8668,0.49978 8.47722,5.60357 7.9283,10.94906c-0.54893,5.34547 -5.0239,8.61977 -9.89071,8.12c-4.8668,-0.49978 -8.39877,-4.87908 -7.84985,-10.22456c0.54893,-5.34547 4.94545,-9.34427 9.81226,-8.84449z" fill="#ffffff" stroke="#000000" stroke-width="1.4" stroke-linecap="butt"/><path d="M246.65014,132.90931c4.85147,0.63154 8.43373,5.21255 7.96724,10.50989c-0.46649,5.29733 -4.76435,8.89087 -9.63789,8.4617c-4.87354,-0.42917 -8.6952,-4.66659 -8.25578,-10.46418c0.41796,-5.51456 4.85979,-9.16695 9.92642,-8.50741z" fill="#ffffff" stroke="#000000" stroke-width="1.4" stroke-linecap="butt"/><path d="M245.74059,135.62205c2.80759,0.24724 4.88315,2.72365 4.63592,5.53124c-0.24724,2.80759 -2.72365,4.88315 -5.53124,4.63592c-2.80759,-0.24724 -4.88315,-2.72364 -4.63592,-5.53124c0.24724,-2.80759 2.72365,-4.88315 5.53124,-4.63592z" fill="#000000" stroke="none" stroke-width="1.5" stroke-linecap="butt"/><path d="M259.07635,110.18568c0,0 1.5164,3.5162 1.56837,8.20164c0.0576,5.19205 -0.61541,7.7441 -0.61541,7.7441l-4.14741,-0.069c0,0 1.01448,-3.76105 1.22246,-7.94133c0.27816,-5.59061 -0.84451,-6.74496 -0.92794,-11.02163c-0.07148,-3.66448 0.43277,-6.72519 0.43277,-6.72519l1.22907,0.08224c0,0 -0.38907,3.57482 -0.39101,5.21953c-0.0016,1.35748 0.58571,4.04266 0.58571,4.04266z" fill="#000000" stroke="none" stroke-width="1.5" stroke-linecap="butt"/><path d="M248.38894,157.80524c0,0 0.57392,2.63805 -2.46056,1.94842c-5.43975,-1.23626 -8.03924,-5.04281 -8.03924,-5.04281" data-paper-data="{&quot;index&quot;:null}" fill="none" stroke="#000000" stroke-width="0.25" stroke-linecap="round"/><path d="M248.90547,168.65877c-2.31223,0.95058 -3.26281,-1.36165 -3.26281,-1.36165l-0.7759,-2.49575c0.04047,-0.87144 0.1073,-1.73941 0.19252,-2.60516c-1.3259,0.11866 -2.76691,-0.40987 -3.80342,-1.23227c-0.00612,-0.00485 -0.01222,-0.00971 -0.01831,-0.01459l-0.47279,2.49509c0,0 -0.73661,2.38902 -3.12562,1.65241c-2.38902,-0.73661 -1.65241,-3.12562 -1.65241,-3.12562l0.55958,-0.55091c-0.43039,-1.66358 -0.92123,-3.28818 -1.45641,-4.89379c-0.88517,-0.26583 -1.75904,-0.55279 -2.61308,-0.87378c-3.79558,-1.42654 -7.33937,-3.93891 -10.75416,-6.09714c0,0 -2.11291,-1.33626 -0.77665,-3.44918c1.33626,-2.11291 3.44918,-0.77665 3.44918,-0.77665c0.92034,0.58244 1.85639,1.20395 2.80819,1.82333c0.42028,-0.32046 0.94515,-0.51076 1.51446,-0.51076c0.1431,0 0.28339,0.01202 0.41992,0.03511l3.02477,0.45985c0.16557,-0.56499 0.57748,-1.13798 1.48296,-1.49854c2.32263,-0.92486 3.2475,1.39777 3.2475,1.39777c0.06821,0.17135 0.1362,0.34257 0.20395,0.51369c0.48749,0.0308 0.97,0.13301 1.44979,0.27448c0.58058,0.02684 1.1367,0.11376 1.61106,0.40161l-0.0072,-0.04719l2.46533,-0.37626c0.13701,-0.02326 0.27782,-0.03537 0.42145,-0.03537c0.94694,0 1.77092,0.52648 2.19518,1.3027c0.50268,-0.0318 1.00424,-0.06519 1.50821,-0.09222c0.01129,-0.14946 0.02193,-0.29904 0.03189,-0.44875c0,0 0.05827,-0.87402 0.62318,-1.55284c-0.26058,-0.39463 -0.41227,-0.86749 -0.41227,-1.37577c0,-1.38071 1.11929,-2.5 2.5,-2.5c1.38071,0 2.5,1.11929 2.5,2.5c0,0.63391 -0.23594,1.21272 -0.62479,1.6534c0.46035,0.74467 0.4028,1.60781 0.4028,1.60781c-0.00683,0.1023 -0.01401,0.20456 -0.0215,0.30678c0.05257,0.00888 0.10525,0.01804 0.15807,0.0275l0.52573,-0.20608c0,0 0.91202,-0.13146 1.70849,0.31894c0.11103,-0.07435 0.2219,-0.14877 0.33256,-0.22333c0.20735,-0.17108 0.41432,-0.33467 0.63259,-0.42928c0.07931,-0.05427 0.15849,-0.10863 0.23751,-0.16309l2.02127,-1.80656c0.44312,-0.39957 1.02996,-0.64281 1.67361,-0.64281c1.38071,0 2.5,1.11929 2.5,2.5c0,0.66009 -0.25583,1.26044 -0.67374,1.70729l-1.86538,2.00601l-0.0755,-0.0702c-0.06765,0.11372 -0.13869,0.22569 -0.21348,0.33574c-0.57026,0.83897 -1.67949,1.12138 -2.63355,1.52232c-0.30338,0.33787 -0.69745,0.59264 -1.14391,0.72603c-1.42923,0.95287 -2.84749,1.92422 -4.17568,2.97962c-0.03809,0.03026 -0.0798,0.06449 -0.12487,0.10233c-0.35114,2.38538 -0.66525,4.76833 -0.76177,7.166l0.40509,0.37693c0,0 0.95058,2.31223 -1.36165,3.26281z" fill="#000000" stroke="none" stroke-width="0.5" stroke-linecap="butt"/><path d="M237.10237,149.75108c-4.85321,-0.42738 -19.76603,-6.00351 -18.90184,-15.81712c0.86419,-9.81361 -7.5829,-15.41318 -2.72969,-14.9858c4.85321,0.42738 9.22968,3.93953 8.36549,13.75314c-0.86419,9.81361 18.11925,17.47715 13.26605,17.04978z" fill="#ffffff" stroke="#000000" stroke-width="1.3" stroke-linecap="butt"/><path d="M262.45932,85.8413c0,0 5.35839,6.659 6.20954,6.86277c2.23236,0.53442 40.03302,3.35692 38.25843,39.47599c-3.00545,44.5444 -33.02709,7.01365 -40.063,8.91979c-9.6473,2.61361 -19.5162,-6.20816 -19.5162,-6.20816c0,0 -12.072,2.94311 -10.88057,1.7304c1.11123,-1.13108 -2.92346,-3.34906 -2.92346,-3.34906c0,0 -3.15614,3.74722 -13.30697,1.06625c-9.30739,-2.38796 -11.93353,9.01132 -11.93353,9.01132l0.36103,-9.36098c0,0 2.566,0.38491 1.53534,-0.84765c-1.03064,-1.23256 -0.91545,1.9341 -0.91545,1.9341l2.44297,6.1164c0,0 -8.59497,1.83777 -6.93238,-15.37329c1.68489,-16.22098 12.92107,-25.03457 12.92107,-25.03457l-2.63441,-0.34864c0,0 3.62172,-3.59091 10.21236,-5.30607c7.85528,-2.04426 12.48021,-2.15298 12.48021,-2.15298c0,0 -1.68665,-2.49666 -2.2622,-5.93837c-0.7212,-4.31267 0.26544,-6.95016 0.26544,-6.95016c0,0 2.3902,3.83239 4.26167,5.98085c1.66696,1.91367 3.13204,2.93263 3.13204,2.93263c0,0 -0.89564,-2.19461 -1.24041,-4.35838c-0.35974,-2.25765 -0.17536,-4.06112 -0.17536,-4.06112c0,0 4.58146,5.39762 10.21563,7.95754c5.31957,2.41698 10.73088,3.05281 10.73088,3.05281c0,0 -0.53963,-1.41444 -0.49994,-3.38704c0.02515,-1.25037 0.2573,-2.36439 0.2573,-2.36439z" fill="#ffffff" stroke="none" stroke-width="1.5" stroke-linecap="butt"/><path d="M248.06639,107.8914c5.53788,0.56868 9.56615,5.51901 8.99748,11.05684c-0.56868,5.53788 -5.51901,9.56615 -11.05684,8.99748c-5.53788,-0.56868 -9.56616,-5.51899 -8.99748,-11.05684c0.56868,-5.53788 5.51901,-9.56615 11.05684,-8.99748z" fill="#000000" stroke="none" stroke-width="1.5" stroke-linecap="butt"/><path d="M221.08671,139.26506c-0.16986,-0.01496 0.51465,-1.14546 0.32124,-1.17299c-5.33234,-0.75914 -3.65209,-0.43614 -2.81815,-9.90627c0.86419,-9.81361 -7.5829,-15.41318 -2.72969,-14.9858c4.85321,0.42738 9.22968,3.93953 8.36549,13.75314c-0.86419,9.81361 3.21034,9.57782 -1.64287,9.15044z" fill="#000000" stroke="#000000" stroke-width="1.3" stroke-linecap="butt"/><path d="M247.85081,113.134c2.67964,0.34883 4.65824,2.87907 4.40059,5.80497c-0.25766,2.9259 -2.63152,4.91073 -5.32334,4.67369c-2.69182,-0.23704 -4.80266,-2.57752 -4.55995,-5.77973c0.23086,-3.04588 2.68423,-5.06323 5.48271,-4.69894z" fill="#ffffff" stroke="#000000" stroke-width="1.4" stroke-linecap="butt"/></g></g></svg>