<svg version="1.1" xmlns="http://www.w3.org/2000/svg" xmlns:xlink="http://www.w3.org/1999/xlink" width="82.71555" height="230.62868" viewBox="0,0,82.71555,230.62868"><g transform="translate(-199.75172,-74.87117)"><g data-paper-data="{&quot;isPaintingLayer&quot;:true}" fill-rule="nonzero" stroke-linecap="butt" stroke-linejoin="miter" stroke-miterlimit="10" stroke-dasharray="" stroke-dashoffset="0" style="mix-blend-mode: normal"><path d="M201.54534,304.39158c0,0 -0.63536,-94.38387 -0.79335,-118.01201c-0.05451,-8.15261 8.18688,-36.76129 40.20201,-36.9211c31.60235,-0.15775 39.85672,29.48704 39.84884,36.89673c-0.07659,46.24274 0.65429,117.98648 0.65429,117.98648l-10.49667,0.09614l-0.15882,-114.84311c0,0 0.07549,-3.0993 -2.81625,-3.15415c-3.43441,-0.06514 -2.94538,3.11562 -2.94538,3.11562l0.20548,114.86995l-48.21366,0.07222l-0.30539,-115.23309c0,0 0.27949,-2.919 -2.8856,-2.93443c-3.11083,-0.01515 -2.81569,2.90899 -2.81569,2.90899l0.35311,115.0668z" fill="#000000" stroke="#000000" stroke-width="2"/><path d="M256.1425,200.33377c-0.57113,0 -1.03411,-0.46299 -1.03411,-1.03411c0,-0.57113 0.46299,-1.03413 1.03411,-1.03413c0.57113,0 1.03411,0.463 1.03411,1.03413c0,0.57113 -0.46299,1.03411 -1.03411,1.03411z" fill="#000000" stroke="none" stroke-width="1.5"/><path d="M250.88263,204.56935c-4.4635,-0.31439 -6.55245,-1.79392 -6.16985,-2.58011c0.11788,-0.24224 2.84645,1.06355 6.97038,1.3048c6.40897,0.37493 8.51033,-0.63173 8.51033,-0.63173v1.34616c0,0 -2.4135,1.04672 -9.31086,0.56089z" fill="#000000" stroke="#000000" stroke-width="0"/><path d="M223.06988,199.29966c0,-0.57113 0.46299,-1.03413 1.03411,-1.03413c0.57113,0 1.03413,0.463 1.03413,1.03413c0,0.57113 -0.463,1.03411 -1.03413,1.03411c-0.57113,0 -1.03411,-0.46299 -1.03411,-1.03411z" fill="#000000" stroke="none" stroke-width="1.5"/><path d="M229.36386,204.56935c-6.89736,0.48585 -9.31086,-0.56089 -9.31086,-0.56089v-1.34616c0,0 2.10136,1.00666 8.51033,0.63173c4.12393,-0.24126 6.85251,-1.54704 6.97039,-1.3048c0.3826,0.78618 -1.70634,2.26571 -6.16985,2.58011z" fill="#000000" stroke="#000000" stroke-width="0"/><path d="M240.64432,261.12113c-0.81895,0 -1.48284,-0.66389 -1.48284,-1.48284c0,-0.81895 0.66389,-1.48284 1.48284,-1.48284c0.81895,0 1.48284,0.66389 1.48284,1.48284c0,0.81895 -0.66389,1.48284 -1.48284,1.48284z" data-paper-data="{&quot;index&quot;:null}" fill="#000000" stroke="none" stroke-width="1.5"/><path d="M216.58107,304.40601v-119.20147c0,0 0.75721,-9.73105 0.75721,-14.63937c0,-4.498 -0.75721,-13.6872 -0.75721,-13.6872c0,0 2.67319,-2.35297 4.6557,-3.74807c1.98251,-1.3951 5.17197,-2.80371 5.17197,-2.80371c0,0 -0.6016,40.10902 14.55952,40.03867c15.43477,-0.07162 13.83154,-40.03867 13.83154,-40.03867c0,0 3.91276,1.51959 6.16585,2.94655c2.25309,1.42695 4.75379,3.60523 4.75379,3.60523c0,0 -0.75721,9.42463 -0.75721,14.19201c0,4.84193 0.75721,14.63937 0.75721,14.63937v118.69667z" fill="#000000" stroke="#000000" stroke-width="2"/><path d="M246.40355,253.47458c-0.58512,2.43056 -3.01568,1.84544 -3.01568,1.84544l-2.77319,-0.6676c0,0 -2.43056,-0.58512 -1.84544,-3.01568c0.58512,-2.43056 3.01568,-1.84544 3.01568,-1.84544l2.77319,0.6676c0,0 2.43056,0.58512 1.84544,3.01568z" fill="#000000" stroke="none" stroke-width="0.5"/><path d="M278.36531,122.21495c0,25.62258 -16.25898,46.39379 -36.31545,46.39379c-20.05647,0 -36.31545,-20.77121 -36.31545,-46.39379c0,-25.62258 16.25898,-46.39378 36.31545,-46.39378c20.05647,0 36.31545,20.7712 36.31545,46.39378z" fill="#000000" stroke="#000000" stroke-width="1.9"/><g stroke="#000000" stroke-width="1.9"><path d="M242.65841,107.09464c0,5.83052 -4.47232,10.5571 -9.98921,10.5571c-5.51689,0 -9.98922,-4.72658 -9.98922,-10.5571c0,-5.83052 4.47233,-10.5571 9.98922,-10.5571c5.51689,0 9.98921,4.72657 9.98921,10.5571z" fill="#970000"/><path d="M237.90374,107.13752c0,4.34976 -2.27703,7.87593 -5.08588,7.87593c-2.80885,0 -5.08587,-3.52617 -5.08587,-7.87593c0,-4.34976 2.27702,-7.87593 5.08587,-7.87593c2.80885,0 5.08588,3.52617 5.08588,7.87593z" fill="#ec0000"/><path d="M235.73031,107.13662c0,2.31094 -1.20974,4.18433 -2.70202,4.18433c-1.49229,0 -2.70202,-1.87339 -2.70202,-4.18433c0,-2.31094 1.20973,-4.18433 2.70202,-4.18433c1.49229,0 2.70202,1.87338 2.70202,4.18433z" fill="#970000"/></g><g stroke="#000000" stroke-width="1.9"><path d="M265.91454,128.39709c0,5.83052 -4.47232,10.5571 -9.98921,10.5571c-5.51689,0 -9.98922,-4.72657 -9.98922,-10.5571c0,-5.83052 4.47233,-10.5571 9.98922,-10.5571c5.51689,0 9.98921,4.72657 9.98921,10.5571z" fill="#970000"/><path d="M261.15987,128.43997c0,4.34976 -2.27703,7.87593 -5.08587,7.87593c-2.80885,0 -5.08587,-3.52617 -5.08587,-7.87593c0,-4.34976 2.27702,-7.87593 5.08587,-7.87593c2.80885,0 5.08587,3.52617 5.08587,7.87593z" fill="#ec0000"/><path d="M258.98644,128.43907c0,2.31094 -1.20974,4.18433 -2.70202,4.18433c-1.49229,0 -2.70202,-1.87339 -2.70202,-4.18433c0,-2.31094 1.20973,-4.18433 2.70202,-4.18433c1.49228,0 2.70202,1.87339 2.70202,4.18433z" fill="#970000"/></g><g stroke="#000000" stroke-width="1.9"><path d="M240.45485,143.81055c0,5.83052 -4.47232,10.5571 -9.98921,10.5571c-5.51689,0 -9.98922,-4.72657 -9.98922,-10.5571c0,-5.83052 4.47233,-10.5571 9.98922,-10.5571c5.51689,0 9.98921,4.72657 9.98921,10.5571z" fill="#970000"/><path d="M235.70017,143.85344c0,4.34976 -2.27703,7.87593 -5.08588,7.87593c-2.80885,0 -5.08587,-3.52617 -5.08587,-7.87593c0,-4.34976 2.27702,-7.87593 5.08587,-7.87593c2.80885,0 5.08588,3.52617 5.08588,7.87593z" fill="#ec0000"/><path d="M233.52675,143.85254c0,2.31094 -1.20974,4.18433 -2.70202,4.18433c-1.49229,0 -2.70202,-1.87339 -2.70202,-4.18433c0,-2.31094 1.20973,-4.18433 2.70202,-4.18433c1.49229,0 2.70202,1.87339 2.70202,4.18433z" fill="#970000"/></g></g></g></svg>