<svg version="1.1" xmlns="http://www.w3.org/2000/svg" xmlns:xlink="http://www.w3.org/1999/xlink" width="120.91791" height="253.22501" viewBox="0,0,120.91791,253.22501"><defs><linearGradient x1="240.63533" y1="150.32621" x2="240.63533" y2="304.40603" gradientUnits="userSpaceOnUse" id="color-1"><stop offset="0" stop-color="#ff0000"/><stop offset="1" stop-color="#a20000"/></linearGradient><radialGradient cx="224.75541" cy="116.38035" r="12.84929" gradientUnits="userSpaceOnUse" id="color-2"><stop offset="0" stop-color="#ffffff"/><stop offset="1" stop-color="#1a1a1a"/></radialGradient><radialGradient cx="252.32001" cy="117.61958" r="12.84929" gradientUnits="userSpaceOnUse" id="color-3"><stop offset="0" stop-color="#ffffff"/><stop offset="1" stop-color="#1a1a1a"/></radialGradient><linearGradient x1="240.38717" y1="134.96121" x2="240.38717" y2="141.38404" gradientUnits="userSpaceOnUse" id="color-4"><stop offset="0" stop-color="#58575a"/><stop offset="1" stop-color="#000000"/></linearGradient><linearGradient x1="240.52416" y1="140.21929" x2="240.52416" y2="165.73603" gradientUnits="userSpaceOnUse" id="color-5"><stop offset="0" stop-color="#5f5f5f"/><stop offset="1" stop-color="#000000"/></linearGradient><linearGradient x1="251.94779" y1="142.58792" x2="251.94779" y2="155.84847" gradientUnits="userSpaceOnUse" id="color-6"><stop offset="0" stop-color="#4a4a4a"/><stop offset="1" stop-color="#000000"/></linearGradient><linearGradient x1="240.13948" y1="142.61086" x2="240.13948" y2="145.16009" gradientUnits="userSpaceOnUse" id="color-7"><stop offset="0" stop-color="#4a4a4a"/><stop offset="1" stop-color="#000000"/></linearGradient><linearGradient x1="244.89757" y1="143.21122" x2="244.89757" y2="157.02998" gradientUnits="userSpaceOnUse" id="color-8"><stop offset="0" stop-color="#4a4a4a"/><stop offset="1" stop-color="#000000"/></linearGradient><linearGradient x1="244.46807" y1="157.28596" x2="244.46807" y2="160.42574" gradientUnits="userSpaceOnUse" id="color-9"><stop offset="0" stop-color="#4a4a4a"/><stop offset="1" stop-color="#000000"/></linearGradient><linearGradient x1="235.06635" y1="143.11562" x2="235.06635" y2="156.93437" gradientUnits="userSpaceOnUse" id="color-10"><stop offset="0" stop-color="#4a4a4a"/><stop offset="1" stop-color="#000000"/></linearGradient><linearGradient x1="235.55585" y1="157.22862" x2="235.55585" y2="160.36838" gradientUnits="userSpaceOnUse" id="color-11"><stop offset="0" stop-color="#4a4a4a"/><stop offset="1" stop-color="#000000"/></linearGradient><linearGradient x1="244.66041" y1="157.34333" x2="244.66041" y2="160.4831" gradientUnits="userSpaceOnUse" id="color-12"><stop offset="0" stop-color="#4a4a4a"/><stop offset="1" stop-color="#000000"/></linearGradient><linearGradient x1="257.23723" y1="142.41966" x2="257.23723" y2="145.7974" gradientUnits="userSpaceOnUse" id="color-13"><stop offset="0" stop-color="#4a4a4a"/><stop offset="1" stop-color="#000000"/></linearGradient><linearGradient x1="223.23869" y1="142.13065" x2="223.23869" y2="145.62522" gradientUnits="userSpaceOnUse" id="color-14"><stop offset="0" stop-color="#4a4a4a"/><stop offset="1" stop-color="#000000"/></linearGradient><linearGradient x1="227.93968" y1="142.58792" x2="227.93968" y2="155.84847" gradientUnits="userSpaceOnUse" id="color-15"><stop offset="0" stop-color="#4a4a4a"/><stop offset="1" stop-color="#000000"/></linearGradient></defs><g transform="translate(-193.11687,-53.3875)"><g data-paper-data="{&quot;isPaintingLayer&quot;:true}" fill-rule="nonzero" stroke-linejoin="miter" stroke-miterlimit="10" stroke-dasharray="" stroke-dashoffset="0" style="mix-blend-mode: normal"><path d="M194.40899,306.6125v-253.22501h91.18203v253.22501z" fill-opacity="0.01" fill="#000000" stroke="none" stroke-width="0" stroke-linecap="butt"/><path d="M201.03041,304.39159c0,0 -0.63536,-94.38387 -0.79335,-118.01201c-0.05451,-8.15261 8.18688,-36.76129 40.20201,-36.9211c31.60235,-0.15775 39.85672,29.48704 39.84884,36.89673c-0.07659,46.24274 0.65429,117.98648 0.65429,117.98648l-10.49667,0.09614l-0.15882,-114.84311c0,0 0.07549,-3.0993 -2.81625,-3.15415c-3.43441,-0.06514 -2.94538,3.11562 -2.94538,3.11562l0.20548,114.86995l-48.21366,0.07222l-0.30539,-115.23309c0,0 0.27949,-2.919 -2.8856,-2.93443c-3.11083,-0.01515 -2.81569,2.90899 -2.81569,2.90899l0.35311,115.0668z" fill="#ffffff" stroke="#000000" stroke-width="2" stroke-linecap="butt"/><path d="M255.62758,200.33378c-0.57113,0 -1.03411,-0.46299 -1.03411,-1.03411c0,-0.57113 0.46299,-1.03413 1.03411,-1.03413c0.57113,0 1.03411,0.463 1.03411,1.03413c0,0.57113 -0.46299,1.03411 -1.03411,1.03411z" fill="#000000" stroke="none" stroke-width="1.5" stroke-linecap="butt"/><path d="M250.36771,204.56937c-4.4635,-0.31439 -6.55245,-1.79392 -6.16985,-2.58011c0.11788,-0.24224 2.84645,1.06355 6.97038,1.3048c6.40897,0.37493 8.51033,-0.63173 8.51033,-0.63173v1.34616c0,0 -2.4135,1.04672 -9.31086,0.56089z" fill="#000000" stroke="#000000" stroke-width="0" stroke-linecap="butt"/><path d="M222.55495,199.29967c0,-0.57113 0.46299,-1.03413 1.03411,-1.03413c0.57113,0 1.03413,0.463 1.03413,1.03413c0,0.57113 -0.463,1.03411 -1.03413,1.03411c-0.57113,0 -1.03411,-0.46299 -1.03411,-1.03411z" fill="#000000" stroke="none" stroke-width="1.5" stroke-linecap="butt"/><path d="M228.84895,204.56937c-6.89736,0.48585 -9.31086,-0.56089 -9.31086,-0.56089v-1.34616c0,0 2.10136,1.00666 8.51033,0.63173c4.12393,-0.24126 6.85251,-1.54704 6.97039,-1.3048c0.3826,0.78618 -1.70634,2.26571 -6.16985,2.58011z" fill="#000000" stroke="#000000" stroke-width="0" stroke-linecap="butt"/><path d="M240.12941,261.12113c-0.81895,0 -1.48284,-0.66389 -1.48284,-1.48284c0,-0.81895 0.66389,-1.48284 1.48284,-1.48284c0.81895,0 1.48284,0.66389 1.48284,1.48284c0,0.81895 -0.66389,1.48284 -1.48284,1.48284z" data-paper-data="{&quot;index&quot;:null}" fill="#000000" stroke="none" stroke-width="1.5" stroke-linecap="butt"/><path d="M216.06614,304.40603v-119.20147c0,0 0.75721,-9.73105 0.75721,-14.63937c0,-4.498 -0.75721,-13.6872 -0.75721,-13.6872c0,0 2.67319,-2.35297 4.6557,-3.74807c1.98251,-1.3951 5.17197,-2.80371 5.17197,-2.80371c0,0 -0.6016,40.10902 14.55952,40.03867c15.43477,-0.07162 13.83154,-40.03867 13.83154,-40.03867c0,0 3.91276,1.51959 6.16585,2.94655c2.25309,1.42695 4.75379,3.60523 4.75379,3.60523c0,0 -0.75721,9.42463 -0.75721,14.19201c0,4.84193 0.75721,14.63937 0.75721,14.63937v118.69667z" fill="url(#color-1)" stroke="#000000" stroke-width="2" stroke-linecap="butt"/><g stroke-linecap="butt"><path d="M196.53935,110.13368c0,0 6.16329,-5.92187 6.29161,-6.78761c0.33654,-2.27063 -0.16776,-40.17317 35.96775,-41.57382c44.63633,-0.91362 39.01489,35.34872 41.53088,42.1903c3.44981,9.38084 6.15664,17.40016 6.15664,17.40016c0,0 -2.76715,-2.05351 -4.0797,-3.13397c-1.2242,-1.00773 -3.80143,-3.14585 -3.80143,-3.14585c0,0 3.09111,10.3481 1.31092,20.69498c-1.5623,9.48098 -7.29782,17.22543 -7.29782,17.22543l-1.15522,-2.34735c0,0 -1.02266,2.19794 -2.16005,3.33274c-1.1374,1.13479 -3.43873,2.91273 -3.43873,2.91273l-0.09205,-3.70421c0,0 -7.0601,11.01795 -24.35066,10.87154c-16.30625,-0.25547 -26.07151,-10.6752 -26.07151,-10.6752l-0.1162,2.65484c0,0 -3.89477,-3.29276 -6.18145,-9.70754c-2.72545,-7.64567 -3.23946,-12.24324 -3.23946,-12.24324c0,0 -2.33908,1.89916 -5.71704,2.7744c-4.23278,1.09673 -6.94665,0.34526 -6.94665,0.34526c0,0 3.60795,-2.71717 5.58396,-4.76989c1.76007,-1.8284 2.64658,-3.37722 2.64658,-3.37722c0,0 -2.10758,1.0847 -4.23277,1.61795c-2.21739,0.5564 -4.03008,0.53093 -4.03008,0.53093c0,0 4.97492,-5.03728 7.03074,-10.87429c1.94102,-5.51108 2.09972,-10.95731 2.09972,-10.95731c0,0 -1.36165,0.66163 -3.33013,0.79513c-1.24776,0.08463 -2.37785,-0.0489 -2.37785,-0.0489z" fill="#000000" stroke="none" stroke-width="1.5"/><path d="M212.69845,121.4553c-0.57709,-7.29323 0.335,-17.15448 0.335,-17.15448c0,0 3.41059,-0.04124 13.91429,-3.14424c8.0696,-2.38394 20.54731,-9.48722 20.54731,-9.48722c0,0 -2.16005,3.00503 -3.40781,4.46015c-1.32651,1.54696 -3.99292,4.56297 -3.99292,4.56297c0,0 7.838,-1.66761 14.67476,-4.72931c8.56837,-3.53575 10.59252,-6.05309 12.95042,-4.5927c2.7829,1.72362 1.03006,23.1827 0.71846,28.74062c-0.42163,5.66922 -2.53327,9.49969 -3.15031,12.52053c-0.61704,3.02084 -0.4096,6.13662 -2.20622,16.0397c-1.12121,6.18021 -4.16183,8.92466 -10.01942,14.66081c-5.85759,5.73616 -9.05378,9.25275 -13.01359,9.32173c-3.81077,0.06639 -8.93565,-5.1002 -13.93542,-10.38244c-5.32393,-5.62474 -8.87489,-8.47713 -9.71551,-15.13975c-0.75707,-6.00039 -0.77653,-9.90853 -1.12266,-15.24835c-0.25298,-3.90273 -2.26119,-6.44504 -2.57636,-10.42801z" fill="#000000" stroke="#000000" stroke-width="1.5"/><path d="M260.76846,106.33494c0,0 1.52429,0.31807 4.2558,1.11029c2.49492,0.72361 4.44935,1.74403 4.44935,1.74403l0.1951,1.17035c0,0 -7.24963,-3.12997 -15.1158,-2.4706c-6.2896,0.52724 -9.96319,2.8124 -9.96319,2.8124l0.04575,-4.17683c0,0 3.12748,-1.70421 7.86366,-1.85557c4.90428,-0.15672 8.09084,0.59125 8.09084,0.59125z" data-paper-data="{&quot;index&quot;:null}" fill="#000000" stroke="none" stroke-width="1.5"/><path d="M244.26519,120.97579c0.20353,-4.88817 4.45264,-8.85847 9.77048,-8.85847c5.31783,0 9.27453,3.96607 9.27453,8.85847c0,4.8924 -3.88585,9.07104 -9.69964,9.14188c-5.52997,0.06739 -9.55792,-4.03692 -9.34537,-9.14188z" fill="#000000" stroke="#000000" stroke-width="1.4"/><path d="M248.86794,121.06134c0,-2.81845 2.2848,-5.10325 5.10325,-5.10325c2.81845,0 5.10325,2.2848 5.10325,5.10325c0,2.81845 -2.28479,5.10325 -5.10325,5.10325c-2.81845,0 -5.10325,-2.2848 -5.10325,-5.10325z" fill="#000000" stroke="none" stroke-width="1.5"/><path d="M243.88754,120.57378c0,0 -0.24686,-9.4582 11.19813,-9.1032c9.71427,0.33347 9.54677,9.65229 9.54677,9.65229z" fill="#000000" stroke="#000000" stroke-width="1.15"/><path d="M220.67033,110.43122c0,0 3.36963,-1.819 8.03244,-2.28178c5.16698,-0.51283 7.76823,-0.06628 7.76823,-0.06628l0.29508,4.13747c0,0 -3.83554,-0.68065 -8.01795,-0.52113c-5.59346,0.21333 -6.64488,1.43293 -10.89774,1.89119c-3.64408,0.39266 -6.73723,0.15884 -6.73723,0.15884l-0.02589,-1.23155c0,0 3.59517,0.07398 5.23371,-0.06836c1.35239,-0.11749 3.9757,-0.93808 3.9757,-0.93808z" fill="#000000" stroke="none" stroke-width="1.5"/><path d="M237.6047,116.38035c0,7.09647 -5.75282,12.84929 -12.84929,12.84929c-7.09647,0 -12.84929,-5.75282 -12.84929,-12.84929c0,-7.09647 5.75282,-12.84929 12.84929,-12.84929c7.09647,0 12.84929,5.75282 12.84929,12.84929z" fill="url(#color-2)" stroke="#000000" stroke-width="1"/><path d="M265.1693,117.61958c0,7.09646 -5.75282,12.84929 -12.84929,12.84929c-7.09646,0 -12.84929,-5.75283 -12.84929,-12.84929c0,-7.09646 5.75283,-12.84929 12.84929,-12.84929c7.09647,0 12.84929,5.75282 12.84929,12.84929z" fill="url(#color-3)" stroke="#000000" stroke-width="1"/><path d="M240.81482,149.43019c0.2184,0.01854 0.53888,-1.1418 2.07753,-1.65122c1.48701,-0.49232 3.60539,-0.33642 4.90465,-0.20249c1.4327,0.43163 8.88335,3.57536 8.88335,3.57536c0,0 -6.51622,0.56976 -9.36179,0.88774c-2.38463,0.26647 -6.75153,0.8931 -6.75153,0.8931l-17.80544,-3.494c0,0 1.63855,-0.32861 4.06761,-1.06503c2.80602,-0.85071 3.58126,-1.21985 4.44994,-1.32044c2.06419,-0.23903 4.50551,-0.23229 6.83172,0.43983c2.49251,0.72016 2.48675,1.91871 2.70394,1.93714z" fill="#ffffff" stroke="#000000" stroke-width="1.25"/><path d="M239.60549,160.13663c-13.23997,-0.26618 -17.93713,-10.56409 -17.93713,-10.56409c0,0 6.205,1.06018 9.19428,1.68971c3.08832,0.65038 5.72824,1.84802 9.57944,1.99365c3.85119,0.14562 5.9502,-1.01176 8.28046,-1.2303c1.80659,-0.16943 8.19942,-0.50704 8.19942,-0.50704c0,0 -2.89655,8.90798 -17.31646,8.61808z" fill="#ffffff" stroke="#000000" stroke-width="1.25"/><path d="M243.76863,145.08094c-0.11398,1.76131 -1.36675,3.05303 -3.53437,3.05303c-2.16763,0 -3.321,-2.14047 -3.321,-3.90504c0,-1.76456 1.15338,-2.48503 3.321,-2.48503c2.16763,0 3.68532,1.00447 3.53437,3.33703z" fill="#ffffff" stroke="#000000" stroke-width="1"/><path d="M258.74083,152.9656c0,6.25616 -8.02471,11.32778 -17.92369,11.32778c-9.89899,0 -17.92369,-5.07162 -17.92369,-11.32778c0,-3.09604 -5.55392,-10.92061 -2.36877,-12.96535c3.25108,-2.08706 15.29227,1.63757 20.29246,1.63757c6.6059,0 16.57388,-2.61671 19.68263,0.74522c1.54974,1.67594 -1.75894,8.50133 -1.75894,10.58257z" fill="#000000" stroke="none" stroke-width="0"/><path d="M262.70209,137.33103c1.76495,0.97044 -0.13195,3.76474 -1.30887,4.47545c-1.58826,0.95912 -23.85665,1.28837 -24.77681,1.28837c-2.03374,0 -14.54528,-1.40191 -19.02255,-2.49684c-2.21992,-0.54289 -1.34927,-2.92334 -1.34927,-3.68223c0,-1.00538 4.48348,-0.16504 7.80884,-1.18732c4.24724,-1.30567 7.88402,-3.42742 9.59025,-3.42742c0.48289,0 1.91357,0.02234 3.31989,0.63467c0.88537,0.38551 1.76108,1.47702 2.38459,1.46154c2.06632,-0.0513 2.55805,-1.45587 4.21107,-1.80444c0.60342,-0.12724 2.44604,-0.45028 4.20095,0.06995c2.03858,0.60433 4.14208,2.12794 6.92433,2.98646c2.94818,0.90972 6.66502,0.93812 8.01754,1.68178z" fill="#0b0509" stroke="none" stroke-width="0"/><path d="M263.64425,138.95935c0,1.59831 -18.69176,2.42469 -25.35547,2.42469c-6.6637,0 -21.1587,-1.13926 -21.1587,-2.73756c0,-0.72845 4.07622,0.32065 7.43092,-0.36491c4.00584,-0.81863 7.65307,-3.31124 11.27966,-3.31124c0.48545,0 1.71902,-0.10623 2.82049,0.40622c0.65546,0.30495 1.50093,0.70844 2.0749,0.72071c1.2245,0.02619 0.76094,-0.06258 1.78642,-0.41529c0.98139,-0.33753 3.10923,-0.31738 3.96132,-0.1474c3.2019,0.63872 6.83812,2.66407 9.90518,3.07586c3.41419,0.45838 7.25528,-0.24282 7.25528,0.34892z" fill="url(#color-4)" stroke="none" stroke-width="0"/><path d="M222.58986,145.68512c0.59143,2.81953 0.03561,8.22035 1.4923,10.3438c3.79094,5.52618 10.45106,6.22619 15.91772,6.22619c3.39439,0 6.64574,0.60851 9.32556,-0.86481c1.14927,-0.63185 3.73755,-1.48561 4.915,-3.13155c2.62093,-3.66373 2.99607,-10.11612 4.53965,-14.28623c1.21451,-3.2811 4.12354,-3.52362 4.12554,-3.45925c0.01416,0.45588 -0.12461,1.20793 -0.53167,3.49771c-0.72274,4.06551 -1.73998,9.36247 -1.73998,9.99921c0,2.46137 -1.77223,4.82915 -3.5837,6.53973c-0.25136,0.23736 -2.56113,3.49024 -5.58846,4.43745c-3.19866,1.00083 -6.69028,0.70907 -10.58762,0.70907c-5.95561,0 -11.02242,-0.1806 -15.05427,-2.34959c-1.01624,-0.54669 -3.54624,-1.70644 -4.41599,-3.43366c-2.89791,-5.75487 -3.26222,-16.36102 -3.26222,-19.23824c0,-1.99753 4.04871,3.10593 4.44814,5.01014z" data-paper-data="{&quot;index&quot;:null}" fill="url(#color-5)" stroke="#000000" stroke-width="2"/><g stroke="none" stroke-width="0"><path d="M250.26337,149.08366c-0.92239,-3.04873 -2.67195,-5.58032 -2.1832,-6.08407c0.27442,-0.28285 5.96937,-0.46841 6.02114,-0.39593c1.44928,2.02917 1.5156,7.7649 1.79741,8.5119c0.04699,0.12457 -1.24004,2.84917 -2.56453,3.82301c-0.60005,0.4412 -1.77411,0.64523 -2.07476,0.90368c-0.20433,0.17565 0.01906,-3.40328 -0.99606,-6.75859z" fill="url(#color-6)"/><path d="M240.03262,145.16009l-1.06861,-2.54923h2.35094z" fill="url(#color-7)"/><path d="M248.95916,154.76525c-0.00962,0.03037 -0.91793,0.74964 -2.84651,1.33477c-1.27011,0.38535 -3.08736,0.70315 -4.04757,0.84704c-0.35669,0.05345 -0.5951,0.08291 -0.64327,0.08291c-0.73225,0 -0.90037,-6.05057 0.05537,-9.632c0.37352,-1.39972 0.86213,-3.26796 2.07806,-3.93108c1.06405,-0.58028 2.86025,-0.12574 3.30026,0.88864c1.16336,2.68196 2.28925,9.82378 2.10367,10.40971z" fill="url(#color-8)"/><path d="M241.51815,160.42572l-0.25504,-1.94556c0,0 2.80072,-0.19917 3.9438,-0.41213c0.96227,-0.17927 2.46611,-0.78207 2.46611,-0.78207l-0.06553,1.7735c0,0 -1.40253,0.50152 -2.40713,0.72692c-1.02477,0.22993 -3.6822,0.63936 -3.6822,0.63936z" fill="url(#color-9)"/><path d="M233.10843,144.25994c0.44001,-1.01437 2.23621,-1.46893 3.30026,-0.88864c1.21591,0.66311 1.70452,2.53136 2.07805,3.93108c0.95573,3.58143 0.78761,9.632 0.05537,9.632c-0.04817,0 -0.28658,-0.02946 -0.64327,-0.08291c-0.96019,-0.14389 -2.77745,-0.46169 -4.04756,-0.84704c-1.92858,-0.58513 -2.8369,-1.3044 -2.84651,-1.33477c-0.18557,-0.58593 0.94031,-7.72777 2.10367,-10.40972z" data-paper-data="{&quot;index&quot;:null}" fill="url(#color-10)"/><path d="M234.82356,159.72904c-1.00461,-0.22541 -2.40713,-0.72692 -2.40713,-0.72692l-0.06553,-1.7735c0,0 1.50385,0.60279 2.46611,0.78207c1.14309,0.21297 3.9438,0.41213 3.9438,0.41213l-0.25504,1.94556c0,0 -2.65743,-0.40941 -3.6822,-0.63934z" data-paper-data="{&quot;index&quot;:null}" fill="url(#color-11)"/><path d="M241.7105,160.48309l-0.25504,-1.94556c0,0 2.80072,-0.19917 3.9438,-0.41213c0.96227,-0.17927 2.46611,-0.78207 2.46611,-0.78207l-0.06553,1.7735c0,0 -1.40252,0.50152 -2.40712,0.72692c-1.02477,0.22993 -3.6822,0.63936 -3.6822,0.63936z" data-paper-data="{&quot;index&quot;:null}" fill="url(#color-12)"/><path d="M257.13037,145.7974l-1.06861,-3.37773h2.35094z" fill="url(#color-13)"/><path d="M222.45464,145.62522l-0.37226,-3.49457l2.31262,0.37818z" fill="url(#color-14)"/><path d="M228.62803,155.84226c-0.30065,-0.25845 -1.4747,-0.46248 -2.07475,-0.90368c-1.32449,-0.97384 -2.61152,-3.69844 -2.56453,-3.82301c0.28181,-0.74698 0.34812,-6.48273 1.79741,-8.5119c0.05177,-0.07249 5.74672,0.11307 6.02114,0.39593c0.48876,0.50377 -1.26082,3.03534 -2.1832,6.08407c-1.01513,3.35532 -0.79174,6.93424 -0.99606,6.75859z" data-paper-data="{&quot;index&quot;:null}" fill="url(#color-15)"/></g></g><g><path d="M229.5141,99.84417c0,0 7.72896,-3.64936 8.12645,-4.42909c1.0425,-2.04504 12.64161,-38.13268 47.33993,-27.94625c42.60087,13.35675 25.71794,45.93779 25.92281,53.22446c0.28092,9.99112 0.29142,18.45494 0.29142,18.45494c0,0 -1.96859,-2.82819 -2.86846,-4.27055c-0.83929,-1.34527 -2.60091,-4.19315 -2.60091,-4.19315c0,0 -0.36729,10.79367 -5.35158,20.034c-4.50185,8.489 -12.40608,14.00224 -12.40608,14.00224l-0.34706,-2.59309c0,0 -1.6697,1.75752 -3.10939,2.47076c-1.4397,0.71322 -4.18759,1.6652 -4.18759,1.6652l1.09305,-3.54047c0,0 -10.20282,8.19406 -26.5455,2.54588c-15.37492,-5.43791 -21.31108,-18.4261 -21.31108,-18.4261l-0.95607,2.47944c0,0 -2.64257,-4.36214 -2.76608,-11.17119c-0.14721,-8.11558 0.83053,-12.63729 0.83053,-12.63729c0,0 -2.8223,1.05486 -6.30307,0.80813c-4.36161,-0.30915 -6.69458,-1.88619 -6.69458,-1.88619c0,0 4.28568,-1.42592 6.81277,-2.74202c2.25092,-1.17228 3.58473,-2.35789 3.58473,-2.35789c0,0 -2.34335,0.35661 -4.52768,0.1849c-2.2791,-0.17914 -3.9892,-0.78087 -3.9892,-0.78087c0,0 6.32067,-3.18954 10.12922,-8.06724c3.59588,-4.60535 5.48167,-9.71713 5.48167,-9.71713c0,0 -1.5015,0.19327 -3.40991,-0.30741c-1.20969,-0.31737 -2.23833,-0.80402 -2.23833,-0.80402z" fill="#000000" stroke="none" stroke-width="1.5" stroke-linecap="butt"/><path d="M241.81758,115.92426c1.77688,-7.09697 5.78358,-16.15359 5.78358,-16.15359c0,0 3.24596,1.04764 14.19091,1.45324c8.4086,0.31159 22.4993,-2.4456 22.4993,-2.4456c0,0 -3.00497,2.16013 -4.65135,3.14182c-1.75029,1.04366 -5.23872,3.05284 -5.23872,3.05284c0,0 7.96082,0.91678 15.4168,0.1931c9.24838,-0.62127 11.96914,-2.36243 13.73881,-0.22684c2.08864,2.52052 -6.41047,22.30257 -8.47679,27.4715c-2.20607,5.23938 -5.42817,8.19734 -6.9756,10.86412c-1.54743,2.66677 -2.3436,5.68625 -7.20206,14.50068c-3.03201,5.50082 -6.78862,7.13337 -14.16864,10.7041c-7.38002,3.57074 -11.53013,5.88561 -15.30553,4.68926c-3.6333,-1.15132 -6.84479,-7.68158 -9.90085,-14.2816c-3.25418,-7.02796 -5.71118,-10.86314 -4.38504,-17.44634c1.19433,-5.92886 2.42116,-9.6395 3.79453,-14.81129c1.00375,-3.77991 -0.0897,-6.8296 0.88066,-10.70539z" fill="#ffffff" stroke="#000000" stroke-width="1.5" stroke-linecap="butt"/><path d="M292.19994,116.90886c0,0 1.34349,0.78718 3.6802,2.40847c2.13431,1.48086 3.66173,3.07085 3.66173,3.07085l-0.18799,1.17152c0,0 -5.87443,-5.27683 -13.5407,-7.15826c-6.12977,-1.50434 -10.34001,-0.50883 -10.34001,-0.50883l1.37425,-3.94454c0,0 3.50748,-0.61886 8.04504,0.74679c4.69859,1.41413 7.48073,3.13846 7.48073,3.13846z" data-paper-data="{&quot;index&quot;:null}" fill="#000000" stroke="none" stroke-width="1.5" stroke-linecap="butt"/><path d="M266.40372,153.58867c0.47316,0.38257 2.47694,2.30901 4.88274,4.37997c2.42496,2.08746 6.10701,4.47194 6.03514,4.62456c-0.09122,0.19368 -9.96319,-3.10978 -13.16782,-3.75945c-2.68551,-0.54444 -6.56488,-1.46239 -6.56488,-1.46239c0,0 -6.36357,-3.36474 -11.80142,-6.54681c-4.35825,-2.55032 -9.32797,-4.88809 -9.30828,-4.98014c0.02655,-0.12414 3.89318,0.55893 6.91287,0.85245c1.24436,-0.10561 5.62939,0.32556 5.62939,0.32556c0,0 4.78601,1.31592 7.0272,2.97309c2.40141,1.77564 1.90842,3.22157 2.13566,3.32275c0,0 1.68002,-1.28076 2.91599,-1.24011c1.23598,0.04066 4.94995,1.22474 5.30341,1.51051z" fill="#ffffff" stroke="#000000" stroke-width="1.4" stroke-linecap="butt"/><path d="M247.27677,151.96298c4.49862,2.59544 10.40185,6.4584 10.40185,6.4584c0,0 5.98373,0.37007 8.59102,0.95266c2.02137,0.45166 10.85652,2.90411 10.77969,3.27155c-0.07511,0.35927 -12.67097,9.35026 -24.01189,5.05982c-12.91298,-4.80054 -16.85007,-21.63216 -16.76031,-21.78042c0.08976,-0.14826 6.50103,3.44255 10.99965,6.038z" fill="#ffffff" stroke="#000000" stroke-width="1.9" stroke-linecap="butt"/><path d="M258.63292,152.62215c-0.97988,-0.32939 -2.31479,-4.21785 -1.88026,-6.29071c0.38879,-1.85464 2.46631,-3.20942 4.80906,-2.42189c2.34276,0.78753 3.8267,1.80413 2.48532,5.25431c-1.1384,2.92807 -3.07138,4.24583 -5.41413,3.45829z" fill="#ffffff" stroke="#000000" stroke-width="1.15" stroke-linecap="butt"/><path d="M271.63622,125.24475c0,0 -1.16766,3.79553 -2.26534,6.75699c-2.17358,5.86421 -9.87066,25.96913 -9.87066,25.96913l-2.82901,-0.94188c0,0 0.5685,-4.21109 1.9623,-9.36253c1.88663,-6.97293 4.76554,-15.58719 5.53191,-18.85225c0.72645,-3.09498 0.97163,-5.70215 0.97163,-5.70215" fill="#ffffff" stroke="#000000" stroke-width="1.3" stroke-linecap="round"/><path d="M240.20302,126.0614c0,0 -3.55437,-4.90528 -2.98311,-10.47134c0.60109,-5.85657 1.7162,-9.69109 3.63889,-9.31814c1.9227,0.37292 1.80494,3.11437 0.87564,9.10952c-0.9293,5.99514 -1.53142,10.67998 -1.53142,10.67998z" data-paper-data="{&quot;index&quot;:null}" fill="#ffffff" stroke="#000000" stroke-width="1" stroke-linecap="butt"/><path d="M241.26882,122.25505c0,0 -2.44659,-3.90658 -1.40042,-9.38606c0.58358,-3.05664 2.77088,-1.47409 2.77088,-1.47409" fill="none" stroke="#000000" stroke-width="0.25" stroke-linecap="round"/><path d="M246.24597,116.90625c1.62597,-4.6143 7.43351,-6.92864 12.50167,-5.14278c5.06814,1.78588 7.20302,6.90336 5.57706,11.51768c-1.62597,4.6143 -6.71081,7.0221 -11.77896,5.23623c-5.06814,-1.78588 -7.92574,-6.99683 -6.29978,-11.61113z" fill="#ffffff" stroke="#000000" stroke-width="1.4" stroke-linecap="butt"/><path d="M250.41472,118.43204c0.91684,-2.60191 3.76934,-3.9679 6.37123,-3.05106c2.60191,0.91684 3.9679,3.76934 3.05106,6.37123c-0.91684,2.60191 -3.76932,3.9679 -6.37123,3.05106c-2.60191,-0.91684 -3.9679,-3.76934 -3.05106,-6.37123z" fill="#000000" stroke="none" stroke-width="1.5" stroke-linecap="butt"/><path d="M271.89176,125.52805c1.75047,-4.56854 7.04319,-6.97797 12.08385,-5.28351c5.04065,1.69446 7.52739,6.71454 5.96849,11.35194c-1.5589,4.63739 -6.57367,7.36006 -12.107,5.57472c-5.26321,-1.69817 -7.77342,-6.872 -5.94533,-11.64316z" fill="#ffffff" stroke="#000000" stroke-width="1.4" stroke-linecap="butt"/><path d="M276.22734,127.07575c0.89806,-2.67154 3.79179,-4.10923 6.46333,-3.21117c2.67154,0.89806 4.10923,3.79179 3.21117,6.46333c-0.89806,2.67154 -3.79178,4.10924 -6.46333,3.21117c-2.67154,-0.89806 -4.10923,-3.79179 -3.21117,-6.46333z" fill="#000000" stroke="none" stroke-width="1.5" stroke-linecap="butt"/><path d="M246.35068,116.38001c0,0 2.9328,-8.52497 12.86049,-4.98702c8.92451,3.17502 6.05999,11.96164 6.05999,11.96164z" fill="#ffffff" stroke="#000000" stroke-width="1.15" stroke-linecap="butt"/><path d="M271.66189,125.02666c0,0 2.77974,-9.04387 13.51506,-5.06058c9.10168,3.4114 5.9736,12.19113 5.9736,12.19113z" fill="#ffffff" stroke="#000000" stroke-width="1.15" stroke-linecap="butt"/><path d="M252.88662,108.01493c0,0 3.77359,-0.6505 8.34082,0.39658c5.06107,1.16029 7.38445,2.41241 7.38445,2.41241l-1.03865,4.01583c0,0 -3.41875,-1.86732 -7.43398,-3.04877c-5.36989,-1.58007 -6.75512,-0.75905 -10.93232,-1.6798c-3.57925,-0.78894 -6.43668,-1.99617 -6.43668,-1.99617l0.36787,-1.1756c0,0 3.38421,1.21568 4.9827,1.60285c1.31933,0.31955 4.06738,0.37762 4.06738,0.37762z" fill="#000000" stroke="none" stroke-width="1.5" stroke-linecap="butt"/><path d="M294.99052,133.28387c2.8808,-5.33913 4.44293,-7.59503 6.20049,-6.73082c1.75755,0.86421 0.32998,4.59367 -2.72868,9.62411c-2.90694,4.7809 -8.70264,6.54309 -8.70264,6.54309c0,0 2.35005,-4.09725 5.23085,-9.43638z" data-paper-data="{&quot;index&quot;:null}" fill="#ffffff" stroke="#000000" stroke-width="1" stroke-linecap="butt"/><path d="M296.67749,129.56025c0,0 2.69909,0.06004 1.3178,2.84853c-2.47617,4.99879 -6.78575,6.63421 -6.78575,6.63421" data-paper-data="{&quot;index&quot;:null}" fill="none" stroke="#000000" stroke-width="0.25" stroke-linecap="round"/></g></g></g></svg>