<svg version="1.1" xmlns="http://www.w3.org/2000/svg" xmlns:xlink="http://www.w3.org/1999/xlink" width="83.36323" height="246.65024" viewBox="0,0,83.36323,246.65024"><g transform="translate(-194.53221,-57.5338)"><g data-paper-data="{&quot;isPaintingLayer&quot;:true}" fill-rule="nonzero" stroke-linejoin="miter" stroke-miterlimit="10" stroke-dasharray="" stroke-dashoffset="0" style="mix-blend-mode: normal"><path d="M206.8359,302.62333c0,0 -0.51851,-96.70326 -0.64744,-120.91203c-0.04449,-8.35295 8.21802,-37.66466 34.34494,-37.8284c35.52352,-18.60396 36.36844,27.65022 36.36201,35.24199c-0.06251,47.37911 -1.77134,123.44731 -1.77134,123.44731l-10.10299,0.0985l1.91953,-117.66526c0,0 -1.98754,-3.17546 -4.34743,-3.23166c-2.80275,-0.06674 -2.40367,3.19218 -2.40367,3.19218l0.16768,117.69276l-39.34622,0.07399l-0.24923,-118.06482c0,0 0.22808,-2.99073 -2.35488,-3.00654c-2.53869,-0.01552 -3.83469,2.98048 -3.83469,2.98048l1.82503,117.89445z" fill="#ffffff" stroke="#000000" stroke-width="2" stroke-linecap="butt"/><path d="M252.92843,196.00841c-0.46609,0 -0.84392,-0.47437 -0.84392,-1.05952c0,-0.58516 0.37783,-1.05954 0.84392,-1.05954c0.46609,0 0.84392,0.47438 0.84392,1.05954c0,0.58516 -0.37784,1.05952 -0.84392,1.05952z" fill="#000000" stroke="none" stroke-width="1.5" stroke-linecap="butt"/><path d="M248.63595,200.34808c-3.64258,-0.32212 -5.34733,-1.838 -5.03509,-2.64351c0.0962,-0.24819 2.32293,1.08969 5.68839,1.33686c5.23023,0.38414 6.94512,-0.64725 6.94512,-0.64725v1.37924c0,0 -1.96961,1.07244 -7.5984,0.57467z" fill="#000000" stroke="#000000" stroke-width="0" stroke-linecap="butt"/><path d="M225.93852,194.94889c0,-0.58516 0.37783,-1.05954 0.84392,-1.05954c0.46609,0 0.84393,0.47438 0.84393,1.05954c0,0.58516 -0.37784,1.05952 -0.84393,1.05952c-0.46609,0 -0.84392,-0.47437 -0.84392,-1.05952z" fill="#000000" stroke="none" stroke-width="1.5" stroke-linecap="butt"/><path d="M231.07491,200.34808c-5.6288,0.49779 -7.59841,-0.57467 -7.59841,-0.57467v-1.37924c0,0 1.71487,1.0314 6.94512,0.64725c3.36546,-0.24719 5.59221,-1.58506 5.68839,-1.33686c0.31223,0.8055 -1.39251,2.32139 -5.03509,2.64351z" fill="#000000" stroke="#000000" stroke-width="0" stroke-linecap="butt"/><path d="M240.28067,258.28949c-0.66833,0 -1.21011,-0.6802 -1.21011,-1.51928c0,-0.83907 0.54178,-1.51928 1.21011,-1.51928c0.66833,0 1.21011,0.6802 1.21011,1.51928c0,0.83907 -0.54179,1.51928 -1.21011,1.51928z" data-paper-data="{&quot;index&quot;:null}" fill="#000000" stroke="none" stroke-width="1.5" stroke-linecap="butt"/><path d="M220.64312,302.6381v-122.13072c0,0 -0.66277,-12.27547 -0.66277,-17.30441c0,-4.60853 -3.43553,-9.15682 -3.43553,-9.15682c0,0 3.20612,-3.17922 4.824,-4.60861c1.61788,-1.42938 4.22074,-2.87261 4.22074,-2.87261c0,0 2.06679,8.31996 3.79646,17.13564c2.08888,10.64647 11.159,22.09393 11.159,22.09393l14.87366,-45.88931c0,0 4.47385,-0.74836 6.31255,0.71367c1.8387,1.46202 6.69706,4.7184 6.69706,4.7184c0,0 -4.71625,9.91237 -4.71625,14.79691c0,4.96092 -2.96806,20.89042 -2.96806,20.89042v121.61352z" fill="#ec0000" stroke="#970000" stroke-width="2" stroke-linecap="butt"/><path d="M198.09363,93.96912c0,0 5.02974,-6.06739 5.13446,-6.95441c0.27465,-2.32643 -3.41554,-12.47231 31.40173,-29.48091c42.57429,9.30967 30.60979,23.30775 32.66305,30.31745c2.81532,9.61136 5.63906,19.8769 5.63906,19.8769c0,0 -3.38524,-1.59169 -4.45639,-2.6987c-0.99904,-1.03249 -2.28262,-1.73752 -2.28262,-1.73752c0,0 0.62713,10.19256 -0.82565,20.79371c-1.27497,9.71397 -5.95561,17.64873 -5.95561,17.64873l-0.94275,-2.40503c0,0 -0.83457,2.25195 -1.76277,3.41464c-0.9282,1.16268 -2.80628,2.98431 -2.80628,2.98431l-0.07512,-3.79524c0,0 -5.76161,11.2887 -19.8721,11.1387c-13.30721,-0.26175 -21.27645,-10.93753 -21.27645,-10.93753l-0.09483,2.72008c0,0 -3.17844,-3.37368 -5.04456,-9.94609c-2.22419,-7.83355 -2.64366,-12.5441 -2.64366,-12.5441c0,0 -1.90887,1.94583 -4.66556,2.84258c-3.45429,1.12368 -5.66902,0.35374 -5.66902,0.35374c0,0 2.94438,-2.78394 4.55697,-4.88711c1.43636,-1.87333 2.15982,-3.46021 2.15982,-3.46021c0,0 -1.71995,1.11136 -3.45428,1.65771c-1.80957,0.57007 -3.28886,0.54398 -3.28886,0.54398c0,0 4.82837,-9.00322 6.50608,-14.98367c1.58402,-5.64651 1.71354,-11.22657 1.71354,-11.22657c0,0 -1.11121,0.67789 -2.71765,0.81467c-1.01827,0.08671 -1.94052,-0.0501 -1.94052,-0.0501z" fill="#000000" stroke="none" stroke-width="1.5" stroke-linecap="butt"/><path d="M212.40701,105.56896c-0.47095,-7.47245 0.27339,-17.57603 0.27339,-17.57603l13.30364,-8.62825l16.72065,5.18739l-3.62791,-4.90238c0,0 17.42651,4.00321 18.48798,4.82859c2.27107,1.76598 0.58447,14.01894 0.33017,19.71344c-0.34408,5.80854 -2.83577,13.57529 -3.33933,16.67036c-0.4016,2.46842 -0.37524,4.99872 -1.09186,11.0692c-0.18193,1.54109 2.40584,1.77348 2.10898,3.82779c-0.915,6.33208 -5.44554,11.44927 -10.2258,17.32638c-4.78026,5.87712 -8.15705,8.7117 -11.38857,8.78237c-3.10989,0.06802 -9.98172,-4.07289 -14.06193,-9.48493c-4.34476,-5.76296 -7.3707,-10.86267 -8.05671,-17.68901c-0.16684,-1.66019 2.52779,-2.13949 2.43164,-3.55814c-0.2599,-3.83472 -0.32405,-7.04673 -0.53024,-11.04035c-0.20645,-3.99864 -1.07689,-10.44557 -1.33409,-14.52642z" fill="#ffffff" stroke="#000000" stroke-width="1.5" stroke-linecap="butt"/><path d="M258.91087,91.29386l0.15922,1.19911c0,0 -5.91628,-3.20689 -12.33571,-2.53131c-5.13282,0.5402 -8.13076,2.88151 -8.13076,2.88151l0.03734,-4.27947c0,0 2.55229,-1.74609 6.41739,-1.90117c4.00229,-0.16057 6.60277,0.60578 6.60277,0.60578z" data-paper-data="{&quot;index&quot;:null}" fill="#000000" stroke="none" stroke-width="1.5" stroke-linecap="butt"/><path d="M234.18864,139.56135c-0.84363,0 -2.88737,-3.34054 -3.09025,-5.49551c-0.18152,-1.9281 1.07324,-3.92206 3.09025,-3.92206c2.01702,0 3.42926,0.50283 3.2888,4.29146c-0.1192,3.2153 -1.27179,5.12612 -3.2888,5.12612z" fill="#ffffff" stroke="#000000" stroke-width="1.15" stroke-linecap="butt"/><path d="M213.02563,119.7831c0,0 -5.1008,-6.62597 -6.10627,-12.21807c-1.05793,-5.88396 0.65179,-10.79163 2.23606,-11.05713c1.58427,-0.26552 2.20603,2.43533 3.04611,8.56102c0.84008,6.12569 0.8241,14.71418 0.8241,14.71418z" data-paper-data="{&quot;index&quot;:null}" fill="#ffffff" stroke="#000000" stroke-width="1" stroke-linecap="butt"/><path d="M212.86029,115.73853c0,0 -3.98419,-4.99314 -4.59976,-10.65619c-0.3434,-3.15904 3.60432,-4.18043 3.60432,-4.18043" fill="none" stroke="#000000" stroke-width="0.25" stroke-linecap="round"/><path d="M219.25422,90.00491c0,0 2.7499,-1.8637 6.55512,-2.33785c4.21666,-0.52543 6.33951,-0.06791 6.33951,-0.06791l0.24081,4.23914c0,0 -3.1301,-0.69738 -6.54329,-0.53394c-4.56471,0.21857 -5.42275,1.46814 -8.89344,1.93766c-2.97387,0.40231 -5.49812,0.16274 -5.49812,0.16274l-0.02113,-1.26181z" fill="#000000" stroke="none" stroke-width="1.5" stroke-linecap="butt"/><path d="M258.05268,107.68993c0.84008,-6.12569 1.46184,-8.82653 3.04611,-8.56102c1.58427,0.26551 3.49891,5.78791 2.44098,11.67187c-1.00546,5.59209 -7.84804,11.60332 -7.84804,11.60332c0,0 1.52088,-8.58849 2.36096,-14.71418z" data-paper-data="{&quot;index&quot;:null}" fill="#ffffff" stroke="#000000" stroke-width="1" stroke-linecap="butt"/><path d="M259.01616,104.03588c0,0 3.74279,1.22629 3.39939,4.38534c-0.61558,5.66306 -5.93171,10.45128 -5.93171,10.45128" data-paper-data="{&quot;index&quot;:null}" fill="none" stroke="#000000" stroke-width="0.25" stroke-linecap="round"/><path d="M244.98066,250.4551c-0.4775,2.49029 -2.46104,1.89079 -2.46104,1.89079l-2.26315,-0.68401c0,0 -1.98353,-0.5995 -1.50603,-3.08979c0.4775,-2.49029 2.46105,-1.89079 2.46105,-1.89079l2.26315,0.68401c0,0 1.98352,0.5995 1.50602,3.08979z" fill="#ffffff" stroke="none" stroke-width="0.5" stroke-linecap="butt"/><path d="M232.03853,109.14592c0,1.39859 0.72698,4.2825 -0.35858,7.36865c-1.86338,5.29744 -6.27532,11.19078 -8.70158,11.19078c-3.41518,0 -6.74897,-10.42601 -7.41209,-15.40487c-0.08244,-0.61895 0.16688,-2.17827 0.16688,-2.59836c0,-3.79933 3.55183,8.48932 7.39157,8.48932c3.83974,0 8.91379,-12.84485 8.91379,-9.04552z" fill="#970000" stroke="#970000" stroke-width="1.15" stroke-linecap="butt"/><path d="M253.49603,110.72668c0,3.79933 -5.0155,17.12503 -8.85524,17.12503c-3.41518,0 -6.74898,-10.42601 -7.41209,-15.40487c-0.08244,-0.61895 0.16688,-2.17827 0.16688,-2.59836c0,-3.79933 3.55183,8.48932 7.39156,8.48932c3.83974,0 8.70888,-11.41044 8.70888,-7.61112z" fill="#970000" stroke="#970000" stroke-width="1.15" stroke-linecap="butt"/><path d="M216.08791,105.07691c0.05789,-5.01209 3.94848,-9.15569 8.3333,-9.07588c4.38482,0.07981 7.36696,4.3528 7.30909,9.3649c-0.05789,5.01209 -4.13356,12.85266 -8.51838,12.77285c-5.23863,-0.07981 -7.18188,-8.04977 -7.12401,-13.06187z" fill="#000000" stroke="#000000" stroke-width="2" stroke-linecap="butt"/><path d="M238.168,105.07766c0.1661,-5.00829 3.63371,-9.07616 7.97349,-9.07616c4.33978,0 7.56876,4.06353 7.56876,9.07616c0,5.01263 -3.59808,13.30687 -8.68412,13.20868c-4.5129,0.06905 -7.0316,-7.97828 -6.85814,-13.20868z" fill="#000000" stroke="#000000" stroke-width="2" stroke-linecap="butt"/><path d="M237.34754,104.63739c0,0 -0.21162,-10.17934 9.59945,-9.79727c8.32743,0.3589 8.18385,10.38823 8.18385,10.38823c0,0 -3.73826,-6.99108 -8.78364,-7.04525c-5.35012,-0.05744 -8.99965,6.45429 -8.99965,6.45429z" fill="#ffffff" stroke="#000000" stroke-width="1.15" stroke-linecap="butt"/><path d="M215.00747,104.47591c0,0 0.05673,-10.09964 9.45965,-9.88652c8.45123,0.18582 8.52666,10.53891 8.52666,10.53891c0,0 -4.52678,-6.93313 -8.82196,-6.81249c-4.81871,0.13534 -9.16434,6.16011 -9.16434,6.16011z" fill="#ffffff" stroke="#000000" stroke-width="1.15" stroke-linecap="butt"/><path d="M224.41434,109.53266c0,3.75081 -1.64265,6.79146 -3.66895,6.79146c-0.6868,0 -2.87586,-3.80092 -2.87586,-3.80092l3.41636,-2.53529l-4.00813,-2.60405c0,0 2.51585,-4.64266 3.46763,-4.64266c2.02631,0 3.66895,3.04065 3.66895,6.79146z" fill="#ffffff" stroke="#000000" stroke-width="1.15" stroke-linecap="butt"/><path d="M232.38197,109.79772c0,0.99044 -0.8957,4.23534 -2.63039,7.22196c-2.06437,3.55425 -5.12738,6.83748 -6.6477,6.83748c-1.21456,0 -3.32324,-2.15254 -4.96905,-4.88347c-0.36496,-0.60559 -0.70717,-1.23963 -1.01183,-1.88495c-1.48623,-3.14816 -2.0229,-6.61801 -1.93111,-7.63254c0.11384,-1.25839 5.0161,10.14427 7.79815,9.84729c7.46534,-0.79689 9.39193,-11.67489 9.39193,-9.50577z" fill="#ec0000" stroke="#000000" stroke-width="0" stroke-linecap="butt"/><path d="M246.31763,119.30349c2.78205,0.29696 7.6843,-11.10569 7.79815,-9.84729c0.09178,1.01453 -0.44488,4.48439 -1.93111,7.63254c-0.30466,0.64532 -0.64685,1.27935 -1.01183,1.88495c-1.64582,2.73092 -3.75449,4.88347 -4.96905,4.88347c-1.52032,0 -4.58334,-3.28323 -6.6477,-6.83748c-1.73468,-2.98661 -2.63038,-6.23152 -2.63038,-7.22196c0,-2.16912 1.92658,8.70888 9.39193,9.50577z" data-paper-data="{&quot;index&quot;:null}" fill="#ec0000" stroke="#000000" stroke-width="0" stroke-linecap="butt"/><path d="M237.32748,104.65827c0,0 -0.52532,8.13715 -0.60437,11.37158c-0.15647,6.40475 -0.47274,28.44289 -0.47274,28.44289l-2.43328,0.00885c0,0 -0.65526,-4.27528 -0.91664,-9.73324c-0.3538,-7.38782 0.45283,-16.6936 0.19663,-20.11473c-0.24284,-3.24291 -0.16764,-10.10694 -0.16764,-10.10694" fill="#ffffff" stroke="#000000" stroke-width="1.3" stroke-linecap="round"/><path d="M224.28429,131.39215c0,0.97453 -0.76454,1.76455 -1.70763,1.76455c-0.9431,0 -1.70762,-0.79002 -1.70762,-1.76455c0,-0.97452 0.76453,-1.76454 1.70762,-1.76454c0.9431,0 1.70763,0.79001 1.70763,1.76454z" fill="#000000" stroke="#000000" stroke-width="1.5" stroke-linecap="butt"/><path d="M247.50796,131.50595c0,0.91166 -0.73905,1.65071 -1.6507,1.65071c-0.91166,0 -1.65071,-0.73906 -1.65071,-1.65071c0,-0.91166 0.73906,-1.6507 1.65071,-1.6507c0.91166,0 1.6507,0.73905 1.6507,1.6507z" fill="#000000" stroke="#000000" stroke-width="1.5" stroke-linecap="butt"/><path d="M208.3816,302.58072l-1.53686,-110.1417l-0.25614,-16.39318l10.24574,-20.23534" fill="none" stroke="#000000" stroke-width="2" stroke-linecap="round"/><path d="M267.80688,146.84546l4.61058,7.17202l3.58601,22.54063l-0.25614,6.40359l-2.30529,119.87515" fill="none" stroke="#000000" stroke-width="2" stroke-linecap="round"/><path d="M271.39288,150.17533l-1.28072,17.16161" fill="none" stroke="#000000" stroke-width="2" stroke-linecap="round"/><path d="M269.34373,173.74055v-2.04915" fill="none" stroke="#000000" stroke-width="2" stroke-linecap="round"/><path d="M213.24832,161.1895l-0.25614,9.9896" fill="none" stroke="#000000" stroke-width="2" stroke-linecap="round"/><path d="M213.50447,178.35113v-2.04915" fill="none" stroke="#000000" stroke-width="2" stroke-linecap="round"/><path d="M206.07631,234.7027c0,0 7.2315,30.51991 8.61291,40.26444c0.43763,3.08705 0.8644,26.58902 0.8644,26.58902l-8.70888,0.76843z" fill="#000000" stroke="#000000" stroke-width="2" stroke-linecap="round"/><path d="M273.44203,303.09301l-8.70888,-0.76843c0,0 0.50927,-28.1684 0.80018,-30.22043c1.17879,-8.31528 8.67713,-36.63302 8.67713,-36.63302z" data-paper-data="{&quot;index&quot;:null}" fill="#000000" stroke="#000000" stroke-width="2" stroke-linecap="round"/><path d="M237.3463,181.81419l7.17202,9.01625v111.74687l-23.90673,0.27321l0.13662,-122.88057l-0.61474,-16.18827l-0.61474,-5.12287l-2.86881,-4.0983l6.35236,-6.55727l3.89338,4.91796l2.66389,11.47523l4.0983,10.65557z" fill="#970000" stroke="#000000" stroke-width="2" stroke-linecap="round"/><path d="M250.33789,203.76055c0,4.24392 -3.66974,7.6843 -8.19659,7.6843c-4.52685,0 -8.19659,-3.44039 -8.19659,-7.6843c0,-4.24392 3.66974,-7.6843 8.19659,-7.6843c4.52685,0 8.19659,3.44039 8.19659,7.6843z" fill="#ec0000" stroke="none" stroke-width="0" stroke-linecap="butt"/><path d="M252.38704,257.03839c0,4.80978 -4.35782,8.70888 -9.73345,8.70888c-5.37563,0 -9.73345,-3.8991 -9.73345,-8.70888c0,-4.80978 4.35782,-8.70888 9.73345,-8.70888c5.37563,0 9.73345,3.8991 9.73345,8.70888z" fill="#ec0000" stroke="none" stroke-width="0" stroke-linecap="butt"/><path d="M253.0274,227.06961c0,4.59758 -4.07112,8.32466 -9.09309,8.32466c-5.02197,0 -9.09309,-3.72708 -9.09309,-8.32466c0,-4.59758 4.07112,-8.32466 9.09309,-8.32466c5.02197,0 9.09309,3.72708 9.09309,8.32466z" fill="#ec0000" stroke="none" stroke-width="0" stroke-linecap="butt"/><path d="M247.1361,226.94154c0,2.82929 -2.06423,5.12287 -4.61058,5.12287c-2.54635,0 -4.61058,-2.29358 -4.61058,-5.12287c0,-2.82929 2.06423,-5.12287 4.61058,-5.12287c2.54635,0 4.61058,2.29358 4.61058,5.12287z" fill="#970000" stroke="none" stroke-width="0" stroke-linecap="butt"/><path d="M248.16068,257.03839c0,3.04148 -2.58029,5.50709 -5.76323,5.50709c-3.18294,0 -5.76323,-2.46561 -5.76323,-5.50709c0,-3.04148 2.58029,-5.50709 5.76323,-5.50709c3.18294,0 5.76323,2.46561 5.76323,5.50709z" fill="#970000" stroke="none" stroke-width="0" stroke-linecap="butt"/><path d="M246.87996,203.12019c0,2.54635 -2.06423,4.61058 -4.61058,4.61058c-2.54635,0 -4.61058,-2.06423 -4.61058,-4.61058c0,-2.54635 2.06423,-4.61058 4.61058,-4.61058c2.54635,0 4.61058,2.06423 4.61058,4.61058z" fill="#970000" stroke="none" stroke-width="0" stroke-linecap="butt"/><path d="M246.41082,109.23992c0,3.75081 -1.64265,6.79146 -3.66895,6.79146c-0.6868,0 -2.87586,-3.80093 -2.87586,-3.80093l3.41636,-2.53528l-4.00813,-2.60406c0,0 2.51585,-4.64266 3.46763,-4.64266c2.0263,0 3.66895,3.04064 3.66895,6.79146z" data-paper-data="{&quot;index&quot;:null}" fill="#ffffff" stroke="#000000" stroke-width="1.15" stroke-linecap="butt"/><g><path d="M249.90097,147.62752c0,3.11825 -6.57239,5.6461 -14.67985,5.6461c-8.10746,0 -14.67985,-2.52784 -14.67985,-5.6461c0,-3.11825 6.57239,-5.6461 14.67985,-5.6461c8.10746,0 14.67985,2.52784 14.67985,5.6461z" fill="#ffffff" stroke="none" stroke-width="NaN" stroke-linecap="butt"/><g stroke="#000000"><path d="M235.56081,140.7663c0.24666,0.01825 0.6086,-1.12423 2.34631,-1.62581c1.67939,-0.48474 7.2058,-1.68648 8.67315,-1.5546c1.61805,0.42498 7.67182,3.74293 7.67182,3.74293c0,0 -4.54781,1.82353 -8.85088,2.55731c-4.30307,0.73378 -7.72731,-0.25025 -10.33132,-0.35199c-3.30127,-0.12898 -8.75077,0.41175 -12.23104,-0.36191c-3.48027,-0.77365 -8.92973,-4.08814 -8.92973,-4.08814c0,0 6.97653,-0.96521 9.63237,-1.60133c2.23332,-0.53492 6.3384,0.71443 8.96556,1.37619c2.81497,0.70908 2.80847,1.88918 3.05375,1.90733z" fill="#ffffff" stroke-width="1.4" stroke-linecap="butt"/><path d="M212.95021,139.76083c0,0 4.921,1.8678 7.53755,3.33485c3.88726,2.17951 4.72368,3.85447 9.02709,6.27208c2.44304,1.37247 8.3849,1.58571 10.61794,0.02913c3.44461,-2.40111 4.51116,-3.09954 8.40045,-5.02091c3.74186,-1.84853 6.93761,-2.56357 6.93761,-2.56357c0,0 -4.11281,6.12815 -10.75231,11.10933c-3.10007,2.32578 -5.28052,5.87196 -10.5235,5.75442c-4.58391,-0.10277 -7.63502,-4.12037 -10.55617,-6.24703c-7.57583,-5.51536 -10.68866,-12.6683 -10.68866,-12.6683z" fill="#ffffff" stroke-width="1.9" stroke-linecap="butt"/><path d="M249.37622,143.12294c0,0 -8.33574,5.02531 -14.5747,4.49995c-7.21238,-0.60733 -13.56815,-4.64281 -13.56815,-4.64281" fill="none" stroke-width="0.5" stroke-linecap="round"/></g></g></g></g></svg>