<svg version="1.1" xmlns="http://www.w3.org/2000/svg" xmlns:xlink="http://www.w3.org/1999/xlink" width="110.65702" height="245.76637" viewBox="0,0,110.65702,245.76637"><g transform="translate(-199.75172,-59.73349)"><g data-paper-data="{&quot;isPaintingLayer&quot;:true}" fill-rule="nonzero" stroke-linejoin="miter" stroke-miterlimit="10" stroke-dasharray="" stroke-dashoffset="0" style="mix-blend-mode: normal"><path d="M201.54534,304.39159c0,0 -0.63536,-94.38387 -0.79335,-118.01201c-0.05451,-8.15261 8.18688,-36.76129 40.20201,-36.9211c31.60235,-0.15775 39.85672,29.48704 39.84884,36.89673c-0.07659,46.24274 0.65429,117.98648 0.65429,117.98648l-10.49667,0.09614l-0.15882,-114.84311c0,0 0.07549,-3.0993 -2.81625,-3.15415c-3.43441,-0.06514 -2.94538,3.11562 -2.94538,3.11562l0.20548,114.86995l-48.21366,0.07222l-0.30539,-115.23309c0,0 0.27949,-2.919 -2.8856,-2.93443c-3.11083,-0.01515 -2.81569,2.90899 -2.81569,2.90899l0.35311,115.0668z" fill="#ffffff" stroke="#000000" stroke-width="2" stroke-linecap="butt"/><path d="M256.1425,200.33377c-0.57113,0 -1.03411,-0.46299 -1.03411,-1.03411c0,-0.57113 0.46299,-1.03413 1.03411,-1.03413c0.57113,0 1.03411,0.463 1.03411,1.03413c0,0.57113 -0.46299,1.03411 -1.03411,1.03411z" fill="#000000" stroke="none" stroke-width="1.5" stroke-linecap="butt"/><path d="M250.88263,204.56936c-4.4635,-0.31439 -6.55245,-1.79392 -6.16985,-2.58011c0.11788,-0.24224 2.84645,1.06355 6.97038,1.3048c6.40897,0.37493 8.51033,-0.63173 8.51033,-0.63173v1.34616c0,0 -2.4135,1.04672 -9.31086,0.56089z" fill="#000000" stroke="#000000" stroke-width="0" stroke-linecap="butt"/><path d="M223.06988,199.29966c0,-0.57113 0.46299,-1.03413 1.03411,-1.03413c0.57113,0 1.03413,0.463 1.03413,1.03413c0,0.57113 -0.463,1.03411 -1.03413,1.03411c-0.57113,0 -1.03411,-0.46299 -1.03411,-1.03411z" fill="#000000" stroke="none" stroke-width="1.5" stroke-linecap="butt"/><path d="M229.36386,204.56936c-6.89736,0.48585 -9.31086,-0.56089 -9.31086,-0.56089v-1.34616c0,0 2.10136,1.00666 8.51033,0.63173c4.12393,-0.24126 6.85251,-1.54704 6.97039,-1.3048c0.3826,0.78618 -1.70634,2.26571 -6.16985,2.58011z" fill="#000000" stroke="#000000" stroke-width="0" stroke-linecap="butt"/><path d="M240.64432,261.12113c-0.81895,0 -1.48284,-0.66389 -1.48284,-1.48284c0,-0.81895 0.66389,-1.48284 1.48284,-1.48284c0.81895,0 1.48284,0.66389 1.48284,1.48284c0,0.81895 -0.66389,1.48284 -1.48284,1.48284z" data-paper-data="{&quot;index&quot;:null}" fill="#000000" stroke="none" stroke-width="1.5" stroke-linecap="butt"/><path d="M216.58107,304.40602v-119.20147c0,0 0.75721,-9.73105 0.75721,-14.63937c0,-4.498 -0.75721,-13.6872 -0.75721,-13.6872c0,0 2.67319,-2.35297 4.6557,-3.74807c1.98251,-1.3951 5.17197,-2.80371 5.17197,-2.80371c0,0 -0.6016,40.10902 14.55952,40.03867c15.43477,-0.07162 13.83154,-40.03867 13.83154,-40.03867c0,0 3.91276,1.51959 6.16585,2.94655c2.25309,1.42695 4.75379,3.60523 4.75379,3.60523c0,0 -0.75721,9.42463 -0.75721,14.19201c0,4.84193 0.75721,14.63937 0.75721,14.63937v118.69667z" fill="#970000" stroke="#000000" stroke-width="2" stroke-linecap="butt"/><path d="M293.33534,136.1c0,0 -8.35195,1.81649 -8.91471,2.48678c-1.47595,1.75799 -20.89844,34.30986 -52.41452,16.57647c-38.50253,-22.60072 -14.72083,-50.54691 -13.28073,-57.69278c1.9746,-9.79808 3.869,-18.04717 3.869,-18.04717c0,0 1.28167,3.19865 1.83387,4.80652c0.51503,1.49964 1.59061,4.67089 1.59061,4.67089c0,0 2.78679,-10.43417 9.72261,-18.31589c6.29668,-7.25821 15.23883,-10.85133 15.23883,-10.85133l-0.24538,2.60469c0,0 2.02237,-1.3367 3.58564,-1.70767c1.56328,-0.37095 4.45492,-0.68015 4.45492,-0.68015l-1.86172,3.20369c0,0 11.78506,-5.68794 26.43755,3.493c13.75686,8.7583 16.61802,22.74918 16.61802,22.74918l1.48949,-2.2007c0,0 1.59317,4.84492 0.18126,11.50712c-1.68284,7.94055 -3.65302,12.12628 -3.65302,12.12628c0,0 2.98728,-0.39269 6.32327,0.63098c4.18018,1.28273 6.09842,3.34431 6.09842,3.34431c0,0 -4.49664,0.42492 -7.25507,1.13859c-2.45699,0.63568 -4.0234,1.49074 -4.0234,1.49074c0,0 2.36349,0.17987 4.45317,0.83872c2.18034,0.68742 3.71116,1.65853 3.71116,1.65853c0,0 -6.8763,1.68537 -11.6848,5.58093c-4.54,3.67804 -7.52774,8.23435 -7.52774,8.23435c0,0 1.50648,0.14958 3.25327,1.06687c1.10724,0.58145 1.99999,1.28709 1.99999,1.28709z" fill="#000000" stroke="none" stroke-width="1.5" stroke-linecap="butt"/><path d="M230.00311,100.47882c3.79756,-6.25321 10.30501,-13.71842 10.30501,-13.71842c0,0 2.79052,1.96133 13.12517,5.58781c7.93973,2.78607 22.21523,4.3224 22.21523,4.3224c0,0 -3.50964,1.17408 -5.37279,1.62457c-1.98074,0.47892 -5.90753,1.36575 -5.90753,1.36575c0,0 7.33292,3.23164 14.66908,4.74691c9.01797,2.14353 12.13214,1.28555 13.19053,3.84919c1.24916,3.02573 -12.72356,19.40643 -16.22701,23.73233c-3.65779,4.35182 -7.61095,6.22374 -9.87827,8.31312c-2.26732,2.08938 -3.92141,4.73797 -11.17079,11.71977c-4.5241,4.35713 -8.59559,4.80481 -16.70175,6.03154c-8.10617,1.22674 -12.75545,2.20974 -16.00767,-0.05032c-3.12983,-2.17499 -4.26489,-9.36315 -5.23084,-16.57194c-1.02856,-7.67619 -2.24052,-12.06671 0.97446,-17.96256c2.89542,-5.30983 5.16543,-8.4912 8.00782,-13.02487c2.07743,-3.31355 1.93547,-6.55022 4.00938,-9.96523z" fill="#000000" stroke="#000000" stroke-width="1.5" stroke-linecap="butt"/><path d="M277.83726,116.32948c0,0 1.05035,1.14952 2.80258,3.3897c1.60046,2.04616 2.58891,4.01695 2.58891,4.01695l-0.52626,1.0634c0,0 -4.04968,-6.77894 -10.81574,-10.84486c-5.41,-3.25099 -9.72627,-3.54606 -9.72627,-3.54606l2.48004,-3.36116c0,0 3.53352,0.44688 7.46366,3.09419c4.06963,2.74129 6.21684,5.21173 6.21684,5.21173z" data-paper-data="{&quot;index&quot;:null}" fill="#000000" stroke="none" stroke-width="1.5" stroke-linecap="butt"/><path d="M248.53361,143.0689c0.5704,0.21186 3.08357,1.39942 6.02385,2.59586c2.9637,1.20597 7.21362,2.29294 7.19412,2.4605c-0.02476,0.21265 -10.43477,0.22694 -13.67937,0.63224c-2.71902,0.33964 -6.68867,0.70564 -6.68867,0.70564c0,0 -7.10401,-1.16169 -13.27235,-2.44521c-4.94371,-1.02869 -10.39929,-1.66108 -10.40995,-1.75461c-0.01439,-0.12613 3.86835,-0.71071 6.82417,-1.39467c1.14585,-0.49661 5.43971,-1.48513 5.43971,-1.48513c0,0 4.95585,-0.27766 7.60826,0.579c2.84203,0.91791 2.83546,2.44556 3.0831,2.46906c0,0 1.18436,-1.74932 2.36886,-2.10461c1.18451,-0.35528 5.08219,-0.41633 5.50828,-0.25808z" fill="#000000" stroke="#000000" stroke-width="1.4" stroke-linecap="butt"/><path d="M229.88562,147.62249c5.09114,1.02674 11.91756,2.80736 11.91756,2.80736c0,0 5.78976,-1.55585 8.44678,-1.8344c2.05992,-0.21596 11.216,-0.70654 11.26026,-0.33377c0.04328,0.36447 -9.03119,12.90033 -21.14808,12.44714c-13.76954,-0.43578 -22.86459,-15.13559 -22.82675,-15.30472c0.03784,-0.16913 7.2591,1.19165 12.35024,2.2184z" fill="#000000" stroke="#000000" stroke-width="1.9" stroke-linecap="butt"/><path d="M235.20484,140.50919c-0.8385,-0.60462 -0.96288,-4.71396 0.06564,-6.56537c0.92024,-1.65651 3.30564,-2.33578 5.31038,-0.89021c2.00476,1.44558 3.12137,2.85579 0.81903,5.75446c-1.95393,2.46001 -4.19031,3.1467 -6.19505,1.70112z" fill="#000000" stroke="#000000" stroke-width="1.15" stroke-linecap="butt"/><path d="M255.72776,118.20635c0,0 -2.2386,3.27996 -4.16353,5.78392c-3.81167,4.95828 -17.11384,21.88476 -17.11384,21.88476l-2.42355,-1.73691c0,0 1.78927,-3.85422 4.64516,-8.36242c3.8657,-6.10225 9.16495,-13.47867 10.86326,-16.37068c1.60984,-2.74135 2.6156,-5.15919 2.6156,-5.15919" fill="#000000" stroke="#000000" stroke-width="1.3" stroke-linecap="round"/><path d="M225.46087,109.68405c0,0 -1.94349,-5.73743 0.24941,-10.88511c2.30736,-5.41635 4.50731,-8.74909 6.2335,-7.82385c1.72621,0.92523 0.80242,3.50902 -1.85946,8.9606c-2.66189,5.45158 -4.62346,9.74837 -4.62346,9.74837z" data-paper-data="{&quot;index&quot;:null}" fill="#000000" stroke="#000000" stroke-width="1" stroke-linecap="butt"/><path d="M227.60539,106.36361c0,0 -1.18089,-4.45564 1.44003,-9.38006c1.46202,-2.74702 3.083,-0.58805 3.083,-0.58805" fill="#000000" stroke="#000000" stroke-width="0.25" stroke-linecap="round"/><path d="M233.94251,102.72735c2.91869,-3.92642 9.15101,-4.41841 13.46363,-1.21266c4.31261,3.20575 4.83739,8.72581 1.9187,12.65224c-2.91869,3.92642 -8.48832,4.72155 -12.80094,1.51581c-4.31261,-3.20575 -5.50008,-9.02896 -2.58138,-12.95539z" fill="#000000" stroke="#000000" stroke-width="1.4" stroke-linecap="butt"/><path d="M237.47299,105.41849c1.64578,-2.21403 4.77476,-2.67467 6.98878,-1.02889c2.21403,1.64578 2.67467,4.77476 1.02889,6.98878c-1.64578,2.21403 -4.77475,2.67467 -6.98878,1.02889c-2.21403,-1.64578 -2.67467,-4.77476 -1.02889,-6.98878z" fill="#000000" stroke="none" stroke-width="1.5" stroke-linecap="butt"/><path d="M255.888,118.55258c3.02407,-3.84586 8.79276,-4.58104 13.10617,-1.47074c4.3134,3.11029 5.20309,8.64143 2.34164,12.60976c-2.86146,3.96833 -8.45735,5.08496 -13.21447,1.74206c-4.52489,-3.1797 -5.39153,-8.86465 -2.23334,-12.88107z" fill="#000000" stroke="#000000" stroke-width="1.4" stroke-linecap="butt"/><path d="M259.57135,121.31402c1.64845,-2.2861 4.83803,-2.80302 7.12414,-1.15457c2.2861,1.64845 2.80302,4.83803 1.15457,7.12414c-1.64845,2.2861 -4.83802,2.80303 -7.12414,1.15457c-2.2861,-1.64845 -2.80302,-4.83803 -1.15457,-7.12414z" fill="#000000" stroke="none" stroke-width="1.5" stroke-linecap="butt"/><path d="M234.19826,102.25566c0,0 5.32431,-7.27517 13.76027,-0.9577c7.58513,5.67392 2.24861,13.21923 2.24861,13.21923z" fill="#000000" stroke="#000000" stroke-width="1.15" stroke-linecap="butt"/><path d="M255.81681,118.00562c0,0 5.33166,-7.81613 14.4073,-0.83426c7.68441,5.95215 2.09817,13.41288 2.09817,13.41288z" fill="#000000" stroke="#000000" stroke-width="1.15" stroke-linecap="butt"/><path d="M242.91701,96.19953c0,0 3.79707,0.4954 7.84985,2.8472c4.49099,2.60609 6.33974,4.48971 6.33974,4.48971l-2.18057,3.52857c0,0 -2.71299,-2.79541 -6.19873,-5.11222c-4.66174,-3.09846 -6.22789,-2.72417 -9.9455,-4.83987c-3.18545,-1.81285 -5.55761,-3.81162 -5.55761,-3.81162l0.6993,-1.01408c0,0 2.87285,2.16275 4.28515,3.00563c1.16567,0.69568 3.77344,1.5644 3.77344,1.5644z" fill="#000000" stroke="none" stroke-width="1.5" stroke-linecap="butt"/><path d="M270.47987,147.51617c5.82765,-1.68636 8.53168,-2.1528 9.1468,-0.29336c0.61512,1.85943 -3.04584,3.4545 -8.77792,4.79764c-5.44775,1.27651 -10.7663,-1.6232 -10.7663,-1.6232c0,0 4.56978,-1.19471 10.39743,-2.88107z" data-paper-data="{&quot;index&quot;:null}" fill="#000000" stroke="#000000" stroke-width="1" stroke-linecap="butt"/><path d="M274.31844,146.11026c0,0 1.8486,1.96758 -1.10865,2.93626c-5.3013,1.73651 -9.48802,-0.19185 -9.48802,-0.19185" data-paper-data="{&quot;index&quot;:null}" fill="#000000" stroke="#000000" stroke-width="0.25" stroke-linecap="round"/><path d="M260.57973,121.08754c1.42156,-1.96573 4.25108,-2.34871 6.32295,-0.85474c2.07354,1.49518 2.60301,4.30416 1.18259,6.27402c-0.16424,0.22777 -0.34735,0.43434 -0.54599,0.61927" fill="none" stroke="#ffffff" stroke-width="1" stroke-linecap="butt"/><path d="M200.48067,184.1659c0,-0.16796 0.04141,-0.32624 0.11457,-0.4652l0.45388,-0.90776c-0.00212,-0.00455 0.0212,-0.0558 0.06151,-0.13814c0.10459,-0.44039 0.23705,-0.85065 0.37192,-1.18597c0.20642,-0.51322 0.4538,-1.0401 0.73334,-1.57317c0.04681,-0.21414 0.09581,-0.4277 0.15617,-0.63811c0.64074,-2.23353 1.72137,-5.29569 3.29226,-7.6061c0.37232,-1.18781 0.65567,-2.37564 0.80503,-3.55698c0.41408,-0.59837 0.76459,-1.24408 1.04173,-1.92739c0.00615,-0.01253 0.01225,-0.02509 0.01832,-0.03768c0.98627,-1.79847 2.87888,-3.5034 4.35321,-4.88865c0.49543,-0.46551 0.45042,-1.3268 0.90495,-1.82914c2.51647,-2.17374 5.3721,-4.20542 6.89667,-5.10559c1.6936,-0.99998 3.39892,-1.94334 5.11849,-2.84227c0.17533,-0.06006 0.34817,-0.12918 0.51777,-0.20955c3.08843,-0.05105 5.88662,-0.48963 9.02441,-0.48963c2.77552,0 5.94268,0.42612 8.67247,0.00749c4.1239,-0.63243 8.70351,-1.85225 12.60417,0.09808c1.74735,0.87367 3.23616,1.69506 4.76626,2.86044c1.09922,0.83721 2.81406,0.98882 3.8254,1.95564c1.17753,1.12569 2.12136,2.5123 3.24014,3.70301c0.18652,0.19851 0.43659,0.31025 0.70164,0.40213c1.68946,2.03388 3.34751,3.86576 3.7864,4.36735c1.16798,1.33483 2.36,2.97753 3.63503,4.61539c-0.17055,0.51567 -0.76517,0.63459 -0.76517,0.63459c-2.96008,0.5841 -5.03143,2.15364 -7.5867,3.60062c-3.5138,1.98977 -7.57696,3.47514 -11.05406,5.52227c-2.55206,1.50251 -4.70205,3.74294 -7.43736,5.1106c-4.49992,2.99994 -9.24708,5.57384 -13.88629,8.33177c-3.10871,1.84808 -5.03493,4.37113 -8.38648,6.04691c-3.65503,1.76057 -5.37018,4.93198 -8.07188,7.68158l-0.92575,0.92575l-0.33858,-0.33857l-0.95324,0.44271c0.02552,-0.3639 0.06352,-0.71153 0.11093,-1.04813l-0.42065,-0.21033l0.46287,-0.92575l0.14168,0.07084c0.20696,-1.02817 0.47665,-2.00081 0.70525,-3.09351c0.32923,-1.57368 -0.17857,-3.19786 -0.46287,-4.63214c-0.70512,-3.55731 -0.60133,-7.79762 -1.58537,-11.09455c-0.12678,-0.42477 -0.7665,0.44621 -1.16006,0.65019c-0.51925,0.26913 -1.0512,0.5148 -1.59161,0.73844c-2.09799,5.06965 -1.55861,10.44645 -1.55861,15.95644c0,1.74518 0.39521,4.0973 -0.02676,5.78427c-0.33633,1.34463 -1.8682,2.41855 -2.58052,3.71749c-2.15333,1.18087 -3.31234,2.36796 -4.95863,4.01461l-0.39888,0.79776c-0.16035,0.33825 -0.50491,0.57217 -0.90412,0.57217c-0.55229,0 -1,-0.44771 -1,-1v-1.38863h0.32165c-0.1336,-1.77829 0.09575,-3.45748 -0.2949,-5.32476c-0.14805,-0.70768 -0.29075,-1.41414 -0.42757,-2.12009c0.97822,-4.46309 0.26077,-10.09317 0.29179,-16.4306c0.00554,-1.13108 0.23416,-2.31573 0.55129,-3.52986c-0.26677,-0.17959 -0.44226,-0.48437 -0.44226,-0.83014v-1.38863h0.11215l-0.0854,-0.22975c0.04543,-0.09087 0.08659,-0.18112 0.12404,-0.27087c-0.06097,-0.15472 -0.10616,-0.32228 -0.13768,-0.49901c-0.28561,-0.17606 -0.47599,-0.49174 -0.47599,-0.85188z" fill="#000000" stroke="none" stroke-width="0.5" stroke-linecap="butt"/><path d="M217.68134,211.01272c0,0 13.24293,-10.64261 22.32103,-16.50406c10.34979,-6.68254 36.46425,-21.45179 36.46425,-21.45179" fill="none" stroke="#000000" stroke-width="2.5" stroke-linecap="round"/><path d="M201.48066,223.04751l9.25753,-7.8689" fill="none" stroke="#000000" stroke-width="2.5" stroke-linecap="round"/><path d="M265.43183,211.4756l-0.10557,0.01566c1.11255,2.34795 0.05647,5.53178 -0.37021,8.01342c-0.36246,2.10814 0.01291,4.63766 0.01291,6.78296c0,9.8747 0,19.74938 0,29.62408c0,0 0,0.303 -0.16679,0.57542l0.07688,0.78188c-3.25137,1.62568 -6.55389,3.13086 -10.00743,4.25855c-2.44484,0.00929 -4.58533,1.04805 -6.98114,1.39405c-5.94204,0.85812 -14.71949,2.58396 -20.40911,-0.06802c-0.02106,-0.00926 -0.04238,-0.01927 -0.06396,-0.03006c-0.31063,-0.15531 -0.45944,-0.36457 -0.52136,-0.57157c-0.07466,-0.20275 -0.08117,-0.45944 0.07415,-0.77007c0.00679,-0.01358 0.01368,-0.02684 0.02067,-0.03981l0.5451,-1.04986c5.42648,-4.85213 9.75997,-10.22701 14.36735,-15.76066c2.37917,-2.85747 4.31101,-6.16251 6.94315,-8.79465c5.44251,-8.21884 10.31739,-16.5243 14.69095,-25.27141c0,0 0.44722,-0.89443 1.34164,-0.44721c0.61856,0.30928 0.59545,0.83245 0.52236,1.12575c0.03043,0.13408 0.03043,0.23155 0.03043,0.23155z" fill="#ec0000" stroke="none" stroke-width="0.5" stroke-linecap="butt"/><path d="M219.06996,231.9164c-0.09119,0 -0.17408,-0.00832 -0.2494,-0.02343c-0.19419,0.03515 -0.34751,0.01441 -0.34751,0.01441l-0.03566,-0.18684c-0.36743,-0.29114 -0.36743,-0.80414 -0.36743,-0.80414c0,-3.66034 0.30821,-7.35862 -0.87444,-10.7928l-0.03473,-0.84041c-0.24297,-0.12832 -0.47947,-0.37814 -0.47947,-0.86445c0,-1 1,-1 1,-1c2.58077,0.03317 4.5907,1.04788 7.10333,1.40154c3.64152,0.51257 7.72195,-0.01291 11.41172,-0.01291c2.56795,0 5.70229,0.34322 7.98483,-0.86363c1.9982,-0.49955 3.6219,-1.35475 5.45425,-2.27093l0.90776,-0.45388c0.13897,-0.07316 0.29725,-0.11457 0.4652,-0.11457c0.55229,0 1,0.44771 1,1c0,0.16796 -0.04141,0.32625 -0.11457,0.46521l-0.45387,0.90775l-0.05621,-0.0281c-0.03658,0.09859 -0.07974,0.19479 -0.13112,0.28799c-0.63494,1.15168 -4.60071,2.35773 -5.8144,2.96458c-4.37603,2.18802 -8.51884,4.70779 -12.96053,6.94314c-3.79731,1.89865 -8.2827,2.91599 -12.61155,3.9028c-0.14252,0.19932 -0.38468,0.36866 -0.7962,0.36866z" fill="#ec0000" stroke="none" stroke-width="0.5" stroke-linecap="butt"/><path d="M264.43182,303.12509l-47.21337,0.46288l0.46288,-24.99532l46.7505,-13.88629z" fill="#ec0000" stroke="#ec0000" stroke-width="0.5" stroke-linecap="round"/></g></g></svg>