<svg version="1.1" xmlns="http://www.w3.org/2000/svg" xmlns:xlink="http://www.w3.org/1999/xlink" width="102.27635" height="263.45527" viewBox="0,0,102.27635,263.45527"><defs><linearGradient x1="239.37822" y1="147.5721" x2="239.37822" y2="302.61795" gradientUnits="userSpaceOnUse" id="color-1"><stop offset="0" stop-color="#ffffff"/><stop offset="1" stop-color="#000000"/></linearGradient></defs><g transform="translate(-196.7253,-40.16458)"><g data-paper-data="{&quot;isPaintingLayer&quot;:true}" fill-rule="nonzero" stroke-linejoin="miter" stroke-miterlimit="10" stroke-dasharray="" stroke-dashoffset="0" style="mix-blend-mode: normal"><path d="M207.81962,297.83741v-253.22501h91.18203v253.22501z" fill-opacity="0.01" fill="#000000" stroke="none" stroke-width="0" stroke-linecap="butt"/><path d="M199.77682,302.5112c0,0 -2.72962,-32.63582 -1.89169,-63.61572c0.11376,-4.20602 7.06094,-7.15103 7.03329,-11.26268c-0.12462,-18.53577 -5.87963,-34.85953 -5.93496,-43.13362c-0.02118,-3.16803 4.97111,-5.03743 8.36356,-11.51365c5.33767,-10.18968 12.26412,-25.30974 31.83845,-25.40745c17.34159,-0.08656 33.92059,0.65267 39.69384,9.91579c4.7476,7.61748 0.15856,23.63727 0.155,26.98094c-0.02046,12.35408 -3.11726,25.90145 -3.0518,40.04145c0.17959,38.78764 3.70609,77.94503 3.70609,77.94503l-10.49667,0.09614l-0.15882,-114.84311c0,0 0.07549,-3.0993 -2.81625,-3.15415c-3.43441,-0.06514 -2.94538,3.11562 -2.94538,3.11562l0.20548,114.86995l-48.21366,0.07222c0,0 11.17251,-47.69491 11.12014,-67.45854c-0.04922,-18.57343 -11.42553,-47.77455 -11.42553,-47.77455c0,0 0.27949,-2.919 -2.8856,-2.93443c-3.11083,-0.01515 -2.81569,2.90899 -2.81569,2.90899l0.35311,115.0668z" fill="url(#color-1)" stroke="#000000" stroke-width="2" stroke-linecap="butt"/><path d="M208.46281,95.10497c0,0 6.16329,-5.92187 6.29161,-6.78761c0.23827,-1.60758 -13.73129,-39.55118 -0.30092,-47.79464c5.53936,-3.40002 28.22389,18.53893 38.77585,18.12992c10.55402,-0.21602 18.15817,-0.89985 23.65062,1.14379c1.84125,0.6851 4.86641,6.12341 6.51549,5.61225c3.67299,-1.13851 5.48469,-9.44776 7.35857,-7.24118c2.03071,2.39126 -5.14155,8.61518 -1.73673,11.10409c6.83023,4.99287 6.8272,13.73663 7.62332,15.90148c3.44981,9.38084 1.76908,21.16093 1.76908,21.16093c0,0 -2.76715,-2.05351 -4.0797,-3.13397c-1.2242,-1.00773 -3.80143,-3.14585 -3.80143,-3.14585c0,0 3.09111,10.3481 1.31092,20.69498c-1.5623,9.48098 -7.29782,17.22543 -7.29782,17.22543l-1.15522,-2.34735c0,0 -1.02266,2.19794 -2.16005,3.33274c-1.1374,1.13479 -3.43873,2.91273 -3.43873,2.91273l-0.09205,-3.70421c0,0 -7.0601,11.01795 -24.35066,10.87154c-16.30625,-0.25547 -26.07151,-10.6752 -26.07151,-10.6752l-0.1162,2.65484c0,0 -3.89477,-3.29276 -6.18145,-9.70754c-2.72545,-7.64567 -3.23946,-12.24324 -3.23946,-12.24324c0,0 -2.33908,1.89916 -5.71704,2.7744c-4.23278,1.09673 -6.94665,0.34526 -6.94665,0.34526c0,0 3.60795,-2.71717 5.58396,-4.76989c1.76007,-1.8284 2.64658,-3.37722 2.64658,-3.37722c0,0 -2.10758,1.0847 -4.23277,1.61795c-2.21739,0.5564 -4.03008,0.53093 -4.03008,0.53093c0,0 4.97492,-5.03728 7.03074,-10.87429c1.94102,-5.51108 2.09972,-10.95731 2.09972,-10.95731c0,0 -1.36165,0.66163 -3.33013,0.79513c-1.24776,0.08463 -2.37785,-0.0489 -2.37785,-0.0489z" fill="#000000" stroke="none" stroke-width="1.5" stroke-linecap="butt"/><path d="M225.2487,106.4266c-0.57709,-7.29323 0.335,-17.15448 0.335,-17.15448c0,0 3.41059,-0.04124 13.91429,-3.14424c8.0696,-2.38394 20.54731,-9.48722 20.54731,-9.48722c0,0 -2.16005,3.00503 -3.40781,4.46015c-1.32651,1.54696 -3.99292,4.56297 -3.99292,4.56297c0,0 7.838,-1.66761 14.67476,-4.72931c8.56837,-3.53575 10.59252,-6.05309 12.95042,-4.5927c2.7829,1.72362 1.03006,23.1827 0.71846,28.74062c-0.42163,5.66922 -2.53327,9.49969 -3.15031,12.52053c-0.61704,3.02084 -0.4096,6.13662 -2.20622,16.0397c-1.12121,6.18021 -4.16183,8.92466 -10.01942,14.66081c-5.85759,5.73616 -9.05378,9.25275 -13.01359,9.32173c-3.81077,0.06639 -8.93565,-5.1002 -13.93542,-10.38244c-5.32393,-5.62474 -8.87489,-8.47713 -9.71551,-15.13975c-0.75707,-6.00039 -0.77653,-9.90853 -1.12266,-15.24835c-0.25298,-3.90273 -2.26119,-6.44504 -2.57636,-10.42801z" fill="#ffffff" stroke="#000000" stroke-width="1.5" stroke-linecap="butt"/><path d="M273.94794,140.20282c0,0 0.0573,19.32671 -7.93614,27.63844c-2.52381,2.6243 -9.01509,2.83817 -13.93345,2.64252c-4.14889,-0.16503 -9.58897,-1.29288 -12.11524,-3.47048c-9.63019,-8.30102 -8.9132,-27.37125 -8.9132,-27.37125c0,0 9.77391,-8.27265 15.71666,-8.19128c1.36679,0.01868 6.19257,2.71604 6.19257,2.71604c0,0 3.61656,-3.76011 8.26362,-2.06376c5.257,2.2238 12.72512,8.09976 12.72512,8.09976z" fill="#000000" stroke="#000000" stroke-width="1.5" stroke-linecap="butt"/><path d="M252.93143,136.3839c0.59143,0.98183 1.29238,0.27112 1.16094,0.42051c-0.81052,0.64033 -14.69277,2.91343 -17.36512,2.91343c-3.7457,0 -3.44553,-0.68789 2.49061,-4.03887c5.34476,-3.00953 7.06769,-3.49599 13.71358,0.70493z" data-paper-data="{&quot;noHover&quot;:false,&quot;origItem&quot;:[&quot;Path&quot;,{&quot;applyMatrix&quot;:true,&quot;segments&quot;:[[[698.34237,394.12604],[1.90626,-1.07338],[-2.11718,1.19516]],[[697.44393,395.4963],[-1.33594,0],[0.95312,0]],[[702.35019,394.59802],[-0.28908,0.22838],[0.04688,-0.05328]],[[702.03769,393.87482],[0.21094,0.35018],[-0.57032,-0.89828]]],&quot;closed&quot;:true,&quot;fillColor&quot;:[0,0,0]}]}" fill="#ffffff" stroke="#000000" stroke-width="0" stroke-linecap="butt"/><path d="M257.07374,133.6461c2.86952,-0.83245 5.08406,-0.16761 9.22403,2.90591l4.44715,3.48046l-2.23479,0.25593c-2.19044,0.21348 -15.5384,-2.86772 -16.08609,-3.84955c-0.52571,-0.85381 3.5325,-2.5154 4.64964,-2.7928z" data-paper-data="{&quot;noHover&quot;:false,&quot;origItem&quot;:[&quot;Path&quot;,{&quot;applyMatrix&quot;:true,&quot;segments&quot;:[[[704.70179,393.42568],[0,0],[-0.39844,0.09896]],[[704.15491,394.47622],[-0.1875,-0.30452],[0.19532,0.35018]],[[708.60803,395.69422],[-0.78124,0.07614],[0,0]],[709.39709,395.6181],[[707.80335,394.42294],[0,0],[-1.47656,-1.0962]],[[704.70179,393.4257],[1.02344,-0.2969],[0,0]]],&quot;closed&quot;:true,&quot;fillColor&quot;:[0,0,0]}]}" fill="#ffffff" stroke="#000000" stroke-width="0" stroke-linecap="butt"/><path d="M259.42046,140.62435c2.51904,0.83245 2.13873,1.14933 -5.26502,1.21337c-4.46851,0.06404 -8.32862,-0.4278 -8.32862,-0.7693c0,-1.47278 9.71649,-1.7674 13.59363,-0.44406z" data-paper-data="{&quot;noHover&quot;:false,&quot;origItem&quot;:[&quot;Path&quot;,{&quot;applyMatrix&quot;:true,&quot;segments&quot;:[[[700.70179,396.02156],[0,-0.52528],[0,0.1218]],[[703.51429,396.21948],[-1.59374,0.02284],[2.64062,-0.02284]],[[705.35023,395.8693],[0.89844,0.2969],[-1.38282,-0.47198]]],&quot;closed&quot;:true,&quot;fillColor&quot;:[0,0,0]}]}" fill="#ffffff" stroke="#000000" stroke-width="1.5" stroke-linecap="butt"/><path d="M236.18899,162.6743c1.25394,0.69953 2.87572,7.33607 4.51095,7.38333c2.10685,0.06089 4.23604,-6.67956 5.62964,-7.66494c2.73807,-1.89962 4.49571,-1.99125 3.42236,-0.02759c-1.20473,2.02771 -4.91675,15.08018 -7.78627,15.08018c-2.86952,0 -7.73194,-12.54964 -9.81286,-14.57734c-2.93524,-2.8601 -0.91432,-2.92564 4.03612,-0.19363z" data-paper-data="{&quot;noHover&quot;:false,&quot;origItem&quot;:[&quot;Path&quot;,{&quot;applyMatrix&quot;:true,&quot;segments&quot;:[[[700.29563,400.68044],[-1.04688,-1.02008],[0.74218,0.7232]],[[703.44407,401.97458],[-1.02344,0],[1.02344,0]],[[706.37375,400.50536],[-0.42968,0.7232],[0.38282,-0.70036]],[[705.35031,400.48252],[0.97656,-0.67752],[-0.88282,0.62422]],[[701.53781,400.58148],[1.02344,0.57094],[-1.76562,-0.9744]]],&quot;closed&quot;:true,&quot;fillColor&quot;:[0,0,0]}]}" fill="#ffffff" stroke="#000000" stroke-width="1.5" stroke-linecap="butt"/><path d="M234.87504,153.39468c-2.93524,-12.23009 -2.81719,-13.48574 0.79707,-10.83907c0.78854,0.55493 3.09461,3.98133 4.56222,7.18293c3.39523,7.40639 6.75664,21.7337 13.10897,21.7337c6.46185,0 9.38872,-14.1855 11.86397,-21.65587c1.40189,-4.26883 3.5782,-7.28346 5.17726,-7.28346c0.45999,0 1.34812,-0.23866 1.34812,-0.08933c0,3.62844 3.94103,23.43669 2.86768,25.67782c-2.05905,4.54624 -9.36405,12.43369 -18.9145,12.71115c-7.20659,0.27747 -20.54187,-10.58592 -23.60849,-11.97335c-4.33707,-1.96366 4.8128,-6.92696 2.79754,-15.46457z" data-paper-data="{&quot;noHover&quot;:false,&quot;origItem&quot;:[&quot;Path&quot;,{&quot;applyMatrix&quot;:true,&quot;segments&quot;:[[[696.79563,400.42922],[0,0],[0.71876,3.04502]],[[699.56125,404.9663],[-1.54686,-0.70036],[1.09374,0.49482]],[[703.65499,405.41544],[-2.5703,0.09896],[3.40626,-0.09896]],[[708.53781,403.39812],[-0.73438,1.62146],[0.38282,-0.79932]],[[709.75657,396.56968],[0,1.29412],[0,-0.05328]],[[709.44407,396.49356],[0.16406,0],[-0.57032,0]],[[707.60813,399.11228],[0.5,-1.52252],[-0.88282,2.66438]],[[703.30345,402.72062],[2.30468,0],[-2.26562,0]],[[698.51439,399.08182],[1.21094,2.64156],[-0.52344,-1.14188]],[[697.06127,396.61536],[0.28124,0.19792],[-1.28906,-0.94396]],[[696.79565,400.42924],[-1.04688,-4.36198],[0,0]]],&quot;closed&quot;:true,&quot;fillColor&quot;:[0,0,0]}]}" fill="#ffffff" stroke="#000000" stroke-width="2.5" stroke-linecap="butt"/><path d="M273.31871,91.30623c0,0 1.52429,0.31807 4.2558,1.11029c2.49492,0.72361 4.44935,1.74403 4.44935,1.74403l0.1951,1.17035c0,0 -7.24963,-3.12997 -15.1158,-2.4706c-6.2896,0.52724 -9.96319,2.8124 -9.96319,2.8124l0.04575,-4.17683c0,0 3.12748,-1.70421 7.86366,-1.85557c4.90428,-0.15672 8.09084,0.59125 8.09084,0.59125z" data-paper-data="{&quot;index&quot;:null}" fill="#000000" stroke="none" stroke-width="1.5" stroke-linecap="butt"/><path d="M252.88086,135.85369c-1.03376,0 -3.5381,-3.26042 -3.7867,-5.3637c-0.22243,-1.88186 1.31512,-3.82799 3.7867,-3.82799c2.47159,0 4.2021,0.49077 4.02999,4.18853c-0.14607,3.13818 -1.55841,5.00317 -4.02999,5.00317z" fill="#ffffff" stroke="#000000" stroke-width="1.15" stroke-linecap="butt"/><path d="M256.48295,105.75997c0,0 0.1026,3.96976 0.00576,7.12662c-0.19174,6.25113 -1.08147,27.7607 -1.08147,27.7607l-2.98167,0.00864c0,0 -0.80294,-4.17274 -1.12322,-9.49979c-0.43353,-7.21063 -0.4495,-16.29321 -0.76344,-19.63229c-0.29758,-3.16513 -0.89593,-5.71453 -0.89593,-5.71453" fill="#ffffff" stroke="#000000" stroke-width="1.3" stroke-linecap="round"/><path d="M226.94837,116.54981c0,0 -4.93211,-3.51705 -6.16417,-8.97502c-1.29636,-5.74284 -1.46118,-9.7328 0.48013,-9.99193c1.94131,-0.25915 2.70321,2.37692 3.73262,8.35569c1.0294,5.97877 1.95143,10.61127 1.95143,10.61127z" data-paper-data="{&quot;index&quot;:null}" fill="#ffffff" stroke="#000000" stroke-width="1" stroke-linecap="butt"/><path d="M226.74575,112.60225c0,0 -3.56385,-2.92338 -4.31816,-8.45061c-0.42079,-3.08327 2.15675,-2.28016 2.15675,-2.28016" fill="none" stroke="#000000" stroke-width="0.25" stroke-linecap="round"/><path d="M229.75918,105.94635c0.07093,-4.89188 4.83834,-8.93609 10.21137,-8.8582c5.37302,0.0779 9.02724,4.2484 8.95632,9.14029c-0.07093,4.89188 -4.12352,8.79439 -9.49655,8.7165c-5.37302,-0.0779 -9.74207,-4.1067 -9.67114,-8.99859z" fill="#ffffff" stroke="#000000" stroke-width="1.4" stroke-linecap="butt"/><path d="M236.704,108.57147c0.03999,-2.75843 2.30855,-4.96213 5.06696,-4.92214c2.75843,0.03999 4.96213,2.30855 4.92214,5.06696c-0.03999,2.75843 -2.30854,4.96213 -5.06696,4.92214c-2.75843,-0.03999 -4.96213,-2.30855 -4.92214,-5.06696z" fill="#000000" stroke="none" stroke-width="1.5" stroke-linecap="butt"/><path d="M256.81546,105.94708c0.20353,-4.88817 4.45264,-8.85847 9.77048,-8.85847c5.31783,0 9.27453,3.96607 9.27453,8.85847c0,3.10521 -0.3118,14.698 -2.94198,16.36034c-1.51379,0.95675 -4.63388,-7.24433 -6.75766,-7.21846c-5.52997,0.06739 -9.55792,-4.03692 -9.34537,-9.14188z" fill="#ffffff" stroke="#000000" stroke-width="1.4" stroke-linecap="butt"/><path d="M263.29858,104.77904c0,-2.81845 2.2848,-5.10325 5.10325,-5.10325c2.81845,0 5.10325,2.2848 5.10325,5.10325c0,2.81845 0.84918,8.23722 -1.96928,8.23722c-2.81845,0 -8.23722,-5.41877 -8.23722,-8.23722z" fill="#000000" stroke="none" stroke-width="1.5" stroke-linecap="butt"/><path d="M229.69075,105.41417c0,0 0.06357,-9.01512 10.60111,-8.8249c9.47101,0.16586 9.55554,9.40723 9.55554,9.40723z" fill="#ffffff" stroke="#000000" stroke-width="1.15" stroke-linecap="butt"/><path d="M233.22058,95.40251c0,0 3.36963,-1.819 8.03244,-2.28178c5.16698,-0.51283 7.76823,-0.06628 7.76823,-0.06628l0.29508,4.13747c0,0 -3.83554,-0.68065 -8.01795,-0.52113c-5.59346,0.21333 -6.64488,1.43293 -10.89774,1.89119c-3.64408,0.39266 -6.73723,0.15884 -6.73723,0.15884l-0.02589,-1.23155c0,0 3.59517,0.07398 5.23371,-0.06836c1.35239,-0.11749 3.9757,-0.93808 3.9757,-0.93808z" fill="#000000" stroke="none" stroke-width="1.5" stroke-linecap="butt"/><path d="M269.05818,110.64662c0,0 2.57754,-0.80312 2.15675,2.28016c-0.75431,5.52723 -4.31816,8.45061 -4.31816,8.45061" data-paper-data="{&quot;index&quot;:null}" fill="none" stroke="#000000" stroke-width="0.25" stroke-linecap="round"/><path d="M238.23151,230.457c0,1.90393 -1.1225,3.44737 -2.50717,3.44737c-1.38467,0 -2.50718,-1.54344 -2.50718,-3.44737c0,-1.90393 1.12251,-3.44737 2.50718,-3.44737c1.38467,0 2.50717,1.54344 2.50717,3.44737z" fill="#ffffff" stroke="#000000" stroke-width="2" stroke-linecap="butt"/><path d="M252.02099,247.38045c0,1.90393 -0.56125,3.44737 -1.25359,3.44737c-0.69234,0 -1.25358,-1.54344 -1.25358,-3.44737c0,-1.90393 0.56124,-3.44737 1.25358,-3.44737c0.69234,0 1.25359,1.54344 1.25359,3.44737z" fill="#ffffff" stroke="#000000" stroke-width="2" stroke-linecap="butt"/><path d="M238.8583,266.81108c0,1.55776 -0.42094,2.82058 -0.94019,2.82058c-0.51925,0 -0.9402,-1.26282 -0.9402,-2.82058c0,-1.55776 0.42094,-2.82058 0.9402,-2.82058c0.51925,0 0.94019,1.26282 0.94019,2.82058z" fill="#ffffff" stroke="#000000" stroke-width="2" stroke-linecap="butt"/><path d="M257.66214,226.38283c0,1.0385 -1.96438,1.88038 -4.38757,1.88038c-2.42318,0 -4.38756,-0.84188 -4.38756,-1.88038c0,-1.0385 1.96438,-1.88039 4.38756,-1.88039c2.42318,0 4.38757,0.84188 4.38757,1.88039z" fill="#ffffff" stroke="#000000" stroke-width="2" stroke-linecap="butt"/><path d="M231.33677,201.31105c0,2.42318 -1.68375,4.38756 -3.76077,4.38756c-2.07701,0 -3.76077,-1.96438 -3.76077,-4.38756c0,-2.42318 1.68375,-4.38756 3.76077,-4.38756c2.07701,0 3.76077,1.96438 3.76077,4.38756z" fill="#ffffff" stroke="#000000" stroke-width="2" stroke-linecap="butt"/></g></g></svg>