<svg version="1.1" xmlns="http://www.w3.org/2000/svg" xmlns:xlink="http://www.w3.org/1999/xlink" width="97.06982" height="258.30819" viewBox="0,0,97.06982,258.30819"><g transform="translate(-188.52119,-48.30432)"><g data-paper-data="{&quot;isPaintingLayer&quot;:true}" fill-rule="nonzero" stroke-linejoin="miter" stroke-miterlimit="10" stroke-dasharray="" stroke-dashoffset="0" style="mix-blend-mode: normal"><path d="M194.40899,306.61251v-255.72461h91.18203v255.72461z" fill-opacity="0.01" fill="#000000" stroke="none" stroke-width="0" stroke-linecap="butt"/><path d="M201.03041,304.36965c0,0 -0.63536,-95.31554 -0.79335,-119.17692c-0.05451,-8.23309 8.18688,-37.12416 40.20201,-37.28555c31.60235,-0.15931 39.85672,29.77811 39.84884,37.26094c-0.07659,46.69921 0.65429,119.15113 0.65429,119.15113l-10.49667,0.09709l-0.15882,-115.97674c0,0 0.07549,-3.12989 -2.81625,-3.18528c-3.43441,-0.06578 -2.94538,3.14637 -2.94538,3.14637l0.20548,116.00384l-48.21366,0.07293l-0.30539,-116.37056c0,0 0.27949,-2.94781 -2.8856,-2.9634c-3.11083,-0.0153 -2.81569,2.9377 -2.81569,2.9377l0.35311,116.20263z" fill="#ffffff" stroke="#000000" stroke-width="2" stroke-linecap="butt"/><path d="M193.70186,97.89314c0,0 6.16329,-5.98033 6.29161,-6.85461c0.05416,-0.369 -2.11307,-3.21455 -2.99783,-5.91591c-0.89813,-2.74218 -0.50995,-5.35949 0.09974,-8.29493c0.31678,-1.52517 -9.22989,-4.96071 -7.59299,-5.7864c0.70723,-0.35675 8.44336,1.18599 8.75823,-0.85665c0.30993,-2.01053 5.53116,1.34541 5.82822,0.62148c1.22825,-2.99321 -6.17883,-12.77926 -4.16036,-15.67191c1.16501,-1.66956 6.05917,0.97041 9.76448,1.14181c4.09392,0.18938 7.07677,-2.0335 9.55501,-3.01612c4.68397,-1.85719 9.93565,-3.94027 16.71325,-4.20558c8.38024,-0.17322 14.98899,0.97688 20.21269,3.00522c1.95335,0.75848 8.20134,-3.41849 10.05507,-2.43767c2.13161,1.12786 -0.18132,7.44561 1.21465,8.80131c2.94441,2.85948 9.93726,6.14708 11.28865,9.53074c1.72413,4.31693 -3.18536,4.12107 -3.93332,8.06123c-0.53791,2.83362 5.97004,6.52263 6.82286,9.85386c0.64176,2.50682 -4.42551,4.97979 -4.12971,5.79208c3.44981,9.47344 6.15664,17.57192 6.15664,17.57192c0,0 -2.76715,-2.07378 -4.0797,-3.16491c-1.2242,-1.01768 -3.80143,-3.1769 -3.80143,-3.1769c0,0 5.4402,8.2251 5.32634,16.23468c-0.02867,2.01699 -3.65731,2.56262 -4.01542,4.66458c-0.53102,3.25435 0.38231,14.08805 -0.72387,16.69896c-2.14829,5.07059 -6.57395,0.69651 -6.57395,0.69651l-1.15522,-2.37052c0,0 -1.02266,2.21964 -2.16005,3.36564c-1.1374,1.14599 -3.43873,2.94148 -3.43873,2.94148l-0.09205,-3.74077c0,0 -7.0601,11.12671 -24.35066,10.97885c-16.30625,-0.25799 -26.07151,-10.78058 -26.07151,-10.78058l-0.1162,2.68105c0,0 -3.89477,-3.32526 -6.18145,-9.80336c-0.69744,-1.97584 -4.71772,-2.58282 -5.15397,-4.12928c-1.26853,-4.49678 1.91451,-8.23481 1.91451,-8.23481c0,0 -2.33908,1.91791 -5.71704,2.80179c-4.23278,1.10756 -6.94665,0.34867 -6.94665,0.34867c0,0 3.60795,-2.74399 5.58396,-4.81697c1.76007,-1.84645 2.64658,-3.41056 2.64658,-3.41056c0,0 -2.10758,1.09541 -4.23277,1.63392c-2.21739,0.56189 -4.03008,0.53617 -4.03008,0.53617c0,0 4.97492,-5.087 7.03074,-10.98163c1.94102,-5.56548 2.09972,-11.06547 2.09972,-11.06547c0,0 -1.36165,0.66816 -3.33013,0.80298c-1.24776,0.08547 -2.37785,-0.04938 -2.37785,-0.04938z" fill="#505050" stroke="#000000" stroke-width="1.5" stroke-linecap="butt"/><path d="M210.48775,109.32653c-0.57709,-7.36522 0.335,-17.32381 0.335,-17.32381c0,0 3.41059,-0.04165 13.91429,-3.17528c8.0696,-2.40747 20.54731,-9.58087 20.54731,-9.58087c0,0 -2.16005,3.03469 -3.40781,4.50418c-1.32651,1.56223 -3.99292,4.60801 -3.99292,4.60801c0,0 7.838,-1.68407 14.67476,-4.77599c8.56837,-3.57065 10.59252,-6.11284 12.95042,-4.63803c2.7829,1.74063 1.03006,23.41154 0.71846,29.02432c-0.42163,5.72518 -2.53327,9.59346 -3.15031,12.64412c-0.61704,3.05066 -0.4096,6.1972 -2.20622,16.19803c-1.12121,6.24122 -4.16183,9.01276 -10.01942,14.80553c-5.85759,5.79278 -9.05378,9.34408 -13.01359,9.41375c-3.81077,0.06705 -8.93565,-5.15054 -13.93542,-10.48493c-5.32393,-5.68026 -8.87489,-8.56081 -9.71551,-15.2892c-0.75707,-6.05962 -0.77653,-10.00634 -1.12266,-15.39887c-0.25298,-3.94125 -2.26119,-6.50866 -2.57636,-10.53095z" fill="#ffffff" stroke="#000000" stroke-width="1.5" stroke-linecap="butt"/><path d="M238.1199,139.04409c-1.03376,0 -3.5381,-3.2926 -3.7867,-5.41665c-0.22243,-1.90044 1.31512,-3.86578 3.7867,-3.86578c2.47159,0 4.2021,0.49561 4.02999,4.22988c-0.14607,3.16916 -1.55841,5.05256 -4.02999,5.05256z" fill="#ffffff" stroke="#000000" stroke-width="1.15" stroke-linecap="butt"/><path d="M212.1874,119.54966c0,0 -4.93211,-3.55177 -6.16417,-9.06361c-1.29636,-5.79953 -1.46118,-9.82887 0.48013,-10.09056c1.94131,-0.26171 2.70321,2.40038 3.73262,8.43817c1.0294,6.03779 1.95143,10.71601 1.95143,10.71601z" data-paper-data="{&quot;index&quot;:null}" fill="#ffffff" stroke="#000000" stroke-width="1" stroke-linecap="butt"/><path d="M211.9848,115.56314c0,0 -3.56385,-2.95224 -4.31816,-8.53403c-0.42079,-3.11371 2.15675,-2.30267 2.15675,-2.30267" fill="none" stroke="#000000" stroke-width="0.25" stroke-linecap="round"/><path d="M266.42056,108.83366c1.0294,-6.03779 1.7913,-8.69987 3.73262,-8.43817c1.94131,0.2617 1.77649,4.29103 0.48013,10.09056c-1.23206,5.51185 -6.16417,9.06361 -6.16417,9.06361c0,0 0.92203,-4.67823 1.95143,-10.71601z" data-paper-data="{&quot;index&quot;:null}" fill="#ffffff" stroke="#000000" stroke-width="1" stroke-linecap="butt"/><path d="M266.83313,104.72645c0,0 2.57754,-0.81105 2.15675,2.30267c-0.75431,5.58179 -4.31816,8.53403 -4.31816,8.53403" data-paper-data="{&quot;index&quot;:null}" fill="none" stroke="#000000" stroke-width="0.25" stroke-linecap="round"/><path d="M206.90661,133.1153l10.11383,-19.41821l1.36372,7.21826l-10.11383,19.41821z" fill="#000000" stroke="none" stroke-width="0" stroke-linecap="butt"/><path d="M217.26765,202.48516l-1.54118,-45.13531c0,0 3.2343,-5.61886 6.57696,-5.91158c1.2987,-0.11373 2.73007,3.49105 4.20118,3.99609c4.42376,1.5187 8.21119,8.42639 12.83549,10.08784c6.34588,2.27999 9.7288,3.73379 12.71427,4.9611c3.88549,1.59731 12.98976,4.76503 12.98976,4.76503c0,0 0.0665,1.6755 -0.11059,5.84836c-0.2043,4.81411 -1.04529,21.38847 -1.04529,21.38847c0,0 -37.30022,59.53192 -45.85001,59.53192c-5.01782,0 -0.77059,-59.53192 -0.77059,-59.53192z" fill="#000000" stroke="#970000" stroke-width="1.5" stroke-linecap="butt"/><path d="M252.11052,219.49756c-0.70711,0.71409 -1.41421,0 -1.41421,0l-0.09169,-0.29612c-2.97458,-0.75098 -5.48726,-1.93579 -8.22783,-3.14582c-1.49112,-0.65837 -2.77431,-2.30629 -4.33534,-2.76577c-1.19831,-0.35272 -3.15766,0.04333 -4.43846,0.04333c-2.48096,-0.07592 -3.09875,1.27357 -4.57739,2.79386c-2.90829,2.99022 -7.59269,7.7277 -12.10895,4.90109c0,0 -0.83205,-0.56018 -0.27735,-1.40044c0.5547,-0.84026 1.38675,-0.28009 1.38675,-0.28009c1.54451,1.18108 4.40534,0.08603 5.7646,-1.06422c3.17884,-2.69005 5.23766,-6.87788 9.81233,-6.96995c1.5116,0 3.57416,-0.36831 5.01802,0.04333c1.69092,0.48209 2.97666,2.18055 4.56488,2.85176c2.67212,1.1293 5.02684,2.30713 7.9038,3.03347l1.02083,0.82739c0,0 0.70711,0.71408 0,1.42817z" fill="#ec0000" stroke="none" stroke-width="0.5" stroke-linecap="butt"/><path d="M241.8344,167.94473c0,1.00987 -1,1.00987 -1,1.00987l0.16908,-0.10662c-2.84219,1.42258 -3.45259,2.95271 -4.79383,5.62642c-0.33371,1.33855 -0.08615,2.6362 -0.57027,3.96838c-2.43645,6.7045 -9.93322,9.61148 -16.49925,9.61148c0,0 -1,0 -1,-1.00987c0,-1.00987 1,-1.00987 1,-1.00987c5.86866,0 12.38606,-2.44623 14.65149,-8.36466c0.45935,-1.20005 0.23056,-2.63117 0.54226,-3.89618c1.52349,-3.1113 2.53211,-5.08222 5.77517,-6.73218l0.72535,-0.10661c0,0 1,0 1,1.00987z" fill="#ec0000" stroke="none" stroke-width="0.5" stroke-linecap="butt"/><path d="M236.82804,164.85506c0,1.00987 -1,1.00987 -1,1.00987h-0.8344c-2.88028,-0.02201 -5.80155,1.89068 -8.77803,2.23945c-2.99126,0.35051 -6.59419,-1.9564 -8.61698,-3.93962c0,0 -0.70711,-0.71409 0,-1.42818c0.70711,-0.71409 1.41421,0 1.41421,0c0.54282,0.57155 1.3232,0.85199 2.00787,1.2381c1.54262,0.86995 2.24703,1.87026 4.08237,2.12508c3.3599,0.4665 6.63072,-2.2346 9.89056,-2.25458h0.8344c0,0 1,0 1,1.00987z" fill="#ec0000" stroke="none" stroke-width="0.5" stroke-linecap="butt"/><path d="M255.74098,173.56225c0,0.47162 -0.21809,0.72299 -0.45058,0.85697c-0.5685,2.60028 -0.66195,5.16588 -0.66195,7.85023c0,5.35874 -0.32094,10.8663 2.11008,15.82073c1.06381,2.16806 3.07689,3.82749 4.39713,5.80838c0,0 0.5547,0.84026 -0.27735,1.40044c-0.83205,0.56018 -1.38675,-0.28009 -1.38675,-0.28009c-1.3445,-2.0606 -3.3859,-3.74871 -4.50308,-5.98845c-2.61575,-5.2441 -2.34003,-11.07226 -2.34003,-16.76102c0,-3.05961 0.12855,-5.98028 0.86425,-8.95212l1.24828,-0.76494c0,0 1,0 1,1.00987z" fill="#ec0000" stroke="none" stroke-width="0.5" stroke-linecap="butt"/><path d="M231.0998,213.84133c1,0 1,1.00987 1,1.00987l-0.02985,0.52581c-0.57558,2.32505 -1.47017,4.33812 -1.94143,6.71767c-2.03042,8.21028 -0.5319,17.45583 -0.5319,25.90002c0,0 0,1.00987 -1,1.00987c-1,0 -1,-1.00987 -1,-1.00987c0,-8.60052 -1.49251,-17.97766 0.58062,-26.34312c0.47331,-2.38989 1.37743,-4.44174 1.95242,-6.76443l-0.02986,-0.03595c0,0 0,-1.00987 1,-1.00987z" fill="#970000" stroke="none" stroke-width="0.5" stroke-linecap="butt"/><path d="M232.04324,181.92796c0.89443,-0.45162 1.34164,0.45162 1.34164,0.45162l0.35385,0.76845c0.55555,2.39667 1.14238,4.11669 1.14238,6.70511c0,4.85956 -2.27396,8.68794 -2.78618,13.30074c-0.28938,2.60596 0.00486,5.41899 0.00486,8.04593c0,0 0,1.00987 -1,1.00987c-1,0 -1,-1.00987 -1,-1.00987c0,-2.69667 -0.28734,-5.56795 0.00486,-8.24494c0.49911,-4.57245 2.77645,-8.32369 2.77645,-13.10172c0,-2.50913 -0.47982,-3.89039 -1.08267,-6.21524l-0.20242,-0.35505c0,0 -0.44721,-0.90325 0.44721,-1.35488z" fill="#970000" stroke="none" stroke-width="0.5" stroke-linecap="butt"/><path d="M227.20595,166.65396c1,0 1,1.00987 1,1.00987v1.12351c0,4.0033 1.82439,7.37316 4.00403,10.6749c0,0 0.5547,0.84026 -0.27735,1.40044c-0.83205,0.56018 -1.38675,-0.28009 -1.38675,-0.28009c-2.40008,-3.63566 -4.33992,-7.37854 -4.33992,-11.79525v-1.12351c0,0 0,-1.00987 1,-1.00987z" fill="#970000" stroke="none" stroke-width="0.5" stroke-linecap="butt"/><path d="M225.53873,154.1841c0.83205,-0.56018 1.38675,0.28009 1.38675,0.28009l0.63873,0.99426c0.77627,3.07057 0.64174,6.22906 0.64174,9.39662c0,0 0,1.00987 -1,1.00987c-1,0 -1,-1.00987 -1,-1.00987c0,-2.85489 0.19112,-5.80692 -0.47078,-8.57952l-0.4738,-0.691c0,0 -0.5547,-0.84026 0.27735,-1.40044z" fill="#970000" stroke="none" stroke-width="0.5" stroke-linecap="butt"/><path d="M257.39502,211.35212c-0.70711,0.71409 -1.41422,0 -1.41422,0l-0.12572,-0.1547c-6.36113,-4.32374 -10.90558,-9.91907 -12.4001,-17.59339c-0.02527,-7.8098 1.27069,-15.86143 3.08444,-23.37636c0,0 0.24253,-0.97973 1.21268,-0.73479c0.97015,0.24493 0.72761,1.22465 0.72761,1.22465c-1.84722,7.23651 -3.00635,15.15243 -3.03446,22.68748c1.4137,7.00389 5.63682,12.19758 11.51923,16.11188l0.43054,0.40706c0,0 0.70711,0.71409 0,1.42818z" fill="#970000" stroke="none" stroke-width="0.5" stroke-linecap="butt"/><g stroke="#000000"><path d="M252.77943,146.8646c0,2.92812 -6.7717,5.30182 -15.125,5.30182c-8.3533,0 -15.125,-2.3737 -15.125,-5.30182c0,-2.92812 6.7717,-5.30182 15.125,-5.30182c8.3533,0 15.125,2.3737 15.125,5.30182z" fill="#ffffff" stroke-width="1.4" stroke-linecap="butt"/><g><path d="M259.77056,145.34381c-0.01403,0.12166 -0.76747,0.71089 -5.82875,0.62576c-2.24534,-0.03777 -11.40569,-4.22066 -14.48394,-3.97404c-3.31795,0.26582 -15.64435,2.22112 -16.20272,2.10379c-4.94371,-1.03884 -7.52429,-1.55124 -7.53495,-1.6457c-0.01439,-0.12738 8.79861,-6.56175 15.28765,-6.51372c6.48904,0.04803 7.91995,3.88276 8.16759,3.90649c0,0 3.94733,-3.36292 7.42397,-2.9146c3.47663,0.44832 13.19064,8.2428 13.17114,8.41201z" fill="#ffffff" stroke-width="1.4" stroke-linecap="butt"/><path d="M239.45024,148.58484c6.31471,0.29398 12.31429,-2.14173 13.44369,-2.2613c2.05992,-0.21809 6.591,-1.21845 6.63526,-0.842c0.04328,0.36807 -9.03119,13.91131 -21.14808,13.45364c-13.76954,-0.44008 -22.86459,-16.16863 -22.82675,-16.33943c0.03784,-0.1708 3.0091,1.32965 8.10024,2.36653c0,0 9.48093,3.32858 15.79564,3.62256z" fill="#ffffff" stroke-width="1.9" stroke-linecap="butt"/><path d="M226.69188,144.40446l24.24457,0.68646" fill="none" stroke-width="0.5" stroke-linecap="round"/></g></g><path d="M217.86199,265.12819c0,-0.55773 0.44771,-1.00987 1,-1.00987c0.55229,0 1,0.45214 1,1.00987c0,0.55773 -0.44771,1.00987 -1,1.00987c-0.55229,0 -1,-0.45214 -1,-1.00987z" fill="#000000" stroke="none" stroke-width="0.5" stroke-linecap="butt"/><path d="M221.47772,262.88116c0,-0.55773 0.44771,-1.00987 1,-1.00987c0.55229,0 1,0.45214 1,1.00987c0,0.55773 -0.44771,1.00987 -1,1.00987c-0.55229,0 -1,-0.45214 -1,-1.00987z" fill="#000000" stroke="none" stroke-width="0.5" stroke-linecap="butt"/><path d="M225.37156,259.79154c0,-0.55773 0.44771,-1.00987 1,-1.00987c0.55229,0 1,0.45214 1,1.00987c0,0.55773 -0.44771,1.00987 -1,1.00987c-0.55229,0 -1,-0.45214 -1,-1.00987z" fill="#000000" stroke="none" stroke-width="0.5" stroke-linecap="butt"/><path d="M230.0998,255.57839c0,-0.55774 0.44771,-1.00987 1,-1.00987c0.55229,0 1,0.45213 1,1.00987c0,0.55773 -0.44771,1.00987 -1,1.00987c-0.55229,0 -1,-0.45214 -1,-1.00987z" fill="#000000" stroke="none" stroke-width="0.5" stroke-linecap="butt"/><path d="M234.27177,250.5226c0,-0.55774 0.44771,-1.00987 1,-1.00987c0.55229,0 1,0.45213 1,1.00987c0,0.55774 -0.44771,1.00987 -1,1.00987c-0.55229,0 -1,-0.45213 -1,-1.00987z" fill="#000000" stroke="none" stroke-width="0.5" stroke-linecap="butt"/><path d="M238.44374,245.4668c0,-0.55774 0.44771,-1.00987 1,-1.00987c0.55229,0 1,0.45213 1,1.00987c0,0.55774 -0.44771,1.00987 -1,1.00987c-0.55229,0 -1,-0.45213 -1,-1.00987z" fill="#000000" stroke="none" stroke-width="0.5" stroke-linecap="butt"/><path d="M241.78132,240.13015c0,-0.55774 0.44771,-1.00987 1,-1.00987c0.55229,0 1,0.45213 1,1.00987c0,0.55774 -0.44771,1.00987 -1,1.00987c-0.55229,0 -1,-0.45213 -1,-1.00987z" fill="#000000" stroke="none" stroke-width="0.5" stroke-linecap="butt"/><path d="M245.67517,234.5126c0,-0.55774 0.44771,-1.00987 1,-1.00987c0.55229,0 1,0.45213 1,1.00987c0,0.55774 -0.44771,1.00987 -1,1.00987c-0.55229,0 -1,-0.45213 -1,-1.00987z" fill="#000000" stroke="none" stroke-width="0.5" stroke-linecap="butt"/><path d="M249.01275,229.17594c0,-0.55774 0.44771,-1.00987 1,-1.00987c0.55229,0 1,0.45213 1,1.00987c0,0.55774 -0.44771,1.00987 -1,1.00987c-0.55229,0 -1,-0.45213 -1,-1.00987z" fill="#000000" stroke="none" stroke-width="0.5" stroke-linecap="butt"/><path d="M252.0722,225.24365c0,-0.55774 0.44771,-1.00987 1,-1.00987c0.55229,0 1,0.45213 1,1.00987c0,0.55774 -0.44771,1.00987 -1,1.00987c-0.55229,0 -1,-0.45213 -1,-1.00987z" fill="#000000" stroke="none" stroke-width="0.5" stroke-linecap="butt"/><path d="M255.96604,221.31137c0,-0.55774 0.44771,-1.00987 1,-1.00987c0.55228,0 1,0.45213 1,1.00987c0,0.55774 -0.44772,1.00987 -1,1.00987c-0.55228,0 -1,-0.45213 -1,-1.00987z" fill="#000000" stroke="none" stroke-width="0.5" stroke-linecap="butt"/><path d="M259.02548,216.25559c0,-0.55774 0.44772,-1.00987 1,-1.00987c0.55228,0 1,0.45213 1,1.00987c0,0.55774 -0.44772,1.00987 -1,1.00987c-0.55228,0 -1,-0.45213 -1,-1.00987z" fill="#000000" stroke="none" stroke-width="0.5" stroke-linecap="butt"/><path d="M261.52867,210.91892c0,-0.55774 0.44772,-1.00987 1,-1.00987c0.55228,0 1,0.45213 1,1.00987c0,0.55774 -0.44772,1.00987 -1,1.00987c-0.55228,0 -1,-0.45213 -1,-1.00987z" fill="#000000" stroke="none" stroke-width="0.5" stroke-linecap="butt"/><path d="M266.53505,181.42682c0,-0.55774 0.44772,-1.00987 1,-1.00987c0.55228,0 1,0.45213 1,1.00987c0,0.55774 -0.44772,1.00987 -1,1.00987c-0.55228,0 -1,-0.45213 -1,-1.00987z" fill="#000000" stroke="none" stroke-width="0.5" stroke-linecap="butt"/><path d="M266.53505,176.37103c0,-0.55774 0.44772,-1.00987 1,-1.00987c0.55228,0 1,0.45213 1,1.00987c0,0.55774 -0.44772,1.00987 -1,1.00987c-0.55228,0 -1,-0.45213 -1,-1.00987z" fill="#000000" stroke="none" stroke-width="0.5" stroke-linecap="butt"/><path d="M263.19747,172.15787c0,-0.55774 0.44772,-1.00987 1,-1.00987c0.55228,0 1,0.45213 1,1.00987c0,0.55774 -0.44772,1.00987 -1,1.00987c-0.55228,0 -1,-0.45213 -1,-1.00987z" fill="#000000" stroke="none" stroke-width="0.5" stroke-linecap="butt"/><path d="M258.19109,169.34909c0,-0.55774 0.44772,-1.00987 1,-1.00987c0.55228,0 1,0.45213 1,1.00987c0,0.55774 -0.44772,1.00987 -1,1.00987c-0.55228,0 -1,-0.45213 -1,-1.00987z" fill="#000000" stroke="none" stroke-width="0.5" stroke-linecap="butt"/><path d="M251.51593,167.38295c0,-0.55774 0.44771,-1.00987 1,-1.00987c0.55229,0 1,0.45213 1,1.00987c0,0.55774 -0.44771,1.00987 -1,1.00987c-0.55229,0 -1,-0.45213 -1,-1.00987z" fill="#000000" stroke="none" stroke-width="0.5" stroke-linecap="butt"/><path d="M245.9533,165.13594c0,-0.55774 0.44771,-1.00987 1,-1.00987c0.55229,0 1,0.45213 1,1.00987c0,0.55774 -0.44771,1.00987 -1,1.00987c-0.55229,0 -1,-0.45213 -1,-1.00987z" fill="#000000" stroke="none" stroke-width="0.5" stroke-linecap="butt"/><path d="M214.24629,182.55033c0,-0.55774 0.44771,-1.00987 1,-1.00987c0.55229,0 1,0.45213 1,1.00987c0,0.55774 -0.44771,1.00987 -1,1.00987c-0.55229,0 -1,-0.45213 -1,-1.00987z" fill="#000000" stroke="none" stroke-width="0.5" stroke-linecap="butt"/><path d="M213.13375,177.77542c0,-0.55774 0.44771,-1.00987 1,-1.00987c0.55229,0 1,0.45213 1,1.00987c0,0.55774 -0.44771,1.00987 -1,1.00987c-0.55229,0 -1,-0.45213 -1,-1.00987z" fill="#000000" stroke="none" stroke-width="0.5" stroke-linecap="butt"/><path d="M212.85562,172.15787c0,-0.55774 0.44771,-1.00987 1,-1.00987c0.55229,0 1,0.45213 1,1.00987c0,0.55774 -0.44771,1.00987 -1,1.00987c-0.55229,0 -1,-0.45213 -1,-1.00987z" fill="#000000" stroke="none" stroke-width="0.5" stroke-linecap="butt"/><path d="M241.722,107.48603c0,0 0.1026,4.00895 0.00576,7.19697c-0.19174,6.31284 -1.08147,28.03473 -1.08147,28.03473l-2.98167,0.00873c0,0 -0.80294,-4.21393 -1.12322,-9.59356c-0.43353,-7.28181 -0.4495,-16.45404 -0.76344,-19.82608c-0.29758,-3.19637 -0.89593,-5.77094 -0.89593,-5.77094" fill="#ffffff" stroke="#000000" stroke-width="1.3" stroke-linecap="round"/><path d="M212.02124,165.97857c0,-0.55774 0.44771,-1.00987 1,-1.00987c0.55229,0 1,0.45213 1,1.00987c0,0.55774 -0.44771,1.00987 -1,1.00987c-0.55229,0 -1,-0.45213 -1,-1.00987z" fill="#000000" stroke="none" stroke-width="0.5" stroke-linecap="butt"/><path d="M212.02124,161.48454c0,-0.55774 0.44771,-1.00987 1,-1.00987c0.55229,0 1,0.45213 1,1.00987c0,0.55774 -0.44771,1.00987 -1,1.00987c-0.55229,0 -1,-0.45213 -1,-1.00987z" fill="#000000" stroke="none" stroke-width="0.5" stroke-linecap="butt"/><path d="M264.19747,276.96012c-0.14031,0 -0.26093,-0.01988 -0.36463,-0.05407c-0.01259,1.19651 -0.02603,2.38024 -0.02603,3.53822c0,5.89841 0,11.79684 0,17.69526c0,0.47791 0.09389,1.82465 -0.00396,2.96038c2.45772,1.81729 0.05575,2.23967 -1.15199,2.81684l-0.12218,-0.03957v0.04713h-1.11253c-0.37473,0 -0.70132,-0.20816 -0.87258,-0.51623c-2.19792,0.24831 -4.40208,0.23535 -6.63697,0.23535c-8.57925,0 -17.07405,0.86615 -25.68665,0.83772c-2.33309,-0.47123 -4.75635,-0.27597 -7.13289,-0.27597c-0.48711,0 -2.97546,0.02968 -3.25317,-0.11949c-1.26406,-0.67897 -1.06578,-1.75397 -1.08441,-2.85652c-0.05533,-3.27484 0,-6.55531 0,-9.8307c0,0 0,-0.2891 0.15317,-0.55793c-0.05806,-0.09927 -0.10458,-0.22026 -0.13374,-0.36753c-0.19611,-0.99026 0.78446,-1.18832 0.78446,-1.18832c3.21148,-0.63781 6.7614,-0.59892 9.88432,-1.65021c4.12577,-1.38888 7.05824,-5.21484 9.21413,-8.85376c5.14505,-7.79611 11.87387,-16.82906 20.36857,-21.11833c1.55002,-1.01783 3.62607,-1.90604 5.47699,-2.45857c0.12795,-0.24622 0.3778,-0.48662 0.86571,-0.48662c0.47376,0 0.72307,0.22667 0.85427,0.46523c0.25641,0.18284 0.42386,0.48443 0.42386,0.82552v1.40439h-0.2819c0.23337,1.70134 0.09762,3.27387 0.27704,5.23716c0.37273,4.07848 0.56113,8.04091 0.56113,12.17723v1.12351c0,0 0,1.00987 -1,1.00987z" fill="#000000" stroke="none" stroke-width="0.5" stroke-linecap="butt"/><path d="M209.79271,197.52489c0.89443,-0.45162 1.34164,0.45162 1.34164,0.45162l0.35385,0.76845c0.45134,1.82316 0.3005,3.04245 0.3005,4.86235c-1.88082,7.59752 -1.38316,16.17665 -1.38316,24.03205c0,3.54066 0.39813,6.7999 0.8269,10.26907c0.57501,4.65242 0.0075,9.75672 0.0075,14.44812c0,7.2008 0.55436,15.44625 -0.73168,22.58382c0.00327,0 0.00655,0 0.00982,0l1,1.29075c0,0 0,1.00987 -1,1.00987c-0.34734,0 -0.57404,-0.12184 -0.722,-0.28088c-3.09691,0 -6.19383,0 -9.29074,0c0,0 -1,0 -1,-1.00987c0,-0.35678 0.1248,-0.58749 0.28624,-0.73671c-0.00811,-0.06515 -0.00811,-0.10592 -0.00811,-0.10592v-0.56175c0.03372,-8.47294 1.11252,-17.10079 1.11252,-25.55983c0,-8.55993 -1.66879,-16.69069 -1.66879,-25.27894c0.01364,-2.78089 0.53284,-5.48544 0.83926,-8.24495c0.55215,-4.97238 -0.00487,-10.33959 -0.00487,-15.34874c0,0 0,-0.41854 0.26681,-0.71672c-0.09701,-0.59344 0.45663,-0.96617 0.45663,-0.96617c2.22254,-1.39103 5.7432,-0.73136 8.34238,-0.73136h0.27814c0,0 0.04485,0 0.11554,0.00958c0.0726,-0.0664 0.16205,-0.12852 0.27164,-0.18385z" fill="#000000" stroke="none" stroke-width="0.5" stroke-linecap="butt"/><path d="M206.34608,274.54585c0,0 -0.87146,-2.83972 -0.25735,-5.2593c0.44709,-1.76154 2.59658,-2.77237 1.96159,-4.88869c-0.51816,-1.72695 -6.74445,-2.20351 -6.84491,-4.14022c-0.10069,-1.94123 3.53618,-4.40896 4.29799,-6.33157c1.064,-2.68526 -0.57176,-4.84124 -0.13353,-7.73289c0.44226,-2.9182 3.91847,-3.17184 3.7177,-6.17354c-0.15704,-2.34785 -8.04739,-3.02641 -8.07743,-5.36497c-0.03153,-2.45402 4.1909,-4.82742 5.1715,-7.12569c1.18805,-2.7845 -0.82092,-5.45871 -0.81118,-8.03238c0.00954,-2.51905 4.42254,-3.19949 4.3276,-5.34c-0.09866,-2.22436 -8.22764,-3.37315 -8.24626,-5.05326c-0.01976,-1.78245 4.13631,-2.93676 4.12528,-3.93175c-0.03376,-3.04564 -0.06541,-5.90083 -0.06541,-5.90083" fill="none" stroke="#ffffff" stroke-width="1.5" stroke-linecap="round"/><path d="M270.48015,93.10981c0,17.4793 -14.45221,31.64909 -32.27992,31.64909c-17.82771,0 -32.27992,-14.16977 -32.27992,-31.64909c0,-17.4793 14.45221,-31.64909 32.27992,-31.64909c17.82771,0 32.27992,14.16977 32.27992,31.64909z" fill="#ec0000" stroke="#000000" stroke-width="5.5" stroke-linecap="butt"/><path d="M220.90253,107.93048l18.40204,-32.72555l17.43023,31.70689z" fill="none" stroke="#ffffff" stroke-width="3" stroke-linecap="round"/><path d="M239.46055,83.66856v12.61583" fill="none" stroke="#ffffff" stroke-width="3" stroke-linecap="round"/><path d="M239.97045,102.46358c0,0.42658 -0.22829,0.7724 -0.5099,0.7724c-0.28161,0 -0.5099,-0.34581 -0.5099,-0.7724c0,-0.42658 0.22829,-0.7724 0.5099,-0.7724c0.28161,0 0.5099,0.34581 0.5099,0.7724z" fill="none" stroke="#ffffff" stroke-width="3" stroke-linecap="butt"/></g></g></svg>