<svg version="1.1" xmlns="http://www.w3.org/2000/svg" xmlns:xlink="http://www.w3.org/1999/xlink" width="40.19044" height="40.19044" viewBox="0,0,40.19044,40.19044"><g transform="translate(-219.90478,-159.90478)"><g data-paper-data="{&quot;isPaintingLayer&quot;:true}" stroke-width="2" stroke-linecap="round" stroke-miterlimit="10" stroke-dasharray="" stroke-dashoffset="0" style="mix-blend-mode: normal"><path d="M259.09522,180c0,10.54601 -8.54924,19.09522 -19.09522,19.09522c-10.54601,0 -19.09522,-8.54922 -19.09522,-19.09522c0,-10.54601 8.54922,-19.09522 19.09522,-19.09522c10.54601,0 19.09522,8.54922 19.09522,19.09522" fill="#000000" fill-rule="evenodd" stroke="#ffffff" stroke-linejoin="round"/><path d="M246.57147,173.87162c0,0 -1.16957,0.63064 -2.82958,0.29347c-1.39377,-0.28309 -3.20703,-1.54347 -4.24186,-1.54347c-2.10091,0 -6.07142,1.25 -6.07142,1.25" fill="none" fill-rule="nonzero" stroke="#ff0000" stroke-linejoin="miter"/><path d="M233.42861,180.00003c0,0 2.24635,-1.625 4.07142,-1.625c2.39768,0 9.07144,1.625 9.07144,1.625" fill="none" fill-rule="nonzero" stroke="#ff0000" stroke-linejoin="miter"/><path d="M246.57147,186.12844c0,0 -1.1418,-0.56948 -2.66738,-0.49904c-0.87432,0.04037 -1.8747,0.87853 -2.85845,0.66272c-1.39635,-0.30632 -2.85076,-2.16369 -3.67061,-2.16369c-1.79355,0 -3.94642,2 -3.94642,2" fill="none" fill-rule="nonzero" stroke="#ff0000" stroke-linejoin="miter"/></g></g></svg>