<svg version="1.1" xmlns="http://www.w3.org/2000/svg" xmlns:xlink="http://www.w3.org/1999/xlink" width="96.34991" height="251.54638" viewBox="0,0,96.34991,251.54638"><g transform="translate(-189.66095,-53.38084)"><g data-paper-data="{&quot;isPaintingLayer&quot;:true}" fill-rule="nonzero" stroke-linejoin="miter" stroke-miterlimit="10" stroke-dasharray="" stroke-dashoffset="0" style="mix-blend-mode: normal"><path d="M202.33267,301.83808c0,0 -0.63536,-94.38387 -0.79335,-118.01201c-0.05451,-8.15261 8.18688,-36.76129 40.20201,-36.9211c31.60235,-0.15775 39.85672,29.48704 39.84884,36.89673c-0.07659,46.24274 0.65429,117.98648 0.65429,117.98648l-10.49667,0.09614l-0.15882,-114.84311c0,0 0.07549,-3.0993 -2.81625,-3.15415c-3.43441,-0.06514 -2.94538,3.11562 -2.94538,3.11562l0.20548,114.86995l-48.21366,0.07222l-0.30539,-115.23309c0,0 0.27949,-2.919 -2.8856,-2.93443c-3.11083,-0.01515 -2.81569,2.90899 -2.81569,2.90899l0.35311,115.0668z" fill="#030205" stroke="#000000" stroke-width="2" stroke-linecap="butt"/><path d="M256.1425,200.33376c-0.57113,0 -1.03411,-0.46299 -1.03411,-1.03411c0,-0.57113 0.46299,-1.03413 1.03411,-1.03413c0.57113,0 1.03411,0.463 1.03411,1.03413c0,0.57113 -0.46299,1.03411 -1.03411,1.03411z" fill="#000000" stroke="none" stroke-width="1.5" stroke-linecap="butt"/><path d="M250.88263,204.56935c-4.4635,-0.31439 -6.55245,-1.79392 -6.16985,-2.58011c0.11788,-0.24224 2.84645,1.06355 6.97038,1.3048c6.40897,0.37493 8.51033,-0.63173 8.51033,-0.63173v1.34616c0,0 -2.4135,1.04672 -9.31086,0.56089z" fill="#000000" stroke="#000000" stroke-width="0" stroke-linecap="butt"/><path d="M223.06988,199.29965c0,-0.57113 0.46299,-1.03413 1.03411,-1.03413c0.57113,0 1.03413,0.463 1.03413,1.03413c0,0.57113 -0.463,1.03411 -1.03413,1.03411c-0.57113,0 -1.03411,-0.46299 -1.03411,-1.03411z" fill="#000000" stroke="none" stroke-width="1.5" stroke-linecap="butt"/><path d="M229.36386,204.56935c-6.89736,0.48585 -9.31086,-0.56089 -9.31086,-0.56089v-1.34616c0,0 2.10136,1.00666 8.51033,0.63173c4.12393,-0.24126 6.85251,-1.54704 6.97039,-1.3048c0.3826,0.78618 -1.70634,2.26571 -6.16985,2.58011z" fill="#000000" stroke="#000000" stroke-width="0" stroke-linecap="butt"/><path d="M240.64432,261.12113c-0.81895,0 -1.48284,-0.66389 -1.48284,-1.48284c0,-0.81895 0.66389,-1.48284 1.48284,-1.48284c0.81895,0 1.48284,0.66389 1.48284,1.48284c0,0.81895 -0.66389,1.48284 -1.48284,1.48284z" data-paper-data="{&quot;index&quot;:null}" fill="#000000" stroke="none" stroke-width="1.5" stroke-linecap="butt"/><path d="M216.58107,303.92721v-119.20147c0,0 0.75721,-9.73105 0.75721,-14.63937c0,-4.498 -0.75721,-13.6872 -0.75721,-13.6872c0,0 2.67319,-2.35297 4.6557,-3.74807c1.98251,-1.3951 5.17197,-2.80371 5.17197,-2.80371c0,0 -1.25642,36.83493 13.9047,36.76458c15.43477,-0.07162 14.48636,-36.76458 14.48636,-36.76458c0,0 3.91276,1.51959 6.16585,2.94655c2.25309,1.42695 4.75379,3.60523 4.75379,3.60523c0,0 -0.75721,9.42463 -0.75721,14.19201c0,4.84193 0.75721,14.63937 0.75721,14.63937v118.69667z" fill="#ffffff" stroke="#000000" stroke-width="2" stroke-linecap="butt"/><path d="M246.40355,253.47457c-0.58512,2.43056 -3.01568,1.84544 -3.01568,1.84544l-2.77319,-0.6676c0,0 -2.43056,-0.58512 -1.84544,-3.01568c0.58512,-2.43056 3.01568,-1.84544 3.01568,-1.84544l2.77319,0.6676c0,0 2.43056,0.58512 1.84544,3.01568z" fill="#ffffff" stroke="none" stroke-width="0.5" stroke-linecap="butt"/><g stroke="none" stroke-width="0"><path d="M193.08343,101.75924c0,0 6.16329,-5.92187 6.29161,-6.78761c0.33654,-2.27063 -0.16776,-40.17317 35.96775,-41.57382c44.63633,-0.91362 39.01489,35.34872 41.53088,42.1903c3.44981,9.38084 6.15664,17.40016 6.15664,17.40016c0,0 -2.76715,-2.05351 -4.0797,-3.13397c-1.2242,-1.00773 -3.80143,-3.14585 -3.80143,-3.14585c0,0 3.09111,10.3481 1.31092,20.69498c-1.5623,9.48098 -7.29782,17.22543 -7.29782,17.22543l-1.15522,-2.34735c0,0 -1.02266,2.19794 -2.16005,3.33274c-1.1374,1.13479 -3.43873,2.91273 -3.43873,2.91273l-0.09205,-3.70421c0,0 -7.0601,11.01795 -24.35066,10.87154c-16.30625,-0.25547 -26.07151,-10.6752 -26.07151,-10.6752l-0.1162,2.65484c0,0 -3.89477,-3.29276 -6.18145,-9.70754c-2.72545,-7.64567 -3.23946,-12.24324 -3.23946,-12.24324c0,0 -2.33908,1.89916 -5.71704,2.7744c-4.23278,1.09673 -6.94665,0.34526 -6.94665,0.34526c0,0 3.60795,-2.71717 5.58396,-4.76989c1.76007,-1.8284 2.64658,-3.37722 2.64658,-3.37722c0,0 -2.10758,1.0847 -4.23277,1.61795c-2.21739,0.5564 -4.03008,0.53093 -4.03008,0.53093c0,0 4.97492,-5.03728 7.03074,-10.87429c1.94102,-5.51108 2.09972,-10.95731 2.09972,-10.95731c0,0 -1.36165,0.66163 -3.33013,0.79513c-1.24776,0.08463 -2.37785,-0.0489 -2.37785,-0.0489z" fill="#000000" stroke-linecap="butt"/><path d="M209.86932,113.08086c-0.57709,-7.29323 0.335,-17.15448 0.335,-17.15448c0,0 3.41059,-0.04124 13.91429,-3.14424c8.0696,-2.38394 20.54731,-9.48722 20.54731,-9.48722c0,0 -2.16005,3.00503 -3.40781,4.46015c-1.32651,1.54696 -3.99292,4.56297 -3.99292,4.56297c0,0 7.838,-1.66761 14.67476,-4.72931c8.56837,-3.53575 10.59252,-6.05309 12.95042,-4.5927c2.7829,1.72362 1.03006,23.1827 0.71846,28.74062c-0.42163,5.66922 -2.53327,9.49969 -3.15031,12.52053c-0.61704,3.02084 -0.4096,6.13662 -2.20622,16.0397c-1.12121,6.18021 -4.16183,8.92466 -10.01942,14.66081c-5.85759,5.73616 -9.05378,9.25275 -13.01359,9.32173c-3.81077,0.06639 -8.93565,-5.1002 -13.93542,-10.38244c-5.32393,-5.62474 -8.87489,-8.47713 -9.71551,-15.13975c-0.75707,-6.00039 -0.77653,-9.90853 -1.12266,-15.24835c-0.25298,-3.90273 -2.26119,-6.44504 -2.57636,-10.42801z" fill="#000000" stroke-linecap="butt"/><path d="M257.93932,97.9605c0,0 1.52429,0.31807 4.2558,1.11029c2.49492,0.72361 4.44935,1.74403 4.44935,1.74403l0.1951,1.17035c0,0 -7.24963,-3.12997 -15.1158,-2.4706c-6.2896,0.52724 -9.96319,2.8124 -9.96319,2.8124l0.04575,-4.17683c0,0 3.12748,-1.70421 7.86366,-1.85557c4.90428,-0.15672 8.09084,0.59125 8.09084,0.59125z" data-paper-data="{&quot;index&quot;:null}" fill="#000000" stroke-linecap="butt"/><path d="M245.17519,140.94805c0.5704,0.21186 3.08357,1.39942 6.02385,2.59586c2.9637,1.20597 7.21362,2.29294 7.19412,2.4605c-0.02476,0.21265 -10.43477,0.22694 -13.67937,0.63224c-2.71902,0.33964 -6.68867,0.70564 -6.68867,0.70564c0,0 -7.10401,-1.16169 -13.27235,-2.44521c-4.94371,-1.02869 -10.39929,-1.66108 -10.40995,-1.75461c-0.01439,-0.12613 3.86835,-0.71071 6.82417,-1.39467c1.14585,-0.49661 5.43971,-1.48513 5.43971,-1.48513c0,0 4.95585,-0.27766 7.60826,0.579c2.84203,0.91791 2.83546,2.44556 3.0831,2.46906c0,0 1.18436,-1.74932 2.36886,-2.10461c1.18451,-0.35528 5.08219,-0.41633 5.50828,-0.25808z" fill="#000000" stroke-linecap="butt"/><path d="M237.50146,142.50795c-1.03376,0 -3.5381,-3.26042 -3.7867,-5.3637c-0.22243,-1.88186 1.31512,-3.82799 3.7867,-3.82799c2.47159,0 4.2021,0.49077 4.02999,4.18853c-0.14607,3.13818 -1.55841,5.00317 -4.02999,5.00317z" fill="#000000" stroke-linecap="butt"/><path d="M241.10357,112.41424c0,0 0.1026,3.96976 0.00576,7.12662c-0.19174,6.25113 -1.08147,27.7607 -1.08147,27.7607l-2.98167,0.00864c0,0 -0.80294,-4.17274 -1.12322,-9.49979c-0.43353,-7.21063 -0.4495,-16.29321 -0.76344,-19.63229c-0.29758,-3.16513 -0.89593,-5.71453 -0.89593,-5.71453" fill="#000000" stroke-linecap="round"/><path d="M211.56896,123.20408c0,0 -4.93211,-3.51705 -6.16417,-8.97502c-1.29636,-5.74284 -1.46118,-9.7328 0.48013,-9.99193c1.94131,-0.25915 2.70321,2.37692 3.73262,8.35569c1.0294,5.97877 1.95143,10.61127 1.95143,10.61127z" data-paper-data="{&quot;index&quot;:null}" fill="#000000" stroke-linecap="butt"/><path d="M211.36637,119.25652c0,0 -3.56385,-2.92338 -4.31816,-8.45061c-0.42079,-3.08327 2.15675,-2.28016 2.15675,-2.28016" fill="#000000" stroke-linecap="round"/><path d="M214.37977,112.60062c0.07093,-4.89188 4.83834,-8.93609 10.21137,-8.8582c5.37302,0.0779 9.02724,4.2484 8.95632,9.14029c-0.07093,4.89188 -4.12352,8.79439 -9.49655,8.7165c-5.37302,-0.0779 -9.74207,-4.1067 -9.67114,-8.99859z" fill="#ff0000" stroke-linecap="butt"/><path d="M218.8174,112.71856c0.03999,-2.75843 2.30855,-4.96213 5.06696,-4.92214c2.75843,0.03999 4.96213,2.30855 4.92214,5.06696c-0.03999,2.75843 -2.30854,4.96213 -5.06696,4.92214c-2.75843,-0.03999 -4.96213,-2.30855 -4.92214,-5.06696z" fill="#ff0000" stroke-linecap="butt"/><path d="M241.43604,112.60135c0.20353,-4.88817 4.45264,-8.85847 9.77048,-8.85847c5.31783,0 9.27453,3.96607 9.27453,8.85847c0,4.8924 -3.88585,9.07104 -9.69964,9.14188c-5.52997,0.06739 -9.55792,-4.03692 -9.34537,-9.14188z" fill="#ffffff" stroke-linecap="butt"/><path d="M246.08801,112.6031c0,-2.83828 2.30088,-5.13916 5.13916,-5.13916c2.83828,0 5.13915,2.30088 5.13915,5.13916c0,2.83828 -2.30086,5.13915 -5.13915,5.13915c-2.83828,0 -5.13916,-2.30087 -5.13916,-5.13915z" fill="#ffffff" stroke-linecap="butt"/><path d="M214.31133,112.06844c0,0 0.06357,-9.01512 10.60111,-8.8249c9.47101,0.16586 9.55554,9.40723 9.55554,9.40723z" fill="#000000" stroke-linecap="butt"/><path d="M241.0584,112.19934c0,0 -0.24686,-9.4582 11.19813,-9.1032c9.71427,0.33347 9.54677,9.65229 9.54677,9.65229z" fill="#000000" stroke-linecap="butt"/><path d="M217.84119,102.05678c0,0 3.36963,-1.819 8.03244,-2.28178c5.16698,-0.51283 7.76823,-0.06628 7.76823,-0.06628l0.29508,4.13747c0,0 -3.83554,-0.68065 -8.01795,-0.52113c-5.59346,0.21333 -6.64488,1.43293 -10.89774,1.89119c-3.64408,0.39266 -6.73723,0.15884 -6.73723,0.15884l-0.02589,-1.23155c0,0 3.59517,0.07398 5.23371,-0.06836c1.35239,-0.11749 3.9757,-0.93808 3.9757,-0.93808z" fill="#000000" stroke-linecap="butt"/><path d="M265.80212,112.59281c1.0294,-5.97877 1.7913,-8.61483 3.73262,-8.35569c1.94131,0.25914 1.77649,4.24909 0.48013,9.99193c-1.23206,5.45797 -6.16417,8.97502 -6.16417,8.97502c0,0 0.92203,-4.6325 1.95143,-10.61127z" data-paper-data="{&quot;index&quot;:null}" fill="#000000" stroke-linecap="butt"/><path d="M266.21469,108.52575c0,0 2.57754,-0.80312 2.15675,2.28016c-0.75431,5.52723 -4.31816,8.45061 -4.31816,8.45061" data-paper-data="{&quot;index&quot;:null}" fill="#000000" stroke-linecap="round"/></g><g stroke="none" stroke-width="0.5" stroke-linecap="butt"><path d="M266.32655,219.92136c-1.37488,0.34842 -2.10916,-0.3446 -2.4593,-0.88747c-1.01208,-0.35326 -2.02214,-0.70145 -3.03058,-1.03296c-8.40309,-2.76245 -17.30236,-5.03233 -25.27276,-8.76166c-0.24419,-0.11426 -0.48622,-0.23174 -0.72632,-0.35215c-0.44971,-0.01522 -0.78289,-0.13101 -0.78289,-0.13101l-1.45178,-0.53123c-2.75071,-1.44204 -5.41239,-3.01535 -8.15192,-4.47497c-1.66061,-0.88477 -20.64279,-15.53122 -21.76537,-17.14963c-2.85963,-4.12269 -1.61033,-9.66013 0.63738,-14.08446c0.0111,-0.29402 0.10224,-0.62217 0.31242,-0.98329c0.18881,-0.32441 0.40628,-0.55959 0.63615,-0.72707c0.33787,-0.56071 0.68674,-1.09402 1.03853,-1.59338c0,0 17.68452,11.96263 19.54135,13.09962c1.85683,1.13699 0.63257,2.86147 0.63257,2.86147c-0.0798,0.11141 -0.16031,0.22614 -0.24124,0.344c2.86839,1.59417 5.62091,3.36599 8.55601,4.83894c0.36628,0.18382 0.73334,0.36584 1.10115,0.54608c0.49617,-0.41709 1.32848,-0.7978 2.47052,-0.2313c1.09027,0.54082 1.25099,1.34381 1.17862,1.95052c12.27478,5.55617 25.32944,9.22746 38.71505,11.46695v-1.30155c0.66428,0.14703 1.35745,0.22487 2.0702,0.22487c0.92219,0 1.81161,-0.13031 2.64808,-0.37219l0.20972,0.94749l0.79819,-0.00169c0,0 1.72753,1.30096 0.32672,2.90535c-0.5532,0.6336 -1.15735,0.81409 -1.68594,0.80052c-0.09123,1.78985 -0.25169,3.57738 -0.46176,5.35776c-0.4551,2.94402 -0.30325,8.78378 -4.14164,10.16894c-1.1373,0.41042 -2.41414,-0.36408 -3.5878,-0.67386c-2.3724,-0.62617 -4.72724,-1.41825 -7.06952,-2.23406c-0.01449,0.00387 -0.0291,0.00768 -0.04385,0.01141zM234.34769,200.33382l-0.18495,2.83637c0,0 -0.01642,0.20269 -0.10741,0.47611c1.14824,0.69616 2.32417,1.35037 3.55351,1.92427c3.14094,1.46632 6.43312,2.6995 9.78207,3.8261c0.66222,-2.78581 1.54356,-5.11232 2.84438,-7.7199c-4.62094,-1.55063 -9.16291,-3.32018 -13.60598,-5.32921c-0.76181,1.32813 -1.52244,2.65685 -2.28162,3.98627zM261.48174,210.70748c0.2065,-1.62441 1.59773,-2.9155 2.39659,-4.37326c0,0 0.18783,-0.31823 0.54966,-0.6148c-3.35302,-0.79622 -6.67683,-1.69078 -9.96446,-2.69084c-1.36926,2.66676 -2.2107,4.85806 -2.84204,7.73675c3.55675,1.11494 7.13257,2.17056 10.61738,3.31429c-0.43352,-1.11408 -0.9028,-2.22622 -0.75712,-3.37214zM230.06748,199.20922c0.85845,-1.58053 1.72758,-3.15617 2.60916,-4.72574c-0.33142,-0.1629 -0.66226,-0.3272 -0.99248,-0.49291c-2.91577,-1.46323 -5.64814,-3.22123 -8.49471,-4.80594c-1.07855,2.43952 -18.18537,-8.49177 -17.44016,-6.20808c0.37944,0.06307 0.64056,0.18105 0.64056,0.18105c2.50916,1.13988 21.24967,16.30595 23.51406,17.80605zM270.9617,216.88097c0.19237,-2.50911 0.47425,-5.01255 0.80176,-7.50956c0,0 0.19355,-1.47401 1.59813,-1.77006c-1.81799,-0.3361 -3.62939,-0.69852 -5.43311,-1.08834c0.39301,0.88772 -0.14953,1.80693 -0.14953,1.80693c-0.62656,0.9573 -1.73826,1.75935 -1.87969,2.8719c-0.14143,1.11255 0.73859,2.13298 1.10788,3.19947l0.40842,1.39005c1.09731,0.36073 2.19461,0.72146 3.29192,1.08221c0.08876,0.02918 0.17768,0.05796 0.26674,0.08642zM276.17896,209.87148c-0.29786,2.26596 -0.57501,4.53523 -0.77422,6.8105l0.29423,1.51818c0.35252,-2.02354 0.74447,-4.0415 1.05747,-6.07063c0.15342,-1.28708 0.27831,-2.57834 0.36615,-3.87153c-0.58281,-0.09586 -1.16503,-0.19432 -1.74661,-0.29541c0.96578,0.66899 0.80298,1.90889 0.80298,1.90889z" fill="#000000"/><path d="M271.33491,217.9396c-0.08906,-0.02847 -0.17982,-0.05688 -0.26858,-0.08606c-1.0973,-0.36075 -2.22326,-0.72516 -3.32057,-1.08589l-0.41833,-1.3964c-0.36929,-1.06649 -1.26326,-2.12379 -1.12183,-3.23634c0.14143,-1.11255 1.27712,-1.94515 1.90368,-2.90245c0,0 0.54966,-0.92184 0.15665,-1.80956c1.80372,0.38982 3.65659,0.76016 5.47458,1.09626c-1.40459,0.29605 -1.5981,1.77009 -1.5981,1.77009c-0.32751,2.49701 -0.62761,5.0722 -0.81998,7.58131z" data-paper-data="{&quot;noHover&quot;:false,&quot;origItem&quot;:[&quot;Path&quot;,{&quot;applyMatrix&quot;:true,&quot;segments&quot;:[[[762.99524,343.50291],[0,0],[0.43246,-6.07367]],[[764.79768,325.32492],[-0.73628,6.04437],[0,0]],[[768.39044,321.04022],[-3.15765,0.71665],[-4.08702,-0.81358]],[[756.17628,318.40575],[4.05495,0.94362],[0.88353,2.14884]],[[755.84011,322.77969],[0,0],[-1.40858,2.31728]],[[751.61438,329.73155],[0.31795,-2.6931],[-0.31795,2.6931]],[[754.105,337.47634],[-0.83021,-2.5816],[0,0]],[[755.02318,340.84116],[0,0],[2.46686,0.8732]],[[762.42373,343.46081],[-2.46684,-0.87324],[0.19953,0.07063]],[[763.02339,343.67002],[-0.20022,-0.0689],[0,0]]],&quot;closed&quot;:true}]}" fill="#ffffff"/><path d="M262.61486,215.06275c-3.48481,-1.14373 -7.12803,-2.21866 -10.68478,-3.3336c0.63134,-2.87869 1.49162,-5.11982 2.86088,-7.78659c3.28763,1.00007 6.67444,1.91228 10.02746,2.70851c-0.36183,0.29656 -0.54862,0.61696 -0.54862,0.61696c-0.79886,1.45775 -2.19433,2.78748 -2.40083,4.41189c-0.14567,1.14592 0.31238,2.26874 0.74589,3.38283z" data-paper-data="{&quot;noHover&quot;:false,&quot;origItem&quot;:[&quot;Path&quot;,{&quot;applyMatrix&quot;:true,&quot;segments&quot;:[[[741.68336,328.55907],[-0.32749,2.77387],[0.46423,-3.93213]],[[747.07112,317.97295],[-1.79592,3.52871],[0,0]],[[748.3068,316.48474],[-0.81342,0.71788],[-7.53792,-1.92737]],[[725.90572,309.97116],[7.39091,2.42082],[-3.07824,6.4553]],[[719.51654,328.69909],[1.41931,-6.96829],[7.99593,2.69888]],[[743.38544,336.72181],[-7.83419,-2.76858],[-0.97459,-2.69681]]],&quot;closed&quot;:true}]}" fill="#ffffff"/><path d="M236.95213,197.26449c4.44307,2.00904 9.05644,3.80458 13.67738,5.35521c-1.30082,2.60757 -2.19947,4.97368 -2.86169,7.75949c-3.34895,-1.1266 -6.7052,-2.3706 -9.84615,-3.83691c-1.22934,-0.5739 -2.41206,-1.24616 -3.5603,-1.94231c0.09099,-0.27343 0.10721,-0.47869 0.10721,-0.47869l0.18742,-2.8517c0.75919,-1.32942 1.53433,-2.67696 2.29613,-4.00509z" data-paper-data="{&quot;noHover&quot;:false,&quot;origItem&quot;:[&quot;Path&quot;,{&quot;applyMatrix&quot;:true,&quot;segments&quot;:[[[680.68338,303.44809],[1.70673,-3.21805],[0,0]],[680.26759,310.31393],[[680.02613,311.46643],[0.20456,-0.66187],[2.58135,1.68514]],[[688.01476,316.12441],[-2.76367,-1.38922],[7.06115,3.54943]],[[710.00581,325.38603],[-7.52877,-2.72709],[1.48874,-6.74346]],[[716.40026,306.69889],[-2.92437,6.31201],[-10.38831,-3.75354]],[[685.81269,293.79876],[9.98846,4.86316],[-1.71262,3.21493]]],&quot;closed&quot;:true}]}" fill="#ffffff"/><path d="M230.27118,201.95124c-2.26439,-1.5001 -4.60249,-3.00092 -7.11165,-4.1408c0,0 -16.72267,-13.8082 -17.10211,-13.87127c-0.74521,-2.28369 16.37964,8.59969 17.45818,6.16017c2.84658,1.58471 5.64607,3.36682 8.56183,4.83006c0.33022,0.16572 0.66224,0.33577 0.99366,0.49867c-0.88158,1.56957 -1.7713,3.18507 -2.62975,4.7656z" data-paper-data="{&quot;noHover&quot;:false,&quot;origItem&quot;:[&quot;Path&quot;,{&quot;applyMatrix&quot;:true,&quot;segments&quot;:[[[671.06105,300.72582],[0,0],[1.92989,-3.8259]],[[676.92669,289.28647],[-1.98187,3.79939],[-0.74508,-0.39432]],[[674.69551,288.0933],[0.74237,0.40114],[-6.55493,-3.54198]],[[655.59856,276.45982],[6.39938,3.83602],[-2.42468,5.90521]],[[653.39566,294.5639],[-1.6753,-5.52801],[0.85301,0.15267]],[[654.83569,295.00215],[0,0],[5.64085,2.75925]],[[670.69331,304.97267],[-5.09056,-3.63123],[0,0]]],&quot;closed&quot;:true}]}" fill="#ffffff"/></g><g stroke="none" stroke-width="0.5" stroke-linecap="butt"><path d="M267.7432,243.73737c-1.43205,0.34842 -2.19686,-0.3446 -2.56156,-0.88747c-1.05417,-0.35326 -2.10623,-0.70145 -3.1566,-1.03296c-8.75251,-2.76245 -18.02181,-5.03233 -26.32363,-8.76166c-0.25434,-0.11426 -0.50644,-0.23174 -0.75652,-0.35215c-0.46841,-0.01522 -0.81544,-0.13101 -0.81544,-0.13101l-1.51215,-0.53123c-2.86509,-1.44204 -5.63745,-3.01535 -8.49089,-4.47497c-1.72967,-0.88477 -21.50114,-15.53122 -22.6704,-17.14963c-2.97853,-4.12269 -1.67729,-9.66013 0.66388,-14.08446c0.01156,-0.29402 0.10649,-0.62217 0.32541,-0.98329c0.19667,-0.32441 0.42317,-0.55959 0.6626,-0.72707c0.35192,-0.56071 0.7153,-1.09402 1.08171,-1.59338c0,0 18.41987,11.96263 20.35391,13.09962c1.93404,1.13699 0.65887,2.86147 0.65887,2.86147c-0.08312,0.11141 -0.16697,0.22614 -0.25127,0.344c2.98766,1.59417 5.85463,3.36599 8.91179,4.83894c0.38152,0.18382 0.76383,0.36584 1.14694,0.54608c0.5168,-0.41709 1.38371,-0.7978 2.57325,-0.2313c1.1356,0.54082 1.30301,1.34381 1.22763,1.95052c12.78518,5.55617 26.38267,9.22746 40.32488,11.46695v-1.30155c0.6919,0.14703 1.41389,0.22487 2.15628,0.22487c0.96054,0 1.88694,-0.13031 2.75819,-0.37219l0.21844,0.94749l0.83138,-0.00169c0,0 1.79937,1.30096 0.34031,2.90535c-0.57621,0.6336 -1.20548,0.81409 -1.75605,0.80052c-0.09503,1.78985 -0.26215,3.57738 -0.48096,5.35776c-0.47402,2.94402 -0.31586,8.78378 -4.31385,10.16894c-1.1846,0.41042 -2.51452,-0.36408 -3.73699,-0.67386c-2.47104,-0.62617 -4.9238,-1.41825 -7.36348,-2.23406c-0.01509,0.00387 -0.03032,0.00768 -0.04567,0.01141zM234.43462,224.14983l-0.19264,2.83637c0,0 -0.0171,0.20269 -0.11187,0.47611c1.19599,0.69616 2.42082,1.35037 3.70127,1.92427c3.27155,1.46632 6.70062,2.6995 10.18882,3.8261c0.68976,-2.78581 1.60775,-5.11232 2.96266,-7.7199c-4.81308,-1.55063 -9.54392,-3.32018 -14.17174,-5.32921c-0.79349,1.32813 -1.58575,2.65685 -2.3765,3.98627zM262.69694,234.52349c0.21509,-1.62441 1.66417,-2.9155 2.49624,-4.37326c0,0 0.19564,-0.31823 0.57251,-0.6148c-3.49244,-0.79622 -6.95447,-1.69078 -10.3788,-2.69084c-1.4262,2.66676 -2.30262,4.85806 -2.96021,7.73675c3.70465,1.11494 7.42915,2.17056 11.05886,3.31429c-0.45154,-1.11408 -0.94034,-2.22622 -0.78861,-3.37214zM229.97643,223.02523c0.89415,-1.58053 1.79942,-3.15617 2.71765,-4.72574c-0.34521,-0.1629 -0.6898,-0.3272 -1.03375,-0.49291c-3.03701,-1.46323 -5.883,-3.22123 -8.84794,-4.80594c-1.12339,2.43952 -18.94154,-8.49177 -18.16534,-6.20808c0.39521,0.06307 0.66719,0.18105 0.66719,0.18105c2.6135,1.13988 22.13326,16.30595 24.4918,17.80605zM272.57109,240.69698c0.20036,-2.50911 0.49397,-5.01255 0.8351,-7.50956c0,0 0.20159,-1.47401 1.66459,-1.77006c-1.89358,-0.3361 -3.7803,-0.69852 -5.65903,-1.08834c0.40935,0.88772 -0.15575,1.80693 -0.15575,1.80693c-0.65262,0.9573 -1.81054,1.75935 -1.95786,2.8719c-0.14731,1.11255 0.7693,2.13298 1.15395,3.19947l0.4254,1.39005c1.14294,0.36073 2.28587,0.72146 3.4288,1.08221c0.09245,0.02918 0.18506,0.05796 0.27783,0.08642zM278.00529,233.68749c-0.31024,2.26596 -0.59892,4.53523 -0.80641,6.8105l0.30646,1.51818c0.36718,-2.02354 0.77543,-4.0415 1.10144,-6.07063c0.1598,-1.28708 0.28988,-2.57834 0.38137,-3.87153c-0.60705,-0.09586 -1.21347,-0.19432 -1.81924,-0.29541c1.00594,0.66899 0.83637,1.90889 0.83637,1.90889z" fill="#000000"/><path d="M272.95981,241.75561c-0.09277,-0.02847 -0.1873,-0.05688 -0.27975,-0.08606c-1.14293,-0.36075 -2.3157,-0.72516 -3.45864,-1.08589l-0.43573,-1.3964c-0.38465,-1.06649 -1.31579,-2.12379 -1.16848,-3.23634c0.14731,-1.11255 1.33022,-1.94515 1.98284,-2.90245c0,0 0.57252,-0.92184 0.16316,-1.80956c1.87873,0.38982 3.80863,0.76016 5.70221,1.09626c-1.46299,0.29605 -1.66455,1.77009 -1.66455,1.77009c-0.34113,2.49701 -0.65371,5.0722 -0.85408,7.58131z" data-paper-data="{&quot;noHover&quot;:false,&quot;origItem&quot;:[&quot;Path&quot;,{&quot;applyMatrix&quot;:true,&quot;segments&quot;:[[[762.99524,343.50291],[0,0],[0.43246,-6.07367]],[[764.79768,325.32492],[-0.73628,6.04437],[0,0]],[[768.39044,321.04022],[-3.15765,0.71665],[-4.08702,-0.81358]],[[756.17628,318.40575],[4.05495,0.94362],[0.88353,2.14884]],[[755.84011,322.77969],[0,0],[-1.40858,2.31728]],[[751.61438,329.73155],[0.31795,-2.6931],[-0.31795,2.6931]],[[754.105,337.47634],[-0.83021,-2.5816],[0,0]],[[755.02318,340.84116],[0,0],[2.46686,0.8732]],[[762.42373,343.46081],[-2.46684,-0.87324],[0.19953,0.07063]],[[763.02339,343.67002],[-0.20022,-0.0689],[0,0]]],&quot;closed&quot;:true}]}" fill="#ffffff"/><path d="M263.87717,238.87876c-3.62971,-1.14373 -7.42442,-2.21866 -11.12907,-3.3336c0.65759,-2.87869 1.55364,-5.11982 2.97984,-7.78659c3.42433,1.00007 6.95197,1.91228 10.44441,2.70851c-0.37687,0.29656 -0.57143,0.61696 -0.57143,0.61696c-0.83208,1.45775 -2.28558,2.78748 -2.50066,4.41189c-0.15173,1.14592 0.32537,2.26874 0.77691,3.38283z" data-paper-data="{&quot;noHover&quot;:false,&quot;origItem&quot;:[&quot;Path&quot;,{&quot;applyMatrix&quot;:true,&quot;segments&quot;:[[[741.68336,328.55907],[-0.32749,2.77387],[0.46423,-3.93213]],[[747.07112,317.97295],[-1.79592,3.52871],[0,0]],[[748.3068,316.48474],[-0.81342,0.71788],[-7.53792,-1.92737]],[[725.90572,309.97116],[7.39091,2.42082],[-3.07824,6.4553]],[[719.51654,328.69909],[1.41931,-6.96829],[7.99593,2.69888]],[[743.38544,336.72181],[-7.83419,-2.76858],[-0.97459,-2.69681]]],&quot;closed&quot;:true}]}" fill="#ffffff"/><path d="M237.14735,221.0805c4.62782,2.00904 9.43302,3.80458 14.2461,5.35521c-1.35491,2.60757 -2.29093,4.97368 -2.98069,7.75949c-3.4882,-1.1266 -6.98402,-2.3706 -10.25557,-3.83691c-1.28045,-0.5739 -2.51235,-1.24616 -3.70834,-1.94231c0.09477,-0.27343 0.11166,-0.47869 0.11166,-0.47869l0.19521,-2.8517c0.79075,-1.32942 1.59812,-2.67696 2.39161,-4.00509z" data-paper-data="{&quot;noHover&quot;:false,&quot;origItem&quot;:[&quot;Path&quot;,{&quot;applyMatrix&quot;:true,&quot;segments&quot;:[[[680.68338,303.44809],[1.70673,-3.21805],[0,0]],[680.26759,310.31393],[[680.02613,311.46643],[0.20456,-0.66187],[2.58135,1.68514]],[[688.01476,316.12441],[-2.76367,-1.38922],[7.06115,3.54943]],[[710.00581,325.38603],[-7.52877,-2.72709],[1.48874,-6.74346]],[[716.40026,306.69889],[-2.92437,6.31201],[-10.38831,-3.75354]],[[685.81269,293.79876],[9.98846,4.86316],[-1.71262,3.21493]]],&quot;closed&quot;:true}]}" fill="#ffffff"/><path d="M230.1886,225.76725c-2.35854,-1.5001 -4.79386,-3.00092 -7.40736,-4.1408c0,0 -17.41802,-13.8082 -17.81323,-13.87127c-0.7762,-2.28369 17.06072,8.59969 18.18411,6.16017c2.96494,1.58471 5.88084,3.36682 8.91785,4.83006c0.34395,0.16572 0.68977,0.33577 1.03498,0.49867c-0.91823,1.56957 -1.84495,3.18507 -2.7391,4.7656z" data-paper-data="{&quot;noHover&quot;:false,&quot;origItem&quot;:[&quot;Path&quot;,{&quot;applyMatrix&quot;:true,&quot;segments&quot;:[[[671.06105,300.72582],[0,0],[1.92989,-3.8259]],[[676.92669,289.28647],[-1.98187,3.79939],[-0.74508,-0.39432]],[[674.69551,288.0933],[0.74237,0.40114],[-6.55493,-3.54198]],[[655.59856,276.45982],[6.39938,3.83602],[-2.42468,5.90521]],[[653.39566,294.5639],[-1.6753,-5.52801],[0.85301,0.15267]],[[654.83569,295.00215],[0,0],[5.64085,2.75925]],[[670.69331,304.97267],[-5.09056,-3.63123],[0,0]]],&quot;closed&quot;:true}]}" fill="#ffffff"/></g></g></g></svg>