<svg version="1.1" xmlns="http://www.w3.org/2000/svg" xmlns:xlink="http://www.w3.org/1999/xlink" width="105.47645" height="365.36018" viewBox="0,0,105.47645,365.36018"><defs><linearGradient x1="238.55794" y1="85.38273" x2="238.55794" y2="197.7192" gradientUnits="userSpaceOnUse" id="color-1"><stop offset="0" stop-color="#bfbfbf"/><stop offset="1" stop-color="#bfbfbf" stop-opacity="0"/></linearGradient><linearGradient x1="255.61052" y1="31.38227" x2="248.80529" y2="110.68436" gradientUnits="userSpaceOnUse" id="color-2"><stop offset="0" stop-color="#000000"/><stop offset="1" stop-color="#ffffff"/></linearGradient><linearGradient x1="239.75962" y1="91.59418" x2="231.63237" y2="162.92794" gradientUnits="userSpaceOnUse" id="color-3"><stop offset="0" stop-color="#d9d9d9"/><stop offset="1" stop-color="#e4e4e4"/></linearGradient><linearGradient x1="237.62872" y1="83.1515" x2="236.97954" y2="88.84939" gradientUnits="userSpaceOnUse" id="color-4"><stop offset="0" stop-color="#999999"/><stop offset="1" stop-color="#eaeaea"/></linearGradient><linearGradient x1="253.24564" y1="86.37798" x2="252.4127" y2="93.68884" gradientUnits="userSpaceOnUse" id="color-5"><stop offset="0" stop-color="#afafaf"/><stop offset="1" stop-color="#eaeaea"/></linearGradient><linearGradient x1="246.27014" y1="79.57071" x2="245.48423" y2="88.729" gradientUnits="userSpaceOnUse" id="color-6"><stop offset="0" stop-color="#999999"/><stop offset="1" stop-color="#e6e6e6"/></linearGradient><linearGradient x1="250.24426" y1="58.77755" x2="247.22845" y2="93.9212" gradientUnits="userSpaceOnUse" id="color-7"><stop offset="0" stop-color="#585858"/><stop offset="1" stop-color="#ffffff"/></linearGradient><linearGradient x1="239.04861" y1="91.14979" x2="239.04861" y2="117.64979" gradientUnits="userSpaceOnUse" id="color-8"><stop offset="0" stop-color="#000000"/><stop offset="1" stop-color="#ffffff"/></linearGradient><linearGradient x1="241.2676" y1="89.92076" x2="236.57962" y2="118.37881" gradientUnits="userSpaceOnUse" id="color-9"><stop offset="0" stop-color="#000000"/><stop offset="1" stop-color="#000000"/></linearGradient></defs><g transform="translate(-189.19501,-0.29005)"><g data-paper-data="{&quot;isPaintingLayer&quot;:true}" fill-rule="nonzero" stroke-linejoin="miter" stroke-miterlimit="10" stroke-dasharray="" stroke-dashoffset="0" style="mix-blend-mode: normal"><path d="M200.79849,160.43882c0.34077,0.00474 0.61054,0.13963 0.61054,0.13963l0.62185,0.34195c4.10575,3.41306 6.31707,9.04036 3.05422,13.87687c-1.11599,1.65422 -3.08434,2.57665 -4.8266,3.63995l-0.35767,0.53651c-0.22257,0.34463 -0.61005,0.57276 -1.05082,0.57276c-0.5623,0 -1.03788,-0.37128 -1.19497,-0.88206l-0.39089,-1.17266c-0.45718,-1.3885 -1.04238,-3.33715 -0.8462,-4.80633c0.17058,-1.27751 0.92827,-1.091 0.78711,-2.2767c-0.40703,-3.41879 0.7736,-6.16464 2.32692,-9.27127c0,0 0.42217,-0.84434 1.26651,-0.69864z" fill="#000000" stroke="none" stroke-width="0.5" stroke-linecap="butt"/><path d="M209.01636,44.19364c0,0 7.27449,-5.08747 7.58187,-5.99599c0.80618,-2.38287 8.27284,-43.46435 43.92574,-37.2728c43.86871,8.53082 30.75243,46.53291 31.77751,54.46541c1.40552,10.87666 2.36998,20.12305 2.36998,20.12305c0,0 -2.27639,-2.81 -3.33382,-4.2579c-0.98625,-1.35045 -3.05904,-4.21141 -3.05904,-4.21141c0,0 0.8514,11.84581 -3.06352,22.65152c-3.51988,9.91611 -10.75856,17.06505 -10.75856,17.06505l-0.6374,-2.78391c0,0 -1.46227,2.15798 -2.81354,3.14219c-1.35128,0.9842 -3.97653,2.41547 -3.97653,2.41547l0.68787,-4.02401c0,0 -9.22229,10.40525 -26.11042,6.55986c-15.90208,-3.75339 -23.26911,-17.09987 -23.26911,-17.09987l-0.67127,2.8452c0,0 -3.11952,-4.39013 -4.00984,-11.81235c-1.06115,-8.84642 -0.59855,-13.92616 -0.59855,-13.92616c0,0 -2.68766,1.55426 -6.17682,1.78009c-4.37213,0.28299 -6.86984,-1.1081 -6.86984,-1.1081c0,0 4.10105,-2.16798 6.46567,-3.96567c2.10622,-1.60123 3.29897,-3.08652 3.29897,-3.08652c0,0 -2.29008,0.72317 -4.48158,0.84644c-2.28657,0.12864 -4.05496,-0.28543 -4.05496,-0.28543c0,0 5.92589,-4.3846 9.16338,-10.25621c3.05672,-5.54376 4.35579,-11.39748 4.35579,-11.39748c0,0 -1.47133,0.42489 -3.42554,0.14943c-1.23871,-0.17458 -2.31647,-0.55993 -2.31647,-0.55993z" fill="#000000" stroke="none" stroke-width="1.5" stroke-linecap="butt"/><path d="M276.87361,303.62829c-1.25,0 -1.25,-1.25 -1.25,-1.25v-0.2c0,-1.52526 -0.13409,-3.00221 -0.34938,-4.45094c-0.43164,-1.40892 -0.54937,-3.25728 -0.92599,-4.40551c-0.19387,-0.59107 -0.2845,-1.13236 -0.33202,-1.65715c-0.61091,-2.53705 -1.24146,-5.07509 -1.58296,-7.73135c0,0 -0.00497,-0.03974 -0.00601,-0.10589c-0.09526,-0.00348 -0.1878,-0.01761 -0.27646,-0.04124c-1.24613,4.34904 -3.3193,8.41264 -6.51844,10.78547c-1.2439,0.92261 -2.71692,1.27974 -4.08038,1.96147c-2.29155,0.75878 -4.17048,0.89715 -5.64201,0.16195c-0.07975,0.64892 -0.14423,1.3021 -0.18876,1.96087c-0.30703,4.54102 1.34188,9.54688 -0.06173,13.91762c-0.55885,1.67654 -0.91692,2.6372 -2.0709,4.03006l-0.36203,0.03344l0.04236,0.12707l-0.42307,0.14102c0.05115,0.76351 0.10772,1.52265 0.17612,2.27505c0.37999,4.17987 0.06647,8.21771 2.19158,12.02153c3.276,5.86386 10.45892,8.58973 13.10285,14.70439c0.91572,2.1178 0.70557,4.06221 0.70557,6.26677c-0.6307,3.22645 -1.17708,9.13154 -3.72007,11.52142c-3.05081,2.86714 -9.00927,1.73224 -12.76776,1.73224c-12.20853,0 -24.70722,1.6281 -35.92199,-3.90126c-1.3533,-4.89135 -1.07801,-9.54752 -1.07801,-14.59874c0,-2.75747 -0.40616,-5.90352 0.71774,-8.52042c1.42411,-3.31591 4.56876,-5.69109 5.32737,-9.45235c0.4451,-2.2068 -0.04511,-5.29155 -0.04511,-7.52723c0,-3.04836 -0.00253,-6.09674 -0.00232,-9.14513c-2.39755,-1.17855 -4.652,-2.58426 -6.98736,-3.95996c-3.4773,-2.04837 -7.75989,-3.52418 -9.42051,-7.65259c-1.00142,-2.48959 -0.70031,-5.47437 -0.70031,-8.09061c0,-9.5765 1.60539,-19.07827 1.6,-28.6c-0.00106,-1.86523 -0.44108,-4.28383 0.46415,-5.99528c0.38205,-0.72233 0.55463,-1.94161 1.36638,-2.0353c0.88551,-0.10219 1.41167,1.08881 2.1175,1.63322c0.06934,0.19932 0.13735,0.39905 0.20411,0.59919c0.07428,-0.13604 0.17312,-0.25676 0.29054,-0.35619l0.55237,-0.47346c0.10307,-0.70583 0.85966,-0.95803 0.85966,-0.95803c0.34345,-0.11448 0.94538,-0.29018 1.44666,-0.51518c-0.01353,-0.03522 -0.02596,-0.06988 -0.03723,-0.10368l0.14571,-1.26079c-0.02015,-0.03261 -0.04027,-0.06524 -0.06035,-0.09787l-0.65852,-0.31859c0,0 -1.11803,-0.55902 -0.55902,-1.67705c0.01147,-0.02295 0.02319,-0.0452 0.03512,-0.06676c-0.58596,-1.12835 -1.0641,-2.28235 -1.33365,-3.48703c-0.04343,-0.19413 -0.03344,-4.93113 -0.03344,-5.28719c0,-3.86524 0.18432,-7.38159 1.03923,-10.84663c0.11812,-1.35493 0.49611,-2.46186 1.07385,-3.40102c0.28744,-0.73923 0.61271,-1.48056 0.9805,-2.22689c0.53463,-1.59336 1.31475,-3.09949 2.12078,-4.57425c0.52796,-0.96598 0.49996,-2.45274 1.48122,-2.95173c0.86311,-0.43891 1.84665,0.60344 2.79967,0.77482c0.20421,0.03672 0.41803,0.0367 0.63461,0.02379c0.0578,-1.32212 0.08066,-2.64146 0.08066,-3.94979c0,-1.45513 0.12001,-3.19375 0.07197,-4.90562c0.42803,-0.44424 0.42803,-1.09438 0.42803,-1.09438c0,-5.9812 0.76931,-13.02321 -1.01666,-18.78335c1.61547,-0.65811 3.4717,-0.92912 5.13436,-1.18724c8.95728,-1.3906 18.56374,-0.5574 27.62865,-0.51724c1.19553,0.29094 2.5584,0.19699 3.58659,0.87282c3.85456,2.5336 3.17818,7.63021 3.1672,11.52179c0.69038,0.88823 0.45132,2.08352 0.45132,2.08352c-0.82011,3.9429 -3.05748,7.20206 -4.02517,11.11234c-0.12566,0.50777 -0.24602,1.01722 -0.36226,1.52797c3.77578,0.90647 4.17303,4.3572 5.14863,8.21607v0.00002c0.57033,2.25585 0.93025,4.55781 1.15701,6.88237c1.08844,-0.27436 1.45568,0.82736 1.45568,0.82736c0.98556,2.99323 1.45926,6.23146 1.60933,9.41876c0.29949,0.30693 0.62489,0.65535 0.94532,1.03298c0.65995,-1.90096 1.5736,-3.77292 1.88611,-5.70842c0.71375,-4.42061 1.31832,-7.84651 4.75551,-10.95462c1.42514,-0.06855 2.83607,-0.08945 4.25772,-0.09406c0.07318,-0.36461 0.32866,-1.00109 1.22063,-1.00109c1.25,0 1.25,1.25 1.25,1.25c-0.00111,0.11723 -0.00294,0.23459 -0.00547,0.35208c0.34499,0.36977 0.34499,0.89965 0.34499,0.89965c-0.01123,7.07527 1.4,14.09203 1.4,21.2v1.6c0,0.69036 -0.55965,1.25 -1.25,1.25c-0.39906,0 -0.75444,-0.187 -0.9833,-0.47815l-0.79278,-0.99098l0.06234,-0.04988c-0.09629,-0.09822 -0.18552,-0.20334 -0.2658,-0.31723c-0.58907,-0.83573 -0.13369,-2.04176 -0.26051,-3.05633c-0.1522,-1.21763 -0.31685,-2.44402 -0.53412,-3.6601c-0.71855,6.15511 -0.71535,12.56998 -0.71535,18.75094c0,8.07375 -0.49732,16.33831 0.48381,24.32438c0.36268,2.95206 0.20144,5.88097 0.4307,8.79909c0.43906,1.25779 0.75792,2.52039 0.57612,3.7238c-0.00774,0.05126 -0.01673,0.10216 -0.02686,0.15273h0.03623v1.5c0,0.22812 -0.0611,0.44196 -0.16784,0.62605c0.00486,0.20769 0.00736,0.41624 0.00736,0.62568v0.2c0,0 0,1.25 -1.25,1.25zM263.74895,249.62602c-0.26324,0.01382 -0.53825,0.06057 -0.81861,0.13006c-0.09587,0.06179 -0.18831,0.12738 -0.27587,0.1983l-0.99222,0.79378c-0.19007,0.15473 -0.42648,0.25472 -0.68521,0.27592c-0.42724,1.44135 -0.87205,2.88191 -1.33276,4.31101c-0.25916,1.39877 -0.60314,2.79624 -0.98233,4.19468c-0.20896,1.70168 -0.4729,3.39247 -0.88718,5.04956c-0.01752,4.00182 -0.9769,7.81973 -2.04811,11.63259l0.3475,0.52127l-0.02927,0.01952c0.20279,0.18788 0.40344,0.38009 0.5962,0.57358c0.84818,0.00783 1.80205,-0.18077 2.23584,-0.46304c0.19513,-0.12697 0.3869,-0.25533 0.5757,-0.38516c0.55676,-0.93516 1.03287,-1.90771 1.51815,-2.70869c1.06239,-1.75351 2.99043,-3.03665 3.94042,-4.89202c1.25937,-2.45961 0.87289,-6.23914 0.87289,-8.95081c0,-3.18048 -0.35811,-6.70484 -0.31339,-10.06641c-0.57421,-0.09074 -1.154,-0.26393 -1.72175,-0.23413zM219.83355,259.28492c0.25798,-0.37981 0.48524,-0.77575 0.69066,-1.18309c0.56071,-2.21192 0.9686,-4.45403 1.07318,-6.72405c-0.0154,-0.23931 -0.03247,-0.47459 -0.05111,-0.70486c-0.00299,-0.03698 -0.00549,-0.07466 -0.00758,-0.11295c-0.23032,-1.2268 -0.64457,-2.32142 -1.39598,-2.76763c-0.1629,-0.09673 -0.36127,-0.10853 -0.56492,-0.10442c-0.42279,0.1102 -0.83543,0.20175 -1.16172,-0.02527c-1.26923,-0.88311 -2.36017,-2.20679 -2.82003,-3.68305c-0.35172,-1.12911 -0.19962,-2.43165 0.19851,-3.78596c-0.18401,-0.36675 -0.43588,-0.79465 -0.68003,-1.25041c-0.00373,0.0197 -0.00745,0.03944 -0.01118,0.05919c-1.0514,5.57571 -0.51105,10.31681 2.27236,15.18604c0.99977,1.99781 1.59112,3.79586 1.93025,5.65728c0.01326,0.02901 0.02644,0.05804 0.03955,0.0871zM249.0689,274.79244c0.00685,-0.00427 0.01369,-0.00856 0.02052,-0.01285c-0.00375,-0.01105 -0.00733,-0.02217 -0.01077,-0.03336l-0.00071,-0.00212c-0.03818,0.05115 -0.05462,0.07674 -0.00904,0.04832zM247.13228,275.4876c-0.19935,0.16462 -0.40046,0.31746 -0.58763,0.45088c-0.00137,1.49617 -0.0079,2.99245 -0.01056,4.48809c-0.00207,1.16538 0.06805,2.33103 0.19252,3.49613c0.44665,0.0259 0.89355,0.07802 1.34983,0.15864c0.25239,-0.31778 0.49096,-0.6402 0.72167,-0.96703c-0.00922,-0.06124 -0.014,-0.12393 -0.014,-0.18774h-0.00001c0,-0.44201 0.22942,-0.83044 0.57568,-1.0527c0.19654,-1.80744 0.45041,-3.6052 0.91806,-5.40759c-1.56009,0.56738 -2.69794,0.5214 -3.14556,-0.97868zM220.98604,280.45899c-0.32074,-1.69772 -0.36331,-3.3637 -0.17307,-5.04475c-0.11002,-1.47006 -0.00489,-2.97827 0.22016,-4.49212c-0.06161,0.15181 -0.12213,0.31029 -0.18175,0.47492c-0.64238,1.77381 -1.36136,6.94948 -0.02969,9.07689zM214.78616,274.57291c0.11065,-0.02565 0.19862,-0.08772 0.27178,-0.17417c-0.02071,-0.08428 -0.03364,-0.16016 -0.03433,-0.22044c-0.01616,-1.41665 0.58052,-2.93966 1.0816,-4.24422c0.01134,-0.02952 0.02326,-0.05993 0.03573,-0.09121c0.1521,-0.86151 0.36272,-1.71816 0.64318,-2.56785c0,-0.16666 0,-1.68177 0,-1.84843c0,0 0,-0.61388 0.43019,-0.98123c-0.0179,-0.99763 -0.06441,-1.92111 -0.16278,-2.8102c-0.75708,-0.67503 -1.69907,-1.3702 -2.15129,-1.74611c-0.65208,-0.17791 -1.33354,-0.26896 -2.0097,-0.27271l-1.24578,0.35594c-0.11727,0.03642 -0.24192,0.05602 -0.37116,0.05602c-0.19967,0 -0.3884,-0.04681 -0.55581,-0.13006c1.43881,4.81207 2.32561,9.79814 3.94795,14.53041c0.04054,0.04764 0.08068,0.09573 0.12042,0.14426zM271.13831,271.2283h-1.06471v0c-0.1784,0 -0.34808,-0.03737 -0.50163,-0.10473c-0.67783,1.29926 -1.52158,2.50883 -2.5712,3.59548c-1.45722,2.18583 -3.55176,4.3137 -5.94238,5.99577c-0.90661,1.319 -1.91843,2.54934 -2.96317,3.76076c-0.15696,1.17732 -0.36066,2.34046 -0.58347,3.49743c0.2559,0.42322 0.51703,0.80455 0.78914,1.14616c0.61829,0.35586 1.36532,0.85756 1.57961,1.45231c1.07093,0.67633 2.36562,0.97162 4.08172,0.95996l0.08244,0.04948l0.00572,-0.04006l1.08963,0.15566c4.60037,-4.50356 6.0836,-13.39513 6.0836,-19.31822c0,0 0,-0.23539 0.10215,-0.50188c-0.03349,-0.29361 -0.09226,-0.52578 -0.18744,-0.64812zM272.02776,264.8866l-0.11317,-0.22635l0.97232,-0.48616c0.14634,-4.23178 0.39718,-8.43541 0.39718,-12.74754c0,-1.34047 0.2441,-2.98073 0.01614,-4.29977c-0.11233,-0.64997 -0.37777,-1.44879 -0.59687,-2.26274c-0.14146,1.8563 -0.41927,3.63672 -0.41927,5.56252c0,4.56715 0.2184,9.82213 -0.69903,14.63837c0.1442,-0.06555 0.29203,-0.12468 0.4427,-0.17832zM219.77245,285.38775c0.02019,-0.17473 0.04219,-0.34879 0.06607,-0.52214l-0.10201,0.02716c0.01076,0.16526 0.02271,0.33027 0.03594,0.49497zM253.07361,265.7283c0,0 0.02538,0 0.0689,0.00361c0.59632,-1.46217 1.21148,-2.88784 1.71923,-4.23903v0.00001c0.25161,-0.66957 0.50016,-1.34692 0.74539,-2.03064c0.21575,-2.94001 0.05956,-5.77748 -0.75889,-8.14039c-0.05175,-0.16972 -0.11079,-0.33103 -0.17638,-0.48517c-0.09968,-0.09342 -0.18602,-0.20263 -0.26343,-0.32274c-0.05381,0.0181 -0.10889,0.03758 -0.16539,0.05851l-0.74295,0.21243c-0.09088,0.06059 -0.18175,0.12117 -0.27263,0.18175c-0.18559,0.12373 -0.93544,0.63129 -1.69346,1.12682c0.00003,0.2776 0.00008,0.55531 0.00008,0.83311c0,4.31167 0.68143,8.50904 0.50862,12.81187c0.34277,-0.00558 0.68639,-0.01014 1.0309,-0.01014zM247.57862,288.39351c-0.04416,0.01849 -0.08844,0.03713 -0.13283,0.05591c0.00552,0.02723 0.01104,0.05446 0.01659,0.08169c0.0394,-0.04603 0.07814,-0.09188 0.11624,-0.1376zM217.95342,228.22545c0.62535,-0.417 1.36441,-0.62439 1.9679,-0.39161c0.02926,-0.00661 0.058,-0.01329 0.0862,-0.02004l0.18438,-0.09219c0.05147,-0.29262 0.10004,-0.58586 0.14587,-0.87964c-0.89953,0.43874 -1.82705,0.84631 -2.69441,1.33902c0.1054,0.01246 0.20879,0.02727 0.31007,0.04445zM219.5136,224.46076l1.14737,-0.09742c0.06224,-0.58545 0.11521,-1.17199 0.15996,-1.75888c-0.32824,0.09509 -0.68323,0.2823 -0.99256,0.19955c-0.51739,-0.13841 -0.83166,-1.18594 -1.30561,-0.9365c-0.51945,0.27338 -0.01646,1.19961 -0.23185,1.74566c-0.26671,0.67612 -0.60301,1.32352 -0.93931,1.97055c0.68688,-0.3798 1.41264,-0.74733 2.16201,-1.12295zM248.1597,291.64817c0.00811,-0.05364 0.01623,-0.10729 0.02435,-0.16092c-0.01733,0.01557 -0.03457,0.03107 -0.05172,0.04651c0.00911,0.03814 0.01823,0.07628 0.02737,0.11441zM266.38275,271.19937c0.02156,0.0069 0.04324,0.0146 0.06502,0.02314c0.05611,-0.10984 0.11024,-0.22086 0.16269,-0.33289c-0.07358,0.1048 -0.14962,0.20798 -0.22771,0.30975zM257.39945,248.15686c-0.02573,0.00174 -0.05103,0.00338 -0.07578,0.00492c0.01729,0.00491 0.03463,0.00987 0.05203,0.01489c0.0079,-0.00666 0.01582,-0.01326 0.02374,-0.01981z" fill="#000000" stroke="none" stroke-width="0.5" stroke-linecap="butt"/><path d="M190.23656,349.0761c0,0 4.40122,-101.46485 6.9269,-169.31774l0.67479,-0.94471c1.00658,-1.14332 2.70237,-1.90098 3.07272,-3.37718c0.20599,-0.82107 -0.18031,-1.90602 -0.78512,-3.04257l1.48516,0.66007c0.19386,0.09141 0.41045,0.14252 0.63899,0.14252c0.82843,0 1.5,-0.67157 1.5,-1.5c0,-0.2803 -0.07688,-0.54263 -0.2107,-0.76708l-0.78693,-1.37713l-0.02345,0.0134l-0.01582,-0.07826c-1.75843,-2.45351 -3.447,-5.33346 -4.87669,-8.30662c0.67055,-19.14459 1.08943,-33.55796 1.05387,-38.87635c-0.05451,-8.15261 8.18688,-36.76129 40.20201,-36.9211c31.60235,-0.15775 39.85672,29.48704 39.84884,36.89673c-0.02588,15.62518 0.82756,57.18529 1.96903,105.36979c-1.38452,0.60603 -2.77161,1.20324 -4.07223,1.94803c-2.66166,1.52417 -5.13639,3.5332 -7.25513,5.78077l-0.64288,-109.85907c0,0 0.07549,-3.0993 -2.81625,-3.15415c-3.43441,-0.06514 -2.94538,3.11562 -2.94538,3.11562l0.95819,106.9012c-3.71393,-0.37163 -5.93112,-2.98981 -9.58198,-4.36253c-5.09975,-1.91751 -10.07995,-2.17127 -15.41408,-2.58939c-3.31736,-0.26004 -6.60954,-1.06343 -9.84661,0.01559c-4.29343,-0.02419 -8.95056,1.45118 -13.18423,2.86966l-1.24488,-103.12544c0,0 0.27949,-2.919 -2.8856,-2.93443c-3.11083,-0.01515 -2.81569,2.90899 -2.81569,2.90899l4.80018,225.41174z" fill="#ffffff" stroke="#000000" stroke-width="2" stroke-linecap="butt"/><path d="M198.89028,122.30446c-0.05451,-8.15261 8.18688,-36.76129 40.20201,-36.9211c31.60235,-0.15775 39.85672,29.48704 39.84884,36.89673c-0.01763,10.64704 0.37301,33.33593 0.98485,61.95715c-3.49513,1.93874 -7.0114,3.85895 -10.60981,5.57907l-0.37626,-64.2967c0,0 0.07549,-3.0993 -2.81625,-3.15415c-3.43441,-0.06514 -2.94538,3.11562 -2.94538,3.11562l0.5985,66.77156c-1.1412,0.45398 -2.29317,0.88014 -3.4577,1.27314c-2.649,1.13757 -5.35359,2.57141 -8.13384,3.36515c-2.07828,0.59333 -4.59901,0.48282 -6.74959,0.60913c-6.41544,0.37678 -13.25581,0.49514 -19.44006,-1.5775c-3.54895,-1.18942 -6.89504,-2.72694 -10.32759,-4.18646l-0.80331,-66.54593c0,0 0.27949,-2.919 -2.8856,-2.93443c-3.11083,-0.01515 -2.81569,2.90899 -2.81569,2.90899l1.3565,63.69971c-4.18933,-3.08211 -8.47834,-6.03397 -12.56269,-9.19695c-0.1564,-0.12111 -0.31133,-0.24436 -0.46488,-0.36954l0.34593,-0.4843c1.00658,-1.14332 2.70237,-1.90098 3.07272,-3.37718c0.20599,-0.82107 -0.18031,-1.90602 -0.78512,-3.04257l1.48516,0.66007c0.19386,0.09141 0.41045,0.14252 0.63899,0.14252c0.82843,0 1.5,-0.67157 1.5,-1.5c0,-0.2803 -0.07688,-0.54263 -0.2107,-0.76708l-0.78693,-1.37713l-0.02345,0.0134l-0.01582,-0.07826c-1.75843,-2.45351 -3.44701,-5.33347 -4.8767,-8.30664c0.67054,-19.14458 1.08942,-33.55794 1.05386,-38.87633z" fill="url(#color-1)" stroke="none" stroke-width="0" stroke-linecap="butt"/><path d="M190.23656,349.2761c0,0 4.40122,-101.46485 6.9269,-169.31774l0.67479,-0.94471c1.00658,-1.14332 2.70237,-1.90098 3.07272,-3.37718c0.20599,-0.82107 -0.18031,-1.90602 -0.78512,-3.04257l1.48516,0.66007c0.19386,0.09141 0.41046,0.14252 0.63899,0.14252c0.82843,0 1.5,-0.67157 1.5,-1.5c0,-0.28029 -0.07688,-0.54263 -0.2107,-0.76708l-0.78693,-1.37713l-0.02345,0.0134l-0.01582,-0.07826c-1.75842,-2.45351 -3.447,-5.33346 -4.87669,-8.30661c0.67055,-19.14459 1.08942,-33.55796 1.05386,-38.87635c-0.05451,-8.15261 8.18688,-36.76129 40.20201,-36.9211c31.60235,-0.15775 39.85672,29.48704 39.84884,36.89673c-0.02588,15.62518 0.82756,57.18529 1.96903,105.36979c-1.38452,0.60603 -2.77161,1.20324 -4.07223,1.94803c-2.66166,1.52417 -5.13639,3.5332 -7.25513,5.78077l-0.64288,-109.85907c0,0 0.07549,-3.0993 -2.81625,-3.15415c-3.43441,-0.06514 -2.94538,3.11562 -2.94538,3.11562l0.95819,106.9012c-3.71393,-0.37163 -5.93112,-2.98981 -9.58198,-4.36253c-5.09975,-1.91751 -10.07995,-2.17127 -15.41408,-2.58939c-3.31736,-0.26004 -6.60954,-1.06343 -9.84661,0.01559c-4.29343,-0.02419 -8.95056,1.45118 -13.18423,2.86966l-1.24488,-103.12544c0,0 0.27949,-2.919 -2.8856,-2.93443c-3.11083,-0.01515 -2.81569,2.90899 -2.81569,2.90899l4.80018,225.41174z" fill="none" stroke="#000000" stroke-width="2" stroke-linecap="butt"/><path d="M254.28079,136.25865c-0.57113,0 -1.03411,-0.46299 -1.03411,-1.03411c0,-0.57113 0.46299,-1.03413 1.03411,-1.03413c0.57113,0 1.03411,0.463 1.03411,1.03413c0,0.57113 -0.46299,1.03411 -1.03411,1.03411z" fill="#000000" stroke="none" stroke-width="1.5" stroke-linecap="butt"/><path d="M249.02092,140.49424c-4.4635,-0.31439 -6.55245,-1.79392 -6.16985,-2.58011c0.11788,-0.24224 2.84645,1.06355 6.97038,1.3048c6.40897,0.37493 8.51033,-0.63173 8.51033,-0.63173v1.34616c0,0 -2.4135,1.04672 -9.31086,0.56089z" fill="#000000" stroke="#000000" stroke-width="0" stroke-linecap="butt"/><path d="M221.20817,135.22454c0,-0.57113 0.46299,-1.03413 1.03411,-1.03413c0.57113,0 1.03413,0.463 1.03413,1.03413c0,0.57113 -0.463,1.03411 -1.03413,1.03411c-0.57113,0 -1.03411,-0.46299 -1.03411,-1.03411z" fill="#000000" stroke="none" stroke-width="1.5" stroke-linecap="butt"/><path d="M227.50215,140.49424c-6.89736,0.48585 -9.31086,-0.56089 -9.31086,-0.56089v-1.34616c0,0 2.10136,1.00666 8.51033,0.63173c4.12393,-0.24126 6.85251,-1.54704 6.97039,-1.3048c0.3826,0.78618 -1.70634,2.26571 -6.16985,2.58011z" fill="#000000" stroke="#000000" stroke-width="0" stroke-linecap="butt"/><path d="M238.98261,222.14602c-0.81895,0 -1.48284,-0.66389 -1.48284,-1.48284c0,-0.81895 0.66389,-1.48284 1.48284,-1.48284c0.81895,0 1.48284,0.66389 1.48284,1.48284c0,0.81895 -0.66389,1.48284 -1.48284,1.48284z" data-paper-data="{&quot;index&quot;:null}" fill="#000000" stroke="none" stroke-width="1.5" stroke-linecap="butt"/><path d="M224.05697,54.28543c0.90288,-7.2601 3.78143,-16.73586 3.78143,-16.73586c0,0 3.34908,0.64619 14.2624,-0.27885c8.3843,-0.71068 22.0365,-5.15672 22.0365,-5.15672c0,0 -2.72077,2.50868 -4.2359,3.68283c-1.61076,1.24825 -4.82973,3.66577 -4.82973,3.66577c0,0 8.01324,-0.05564 15.32638,-1.67838c9.10473,-1.73852 11.5942,-3.79685 13.60984,-1.8917c2.37896,2.24855 -3.65783,22.91548 -5.08189,28.29689c-1.55424,5.46828 -4.39375,8.79527 -5.60626,11.63004c-1.21253,2.8348 -1.63655,5.92855 -5.38993,15.26722c-2.34236,5.82798 -5.87321,7.90417 -12.76561,12.34373c-6.89239,4.43957 -10.73107,7.24076 -14.62369,6.51121c-3.74613,-0.7021 -7.72603,-6.79459 -11.5601,-12.97518c-4.08265,-6.58134 -6.98672,-10.09015 -6.46892,-16.78559c0.46634,-6.02995 1.23401,-9.86201 1.96989,-15.16219c0.53785,-3.87375 -0.91748,-6.7683 -0.4244,-10.73317z" fill="url(#color-2)" stroke="#000000" stroke-width="1.5" stroke-linecap="butt"/><g stroke="none" stroke-linecap="butt"><path d="M265.07884,93.81915c0,0 -0.22195,0.74078 -0.70223,1.926l-0.73735,0.18229c-5.82791,0.31174 -11.26904,0.04405 -17.04113,-0.32821c-5.99566,-0.4666 -11.15606,-2.56288 -16.78259,-3.9303c-0.23916,-0.05812 -1.86897,-0.58481 -2.13206,-0.77632c-0.61389,-0.44686 -0.77705,-1.43797 -1.63443,-1.47922c-0.94306,-0.04537 -2.64962,1.11973 -4.08522,2.24949c0.46663,-3.63445 1.49919,-6.40162 1.49919,-6.40162c0,0 10.59051,-5.45531 16.58986,-4.22753c1.49066,0.30507 6.17022,4.09137 6.17022,4.09137c0,0 6.77069,-1.15555 10.88627,0.79648c5.76728,2.73543 7.96947,7.89758 7.96947,7.89758z" fill="#000000" stroke-width="0"/><path d="M236.36093,162.09373c-4.12024,5.85148 -11.56189,5.19288 -15.79633,4.14184c-4.05578,-1.00669 -8.55472,-4.40412 -9.63469,-10.00141c-3.07808,-15.95291 7.72096,-54.35848 11.53357,-67.11902c6.26833,-3.15368 12.33342,-6.73799 17.70152,-5.77181c5.71959,0.99146 10.50556,4.1297 15.80197,6.32902c2.06261,0.85648 4.87672,1.42938 6.34211,3.779c0.74126,1.18854 1.30354,2.46133 2.00671,3.52024c-2.87491,9.23633 -15.00467,46.73049 -27.95485,65.12216z" fill="#000000" stroke-width="0"/><path d="M228.65564,107.54865c-0.54718,4.89838 -0.55397,11.18324 -0.57571,13.55425c0.05853,5.00352 -3.8079,19.56876 1.18045,18.24122c3.70724,-0.94055 9.58282,-8.97002 15.46918,-20.49374c3.46835,-6.76694 4.1497,-8.30814 5.00964,-8.58528c0.75563,-0.23424 3.90729,-4.24029 3.41066,-3.2911c-8.61457,17.80991 -9.57386,20.60401 -12.31365,24.3307c-2.93284,4.05864 -9.154,15.83245 -14.12054,14.78882c-6.91772,-1.44282 -3.03988,-18.14015 -1.28106,-34.03305c1.43804,-13.51277 0.63728,-12.60147 1.99758,-11.39138c0.4599,0.50607 1.80231,1.804 1.22346,6.87955z" data-paper-data="{&quot;noHover&quot;:false,&quot;origItem&quot;:[&quot;Path&quot;,{&quot;applyMatrix&quot;:true,&quot;segments&quot;:[[[732.56655,396.53901],[0.21094,0.0533],[-0.59374,-0.1218]],[[732.94937,398.35841],[-0.9297,-1.72044],[1.07032,2.02494]],[[737.25405,400.83249],[-2.52342,-0.03046],[1.8125,0.02284]],[[739.87905,400.23109],[-0.57812,0.57094],[0.54688,-0.52526]],[[741.85561,396.66843],[-1.07812,2.41316],[0.07032,-0.12942]],[[741.51967,396.53901],[0.23438,-0.04566],[-0.26562,0.05328]],[[740.23061,398.23661],[0.47656,-0.92112],[-0.80468,1.56818]],[[738.20717,400.05601],[1.17188,-0.19792],[-1.57032,0.27406]],[[734.61343,399.45461],[0.54686,0.62424],[-0.24218,-0.29688]],[[733.56655,397.78747],[0.32814,0.62422],[-0.33594,-0.64706]]],&quot;closed&quot;:true,&quot;fillColor&quot;:[0,0,0]}]}" fill="#ffffff" stroke-width="0.5"/><path d="M223.46587,108.9349c-1.19661,9.5357 -5.20499,29.41052 -4.90214,31.83781c0.76367,6.34354 2.45867,9.27962 8.44495,9.52573c6.41909,0.3211 12.42956,-8.87912 21.82654,-28.19772c3.46284,-7.19407 9.64755,-21.2397 10.71506,-22.63784c1.82376,-2.30231 0.23454,1.89556 -4.9885,17.49239c-12.88247,39.05284 -19.04454,47.58663 -33.04376,45.15993c-7.38991,-1.4637 -9.12051,-3.80504 -9.23947,-11.80275c-0.13783,-6.60048 0.55577,-15.07519 6.49813,-38.95059c5.55729,-22.17627 5.25339,-20.82781 6.05397,-20.68903c0.32454,0.05626 -0.10336,8.73779 -1.36478,18.26204z" data-paper-data="{&quot;noHover&quot;:false,&quot;origItem&quot;:[&quot;Path&quot;,{&quot;applyMatrix&quot;:true,&quot;segments&quot;:[[[730.47281,395.74731],[0.11718,0],[-0.28906,0]],[[730.58999,398.43453],[-0.42968,-2.89276],[0.47656,3.11352]],[[732.08999,403.26849],[-0.74218,-0.82216],[0.88282,0.99724]],[[736.77749,404.59307],[-2.6875,-0.02284],[5.05468,0]],[[743.25405,398.35841],[-0.30468,5.1613],[0.14844,-2.063]],[[742.99623,396.47051],[0.38282,-0.32734],[-0.21876,0.19792]],[[741.80091,398.58679],[0.4297,-0.9744],[-1.1875,2.61872]],[[737.87903,401.67747],[2.23438,-0.09896],[-2.07812,0.09896]],[[733.47279,400.70307],[0.92968,0.77648],[-0.35938,-0.29688]],[[731.75405,397.96255],[0.59374,1.21802],[-0.57032,-1.218]]],&quot;closed&quot;:true,&quot;fillColor&quot;:[0,0,0]}]}" fill="url(#color-3)" stroke-width="0.5"/><path d="M234.89169,83.28304c2.91656,-0.3724 4.37161,-0.08824 6.8282,1.12683c1.7478,0.86895 6.87482,3.47797 6.42222,4.8371c-0.10287,0.30892 -7.26659,0.10609 -12.78226,-0.92734c-4.67543,-0.87599 -9.484,-0.95942 -9.40169,-1.20652c0.20572,-0.61777 6.10304,-3.44148 8.93346,-3.83003z" data-paper-data="{&quot;noHover&quot;:false,&quot;origItem&quot;:[&quot;Path&quot;,{&quot;applyMatrix&quot;:true,&quot;segments&quot;:[[[732.89469,393.12859],[0,0],[-0.92188,0.4263]],[[730.47281,395.02411],[0,-0.3045],[0,0.1218]],[[733.56657,395.24487],[-1.69532,0],[2,0]],[[736.66033,394.99365],[0,0.15226],[0,-0.6699]],[[735.20721,393.02961],[0.6953,0.25122],[-0.97656,-0.35018]],[[732.89471,393.12857],[0.95312,-0.4263],[0,0]]],&quot;closed&quot;:true,&quot;fillColor&quot;:[0,0,0]}]}" fill="url(#color-4)" stroke-width="0.5"/><path d="M260.51088,90.46355l1.55355,3.84913l-4.80928,-1.82193c-2.72919,-0.3965 -12.0733,-3.61079 -13.1474,-3.95973c-1.74394,-0.60565 -0.3686,0.65153 1.09828,0.11614c3.9239,-1.4322 5.85643,-3.0159 10.22892,-1.91771c2.3884,0.59514 3.45754,1.44548 5.07596,3.73412z" data-paper-data="{&quot;noHover&quot;:false,&quot;origItem&quot;:[&quot;Path&quot;,{&quot;applyMatrix&quot;:true,&quot;segments&quot;:[[[740.47281,393.10575],[0.88282,0.0685],[-1.61718,-0.12942]],[[738.32437,394.54451],[0,-1.24084],[0,0.57856]],[[739.11343,395.37427],[-0.66406,-0.1294],[0.40626,0.06852]],[[741.66031,395.44279],[-0.97656,0.05328],[0,0]],[743.44937,395.37427],[[742.49625,394.30091],[0,0],[-0.8125,-0.92112]]],&quot;closed&quot;:true,&quot;fillColor&quot;:[0,0,0]}]}" fill="url(#color-5)" stroke-width="0.5"/></g><path d="M244.70145,88.62985c-1.0126,-0.2081 -2.80932,-3.90591 -2.62944,-6.01618c0.16095,-1.88811 2.05879,-3.48488 4.47977,-2.98734c2.42099,0.49755 4.01729,1.32662 3.10432,4.91405c-0.77481,3.04453 -2.53367,4.58703 -4.95466,4.08949z" fill="url(#color-6)" stroke="#000000" stroke-width="1.15" stroke-linecap="butt"/><path d="M254.28784,59.87733c0,0 -0.69864,3.90914 -1.42899,6.98189c-1.4462,6.08456 -6.64771,26.97469 -6.64771,26.97469l-2.92238,-0.59177c0,0 0.05349,-4.24896 0.81213,-9.53143c1.02689,-7.1503 2.83961,-16.05015 3.20427,-19.38407c0.34568,-3.16023 0.27277,-5.7779 0.27277,-5.7779" fill="url(#color-7)" stroke="#000000" stroke-width="1.3" stroke-linecap="round"/><path d="M228.31208,54.82516c1.09287,-5.22764 6.60436,-8.55049 11.84609,-7.32712c5.24173,1.22337 7.94521,6.46818 6.85235,11.69584c-0.39194,1.87486 -2.57086,17.4869 -4.67218,21.49496c-1.2101,2.30816 1.55827,-13.53198 -0.28718,-11.02934c-2.04438,2.77242 -7.8122,13.43585 -8.93682,13.55887c-1.01266,0.11078 0.06073,-18.96584 -1.01918,-19.21787c-3.78957,-0.88445 -2.1351,8.03573 -3.00709,4.47362c-0.33414,-1.36501 -1.07877,-12.20067 -0.77599,-13.64894z" fill="#000000" stroke="#000000" stroke-width="1.4" stroke-linecap="butt"/><path d="M254.7041,58.63298c1.22346,-5.21417 6.21342,-8.58106 11.41724,-7.45049c5.20381,1.13057 8.24462,6.23744 7.21942,11.49944c-0.17745,0.91082 -7.36622,27.7975 -8.71922,30.1632c-2.395,4.18758 -2.24048,-14.13043 -3.44292,-13.21431c-2.04262,1.55627 1.3559,-4.37377 -1.61303,-4.97745c-2.59426,-0.5275 -3.14662,9.68258 -4.44872,7.68591c-1.42106,-2.17908 -1.07953,-20.86464 -0.41277,-23.70628z" fill="#000000" stroke="#000000" stroke-width="1.4" stroke-linecap="butt"/><path d="M225.04861,97.64979l16.05,-9.3l11.95,16.05l-17.15,14.65z" fill="url(#color-8)" stroke="#000000" stroke-width="0.5" stroke-linecap="round"/><path d="M228.00225,116.99086c0,0 -0.22589,-11.96961 0.59231,-16.93645c0.73566,-4.46579 4.09567,-11.52159 4.09567,-11.52159l17.15474,2.7759c0,0 0.42941,8.5201 -0.3089,13.00195c-0.81647,4.95634 -4.37908,15.4561 -4.37908,15.4561z" fill="url(#color-9)" stroke="#000000" stroke-width="0.5" stroke-linecap="butt"/><path d="M221.9594,46.05067c0.7142,-8.32272 7.92855,-14.50021 16.11371,-13.79781c8.18516,0.7024 14.24155,8.01871 13.52735,16.34142c-0.7142,8.32272 -7.92855,14.50021 -16.11371,13.79781c-8.18516,-0.7024 -14.24156,-8.0187 -13.52735,-16.34142z" fill="#000000" stroke="#000000" stroke-width="1.4" stroke-linecap="butt"/><path d="M222.5446,65.54709c-1.24543,-0.10687 -1.13855,-1.3523 -1.13855,-1.3523l0.01565,-0.10593c-0.16014,0.05522 -0.33417,0.0786 -0.51381,0.06318c-0.68783,-0.05902 -1.19758,-0.66446 -1.13855,-1.3523c0.00794,-0.09252 0.02577,-0.18182 0.05236,-0.26696l0.34875,-1.19926l0.03216,0.00935l-0.00816,-0.08326c1.23646,-2.80839 3.14325,-4.2331 5.19837,-4.24808c1.14074,-0.74922 2.22027,-1.37991 2.7707,-1.74778l-0.07975,-0.09008c0,0 0.65256,-1.06614 1.7187,-0.41359c1.06614,0.65256 0.41359,1.7187 0.41359,1.7187l-0.66342,0.86351c-0.34659,0.23163 -0.68856,0.46881 -1.0269,0.71019c0.65743,0.44506 1.30349,1.03326 1.92152,1.76539c0,0 0.40282,0.47843 0.30016,1.04341c0.0074,0.25468 -0.07795,0.54396 -0.34553,0.84351c-0.83275,0.93221 -1.76496,0.09946 -1.76496,0.09946c-2.16287,-2.05942 -3.73372,-0.07176 -4.78328,2.06282l0.04327,0.54144c0,0 -0.10687,1.24543 -1.3523,1.13855z" fill="#000000" stroke="none" stroke-width="0.5" stroke-linecap="butt"/><path d="M243.56149,54.55376c0.10687,-1.24543 1.3523,-1.13855 1.3523,-1.13855l0.24909,0.02137c0.64933,0.05778 1.29644,0.13381 1.94247,0.2209c0.09876,-0.10154 0.20045,-0.19724 0.30505,-0.28647c-0.12185,-0.13984 -0.24737,-0.28725 -0.37861,-0.44286c-6.9586,-10.38884 1.11632,-27.78747 13.83039,-28.50238c7.19502,0.60504 14.22325,2.48221 20.85168,5.36345c4.04557,1.75852 7.69374,4.89162 7.31102,9.59609c-0.78642,9.16424 -5.38168,17.46699 -9.04237,25.70757c-0.38233,0.86065 -0.55152,1.7009 -0.74143,2.55942l0.32994,0.02831l-0.10687,1.24543c-0.05902,0.68783 -0.66446,1.19758 -1.3523,1.13855c-0.41264,-0.03541 -0.76118,-0.26748 -0.96129,-0.59601l-0.13515,-0.21658c0.22661,0.54881 0.38811,1.22833 0.47064,2.05815c0,0 0.09933,1.24605 -1.14672,1.34538c-1.24605,0.09933 -1.34538,-1.14672 -1.34538,-1.14672c-0.17754,-3.51291 -2.88209,-1.29889 -4.77473,-0.11415l0.11255,0.06889c0,0 -0.65255,1.06614 -1.7187,0.41359c-1.06615,-0.65255 -0.41358,-1.71872 -0.41358,-1.71872l0.69623,-0.88469c0.79533,-0.49491 1.63503,-0.95703 2.46608,-1.31159c-0.06603,-0.03586 -0.13201,-0.07175 -0.19795,-0.10771c-0.12896,0.01768 -0.26187,0.03442 -0.39905,0.04982c0,0 -1.19185,0.1338 -1.37172,-1.02817c-3.11905,-1.74016 -6.20504,-3.51834 -9.55487,-4.97093c-1.31374,-0.56969 -2.45263,-1.4356 -3.68133,-2.1203c-0.05339,0.36531 -0.26345,0.8119 -0.93797,0.97421c-1.21531,0.29244 -1.50776,-0.92286 -1.50776,-0.92286c-0.22498,-1.06752 -0.83649,-2.02902 -1.56466,-2.88307c-0.53687,-0.07901 -1.07267,-0.16397 -1.60784,-0.2505c-1.23438,0.72818 -2.4672,2.40813 -3.47881,3.86818l-0.00035,0.00408l0.22105,0.06428l-0.34949,1.20182c-0.15451,0.57312 -0.70143,0.97115 -1.31362,0.91861c-0.68783,-0.05902 -1.19758,-0.66446 -1.13855,-1.3523l0.12825,-1.4945c0.10898,-1.12042 0.44915,-2.59259 1.02412,-3.92223c-0.22724,-0.02331 -0.4546,-0.04446 -0.68212,-0.06312l-0.24909,-0.02137c0,0 -1.24543,-0.10687 -1.13855,-1.3523z" fill="#000000" stroke="none" stroke-width="0.5" stroke-linecap="butt"/><path d="M216.63958,224.30918c0.07525,-2.89981 0.40148,-5.65248 0.6556,-8.56997c0.42156,-4.84002 -0.28793,-9.86386 0.66177,-14.64874v-1.2407v0c0,-0.69036 0.55964,-1.25 1.25,-1.25c0.61444,0 1.12533,0.44332 1.23027,1.02756l0.3288,1.64396l-0.32097,0.06419c-0.00304,0.01534 -0.00608,0.03069 -0.00909,0.04604c1.68804,4.52126 1.58303,9.72599 3.27806,14.37163c0.30743,0.84259 0.72074,3.16313 1.37681,3.8794c0.70226,0.76668 2.45607,0.15828 3.17522,-0.00233c1.95942,-0.43759 3.66137,-0.92315 4.95496,1.15533c0.45088,0.72446 1.14462,1.61187 0.85276,2.41371c-0.34135,0.93781 -1.51385,1.32467 -2.38846,1.80536c-0.49984,0.27471 -1.10598,0.27941 -1.65896,0.41912c-1.84576,0 -3.59287,-0.67902 -5.41372,-0.05829c-2.02504,0.69034 -3.55034,1.70522 -5.75151,2.02578c-1.05301,0.15335 -2.29044,0.97439 -3.17014,0.37569c-0.70376,-0.47896 -0.02003,-1.70243 -0.03003,-2.55365z" fill="#000000" stroke="none" stroke-width="0.5" stroke-linecap="butt"/><path d="M245.96613,226.4126c0.42359,-0.42359 0.84719,-0.44118 1.1735,-0.34462c0.21334,-0.1357 0.40722,-0.18417 0.40722,-0.18417c2.4963,-0.61724 3.45812,-1.36934 4.86311,-3.4807l0.78925,-1.18387c0.22257,-0.34463 0.61005,-0.57276 1.05082,-0.57276c0.63664,0 1.16211,0.47594 1.24004,1.09142l0.1974,1.38181l-0.01737,0.00248c0.00917,0.02847 0.01811,0.05703 0.02679,0.08568c0.16721,0.55173 -0.3947,1.26988 -0.04592,1.72892c0.20912,0.27523 0.68825,-0.23968 0.90228,-0.5111c0.86747,-1.10006 0.90798,-1.67256 1.29354,-3.06791c0.74977,-2.7134 1.78864,-5.71951 1.95565,-8.53897c0.16691,-2.8176 -0.4137,-5.49799 0.67314,-8.15184l0.37948,-1.13843c0.15709,-0.51078 0.63267,-0.88206 1.19497,-0.88206c0.69036,0 1.25,0.55964 1.25,1.25v1.4h-0.38007c0.22605,1.77044 0.02438,3.38475 0.17692,5.51139c0.36082,5.0303 1.2074,9.81862 1.20314,14.88861c-0.00269,3.20318 0.06287,6.17796 -3.24977,7.43386c-3.00237,0 -6.68727,-1.16065 -9.49084,-2.28416c-1.72772,-0.69237 -2.7618,-1.86341 -4.68617,-2.11226l-0.90711,-0.55355c0,0 -0.88388,-0.88388 0,-1.76777z" fill="#000000" stroke="none" stroke-width="0.5" stroke-linecap="butt"/></g></g></svg>