<svg version="1.1" xmlns="http://www.w3.org/2000/svg" xmlns:xlink="http://www.w3.org/1999/xlink" width="115.06406" height="234.1748" viewBox="0,0,115.06406,234.1748"><g transform="translate(-199.75172,-71.32505)"><g data-paper-data="{&quot;isPaintingLayer&quot;:true}" fill-rule="nonzero" stroke-linejoin="miter" stroke-miterlimit="10" stroke-dasharray="" stroke-dashoffset="0" style="mix-blend-mode: normal"><path d="M201.54534,304.39159c0,0 -0.63536,-94.38387 -0.79335,-118.01201c-0.05451,-8.15261 8.18688,-36.76129 40.20201,-36.9211c31.60235,-0.15775 39.85672,29.48704 39.84884,36.89673c-0.07659,46.24274 0.65429,117.98648 0.65429,117.98648l-10.49667,0.09614l-0.15882,-114.84311c0,0 0.07549,-3.0993 -2.81625,-3.15415c-3.43441,-0.06514 -2.94538,3.11562 -2.94538,3.11562l0.20548,114.86995l-48.21366,0.07222l-0.30539,-115.23309c0,0 0.27949,-2.919 -2.8856,-2.93443c-3.11083,-0.01515 -2.81569,2.90899 -2.81569,2.90899l0.35311,115.0668z" fill="#ffffff" stroke="#000000" stroke-width="2" stroke-linecap="butt"/><path d="M256.1425,200.33377c-0.57113,0 -1.03411,-0.46299 -1.03411,-1.03411c0,-0.57113 0.46299,-1.03413 1.03411,-1.03413c0.57113,0 1.03411,0.463 1.03411,1.03413c0,0.57113 -0.46299,1.03411 -1.03411,1.03411z" fill="#000000" stroke="none" stroke-width="1.5" stroke-linecap="butt"/><path d="M250.88263,204.56936c-4.4635,-0.31439 -6.55245,-1.79392 -6.16985,-2.58011c0.11788,-0.24224 2.84645,1.06355 6.97038,1.3048c6.40897,0.37493 8.51033,-0.63173 8.51033,-0.63173v1.34616c0,0 -2.4135,1.04672 -9.31086,0.56089z" fill="#000000" stroke="#000000" stroke-width="0" stroke-linecap="butt"/><path d="M223.06988,199.29966c0,-0.57113 0.46299,-1.03413 1.03411,-1.03413c0.57113,0 1.03413,0.463 1.03413,1.03413c0,0.57113 -0.463,1.03411 -1.03413,1.03411c-0.57113,0 -1.03411,-0.46299 -1.03411,-1.03411z" fill="#000000" stroke="none" stroke-width="1.5" stroke-linecap="butt"/><path d="M229.36386,204.56936c-6.89736,0.48585 -9.31086,-0.56089 -9.31086,-0.56089v-1.34616c0,0 2.10136,1.00666 8.51033,0.63173c4.12393,-0.24126 6.85251,-1.54704 6.97039,-1.3048c0.3826,0.78618 -1.70634,2.26571 -6.16985,2.58011z" fill="#000000" stroke="#000000" stroke-width="0" stroke-linecap="butt"/><path d="M240.64432,261.12113c-0.81895,0 -1.48284,-0.66389 -1.48284,-1.48284c0,-0.81895 0.66389,-1.48284 1.48284,-1.48284c0.81895,0 1.48284,0.66389 1.48284,1.48284c0,0.81895 -0.66389,1.48284 -1.48284,1.48284z" data-paper-data="{&quot;index&quot;:null}" fill="#000000" stroke="none" stroke-width="1.5" stroke-linecap="butt"/><path d="M216.58107,304.40602v-119.20147c0,0 0.75721,-9.73105 0.75721,-14.63937c0,-4.498 -0.75721,-13.6872 -0.75721,-13.6872c0,0 2.67319,-2.35297 4.6557,-3.74807c1.98251,-1.3951 5.17197,-2.80371 5.17197,-2.80371c0,0 -0.6016,40.10902 14.55952,40.03867c15.43477,-0.07162 13.83154,-40.03867 13.83154,-40.03867c0,0 3.91276,1.51959 6.16585,2.94655c2.25309,1.42695 4.75379,3.60523 4.75379,3.60523c0,0 -0.75721,9.42463 -0.75721,14.19201c0,4.84193 0.75721,14.63937 0.75721,14.63937v118.69667z" fill="#970000" stroke="#000000" stroke-width="2" stroke-linecap="butt"/><path d="M284.4799,158.80509c0,0 -8.21498,-2.35982 -9.02824,-2.03641c-2.13295,0.84823 -34.66562,20.30286 -54.00895,-10.25155c-23.18753,-38.15201 11.00009,-51.48486 15.6556,-57.09411c6.38341,-7.69113 11.96191,-14.0564 11.96191,-14.0564c0,0 -0.38781,3.42398 -0.66381,5.10148c-0.25742,1.56458 -0.81371,4.86674 -0.81371,4.86674c0,0 7.40008,-7.86619 17.24338,-11.5181c8.98497,-3.4059 18.56183,-2.33061 18.56183,-2.33061l-1.45081,2.1771c0,0 2.41436,-0.21826 3.96667,0.19617c1.55231,0.41445 4.24497,1.51298 4.24497,1.51298l-3.15795,1.93829c0,0 13.07309,0.57849 21.62235,15.6083c7.96102,14.2331 3.84789,27.90838 3.84789,27.90838l2.35474,-1.23162c0,0 -0.89395,5.02119 -5.29535,10.21792c-5.24595,6.19389 -8.96494,8.94545 -8.96494,8.94545c0,0 2.81645,1.07036 5.26851,3.55312c3.07256,3.11105 3.78428,5.83561 3.78428,5.83561c0,0 -4.16072,-1.75749 -6.92782,-2.43674c-2.46472,-0.60502 -4.24928,-0.5947 -4.24928,-0.5947c0,0 1.99578,1.27879 3.52341,2.84951c1.59391,1.63886 2.48144,3.21961 2.48144,3.21961c0,0 -6.85352,-1.77574 -12.93408,-0.62518c-5.74103,1.08632 -10.53165,3.68181 -10.53165,3.68181c0,0 1.25554,0.84585 2.35875,2.48159c0.69929,1.03685 1.15084,2.08137 1.15084,2.08137z" fill="#000000" stroke="none" stroke-width="1.5" stroke-linecap="butt"/><path d="M245.60222,97.41808c6.30808,-3.70571 15.57676,-7.19395 15.57676,-7.19395c0,0 1.52728,3.04979 8.90778,11.14204c5.67018,6.21696 17.51143,14.33699 17.51143,14.33699c0,0 -3.6468,-0.62997 -5.50086,-1.11654c-1.97107,-0.51728 -5.849,-1.59792 -5.849,-1.59792c0,0 4.92466,6.32162 10.66582,11.13352c6.92416,6.16234 10.07291,6.88316 9.78953,9.64217c-0.33446,3.25631 -20.40269,11.05572 -25.53816,13.20386c-5.28366,2.09779 -9.65179,1.87202 -12.63863,2.63689c-2.98684,0.76487 -5.69883,2.31283 -15.39161,5.02372c-6.04896,1.69179 -9.84612,0.15589 -17.56511,-2.6067c-7.719,-2.76259 -12.27867,-4.10105 -14.07087,-7.63274c-1.72475,-3.39877 0.68337,-10.26601 3.25018,-17.07124c2.73325,-7.24646 3.74745,-11.68683 9.37316,-15.35406c5.06654,-3.30272 8.5734,-5.02781 13.22531,-7.67227c3.39996,-1.93277 4.80931,-4.84995 8.25427,-6.87372z" fill="#000000" stroke="#000000" stroke-width="1.5" stroke-linecap="butt"/><path d="M280.20609,134.05033c0,0 0.3799,1.51007 0.86078,4.31319c0.43922,2.56034 0.3753,4.76419 0.3753,4.76419l-0.96748,0.68685c0,0 -0.35218,-7.88859 -4.38223,-14.67608c-3.22236,-5.4271 -6.88295,-7.73303 -6.88295,-7.73303l3.77703,-1.78383c0,0 2.89942,2.06854 5.10494,6.26258c2.28379,4.34291 3.00329,7.53601 3.00329,7.53601z" data-paper-data="{&quot;index&quot;:null}" fill="#000000" stroke="none" stroke-width="1.5" stroke-linecap="butt"/><path d="M248.53361,143.0689c0.5704,0.21186 3.08357,1.39942 6.02385,2.59586c2.9637,1.20597 7.21362,2.29294 7.19412,2.4605c-0.02476,0.21265 -10.43477,0.22694 -13.67937,0.63224c-2.71902,0.33964 -6.68867,0.70564 -6.68867,0.70564c0,0 -7.10401,-1.16169 -13.27235,-2.44521c-4.94371,-1.02869 -10.39929,-1.66108 -10.40995,-1.75461c-0.01439,-0.12613 3.86835,-0.71071 6.82417,-1.39467c1.14585,-0.49661 5.43971,-1.48513 5.43971,-1.48513c0,0 4.95585,-0.27766 7.60826,0.579c2.84203,0.91791 2.83546,2.44556 3.0831,2.46906c0,0 1.18436,-1.74932 2.36886,-2.10461c1.18451,-0.35528 5.08219,-0.41633 5.50828,-0.25808z" fill="#000000" stroke="#000000" stroke-width="1.4" stroke-linecap="butt"/><path d="M229.88562,147.62249c5.09114,1.02674 11.91756,2.80736 11.91756,2.80736c0,0 5.78976,-1.55585 8.44678,-1.8344c2.05992,-0.21596 11.216,-0.70654 11.26026,-0.33377c0.04328,0.36447 -9.03119,12.90033 -21.14808,12.44714c-13.76954,-0.43578 -22.86459,-15.13559 -22.82675,-15.30472c0.03784,-0.16913 7.2591,1.19165 12.35024,2.2184z" fill="#000000" stroke="#000000" stroke-width="1.9" stroke-linecap="butt"/><path d="M231.20594,135.13062c-0.45168,-0.92986 1.38684,-4.60708 3.17011,-5.74968c1.59554,-1.02231 4.01788,-0.48961 5.09778,1.73356c1.07991,2.22319 1.39457,3.9942 -2.00675,5.45505c-2.8866,1.23977 -5.18125,0.78425 -6.26115,-1.43893z" fill="#000000" stroke="#000000" stroke-width="1.15" stroke-linecap="butt"/><path d="M259.84899,125.2219c0,0 -3.52595,1.82679 -6.40785,3.11901c-5.70664,2.55883 -25.44317,11.15667 -25.44317,11.15667l-1.31055,-2.67823c0,0 3.40254,-2.54543 8.05426,-5.16106c6.29651,-3.54049 14.45928,-7.5233 17.3256,-9.26462c2.717,-1.65061 4.74874,-3.30273 4.74874,-3.30273" fill="#000000" stroke="#000000" stroke-width="1.3" stroke-linecap="round"/><path d="M237.23905,103.37002c0,0 1.00859,-5.97311 5.37969,-9.46609c4.59925,-3.67528 8.11618,-5.56687 9.19748,-3.93389c1.08132,1.63297 -0.95692,3.47007 -5.88502,7.00832c-4.92811,3.53824 -8.69216,6.39167 -8.69216,6.39167z" data-paper-data="{&quot;index&quot;:null}" fill="#000000" stroke="#000000" stroke-width="1" stroke-linecap="butt"/><path d="M240.70135,101.46299c0,0 1.07242,-4.48298 5.71456,-7.57648c2.58953,-1.72567 2.99334,0.94372 2.99334,0.94372" fill="#000000" stroke="#000000" stroke-width="0.25" stroke-linecap="round"/><path d="M248.00494,101.26538c4.43122,-2.0736 10.15199,0.44763 12.42956,5.31469c2.27756,4.86705 0.12284,9.97622 -4.30838,12.04983c-4.43122,2.0736 -9.7122,0.13343 -11.98977,-4.73362c-2.27756,-4.86705 -0.56263,-10.55729 3.8686,-12.6309z" fill="#000000" stroke="#000000" stroke-width="1.4" stroke-linecap="butt"/><path d="M249.83778,105.30854c2.49867,-1.16927 5.47209,-0.09157 6.64135,2.40709c1.16927,2.49867 0.09157,5.47209 -2.40709,6.64135c-2.49867,1.16927 -5.47208,0.09157 -6.64135,-2.40709c-1.16927,-2.49867 -0.09157,-5.47209 2.40709,-6.64135z" fill="#000000" stroke="none" stroke-width="1.5" stroke-linecap="butt"/><path d="M259.82595,125.60271c4.48582,-1.95271 9.91365,0.13461 12.23716,4.91799c2.32351,4.78337 0.48484,10.07529 -3.91585,12.21292c-4.40069,2.13763 -9.8572,0.46809 -12.46114,-4.73044c-2.47682,-4.94474 -0.54494,-10.36116 4.13982,-12.40047z" fill="#000000" stroke="#000000" stroke-width="1.4" stroke-linecap="butt"/><path d="M261.76007,129.78025c2.53518,-1.23146 5.58865,-0.17459 6.82011,2.3606c1.23146,2.53518 0.17459,5.58865 -2.3606,6.82011c-2.53518,1.23146 -5.58864,0.1746 -6.82011,-2.3606c-1.23146,-2.53518 -0.17459,-5.58865 2.3606,-6.82011z" fill="#000000" stroke="none" stroke-width="1.5" stroke-linecap="butt"/><path d="M248.45373,100.97129c0,0 8.13684,-3.88178 12.56989,5.6798c3.98897,8.59161 -4.28668,12.70546 -4.28668,12.70546z" fill="#000000" stroke="#000000" stroke-width="1.15" stroke-linecap="butt"/><path d="M260.02255,125.08737c0,0 8.39975,-4.35461 13.08108,6.09522c3.94449,8.88365 -4.51094,12.80465 -4.51094,12.80465z" fill="#000000" stroke="#000000" stroke-width="1.15" stroke-linecap="butt"/><path d="M259.00148,99.772c0,0 3.10847,2.2362 5.56206,6.22817c2.71889,4.42361 3.45378,6.95853 3.45378,6.95853l-3.59271,2.0732c0,0 -1.06362,-3.74745 -3.03452,-7.43981c-2.63583,-4.93809 -4.19225,-5.35096 -6.46265,-8.97616c-1.9454,-3.10627 -3.08657,-5.99071 -3.08657,-5.99071l1.09646,-0.56139c0,0 1.50429,3.26617 2.34825,4.67783c0.69658,1.16513 2.5809,3.16625 2.5809,3.16625z" fill="#000000" stroke="none" stroke-width="1.5" stroke-linecap="butt"/><path d="M270.47987,147.51617c5.82765,-1.68636 8.53168,-2.1528 9.1468,-0.29336c0.61512,1.85943 -3.04584,3.4545 -8.77792,4.79764c-5.44775,1.27651 -10.7663,-1.6232 -10.7663,-1.6232c0,0 4.56978,-1.19471 10.39743,-2.88107z" data-paper-data="{&quot;index&quot;:null}" fill="#000000" stroke="#000000" stroke-width="1" stroke-linecap="butt"/><path d="M274.31844,146.11026c0,0 1.8486,1.96758 -1.10865,2.93626c-5.3013,1.73651 -9.48802,-0.19185 -9.48802,-0.19185" data-paper-data="{&quot;index&quot;:null}" fill="#000000" stroke="#000000" stroke-width="0.25" stroke-linecap="round"/><path d="M262.75531,130.05886c2.18353,-1.05693 4.85647,-0.05281 5.97253,2.2448c1.11696,2.29947 0.25156,5.02376 -1.93293,6.08487c-0.25259,0.12269 -0.51174,0.21777 -0.77431,0.28644" fill="none" stroke="#ffffff" stroke-width="1" stroke-linecap="butt"/><path d="M200.48067,184.1659c0,-0.16796 0.04141,-0.32624 0.11457,-0.4652l0.45388,-0.90776c-0.00212,-0.00455 0.0212,-0.0558 0.06151,-0.13814c0.10459,-0.44039 0.23705,-0.85065 0.37192,-1.18597c0.20642,-0.51322 0.4538,-1.0401 0.73334,-1.57317c0.04681,-0.21414 0.09581,-0.4277 0.15617,-0.63811c0.64074,-2.23353 1.72137,-5.29569 3.29226,-7.6061c0.37232,-1.18781 0.65567,-2.37564 0.80503,-3.55698c0.41408,-0.59837 0.76459,-1.24408 1.04173,-1.92739c0.00615,-0.01253 0.01225,-0.02509 0.01832,-0.03768c0.98627,-1.79847 2.87888,-3.5034 4.35321,-4.88865c0.49543,-0.46551 0.45042,-1.3268 0.90495,-1.82914c2.51647,-2.17374 5.3721,-4.20542 6.89667,-5.10559c1.6936,-0.99998 3.39892,-1.94334 5.11849,-2.84227c0.17533,-0.06006 0.34817,-0.12918 0.51777,-0.20955c3.08843,-0.05105 5.88662,-0.48963 9.02441,-0.48963c2.77552,0 5.94268,0.42612 8.67247,0.00749c4.1239,-0.63243 8.70351,-1.85225 12.60417,0.09808c1.74735,0.87367 3.23616,1.69506 4.76626,2.86044c1.09922,0.83721 2.81406,0.98882 3.8254,1.95564c1.17753,1.12569 2.12136,2.5123 3.24014,3.70301c0.18652,0.19851 0.43659,0.31025 0.70164,0.40213c1.68946,2.03388 3.34751,3.86576 3.7864,4.36735c1.16798,1.33483 2.36,2.97753 3.63503,4.61539c-0.17055,0.51567 -0.76517,0.63459 -0.76517,0.63459c-2.96008,0.5841 -5.03143,2.15364 -7.5867,3.60062c-3.5138,1.98977 -7.57696,3.47514 -11.05406,5.52227c-2.55206,1.50251 -4.70205,3.74294 -7.43736,5.1106c-4.49992,2.99994 -9.24708,5.57384 -13.88629,8.33177c-3.10871,1.84808 -5.03493,4.37113 -8.38648,6.04691c-3.65503,1.76057 -5.37018,4.93198 -8.07188,7.68158l-0.92575,0.92575l-0.33858,-0.33857l-0.95324,0.44271c0.02552,-0.3639 0.06352,-0.71153 0.11093,-1.04813l-0.42065,-0.21033l0.46287,-0.92575l0.14168,0.07084c0.20696,-1.02817 0.47665,-2.00081 0.70525,-3.09351c0.32923,-1.57368 -0.17857,-3.19786 -0.46287,-4.63214c-0.70512,-3.55731 -0.60133,-7.79762 -1.58537,-11.09455c-0.12678,-0.42477 -0.7665,0.44621 -1.16006,0.65019c-0.51925,0.26913 -1.0512,0.5148 -1.59161,0.73844c-2.09799,5.06965 -1.55861,10.44645 -1.55861,15.95644c0,1.74518 0.39521,4.0973 -0.02676,5.78427c-0.33633,1.34463 -1.8682,2.41855 -2.58052,3.71749c-2.15333,1.18087 -3.31234,2.36796 -4.95863,4.01461l-0.39888,0.79776c-0.16035,0.33825 -0.50491,0.57217 -0.90412,0.57217c-0.55229,0 -1,-0.44771 -1,-1v-1.38863h0.32165c-0.1336,-1.77829 0.09575,-3.45748 -0.2949,-5.32476c-0.14805,-0.70768 -0.29075,-1.41414 -0.42757,-2.12009c0.97822,-4.46309 0.26077,-10.09317 0.29179,-16.4306c0.00554,-1.13108 0.23416,-2.31573 0.55129,-3.52986c-0.26677,-0.17959 -0.44226,-0.48437 -0.44226,-0.83014v-1.38863h0.11215l-0.0854,-0.22975c0.04543,-0.09087 0.08659,-0.18112 0.12404,-0.27087c-0.06097,-0.15472 -0.10616,-0.32228 -0.13768,-0.49901c-0.28561,-0.17606 -0.47599,-0.49174 -0.47599,-0.85188z" fill="#000000" stroke="none" stroke-width="0.5" stroke-linecap="butt"/><path d="M217.68134,211.01272c0,0 13.24293,-10.64261 22.32103,-16.50406c10.34979,-6.68254 36.46425,-21.45179 36.46425,-21.45179" fill="none" stroke="#000000" stroke-width="2.5" stroke-linecap="round"/><path d="M210.73819,215.17861l-9.25753,7.8689" fill="none" stroke="#000000" stroke-width="2.5" stroke-linecap="round"/><path d="M265.43183,211.4756l-0.10557,0.01566c1.11255,2.34795 0.05647,5.53178 -0.37021,8.01342c-0.36246,2.10814 0.01291,4.63766 0.01291,6.78296c0,9.8747 0,19.74938 0,29.62408c0,0 0,0.303 -0.16679,0.57542l0.07688,0.78188c-3.25137,1.62568 -6.55389,3.13086 -10.00743,4.25855c-2.44484,0.00929 -4.58533,1.04805 -6.98114,1.39405c-5.94204,0.85812 -14.71949,2.58396 -20.40911,-0.06802c-0.02106,-0.00926 -0.04238,-0.01927 -0.06396,-0.03006c-0.31063,-0.15531 -0.45944,-0.36457 -0.52136,-0.57157c-0.07466,-0.20275 -0.08117,-0.45944 0.07415,-0.77007c0.00679,-0.01358 0.01368,-0.02684 0.02067,-0.03981l0.5451,-1.04986c5.42648,-4.85213 9.75997,-10.22701 14.36735,-15.76066c2.37917,-2.85747 4.31101,-6.16251 6.94315,-8.79465c5.44251,-8.21884 10.31739,-16.5243 14.69095,-25.27141c0,0 0.44722,-0.89443 1.34164,-0.44721c0.61856,0.30928 0.59545,0.83245 0.52236,1.12575c0.03043,0.13408 0.03043,0.23155 0.03043,0.23155z" fill="#ec0000" stroke="none" stroke-width="0.5" stroke-linecap="butt"/><path d="M219.06996,231.9164c-0.09119,0 -0.17408,-0.00832 -0.2494,-0.02343c-0.19419,0.03515 -0.34751,0.01441 -0.34751,0.01441l-0.03566,-0.18684c-0.36743,-0.29114 -0.36743,-0.80414 -0.36743,-0.80414c0,-3.66034 0.30821,-7.35862 -0.87444,-10.7928l-0.03473,-0.84041c-0.24297,-0.12832 -0.47947,-0.37814 -0.47947,-0.86445c0,-1 1,-1 1,-1c2.58077,0.03317 4.5907,1.04788 7.10333,1.40154c3.64152,0.51257 7.72195,-0.01291 11.41172,-0.01291c2.56795,0 5.70229,0.34322 7.98483,-0.86363c1.9982,-0.49955 3.6219,-1.35475 5.45425,-2.27093l0.90776,-0.45388c0.13897,-0.07316 0.29725,-0.11457 0.4652,-0.11457c0.55229,0 1,0.44771 1,1c0,0.16796 -0.04141,0.32625 -0.11457,0.46521l-0.45387,0.90775l-0.05621,-0.0281c-0.03658,0.09859 -0.07974,0.19479 -0.13112,0.28799c-0.63494,1.15168 -4.60071,2.35773 -5.8144,2.96458c-4.37603,2.18802 -8.51884,4.70779 -12.96053,6.94314c-3.79731,1.89865 -8.2827,2.91599 -12.61155,3.9028c-0.14252,0.19932 -0.38468,0.36866 -0.7962,0.36866z" fill="#ec0000" stroke="none" stroke-width="0.5" stroke-linecap="butt"/><path d="M264.43182,303.12509l-47.21337,0.46288l0.46288,-24.99532l46.7505,-13.88629z" fill="#ec0000" stroke="#ec0000" stroke-width="0.5" stroke-linecap="round"/></g></g></svg>