<svg version="1.1" xmlns="http://www.w3.org/2000/svg" xmlns:xlink="http://www.w3.org/1999/xlink" width="129.88181" height="237.38879" viewBox="0,0,129.88181,237.38879"><defs><radialGradient cx="242.3101" cy="137.61659" r="9.25" gradientUnits="userSpaceOnUse" id="color-1"><stop offset="0" stop-color="#000000"/><stop offset="1" stop-color="#000000" stop-opacity="0"/></radialGradient></defs><g transform="translate(-161.24631,-81.60929)"><g data-paper-data="{&quot;isPaintingLayer&quot;:true}" fill-rule="nonzero" stroke-linejoin="miter" stroke-miterlimit="10" stroke-dasharray="" stroke-dashoffset="0" style="mix-blend-mode: normal"><path d="M200.87341,317.15828c0,0 -0.63536,-94.38387 -0.79335,-118.01201c-0.05451,-8.15261 8.18688,-36.76129 40.20201,-36.9211c31.60235,-0.15775 39.85672,29.48704 39.84884,36.89673c-0.07659,46.24274 0.65429,117.98648 0.65429,117.98648l-10.49667,0.09614l-0.15882,-114.84311c0,0 0.07549,-3.0993 -2.81625,-3.15415c-3.43441,-0.06514 -2.94538,3.11562 -2.94538,3.11562l0.20548,114.86995l-48.21366,0.07222l-0.30539,-115.23309c0,0 0.27949,-2.919 -2.8856,-2.93443c-3.11083,-0.01515 -2.81569,2.90899 -2.81569,2.90899l0.35311,115.0668z" fill="#ffffff" stroke="#000000" stroke-width="2" stroke-linecap="butt"/><path d="M196.15968,317.73737c0,0 0.99042,-98.07645 2.59728,-127.96137c0.15865,-2.95066 1.64365,-6.54321 1.78539,-7.97605c0.33879,-3.4246 9.61733,-5.58042 9.61733,-5.58042l60.66666,-1.31951c0,0 7.47128,3.81093 7.97768,6.59304c0.04293,0.23585 1.892,5.54052 2.17287,10.49682c1.67151,29.49653 5.16354,126.13141 5.16354,126.13141l-47.31409,-0.05404z" fill="#111111" stroke="none" stroke-width="0" stroke-linecap="butt"/><path d="M276.15969,318.40001c0,0 3.65383,-1.70182 4.12339,-10.56341c1.36812,-25.81943 0.66829,-82.63679 0.32656,-100.77047c-0.2068,-10.97396 -9.11662,-31.49944 -9.11662,-31.49944c0,0 9.40019,5.70734 9.83104,8.64093c1.50716,10.26189 3.16896,67.58104 3.16896,67.58104v66.61137z" data-paper-data="{&quot;index&quot;:null}" fill="#070707" stroke="none" stroke-width="0" stroke-linecap="butt"/><path d="M195.95968,318.56668v-66.68618c0,0 1.6618,-57.38352 3.16896,-67.65694c0.43086,-2.93688 7.83104,-7.32354 7.83104,-7.32354c0,0 -6.90983,19.22144 -7.11662,30.20773c-0.34172,18.15405 -1.04156,75.03523 0.32656,100.88365c0.46956,8.87155 4.12339,10.57528 4.12339,10.57528z" fill="#070707" stroke="none" stroke-width="0" stroke-linecap="butt"/><path d="M266.27338,317.90001c0.56516,-2.44354 -0.51563,-4.79058 -0.09136,-6.7151c0.45292,-2.05451 -0.94379,-5.00517 -0.73197,-7.45157l23.62509,0.5c0,0 1.66667,3.0802 1.66667,4.85926c0,0.58533 -1.85566,1.78556 -1.72174,2.77689c0.18536,1.37225 2.35073,2.62244 2.08558,3.78404c-0.36665,1.60625 -2.0305,2.24647 -2.0305,2.24647z" data-paper-data="{&quot;index&quot;:null}" fill="#f0f0f0" stroke="#000000" stroke-width="0" stroke-linecap="butt"/><path d="M266.1327,318.15779c0,0 0.16197,-6.22846 0.2849,-8.62396c0.08484,-1.65332 -0.45156,-4.36715 -0.45156,-4.36715c0,0 4.53946,7.53164 6.85245,7.64584c3.91528,0.19332 15.64755,-0.09695 15.64755,-0.09695c0,0 1.67957,1.99263 2.03166,2.93407c0.3693,0.98747 -1.03166,2.68371 -1.03166,2.68371c0,0 -7.56128,0.44311 -11.40571,0.41419c-3.9314,-0.02958 -11.92763,-0.58974 -11.92763,-0.58974z" data-paper-data="{&quot;index&quot;:null}" fill="#d1d1d1" stroke="none" stroke-width="0" stroke-linecap="butt"/><path d="M192.82635,318.56668c0,0 -1.66384,-0.64021 -2.0305,-2.24647c-0.26515,-1.1616 1.90021,-2.4118 2.08558,-3.78404c0.13391,-0.99133 -1.72174,-2.19156 -1.72174,-2.77689c0,-1.77905 1.66666,-4.85926 1.66666,-4.85926h21.62509c0.21183,2.4464 0.81511,4.89705 1.26803,6.95156c0.42427,1.92452 0.84348,4.27156 1.40864,6.7151z" fill="#f0f0f0" stroke="#000000" stroke-width="0" stroke-linecap="butt"/><path d="M192.55968,318.16668c0,0 -1.40097,-1.61036 -1.03166,-2.54783c0.35209,-0.89378 2.03166,-2.78551 2.03166,-2.78551c0,0 11.73226,0.27557 15.64754,0.09204c2.31299,-0.10842 5.01912,-7.25871 5.01912,-7.25871c0,0 0.46359,2.40976 0.54843,3.97936c0.12293,2.27421 0.11823,8.35397 0.11823,8.35397z" fill="#d1d1d1" stroke="none" stroke-width="0" stroke-linecap="butt"/><path d="M255.47057,213.10046c-0.57113,0 -1.03411,-0.46299 -1.03411,-1.03411c0,-0.57113 0.46299,-1.03413 1.03411,-1.03413c0.57113,0 1.03411,0.463 1.03411,1.03413c0,0.57113 -0.46299,1.03411 -1.03411,1.03411z" fill="#000000" stroke="none" stroke-width="1.5" stroke-linecap="butt"/><path d="M250.2107,217.33605c-4.4635,-0.31439 -6.55245,-1.79392 -6.16985,-2.58011c0.11788,-0.24224 2.84645,1.06355 6.97038,1.3048c6.40897,0.37493 8.51033,-0.63173 8.51033,-0.63173v1.34616c0,0 -2.4135,1.04672 -9.31086,0.56089z" fill="#000000" stroke="#000000" stroke-width="0" stroke-linecap="butt"/><path d="M222.39795,212.06635c0,-0.57113 0.46299,-1.03413 1.03411,-1.03413c0.57113,0 1.03413,0.463 1.03413,1.03413c0,0.57113 -0.463,1.03411 -1.03413,1.03411c-0.57113,0 -1.03411,-0.46299 -1.03411,-1.03411z" fill="#000000" stroke="none" stroke-width="1.5" stroke-linecap="butt"/><path d="M228.69193,217.33605c-6.89736,0.48585 -9.31086,-0.56089 -9.31086,-0.56089v-1.34616c0,0 2.10136,1.00666 8.51033,0.63173c4.12393,-0.24126 6.85251,-1.54704 6.97039,-1.3048c0.3826,0.78618 -1.70634,2.26571 -6.16985,2.58011z" fill="#000000" stroke="#000000" stroke-width="0" stroke-linecap="butt"/><path d="M239.97239,273.88781c-0.81895,0 -1.48284,-0.66389 -1.48284,-1.48284c0,-0.81895 0.66389,-1.48284 1.48284,-1.48284c0.81895,0 1.48284,0.66389 1.48284,1.48284c0,0.81895 -0.66389,1.48284 -1.48284,1.48284z" data-paper-data="{&quot;index&quot;:null}" fill="#000000" stroke="none" stroke-width="1.5" stroke-linecap="butt"/><path d="M215.90914,317.17271v-119.20147c0,0 0.75721,-9.73105 0.75721,-14.63937c0,-4.498 -0.75721,-13.6872 -0.75721,-13.6872c0,0 2.67319,-2.35297 4.6557,-3.74807c1.98251,-1.3951 5.17197,-2.80371 5.17197,-2.80371c0,0 -0.6016,32.60902 14.55952,32.53867c15.43477,-0.07162 13.83154,-32.53867 13.83154,-32.53867c0,0 3.91276,1.51959 6.16585,2.94655c2.25309,1.42695 4.75379,3.60523 4.75379,3.60523c0,0 -0.75721,9.42463 -0.75721,14.19201c0,4.84193 0.75721,14.63937 0.75721,14.63937v118.69667z" fill="#000000" stroke="#000000" stroke-width="2" stroke-linecap="butt"/><path d="M256.89828,176.48333c0,5.20068 -7.42461,9.41667 -16.58333,9.41667c-9.15872,0 -16.58334,-4.21599 -16.58334,-9.41667c0,-5.20068 7.42462,-9.41666 16.58334,-9.41666c9.15872,0 16.58333,4.21598 16.58333,9.41666z" fill="#e6e6e6" stroke="none" stroke-width="0" stroke-linecap="butt"/><path d="M270.56494,167.81667c0,5.20068 -5.96954,9.41667 -13.33333,9.41667c-7.3638,0 -13.33333,-4.21599 -13.33333,-9.41667c0,-5.20068 5.96954,-9.41666 13.33333,-9.41666c7.36379,0 13.33333,4.21598 13.33333,9.41666z" fill="#ffffff" stroke="none" stroke-width="0" stroke-linecap="butt"/><path d="M235.56494,166.48333c0,5.20068 -5.96954,9.41667 -13.33333,9.41667c-7.3638,0 -13.33333,-4.21599 -13.33333,-9.41667c0,-5.20068 5.96954,-9.41666 13.33333,-9.41666c7.3638,0 13.33333,4.21598 13.33333,9.41666z" fill="#ffffff" stroke="none" stroke-width="0" stroke-linecap="butt"/><path d="M226.89828,157.14999c0,5.20068 -4.62639,9.41667 -10.33333,9.41667c-5.70694,0 -10.33334,-4.21599 -10.33334,-9.41667c0,-5.20068 4.6264,-9.41666 10.33334,-9.41666c5.70694,0 10.33333,4.21598 10.33333,9.41666z" fill="#e6e6e6" stroke="none" stroke-width="0" stroke-linecap="butt"/><path d="M274.06494,157.64999c0,5.20068 -4.62639,9.41667 -10.33333,9.41667c-5.70694,0 -10.33333,-4.21599 -10.33333,-9.41667c0,-5.20068 4.6264,-9.41666 10.33333,-9.41666c5.70694,0 10.33333,4.21598 10.33333,9.41666z" fill="#e6e6e6" stroke="none" stroke-width="0" stroke-linecap="butt"/><path d="M189.52465,170.77832c-1.89534,-1.29113 -35.61642,-19.74188 -21.61937,-51.36464c18.02249,-38.70149 48.18714,-17.87013 55.38805,-17.00862c1.04533,0.12506 7.89845,0.63555 14.99211,2.22828c9.82302,2.20555 20.94918,11.00455 20.94918,11.00455l-10.26645,-0.80589l3.11277,2.26236c0,0 8.90541,4.47515 11.95677,8.69502c3.26351,4.51328 4.88645,9.68126 4.88645,9.68126l-7.47645,-4.84502l4.19087,10.15978l-5.13063,-1.36044c0,0 7.7237,8.12677 0.2935,22.89752c-7.11256,13.87805 -18.08945,14.85135 -18.08945,14.85135l3.86904,2.68025l-9.44722,3.27064l7.39335,4.40027c0,0 -13.2202,1.39206 -14.79523,1.18822c-3.18337,-0.41198 -19.22091,-7.25225 -19.22091,-7.25225c0,0 0.48653,1.59489 0.36544,2.41579c-0.17474,1.18453 -1.31328,4.00957 -1.31328,4.00957c0,0 -2.23874,-4.54889 -6.19637,-7.93388c-5.66076,-4.84171 -13.68011,-9.06372 -13.84216,-9.17412z" fill="#000000" stroke="none" stroke-width="1.5" stroke-linecap="butt"/><path d="M210.24172,168.55868c-6.79885,-2.70181 -15.24455,-7.8735 -15.24455,-7.8735c0,0 3.93139,0.34055 5.31922,0.11424c0.91525,-0.14924 2.12354,1.07551 2.12354,1.07551c0,0 -0.34325,-2.50293 -1.81567,-5.4149c-1.59017,-3.14484 -2.58758,-8.00642 -2.30586,-9.64796c0.3678,-2.14305 3.9583,-1.22609 3.9583,-1.22609c0,0 -2.28085,-6.63721 -2.82446,-10.05825c-0.58657,-3.69133 -0.57588,-11.3406 -0.57588,-11.3406c0,0 1.7428,3.26475 2.49763,5.02672c0.80247,1.87317 18.777,12.9451 18.777,12.9451c0,0 -11.28912,-17.07555 -11.01822,-24.56167c-0.18316,-0.7464 0.43569,-4.0117 2.26612,-5.73397c2.00855,-1.88987 5.25502,-2.21243 5.25502,-2.21243c0,0 12.13859,5.56707 16.98808,8.30022c4.90077,2.88102 7.4056,6.46673 9.84376,8.35396c2.43816,1.88722 5.32547,3.07656 13.41823,9.06039c5.05044,3.73432 6.1707,7.67417 8.7318,15.46233c2.56111,7.78817 4.30552,12.20847 2.61934,15.79199c-1.62271,3.44866 -8.521,5.76632 -15.46784,7.92067c-7.39726,2.29402 -11.52425,4.22104 -17.8736,2.03408c-2.24203,-0.77224 -0.32569,2.90682 -2.24474,2.73811c-4.25137,-0.37376 -8.92734,-7.21798 -11.93296,-8.4622c-3.61354,-1.49588 -6.78124,-0.81625 -10.49423,-2.29175z" fill="#ffffff" stroke="#000000" stroke-width="1.5" stroke-linecap="butt"/><path d="M217.53279,117.84698c0,0 1.24388,-0.93668 3.64003,-2.46874c2.18862,-1.39935 4.24421,-2.1966 4.24421,-2.1966l1.00875,0.62467c0,0 -7.1322,3.38906 -11.82101,9.73936c-3.74904,5.07757 -4.4518,9.34646 -4.4518,9.34646l-3.11101,-2.7874c0,0 0.77972,-3.47527 3.78757,-7.13685c3.11461,-3.79154 5.77741,-5.69497 5.77741,-5.69497z" data-paper-data="{&quot;index&quot;:null}" fill="#000000" stroke="none" stroke-width="1.5" stroke-linecap="butt"/><path d="M218.73158,160.07973c0,0 1.05233,2.88842 -0.5813,3.61568c-0.44065,0.19617 -3.02472,-1.75668 -3.54143,-1.57721c-0.97967,0.3403 -2.07969,0.62399 -3.23805,0.75033c-1.16171,0.12669 -2.38208,0.09511 -3.59863,-0.19643c-5.72524,-1.37199 -9.19305,-4.0089 -8.56857,-5.8652c0.62447,-1.85631 3.32611,-1.37625 9.1452,0.33943c5.81909,1.71568 10.38279,2.9334 10.38279,2.9334z" data-paper-data="{&quot;index&quot;:null}" fill="#ffffff" stroke="#000000" stroke-width="1" stroke-linecap="butt"/><path d="M215.10006,158.51885c0,0 1.0057,1.73485 0.0438,2.19018c-0.4666,0.22087 -2.5997,-0.87756 -3.2317,-0.6723c-1.83709,0.59665 -4.28886,0.95799 -6.86649,0.09924c-2.95233,-0.98355 -0.52831,-4.41488 -0.52831,-4.41488" fill="none" stroke="#000000" stroke-width="0.25" stroke-linecap="round"/><path d="M226.24887,141.25372c-5.67694,-3.01982 -8.48509,-9.13692 -6.1375,-13.90854c2.34757,-4.7716 8.77322,-6.0199 14.545,-3.18025c5.77178,2.83965 8.98608,8.75173 6.50314,14.00947c-2.36172,5.00108 -8.98191,6.23305 -14.91063,3.07932z" fill="#000000" stroke="#000000" stroke-width="1.4" stroke-linecap="butt"/><path d="M201.70644,155.50541c0,0 -0.55578,-3.7887 0.60538,-8.32827c1.28669,-5.03042 9.08156,-7.28886 9.08156,-7.28886l1.09035,2.49921c0,0 -5.5391,1.97775 -6.82075,5.96214c-1.71408,5.32861 -0.92802,6.73398 -1.95311,10.88681c-0.87835,3.55837 -2.15676,6.38466 -2.15676,6.38466l-1.16602,-0.39721c0,0 1.30005,-3.35269 1.72715,-4.94098c0.3525,-1.31092 0.47937,-4.05665 0.47937,-4.05665z" fill="#000000" stroke="none" stroke-width="1.5" stroke-linecap="butt"/><path d="M234.49554,118.15562c-4.91022,-3.56301 -6.93917,-5.41036 -5.84965,-7.03787c1.08952,-1.62751 5.22341,-1.63894 9.8041,2.05947c4.35345,3.51494 4.70541,11.41377 4.70541,11.41377c0,0 -3.74964,-2.87236 -8.65986,-6.43537z" data-paper-data="{&quot;index&quot;:null}" fill="#ffffff" stroke="#000000" stroke-width="1" stroke-linecap="butt"/><path d="M231.02836,115.99c0,0 0.98071,-4.45985 3.56152,-2.72115c4.6265,3.11684 5.11285,9.39768 5.11285,9.39768" data-paper-data="{&quot;index&quot;:null}" fill="none" stroke="#000000" stroke-width="0.25" stroke-linecap="round"/><path d="M238.07956,136.31264c3.131,-6.32378 -4.88464,-13.64158 -4.88464,-13.64158c0,0 12.36702,6.17864 8.40863,14.78636c-4.39651,9.58078 -16.52522,3.68444 -16.52522,3.68444c0,0 9.82559,1.58479 13.00123,-4.82921z" data-paper-data="{&quot;index&quot;:null}" fill="#000000" stroke="#000000" stroke-width="1.15" stroke-linecap="butt"/><path d="M222.49899,139.73354c0,0 -8.06106,-4.0368 -3.23854,-13.40799c4.32983,-8.42497 12.65928,-4.42118 12.65928,-4.42118c0,0 -5.57372,1.26883 -8.67816,7.60568c-3.14873,6.42725 -0.74258,10.22349 -0.74258,10.22349z" fill="#000000" stroke="#000000" stroke-width="1.15" stroke-linecap="butt"/><g stroke="none" stroke-linecap="butt"><path d="M262.12244,137.52999c0,0 12.61745,9.00972 16.09248,18.3701c1.45888,3.9296 0.24279,8.09496 -2.59944,13.9674c-2.20851,4.56299 -5.6951,8.21641 -9.09483,9.95903c-11.43676,5.86229 -27.39667,-2.5386 -27.39667,-2.5386c0,0 -2.04507,-11.80172 0.85439,-16.81406c0.95354,-4.01052 7.90117,-4.9073 7.90117,-4.9073c0,0 -3.5491,-5.35749 -0.37875,-8.51688c6.0184,-6.38456 14.62159,-9.51973 14.62159,-9.51973z" fill="#000000" stroke-width="0"/><path d="M241.09038,166.72195c0.18244,-5.87371 0.43241,-6.14971 3.23213,-7.57298c2.12517,-1.00666 6.46975,-3.35724 6.94532,-2.30238c0.27272,0.56875 -8.2996,14.74489 -10.02822,16.40538c-1.36256,1.30948 -1.41697,1.35767 -0.77907,-0.16344c0.34456,-0.86867 0.54378,-3.77718 0.6298,-6.36652z" data-paper-data="{&quot;noHover&quot;:false,&quot;origItem&quot;:[&quot;Path&quot;,{&quot;applyMatrix&quot;:true,&quot;segments&quot;:[[[356.58247,303.92478],[0,0],[-0.85156,0.32734]],[[354.44185,304.549],[0.33594,-0.02282],[-0.59374,0.03044]],[[354.51217,304.77738],[-0.64064,-0.19794],[0.8125,0.25122]],[[360.34811,305.42444],[-0.14062,0.15226],[0.26562,-0.27406]],[[359.37155,303.7573],[0.66406,0.44914],[-0.90626,-0.57856]],[[356.58249,303.92478],[1.92968,-0.74604],[0,0]]],&quot;closed&quot;:true,&quot;fillColor&quot;:[0,0,0,1]}]}" fill="#ec0000" stroke-width="0.5"/><path d="M249.84576,157.2316c-2.18007,-4.16296 -1.20716,-9.28448 4.20281,-13.09333c1.93169,-1.34333 3.94987,-2.92075 4.30372,-3.63996c1.73345,-2.96188 -0.71095,5.17116 -2.98706,9.7975c-6.62367,10.86534 -5.51948,6.93579 -5.51948,6.93579z" data-paper-data="{&quot;noHover&quot;:false,&quot;origItem&quot;:[&quot;Path&quot;,{&quot;applyMatrix&quot;:true,&quot;segments&quot;:[[[362.06679,304.89918],[0,0],[0,0.62422]],[[364.16055,305.50058],[-2.07032,0.02282],[1.85938,0]],[[367.63711,305.05144],[1.23438,0.07612],[-0.28906,0]],[[365.77773,304.40438],[0.7422,0.35018],[-2.09374,-0.9744]],[[362.06679,304.8992],[0,-1.24846],[0,0]]],&quot;closed&quot;:true,&quot;fillColor&quot;:[0,0,0,1]}]}" fill="#ec0000" stroke-width="0.5"/><path d="M246.89149,169.99762c0.54756,-0.55148 3.82668,-6.16261 7.00396,-11.89085c5.45618,-9.96697 5.78399,-10.24602 5.16904,-6.80627c-1.22942,6.54169 -7.82846,17.06889 -12.05967,19.04332c-1.02755,0.46021 -0.72199,-0.00402 0.1979,-0.80689z" data-paper-data="{&quot;noHover&quot;:false,&quot;origItem&quot;:[&quot;Path&quot;,{&quot;applyMatrix&quot;:true,&quot;segments&quot;:[[[356.46525,305.91924],[0,0],[-0.40624,-0.14464]],[[356.37151,305.99536],[-0.3125,-0.22076],[1.3125,0.89828]],[[364.25433,306.71856],[-2.3125,0.5481],[1.21094,-0.29688]],[[361.23089,306.24658],[4.09376,0.15226],[-2.35938,-0.09896]],[[356.46527,305.91924],[0.26562,0.07612],[0,0]]],&quot;closed&quot;:true,&quot;fillColor&quot;:[0,0,0,1]}]}" fill="#ffffff" stroke-width="0.5"/><path d="M254.83974,170.21245c0.77689,-0.84912 2.67392,-4.08876 4.41692,-7.07006c1.8482,-3.19512 3.67187,-6.99407 3.82978,-8.60646c0.50034,-3.37541 1.06964,-3.53237 1.77478,-0.52963c1.01787,4.55692 -5.2073,15.63193 -9.56193,17.1835c-1.73356,0.54749 -1.75566,0.53383 -0.45963,-0.97736z" data-paper-data="{&quot;noHover&quot;:false,&quot;origItem&quot;:[&quot;Path&quot;,{&quot;applyMatrix&quot;:true,&quot;segments&quot;:[[[357.66061,308.1422],[0,0],[-0.69532,-0.15226]],[[357.41843,308.39342],[-0.45314,-0.40348],[1.19532,0.98962]],[[364.30125,308.6903],[-1.3125,0.89828],[0.85938,-0.6014]],[[363.84813,308.28684],[1.17188,-0.31974],[-0.54688,0.17508]],[[360.63719,308.4391],[1.32812,0.07612],[-1.24218,-0.07612]],[[357.66063,308.14222],[0.39844,0.09896],[0,0]]],&quot;closed&quot;:true,&quot;fillColor&quot;:[0,0,0,1]}]}" fill="#ffffff" stroke-width="0.5"/><path d="M241.24212,176.45769c0.08609,-0.17497 1.73441,-1.16997 2.97214,-1.88891c1.298,-0.6169 4.70475,-1.37588 7.5252,-1.60589c7.54877,-0.63193 8.55948,-1.57659 12.27013,-9.11874c3.58635,-7.2895 3.84059,-8.79496 0.2582,-14.37213c-2.30363,-3.57187 -3.4835,-8.62812 -2.26867,-8.85132c0.74113,-0.21482 6.43029,4.3258 8.9256,7.1711c2.75584,3.04587 4.87362,8.01073 4.92308,11.56005c0.10042,3.50193 -4.57892,13.62521 -7.68934,16.80294c-3.96362,4.01349 -9.88363,4.42908 -21.98114,1.78496c-2.76527,-0.61205 -5.02115,-1.30693 -4.93509,-1.48186z" data-paper-data="{&quot;noHover&quot;:false,&quot;origItem&quot;:[&quot;Path&quot;,{&quot;applyMatrix&quot;:true,&quot;segments&quot;:[[[353.46525,305.2722],[0,0],[-0.07032,0]],[[353.77775,306.81754],[-0.24218,-0.84498],[1.07032,3.69208]],[[357.82463,312.52694],[-1.9297,-0.5481],[1.52344,0.4263]],[[364.34807,312.37468],[-1.11718,0.50244],[1.14062,-0.49482]],[[367.27775,309.51236],[-0.54686,1.17234],[0.52344,-1.07336]],[[368.18401,306.12478],[0.1875,0.1751],[-0.26562,-0.3045]],[[365.87151,307.89088],[0.78906,-1.11904],[-1.23438,1.74328]],[[361.11369,309.88536],[2.9297,0],[-3.03124,0]],[[356.08245,307.61682],[1.40624,1.99448],[-0.52344,-0.74602]],[[354.37151,305.74414],[0.40626,0.27404],[-0.42968,-0.2436]],[[353.46525,305.27216],[0.07032,0],[0,0]]],&quot;closed&quot;:true,&quot;fillColor&quot;:[0,0,0,1]}]}" fill="#970000" stroke-width="0.5"/></g><path d="M248.8445,156.7555c-0.45636,0.92757 -4.48743,1.73536 -6.48441,1.02992c-1.78675,-0.63117 -2.85423,-2.86992 -1.76315,-5.08763c1.0911,-2.21772 2.2954,-3.55382 5.53736,-1.76701c2.75136,1.51643 3.8013,3.607 2.71021,5.82472z" fill="#ffffff" stroke="#000000" stroke-width="1.15" stroke-linecap="butt"/><path d="M223.43205,140.2384c0,0 3.60729,1.66041 6.39714,3.1409c5.52439,2.93163 24.43181,13.22545 24.43181,13.22545l-1.30852,2.67922c0,0 -4.09859,-1.12161 -9.01986,-3.18587c-6.66137,-2.79416 -14.81807,-6.78937 -17.95276,-7.98172c-2.97139,-1.13025 -5.52307,-1.71879 -5.52307,-1.71879" fill="#ffffff" stroke="#000000" stroke-width="1.3" stroke-linecap="round"/><path d="M177.30339,124.01913l-12.13379,-39.27316l32.48596,15.94768c0,0 -1.80083,6.91279 -8.50834,13.72152c-7.21276,7.3216 -11.84383,9.60396 -11.84383,9.60396z" fill="#970000" stroke="none" stroke-width="0" stroke-linecap="butt"/><path d="M177.54206,123.90129l-12.39527,-38.9877c0,0 8.87187,20.33338 12.30922,25.52021c2.01074,3.03414 10.30133,5.54061 10.30133,5.54061c0,0 -3.55723,3.13958 -5.33869,4.52198c-1.60523,1.24563 -4.87659,3.4049 -4.87659,3.4049z" fill="#ec0000" stroke="none" stroke-width="0" stroke-linecap="butt"/><path d="M169.16372,82.1553c2.69016,1.32353 3.7698,4.63465 2.41144,7.39561c-1.35836,2.76096 -4.64034,3.92622 -7.3305,2.60269c-2.69016,-1.32353 -3.7698,-4.63466 -2.41144,-7.39561c1.35836,-2.76096 4.64034,-3.92622 7.3305,-2.60269z" fill="#ffffff" stroke="#000000" stroke-width="0" stroke-linecap="butt"/><path d="M194.51965,98.87018c0.37629,0.64877 -0.27249,1.02507 -0.27249,1.02507l-0.41513,0.2398c-1.27748,0.82107 -2.67064,1.477 -3.84761,2.44225c-1.36664,1.1208 -1.05387,4.35358 -1.26604,5.88298c-0.47576,1.46348 -1.2362,3.93109 -2.89948,4.45757c-2.01142,0.63669 -4.64616,-0.51735 -6.50342,0.49275c-1.6775,0.91232 -2.0449,4.46704 -2.26902,6.11128c0,0 -0.10129,0.74313 -0.84442,0.64184c-0.74313,-0.10129 -0.64184,-0.84442 -0.64184,-0.84442c0.30125,-2.21022 0.83012,-5.97936 3.012,-7.21159c2.01043,-1.13539 4.60848,-0.12419 6.77836,-0.61487c0.99049,-0.22398 1.64568,-2.57393 1.90577,-3.3678c0.27879,-2.0917 -0.0087,-5.07822 1.71999,-6.65846c1.16971,-1.06926 2.72103,-1.73499 4.04227,-2.59182l0.47599,-0.27705c0,0 0.64877,-0.37629 1.02506,0.27248z" fill="#ffffff" stroke="none" stroke-width="0.5" stroke-linecap="butt"/><path d="M186.02067,95.54346c-0.21605,0.43915 -0.57768,0.45075 -0.80289,0.40579c-1.13427,0.4659 -1.41688,1.29895 -1.79588,2.54832c-0.19542,2.77119 -0.23961,6.92106 -3.28274,8.34239c-1.25307,0.58527 -2.56706,-0.18153 -3.81358,0.23742c-0.67912,0.22826 -1.20459,2.72178 -1.35646,3.15094c0,0 -0.07535,0.21295 -0.26022,0.36376l0.16759,0.75829c0,0 0.16186,0.73232 -0.57047,0.89418c-0.73232,0.16186 -0.89419,-0.57047 -0.89419,-0.57047l-0.19741,-0.89318c0,0 -0.11696,-0.52917 0.29777,-0.78728c0.00265,-0.15217 0.04284,-0.26569 0.04284,-0.26569c0.43727,-1.23571 0.80412,-3.40745 2.17518,-4.02734c1.12902,-0.51044 2.6994,0.34117 3.72253,-0.19436c2.50306,-1.31019 2.30376,-4.95689 2.49458,-7.28366c0.55466,-1.85665 1.12714,-3.12185 3.03046,-3.78321l0.70101,0.10007c0,0 0.67296,0.33109 0.34187,1.00405z" fill="#ffffff" stroke="none" stroke-width="0.5" stroke-linecap="butt"/><path d="M186.58151,97.19662c0.35009,-0.44874 0.90212,-0.17716 0.90212,-0.17716l0.01969,0.01094c0.24155,0.04618 0.47917,0.16871 0.69493,0.38605l0.28681,0.15933c0.03734,0.11653 0.0644,0.23564 0.082,0.356c0.35183,0.69439 0.13134,1.34039 -0.32818,1.71807c-0.58564,1.07367 -1.76803,1.55874 -2.53151,-0.12156c-0.40833,-0.89868 0.12003,-1.91917 0.87415,-2.33168z" fill="#000000" stroke="none" stroke-width="0.5" stroke-linecap="butt"/><path d="M186.17118,108.14973c0.17062,1.13902 -0.29006,1.2833 -0.85692,1.09217c-0.34938,0.4693 -0.91332,0.19185 -0.91332,0.19185l-0.98877,-0.66962c-0.07208,-0.20451 -0.11208,-0.43616 -0.12178,-0.67586c-0.04272,-0.21932 -0.01907,-0.46795 0.05612,-0.70489c0.22159,-1.10472 1.06265,-1.98061 2.34353,-0.69857c0.52973,0.5302 0.62807,1.04387 0.48113,1.46491z" fill="#000000" stroke="none" stroke-width="0.5" stroke-linecap="butt"/><path d="M177.83682,111.84899c-0.00975,0.02491 -0.01664,0.03888 -0.01664,0.03888l-0.85657,0.67308c-0.42633,-0.1062 -1.02829,0.04218 -1.27899,-0.31862c-0.39844,-0.57343 -0.13439,-2.7908 1.21728,-2.51977c0.65512,0.13137 1.47832,0.80198 1.37179,1.4616c-0.04141,0.25646 -0.20847,0.48547 -0.43687,0.66483z" fill="#000000" stroke="none" stroke-width="0.5" stroke-linecap="butt"/><path d="M169.87281,83.44227c1.56291,0.76894 2.2143,3.86328 1.44536,5.42618c-0.76894,1.56291 -2.32241,2.62946 -2.32241,2.62946c0,0 1.38695,-3.36252 1.12336,-5.01437c-0.21733,-1.36188 -2.59305,-4.19585 -2.59305,-4.19585c0,0 0.78384,0.38564 2.34675,1.15458z" fill="#c3c3c3" stroke="none" stroke-width="0" stroke-linecap="butt"/><path d="M173.26548,104.87314c0.18043,0.69512 0.3155,1.39358 0.3247,2.09883c0,0 0.00321,0.49998 -0.49678,0.5032c-0.49998,0.00321 -0.50321,-0.49677 -0.50321,-0.49677c0.00011,-0.07113 -0.00113,-0.14238 -0.00361,-0.21375c-0.03271,0.00087 -0.06772,-0.00102 -0.10516,-0.00612c-0.49542,-0.06752 -0.42789,-0.56295 -0.42789,-0.56295l0.08541,-0.62666c0.0358,-0.26153 0.08032,-0.52059 0.12693,-0.77906c-0.15835,-0.61648 -0.35357,-1.23503 -0.53557,-1.85021c-0.66537,0.09816 -1.20696,0.00035 -1.43744,-0.45498c-0.17065,-0.33713 0.24562,-1.34061 0.83996,-2.32526c-0.06513,-0.49132 -0.11756,-1.00105 -0.06068,-1.0341c0.21813,-0.12668 0.50441,-0.14166 0.82753,-0.08732c0.58223,-0.74729 1.17628,-1.27571 1.51539,-1.13823c0.55921,0.22672 0.70091,1.03036 0.66131,1.97888c0.43357,0.20315 0.82361,0.37854 1.10676,0.44043l0.04695,0.0414l0.00887,-0.01802l0.53838,0.26487c0.24778,0.1219 0.34982,0.4216 0.22792,0.66937c-0.06095,0.12389 -0.16636,0.21134 -0.28747,0.25259l-0.94663,0.32233l-0.01449,-0.04258c-0.31353,0.16098 -0.66053,0.32952 -1.01914,0.48682c-0.11582,0.58015 -0.22527,1.06948 -0.26316,1.34867c-0.05656,0.41325 -0.1349,0.82032 -0.20883,1.2286zM172.62962,101.55864c0.02568,-0.31788 0.05554,-0.64368 0.09104,-0.95395c-0.1382,-0.0647 -0.26844,-0.13385 -0.38574,-0.20742c-0.06651,0.13083 -0.13289,0.2682 -0.20092,0.40557c0.08888,0.27486 0.17567,0.55607 0.23856,0.78677c0.09147,-0.01901 0.17358,-0.0304 0.23998,-0.03079c0.00571,-0.00003 0.01139,-0.0001 0.01708,-0.00018zM174.15085,101.09597c-0.06238,-0.01636 -0.12646,-0.03362 -0.19177,-0.0518c-0.00616,0.04201 -0.01248,0.08398 -0.01894,0.12588c0.06923,-0.02663 0.13925,-0.05172 0.21071,-0.07409zM171.33793,101.93064c0.03214,-0.01312 0.06651,-0.02692 0.10269,-0.04119c-0.00251,-0.01014 -0.005,-0.02029 -0.00747,-0.03043c-0.03096,0.02608 -0.06267,0.05004 -0.09521,0.07161z" fill="#000000" stroke="none" stroke-width="0.5" stroke-linecap="butt"/><path d="M174.04846,102.98874c0.22073,-0.44864 0.66937,-0.22792 0.66937,-0.22792l0.53838,0.26487c0.03399,0.01697 0.0673,0.03497 0.09998,0.05396c0.1263,0.04451 0.21002,0.12716 0.21002,0.12716c0.02233,0.02257 0.04466,0.04513 0.06699,0.0677c0.06508,0.0541 0.12742,0.11201 0.18743,0.17301l0.07617,-0.09003l0.62155,0.52587c0.17748,0.14364 0.23873,0.39569 0.13368,0.6092c-0.1219,0.24778 -0.4216,0.34982 -0.66937,0.22792l-0.53838,-0.26487l0.01585,-0.03221l-0.08487,-0.00893c-0.1546,-0.14989 -0.3092,-0.29977 -0.4638,-0.44966c-0.03303,-0.01268 -0.06533,-0.02663 -0.09671,-0.04181l-0.53838,-0.26487c0,0 -0.44864,-0.22073 -0.22792,-0.66937z" fill="#000000" stroke="none" stroke-width="0.5" stroke-linecap="butt"/><path d="M177.76512,102.69979c0.00936,-0.02983 0.02174,-0.06081 0.03756,-0.09297c0.13142,-0.26713 0.34364,-0.29695 0.49385,-0.27736c0.05938,0.00538 0.11881,0.02154 0.17552,0.04944c0.02199,0.01082 0.04284,0.02305 0.06248,0.03651l0.24753,0.14461l0.44188,0.43623c0.15558,0.14658 0.20488,0.38282 0.10558,0.58464c-0.1219,0.24778 -0.4216,0.34982 -0.66937,0.22792l-0.71783,-0.35316c0,0 -0.44864,-0.22073 -0.22792,-0.66937c0.01582,-0.03216 0.03281,-0.06088 0.05073,-0.08648z" fill="#000000" stroke="none" stroke-width="0.5" stroke-linecap="butt"/><path d="M260.82634,318.65002c-0.75,0 -0.75,-0.75 -0.75,-0.75l0.03849,-0.09616c-1.40413,-4.21241 -4.11039,-7.55097 -5.35176,-12.06486c-0.59325,-2.15721 0.32651,-4.69944 0.31327,-6.83898c0,-0.45941 0.23485,-4.5038 -0.25208,-4.66251c-1.96408,-0.64018 -3.94474,3.39986 -6.01848,2.32377c-0.73774,-0.38283 -1.15398,-1.71154 -1.36619,-2.45157c-0.7427,-2.59 -0.86988,-7.11421 -0.02023,-9.66316c-0.01644,-2.05937 -0.40144,-3.76663 -0.67074,-5.78823c-0.04546,-0.34122 0.24703,-1.07065 -0.0946,-1.02837c-3.10187,0.38392 -6.06272,9.80241 -9.14303,4.64651c-0.26123,-0.43725 -0.45952,-0.90918 -0.68465,-1.36606c-0.45709,-0.92764 -0.73622,-1.97634 -0.75,-3.01038c0,-7.95407 3.78743,-17.53785 0.04658,-25.07312c-0.17236,-1.88858 -1.88969,-0.28354 -3.02522,0.47123c-1.86552,1.23997 -5.16621,3.356 -7.55838,2.2948c-3.70811,-1.64496 -0.11337,-8.06131 -0.12965,-10.69291c0,-2.17771 -0.00861,-7.48435 -1.93723,-9.00541c-0.18971,-0.14962 -2.10698,0.9235 -2.35909,1.03165c-2.34924,1.00777 -3.79841,2.299 -4.94953,4.6425c0,0 -0.33541,0.67083 -1.00623,0.33542c-0.67082,-0.33541 -0.33541,-1.00624 -0.33541,-1.00624c1.64736,-3.24578 3.59168,-4.14497 6.67464,-5.67166c0.94492,-0.46793 1.39778,-1.35201 2.68341,-0.65419c0.80257,0.43562 1.09618,1.64754 1.35762,2.42408c0.90673,2.6932 1.37182,5.07126 1.37182,7.90384c-0.01254,2.43466 -1.33334,4.58234 -1.33334,7c0,0.38045 -0.20012,2.08426 0.53701,2.30709c3.6207,1.09453 9.70124,-6.86336 11.4164,-1.90063c3.88834,7.71527 0.04658,17.45979 0.04658,25.59354c-0.0139,0.80428 0.22706,1.62252 0.59164,2.33956c0.01319,0.02594 0.96977,2.4667 1.48605,2.26383c2.63054,-1.03366 3.50987,-7.45247 7.34463,-6.33334c2.26867,0.66208 1.91404,6.61002 1.90133,8.51674c-0.67555,2.02664 -1.21513,8.9028 0.61357,10.55194c0.06035,0.05442 3.22243,-1.99508 3.47379,-2.06869c4.01328,-1.17517 3.58898,2.89922 3.58898,5.72994c-0.01011,1.96389 -0.93973,4.53405 -0.35339,6.49435c1.32635,4.43439 3.91371,7.73154 5.31491,11.93515l0.03848,0.5705c0,0 0,0.75 -0.75,0.75z" fill="#ec0000" stroke="none" stroke-width="0.5" stroke-linecap="butt"/><path d="M256.49509,318.90417c-0.67082,0.33541 -1.00623,-0.33542 -1.00623,-0.33542l-0.19285,-0.47174c-2.12723,-2.12723 -3.19347,-6.16744 -3.21967,-9.197c0,-1.25628 0.45923,-5.49234 -0.68853,-6.39157c-1.19718,-0.93795 -3.31527,1.63207 -4.96253,0.692c-3.57451,-2.03995 -3.27844,-8.31851 -3.38314,-11.74345c-0.15474,-0.77667 0.08829,-5.26983 -0.83615,-5.53074c-1.94073,-0.54775 -3.8745,1.18676 -5.42597,1.66667c-1.07809,0.33348 -3.25292,-0.06218 -4.27724,-0.55731c-2.869,-1.3868 -2.75977,-4.83766 -2.75977,-7.80227c0,-3.78978 0.42441,-7.85686 -0.00326,-11.61881c-0.07507,-0.66031 -0.0679,-3.28087 -0.64103,-3.7432c-0.96626,-0.77947 -3.92815,1.20225 -4.7217,1.41316c-3.57028,0.94893 -4.40474,-2.16732 -4.94221,-4.85865c-1.32079,-4.06098 0.81101,-8.1899 0.22812,-12.27997c-0.03266,-0.22916 -0.33026,-2.75283 -0.60844,-2.97076c-1.08699,-0.85162 -2.61081,1.51958 -2.84995,2.29541c0,0 -0.23717,0.71151 -0.94868,0.47434c-0.71151,-0.23717 -0.47434,-0.94869 -0.47434,-0.94869c1.15971,-3.29826 5.11891,-4.8333 6.10607,-0.61028c1.05483,4.51253 -1.49335,9.30603 -0.00301,13.65496c0.15767,0.78719 0.37638,3.00332 1.07775,3.60747c1.96325,1.69112 5.66751,-2.85305 7.925,-1.05295c1.43581,1.1449 0.86006,1.97549 1.01789,3.38949c0.48848,4.37621 0.33781,8.82079 0.33781,13.2485c0,2.83149 -0.28616,5.89075 2.75418,6.60305c0.29764,0.06973 1.75818,0.53843 2.20881,0.37071c1.70047,-0.63287 4.43037,-2.6345 6.57403,-1.66667c2.18502,0.98651 1.37209,4.85112 1.7522,6.74434c0.11509,3.31971 -0.13831,7.26327 2.09924,9.99656c1.60869,1.9651 3.49957,-1.56843 5.63342,0.01024c1.7766,1.31437 1.31146,5.78142 1.31146,7.60843c-0.0287,2.60756 0.95635,6.31235 2.78033,8.13634l0.47382,0.86158c0,0 0.33541,0.67082 -0.33541,1.00624z" fill="#ec0000" stroke="none" stroke-width="0.5" stroke-linecap="butt"/><path d="M233.53209,234.27953l0.49125,0.09016c0.83332,0.87788 2.12341,1.01207 2.96152,1.69083c1.87811,1.52105 1.93081,3.17331 1.90475,5.34514c-1.70364,3.45745 -3.98227,4.58052 -7.65457,3.19859c-1.01332,-0.38133 -1.41661,-0.28735 -2.04669,-1.30994c-1.03263,-1.67591 -0.45324,-5.39655 0.27841,-7.01464c0.53444,-1.18195 1.98348,-1.37741 2.82924,-2.24332c0,0 0.53033,-0.53033 1.06066,0c0.0817,0.0817 0.13824,0.16341 0.17541,0.24318z" fill="#ec0000" stroke="none" stroke-width="0.5" stroke-linecap="butt"/><path d="M244.07966,260.48251c0.0539,-0.66583 0.74669,-0.66583 0.74669,-0.66583l0.74936,0.12596c2.90545,1.949 3.37208,4.39737 3.31391,7.79635c-0.67656,1.39077 -2.54816,5.09036 -4.22429,5.55762c-2.10036,0.58553 -4.05552,-3.18479 -4.25002,-4.6383c-0.44007,-3.28856 0.6436,-6.85301 3.66436,-8.17581z" fill="#ec0000" stroke="none" stroke-width="0.5" stroke-linecap="butt"/><path d="M218.26267,306.71682c1.28735,-5.36095 1.94464,-10.89411 2.57956,-16.41232c-0.87832,-1.25493 -1.87043,-2.39217 -3.07685,-2.7665c-0.43998,-0.62229 -1.54096,-1.13751 -1.31992,-1.86687c0.21759,-0.71799 1.38523,-0.59902 2.11715,-0.76378c0.91234,-0.20538 1.91915,-0.25697 2.94685,-0.24662c0.12958,-1.02943 0.26568,-2.05607 0.41233,-3.0787c0.21189,-1.4776 0.41997,-2.8878 0.45552,-4.38122l0.03253,-1.31703c0.00863,-0.40672 0.34104,-0.73377 0.74983,-0.73377c0.3118,0 0.57916,0.19027 0.69231,0.46104l0.60225,1.35507l-0.203,0.09022c1.27363,2.41493 1.62603,5.00874 2.31546,7.75322c0.77806,-0.00124 1.90545,0.01908 2.03151,0.14868c1.17056,1.20344 0.74526,2.29213 0.53475,3.63257c-0.13234,0.84265 -0.32735,1.68167 -0.56786,2.51567c1.4484,3.97535 3.13974,7.88252 4.6154,11.82707c0.66708,1.33416 1.17377,2.68099 1.69531,4.07693l0.00463,0.04267l0.00686,-0.00171l0.32926,1.31702c0.01726,0.06314 0.02647,0.1296 0.02647,0.19822c0,0.41422 -0.33578,0.75 -0.75,0.75c-0.35692,0 -0.65562,-0.24933 -0.73141,-0.58332l-0.32176,-1.28704c-0.0094,-0.02503 -0.0188,-0.05004 -0.0282,-0.07504c-2.74703,-2.88246 -5.11972,-6.31505 -7.4421,-9.66812c-0.38462,0.84888 -0.76844,1.68777 -1.13069,2.51499c-1.61299,3.22573 -2.38471,6.64435 -4.57346,9.55668l-0.39892,1.04334c-0.10338,0.29052 -0.38079,0.4985 -0.70679,0.4985c-0.35692,0 -0.65562,-0.24933 -0.73141,-0.58332l-0.32953,-1.31811l0.15999,-0.04c-0.11106,-0.3737 -0.18039,-0.75472 -0.18238,-1.14191v-1c0,0 0,-0.29639 0.18632,-0.51653zM222.12035,292.24567c-0.61147,5.19054 -1.29596,10.37684 -2.544,15.41281v0.48115c1.69906,-2.68167 2.46194,-5.6731 3.90415,-8.55775c0.478,-1.09322 0.98865,-2.19999 1.48913,-3.31871c-0.71789,-1.02884 -1.43543,-2.04131 -2.16227,-3.01864c-0.22529,-0.30293 -0.45342,-0.64148 -0.68701,-0.99885zM223.0142,284.70919c0.70263,0.03332 1.39834,0.0747 2.06384,0.09503c-0.14122,-0.53454 -0.2755,-1.07127 -0.40203,-1.61043c-0.22052,-0.93968 -0.66872,-2.13025 -1.00901,-3.30996c-0.07711,0.63269 -0.16789,1.26602 -0.2604,1.91114c-0.13888,0.96839 -0.26857,1.94012 -0.3924,2.91423zM231.24688,302.06488c-1.12641,-2.92858 -2.31005,-5.84043 -3.4066,-8.78034c-0.33929,0.91077 -0.71579,1.8139 -1.10632,2.70751c1.49149,1.98591 2.96137,3.99059 4.44366,5.98109c0.02271,0.0305 0.04581,0.06108 0.06927,0.09174zM225.69178,294.61305c0.49701,-1.16931 0.96072,-2.35059 1.34373,-3.54206c-0.55483,-1.57149 -1.07485,-3.15408 -1.5384,-4.75449c-0.89372,-0.00096 -1.78778,-0.00526 -2.68176,-0.00369c-0.16261,1.34121 -0.31755,2.68589 -0.47338,4.03148c0.02161,0.02729 0.04346,0.05452 0.06556,0.08167c1.11816,1.37415 2.20875,2.77386 3.28425,4.18708zM218.91919,286.4091c1.00783,0.4586 1.6007,1.19526 2.13942,2.01587c0.08115,-0.70148 0.16305,-1.40237 0.24696,-2.10229c-0.38282,0.00475 -0.76559,0.01153 -1.14827,0.02105c-0.26262,0.00653 -0.75644,0.07575 -1.23811,0.06537zM226.90098,286.04773c0.25035,0.8721 0.52088,1.73897 0.80704,2.60168c0.20696,-0.89428 0.37511,-2.00054 0.01314,-2.4743c-0.18597,-0.2434 -0.48711,-0.21825 -0.82017,-0.12739z" fill="#ec0000" stroke="none" stroke-width="0.5" stroke-linecap="butt"/><path d="M216.62935,314.43034c-0.53033,-0.53033 0,-1.06066 0,-1.06066l0.78033,-0.78033c0,-0.00756 0,-0.01511 0,-0.02267c0,0 0,-0.75 0.75,-0.75c0.20884,0 0.35953,0.05815 0.46826,0.14207c0.05069,-0.02833 0.10139,-0.05665 0.15208,-0.08498l0.17325,0.69291h0.28974v1h-0.03972l0.03004,0.12014c-0.02497,0.03389 -0.04994,0.06778 -0.07491,0.10167l0.0461,0.01537l-0.32787,0.98359c-0.09425,0.30647 -0.3796,0.52924 -0.71698,0.52924c-0.39977,0 -0.72648,-0.31277 -0.74878,-0.70695c-0.20319,0.0836 -0.49237,0.10979 -0.78155,-0.17939z" fill="#ec0000" stroke="none" stroke-width="0.5" stroke-linecap="butt"/><path d="M239.8197,231.56854c-0.66472,-0.33616 -0.33084,-1.00393 -0.33084,-1.00393c1.07955,-2.1591 2.50353,-3.96339 3.68948,-6.0422c0.20033,-0.35116 0.38922,-0.7107 0.56916,-1.07676c-2.07526,-2.49854 -4.14483,-4.99707 -6.26686,-7.42112l-0.54957,-0.62778c-0.11703,-0.13229 -0.18807,-0.30622 -0.18807,-0.49673c0,-0.41422 0.33578,-0.75 0.75,-0.75h1.33334v0.12608c2.78503,-0.27165 5.65447,0.07317 8.49521,0.59686c0.62233,-1.43923 2.01795,-4.5285 3.06175,-4.02215c0.54943,0.26653 0.92982,2.86729 1.04988,3.52767c0.09193,0.4649 0.18538,0.92981 0.27965,1.39479c0.97838,0.20811 1.94593,0.41021 2.8977,0.58722c1.2523,0.2329 6.35052,0.07264 6.298,2.16473c-0.02284,0.90974 -1.96213,2.81154 -2.56913,3.58853c-1.57946,1.06741 -3.20669,2.02462 -4.85302,2.93462c0.43469,2.76733 0.73246,5.55147 0.7462,8.36532l0.29974,0.89922c0.02849,0.07926 0.04403,0.1647 0.04403,0.25378c0,0.41422 -0.33578,0.75 -0.75,0.75c-0.2994,0 -0.55783,-0.17544 -0.67809,-0.42912l-0.66356,-1.32711l0.00583,-0.00291c-1.641,-1.75798 -3.23439,-3.57292 -4.80428,-5.41393c-1.99233,1.06822 -3.9637,2.17476 -5.86373,3.43014l-1.09234,0.37111c0,0 -0.64341,0.21447 -0.91049,-0.37633z" fill="#ffffff" stroke="none" stroke-width="0.5" stroke-linecap="butt"/><path d="M238.15303,234.2352c-0.66472,-0.33616 -0.33084,-1.00393 -0.33084,-1.00393c1.07955,-2.1591 2.50353,-3.96339 3.68948,-6.0422c0.20033,-0.35116 0.38922,-0.7107 0.56916,-1.07676c-2.07526,-2.49854 -4.14483,-4.99707 -6.26686,-7.42112l-0.54957,-0.62779c-0.11703,-0.13229 -0.18807,-0.30621 -0.18807,-0.49673c0,-0.41422 0.33578,-0.75 0.75,-0.75h1.33334v0.12608c2.78503,-0.27165 5.65447,0.07316 8.49521,0.59685c0.62233,-1.43923 2.01795,-4.5285 3.06175,-4.02215c0.54943,0.26653 0.92982,2.86729 1.04988,3.52767c0.09193,0.4649 0.18538,0.92981 0.27965,1.39479c0.97838,0.20811 1.94593,0.41021 2.8977,0.58722c1.25231,0.2329 6.35052,0.07264 6.29799,2.16473c-0.02284,0.90974 -1.96212,2.81154 -2.56912,3.58853c-1.57946,1.06741 -3.2067,2.02462 -4.85302,2.93462c0.43469,2.76733 0.73246,5.55147 0.7462,8.36532l0.29974,0.89922c0.02849,0.07926 0.04403,0.1647 0.04403,0.25378c0,0.41422 -0.33578,0.75 -0.75,0.75c-0.2994,0 -0.55783,-0.17544 -0.67809,-0.42912l-0.66356,-1.32711l0.00582,-0.00291c-1.641,-1.75798 -3.23439,-3.57292 -4.80428,-5.41393c-1.99233,1.06822 -3.9637,2.17476 -5.86373,3.43014l-1.09234,0.37111c0,0 -0.64341,0.21447 -0.91049,-0.37632z" fill="#ec0000" stroke="none" stroke-width="0.5" stroke-linecap="butt"/><path d="M252.17214,285.24835c-0.09249,0.04233 -0.20613,0.06833 -0.34579,0.06833c-0.75,0 -0.75,-0.75 -0.75,-0.75c0,-2.13029 -0.67469,-6.93365 1.21967,-8.53033c2.17323,-1.83173 4.98953,2.1903 5.27065,4.07686c0.41685,2.79744 -2.42326,7.76692 -5.34874,5.22534c-0.01526,-0.03006 -0.03052,-0.06013 -0.04578,-0.09019z" fill="#ec0000" stroke="none" stroke-width="0.5" stroke-linecap="butt"/><path d="M261.58762,302.49163c0.47891,0.02472 0.9443,0.13771 1.36064,0.47902c2.19919,1.80289 0.94855,5.34019 -1.57124,5.98051c-2.88878,0.73409 -3.09345,-2.4887 -2.29478,-4.8682c-0.10724,-0.39227 0.21378,-0.71328 0.21378,-0.71328l0.11888,-0.10833c0.28229,-0.58348 0.62606,-1.05718 0.99543,-1.31871c0,0 0.62404,-0.41603 1.04007,0.20801c0.08143,0.12214 0.12302,0.23632 0.13723,0.34097z" fill="#ec0000" stroke="none" stroke-width="0.5" stroke-linecap="butt"/><path d="M243.81951,204.66668c0,2.25992 -2.01089,4.09195 -4.49144,4.09195c-2.48055,0 -4.49144,-1.83203 -4.49144,-4.09195c0,-2.25992 2.01089,-4.09195 4.49144,-4.09195c2.48055,0 4.49144,1.83203 4.49144,4.09195z" fill="#ffffff" stroke="none" stroke-width="0" stroke-linecap="butt"/><path d="M242.81951,212.66668c0,1.76287 -1.6079,3.19195 -3.59134,3.19195c-1.98344,0 -3.59134,-1.42909 -3.59134,-3.19195c0,-1.76287 1.6079,-3.19196 3.59134,-3.19196c1.98344,0 3.59134,1.42909 3.59134,3.19196z" fill="#e8e8e8" stroke="none" stroke-width="0" stroke-linecap="butt"/><path d="M240.12214,127.71722c2.68426,1.32062 10.87492,8.66556 8.61969,13.24946c-2.25522,4.58389 -13.2834,4.51659 -15.96768,3.19596c-2.68426,-1.32062 2.42042,-4.35336 4.67565,-8.93725c2.25522,-4.58389 -0.01193,-8.82879 2.67233,-7.50817z" fill="url(#color-1)" stroke="none" stroke-width="0" stroke-linecap="butt"/><path d="M225.07647,183.05983l-44.22328,-21.75736l12.92828,-26.2776l28.2511,11.82949l14.70039,12.8133c0,0 -2.13095,3.34632 -2.17587,5.33163c-0.04912,2.17055 1.89258,7.1856 1.89258,7.1856c0,0 -4.59331,1.60343 -6.50567,3.43201c-1.87809,1.79581 -4.86752,7.44295 -4.86752,7.44295z" fill="#000000" stroke="none" stroke-width="0" stroke-linecap="butt"/><path d="M218.98662,153.08669c6.83674,5.08492 8.44518,15.64411 8.44518,15.64411c0,0 -9.57537,1.31639 -16.4121,-3.76853c-6.83674,-5.08492 -8.34593,-14.64557 -8.34593,-14.64557c0,0 9.47612,-2.31493 16.31285,2.76998z" fill="#ffffff" stroke="#ffffff" stroke-width="1.4" stroke-linecap="butt"/><path d="M218.67781,151.73148c4.38921,2.15944 6.23848,7.38346 4.13044,11.66817c-2.10803,4.28471 -7.37508,6.00758 -11.76429,3.84814c-4.38921,-2.15944 -6.23848,-7.38346 -4.13044,-11.66817c2.10803,-4.28471 7.37508,-6.00758 11.76429,-3.84814z" fill="#000000" stroke="#000000" stroke-width="1" stroke-linecap="butt"/><path d="M232.78653,150.56935c0.31835,-0.15321 0.66561,0.01764 0.66561,0.01764l0.84055,0.41854c0.78828,0.62866 7.07808,4.71209 2.9274,5.25832c-0.39072,0.05142 -1.39667,-1.14508 -1.75228,-1.446c-1.27378,-1.07792 -2.68091,-2.76145 -4.15093,-3.45046c0,0 -0.67296,-0.33109 -0.34187,-1.00405c0.33109,-0.67296 1.00405,-0.34187 1.00405,-0.34187c0.17229,0.08769 0.45771,0.28401 0.80747,0.5479z" fill="#000000" stroke="none" stroke-width="0.5" stroke-linecap="butt"/><path d="M231.04012,158.51201c0,0 -0.53372,-0.52691 -0.00681,-1.06063c0.25079,-0.25404 0.50311,-0.2678 0.69871,-0.21245c0.33441,-0.64686 0.99417,-0.32226 0.99417,-0.32226l0.58037,0.32843c1.52461,1.50723 2.89449,2.84766 3.65058,4.6267l0.30866,-0.1323l0.51698,1.20608c0.08505,0.19517 0.08689,0.42507 -0.01446,0.63106c-0.18285,0.37166 -0.63239,0.52473 -1.00405,0.34187c-0.09375,-0.04612 -0.17359,-0.10921 -0.23764,-0.18374l-0.46344,-0.51467c-1.77417,-1.30265 -3.42887,-3.1347 -5.02307,-4.70807z" fill="#000000" stroke="none" stroke-width="0.5" stroke-linecap="butt"/><path d="M227.44816,161.45134c0.02196,-0.15472 0.10447,-0.32057 0.30204,-0.47073c0.59709,-0.45385 1.05094,0.14325 1.05094,0.14325l-0.00041,0.07587c1.78975,1.14199 3.65743,2.30483 5.24952,3.70765c0.81964,0.72221 2.18525,1.59893 0.46506,2.7622c-1.41961,0.96 -1.82117,-0.24186 -2.56527,-0.8967c-1.8015,-1.58544 -3.92019,-2.86261 -5.76245,-4.42108c0,0 -0.57257,-0.48442 -0.08815,-1.057c0.48442,-0.57257 1.057,-0.08815 1.057,-0.08815c0.09694,0.08203 0.19419,0.16358 0.29173,0.2447z" fill="#000000" stroke="none" stroke-width="0.5" stroke-linecap="butt"/><path d="M229.48403,151.75426c2.45924,1.20992 4.91848,2.41983 7.37771,3.62975c0.98941,0.48678 5.5605,2.2216 4.45819,4.10702c-0.75158,1.28554 -3.67476,-0.83215 -4.30215,-1.25142c-3.43,-2.29228 -9.33599,-3.92614 -11.95821,-7.34646l-0.21389,0.16258l-0.19888,-0.26165c-1.65623,-0.36314 -3.29711,-0.78921 -4.90144,-1.36846c0,0 -0.70541,-0.25476 -0.45066,-0.96016c0.25476,-0.70541 0.96016,-0.45066 0.96016,-0.45066c1.05965,0.38276 2.13447,0.69973 3.21867,0.97631l-0.63396,-0.43289c-0.31072,-0.20497 -0.42777,-0.61394 -0.25914,-0.95668c0.16619,-0.33778 0.55263,-0.495 0.90072,-0.3836l0.80592,0.24232c3.69327,0.89739 7.41211,1.88067 10.82637,3.56117c1.12076,0.55165 2.56819,0.95418 3.50687,1.76259c0.38828,0.16713 0.77416,0.34498 1.15735,0.53483l0.03488,0.0575l0.01688,-0.02351l0.69602,0.49938c0.30067,0.20777 0.41194,0.60986 0.24576,0.94765c-0.18285,0.37166 -0.63239,0.52473 -1.00405,0.34187c-0.0215,-0.01057 -0.04225,-0.02204 -0.06225,-0.03433l-1.27877,-0.76716l0.0038,-0.00633c-2.87857,-1.30782 -5.90356,-1.98455 -8.94588,-2.57964zM223.87919,149.09264c-0.04145,-0.03374 -0.08249,-0.0685 -0.12334,-0.10455l-0.04322,0.06331c0.0555,0.01384 0.11102,0.02759 0.16657,0.04124zM228.31096,150.03249c-0.13413,-0.03721 -0.26841,-0.07402 -0.40275,-0.11047c0.00139,0.01097 0.00254,0.02197 0.00345,0.033c0.13308,0.02589 0.26618,0.05171 0.3993,0.07747z" fill="#000000" stroke="none" stroke-width="0.5" stroke-linecap="butt"/><path d="M219.57283,158.82462c0,0 -4.77839,-1.42129 -10.63066,-4.89582c-1.82062,-1.08092 -7.71419,-10.37069 -7.71419,-10.37069" fill="none" stroke="#000000" stroke-width="2" stroke-linecap="round"/><path d="M211.7837,157.66721l-7.55443,-6.39144" fill="none" stroke="#000000" stroke-width="2" stroke-linecap="round"/><path d="M215.81959,149.57379l11.37005,8.60302" fill="none" stroke="#000000" stroke-width="2" stroke-linecap="round"/><path d="M239.96251,137.66896l5.46687,3.98986l-7.99479,-3.00462" fill="none" stroke="#000000" stroke-width="1.5" stroke-linecap="round"/><path d="M240.74788,132.29724l10.4755,6.2683l-10.31397,-4.33138" fill="none" stroke="#000000" stroke-width="1.5" stroke-linecap="round"/><path d="M232.09401,142.71354l12.26048,5.66053l-14.41814,-5.05036" fill="none" stroke="#000000" stroke-width="1.5" stroke-linecap="round"/><path d="M237.29464,140.0713l7.17828,3.53163l-6.5705,-1.74665l7.18306,4.27697l-9.78936,-3.88753" fill="none" stroke="#000000" stroke-width="1.5" stroke-linecap="round"/><path d="M239.61071,129.32306l14.44929,9.89507l-14.66523,-8.70109" fill="none" stroke="#000000" stroke-width="1.5" stroke-linecap="round"/><path d="M240.25202,136.32543l7.48216,4.42412l-9.56624,-3.9635" fill="none" stroke="#000000" stroke-width="1.5" stroke-linecap="round"/></g></g></svg>