<svg version="1.1" xmlns="http://www.w3.org/2000/svg" xmlns:xlink="http://www.w3.org/1999/xlink" width="122.74803" height="214.17047" viewBox="0,0,122.74803,214.17047"><g transform="translate(-199.75173,-91.32939)"><g data-paper-data="{&quot;isPaintingLayer&quot;:true}" fill-rule="nonzero" stroke-linejoin="miter" stroke-miterlimit="10" stroke-dasharray="" stroke-dashoffset="0" style="mix-blend-mode: normal"><path d="M201.54534,304.39159c0,0 -0.63536,-94.38387 -0.79335,-118.01201c-0.05451,-8.15261 8.18688,-36.76129 40.20201,-36.9211c31.60235,-0.15775 39.85672,29.48704 39.84884,36.89673c-0.07659,46.24274 0.65429,117.98648 0.65429,117.98648l-10.49667,0.09614l-0.15882,-114.84311c0,0 0.07549,-3.0993 -2.81625,-3.15415c-3.43441,-0.06514 -2.94538,3.11562 -2.94538,3.11562l0.20548,114.86995l-48.21366,0.07222l-0.30539,-115.23309c0,0 0.27949,-2.919 -2.8856,-2.93443c-3.11083,-0.01515 -2.81569,2.90899 -2.81569,2.90899l0.35311,115.0668z" fill="#ffffff" stroke="#000000" stroke-width="2" stroke-linecap="butt"/><path d="M256.1425,200.33377c-0.57113,0 -1.03411,-0.46299 -1.03411,-1.03411c0,-0.57113 0.46299,-1.03413 1.03411,-1.03413c0.57113,0 1.03411,0.463 1.03411,1.03413c0,0.57113 -0.46299,1.03411 -1.03411,1.03411z" fill="#000000" stroke="none" stroke-width="1.5" stroke-linecap="butt"/><path d="M250.88263,204.56936c-4.4635,-0.31439 -6.55245,-1.79392 -6.16985,-2.58011c0.11788,-0.24224 2.84645,1.06355 6.97038,1.3048c6.40897,0.37493 8.51033,-0.63173 8.51033,-0.63173v1.34616c0,0 -2.4135,1.04672 -9.31086,0.56089z" fill="#000000" stroke="#000000" stroke-width="0" stroke-linecap="butt"/><path d="M223.06988,199.29966c0,-0.57113 0.46299,-1.03413 1.03411,-1.03413c0.57113,0 1.03413,0.463 1.03413,1.03413c0,0.57113 -0.463,1.03411 -1.03413,1.03411c-0.57113,0 -1.03411,-0.46299 -1.03411,-1.03411z" fill="#000000" stroke="none" stroke-width="1.5" stroke-linecap="butt"/><path d="M229.36386,204.56936c-6.89736,0.48585 -9.31086,-0.56089 -9.31086,-0.56089v-1.34616c0,0 2.10136,1.00666 8.51033,0.63173c4.12393,-0.24126 6.85251,-1.54704 6.97039,-1.3048c0.3826,0.78618 -1.70634,2.26571 -6.16985,2.58011z" fill="#000000" stroke="#000000" stroke-width="0" stroke-linecap="butt"/><path d="M240.64432,261.12113c-0.81895,0 -1.48284,-0.66389 -1.48284,-1.48284c0,-0.81895 0.66389,-1.48284 1.48284,-1.48284c0.81895,0 1.48284,0.66389 1.48284,1.48284c0,0.81895 -0.66389,1.48284 -1.48284,1.48284z" data-paper-data="{&quot;index&quot;:null}" fill="#000000" stroke="none" stroke-width="1.5" stroke-linecap="butt"/><path d="M216.58107,304.40602v-119.20147c0,0 0.75721,-9.73105 0.75721,-14.63937c0,-4.498 -0.75721,-13.6872 -0.75721,-13.6872c0,0 2.67319,-2.35297 4.6557,-3.74807c1.98251,-1.3951 5.17197,-2.80371 5.17197,-2.80371c0,0 -0.6016,40.10902 14.55952,40.03867c15.43477,-0.07162 13.83154,-40.03867 13.83154,-40.03867c0,0 3.91276,1.51959 6.16585,2.94655c2.25309,1.42695 4.75379,3.60523 4.75379,3.60523c0,0 -0.75721,9.42463 -0.75721,14.19201c0,4.84193 0.75721,14.63937 0.75721,14.63937v118.69667z" fill="#970000" stroke="#000000" stroke-width="2" stroke-linecap="butt"/><path d="M268.9525,181.36947c0,0 -5.97463,-6.11216 -6.84145,-6.23304c-2.27343,-0.317 -40.17024,0.51306 -41.88145,-35.60907c-1.29727,-44.62684 35.01206,-39.31728 41.83176,-41.89199c9.35084,-3.53032 17.34659,-6.30598 17.34659,-6.30598c0,0 -2.02965,2.7847 -3.09879,4.10648c-0.99717,1.23281 -3.11305,3.82833 -3.11305,3.82833c0,0 10.32115,-3.17994 20.68295,-1.48876c9.49406,1.48075 17.28751,7.14949 17.28751,7.14949l-2.33734,1.17535c0,0 2.20664,1.00373 3.35118,2.13132c1.14453,1.12761 2.94218,3.41357 2.94218,3.41357l-3.70328,0.12389c0,0 11.07823,6.96513 11.08045,24.25632c-0.11532,16.30784 -10.45071,26.16231 -10.45071,26.16231l2.65574,0.09336c0,0 -3.25916,3.92293 -9.65405,6.26466c-7.62196,2.79106 -12.21495,3.34458 -12.21495,3.34458c0,0 1.91919,2.32266 2.82345,5.69298c1.13307,4.2232 0.40495,6.94342 0.40495,6.94342c0,0 -2.74807,-3.58447 -4.8177,-5.54276c-1.84346,-1.74429 -3.39985,-2.61746 -3.39985,-2.61746c0,0 1.10277,2.09818 1.65427,4.21872c0.57544,2.21253 0.56556,4.02537 0.56556,4.02537c0,0 -5.07985,-4.93144 -10.93432,-6.93701c-5.52756,-1.89358 -10.97495,-2.00546 -10.97495,-2.00546c0,0 0.6733,1.35592 0.82372,3.32317c0.09534,1.24699 -0.02846,2.37818 -0.02846,2.37818z" fill="#000000" stroke="none" stroke-width="1.5" stroke-linecap="butt"/><path d="M265.50155,108.78895c7.31529,-0.10311 17.09668,1.4463 17.09668,1.4463c0,0 -0.17993,3.40609 2.23566,14.08884c1.85583,8.20716 8.13533,21.11909 8.13533,21.11909c0,0 -2.85869,-2.3503 -4.22987,-3.68976c-1.45771,-1.424 -4.29455,-4.28031 -4.29455,-4.28031c0,0 1.15603,7.92962 3.7681,14.95047c2.97289,8.77955 5.35372,10.96262 3.74355,13.2209c-1.9004,2.66532 -23.20071,-0.47488 -28.72674,-1.1461c-5.62996,-0.78823 -9.31549,-3.14374 -12.28999,-3.9553c-2.97449,-0.81156 -6.09716,-0.80653 -15.86296,-3.24132c-6.09453,-1.51946 -8.6361,-4.7316 -13.98048,-10.94871c-5.34439,-6.21711 -8.6464,-9.63453 -8.45854,-13.59048c0.18078,-3.80706 5.66871,-8.58624 11.26394,-13.23308c5.95802,-4.94812 9.0346,-8.30671 15.7377,-8.71367c6.03684,-0.36651 9.93804,-0.1326 15.28905,-0.13185c3.91092,0.00054 6.57806,-1.83864 10.57308,-1.89496z" fill="#000000" stroke="#000000" stroke-width="1.5" stroke-linecap="butt"/><path d="M277.47407,157.73799c0,0 -0.41621,1.50047 -1.38383,4.17487c-0.88382,2.44277 -2.02879,4.32694 -2.02879,4.32694l-1.18053,0.11882c0,0 3.59333,-7.03149 3.44525,-14.92385c-0.11843,-6.31055 -2.16064,-10.12455 -2.16064,-10.12455l4.16508,0.3164c0,0 1.49789,3.23138 1.34192,7.9674c-0.16152,4.90413 -1.11448,8.03549 -1.11448,8.03549z" data-paper-data="{&quot;index&quot;:null}" fill="#000000" stroke="none" stroke-width="1.5" stroke-linecap="butt"/><path d="M248.53361,143.0689c0.5704,0.21186 3.08357,1.39942 6.02385,2.59586c2.9637,1.20597 7.21362,2.29294 7.19412,2.4605c-0.02476,0.21265 -10.43477,0.22694 -13.67937,0.63224c-2.71902,0.33964 -6.68867,0.70564 -6.68867,0.70564c0,0 -7.10401,-1.16169 -13.27235,-2.44521c-4.94371,-1.02869 -10.39929,-1.66108 -10.40995,-1.75461c-0.01439,-0.12613 3.86835,-0.71071 6.82417,-1.39467c1.14585,-0.49661 5.43971,-1.48513 5.43971,-1.48513c0,0 4.95585,-0.27766 7.60826,0.579c2.84203,0.91791 2.83546,2.44556 3.0831,2.46906c0,0 1.18436,-1.74932 2.36886,-2.10461c1.18451,-0.35528 5.08219,-0.41633 5.50828,-0.25808z" fill="#000000" stroke="#000000" stroke-width="1.4" stroke-linecap="butt"/><path d="M229.88562,147.62249c5.09114,1.02674 11.91756,2.80736 11.91756,2.80736c0,0 5.78976,-1.55585 8.44678,-1.8344c2.05992,-0.21596 11.216,-0.70654 11.26026,-0.33377c0.04328,0.36447 -9.03119,12.90033 -21.14808,12.44714c-13.76954,-0.43578 -22.86459,-15.13559 -22.82675,-15.30472c0.03784,-0.16913 7.2591,1.19165 12.35024,2.2184z" fill="#000000" stroke="#000000" stroke-width="1.9" stroke-linecap="butt"/><path d="M234.34516,134.45542c0.06701,-1.03158 3.48292,-3.31931 5.59788,-3.43105c1.89232,-0.09998 3.7347,1.5605 3.57448,4.02687c-0.16022,2.46639 -0.76213,4.16145 -4.44096,3.75c-3.12211,-0.34919 -4.89163,-1.87945 -4.73141,-4.34583z" fill="#000000" stroke="#000000" stroke-width="1.15" stroke-linecap="butt"/><path d="M264.14208,140.00073c0,0 -3.96805,-0.15494 -7.112,-0.45622c-6.22555,-0.59655 -27.63221,-2.87873 -27.63221,-2.87873l0.18466,-2.97596c0,0 4.21602,-0.53076 9.55262,-0.50505c7.22356,0.0348 16.28808,0.60762 19.64049,0.51079c3.17776,-0.09178 5.76059,-0.52361 5.76059,-0.52361" fill="#000000" stroke="#000000" stroke-width="1.3" stroke-linecap="round"/><path d="M255.28946,109.8288c0,0 3.82936,-4.69375 9.35572,-5.56941c5.8148,-0.92136 9.80705,-0.8272 9.93979,1.12682c0.13276,1.95403 -2.54715,2.54345 -8.58007,3.18312c-6.03293,0.63967 -10.71545,1.25947 -10.71545,1.25947z" data-paper-data="{&quot;index&quot;:null}" fill="#000000" stroke="#000000" stroke-width="1" stroke-linecap="butt"/><path d="M259.24185,109.88253c0,0 3.14826,-3.36685 8.71275,-3.76128c3.10406,-0.22005 2.13556,2.30002 2.13556,2.30002" fill="#000000" stroke="#000000" stroke-width="0.25" stroke-linecap="round"/><path d="M265.6884,113.32104c4.87699,0.38789 8.60366,5.40743 8.17764,10.76411c-0.42603,5.35667 -4.82464,8.73287 -9.70164,8.34498c-4.87699,-0.38789 -8.50859,-4.68493 -8.08257,-10.0416c0.42603,-5.35667 4.72957,-9.45538 9.60658,-9.06748z" fill="#000000" stroke="#000000" stroke-width="1.4" stroke-linecap="butt"/><path d="M265.28305,117.7417c2.75003,0.21871 4.80205,2.62536 4.58333,5.37538c-0.21871,2.75003 -2.62536,4.80205 -5.37538,4.58333c-2.75003,-0.21871 -4.80205,-2.62535 -4.58333,-5.37538c0.21871,-2.75003 2.62536,-4.80205 5.37538,-4.58333z" fill="#000000" stroke="none" stroke-width="1.5" stroke-linecap="butt"/><path d="M263.9338,140.32037c4.8647,0.51996 8.55121,5.01751 8.20648,10.32417c-0.34472,5.30665 -4.55893,8.99792 -9.44104,8.68079c-4.88211,-0.31714 -8.80007,-4.46569 -8.49389,-10.27184c0.29122,-5.52271 4.648,-9.27614 9.72844,-8.73311z" fill="#000000" stroke="#000000" stroke-width="1.4" stroke-linecap="butt"/><path d="M263.55007,144.9079c2.81252,0.1827 4.94441,2.6108 4.76171,5.42333c-0.1827,2.81252 -2.6108,4.94441 -5.42333,4.76171c-2.81252,-0.1827 -4.94441,-2.61079 -4.76171,-5.42333c0.1827,-2.81252 2.6108,-4.94441 5.42333,-4.76171z" fill="#000000" stroke="none" stroke-width="1.5" stroke-linecap="butt"/><path d="M266.2239,113.28725c0,0 8.99204,0.64782 8.11914,11.15086c-0.77945,9.44034 -10.00686,8.92564 -10.00686,8.92564z" fill="#000000" stroke="#000000" stroke-width="1.15" stroke-linecap="butt"/><path d="M264.35945,139.96958c0,0 9.45431,0.36676 8.35816,11.76467c-0.96247,9.67222 -10.25084,8.901 -10.25084,8.901z" fill="#000000" stroke="#000000" stroke-width="1.15" stroke-linecap="butt"/><path d="M275.98569,117.45867c0,0 1.59674,3.48046 1.7563,8.16346c0.17681,5.18936 -0.43742,7.75619 -0.43742,7.75619l-4.14789,0.02626c0,0 0.92785,-3.78335 1.03978,-7.9673c0.14971,-5.59552 -0.99917,-6.72379 -1.18079,-10.99741c-0.15561,-3.66187 0.27822,-6.73336 0.27822,-6.73336l1.23064,0.05399c0,0 -0.30688,3.58282 -0.27105,5.22713c0.02958,1.35716 0.6784,4.02815 0.6784,4.02815z" fill="#000000" stroke="none" stroke-width="1.5" stroke-linecap="butt"/><path d="M270.47987,147.51617c5.82765,-1.68636 8.53168,-2.1528 9.1468,-0.29336c0.61512,1.85943 -3.04584,3.4545 -8.77792,4.79764c-5.44775,1.27651 -10.7663,-1.6232 -10.7663,-1.6232c0,0 4.56978,-1.19471 10.39743,-2.88107z" data-paper-data="{&quot;index&quot;:null}" fill="#000000" stroke="#000000" stroke-width="1" stroke-linecap="butt"/><path d="M274.31844,146.11026c0,0 1.8486,1.96758 -1.10865,2.93626c-5.3013,1.73651 -9.48802,-0.19185 -9.48802,-0.19185" data-paper-data="{&quot;index&quot;:null}" fill="#000000" stroke="#000000" stroke-width="0.25" stroke-linecap="round"/><path d="M264.27749,145.64205c2.42057,0.16059 4.24775,2.35473 4.08217,4.90369c-0.16572,2.55101 -2.26466,4.49141 -4.68812,4.33398c-0.28022,-0.0182 -0.5525,-0.06366 -0.81468,-0.13376" fill="none" stroke="#ffffff" stroke-width="1" stroke-linecap="butt"/><path d="M200.48067,184.1659c0,-0.16796 0.04141,-0.32624 0.11457,-0.4652l0.45388,-0.90776c-0.00212,-0.00455 0.0212,-0.0558 0.06151,-0.13814c0.10459,-0.44039 0.23705,-0.85065 0.37192,-1.18597c0.20642,-0.51322 0.4538,-1.0401 0.73334,-1.57317c0.04681,-0.21414 0.09581,-0.4277 0.15617,-0.63811c0.64074,-2.23353 1.72137,-5.29569 3.29226,-7.6061c0.37232,-1.18781 0.65567,-2.37564 0.80503,-3.55698c0.41408,-0.59837 0.76459,-1.24408 1.04173,-1.92739c0.00615,-0.01253 0.01225,-0.02509 0.01832,-0.03768c0.98627,-1.79847 2.87888,-3.5034 4.35321,-4.88865c0.49543,-0.46551 0.45042,-1.3268 0.90495,-1.82914c2.51647,-2.17374 5.3721,-4.20542 6.89667,-5.10559c1.6936,-0.99998 3.39892,-1.94334 5.11849,-2.84227c0.17533,-0.06006 0.34817,-0.12918 0.51777,-0.20955c3.08843,-0.05105 5.88662,-0.48963 9.02441,-0.48963c2.77552,0 5.94268,0.42612 8.67247,0.00749c4.1239,-0.63243 8.70351,-1.85225 12.60417,0.09808c1.74735,0.87367 3.23616,1.69506 4.76626,2.86044c1.09922,0.83721 2.81406,0.98882 3.8254,1.95564c1.17753,1.12569 2.12136,2.5123 3.24014,3.70301c0.18652,0.19851 0.43659,0.31025 0.70164,0.40213c1.68946,2.03388 3.34751,3.86576 3.7864,4.36735c1.16798,1.33483 2.36,2.97753 3.63503,4.61539c-0.17055,0.51567 -0.76517,0.63459 -0.76517,0.63459c-2.96008,0.5841 -5.03143,2.15364 -7.5867,3.60062c-3.5138,1.98977 -7.57696,3.47514 -11.05406,5.52227c-2.55206,1.50251 -4.70205,3.74294 -7.43736,5.1106c-4.49992,2.99994 -9.24708,5.57384 -13.88629,8.33177c-3.10871,1.84808 -5.03493,4.37113 -8.38648,6.04691c-3.65503,1.76057 -5.37018,4.93198 -8.07188,7.68158l-0.92575,0.92575l-0.33858,-0.33857l-0.95324,0.44271c0.02552,-0.3639 0.06352,-0.71153 0.11093,-1.04813l-0.42065,-0.21033l0.46287,-0.92575l0.14168,0.07084c0.20696,-1.02817 0.47665,-2.00081 0.70525,-3.09351c0.32923,-1.57368 -0.17857,-3.19786 -0.46287,-4.63214c-0.70512,-3.55731 -0.60133,-7.79762 -1.58537,-11.09455c-0.12678,-0.42477 -0.7665,0.44621 -1.16006,0.65019c-0.51925,0.26913 -1.0512,0.5148 -1.59161,0.73844c-2.09799,5.06965 -1.55861,10.44645 -1.55861,15.95644c0,1.74518 0.39521,4.0973 -0.02676,5.78427c-0.33633,1.34463 -1.8682,2.41855 -2.58052,3.71749c-2.15333,1.18087 -3.31234,2.36796 -4.95863,4.01461l-0.39888,0.79776c-0.16035,0.33825 -0.50491,0.57217 -0.90412,0.57217c-0.55229,0 -1,-0.44771 -1,-1v-1.38863h0.32165c-0.1336,-1.77829 0.09575,-3.45748 -0.2949,-5.32476c-0.14805,-0.70768 -0.29075,-1.41414 -0.42757,-2.12009c0.97822,-4.46309 0.26077,-10.09317 0.29179,-16.4306c0.00554,-1.13108 0.23416,-2.31573 0.55129,-3.52986c-0.26677,-0.17959 -0.44226,-0.48437 -0.44226,-0.83014v-1.38863h0.11215l-0.0854,-0.22975c0.04543,-0.09087 0.08659,-0.18112 0.12404,-0.27087c-0.06097,-0.15472 -0.10616,-0.32228 -0.13768,-0.49901c-0.28561,-0.17606 -0.47599,-0.49174 -0.47599,-0.85188z" fill="#000000" stroke="none" stroke-width="0.5" stroke-linecap="butt"/><path d="M217.68134,211.01272c0,0 13.24293,-10.64261 22.32103,-16.50406c10.34979,-6.68254 36.46425,-21.45179 36.46425,-21.45179" fill="none" stroke="#000000" stroke-width="2.5" stroke-linecap="round"/><path d="M210.73819,215.17861l-9.25753,7.8689" fill="none" stroke="#000000" stroke-width="2.5" stroke-linecap="round"/><path d="M265.43183,211.4756l-0.10557,0.01566c1.11255,2.34795 0.05647,5.53178 -0.37021,8.01342c-0.36246,2.10814 0.01291,4.63766 0.01291,6.78296c0,9.8747 0,19.74938 0,29.62408c0,0 0,0.303 -0.16679,0.57542l0.07688,0.78188c-3.25137,1.62568 -6.55389,3.13086 -10.00743,4.25855c-2.44484,0.00929 -4.58533,1.04805 -6.98114,1.39405c-5.94204,0.85812 -14.71949,2.58396 -20.40911,-0.06802c-0.02106,-0.00926 -0.04238,-0.01927 -0.06396,-0.03006c-0.31063,-0.15531 -0.45944,-0.36457 -0.52136,-0.57157c-0.07466,-0.20275 -0.08117,-0.45944 0.07415,-0.77007c0.00679,-0.01358 0.01368,-0.02684 0.02067,-0.03981l0.5451,-1.04986c5.42648,-4.85213 9.75997,-10.22701 14.36735,-15.76066c2.37917,-2.85747 4.31101,-6.16251 6.94315,-8.79465c5.44251,-8.21884 10.31739,-16.5243 14.69095,-25.27141c0,0 0.44722,-0.89443 1.34164,-0.44721c0.61856,0.30928 0.59545,0.83245 0.52236,1.12575c0.03043,0.13408 0.03043,0.23155 0.03043,0.23155z" fill="#ec0000" stroke="none" stroke-width="0.5" stroke-linecap="butt"/><path d="M219.06996,231.9164c-0.09119,0 -0.17408,-0.00832 -0.2494,-0.02343c-0.19419,0.03515 -0.34751,0.01441 -0.34751,0.01441l-0.03566,-0.18684c-0.36743,-0.29114 -0.36743,-0.80414 -0.36743,-0.80414c0,-3.66034 0.30821,-7.35862 -0.87444,-10.7928l-0.03473,-0.84041c-0.24297,-0.12832 -0.47947,-0.37814 -0.47947,-0.86445c0,-1 1,-1 1,-1c2.58077,0.03317 4.5907,1.04788 7.10333,1.40154c3.64152,0.51257 7.72195,-0.01291 11.41172,-0.01291c2.56795,0 5.70229,0.34322 7.98483,-0.86363c1.9982,-0.49955 3.6219,-1.35475 5.45425,-2.27093l0.90776,-0.45388c0.13897,-0.07316 0.29725,-0.11457 0.4652,-0.11457c0.55229,0 1,0.44771 1,1c0,0.16796 -0.04141,0.32625 -0.11457,0.46521l-0.45387,0.90775l-0.05621,-0.0281c-0.03658,0.09859 -0.07974,0.19479 -0.13112,0.28799c-0.63494,1.15168 -4.60071,2.35773 -5.8144,2.96458c-4.37603,2.18802 -8.51884,4.70779 -12.96053,6.94314c-3.79731,1.89865 -8.2827,2.91599 -12.61155,3.9028c-0.14252,0.19932 -0.38468,0.36866 -0.7962,0.36866z" fill="#ec0000" stroke="none" stroke-width="0.5" stroke-linecap="butt"/><path d="M264.43182,303.12509l-47.21337,0.46288l0.46288,-24.99532l46.7505,-13.88629z" fill="#ec0000" stroke="#ec0000" stroke-width="0.5" stroke-linecap="round"/></g></g></svg>