<svg version="1.1" xmlns="http://www.w3.org/2000/svg" xmlns:xlink="http://www.w3.org/1999/xlink" width="112.58699" height="237.76679" viewBox="0,0,112.58699,237.76679"><g transform="translate(-169.88028,-67.73306)"><g data-paper-data="{&quot;isPaintingLayer&quot;:true}" fill-rule="nonzero" stroke-linejoin="miter" stroke-miterlimit="10" stroke-dasharray="" stroke-dashoffset="0" style="mix-blend-mode: normal"><path d="M201.54534,304.39159c0,0 -0.63536,-94.38387 -0.79335,-118.01201c-0.05451,-8.15261 8.18688,-36.76129 40.20201,-36.9211c31.60235,-0.15775 39.85672,29.48704 39.84884,36.89673c-0.07659,46.24274 0.65429,117.98648 0.65429,117.98648l-10.49667,0.09614l-0.15882,-114.84311c0,0 0.07549,-3.0993 -2.81625,-3.15415c-3.43441,-0.06514 -2.94538,3.11562 -2.94538,3.11562l0.20548,114.86995l-48.21366,0.07222l-0.30539,-115.23309c0,0 0.27949,-2.919 -2.8856,-2.93443c-3.11083,-0.01515 -2.81569,2.90899 -2.81569,2.90899l0.35311,115.0668z" fill="#ffffff" stroke="#000000" stroke-width="2" stroke-linecap="butt"/><path d="M256.1425,200.33377c-0.57113,0 -1.03411,-0.46299 -1.03411,-1.03411c0,-0.57113 0.46299,-1.03413 1.03411,-1.03413c0.57113,0 1.03411,0.463 1.03411,1.03413c0,0.57113 -0.46299,1.03411 -1.03411,1.03411z" fill="#000000" stroke="none" stroke-width="1.5" stroke-linecap="butt"/><path d="M250.88263,204.56936c-4.4635,-0.31439 -6.55245,-1.79392 -6.16985,-2.58011c0.11788,-0.24224 2.84645,1.06355 6.97038,1.3048c6.40897,0.37493 8.51033,-0.63173 8.51033,-0.63173v1.34616c0,0 -2.4135,1.04672 -9.31086,0.56089z" fill="#000000" stroke="#000000" stroke-width="0" stroke-linecap="butt"/><path d="M223.06988,199.29966c0,-0.57113 0.46299,-1.03413 1.03411,-1.03413c0.57113,0 1.03413,0.463 1.03413,1.03413c0,0.57113 -0.463,1.03411 -1.03413,1.03411c-0.57113,0 -1.03411,-0.46299 -1.03411,-1.03411z" fill="#000000" stroke="none" stroke-width="1.5" stroke-linecap="butt"/><path d="M229.36386,204.56936c-6.89736,0.48585 -9.31086,-0.56089 -9.31086,-0.56089v-1.34616c0,0 2.10136,1.00666 8.51033,0.63173c4.12393,-0.24126 6.85251,-1.54704 6.97039,-1.3048c0.3826,0.78618 -1.70634,2.26571 -6.16985,2.58011z" fill="#000000" stroke="#000000" stroke-width="0" stroke-linecap="butt"/><path d="M240.64432,261.12113c-0.81895,0 -1.48284,-0.66389 -1.48284,-1.48284c0,-0.81895 0.66389,-1.48284 1.48284,-1.48284c0.81895,0 1.48284,0.66389 1.48284,1.48284c0,0.81895 -0.66389,1.48284 -1.48284,1.48284z" data-paper-data="{&quot;index&quot;:null}" fill="#000000" stroke="none" stroke-width="1.5" stroke-linecap="butt"/><path d="M216.58107,304.40602v-119.20147c0,0 0.75721,-9.73105 0.75721,-14.63937c0,-4.498 -0.75721,-13.6872 -0.75721,-13.6872c0,0 2.67319,-2.35297 4.6557,-3.74807c1.98251,-1.3951 5.17197,-2.80371 5.17197,-2.80371c0,0 -0.6016,40.10902 14.55952,40.03867c15.43477,-0.07162 13.83154,-40.03867 13.83154,-40.03867c0,0 3.91276,1.51959 6.16585,2.94655c2.25309,1.42695 4.75379,3.60523 4.75379,3.60523c0,0 -0.75721,9.42463 -0.75721,14.19201c0,4.84193 0.75721,14.63937 0.75721,14.63937v118.69667z" fill="#970000" stroke="#000000" stroke-width="2" stroke-linecap="butt"/><path d="M256.66846,94.06362c0,0 -1.54004,8.40732 -1.13818,9.1848c1.05399,2.03914 23.61534,32.49965 -4.88747,54.75558c-35.68528,26.82905 -52.3174,-5.88074 -58.35752,-9.96173c-8.28191,-5.59565 -15.1652,-10.52075 -15.1652,-10.52075c0,0 3.44552,0.04902 5.14204,0.15862c1.58232,0.10222 4.92319,0.33089 4.92319,0.33089c0,0 -8.55617,-6.59016 -13.1589,-16.02635c-4.27346,-8.60623 -4.14573,-18.24243 -4.14573,-18.24243l2.30929,1.22955c0,0 -0.45477,-2.38117 -0.19509,-3.96672c0.2597,-1.58556 1.08794,-4.37324 1.08794,-4.37324l2.23961,2.95191c0,0 -0.71067,-13.06657 13.40497,-23.05324c13.38069,-9.32289 27.39433,-6.57532 27.39433,-6.57532l-1.45734,-2.22213c0,0 5.08479,0.39554 10.68938,4.26423c6.68002,4.61103 9.78416,8.04123 9.78416,8.04123c0,0 0.78803,-2.9081 3.01748,-5.59256c2.79363,-3.36377 5.43493,-4.34012 5.43493,-4.34012c0,0 -1.33956,4.31345 -1.74323,7.13397c-0.35956,2.51229 -0.17369,4.28718 -0.17369,4.28718c0,0 1.0762,-2.11192 2.48899,-3.78669c1.47407,-1.74743 2.95982,-2.7862 2.95982,-2.7862c0,0 -1.09276,6.99498 0.65053,12.93284c1.64596,5.60628 4.70023,10.11827 4.70023,10.11827c0,0 0.7182,-1.33268 2.23746,-2.59149c0.96301,-0.79792 1.95803,-1.35006 1.95803,-1.35006z" fill="#000000" stroke="none" stroke-width="1.5" stroke-linecap="butt"/><path d="M199.4048,138.79294c-4.30843,-5.91284 -8.69175,-14.7933 -8.69175,-14.7933c0,0 2.88472,-1.81996 10.21147,-9.9609c5.62887,-6.2544 12.54434,-18.83717 12.54434,-18.83717c0,0 -0.26808,3.69109 -0.56986,5.58403c-0.32082,2.0124 -1.01465,5.97784 -1.01465,5.97784c0,0 5.80638,-5.52279 10.03,-11.70957c5.45112,-7.49692 5.85861,-10.70131 8.63212,-10.69078c3.27341,0.01243 13.00964,19.21583 15.65267,24.11501c2.60751,5.05161 2.81265,9.42075 3.8677,12.31784c1.05505,2.89709 2.86236,5.4436 6.51383,14.8226c2.27878,5.85314 1.12397,9.783 -0.8657,17.73636c-1.98965,7.95338 -2.87296,12.62262 -6.21117,14.75363c-3.21256,2.05082 -10.28343,0.33009 -17.30821,-1.55464c-7.48025,-2.00696 -11.99885,-2.57932 -16.20184,-7.81688c-3.78523,-4.71697 -5.847,-8.03707 -8.93637,-12.4062c-2.25794,-3.19327 -5.29964,-4.30875 -7.65256,-7.53786z" fill="#000000" stroke="#000000" stroke-width="1.5" stroke-linecap="butt"/><path d="M232.45437,100.75248c0,0 1.46536,-0.52665 4.20757,-1.28101c2.50469,-0.68901 4.70414,-0.84226 4.70414,-0.84226l0.77872,0.89521c0,0 -7.81565,1.12668 -14.17366,5.80505c-5.08369,3.74073 -7.01824,7.61046 -7.01824,7.61046l-2.14681,-3.58318c0,0 1.7732,-3.08888 5.72988,-5.69638c4.09711,-2.70004 7.20392,-3.73024 7.20392,-3.73024z" data-paper-data="{&quot;index&quot;:null}" fill="#000000" stroke="none" stroke-width="1.5" stroke-linecap="butt"/><path d="M248.53361,143.0689c0.5704,0.21186 3.08357,1.39942 6.02385,2.59586c2.9637,1.20597 7.21362,2.29294 7.19412,2.4605c-0.02476,0.21265 -10.43477,0.22694 -13.67937,0.63224c-2.71902,0.33964 -6.68867,0.70564 -6.68867,0.70564c0,0 -7.10401,-1.16169 -13.27235,-2.44521c-4.94371,-1.02869 -10.39929,-1.66108 -10.40995,-1.75461c-0.01439,-0.12613 3.86835,-0.71071 6.82417,-1.39467c1.14585,-0.49661 5.43971,-1.48513 5.43971,-1.48513c0,0 4.95585,-0.27766 7.60826,0.579c2.84203,0.91791 2.83546,2.44556 3.0831,2.46906c0,0 1.18436,-1.74932 2.36886,-2.10461c1.18451,-0.35528 5.08219,-0.41633 5.50828,-0.25808z" fill="#000000" stroke="#000000" stroke-width="1.4" stroke-linecap="butt"/><path d="M229.88562,147.62249c5.09114,1.02674 11.91756,2.80736 11.91756,2.80736c0,0 5.78976,-1.55585 8.44678,-1.8344c2.05992,-0.21596 11.216,-0.70654 11.26026,-0.33377c0.04328,0.36447 -9.03119,12.90033 -21.14808,12.44714c-13.76954,-0.43578 -22.86459,-15.13559 -22.82675,-15.30472c0.03784,-0.16913 7.2591,1.19165 12.35024,2.2184z" fill="#000000" stroke="#000000" stroke-width="1.9" stroke-linecap="butt"/><path d="M238.3509,149.40856c-0.88091,0.54098 -4.72119,-0.92679 -6.0337,-2.58897c-1.17435,-1.48721 -0.88258,-3.9502 1.22354,-5.24362c2.10614,-1.29343 3.8376,-1.78082 5.62604,1.46025c1.51779,2.7506 1.29026,5.07893 -0.81587,6.37236z" fill="#000000" stroke="#000000" stroke-width="1.15" stroke-linecap="butt"/><path d="M225.67186,121.8795c0,0 2.16487,3.3291 3.73439,6.06985c3.10793,5.42717 13.60606,24.22191 13.60606,24.22191l-2.53628,1.56772c0,0 -2.86788,-3.13556 -5.92853,-7.50733c-4.14287,-5.91758 -8.90954,-13.64884 -10.92446,-16.32991c-1.90994,-2.5414 -3.75396,-4.40071 -3.75396,-4.40071" fill="#000000" stroke="#000000" stroke-width="1.3" stroke-linecap="round"/><path d="M206.15078,146.52988c0,0 -6.04337,-0.41596 -9.9495,-4.42215c-4.11001,-4.21529 -6.33846,-7.52903 -4.8198,-8.76577c1.51865,-1.23675 3.54739,0.61083 7.55338,5.16686c4.00598,4.55604 7.21594,8.02106 7.21594,8.02106z" data-paper-data="{&quot;index&quot;:null}" fill="#000000" stroke="#000000" stroke-width="1" stroke-linecap="butt"/><path d="M203.91231,143.27203c0,0 -4.56674,-0.6261 -8.10201,-4.94133c-1.97209,-2.40717 0.6446,-3.07167 0.6446,-3.07167" fill="#000000" stroke="#000000" stroke-width="0.25" stroke-linecap="round"/><path d="M202.99701,136.02332c-2.49956,-4.20568 -0.55347,-10.14677 4.06585,-12.89219c4.61933,-2.74541 9.91571,-1.10388 12.41529,3.1018c2.49956,4.20568 1.08844,9.65195 -3.53088,12.39736c-4.61933,2.74541 -10.45069,1.5987 -12.95026,-2.60697z" fill="#000000" stroke="#000000" stroke-width="1.4" stroke-linecap="butt"/><path d="M206.84021,133.80154c-1.40946,-2.37149 -0.62956,-5.43652 1.74191,-6.84597c2.37149,-1.40946 5.43652,-0.62956 6.84597,1.74191c1.40946,2.37149 0.62957,5.43652 -1.74191,6.84597c-2.37149,1.40946 -5.43652,0.62956 -6.84597,-1.74191z" fill="#000000" stroke="none" stroke-width="1.5" stroke-linecap="butt"/><path d="M226.05309,121.86495c-2.38462,-4.27191 -0.84152,-9.87878 3.69002,-12.66169c4.53153,-2.78291 9.9787,-1.47387 12.53896,2.69513c2.56027,4.169 1.43574,9.76331 -3.48134,12.86613c-4.67703,2.95135 -10.25726,1.5618 -12.74764,-2.89957z" fill="#000000" stroke="#000000" stroke-width="1.4" stroke-linecap="butt"/><path d="M230.02004,119.52916c-1.47494,-2.40171 -0.72365,-5.54435 1.67806,-7.01929c2.40171,-1.47494 5.54435,-0.72365 7.01929,1.67806c1.47494,2.40171 0.72365,5.54435 -1.67806,7.01929c-2.40171,1.47494 -5.54435,0.72365 -7.01929,-1.67806z" fill="#000000" stroke="none" stroke-width="1.5" stroke-linecap="butt"/><path d="M202.66019,135.60565c0,0 -4.66359,-7.71539 4.4154,-13.06778c8.15741,-4.81499 13.0656,3.0157 13.0656,3.0157z" fill="#000000" stroke="#000000" stroke-width="1.15" stroke-linecap="butt"/><path d="M225.5209,121.72001c0,0 -5.15999,-7.93051 4.77851,-13.61735c8.45241,-4.79948 13.18637,3.22911 13.18637,3.22911z" fill="#000000" stroke="#000000" stroke-width="1.15" stroke-linecap="butt"/><path d="M200.42885,125.22709c0,0 1.91948,-3.31342 5.65066,-6.1479c4.13461,-3.14097 6.58493,-4.12173 6.58493,-4.12173l2.41665,3.37127c0,0 -3.6246,1.42719 -7.10512,3.75185c-4.65476,3.10894 -4.91249,4.69843 -8.2967,7.31453c-2.89978,2.2416 -5.65793,3.66105 -5.65793,3.66105l-0.66656,-1.0359c0,0 3.10229,-1.81837 4.42407,-2.79714c1.09094,-0.80784 2.89693,-2.87992 2.89693,-2.87992z" fill="#000000" stroke="none" stroke-width="1.5" stroke-linecap="butt"/><path d="M246.81189,109.10651c-2.25159,-5.63344 -2.98185,-8.27845 -1.19196,-9.07354c1.78988,-0.79509 3.73743,2.69115 5.63808,8.26325c1.80636,5.2957 -0.55595,10.87377 -0.55595,10.87377c0,0 -1.63856,-4.43005 -3.89017,-10.06348z" data-paper-data="{&quot;index&quot;:null}" fill="#000000" stroke="#000000" stroke-width="1" stroke-linecap="butt"/><path d="M245.03509,105.42491c0,0 1.77613,-2.03324 3.0311,0.81435c2.24971,5.10471 0.74267,9.46086 0.74267,9.46086" data-paper-data="{&quot;index&quot;:null}" fill="#000000" stroke="#000000" stroke-width="0.25" stroke-linecap="round"/><path d="M226.65668,120.29015c-1.26666,-2.06893 -0.53042,-4.82771 1.64623,-6.16443c2.17841,-1.3378 4.97463,-0.74466 6.24554,1.32482c0.14695,0.23929 0.26707,0.48782 0.36123,0.74237" fill="none" stroke="#ffffff" stroke-width="1" stroke-linecap="butt"/><path d="M200.48067,184.1659c0,-0.16796 0.04141,-0.32624 0.11457,-0.4652l0.45388,-0.90776c-0.00212,-0.00455 0.0212,-0.0558 0.06151,-0.13814c0.10459,-0.44039 0.23705,-0.85065 0.37192,-1.18597c0.20642,-0.51322 0.4538,-1.0401 0.73334,-1.57317c0.04681,-0.21414 0.09581,-0.4277 0.15617,-0.63811c0.64074,-2.23353 1.72137,-5.29569 3.29226,-7.6061c0.37232,-1.18781 0.65567,-2.37564 0.80503,-3.55698c0.41408,-0.59837 0.76459,-1.24408 1.04173,-1.92739c0.00615,-0.01253 0.01225,-0.02509 0.01832,-0.03768c0.98627,-1.79847 2.87888,-3.5034 4.35321,-4.88865c0.49543,-0.46551 0.45042,-1.3268 0.90495,-1.82914c2.51647,-2.17374 5.3721,-4.20542 6.89667,-5.10559c1.6936,-0.99998 3.39892,-1.94334 5.11849,-2.84227c0.17533,-0.06006 0.34817,-0.12918 0.51777,-0.20955c3.08843,-0.05105 5.88662,-0.48963 9.02441,-0.48963c2.77552,0 5.94268,0.42612 8.67247,0.00749c4.1239,-0.63243 8.70351,-1.85225 12.60417,0.09808c1.74735,0.87367 3.23616,1.69506 4.76626,2.86044c1.09922,0.83721 2.81406,0.98882 3.8254,1.95564c1.17753,1.12569 2.12136,2.5123 3.24014,3.70301c0.18652,0.19851 0.43659,0.31025 0.70164,0.40213c1.68946,2.03388 3.34751,3.86576 3.7864,4.36735c1.16798,1.33483 2.36,2.97753 3.63503,4.61539c-0.17055,0.51567 -0.76517,0.63459 -0.76517,0.63459c-2.96008,0.5841 -5.03143,2.15364 -7.5867,3.60062c-3.5138,1.98977 -7.57696,3.47514 -11.05406,5.52227c-2.55206,1.50251 -4.70205,3.74294 -7.43736,5.1106c-4.49992,2.99994 -9.24708,5.57384 -13.88629,8.33177c-3.10871,1.84808 -5.03493,4.37113 -8.38648,6.04691c-3.65503,1.76057 -5.37018,4.93198 -8.07188,7.68158l-0.92575,0.92575l-0.33858,-0.33857l-0.95324,0.44271c0.02552,-0.3639 0.06352,-0.71153 0.11093,-1.04813l-0.42065,-0.21033l0.46287,-0.92575l0.14168,0.07084c0.20696,-1.02817 0.47665,-2.00081 0.70525,-3.09351c0.32923,-1.57368 -0.17857,-3.19786 -0.46287,-4.63214c-0.70512,-3.55731 -0.60133,-7.79762 -1.58537,-11.09455c-0.12678,-0.42477 -0.7665,0.44621 -1.16006,0.65019c-0.51925,0.26913 -1.0512,0.5148 -1.59161,0.73844c-2.09799,5.06965 -1.55861,10.44645 -1.55861,15.95644c0,1.74518 0.39521,4.0973 -0.02676,5.78427c-0.33633,1.34463 -1.8682,2.41855 -2.58052,3.71749c-2.15333,1.18087 -3.31234,2.36796 -4.95863,4.01461l-0.39888,0.79776c-0.16035,0.33825 -0.50491,0.57217 -0.90412,0.57217c-0.55229,0 -1,-0.44771 -1,-1v-1.38863h0.32165c-0.1336,-1.77829 0.09575,-3.45748 -0.2949,-5.32476c-0.14805,-0.70768 -0.29075,-1.41414 -0.42757,-2.12009c0.97822,-4.46309 0.26077,-10.09317 0.29179,-16.4306c0.00554,-1.13108 0.23416,-2.31573 0.55129,-3.52986c-0.26677,-0.17959 -0.44226,-0.48437 -0.44226,-0.83014v-1.38863h0.11215l-0.0854,-0.22975c0.04543,-0.09087 0.08659,-0.18112 0.12404,-0.27087c-0.06097,-0.15472 -0.10616,-0.32228 -0.13768,-0.49901c-0.28561,-0.17606 -0.47599,-0.49174 -0.47599,-0.85188z" fill="#000000" stroke="none" stroke-width="0.5" stroke-linecap="butt"/><path d="M217.68134,211.01272c0,0 13.24293,-10.64261 22.32103,-16.50406c10.34979,-6.68254 36.46425,-21.45179 36.46425,-21.45179" fill="none" stroke="#000000" stroke-width="2.5" stroke-linecap="round"/><path d="M210.73819,215.17861l-9.25753,7.8689" fill="none" stroke="#000000" stroke-width="2.5" stroke-linecap="round"/><path d="M265.43183,211.4756l-0.10557,0.01566c1.11255,2.34795 0.05647,5.53178 -0.37021,8.01342c-0.36246,2.10814 0.01291,4.63766 0.01291,6.78296c0,9.8747 0,19.74938 0,29.62408c0,0 0,0.303 -0.16679,0.57542l0.07688,0.78188c-3.25137,1.62568 -6.55389,3.13086 -10.00743,4.25855c-2.44484,0.00929 -4.58533,1.04805 -6.98114,1.39405c-5.94204,0.85812 -14.71949,2.58396 -20.40911,-0.06802c-0.02106,-0.00926 -0.04238,-0.01927 -0.06396,-0.03006c-0.31063,-0.15531 -0.45944,-0.36457 -0.52136,-0.57157c-0.07466,-0.20275 -0.08117,-0.45944 0.07415,-0.77007c0.00679,-0.01358 0.01368,-0.02684 0.02067,-0.03981l0.5451,-1.04986c5.42648,-4.85213 9.75997,-10.22701 14.36735,-15.76066c2.37917,-2.85747 4.31101,-6.16251 6.94315,-8.79465c5.44251,-8.21884 10.31739,-16.5243 14.69095,-25.27141c0,0 0.44722,-0.89443 1.34164,-0.44721c0.61856,0.30928 0.59545,0.83245 0.52236,1.12575c0.03043,0.13408 0.03043,0.23155 0.03043,0.23155z" fill="#ec0000" stroke="none" stroke-width="0.5" stroke-linecap="butt"/><path d="M219.06996,231.9164c-0.09119,0 -0.17408,-0.00832 -0.2494,-0.02343c-0.19419,0.03515 -0.34751,0.01441 -0.34751,0.01441l-0.03566,-0.18684c-0.36743,-0.29114 -0.36743,-0.80414 -0.36743,-0.80414c0,-3.66034 0.30821,-7.35862 -0.87444,-10.7928l-0.03473,-0.84041c-0.24297,-0.12832 -0.47947,-0.37814 -0.47947,-0.86445c0,-1 1,-1 1,-1c2.58077,0.03317 4.5907,1.04788 7.10333,1.40154c3.64152,0.51257 7.72195,-0.01291 11.41172,-0.01291c2.56795,0 5.70229,0.34322 7.98483,-0.86363c1.9982,-0.49955 3.6219,-1.35475 5.45425,-2.27093l0.90776,-0.45388c0.13897,-0.07316 0.29725,-0.11457 0.4652,-0.11457c0.55229,0 1,0.44771 1,1c0,0.16796 -0.04141,0.32625 -0.11457,0.46521l-0.45387,0.90775l-0.05621,-0.0281c-0.03658,0.09859 -0.07974,0.19479 -0.13112,0.28799c-0.63494,1.15168 -4.60071,2.35773 -5.8144,2.96458c-4.37603,2.18802 -8.51884,4.70779 -12.96053,6.94314c-3.79731,1.89865 -8.2827,2.91599 -12.61155,3.9028c-0.14252,0.19932 -0.38468,0.36866 -0.7962,0.36866z" fill="#ec0000" stroke="none" stroke-width="0.5" stroke-linecap="butt"/><path d="M264.43182,303.12509l-47.21337,0.46288l0.46288,-24.99532l46.7505,-13.88629z" fill="#ec0000" stroke="#ec0000" stroke-width="0.5" stroke-linecap="round"/></g></g></svg>