<svg version="1.1" xmlns="http://www.w3.org/2000/svg" xmlns:xlink="http://www.w3.org/1999/xlink" width="97.51502" height="269.45167" viewBox="0,0,97.51502,269.45167"><defs><linearGradient x1="240.73015" y1="160.08815" x2="240.73015" y2="314.16798" gradientUnits="userSpaceOnUse" id="color-1"><stop offset="0" stop-color="#ec0000"/><stop offset="1" stop-color="#970000"/></linearGradient></defs><g transform="translate(-193.06347,-45.81013)"><g data-paper-data="{&quot;isPaintingLayer&quot;:true}" fill-rule="nonzero" stroke-linejoin="miter" stroke-miterlimit="10" stroke-dasharray="" stroke-dashoffset="0" style="mix-blend-mode: normal"><path d="M201.12523,314.15354c0,0 -0.63536,-94.38387 -0.79335,-118.01201c-0.05451,-8.15261 8.18688,-36.76129 40.20201,-36.9211c31.60235,-0.15775 39.85672,29.48704 39.84884,36.89673c-0.07659,46.24274 0.65429,117.98648 0.65429,117.98648l-10.49667,0.09614l-0.15882,-114.84311c0,0 0.07549,-3.0993 -2.81625,-3.15415c-3.43441,-0.06514 -2.94538,3.11562 -2.94538,3.11562l0.20548,114.86995l-48.21366,0.07222l-0.30539,-115.23309c0,0 0.27949,-2.919 -2.8856,-2.93443c-3.11083,-0.01515 -2.81569,2.90899 -2.81569,2.90899l0.35311,115.0668z" fill="#000000" stroke="#000000" stroke-width="2" stroke-linecap="butt"/><path d="M255.72239,210.09572c-0.57113,0 -1.03411,-0.46299 -1.03411,-1.03411c0,-0.57113 0.46299,-1.03413 1.03411,-1.03413c0.57113,0 1.03411,0.463 1.03411,1.03413c0,0.57113 -0.46299,1.03411 -1.03411,1.03411z" fill="#000000" stroke="none" stroke-width="1.5" stroke-linecap="butt"/><path d="M250.46252,214.33131c-4.4635,-0.31439 -6.55245,-1.79392 -6.16985,-2.58011c0.11788,-0.24224 2.84645,1.06355 6.97038,1.3048c6.40897,0.37493 8.51033,-0.63173 8.51033,-0.63173v1.34616c0,0 -2.4135,1.04672 -9.31086,0.56089z" fill="#000000" stroke="#000000" stroke-width="0" stroke-linecap="butt"/><path d="M222.64977,209.06161c0,-0.57113 0.46299,-1.03413 1.03411,-1.03413c0.57113,0 1.03413,0.463 1.03413,1.03413c0,0.57113 -0.463,1.03411 -1.03413,1.03411c-0.57113,0 -1.03411,-0.46299 -1.03411,-1.03411z" fill="#000000" stroke="none" stroke-width="1.5" stroke-linecap="butt"/><path d="M228.94375,214.33131c-6.89736,0.48585 -9.31086,-0.56089 -9.31086,-0.56089v-1.34616c0,0 2.10136,1.00666 8.51033,0.63173c4.12393,-0.24126 6.85251,-1.54704 6.97039,-1.3048c0.3826,0.78618 -1.70634,2.26571 -6.16985,2.58011z" fill="#000000" stroke="#000000" stroke-width="0" stroke-linecap="butt"/><path d="M240.22421,270.88309c-0.81895,0 -1.48284,-0.66389 -1.48284,-1.48284c0,-0.81895 0.66389,-1.48284 1.48284,-1.48284c0.81895,0 1.48284,0.66389 1.48284,1.48284c0,0.81895 -0.66389,1.48284 -1.48284,1.48284z" data-paper-data="{&quot;index&quot;:null}" fill="#000000" stroke="none" stroke-width="1.5" stroke-linecap="butt"/><path d="M216.16096,314.16797v-119.20147c0,0 0.75721,-9.73105 0.75721,-14.63937c0,-4.498 -0.75721,-13.6872 -0.75721,-13.6872c0,0 2.67319,-2.35297 4.6557,-3.74807c1.98251,-1.3951 5.17197,-2.80371 5.17197,-2.80371c0,0 -0.6016,40.10902 14.55952,40.03867c15.43477,-0.07162 13.83154,-40.03867 13.83154,-40.03867c0,0 3.91276,1.51959 6.16585,2.94655c2.25309,1.42695 4.75379,3.60523 4.75379,3.60523c0,0 -0.75721,9.42463 -0.75721,14.19201c0,4.84193 0.75721,14.63937 0.75721,14.63937v118.69667z" fill="url(#color-1)" stroke="#000000" stroke-width="2" stroke-linecap="butt"/><path d="M232.62972,189.60855c0,0 5.94432,-21.90077 5.94432,-32.12293c0,-9.55415 -5.94432,-27.34154 -5.94432,-27.34154h15.60386c0,0 -2.72448,20.40855 -2.72448,30.27519c0,9.95408 2.72448,29.18928 2.72448,29.18928z" fill="#000000" stroke="#000000" stroke-width="1.5" stroke-linecap="butt"/><path d="M206.13258,77.79062c0,0 7.90327,-3.2547 8.3396,-4.01337c1.14437,-1.98983 14.54975,-37.44618 48.68983,-25.52179c41.87259,15.48945 23.36708,47.17703 23.204,54.46476c-0.2236,9.99256 -0.64022,18.44613 -0.64022,18.44613c0,0 -1.82337,-2.92393 -2.6493,-4.40987c-0.77033,-1.38592 -2.386,-4.31905 -2.386,-4.31905c0,0 -0.91149,10.76138 -6.35571,19.73843c-4.92448,8.25101 -13.09685,13.35837 -13.09685,13.35837l-0.21576,-2.6073c0,0 -1.75626,1.67103 -3.23011,2.3107c-1.47386,0.63966 -4.26629,1.45177 -4.26629,1.45177l1.27031,-3.4808c0,0 -10.60331,7.66876 -26.64014,1.20311c-15.08092,-6.20683 -20.35412,-19.47802 -20.35412,-19.47802l-1.07997,2.42803c0,0 -2.41908,-4.48994 -2.19884,-11.29654c0.26251,-8.11268 1.46717,-12.57929 1.46717,-12.57929c0,0 -2.87193,0.91109 -6.33582,0.48904c-4.34046,-0.52886 -6.59088,-2.2216 -6.59088,-2.2216c0,0 4.35218,-1.20784 6.94245,-2.39474c2.30722,-1.0572 3.69915,-2.17399 3.69915,-2.17399c0,0 -2.35836,0.23791 -4.53124,-0.04381c-2.26717,-0.29392 -3.94471,-0.98118 -3.94471,-0.98118c0,0 6.47357,-2.86652 10.5234,-7.54582c3.82369,-4.41802 5.96502,-9.42814 5.96502,-9.42814c0,0 -1.50934,0.11725 -3.39005,-0.47909c-1.19214,-0.378 -2.1949,-0.91595 -2.1949,-0.91595z" fill="#000000" stroke="none" stroke-width="1.5" stroke-linecap="butt"/><path d="M217.60053,95.08893c2.13274,-6.99826 6.59134,-15.84117 6.59134,-15.84117c0,0 3.18896,1.2101 14.09949,2.16749c8.38216,0.7355 22.59404,-1.30714 22.59404,-1.30714c0,0 -3.11015,2.00574 -4.80397,2.90311c-1.80072,0.954 -5.3861,2.7846 -5.3861,2.7846c0,0 7.90442,1.31733 15.38741,0.97082c9.26795,-0.15378 12.07311,-1.75543 13.73275,0.46674c1.95879,2.6227 -7.52774,21.95066 -9.85225,27.00875c-2.46765,5.12138 -5.83492,7.91299 -7.51494,10.49828c-1.68002,2.58529 -2.62754,5.56074 -7.92461,14.11878c-3.30573,5.34081 -7.13993,6.78172 -14.69074,9.97549c-7.5508,3.19378 -11.81244,5.29628 -15.52265,3.91094c-3.57057,-1.3332 -6.44845,-8.01719 -9.16756,-14.76302c-2.8954,-7.18322 -5.15574,-11.13749 -3.49908,-17.64538c1.49199,-5.86104 2.9045,-9.50505 4.53709,-14.60094c1.19322,-3.72445 0.25504,-6.82543 1.41977,-10.64731z" fill="#000000" stroke="#000000" stroke-width="1.5" stroke-linecap="butt"/><path d="M267.869,98.61465c0,0 1.30206,0.85398 3.55397,2.59111c2.05686,1.58668 3.5021,3.25171 3.5021,3.25171l-0.24686,1.16053c0,0 -5.60068,-5.56653 -13.16222,-7.83243c-6.04605,-1.81174 -10.30117,-1.02995 -10.30117,-1.02995l1.57155,-3.87017c0,0 3.53425,-0.44108 7.9971,1.15181c4.62124,1.64943 7.31283,3.51196 7.31283,3.51196z" data-paper-data="{&quot;index&quot;:null}" fill="#000000" stroke="none" stroke-width="1.5" stroke-linecap="butt"/><path d="M240.25473,133.946c0.45326,0.40595 2.35727,2.43107 4.6555,4.62079c2.31653,2.20716 5.87357,4.77441 5.79408,4.9232c-0.10088,0.18883 -9.79357,-3.60858 -12.96134,-4.41914c-2.65462,-0.67927 -6.48272,-1.79181 -6.48272,-1.79181c0,0 -6.18568,-3.68156 -11.45603,-7.13398c-4.224,-2.76699 -9.06942,-5.35256 -9.04509,-5.44351c0.03278,-0.12265 3.86001,0.75468 6.86104,1.2002c1.24811,-0.04269 5.6058,0.60923 5.6058,0.60923c0,0 4.71351,1.55576 6.86823,3.3239c2.30875,1.89456 1.74342,3.31376 1.96527,3.42628c0,0 1.74252,-1.19435 2.97486,-1.09138c1.23235,0.10298 4.88183,1.47296 5.22042,1.7762z" fill="#000000" stroke="#000000" stroke-width="1.4" stroke-linecap="butt"/><path d="M221.23419,131.35722c4.36191,2.81915 10.0627,6.97507 10.0627,6.97507c0,0 5.95744,0.67155 8.532,1.38497c1.996,0.55309 10.69615,3.44825 10.60087,3.81134c-0.09314,0.35502 -13.12666,8.69895 -24.23663,3.84169c-12.65428,-5.44603 -15.73701,-22.45488 -15.63989,-22.59842c0.09713,-0.14354 6.31904,3.76622 10.68095,6.58537z" fill="#000000" stroke="#000000" stroke-width="1.9" stroke-linecap="butt"/><path d="M232.5426,132.58859c-0.962,-0.37842 -2.09901,-4.32928 -1.56042,-6.37757c0.48189,-1.83266 2.62512,-3.08087 4.92515,-2.17612c2.30004,0.90476 3.73079,1.99493 2.21702,5.37303c-1.2847,2.86689 -3.28171,4.08542 -5.58174,3.18067z" fill="#ffffff" stroke="#000000" stroke-width="1.15" stroke-linecap="butt"/><path d="M246.91085,105.90224c0,0 -1.3577,3.73178 -2.60342,6.63408c-2.46673,5.74705 -11.16853,25.43797 -11.16853,25.43797l-2.77788,-1.08344c0,0 0.78027,-4.17704 2.43225,-9.25159c2.2361,-6.86885 5.54602,-15.32685 6.47618,-18.54909c0.88171,-3.05437 1.25813,-5.64585 1.25813,-5.64585" fill="#000000" stroke="#000000" stroke-width="1.3" stroke-linecap="round"/><path d="M215.47647,105.13168c0,0 -3.30232,-5.0784 -2.45091,-10.60853c0.89585,-5.81878 2.20305,-9.59214 4.10447,-9.12264c1.90143,0.46948 1.64548,3.20147 0.41484,9.14209c-1.23065,5.94061 -2.0684,10.58909 -2.0684,10.58909z" data-paper-data="{&quot;index&quot;:null}" fill="#ffffff" stroke="#000000" stroke-width="1" stroke-linecap="butt"/><path d="M216.733,101.38396c0,0 -2.24635,-4.02507 -0.925,-9.44477c0.73708,-3.0233 2.84172,-1.33239 2.84172,-1.33239" fill="none" stroke="#000000" stroke-width="0.25" stroke-linecap="round"/><path d="M222.07425,96.46898c1.85674,-4.52637 7.77367,-6.54471 12.74525,-4.50536c4.97157,2.03935 6.84549,7.25804 4.98876,11.78443c-1.85674,4.52637 -7.0566,6.67451 -12.02817,4.63517c-4.97157,-2.03935 -7.56257,-7.38785 -5.70584,-11.91423z" fill="#ffffff" stroke="#000000" stroke-width="1.4" stroke-linecap="butt"/><path d="M225.86185,95.7126c2.88901,-4.29622 7.97315,-7.56746 11.35579,-7.30659c3.38266,0.26089 3.78281,3.95514 0.89382,8.25133c-2.88901,4.29622 -7.97315,7.56747 -11.35579,7.30659c-3.38266,-0.26089 -3.78281,-3.95514 -0.89382,-8.25133z" fill="#000000" stroke="none" stroke-width="1.5" stroke-linecap="butt"/><path d="M247.15174,106.19807c1.97878,-4.47439 7.38633,-6.61368 12.33506,-4.66701c4.94872,1.94665 7.17897,7.08583 5.38804,11.63866c-1.79092,4.55282 -6.93669,7.01896 -12.37289,4.95668c-5.17081,-1.96159 -7.41675,-7.25551 -5.35022,-11.92832z" fill="#ffffff" stroke="#000000" stroke-width="1.4" stroke-linecap="butt"/><path d="M251.65517,105.84392c2.15744,-3.68855 6.45996,-6.24693 9.60998,-5.71431c3.15001,0.53263 3.95467,3.95455 1.79724,7.6431c-2.15744,3.68855 -6.45995,6.24693 -9.60998,5.71431c-3.15001,-0.53263 -3.95466,-3.95455 -1.79723,-7.6431z" fill="#000000" stroke="none" stroke-width="1.5" stroke-linecap="butt"/><path d="M239.87277,104.05417c0,0 -3.35925,8.36611 -13.09576,4.33171c-8.75292,-3.62132 -5.44867,-12.25219 -5.44867,-12.25219z" data-paper-data="{&quot;index&quot;:null}" fill="#000000" stroke="#000000" stroke-width="1.15" stroke-linecap="butt"/><path d="M265.57567,114.82333c0,0 -3.23256,8.89208 -13.75321,4.37216c-8.91794,-3.86635 -5.3508,-12.47703 -5.3508,-12.47703z" data-paper-data="{&quot;index&quot;:null}" fill="#000000" stroke="#000000" stroke-width="1.15" stroke-linecap="butt"/><path d="M229.05457,87.74822c0,0 3.80161,-0.45926 8.31019,0.81695c4.99608,1.4142 7.25331,2.78198 7.25331,2.78198l-1.23997,3.9583c0,0 -3.32016,-2.03745 -7.27066,-3.42002c-5.28332,-1.84902 -6.7082,-1.09897 -10.83363,-2.22932c-3.53488,-0.96855 -6.32775,-2.31843 -6.32775,-2.31843l0.42673,-1.15555c0,0 3.31855,1.3849 4.89546,1.85224c1.30153,0.38572 4.04314,0.58239 4.04314,0.58239z" fill="#000000" stroke="none" stroke-width="1.5" stroke-linecap="butt"/><path d="M269.82972,115.10961c3.14655,-5.18697 4.82052,-7.36115 6.53224,-6.40935c1.71171,0.95179 0.09775,4.60447 -3.21086,9.47415c-3.1445,4.62813 -9.02173,6.0956 -9.02173,6.0956c0,0 2.55381,-3.97344 5.70035,-9.1604z" data-paper-data="{&quot;index&quot;:null}" fill="#ffffff" stroke="#000000" stroke-width="1" stroke-linecap="butt"/><path d="M271.70244,111.47587c0,0 2.69262,0.19616 1.17237,2.9114c-2.72525,4.86746 -7.11188,6.28335 -7.11188,6.28335" data-paper-data="{&quot;index&quot;:null}" fill="none" stroke="#000000" stroke-width="0.25" stroke-linecap="round"/><path d="M225.77314,131.81297c-0.6886,0.29223 -1.70517,0.4123 -2.68998,-0.62792c-1.71874,-1.81547 0.09673,-3.53421 0.09673,-3.53421l2.39345,-0.89042c0.20007,0.03611 0.41032,0.07349 0.62878,0.11282c0.03261,-0.03458 0.06639,-0.06842 0.10134,-0.1015c0.33007,-0.31249 0.72296,-0.51741 1.13541,-0.61596c-0.00673,-0.00589 -0.01346,-0.01177 -0.02019,-0.01766c0,0 -1.88124,-1.6465 -0.23476,-3.52773c1.6465,-1.88124 3.52773,-0.23476 3.52773,-0.23476c2.50832,2.19531 5.01665,4.39064 7.52497,6.58596l2.9639,2.59406c0.06684,0.05715 0.13133,0.11836 0.19314,0.18365c0.94923,1.00265 0.90593,2.58498 -0.09673,3.53421c-0.63908,0.60503 -1.51365,0.80683 -2.30969,0.61399l-0.71157,-0.16151c-0.73405,0.47385 -1.65772,0.52252 -2.42902,0.15538l-1.03743,-0.46489l-0.57129,0.00139l-0.00026,-0.11004c-0.20676,0.02069 -0.41482,0.03199 -0.62438,0.03231c-0.67922,0.001 -1.64028,-0.58122 -2.61685,-1.25033l-2.65247,-0.59442c-0.48129,-0.10066 -0.93785,-0.34398 -1.30149,-0.72809c-0.24674,-0.26062 -0.42642,-0.56041 -0.53962,-0.87806c-0.24237,-0.02892 -0.48612,-0.05232 -0.72974,-0.07626z" fill="#000000" stroke="none" stroke-width="0.5" stroke-linecap="butt"/><path d="M206.96789,107.12057c-0.40274,-1.18528 0.87025,-6.87259 1.09397,-8.34311c0.71057,-4.67057 1.46427,-9.33138 2.1581,-14.00766l0.09109,-0.15661l-0.04722,-0.01395l1.02497,-3.47167c0.11704,-0.42472 0.34786,-0.8239 0.69113,-1.14888c0.90408,-0.85591 2.27945,-0.90485 3.23704,-0.17115c0.1187,-0.57033 0.2374,-1.14065 0.3561,-1.71098c0,0 0.50939,-2.44756 2.95695,-1.93815c2.44756,0.50939 1.93815,2.95695 1.93815,2.95695c-0.84733,4.07129 -1.69467,8.14257 -2.54201,12.21385c-0.13528,0.74917 -0.29508,1.50083 -0.46874,2.25215c-0.5292,2.54268 -1.05839,5.08535 -1.58758,7.62803l0.10758,0.48024c0,0 0.12958,1.20363 -0.62917,2.02592l-0.98651,4.73996c-0.09601,0.49414 -0.34173,0.96408 -0.73516,1.33654c-0.14945,0.14149 -0.31177,0.26093 -0.48297,0.35842l-0.09321,0.31856c-0.11657,0.42676 -0.3479,0.82798 -0.69264,1.15435c-1.00265,0.94923 -2.58498,0.90593 -3.53421,-0.09673c-0.24039,-0.25392 -0.41713,-0.54503 -0.53075,-0.85361l-1.17334,-2.97291l0.06959,-0.02747c-0.08277,-0.17934 -0.15697,-0.36314 -0.22118,-0.55213z" fill="#000000" stroke="none" stroke-width="0.5" stroke-linecap="butt"/><path d="M261.14735,133.26474c-2.49723,0.11759 -2.61483,-2.37964 -2.61483,-2.37964l0.41648,-2.90824c2.12591,-2.90638 3.86769,-5.68855 5.65283,-8.69469l0.50589,-1.82831l0.0388,0.01074l0.03627,-0.1253l-0.00992,-0.08715c0.03028,-0.06457 0.06083,-0.12969 0.09167,-0.19533l0.32674,-1.12889l0.05732,0.01659c-0.00526,-0.05427 -0.0085,-0.10906 -0.00952,-0.16438c-0.04709,-2.53253 1.98237,-4.66202 2.95327,-7.00153l0.03761,-0.04317l-0.01485,-0.00694l1.03646,-2.21735c0.13019,-0.29626 0.32041,-0.57198 0.57016,-0.80842c0.64427,-0.60995 1.52787,-0.81008 2.32907,-0.60921c0.01006,-0.0011 0.02016,-0.00216 0.03031,-0.00318c0.94253,-0.09505 1.56392,0.20306 1.97223,0.61002l2.0267,-1.14392c0.98236,-0.58306 2.27137,-0.43173 3.08978,0.43274c0.63726,0.67312 0.82719,1.60751 0.57981,2.43619l-0.70928,2.53635l-0.0468,-0.01309l0.00286,0.15404c-1.14024,2.77738 -1.78831,5.85923 -3.12269,8.43898c0.10578,1.30553 0.20299,2.61253 0.28876,3.922l-0.76871,0.58753l0.33104,0.26132l-2.23141,2.82669c-0.08066,0.10565 -0.17084,0.20624 -0.27048,0.30058c-1.00265,0.94923 -2.58498,0.90593 -3.53421,-0.09673c-0.13586,-0.1435 -0.25138,-0.29888 -0.34666,-0.46255c-0.84298,1.44806 -1.67542,2.89663 -2.41346,4.17233l-1.4459,2.62372c-0.12503,0.23994 -0.29145,0.46349 -0.49896,0.65995c-1.00265,0.94923 -2.58498,0.90593 -3.53421,-0.09673c-0.02797,-0.02954 -0.05508,-0.05959 -0.08133,-0.09011c-0.21208,0.06203 -0.4512,0.10245 -0.72079,0.11515z" fill="#000000" stroke="none" stroke-width="0.5" stroke-linecap="butt"/></g></g></svg>