<svg version="1.1" xmlns="http://www.w3.org/2000/svg" xmlns:xlink="http://www.w3.org/1999/xlink" width="84.31513" height="77.88995" viewBox="0,0,84.31513,77.88995"><defs><linearGradient x1="207.36352" y1="180" x2="272.63648" y2="180" gradientUnits="userSpaceOnUse" id="color-1"><stop offset="0" stop-color="#9a5200"/><stop offset="1" stop-color="#5d3a00"/></linearGradient><linearGradient x1="206.96322" y1="180" x2="273.03678" y2="180" gradientUnits="userSpaceOnUse" id="color-2"><stop offset="0" stop-color="#9a5200"/><stop offset="1" stop-color="#a77b00"/></linearGradient></defs><g transform="translate(-197.84243,-141.05503)"><g data-paper-data="{&quot;isPaintingLayer&quot;:true}" stroke-miterlimit="10" stroke-dasharray="" stroke-dashoffset="0" style="mix-blend-mode: normal"><path d="M282.15756,179.99999c0,8.32468 -6.70181,15.02648 -15.02647,15.02648h-54.2622c-8.32466,0 -15.02646,-6.70181 -15.02646,-15.02648c0,-8.32466 6.70179,-15.02646 15.02646,-15.02646h54.2622c8.32466,0 15.02647,6.70179 15.02647,15.02646z" fill="#808080" fill-rule="evenodd" stroke="none" stroke-width="0.314" stroke-linecap="round" stroke-linejoin="round"/><path d="M238.39157,179.99997c0,6.73986 -5.42596,12.16582 -12.16582,12.16582h-12.93946c-6.73986,0 -12.16582,-5.42596 -12.16582,-12.16582c0,-6.73986 5.42596,-12.16582 12.16582,-12.16582h12.93946c6.73986,0 12.16582,5.42596 12.16582,12.16582z" fill="#ffffff" fill-rule="evenodd" stroke="none" stroke-width="0.27619" stroke-linecap="round" stroke-linejoin="round"/><path d="M200.75,180.65472v-0.02972c0,-1.2981 -0.02975,-3.00319 0.53106,-4.17347c1.19724,-4.78897 7.39053,-0.20153 10.46894,-0.20153c3.94561,0.08583 7.49883,5.0983 11.77639,2.92779c0.84061,-0.40624 1.39799,-1.35485 2.31549,-1.65213c3.41948,-1.10793 5.65068,2.76775 8.46921,3.47809c1.07464,-0.00917 4.2448,-1.42929 4.70801,-0.93645c0.80052,0.85173 -0.94045,5.47741 -1.17117,6.59497c-0.51168,1.02984 -0.34932,2.1534 -0.47668,3.27382c-0.10806,0.95066 -0.77226,1.72105 -0.875,2.625c-0.20304,1.78643 0.12875,3.64611 0.12875,5.43891c-0.02542,2.02737 -1.99145,5.35695 -3.80033,2.51287c-0.89448,-1.40639 0.22794,-3.03536 -0.50977,-4.26652c-0.24563,-0.40993 -1.15214,-0.78258 -1.5649,-0.74635c-2.01443,-0.05282 -2.53255,3.10958 -3.97997,4.04581c-1.07995,0.69854 -5.20339,-2.42158 -5.77378,0.39028c0.02412,2.82604 2.1337,4.66206 2.12875,7.56391c-0.00149,0.87382 -0.06961,2.82236 -1.50847,2.48186c-1.08843,-0.25758 -1.85705,-2.05245 -2.96109,-2.49088c-6.86887,0.11683 -3.79659,-6.83071 -5.32287,-10.84073c-0.94076,-0.89758 -3.23923,-1.64337 -3.7166,0.31931c-0.21395,0.87964 1.4642,2.39988 0.23758,3.509c-1.50539,1.36118 -2.86319,-1.13855 -3.09137,-2.24386c-0.33924,-1.39476 0.30172,-3.79222 -0.60174,-4.98595c-0.10059,-0.13291 -0.00833,0.33623 -0.05037,0.49753c-0.14544,0.55793 -0.26271,1.32288 -1.18078,1.24871c-1.15707,-0.09348 -1.49904,-3.29518 -1.66958,-4.14692c-0.69965,-3.56378 -2.63471,-6.04161 -2.63471,-9.84806c0,0 0,-0.19843 0.125,-0.34528z" fill="#ff0000" fill-rule="nonzero" stroke="none" stroke-width="0.5" stroke-linecap="butt" stroke-linejoin="miter"/><path d="M251.81513,218.59628l-44.45161,-62.34772l20.82135,-14.84485l44.45161,62.34772z" fill="url(#color-1)" fill-rule="nonzero" stroke="#000000" stroke-width="0.5" stroke-linecap="butt" stroke-linejoin="miter"/><path d="M206.96322,196.6321l54.02845,-47.08543l12.04511,13.82123l-54.02845,47.08543z" fill="url(#color-2)" fill-rule="nonzero" stroke="#000000" stroke-width="0.5" stroke-linecap="butt" stroke-linejoin="miter"/><path d="M213.05,197.49048c0,0.7732 -0.53726,1.4 -1.2,1.4c-0.66274,0 -1.2,-0.6268 -1.2,-1.4c0,-0.7732 0.53726,-1.4 1.2,-1.4c0.66274,0 1.2,0.6268 1.2,1.4z" fill="#000000" fill-rule="nonzero" stroke="#000000" stroke-width="0.5" stroke-linecap="butt" stroke-linejoin="miter"/><path d="M219.65,205.09048c0,0.7732 -0.58203,1.4 -1.3,1.4c-0.71797,0 -1.3,-0.6268 -1.3,-1.4c0,-0.7732 0.58203,-1.4 1.3,-1.4c0.71797,0 1.3,0.6268 1.3,1.4z" fill="#000000" fill-rule="nonzero" stroke="#000000" stroke-width="0.5" stroke-linecap="butt" stroke-linejoin="miter"/><path d="M269.85,162.79048c0,0.71797 -0.49249,1.3 -1.1,1.3c-0.60751,0 -1.1,-0.58203 -1.1,-1.3c0,-0.71797 0.49249,-1.3 1.1,-1.3c0.60751,0 1.1,0.58203 1.1,1.3z" fill="#000000" fill-rule="nonzero" stroke="#000000" stroke-width="0.5" stroke-linecap="butt" stroke-linejoin="miter"/><path d="M261.65,152.19048c0,0.60751 -0.44772,1.1 -1,1.1c-0.55228,0 -1,-0.49249 -1,-1.1c0,-0.60751 0.44772,-1.1 1,-1.1c0.55228,0 1,0.49249 1,1.1z" fill="#000000" fill-rule="nonzero" stroke="#000000" stroke-width="0.5" stroke-linecap="butt" stroke-linejoin="miter"/><path d="M229.05,144.99048c0,0.71797 -0.44772,1.3 -1,1.3c-0.55228,0 -1,-0.58203 -1,-1.3c0,-0.71797 0.44772,-1.3 1,-1.3c0.55228,0 1,0.58203 1,1.3z" fill="#000000" fill-rule="nonzero" stroke="#000000" stroke-width="0.5" stroke-linecap="butt" stroke-linejoin="miter"/><path d="M212.05,156.89048c0,0.88366 -0.58203,1.6 -1.3,1.6c-0.71797,0 -1.3,-0.71634 -1.3,-1.6c0,-0.88366 0.58203,-1.6 1.3,-1.6c0.71797,0 1.3,0.71634 1.3,1.6z" fill="#000000" fill-rule="nonzero" stroke="#000000" stroke-width="0.5" stroke-linecap="butt" stroke-linejoin="miter"/><path d="M254.05,214.39048c0,0.82843 -0.6268,1.5 -1.4,1.5c-0.7732,0 -1.4,-0.67157 -1.4,-1.5c0,-0.82843 0.6268,-1.5 1.4,-1.5c0.7732,0 1.4,0.67157 1.4,1.5z" fill="#000000" fill-rule="nonzero" stroke="#000000" stroke-width="0.5" stroke-linecap="butt" stroke-linejoin="miter"/><path d="M269.05,202.09048c0,0.99411 -0.67157,1.8 -1.5,1.8c-0.82843,0 -1.5,-0.80589 -1.5,-1.8c0,-0.99411 0.67157,-1.8 1.5,-1.8c0.82843,0 1.5,0.80589 1.5,1.8z" fill="#000000" fill-rule="nonzero" stroke="#000000" stroke-width="0.5" stroke-linecap="butt" stroke-linejoin="miter"/></g></g></svg>