<svg version="1.1" xmlns="http://www.w3.org/2000/svg" xmlns:xlink="http://www.w3.org/1999/xlink" width="135.18782" height="372.97814" viewBox="0,0,135.18782,372.97814"><defs><linearGradient x1="234.39996" y1="85.64652" x2="243.75524" y2="197.59276" gradientUnits="userSpaceOnUse" id="color-1"><stop offset="0" stop-color="#bfbfbf"/><stop offset="1" stop-color="#bfbfbf" stop-opacity="0"/></linearGradient><linearGradient x1="281.41197" y1="24.34347" x2="244.6931" y2="94.96115" gradientUnits="userSpaceOnUse" id="color-2"><stop offset="0" stop-color="#000000"/><stop offset="1" stop-color="#ffffff"/></linearGradient><linearGradient x1="242.31593" y1="77.1111" x2="198.4638" y2="161.44747" gradientUnits="userSpaceOnUse" id="color-3"><stop offset="0" stop-color="#d9d9d9"/><stop offset="1" stop-color="#e4e4e4"/></linearGradient><linearGradient x1="244.65007" y1="65.94254" x2="241.14731" y2="72.67904" gradientUnits="userSpaceOnUse" id="color-4"><stop offset="0" stop-color="#999999"/><stop offset="1" stop-color="#eaeaea"/></linearGradient><linearGradient x1="257.42709" y1="75.89172" x2="252.93277" y2="84.5352" gradientUnits="userSpaceOnUse" id="color-5"><stop offset="0" stop-color="#afafaf"/><stop offset="1" stop-color="#eaeaea"/></linearGradient><linearGradient x1="254.29296" y1="65.25713" x2="250.05244" y2="73.41249" gradientUnits="userSpaceOnUse" id="color-6"><stop offset="0" stop-color="#999999"/><stop offset="1" stop-color="#e6e6e6"/></linearGradient><linearGradient x1="265.94281" y1="47.58143" x2="249.67041" y2="78.87649" gradientUnits="userSpaceOnUse" id="color-7"><stop offset="0" stop-color="#585858"/><stop offset="1" stop-color="#ffffff"/></linearGradient></defs><g transform="translate(-182.11325,7.72661)"><g data-paper-data="{&quot;isPaintingLayer&quot;:true}" fill-rule="nonzero" stroke-linejoin="miter" stroke-miterlimit="10" stroke-dasharray="" stroke-dashoffset="0" style="mix-blend-mode: normal"><path d="M203.02228,163.58646c0.33998,-0.02366 0.62005,0.0883 0.62005,0.0883l0.64817,0.28898c4.37572,3.05928 7.048,8.48288 4.19926,13.57431c-0.97435,1.74141 -2.85904,2.82456 -4.5067,4.02926l-0.31175,0.56443c-0.1931,0.36197 -0.56023,0.62157 -0.99947,0.65828c-0.56035,0.04683 -1.06519,-0.28356 -1.26428,-0.77948l-0.48719,-1.13603c-0.57122,-1.3456 -1.31667,-3.23875 -1.24353,-4.71916c0.0636,-1.28728 0.83419,-1.16452 0.59477,-2.33434c-0.69033,-3.37302 0.25753,-6.20765 1.54673,-9.43285c0,0 0.35039,-0.87656 1.20393,-0.80169z" fill="#000000" stroke="none" stroke-width="0.5" stroke-linecap="butt"/><path d="M233.46905,18.29175c0,0 8.66992,-1.90606 9.30243,-2.62705c1.65895,-1.891 24.3202,-36.96103 54.86671,-17.56064c37.23541,24.71361 10.53899,54.77183 8.44122,62.49029c-2.87638,10.58318 -5.53438,19.49165 -5.53438,19.49165c0,0 -1.02364,-3.46846 -1.44442,-5.21131c-0.39245,-1.62554 -1.20852,-5.06292 -1.20852,-5.06292c0,0 -3.76001,11.26545 -11.52219,19.74122c-7.05597,7.8059 -16.48398,11.62932 -16.48398,11.62932l0.47983,-2.81535c0,0 -2.17849,1.43153 -3.80401,1.82178c-1.62552,0.39024 -4.59904,0.70438 -4.59904,0.70438l2.17954,-3.45187c0,0 -12.50943,6.0691 -26.62853,-3.9632c-13.24387,-9.56891 -14.92461,-24.7207 -14.92461,-24.7207l-1.7118,2.3697c0,0 -1.19578,-5.25117 0.8306,-12.44671c2.41521,-8.57624 4.7919,-13.08946 4.7919,-13.08946c0,0 -3.07835,0.40376 -6.38699,-0.72678c-4.14593,-1.41663 -5.9185,-3.65977 -5.9185,-3.65977c0,0 4.61904,-0.42805 7.49251,-1.18058c2.55946,-0.67028 4.2309,-1.58408 4.2309,-1.58408c0,0 -2.39225,-0.2111 -4.46324,-0.93833c-2.16084,-0.75876 -3.6349,-1.8198 -3.6349,-1.8198c0,0 7.15484,-1.77459 12.39784,-5.95408c4.95024,-3.94612 8.39639,-8.85302 8.39639,-8.85302c0,0 -1.52173,-0.17232 -3.22057,-1.17667c-1.07685,-0.63661 -1.92419,-1.40607 -1.92419,-1.40607z" fill="#000000" stroke="none" stroke-width="1.5" stroke-linecap="butt"/><path d="M290.75782,299.94306c-1.24566,0.1041 -1.34976,-1.14156 -1.34976,-1.14156l-0.01666,-0.19931c-0.12702,-1.51996 -0.38365,-2.98061 -0.71884,-4.40638c-0.54747,-1.36808 -0.81872,-3.20021 -1.28966,-4.31309c-0.24242,-0.57287 -0.37781,-1.10473 -0.46887,-1.62374c-0.82007,-2.47736 -1.6598,-4.95407 -2.22132,-7.57267c0,0 -0.00826,-0.03919 -0.01481,-0.10502c-0.09522,0.00447 -0.18861,-0.00191 -0.27893,-0.01807c-0.87962,4.43771 -2.60717,8.65984 -5.59759,11.29085c-1.16274,1.023 -2.60091,1.50156 -3.90286,2.29447c-2.2204,0.94698 -4.08128,1.24135 -5.60892,0.63125c-0.02543,0.65331 -0.03529,1.30959 -0.0248,1.96978c0.07221,4.55081 2.13227,9.40197 1.09753,13.87441c-0.41729,1.71726 -0.69411,2.7044 -1.72809,4.18852l-0.35799,0.06347l0.0528,0.1231l-0.40986,0.17576c0.11456,0.7566 0.23415,1.50839 0.36497,2.25248c0.72677,4.13371 0.7506,8.18363 3.18511,11.79726c3.75296,5.57067 11.13793,7.68888 14.2819,13.56212c1.08891,2.03418 1.04142,3.98934 1.22501,6.18624c-0.35981,3.26777 -0.41252,9.19785 -2.74765,11.7912c-2.80144,3.11125 -8.83371,2.47651 -12.57915,2.78951c-12.16612,1.01672 -24.48581,3.68004 -36.1221,-0.89616c-1.75595,-4.76166 -1.86937,-9.42458 -2.29004,-14.45825c-0.22964,-2.74789 -0.89639,-5.84919 0.00567,-8.5506c1.14302,-3.42299 4.07894,-6.0518 4.52168,-9.86317c0.25977,-2.2362 -0.48563,-5.26941 -0.67181,-7.49733c-0.25386,-3.03777 -0.51025,-6.07535 -0.76391,-9.11317c-2.48737,-0.97479 -4.85105,-2.18787 -7.29287,-3.3643c-3.63581,-1.75167 -8.02642,-2.8657 -10.02509,-6.84148c-1.20527,-2.39754 -1.15378,-5.39703 -1.37166,-8.00418c-0.79752,-9.54323 0.01099,-19.14569 -0.78734,-28.6339c-0.15639,-1.85866 -0.7963,-4.23222 -0.03674,-6.01311c0.32057,-0.75164 0.39101,-1.98105 1.19214,-2.14202c0.87392,-0.17558 1.49744,0.96747 2.24616,1.4512c0.0857,0.19285 0.17011,0.38623 0.2533,0.58011c0.06269,-0.14175 0.15114,-0.27029 0.25987,-0.37915l0.51102,-0.51782c0.04393,-0.71196 0.77689,-1.02629 0.77689,-1.02629c0.33272,-0.14268 0.91793,-0.3679 1.39873,-0.63387c-0.01642,-0.03397 -0.03169,-0.06748 -0.04574,-0.10022l0.04021,-1.26854c-0.0228,-0.03082 -0.04556,-0.06166 -0.06829,-0.0925l-0.68276,-0.26264c0,0 -1.1607,-0.46397 -0.69674,-1.62467c0.00952,-0.02383 0.01935,-0.04697 0.02944,-0.06945c-0.67789,-1.07563 -1.25048,-2.1858 -1.61941,-3.36385c-0.05945,-0.18984 -0.44398,-4.91122 -0.47364,-5.26604c-0.32189,-3.85181 -0.43105,-7.3713 0.13232,-10.8955c0.00487,-1.36006 0.28937,-2.49462 0.78689,-3.47863c0.22488,-0.7606 0.48728,-1.52644 0.79164,-2.30081c0.40008,-1.63235 1.05206,-3.19821 1.73247,-4.73498c0.44568,-1.00659 0.29396,-2.48586 1.23026,-3.06483c0.82356,-0.50926 1.89049,0.44756 2.85447,0.53897c0.20656,0.01959 0.41963,0.00176 0.63439,-0.02914c-0.05251,-1.32234 -0.1396,-2.639 -0.24856,-3.94279c-0.12118,-1.45008 -0.14638,-3.19265 -0.33682,-4.89457c0.38955,-0.47834 0.3354,-1.12622 0.3354,-1.12622c-0.49811,-5.96042 -0.31792,-13.04204 -2.57739,-18.63344c1.55505,-0.79036 3.38226,-1.21501 5.01765,-1.6107c8.81036,-2.13172 18.45283,-2.10144 27.4896,-2.81633c1.21561,0.19037 2.56592,-0.01676 3.64682,0.5711c4.05217,2.20379 3.80258,7.33903 4.11572,11.218c0.76195,0.82765 0.62327,2.0387 0.62327,2.0387c-0.4889,3.9975 -2.44708,7.43167 -3.08576,11.40895c-0.08294,0.51647 -0.16045,1.03417 -0.23375,1.55283c3.83815,0.58888 4.5214,3.99454 5.81497,7.75876v0.00002c0.75621,2.20052 1.30659,4.46451 1.72615,6.76211c1.06181,-0.36405 1.51953,0.70326 1.51953,0.70326c1.23141,2.90076 1.97314,6.08829 2.38813,9.25202c0.32401,0.28092 0.6773,0.60103 1.02806,0.95067c0.49935,-1.94932 1.25393,-3.89086 1.40417,-5.84566c0.34313,-4.46469 0.66029,-7.92904 3.8267,-11.3126c1.41448,-0.187 2.81877,-0.32532 4.2351,-0.44831c0.04256,-0.36944 0.24415,-1.02498 1.13302,-1.09927c1.24566,-0.1041 1.34976,1.14156 1.34976,1.14156c0.00866,0.11692 0.01661,0.23402 0.02387,0.35131c0.37459,0.33976 0.41871,0.86779 0.41871,0.86779c0.57803,7.05163 2.56871,13.92649 3.16065,21.00977l0.13325,1.59444c0.05749,0.68796 -0.45361,1.29226 -1.14156,1.34976c-0.39767,0.03323 -0.76739,-0.12352 -1.0197,-0.3946l-0.87255,-0.92152l0.05797,-0.0549c-0.10414,-0.08986 -0.20181,-0.18718 -0.2913,-0.29399c-0.65662,-0.78377 -0.30326,-2.02353 -0.51413,-3.02402c-0.25307,-1.20073 -0.51929,-2.40914 -0.83707,-3.6029c-0.20346,6.19357 0.33395,12.58589 0.8487,18.74538c0.67237,8.0457 0.86505,16.32297 2.50784,24.19959c0.60727,2.9116 0.6905,5.84377 1.16198,8.73266c0.54228,1.21686 0.96518,2.44852 0.88423,3.66289c-0.00344,0.05173 -0.00816,0.1032 -0.01405,0.15444l0.0361,-0.00302l0.12492,1.49479c0.019,0.22733 -0.02408,0.44551 -0.11512,0.63785c0.02214,0.20656 0.042,0.41418 0.05944,0.62289l0.01666,0.19931c0,0 0.1041,1.24566 -1.14156,1.34976zM273.1815,247.22139c-0.26117,0.03569 -0.53134,0.10518 -0.80494,0.19778c-0.09039,0.06956 -0.17705,0.14262 -0.2584,0.22059l-0.92267,0.87365c-0.17652,0.17002 -0.40379,0.28935 -0.65985,0.33203c-0.30572,1.47192 -0.62902,2.94452 -0.96911,4.40703c-0.14177,1.41549 -0.36818,2.83676 -0.62959,4.26192c-0.06652,1.71317 -0.18874,3.42007 -0.46358,5.1059c0.31581,3.98938 -0.32229,7.87392 -1.07224,11.76275l0.3897,0.49052l-0.02754,0.02189c0.21773,0.17034 0.43369,0.34517 0.6419,0.52194c0.84589,-0.06283 1.78074,-0.33022 2.18951,-0.64763c0.18388,-0.14278 0.36429,-0.28666 0.54162,-0.43177c0.47695,-0.97828 0.87041,-1.9871 1.2873,-2.82571c0.91267,-1.83589 2.72715,-3.27514 3.51933,-5.20318c1.05016,-2.55595 0.35027,-6.29016 0.12444,-8.99241c-0.26487,-3.16943 -0.91524,-6.65173 -1.15062,-10.00534c-0.57977,-0.04261 -1.17197,-0.16691 -1.73527,-0.08993zM230.22303,260.50397c0.22545,-0.39997 0.41895,-0.81347 0.58973,-1.2365c0.37456,-2.25093 0.59431,-4.51922 0.50948,-6.79007c-0.03528,-0.2372 -0.07188,-0.47024 -0.10963,-0.69816c-0.00606,-0.0366 -0.01169,-0.07394 -0.01696,-0.11193c-0.33169,-1.20336 -0.83566,-2.25968 -1.62162,-2.64176c-0.17039,-0.08283 -0.36905,-0.07807 -0.57165,-0.05701c-0.41214,0.14503 -0.81573,0.27062 -1.15979,0.07156c-1.33837,-0.77434 -2.53575,-2.00257 -3.11695,-3.43541c-0.44453,-1.0959 -0.40143,-2.40658 -0.11747,-3.78934c-0.21391,-0.35015 -0.50054,-0.75559 -0.7818,-1.18943c-0.00208,0.01994 -0.00414,0.03992 -0.00621,0.05992c-0.58341,5.6439 0.3499,10.32353 3.52915,14.94405c1.16267,1.90761 1.90171,3.65017 2.39468,5.47688c0.01563,0.0278 0.03118,0.05564 0.04667,0.0835zM260.64828,273.52293c0.00647,-0.00483 0.01293,-0.00967 0.01938,-0.01451c-0.00466,-0.0107 -0.00915,-0.02148 -0.01351,-0.03235l-0.00088,-0.00205c-0.03379,0.05415 -0.04804,0.08102 -0.00498,0.0489zM258.77628,274.37694c-0.18495,0.18065 -0.37263,0.34971 -0.54804,0.49825c0.12323,1.49109 0.24134,2.98271 0.36324,4.47338c0.09499,1.1615 0.26194,2.31727 0.48301,3.46795c0.44726,-0.01139 0.89694,0.00333 1.35835,0.04568c0.22505,-0.33769 0.43594,-0.67886 0.63863,-1.02377c-0.01429,-0.06026 -0.02427,-0.12233 -0.02959,-0.18592h-0.00001c-0.03681,-0.44047 0.15946,-0.84666 0.48601,-1.09699c0.04534,-1.81753 0.14861,-3.63019 0.46453,-5.46526c-1.50742,0.69533 -2.64515,0.74427 -3.21614,-0.71332zM233.13487,281.50851c-0.46101,-1.66511 -0.64217,-3.32176 -0.59259,-5.01281c-0.23206,-1.45579 -0.2529,-2.96752 -0.1547,-4.49485c-0.04875,0.15641 -0.09587,0.31938 -0.14157,0.48841c-0.49243,1.82115 -0.77788,7.03871 0.72633,9.04783zM226.46634,276.1592c0.10813,-0.03478 0.19062,-0.10396 0.25633,-0.1962c-0.02766,-0.08226 -0.04686,-0.1568 -0.05257,-0.21682c-0.13408,-1.41038 0.33369,-2.97779 0.72439,-4.31955c0.00884,-0.03036 0.01819,-0.06166 0.02801,-0.09387c0.07983,-0.87118 0.21837,-1.7424 0.4271,-2.61249c-0.01388,-0.16608 -0.14006,-1.67593 -0.15394,-1.84201c0,0 -0.05112,-0.61175 0.34698,-1.01365c-0.10092,-0.99267 -0.22417,-1.90907 -0.39625,-2.78688c-0.81067,-0.60964 -1.80728,-1.22394 -2.28923,-1.56089c-0.66463,-0.12299 -1.35131,-0.15697 -2.02543,-0.1044l-1.21181,0.45845c-0.11383,0.04606 -0.23641,0.07597 -0.36521,0.08674c-0.19898,0.01663 -0.39095,-0.0143 -0.56471,-0.08332c1.83456,4.67553 3.13351,9.57043 5.14432,14.15115c0.04437,0.0441 0.08837,0.08868 0.13202,0.13373zM282.34421,268.13325l-1.06101,0.08867v0c-0.17778,0.01486 -0.34998,-0.00825 -0.50861,-0.06259c-0.56727,1.3512 -1.30736,2.62683 -2.26284,3.79712c-1.27012,2.29959 -3.18018,4.5945 -5.42242,6.46982c-0.79362,1.38992 -1.69946,2.70025 -2.63968,3.99447c-0.05837,1.1863 -0.1645,2.36237 -0.29018,3.53387c0.29026,0.40044 0.58224,0.7587 0.88185,1.07646c0.64578,0.30313 1.43199,0.74088 1.69507,1.31572c1.12353,0.58479 2.43832,0.77124 4.14749,0.6167l0.08627,0.04244l0.00236,-0.0404l1.09881,0.06438c4.20934,-4.87103 4.94693,-13.85524 4.45366,-19.75775c0,0 -0.0196,-0.23457 0.06,-0.50864c-0.05783,-0.2898 -0.13573,-0.51627 -0.24076,-0.63026zM282.70243,261.73949l-0.13163,-0.21614l0.92846,-0.56545c-0.20659,-4.22927 -0.30669,-8.43918 -0.6658,-12.73634c-0.11163,-1.33581 -0.00498,-2.9907 -0.342,-4.28618c-0.16607,-0.63836 -0.49711,-1.4123 -0.78324,-2.20517c0.01362,1.86163 -0.11495,3.659 0.04543,5.57811c0.38035,4.55128 1.03562,9.76982 0.52247,14.64573c0.13824,-0.07733 0.28063,-0.14857 0.42631,-0.21457zM232.33596,286.52121c0.00557,-0.1758 0.013,-0.35109 0.02236,-0.52583l-0.09939,0.03556c0.02449,0.16379 0.05014,0.32723 0.07704,0.49026zM263.88422,264.15677c0,0 0.02529,-0.00211 0.06896,-0.00214c0.47248,-1.50675 0.96677,-2.9787 1.36024,-4.36748v0.00001c0.19497,-0.6882 0.38625,-1.38389 0.57369,-2.08566c-0.02984,-2.94776 -0.42179,-5.76237 -1.43418,-8.04891c-0.0657,-0.16482 -0.13797,-0.32065 -0.21617,-0.4688c-0.10711,-0.08479 -0.20225,-0.18643 -0.28939,-0.29968c-0.05212,0.02252 -0.10538,0.04652 -0.15994,0.07208l-0.72268,0.27356c-0.08552,0.06795 -0.17103,0.13589 -0.25655,0.20382c-0.17464,0.13876 -0.87962,0.707 -1.59374,1.26394c0.02315,0.27663 0.04633,0.55337 0.06946,0.83021c0.35907,4.29669 1.38769,8.42273 1.57381,12.72501c0.34111,-0.03411 0.68316,-0.06727 1.02647,-0.09596zM260.29586,287.20086c-0.04247,0.0221 -0.08504,0.04437 -0.12771,0.06678c0.00777,0.02668 0.01554,0.05335 0.02334,0.08002c0.03543,-0.04915 0.07022,-0.09807 0.10438,-0.1468zM225.76283,229.70897c0.58845,-0.46763 1.30767,-0.73585 1.92845,-0.55413c0.02861,-0.00902 0.05669,-0.01807 0.08423,-0.02715l0.17606,-0.10722c0.02692,-0.29589 0.0509,-0.59216 0.07211,-0.88873c-0.85987,0.51213 -1.75022,0.99553 -2.57354,1.55876c0.10607,0.00364 0.21034,0.00979 0.31269,0.01847zM227.00407,225.82742l1.13527,-0.19263c0.01327,-0.5886 0.01721,-1.17751 0.01293,-1.76609c-0.31918,0.1221 -0.65735,0.33822 -0.97249,0.28152c-0.52712,-0.09484 -0.92754,-1.11256 -1.37907,-0.82452c-0.49488,0.31569 0.0835,1.19681 -0.08567,1.7589c-0.20948,0.69598 -0.49069,1.36914 -0.77194,2.04193c0.65286,-0.43568 1.3455,-0.86238 2.06098,-1.2991zM261.14596,290.39582c0.00361,-0.05413 0.00724,-0.10827 0.01086,-0.16239c-0.01597,0.01696 -0.03186,0.03384 -0.04767,0.05066c0.01225,0.03725 0.02452,0.0745 0.0368,0.11173zM277.60276,268.50046c0.02206,0.00508 0.04431,0.01095 0.06672,0.01764c0.04677,-0.11413 0.09146,-0.22927 0.1344,-0.34528c-0.0646,0.11056 -0.13178,0.21972 -0.20112,0.32764zM266.7317,246.28611c-0.0255,0.00388 -0.05057,0.00762 -0.07511,0.01121c0.01764,0.00345 0.03533,0.00695 0.05309,0.01051c0.00732,-0.00729 0.01466,-0.01453 0.02201,-0.02172z" fill="#000000" stroke="none" stroke-width="0.5" stroke-linecap="butt"/><path d="M208.20658,352.44805c0,0 -4.06397,-101.47892 -7.19779,-169.30644l0.59377,-0.99762c0.90787,-1.22318 2.53467,-2.11943 2.7808,-3.62134c0.1369,-0.83537 -0.33842,-1.88438 -1.03578,-2.96662l1.53497,0.53409c0.2008,0.07495 0.42089,0.10784 0.64864,0.08881c0.82555,-0.06899 1.43886,-0.79416 1.36987,-1.61971c-0.02334,-0.27933 -0.1218,-0.53434 -0.27385,-0.74687l-0.89888,-1.30681l-0.02225,0.01531l-0.02228,-0.07667c-1.95665,-2.29855 -3.87919,-5.02787 -5.55152,-7.87164c-0.92612,-19.13393 -1.70903,-33.53212 -2.18738,-38.82907c-0.73326,-8.11975 5.09699,-37.31539 36.9876,-40.14083c31.47943,-2.78902 42.17392,26.06538 42.78314,33.44999c1.27546,15.57306 5.58702,56.91772 10.73729,104.83978c-1.32924,0.71923 -2.66178,1.42988 -3.89585,2.28039c-2.52548,1.74054 -4.82431,3.94868 -6.74851,6.36489l-9.78961,-109.42391c0,0 -0.18288,-3.09482 -3.06914,-2.90866c-3.4279,0.2211 -2.67568,3.35009 -2.67568,3.35009l9.8575,106.45006c-3.73198,-0.06105 -6.15951,-2.48549 -9.912,-3.5494c-5.24172,-1.48615 -10.22576,-1.32428 -15.57618,-1.29672c-3.32749,0.01713 -6.67514,-0.5093 -9.81111,0.83555c-4.28053,0.33345 -8.79862,2.19153 -12.89945,3.95766l-9.82875,-102.66354c0,0 0.03543,-2.93214 -3.11995,-2.68393c-3.10129,0.24397 -2.56365,3.13337 -2.56365,3.13337l23.55559,224.22896z" fill="#ffffff" stroke="#000000" stroke-width="2" stroke-linecap="butt"/><path d="M197.9449,125.74348c-0.73326,-8.11975 5.09699,-37.31539 36.9876,-40.14083c31.47943,-2.78902 42.17392,26.06538 42.78314,33.44999c0.86911,10.61152 3.1479,33.18907 6.14116,61.65991c-3.32153,2.22308 -6.66567,4.42945 -10.10833,6.44327l-5.72952,-64.04202c0,0 -0.18288,-3.09482 -3.06914,-2.90866c-3.4279,0.2211 -2.67568,3.35009 -2.67568,3.35009l6.1571,66.48977c-1.09943,0.54744 -2.21191,1.06806 -3.33966,1.55667c-2.54506,1.35422 -5.12085,3.00832 -7.82534,4.03084c-2.02165,0.76435 -4.54283,0.86414 -6.67542,1.16911c-6.36178,0.90974 -13.16853,1.59735 -19.5039,0.04693c-3.63568,-0.88973 -7.09819,-2.14325 -10.64036,-3.31185l-6.3424,-66.24787c0,0 0.03543,-2.93214 -3.11995,-2.68393c-3.10129,0.24397 -2.56365,3.13337 -2.56365,3.13337l6.65664,63.36547c-4.43145,-2.72252 -8.95139,-5.30694 -13.28496,-8.11879c-0.16594,-0.10766 -0.3306,-0.21758 -0.49404,-0.32954l0.3044,-0.51143c0.90787,-1.22318 2.53467,-2.11943 2.7808,-3.62134c0.1369,-0.83537 -0.33842,-1.88438 -1.03578,-2.96662l1.53497,0.53409c0.2008,0.07495 0.42089,0.10784 0.64864,0.08881c0.82555,-0.06899 1.43886,-0.79416 1.36987,-1.61971c-0.02334,-0.27933 -0.1218,-0.53434 -0.27385,-0.74687l-0.89888,-1.30681l-0.02225,0.01531l-0.02228,-0.07667c-1.95665,-2.29855 -3.8792,-5.02788 -5.55153,-7.87166c-0.92613,-19.13392 -1.70904,-33.53209 -2.18739,-38.82905z" fill="url(#color-1)" stroke="none" stroke-width="0" stroke-linecap="butt"/><path d="M208.22324,352.64735c0,0 -4.06397,-101.47892 -7.19779,-169.30644l0.59377,-0.99762c0.90787,-1.22318 2.53467,-2.11943 2.7808,-3.62134c0.1369,-0.83537 -0.33842,-1.88438 -1.03578,-2.96662l1.53497,0.53409c0.2008,0.07495 0.4209,0.10784 0.64864,0.08881c0.82555,-0.06899 1.43886,-0.79416 1.36987,-1.61971c-0.02334,-0.27932 -0.1218,-0.53434 -0.27385,-0.74687l-0.89888,-1.30681l-0.02225,0.01531l-0.02228,-0.07667c-1.95664,-2.29855 -3.87919,-5.02787 -5.55152,-7.87163c-0.92612,-19.13393 -1.70904,-33.53211 -2.18739,-38.82907c-0.73326,-8.11975 5.09699,-37.31539 36.9876,-40.14083c31.47943,-2.78902 42.17392,26.06538 42.78314,33.44999c1.27546,15.57306 5.58702,56.91772 10.73729,104.83978c-1.32924,0.71923 -2.66178,1.42988 -3.89585,2.28039c-2.52548,1.74054 -4.82431,3.94868 -6.74851,6.36489l-9.78961,-109.42391c0,0 -0.18288,-3.09482 -3.06914,-2.90866c-3.4279,0.2211 -2.67568,3.35009 -2.67568,3.35009l9.8575,106.45006c-3.73198,-0.06105 -6.15951,-2.48549 -9.912,-3.5494c-5.24172,-1.48615 -10.22576,-1.32428 -15.57618,-1.29672c-3.32749,0.01713 -6.67514,-0.5093 -9.81111,0.83555c-4.28053,0.33345 -8.79862,2.19153 -12.89945,3.95766l-9.82875,-102.66354c0,0 0.03543,-2.93214 -3.11995,-2.68393c-3.10129,0.24397 -2.56365,3.13337 -2.56365,3.13337l23.55559,224.22896z" fill="none" stroke="#000000" stroke-width="2" stroke-linecap="butt"/><path d="M254.30509,135.03633c-0.56915,0.04756 -1.06908,-0.37526 -1.11664,-0.9444c-0.04756,-0.56915 0.37526,-1.0691 0.9444,-1.11666c0.56915,-0.04756 1.06908,0.37527 1.11664,0.94442c0.04756,0.56915 -0.37526,1.06908 -0.9444,1.11664z" fill="#000000" stroke="none" stroke-width="1.5" stroke-linecap="butt"/><path d="M249.41623,139.69524c-4.47418,0.05842 -6.67908,-1.24201 -6.36329,-2.05733c0.0973,-0.25122 2.92513,0.82281 7.05483,0.71978c6.41793,-0.16011 8.42816,-1.33827 8.42816,-1.33827l0.11211,1.34148c0,0 -2.31795,1.24408 -9.23181,1.33434z" fill="#000000" stroke="#000000" stroke-width="0" stroke-linecap="butt"/><path d="M221.20817,135.22455c0,-0.57113 0.46299,-1.03413 1.03411,-1.03413c0.57113,0 1.03413,0.463 1.03413,1.03413c0,0.57113 -0.463,1.03411 -1.03413,1.03411c-0.57113,0 -1.03411,-0.46299 -1.03411,-1.03411z" fill="#000000" stroke="none" stroke-width="1.5" stroke-linecap="butt"/><path d="M227.97221,141.48729c-6.83294,1.05857 -9.32523,0.21646 -9.32523,0.21646l-0.11211,-1.34148c0,0 2.17789,0.82816 8.53338,-0.0792c4.08951,-0.58386 6.69987,-2.11234 6.83751,-1.88076c0.44674,0.75159 -1.51173,2.39994 -5.93355,3.08497z" fill="#000000" stroke="#000000" stroke-width="0" stroke-linecap="butt"/><path d="M246.21268,221.89936c-0.81611,0.0682 -1.53298,-0.53809 -1.60118,-1.3542c-0.0682,-0.81611 0.53809,-1.53298 1.3542,-1.60118c0.81611,-0.0682 1.53298,0.53809 1.60118,1.3542c0.0682,0.81611 -0.53809,1.53298 -1.3542,1.60118z" data-paper-data="{&quot;index&quot;:null}" fill="#000000" stroke="none" stroke-width="1.5" stroke-linecap="butt"/><path d="M243.48485,33.38308c3.62004,-6.35764 9.91479,-14.00304 9.91479,-14.00304c0,0 2.84462,1.88202 13.27725,5.21616c8.01501,2.56149 22.32808,3.69539 22.32808,3.69539c0,0 -3.47521,1.27239 -5.32494,1.77515c-1.96647,0.53448 -5.86674,1.53149 -5.86674,1.53149c0,0 7.42097,3.02396 14.79687,4.33214c9.07473,1.88885 12.16352,0.94355 13.29365,3.47638c1.33383,2.98937 -12.17229,19.75688 -15.55259,24.17967c-3.53385,4.45305 -7.43276,6.43551 -9.64036,8.58787c-2.20762,2.15237 -3.7865,4.84648 -10.83648,12.02955c-4.39967,4.48273 -8.45694,5.04486 -16.52537,6.49927c-8.06842,1.45442 -12.6882,2.56789 -16.00275,0.40028c-3.18981,-2.08603 -4.52675,-9.2394 -5.69522,-16.41815c-1.24421,-7.64421 -2.57928,-11.99886 0.46847,-17.98287c2.74482,-5.38922 4.92438,-8.63322 7.63803,-13.24511c1.98334,-3.3707 1.75033,-6.60212 3.7273,-10.07414z" fill="url(#color-2)" stroke="#000000" stroke-width="1.5" stroke-linecap="butt"/><g stroke="none" stroke-linecap="butt"><path d="M264.56258,89.556c0,0 -0.58241,0.82301 -1.62983,2.09178l-0.77377,-0.0595c-5.54047,-1.85445 -10.42854,-4.27085 -15.56894,-6.94248c-5.29878,-2.87308 -8.99589,-7.4236 -13.4948,-11.25943c-0.19123,-0.16305 -1.42787,-1.43425 -1.57323,-1.77002c-0.33919,-0.78345 0.01515,-2.06117 -0.75555,-2.4408c-0.84772,-0.41756 -3.01727,0.35592 -4.91859,1.19004c2.28279,-4.27677 4.64625,-7.27304 4.64625,-7.27304c0,0 12.55921,-2.62378 17.47355,1.18394c1.22107,0.9461 3.61302,7.38406 3.61302,7.38406c0,0 6.84101,1.18177 9.6468,5.15445c3.93184,5.56703 3.33508,12.74101 3.33508,12.74101z" fill="#000000" stroke-width="0"/><path d="M203.25532,162.23946c-6.78628,5.59266 -13.32249,1.92923 -16.69713,-0.98444c-3.23226,-2.79074 -5.65556,-8.68262 -3.80081,-15.95939c5.28624,-20.73964 34.82741,-63.68053 44.85004,-77.86179c7.39524,-1.46075 14.82223,-3.52746 19.28695,-0.28272c4.77642,3.41061 7.59684,9.09488 11.36704,13.82392c1.46825,1.84164 3.77495,3.62403 3.93091,7.06707c0.07889,1.74164 -0.05042,3.51788 0.05935,5.08596c-7.36102,10.22043 -37.66661,51.53323 -58.99635,69.11143z" fill="#000000" stroke-width="0"/><path d="M223.93285,92.40982c-3.00119,5.79544 -6.20983,13.49809 -7.43803,16.39662c-2.49543,6.1568 -13.48732,22.52997 -8.20454,22.81685c3.9026,0.26966 13.41956,-7.31956 24.72693,-19.1886c6.65077,-6.9652 8.06524,-8.59323 9.00054,-8.60297c0.81712,0.00282 5.76867,-3.69905 4.82642,-2.72595c-17.02971,18.52889 -19.33924,21.58631 -23.76812,25.10377c-4.77628,3.85033 -16.52025,15.8975 -20.5747,12.71193c-5.65282,-4.4238 6.43599,-23.40655 16.15816,-42.2163c8.21318,-16.01481 7.0094,-15.20488 7.64895,-13.19924c0.16682,0.79694 0.74509,2.9034 -2.37562,8.9039z" data-paper-data="{&quot;noHover&quot;:false,&quot;origItem&quot;:[&quot;Path&quot;,{&quot;applyMatrix&quot;:true,&quot;segments&quot;:[[[732.56655,396.53901],[0.21094,0.0533],[-0.59374,-0.1218]],[[732.94937,398.35841],[-0.9297,-1.72044],[1.07032,2.02494]],[[737.25405,400.83249],[-2.52342,-0.03046],[1.8125,0.02284]],[[739.87905,400.23109],[-0.57812,0.57094],[0.54688,-0.52526]],[[741.85561,396.66843],[-1.07812,2.41316],[0.07032,-0.12942]],[[741.51967,396.53901],[0.23438,-0.04566],[-0.26562,0.05328]],[[740.23061,398.23661],[0.47656,-0.92112],[-0.80468,1.56818]],[[738.20717,400.05601],[1.17188,-0.19792],[-1.57032,0.27406]],[[734.61343,399.45461],[0.54686,0.62424],[-0.24218,-0.29688]],[[733.56655,397.78747],[0.32814,0.62422],[-0.33594,-0.64706]]],&quot;closed&quot;:true,&quot;fillColor&quot;:[0,0,0]}]}" fill="#ffffff" stroke-width="0.5"/><path d="M218.43415,92.11763c-5.96377,11.23156 -19.79217,34.05982 -20.74931,37.15192c-2.52708,8.07029 -2.45792,12.32044 2.94455,14.91961c5.76392,2.85721 16.00199,-6.11558 34.52294,-26.19386c6.86332,-7.49098 19.7312,-22.3374 21.42937,-23.64183c2.85722,-2.12271 -0.74928,2.41397 -13.51953,19.53124c-31.79487,42.93486 -41.83335,51.03243 -53.52407,42.68463c-6.0782,-4.63063 -6.48328,-8.16529 -2.518,-18.01616c3.23592,-8.14511 8.19458,-18.26894 25.84732,-45.2597c16.43138,-25.0554 15.46366,-23.51882 16.13222,-23.04143c0.27102,0.19352 -4.54768,10.67289 -10.56547,21.86555z" data-paper-data="{&quot;noHover&quot;:false,&quot;origItem&quot;:[&quot;Path&quot;,{&quot;applyMatrix&quot;:true,&quot;segments&quot;:[[[730.47281,395.74731],[0.11718,0],[-0.28906,0]],[[730.58999,398.43453],[-0.42968,-2.89276],[0.47656,3.11352]],[[732.08999,403.26849],[-0.74218,-0.82216],[0.88282,0.99724]],[[736.77749,404.59307],[-2.6875,-0.02284],[5.05468,0]],[[743.25405,398.35841],[-0.30468,5.1613],[0.14844,-2.063]],[[742.99623,396.47051],[0.38282,-0.32734],[-0.21876,0.19792]],[[741.80091,398.58679],[0.4297,-0.9744],[-1.1875,2.61872]],[[737.87903,401.67747],[2.23438,-0.09896],[-2.07812,0.09896]],[[733.47279,400.70307],[0.92968,0.77648],[-0.35938,-0.29688]],[[731.75405,397.96255],[0.59374,1.21802],[-0.57032,-1.218]]],&quot;closed&quot;:true,&quot;fillColor&quot;:[0,0,0]}]}" fill="url(#color-3)" stroke-width="0.5"/><path d="M242.05561,65.05338c2.88297,0.66276 4.08181,1.56956 5.73116,4.00204c1.1712,1.73611 4.57621,6.90245 3.46574,8.39504c-0.2524,0.33925 -6.76419,-2.65873 -11.33093,-6.04253c-3.87105,-2.86832 -8.26889,-4.81604 -8.06698,-5.0874c0.50475,-0.67844 7.38926,-1.87703 10.20091,-1.26712z" data-paper-data="{&quot;noHover&quot;:false,&quot;origItem&quot;:[&quot;Path&quot;,{&quot;applyMatrix&quot;:true,&quot;segments&quot;:[[[732.89469,393.12859],[0,0],[-0.92188,0.4263]],[[730.47281,395.02411],[0,-0.3045],[0,0.1218]],[[733.56657,395.24487],[-1.69532,0],[2,0]],[[736.66033,394.99365],[0,0.15226],[0,-0.6699]],[[735.20721,393.02961],[0.6953,0.25122],[-0.97656,-0.35018]],[[732.89471,393.12857],[0.95312,-0.4263],[0,0]]],&quot;closed&quot;:true,&quot;fillColor&quot;:[0,0,0]}]}" fill="url(#color-4)" stroke-width="0.5"/><path d="M262.05423,83.68891l-0.5267,5.31528l-3.51266,-4.07942c-2.31817,-1.53353 -9.30893,-9.06037 -10.12299,-9.90039c-1.3018,-1.41182 -0.67235,0.65732 0.955,0.56388c4.35318,-0.24996 6.94468,-1.44991 10.42277,1.57456c1.90226,1.64627 2.45625,3.09911 2.78459,6.52611z" data-paper-data="{&quot;noHover&quot;:false,&quot;origItem&quot;:[&quot;Path&quot;,{&quot;applyMatrix&quot;:true,&quot;segments&quot;:[[[740.47281,393.10575],[0.88282,0.0685],[-1.61718,-0.12942]],[[738.32437,394.54451],[0,-1.24084],[0,0.57856]],[[739.11343,395.37427],[-0.66406,-0.1294],[0.40626,0.06852]],[[741.66031,395.44279],[-0.97656,0.05328],[0,0]],[743.44937,395.37427],[[742.49625,394.30091],[0,0],[-0.8125,-0.92112]]],&quot;closed&quot;:true,&quot;fillColor&quot;:[0,0,0]}]}" fill="url(#color-5)" stroke-width="0.5"/></g><path d="M249.36765,73.02051c-0.85519,-0.58078 -1.09517,-4.68498 -0.11918,-6.56461c0.87325,-1.68176 3.23857,-2.42789 5.28321,-1.03932c2.04465,1.38858 3.20052,2.7668 0.98068,5.72913c-1.88392,2.51403 -4.10007,3.26339 -6.14472,1.87482z" fill="url(#color-6)" stroke="#000000" stroke-width="1.15" stroke-linecap="butt"/><path d="M269.25467,50.14885c0,0 -2.1454,3.34167 -3.99909,5.89882c-3.6706,5.0636 -16.49107,22.35779 -16.49107,22.35779l-2.47148,-1.66801c0,0 1.68007,-3.90306 4.40794,-8.48986c3.69241,-6.20865 8.78193,-13.73129 10.39817,-16.66996c1.53205,-2.78557 2.46934,-5.23076 2.46934,-5.23076" fill="url(#color-7)" stroke="#000000" stroke-width="1.3" stroke-linecap="round"/><path d="M247.20698,35.51451c3.01546,-4.4079 9.38015,-5.36108 13.75098,-2.21971c4.37083,3.14137 4.85442,9.0221 1.83896,13.43003c-1.08147,1.58087 -9.08516,15.16116 -12.56379,18.05585c-2.00327,1.66699 6.63228,-11.89771 3.96768,-10.29497c-2.95183,1.77552 -12.37041,9.40879 -13.45613,9.09078c-0.97763,-0.28634 7.33484,-17.49019 6.43435,-18.13738c-3.15994,-2.27109 -5.05558,6.60097 -4.49372,2.97698c0.21531,-1.38872 3.68625,-11.6804 4.52166,-12.90156z" fill="#000000" stroke="#000000" stroke-width="1.4" stroke-linecap="butt"/><path d="M270.11661,49.15954c3.13088,-4.34534 9.03088,-5.53935 13.40232,-2.49822c4.37143,3.04113 5.21945,8.92394 2.2533,13.38954c-0.51342,0.77297 -17.47034,22.84184 -19.62765,24.50712c-3.81872,2.94775 3.3541,-13.90823 1.89215,-13.52374c-2.48347,0.65317 2.93065,-3.51847 0.42075,-5.21535c-2.19315,-1.48274 -6.62167,7.7335 -7.05777,5.39001c-0.47595,-2.55759 7.01062,-19.6812 8.7169,-22.04935z" fill="#000000" stroke="#000000" stroke-width="1.4" stroke-linecap="butt"/><path d="M244.70826,24.97389c3.85363,-7.4113 12.88634,-10.34699 20.17514,-6.55706c7.2888,3.78993 10.07354,12.87033 6.21992,20.28161c-3.85363,7.4113 -12.88634,10.34699 -20.17514,6.55706c-7.2888,-3.78993 -10.07355,-12.87032 -6.21992,-20.28161z" fill="#000000" stroke="#000000" stroke-width="1.4" stroke-linecap="butt"/><path d="M237.76626,43.20194c-1.10904,-0.57666 -0.53237,-1.6857 -0.53237,-1.6857l0.0551,-0.09181c-0.16907,-0.01047 -0.33874,-0.05567 -0.49871,-0.13885c-0.61251,-0.31848 -0.85086,-1.07319 -0.53237,-1.6857c0.04284,-0.08239 0.09358,-0.15801 0.1508,-0.22642l0.7823,-0.97358l0.02611,0.02098l0.02442,-0.08002c2.21959,-2.1188 4.52714,-2.70262 6.43064,-1.92773c1.34092,-0.25405 2.57983,-0.42214 3.2293,-0.55059l-0.03907,-0.11379c0,0 1.01176,-0.73406 1.74582,0.27769c0.73406,1.01176 -0.27769,1.74582 -0.27769,1.74582l-0.94402,0.54278c-0.40895,0.08088 -0.81575,0.16865 -1.22082,0.2617c0.43628,0.66329 0.80713,1.45439 1.09685,2.36765c0,0 0.18836,0.59639 -0.12327,1.0787c-0.09091,0.23802 -0.28074,0.47239 -0.6428,0.64631c-1.12675,0.54123 -1.66798,-0.58552 -1.66798,-0.58552c-1.20687,-2.73179 -3.42026,-1.4992 -5.20867,0.06912l-0.16784,0.51658c0,0 -0.57666,1.10904 -1.6857,0.53237z" fill="#000000" stroke="none" stroke-width="0.5" stroke-linecap="butt"/><path d="M261.3928,41.11636c0.57666,-1.10904 1.6857,-0.53237 1.6857,-0.53237l0.22181,0.11533c0.57743,0.30256 1.14581,0.62112 1.70894,0.94947c0.13017,-0.05586 0.2608,-0.10521 0.39163,-0.14746c-0.05885,-0.1759 -0.11819,-0.36019 -0.17966,-0.55425c-2.43868,-12.26389 11.69519,-25.23118 23.71002,-21.0119c6.41185,3.32003 12.18145,7.75077 17.19653,12.95525c3.06088,3.17648 5.22726,7.46976 3.06835,11.6671c-4.24327,8.16066 -11.6731,14.06403 -18.21606,20.26867c-0.68335,0.64801 -1.16206,1.35899 -1.66691,2.07888l0.29381,0.15277l-0.57666,1.10904c-0.31848,0.61251 -1.07319,0.85086 -1.6857,0.53237c-0.36745,-0.19106 -0.60024,-0.53913 -0.65894,-0.9193l-0.04168,-0.25186c-0.00137,0.59375 -0.11302,1.28322 -0.35528,2.08117c0,0 -0.38649,1.18875 -1.57524,0.80226c-1.18875,-0.38649 -0.80226,-1.57524 -0.80226,-1.57524c1.18425,-3.31204 -2.1629,-2.30552 -4.36529,-1.93787l0.07749,0.10681c0,0 -1.01175,0.73406 -1.74582,-0.27769c-0.73407,-1.01175 0.2777,-1.74583 0.2777,-1.74583l0.98244,-0.54974c0.92436,-0.15178 1.87712,-0.25625 2.7806,-0.26472c-0.04721,-0.05845 -0.09436,-0.11692 -0.14145,-0.17543c-0.12587,-0.03317 -0.25503,-0.06872 -0.38761,-0.10714c0,0 -1.15193,-0.33386 -0.87208,-1.47588c-2.21236,-2.80394 -4.3796,-5.6303 -6.91543,-8.25727c-0.9945,-1.03026 -1.71386,-2.26694 -2.58569,-3.37076c-0.1895,0.31685 -0.55487,0.64862 -1.24003,0.53963c-1.23448,-0.19637 -1.03812,-1.43084 -1.03812,-1.43084c0.20194,-1.07212 0.00627,-2.19467 -0.33837,-3.26278c-0.46544,-0.279 -0.9276,-0.56309 -1.38858,-0.84838c-1.41932,0.19868 -3.20247,1.27685 -4.69696,2.23686l-0.00189,0.00363l0.17945,0.14419l-0.78397,0.97566c-0.36263,0.46993 -1.02043,0.62758 -1.56557,0.34412c-0.61251,-0.31848 -0.85086,-1.07319 -0.53237,-1.6857l0.69199,-1.33084c0.53063,-0.9928 1.40975,-2.22168 2.45098,-3.22884c-0.20089,-0.10873 -0.40273,-0.21552 -0.60566,-0.32007l-0.22181,-0.11533c0,0 -1.10904,-0.57666 -0.53237,-1.6857z" fill="#000000" stroke="none" stroke-width="0.5" stroke-linecap="butt"/><path d="M224.12741,225.91572c-0.1665,-2.896 -0.07065,-5.66628 -0.06038,-8.5948c0.01702,-4.85831 -1.10838,-9.80562 -0.56046,-14.65297l-0.10332,-1.23639v0c-0.05749,-0.68796 0.4536,-1.29226 1.14156,-1.34976c0.61231,-0.05117 1.15834,0.34806 1.31157,0.92153l0.46457,1.61087l-0.31451,0.0907c-0.00175,0.01554 -0.0035,0.03109 -0.00522,0.04664c2.0587,4.36498 2.3875,9.56037 4.46353,14.04871c0.37653,0.81406 0.98166,3.09212 1.6951,3.75126c0.76367,0.70553 2.46072,-0.04681 3.164,-0.26675c1.91617,-0.59925 3.57177,-1.22486 5.03396,0.73867c0.50965,0.68439 1.27488,1.51095 1.05081,2.33431c-0.26206,0.96298 -1.39827,1.44614 -2.22981,1.998c-0.47523,0.31538 -1.07887,0.37054 -1.61829,0.55582c-1.83935,0.15371 -3.63694,-0.37745 -5.39977,0.39276c-1.96051,0.85659 -3.396,1.99497 -5.56283,2.49772c-1.03658,0.24051 -2.20134,1.16175 -3.12784,0.63839c-0.7412,-0.41869 -0.16174,-1.69485 -0.24259,-2.54228z" fill="#000000" stroke="none" stroke-width="0.5" stroke-linecap="butt"/><path d="M253.52726,225.56954c0.38684,-0.45739 0.80751,-0.5102 1.14072,-0.44115c0.2013,-0.153 0.39047,-0.21744 0.39047,-0.21744c2.43623,-0.82299 3.33207,-1.65257 4.55635,-3.8736l0.68792,-1.24549c0.1931,-0.36197 0.56023,-0.62157 0.99947,-0.65828c0.63443,-0.05302 1.19771,0.37751 1.32662,0.98436l0.31179,1.36057l-0.0171,0.00392c0.01151,0.02761 0.0228,0.05532 0.03383,0.08315c0.21258,0.53589 -0.28757,1.29834 0.09822,1.72674c0.23131,0.25686 0.6659,-0.29616 0.85658,-0.58447c0.77284,-1.16848 0.76554,-1.74237 1.03355,-3.16498c0.5212,-2.76641 1.30611,-5.8486 1.23774,-8.67217c-0.06832,-2.82171 -0.87013,-5.44444 -0.00808,-8.17958l0.28335,-1.16608c0.11401,-0.52209 0.55702,-0.93168 1.11736,-0.97851c0.68796,-0.05749 1.29226,0.4536 1.34976,1.14156l0.11659,1.39514l-0.37875,0.03165c0.37271,1.74546 0.30617,3.37096 0.63529,5.47751c0.77849,4.98278 2.02089,9.68396 2.43887,14.73669c0.26408,3.19228 0.57715,6.15126 -2.6194,7.67867c-2.99194,0.25003 -6.7607,-0.59971 -9.64809,-1.48584c-1.77938,-0.54608 -2.90739,-1.62694 -4.8458,-1.71466l-0.95006,-0.47608c0,0 -0.95442,-0.8072 -0.14722,-1.76163z" fill="#000000" stroke="none" stroke-width="0.5" stroke-linecap="butt"/></g></g></svg>