<svg version="1.1" xmlns="http://www.w3.org/2000/svg" xmlns:xlink="http://www.w3.org/1999/xlink" width="109.01503" height="299.38964" viewBox="0,0,109.01503,299.38964"><defs><radialGradient cx="259.50827" cy="118.98426" r="9.25" gradientUnits="userSpaceOnUse" id="color-1"><stop offset="0" stop-color="#000000"/><stop offset="1" stop-color="#000000" stop-opacity="0"/></radialGradient><radialGradient cx="225.0297" cy="112.41784" r="8.85714" gradientUnits="userSpaceOnUse" id="color-2"><stop offset="0" stop-color="#970000"/><stop offset="1" stop-color="#ec0000"/></radialGradient></defs><g transform="translate(-180.3222,-23.31334)"><g data-paper-data="{&quot;isPaintingLayer&quot;:true}" fill-rule="nonzero" stroke-linejoin="miter" stroke-miterlimit="10" stroke-dasharray="" stroke-dashoffset="0" style="mix-blend-mode: normal"><path d="M190.86289,312.36718c0,0 9.02278,-99.5212 11.28267,-124.43532c0.77975,-8.59632 12.40185,-37.89609 46.15385,-34.77686c33.31683,3.07902 38.97055,35.16453 38.20135,42.9716c-4.82937,48.71991 -11.42658,124.39414 -11.42658,124.39414l-11.07062,-0.9766l11.62589,-121.03096c0,0 0.39781,-3.2581 -2.64369,-3.61285c-3.61228,-0.42132 -3.4236,2.98059 -3.4236,2.98059l-11.57947,121.06404l-50.81203,-4.87496l11.51149,-121.45695c0,0 0.59426,-3.04716 -2.73933,-3.38845c-3.27645,-0.33542 -3.26573,2.77617 -3.26573,2.77617l-11.44413,121.28663z" fill="#ffffff" stroke="#000000" stroke-width="2" stroke-linecap="butt"/><path d="M185.83638,312.49334c0,0 11.11512,-103.24527 15.87721,-134.57116c0.47018,-3.09293 2.4039,-6.72605 2.7004,-8.22133c0.70867,-3.57384 10.70721,-4.8927 10.70721,-4.8927l64.06232,4.83944c0,0 7.48143,4.78295 7.72935,7.76657c0.02102,0.25293 1.42472,6.03255 1.21172,11.28404c-1.26766,31.25329 -7.51141,133.43982 -7.51141,133.43982l-49.85115,-4.91563z" fill="#111111" stroke="none" stroke-width="0" stroke-linecap="butt"/><path d="M270.06746,321.40679c0,0 4.02494,-1.41806 5.42973,-10.70765c4.09304,-27.06645 9.19018,-87.00898 10.69223,-106.15223c0.909,-11.58493 -6.37186,-34.12837 -6.37186,-34.12837c0,0 9.31926,6.97935 9.47201,10.11483c0.53436,10.96812 -3.60064,71.53819 -3.60064,71.53819l-6.84032,70.19099z" data-paper-data="{&quot;index&quot;:null}" fill="#070707" stroke="none" stroke-width="0" stroke-linecap="butt"/><path d="M185.54047,313.34668l6.848,-70.26982c0,0 7.64382,-60.2966 10.28695,-70.96733c0.7556,-3.05046 9.00393,-6.91293 9.00393,-6.91293c0,0 -9.25501,19.54481 -10.60109,31.10026c-2.22432,19.09454 -8.8029,78.96058 -10.01563,106.33856c-0.41623,9.39652 3.259,11.56702 3.259,11.56702z" fill="#070707" stroke="none" stroke-width="0" stroke-linecap="butt"/><path d="M259.70121,319.8647c0.84646,-2.51682 -0.05139,-5.10097 0.5933,-7.08534c0.68824,-2.11841 -0.48053,-5.37106 -0.0061,-7.92718l24.84333,2.95293c0,0 1.43993,3.41688 1.25724,5.29154c-0.06011,0.61679 -2.13874,1.69096 -2.09942,2.74931c0.0544,1.46503 2.20776,3.00476 1.80907,4.20156c-0.5513,1.65492 -2.37031,2.15868 -2.37031,2.15868z" data-paper-data="{&quot;index&quot;:null}" fill="#f0f0f0" stroke="#000000" stroke-width="0" stroke-linecap="butt"/><path d="M259.5265,320.12188c0,0 0.81027,-6.54654 1.1858,-9.05815c0.25918,-1.73346 -0.02736,-4.64821 -0.02736,-4.64821c0,0 4.00998,8.40254 6.43554,8.7604c4.10583,0.60577 16.49839,1.50469 16.49839,1.50469c0,0 1.56521,2.27219 1.83954,3.30037c0.28774,1.07846 -1.36269,2.72199 -1.36269,2.72199c0,0 -8.01312,-0.30955 -12.06117,-0.7348c-4.13963,-0.43489 -12.50805,-1.84628 -12.50805,-1.84628z" data-paper-data="{&quot;index&quot;:null}" fill="#d1d1d1" stroke="none" stroke-width="0" stroke-linecap="butt"/><path d="M182.23876,313.02492c0,0 -1.68751,-0.84547 -1.90893,-2.5757c-0.16011,-1.25125 2.24999,-2.34627 2.58624,-3.77322c0.24291,-1.03085 -1.58921,-2.48614 -1.52911,-3.10292c0.18269,-1.87465 2.25522,-4.94924 2.25522,-4.94924l22.7872,2.22068c-0.02801,2.59962 0.35603,5.24392 0.62232,7.45534c0.24944,2.07151 0.45016,4.58773 0.79477,7.22062z" fill="#f0f0f0" stroke="#000000" stroke-width="0" stroke-linecap="butt"/><path d="M181.99883,312.57604c0,0 -1.31089,-1.84076 -0.82546,-2.79069c0.46279,-0.90565 2.42688,-2.72657 2.42688,-2.72657c0,0 12.33444,1.49516 16.47897,1.70383c2.44842,0.12327 6.03424,-7.13337 6.03424,-7.13337c0,0 0.24104,2.58686 0.16926,4.24952c-0.104,2.40905 -0.73329,8.81504 -0.73329,8.81504z" fill="#d1d1d1" stroke="none" stroke-width="0" stroke-linecap="butt"/><path d="M259.07974,208.32399c-0.60182,-0.05865 -1.04214,-0.59406 -0.98349,-1.19587c0.05865,-0.60182 0.59407,-1.04216 1.19588,-0.98351c0.60182,0.05865 1.04214,0.59407 0.98349,1.1959c-0.05865,0.60182 -0.59406,1.04214 -1.19587,0.98349z" fill="#000000" stroke="none" stroke-width="1.5" stroke-linecap="butt"/><path d="M253.10226,212.24706c-4.67108,-0.78964 -6.72035,-2.56319 -6.23646,-3.35234c0.14909,-0.24315 2.8902,1.41301 7.21097,2.09071c6.71488,1.05322 9.03254,0.20825 9.03254,0.20825l-0.13824,1.4185c0,0 -2.65069,0.85513 -9.86881,-0.3651z" fill="#000000" stroke="#000000" stroke-width="0" stroke-linecap="butt"/><path d="M224.33602,203.83808c0.05865,-0.60182 0.59407,-1.04216 1.19588,-0.98351c0.60182,0.05865 1.04216,0.59408 0.98351,1.1959c-0.05865,0.60182 -0.59407,1.04214 -1.1959,0.98349c-0.60182,-0.05865 -1.04214,-0.59406 -0.98349,-1.19587z" fill="#000000" stroke="none" stroke-width="1.5" stroke-linecap="butt"/><path d="M230.42709,210.0373c-7.31791,-0.19633 -9.75362,-1.54716 -9.75362,-1.54716l0.13824,-1.4185c0,0 2.11091,1.27655 8.90279,1.5396c4.37032,0.16926 7.37962,-0.92649 7.47896,-0.65913c0.32243,0.86772 -2.0307,2.21224 -6.76636,2.08518z" fill="#000000" stroke="#000000" stroke-width="0" stroke-linecap="butt"/><path d="M236.50645,270.78648c-0.86296,-0.0841 -1.49435,-0.85184 -1.41025,-1.7148c0.0841,-0.86296 0.85184,-1.49435 1.7148,-1.41025c0.86296,0.0841 1.49435,0.85184 1.41025,1.7148c-0.0841,0.86296 -0.85184,1.49435 -1.7148,1.41025z" data-paper-data="{&quot;index&quot;:null}" fill="#000000" stroke="none" stroke-width="1.5" stroke-linecap="butt"/><path d="M206.70514,313.92641l12.2408,-125.60723c0,0 1.79718,-10.17623 2.30122,-15.34832c0.4619,-4.73972 0.60764,-14.50049 0.60764,-14.50049c0,0 3.05847,-2.20491 5.29078,-3.47139c2.23231,-1.26649 5.73782,-2.42327 5.73782,-2.42327c0,0 -3.98255,34.29962 12.00054,35.78238c16.27157,1.50953 17.91623,-32.8669 17.91623,-32.8669c0,0 3.96698,2.00305 6.19461,3.73807c2.22764,1.735 4.63903,4.28714 4.63903,4.28714c0,0 -1.76572,9.85334 -2.25528,14.87692c-0.49722,5.10213 -0.70542,15.50383 -0.70542,15.50383l-12.18896,125.0753z" fill="#000000" stroke="#000000" stroke-width="2" stroke-linecap="butt"/><path d="M262.32534,183.26946c-0.53406,5.48016 -8.7906,9.16028 -18.4415,8.21977c-9.6509,-0.94051 -17.04157,-6.1455 -16.50751,-11.62566c0.53406,-5.48016 8.79061,-9.16027 18.44151,-8.21976c9.6509,0.94051 17.04156,6.14548 16.5075,11.62564z" fill="#e6e6e6" stroke="none" stroke-width="0" stroke-linecap="butt"/><path d="M277.61641,175.54049c-0.53406,5.48016 -7.25733,9.3097 -15.01685,8.55351c-7.75952,-0.75619 -13.61691,-5.81175 -13.08285,-11.29191c0.53406,-5.48016 7.25733,-9.30969 15.01685,-8.5535c7.75951,0.75619 13.61691,5.81174 13.08285,11.2919z" fill="#ffffff" stroke="none" stroke-width="0" stroke-linecap="butt"/><path d="M240.87246,170.54135c-0.53406,5.48016 -7.25733,9.3097 -15.01685,8.55351c-7.75952,-0.75619 -13.61691,-5.81175 -13.08285,-11.29191c0.53406,-5.48016 7.25733,-9.30969 15.01685,-8.5535c7.75952,0.75619 13.61691,5.81174 13.08285,11.2919z" fill="#ffffff" stroke="none" stroke-width="0" stroke-linecap="butt"/><path d="M253.88443,320.09566c-0.7903,-0.07702 -0.71329,-0.86732 -0.71329,-0.86732l0.05043,-0.09737c-1.04701,-4.58297 -3.55587,-8.37885 -4.40042,-13.26278c-0.40361,-2.33406 0.82664,-4.91845 1.0324,-7.17433c0.04718,-0.4841 0.70997,-4.72171 0.21317,-4.93895c-2.00389,-0.87627 -4.50586,3.17748 -6.58053,1.83061c-0.73807,-0.47916 -1.04024,-1.92202 -1.18786,-2.72361c-0.51664,-2.80545 -0.18607,-7.58585 0.97099,-10.18453c0.19415,-2.17173 -0.03622,-4.01027 -0.11239,-6.16816c-0.01286,-0.36423 0.37025,-1.10282 0.00592,-1.09335c-3.30799,0.08602 -7.39513,9.7066 -10.11152,3.95731c-0.23037,-0.48757 -0.39085,-1.00523 -0.58116,-1.50978c-0.38639,-1.02443 -0.57283,-2.15815 -0.48117,-3.24917c0.8168,-8.38151 5.79192,-18.09138 2.62384,-26.41574c0.01232,-2.00777 -1.96212,-0.49283 -3.23618,0.18589c-2.0931,1.11503 -5.78846,3.00583 -8.20021,1.64195c-3.73846,-2.11414 0.70835,-8.50616 0.96144,-11.28085c0.22363,-2.29474 0.7595,-7.88744 -1.11657,-9.68829c-0.18454,-0.17714 -2.31504,0.75676 -2.59181,0.84483c-2.57897,0.82068 -4.23862,2.03249 -5.69225,4.38372c0,0 -0.42232,0.67244 -1.09475,0.25012c-0.67243,-0.42232 -0.2501,-1.09476 -0.2501,-1.09476c2.0692,-3.25104 4.21034,-3.99889 7.61575,-5.29103c1.04375,-0.39604 1.61173,-1.28113 2.89479,-0.41379c0.80097,0.54145 0.9859,1.84864 1.18165,2.69376c0.67889,2.93104 0.92477,5.48466 0.63389,8.46946c-0.26323,2.56421 -1.87555,4.69167 -2.12382,7.23925c-0.03907,0.40089 -0.42491,2.17572 0.32895,2.48622c3.70288,1.52516 10.92737,-6.23597 12.22508,-0.83042c3.30501,8.52917 -1.74386,18.40284 -2.57912,26.97369c-0.09724,0.84607 0.07265,1.73303 0.38318,2.52604c0.01124,0.02869 0.76858,2.69884 1.33344,2.53809c2.87805,-0.81908 4.46378,-7.49253 8.38969,-5.91947c2.3226,0.93063 1.33812,7.16179 1.12892,9.16967c-0.91997,2.06618 -2.19466,9.25645 -0.43704,11.182c0.058,0.06354 3.60047,-1.77138 3.8729,-1.82314c4.34963,-0.8262 3.48413,3.42357 3.19344,6.40641c-0.21233,2.06839 -1.45583,4.6812 -1.03929,6.80706c0.94226,4.80889 3.33008,8.54892 4.37491,13.12232l-0.01804,0.60511c0,0 -0.07702,0.7903 -0.86732,0.71329z" fill="#ec0000" stroke="none" stroke-width="0.5" stroke-linecap="butt"/><path d="M249.29433,319.91869c-0.74131,0.28455 -1.02586,-0.45677 -1.02586,-0.45677l-0.15477,-0.51689c-2.0231,-2.45999 -2.73175,-6.82681 -2.44825,-10.02186c0.12901,-1.32379 1.04792,-5.74033 -0.06918,-6.80575c-1.1652,-1.11129 -3.66103,1.37933 -5.30027,0.21959c-3.55712,-2.51664 -2.60039,-9.1022 -2.35901,-12.72195c-0.0833,-0.8343 0.63419,-5.54396 -0.31313,-5.91382c-1.98877,-0.77648 -4.20458,0.85266 -5.88871,1.19904c-1.17027,0.24069 -3.42134,-0.39956 -4.44986,-1.02649c-2.88077,-1.75594 -2.4113,-5.38103 -2.10686,-8.50496c0.38917,-3.99344 1.25404,-8.2355 1.1897,-12.24353c-0.0113,-0.7035 0.26536,-3.46415 -0.29109,-4.01018c-0.93814,-0.92058 -4.2627,0.86348 -5.12056,1.00423c-3.85959,0.63329 -4.41888,-2.73611 -4.70886,-5.62726c-0.97475,-4.41484 1.69561,-8.54673 1.50141,-12.91646c-0.01088,-0.24483 -0.06532,-2.93468 -0.33607,-3.19289c-1.05795,-1.00901 -2.90716,1.33314 -3.23882,2.1261c0,0 -0.32298,0.72539 -1.04837,0.40241c-0.72539,-0.32298 -0.40241,-1.04838 -0.40241,-1.04838c1.56073,-3.35641 5.89033,-4.56738 6.49687,-0.01604c0.64812,4.86335 -2.52924,9.65277 -1.4054,14.38845c0.08531,0.84568 0.0882,3.20337 0.76522,3.91201c1.89509,1.98361 6.26506,-2.42437 8.45901,-0.29572c1.3954,1.35387 0.70342,2.16997 0.72452,3.67616c0.06534,4.66154 -0.54984,9.3295 -1.00453,13.99515c-0.29077,2.98365 -0.90646,6.17793 2.22412,7.24072c0.30647,0.10404 1.79737,0.74791 2.28944,0.61745c1.85684,-0.49226 4.93899,-2.32112 7.09846,-1.08115c2.20114,1.2639 0.94766,5.25271 1.15378,7.28671c-0.21963,3.50993 -0.89161,7.63939 1.1855,10.74934c1.49334,2.2359 3.8487,-1.29334 5.9351,0.58929c1.7371,1.56744 0.78824,6.22678 0.60063,8.15197c-0.29801,2.74474 0.35953,6.74978 2.09422,8.85909l0.41081,0.95654c0,0 0.28455,0.74131 -0.45677,1.02587z" fill="#ec0000" stroke="none" stroke-width="0.5" stroke-linecap="butt"/><path d="M233.78743,228.38834l0.50839,0.14545c0.78795,1.01063 2.13359,1.28451 2.94704,2.08581c1.82284,1.79565 1.7087,3.54212 1.45822,5.82798c-2.15024,3.4683 -4.66665,4.41773 -8.39438,2.58443c-1.02862,-0.50588 -1.46323,-0.44826 -2.02216,-1.59051c-0.91602,-1.87201 0.07658,-5.7331 1.0137,-7.36301c0.68453,-1.19059 2.23152,-1.24775 3.21165,-2.07334c0,0 0.61329,-0.50437 1.11766,0.10892c0.0777,0.09448 0.12889,0.18639 0.15986,0.27426z" fill="#ec0000" stroke="none" stroke-width="0.5" stroke-linecap="butt"/><path d="M242.21103,257.08257c0.12517,-0.69608 0.85519,-0.62493 0.85519,-0.62493l0.77669,0.20968c2.86144,2.3521 3.10173,4.97996 2.69139,8.55562c-0.85574,1.39603 -3.20782,5.10224 -5.02201,5.42249c-2.27336,0.40131 -3.94641,-3.7724 -4.0021,-5.32399c-0.12602,-3.51047 1.38192,-7.15519 4.70085,-8.23888z" fill="#ec0000" stroke="none" stroke-width="0.5" stroke-linecap="butt"/><path d="M210.25886,303.15031c1.90705,-5.51684 3.16786,-11.27985 4.40356,-17.02941c-0.79665,-1.41256 -1.72529,-2.7128 -2.9581,-3.23113c-0.39972,-0.70091 -1.50696,-1.35688 -1.19914,-2.10274c0.30301,-0.73423 1.52118,-0.48896 2.30936,-0.58741c0.98246,-0.12273 2.04867,-0.0737 3.13054,0.04274c0.24226,-1.07144 0.4911,-2.13928 0.75064,-3.2018c0.37501,-1.53525 0.73909,-2.99986 0.92991,-4.56988l0.16952,-1.38447c0.05086,-0.42769 0.43472,-0.73818 0.86548,-0.6962c0.32856,0.03202 0.59074,0.25997 0.68217,0.55691l0.49546,1.48974l-0.22317,0.07422c1.09408,2.67549 1.19906,5.44488 1.64371,8.40764c0.82,0.07859 2.00589,0.21578 2.12541,0.36529c1.10988,1.38832 0.54993,2.49184 0.19046,3.88269c-0.22598,0.87434 -0.51763,1.73843 -0.85671,2.59255c1.11801,4.33772 2.49901,8.62854 3.6489,12.9366c0.56592,1.47436 0.96154,2.9456 1.36775,4.47011l0.0005,0.04544l0.0074,-0.0011l0.21171,1.42161c0.0117,0.06831 0.01458,0.13928 0.00754,0.21159c-0.04254,0.43648 -0.43084,0.75582 -0.86732,0.71329c-0.3761,-0.03665 -0.66525,-0.33005 -0.71081,-0.68978l-0.20688,-1.38925c-0.00733,-0.02734 -0.01467,-0.05466 -0.02201,-0.08197c-2.59865,-3.31945 -4.74636,-7.18016 -6.84921,-10.9519c-0.49246,0.855 -0.98305,1.69956 -1.44972,2.53403c-2.03092,3.23344 -3.19517,6.75652 -5.80061,9.6006l-0.5275,1.05844c-0.13877,0.29552 -0.45244,0.48619 -0.79596,0.45271c-0.3761,-0.03665 -0.66525,-0.33005 -0.71081,-0.68978l-0.21188,-1.42278l0.1727,-0.02572c-0.07865,-0.40519 -0.11258,-0.8138 -0.07492,-1.222l0.10269,-1.05374c0,0 0.03044,-0.31232 0.24938,-0.52515zM215.80989,288.29765c-1.17735,5.40668 -2.4312,10.8014 -4.26345,15.97983l-0.04941,0.50701c2.06575,-2.6513 3.17681,-5.72515 4.99275,-8.61672c0.61595,-1.10288 1.2677,-2.21669 1.90995,-3.34414c-0.65082,-1.15785 -1.30295,-2.29841 -1.96848,-3.4029c-0.20629,-0.34234 -0.41191,-0.72251 -0.62136,-1.12308zM217.5257,280.44795c0.73697,0.10726 1.46581,0.22231 2.16499,0.31207c-0.09392,-0.57777 -0.1803,-1.15713 -0.25826,-1.73826c-0.13587,-1.01282 -0.4859,-2.3134 -0.72333,-3.59145c-0.14622,0.65877 -0.30692,1.31681 -0.47065,1.9871c-0.24579,1.00617 -0.48223,2.0168 -0.71275,3.03054zM224.41853,299.58173c-0.88621,-3.20163 -1.83444,-6.39151 -2.68801,-9.60201c-0.45105,0.92487 -0.94053,1.83787 -1.44381,2.7394c1.36771,2.24579 2.71072,4.50914 4.06826,6.75883c0.0208,0.03447 0.042,0.06907 0.06357,0.10378zM219.33014,291.159c0.6438,-1.18111 1.25373,-2.37825 1.77967,-3.59442c-0.42327,-1.71292 -0.80872,-3.43395 -1.13283,-5.16797c-0.94165,-0.09279 -1.88331,-0.18913 -2.8255,-0.27928c-0.30908,1.39659 -0.61043,2.79762 -0.91281,4.19952c0.01997,0.03098 0.0402,0.06191 0.0607,0.09279c1.03714,1.56282 2.0426,3.14974 3.03077,4.74935zM213.03606,281.8187c1.0149,0.58674 1.56398,1.42387 2.04738,2.3439c0.15755,-0.73084 0.31582,-1.46099 0.47612,-2.1899c-0.40388,-0.03431 -0.80792,-0.06647 -1.21214,-0.09573c-0.2774,-0.02009 -0.80487,0.00214 -1.31136,-0.05826zM221.48389,282.25756c0.17425,0.94467 0.3703,1.88591 0.58324,2.82437c0.30992,-0.92108 0.6007,-2.06953 0.26793,-2.60592c-0.17097,-0.27558 -0.49087,-0.28 -0.85116,-0.21846z" fill="#ec0000" stroke="none" stroke-width="0.5" stroke-linecap="butt"/><path d="M207.74567,311.11063c-0.50437,-0.61329 0.10892,-1.11766 0.10892,-1.11766l0.9024,-0.74213c0.00078,-0.00797 0.00155,-0.01592 0.00233,-0.02389c0,0 0.07702,-0.7903 0.86732,-0.71329c0.22006,0.02145 0.37288,0.0982 0.47883,0.19779c0.05632,-0.02465 0.11266,-0.04928 0.16898,-0.07393l0.11141,0.74794l0.30531,0.02975l-0.10269,1.05374l-0.04185,-0.00408l0.01932,0.12968c-0.02979,0.03315 -0.05958,0.06629 -0.08938,0.09944l0.047,0.02093l-0.44649,1.00278c-0.13079,0.31326 -0.45435,0.5187 -0.80986,0.48405c-0.42125,-0.04105 -0.7334,-0.40418 -0.71642,-0.82183c-0.22269,0.06723 -0.5301,0.06513 -0.80513,-0.26929z" fill="#ec0000" stroke="none" stroke-width="0.5" stroke-linecap="butt"/><path d="M240.69132,226.17734c-0.66592,-0.42248 -0.24553,-1.09185 -0.24553,-1.09185c1.35928,-2.16427 3.04507,-3.91929 4.50822,-5.98803c0.24716,-0.34946 0.48312,-0.70892 0.71032,-1.07618c-1.93021,-2.84592 -3.85442,-5.69124 -5.84156,-8.46347l-0.51464,-0.71795c-0.10973,-0.15142 -0.16673,-0.34199 -0.14717,-0.54274c0.04254,-0.43648 0.43084,-0.75582 0.86732,-0.71329l1.40499,0.13692l-0.01295,0.13286c2.96259,-0.00025 5.95082,0.65776 8.89044,1.50131c0.80357,-1.45267 2.59142,-4.56463 3.63932,-3.92388c0.55159,0.33727 0.68535,3.11686 0.74404,3.82506c0.04913,0.49932 0.09986,0.99881 0.15145,1.49846c1.00959,0.31976 2.00838,0.63208 2.99312,0.91634c1.29568,0.37401 6.68433,0.72868 6.41415,2.9278c-0.11749,0.95628 -2.35629,2.76114 -3.0757,3.51755c-1.77395,0.96258 -3.58692,1.80413 -5.41517,2.59397c0.17387,2.96068 0.20174,5.92502 -0.07273,8.89149l0.22351,0.97832c0.02188,0.08644 0.02948,0.17807 0.02034,0.27194c-0.04254,0.43648 -0.43084,0.75582 -0.86732,0.71329c-0.31549,-0.03075 -0.56979,-0.24215 -0.67046,-0.52181l-0.56294,-1.46657l0.00644,-0.00247c-1.54866,-2.02097 -3.0413,-4.09706 -4.5065,-6.19822c-2.20909,0.92103 -4.40003,1.8846 -6.53108,3.01233l-1.18915,0.27888c0,0 -0.70001,0.15992 -0.92077,-0.49005z" fill="#ffffff" stroke="none" stroke-width="0.5" stroke-linecap="butt"/><path d="M238.66124,228.81615c-0.66592,-0.42248 -0.24553,-1.09185 -0.24553,-1.09185c1.35928,-2.16427 3.04507,-3.91929 4.50822,-5.98803c0.24716,-0.34946 0.48312,-0.70892 0.71032,-1.07618c-1.93021,-2.84592 -3.85442,-5.69124 -5.84156,-8.46347l-0.51464,-0.71796c-0.10973,-0.15142 -0.16673,-0.34198 -0.14717,-0.54274c0.04254,-0.43648 0.43084,-0.75582 0.86732,-0.71329l1.40499,0.13692l-0.01295,0.13286c2.96259,-0.00025 5.95082,0.65775 8.89044,1.5013c0.80357,-1.45267 2.59142,-4.56463 3.63932,-3.92388c0.55159,0.33727 0.68535,3.11686 0.74404,3.82506c0.04913,0.49932 0.09986,0.99881 0.15145,1.49846c1.00959,0.31976 2.00838,0.63208 2.99312,0.91634c1.29569,0.37402 6.68433,0.72868 6.41414,2.9278c-0.11749,0.95628 -2.35628,2.76114 -3.07569,3.51755c-1.77395,0.96258 -3.58693,1.80412 -5.41517,2.59397c0.17387,2.96068 0.20174,5.92502 -0.07273,8.89149l0.22351,0.97832c0.02188,0.08644 0.02948,0.17807 0.02034,0.27194c-0.04254,0.43648 -0.43084,0.75582 -0.86732,0.71329c-0.31549,-0.03075 -0.56979,-0.24215 -0.67046,-0.52181l-0.56294,-1.46657l0.00643,-0.00247c-1.54866,-2.02097 -3.0413,-4.09706 -4.5065,-6.19822c-2.20909,0.92103 -4.40003,1.8846 -6.53108,3.01233l-1.18915,0.27888c0,0 -0.70001,0.15992 -0.92077,-0.49004z" fill="#ec0000" stroke="none" stroke-width="0.5" stroke-linecap="butt"/><path d="M248.19519,284.01032c-0.10181,0.03511 -0.22422,0.05083 -0.37139,0.03649c-0.7903,-0.07702 -0.71329,-0.86732 -0.71329,-0.86732c0.21876,-2.24477 0.00107,-7.37554 2.16119,-8.86349c2.47812,-1.707 5.03274,2.82038 5.13524,4.83719c0.15198,2.99058 -3.35107,7.93546 -6.17277,4.95688c-0.01299,-0.03324 -0.02599,-0.0665 -0.03898,-0.09974z" fill="#ec0000" stroke="none" stroke-width="0.5" stroke-linecap="butt"/><path d="M256.34593,303.14711c0.50211,0.07523 0.9809,0.24208 1.38457,0.64449c2.13223,2.12561 0.45114,5.72457 -2.26982,6.14055c-3.1194,0.47689 -3.00412,-2.94011 -1.91818,-5.36546c-0.07272,-0.42436 0.29852,-0.72966 0.29852,-0.72966l0.13639,-0.10194c0.35738,-0.58585 0.76827,-1.0497 1.18434,-1.28736c0,0 0.7003,-0.3743 1.0746,0.32599c0.07326,0.13707 0.10536,0.26165 0.10959,0.37339z" fill="#ec0000" stroke="none" stroke-width="0.5" stroke-linecap="butt"/><path d="M247.66863,198.24054c-0.23207,2.38137 -2.53916,4.10535 -5.15301,3.85062c-2.61385,-0.25473 -4.54467,-2.39171 -4.3126,-4.77307c0.23207,-2.38137 2.53916,-4.10535 5.15301,-3.85062c2.61385,0.25473 4.54467,2.39171 4.3126,4.77307z" fill="#ffffff" stroke="none" stroke-width="0" stroke-linecap="butt"/><path d="M245.79337,206.56776c-0.18103,1.8576 -2.02209,3.19837 -4.11212,2.99469c-2.09003,-0.20368 -3.63758,-1.87468 -3.45655,-3.73228c0.18103,-1.8576 2.02209,-3.19838 4.11212,-2.9947c2.09003,0.20368 3.63758,1.87468 3.45655,3.73229z" fill="#e8e8e8" stroke="none" stroke-width="0" stroke-linecap="butt"/><path d="M226.89828,157.14999c0,5.20068 -4.62639,9.41667 -10.33333,9.41667c-5.70694,0 -10.33334,-4.21599 -10.33334,-9.41667c0,-5.20068 4.6264,-9.41666 10.33334,-9.41666c5.70694,0 10.33333,4.21598 10.33333,9.41666z" fill="#e6e6e6" stroke="none" stroke-width="0" stroke-linecap="butt"/><path d="M274.06494,157.64999c0,5.20068 -4.62639,9.41667 -10.33333,9.41667c-5.70694,0 -10.33333,-4.21599 -10.33333,-9.41667c0,-5.20068 4.6264,-9.41666 10.33333,-9.41666c5.70694,0 10.33333,4.21598 10.33333,9.41666z" fill="#e6e6e6" stroke="none" stroke-width="0" stroke-linecap="butt"/><path d="M199.95638,100.55665c-0.2558,-2.27901 -8.23575,-39.88037 24.87169,-49.87106c41.09993,-11.55035 44.95656,24.9048 48.99571,30.92814c0.58635,0.87438 4.66509,6.40518 8.07971,12.82368c4.72842,8.88809 5.30489,23.06137 5.30489,23.06137l-6.07904,-8.31232l0.31248,3.83536c0,0 2.40894,9.67111 1.19662,14.73553c-1.29663,5.41655 -4.15895,10.01536 -4.15895,10.01536l-1.19719,-8.82827l-4.97519,9.79959l-2.31157,-4.77816c0,0 -1.13091,11.15442 -17.17662,15.14419c-15.16159,3.64896 -23.05313,-4.0428 -23.05313,-4.0428l0.48834,4.68132l-8.63724,-5.0344l1.48038,8.47541c0,0 -9.67106,-9.12043 -10.54284,-10.44793c-1.76201,-2.68308 -7.02477,-19.30521 -7.02477,-19.30521c0,0 -0.89268,1.40838 -1.59424,1.85148c-1.01234,0.63938 -3.8971,1.61678 -3.8971,1.61678c0,0 1.99144,-4.66246 1.97992,-9.87023c-0.01647,-7.4489 -2.04001,-16.28297 -2.06187,-16.47782z" fill="#000000" stroke="none" stroke-width="1.5" stroke-linecap="butt"/><path d="M215.14062,114.82419c-2.38125,-6.91764 -3.96229,-16.69397 -3.96229,-16.69397c0,0 2.30365,3.20391 3.37971,4.10911c0.70963,0.59696 0.56806,2.31159 0.56806,2.31159c0,0 1.6748,-1.89143 2.92402,-4.90591c1.34912,-3.25554 4.38666,-7.18021 5.81537,-8.03627c1.86519,-1.11758 3.50949,2.20339 3.50949,2.20339c0,0 3.548,-6.05529 5.78862,-8.697c2.41764,-2.85044 8.22662,-7.82711 8.22662,-7.82711c0,0 -1.3406,3.44946 -2.18517,5.17022c-0.89786,1.82936 2.41744,22.67835 2.41744,22.67835c0,0 5.59514,-19.69043 11.44993,-24.36341c0.44679,-0.62533 3.32682,-2.28382 5.826,-2.01778c2.74238,0.29193 5.10267,2.54419 5.10267,2.54419c0,0 3.68768,12.83506 4.77482,18.29452c1.00841,5.59472 -0.07906,9.83134 0.07834,12.91054c0.1574,3.07919 1.13685,6.04429 1.87187,16.08215c0.45871,6.26432 -1.79965,9.68152 -6.03802,16.69941c-4.23838,7.01791 -6.45442,11.22162 -10.27137,12.27791c-3.67329,1.01654 -9.92664,-2.7055 -16.08775,-6.57079c-6.56057,-4.11592 -10.71165,-5.99049 -13.1905,-12.23167c-0.87531,-2.20383 -2.41707,1.64724 -3.5397,0.08169c-2.48698,-3.46825 -0.34278,-11.47515 -1.3577,-14.56575c-1.22019,-3.7157 -3.79998,-5.67553 -5.10044,-9.45338z" fill="#ffffff" stroke="#000000" stroke-width="1.5" stroke-linecap="butt"/><path d="M258.35705,87.30734c0,0 1.52107,0.33308 4.24464,1.15218c2.48767,0.74816 4.43195,1.7878 4.43195,1.7878l0.18356,1.17222c0,0 -7.21844,-3.20127 -15.09072,-2.61946c-6.29449,0.46523 -9.99042,2.71407 -9.99042,2.71407l0.08691,-4.17618c0,0 3.14413,-1.6733 7.88157,-1.77797c4.90559,-0.10838 8.08461,0.67097 8.08461,0.67097z" data-paper-data="{&quot;index&quot;:null}" fill="#000000" stroke="none" stroke-width="1.5" stroke-linecap="butt"/><path d="M219.316,124.20153c0,0 -1.50511,2.68048 -3.12133,1.9153c-0.43596,-0.2064 -0.63866,-3.43904 -1.11151,-3.714c-0.89654,-0.52133 -1.82857,-1.17082 -2.67926,-1.96711c-0.85314,-0.7986 -1.62446,-1.74484 -2.19612,-2.85759c-2.69029,-5.23671 -2.95004,-9.58545 -1.13507,-10.32146c1.81496,-0.73604 3.21141,1.62602 5.70217,7.15787c2.49076,5.53186 4.54113,9.787 4.54113,9.787z" data-paper-data="{&quot;index&quot;:null}" fill="#ffffff" stroke="#000000" stroke-width="1" stroke-linecap="butt"/><path d="M218.13339,120.42984c0,0 -0.6605,1.89337 -1.63272,1.46049c-0.4716,-0.20998 -1.02851,-2.54376 -1.59605,-2.88937c-1.64973,-1.00462 -3.52155,-2.62883 -4.54994,-5.14359c-1.17791,-2.88031 3.00442,-3.27776 3.00442,-3.27776" fill="none" stroke="#000000" stroke-width="0.25" stroke-linecap="round"/><path d="M246.28291,109.17194c-1.40893,-6.27391 1.40094,-12.39022 6.55008,-13.71907c5.14912,-1.32885 10.28334,2.73156 11.89074,8.95999c1.6074,6.22843 -0.78229,12.5192 -6.38837,14.06218c-5.3324,1.46766 -10.58102,-2.75095 -12.05245,-9.30309z" fill="#ffffff" stroke="#000000" stroke-width="1.4" stroke-linecap="butt"/><path d="M219.47942,99.84375c0,0 2.51157,-2.89054 6.71154,-4.96808c4.65409,-2.3022 11.44679,2.1385 11.44679,2.1385l-1.18512,2.45569c0,0 -5.10978,-2.9126 -8.96718,-1.28824c-5.15879,2.17234 -5.71252,3.68441 -9.53048,5.61314c-3.27144,1.65265 -6.24829,2.52476 -6.24829,2.52476l-0.45857,-1.14328c0,0 3.39024,-1.19875 4.87328,-1.90982c1.22405,-0.58691 3.38938,-2.27998 3.38938,-2.27998z" fill="#000000" stroke="none" stroke-width="1.5" stroke-linecap="butt"/><path d="M269.17701,100.37479c-0.49727,-6.04632 -0.41825,-8.78915 1.52623,-9.02334c1.94448,-0.23418 4.64707,2.89394 4.8269,8.77855c0.1709,5.59269 -5.59103,11.00706 -5.59103,11.00706c0,0 -0.26482,-4.71594 -0.76209,-10.76227z" data-paper-data="{&quot;index&quot;:null}" fill="#ffffff" stroke="#000000" stroke-width="1" stroke-linecap="butt"/><path d="M268.56019,96.33366c0,0 4.02191,-2.16247 4.38493,0.92815c0.6508,5.54037 -3.79631,10.00228 -3.79631,10.00228" data-paper-data="{&quot;index&quot;:null}" fill="none" stroke="#000000" stroke-width="0.25" stroke-linecap="round"/><path d="M257.74041,114.92563c6.83699,-1.74612 7.16404,-12.5948 7.16404,-12.5948c0,0 3.37266,13.40686 -5.73589,16.01378c-10.13213,2.90871 -13.56361,-10.13343 -13.56361,-10.13343c0,0 5.20094,8.48551 12.13546,6.71445z" data-paper-data="{&quot;index&quot;:null}" fill="#000000" stroke="#000000" stroke-width="1.15" stroke-linecap="butt"/><path d="M244.99229,105.33699c0,0 -2.1912,-8.74501 8.05958,-11.194c9.21199,-2.20608 11.60313,6.72099 11.60313,6.72099c0,0 -4.59463,-3.40084 -11.42422,-1.62605c-6.92703,1.8001 -8.23848,6.09907 -8.23848,6.09907z" fill="#000000" stroke="#000000" stroke-width="1.15" stroke-linecap="butt"/><g stroke="none" stroke-linecap="butt"><path d="M272.48501,133.95558c0,0 1.38847,15.44174 -3.44687,24.17742c-2.02991,3.66736 -5.98185,5.45937 -12.28831,7.13041c-4.90027,1.29839 -9.94349,1.03461 -13.48078,-0.4085c-11.89954,-4.85458 -15.92798,-22.43483 -15.92798,-22.43483c0,0 7.61896,-9.24199 13.31033,-10.30912c3.66339,-1.89026 8.87115,2.79514 8.87115,2.79514c0,0 1.75085,-6.18331 6.21327,-5.83746c8.76472,0.40437 16.74917,4.88685 16.74917,4.88685z" fill="#000000" stroke-width="0"/><path d="M236.63686,137.02611c4.57413,-3.68932 4.94637,-3.67958 7.85042,-2.48348c2.14846,0.95595 6.7626,2.71953 6.27241,3.76768c-0.25368,0.5775 -16.59265,3.31348 -18.97862,3.0844c-1.88118,-0.18017 -1.95319,-0.19003 -0.38372,-0.69744c0.88343,-0.30473 3.21937,-2.04901 5.23946,-3.67115z" data-paper-data="{&quot;noHover&quot;:false,&quot;origItem&quot;:[&quot;Path&quot;,{&quot;applyMatrix&quot;:true,&quot;segments&quot;:[[[356.58247,303.92478],[0,0],[-0.85156,0.32734]],[[354.44185,304.549],[0.33594,-0.02282],[-0.59374,0.03044]],[[354.51217,304.77738],[-0.64064,-0.19794],[0.8125,0.25122]],[[360.34811,305.42444],[-0.14062,0.15226],[0.26562,-0.27406]],[[359.37155,303.7573],[0.66406,0.44914],[-0.90626,-0.57856]],[[356.58249,303.92478],[1.92968,-0.74604],[0,0]]],&quot;closed&quot;:true,&quot;fillColor&quot;:[0,0,0,1]}]}" fill="#ec0000" stroke-width="0.5"/><path d="M249.54093,137.48255c1.73694,-4.36646 6.25566,-6.96602 12.67019,-5.34464c2.27774,0.58979 4.78941,1.09264 5.56553,0.89235c3.37623,-0.61533 -4.38566,2.83061 -9.37802,4.11901c-12.55784,2.0565 -8.8577,0.33328 -8.8577,0.33328z" data-paper-data="{&quot;noHover&quot;:false,&quot;origItem&quot;:[&quot;Path&quot;,{&quot;applyMatrix&quot;:true,&quot;segments&quot;:[[[362.06679,304.89918],[0,0],[0,0.62422]],[[364.16055,305.50058],[-2.07032,0.02282],[1.85938,0]],[[367.63711,305.05144],[1.23438,0.07612],[-0.28906,0]],[[365.77773,304.40438],[0.7422,0.35018],[-2.09374,-0.9744]],[[362.06679,304.8992],[0,-1.24846],[0,0]]],&quot;closed&quot;:true,&quot;fillColor&quot;:[0,0,0,1]}]}" fill="#ec0000" stroke-width="0.5"/><path d="M237.93264,143.56093c0.77513,0.05594 7.1681,-1.11342 13.58352,-2.43634c11.11561,-2.35661 11.54089,-2.28981 8.53108,-0.51468c-5.76308,3.33049 -18.04839,5.18531 -22.30335,3.26259c-1.01869,-0.4795 -0.46745,-0.55026 0.74099,-0.37571z" data-paper-data="{&quot;noHover&quot;:false,&quot;origItem&quot;:[&quot;Path&quot;,{&quot;applyMatrix&quot;:true,&quot;segments&quot;:[[[356.46525,305.91924],[0,0],[-0.40624,-0.14464]],[[356.37151,305.99536],[-0.3125,-0.22076],[1.3125,0.89828]],[[364.25433,306.71856],[-2.3125,0.5481],[1.21094,-0.29688]],[[361.23089,306.24658],[4.09376,0.15226],[-2.35938,-0.09896]],[[356.46527,305.91924],[0.26562,0.07612],[0,0]]],&quot;closed&quot;:true,&quot;fillColor&quot;:[0,0,0,1]}]}" fill="#ffffff" stroke-width="0.5"/><path d="M242.94931,149.72971c1.15033,0.03593 4.84385,-0.63633 8.24103,-1.25707c3.62793,-0.68029 7.69787,-1.77268 9.02379,-2.70364c2.88632,-1.82014 3.37637,-1.4906 1.55829,1.00104c-2.79313,3.74166 -15.25032,6.23706 -19.26497,3.94516c-1.54498,-0.95813 -1.54902,-0.98379 0.4418,-0.98555z" data-paper-data="{&quot;noHover&quot;:false,&quot;origItem&quot;:[&quot;Path&quot;,{&quot;applyMatrix&quot;:true,&quot;segments&quot;:[[[357.66061,308.1422],[0,0],[-0.69532,-0.15226]],[[357.41843,308.39342],[-0.45314,-0.40348],[1.19532,0.98962]],[[364.30125,308.6903],[-1.3125,0.89828],[0.85938,-0.6014]],[[363.84813,308.28684],[1.17188,-0.31974],[-0.54688,0.17508]],[[360.63719,308.4391],[1.32812,0.07612],[-1.24218,-0.07612]],[[357.66063,308.14222],[0.39844,0.09896],[0,0]]],&quot;closed&quot;:true,&quot;fillColor&quot;:[0,0,0,1]}]}" fill="#ffffff" stroke-width="0.5"/><path d="M229.35114,143.48567c0.18881,-0.04873 2.01769,0.55313 3.36959,1.02344c1.31378,0.58253 4.10955,2.67196 6.122,4.6614c5.39861,5.31397 6.77379,5.465 14.91265,3.36457c7.86623,-2.03007 9.17381,-2.81828 11.06959,-9.17c1.20808,-4.07499 4.27439,-8.26492 5.23535,-7.48891c0.64591,0.42216 0.90927,7.69639 0.37721,11.44329c-0.51441,4.07521 -2.9002,8.917 -5.56014,11.26749c-2.59079,2.35827 -13.31872,5.40597 -17.75601,5.11752c-5.62721,-0.39097 -9.80032,-4.61049 -15.6783,-15.5096c-1.3378,-2.49632 -2.2808,-4.66025 -2.09204,-4.70897z" data-paper-data="{&quot;noHover&quot;:false,&quot;origItem&quot;:[&quot;Path&quot;,{&quot;applyMatrix&quot;:true,&quot;segments&quot;:[[[353.46525,305.2722],[0,0],[-0.07032,0]],[[353.77775,306.81754],[-0.24218,-0.84498],[1.07032,3.69208]],[[357.82463,312.52694],[-1.9297,-0.5481],[1.52344,0.4263]],[[364.34807,312.37468],[-1.11718,0.50244],[1.14062,-0.49482]],[[367.27775,309.51236],[-0.54686,1.17234],[0.52344,-1.07336]],[[368.18401,306.12478],[0.1875,0.1751],[-0.26562,-0.3045]],[[365.87151,307.89088],[0.78906,-1.11904],[-1.23438,1.74328]],[[361.11369,309.88536],[2.9297,0],[-3.03124,0]],[[356.08245,307.61682],[1.40624,1.99448],[-0.52344,-0.74602]],[[354.37151,305.74414],[0.40626,0.27404],[-0.42968,-0.2436]],[[353.46525,305.27216],[0.07032,0],[0,0]]],&quot;closed&quot;:true,&quot;fillColor&quot;:[0,0,0,1]}]}" fill="#970000" stroke-width="0.5"/></g><path d="M249.24957,136.41284c-1.00097,0.25832 -4.24059,-2.27286 -5.00688,-4.24729c-0.68562,-1.76658 0.31684,-4.03518 2.71001,-4.6528c2.39319,-0.61761 4.19143,-0.57484 4.9488,3.04861c0.64275,3.07513 -0.25875,5.23387 -2.65192,5.85148z" fill="#ffffff" stroke="#000000" stroke-width="1.15" stroke-linecap="butt"/><path d="M245.2174,106.37371c0,0 1.09133,3.81818 1.78642,6.89909c1.37641,6.10073 5.88985,27.15025 5.88985,27.15025l-2.88492,0.75344c0,0 -1.82017,-3.83972 -3.46145,-8.91774c-2.22161,-6.87354 -4.50668,-15.66399 -5.64506,-18.81868c-1.07906,-2.99036 -2.29549,-5.30935 -2.29549,-5.30935" fill="#ffffff" stroke="#000000" stroke-width="1.3" stroke-linecap="round"/><path d="M227.45925,60.81533l21.88169,-34.79658l9.07365,35.03335c0,0 -6.41693,3.13891 -15.95245,2.48824c-10.25379,-0.69966 -15.00289,-2.72501 -15.00289,-2.72501z" fill="#970000" stroke="none" stroke-width="0" stroke-linecap="butt"/><path d="M227.70417,60.91957l21.49477,-34.80888c0,0 -9.64146,19.97996 -11.33569,25.96729c-0.99107,3.50241 2.51046,11.42424 2.51046,11.42424c0,0 -4.69952,-0.65221 -6.90899,-1.1026c-1.99089,-0.40584 -5.76055,-1.48006 -5.76055,-1.48006z" fill="#ec0000" stroke="none" stroke-width="0" stroke-linecap="butt"/><path d="M253.90882,27.36006c0.74919,2.903 -1.05875,5.87967 -4.03815,6.64857c-2.9794,0.7689 -6.00201,-0.96113 -6.7512,-3.86413c-0.74919,-2.903 1.05876,-5.87967 4.03815,-6.64857c2.9794,-0.7689 6.00201,0.96113 6.7512,3.86413z" fill="#ffffff" stroke="#000000" stroke-width="0" stroke-linecap="butt"/><path d="M257.75413,57.4852c-0.24688,0.7082 -0.95509,0.46132 -0.95509,0.46132l-0.45241,-0.15861c-1.45528,-0.43391 -2.86068,-1.06318 -4.35982,-1.32689c-1.74073,-0.30621 -3.98899,2.03772 -5.28731,2.87345c-1.4201,0.59284 -3.78734,1.6241 -5.27059,0.70558c-1.79371,-1.11077 -2.63534,-3.86127 -4.61182,-4.61177c-1.78517,-0.67786 -4.72087,1.35996 -6.11408,2.26146c0,0 -0.62967,0.40744 -1.03712,-0.22223c-0.40744,-0.62967 0.22223,-1.03712 0.22223,-1.03712c1.87278,-1.21183 5.07634,-3.26691 7.43285,-2.41494c2.17133,0.78503 3.0974,3.41463 4.88361,4.74073c0.81536,0.60533 3.02477,-0.42909 3.79642,-0.74915c1.76825,-1.15163 3.84619,-3.31591 6.17134,-3.03448c1.5733,0.19043 3.0892,0.93328 4.60012,1.37708l0.52033,0.1805c0,0 0.7082,0.24688 0.46132,0.95508z" fill="#ffffff" stroke="none" stroke-width="0.5" stroke-linecap="butt"/><path d="M254.73895,48.87077c-0.47389,0.1223 -0.71835,-0.14444 -0.83101,-0.34456c-1.09255,-0.55674 -1.9086,-0.22822 -3.10323,0.29847c-2.22931,1.65766 -5.4058,4.32848 -8.467,2.94649c-1.26052,-0.56905 -1.53518,-2.06543 -2.66527,-2.7379c-0.61569,-0.36637 -2.84947,0.86001 -3.27396,1.02448c0,0 -0.21062,0.08162 -0.44549,0.03967l-0.46595,0.62127c0,0 -0.44999,0.6 -1.05,0.15001c-0.6,-0.44999 -0.15001,-1.05001 -0.15001,-1.05001l0.54884,-0.73179c0,0 0.32516,-0.43356 0.79121,-0.28718c0.11715,-0.09715 0.22945,-0.14065 0.22945,-0.14065c1.22225,-0.4736 3.10859,-1.6106 4.47225,-0.9746c1.12292,0.52372 1.50033,2.26984 2.57328,2.6969c2.62495,1.04478 5.26111,-1.48284 7.15033,-2.85438c1.76973,-0.7892 3.10246,-1.17947 4.84443,-0.16677l0.38092,0.59693c0,0 0.18741,0.72621 -0.53879,0.91362z" fill="#ffffff" stroke="none" stroke-width="0.5" stroke-linecap="butt"/><path d="M253.8505,50.37348c0.56851,-0.02688 0.72226,0.56881 0.72226,0.56881l0.00453,0.02206c0.12239,0.21331 0.18429,0.47339 0.16004,0.77869l0.06605,0.32138c-0.06406,0.10426 -0.13677,0.2024 -0.21659,0.2942c-0.29742,0.71938 -0.93111,0.97311 -1.51702,0.87068c-1.19602,0.25547 -2.33448,-0.32528 -1.5575,-1.99938c0.41555,-0.89536 1.53392,-1.15962 2.33825,-0.85643z" fill="#000000" stroke="none" stroke-width="0.5" stroke-linecap="butt"/><path d="M245.27512,57.20002c-0.75276,0.87168 -1.16241,0.61627 -1.38684,0.06175c-0.58364,0.04082 -0.7407,-0.56773 -0.7407,-0.56773l-0.13644,-1.18635c0.10815,-0.18794 0.25779,-0.36924 0.43328,-0.5328c0.13851,-0.17533 0.34252,-0.31941 0.57124,-0.41679c0.98234,-0.55184 2.1948,-0.48467 2.05707,1.32234c-0.05695,0.74731 -0.38249,1.15665 -0.7976,1.31957z" fill="#000000" stroke="none" stroke-width="0.5" stroke-linecap="butt"/><path d="M237.03799,53.28905c-0.02525,0.00884 -0.04033,0.01272 -0.04033,0.01272l-1.06873,-0.21108c-0.19727,-0.39258 -0.70209,-0.75247 -0.5918,-1.17775c0.1753,-0.6759 2.02926,-1.92061 2.70452,-0.71874c0.32728,0.58252 0.35506,1.64394 -0.21468,1.99299c-0.22152,0.13571 -0.50409,0.15824 -0.78897,0.10188z" fill="#000000" stroke="none" stroke-width="0.5" stroke-linecap="butt"/><path d="M253.39473,28.73659c0.43525,1.68656 -1.48733,4.19713 -3.17389,4.63238c-1.68656,0.43525 -3.50789,-0.04803 -3.50789,-0.04803c0,0 3.45432,-1.13924 4.53548,-2.41563c0.89137,-1.05234 1.49277,-4.70115 1.49277,-4.70115c0,0 0.2183,0.84586 0.65355,2.53242z" fill="#c3c3c3" stroke="none" stroke-width="0" stroke-linecap="butt"/><path d="M239.3502,45.27574c-0.40967,0.58984 -0.85143,1.14746 -1.38037,1.61403c0,0 -0.37715,0.32825 -0.70541,-0.04889c-0.32825,-0.37715 0.04888,-0.70542 0.04888,-0.70542c0.05402,-0.04627 0.10726,-0.09364 0.15978,-0.14204c-0.02198,-0.02424 -0.04336,-0.05203 -0.06389,-0.08375c-0.27163,-0.41978 0.14816,-0.69142 0.14816,-0.69142l0.53098,-0.34359c0.2217,-0.14328 0.44721,-0.27833 0.67364,-0.41141c0.36441,-0.52184 0.70637,-1.07301 1.05438,-1.61195c-0.50805,-0.44072 -0.7868,-0.91526 -0.59163,-1.3868c0.14451,-0.34914 1.17692,-0.68733 2.3111,-0.87818c0.33023,-0.36958 0.68269,-0.74152 0.74482,-0.71991c0.23823,0.0829 0.43616,0.29028 0.6055,0.57078c0.94624,-0.04536 1.73418,0.06088 1.85088,0.40769c0.19245,0.57191 -0.32477,1.20309 -1.07003,1.79117c0.12845,0.46126 0.24959,0.87139 0.38717,1.1265l-0.00081,0.06259l0.01944,-0.00502l0.14994,0.58097c0.06901,0.26738 -0.09182,0.54008 -0.35919,0.60908c-0.13369,0.0345 -0.26871,0.01154 -0.37893,-0.05344l-0.86137,-0.50798l0.02286,-0.03874c-0.32642,-0.13291 -0.68039,-0.28628 -1.0334,-0.45577c-0.51552,0.29021 -0.958,0.52607 -1.19446,0.67928c-0.35031,0.2264 -0.71012,0.43225 -1.06799,0.64223zM241.4499,42.63349c0.25785,-0.18768 0.52443,-0.37733 0.7829,-0.5526c-0.04098,-0.14699 -0.07341,-0.29084 -0.09405,-0.42775c-0.14258,0.03481 -0.29003,0.07398 -0.43856,0.1119c-0.15057,0.24653 -0.3073,0.49562 -0.44131,0.69366c0.07403,0.05699 0.13617,0.11186 0.17974,0.16197c0.00375,0.00431 0.0075,0.00858 0.01126,0.01283zM242.79218,43.48584c-0.02825,-0.05798 -0.05691,-0.11783 -0.08568,-0.17922c-0.03588,0.0227 -0.07184,0.04526 -0.10782,0.06767c0.06531,0.03516 0.12998,0.07192 0.19351,0.11155zM240.32599,41.89615c0.0309,0.01582 0.06376,0.0329 0.09816,0.05105c0.00606,-0.00852 0.01214,-0.01702 0.01821,-0.0255c-0.03995,-0.00648 -0.0788,-0.01493 -0.11636,-0.02555z" fill="#000000" stroke="none" stroke-width="0.5" stroke-linecap="butt"/><path d="M241.28977,44.64164c0.48414,-0.12494 0.60908,0.35919 0.60908,0.35919l0.14994,0.58097c0.00928,0.03684 0.01733,0.07384 0.02422,0.11099c0.04855,0.12481 0.04041,0.24217 0.04041,0.24217c-0.00257,0.03165 -0.00513,0.06329 -0.0077,0.09493c0.00137,0.08461 -0.00193,0.16965 -0.00909,0.25491l0.11792,-0.0009l0.00617,0.81414c0.00671,0.22822 -0.14456,0.43893 -0.37497,0.49839c-0.26738,0.06901 -0.54008,-0.09182 -0.60908,-0.35919l-0.14994,-0.58097l0.03476,-0.00897l-0.04853,-0.07019c0.01294,-0.21494 0.02588,-0.42988 0.03882,-0.64483c-0.01191,-0.03332 -0.02237,-0.0669 -0.03131,-0.1006l-0.14994,-0.58097c0,0 -0.12494,-0.48414 0.35919,-0.60908z" fill="#000000" stroke="none" stroke-width="0.5" stroke-linecap="butt"/><path d="M243.93097,47.27244c0.02872,-0.01234 0.06029,-0.02314 0.09499,-0.0321c0.28826,-0.07439 0.44918,0.06714 0.53221,0.19385c0.03462,0.04855 0.06108,0.10416 0.07688,0.16535c0.00612,0.02373 0.01043,0.04751 0.01302,0.07118l0.05162,0.28199l-0.04292,0.61944c-0.00979,0.21353 -0.15686,0.40488 -0.37465,0.46108c-0.26738,0.06901 -0.54008,-0.09182 -0.60908,-0.35919l-0.19991,-0.77462c0,0 -0.12494,-0.48414 0.35919,-0.60908c0.03471,-0.00896 0.06756,-0.01478 0.09866,-0.01788z" fill="#000000" stroke="none" stroke-width="0.5" stroke-linecap="butt"/><path d="M265.59116,110.87358c0.74754,2.89663 0.51396,13.89574 -4.4326,15.17232c-4.94656,1.27658 -12.08221,-7.13221 -12.82977,-10.02886c-0.74754,-2.89663 4.87935,-1.00104 9.82591,-2.27761c4.94656,-1.27658 6.68891,-5.76249 7.43645,-2.86586z" fill="url(#color-1)" stroke="none" stroke-width="0" stroke-linecap="butt"/><path d="M213.80875,135.52634l-12.31581,-47.72213l28.35663,-7.31809l9.4376,29.13749l-0.13919,19.50032c0,0 -3.92687,0.56435 -5.46202,1.82404c-1.67839,1.37722 -4.21698,6.11815 -4.21698,6.11815c0,0 -4.20952,-2.43915 -6.84272,-2.69805c-2.58602,-0.25427 -8.81752,1.15828 -8.81752,1.15828z" fill="#000000" stroke="none" stroke-width="0" stroke-linecap="butt"/><path d="M232.57497,111.37464c0.59835,8.49938 -6.36268,16.60047 -6.36268,16.60047c0,0 -7.23844,-6.40512 -7.83678,-14.90448c-0.59835,-8.49938 5.66996,-15.87447 5.66996,-15.87447c0,0 7.93116,5.67911 8.52951,14.17848z" fill="#ffffff" stroke="#ffffff" stroke-width="1.4" stroke-linecap="butt"/><path d="M233.40166,110.25726c1.22236,4.73647 -1.53498,9.54347 -6.15869,10.73673c-4.62371,1.19325 -9.36288,-1.67909 -10.58524,-6.41557c-1.22236,-4.73647 1.53498,-9.54347 6.15869,-10.73673c4.62371,-1.19325 9.36288,1.67909 10.58524,6.41557z" fill="url(#color-2)" stroke="#000000" stroke-width="1" stroke-linecap="butt"/><path d="M235.68882,128.66468c0.32367,0.14162 0.42038,0.51637 0.42038,0.51637l0.23029,0.91031c0.03686,1.00759 1.03842,8.43947 -2.08077,5.64712c-0.29362,-0.26285 -0.04162,-1.80559 -0.0451,-2.27143c-0.01247,-1.66862 0.34751,-3.83303 -0.08784,-5.39705c0,0 -0.18741,-0.72621 0.53879,-0.91362c0.72621,-0.18741 0.91362,0.53879 0.91362,0.53879c0.04577,0.18783 0.08285,0.53226 0.11062,0.96952z" fill="#000000" stroke="none" stroke-width="0.5" stroke-linecap="butt"/><path d="M228.52619,132.51599c0,0 0.05185,-0.7482 0.80006,-0.69635c0.35612,0.02467 0.53099,0.2071 0.61648,0.39153c0.70857,-0.16789 0.8923,0.54407 0.8923,0.54407l0.12909,0.65424c-0.1497,2.13864 -0.27372,4.05122 -1.13041,5.78406l0.30149,0.1479l-0.57792,1.17809c-0.09261,0.1917 -0.26579,0.34291 -0.48808,0.40028c-0.40107,0.10351 -0.81012,-0.13772 -0.91362,-0.53879c-0.02611,-0.10116 -0.03028,-0.20284 -0.01549,-0.29999l0.08837,-0.68692c-0.16811,-2.19461 0.1432,-4.6436 0.29773,-6.87812z" fill="#000000" stroke="none" stroke-width="0.5" stroke-linecap="butt"/><path d="M223.95594,131.70694c0.13166,-0.08417 0.31124,-0.12967 0.55388,-0.07767c0.73335,0.15714 0.57621,0.89049 0.57621,0.89049l-0.05782,0.04914c0.30011,2.10173 0.63521,4.27616 0.60867,6.39794c-0.01366,1.09234 0.21126,2.69949 -1.79208,2.15279c-1.65328,-0.45118 -1.00335,-1.53898 -0.99155,-2.53012c0.02858,-2.39962 -0.38336,-4.83895 -0.40179,-7.25192c0,0 -0.00569,-0.74998 0.74429,-0.75567c0.74998,-0.00569 0.75567,0.74429 0.75567,0.74429c0.00095,0.12699 0.00247,0.2539 0.00451,0.38074z" fill="#000000" stroke="none" stroke-width="0.5" stroke-linecap="butt"/><path d="M240.42644,118.46868c0.68487,2.65381 1.36976,5.30761 2.05463,7.96142c0.27554,1.0677 1.9385,5.66541 -0.20993,6.05797c-1.46487,0.26767 -1.76353,-3.32961 -1.85436,-4.07871c-0.49652,-4.09548 -3.10596,-9.63993 -2.22045,-13.85781l-0.2627,-0.05629l0.06886,-0.32136c-0.80387,-1.49291 -1.55,-3.01518 -2.15612,-4.60955c0,0 -0.26646,-0.70107 0.4346,-0.96753c0.70107,-0.26646 0.96753,0.4346 0.96753,0.4346c0.40021,1.05318 0.86021,2.07499 1.35696,3.07761l-0.08479,-0.76296c-0.04702,-0.36926 0.18691,-0.72454 0.55678,-0.81999c0.36451,-0.09407 0.73559,0.0966 0.87793,0.43322l0.34139,0.76921c1.72611,3.38616 3.40373,6.8477 4.35402,10.53255c0.31193,1.2096 0.94985,2.5698 0.94838,3.8086c0.12626,0.40343 0.24283,0.81202 0.34854,1.22639l-0.02088,0.06393l0.02883,-0.00252l0.07479,0.85337c0.03834,0.36346 -0.19414,0.70989 -0.55864,0.80396c-0.40107,0.10351 -0.81012,-0.13772 -0.91362,-0.53879c-0.00599,-0.02319 -0.01082,-0.04641 -0.01453,-0.06959l-0.25144,-1.46988l0.00728,-0.00125c-0.88388,-3.03568 -2.34187,-5.77114 -3.87306,-8.46656zM238.7928,112.48289c-0.00142,-0.05342 -0.00179,-0.10721 -0.00108,-0.16168l-0.07619,0.00847c0.02567,0.05112 0.05142,0.10219 0.07727,0.15322zM240.96796,116.45688c-0.05919,-0.12599 -0.11877,-0.25182 -0.17866,-0.37748c-0.00741,0.0082 -0.01501,0.01625 -0.02279,0.02412c0.06708,0.11782 0.13424,0.2356 0.20145,0.35336z" fill="#000000" stroke="none" stroke-width="0.5" stroke-linecap="butt"/><path d="M220.81622,124.02171c0,0 -2.03587,-4.55064 -3.21415,-11.25386c-0.36656,-2.08535 2.83913,-12.60949 2.83913,-12.60949" fill="none" stroke="#000000" stroke-width="2" stroke-linecap="round"/><path d="M216.61821,117.35938l-0.07504,-9.89517" fill="none" stroke="#000000" stroke-width="2" stroke-linecap="round"/><path d="M233.17567,106.6832l0.88406,14.23055" fill="none" stroke="#000000" stroke-width="2" stroke-linecap="round"/><path d="M257.9387,117.23772l0.53625,6.7467l-2.93093,-8.0221" fill="none" stroke="#000000" stroke-width="1.5" stroke-linecap="round"/><path d="M262.52497,114.33286l2.07201,12.03057l-3.43591,-10.64582" fill="none" stroke="#000000" stroke-width="1.5" stroke-linecap="round"/><path d="M248.98471,114.55682l3.69622,12.98842l-5.5651,-14.22739" fill="none" stroke="#000000" stroke-width="1.5" stroke-linecap="round"/><path d="M254.37794,116.77966l1.99909,7.74621l-2.95694,-6.12199l1.43686,8.23555l-3.43069,-9.95866" fill="none" stroke="#000000" stroke-width="1.5" stroke-linecap="round"/><path d="M264.03985,111.53214l1.91067,17.40815l-2.95703,-16.79386" fill="none" stroke="#000000" stroke-width="1.5" stroke-linecap="round"/><path d="M259.14644,116.58178l1.52016,8.55831l-3.22767,-9.83892" fill="none" stroke="#000000" stroke-width="1.5" stroke-linecap="round"/></g></g></svg>