<svg version="1.1" xmlns="http://www.w3.org/2000/svg" xmlns:xlink="http://www.w3.org/1999/xlink" width="101.94791" height="248.99809" viewBox="0,0,101.94791,248.99809"><g transform="translate(-180.51938,-56.5018)"><g data-paper-data="{&quot;isPaintingLayer&quot;:true}" fill-rule="nonzero" stroke-linejoin="miter" stroke-miterlimit="10" stroke-dasharray="" stroke-dashoffset="0" style="mix-blend-mode: normal"><path d="M201.54536,304.39162c0,0 -0.63536,-94.38387 -0.79335,-118.01201c-0.05451,-8.15261 8.18688,-36.76129 40.20201,-36.9211c31.60235,-0.15775 39.85672,29.48704 39.84884,36.89673c-0.07659,46.24274 0.65429,117.98648 0.65429,117.98648l-10.49667,0.09614l-0.15882,-114.84311c0,0 0.07549,-3.0993 -2.81625,-3.15415c-3.43441,-0.06514 -2.94538,3.11562 -2.94538,3.11562l0.20548,114.86995l-48.21366,0.07222l-0.30539,-115.23309c0,0 0.27949,-2.919 -2.8856,-2.93443c-3.11083,-0.01515 -2.81569,2.90899 -2.81569,2.90899l0.35311,115.0668z" fill="#ffffff" stroke="#000000" stroke-width="2" stroke-linecap="butt"/><path d="M256.1425,200.3339c-0.57113,0 -1.03411,-0.46299 -1.03411,-1.03411c0,-0.57113 0.46299,-1.03413 1.03411,-1.03413c0.57113,0 1.03411,0.463 1.03411,1.03413c0,0.57113 -0.46299,1.03411 -1.03411,1.03411z" fill="#000000" stroke="none" stroke-width="1.5" stroke-linecap="butt"/><path d="M250.88265,204.56948c-4.4635,-0.31439 -6.55245,-1.79392 -6.16985,-2.58011c0.11788,-0.24224 2.84645,1.06355 6.97038,1.3048c6.40897,0.37493 8.51033,-0.63173 8.51033,-0.63173v1.34616c0,0 -2.4135,1.04672 -9.31086,0.56089z" fill="#000000" stroke="#000000" stroke-width="0" stroke-linecap="butt"/><path d="M223.06989,199.29979c0,-0.57113 0.46299,-1.03413 1.03411,-1.03413c0.57113,0 1.03413,0.463 1.03413,1.03413c0,0.57113 -0.463,1.03411 -1.03413,1.03411c-0.57113,0 -1.03411,-0.46299 -1.03411,-1.03411z" fill="#000000" stroke="none" stroke-width="1.5" stroke-linecap="butt"/><path d="M229.36387,204.56948c-6.89736,0.48585 -9.31086,-0.56089 -9.31086,-0.56089v-1.34616c0,0 2.10136,1.00666 8.51033,0.63173c4.12393,-0.24126 6.85251,-1.54704 6.97039,-1.3048c0.3826,0.78618 -1.70634,2.26571 -6.16985,2.58011z" fill="#000000" stroke="#000000" stroke-width="0" stroke-linecap="butt"/><path d="M240.64432,261.12113c-0.81895,0 -1.48284,-0.66389 -1.48284,-1.48284c0,-0.81895 0.66389,-1.48284 1.48284,-1.48284c0.81895,0 1.48284,0.66389 1.48284,1.48284c0,0.81895 -0.66389,1.48284 -1.48284,1.48284z" data-paper-data="{&quot;index&quot;:null}" fill="#000000" stroke="none" stroke-width="1.5" stroke-linecap="butt"/><path d="M216.58108,304.40603v-119.20147c0,0 0.75721,-9.73105 0.75721,-14.63937c0,-4.498 -0.75721,-13.6872 -0.75721,-13.6872c0,0 2.67319,-2.35297 4.6557,-3.74807c1.98251,-1.3951 5.17197,-2.80371 5.17197,-2.80371c0,0 -0.6016,20.05162 14.55952,19.98127c15.43477,-0.07162 13.83154,-19.98127 13.83154,-19.98127c0,0 3.91276,1.51959 6.16585,2.94655c2.25309,1.42695 4.75379,3.60523 4.75379,3.60523c0,0 -0.75721,9.42463 -0.75721,14.19201c0,4.84193 0.75721,14.63937 0.75721,14.63937v118.69667z" fill="#a50000" stroke="#000000" stroke-width="2" stroke-linecap="butt"/><path d="M220.0142,198.68105v-6.05h15.65834v6.05z" fill="#2f2f2f" stroke="#2f2f2f" stroke-width="2" stroke-linecap="butt"/><text transform="translate(219.73231,194.85753) scale(0.08153,0.08153)" font-size="40" xml:space="preserve" fill="#a50000" fill-rule="nonzero" stroke="none" stroke-width="1" stroke-linecap="butt" stroke-linejoin="miter" stroke-miterlimit="10" stroke-dasharray="" stroke-dashoffset="0" font-family="Sans Serif" font-weight="normal" text-anchor="start" style="mix-blend-mode: normal"><tspan x="0" dy="0">Donk</tspan><tspan x="0" dy="46.150000000000006px">Industries</tspan></text><path d="M217.83741,167.27087l-0.625,9l-0.5,-5.625" fill="none" stroke="#000000" stroke-width="2.5" stroke-linecap="round"/><path d="M258.21236,153.52087l-9,12.25l-3.75,3.75l-6.75,1.25l-8.5,-6.25l-8.25,-11.625" fill="none" stroke="#000000" stroke-width="2.5" stroke-linecap="round"/><path d="M242.77104,168.64641c0.06202,0.49614 -0.43412,0.55816 -0.43412,0.55816l-0.309,0.0099c-0.79718,0.38534 -1.5517,0.44969 -2.31741,0.29498l-0.02384,0.0053v0.10545h-0.52941c-0.15312,0 -0.29017,-0.06883 -0.38189,-0.17724l-0.3052,-0.06782c-0.21399,-0.04291 -0.3786,-0.22243 -0.39901,-0.44372c-0.36877,-0.1103 -0.5708,-0.22318 -0.68957,-0.40953c-0.00538,-0.00129 -0.01078,-0.00257 -0.0162,-0.00386l-0.06586,-0.07936l-0.02112,0.02957l-0.40634,-0.29024c-0.12983,-0.09031 -0.2148,-0.2406 -0.2148,-0.41074c0,-0.27614 0.22386,-0.5 0.5,-0.5c0.11048,0 0.2126,0.03583 0.29535,0.09652l0.34433,0.24595c0.50614,0.1057 0.7849,0.25658 1.31057,0.18943c0,0 0.49752,-0.04975 0.54727,0.44777c0.00058,0.0058 0.00109,0.01154 0.00152,0.01723c0.46498,-0.09785 1.09075,-0.01316 1.45132,-0.10263l0.51888,-0.11531c0.03814,-0.00931 0.07799,-0.01425 0.11899,-0.01425c0.16031,0 0.30299,0.07544 0.39449,0.19276l0.0729,-0.01243c0,0 0.49614,-0.06202 0.55816,0.43412z" fill="#ffffff" stroke="none" stroke-width="0.5" stroke-linecap="butt"/><path d="M227.98571,157.89614c1.31961,1.98885 2.58082,4.31676 4.37773,5.38823c0,0 0.424,0.265 0.159,0.689c-0.265,0.424 -0.689,0.159 -0.689,0.159c-2.51327,-1.62255 -4.11759,-5.20664 -6.05245,-7.53059l-0.00287,-0.10036l-0.03638,0.01213l-0.17278,-0.51834c-0.019,-0.05284 -0.02935,-0.1098 -0.02935,-0.16919c0,-0.27614 0.22386,-0.5 0.5,-0.5c0.11438,0 0.21979,0.03841 0.30404,0.10303l0.46655,0.34991l-0.03924,0.05232c0.5336,0.2647 0.98313,0.61232 1.3041,1.1829l0.05279,0.51772c0,0 0,0.21617 -0.14214,0.36424z" fill="#ffffff" stroke="none" stroke-width="0.5" stroke-linecap="butt"/><path d="M207.88069,175.41932c0.0446,0.00109 0.07171,0.00496 0.07171,0.00496c0.92342,0.13649 2.98074,0.70889 3.64309,1.29564c1.07851,0.9554 0.4335,1.311 0.27688,2.28125c-0.50876,3.15163 -2.83993,6.30737 -6.20999,5.55305c-0.45526,-0.1019 0.44949,0.82079 0.6172,1.25613c0.40739,1.822 1.49915,3.70176 0.85111,5.58928c-0.48075,1.40028 -1.2776,3.38111 -3.1004,2.01174c-0.50497,-0.37935 -0.15106,-1.3086 -0.51819,-1.82252c-1.80618,-2.52832 -0.84434,-6.04321 -0.84434,-9.27924c0.04267,-3.15012 2.0912,-4.80547 4.07681,-6.81604l0.67319,-0.21967c0,0 0.25127,0 0.46293,0.14544z" fill="#000000" stroke="none" stroke-width="0.5" stroke-linecap="butt"/><path d="M204.10392,204.48984c-0.15665,-0.10516 -0.29331,-0.28865 -0.29331,-0.6088c0,-0.75 0.75,-0.75 0.75,-0.75c3.64975,0.01015 5.6855,4.66119 1.87483,5.67514c0.77783,0.65445 0.91535,2.20558 1.23276,3.18004l0.53706,0.93986c0.06691,0.11222 0.10535,0.24339 0.10535,0.38354c0,0.41421 -0.33579,0.75 -0.75,0.75c-0.11082,0 -0.21602,-0.02403 -0.31068,-0.06717l-0.98476,-0.42204l0.08681,-0.20255c-2.25383,-0.76993 -4.91506,-2.42581 -4.52653,-4.77812c0.25384,-1.53681 2.03906,-2.50713 2.27847,-4.09988z" fill="#000000" stroke="none" stroke-width="0.5" stroke-linecap="butt"/><path d="M205.26498,248.35727l-0.30878,-0.31366c-0.16789,-0.10432 -0.33577,-0.20863 -0.50366,-0.31295c-4.54395,-0.97419 0.29422,-4.71269 1.51692,-6.31119c0.38659,-0.5054 0.80962,-1.87573 1.82004,-1.53838c1.02148,0.34105 0.54359,1.64482 0.65429,2.30837c0.47499,2.84712 1.43826,5.07649 1.43826,8.12014c0,2.90845 0.50466,5.71013 0.28316,8.63329c-0.16644,2.19655 -0.85127,3.84443 -1.1426,5.71109c-0.43064,2.75926 -2.76027,1.86593 -3.45194,-0.08641c-0.74401,-1.87641 -2.21219,-4.31542 -1.26631,-6.42089c0.50771,-1.13012 1.94069,-1.91645 2.43967,-3.02373c0.75171,-1.66813 -0.90056,-4.78022 -1.45708,-6.26429c0,0 -0.09224,-0.24599 -0.02196,-0.50138z" fill="#000000" stroke="none" stroke-width="0.5" stroke-linecap="butt"/><path d="M268.97612,173.30584l-0.80981,-0.28682c-3.09753,-3.17909 -0.69134,-6.2431 3.39327,-5.51731c1.58359,0.28139 1.92374,1.41653 2.79189,2.50171c0.42604,1.04396 1.50672,1.84585 1.78907,2.8917c0.85549,3.16883 1.03767,7.94521 0.29286,11.22966c-0.734,3.23678 -4.78692,1.44217 -5.79026,-0.48239c-0.65699,-0.82124 -3.14752,-4.61774 -2.04757,-5.64263c1.09363,-1.019 2.6503,0.97513 3.73622,0.12131c0.29494,-0.2319 0.02366,-0.75298 0.09293,-1.12172c0.6171,-3.28491 0.3524,-3.15403 -2.72127,-3.15403c0,0 -0.6021,0 -0.72735,-0.53948z" fill="#000000" stroke="none" stroke-width="0.5" stroke-linecap="butt"/><path d="M274.65092,216.66798c-0.00303,-0.15106 0.04863,-0.32217 0.20626,-0.4995c0.49827,-0.56056 1.05883,-0.06228 1.05883,-0.06228c1.53706,1.37834 5.95742,7.16518 3.71782,9.26081c-0.99199,0.92823 -3.09392,1.05026 -4.13683,1.99451c-0.67895,0.61472 -0.47406,3.19209 -0.47212,4.01952v0.85714c0,0.41421 -0.33579,0.75 -0.75,0.75c-0.39185,0 -0.71351,-0.3005 -0.7471,-0.68362l-0.14203,-1.42032l0.01675,-0.00167c-1.02286,-2.44009 -2.21225,-5.68224 -1.85755,-7.53098c0.43306,-2.25718 2.05904,-4.14934 2.89072,-6.24909z" fill="#000000" stroke="none" stroke-width="0.5" stroke-linecap="butt"/><path d="M229.28318,193.07262h5.87097" fill="none" stroke="#a50000" stroke-width="0.5" stroke-linecap="round"/><path d="M229.12188,194.13715l6.19355,0.03226" fill="none" stroke="#a50000" stroke-width="0.5" stroke-linecap="round"/><path d="M229.02511,195.13716l6.51613,0.03226" fill="none" stroke="#a50000" stroke-width="0.5" stroke-linecap="round"/><path d="M183.94186,104.88019c0,0 6.16329,-5.92187 6.29161,-6.78761c0.33654,-2.27063 -0.16776,-40.17317 35.96775,-41.57382c44.63633,-0.91362 39.01489,35.34872 41.53088,42.1903c3.44981,9.38084 6.15664,17.40016 6.15664,17.40016c0,0 -2.76715,-2.05351 -4.0797,-3.13397c-1.2242,-1.00773 -3.80143,-3.14585 -3.80143,-3.14585c0,0 3.09111,10.3481 1.31092,20.69498c-1.5623,9.48098 -7.29782,17.22543 -7.29782,17.22543l-1.15522,-2.34735c0,0 -1.02266,2.19794 -2.16005,3.33274c-1.1374,1.13479 -3.43873,2.91273 -3.43873,2.91273l-0.09205,-3.70421c0,0 -7.0601,11.01795 -24.35066,10.87154c-16.30625,-0.25547 -26.07151,-10.6752 -26.07151,-10.6752l-0.1162,2.65484c0,0 -3.89477,-3.29276 -6.18145,-9.70754c-2.72545,-7.64567 -3.23946,-12.24324 -3.23946,-12.24324c0,0 -2.33908,1.89916 -5.71704,2.7744c-4.23278,1.09673 -6.94665,0.34526 -6.94665,0.34526c0,0 3.60795,-2.71717 5.58396,-4.76989c1.76007,-1.8284 2.64658,-3.37722 2.64658,-3.37722c0,0 -2.10758,1.0847 -4.23277,1.61795c-2.21739,0.5564 -4.03008,0.53093 -4.03008,0.53093c0,0 4.97492,-5.03728 7.03074,-10.87429c1.94102,-5.51108 2.09972,-10.95731 2.09972,-10.95731c0,0 -1.36165,0.66163 -3.33013,0.79513c-1.24776,0.08463 -2.37785,-0.0489 -2.37785,-0.0489z" fill="#000000" stroke="none" stroke-width="1.5" stroke-linecap="butt"/><path d="M200.72775,116.20181c-0.57709,-7.29323 0.335,-17.15448 0.335,-17.15448c0,0 3.41059,-0.04124 13.91429,-3.14424c8.0696,-2.38394 20.54731,-9.48722 20.54731,-9.48722c0,0 -2.16005,3.00503 -3.40781,4.46015c-1.32651,1.54696 -3.99292,4.56297 -3.99292,4.56297c0,0 7.838,-1.66761 14.67476,-4.72931c8.56837,-3.53575 10.59252,-6.05309 12.95042,-4.5927c2.7829,1.72362 1.03006,23.1827 0.71846,28.74062c-0.42163,5.66922 -2.53327,9.49969 -3.15031,12.52053c-0.61704,3.02084 -0.4096,6.13662 -2.20622,16.0397c-1.12121,6.18021 -4.16183,8.92466 -10.01942,14.66081c-5.85759,5.73616 -9.05378,9.25275 -13.01359,9.32173c-3.81077,0.06639 -8.93565,-5.1002 -13.93542,-10.38244c-5.32393,-5.62474 -8.87489,-8.47713 -9.71551,-15.13975c-0.75707,-6.00039 -0.77653,-9.90853 -1.12266,-15.24835c-0.25298,-3.90273 -2.26119,-6.44504 -2.57636,-10.42801z" fill="#ffffff" stroke="#000000" stroke-width="1.5" stroke-linecap="butt"/><g stroke="none" stroke-linecap="butt"><path d="M248.66332,149.64632c0,0 0.14916,15.74821 -6.72494,23.80261c-2.39758,2.80926 -8.67577,2.79641 -13.99591,2.79641c-5.70451,0 -10.91972,-0.01373 -13.8233,-3.02185c-8.23522,-8.53186 -7.48535,-24.75285 -7.48535,-24.75285c0,0 10.32292,-8.00654 15.28545,-8.44736c1.52335,-0.13531 6.17783,3.64713 6.17783,3.64713c0,0 3.87821,-4.23729 8.04558,-2.84813c6.97919,2.32649 12.52064,8.82398 12.52064,8.82398z" fill="#000000" stroke-width="0"/><path d="M229.29492,146.1413c-0.71982,0.55262 -14.82851,2.61877 -17.35894,2.61877c-3.51205,0 -3.21116,-0.68229 2.70036,-4.01938c5.3226,-2.99706 8.95633,-3.78925 13.21575,0.77628c0,0 1.57372,0.47557 1.44282,0.62433z" data-paper-data="{&quot;noHover&quot;:false,&quot;origItem&quot;:[&quot;Path&quot;,{&quot;applyMatrix&quot;:true,&quot;segments&quot;:[[[332.0254,197.06293],[0.95313,-0.53669],[-1.05859,0.59758]],[[331.53713,197.74806],[-0.62891,0],[0.45313,0]],[[334.0254,197.29892],[-0.1289,0.09896],[0.02344,-0.02664]],[[333.87307,196.93732],[0.10547,0.17509],[-0.28906,-0.44914]]],&quot;closed&quot;:true,&quot;fillColor&quot;:[0,0,0]}]}" fill="#ffffff" stroke-width="0.5"/><path d="M241.51949,145.61717l4.49293,3.46162l-2.33659,0.25727c-2.72672,0.21254 -15.26264,-2.51303 -15.58982,-3.70333c1.34901,-1.25408 4.51089,-3.46796 6.49595,-3.46796c1.19974,0 4.07997,1.43311 6.93759,3.4524z" data-paper-data="{&quot;noHover&quot;:false,&quot;origItem&quot;:[&quot;Path&quot;,{&quot;applyMatrix&quot;:true,&quot;segments&quot;:[[[335.58448,196.62521],[0.21484,0],[-0.35547,0]],[[334.9087,197.16189],[-0.07422,-0.22457],[0.05859,0.21315]],[[337.13526,197.84702],[-0.48828,0.03806],[0,0]],[337.54932,197.80896],[[336.74073,197.21138],[0,0],[-0.51172,-0.3616]]],&quot;closed&quot;:true,&quot;fillColor&quot;:[0,0,0]}]}" fill="#ffffff" stroke-width="0.5"/><path d="M221.21772,150.10949c0,-1.53038 9.13083,-1.82691 13.18819,-0.50907c2.98852,1.04154 2.7982,1.27965 -4.9021,1.27965c-4.47182,0.06377 -8.28609,-0.43045 -8.28609,-0.77053z" data-paper-data="{&quot;noHover&quot;:false,&quot;origItem&quot;:[&quot;Path&quot;,{&quot;applyMatrix&quot;:true,&quot;segments&quot;:[[[333.20509,198.01069],[0,0],[0,0.0609]],[[334.61134,198.10965],[-0.80078,0.01142],[1.37891,0]],[[335.46682,197.92314],[0.53516,0.18651],[-0.72656,-0.23599]],[[333.20509,198.01068],[0,-0.27405],[0,0]]],&quot;closed&quot;:true,&quot;fillColor&quot;:[0,0,0]}]}" fill="#ffffff" stroke-width="0.5"/><path d="M218.56319,159.00203c0,-0.9777 0.54559,-0.85892 4.86474,1.22409c4.51543,2.16806 7.82979,2.02052 11.08004,-0.40264c2.20319,-1.67921 3.49479,-1.71003 2.81858,0.11795c-0.78527,2.29561 -4.7636,4.26833 -8.95185,4.26833c-3.40298,0 -4.6909,-0.58904 -7.02498,-2.33197c-1.52698,-1.1903 -2.78659,-2.53562 -2.78659,-2.8757z" data-paper-data="{&quot;noHover&quot;:false,&quot;origItem&quot;:[&quot;Path&quot;,{&quot;applyMatrix&quot;:true,&quot;segments&quot;:[[[332.72855,199.61694],[0,0],[0,0.0609]],[[333.22855,200.11556],[-0.27344,-0.21315],[0.41797,0.31211]],[[334.43168,200.48857],[-0.60938,0],[0.75,0]],[[335.99027,199.7806],[-0.14062,0.41108],[0.12109,-0.32734]],[[335.58402,199.74254],[0.39453,-0.3007],[-0.58203,0.43392]],[[333.50199,199.81486],[0.80859,0.38824],[-0.77344,-0.37301]],[[332.72855,199.61693],[0,-0.17508],[0,0]]],&quot;closed&quot;:true,&quot;fillColor&quot;:[0,0,0]}]}" fill="#ffffff" stroke-width="0.5"/><path d="M214.34647,155.09659c4.9299,9.67123 6.94066,10.95563 15.05537,10.55177c6.17332,-0.27632 7.18832,-0.79442 10.56947,-7.87251c2.0069,-4.12359 5.63264,-7.47843 6.63609,-6.4369c0.71988,0.76522 -1.63906,13.81664 -3.10059,16.87742c-2.26863,4.86748 -5.16507,6.08995 -15.0031,6.08995c-7.17676,0 -8.53626,-0.23035 -11.52478,-1.82451c-4.05736,-2.14684 -5.78722,-5.55798 -7.72867,-14.8679c-0.71982,-3.63467 -1.29863,-6.89905 -1.29863,-7.17537c0,-0.29759 1.00975,-0.15866 2.20949,0.3302c1.39608,0.6164 3.13834,2.24479 4.18541,4.32781z" data-paper-data="{&quot;noHover&quot;:false,&quot;origItem&quot;:[&quot;Path&quot;,{&quot;applyMatrix&quot;:true,&quot;segments&quot;:[[[331.21682,198.15914],[0.25,0.11038],[-0.21484,-0.08754]],[[330.8223,198.09824],[0,-0.05329],[0,0.04948]],[[331.06057,199.36953],[-0.1289,-0.65087],[0.34766,1.66715]],[[332.43166,201.98444],[-0.72656,-0.38444],[0.53516,0.28547]],[[334.4551,202.29655],[-1.28516,0],[1.76172,0]],[[337.09963,201.23841],[-0.40625,0.87163],[0.26172,-0.5481]],[[337.65822,198.2581],[0.12891,0.13703],[-0.17969,-0.18651]],[[336.56056,199.36953],[0.35938,-0.73842],[-0.60547,1.26749]],[[334.6465,200.83875],[1.10547,-0.04948],[-1.45312,0.07232]],[[331.88088,198.88233],[0.88281,1.73185],[-0.1875,-0.37301]]],&quot;closed&quot;:true,&quot;fillColor&quot;:[0,0,0]}]}" fill="#ffffff" stroke-width="0.5"/></g><path d="M228.3599,145.62885c-1.03376,0 -3.5381,-3.26042 -3.7867,-5.3637c-0.22243,-1.88186 1.31512,-3.82799 3.7867,-3.82799c2.47159,0 4.2021,0.49077 4.02999,4.18853c-0.14607,3.13818 -1.55841,5.00317 -4.02999,5.00317z" fill="#ffffff" stroke="#000000" stroke-width="1.15" stroke-linecap="butt"/><path d="M231.96199,115.5352c0,0 0.1026,3.96976 0.00576,7.12662c-0.19174,6.25113 -1.08147,27.7607 -1.08147,27.7607l-2.98167,0.00864c0,0 -0.80294,-4.17274 -1.12322,-9.49979c-0.43353,-7.21063 -0.4495,-16.29321 -0.76344,-19.63229c-0.29758,-3.16513 -0.89593,-5.71453 -0.89593,-5.71453" fill="#ffffff" stroke="#000000" stroke-width="1.3" stroke-linecap="round"/><path d="M202.4274,126.32504c0,0 -4.93211,-3.51705 -6.16417,-8.97502c-1.29636,-5.74284 -1.46118,-9.7328 0.48013,-9.99193c1.94131,-0.25915 2.70321,2.37692 3.73262,8.35569c1.0294,5.97877 1.95143,10.61127 1.95143,10.61127z" data-paper-data="{&quot;index&quot;:null}" fill="#ffffff" stroke="#000000" stroke-width="1" stroke-linecap="butt"/><path d="M202.2248,122.37746c0,0 -3.56385,-2.92338 -4.31816,-8.45061c-0.42079,-3.08327 2.15675,-2.28016 2.15675,-2.28016" fill="none" stroke="#000000" stroke-width="0.25" stroke-linecap="round"/><path d="M205.23821,115.72159c0.07093,-4.89188 4.83834,-8.93609 10.21137,-8.8582c5.37302,0.0779 9.02724,4.2484 8.95632,9.14029c-0.07093,4.89188 -4.12352,8.79439 -9.49655,8.7165c-5.37302,-0.0779 -9.74207,-4.1067 -9.67114,-8.99859z" fill="#000000" stroke="#000000" stroke-width="1.4" stroke-linecap="butt"/><path d="M209.67583,115.83952c0.03999,-2.75843 2.30855,-4.96213 5.06696,-4.92214c2.75843,0.03999 4.96213,2.30855 4.92214,5.06696c-0.03999,2.75843 -2.30854,4.96213 -5.06696,4.92214c-2.75843,-0.03999 -4.96213,-2.30855 -4.92214,-5.06696z" fill="#000000" stroke="none" stroke-width="1.5" stroke-linecap="butt"/><path d="M232.29447,115.72231c0.20353,-4.88817 4.45264,-8.85847 9.77048,-8.85847c5.31783,0 9.27453,3.96607 9.27453,8.85847c0,4.8924 -3.88585,9.07104 -9.69964,9.14188c-5.52997,0.06739 -9.55792,-4.03692 -9.34537,-9.14188z" fill="#000000" stroke="#000000" stroke-width="1.4" stroke-linecap="butt"/><path d="M236.89724,115.80787c0,-2.81845 2.2848,-5.10325 5.10325,-5.10325c2.81845,0 5.10325,2.2848 5.10325,5.10325c0,2.81845 -2.28479,5.10325 -5.10325,5.10325c-2.81845,0 -5.10325,-2.2848 -5.10325,-5.10325z" fill="#000000" stroke="none" stroke-width="1.5" stroke-linecap="butt"/><path d="M256.66051,115.71377c1.0294,-5.97877 1.7913,-8.61483 3.73262,-8.35569c1.94131,0.25914 1.77649,4.24909 0.48013,9.99193c-1.23206,5.45797 -6.16417,8.97502 -6.16417,8.97502c0,0 0.92203,-4.6325 1.95143,-10.61127z" data-paper-data="{&quot;index&quot;:null}" fill="#ffffff" stroke="#000000" stroke-width="1" stroke-linecap="butt"/><path d="M257.07309,111.64671c0,0 2.57754,-0.80312 2.15675,2.28016c-0.75431,5.52723 -4.31816,8.45061 -4.31816,8.45061" data-paper-data="{&quot;index&quot;:null}" fill="none" stroke="#000000" stroke-width="0.25" stroke-linecap="round"/><path d="M213.10825,115.52788c0,-0.9665 0.7835,-1.75 1.75,-1.75c0.9665,0 1.75,0.7835 1.75,1.75c0,0.9665 -0.7835,1.75 -1.75,1.75c-0.9665,0 -1.75,-0.7835 -1.75,-1.75z" fill="#ff0000" stroke="none" stroke-width="0.5" stroke-linecap="butt"/><path d="M239.94158,115.02788c0,-0.9665 0.7835,-1.75 1.75,-1.75c0.9665,0 1.75,0.7835 1.75,1.75c0,0.9665 -0.7835,1.75 -1.75,1.75c-0.9665,0 -1.75,-0.7835 -1.75,-1.75z" fill="#ff0000" stroke="none" stroke-width="0.5" stroke-linecap="butt"/><path d="M213.85825,135.1112v-10.33333" fill="none" stroke="#000000" stroke-width="0.5" stroke-linecap="round"/><path d="M220.06657,130.84724c0.5,0 0.5,0.5 0.5,0.5v0.33334c0,1.71983 -0.54106,3.13523 -1.01224,4.77662c-0.82825,5.02122 -5.16059,4.58236 -9.06785,3.21692c-4.82761,0.04139 -3.92132,-4.6562 -3.32978,-8.24241c0,0 0.0822,-0.4932 0.5754,-0.411c0.49319,0.0822 0.411,0.5754 0.411,0.5754c-0.18344,1.09059 -1.05376,5.93165 -0.16559,6.70674c0.46746,0.40795 2.11295,0.37996 2.66915,0.38418c3.44257,1.10699 7.1786,2.03026 7.93215,-2.44974c0.44738,-1.57277 0.98776,-2.91836 0.98776,-4.55671v-0.33334c0,0 0,-0.5 0.5,-0.5z" fill="#000000" stroke="none" stroke-width="0.5" stroke-linecap="butt"/><path d="M248.3249,130.31671c0.5,0 0.5,0.5 0.5,0.5c0,1.4 0,3 0,4.4c0,0.99079 0.31727,2.7349 -0.15279,3.62361c-1.16566,2.20383 -6.47288,0.97396 -8.39648,0.97396c-0.87506,-0.17501 -2.06242,-0.0875 -2.82598,-0.58015c-1.67261,-1.07916 -1.52475,-5.51796 -1.52475,-7.31742c0,0 0,-0.5 0.5,-0.5c0.5,0 0.5,0.5 0.5,0.5c0,1.43029 -0.16592,5.60401 1.07525,6.48258c0.53674,0.37993 1.71432,0.28791 2.37402,0.41985c2.02372,0 3.85208,0.40506 5.85267,0.00728c0.26572,-0.05283 1.48931,-0.21815 1.55084,-0.43332c0.26772,-0.93621 0.04721,-2.20649 0.04721,-3.17639c0,-1.4 0,-2.8 0,-4.2v-0.2c0,0 0,-0.5 0.5,-0.5z" fill="#000000" stroke="none" stroke-width="0.5" stroke-linecap="butt"/></g></g></svg>