<svg version="1.1" xmlns="http://www.w3.org/2000/svg" xmlns:xlink="http://www.w3.org/1999/xlink" width="108.19996" height="241.6006" viewBox="0,0,108.19996,241.6006"><g transform="translate(-174.26732,-63.89926)"><g data-paper-data="{&quot;isPaintingLayer&quot;:true}" fill-rule="nonzero" stroke-linejoin="miter" stroke-miterlimit="10" stroke-dasharray="" stroke-dashoffset="0" style="mix-blend-mode: normal"><path d="M201.54534,304.39159c0,0 -0.63536,-94.38387 -0.79335,-118.01201c-0.05451,-8.15261 8.18688,-36.76129 40.20201,-36.9211c31.60235,-0.15775 39.85672,29.48704 39.84884,36.89673c-0.07659,46.24274 0.65429,117.98648 0.65429,117.98648l-10.49667,0.09614l-0.15882,-114.84311c0,0 0.07549,-3.0993 -2.81625,-3.15415c-3.43441,-0.06514 -2.94538,3.11562 -2.94538,3.11562l0.20548,114.86995l-48.21366,0.07222l-0.30539,-115.23309c0,0 0.27949,-2.919 -2.8856,-2.93443c-3.11083,-0.01515 -2.81569,2.90899 -2.81569,2.90899l0.35311,115.0668z" fill="#ffffff" stroke="#000000" stroke-width="2" stroke-linecap="butt"/><path d="M256.1425,200.33377c-0.57113,0 -1.03411,-0.46299 -1.03411,-1.03411c0,-0.57113 0.46299,-1.03413 1.03411,-1.03413c0.57113,0 1.03411,0.463 1.03411,1.03413c0,0.57113 -0.46299,1.03411 -1.03411,1.03411z" fill="#000000" stroke="none" stroke-width="1.5" stroke-linecap="butt"/><path d="M250.88263,204.56936c-4.4635,-0.31439 -6.55245,-1.79392 -6.16985,-2.58011c0.11788,-0.24224 2.84645,1.06355 6.97038,1.3048c6.40897,0.37493 8.51033,-0.63173 8.51033,-0.63173v1.34616c0,0 -2.4135,1.04672 -9.31086,0.56089z" fill="#000000" stroke="#000000" stroke-width="0" stroke-linecap="butt"/><path d="M223.06988,199.29966c0,-0.57113 0.46299,-1.03413 1.03411,-1.03413c0.57113,0 1.03413,0.463 1.03413,1.03413c0,0.57113 -0.463,1.03411 -1.03413,1.03411c-0.57113,0 -1.03411,-0.46299 -1.03411,-1.03411z" fill="#000000" stroke="none" stroke-width="1.5" stroke-linecap="butt"/><path d="M229.36386,204.56936c-6.89736,0.48585 -9.31086,-0.56089 -9.31086,-0.56089v-1.34616c0,0 2.10136,1.00666 8.51033,0.63173c4.12393,-0.24126 6.85251,-1.54704 6.97039,-1.3048c0.3826,0.78618 -1.70634,2.26571 -6.16985,2.58011z" fill="#000000" stroke="#000000" stroke-width="0" stroke-linecap="butt"/><path d="M240.64432,261.12113c-0.81895,0 -1.48284,-0.66389 -1.48284,-1.48284c0,-0.81895 0.66389,-1.48284 1.48284,-1.48284c0.81895,0 1.48284,0.66389 1.48284,1.48284c0,0.81895 -0.66389,1.48284 -1.48284,1.48284z" data-paper-data="{&quot;index&quot;:null}" fill="#000000" stroke="none" stroke-width="1.5" stroke-linecap="butt"/><path d="M216.58107,304.40602v-119.20147c0,0 0.75721,-9.73105 0.75721,-14.63937c0,-4.498 -0.75721,-13.6872 -0.75721,-13.6872c0,0 2.67319,-2.35297 4.6557,-3.74807c1.98251,-1.3951 5.17197,-2.80371 5.17197,-2.80371c0,0 -0.6016,40.10902 14.55952,40.03867c15.43477,-0.07162 13.83154,-40.03867 13.83154,-40.03867c0,0 3.91276,1.51959 6.16585,2.94655c2.25309,1.42695 4.75379,3.60523 4.75379,3.60523c0,0 -0.75721,9.42463 -0.75721,14.19201c0,4.84193 0.75721,14.63937 0.75721,14.63937v118.69667z" fill="#970000" stroke="#000000" stroke-width="2" stroke-linecap="butt"/><path d="M262.09056,100.13013c0,0 -3.57085,7.76555 -3.37369,8.61825c0.51711,2.23642 14.84701,37.32932 -18.27346,51.84729c-41.2106,17.17333 -49.23923,-18.63308 -54.08285,-24.08072c-6.64133,-7.46954 -12.09325,-13.94356 -12.09325,-13.94356c0,0 3.32643,0.89937 4.94319,1.42501c1.50792,0.49026 4.68854,1.53782 4.68854,1.53782c0,0 -6.66119,-8.50099 -8.78803,-18.7822c-2.01299,-9.39561 0.49322,-18.70107 0.49322,-18.70107l1.9336,1.76232c0,0 0.14807,-2.41968 0.7917,-3.89181c0.64365,-1.47213 2.1354,-3.96849 2.1354,-3.96849l1.44025,3.41399c0,0 2.54196,-12.83662 18.68847,-19.02331c15.27026,-5.72523 28.16954,0.40176 28.16954,0.40176l-0.8627,-2.51345c0,0 4.82914,1.64042 9.30324,6.77468c5.33261,6.11944 7.4923,10.21061 7.4923,10.21061c0,0 1.48256,-2.62298 4.3065,-4.6729c3.53856,-2.56865 6.33925,-2.86165 6.33925,-2.86165c0,0 -2.36443,3.84835 -3.45291,6.4815c-0.96953,2.3454 -1.22826,4.11114 -1.22826,4.11114c0,0 1.56494,-1.78028 3.34794,-3.05375c1.86034,-1.32873 3.55679,-1.96792 3.55679,-1.96792c0,0 -2.78827,6.50764 -2.56717,12.69217c0.20877,5.83918 2.05268,10.96622 2.05268,10.96622c0,0 1.02539,-1.11374 2.80871,-1.95785c1.13039,-0.53505 2.23103,-0.82405 2.23103,-0.82405z" fill="#000000" stroke="none" stroke-width="1.5" stroke-linecap="butt"/><path d="M195.54584,129.31299c-2.71279,-6.79449 -4.76443,-16.48298 -4.76443,-16.48298c0,0 3.24513,-1.05024 12.35717,-7.12698c7.00045,-4.66855 16.81218,-15.15091 16.81218,-15.15091c0,0 -1.17234,3.51022 -1.93276,5.26978c-0.8084,1.8706 -2.46111,5.54139 -2.46111,5.54139c0,0 6.99157,-3.91577 12.61368,-8.86623c7.13542,-5.91644 8.32251,-8.9206 11.00731,-8.22468c3.16871,0.82136 7.85484,21.83576 9.20455,27.2363c1.2776,5.53946 0.39615,9.82368 0.70217,12.89167c0.30602,3.068 1.42763,5.98229 2.64688,15.9729c0.76091,6.23483 -1.32966,9.75717 -5.22395,16.97169c-3.89427,7.21454 -5.90457,11.52044 -9.66602,12.75995c-3.61987,1.19288 -10.04579,-2.22262 -16.3865,-5.78564c-6.75182,-3.79406 -10.98863,-5.46583 -13.76621,-11.57993c-2.5015,-5.50639 -3.6784,-9.23316 -5.59164,-14.23046c-1.39834,-3.65238 -4.06982,-5.48526 -5.55133,-9.19586z" fill="#000000" stroke="#000000" stroke-width="1.5" stroke-linecap="butt"/><path d="M236.97446,100.62466c0,0 1.55008,-0.14801 4.39366,-0.20096c2.59728,-0.04836 4.76634,0.34694 4.76634,0.34694l0.53321,1.05995c0,0 -7.85157,-0.84063 -15.16887,2.12055c-5.85072,2.36771 -8.68196,5.63901 -8.68196,5.63901l-1.19426,-4.00271c0,0 2.48184,-2.55458 6.96036,-4.10288c4.63747,-1.60325 7.90253,-1.83334 7.90253,-1.83334z" data-paper-data="{&quot;index&quot;:null}" fill="#000000" stroke="none" stroke-width="1.5" stroke-linecap="butt"/><path d="M248.53361,143.0689c0.5704,0.21186 3.08357,1.39942 6.02385,2.59586c2.9637,1.20597 7.21362,2.29294 7.19412,2.4605c-0.02476,0.21265 -10.43477,0.22694 -13.67937,0.63224c-2.71902,0.33964 -6.68867,0.70564 -6.68867,0.70564c0,0 -7.10401,-1.16169 -13.27235,-2.44521c-4.94371,-1.02869 -10.39929,-1.66108 -10.40995,-1.75461c-0.01439,-0.12613 3.86835,-0.71071 6.82417,-1.39467c1.14585,-0.49661 5.43971,-1.48513 5.43971,-1.48513c0,0 4.95585,-0.27766 7.60826,0.579c2.84203,0.91791 2.83546,2.44556 3.0831,2.46906c0,0 1.18436,-1.74932 2.36886,-2.10461c1.18451,-0.35528 5.08219,-0.41633 5.50828,-0.25808z" fill="#000000" stroke="#000000" stroke-width="1.4" stroke-linecap="butt"/><path d="M229.88562,147.62249c5.09114,1.02674 11.91756,2.80736 11.91756,2.80736c0,0 5.78976,-1.55585 8.44678,-1.8344c2.05992,-0.21596 11.216,-0.70654 11.26026,-0.33377c0.04328,0.36447 -9.03119,12.90033 -21.14808,12.44714c-13.76954,-0.43578 -22.86459,-15.13559 -22.82675,-15.30472c0.03784,-0.16913 7.2591,1.19165 12.35024,2.2184z" fill="#000000" stroke="#000000" stroke-width="1.9" stroke-linecap="butt"/><path d="M230.65824,149.22805c-0.98731,0.30639 -4.34548,-2.06528 -5.20629,-4.00036c-0.7702,-1.73138 0.12146,-4.04577 2.48198,-4.77832c2.36054,-0.73255 4.15875,-0.77673 5.09035,2.80589c0.79061,3.04046 -0.00551,5.24025 -2.36604,5.97281z" fill="#000000" stroke="#000000" stroke-width="1.15" stroke-linecap="butt"/><path d="M225.17909,119.41888c0,0 1.27458,3.76099 2.11775,6.8047c1.66963,6.02708 7.19505,26.83388 7.19505,26.83388l-2.84514,0.89198c0,0 -2.00361,-3.74727 -3.88837,-8.74003c-2.5512,-6.75815 -5.25841,-15.42789 -6.54791,-18.52389c-1.22231,-2.93471 -2.54939,-5.19221 -2.54939,-5.19221" fill="#000000" stroke="#000000" stroke-width="1.3" stroke-linecap="round"/><path d="M200.16951,138.47761c0,0 -5.75291,-1.8972 -8.54728,-6.74477c-2.94023,-5.10058 -4.28021,-8.8624 -2.50293,-9.68528c1.77728,-0.82288 3.28624,1.46892 6.04143,6.87394c2.75518,5.40503 5.0088,9.5561 5.0088,9.5561z" data-paper-data="{&quot;index&quot;:null}" fill="#000000" stroke="#000000" stroke-width="1" stroke-linecap="butt"/><path d="M198.80601,134.76746c0,0 -4.27017,-1.73574 -6.62879,-6.79106c-1.31572,-2.82002 1.38403,-2.81694 1.38403,-2.81694" fill="#000000" stroke="#000000" stroke-width="0.25" stroke-linecap="round"/><path d="M199.71129,127.51749c-1.38215,-4.6931 1.97239,-9.9686 7.12708,-11.48671c5.15469,-1.5181 9.88079,1.38194 11.26296,6.07505c1.38215,4.6931 -1.33169,9.62141 -6.48637,11.13951c-5.15469,1.5181 -10.5215,-1.03475 -11.90367,-5.72785z" fill="#000000" stroke="#000000" stroke-width="1.4" stroke-linecap="butt"/><path d="M203.98448,126.31488c-0.77938,-2.64634 0.73411,-5.42339 3.38042,-6.20277c2.64634,-0.77938 5.42339,0.73411 6.20277,3.38042c0.77938,2.64634 -0.7341,5.42339 -3.38042,6.20277c-2.64634,0.77938 -5.42339,-0.73411 -6.20277,-3.38042z" fill="#000000" stroke="none" stroke-width="1.5" stroke-linecap="butt"/><path d="M225.55208,119.49904c-1.25441,-4.72886 1.62703,-9.78014 6.70593,-11.35628c5.07889,-1.57614 10.0333,1.03901 11.48334,5.71158c1.45005,4.67257 -1.02271,9.81517 -6.55427,11.60597c-5.26152,1.70338 -10.32496,-1.02268 -11.635,-5.96127z" fill="#000000" stroke="#000000" stroke-width="1.4" stroke-linecap="butt"/><path d="M229.97338,118.21655c-0.83535,-2.69181 0.6696,-5.55114 3.36141,-6.38649c2.69181,-0.83535 5.55114,0.6696 6.38649,3.36141c0.83535,2.69181 -0.6696,5.55114 -3.36141,6.38649c-2.69181,0.83535 -5.55114,-0.6696 -6.38649,-3.36141z" fill="#000000" stroke="none" stroke-width="1.5" stroke-linecap="butt"/><path d="M199.48819,127.02951c0,0 -2.61126,-8.62888 7.50919,-11.57042c9.09461,-2.64868 11.91437,6.1524 11.91437,6.1524z" fill="#000000" stroke="#000000" stroke-width="1.15" stroke-linecap="butt"/><path d="M225.07225,119.22702c0,0 -3.03906,-8.96005 7.9969,-12.01316c9.37662,-2.56071 11.97863,6.38905 11.97863,6.38905z" fill="#000000" stroke="#000000" stroke-width="1.15" stroke-linecap="butt"/><path d="M199.89211,116.42149c0,0 2.6791,-2.73598 6.99523,-4.55997c4.78282,-2.02122 7.39955,-2.36572 7.39955,-2.36572l1.50811,3.8641c0,0 -3.86493,0.48674 -7.81214,1.87871c-5.2789,1.86158 -5.92161,3.33801 -9.84756,5.03618c-3.36397,1.45507 -6.38743,2.14853 -6.38743,2.14853l-0.38975,-1.16854c0,0 3.45555,-0.99491 4.97828,-1.6165c1.2568,-0.51304 3.51902,-2.07428 3.51902,-2.07428z" fill="#000000" stroke="none" stroke-width="1.5" stroke-linecap="butt"/><path d="M248.8208,112.26908c-0.78888,-6.01523 -0.84252,-8.75867 1.08838,-9.08655c1.93089,-0.32788 2.95604,3.53164 3.42004,9.40067c0.44098,5.5779 -3.22711,10.39874 -3.22711,10.39874c0,0 -0.49241,-4.69763 -1.28131,-10.71286z" data-paper-data="{&quot;index&quot;:null}" fill="#000000" stroke="#000000" stroke-width="1" stroke-linecap="butt"/><path d="M248.0094,108.26248c0,0 2.22369,-1.53099 2.73566,1.53847c0.91778,5.50245 -1.61948,9.35076 -1.61948,9.35076" data-paper-data="{&quot;index&quot;:null}" fill="#000000" stroke="#000000" stroke-width="0.25" stroke-linecap="round"/><path d="M226.52629,118.12236c-0.71582,-2.31787 0.67965,-4.80897 3.11921,-5.56604c2.44154,-0.75768 5.0043,0.50838 5.7241,2.82783c0.08323,0.26819 0.13817,0.53871 0.16647,0.80863" fill="none" stroke="#ffffff" stroke-width="1" stroke-linecap="butt"/><path d="M200.48067,184.1659c0,-0.16796 0.04141,-0.32624 0.11457,-0.4652l0.45388,-0.90776c-0.00212,-0.00455 0.0212,-0.0558 0.06151,-0.13814c0.10459,-0.44039 0.23705,-0.85065 0.37192,-1.18597c0.20642,-0.51322 0.4538,-1.0401 0.73334,-1.57317c0.04681,-0.21414 0.09581,-0.4277 0.15617,-0.63811c0.64074,-2.23353 1.72137,-5.29569 3.29226,-7.6061c0.37232,-1.18781 0.65567,-2.37564 0.80503,-3.55698c0.41408,-0.59837 0.76459,-1.24408 1.04173,-1.92739c0.00615,-0.01253 0.01225,-0.02509 0.01832,-0.03768c0.98627,-1.79847 2.87888,-3.5034 4.35321,-4.88865c0.49543,-0.46551 0.45042,-1.3268 0.90495,-1.82914c2.51647,-2.17374 5.3721,-4.20542 6.89667,-5.10559c1.6936,-0.99998 3.39892,-1.94334 5.11849,-2.84227c0.17533,-0.06006 0.34817,-0.12918 0.51777,-0.20955c3.08843,-0.05105 5.88662,-0.48963 9.02441,-0.48963c2.77552,0 5.94268,0.42612 8.67247,0.00749c4.1239,-0.63243 8.70351,-1.85225 12.60417,0.09808c1.74735,0.87367 3.23616,1.69506 4.76626,2.86044c1.09922,0.83721 2.81406,0.98882 3.8254,1.95564c1.17753,1.12569 2.12136,2.5123 3.24014,3.70301c0.18652,0.19851 0.43659,0.31025 0.70164,0.40213c1.68946,2.03388 3.34751,3.86576 3.7864,4.36735c1.16798,1.33483 2.36,2.97753 3.63503,4.61539c-0.17055,0.51567 -0.76517,0.63459 -0.76517,0.63459c-2.96008,0.5841 -5.03143,2.15364 -7.5867,3.60062c-3.5138,1.98977 -7.57696,3.47514 -11.05406,5.52227c-2.55206,1.50251 -4.70205,3.74294 -7.43736,5.1106c-4.49992,2.99994 -9.24708,5.57384 -13.88629,8.33177c-3.10871,1.84808 -5.03493,4.37113 -8.38648,6.04691c-3.65503,1.76057 -5.37018,4.93198 -8.07188,7.68158l-0.92575,0.92575l-0.33858,-0.33857l-0.95324,0.44271c0.02552,-0.3639 0.06352,-0.71153 0.11093,-1.04813l-0.42065,-0.21033l0.46287,-0.92575l0.14168,0.07084c0.20696,-1.02817 0.47665,-2.00081 0.70525,-3.09351c0.32923,-1.57368 -0.17857,-3.19786 -0.46287,-4.63214c-0.70512,-3.55731 -0.60133,-7.79762 -1.58537,-11.09455c-0.12678,-0.42477 -0.7665,0.44621 -1.16006,0.65019c-0.51925,0.26913 -1.0512,0.5148 -1.59161,0.73844c-2.09799,5.06965 -1.55861,10.44645 -1.55861,15.95644c0,1.74518 0.39521,4.0973 -0.02676,5.78427c-0.33633,1.34463 -1.8682,2.41855 -2.58052,3.71749c-2.15333,1.18087 -3.31234,2.36796 -4.95863,4.01461l-0.39888,0.79776c-0.16035,0.33825 -0.50491,0.57217 -0.90412,0.57217c-0.55229,0 -1,-0.44771 -1,-1v-1.38863h0.32165c-0.1336,-1.77829 0.09575,-3.45748 -0.2949,-5.32476c-0.14805,-0.70768 -0.29075,-1.41414 -0.42757,-2.12009c0.97822,-4.46309 0.26077,-10.09317 0.29179,-16.4306c0.00554,-1.13108 0.23416,-2.31573 0.55129,-3.52986c-0.26677,-0.17959 -0.44226,-0.48437 -0.44226,-0.83014v-1.38863h0.11215l-0.0854,-0.22975c0.04543,-0.09087 0.08659,-0.18112 0.12404,-0.27087c-0.06097,-0.15472 -0.10616,-0.32228 -0.13768,-0.49901c-0.28561,-0.17606 -0.47599,-0.49174 -0.47599,-0.85188z" fill="#000000" stroke="none" stroke-width="0.5" stroke-linecap="butt"/><path d="M217.68134,211.01272c0,0 13.24293,-10.64261 22.32103,-16.50406c10.34979,-6.68254 36.46425,-21.45179 36.46425,-21.45179" fill="none" stroke="#000000" stroke-width="2.5" stroke-linecap="round"/><path d="M210.73819,215.17861l-9.25753,7.8689" fill="none" stroke="#000000" stroke-width="2.5" stroke-linecap="round"/><path d="M265.43183,211.4756l-0.10557,0.01566c1.11255,2.34795 0.05647,5.53178 -0.37021,8.01342c-0.36246,2.10814 0.01291,4.63766 0.01291,6.78296c0,9.8747 0,19.74938 0,29.62408c0,0 0,0.303 -0.16679,0.57542l0.07688,0.78188c-3.25137,1.62568 -6.55389,3.13086 -10.00743,4.25855c-2.44484,0.00929 -4.58533,1.04805 -6.98114,1.39405c-5.94204,0.85812 -14.71949,2.58396 -20.40911,-0.06802c-0.02106,-0.00926 -0.04238,-0.01927 -0.06396,-0.03006c-0.31063,-0.15531 -0.45944,-0.36457 -0.52136,-0.57157c-0.07466,-0.20275 -0.08117,-0.45944 0.07415,-0.77007c0.00679,-0.01358 0.01368,-0.02684 0.02067,-0.03981l0.5451,-1.04986c5.42648,-4.85213 9.75997,-10.22701 14.36735,-15.76066c2.37917,-2.85747 4.31101,-6.16251 6.94315,-8.79465c5.44251,-8.21884 10.31739,-16.5243 14.69095,-25.27141c0,0 0.44722,-0.89443 1.34164,-0.44721c0.61856,0.30928 0.59545,0.83245 0.52236,1.12575c0.03043,0.13408 0.03043,0.23155 0.03043,0.23155z" fill="#ec0000" stroke="none" stroke-width="0.5" stroke-linecap="butt"/><path d="M219.06996,231.9164c-0.09119,0 -0.17408,-0.00832 -0.2494,-0.02343c-0.19419,0.03515 -0.34751,0.01441 -0.34751,0.01441l-0.03566,-0.18684c-0.36743,-0.29114 -0.36743,-0.80414 -0.36743,-0.80414c0,-3.66034 0.30821,-7.35862 -0.87444,-10.7928l-0.03473,-0.84041c-0.24297,-0.12832 -0.47947,-0.37814 -0.47947,-0.86445c0,-1 1,-1 1,-1c2.58077,0.03317 4.5907,1.04788 7.10333,1.40154c3.64152,0.51257 7.72195,-0.01291 11.41172,-0.01291c2.56795,0 5.70229,0.34322 7.98483,-0.86363c1.9982,-0.49955 3.6219,-1.35475 5.45425,-2.27093l0.90776,-0.45388c0.13897,-0.07316 0.29725,-0.11457 0.4652,-0.11457c0.55229,0 1,0.44771 1,1c0,0.16796 -0.04141,0.32625 -0.11457,0.46521l-0.45387,0.90775l-0.05621,-0.0281c-0.03658,0.09859 -0.07974,0.19479 -0.13112,0.28799c-0.63494,1.15168 -4.60071,2.35773 -5.8144,2.96458c-4.37603,2.18802 -8.51884,4.70779 -12.96053,6.94314c-3.79731,1.89865 -8.2827,2.91599 -12.61155,3.9028c-0.14252,0.19932 -0.38468,0.36866 -0.7962,0.36866z" fill="#ec0000" stroke="none" stroke-width="0.5" stroke-linecap="butt"/><path d="M264.43182,303.12509l-47.21337,0.46288l0.46288,-24.99532l46.7505,-13.88629z" fill="#ec0000" stroke="#ec0000" stroke-width="0.5" stroke-linecap="round"/></g></g></svg>