<svg version="1.1" xmlns="http://www.w3.org/2000/svg" xmlns:xlink="http://www.w3.org/1999/xlink" width="35.67311" height="35.67311" viewBox="0,0,35.67311,35.67311"><defs><linearGradient x1="222.91345" y1="180.00001" x2="257.08655" y2="180.00001" gradientUnits="userSpaceOnUse" id="color-1"><stop offset="0" stop-color="#9a0000"/><stop offset="1" stop-color="#000000"/></linearGradient></defs><g transform="translate(-222.16344,-162.16344)"><g data-paper-data="{&quot;isPaintingLayer&quot;:true}" stroke-miterlimit="10" stroke-dasharray="" stroke-dashoffset="0" style="mix-blend-mode: normal"><path d="M229.98311,162.91345h20.03379c3.9166,0 7.06966,3.15307 7.06966,7.06966v20.03379c0,3.91659 -3.15306,7.06966 -7.06966,7.06966h-20.03379c-3.91659,0 -7.06966,-3.15307 -7.06966,-7.06966v-20.03379c0,-3.91659 3.15307,-7.06966 7.06966,-7.06966z" fill="url(#color-1)" fill-rule="evenodd" stroke="#ffffff" stroke-width="1.5" stroke-linecap="round" stroke-linejoin="round"/><g fill-rule="nonzero" stroke-linecap="butt" stroke-linejoin="miter"><path d="M230.6366,177.21319c0.02548,-0.6579 0.14877,-1.35325 0.3785,-2.10002c1.26727,-4.40474 8.74023,-5.73853 11.86028,-2.13562c-0.84736,0.79942 -0.85521,2.36266 -0.78831,3.54902c0.0371,0.65797 0.31358,1.59704 0.70564,2.63157c-1.62211,1.66702 -4.36562,2.97776 -6.07972,4.63583c-0.76822,-0.04665 -1.55218,-0.09631 -2.32039,-0.14295c-1.18289,-1.92842 -1.93374,-3.74242 -1.34323,-4.17173c0,0 1.05922,-1.28126 -0.19708,-2.34759c-1.02046,-0.86616 -1.82085,-0.20044 -2.12096,0.08025z" data-paper-data="{&quot;noHover&quot;:false,&quot;origItem&quot;:[&quot;Path&quot;,{&quot;applyMatrix&quot;:true,&quot;segments&quot;:[[[474.53133,328.84799],[0,0],[1.13975,0.3737]],[[477.85012,334.40409],[0.78317,-3.82774],[-0.96413,4.71234]],[[472.17362,338.15238],[0,0],[-1.92793,-0.90808]],[[463.40177,347.36096],[3.27322,-5.73531],[0.9596,2.03124]],[[466.28055,353.45476],[-0.95957,-2.03129],[6.65022,2.0574]],[[486.53557,362.42901],[-6.54393,-1.80944],[2.09658,-2.45623]],[[492.22227,356.95075],[-1.63155,1.01905],[2.94178,-1.8374]],[[502.3674,354.03402],[-3.23573,-1.04551],[4.83727,-13.04405]],[[480.3916,326.88301],[13.05102,-2.94366],[-2.23354,0.46099]],[[474.53127,328.84796],[1.71926,-0.8588],[0,0]]],&quot;closed&quot;:true,&quot;fillColor&quot;:[0,0,0,1]}]}" fill="#000000" stroke="none" stroke-width="0.5"/><path d="M232.55633,186.79594c0,0 -1.6448,-0.09985 -1.54495,-1.74465c0.00527,-0.08682 0.01483,-0.16881 0.02827,-0.24618c-0.46331,-0.64612 -0.88226,-1.27907 -1.23257,-1.87246l-1.52641,-1.01347c-0.9738,-2.7197 -1.17919,-4.93379 -0.38159,-7.72363c2.26539,-7.51876 15.46381,-9.35108 18.80615,-1.1675c0.11671,0.28574 0.20927,0.57506 0.27939,0.86671c0.40407,0.46773 0.735,0.95604 0.97224,1.32615c1.9923,3.1083 2.37678,7.23098 3.4993,10.68675c1.53275,2.67503 2.12729,5.89783 -2.24852,6.21782c-2.10134,0.15367 -2.79032,-1.84106 -3.99429,-2.67634c-0.6273,0.22637 -1.2914,0.42924 -1.95707,0.60437c-1.22925,1.07424 -3.00906,2.67299 -4.82148,2.18655c-1.11836,-0.30017 -3.66052,-2.75203 -5.86372,-5.44324c-0.00494,-0.0003 -0.00986,-0.0006 -0.0148,-0.00089zM230.68398,177.21256c0.30011,-0.28069 1.19523,-0.94701 2.21569,-0.08085c1.25629,1.06633 0.18999,2.32264 0.18999,2.32264c-0.59051,0.42931 0.13671,2.22389 1.3196,4.15231c0.76821,0.04664 1.53642,0.09328 2.30464,0.13993c1.7141,-1.65807 4.41187,-2.93671 6.03398,-4.60373c-0.39206,-1.03453 -0.67075,-1.9529 -0.70785,-2.61087c-0.06689,-1.18636 -0.05101,-2.72818 0.79635,-3.5276c-3.12005,-3.6029 -10.50925,-2.28046 -11.77651,2.12428c-0.22973,0.74677 -0.35041,1.42599 -0.37589,2.08389zM249.15448,188.82681c0.08397,0.0192 0.1134,-0.02839 0.07315,-0.16418c-0.02131,0.05585 -0.0457,0.11067 -0.07315,0.16418z" fill="#ffffff" stroke="#000000" stroke-width="1.5"/><path d="M243.57823,172.27514c2.34424,2.79775 5.12826,10.80291 2.39159,12.61509c-0.49466,0.32755 -6.09537,1.60289 -6.6617,1.76344c-2.56684,0.72766 -6.73005,-3.74135 -8.65054,-6.03339c-2.34424,-2.79775 -2.02612,-6.53483 0.71051,-8.347c2.73663,-1.81216 9.86591,-2.7959 12.21015,0.00185z" fill="#000000" stroke="none" stroke-width="0"/><path d="M246.125,187.87501c0,-1.38071 1.11929,-2.5 2.5,-2.5c1.38071,0 2.5,1.11929 2.5,2.5c0,1.38071 -1.11929,2.5 -2.5,2.5c-1.38071,0 -2.5,-1.11929 -2.5,-2.5z" fill="#ffffff" stroke="none" stroke-width="0.5"/><path d="M232.15,183.55001c0.45,-0.6 1.05,-0.15 1.05,-0.15l0.51852,0.38935c0.20833,0.16667 0.41667,0.33333 0.625,0.5c0,0 0.58565,0.46852 0.11713,1.05417c-0.46852,0.58565 -1.05417,0.11713 -1.05417,0.11713c-0.20833,-0.16667 -0.41667,-0.33333 -0.625,-0.5l-0.48148,-0.36065c0,0 -0.6,-0.45 -0.15,-1.05z" fill="#ffffff" stroke="none" stroke-width="0.5"/></g></g></g></svg>