<svg version="1.1" xmlns="http://www.w3.org/2000/svg" xmlns:xlink="http://www.w3.org/1999/xlink" width="100.35474" height="276.16349" viewBox="0,0,100.35474,276.16349"><defs><radialGradient cx="253.80442" cy="125.61316" r="9.25" gradientUnits="userSpaceOnUse" id="color-1"><stop offset="0" stop-color="#000000"/><stop offset="1" stop-color="#000000" stop-opacity="0"/></radialGradient><radialGradient cx="222.06054" cy="110.63935" r="8.85714" gradientUnits="userSpaceOnUse" id="color-2"><stop offset="0" stop-color="#970000"/><stop offset="1" stop-color="#ec0000"/></radialGradient></defs><g transform="translate(-191.44531,-30.06792)"><g data-paper-data="{&quot;isPaintingLayer&quot;:true}" fill-rule="nonzero" stroke-linejoin="miter" stroke-miterlimit="10" stroke-dasharray="" stroke-dashoffset="0" style="mix-blend-mode: normal"><path d="M201.54534,304.3916c0,0 -0.63536,-94.38387 -0.79335,-118.01201c-0.05451,-8.15261 8.18688,-36.76129 40.20201,-36.9211c31.60235,-0.15775 39.85672,29.48704 39.84884,36.89673c-0.07659,46.24274 0.65429,117.98648 0.65429,117.98648l-10.49667,0.09614l-0.15882,-114.84311c0,0 0.07549,-3.0993 -2.81625,-3.15415c-3.43441,-0.06514 -2.94538,3.11562 -2.94538,3.11562l0.20548,114.86995l-48.21366,0.07222l-0.30539,-115.23309c0,0 0.27949,-2.919 -2.8856,-2.93443c-3.11083,-0.01515 -2.81569,2.90899 -2.81569,2.90899l0.35311,115.0668z" fill="#ffffff" stroke="#000000" stroke-width="2" stroke-linecap="butt"/><path d="M196.83161,304.97069c0,0 0.99042,-98.07645 2.59728,-127.96137c0.15865,-2.95066 1.64365,-6.54321 1.78539,-7.97605c0.33879,-3.4246 9.61733,-5.58042 9.61733,-5.58042l60.66666,-1.31951c0,0 7.47128,3.81093 7.97768,6.59304c0.04293,0.23585 1.892,5.54052 2.17287,10.49682c1.67151,29.49653 5.16354,126.13141 5.16354,126.13141l-47.31409,-0.05404z" fill="#111111" stroke="none" stroke-width="0" stroke-linecap="butt"/><path d="M276.83162,305.63333c0,0 3.65383,-1.70182 4.12339,-10.56341c1.36812,-25.81943 0.66829,-82.63679 0.32656,-100.77047c-0.2068,-10.97396 -9.11662,-31.49944 -9.11662,-31.49944c0,0 9.40019,5.70734 9.83104,8.64093c1.50716,10.26189 3.16896,67.58104 3.16896,67.58104v66.61137z" data-paper-data="{&quot;index&quot;:null}" fill="#070707" stroke="none" stroke-width="0" stroke-linecap="butt"/><path d="M196.63161,305.8v-66.68618c0,0 1.6618,-57.38352 3.16896,-67.65694c0.43086,-2.93688 7.83104,-7.32354 7.83104,-7.32354c0,0 -6.90983,19.22144 -7.11662,30.20773c-0.34172,18.15405 -1.04156,75.03523 0.32656,100.88365c0.46956,8.87155 4.12339,10.57528 4.12339,10.57528z" fill="#070707" stroke="none" stroke-width="0" stroke-linecap="butt"/><path d="M266.94531,305.13333c0.56516,-2.44354 -0.51563,-4.79058 -0.09136,-6.7151c0.45292,-2.05451 -0.94379,-5.00517 -0.73197,-7.45157l23.62509,0.5c0,0 1.66667,3.0802 1.66667,4.85926c0,0.58533 -1.85566,1.78556 -1.72174,2.77689c0.18536,1.37225 2.35073,2.62244 2.08558,3.78404c-0.36665,1.60625 -2.0305,2.24647 -2.0305,2.24647z" data-paper-data="{&quot;index&quot;:null}" fill="#f0f0f0" stroke="#000000" stroke-width="0" stroke-linecap="butt"/><path d="M266.80463,305.39111c0,0 0.16197,-6.22846 0.2849,-8.62396c0.08484,-1.65332 -0.45156,-4.36715 -0.45156,-4.36715c0,0 4.53946,7.53164 6.85245,7.64584c3.91528,0.19332 15.64755,-0.09695 15.64755,-0.09695c0,0 1.67957,1.99263 2.03166,2.93407c0.3693,0.98747 -1.03166,2.68371 -1.03166,2.68371c0,0 -7.56128,0.44311 -11.40571,0.41419c-3.9314,-0.02958 -11.92763,-0.58974 -11.92763,-0.58974z" data-paper-data="{&quot;index&quot;:null}" fill="#d1d1d1" stroke="none" stroke-width="0" stroke-linecap="butt"/><path d="M193.49828,305.8c0,0 -1.66384,-0.64021 -2.0305,-2.24647c-0.26515,-1.1616 1.90021,-2.4118 2.08558,-3.78404c0.13391,-0.99133 -1.72174,-2.19156 -1.72174,-2.77689c0,-1.77905 1.66666,-4.85926 1.66666,-4.85926h21.62509c0.21183,2.4464 0.81511,4.89705 1.26803,6.95156c0.42427,1.92452 0.84348,4.27156 1.40864,6.7151z" fill="#f0f0f0" stroke="#000000" stroke-width="0" stroke-linecap="butt"/><path d="M193.23161,305.4c0,0 -1.40097,-1.61036 -1.03166,-2.54783c0.35209,-0.89378 2.03166,-2.78551 2.03166,-2.78551c0,0 11.73226,0.27557 15.64754,0.09204c2.31299,-0.10842 5.01912,-7.25871 5.01912,-7.25871c0,0 0.46359,2.40976 0.54843,3.97936c0.12293,2.27421 0.11823,8.35397 0.11823,8.35397z" fill="#d1d1d1" stroke="none" stroke-width="0" stroke-linecap="butt"/><path d="M256.1425,200.33378c-0.57113,0 -1.03411,-0.46299 -1.03411,-1.03411c0,-0.57113 0.46299,-1.03413 1.03411,-1.03413c0.57113,0 1.03411,0.463 1.03411,1.03413c0,0.57113 -0.46299,1.03411 -1.03411,1.03411z" fill="#000000" stroke="none" stroke-width="1.5" stroke-linecap="butt"/><path d="M250.88263,204.56937c-4.4635,-0.31439 -6.55245,-1.79392 -6.16985,-2.58011c0.11788,-0.24224 2.84645,1.06355 6.97038,1.3048c6.40897,0.37493 8.51033,-0.63173 8.51033,-0.63173v1.34616c0,0 -2.4135,1.04672 -9.31086,0.56089z" fill="#000000" stroke="#000000" stroke-width="0" stroke-linecap="butt"/><path d="M223.06988,199.29967c0,-0.57113 0.46299,-1.03413 1.03411,-1.03413c0.57113,0 1.03413,0.463 1.03413,1.03413c0,0.57113 -0.463,1.03411 -1.03413,1.03411c-0.57113,0 -1.03411,-0.46299 -1.03411,-1.03411z" fill="#000000" stroke="none" stroke-width="1.5" stroke-linecap="butt"/><path d="M229.36386,204.56937c-6.89736,0.48585 -9.31086,-0.56089 -9.31086,-0.56089v-1.34616c0,0 2.10136,1.00666 8.51033,0.63173c4.12393,-0.24126 6.85251,-1.54704 6.97039,-1.3048c0.3826,0.78618 -1.70634,2.26571 -6.16985,2.58011z" fill="#000000" stroke="#000000" stroke-width="0" stroke-linecap="butt"/><path d="M240.64432,261.12113c-0.81895,0 -1.48284,-0.66389 -1.48284,-1.48284c0,-0.81895 0.66389,-1.48284 1.48284,-1.48284c0.81895,0 1.48284,0.66389 1.48284,1.48284c0,0.81895 -0.66389,1.48284 -1.48284,1.48284z" data-paper-data="{&quot;index&quot;:null}" fill="#000000" stroke="none" stroke-width="1.5" stroke-linecap="butt"/><path d="M216.58107,304.40603v-119.20147c0,0 0.75721,-9.73105 0.75721,-14.63937c0,-4.498 -0.75721,-13.6872 -0.75721,-13.6872c0,0 2.67319,-2.35297 4.6557,-3.74807c1.98251,-1.3951 5.17197,-2.80371 5.17197,-2.80371c0,0 -0.6016,32.60902 14.55952,32.53867c15.43477,-0.07162 13.83154,-32.53867 13.83154,-32.53867c0,0 3.91276,1.51959 6.16585,2.94655c2.25309,1.42695 4.75379,3.60523 4.75379,3.60523c0,0 -0.75721,9.42463 -0.75721,14.19201c0,4.84193 0.75721,14.63937 0.75721,14.63937v118.69667z" fill="#000000" stroke="#000000" stroke-width="2" stroke-linecap="butt"/><path d="M256.89828,176.48333c0,5.20068 -7.42461,9.41667 -16.58333,9.41667c-9.15872,0 -16.58334,-4.21599 -16.58334,-9.41667c0,-5.20068 7.42462,-9.41666 16.58334,-9.41666c9.15872,0 16.58333,4.21598 16.58333,9.41666z" fill="#e6e6e6" stroke="none" stroke-width="0" stroke-linecap="butt"/><path d="M270.56494,167.81667c0,5.20068 -5.96954,9.41667 -13.33333,9.41667c-7.3638,0 -13.33333,-4.21599 -13.33333,-9.41667c0,-5.20068 5.96954,-9.41666 13.33333,-9.41666c7.36379,0 13.33333,4.21598 13.33333,9.41666z" fill="#ffffff" stroke="none" stroke-width="0" stroke-linecap="butt"/><path d="M235.56494,166.48333c0,5.20068 -5.96954,9.41667 -13.33333,9.41667c-7.3638,0 -13.33333,-4.21599 -13.33333,-9.41667c0,-5.20068 5.96954,-9.41666 13.33333,-9.41666c7.3638,0 13.33333,4.21598 13.33333,9.41666z" fill="#ffffff" stroke="none" stroke-width="0" stroke-linecap="butt"/><path d="M226.89828,157.14999c0,5.20068 -4.62639,9.41667 -10.33333,9.41667c-5.70694,0 -10.33334,-4.21599 -10.33334,-9.41667c0,-5.20068 4.6264,-9.41666 10.33334,-9.41666c5.70694,0 10.33333,4.21598 10.33333,9.41666z" fill="#e6e6e6" stroke="none" stroke-width="0" stroke-linecap="butt"/><path d="M274.06494,157.64999c0,5.20068 -4.62639,9.41667 -10.33333,9.41667c-5.70694,0 -10.33333,-4.21599 -10.33333,-9.41667c0,-5.20068 4.6264,-9.41666 10.33333,-9.41666c5.70694,0 10.33333,4.21598 10.33333,9.41666z" fill="#e6e6e6" stroke="none" stroke-width="0" stroke-linecap="butt"/><path d="M200.74661,92.88898c0.32181,-2.27063 1.99108,-40.67317 36.54472,-42.07382c42.68232,-0.91362 37.30697,35.34872 39.71282,42.1903c0.34925,0.99317 2.91653,7.36772 4.61892,14.43586c2.3574,9.78768 -0.62612,23.65537 -0.62612,23.65537l-3.80905,-9.56768l-0.65583,3.79177c0,0 -0.08415,9.96626 -2.52355,14.56707c-2.60901,4.9207 -6.5297,8.65836 -6.5297,8.65836l1.04685,-8.84735l-7.26613,8.24547l-1.04424,-5.20421c0,0 -3.88237,10.51795 -20.41601,10.37154c-15.59242,-0.25547 -21.31153,-9.6752 -21.31153,-9.6752l-0.69695,4.65484l-7.1052,-7.03301l-0.68447,8.57645c0,0 -7.08518,-11.24775 -7.59758,-12.75098c-1.03564,-3.03826 -1.97781,-20.44815 -1.97781,-20.44815c0,0 -1.21629,1.14063 -2.00633,1.39436c-1.14,0.36613 -4.17748,0.59166 -4.17748,0.59166c0,0 3.09334,-4.01691 4.38354,-9.06234c1.84543,-7.2167 2.0936,-16.27616 2.12112,-16.4703z" fill="#000000" stroke="none" stroke-width="1.5" stroke-linecap="butt"/><path d="M211.88388,110.49821c-0.57709,-7.29323 0.335,-17.15448 0.335,-17.15448c0,0 1.42995,3.67791 2.24568,4.82329c0.53795,0.75535 -0.02759,2.38021 -0.02759,2.38021c0,0 2.09431,-1.41292 4.05717,-4.0196c2.11983,-2.81513 6.04173,-5.85626 7.63903,-6.32814c2.08529,-0.61604 2.84755,3.01046 2.84755,3.01046c0,0 4.94857,-4.97659 7.77824,-6.9746c3.05323,-2.15587 9.92151,-5.52308 9.92151,-5.52308c0,0 -2.16005,3.00503 -3.40781,4.46015c-1.32651,1.54696 -3.32625,22.56297 -3.32625,22.56297c0,0 10.338,-17.66761 17.17476,-20.72931c0.58887,-0.49385 3.79197,-1.38004 6.14539,-0.49793c2.58243,0.96795 4.30503,3.73856 4.30503,3.73856c0,0 0.36339,13.34937 0.05179,18.90729c-0.42163,5.66922 -2.53327,9.49969 -3.15031,12.52053c-0.61704,3.02084 -0.4096,6.13662 -2.20622,16.0397c-1.12121,6.18021 -4.16183,8.92466 -10.01942,14.66081c-5.85759,5.73616 -9.05378,9.25275 -13.01359,9.32173c-3.81077,0.06639 -8.93565,-5.1002 -13.93542,-10.38244c-5.32393,-5.62474 -8.87489,-8.47713 -9.71551,-15.13975c-0.29683,-2.35264 -2.75202,0.99099 -3.44781,-0.80542c-1.54141,-3.97968 2.53557,-11.19676 2.32515,-14.44293c-0.25298,-3.90273 -2.26119,-6.44504 -2.57636,-10.42801z" fill="#ffffff" stroke="#000000" stroke-width="1.5" stroke-linecap="butt"/><path d="M260.60535,94.6535c0,0 1.38959,0.70261 3.82207,2.1763c2.22179,1.34606 3.8446,2.83856 3.8446,2.83856l-0.11519,1.1809c0,0 -6.18948,-4.9035 -13.9574,-6.30732c-6.21105,-1.12244 -10.35169,0.1315 -10.35169,0.1315l1.12772,-4.02197c0,0 3.46252,-0.83454 8.07582,0.24793c4.77704,1.1209 7.66047,2.66991 7.66047,2.66991z" data-paper-data="{&quot;index&quot;:null}" fill="#000000" stroke="none" stroke-width="1.5" stroke-linecap="butt"/><path d="M213.58352,120.62143c0,0 -2.12718,2.21934 -3.50091,1.07456c-0.37055,-0.30879 0.24097,-3.48953 -0.14817,-3.87393c-0.73782,-0.72882 -1.47799,-1.59061 -2.10271,-2.57422c-0.62652,-0.98645 -1.13692,-2.09542 -1.41238,-3.31571c-1.29636,-5.74284 -0.46118,-10.01852 1.48013,-10.27765c1.94131,-0.25915 2.70321,2.37692 3.73262,8.35569c1.0294,5.97877 1.95143,10.61127 1.95143,10.61127z" data-paper-data="{&quot;index&quot;:null}" fill="#ffffff" stroke="#000000" stroke-width="1" stroke-linecap="butt"/><path d="M213.38093,116.67387c0,0 -1.11268,1.66826 -1.94588,1.00617c-0.40417,-0.32117 -0.36023,-2.72007 -0.82341,-3.19654c-1.34636,-1.38499 -2.75292,-3.42542 -3.12029,-6.11738c-0.42079,-3.08327 3.72818,-2.42301 3.72818,-2.42301" fill="none" stroke="#000000" stroke-width="0.25" stroke-linecap="round"/><path d="M243.4506,112.8073c0.20353,-6.42694 4.45264,-11.64706 9.77048,-11.64706c5.31783,0 9.27453,5.21456 9.27453,11.64706c0,6.4325 -3.88585,11.92655 -9.69964,12.01969c-5.52997,0.08861 -9.55792,-5.30772 -9.34537,-12.01969z" fill="#ffffff" stroke="#000000" stroke-width="1.4" stroke-linecap="butt"/><path d="M248.05336,112.35425c0,-4.06109 2.2848,-7.35325 5.10325,-7.35325c2.81845,0 5.10325,3.29216 5.10325,7.35325c0,4.06109 -2.28479,7.35325 -5.10325,7.35325c-2.81845,0 -5.10325,-3.29216 -5.10325,-7.35325z" fill="#000000" stroke="none" stroke-width="1.5" stroke-linecap="butt"/><path d="M219.82843,97.07723c0,0 3.15419,-2.17123 7.74007,-3.13335c5.08173,-1.06617 10.54927,4.93105 10.54927,4.93105l-1.76116,2.08164c0,0 -4.21986,-4.09706 -8.36078,-3.48815c-5.53797,0.81432 -6.45197,2.14004 -10.63077,3.05353c-3.58062,0.78273 -6.68096,0.8833 -6.68096,0.8833l-0.15833,-1.2216c0,0 3.58223,-0.31354 5.19592,-0.63147c1.33188,-0.26242 3.85159,-1.36069 3.85159,-1.36069z" fill="#000000" stroke="none" stroke-width="1.5" stroke-linecap="butt"/><path d="M267.81668,110.01016c1.0294,-5.97877 1.7913,-8.61483 3.73262,-8.35569c1.94131,0.25914 3.77649,3.96337 2.48013,9.70622c-1.23206,5.45797 -8.16417,9.26074 -8.16417,9.26074c0,0 0.92203,-4.6325 1.95143,-10.61127z" data-paper-data="{&quot;index&quot;:null}" fill="#ffffff" stroke="#000000" stroke-width="1" stroke-linecap="butt"/><path d="M268.22925,105.9431c0,0 4.43469,-1.08884 4.01389,1.99444c-0.75431,5.52723 -6.1753,8.73632 -6.1753,8.73632" data-paper-data="{&quot;index&quot;:null}" fill="none" stroke="#000000" stroke-width="0.25" stroke-linecap="round"/><path d="M253.10685,121.24153c7.05642,0.01774 10.08403,-10.40504 10.08403,-10.40504c0,0 -0.08453,13.82431 -9.55554,14.07242c-10.53754,0.28456 -10.60111,-13.20131 -10.60111,-13.20131c0,0 2.91553,9.51595 10.07262,9.53392z" data-paper-data="{&quot;index&quot;:null}" fill="#000000" stroke="#000000" stroke-width="1.15" stroke-linecap="butt"/><path d="M243.15923,108.7715c0,0 0.06357,-9.01512 10.60111,-8.8249c9.47101,0.16586 9.55554,9.40723 9.55554,9.40723c0,0 -3.59904,-4.44108 -10.65546,-4.42922c-7.15709,0.01203 -9.50119,3.84689 -9.50119,3.84689z" fill="#000000" stroke="#000000" stroke-width="1.15" stroke-linecap="butt"/><g stroke="none" stroke-linecap="butt"><path d="M262.62836,141.89218c0,0 -2.51425,13.02838 -9.37912,19.20266c-2.88194,2.59205 -7.1563,3.22873 -13.68026,3.26461c-5.06926,0.02784 -9.88657,-1.26288 -12.95103,-3.20557c-10.30894,-6.53521 -9.81652,-21.88876 -9.81652,-21.88876c0,0 9.68669,-5.99941 15.46417,-5.66821c4.01952,-0.77909 7.89125,4.19261 7.89125,4.19261c0,0 3.24043,-4.72604 7.47486,-3.49124c8.38561,2.19858 14.99665,7.59384 14.99665,7.59384z" fill="#000000" stroke-width="0"/><path d="M227.1502,136.79553c5.35093,-2.06875 5.70892,-1.98151 8.22195,-0.37724c1.84142,1.24545 5.86849,3.68156 5.13193,4.44152c-0.38994,0.42221 -16.89424,-0.79872 -19.14728,-1.49535c-1.77648,-0.54888 -1.84374,-0.57234 -0.19727,-0.65675c0.93155,-0.06328 3.62926,-1.00448 5.99061,-1.91218z" data-paper-data="{&quot;noHover&quot;:false,&quot;origItem&quot;:[&quot;Path&quot;,{&quot;applyMatrix&quot;:true,&quot;segments&quot;:[[[356.58247,303.92478],[0,0],[-0.85156,0.32734]],[[354.44185,304.549],[0.33594,-0.02282],[-0.59374,0.03044]],[[354.51217,304.77738],[-0.64064,-0.19794],[0.8125,0.25122]],[[360.34811,305.42444],[-0.14062,0.15226],[0.26562,-0.27406]],[[359.37155,303.7573],[0.66406,0.44914],[-0.90626,-0.57856]],[[356.58249,303.92478],[1.92968,-0.74604],[0,0]]],&quot;closed&quot;:true,&quot;fillColor&quot;:[0,0,0,1]}]}" fill="#ec0000" stroke-width="0.5"/><path d="M239.53083,139.91791c2.77296,-3.23086 7.79791,-4.41281 13.60378,-1.71084c2.0581,0.97104 4.36443,1.92016 5.16598,1.92016c3.42289,0.21108 -4.95385,1.40079 -10.10979,1.40079c-12.67334,-0.97658 -8.65997,-1.61012 -8.65997,-1.61012z" data-paper-data="{&quot;noHover&quot;:false,&quot;origItem&quot;:[&quot;Path&quot;,{&quot;applyMatrix&quot;:true,&quot;segments&quot;:[[[362.06679,304.89918],[0,0],[0,0.62422]],[[364.16055,305.50058],[-2.07032,0.02282],[1.85938,0]],[[367.63711,305.05144],[1.23438,0.07612],[-0.28906,0]],[[365.77773,304.40438],[0.7422,0.35018],[-2.09374,-0.9744]],[[362.06679,304.8992],[0,-1.24846],[0,0]]],&quot;closed&quot;:true,&quot;fillColor&quot;:[0,0,0,1]}]}" fill="#ec0000" stroke-width="0.5"/><path d="M226.77191,142.45975c0.73656,0.21108 7.21892,0.60728 13.7614,0.88164c11.35186,0.42221 11.74695,0.56779 8.38905,1.39103c-6.41249,1.51986 -18.77154,0.43497 -22.41106,-2.05593c-0.86655,-0.61216 -0.31512,-0.5532 0.81137,-0.15212z" data-paper-data="{&quot;noHover&quot;:false,&quot;origItem&quot;:[&quot;Path&quot;,{&quot;applyMatrix&quot;:true,&quot;segments&quot;:[[[356.46525,305.91924],[0,0],[-0.40624,-0.14464]],[[356.37151,305.99536],[-0.3125,-0.22076],[1.3125,0.89828]],[[364.25433,306.71856],[-2.3125,0.5481],[1.21094,-0.29688]],[[361.23089,306.24658],[4.09376,0.15226],[-2.35938,-0.09896]],[[356.46527,305.91924],[0.26562,0.07612],[0,0]]],&quot;closed&quot;:true,&quot;fillColor&quot;:[0,0,0,1]}]}" fill="#ffffff" stroke-width="0.5"/><path d="M230.08794,148.61394c1.10486,0.27442 4.84919,0.50607 8.29371,0.71715c3.68283,0.21108 7.89663,0.17641 9.41311,-0.30908c3.24958,-0.88663 3.64174,-0.51062 1.25871,1.15704c-3.63951,2.4909 -16.32506,1.89765 -19.63964,-0.84653c-1.25654,-1.11883 -1.25404,-1.14085 0.67406,-0.71864z" data-paper-data="{&quot;noHover&quot;:false,&quot;origItem&quot;:[&quot;Path&quot;,{&quot;applyMatrix&quot;:true,&quot;segments&quot;:[[[357.66061,308.1422],[0,0],[-0.69532,-0.15226]],[[357.41843,308.39342],[-0.45314,-0.40348],[1.19532,0.98962]],[[364.30125,308.6903],[-1.3125,0.89828],[0.85938,-0.6014]],[[363.84813,308.28684],[1.17188,-0.31974],[-0.54688,0.17508]],[[360.63719,308.4391],[1.32812,0.07612],[-1.24218,-0.07612]],[[357.66063,308.14222],[0.39844,0.09896],[0,0]]],&quot;closed&quot;:true,&quot;fillColor&quot;:[0,0,0,1]}]}" fill="#ffffff" stroke-width="0.5"/><path d="M218.48147,140.57153c0.195,0 1.81546,0.88546 3.00695,1.56096c1.12654,0.75991 3.31148,3.07776 4.76296,5.14646c3.89945,5.53062 5.19326,5.94779 13.59879,5.94779c8.12396,0 9.58702,-0.37169 13.00986,-5.20575c2.18804,-3.10306 6.20407,-5.90547 6.94063,-5.0611c0.51993,0.48555 -1.0428,6.53976 -2.49428,9.51615c-1.51643,3.25086 -5.03643,6.73559 -8.19933,8.10771c-3.0979,1.39325 -14.24706,1.6234 -18.4715,0.44129c-5.35099,-1.51986 -8.33731,-5.88723 -11.30527,-16.12524c-0.67156,-2.3431 -1.04391,-4.3281 -0.84897,-4.3281z" data-paper-data="{&quot;noHover&quot;:false,&quot;origItem&quot;:[&quot;Path&quot;,{&quot;applyMatrix&quot;:true,&quot;segments&quot;:[[[353.46525,305.2722],[0,0],[-0.07032,0]],[[353.77775,306.81754],[-0.24218,-0.84498],[1.07032,3.69208]],[[357.82463,312.52694],[-1.9297,-0.5481],[1.52344,0.4263]],[[364.34807,312.37468],[-1.11718,0.50244],[1.14062,-0.49482]],[[367.27775,309.51236],[-0.54686,1.17234],[0.52344,-1.07336]],[[368.18401,306.12478],[0.1875,0.1751],[-0.26562,-0.3045]],[[365.87151,307.89088],[0.78906,-1.11904],[-1.23438,1.74328]],[[361.11369,309.88536],[2.9297,0],[-3.03124,0]],[[356.08245,307.61682],[1.40624,1.99448],[-0.52344,-0.74602]],[[354.37151,305.74414],[0.40626,0.27404],[-0.42968,-0.2436]],[[353.46525,305.27216],[0.07032,0],[0,0]]],&quot;closed&quot;:true,&quot;fillColor&quot;:[0,0,0,1]}]}" fill="#970000" stroke-width="0.5"/></g><path d="M239.51602,139.92531c-1.03376,0 -3.5381,-3.26042 -3.7867,-5.3637c-0.22243,-1.88186 1.31512,-3.82799 3.7867,-3.82799c2.47159,0 4.2021,0.49077 4.02999,4.18853c-0.14607,3.13818 -1.55841,5.00317 -4.02999,5.00317z" fill="#ffffff" stroke="#000000" stroke-width="1.15" stroke-linecap="butt"/><path d="M243.11813,109.83159c0,0 0.1026,3.96976 0.00576,7.12662c-0.19174,6.25113 -1.08147,27.7607 -1.08147,27.7607l-2.98167,0.00864c0,0 -0.80294,-4.17274 -1.12322,-9.49979c-0.43353,-7.21063 -0.4495,-16.29321 -0.76344,-19.63229c-0.29758,-3.16513 -0.89593,-5.71453 -0.89593,-5.71453" fill="#ffffff" stroke="#000000" stroke-width="1.3" stroke-linecap="round"/><path d="M237.30776,61.28102l29.88268,-28.22474l0.03144,36.1893c0,0 -6.99772,1.43582 -16.06814,-1.57699c-9.75365,-3.23974 -13.84598,-6.38757 -13.84598,-6.38757z" fill="#970000" stroke="none" stroke-width="0" stroke-linecap="butt"/><path d="M237.51886,61.44316l29.51111,-28.33333c0,0 -14.3283,16.93683 -17.46493,22.31086c-1.83483,3.14364 -0.42395,11.68914 -0.42395,11.68914c0,0 -4.38745,-1.80586 -6.41428,-2.79408c-1.82632,-0.89046 -5.20795,-2.87259 -5.20795,-2.87259z" fill="#ec0000" stroke="none" stroke-width="0" stroke-linecap="butt"/><path d="M271.27823,35.49649c0,2.99811 -2.49441,5.42857 -5.57143,5.42857c-3.07702,0 -5.57143,-2.43046 -5.57143,-5.42857c0,-2.99811 2.49442,-5.42857 5.57143,-5.42857c3.07702,0 5.57143,2.43046 5.57143,5.42857z" fill="#ffffff" stroke="#000000" stroke-width="0" stroke-linecap="butt"/><path d="M267.4737,65.6268c-0.41602,0.62404 -1.04007,0.20802 -1.04007,0.20802l-0.39842,-0.26663c-1.30068,-0.7838 -2.50425,-1.74429 -3.88993,-2.37425c-1.60899,-0.73148 -4.37163,0.97628 -5.8376,1.46106c-1.52319,0.21917 -4.07303,0.62617 -5.27969,-0.63385c-1.45924,-1.52375 -1.58686,-4.39731 -3.3131,-5.61789c-1.55915,-1.10245 -4.91094,0.13713 -6.48522,0.66189c0,0 -0.71151,0.23717 -0.94868,-0.47434c-0.23717,-0.71151 0.47434,-0.94868 0.47434,-0.94868c2.11619,-0.7054 5.73165,-1.89476 7.8005,-0.48096c1.90628,1.30271 2.14587,4.08029 3.54404,5.81068c0.63823,0.78987 3.03604,0.34037 3.86318,0.22329c1.99993,-0.67323 4.55277,-2.2496 6.73383,-1.39608c1.4758,0.57753 2.75799,1.67562 4.11007,2.48289l0.45872,0.3048c0,0 0.62404,0.41602 0.20802,1.04006z" fill="#ffffff" stroke="none" stroke-width="0.5" stroke-linecap="butt"/><path d="M266.7068,56.53221c-0.48942,0 -0.65947,-0.31936 -0.71855,-0.54129c-0.91877,-0.81209 -1.79102,-0.69791 -3.07936,-0.48645c-2.57281,1.048 -6.31593,2.84032 -8.93467,0.73723c-1.07833,-0.86599 -0.97035,-2.38353 -1.89656,-3.31706c-0.50461,-0.5086 -2.97398,0.12068 -3.4261,0.17387c0,0 -0.22434,0.0264 -0.44127,-0.07291l-0.60641,0.48513c0,0 -0.58565,0.46852 -1.05417,-0.11713c-0.46852,-0.58565 0.11713,-1.05418 0.11713,-1.05418l0.71429,-0.57143c0,0 0.42318,-0.33855 0.83787,-0.08036c0.13771,-0.06479 0.25731,-0.07885 0.25731,-0.07885c1.30182,-0.15315 3.41244,-0.78271 4.57391,0.17387c0.95642,0.78771 0.88553,2.57274 1.81773,3.25437c2.2806,1.66757 5.46474,-0.12111 7.63676,-0.97706c1.9108,-0.32194 3.29877,-0.36679 4.73242,1.04907l0.21967,0.67319c0,0 0,0.75 -0.75,0.75z" fill="#ffffff" stroke="none" stroke-width="0.5" stroke-linecap="butt"/><path d="M265.47103,57.76524c0.55719,0.11603 0.5572,0.73125 0.5572,0.73125l-0.00112,0.0225c0.0652,0.23712 0.06015,0.50443 -0.03962,0.79397l-0.01635,0.32769c-0.08808,0.08495 -0.18301,0.1618 -0.28324,0.23074c-0.46775,0.62224 -1.14473,0.70957 -1.68647,0.46398c-1.22192,-0.05151 -2.17913,-0.89832 -1.00847,-2.32515c0.62611,-0.76311 1.77503,-0.73953 2.47808,-0.24497z" fill="#000000" stroke="none" stroke-width="0.5" stroke-linecap="butt"/><path d="M255.46184,62.23235c-0.9467,0.65592 -1.27953,0.30625 -1.35828,-0.28676c-0.57533,-0.10632 -0.57533,-0.73481 -0.57533,-0.73481l0.16435,-1.18281c0.15168,-0.15496 0.34188,-0.29311 0.55267,-0.40763c0.17793,-0.13515 0.41147,-0.22369 0.65726,-0.26082c1.08907,-0.28886 2.24628,0.07915 1.66137,1.79442c-0.24189,0.70937 -0.65938,1.02437 -1.10204,1.0784z" fill="#000000" stroke="none" stroke-width="0.5" stroke-linecap="butt"/><path d="M248.46332,56.38711c-0.02666,0.00225 -0.04223,0.00224 -0.04223,0.00224l-0.98208,-0.47145c-0.09291,-0.42943 -0.49179,-0.90404 -0.27872,-1.28827c0.33864,-0.61066 2.44482,-1.35259 2.79832,-0.02012c0.17133,0.64583 -0.067,1.68051 -0.70589,1.87612c-0.2484,0.07605 -0.52764,0.02725 -0.7894,-0.09851z" fill="#000000" stroke="none" stroke-width="0.5" stroke-linecap="butt"/><path d="M270.43647,36.70089c0,1.74182 -2.48895,3.69231 -4.23077,3.69231c-1.74182,0 -3.38461,-0.92308 -3.38461,-0.92308c0,0 3.62941,-0.23991 4.99523,-1.20564c1.12606,-0.79621 2.62016,-4.17898 2.62016,-4.17898c0,0 0,0.87357 0,2.61539z" fill="#c3c3c3" stroke="none" stroke-width="0" stroke-linecap="butt"/><path d="M252.7046,49.20581c-0.54407,0.46876 -1.11116,0.8983 -1.73991,1.21789c0,0 -0.44721,0.2236 -0.67082,-0.22361c-0.2236,-0.44721 0.2236,-0.67082 0.2236,-0.67082c0.06387,-0.03131 0.12726,-0.06387 0.1902,-0.09761c-0.01522,-0.02897 -0.02898,-0.06121 -0.04093,-0.09706c-0.15812,-0.47434 0.31623,-0.63246 0.31623,-0.63246l0.6,-0.2c0.25047,-0.08333 0.50258,-0.15775 0.75507,-0.23003c0.48325,-0.41423 0.95209,-0.86246 1.42373,-1.29733c-0.38181,-0.55369 -0.53313,-1.08283 -0.22631,-1.49065c0.22717,-0.30195 1.31133,-0.37143 2.45722,-0.27281c0.41211,-0.27533 0.84633,-0.54741 0.90109,-0.51095c0.20996,0.1398 0.34978,0.39006 0.44366,0.70398c0.92756,0.19253 1.66395,0.49229 1.69029,0.85726c0.04343,0.60186 -0.6151,1.08377 -1.48368,1.46696c0.00912,0.47872 0.02393,0.90612 0.09339,1.18751l-0.01642,0.0604h0.02008v0.6c0,0.27614 -0.22386,0.5 -0.5,0.5c-0.13807,0 -0.26307,-0.05597 -0.35355,-0.14644l-0.70711,-0.70711l0.03181,-0.0318c-0.28285,-0.21026 -0.58727,-0.44721 -0.88672,-0.69955c-0.57169,0.15219 -1.05907,0.26999 -1.32631,0.35925c-0.39577,0.13168 -0.79561,0.24109 -1.19459,0.35498zM255.39795,47.17206c0.29656,-0.11729 0.60208,-0.23432 0.89616,-0.33943c-0.00295,-0.15257 0.0016,-0.29996 0.01583,-0.43769c-0.14675,-0.00192 -0.29932,-0.00084 -0.45261,-0.00124c-0.20739,0.20109 -0.4214,0.4031 -0.60064,0.56138c0.05744,0.07368 0.1039,0.14234 0.13356,0.20174c0.00255,0.00511 0.00512,0.01018 0.0077,0.01524zM256.48465,48.33279c-0.01286,-0.0632 -0.02566,-0.12831 -0.03818,-0.19494c-0.04042,0.01302 -0.08087,0.02587 -0.12131,0.03858c0.05445,0.05036 0.10788,0.10212 0.1595,0.15636zM254.49394,46.17726c0.02596,0.02304 0.05352,0.04779 0.08229,0.07396c0.00799,-0.00673 0.016,-0.01344 0.024,-0.02014c-0.03707,-0.01626 -0.07256,-0.03415 -0.10629,-0.05382z" fill="#000000" stroke="none" stroke-width="0.5" stroke-linecap="butt"/><path d="M254.74109,49.07649c0.5,0 0.5,0.5 0.5,0.5v0.6c-0.00022,0.03799 -0.00167,0.07583 -0.00428,0.11353c0.01582,0.13298 -0.02138,0.24458 -0.02138,0.24458c-0.01039,0.03 -0.02078,0.06 -0.03117,0.09c-0.01981,0.08227 -0.04426,0.16379 -0.0725,0.24455l0.11441,0.0286l-0.19747,0.78985c-0.05053,0.22266 -0.24966,0.38888 -0.48761,0.38888c-0.27614,0 -0.5,-0.22386 -0.5,-0.5v-0.6h0.0359l-0.02945,-0.08009c0.06624,-0.20489 0.13248,-0.40978 0.19872,-0.61467c-0.0032,-0.03524 -0.00494,-0.07037 -0.00518,-0.10524v-0.6c0,0 0,-0.5 0.5,-0.5z" fill="#000000" stroke="none" stroke-width="0.5" stroke-linecap="butt"/><path d="M256.64109,52.28383c0.03089,-0.00477 0.06416,-0.00734 0.1,-0.00734c0.29771,0 0.41815,0.17726 0.46688,0.32069c0.02139,0.05566 0.03312,0.11612 0.03312,0.17931c0,0.02451 -0.00177,0.04861 -0.00518,0.07218l-0.02049,0.28594l-0.19635,0.58906c-0.06284,0.20431 -0.25306,0.35283 -0.47798,0.35283c-0.27614,0 -0.5,-0.22386 -0.5,-0.5v-0.8c0,0 0,-0.5 0.5,-0.5c0.03584,0 0.06911,0.00257 0.1,0.00734z" fill="#000000" stroke="none" stroke-width="0.5" stroke-linecap="butt"/><path d="M261.49827,305.88334c-0.75,0 -0.75,-0.75 -0.75,-0.75l0.03849,-0.09616c-1.40413,-4.21241 -4.11039,-7.55097 -5.35176,-12.06486c-0.59325,-2.15721 0.32651,-4.69944 0.31327,-6.83898c0,-0.45941 0.23485,-4.5038 -0.25208,-4.66251c-1.96408,-0.64018 -3.94474,3.39986 -6.01848,2.32377c-0.73774,-0.38283 -1.15398,-1.71154 -1.36619,-2.45157c-0.7427,-2.59 -0.86988,-7.11421 -0.02023,-9.66316c-0.01644,-2.05937 -0.40144,-3.76663 -0.67074,-5.78823c-0.04546,-0.34122 0.24703,-1.07065 -0.0946,-1.02837c-3.10187,0.38392 -6.06272,9.80241 -9.14303,4.64651c-0.26123,-0.43725 -0.45952,-0.90918 -0.68465,-1.36606c-0.45709,-0.92764 -0.73622,-1.97634 -0.75,-3.01038c0,-7.95407 3.78743,-17.53785 0.04658,-25.07312c-0.17236,-1.88858 -1.88969,-0.28354 -3.02522,0.47123c-1.86552,1.23997 -5.16621,3.356 -7.55838,2.2948c-3.70811,-1.64496 -0.11337,-8.06131 -0.12965,-10.69291c0,-2.17771 -0.00861,-7.48435 -1.93723,-9.00541c-0.18971,-0.14962 -2.10698,0.9235 -2.35909,1.03165c-2.34924,1.00777 -3.79841,2.299 -4.94953,4.6425c0,0 -0.33541,0.67083 -1.00623,0.33542c-0.67082,-0.33541 -0.33541,-1.00624 -0.33541,-1.00624c1.64736,-3.24578 3.59168,-4.14497 6.67464,-5.67166c0.94492,-0.46793 1.39778,-1.35201 2.68341,-0.65419c0.80257,0.43562 1.09618,1.64754 1.35762,2.42408c0.90673,2.6932 1.37182,5.07126 1.37182,7.90384c-0.01254,2.43466 -1.33334,4.58234 -1.33334,7c0,0.38045 -0.20012,2.08426 0.53701,2.30709c3.6207,1.09453 9.70124,-6.86336 11.4164,-1.90063c3.88834,7.71527 0.04658,17.45979 0.04658,25.59354c-0.0139,0.80428 0.22706,1.62252 0.59164,2.33956c0.01319,0.02594 0.96977,2.4667 1.48605,2.26383c2.63054,-1.03366 3.50987,-7.45247 7.34463,-6.33334c2.26867,0.66208 1.91404,6.61002 1.90133,8.51674c-0.67555,2.02664 -1.21513,8.9028 0.61357,10.55194c0.06035,0.05442 3.22243,-1.99508 3.47379,-2.06869c4.01328,-1.17517 3.58898,2.89922 3.58898,5.72994c-0.01011,1.96389 -0.93973,4.53405 -0.35339,6.49435c1.32635,4.43439 3.91371,7.73154 5.31491,11.93515l0.03848,0.5705c0,0 0,0.75 -0.75,0.75z" fill="#ec0000" stroke="none" stroke-width="0.5" stroke-linecap="butt"/><path d="M257.16702,306.13749c-0.67082,0.33541 -1.00623,-0.33542 -1.00623,-0.33542l-0.19285,-0.47174c-2.12723,-2.12723 -3.19347,-6.16744 -3.21967,-9.197c0,-1.25628 0.45923,-5.49234 -0.68853,-6.39157c-1.19718,-0.93795 -3.31527,1.63207 -4.96253,0.692c-3.57451,-2.03995 -3.27844,-8.31851 -3.38314,-11.74345c-0.15474,-0.77667 0.08829,-5.26983 -0.83615,-5.53074c-1.94073,-0.54775 -3.8745,1.18676 -5.42597,1.66667c-1.07809,0.33348 -3.25292,-0.06218 -4.27724,-0.55731c-2.869,-1.3868 -2.75977,-4.83766 -2.75977,-7.80227c0,-3.78978 0.42441,-7.85686 -0.00326,-11.61881c-0.07507,-0.66031 -0.0679,-3.28087 -0.64103,-3.7432c-0.96626,-0.77947 -3.92815,1.20225 -4.7217,1.41316c-3.57028,0.94893 -4.40474,-2.16732 -4.94221,-4.85865c-1.32079,-4.06098 0.81101,-8.1899 0.22812,-12.27997c-0.03266,-0.22916 -0.33026,-2.75283 -0.60844,-2.97076c-1.08699,-0.85162 -2.61081,1.51958 -2.84995,2.29541c0,0 -0.23717,0.71151 -0.94868,0.47434c-0.71151,-0.23717 -0.47434,-0.94869 -0.47434,-0.94869c1.15971,-3.29826 5.11891,-4.8333 6.10607,-0.61028c1.05483,4.51253 -1.49335,9.30603 -0.00301,13.65496c0.15767,0.78719 0.37638,3.00332 1.07775,3.60747c1.96325,1.69112 5.66751,-2.85305 7.925,-1.05295c1.43581,1.1449 0.86006,1.97549 1.01789,3.38949c0.48848,4.37621 0.33781,8.82079 0.33781,13.2485c0,2.83149 -0.28616,5.89075 2.75418,6.60305c0.29764,0.06973 1.75818,0.53843 2.20881,0.37071c1.70047,-0.63287 4.43037,-2.6345 6.57403,-1.66667c2.18502,0.98651 1.37209,4.85112 1.7522,6.74434c0.11509,3.31971 -0.13831,7.26327 2.09924,9.99656c1.60869,1.9651 3.49957,-1.56843 5.63342,0.01024c1.7766,1.31437 1.31146,5.78142 1.31146,7.60843c-0.0287,2.60756 0.95635,6.31235 2.78033,8.13634l0.47382,0.86158c0,0 0.33541,0.67082 -0.33541,1.00624z" fill="#ec0000" stroke="none" stroke-width="0.5" stroke-linecap="butt"/><path d="M234.20402,221.51285l0.49125,0.09016c0.83332,0.87788 2.12341,1.01207 2.96152,1.69083c1.87811,1.52105 1.93081,3.17331 1.90475,5.34514c-1.70364,3.45745 -3.98227,4.58052 -7.65457,3.19859c-1.01332,-0.38133 -1.41661,-0.28735 -2.04669,-1.30994c-1.03263,-1.67591 -0.45324,-5.39655 0.27841,-7.01464c0.53444,-1.18195 1.98348,-1.37741 2.82924,-2.24332c0,0 0.53033,-0.53033 1.06066,0c0.0817,0.0817 0.13824,0.16341 0.17541,0.24318z" fill="#ec0000" stroke="none" stroke-width="0.5" stroke-linecap="butt"/><path d="M244.75159,247.71583c0.0539,-0.66583 0.74669,-0.66583 0.74669,-0.66583l0.74936,0.12596c2.90545,1.949 3.37208,4.39737 3.31391,7.79635c-0.67656,1.39077 -2.54816,5.09036 -4.22429,5.55762c-2.10036,0.58553 -4.05552,-3.18479 -4.25002,-4.6383c-0.44007,-3.28856 0.6436,-6.85301 3.66436,-8.17581z" fill="#ec0000" stroke="none" stroke-width="0.5" stroke-linecap="butt"/><path d="M218.9346,293.95014c1.28735,-5.36095 1.94464,-10.89411 2.57956,-16.41232c-0.87832,-1.25493 -1.87043,-2.39217 -3.07685,-2.7665c-0.43998,-0.62229 -1.54096,-1.13751 -1.31992,-1.86687c0.21759,-0.71799 1.38523,-0.59902 2.11715,-0.76378c0.91234,-0.20538 1.91915,-0.25697 2.94685,-0.24662c0.12958,-1.02943 0.26568,-2.05607 0.41233,-3.0787c0.21189,-1.4776 0.41997,-2.8878 0.45552,-4.38122l0.03253,-1.31703c0.00863,-0.40672 0.34104,-0.73377 0.74983,-0.73377c0.3118,0 0.57916,0.19027 0.69231,0.46104l0.60225,1.35507l-0.203,0.09022c1.27363,2.41493 1.62603,5.00874 2.31546,7.75322c0.77806,-0.00124 1.90545,0.01908 2.03151,0.14868c1.17056,1.20344 0.74526,2.29213 0.53475,3.63257c-0.13234,0.84265 -0.32735,1.68167 -0.56786,2.51567c1.4484,3.97535 3.13974,7.88252 4.6154,11.82707c0.66708,1.33416 1.17377,2.68099 1.69531,4.07693l0.00463,0.04267l0.00686,-0.00171l0.32926,1.31702c0.01726,0.06314 0.02647,0.1296 0.02647,0.19822c0,0.41422 -0.33578,0.75 -0.75,0.75c-0.35692,0 -0.65562,-0.24933 -0.73141,-0.58332l-0.32176,-1.28704c-0.0094,-0.02503 -0.0188,-0.05004 -0.0282,-0.07504c-2.74703,-2.88246 -5.11972,-6.31505 -7.4421,-9.66812c-0.38462,0.84888 -0.76844,1.68777 -1.13069,2.51499c-1.61299,3.22573 -2.38471,6.64435 -4.57346,9.55668l-0.39892,1.04334c-0.10338,0.29052 -0.38079,0.4985 -0.70679,0.4985c-0.35692,0 -0.65562,-0.24933 -0.73141,-0.58332l-0.32953,-1.31811l0.15999,-0.04c-0.11106,-0.3737 -0.18039,-0.75472 -0.18238,-1.14191v-1c0,0 0,-0.29639 0.18632,-0.51653zM222.79228,279.47899c-0.61147,5.19054 -1.29596,10.37684 -2.544,15.41281v0.48115c1.69906,-2.68167 2.46194,-5.6731 3.90415,-8.55775c0.478,-1.09322 0.98865,-2.19999 1.48913,-3.31871c-0.71789,-1.02884 -1.43543,-2.04131 -2.16227,-3.01864c-0.22529,-0.30293 -0.45342,-0.64148 -0.68701,-0.99885zM223.68613,271.94251c0.70263,0.03332 1.39834,0.0747 2.06384,0.09503c-0.14122,-0.53454 -0.2755,-1.07127 -0.40203,-1.61043c-0.22052,-0.93968 -0.66872,-2.13025 -1.00901,-3.30996c-0.07711,0.63269 -0.16789,1.26602 -0.2604,1.91114c-0.13888,0.96839 -0.26857,1.94012 -0.3924,2.91423zM231.91881,289.2982c-1.12641,-2.92858 -2.31005,-5.84043 -3.4066,-8.78034c-0.33929,0.91077 -0.71579,1.8139 -1.10632,2.70751c1.49149,1.98591 2.96137,3.99059 4.44366,5.98109c0.02271,0.0305 0.04581,0.06108 0.06927,0.09174zM226.36371,281.84637c0.49701,-1.16931 0.96072,-2.35059 1.34373,-3.54206c-0.55483,-1.57149 -1.07485,-3.15408 -1.5384,-4.75449c-0.89372,-0.00096 -1.78778,-0.00526 -2.68176,-0.00369c-0.16261,1.34121 -0.31755,2.68589 -0.47338,4.03148c0.02161,0.02729 0.04346,0.05452 0.06556,0.08167c1.11816,1.37415 2.20875,2.77386 3.28425,4.18708zM219.59112,273.64242c1.00783,0.4586 1.6007,1.19526 2.13942,2.01587c0.08115,-0.70148 0.16305,-1.40237 0.24696,-2.10229c-0.38282,0.00475 -0.76559,0.01153 -1.14827,0.02105c-0.26262,0.00653 -0.75644,0.07575 -1.23811,0.06537zM227.57291,273.28105c0.25035,0.8721 0.52088,1.73897 0.80704,2.60168c0.20696,-0.89428 0.37511,-2.00054 0.01314,-2.4743c-0.18597,-0.2434 -0.48711,-0.21825 -0.82017,-0.12739z" fill="#ec0000" stroke="none" stroke-width="0.5" stroke-linecap="butt"/><path d="M217.30128,301.66366c-0.53033,-0.53033 0,-1.06066 0,-1.06066l0.78033,-0.78033c0,-0.00756 0,-0.01511 0,-0.02267c0,0 0,-0.75 0.75,-0.75c0.20884,0 0.35953,0.05815 0.46826,0.14207c0.05069,-0.02833 0.10139,-0.05665 0.15208,-0.08498l0.17325,0.69291h0.28974v1h-0.03972l0.03004,0.12014c-0.02497,0.03389 -0.04994,0.06778 -0.07491,0.10167l0.0461,0.01537l-0.32787,0.98359c-0.09425,0.30647 -0.3796,0.52924 -0.71698,0.52924c-0.39977,0 -0.72648,-0.31277 -0.74878,-0.70695c-0.20319,0.0836 -0.49237,0.10979 -0.78155,-0.17939z" fill="#ec0000" stroke="none" stroke-width="0.5" stroke-linecap="butt"/><path d="M240.49163,218.80186c-0.66472,-0.33616 -0.33084,-1.00393 -0.33084,-1.00393c1.07955,-2.1591 2.50353,-3.96339 3.68948,-6.0422c0.20033,-0.35116 0.38922,-0.7107 0.56916,-1.07676c-2.07526,-2.49854 -4.14483,-4.99707 -6.26686,-7.42112l-0.54957,-0.62778c-0.11703,-0.13229 -0.18807,-0.30622 -0.18807,-0.49673c0,-0.41422 0.33578,-0.75 0.75,-0.75h1.33334v0.12608c2.78503,-0.27165 5.65447,0.07317 8.49521,0.59686c0.62233,-1.43923 2.01795,-4.5285 3.06175,-4.02215c0.54943,0.26653 0.92982,2.86729 1.04988,3.52767c0.09193,0.4649 0.18538,0.92981 0.27965,1.39479c0.97838,0.20811 1.94593,0.41021 2.8977,0.58722c1.2523,0.2329 6.35052,0.07264 6.298,2.16473c-0.02284,0.90974 -1.96213,2.81154 -2.56913,3.58853c-1.57946,1.06741 -3.20669,2.02462 -4.85302,2.93462c0.43469,2.76733 0.73246,5.55147 0.7462,8.36532l0.29974,0.89922c0.02849,0.07926 0.04403,0.1647 0.04403,0.25378c0,0.41422 -0.33578,0.75 -0.75,0.75c-0.2994,0 -0.55783,-0.17544 -0.67809,-0.42912l-0.66356,-1.32711l0.00583,-0.00291c-1.641,-1.75798 -3.23439,-3.57292 -4.80428,-5.41393c-1.99233,1.06822 -3.9637,2.17476 -5.86373,3.43014l-1.09234,0.37111c0,0 -0.64341,0.21447 -0.91049,-0.37633z" fill="#ffffff" stroke="none" stroke-width="0.5" stroke-linecap="butt"/><path d="M238.82496,221.46852c-0.66472,-0.33616 -0.33084,-1.00393 -0.33084,-1.00393c1.07955,-2.1591 2.50353,-3.96339 3.68948,-6.0422c0.20033,-0.35116 0.38922,-0.7107 0.56916,-1.07676c-2.07526,-2.49854 -4.14483,-4.99707 -6.26686,-7.42112l-0.54957,-0.62779c-0.11703,-0.13229 -0.18807,-0.30621 -0.18807,-0.49673c0,-0.41422 0.33578,-0.75 0.75,-0.75h1.33334v0.12608c2.78503,-0.27165 5.65447,0.07316 8.49521,0.59685c0.62233,-1.43923 2.01795,-4.5285 3.06175,-4.02215c0.54943,0.26653 0.92982,2.86729 1.04988,3.52767c0.09193,0.4649 0.18538,0.92981 0.27965,1.39479c0.97838,0.20811 1.94593,0.41021 2.8977,0.58722c1.25231,0.2329 6.35052,0.07264 6.29799,2.16473c-0.02284,0.90974 -1.96212,2.81154 -2.56912,3.58853c-1.57946,1.06741 -3.2067,2.02462 -4.85302,2.93462c0.43469,2.76733 0.73246,5.55147 0.7462,8.36532l0.29974,0.89922c0.02849,0.07926 0.04403,0.1647 0.04403,0.25378c0,0.41422 -0.33578,0.75 -0.75,0.75c-0.2994,0 -0.55783,-0.17544 -0.67809,-0.42912l-0.66356,-1.32711l0.00582,-0.00291c-1.641,-1.75798 -3.23439,-3.57292 -4.80428,-5.41393c-1.99233,1.06822 -3.9637,2.17476 -5.86373,3.43014l-1.09234,0.37111c0,0 -0.64341,0.21447 -0.91049,-0.37632z" fill="#ec0000" stroke="none" stroke-width="0.5" stroke-linecap="butt"/><path d="M252.84407,272.48167c-0.09249,0.04233 -0.20613,0.06833 -0.34579,0.06833c-0.75,0 -0.75,-0.75 -0.75,-0.75c0,-2.13029 -0.67469,-6.93365 1.21967,-8.53033c2.17323,-1.83173 4.98953,2.1903 5.27065,4.07686c0.41685,2.79744 -2.42326,7.76692 -5.34874,5.22534c-0.01526,-0.03006 -0.03052,-0.06013 -0.04578,-0.09019z" fill="#ec0000" stroke="none" stroke-width="0.5" stroke-linecap="butt"/><path d="M262.25955,289.72495c0.47891,0.02472 0.9443,0.13771 1.36064,0.47902c2.19919,1.80289 0.94855,5.34019 -1.57124,5.98051c-2.88878,0.73409 -3.09345,-2.4887 -2.29478,-4.8682c-0.10724,-0.39227 0.21378,-0.71328 0.21378,-0.71328l0.11888,-0.10833c0.28229,-0.58348 0.62606,-1.05718 0.99543,-1.31871c0,0 0.62404,-0.41603 1.04007,0.20801c0.08143,0.12214 0.12302,0.23632 0.13723,0.34097z" fill="#ec0000" stroke="none" stroke-width="0.5" stroke-linecap="butt"/><path d="M244.49144,191.9c0,2.25992 -2.01089,4.09195 -4.49144,4.09195c-2.48055,0 -4.49144,-1.83203 -4.49144,-4.09195c0,-2.25992 2.01089,-4.09195 4.49144,-4.09195c2.48055,0 4.49144,1.83203 4.49144,4.09195z" fill="#ffffff" stroke="none" stroke-width="0" stroke-linecap="butt"/><path d="M243.49144,199.9c0,1.76287 -1.6079,3.19195 -3.59134,3.19195c-1.98344,0 -3.59134,-1.42909 -3.59134,-3.19195c0,-1.76287 1.6079,-3.19196 3.59134,-3.19196c1.98344,0 3.59134,1.42909 3.59134,3.19196z" fill="#e8e8e8" stroke="none" stroke-width="0" stroke-linecap="butt"/><path d="M261.72108,119.27982c0,2.99154 -2.9747,13.58333 -8.08333,13.58333c-5.10863,0 -9.91667,-9.92512 -9.91667,-12.91667c0,-2.99154 4.9747,0.25 10.08333,0.25c5.10863,0 7.91667,-3.90821 7.91667,-0.91667z" fill="url(#color-1)" stroke="none" stroke-width="0" stroke-linecap="butt"/><path d="M205.42108,130.21078v-49.28571h29.28571l1.85714,30.57143l-5.00763,18.8469c0,0 -3.94331,-0.43482 -5.74454,0.40129c-1.96929,0.91412 -5.61204,4.87029 -5.61204,4.87029c0,0 -3.46647,-3.41367 -5.95143,-4.32236c-2.44045,-0.89241 -8.82722,-1.08184 -8.82722,-1.08184z" fill="#000000" stroke="none" stroke-width="0" stroke-linecap="butt"/><path d="M229.62712,111.5147c-1.54451,8.37925 -10.30906,14.48388 -10.30906,14.48388c0,0 -5.40825,-8.0107 -3.86374,-16.38995c1.54451,-8.37925 9.45689,-13.95401 9.45689,-13.95401c0,0 6.26042,7.48083 4.71591,15.86008z" fill="#ffffff" stroke="#ffffff" stroke-width="1.4" stroke-linecap="butt"/><path d="M230.7068,110.63935c0,4.89166 -3.87106,8.85714 -8.64626,8.85714c-4.7752,0 -8.64626,-3.96548 -8.64626,-8.85714c0,-4.89166 3.87106,-8.85714 8.64626,-8.85714c4.7752,0 8.64626,3.96548 8.64626,8.85714z" fill="url(#color-2)" stroke="#000000" stroke-width="1" stroke-linecap="butt"/><path d="M228.32164,129.03432c0.27801,0.21801 0.27801,0.60503 0.27801,0.60503l-0.00448,0.93898c-0.21609,0.98484 -1.10343,8.43122 -3.4259,4.94801c-0.21862,-0.32788 0.41089,-1.75871 0.52393,-2.21064c0.40489,-1.6188 1.29431,-3.62459 1.2636,-5.24778c0,0 0,-0.75 0.75,-0.75c0.75,0 0.75,0.75 0.75,0.75c-0.00262,0.19331 -0.05278,0.53608 -0.13516,0.9664z" fill="#000000" stroke="none" stroke-width="0.5" stroke-linecap="butt"/><path d="M220.42386,130.97361c0,0 0.23717,-0.71151 0.94868,-0.47434c0.33865,0.11288 0.46239,0.33322 0.49908,0.53316c0.72804,0.0145 0.72804,0.74978 0.72804,0.74978l-0.03849,0.66574c-0.67936,2.03338 -1.27738,3.85429 -2.5399,5.31809l0.25497,0.21855l-0.85397,0.9963c-0.13757,0.16247 -0.34305,0.26561 -0.57262,0.26561c-0.41421,0 -0.75,-0.33579 -0.75,-0.75c0,-0.10448 0.02136,-0.20397 0.05996,-0.29434l0.25722,-0.64304c0.38563,-2.16699 1.29903,-4.4605 2.00703,-6.58551z" fill="#000000" stroke="none" stroke-width="0.5" stroke-linecap="butt"/><path d="M216.20077,129.04818c0.14852,-0.0486 0.33376,-0.04778 0.55572,0.0632c0.67082,0.33541 0.33541,1.00623 0.33541,1.00623l-0.06826,0.03313c-0.2346,2.11005 -0.4535,4.29923 -1.0094,6.34707c-0.28619,1.05427 -0.47001,2.66664 -2.27317,1.63667c-1.48808,-0.85 -0.58695,-1.74088 -0.32785,-2.69763c0.62731,-2.31635 0.83799,-4.78123 1.42311,-7.12226c0,0 0.1819,-0.72761 0.90951,-0.54571c0.72761,0.1819 0.54571,0.90951 0.54571,0.90951c-0.03081,0.1232 -0.06105,0.24646 -0.09078,0.36979z" fill="#000000" stroke="none" stroke-width="0.5" stroke-linecap="butt"/><path d="M235.4568,120.34565c0,2.74076 0,5.48151 0,8.22227c0,1.10268 0.4613,5.97008 -1.71708,5.81333c-1.48528,-0.10688 -0.87556,-3.66466 -0.77631,-4.41269c0.54264,-4.08962 -0.59854,-10.11025 1.31287,-13.97303l-0.2403,-0.12015l0.14698,-0.29396c-0.40531,-1.64642 -0.74738,-3.30685 -0.93586,-5.00209c0,0 -0.08282,-0.74541 0.66259,-0.82824c0.74541,-0.08282 0.82824,0.66259 0.82824,0.66259c0.12434,1.11978 0.31441,2.22412 0.54486,3.31906l0.10856,-0.75995c0.04675,-0.36929 0.36204,-0.65485 0.74402,-0.65485c0.37645,0 0.68812,0.27735 0.74182,0.63886l0.13835,0.83011c0.8252,3.71007 1.58461,7.481 1.58395,11.28642c-0.00022,1.24917 0.27756,2.72563 -0.03342,3.92476c0.02144,0.42218 0.03222,0.84694 0.03103,1.27457l-0.0362,0.05668l0.02855,0.00476l-0.14083,0.84498c-0.0537,0.36151 -0.36537,0.63886 -0.74182,0.63886c-0.41421,0 -0.75,-0.33579 -0.75,-0.75c0,-0.02395 0.00112,-0.04764 0.00332,-0.07102l0.12384,-1.48608l0.00736,0.00061c-0.09727,-3.16024 -0.82545,-6.17326 -1.63452,-9.16578zM235.37075,114.14154c0.01197,-0.05208 0.02505,-0.10425 0.03936,-0.15682l-0.07589,-0.01084c0.01208,0.05591 0.02426,0.1118 0.03653,0.16767zM236.48386,118.533c-0.02583,-0.13678 -0.05207,-0.27351 -0.07867,-0.41015c-0.00922,0.00609 -0.01859,0.01198 -0.02809,0.01766c0.03551,0.13084 0.07111,0.26167 0.10676,0.39249z" fill="#000000" stroke="none" stroke-width="0.5" stroke-linecap="butt"/><path d="M225.56394,110.35364c0,1.81465 -1.53502,3.28571 -3.42857,3.28571c-1.89355,0 -3.42857,-1.47106 -3.42857,-3.28571c0,-1.81465 1.53502,-3.28572 3.42857,-3.28572c1.89355,0 3.42857,1.47107 3.42857,3.28572z" fill="#000000" stroke="none" stroke-width="0" stroke-linecap="butt"/><path d="M215.08108,120.8222c0,0 -0.83414,-4.915 -0.3,-11.7c0.16617,-2.11078 5.9,-11.5 5.9,-11.5" fill="none" stroke="#000000" stroke-width="2" stroke-linecap="round"/><path d="M212.68108,113.3222l2.4,-9.6" fill="none" stroke="#000000" stroke-width="2" stroke-linecap="round"/><path d="M228.68108,121.1222l2.7,-14" fill="none" stroke="#000000" stroke-width="2" stroke-linecap="round"/><path d="M252.72108,123.52982l-1.16667,6.66667l-0.83333,-8.5" fill="none" stroke="#000000" stroke-width="1.5" stroke-linecap="round"/><path d="M257.88775,121.86316l-1,12.16667l-0.66667,-11.16667" fill="none" stroke="#000000" stroke-width="1.5" stroke-linecap="round"/><path d="M244.72108,118.69649l0.33333,13.5l-1.83333,-15.16667" fill="none" stroke="#000000" stroke-width="1.5" stroke-linecap="round"/><path d="M249.38775,122.1965v8l-1.33333,-6.66667l-0.66667,8.33333l-0.83333,-10.5" fill="none" stroke="#000000" stroke-width="1.5" stroke-linecap="round"/><path d="M260.05442,119.52983l-2.5,17.33333l1.33333,-17" fill="none" stroke="#000000" stroke-width="1.5" stroke-linecap="round"/><path d="M254.05442,123.19648l-0.66667,8.66667l-0.66667,-10.33333" fill="none" stroke="#000000" stroke-width="1.5" stroke-linecap="round"/></g></g></svg>