<svg version="1.1" xmlns="http://www.w3.org/2000/svg" xmlns:xlink="http://www.w3.org/1999/xlink" width="94.59896" height="253.22501" viewBox="0,0,94.59896,253.22501"><g transform="translate(-193.2466,-73.61159)"><g data-paper-data="{&quot;isPaintingLayer&quot;:true}" fill-rule="nonzero" stroke-linejoin="miter" stroke-miterlimit="10" stroke-dasharray="" stroke-dashoffset="0" style="mix-blend-mode: normal"><path d="M196.66353,326.8366v-253.22501h91.18203c0,0 0,62.95965 0,99.78583c0,45.66572 0,153.43918 0,153.43918z" fill-opacity="0.01" fill="#000000" stroke="none" stroke-width="0" stroke-linecap="butt"/><path d="M260.58494,169.78c0,0 12.89846,-11.77771 14.41956,-17.72059c1.31566,-5.14025 -8.51956,-12.77941 -8.51956,-12.77941l2,-8.8c0,0 16.11569,14.96808 14.63969,20.47849c-1.52255,5.6842 -15.43969,20.72151 -15.43969,20.72151z" fill="#2d0000" stroke="none" stroke-width="0" stroke-linecap="butt"/><path d="M260.22494,170.04c0,0 8.3364,-8.03391 10.9744,-11.49059c2.03981,-2.67285 4.2256,-7.50941 4.2256,-7.50941c0,0 2.25657,1.69181 3.49454,1.74005c1.32303,0.05155 4.40546,-1.44005 4.40546,-1.44005c0,0 -4.05821,6.9156 -6.60768,10.26586c-2.64688,3.47827 -8.99232,10.23414 -8.99232,10.23414z" fill="#610000" stroke="none" stroke-width="0" stroke-linecap="butt"/><path d="M200.74534,304.19158c0,0 -0.29599,-44.02873 -0.43381,-64.52961c-0.12547,-18.66372 -0.35954,-53.4824 -0.35954,-53.4824c0,0 3.40553,-15.29174 14.41296,-26.19296c0,2.95446 0,5.90892 0,8.86338c0,3.5 0,7 0,10.5c0,2.33599 0,4.672 0,7.00799c-0.35548,-0.13956 0.20908,0.02544 -0.32411,0.02284c-0.02284,-0.00011 -0.04535,-0.00022 -0.06753,-0.00034l-3.39505,117.72614z" fill="#000000" stroke="#000000" stroke-width="2" stroke-linecap="butt"/><path d="M199.36495,167.85l14.98737,-11.14914c-0.11017,11.91239 -0.18871,23.82526 -0.23387,35.73832z" fill="#272727" stroke="none" stroke-width="0" stroke-linecap="butt"/><path d="M280.00284,186.15521l0.65429,117.98648l-10.49667,0.09614l-3.15882,-117.84311c0,0 -0.03002,-0.04746 -0.07816,-0.09489c-0.0215,-0.02117 0.40444,-0.04233 -0.48809,-0.05926c-0.20364,-0.00386 0.35652,0.00369 0.17955,0.02131c0,-1.88729 0,-3.77459 0,-5.66188c0,-3.5 0,-7 0,-10.5c0,-3.09135 0,-6.18271 0,-9.27407c10.15915,10.82131 13.3879,25.32927 13.3879,25.32927z" fill="#000000" stroke="#000000" stroke-width="2" stroke-linecap="butt"/><path d="M280.8633,167.8496l-13.74835,25.25041l-0.49514,-0.00234c-0.03084,-12.47093 -0.11266,-24.83459 -0.24392,-36.76436z" fill="#272727" stroke="none" stroke-width="0" stroke-linecap="butt"/><path d="M199.28494,168.08c0,0 19.14586,-19.03327 40.2,-19.2c11.54442,-0.09142 21.18533,3.91271 28.2507,8.28719c8.39097,5.19522 13.1493,10.91281 13.1493,10.91281z" fill="#101010" stroke="none" stroke-width="0" stroke-linecap="butt"/><path d="M266.11494,160.30219c0,3.26594 -0.8,6.53187 -0.8,9.79781c0,3.5 0,7 0,10.5c0,1.91508 0,3.83017 0,5.74525c-2.2541,0.54479 -1.07493,3.01094 -1.07493,3.01094l0.20548,114.86995l-48.21366,0.07222l-0.30539,-115.23309c0,0 0.55403,-1.60867 -0.6615,-2.44389c0,-2.4238 0.2,-4.84758 0.2,-7.27138c0,-3.5 0,-7 0,-10.5c0,-3.11682 -0.6,-6.23363 -0.6,-9.35045c2.59573,-2.48693 5.60052,-4.72379 9.06609,-6.46795c0.233,1.22236 0.50688,2.44526 0.75883,3.71246c0.59505,2.98636 2.06908,7.23285 3.63155,9.85287c1.82978,3.4983 3.13021,6.14739 7.5517,6.24767c3.53094,0.02574 6.93533,0.44207 10.45688,0.26572c2.11207,-0.9313 3.06301,-2.17004 4.3819,-3.78595c0.89239,-1.09337 1.09378,-2.99584 2.23458,-3.75276c0.83308,-3.37386 3.23154,-6.37369 3.40465,-9.95483c0.16989,-0.79493 0.32634,-1.58749 0.47046,-2.37894c3.58603,1.90258 6.66379,4.35582 9.29335,7.06435z" fill="#ffffff" stroke="#000000" stroke-width="2" stroke-linecap="butt"/><path d="M256.86494,304.34999v-152.25h4v152.25z" fill="#000000" stroke="#000000" stroke-width="2" stroke-linecap="butt"/><path d="M219.61495,304.22499v-152.125h3.75v152.125z" fill="#000000" stroke="#000000" stroke-width="2" stroke-linecap="butt"/><path d="M240.154,149.25848c6.28605,-0.03138 11.64801,1.40957 16.20479,3.73835c-0.15555,0.85009 -0.32376,1.70132 -0.50348,2.55542c-0.1824,3.54127 -2.7441,6.36652 -3.31961,9.73431c-1.12135,0.68555 -1.35029,2.67444 -2.2106,3.72099c-1.27382,1.54959 -2.12416,2.69846 -4.11234,3.61671c-3.47666,0.17574 -6.84275,-0.25426 -10.33217,-0.2796c-4.21402,-0.09452 -5.38744,-2.63974 -7.12301,-5.99221c-1.54735,-2.54283 -2.99816,-6.78658 -3.5773,-9.70588c-0.26111,-1.3132 -0.54689,-2.57793 -0.78516,-3.84422c4.46613,-2.16514 9.68347,-3.51355 15.7589,-3.54387z" fill="#000000" stroke="#000000" stroke-width="2" stroke-linecap="butt"/><path d="M256.1425,200.33377c-0.57113,0 -1.03411,-0.46299 -1.03411,-1.03411c0,-0.57113 0.46299,-1.03413 1.03411,-1.03413c0.57113,0 1.03411,0.463 1.03411,1.03413c0,0.57113 -0.46299,1.03411 -1.03411,1.03411z" fill="#000000" stroke="none" stroke-width="1.5" stroke-linecap="butt"/><path d="M250.88263,204.56936c-4.4635,-0.31439 -6.55245,-1.79392 -6.16985,-2.58011c0.11788,-0.24224 2.84645,1.06355 6.97038,1.3048c6.40897,0.37493 8.51033,-0.63173 8.51033,-0.63173v1.34616c0,0 -2.4135,1.04672 -9.31086,0.56089z" fill="#000000" stroke="#000000" stroke-width="0" stroke-linecap="butt"/><path d="M223.06988,199.29966c0,-0.57113 0.46299,-1.03413 1.03411,-1.03413c0.57113,0 1.03413,0.463 1.03413,1.03413c0,0.57113 -0.463,1.03411 -1.03413,1.03411c-0.57113,0 -1.03411,-0.46299 -1.03411,-1.03411z" fill="#000000" stroke="none" stroke-width="1.5" stroke-linecap="butt"/><path d="M229.36386,204.56936c-6.89736,0.48585 -9.31086,-0.56089 -9.31086,-0.56089v-1.34616c0,0 2.10136,1.00666 8.51033,0.63173c4.12393,-0.24126 6.85251,-1.54704 6.97039,-1.3048c0.3826,0.78618 -1.70634,2.26571 -6.16985,2.58011z" fill="#000000" stroke="#000000" stroke-width="0" stroke-linecap="butt"/><path d="M240.64432,261.12113c-0.81895,0 -1.48284,-0.66389 -1.48284,-1.48284c0,-0.81895 0.66389,-1.48284 1.48284,-1.48284c0.81895,0 1.48284,0.66389 1.48284,1.48284c0,0.81895 -0.66389,1.48284 -1.48284,1.48284z" data-paper-data="{&quot;index&quot;:null}" fill="#000000" stroke="none" stroke-width="1.5" stroke-linecap="butt"/><path d="M215.08107,238.57269v-68.27053c0,0 0.77647,-5.57328 0.77647,-8.38444c0,-2.57615 -0.77647,-7.8391 -0.77647,-7.8391c0,0 2.74119,-1.34762 4.77414,-2.14664c2.03295,-0.79902 5.30353,-1.60577 5.30353,-1.60577c0,0 -0.61691,22.97173 14.92989,22.93144c15.82741,-0.04102 14.18339,-22.93144 14.18339,-22.93144c0,0 4.01229,0.87032 6.3227,1.68758c2.31041,0.81726 4.87472,2.06483 4.87472,2.06483c0,0 -0.77648,5.39779 -0.77648,8.12823c0,2.77313 0.77648,8.38444 0.77648,8.38444v67.98142l-24.8545,13.25z" fill="#dedede" stroke="#7f7f7f" stroke-width="0" stroke-linecap="butt"/><path d="M213.86495,239.35l0.5,-86.25c0,0 5.17933,14.91267 11.27836,28.32606c4.9847,10.96271 14.47164,20.92394 14.47164,20.92394c0,0 10.45116,-12.8579 14.39321,-20.29148c4.68052,-8.82613 11.85679,-29.20852 11.85679,-29.20852v86.75l-26,12.75z" fill="#858585" stroke="none" stroke-width="0" stroke-linecap="butt"/><path d="M214.11495,305.34999l0.25,-42.5l26.75,30.75l25.25,-30.75l0.5,42.5z" fill="#767676" stroke="none" stroke-width="0" stroke-linecap="butt"/><path d="M214.28161,272.96666l0.26667,-9.81666l26.31667,30.2l25.4,-30.35l0.16666,10.1l-25.81666,32z" fill="#434343" stroke="none" stroke-width="0" stroke-linecap="butt"/><path d="M213.61495,240.1v-6l27,14.25l26,-14.25v6l-26,12.75z" fill="#343434" stroke="none" stroke-width="0" stroke-linecap="butt"/><path d="M214.36495,204.85v-11.5l26.5,28.25l25.25,-29l-0.08333,12.25c0,0 -9.21657,14.07791 -13.73996,18.19419c-3.59461,3.2711 -10.92671,8.05581 -10.92671,8.05581c0,0 -8.66843,-4.22624 -12.65639,-8.10343c-2.26115,-2.19834 -5.53642,-6.29795 -8.38648,-10.04503c-3.25604,-4.28082 -5.95712,-8.10154 -5.95712,-8.10154z" fill="#dedede" stroke="none" stroke-width="0" stroke-linecap="butt"/><path d="M213.86495,234.85l0.65,-80.85l3.3,8.6l0.05,73.7z" fill="#5b5b5b" stroke="none" stroke-width="0" stroke-linecap="butt"/><path d="M262.57923,236.01429l0.05,-73.7l3.3,-8.6l0.65,80.85z" data-paper-data="{&quot;index&quot;:null}" fill="#5b5b5b" stroke="none" stroke-width="0" stroke-linecap="butt"/><path d="M214.15257,204.49572l0.13333,-11.93333l3.46667,4.6v12.53333z" fill="#858585" stroke="none" stroke-width="0" stroke-linecap="butt"/><path d="M262.4859,209.96238v-12.53333l3.62716,-4.6l0.1395,11.93334z" data-paper-data="{&quot;index&quot;:null}" fill="#858585" stroke="none" stroke-width="0" stroke-linecap="butt"/><path d="M214.21923,305.29571l0.125,-32.375l2.5,2.375v30z" fill="#5b5b5b" stroke="none" stroke-width="0" stroke-linecap="butt"/><path d="M264.21923,305.29571v-30l2.26191,-2.375l0.11309,32.375z" data-paper-data="{&quot;index&quot;:null}" fill="#5b5b5b" stroke="none" stroke-width="0" stroke-linecap="butt"/><path d="M214.29256,273.13905v-10.13333l2.8,2.73334l-0.2,10.26666z" fill="#767676" stroke="none" stroke-width="0" stroke-linecap="butt"/><path d="M264.09479,276.07238l-0.2,-10.26666l2.49231,-2.88718l0.15385,10.3641z" data-paper-data="{&quot;index&quot;:null}" fill="#767676" stroke="none" stroke-width="0" stroke-linecap="butt"/><path d="M283.11494,233.85v71.5h-15c0,-1.5 0,-3 0,-4.5c0,-3.5 0,-7 0,-10.5c0,-3.5 0,-7 0,-10.5c0,-3.5 0,-7 0,-10.5c0,-2.85552 0,-5.71105 0,-8.56657z" fill="#f1f1f1" stroke="none" stroke-width="0" stroke-linecap="butt"/><path d="M198.11495,305.34999v-71.5l14.5,25.77339c0,2.57554 0,5.15108 0,7.72661c0,3.5 0,7 0,10.5c0,3.5 0,7 0,10.5c0,2.83333 0,5.66667 0,8.5c0,0.66667 0,1.33333 0,2c0,2.16667 0,4.33333 0,6.5z" fill="#f1f1f1" stroke="none" stroke-width="0" stroke-linecap="butt"/><path d="M240.42117,305.34999h0.88236l-0.43858,0.75z" fill="#f1f1f1" stroke="none" stroke-width="0" stroke-linecap="butt"/><path d="M198.36495,305.34999l0.38333,-53.61667l13.61667,40.61667v13z" fill="#646464" stroke="none" stroke-width="0" stroke-linecap="butt"/><path d="M268.86494,305.34999v-13l14,-40.75v53.75z" data-paper-data="{&quot;index&quot;:null}" fill="#646464" stroke="none" stroke-width="0" stroke-linecap="butt"/><path d="M198.36495,305.09999c0,0 0.36061,-36.58032 0.4867,-49.3709c0.08014,-8.1298 0.19663,-19.94576 0.19663,-19.94576l3.62,6.31667l-0.75,63z" fill="#3a3a3a" stroke="none" stroke-width="0" stroke-linecap="butt"/><path d="M279.36494,305.09999l-0.75,-63l3.55333,-6.25l0.75,69.25z" data-paper-data="{&quot;index&quot;:null}" fill="#3a3a3a" stroke="none" stroke-width="0" stroke-linecap="butt"/><path d="M198.73828,251.99334l0.4,-16.2l3.46666,6.13333l-0.26666,21.06667z" fill="#626262" stroke="none" stroke-width="0" stroke-linecap="butt"/><path d="M278.75495,264.49334l-0.26666,-21.64755l3.46666,-6.30245l0.4,16.64669z" data-paper-data="{&quot;index&quot;:null}" fill="#626262" stroke="none" stroke-width="0" stroke-linecap="butt"/><g><path d="M197.06864,123.93753c0,0 6.16329,-5.92187 6.29161,-6.78761c0.20385,-1.37536 0.16034,-15.76274 8.12492,-27.20555c5.1844,-7.4485 13.76192,-13.64935 28.00949,-14.2016c44.63633,-0.91362 38.84823,35.18206 41.36422,42.02364c3.44981,9.38084 6.15664,17.40016 6.15664,17.40016c0,0 -2.76715,-2.05351 -4.0797,-3.13397c-1.2242,-1.00773 -3.80143,-3.14585 -3.80143,-3.14585c0,0 3.09111,10.3481 1.31092,20.69498c-1.5623,9.48098 -7.29782,17.22543 -7.29782,17.22543l-1.15522,-2.34735c0,0 -1.02266,2.19794 -2.16005,3.33274c-1.1374,1.13479 -3.43873,2.91273 -3.43873,2.91273l-0.09205,-3.70421c0,0 -7.0601,11.01795 -24.35066,10.87154c-16.30625,-0.25547 -26.07151,-10.6752 -26.07151,-10.6752l-0.1162,2.65484c0,0 -3.89477,-3.29276 -6.18145,-9.70754c-2.72545,-7.64567 -3.23946,-12.24324 -3.23946,-12.24324c0,0 -2.33908,1.89916 -5.71704,2.7744c-4.23278,1.09673 -6.94665,0.34526 -6.94665,0.34526c0,0 3.60795,-2.71717 5.58396,-4.76989c1.76007,-1.8284 2.64658,-3.37722 2.64658,-3.37722c0,0 -2.10758,1.0847 -4.23277,1.61795c-2.21739,0.5564 -4.03008,0.53093 -4.03008,0.53093c0,0 4.97492,-5.03728 7.03074,-10.87429c1.94102,-5.51108 2.09972,-10.95731 2.09972,-10.95731c0,0 -1.36165,0.66163 -3.33013,0.79513c-1.24776,0.08463 -2.37785,-0.0489 -2.37785,-0.0489z" fill="#000000" stroke="none" stroke-width="1.5" stroke-linecap="butt"/><path d="M269.45562,126.79078v-41.83333l3.97223,3.16667v38.66666z" fill="#404040" stroke="none" stroke-width="0" stroke-linecap="butt"/><path d="M210.10146,126.95744v-37l4.18056,-3.83334l-0.66667,40.83334z" fill="#404040" stroke="none" stroke-width="0" stroke-linecap="butt"/><path d="M276.69174,127.5884c0,0.13301 -0.31768,3.56787 -1.3051,7.46603c-0.68152,2.69052 -1.9439,5.51449 -2.5741,7.98149c-0.76127,2.98008 -10.82966,7.86276 -10.82966,7.86276c0,0 7.65965,-4.9511 4.44871,-7.7878c-5.2585,-4.64563 -14.19291,-10.77248 -24.73985,-10.77248c-10.87118,0 -20.4446,7.24529 -25.53818,11.62223c-2.20437,1.89423 4.35728,7.08457 4.35728,7.08457c0,0 -8.90121,-6.28832 -9.64016,-9.50467c-0.39003,-1.69764 -1.99439,-3.60738 -2.4214,-5.48019c-1.0796,-4.73502 -0.92421,-9.23395 -0.92421,-9.47194c0,-2.43926 14.46851,-3.08334 34.16667,-3.08334c19.69816,0 35,1.64408 35,4.08334z" fill="#ababab" stroke="none" stroke-width="0" stroke-linecap="butt"/><path d="M210.19174,141.62411c0,0 -1.77385,-2.81561 -2.25464,-5.2481c-0.53869,-2.7255 -0.79458,-5.97364 -0.87133,-6.78718c-0.13107,-1.38936 0.29263,-3.96471 0.29263,-3.96471c0,0 22.71012,-6.11846 35.51775,-6.48883c16.40662,-0.47443 33.81559,8.1555 33.81559,8.1555c0,0 -0.29369,3.13508 -0.53847,4.35898c-0.17811,0.89051 -2.79487,9.97436 -2.79487,9.97436c0,0 -20.51682,-5.27816 -31.17014,-5.33379c-10.62438,-0.05548 -31.99652,5.33379 -31.99652,5.33379z" fill="#565656" stroke="none" stroke-width="0" stroke-linecap="butt"/><path d="M261.92453,120.13879c0,0 1.52429,0.31807 4.2558,1.11029c2.49492,0.72361 4.44935,1.74403 4.44935,1.74403l0.1951,1.17035c0,0 -7.24963,-3.12997 -15.1158,-2.4706c-6.2896,0.52724 -9.96319,2.8124 -9.96319,2.8124l0.04575,-4.17683c0,0 3.12748,-1.70421 7.86366,-1.85557c4.90428,-0.15672 8.09084,0.59125 8.09084,0.59125z" data-paper-data="{&quot;index&quot;:null}" fill="#000000" stroke="none" stroke-width="1.5" stroke-linecap="butt"/><path d="M249.1604,163.12634c0.5704,0.21186 3.08357,1.39942 6.02385,2.59586c2.9637,1.20597 7.21362,2.29294 7.19412,2.4605c-0.02476,0.21265 -10.43477,0.22694 -13.67937,0.63224c-2.71902,0.33964 -6.68867,0.70564 -6.68867,0.70564c0,0 -7.10401,-1.16169 -13.27235,-2.44521c-4.94371,-1.02869 -10.39929,-1.66108 -10.40995,-1.75461c-0.01439,-0.12613 3.86835,-0.71071 6.82417,-1.39467c1.14585,-0.49661 5.43971,-1.48513 5.43971,-1.48513c0,0 4.95585,-0.27766 7.60826,0.579c2.84203,0.91791 2.83546,2.44556 3.0831,2.46906c0,0 1.18436,-1.74932 2.36886,-2.10461c1.18451,-0.35528 5.08219,-0.41633 5.50828,-0.25808z" fill="#ffffff" stroke="#000000" stroke-width="1.4" stroke-linecap="butt"/><path d="M230.51241,167.67991c5.09114,1.02674 11.91756,2.80736 11.91756,2.80736c0,0 5.78976,-1.55585 8.44678,-1.8344c2.05992,-0.21596 11.216,-0.70654 11.26026,-0.33377c0.04328,0.36447 -9.03119,12.90033 -21.14808,12.44714c-13.76954,-0.43578 -22.86459,-15.13559 -22.82675,-15.30472c0.03784,-0.16913 7.2591,1.19165 12.35024,2.2184z" fill="#ffffff" stroke="#000000" stroke-width="1.9" stroke-linecap="butt"/><path d="M241.48667,164.68625c-1.03376,0 -3.5381,-3.26042 -3.7867,-5.3637c-0.22243,-1.88186 1.31512,-3.82799 3.7867,-3.82799c2.47159,0 4.2021,0.49077 4.02999,4.18853c-0.14607,3.13818 -1.55841,5.00317 -4.02999,5.00317z" fill="#ffffff" stroke="#000000" stroke-width="1.15" stroke-linecap="butt"/><path d="M245.08878,134.59253c0,0 0.1026,3.96976 0.00576,7.12662c-0.19174,6.25113 -1.08147,27.7607 -1.08147,27.7607l-2.98167,0.00864c0,0 -0.80294,-4.17274 -1.12322,-9.49979c-0.43353,-7.21063 -0.4495,-16.29321 -0.76344,-19.63229c-0.29758,-3.16513 -0.89593,-5.71453 -0.89593,-5.71453" fill="#ffffff" stroke="#000000" stroke-width="1.3" stroke-linecap="round"/><path d="M218.36498,134.77891c0.07093,-4.89188 4.83834,-8.93609 10.21137,-8.8582c5.37302,0.0779 9.02724,4.2484 8.95632,9.14029c-0.07093,4.89188 -4.12352,8.79439 -9.49655,8.7165c-5.37302,-0.0779 -9.74207,-4.1067 -9.67114,-8.99859z" fill="#ffffff" stroke="#000000" stroke-width="1.4" stroke-linecap="butt"/><path d="M222.80261,134.89685c0.03999,-2.75843 2.30855,-4.96213 5.06696,-4.92214c2.75843,0.03999 4.96213,2.30855 4.92214,5.06696c-0.03999,2.75843 -2.30854,4.96213 -5.06696,4.92214c-2.75843,-0.03999 -4.96213,-2.30855 -4.92214,-5.06696z" fill="#000000" stroke="none" stroke-width="1.5" stroke-linecap="butt"/><path d="M245.42125,134.77964c0.20353,-4.88817 4.45264,-8.85847 9.77048,-8.85847c5.31783,0 9.27453,3.96607 9.27453,8.85847c0,4.8924 -3.88585,9.07104 -9.69964,9.14188c-5.52997,0.06739 -9.55792,-4.03692 -9.34537,-9.14188z" fill="#ffffff" stroke="#000000" stroke-width="1.4" stroke-linecap="butt"/><path d="M250.02401,134.86519c0,-2.81845 2.2848,-5.10325 5.10325,-5.10325c2.81845,0 5.10325,2.2848 5.10325,5.10325c0,2.81845 -2.28479,5.10325 -5.10325,5.10325c-2.81845,0 -5.10325,-2.2848 -5.10325,-5.10325z" fill="#000000" stroke="none" stroke-width="1.5" stroke-linecap="butt"/><path d="M218.29654,134.24673c0,0 0.06357,-9.01512 10.60111,-8.8249c9.47101,0.16586 9.55554,9.40723 9.55554,9.40723z" fill="#ffffff" stroke="#000000" stroke-width="1.15" stroke-linecap="butt"/><path d="M245.04361,134.37763c0,0 -0.24686,-9.4582 11.19813,-9.1032c9.71427,0.33347 9.54677,9.65229 9.54677,9.65229z" fill="#ffffff" stroke="#000000" stroke-width="1.15" stroke-linecap="butt"/><path d="M221.8264,124.23507c0,0 3.36963,-1.819 8.03244,-2.28178c5.16698,-0.51283 7.76823,-0.06628 7.76823,-0.06628l0.29508,4.13747c0,0 -3.83554,-0.68065 -8.01795,-0.52113c-5.59346,0.21333 -6.64488,1.43293 -10.89774,1.89119c-3.64408,0.39266 -6.73723,0.15884 -6.73723,0.15884l-0.02589,-1.23155c0,0 3.59517,0.07398 5.23371,-0.06836c1.35239,-0.11749 3.9757,-0.93808 3.9757,-0.93808z" fill="#000000" stroke="none" stroke-width="1.5" stroke-linecap="butt"/><path d="M267.91174,137.93744l-3.36689,31.96105c0,0 -15.3956,14.67602 -20.68102,17.75675c-1.39428,0.81269 -3.05209,0.6822 -3.05209,0.6822c0,0 -2.18771,-0.14167 -4.0438,-1.38539c-5.67138,-3.80022 -20.12026,-18.6257 -20.12026,-18.6257l-1.03593,-29.18891l-6.52271,-22.93959l32.3227,-10.4604l33.11354,10.55158z" fill="#d6d6d6" stroke="none" stroke-width="0" stroke-linecap="butt"/><path d="M215.54022,140.45744c0,0 -1.32446,-6.11366 -2.34199,-9.80221c-1.18042,-4.279 -4.32467,-14.19779 -4.32467,-14.19779l32.83333,-10.83334l33.16666,10.66667c0,0 -3.36084,9.90718 -4.64294,14.17094c-1.06709,3.54868 -2.53887,10.07149 -2.53887,10.07149l-26.48351,-16.16414z" fill="#7e7e7e" stroke="none" stroke-width="0" stroke-linecap="butt"/><path d="M273.11174,117.73744l-6.81656,21.47424l-2.94837,28.95949c0,0 -20.71402,18.51476 -20.74757,18.54127c-0.87793,0.69374 -2.66766,0.4062 -3.05493,0.11667c-2.27159,-1.69833 -21.39429,-17.92793 -21.39429,-17.92793l-1.4579,-29.12914l-6.18038,-22.6346l31.2,-10.8z" fill="#3e0000" stroke="none" stroke-width="0" stroke-linecap="butt"/><path d="M216.72466,139.76168l-6.21428,-22.78571l31.21428,-10.64286l31.5,11.35715l-7.5,22.07143l-24.86626,-6.16667z" fill="#1e0000" stroke="none" stroke-width="0" stroke-linecap="butt"/><path d="M237.19174,134.12411c0,5.70694 -4.51447,10.33334 -10.08334,10.33334c-5.56887,0 -10.08333,-4.6264 -10.08333,-10.33334c0,-5.70694 4.51446,-10.33333 10.08333,-10.33333c5.56887,0 10.08334,4.62639 10.08334,10.33333z" fill="#770000" stroke="none" stroke-width="0" stroke-linecap="butt"/><path d="M265.41396,134.17966c0,5.70694 -4.51447,10.33334 -10.08334,10.33334c-5.56887,0 -10.08333,-4.6264 -10.08333,-10.33334c0,-5.70694 4.51446,-10.33334 10.08333,-10.33334c5.56887,0 10.08334,4.6264 10.08334,10.33334z" fill="#770000" stroke="none" stroke-width="0" stroke-linecap="butt"/><path d="M234.90007,131.29078c0,6.25923 -3.4698,11.33333 -7.75,11.33333c-4.2802,0 -7.75,-5.07411 -7.75,-11.33333c0,-6.25923 3.4698,-11.33333 7.75,-11.33333c4.2802,0 7.75,5.07411 7.75,11.33333z" fill="#1e0000" stroke="none" stroke-width="0" stroke-linecap="butt"/><path d="M263.19173,130.95744c0,6.25923 -3.46979,11.33333 -7.75,11.33333c-4.2802,0 -7.75,-5.0741 -7.75,-11.33333c0,-6.25923 3.4698,-11.33334 7.75,-11.33334c4.2802,0 7.75,5.07411 7.75,11.33334z" fill="#1e0000" stroke="none" stroke-width="0" stroke-linecap="butt"/><path d="M255.00602,169.60744c0,0 -5.98248,-3.25 -14.75,-3.25c-8.76752,0 -15,3.375 -15,3.375c0,0 6.48248,-8.875 15.25,-8.875c8.76752,0 14.5,8.75 14.5,8.75z" fill="#770000" stroke="none" stroke-width="0" stroke-linecap="butt"/></g><g><path d="M196.66863,124.44616c0,0 6.16252,-5.92114 6.29083,-6.78676c0.20382,-1.37519 0.16032,-15.76077 8.12391,-27.20216c5.18376,-7.44756 13.76021,-13.64764 28.006,-14.19983c44.63077,-0.9135 38.84339,35.17768 41.35907,42.01839c3.44938,9.37966 6.15588,17.39798 6.15588,17.39798c0,0 -2.7668,-2.05325 -4.0792,-3.13358c-1.22404,-1.0076 -3.80096,-3.14546 -3.80096,-3.14546c0,0 3.09073,10.34681 1.31075,20.6924c-1.56211,9.47979 -7.29691,17.22328 -7.29691,17.22328l-1.15509,-2.34706c0,0 -1.02253,2.19767 -2.15977,3.33232c-1.13727,1.13465 -3.43829,2.91237 -3.43829,2.91237l-0.09204,-3.70375c0,0 -7.05921,11.01658 -24.34763,10.87018c-16.30422,-0.25543 -26.06826,-10.67386 -26.06826,-10.67386l-0.11618,2.6545c0,0 -3.89429,-3.29234 -6.18068,-9.70633c-2.72511,-7.64472 -3.23906,-12.24171 -3.23906,-12.24171c0,0 -2.33879,1.89892 -5.71632,2.77405c-4.23224,1.09659 -6.94579,0.34521 -6.94579,0.34521c0,0 3.60751,-2.71684 5.58327,-4.7693c1.75986,-1.82818 2.64626,-3.37679 2.64626,-3.37679c0,0 -2.10732,1.08457 -4.23224,1.61774c-2.21712,0.55632 -4.02958,0.53087 -4.02958,0.53087c0,0 4.9743,-5.03666 7.02985,-10.87294c1.94077,-5.5104 2.09946,-10.95594 2.09946,-10.95594c0,0 -1.36148,0.66155 -3.32972,0.79504c-1.2476,0.08461 -2.37755,-0.0489 -2.37755,-0.0489z" fill="#000000" stroke="none" stroke-width="1.5" stroke-linecap="butt"/><path d="M269.04658,127.29906v-41.82812l3.97173,3.16628v38.66184z" fill="#404040" stroke="none" stroke-width="0" stroke-linecap="butt"/><path d="M209.69982,127.4657v-36.99538l4.18005,-3.83285l-0.66659,40.82825z" fill="#404040" stroke="none" stroke-width="0" stroke-linecap="butt"/><path d="M276.28181,128.09658c0,0.13299 -0.31763,3.56742 -1.30495,7.46509c-0.68143,2.69019 -1.94366,5.51379 -2.57378,7.98049c-0.76118,2.9797 -10.8283,7.86177 -10.8283,7.86177c0,0 7.6587,-4.95049 4.44815,-7.78683c-5.25784,-4.64505 -14.19113,-10.77114 -24.73677,-10.77114c-10.86982,0 -20.44205,7.24438 -25.53499,11.62079c-2.20408,1.894 4.35674,7.08368 4.35674,7.08368c0,0 -8.90009,-6.28753 -9.63895,-9.50348c-0.38998,-1.69743 -1.99415,-3.60692 -2.42109,-5.47951c-1.07947,-4.73443 -0.9241,-9.23281 -0.9241,-9.47075c0,-2.43896 14.46671,-3.08296 34.1624,-3.08296c19.69571,0 34.99563,1.64388 34.99563,4.08284z" fill="#ababab" stroke="none" stroke-width="0" stroke-linecap="butt"/><path d="M209.7901,142.13052c0,0 -1.77363,-2.81527 -2.25436,-5.24745c-0.53862,-2.72515 -0.79447,-5.9729 -0.87122,-6.78633c-0.13105,-1.38919 0.29258,-3.96421 0.29258,-3.96421c0,0 22.70728,-6.1177 35.51333,-6.48803c16.40457,-0.47438 33.81138,8.15449 33.81138,8.15449c0,0 -0.29364,3.13469 -0.53841,4.35843c-0.17809,0.8904 -2.79451,9.97312 -2.79451,9.97312c0,0 -20.51426,-5.27749 -31.16626,-5.33312c-10.62306,-0.05547 -31.99253,5.33312 -31.99253,5.33312z" fill="#565656" stroke="none" stroke-width="0" stroke-linecap="butt"/><path d="M261.51644,120.64791c0,0 1.5241,0.31804 4.25526,1.11016c2.49461,0.72353 4.4488,1.74382 4.4488,1.74382l0.19508,1.1702c0,0 -7.24874,-3.12958 -15.11392,-2.47029c-6.28882,0.52716 -9.96194,2.81204 -9.96194,2.81204l0.04574,-4.1763c0,0 3.1271,-1.704 7.86268,-1.85533c4.90367,-0.1567 8.08983,0.59117 8.08983,0.59117z" data-paper-data="{&quot;index&quot;:null}" fill="#000000" stroke="none" stroke-width="1.5" stroke-linecap="butt"/><path d="M248.75389,163.63008c0.57033,0.21184 3.08319,1.39924 6.02309,2.59553c2.96332,1.20582 7.21271,2.29265 7.19322,2.46019c-0.02475,0.21263 -10.43347,0.2269 -13.67766,0.63217c-2.71869,0.33961 -6.68783,0.70555 -6.68783,0.70555c0,0 -7.10312,-1.16155 -13.2707,-2.4449c-4.9431,-1.02856 -10.39799,-1.66088 -10.40865,-1.75439c-0.01439,-0.12612 3.86786,-0.71061 6.82332,-1.3945c1.14571,-0.49654 5.43903,-1.48494 5.43903,-1.48494c0,0 4.95523,-0.27763 7.60732,0.57893c2.84167,0.91779 2.8351,2.44526 3.08271,2.46875c0,0 1.18422,-1.74911 2.36856,-2.10434c1.18436,-0.35524 5.08156,-0.41629 5.5076,-0.25805z" fill="#ffffff" stroke="#000000" stroke-width="1.4" stroke-linecap="butt"/><path d="M230.10822,168.1831c5.0905,1.02662 11.91608,2.807 11.91608,2.807c0,0 5.78903,-1.55565 8.44572,-1.83417c2.05967,-0.21593 11.2146,-0.70645 11.25884,-0.33374c0.04328,0.36443 -9.03007,12.89872 -21.14544,12.4456c-13.76782,-0.43574 -22.86175,-15.13371 -22.82391,-15.30281c0.03783,-0.1691 7.2582,1.1915 12.3487,2.21813z" fill="#ffffff" stroke="#000000" stroke-width="1.9" stroke-linecap="butt"/><path d="M241.08112,165.1898c-1.03364,0 -3.53765,-3.26002 -3.78623,-5.36303c-0.22241,-1.88162 1.31495,-3.82752 3.78623,-3.82752c2.47128,0 4.20157,0.49071 4.02949,4.188c-0.14604,3.13778 -1.55821,5.00255 -4.02949,5.00255z" fill="#ffffff" stroke="#000000" stroke-width="1.15" stroke-linecap="butt"/><path d="M244.68278,135.09985c0,0 0.10259,3.96927 0.00576,7.12573c-0.19171,6.25035 -1.08134,27.75724 -1.08134,27.75724l-2.9813,0.00863c0,0 -0.80283,-4.17221 -1.12308,-9.4986c-0.43348,-7.20973 -0.44944,-16.29119 -0.76335,-19.62985c-0.29755,-3.16473 -0.89582,-5.71382 -0.89582,-5.71382" fill="#ffffff" stroke="#000000" stroke-width="1.3" stroke-linecap="round"/><path d="M217.96232,135.28616c0.07092,-4.89127 4.83774,-8.93498 10.21009,-8.85708c5.37236,0.0779 9.02612,4.24787 8.9552,9.13914c-0.07092,4.89127 -4.12299,8.7933 -9.49537,8.71542c-5.37236,-0.0779 -9.74086,-4.10619 -9.66994,-8.99746z" fill="#ffffff" stroke="#000000" stroke-width="1.4" stroke-linecap="butt"/><path d="M222.3994,135.40413c0.03998,-2.75808 2.30825,-4.96151 5.06633,-4.92153c2.75808,0.03998 4.96151,2.30825 4.92153,5.06633c-0.03998,2.75808 -2.30825,4.96151 -5.06633,4.92153c-2.75808,-0.03998 -4.96151,-2.30825 -4.92153,-5.06633z" fill="#000000" stroke="none" stroke-width="1.5" stroke-linecap="butt"/><path d="M245.0152,135.28693c0.2035,-4.88756 4.45208,-8.85736 9.76926,-8.85736c5.31718,0 9.27337,3.96557 9.27337,8.85736c0,4.89179 -3.88536,9.06992 -9.69842,9.14075c-5.52929,0.06737 -9.55672,-4.03642 -9.3442,-9.14075z" fill="#ffffff" stroke="#000000" stroke-width="1.4" stroke-linecap="butt"/><path d="M249.61739,135.37247c0,-2.81809 2.28451,-5.10261 5.10261,-5.10261c2.81809,0 5.10261,2.28451 5.10261,5.10261c0,2.81809 -2.28451,5.10261 -5.10261,5.10261c-2.81809,0 -5.10261,-2.28451 -5.10261,-5.10261z" fill="#000000" stroke="none" stroke-width="1.5" stroke-linecap="butt"/><path d="M217.89388,134.75408c0,0 0.06356,-9.01399 10.5998,-8.82379c9.46983,0.16583 9.55435,9.40607 9.55435,9.40607z" fill="#ffffff" stroke="#000000" stroke-width="1.15" stroke-linecap="butt"/><path d="M244.63761,134.88496c0,0 -0.24682,-9.45702 11.19673,-9.10206c9.71306,0.33342 9.54558,9.65108 9.54558,9.65108z" fill="#ffffff" stroke="#000000" stroke-width="1.15" stroke-linecap="butt"/><path d="M221.42331,124.74367c0,0 3.3692,-1.81876 8.03144,-2.28149c5.16635,-0.51278 7.76725,-0.06627 7.76725,-0.06627l0.29504,4.13695c0,0 -3.83506,-0.68057 -8.01694,-0.52107c-5.59275,0.21331 -6.64406,1.43276 -10.89638,1.89095c-3.64362,0.39262 -6.73639,0.15883 -6.73639,0.15883l-0.02588,-1.23141c0,0 3.59472,0.07397 5.23307,-0.06835c1.35222,-0.11747 3.97521,-0.93796 3.97521,-0.93796z" fill="#000000" stroke="none" stroke-width="1.5" stroke-linecap="butt"/><path d="M267.5029,138.44434l-3.36647,31.95707c0,0 -15.39367,14.67419 -20.67844,17.75453c-1.39412,0.81259 -3.0517,0.68211 -3.0517,0.68211c0,0 -2.18744,-0.14166 -4.04329,-1.38522c-5.67068,-3.79974 -20.11776,-18.62338 -20.11776,-18.62338l-1.03581,-29.18528l-6.52189,-22.93673l32.31868,-10.45909l33.1094,10.55027z" fill="#d6d6d6" stroke="none" stroke-width="0" stroke-linecap="butt"/><path d="M215.1379,140.964c0,0 -1.3243,-6.11289 -2.3417,-9.80099c-1.18027,-4.27846 -4.32413,-14.19601 -4.32413,-14.19601l32.82924,-10.83199l33.16253,10.66534c0,0 -3.36041,9.90595 -4.64237,14.16918c-1.06695,3.54824 -2.53854,10.07024 -2.53854,10.07024l-26.48021,-16.16213z" fill="#7e7e7e" stroke="none" stroke-width="0" stroke-linecap="butt"/><path d="M272.70224,118.24685l-6.81571,21.47156l-2.94801,28.95587c0,0 -20.71144,18.51246 -20.74498,18.53895c-0.87782,0.69365 -2.66733,0.40615 -3.05455,0.11666c-2.2713,-1.69813 -21.39163,-17.92569 -21.39163,-17.92569l-1.45772,-29.12552l-6.17961,-22.63177l31.19612,-10.79865z" fill="#ffffff" stroke="none" stroke-width="0" stroke-linecap="butt"/><path d="M216.32219,140.26834l-6.21352,-22.78288l31.21039,-10.64154l31.49606,11.35574l-7.49906,22.06867l-24.86316,-6.1659z" fill="#ffffff" stroke="none" stroke-width="0" stroke-linecap="butt"/><path d="M236.78672,134.63148c0,5.70623 -4.5139,10.33206 -10.08208,10.33206c-5.56818,0 -10.08208,-4.62583 -10.08208,-10.33206c0,-5.70623 5.43341,-13.39707 10.08208,-10.33204c11.94237,7.87402 10.08208,4.62581 10.08208,10.33204z" fill="#ffffff" stroke="none" stroke-width="0" stroke-linecap="butt"/><path d="M265.00542,134.68702c0,5.70623 -4.5139,10.33206 -10.08208,10.33206c-5.56818,0 -10.08208,-4.62583 -10.08208,-10.33206c0,-5.70623 -2.36025,-3.20793 10.08208,-10.33206c4.83214,-2.76675 10.08208,4.62583 10.08208,10.33206z" fill="#ffffff" stroke="none" stroke-width="0" stroke-linecap="butt"/><path d="M234.49534,131.7985c0,6.25844 -3.46937,11.33191 -7.74902,11.33191c-4.27968,0 -7.74902,-5.07347 -7.74902,-11.33191c0,-6.25844 3.46937,-11.33191 7.74902,-11.33191c4.27968,0 7.74902,5.07347 7.74902,11.33191z" fill="#1e0000" stroke="none" stroke-width="0" stroke-linecap="butt"/><path d="M262.78347,131.46519c0,6.25844 -3.46935,11.33191 -7.74902,11.33191c-4.27968,0 -7.74902,-5.07347 -7.74902,-11.33191c0,-6.25844 3.46937,-11.33193 7.74902,-11.33193c4.27968,0 7.74902,5.07347 7.74902,11.33193z" fill="#1e0000" stroke="none" stroke-width="0" stroke-linecap="butt"/><path d="M254.47381,172.61008c0,0 -5.60678,-2.12474 -14.3732,-2.12474c-8.76642,0 -14.12324,2.62466 -14.12324,2.62466c0,0 5.35682,-11.74854 14.12324,-11.74854c8.76642,0 14.3732,11.24859 14.3732,11.24859z" fill="#ffffff" stroke="none" stroke-width="0" stroke-linecap="butt"/></g></g></g></svg>