<svg version="1.1" xmlns="http://www.w3.org/2000/svg" xmlns:xlink="http://www.w3.org/1999/xlink" width="35.67311" height="35.67311" viewBox="0,0,35.67311,35.67311"><defs><linearGradient x1="222.91345" y1="180.00001" x2="257.08655" y2="180.00001" gradientUnits="userSpaceOnUse" id="color-1"><stop offset="0" stop-color="#9a0000"/><stop offset="1" stop-color="#000000"/></linearGradient></defs><g transform="translate(-222.16344,-162.16344)"><g data-paper-data="{&quot;isPaintingLayer&quot;:true}" stroke-width="1.5" stroke-miterlimit="10" stroke-dasharray="" stroke-dashoffset="0" style="mix-blend-mode: normal"><path d="M229.98311,162.91345h20.03379c3.9166,0 7.06966,3.15307 7.06966,7.06966v20.03379c0,3.91659 -3.15306,7.06966 -7.06966,7.06966h-20.03379c-3.91659,0 -7.06966,-3.15307 -7.06966,-7.06966v-20.03379c0,-3.91659 3.15307,-7.06966 7.06966,-7.06966z" fill="url(#color-1)" fill-rule="evenodd" stroke="#ffffff" stroke-linecap="round" stroke-linejoin="round"/><g fill-rule="nonzero" stroke="#000000" stroke-linecap="butt" stroke-linejoin="miter"><path d="M252.02599,173.99575c3.03972,6.08829 0.11968,13.71202 -6.52209,17.02808c-6.64177,3.31606 -14.49017,1.06872 -17.52989,-5.01957c-3.03972,-6.08829 -0.11968,-13.71202 6.52209,-17.02808c6.64177,-3.31606 14.49017,-1.06872 17.52989,5.01957z" fill="#ffffff"/><path d="M246.58566,176.71196c2.84234,5.69295 2.198,11.7801 -1.43916,13.59603c-3.63716,1.81594 -8.88983,-1.327 -11.73216,-7.01995c-2.84234,-5.69295 -2.198,-11.7801 1.43916,-13.59603c3.63716,-1.81594 8.88983,1.327 11.73216,7.01995z" fill="#000000"/></g></g></g></svg>