<svg version="1.1" xmlns="http://www.w3.org/2000/svg" xmlns:xlink="http://www.w3.org/1999/xlink" width="492.63939" height="367" viewBox="0,0,492.63939,367"><defs><linearGradient x1="240.5" y1="332" x2="240.5" y2="365" gradientUnits="userSpaceOnUse" id="color-1"><stop offset="0" stop-color="#ffffff"/><stop offset="1" stop-color="#ffffff" stop-opacity="0"/></linearGradient><linearGradient x1="240.89463" y1="-2" x2="240.89463" y2="32.69503" gradientUnits="userSpaceOnUse" id="color-2"><stop offset="0" stop-color="#ffffff" stop-opacity="0"/><stop offset="1" stop-color="#ffffff"/></linearGradient><linearGradient x1="-3.5" y1="180.23215" x2="29.5" y2="180.23215" gradientUnits="userSpaceOnUse" id="color-3"><stop offset="0" stop-color="#ffffff" stop-opacity="0"/><stop offset="1" stop-color="#ffffff"/></linearGradient><linearGradient x1="454.13939" y1="180.62057" x2="487.13939" y2="180.62057" gradientUnits="userSpaceOnUse" id="color-4"><stop offset="0" stop-color="#ffffff"/><stop offset="1" stop-color="#ffffff" stop-opacity="0"/></linearGradient><linearGradient x1="417.58064" y1="39.24387" x2="442.76428" y2="39.24387" gradientUnits="userSpaceOnUse" id="color-5"><stop offset="0" stop-color="#000000"/><stop offset="1" stop-color="#000000" stop-opacity="0"/></linearGradient><linearGradient x1="417.58064" y1="45.61947" x2="442.76428" y2="45.61947" gradientUnits="userSpaceOnUse" id="color-6"><stop offset="0" stop-color="#000000"/><stop offset="1" stop-color="#000000" stop-opacity="0"/></linearGradient></defs><g transform="translate(5.5,2)"><g data-paper-data="{&quot;isPaintingLayer&quot;:true}" fill-rule="nonzero" stroke-linejoin="miter" stroke-miterlimit="10" stroke-dasharray="" stroke-dashoffset="0" style="mix-blend-mode: normal"><path d="M-5.5,365l33,-33h424l35,33z" fill="url(#color-1)" stroke="none" stroke-width="0" stroke-linecap="butt"/><path d="M485.5,-2l-37,33l-418.21073,1.69503l-34,-33.48429z" data-paper-data="{&quot;index&quot;:null}" fill="url(#color-2)" stroke="none" stroke-width="0" stroke-linecap="butt"/><path d="M-3.5,-2l33,33v299.46429l-33,32z" fill="url(#color-3)" stroke="none" stroke-width="0" stroke-linecap="butt"/><path d="M487.13939,362.90984l-33,-30v-303.90576l33,-30.67277z" data-paper-data="{&quot;index&quot;:null}" fill="url(#color-4)" stroke="none" stroke-width="0" stroke-linecap="butt"/><path d="M28,331.5v-303h424v303z" fill="#ffffff" stroke="#000000" stroke-width="5" stroke-linecap="butt"/><path d="M34.75,325.0005v-72.50051h142.5v72.50051z" fill="#000000" stroke="none" stroke-width="0" stroke-linecap="butt"/><text transform="translate(40.5,269.7425) scale(0.37277,0.33334)" font-size="40" xml:space="preserve" fill="#ffffff" fill-rule="nonzero" stroke="none" stroke-width="1" stroke-linecap="butt" stroke-linejoin="miter" stroke-miterlimit="10" stroke-dasharray="" stroke-dashoffset="0" font-family="Serif" font-weight="normal" text-anchor="start" style="mix-blend-mode: normal"><tspan x="0" dy="0">Name: Jas0N</tspan><tspan x="0" dy="46.150000000000006px">Age: 27</tspan><tspan x="0" dy="46.150000000000006px">Status: Alive</tspan><tspan x="0" dy="46.150000000000006px">Role: Scientist</tspan></text><path d="M194.25,59v-19.5h117.84467v19.5z" fill="#000000" stroke="none" stroke-width="0" stroke-linecap="butt"/><text transform="translate(199.22954,53.9009) scale(0.42192,0.42192)" font-size="40" xml:space="preserve" fill="#ffffff" fill-rule="nonzero" stroke="none" stroke-width="1" stroke-linecap="butt" stroke-linejoin="miter" stroke-miterlimit="10" stroke-dasharray="" stroke-dashoffset="0" font-family="Serif" font-weight="normal" text-anchor="start" style="mix-blend-mode: normal"><tspan x="0" dy="0">Documentation:</tspan></text><path d="M429.07853,298.09424h-241v-236.31414" fill="none" stroke="#000000" stroke-width="5" stroke-linecap="round"/><path d="M37.83201,243v-205h136.5312v205z" fill="#174752" stroke="#151515" stroke-width="6.5" stroke-linecap="butt"/><path d="M37.83201,243v-205h136.5312v205z" fill="#ffffff" stroke="#151515" stroke-width="6.5" stroke-linecap="butt"/><text transform="translate(349.55711,323.11998) scale(0.35959,0.35959)" font-size="40" xml:space="preserve" fill="#000000" fill-rule="nonzero" stroke="none" stroke-width="1" stroke-linecap="butt" stroke-linejoin="miter" stroke-miterlimit="10" stroke-dasharray="" stroke-dashoffset="0" font-family="Serif" font-weight="normal" text-anchor="start" style="mix-blend-mode: normal"><tspan x="0" dy="0">Click this to exit</tspan></text><text transform="translate(197.47954,82.15234) scale(0.32215,0.2873)" font-size="40" xml:space="preserve" fill="#000000" fill-rule="nonzero" stroke="none" stroke-width="1" stroke-linecap="butt" stroke-linejoin="miter" stroke-miterlimit="10" stroke-dasharray="" stroke-dashoffset="0" font-family="Serif" font-weight="normal" text-anchor="start" style="mix-blend-mode: normal"><tspan x="0" dy="0">Doctor Jason Fawkes is one of our</tspan><tspan x="0" dy="48px">leading researchers and scientists.</tspan><tspan x="0" dy="48px">Relating to his cybernetic parts:</tspan><tspan x="0" dy="48px">One day, Jason went to the male</tspan><tspan x="0" dy="48px">restroom. He went to wash his face,</tspan><tspan x="0" dy="48px">when he begun running the tap, a</tspan><tspan x="0" dy="48px">shadowy figure that he did not</tspan><tspan x="0" dy="48px">recognise apparently poured</tspan><tspan x="0" dy="48px">undiluted HCl into the dispenser,</tspan><tspan x="0" dy="48px">and forced Jasons head under. He burnt all</tspan><tspan x="0" dy="48px">of his face, and when the shadow went, he</tspan><tspan x="0" dy="48px">laid alive but unable to move, in a state of</tspan><tspan x="0" dy="48px">paralysis. Professor Drummond found him</tspan><tspan x="0" dy="48px">on the brink of death, and the rest is history.</tspan><tspan x="0" dy="48px">We just call him Jas0n with a zero because its</tspan><tspan x="0" dy="48px">a fitting nickname.</tspan></text><g><path d="M376.458,50.08239l65.9875,-0.31878" fill="none" stroke="#000000" stroke-width="3" stroke-linecap="round"/><g stroke="none" stroke-linecap="butt"><g fill="#000000" stroke-width="1" font-weight="normal" font-size="40" text-anchor="start"><text transform="translate(376.45799,48.48849) scale(0.33457,0.33457)" font-size="40" xml:space="preserve" fill="#000000" fill-rule="nonzero" stroke="none" stroke-width="1" stroke-linecap="butt" stroke-linejoin="miter" stroke-miterlimit="10" stroke-dasharray="" stroke-dashoffset="0" font-family="Pixel" font-weight="normal" text-anchor="start" style="mix-blend-mode: normal"><tspan x="0" dy="0">DONK</tspan></text><text transform="translate(375.65959,62.03519) scale(0.33457,0.33457)" font-size="40" xml:space="preserve" fill="#000000" fill-rule="nonzero" stroke="none" stroke-width="1" stroke-linecap="butt" stroke-linejoin="miter" stroke-miterlimit="10" stroke-dasharray="" stroke-dashoffset="0" font-family="Sans Serif" font-weight="normal" text-anchor="start" style="mix-blend-mode: normal"><tspan x="0" dy="0">Industries</tspan></text></g><path d="M417.58064,41.15655v-3.82536h25.18364v3.82536z" fill="url(#color-5)" stroke-width="0"/><path d="M417.58064,47.47902v-3.7191h25.18364v3.7191z" fill="url(#color-6)" stroke-width="0"/></g></g><path d="M73.22812,241.27013v-178.61749h64.31713c0,0 0,44.40989 0,70.38599c0,32.21126 0,108.23149 0,108.23149z" fill-opacity="0.01" fill="#000000" stroke="none" stroke-width="0" stroke-linecap="butt"/><path d="M118.75853,144.63493c0,0 9.09819,-8.30765 10.17113,-12.49958c0.92803,-3.62578 -6.00945,-9.01422 -6.00945,-9.01422l1.41074,-6.20726c0,0 11.36753,10.55804 10.32641,14.44493c-1.07396,4.00947 -10.8907,14.61634 -10.8907,14.61634z" fill="#2d0000" stroke="none" stroke-width="0" stroke-linecap="butt"/><path d="M118.50459,144.81833c0,0 5.88025,-5.66688 7.74102,-8.10512c1.43882,-1.88535 2.98061,-5.29692 2.98061,-5.29692c0,0 1.59172,1.19335 2.46495,1.22738c0.93323,0.03636 3.10748,-1.01577 3.10748,-1.01577c0,0 -2.86254,4.87806 -4.66086,7.24124c-1.86703,2.45347 -6.34292,7.21886 -6.34292,7.21886z" fill="#610000" stroke="none" stroke-width="0" stroke-linecap="butt"/><path d="M76.54943,239.44491c0,0 -0.20878,-31.05657 -0.306,-45.51729c-0.0885,-13.16484 -0.25361,-37.72491 -0.25361,-37.72491c0,0 2.40216,-10.78634 10.16648,-18.47574c0,2.08399 0,4.16798 0,6.25197c0,2.4688 0,4.93759 0,7.40639c0,1.64774 0,3.29549 0,4.94323c-0.25075,-0.09844 0.14748,0.01794 -0.22862,0.01611c-0.01611,-0.00008 -0.03199,-0.00016 -0.04763,-0.00024l-2.39477,83.04056z" fill="#000000" stroke="#000000" stroke-width="2" stroke-linecap="butt"/><path d="M75.57574,143.27357l10.57165,-7.86428c-0.07771,8.40265 -0.13311,16.80564 -0.16497,25.20876z" fill="#272727" stroke="none" stroke-width="0" stroke-linecap="butt"/><path d="M132.45534,156.18552l0.46152,83.2242l-7.40404,0.06781l-2.22814,-83.12307c0,0 -0.02118,-0.03348 -0.05513,-0.06693c-0.01517,-0.01493 0.28528,-0.02986 -0.34428,-0.0418c-0.14364,-0.00272 0.25148,0.0026 0.12665,0.01503c0,-1.33124 0,-2.66248 0,-3.99372c0,-2.4688 0,-4.93759 0,-7.40639c0,-2.18055 0,-4.3611 0,-6.54166c7.16597,7.63303 9.44343,17.86652 9.44343,17.86652z" fill="#000000" stroke="#000000" stroke-width="2" stroke-linecap="butt"/><path d="M133.06229,143.27328l-9.69768,17.8109l-0.34926,-0.00165c-0.02175,-8.79663 -0.07947,-17.51759 -0.17205,-25.9325z" fill="#272727" stroke="none" stroke-width="0" stroke-linecap="butt"/><path d="M75.51931,143.4358c0,0 13.50493,-13.42551 28.3559,-13.54312c8.14309,-0.06448 14.94351,2.75991 19.92721,5.84554c5.91874,3.66456 9.27513,7.69758 9.27513,7.69758z" fill="#101010" stroke="none" stroke-width="0" stroke-linecap="butt"/><path d="M122.65923,137.94956c0,2.3037 -0.5643,4.60739 -0.5643,6.91109c0,2.4688 0,4.93759 0,7.40639c0,1.35084 0,2.70169 0,4.05253c-1.58998,0.38428 -0.75822,2.12383 -0.75822,2.12383l0.14494,81.02589l-34.0085,0.05094l-0.21541,-81.28204c0,0 0.3908,-1.13471 -0.4666,-1.72385c0,-1.70968 0.14107,-3.41934 0.14107,-5.12902c0,-2.4688 0,-4.93759 0,-7.40639c0,-2.19851 -0.42322,-4.39702 -0.42322,-6.59553c1.83095,-1.75421 3.95044,-3.33202 6.39495,-4.5623c0.16435,0.86222 0.35754,1.72481 0.53526,2.61866c0.41973,2.10649 1.45947,5.10184 2.56159,6.94993c1.29067,2.4676 2.20796,4.33619 5.32675,4.40692c2.49062,0.01816 4.89198,0.31182 7.37598,0.18743c1.48979,-0.65691 2.16056,-1.53068 3.09086,-2.6705c0.62947,-0.77123 0.77152,-2.11318 1.57621,-2.64709c0.58763,-2.37982 2.27943,-4.49581 2.40154,-7.02184c0.11984,-0.56072 0.23019,-1.11977 0.33185,-1.67803c2.52948,1.34202 4.70044,3.07247 6.55526,4.98299z" fill="#ffffff" stroke="#000000" stroke-width="2" stroke-linecap="butt"/><path d="M116.13455,239.55665v-107.39268h2.82148v107.39268z" fill="#000000" stroke="#000000" stroke-width="2" stroke-linecap="butt"/><path d="M89.8595,239.46848v-107.30451h2.64514v107.30451z" fill="#000000" stroke="#000000" stroke-width="2" stroke-linecap="butt"/><path d="M104.34714,130.15965c4.434,-0.02213 8.21616,0.99427 11.43038,2.63692c-0.10972,0.59963 -0.22837,1.20006 -0.35514,1.80252c-0.12866,2.49791 -1.93561,4.49076 -2.34156,6.8663c-0.79097,0.48357 -0.95245,1.88647 -1.55929,2.62468c-0.89852,1.09304 -1.49832,1.90341 -2.90072,2.55112c-2.45233,0.12396 -4.82667,-0.17935 -7.28801,-0.19722c-2.97245,-0.06667 -3.80014,-1.862 -5.02436,-4.22673c-1.09146,-1.79364 -2.11481,-4.78705 -2.52332,-6.84624c-0.18418,-0.92629 -0.38576,-1.8184 -0.55383,-2.7116c3.15028,-1.52723 6.83044,-2.47836 11.11587,-2.49974z" fill="#000000" stroke="#000000" stroke-width="2" stroke-linecap="butt"/><path d="M115.62496,166.18666c-0.40286,0 -0.72943,-0.32658 -0.72943,-0.72943c0,-0.40286 0.32658,-0.72944 0.72943,-0.72944c0.40286,0 0.72943,0.32659 0.72943,0.72944c0,0.40286 -0.32658,0.72943 -0.72943,0.72943z" fill="#000000" stroke="none" stroke-width="1.5" stroke-linecap="butt"/><path d="M111.9148,169.17432c-3.14842,-0.22176 -4.62191,-1.26538 -4.35203,-1.81993c0.08315,-0.17087 2.0078,0.7502 4.9167,0.92037c4.5207,0.26446 6.00294,-0.4456 6.00294,-0.4456v0.94954c0,0 -1.70241,0.73833 -6.56761,0.39564z" fill="#000000" stroke="#000000" stroke-width="0" stroke-linecap="butt"/><path d="M92.29651,165.45723c0,-0.40286 0.32658,-0.72944 0.72943,-0.72944c0.40286,0 0.72944,0.32659 0.72944,0.72944c0,0.40286 -0.32659,0.72943 -0.72944,0.72943c-0.40286,0 -0.72943,-0.32658 -0.72943,-0.72943z" fill="#000000" stroke="none" stroke-width="1.5" stroke-linecap="butt"/><path d="M96.73609,169.17432c-4.8652,0.3427 -6.56761,-0.39564 -6.56761,-0.39564v-0.94954c0,0 1.48224,0.71007 6.00294,0.4456c2.9089,-0.17018 4.83356,-1.09124 4.91671,-0.92037c0.26987,0.55455 -1.2036,1.59817 -4.35203,1.81993z" fill="#000000" stroke="#000000" stroke-width="0" stroke-linecap="butt"/><path d="M104.693,209.06428c-0.57766,0 -1.04595,-0.46829 -1.04595,-1.04595c0,-0.57766 0.46829,-1.04595 1.04595,-1.04595c0.57766,0 1.04595,0.46829 1.04595,1.04595c0,0.57766 -0.46829,1.04595 -1.04595,1.04595z" data-paper-data="{&quot;index&quot;:null}" fill="#000000" stroke="none" stroke-width="1.5" stroke-linecap="butt"/><path d="M86.66143,193.15927v-48.15603c0,0 0.5477,-3.93123 0.5477,-5.91414c0,-1.81714 -0.5477,-5.52947 -0.5477,-5.52947c0,0 1.93355,-0.95057 3.36754,-1.51418c1.43398,-0.56361 3.74095,-1.13266 3.74095,-1.13266c0,0 -0.43515,16.20358 10.53111,16.17516c11.16419,-0.02893 10.00455,-16.17516 10.00455,-16.17516c0,0 2.83015,0.6139 4.45985,1.19037c1.6297,0.57647 3.43848,1.45647 3.43848,1.45647c0,0 -0.54771,3.80744 -0.54771,5.73341c0,1.95608 0.54771,5.91414 0.54771,5.91414v47.9521l-17.53163,9.34616z" fill="#dedede" stroke="#7f7f7f" stroke-width="0" stroke-linecap="butt"/><path d="M85.80362,193.70757l0.35269,-60.83822c0,0 3.65335,10.51896 7.95542,19.98037c3.51606,7.73277 10.20787,14.75913 10.20787,14.75913c0,0 7.37194,-9.06959 10.15255,-14.31301c3.3015,-6.22569 8.36343,-20.60283 8.36343,-20.60283v61.1909l-18.33964,8.99348z" fill="#858585" stroke="none" stroke-width="0" stroke-linecap="butt"/><path d="M85.97996,240.26202l0.17634,-29.97825l18.86866,21.69015l17.81061,-21.69015l0.35269,29.97825z" fill="#767676" stroke="none" stroke-width="0" stroke-linecap="butt"/><path d="M86.09752,217.41977l0.1881,-6.92438l18.56301,21.30219l17.91641,-21.408l0.11756,7.12424l-18.21031,22.57186z" fill="#434343" stroke="none" stroke-width="0" stroke-linecap="butt"/><path d="M85.62728,194.23659v-4.23222l19.04501,10.05153l18.33964,-10.05153v4.23222l-18.33964,8.99348z" fill="#343434" stroke="none" stroke-width="0" stroke-linecap="butt"/><path d="M86.1563,169.37228v-8.11176l18.69232,19.92672l17.81061,-20.45575l-0.05878,8.64079c0,0 -6.5011,9.93014 -9.69176,12.83365c-2.53553,2.30734 -7.70738,5.68233 -7.70738,5.68233c0,0 -6.11446,-2.98107 -8.92745,-5.71592c-1.59495,-1.55064 -3.90523,-4.44239 -5.91558,-7.08547c-2.29672,-3.01956 -4.20198,-5.71459 -4.20198,-5.71459z" fill="#dedede" stroke="none" stroke-width="0" stroke-linecap="butt"/><path d="M85.80362,190.5334l0.45849,-57.02922l2.32772,6.06619l0.03527,51.98582z" fill="#5b5b5b" stroke="none" stroke-width="0" stroke-linecap="butt"/><path d="M120.16524,191.35465l0.03527,-51.98582l2.32772,-6.06619l0.45849,57.02922z" data-paper-data="{&quot;index&quot;:null}" fill="#5b5b5b" stroke="none" stroke-width="0" stroke-linecap="butt"/><path d="M86.0065,169.12238l0.09405,-8.41742l2.44529,3.2447v8.84064z" fill="#858585" stroke="none" stroke-width="0" stroke-linecap="butt"/><path d="M120.09941,172.9784v-8.84064l2.55849,-3.2447l0.0984,8.41743z" data-paper-data="{&quot;index&quot;:null}" fill="#858585" stroke="none" stroke-width="0" stroke-linecap="butt"/><path d="M86.05352,240.22373l0.08817,-22.83637l1.76343,1.67526v21.16112z" fill="#5b5b5b" stroke="none" stroke-width="0" stroke-linecap="butt"/><path d="M121.32205,240.22373v-21.16112l1.59548,-1.67526l0.07977,22.83637z" data-paper-data="{&quot;index&quot;:null}" fill="#5b5b5b" stroke="none" stroke-width="0" stroke-linecap="butt"/><path d="M86.10524,217.54137v-7.14775l1.97504,1.92802l-0.14107,7.2418z" fill="#767676" stroke="none" stroke-width="0" stroke-linecap="butt"/><path d="M121.23427,219.61045l-0.14107,-7.2418l1.758,-2.03653l0.10852,7.31053z" data-paper-data="{&quot;index&quot;:null}" fill="#767676" stroke="none" stroke-width="0" stroke-linecap="butt"/><path d="M134.65053,189.82803v50.434h-10.58056c0,-1.05806 0,-2.11611 0,-3.17417c0,-2.4688 0,-4.93759 0,-7.40639c0,-2.4688 0,-4.93759 0,-7.40639c0,-2.4688 0,-4.93759 0,-7.40639c0,-2.0142 0,-4.02841 0,-6.04261z" fill="#f1f1f1" stroke="none" stroke-width="0" stroke-linecap="butt"/><path d="M74.69403,240.26202v-50.434l10.22787,18.17979c0,1.81671 0,3.63342 0,5.45012c0,2.4688 0,4.93759 0,7.40639c0,2.4688 0,4.93759 0,7.40639c0,1.99855 0,3.9971 0,5.99565c0,0.47025 0,0.94049 0,1.41074c0,1.52831 0,3.0566 0,4.58491z" fill="#f1f1f1" stroke="none" stroke-width="0" stroke-linecap="butt"/><path d="M104.5356,240.26202h0.62239l-0.30936,0.52903z" fill="#f1f1f1" stroke="none" stroke-width="0" stroke-linecap="butt"/><path d="M74.87037,240.26202l0.27039,-37.81962l9.6048,28.64981v9.16982z" fill="#646464" stroke="none" stroke-width="0" stroke-linecap="butt"/><path d="M124.599,240.26202v-9.16982l9.87519,-28.74385v37.91367z" data-paper-data="{&quot;index&quot;:null}" fill="#646464" stroke="none" stroke-width="0" stroke-linecap="butt"/><path d="M74.87037,240.08568c0,0 0.25436,-25.80268 0.3433,-34.82478c0.05653,-5.73452 0.1387,-14.06915 0.1387,-14.06915l2.55344,4.45559l-0.52903,44.43835z" fill="#3a3a3a" stroke="none" stroke-width="0" stroke-linecap="butt"/><path d="M132.00539,240.08568l-0.52903,-44.43835l2.50641,-4.40857l0.52903,48.84692z" data-paper-data="{&quot;index&quot;:null}" fill="#3a3a3a" stroke="none" stroke-width="0" stroke-linecap="butt"/><path d="M75.13371,202.62581l0.28215,-11.427l2.44528,4.32627l-0.18809,14.85981z" fill="#626262" stroke="none" stroke-width="0" stroke-linecap="butt"/><path d="M131.57512,211.44294l-0.18809,-15.26955l2.44528,-4.44556l0.28215,11.74209z" data-paper-data="{&quot;index&quot;:null}" fill="#626262" stroke="none" stroke-width="0" stroke-linecap="butt"/><g><path d="M73.51388,98.15108c0,0 4.3474,-4.17711 4.43792,-4.78778c0.14379,-0.97014 0.1131,-11.11857 5.73108,-19.19c3.65692,-5.25395 9.70725,-9.62785 19.75707,-10.01739c31.48516,-0.64444 27.4024,24.81639 29.17711,29.64224c2.43339,6.61697 4.34271,12.27356 4.34271,12.27356c0,0 -1.95187,-1.44849 -2.8777,-2.21061c-0.86351,-0.71082 -2.68142,-2.21899 -2.68142,-2.21899c0,0 2.18038,7.29925 0.92468,14.59763c-1.102,6.6876 -5.14767,12.15031 -5.14767,12.15031l-0.81486,-1.65575c0,0 -0.72135,1.55036 -1.52364,2.35082c-0.80229,0.80045 -2.42558,2.05455 -2.42558,2.05455l-0.06493,-2.61284c0,0 -4.97999,7.77174 -17.17624,7.66847c-11.50195,-0.1802 -18.39008,-7.52997 -18.39008,-7.52997l-0.08196,1.87265c0,0 -2.74726,-2.32262 -4.36021,-6.84741c-1.92245,-5.39303 -2.28502,-8.63602 -2.28502,-8.63602c0,0 -1.64992,1.33961 -4.03263,1.95698c-2.98568,0.7736 -4.89996,0.24354 -4.89996,0.24354c0,0 2.54494,-1.91661 3.93876,-3.36454c1.2415,-1.2897 1.86682,-2.38219 1.86682,-2.38219c0,0 -1.48663,0.76512 -2.98567,1.14125c-1.56408,0.39247 -2.8427,0.3745 -2.8427,0.3745c0,0 3.50916,-3.55315 4.95928,-7.6704c1.36914,-3.88735 1.48108,-7.72896 1.48108,-7.72896c0,0 -0.96047,0.46669 -2.34898,0.56086c-0.88013,0.0597 -1.67727,-0.03449 -1.67727,-0.03449z" fill="#000000" stroke="none" stroke-width="1.5" stroke-linecap="butt"/><path d="M124.57353,100.16368v-29.508l2.80189,2.23368v27.27433z" fill="#404040" stroke="none" stroke-width="0" stroke-linecap="butt"/><path d="M82.70684,100.28124v-26.09871l2.94884,-2.70393l-0.47025,28.80264z" fill="#404040" stroke="none" stroke-width="0" stroke-linecap="butt"/><path d="M129.67767,100.7263c0,0.09382 -0.22408,2.51667 -0.92058,5.26632c-0.48072,1.89781 -1.37117,3.88976 -1.81569,5.62991c-0.53698,2.10206 -7.63892,5.54616 -7.63892,5.54616c0,0 5.40289,-3.49236 3.13799,-5.49329c-3.70919,-3.27689 -10.01126,-7.59859 -17.45076,-7.59859c-7.66821,0 -14.42102,5.11061 -18.01388,8.19798c-1.5549,1.33613 3.0735,4.99725 3.0735,4.99725c0,0 -6.27865,-4.4356 -6.79989,-6.70432c-0.27512,-1.19747 -1.40678,-2.54454 -1.70798,-3.86557c-0.76152,-3.33994 -0.65191,-6.51336 -0.65191,-6.68123c0,-1.72058 10.20566,-2.1749 24.10017,-2.1749c13.8945,0 24.68797,1.15969 24.68797,2.88027z" fill="#ababab" stroke="none" stroke-width="0" stroke-linecap="butt"/><path d="M82.77052,110.62668c0,0 -1.25122,-1.98605 -1.59036,-3.70186c-0.37998,-1.92249 -0.56047,-4.21363 -0.61461,-4.78748c-0.09245,-0.98001 0.20641,-2.79659 0.20641,-2.79659c0,0 16.01905,-4.31578 25.05318,-4.57703c11.57275,-0.33465 23.85252,5.75265 23.85252,5.75265c0,0 -0.20716,2.21139 -0.37982,3.0747c-0.12563,0.62814 -1.97142,7.03562 -1.97142,7.03562c0,0 -14.47196,-3.72306 -21.9865,-3.7623c-7.49413,-0.03913 -22.56941,3.7623 -22.56941,3.7623z" fill="#565656" stroke="none" stroke-width="0" stroke-linecap="butt"/><path d="M119.26132,95.47156c0,0 1.07519,0.22436 3.00192,0.78317c1.75984,0.51041 3.13844,1.23019 3.13844,1.23019l0.13762,0.82553c0,0 -5.11368,-2.20779 -10.66224,-1.74269c-4.4365,0.3719 -7.02774,1.98378 -7.02774,1.98378l0.03227,-2.94621c0,0 2.20603,-1.2021 5.54679,-1.30886c3.45934,-0.11055 5.70704,0.41705 5.70704,0.41705z" data-paper-data="{&quot;index&quot;:null}" fill="#000000" stroke="none" stroke-width="1.5" stroke-linecap="butt"/><path d="M110.25787,125.79372c0.40234,0.14944 2.17506,0.98711 4.24905,1.83104c2.09051,0.85066 5.08828,1.61737 5.07452,1.73556c-0.01746,0.15 -7.36038,0.16008 -9.64903,0.44596c-1.91792,0.23957 -4.71799,0.49774 -4.71799,0.49774c0,0 -5.01096,-0.81942 -9.36193,-1.72478c-3.48715,-0.72561 -7.33535,-1.17168 -7.34287,-1.23765c-0.01015,-0.08897 2.72862,-0.50131 4.81357,-0.98376c0.80825,-0.35029 3.83701,-1.04757 3.83701,-1.04757c0,0 3.49571,-0.19585 5.36664,0.40841c2.00468,0.64747 2.00005,1.72503 2.17473,1.7416c0,0 0.83541,-1.23392 1.67092,-1.48453c0.83552,-0.2506 3.58483,-0.29367 3.88538,-0.18204z" fill="#ffffff" stroke="#000000" stroke-width="1.4" stroke-linecap="butt"/><path d="M97.10413,129.00567c3.59114,0.72423 8.4063,1.98023 8.4063,1.98023c0,0 4.08393,-1.09745 5.95811,-1.29393c1.45301,-0.15233 7.91144,-0.49837 7.94266,-0.23543c0.03053,0.25709 -6.37034,9.09951 -14.91723,8.77985c-9.71263,-0.30739 -16.12801,-10.6762 -16.10132,-10.7955c0.02669,-0.1193 5.12036,0.84055 8.7115,1.56479z" fill="#ffffff" stroke="#000000" stroke-width="1.9" stroke-linecap="butt"/><path d="M104.84505,126.89403c-0.72918,0 -2.49567,-2.2998 -2.67103,-3.7834c-0.1569,-1.32741 0.92765,-2.70015 2.67103,-2.70015c1.74339,0 2.96404,0.34617 2.84264,2.95447c-0.10303,2.21358 -1.09926,3.52909 -2.84264,3.52909z" fill="#ffffff" stroke="#000000" stroke-width="1.15" stroke-linecap="butt"/><path d="M107.38587,105.66681c0,0 0.07237,2.80015 0.00406,5.02691c-0.13525,4.40936 -0.76284,19.58158 -0.76284,19.58158l-2.10318,0.00609c0,0 -0.56637,-2.94333 -0.79229,-6.70087c-0.3058,-5.08617 -0.31706,-11.49275 -0.53851,-13.84804c-0.2099,-2.23259 -0.63196,-4.03086 -0.63196,-4.03086" fill="#ffffff" stroke="#000000" stroke-width="1.3" stroke-linecap="round"/><path d="M88.53569,105.79827c0.05003,-3.45059 3.41282,-6.30326 7.2028,-6.24831c3.78997,0.05495 6.36755,2.9967 6.31753,6.44729c-0.05003,3.45059 -2.90861,6.2033 -6.69859,6.14836c-3.78997,-0.05495 -6.87177,-2.89675 -6.82174,-6.34734z" fill="#ffffff" stroke="#000000" stroke-width="1.4" stroke-linecap="butt"/><path d="M91.66586,105.88147c0.02821,-1.94572 1.62838,-3.50014 3.57408,-3.47193c1.94572,0.02821 3.50014,1.62838 3.47193,3.57408c-0.02821,1.94572 -1.62838,3.50014 -3.57408,3.47193c-1.94572,-0.02821 -3.50014,-1.62838 -3.47193,-3.57408z" fill="#000000" stroke="none" stroke-width="1.5" stroke-linecap="butt"/><path d="M107.62039,105.79879c0.14356,-3.44797 3.14076,-6.2485 6.89181,-6.2485c3.75104,0 6.54198,2.79755 6.54198,6.2485c0,3.45096 -2.74096,6.39845 -6.84184,6.44841c-3.90068,0.04753 -6.74188,-2.84752 -6.59195,-6.44841z" fill="#ffffff" stroke="#000000" stroke-width="1.4" stroke-linecap="butt"/><path d="M110.86704,105.85913c0,-1.98805 1.61163,-3.59968 3.59968,-3.59968c1.98805,0 3.59968,1.61163 3.59968,3.59968c0,1.98805 -1.61162,3.59968 -3.59968,3.59968c-1.98805,0 -3.59968,-1.61163 -3.59968,-3.59968z" fill="#000000" stroke="none" stroke-width="1.5" stroke-linecap="butt"/><path d="M88.48741,105.42289c0,0 0.04484,-6.359 7.47771,-6.22483c6.68057,0.11699 6.7402,6.63558 6.7402,6.63558z" fill="#ffffff" stroke="#000000" stroke-width="1.15" stroke-linecap="butt"/><path d="M107.35401,105.51522c0,0 -0.17413,-6.67154 7.89883,-6.42113c6.85216,0.23522 6.73401,6.80844 6.73401,6.80844z" fill="#ffffff" stroke="#000000" stroke-width="1.15" stroke-linecap="butt"/><path d="M90.97727,98.36096c0,0 2.37684,-1.28307 5.66585,-1.6095c3.64464,-0.36174 5.47948,-0.04675 5.47948,-0.04675l0.20814,2.91845c0,0 -2.70548,-0.48011 -5.65563,-0.36759c-3.94546,0.15048 -4.6871,1.01075 -7.68695,1.33399c-2.57043,0.27697 -4.75224,0.11204 -4.75224,0.11204l-0.01826,-0.8687c0,0 2.53593,0.05218 3.69171,-0.04822c0.95394,-0.08287 2.80434,-0.66169 2.80434,-0.66169z" fill="#000000" stroke="none" stroke-width="1.5" stroke-linecap="butt"/><path d="M123.48452,108.02621l-2.37491,22.54439c0,0 -10.8596,10.35203 -14.58778,12.52509c-0.98348,0.57325 -2.15285,0.4812 -2.15285,0.4812c0,0 -1.54315,-0.09993 -2.85238,-0.97721c-4.00042,-2.68056 -14.19224,-13.13802 -14.19224,-13.13802l-0.73071,-20.589l-4.60093,-16.18091l22.79948,-7.37846l23.35732,7.44277z" fill="#d6d6d6" stroke="none" stroke-width="0" stroke-linecap="butt"/><path d="M86.54319,109.80374c0,0 -0.93424,-4.3124 -1.65197,-6.91419c-0.83263,-3.01828 -3.0505,-10.0147 -3.0505,-10.0147l23.15967,-7.64152l23.39479,7.52396c0,0 -2.37064,6.98823 -3.27499,9.99576c-0.75269,2.50313 -1.79084,7.10413 -1.79084,7.10413l-18.68069,-11.40171z" fill="#7e7e7e" stroke="none" stroke-width="0" stroke-linecap="butt"/><path d="M127.15245,93.77772l-4.8082,15.1473l-2.07969,20.42717c0,0 -14.61106,13.05977 -14.63473,13.07847c-0.61927,0.48934 -1.88169,0.28652 -2.15486,0.0823c-1.60231,-1.19795 -15.0909,-12.64584 -15.0909,-12.64584l-1.02836,-20.54684l-4.35946,-15.96578l22.00756,-7.618z" fill="#3e0000" stroke="none" stroke-width="0" stroke-linecap="butt"/><path d="M87.37865,109.31297l-4.38337,-16.07237l22.01764,-7.50716l22.21918,8.011l-5.29028,15.56854l-17.53993,-4.34979z" fill="#1e0000" stroke="none" stroke-width="0" stroke-linecap="butt"/><path d="M101.81553,105.3364c0,4.02551 -3.18437,7.28883 -7.11249,7.28883c-3.92812,0 -7.11248,-3.26333 -7.11248,-7.28883c0,-4.02551 3.18437,-7.28883 7.11248,-7.28883c3.92812,0 7.11249,3.26332 7.11249,7.28883z" fill="#770000" stroke="none" stroke-width="0" stroke-linecap="butt"/><path d="M121.72266,105.37558c0,4.02551 -3.18437,7.28883 -7.11249,7.28883c-3.92812,0 -7.11248,-3.26333 -7.11248,-7.28883c0,-4.02551 3.18437,-7.28883 7.11248,-7.28883c3.92812,0 7.11249,3.26333 7.11249,7.28883z" fill="#770000" stroke="none" stroke-width="0" stroke-linecap="butt"/><path d="M100.19906,103.33785c0,4.41508 -2.4475,7.9942 -5.46662,7.9942c-3.01913,0 -5.46662,-3.57913 -5.46662,-7.9942c0,-4.41508 2.4475,-7.9942 5.46662,-7.9942c3.01913,0 5.46662,3.57913 5.46662,7.9942z" fill="#1e0000" stroke="none" stroke-width="0" stroke-linecap="butt"/><path d="M120.15516,103.10272c0,4.41508 -2.44749,7.9942 -5.46662,7.9942c-3.01913,0 -5.46662,-3.57912 -5.46662,-7.9942c0,-4.41508 2.4475,-7.99421 5.46662,-7.99421c3.01913,0 5.46662,3.57913 5.46662,7.99421z" fill="#1e0000" stroke="none" stroke-width="0" stroke-linecap="butt"/><path d="M114.3812,130.3653c0,0 -4.21987,-2.29245 -10.40422,-2.29245c-6.18435,0 -10.58056,2.38063 -10.58056,2.38063c0,0 4.57255,-6.26016 10.7569,-6.26016c6.18435,0 10.22787,6.17199 10.22787,6.17199z" fill="#770000" stroke="none" stroke-width="0" stroke-linecap="butt"/></g></g></g></svg>