<svg version="1.1" xmlns="http://www.w3.org/2000/svg" xmlns:xlink="http://www.w3.org/1999/xlink" width="93.36936" height="250.93658" viewBox="0,0,93.36936,250.93658"><g transform="translate(-192.75693,-54.56327)"><g data-paper-data="{&quot;isPaintingLayer&quot;:true}" fill-rule="nonzero" stroke-linejoin="miter" stroke-miterlimit="10" stroke-dasharray="" stroke-dashoffset="0" style="mix-blend-mode: normal"><path d="M201.54535,304.39158c0,0 -0.63536,-94.38387 -0.79335,-118.01201c-0.05451,-8.15261 8.18688,-36.76129 40.20201,-36.9211c31.60235,-0.15775 39.85672,29.48704 39.84884,36.89673c-0.07659,46.24274 0.65429,117.98648 0.65429,117.98648l-10.49667,0.09614l-0.15882,-114.84311c0,0 0.07549,-3.0993 -2.81625,-3.15415c-3.43441,-0.06514 -2.94538,3.11562 -2.94538,3.11562l0.20548,114.86995l-48.21366,0.07222l-0.30539,-115.23309c0,0 0.27949,-2.919 -2.8856,-2.93443c-3.11083,-0.01515 -2.81569,2.90899 -2.81569,2.90899l0.35311,115.0668z" fill="#000000" stroke="#000000" stroke-width="2" stroke-linecap="butt"/><path d="M256.14251,200.33376c-0.57113,0 -1.03411,-0.46299 -1.03411,-1.03411c0,-0.57113 0.46299,-1.03413 1.03411,-1.03413c0.57113,0 1.03411,0.463 1.03411,1.03413c0,0.57113 -0.46299,1.03411 -1.03411,1.03411z" fill="#000000" stroke="none" stroke-width="1.5" stroke-linecap="butt"/><path d="M250.88264,204.56935c-4.4635,-0.31439 -6.55245,-1.79392 -6.16985,-2.58011c0.11788,-0.24224 2.84645,1.06355 6.97038,1.3048c6.40897,0.37493 8.51033,-0.63173 8.51033,-0.63173v1.34616c0,0 -2.4135,1.04672 -9.31086,0.56089z" fill="#000000" stroke="#000000" stroke-width="0" stroke-linecap="butt"/><path d="M223.06989,199.29965c0,-0.57113 0.46299,-1.03413 1.03411,-1.03413c0.57113,0 1.03413,0.463 1.03413,1.03413c0,0.57113 -0.463,1.03411 -1.03413,1.03411c-0.57113,0 -1.03411,-0.46299 -1.03411,-1.03411z" fill="#000000" stroke="none" stroke-width="1.5" stroke-linecap="butt"/><path d="M229.36386,204.56935c-6.89736,0.48585 -9.31086,-0.56089 -9.31086,-0.56089v-1.34616c0,0 2.10136,1.00666 8.51033,0.63173c4.12393,-0.24126 6.85251,-1.54704 6.97039,-1.3048c0.3826,0.78618 -1.70634,2.26571 -6.16985,2.58011z" fill="#000000" stroke="#000000" stroke-width="0" stroke-linecap="butt"/><path d="M240.64432,261.12113c-0.81895,0 -1.48284,-0.66389 -1.48284,-1.48284c0,-0.81895 0.66389,-1.48284 1.48284,-1.48284c0.81895,0 1.48284,0.66389 1.48284,1.48284c0,0.81895 -0.66389,1.48284 -1.48284,1.48284z" data-paper-data="{&quot;index&quot;:null}" fill="#000000" stroke="none" stroke-width="1.5" stroke-linecap="butt"/><path d="M219.83207,302.10564v-119.20147c0,0 0.75721,-9.73105 0.75721,-14.63937c0,-4.498 -0.75721,-13.6872 -0.75721,-13.6872c0,0 2.67319,-2.35297 4.6557,-3.74807c1.98251,-1.3951 5.17197,-2.80371 5.17197,-2.80371c0,0 -0.6016,40.10902 14.55952,40.03867c15.43477,-0.07162 13.83154,-40.03867 13.83154,-40.03867c0,0 3.91276,1.51959 6.16585,2.94655c2.25309,1.42695 4.75379,3.60523 4.75379,3.60523c0,0 -0.75721,9.42463 -0.75721,14.19201c0,4.84193 0.75721,14.63937 0.75721,14.63937v118.69667z" fill="#ffffff" stroke="none" stroke-width="0" stroke-linecap="butt"/><path d="M196.17941,103.91198c0,0 6.16329,-5.92187 6.29161,-6.78761c0.33654,-2.27063 -0.16776,-40.17317 35.96775,-41.57382c44.63633,-0.91362 39.01489,35.34872 41.53088,42.1903c3.44981,9.38084 6.15664,17.40016 6.15664,17.40016c0,0 -2.76715,-2.05351 -4.0797,-3.13397c-1.2242,-1.00773 -3.80143,-3.14585 -3.80143,-3.14585c0,0 3.09111,10.3481 1.31092,20.69498c-1.5623,9.48098 -7.29782,17.22543 -7.29782,17.22543l-1.15522,-2.34735c0,0 -1.02266,2.19794 -2.16005,3.33274c-1.1374,1.13479 -3.43873,2.91273 -3.43873,2.91273l-0.09205,-3.70421c0,0 -7.0601,11.01795 -24.35066,10.87154c-16.30625,-0.25547 -26.07151,-10.6752 -26.07151,-10.6752l-0.1162,2.65484c0,0 -3.89477,-3.29276 -6.18145,-9.70754c-2.72545,-7.64567 -3.23946,-12.24324 -3.23946,-12.24324c0,0 -2.33908,1.89916 -5.71704,2.7744c-4.23278,1.09673 -6.94665,0.34526 -6.94665,0.34526c0,0 3.60795,-2.71717 5.58396,-4.76989c1.76007,-1.8284 2.64658,-3.37722 2.64658,-3.37722c0,0 -2.10758,1.0847 -4.23277,1.61795c-2.21739,0.5564 -4.03008,0.53093 -4.03008,0.53093c0,0 4.97492,-5.03728 7.03074,-10.87429c1.94102,-5.51108 2.09972,-10.95731 2.09972,-10.95731c0,0 -1.36165,0.66163 -3.33013,0.79513c-1.24776,0.08463 -2.37785,-0.0489 -2.37785,-0.0489z" fill="#000000" stroke="none" stroke-width="1.5" stroke-linecap="butt"/><path d="M213.22775,115.2017c-0.57709,-7.29323 0.335,-17.15448 0.335,-17.15448c0,0 3.41059,-0.04124 13.91429,-3.14424c8.0696,-2.38394 20.54731,-9.48722 20.54731,-9.48722c0,0 -2.16005,3.00503 -3.40781,4.46015c-1.32651,1.54696 -3.99292,4.56297 -3.99292,4.56297c0,0 7.838,-1.66761 14.67476,-4.72931c8.56837,-3.53575 10.59252,-6.05309 12.95042,-4.5927c2.7829,1.72362 1.03006,23.1827 0.71846,28.74062c-0.42163,5.66922 -2.53327,9.49969 -3.15031,12.52053c-0.61704,3.02084 -0.4096,6.13662 -2.20622,16.0397c-1.12121,6.18021 -4.16183,8.92466 -10.01942,14.66081c-5.85759,5.73616 -9.05378,9.25275 -13.01359,9.32173c-3.81077,0.06639 -8.93565,-5.1002 -13.93542,-10.38244c-5.32393,-5.62474 -8.87489,-8.47713 -9.71551,-15.13975c-0.75707,-6.00039 -0.77653,-9.90853 -1.12266,-15.24835c-0.25298,-3.90273 -2.26119,-6.44504 -2.57636,-10.42801z" fill="#000000" stroke="#000000" stroke-width="1.5" stroke-linecap="butt"/><path d="M261.29774,100.08134c0,0 1.52429,0.31807 4.2558,1.11029c2.49492,0.72361 4.44935,1.74403 4.44935,1.74403l0.1951,1.17035c0,0 -7.24963,-3.12997 -15.1158,-2.4706c-6.2896,0.52724 -9.96319,2.8124 -9.96319,2.8124l0.04575,-4.17683c0,0 3.12748,-1.70421 7.86366,-1.85557c4.90428,-0.15672 8.09084,0.59125 8.09084,0.59125z" data-paper-data="{&quot;index&quot;:null}" fill="#000000" stroke="none" stroke-width="1.5" stroke-linecap="butt"/><path d="M248.53362,143.06889c0.5704,0.21186 3.08357,1.39942 6.02385,2.59586c2.9637,1.20597 7.21362,2.29294 7.19412,2.4605c-0.02476,0.21265 -10.43477,0.22694 -13.67937,0.63224c-2.71902,0.33964 -6.68867,0.70564 -6.68867,0.70564c0,0 -7.10401,-1.16169 -13.27235,-2.44521c-4.94371,-1.02869 -10.39929,-1.66108 -10.40995,-1.75461c-0.01439,-0.12613 3.86835,-0.71071 6.82417,-1.39467c1.14585,-0.49661 5.43971,-1.48513 5.43971,-1.48513c0,0 4.95585,-0.27766 7.60826,0.579c2.84203,0.91791 2.83546,2.44556 3.0831,2.46906c0,0 1.18436,-1.74932 2.36886,-2.10461c1.18451,-0.35528 5.08219,-0.41633 5.50828,-0.25808z" fill="#000000" stroke="#000000" stroke-width="1.4" stroke-linecap="butt"/><path d="M230.86977,155.68992c5.09114,1.02674 12.40965,5.48852 12.40965,5.48852c0,0 6.57708,-4.33276 9.2341,-4.61131c2.05992,-0.21596 7.96827,-8.48672 8.01253,-8.11395c0.04328,0.36447 -6.71841,20.17779 -18.8353,19.7246c-13.76954,-0.43578 -21.48677,-20.80914 -21.44893,-20.97827c0.03784,-0.16913 5.88128,6.8652 10.97242,7.89195z" fill="#000000" stroke="#000000" stroke-width="1.9" stroke-linecap="butt"/><path d="M244.56042,114.27973c0,0 0.1026,3.96976 0.00576,7.12662c-0.19174,6.25113 -1.08147,27.7607 -1.08147,27.7607l-2.98167,0.00864c0,0 -0.80294,-4.17274 -1.12322,-9.49979c-0.43353,-7.21063 -0.4495,-16.29321 -0.76344,-19.63229c-0.29758,-3.16513 -0.89593,-5.71453 -0.89593,-5.71453" fill="#ffffff" stroke="#000000" stroke-width="1.3" stroke-linecap="round"/><path d="M214.7248,121.37736c0,0 -3.56385,-2.92338 -4.31816,-8.45061c-0.42079,-3.08327 2.15675,-2.28016 2.15675,-2.28016" fill="none" stroke="#000000" stroke-width="0.25" stroke-linecap="round"/><path d="M217.7382,114.72146c0.07093,-4.89188 4.83834,-8.93609 10.21137,-8.8582c5.37302,0.0779 9.02724,4.2484 8.95632,9.14029c-0.07093,4.89188 -4.12352,8.79439 -9.49655,8.7165c-5.37302,-0.0779 -9.74207,-4.1067 -9.67114,-8.99859z" fill="#ffffff" stroke="#000000" stroke-width="1.4" stroke-linecap="butt"/><path d="M244.92569,114.56259c0.20353,-4.88817 4.45264,-8.85847 9.77048,-8.85847c5.31783,0 9.27453,3.96607 9.27453,8.85847c0,4.8924 -3.88585,9.07104 -9.69964,9.14188c-5.52997,0.06739 -9.55792,-4.03692 -9.34537,-9.14188z" fill="#ffffff" stroke="#000000" stroke-width="1.4" stroke-linecap="butt"/><path d="M247.70776,115.23066c0,-2.81845 2.2848,-5.10325 5.10325,-5.10325c2.81845,0 5.10325,2.2848 5.10325,5.10325c0,2.81845 -2.28479,5.10325 -5.10325,5.10325c-2.81845,0 -5.10325,-2.2848 -5.10325,-5.10325z" fill="#000000" stroke="none" stroke-width="1.5" stroke-linecap="butt"/><path d="M221.19962,104.17762c0,0 3.36963,-1.819 8.03244,-2.28178c5.16698,-0.51283 7.76823,-0.06628 7.76823,-0.06628l0.29508,4.13747c0,0 -3.83554,-0.68065 -8.01795,-0.52113c-5.59346,0.21333 -6.64488,1.43293 -10.89774,1.89119c-3.64408,0.39266 -6.73723,0.15884 -6.73723,0.15884l-0.02589,-1.23155c0,0 3.59517,0.07398 5.23371,-0.06836c1.35239,-0.11749 3.9757,-0.93808 3.9757,-0.93808z" fill="#000000" stroke="none" stroke-width="1.5" stroke-linecap="butt"/><path d="M269.57312,110.64659c0,0 2.57754,-0.80312 2.15675,2.28016c-0.75431,5.52723 -4.31816,8.45061 -4.31816,8.45061" data-paper-data="{&quot;index&quot;:null}" fill="none" stroke="#000000" stroke-width="0.25" stroke-linecap="round"/><path d="M248.90547,168.65877c-2.31223,0.95058 -3.26281,-1.36165 -3.26281,-1.36165l-0.7759,-2.49575c0.04047,-0.87144 0.1073,-1.73941 0.19252,-2.60516c-1.3259,0.11866 -2.76691,-0.40987 -3.80342,-1.23227c-0.00612,-0.00485 -0.01222,-0.00971 -0.01831,-0.01459l-0.47279,2.49509c0,0 -0.73661,2.38902 -3.12562,1.65241c-2.38902,-0.73661 -1.65241,-3.12562 -1.65241,-3.12562l0.55958,-0.55091c-0.43039,-1.66358 -0.92123,-3.28818 -1.45641,-4.89379c-0.88517,-0.26583 -1.75904,-0.55279 -2.61308,-0.87378c-3.79558,-1.42654 -7.33937,-3.93891 -10.75416,-6.09714c0,0 -2.11291,-1.33626 -0.77665,-3.44918c1.33626,-2.11291 3.44918,-0.77665 3.44918,-0.77665c0.92034,0.58244 1.85639,1.20395 2.80819,1.82333c0.42028,-0.32046 0.94515,-0.51076 1.51446,-0.51076c0.1431,0 0.28339,0.01202 0.41992,0.03511l3.02477,0.45985c0.16557,-0.56499 0.57748,-1.13798 1.48296,-1.49854c2.32263,-0.92486 3.2475,1.39777 3.2475,1.39777c0.06821,0.17135 0.1362,0.34257 0.20395,0.51369c0.48749,0.0308 0.97,0.13301 1.44979,0.27448c0.58058,0.02684 1.1367,0.11376 1.61106,0.40161l-0.0072,-0.04719l2.46533,-0.37626c0.13701,-0.02326 0.27782,-0.03537 0.42145,-0.03537c0.94694,0 1.77092,0.52648 2.19518,1.3027c0.50268,-0.0318 1.00424,-0.06519 1.50821,-0.09222c0.01129,-0.14946 0.02193,-0.29904 0.03189,-0.44875c0,0 0.05827,-0.87402 0.62318,-1.55284c-0.26058,-0.39463 -0.41227,-0.86749 -0.41227,-1.37577c0,-1.38071 1.11929,-2.5 2.5,-2.5c1.38071,0 2.5,1.11929 2.5,2.5c0,0.63391 -0.23594,1.21272 -0.62479,1.6534c0.46035,0.74467 0.4028,1.60781 0.4028,1.60781c-0.00683,0.1023 -0.01401,0.20456 -0.0215,0.30678c0.05257,0.00888 0.10525,0.01804 0.15807,0.0275l0.52573,-0.20608c0,0 0.91202,-0.13146 1.70849,0.31894c0.11103,-0.07435 0.2219,-0.14877 0.33256,-0.22333c0.20735,-0.17108 0.41432,-0.33467 0.63259,-0.42928c0.07931,-0.05427 0.15849,-0.10863 0.23751,-0.16309l2.02127,-1.80656c0.44312,-0.39957 1.02996,-0.64281 1.67361,-0.64281c1.38071,0 2.5,1.11929 2.5,2.5c0,0.66009 -0.25583,1.26044 -0.67374,1.70729l-1.86538,2.00601l-0.0755,-0.0702c-0.06765,0.11372 -0.13869,0.22569 -0.21348,0.33574c-0.57026,0.83897 -1.67949,1.12138 -2.63355,1.52232c-0.30338,0.33787 -0.69745,0.59264 -1.14391,0.72603c-1.42923,0.95287 -2.84749,1.92422 -4.17568,2.97962c-0.03809,0.03026 -0.0798,0.06449 -0.12487,0.10233c-0.35114,2.38538 -0.66525,4.76833 -0.76177,7.166l0.40509,0.37693c0,0 0.95058,2.31223 -1.36165,3.26281z" fill="#000000" stroke="none" stroke-width="0.5" stroke-linecap="butt"/><path d="M262.54008,122.59617c0,4.87199 -4.24647,20.21647 -14.09806,20.21647c-9.85159,0 -14.68858,8.90573 -14.68858,4.03374c0,-4.87199 3.11471,-9.53968 12.96629,-9.53968c9.85159,0 15.82034,-19.58252 15.82034,-14.71053z" fill="#ffffff" stroke="#000000" stroke-width="1.3" stroke-linecap="butt"/><path d="M196.65233,102.9432c0,0 6.16329,-5.92187 6.29161,-6.78761c0.33654,-2.27063 -0.16776,-40.17317 35.96775,-41.57382c44.63633,-0.91362 9.88378,32.28453 12.39977,39.12611c3.44981,9.38084 -4.47225,19.98555 -4.47225,19.98555c0,0 3.99073,11.76729 2.67818,10.68683c-1.2242,-1.00773 -3.0797,3.20597 -3.0797,3.20597c0,0 4.00963,2.81526 2.22944,13.16214c-1.5623,9.48098 10.0234,11.09705 10.0234,11.09705l-9.35656,0.46152c0,0 0.15833,-2.58987 -0.97906,-1.45507c-1.1374,1.13479 2.00695,0.74226 2.00695,0.74226l5.87852,-2.97009c0,0 2.58465,8.40063 -14.70591,8.25422c-16.30625,-0.25547 -26.07151,-10.6752 -26.07151,-10.6752l-0.1162,2.65484c0,0 -3.89477,-3.29276 -6.18145,-9.70754c-2.72545,-7.64567 -3.23946,-12.24324 -3.23946,-12.24324c0,0 -2.33908,1.89916 -5.71704,2.7744c-4.23278,1.09673 -6.94665,0.34526 -6.94665,0.34526c0,0 3.60795,-2.71717 5.58396,-4.76989c1.76007,-1.8284 2.64658,-3.37722 2.64658,-3.37722c0,0 -2.10758,1.0847 -4.23277,1.61795c-2.21739,0.5564 -4.03008,0.53093 -4.03008,0.53093c0,0 4.97492,-5.03728 7.03074,-10.87429c1.94102,-5.51108 2.09972,-10.95731 2.09972,-10.95731c0,0 -1.36165,0.66163 -3.33013,0.79513c-1.24776,0.08463 -2.37785,-0.0489 -2.37785,-0.0489z" fill="#ffffff" stroke="none" stroke-width="1.5" stroke-linecap="butt"/><path d="M219.87999,115.34639c0.0807,-5.56642 4.65858,-10.01341 10.22495,-9.93271c5.56642,0.0807 10.01341,4.65858 9.93271,10.22495c-0.0807,5.56642 -4.65856,10.01341 -10.22495,9.93271c-5.56642,-0.0807 -10.01341,-4.65858 -9.93271,-10.22495z" fill="#000000" stroke="none" stroke-width="1.5" stroke-linecap="butt"/><path d="M253.49939,139.46994c0,0.17052 -1.18619,-0.41219 -1.19665,-0.21711c-0.28846,5.37838 -0.11409,3.67627 -9.62087,3.67627c-9.85159,0 -14.68858,8.90573 -14.68858,4.03374c0,-4.87199 3.11471,-9.53968 12.96629,-9.53968c9.85159,0 9.25928,-4.03814 9.25928,0.83385z" fill="#000000" stroke="#000000" stroke-width="1.3" stroke-linecap="butt"/><path d="M225.12129,115.10125c0.11242,-2.69991 2.45935,-4.89284 5.39657,-4.89284c2.93722,0 5.12264,2.1906 5.12264,4.89284c0,2.70224 -2.14629,5.01025 -5.35745,5.04938c-3.05439,0.03722 -5.27917,-2.22973 -5.16177,-5.04938z" fill="#ffffff" stroke="#000000" stroke-width="1.4" stroke-linecap="butt"/></g></g></svg>