<svg version="1.1" xmlns="http://www.w3.org/2000/svg" xmlns:xlink="http://www.w3.org/1999/xlink" width="492" height="367.57853" viewBox="0,0,492,367.57853"><defs><linearGradient x1="240.5" y1="332" x2="240.5" y2="365" gradientUnits="userSpaceOnUse" id="color-1"><stop offset="0" stop-color="#ffffff"/><stop offset="1" stop-color="#ffffff" stop-opacity="0"/></linearGradient><linearGradient x1="240.89463" y1="-2" x2="240.89463" y2="32.69503" gradientUnits="userSpaceOnUse" id="color-2"><stop offset="0" stop-color="#ffffff" stop-opacity="0"/><stop offset="1" stop-color="#ffffff"/></linearGradient><linearGradient x1="-3.5" y1="180.23215" x2="29.5" y2="180.23215" gradientUnits="userSpaceOnUse" id="color-3"><stop offset="0" stop-color="#ffffff" stop-opacity="0"/><stop offset="1" stop-color="#ffffff"/></linearGradient><linearGradient x1="451.40985" y1="179.71073" x2="484.40985" y2="179.71073" gradientUnits="userSpaceOnUse" id="color-4"><stop offset="0" stop-color="#ffffff"/><stop offset="1" stop-color="#ffffff" stop-opacity="0"/></linearGradient><linearGradient x1="417.58064" y1="39.24387" x2="442.76428" y2="39.24387" gradientUnits="userSpaceOnUse" id="color-5"><stop offset="0" stop-color="#000000"/><stop offset="1" stop-color="#000000" stop-opacity="0"/></linearGradient><linearGradient x1="417.58064" y1="45.61947" x2="442.76428" y2="45.61947" gradientUnits="userSpaceOnUse" id="color-6"><stop offset="0" stop-color="#000000"/><stop offset="1" stop-color="#000000" stop-opacity="0"/></linearGradient><radialGradient cx="112.4289" cy="154.22246" r="54.94815" gradientUnits="userSpaceOnUse" id="color-7"><stop offset="0" stop-color="#ebebeb"/><stop offset="1" stop-color="#970000"/></radialGradient><linearGradient x1="108.59145" y1="82.50619" x2="108.59145" y2="141.53106" gradientUnits="userSpaceOnUse" id="color-8"><stop offset="0" stop-color="#ebebeb"/><stop offset="1" stop-color="#970000"/></linearGradient><linearGradient x1="90.71841" y1="131.25766" x2="116.58891" y2="131.25766" gradientUnits="userSpaceOnUse" id="color-9"><stop offset="0" stop-color="#970000"/><stop offset="1" stop-color="#970000"/></linearGradient><linearGradient x1="103.6025" y1="123.30894" x2="103.6025" y2="131.51455" gradientUnits="userSpaceOnUse" id="color-10"><stop offset="0" stop-color="#ebebeb"/><stop offset="1" stop-color="#970000"/></linearGradient><linearGradient x1="103.68515" y1="125.33386" x2="103.68515" y2="142.25766" gradientUnits="userSpaceOnUse" id="color-11"><stop offset="0" stop-color="#ebebeb"/><stop offset="1" stop-color="#970000"/></linearGradient><linearGradient x1="87.08892" y1="96.3853" x2="87.08892" y2="110.10915" gradientUnits="userSpaceOnUse" id="color-12"><stop offset="0" stop-color="#970000"/><stop offset="1" stop-color="#d3d3d3"/></linearGradient><linearGradient x1="98.4988" y1="97.58482" x2="98.4988" y2="110.13797" gradientUnits="userSpaceOnUse" id="color-13"><stop offset="0" stop-color="#ffffff"/><stop offset="1" stop-color="#ff6d6d"/></linearGradient><radialGradient cx="93.44714" cy="101.01574" r="5.84542" gradientUnits="userSpaceOnUse" id="color-14"><stop offset="0" stop-color="#ffffff"/><stop offset="1" stop-color="#817d7d"/></radialGradient><linearGradient x1="128.61795" y1="101.83701" x2="128.61795" y2="114.62226" gradientUnits="userSpaceOnUse" id="color-15"><stop offset="0" stop-color="#970000"/><stop offset="1" stop-color="#d3d3d3"/></linearGradient><linearGradient x1="117.93586" y1="118.84921" x2="117.93586" y2="119.97191" gradientUnits="userSpaceOnUse" id="color-16"><stop offset="0" stop-color="#ec0000"/><stop offset="1" stop-color="#7a0000"/></linearGradient><linearGradient x1="114.76809" y1="116.84368" x2="114.76809" y2="119.85997" gradientUnits="userSpaceOnUse" id="color-17"><stop offset="0" stop-color="#ec0000"/><stop offset="1" stop-color="#7a0000"/></linearGradient><linearGradient x1="115.83316" y1="123.83111" x2="115.83316" y2="125.56549" gradientUnits="userSpaceOnUse" id="color-18"><stop offset="0" stop-color="#ec0000"/><stop offset="1" stop-color="#7a0000"/></linearGradient><linearGradient x1="95.37273" y1="114.94723" x2="95.37273" y2="118.99159" gradientUnits="userSpaceOnUse" id="color-19"><stop offset="0" stop-color="#ec0000"/><stop offset="1" stop-color="#7a0000"/></linearGradient><linearGradient x1="98.44161" y1="118.78296" x2="98.44161" y2="120.72911" gradientUnits="userSpaceOnUse" id="color-20"><stop offset="0" stop-color="#ec0000"/><stop offset="1" stop-color="#7a0000"/></linearGradient><linearGradient x1="109.04964" y1="188.26625" x2="109.04964" y2="190.77585" gradientUnits="userSpaceOnUse" id="color-21"><stop offset="0" stop-color="#ec0000"/><stop offset="1" stop-color="#7a0000"/></linearGradient><linearGradient x1="110.08259" y1="182.84173" x2="110.08259" y2="185.894" gradientUnits="userSpaceOnUse" id="color-22"><stop offset="0" stop-color="#ec0000"/><stop offset="1" stop-color="#7a0000"/></linearGradient><linearGradient x1="110.17836" y1="179.51335" x2="110.17836" y2="181.60156" gradientUnits="userSpaceOnUse" id="color-23"><stop offset="0" stop-color="#ec0000"/><stop offset="1" stop-color="#7a0000"/></linearGradient><linearGradient x1="109.82855" y1="170.50291" x2="109.82855" y2="172.70866" gradientUnits="userSpaceOnUse" id="color-24"><stop offset="0" stop-color="#ec0000"/><stop offset="1" stop-color="#7a0000"/></linearGradient><linearGradient x1="109.11796" y1="174.78971" x2="109.11796" y2="177.62791" gradientUnits="userSpaceOnUse" id="color-25"><stop offset="0" stop-color="#ec0000"/><stop offset="1" stop-color="#7a0000"/></linearGradient><linearGradient x1="97.25782" y1="138.11427" x2="97.25782" y2="142.23099" gradientUnits="userSpaceOnUse" id="color-26"><stop offset="0" stop-color="#ec0000"/><stop offset="1" stop-color="#7a0000"/></linearGradient><linearGradient x1="92.59906" y1="144.60611" x2="92.59906" y2="146.18195" gradientUnits="userSpaceOnUse" id="color-27"><stop offset="0" stop-color="#d10000"/><stop offset="1" stop-color="#730000"/></linearGradient><linearGradient x1="96.92433" y1="148.4322" x2="96.92433" y2="164.84186" gradientUnits="userSpaceOnUse" id="color-28"><stop offset="0" stop-color="#d10000"/><stop offset="1" stop-color="#730000"/></linearGradient></defs><g transform="translate(5.5,2.57853)"><g data-paper-data="{&quot;isPaintingLayer&quot;:true}" fill-rule="nonzero" stroke-linejoin="miter" stroke-miterlimit="10" stroke-dasharray="" stroke-dashoffset="0" style="mix-blend-mode: normal"><path d="M-5.5,365l33,-33h424l35,33z" fill="url(#color-1)" stroke="none" stroke-width="0" stroke-linecap="butt"/><path d="M485.5,-2l-37,33l-418.21073,1.69503l-34,-33.48429z" data-paper-data="{&quot;index&quot;:null}" fill="url(#color-2)" stroke="none" stroke-width="0" stroke-linecap="butt"/><path d="M-3.5,-2l33,33v299.46429l-33,32z" fill="url(#color-3)" stroke="none" stroke-width="0" stroke-linecap="butt"/><path d="M484.40985,362l-33,-30v-303.90576l33,-30.67277z" data-paper-data="{&quot;index&quot;:null}" fill="url(#color-4)" stroke="none" stroke-width="0" stroke-linecap="butt"/><path d="M28,331.5v-303h424v303z" fill="#ffffff" stroke="#000000" stroke-width="5" stroke-linecap="butt"/><path d="M34.75,325.0005v-72.50051h142.5v72.50051z" fill="#000000" stroke="none" stroke-width="0" stroke-linecap="butt"/><text transform="translate(40.5,269.7425) scale(0.37277,0.33334)" font-size="40" xml:space="preserve" fill="#ffffff" fill-rule="nonzero" stroke="none" stroke-width="1" stroke-linecap="butt" stroke-linejoin="miter" stroke-miterlimit="10" stroke-dasharray="" stroke-dashoffset="0" font-family="Serif" font-weight="normal" text-anchor="start" style="mix-blend-mode: normal"><tspan x="0" dy="0">Name: Gamma</tspan><tspan x="0" dy="46.150000000000006px">Age: Unknown</tspan><tspan x="0" dy="46.150000000000006px">Status: Alive</tspan><tspan x="0" dy="46.150000000000006px">Role: Contained</tspan></text><path d="M194.25,59v-19.5h117.84467v19.5z" fill="#000000" stroke="none" stroke-width="0" stroke-linecap="butt"/><text transform="translate(199.22954,53.9009) scale(0.42192,0.42192)" font-size="40" xml:space="preserve" fill="#ffffff" fill-rule="nonzero" stroke="none" stroke-width="1" stroke-linecap="butt" stroke-linejoin="miter" stroke-miterlimit="10" stroke-dasharray="" stroke-dashoffset="0" font-family="Serif" font-weight="normal" text-anchor="start" style="mix-blend-mode: normal"><tspan x="0" dy="0">Documentation:</tspan></text><path d="M429.07853,298.09424h-241v-236.31414" fill="none" stroke="#000000" stroke-width="5" stroke-linecap="round"/><path d="M37.83201,243v-205h136.5312v205z" fill="#174752" stroke="#151515" stroke-width="6.5" stroke-linecap="butt"/><path d="M37.83201,243v-205h136.5312v205z" fill="#ffffff" stroke="#151515" stroke-width="6.5" stroke-linecap="butt"/><text transform="translate(349.55711,323.11998) scale(0.35959,0.35959)" font-size="40" xml:space="preserve" fill="#000000" fill-rule="nonzero" stroke="none" stroke-width="1" stroke-linecap="butt" stroke-linejoin="miter" stroke-miterlimit="10" stroke-dasharray="" stroke-dashoffset="0" font-family="Serif" font-weight="normal" text-anchor="start" style="mix-blend-mode: normal"><tspan x="0" dy="0">Click this to exit</tspan></text><text transform="translate(196.5697,92.41211) scale(0.40625,0.40625)" font-size="40" xml:space="preserve" fill="#000000" fill-rule="nonzero" stroke="none" stroke-width="1" stroke-linecap="butt" stroke-linejoin="miter" stroke-miterlimit="10" stroke-dasharray="" stroke-dashoffset="0" font-family="Serif" font-weight="normal" text-anchor="start" style="mix-blend-mode: normal"><tspan x="0" dy="0">This was a person we picked up on a</tspan><tspan x="0" dy="48px">scavenge at Pripyat four years ago.</tspan><tspan x="0" dy="48px">We have absolutely no idea how</tspan><tspan x="0" dy="48px">they've survived in this state for</tspan><tspan x="0" dy="48px">this long since the Chernobyl</tspan><tspan x="0" dy="48px">incident, but we figured they could</tspan><tspan x="0" dy="48px">be of some use to us maybe. They</tspan><tspan x="0" dy="48px">have no vocal chords left, so they</tspan><tspan x="0" dy="48px">just communicate with whatever</tspan><tspan x="0" dy="48px">whispers they muster up.</tspan></text><g><path d="M376.458,50.08239l65.9875,-0.31878" fill="none" stroke="#000000" stroke-width="3" stroke-linecap="round"/><g stroke="none" stroke-linecap="butt"><g fill="#000000" stroke-width="1" font-weight="normal" font-size="40" text-anchor="start"><text transform="translate(376.45799,48.48849) scale(0.33457,0.33457)" font-size="40" xml:space="preserve" fill="#000000" fill-rule="nonzero" stroke="none" stroke-width="1" stroke-linecap="butt" stroke-linejoin="miter" stroke-miterlimit="10" stroke-dasharray="" stroke-dashoffset="0" font-family="Pixel" font-weight="normal" text-anchor="start" style="mix-blend-mode: normal"><tspan x="0" dy="0">DONK</tspan></text><text transform="translate(375.65959,62.03519) scale(0.33457,0.33457)" font-size="40" xml:space="preserve" fill="#000000" fill-rule="nonzero" stroke="none" stroke-width="1" stroke-linecap="butt" stroke-linejoin="miter" stroke-miterlimit="10" stroke-dasharray="" stroke-dashoffset="0" font-family="Sans Serif" font-weight="normal" text-anchor="start" style="mix-blend-mode: normal"><tspan x="0" dy="0">Industries</tspan></text></g><path d="M417.58064,41.15655v-3.82536h25.18364v3.82536z" fill="url(#color-5)" stroke-width="0"/><path d="M417.58064,47.47902v-3.7191h25.18364v3.7191z" fill="url(#color-6)" stroke-width="0"/></g></g><path d="M72.42083,237.29349c0,0 1.01484,-66.34688 1.26964,-82.9562c0.05403,-3.52181 10.56241,-9.19849 17.6086,-15.4498c4.41971,-3.92111 2.54423,-10.02525 11.21877,-9.87746c9.49125,0.1617 4.58995,6.87923 8.81111,11.72217c5.65832,6.4918 18.69395,11.84479 18.62507,14.82743c-0.76983,32.5002 -1.36698,82.9361 -1.36698,82.9361l-7.379,-0.09495c0,0 2.9644,-30.07046 3.25466,-44.12984c0.26243,-12.71077 -1.58812,-36.58929 -1.58812,-36.58929c0,0 0.10104,-2.17715 -1.93055,-2.26048c-2.41284,-0.09896 -2.11838,2.14418 -2.11838,2.14418c0,0 -1.59038,20.71565 -1.83481,32.79211c-0.02439,1.20509 -2.63588,3.18973 -2.65006,4.63105c-0.02521,2.56227 -2.36689,7.95775 -2.25217,10.96835c0.19438,5.10131 -0.41831,12.88609 0.32123,17.6167c0.63946,4.09036 0.13606,6.90753 0.67687,9.64046c0.74135,3.74639 -0.59632,5.68966 -0.59632,5.68966l-24.52167,-0.25503c0,0 -0.95896,-1.86294 -0.02438,-4.87298c1.57114,-5.06028 0.83391,-14.46885 1.80743,-23.1594c0.19252,-1.71866 -0.80449,-4.16597 -0.69053,-5.85819c0.2153,-3.19676 -1.94115,-7.69317 -1.88001,-10.37007c0.0248,-1.08563 -2.50471,-3.33385 -2.48649,-4.27384c0.23817,-12.2905 0.17858,-33.50137 0.17858,-33.50137c0,0 0.24163,-2.04727 -1.98269,-2.10712c-2.18619,-0.05881 -2.02403,2.00097 -2.02403,2.00097c0,0 -2.32917,24.02833 -2.57476,36.98164c-0.2642,13.93473 1.0413,43.89772 1.0413,43.89772z" fill="url(#color-7)" stroke="#000000" stroke-width="2" stroke-linecap="butt"/><path d="M112.71849,165.6347c-0.40151,0 -0.72699,-0.32549 -0.72699,-0.72699c0,-0.40151 0.32549,-0.72701 0.72699,-0.72701c0.40151,0 0.72699,0.3255 0.72699,0.72701c0,0.40151 -0.32549,0.72699 -0.72699,0.72699z" fill="#000000" stroke="none" stroke-width="1.5" stroke-linecap="butt"/><path d="M109.02073,168.61238c-3.1379,-0.22102 -4.60646,-1.26115 -4.33749,-1.81385c0.08287,-0.1703 2.00109,0.74769 4.90027,0.91729c4.50559,0.26358 5.98288,-0.44411 5.98288,-0.44411v0.94637c0,0 -1.69672,0.73586 -6.54566,0.39431z" fill="#000000" stroke="#000000" stroke-width="0" stroke-linecap="butt"/><path d="M89.46799,164.90771c0,-0.40151 0.32549,-0.72701 0.72699,-0.72701c0.40151,0 0.72701,0.3255 0.72701,0.72701c0,0.40151 -0.3255,0.72699 -0.72701,0.72699c-0.40151,0 -0.72699,-0.32549 -0.72699,-0.72699z" fill="#000000" stroke="none" stroke-width="1.5" stroke-linecap="butt"/><path d="M93.89274,168.61238c-4.84894,0.34156 -6.54566,-0.39431 -6.54566,-0.39431v-0.94637c0,0 1.47728,0.7077 5.98288,0.44411c2.89918,-0.16961 4.81741,-1.08759 4.90028,-0.91729c0.26897,0.5527 -1.19958,1.59282 -4.33749,1.81385z" fill="#000000" stroke="#000000" stroke-width="0" stroke-linecap="butt"/><path d="M101.82306,208.36904c-0.57573,0 -1.04246,-0.46672 -1.04246,-1.04246c0,-0.57573 0.46672,-1.04246 1.04246,-1.04246c0.57573,0 1.04246,0.46672 1.04246,1.04246c0,0.57573 -0.46672,1.04246 -1.04246,1.04246z" data-paper-data="{&quot;index&quot;:null}" fill="#000000" stroke="none" stroke-width="1.5" stroke-linecap="butt"/><path d="M95.60712,100.70134c0,0 -11.39785,-6.07307 -7.78882,-8.71414c2.52287,-1.84623 1.24069,-4.26691 1.30827,-4.51086c0.23135,-0.83512 -1.64272,0.24127 4.59005,-3.3316c0.64163,-0.3678 -0.87086,-1.69721 -0.17603,-2.02531c1.10635,-0.52243 2.27892,-0.98641 3.51377,-1.36604c0.55416,-0.17036 -0.89708,1.72103 -0.30374,1.57235c0.57174,-0.14327 1.16186,-0.27577 1.77077,-0.39611c1.02643,-0.20286 0.65657,-0.02308 1.81433,-0.15575c0.35761,-0.04098 0.80794,-0.77561 1.17843,-0.80829c0.70831,-0.06248 0.59332,1.02291 1.35344,0.98809c0.97994,-0.04489 1.28486,-1.39057 2.35898,-1.37629c1.57033,0.02089 1.20758,0.91261 3.01662,1.06559c3.15588,0.32505 4.26309,-4.42682 6.69499,-3.94266c0.61238,0.12192 -2.12641,2.84941 -1.55163,2.98542c0.49992,0.1183 1.29189,-0.78487 1.76842,-0.65975c0.71858,0.18868 0.51851,1.86998 1.18468,2.07617c0.49477,0.15314 1.16688,-4.09419 1.63534,-3.93475c0.40169,0.13672 0.59963,1.84752 0.98249,1.99253c0.42574,0.16124 -0.26951,2.13821 0.13358,2.30904c0.89975,0.38132 1.74942,0.77667 2.55192,1.18349c1.0579,0.53629 0.8974,-1.17322 1.79796,-0.60297c0.90281,0.57168 -0.00025,0.9698 0.78283,1.61377c5.55665,4.56954 5.05195,7.25362 6.32556,10.53216c0.15785,0.40635 -0.61473,5.08443 -0.54329,5.3905c1.59713,6.84275 -14.12921,7.74417 -14.12921,7.74417c0,0 5.42314,1.87273 4.60065,1.0056c-0.76713,-0.80876 2.44022,0.02151 2.44022,0.02151c0,0 -0.26684,4.10963 -2.40204,11.17491c-1.90844,6.47996 -5.71714,2.9942 -5.71714,2.9942l1.5994,-0.93364c0,0 1.28328,6.67435 0.39177,7.36792c-0.89151,0.69355 1.40606,3.29983 1.40606,3.29983l-7.5341,-8.33766c0,0 4.46615,15.08696 -7.58473,13.49223c-11.35472,-1.58584 -6.78854,-14.24604 -6.78854,-14.24604l1.47359,-1.12474c0,0 1.58217,0.69675 0.54052,-3.9762c-1.24154,-5.5696 0.17587,-4.2237 0.17587,-4.2237c0,0 4.02837,4.14594 1.59603,4.465c-3.04786,0.3998 3.44917,-1.80798 3.44917,-1.80798c0,0 -0.79608,2.75825 0.75977,1.49667c1.38582,-1.12372 -7.69797,-5.64699 -7.69797,-5.64699c0,0 -0.64445,2.56774 -1.16532,2.72096c-0.59252,0.1743 6.36645,0.46149 5.55287,0.56186c-1.59509,0.19678 3.20406,1.12671 3.20406,1.12671c0,0 -12.35696,-3.32622 -10.41876,-7.22121c1.82997,-3.67749 1.65195,-4.1927 1.65195,-4.1927c0,0 8.86849,0.68047 7.48356,0.60369c-0.87786,-0.04867 -4.07336,0.70103 -4.07336,0.70103z" fill="#000000" stroke="none" stroke-width="1.5" stroke-linecap="butt"/><path d="M88.56628,103.4228c0.22694,-5.13826 -0.91805,-7.83804 -0.91805,-7.83804c0,0 -0.41542,-2.89134 3.42593,-5.53381c0.77022,-0.52983 -0.2947,-4.81327 1.45345,-5.02269c0.34704,-0.04157 2.41814,-1.42556 3.76487,-0.24104c0.39601,0.34832 1.16664,-0.61902 1.21297,-0.65867c3.04698,-2.47104 3.53843,-1.58425 5.53811,-0.81166c2.17022,0.83849 4.43416,0.63779 4.43416,0.63779c0,0 6.73179,-0.93447 5.73563,-0.02695c-0.63327,0.57692 1.48644,0.72673 3.29316,0.75395c1.21469,0.0183 0.28292,0.44148 0.28292,0.44148c0,0 2.34971,-0.67934 3.33451,-0.50506c0.42104,0.07451 -0.33995,1.36269 1.1678,0.89968c1.76693,-0.48571 2.43363,-0.01507 3.94628,-0.17804c0.35366,-0.0381 0.57241,0.70152 0.8388,0.80391c1.59178,0.61184 1.88802,2.68479 2.82336,3.4375c1.79282,1.44279 -0.63155,13.86457 -1.32873,17.7154c-0.78355,3.91898 -2.58749,6.40919 -3.27876,8.46355c-0.33012,0.98107 -0.53092,1.99349 -0.88026,3.51917c-0.38217,1.66909 -0.9421,3.95248 -2.0436,7.48117c-1.31576,4.21511 -3.67409,5.86742 -8.25605,9.36385c-4.58197,3.49644 -7.11549,5.67403 -9.88418,5.38034c-2.66448,-0.28264 -5.79408,-4.32973 -8.8264,-8.44671c-3.22893,-4.38392 -5.46018,-6.68055 -5.47154,-11.40158c-0.01024,-4.25178 0.31355,-6.98014 0.533,-10.73559c0.16039,-2.74475 -1.02126,-4.69186 -0.89733,-7.49796z" fill="url(#color-8)" stroke="#000000" stroke-width="1.5" stroke-linecap="butt"/><path d="M123.47439,96.4997c0,0 1.03603,0.3535 2.8734,1.14201c1.67823,0.72022 2.95373,1.60088 2.95373,1.60088l0.03509,0.83339c0,0 -4.78783,-2.80957 -10.33293,-3.02856c-4.43372,-0.17509 -7.19403,1.10214 -7.19403,1.10214l0.39247,-2.9102c0,0 2.32913,-0.91904 5.6466,-0.6158c3.43521,0.31401 5.59389,1.11094 5.59389,1.11094z" data-paper-data="{&quot;index&quot;:null}" fill="#000000" stroke="none" stroke-width="1.5" stroke-linecap="butt"/><path d="M94.48198,124.97936c2.11799,-0.14057 4.80749,0.08841 6.7924,0.81057c2.71149,0.61906 5.61008,1.62712 8.33592,2.06859c1.5994,0.25903 3.72504,0.49323 5.01412,1.57597c0.48624,0.44165 1.23246,0.89929 1.57438,1.48263c1.46772,2.50404 -1.51828,5.02425 -3.77596,5.72384c-0.92329,0.28611 -1.92815,0.2099 -2.85027,0.55911c-1.49906,0.1198 -3.22793,0.61789 -4.7437,0.2296c-1.18874,-0.30451 -2.31304,-1.63402 -3.33832,-2.26486c-1.93193,-1.18871 -4.57854,-1.72127 -6.25081,-3.18601c-0.78283,-0.91274 -2.28745,-1.48999 -2.88584,-2.45687c-0.74441,-1.20281 -1.21484,-2.93609 -1.63549,-4.40316c1.21543,0.19114 2.57628,-0.06063 3.76357,-0.13943z" data-paper-data="{&quot;noHover&quot;:false,&quot;origItem&quot;:[&quot;Path&quot;,{&quot;applyMatrix&quot;:true,&quot;segments&quot;:[[[224.89372,142.72341],[1.72888,0.27188],[0.59835,2.08683]],[[227.22437,148.97282],[-1.05888,-1.71093],[0.85118,1.37533]],[[231.32972,152.45572],[-1.11354,-1.29833],[2.37872,2.08351]],[[240.19553,156.94818],[-2.74807,-1.69088],[1.45839,0.89734]],[[244.91058,160.16448],[-1.69092,-0.43315],[2.1561,0.55231]],[[251.63232,159.85157],[-2.13233,0.17041],[1.31168,-0.49675]],[[255.67935,159.06552],[-1.31333,0.40697],[3.21143,-0.99515]],[[261.04307,150.95115],[2.08776,3.56187],[-0.48636,-0.82978]],[[258.80425,148.84903],[0.69165,0.62822],[-1.83365,-1.54014]],[[251.67782,146.62386],[2.27507,0.36846],[-3.87736,-0.62796]],[[239.88382,143.70249],[3.85695,0.88058],[-2.82343,-1.02723]],[[230.24329,142.53188],[3.01273,-0.19995],[-1.68885,0.11209]]],&quot;closed&quot;:true}]}" fill="url(#color-9)" stroke="none" stroke-width="0.5" stroke-linecap="butt"/><path d="M89.52299,124.52107c-0.01972,-0.09039 -0.01298,-0.19868 0.04163,-0.32611c0.2077,-0.48463 0.69233,-0.27693 0.69233,-0.27693c1.17682,0.53966 2.91594,0.10385 4.18853,0.02869c2.24743,-0.13274 5.03643,0.09891 7.14224,0.86428c2.6409,0.61735 5.50036,1.61557 8.15918,2.02372c1.81536,0.27867 4.07237,0.59887 5.53522,1.81013c0.60733,0.55262 1.38971,1.02621 1.80054,1.75604c1.77719,3.15715 -1.43657,6.30404 -4.38418,7.23094c-0.94903,0.29843 -1.97261,0.22043 -2.91959,0.57222c-1.67954,0.14538 -3.56091,0.65025 -5.25732,0.20182c-1.30592,-0.34521 -2.45748,-1.6823 -3.5748,-2.37878c-2.0098,-1.25283 -4.65917,-1.76873 -6.42146,-3.30946c-0.86054,-1.00459 -2.31026,-1.53852 -3.0192,-2.61318c-0.92498,-1.40215 -1.47404,-3.71556 -1.96189,-5.33939l-0.02224,-0.22181c0,0 0,-0.00806 0.001,-0.02219zM90.75017,125.13385c0.42065,1.46707 0.89407,3.19061 1.63848,4.39342c0.59839,0.96688 2.10328,1.53578 2.88612,2.44852c1.67227,1.46474 4.30085,1.96956 6.23278,3.15827c1.02527,0.63084 2.126,1.95659 3.31474,2.2611c1.51577,0.38828 3.22642,-0.10018 4.72547,-0.21999c0.92213,-0.34922 1.92183,-0.2665 2.84512,-0.5526c2.25768,-0.6996 5.23849,-3.20047 3.77077,-5.7045c-0.34192,-0.58335 -1.08768,-1.03618 -1.57392,-1.47783c-1.28908,-1.08274 -3.41057,-1.30529 -5.00998,-1.56432c-2.72584,-0.44146 -5.57985,-1.4347 -8.29134,-2.05376c-1.98491,-0.72216 -4.65943,-0.96352 -6.77742,-0.82295c-1.18728,0.0788 -2.5454,0.32578 -3.76083,0.13465z" fill="#970000" stroke="none" stroke-width="0.5" stroke-linecap="butt"/><path d="M110.85812,125.39c0.37968,0.19705 2.03058,1.24254 3.97872,2.33111c1.27101,0.71021 1.61562,2.45111 2.61479,2.90329c0.54448,0.24642 0.6052,0.84907 0.59529,0.88971c-0.01004,0.04122 -3.289,-2.83901 -3.31443,-0.91664c-0.01008,0.76231 -0.0406,-1.89267 -0.8052,-1.93195c-0.80656,-0.04143 -1.56661,1.63601 -2.22303,1.45902c-0.59605,-0.16071 0.71078,-2.19669 0.17949,-2.30991c-1.86646,-0.39777 -2.65489,0.53646 -2.80001,-0.26738c-1.92636,0.00225 -3.57794,1.11973 -3.57794,1.11973c0,0 -1.88121,-2.33429 -3.58085,-2.89956c-0.32703,-0.10876 -1.83576,0.4059 -2.07994,0.22234c-0.47493,-0.357 1.49698,-0.84442 0.91984,-1.09813c-1.3085,-0.57522 -4.28366,-0.02079 -5.02127,0.00894c-3.3604,-1.14447 -6.58708,-0.57491 -6.58644,-0.64109c0.00084,-0.08924 2.76027,-0.16193 4.88157,-0.38397c0.84232,-0.24757 3.92345,-0.56659 3.92345,-0.56659c0,0 3.48163,0.23409 5.25825,1.06073c1.90363,0.88575 1.76717,1.95102 1.93793,1.98879c0,0 0.97733,-1.11826 1.83442,-1.26388c0.85709,-0.14562 3.58175,0.14824 3.86536,0.29543z" fill="url(#color-10)" stroke="#000000" stroke-width="1.4" stroke-linecap="butt"/><path d="M99.42399,132.98599c1.71899,0.57366 2.40332,1.75157 3.63599,1.60553c1.25094,-0.1482 3.03753,-1.62467 3.03753,-1.62467c0,0 0.5011,1.85218 1.44898,2.97163c0.62314,0.73594 1.53807,0.89927 2.28291,0.91315c0.65934,0.0123 0.27373,-0.83557 2.56395,-1.2556c2.53874,-0.46561 3.2348,-5.1374 3.23408,-4.99302c-0.00029,0.05858 -2.41145,4.41895 -1.76895,3.64944c1.38715,-1.66138 3.89273,-3.87895 3.91214,-3.08659c0.00798,0.32583 -3.15187,3.24803 -3.58059,4.04619c-0.20092,0.37405 1.61143,-0.40034 1.58411,-0.17158c-0.09546,0.79945 -1.32607,1.92761 -1.93251,2.32404c-0.78236,0.51141 -1.66558,1.59422 -2.47781,2.05573c-1.48891,0.846 -1.17038,2.92852 -3.13898,2.83433c-0.47512,-0.02274 -2.76246,-2.65664 -3.25043,-2.73563c-9.5693,-1.49267 -15.41556,-12.03866 -15.37456,-12.15339c0.01616,-0.0452 0.95031,-2.93486 1.19704,-1.74418c0.07434,0.35875 -0.25755,1.1958 0.12798,1.92367c0.60643,1.14491 2.49591,2.77912 3.25649,3.14236c0.79689,0.38058 1.83385,0.05191 2.65326,0.32537c0,0 0.41616,1.81229 0.85642,2.14779c0.4221,0.32167 1.73293,-0.17455 1.73293,-0.17455z" fill="url(#color-11)" stroke="#000000" stroke-width="1.9" stroke-linecap="butt"/><path d="M88.94299,110.10915c0,0 -3.13749,-2.87958 -3.52595,-6.79392c-0.40873,-4.11865 -0.17929,-6.91665 1.19752,-6.92986c1.37681,-0.01323 1.68083,1.89171 1.88294,6.15192c0.2021,4.26021 0.4455,7.57186 0.4455,7.57186z" data-paper-data="{&quot;index&quot;:null}" fill="url(#color-12)" stroke="#000000" stroke-width="1" stroke-linecap="butt"/><path d="M89.1424,107.33747c0,0 -2.23412,-2.34726 -2.28328,-6.26869c-0.02742,-2.1875 1.70158,-1.40468 1.70158,-1.40468" fill="none" stroke="#000000" stroke-width="0.25" stroke-linecap="round"/><path d="M91.81939,102.95383c0.47176,-3.40691 4.14707,-5.81699 7.88907,-5.29883c3.742,0.51817 5.93151,3.74334 5.45975,7.15026c-0.47176,3.40691 -3.63611,5.77983 -7.37811,5.26168c-3.742,-0.51817 -6.44248,-3.70619 -5.97071,-7.1131z" fill="url(#color-13)" stroke="#000000" stroke-width="1.4" stroke-linecap="butt"/><path d="M95.20745,100.97725c0.26602,-1.92109 2.03901,-3.26276 3.96007,-2.99675c1.92108,0.26601 3.26276,2.03901 2.99675,3.96008c-0.26602,1.92109 -2.039,3.26276 -3.96007,2.99675c-1.92108,-0.26601 -3.26276,-2.03901 -2.99675,-3.96007z" fill="#000000" stroke="none" stroke-width="1.5" stroke-linecap="butt"/><path d="M110.67905,105.42945c0.56396,-3.39288 3.87126,-5.79613 7.58149,-5.33708c3.71022,0.45905 6.12841,3.5677 5.70609,6.9811c-0.23488,1.8984 -1.30326,1.90675 -2.46292,3.99091c-2.17004,3.90003 -1.07302,4.11193 -1.19651,4.47958c-0.2271,0.67607 -1.57131,-1.1769 -2.16292,-1.03766c-0.39033,0.09186 -0.29595,-1.84758 -0.6947,-2.1785c-0.39097,-0.32446 -1.27477,0.96081 -1.68396,0.91524c-0.36257,-0.04037 -0.3249,-1.70774 -0.79242,-1.59247c-0.65238,0.16087 -1.81153,2.10737 -2.19434,1.87486c-0.53336,-0.32395 0.10442,-2.50202 -0.22605,-3.06363c-1.07395,-1.82509 -2.22291,-2.9318 -1.87376,-5.03235z" fill="#000000" stroke="#000000" stroke-width="1.4" stroke-linecap="butt"/><path d="M92.04882,104.13361c0,0 -2.19256,-3.04403 3.68157,-5.84029c5.27833,-2.51497 7.60869,0.56482 7.60869,0.56482z" fill="url(#color-14)" stroke="#000000" stroke-width="1.15" stroke-linecap="butt"/><path d="M95.14458,95.89625c0,0 2.50799,-0.97823 5.80115,-0.8986c3.64924,0.08824 5.42556,0.62433 5.42556,0.62433l-0.15128,2.91216c0,0 -2.61727,-0.80598 -5.54908,-1.05572c-3.92094,-0.334 -4.75979,0.42614 -7.76653,0.37875c-2.57635,-0.04061 -4.71423,-0.47075 -4.71423,-0.47075l0.08824,-0.86148c0,0 2.50194,0.36196 3.65743,0.4041c0.95369,0.03477 2.8548,-0.3113 2.8548,-0.3113z" fill="#000000" stroke="none" stroke-width="1.5" stroke-linecap="butt"/><path d="M127.69711,107.3873c1.23431,-4.08248 1.99343,-5.85588 3.32551,-5.5075c1.33207,0.34838 0.87266,3.11791 -0.52755,7.01275c-1.33075,3.70163 -5.07545,5.72971 -5.07545,5.72971c0,0 1.04319,-3.15247 2.2775,-7.23496z" data-paper-data="{&quot;index&quot;:null}" fill="url(#color-15)" stroke="#000000" stroke-width="1" stroke-linecap="butt"/><path d="M128.33604,104.58536c0,0 1.86766,-0.33783 1.30792,1.77704c-1.0034,3.7912 -3.74223,5.52318 -3.74223,5.52318" data-paper-data="{&quot;index&quot;:null}" fill="none" stroke="#000000" stroke-width="0.25" stroke-linecap="round"/><path d="M113.78464,118.53781c0.03576,-0.289 0.29901,-0.49428 0.58801,-0.45853c0.289,0.03576 0.49429,0.29901 0.45853,0.58801c-0.03576,0.289 -0.29902,0.49429 -0.58801,0.45853c-0.289,-0.03576 -0.49428,-0.29901 -0.45853,-0.58801z" fill="#ffffff" stroke="none" stroke-width="0.5" stroke-linecap="butt"/><path d="M126.25006,134.37638c0.03576,-0.289 0.29901,-0.49428 0.58801,-0.45853c0.289,0.03576 0.49429,0.29901 0.45853,0.58801c-0.03576,0.289 -0.29902,0.49428 -0.58801,0.45853c-0.289,-0.03576 -0.49428,-0.29901 -0.45853,-0.58801z" fill="#ffffff" stroke="none" stroke-width="0.5" stroke-linecap="butt"/><path d="M129.05855,129.89406c0.03576,-0.289 0.29901,-0.49429 0.58801,-0.45853c0.289,0.03576 0.49428,0.29901 0.45853,0.58801c-0.03576,0.289 -0.29901,0.49428 -0.58801,0.45853c-0.289,-0.03576 -0.49428,-0.29901 -0.45853,-0.58801z" fill="#ffffff" stroke="none" stroke-width="0.5" stroke-linecap="butt"/><path d="M118.15101,125.74192c0.43907,0.29192 0.14715,0.73099 0.14715,0.73099l-0.34941,0.51018c-0.24922,0.25425 -0.45959,0.5501 -0.62887,0.8633c0,0 -0.25445,0.4618 -0.71624,0.20735c-0.4618,-0.25446 -0.20735,-0.71624 -0.20735,-0.71624c0.21884,-0.39113 0.48426,-0.76093 0.79292,-1.08591l0.23081,-0.36252c0,0 0.29192,-0.43907 0.73099,-0.14715z" fill-opacity="0.01" fill="#000000" stroke="none" stroke-width="0.5" stroke-linecap="butt"/><path d="M146.56465,128.43394c0.03576,-0.289 0.29901,-0.49429 0.58801,-0.45853c0.289,0.03576 0.49429,0.29901 0.45853,0.58801c-0.03576,0.289 -0.29902,0.49428 -0.58801,0.45853c-0.289,-0.03576 -0.49428,-0.29901 -0.45853,-0.58801z" fill-opacity="0.01" fill="#000000" stroke="none" stroke-width="0.5" stroke-linecap="butt"/><path d="M119.15788,122.75853c-0.49655,0.17733 -0.67387,-0.31922 -0.67387,-0.31922l-0.11822,-0.33103c-0.19414,-0.57915 -0.52599,-0.86182 -0.92682,-1.321c-0.20172,-0.23109 -0.54135,-1.00561 -0.59346,-0.70332c-0.05709,0.33124 -0.17374,0.6604 -0.33757,0.96427l0.1775,0.11738l-0.32022,0.48422c-0.06074,0.09405 -0.15181,0.16958 -0.26539,0.21014c-0.27423,0.09794 -0.57594,-0.04499 -0.67388,-0.31922l-0.19704,-0.55171c-0.09061,-1.19017 -0.41752,0.30268 -1.72458,-0.28371c-0.71763,-0.32196 -0.45537,-2.91363 -1.40835,-2.39214c0,0 -0.49655,0.17734 -0.67388,-0.3192c-0.10737,-0.30064 0.0323,-0.48426 0.15922,-0.58236c-0.03919,-0.16126 0.0071,-0.31063 0.0071,-0.31063c0.10711,-0.34565 0.21542,-0.69094 0.32552,-1.03565l0.02121,-0.5655c0.00307,-0.21373 0.13688,-0.41294 0.35002,-0.48906c0.21314,-0.07612 0.44286,-0.00674 0.58063,0.15669l0.40959,0.46369l-0.12436,0.10985c0.44345,0.44834 0.70656,0.72029 1.06615,0.06564l0.00664,-0.00548l-0.00215,-0.00142l0.32022,-0.48421c0.06074,-0.09405 0.1518,-0.16959 0.26539,-0.21015c0.27423,-0.09794 0.57594,0.04498 0.67387,0.31921c0.01108,0.03104 0.01909,0.06242 0.02416,0.09382l0.12434,0.69169l-0.22648,0.04071c0.13688,1.11074 -0.10097,1.81509 0.9256,0.52599l0.30961,-0.46818c0.06074,-0.09405 0.1518,-0.16959 0.26539,-0.21015c0.27423,-0.09794 0.57594,0.04498 0.67388,0.31922c0.02979,0.0834 0.03729,0.16933 0.0256,0.25131l-0.09331,0.76975l-0.11455,-0.01388c0.03987,0.3512 0.0924,0.67955 0.16873,0.86235c0.11335,0.27145 0.5233,-0.47625 0.79921,-0.37424c1.1382,0.4208 0.9706,3.11741 1.29501,3.98246l0.0394,0.11034c0,0 0.17733,0.49655 -0.31922,0.67387c-0.0399,0.01424 -0.07774,0.02415 -0.11359,0.0303c-0.03164,0.01795 -0.06719,0.03426 -0.1071,0.04851zM113.88905,118.97923c0.09581,0.26825 -0.09845,0.77434 0.17977,0.83541c0.62537,0.13725 0.83502,-0.8152 1.56709,-0.36216c0.13537,0.08378 0.22392,0.21014 0.2911,0.35598c0.07718,-0.28279 0.20109,-0.52895 0.33356,-0.60193c0.20335,-0.11202 0.41296,-0.14511 0.62293,-0.11804c-0.01614,-0.01294 -0.03246,-0.02623 -0.04898,-0.03989c-0.26952,-0.2227 -0.40847,-0.54874 -0.43085,-0.87689c-0.49813,0.40673 -1.10775,0.72749 -1.5653,0.40911c-0.29034,-0.20202 -0.35577,-1.04867 -0.257,-1.70228c-0.62732,0.39116 -1.45515,0.39126 -1.82376,0.00883c-0.03556,0.11615 -0.07124,0.23226 -0.10705,0.34834c0.69716,0.13029 0.91484,0.83724 1.23851,1.74351zM118.16877,119.81473c-0.09959,-0.27704 0.01795,-1.16195 -0.06847,-0.88052c-0.09453,0.30786 -0.22673,0.48405 -0.42078,0.51487c0.18483,0.13815 0.36359,0.3068 0.53172,0.49141c-0.01323,-0.0418 -0.02734,-0.08371 -0.04246,-0.12576z" fill="#000000" stroke="none" stroke-width="0.5" stroke-linecap="butt"/><path d="M118.22698,119.97191c-0.16813,-0.1846 -0.39742,-0.37958 -0.58225,-0.51773c0.19405,-0.03083 0.37191,-0.24555 0.46644,-0.5534c0.08642,-0.28143 -0.02501,0.66768 0.07458,0.94472c0.01512,0.04205 0.02799,0.08461 0.04122,0.12641z" data-paper-data="{&quot;noHover&quot;:false,&quot;origItem&quot;:[&quot;Path&quot;,{&quot;applyMatrix&quot;:true,&quot;segments&quot;:[[[527.79048,270.31448],[0.04302,0.11962],[-0.28332,-0.78814]],[[527.59568,267.8095],[0.24586,-0.80064],[-0.26894,0.87582]],[[526.3986,269.27426],[0.55206,-0.0877],[0.52582,0.39302]],[[527.91128,270.67226],[-0.4783,-0.52518],[-0.03764,-0.11892]]],&quot;closed&quot;:true,&quot;fillColor&quot;:[0,0,0,1]}]}" fill="url(#color-16)" stroke="none" stroke-width="0.5" stroke-linecap="butt"/><path d="M113.86044,118.99963c-0.32367,-0.90627 -0.54381,-1.65004 -1.24097,-1.78033c0.03582,-0.11607 0.07418,-0.23649 0.10974,-0.35264c0.36861,0.38243 1.22045,0.36818 1.84777,-0.02299c-0.09877,0.65361 -0.03947,1.50159 0.25087,1.70361c0.45756,0.31838 1.11263,0.02728 1.61076,-0.37945c0.02238,0.32815 0.15971,0.66927 0.42923,0.89197c0.01652,0.01366 0.03272,0.02728 0.04886,0.04022c-0.20996,-0.02707 -0.42225,0.01193 -0.6256,0.12395c-0.13247,0.07297 -0.26499,0.32919 -0.34217,0.61197c-0.06717,-0.14585 -0.15584,-0.27212 -0.29121,-0.35589c-0.73208,-0.45304 -0.97867,0.50355 -1.60405,0.3663c-0.27822,-0.06107 -0.09744,-0.57848 -0.19324,-0.84673z" data-paper-data="{&quot;noHover&quot;:false,&quot;origItem&quot;:[&quot;Path&quot;,{&quot;applyMatrix&quot;:true,&quot;segments&quot;:[[[515.61512,267.93758],[0,0],[0.27256,0.76314]],[[516.12656,270.31424],[-0.79152,-0.17374],[1.77912,0.39046]],[[520.58478,269.28394],[-2.08268,-1.28886],[0.38512,0.23834]],[[521.41292,270.29668],[-0.1911,-0.41492],[0.21956,-0.8045]],[[522.36186,268.58426],[-0.37686,0.2076],[0.57852,-0.31868]],[[524.13402,268.24844],[-0.59732,-0.077],[-0.04592,-0.03682]],[[523.99468,268.13496],[0.047,0.03886],[-0.76676,-0.63356]],[[522.76896,265.6403],[0.06366,0.93356],[-1.41712,1.1571]],[[518.31584,266.80418],[1.3017,0.90576],[-0.82598,-0.57472]],[[517.5847,261.96138],[-0.28098,1.85944],[-1.78466,1.11282]],[[512.3963,261.9865],[1.04866,1.08796],[-0.10116,0.33044]],[[512.09174,262.97748],[0.1019,-0.33022],[1.98334,0.37066]],[[515.61516,267.93758],[-0.9208,-2.57824],[0,0]]],&quot;closed&quot;:true,&quot;fillColor&quot;:[0,0,0,1]}]}" fill="url(#color-17)" stroke="none" stroke-width="0.5" stroke-linecap="butt"/><path d="M111.47499,122.91181c0.06474,-0.52327 0.58801,-0.45853 0.58801,-0.45853l0.30599,0.07586c0.1118,0.062 0.21845,0.12237 0.32052,0.18153c0.56128,-3.17021 1.80052,1.23016 3.45015,0.35857l0.24475,-0.44421c0.09879,-0.18955 0.30786,-0.30736 0.53247,-0.27957c0.22006,0.02723 0.39157,0.18635 0.4451,0.38832l0.06615,0.22849c0.33672,0.28371 0.75395,0.48298 1.16967,0.53818l0.54557,-0.04061c0.03746,-0.00353 0.07586,-0.00308 0.11474,0.00173c0.289,0.03576 0.49428,0.29901 0.45853,0.58801c-0.02659,0.21485 -0.17892,0.38344 -0.37409,0.44111l-0.99315,0.31738l-0.0466,-0.1458c-0.2286,0.18389 -0.35818,0.40764 -0.28214,0.72261l0.55487,0.59208c0.10495,0.11042 0.16146,0.26523 0.1413,0.42823c-0.03576,0.289 -0.29902,0.49428 -0.58801,0.45853c-0.03888,-0.00481 -0.07623,-0.01373 -0.11169,-0.02629l-0.51944,-0.17243c-1.02558,0.01218 -2.1915,-0.08542 -2.80665,-0.72556c-0.35511,-0.36955 -0.36074,-0.99915 -0.73271,-1.35174c-0.61384,-0.58187 -1.3782,-0.74049 -2.0982,-1.13497l0.07342,0.04709c0,0 -0.52327,-0.06474 -0.45853,-0.58801zM117.02059,125.48793c-0.05912,-0.45105 -0.0196,-0.86315 0.13796,-1.15476c-0.17426,-0.09214 -0.29749,-0.23827 -0.34806,-0.47911c-0.74943,0.40385 -1.55107,0.5657 -2.30475,0.22442c0.31765,0.32798 0.6275,0.7069 0.99745,1.18836c0.31948,0.41579 0.99128,0.24008 1.51741,0.22109z" fill="#000000" stroke="none" stroke-width="0.5" stroke-linecap="butt"/><path d="M91.30657,127.54009c0.03831,-0.11495 0.09425,-0.19468 0.15766,-0.2493l-0.08294,-0.11612c-0.06399,-0.08727 -0.10178,-0.19495 -0.10178,-0.31146c0,-0.2912 0.23606,-0.52726 0.52726,-0.52726c0.11651,0 0.22419,0.03779 0.31146,0.10178l0.48712,0.34794l-0.0144,0.02016c0.49609,0.18889 0.70634,0.44168 0.37335,0.95187c0.05954,0.12353 0.11655,0.24826 0.17073,0.37414c0,0 0.2077,0.48463 -0.27693,0.69233c-0.48463,0.2077 -0.69233,-0.27693 -0.69233,-0.27693c-0.04312,-0.10109 -0.08821,-0.20139 -0.13519,-0.30083l-0.39053,-0.03938c0,0 -0.5002,-0.16673 -0.33347,-0.66693z" fill="#ffffff" stroke="none" stroke-width="0.5" stroke-linecap="butt"/><path d="M115.4856,125.29728c-0.36995,-0.48146 -0.69407,-0.90568 -1.01172,-1.23366c0.75368,0.34128 1.6138,0.17135 2.36323,-0.23251c0.05057,0.24085 0.18107,0.40061 0.35534,0.49275c-0.15756,0.29161 -0.20171,0.73248 -0.14259,1.18354c-0.52612,0.01899 -1.24477,0.20567 -1.56425,-0.21012z" data-paper-data="{&quot;noHover&quot;:false,&quot;origItem&quot;:[&quot;Path&quot;,{&quot;applyMatrix&quot;:true,&quot;segments&quot;:[[[524.52402,286.45414],[-1.49676,0.05402],[-0.16818,-1.2832]],[[524.9165,283.16896],[-0.44824,0.8296],[-0.49576,-0.26212]],[[523.9263,281.80594],[0.14388,0.68518],[-2.13206,1.14892]],[[517.36952,282.4444],[2.14414,0.9709],[0.90368,0.93308]],[[520.20716,285.82516],[-1.05246,-1.3697],[0.9089,1.18288]]],&quot;closed&quot;:true,&quot;fillColor&quot;:[0,0,0,1]}]}" fill="url(#color-18)" stroke="none" stroke-width="0.5" stroke-linecap="butt"/><path d="M92.94701,130.00537c-0.52327,-0.06474 -0.45853,-0.58801 -0.45853,-0.58801l0.02877,-0.23257c0.05287,-0.41364 0.63049,-1.60323 0.30617,-1.91889c-0.51946,-0.5056 -1.6326,-0.32273 -2.30617,-0.82455c0,0 -0.41539,-0.32474 -0.09065,-0.74013c0.32474,-0.41539 0.74013,-0.09065 0.74013,-0.09065c0.72238,0.60695 1.7771,0.16945 2.43382,0.94253c0.78959,0.92949 0.08078,1.77212 -0.03675,2.76118l-0.02877,0.23257c0,0 -0.06474,0.52327 -0.58801,0.45853z" fill="#000000" stroke="none" stroke-width="0.5" stroke-linecap="butt"/><path d="M98.93904,133.21572c-0.5004,-0.16611 -0.3343,-0.66652 -0.3343,-0.66652l0.18561,-0.55893c0.13681,-0.45702 0.86433,-1.15859 0.4337,-1.36389c-0.78292,-0.37323 -2.19207,-0.26405 -2.62408,0.55954c0,0 -0.25445,0.4618 -0.71624,0.20735c-0.4618,-0.25446 -0.20735,-0.71624 -0.20735,-0.71624c0.65572,-1.14998 3.32073,-1.925 4.37925,-0.69909c0.35561,0.41184 -0.13007,1.8891 -0.25924,2.32837l-0.19083,0.57511c0,0 -0.16611,0.5004 -0.66652,0.3343z" fill="#000000" stroke="none" stroke-width="0.5" stroke-linecap="butt"/><path d="M110.74667,127.36709c0.52327,0.06474 0.45853,0.58801 0.45853,0.58801l-0.02877,0.23257c-0.10064,0.78739 -0.2332,1.85187 -1.20222,2.12138c-1.55125,0.43143 -1.96225,-1.64682 -1.54147,-2.5401c0,0 0.25445,-0.4618 0.71625,-0.20735c0.4618,0.25446 0.20735,0.71625 0.20735,0.71625c-0.47048,0.63038 0.5668,1.51991 0.77355,-0.21967l0.02877,-0.23257c0,0 0.06474,-0.52327 0.58801,-0.45853z" fill="#000000" stroke="none" stroke-width="0.5" stroke-linecap="butt"/><path d="M113.83092,134.8944c-0.49698,0.1761 -0.67309,-0.32087 -0.67309,-0.32087l-0.17502,-0.4939c-0.69177,-2.26129 -0.86046,0.77589 -0.95418,1.53334c0,0 -0.06475,0.52327 -0.58801,0.45853c-0.52327,-0.06474 -0.45853,-0.58801 -0.45853,-0.58801c0.07416,-0.59942 0.03234,-2.57577 0.46753,-2.96823c1.22107,-1.10117 2.16938,0.28682 2.52716,1.21216l0.17501,0.4939c0,0 0.1761,0.49698 -0.32088,0.67309z" fill="#000000" stroke="none" stroke-width="0.5" stroke-linecap="butt"/><path d="M94.28512,116.80105c0.39947,0.34413 0.05534,0.7436 0.05534,0.7436l-0.35097,0.39173c-0.26134,0.20379 -0.52268,0.40758 -0.78401,0.61137c0,0 -0.41579,0.32423 -0.74002,-0.09155c-0.32423,-0.41578 0.09156,-0.74002 0.09156,-0.74002c0.26134,-0.20379 0.52268,-0.40758 0.78401,-0.61137l0.20049,-0.24842c0,0 0.34413,-0.39947 0.7436,-0.05534z" fill="#ffffff" stroke="none" stroke-width="0.5" stroke-linecap="butt"/><path d="M91.49603,114.66562c-0.0641,-0.52335 0.45925,-0.58745 0.45925,-0.58745l0.46212,-0.0563c0.35269,-0.05484 0.69173,-0.0899 1.02348,-0.10562c0.05154,-0.00798 0.10298,-0.01012 0.15416,-0.00593c0.91024,-0.02683 1.77248,0.09331 2.72061,0.35151c0.40697,0.1967 1.31101,0.51068 1.41747,1.08516c0.31446,1.69691 -1.39466,1.03523 -0.90578,2.30382c0.04487,0.11642 -0.20503,0.33307 -0.08433,0.36467c1.06368,0.2786 3.08798,-0.82239 3.97605,0.57941c0.30828,0.48661 -0.2576,1.1325 -0.50496,1.65274c-1.05271,2.21404 -3.12142,1.3118 -5.03857,0.851c-0.27865,0.02624 -0.51317,0.02817 -0.65557,0.01055l-0.46513,-0.05755c0,0 -0.52327,-0.06474 -0.45853,-0.58801c0.00108,-0.00874 0.00228,-0.01731 0.00362,-0.02571c-0.99023,-0.76781 -2.1141,-2.14503 -2.18821,-3.18833c-0.02927,-0.41199 0.2895,-1.35526 0.75438,-2.13487l-0.0826,0.01017c0,0 -0.52335,0.0641 -0.58745,-0.45925zM94.42738,114.97891c0.01399,0.40803 -0.08362,0.88913 -0.23796,1.36749c0.92712,0.07512 1.27018,1.48425 1.06631,2.61011c0.23512,-0.08189 0.48389,-0.15595 0.72815,-0.20551c-0.11529,-0.17033 -0.03698,-0.49311 -0.13169,-0.69881c-0.11161,-0.24242 -0.44464,-0.39927 -0.44415,-0.66615c0.0028,-1.52905 2.22109,-1.35032 0.54115,-2.1354c-0.52831,-0.14275 -1.02518,-0.23313 -1.52181,-0.27171zM98.5629,120.68417c0.69579,-0.05916 0.59256,-0.9683 0.8649,-1.40634c0.07334,-0.11797 0.42809,-0.1683 0.32476,-0.26115c-0.4003,-0.35968 -1.52323,-0.17582 -2.46138,-0.10307c0.05053,0.04345 0.09598,0.09399 0.13561,0.1523c0.45968,0.67626 0.20411,1.15361 -0.31542,1.47686c0.48973,0.11245 0.97772,0.18169 1.45152,0.14141zM93.09101,115.98044c0.00704,-0.03111 0.01464,-0.06717 0.02274,-0.10686c-0.3059,0.45234 -0.68034,0.94088 -0.6546,1.25385c0.00974,0.11854 0.04558,0.2534 0.10199,0.3984c0.0984,-0.18444 0.19741,-0.36671 0.32279,-0.53014c0.09134,-0.30312 0.12239,-0.64139 0.20709,-1.01525zM96.05793,119.9121c-0.17497,0.06397 -0.37866,0.12682 -0.57666,0.18451c0.06939,0.01833 0.13905,0.03731 0.20891,0.05673c0.08464,-0.02622 0.16732,-0.06936 0.24792,-0.13567c0.03273,-0.02693 0.07413,-0.06407 0.11983,-0.10558zM93.27765,118.37687l0.17319,0.3039c0.17123,0.22802 0.49809,0.75416 0.68677,0.74786c0.03547,-0.02472 0.06482,-0.0403 0.07863,-0.04714c0.00613,-0.00884 0.01189,-0.019 0.01725,-0.03058c0.19906,-0.42957 -0.10536,-1.10842 -0.17236,-1.51189c-0.03726,-0.22437 0.18169,-0.86857 0.05425,-0.68018c-0.26267,0.38827 -0.53099,0.69142 -0.75793,1.1113c0,0 -0.02715,0.04927 -0.0798,0.10675z" fill="#000000" stroke="none" stroke-width="0.5" stroke-linecap="butt"/><path d="M94.41215,114.94724c0.49663,0.03858 1.01972,0.12725 1.54803,0.27001c1.67994,0.78508 -0.5473,0.67482 -0.5501,2.20388c-0.00049,0.26688 0.31655,0.35636 0.42816,0.59878c0.09471,0.20569 0.04156,0.59407 0.15684,0.76439c-0.24426,0.04956 -0.50649,0.12538 -0.74162,0.20728c0.20387,-1.12586 -0.16812,-2.58629 -1.09524,-2.66141c0.15435,-0.47837 0.2679,-0.97493 0.25391,-1.38295z" data-paper-data="{&quot;noHover&quot;:false,&quot;origItem&quot;:[&quot;Path&quot;,{&quot;applyMatrix&quot;:true,&quot;segments&quot;:[[[460.2487,256.55708],[0,0],[0.0398,1.1608]],[[459.57172,260.44746],[0.4391,-1.3609],[2.63756,0.2137]],[[462.60526,267.87294],[0.58,-3.20294],[0.6689,-0.23298]],[[464.67676,267.28828],[-0.69488,0.141],[-0.32798,-0.48456]],[[464.30212,265.30024],[0.26944,0.58518],[-0.31752,-0.68966]],[[463.03856,263.40512],[-0.0014,0.75924],[0.00796,-4.35]],[[464.57808,257.33012],[4.77924,2.23348],[-1.50298,-0.40612]],[[460.2487,256.55712],[1.41286,0.10976],[0,0]]],&quot;closed&quot;:true,&quot;fillColor&quot;:[0,0,0,1]}]}" fill="url(#color-19)" stroke="none" stroke-width="0.5" stroke-linecap="butt"/><path d="M98.56743,120.71904c-0.4738,0.04028 -0.99649,-0.0458 -1.48623,-0.15826c0.51953,-0.32325 0.77612,-0.83823 0.31644,-1.51449c-0.03963,-0.05831 -0.08437,-0.10988 -0.13489,-0.15333c0.93814,-0.07275 2.12021,-0.2531 2.52051,0.10658c0.10334,0.09285 -0.25039,0.14517 -0.32373,0.26314c-0.27234,0.43805 -0.1963,1.39719 -0.8921,1.45634z" data-paper-data="{&quot;noHover&quot;:false,&quot;origItem&quot;:[&quot;Path&quot;,{&quot;applyMatrix&quot;:true,&quot;segments&quot;:[[[472.01384,272.78796],[0,0],[1.97946,-0.1683]],[[474.4744,268.78706],[-0.77478,1.2462],[0.20864,-0.33562]],[[475.3983,268.04412],[0.29398,0.26414],[-1.13882,-1.02326]],[[468.39594,267.7509],[2.66892,-0.20698],[0.14374,0.1236]],[[468.78174,268.18418],[-0.11274,-0.1659],[1.30774,1.9239]],[[467.8844,272.38568],[1.478,-0.9196],[1.39324,0.31992]],[[472.01382,272.78798],[-1.34792,0.11458],[0,0]]],&quot;closed&quot;:true,&quot;fillColor&quot;:[0,0,0,1]}]}" fill="url(#color-20)" stroke="none" stroke-width="0.5" stroke-linecap="butt"/><path d="M106.92157,187.80862c0,-0.14505 0.0399,-0.25019 0.09775,-0.32641c-0.19402,-1.11022 -0.70093,-2.15763 -0.95389,-3.21162c-0.64415,-2.68385 -0.13316,-5.2591 -1.24685,-7.83913c-1.00547,-0.2131 -2.13658,-1.29179 -1.09268,-2.34182c0.5588,-0.56207 1.34011,-0.69346 1.90916,-1.37859c0.40406,-0.48647 0.40555,-0.88575 1.08475,-1.20737c0.5608,-0.26556 1.05091,-0.10161 1.54029,-0.71168c0.38441,-0.47922 -0.38733,-1.12536 0.89432,-1.25917c0.26778,-0.02796 0.46766,0.03613 0.61168,0.14019c0.04276,-0.11484 0.1365,-0.2276 0.32806,-0.29146c0.5002,-0.16673 0.66694,0.33347 0.66694,0.33347c0.07764,0.26568 0.23602,0.63971 0.23088,0.98253c0.03073,-0.02479 0.05217,-0.03765 0.05217,-0.03765c0.30025,-0.17897 1.43494,-1.01113 1.93102,-0.71309c0.24589,0.14772 0.58014,1.03554 0.82537,1.85992c0.06419,0.00602 0.13458,0.02565 0.21122,0.06397c0.19161,0.09581 0.26644,0.23053 0.28776,0.35674c0.0821,-0.01813 0.17215,-0.03612 0.27075,-0.0541c1.42753,-0.26018 0.82802,1.17093 1.75069,1.40603l0.4428,-0.00681c0,0 0.52726,0 0.52726,0.52726c0,0.52726 -0.52726,0.52726 -0.52726,0.52726l-0.13496,-0.0015c-0.05292,0.05743 -0.09982,0.08871 -0.09982,0.08871c-1.92226,1.25204 -3.9288,2.97317 -6.53514,3.42106c-1.02111,0.17547 -1.81994,-0.03867 -2.85142,0.31322l-0.50774,0.16925c0.02455,0.083 0.04842,0.16505 0.07156,0.24587c0.09369,0.02829 0.15631,0.07003 0.15631,0.07003c1.34179,0.89452 1.50226,0.30599 2.96239,0.09401c2.39351,-0.34748 3.98613,-0.38324 6.07573,-1.70898c0.0349,-0.15562 0.14763,-0.40688 0.5116,-0.40688c0.52726,0 0.52726,0.52726 0.52726,0.52726l-0.14869,0.38912c0.02914,0.01368 0.05904,0.03053 0.08965,0.05094c0.43871,0.29247 0.14624,0.73118 0.14624,0.73118l-0.44127,0.63007c-2.22788,1.16659 -4.39899,2.04841 -6.94312,2.40997c-0.99695,0.14169 -1.72783,0.79812 -2.70309,1.00136c-0.0021,0.25469 0.00633,0.50689 0.03383,0.75357c3.16873,-0.14652 6.3227,-1.96809 9.27245,-2.95134l-0.03034,-0.04838c0,0 0.37283,-0.37283 0.74566,0c0.37283,0.37283 0,0.74566 0,0.74566l-0.38185,0.30313c-0.22175,0.07391 -0.44471,0.15223 -0.66878,0.23397c0.32629,0.11321 0.32629,0.4961 0.32629,0.4961v0.70301c-0.02574,0.77354 -0.34974,1.33644 -0.80232,1.83855l0.02417,0.0145l-0.52229,0.87048c-0.09108,0.15795 -0.26167,0.26427 -0.45709,0.26427c-0.2912,0 -0.52726,-0.23606 -0.52726,-0.52726c0,-0.06262 0.01092,-0.12269 0.03095,-0.17841l0.15076,-0.45229c-0.02205,-0.31868 -0.45309,-1.71118 -0.54096,-1.21259c0.15028,0.6011 0.03469,1.10301 -0.17236,1.58554c0.06073,0.30339 -0.13702,0.46696 -0.26188,0.53804c-0.23265,0.44401 -0.48776,0.89705 -0.62665,1.42264c-0.07616,0.28819 0.08463,0.64535 -0.08542,0.89017c-0.43891,0.6319 -0.75072,0.18347 -1.20506,0.49173c-0.50787,0.34458 -0.90255,0.96264 -1.25818,1.44525c-0.4356,0.59114 -1.72565,2.76549 -2.84238,2.04904c-0.72037,-0.46215 -0.03335,-2.94949 -0.04321,-3.5913c0,-0.04105 -0.00058,-0.082 -0.00173,-0.12285c-0.09601,-0.0768 -0.17402,-0.2016 -0.17402,-0.40441zM110.62141,187.13266l0.52726,-0.17575c0,0 0.17637,-0.05879 0.35456,-0.00182c0.20987,-0.26507 0.40037,-0.53605 0.5634,-0.81419c-1.28452,0.67973 -2.60422,0.77722 -4.08896,0.78783c0.02808,0.1222 0.05354,0.24499 0.07579,0.36844c0.86451,0.03711 1.78984,0.10741 2.56794,-0.1645zM112.13827,184.87442l0.4725,-0.16143c0.07469,-0.44212 0.06379,-0.90358 -0.05737,-1.38821c0.13753,-0.18766 0.27218,-0.34218 0.40328,-0.46671c-1.88003,0.75395 -3.80964,1.45636 -5.74415,1.58887c0.14477,0.4727 0.31372,0.94736 0.46811,1.42836c1.68131,-0.0011 3.04058,-0.05618 4.45763,-1.00089zM107.97609,190.44492c0,0.07763 -0.08177,0.20901 -0.15167,0.30603c0.66436,-0.80951 1.58822,-1.61292 2.45044,-2.45979c-0.69085,0.10713 -1.41365,0.0787 -2.12318,0.0578c-0.00996,0.7243 -0.17559,1.35963 -0.17559,2.09596zM114.98976,183.65057c0.1153,-0.20614 0.21232,-0.4301 0.19221,-0.76304v-0.70301c0,0 0,-0.11834 0.05607,-0.24288c-0.42083,0.16292 -0.84524,0.33433 -1.27269,0.50794c0.46162,0.08506 0.82111,0.57176 1.02442,1.201zM109.47341,180.60954c1.41496,-0.26206 2.66588,-0.62355 3.89769,-1.08537c-1.03332,0.24969 -2.10749,0.36696 -3.37727,0.54449c-1.3656,0.19092 -1.93494,0.61327 -2.99206,0.14982c0.0341,0.43934 0.01112,0.90298 -0.01616,1.37225c0.86487,-0.20382 1.58548,-0.81408 2.4878,-0.9812zM106.80895,177.44819c1.09432,-0.35752 1.94387,-0.18322 3.01597,-0.35372c1.48454,-0.2361 2.77778,-0.9459 3.96787,-1.74274c-2.95692,0.75968 -6.44805,1.01969 -8.96255,-0.55107c-0.26798,0.16593 -0.49413,0.35524 -0.33386,0.52273c0.24426,0.25526 0.68433,0.18213 1.01312,0.31143c0.28215,0.53269 0.56175,1.24905 0.80755,1.97733zM114.83949,173.95116l-0.12911,-0.0871c0,0 0.06196,-0.12392 0.18588,-0.21295c-0.00412,-0.0075 -0.00818,-0.01504 -0.01217,-0.02262c-0.0682,-0.12941 -0.02614,-0.49959 -0.14491,-0.41422c-0.12652,0.09095 -0.24934,0.18674 -0.37038,0.28487l0.02161,0.0144l-0.34697,0.52045c-0.09388,0.14536 -0.25732,0.2416 -0.44324,0.2416c-0.2912,0 -0.52726,-0.23606 -0.52726,-0.52726v-0.40148c-2.13454,0.41714 -4.20252,0.40148 -6.50287,0.40148c0,0 -0.28232,0 -0.43379,-0.20659c-0.1342,0.19653 -0.26889,0.39327 -0.40673,0.56524c2.59027,1.39154 6.40573,0.76802 9.10995,-0.15584zM112.46771,170.87124c0.04463,-0.37095 -0.56127,0.49967 -0.88103,0.69294c0,0 -0.45212,0.27127 -0.72339,-0.18085c-0.03557,-0.0593 -0.05872,-0.11548 -0.07206,-0.16835c-0.08518,0.08649 -0.2021,0.16145 -0.35923,0.22005c-0.93966,0.35045 -0.99818,-0.41655 -1.17368,-0.85279c-0.10759,-0.26745 0.01969,0.6246 -0.1602,0.84987c-0.34249,0.42888 -0.77034,0.82265 -1.27177,1.04585c-0.21409,0.0953 -0.48292,-0.08045 -0.70301,0c-0.11205,0.04096 -0.22073,0.11669 -0.32719,0.21609c2.1346,0.00361 4.08146,0.04972 6.0637,-0.36777c-0.2004,-0.45117 -0.45887,-0.90036 -0.39213,-1.45502z" fill="#000000" stroke="none" stroke-width="0.5" stroke-linecap="butt"/><path d="M107.94945,190.46784c0,-0.73633 0.1709,-1.42248 0.18086,-2.14679c0.70952,0.02089 1.47851,0.05232 2.16937,-0.05481c-0.86222,0.84688 -1.83569,1.70009 -2.50006,2.5096c0.0699,-0.09702 0.14983,-0.23038 0.14983,-0.308z" data-paper-data="{&quot;noHover&quot;:false,&quot;origItem&quot;:[&quot;Path&quot;,{&quot;applyMatrix&quot;:true,&quot;segments&quot;:[[[498.79338,471.25],[0,0],[0,0.22084]],[[498.3619,472.12062],[0.19886,-0.276],[1.89004,-2.30298]],[[505.33314,465.12276],[-2.45292,2.40928],[-1.9654,0.30476]],[[499.29292,465.2872],[2.01852,0.05944],[-0.02834,2.06056]],[[498.79338,471.24998],[0,-2.09478],[0,0]]],&quot;closed&quot;:true,&quot;fillColor&quot;:[0,0,0,1]}]}" fill="url(#color-21)" stroke="none" stroke-width="0.5" stroke-linecap="butt"/><path d="M112.17239,184.88286c-1.41705,0.9447 -2.84022,1.01004 -4.52152,1.01114c-0.15439,-0.481 -0.3287,-0.97336 -0.47347,-1.44606c1.93451,-0.13251 3.93038,-0.85226 5.81041,-1.6062c-0.1311,0.12453 -0.26448,0.28173 -0.40201,0.46939c0.12116,0.48462 0.13449,0.96453 0.05981,1.40665l-0.4732,0.16509z" data-paper-data="{&quot;noHover&quot;:false,&quot;origItem&quot;:[&quot;Path&quot;,{&quot;applyMatrix&quot;:true,&quot;segments&quot;:[[510.63434,455.40252],[[511.97856,454.94328],[0,0],[0.21248,-1.25778]],[[511.81536,450.99398],[0.34468,1.3787],[0.39126,-0.53386]],[[512.96264,449.66624],[-0.37296,0.35428],[-5.34848,2.1449]],[[496.62112,454.18642],[5.50348,-0.37698],[0.41186,1.34478]],[[497.95284,458.24996],[-0.43922,-1.3684],[4.78314,-0.00312]],[[510.63432,455.40254],[-4.03136,2.68758],[0,0]]],&quot;closed&quot;:true,&quot;fillColor&quot;:[0,0,0,1]}]}" fill="url(#color-22)" stroke="none" stroke-width="0.5" stroke-linecap="butt"/><path d="M109.50847,180.60695c-0.90232,0.16711 -1.69142,0.79079 -2.55629,0.99461c0.02728,-0.46927 0.04875,-0.94746 0.01464,-1.3868c1.05712,0.46345 1.649,0.01195 3.0146,-0.17897c1.26978,-0.17753 2.38981,-0.27274 3.42313,-0.52243c-1.23181,0.46182 -2.48112,0.83155 -3.89608,1.0936z" data-paper-data="{&quot;noHover&quot;:false,&quot;origItem&quot;:[&quot;Path&quot;,{&quot;applyMatrix&quot;:true,&quot;segments&quot;:[[[503.0531,443.26938],[0,0],[4.0254,-0.74552]],[[514.14162,440.18162],[-3.50438,1.31382],[-2.93968,0.71034]],[[504.53364,441.73064],[3.61238,-0.50506],[-3.88498,0.54316]],[[496.02154,442.15686],[3.0074,1.31848],[0.09702,1.24988]],[[495.97558,446.06076],[0.0776,-1.33502],[2.46046,-0.57984]],[[503.0531,443.26936],[-2.567,0.47542],[0,0]]],&quot;closed&quot;:true,&quot;fillColor&quot;:[0,0,0,1]}]}" fill="url(#color-23)" stroke="none" stroke-width="0.5" stroke-linecap="butt"/><path d="M112.50155,170.86171c-0.06674,0.55466 0.19213,1.02141 0.39253,1.47258c-1.98223,0.41749 -3.99644,0.37515 -6.13104,0.37153c0.10646,-0.0994 0.28174,-0.1976 0.39379,-0.23856c0.22009,-0.08045 0.42316,0.11991 0.63725,0.02461c0.50142,-0.22321 0.92745,-0.63943 1.26994,-1.06831c0.17989,-0.22527 0.06972,-1.13955 0.17731,-0.8721c0.1755,0.43624 0.28469,1.22399 1.22435,0.87354c0.15712,-0.0586 0.27283,-0.137 0.358,-0.2235c0.01334,0.05287 0.03833,0.11485 0.0739,0.17415c0.27127,0.45212 0.65396,0.18955 0.65396,0.18955c0.31976,-0.19327 0.92696,-1.05538 0.88233,-0.68443z" data-paper-data="{&quot;noHover&quot;:false,&quot;origItem&quot;:[&quot;Path&quot;,{&quot;applyMatrix&quot;:true,&quot;segments&quot;:[[[511.57156,415.56492],[0,0],[0.12696,-1.05532]],[[509.06512,417.53626],[0.90968,-0.54984],[0,0]],[[507.00714,417.02176],[0.77174,1.28624],[-0.1012,-0.1687]],[[506.80214,416.54282],[0.03796,0.1504],[-0.24232,0.24606]],[[505.78018,417.16884],[0.447,-0.16672],[-2.67324,0.997]],[[502.44118,414.74274],[0.49928,1.24106],[-0.30608,-0.76086]],[[501.98544,417.16052],[0.51176,-0.64086],[-0.97436,1.22012]],[[498.3674,420.13586],[1.4265,-0.635],[-0.60906,0.27112]],[[496.3674,420.13586],[0.62614,-0.22888],[-0.31878,0.11654]],[[495.43658,420.7506],[0.30288,-0.28278],[6.0727,0.01028]],[[512.68716,419.70432],[-5.63924,1.18772],[-0.57012,-1.28354]],[[511.57158,415.56494],[-0.18986,1.57796],[0,0]]],&quot;closed&quot;:true,&quot;fillColor&quot;:[0,0,0,1]}]}" fill="url(#color-24)" stroke="none" stroke-width="0.5" stroke-linecap="butt"/><path d="M106.28564,177.62791c-0.2458,-0.72828 -0.5287,-1.46591 -0.81086,-1.9986c-0.32879,-0.1293 -0.76867,-0.05726 -1.01292,-0.31252c-0.16027,-0.16749 0.067,-0.36116 0.33499,-0.52708c2.5145,1.57076 6.07361,1.31537 9.03053,0.5557c-1.1901,0.79684 -2.49601,1.54046 -3.98055,1.77656c-1.0721,0.1705 -1.9745,-0.01465 -3.06882,0.34287z" data-paper-data="{&quot;noHover&quot;:false,&quot;origItem&quot;:[&quot;Path&quot;,{&quot;applyMatrix&quot;:true,&quot;segments&quot;:[[[495.47298,434.27566],[0,0],[3.11324,-1.01712]],[[504.0531,433.26936],[-3.05,0.48506],[4.22336,-0.67168]],[[515.34128,428.31144],[-3.3857,2.26692],[-8.41212,2.1612]],[[489.84376,426.7437],[7.15348,4.46864],[-0.76238,0.47204]],[[488.89396,428.23082],[-0.45594,-0.4765],[0.69488,0.7262]],[[491.77618,429.1168],[-0.93538,-0.36784],[0.8027,1.51544]],[[494.07358,434.7421],[-0.69928,-2.07188],[0,0]]],&quot;closed&quot;:true,&quot;fillColor&quot;:[0,0,0,1]}]}" fill="url(#color-25)" stroke="none" stroke-width="0.5" stroke-linecap="butt"/><path d="M93.59137,139.46742c-0.08121,-0.24362 -0.00421,-0.40813 0.09615,-0.51281c-0.07127,-0.07791 -0.12321,-0.19145 -0.12321,-0.35693c0,-0.52726 0.52726,-0.52726 0.52726,-0.52726c0.39119,0.02854 0.90059,0.29285 1.37909,0.66559c0.15241,0.00604 0.28013,-0.02963 0.35712,-0.15965c0.43926,-0.74178 0.11604,-2.42562 1.73564,-1.63669c0.40739,0.19845 0.40631,0.81274 0.65768,1.18979c0.9034,1.3551 1.21441,2.69007 0.78557,4.06967l0.16601,0.0415l-0.17307,0.69231c-0.05328,0.2348 -0.26327,0.41008 -0.51419,0.41008c-0.25093,0 -0.46091,-0.17528 -0.51419,-0.41008l-0.06262,-0.25049c-0.21999,0.21044 -0.43729,0.42738 -0.72484,0.47439c-2.42964,0.39717 -0.65206,-1.85117 -1.40215,-2.65733c-0.30438,-0.32713 -0.75057,-0.50776 -1.03382,-0.85335c-0.00179,-0.00219 -0.00359,-0.00439 -0.00539,-0.00662l-0.48407,0.16136c0,0 -0.5002,0.16673 -0.66693,-0.33347zM96.29201,139.52697c0.3072,0.36827 0.53458,0.75538 0.6048,1.09528c0.07321,0.35436 -0.19052,1.29409 -0.10486,1.51751c0.07288,0.19009 0.35365,-0.14374 0.52683,-0.30355l0.13531,-0.40593c0.06626,-0.21545 0.26686,-0.37206 0.50405,-0.37206c0.07292,0 0.14239,0.01481 0.20555,0.04157c0.04971,-0.31212 0.10403,-0.63611 -0.00718,-0.9433c-0.16261,-0.4492 -0.54258,-1.03671 -0.81284,-1.4421c-0.13761,-0.20641 -0.30542,-0.36789 -0.37851,-0.56534c-0.05363,0.41225 -0.18076,0.98647 -0.39173,1.17296c-0.10159,0.0898 -0.19471,0.15641 -0.28142,0.20496z" fill="#000000" stroke="none" stroke-width="0.5" stroke-linecap="butt"/><path d="M96.2628,139.50743c0.08671,-0.04856 0.18703,-0.12301 0.28862,-0.21282c0.21097,-0.18649 0.3551,-0.7681 0.40873,-1.18035c0.07309,0.19744 0.24801,0.35863 0.38562,0.56504c0.27026,0.40539 0.68328,1.02735 0.84589,1.47655c0.11121,0.30719 0.04632,0.65694 -0.00339,0.96906c-0.06317,-0.02676 -0.13539,-0.03914 -0.20831,-0.03914c-0.23718,0 -0.45417,0.16378 -0.52042,0.37923l-0.13945,0.40633c-0.17318,0.15982 -0.46334,0.49272 -0.53622,0.30264c-0.08566,-0.22342 0.16418,-1.16993 0.09097,-1.52429c-0.07022,-0.3399 -0.30484,-0.774 -0.61204,-1.14227z" data-paper-data="{&quot;noHover&quot;:false,&quot;origItem&quot;:[&quot;Path&quot;,{&quot;applyMatrix&quot;:true,&quot;segments&quot;:[[[465.5534,326.39376],[0,0],[0.87394,1.04768]],[[467.274,329.50972],[-0.19978,-0.96698],[0.20828,1.00812]],[[466.97568,333.82688],[-0.2437,-0.63562],[0.20734,0.54078]],[[468.47446,332.9633],[-0.49268,0.45466],[0,0]],[[468.8594,331.80848],[0,0],[0.1885,-0.61294]],[[470.29336,330.75],[-0.67476,0],[0.20746,0]],[[470.87814,330.86826],[-0.1797,-0.07614],[0.14142,-0.88796]],[[470.85772,328.18468],[0.31638,0.87392],[-0.46262,-1.27792]],[[468.54528,324.08206],[0.76886,1.15328],[-0.39148,-0.58722]],[[467.46846,322.47374],[0.20792,0.5617],[-0.15256,1.1728]],[[466.35402,325.81068],[0.6002,-0.53054],[-0.28902,0.25548]],[[465.5534,326.39378],[0.24668,-0.13814],[0,0]]],&quot;closed&quot;:true,&quot;fillColor&quot;:[0,0,0,1]}]}" fill="url(#color-26)" stroke="none" stroke-width="0.5" stroke-linecap="butt"/><path d="M95.83313,106.76235c0.17575,0 0.17575,0.17575 0.17575,0.17575v0.12782c-0.02361,0.45713 -0.38896,0.37124 -0.38347,0.76692c0,0 0,0.0427 -0.02105,0.08601c0.25377,0.45199 0.3083,0.85858 -0.29086,1.1033c0,0 -0.16674,0.05557 -0.22231,-0.11116c-0.05558,-0.16673 0.11116,-0.22231 0.11116,-0.22231c0.64035,-0.11165 -0.69937,-1.67567 -0.92069,-2.36068c-0.04596,-0.02086 -0.09423,-0.0647 -0.09423,-0.15681c0,-0.17575 0.17575,-0.17575 0.17575,-0.17575l0.23966,0.17575c-0.00383,0.38413 0.41642,0.88306 0.75687,1.36759c0.11915,-0.18908 0.31792,-0.28423 0.29765,-0.47285v-0.12782c0,0 0,-0.17575 0.17575,-0.17575z" fill="#ec0000" stroke="none" stroke-width="0.5" stroke-linecap="butt"/><path d="M97.30917,131.87622c-0.91508,-1.4071 1.26287,-2.6846 1.96896,-0.85251l-0.0648,0.58279c0,0 -0.09081,0.45403 -0.5277,0.42605l-0.03753,0.15014c-0.05328,0.2348 -0.26327,0.41008 -0.51419,0.41008c-0.16423,0 -0.31093,-0.07509 -0.40763,-0.19281l-0.34893,-0.41871l0.00689,-0.00574c-0.02707,-0.03117 -0.05221,-0.06415 -0.07506,-0.09928z" fill="#ffffff" stroke="none" stroke-width="0.5" stroke-linecap="butt"/><path d="M97.22447,107.9952c0.15719,-0.0786 0.2358,0.0786 0.2358,0.0786l0.03099,0.08214c0.67663,0.67662 -0.0026,0.83547 0.05147,1.33857c0,0 0,0.17575 -0.17575,0.17575c-0.17575,0 -0.17575,-0.17575 -0.17575,-0.17575c0.01876,-0.36326 0.30869,-0.83282 0.05147,-1.09002l-0.09683,-0.1735c0,0 -0.0786,-0.15719 0.0786,-0.2358z" fill="#ec0000" stroke="none" stroke-width="0.5" stroke-linecap="butt"/><path d="M102.75386,106.32932c0.09749,0.14624 -0.04875,0.24373 -0.04875,0.24373l-0.14955,0.08826c-0.05432,0.20429 -0.25653,0.87929 -0.22858,0.92421c0,0 0.05557,0.16674 -0.11116,0.22231c-0.04281,0.01427 -0.07828,0.01388 -0.10738,0.00543c0.00387,0.10958 0.03558,0.20216 0.14929,0.2568l0.19173,0.12782c0,0 0.14624,0.09749 0.04875,0.24373c-0.09749,0.14624 -0.24373,0.04874 -0.24373,0.04874l-0.19173,-0.12782c-0.2146,-0.1646 -0.25306,-0.98774 -0.33691,-1.00059c-0.72436,-0.11094 -1.10765,0.52176 -1.90901,0.32184c0,0 -0.1705,-0.04262 -0.12788,-0.21313c0.04262,-0.17051 0.21313,-0.12788 0.21313,-0.12788c0.69378,0.1738 1.28988,-0.57779 1.92561,-0.31726c0.10438,0.04278 0.17362,0.09696 0.21888,0.15823c0.06526,-0.26803 0.16627,-0.56061 0.22962,-0.7358l0.23391,-0.16737c0,0 0.14623,-0.09749 0.24373,0.04874z" fill="#ec0000" stroke="none" stroke-width="0.5" stroke-linecap="butt"/><path d="M99.92339,109.47854c-0.17575,0 -0.17575,-0.17575 -0.17575,-0.17575v-0.06391c0.01125,-0.36198 -0.49259,-0.59698 -0.51128,-0.95866c0,0 0,-0.17575 0.17575,-0.17575c0.17575,0 0.17575,0.17575 0.17575,0.17575c-0.01417,0.13189 0.48452,0.45907 0.51128,0.95866v0.06391c0,0 0,0.17575 -0.17575,0.17575z" fill="#ec0000" stroke="none" stroke-width="0.5" stroke-linecap="butt"/><path d="M98.79857,106.62578c0.01569,-0.05136 0.05708,-0.11907 0.16616,-0.11907c0.17575,0 0.17575,0.17575 0.17575,0.17575l-0.12018,0.23064c-0.21378,0.06442 -0.47888,0.31429 -0.45502,0.53627c0,0 0,0.10577 -0.08205,0.15321c0.23782,0.2978 0.5376,0.50187 1.05669,0.50187h0.06391c0,0 0.17575,0 0.17575,0.17575c0,0.17575 -0.17575,0.17575 -0.17575,0.17575h-0.06391c-1.33374,0 -1.45438,-1.18985 -2.29722,-2.0327c0,0 -0.12427,-0.12428 0,-0.24856c0.12427,-0.12428 0.24856,0 0.24856,0c0.34366,0.34366 0.54652,0.73809 0.75523,1.08042c0.07895,-0.27391 0.28881,-0.50244 0.55209,-0.62936z" fill="#ec0000" stroke="none" stroke-width="0.5" stroke-linecap="butt"/><path d="M104.39711,106.02738c-0.12484,0 -0.161,-0.08868 -0.17148,-0.14005c-0.41407,-0.24189 -0.73304,-0.11943 -1.00828,-0.66012c0,0 -0.0786,-0.15719 0.0786,-0.2358c0.15719,-0.0786 0.2358,0.0786 0.2358,0.0786c0.22487,0.45982 0.55584,0.30371 0.96285,0.57147l0.07827,0.21014c0,0 0,0.17575 -0.17575,0.17575z" fill="#ec0000" stroke="none" stroke-width="0.5" stroke-linecap="butt"/><path d="M93.37954,106.1156c0.05558,0.16673 -0.11115,0.22231 -0.11115,0.22231l-0.10473,-0.00006c0.01106,0.02966 0.02212,0.05931 0.03318,0.08897c0,0 0,0.17575 -0.17575,0.17575c-0.17575,0 -0.17575,-0.17575 -0.17575,-0.17575c0.01106,-0.09816 0.02212,-0.19633 0.03318,-0.29449l0.27873,-0.12788c0,0 0.16673,-0.05557 0.22231,0.11116z" fill="#ec0000" stroke="none" stroke-width="0.5" stroke-linecap="butt"/><path d="M91.50095,147.47344c-0.14738,-0.98313 -1.42814,-3.7931 0.50279,-3.86547c0.76236,-0.02857 2.39449,1.42475 2.1909,2.28744c-0.01159,0.0491 -1.60172,1.46235 -1.30123,1.62618c1.83945,1.0029 4.49668,1.32795 6.50519,1.94936c0.33452,0.04802 0.67037,0.08757 1.00357,0.14404c0.60281,0.10217 1.96054,0.2039 1.50735,1.49661c-0.40233,1.14761 -3.69613,0.78229 -4.22584,2.12891c-0.74752,1.90031 1.5185,2.58758 2.28725,3.71258c0.92755,1.3574 1.23766,3.53919 1.88304,5.16761c0.90459,0.9781 0.11885,4.64281 -1.61428,3.57429c-0.99647,-0.61436 -1.56119,-3.65758 -2.10389,-4.68023c-0.01021,-0.01925 -0.12829,-0.23285 -0.26417,-0.48891c0.01188,0.06419 0.02267,0.12274 0.03237,0.17206l0.24068,0.55727c0.03071,0.06688 0.04783,0.14131 0.04783,0.21972c0,0.2912 -0.23606,0.52726 -0.52726,0.52726c-0.06262,0 -0.12269,-0.01091 -0.17841,-0.03095l-0.69134,-0.23045l0.09205,-0.27615c-1.35737,-0.75291 -1.62426,-2.44309 -1.62426,-4.2078c0,-0.54679 0,-1.09357 0,-1.64036c0,-0.25129 0.04244,-0.78065 0.07552,-1.12302c-0.26351,1.15185 -1.89826,3.71852 -3.02239,2.36866c-0.47688,-0.57263 -0.09953,-3.29755 -0.09953,-4.0577c0.01864,-0.42024 0.34226,-0.77049 0.46867,-1.17169c0.1085,-0.34433 -0.67687,-0.34822 -0.8586,-0.66015c-0.15885,-0.27266 -0.24857,-0.58551 -0.30627,-0.89575c-0.14928,-0.80259 -0.0564,-1.74414 -0.01971,-2.60337zM92.14203,145.95483c0.10062,-0.02732 0.22369,-0.02191 0.36922,0.05086c0.0824,0.0412 0.14321,0.0896 0.18745,0.14143c0.18403,-0.15077 0.35393,-0.3104 0.46962,-0.49399c0.26207,-0.41583 -0.69685,-0.69806 -1.08983,-0.99329c-0.23462,-0.17626 0.01721,0.58666 0.02121,0.88009c0.00207,0.15203 0.0178,0.28832 0.04233,0.4149zM92.46816,148.46306c-0.0435,0.73826 -0.03107,1.49884 0.25581,1.95511c0.29586,0.47056 0.96237,0.50379 1.0161,1.21455c0.03171,0.41945 -0.50225,0.75239 -0.46867,1.17169c0,0.89256 0.05658,1.80439 0,2.69488c-0.01732,0.27261 -0.08544,1.08924 -0.06004,0.81727c0.05644,-0.60444 1.31965,-3.04708 2.05855,-3.0995c0.42609,-0.03022 0.78326,0.42818 1.00775,0.7916c0.82258,1.33164 -0.44179,3.85777 0.2294,5.37824c0.08473,0.19195 0.20045,0.36106 0.31672,0.52575c0.09657,-1.26564 0.88173,-1.89678 1.99257,-0.12164c0.96358,1.53981 1.21371,3.29751 1.89854,4.96261c0.1079,0.26234 0.33489,-0.46037 0.46705,-0.71137c0.33645,-0.63901 0.29002,-0.89133 -0.20662,-1.33845c-0.68236,-1.63957 -0.98518,-3.77935 -1.86637,-5.14325c-0.97204,-1.50452 -3.39821,-2.24808 -2.39951,-4.72358c0.57227,-1.41853 2.92276,-1.96315 4.21032,-2.08918c0.22391,-0.02191 -0.44551,-0.06343 -0.66901,-0.08921c-0.36266,-0.04183 -0.7224,-0.10589 -1.0836,-0.15883c-1.59925,-0.48956 -3.19636,-0.9776 -4.8061,-1.43147c-0.34864,-0.0983 -1.336,-0.34471 -1.89288,-0.60523z" fill="#000000" stroke="none" stroke-width="0.5" stroke-linecap="butt"/><path d="M92.06605,145.55007c-0.00399,-0.29342 -0.24248,-1.09518 -0.00787,-0.91892c0.39298,0.29523 1.40416,0.6208 1.14209,1.03664c-0.1157,0.18358 -0.31281,0.36339 -0.49684,0.51416c-0.04424,-0.05183 -0.11457,-0.10024 -0.19697,-0.14144c-0.14553,-0.07276 -0.28585,-0.0856 -0.38646,-0.05828c-0.02454,-0.12658 -0.05189,-0.28013 -0.05396,-0.43216z" data-paper-data="{&quot;noHover&quot;:false,&quot;origItem&quot;:[&quot;Path&quot;,{&quot;applyMatrix&quot;:true,&quot;segments&quot;:[[[453.74713,344.68036],[-0.0698,-0.36011],[0.28625,-0.07771]],[[454.79753,344.82503],[-0.41401,-0.207],[0.23443,0.11721]],[[455.3308,345.22738],[-0.12586,-0.14744],[0.52355,-0.42892]],[[456.66683,343.82204],[-0.32915,0.52227],[0.74556,-1.18299]],[[453.56637,340.99623],[1.11799,0.8399],[-0.66746,-0.50144]],[[453.6267,343.5],[-0.01137,-0.83476],[0.00589,0.4325]]],&quot;closed&quot;:true}]}" fill="url(#color-27)" stroke="none" stroke-width="0.5" stroke-linecap="butt"/><path d="M94.34976,149.03499c1.60974,0.45387 3.23019,0.94219 4.82944,1.43176c0.3612,0.05294 0.72597,0.11929 1.08863,0.16112c0.2235,0.02577 0.85609,0.12709 0.63218,0.14901c-1.28756,0.12602 -3.61633,0.67665 -4.1886,2.09518c-0.99869,2.47551 1.45787,3.19766 2.42991,4.70218c0.88119,1.3639 1.17116,3.51922 1.85351,5.15879c0.49665,0.44712 0.54107,0.70068 0.20463,1.33969c-0.13215,0.251 -0.3618,0.97508 -0.4697,0.71274c-0.68483,-1.66511 -0.93176,-3.42451 -1.89534,-4.96432c-1.11084,-1.77514 -1.91516,-1.13901 -2.01172,0.12663c-0.11626,-0.16468 -0.23618,-0.33418 -0.32091,-0.52613c-0.6712,-1.52047 0.59006,-4.11548 -0.23253,-5.44712c-0.22449,-0.36342 -0.55797,-0.75604 -0.98406,-0.72581c-0.7389,0.05242 -1.98239,2.46642 -2.03883,3.07086c-0.02539,0.27197 -0.02586,-0.55813 -0.00854,-0.83073c0.05658,-0.89049 0.00931,-1.81732 0.00931,-2.70988c-0.03358,-0.41931 0.50577,-0.75645 0.47406,-1.1759c-0.05373,-0.71075 -0.72104,-0.74346 -1.0169,-1.21402c-0.28688,-0.45626 -0.29647,-1.21859 -0.25297,-1.95685c0.55688,0.26052 1.54979,0.5045 1.89842,0.6028z" data-paper-data="{&quot;noHover&quot;:false,&quot;origItem&quot;:[&quot;Path&quot;,{&quot;applyMatrix&quot;:true,&quot;segments&quot;:[[[454.67492,351.81599],[1.58426,0.74116],[-0.12376,2.10026]],[[455.40268,357.37807],[-0.81614,-1.29803],[0.84171,1.3387]],[[458.29337,360.83333],[-0.15285,-2.02203],[0.09021,1.1933]],[[456.96004,364.16667],[-0.09552,-1.19289],[0,2.53925]],[[456.96004,371.83333],[0.16096,-2.53335],[-0.04927,0.77553]],[[456.78922,374.15836],[-0.07225,0.77373],[0.16056,-1.71956]],[[462.64557,365.34063],[-2.10207,0.14911],[1.21218,-0.08599]],[[465.51252,367.59264],[-0.63865,-1.03388],[2.34016,3.78838]],[[466.16514,382.89317],[-1.90948,-4.32557],[0.24106,0.54608]],[[467.06618,384.38886],[-0.33077,-0.46851],[0.27473,-3.6006]],[[472.73483,384.04282],[-3.16022,-5.05009],[2.74128,4.38061]],[[478.13599,398.16094],[-1.94828,-4.73705],[0.30696,0.74633]],[[479.4647,396.13717],[-0.37596,0.71406],[0.95715,-1.81792]],[[478.87687,392.32941],[1.41291,1.27202],[-1.94123,-4.66439]],[[473.56725,377.69741],[2.50688,3.88013],[-2.76536,-4.2802]],[[466.74089,364.25931],[-2.84118,7.04255],[1.62807,-4.03557]],[[478.71881,358.31582],[-3.66299,0.35853],[0.63699,-0.06235]],[[476.81555,358.06204],[0.63582,0.07333],[-1.03172,-0.119]],[[473.7328,357.61019],[1.02758,0.15062],[-4.5497,-1.39277]],[[460.05996,353.5378],[4.57955,1.2912],[-0.99185,-0.27965]]],&quot;closed&quot;:true}]}" fill="url(#color-28)" stroke="none" stroke-width="0.5" stroke-linecap="butt"/><path d="M109.30446,128.38361l-0.0256,-0.11603c0.02279,0.00337 0.04558,0.00673 0.06837,0.0101c0.06739,-0.12871 0.19914,-0.2545 0.45668,-0.2545c0.36249,0 0.47576,0.24921 0.51117,0.40496c0.09273,0.04828 0.43518,0.2603 0.25467,0.6815c-0.09562,0.22313 -0.24996,0.2995 -0.38866,0.31695l-0.00359,0.01434c-0.05328,0.2348 -0.26327,0.41008 -0.51419,0.41008c-0.27368,0 -0.49867,-0.20852 -0.52474,-0.47536l-0.0696,-0.62639l0.20003,-0.02222l0.0234,-0.09358l-0.01574,-0.08303c0,0 0,-0.07415 0.0278,-0.16683z" fill="#ffffff" stroke="none" stroke-width="0.5" stroke-linecap="butt"/><path d="M112.33478,135.47512c-0.52726,0 -0.52726,-0.52726 -0.52726,-0.52726l0.1222,-0.61875c0.03987,-0.02249 0.08173,-0.04068 0.12504,-0.05528l-0.12972,-0.30268c-0.03033,-0.06655 -0.04722,-0.1405 -0.04722,-0.21841c0,-0.2912 0.23606,-0.52726 0.52726,-0.52726c0.19963,0 0.37336,0.11095 0.46287,0.27455l0.27613,0.48322l-0.05346,0.03055l0.01,0.02335c0,0 0.01124,0.02623 0.02239,0.0691c0.03648,0.05723 0.06658,0.11847 0.08851,0.18483c0.08946,0.2706 -0.31446,0.47541 -0.47169,0.71312l0.1222,-0.05634c0,0 0,0.52726 -0.52726,0.52726z" fill="#ffffff" stroke="none" stroke-width="0.5" stroke-linecap="butt"/><path d="M103.64123,119.95055c0,-0.30187 0.17282,-0.43091 0.32058,-0.48607c0.27325,-0.68606 0.84239,-1.76066 1.68574,-1.38482c1.00831,0.44934 -0.31584,2.79486 -0.85037,3.02242c-0.03746,0.01594 -0.07555,0.02931 -0.1142,0.04049l0.00373,0.0112l-0.51558,0.17186c-0.05572,0.02004 -0.11579,0.03095 -0.17841,0.03095c-0.2912,0 -0.52726,-0.23606 -0.52726,-0.52726c0,-0.06262 0.01092,-0.12269 0.03095,-0.17841l0.17124,-0.51371c-0.01675,-0.05341 -0.02643,-0.11518 -0.02643,-0.18664z" fill="#000000" stroke="none" stroke-width="0.5" stroke-linecap="butt"/><path d="M107.85566,121.85961c-0.37102,0.14912 -0.61081,-0.21057 -0.61081,-0.21057l-0.35151,-0.52726c-0.51068,-0.81592 -0.49081,-1.37734 -0.21109,-1.99276l-0.03748,-0.00937l0.17307,-0.69231c0.05328,-0.2348 0.26327,-0.41008 0.51419,-0.41008c0.25093,0 0.46091,0.17528 0.51419,0.41008l0.16938,0.67753c0.25455,0.76113 0.5377,1.44289 0.5467,2.2517c0,0 0,0.52726 -0.52726,0.52726c-0.06826,0 -0.12768,-0.00884 -0.17941,-0.02422z" fill="#000000" stroke="none" stroke-width="0.5" stroke-linecap="butt"/></g></g></svg>