<svg version="1.1" xmlns="http://www.w3.org/2000/svg" xmlns:xlink="http://www.w3.org/1999/xlink" width="492" height="367.57853" viewBox="0,0,492,367.57853"><defs><linearGradient x1="240.5" y1="332" x2="240.5" y2="365" gradientUnits="userSpaceOnUse" id="color-1"><stop offset="0" stop-color="#ffffff"/><stop offset="1" stop-color="#ffffff" stop-opacity="0"/></linearGradient><linearGradient x1="240.89463" y1="-2" x2="240.89463" y2="32.69503" gradientUnits="userSpaceOnUse" id="color-2"><stop offset="0" stop-color="#ffffff" stop-opacity="0"/><stop offset="1" stop-color="#ffffff"/></linearGradient><linearGradient x1="-3.5" y1="180.23215" x2="29.5" y2="180.23215" gradientUnits="userSpaceOnUse" id="color-3"><stop offset="0" stop-color="#ffffff" stop-opacity="0"/><stop offset="1" stop-color="#ffffff"/></linearGradient><linearGradient x1="451.40985" y1="179.71073" x2="484.40985" y2="179.71073" gradientUnits="userSpaceOnUse" id="color-4"><stop offset="0" stop-color="#ffffff"/><stop offset="1" stop-color="#ffffff" stop-opacity="0"/></linearGradient><linearGradient x1="417.58064" y1="39.24387" x2="442.76428" y2="39.24387" gradientUnits="userSpaceOnUse" id="color-5"><stop offset="0" stop-color="#000000"/><stop offset="1" stop-color="#000000" stop-opacity="0"/></linearGradient><linearGradient x1="417.58064" y1="45.61947" x2="442.76428" y2="45.61947" gradientUnits="userSpaceOnUse" id="color-6"><stop offset="0" stop-color="#000000"/><stop offset="1" stop-color="#000000" stop-opacity="0"/></linearGradient></defs><g transform="translate(5.5,2.57853)"><g data-paper-data="{&quot;isPaintingLayer&quot;:true}" fill-rule="nonzero" stroke-linejoin="miter" stroke-miterlimit="10" stroke-dasharray="" stroke-dashoffset="0" style="mix-blend-mode: normal"><path d="M-5.5,365l33,-33h424l35,33z" fill="url(#color-1)" stroke="none" stroke-width="0" stroke-linecap="butt"/><path d="M485.5,-2l-37,33l-418.21073,1.69503l-34,-33.48429z" data-paper-data="{&quot;index&quot;:null}" fill="url(#color-2)" stroke="none" stroke-width="0" stroke-linecap="butt"/><path d="M-3.5,-2l33,33v299.46429l-33,32z" fill="url(#color-3)" stroke="none" stroke-width="0" stroke-linecap="butt"/><path d="M484.40985,362l-33,-30v-303.90576l33,-30.67277z" data-paper-data="{&quot;index&quot;:null}" fill="url(#color-4)" stroke="none" stroke-width="0" stroke-linecap="butt"/><path d="M28,331.5v-303h424v303z" fill="#ffffff" stroke="#000000" stroke-width="5" stroke-linecap="butt"/><path d="M34.75,325.0005v-72.50051h142.5v72.50051z" fill="#000000" stroke="none" stroke-width="0" stroke-linecap="butt"/><text transform="translate(40.5,269.7425) scale(0.37277,0.33334)" font-size="40" xml:space="preserve" fill="#ffffff" fill-rule="nonzero" stroke="none" stroke-width="1" stroke-linecap="butt" stroke-linejoin="miter" stroke-miterlimit="10" stroke-dasharray="" stroke-dashoffset="0" font-family="Serif" font-weight="normal" text-anchor="start" style="mix-blend-mode: normal"><tspan x="0" dy="0">Name: The Test</tspan><tspan x="0" dy="46.150000000000006px">Age: Unknown</tspan><tspan x="0" dy="46.150000000000006px">Status: Contained</tspan><tspan x="0" dy="46.150000000000006px">Role: Test(?)</tspan></text><path d="M194.25,59v-19.5h117.84467v19.5z" fill="#000000" stroke="none" stroke-width="0" stroke-linecap="butt"/><text transform="translate(199.22954,53.9009) scale(0.42192,0.42192)" font-size="40" xml:space="preserve" fill="#ffffff" fill-rule="nonzero" stroke="none" stroke-width="1" stroke-linecap="butt" stroke-linejoin="miter" stroke-miterlimit="10" stroke-dasharray="" stroke-dashoffset="0" font-family="Serif" font-weight="normal" text-anchor="start" style="mix-blend-mode: normal"><tspan x="0" dy="0">Documentation:</tspan></text><path d="M429.07853,298.09424h-241v-236.31414" fill="none" stroke="#000000" stroke-width="5" stroke-linecap="round"/><path d="M37.83201,243v-205h136.5312v205z" fill="#174752" stroke="#151515" stroke-width="6.5" stroke-linecap="butt"/><path d="M37.83201,243v-205h136.5312v205z" fill="#ffffff" stroke="#151515" stroke-width="6.5" stroke-linecap="butt"/><text transform="translate(349.55711,323.11998) scale(0.35959,0.35959)" font-size="40" xml:space="preserve" fill="#000000" fill-rule="nonzero" stroke="none" stroke-width="1" stroke-linecap="butt" stroke-linejoin="miter" stroke-miterlimit="10" stroke-dasharray="" stroke-dashoffset="0" font-family="Serif" font-weight="normal" text-anchor="start" style="mix-blend-mode: normal"><tspan x="0" dy="0">Click this to exit</tspan></text><text transform="translate(194.75,86.87368) scale(0.37249,0.37249)" font-size="40" xml:space="preserve" fill="#000000" fill-rule="nonzero" stroke="none" stroke-width="1" stroke-linecap="butt" stroke-linejoin="miter" stroke-miterlimit="10" stroke-dasharray="" stroke-dashoffset="0" font-family="Serif" font-weight="normal" text-anchor="start" style="mix-blend-mode: normal"><tspan x="0" dy="0">I don't get told much about this thing.</tspan><tspan x="0" dy="48px">I just call it "The Test" because I know</tspan><tspan x="0" dy="48px">it is a result of a test, I just have no idea</tspan><tspan x="0" dy="48px">which one. Whatever it was, it found</tspan><tspan x="0" dy="48px">the ability to speak in its own language.</tspan><tspan x="0" dy="48px">Just a repeated pattern of different</tspan><tspan x="0" dy="48px">pitched sounds, but it knows what</tspan><tspan x="0" dy="48px">it's saying. I only ever saw it once though.</tspan><tspan x="0" dy="48px"> </tspan><tspan x="0" dy="48px">They should really get somebody else</tspan><tspan x="0" dy="48px">to write these ones, I have no idea what</tspan><tspan x="0" dy="48px">this is.</tspan></text><g><path d="M376.458,50.08239l65.9875,-0.31878" fill="none" stroke="#000000" stroke-width="3" stroke-linecap="round"/><g stroke="none" stroke-linecap="butt"><g fill="#000000" stroke-width="1" font-weight="normal" font-size="40" text-anchor="start"><text transform="translate(376.45799,48.48849) scale(0.33457,0.33457)" font-size="40" xml:space="preserve" fill="#000000" fill-rule="nonzero" stroke="none" stroke-width="1" stroke-linecap="butt" stroke-linejoin="miter" stroke-miterlimit="10" stroke-dasharray="" stroke-dashoffset="0" font-family="Pixel" font-weight="normal" text-anchor="start" style="mix-blend-mode: normal"><tspan x="0" dy="0">DONK</tspan></text><text transform="translate(375.65959,62.03519) scale(0.33457,0.33457)" font-size="40" xml:space="preserve" fill="#000000" fill-rule="nonzero" stroke="none" stroke-width="1" stroke-linecap="butt" stroke-linejoin="miter" stroke-miterlimit="10" stroke-dasharray="" stroke-dashoffset="0" font-family="Sans Serif" font-weight="normal" text-anchor="start" style="mix-blend-mode: normal"><tspan x="0" dy="0">Industries</tspan></text></g><path d="M417.58064,41.15655v-3.82536h25.18364v3.82536z" fill="url(#color-5)" stroke-width="0"/><path d="M417.58064,47.47902v-3.7191h25.18364v3.7191z" fill="url(#color-6)" stroke-width="0"/></g></g><path d="M76.49441,240.62747c0,0 -0.43493,-64.60936 -0.54308,-80.78372c-0.03731,-5.58077 5.60423,-25.1645 27.51981,-25.2739c21.63301,-0.10799 27.28344,20.185 27.27805,25.25722c-0.05243,31.65492 0.44789,80.76624 0.44789,80.76624l-7.18537,0.06581l-0.10872,-78.61448c0,0 0.05168,-2.12159 -1.92783,-2.15914c-2.35098,-0.04459 -2.01622,2.13276 -2.01622,2.13276l0.14066,78.63286l-33.00409,0.04944l-0.20905,-78.88144c0,0 0.19132,-1.99817 -1.9753,-2.00873c-2.12948,-0.01037 -1.92745,1.99131 -1.92745,1.99131l0.24172,78.76761z" fill="#030205" stroke="#000000" stroke-width="2" stroke-linecap="butt"/><path d="M113.32929,171.1439c-0.39096,0 -0.70789,-0.31693 -0.70789,-0.70789c0,-0.39096 0.31693,-0.7079 0.70789,-0.7079c0.39096,0 0.70789,0.31694 0.70789,0.7079c0,0.39096 -0.31693,0.70789 -0.70789,0.70789z" fill="#000000" stroke="none" stroke-width="1.5" stroke-linecap="butt"/><path d="M109.72871,174.04332c-3.05544,-0.21521 -4.4854,-1.22801 -4.2235,-1.76618c0.08069,-0.16582 1.9485,0.72804 4.77149,0.89319c4.38718,0.25665 5.82565,-0.43244 5.82565,-0.43244v0.9215c0,0 -1.65213,0.71652 -6.37364,0.38395z" fill="#000000" stroke="#000000" stroke-width="0" stroke-linecap="butt"/><path d="M90.68982,170.43601c0,-0.39096 0.31693,-0.7079 0.70789,-0.7079c0.39096,0 0.7079,0.31694 0.7079,0.7079c0,0.39096 -0.31694,0.70789 -0.7079,0.70789c-0.39096,0 -0.70789,-0.31693 -0.70789,-0.70789z" fill="#000000" stroke="none" stroke-width="1.5" stroke-linecap="butt"/><path d="M94.99829,174.04332c-4.72151,0.33258 -6.37364,-0.38395 -6.37364,-0.38395v-0.9215c0,0 1.43846,0.6891 5.82565,0.43244c2.82299,-0.16515 4.6908,-1.05901 4.7715,-0.89319c0.2619,0.53817 -1.16805,1.55096 -4.2235,1.76618z" fill="#000000" stroke="#000000" stroke-width="0" stroke-linecap="butt"/><path d="M102.7202,212.75517c-0.5606,0 -1.01506,-0.45446 -1.01506,-1.01506c0,-0.5606 0.45446,-1.01506 1.01506,-1.01506c0.5606,0 1.01506,0.45446 1.01506,1.01506c0,0.5606 -0.45446,1.01506 -1.01506,1.01506z" data-paper-data="{&quot;index&quot;:null}" fill="#000000" stroke="none" stroke-width="1.5" stroke-linecap="butt"/><path d="M86.24799,242.05756v-81.59795c0,0 0.51834,-6.66127 0.51834,-10.02121c0,-3.07905 -0.51834,-9.36941 -0.51834,-9.36941c0,0 1.8299,-1.6107 3.187,-2.5657c1.3571,-0.955 3.54041,-1.91925 3.54041,-1.91925c0,0 -0.86007,25.21491 9.5183,25.16676c10.56569,-0.04903 9.91647,-25.16676 9.91647,-25.16676c0,0 2.67843,1.04022 4.22076,2.01703c1.54233,0.9768 3.25415,2.46792 3.25415,2.46792c0,0 -0.51834,6.45152 -0.51834,9.71497c0,3.31449 0.51834,10.02121 0.51834,10.02121v81.25239z" fill="#ffffff" stroke="#000000" stroke-width="2" stroke-linecap="butt"/><path d="M106.66261,207.52081c-0.40054,1.66381 -2.06435,1.26327 -2.06435,1.26327l-1.89835,-0.457c0,0 -1.66381,-0.40054 -1.26327,-2.06435c0.40054,-1.66381 2.06435,-1.26327 2.06435,-1.26327l1.89835,0.457c0,0 1.66381,0.40054 1.26327,2.06435z" fill="#ffffff" stroke="none" stroke-width="0.5" stroke-linecap="butt"/><g stroke="none" stroke-width="0"><path d="M72.30828,105.38214c0,0 4.21901,-4.05375 4.30685,-4.64638c0.23037,-1.55433 -0.11484,-27.50007 24.6213,-28.45886c30.55527,-0.62541 26.70718,24.19755 28.42947,28.88087c2.36153,6.42154 4.21445,11.91107 4.21445,11.91107c0,0 -1.89422,-1.40571 -2.79271,-2.14532c-0.83801,-0.68983 -2.60222,-2.15345 -2.60222,-2.15345c0,0 2.11598,7.08367 0.89737,14.1665c-1.06945,6.49009 -4.99564,11.79146 -4.99564,11.79146l-0.79079,-1.60685c0,0 -0.70005,1.50457 -1.47864,2.28139c-0.77859,0.77681 -2.35394,1.99387 -2.35394,1.99387l-0.06301,-2.53567c0,0 -4.83291,7.54221 -16.66895,7.44198c-11.16225,-0.17488 -17.84694,-7.30758 -17.84694,-7.30758l-0.07954,1.81734c0,0 -2.66612,-2.25402 -4.23144,-6.64518c-1.86567,-5.23375 -2.21753,-8.38096 -2.21753,-8.38096c0,0 -1.60119,1.30005 -3.91353,1.89918c-2.8975,0.75075 -4.75525,0.23634 -4.75525,0.23634c0,0 2.46978,-1.86001 3.82243,-3.26517c1.20483,-1.25161 1.81168,-2.31184 1.81168,-2.31184c0,0 -1.44272,0.74252 -2.89749,1.10755c-1.51789,0.38088 -2.75874,0.36344 -2.75874,0.36344c0,0 3.40552,-3.44821 4.81281,-7.44387c1.3287,-3.77254 1.43734,-7.5007 1.43734,-7.5007c0,0 -0.9321,0.45291 -2.2796,0.5443c-0.85414,0.05793 -1.62773,-0.03347 -1.62773,-0.03347z" fill="#000000" stroke-linecap="butt"/><path d="M83.79886,113.13222c-0.39504,-4.99249 0.22932,-11.7429 0.22932,-11.7429c0,0 2.33468,-0.02823 9.52486,-2.15235c5.52395,-1.6319 14.06542,-6.49436 14.06542,-6.49436c0,0 -1.47864,2.05706 -2.33278,3.05314c-0.90805,1.05895 -2.73331,3.12353 -2.73331,3.12353c0,0 5.36541,-1.14154 10.04543,-3.23739c5.86538,-2.42036 7.25098,-4.14357 8.86506,-3.14388c1.905,1.17988 0.70512,15.86944 0.49181,19.67405c-0.28862,3.8808 -1.73412,6.5029 -2.15651,8.57078c-0.42239,2.06788 -0.28039,4.20075 -1.51024,10.97979c-0.76751,4.23059 -2.84893,6.10927 -6.85867,10.03588c-4.00974,3.92662 -6.19766,6.33386 -8.9083,6.38108c-2.60862,0.04545 -6.11679,-3.49128 -9.53933,-7.10718c-3.64443,-3.85035 -6.0752,-5.80292 -6.65064,-10.36374c-0.51824,-4.1075 -0.53156,-6.78277 -0.7685,-10.43808c-0.17317,-2.67157 -1.54787,-4.41188 -1.76362,-7.13837z" fill="#000000" stroke-linecap="butt"/><path d="M116.70461,102.78176c0,0 1.04343,0.21773 2.91326,0.76004c1.70787,0.49534 3.04575,1.19385 3.04575,1.19385l0.13355,0.80115c0,0 -4.96265,-2.14258 -10.34734,-1.69122c-4.30547,0.36092 -6.82018,1.92519 -6.82018,1.92519l0.03132,-2.8592c0,0 2.14088,-1.1666 5.38297,-1.27021c3.35717,-0.10728 5.53849,0.40473 5.53849,0.40473z" data-paper-data="{&quot;index&quot;:null}" fill="#000000" stroke-linecap="butt"/><path d="M107.96707,132.20837c0.39046,0.14503 2.11082,0.95796 4.12355,1.77697c2.02877,0.82553 4.938,1.5696 4.92465,1.68431c-0.01695,0.14557 -7.143,0.15535 -9.36405,0.43279c-1.86127,0.2325 -4.57865,0.48304 -4.57865,0.48304c0,0 -4.86297,-0.79522 -9.08543,-1.67384c-3.38416,-0.70418 -7.11871,-1.13707 -7.12601,-1.2011c-0.00985,-0.08634 2.64803,-0.48651 4.6714,-0.9547c0.78438,-0.33995 3.72369,-1.01663 3.72369,-1.01663c0,0 3.39247,-0.19007 5.20814,0.39635c1.94548,0.62834 1.94098,1.67408 2.1105,1.69017c0,0 0.81074,-1.19748 1.62157,-1.44069c0.81084,-0.2432 3.47895,-0.28499 3.77063,-0.17667z" fill="#000000" stroke-linecap="butt"/><path d="M102.71411,133.27619c-0.70765,0 -2.42196,-2.23188 -2.59214,-3.67166c-0.15226,-1.2882 0.90025,-2.62041 2.59214,-2.62041c1.6919,0 2.8765,0.33595 2.75868,2.86721c-0.09999,2.1482 -1.06679,3.42486 -2.75868,3.42486z" fill="#000000" stroke-linecap="butt"/><path d="M105.17989,112.67589c0,0 0.07023,2.71745 0.00394,4.87844c-0.13125,4.27914 -0.74031,19.00326 -0.74031,19.00326l-2.04107,0.00591c0,0 -0.54964,-2.8564 -0.76889,-6.50297c-0.29677,-4.93595 -0.3077,-11.15332 -0.5226,-13.43905c-0.2037,-2.16665 -0.6133,-3.91181 -0.6133,-3.91181" fill="#000000" stroke-linecap="round"/><path d="M84.96233,120.06195c0,0 -3.37622,-2.40755 -4.21961,-6.14374c-0.88741,-3.93119 -1.00023,-6.66247 0.32867,-6.83986c1.3289,-0.1774 1.85045,1.62709 2.55512,5.71979c0.70466,4.0927 1.33583,7.26382 1.33583,7.26382z" data-paper-data="{&quot;index&quot;:null}" fill="#000000" stroke-linecap="butt"/><path d="M84.82365,117.3597c0,0 -2.43959,-2.00117 -2.95595,-5.78476c-0.28805,-2.11062 1.47638,-1.56086 1.47638,-1.56086" fill="#000000" stroke-linecap="round"/><path d="M86.88643,112.80348c0.04855,-3.34868 3.31203,-6.11709 6.99007,-6.06378c3.67804,0.05333 6.17949,2.90819 6.13094,6.25688c-0.04855,3.34868 -2.82271,6.0201 -6.50075,5.96678c-3.67804,-0.05333 -6.66882,-2.81119 -6.62026,-6.15988z" fill="#ffffff" stroke-linecap="butt"/><path d="M89.92416,112.88421c0.02737,-1.88825 1.58029,-3.39677 3.46853,-3.36939c1.88825,0.02737 3.39677,1.58029 3.36939,3.46853c-0.02737,1.88825 -1.58028,3.39677 -3.46853,3.36939c-1.88825,-0.02737 -3.39677,-1.58029 -3.36939,-3.46853z" fill="#ffffff" stroke-linecap="butt"/><path d="M105.40748,112.80398c0.13932,-3.34614 3.048,-6.06396 6.68827,-6.06396c3.64026,0 6.34877,2.71493 6.34877,6.06396c0,3.34903 -2.66001,6.20947 -6.63977,6.25797c-3.78548,0.04613 -6.54276,-2.76343 -6.39726,-6.25797z" fill="#ffffff" stroke-linecap="butt"/><path d="M108.59193,112.80518c0,-1.94291 1.57504,-3.51795 3.51795,-3.51795c1.94291,0 3.51794,1.57504 3.51794,3.51795c0,1.94291 -1.57503,3.51794 -3.51794,3.51794c-1.94291,0 -3.51795,-1.57503 -3.51795,-3.51794z" fill="#ffffff" stroke-linecap="butt"/><path d="M86.83959,112.43918c0,0 0.04352,-6.17119 7.25686,-6.04098c6.48327,0.11354 6.54113,6.43961 6.54113,6.43961z" fill="#000000" stroke-linecap="butt"/><path d="M105.14897,112.52879c0,0 -0.16899,-6.4745 7.66555,-6.23149c6.64979,0.22827 6.53513,6.60736 6.53513,6.60736z" fill="#000000" stroke-linecap="butt"/><path d="M89.25591,105.58582c0,0 2.30664,-1.24517 5.49851,-1.56197c3.53699,-0.35105 5.31765,-0.04537 5.31765,-0.04537l0.20199,2.83226c0,0 -2.62557,-0.46593 -5.48859,-0.35673c-3.82894,0.14603 -4.54867,0.9809 -7.45992,1.29459c-2.49451,0.26879 -4.61189,0.10873 -4.61189,0.10873l-0.01772,-0.84304c0,0 2.46103,0.05064 3.58267,-0.0468c0.92576,-0.08043 2.72152,-0.64215 2.72152,-0.64215z" fill="#000000" stroke-linecap="butt"/><path d="M122.08699,112.79813c0.70466,-4.0927 1.22621,-5.89718 2.55512,-5.71979c1.3289,0.17739 1.21608,2.90866 0.32867,6.83986c-0.84339,3.73619 -4.21961,6.14374 -4.21961,6.14374c0,0 0.63116,-3.17112 1.33583,-7.26382z" data-paper-data="{&quot;index&quot;:null}" fill="#000000" stroke-linecap="butt"/><path d="M122.36941,110.01407c0,0 1.76442,-0.54977 1.47638,1.56086c-0.51635,3.7836 -2.95595,5.78476 -2.95595,5.78476" data-paper-data="{&quot;index&quot;:null}" fill="#000000" stroke-linecap="round"/></g><g stroke="none" stroke-width="0.5" stroke-linecap="butt"><path d="M120.30066,184.55235c-0.94116,0.23851 -1.4438,-0.23589 -1.68348,-0.60751c-0.69281,-0.24182 -1.38423,-0.48017 -2.07455,-0.7071c-5.75224,-1.891 -11.84412,-3.44482 -17.30017,-5.99769c-0.16716,-0.07822 -0.33284,-0.15863 -0.49719,-0.24106c-0.30784,-0.01042 -0.53592,-0.08968 -0.53592,-0.08968l-0.9938,-0.36365c-1.88297,-0.98713 -3.70499,-2.06412 -5.5803,-3.06329c-1.13675,-0.60566 -14.13078,-10.63171 -14.89923,-11.73958c-1.95753,-2.82214 -1.10233,-6.61273 0.43631,-9.64135c0.0076,-0.20127 0.06999,-0.4259 0.21386,-0.6731c0.12925,-0.22207 0.27811,-0.38306 0.43547,-0.49771c0.23128,-0.38383 0.4701,-0.7489 0.71091,-1.09073c0,0 12.10573,8.18888 13.3768,8.96719c1.27107,0.77831 0.43302,1.95879 0.43302,1.95879c-0.05463,0.07626 -0.10974,0.1548 -0.16514,0.23548c1.96352,1.09127 3.84773,2.30415 5.85691,3.31244c0.25073,0.12583 0.502,0.25043 0.75378,0.37381c0.33965,-0.28551 0.9094,-0.54612 1.69117,-0.15833c0.74633,0.37021 0.85635,0.91989 0.80681,1.33521c8.40255,3.80341 17.33897,6.31655 26.50193,7.84956v-0.89096c0.45472,0.10065 0.92923,0.15393 1.41713,0.15393c0.63127,0 1.24012,-0.0892 1.81271,-0.25478l0.14356,0.64859l0.54639,-0.00116c0,0 1.18256,0.89056 0.22365,1.98882c-0.37869,0.43372 -0.79225,0.55728 -1.15409,0.54799c-0.06245,1.22522 -0.17229,2.44885 -0.31609,3.66759c-0.31153,2.01529 -0.20759,6.01283 -2.83511,6.96103c-0.77853,0.28095 -1.65257,-0.24923 -2.45599,-0.46128c-1.624,-0.42864 -3.23598,-0.97085 -4.83936,-1.5293c-0.00992,0.00265 -0.01992,0.00526 -0.03002,0.00781zM98.40992,171.14394l-0.12661,1.9416c0,0 -0.01124,0.13875 -0.07353,0.32592c0.78601,0.47655 1.59098,0.92438 2.43251,1.31724c2.15009,1.00375 4.40372,1.84791 6.6962,2.61911c0.45331,-1.90699 1.05663,-3.49958 1.94709,-5.28457c-3.16321,-1.06147 -6.27236,-2.27279 -9.31381,-3.64805c-0.52149,0.90916 -1.04217,1.81872 -1.56186,2.72875zM116.98421,178.2451c0.14136,-1.11197 1.09371,-1.99577 1.64056,-2.99366c0,0 0.12858,-0.21784 0.37626,-0.42085c-2.29527,-0.54504 -4.57054,-1.1574 -6.82105,-1.84198c-0.93731,1.8255 -1.51331,3.32553 -1.94548,5.2961c2.43473,0.76322 4.88252,1.48583 7.268,2.26876c-0.29676,-0.76263 -0.618,-1.52393 -0.51828,-2.30836zM95.47995,170.37411c0.58764,-1.08193 1.18259,-2.16052 1.78607,-3.23495c-0.22687,-0.11151 -0.45334,-0.22398 -0.67939,-0.33742c-1.99596,-1.00164 -3.86637,-2.20505 -5.81495,-3.28985c-0.73831,1.66994 -12.44858,-5.81294 -11.93845,-4.24967c0.25974,0.04317 0.43849,0.12394 0.43849,0.12394c1.71762,0.78029 14.54621,11.16204 16.09627,12.18892zM123.4736,182.47109c0.13168,-1.71758 0.32464,-3.43128 0.54884,-5.14058c0,0 0.13249,-1.00902 1.09398,-1.21167c-1.24448,-0.23007 -2.48446,-0.47816 -3.71917,-0.74501c0.26903,0.60768 -0.10236,1.23691 -0.10236,1.23691c-0.4289,0.65531 -1.18991,1.20434 -1.28672,1.96592c-0.09681,0.76158 0.50559,1.46011 0.75839,2.19016l0.27958,0.95154c0.75115,0.24693 1.50229,0.49387 2.25344,0.74081c0.06076,0.01997 0.12163,0.03968 0.18259,0.05916zM127.04501,177.67283c-0.2039,1.55114 -0.39362,3.10454 -0.52998,4.66205l0.20141,1.03925c0.24131,-1.38519 0.50962,-2.76656 0.72388,-4.15558c0.10502,-0.88106 0.19051,-1.76497 0.25064,-2.65021c-0.39896,-0.06562 -0.79751,-0.13302 -1.19562,-0.20222c0.66111,0.45795 0.54967,1.30671 0.54967,1.30671z" fill="#000000"/><path d="M123.72908,183.19576c-0.06096,-0.01949 -0.12309,-0.03894 -0.18385,-0.05891c-0.75114,-0.24695 -1.52191,-0.4964 -2.27306,-0.74333l-0.28636,-0.95589c-0.25279,-0.73005 -0.86475,-1.45382 -0.76794,-2.2154c0.09681,-0.76158 0.87424,-1.33153 1.30314,-1.98684c0,0 0.37626,-0.63103 0.10723,-1.23871c1.23472,0.26685 2.50308,0.52036 3.74756,0.75043c-0.9615,0.20266 -1.09396,1.21169 -1.09396,1.21169c-0.22419,1.7093 -0.42962,3.47211 -0.56131,5.1897z" data-paper-data="{&quot;noHover&quot;:false,&quot;origItem&quot;:[&quot;Path&quot;,{&quot;applyMatrix&quot;:true,&quot;segments&quot;:[[[762.99524,343.50291],[0,0],[0.43246,-6.07367]],[[764.79768,325.32492],[-0.73628,6.04437],[0,0]],[[768.39044,321.04022],[-3.15765,0.71665],[-4.08702,-0.81358]],[[756.17628,318.40575],[4.05495,0.94362],[0.88353,2.14884]],[[755.84011,322.77969],[0,0],[-1.40858,2.31728]],[[751.61438,329.73155],[0.31795,-2.6931],[-0.31795,2.6931]],[[754.105,337.47634],[-0.83021,-2.5816],[0,0]],[[755.02318,340.84116],[0,0],[2.46686,0.8732]],[[762.42373,343.46081],[-2.46684,-0.87324],[0.19953,0.07063]],[[763.02339,343.67002],[-0.20022,-0.0689],[0,0]]],&quot;closed&quot;:true}]}" fill="#ffffff"/><path d="M117.75987,181.22645c-2.38549,-0.78293 -4.87941,-1.51876 -7.31414,-2.28198c0.43218,-1.97057 1.02107,-3.50471 1.95838,-5.33022c2.25051,0.68459 4.56891,1.30903 6.86418,1.85408c-0.24769,0.20301 -0.37555,0.42233 -0.37555,0.42233c-0.54685,0.99789 -1.5021,1.90814 -1.64346,3.02011c-0.09972,0.78443 0.21384,1.55304 0.51059,2.31568z" data-paper-data="{&quot;noHover&quot;:false,&quot;origItem&quot;:[&quot;Path&quot;,{&quot;applyMatrix&quot;:true,&quot;segments&quot;:[[[741.68336,328.55907],[-0.32749,2.77387],[0.46423,-3.93213]],[[747.07112,317.97295],[-1.79592,3.52871],[0,0]],[[748.3068,316.48474],[-0.81342,0.71788],[-7.53792,-1.92737]],[[725.90572,309.97116],[7.39091,2.42082],[-3.07824,6.4553]],[[719.51654,328.69909],[1.41931,-6.96829],[7.99593,2.69888]],[[743.38544,336.72181],[-7.83419,-2.76858],[-0.97459,-2.69681]]],&quot;closed&quot;:true}]}" fill="#ffffff"/><path d="M100.19275,169.04286c3.04145,1.37526 6.19948,2.60438 9.36269,3.66585c-0.89046,1.78498 -1.50562,3.40467 -1.95894,5.31167c-2.29248,-0.7712 -4.58996,-1.62277 -6.74006,-2.62651c-0.84153,-0.39286 -1.65115,-0.85304 -2.43716,-1.32959c0.06229,-0.18717 0.07339,-0.32768 0.07339,-0.32768l0.1283,-1.9521c0.51969,-0.91004 1.05031,-1.83248 1.57179,-2.74164z" data-paper-data="{&quot;noHover&quot;:false,&quot;origItem&quot;:[&quot;Path&quot;,{&quot;applyMatrix&quot;:true,&quot;segments&quot;:[[[680.68338,303.44809],[1.70673,-3.21805],[0,0]],[680.26759,310.31393],[[680.02613,311.46643],[0.20456,-0.66187],[2.58135,1.68514]],[[688.01476,316.12441],[-2.76367,-1.38922],[7.06115,3.54943]],[[710.00581,325.38603],[-7.52877,-2.72709],[1.48874,-6.74346]],[[716.40026,306.69889],[-2.92437,6.31201],[-10.38831,-3.75354]],[[685.81269,293.79876],[9.98846,4.86316],[-1.71262,3.21493]]],&quot;closed&quot;:true}]}" fill="#ffffff"/><path d="M95.61939,172.25112c-1.55006,-1.02688 -3.15058,-2.05424 -4.8682,-2.83454c0,0 -11.4473,-9.45224 -11.70705,-9.49541c-0.51012,-1.56327 11.21249,5.88682 11.95079,4.21687c1.94859,1.08479 3.86495,2.30472 5.8609,3.30636c0.22605,0.11344 0.45333,0.22985 0.6802,0.34136c-0.60348,1.07443 -1.21252,2.1803 -1.80016,3.26223z" data-paper-data="{&quot;noHover&quot;:false,&quot;origItem&quot;:[&quot;Path&quot;,{&quot;applyMatrix&quot;:true,&quot;segments&quot;:[[[671.06105,300.72582],[0,0],[1.92989,-3.8259]],[[676.92669,289.28647],[-1.98187,3.79939],[-0.74508,-0.39432]],[[674.69551,288.0933],[0.74237,0.40114],[-6.55493,-3.54198]],[[655.59856,276.45982],[6.39938,3.83602],[-2.42468,5.90521]],[[653.39566,294.5639],[-1.6753,-5.52801],[0.85301,0.15267]],[[654.83569,295.00215],[0,0],[5.64085,2.75925]],[[670.69331,304.97267],[-5.09056,-3.63123],[0,0]]],&quot;closed&quot;:true}]}" fill="#ffffff"/></g><g stroke="none" stroke-width="0.5" stroke-linecap="butt"><path d="M121.27041,200.85532c-0.98029,0.23851 -1.50383,-0.23589 -1.75349,-0.60751c-0.72162,-0.24182 -1.44179,-0.48017 -2.16081,-0.7071c-5.99143,-1.891 -12.33662,-3.44482 -18.01953,-5.99769c-0.17411,-0.07822 -0.34668,-0.15863 -0.51787,-0.24106c-0.32064,-0.01042 -0.5582,-0.08968 -0.5582,-0.08968l-1.03512,-0.36365c-1.96126,-0.98713 -3.85905,-2.06412 -5.81234,-3.06329c-1.18403,-0.60566 -14.71835,-10.63171 -15.51875,-11.73958c-2.03892,-2.82214 -1.14817,-6.61273 0.45445,-9.64135c0.00791,-0.20127 0.0729,-0.4259 0.22276,-0.6731c0.13463,-0.22207 0.28968,-0.38306 0.45357,-0.49771c0.2409,-0.38383 0.48965,-0.7489 0.74047,-1.09073c0,0 12.6091,8.18888 13.93303,8.96719c1.32392,0.77831 0.45102,1.95879 0.45102,1.95879c-0.0569,0.07626 -0.1143,0.1548 -0.172,0.23548c2.04517,1.09127 4.00772,2.30415 6.10046,3.31244c0.26116,0.12583 0.52287,0.25043 0.78512,0.37381c0.35377,-0.28551 0.9472,-0.54612 1.76149,-0.15833c0.77736,0.37021 0.89196,0.91989 0.84036,1.33521c8.75194,3.80341 18.05994,6.31655 27.60392,7.84956v-0.89096c0.47363,0.10065 0.96786,0.15393 1.47606,0.15393c0.65753,0 1.29168,-0.0892 1.88809,-0.25478l0.14953,0.64859l0.56911,-0.00116c0,0 1.23174,0.89056 0.23296,1.98882c-0.39444,0.43372 -0.8252,0.55728 -1.20208,0.54799c-0.06505,1.22522 -0.17945,2.44885 -0.32924,3.66759c-0.32448,2.01529 -0.21622,6.01283 -2.95299,6.96103c-0.8109,0.28095 -1.72128,-0.24923 -2.55811,-0.46128c-1.69152,-0.42864 -3.37053,-0.97085 -5.04058,-1.5293c-0.01033,0.00265 -0.02076,0.00526 -0.03126,0.00781zM98.46942,187.4469l-0.13187,1.9416c0,0 -0.01171,0.13875 -0.07658,0.32592c0.8187,0.47655 1.65714,0.92438 2.53366,1.31724c2.2395,1.00375 4.58683,1.84791 6.97464,2.61911c0.47217,-1.90699 1.10057,-3.49958 2.02805,-5.28457c-3.29474,-1.06147 -6.53318,-2.27279 -9.7011,-3.64805c-0.54317,0.90916 -1.08551,1.81872 -1.6268,2.72875zM117.81606,194.54807c0.14724,-1.11197 1.13919,-1.99577 1.70877,-2.99366c0,0 0.13392,-0.21784 0.3919,-0.42085c-2.39071,-0.54504 -4.7606,-1.1574 -7.10468,-1.84198c-0.97629,1.8255 -1.57623,3.32553 -2.02638,5.2961c2.53597,0.76322 5.08554,1.48583 7.57021,2.26876c-0.3091,-0.76263 -0.6437,-1.52393 -0.53983,-2.30836zM95.41762,186.67707c0.61208,-1.08193 1.23177,-2.16052 1.86033,-3.23495c-0.23631,-0.11151 -0.47219,-0.22398 -0.70764,-0.33742c-2.07895,-1.00164 -4.02714,-2.20505 -6.05675,-3.28985c-0.769,1.66994 -12.96621,-5.81294 -12.43487,-4.24967c0.27054,0.04317 0.45672,0.12394 0.45672,0.12394c1.78904,0.78029 15.15106,11.16204 16.76557,12.18892zM124.57529,198.77406c0.13715,-1.71758 0.33814,-3.43128 0.57166,-5.14058c0,0 0.138,-1.00902 1.13948,-1.21167c-1.29623,-0.23007 -2.58776,-0.47816 -3.87382,-0.74501c0.28022,0.60768 -0.10662,1.23691 -0.10662,1.23691c-0.44674,0.65531 -1.23938,1.20434 -1.34023,1.96592c-0.10084,0.76158 0.52662,1.46011 0.78992,2.19016l0.2912,0.95154c0.78239,0.24693 1.56477,0.49387 2.34714,0.74081c0.06329,0.01997 0.12668,0.03968 0.19019,0.05916zM128.29521,193.97579c-0.21237,1.55114 -0.40998,3.10454 -0.55202,4.66205l0.20978,1.03925c0.25135,-1.38519 0.53081,-2.76656 0.75398,-4.15558c0.10939,-0.88106 0.19843,-1.76497 0.26106,-2.65021c-0.41555,-0.06562 -0.83067,-0.13302 -1.24534,-0.20222c0.6886,0.45795 0.57253,1.30671 0.57253,1.30671z" fill="#000000"/><path d="M124.84138,199.49873c-0.0635,-0.01949 -0.12821,-0.03894 -0.1915,-0.05891c-0.78238,-0.24695 -1.58518,-0.4964 -2.36757,-0.74333l-0.29827,-0.95589c-0.26331,-0.73005 -0.90071,-1.45382 -0.79987,-2.2154c0.10084,-0.76158 0.91059,-1.33153 1.35733,-1.98684c0,0 0.39191,-0.63103 0.11169,-1.23871c1.28606,0.26685 2.60715,0.52036 3.90338,0.75043c-1.00147,0.20266 -1.13945,1.21169 -1.13945,1.21169c-0.23352,1.7093 -0.44749,3.47211 -0.58465,5.1897z" data-paper-data="{&quot;noHover&quot;:false,&quot;origItem&quot;:[&quot;Path&quot;,{&quot;applyMatrix&quot;:true,&quot;segments&quot;:[[[762.99524,343.50291],[0,0],[0.43246,-6.07367]],[[764.79768,325.32492],[-0.73628,6.04437],[0,0]],[[768.39044,321.04022],[-3.15765,0.71665],[-4.08702,-0.81358]],[[756.17628,318.40575],[4.05495,0.94362],[0.88353,2.14884]],[[755.84011,322.77969],[0,0],[-1.40858,2.31728]],[[751.61438,329.73155],[0.31795,-2.6931],[-0.31795,2.6931]],[[754.105,337.47634],[-0.83021,-2.5816],[0,0]],[[755.02318,340.84116],[0,0],[2.46686,0.8732]],[[762.42373,343.46081],[-2.46684,-0.87324],[0.19953,0.07063]],[[763.02339,343.67002],[-0.20022,-0.0689],[0,0]]],&quot;closed&quot;:true}]}" fill="#ffffff"/><path d="M118.62397,197.52942c-2.48467,-0.78293 -5.0823,-1.51876 -7.61827,-2.28198c0.45015,-1.97057 1.06353,-3.50471 2.03981,-5.33022c2.34408,0.68459 4.75889,1.30903 7.1496,1.85408c-0.25798,0.20301 -0.39117,0.42233 -0.39117,0.42233c-0.56959,0.99789 -1.56457,1.90814 -1.7118,3.02011c-0.10386,0.78443 0.22273,1.55304 0.53182,2.31568z" data-paper-data="{&quot;noHover&quot;:false,&quot;origItem&quot;:[&quot;Path&quot;,{&quot;applyMatrix&quot;:true,&quot;segments&quot;:[[[741.68336,328.55907],[-0.32749,2.77387],[0.46423,-3.93213]],[[747.07112,317.97295],[-1.79592,3.52871],[0,0]],[[748.3068,316.48474],[-0.81342,0.71788],[-7.53792,-1.92737]],[[725.90572,309.97116],[7.39091,2.42082],[-3.07824,6.4553]],[[719.51654,328.69909],[1.41931,-6.96829],[7.99593,2.69888]],[[743.38544,336.72181],[-7.83419,-2.76858],[-0.97459,-2.69681]]],&quot;closed&quot;:true}]}" fill="#ffffff"/><path d="M100.32639,185.34583c3.16792,1.37526 6.45726,2.60438 9.752,3.66585c-0.92749,1.78498 -1.56823,3.40467 -2.0404,5.31167c-2.38781,-0.7712 -4.78083,-1.62277 -7.02033,-2.62651c-0.87652,-0.39286 -1.7198,-0.85304 -2.5385,-1.32959c0.06487,-0.18717 0.07644,-0.32768 0.07644,-0.32768l0.13363,-1.9521c0.5413,-0.91004 1.09397,-1.83248 1.63715,-2.74164z" data-paper-data="{&quot;noHover&quot;:false,&quot;origItem&quot;:[&quot;Path&quot;,{&quot;applyMatrix&quot;:true,&quot;segments&quot;:[[[680.68338,303.44809],[1.70673,-3.21805],[0,0]],[680.26759,310.31393],[[680.02613,311.46643],[0.20456,-0.66187],[2.58135,1.68514]],[[688.01476,316.12441],[-2.76367,-1.38922],[7.06115,3.54943]],[[710.00581,325.38603],[-7.52877,-2.72709],[1.48874,-6.74346]],[[716.40026,306.69889],[-2.92437,6.31201],[-10.38831,-3.75354]],[[685.81269,293.79876],[9.98846,4.86316],[-1.71262,3.21493]]],&quot;closed&quot;:true}]}" fill="#ffffff"/><path d="M95.56286,188.55409c-1.61451,-1.02688 -3.28158,-2.05424 -5.07062,-2.83454c0,0 -11.9233,-9.45224 -12.19383,-9.49541c-0.53134,-1.56327 11.67871,5.88682 12.44772,4.21687c2.02961,1.08479 4.02566,2.30472 6.10461,3.30636c0.23545,0.11344 0.47217,0.22985 0.70848,0.34136c-0.62856,1.07443 -1.26294,2.1803 -1.87502,3.26223z" data-paper-data="{&quot;noHover&quot;:false,&quot;origItem&quot;:[&quot;Path&quot;,{&quot;applyMatrix&quot;:true,&quot;segments&quot;:[[[671.06105,300.72582],[0,0],[1.92989,-3.8259]],[[676.92669,289.28647],[-1.98187,3.79939],[-0.74508,-0.39432]],[[674.69551,288.0933],[0.74237,0.40114],[-6.55493,-3.54198]],[[655.59856,276.45982],[6.39938,3.83602],[-2.42468,5.90521]],[[653.39566,294.5639],[-1.6753,-5.52801],[0.85301,0.15267]],[[654.83569,295.00215],[0,0],[5.64085,2.75925]],[[670.69331,304.97267],[-5.09056,-3.63123],[0,0]]],&quot;closed&quot;:true}]}" fill="#ffffff"/></g></g></g></svg>