<svg version="1.1" xmlns="http://www.w3.org/2000/svg" xmlns:xlink="http://www.w3.org/1999/xlink" width="492" height="367.57853" viewBox="0,0,492,367.57853"><defs><linearGradient x1="240.5" y1="332" x2="240.5" y2="365" gradientUnits="userSpaceOnUse" id="color-1"><stop offset="0" stop-color="#ffffff"/><stop offset="1" stop-color="#ffffff" stop-opacity="0"/></linearGradient><linearGradient x1="240.89463" y1="-2" x2="240.89463" y2="32.69503" gradientUnits="userSpaceOnUse" id="color-2"><stop offset="0" stop-color="#ffffff" stop-opacity="0"/><stop offset="1" stop-color="#ffffff"/></linearGradient><linearGradient x1="-3.5" y1="180.23215" x2="29.5" y2="180.23215" gradientUnits="userSpaceOnUse" id="color-3"><stop offset="0" stop-color="#ffffff" stop-opacity="0"/><stop offset="1" stop-color="#ffffff"/></linearGradient><linearGradient x1="451.40985" y1="179.71073" x2="484.40985" y2="179.71073" gradientUnits="userSpaceOnUse" id="color-4"><stop offset="0" stop-color="#ffffff"/><stop offset="1" stop-color="#ffffff" stop-opacity="0"/></linearGradient><linearGradient x1="417.58064" y1="39.24387" x2="442.76428" y2="39.24387" gradientUnits="userSpaceOnUse" id="color-5"><stop offset="0" stop-color="#000000"/><stop offset="1" stop-color="#000000" stop-opacity="0"/></linearGradient><linearGradient x1="417.58064" y1="45.61947" x2="442.76428" y2="45.61947" gradientUnits="userSpaceOnUse" id="color-6"><stop offset="0" stop-color="#000000"/><stop offset="1" stop-color="#000000" stop-opacity="0"/></linearGradient><linearGradient x1="105.05375" y1="128.26923" x2="105.05375" y2="238.61345" gradientUnits="userSpaceOnUse" id="color-7"><stop offset="0" stop-color="#ff0000"/><stop offset="1" stop-color="#a20000"/></linearGradient></defs><g transform="translate(5.5,2.57853)"><g data-paper-data="{&quot;isPaintingLayer&quot;:true}" fill-rule="nonzero" stroke-linejoin="miter" stroke-miterlimit="10" stroke-dasharray="" stroke-dashoffset="0" style="mix-blend-mode: normal"><path d="M-5.5,365l33,-33h424l35,33z" fill="url(#color-1)" stroke="none" stroke-width="0" stroke-linecap="butt"/><path d="M485.5,-2l-37,33l-418.21073,1.69503l-34,-33.48429z" data-paper-data="{&quot;index&quot;:null}" fill="url(#color-2)" stroke="none" stroke-width="0" stroke-linecap="butt"/><path d="M-3.5,-2l33,33v299.46429l-33,32z" fill="url(#color-3)" stroke="none" stroke-width="0" stroke-linecap="butt"/><path d="M484.40985,362l-33,-30v-303.90576l33,-30.67277z" data-paper-data="{&quot;index&quot;:null}" fill="url(#color-4)" stroke="none" stroke-width="0" stroke-linecap="butt"/><path d="M28,331.5v-303h424v303z" fill="#ffffff" stroke="#000000" stroke-width="5" stroke-linecap="butt"/><path d="M34.75,325.0005v-72.50051h142.5v72.50051z" fill="#000000" stroke="none" stroke-width="0" stroke-linecap="butt"/><text transform="translate(40.5,269.7425) scale(0.37277,0.33334)" font-size="40" xml:space="preserve" fill="#ffffff" fill-rule="nonzero" stroke="none" stroke-width="1" stroke-linecap="butt" stroke-linejoin="miter" stroke-miterlimit="10" stroke-dasharray="" stroke-dashoffset="0" font-family="Serif" font-weight="normal" text-anchor="start" style="mix-blend-mode: normal"><tspan x="0" dy="0">Name: Kopii</tspan><tspan x="0" dy="46.150000000000006px"> </tspan></text><path d="M194.25,59v-19.5h117.84467v19.5z" fill="#000000" stroke="none" stroke-width="0" stroke-linecap="butt"/><text transform="translate(199.22954,53.9009) scale(0.42192,0.42192)" font-size="40" xml:space="preserve" fill="#ffffff" fill-rule="nonzero" stroke="none" stroke-width="1" stroke-linecap="butt" stroke-linejoin="miter" stroke-miterlimit="10" stroke-dasharray="" stroke-dashoffset="0" font-family="Serif" font-weight="normal" text-anchor="start" style="mix-blend-mode: normal"><tspan x="0" dy="0">Documentation:</tspan></text><path d="M429.07853,298.09424h-241v-236.31414" fill="none" stroke="#000000" stroke-width="5" stroke-linecap="round"/><path d="M37.83201,243v-205h136.5312v205z" fill="#174752" stroke="#151515" stroke-width="6.5" stroke-linecap="butt"/><path d="M37.83201,243v-205h136.5312v205z" fill="#ffffff" stroke="#151515" stroke-width="6.5" stroke-linecap="butt"/><text transform="translate(349.55711,323.11998) scale(0.35959,0.35959)" font-size="40" xml:space="preserve" fill="#000000" fill-rule="nonzero" stroke="none" stroke-width="1" stroke-linecap="butt" stroke-linejoin="miter" stroke-miterlimit="10" stroke-dasharray="" stroke-dashoffset="0" font-family="Serif" font-weight="normal" text-anchor="start" style="mix-blend-mode: normal"><tspan x="0" dy="0">Click this to exit</tspan></text><text transform="translate(194.75,94.2318) scale(0.40625,0.40625)" font-size="40" xml:space="preserve" fill="#000000" fill-rule="nonzero" stroke="none" stroke-width="1" stroke-linecap="butt" stroke-linejoin="miter" stroke-miterlimit="10" stroke-dasharray="" stroke-dashoffset="0" font-family="Serif" font-weight="normal" text-anchor="start" style="mix-blend-mode: normal"><tspan x="0" dy="0">They keep telling me to write a</tspan><tspan x="0" dy="48px">document on this but I feel like this</tspan><tspan x="0" dy="48px">is a prank at this point. It's just some </tspan><tspan x="0" dy="48px">guy.</tspan></text><g><path d="M376.458,50.08239l65.9875,-0.31878" fill="none" stroke="#000000" stroke-width="3" stroke-linecap="round"/><g stroke="none" stroke-linecap="butt"><g fill="#000000" stroke-width="1" font-weight="normal" font-size="40" text-anchor="start"><text transform="translate(376.45799,48.48849) scale(0.33457,0.33457)" font-size="40" xml:space="preserve" fill="#000000" fill-rule="nonzero" stroke="none" stroke-width="1" stroke-linecap="butt" stroke-linejoin="miter" stroke-miterlimit="10" stroke-dasharray="" stroke-dashoffset="0" font-family="Pixel" font-weight="normal" text-anchor="start" style="mix-blend-mode: normal"><tspan x="0" dy="0">DONK</tspan></text><text transform="translate(375.65959,62.03519) scale(0.33457,0.33457)" font-size="40" xml:space="preserve" fill="#000000" fill-rule="nonzero" stroke="none" stroke-width="1" stroke-linecap="butt" stroke-linejoin="miter" stroke-miterlimit="10" stroke-dasharray="" stroke-dashoffset="0" font-family="Sans Serif" font-weight="normal" text-anchor="start" style="mix-blend-mode: normal"><tspan x="0" dy="0">Industries</tspan></text></g><path d="M417.58064,41.15655v-3.82536h25.18364v3.82536z" fill="url(#color-5)" stroke-width="0"/><path d="M417.58064,47.47902v-3.7191h25.18364v3.7191z" fill="url(#color-6)" stroke-width="0"/></g></g><path d="M72.5752,240.19363v-181.34703h65.29999v181.34703z" fill-opacity="0.01" fill="#000000" stroke="none" stroke-width="0" stroke-linecap="butt"/><path d="M76.69069,238.60311c0,0 -0.45501,-67.59299 -0.56816,-84.51427c-0.03904,-5.83849 5.86303,-26.32659 28.79066,-26.44104c22.63202,-0.11297 28.54338,21.11714 28.53774,26.42358c-0.05485,33.11673 0.46857,84.49599 0.46857,84.49599l-7.51719,0.06885l-0.11374,-82.24487c0,0 0.05406,-2.21956 -2.01686,-2.25884c-2.45955,-0.04665 -2.10933,2.23125 -2.10933,2.23125l0.14715,82.26409l-34.5282,0.05172l-0.2187,-82.52415c0,0 0.20016,-2.09044 -2.06652,-2.10149c-2.22782,-0.01085 -2.01646,2.08327 -2.01646,2.08327l0.25288,82.40506z" fill="#ffffff" stroke="#000000" stroke-width="2" stroke-linecap="butt"/><path d="M115.79045,164.08213c-0.40901,0 -0.74058,-0.33157 -0.74058,-0.74058c0,-0.40901 0.33157,-0.74059 0.74058,-0.74059c0.40901,0 0.74058,0.33158 0.74058,0.74059c0,0.40901 -0.33157,0.74058 -0.74058,0.74058z" fill="#000000" stroke="none" stroke-width="1.5" stroke-linecap="butt"/><path d="M112.02359,167.11545c-3.19653,-0.22515 -4.69254,-1.28472 -4.41854,-1.84775c0.08442,-0.17348 2.03848,0.76166 4.99184,0.93443c4.58978,0.26851 6.09467,-0.45241 6.09467,-0.45241v0.96405c0,0 -1.72843,0.74961 -6.66797,0.40168z" fill="#000000" stroke="#000000" stroke-width="0" stroke-linecap="butt"/><path d="M92.10549,163.34155c0,-0.40901 0.33157,-0.74059 0.74058,-0.74059c0.40901,0 0.74059,0.33158 0.74059,0.74059c0,0.40901 -0.33158,0.74058 -0.74059,0.74058c-0.40901,0 -0.74058,-0.33157 -0.74058,-0.74058z" fill="#000000" stroke="none" stroke-width="1.5" stroke-linecap="butt"/><path d="M96.61294,167.11545c-4.93954,0.34794 -6.66797,-0.40168 -6.66797,-0.40168v-0.96405c0,0 1.50489,0.72092 6.09467,0.45241c2.95335,-0.17278 4.90742,-1.10791 4.99184,-0.93443c0.274,0.56302 -1.22199,1.62259 -4.41854,1.84775z" fill="#000000" stroke="#000000" stroke-width="0" stroke-linecap="butt"/><path d="M104.69143,207.61498c-0.58649,0 -1.06194,-0.47544 -1.06194,-1.06194c0,-0.58649 0.47544,-1.06194 1.06194,-1.06194c0.58649,0 1.06194,0.47544 1.06194,1.06194c0,0.58649 -0.47544,1.06194 -1.06194,1.06194z" data-paper-data="{&quot;index&quot;:null}" fill="#000000" stroke="none" stroke-width="1.5" stroke-linecap="butt"/><path d="M87.45853,238.61345v-85.3661c0,0 0.54228,-6.96889 0.54228,-10.48398c0,-3.22124 -0.54228,-9.80208 -0.54228,-9.80208c0,0 1.9144,-1.68508 3.33418,-2.68418c1.41977,-0.9991 3.70391,-2.00788 3.70391,-2.00788c0,0 -0.43084,28.72407 10.4268,28.67368c11.05361,-0.05129 9.90545,-28.67368 9.90545,-28.67368c0,0 2.80212,1.08825 4.41567,2.11017c1.61355,1.02191 3.40443,2.58188 3.40443,2.58188c0,0 -0.54228,6.74945 -0.54228,10.1636c0,3.46755 0.54228,10.48398 0.54228,10.48398v85.00459z" fill="url(#color-7)" stroke="#000000" stroke-width="2" stroke-linecap="butt"/><path d="M73.03583,95.00685c0,0 4.41384,-4.24095 4.50573,-4.86095c0.24101,-1.62611 -0.12014,-28.77001 25.7583,-29.77308c31.9663,-0.65429 27.9405,25.31498 29.74233,30.21457c2.47058,6.71809 4.40908,12.46112 4.40908,12.46112c0,0 -1.98169,-1.47062 -2.92168,-2.24439c-0.87671,-0.72169 -2.72239,-2.2529 -2.72239,-2.2529c0,0 2.2137,7.41079 0.93882,14.8207c-1.11884,6.7898 -5.22633,12.33599 -5.22633,12.33599l-0.82731,-1.68105c0,0 -0.73238,1.57405 -1.54692,2.38674c-0.81455,0.81268 -2.46265,2.08595 -2.46265,2.08595l-0.06592,-2.65277c0,0 -5.05609,7.8905 -17.43872,7.78565c-11.67772,-0.18295 -18.67111,-7.64504 -18.67111,-7.64504l-0.08322,1.90126c0,0 -2.78924,-2.35811 -4.42684,-6.95205c-1.95183,-5.47544 -2.31994,-8.76799 -2.31994,-8.76799c0,0 -1.67513,1.36008 -4.09426,1.98689c-3.0313,0.78542 -4.97484,0.24726 -4.97484,0.24726c0,0 2.58383,-1.9459 3.99895,-3.41596c1.26047,-1.30941 1.89535,-2.4186 1.89535,-2.4186c0,0 -1.50934,0.77681 -3.0313,1.15869c-1.58798,0.39847 -2.88614,0.38023 -2.88614,0.38023c0,0 3.56279,-3.60745 5.03506,-7.78762c1.39006,-3.94676 1.50371,-7.84707 1.50371,-7.84707c0,0 -0.97515,0.47383 -2.38487,0.56943c-0.89358,0.06061 -1.7029,-0.03502 -1.7029,-0.03502z" fill="#000000" stroke="none" stroke-width="1.5" stroke-linecap="butt"/><path d="M85.05704,103.11483c-0.41328,-5.22304 0.23991,-12.28518 0.23991,-12.28518c0,0 2.44249,-0.02953 9.96472,-2.25175c5.77904,-1.70726 14.71495,-6.79427 14.71495,-6.79427c0,0 -1.54692,2.15205 -2.4405,3.19414c-0.94998,1.10786 -2.85953,3.26777 -2.85953,3.26777c0,0 5.61318,-1.19426 10.50933,-3.38689c6.13624,-2.53213 7.58583,-4.33492 9.27444,-3.28906c1.99297,1.23437 0.73768,16.60229 0.51452,20.58259c-0.30195,4.06001 -1.8142,6.8032 -2.25609,8.96657c-0.44189,2.16337 -0.29333,4.39474 -1.57998,11.48683c-0.80295,4.42596 -2.98049,6.39139 -7.17541,10.49934c-4.19491,4.10795 -6.48386,6.62635 -9.31968,6.67575c-2.72908,0.04755 -6.39926,-3.65251 -9.97985,-7.43538c-3.81273,-4.02816 -6.35575,-6.07089 -6.95776,-10.84233c-0.54218,-4.29718 -0.55611,-7.09599 -0.80399,-10.9201c-0.18117,-2.79494 -1.61935,-4.61561 -1.84506,-7.46802z" fill="#ffffff" stroke="#000000" stroke-width="1.5" stroke-linecap="butt"/><path d="M119.48237,92.28638c0,0 1.09162,0.22779 3.04779,0.79513c1.78674,0.51821 3.1864,1.24899 3.1864,1.24899l0.13972,0.83815c0,0 -5.19182,-2.24153 -10.82518,-1.76932c-4.5043,0.37758 -7.13514,2.0141 -7.13514,2.0141l0.03276,-2.99124c0,0 2.23974,-1.22047 5.63156,-1.32887c3.5122,-0.11223 5.79425,0.42342 5.79425,0.42342z" data-paper-data="{&quot;index&quot;:null}" fill="#000000" stroke="none" stroke-width="1.5" stroke-linecap="butt"/><path d="M110.34133,123.07191c0.40849,0.15172 2.2083,1.00219 4.31398,1.85902c2.12245,0.86366 5.16603,1.64209 5.15207,1.76209c-0.01773,0.15229 -7.47286,0.16252 -9.79648,0.45278c-1.94723,0.24323 -4.79009,0.50534 -4.79009,0.50534c0,0 -5.08754,-0.83194 -9.50499,-1.75114c-3.54044,-0.7367 -7.44745,-1.18958 -7.45508,-1.25656c-0.01031,-0.09033 2.77032,-0.50897 4.88713,-0.99879c0.8206,-0.35565 3.89565,-1.06358 3.89565,-1.06358c0,0 3.54913,-0.19885 5.44865,0.41465c2.03532,0.65736 2.03061,1.75139 2.20796,1.76822c0,0 0.84818,-1.25278 1.69646,-1.50722c0.84829,-0.25443 3.63961,-0.29815 3.94475,-0.18482z" fill="#ffffff" stroke="#000000" stroke-width="1.4" stroke-linecap="butt"/><path d="M96.98658,126.33297c3.64602,0.7353 8.53476,2.01049 8.53476,2.01049c0,0 4.14634,-1.11422 6.04916,-1.31371c1.47521,-0.15466 8.03234,-0.50599 8.06403,-0.23903c0.03099,0.26102 -6.46768,9.23857 -15.14519,8.91402c-9.86105,-0.31208 -16.37447,-10.83935 -16.34737,-10.96047c0.0271,-0.12112 5.1986,0.8534 8.84462,1.58871z" fill="#ffffff" stroke="#000000" stroke-width="1.9" stroke-linecap="butt"/><path d="M104.8458,124.18904c-0.74033,0 -2.53381,-2.33495 -2.71184,-3.84121c-0.15929,-1.34769 0.94182,-2.74141 2.71184,-2.74141c1.77003,0 3.00933,0.35146 2.88608,2.99961c-0.10461,2.24741 -1.11605,3.58302 -2.88608,3.58302z" fill="#ffffff" stroke="#000000" stroke-width="1.15" stroke-linecap="butt"/><path d="M107.42544,102.63743c0,0 0.07348,2.84294 0.00413,5.10373c-0.13731,4.47675 -0.77449,19.88082 -0.77449,19.88082l-2.13532,0.00619c0,0 -0.57503,-2.98831 -0.80439,-6.80327c-0.31047,-5.16389 -0.32191,-11.66838 -0.54674,-14.05966c-0.21311,-2.26671 -0.64162,-4.09246 -0.64162,-4.09246" fill="#ffffff" stroke="#000000" stroke-width="1.3" stroke-linecap="round"/><path d="M86.27425,110.36457c0,0 -3.53213,-2.51873 -4.41447,-6.42746c-0.92839,-4.11273 -1.04642,-6.97014 0.34384,-7.15572c1.39027,-0.18559 1.9359,1.70223 2.67311,5.98393c0.7372,4.28169 1.39752,7.59926 1.39752,7.59926z" data-paper-data="{&quot;index&quot;:null}" fill="#ffffff" stroke="#000000" stroke-width="1" stroke-linecap="butt"/><path d="M86.12915,107.53752c0,0 -2.55225,-2.09358 -3.09245,-6.0519c-0.30135,-2.20808 1.54456,-1.63294 1.54456,-1.63294" fill="none" stroke="#000000" stroke-width="0.25" stroke-linecap="round"/><path d="M88.28721,102.7709c0.0508,-3.50332 3.46498,-6.39958 7.31287,-6.3438c3.84789,0.05579 6.46486,3.04249 6.41407,6.54582c-0.0508,3.50332 -2.95306,6.2981 -6.80095,6.24232c-3.84789,-0.05579 -6.97678,-2.94101 -6.92598,-6.44434z" fill="#ffffff" stroke="#000000" stroke-width="1.4" stroke-linecap="butt"/><path d="M91.46522,102.85537c0.02864,-1.97545 1.65327,-3.55363 3.6287,-3.52499c1.97545,0.02864 3.55363,1.65327 3.52499,3.6287c-0.02864,1.97545 -1.65326,3.55363 -3.6287,3.52499c-1.97545,-0.02864 -3.55363,-1.65327 -3.52499,-3.6287z" fill="#000000" stroke="none" stroke-width="1.5" stroke-linecap="butt"/><path d="M107.66356,102.77143c0.14576,-3.50066 3.18876,-6.34399 6.99713,-6.34399c3.80836,0 6.64195,2.8403 6.64195,6.34399c0,3.50369 -2.78285,6.49622 -6.94639,6.54696c-3.96029,0.04826 -6.8449,-2.89104 -6.69268,-6.54696z" fill="#ffffff" stroke="#000000" stroke-width="1.4" stroke-linecap="butt"/><path d="M110.95981,102.83269c0,-2.01843 1.63626,-3.65469 3.65469,-3.65469c2.01843,0 3.65469,1.63626 3.65469,3.65469c0,2.01843 -1.63625,3.65469 -3.65469,3.65469c-2.01843,0 -3.65469,-1.63626 -3.65469,-3.65469z" fill="#000000" stroke="none" stroke-width="1.5" stroke-linecap="butt"/><path d="M88.2382,102.38978c0,0 0.04553,-6.45618 7.59198,-6.31995c6.78266,0.11878 6.8432,6.73699 6.8432,6.73699z" fill="#ffffff" stroke="#000000" stroke-width="1.15" stroke-linecap="butt"/><path d="M107.3931,102.48353c0,0 -0.17679,-6.77349 8.01954,-6.51925c6.95687,0.23881 6.83692,6.91249 6.83692,6.91249z" fill="#ffffff" stroke="#000000" stroke-width="1.15" stroke-linecap="butt"/><path d="M90.7661,95.21993c0,0 2.41316,-1.30268 5.75243,-1.6341c3.70033,-0.36726 5.56322,-0.04747 5.56322,-0.04747l0.21132,2.96305c0,0 -2.74682,-0.48745 -5.74205,-0.37321c-4.00576,0.15278 -4.75873,1.02619 -7.80441,1.35438c-2.60971,0.2812 -4.82487,0.11375 -4.82487,0.11375l-0.01854,-0.88197c0,0 2.57468,0.05298 3.74812,-0.04896c0.96851,-0.08414 2.8472,-0.67181 2.8472,-0.67181z" fill="#000000" stroke="none" stroke-width="1.5" stroke-linecap="butt"/><path d="M125.11331,102.76531c0.7372,-4.28169 1.28284,-6.16951 2.67311,-5.98393c1.39027,0.18558 1.27223,3.04298 0.34384,7.15572c-0.88234,3.90872 -4.41447,6.42746 -4.41447,6.42746c0,0 0.66031,-3.31756 1.39752,-7.59926z" data-paper-data="{&quot;index&quot;:null}" fill="#ffffff" stroke="#000000" stroke-width="1" stroke-linecap="butt"/><path d="M125.40877,99.85269c0,0 1.8459,-0.57515 1.54456,1.63294c-0.5402,3.95832 -3.09245,6.0519 -3.09245,6.0519" data-paper-data="{&quot;index&quot;:null}" fill="none" stroke="#000000" stroke-width="0.25" stroke-linecap="round"/></g></g></svg>