<svg version="1.1" xmlns="http://www.w3.org/2000/svg" xmlns:xlink="http://www.w3.org/1999/xlink" width="103.99064" height="229.75946" viewBox="0,0,103.99064,229.75946"><defs><linearGradient x1="367.21892" y1="98.88872" x2="367.21892" y2="431.62206" gradientUnits="userSpaceOnUse" id="color-1"><stop offset="0" stop-color="#ffffff"/><stop offset="1" stop-color="#ffffff" stop-opacity="0"/></linearGradient><linearGradient x1="317.46892" y1="101.63872" x2="317.46892" y2="434.37206" gradientUnits="userSpaceOnUse" id="color-2"><stop offset="0" stop-color="#ffffff"/><stop offset="1" stop-color="#ffffff" stop-opacity="0"/></linearGradient></defs><g transform="translate(-291.60828,-176.03471)"><g data-paper-data="{&quot;isPaintingLayer&quot;:true}" fill-rule="nonzero" stroke-linejoin="miter" stroke-miterlimit="10" stroke-dasharray="" stroke-dashoffset="0" style="mix-blend-mode: normal"><path d="M313.79892,254.30872l-1.25,-8.25c0,0 9.45802,-10.35027 29.5,-10.25c23.16792,0.11591 31.75,8.75 31.75,8.75l-2.25,9.75z" fill="#141112" stroke="#000000" stroke-width="1.5" stroke-linecap="butt"/><path d="M299.01268,404.7604c0,0 1.69797,-89.05053 1.53998,-112.67867c-0.05451,-8.15261 10.52022,-44.09463 42.53535,-44.25443c31.60235,-0.15775 42.85672,37.48704 42.84884,44.89673c-0.07659,46.24274 1.98763,111.65315 1.98763,111.65315l-11.49667,0.09614l-3.49216,-116.50977c0,0 0.07549,-3.0993 -2.81625,-3.15415c-3.43441,-0.06514 -2.94538,3.11562 -2.94538,3.11562l0.20548,114.86995l-48.21366,0.07222l-0.30539,-115.23309c0,0 0.27949,-2.919 -2.8856,-2.93443c-3.11083,-0.01515 -2.81569,2.90899 -2.81569,2.90899l-1.31356,116.73347z" fill="#33302b" stroke="#000000" stroke-width="2" stroke-linecap="butt"/><path d="M318.71508,402.77484l1.16666,-84.45147l-25.83333,4.0901c0,0 -1.55302,-1.63147 -1.43358,-4.05734c0.3913,-7.94791 3.16031,-26.36995 6.00268,-40.29512c1.84955,-9.06123 6.96259,-16.13371 7.9433,-16.98235c5.97368,-5.16924 15.48253,-8.6458 16.80998,-9.57993c1.98251,-1.3951 5.17197,-2.80371 5.17197,-2.80371c0,0 -1.1016,24.10902 14.05952,24.03867c15.43477,-0.07162 14.33154,-24.03867 14.33154,-24.03867c0,0 3.91276,1.51959 6.16585,2.94655c1.47848,0.93636 10.66845,3.87408 16.46893,9.73707c1.16213,1.17466 4.80752,9.23998 6.89072,19.49531c2.46585,12.13913 5.52521,26.82834 6.23568,33.80892c0.25891,2.54381 -1.0082,4.06394 -1.0082,4.06394l-24.5,2.66472l0.66667,81.36334z" fill="#5b86a0" stroke="#000000" stroke-width="2" stroke-linecap="butt"/><path d="M326.19892,311.91023l0.25,-12.25h28.75v12.75c0,0 -9.95167,2.5 -14.71667,2.5c-4.81777,0 -14.28333,-3 -14.28333,-3z" fill="#4c7086" stroke="none" stroke-width="0" stroke-linecap="butt"/><path d="M342.77834,359.48994c-0.81895,0 -1.48284,-0.66389 -1.48284,-1.48284c0,-0.81895 0.66389,-1.48284 1.48284,-1.48284c0.81895,0 1.48284,0.66389 1.48284,1.48284c0,0.81895 -0.66389,1.48284 -1.48284,1.48284z" data-paper-data="{&quot;index&quot;:null}" fill="#000000" stroke="none" stroke-width="1.5" stroke-linecap="butt"/><path d="M297.76003,339.56023l50.66667,-4l40.66666,4" fill="none" stroke="#000000" stroke-width="2" stroke-linecap="round"/><path d="M391.24891,318.16023c0,0 -0.72778,14.31305 -0.98624,19.39609c-0.1674,3.29234 -0.74709,58.13724 -0.74709,58.13724l-21.16667,-0.07697c0,-12.17485 0,-24.34968 0,-36.52453c0,-7 0,-14 0,-21c0,-3.32295 0.55452,-7.21653 -0.39551,-10.42742c-0.9602,-3.24525 -3.04116,-5.84803 -4.82896,-8.62368z" fill="#c0b8ad" stroke="#000000" stroke-width="2" stroke-linecap="butt"/><path d="M297.84892,395.36023c0,0 -0.95265,-53.71441 -1.1519,-56.53459c-0.31956,-4.52299 -1.2481,-17.66541 -1.2481,-17.66541l17.60499,-0.55131c-0.07903,5.24633 -0.19004,10.59134 -0.94777,15.71266c-0.34371,2.32306 -0.09945,4.73691 -0.66826,7.01217c-0.05163,10.09724 -0.33895,20.28221 -0.33895,30.42497c0,7.21656 0,14.43312 0,21.64968z" fill="#c0b8ad" stroke="#000000" stroke-width="2" stroke-linecap="butt"/><path d="M296.24891,330.81889h11" fill="none" stroke="#0c0c0b" stroke-width="1" stroke-linecap="round"/><path d="M296.29892,396.76889v-6.25h16.75v6.25z" fill="#b1a99f" stroke="#0c0c0b" stroke-width="2" stroke-linecap="butt"/><path d="M296.06093,321.03811c0,0 -2.86853,-1.44097 -3.11757,-2.61102c-0.365,-1.7149 0.35152,-6.75174 0.35152,-6.75174c0,0 7.03611,3.80252 9.52973,3.24732c2.2886,-0.50956 4.86979,-6.45336 4.86979,-6.45336l2.51376,10.45196z" data-paper-data="{&quot;index&quot;:null}" fill="#51768d" stroke="none" stroke-width="0" stroke-linecap="butt"/><path d="M312.84892,391.09356v-86.66666c0,0 17.30622,7.8 26.1,7.8c3.98037,0 9.63789,-1.09308 15.15909,-2.46085c9.22752,-2.28594 18.07424,-5.33915 18.07424,-5.33915v86.66667z" fill="#272223" stroke="#000000" stroke-width="1.5" stroke-linecap="butt"/><path d="M307.26274,390.8003l0.98051,-77.68277c0,0 3.76096,-24.15509 3.82183,-31.68734c0.08703,-10.76882 -5.68283,-25.54293 -5.68283,-25.54293c0,0 5.39393,-4.51502 9.51809,-5.71416c3.98873,-1.15976 14.50082,0.46078 14.50082,0.46078l-3.26891,139.4812z" fill="#272223" stroke="#000000" stroke-width="1.5" stroke-linecap="butt"/><path d="M315.01559,392.02689c0,0 -1.33334,-61.87971 -1.33334,-103.91507c0,-18.84433 1.33334,-32.21783 1.33334,-36.80326c0,-2.77796 2.66666,-4.94833 2.66666,-4.94833h7.33334c0,0 -3.33334,42.00555 -3.33334,65.25619c0,25.15486 1.33334,80.41048 1.33334,80.41048z" fill="#1c1819" stroke="#000000" stroke-width="1.5" stroke-linecap="butt"/><path d="M328.22368,274.37012c0,0 -7.83856,-12.34685 -9.36577,-16.87669c-0.82946,-2.46026 5.79434,-9.40903 5.79434,-9.40903l5.28571,1.28572c0,0 -0.58956,9.22174 -0.35712,13.09571c0.18542,3.09022 1.64283,8.33286 1.64283,8.33286z" data-paper-data="{&quot;index&quot;:null}" fill="#5b86a0" stroke="#000000" stroke-width="2" stroke-linecap="butt"/><g stroke-linecap="butt"><path d="M306.17392,280.50904c-0.91171,4.77085 -2.64322,8.23131 -3.86745,7.72915c-1.22422,-0.50216 -1.47758,-4.77678 -0.56587,-9.54763c0.91171,-4.77085 2.64322,-8.2313 3.86745,-7.72914c1.22422,0.50216 1.47758,4.77677 0.56587,9.54762z" fill="#eb8e55" stroke="none" stroke-width="0"/><path d="M306.80069,280.93551c-1.13825,5.95633 -3.31072,10.27227 -4.85234,9.63992c-1.54162,-0.63235 -1.86861,-5.97354 -0.73036,-11.92987c1.13825,-5.95633 3.31071,-10.27227 4.85233,-9.63992c1.54162,0.63235 1.86862,5.97353 0.73037,11.92987z" fill="none" stroke="#eb8e55" stroke-width="1.5"/></g><g stroke-linecap="butt"><path d="M308.43859,297.23322v-11.89024l25.70122,0.96036l-1.23476,10.51829z" fill="#342d29" stroke="#000000" stroke-width="1.55"/><path d="M309.39987,290.80243l0.21952,-3.07317l25.53659,0.43902l-1.60976,2.85366z" fill="#60534c" stroke="none" stroke-width="0"/><path d="M306.99987,298.61706v-15h11.34147v15z" fill="#8e8682" stroke="#000000" stroke-width="1"/><path d="M304.80475,295.69023v-8.04878h5.12196v8.04878z" fill="#8e8682" stroke="#000000" stroke-width="1"/></g><g stroke-linecap="butt"><path d="M308.31827,312.28596l-0.40132,-11.88347l25.71899,0.09235l-0.87904,10.55398z" fill="#342d29" stroke="#000000" stroke-width="1.55"/><path d="M309.06195,305.82639l0.11567,-3.07883l25.53685,-0.42314l-1.51253,2.90637z" fill="#60534c" stroke="none" stroke-width="0"/><path d="M306.92708,313.71757l-0.50628,-14.99145l11.335,-0.3828l0.50628,14.99146z" fill="#8e8682" stroke="#000000" stroke-width="1"/><path d="M304.63441,310.8665l-0.27166,-8.0442l5.11903,-0.17288l0.27167,8.0442z" fill="#8e8682" stroke="#000000" stroke-width="1"/></g><path d="M292.84892,345.75873v-8.66667h7.66667v8.66667z" fill="#c7bfb4" stroke="#000000" stroke-width="1.5" stroke-linecap="butt"/><path d="M358.27652,298.70258c-0.57113,0 -1.03411,-0.46299 -1.03411,-1.03411c0,-0.57113 0.46299,-1.03413 1.03411,-1.03413c0.57113,0 1.03411,0.463 1.03411,1.03413c0,0.57113 -0.46299,1.03411 -1.03411,1.03411z" fill="#000000" stroke="none" stroke-width="1.5" stroke-linecap="butt"/><path d="M355.38226,392.38363l-0.93558,-143.09945c0,0 10.84543,-2.28249 14.83416,-1.09523c4.12416,1.22756 8.85142,7.07676 8.85142,7.07676c0,0 -6.46195,14.39229 -6.70267,28.45277c-0.24072,14.06048 3.34815,23.03036 3.6926,29.92872c1.34148,26.86574 3.79626,78.50262 3.79626,78.50262z" data-paper-data="{&quot;index&quot;:null}" fill="#272223" stroke="#000000" stroke-width="1.5" stroke-linecap="butt"/><path d="M361.68225,392.36023c0,0 1.00001,-53.39999 1.00001,-78.55485c0,-23.25064 -3.00001,-67.11182 -3.00001,-67.11182h7.33334c0,0 2.66666,2.17037 2.66666,4.94833c0,4.45933 1,18.05716 1,36.18471c0,42.09258 -1,104.53362 -1,104.53362z" data-paper-data="{&quot;index&quot;:null}" fill="#1c1819" stroke="#000000" stroke-width="1.5" stroke-linecap="butt"/><path d="M354.35064,269.37012c0,0 1.45741,-5.24265 1.64283,-8.33286c0.23244,-3.87397 -0.35711,-13.09571 -0.35711,-13.09571l6.57143,-0.85715c0,0 5.33808,6.5202 4.50862,8.98046c-1.5272,4.52984 -9.36577,16.87668 -9.36577,16.87668z" fill="#5b86a0" stroke="#000000" stroke-width="2" stroke-linecap="butt"/><g data-paper-data="{&quot;index&quot;:null}" stroke-linecap="butt"><path d="M379.41064,270.36141c1.22422,-0.50216 2.95574,2.95829 3.86744,7.72914c0.9117,4.77085 0.65835,9.04547 -0.56587,9.54763c-1.22422,0.50216 -2.95574,-2.9583 -3.86744,-7.72915c-0.9117,-4.77085 -0.65835,-9.04546 0.56587,-9.54762z" fill="#eb8e55" stroke="none" stroke-width="0"/><path d="M378.94836,268.40564c1.54162,-0.63235 3.71408,3.68358 4.85233,9.63992c1.13825,5.95633 0.81126,11.29752 -0.73036,11.92987c-1.54162,0.63235 -3.71408,-3.68359 -4.85233,-9.63992c-1.13825,-5.95633 -0.81126,-11.29751 0.73037,-11.92986z" fill="none" stroke="#eb8e55" stroke-width="1.5"/></g><path d="M390.24891,330.81889h-15" fill="none" stroke="#0c0c0b" stroke-width="1" stroke-linecap="round"/><path d="M374.79892,397.26889v-7.25h16.25v7.25z" fill="#b1a99f" stroke="#0c0c0b" stroke-width="2" stroke-linecap="butt"/><path d="M328.18225,389.55222l1.08334,-76.58333" fill="none" stroke="#272223" stroke-width="4" stroke-linecap="round"/><path d="M355.01559,310.96889l0.5,78.91667" fill="none" stroke="#272223" stroke-width="4" stroke-linecap="round"/><path d="M362.51558,388.88556l-39.33333,0.66666" fill="none" stroke="#0e0c0c" stroke-width="4" stroke-linecap="round"/><path d="M375.73225,318.77289v-10.75c0,0 3.89952,5.17544 6.24383,5.1357c2.55431,-0.0433 8.50617,-5.3857 8.50617,-5.3857c0,0 1.87446,4.72965 1.92059,6.48236c0.03147,1.19585 -2.42059,3.26764 -2.42059,3.26764z" fill="#51768d" stroke="none" stroke-width="0" stroke-linecap="butt"/><g data-paper-data="{&quot;index&quot;:null}" stroke-linecap="butt"><path d="M352.22233,296.7383l-1.23476,-10.51829l25.70122,-0.96036v11.89024z" fill="#342d29" stroke="#000000" stroke-width="1.55"/><path d="M351.58117,290.9386l-1.60976,-2.85366l25.53659,-0.43902l0.21952,3.07317z" fill="#60534c" stroke="none" stroke-width="0"/><path d="M366.78605,298.53372v-15h11.34146v15z" fill="#8e8682" stroke="#000000" stroke-width="1"/><path d="M375.20068,295.6069v-8.04878h5.12196v8.04878z" fill="#8e8682" stroke="#000000" stroke-width="1"/></g><g data-paper-data="{&quot;index&quot;:null}" stroke-linecap="butt"><path d="M353.22233,311.4883l-1.23476,-10.51829l25.70122,-0.96036v11.89024z" fill="#342d29" stroke="#000000" stroke-width="1.55"/><path d="M352.58117,305.6886l-1.60976,-2.85366l25.53659,-0.43902l0.21952,3.07317z" fill="#60534c" stroke="none" stroke-width="0"/><path d="M367.78605,313.28372v-15h11.34146v15z" fill="#8e8682" stroke="#000000" stroke-width="1"/><path d="M376.20068,310.3569v-8.04878h5.12196v8.04878z" fill="#8e8682" stroke="#000000" stroke-width="1"/></g><g data-paper-data="{&quot;index&quot;:null}" stroke-linecap="butt"><path d="M351.22233,339.9883l-1.23476,-10.51829l25.70122,-0.96036v11.89024z" fill="#342d29" stroke="#000000" stroke-width="1.55"/><path d="M350.58117,334.1886l-1.60976,-2.85366l25.53659,-0.43902l0.21952,3.07317z" fill="#60534c" stroke="none" stroke-width="0"/><path d="M365.78605,341.78372v-15h11.34146v15z" fill="#8e8682" stroke="#000000" stroke-width="1"/><path d="M374.20068,338.8569v-8.04878h5.12196v8.04878z" fill="#8e8682" stroke="#000000" stroke-width="1"/></g><path d="M386.18225,345.75873v-9.66667h8.66667v9.66667z" fill="#c7bfb4" stroke="#000000" stroke-width="1.5" stroke-linecap="butt"/><g stroke-linecap="butt"><path d="M307.10526,339.14988v-11.89024l25.70122,0.96036l-1.23476,10.51829z" fill="#342d29" stroke="#000000" stroke-width="1.55"/><path d="M308.06654,332.71909l0.21952,-3.07317l25.53658,0.43902l-1.60976,2.85366z" fill="#60534c" stroke="none" stroke-width="0"/><path d="M305.66654,340.53372v-15h11.34147v15z" fill="#8e8682" stroke="#000000" stroke-width="1"/><path d="M303.47141,337.6069v-8.04878h5.12196v8.04878z" fill="#8e8682" stroke="#000000" stroke-width="1"/></g><path d="M376.21892,267.55539l2,-4.73333c0,0 3.32676,7.09413 4.69028,12.05962c1.30013,4.73463 3.30972,17.07372 3.30972,17.07372v3.26667c0,0 -1.05035,2.59959 -1.31006,1.88106c-0.54906,-1.51908 -2.18968,-10.41218 -4.11769,-17.04464c-2.14798,-7.38918 -4.57225,-12.50309 -4.57225,-12.50309z" fill="url(#color-1)" stroke="none" stroke-width="0" stroke-linecap="butt"/><path d="M303.89667,282.80848c-1.928,6.63245 -3.56862,15.52557 -4.11768,17.04464c-0.25971,0.71853 -1.31006,-1.88106 -1.31006,-1.88106v-3.26666c0,0 2.00959,-12.33909 3.30972,-17.07372c1.36352,-4.96549 4.69028,-12.05961 4.69028,-12.05961l2,4.73333c0,0 -2.42427,5.1139 -4.57226,12.50308z" data-paper-data="{&quot;index&quot;:null}" fill="url(#color-2)" stroke="none" stroke-width="0" stroke-linecap="butt"/><path d="M372.71892,248.10456l-6.75,19.5l-4,-1.75l1,-13.25l1.5,-8.75" fill="#141112" stroke="#000000" stroke-width="1.5" stroke-linecap="round"/><path d="M320.46892,242.35456l3.75,10.25l1,13.25l-4,1.75l-6.75,-19.5" data-paper-data="{&quot;index&quot;:null}" fill="#141112" stroke="#000000" stroke-width="1.5" stroke-linecap="round"/><path d="M317.29892,393.02123v-30.25h52.5v30.25z" fill="#8c7f71" stroke="#000000" stroke-width="0.75" stroke-linecap="butt"/><path d="M316.69177,363.8248v-4.42857h53.71429v4.42857z" fill="#7e7266" stroke="#000000" stroke-width="1" stroke-linecap="butt"/><path d="M324.97749,374.39623v-16.14286h8v16.14286z" fill="#60574e" stroke="#000000" stroke-width="1" stroke-linecap="butt"/><path d="M353.97749,373.96766v-15h9.85714v15z" fill="#60574e" stroke="#000000" stroke-width="1" stroke-linecap="butt"/><path d="M344.04892,391.15337v-8.75h23.5v8.75z" fill="#a59686" stroke="none" stroke-width="0" stroke-linecap="butt"/><g stroke-linecap="butt"><path d="M320.84874,232.36711c0,0 1.4105,-6.77372 9.90876,-13.68284c6.52889,-5.30804 18.00445,-13.0748 23.13456,-18.53348c6.54556,-6.56309 15.53317,0.41281 18.27165,0.85238c3.23207,0.51881 13.67637,28.95709 13.67637,28.95709l0.77665,23.03843c0,0 -0.20285,10.83897 -3.39926,18.38866c-2.05221,4.84714 -1.80142,7.8804 -1.80142,7.8804c0,0 -5.31935,5.16565 -6.61796,5.73439c-1.18192,0.51763 -8.97337,0.99999 -8.97337,0.99999c0,0 -3.48804,-3.26354 -7.88579,-5.21424c-7.07958,-3.1403 -14.79707,-10.22984 -14.79707,-10.22984l-14.26202,-18.07798z" fill="#33302b" stroke="#000000" stroke-width="1.5"/><path d="M335.65613,255.49455l-11.23616,-22.4086c0,0 16.09545,-8.54624 24.4952,-12.20759c8.38662,-3.65562 25.86398,-9.74333 25.86398,-9.74333l6.89042,24.93922c0,0 -5.1995,-1.56942 -6.78993,1.56212c-1.4113,2.77886 -2.16298,8.79259 -2.16298,8.79259c0,0 -7.36914,4.06467 -11.21276,5.62197c-3.7994,1.5394 -11.71781,3.66879 -11.71781,3.66879c0,0 -5.85174,-2.26292 -7.93691,-3.49339c-2.07195,-1.22267 -6.19309,3.26821 -6.19309,3.26821z" fill="#333233" stroke="none" stroke-width="0"/><path d="M337.95716,244.50648c-1.02551,-2.56103 0.21929,-5.46846 2.78029,-6.49396c2.56103,-1.02551 5.46846,0.21929 6.49396,2.78029c1.02551,2.56103 -0.21928,5.46846 -2.7803,6.49396c-2.56103,1.02551 -5.46846,-0.21929 -6.49395,-2.78029z" fill="#000000" stroke="none" stroke-width="1.5"/><path d="M335.84338,253.50524l-10.46448,-20.1987l48.77441,-21.26013l5.97258,22.97765c0,0 -5.31879,-1.19205 -6.85917,1.84095c-1.36688,2.6914 -1.11098,9.36465 -1.11098,9.36465l-22.20895,8.9984c0,0 -5.65354,-3.66687 -7.67309,-4.85861c-2.00674,-1.18419 -6.43033,3.1358 -6.43033,3.1358z" fill="#3e3d3e" stroke="none" stroke-width="0"/><path d="M345.55642,237.74055c-1.75044,-4.74 0.72017,-10.21443 5.78874,-12.32978c5.06856,-2.11535 10.41744,0.09089 12.36357,4.75397c1.94612,4.66308 -0.09539,10.19157 -5.60849,12.57175c-5.24396,2.26397 -10.71572,-0.04571 -12.54382,-4.99593z" fill="#868482" stroke="#777573" stroke-width="1.4"/><g data-paper-data="{&quot;index&quot;:null}" stroke="none" stroke-width="0"><path d="M356.73733,238.70364c-2.78937,1.16413 -6.00975,-0.19043 -7.19298,-3.02552c-1.18322,-2.83509 0.11882,-6.07708 2.90818,-7.24122c2.78937,-1.16413 6.00975,0.19044 7.19297,3.02553c1.18322,2.83509 -0.11882,6.07708 -2.90818,7.24121z" fill="#1cf2e9"/><path d="M359.56085,231.27876c-1.91447,-0.09392 -4.04528,-0.13837 -5.64214,0.5335c-0.63803,0.26845 -1.36703,1.25115 -1.83582,1.73719c-0.80217,0.83172 -1.6182,1.61303 -2.41589,2.41169c-0.03049,-0.0659 -0.05986,-0.13266 -0.08807,-0.20026c-1.18322,-2.83509 0.11881,-6.07708 2.90818,-7.24121c2.70047,-1.12704 5.80499,0.10668 7.07376,2.75908z" fill="#1ad8ce"/></g><path d="M319.49217,233.73063c0,0 -20.52434,-41.86446 10.02428,-54.84168c33.78894,-14.35373 49.26233,30.09859 49.26233,30.09859z" fill="#11191e" stroke="none" stroke-width="0"/><path d="M318.37585,234.88646l-1.44431,-3.4607l61.90811,-25.83717l1.44432,3.4607c0,0 -21.26937,11.0439 -31.89609,15.47893c-9.96699,4.1597 -30.01203,10.35824 -30.01203,10.35824z" fill="#11191e" stroke="none" stroke-width="0"/><path d="M368.08524,213.67534c-0.14431,0.06023 -0.89869,-2.15333 -0.89869,-2.15333l10.49818,-5.10377c0,0 -2.19559,4.16711 -9.59949,7.2571z" data-paper-data="{&quot;index&quot;:null}" fill="#323f48" stroke="none" stroke-width="0"/><path d="M363.98519,194.61564c-1.48487,6.74198 -7.99748,-2.85167 -16.68114,-4.76418c-8.68367,-1.91251 -16.25007,4.58032 -14.76521,-2.16165c1.48487,-6.74199 9.72811,-10.65702 18.41178,-8.74451c8.68367,1.91251 14.51944,8.92837 13.03458,15.67036z" fill="#253742" stroke="none" stroke-width="0"/><path d="M318.36448,231.17536l12.56148,-4.5201c0,0 1.06378,2.08442 0.89869,2.15333c-8.47079,3.53527 -13.46016,2.36677 -13.46016,2.36677z" fill="#323f48" stroke="none" stroke-width="0"/></g></g></g></svg>