<svg version="1.1" xmlns="http://www.w3.org/2000/svg" xmlns:xlink="http://www.w3.org/1999/xlink" width="97.14713" height="251.84127" viewBox="0,0,97.14713,251.84127"><defs><radialGradient cx="227.95144" cy="116.24117" r="12.58478" gradientUnits="userSpaceOnUse" id="color-1"><stop offset="0" stop-color="#ff0000"/><stop offset="1" stop-color="#ff0000" stop-opacity="0"/></radialGradient></defs><g transform="translate(-189.98204,-52.74608)"><g data-paper-data="{&quot;isPaintingLayer&quot;:true}" fill-rule="nonzero" stroke-linejoin="miter" stroke-miterlimit="10" stroke-dasharray="" stroke-dashoffset="0" style="mix-blend-mode: normal"><path d="M203.58055,93.01751c0.3535,-2.14914 -0.17093,-37.82183 37.32662,-39.55874c0.01086,4.13733 0.09934,8.3517 0.59109,12.35951c0.80302,6.49944 0.11681,13.39531 0.11681,19.93803c0,6.42159 -0.70585,13.74441 0.87075,19.98228c1.94894,6.15391 3.70141,13.01658 2.51827,19.44329c-1.24287,6.7823 -1.13243,13.19932 -0.14269,20.00014c0.27387,1.87977 0.72451,3.75746 1.22988,5.63651c-0.56584,0.01683 -1.14276,0.02337 -1.73089,0.01887c-17.23133,-0.24326 -27.55059,-10.16488 -27.55059,-10.16488l-0.12279,2.52793c0,0 -4.11573,-3.13535 -6.53213,-9.24348c-2.88007,-7.28017 -3.42324,-11.65796 -3.42324,-11.65796c0,0 -1.67178,-0.4769 -5.24138,0.3565c-4.47291,1.0443 -8.14075,2.61402 -8.14075,2.61402c0,0 3.81264,-2.58728 5.90075,-4.54187c1.85992,-1.74099 2.79673,-3.21577 2.79673,-3.21577c0,0 -2.22715,1.03285 -4.4729,1.54061c-2.34319,0.5298 -7.59205,-2.28756 -7.59205,-2.28756c0,0 4.17388,2.02622 5.32165,0.75042c1.7227,-1.91486 4.13751,-4.97618 5.4413,-8.31176c2.05114,-5.24763 2.21884,-10.4335 2.21884,-10.4335c0,0 -1.4389,0.63 -3.51905,0.75712c-1.31637,0.08045 -2.5088,-0.04614 -2.51274,-0.04656c0.00921,-0.00798 6.51303,-5.63935 6.64853,-6.46312z" fill="#402b6b" stroke="none" stroke-width="1.5" stroke-linecap="butt"/><path d="M240.90719,53.45877c0.01086,4.34504 0.09934,8.77099 0.59109,12.98001c0.80302,6.82574 0.11681,14.06781 0.11681,20.939c0,6.74398 -0.70585,14.43444 0.87075,20.98547c1.94894,6.46286 3.70141,13.67007 2.51827,20.41942c-0.15895,0.91095 -0.29577,1.81563 -0.41145,2.71567c-5.96169,-7.68167 -10.87185,-15.70826 -15.92497,-24.205c-3.29507,-5.54062 -7.40401,-11.11005 -10.10154,-16.95897c-1.35966,-2.94807 -2.07723,-6.15177 -3.12229,-9.22547c-1.39334,-4.09806 -2.78668,-8.19613 -4.18003,-12.29419c5.27001,-7.85654 14.25493,-14.60736 29.64335,-15.35595z" fill="#da7f7f" stroke="none" stroke-width="1.5" stroke-linecap="butt"/><path d="M203.46941,300.30255l-0.75477,-118.01201c0,0 7.78873,-36.76129 38.24687,-36.9211c30.06544,-0.15775 37.91837,29.48704 37.91088,36.89673c-0.0075,7.40969 4.26125,72.09914 0.62247,117.98648c-0.36049,4.54603 0.42694,-0.96422 0.32804,-0.37594c-0.19168,1.14025 -1.0904,4.51513 -1.75106,3.53404c-1.61919,-2.4045 -2.37964,-2.69718 -3.84362,-2.98746c-2.15179,-0.42665 -4.71956,-0.0745 -4.71956,-0.0745l-0.15109,-114.84311c0,0 0.07182,-3.0993 -2.67929,-3.15415c-3.26738,-0.06514 -2.80214,3.11562 -2.80214,3.11562l0.19549,114.86995l-45.8689,0.07222l-0.29054,-115.23309c0,0 0.2659,-2.919 -2.74526,-2.93443c-2.95954,-0.01515 -2.67875,2.90899 -2.67875,2.90899l0.33594,115.0668z" fill="#ffffff" stroke="#000000" stroke-width="2" stroke-linecap="butt"/><path d="M256.43844,198.24481c-0.57113,0 -1.03411,-0.46299 -1.03411,-1.03411c0,-0.57113 0.46299,-1.03413 1.03411,-1.03413c0.57113,0 1.03411,0.463 1.03411,1.03413c0,0.57113 -0.46299,1.03411 -1.03411,1.03411z" fill="#000000" stroke="none" stroke-width="1.5" stroke-linecap="butt"/><path d="M251.17863,202.4804c-4.4635,-0.31439 -6.55245,-1.79392 -6.16985,-2.58011c0.11788,-0.24224 2.84645,1.06355 6.97038,1.3048c6.40897,0.37493 8.51033,-0.63173 8.51033,-0.63173v1.34616c0,0 -2.4135,1.04672 -9.31086,0.56089z" fill="#000000" stroke="#000000" stroke-width="0" stroke-linecap="butt"/><path d="M223.36587,197.2107c0,-0.57113 0.46299,-1.03413 1.03411,-1.03413c0.57113,0 1.03413,0.463 1.03413,1.03413c0,0.57113 -0.463,1.03411 -1.03413,1.03411c-0.57113,0 -1.03411,-0.46299 -1.03411,-1.03411z" fill="#000000" stroke="none" stroke-width="1.5" stroke-linecap="butt"/><path d="M229.65988,202.4804c-6.89736,0.48585 -9.31086,-0.56089 -9.31086,-0.56089v-1.34616c0,0 2.10136,1.00666 8.51033,0.63173c4.12393,-0.24126 6.85251,-1.54704 6.97039,-1.3048c0.3826,0.78618 -1.70634,2.26571 -6.16985,2.58011z" fill="#000000" stroke="#000000" stroke-width="0" stroke-linecap="butt"/><path d="M240.94033,259.03202c-0.81895,0 -1.48284,-0.66389 -1.48284,-1.48284c0,-0.81895 0.66389,-1.48284 1.48284,-1.48284c0.81895,0 1.48284,0.66389 1.48284,1.48284c0,0.81895 -0.66389,1.48284 -1.48284,1.48284z" data-paper-data="{&quot;index&quot;:null}" fill="#000000" stroke="none" stroke-width="1.5" stroke-linecap="butt"/><path d="M216.87706,302.31696v-103.74453c0.30628,-0.26682 0.60785,-0.52861 0.90511,-0.77714c0.48671,-0.40691 2.60897,-1.76487 2.62132,-2.34535c0.05975,-2.80813 -0.81334,-5.56092 -1.36416,-8.31515c-0.22037,-1.1019 -1.23122,-2.29594 -2.16228,-3.54236v-0.47695l-1.07245,-1.1292c-0.40637,-0.73676 -0.66523,-1.48524 -0.61202,-2.23793c0.20347,-2.87788 0.49632,-6.20636 -1.33163,-8.82182c-0.5669,-0.81114 -3.08309,-2.92581 -3.17174,-3.70037c-0.11002,-0.96126 0.63534,-1.93599 0.40113,-2.87475c-0.24039,-0.9635 -3.11146,-3.19288 -3.26914,-3.99012c-0.02688,-0.13594 -0.05709,-0.27027 -0.09051,-0.40299c3.88957,-2.84488 9.14635,-5.16939 9.14635,-5.16939c0,0 2.67319,-2.35297 4.6557,-3.74807c1.98251,-1.3951 5.17197,-2.80371 5.17197,-2.80371c0,0 -10.22699,52.19121 3.36219,54.73592c0.49148,0.09204 24.16814,0.63853 24.69733,0.63608c2.21026,-0.01026 -5.49263,-11.44474 -5.49263,-11.44474l6.88893,-14.41399l-1.06476,-29.51327c0,0 3.91276,1.51959 6.16585,2.94655c2.25309,1.42695 4.75379,3.60523 4.75379,3.60523c0,0 9.58291,8.86499 10.46976,10.02487c0.88507,1.15755 1.84764,2.878 2.72138,4.61637c-0.52582,0.73238 -0.94146,1.57531 -1.57685,2.21122c-1.07839,1.07929 -3.06146,2.01716 -2.90747,3.53508c0.1743,1.71813 -3.51266,0.4213 -5.02778,1.25c-0.72749,0.3979 -0.63739,1.58416 -1.23419,2.15983c-0.5596,0.53979 -1.67122,0.38569 -2.08629,1.04314c-0.02978,0.04717 -0.30044,2.67426 -0.40293,3.31301c-0.12215,0.76123 -1.30321,0.98151 -1.55848,1.70899c-0.81122,2.31183 0.56676,3.71019 1.47344,5.99913c0.04985,0.12585 0.09242,0.25433 0.1294,0.38478v29.44825c-1.66969,0.79634 -5.81183,2.57598 -7.28314,4.14848c-1.19871,1.28116 -1.70162,3.96734 -3.45612,3.96986c-7.35417,0.01056 -13.78545,0.4735 -20.65317,3.2251c-2.24347,0.89886 -5.97369,2.40371 -7.06237,4.70209c-1.85035,3.9064 -2.40157,8.34313 -0.5314,12.4235c0.77525,1.69146 3.34063,3.07592 4.03769,4.84252c0.65059,1.64884 -0.67556,5.6994 0.53176,7.49776c4.86338,7.24423 9.94292,5.06164 15.94314,8.91475c6.02562,3.86943 11.95892,6.09256 18.4736,5.24819v26.86115z" fill="#9966ff" stroke="#402b6b" stroke-width="2" stroke-linecap="butt"/><path d="M280.97253,88.44033c3.44981,7.93328 6.15664,14.71514 6.15664,14.71514c0,0 -2.76715,-1.73663 -4.0797,-2.65036c-1.2242,-0.85223 -3.80143,-2.66042 -3.80143,-2.66042c0,0 3.09111,8.75128 1.31092,17.50153c-1.5623,8.01797 -7.29782,14.56737 -7.29782,14.56737l-1.15522,-1.98513c0,0 -1.02266,1.85878 -2.16005,2.81847c-1.1374,0.95968 -3.43873,2.46326 -3.43873,2.46326l-0.09205,-3.13261c0,0 -6.33665,8.36296 -21.7057,9.1378c-0.48391,-1.69194 -0.91641,-3.38294 -1.17935,-5.07674c-0.92581,-5.95765 -1.02986,-11.57405 0.13017,-17.5152c1.13304,-5.82837 -0.51538,-12.03431 -2.40115,-17.61665c-1.48276,-5.46541 -0.79256,-11.90883 -0.79256,-17.53682c0,-5.84552 0.63769,-11.99276 -0.11659,-17.80083c-0.46272,-3.53945 -0.54443,-7.2608 -0.55381,-10.9142c13.79062,-0.18838 22.74115,2.64592 28.60495,6.81189c0.24384,0.30759 0.47144,0.59486 0.61386,0.83375c1.13353,1.90147 1.72959,4.20078 3.29492,5.7661c0.70673,0.70673 1.90655,1.06687 3.27007,1.22351c4.9599,8.4866 4.09657,18.06964 5.39265,21.05014z" fill="#000000" stroke="none" stroke-width="1.5" stroke-linecap="butt"/><path d="M196.73787,101.79114c0,0 0,0 0.00001,0c-0.00001,0.00001 -0.00001,0.00001 -0.00001,0.00001z" fill="#000000" stroke="none" stroke-width="1.5" stroke-linecap="butt"/><path d="M248.32035,83.32682c0,0 -2.16005,3.00503 -3.40781,4.46015c-1.32651,1.54696 -3.99292,4.56297 -3.99292,4.56297c0,0 7.838,-1.66761 14.67476,-4.72931c8.56837,-3.53575 10.59252,-6.05309 12.95042,-4.5927c2.7829,1.72362 1.03006,23.1827 0.71846,28.74062c-0.42163,5.66922 -2.53327,9.49969 -3.15031,12.52053c-0.61704,3.02084 -0.4096,6.13662 -2.20622,16.0397c-1.12121,6.18021 -4.16183,8.92466 -10.01942,14.66081c-5.85759,5.73616 -9.05378,9.25275 -13.01359,9.32173c-3.81077,0.06639 -8.93565,-5.1002 -13.93542,-10.38244c-2.42637,-2.56346 -4.48448,-4.55109 -6.0856,-6.58599c0.61837,-0.46494 1.2519,-0.92126 1.90919,-1.36209c3.838,-3.82858 7.8787,-7.85805 8.99958,-13.425c1.88786,-5.6341 5.42598,-10.59535 7.33335,-16.33334c0.90923,-4.54639 2.50298,-10.3963 1.34633,-15.02276c0,-3.11944 -0.24106,-6.38962 -0.52539,-9.50603c-0.10651,-1.16741 -0.54138,-2.37296 -0.7916,-3.55429c5.05436,-2.45471 9.19619,-4.81256 9.19619,-4.81256z" fill="#ffffff" stroke="#000000" stroke-width="1.5" stroke-linecap="butt"/><path d="M213.52373,113.11277c-0.57709,-7.29323 0.335,-17.15448 0.335,-17.15448c0,0 3.41059,-0.04124 13.91429,-3.14424c3.14798,-0.92999 6.96679,-2.57815 10.45398,-4.24266c0.2514,1.06641 0.5942,2.13722 0.69252,3.20916c0.28676,3.12643 0.52911,6.41116 0.52911,9.54135c1.12714,4.50841 1.18478,9.16574 0.29872,13.59628c-1.91604,5.73121 -7.08058,11.74106 -8.95239,17.38096c-1.0651,5.36352 -4.98627,9.2182 -8.66707,12.90832c-0.6476,0.42896 -1.27313,0.87333 -1.8844,1.32675c-1.57134,-2.18658 -2.61371,-4.51923 -3.02072,-7.74508c-0.75707,-6.00039 -0.77653,-9.90853 -1.12266,-15.24835c-0.25298,-3.90273 -2.26119,-6.44504 -2.57636,-10.42801z" fill="#9966ff" stroke="#402b6b" stroke-width="1.5" stroke-linecap="butt"/><path d="M261.5937,97.99241c0,0 1.52429,0.31807 4.2558,1.11029c2.49492,0.72361 4.44935,1.74403 4.44935,1.74403l0.1951,1.17035c0,0 -7.24963,-3.12997 -15.1158,-2.4706c-6.2896,0.52724 -9.96319,2.8124 -9.96319,2.8124l0.04575,-4.17683c0,0 3.12748,-1.70421 7.86366,-1.85557c4.90428,-0.15672 8.09084,0.59125 8.09084,0.59125z" data-paper-data="{&quot;index&quot;:null}" fill="#000000" stroke="none" stroke-width="1.5" stroke-linecap="butt"/><path d="M215.22338,123.23599c0,0 -4.93211,-3.51705 -6.16417,-8.97502c-1.29636,-5.74284 -1.46118,-9.7328 0.48013,-9.99193c1.94131,-0.25915 2.70321,2.37692 3.73262,8.35569c1.0294,5.97877 1.95143,10.61127 1.95143,10.61127z" data-paper-data="{&quot;index&quot;:null}" fill="#ffffff" stroke="#8cb8ff" stroke-width="1" stroke-linecap="butt"/><path d="M215.02078,119.28844c0,0 -3.56385,-2.92338 -4.31816,-8.45061c-0.42079,-3.08327 2.15675,-2.28016 2.15675,-2.28016" fill="none" stroke="#8cb8ff" stroke-width="0.25" stroke-linecap="round"/><path d="M218.03419,112.63254c0.07093,-4.89188 4.83834,-8.93609 10.21137,-8.8582c5.37302,0.0779 9.02724,4.2484 8.95632,9.14029c-0.07093,4.89188 -4.12352,8.79439 -9.49655,8.7165c-5.37302,-0.0779 -9.74207,-4.1067 -9.67114,-8.99859z" fill="#ff0000" stroke="#000000" stroke-width="1.4" stroke-linecap="butt"/><path d="M245.09047,114.86413c0.20353,-6.11919 4.45264,-11.08934 9.77048,-11.08934c5.31783,0 9.27453,4.96486 9.27453,11.08934c0,6.12448 -3.88585,11.35545 -9.69964,11.44413c-5.52997,0.08436 -9.55792,-5.05356 -9.34537,-11.44413z" data-paper-data="{&quot;index&quot;:null}" fill="#000000" stroke="#000000" stroke-width="1.4" stroke-linecap="butt"/><path d="M245.09047,112.63326c0.20353,-4.88817 4.45264,-8.85847 9.77048,-8.85847c5.31783,0 9.27453,3.96607 9.27453,8.85847c0,4.8924 -3.88585,9.07104 -9.69964,9.14188c-5.52997,0.06739 -9.55792,-4.03692 -9.34537,-9.14188z" fill="#ffffff" stroke="#000000" stroke-width="1.4" stroke-linecap="butt"/><path d="M249.69322,112.71882c0,-2.81845 2.2848,-5.10325 5.10325,-5.10325c2.81845,0 5.10325,2.2848 5.10325,5.10325c0,2.81845 -2.28479,5.10325 -5.10325,5.10325c-2.81845,0 -5.10325,-2.2848 -5.10325,-5.10325z" fill="#000000" stroke="none" stroke-width="1.5" stroke-linecap="butt"/><path d="M244.71282,112.23126c0,0 -0.24686,-9.4582 11.19813,-9.1032c9.71427,0.33347 9.54677,9.65229 9.54677,9.65229c0,0 -6.68483,-4.19458 -10.22436,-4.28827c-3.36678,-0.08911 -10.52054,3.73918 -10.52054,3.73918z" fill="#000000" stroke="#000000" stroke-width="1.15" stroke-linecap="butt"/><path d="M221.49561,102.08869c0,0 3.36963,-1.819 8.03244,-2.28178c5.16698,-0.51283 7.76823,-0.06628 7.76823,-0.06628l0.29508,4.13747c0,0 -3.83554,-0.68065 -8.01795,-0.52113c-5.59346,0.21333 -6.64488,1.43293 -10.89774,1.89119c-3.64408,0.39266 -6.73723,0.15884 -6.73723,0.15884l-0.02589,-1.23155c0,0 3.59517,0.07398 5.23371,-0.06836c1.35239,-0.11749 3.9757,-0.93808 3.9757,-0.93808z" fill="#000000" stroke="none" stroke-width="1.5" stroke-linecap="butt"/><path d="M269.45652,112.62472c1.0294,-5.97877 1.7913,-8.61483 3.73262,-8.35569c1.94131,0.25914 1.77649,4.24909 0.48013,9.99193c-1.23206,5.45797 -6.16417,8.97502 -6.16417,8.97502c0,0 0.92203,-4.6325 1.95143,-10.61127z" data-paper-data="{&quot;index&quot;:null}" fill="#ffffff" stroke="#000000" stroke-width="1" stroke-linecap="butt"/><path d="M269.86905,108.55766c0,0 2.57754,-0.80312 2.15675,2.28016c-0.75431,5.52723 -4.31816,8.45061 -4.31816,8.45061" data-paper-data="{&quot;index&quot;:null}" fill="none" stroke="#000000" stroke-width="0.25" stroke-linecap="round"/><path d="M209.44001,78.98316c-0.62,-1.08007 -1.24129,-2.15824 -1.86446,-3.23396c0.13733,-0.33094 0.27958,-0.66239 0.42695,-0.99401c0.47917,1.40932 0.95834,2.81865 1.43751,4.22797z" fill="#402b6b" stroke="none" stroke-width="1.5" stroke-linecap="butt"/><path d="M228.13656,152.0292c0.05766,0.103 0.11534,0.20599 0.17306,0.30897c-0.01058,-0.00448 -0.02114,-0.00897 -0.03171,-0.01345c-0.04722,-0.09846 -0.09433,-0.19697 -0.14135,-0.29552z" fill="#402b6b" stroke="none" stroke-width="1.5" stroke-linecap="butt"/><path d="M223.7291,75.927c-0.47434,0.15811 -0.63245,-0.31623 -0.63245,-0.31623l-0.15209,-0.46162c-2.14338,-4.03649 -3.96401,-8.46059 -5.83047,-12.66008c0,0 -0.20307,-0.45691 0.25383,-0.65998c0.45691,-0.20307 0.65998,0.25383 0.65998,0.25383c1.87109,4.20992 3.70372,8.61763 5.8362,12.67324l0.18123,0.53838c0,0 0.15811,0.47434 -0.31623,0.63245z" fill="#a10000" stroke="none" stroke-width="0.5" stroke-linecap="butt"/><path d="M231.75792,75.97289c-0.35355,0.35356 -0.70711,0.00002 -0.70711,0.00002l-0.22915,-0.24288c-1.25715,-1.91311 -1.69561,-4.38557 -2.4918,-6.51665c-0.96077,-2.57157 -2.46071,-5.13371 -2.9187,-7.84517c0,0 -0.08219,-0.4932 0.411,-0.57539c0.4932,-0.08219 0.57539,0.411 0.57539,0.411c0.43326,2.63899 1.93534,5.15711 2.86914,7.65978c0.76035,2.03781 1.15836,4.50135 2.38702,6.31173l0.10419,0.09045c0,0 0.35356,0.35355 0.00002,0.70711z" fill="#a10000" stroke="none" stroke-width="0.5" stroke-linecap="butt"/><path d="M237.57099,80.78595c-0.5,0 -0.5,-0.5 -0.5,-0.5v-0.16667c0.02863,-1.86242 -0.53765,-4.28668 -0.99329,-6.08505c-0.45407,-5.53416 -2.75993,-11.5191 -3.99436,-16.9712c0,0 -0.11041,-0.48766 0.37724,-0.59807c0.48766,-0.11041 0.59807,0.37724 0.59807,0.37724c1.24005,5.4769 3.53768,11.46877 4.00564,17.0288c0.47133,1.90939 0.98479,4.27912 1.00671,6.24828v0.16667c0,0 0,0.5 -0.5,0.5z" fill="#a10000" stroke="none" stroke-width="0.5" stroke-linecap="butt"/><path d="M217.96576,112.10035c0,0 0.06357,-9.01512 10.60111,-8.8249c9.47101,0.16586 9.55554,9.40723 9.55554,9.40723c0,0 -6.97169,-4.48273 -10.27596,-4.57819c-3.41121,-0.09855 -9.88069,3.99586 -9.88069,3.99586z" fill="#000000" stroke="#000000" stroke-width="1.15" stroke-linecap="butt"/><path d="" fill="#9966ff" stroke="#6712b1" stroke-width="2" stroke-linecap="butt"/><path d="" fill="#9966ff" stroke="#6712b1" stroke-width="2" stroke-linecap="butt"/><g stroke="none" stroke-width="0" stroke-linecap="butt"><path d="M264.38568,143.45634c-3.33168,7.94521 -1.46017,19.78022 -23.78625,20.49211c-21.77424,-0.13444 -19.41235,-13.10811 -24.11433,-21.71248c-0.03874,-0.07088 15.99906,-4.37679 18.14117,-4.24233c2.6048,-0.15844 6.80053,3.3456 6.80053,3.3456c0,0 4.07224,-4.03512 7.52143,-2.83504c1.47628,0.51365 15.5209,4.84845 15.43746,4.95214z" fill="#000000"/><path d="M261.49324,146.17048c0,0 -1.19166,16.25178 -21.16156,15.96655c-19.97189,-0.28526 -20.63417,-18.11737 -20.78001,-17.8625c11.32605,2.5172 6.17726,9.2868 20.82215,10.03802c14.63331,0.23504 11.13336,-5.78922 20.29815,-8.0652c1.39325,-0.346 0.82126,-0.07687 0.82126,-0.07687z" fill="#ffffff"/><path d="M253.07234,147.03491c0,0 -1.47673,2.64916 -12.57663,2.08481c-11.03416,-0.56101 -12.57663,-3.00008 -12.57663,-3.00008c0,0 7.82358,0.70861 12.80711,1.02192c4.09491,0.25744 12.34615,-0.10664 12.34615,-0.10664z" fill="#ffffff"/><path d="M251.97876,149.2214c0,0 -1.76612,3.74549 -10.93621,3.45773c-9.72212,-0.30509 -10.49876,-3.55942 -10.49876,-3.55942c0,0 6.79235,1.35948 10.49846,1.37707c3.41506,0.01621 10.93651,-1.27537 10.93651,-1.27537z" fill="#ffffff"/><path d="M237.98039,144.9501c-8.38191,0.2034 -17.38856,-2.33905 -17.38856,-2.33905c0,0 5.50707,-0.40679 9.40514,-1.83056c0.86634,-0.31643 1.90646,-1.50199 5.23152,-0.67212c4.52861,1.13026 14.68637,5.9229 2.75191,4.84173z" fill="#ffffff"/><path d="M260.36466,144.23822c0,0 -13.05305,1.01698 -21.43496,0.81358c-0.54817,-0.0133 5.3075,-3.87109 5.3075,-3.87109c0,0 2.26265,-1.14823 3.37672,-0.90858c5.1999,1.11855 12.75074,3.96608 12.75074,3.96608z" data-paper-data="{&quot;index&quot;:null}" fill="#ffffff"/></g><path d="M241.15588,142.53978c-1.03376,0 -3.5381,-3.26042 -3.7867,-5.3637c-0.22243,-1.88186 1.31512,-3.82799 3.7867,-3.82799c2.47159,0 4.2021,0.49077 4.02999,4.18853c-0.14607,3.13818 -1.55841,5.00317 -4.02999,5.00317z" fill="#ffffff" stroke="#000000" stroke-width="1.15" stroke-linecap="butt"/><path d="M244.75798,112.44616c0,0 0.1026,3.96976 0.00576,7.12662c-0.19174,6.25113 -1.08147,27.7607 -1.08147,27.7607l-2.98167,0.00864c0,0 -0.80294,-4.17274 -1.12322,-9.49979c-0.43353,-7.21063 -0.4495,-16.29321 -0.76344,-19.63229c-0.29758,-3.16513 2.05645,-8.85738 2.05645,-8.85738" fill="#ffffff" stroke="#000000" stroke-width="1.3" stroke-linecap="round"/><g fill="#6712b1" stroke="#402b6b" stroke-width="2" stroke-linecap="butt"><path d="M216.87706,302.31696v-81.72365c7.45902,-2.62997 14.67268,-6.543 22.02101,-8.98218c8.91042,-2.95769 17.99221,-5.17852 27.11733,-7.26352v16.13597c-1.66969,0.79634 -5.81183,2.57598 -7.28314,4.14848c-1.19871,1.28116 -1.70162,3.96734 -3.45612,3.96986c-7.35417,0.01056 -13.78545,0.4735 -20.65317,3.2251c-2.24347,0.89886 -5.97369,2.40371 -7.06237,4.70209c-1.85035,3.9064 -2.40157,8.34313 -0.5314,12.4235c0.77525,1.69146 3.34063,3.07592 4.03769,4.84252c0.65059,1.64884 -0.67556,5.6994 0.53176,7.49776c4.86338,7.24423 9.94292,5.06164 15.94314,8.91475c6.02562,3.86943 11.95892,6.09256 18.4736,5.24819v26.86115z"/><path d="M256.16051,177.7504l-0.3262,-9.04174c1.51958,0.19922 2.60155,2.61043 4.24905,2.81774c2.84052,0.35744 5.62426,-1.76285 7.79507,-3.20824c1.82338,-1.21406 4.41449,-3.10847 6.77998,-5.38166c0.93066,0.90761 1.61848,1.6049 1.82674,1.87728c0.88507,1.15755 1.84764,2.878 2.72138,4.61637c-0.52582,0.73238 -0.94146,1.57531 -1.57685,2.21122c-1.07839,1.07929 -3.06146,2.01716 -2.90747,3.53508c0.1743,1.71813 -3.51266,0.4213 -5.02778,1.25c-0.72749,0.3979 -0.63739,1.58416 -1.23419,2.15983c-0.5596,0.53979 -1.67122,0.38569 -2.08629,1.04314c-0.02978,0.04717 -0.30044,2.67426 -0.40293,3.31301c-0.00224,0.01394 -0.00483,0.02769 -0.00776,0.04128c-0.83832,0.23185 -1.6744,0.45286 -2.50776,0.65907c-0.81816,0.20245 -5.55883,2.34258 -6.32848,1.38828c-0.91836,-1.1387 0.33958,-3.47443 -0.86655,-4.30225c-0.61026,-0.41884 -1.21892,-0.84035 -1.83156,-1.25582c1.06811,-1.02994 1.7316,-1.72259 1.7316,-1.72259z"/><path d="M216.87705,183.59243v-0.47695l-1.07245,-1.1292c-0.40637,-0.73676 -0.66523,-1.48524 -0.61202,-2.23793c0.20347,-2.87788 0.49632,-6.20636 -1.33163,-8.82182c-0.5669,-0.81114 -3.08309,-2.92581 -3.17174,-3.70037c-0.11002,-0.96126 0.63534,-1.93599 0.40113,-2.87475c-0.24039,-0.9635 -3.11146,-3.19288 -3.26914,-3.99012c-0.02688,-0.13594 -0.05709,-0.27027 -0.09051,-0.40299c3.50784,-2.56568 8.12769,-4.70811 9.00071,-5.10393c-0.90577,3.41694 2.55723,9.29424 3.90085,12.10651c0.91165,1.90814 -1.61086,7.37947 -2.58597,9.1119c-1.39168,2.47253 0.48913,5.83216 0.45954,8.32506c-0.00561,0.47233 -0.03836,0.90887 -0.09045,1.31486c-0.4247,-0.68366 -0.99509,-1.39306 -1.53832,-2.12028z"/></g><path d="M203.58055,93.01751c0.24672,-1.49998 0.06578,-19.33017 12.68266,-30.55526c-0.17173,0.35143 -0.33846,0.70944 -0.50039,1.07416c-0.42784,0.96369 -0.82389,2.73145 -1.48729,3.5959c-3.00104,3.91054 -4.78794,6.77915 -5.93665,11.6178c-0.15875,0.66869 0.63019,3.04677 0.62701,3.19667c-0.061,2.87951 -1.85975,5.71811 -1.54919,8.71986c0.16389,1.58413 2.25779,3.58654 2.16397,4.96866c-0.15392,2.26755 -2.15171,4.97206 -1.55961,7.34044c0.14258,0.5703 0.79278,0.53457 0.53619,1.3365c-1.95094,6.0975 -4.35458,12.05556 -6.24768,18.16769c-0.26107,0.05077 -0.53413,0.10898 -0.81931,0.17557c-4.47291,1.0443 -8.14075,2.61402 -8.14075,2.61402c0,0 3.81264,-2.58728 5.90075,-4.54187c1.85992,-1.74099 2.79673,-3.21578 2.79673,-3.21578c0,0 -2.22715,1.03284 -4.4729,1.5406c-2.34319,0.5298 -7.59205,-2.28755 -7.59205,-2.28755c0,0 4.17388,2.02622 5.32165,0.75042c1.7227,-1.91486 4.13751,-4.97618 5.44129,-8.31177c2.05114,-5.24762 2.21884,-10.4335 2.21884,-10.4335c0,0 -1.4389,0.63 -3.51905,0.75712c-1.31637,0.08045 -2.5088,-0.04614 -2.51274,-0.04656c0.00921,-0.00798 6.51303,-5.63935 6.64853,-6.46313z" fill="#000000" stroke="none" stroke-width="1.5" stroke-linecap="butt"/><path d="M215.3678,116.14898c0.09313,-6.42302 6.35272,-11.73305 13.40749,-11.63078c7.05476,0.10228 11.85273,5.57813 11.75962,12.00117c-0.09313,6.42302 -5.41417,11.547 -12.46894,11.44473c-7.05476,-0.10228 -12.7913,-5.39208 -12.69817,-11.81511z" fill="url(#color-1)" stroke="none" stroke-width="0" stroke-linecap="butt"/><path d="M267.90031,263.25396l1.0802,-26.64478l13.65544,0.5536l-1.0802,26.64477z" fill="#ffffff" stroke="#000000" stroke-width="2" stroke-linecap="butt"/><path d="M269.19315,241.06669l12.8,1.33333" fill="none" stroke="#000000" stroke-width="2" stroke-linecap="round"/><path d="M280.92647,246.6667l-11.2,-0.93334" fill="none" stroke="#000000" stroke-width="2" stroke-linecap="round"/><path d="M281.85978,252.00003l-12.8,-1.06667" fill="none" stroke="#000000" stroke-width="2" stroke-linecap="round"/><path d="M281.32647,257.20002l-12.4,-0.8" fill="none" stroke="#000000" stroke-width="2" stroke-linecap="round"/><path d="M272.95835,226.37502l1.66666,-13.66666" fill="none" stroke="#ff0000" stroke-width="0.5" stroke-linecap="round"/></g></g></svg>