<svg version="1.1" xmlns="http://www.w3.org/2000/svg" xmlns:xlink="http://www.w3.org/1999/xlink" width="115.25001" height="266.05052" viewBox="0,0,115.25001,266.05052"><defs><linearGradient x1="241.68994" y1="149.2265" x2="241.68994" y2="309.43854" gradientUnits="userSpaceOnUse" id="color-1"><stop offset="0" stop-color="#b57e0c"/><stop offset="1" stop-color="#443e31"/></linearGradient><radialGradient cx="211.53467" cy="179.01867" r="17.25775" gradientUnits="userSpaceOnUse" id="color-2"><stop offset="0" stop-color="#cc1414"/><stop offset="1" stop-color="#da7f7f"/></radialGradient><radialGradient cx="268.46538" cy="179.26867" r="17.25774" gradientUnits="userSpaceOnUse" id="color-3"><stop offset="0" stop-color="#cc1414"/><stop offset="1" stop-color="#da7f7f"/></radialGradient><radialGradient cx="268.26702" cy="179.26867" r="17.25775" gradientUnits="userSpaceOnUse" id="color-4"><stop offset="0" stop-color="#cc1414"/><stop offset="1" stop-color="#da7f7f"/></radialGradient><radialGradient cx="241.17494" cy="114.24674" r="11.5" gradientUnits="userSpaceOnUse" id="color-5"><stop offset="0" stop-color="#cc1414"/><stop offset="1" stop-color="#da7f7f"/></radialGradient><linearGradient x1="219.75004" y1="98.35198" x2="219.75004" y2="138.51863" gradientUnits="userSpaceOnUse" id="color-6"><stop offset="0" stop-color="#ffffff"/><stop offset="1" stop-color="#f7dfaf"/></linearGradient><linearGradient x1="235.08338" y1="97.35198" x2="235.08338" y2="139.85198" gradientUnits="userSpaceOnUse" id="color-7"><stop offset="0" stop-color="#ffffff"/><stop offset="1" stop-color="#f7dfaf"/></linearGradient><linearGradient x1="248.08338" y1="95.68531" x2="248.08338" y2="140.18531" gradientUnits="userSpaceOnUse" id="color-8"><stop offset="0" stop-color="#ffffff"/><stop offset="1" stop-color="#f7dfaf"/></linearGradient><linearGradient x1="261.58335" y1="95.18531" x2="261.58335" y2="140.51863" gradientUnits="userSpaceOnUse" id="color-9"><stop offset="0" stop-color="#ffffff"/><stop offset="1" stop-color="#f7dfaf"/></linearGradient><linearGradient x1="243.02913" y1="80.90154" x2="243.02913" y2="104.75645" gradientUnits="userSpaceOnUse" id="color-10"><stop offset="0" stop-color="#000000"/><stop offset="1" stop-color="#f7aa11"/></linearGradient><linearGradient x1="242.82913" y1="134.29675" x2="242.82913" y2="147.84912" gradientUnits="userSpaceOnUse" id="color-11"><stop offset="0" stop-color="#f7aa11"/><stop offset="1" stop-color="#000000"/></linearGradient></defs><g transform="translate(-182.37502,-46.34975)"><g data-paper-data="{&quot;isPaintingLayer&quot;:true}" fill-rule="nonzero" stroke-linejoin="miter" stroke-miterlimit="10" stroke-dasharray="" stroke-dashoffset="0" style="mix-blend-mode: normal"><g stroke-linecap="butt"><path d="M214.90943,257.38737c0,1.85588 -4.27242,3.36038 -9.54273,3.36038c-5.27031,0 -9.54273,-1.50449 -9.54273,-3.36038c0,-1.85589 4.27242,-3.36038 9.54273,-3.36038c5.27031,0 9.54273,1.50449 9.54273,3.36038z" fill="#443e31" stroke="none" stroke-width="0"/><path d="M287.90941,257.88737c0,1.85588 -4.27242,3.36038 -9.54273,3.36038c-5.27031,0 -9.54273,-1.50449 -9.54273,-3.36038c0,-1.85589 4.27242,-3.36038 9.54273,-3.36038c5.27031,0 9.54273,1.50449 9.54273,3.36038z" fill="#443e31" stroke="none" stroke-width="0"/><path d="M201.79538,306.91022c0,0 -0.63536,-94.38387 -0.79335,-118.01201c-0.05451,-8.15261 8.18688,-36.76129 40.20201,-36.9211c31.60235,-0.15775 39.85672,29.48704 39.84884,36.89673c-0.07659,46.24274 0.65429,117.98648 0.65429,117.98648l-10.49667,0.09614l-0.15882,-114.84311c0,0 0.07549,-3.0993 -2.81625,-3.15415c-3.43441,-0.06514 -2.94538,3.11562 -2.94538,3.11562l0.20548,114.86995l-48.21366,0.07222l-0.30539,-115.23309c0,0 0.27949,-2.919 -2.8856,-2.93443c-3.11083,-0.01515 -2.81569,2.90899 -2.81569,2.90899l0.35311,115.0668z" fill="#000000" stroke="#000000" stroke-width="2"/><path d="M240.89436,263.63978c-0.81895,0 -1.48284,-0.66389 -1.48284,-1.48284c0,-0.81895 0.66389,-1.48284 1.48284,-1.48284c0.81895,0 1.48284,0.66389 1.48284,1.48284c0,0.81895 -0.66389,1.48284 -1.48284,1.48284z" data-paper-data="{&quot;index&quot;:null}" fill="#000000" stroke="none" stroke-width="1.5"/><path d="M195.80182,257.17152c0,0 3.24663,-57.76261 3.16969,-69.82162c-0.05371,-8.41796 10.3659,-37.95776 41.91143,-38.12277c31.1388,-0.16288 41.89965,30.44676 41.89188,38.09761c-0.03341,21.13991 4.80325,70.73393 4.80325,70.73393c0,0 -6.62878,-1.23225 -9.61777,-1.23209c-2.97244,0.00015 -9.22108,1.033 -9.22108,1.033c0,0 1.62793,-70.39007 -1.22139,-70.44671c-1.36991,-0.02723 -1.11427,19.96481 -0.91985,43.77229c0.28584,35.00291 1.02014,78.25338 1.02014,78.25338l-51.30645,-0.12543c0,0 -0.17361,-40.86182 -0.50315,-75.29184c-0.23987,-25.06136 -0.32727,-46.71498 -1.64104,-46.72169c-3.0652,-0.01565 0.70486,69.87064 0.70486,69.87064c0,0 -6.55173,-1.72044 -9.82662,-1.72021c-3.0685,0.00021 -9.2439,1.72152 -9.2439,1.72152z" fill="url(#color-1)" stroke="#000000" stroke-width="0"/><path d="M256.39252,202.8524c-0.57113,0 -1.03411,-0.46299 -1.03411,-1.03411c0,-0.57113 0.46299,-1.03413 1.03411,-1.03413c0.57113,0 1.03411,0.463 1.03411,1.03413c0,0.57113 -0.46299,1.03411 -1.03411,1.03411z" fill="#000000" stroke="none" stroke-width="1.5"/><path d="M251.13267,207.08799c-4.4635,-0.31439 -6.55245,-1.79392 -6.16985,-2.58011c0.11788,-0.24224 2.84645,1.06355 6.97038,1.3048c6.40897,0.37493 8.51033,-0.63173 8.51033,-0.63173v1.34616c0,0 -2.4135,1.04672 -9.31086,0.56089z" fill="#000000" stroke="#000000" stroke-width="0"/><path d="M223.31991,201.81829c0,-0.57113 0.46299,-1.03413 1.03411,-1.03413c0.57113,0 1.03413,0.463 1.03413,1.03413c0,0.57113 -0.463,1.03411 -1.03413,1.03411c-0.57113,0 -1.03411,-0.46299 -1.03411,-1.03411z" fill="#000000" stroke="none" stroke-width="1.5"/><path d="M229.61389,207.08799c-6.89736,0.48585 -9.31086,-0.56089 -9.31086,-0.56089v-1.34616c0,0 2.10136,1.00666 8.51033,0.63173c4.12393,-0.24126 6.85251,-1.54704 6.97039,-1.3048c0.3826,0.78618 -1.70634,2.26571 -6.16985,2.58011z" fill="#000000" stroke="#000000" stroke-width="0"/><g><g stroke="url(#color-2)" stroke-width="0"><path d="M233.15643,207.64367l-50.78141,-42.5l28.56455,-14.5l29.55637,38.25z" fill="#a10000"/><path d="M225.81694,239.89367l-42.99046,-28.74912l-0.45145,-46.00088l58.12091,23.75z" fill="#cc1414"/></g><g stroke-width="0"><path d="M239.50411,189.14367l29.55637,-38.25l28.56455,14.5l-50.78141,42.5z" data-paper-data="{&quot;index&quot;:null}" fill="#a10000" stroke="url(#color-3)"/><path d="M239.30576,189.14367l58.12091,-23.75l-0.45145,46.00088l-42.99046,28.74912z" data-paper-data="{&quot;index&quot;:null}" fill="#cc1414" stroke="url(#color-4)"/></g><path d="M182.64719,195.10033v-7l57.2,28.4l57.4,-28.4v7l-57.6,28.4z" fill="#000000" stroke="none" stroke-width="NaN"/><path d="M207.2472,196.4003c0,-1.38071 1.11929,-2.5 2.5,-2.5c1.38071,0 2.5,1.11929 2.5,2.5c0,1.38071 -1.11929,2.5 -2.5,2.5c-1.38071,0 -2.5,-1.11929 -2.5,-2.5z" fill="#000000" stroke="none" stroke-width="0"/></g><path d="M230.57556,224.02135l3.5,-12.8l11.4,-0.4l3.3,12z" fill="#b57e0c" stroke="#f7dfaf" stroke-width="0"/><path d="M226.43887,310.65027l14,-111.75l14.25,111.75z" fill="#f7aa11" stroke="#f7dfaf" stroke-width="3.5"/><path d="M231.87503,190.60795c0,-4.71415 3.82157,-8.53571 8.53571,-8.53571c4.71415,0 8.53571,3.82157 8.53571,8.53571c0,4.71415 -3.82157,8.53571 -8.53571,8.53571c-4.71415,0 -8.53571,-3.82157 -8.53571,-8.53571z" fill="#ffffff" stroke="#000000" stroke-width="1.5"/></g><g fill="#000000" stroke="none" stroke-linecap="butt"><path d="M196.69188,104.07718c0,0 6.16329,-6.05599 6.29161,-6.94134c0.24642,-1.70025 0.04203,-22.93704 14.10081,-34.75103c5.14146,-4.32052 12.19054,-7.38079 21.86694,-7.76434c44.63633,-0.93431 39.01489,36.1493 41.53088,43.14583c3.44981,9.59329 6.15664,17.79424 6.15664,17.79424c0,0 -2.76715,-2.10002 -4.0797,-3.20495c-1.2242,-1.03056 -3.80143,-3.2171 -3.80143,-3.2171c0,0 3.09111,10.58247 1.31092,21.16368c-1.5623,9.69571 -7.29782,17.61555 -7.29782,17.61555l-1.15522,-2.40051c0,0 -1.02266,2.24772 -2.16005,3.40822c-1.1374,1.16049 -3.43873,2.97869 -3.43873,2.97869l-0.09205,-3.7881c0,0 -7.0601,11.26748 -24.35066,11.11775c-16.30625,-0.26126 -26.07151,-10.91697 -26.07151,-10.91697l-0.1162,2.71497c0,0 -3.89477,-3.36734 -6.18145,-9.9274c-2.72545,-7.81883 -3.23946,-12.52052 -3.23946,-12.52052c0,0 -2.33908,1.94218 -5.71704,2.83724c-4.23278,1.12157 -6.94665,0.35308 -6.94665,0.35308c0,0 3.60795,-2.77871 5.58396,-4.87792c1.76007,-1.86981 2.64658,-3.4537 2.64658,-3.4537c0,0 -2.10758,1.10926 -4.23277,1.65459c-2.21739,0.569 -4.03008,0.54296 -4.03008,0.54296c0,0 4.97492,-5.15136 7.03074,-11.12057c1.94102,-5.6359 2.09972,-11.20547 2.09972,-11.20547c0,0 -1.36165,0.67661 -3.33013,0.81314c-1.24776,0.08655 -2.37785,-0.05001 -2.37785,-0.05001z" stroke-width="1.5"/><path d="M197.95752,78.70025l10.4,8.18118v11.86271c0,0 -5.64702,-5.18812 -7.41463,-8.59484c-1.6961,-3.2689 -2.98538,-11.44906 -2.98538,-11.44906z" stroke-width="0"/><path d="M202.07256,70.68961l9.62739,9.11667l-1.05747,11.81331c0,0 -5.16101,-5.69296 -6.61758,-9.25027c-1.39764,-3.4134 -1.95234,-11.67971 -1.95234,-11.67971z" stroke-width="0"/><path d="M274.0429,142.58834l0.71343,-13.39828l9.5654,-6.71087c0,0 -0.98881,7.69698 -2.73583,11.11478c-1.67634,3.27954 -7.543,8.99437 -7.543,8.99437z" data-paper-data="{&quot;index&quot;:null}" stroke-width="0"/><path d="M280.07948,108.06572l-3.23611,-13.00361l7.16603,-9.32843c0,0 1.30658,7.64726 0.63864,11.44288c-0.64092,3.64206 -4.56855,10.88917 -4.56855,10.88917z" data-paper-data="{&quot;index&quot;:null}" stroke-width="0"/><path d="M243.69205,54.70492c2.00623,3.26557 3.58805,10.85829 3.58805,10.85829l-10.05509,-5.91505l-1.74886,-13.29841c0,0 6.29083,5.22171 8.2159,8.35517z" data-paper-data="{&quot;index&quot;:null}" stroke-width="0"/><path d="M224.99579,51.96799l-1.66676,13.30944l-10.01838,5.9798c0,0 1.53493,-7.60276 3.52097,-10.88121c1.9057,-3.14582 8.16418,-8.40802 8.16418,-8.40802z" data-paper-data="{&quot;index&quot;:null}" stroke-width="0"/><path d="M276.01477,63.56239c0.77659,3.77393 -0.30996,11.45712 -0.30996,11.45712l-7.43067,-9.10934l2.86152,-13.09515c0,0 4.13394,7.12611 4.87911,10.74736z" data-paper-data="{&quot;index&quot;:null}" stroke-width="0"/><path d="M258.15945,56.77166c2.99385,-2.07858 10.80602,-4.27584 10.80602,-4.27584l-6.82574,11.45955l-11.53166,1.28567c0,0 4.43131,-6.30318 7.55138,-8.46939z" data-paper-data="{&quot;index&quot;:null}" stroke-width="0"/></g><path d="M213.47776,114.72034c-0.57709,-7.29323 0.335,-17.15448 0.335,-17.15448c0,0 3.41059,-0.04124 13.91429,-3.14424c8.0696,-2.38394 20.54731,-9.48722 20.54731,-9.48722c0,0 -2.16005,3.00503 -3.40781,4.46015c-1.32651,1.54696 -3.99292,4.56297 -3.99292,4.56297c0,0 7.838,-1.66761 14.67476,-4.72931c8.56837,-3.53575 10.59252,-6.05309 12.95042,-4.5927c2.7829,1.72362 1.03006,23.1827 0.71846,28.74062c-0.42163,5.66922 -2.53327,9.49969 -3.15031,12.52053c-0.61704,3.02084 -0.4096,6.13662 -2.20622,16.0397c-1.12121,6.18021 -4.16183,8.92466 -10.01942,14.66081c-5.85759,5.73616 -9.05378,9.25275 -13.01359,9.32173c-3.81077,0.06639 -8.93565,-5.1002 -13.93542,-10.38244c-5.32393,-5.62474 -8.87489,-8.47713 -9.71551,-15.13975c-0.75707,-6.00039 -0.77653,-9.90853 -1.12266,-15.24835c-0.25298,-3.90273 -2.26119,-6.44504 -2.57636,-10.42801z" fill="#ffffff" stroke="#000000" stroke-width="1.5" stroke-linecap="butt"/><path d="M261.76851,102.12047c0,0 1.39371,0.69441 3.83482,2.15376c2.22968,1.33296 3.86124,2.81587 3.86124,2.81587l-0.10823,1.18155c0,0 -6.21824,-4.86697 -13.9943,-6.22502c-6.21755,-1.08585 -10.35073,0.19245 -10.35073,0.19245l1.10402,-4.02854c0,0 3.45754,-0.85492 8.07714,0.20037c4.78356,1.09275 7.67606,2.62476 7.67606,2.62476z" data-paper-data="{&quot;index&quot;:null}" fill="#000000" stroke="none" stroke-width="1.5" stroke-linecap="butt"/><g stroke="none" stroke-linecap="butt"><path d="M262.41606,151.43256c0,0 -8.14583,13.75252 -20.94418,13.75252c-13.55539,0 -21.95356,-16.02357 -21.95356,-16.02357c0,0 2.8446,-9.13551 9.56384,-9.74608c6.5303,-0.5934 12.53767,3.96218 12.53767,3.96218c0,0 4.43527,-3.31913 9.82891,-1.75478c6.67767,1.93678 10.96732,9.80972 10.96732,9.80972z" fill="#000000" stroke-width="0"/><path d="M253.92218,144.11146c1.13846,0.72614 3.1463,2.8194 4.22267,4.27163l1.98317,2.64228l-2.36754,0.04104c-1.26268,0 -4.81792,-0.93232 -7.40537,-2.06184c-3.91225,-1.71443 -9.63616,-2.13462 -9.63616,-3.38517c0,-0.86731 5.32753,-2.17686 5.76222,-2.31803c1.82157,-0.78661 5.49522,-0.52112 7.44101,0.81008z" data-paper-data="{&quot;noHover&quot;:false,&quot;origItem&quot;:[&quot;Path&quot;,{&quot;applyMatrix&quot;:true,&quot;segments&quot;:[[[156.85553,350.5594],[0.6875,-0.29688],[-0.16406,0.05328]],[[156.54303,351.25976],[0,-0.32734],[0,0.47198]],[[158.30865,352.59956],[-1.47656,-0.64706],[0.97656,0.4263]],[[160.94927,353.37604],[-0.47656,0],[0,0]],[161.83209,353.37604],[[161.07427,352.40164],[0,0],[-0.40624,-0.5481]],[[159.54303,350.90958],[0.42968,0.27406],[-0.73438,-0.50242]]],&quot;closed&quot;:true,&quot;fillColor&quot;:[0,0,0]}]}" fill="#ffffff" stroke-width="0.5"/><path d="M233.13104,141.32701c0.70378,0.14117 2.09586,0.83493 3.11016,1.35933c0.9522,0.46389 7.20478,2.62681 7.20478,2.88901c0,0.34285 -0.01176,-0.4477 0.17455,0.13722c0.3312,0.86731 -5.43897,1.32582 -7.96433,1.32582c-1.69736,0 -5.84828,0.42287 -8.74627,0.88676c-2.83588,0.38324 -5.42923,0.42655 -5.61554,0.22487c-0.64167,-0.58497 1.38048,-3.74884 3.26416,-5.0599c1.9044,-1.25049 6.68881,-2.28755 8.57249,-1.76315z" data-paper-data="{&quot;noHover&quot;:false,&quot;origItem&quot;:[&quot;Path&quot;,{&quot;applyMatrix&quot;:true,&quot;segments&quot;:[[[151.66025,349.8362],[0,0],[-0.71094,-0.19792]],[[148.58993,350.46042],[0.71876,-0.47196],[-0.71094,0.49482]],[[147.35555,352.30266],[-0.24218,-0.22078],[0.07032,0.07612]],[[149.44931,352.18086],[-1.07032,0.14464],[1.09376,-0.17508]],[[152.58993,351.88398],[-0.64062,0],[0.95312,0]],[[153.58993,351.48052],[0.125,0.32734],[-0.07032,-0.22076]],[[153.44931,350.8563],[0,0.1294],[0,-0.09896]],[[152.80869,350.3082],[0.35938,0.17508],[-0.38282,-0.19792]],[[151.66025,349.83622],[0.26562,0.05328],[0,0]]],&quot;closed&quot;:true,&quot;fillColor&quot;:[0,0,0]}]}" fill="#ffffff" stroke-width="0.5"/><path d="M235.75522,148.7259c3.02215,-0.06052 11.31206,0.64149 11.62254,1.36763c0.18632,0.58492 0.06093,1.59352 -0.06328,1.71454c-0.12416,0.14122 -10.03338,-0.62157 -12.99342,-1.025c-5.81664,-0.86731 -5.06554,-1.91595 1.43416,-2.05712z" data-paper-data="{&quot;noHover&quot;:false,&quot;origItem&quot;:[&quot;Path&quot;,{&quot;applyMatrix&quot;:true,&quot;segments&quot;:[[[152.69141,352.65284],[0,0],[-2.45312,0.05328]],[[152.26173,353.27706],[-2.19532,-0.32734],[1.11718,0.15226]],[[154.37891,353.47498],[-0.04686,0.0533],[0.04688,-0.04568]],[[154.33203,353.003],[0.07032,0.22076],[-0.11718,-0.27406]],[[152.69141,352.65282],[1.14062,-0.02284],[0,0]]],&quot;closed&quot;:true,&quot;fillColor&quot;:[0,0,0]}]}" fill="#ffffff" stroke-width="0.5"/><path d="M244.35554,150.57177c0,-1.19002 2.55844,-1.19182 5.58059,-0.0018l2.20822,0.90919l-3.85082,0.26621c-2.83589,0.0807 -3.93805,-0.38699 -3.93805,-1.1736z" data-paper-data="{&quot;noHover&quot;:false,&quot;origItem&quot;:[&quot;Path&quot;,{&quot;applyMatrix&quot;:true,&quot;segments&quot;:[[[156.06641,353.25424],[0,0],[0,0.29688]],[[157.44923,353.5968],[-1.07032,0.03046],[0,0]],[158.80861,353.57396],[[157.97267,353.25424],[0,0],[-1.14062,-0.44914]],[[156.06643,353.25424],[0,-0.44914],[0,0]]],&quot;closed&quot;:true,&quot;fillColor&quot;:[0,0,0]}]}" fill="#ffffff" stroke-width="0.5"/><path d="M232.91545,152.89584l10.14946,2.04613l8.00028,-0.9499c4.40903,-0.58492 8.13946,-0.96923 8.26367,-0.82806c0.45541,0.5244 -2.64903,4.11339 -5.3607,6.09002c-8.0108,6.01065 -21.96895,4.01891 -29.11038,-4.08939c-2.44253,-2.78342 -3.19633,-4.35244 -2.11997,-4.35244c0.24842,0 4.87851,0.89362 10.17764,2.08364z" data-paper-data="{&quot;noHover&quot;:false,&quot;origItem&quot;:[&quot;Path&quot;,{&quot;applyMatrix&quot;:true,&quot;segments&quot;:[[[147.90237,353.37604],[0.09376,0],[-0.40624,0]],[[148.70705,354.9975],[-0.92186,-1.05052],[2.69532,3.06024]],[[159.49611,356.5124],[-3.02344,2.26854],[1.02344,-0.74602]],[[161.51955,354.25148],[0.17188,0.19792],[-0.04688,-0.05328]],[[158.40237,354.5712],[1.66406,-0.22076],[0,0]],[155.40237,354.96706],[[151.73831,354.17536],[0,0],[-2,-0.44914]]],&quot;closed&quot;:true,&quot;fillColor&quot;:[0,0,0]}]}" fill="#ffffff" stroke-width="0.5"/></g><path d="" fill="#ffffff" stroke="#000000" stroke-width="1.15" stroke-linecap="butt"/><path d="M244.83784,115.21558c0,0 0.1026,3.96976 0.00576,7.12662c-0.19174,6.25113 -1.08147,27.7607 -1.08147,27.7607l-2.98167,0.00864c0,0 -0.80294,-4.17274 -1.12322,-9.49979c-0.43353,-7.21063 -0.4495,-16.29321 -0.76344,-19.63229c-0.29758,-3.16513 -0.89593,-5.71453 -0.89593,-5.71453" fill="#ffffff" stroke="#000000" stroke-width="1.3" stroke-linecap="round"/><path d="M215.17742,124.84356c0,0 -4.93211,-3.51705 -6.16417,-8.97502c-1.29636,-5.74284 -1.46118,-9.7328 0.48013,-9.99193c1.94131,-0.25915 2.70321,2.37692 3.73262,8.35569c1.0294,5.97877 1.95143,10.61127 1.95143,10.61127z" data-paper-data="{&quot;index&quot;:null}" fill="#ffffff" stroke="#000000" stroke-width="1" stroke-linecap="butt"/><path d="M214.97482,120.896c0,0 -3.56385,-2.92338 -4.31816,-8.45061c-0.42079,-3.08327 2.15675,-2.28016 2.15675,-2.28016" fill="none" stroke="#000000" stroke-width="0.25" stroke-linecap="round"/><path d="M221.44965,100.81161c0,0 3.36963,-1.819 8.03244,-2.28178c5.16698,-0.51283 7.76823,-0.06628 7.76823,-0.06628l0.29508,4.13747c0,0 -3.83554,-0.68065 -8.01795,-0.52113c-5.59346,0.21333 -6.64488,1.43293 -10.89774,1.89119c-3.64408,0.39266 -6.73723,0.15884 -6.73723,0.15884l-0.02589,-1.23155c0,0 3.59517,0.07398 5.23371,-0.06836c1.35239,-0.11749 3.9757,-0.93808 3.9757,-0.93808z" fill="#000000" stroke="none" stroke-width="1.5" stroke-linecap="butt"/><path d="M269.41057,114.23231c1.0294,-5.97877 1.7913,-8.61483 3.73262,-8.35569c1.94131,0.25914 1.77649,4.24909 0.48013,9.99193c-1.23206,5.45797 -6.16417,8.97502 -6.16417,8.97502c0,0 0.92203,-4.6325 1.95143,-10.61127z" data-paper-data="{&quot;index&quot;:null}" fill="#ffffff" stroke="#000000" stroke-width="1" stroke-linecap="butt"/><path d="M269.82313,110.16523c0,0 2.57754,-0.80312 2.15675,2.28016c-0.75431,5.52723 -4.31816,8.45061 -4.31816,8.45061" data-paper-data="{&quot;index&quot;:null}" fill="none" stroke="#000000" stroke-width="0.25" stroke-linecap="round"/><path d="M215.58745,119.75568l0.03019,-1.07876c0.09697,-0.14299 0.18955,-0.31929 0.27634,-0.52121c0.06483,-0.47057 0.18145,-0.94468 0.43765,-1.44601c0.1591,-0.74623 0.25432,-1.56941 0.25722,-2.3128c-0.0737,-0.04792 -0.1381,-0.09645 -0.18642,-0.14583c-0.60695,-0.62028 -0.96421,-1.58221 -0.94975,-2.4549c-0.8556,-0.45528 -2.03957,-0.725 -2.53298,-1.80361c-1.14491,-2.5028 0.75659,-6.02778 2.24377,-8.21498c0.923,-0.84847 1.51072,-1.6108 2.89775,-2.08633c1.32626,-0.45468 3.29632,-0.30345 4.34725,-1.26624c2.30258,-2.10948 -1.12142,-5.46004 2.63354,-7.36345c1.34268,-0.6806 3.56589,-0.53843 5.06715,-0.54044c5.54046,-0.00742 13.99356,-1.12687 18.51587,1.46256c3.06518,1.12628 5.55053,3.10362 7.6507,5.06643c0.62431,0.58348 2.388,2.53236 3.41636,2.79184c0.75423,0.19031 0.96798,-0.99371 1.68413,-1.25187c0.70121,-0.25277 2.43249,-0.45292 3.19407,-0.27247c5.36167,1.27043 7.44865,6.20314 7.44865,9.67768c0,1.45851 -0.54389,3.14172 -0.30942,4.55811c0.34951,2.11135 2.26391,3.72146 1.48311,6.0621c-0.87028,2.60889 -4.05878,3.52553 -5.49678,5.71379c-0.42199,0.64215 -0.42019,1.47062 -1.09389,1.98291c-1.84794,1.40523 -3.79227,0.64564 -3.04382,2.78312c0.36921,1.08883 1.42074,3.36839 0.46891,4.40929c-1.51362,1.65526 -3.62971,0.80241 -4.05529,3.21671c-0.33771,1.91582 2.60462,4.99157 0.19731,6.75487c-0.80517,0.58976 -2.28262,0.12361 -3.36822,0.36777c-2.02793,0.45611 -30.07166,0.39794 -31.19109,-2.41103c-0.57136,0.39003 -1.18162,0.75039 -1.71724,0.89825c-7.74445,2.13781 -8.26816,-5.99334 -7.69764,-9.56573c0.0542,-0.3394 0.3575,-1.85035 0.12199,-2.20616c-0.39393,-0.5952 -0.22901,-1.40543 -0.66861,-1.98298c-3.3673,-1.36402 -1.74278,-4.63918 -0.58682,-6.67984c0.3663,-0.64664 0.5402,-1.229 0.63419,-1.77746c-0.10818,-0.18904 -0.10818,-0.36332 -0.10818,-0.36332z" fill="#000000" stroke="none" stroke-width="0.5" stroke-linecap="butt"/><path d="M229.67494,114.24674c0,-6.35128 5.14873,-11.5 11.5,-11.5c6.35127,0 11.5,5.14872 11.5,11.5c0,6.35128 -5.14873,11.5 -11.5,11.5c-6.35127,0 -11.5,-5.14872 -11.5,-11.5z" fill="none" stroke="url(#color-5)" stroke-width="4" stroke-linecap="butt"/><path d="M219.75004,138.51864v-40.16666" fill="none" stroke="url(#color-6)" stroke-width="1.5" stroke-linecap="round"/><path d="M235.08338,97.35198c0,0 2,14.47205 2,21.48135c0,7.15439 -2,21.01865 -2,21.01865" fill="none" stroke="url(#color-7)" stroke-width="2.5" stroke-linecap="round"/><path d="M248.08338,140.18533v-44.5" fill="none" stroke="url(#color-8)" stroke-width="3.5" stroke-linecap="round"/><path d="M261.58335,140.51867c0,0 5.92232,-6.88592 9.73061,-4.17363c2.74407,1.95434 3.79501,15.27371 2.42228,19.80128c-2.64899,8.73697 -10.3313,9.47396 -10.3313,9.47396" fill="none" stroke="url(#color-9)" stroke-width="5" stroke-linecap="round"/><path d="M214.21631,94.71386c0.69723,-0.29601 1.4922,-0.6424 2.1363,-0.79703c0.85202,-0.20454 2.20767,0.35386 2.98272,-0.11093c1.33778,-0.80227 2.01341,-1.74964 3.76762,-2.12655c0.86067,-0.2152 3.84549,-0.45423 4.346,-1.35747c0.91491,-1.65108 0.5684,-2.37494 2.49837,-3.52312c2.97089,-1.76744 6.38231,-1.55452 9.6399,-2.08924c1.83291,-0.30087 2.87172,-1.75471 4.73772,-1.81275c1.34964,0 2.62271,-0.05293 3.95272,0.21572c0.26239,0.053 1.72578,0.78355 1.96026,0.64137c2.77637,-1.68342 7.59915,-3.76249 11.10435,-2.42491c1.41613,0.54039 2.35554,1.90103 3.85656,2.17147c2.68696,0 4.33195,-2.71605 7.01774,-2.39803c2.21247,0.26197 2.78821,2.31699 2.65472,4.21829c-0.2447,3.48522 -0.79947,6.6297 -1.6347,9.96286c-0.48369,1.13748 -1.65609,2.03436 -1.98886,3.16343c-0.36199,1.2282 0.68126,3.25641 -0.39245,4.33013c-1.58461,1.58461 -5.60541,-0.55066 -6.85556,-1.60635c-0.54114,-0.45696 -0.72799,-1.31492 -1.36178,-1.63107c-0.53008,-0.26442 -1.12187,0.63055 -1.33537,0.75509c-1.4764,0.86123 -2.8949,0.63407 -4.07781,-0.48916c-2.20554,-1.78682 -4.68176,0.40019 -7.37026,-0.6593c-0.99533,-0.39224 -2.67426,-2.70209 -3.75724,-2.3696c-1.64595,0.50534 -1.67254,2.04604 -3.49048,2.41558c-1.08446,0.22044 -3.08688,-1.87469 -3.35151,-1.21519c-1.39362,1.35704 -1.71938,2.71189 -4.10264,2.19961c-1.00237,-0.21546 -4.82145,-1.87649 -5.75839,-0.9449c-0.75364,0.74934 -0.87084,2.05907 -1.94441,2.69094c-0.78378,0.46131 -2.78943,-0.0591 -3.57806,-0.12786c-1.6079,-0.1402 -2.56609,0.54682 -3.97939,1.10571c-0.58758,0.44567 -1.01306,1.12528 -1.68043,1.43909c-0.82631,0.38854 -5.52672,0.63316 -6.28131,0.14508c-0.90631,-0.58621 -0.74789,-1.59259 -0.7557,-2.43799c-0.02576,-2.78896 0.43328,-4.8436 1.67918,-7.33541c0,0 0.33541,-0.67082 1.00623,-0.33541c0.18751,0.09376 0.2964,0.21372 0.35597,0.33792z" fill="url(#color-10)" stroke="none" stroke-width="0.5" stroke-linecap="butt"/><path d="M236.12495,137.09676c0.59246,0 1.19788,0.14729 1.75758,0.4h0.01742l0.16041,-0.32082l0.78546,0.39273c0.01552,0.00736 0.03075,0.01523 0.04567,0.0236c0.37452,0.02705 0.74976,0.05662 1.12496,0.08413c0.21924,-0.17964 0.5085,-0.17964 0.5085,-0.17964c1.21436,0.0036 2.43589,0.09585 3.65734,0.16199c2.21613,-0.30857 3.79664,-1.11905 5.66133,-0.76798l0.1185,-0.35551l1.18359,0.39453c0.11429,0.03515 0.21694,0.09688 0.30074,0.17797c0.15259,-0.0957 0.30573,-0.1909 0.46,-0.28338l0.7685,-0.57762c0,0 0.38416,-0.28812 0.76825,-0.09588c0.15176,-0.05412 0.28176,-0.05412 0.28176,-0.05412c1.6,0 3.2,0 4.8,0h0.8c0,0 0.19968,0 0.39299,0.10304c0.36667,-0.25189 0.79289,0.00384 0.79289,0.00384c0.24824,0.15157 0.50486,0.29641 0.77013,0.42027c0.34454,-0.2654 0.7794,-0.04797 0.7794,-0.04797c1.22163,0.61082 2.45393,1.26443 3.7456,1.72082c0.03967,0 0.07932,0 0.11899,0c0,0 0.31346,0 0.53509,0.20266c2.09753,0.07445 5.38098,1.69673 4.15782,4.43436c-0.71351,1.59696 -2.52801,0.94342 -3.57839,1.85867c-1.3852,1.20699 -0.58688,2.4291 -2.84062,3.00067c-2.33961,0.00977 -5.6094,-0.85127 -7.75376,-0.40603c-1.71593,0.35628 -3.40148,0.5699 -5.19404,0.40603c-3.01059,-0.27522 -5.80871,-1.17797 -8.83446,-1.20197c-3.33963,0.8349 -5.56646,-0.37187 -8.49184,-1.42159c-1.26836,-0.45513 -3.04963,0.38612 -4.37211,0.00716c-0.87074,-0.24952 -1.64235,-0.81546 -2.53172,-0.98719c-1.76295,-0.34041 -3.29314,1.41345 -5.20433,1.40163c-1.16243,0.24105 -1.47054,1.6701 -2.79209,1.79899c-1.22253,0.11923 -2.57289,-0.91766 -3.13754,-1.94907c-0.9987,-1.82425 -0.28608,-3.96634 -0.50836,-5.92039c-0.17099,-1.50312 -0.59584,-2.95666 -0.60365,-4.47391c0,0 0,-0.75 0.75,-0.75c0.11799,0 0.21742,0.01856 0.30121,0.04985c0.23942,-0.08777 0.48069,-0.02746 0.48069,-0.02746c0.71182,0.17805 1.41768,0.37958 2.12213,0.58486l0.69598,-0.00725c0,0 0.02822,0 0.07372,0.00547c0.04569,0.00356 0.07336,0.00909 0.07336,0.00909c2.47791,0.50554 5.03997,0.07397 7.54455,0.39105c1.3228,0.16746 2.80141,-0.35248 4.06225,0.28313c0.65644,0.33092 1.17965,1.06335 1.72243,1.72065c0.43855,-0.46075 0.97368,-0.0594 0.97368,-0.0594c0.06395,0.05321 0.12634,0.10077 0.18751,0.14326c0.02307,-0.01276 0.04689,-0.02434 0.07137,-0.03466c0.28193,-0.68005 0.96966,-0.40495 0.96966,-0.40495c0.13942,0.05604 0.2704,0.10842 0.3959,0.15682c0.04083,-0.00688 0.08277,-0.01047 0.12556,-0.01047z" fill="url(#color-11)" stroke="none" stroke-width="0.5" stroke-linecap="butt"/><g fill="#000000" stroke="#a80000" stroke-width="0.5" stroke-linecap="butt"><path d="M278.3619,185.85439c1.94105,3.62533 0.57565,8.13777 -3.04967,10.07881c-3.62532,1.94105 -0.96553,-3.40758 -2.90659,-7.03291c-1.94105,-3.62533 -7.74787,-4.15453 -4.12255,-6.09557c3.62532,-1.94105 8.13775,-0.57566 10.0788,3.04967z"/><path d="M265.70558,195.63693l-2.68061,-5.00662l2.66326,-5.7205c0,0 1.33956,1.13332 2.82141,2.16756c1.23905,0.86478 2.16581,1.26505 2.48558,1.86231c0.24529,0.45811 0.54777,2.07431 0.60703,3.4852c0.09603,2.28629 0.3048,4.90204 0.3048,4.90204z"/><path d="M274.91127,180.56815c0.41723,0.77929 -1.64862,-0.22182 -4.48011,0.07653c-1.44767,0.15253 -2.81045,0.94004 -4.17551,1.67091c-0.33759,0.18074 -0.65148,0.43402 -0.8882,0.70049c-0.59451,0.66918 -1.01307,1.49245 -1.43002,2.26754c-1.40143,2.60523 -1.81711,5.35043 -2.26243,4.51871c-0.63056,-1.17772 0.28787,-7.14474 4.32283,-9.30511c4.03496,-2.16037 8.28286,-1.10676 8.91342,0.07095z"/></g></g></g></svg>