<svg version="1.1" xmlns="http://www.w3.org/2000/svg" xmlns:xlink="http://www.w3.org/1999/xlink" width="94.29463" height="255.9983" viewBox="0,0,94.29463,255.9983"><defs><linearGradient x1="219.56919" y1="111.56445" x2="219.56919" y2="141.16319" gradientUnits="userSpaceOnUse" id="color-1"><stop offset="0" stop-color="#ff0000"/><stop offset="1" stop-color="#ff0000" stop-opacity="0"/></linearGradient><linearGradient x1="252.65004" y1="111.25186" x2="252.65004" y2="140.85059" gradientUnits="userSpaceOnUse" id="color-2"><stop offset="0" stop-color="#ff0000"/><stop offset="1" stop-color="#ff0000" stop-opacity="0"/></linearGradient></defs><g transform="translate(-190.85537,-50.35173)"><g data-paper-data="{&quot;isPaintingLayer&quot;:true}" fill-rule="nonzero" stroke-linejoin="miter" stroke-miterlimit="10" stroke-dasharray="" stroke-dashoffset="0" style="mix-blend-mode: normal"><path d="M190.85537,303.57674v-253.22501h91.18203v253.22501z" fill-opacity="0.01" fill="#000000" stroke="none" stroke-width="0" stroke-linecap="butt"/><path d="M201.54539,304.39162c0,0 -0.63536,-94.38387 -0.79335,-118.01201c-0.05451,-8.15261 8.18688,-36.76129 40.20201,-36.9211c31.60235,-0.15775 39.85672,29.48704 39.84884,36.89673c-0.07659,46.24274 0.65429,117.98648 0.65429,117.98648l-10.49667,0.09614l-0.15882,-114.84311c0,0 0.07549,-3.0993 -2.81625,-3.15415c-3.43441,-0.06514 -2.94538,3.11562 -2.94538,3.11562l0.20548,114.86995l-48.21366,0.07222l-0.30539,-115.23309c0,0 0.27949,-2.919 -2.8856,-2.93443c-3.11083,-0.01515 -2.81569,2.90899 -2.81569,2.90899l0.35311,115.0668z" fill="#ffffff" stroke="#000000" stroke-width="2" stroke-linecap="butt"/><path d="M214.30547,155.81373c0.50076,3.07302 1.40945,6.25689 1.43282,8.26632c0.04059,3.4892 -0.90818,16.12801 0.93171,25h-0.28171c0,0 -1.34914,1.15 -2.2,1.15c-1.17563,0 -1.55,-2.6 -1.55,-2.6l-0.49393,10.10572c0,0 -14.15607,5.18957 -14.15607,0.94428c0,-0.21455 0.43534,-12.453 3.55273,-22.15822c2.88647,-8.98629 8.47182,-15.48689 8.49414,-15.83881c0.09485,-1.49575 0.38166,-3.32632 1.24883,-4.14026c0.83587,-0.78456 2.08413,-0.83594 3.02148,-0.72903z" data-paper-data="{&quot;index&quot;:null}" fill="#b77e0d" stroke="none" stroke-width="NaN" stroke-linecap="butt"/><path d="M270.5743,156.94277c0.86717,0.81393 1.15397,2.64451 1.24883,4.14025c0.02232,0.35192 5.20767,6.85253 8.09414,15.83882c3.11739,9.70522 3.95273,21.94366 3.95273,22.15822c0,4.24529 -14.15607,-0.94428 -14.15607,-0.94428l-0.24393,-8.85572c0,0 -0.62437,2.6 -1.8,2.6c-0.85086,0 -2.2,-2.4 -2.2,-2.4h-0.28172c1.8399,-8.87199 0.89112,-21.51079 0.93171,-25c0.02337,-2.00943 0.93206,-5.1933 1.43282,-8.26632c0.93735,-0.10691 2.18561,-0.05553 3.02148,0.72903z" fill="#b77e0d" stroke="none" stroke-width="NaN" stroke-linecap="butt"/><g fill="#feaf12" stroke="none" stroke-width="0" stroke-linecap="butt"><path d="M200.15,194.85c0,0 1.94142,-18.33235 3.25,-20.75c0.86916,-1.60581 5.61283,-10.1777 13.73244,-17.14457c0.08048,0.69521 0.19748,1.37629 0.3593,2.04206c-14.09616,13.12377 -13.59177,35.86394 -13.59177,35.86394z"/><path d="M277.65,174.35c0.81854,2.53301 4.5,20.75 4.5,20.75l-3.49921,-0.01067c0,0 -1.53049,-23.09059 -14.60883,-36.24393c0.2529,-0.34331 0.48699,-0.69213 0.70034,-1.04532c7.88219,6.87693 12.39826,14.97346 12.90769,16.54993z"/></g><path d="M270.0707,197.76753l12.91264,1.3325l1.75,107.25h-16.08014c0.05997,-0.34931 1.41749,-108.5825 1.41749,-108.5825z" fill="#900000" stroke="#000000" stroke-width="0" stroke-linecap="butt"/><path d="M196.65001,306.10003l2.75,-107.25l12.5001,-2l0.83225,109.25z" fill="#900000" stroke="#000000" stroke-width="0" stroke-linecap="butt"/><path d="M229.36392,204.56945c-6.89736,0.48585 -9.31086,-0.56089 -9.31086,-0.56089v-1.34616c0,0 2.10136,1.00666 8.51033,0.63173c4.12393,-0.24126 6.85251,-1.54704 6.97039,-1.3048c0.3826,0.78618 -1.70634,2.26571 -6.16985,2.58011z" fill="#000000" stroke="#000000" stroke-width="0" stroke-linecap="butt"/><path d="M250.88268,204.56945c-4.4635,-0.31439 -6.55245,-1.79392 -6.16985,-2.58011c0.11788,-0.24224 2.84645,1.06355 6.97038,1.3048c6.40897,0.37493 8.51033,-0.63173 8.51033,-0.63173v1.34616c0,0 -2.4135,1.04672 -9.31086,0.56089z" fill="#000000" stroke="#000000" stroke-width="0" stroke-linecap="butt"/><path d="M256.14252,200.33386c-0.57113,0 -1.03411,-0.46299 -1.03411,-1.03411c0,-0.57113 0.46299,-1.03413 1.03411,-1.03413c0.57113,0 1.03411,0.463 1.03411,1.03413c0,0.57113 -0.46299,1.03411 -1.03411,1.03411z" fill="#000000" stroke="none" stroke-width="1.5" stroke-linecap="butt"/><path d="M223.06993,199.29975c0,-0.57113 0.46299,-1.03413 1.03411,-1.03413c0.57113,0 1.03413,0.463 1.03413,1.03413c0,0.57113 -0.463,1.03411 -1.03413,1.03411c-0.57113,0 -1.03411,-0.46299 -1.03411,-1.03411z" fill="#000000" stroke="none" stroke-width="1.5" stroke-linecap="butt"/><path d="M240.64438,261.12113c-0.81895,0 -1.48284,-0.66389 -1.48284,-1.48284c0,-0.81895 0.66389,-1.48284 1.48284,-1.48284c0.81895,0 1.48284,0.66389 1.48284,1.48284c0,0.81895 -0.66389,1.48284 -1.48284,1.48284z" data-paper-data="{&quot;index&quot;:null}" fill="#000000" stroke="none" stroke-width="1.5" stroke-linecap="butt"/><path d="M216.58112,304.40603v-119.20147c0,0 0.75721,-9.73105 0.75721,-14.63937c0,-4.498 -0.75721,-13.6872 -0.75721,-13.6872c0,0 2.67319,-2.35297 4.6557,-3.74807c1.98251,-1.3951 5.17197,-2.80371 5.17197,-2.80371c0,0 -0.8516,31.10902 14.30952,31.03867c15.43477,-0.07162 14.08154,-31.03867 14.08154,-31.03867c0,0 3.91276,1.51959 6.16585,2.94655c2.25309,1.42695 4.75379,3.60523 4.75379,3.60523c0,0 -0.75721,9.42463 -0.75721,14.19201c0,4.84193 0.75721,14.63937 0.75721,14.63937v118.69667z" fill="#a10000" stroke="#cc1414" stroke-width="2" stroke-linecap="butt"/><path d="M213.37493,305.96674l2.24201,-114.21837c0,0 1.41719,-9.50732 1.22345,-14.89622c-0.23862,-6.63738 -2.54879,-21.96874 -2.54879,-21.96874c0,0 5.4825,-3.48298 7.43521,-4.51941c1.3707,-0.72752 2.99928,-0.35729 2.99928,-0.35729c0,0 -1.07621,21.33407 1.68075,30.01462c2.1875,6.88757 14.88475,23.61207 14.88475,23.61207c0,0 12.66715,-18.08202 14.39445,-24.51821c2.3719,-8.83805 2.36009,-28.29477 2.36009,-28.29477c0,0 2.27573,0.03589 4.33872,0.97435c2.07433,0.94362 6.07341,3.42196 6.07341,3.42196c0,0 -2.45819,15.37969 -2.7529,22.0918c-0.23228,5.29047 1.12695,14.94061 1.12695,14.94061l1.12595,113.71758z" fill="#f7aa11" stroke="none" stroke-width="NaN" stroke-linecap="butt"/><path d="M214.67493,180.00006l-0.5,-25.5c0,0 3.50319,-2.26226 5.09547,-3.06324c1.40485,-0.7067 5.2165,-1.74532 5.2165,-1.74532c0,0 0.84749,23.46412 1.90236,29.69165c0.50274,2.96796 2.8635,6.07368 2.8635,6.07368l12.25373,17.92836c0,0 12.4124,-19.06707 13.01256,-22.32166c2.34099,-12.69496 3.15969,-30.89142 3.15969,-30.89142c0,0 5.80741,1.22089 7.3183,1.94776c1.48748,0.71561 3.67791,2.63021 3.67791,2.63021l-1.75,25.5c0,0 -2.86465,18.89125 -5.28029,19.38859c-4.59033,0.94507 -11.90797,5.33106 -19.96971,5.27808c-8.06174,-0.05299 -16.83434,-4.65035 -21.37456,-5.54983c-2.01907,-0.4 -5.62544,-19.36684 -5.62544,-19.36684z" fill="#d6940f" stroke="none" stroke-width="0" stroke-linecap="butt"/><path d="M236.5416,181.90007c0,0 -2.50698,-0.58 -4.1524,-2.17624c-1.94322,-1.88514 -3.07952,-4.9245 -3.15466,-6.30707c-0.29199,-5.37261 -5.52627,-22.85002 -5.52627,-22.85002h3.33334c0,0 2.10178,12.6481 4.54086,20.90088c1.09818,3.71577 3.06201,6.80628 3.5479,6.9884c1.39922,0.52444 4.23075,1.51708 5.91168,1.50505c2.38785,-0.01709 3.64142,-1.21327 5.37853,-1.36634c0.58929,-0.05193 2.8473,-2.79236 4.07063,-6.54093c2.703,-8.28262 4.5504,-21.48705 4.5504,-21.48705h2.66666c0,0 -3.20535,18.25042 -5.17922,23.49527c-0.43228,1.14863 -1.10681,4.07373 -2.64621,5.68652c-1.48336,1.55409 -3.84123,1.8182 -3.84123,1.8182z" fill="#cc1414" stroke="none" stroke-width="0" stroke-linecap="butt"/><path d="M216.70827,181.56673l9.66667,-11.33333c0,0 2.50832,11.87548 3.82103,16.9528c2.12976,8.23753 11.58609,21.25334 11.58609,21.25334c0,0 8.03117,-13.4146 10.55031,-22.29028c2.58926,-9.12276 3.04257,-15.91586 3.04257,-15.91586l9.66666,11l-23.33334,37.5z" fill="#f7aa11" stroke="none" stroke-width="0" stroke-linecap="butt"/><path d="M237.08031,204.37097c2.47747,5.24591 4.63032,9.41143 4.63032,9.41143c0,0 1.76992,-4.05366 3.91251,-9.27796c2.03909,-0.28549 3.92724,-0.77185 5.44689,-1.38086c0.21928,-0.08787 0.43642,-0.18164 0.65046,-0.28123l-10.01222,16.09106l-10.84233,-16.11893c0.79402,0.36525 5.04698,1.32938 6.21437,1.5565z" fill="#d6940f" stroke="none" stroke-width="0" stroke-linecap="butt"/><path d="M239.01694,205.44418v-0.57143h4.85714v0.57143l-2.35714,3.21428z" fill="#d6940f" stroke="none" stroke-width="0" stroke-linecap="butt"/><path d="M236.80265,204.44418l4.5,0.78571l5.57143,-0.57143l-4.85714,9.35715z" fill="#d6940f" stroke="#d6940f" stroke-width="0.5" stroke-linecap="round"/><path d="M216.5416,171.2334l8.33334,-22.5c0,0 3.84165,23.04215 5.15436,28.11946c2.12976,8.23753 11.51466,26.3962 11.51466,26.3962c0,0 8.1026,-18.55746 10.62174,-27.43314c2.58926,-9.12276 4.70924,-26.58252 4.70924,-26.58252l8,21l-23.27083,38.16666z" fill="#feaf12" stroke="none" stroke-width="0" stroke-linecap="butt"/><g fill="#000000" stroke="none" stroke-width="1.5" stroke-linecap="butt"><path d="M276.03807,94.0568c0.10787,0.72782 2.81429,11.52904 4.20496,12.88108c-0.37244,-0.02077 -3.18873,-3.26378 -5.09334,-4.25222c-1.53909,-0.79875 -2.13586,0.62657 -3.07502,0.54602c-0.77219,-0.06624 0.1076,-1.52334 -0.17804,-1.28402c-6.43369,5.39027 -5.5202,14.26881 1.72995,17.93249c0.80439,0.40648 -0.2329,1.7877 -0.32171,2.68457c-0.0584,0.5898 -0.15791,1.38844 -0.22706,2.26086c-0.01435,-0.01132 -0.02164,-0.01724 -0.02164,-0.01724c0,0 -0.51401,4.59757 -3.23946,12.24324c-2.28668,6.41478 -6.18145,9.70754 -6.18145,9.70754l-0.1162,-2.65484c0,0 -9.76526,10.41973 -26.07151,10.6752c-17.29056,0.14641 -24.35066,-10.87154 -24.35066,-10.87154l-0.09205,3.70421c0,0 -2.30133,-1.77794 -3.43873,-2.91273c-1.13739,-1.1348 -2.16005,-3.33274 -2.16005,-3.33274l-1.15522,2.34735c0,0 -2.08932,-2.82114 -4.08942,-7.14249c0.07272,-3.54236 -2.76626,-19.70674 -2.76626,-19.70674c0,0 10.27242,4.2449 12.99075,0.65137c0.34788,-0.35633 0.66936,-0.73854 0.96129,-1.14347c0.77708,-0.93372 1.64203,-2.11166 1.43456,-2.87239c0.29131,-0.93812 0.44822,-1.93539 0.44822,-2.96932c0,-5.52285 -4.47715,-10 -10,-10c-1.42233,-1.0098 -1.93785,0.01104 -2.35528,0.27895c-0.07339,0.01772 -0.14646,0.03624 -0.2192,0.05557c-0.10355,-0.02295 -0.21009,-0.12638 -0.33283,-0.35572c-0.16696,-0.31196 -2.33054,2.37206 -2.49093,2.0525c-1.07522,-2.14223 -0.00743,-7.4454 -0.85683,-9.77844c1.53422,-9.93721 -0.35633,-41.14932 41.09542,-40.30088c3.24641,0.12584 6.19708,0.54628 8.87921,1.20904c3.93376,0.97203 19.75402,7.71477 19.75402,7.71477l-2.5969,2.81128l10.43442,11.53549l-3.50881,1.17143c0,0 1.05472,3.43912 1.42698,5.05667c1.44677,6.28652 1.46295,11.29327 1.57884,12.07514z" data-paper-data="{&quot;index&quot;:null}"/><path d="M198.17985,94.0568c0.11588,-0.78187 0.13207,-5.78862 1.57884,-12.07515c0.37226,-1.61755 1.42698,-5.05666 1.42698,-5.05666l-3.50881,-1.17143l10.43441,-11.5355l-2.59691,-2.81129c0,0 15.82026,-6.74273 19.75402,-7.71476c2.68213,-0.66276 5.63281,-1.0832 8.87921,-1.20904c41.45175,-0.84844 39.5612,30.36367 41.09542,40.30088c-0.8494,2.33304 0.21839,7.63621 -0.85683,9.77844c-0.16039,0.31956 -2.32397,-2.36446 -2.49093,-2.0525c-0.12274,0.22934 -0.22928,0.33277 -0.33283,0.35572c-0.07274,-0.01933 -0.14581,-0.03785 -0.2192,-0.05557c-0.41743,-0.26791 -0.93295,-1.28875 -2.35528,-0.27895c-5.52285,0 -10,4.47715 -10,10c0,1.03393 0.15691,2.0312 0.44822,2.96932c-0.20747,0.76073 0.65748,1.93867 1.43456,2.87239c0.29193,0.40493 0.61341,0.78714 0.96129,1.14347c2.71833,3.59353 12.99075,-0.65137 12.99075,-0.65137c0,0 -2.83898,16.16438 -2.76626,19.70674c-2.0001,4.32135 -4.08942,7.14249 -4.08942,7.14249l-1.15522,-2.34735c0,0 -1.02266,2.19794 -2.16005,3.33274c-1.1374,1.13479 -3.43873,2.91273 -3.43873,2.91273l-0.09205,-3.70421c0,0 -7.0601,11.01795 -24.35066,10.87154c-16.30625,-0.25547 -26.07151,-10.6752 -26.07151,-10.6752l-0.1162,2.65484c0,0 -3.89477,-3.29276 -6.18145,-9.70754c-2.72545,-7.64567 -3.23946,-12.24324 -3.23946,-12.24324c0,0 -0.00729,0.00592 -0.02164,0.01724c-0.06915,-0.87242 -0.16866,-1.67106 -0.22706,-2.26086c-0.08881,-0.89687 -1.1261,-2.27809 -0.32171,-2.68457c7.25015,-3.66368 8.16364,-12.54222 1.72995,-17.93249c-0.28564,-0.23932 0.59415,1.21778 -0.17804,1.28402c-0.93916,0.08055 -1.53593,-1.34477 -3.07502,-0.54602c-1.90461,0.98844 -4.7209,4.23145 -5.09334,4.25222c1.39067,-1.35204 4.09709,-12.15326 4.20496,-12.88108z"/></g><path d="M208.67414,112.16603c-0.57709,-7.29323 0.335,-17.15448 0.335,-17.15448c0,0 3.41059,-0.04124 13.91429,-3.14424c8.0696,-2.38394 20.54731,-9.48722 20.54731,-9.48722c0,0 -2.16005,3.00503 -3.40781,4.46015c-1.32651,1.54696 -3.99292,4.56297 -3.99292,4.56297c0,0 7.838,-1.66761 14.67476,-4.72931c8.56837,-3.53575 10.59252,-6.05309 12.95042,-4.5927c2.7829,1.72362 1.03006,23.1827 0.71846,28.74062c-0.42163,5.66922 -2.53327,9.49969 -3.15031,12.52053c-0.61704,3.02084 -0.4096,6.13662 -2.20622,16.0397c-1.12121,6.18021 -4.16183,8.92466 -10.01942,14.66081c-5.85759,5.73616 -9.05378,9.25275 -13.01359,9.32173c-3.81077,0.06639 -8.93565,-5.1002 -13.93542,-10.38244c-5.32393,-5.62474 -8.87489,-8.47713 -9.71551,-15.13975c-0.75707,-6.00039 -0.77653,-9.90853 -1.12266,-15.24835c-0.25298,-3.90273 -2.26119,-6.44504 -2.57636,-10.42801z" fill="#ffffff" stroke="#000000" stroke-width="1.5" stroke-linecap="butt"/><g stroke="none" stroke-linecap="butt"><path d="M255.77952,149.10609c0,0 -4.47588,12.5898 -20.82469,12.7482c-15.55656,0.25538 -21.61646,-15.75707 -21.61646,-15.75707c0,0 2.96575,-10.78857 12.0456,-10.67281c7.23454,0.16487 10.85944,6.22375 10.85944,6.22375c0,0 5.06617,-2.78488 11.04827,-0.34503c5.86553,2.39231 8.48785,7.80297 8.48785,7.80297z" fill="#000000" stroke-width="0"/><path d="M241.46173,149.21467c0,0.12297 -0.72323,0.46768 -1.228,0.46768c-0.52583,0 -1.23323,-0.57887 -1.23323,-0.98878c0,-0.32791 0.7074,-0.69732 1.23323,-0.4924c0.50478,0.26641 1.228,0.87011 1.228,1.01349z" data-paper-data="{&quot;noHover&quot;:false,&quot;origItem&quot;:[&quot;Path&quot;,{&quot;applyMatrix&quot;:true,&quot;segments&quot;:[[[293.59779,354.27433],[0.1875,0.09896],[-0.19532,-0.07612]],[[293.23841,354.37329],[0,-0.1218],[0,0.15226]],[[293.59779,354.62451],[-0.19532,0],[0.1875,0]],[[293.95717,354.52555],[0,0.04568],[0,-0.05328]]],&quot;closed&quot;:true,&quot;fillColor&quot;:[0,0,0]}]}" fill="#ffffff" stroke-width="0.5"/><path d="M242.63244,141.82422c2.22949,0 3.68821,0.59566 6.0018,2.54259c1.47229,1.3526 2.74224,2.99935 2.74224,3.40926c0,1.47557 -14.47453,-1.91316 -16.66191,-3.57321c-0.84131,-0.67632 0.43783,0.53431 0.75335,-0.73633c1.07075,-0.94567 4.72483,-1.64236 7.16457,-1.64236z" data-paper-data="{&quot;noHover&quot;:false,&quot;origItem&quot;:[&quot;Path&quot;,{&quot;applyMatrix&quot;:true,&quot;segments&quot;:[[[294.55087,351.88399],[0,0],[-0.90624,0]],[[293.37899,352.53105],[0.125,-0.57854],[-0.11718,0.47198]],[[293.64461,353.52829],[-0.3125,-0.25122],[0.8125,0.61662]],[[297.64461,353.97743],[0,0.5481],[0,-0.15226]],[[296.62117,352.77465],[0.54688,0.50242],[-0.85938,-0.72318]],[[294.55085,351.88399],[0.82814,0],[0,0]]],&quot;closed&quot;:true,&quot;fillColor&quot;:[0,0,0]}]}" fill="#ffffff" stroke-width="0.5"/><path d="M218.02962,141.04419c2.75527,-4.2218 6.06017,-5.44161 10.09841,-3.63813c4.30213,1.49311 8.69485,6.57979 9.07342,7.11262c0.65204,0.81976 -3.83722,-0.61864 -6.46628,-1.49989c-3.02868,-0.94275 -10.56351,-0.82068 -13.25567,0.24504c-0.84131,0.34837 -0.73287,-0.19077 0.55012,-2.21969z" data-paper-data="{&quot;noHover&quot;:false,&quot;origItem&quot;:[&quot;Path&quot;,{&quot;applyMatrix&quot;:true,&quot;segments&quot;:[[[285.44933,351.50335],[0,0],[-0.47656,0.75364]],[[285.23839,352.30267],[-0.3125,0.1294],[1,-0.39586]],[[289.98057,352.20371],[-1.125,-0.35018],[0.97656,0.32734]],[[290.83213,352.22655],[0.2422,0.3045],[-0.14062,-0.19792]],[[290.76181,351.88399],[-0.11718,0],[0.38282,0]],[[289.02743,350.23207],[0.73438,0.32734],[-1.5,-0.6699]],[[285.44931,351.50337],[1.02344,-1.56818],[0,0]]],&quot;closed&quot;:true,&quot;fillColor&quot;:[0,0,0]}]}" fill="#ffffff" stroke-width="0.5"/><path d="M223.97795,144.70089c2.50286,-0.06149 5.99335,0.25813 7.21322,0.58609c9.47905,2.70455 10.39326,3.24099 9.48885,4.16321c-0.63099,0.67628 -8.23344,-0.56094 -12.58716,-1.56517c-4.81644,-1.08623 -7.21494,-1.0175 -5.30097,-1.28392c1.99813,-0.26641 2.9799,0.06481 -0.15394,-0.28361l-3.19409,-1.47563l4.53414,-0.14102z" data-paper-data="{&quot;noHover&quot;:false,&quot;origItem&quot;:[&quot;Path&quot;,{&quot;applyMatrix&quot;:true,&quot;segments&quot;:[[287.64455,352.92691],[285.97267,352.94975],[[287.28517,353.12483],[0,0],[1.16406,0.12942]],[[287.76173,353.37605],[0.7422,-0.09896],[-0.71094,0.09896]],[[289.02735,353.97745],[-1.78906,-0.40348],[1.61718,0.37302]],[[291.40235,354.14493],[-0.23438,0.2512],[0.33594,-0.34256]],[[290.14453,353.12485],[1.25782,0.37302],[-0.45312,-0.1218]],[[287.64453,352.92693],[0.92968,-0.02284],[0,0]]],&quot;closed&quot;:true,&quot;fillColor&quot;:[0,0,0]}]}" fill="#ffffff" stroke-width="0.5"/><path d="M217.14815,150.29024c-2.3767,-3.60696 -2.1106,-3.65735 6.49173,-1.23904c8.58128,2.33631 15.5116,2.91066 22.873,1.84494c8.3499,-1.20916 8.60777,-1.01048 5.26362,2.47361c-4.29061,4.48821 -7.73728,6.01392 -14.99352,6.01392c-3.32315,0 -7.53542,-0.48712 -9.00765,-0.95847c-3.84894,-1.20916 -8.46083,-4.77385 -10.62716,-8.13491z" data-paper-data="{&quot;noHover&quot;:false,&quot;origItem&quot;:[&quot;Path&quot;,{&quot;applyMatrix&quot;:true,&quot;segments&quot;:[[[285.12125,354.96707],[0,0],[0.80468,1.24846]],[[289.05093,357.91313],[-1.42968,-0.44914],[0.54688,0.17508]],[[292.28531,358.23285],[-1.23438,0],[2.69532,0]],[[297.78531,356.09373],[-1.59374,1.66714],[1.24218,-1.29414]],[[295.83219,355.19545],[3.10156,-0.44914],[-2.73438,0.39586]],[[287.52751,354.52555],[3.1875,0.86782],[-3.19532,-0.89828]],[[285.12127,354.96707],[-0.88282,-1.3398],[0,0]]],&quot;closed&quot;:true,&quot;fillColor&quot;:[0,0,0]}]}" fill="#ffffff" stroke-width="0.5"/><path d="M241.36309,148.04042l-0.14171,1.06675l-20.25824,-2.51181l-0.04243,-1.05271z" fill="#000000" stroke-width="0"/></g><path d="M236.30628,141.59308c-1.03376,0 -3.5381,-3.26042 -3.7867,-5.3637c-0.22243,-1.88186 1.31512,-3.82799 3.7867,-3.82799c2.47159,0 4.2021,0.49077 4.02999,4.18853c-0.14607,3.13818 -1.55841,5.00317 -4.02999,5.00317z" fill="#ffffff" stroke="#000000" stroke-width="1.15" stroke-linecap="butt"/><path d="M239.90839,111.49941c0,0 0.1026,3.96976 0.00576,7.12662c-0.19174,6.25113 -1.08147,27.7607 -1.08147,27.7607l-2.98167,0.00864c0,0 -0.80294,-4.17274 -1.12322,-9.49979c-0.43353,-7.21063 -0.4495,-16.29321 -0.76344,-19.63229c-0.29758,-3.16513 -0.89593,-5.71453 -0.89593,-5.71453" fill="#ffffff" stroke="#000000" stroke-width="1.3" stroke-linecap="round"/><path d="M211.8213,119.36431h17c0,0 -4.03655,3.16106 -5.07582,5.1703c-1.36882,2.64637 -2.42418,9.3297 -2.42418,9.3297c0,0 -1.1334,-6.06373 -2.81956,-8.63734c-1.44224,-2.20131 -6.68044,-5.86266 -6.68044,-5.86266z" fill="#da7f7f" stroke="none" stroke-width="0" stroke-linecap="butt"/><path d="M254.64084,125.22694c-1.68615,2.57361 -2.81955,8.63734 -2.81955,8.63734c0,0 -1.05537,-6.68332 -2.42418,-9.3297c-1.03927,-2.00925 -5.07582,-5.1703 -5.07582,-5.1703h17c0,0 -5.2382,3.66135 -6.68045,5.86266z" data-paper-data="{&quot;index&quot;:null}" fill="#da7f7f" stroke="none" stroke-width="0" stroke-linecap="butt"/><path d="M199.14131,117.311l0.4,-13.8c0,0 3.04028,-3 5.2,-3c7.97537,0 55.1685,-0.15027 67.60003,-0.1903c1.91048,-0.00615 3.79997,3.9903 3.79997,3.9903l0.2,12c0,0 -3.64348,4.4 -5.4,4.4c-14.37232,0 -59.48095,0 -67.6,0c-2.44792,0 -4.2,-3.4 -4.2,-3.4z" fill="#735008" stroke="none" stroke-width="0" stroke-linecap="butt"/><path d="M256.74413,97.04567c0,0 1.52429,0.31807 4.2558,1.11029c2.49492,0.72361 4.44935,1.74403 4.44935,1.74403l0.1951,1.17035c0,0 -7.24963,-3.12997 -15.1158,-2.4706c-6.2896,0.52724 -9.96319,2.8124 -9.96319,2.8124l0.04575,-4.17683c0,0 3.12748,-1.70421 7.86366,-1.85557c4.90428,-0.15672 8.09084,0.59125 8.09084,0.59125z" data-paper-data="{&quot;index&quot;:null}" fill="#000000" stroke="none" stroke-width="1.5" stroke-linecap="butt"/><path d="M210.37378,122.28925c0,0 -4.93211,-3.51705 -6.16417,-8.97502c-1.29636,-5.74284 -1.46118,-9.7328 0.48013,-9.99193c1.94131,-0.25915 2.70321,2.37692 3.73262,8.35569c1.0294,5.97877 1.95143,10.61127 1.95143,10.61127z" data-paper-data="{&quot;index&quot;:null}" fill="#ffffff" stroke="#000000" stroke-width="1" stroke-linecap="butt"/><path d="M210.17119,118.34169c0,0 -3.56385,-2.92338 -4.31816,-8.45061c-0.42079,-3.08327 2.15675,-2.28016 2.15675,-2.28016" fill="none" stroke="#000000" stroke-width="0.25" stroke-linecap="round"/><path d="M213.18459,111.68579c0.07093,-4.89188 4.83834,-8.93609 10.21137,-8.8582c5.37302,0.0779 9.02724,4.2484 8.95632,9.14029c-0.07093,4.89188 -4.12352,8.79439 -9.49655,8.7165c-5.37302,-0.0779 -9.74207,-4.1067 -9.67114,-8.99859z" fill="#ffffff" stroke="#000000" stroke-width="1.4" stroke-linecap="butt"/><path d="M217.62222,111.80373c0.03999,-2.75843 2.30855,-4.96213 5.06696,-4.92214c2.75843,0.03999 4.96213,2.30855 4.92214,5.06696c-0.03999,2.75843 -2.30854,4.96213 -5.06696,4.92214c-2.75843,-0.03999 -4.96213,-2.30855 -4.92214,-5.06696z" fill="#000000" stroke="none" stroke-width="1.5" stroke-linecap="butt"/><path d="M240.24086,111.68652c0.20353,-4.88817 4.45264,-8.85847 9.77048,-8.85847c5.31783,0 9.27453,3.96607 9.27453,8.85847c0,4.8924 -3.88585,9.07104 -9.69964,9.14188c-5.52997,0.06739 -9.55792,-4.03692 -9.34537,-9.14188z" fill="#ffffff" stroke="#000000" stroke-width="1.4" stroke-linecap="butt"/><path d="M244.84362,111.77207c0,-2.81845 2.2848,-5.10325 5.10325,-5.10325c2.81845,0 5.10325,2.2848 5.10325,5.10325c0,2.81845 -2.28479,5.10325 -5.10325,5.10325c-2.81845,0 -5.10325,-2.2848 -5.10325,-5.10325z" fill="#000000" stroke="none" stroke-width="1.5" stroke-linecap="butt"/><path d="M213.11616,111.15361c0,0 0.06357,-9.01512 10.60111,-8.8249c9.47101,0.16586 9.55554,9.40723 9.55554,9.40723z" fill="#ffffff" stroke="#000000" stroke-width="1.15" stroke-linecap="butt"/><path d="M239.86322,111.28451c0,0 -0.24686,-9.4582 11.19813,-9.1032c9.71427,0.33347 9.54677,9.65229 9.54677,9.65229z" fill="#ffffff" stroke="#000000" stroke-width="1.15" stroke-linecap="butt"/><path d="M216.64602,101.14195c0,0 3.36963,-1.819 8.03244,-2.28178c5.16698,-0.51283 7.76823,-0.06628 7.76823,-0.06628l0.29508,4.13747c0,0 -3.83554,-0.68065 -8.01795,-0.52113c-5.59346,0.21333 -6.64488,1.43293 -10.89774,1.89119c-3.64408,0.39266 -6.73723,0.15884 -6.73723,0.15884l-0.02589,-1.23155c0,0 3.59517,0.07398 5.23371,-0.06836c1.35239,-0.11749 3.9757,-0.93808 3.9757,-0.93808z" fill="#000000" stroke="none" stroke-width="1.5" stroke-linecap="butt"/><path d="M264.60693,111.67798c1.0294,-5.97877 1.7913,-8.61483 3.73262,-8.35569c1.94131,0.25914 1.77649,4.24909 0.48013,9.99193c-1.23206,5.45797 -6.16417,8.97502 -6.16417,8.97502c0,0 0.92203,-4.6325 1.95143,-10.61127z" data-paper-data="{&quot;index&quot;:null}" fill="#ffffff" stroke="#000000" stroke-width="1" stroke-linecap="butt"/><path d="M265.01948,107.61092c0,0 2.57754,-0.80312 2.15675,2.28016c-0.75431,5.52723 -4.31816,8.45061 -4.31816,8.45061" data-paper-data="{&quot;index&quot;:null}" fill="none" stroke="#000000" stroke-width="0.25" stroke-linecap="round"/><path d="M206.15465,122.86433l-6.66667,-16.5c0,0 7.07305,-8.5 12,-8.5c9.18385,0 38.5934,-0.23144 53.48716,0.33657c5.17175,0.19724 8.51284,8.16343 8.51284,8.16343l-6.5,16.83333c0,0 -13.8112,0.4645 -19.20888,-0.40441c-4.39412,-0.70736 -10.79023,-4.42481 -10.79023,-4.42481c0,0 -7.90883,3.89274 -12.60701,4.57778c-5.46385,0.79667 -18.22721,-0.08189 -18.22721,-0.08189z" fill="#b57e0c" stroke="none" stroke-width="0" stroke-linecap="butt"/><path d="M206.3213,112.87998l-6.83333,-6.13391c0,0 7.23972,-8.90034 12.16667,-8.90034c9.18385,0 38.59339,-0.13918 53.48717,0.2024c5.17174,0.11861 8.34617,8.69926 8.34617,8.69926l-6.33333,6.33305c0,0 -13.8112,0.27934 -19.20889,-0.2432c-4.39412,-0.42539 -10.79022,-2.66094 -10.79022,-2.66094c0,0 -7.90883,2.34098 -12.60702,2.75294c-5.46385,0.4791 -18.22721,-0.04925 -18.22721,-0.04925z" fill="#f7aa11" stroke="none" stroke-width="0" stroke-linecap="butt"/><path d="M206.48798,123.45768l-4.66666,-8.61912c0,0 5.07305,-2.83409 10,-2.83409c4.74875,0 14.40518,5.9733 25.16633,5.98139c10.0504,0.00756 21.12828,-5.95453 28.32084,-5.83618c5.17174,0.0851 5.15569,2.02221 5.15569,2.02221l-3.4762,9.26294c0,0 -13.47787,-0.29958 -18.87555,-0.67448c-4.39412,-0.3052 -10.79022,-1.90914 -10.79022,-1.90914c0,0 -7.90883,1.67957 -12.60702,1.97514c-5.46385,0.34374 -18.22721,0.63133 -18.22721,0.63133z" fill="#6a4906" stroke="none" stroke-width="0" stroke-linecap="butt"/><path d="M206.15465,106.82091l-6.83333,-0.20753c0,0 7.23972,-8.94529 12.16667,-8.94529c9.18385,0 38.5934,-0.08473 53.48716,0.12322c5.17174,0.07221 8.6795,8.82207 8.6795,8.82207l-6.66667,0.32957c0,0 -8.3112,-5.82994 -13.70888,-6.14806c-4.39412,-0.25897 -16.29022,4.38002 -16.29022,4.38002c0,0 -14.90883,-5.57482 -19.60702,-5.32402c-5.46385,0.29167 -11.22721,6.97002 -11.22721,6.97002z" fill="#b57e0c" stroke="none" stroke-width="0" stroke-linecap="butt"/><path d="M207.29631,117.26433v-12.75h25v12.75z" fill="#443e31" stroke="none" stroke-width="0" stroke-linecap="butt"/><path d="M241.29631,117.26433v-12.75h25v12.75z" fill="#443e31" stroke="none" stroke-width="0" stroke-linecap="butt"/><path d="M241.15344,110.92147v-6.60714h25v6.60714z" fill="#665d49" stroke="none" stroke-width="0" stroke-linecap="butt"/><path d="M207.29631,110.83576v-6.60715h25v6.60715z" fill="#665d49" stroke="none" stroke-width="0" stroke-linecap="butt"/><path d="M228.98796,110.94765c0,0 1.11639,4.8496 -9.41667,4.75c-8.70189,-0.08229 -9.41667,-4.75 -9.41667,-4.75z" fill="#ca0000" stroke="none" stroke-width="0" stroke-linecap="butt"/><path d="M262.48796,110.94766c0,0 1.1164,4.8496 -9.41667,4.75c-8.70189,-0.08229 -9.41667,-4.75 -9.41667,-4.75z" fill="#ca0000" stroke="none" stroke-width="0" stroke-linecap="butt"/><path d="" fill="#f7aa11" stroke="none" stroke-width="0" stroke-linecap="butt"/><path d="" fill="#f7aa11" stroke="none" stroke-width="0" stroke-linecap="butt"/><path d="M213.95,306.05001l0.25,-31.25l4.61582,10.37163c0,0 15.83673,-30.99663 22.00918,-30.99663c0.39881,0 0.76248,-0.01744 1.25,0c6.31756,0.22595 21.88287,31.5775 21.88287,31.5775l3.86713,-11.0775l0.125,31.625z" fill="#db970f" stroke="none" stroke-width="0" stroke-linecap="butt"/><path d="M240.825,306.05001v-51.875h1.5v51.875z" fill="#a7730c" stroke="none" stroke-width="0" stroke-linecap="butt"/><path d="" fill="#f7dfaf" stroke="none" stroke-width="0" stroke-linecap="butt"/><path d="M212.65,198.31178c-0.02469,0.22047 -0.04182,0.45613 -0.05122,0.70863c-0.00517,0.10915 -0.00778,0.21904 -0.00778,0.3296c-0.01869,1.75349 -0.03582,3.50702 -0.0514,5.26058c-2.64341,0.10698 -5.65881,0.98942 -8.14574,0.98942c-4.08503,0 -7.05865,-1 -7.05865,-1v-7.25c0,0 2.50099,-0.8598 6.87529,-0.57711c2.02299,0.13073 4.62563,1.48848 7.24541,1.524c0.39264,0.00532 0.7908,0.01028 1.19408,0.01488z" data-paper-data="{&quot;index&quot;:null}" fill="#e1cba0" stroke="none" stroke-width="0" stroke-linecap="butt"/><path d="M213.4,193.31178c-0.02711,0.22047 -0.04591,0.45613 -0.05624,0.70863c-0.00567,0.10915 -0.00854,0.21904 -0.00854,0.3296c-0.02051,1.75349 -0.03933,3.50702 -0.05643,5.26058c-2.90231,0.10698 -6.21305,0.98942 -8.94357,0.98942c-4.48513,0 -7.75,-1 -7.75,-1v-7.25c0,0 2.74595,-0.8598 7.54869,-0.57711c2.22113,0.13073 5.07869,1.48848 7.95506,1.524c0.43111,0.00532 0.86825,0.01028 1.31104,0.01488z" data-paper-data="{&quot;index&quot;:null}" fill="#f7dfaf" stroke="none" stroke-width="0" stroke-linecap="butt"/><path d="M270.27929,202.2969c2.61978,-0.03552 5.22243,-1.39327 7.24541,-1.524c4.3743,-0.28269 6.87529,0.57711 6.87529,0.57711v7.25c0,0 -2.97362,1 -7.05864,1c-2.48693,0 -5.50232,-0.88245 -8.14574,-0.98942c-0.01558,-1.75356 -0.03271,-3.50708 -0.0514,-5.26058c0,-0.11056 -0.00262,-0.22045 -0.00778,-0.3296c-0.00941,-0.25251 -0.02654,-0.48816 -0.05122,-0.70863c0.40328,-0.0046 0.80143,-0.00956 1.19408,-0.01488z" data-paper-data="{&quot;index&quot;:null}" fill="#e1cba0" stroke="none" stroke-width="0" stroke-linecap="butt"/><path d="M269.64626,195.7969c2.87637,-0.03552 5.73394,-1.39327 7.95506,-1.524c4.80274,-0.28269 7.54868,0.57711 7.54868,0.57711v7.25c0,0 -3.26487,1 -7.75,1c-2.73051,0 -6.04125,-0.88245 -8.94356,-0.98942c-0.0171,-1.75356 -0.03592,-3.50708 -0.05644,-5.26058c0,-0.11056 -0.00287,-0.22045 -0.00854,-0.3296c-0.01033,-0.25251 -0.02913,-0.48816 -0.05624,-0.70863c0.44279,-0.0046 0.87993,-0.00956 1.31104,-0.01488z" fill="#f7dfaf" stroke="none" stroke-width="0" stroke-linecap="butt"/><path d="M241.67903,276.80491l-20.0436,-25.46121l19.98553,-31.69858l20.0436,28.46121z" fill="none" stroke="#f7dfaf" stroke-width="5" stroke-linecap="butt"/><path d="M240.87001,305.68003v-98.4125l0.60625,0.8125l0.85625,-0.75l-0.0625,98.35z" fill="#b57e0c" stroke="none" stroke-width="0" stroke-linecap="butt"/><path d="M213.4,305.85l1.5,-127.75l1.75,10l-0.75,117.75z" fill="#b77e0d" stroke="none" stroke-width="0" stroke-linecap="butt"/><path d="M265.65,306.1l-0.5,-118l2,-9.25l1,127.25z" data-paper-data="{&quot;index&quot;:null}" fill="#b77e0d" stroke="none" stroke-width="0" stroke-linecap="butt"/><path d="" fill="#cc1414" stroke="none" stroke-width="0" stroke-linecap="butt"/><path d="M283.9,232.85l0.25,24h-15.02136c0.06691,-2.50473 0.39469,-18.56508 0.42133,-24z" fill="#cc1414" stroke="none" stroke-width="0" stroke-linecap="butt"/><path d="M197.9,256.85l0.5,-24h14.25v24z" fill="#cc1414" stroke="none" stroke-width="0" stroke-linecap="butt"/><g stroke="none" stroke-width="0" stroke-linecap="butt"><path d="M211.6003,141.16319v-29.59873h15.93778v29.59873z" fill="url(#color-1)"/><path d="M244.68115,140.85059v-29.59874h15.93777v29.59874z" fill="url(#color-2)"/></g><g fill="#000000" stroke="#b77e0d" stroke-width="0.5" stroke-linecap="butt"><path d="M262.71841,213.20705c0.03249,2.56089 -2.01721,4.66323 -4.5781,4.69571c-2.56089,0.03249 0.44423,-2.16058 0.41174,-4.72147c-0.03249,-2.56089 -3.09024,-4.51984 -0.52935,-4.55233c2.56088,-0.03249 4.66322,2.0172 4.6957,4.57809z"/><path d="M252.91541,214.98206l-0.04485,-3.53662l3.11375,-2.39761c0,0 0.41518,1.01085 0.93744,2.00778c0.43669,0.83358 0.83407,1.32079 0.83941,1.74267c0.0041,0.32361 -0.29252,1.30374 -0.66467,2.10059c-0.60304,1.29127 -1.23832,2.79699 -1.23832,2.79699z"/><path d="M262.32818,209.29489c0.00698,0.55048 -0.84758,-0.59574 -2.49827,-1.24341c-0.84395,-0.33114 -1.82321,-0.28695 -2.78747,-0.27472c-0.23847,0.00302 -0.48465,0.05293 -0.69196,0.13228c-0.52065,0.19926 -0.98827,0.5342 -1.44117,0.84296c-1.52228,1.03781 -2.53985,2.43589 -2.54731,1.84837c-0.01055,-0.83193 2.20953,-3.86653 5.05978,-3.90268c2.85025,-0.03615 4.89584,1.76528 4.90639,2.59721z"/></g></g></g></svg>