<svg version="1.1" xmlns="http://www.w3.org/2000/svg" xmlns:xlink="http://www.w3.org/1999/xlink" width="98.07307" height="254.22704" viewBox="0,0,98.07307,254.22704"><defs><linearGradient x1="241.14977" y1="151.57877" x2="241.14977" y2="306.61352" gradientUnits="userSpaceOnUse" id="color-1"><stop offset="0" stop-color="#9966ff"/><stop offset="1" stop-color="#402b6b"/></linearGradient><linearGradient x1="232.87716" y1="184.36919" x2="241.9133" y2="184.36919" gradientUnits="userSpaceOnUse" id="color-2"><stop offset="0" stop-color="#000000"/><stop offset="1" stop-color="#ffffff"/></linearGradient><linearGradient x1="232.87716" y1="186.65682" x2="241.9133" y2="186.65682" gradientUnits="userSpaceOnUse" id="color-3"><stop offset="0" stop-color="#000000"/><stop offset="1" stop-color="#ffffff"/></linearGradient><linearGradient x1="207.64404" y1="299.64425" x2="207.64404" y2="305.95858" gradientUnits="userSpaceOnUse" id="color-4"><stop offset="0" stop-color="#9966ff"/><stop offset="1" stop-color="#402b6b"/></linearGradient><linearGradient x1="274.26266" y1="299.20784" x2="274.26266" y2="307.33347" gradientUnits="userSpaceOnUse" id="color-5"><stop offset="0" stop-color="#9966ff"/><stop offset="1" stop-color="#402b6b"/></linearGradient><linearGradient x1="222.41807" y1="111.05159" x2="222.41807" y2="124.84107" gradientUnits="userSpaceOnUse" id="color-6"><stop offset="0" stop-color="#ffffff"/><stop offset="1" stop-color="#ffffff" stop-opacity="0"/></linearGradient><linearGradient x1="249.98267" y1="111.03723" x2="249.98267" y2="124.8267" gradientUnits="userSpaceOnUse" id="color-7"><stop offset="0" stop-color="#ffffff"/><stop offset="1" stop-color="#ffffff" stop-opacity="0"/></linearGradient></defs><g transform="translate(-186.3899,-53.38648)"><g data-paper-data="{&quot;isPaintingLayer&quot;:true}" fill-rule="nonzero" stroke-linejoin="miter" stroke-miterlimit="10" stroke-dasharray="" stroke-dashoffset="0" style="mix-blend-mode: normal"><path d="M192.43311,92.17812c-0.65259,-1.24557 -2.0699,1.28417 -2.0699,1.28417c0,0 -0.45847,-3.35748 1.02425,-7.35046c1.93345,-5.2068 6.35052,-11.80062 11.06466,-16.56131c8.23521,-8.3165 20.68839,-12.60566 31.26939,-13.01579c18.98945,-0.38868 31.2215,7.42719 37.49844,15.93377c9.15171,12.40249 4.95282,28.46166 6.5134,32.70525c3.60744,9.80946 6.72962,18.92439 6.72962,18.92439c0,0 -5.227,0.62359 -6.59952,-0.50623c-1.28013,-1.05378 0.71561,0.67692 -1.14592,11.49657c-0.49584,3.00908 -2.94822,8.50828 -6.62931,12.4699c-2.66668,2.8699 -8.14485,14.21223 -8.49114,16.92397c-3.77284,-2.46577 -5.58778,-7.15074 -7.93144,-5.86685c-6.35979,3.48397 -13.23797,5.81817 -19.53493,5.76485c-11.08816,-0.17372 -15.69065,-7.87751 -20.5846,-12.15676c-0.1837,-0.16063 -5.4095,0.41143 -5.65742,0.18076c-1.79372,-1.66891 -2.7708,-2.54125 -2.7708,-2.54125l-0.99654,2.19279c0,0 -4.07273,0.49442 -6.46389,-6.21346c-2.84998,-7.99501 -0.76239,-12.80265 -0.76239,-12.80265c0,0 -0.92044,8.44634 -1.81162,7.10031c-0.41133,-0.62126 -2.60634,-2.55879 -3.32672,-5.63335c-1.01246,-4.32119 -0.53443,-10.03495 -0.53443,-10.03495c0,0 -1.25696,0.86486 -1.97617,1.19282c-0.86465,0.39429 -2.85623,1.01078 -2.85623,1.01078c0,0 0.59371,-1.58556 1.79574,-4.30167c0.8279,-1.87075 1.95136,-7.07228 1.95136,-7.07228c0,0 -0.93064,0.51017 -1.44863,0.63178c-0.59923,0.14068 -1.93865,0.16347 -1.93865,0.16347c0,0 2.48299,-4.72451 4.0441,-10.00196c1.90307,-6.4335 1.9115,-13.39704 1.63927,-13.91663z" fill="#000000" stroke="none" stroke-width="1.5" stroke-linecap="butt"/><path d="M189.81241,306.61149v-253.22501h91.18203v253.22501z" fill-opacity="0.01" fill="#000000" stroke="none" stroke-width="0" stroke-linecap="butt"/><path d="M201.84133,304.39055c0,0 -0.63536,-94.38387 -0.79335,-118.01201c-0.05451,-8.15261 8.18688,-36.76129 40.20201,-36.9211c31.60235,-0.15775 39.85672,29.48704 39.84884,36.89673c-0.07659,46.24274 0.65429,117.98648 0.65429,117.98648l-10.49667,0.09614l-0.15882,-114.84311c0,0 0.07549,-3.0993 -2.81625,-3.15415c-3.43441,-0.06514 -2.94538,3.11562 -2.94538,3.11562l0.20548,114.86995l-48.21366,0.07222l-0.30539,-115.23309c0,0 0.27949,-2.919 -2.8856,-2.93443c-3.11083,-0.01515 -2.81569,2.90899 -2.81569,2.90899l0.35311,115.0668z" fill="#ffffff" stroke="#000000" stroke-width="2" stroke-linecap="butt"/><path d="M255.18491,200.33275c-0.57113,0 -1.03411,-0.46299 -1.03411,-1.03411c0,-0.57113 0.46299,-1.03413 1.03411,-1.03413c0.57113,0 1.03411,0.463 1.03411,1.03413c0,0.57113 -0.46299,1.03411 -1.03411,1.03411z" fill="#000000" stroke="none" stroke-width="1.5" stroke-linecap="butt"/><path d="M249.92505,204.56834c-4.4635,-0.31439 -6.55245,-1.79392 -6.16985,-2.58011c0.11788,-0.24224 2.84645,1.06355 6.97038,1.3048c6.40897,0.37493 8.51033,-0.63173 8.51033,-0.63173v1.34616c0,0 -2.4135,1.04672 -9.31086,0.56089z" fill="#000000" stroke="#000000" stroke-width="0" stroke-linecap="butt"/><path d="M222.11228,199.29864c0,-0.57113 0.46299,-1.03413 1.03411,-1.03413c0.57113,0 1.03413,0.463 1.03413,1.03413c0,0.57113 -0.463,1.03411 -1.03413,1.03411c-0.57113,0 -1.03411,-0.46299 -1.03411,-1.03411z" fill="#000000" stroke="none" stroke-width="1.5" stroke-linecap="butt"/><path d="M228.40629,204.56834c-6.89736,0.48585 -9.31086,-0.56089 -9.31086,-0.56089v-1.34616c0,0 2.10136,1.00666 8.51033,0.63173c4.12393,-0.24126 6.85251,-1.54704 6.97039,-1.3048c0.3826,0.78618 -1.70634,2.26571 -6.16985,2.58011z" fill="#000000" stroke="#000000" stroke-width="0" stroke-linecap="butt"/><path d="M240.94033,261.12009c-0.81895,0 -1.48284,-0.66389 -1.48284,-1.48284c0,-0.81895 0.66389,-1.48284 1.48284,-1.48284c0.81895,0 1.48284,0.66389 1.48284,1.48284c0,0.81895 -0.66389,1.48284 -1.48284,1.48284z" data-paper-data="{&quot;index&quot;:null}" fill="#000000" stroke="none" stroke-width="1.5" stroke-linecap="butt"/><path d="M215.62347,305.65859v-119.20147c0,0 0.86831,116.24433 -1.38278,118.10528c-3.99565,3.30317 -11.80055,1.97346 -13.91279,0.4657c-1.58156,-1.12895 0.38291,-127.23329 0.38291,-128.82279c0,-4.498 8.64471,-13.06041 8.64471,-13.06041c0,0 8.94114,-7.36732 10.92365,-8.76242c1.98251,-1.3951 5.17197,-2.80371 5.17197,-2.80371c0,0 0.02519,22.55877 15.18632,22.48842c15.43477,-0.07162 13.20475,-22.48842 13.20475,-22.48842c0,0 3.91276,1.51959 6.16585,2.94655c2.25309,1.42695 11.64853,7.36599 11.64853,7.36599c0,0 12.88533,9.8837 10.67604,13.34663c-0.83193,1.30401 -0.15095,129.28773 -0.15095,130.59186c0,2.23008 -16.76282,-2.63695 -16.58953,0.25417c0.20296,3.38604 -0.8303,-119.12204 -0.8303,-119.12204v118.69667z" fill="url(#color-1)" stroke="#000000" stroke-width="2" stroke-linecap="butt"/><path d="M208.49508,115.20069c-0.57709,-7.29323 0.335,-17.15448 0.335,-17.15448c0,0 3.41059,-0.04124 13.91429,-3.14424c8.0696,-2.38394 20.54731,-9.48722 20.54731,-9.48722c0,0 -2.16005,3.00503 -3.40781,4.46015c-1.32651,1.54696 -3.99292,4.56297 -3.99292,4.56297c0,0 7.838,-1.66761 14.67476,-4.72931c8.56837,-3.53575 10.59252,-6.05309 12.95042,-4.5927c2.7829,1.72362 1.03006,23.1827 0.71846,28.74062c-0.42163,5.66922 -2.53327,9.49969 -3.15031,12.52053c-0.61704,3.02084 -0.4096,6.13662 -2.20622,16.0397c-1.12121,6.18021 -4.16183,8.92466 -10.01942,14.66081c-5.85759,5.73616 -9.05378,9.25275 -13.01359,9.32173c-3.81077,0.06639 -8.93565,-5.1002 -13.93542,-10.38244c-5.32393,-5.62474 -8.87489,-8.47713 -9.71551,-15.13975c-0.75707,-6.00039 -0.77653,-9.90853 -1.12266,-15.24835c-0.25298,-3.90273 -2.26119,-6.44504 -2.57636,-10.42801z" fill="#ffffff" stroke="#000000" stroke-width="1.5" stroke-linecap="butt"/><path d="M256.56506,101.33749c0,0 1.52429,0.31807 4.2558,1.11029c2.49492,0.72361 4.44935,1.74403 4.44935,1.74403l0.1951,1.17035c0,0 -7.24963,-3.12997 -15.1158,-2.4706c-6.2896,0.52724 -9.96319,2.8124 -9.96319,2.8124l0.04575,-4.17683c0,0 3.12748,-1.70421 7.86366,-1.85557c4.90428,-0.15672 8.09084,0.59125 8.09084,0.59125z" data-paper-data="{&quot;index&quot;:null}" fill="#000000" stroke="none" stroke-width="1.5" stroke-linecap="butt"/><path d="M236.12724,144.6278c-1.03376,0 -3.5381,-3.26042 -3.7867,-5.3637c-0.22243,-1.88186 1.31512,-3.82799 3.7867,-3.82799c2.47159,0 4.2021,0.49077 4.02999,4.18853c-0.14607,3.13818 -1.55841,5.00317 -4.02999,5.00317z" fill="#ffffff" stroke="#000000" stroke-width="1.15" stroke-linecap="butt"/><path d="M210.19473,125.32391c0,0 -4.93211,-3.51705 -6.16417,-8.97502c-1.29636,-5.74284 -1.46118,-9.7328 0.48013,-9.99193c1.94131,-0.25915 2.70321,2.37692 3.73262,8.35569c1.0294,5.97877 1.95143,10.61127 1.95143,10.61127z" data-paper-data="{&quot;index&quot;:null}" fill="#ffffff" stroke="#000000" stroke-width="1" stroke-linecap="butt"/><path d="M209.99213,121.37635c0,0 -3.56385,-2.92338 -4.31816,-8.45061c-0.42079,-3.08327 2.15675,-2.28016 2.15675,-2.28016l-3.90309,-2.72796" fill="none" stroke="#000000" stroke-width="2" stroke-linecap="round"/><path d="M213.00555,114.72045c0.07093,-4.89188 4.83834,-8.93609 10.21137,-8.8582c5.37302,0.0779 9.02724,4.2484 8.95632,9.14029c-0.07093,4.89188 -4.12352,8.79439 -9.49655,8.7165c-5.37302,-0.0779 -9.74207,-4.1067 -9.67114,-8.99859z" fill="#ffffff" stroke="#000000" stroke-width="1.4" stroke-linecap="butt"/><path d="M217.44319,114.83839c0.03999,-2.75843 2.30855,-4.96213 5.06696,-4.92214c2.75843,0.03999 4.96213,2.30855 4.92214,5.06696c-0.03999,2.75843 -2.30854,4.96213 -5.06696,4.92214c-2.75843,-0.03999 -4.96213,-2.30855 -4.92214,-5.06696z" fill="#000000" stroke="none" stroke-width="1.5" stroke-linecap="butt"/><path d="M240.06183,114.72118c0.20353,-4.88817 4.45264,-8.85847 9.77048,-8.85847c5.31783,0 9.27453,3.96607 9.27453,8.85847c0,4.8924 -3.88585,9.07104 -9.69964,9.14188c-5.52997,0.06739 -9.55792,-4.03692 -9.34537,-9.14188z" fill="#ffffff" stroke="#000000" stroke-width="1.4" stroke-linecap="butt"/><path d="M244.66458,114.80673c0,-2.81845 2.2848,-5.10325 5.10325,-5.10325c2.81845,0 5.10325,2.2848 5.10325,5.10325c0,2.81845 -2.28479,5.10325 -5.10325,5.10325c-2.81845,0 -5.10325,-2.2848 -5.10325,-5.10325z" fill="#000000" stroke="none" stroke-width="1.5" stroke-linecap="butt"/><path d="M212.93711,114.18827c0,0 0.06357,-9.01512 10.60111,-8.8249c9.47101,0.16586 9.55554,9.40723 9.55554,9.40723z" fill="#ffffff" stroke="#000000" stroke-width="1.15" stroke-linecap="butt"/><path d="M239.68417,114.31917c0,0 -0.24686,-9.4582 11.19813,-9.1032c9.71427,0.33347 9.54677,9.65229 9.54677,9.65229z" fill="#ffffff" stroke="#000000" stroke-width="1.15" stroke-linecap="butt"/><path d="M216.46696,101.66228c0,0 3.36963,-1.819 8.03244,-2.28178c5.16698,-0.51283 7.76823,-0.06628 7.76823,-0.06628l0.29508,4.13747c0,0 -3.83554,-0.68065 -8.01795,-0.52113c-5.59346,0.21333 -6.64488,1.43293 -10.89774,1.89119c-3.64408,0.39266 -6.73723,0.15884 -6.73723,0.15884l-0.02589,-1.23155c0,0 3.59517,0.07398 5.23371,-0.06836c1.35239,-0.11749 3.9757,-0.93808 3.9757,-0.93808z" fill="#000000" stroke="none" stroke-width="1.5" stroke-linecap="butt"/><path d="M264.42788,114.71265c1.0294,-5.97877 1.7913,-8.61483 3.73262,-8.35569c1.94131,0.25914 1.77649,4.24909 0.48013,9.99193c-1.23206,5.45797 -6.16417,8.97502 -6.16417,8.97502c0,0 0.92203,-4.6325 1.95143,-10.61127z" data-paper-data="{&quot;index&quot;:null}" fill="#ffffff" stroke="#000000" stroke-width="1" stroke-linecap="butt"/><path d="M260.96593,113.55877l5.01435,-6.89474l-1.13984,3.98156c0,0 2.57754,-0.80312 2.15675,2.28016c-0.75431,5.52723 -4.31816,8.45061 -4.31816,8.45061" fill="none" stroke="#000000" stroke-width="2" stroke-linecap="round"/><g stroke="#ffffff" stroke-width="0" stroke-linecap="butt"><g fill="#ffffff" font-weight="normal" font-size="40" text-anchor="start"><text transform="translate(218.12192,187.68625) scale(0.12005,0.12005)" font-size="40" xml:space="preserve" fill="#ffffff" fill-rule="nonzero" stroke="#ffffff" stroke-width="0" stroke-linecap="butt" stroke-linejoin="miter" stroke-miterlimit="10" stroke-dasharray="" stroke-dashoffset="0" font-family="Pixel" font-weight="normal" text-anchor="start" style="mix-blend-mode: normal"><tspan x="0" dy="0">DONK</tspan></text><text transform="translate(217.83545,192.54695) scale(0.12005,0.12005)" font-size="40" xml:space="preserve" fill="#ffffff" fill-rule="nonzero" stroke="#ffffff" stroke-width="0" stroke-linecap="butt" stroke-linejoin="miter" stroke-miterlimit="10" stroke-dasharray="" stroke-dashoffset="0" font-family="Sans Serif" font-weight="normal" text-anchor="start" style="mix-blend-mode: normal"><tspan x="0" dy="0">Industries</tspan></text></g><path d="M232.87716,185.05548v-1.37258h9.03615v1.37258z" fill="url(#color-2)"/><path d="M232.87716,187.32405v-1.33446h9.03615v1.33446z" fill="url(#color-3)"/></g><path d="M215.43312,301.45207c0.6868,2.40381 -1.71701,3.09062 -1.71701,3.09062l-2.86248,0.81181c-3.19637,0.46317 -5.74738,0.84819 -8.96616,0.41514c0,0 -2.47487,-0.35355 -2.12132,-2.82842c0.35356,-2.47487 2.82842,-2.12132 2.82842,-2.12132c2.60645,0.40058 4.61406,0.01026 7.21627,-0.35545l2.53167,-0.72938c0,0 2.40381,-0.68681 3.09061,1.717z" fill="url(#color-4)" stroke="none" stroke-width="0.5" stroke-linecap="butt"/><path d="M283.34139,304.45065c0,2.5 -2.5,2.5 -2.5,2.5l-0.03175,-0.02513c-5.94635,0.83633 -9.91306,0.67115 -14.66879,-3.2514c0,0 -1.92055,-1.60046 -0.32009,-3.52101c1.60046,-1.92055 3.52102,-0.32009 3.52102,-0.32009c3.56668,3.00945 6.1864,2.80776 10.76075,2.14275l0.73885,-0.02513c0,0 2.5,0 2.5,2.5z" fill="url(#color-5)" stroke="none" stroke-width="0.5" stroke-linecap="butt"/><path d="M221.30368,196.79437l-2.02107,-13.22118l21.18557,-4.08655l2.02107,13.22119z" fill="#000000" stroke="#848484" stroke-width="0.5" stroke-linecap="butt"/><path d="M223.64198,183.04291l-1.78863,-4.47157" fill="none" stroke="#848484" stroke-width="0.5" stroke-linecap="round"/><path d="M227.04038,183.04291l0.53659,-3.04066" fill="none" stroke="#848484" stroke-width="0.5" stroke-linecap="round"/><path d="M230.7965,182.50632l0.35773,-3.21953" fill="none" stroke="#848484" stroke-width="0.5" stroke-linecap="round"/><path d="M233.47944,181.96974l1.07318,-2.8618" fill="none" stroke="#848484" stroke-width="0.5" stroke-linecap="round"/><path d="M236.16237,181.07542l1.4309,-2.32521" fill="none" stroke="#848484" stroke-width="0.5" stroke-linecap="round"/><path d="M242.95915,182.86405h-1.25204l-2.32521,-1.78863l2.8618,-0.89431" fill="none" stroke="#848484" stroke-width="0.5" stroke-linecap="round"/><path d="M242.60142,184.47381h-2.8618" fill="none" stroke="#848484" stroke-width="0.5" stroke-linecap="round"/><path d="M243.31687,186.62017l-3.04066,-1.07318" fill="none" stroke="#848484" stroke-width="0.5" stroke-linecap="round"/><path d="M240.81281,187.51448l2.68294,0.53659" fill="none" stroke="#848484" stroke-width="0.5" stroke-linecap="round"/><path d="M240.99167,189.12424l2.50408,1.07318" fill="none" stroke="#848484" stroke-width="0.5" stroke-linecap="round"/><path d="M240.63393,193.41694l-1.25204,-2.68294l4.11384,1.07318" fill="none" stroke="#848484" stroke-width="0.5" stroke-linecap="round"/><path d="M238.30873,194.49012l-0.53659,-2.68294" fill="none" stroke="#848484" stroke-width="0.5" stroke-linecap="round"/><path d="M235.44692,195.20557l0.35773,-3.39839" fill="none" stroke="#848484" stroke-width="0.5" stroke-linecap="round"/><path d="M231.69081,195.5633l0.89431,-3.21953" fill="none" stroke="#848484" stroke-width="0.5" stroke-linecap="round"/><path d="M228.82901,193.59581l-1.96749,2.50408" fill="none" stroke="#848484" stroke-width="0.5" stroke-linecap="round"/><path d="M223.64198,196.81533l2.50408,-3.04066" fill="none" stroke="#848484" stroke-width="0.5" stroke-linecap="round"/><path d="M220.2436,194.1324l2.68294,-1.25204" fill="none" stroke="#848484" stroke-width="0.5" stroke-linecap="round"/><path d="M222.38996,190.37628l-3.57725,-0.71545" fill="none" stroke="#848484" stroke-width="0.5" stroke-linecap="round"/><path d="M220.42247,187.51448l-2.32521,-0.71545" fill="none" stroke="#848484" stroke-width="0.5" stroke-linecap="round"/><path d="M218.63384,183.5795l3.57725,1.4309" fill="none" stroke="#848484" stroke-width="0.5" stroke-linecap="round"/><path d="M222.38996,183.5795l-0.89431,-1.4309" fill="none" stroke="#848484" stroke-width="0.5" stroke-linecap="round"/><g data-paper-data="{&quot;index&quot;:null}" stroke="none" stroke-linecap="butt"><path d="M257.52139,150.57021c0,0 -8.80504,14.21875 -24.14929,14.21875c-12.41023,0 -18.95833,-17.15277 -18.95833,-17.15277c0,0 8.40233,-8.5788 11.32441,-8.48271c4.58274,0.06906 12.40999,4.94116 12.40999,4.94116c0,0 5.25064,-4.28875 9.21776,-2.32142c4.73512,2.90518 10.15546,8.79699 10.15546,8.79699z" fill="#000000" stroke-width="0"/><path d="M248.19058,144.14604c2.20052,0.92776 6.53174,5.487 5.30454,5.487c-1.73502,0 -15.76756,-3.26633 -16.23307,-3.80236c-0.31736,-0.28866 -0.75254,0.45088 -0.37169,-0.35317c5.81869,-2.19841 8.21104,-2.75405 11.30022,-1.33147z" data-paper-data="{&quot;noHover&quot;:false,&quot;origItem&quot;:[&quot;Path&quot;,{&quot;applyMatrix&quot;:true,&quot;segments&quot;:[[[396.56765,351.16082],[0.33594,-0.62422],[-0.14062,0.29688]],[[396.52077,351.88402],[-0.11718,-0.10658],[0.17188,0.19792]],[[400.95045,352.87364],[-0.64062,0],[0.45312,0]],[[399.04421,350.98574],[0.8125,0.34256],[-1.14062,-0.52526]]],&quot;closed&quot;:true,&quot;fillColor&quot;:[0,0,0]}]}" fill="#ffffff" stroke-width="0.5"/><path d="M227.24051,141.44402c1.92541,0.26801 4.61402,1.07623 5.84123,1.61227c2.64485,1.15456 7.25533,3.65625 4.73744,3.12022c-0.95214,-0.20621 -8.53837,-0.23039 -11.43715,0.24378c-2.83524,0.47418 -6.32624,0.56715 -7.36304,0.42285l-1.89139,-0.29386l3.1651,-2.63669c3.02569,-2.4947 3.71044,-2.88099 6.94777,-2.46862z" data-paper-data="{&quot;noHover&quot;:false,&quot;origItem&quot;:[&quot;Path&quot;,{&quot;applyMatrix&quot;:true,&quot;segments&quot;:[[[391.30993,349.9885],[0,0],[-1.19532,-0.15226]],[[388.88025,350.81066],[1.11718,-0.92112],[0,0]],[387.70837,351.75462],[[388.40369,351.85358],[0,0],[0.38282,0.05328]],[[391.02087,351.63282],[-1.04686,0.17508],[1.07032,-0.17508]],[[393.59119,351.4349],[-0.35156,-0.07614],[0.92968,0.19792]],[[393.40369,350.50618],[0.97656,0.4263],[-0.45312,-0.19792]],[[391.30995,349.98852],[0.71092,0.09896],[0,0]]],&quot;closed&quot;:true,&quot;fillColor&quot;:[0,0,0]}]}" fill="#ffffff" stroke-width="0.5"/><path d="M236.576,148.85182c9.11111,0.47072 -6.61424,0.80413 -8.94172,0.00008c-1.10029,-0.41237 -0.03951,-0.73615 3.51517,-0.81865c2.89878,-0.06186 5.01478,0.7973 5.42655,0.81857z" data-paper-data="{&quot;noHover&quot;:false,&quot;origItem&quot;:[&quot;Path&quot;,{&quot;applyMatrix&quot;:true,&quot;segments&quot;:[[[392.85669,352.40166],[1.07032,-0.02284],[-1.3125,0.03046]],[[391.59107,352.63004],[-0.40626,-0.15226],[0.85938,0.29688]],[[394.69263,352.63004],[0,0.29688],[0,-0.15224]]],&quot;closed&quot;:true,&quot;fillColor&quot;:[0,0,0]}]}" fill="#ffffff" stroke-width="0.5"/><path d="M227.98035,149.73645c1.41765,0.18558 4.38401,0.42976 6.01323,0.49161c11.7877,0 2.77125,0.1381 1.29012,0.73599c-1.81962,0.82474 -7.18288,0.29762 -8.8121,-0.85694c-0.82523,-0.53603 -0.50132,-0.65927 1.50875,-0.37061z" data-paper-data="{&quot;noHover&quot;:false,&quot;origItem&quot;:[&quot;Path&quot;,{&quot;applyMatrix&quot;:true,&quot;segments&quot;:[[[391.71611,352.98022],[0,0],[-0.74218,-0.10658]],[[391.16143,353.10202],[-0.3047,-0.19792],[0.60156,0.4263]],[[394.21611,353.3989],[-0.67186,0.30452],[0.54688,-0.22076]],[[393.73955,353.14768],[0.97656,0],[-0.60156,-0.02284]],[[391.71611,352.9802],[0.52344,0.06852],[0,0]]],&quot;closed&quot;:true,&quot;fillColor&quot;:[0,0,0]}]}" fill="#ffffff" stroke-width="0.5"/><path d="M222.04588,150.28055c1.10029,0.74224 3.35795,1.66465 5.60077,2.26254c3.87205,1.01021 4.94526,0.93644 13.00678,-0.48614c4.63379,-0.80405 9.96317,-1.25407 11.69818,-1.10977l3.24052,0.19903l-3.29523,3.48888c-4.12598,4.3296 -9.15923,6.69232 -16.20512,7.16649c-6.24189,0.41237 -10.06473,-1.11524 -14.4446,-5.44488c-2.70833,-2.63906 -4.96078,-5.97854 -4.96078,-7.25682c0,-0.80405 3.41289,-0.09761 5.35947,1.18067z" data-paper-data="{&quot;noHover&quot;:false,&quot;origItem&quot;:[&quot;Path&quot;,{&quot;applyMatrix&quot;:true,&quot;segments&quot;:[[[387.54419,352.75184],[0,-0.29688],[0,0.47198]],[[389.38013,355.3934],[-1,-0.97442],[1.61718,1.59864]],[[394.61451,357.31176],[-2.3047,0.15226],[2.60156,-0.17508]],[[400.49733,354.76918],[-1.52344,1.59862],[0,0]],[401.71607,353.49788],[[400.52075,353.42936],[0,0],[-0.64062,-0.05328]],[[396.21607,353.87088],[1.71094,-0.29688],[-2.97656,0.52526]],[[391.59107,354.02314],[1.42968,0.373],[-0.82812,-0.22076]],[[389.33325,353.12486],[0.40626,0.27406],[-0.71874,-0.47198]]],&quot;closed&quot;:true,&quot;fillColor&quot;:[0,0,0]}]}" fill="#ffffff" stroke-width="0.5"/></g><path d="M239.72933,114.53407c0,0 0.1026,3.96976 0.00576,7.12662c-0.19174,6.25113 -1.08147,27.7607 -1.08147,27.7607l-2.98167,0.00864c0,0 -0.80294,-4.17274 -1.12322,-9.49979c-0.43353,-7.21063 -0.4495,-16.29321 -0.76344,-19.63229c-0.29758,-3.16513 -0.89593,-5.71453 -0.89593,-5.71453z" fill="#ffffff" stroke="#000000" stroke-width="2" stroke-linecap="round"/><path d="M210.82237,111.05159h23.1914l-1.88038,13.78948h-20.68422z" fill="url(#color-6)" stroke="#000000" stroke-width="2" stroke-linecap="round"/><path d="M238.38696,111.03723h23.1914l-1.88039,13.78948h-20.68422z" fill="url(#color-7)" stroke="#000000" stroke-width="2" stroke-linecap="round"/><g fill="#000000" stroke="#a80000" stroke-width="0.5" stroke-linecap="butt"><path d="M234.4748,188.16618c0.25534,1.94183 -1.11184,3.72298 -3.05367,3.97832c-1.94183,0.25534 0.14274,-1.68077 -0.11259,-3.6226c-0.25534,-1.94183 -2.75388,-3.15405 -0.81205,-3.40939c1.94183,-0.25534 3.72298,1.11184 3.97832,3.05367z"/><path d="M227.19021,190.39713l-0.35261,-2.68169l2.14864,-2.10124c0,0 0.40634,0.73026 0.89274,1.44029c0.40671,0.59369 0.75237,0.92789 0.79443,1.24779c0.03226,0.24538 -0.10471,1.01642 -0.31554,1.65508c-0.34164,1.03492 -0.68846,2.2356 -0.68846,2.2356z"/><path d="M233.82607,185.23041c0.05489,0.41741 -0.69733,-0.37606 -2.0092,-0.71923c-0.67073,-0.17545 -1.4104,-0.0537 -2.14157,0.04244c-0.18082,0.02378 -0.36328,0.08385 -0.51357,0.16279c-0.37743,0.19822 -0.70238,0.49469 -1.0185,0.76996c-1.06254,0.92524 -1.70937,2.07861 -1.76796,1.63311c-0.08294,-0.63082 1.32966,-3.13529 3.4909,-3.41947c2.16125,-0.28419 3.87695,0.89959 3.95989,1.53041z"/></g></g></g></svg>