<svg version="1.1" xmlns="http://www.w3.org/2000/svg" xmlns:xlink="http://www.w3.org/1999/xlink" width="120.68149" height="252.43833" viewBox="0,0,120.68149,252.43833"><defs><radialGradient cx="226.66367" cy="116.76701" r="9.58478" gradientUnits="userSpaceOnUse" id="color-1"><stop offset="0" stop-color="#ffffff"/><stop offset="1" stop-color="#da7f7f"/></radialGradient><radialGradient cx="253.65451" cy="116.83964" r="9.52652" gradientUnits="userSpaceOnUse" id="color-2"><stop offset="0" stop-color="#ffffff"/><stop offset="1" stop-color="#da7f7f"/></radialGradient></defs><g transform="translate(-181.77997,-57.47702)"><g data-paper-data="{&quot;isPaintingLayer&quot;:true}" fill-rule="nonzero" stroke-linejoin="miter" stroke-miterlimit="10" stroke-dasharray="" stroke-dashoffset="0" style="mix-blend-mode: normal"><path d="M195.78341,105.85542c0,0 6.16329,-5.92187 6.29161,-6.78761c0.33654,-2.27063 -0.16776,-40.17317 35.96775,-41.57382c44.63633,-0.91362 39.01489,35.34872 41.53088,42.1903c3.44981,9.38084 6.15664,17.40016 6.15664,17.40016c0,0 -2.76715,-2.05351 -4.0797,-3.13397c-1.2242,-1.00773 -3.80143,-3.14585 -3.80143,-3.14585c0,0 3.09111,10.3481 1.31092,20.69498c-1.5623,9.48098 -7.29782,17.22543 -7.29782,17.22543l-1.15522,-2.34735c0,0 -1.02266,2.19794 -2.16005,3.33274c-1.1374,1.13479 -3.43873,2.91273 -3.43873,2.91273l-0.09205,-3.70421c0,0 -7.0601,11.01795 -24.35066,10.87154c-16.30625,-0.25547 -26.07151,-10.6752 -26.07151,-10.6752l-0.1162,2.65484c0,0 -3.89477,-3.29276 -6.18145,-9.70754c-2.72545,-7.64567 -3.23946,-12.24324 -3.23946,-12.24324c0,0 -2.33908,1.89916 -5.71704,2.7744c-4.23278,1.09673 -6.94665,0.34526 -6.94665,0.34526c0,0 3.60795,-2.71717 5.58396,-4.76989c1.76007,-1.8284 2.64658,-3.37722 2.64658,-3.37722c0,0 -2.10758,1.0847 -4.23277,1.61795c-2.21739,0.5564 -4.03008,0.53093 -4.03008,0.53093c0,0 4.97492,-5.03728 7.03074,-10.87429c1.94102,-5.51108 2.09972,-10.95731 2.09972,-10.95731c0,0 -1.36165,0.66163 -3.33013,0.79513c-1.24776,0.08463 -2.37785,-0.0489 -2.37785,-0.0489z" fill="#000000" stroke="none" stroke-width="1.5" stroke-linecap="butt"/><g stroke-linecap="butt"><path d="M200.8869,306.36692c0,0 -0.63536,-94.38387 -0.79335,-118.01201c-0.05451,-8.15261 8.18688,-36.76129 40.20201,-36.9211c31.60235,-0.15775 39.85672,29.48704 39.84884,36.89673c-0.07659,46.24274 0.65429,117.98648 0.65429,117.98648l-10.49667,0.09614l-0.15882,-114.84311c0,0 0.07549,-3.0993 -2.81625,-3.15415c-3.43441,-0.06514 -2.94538,3.11562 -2.94538,3.11562l0.20548,114.86995l-48.21366,0.07222l-0.30539,-115.23309c0,0 0.27949,-2.919 -2.8856,-2.93443c-3.11083,-0.01515 -2.81569,2.90899 -2.81569,2.90899l0.35311,115.0668z" fill="#ffffff" stroke="#000000" stroke-width="2"/><path d="M255.48406,202.3091c-0.57113,0 -1.03411,-0.46299 -1.03411,-1.03411c0,-0.57113 0.46299,-1.03413 1.03411,-1.03413c0.57113,0 1.03411,0.463 1.03411,1.03413c0,0.57113 -0.46299,1.03411 -1.03411,1.03411z" fill="#000000" stroke="none" stroke-width="1.5"/><path d="M250.22419,206.54469c-4.4635,-0.31439 -6.55245,-1.79392 -6.16985,-2.58011c0.11788,-0.24224 2.84645,1.06355 6.97038,1.3048c6.40897,0.37493 8.51033,-0.63173 8.51033,-0.63173v1.34616c0,0 -2.4135,1.04672 -9.31086,0.56089z" fill="#000000" stroke="#000000" stroke-width="0"/><path d="M222.41144,201.27499c0,-0.57113 0.46299,-1.03413 1.03411,-1.03413c0.57113,0 1.03413,0.463 1.03413,1.03413c0,0.57113 -0.463,1.03411 -1.03413,1.03411c-0.57113,0 -1.03411,-0.46299 -1.03411,-1.03411z" fill="#000000" stroke="none" stroke-width="1.5"/><path d="M228.70542,206.54469c-6.89736,0.48585 -9.31086,-0.56089 -9.31086,-0.56089v-1.34616c0,0 2.10136,1.00666 8.51033,0.63173c4.12393,-0.24126 6.85251,-1.54704 6.97039,-1.3048c0.3826,0.78618 -1.70634,2.26571 -6.16985,2.58011z" fill="#000000" stroke="#000000" stroke-width="0"/><path d="M239.98588,263.09646c-0.81895,0 -1.48284,-0.66389 -1.48284,-1.48284c0,-0.81895 0.66389,-1.48284 1.48284,-1.48284c0.81895,0 1.48284,0.66389 1.48284,1.48284c0,0.81895 -0.66389,1.48284 -1.48284,1.48284z" data-paper-data="{&quot;index&quot;:null}" fill="#000000" stroke="none" stroke-width="1.5"/><g stroke="#000000" stroke-width="0"><path d="M195.7245,308.60984v-101.45678l18.18833,18.75672v82.70006z" data-paper-data="{&quot;index&quot;:null}" fill="#a10000"/><path d="M195.7245,308.60984v-39.40696l18.18833,-8.93766v48.34462z" data-paper-data="{&quot;index&quot;:null}" fill="#cc1414"/></g><g data-paper-data="{&quot;index&quot;:null}" stroke="#000000" stroke-width="0"><path d="M266.94139,309.91534v-82.70006l18.18833,-18.75671v101.45678z" data-paper-data="{&quot;index&quot;:null}" fill="#a10000"/><path d="M266.94139,309.91534v-48.34463l18.18833,8.93766v39.40696z" data-paper-data="{&quot;index&quot;:null}" fill="#cc1414"/></g><g stroke="none" stroke-width="0"><path d="M264.438,167.81815c0,7.71445 -11.62934,38.61811 -25.36142,38.61811c-13.73209,0 -24.36686,-30.90366 -24.36686,-38.61811c0,-7.71445 11.13206,-13.96825 24.86414,-13.96825c13.73209,0 24.86414,6.25379 24.86414,13.96825z" fill="#a10000"/><path d="M264.57617,158.74153c0,7.71445 -11.62934,38.6181 -25.36143,38.6181c-13.73209,0 -24.36686,-30.90365 -24.36686,-38.6181c0,-7.71445 11.13206,-13.96825 24.86415,-13.96825c13.73209,0 24.86414,6.2538 24.86414,13.96826z" fill="#cc1414"/><path d="M257.7265,157.19919c0,5.16773 -8.12722,9.357 -18.15266,9.357c-10.02543,0 -18.15266,-4.18927 -18.15266,-9.357c0,-5.16773 8.12723,-9.35701 18.15266,-9.35701c10.02543,0 18.15266,4.18928 18.15266,9.35701z" fill="#000000"/></g><path d="M214.7862,309.02027v-133.28636h51.43887v133.28636z" fill="#402b6b" stroke="none" stroke-width="0"/><g stroke="none" stroke-width="0"><path d="M182.80128,161.48939l57.64091,23.57386l59.63026,-22.69172l-59.63026,38.95924z" fill="#9966ff"/><path d="M181.77998,161.03179l58.77768,18.45747l61.90381,-18.45747l-61.90381,34.72499z" fill="#5500ff"/></g></g><path d="M212.5693,117.17704c-0.57709,-7.29323 0.335,-17.15448 0.335,-17.15448c0,0 3.41059,-0.04124 13.91429,-3.14424c8.0696,-2.38394 20.54731,-9.48722 20.54731,-9.48722c0,0 -2.16005,3.00503 -3.40781,4.46015c-1.32651,1.54696 -3.99292,4.56297 -3.99292,4.56297c0,0 7.838,-1.66761 14.67476,-4.72931c8.56837,-3.53575 10.59252,-6.05309 12.95042,-4.5927c2.7829,1.72362 1.03006,23.1827 0.71846,28.74062c-0.42163,5.66922 -2.53327,9.49969 -3.15031,12.52053c-0.61704,3.02084 -0.4096,6.13662 -2.20622,16.0397c-1.12121,6.18021 -4.16183,8.92466 -10.01942,14.66081c-5.85759,5.73616 -9.05378,9.25275 -13.01359,9.32173c-3.81077,0.06639 -8.93565,-5.1002 -13.93542,-10.38244c-5.32393,-5.62474 -8.87489,-8.47713 -9.71551,-15.13975c-0.75707,-6.00039 -0.77653,-9.90853 -1.12266,-15.24835c-0.25298,-3.90273 -2.26119,-6.44504 -2.57636,-10.42801z" fill="#ffffff" stroke="#000000" stroke-width="1.5" stroke-linecap="butt"/><path d="M260.6393,102.05668c0,0 1.52429,0.31807 4.2558,1.11029c2.49492,0.72361 4.44935,1.74403 4.44935,1.74403l0.1951,1.17035c0,0 -7.24963,-3.12997 -15.1158,-2.4706c-6.2896,0.52724 -9.96319,2.8124 -9.96319,2.8124l0.04575,-4.17683c0,0 3.12748,-1.70421 7.86366,-1.85557c4.90428,-0.15672 8.09084,0.59125 8.09084,0.59125z" data-paper-data="{&quot;index&quot;:null}" fill="#000000" stroke="none" stroke-width="1.5" stroke-linecap="butt"/><path d="M247.87517,145.04423c0.5704,0.21186 3.08357,1.39942 6.02385,2.59586c2.9637,1.20597 7.21362,2.29294 7.19412,2.4605c-0.02476,0.21265 -10.43477,0.22694 -13.67937,0.63224c-2.71902,0.33964 -6.68867,0.70564 -6.68867,0.70564c0,0 -7.10401,-1.16169 -13.27235,-2.44521c-4.94371,-1.02869 -10.39929,-1.66108 -10.40995,-1.75461c-0.01439,-0.12613 3.86835,-0.71071 6.82417,-1.39467c1.14585,-0.49661 5.43971,-1.48513 5.43971,-1.48513c0,0 4.95585,-0.27766 7.60826,0.579c2.84203,0.91791 2.83546,2.44556 3.0831,2.46906c0,0 1.18436,-1.74932 2.36886,-2.10461c1.18451,-0.35528 5.08219,-0.41633 5.50828,-0.25808z" fill="#ffffff" stroke="#000000" stroke-width="1.4" stroke-linecap="butt"/><path d="M229.22718,149.59782c5.09114,1.02674 11.91756,2.80736 11.91756,2.80736c0,0 5.78976,-1.55585 8.44678,-1.8344c2.05992,-0.21596 11.216,-0.70654 11.26026,-0.33377c0.04328,0.36447 -9.03119,12.90033 -21.14808,12.44714c-13.76954,-0.43578 -22.86459,-15.13559 -22.82675,-15.30472c0.03784,-0.16913 7.2591,1.19165 12.35024,2.2184z" fill="#ffffff" stroke="#000000" stroke-width="1.9" stroke-linecap="butt"/><path d="M240.20144,146.60414c-1.03376,0 -3.5381,-3.26042 -3.7867,-5.3637c-0.22243,-1.88186 1.31512,-3.82799 3.7867,-3.82799c2.47159,0 4.2021,0.49077 4.02999,4.18853c-0.14607,3.13818 -1.55841,5.00317 -4.02999,5.00317z" fill="#ffffff" stroke="#000000" stroke-width="1.15" stroke-linecap="butt"/><path d="M243.80355,116.51042c0,0 0.1026,3.96976 0.00576,7.12662c-0.19174,6.25113 -1.08147,27.7607 -1.08147,27.7607l-2.98167,0.00864c0,0 -0.80294,-4.17274 -1.12322,-9.49979c-0.43353,-7.21063 -0.4495,-16.29321 -0.76344,-19.63229c-0.29758,-3.16513 -0.89593,-5.71453 -0.89593,-5.71453" fill="#ffffff" stroke="#000000" stroke-width="1.3" stroke-linecap="round"/><path d="M214.26894,127.30026c0,0 -4.93211,-3.51705 -6.16417,-8.97502c-1.29636,-5.74284 -1.46118,-9.7328 0.48013,-9.99193c1.94131,-0.25915 2.70321,2.37692 3.73262,8.35569c1.0294,5.97877 1.95143,10.61127 1.95143,10.61127z" data-paper-data="{&quot;index&quot;:null}" fill="#ffffff" stroke="#000000" stroke-width="1" stroke-linecap="butt"/><path d="M214.06635,123.3527c0,0 -3.56385,-2.92338 -4.31816,-8.45061c-0.42079,-3.08327 2.15675,-2.28016 2.15675,-2.28016" fill="none" stroke="#000000" stroke-width="0.25" stroke-linecap="round"/><path d="M220.54117,106.15296c0,0 3.36963,-1.819 8.03244,-2.28178c5.16698,-0.51283 7.76823,-0.06628 7.76823,-0.06628l0.29508,4.13747c0,0 -3.83554,-0.68065 -8.01795,-0.52113c-5.59346,0.21333 -6.64488,1.43293 -10.89774,1.89119c-3.64408,0.39266 -6.73723,0.15884 -6.73723,0.15884l-0.02589,-1.23155c0,0 3.59517,0.07398 5.23371,-0.06836c1.35239,-0.11749 3.9757,-0.93808 3.9757,-0.93808z" fill="#000000" stroke="none" stroke-width="1.5" stroke-linecap="butt"/><path d="M268.5021,116.68899c1.0294,-5.97877 1.7913,-8.61483 3.73262,-8.35569c1.94131,0.25914 1.77649,4.24909 0.48013,9.99193c-1.23206,5.45797 -6.16417,8.97502 -6.16417,8.97502c0,0 0.92203,-4.6325 1.95143,-10.61127z" data-paper-data="{&quot;index&quot;:null}" fill="#ffffff" stroke="#000000" stroke-width="1" stroke-linecap="butt"/><path d="M268.91467,112.62193c0,0 2.57754,-0.80312 2.15675,2.28016c-0.75431,5.52723 -4.31816,8.45061 -4.31816,8.45061" data-paper-data="{&quot;index&quot;:null}" fill="none" stroke="#000000" stroke-width="0.25" stroke-linecap="round"/><path d="M218.87174,119.14392c0.27917,0 0.52271,0.15252 0.65184,0.37878c0.2172,0.12543 0.32579,0.34262 0.32579,0.34262l0.08599,0.34902c0.90612,0.78835 1.8115,0.20786 2.90242,1.21227c0.24391,0.40205 0.35885,0.91784 0.72915,1.20768c0.29362,0.22983 2.03334,-0.3706 2.495,-0.2118c1.82754,0.62864 2.91306,0.53376 5.08844,0.11088c0.80167,-0.15584 2.08591,-1.22703 2.92364,-0.61159c0.94746,0.69605 -0.03375,5.23046 -0.0323,6.25595c-0.00575,1.64923 0.06209,5.58558 -2.2022,5.80785c-1.5938,0.15645 -2.34448,-1.61374 -2.7795,-2.78637c-0.16279,-0.43883 0.08212,-1.29155 -0.38212,-1.35115c-0.68221,-0.08758 -0.59517,1.44282 -1.25465,1.63814c-1.39638,0.41357 -2.31079,-0.92565 -2.70234,-2.00195c-0.17463,-0.48002 0.0424,1.11129 -0.2814,1.50635c-0.02793,0.03408 -0.05682,0.06716 -0.08658,0.09937l0.01342,0.01073l-0.60929,0.76161c-0.13732,0.17469 -0.35055,0.28689 -0.58998,0.28689c-0.36866,0 -0.6752,-0.266 -0.73816,-0.61654l-0.1172,-0.58601c-0.07706,0.1399 -0.16797,0.26641 -0.28048,0.39052l0.13214,0.13214l-0.92042,0.92042l-0.23226,-0.23226c-0.17321,0.11903 -0.36717,0.24913 -0.58508,0.39485l-0.21974,-0.69291h-0.24325v-0.76702c0,-1.05822 -0.37106,-2.41412 -0.45946,-3.61691c-0.01714,0.02121 -0.03478,0.04197 -0.05288,0.06229l0.02149,0.01612l-0.45497,0.60663c-0.13647,0.18613 -0.35675,0.30698 -0.60524,0.30698c-0.36866,0 -0.6752,-0.266 -0.73816,-0.61653l-0.15068,-0.75339l0.00365,-0.00073l-0.00593,-0.01114c-0.43088,-2.62477 -0.16569,-5.45056 -0.16569,-8.11221c0,0 0,-0.75 0.75,-0.75c0.75,0 0.75,0.75 0.75,0.75c0,0.05678 -0.00015,0.11365 -0.00042,0.17062c0.0058,-0.00013 0.01161,-0.0002 0.01744,-0.0002z" fill="#cc1414" stroke="none" stroke-width="0.5" stroke-linecap="butt"/><path d="M261.53046,118.62158c-0.00027,-0.05697 -0.00041,-0.11384 -0.00041,-0.17062c0,0 0,-0.75 0.75,-0.75c0.75,0 0.75,0.75 0.75,0.75c0,2.66165 0.26519,5.48744 -0.16569,8.11221l-0.00593,0.01114l0.00365,0.00074l-0.15068,0.75339c-0.06296,0.35054 -0.3695,0.61653 -0.73816,0.61653c-0.24849,0 -0.46876,-0.12085 -0.60524,-0.30698l-0.45497,-0.60663l0.0215,-0.01612c-0.0181,-0.02032 -0.03573,-0.04107 -0.05288,-0.06228c-0.0884,1.20278 -0.45946,2.55868 -0.45946,3.61691v0.76702h-0.24325l-0.21975,0.69291c-0.21791,-0.14571 -0.41186,-0.27581 -0.58507,-0.39485l-0.23227,0.23227l-0.92042,-0.92042l0.13214,-0.13214c-0.11252,-0.12411 -0.20342,-0.25062 -0.28048,-0.39052l-0.1172,0.58601c-0.06296,0.35054 -0.36949,0.61654 -0.73816,0.61654c-0.23944,0 -0.45266,-0.1122 -0.58998,-0.28689l-0.60929,-0.76161l0.01342,-0.01074c-0.02976,-0.03221 -0.05865,-0.06529 -0.08659,-0.09937c-0.3238,-0.39506 -0.10677,-1.98638 -0.2814,-1.50635c-0.39155,1.07631 -1.30597,2.41552 -2.70234,2.00195c-0.65948,-0.19532 -0.57244,-1.72572 -1.25465,-1.63814c-0.46424,0.0596 -0.21933,0.91232 -0.38213,1.35114c-0.43502,1.17263 -1.1857,2.94282 -2.7795,2.78637c-2.2643,-0.22227 -2.19645,-4.15862 -2.2022,-5.80785c0.00144,-1.02549 -0.97976,-5.5599 -0.0323,-6.25595c0.83773,-0.61544 2.12197,0.45575 2.92364,0.61159c2.17539,0.42288 3.2609,0.51777 5.08844,-0.11087c0.46166,-0.1588 2.20137,0.44164 2.495,0.2118c0.37029,-0.28984 0.48524,-0.80564 0.72915,-1.20768c1.09093,-1.00441 1.99631,-0.42392 2.90242,-1.21227l0.08599,-0.34902c0,0 0.1086,-0.2172 0.32579,-0.34262c0.12913,-0.22626 0.37267,-0.37878 0.65184,-0.37878c0.00583,0 0.01164,0.00007 0.01743,0.0002z" data-paper-data="{&quot;index&quot;:null}" fill="#cc1414" stroke="none" stroke-width="0.5" stroke-linecap="butt"/><g stroke="#402b6b" stroke-width="0" stroke-linecap="butt"><path d="M264.94995,135.98556c-0.56285,2.62391 -0.30176,5.31623 -1.92133,13.91431c-1.01071,5.3658 -3.99547,7.79096 -9.73762,12.85147c-5.74215,5.06052 -8.86863,8.15632 -12.81665,8.28198c-3.79943,0.12093 -9.00047,-4.26382 -14.07875,-8.75072c-5.40753,-4.77783 -8.99861,-7.18655 -9.95287,-12.93705c-0.85942,-5.17892 -0.9468,-8.55992 -1.38489,-13.17416c-0.32019,-3.37243 50.45495,-2.80974 49.89211,-0.18582z" fill="#6712b1"/><path d="M263.02862,149.89987c-1.01071,5.3658 -3.99547,7.79096 -9.73762,12.85147c-5.74215,5.06052 -8.86863,8.15632 -12.81665,8.28198c-3.79943,0.12093 -9.00047,-4.26382 -14.07875,-8.75072c-1.68723,-1.49076 10.69085,-3.88193 15.83948,-7.74194c11.35258,-8.5112 23.10209,-20.36031 22.71487,-18.55509c0,0 -0.30176,5.31622 -1.92133,13.9143z" fill="#402b6b"/></g><g stroke="#000000" stroke-width="0" stroke-linecap="butt"><g><path d="M236.66034,164.53326l-16.11299,11.5095l-17.41333,-24.37818l16.11299,-11.5095z" fill="#6712b1"/><path d="M203.17062,151.61733c1.72321,-1.23089 7.02049,3.23165 11.8318,9.96737c4.81131,6.73571 7.31472,13.19391 5.59151,14.42479c-1.72321,1.23089 -7.02049,-3.23165 -11.8318,-9.96736c-4.81131,-6.73571 -7.31472,-13.19392 -5.59151,-14.4248z" fill="#ffffff"/></g><path d="M237.27481,164.74476l-5.12046,2.95345l-23.38185,-20.16993l10.32533,-7.42877z" fill="#402b6b"/></g><g data-paper-data="{&quot;index&quot;:null}" stroke="#000000" stroke-width="0" stroke-linecap="butt"><g><path d="M262.31484,139.75542l16.11299,11.5095l-17.41333,24.37819l-16.11299,-11.5095z" fill="#6712b1"/><path d="M272.79974,165.64247c-4.81131,6.73571 -10.10859,11.19824 -11.8318,9.96736c-1.72321,-1.23089 0.7802,-7.68908 5.59151,-14.42479c4.81131,-6.73571 10.10859,-11.19825 11.8318,-9.96737c1.72321,1.23089 -0.7802,7.68909 -5.59151,14.4248z" fill="#ffffff"/></g><path d="M262.46404,139.69985l10.32533,7.42877l-23.38186,20.16994l-5.12046,-2.95346z" fill="#402b6b"/></g><path d="M217.07975,116.6968c0.07093,-4.89188 4.83834,-8.93609 10.21137,-8.8582c5.37302,0.0779 9.02724,4.2484 8.95632,9.14029c-0.07093,4.89188 -4.12352,8.79439 -9.49655,8.7165c-5.37302,-0.0779 -9.74207,-4.1067 -9.67114,-8.99859z" fill="url(#color-1)" stroke="#000000" stroke-width="1.4" stroke-linecap="butt"/><path d="M244.13602,116.69753c0.20353,-4.88817 4.45264,-8.85847 9.77048,-8.85847c5.31783,0 9.27453,3.96607 9.27453,8.85847c0,4.8924 -3.88585,9.07104 -9.69964,9.14188c-5.52997,0.06739 -9.55792,-4.03692 -9.34537,-9.14188z" fill="url(#color-2)" stroke="#000000" stroke-width="1.4" stroke-linecap="butt"/><path d="M223.10105,116.82719c0,-1.91526 1.55263,-3.46789 3.46789,-3.46789c1.91526,0 3.46789,1.55263 3.46789,3.46789c0,1.91526 -1.55263,3.46789 -3.46789,3.46789c-1.91526,0 -3.46789,-1.55263 -3.46789,-3.46789z" fill="#000000" stroke="#ffffff" stroke-width="0" stroke-linecap="butt"/><path d="M250.43663,116.77229c0,-1.91527 1.55263,-3.46789 3.46789,-3.46789c1.91527,0 3.46789,1.55262 3.46789,3.46789c0,1.91527 -1.55263,3.46789 -3.46789,3.46789c-1.91527,0 -3.46789,-1.55263 -3.46789,-3.46789z" fill="#000000" stroke="#ffffff" stroke-width="0" stroke-linecap="butt"/><path d="M216.78754,116.39036c0,0 0.06357,-9.01512 10.60111,-8.8249c9.47101,0.16586 9.55554,9.40723 9.55554,9.40723c0,0 -3.5555,-4.63425 -10.39814,-4.68624c-6.23678,-0.04739 -9.75851,4.10391 -9.75851,4.10391z" fill="#402b6b" stroke="#000000" stroke-width="1.15" stroke-linecap="butt"/><path d="M244.25644,116.13553c0,0 0.06357,-9.01512 10.60111,-8.8249c9.47101,0.16586 9.55554,9.40723 9.55554,9.40723c0,0 -3.5555,-4.63425 -10.39814,-4.68624c-6.23678,-0.04739 -9.75851,4.10391 -9.75851,4.10391z" fill="#402b6b" stroke="#000000" stroke-width="1.15" stroke-linecap="butt"/></g></g></svg>