<svg version="1.1" xmlns="http://www.w3.org/2000/svg" xmlns:xlink="http://www.w3.org/1999/xlink" width="674.06037" height="470.70994" viewBox="0,0,674.06037,470.70994"><defs><radialGradient cx="240.00004" cy="114.90985" r="251.08029" gradientUnits="userSpaceOnUse" id="color-1"><stop offset="0" stop-color="#717171"/><stop offset="1" stop-color="#000000"/></radialGradient><radialGradient cx="88.57753" cy="138.88408" r="12.4376" gradientUnits="userSpaceOnUse" id="color-2"><stop offset="0" stop-color="#ffffff"/><stop offset="1" stop-color="#da7f7f"/></radialGradient><radialGradient cx="123.60195" cy="138.97833" r="12.362" gradientUnits="userSpaceOnUse" id="color-3"><stop offset="0" stop-color="#ffffff"/><stop offset="1" stop-color="#da7f7f"/></radialGradient><linearGradient x1="373.47583" y1="208.6291" x2="373.47583" y2="391.78333" gradientUnits="userSpaceOnUse" id="color-4"><stop offset="0" stop-color="#b57e0c"/><stop offset="1" stop-color="#443e31"/></linearGradient><radialGradient cx="339.00236" cy="242.68746" r="19.72904" gradientUnits="userSpaceOnUse" id="color-5"><stop offset="0" stop-color="#cc1414"/><stop offset="1" stop-color="#da7f7f"/></radialGradient><radialGradient cx="404.08548" cy="242.97326" r="19.72903" gradientUnits="userSpaceOnUse" id="color-6"><stop offset="0" stop-color="#cc1414"/><stop offset="1" stop-color="#da7f7f"/></radialGradient><radialGradient cx="403.85871" cy="242.97326" r="19.72904" gradientUnits="userSpaceOnUse" id="color-7"><stop offset="0" stop-color="#cc1414"/><stop offset="1" stop-color="#da7f7f"/></radialGradient><radialGradient cx="372.88708" cy="178.9291" r="13.14679" gradientUnits="userSpaceOnUse" id="color-8"><stop offset="0" stop-color="#cc1414"/><stop offset="1" stop-color="#da7f7f"/></radialGradient><linearGradient x1="348.39417" y1="153.89903" x2="348.39417" y2="199.8175" gradientUnits="userSpaceOnUse" id="color-9"><stop offset="0" stop-color="#ffffff"/><stop offset="1" stop-color="#f7dfaf"/></linearGradient><linearGradient x1="365.92322" y1="152.75583" x2="365.92322" y2="201.34178" gradientUnits="userSpaceOnUse" id="color-10"><stop offset="0" stop-color="#ffffff"/><stop offset="1" stop-color="#f7dfaf"/></linearGradient><linearGradient x1="380.78481" y1="150.8505" x2="380.78481" y2="201.72284" gradientUnits="userSpaceOnUse" id="color-11"><stop offset="0" stop-color="#ffffff"/><stop offset="1" stop-color="#f7dfaf"/></linearGradient><linearGradient x1="396.21795" y1="150.2789" x2="396.21795" y2="202.1039" gradientUnits="userSpaceOnUse" id="color-12"><stop offset="0" stop-color="#ffffff"/><stop offset="1" stop-color="#f7dfaf"/></linearGradient><linearGradient x1="375.00679" y1="133.94968" x2="375.00679" y2="161.22061" gradientUnits="userSpaceOnUse" id="color-13"><stop offset="0" stop-color="#000000"/><stop offset="1" stop-color="#f7aa11"/></linearGradient><linearGradient x1="374.77815" y1="194.99104" x2="374.77815" y2="210.4841" gradientUnits="userSpaceOnUse" id="color-14"><stop offset="0" stop-color="#f7aa11"/><stop offset="1" stop-color="#000000"/></linearGradient><radialGradient cx="236.39583" cy="307.62156" r="40.27833" gradientUnits="userSpaceOnUse" id="color-15"><stop offset="0" stop-color="#da7f7f"/><stop offset="1" stop-color="#da7f7f" stop-opacity="0"/></radialGradient><radialGradient cx="237.27025" cy="316.18754" r="46.54864" gradientUnits="userSpaceOnUse" id="color-16"><stop offset="0" stop-color="#da7f7f"/><stop offset="1" stop-color="#da7f7f" stop-opacity="0"/></radialGradient><radialGradient cx="256.46873" cy="105.56731" r="14.57791" gradientUnits="userSpaceOnUse" id="color-17"><stop offset="0" stop-color="#ff0000"/><stop offset="1" stop-color="#da7f7f"/></radialGradient><linearGradient x1="9.7976" y1="-38.79528" x2="9.7976" y2="374.76705" gradientUnits="userSpaceOnUse" id="color-18"><stop offset="0" stop-color="#000000"/><stop offset="1" stop-color="#000000" stop-opacity="0"/></linearGradient><linearGradient x1="418.82858" y1="393.04651" x2="418.82858" y2="-20.51582" gradientUnits="userSpaceOnUse" id="color-19"><stop offset="0" stop-color="#000000" stop-opacity="0"/><stop offset="1" stop-color="#000000"/></linearGradient><radialGradient cx="240" cy="180" r="276.42733" gradientUnits="userSpaceOnUse" id="color-20"><stop offset="0" stop-color="#000000" stop-opacity="0"/><stop offset="1" stop-color="#000000"/></radialGradient></defs><g transform="translate(122.71709,38.79528)"><g data-paper-data="{&quot;isPaintingLayer&quot;:true}" fill-rule="nonzero" stroke-linejoin="miter" stroke-miterlimit="10" stroke-dasharray="" stroke-dashoffset="0" style="mix-blend-mode: normal"><path d="M-13.0566,375.015v-387.02701h504.61175v387.02703z" data-paper-data="{&quot;index&quot;:null}" fill="url(#color-1)" stroke="none" stroke-width="NaN" stroke-linecap="butt"/><g><path d="M48.50604,124.72476c0,0 7.99774,-7.68446 8.16425,-8.80788c0.43671,-2.94646 -0.21769,-52.13034 46.67322,-53.94788c57.92192,-1.18555 50.62731,45.86994 53.89216,54.74785c4.47661,12.17296 7.98911,22.57916 7.98911,22.57916c0,0 -3.59077,-2.66472 -5.29399,-4.06677c-1.58857,-1.30767 -4.93289,-4.08218 -4.93289,-4.08218c0,0 4.01115,13.42812 1.7011,26.85465c-2.0273,12.30291 -9.46995,22.35242 -9.46995,22.35242l-1.49906,-3.04602c0,0 -1.32705,2.85214 -2.80297,4.3247c-1.47594,1.47255 -4.46224,3.77968 -4.46224,3.77968l-0.11945,-4.80673c0,0 -9.16147,14.29734 -31.59841,14.10735c-21.15965,-0.33151 -33.83145,-13.85257 -33.83145,-13.85257l-0.15079,3.44503c0,0 -5.05401,-4.27282 -8.0213,-12.5969c-3.53666,-9.92133 -4.20366,-15.88733 -4.20366,-15.88733c0,0 -3.03529,2.46443 -7.41866,3.60017c-5.49263,1.42316 -9.01426,0.44802 -9.01426,0.44802c0,0 4.68182,-3.52591 7.24597,-6.1896c2.28394,-2.37261 3.43431,-4.38242 3.43431,-4.38242c0,0 -2.73488,1.40755 -5.49261,2.09952c-2.87738,0.72201 -5.2296,0.68896 -5.2296,0.68896c0,0 6.45566,-6.53658 9.12337,-14.11092c2.51875,-7.1514 2.72468,-14.21865 2.72468,-14.21865c0,0 -1.76693,0.85856 -4.32131,1.03179c-1.61914,0.10982 -3.0856,-0.06345 -3.0856,-0.06345z" fill="#000000" stroke="none" stroke-width="1.5" stroke-linecap="butt"/><g stroke-linecap="butt"><path d="M55.12854,384.91666c0,0 -0.82447,-122.47636 -1.02948,-153.1372c-0.07073,-10.57916 10.62363,-47.70295 52.16777,-47.91032c41.0085,-0.2047 51.71971,38.26359 51.70948,47.8787c-0.09939,60.00647 0.84903,153.10407 0.84903,153.10407l-13.62091,0.12476l-0.20609,-149.0251c0,0 0.09796,-4.02178 -3.65448,-4.09295c-4.45663,-0.08453 -3.82205,4.04296 -3.82205,4.04296l0.26664,149.05993l-62.56401,0.09372l-0.39629,-149.53116c0,0 0.36268,-3.78781 -3.74447,-3.80784c-4.03674,-0.01966 -3.65375,3.77482 -3.65375,3.77482l0.45821,149.31537z" fill="#ffffff" stroke="#000000" stroke-width="2"/><path d="M125.97605,249.88699c-0.74112,0 -1.3419,-0.60079 -1.3419,-1.3419c0,-0.74112 0.60079,-1.34193 1.3419,-1.34193c0.74112,0 1.3419,0.60081 1.3419,1.34193c0,0.74112 -0.60079,1.3419 -1.3419,1.3419z" fill="#000000" stroke="none" stroke-width="1.5"/><path d="M119.15063,255.38326c-5.79202,-0.40797 -8.50273,-2.32786 -8.00625,-3.34806c0.15297,-0.31434 3.69367,1.38011 9.04505,1.69316c8.31654,0.48652 11.04335,-0.81976 11.04335,-0.81976v1.74683c0,0 -3.13186,1.35827 -12.08215,0.72783z" fill="#000000" stroke="#000000" stroke-width="0"/><path d="M83.05967,248.54509c0,-0.74112 0.60079,-1.34193 1.3419,-1.34193c0.74112,0 1.34193,0.60081 1.34193,1.34193c0,0.74112 -0.60081,1.3419 -1.34193,1.3419c-0.74112,0 -1.3419,-0.60079 -1.3419,-1.3419z" fill="#000000" stroke="none" stroke-width="1.5"/><path d="M91.22699,255.38326c-8.9503,0.63046 -12.08215,-0.72783 -12.08215,-0.72783v-1.74683c0,0 2.72681,1.30628 11.04335,0.81976c5.35138,-0.31307 8.8921,-2.0075 9.04506,-1.69316c0.49648,1.02018 -2.21422,2.94008 -8.00625,3.34806z" fill="#000000" stroke="#000000" stroke-width="0"/><path d="M105.86497,328.76715c-1.0627,0 -1.92419,-0.86149 -1.92419,-1.92419c0,-1.0627 0.86149,-1.92419 1.92419,-1.92419c1.0627,0 1.92419,0.86149 1.92419,1.92419c0,1.0627 -0.86149,1.92419 -1.92419,1.92419z" data-paper-data="{&quot;index&quot;:null}" fill="#000000" stroke="none" stroke-width="1.5"/><g stroke="#000000" stroke-width="0"><path d="M48.4296,387.82716v-131.65446l23.60192,24.33948v107.31497z" data-paper-data="{&quot;index&quot;:null}" fill="#a10000"/><path d="M48.4296,387.82716v-51.13608l23.60192,-11.59787v62.73395z" data-paper-data="{&quot;index&quot;:null}" fill="#cc1414"/></g><g data-paper-data="{&quot;index&quot;:null}" stroke="#000000" stroke-width="0"><path d="M140.84354,389.52123v-107.31497l23.60192,-24.33947v131.65446z" data-paper-data="{&quot;index&quot;:null}" fill="#a10000"/><path d="M140.84354,389.52123v-62.73396l23.60192,11.59787v51.13608z" data-paper-data="{&quot;index&quot;:null}" fill="#cc1414"/></g><g stroke="none" stroke-width="0"><path d="M137.59505,205.13013c0,10.01058 -15.09071,50.11243 -32.91001,50.11243c-17.81932,0 -31.61943,-40.10185 -31.61943,-50.11243c0,-10.01058 14.44542,-18.12577 32.26472,-18.12577c17.81932,0 32.26472,8.11517 32.26472,18.12577z" fill="#a10000"/><path d="M137.77434,193.35193c0,10.01058 -15.09071,50.11242 -32.91003,50.11242c-17.81932,0 -31.61943,-40.10184 -31.61943,-50.11242c0,-10.01058 14.44542,-18.12577 32.26473,-18.12577c17.81932,0 32.26472,8.11519 32.26472,18.12578z" fill="#cc1414"/><path d="M128.88592,191.35053c0,6.70586 -10.54621,12.14202 -23.55563,12.14202c-13.00941,0 -23.55563,-5.43617 -23.55563,-12.14202c0,-6.70586 10.54623,-12.14204 23.55563,-12.14204c13.00941,0 23.55563,5.43618 23.55563,12.14204z" fill="#000000"/></g><path d="M73.16484,388.35975v-172.95782h66.74918v172.95782z" fill="#402b6b" stroke="none" stroke-width="0"/><g stroke="none" stroke-width="0"><path d="M31.6599,196.91767l74.7972,30.5904l77.37866,-29.4457l-77.37866,50.5551z" fill="#9966ff"/><path d="M30.33462,196.32387l76.27231,23.95117l80.32891,-23.95117l-80.32891,45.06056z" fill="#5500ff"/></g></g><path d="M70.2881,139.41616c-0.74886,-9.46399 0.43471,-22.26035 0.43471,-22.26035c0,0 4.42572,-0.05351 18.05575,-4.08009c10.47144,-3.0935 26.66303,-12.311 26.66303,-12.311c0,0 -2.80297,3.89945 -4.42211,5.78767c-1.72133,2.0074 -5.18138,5.9211 -5.18138,5.9211c0,0 10.17091,-2.16396 19.04257,-6.13695c11.11867,-4.58813 13.74529,-7.85474 16.80499,-5.95967c3.6112,2.23664 1.33665,30.08282 0.9323,37.295c-0.54712,7.35661 -3.28727,12.32719 -4.08797,16.24715c-0.8007,3.91997 -0.53151,7.96313 -2.86288,20.81377c-1.45493,8.01969 -5.40056,11.581 -13.00161,19.02446c-7.60105,7.44348 -11.74855,12.00675 -16.88697,12.09626c-4.94501,0.08615 -11.59526,-6.61823 -18.08317,-13.47268c-6.90855,-7.29889 -11.51642,-11.00027 -12.60724,-19.64596c-0.9824,-7.78635 -1.00766,-12.85771 -1.45681,-19.78688c-0.32828,-5.06434 -2.93421,-8.36335 -3.34319,-13.53181z" fill="#ffffff" stroke="#000000" stroke-width="1.5" stroke-linecap="butt"/><path d="M132.6657,119.79536c0,0 1.97798,0.41274 5.5225,1.44076c3.23751,0.93899 5.77366,2.26312 5.77366,2.26312l0.25317,1.51869c0,0 -9.40742,-4.06158 -19.61488,-3.20595c-8.16164,0.68417 -12.92864,3.64948 -12.92864,3.64948l0.05937,-5.42002c0,0 4.05835,-2.21145 10.20421,-2.40786c6.36399,-0.20337 10.499,0.76723 10.499,0.76723z" data-paper-data="{&quot;index&quot;:null}" fill="#000000" stroke="none" stroke-width="1.5" stroke-linecap="butt"/><path d="M116.10244,175.57776c0.74017,0.27492 4.00137,1.81594 7.81679,3.36849c3.84582,1.56492 9.36069,2.97541 9.33538,3.19285c-0.03213,0.27594 -13.54058,0.29449 -17.75091,0.82042c-3.52831,0.44073 -8.67949,0.91567 -8.67949,0.91567c0,0 -9.21845,-1.50746 -17.22274,-3.173c-6.41516,-1.33487 -13.49454,-2.15549 -13.50838,-2.27685c-0.01867,-0.16367 5.01973,-0.92225 8.85532,-1.80978c1.4869,-0.64442 7.05879,-1.92717 7.05879,-1.92717c0,0 6.43091,-0.3603 9.87279,0.75133c3.68793,1.19112 3.67941,3.17346 4.00076,3.20395c0,0 1.53687,-2.26999 3.07393,-2.73103c1.53707,-0.46103 6.59486,-0.54025 7.14777,-0.3349z" fill="#ffffff" stroke="#000000" stroke-width="1.4" stroke-linecap="butt"/><path d="M91.90405,181.48668c6.60647,1.33234 15.46471,3.64294 15.46471,3.64294c0,0 7.51303,-2.01893 10.96089,-2.38039c2.67304,-0.28024 14.55434,-0.91684 14.61177,-0.43311c0.05616,0.47295 -11.71924,16.73999 -27.44261,16.15192c-17.86792,-0.56549 -29.67002,-19.64056 -29.62092,-19.86003c0.0491,-0.21947 9.4197,1.54633 16.02618,2.87869z" fill="#ffffff" stroke="#000000" stroke-width="1.9" stroke-linecap="butt"/><path d="M106.14469,177.60196c-1.34145,0 -4.59118,-4.23085 -4.91378,-6.96016c-0.28863,-2.44198 1.70655,-4.96736 4.91378,-4.96736c3.20724,0 5.45282,0.63684 5.22948,5.43521c-0.18955,4.07223 -2.02226,6.49232 -5.22948,6.49232z" fill="#ffffff" stroke="#000000" stroke-width="1.15" stroke-linecap="butt"/><path d="M110.81894,138.55112c0,0 0.13314,5.15132 0.00747,9.24779c-0.24881,8.11172 -1.40336,36.02342 -1.40336,36.02342l-3.86914,0.01121c0,0 -1.04193,-5.41472 -1.45754,-12.32731c-0.56257,-9.35681 -0.58329,-21.14273 -0.99067,-25.47566c-0.38615,-4.1072 -1.1626,-7.41541 -1.1626,-7.41541" fill="#ffffff" stroke="#000000" stroke-width="1.3" stroke-linecap="round"/><path d="M72.49363,152.55246c0,0 -6.40011,-4.56387 -7.99888,-11.64635c-1.68221,-7.45214 -1.89609,-12.62968 0.62304,-12.96594c2.51912,-0.33628 3.5078,3.08439 4.8436,10.84268c1.33579,7.7583 2.53226,13.76962 2.53226,13.76962z" data-paper-data="{&quot;index&quot;:null}" fill="#ffffff" stroke="#000000" stroke-width="1" stroke-linecap="butt"/><path d="M72.23073,147.42994c0,0 -4.6246,-3.7935 -5.60342,-10.96586c-0.54603,-4.00098 2.79869,-2.95883 2.79869,-2.95883" fill="none" stroke="#000000" stroke-width="0.25" stroke-linecap="round"/><path d="M80.63272,125.11086c0,0 4.37257,-2.36041 10.42322,-2.96093c6.70488,-0.66547 10.08037,-0.08601 10.08037,-0.08601l0.38291,5.36895c0,0 -4.97715,-0.88324 -10.40442,-0.67624c-7.2583,0.27683 -8.62267,1.85943 -14.14135,2.45409c-4.72871,0.50953 -8.7425,0.20612 -8.7425,0.20612l-0.0336,-1.59811c0,0 4.66524,0.096 6.79148,-0.08871c1.75492,-0.15246 5.15903,-1.21729 5.15903,-1.21729z" fill="#000000" stroke="none" stroke-width="1.5" stroke-linecap="butt"/><path d="M142.86878,138.78284c1.33579,-7.7583 2.32446,-11.17895 4.8436,-10.84268c2.51912,0.33627 2.30525,5.51379 0.62304,12.96594c-1.59877,7.08248 -7.99888,11.64635 -7.99888,11.64635c0,0 1.19646,-6.01132 2.53226,-13.76962z" data-paper-data="{&quot;index&quot;:null}" fill="#ffffff" stroke="#000000" stroke-width="1" stroke-linecap="butt"/><path d="M143.40415,133.50526c0,0 3.34472,-1.04216 2.79869,2.95883c-0.97882,7.17236 -5.60342,10.96586 -5.60342,10.96586" data-paper-data="{&quot;index&quot;:null}" fill="none" stroke="#000000" stroke-width="0.25" stroke-linecap="round"/><path d="M78.4664,141.96846c0.36226,0 0.67829,0.19792 0.84585,0.49152c0.28185,0.16276 0.42276,0.4446 0.42276,0.4446l0.11158,0.4529c1.17582,1.023 2.35068,0.26973 3.7663,1.57309c0.31651,0.52172 0.46566,1.19103 0.94617,1.56713c0.38101,0.29824 2.63854,-0.48091 3.23761,-0.27484c2.37149,0.81575 3.78011,0.69263 6.60297,0.14388c1.04028,-0.20222 2.70676,-1.59224 3.79383,-0.79362c1.22946,0.90322 -0.0438,6.78726 -0.04191,8.11798c-0.00746,2.14011 0.08057,7.24808 -2.85766,7.5365c-2.06818,0.20302 -3.04229,-2.09405 -3.60679,-3.61571c-0.21124,-0.56944 0.10656,-1.67597 -0.49585,-1.75331c-0.88526,-0.11365 -0.77232,1.87226 -1.62809,2.12572c-1.812,0.53667 -2.99858,-1.20116 -3.50667,-2.59781c-0.22661,-0.62289 0.05502,1.44206 -0.36516,1.9547c-0.03624,0.04422 -0.07373,0.08715 -0.11235,0.12895l0.01741,0.01392l-0.79064,0.9883c-0.17819,0.22668 -0.45489,0.37228 -0.76558,0.37228c-0.47839,0 -0.87617,-0.34517 -0.95787,-0.80005l-0.15208,-0.76043c-0.1,0.18154 -0.21796,0.3457 -0.36396,0.50675l0.17147,0.17147l-1.19437,1.19437l-0.30139,-0.30139c-0.22476,0.15446 -0.47645,0.32328 -0.75922,0.51237l-0.28514,-0.89915h-0.31565v-0.99532c0,-1.37319 -0.4815,-3.13266 -0.59621,-4.69345c-0.02224,0.02752 -0.04513,0.05446 -0.06862,0.08083l0.02789,0.02092l-0.59039,0.78719c-0.17709,0.24153 -0.46293,0.39835 -0.78538,0.39835c-0.47839,0 -0.87617,-0.34517 -0.95787,-0.80003l-0.19553,-0.97763l0.00474,-0.00095l-0.0077,-0.01446c-0.55913,-3.40601 -0.21501,-7.07287 -0.21501,-10.52673c0,0 0,-0.97323 0.97323,-0.97323c0.97323,0 0.97323,0.97323 0.97323,0.97323c0,0.07368 -0.00019,0.14748 -0.00055,0.2214c0.00753,-0.00017 0.01507,-0.00026 0.02263,-0.00026z" fill="#cc1414" stroke="none" stroke-width="0.5" stroke-linecap="butt"/><path d="M133.82209,141.29065c-0.00035,-0.07393 -0.00053,-0.14772 -0.00053,-0.2214c0,0 0,-0.97323 0.97323,-0.97323c0.97323,0 0.97323,0.97323 0.97323,0.97323c0,3.45387 0.34412,7.12073 -0.21501,10.52673l-0.0077,0.01446l0.00474,0.00096l-0.19553,0.97763c-0.0817,0.45487 -0.47948,0.80003 -0.95787,0.80003c-0.32245,0 -0.60828,-0.15682 -0.78538,-0.39835l-0.59039,-0.78719l0.0279,-0.02092c-0.02349,-0.02637 -0.04636,-0.05329 -0.06862,-0.08082c-0.11471,1.56078 -0.59621,3.32025 -0.59621,4.69345v0.99532h-0.31565l-0.28516,0.89915c-0.28277,-0.18908 -0.53445,-0.3579 -0.75921,-0.51237l-0.3014,0.3014l-1.19437,-1.19437l0.17147,-0.17147c-0.14601,-0.16105 -0.26397,-0.32521 -0.36396,-0.50675l-0.15208,0.76043c-0.0817,0.45487 -0.47947,0.80005 -0.95787,0.80005c-0.31071,0 -0.58739,-0.1456 -0.76558,-0.37228l-0.79064,-0.9883l0.01741,-0.01394c-0.03862,-0.0418 -0.07611,-0.08472 -0.11236,-0.12895c-0.42018,-0.51265 -0.13855,-2.57761 -0.36516,-1.9547c-0.50809,1.39666 -1.69468,3.13448 -3.50667,2.59781c-0.85577,-0.25346 -0.74282,-2.23936 -1.62809,-2.12572c-0.60242,0.07734 -0.28461,1.18386 -0.49587,1.75329c-0.5645,1.52165 -1.53861,3.81872 -3.60679,3.61571c-2.93825,-0.28843 -2.8502,-5.39639 -2.85766,-7.5365c0.00187,-1.33072 -1.27138,-7.21475 -0.04191,-8.11798c1.08707,-0.79862 2.75355,0.5914 3.79383,0.79362c2.82287,0.54875 4.23148,0.67188 6.60297,-0.14387c0.59907,-0.20607 2.85659,0.57309 3.23761,0.27484c0.4805,-0.37611 0.62967,-1.04543 0.94617,-1.56713c1.41564,-1.30336 2.59049,-0.5501 3.7663,-1.57309l0.11158,-0.4529c0,0 0.14092,-0.28185 0.42276,-0.4446c0.16756,-0.2936 0.48359,-0.49152 0.84585,-0.49152c0.00757,0 0.0151,0.00009 0.02262,0.00026z" data-paper-data="{&quot;index&quot;:null}" fill="#cc1414" stroke="none" stroke-width="0.5" stroke-linecap="butt"/><g stroke="#402b6b" stroke-width="0" stroke-linecap="butt"><path d="M138.25937,163.82286c-0.73038,3.40489 -0.39158,6.89856 -2.4932,18.05578c-1.31154,6.96288 -5.18468,10.10987 -12.63593,16.67659c-7.45125,6.56674 -11.5083,10.58397 -16.63141,10.74703c-4.9303,0.15692 -11.67938,-5.53291 -18.26916,-11.35529c-7.01703,-6.19991 -11.67696,-9.32556 -12.91525,-16.78764c-1.11522,-6.72038 -1.22861,-11.1077 -1.79709,-17.09533c-0.41549,-4.3762 65.4724,-3.64603 64.74204,-0.24113z" fill="#6712b1"/><path d="M135.76617,181.87863c-1.31154,6.96288 -5.18468,10.10987 -12.63593,16.67659c-7.45125,6.56674 -11.5083,10.58397 -16.63141,10.74703c-4.9303,0.15692 -11.67938,-5.53291 -18.26916,-11.35529c-2.18942,-1.93447 13.87288,-5.03735 20.55396,-10.04626c14.73157,-11.04448 29.97821,-26.42037 29.47574,-24.07784c0,0 -0.39158,6.89854 -2.4932,18.05576z" fill="#402b6b"/></g><g stroke="#000000" stroke-width="0" stroke-linecap="butt"><g><path d="M101.54963,200.86752l-20.90887,14.9352l-22.59625,-31.63412l20.90887,-14.9352z" fill="#6712b1"/><path d="M58.092,184.10728c2.23611,-1.59725 9.11007,4.19352 15.35343,12.93407c6.24335,8.74053 9.49188,17.12096 7.25577,18.7182c-2.23611,1.59725 -9.11007,-4.19352 -15.35343,-12.93405c-6.24335,-8.74053 -9.49188,-17.12097 -7.25577,-18.71821z" fill="#ffffff"/></g><path d="M102.34698,201.14197l-6.64452,3.83252l-30.34124,-26.17332l13.39857,-9.63987z" fill="#402b6b"/></g><g data-paper-data="{&quot;index&quot;:null}" stroke="#000000" stroke-width="0" stroke-linecap="butt"><g><path d="M134.83995,168.71478l20.90887,14.9352l-22.59625,31.63413l-20.90887,-14.9352z" fill="#6712b1"/><path d="M148.44556,202.30687c-6.24335,8.74053 -13.11732,14.53129 -15.35343,12.93405c-2.23611,-1.59725 1.01242,-9.97766 7.25577,-18.7182c6.24335,-8.74053 13.11732,-14.53131 15.35343,-12.93407c2.23611,1.59725 -1.01242,9.97768 -7.25577,18.71821z" fill="#ffffff"/></g><path d="M135.03355,168.64267l13.39857,9.63987l-30.34126,26.17334l-6.64452,-3.83253z" fill="#402b6b"/></g><path d="M76.14104,138.79298c0.09204,-6.3479 6.27843,-11.59583 13.25069,-11.49476c6.97225,0.10109 11.71411,5.5129 11.62209,11.86081c-0.09204,6.3479 -5.35085,11.41196 -12.32311,11.31089c-6.97225,-0.10109 -12.64171,-5.32902 -12.54967,-11.67694z" fill="url(#color-2)" stroke="#000000" stroke-width="1.4" stroke-linecap="butt"/><path d="M111.25036,138.79392c0.26411,-6.34309 5.77793,-11.49511 12.67857,-11.49511c6.90063,0 12.03501,5.14653 12.03501,11.49511c0,6.34858 -5.04244,11.77095 -12.58665,11.86288c-7.17591,0.08745 -12.40275,-5.23847 -12.12693,-11.86288z" fill="url(#color-3)" stroke="#000000" stroke-width="1.4" stroke-linecap="butt"/><path d="M83.95454,138.96218c0,-2.48532 2.01476,-4.50008 4.50008,-4.50008c2.48532,0 4.50008,2.01476 4.50008,4.50008c0,2.48532 -2.01476,4.50008 -4.50008,4.50008c-2.48532,0 -4.50008,-2.01476 -4.50008,-4.50008z" fill="#000000" stroke="#ffffff" stroke-width="0" stroke-linecap="butt"/><path d="M119.42629,138.89094c0,-2.48533 2.01476,-4.50008 4.50008,-4.50008c2.48533,0 4.50008,2.01474 4.50008,4.50008c0,2.48533 -2.01476,4.50008 -4.50008,4.50008c-2.48533,0 -4.50008,-2.01476 -4.50008,-4.50008z" fill="#000000" stroke="#ffffff" stroke-width="0" stroke-linecap="butt"/><path d="M75.76187,138.39533c0,0 0.08249,-11.69839 13.75643,-11.45155c12.28997,0.21523 12.39966,12.20721 12.39966,12.20721c0,0 -4.61376,-6.01359 -13.49305,-6.08106c-8.0931,-0.0615 -12.66304,5.3254 -12.66304,5.3254z" fill="#402b6b" stroke="#000000" stroke-width="1.15" stroke-linecap="butt"/><path d="M111.40663,138.06465c0,0 0.08249,-11.69839 13.75643,-11.45155c12.28997,0.21523 12.39966,12.20721 12.39966,12.20721c0,0 -4.61376,-6.01359 -13.49305,-6.08106c-8.0931,-0.0615 -12.66304,5.3254 -12.66304,5.3254z" fill="#402b6b" stroke="#000000" stroke-width="1.15" stroke-linecap="butt"/></g><g><g stroke-linecap="butt"><path d="M342.86039,332.27848c0,2.12164 -4.88423,3.84158 -10.90924,3.84158c-6.02501,0 -10.90924,-1.71993 -10.90924,-3.84158c0,-2.12165 4.88423,-3.84159 10.90924,-3.84159c6.02501,0 10.90924,1.71994 10.90924,3.84159z" fill="#443e31" stroke="none" stroke-width="0"/><path d="M426.31387,332.85008c0,2.12164 -4.88422,3.84158 -10.90923,3.84158c-6.02501,0 -10.90924,-1.71993 -10.90924,-3.84158c0,-2.12165 4.88423,-3.84159 10.90924,-3.84159c6.02501,0 10.90923,1.71994 10.90923,3.84159z" fill="#443e31" stroke="none" stroke-width="0"/><path d="M327.86841,388.89296c0,0 -0.72634,-107.89953 -0.90695,-134.91119c-0.06232,-9.32005 9.35923,-42.02546 45.95889,-42.20816c36.12777,-0.18034 45.56415,33.70955 45.55514,42.1803c-0.08756,52.86465 0.74799,134.882 0.74799,134.882l-11.99978,0.10991l-0.18156,-131.28851c0,0 0.0863,-3.54311 -3.21954,-3.60582c-3.92622,-0.07447 -3.36715,3.56178 -3.36715,3.56178l0.2349,131.31919l-55.11779,0.08256l-0.34913,-131.73433c0,0 0.31952,-3.337 -3.29881,-3.35464c-3.55629,-0.01732 -3.21889,3.32556 -3.21889,3.32556l0.40368,131.54422z" fill="#000000" stroke="#000000" stroke-width="2"/><path d="M372.56633,339.42624c-0.93622,0 -1.69518,-0.75896 -1.69518,-1.69518c0,-0.93622 0.75896,-1.69519 1.69518,-1.69519c0.93622,0 1.69518,0.75896 1.69518,1.69519c0,0.93622 -0.75896,1.69518 -1.69518,1.69518z" data-paper-data="{&quot;index&quot;:null}" fill="#000000" stroke="none" stroke-width="1.5"/><path d="M321.01658,332.03174c0,0 3.71155,-66.03415 3.62359,-79.82c-0.0614,-9.6234 11.85028,-43.39326 47.9131,-43.5819c35.59784,-0.18621 47.89963,34.8067 47.89074,43.55314c-0.03819,24.16712 5.49107,80.86294 5.49107,80.86294c0,0 -7.57801,-1.4087 -10.99502,-1.40852c-3.39809,0.00017 -10.54152,1.18092 -10.54152,1.18092c0,0 1.86104,-80.46984 -1.3963,-80.53459c-1.56608,-0.03113 -1.27383,22.82375 -1.05157,50.04043c0.32677,40.01529 1.16622,89.45916 1.16622,89.45916l-58.65348,-0.14339c0,0 -0.19847,-46.71319 -0.5752,-86.07354c-0.27422,-28.65011 -0.37414,-53.40451 -1.87604,-53.41218c-3.50414,-0.01789 0.80579,79.87603 0.80579,79.87603c0,0 -7.48993,-1.96681 -11.23378,-1.96654c-3.5079,0.00024 -10.56761,1.96804 -10.56761,1.96804z" fill="url(#color-4)" stroke="#000000" stroke-width="0"/><path d="M390.2838,269.93419c-0.65292,0 -1.18219,-0.52929 -1.18219,-1.18219c0,-0.65292 0.52929,-1.18222 1.18219,-1.18222c0.65292,0 1.18219,0.52931 1.18219,1.18222c0,0.65292 -0.52929,1.18219 -1.18219,1.18219z" fill="#000000" stroke="none" stroke-width="1.5"/><path d="M384.27075,274.77631c-5.10267,-0.35941 -7.49075,-2.05081 -7.05336,-2.94958c0.13476,-0.27693 3.25406,1.21585 7.96853,1.49165c7.32673,0.42862 9.729,-0.72219 9.729,-0.72219v1.53893c0,0 -2.75911,1.19661 -10.64416,0.64121z" fill="#000000" stroke="#000000" stroke-width="0"/><path d="M352.47524,268.752c0,-0.65292 0.52929,-1.18222 1.18219,-1.18222c0.65292,0 1.18222,0.52931 1.18222,1.18222c0,0.65292 -0.5293,1.18219 -1.18222,1.18219c-0.65292,0 -1.18219,-0.52929 -1.18219,-1.18219z" fill="#000000" stroke="none" stroke-width="1.5"/><path d="M359.67051,274.77631c-7.88506,0.55543 -10.64417,-0.64121 -10.64417,-0.64121v-1.53893c0,0 2.40228,1.15082 9.729,0.72219c4.71447,-0.27581 7.83378,-1.76857 7.96854,-1.49164c0.43739,0.89876 -1.95068,2.59015 -7.05336,2.94957z" fill="#000000" stroke="#000000" stroke-width="0"/><g><g stroke="url(#color-5)" stroke-width="0"><path d="M363.72033,275.41153l-58.05324,-48.58594l32.65496,-16.57639l33.7888,43.72736z" fill="#a10000"/><path d="M355.32984,312.27968l-49.14664,-32.86595l-0.5161,-52.58815l66.44376,27.15097z" fill="#cc1414"/></g><g stroke-width="0"><path d="M370.97699,254.26235l33.78881,-43.72735l32.65496,16.57638l-58.05324,48.58595z" data-paper-data="{&quot;index&quot;:null}" fill="#a10000" stroke="url(#color-6)"/><path d="M370.75024,254.26235l66.44375,-27.15097l-0.5161,52.58815l-49.14664,32.86596z" data-paper-data="{&quot;index&quot;:null}" fill="#cc1414" stroke="url(#color-7)"/></g><path d="M305.97821,261.07197v-8.00239l65.39097,32.46685l65.61961,-32.46685v8.00239l-65.84825,32.46685z" fill="#000000" stroke="none" stroke-width="NaN"/><path d="M334.10092,262.55813c0,-1.57842 1.27958,-2.858 2.858,-2.858c1.57842,0 2.858,1.27957 2.858,2.858c0,1.57842 -1.27957,2.858 -2.858,2.858c-1.57842,0 -2.858,-1.27958 -2.858,-2.858z" fill="#000000" stroke="none" stroke-width="0"/></g><path d="M360.76989,294.13445l4.00119,-14.63294l13.03247,-0.45728l3.77256,13.71839z" fill="#b57e0c" stroke="#f7dfaf" stroke-width="0"/><path d="M356.04083,393.16858l16.00478,-127.75247l16.29058,127.75247z" fill="#f7aa11" stroke="#f7dfaf" stroke-width="3.5"/><path d="M362.25544,255.93633c0,-5.38921 4.36881,-9.75801 9.75802,-9.75801c5.38921,0 9.75802,4.36882 9.75802,9.75802c0,5.38921 -4.36881,9.75801 -9.75801,9.75801c-5.38921,0 -9.75801,-4.36881 -9.75801,-9.75801z" fill="#ffffff" stroke="#000000" stroke-width="1.5"/></g><g fill="#000000" stroke="none" stroke-linecap="butt"><path d="M322.03409,160.44406c0,0 7.04587,-6.9232 7.19257,-7.93533c0.2817,-1.94373 0.04805,-26.2216 16.12002,-39.72734c5.87771,-4.93922 13.93621,-8.43771 24.99826,-8.87619c51.0282,-1.0681 44.60178,41.32584 47.47805,49.32426c3.94382,10.96704 7.03826,20.34235 7.03826,20.34235c0,0 -3.1634,-2.40074 -4.66391,-3.66389c-1.3995,-1.17813 -4.34579,-3.67778 -4.34579,-3.67778c0,0 3.53375,12.09786 1.49864,24.19429c-1.78602,11.08413 -8.34286,20.13808 -8.34286,20.13808l-1.32065,-2.74426c0,0 -1.1691,2.56959 -2.46936,3.89628c-1.30027,1.32667 -3.93115,3.40524 -3.93115,3.40524l-0.10523,-4.33055c0,0 -8.0711,12.88097 -27.83765,12.7098c-18.64128,-0.29867 -29.80492,-12.48027 -29.80492,-12.48027l-0.13284,3.10375c0,0 -4.45249,-3.84953 -7.06662,-11.34899c-3.11573,-8.93848 -3.70335,-14.31345 -3.70335,-14.31345c0,0 -2.67404,2.2203 -6.53571,3.24353c-4.83891,1.28217 -7.9414,0.40364 -7.9414,0.40364c0,0 4.12461,-3.17661 6.38358,-5.57643c2.01211,-2.13756 3.02557,-3.94827 3.02557,-3.94827c0,0 -2.40939,1.26811 -4.8389,1.89153c-2.53492,0.65048 -4.60719,0.62071 -4.60719,0.62071c0,0 5.68732,-5.88903 8.03753,-12.71302c2.21897,-6.44296 2.4004,-12.81008 2.4004,-12.81008c0,0 -1.55664,0.77351 -3.807,0.92959c-1.42644,0.09894 -2.71836,-0.05718 -2.71836,-0.05718z" stroke-width="1.5"/><path d="M323.48098,131.4332l11.88927,9.35271v13.56143c0,0 -6.45567,-5.93105 -8.4764,-9.82561c-1.93898,-3.737 -3.41288,-13.08855 -3.41288,-13.08855z" stroke-width="0"/><path d="M328.18528,122.27544l11.00602,10.42217l-1.2089,13.50496c0,0 -5.90006,-6.50819 -7.56521,-10.5749c-1.59778,-3.9022 -2.23191,-13.35223 -2.23191,-13.35223z" stroke-width="0"/><path d="M410.4617,204.46999l0.81559,-15.3169l10.93516,-7.67186c0,0 -1.1304,8.79918 -3.12759,12.70641c-1.91639,3.74917 -8.62315,10.28235 -8.62315,10.28235z" data-paper-data="{&quot;index&quot;:null}" stroke-width="0"/><path d="M417.36271,165.00375l-3.69951,-14.86572l8.19219,-10.66425c0,0 1.49368,8.74234 0.73009,13.08149c-0.7327,4.1636 -5.22276,12.44849 -5.22276,12.44849z" data-paper-data="{&quot;index&quot;:null}" stroke-width="0"/><path d="M375.76464,104.00177c2.29352,3.73319 4.10186,12.41318 4.10186,12.41318l-11.49497,-6.76208l-1.99929,-15.20272c0,0 7.19167,5.96945 9.3924,9.55162z" data-paper-data="{&quot;index&quot;:null}" stroke-width="0"/><path d="M354.3911,100.87291l-1.90544,15.21533l-11.453,6.8361c0,0 1.75473,-8.69147 4.02517,-12.43939c2.17859,-3.5963 9.33328,-9.61204 9.33328,-9.61204z" data-paper-data="{&quot;index&quot;:null}" stroke-width="0"/><path d="M412.71594,114.12762c0.88779,4.31435 -0.35435,13.09776 -0.35435,13.09776l-8.49473,-10.41379l3.27128,-14.97035c0,0 4.72592,8.14656 5.5778,12.28637z" data-paper-data="{&quot;index&quot;:null}" stroke-width="0"/><path d="M392.30376,106.36446c3.42257,-2.37623 12.35343,-4.88813 12.35343,-4.88813l-7.80318,13.10054l-13.18298,1.46978c0,0 5.06587,-7.20579 8.63273,-9.6822z" data-paper-data="{&quot;index&quot;:null}" stroke-width="0"/></g><path d="M341.2237,172.61132c-0.65973,-8.33761 0.38297,-19.61098 0.38297,-19.61098c0,0 3.89899,-0.04715 15.9068,-3.59449c9.22515,-2.72531 23.48966,-10.84578 23.48966,-10.84578c0,0 -2.46936,3.43535 -3.8958,5.09884c-1.51646,1.76848 -4.5647,5.21639 -4.5647,5.21639c0,0 8.9604,-1.90641 16.77617,-5.40654c9.79535,-4.04207 12.10935,-6.91988 14.8049,-5.25037c3.18141,1.97044 1.17756,26.50244 0.82134,32.85624c-0.48201,6.48104 -2.89603,10.86003 -3.60143,14.31345c-0.7054,3.45342 -0.46825,7.01538 -2.52215,18.33657c-1.28177,7.06521 -4.7578,10.20266 -11.45419,16.76022c-6.69639,6.55757 -10.35027,10.57773 -14.87712,10.65659c-4.35647,0.0759 -10.21522,-5.83054 -15.93095,-11.86919c-6.08631,-6.43019 -10.14576,-9.69104 -11.10676,-17.30774c-0.86548,-6.85964 -0.88773,-11.32742 -1.28342,-17.43189c-0.2892,-4.46159 -2.58499,-7.36796 -2.94529,-11.92129z" fill="#ffffff" stroke="#000000" stroke-width="1.5" stroke-linecap="butt"/><path d="M396.42963,158.20715c0,0 1.59329,0.79385 4.38396,2.46217c2.54897,1.52384 4.41417,3.2191 4.41417,3.2191l-0.12373,1.35075c0,0 -7.10868,-5.56392 -15.99827,-7.11643c-7.10789,-1.24134 -11.83294,0.22001 -11.83294,0.22001l1.26211,-4.60542c0,0 3.95265,-0.97734 9.23377,0.22906c5.46856,1.24923 8.77527,3.00062 8.77527,3.00062z" data-paper-data="{&quot;index&quot;:null}" fill="#000000" stroke="none" stroke-width="1.5" stroke-linecap="butt"/><path d="M381.58534,204.46906c0.65208,0.2422 3.52513,1.59982 6.88646,2.96759c3.3881,1.37867 8.2466,2.62129 8.22431,2.81284c-0.0283,0.2431 -11.92901,0.25943 -15.63824,0.72277c-3.10838,0.38827 -7.64648,0.80669 -7.64648,0.80669c0,0 -8.12129,-1.32804 -15.17293,-2.79536c-5.65164,-1.176 -11.88846,-1.89895 -11.90064,-2.00587c-0.01645,-0.14419 4.42229,-0.81248 7.80138,-1.59438c1.30993,-0.56772 6.21867,-1.6978 6.21867,-1.6978c0,0 5.66552,-0.31742 8.69775,0.66191c3.24901,1.04935 3.2415,2.79576 3.5246,2.82263c0,0 1.35396,-1.99983 2.70808,-2.40599c1.35413,-0.40616 5.80995,-0.47595 6.29706,-0.29504z" fill="#ffffff" stroke="#000000" stroke-width="1.4" stroke-linecap="butt"/><path d="M360.26697,209.67472c5.82018,1.17377 13.62414,3.20937 13.62414,3.20937c0,0 6.61884,-1.77864 9.65634,-2.09708c2.3549,-0.24688 12.82212,-0.80772 12.87272,-0.38156c0.04948,0.41666 -10.32444,14.74764 -24.17646,14.22955c-15.74132,-0.49819 -26.13877,-17.30298 -26.09551,-17.49633c0.04326,-0.19335 8.2986,1.36229 14.11878,2.53607z" fill="#ffffff" stroke="#000000" stroke-width="1.9" stroke-linecap="butt"/><path d="M377.07451,173.17748c0,0 0.11729,4.53823 0.00658,8.14715c-0.2192,7.14629 -1.23633,31.736 -1.23633,31.736l-3.40864,0.00987c0,0 -0.91792,-4.77027 -1.28406,-10.86015c-0.49561,-8.24319 -0.51387,-18.62638 -0.87277,-22.44361c-0.34019,-3.61837 -1.02423,-6.53284 -1.02423,-6.53284" fill="#ffffff" stroke="#000000" stroke-width="1.3" stroke-linecap="round"/><path d="M343.16675,184.18417c0,0 -5.63838,-4.02069 -7.04687,-10.26023c-1.48199,-6.56521 -1.67043,-11.12652 0.54888,-11.42276c2.21931,-0.29626 3.09031,2.71729 4.26713,9.55221c1.17681,6.83492 2.23087,12.1308 2.23087,12.1308z" data-paper-data="{&quot;index&quot;:null}" fill="#ffffff" stroke="#000000" stroke-width="1" stroke-linecap="butt"/><path d="M342.93514,179.67133c0,0 -4.07419,-3.342 -4.93652,-9.66072c-0.48104,-3.52479 2.4656,-2.60668 2.4656,-2.60668" fill="none" stroke="#000000" stroke-width="0.25" stroke-linecap="round"/><path d="M350.33716,156.71087c0,0 3.85215,-2.07947 9.18267,-2.60852c5.90688,-0.58626 8.88063,-0.07577 8.88063,-0.07577l0.33733,4.72995c0,0 -4.38478,-0.77812 -9.16611,-0.59575c-6.39443,0.24388 -7.59641,1.63813 -12.45828,2.16201c-4.16591,0.44889 -7.702,0.18159 -7.702,0.18159l-0.0296,-1.40791c0,0 4.11,0.08458 5.98318,-0.07814c1.54605,-0.13431 4.54501,-1.07242 4.54501,-1.07242z" fill="#000000" stroke="none" stroke-width="1.5" stroke-linecap="butt"/><path d="M405.16602,172.05338c1.17681,-6.83492 2.04781,-9.84847 4.26712,-9.55222c2.21931,0.29625 2.03088,4.85756 0.54888,11.42277c-1.40849,6.23954 -7.04687,10.26023 -7.04687,10.26023c0,0 1.05406,-5.29586 2.23087,-12.13079z" data-paper-data="{&quot;index&quot;:null}" fill="#ffffff" stroke="#000000" stroke-width="1" stroke-linecap="butt"/><path d="M405.63766,167.40392c0,0 2.94664,-0.91812 2.46559,2.60668c-0.86232,6.31873 -4.93652,9.66072 -4.93652,9.66072" data-paper-data="{&quot;index&quot;:null}" fill="none" stroke="#000000" stroke-width="0.25" stroke-linecap="round"/><path d="M343.6355,178.36772l0.03451,-1.23324c0.11086,-0.16347 0.21669,-0.36501 0.31591,-0.59584c0.07412,-0.53796 0.20743,-1.07996 0.50032,-1.65308c0.18189,-0.85309 0.29074,-1.79415 0.29406,-2.64399c-0.08425,-0.05478 -0.15787,-0.11026 -0.21312,-0.16672c-0.69387,-0.7091 -1.10228,-1.80878 -1.08575,-2.80644c-0.97812,-0.52048 -2.33164,-0.82882 -2.8957,-2.06188c-1.30886,-2.8612 0.86494,-6.89095 2.56507,-9.39136c1.05517,-0.96997 1.72706,-1.84146 3.31271,-2.38509c1.51618,-0.51979 3.76835,-0.3469 4.96977,-1.44756c2.6323,-2.41155 -1.28201,-6.24192 3.01066,-8.41789c1.53495,-0.77806 4.07652,-0.61553 5.79276,-0.61783c6.33384,-0.00849 15.99742,-1.28824 21.16732,1.672c3.50411,1.28756 6.34536,3.54806 8.74627,5.79194c0.71371,0.66703 2.72996,2.89499 3.90558,3.19163c0.86223,0.21756 1.1066,-1.13601 1.9253,-1.43114c0.80162,-0.28896 2.78082,-0.51778 3.65146,-0.31149c6.12946,1.45236 8.51529,7.09142 8.51529,11.06351c0,1.66736 -0.62177,3.59161 -0.35373,5.21083c0.39956,2.41369 2.5881,4.25437 1.69549,6.93018c-0.99491,2.98248 -4.63999,4.03039 -6.28391,6.532c-0.48242,0.7341 -0.48036,1.68121 -1.25053,2.26686c-2.11257,1.60646 -4.33531,0.73809 -3.47969,3.18166c0.42208,1.24475 1.62418,3.85074 0.53605,5.04069c-1.73037,1.89229 -4.14947,0.91731 -4.636,3.67734c-0.38607,2.19017 2.9776,5.70636 0.22556,7.72216c-0.92047,0.67422 -2.60949,0.14131 -3.85055,0.42043c-2.31833,0.52142 -34.37788,0.45493 -35.65761,-2.75628c-0.65318,0.44588 -1.35083,0.85784 -1.96315,1.02688c-8.85345,2.44394 -9.45215,-6.85158 -8.79993,-10.93553c0.06196,-0.388 0.40869,-2.11532 0.13945,-2.52208c-0.45034,-0.68043 -0.2618,-1.60668 -0.76435,-2.26694c-3.84949,-1.55935 -1.99235,-5.30351 -0.67086,-7.63639c0.41875,-0.73924 0.61756,-1.40499 0.72501,-2.03199c-0.12367,-0.21611 -0.12367,-0.41535 -0.12367,-0.41535z" fill="#000000" stroke="none" stroke-width="0.5" stroke-linecap="butt"/><path d="M359.7403,178.9291c0,-7.26077 5.88602,-13.14679 13.14679,-13.14679c7.26076,0 13.14679,5.88601 13.14679,13.14679c0,7.26077 -5.88603,13.14679 -13.14679,13.14679c-7.26076,0 -13.14679,-5.88601 -13.14679,-13.14679z" fill="none" stroke="url(#color-8)" stroke-width="4" stroke-linecap="butt"/><path d="M348.39417,199.8175v-45.91848" fill="none" stroke="url(#color-9)" stroke-width="1.5" stroke-linecap="round"/><path d="M365.92322,201.34178v-48.58595" fill="none" stroke="url(#color-10)" stroke-width="2.5" stroke-linecap="round"/><path d="M380.78481,150.8505v50.87235" fill="none" stroke="url(#color-11)" stroke-width="3.5" stroke-linecap="round"/><path d="M396.21795,202.10392c0,0 6.7704,-7.87197 11.12403,-4.77129c3.13702,2.2342 4.33845,17.46088 2.76914,22.6368c-3.02832,9.98809 -11.81073,10.83062 -11.81073,10.83062" fill="none" stroke="url(#color-12)" stroke-width="5" stroke-linecap="round"/><path d="M342.06801,149.73992c0.79707,-0.3384 1.70588,-0.73439 2.44222,-0.91116c0.97403,-0.23383 2.5238,0.40453 3.40984,-0.12682c1.52935,-0.91716 2.30173,-2.00019 4.30714,-2.43107c0.98392,-0.24601 4.39616,-0.51927 4.96834,-1.55186c1.04593,-1.88752 0.64979,-2.71502 2.85613,-4.02763c3.39632,-2.02053 7.29625,-1.77713 11.02033,-2.38842c2.09538,-0.34395 3.28294,-2.00599 5.41616,-2.07234c1.54291,0 2.99828,-0.06051 4.51874,0.24661c0.29996,0.06059 1.97291,0.89576 2.24097,0.73322c3.17395,-1.92449 8.68734,-4.30128 12.69448,-2.77215c1.61892,0.61777 2.69285,2.17325 4.40882,2.48242c3.07173,0 4.95228,-3.10498 8.02267,-2.74142c2.52929,0.29949 3.18748,2.64878 3.03487,4.82235c-0.27974,3.9843 -0.91395,7.57906 -1.86879,11.38953c-0.55295,1.30036 -1.89324,2.32568 -2.27366,3.61643c-0.41382,1.40408 0.77882,3.72272 -0.44865,4.9502c-1.81153,1.81152 -6.4081,-0.62951 -7.83727,-1.83638c-0.61863,-0.52239 -0.83224,-1.50321 -1.55679,-1.86463c-0.60598,-0.30229 -1.28252,0.72084 -1.52659,0.86321c-1.68782,0.98456 -3.30945,0.72487 -4.66175,-0.5592c-2.52137,-2.04269 -5.35218,0.4575 -8.42567,-0.75371c-1.13786,-0.44841 -3.05721,-3.08902 -4.29527,-2.70892c-1.88165,0.57771 -1.91205,2.33903 -3.99032,2.76149c-1.23976,0.252 -3.52891,-2.14314 -3.83144,-1.3892c-1.59319,1.55137 -1.9656,3.10023 -4.69014,2.51459c-1.14591,-0.24632 -5.51187,-2.1452 -6.58298,-1.08021c-0.86156,0.85664 -0.99554,2.35392 -2.22285,3.07628c-0.89601,0.52737 -3.18887,-0.06757 -4.09044,-0.14617c-1.83815,-0.16028 -2.93355,0.62513 -4.54924,1.26405c-0.67172,0.50949 -1.15813,1.28642 -1.92106,1.64516c-0.94464,0.44418 -6.31814,0.72383 -7.18079,0.16586c-1.03609,-0.67015 -0.85498,-1.82065 -0.86391,-2.78711c-0.02945,-3.18833 0.49532,-5.5372 1.91963,-8.38583c0,0 0.38344,-0.76688 1.15032,-0.38344c0.21436,0.10718 0.33884,0.24433 0.40695,0.38631z" fill="url(#color-13)" stroke="none" stroke-width="0.5" stroke-linecap="butt"/><path d="M367.11394,198.19198c0.6773,0 1.36942,0.16838 2.00927,0.45728h0.01991l0.18338,-0.36676l0.89794,0.44897c0.01774,0.00842 0.03515,0.0174 0.05221,0.02697c0.42815,0.03092 0.85712,0.06473 1.28605,0.09618c0.25063,-0.20537 0.58132,-0.20537 0.58132,-0.20537c1.38826,0.00412 2.7847,0.10957 4.18106,0.18518c2.53348,-0.35276 4.34032,-1.27929 6.47203,-0.87795l0.13547,-0.40642l1.35308,0.45103c0.13065,0.04019 0.24801,0.11075 0.34381,0.20345c0.17444,-0.10941 0.34951,-0.21823 0.52587,-0.32396l0.87855,-0.66034c0,0 0.43917,-0.32938 0.87826,-0.10961c0.17349,-0.06187 0.32211,-0.06187 0.32211,-0.06187c1.82912,0 3.65823,0 5.48735,0h0.91456c0,0 0.22828,0 0.44927,0.1178c0.41917,-0.28796 0.90643,0.00439 0.90643,0.00439c0.28379,0.17327 0.57716,0.33886 0.88041,0.48046c0.39388,-0.3034 0.89101,-0.05484 0.89101,-0.05484c1.39657,0.69829 2.80533,1.44549 4.28197,1.96724c0.04535,0 0.09068,0 0.13603,0c0,0 0.35835,0 0.61172,0.23168c2.3979,0.08511 6.15153,1.9397 4.75322,5.06936c-0.81568,1.82565 -2.89002,1.07852 -4.09081,2.12483c-1.58356,1.37983 -0.67092,2.77694 -3.24739,3.43036c-2.67464,0.01117 -6.41266,-0.97317 -8.86409,-0.46417c-1.96165,0.4073 -3.88857,0.6515 -5.93782,0.46417c-3.44171,-0.31463 -6.64051,-1.34665 -10.09954,-1.37409c-3.81786,0.95445 -6.36357,-0.42512 -9.70786,-1.62516c-1.44999,-0.52031 -3.48633,0.44141 -4.99819,0.00818c-0.99543,-0.28525 -1.87753,-0.93224 -2.89426,-1.12856c-2.0154,-0.38915 -3.76472,1.61586 -5.94959,1.60235c-1.32889,0.27557 -1.68112,1.90926 -3.19191,2.0566c-1.3976,0.1363 -2.94133,-1.04907 -3.58684,-2.22817c-1.14171,-2.08548 -0.32704,-4.53431 -0.58115,-6.76818c-0.19547,-1.71837 -0.68117,-3.38005 -0.6901,-5.11457c0,0 0,-0.8574 0.8574,-0.8574c0.13488,0 0.24855,0.02122 0.34434,0.05699c0.27371,-0.10034 0.54953,-0.03139 0.54953,-0.03139c0.81375,0.20354 1.62069,0.43393 2.42602,0.66861l0.79564,-0.00829c0,0 0.03226,0 0.08427,0.00626c0.05223,0.00407 0.08387,0.01039 0.08387,0.01039c2.83274,0.57793 5.76169,0.08456 8.62492,0.44705c1.51223,0.19144 3.20257,-0.40295 4.64396,0.32368c0.75044,0.37831 1.34857,1.21562 1.96908,1.96704c0.50135,-0.52673 1.11311,-0.06791 1.11311,-0.06791c0.07311,0.06083 0.14443,0.1152 0.21436,0.16377c0.02637,-0.01459 0.05361,-0.02782 0.08159,-0.03962c0.3223,-0.77743 1.10852,-0.46294 1.10852,-0.46294c0.15938,0.06406 0.30912,0.12394 0.45259,0.17927c0.04667,-0.00787 0.09463,-0.01197 0.14354,-0.01197z" fill="url(#color-14)" stroke="none" stroke-width="0.5" stroke-linecap="butt"/></g><g><path d="M175.72135,395.59051l-5.47679,-73.67708l5.78391,-49.73973c0,0 -1.4635,-48.54939 -1.52112,-57.1705c-0.08341,-12.47549 12.52793,-56.25379 61.51893,-56.49834c48.35934,-0.2414 60.99055,45.1224 60.9785,56.46104c-0.1172,70.76273 1.00122,180.54825 1.00122,180.54825l-16.06248,0.14712l-0.24303,-175.73812c0,0 0.11552,-4.74269 -4.30955,-4.82662c-5.25549,-0.09968 -4.50715,4.76766 -4.50715,4.76766c0,0 0.05195,29.04072 0.08813,49.26381c0.00716,4.00234 -2.27936,9.71083 -2.26937,15.30173c0.00862,4.81173 5.37393,10.10311 5.38392,15.68702c0.00878,4.91634 -6.10299,9.29436 -6.0936,14.53659c0.00993,5.55008 3.08054,11.21123 3.09059,16.83195c0.05861,32.76615 0.11477,64.15809 0.11477,64.15809l-73.77872,0.11051c0,0 -0.04927,-22.79643 -0.10949,-45.52161c-0.01569,-5.91916 2.26325,-11.9675 2.24675,-17.21497c-0.01885,-5.99634 -4.62852,-9.65063 -4.64654,-16.44913c-0.01351,-5.09576 5.71193,-11.52625 5.69989,-16.07051c-0.014,-5.28305 -3.46979,-10.08497 -3.48057,-14.15365c-0.06635,-25.03591 -0.17736,-66.925 -0.17736,-66.925c0,0 0.42769,-4.46679 -4.41568,-4.4904c-4.76033,-0.02318 -4.3087,4.45147 -4.3087,4.45147l0.95573,51.57292l-5.6214,49.81857l5.20602,74.68893z" fill="#ffffff" stroke="#000000" stroke-width="2" stroke-linecap="butt"/><path d="M196.11749,317.62314l3.28088,-37.31284c0,0 51.66438,-22.10354 65.88044,-18.83871c10.13533,2.32764 11.39534,36.58562 11.39534,36.58562l-3.49949,36.87562c0,0 -43.78616,21.82873 -56.94844,18.87204c-12.48796,-2.80523 -20.10874,-36.18173 -20.10874,-36.18173z" fill="url(#color-15)" stroke="#000000" stroke-width="0" stroke-linecap="butt"/><path d="M273.61188,266.43434l3.49949,39.41427c0,0 -4.10883,43.90154 -15.4249,52.7766c-13.74763,10.78211 -61.19507,7.31555 -61.19507,7.31555l-3.06228,-39.88159c0,0 7.10418,-63.19536 18.6193,-72.20773c13.54737,-10.60292 57.56345,12.5829 57.56345,12.5829z" data-paper-data="{&quot;index&quot;:null}" fill="url(#color-16)" stroke="#000000" stroke-width="0" stroke-linecap="butt"/><path d="M235.55238,329.3761c-1.25319,0 -2.26911,-1.01591 -2.26911,-2.26911c0,-1.25319 1.01591,-2.26911 2.26911,-2.26911c1.25319,0 2.26911,1.01591 2.26911,2.26911c0,1.25319 -1.01591,2.26911 -2.26911,2.26911z" data-paper-data="{&quot;index&quot;:null}" fill="#000000" stroke="none" stroke-width="1.5" stroke-linecap="butt"/><path d="M223.06142,337.38053c-0.70967,-2.63934 0.07769,-4.90595 -1.84355,-7.8116c-1.22824,-3.12077 2.33437,-5.53127 1.60119,-8.04609c-0.39367,-1.35027 -2.18009,-2.57718 -2.76538,-4.0404c-0.72094,-1.84636 0.81369,-7.47 2.82939,-8.10473c1.52192,-0.47924 3.54933,0.17841 5.10035,0.1755c3.80824,0.00614 6.01686,3.10491 9.31482,3.44469c0.42922,0.04422 2.67156,-1.72373 3.92278,-1.72352c5.22098,0.02764 10.55866,2.5279 13.96333,6.53113c3.22244,3.8042 1.12291,7.92673 2.72071,12.32069c1.42715,3.9284 4.40057,10.00607 2.31638,14.27186c-1.58446,1.60839 -5.72322,3.12302 -6.71136,4.85268c-0.93607,1.63849 -0.5818,3.81833 -1.34135,5.61511c-2.20117,5.05217 -9.47462,0.2713 -12.2542,-1.13771c-1.61225,2.0093 -2.22257,-1.33773 -3.29479,-1.74041c-2.27059,-0.85278 -3.71144,4.24348 -3.94119,5.64956c-0.20966,1.18421 -0.94271,3.93897 -2.5268,3.54461c-1.4419,-0.35896 -1.13725,-1.56267 -2.86174,-1.52406c-0.71781,0.01607 -0.00874,2.40496 -1.88864,1.6197c-0.97553,-1.80254 0.27205,-4.00591 -0.49522,-5.69684c-1.25801,-2.77242 -0.78526,-3.8386 -0.50919,-6.73641c0.19982,-2.08308 1.31635,-4.26424 1.27987,-6.33021c-0.03581,-2.02771 -3.51127,-3.01068 -2.61537,-5.13361z" fill="#a10000" stroke="none" stroke-width="0.5" stroke-linecap="butt"/><g stroke="none" stroke-linecap="butt"><g data-paper-data="{&quot;index&quot;:null}"><g fill="#008235" stroke-width="0"><path d="M233.29417,317.53051c3.0473,-3.96707 39.59503,18.76739 54.76175,19.36484c7.67426,0.30232 24.13902,-26.71909 24.13902,-26.71909l42.21287,26.00323c0,0 -13.90006,15.3096 -20.91365,21.73139c-12.6467,11.57956 -27.81614,21.42828 -39.94407,20.90027c-33.90642,-1.47621 -63.20476,-57.44176 -60.25591,-61.28061z"/><path d="M246.78542,345.73003c-7.21968,-10.07633 -24.8577,-21.60356 -17.30652,-31.4339c0.48429,-0.63048 1.00046,-1.53015 1.77934,-2.306c1.84185,-1.83469 4.58743,-3.70618 7.75769,-3.89005c2.45535,-0.1424 5.85472,1.2855 8.07145,3.25368c10.20949,9.06496 31.57965,25.29933 40.96495,25.66904c15.16672,0.59748 39.4006,43.39202 5.49416,41.91582c-17.27304,-0.75202 -35.7222,-17.80191 -46.7611,-33.20863z"/></g><g><g fill="none" stroke-width="1" font-family="sans-serif" font-weight="normal" font-size="12" text-anchor="start"/><g fill="#00421b" stroke-width="0"><path d="M343.00455,309.71229c11.04,8.18141 16.06369,20.11155 11.22069,26.64671c-4.84298,6.53513 -17.71872,5.20055 -28.75872,-2.98086c-11.04,-8.18141 -16.06369,-20.11155 -11.22069,-26.64668c4.84298,-6.53514 17.71872,-5.20057 28.75872,2.98086z"/></g><g fill="#000000" stroke-width="0"><path d="M340.90355,313.73548c6.8005,5.03963 9.89501,12.38844 6.91177,16.41398c-2.98321,4.02557 -10.91446,3.20346 -17.71496,-1.83616c-6.8005,-5.03963 -9.89501,-12.38842 -6.91177,-16.41398c2.98323,-4.02557 10.91446,-3.20348 17.71496,1.83617z"/></g></g></g><g fill="#a10000" stroke-width="0.5"><path d="M234.45547,311.04087c-0.07394,0.05608 -0.3,0.1925 -0.51583,-0.03578c-0.2628,-0.278 0.01518,-0.54082 0.01518,-0.54082l0.07304,-0.06904c3.15757,-2.94965 6.20384,-0.67005 9.61245,-0.29156c2.41245,2.0372 2.93864,0.0888 5.10366,0.99879c2.78584,1.17094 1.95239,7.39287 0.80935,9.48832c-1.07491,0.88994 -2.42163,0.1546 -3.34251,0.86926c-0.94292,0.73175 -1.6201,2.08135 -2.89781,2.45153c-0.48354,0.14008 -1.51591,-0.00903 -1.8155,-0.51704c-0.99588,-1.68876 0.70933,-4.20345 -0.87734,-5.99562c-1.207,-0.00757 -1.14172,1.94583 -2.76113,1.46247c-2.44838,-0.7308 -3.33913,-5.19306 -3.40353,-7.82049z"/><path d="M239.07614,327.0783c0.09792,-0.04652 0.19541,-0.04378 0.19541,-0.04378l0.08406,0.02776c0.03105,-0.00124 0.0625,-0.00236 0.09435,-0.00331c2.46676,-1.06935 5.10476,1.01656 3.66789,3.75508c-0.59464,1.13331 -1.81022,0.27981 -1.7817,1.61771c-0.20285,1.82597 -2.45072,2.72159 -3.77865,0.97838c-0.64976,-0.85294 0.63374,-2.0372 0.33535,-2.84038c-0.8515,-2.29199 -0.99068,-3.32579 1.18329,-3.49145z"/><path d="M247.16644,325.65612l0.13234,0.28435c0.49914,1.11068 0.36654,5.77585 -1.92176,3.73775c-1.31059,-1.16732 -0.28707,-3.29638 0.91773,-4.32594c0.02507,-0.08005 0.08416,-0.16048 0.20701,-0.21765c0.04785,-0.02227 0.09218,-0.03486 0.13305,-0.04003c0.18218,-0.12046 0.36392,-0.21209 0.53806,-0.26807c0,0 0.36617,-0.11076 0.47693,0.25543c0.11074,0.36617 -0.25544,0.47693 -0.25544,0.47693c-0.07093,0.01971 -0.14755,0.0527 -0.22793,0.09726z"/><path d="M231.49221,333.21239c-0.32671,-0.19905 -0.12767,-0.52575 -0.12767,-0.52575l0.29828,-0.48818c1.98158,-2.49802 -0.26109,-6.80921 2.52694,-9.29668c0.82659,-3.19601 -3.52836,-9.98852 1.79977,-9.83902c0,0 0.38241,0.01073 0.37168,0.39314c-0.01073,0.38241 -0.39314,0.37168 -0.39314,0.37168c-4.11911,-0.11558 -0.27232,6.5756 -1.12334,9.46969c-2.71733,2.68485 -0.43266,6.67487 -2.5545,9.33912l-0.27229,0.44833c0,0 -0.19904,0.32672 -0.52575,0.12767z"/><path d="M236.13392,333.66895c-0.32414,0.2032 -0.52734,-0.12094 -0.52734,-0.12094l-0.32561,-0.51943c-0.83135,-1.39548 -0.64806,-4.54769 -0.01801,-6.01094c2.42475,-3.13402 1.87368,-7.19736 3.87146,-10.9336c0,0 0.18063,-0.33725 0.51785,-0.15664c0.33724,0.18063 0.15664,0.51785 0.15664,0.51785c-2.00243,3.73251 -1.45395,7.79118 -3.88684,10.96096c-0.49904,1.14456 -0.69196,4.17771 0.00718,5.21598l0.32562,0.51941c0,0 0.20319,0.32414 -0.12095,0.52734z"/><path d="M248.15236,334.24056c-0.38241,-0.01073 -0.37168,-0.39314 -0.37168,-0.39314l0.02162,-0.57444c0.32564,-0.85951 0.37867,-1.56804 0.40412,-2.47531c0.13602,-4.8476 1.27241,-6.54278 -0.99982,-11.4233c0,0 -0.16143,-0.34683 0.1854,-0.50826c0.34685,-0.16143 0.50826,0.1854 0.50826,0.1854c2.3003,4.94415 1.20843,6.86841 1.07097,11.76762c-0.02624,0.93506 -0.07123,1.72099 -0.41878,2.60443l-0.00698,0.44532c0,0 -0.01073,0.38241 -0.39314,0.37168z"/></g></g><g stroke="none" stroke-width="0" stroke-linecap="butt"><g><path d="M276.80021,279.1965c1.24074,2.80264 4.97152,6.55803 0.98944,12.27396c-5.7858,8.30501 -21.75283,19.65432 -34.52682,29.12531c-10.66312,7.90595 -28.41688,21.90479 -36.44153,24.92084c-8.20481,3.08378 -6.57863,-4.94177 -8.11726,-8.41731c-1.06992,-2.41678 -4.57765,-6.7805 -1.68407,-11.46213c5.33751,-8.63574 21.23703,-19.5687 35.22142,-29.93715c11.23941,-8.33323 29.26167,-21.44842 37.45872,-24.30784c7.53109,-2.62709 5.64276,4.51248 7.10008,7.80431z" fill="#008235"/><path d="M276.80021,279.1965c1.24074,2.80264 4.97151,6.55803 0.98943,12.27396c-5.7858,8.30501 -21.75283,19.65432 -34.5268,29.12531c-10.66312,7.90595 -28.41688,21.90477 -36.44153,24.92084c-8.20481,3.08378 -6.57862,-4.94177 -8.11726,-8.41731c-1.06992,-2.41678 76.63886,-61.19463 78.09617,-57.9028z" fill="#00421b"/></g><g><path d="M278.10026,315.68371c-0.85311,2.9166 -0.72641,8.38302 -6.4647,9.42449c-8.33753,1.51321 -24.67998,-2.49197 -37.97977,-5.41952c-11.10205,-2.44377 -30.06811,-5.9217 -36.73274,-9.83519c-6.81426,-4.00136 -1.19159,-8.45102 -0.13365,-12.0679c0.73565,-2.51505 -0.8164,-8.62613 3.65765,-9.75637c8.25286,-2.08484 26.22678,2.54645 40.78683,5.75141c11.70206,2.57585 30.32384,6.88089 37.00405,11.03506c6.13748,3.81666 0.86436,7.44235 -0.13765,10.86803z" fill="#cc1414"/><path d="M278.10026,315.68371c-0.85311,2.9166 -0.72641,8.38302 -6.4647,9.42449c-8.33753,1.51321 -24.67998,-2.49199 -37.97977,-5.41953c-11.10205,-2.44377 -30.06812,-5.9217 -36.73274,-9.83518c-6.81426,-4.00136 -1.19159,-8.45102 -0.13365,-12.0679c0.73565,-2.51505 82.3129,14.47243 81.31088,17.89813z" fill="#a10000"/></g></g><path d="M193.63235,275.97221l2.80544,-26.86431c0,0 27.6394,-4.08066 41.06157,-4.08066c12.91229,0 38.00108,4.08066 38.00108,4.08066l3.31554,27.54441z" fill="#00421b" stroke="none" stroke-width="0" stroke-linecap="butt"/><path d="M171.4438,278.01253l0.71397,-26.8643c0,0 7.03397,-4.08064 10.4498,-4.08064c3.28606,0 9.67094,4.08064 9.67094,4.08064l0.84378,27.54441z" fill="#00421b" stroke="none" stroke-width="0" stroke-linecap="butt"/><path d="M278.816,276.73733l0.71397,-26.8643c0,0 7.03399,-4.08064 10.44981,-4.08064c3.28606,0 9.67094,4.08064 9.67094,4.08064l0.84378,27.54441z" fill="#00421b" stroke="none" stroke-width="0" stroke-linecap="butt"/><path d="M259.2684,236.35653c-0.87397,0 -1.58244,-0.70849 -1.58244,-1.58244c0,-0.87397 0.70849,-1.58247 1.58244,-1.58247c0.87397,0 1.58244,0.7085 1.58244,1.58247c0,0.87397 -0.70849,1.58244 -1.58244,1.58244z" fill="#000000" stroke="none" stroke-width="1.5" stroke-linecap="butt"/><path d="M251.2195,242.83802c-6.83025,-0.48109 -10.02686,-2.74514 -9.44138,-3.9482c0.18039,-0.37069 4.35577,1.62749 10.66639,1.99666c9.8073,0.57373 13.02289,-0.9667 13.02289,-0.9667v2.05995c0,0 -3.69325,1.60174 -14.2479,0.8583z" fill="#000000" stroke="#000000" stroke-width="0" stroke-linecap="butt"/><path d="M208.65918,234.77409c0,-0.87397 0.70849,-1.58247 1.58244,-1.58247c0.87397,0 1.58247,0.7085 1.58247,1.58247c0,0.87397 -0.7085,1.58244 -1.58247,1.58244c-0.87397,0 -1.58244,-0.70849 -1.58244,-1.58244z" fill="#000000" stroke="none" stroke-width="1.5" stroke-linecap="butt"/><path d="M218.29051,242.83802c-10.55465,0.74347 -14.2479,-0.8583 -14.2479,-0.8583v-2.05995c0,0 3.2156,1.54044 13.02289,0.9667c6.31062,-0.36919 10.48602,-2.36735 10.66641,-1.99666c0.58547,1.20305 -2.61112,3.46709 -9.44138,3.9482z" fill="#000000" stroke="#000000" stroke-width="0" stroke-linecap="butt"/><path d="M170.90367,259.39869c0,0 -0.71418,-42.40825 -0.73199,-44.99496c-0.08889,-12.90627 13.35026,-58.19624 65.55702,-58.44923c51.53364,-0.24974 64.99395,46.6805 64.9811,58.41065c-0.02493,14.60749 0.50524,44.95455 0.50524,44.95455c0,0 -44.13787,-10.17393 -66.28907,-10.16049c-21.24836,0.01288 -64.02231,10.2395 -64.02231,10.2395z" fill="#63c38b" stroke="#000000" stroke-width="0" stroke-linecap="butt"/><g stroke="#000000" stroke-width="0" stroke-linecap="butt"><g fill="#da7f7f"><path d="M236.0286,231.94548l6.14967,-52.83655l102.62505,-16.95429l-44.76501,75.76194z"/><path d="M172.90129,236.05576l-41.37746,-77.05874l101.80519,20.03183l3.80391,52.98639z" data-paper-data="{&quot;index&quot;:null}"/></g><g fill="#cc1414"><path d="M236.0286,231.94546l108.77473,-69.79083l-44.76501,75.76192z"/><path d="M172.9013,236.05576l-41.37746,-77.05874l105.60911,73.01821z" data-paper-data="{&quot;index&quot;:null}"/></g></g><path d="M210.76743,161.1446c-0.15837,-0.14381 -0.09921,-0.37545 -0.09921,-0.37545l0.21108,-0.72638c1.56659,-2.14228 6.42308,-1.78451 8.951,-1.88667c6.36004,-0.2475 9.53707,-0.64521 15.51309,2.11437c4.76009,1.58325 10.98678,-0.22897 15.67233,-0.82497c6.58151,-0.82851 9.75612,3.72156 9.75612,10.01796c-0.00003,2.7371 0.43996,5.91937 -0.73536,8.4791c-1.04715,2.28059 -3.85354,3.2014 -3.85619,5.96528c-0.00249,2.56639 0.32025,5.61967 -1.85493,7.45511c-2.64817,2.23454 -5.79026,-1.0703 -5.79935,2.99161c-0.01555,2.36085 0.21497,4.93414 -1.48685,6.78463c-2.15885,2.34747 -7.22121,-0.91086 -8.22819,-3.14106c-1.3,-2.91068 -2.53932,2.35791 -5.11244,2.16351c-1.77395,-0.13402 -3.12014,-7.57194 -3.16505,-3.38386c-0.01126,0.7713 -0.02256,1.53872 -0.06398,2.30908c-0.04872,0.90633 -0.04996,4.81215 -1.83562,2.66607c-0.41205,-0.49522 -1.56088,-6.40744 -1.63257,-6.40193c-0.17535,0.01347 -1.7059,1.66625 -2.10946,1.87798c-4.47285,2.92332 -7.19922,-1.94483 -7.14078,-6.24196c-2.74759,-0.80257 -2.53816,-6.60792 -2.50702,-9.39531c-0.77293,-0.61976 -1.88901,-1.00816 -2.26617,-1.97423c-0.62777,-1.60801 0.04946,-4.37662 -0.09067,-6.12468c-2.80604,-3.90736 -3.64451,-7.88592 -2.11979,-12.34821z" fill="#a10000" stroke="none" stroke-width="0.5" stroke-linecap="butt"/><path d="M167.91175,88.75875c0,0 9.43134,-9.06191 9.62771,-10.38671c0.51499,-3.47462 -0.25671,-61.4748 55.03948,-63.61814c68.30453,-1.39806 59.70235,54.09221 63.55243,64.5615c5.27906,14.35499 9.42117,26.62651 9.42117,26.62651c0,0 -4.23442,-3.14237 -6.24294,-4.79574c-1.87333,-1.54207 -5.81712,-4.81392 -5.81712,-4.81392c0,0 4.73016,15.83513 2.00603,31.66839c-2.3907,14.50822 -11.16745,26.35913 -11.16745,26.35913l-1.76777,-3.59202c0,0 -1.56492,3.36339 -3.30541,5.09991c-1.7405,1.73651 -5.2621,4.45719 -5.2621,4.45719l-0.14086,-5.66835c0,0 -10.80368,16.86017 -37.26248,16.63612c-24.95256,-0.39093 -39.8958,-16.33567 -39.8958,-16.33567l-0.17781,4.06256c0,0 -5.95995,-5.03873 -9.45913,-14.85492c-4.17061,-11.69975 -4.95717,-18.73516 -4.95717,-18.73516c0,0 -3.57937,2.90618 -8.74847,4.24551c-6.47719,1.67827 -10.63008,0.52833 -10.63008,0.52833c0,0 5.52105,-4.15794 8.54483,-7.2991c2.69334,-2.7979 4.04992,-5.16797 4.04992,-5.16797c0,0 -3.22511,1.65986 -6.47718,2.47586c-3.39315,0.85143 -6.16701,0.81245 -6.16701,0.81245c0,0 7.61285,-7.70827 10.75876,-16.64033c2.97024,-8.4333 3.21309,-16.76737 3.21309,-16.76737c0,0 -2.08366,1.01246 -5.09592,1.21674c-1.90938,0.1295 -3.63869,-0.07483 -3.63869,-0.07483z" fill="#000000" stroke="none" stroke-width="1.5" stroke-linecap="butt"/><g stroke="none" stroke-linecap="butt"><g data-paper-data="{&quot;index&quot;:null}"><g fill="#008235" stroke-width="0"><path d="M244.18531,152.31046c2.937,3.84791 -26.53363,59.72293 -60.44443,61.09469c-12.12949,0.49066 -27.26851,-9.40473 -39.87949,-21.02321c-6.99377,-6.44337 -20.84661,-21.79571 -20.84661,-21.79571l42.29276,-25.87306c0,0 16.38146,27.07201 24.0566,26.79334c15.16848,-0.55074 51.78608,-23.17249 54.82116,-19.19605z"/><path d="M230.60724,180.46823c-11.08631,15.37263 -29.5879,32.3656 -46.86318,33.06441c-33.91082,1.37174 -9.54521,-41.34793 5.62328,-41.8987c9.3864,-0.34079 30.80647,-16.50925 41.04384,-25.54272c2.22276,-1.96135 5.62651,-3.37878 8.08142,-3.2288c3.16967,0.19362 5.90947,2.07356 7.74566,3.91391c0.77649,0.77825 1.28989,1.67952 1.77224,2.31148c7.52086,9.85355 -10.1526,21.3264 -17.40328,31.38043z"/></g><g><g fill="none" stroke-width="1" font-family="sans-serif" font-weight="normal" font-size="12" text-anchor="start"/><g fill="#00421b" stroke-width="0"><path d="M134.49951,144.1543c11.06514,-8.14738 23.94496,-9.44227 28.76777,-2.89224c4.82284,6.55 -0.23757,18.46461 -11.30271,26.61197c-11.06514,8.14736 -23.94494,9.44226 -28.76777,2.89224c-4.82284,-6.55003 0.23757,-18.46466 11.30271,-26.612z"/></g><g fill="#000000" stroke-width="0"><path d="M136.58811,148.18389c6.81599,-5.01867 14.74971,-5.81632 17.72053,-1.78159c2.97082,4.03472 -0.14631,11.37395 -6.96229,16.3926c-6.81599,5.01865 -14.74973,5.81631 -17.72053,1.78157c-2.97082,-4.03471 0.14631,-11.37395 6.96229,-16.3926z"/></g></g></g><path d="M207.25593,211.37401c-0.38256,0 -0.38256,-0.38256 -0.38256,-0.38256v-0.25505c0.14696,-3.31313 1.14416,-9.31313 -1.23358,-11.82904c-0.56246,-1.63266 -2.13826,-2.41947 -3.26649,-3.73622c-2.24645,-2.62178 -3.27195,-6.45014 -3.12202,-9.83019c0.68729,-0.74059 3.35578,-2.4704 3.55168,-3.25702c0.18172,-0.72964 -1.5444,-1.68171 -1.78633,-2.63421c-0.60399,-2.37799 1.26597,-4.33578 1.26605,-6.4548c-0.01085,-0.71456 -0.52774,-1.47067 -0.22594,-2.19128c0.80118,-1.91307 4.7721,-1.23148 5.59819,-4.04511c0.26103,-0.88901 -0.01642,-2.25647 -0.01642,-3.20467c0,0 0,-0.38256 0.38256,-0.38256c0.38256,0 0.38256,0.38256 0.38256,0.38256c0,2.60012 -0.18418,4.70801 -2.42887,6.41138c-0.64832,0.49197 -2.90929,0.30285 -3.21114,1.13122c-0.18986,0.52103 0.26701,1.33167 0.28414,1.88936c0.00008,2.10383 -1.83542,4.00825 -1.28437,6.29723c0.33335,1.38464 2.0567,1.44114 1.78424,2.97668c-0.16498,0.92978 -2.80394,2.67709 -3.58945,3.37404c0.20213,2.52438 0.5008,5.03183 1.76782,7.32184c1.17085,2.11622 3.86121,3.34733 4.56953,5.55747c0.26568,0.27581 1.41157,0.79851 1.54091,1.05544c0.85469,1.6979 -0.7155,5.24749 -0.20814,7.25437c0.24095,0.95311 0.98984,1.34639 0.76512,2.47115c-0.14363,0.71896 -0.81011,0.75268 -0.75489,1.44235v0.25505c0,0 0,0.38256 -0.38256,0.38256z" fill="#a10000" stroke-width="0.5"/><path d="M209.29625,205.25303c-0.38256,0 -0.38256,-0.38256 -0.38256,-0.38256v-0.51008c0,-2.45061 1.00081,-1.84927 2.35251,-3.26161c1.28277,-1.34033 -1.33234,-7.16162 -1.33234,-8.98035c0,-4.83905 -0.48079,-9.60533 -0.50902,-14.50899c-0.51251,-3.40851 -3.40897,-11.37766 2.1668,-11.37766c0,0 0.38256,0 0.38256,0.38256c0,0.38256 -0.38256,0.38256 -0.38256,0.38256c-4.68198,0 -1.83227,7.67098 -1.40377,10.55586c-0.02251,4.94949 0.51113,9.6857 0.51113,14.56567c0,2.45433 2.74336,7.30251 1.21808,9.38259c-0.71576,0.9761 -2.23824,1.64896 -2.23824,2.85937v0.51008c0,0 0,0.38256 -0.38256,0.38256z" fill="#a10000" stroke-width="0.5"/><path d="M214.73607,200.11182c-0.34216,-0.1711 -0.1711,-0.51326 -0.1711,-0.51326l0.25503,-0.51008c0.3088,-0.5962 0.28629,-1.16949 0.37488,-1.8396c0.57126,-1.49926 -0.28378,-3.24611 -0.89622,-4.72901c-0.66758,-1.61643 1.00318,-3.52654 1.25102,-5.05347c0.23622,-1.45534 -0.74951,-2.35474 -1.05735,-3.71016c-0.4561,-3.18338 -1.46209,-10.67508 0.90942,-13.07673c0,0 0.27052,-0.2705 0.54103,0c0.2705,0.2705 0,0.54103 0,0.54103c-2.13331,2.10162 -1.10237,9.5579 -0.69808,12.39659c0.32854,1.44094 1.32127,2.36287 1.06023,3.97183c-0.20596,1.26945 -1.84616,3.32394 -1.29938,4.6381c0.97683,2.34776 2.04216,2.34501 0.93114,5.20928c-0.09281,0.74101 -0.10386,1.31886 -0.43232,1.99431l-0.25503,0.51008c0,0 -0.1711,0.34218 -0.51326,0.17108z" fill="#a10000" stroke-width="0.5"/><path d="M220.09192,194.50093c-0.34216,-0.1711 -0.1711,-0.51326 -0.1711,-0.51326l0.22488,-0.42689c-0.02268,-1.50065 -0.01024,-3.00202 -0.01024,-4.50284c0.05134,-1.60709 1.51718,-2.96936 1.79022,-4.65202c0.42578,-2.62374 -0.00494,-5.69103 -0.00494,-8.35506c0,0 0,-0.38256 0.38256,-0.38256c0.38256,0 0.38256,0.38256 0.38256,0.38256c0,2.70755 0.42804,5.80948 -0.00494,8.47762c-0.24929,1.53626 -1.84619,3.13033 -1.78033,4.52946c0,1.55952 0.00848,3.11922 -0.01024,4.67863l-0.28519,0.59328c0,0 -0.1711,0.34218 -0.51326,0.1711z" fill="#a10000" stroke-width="0.5"/></g><path d="M270.6966,147.73077c-1.71573,9.45724 -6.36862,13.65692 -15.33217,22.43463c-8.96355,8.77773 -13.8545,14.15898 -19.91398,14.26453c-5.83141,0.10159 -13.67374,-7.80456 -21.32461,-15.88768c-8.14692,-8.60723 -13.58076,-12.97209 -14.86711,-23.16753c-1.1585,-9.18207 74.18714,-12.7981 71.43788,2.35604z" fill="#ffffff" stroke="#000000" stroke-width="1.5" stroke-linecap="butt"/><path d="M228.24647,108.77488c-1.67467,7.29687 -9.17861,12.08031 -17.17885,10.59156c-8.00024,-1.48876 -12.84246,-8.56308 -11.47281,-15.9233c1.36966,-7.36022 8.38542,-12.55878 17.15165,-11.03775c8.33824,1.44677 13.24895,8.74901 11.50002,16.36951z" fill="#ffffff" stroke="#000000" stroke-width="1.4" stroke-linecap="butt"/><path d="M221.34595,107.35759c-0.78904,4.24013 -4.86598,7.0378 -9.10611,6.24874c-4.24013,-0.78904 -7.03778,-4.86598 -6.24874,-9.10611c0.78904,-4.24013 4.86597,-7.03778 9.10611,-6.24874c4.24013,0.78904 7.03778,4.86597 6.24874,9.10609z" fill="#00421b" stroke="none" stroke-width="1.5" stroke-linecap="butt"/><path d="M267.15718,82.94575c0,0 2.33254,0.48673 6.51242,1.69902c3.81784,1.1073 6.8086,2.66879 6.8086,2.66879l0.29855,1.79092c0,0 -11.09371,-4.78962 -23.13088,-3.78062c-9.62463,0.80681 -15.24612,4.30366 -15.24612,4.30366l0.07001,-6.39157c0,0 4.78581,-2.60786 12.03333,-2.83948c7.50475,-0.23982 12.38097,0.90476 12.38097,0.90476z" data-paper-data="{&quot;index&quot;:null}" fill="#000000" stroke="none" stroke-width="1.5" stroke-linecap="butt"/><path d="M247.62492,148.72724c0.87285,0.3242 4.71862,2.14146 9.21797,3.9723c4.53519,1.84543 11.03861,3.50876 11.00877,3.76517c-0.03789,0.32541 -15.96776,0.34727 -20.93279,0.96748c-4.16077,0.51973 -10.23531,1.0798 -10.23531,1.0798c0,0 -10.87088,-1.77767 -20.30995,-3.74177c-7.56509,-1.57415 -15.91346,-2.54186 -15.92978,-2.68498c-0.02202,-0.19301 5.91952,-1.08756 10.44265,-2.13419c1.75343,-0.75994 8.32409,-2.27261 8.32409,-2.27261c0,0 7.58367,-0.42489 11.6425,0.88601c4.349,1.40463 4.33895,3.74231 4.7179,3.77827c0,0 1.81236,-2.67689 3.62494,-3.22057c1.81259,-0.54367 7.777,-0.63709 8.42902,-0.39493z" fill="#ffffff" stroke="#000000" stroke-width="1.4" stroke-linecap="butt"/><path d="M219.08893,155.69535c7.79069,1.57116 18.23679,4.29595 18.23679,4.29595c0,0 8.85975,-2.38083 12.92564,-2.80708c3.15218,-0.33047 17.16323,-1.08118 17.23096,-0.51075c0.06623,0.55773 -13.81994,19.74067 -32.36175,19.04718c-21.07077,-0.66685 -34.98843,-23.16116 -34.93052,-23.41997c0.0579,-0.25881 11.1082,1.82352 18.8989,3.3947z" fill="#ffffff" stroke="#000000" stroke-width="1.9" stroke-linecap="butt"/><path d="M235.88223,151.11428c-1.58191,0 -5.41416,-4.98924 -5.79458,-8.20778c-0.34037,-2.87971 2.01246,-5.85776 5.79458,-5.85776c3.78214,0 6.43024,0.751 6.16687,6.40948c-0.22352,4.80218 -2.38475,7.65608 -6.16687,7.65608z" fill="#ffffff" stroke="#000000" stroke-width="1.15" stroke-linecap="butt"/><path d="M240.68517,129.40932c-0.453,11.47551 -0.93692,29.04035 -0.93692,29.04035l-4.56269,0.01322c0,0 -1.2287,-6.38532 -1.7188,-14.53701c-0.11862,-1.97295 -0.21681,-12.45382 -0.30083,-14.54333" fill="#ffffff" stroke="#000000" stroke-width="1.3" stroke-linecap="round"/><path d="M241.9031,105.34984c0.31145,-7.4801 6.81363,-13.55563 14.95123,-13.55563c8.13758,0 14.19231,6.06906 14.19231,13.55563c0,7.48657 -5.9463,13.88092 -14.84283,13.98932c-8.46221,0.10312 -14.62596,-6.17748 -14.30071,-13.98932z" fill="url(#color-17)" stroke="#000000" stroke-width="1.4" stroke-linecap="butt"/><path d="M205.7972,89.21406c0,0 5.15636,-2.78352 12.2916,-3.49168c7.90675,-0.78476 11.8873,-0.10142 11.8873,-0.10142l0.45154,6.33134c0,0 -5.86932,-1.04156 -12.26943,-0.79746c-8.55937,0.32645 -10.1683,2.19273 -16.67621,2.89398c-5.57634,0.60087 -10.30961,0.24306 -10.30961,0.24306l-0.03962,-1.88457c0,0 5.50149,0.11321 8.00886,-0.10461c2.06949,-0.17979 6.0838,-1.43549 6.0838,-1.43549z" fill="#000000" stroke="none" stroke-width="1.5" stroke-linecap="butt"/><path d="M242.83173,105.74762c0.01443,-0.06119 0.03128,-0.12173 0.05073,-0.18156c0,0 0.12097,-0.36293 0.48389,-0.24195c0.36293,0.12097 0.24196,0.48391 0.24196,0.48391c-0.00836,0.02436 -0.0164,0.04865 -0.02412,0.07287c0.76203,0.01299 1.33128,0.09137 2.0907,0.56143c-0.08808,0.50233 1.65179,0.13838 2.25547,0.21563c2.21136,0.28299 5.00205,-0.07813 6.99298,0.61647c0.78088,0.77008 2.91345,1.86806 4.05194,1.31095c0.66928,-0.32752 0.24104,-1.5496 0.90168,-1.88479c0.27635,-0.14022 3.35269,-0.04341 4.07348,0.137c0.43744,-0.00174 1.95712,0.2473 2.32083,-0.03527c0.76339,-0.59309 0.03846,-4.07895 3.13468,-2.6164c0.77767,0.36734 0.83144,1.30241 0.35523,1.9161c-0.33975,0.43783 -0.91059,0.51503 -0.88419,0.54143c-0.02646,1.3029 1.19905,2.15605 1.52001,3.35515c0.39451,1.47389 -1.78687,5.66113 -2.53649,7.17913c-1.12329,1.45967 -3.03295,1.75606 -4.47128,2.57054c-0.29228,0.1655 -0.60261,1.6327 -1.11803,2.03481c-1.42469,1.11149 -4.14237,0.41228 -5.70852,-0.22664c-1.50466,-0.00828 -1.36264,2.34712 -3.32582,1.50803c-2.37647,-1.01575 -3.67921,-4.51627 -3.67921,0.79424c0,3.22631 -1.96125,1.7301 -3.3584,0.04875c-2.14742,-2.58425 -1.35681,-5.13918 -2.81688,-7.83784c-1.70768,-2.2705 -1.3455,-3.27725 -0.31185,-5.71141c0.45829,-1.07925 -0.39006,-2.72869 -0.30484,-4.14738l-0.09414,-0.14121c0,0 0,-0.21411 0.16019,-0.32198z" fill="#a10000" stroke="none" stroke-width="0.5" stroke-linecap="butt"/><g stroke="none" stroke-linecap="butt"><g data-paper-data="{&quot;index&quot;:null}"><g fill="#008235" stroke-width="0"><path d="M248.08637,99.70201c2.93483,-4.05097 40.10584,17.64944 55.28335,17.82127c7.67972,0.08695 23.38011,-27.38564 23.38011,-27.38564l42.9256,24.80901c0,0 -13.46519,15.69345 -20.2959,22.30943c-12.31694,11.92973 -27.20418,22.20005 -39.34215,22.01239c-33.93449,-0.52463 -64.79101,-55.6464 -61.95101,-59.56645z"/><path d="M262.36325,127.51201c-7.49946,-9.86987 -25.45385,-20.89785 -18.18136,-30.93613c0.46642,-0.6438 0.95715,-1.55761 1.71397,-2.355c1.78967,-1.88563 4.48168,-3.83339 7.64552,-4.10611c2.4504,-0.21122 5.88848,1.12078 8.15953,3.02601c10.45973,8.77504 32.27682,24.40363 41.66881,24.50995c15.17751,0.17185 40.60216,42.26984 6.66766,41.74523c-17.28733,-0.26726 -36.20745,-16.79297 -47.67413,-31.88401z"/></g><g><g fill="none" stroke-width="1" font-family="sans-serif" font-weight="normal" font-size="12" text-anchor="start"/><g fill="#00421b" stroke-width="0"><path d="M357.53432,88.80971c11.26513,7.86854 16.62146,19.65309 11.96366,26.3215c-4.65778,6.6684 -17.56588,5.69548 -28.83101,-2.17306c-11.26513,-7.86854 -16.62146,-19.65309 -11.96366,-26.32147c4.65778,-6.66841 17.56588,-5.6955 28.83101,2.17306z"/></g><g fill="#000000" stroke-width="0"><path d="M355.54699,92.89023c6.93917,4.84691 10.23858,12.10603 7.36943,16.21365c-2.86913,4.10765 -10.82032,3.50833 -17.75949,-1.33857c-6.93917,-4.84691 -10.23858,-12.10601 -7.36943,-16.21365c2.86915,-4.10765 10.82032,-3.50835 17.75949,1.33858z"/></g></g></g><g fill="#a10000" stroke-width="0.5"><path d="M249.06521,93.18234c-0.07233,0.05813 -0.29448,0.20084 -0.51663,-0.0213c-0.2705,-0.27052 0,-0.54103 0,-0.54103l0.07108,-0.07106c3.07359,-3.03706 6.1826,-0.84379 9.60048,-0.56105c2.46864,1.96874 2.93997,0.00634 5.12966,0.85525c2.81759,1.09235 2.15898,7.3352 1.07515,9.46189c-1.04952,0.91974 -2.41633,0.22247 -3.31682,0.96266c-0.92203,0.7579 -1.56108,2.12597 -2.82791,2.53184c-0.47943,0.15359 -1.51557,0.0335 -1.82929,-0.46591c-1.04286,-1.66016 0.59115,-4.22169 -1.04516,-5.96866c-1.20674,0.02629 -1.08669,1.97709 -2.71902,1.53933c-2.46792,-0.66185 -3.48348,-5.09735 -3.62154,-7.72195z"/><path d="M254.13387,109.08385c0.09657,-0.04924 0.19411,-0.04924 0.19411,-0.04924l0.08481,0.02539c0.031,-0.00211 0.0624,-0.0041 0.09423,-0.00595c2.4358,-1.13812 5.13126,0.87297 3.77176,3.65074c-0.56261,1.14955 -1.80166,0.33047 -1.73562,1.66705c-0.15156,1.83094 -2.37343,2.78925 -3.74973,1.08398c-0.67343,-0.83438 0.57635,-2.05417 0.25555,-2.84867c-0.91545,-2.2672 -1.08357,-3.2967 1.0849,-3.52327z"/><path d="M262.18111,107.43532l0.14026,0.28052c0.53009,1.09625 0.52839,5.7633 -1.81617,3.79017c-1.34282,-1.1301 -0.37942,-3.28703 0.79603,-4.34998c0.02282,-0.08072 0.07963,-0.16277 0.20083,-0.22337c0.04721,-0.0236 0.09117,-0.03743 0.13188,-0.04375c0.17873,-0.12553 0.35783,-0.22222 0.53034,-0.28305c0,0 0.36293,-0.12098 0.48391,0.24195c0.12097,0.36293 -0.24196,0.48391 -0.24196,0.48391c-0.07035,0.02168 -0.14602,0.05682 -0.22511,0.10361z"/><path d="M246.72497,115.42825c-0.33216,-0.18981 -0.14236,-0.52195 -0.14236,-0.52195l0.28447,-0.49635c1.91073,-2.55262 -0.45197,-6.7992 2.26519,-9.36391c0.73663,-3.21794 -3.80713,-9.88563 1.5231,-9.88563c0,0 0.38256,0 0.38256,0.38256c0,0.38256 -0.38256,0.38256 -0.38256,0.38256c-4.12074,0 -0.08779,6.58065 -0.85729,9.49748c-2.64096,2.76001 -0.24527,6.68437 -2.29156,9.40709l-0.25961,0.4558c0,0 -0.1898,0.33217 -0.52195,0.14236z"/><path d="M251.37766,115.75445c-0.31831,0.21221 -0.53052,-0.10609 -0.53052,-0.10609l-0.34005,-0.51009c-0.87016,-1.3716 -0.77536,-4.52772 -0.1866,-6.00806c2.33589,-3.2008 1.67107,-7.24707 3.56327,-11.03789c0,0 0.1711,-0.34218 0.51326,-0.1711c0.34216,0.1711 0.1711,0.51326 0.1711,0.51326c-1.89695,3.7872 -1.23485,7.8289 -3.57788,11.06566c-0.46674,1.1581 -0.57452,4.19547 0.15347,5.21373l0.34007,0.51008c0,0 0.2122,0.31831 -0.10611,0.53052z"/><path d="M263.40742,115.98873c-0.38256,0 -0.38256,-0.38256 -0.38256,-0.38256l0.00551,-0.57482c0.3014,-0.86831 0.33454,-1.57805 0.33454,-2.48567c0,-4.84952 1.0884,-6.57589 -1.31982,-11.39076c0,0 -0.1711,-0.34216 0.17108,-0.51326c0.34218,-0.1711 0.51326,0.17108 0.51326,0.17108c2.43806,4.87769 1.4006,6.83181 1.4006,11.73294c0,0.93542 -0.02294,1.72231 -0.34558,2.61516l0.00551,0.44533c0,0 0,0.38256 -0.38256,0.38256z"/></g></g><path d="M220.48617,86.27646c0,-1.8684 -0.24354,-4.15737 0.85835,-5.78629c1.42708,-2.10963 4.53384,-1.89873 5.45886,-4.60416c0,-3.91092 3.23298,-10.65045 7.45598,-10.65043c5.10784,0.02626 10.18475,2.00595 15.02915,3.45927c4.73594,1.42994 9.57839,2.87183 13.9588,5.18654c4.63242,2.77917 6.44959,6.45823 6.38799,11.71675c-1.61693,3.39867 -4.9069,7.06061 -8.85467,7.35422c-0.27563,0.34011 -0.65588,0.45693 -1.16984,0.19994c-2.63589,0 -5.5629,-1.0235 -8.04927,0.19128c-3.07181,0 -4.69247,4.56881 -6.75032,5.67644c-1.53249,1.53249 -1.75392,4.625 -1.75392,6.76704c0,0 0,0.38256 -0.38256,0.38256c-0.38256,0 -0.38256,-0.38256 -0.38256,-0.38256c0,-0.07807 0.00034,-0.15699 0.00106,-0.23665c-0.10129,-0.06481 -0.15194,-0.16611 -0.15194,-0.16611l-0.05024,-0.22822c-1.60791,0.50633 -4.51373,-0.32394 -5.8078,-1.2026c-0.87239,-1.33179 -3.24017,-1.8132 -4.60207,-2.67646c-2.15396,-1.3653 -3.90577,-2.96291 -5.39381,-4.98154c-2.89519,-2.76572 -5.80119,-5.56145 -5.80119,-10.01904z" fill="#000000" stroke="none" stroke-width="0.5" stroke-linecap="butt"/><path d="M198.73317,105.00982v-13.00708h31.11498v13.00708z" fill="#000000" stroke="#000000" stroke-width="1.4" stroke-linecap="butt"/></g><text transform="translate(174.60325,43.31892) scale(0.5,0.5)" font-size="40" xml:space="preserve" fill="#ffffff" fill-rule="nonzero" stroke="none" stroke-width="1" stroke-linecap="butt" stroke-linejoin="miter" stroke-miterlimit="10" stroke-dasharray="" stroke-dashoffset="0" font-family="Curly" font-weight="normal" text-anchor="start" style="mix-blend-mode: normal"><tspan x="0" dy="0">ZEDDBOX V3</tspan></text><path d="M-53.36755,431.91466v-147.91254h224.59486v147.91254z" fill="#3c0000" stroke="none" stroke-width="0" stroke-linecap="butt"/><path d="M-74.45563,334.76531l38.63615,-85.32116l586.70713,20.09931l-38.63615,85.32116z" fill="#a10000" stroke="#000c79" stroke-width="0" stroke-linecap="butt"/><path d="M-73.25253,334.09112l28.47534,-34.39631l173.88234,84.97994l-28.47534,34.39631z" fill="#a10000" stroke="#000c79" stroke-width="0" stroke-linecap="butt"/><text transform="translate(119.00719,317.01633) rotate(0.01124) scale(1.05755,1.1122) skewX(-4.43354)" font-size="40" xml:space="preserve" fill="#ffffff" fill-rule="nonzero" stroke="#000c79" stroke-width="0" stroke-linecap="butt" stroke-linejoin="miter" stroke-miterlimit="10" stroke-dasharray="" stroke-dashoffset="0" font-family="Serif" font-weight="normal" text-anchor="start" style="mix-blend-mode: normal"><tspan x="0" dy="0">RETALIATE</tspan></text><path d="M-122.71709,374.76705v-413.56233h174.74465l90.28473,413.56233z" fill="url(#color-18)" stroke="none" stroke-width="0" stroke-linecap="butt"/><path d="M551.34327,-20.51582v413.56233h-174.74465l-90.28473,-413.56233z" data-paper-data="{&quot;index&quot;:null}" fill="url(#color-19)" stroke="none" stroke-width="0" stroke-linecap="butt"/><path d="M-36.42733,390.66438v-421.32876h552.85466v421.32876z" fill="url(#color-20)" stroke="none" stroke-width="0" stroke-linecap="butt"/></g></g></svg>