<svg version="1.1" xmlns="http://www.w3.org/2000/svg" xmlns:xlink="http://www.w3.org/1999/xlink" width="35.67311" height="35.67311" viewBox="0,0,35.67311,35.67311"><g transform="translate(-222.16345,-162.16345)"><g data-paper-data="{&quot;isPaintingLayer&quot;:true}" stroke-miterlimit="10" stroke-dasharray="" stroke-dashoffset="0" style="mix-blend-mode: normal"><path d="M229.98311,162.91345h20.03379c3.9166,0 7.06966,3.15307 7.06966,7.06966v20.03379c0,3.91659 -3.15306,7.06966 -7.06966,7.06966h-20.03379c-3.91659,0 -7.06966,-3.15307 -7.06966,-7.06966v-20.03379c0,-3.91659 3.15307,-7.06966 7.06966,-7.06966z" fill="#ffffff" fill-rule="evenodd" stroke="#000000" stroke-width="1.5" stroke-linecap="round" stroke-linejoin="round"/><g fill-rule="nonzero" stroke-linecap="butt" stroke-linejoin="miter"><path d="M251.30676,187.05967c-3.61874,5.79953 -11.61445,7.34236 -17.85893,3.44599c-6.24448,-3.89637 -8.37305,-11.75645 -4.75432,-17.55598c3.61874,-5.79953 11.61445,-7.34236 17.85893,-3.44599c6.24448,3.89637 8.37305,11.75645 4.75432,17.55598z" fill="#000000" stroke="#ffffff" stroke-width="1"/><path d="M251.7835,184.54015c-2.82783,4.53199 -9.076,5.73761 -13.95569,2.69283c-4.87969,-3.04478 -6.54306,-9.18697 -3.71523,-13.71896c2.82783,-4.53199 9.07601,-5.73761 13.9557,-2.69282c4.87969,3.04478 6.54305,9.18697 3.71522,13.71896z" fill="#ffffff" stroke="#000000" stroke-width="0"/></g></g></g></svg>