<svg version="1.1" xmlns="http://www.w3.org/2000/svg" xmlns:xlink="http://www.w3.org/1999/xlink" width="103.49827" height="264.10436" viewBox="0,0,103.49827,264.10436"><defs><linearGradient x1="265.50658" y1="234.97593" x2="265.50658" y2="254.69959" gradientUnits="userSpaceOnUse" id="color-1"><stop offset="0" stop-color="#f7aa11"/><stop offset="1" stop-color="#f75b50"/></linearGradient><linearGradient x1="247.44504" y1="187.77212" x2="247.44504" y2="241.40274" gradientUnits="userSpaceOnUse" id="color-2"><stop offset="0" stop-color="#f7aa11"/><stop offset="1" stop-color="#f75b50"/></linearGradient><linearGradient x1="241.57224" y1="253.81313" x2="241.57224" y2="312.31927" gradientUnits="userSpaceOnUse" id="color-3"><stop offset="0" stop-color="#f75b50"/><stop offset="1" stop-color="#f7aa11"/></linearGradient><linearGradient x1="242.64916" y1="266.88484" x2="258.51349" y2="110.17274" gradientUnits="userSpaceOnUse" id="color-4"><stop offset="0" stop-color="#f7aa11"/><stop offset="1" stop-color="#f75b50"/></linearGradient><linearGradient x1="248.21083" y1="153.55817" x2="241.42101" y2="161.05788" gradientUnits="userSpaceOnUse" id="color-5"><stop offset="0" stop-color="#000000" stop-opacity="0"/><stop offset="1" stop-color="#000000"/></linearGradient><linearGradient x1="248.21083" y1="153.55817" x2="241.42101" y2="161.05788" gradientUnits="userSpaceOnUse" id="color-6"><stop offset="0" stop-color="#000000" stop-opacity="0"/><stop offset="1" stop-color="#000000" stop-opacity="0"/></linearGradient><linearGradient x1="223.1459" y1="24.44589" x2="207.28157" y2="181.15799" gradientUnits="userSpaceOnUse" id="color-7"><stop offset="0" stop-color="#f7aa11"/><stop offset="1" stop-color="#f75b50"/></linearGradient><linearGradient x1="185.27095" y1="287.60288" x2="201.13528" y2="130.89079" gradientUnits="userSpaceOnUse" id="color-8"><stop offset="0" stop-color="#f7aa11"/><stop offset="1" stop-color="#f75b50"/></linearGradient><linearGradient x1="236.07038" y1="151.76988" x2="238.49612" y2="161.59141" gradientUnits="userSpaceOnUse" id="color-9"><stop offset="0" stop-color="#000000" stop-opacity="0"/><stop offset="1" stop-color="#000000"/></linearGradient><linearGradient x1="236.07038" y1="151.76988" x2="238.49612" y2="161.59141" gradientUnits="userSpaceOnUse" id="color-10"><stop offset="0" stop-color="#000000" stop-opacity="0"/><stop offset="1" stop-color="#000000" stop-opacity="0"/></linearGradient></defs><g transform="translate(-181.87939,-72.66521)"><g data-paper-data="{&quot;isPaintingLayer&quot;:true}" fill-rule="nonzero" stroke-linejoin="miter" stroke-miterlimit="10" stroke-dasharray="" stroke-dashoffset="0" style="mix-blend-mode: normal"><g stroke="none" stroke-width="1.5" stroke-linecap="butt"><g><path d="M268.66146,158.20427c-0.27096,1.66292 -2.94035,10.24052 -4.17011,18.16229c-1.14937,7.40394 -0.8728,14.23789 -0.8728,14.23789l-2.58965,-12.99859l-1.10929,-2.68087c0,0 -1.06536,2.47405 -2.22472,3.74091c-1.15936,1.26686 -3.49501,3.24279 -3.49501,3.24279l-0.01982,-4.20076c0,0 -7.27387,12.36876 -24.55902,11.90545c-16.29886,-0.57001 -25.85951,-12.54995 -25.85951,-12.54995l-9.22947,13.72628c0,0 5.23154,-14.51841 3.07026,-21.82965c-0.77016,-2.60531 -2.00859,6.47884 -2.00859,6.47884c0,0 -2.05266,-6.04833 -2.20672,-9.21959c-0.17406,-3.58294 1.21502,-11.19414 1.21502,-11.19414c0,0 -2.37576,2.1127 -5.77028,3.0468c-4.25354,1.17049 -6.95236,0.27193 -6.95236,0.27193c0,0 3.6604,-3.01818 5.67613,-5.31121c1.79546,-2.04245 2.71203,-3.78298 2.71203,-3.78298c0,0 -2.12842,1.1934 -4.26369,1.76136c-2.22791,0.59261 -4.03984,0.53257 -4.03984,0.53257c0,0 5.07239,-5.6248 7.24171,-12.2064c0.67631,-2.05192 1.15821,-4.09915 1.5003,-5.92108c2.60245,0.20367 5.37789,0.54453 7.45668,1.80135c2.24498,1.34463 2.60689,7.27316 2.6153,9.6578c2.05887,3.15402 3.42912,5.88864 6.55669,8.21183c0.96645,0.70947 3.00723,0.51059 3.72783,1.20377c0.69317,0.66679 0.72813,1.88351 1.22342,2.65738c0.39517,0.61746 1.84639,2.07209 1.7693,2.3923c-0.0281,1.63389 -0.81377,5.8665 0.56444,7.09649c0.76058,0.67878 2.703,0.04301 3.62335,0.05198c2.44205,0.03539 1.56247,2.74904 3.00751,4.1798c1.16766,1.15612 2.56923,0.24854 3.39436,2.26679c0.76412,1.46279 1.44805,4.93937 2.90465,5.80675c1.12094,0.6675 3.00358,-0.75975 3.89707,-1.33915c1.50686,-0.97716 2.71832,-2.69469 3.34739,-4.48451c0.18252,1.14571 0.6993,2.38209 1.31445,2.26791c1.26326,-0.23448 3.23673,-2.88744 4.16314,-3.77102c1.60752,-1.53361 3.56036,-2.93609 4.03222,-5.16203c0.32234,0.90257 1.467,1.26318 2.44105,0.43928c1.37699,-1.16472 2.43547,-3.52764 3.36568,-5.06104c0.5964,-0.98313 1.56446,-1.8181 2.08703,-2.82254c0.27089,-0.52065 -0.02558,-1.96264 0.49415,-1.68998c0.20647,0.10832 0.12517,0.4504 0.22794,0.66141l-0.00682,0.39651c-0.00238,0.13804 0.10762,0.25189 0.24567,0.25426c0.06147,0.00106 0.11814,-0.02016 0.1623,-0.05622l0.38828,-0.31242l-0.0172,-0.02138c2.48745,-1.53358 4.98306,-4.36259 6.71034,-6.5507c1.46882,0.79023 2.86981,-0.17591 4.16361,-1.00885c0.18804,-0.12105 2.22069,-17.33091 2.39309,-17.27984c1.48304,0.4395 -0.47161,19.27814 1.84138,18.20324c0.16946,-0.07996 0.34824,-0.20262 0.53396,-0.35297c-0.06222,2.31796 -0.26373,4.73673 -0.67283,7.15187z" fill="#cc1414"/><path d="M192.11152,119.54936c0.38076,-2.56824 0.61551,-45.54399 36.77298,-46.5104c10.69095,-0.0642 -4.03506,19.1068 1.62979,22.75353c3.77378,2.42937 29.10829,-11.41313 31.25745,-8.09312c8.09767,12.50918 6.38313,29.19407 7.81493,33.88152c3.2664,10.69363 5.81648,19.83104 5.81648,19.83104c0,0 -2.7267,-2.37549 -4.01799,-3.62288c-1.20437,-1.16343 -3.73954,-3.63157 -3.73954,-3.63157c0,0 -0.15722,5.24285 0.41589,10.82581c0.29916,2.91431 1.48045,5.72514 1.525,8.35108c-1.05725,0.83905 -2.25081,0.43202 -3.19123,1.25644c-1.42848,1.25245 -4.74367,9.03977 -6.09468,9.22668c-1.18742,0.16429 -0.42335,-7.30238 -1.50162,-6.0248c-1.44043,1.70817 -2.03607,12.48183 -3.24306,14.31121c-0.70121,1.06278 -1.94859,-6.78012 -2.80059,-5.80331c-1.02413,0.98902 -2.81049,7.72693 -3.81187,8.72466c-1.47576,1.47039 -2.14291,-2.77964 -3.47477,-1.15608c-2.63807,3.21588 -4.11166,4.5441 -8.04572,5.76941c-3.51419,0.44112 -6.83434,0.5415 -10.37651,0.48058c-4.10154,-0.07056 -6.15709,-0.38687 -9.10683,-3.42771c-2.77234,-1.98895 -5.62922,-4.08537 -8.15833,-6.29774c-2.31288,-2.0232 -5.66882,-4.88321 -6.63626,-7.87743c-0.94014,-1.00137 -1.75356,5.52211 -2.34644,4.20832c-0.8661,-1.91918 -1.413,-11.75729 -2.44789,-13.45911c-0.69235,-0.53923 -1.02237,6.41812 -1.63968,5.79422c-1.82877,-1.84828 -3.73714,-11.51285 -5.65984,-13.26283c-0.73235,-0.55029 -1.72985,1.12665 -2.46591,0.58889c-0.5229,-0.38205 -0.78506,-2.97885 -1.30416,-3.3652c0.69185,-1.33173 1.32754,-2.76526 1.81603,-4.24733c2.04818,-6.21409 2.31304,-12.38531 2.31304,-12.38531c0,0 -1.37435,0.72662 -3.34514,0.84412c-1.24586,0.07428 -2.37048,-0.0954 -2.37653,-0.09633c0.01442,-0.01518 6.27798,-6.60825 6.423,-7.58635z" fill="#000000"/><path d="M228.5502,72.66652c8.57899,-0.05152 15.27592,1.42105 20.5142,3.88923c0.54721,0.25784 1.12881,0.96824 1.48832,1.75572c0.54029,1.18344 0.80617,2.56394 1.51333,3.02749c0.64282,0.42137 1.01751,-0.65716 1.82143,-0.90093c0.71751,-0.21757 1.87221,0.38782 2.35714,0.81797c4.92224,4.3663 7.78261,9.92721 9.49611,15.54075c-0.61361,0.80742 -1.23314,1.60603 -1.84236,2.39699c-1.95936,2.54381 -5.51047,5.13577 -6.87436,7.83171c-1.57674,3.11673 -3.5046,6.04055 -5.33222,9.01513c-1.13348,1.84482 -2.31549,3.6586 -3.48255,5.48231c-0.08383,0.131 -1.03998,1.39916 -1.04268,1.39862c-0.04671,-0.00948 -0.34204,-1.50104 -0.34798,-1.66944c-0.00946,-0.22476 -0.01968,-0.44938 -0.02912,-0.674c0.02093,-0.34531 0.02335,-0.69407 -0.03194,-0.99018c-0.00191,-0.10823 -0.00311,-0.2165 -0.00346,-0.32482l-0.0017,-0.49935c-0.00006,-0.13601 -0.10915,-0.2474 -0.2457,-0.24976c-0.13799,-0.00237 -0.2518,0.10753 -0.25426,0.2455c0,0 0,0 0,0.00001v0.00001l-0.0089,0.4999l0.01056,0.00018l0.00002,0.0052c0.00014,0.04048 0.0004,0.08093 0.00077,0.12139c-0.65222,2.84009 -0.1262,6.54638 -0.17435,9.34662c-0.00686,0.39839 -0.27903,2.39656 0.05418,2.63297c0.52065,0.36943 1.84196,-0.6489 2.50506,-0.36832c1.44702,0.61228 1.76334,3.43236 2.5387,4.60955c0.78193,1.34908 2.37722,0.14494 3.23761,0.95493c1.1157,1.05034 -1.59277,5.19796 -2.00911,6.24072c-1.16111,2.90898 -3.35646,6.79955 -3.40858,9.83038c-0.06548,3.80747 -1.45425,6.48369 -0.25114,10.34466c1.01974,3.27007 1.14611,6.88908 1.89864,10.25768c0.27755,2.2245 0.45188,4.45055 0.60793,6.68053c-3.41953,3.63073 -10.50432,9.07122 -22.07565,8.76107c-9.6091,-0.33605 -16.87616,-4.63795 -21.22282,-8.11267c0.01853,-3.03581 -0.06836,-6.52807 0.636,-9.36817c0.14229,-0.5738 0.13309,-1.40036 0.3559,-1.92484c0.52293,-1.23104 2.16417,-1.65781 2.60284,-2.98952c0.46676,-1.41694 0.60699,-2.91287 1.16436,-4.34541c0.05982,-0.66047 0.4005,-2.20252 -0.24983,-2.70127c-0.65545,-0.50267 -2.21537,0.12678 -2.98293,-0.3715c-1.10429,-0.71688 -1.44343,-3.28149 -1.80275,-4.43697c-0.89608,-3.40679 -1.59729,-6.6851 -2.3907,-10.10165c-0.40692,-1.75185 -1.29528,-2.36848 -2.0455,-3.89726c-0.88601,-1.8055 -1.38902,-3.69683 -2.11156,-5.57725c-0.84847,-1.82289 -2.33569,-5.99929 -4.43895,-6.76831c-0.67837,-0.24803 -1.85385,-0.04605 -2.58022,-0.0587c-0.49766,-0.01224 -0.99626,-0.0172 -1.49371,-0.03664c-0.23836,-0.00932 -0.91109,0.12826 -0.71558,-0.0084c2.05402,-1.43579 4.10959,-3.26739 5.922,-5.09232c2.46736,-2.48443 4.92936,-4.97231 7.36549,-7.48739c1.27684,-1.3182 4.74877,-3.8365 5.09566,-5.6707c0.17804,-0.94143 -0.94415,-2.07954 -1.42973,-2.7772c-1.96116,-2.49147 -3.5977,-6.68358 -6.10095,-8.4668c-1.84641,-1.31533 -3.90585,-2.30885 -5.91274,-3.39118c4.65514,-11.10648 13.75199,-21.94631 31.70772,-22.42623z" fill="#cc1414"/></g><path d="M228.68087,72.82834c6.65879,-0.04117 12.18364,0.843 16.77252,2.40351c-0.10671,3.21262 -0.44282,5.9335 -1.38762,9.12933c-0.45047,1.52567 -0.50464,3.37751 -1.17009,4.82059c-0.70698,1.53316 -2.28346,3.0146 -3.28291,4.3855c-0.22848,0.31827 -0.45163,1.58489 -0.74465,1.73754c-0.97456,0.50764 -3.74172,-0.87205 -4.55663,-0.02712c-0.55086,0.57115 0.38526,3.47869 0.51376,4.20173c0.61443,3.45712 1.01993,6.97249 1.41364,10.46332c0.15616,1.38456 -0.16138,3.31457 0.48753,4.57616c0.84779,1.64831 2.89086,2.82773 1.37772,4.97757c-1.35476,1.17336 -3.86768,-0.14083 -5.14011,0.91662c-0.74196,0.61661 -0.5687,3.81839 -1.15899,4.89829c-0.8993,1.64525 -2.14076,5.93363 -0.2185,7.44582c0.68592,0.53959 2.07452,0.75058 2.89982,1.04367c1.09267,0.38805 5.29084,1.33803 5.72104,2.52374c0.03964,0.10924 -1.16747,2.94196 -1.21569,3.54582c-0.0794,1.00775 -2.05972,4.03641 -1.41259,4.81232c0.51215,0.61405 4.46463,2.07004 3.54406,3.01078c-0.05143,1.24481 0.47005,1.34449 0.84815,2.3555c0.91504,2.44672 -1.31241,5.42856 -2.74852,6.83007c-0.21614,0.45543 -0.56604,0.79856 0.04279,1.25618c0.42859,0.32215 2.08609,0.07421 2.63151,0.08358c2.01315,0.03463 3.34182,0.29167 5.05712,0.96579c0.44174,0.17361 0.84762,-0.24649 1.0534,0.21494c-2.35743,2.79577 -3.90217,5.3685 -5.89457,8.32038c-1.53338,3.31009 0.57328,7.23212 1.67131,10.3018c0.83353,2.33026 1.83716,4.6274 2.88385,6.87836c-3.9687,2.67734 -9.67985,5.03273 -17.37466,4.82593c-5.54046,-0.19453 -10.30212,-1.71767 -14.17426,-3.64368c0.26634,-0.89082 0.50287,-1.79578 1.01595,-2.56581c1.47798,-3.38336 2.83575,-6.22179 2.82843,-10.00176c0.46945,-0.79416 0.26537,-2.03773 0.28115,-2.95527c0.04331,-2.51876 0.08664,-5.03752 0.12996,-7.55627c0.04257,-2.47517 -0.18753,-4.96621 -0.08083,-7.47581c0.04573,-1.07584 0.80966,-1.86532 0.57615,-2.96962c-0.8869,-2.05497 -2.01968,-3.90871 -3.62757,-5.50142c-0.42884,-0.4248 -1.41063,0.04764 -1.74685,-0.45477c-0.04943,-0.07385 0.61609,-1.45352 0.68051,-1.61947c0.44807,-0.81093 2.70636,-2.88415 2.73865,-3.59844c0.05827,-1.28875 -1.94683,-4.08693 -2.27987,-5.57121c-0.22187,-0.98614 -0.2255,-1.90586 -0.1507,-2.91758c0.00451,-0.06101 0.05012,-0.11875 0.11574,-0.17238c0.33095,0.00736 0.88537,0.00671 0.9311,-0.10572c0.30879,-0.75919 -0.54489,-0.98645 -0.95991,-0.829c-0.19606,0.07438 -0.34289,0.22046 -0.45062,0.41572c-1.34964,-0.09699 -2.76697,0.11457 -4.10149,-0.14703c-2.10205,-2.31266 4.45314,-5.25256 5.59457,-6.98518c1.21112,-0.6142 1.34349,-2.93517 1.70204,-4.11875c0.55309,-1.82585 1.77437,-2.43636 3.36229,-2.88717l0.43879,0.00754c0.13805,0.00237 0.25189,-0.10846 0.2543,-0.24758c0.00173,-0.10055 -0.05525,-0.18836 -0.13911,-0.23019l-0.43508,-0.22867l-0.0008,0.00157l-0.00495,-0.00449c-0.14918,-0.06881 -0.29837,-0.13762 -0.44754,-0.20644c-3.32169,-1.53146 -5.78357,-3.4056 -9.3917,-4.47204c-0.89651,-0.18189 -1.79891,-0.35693 -2.70244,-0.53555c0.5984,-0.68751 1.04835,-1.36783 1.16219,-1.97396c0.17817,-0.94866 -0.94388,-2.09531 -1.42937,-2.79823c-1.17472,-1.50388 -2.23284,-3.62284 -3.43066,-5.4664c3.05355,-1.7047 6.09349,-3.38156 9.0905,-5.19001c3.19043,-1.92516 5.6526,-4.18363 6.3115,-8.03635c0.48539,-0.65485 1.51944,-3.02886 1.21666,-3.90748c-0.3824,-1.1097 -4.85008,-2.37017 -5.95906,-2.82904c-1.57836,-1.47462 -3.24937,-2.84117 -4.8317,-4.3084c-0.00839,-0.00777 -0.01695,-0.01559 -0.02568,-0.02347c4.58742,-2.7956 10.27387,-4.59701 17.32703,-4.78791z" fill="#da7f7f"/></g><g><g><g><path d="M246.33696,234.97593l34.35019,19.72366" fill="none" stroke="url(#color-1)" stroke-width="3" stroke-linecap="round"/><path d="M202.41183,312.82085c0,0 -0.63536,-94.38387 -0.79335,-118.01201c-0.05451,-8.15261 8.18688,-36.76129 40.20201,-36.9211c31.60235,-0.15775 39.85672,29.48704 39.84884,36.89673c-0.02888,17.43724 -2.60024,38.50046 -3.03159,57.9757c-0.71256,32.17216 0.58328,60.01079 0.58328,60.01079l-11.16151,0.31775c0,0 -0.00431,-42.26094 0.61926,-62.14406c0.57544,-18.34836 2.98936,-52.92067 2.98936,-52.92067c0,0 0.07549,-3.0993 -2.81625,-3.15415c-3.43441,-0.06514 -2.7399,117.98557 -2.7399,117.98557l-48.21366,0.07222c0,0 -0.0259,-118.15209 -3.19099,-118.16752c-3.11083,-0.01515 -2.81569,2.90899 -2.81569,2.90899l0.35311,115.0668z" fill="#ffffff" stroke="#000000" stroke-width="2" stroke-linecap="butt"/><path d="M257.00897,208.76302c-0.57113,0 -1.03411,-0.46299 -1.03411,-1.03411c0,-0.57113 0.46299,-1.03413 1.03411,-1.03413c0.57113,0 1.03411,0.463 1.03411,1.03413c0,0.57113 -0.46299,1.03411 -1.03411,1.03411z" fill="#000000" stroke="none" stroke-width="1.5" stroke-linecap="butt"/><path d="M251.74912,212.99861c-4.4635,-0.31439 -6.55245,-1.79392 -6.16985,-2.58011c0.11788,-0.24224 2.84645,1.06355 6.97038,1.3048c6.40897,0.37493 8.51033,-0.63173 8.51033,-0.63173v1.34616c0,0 -2.4135,1.04672 -9.31086,0.56089z" fill="#000000" stroke="#000000" stroke-width="0" stroke-linecap="butt"/><path d="M223.93637,207.72891c0,-0.57113 0.46299,-1.03413 1.03411,-1.03413c0.57113,0 1.03413,0.463 1.03413,1.03413c0,0.57113 -0.463,1.03411 -1.03413,1.03411c-0.57113,0 -1.03411,-0.46299 -1.03411,-1.03411z" fill="#000000" stroke="none" stroke-width="1.5" stroke-linecap="butt"/><path d="M230.23035,212.99861c-6.89736,0.48585 -9.31086,-0.56089 -9.31086,-0.56089v-1.34616c0,0 2.10136,1.00666 8.51033,0.63173c4.12393,-0.24126 6.85251,-1.54704 6.97039,-1.3048c0.3826,0.78618 -1.70634,2.26571 -6.16985,2.58011z" fill="#000000" stroke="#000000" stroke-width="0" stroke-linecap="butt"/><path d="M241.51079,269.55036c-0.81895,0 -1.48284,-0.66389 -1.48284,-1.48284c0,-0.81895 0.66389,-1.48284 1.48284,-1.48284c0.81895,0 1.48284,0.66389 1.48284,1.48284c0,0.81895 -0.66389,1.48284 -1.48284,1.48284z" data-paper-data="{&quot;index&quot;:null}" fill="#000000" stroke="none" stroke-width="1.5" stroke-linecap="butt"/><path d="M217.44756,336.76957l-3.54583,-140.69804l-12.632,-15.91618l8.56126,-12.69841l17.44424,-8.70151c0,0 -0.34206,19.66088 2.20526,36.47051c-0.00333,1.194 -0.01459,2.38808 -0.01459,3.58104c0,3.54301 0.29514,6.97938 0.66916,10.50209c0.97999,2.98618 1.47592,7.10974 1.54064,10.28754c0.00965,2.8428 -0.31842,6.25472 0.3498,9.01643l0.05744,0.48208c0.01319,0.12566 0.11947,0.22359 0.24862,0.22359c0.08838,0 0.16605,-0.04586 0.21051,-0.11509l0.27418,-0.41343l-0.04301,-0.02852c0.96974,-1.22733 1.20209,-2.60549 2.00243,-3.98809c0.78867,-1.36244 2.13497,-2.42531 3.015,-3.75744c-0.0479,0.72674 0.25991,1.63849 0.3029,2.31624c0.14582,2.29887 0.01527,4.64597 0.01527,6.9493c0,2.99368 0.26655,5.83777 0.65088,8.76284c-0.8612,-0.07456 -2.05813,-0.1751 -2.40346,0.108c-0.97682,0.8008 0.2369,1.66228 0.47474,2.3285c-0.13956,0.25735 -0.26713,0.51893 -0.38552,0.78369c-0.5406,0.41623 -1.39895,0.79406 -1.81122,1.54968c-0.53647,1.43768 -0.31395,2.32671 0.11032,3.20145c-0.04583,0.11268 -0.09299,0.22481 -0.14169,0.33631c-0.11454,1.24058 0.14059,2.36694 0.4557,3.48009c-0.16724,0.88578 -0.03948,1.95798 -0.04308,2.83277c-0.0019,1.7403 0.20967,3.2278 0.54085,4.74174c0.13665,1.36578 0.54888,2.94702 0.21588,4.18178c-0.12108,0.44897 -0.24935,0.82053 -0.3525,1.15405c-0.77834,0.33215 -1.44387,1.00585 -0.89901,1.90954c0.44149,0.73224 1.24773,1.19246 1.95316,1.67761c2.05841,2.49189 4.83894,4.92728 7.17031,7.24929c0.05871,0.29437 0.15208,0.56332 0.2955,0.78963l0.10806,0.44966c0.02447,0.1124 0.12454,0.19657 0.24428,0.19657c0.11485,0 0.2116,-0.07744 0.24091,-0.18295l0.07455,-0.24622c0.4294,0.47183 0.79478,0.89577 1.18492,1.28933c0.2472,1.04314 0.49837,2.24795 1.06782,2.4276c0.47131,0.14869 0.88325,-0.21819 1.22815,-0.76473c0.00116,0.00059 0.00234,0.00117 0.0035,0.00176l0.39836,0.05498c0,0 0.2488,0.0245 0.2733,-0.22429c0.02451,-0.24879 -0.22429,-0.2733 -0.22429,-0.2733l-0.20064,-0.00592c0.41408,-0.82245 0.70527,-1.81262 0.85533,-2.17209c0.0113,-0.129 0.02736,-0.25473 0.04719,-0.37794c0.20627,-0.03308 0.4102,-0.081 0.61142,-0.14245c0.00119,0.03693 0.00184,0.06621 0.00184,0.08684v0.48905c0,0.13807 0.11193,0.25 0.25,0.25c0.13807,0 0.25,-0.11193 0.25,-0.25c0,0 0,-0.41583 0,-0.48905c0,-0.03585 0.00139,-0.08474 0.00377,-0.14484c0.01148,-0.04692 0.02271,-0.09394 0.03367,-0.14107c2.63229,-1.13965 4.71426,-4.50601 5.33565,-6.93417c0.02842,-0.84625 0.49077,-3.51004 -0.0143,-4.18697c-0.51894,-0.69553 -2.45926,-0.62219 -3.73707,-0.65253c0.84336,-2.42358 2.06877,-4.76989 2.55751,-7.21501c0.73679,-3.02177 0.60142,-7.43429 0.08724,-10.50221c-0.07215,-1.58161 -0.48328,-3.26152 -0.9613,-4.94571c0.18873,-0.48163 0.35282,-1.03302 0.41608,-1.19402c0.77221,-1.16704 1.12949,-2.26048 1.46824,-3.60336c0.3152,1.57145 0.8876,2.95417 0.95719,4.64063l0.02262,0.03353l-0.01204,0.00441l0.16986,0.46406c0.03349,0.0986 0.12685,0.16955 0.23677,0.16955c0.13239,0 0.24075,-0.10291 0.24944,-0.2331l0.03801,-0.49635l-0.04287,-0.00328c0.65569,-2.74924 0.33604,-6.9669 -0.0072,-9.54443c-0.46971,-3.49846 -0.5958,-6.90716 -0.59601,-10.4329c-0.00021,-3.50252 0.39078,-6.97562 0.41736,-10.46957c0.02598,-3.51425 0.24443,-6.95196 0.64996,-10.44268c0.03339,-3.5053 0.04064,-7.01002 0.04065,-10.51546c0.00001,-3.5 0.00002,-7 0.00002,-10.5c0,-3.5 0,-7 0,-10.5c-0.00099,-2.98318 -0.37675,-5.98841 -0.80153,-8.94979l12.60078,4.56573l12.53964,14.19201l-12.98287,15.0826l-2.43776,119.80474z" fill="#f7dfaf" stroke="#000000" stroke-width="0" stroke-linecap="butt"/><path d="M251.26437,266.09145c0.12434,-0.73864 0.31718,-1.465 0.54975,-2.18361c1.18311,0.02381 3.08752,-0.03704 3.50218,0.47473c0.36055,0.44497 -0.06605,3.16358 -0.08379,3.81207c-0.55676,2.12059 -2.39834,5.22408 -4.71668,6.41253c0.5159,-2.75434 0.29223,-5.80495 0.74853,-8.51571z" fill="#f7dfaf" stroke="#000000" stroke-width="0" stroke-linecap="butt"/><path d="M237.39216,267.01524c0.95949,1.09927 2.09522,1.52164 3.15068,2.44526c0.3041,0.26612 0.65946,1.14004 1.09056,1.20771c0.79789,0.12525 1.53197,-1.5312 1.95009,-1.52267c0.06199,0.00126 0.05771,2.04486 0.05866,2.21766c0.00357,0.65458 -0.10041,1.51033 -0.08486,2.31287c-1.11874,-1.13399 -2.04529,-2.52274 -3.3711,-3.31889c-0.16054,-0.09622 -0.36943,-0.2368 -0.61046,-0.41195c-0.99508,-0.99026 -1.94726,-1.99374 -2.77658,-3.00705c-0.4304,-0.52371 -1.34579,-1.54075 -1.50733,-2.27537c0.1202,-0.34618 0.48555,-0.59244 1.1869,-0.68398c0.26867,-0.23417 0.41883,-0.47421 0.49081,-0.72338c-0.2686,1.53791 -0.25889,2.93435 0.42264,3.75981z" fill="#f7dfaf" stroke="#000000" stroke-width="0" stroke-linecap="butt"/><path d="M238.91792,240.20904c-0.24138,0.00689 -0.48955,0.05574 -0.72709,0.13683c-0.14202,0 -0.28405,0 -0.42607,0c0,0 -0.25,0 -0.25,0.25c0,0.03094 0.00383,0.05804 0.01054,0.0818c-0.1774,0.12148 -0.33236,0.26089 -0.45243,0.41129c-0.35771,-0.57947 -0.89821,-1.141 -0.39961,-1.54975c0.21212,-0.1739 1.35859,-0.06722 2.15321,0.00558c0.02989,0.22085 0.0604,0.44224 0.09147,0.66426z" fill="#f7dfaf" stroke="#000000" stroke-width="0" stroke-linecap="butt"/><path d="M235.08901,244.02224c0.26525,-0.48605 0.65719,-0.7671 1.04538,-1.00558c-0.42541,1.10666 -0.74127,2.24995 -1.14329,3.35647c-0.23605,-0.61036 -0.29408,-1.30545 0.09791,-2.35089z" fill="#f7dfaf" stroke="#000000" stroke-width="0" stroke-linecap="butt"/><path d="M235.67949,248.862c0.1139,0.27448 -0.12471,0.77172 -0.33039,1.19218c-0.19015,-0.77387 -0.31631,-1.5655 -0.2731,-2.4058c0.20262,0.37236 0.417,0.76422 0.60348,1.21362z" fill="#f7dfaf" stroke="#000000" stroke-width="0" stroke-linecap="butt"/><path d="M235.71912,253.2644c0.19009,0.90863 0.05585,1.86241 -0.06702,2.80911c-0.08776,-0.77146 -0.13752,-1.5661 -0.13661,-2.40718c0.00099,-0.2411 0.03841,-0.54089 0.09552,-0.87449c0.03863,0.15656 0.07494,0.31399 0.10811,0.47256z" fill="#f7dfaf" stroke="#000000" stroke-width="0" stroke-linecap="butt"/><path d="M236.25614,262.71431c0.08503,-0.33831 0.12141,-0.69398 0.12633,-1.05974c0.17499,0.67477 0.32736,1.53492 -0.10051,1.8646c-0.19909,0.01724 -0.42159,0.06465 -0.64323,0.13978c0.22956,-0.23818 0.50133,-0.4828 0.61741,-0.94464z" fill="#f7dfaf" stroke="#000000" stroke-width="0" stroke-linecap="butt"/><path d="M249.77575,273.48065c0.00721,0.27747 0.01768,0.56014 0.02864,0.82318c-0.01843,0.20649 -0.0247,0.41142 -0.00978,0.60343c-0.14781,0.04722 -0.2971,0.08611 -0.4477,0.116c0.12667,-0.52117 0.29887,-1.01372 0.42884,-1.54261z" fill="#f7dfaf" stroke="#000000" stroke-width="0" stroke-linecap="butt"/><path d="M245.52145,275.89183c-0.11391,-0.12996 -0.22976,-0.26381 -0.35027,-0.40198c0.06406,0.02436 0.1308,0.04589 0.19984,0.06488c0.05399,0.09302 0.10366,0.20718 0.15043,0.3371z" fill="#f7dfaf" stroke="#000000" stroke-width="0" stroke-linecap="butt"/><path d="M253.06665,241.06826c-0.14976,0.15305 -0.10969,-0.41447 -0.14753,-0.62523c-0.07302,-0.40672 -0.15413,-0.81124 -0.22642,-1.21788c0.1613,0.54902 0.32483,1.1008 0.48102,1.65199c-0.0366,0.0886 -0.07258,0.15587 -0.10707,0.19111z" fill="#f7dfaf" stroke="#000000" stroke-width="0" stroke-linecap="butt"/><path d="M244.65745,276.17804l0.0872,-0.288c1.24713,-1.3965 1.059,3.38609 2.24009,3.7587c1.22028,0.38497 2.0426,-2.68621 2.33371,-3.3836c0.07766,-0.88663 0.38045,-1.6189 0.58183,-2.4384c0.00721,0.27747 0.01769,0.56014 0.02865,0.82318c-0.02947,0.33022 -0.02784,0.65645 0.0418,0.93225c0.00506,0.11761 0.00817,0.20425 0.00817,0.24941v0.48906c0,0.13807 0.11193,0.25 0.25,0.25c0.13807,0 0.25,-0.11193 0.25,-0.25c0,0 0,-0.41583 0,-0.48906c0,-0.03585 0.0014,-0.08474 0.00377,-0.14484c0.71918,-2.9379 0.40899,-6.29533 0.90622,-9.24922c0.57343,-3.40656 2.60392,-6.55199 3.26925,-9.88055c0.7368,-3.02176 0.60143,-7.43429 0.08724,-10.50221c-0.07215,-1.58161 2.26672,-3.26152 1.7887,-4.94571c0.18874,-0.48163 -2.39718,-1.03302 -2.33392,-1.19402c0.77222,-1.16703 1.12949,-2.26048 1.46825,-3.60336c0.3152,1.57145 0.88761,2.95417 0.95719,4.64064l0.02262,0.03353l-0.01204,0.00441l0.16986,0.46406c0.03349,0.0986 0.12684,0.16954 0.23677,0.16954c0.13239,0 0.24075,-0.10291 0.24944,-0.2331l0.038,-0.49635l-0.04287,-0.00328c0.65569,-2.74925 0.33605,-6.9669 -0.00719,-9.54444c-0.46971,-3.49846 -0.5958,-6.90716 -0.59601,-10.4329c-0.0002,-3.50252 0.39078,-6.97562 0.41737,-10.46958c0.02598,-3.51425 0.24443,-6.95196 0.64996,-10.44267c0.03339,-3.5053 0.04064,-7.01002 0.04065,-10.51546c0.00002,-3.5 0.00002,-7 0.00002,-10.5c0,-3.5 0,-7 0,-10.5c-0.00099,-2.98318 -0.37676,-5.98841 -0.80154,-8.94978l12.60078,4.56573l12.53964,14.19201l-12.98287,15.0826l-2.43776,119.80474l-22.9724,11.18939c0.3627,-2.71046 0.68928,-5.41241 0.86051,-8.15214c0.21882,-3.50113 0.43713,-6.97705 0.43713,-10.48554c0,-3.49615 0.00128,-6.99226 -0.01042,-10.48839c-0.01171,-3.49987 -0.43281,-6.97147 -0.43281,-10.48082c0,-2.82508 0,-5.65015 0,-8.47523c0.03046,-0.03016 0.05321,-0.06811 0.06501,-0.1106z" fill="#f7aa11" stroke="#000000" stroke-width="0" stroke-linecap="butt"/><path d="M232.38803,256.54773c-0.07904,-0.5267 1.12459,-2.4237 1.40442,-3.36544c0.56552,-1.90328 0.58924,-4.52209 0.59443,-6.51538c0.00885,-3.43468 0.50369,-6.92767 0.50441,-10.43886c0.00001,-0.80684 0.44375,-3.54867 -0.05666,-4.1586c-1.60148,-1.95195 -2.44965,1.32293 -2.8581,1.94501c-0.25273,0.38492 -1.74866,0.16439 -2.15088,0.18227c-1.06333,-1.09242 -3.32943,-2.60096 -3.75186,-4.14047c-0.18377,-0.66972 0.81387,-1.49676 1.09058,-1.87258c0.3762,-0.51094 0.22292,-1.53748 0.22493,-2.13317c0.01138,-3.4152 -0.49791,-6.83317 -0.49793,-10.37825c-0.00002,-3.70138 -0.15754,-6.84094 -0.95941,-10.3939c-0.78127,-3.43551 -2.1439,-6.66727 -2.96809,-10.07279c-1.38143,-3.21437 -0.91885,-6.82176 -1.48149,-10.24322c-0.32625,-1.96436 0.2154,-4.03621 -0.0941,-5.99184c-0.22625,-1.42964 -0.94933,-2.93409 -1.40643,-4.30883c-0.87713,-3.36662 -0.59029,-6.89818 -0.59048,-10.36222c-0.00001,-1.47048 -0.00002,-2.94096 -0.00002,-4.41144c0.4475,0.12115 0.81064,0.27474 1.01082,0.46483l0.13485,0.34624c0,0 0.1032,0.2277 0.33091,0.1245c0.2277,-0.1032 0.1245,-0.33091 0.1245,-0.33091l-0.25257,-0.50857c-0.27459,-0.24447 -0.76362,-0.44002 -1.34852,-0.58979c0,-0.11032 0,-0.22064 0,-0.33096l7.63385,-3.80791c0,0 -0.34206,19.66088 2.20526,36.47051c-0.00333,1.194 -0.01459,2.38808 -0.01459,3.58104c0,3.54301 0.29514,6.97938 0.66916,10.50209c0.97999,2.98618 1.47592,7.10974 1.54064,10.28754c0.00965,2.8428 -0.31842,6.25472 0.3498,9.01643l0.05744,0.48208c0.01319,0.12566 0.11947,0.22359 0.24862,0.22359c0.08838,0 0.16605,-0.04586 0.21051,-0.11509l0.27418,-0.41343l-0.04301,-0.02852c0.96974,-1.22733 1.20209,-2.60549 2.00243,-3.98809c0.78867,-1.36244 2.13497,-2.42531 3.015,-3.75744c-0.0479,0.72674 0.25991,1.63849 0.3029,2.31624c0.14582,2.29887 0.01527,4.64597 0.01527,6.9493c0,3.55734 0.37638,6.90344 0.87949,10.4252c0.34725,2.43078 0.80146,4.82862 1.31141,7.2249c-0.57384,2.89865 -0.98331,5.80911 -1.53227,8.70904c-0.45089,2.38189 -3.12361,8.25688 -1.37529,10.37442c0.95949,1.09927 2.09522,1.52164 3.15068,2.44526c0.3041,0.26612 0.65946,1.14004 1.09056,1.20771c0.79789,0.12525 1.53197,-1.5312 1.95009,-1.52267c0.06199,0.00126 0.05771,2.04486 0.05866,2.21766c0.00642,1.17781 -0.33536,3.00687 0.29752,4.00546l0.10806,0.44966c0.02447,0.1124 0.12454,0.19657 0.24428,0.19657c0.11485,0 0.2116,-0.07744 0.24091,-0.18295l0.08719,-0.28799c1.24713,-1.3965 1.05901,3.38609 2.2401,3.7587c1.22029,0.38497 2.0426,-2.68621 2.33371,-3.3836c0.07766,-0.88663 0.38045,-1.6189 0.58183,-2.4384c0.00721,0.27747 0.01768,0.56014 0.02864,0.82318c-0.02947,0.33023 -0.02784,0.65645 0.0418,0.93226c0.00506,0.11761 0.00817,0.20424 0.00817,0.24941v0.48905c0,0.13807 0.11193,0.25 0.25,0.25c0.13807,0 0.25,-0.11193 0.25,-0.25c0,0 0,-0.41583 0,-0.48905c0,-0.03585 0.00139,-0.08474 0.00377,-0.14484c0.71918,-2.93789 0.40899,-6.29532 0.90622,-9.24921c0.57343,-3.40655 2.60392,-6.55199 3.26925,-9.88055c0.73679,-3.02177 0.60142,-7.43429 0.08724,-10.50221c-0.07215,-1.58161 -0.48328,-3.26152 -0.9613,-4.94571c0.18873,-0.48163 0.35282,-1.03302 0.41608,-1.19402c0.77221,-1.16704 1.12949,-2.26048 1.46824,-3.60336c0.3152,1.57145 0.8876,2.95417 0.95719,4.64063l0.02262,0.03353l-0.01204,0.00441l0.16986,0.46406c0.03349,0.0986 0.12685,0.16955 0.23677,0.16955c0.13239,0 0.24075,-0.10291 0.24944,-0.2331l0.03801,-0.49635l-0.04287,-0.00328c0.65569,-2.74924 0.33604,-6.9669 -0.0072,-9.54443c-0.46971,-3.49846 -0.5958,-6.90716 -0.59601,-10.4329c-0.00021,-3.50252 0.39078,-6.97562 0.41736,-10.46957c0.02598,-3.51425 0.24443,-6.95196 0.64996,-10.44268c0.03339,-3.5053 0.04064,-7.01002 0.04065,-10.51546c0.00001,-3.5 0.00002,-7 0.00002,-10.5c0,-3.5 0,-7 0,-10.5c-0.00099,-2.98318 -0.37675,-5.98841 -0.80153,-8.94979l4.27527,1.54909c0,1.02267 0,2.04534 0,3.06802c-0.36183,0.59329 -0.59785,1.22295 -0.62065,1.8632l-0.00582,0.16661c0,0 -0.00873,0.24985 0.24111,0.25858c0.24984,0.00873 0.25858,-0.24112 0.25858,-0.24112l0.00583,-0.1666c0.0081,-0.2363 0.05039,-0.47197 0.12095,-0.70516c0,1.1488 0,2.2976 0,3.44639c0,3.30401 0.58027,7.21567 -0.46427,10.35278c-0.81968,3.23418 -0.85068,7.15595 -1.02168,10.3773c-0.03904,3.50214 -0.01405,7.00562 -0.01405,10.50796c0,3.5 0,7 0,10.5c0,3.5 0,7 0,10.5c0,3.52258 -0.45038,6.97151 -0.4961,10.46247c-0.01707,3.50062 -0.00389,7.00158 -0.00389,10.50224c0,3.29105 0.6508,7.22476 -0.76087,10.23208c-0.50985,1.11658 -0.04528,2.34177 -0.23591,3.51887c-0.32452,2.0038 -1.12078,4.8785 -2.41551,6.37411c-0.30648,3.502 -1.3902,6.79974 -1.57233,10.36614c-0.04002,3.37761 -1.56353,6.79147 -3.05294,9.8104c-0.93416,1.89348 -2.16722,3.88424 -2.87792,5.81678c-0.42598,1.15834 -0.48896,2.5238 -1.22947,3.60256c-2.83435,1.46605 -5.88335,3.25833 -8.94933,4.7292c-0.17274,0.02712 -1.55585,0.70122 -1.63467,0.62025c-0.06162,-0.0633 0.12608,-1.6074 0.13104,-1.80835c0.05762,-2.33164 0.31145,-4.0902 1.0529,-6.30102c0.0128,-0.59717 -0.33783,-3.53558 -0.00857,-3.88801c0.45375,-0.48568 1.12397,-0.88028 1.69386,-1.52835c-0.03938,0.30023 -0.06584,0.59672 -0.08428,0.88106l-0.00108,0.01672l-0.03548,0.00026l0.00368,0.49975c0.00087,0.13733 0.11246,0.2484 0.24999,0.2484c0.13327,0 0.2422,-0.10429 0.2496,-0.2357l0.03224,-0.49707c0.08381,-1.29209 0.64941,-2.23547 0.96963,-3.38457c0.10997,-0.04992 0.23947,-0.08437 0.39346,-0.09997l-0.01339,-0.17291l0.08582,0.00162l0.00946,-0.49914c0.00004,-0.00184 0.00006,-0.00367 0.00006,-0.00551c0,-0.13807 -0.11193,-0.25 -0.25,-0.25c-0.06901,0 -0.13148,0.02796 -0.17672,0.07316v0l-0.35367,0.35343l0.07574,0.0758c-0.02961,0.03298 -0.05852,0.06656 -0.08674,0.10073c-0.29022,0.07774 -0.45324,0.289 -0.56129,0.55585c-0.03025,-0.44045 -0.09378,-0.78367 -0.19761,-0.91605c-1.36139,-1.73584 -3.76801,1.44862 -3.94382,-1.88653c-0.00517,-0.98647 0.54698,-4.41212 -0.06045,-5.14864c-0.47066,-0.5707 -1.54231,0.03532 -2.08773,-0.18927c-0.95238,-0.39216 -1.46864,-1.77636 -1.79387,-2.63439c-0.01053,-0.20124 -0.0467,-0.53385 -0.0914,-0.93812c0.25747,-1.82571 0.90492,-3.96065 0.56689,-5.67622c0.30569,-1.08286 0.4522,-2.46632 0.45735,-3.40161z" fill="#b57e0c" stroke="#000000" stroke-width="0" stroke-linecap="butt"/><path d="M200.46282,329.82676l-0.58857,-73.51584l2.69045,14.38785l-0.55058,-59.65719l3.15684,9.20184l3.59682,-16.19025l2.77575,19.17719l0.94428,58.54604l1.81045,-5.97623l0.34786,54.02659z" fill="#000000" stroke="none" stroke-width="0" stroke-linecap="butt"/><path d="M280.90873,187.77212c0,0 -24.22703,28.14913 -36.14722,37.70107c-10.07837,8.07604 -30.78024,15.92955 -30.78024,15.92955" fill="none" stroke="url(#color-2)" stroke-width="3" stroke-linecap="round"/><path d="M280.24393,255.14282c0,0 -21.12205,23.38756 -35.16381,32.89615c-14.10297,9.55005 -45.28212,24.2803 -45.28212,24.2803" fill="none" stroke="url(#color-3)" stroke-width="3" stroke-linecap="round"/></g><g fill="#000000" stroke="#ffffff"><path d="M213.82944,183.28365z" stroke-width="0.5" stroke-linecap="butt"/><path d="M218.15025,184.83248l-12.22218,0.05904" stroke-width="0.5" stroke-linecap="round"/><text transform="translate(205.92806,184.5963) scale(0.06197,0.06197)" font-size="40" xml:space="preserve" fill="#000000" fill-rule="nonzero" stroke="#ffffff" stroke-width="1" stroke-linecap="butt" stroke-linejoin="miter" stroke-miterlimit="10" stroke-dasharray="" stroke-dashoffset="0" font-family="Pixel" font-weight="normal" text-anchor="start" style="mix-blend-mode: normal"><tspan x="0" dy="0">DONK</tspan></text><text transform="translate(205.7802,187.10541) scale(0.06197,0.06197)" font-size="40" xml:space="preserve" fill="#000000" fill-rule="nonzero" stroke="#ffffff" stroke-width="1" stroke-linecap="butt" stroke-linejoin="miter" stroke-miterlimit="10" stroke-dasharray="" stroke-dashoffset="0" font-family="Sans Serif" font-weight="normal" text-anchor="start" style="mix-blend-mode: normal"><tspan x="0" dy="0">Industries</tspan></text><path d="M213.5448,183.23828v-0.70853h4.6645v0.70853z" stroke-width="0.5" stroke-linecap="butt"/><path d="M213.5448,184.40932v-0.68885h4.6645v0.68885z" stroke-width="0.5" stroke-linecap="butt"/><text transform="translate(204.43788,181.00708) scale(0.21474,0.21474)" font-size="40" xml:space="preserve" fill="#000000" fill-rule="nonzero" stroke="#ffffff" stroke-width="1" stroke-linecap="butt" stroke-linejoin="miter" stroke-miterlimit="10" stroke-dasharray="" stroke-dashoffset="0" font-family="Marker" font-weight="normal" text-anchor="start" style="mix-blend-mode: normal"><tspan x="0" dy="0">END</tspan></text></g></g><path d="M268.29922,314.5907l0.18564,-44.18118l3.20459,10.74039l6.44844,-15.56691l7.23977,56.61874z" fill="#000000" stroke="none" stroke-width="0" stroke-linecap="butt"/><path d="M279.84292,219.31203c0.79497,0.73946 0.79497,1.90415 0.79497,1.90415c0,5.77485 -0.16392,11.48716 -0.56284,17.25065c-0.14604,2.10988 0.62304,4.50302 -0.44363,6.32925c-2.38263,4.07926 -6.90074,3.36767 -10.60713,2.4289c-1.15282,-0.29199 -2.5722,-0.23116 -3.39809,-1.08682c-1.32863,-1.37651 -2.67185,-3.2087 -2.59304,-5.1202c0.03972,-0.96348 2.03506,-0.05716 2.82906,-0.60437c0.35017,-0.24133 -0.85679,-0.24472 -1.14975,-0.55299c-0.35595,-0.37455 -0.2905,-1.06286 -0.69336,-1.38642c-0.63865,-0.51294 -1.71607,-0.36203 -2.25342,-0.98029c-1.2104,-1.39268 -1.84395,-3.19662 -2.76592,-4.79494c1.24222,-0.81748 2.34957,-1.90941 3.65512,-2.59802c-0.41339,-0.29426 -0.7762,-0.64054 -1.00108,-1.0792c-0.80972,-1.57946 -2.0388,-3.49616 -1.37782,-5.14342c1.7963,-4.47665 4.41094,-1.3415 6.80373,-1.87434c1.10391,-0.24583 0.14783,-2.25715 0.20459,-3.38667c0.07373,-1.4673 -0.46943,-3.23106 0.43922,-4.3855c3.05916,-3.88665 5.24443,-1.62002 8.22862,-0.4015c1.50941,0.61633 3.78948,0.3106 4.57057,1.74172c0.61346,1.124 -0.15851,2.45032 -0.67979,3.74003z" fill="#000000" stroke="none" stroke-width="0.5" stroke-linecap="butt"/><path d="M258.73294,237.92336c0,0.12245 -0.006,0.23891 -0.01741,0.34966l0.66085,2.47819c0.06451,0.22189 0.0991,0.45652 0.0991,0.69922c0,1.38071 -1.11929,2.5 -2.5,2.5c-0.44574,0 -0.86424,-0.11665 -1.22662,-0.3211l-2.37189,-1.27717l0.20758,-0.38551c-0.5821,-0.28301 -1.08461,-0.66252 -1.44802,-1.21067c-0.84717,-1.27781 1.22043,-2.81291 1.83065,-4.21937l2.26576,-1.11325c0,0 2.5,0 2.5,2.5z" fill="#000000" stroke="none" stroke-width="0.5" stroke-linecap="butt"/><path d="M250.04536,227.91677c0.15534,-1.08741 0.72022,-1.62878 1.30475,-1.89401c0.18778,-1.19488 1.22195,-2.10879 2.46957,-2.10879c0.93821,0 1.75571,0.51682 2.18334,1.28129l1.25401,2.14973c0.22977,0.37805 0.36209,0.82187 0.36209,1.2966c0,1.18507 -0.82456,2.17755 -1.93126,2.43502c-0.29033,0.19441 -0.66373,0.3426 -1.14336,0.41112c-1.08108,0.15444 -1.75738,-0.23082 -2.17625,-0.71374l-0.20157,-0.0288c0,0 -2.47487,-0.35355 -2.12132,-2.82843z" fill="#000000" stroke="none" stroke-width="0.5" stroke-linecap="butt"/><path d="M258.18093,213.19864c0.85281,0.25865 1.21493,1.10769 1.49439,2.05617c0.28071,0.20665 0.56142,0.4133 0.84213,0.61994c0,0 2,1.5 0.5,3.5c-1.5,2 -3.5,0.5 -3.5,0.5c-0.47116,-0.36205 -0.94232,-0.72409 -1.41347,-1.08614l-0.3264,0.59492c-0.05441,-0.29159 -0.07697,-0.5941 -0.06973,-0.89931c-0.00969,-0.00745 -0.01938,-0.01489 -0.02907,-0.02234l-0.22371,-0.0799l-0.80429,0.14671c0,0 -0.2221,-0.2221 -0.43013,-0.58758l-0.81576,-0.29134c-0.99563,-0.32948 -1.71397,-1.26782 -1.71397,-2.37393c0,-1.38071 1.11929,-2.5 2.5,-2.5h2.59889v0.30428c0.46564,-0.04873 0.92961,-0.02147 1.3911,0.1185z" fill="#000000" stroke="none" stroke-width="0.5" stroke-linecap="butt"/></g><g><path d="M187.41991,129.09695c0,0 0.00001,0 0.00002,0c-0.00001,0.00002 -0.00001,0.00003 -0.00001,0.00003z" fill="#000000" stroke="none" stroke-width="1.5" stroke-linecap="butt"/><path d="M193.47998,132.74053c0,0 0,0 0.00001,0c-0.00001,0.00002 0,0.00003 0,0.00003z" fill="#000000" stroke="none" stroke-width="1.5" stroke-linecap="butt"/><path d="M193.47998,132.74053c0,0 0,0 0.00001,0c-0.00001,0.00002 0,0.00003 0,0.00003z" fill="#000000" stroke="none" stroke-width="1.5" stroke-linecap="butt"/><path d="M204.66483,129.7998c-1.03736,-3.09891 -0.6468,-6.63891 -1.29515,-9.74919c-0.80312,-3.8528 -2.52515,-6.97785 -2.52515,-6.97785c0,0 2.25007,0.78665 2.87227,1.6456c0.53926,0.74445 0.64786,3.21388 0.64786,3.21388c0,0 0.50449,-3.31054 2.2466,-5.75813c1.8364,-2.58006 4.96437,-4.33294 6.97539,-5.51479c0.69506,-0.40847 -0.88006,1.40835 -1.80837,3.78147c-0.90567,2.31524 -1.15681,5.18334 -1.15681,5.18334c0,0 3.70191,-5.82174 6.51802,-8.98286c1.11633,-1.2531 2.80661,-3.00447 4.63324,-4.84933c0.25519,0.81115 0.48849,1.63804 0.70021,2.48822c0.39449,1.58411 0.64422,3.25986 0.9629,4.78406c0.17071,0.81646 1.20991,1.16664 1.41834,1.96272c0.23345,0.89161 1.15263,3.27483 1.7441,1.13368c0.14594,-0.61571 0.94746,-4.25513 1.75311,-4.29266c0.08795,-0.00409 0.4399,1.05684 0.4722,1.1276c0.45717,1.00157 0.57343,1.94288 1.16165,2.7711l-0.06949,0.04564l0.27129,0.41307c0.05579,0.08946 0.16472,0.13707 0.27256,0.1102c0.12488,-0.03109 0.20421,-0.15107 0.18741,-0.27572l-0.05925,-0.49314c-0.0193,-0.15674 -0.03859,-0.31349 -0.05789,-0.47024c0.017,-0.18176 0.0318,-1.56444 0.3161,-1.55771c0.41871,0.0099 1.0659,1.41781 1.14703,1.74925c0.44526,1.81883 1.11007,3.99201 2.28564,5.48216c0.78379,3.32241 2.47119,6.69663 2.55432,9.99661c1.61344,2.57954 4.28948,4.37144 6.32767,6.73852l0.18191,0.38495c0.0486,0.10832 0.16918,0.16965 0.28843,0.13996c0.09684,-0.02412 0.1663,-0.10168 0.18476,-0.19341l0.10523,-0.47151c0.24881,-1.11488 0.32989,-2.28952 0.14061,-3.36246c-0.11145,-0.53263 0.75889,-2.56906 1.47884,-1.93055c1.69654,1.5046 2.89651,3.71023 4.37761,5.42482c1.04517,0.6887 3.52163,0.98298 4.59355,-0.12476c0.24732,0.07478 0.54306,-0.08931 0.90772,-0.62701c0.00878,-0.01297 0.42785,-0.92183 0.43993,-0.95144c0.1894,-0.46434 0.34055,-0.95011 0.50967,-1.42227c0.47206,-1.31797 1.32004,-2.68794 2.05201,-4.09348c-0.03327,0.58627 -0.04685,1.13876 -0.02471,1.65861c0.09489,2.22734 -1.03867,2.77207 -0.50946,7.60081c0.20268,1.84939 2.06469,5.71522 2.2446,8.49666c0.40547,6.26799 -1.88185,9.66586 -6.17971,16.64751c-4.29785,6.98165 -19.82803,10.3587 -25.95608,6.4412c-6.52537,-4.17152 -11.11094,-7.03954 -13.53667,-13.30157c-2.18462,-5.63961 -3.14791,-9.42724 -4.77415,-14.52516c-1.18858,-3.72594 -3.75161,-5.70762 -5.01992,-9.49638z" fill="#ffffff" stroke="#000000" stroke-width="0" stroke-linecap="butt"/><g data-paper-data="{&quot;index&quot;:null}" stroke="none" stroke-linecap="butt"><g><path d="M260.21459,149.51137c0,0 3.01828,24.15856 -2.64345,29.67681c-2.58959,2.52395 -6.50955,4.09151 -11.4384,5.8059c-0.73065,0.12448 -1.46702,3.26983 -2.42258,3.42134c-1.10764,0.17561 -2.46176,-2.64262 -3.67966,-2.50917c-2.85196,0.31249 -5.72376,0.39383 -7.29235,-0.29705c-9.67526,-4.26138 -16.44789,-26.90053 -16.44789,-26.90053l23.31199,-4.88606l20.61237,-4.31121z" fill="#000000" stroke-width="0"/><path d="M237.90615,175.99326c0.64253,0.00626 2.17335,1.91865 3.14967,1.74694c0.97662,-0.17176 1.39879,-2.42767 2.32519,-2.65837c1.83168,-0.45615 4.4484,-1.15253 5.53892,-1.65545c2.22999,-1.0759 2.68747,-0.57679 0.89179,0.91144c-0.87703,0.73898 -2.98224,1.66371 -6.39583,2.5138c-0.75425,0.18783 -1.01848,3.39324 -1.60221,3.51702c-1.09594,0.23242 -2.31729,-2.69382 -2.98232,-2.65666c-0.92598,0.05173 -1.54192,-0.06655 -2.14754,-0.30119c-2.24718,-0.85742 -1.98045,-1.49768 0.68295,-1.36563z" data-paper-data="{&quot;noHover&quot;:false,&quot;origItem&quot;:[&quot;Path&quot;,{&quot;applyMatrix&quot;:true,&quot;segments&quot;:[[[15.92589,311.65151],[0,0],[-0.92968,-0.4187]],[[15.56651,312.25289],[-0.71874,-0.74602],[0.40626,0.4263]],[[17.90245,312.74771],[-1.55468,0],[1.28126,0]],[[20.27745,312.35185],[-0.375,0.27406],[0.76562,-0.5481]],[[20.04307,311.78091],[0.88282,-0.27406],[-0.42968,0.1218]],[[17.99619,312.00167],[0.6875,0],[-0.69532,0]],[[15.92587,311.65149],[0.45314,0.1751],[0,0]]],&quot;closed&quot;:true,&quot;fillColor&quot;:[0,0,0]}]}" fill="#ffffff" stroke-width="0.5"/><path d="M219.88718,160.4004c-0.86376,-1.07182 0.17363,-1.15364 3.05347,-0.68512c2.16675,0.35691 6.29628,12.33004 10.43631,16.79375c1.32062,1.41926 2.67526,2.10821 4.6792,2.16534c1.00839,0.02876 2.86207,3.60464 4.27768,3.326c0.65777,-0.12947 0.6871,-3.9979 1.45761,-4.18977c6.26513,-1.56021 7.48432,-2.44863 9.94737,-8.18076c1.99229,-4.51595 3.81211,-18.70602 4.7043,-18.40764c0.67389,0.30937 1.46183,19.30807 0.49027,22.15278c-0.4969,1.55526 -1.54663,3.48363 -2.22619,4.21679c-1.98195,2.07694 -6.39434,4.26434 -10.91215,5.56398c-1.07688,0.30978 -1.16505,4.07695 -2.22243,4.27235c-0.74518,0.1377 -2.4724,-3.26418 -3.18123,-3.19475c-7.41445,0.76194 -10.22567,-0.79743 -15.4258,-8.45302c-1.69805,-2.46912 -4.69638,-14.91102 -5.07842,-15.3798z" data-paper-data="{&quot;noHover&quot;:false,&quot;origItem&quot;:[&quot;Path&quot;,{&quot;applyMatrix&quot;:true,&quot;segments&quot;:[[[10.70715,306.57397],[0,0],[0.09376,0.29688]],[[11.56653,309.88543],[-0.38282,-1.52252],[1.16406,4.71216]],[[16.20715,316.24189],[-2.6875,-0.57094],[2.14844,0.47198]],[[22.44933,314.91731],[-1.24218,1.17232],[0.30468,-0.29688]],[[23.58995,313.02179],[-0.3125,0.75364],[0.59376,-1.37026]],[[24.97277,306.79473],[0.21094,0.25122],[-0.28906,-0.27406]],[[22.27745,310.38023],[1.10158,-2.11628],[-1.375,2.69484]],[[17.94933,313.50137],[2.35156,0],[-2.14844,0]],[[14.27745,311.35463],[0.59376,1.59864],[-1.07032,-2.89276]],[[11.68371,306.49783],[0.73436,0.47198],[-0.97656,-0.62422]],[[10.70715,306.57395],[-0.21094,-0.67752],[0,0]]],&quot;closed&quot;:true,&quot;fillColor&quot;:[0,0,0]}]}" fill="#ffffff" stroke-width="0.5"/></g><g data-paper-data="{&quot;index&quot;:null}"><path d="M217.22974,158.75043c0,0 -0.71675,-10.32526 4.94499,-15.84352c1.22775,-1.19663 3.03658,-2.24851 5.12481,-3.20663c0.68084,-0.31239 2.84281,2.29469 3.57259,2.00048c1.18601,-0.47815 0.97141,-3.84412 2.21418,-4.28653c0.59414,-0.2115 1.18964,-0.4198 1.7816,-0.62568c3.56085,-0.60666 9.32346,-1.54308 12.13979,-0.30265c9.67526,4.26138 14.14636,13.06723 14.14636,13.06723l-23.31198,4.88607l-20.61236,4.3112z" fill="#000000" stroke-width="0"/><path d="M241.72564,146.13023c-1.28527,-0.01251 -3.62235,0.45011 -5.47486,0.91144c-0.87369,0.21757 -1.18829,4.42507 -2.16838,4.7049c-1.07465,0.30682 -2.80017,-3.31248 -3.37053,-3.04944c-2.22999,1.0759 -1.88808,-0.59144 -0.0924,-2.07967c0.51576,-0.43457 1.8229,3.45771 3.20445,2.94761c0.96774,-0.35731 0.98585,-3.94301 2.392,-4.29317c4.14205,-1.03149 5.45982,-1.0521 6.73206,-0.55918c2.24718,0.85742 1.98045,1.49768 -0.68295,1.36564z" data-paper-data="{&quot;noHover&quot;:false,&quot;origItem&quot;:[&quot;Path&quot;,{&quot;applyMatrix&quot;:true,&quot;segments&quot;:[[[15.92589,311.65151],[0,0],[-0.92968,-0.4187]],[[15.56651,312.25289],[-0.71874,-0.74602],[0.40626,0.4263]],[[17.90245,312.74771],[-1.55468,0],[1.28126,0]],[[20.27745,312.35185],[-0.375,0.27406],[0.76562,-0.5481]],[[20.04307,311.78091],[0.88282,-0.27406],[-0.42968,0.1218]],[[17.99619,312.00167],[0.6875,0],[-0.69532,0]],[[15.92587,311.65149],[0.45314,0.1751],[0,0]]],&quot;closed&quot;:true,&quot;fillColor&quot;:[0,0,0]}]}" fill="#ffffff" stroke-width="0.5"/><path d="M257.44307,147.88981c0.86376,1.07182 -0.17363,1.15363 -3.05347,0.68511c-2.16675,-0.35691 -3.99476,1.50325 -8.13478,-2.96046c-2.29396,-2.46529 -4.69051,-2.72701 -10.41448,-1.30157c-0.83141,0.20706 -1.66273,3.93761 -2.33113,4.13389c-1.0371,0.30454 -1.80688,-2.92369 -2.54178,-2.56589c-2.36051,1.14926 -3.44544,2.82162 -5.07447,6.61277c-1.99228,4.51595 -6.11363,4.87274 -7.00582,4.57436c-0.67389,-0.30937 0.8397,-5.47478 1.81126,-8.31949c0.4969,-1.55526 1.54662,-3.48365 2.2262,-4.2168c1.08849,-1.14065 2.91005,-2.31464 5.07953,-3.35657c0.65146,-0.31288 3.52608,3.32274 4.22986,3.03815c1.04205,-0.42137 -0.06178,-4.7434 1.03825,-5.07841c2.01847,-0.61471 4.07756,-1.05955 5.96815,-1.24474c7.41445,-0.76194 10.22567,0.79743 15.42581,8.45303c1.69805,2.46912 2.39485,1.07773 2.77689,1.54652z" data-paper-data="{&quot;noHover&quot;:false,&quot;origItem&quot;:[&quot;Path&quot;,{&quot;applyMatrix&quot;:true,&quot;segments&quot;:[[[10.70715,306.57397],[0,0],[0.09376,0.29688]],[[11.56653,309.88543],[-0.38282,-1.52252],[1.16406,4.71216]],[[16.20715,316.24189],[-2.6875,-0.57094],[2.14844,0.47198]],[[22.44933,314.91731],[-1.24218,1.17232],[0.30468,-0.29688]],[[23.58995,313.02179],[-0.3125,0.75364],[0.59376,-1.37026]],[[24.97277,306.79473],[0.21094,0.25122],[-0.28906,-0.27406]],[[22.27745,310.38023],[1.10158,-2.11628],[-1.375,2.69484]],[[17.94933,313.50137],[2.35156,0],[-2.14844,0]],[[14.27745,311.35463],[0.59376,1.59864],[-1.07032,-2.89276]],[[11.68371,306.49783],[0.73436,0.47198],[-0.97656,-0.62422]],[[10.70715,306.57395],[-0.21094,-0.67752],[0,0]]],&quot;closed&quot;:true,&quot;fillColor&quot;:[0,0,0]}]}" fill="#ffffff" stroke-width="0.5"/></g></g><path d="M238.80442,151.62387c-1.00312,0.24981 -4.22113,-2.30881 -4.97061,-4.28969c-0.67059,-1.77234 0.35111,-4.03233 2.74944,-4.62959c2.39834,-0.59726 4.19617,-0.53921 4.92272,3.09055c0.6166,3.08047 -0.30321,5.23148 -2.70154,5.82875z" fill="#ffffff" stroke="#000000" stroke-width="1.15" stroke-linecap="butt"/><path d="M209.89352,130.70901c-1.1133,-4.76404 2.53554,-9.84044 7.76816,-11.06325c5.2326,-1.22279 9.78633,1.94107 10.89963,6.70511c1.1133,4.76404 -1.87615,9.53021 -7.10876,10.75301c-5.2326,1.22279 -10.44573,-1.63082 -11.55903,-6.39487z" fill="#838383" stroke="#000000" stroke-width="0" stroke-linecap="butt"/><path d="M209.14087,128.19021c-1.1133,-4.76404 2.53554,-9.84044 7.76816,-11.06325c5.2326,-1.22279 9.78633,1.94107 10.89963,6.70511c1.1133,4.76404 -1.87615,9.5302 -7.10876,10.75301c-5.23261,1.2228 -10.44573,-1.63082 -11.55903,-6.39487z" fill="#000000" stroke="#000000" stroke-width="1.4" stroke-linecap="butt"/><path d="M216.10048,127.12704c-0.83274,-2.75024 1.98427,-10.07717 1.98427,-10.07717c0,0 2.36294,5.63885 3.19567,8.38908c0.83274,2.75024 -3.5259,9.51395 -3.5259,9.51395c0,0 -0.82131,-5.07563 -1.65404,-7.82585z" fill="#750000" stroke="none" stroke-width="1.5" stroke-linecap="butt"/><path d="M216.68029,126.93724c-0.62777,-2.68634 1.46089,-10.15889 1.46089,-10.15889c0,0 1.77678,5.46673 2.40454,8.15306c0.62777,2.68634 -2.61354,9.69475 -2.61354,9.69475c0,0 -0.62413,-5.00259 -1.25189,-7.68891z" fill="#bd0000" stroke="none" stroke-width="1.5" stroke-linecap="butt"/><path d="M208.97567,139.15866c0,0 -5.63583,-2.22098 -8.15029,-7.21946c-2.6457,-5.25938 -3.76981,-9.09126 -1.94864,-9.81184c1.82116,-0.72059 3.19748,1.65325 5.64115,7.20607c2.44366,5.55283 4.45781,9.82522 4.45781,9.82522z" data-paper-data="{&quot;index&quot;:null}" fill="#ffffff" stroke="#000000" stroke-width="1" stroke-linecap="butt"/><path d="M207.82517,135.37705c0,0 -4.16467,-1.97554 -6.23227,-7.15669c-1.15339,-2.8902 1.54183,-2.73376 1.54183,-2.73376" fill="none" stroke="#000000" stroke-width="0.25" stroke-linecap="round"/><path d="M243.98519,161.36794c0,0 0.27497,-26.65026 1.46819,-40.4204c1.13421,-13.08901 5.52309,-40.26075 5.52309,-40.26075" data-paper-data="{&quot;index&quot;:null}" fill="none" stroke="url(#color-4)" stroke-width="3" stroke-linecap="round"/><path d="M234.31604,154.6254l6.78982,-7.49969l14.20996,12.86492l-6.78982,7.4997c0,0 -5.7455,4.00106 -8.235,3.33401c-1.38141,-0.37015 0.40516,-5.04767 -0.4291,-5.80297c-2.39744,-2.17051 -5.54586,-10.39597 -5.54586,-10.39597z" fill="url(#color-5)" stroke="url(#color-6)" stroke-width="0" stroke-linecap="butt"/><path d="M243.84699,162.71024c0,0 -16.43447,-11.02502 -22.98622,-17.77834c-7.03768,-7.25419 -17.88646,-24.35174 -17.88646,-24.35174" fill="none" stroke="url(#color-7)" stroke-width="3" stroke-linecap="round"/><path d="M215.26325,158.57634c4.62163,-1.11717 18.45631,1.99458 18.45631,1.99458" data-paper-data="{&quot;index&quot;:null}" fill="none" stroke="url(#color-8)" stroke-width="3" stroke-linecap="round"/><path d="M229.19148,163.88951l-3.13999,-2.76597c0,0 -6.10125,-7.02852 -12.31025,-8.72361c-7.03304,-1.92005 -14.23362,1.42378 -13.39879,0.62257c2.368,-2.27265 38.53497,-4.20844 38.53497,-4.20844c0,0 3.20264,7.84363 4.65362,10.32137c0.87361,1.4918 3.23713,3.15316 3.23713,3.15316c0,0 1.14034,4.00534 -0.80392,5.6972c-1.07887,0.93881 -3.95976,-3.15649 -5.0523,-2.88665c-3.13967,0.77544 -11.72048,-1.20962 -11.72048,-1.20962z" fill="url(#color-9)" stroke="url(#color-10)" stroke-width="0" stroke-linecap="butt"/><path d="M235.12,121.52857c0,0 0.96649,3.85032 1.63538,6.93703c1.32452,6.1122 5.65894,27.19931 5.65894,27.19931l-2.89121,0.7289c0,0 -1.78748,-3.85504 -3.38555,-8.94683c-2.16313,-6.89217 -4.37342,-15.70171 -5.48495,-18.86597c-1.05361,-2.99942 -2.25029,-5.32868 -2.25029,-5.32868" fill="#ffffff" stroke="#000000" stroke-width="1.3" stroke-linecap="round"/></g></g></g></svg>