<svg version="1.1" xmlns="http://www.w3.org/2000/svg" xmlns:xlink="http://www.w3.org/1999/xlink" width="144.19147" height="253.22501" viewBox="0,0,144.19147,253.22501"><defs><linearGradient x1="239.25128" y1="147.45763" x2="239.25128" y2="302.49835" gradientUnits="userSpaceOnUse" id="color-1"><stop offset="0" stop-color="#f7dfaf"/><stop offset="1" stop-color="#f7aa11"/></linearGradient><linearGradient x1="240.50002" y1="73.13811" x2="240.50002" y2="170.16668" gradientUnits="userSpaceOnUse" id="color-2"><stop offset="0" stop-color="#f7dfaf"/><stop offset="1" stop-color="#f7aa11"/></linearGradient></defs><g transform="translate(-167.15838,-53.3875)"><g data-paper-data="{&quot;isPaintingLayer&quot;:true}" fill-rule="nonzero" stroke-linejoin="miter" stroke-miterlimit="10" stroke-dasharray="" stroke-dashoffset="0" style="mix-blend-mode: normal"><g stroke="#000000" stroke-width="2"><path d="M168.21206,302.39158c0,0 8.06529,-154.52609 69.74199,-154.93311c63.35795,-0.41811 72.33646,154.88321 72.33646,154.88321l-42.33,0.09614l-0.15882,-114.84311c0,0 0.07549,-3.0993 -2.81625,-3.15415c-3.43441,-0.06514 -2.94538,3.11562 -2.94538,3.11562l0.20548,114.86995l-48.21366,0.07222l-0.30539,-115.23309c0,0 0.27949,-2.919 -2.8856,-2.93443c-3.11083,-0.01515 -2.81569,2.90899 -2.81569,2.90899l0.35311,115.0668z" fill="url(#color-1)" stroke-linecap="butt"/><path d="M214.1795,302.73213v-25.69858h48.26318v25.69858z" fill="none" stroke-linecap="butt"/><path d="M214.53083,276.39345v-24.19746h25.86625v24.19746z" fill="none" stroke-linecap="butt"/><path d="M240.11895,276.39345v-24.75372h20.58175v24.75372z" fill="none" stroke-linecap="butt"/><path d="M213.4183,251.91786v-29.76009h48.11678v29.76009z" fill="none" stroke-linecap="butt"/><path d="M214.2527,221.87964v-22.8068h23.08493v22.8068z" fill="none" stroke-linecap="butt"/><path d="M236.50324,221.60151v-22.8068h24.75372v22.8068z" fill="none" stroke-linecap="butt"/><path d="M171.11469,280.94115l36.21766,1.15588" fill="none" stroke-linecap="round"/><path d="M173.81174,253.97056l33.5206,1.92647" fill="none" stroke-linecap="round"/><path d="M181.13234,222.37643l26.5853,1.92647" fill="none" stroke-linecap="round"/><path d="M191.14999,191.93818l16.95295,-6.16471" fill="none" stroke-linecap="round"/><path d="M200.78234,223.9176l-4.62353,-2.69706l2.69706,-31.20883" fill="none" stroke-linecap="round"/><path d="M181.13234,253.97056l-1.54118,25.81471" fill="none" stroke-linecap="round"/><path d="M201.93822,300.59115v-18.49412" fill="none" stroke-linecap="round"/><path d="M267.43824,185.77348l18.49412,5.39412" fill="none" stroke-linecap="round"/><path d="M295.17942,217.36761l-26.5853,1.15588" fill="none" stroke-linecap="round"/><path d="M302.88532,249.34703l-34.29119,0.38529" fill="none" stroke-linecap="round"/><path d="M306.73825,274.00586l-38.14413,2.69706" fill="none" stroke-linecap="round"/><path d="M299.80296,273.62056l3.08235,27.74119" fill="none" stroke-linecap="round"/><path d="M279.76766,250.50291l-0.38529,24.65883" fill="none" stroke-linecap="round"/><path d="M287.85884,217.3676l4.62353,30.82354" fill="none" stroke-linecap="round"/><path d="M273.21765,188.85583l1.15588,29.66766" fill="none" stroke-linecap="round"/><path d="M189.9941,222.37643l0.38529,33.1353" fill="none" stroke-linecap="round"/><path d="M226.98235,252.42938l-4.62353,-2.69706l-1.15588,-27.74119" fill="none" stroke-linecap="round"/><path d="M251.25589,252.04408l0.38529,-30.05295" fill="none" stroke-linecap="round"/><path d="M224.28529,276.31762l-1.15588,25.04413" fill="none" stroke-linecap="round"/><path d="M253.95295,301.74704l0.38529,-24.27354" fill="none" stroke-linecap="round"/><path d="M226.21176,168.82053l-13.87059,14.25589l-7.70588,-15.41177" fill="none" stroke-linecap="round"/><path d="M273.60294,169.20582l-11.17353,14.64118l-11.94412,-15.79706" fill="none" stroke-linecap="round"/><path d="M218.50588,176.14112l37.37354,0.38529" fill="none" stroke-linecap="round"/><path d="M223.9,178.06759l-3.46765,19.26471" fill="none" stroke-linecap="round"/><path d="M253.95295,196.94701l-5.00883,-20.80589" fill="none" stroke-linecap="round"/></g><path d="M194.40898,306.6125v-253.22501h91.18203v253.22501z" fill-opacity="0.01" fill="#000000" stroke="none" stroke-width="0" stroke-linecap="butt"/><g><g><g><path d="M190.44584,108.69472h0.00001c0,0.00001 -0.00001,0.00001 -0.00001,0.00001z" fill="#000000" stroke="none" stroke-width="1.5" stroke-linecap="butt"/><path d="M182.25002,169.66668l57.6506,-96.52857l58.8494,97.02857z" fill="url(#color-2)" stroke="#000000" stroke-width="2" stroke-linecap="butt"/><path d="M272.4001,133.79396c0,0 -14.7789,13.81014 -33.0096,13.81014c-18.2307,0 -33.0096,-13.81014 -33.0096,-13.81014c0,0 14.7789,-13.81014 33.0096,-13.81014c18.2307,0 33.0096,13.81014 33.0096,13.81014z" fill="#000000" stroke="#000000" stroke-width="0" stroke-linecap="butt"/><path d="M231.30651,133.79396c0,-4.46466 3.61933,-8.08398 8.08399,-8.08398c4.46466,0 8.08398,3.61932 8.08398,8.08398c0,4.46466 -3.61932,8.08399 -8.08398,8.08399c-4.46466,0 -8.08399,-3.61933 -8.08399,-8.08399z" fill="#ffffff" stroke="#000000" stroke-width="0" stroke-linecap="butt"/><path d="M270.43824,124.14797l-62.80296,1.54118" fill="none" stroke="#000000" stroke-width="2" stroke-linecap="round"/><path d="M217.26764,111.43326h45.46472" fill="none" stroke="#000000" stroke-width="2" stroke-linecap="round"/><path d="M254.64118,98.71855l-30.05295,-0.38529" fill="none" stroke="#000000" stroke-width="2" stroke-linecap="round"/><path d="M233.83529,85.61855l12.32942,0.38529" fill="none" stroke="#000000" stroke-width="2" stroke-linecap="round"/><path d="M260.80589,137.24798l-1.54118,5.77941" fill="none" stroke="#000000" stroke-width="2" stroke-linecap="round"/><path d="M273.13531,129.15679l1.92647,14.25589" fill="none" stroke="#000000" stroke-width="2" stroke-linecap="round"/><path d="M262.34707,123.76268l-2.31177,-12.32942" fill="none" stroke="#000000" stroke-width="2" stroke-linecap="round"/><path d="M238.84411,120.68032l-0.38529,-9.24706" fill="none" stroke="#000000" stroke-width="2" stroke-linecap="round"/><path d="M221.89117,111.43326l-1.15588,12.32942" fill="none" stroke="#000000" stroke-width="2" stroke-linecap="round"/><path d="M230.36764,98.71855v12.32942" fill="none" stroke="#000000" stroke-width="2" stroke-linecap="round"/><path d="M249.63236,99.10385l0.38529,10.40294" fill="none" stroke="#000000" stroke-width="2" stroke-linecap="round"/><path d="M239.61471,86.77443l1.54118,10.40294" fill="none" stroke="#000000" stroke-width="2" stroke-linecap="round"/></g><path d="M190.29704,156.51269l100.1765,0.77059" fill="none" stroke="#000000" stroke-width="2" stroke-linecap="round"/><path d="M281.99707,144.95386l-85.15003,0.77059" fill="none" stroke="#000000" stroke-width="2" stroke-linecap="round"/><path d="M197.23234,156.89798l-0.77059,12.32942" fill="none" stroke="#000000" stroke-width="2" stroke-linecap="round"/></g><path d="M225.35882,168.50877v-12.32942" fill="none" stroke="#000000" stroke-width="2" stroke-linecap="round"/><path d="M251.17353,156.56464l-0.38529,11.55883" fill="none" stroke="#000000" stroke-width="2" stroke-linecap="round"/><path d="M278.91471,168.12347l-0.38529,-11.17353" fill="none" stroke="#000000" stroke-width="2" stroke-linecap="round"/><path d="M265.04413,155.40875l0.38529,-10.40294" fill="none" stroke="#000000" stroke-width="2" stroke-linecap="round"/><path d="M239.22941,155.40876v-8.86177" fill="none" stroke="#000000" stroke-width="2" stroke-linecap="round"/><path d="M209.94705,145.00581l0.38529,13.1" fill="none" stroke="#000000" stroke-width="2" stroke-linecap="round"/><path d="M217.26764,139.2264v5.77941" fill="none" stroke="#000000" stroke-width="2" stroke-linecap="round"/></g></g></g></svg>