<svg version="1.1" xmlns="http://www.w3.org/2000/svg" xmlns:xlink="http://www.w3.org/1999/xlink" width="162.30872" height="248.66482" viewBox="0,0,162.30872,248.66482"><defs><radialGradient cx="241.19551" cy="246.90477" r="26.32149" gradientUnits="userSpaceOnUse" id="color-1"><stop offset="0" stop-color="#da7f7f"/><stop offset="1" stop-color="#da7f7f" stop-opacity="0"/></radialGradient><radialGradient cx="241.76693" cy="252.50255" r="30.41907" gradientUnits="userSpaceOnUse" id="color-2"><stop offset="0" stop-color="#da7f7f"/><stop offset="1" stop-color="#da7f7f" stop-opacity="0"/></radialGradient><radialGradient cx="250.97962" cy="116.19767" r="9.52652" gradientUnits="userSpaceOnUse" id="color-3"><stop offset="0" stop-color="#ff0000"/><stop offset="1" stop-color="#da7f7f"/></radialGradient></defs><g transform="translate(-163.63261,-56.83504)"><g data-paper-data="{&quot;isPaintingLayer&quot;:true}" fill-rule="nonzero" stroke-linejoin="miter" stroke-miterlimit="10" stroke-dasharray="" stroke-dashoffset="0" style="mix-blend-mode: normal"><path d="M201.54534,304.3916l-3.57903,-48.14724l3.77973,-32.50442c0,0 -0.95638,-31.72654 -0.99404,-37.36035c-0.05451,-8.15261 8.18688,-36.76129 40.20201,-36.9211c31.60235,-0.15775 39.85672,29.48704 39.84884,36.89673c-0.07659,46.24274 0.65429,117.98648 0.65429,117.98648l-10.49667,0.09614l-0.15882,-114.84311c0,0 0.07549,-3.0993 -2.81625,-3.15415c-3.43441,-0.06514 -2.94538,3.11562 -2.94538,3.11562c0,0 0.03395,18.97782 0.05759,32.19341c0.00468,2.61549 -1.48954,6.34593 -1.48301,9.99953c0.00563,3.14442 3.51181,6.60228 3.51834,10.25131c0.00574,3.21278 -3.98824,6.07377 -3.98211,9.49952c0.00649,3.62692 2.0131,7.32643 2.01967,10.99951c0.0383,21.41235 0.075,41.92667 0.075,41.92667l-48.21366,0.07222c0,0 -0.0322,-14.89724 -0.07155,-29.74792c-0.01025,-3.86811 1.47901,-7.82064 1.46823,-11.24981c-0.01232,-3.91855 -3.02469,-6.30659 -3.03647,-10.74934c-0.00883,-3.33003 3.73269,-7.53229 3.72482,-10.50192c-0.00915,-3.45242 -2.26747,-6.59043 -2.27452,-9.24927c-0.04336,-16.36072 -0.1159,-43.73482 -0.1159,-43.73482c0,0 0.27949,-2.919 -2.8856,-2.93443c-3.11083,-0.01515 -2.81569,2.90899 -2.81569,2.90899l0.62456,33.70239l-3.67353,32.55594l3.40208,48.80847z" fill="#ffffff" stroke="#000000" stroke-width="2" stroke-linecap="butt"/><path d="M214.87402,253.4407l2.14402,-24.38357c0,0 33.76216,-14.44444 43.05221,-12.31091c6.62334,1.52109 7.44674,23.90834 7.44674,23.90834l-2.28688,24.09785c0,0 -28.61382,14.26486 -37.21524,12.33269c-8.16076,-1.83319 -13.14086,-23.6444 -13.14086,-23.6444z" fill="url(#color-1)" stroke="#000000" stroke-width="0" stroke-linecap="butt"/><path d="M265.51583,219.98933l2.28688,25.75683c0,0 -2.68508,28.68922 -10.08002,34.48898c-8.98394,7.046 -39.99037,4.78064 -39.99037,4.78064l-2.00117,-26.06222c0,0 4.64251,-41.29754 12.16753,-47.18703c8.85307,-6.9289 37.61714,8.2228 37.61714,8.2228z" data-paper-data="{&quot;index&quot;:null}" fill="url(#color-2)" stroke="#000000" stroke-width="0" stroke-linecap="butt"/><path d="M240.64432,261.12113c-0.81895,0 -1.48284,-0.66389 -1.48284,-1.48284c0,-0.81895 0.66389,-1.48284 1.48284,-1.48284c0.81895,0 1.48284,0.66389 1.48284,1.48284c0,0.81895 -0.66389,1.48284 -1.48284,1.48284z" data-paper-data="{&quot;index&quot;:null}" fill="#000000" stroke="none" stroke-width="1.5" stroke-linecap="butt"/><path d="M232.4816,266.35195c-0.46376,-1.72478 0.05077,-3.20599 -1.20474,-5.1048c-0.80264,-2.03939 1.52549,-3.61463 1.04636,-5.25804c-0.25726,-0.88239 -1.42467,-1.68416 -1.80715,-2.64036c-0.47113,-1.20658 0.53174,-4.88157 1.84898,-5.29636c0.99456,-0.31318 2.31945,0.11659 3.33303,0.11469c2.48865,0.00401 3.93196,2.02903 6.08714,2.25107c0.28049,0.0289 1.74584,-1.12644 2.5635,-1.1263c3.41186,0.01806 6.89998,1.65196 9.1249,4.26803c2.10583,2.48601 0.73381,5.18004 1.77796,8.05145c0.93263,2.56717 2.87573,6.53887 1.51373,9.32652c-1.03543,1.05107 -3.74007,2.04086 -4.38581,3.17118c-0.61171,1.07074 -0.3802,2.49524 -0.87656,3.66942c-1.43844,3.30154 -6.19157,0.17729 -8.008,-0.74348c-1.05359,1.31306 -1.45243,-0.87419 -2.15311,-1.13734c-1.48381,-0.55728 -2.42539,2.77307 -2.57553,3.69193c-0.13701,0.77387 -0.61605,2.57408 -1.65124,2.31637c-0.94227,-0.23458 -0.74318,-1.02119 -1.87012,-0.99596c-0.46908,0.0105 -0.00571,1.57162 -1.23421,1.05846c-0.6375,-1.17794 0.17778,-2.61782 -0.32362,-3.72283c-0.8221,-1.81175 -0.51316,-2.50849 -0.33275,-4.40218c0.13058,-1.36127 0.86022,-2.78664 0.83638,-4.13673c-0.0234,-1.32509 -2.29458,-1.96745 -1.70912,-3.35476z" fill="#a10000" stroke="none" stroke-width="0.5" stroke-linecap="butt"/><g stroke="none" stroke-linecap="butt"><g data-paper-data="{&quot;index&quot;:null}"><g fill="#008235" stroke-width="0"><path d="M239.1686,253.38017c1.99138,-2.59244 25.87496,12.2643 35.78626,12.65473c5.01505,0.19756 15.77461,-17.46066 15.77461,-17.46066l27.58569,16.99285c0,0 -9.08355,10.00467 -13.66686,14.20125c-8.26449,7.56713 -18.17757,14.00317 -26.10305,13.65812c-22.15751,-0.96469 -41.30368,-37.53762 -39.37664,-40.04627z"/><path d="M247.985,271.80827c-4.71799,-6.58478 -16.24426,-14.11771 -11.30964,-20.54174c0.31648,-0.41201 0.65379,-0.99994 1.16278,-1.50695c1.20363,-1.19895 2.99784,-2.42195 5.06957,-2.54211c1.60455,-0.09306 3.826,0.84006 5.27461,2.12625c6.6718,5.92386 20.63699,16.53286 26.77019,16.77446c9.9113,0.39045 25.7479,28.35625 3.59038,27.39157c-11.28776,-0.49144 -23.3441,-11.63337 -30.55791,-21.70151z"/></g><g><g fill="none" stroke-width="1" font-family="sans-serif" font-weight="normal" font-size="12" text-anchor="start"/><g fill="#00421b" stroke-width="0"><path d="M310.86324,248.27104c7.21453,5.34647 10.49746,13.1427 7.33261,17.41336c-3.16484,4.27064 -11.57901,3.39851 -18.79354,-1.94796c-7.21453,-5.34647 -10.49746,-13.1427 -7.33261,-17.41334c3.16484,-4.27065 11.57901,-3.39852 18.79354,1.94796z"/></g><g fill="#000000" stroke-width="0"><path d="M309.49026,250.90015c4.44406,3.29335 6.46629,8.09572 4.51677,10.72637c-1.9495,2.63067 -7.13249,2.09343 -11.57655,-1.19991c-4.44406,-3.29335 -6.46629,-8.09571 -4.51677,-10.72637c1.94951,-2.63067 7.13249,-2.09344 11.57655,1.19992z"/></g></g></g><g fill="#a10000" stroke-width="0.5"><path d="M239.9275,249.13925c-0.04832,0.03665 -0.19605,0.1258 -0.33709,-0.02338c-0.17174,-0.18167 0.00992,-0.35342 0.00992,-0.35342l0.04773,-0.04512c2.06344,-1.92757 4.05415,-0.43787 6.28164,-0.19053c1.57651,1.33129 1.92037,0.05803 3.33519,0.6527c1.82052,0.7652 1.27587,4.83117 0.5289,6.20052c-0.70244,0.58157 -1.58251,0.10103 -2.1843,0.56805c-0.61619,0.47819 -1.05872,1.36014 -1.89369,1.60205c-0.31599,0.09154 -0.99063,-0.0059 -1.18641,-0.33788c-0.6508,-1.10359 0.46354,-2.74691 -0.57333,-3.91808c-0.78876,-0.00495 -0.7461,1.27158 -1.80437,0.95571c-1.59999,-0.47757 -2.18209,-3.39361 -2.22417,-5.11061z"/><path d="M242.94706,259.61955c0.06399,-0.0304 0.1277,-0.02861 0.1277,-0.02861l0.05493,0.01814c0.02029,-0.00081 0.04084,-0.00154 0.06166,-0.00216c1.612,-0.69881 3.33591,0.66431 2.39693,2.45391c-0.38859,0.74061 -1.18296,0.18285 -1.16432,1.05716c-0.13256,1.19325 -1.60152,1.77853 -2.46931,0.63936c-0.42461,-0.55739 0.41414,-1.33129 0.21915,-1.85616c-0.55645,-1.49779 -0.6474,-2.17337 0.77327,-2.28163z"/><path d="M248.234,258.69016l0.08648,0.18582c0.32618,0.72582 0.23953,3.77446 -1.25585,2.44258c-0.85646,-0.76283 -0.1876,-2.15415 0.59973,-2.82696c0.01638,-0.05231 0.055,-0.10487 0.13528,-0.14223c0.03127,-0.01455 0.06024,-0.02278 0.08695,-0.02616c0.11905,-0.07872 0.23782,-0.1386 0.35162,-0.17518c0,0 0.23929,-0.07238 0.31167,0.16692c0.07237,0.23929 -0.16693,0.31167 -0.16693,0.31167c-0.04635,0.01288 -0.09642,0.03444 -0.14895,0.06356z"/><path d="M237.99104,263.62811c-0.2135,-0.13008 -0.08343,-0.34357 -0.08343,-0.34357l0.19492,-0.31902c1.29494,-1.63243 -0.17062,-4.44975 1.65133,-6.07529c0.54017,-2.08856 -2.30575,-6.5274 1.17613,-6.4297c0,0 0.2499,0.00701 0.24289,0.25691c-0.00701,0.2499 -0.25691,0.24289 -0.25691,0.24289c-2.6918,-0.07553 -0.17796,4.29709 -0.73409,6.18835c-1.77575,1.75452 -0.28274,4.36196 -1.66934,6.10302l-0.17794,0.29298c0,0 -0.13007,0.21351 -0.34357,0.08343z"/><path d="M241.02435,263.92648c-0.21182,0.13279 -0.34461,-0.07903 -0.34461,-0.07903l-0.21278,-0.33944c-0.54328,-0.91193 -0.4235,-2.97187 -0.01177,-3.92809c1.58455,-2.04805 1.22443,-4.7034 2.52996,-7.145c0,0 0.11804,-0.22039 0.33841,-0.10236c0.22038,0.11804 0.10236,0.33841 0.10236,0.33841c-1.30857,2.43916 -0.95014,5.09146 -2.54001,7.16288c-0.32612,0.74796 -0.45219,2.73009 0.00469,3.40859l0.21279,0.33943c0,0 0.13278,0.21182 -0.07904,0.34461z"/><path d="M248.87829,264.30001c-0.2499,-0.00701 -0.24289,-0.25691 -0.24289,-0.25691l0.01413,-0.37539c0.2128,-0.56168 0.24746,-1.0247 0.26409,-1.61759c0.08889,-3.16786 0.83151,-4.27564 -0.65337,-7.46501c0,0 -0.10549,-0.22665 0.12116,-0.33214c0.22666,-0.10549 0.33214,0.12116 0.33214,0.12116c1.50322,3.23095 0.7897,4.48844 0.69987,7.69002c-0.01715,0.61105 -0.04655,1.12465 -0.27367,1.70197l-0.00456,0.29101c0,0 -0.00701,0.2499 -0.25691,0.24289z"/></g></g><g stroke="none" stroke-width="0" stroke-linecap="butt"><g><path d="M267.59937,228.32927c0.81081,1.8315 3.24884,4.28561 0.64659,8.02091c-3.78096,5.42724 -14.21526,12.8439 -22.56293,19.0331c-6.96824,5.16646 -18.57015,14.31456 -23.81418,16.28552c-5.36176,2.01522 -4.29907,-3.2294 -5.30455,-5.50063c-0.69918,-1.57934 -2.99145,-4.43099 -1.10052,-7.49039c3.48801,-5.64337 13.87819,-12.78795 23.01685,-19.56363c7.34484,-5.44568 19.12221,-14.01633 24.4789,-15.88493c4.92149,-1.71678 3.68749,2.94886 4.63983,5.10004z" fill="#008235"/><path d="M267.59937,228.32927c0.81081,1.8315 3.24883,4.28561 0.64658,8.02091c-3.78096,5.42724 -14.21526,12.8439 -22.56292,19.0331c-6.96824,5.16646 -18.57015,14.31455 -23.81418,16.28552c-5.36176,2.01522 -4.29906,-3.2294 -5.30455,-5.50063c-0.69918,-1.57934 50.08273,-39.99008 51.03507,-37.8389z" fill="#00421b"/></g><g><path d="M268.44894,252.1733c-0.5575,1.90597 -0.4747,5.47822 -4.22462,6.15881c-5.44849,0.98887 -16.12812,-1.62848 -24.8194,-3.5416c-7.25508,-1.59698 -19.64921,-3.86977 -24.00448,-6.4272c-4.45305,-2.61485 -0.77869,-5.52266 -0.08734,-7.88625c0.48074,-1.64356 -0.53351,-5.63709 2.39024,-6.37569c5.39316,-1.36242 17.13894,1.66408 26.65379,3.75849c7.64718,1.68329 19.81633,4.49659 24.18178,7.2113c4.01078,2.49415 0.56485,4.8635 -0.08995,7.10215z" fill="#cc1414"/><path d="M268.44894,252.1733c-0.5575,1.90597 -0.4747,5.47822 -4.22462,6.15881c-5.44849,0.98887 -16.12812,-1.62849 -24.8194,-3.54161c-7.25508,-1.59698 -19.64922,-3.86977 -24.00448,-6.42719c-4.45305,-2.61485 -0.77869,-5.52266 -0.08734,-7.88625c0.48074,-1.64356 53.79066,9.45759 53.13585,11.69625z" fill="#a10000"/></g></g><path d="M213.25,226.22223l1.83333,-17.55556c0,0 18.06207,-2.66667 26.83333,-2.66667c8.43805,0 24.83333,2.66667 24.83333,2.66667l2.16667,18z" fill="#00421b" stroke="none" stroke-width="0" stroke-linecap="butt"/><path d="M198.75,227.55556l0.46657,-17.55555c0,0 4.59663,-2.66666 6.82884,-2.66666c2.14741,0 6.31986,2.66666 6.31986,2.66666l0.5514,18z" fill="#00421b" stroke="none" stroke-width="0" stroke-linecap="butt"/><path d="M268.91667,226.72223l0.46657,-17.55555c0,0 4.59664,-2.66666 6.82885,-2.66666c2.14741,0 6.31986,2.66666 6.31986,2.66666l0.5514,18z" fill="#00421b" stroke="none" stroke-width="0" stroke-linecap="butt"/><path d="M256.1425,200.33378c-0.57113,0 -1.03411,-0.46299 -1.03411,-1.03411c0,-0.57113 0.46299,-1.03413 1.03411,-1.03413c0.57113,0 1.03411,0.463 1.03411,1.03413c0,0.57113 -0.46299,1.03411 -1.03411,1.03411z" fill="#000000" stroke="none" stroke-width="1.5" stroke-linecap="butt"/><path d="M250.88263,204.56937c-4.4635,-0.31439 -6.55245,-1.79392 -6.16985,-2.58011c0.11788,-0.24224 2.84645,1.06355 6.97038,1.3048c6.40897,0.37493 8.51033,-0.63173 8.51033,-0.63173v1.34616c0,0 -2.4135,1.04672 -9.31086,0.56089z" fill="#000000" stroke="#000000" stroke-width="0" stroke-linecap="butt"/><path d="M223.06988,199.29967c0,-0.57113 0.46299,-1.03413 1.03411,-1.03413c0.57113,0 1.03413,0.463 1.03413,1.03413c0,0.57113 -0.463,1.03411 -1.03413,1.03411c-0.57113,0 -1.03411,-0.46299 -1.03411,-1.03411z" fill="#000000" stroke="none" stroke-width="1.5" stroke-linecap="butt"/><path d="M229.36386,204.56937c-6.89736,0.48585 -9.31086,-0.56089 -9.31086,-0.56089v-1.34616c0,0 2.10136,1.00666 8.51033,0.63173c4.12393,-0.24126 6.85251,-1.54704 6.97039,-1.3048c0.3826,0.78618 -1.70634,2.26571 -6.16985,2.58011z" fill="#000000" stroke="#000000" stroke-width="0" stroke-linecap="butt"/><path d="M198.39703,215.3916c0,0 -0.46671,-27.71337 -0.47835,-29.40376c-0.05809,-8.43412 8.72426,-38.03066 42.84086,-38.19599c33.67672,-0.1632 42.4729,30.50524 42.4645,38.17078c-0.01629,9.54585 0.33017,29.37735 0.33017,29.37735c0,0 -28.84366,-6.64856 -43.31925,-6.63978c-13.88559,0.00842 -41.83794,6.69141 -41.83794,6.69141z" fill="#63c38b" stroke="#000000" stroke-width="0" stroke-linecap="butt"/><g stroke="#000000" stroke-width="0" stroke-linecap="butt"><g fill="#da7f7f"><path d="M240.95553,197.4512l4.01875,-34.52816l67.06445,-11.07946l-29.25349,49.50967z"/><path d="M199.70246,200.13723l-27.03976,-50.35712l66.52868,13.0906l2.48582,34.62608z" data-paper-data="{&quot;index&quot;:null}"/></g><g fill="#cc1414"><path d="M240.95553,197.45119l71.0832,-45.60761l-29.25349,49.50966z"/><path d="M199.70247,200.13723l-27.03976,-50.35712l69.0145,47.71667z" data-paper-data="{&quot;index&quot;:null}"/></g></g><path d="M224.4476,151.18353c-0.10349,-0.09398 -0.06483,-0.24535 -0.06483,-0.24535l0.13794,-0.47468c1.02375,-1.39996 4.19742,-1.16616 5.84939,-1.23292c4.15622,-0.16174 6.23238,-0.42164 10.13765,1.38172c3.11067,1.03464 7.17975,-0.14963 10.24171,-0.53911c4.30095,-0.54142 6.37553,2.432 6.37553,6.54664c-0.00002,1.78867 0.28751,3.86825 -0.48055,5.54101c-0.6843,1.49034 -2.51825,2.09208 -2.51998,3.89825c-0.00163,1.67711 0.20928,3.6724 -1.21218,4.87184c-1.73055,1.46025 -3.78388,-0.69943 -3.78982,1.95499c-0.01016,1.54279 0.14048,3.22441 -0.97164,4.43369c-1.41079,1.53405 -4.71899,-0.59524 -5.37704,-2.05265c-0.84954,-1.9021 -1.65942,1.54087 -3.34093,1.41383c-1.15926,-0.08758 -2.03898,-4.94819 -2.06833,-2.21132c-0.00736,0.50404 -0.01474,1.00554 -0.04181,1.50896c-0.03184,0.59228 -0.03265,3.14469 -1.19956,1.74225c-0.26927,-0.32362 -1.02002,-4.1872 -1.06687,-4.1836c-0.11459,0.0088 -1.11479,1.08888 -1.37851,1.22724c-2.92296,1.91036 -4.70462,-1.27093 -4.66643,-4.07906c-1.79552,-0.52447 -1.65866,-4.31821 -1.63831,-6.13974c-0.5051,-0.40501 -1.23445,-0.65882 -1.48092,-1.29014c-0.41024,-1.05082 0.03232,-2.86008 -0.05925,-4.00242c-1.83372,-2.55342 -2.38165,-5.15337 -1.38526,-8.06943z" fill="#a10000" stroke="none" stroke-width="0.5" stroke-linecap="butt"/><path d="M193.10852,105.21344c0,0 6.16329,-5.92187 6.29161,-6.78761c0.33654,-2.27063 -0.16776,-40.17317 35.96775,-41.57382c44.63633,-0.91362 39.01489,35.34872 41.53088,42.1903c3.44981,9.38084 6.15664,17.40016 6.15664,17.40016c0,0 -2.76715,-2.05351 -4.0797,-3.13397c-1.2242,-1.00773 -3.80143,-3.14585 -3.80143,-3.14585c0,0 3.09111,10.3481 1.31092,20.69498c-1.5623,9.48098 -7.29782,17.22543 -7.29782,17.22543l-1.15522,-2.34735c0,0 -1.02266,2.19794 -2.16005,3.33274c-1.1374,1.13479 -3.43873,2.91273 -3.43873,2.91273l-0.09205,-3.70421c0,0 -7.0601,11.01795 -24.35066,10.87154c-16.30625,-0.25547 -26.07151,-10.6752 -26.07151,-10.6752l-0.1162,2.65484c0,0 -3.89477,-3.29276 -6.18145,-9.70754c-2.72545,-7.64567 -3.23946,-12.24324 -3.23946,-12.24324c0,0 -2.33908,1.89916 -5.71704,2.7744c-4.23278,1.09673 -6.94665,0.34526 -6.94665,0.34526c0,0 3.60795,-2.71717 5.58396,-4.76989c1.76007,-1.8284 2.64658,-3.37722 2.64658,-3.37722c0,0 -2.10758,1.0847 -4.23277,1.61795c-2.21739,0.5564 -4.03008,0.53093 -4.03008,0.53093c0,0 4.97492,-5.03728 7.03074,-10.87429c1.94102,-5.51108 2.09972,-10.95731 2.09972,-10.95731c0,0 -1.36165,0.66163 -3.33013,0.79513c-1.24776,0.08463 -2.37785,-0.0489 -2.37785,-0.0489z" fill="#000000" stroke="none" stroke-width="1.5" stroke-linecap="butt"/><g stroke="none" stroke-linecap="butt"><g data-paper-data="{&quot;index&quot;:null}"><g fill="#008235" stroke-width="0"><path d="M244.31973,147.47648c1.70375,2.66534 -20.52212,37.45278 -42.68035,36.50496c-7.92573,-0.33903 -17.24747,-7.60517 -24.82931,-15.85618c-4.20472,-4.57584 -12.39257,-15.32588 -12.39257,-15.32588l28.9471,-14.55308c0,0 9.19826,18.51954 14.21168,18.75478c9.90808,0.4649 34.98282,-12.27895 36.74345,-9.52459z"/><path d="M233.94848,165.07647c-8.05439,9.40921 -21.02581,19.47102 -32.31394,18.98816c-22.15824,-0.94784 -3.97118,-27.44529 5.93691,-26.9804c6.13122,0.2877 20.95847,-9.07872 28.11583,-14.40576c1.55402,-1.15661 3.84761,-1.89488 5.43818,-1.66392c2.05368,0.29819 3.73585,1.67121 4.83171,2.9694c0.46342,0.54898 0.74883,1.16379 1.02864,1.60153c4.36283,6.82528 -7.76958,13.33718 -13.03732,19.491z"/></g><g><g fill="none" stroke-width="1" font-family="sans-serif" font-weight="normal" font-size="12" text-anchor="start"/><g fill="#00421b" stroke-width="0"><path d="M173.3318,136.20964c7.64831,-4.70505 16.10635,-4.84903 18.89148,-0.32159c2.78516,4.52741 -1.15723,12.01182 -8.80555,16.71686c-7.64831,4.70504 -16.10634,4.84902 -18.89148,0.32159c-2.78516,-4.52743 1.15724,-12.01185 8.80555,-16.71688z"/></g><g fill="#ffffff" stroke-width="0"><path d="M174.47318,138.94722c4.71126,-2.89824 9.92126,-2.98695 11.63688,-0.1981c1.71563,2.78883 -0.71282,7.39912 -5.42408,10.29735c-4.71126,2.89823 -9.92127,2.98693 -11.63688,0.19809c-1.71563,-2.78882 0.71282,-7.39912 5.42408,-10.29735z"/></g></g></g><path d="M217.06337,183.93542c-0.24914,-0.02077 -0.22836,-0.26991 -0.22836,-0.26991l0.01385,-0.16609c0.27559,-2.14964 1.25076,-6.00288 -0.1611,-7.77041c-0.27765,-1.09378 -1.26114,-1.69173 -1.92439,-2.61049c-1.32061,-1.82936 -1.78059,-4.37817 -1.49943,-6.57123c0.4878,-0.44498 2.31952,-1.4266 2.4898,-1.92824c0.15795,-0.4653 -0.91445,-1.17903 -1.02029,-1.81247c-0.26422,-1.58141 1.05985,-2.75486 1.17495,-4.13483c0.03173,-0.46593 -0.26383,-0.9864 -0.02817,-1.4393c0.62562,-1.20235 3.1746,-0.54288 3.86534,-2.33035c0.21826,-0.56478 0.11182,-1.47037 0.1633,-2.08787c0,0 0.02077,-0.24914 0.26991,-0.22836c0.24914,0.02077 0.22836,0.26991 0.22836,0.26991c-0.14117,1.69328 -0.37556,3.056 -1.92985,4.04341c-0.44892,0.28519 -1.91106,0.03927 -2.15261,0.56234c-0.15193,0.329 0.10159,0.88172 0.08246,1.24584c-0.11418,1.37008 -1.41291,2.51064 -1.17832,4.03122c0.14191,0.91982 1.26114,1.05018 1.00033,2.03538c-0.15792,0.59654 -1.97137,1.59116 -2.52075,2.00239c-0.00543,1.65493 0.05294,3.30407 0.75372,4.86419c0.6476,1.44172 2.3328,2.38953 2.67408,3.86729c0.15804,0.19404 0.87591,0.59666 0.94618,0.771c0.46441,1.15213 -0.75086,3.37848 -0.52942,4.71297c0.10517,0.63378 0.57151,0.93055 0.3641,1.65083c-0.13257,0.46041 -0.56844,0.44619 -0.56992,0.89832l-0.01385,0.16609c0,0 -0.02077,0.24914 -0.26991,0.22836z" fill="#a10000" stroke-width="0.5"/><path d="M218.72443,180.06003c-0.24914,-0.02077 -0.22836,-0.26991 -0.22836,-0.26991l0.02769,-0.33218c0.13305,-1.59591 0.75216,-1.14996 1.70911,-1.99633c0.90815,-0.80321 -0.47883,-4.73621 -0.38008,-5.92062c0.26273,-3.15134 0.20841,-6.28139 0.45626,-9.47634c-0.1487,-2.24756 -1.60229,-7.59457 2.02882,-7.29184c0,0 0.24914,0.02077 0.22836,0.26991c-0.02077,0.24914 -0.26991,0.22836 -0.26991,0.22836c-3.04905,-0.2542 -1.60972,4.8961 -1.4873,6.79808c-0.28339,3.22204 -0.19301,6.33538 -0.45797,9.51336c-0.13326,1.59833 1.39008,4.90457 0.28383,6.17637c-0.51912,0.5968 -1.54714,0.95233 -1.61286,1.74059l-0.02769,0.33218c0,0 -0.02077,0.24914 -0.26991,0.22836z" fill="#a10000" stroke-width="0.5"/><path d="M222.54614,177.00726c-0.21354,-0.13 -0.08356,-0.34354 -0.08356,-0.34354l0.19378,-0.31833c0.23347,-0.3715 0.24994,-0.74606 0.34401,-1.17765c0.45342,-0.94535 -0.00856,-2.12937 -0.32689,-3.12833c-0.34699,-1.08891 0.84477,-2.24213 1.08908,-3.22305c0.23285,-0.93494 -0.36026,-1.57417 -0.48714,-2.47358c-0.12419,-2.09788 -0.37256,-7.03132 1.30223,-8.46659c0,0 0.19086,-0.16147 0.35234,0.02937c0.16147,0.19085 -0.02937,0.35234 -0.02937,0.35234c-1.50339,1.25282 -1.23684,6.16454 -1.12768,8.03514c0.13572,0.95622 0.73216,1.61051 0.47481,2.64414c-0.20305,0.81552 -1.38275,2.06441 -1.09802,2.94992c0.50867,1.58197 1.2026,1.63802 0.32355,3.443c-0.10067,0.47753 -0.13924,0.85324 -0.38982,1.27528l-0.19378,0.31833c0,0 -0.13,0.21355 -0.34354,0.08355z" fill="#a10000" stroke-width="0.5"/><path d="M226.33868,173.64407c-0.21354,-0.13 -0.08356,-0.34354 -0.08356,-0.34354l0.16963,-0.2658c0.06671,-0.9785 0.15633,-1.95556 0.23781,-2.93294c0.12069,-1.0438 1.14925,-1.85137 1.41842,-2.93234c0.41973,-1.68554 0.30577,-3.70644 0.45041,-5.44134c0,0 0.02077,-0.24914 0.26991,-0.22836c0.24914,0.02077 0.22836,0.26991 0.22836,0.26991c-0.147,1.76324 -0.03667,3.80655 -0.4635,5.52062c-0.24576,0.98692 -1.37226,1.93833 -1.40533,2.85306c-0.08467,1.01561 -0.16383,2.03179 -0.26069,3.04631l-0.21794,0.37088c0,0 -0.13,0.21355 -0.34354,0.08356z" fill="#a10000" stroke-width="0.5"/></g><path d="M260.27739,143.75106c-1.12121,6.18021 -0.8285,9.70244 -6.68609,15.43859c-5.85759,5.73616 -12.38711,8.47497 -16.34692,8.54395c-3.81077,0.06639 -12.04676,-4.1002 -17.04653,-9.38244c-5.32393,-5.62474 -5.76378,-9.47713 -6.6044,-16.13975c-0.75707,-6.00039 48.48056,-8.36343 46.68394,1.53965z" fill="#ffffff" stroke="#000000" stroke-width="1.5" stroke-linecap="butt"/><path d="M232.53665,118.29378c-1.09438,4.76843 -5.99813,7.89436 -11.22621,6.92148c-5.22808,-0.97289 -8.39242,-5.59589 -7.49737,-10.40572c0.89506,-4.80983 5.47979,-8.20704 11.20843,-7.21306c5.44896,0.94545 8.65806,5.71739 7.51515,10.69731z" fill="#ffffff" stroke="#000000" stroke-width="1.4" stroke-linecap="butt"/><path d="M225.27723,119.3676c-0.51563,2.77088 -3.17987,4.59913 -5.95075,4.08349c-2.77088,-0.51563 -4.59912,-3.17987 -4.08349,-5.95075c0.51563,-2.77088 3.17986,-4.59912 5.95075,-4.08349c2.77088,0.51563 4.59912,3.17986 4.08349,5.95074z" fill="#00421b" stroke="none" stroke-width="1.5" stroke-linecap="butt"/><path d="M257.96441,101.4147c0,0 1.52429,0.31807 4.2558,1.11029c2.49492,0.72361 4.44935,1.74403 4.44935,1.74403l0.1951,1.17035c0,0 -7.24963,-3.12997 -15.1158,-2.4706c-6.2896,0.52724 -9.96319,2.8124 -9.96319,2.8124l0.04575,-4.17683c0,0 3.12748,-1.70421 7.86366,-1.85557c4.90428,-0.15672 8.09084,0.59125 8.09084,0.59125z" data-paper-data="{&quot;index&quot;:null}" fill="#000000" stroke="none" stroke-width="1.5" stroke-linecap="butt"/><path d="M237.52655,145.96216c-1.03376,0 -3.5381,-3.26042 -3.7867,-5.3637c-0.22243,-1.88186 1.31512,-3.82799 3.7867,-3.82799c2.47159,0 4.2021,0.49077 4.02999,4.18853c-0.14607,3.13818 -1.55841,5.00317 -4.02999,5.00317z" fill="#ffffff" stroke="#000000" stroke-width="1.15" stroke-linecap="butt"/><path d="M241.46113,116.05555c0.20353,-4.88817 4.45264,-8.85847 9.77048,-8.85847c5.31783,0 9.27453,3.96607 9.27453,8.85847c0,4.8924 -3.88585,9.07104 -9.69964,9.14188c-5.52997,0.06739 -9.55792,-4.03692 -9.34537,-9.14188z" fill="url(#color-3)" stroke="#000000" stroke-width="1.4" stroke-linecap="butt"/><path d="M217.86628,105.51098c0,0 3.36963,-1.819 8.03244,-2.28178c5.16698,-0.51283 7.76823,-0.06628 7.76823,-0.06628l0.29508,4.13747c0,0 -3.83554,-0.68065 -8.01795,-0.52113c-5.59346,0.21333 -6.64488,1.43293 -10.89774,1.89119c-3.64408,0.39266 -6.73723,0.15884 -6.73723,0.15884l-0.02589,-1.23155c0,0 3.59517,0.07398 5.23371,-0.06836c1.35239,-0.11749 3.9757,-0.93808 3.9757,-0.93808z" fill="#000000" stroke="none" stroke-width="1.5" stroke-linecap="butt"/><path d="M242.06798,116.3155c0.00943,-0.03999 0.02044,-0.07955 0.03315,-0.11865c0,0 0.07905,-0.23717 0.31622,-0.15811c0.23717,0.07905 0.15812,0.31623 0.15812,0.31623c-0.00546,0.01592 -0.01072,0.03179 -0.01576,0.04762c0.49798,0.00849 0.86998,0.05971 1.36625,0.36689c-0.05756,0.32827 1.07943,0.09043 1.47393,0.14091c1.4451,0.18493 3.26879,-0.05106 4.56984,0.40286c0.5103,0.50324 1.90391,1.22076 2.6479,0.85669c0.43737,-0.21403 0.15752,-1.01265 0.58924,-1.23169c0.18059,-0.09163 2.19095,-0.02837 2.66198,0.08953c0.28586,-0.00114 1.27896,0.16161 1.51664,-0.02305c0.49887,-0.38758 0.02513,-2.66555 2.04848,-1.70979c0.5082,0.24005 0.54334,0.85111 0.23214,1.25215c-0.22202,0.28612 -0.59506,0.33657 -0.57781,0.35382c-0.01729,0.85143 0.78357,1.40896 0.99331,2.19256c0.25781,0.96317 -1.1677,3.69949 -1.65757,4.69149c-0.73406,0.95388 -1.982,1.14757 -2.92194,1.67982c-0.191,0.10815 -0.3938,1.06695 -0.73062,1.32973c-0.93102,0.72635 -2.707,0.26942 -3.73046,-0.14811c-0.98328,-0.00541 -0.89047,1.53382 -2.17339,0.98548c-1.553,-0.66378 -2.40433,-2.95134 -2.40433,0.51903c0,2.10836 -1.28166,1.1306 -2.19468,0.03186c-1.40332,-1.68878 -0.88666,-3.3584 -1.8408,-5.12195c-1.11595,-1.48375 -0.87927,-2.14165 -0.20379,-3.73235c0.29949,-0.70528 -0.2549,-1.78317 -0.19921,-2.71027l-0.06152,-0.09228c0,0 0,-0.13992 0.10468,-0.21041z" fill="#a10000" stroke="none" stroke-width="0.5" stroke-linecap="butt"/><g stroke="none" stroke-linecap="butt"><g data-paper-data="{&quot;index&quot;:null}"><g fill="#008235" stroke-width="0"><path d="M245.50183,112.36475c1.91788,-2.64727 26.20877,11.53373 36.12712,11.64602c5.01862,0.05682 15.27867,-17.89624 15.27867,-17.89624l28.05145,16.21244c0,0 -8.79937,10.25551 -13.26317,14.57899c-8.049,7.79596 -17.77766,14.50751 -25.7097,14.38488c-22.17585,-0.34284 -42.34028,-36.36437 -40.48437,-38.92608z"/><path d="M254.83164,130.5383c-4.90082,-6.44986 -16.63384,-13.65654 -11.88134,-20.21645c0.3048,-0.42072 0.62549,-1.01788 1.12006,-1.53897c1.16953,-1.23224 2.92873,-2.50508 4.99627,-2.6833c1.60131,-0.13803 3.84806,0.73242 5.33217,1.97747c6.83533,5.7344 21.09258,15.94753 27.23015,16.01701c9.91835,0.1123 26.53311,27.62292 4.35725,27.28009c-11.2971,-0.17465 -23.66121,-10.97404 -31.15457,-20.83588z"/></g><g><g fill="none" stroke-width="1" font-family="sans-serif" font-weight="normal" font-size="12" text-anchor="start"/><g fill="#00421b" stroke-width="0"><path d="M317.02497,105.24674c7.36165,5.14201 10.86196,12.8431 7.81813,17.20084c-3.04381,4.35773 -11.47913,3.72194 -18.84078,-1.42007c-7.36165,-5.14201 -10.86196,-12.8431 -7.81813,-17.20082c3.04381,-4.35774 11.47913,-3.72195 18.84078,1.42007z"/></g><g fill="#000000" stroke-width="0"><path d="M315.72627,107.91332c4.53468,3.16741 6.69081,7.91117 4.81585,10.59546c-1.87495,2.68431 -7.07097,2.29266 -11.60565,-0.87474c-4.53468,-3.16741 -6.69081,-7.91116 -4.81585,-10.59546c1.87496,-2.68431 7.07097,-2.29267 11.60565,0.87475z"/></g></g></g><g fill="#a10000" stroke-width="0.5"><path d="M246.14149,108.10421c-0.04727,0.03799 -0.19244,0.13125 -0.33761,-0.01392c-0.17677,-0.17678 0,-0.35356 0,-0.35356l0.04645,-0.04644c2.00856,-1.98469 4.04027,-0.55141 6.27382,-0.36664c1.61323,1.28655 1.92124,0.00414 3.35218,0.5589c1.84127,0.71384 1.41087,4.79348 0.7026,6.18325c-0.68585,0.60104 -1.57905,0.14538 -2.16751,0.62909c-0.60254,0.49528 -1.02015,1.3893 -1.84801,1.65453c-0.3133,0.10037 -0.99041,0.02189 -1.19542,-0.30447c-0.6815,-1.0849 0.38631,-2.75883 -0.683,-3.90046c-0.78859,0.01718 -0.71014,1.29201 -1.77685,1.00594c-1.61276,-0.43251 -2.27642,-3.33107 -2.36664,-5.04622z"/><path d="M249.45381,118.49569c0.06311,-0.03218 0.12685,-0.03218 0.12685,-0.03218l0.05542,0.01659c0.02026,-0.00138 0.04078,-0.00268 0.06158,-0.00389c1.59177,-0.74375 3.35323,0.57048 2.46481,2.38572c-0.36766,0.75122 -1.17737,0.21596 -1.13421,1.0894c-0.09904,1.1965 -1.55101,1.82275 -2.45041,0.70837c-0.44008,-0.54526 0.37664,-1.34238 0.167,-1.86158c-0.59824,-1.48159 -0.7081,-2.15436 0.70897,-2.30242z"/><path d="M254.7126,117.41839l0.09166,0.18332c0.34641,0.71639 0.3453,3.76626 -1.18685,2.47684c-0.87752,-0.73851 -0.24795,-2.14804 0.5202,-2.84267c0.01491,-0.05275 0.05204,-0.10637 0.13124,-0.14597c0.03085,-0.01542 0.05958,-0.02446 0.08618,-0.02859c0.1168,-0.08203 0.23384,-0.14522 0.34657,-0.18497c0,0 0.23717,-0.07906 0.31623,0.15811c0.07905,0.23717 -0.15812,0.31623 -0.15812,0.31623c-0.04597,0.01417 -0.09542,0.03713 -0.14711,0.06771z"/><path d="M244.61217,122.64169c-0.21706,-0.12404 -0.09303,-0.34109 -0.09303,-0.34109l0.1859,-0.32436c1.24864,-1.66811 -0.29536,-4.44321 1.48028,-6.11922c0.48138,-2.10289 -2.48792,-6.46016 0.99533,-6.46016c0,0 0.25,0 0.25,0.25c0,0.25 -0.25,0.25 -0.25,0.25c-2.69286,0 -0.05737,4.30039 -0.56023,6.20651c-1.72584,1.80364 -0.16028,4.36817 -1.49751,6.14744l-0.16965,0.29786c0,0 -0.12403,0.21707 -0.34109,0.09303z"/><path d="M247.65266,122.85486c-0.20801,0.13868 -0.34669,-0.06933 -0.34669,-0.06933l-0.22222,-0.33334c-0.56864,-0.89633 -0.50669,-2.95882 -0.12194,-3.92621c1.52648,-2.09169 1.09203,-4.73589 2.32856,-7.21315c0,0 0.11181,-0.22361 0.33541,-0.11181c0.2236,0.11181 0.11181,0.33541 0.11181,0.33541c-1.23964,2.4749 -0.80696,5.11611 -2.33811,7.2313c-0.30501,0.75681 -0.37544,2.7417 0.10029,3.40712l0.22223,0.33333c0,0 0.13867,0.20801 -0.06934,0.34669z"/><path d="M255.51398,123.00796c-0.25,0 -0.25,-0.25 -0.25,-0.25l0.0036,-0.37564c0.19696,-0.56743 0.21862,-1.03124 0.21862,-1.62436c0,-3.16911 0.71126,-4.29728 -0.86249,-7.44375c0,0 -0.11181,-0.2236 0.1118,-0.33541c0.22361,-0.11181 0.33541,0.1118 0.33541,0.1118c1.59325,3.18752 0.91528,4.46452 0.91528,7.66736c0,0.61129 -0.01499,1.12551 -0.22583,1.70898l0.0036,0.29102c0,0 0,0.25 -0.25,0.25z"/></g></g><path d="M227.46537,103.59129c0,-1.22098 -0.15915,-2.7168 0.56092,-3.78128c0.93258,-1.37862 2.96282,-1.2408 3.56731,-3.00877c0,-2.55575 2.11272,-6.95996 4.87241,-6.95995c3.33792,0.01716 6.65563,1.31087 9.8214,2.2606c3.09489,0.93445 6.25938,1.87671 9.12194,3.38935c3.02724,1.81616 4.21474,4.22039 4.17449,7.65678c-1.05665,2.221 -3.20661,4.61404 -5.78644,4.80591c-0.18012,0.22226 -0.42861,0.2986 -0.76448,0.13066c-1.72253,0 -3.6353,-0.66885 -5.26012,0.125c-2.0074,0 -3.06648,2.98567 -4.41127,3.7095c-1.00147,1.00147 -1.14617,3.02239 -1.14617,4.42219c0,0 0,0.25 -0.25,0.25c-0.25,0 -0.25,-0.25 -0.25,-0.25c0,-0.05102 0.00022,-0.10259 0.00069,-0.15465c-0.06619,-0.04235 -0.09929,-0.10855 -0.09929,-0.10855l-0.03283,-0.14914c-1.05075,0.33088 -2.94968,-0.21169 -3.79534,-0.78589c-0.5701,-0.87031 -2.11742,-1.18491 -3.00741,-1.74904c-1.40759,-0.89221 -2.55238,-1.93623 -3.5248,-3.25539c-1.89198,-1.80737 -3.79102,-3.63435 -3.79102,-6.54734z" fill="#000000" stroke="none" stroke-width="0.5" stroke-linecap="butt"/><path d="M213.25,113.58335v-6.25h20.33333v6.25z" fill="#000000" stroke="#000000" stroke-width="1.4" stroke-linecap="butt"/><g data-paper-data="{&quot;index&quot;:null}" stroke="none" stroke-linecap="butt"><path d="M259.01294,150.07426c0,0 1.53251,13.73681 -23.09272,13.90048c-19.16923,0.1274 -21.74752,-15.02148 -21.74752,-15.02148c0,0 9.64766,-4.61538 14.76662,-4.82671c4.19587,-0.17323 8.74657,2.44973 8.74657,2.44973c0,0 4.6336,-3.39177 9.27922,-2.26163c4.27883,1.04091 12.04784,5.75961 12.04784,5.75961z" fill="#000000" stroke-width="0"/><path d="M249.06897,146.81149l3.29912,1.36827l-4.73412,0.56757c-2.53981,0.21332 -9.0667,0.4215 -9.65786,0.69883c-0.94142,0.34135 0.12547,0.51698 0.12547,-0.52841c0,-0.89602 2.706,-2.0117 3.88832,-2.43841c2.53981,-0.98138 3.33508,-0.99057 7.07907,0.33216z" data-paper-data="{&quot;noHover&quot;:false,&quot;origItem&quot;:[&quot;Path&quot;,{&quot;applyMatrix&quot;:true,&quot;segments&quot;:[[[19.80081,439.90763],[0.90626,-0.35018],[-0.42188,0.15226]],[[19.13675,440.65365],[0,-0.31972],[0,0.37302]],[[19.56643,440.98099],[-0.33592,0.1218],[0.21094,-0.09896]],[[21.63675,440.63081],[-0.90626,0.07612],[0,0]],[23.30863,440.47857],[[22.13675,440.02943],[0,0],[-1.33594,-0.47198]]],&quot;closed&quot;:true,&quot;fillColor&quot;:[0,0,0]}]}" fill="#ffffff" stroke-width="0.5"/><path d="M234.25591,146.35409c2.21135,0.85337 8.45556,4.41979 0.27832,2.65875c-0.87579,-0.27733 -4.47539,-0.67919 -7.40929,-0.89252c-5.07956,-0.42671 -5.28787,-0.61341 -3.36114,-1.44543c2.40842,-1.1307 8.17129,-1.28083 10.49211,-0.32081z" data-paper-data="{&quot;noHover&quot;:false,&quot;origItem&quot;:[&quot;Path&quot;,{&quot;applyMatrix&quot;:true,&quot;segments&quot;:[[[13.30093,439.96091],[0.85938,-0.40346],[-0.6875,0.29688]],[[14.49625,440.43289],[-1.8125,-0.15226],[1.04688,0.07612]],[[16.94937,440.75261],[-0.3125,-0.09896],[0.75782,0.22838]],[[16.84781,439.85433],[0.78906,0.3045],[-0.82812,-0.34256]]],&quot;closed&quot;:true,&quot;fillColor&quot;:[0,0,0]}]}" fill="#ffffff" stroke-width="0.5"/><path d="M234.0839,151.06481c3.72207,1.04539 5.01972,1.21814 8.4134,0.38613c2.07997,-0.55467 6.0487,-0.92082 8.71983,-0.92082c4.53222,0 4.80457,0.10406 4.80457,1.57611c0,2.58146 -2.41753,6.14544 -5.48281,7.80952c-2.60544,1.47205 -3.87541,1.77217 -11.69179,1.70816c-9.5461,0 -14.60337,-1.5601 -18.80714,-5.18695c-2.01433,-1.74939 -3.93126,-5.12919 -3.93126,-6.66525c0,-1.10941 12.56724,-0.32832 17.9752,1.2931z" data-paper-data="{&quot;noHover&quot;:false,&quot;origItem&quot;:[&quot;Path&quot;,{&quot;applyMatrix&quot;:true,&quot;segments&quot;:[[[10.56655,441.07997],[0,-0.39586],[0,0.5481]],[[11.97281,443.42463],[-0.71876,-0.62422],[1.5,1.29414]],[[18.54313,445.19073],[-3.40626,0],[2.78906,0.02284]],[[22.66031,444.64263],[-0.92968,0.52526],[1.09376,-0.59378]],[[24.61343,441.90211],[0,0.92112],[0,-0.52526]],[[22.90249,441.35401],[1.6172,0],[-0.95312,0]],[[19.80093,441.70419],[0.74218,-0.19792],[-1.21094,0.29688]],[[16.92593,441.60523],[1.32812,0.37302],[-1.92968,-0.57856]]],&quot;closed&quot;:true,&quot;fillColor&quot;:[0,0,0]}]}" fill="#ffffff" stroke-width="0.5"/></g><path d="M240.66522,131.77818c-0.29603,7.49913 -0.61227,18.97758 -0.61227,18.97758l-2.98167,0.00864c0,0 -0.80294,-4.17274 -1.12322,-9.49979c-0.07752,-1.2893 -0.14168,-8.13845 -0.19659,-9.50392" fill="#ffffff" stroke="#000000" stroke-width="1.3" stroke-linecap="round"/></g></g></svg>