<svg version="1.1" xmlns="http://www.w3.org/2000/svg" xmlns:xlink="http://www.w3.org/1999/xlink" width="103.22297" height="266.53479" viewBox="0,0,103.22297,266.53479"><defs><linearGradient x1="265.50658" y1="231.84196" x2="265.50658" y2="251.56562" gradientUnits="userSpaceOnUse" id="color-1"><stop offset="0" stop-color="#f7aa11"/><stop offset="1" stop-color="#f75b50"/></linearGradient><linearGradient x1="247.44503" y1="184.63815" x2="247.44503" y2="238.26877" gradientUnits="userSpaceOnUse" id="color-2"><stop offset="0" stop-color="#f7aa11"/><stop offset="1" stop-color="#f75b50"/></linearGradient><linearGradient x1="241.57224" y1="250.67916" x2="241.57224" y2="309.1853" gradientUnits="userSpaceOnUse" id="color-3"><stop offset="0" stop-color="#f75b50"/><stop offset="1" stop-color="#f7aa11"/></linearGradient><linearGradient x1="254.14811" y1="259.29165" x2="254.14811" y2="101.77861" gradientUnits="userSpaceOnUse" id="color-4"><stop offset="0" stop-color="#f7aa11"/><stop offset="1" stop-color="#f75b50"/></linearGradient><linearGradient x1="248.26751" y1="145.98109" x2="242.26757" y2="154.12651" gradientUnits="userSpaceOnUse" id="color-5"><stop offset="0" stop-color="#000000" stop-opacity="0"/><stop offset="1" stop-color="#000000"/></linearGradient><linearGradient x1="248.26751" y1="145.98109" x2="242.26757" y2="154.12651" gradientUnits="userSpaceOnUse" id="color-6"><stop offset="0" stop-color="#000000" stop-opacity="0"/><stop offset="1" stop-color="#000000" stop-opacity="0"/></linearGradient><linearGradient x1="210.32616" y1="20.04981" x2="210.32616" y2="177.56286" gradientUnits="userSpaceOnUse" id="color-7"><stop offset="0" stop-color="#f7aa11"/><stop offset="1" stop-color="#f75b50"/></linearGradient><linearGradient x1="199.14833" y1="285.68334" x2="199.14833" y2="128.1703" gradientUnits="userSpaceOnUse" id="color-8"><stop offset="0" stop-color="#f7aa11"/><stop offset="1" stop-color="#f75b50"/></linearGradient><linearGradient x1="236.00868" y1="145.42465" x2="239.41129" y2="154.95192" gradientUnits="userSpaceOnUse" id="color-9"><stop offset="0" stop-color="#000000" stop-opacity="0"/><stop offset="1" stop-color="#000000"/></linearGradient><linearGradient x1="236.00868" y1="145.42465" x2="239.41129" y2="154.95192" gradientUnits="userSpaceOnUse" id="color-10"><stop offset="0" stop-color="#000000" stop-opacity="0"/><stop offset="1" stop-color="#000000" stop-opacity="0"/></linearGradient></defs><g transform="translate(-182.15468,-67.1008)"><g data-paper-data="{&quot;isPaintingLayer&quot;:true}" fill-rule="nonzero" stroke-linejoin="miter" stroke-miterlimit="10" stroke-dasharray="" stroke-dashoffset="0" style="mix-blend-mode: normal"><g stroke="none" stroke-width="1.5" stroke-linecap="butt"><g><path d="M269.08209,148.54382c-0.1021,1.68175 -1.894,10.48459 -2.31964,18.48994c-0.39782,7.48205 0.56564,14.2534 0.56564,14.2534l-3.88567,-12.67167l-1.37366,-2.55551c0,0 -0.81076,2.56877 -1.83663,3.94596c-1.02587,1.37719 -3.15063,3.57831 -3.15063,3.57831l-0.44281,-4.1774c0,0 -5.99113,13.03847 -23.23505,14.31844c-16.27339,1.07447 -26.99202,-9.88163 -26.99202,-9.88163l-7.80006,14.58605c0,0 3.74268,-14.97149 0.85602,-22.02788c-1.02864,-2.51449 -1.34584,6.6482 -1.34584,6.6482c0,0 -2.6514,-5.81084 -3.12407,-8.95045c-0.53404,-3.54719 0.0814,-11.25959 0.0814,-11.25959c0,0 -2.15089,2.34124 -5.43407,3.61248c-4.11402,1.59294 -6.88962,0.97077 -6.88962,0.97077c0,0 3.3378,-3.3715 5.11234,-5.85589c1.58062,-2.2129 2.31723,-4.03689 2.31723,-4.03689c0,0 -1.9974,1.4017 -4.06461,2.18183c-2.15689,0.81399 -3.96566,0.93674 -3.96566,0.93674c0,0 4.48008,-6.10708 5.97549,-12.8737c0.46621,-2.1096 0.73946,-4.19496 0.89631,-6.04208c2.60973,-0.05948 5.40539,0.00011 7.60019,1.04117c2.36899,1.11168 3.32617,6.97362 3.57471,9.34528c2.36607,2.93062 4.00477,5.51332 7.35042,7.5097c1.03299,0.60852 3.04336,0.20511 3.83011,0.82219c0.7568,0.59359 0.91413,1.8006 1.48484,2.52065c0.45535,0.57452 2.0457,1.87559 2.00125,2.20194c0.1366,1.62841 -0.21877,5.91863 1.27631,7.00356c0.82508,0.59872 2.69359,-0.22945 3.61016,-0.31322c2.4332,-0.21075 1.8314,2.57769 3.4132,3.85564c1.27816,1.03264 2.5812,-0.01149 3.60541,1.91339c0.90756,1.37839 1.93817,4.76841 3.47472,5.48467c1.18247,0.55121 2.91179,-1.0584 3.74238,-1.72484c1.40078,-1.12396 2.43309,-2.95477 2.8787,-4.79885c0.29698,1.1215 0.93566,2.29955 1.53618,2.12399c1.23322,-0.36052 2.92946,-3.19875 3.76216,-4.17115c1.44488,-1.68772 3.24654,-3.27975 3.49181,-5.5419c0.41161,0.86551 1.58676,1.109 2.47288,0.19119c1.25268,-1.29748 2.06779,-3.755 2.83883,-5.37429c0.49435,-1.0382 1.37339,-1.96642 1.79214,-3.01839c0.21707,-0.54529 -0.22312,-1.95008 0.32143,-1.73116c0.21633,0.08697 0.1699,0.4355 0.2934,0.63509l0.03315,0.39518c0.01154,0.13758 0.13244,0.23977 0.27003,0.22822c0.06126,-0.00514 0.11551,-0.03196 0.15581,-0.07228l0.35484,-0.34994l-0.01927,-0.01954c2.32034,-1.77631 4.51833,-4.84229 6.01645,-7.19324c1.54094,0.63828 2.8375,-0.46406 4.04083,-1.42307c0.17489,-0.13937 0.46387,-17.46645 0.64054,-17.433c1.51976,0.2879 1.47243,19.22761 3.6654,17.92522c0.16055,-0.09662 0.32606,-0.23666 0.4957,-0.40495c0.17156,2.31244 0.21468,4.73921 0.05091,7.18327z" fill="#cc1414"/><path d="M189.02818,117.79539c0.12016,-2.59353 -3.9747,-45.37439 31.90158,-49.97758c10.63012,-1.14064 -2.09015,19.41604 3.91318,22.47368c3.99927,2.03693 27.81077,-14.28681 30.28339,-11.20014c9.31639,11.62999 9.29103,28.40273 11.18765,32.92213c4.32683,10.31027 7.78424,19.14438 7.78424,19.14438c0,0 -2.95209,-2.08878 -4.36245,-3.19978c-1.31542,-1.03621 -4.08629,-3.23647 -4.08629,-3.23647c0,0 0.37163,5.23202 1.50412,10.72887c0.59116,2.86936 2.04954,5.54692 2.35835,8.15502c-0.96737,0.94127 -2.19585,0.65652 -3.04846,1.57146c-1.29507,1.38995 -3.80909,9.47157 -5.1344,9.7936c-1.16484,0.28305 -1.15668,-7.22261 -2.10079,-5.84292c-1.26106,1.84456 -0.76858,12.62343 -1.78518,14.56507c-0.5906,1.128 -2.62156,-6.54939 -3.37084,-5.49173c-0.91931,1.08714 -2.01796,7.9707 -2.91376,9.06422c-1.32016,1.61155 -2.41197,-2.54968 -3.57354,-0.80023c-2.30076,3.46523 -3.63308,4.93511 -7.42373,6.55042c-3.45189,0.79282 -6.74505,1.22708 -10.27534,1.52323c-4.08779,0.3429 -6.16475,0.23522 -9.40575,-2.49306c-2.95856,-1.69961 -6.01206,-3.49764 -8.75114,-5.44403c-2.50489,-1.77996 -6.13182,-4.28743 -7.39591,-7.16899c-1.03621,-0.90159 -1.18847,5.67064 -1.91066,4.42325c-1.05499,-1.82219 -2.58998,-11.55519 -3.79101,-13.14413c-0.74314,-0.46676 -0.37075,6.48845 -1.04776,5.9299c-2.00562,-1.65469 -4.87768,-11.07791 -6.96686,-12.62534c-0.78405,-0.47373 -1.60758,1.29515 -2.39406,0.83426c-0.55872,-0.32744 -1.08109,-2.88463 -1.63646,-3.21674c0.5542,-1.39464 1.04228,-2.88491 1.37901,-4.40864c1.4119,-6.38878 1.05386,-12.5553 1.05386,-12.5553c0,0 -1.29418,0.86135 -3.24311,1.17674c-1.23204,0.19938 -2.36804,0.14383 -2.37415,0.14352c0.01282,-0.01656 5.58049,-7.20695 5.62626,-8.19468z" fill="#000000"/><path d="M220.55965,67.48093c8.53018,-0.91531 15.34137,-0.12473 20.8016,1.80331c0.5704,0.20141 1.22059,0.84963 1.65758,1.59689c0.65674,1.12301 1.0603,2.46971 1.81056,2.85968c0.68199,0.35448 0.94615,-0.7563 1.72143,-1.0798c0.69195,-0.28873 1.90175,0.19728 2.42754,0.57641c5.33697,3.84834 8.74288,9.09289 11.01305,14.5053c-0.52917,0.86512 -1.06511,1.72206 -1.59157,2.57036c-1.69319,2.72822 -4.96519,5.66466 -6.05061,8.48425c-1.25481,3.25969 -2.87839,6.36281 -4.39712,9.50634c-0.94191,1.9496 -1.93523,3.87321 -2.91268,5.80519c-0.07021,0.13878 -0.89377,1.49679 -0.89651,1.49652c-0.04743,-0.00473 -0.49148,-1.45896 -0.51435,-1.6259c-0.03205,-0.22266 -0.06484,-0.44511 -0.09686,-0.66764c-0.01395,-0.34566 -0.04667,-0.69289 -0.13151,-0.98193c-0.0128,-0.10749 -0.0249,-0.21509 -0.03616,-0.32282l-0.05198,-0.49664c-0.01376,-0.13531 -0.13351,-0.23515 -0.26961,-0.22374c-0.13753,0.01154 -0.23969,0.13234 -0.22824,0.26986c0,0 0,0 0,0.00001v0.00001l0.04149,0.49825l0.01052,-0.00088l0.00054,0.00517c0.00422,0.04026 0.00855,0.08048 0.01299,0.1207c-0.36286,2.89134 0.53378,6.5258 0.7679,9.31665c0.0333,0.39706 -0.03624,2.41248 0.31909,2.61412c0.55521,0.31511 1.76724,-0.83112 2.45523,-0.61875c1.50133,0.46343 2.10007,3.23731 2.99005,4.33042c0.91383,1.26347 2.37973,-0.09522 3.31733,0.62399c1.21581,0.93263 -1.06114,5.33195 -1.37034,6.41134c-0.86222,3.01113 -2.65456,7.10303 -2.40116,10.1237c0.31833,3.7947 -0.79383,6.59719 0.79203,10.31735c1.34391,3.15074 1.83413,6.73862 2.92211,10.01429c0.50018,2.18523 0.89783,4.38241 1.27769,6.58533c-3.03646,3.95667 -9.53728,10.08306 -21.081,10.93993c-9.59408,0.63346 -17.25747,-2.91464 -21.93199,-5.93391c-0.28732,-3.02224 -0.7255,-6.48799 -0.31077,-9.38459c0.08378,-0.58521 -0.00863,-1.40664 0.16022,-1.9509c0.39628,-1.27745 1.98619,-1.86735 2.28851,-3.23647c0.32168,-1.45675 0.31053,-2.95919 0.72078,-4.44059c-0.00701,-0.66314 0.17663,-2.23166 -0.52062,-2.66237c-0.70274,-0.4341 -2.19134,0.34926 -3.00518,-0.06918c-1.17088,-0.60201 -1.76659,-3.11943 -2.24046,-4.23284c-1.23465,-3.29922 -2.26247,-6.49023 -3.39596,-9.8095c-0.58129,-1.70196 -1.52724,-2.22598 -2.42762,-3.67143c-1.06335,-1.70708 -1.75429,-3.53813 -2.66255,-5.33622c-1.02775,-1.72817 -2.92805,-5.73354 -5.09807,-6.28681c-0.6999,-0.17845 -1.84906,0.1409 -2.57301,0.20147c-0.49636,0.03795 -0.99293,0.08323 -1.4898,0.11399c-0.23809,0.01473 -0.89354,0.21937 -0.71279,0.06371c1.89897,-1.63537 3.75961,-3.66468 5.379,-5.66288c2.20459,-2.7203 4.4035,-5.4435 6.57393,-8.19115c1.13758,-1.4401 4.33822,-4.29528 4.49861,-6.15509c0.08232,-0.95457 -1.14879,-1.97387 -1.70217,-2.61908c-2.20212,-2.28128 -4.25256,-6.28724 -6.92268,-7.80927c-1.9695,-1.12268 -4.11853,-1.90372 -6.22423,-2.77842c3.51285,-11.51886 11.47168,-23.21978 29.28777,-25.50572z" fill="#cc1414"/></g><path d="M220.70595,67.62877c6.62078,-0.71162 12.20659,-0.38839 16.92931,0.702c0.2174,3.20703 0.15704,5.94793 -0.46108,9.22267c-0.29452,1.56328 -0.1619,3.41116 -0.67862,4.91393c-0.54897,1.59657 -1.96823,3.22926 -2.82452,4.69385c-0.19526,0.33966 -0.28971,1.62232 -0.56586,1.8037c-0.91848,0.60321 -3.81052,-0.49076 -4.53619,0.43195c-0.49053,0.62373 0.73367,3.4222 0.93434,4.12862c0.9595,3.37766 1.717,6.83431 2.46029,10.26774c0.29482,1.36179 0.17328,3.31397 0.94595,4.50379c1.00949,1.55454 3.16096,2.52219 1.87204,4.8135c-1.22969,1.30384 -3.8622,0.24943 -5.02165,1.42966c-0.67608,0.6882 -0.18123,3.85625 -0.65975,4.99011c-0.72902,1.72746 -1.53225,6.11907 0.53254,7.42996c0.73678,0.46776 2.13957,0.53782 2.99019,0.7463c1.1262,0.27603 5.3987,0.79835 5.94613,1.9347c0.05044,0.10469 -0.86523,3.04459 -0.85238,3.65023c0.0225,1.01062 -1.64271,4.22334 -0.92072,4.93012c0.57139,0.55935 4.65042,1.60985 3.82928,2.63852c0.07421,1.24366 0.60307,1.29031 1.08108,2.2581c1.15681,2.34212 -0.75899,5.53314 -2.04664,7.07216c-0.16917,0.47488 -0.48273,0.85151 0.16909,1.24548c0.45886,0.27735 2.08296,-0.13627 2.62655,-0.18188c2.0064,-0.16831 3.3542,-0.04639 5.12868,0.45154c0.45698,0.12824 0.81848,-0.33061 1.06969,0.10775c-2.06386,3.01899 -3.34163,5.73422 -5.02659,8.87176c-1.1922,3.4477 1.29877,7.13761 2.70038,10.08109c1.06399,2.23446 2.29388,4.41884 3.56196,6.55293c-3.67886,3.06344 -9.12374,5.98207 -16.80026,6.55132c-5.53188,0.36448 -10.42273,-0.67133 -14.46917,-2.19756c0.17526,-0.91311 0.31945,-1.8373 0.75236,-2.65509c1.1297,-3.51501 2.19469,-6.47576 1.8067,-10.23577c0.38708,-0.8374 0.05878,-2.0541 -0.01793,-2.96856c-0.21059,-2.51031 -0.42117,-5.02063 -0.63175,-7.53094c-0.20694,-2.46687 -0.68676,-4.92207 -0.83336,-7.42966c-0.06286,-1.07498 0.61767,-1.93738 0.27413,-3.01255c-1.08936,-1.95519 -2.40309,-3.68542 -4.16321,-5.10809c-0.46944,-0.37945 -1.39866,0.18947 -1.78377,-0.27652c-0.05662,-0.0685 0.46656,-1.50818 0.51394,-1.67977c0.36412,-0.85194 2.40211,-3.14206 2.3623,-3.85597c-0.07183,-1.28807 -2.34856,-3.87007 -2.8294,-5.31326c-0.32006,-0.95878 -0.41631,-1.87346 -0.44379,-2.88757c-0.00166,-0.06115 0.03791,-0.12319 0.09779,-0.18316c0.33001,-0.02601 0.88154,-0.0825 0.91572,-0.19896c0.23076,-0.78643 -0.64147,-0.92655 -1.03852,-0.72811c-0.18757,0.09375 -0.31894,0.25387 -0.40646,0.45899c-1.35255,0.03944 -2.74136,0.39267 -4.09544,0.26681c-2.32429,-2.08919 3.90147,-5.67436 4.86259,-7.51313c1.1431,-0.73306 1.04104,-3.05556 1.27855,-4.26923c0.36638,-1.87227 1.51996,-2.60268 3.0544,-3.21113l0.43732,-0.03669c0.13759,-0.01155 0.23969,-0.13328 0.22807,-0.27193c-0.00841,-0.10021 -0.07394,-0.18184 -0.16159,-0.21501l-0.4559,-0.18369l-0.00064,0.00164l-0.00538,-0.00397c-0.15535,-0.05344 -0.31071,-0.10687 -0.46606,-0.16031c-3.45904,-1.18912 -6.09717,-2.80578 -9.79436,-3.50339c-0.91027,-0.09067 -1.82571,-0.17393 -2.74264,-0.26064c0.52611,-0.74428 0.90525,-1.46646 0.95747,-2.08098c0.08172,-0.96178 -1.15011,-1.98959 -1.70393,-2.64004c-1.32021,-1.37792 -2.58637,-3.37953 -3.96378,-5.09308c2.86633,-2.00358 5.72192,-3.97809 8.52155,-6.07919c2.98031,-2.2367 5.20249,-4.73167 5.47001,-8.63116c0.41697,-0.70041 1.20665,-3.16649 0.81692,-4.01015c-0.49222,-1.06554 -5.06414,-1.86963 -6.21369,-2.21447c-1.71885,-1.30815 -3.519,-2.49945 -5.24106,-3.79986c-0.00913,-0.00689 -0.01843,-0.0138 -0.02791,-0.02076c4.28253,-3.24342 9.75863,-5.60839 16.7567,-6.5087z" fill="#da7f7f"/></g><g><g><g><path d="M280.68714,251.56562l-34.35019,-19.72366" fill="none" stroke="url(#color-1)" stroke-width="3" stroke-linecap="round"/><path d="M202.41182,309.68688c0,0 -0.63536,-94.38387 -0.79335,-118.01201c-0.05451,-8.15261 8.18688,-36.76129 40.20201,-36.9211c31.60235,-0.15775 39.85672,29.48704 39.84884,36.89673c-0.02888,17.43724 -2.60024,38.50046 -3.03159,57.9757c-0.71256,32.17216 0.58328,60.01079 0.58328,60.01079l-11.16151,0.31775c0,0 -0.00431,-42.26094 0.61926,-62.14406c0.57544,-18.34836 2.98936,-52.92067 2.98936,-52.92067c0,0 0.07549,-3.0993 -2.81625,-3.15415c-3.43441,-0.06514 -2.7399,117.98557 -2.7399,117.98557l-48.21366,0.07222c0,0 -0.0259,-118.15209 -3.19099,-118.16752c-3.11083,-0.01515 -2.81569,2.90899 -2.81569,2.90899l0.35311,115.0668z" fill="#ffffff" stroke="#000000" stroke-width="2" stroke-linecap="butt"/><path d="M257.00896,205.62905c-0.57113,0 -1.03411,-0.46299 -1.03411,-1.03411c0,-0.57113 0.46299,-1.03413 1.03411,-1.03413c0.57113,0 1.03411,0.463 1.03411,1.03413c0,0.57113 -0.46299,1.03411 -1.03411,1.03411z" fill="#000000" stroke="none" stroke-width="1.5" stroke-linecap="butt"/><path d="M251.74911,209.86464c-4.4635,-0.31439 -6.55245,-1.79392 -6.16985,-2.58011c0.11788,-0.24224 2.84645,1.06355 6.97038,1.3048c6.40897,0.37493 8.51033,-0.63173 8.51033,-0.63173v1.34616c0,0 -2.4135,1.04672 -9.31086,0.56089z" fill="#000000" stroke="#000000" stroke-width="0" stroke-linecap="butt"/><path d="M223.93636,204.59494c0,-0.57113 0.46299,-1.03413 1.03411,-1.03413c0.57113,0 1.03413,0.463 1.03413,1.03413c0,0.57113 -0.463,1.03411 -1.03413,1.03411c-0.57113,0 -1.03411,-0.46299 -1.03411,-1.03411z" fill="#000000" stroke="none" stroke-width="1.5" stroke-linecap="butt"/><path d="M230.23034,209.86464c-6.89736,0.48585 -9.31086,-0.56089 -9.31086,-0.56089v-1.34616c0,0 2.10136,1.00666 8.51033,0.63173c4.12393,-0.24126 6.85251,-1.54704 6.97039,-1.3048c0.3826,0.78618 -1.70634,2.26571 -6.16985,2.58011z" fill="#000000" stroke="#000000" stroke-width="0" stroke-linecap="butt"/><path d="M241.51079,266.41639c-0.81895,0 -1.48284,-0.66389 -1.48284,-1.48284c0,-0.81895 0.66389,-1.48284 1.48284,-1.48284c0.81895,0 1.48284,0.66389 1.48284,1.48284c0,0.81895 -0.66389,1.48284 -1.48284,1.48284z" data-paper-data="{&quot;index&quot;:null}" fill="#000000" stroke="none" stroke-width="1.5" stroke-linecap="butt"/><path d="M217.44755,333.6356l-3.54583,-140.69804l-12.632,-15.91618l8.56126,-12.69841l17.44424,-8.70151c0,0 -0.34206,19.66088 2.20526,36.47051c-0.00333,1.194 -0.01459,2.38808 -0.01459,3.58104c0,3.54301 0.29514,6.97938 0.66916,10.50209c0.97999,2.98618 1.47592,7.10974 1.54064,10.28754c0.00965,2.8428 -0.31842,6.25472 0.3498,9.01643l0.05744,0.48208c0.01319,0.12566 0.11947,0.22359 0.24862,0.22359c0.08838,0 0.16605,-0.04586 0.21051,-0.11509l0.27418,-0.41343l-0.04301,-0.02852c0.96974,-1.22733 1.20209,-2.60549 2.00243,-3.98809c0.78867,-1.36244 2.13497,-2.42531 3.015,-3.75744c-0.0479,0.72674 0.25991,1.63849 0.3029,2.31624c0.14582,2.29887 0.01527,4.64597 0.01527,6.9493c0,2.99368 0.26655,5.83777 0.65088,8.76284c-0.8612,-0.07456 -2.05813,-0.1751 -2.40346,0.108c-0.97682,0.8008 0.2369,1.66228 0.47474,2.3285c-0.13956,0.25735 -0.26713,0.51893 -0.38552,0.78369c-0.5406,0.41623 -1.39895,0.79406 -1.81122,1.54968c-0.53647,1.43768 -0.31395,2.32671 0.11032,3.20145c-0.04583,0.11268 -0.09299,0.22481 -0.14169,0.33631c-0.11454,1.24058 0.14059,2.36694 0.4557,3.48009c-0.16724,0.88578 -0.03948,1.95798 -0.04308,2.83277c-0.0019,1.7403 0.20967,3.2278 0.54085,4.74174c0.13665,1.36578 0.54888,2.94702 0.21588,4.18178c-0.12108,0.44897 -0.24935,0.82053 -0.3525,1.15405c-0.77834,0.33215 -1.44387,1.00585 -0.89901,1.90954c0.44149,0.73224 1.24773,1.19246 1.95316,1.67761c2.05841,2.49189 4.83894,4.92728 7.17031,7.24929c0.05871,0.29437 0.15208,0.56332 0.2955,0.78963l0.10806,0.44966c0.02447,0.1124 0.12454,0.19657 0.24428,0.19657c0.11485,0 0.2116,-0.07744 0.24091,-0.18295l0.07455,-0.24622c0.4294,0.47183 0.79478,0.89577 1.18492,1.28933c0.2472,1.04314 0.49837,2.24795 1.06782,2.4276c0.47131,0.14869 0.88325,-0.21819 1.22815,-0.76473c0.00116,0.00059 0.00234,0.00117 0.0035,0.00176l0.39836,0.05498c0,0 0.2488,0.0245 0.2733,-0.22429c0.02451,-0.24879 -0.22429,-0.2733 -0.22429,-0.2733l-0.20064,-0.00592c0.41408,-0.82245 0.70527,-1.81262 0.85533,-2.17209c0.0113,-0.129 0.02736,-0.25473 0.04719,-0.37794c0.20627,-0.03308 0.4102,-0.081 0.61142,-0.14245c0.00119,0.03693 0.00184,0.06621 0.00184,0.08684v0.48905c0,0.13807 0.11193,0.25 0.25,0.25c0.13807,0 0.25,-0.11193 0.25,-0.25c0,0 0,-0.41583 0,-0.48905c0,-0.03585 0.00139,-0.08474 0.00377,-0.14484c0.01148,-0.04692 0.02271,-0.09394 0.03367,-0.14107c2.63229,-1.13965 4.71426,-4.50601 5.33565,-6.93417c0.02842,-0.84625 0.49077,-3.51004 -0.0143,-4.18697c-0.51894,-0.69553 -2.45926,-0.62219 -3.73707,-0.65253c0.84336,-2.42358 2.06877,-4.76989 2.55751,-7.21501c0.73679,-3.02177 0.60142,-7.43429 0.08724,-10.50221c-0.07215,-1.58161 -0.48328,-3.26152 -0.9613,-4.94571c0.18873,-0.48163 0.35282,-1.03302 0.41608,-1.19402c0.77221,-1.16704 1.12949,-2.26048 1.46824,-3.60336c0.3152,1.57145 0.8876,2.95417 0.95719,4.64063l0.02262,0.03353l-0.01204,0.00441l0.16986,0.46406c0.03349,0.0986 0.12685,0.16955 0.23677,0.16955c0.13239,0 0.24075,-0.10291 0.24944,-0.2331l0.03801,-0.49635l-0.04287,-0.00328c0.65569,-2.74924 0.33604,-6.9669 -0.0072,-9.54443c-0.46971,-3.49846 -0.5958,-6.90716 -0.59601,-10.4329c-0.00021,-3.50252 0.39078,-6.97562 0.41736,-10.46957c0.02598,-3.51425 0.24443,-6.95196 0.64996,-10.44268c0.03339,-3.5053 0.04064,-7.01002 0.04065,-10.51546c0.00001,-3.5 0.00002,-7 0.00002,-10.5c0,-3.5 0,-7 0,-10.5c-0.00099,-2.98318 -0.37675,-5.98841 -0.80153,-8.94979l12.60078,4.56573l12.53964,14.19201l-12.98287,15.0826l-2.43776,119.80474z" fill="#f7dfaf" stroke="#000000" stroke-width="0" stroke-linecap="butt"/><path d="M251.26436,262.95748c0.12434,-0.73864 0.31718,-1.465 0.54975,-2.18361c1.18311,0.02381 3.08752,-0.03704 3.50218,0.47473c0.36055,0.44497 -0.06605,3.16358 -0.08379,3.81207c-0.55676,2.12059 -2.39834,5.22408 -4.71668,6.41253c0.5159,-2.75434 0.29223,-5.80495 0.74853,-8.51571z" fill="#f7dfaf" stroke="#000000" stroke-width="0" stroke-linecap="butt"/><path d="M237.39216,263.88127c0.95949,1.09927 2.09522,1.52164 3.15068,2.44526c0.3041,0.26612 0.65946,1.14004 1.09056,1.20771c0.79789,0.12525 1.53197,-1.5312 1.95009,-1.52267c0.06199,0.00126 0.05771,2.04486 0.05866,2.21766c0.00357,0.65458 -0.10041,1.51033 -0.08486,2.31287c-1.11874,-1.13399 -2.04529,-2.52274 -3.3711,-3.31889c-0.16054,-0.09622 -0.36943,-0.2368 -0.61046,-0.41195c-0.99508,-0.99026 -1.94726,-1.99374 -2.77658,-3.00705c-0.4304,-0.52371 -1.34579,-1.54075 -1.50733,-2.27537c0.1202,-0.34618 0.48555,-0.59244 1.1869,-0.68398c0.26867,-0.23417 0.41883,-0.47421 0.49081,-0.72338c-0.2686,1.53791 -0.25889,2.93435 0.42264,3.75981z" fill="#f7dfaf" stroke="#000000" stroke-width="0" stroke-linecap="butt"/><path d="M238.91791,237.07507c-0.24138,0.00689 -0.48955,0.05574 -0.72709,0.13683c-0.14202,0 -0.28405,0 -0.42607,0c0,0 -0.25,0 -0.25,0.25c0,0.03094 0.00383,0.05804 0.01054,0.0818c-0.1774,0.12148 -0.33236,0.26089 -0.45243,0.41129c-0.35771,-0.57947 -0.89821,-1.141 -0.39961,-1.54975c0.21212,-0.1739 1.35859,-0.06722 2.15321,0.00558c0.02989,0.22085 0.0604,0.44224 0.09147,0.66426z" fill="#f7dfaf" stroke="#000000" stroke-width="0" stroke-linecap="butt"/><path d="M235.089,240.88827c0.26525,-0.48605 0.65719,-0.7671 1.04538,-1.00558c-0.42541,1.10666 -0.74127,2.24995 -1.14329,3.35647c-0.23605,-0.61036 -0.29408,-1.30545 0.09791,-2.35089z" fill="#f7dfaf" stroke="#000000" stroke-width="0" stroke-linecap="butt"/><path d="M235.67948,245.72803c0.1139,0.27448 -0.12471,0.77172 -0.33039,1.19218c-0.19015,-0.77387 -0.31631,-1.5655 -0.2731,-2.4058c0.20262,0.37236 0.417,0.76422 0.60348,1.21362z" fill="#f7dfaf" stroke="#000000" stroke-width="0" stroke-linecap="butt"/><path d="M235.71911,250.13043c0.19009,0.90863 0.05585,1.86241 -0.06702,2.80911c-0.08776,-0.77146 -0.13752,-1.5661 -0.13661,-2.40718c0.00099,-0.2411 0.03841,-0.54089 0.09552,-0.87449c0.03863,0.15656 0.07494,0.31399 0.10811,0.47256z" fill="#f7dfaf" stroke="#000000" stroke-width="0" stroke-linecap="butt"/><path d="M236.25613,259.58034c0.08503,-0.33831 0.12141,-0.69398 0.12633,-1.05974c0.17499,0.67477 0.32736,1.53492 -0.10051,1.8646c-0.19909,0.01724 -0.42159,0.06465 -0.64323,0.13978c0.22956,-0.23818 0.50133,-0.4828 0.61741,-0.94464z" fill="#f7dfaf" stroke="#000000" stroke-width="0" stroke-linecap="butt"/><path d="M249.77575,270.34668c0.00721,0.27747 0.01768,0.56014 0.02864,0.82318c-0.01843,0.20649 -0.0247,0.41142 -0.00978,0.60343c-0.14781,0.04722 -0.2971,0.08611 -0.4477,0.116c0.12667,-0.52117 0.29887,-1.01372 0.42884,-1.54261z" fill="#f7dfaf" stroke="#000000" stroke-width="0" stroke-linecap="butt"/><path d="M245.52145,272.75786c-0.11391,-0.12996 -0.22976,-0.26381 -0.35027,-0.40198c0.06406,0.02436 0.1308,0.04589 0.19984,0.06488c0.05399,0.09302 0.10366,0.20718 0.15043,0.3371z" fill="#f7dfaf" stroke="#000000" stroke-width="0" stroke-linecap="butt"/><path d="M253.06664,237.93429c-0.14976,0.15305 -0.10969,-0.41447 -0.14753,-0.62523c-0.07302,-0.40672 -0.15413,-0.81124 -0.22642,-1.21788c0.1613,0.54902 0.32483,1.1008 0.48102,1.65199c-0.0366,0.0886 -0.07258,0.15587 -0.10707,0.19111z" fill="#f7dfaf" stroke="#000000" stroke-width="0" stroke-linecap="butt"/><path d="M244.65744,273.04407l0.0872,-0.288c1.24713,-1.3965 1.059,3.38609 2.24009,3.7587c1.22028,0.38497 2.0426,-2.68621 2.33371,-3.3836c0.07766,-0.88663 0.38045,-1.6189 0.58183,-2.4384c0.00721,0.27747 0.01769,0.56014 0.02865,0.82318c-0.02947,0.33022 -0.02784,0.65645 0.0418,0.93225c0.00506,0.11761 0.00817,0.20425 0.00817,0.24941v0.48906c0,0.13807 0.11193,0.25 0.25,0.25c0.13807,0 0.25,-0.11193 0.25,-0.25c0,0 0,-0.41583 0,-0.48906c0,-0.03585 0.0014,-0.08474 0.00377,-0.14484c0.71918,-2.9379 0.40899,-6.29533 0.90622,-9.24922c0.57343,-3.40656 2.60392,-6.55199 3.26925,-9.88055c0.7368,-3.02176 0.60143,-7.43429 0.08724,-10.50221c-0.07215,-1.58161 2.26672,-3.26152 1.7887,-4.94571c0.18874,-0.48163 -2.39718,-1.03302 -2.33392,-1.19402c0.77222,-1.16703 1.12949,-2.26048 1.46825,-3.60336c0.3152,1.57145 0.88761,2.95417 0.95719,4.64064l0.02262,0.03353l-0.01204,0.00441l0.16986,0.46406c0.03349,0.0986 0.12684,0.16954 0.23677,0.16954c0.13239,0 0.24075,-0.10291 0.24944,-0.2331l0.038,-0.49635l-0.04287,-0.00328c0.65569,-2.74925 0.33605,-6.9669 -0.00719,-9.54444c-0.46971,-3.49846 -0.5958,-6.90716 -0.59601,-10.4329c-0.0002,-3.50252 0.39078,-6.97562 0.41737,-10.46958c0.02598,-3.51425 0.24443,-6.95196 0.64996,-10.44267c0.03339,-3.5053 0.04064,-7.01002 0.04065,-10.51546c0.00002,-3.5 0.00002,-7 0.00002,-10.5c0,-3.5 0,-7 0,-10.5c-0.00099,-2.98318 -0.37676,-5.98841 -0.80154,-8.94978l12.60078,4.56573l12.53964,14.19201l-12.98287,15.0826l-2.43776,119.80474l-22.9724,11.18939c0.3627,-2.71046 0.68928,-5.41241 0.86051,-8.15214c0.21882,-3.50113 0.43713,-6.97705 0.43713,-10.48554c0,-3.49615 0.00128,-6.99226 -0.01042,-10.48839c-0.01171,-3.49987 -0.43281,-6.97147 -0.43281,-10.48082c0,-2.82508 0,-5.65015 0,-8.47523c0.03046,-0.03016 0.05321,-0.06811 0.06501,-0.1106z" fill="#f7aa11" stroke="#000000" stroke-width="0" stroke-linecap="butt"/><path d="M232.38803,253.41376c-0.07904,-0.5267 1.12459,-2.4237 1.40442,-3.36544c0.56552,-1.90328 0.58924,-4.52209 0.59443,-6.51538c0.00885,-3.43468 0.50369,-6.92767 0.50441,-10.43886c0.00001,-0.80684 0.44375,-3.54867 -0.05666,-4.1586c-1.60148,-1.95195 -2.44965,1.32293 -2.8581,1.94501c-0.25273,0.38492 -1.74866,0.16439 -2.15088,0.18227c-1.06333,-1.09242 -3.32943,-2.60096 -3.75186,-4.14047c-0.18377,-0.66972 0.81387,-1.49676 1.09058,-1.87258c0.3762,-0.51094 0.22292,-1.53748 0.22493,-2.13317c0.01138,-3.4152 -0.49791,-6.83317 -0.49793,-10.37825c-0.00002,-3.70138 -0.15754,-6.84094 -0.95941,-10.3939c-0.78127,-3.43551 -2.1439,-6.66727 -2.96809,-10.07279c-1.38143,-3.21437 -0.91885,-6.82176 -1.48149,-10.24322c-0.32625,-1.96436 0.2154,-4.03621 -0.0941,-5.99184c-0.22625,-1.42964 -0.94933,-2.93409 -1.40643,-4.30883c-0.87713,-3.36662 -0.59029,-6.89818 -0.59048,-10.36222c-0.00001,-1.47048 -0.00002,-2.94096 -0.00002,-4.41144c0.4475,0.12115 0.81064,0.27474 1.01082,0.46483l0.13485,0.34624c0,0 0.1032,0.2277 0.33091,0.1245c0.2277,-0.1032 0.1245,-0.33091 0.1245,-0.33091l-0.25257,-0.50857c-0.27459,-0.24447 -0.76362,-0.44002 -1.34852,-0.58979c0,-0.11032 0,-0.22064 0,-0.33096l7.63385,-3.80791c0,0 -0.34206,19.66088 2.20526,36.47051c-0.00333,1.194 -0.01459,2.38808 -0.01459,3.58104c0,3.54301 0.29514,6.97938 0.66916,10.50209c0.97999,2.98618 1.47592,7.10974 1.54064,10.28754c0.00965,2.8428 -0.31842,6.25472 0.3498,9.01643l0.05744,0.48208c0.01319,0.12566 0.11947,0.22359 0.24862,0.22359c0.08838,0 0.16605,-0.04586 0.21051,-0.11509l0.27418,-0.41343l-0.04301,-0.02852c0.96974,-1.22733 1.20209,-2.60549 2.00243,-3.98809c0.78867,-1.36244 2.13497,-2.42531 3.015,-3.75744c-0.0479,0.72674 0.25991,1.63849 0.3029,2.31624c0.14582,2.29887 0.01527,4.64597 0.01527,6.9493c0,3.55734 0.37638,6.90344 0.87949,10.4252c0.34725,2.43078 0.80146,4.82862 1.31141,7.2249c-0.57384,2.89865 -0.98331,5.80911 -1.53227,8.70904c-0.45089,2.38189 -3.12361,8.25688 -1.37529,10.37442c0.95949,1.09927 2.09522,1.52164 3.15068,2.44526c0.3041,0.26612 0.65946,1.14004 1.09056,1.20771c0.79789,0.12525 1.53197,-1.5312 1.95009,-1.52267c0.06199,0.00126 0.05771,2.04486 0.05866,2.21766c0.00642,1.17781 -0.33536,3.00687 0.29752,4.00546l0.10806,0.44966c0.02447,0.1124 0.12454,0.19657 0.24428,0.19657c0.11485,0 0.2116,-0.07744 0.24091,-0.18295l0.08719,-0.28799c1.24713,-1.3965 1.05901,3.38609 2.2401,3.7587c1.22029,0.38497 2.0426,-2.68621 2.33371,-3.3836c0.07766,-0.88663 0.38045,-1.6189 0.58183,-2.4384c0.00721,0.27747 0.01768,0.56014 0.02864,0.82318c-0.02947,0.33023 -0.02784,0.65645 0.0418,0.93226c0.00506,0.11761 0.00817,0.20424 0.00817,0.24941v0.48905c0,0.13807 0.11193,0.25 0.25,0.25c0.13807,0 0.25,-0.11193 0.25,-0.25c0,0 0,-0.41583 0,-0.48905c0,-0.03585 0.00139,-0.08474 0.00377,-0.14484c0.71918,-2.93789 0.40899,-6.29532 0.90622,-9.24921c0.57343,-3.40655 2.60392,-6.55199 3.26925,-9.88055c0.73679,-3.02177 0.60142,-7.43429 0.08724,-10.50221c-0.07215,-1.58161 -0.48328,-3.26152 -0.9613,-4.94571c0.18873,-0.48163 0.35282,-1.03302 0.41608,-1.19402c0.77221,-1.16704 1.12949,-2.26048 1.46824,-3.60336c0.3152,1.57145 0.8876,2.95417 0.95719,4.64063l0.02262,0.03353l-0.01204,0.00441l0.16986,0.46406c0.03349,0.0986 0.12685,0.16955 0.23677,0.16955c0.13239,0 0.24075,-0.10291 0.24944,-0.2331l0.03801,-0.49635l-0.04287,-0.00328c0.65569,-2.74924 0.33604,-6.9669 -0.0072,-9.54443c-0.46971,-3.49846 -0.5958,-6.90716 -0.59601,-10.4329c-0.00021,-3.50252 0.39078,-6.97562 0.41736,-10.46957c0.02598,-3.51425 0.24443,-6.95196 0.64996,-10.44268c0.03339,-3.5053 0.04064,-7.01002 0.04065,-10.51546c0.00001,-3.5 0.00002,-7 0.00002,-10.5c0,-3.5 0,-7 0,-10.5c-0.00099,-2.98318 -0.37675,-5.98841 -0.80153,-8.94979l4.27527,1.54909c0,1.02267 0,2.04534 0,3.06802c-0.36183,0.59329 -0.59785,1.22295 -0.62065,1.8632l-0.00582,0.16661c0,0 -0.00873,0.24985 0.24111,0.25858c0.24984,0.00873 0.25858,-0.24112 0.25858,-0.24112l0.00583,-0.1666c0.0081,-0.2363 0.05039,-0.47197 0.12095,-0.70516c0,1.1488 0,2.2976 0,3.44639c0,3.30401 0.58027,7.21567 -0.46427,10.35278c-0.81968,3.23418 -0.85068,7.15595 -1.02168,10.3773c-0.03904,3.50214 -0.01405,7.00562 -0.01405,10.50796c0,3.5 0,7 0,10.5c0,3.5 0,7 0,10.5c0,3.52258 -0.45038,6.97151 -0.4961,10.46247c-0.01707,3.50062 -0.00389,7.00158 -0.00389,10.50224c0,3.29105 0.6508,7.22476 -0.76087,10.23208c-0.50985,1.11658 -0.04528,2.34177 -0.23591,3.51887c-0.32452,2.0038 -1.12078,4.8785 -2.41551,6.37411c-0.30648,3.502 -1.3902,6.79974 -1.57233,10.36614c-0.04002,3.37761 -1.56353,6.79147 -3.05294,9.8104c-0.93416,1.89348 -2.16722,3.88424 -2.87792,5.81678c-0.42598,1.15834 -0.48896,2.5238 -1.22947,3.60256c-2.83435,1.46605 -5.88335,3.25833 -8.94933,4.7292c-0.17274,0.02712 -1.55585,0.70122 -1.63467,0.62025c-0.06162,-0.0633 0.12608,-1.6074 0.13104,-1.80835c0.05762,-2.33164 0.31145,-4.0902 1.0529,-6.30102c0.0128,-0.59717 -0.33783,-3.53558 -0.00857,-3.88801c0.45375,-0.48568 1.12397,-0.88028 1.69386,-1.52835c-0.03938,0.30023 -0.06584,0.59672 -0.08428,0.88106l-0.00108,0.01672l-0.03548,0.00026l0.00368,0.49975c0.00087,0.13733 0.11246,0.2484 0.24999,0.2484c0.13327,0 0.2422,-0.10429 0.2496,-0.2357l0.03224,-0.49707c0.08381,-1.29209 0.64941,-2.23547 0.96963,-3.38457c0.10997,-0.04992 0.23947,-0.08437 0.39346,-0.09997l-0.01339,-0.17291l0.08582,0.00162l0.00946,-0.49914c0.00004,-0.00184 0.00006,-0.00367 0.00006,-0.00551c0,-0.13807 -0.11193,-0.25 -0.25,-0.25c-0.06901,0 -0.13148,0.02796 -0.17672,0.07316v0l-0.35367,0.35343l0.07574,0.0758c-0.02961,0.03298 -0.05852,0.06656 -0.08674,0.10073c-0.29022,0.07774 -0.45324,0.289 -0.56129,0.55585c-0.03025,-0.44045 -0.09378,-0.78367 -0.19761,-0.91605c-1.36139,-1.73584 -3.76801,1.44862 -3.94382,-1.88653c-0.00517,-0.98647 0.54698,-4.41212 -0.06045,-5.14864c-0.47066,-0.5707 -1.54231,0.03532 -2.08773,-0.18927c-0.95238,-0.39216 -1.46864,-1.77636 -1.79387,-2.63439c-0.01053,-0.20124 -0.0467,-0.53385 -0.0914,-0.93812c0.25747,-1.82571 0.90492,-3.96065 0.56689,-5.67622c0.30569,-1.08286 0.4522,-2.46632 0.45735,-3.40161z" fill="#b57e0c" stroke="#000000" stroke-width="0" stroke-linecap="butt"/><path d="M200.46282,326.69279l-0.58857,-73.51584l2.69045,14.38785l-0.55058,-59.65719l3.15684,9.20184l3.59682,-16.19025l2.77575,19.17719l0.94428,58.54604l1.81045,-5.97623l0.34786,54.02659z" fill="#000000" stroke="none" stroke-width="0" stroke-linecap="butt"/><path d="M280.90873,184.63815c0,0 -24.22703,28.14913 -36.14722,37.70107c-10.07837,8.07604 -30.78024,15.92955 -30.78024,15.92955" fill="none" stroke="url(#color-2)" stroke-width="3" stroke-linecap="round"/><path d="M280.24392,252.00885c0,0 -21.12205,23.38756 -35.16381,32.89615c-14.10297,9.55005 -45.28212,24.2803 -45.28212,24.2803" fill="none" stroke="url(#color-3)" stroke-width="3" stroke-linecap="round"/></g><g fill="#000000" stroke="#ffffff"><path d="M213.82943,180.14968z" stroke-width="0.5" stroke-linecap="butt"/><path d="M218.15024,181.69851l-12.22218,0.05904" stroke-width="0.5" stroke-linecap="round"/><text transform="translate(205.92806,181.46233) scale(0.06197,0.06197)" font-size="40" xml:space="preserve" fill="#000000" fill-rule="nonzero" stroke="#ffffff" stroke-width="1" stroke-linecap="butt" stroke-linejoin="miter" stroke-miterlimit="10" stroke-dasharray="" stroke-dashoffset="0" font-family="Pixel" font-weight="normal" text-anchor="start" style="mix-blend-mode: normal"><tspan x="0" dy="0">DONK</tspan></text><text transform="translate(205.78019,183.97144) scale(0.06197,0.06197)" font-size="40" xml:space="preserve" fill="#000000" fill-rule="nonzero" stroke="#ffffff" stroke-width="1" stroke-linecap="butt" stroke-linejoin="miter" stroke-miterlimit="10" stroke-dasharray="" stroke-dashoffset="0" font-family="Sans Serif" font-weight="normal" text-anchor="start" style="mix-blend-mode: normal"><tspan x="0" dy="0">Industries</tspan></text><path d="M213.54479,180.10431v-0.70853h4.6645v0.70853z" stroke-width="0.5" stroke-linecap="butt"/><path d="M213.54479,181.27535v-0.68885h4.6645v0.68885z" stroke-width="0.5" stroke-linecap="butt"/><text transform="translate(204.43787,177.87311) scale(0.21474,0.21474)" font-size="40" xml:space="preserve" fill="#000000" fill-rule="nonzero" stroke="#ffffff" stroke-width="1" stroke-linecap="butt" stroke-linejoin="miter" stroke-miterlimit="10" stroke-dasharray="" stroke-dashoffset="0" font-family="Marker" font-weight="normal" text-anchor="start" style="mix-blend-mode: normal"><tspan x="0" dy="0">END</tspan></text></g></g><path d="M268.29922,311.45673l0.18564,-44.18118l3.20459,10.74039l6.44844,-15.56691l7.23977,56.61874z" fill="#000000" stroke="none" stroke-width="0" stroke-linecap="butt"/><path d="M279.84292,216.17806c0.79497,0.73946 0.79497,1.90415 0.79497,1.90415c0,5.77485 -0.16392,11.48716 -0.56284,17.25065c-0.14604,2.10988 0.62304,4.50302 -0.44363,6.32925c-2.38263,4.07926 -6.90074,3.36767 -10.60713,2.4289c-1.15282,-0.29199 -2.5722,-0.23116 -3.39809,-1.08682c-1.32863,-1.37651 -2.67185,-3.2087 -2.59304,-5.1202c0.03972,-0.96348 2.03506,-0.05716 2.82906,-0.60437c0.35017,-0.24133 -0.85679,-0.24472 -1.14975,-0.55299c-0.35595,-0.37455 -0.2905,-1.06286 -0.69336,-1.38642c-0.63865,-0.51294 -1.71607,-0.36203 -2.25342,-0.98029c-1.2104,-1.39268 -1.84395,-3.19662 -2.76592,-4.79494c1.24222,-0.81748 2.34957,-1.90941 3.65512,-2.59802c-0.41339,-0.29426 -0.7762,-0.64054 -1.00108,-1.0792c-0.80972,-1.57946 -2.0388,-3.49616 -1.37782,-5.14342c1.7963,-4.47665 4.41094,-1.3415 6.80373,-1.87434c1.10391,-0.24583 0.14783,-2.25715 0.20459,-3.38667c0.07373,-1.4673 -0.46943,-3.23106 0.43922,-4.3855c3.05916,-3.88665 5.24443,-1.62002 8.22862,-0.4015c1.50941,0.61633 3.78948,0.3106 4.57057,1.74172c0.61346,1.124 -0.15851,2.45032 -0.67979,3.74003z" fill="#000000" stroke="none" stroke-width="0.5" stroke-linecap="butt"/><path d="M258.73293,234.78939c0,0.12245 -0.006,0.23891 -0.01741,0.34966l0.66085,2.47819c0.06451,0.22189 0.0991,0.45652 0.0991,0.69922c0,1.38071 -1.11929,2.5 -2.5,2.5c-0.44574,0 -0.86424,-0.11665 -1.22662,-0.3211l-2.37189,-1.27717l0.20758,-0.38551c-0.5821,-0.28301 -1.08461,-0.66252 -1.44802,-1.21067c-0.84717,-1.27781 1.22043,-2.81291 1.83065,-4.21937l2.26576,-1.11325c0,0 2.5,0 2.5,2.5z" fill="#000000" stroke="none" stroke-width="0.5" stroke-linecap="butt"/><path d="M250.04536,224.7828c0.15534,-1.08741 0.72022,-1.62878 1.30475,-1.89401c0.18778,-1.19488 1.22195,-2.10879 2.46957,-2.10879c0.93821,0 1.75571,0.51682 2.18334,1.28129l1.25401,2.14973c0.22977,0.37805 0.36209,0.82187 0.36209,1.2966c0,1.18507 -0.82456,2.17755 -1.93126,2.43502c-0.29033,0.19441 -0.66373,0.3426 -1.14336,0.41112c-1.08108,0.15444 -1.75738,-0.23082 -2.17625,-0.71374l-0.20157,-0.0288c0,0 -2.47487,-0.35355 -2.12132,-2.82843z" fill="#000000" stroke="none" stroke-width="0.5" stroke-linecap="butt"/><path d="M258.18093,210.06467c0.85281,0.25865 1.21493,1.10769 1.49439,2.05617c0.28071,0.20665 0.56142,0.4133 0.84213,0.61994c0,0 2,1.5 0.5,3.5c-1.5,2 -3.5,0.5 -3.5,0.5c-0.47116,-0.36205 -0.94232,-0.72409 -1.41347,-1.08614l-0.3264,0.59492c-0.05441,-0.29159 -0.07697,-0.5941 -0.06973,-0.89931c-0.00969,-0.00745 -0.01938,-0.01489 -0.02907,-0.02234l-0.22371,-0.0799l-0.80429,0.14671c0,0 -0.2221,-0.2221 -0.43013,-0.58758l-0.81576,-0.29134c-0.99563,-0.32948 -1.71397,-1.26782 -1.71397,-2.37393c0,-1.38071 1.11929,-2.5 2.5,-2.5h2.59889v0.30428c0.46564,-0.04873 0.92961,-0.02147 1.3911,0.1185z" fill="#000000" stroke="none" stroke-width="0.5" stroke-linecap="butt"/></g><g><path d="M185.32203,127.76696c0,0 0.00001,0 0.00002,0c-0.00001,0.00002 -0.00001,0.00003 -0.00001,0.00003z" fill="#000000" stroke="none" stroke-width="1.5" stroke-linecap="butt"/><path d="M191.71826,130.78166c0,0 0,0 0.00001,0c-0.00001,0.00002 0,0.00003 0,0.00003z" fill="#000000" stroke="none" stroke-width="1.5" stroke-linecap="butt"/><path d="M191.71826,130.78166c0,0 0,0 0.00001,0c-0.00001,0.00002 0,0.00003 0,0.00003z" fill="#000000" stroke="none" stroke-width="1.5" stroke-linecap="butt"/><path d="M202.55005,126.72937c-1.3442,-2.97867 -1.31217,-6.54001 -2.27048,-9.56917c-1.18708,-3.75232 -3.2151,-6.68804 -3.2151,-6.68804c0,0 2.31786,0.55603 3.02341,1.34794c0.6115,0.68635 0.96826,3.13229 0.96826,3.13229c0,0 0.16849,-3.34452 1.65523,-5.95512c1.5672,-2.7519 4.50272,-4.81091 6.38448,-6.18929c0.65039,-0.4764 -0.73374,1.48983 -1.41831,3.94438c-0.66788,2.39468 -0.62887,5.27349 -0.62887,5.27349c0,0 3.09674,-6.16498 5.58014,-9.59366c0.98444,-1.35916 2.48974,-3.27187 4.12127,-5.29132c0.33559,0.78132 0.65099,1.58051 0.94726,2.40504c0.55203,1.53632 0.96927,3.1784 1.43984,4.66275c0.25207,0.79512 1.32126,1.03885 1.60881,1.80989c0.32206,0.86356 1.4766,3.14209 1.84941,0.95225c0.08318,-0.62728 0.51408,-4.32892 1.31185,-4.4474c0.08709,-0.01293 0.54411,1.00716 0.58337,1.07431c0.55572,0.95043 0.7662,1.87525 1.43484,2.64001l-0.06454,0.05241l0.31151,0.38365c0.06452,0.08339 0.17769,0.11978 0.28227,0.08219c0.12111,-0.04351 0.18796,-0.17087 0.15869,-0.29319l-0.10862,-0.48466c-0.03499,-0.154 -0.06997,-0.30801 -0.10496,-0.46202c-0.00139,-0.18255 -0.12593,-1.55969 0.1576,-1.58163c0.41758,-0.03232 1.20328,1.30325 1.31738,1.62483c0.62618,1.76474 1.50649,3.85991 2.82617,5.22408c1.11443,3.22657 3.13309,6.41369 3.54817,9.68851c1.86504,2.40392 4.70795,3.91719 6.97418,6.06695l0.21976,0.36467c0.05926,0.10287 0.18541,0.15175 0.30106,0.1102c0.09392,-0.03375 0.15521,-0.11791 0.16434,-0.21104l0.05721,-0.47971c0.13526,-1.13427 0.09762,-2.3111 -0.19876,-3.35952c-0.16453,-0.5187 0.49628,-2.63243 1.27688,-2.06968c1.83945,1.32608 3.25547,3.39963 4.90172,4.95633c1.10922,0.57993 3.60273,0.62329 4.55763,-0.58678c0.25359,0.04949 0.5313,-0.14355 0.83995,-0.71524c0.00743,-0.01379 0.33283,-0.96023 0.34187,-0.99091c0.14167,-0.48105 0.24313,-0.97958 0.36383,-1.46637c0.33692,-1.35881 1.04261,-2.80722 1.62929,-4.27934c0.02595,0.58664 0.06808,1.13769 0.14247,1.65266c0.31874,2.20646 -0.75419,2.86259 0.25867,7.61347c0.38792,1.81957 2.62981,5.47821 3.08895,8.22738c1.0347,6.19528 -0.89876,9.80625 -4.47159,17.18526c-3.57282,7.37902 -18.6839,12.30306 -25.17535,9.02268c-6.91233,-3.49309 -11.76345,-5.88468 -14.80754,-11.87055c-2.74152,-5.3909 -4.08139,-9.06225 -6.21281,-13.97046c-1.5578,-3.58728 -4.30739,-5.30074 -5.95085,-8.9425z" fill="#ffffff" stroke="#000000" stroke-width="0" stroke-linecap="butt"/><g data-paper-data="{&quot;index&quot;:null}" stroke="none" stroke-linecap="butt"><g><path d="M259.80265,140.74587c0,0 5.43612,23.73172 0.35897,29.79215c-2.32222,2.77193 -6.06436,4.72633 -10.79548,6.92842c-0.7144,0.19744 -1.13023,3.40096 -2.06567,3.64794c-1.08432,0.28628 -2.7154,-2.38124 -3.91367,-2.1258c-2.80599,0.59814 -5.65499,0.96831 -7.28519,0.43893c-10.05526,-3.26524 -19.07361,-25.10715 -19.07361,-25.10715l22.70134,-7.20914l20.07334,-6.36531z" fill="#000000" stroke-width="0"/><path d="M240.27484,169.33996c0.63989,-0.05849 2.35554,1.69 3.3096,1.42083c0.95435,-0.26925 1.14717,-2.55621 2.04562,-2.87904c1.77642,-0.63831 4.3097,-1.5947 5.34402,-2.2049c2.11029,-1.29503 2.61571,-0.84453 0.97905,0.81699c-0.79814,0.82355 -2.79951,1.95561 -6.11012,3.14519c-0.7315,0.26284 -0.67154,3.47856 -1.23984,3.66051c-1.06696,0.34162 -2.57682,-2.44673 -3.23473,-2.34278c-0.91606,0.14473 -1.54078,0.08909 -2.16695,-0.08336c-2.32211,-0.62673 -2.12122,-1.2906 0.54193,-1.42747z" data-paper-data="{&quot;noHover&quot;:false,&quot;origItem&quot;:[&quot;Path&quot;,{&quot;applyMatrix&quot;:true,&quot;segments&quot;:[[[15.92589,311.65151],[0,0],[-0.92968,-0.4187]],[[15.56651,312.25289],[-0.71874,-0.74602],[0.40626,0.4263]],[[17.90245,312.74771],[-1.55468,0],[1.28126,0]],[[20.27745,312.35185],[-0.375,0.27406],[0.76562,-0.5481]],[[20.04307,311.78091],[0.88282,-0.27406],[-0.42968,0.1218]],[[17.99619,312.00167],[0.6875,0],[-0.69532,0]],[[15.92587,311.65149],[0.45314,0.1751],[0,0]]],&quot;closed&quot;:true,&quot;fillColor&quot;:[0,0,0]}]}" fill="#ffffff" stroke-width="0.5"/><path d="M220.77702,155.64121c-0.96732,-0.97937 0.05656,-1.16526 2.96894,-0.98917c2.19168,0.13687 7.50612,11.6332 12.07467,15.65724c1.45685,1.27903 2.87399,1.82804 4.87349,1.68305c1.00616,-0.07295 3.21057,3.29805 4.59091,2.87825c0.64139,-0.19506 0.28095,-4.04677 1.02821,-4.31527c6.07613,-2.18328 7.19964,-3.18998 9.07284,-9.14104c1.52732,-4.69364 1.9087,-18.99485 2.82641,-18.78784c0.70162,0.23992 3.39906,19.06266 2.71895,21.99076c-0.33773,1.5974 -1.1879,3.62169 -1.79017,4.41956c-1.76269,2.266 -5.93233,4.88668 -10.29627,6.63473c-1.0402,0.41667 -0.74851,4.17356 -1.78083,4.47446c-0.72752,0.21205 -2.78859,-2.99857 -3.48682,-2.8581c-7.30001,1.50483 -10.25399,0.23653 -16.19873,-6.85639c-1.9381,-2.28554 -6.1743,-14.36219 -6.60161,-14.79011z" data-paper-data="{&quot;noHover&quot;:false,&quot;origItem&quot;:[&quot;Path&quot;,{&quot;applyMatrix&quot;:true,&quot;segments&quot;:[[[10.70715,306.57397],[0,0],[0.09376,0.29688]],[[11.56653,309.88543],[-0.38282,-1.52252],[1.16406,4.71216]],[[16.20715,316.24189],[-2.6875,-0.57094],[2.14844,0.47198]],[[22.44933,314.91731],[-1.24218,1.17232],[0.30468,-0.29688]],[[23.58995,313.02179],[-0.3125,0.75364],[0.59376,-1.37026]],[[24.97277,306.79473],[0.21094,0.25122],[-0.28906,-0.27406]],[[22.27745,310.38023],[1.10158,-2.11628],[-1.375,2.69484]],[[17.94933,313.50137],[2.35156,0],[-2.14844,0]],[[14.27745,311.35463],[0.59376,1.59864],[-1.07032,-2.89276]],[[11.68371,306.49783],[0.73436,0.47198],[-0.97656,-0.62422]],[[10.70715,306.57395],[-0.21094,-0.67752],[0,0]]],&quot;closed&quot;:true,&quot;fillColor&quot;:[0,0,0]}]}" fill="#ffffff" stroke-width="0.5"/></g><g data-paper-data="{&quot;index&quot;:null}"><path d="M217.96691,154.26728c0,0 -1.75304,-10.20057 3.32412,-16.261c1.10099,-1.3142 2.79468,-2.54291 4.77579,-3.70648c0.64592,-0.37937 3.05947,1.9967 3.75591,1.63048c1.13182,-0.59517 0.5793,-3.92241 1.77119,-4.48774c0.56982,-0.27027 1.14131,-0.53748 1.70952,-0.80194c3.48164,-0.96222 9.12064,-2.47427 12.04758,-1.5238c10.05526,3.26524 15.39053,11.576 15.39053,11.576l-22.70133,7.20915l-20.07333,6.3653z" fill="#000000" stroke-width="0"/><path d="M241.06717,139.24409c-1.27999,0.117 -3.5586,0.81266 -5.35522,1.45822c-0.84733,0.30446 -0.73657,4.52225 -1.68349,4.89937c-1.03828,0.4135 -3.11956,-3.01361 -3.66052,-2.69446c-2.11029,1.29503 -1.93805,-0.39827 -0.30139,-2.05979c0.46937,-0.48431 2.16188,3.25653 3.48503,2.60988c0.92683,-0.45296 0.58371,-4.02225 1.94744,-4.51226c4.0171,-1.44342 5.32609,-1.59665 6.64151,-1.23437c2.32211,0.62673 2.12122,1.2906 -0.54193,1.42748z" data-paper-data="{&quot;noHover&quot;:false,&quot;origItem&quot;:[&quot;Path&quot;,{&quot;applyMatrix&quot;:true,&quot;segments&quot;:[[[15.92589,311.65151],[0,0],[-0.92968,-0.4187]],[[15.56651,312.25289],[-0.71874,-0.74602],[0.40626,0.4263]],[[17.90245,312.74771],[-1.55468,0],[1.28126,0]],[[20.27745,312.35185],[-0.375,0.27406],[0.76562,-0.5481]],[[20.04307,311.78091],[0.88282,-0.27406],[-0.42968,0.1218]],[[17.99619,312.00167],[0.6875,0],[-0.69532,0]],[[15.92587,311.65149],[0.45314,0.1751],[0,0]]],&quot;closed&quot;:true,&quot;fillColor&quot;:[0,0,0]}]}" fill="#ffffff" stroke-width="0.5"/><path d="M256.8819,139.4117c0.96732,0.97937 -0.05656,1.16525 -2.96894,0.98916c-2.19168,-0.13687 -3.82304,1.89795 -8.39159,-2.12609c-2.53059,-2.22171 -4.94132,-2.24073 -10.49261,-0.24603c-0.80633,0.28974 -1.25769,4.08505 -1.90292,4.34765c-1.00115,0.40745 -2.09216,-2.72684 -2.78729,-2.29684c-2.23276,1.38116 -3.14373,3.15429 -4.38264,7.09023c-1.52731,4.69364 -5.59177,5.46371 -6.50948,5.25671c-0.70162,-0.23992 0.28402,-5.53151 0.96413,-8.45961c0.33773,-1.5974 1.18789,-3.62171 1.79017,-4.41957c0.96807,-1.24448 2.66213,-2.59596 4.71564,-3.8511c0.61664,-0.3769 3.84281,2.95071 4.51435,2.59668c0.99431,-0.52418 -0.53921,-4.71306 0.52149,-5.15716c1.94629,-0.81488 3.95011,-1.46484 5.81243,-1.83951c7.30001,-1.50483 10.25399,-0.23653 16.19874,6.8564c1.9381,2.28554 2.49122,0.83105 2.91853,1.25897z" data-paper-data="{&quot;noHover&quot;:false,&quot;origItem&quot;:[&quot;Path&quot;,{&quot;applyMatrix&quot;:true,&quot;segments&quot;:[[[10.70715,306.57397],[0,0],[0.09376,0.29688]],[[11.56653,309.88543],[-0.38282,-1.52252],[1.16406,4.71216]],[[16.20715,316.24189],[-2.6875,-0.57094],[2.14844,0.47198]],[[22.44933,314.91731],[-1.24218,1.17232],[0.30468,-0.29688]],[[23.58995,313.02179],[-0.3125,0.75364],[0.59376,-1.37026]],[[24.97277,306.79473],[0.21094,0.25122],[-0.28906,-0.27406]],[[22.27745,310.38023],[1.10158,-2.11628],[-1.375,2.69484]],[[17.94933,313.50137],[2.35156,0],[-2.14844,0]],[[14.27745,311.35463],[0.59376,1.59864],[-1.07032,-2.89276]],[[11.68371,306.49783],[0.73436,0.47198],[-0.97656,-0.62422]],[[10.70715,306.57395],[-0.21094,-0.67752],[0,0]]],&quot;closed&quot;:true,&quot;fillColor&quot;:[0,0,0]}]}" fill="#ffffff" stroke-width="0.5"/></g></g><path d="M238.71411,145.00401c-0.97286,0.34957 -4.4322,-1.87193 -5.37738,-3.76725c-0.84569,-1.69579 -0.0568,-4.04719 2.26918,-4.88297c2.32599,-0.83578 4.12052,-0.9591 5.20896,2.57903c0.92372,3.0027 0.22523,5.23542 -2.10075,6.0712z" fill="#ffffff" stroke="#000000" stroke-width="1.15" stroke-linecap="butt"/><path d="M207.84373,127.10734c-1.58746,-4.62769 1.53154,-10.04578 6.6144,-11.78938c5.08284,-1.74359 9.93207,0.94554 11.51953,5.57323c1.58746,4.62769 -0.90675,9.67071 -5.9896,11.41431c-5.08284,1.74359 -10.55687,-0.57046 -12.14433,-5.19816z" fill="#838383" stroke="#000000" stroke-width="0" stroke-linecap="butt"/><path d="M206.84122,124.67715c-1.58746,-4.62769 1.53154,-10.04578 6.6144,-11.78938c5.08284,-1.74359 9.93207,0.94554 11.51953,5.57323c1.58746,4.62769 -0.90675,9.6707 -5.9896,11.41431c-5.08284,1.7436 -10.55687,-0.57046 -12.14433,-5.19816z" fill="#000000" stroke="#000000" stroke-width="1.4" stroke-linecap="butt"/><path d="M213.65836,122.91843c-1.1055,-2.65238 0.95923,-10.22578 0.95923,-10.22578c0,0 2.91886,5.37219 4.02435,8.02456c1.1055,2.65238 -2.54975,9.82069 -2.54975,9.82069c0,0 -1.32834,-4.9671 -2.43383,-7.61947z" fill="#750000" stroke="none" stroke-width="1.5" stroke-linecap="butt"/><path d="M214.21611,122.6712c-0.89514,-2.60945 0.43028,-10.25437 0.43028,-10.25437c0,0 2.31834,5.25998 3.21347,7.86942c0.89514,2.60945 -1.62382,9.90868 -1.62382,9.90868c0,0 -1.1248,-4.91429 -2.01993,-7.52373z" fill="#bd0000" stroke="none" stroke-width="1.5" stroke-linecap="butt"/><path d="M207.78158,135.60646c0,0 -5.83086,-1.64206 -8.83597,-6.36187c-3.16196,-4.96617 -4.66629,-8.66535 -2.92696,-9.56568c1.73932,-0.90035 3.34773,1.3228 6.33824,6.60127c2.9905,5.27847 5.42471,9.32628 5.42471,9.32628z" data-paper-data="{&quot;index&quot;:null}" fill="#ffffff" stroke="#000000" stroke-width="1" stroke-linecap="butt"/><path d="M206.25605,131.95996c0,0 -4.34246,-1.54604 -6.92138,-6.4926c-1.43862,-2.75934 1.25865,-2.87515 1.25865,-2.87515" fill="none" stroke="#000000" stroke-width="0.25" stroke-linecap="round"/><path d="M244.84994,154.17674c0,0 -2.41058,-26.54244 -2.61032,-40.36274c-0.18985,-13.13669 1.44004,-40.6123 1.44004,-40.6123" data-paper-data="{&quot;index&quot;:null}" fill="none" stroke="url(#color-4)" stroke-width="3" stroke-linecap="round"/><path d="M234.55086,148.44234l5.99994,-8.14541l15.43343,11.36831l-5.99994,8.14542c0,0 -5.31331,4.55939 -7.85733,4.14647c-1.41167,-0.22914 -0.10529,-5.06281 -1.01138,-5.73024c-2.60386,-1.91801 -6.56472,-9.78454 -6.56472,-9.78454z" fill="url(#color-5)" stroke="url(#color-6)" stroke-width="0" stroke-linecap="butt"/><path d="M244.84763,155.52613c0,0 -17.46131,-9.31372 -24.65993,-15.37282c-7.73252,-6.50848 -20.24816,-22.42643 -20.24816,-22.42643" fill="none" stroke="url(#color-7)" stroke-width="3" stroke-linecap="round"/><path d="M215.99289,154.29214c4.48561,-1.57697 18.56335,0.12556 18.56335,0.12556" data-paper-data="{&quot;index&quot;:null}" fill="none" stroke="url(#color-8)" stroke-width="3" stroke-linecap="round"/><path d="M230.38542,158.17547l-3.4026,-2.43565c0,0 -6.77812,-6.37828 -13.12627,-7.43939c-7.19066,-1.20194 -14.01784,2.85012 -13.26795,1.9689c2.12706,-2.49959 37.91516,-8.06819 37.91516,-8.06819c0,0 3.97635,7.48118 5.6695,9.80019c1.01942,1.39623 3.53825,2.81109 3.53825,2.81109c0,0 1.53795,3.87012 -0.22602,5.7492c-0.97883,1.0427 -4.25754,-2.74162 -5.31735,-2.36312c-3.0456,1.08772 -11.78271,-0.02301 -11.78271,-0.02301z" fill="url(#color-9)" stroke="url(#color-10)" stroke-width="0" stroke-linecap="butt"/><path d="M232.0173,115.43283c0,0 1.34937,3.7334 2.32574,6.73704c1.93339,5.94772 8.36961,26.49105 8.36961,26.49105l-2.8031,1.01639c0,0 -2.16666,-3.65541 -4.26944,-8.56035c-2.84629,-6.63926 -5.93262,-15.18139 -7.35719,-18.21761c-1.35035,-2.87805 -2.77554,-5.07494 -2.77554,-5.07494" fill="#ffffff" stroke="#000000" stroke-width="1.3" stroke-linecap="round"/></g></g></g></svg>