<svg xmlns="http://www.w3.org/2000/svg" xmlns:xlink="http://www.w3.org/1999/xlink" version="1.1" width="31.15807203331222" height="31.157572307970423" viewBox="0.07296391140108405 0.2202639089096099 31.15807203331222 31.157572307970423">
  <!-- Exported by Scratch - http://scratch.mit.edu/ -->
  <g id="ID0.8684802772477269">
    <path id="ID0.055466325022280216" fill="#D1733F" d="M 31.1997 15.7994 C 31.1997 7.2119 24.2387 0.2516 15.6522 0.2516 C 7.0654 0.2516 0.1043 7.2119 0.1043 15.7994 C 0.1043 24.3856 7.0653 31.3465 15.6522 31.3465 C 24.2387 31.3464 31.1997 24.3855 31.1997 15.7994 Z " stroke-width="0.0626721767448366"/>
    <g id="ID0.0654494957998395">
      <path id="ID0.45338574703782797" fill="#FFFFFF" d="M 16.3635 8.3308 C 16.1498 8.2148 15.8897 8.225 15.6858 8.3575 L 9.7234 12.23 L 7.5195 12.23 C 7.1532 12.23 6.8563 12.527 6.8563 12.8932 L 6.8563 18.7047 C 6.8563 19.071 7.1532 19.368 7.5195 19.368 L 9.7234 19.368 L 15.6858 23.2405 C 15.7953 23.3116 15.9211 23.3475 16.0471 23.3475 C 16.1557 23.3475 16.2646 23.3208 16.3635 23.2671 C 16.5772 23.151 16.7104 22.9274 16.7104 22.6842 L 16.7104 8.9138 C 16.7103 8.6706 16.5772 8.4468 16.3635 8.3308 Z " stroke-width="0.0626721767448366"/>
      <path id="ID0.26105341874063015" fill="#FFFFFF" d="M 22.3783 15.799 L 24.2825 13.8947 C 24.5028 13.6744 24.5028 13.3173 24.2825 13.097 C 24.0622 12.8768 23.7051 12.8768 23.4848 13.097 L 21.5806 15.0013 L 19.6764 13.097 C 19.4561 12.8768 19.099 12.8768 18.8787 13.097 C 18.6584 13.3173 18.6584 13.6744 18.8787 13.8947 L 20.783 15.799 L 18.8788 17.7032 C 18.6585 17.9236 18.6585 18.2806 18.8788 18.501 C 18.9889 18.6111 19.1333 18.6662 19.2776 18.6662 C 19.4219 18.6662 19.5663 18.6111 19.6764 18.501 L 21.5807 16.5967 L 23.4849 18.501 C 23.595 18.6111 23.7394 18.6662 23.8838 18.6662 C 24.0281 18.6662 24.1724 18.6111 24.2826 18.501 C 24.5029 18.2806 24.5029 17.9236 24.2826 17.7032 L 22.3783 15.799 Z " stroke-width="0.0626721767448366"/>
    </g>
  </g>
</svg>