<svg xmlns="http://www.w3.org/2000/svg" xmlns:xlink="http://www.w3.org/1999/xlink" version="1.1" width="31.15807203331222" height="31.157572307970423" viewBox="0.07296391140108405 0.2201638923156768 31.15807203331222 31.157572307970423">
  <!-- Exported by Scratch - http://scratch.mit.edu/ -->
  <g id="ID0.7086577927693725">
    <path id="ID0.5528987729921937" fill="#D1733F" d="M 31.1997 15.7993 C 31.1997 7.2118 24.2387 0.2515 15.6522 0.2515 C 7.0654 0.2515 0.1043 7.2119 0.1043 15.7993 C 0.1043 24.3855 7.0653 31.3464 15.6522 31.3464 C 24.2387 31.3464 31.1997 24.3855 31.1997 15.7993 Z " stroke-width="0.0626721767448366"/>
    <g id="ID0.4885607282631099">
      <path id="ID0.2488752375356853" fill="#FFFFFF" d="M 15.6289 8.1011 C 15.4152 7.9851 15.1551 7.9953 14.9512 8.1278 L 8.9888 12.0003 L 6.785 12.0003 C 6.4186 12.0003 6.1217 12.2972 6.1217 12.6636 L 6.1217 18.475 C 6.1217 18.8413 6.4186 19.1383 6.785 19.1383 L 8.9888 19.1383 L 14.9512 23.0108 C 15.0608 23.0819 15.1864 23.1178 15.3125 23.1178 C 15.4211 23.1178 15.5301 23.0911 15.629 23.0375 C 15.8427 22.9214 15.9758 22.6977 15.9758 22.4546 L 15.9758 8.684 C 15.9757 8.4408 15.8426 8.2171 15.6289 8.1011 Z " stroke-width="0.0626721767448366"/>
      <path id="ID0.7964174100197852" fill="#FFFFFF" d="M 17.8218 20.2607 C 17.8778 20.2607 17.9347 20.2506 17.9901 20.2291 C 19.5092 19.6393 20.5298 17.8169 20.5298 15.6942 C 20.5298 13.8168 19.7025 12.1189 18.4221 11.3687 C 18.2006 11.2389 17.9157 11.3133 17.7858 11.5348 C 17.6559 11.7564 17.7303 12.0413 17.952 12.1711 C 18.9529 12.7576 19.5997 14.1405 19.5997 15.6942 C 19.5997 17.4088 18.7993 18.917 17.6534 19.3621 C 17.414 19.4549 17.2953 19.7244 17.3882 19.9638 C 17.4597 20.1481 17.6355 20.2607 17.8218 20.2607 Z " stroke-width="0.0626721767448366"/>
      <path id="ID0.7657772335223854" fill="#FFFFFF" d="M 19.0359 22.2002 C 19.092 22.2002 19.1488 22.19 19.2041 22.1686 C 21.3378 21.3401 22.8279 18.6603 22.8279 15.6514 C 22.8279 12.9448 21.6444 10.5025 19.8128 9.4294 C 19.5913 9.2996 19.3062 9.3739 19.1765 9.5956 C 19.0466 9.8172 19.121 10.1021 19.3427 10.2319 C 20.8949 11.1414 21.8979 13.2686 21.8979 15.6514 C 21.8979 18.2854 20.6517 20.6088 18.8675 21.3016 C 18.6281 21.3944 18.5093 21.6639 18.6023 21.9034 C 18.6738 22.0874 18.8495 22.2002 19.0359 22.2002 Z " stroke-width="0.0626721767448366"/>
      <path id="ID0.29138590674847364" fill="#FFFFFF" d="M 20.2863 24.0489 C 20.098 24.0489 19.9202 23.9349 19.848 23.7488 C 19.754 23.5068 19.8741 23.2345 20.116 23.1405 C 22.5455 22.1972 24.2422 19.1042 24.2422 15.6187 C 24.2422 12.4765 22.8879 9.6528 20.7919 8.4248 C 20.568 8.2935 20.4928 8.0056 20.624 7.7816 C 20.7552 7.5576 21.0431 7.4824 21.2672 7.6137 C 23.6455 9.007 25.1823 12.1492 25.1823 15.6187 C 25.1823 19.483 23.2389 22.9365 20.4562 24.0169 C 20.4004 24.0386 20.3429 24.0489 20.2863 24.0489 Z " stroke-width="0.0626721767448366"/>
    </g>
  </g>
</svg>