<svg version="1.1" xmlns="http://www.w3.org/2000/svg" xmlns:xlink="http://www.w3.org/1999/xlink" width="35.67311" height="35.67311" viewBox="0,0,35.67311,35.67311"><defs><linearGradient x1="240.00001" y1="162.91345" x2="240.00001" y2="197.08656" gradientUnits="userSpaceOnUse" id="color-1"><stop offset="0" stop-color="#ffc100"/><stop offset="1" stop-color="#d89116"/></linearGradient></defs><g transform="translate(-222.16345,-162.16345)"><g data-paper-data="{&quot;isPaintingLayer&quot;:true}" stroke-miterlimit="10" stroke-dasharray="" stroke-dashoffset="0" style="mix-blend-mode: normal"><path d="M229.98311,162.91345h20.03379c3.9166,0 7.06966,3.15307 7.06966,7.06966v20.03379c0,3.91659 -3.15306,7.06966 -7.06966,7.06966h-20.03379c-3.91659,0 -7.06966,-3.15307 -7.06966,-7.06966v-20.03379c0,-3.91659 3.15307,-7.06966 7.06966,-7.06966z" fill="url(#color-1)" fill-rule="evenodd" stroke="#000000" stroke-width="1.5" stroke-linecap="round" stroke-linejoin="round"/><g fill="#000000" fill-rule="nonzero" stroke="#ffffff" stroke-width="1" stroke-linejoin="miter"><path d="M224.757,179.34787l2.47252,-7.80571l28.09028,8.89783l-2.47252,7.80571z" stroke-linecap="butt"/><path d="M236.29572,182.93096l1.10533,-8.06847" stroke-linecap="round"/><path d="M247.81698,178.39822l-1.10533,8.06847" stroke-linecap="round"/><path d="M243.12142,176.98303l-1.10533,8.06847" stroke-linecap="round"/><path d="M233.56131,173.62714l-1.10533,8.06847" stroke-linecap="round"/><path d="M230.35263,172.60994l0.20145,8.4824" stroke-linecap="round"/><path d="M251.09818,187.64244l1.10533,-8.06847" stroke-linecap="round"/></g></g></g></svg>