<svg version="1.1" xmlns="http://www.w3.org/2000/svg" xmlns:xlink="http://www.w3.org/1999/xlink" width="140.86406" height="266.49146" viewBox="0,0,140.86406,266.49146"><defs><linearGradient x1="172.11548" y1="-151.04233" x2="279.63005" y2="365.56557" gradientUnits="userSpaceOnUse" id="color-1"><stop offset="0" stop-color="#000000"/><stop offset="1" stop-color="#000000" stop-opacity="0"/></linearGradient><linearGradient x1="198.79612" y1="-155.41563" x2="306.31069" y2="361.19226" gradientUnits="userSpaceOnUse" id="color-2"><stop offset="0" stop-color="#000000"/><stop offset="1" stop-color="#000000" stop-opacity="0"/></linearGradient></defs><g transform="translate(-184.60512,-48.14105)"><g data-paper-data="{&quot;isPaintingLayer&quot;:true}" fill-rule="nonzero" stroke-linejoin="miter" stroke-miterlimit="10" stroke-dasharray="" stroke-dashoffset="0" style="mix-blend-mode: normal"><path d="M236.19989,314.63251l-51.59477,-247.91306l89.26929,-18.5784l51.59477,247.91306z" fill-opacity="0.01" fill="#000000" stroke="none" stroke-width="0" stroke-linecap="butt"/><path d="M200.75203,186.3796c-0.05451,-8.15261 8.18688,-36.76129 40.20201,-36.9211c31.60235,-0.15775 39.85672,29.48704 39.84884,36.89673c-0.0188,11.35257 0.01106,24.24207 0.06683,37.22967c-2.54077,-0.07752 -5.06977,-0.26595 -7.59424,-0.64758c-0.81207,-0.12273 -1.62122,-0.25349 -2.42822,-0.39177l-0.04557,-32.95081c0,0 0.07549,-3.0993 -2.81625,-3.15415c-3.43441,-0.06514 -2.94538,3.11562 -2.94538,3.11562l0.05702,31.87785c-0.70409,-0.15058 -1.40789,-0.30604 -2.11191,-0.46604c-3.42496,-0.77837 -6.84902,-1.4607 -10.31521,-2.02467c-3.43908,-0.55956 -6.84464,-1.46408 -10.24453,-2.22634c-3.40092,-0.76249 -6.74257,-1.82608 -10.0193,-3.0055c-3.29409,-1.18566 -6.59158,-2.32333 -9.83976,-3.63113c-1.92152,-0.77366 -3.87133,-1.54703 -5.79101,-2.37447l-0.04887,-18.44061c0,0 0.27949,-2.919 -2.8856,-2.93443c-3.11083,-0.01515 -2.81569,2.90899 -2.81569,2.90899l0.04835,15.75487c-2.46803,-1.26359 -4.86919,-2.57196 -7.27099,-4.0036c-1.00596,-0.59962 -2.01807,-1.26005 -2.96598,-1.99883c-0.03474,-5.17701 -0.06377,-9.50632 -0.08454,-12.61269z" fill="#ffffff" stroke="#000000" stroke-width="2" stroke-linecap="butt"/><path d="M264.18334,198.73334l0.33333,-42.83333c0,0 2.60448,1.08741 3.80852,1.87144c1.18453,0.77132 3.02481,3.96189 3.02481,3.96189l0.33333,37z" fill="#99670f" stroke="none" stroke-width="0" stroke-linecap="butt"/><path d="M263.85002,199.90001v-9.16667h8v9.16667z" fill="#68450a" stroke="none" stroke-width="0" stroke-linecap="butt"/><path d="M281.45718,304.34171l-10.49667,0.09614l-0.11255,-81.38492c0.782,0.13346 1.56604,0.25987 2.3528,0.37878c2.55,0.38529 5.10458,0.57552 7.67112,0.65341c0.1727,39.75543 0.5853,80.25659 0.5853,80.25659z" fill="#000000" stroke="#000000" stroke-width="2" stroke-linecap="butt"/><path d="M201.5454,304.3916c0,0 -0.47344,-70.3304 -0.70458,-104.76805c0.87275,0.65672 1.79099,1.25179 2.70573,1.79704c2.48516,1.48133 4.97045,2.8317 7.52873,4.13649l0.30304,98.74955z" fill="#000000" stroke="#000000" stroke-width="2" stroke-linecap="butt"/><path d="M265.24554,304.42616l-48.21366,0.07222l-0.25508,-96.24777c1.85896,0.79685 3.74403,1.54518 5.60282,2.29358c3.25395,1.31013 6.55725,2.45001 9.85718,3.63777c3.29626,1.18645 6.65805,2.2559 10.07925,3.02293c3.40958,0.76443 6.82473,1.6708 10.27362,2.23196c3.45598,0.56231 6.86982,1.24265 10.2847,2.01873c0.74125,0.16846 1.48227,0.33191 2.22363,0.48994z" fill="#000000" stroke="#000000" stroke-width="2" stroke-linecap="butt"/><path d="M270.07,259.28l-0.2,-15h12.6v25.8c0,0 -5.62083,-2.8504 -7.74118,-4.69716c-2.00671,-1.74778 -4.65882,-6.10284 -4.65882,-6.10284z" fill="#191919" stroke="none" stroke-width="0" stroke-linecap="butt"/><path d="M215.67,250.28001v-8c0,0 37.18748,-14.4 45.8,-14.4c3.72352,0 5,14.4 5,14.4v8l-7.8,-14.4c0,0 -18.62065,12.99402 -23.2,14.4c-16.93662,5.2 -19.8,0 -19.8,0z" fill="#191919" stroke="none" stroke-width="0" stroke-linecap="butt"/><path d="M200.07,239.08001l-0.2,-30h12.4l0.4,41.4c0,0 -3.10253,-1.10229 -4.5611,-2.42195c-2.32376,-2.10245 -8.0389,-8.97805 -8.0389,-8.97805z" fill="#191919" stroke="none" stroke-width="0" stroke-linecap="butt"/><path d="M199.2804,203.13335l-0.33038,-12.66667c0,0 50.37796,13 65.41534,13c8.03782,0 17.84057,-13 17.84057,-13l0.66077,65.66667c0,0 -11.68472,-6.91139 -15.24726,-11.36817c-3.39441,-4.24645 -5.64795,-14.77205 -5.64795,-14.77205c0,0 -28.10907,22.27141 -43.92788,14.11392c-16.09969,-8.30233 -18.76319,-40.97369 -18.76319,-40.97369z" fill="#a03a00" stroke="none" stroke-width="0" stroke-linecap="butt"/><path d="M199.2804,199.59697l-0.33038,-9.13029l66.0761,20l17.1798,-20l0.66077,47.33334c0,0 -11.68472,-4.98182 -15.24726,-8.19432c-3.39441,-3.06089 -5.64795,-10.64787 -5.64795,-10.64787c0,0 -28.10907,16.05351 -43.92788,10.17349c-16.09969,-5.98442 -18.76319,-29.53433 -18.76319,-29.53433z" fill="#ff8500" stroke="none" stroke-width="0" stroke-linecap="butt"/><path d="M278.31001,253.07335l0.5,-21.1h4v24c0,0 -2.09954,-1.08859 -2.91839,-1.61629c-0.6325,-0.40761 -1.58161,-1.28371 -1.58161,-1.28371z" fill="#702900" stroke="none" stroke-width="0" stroke-linecap="butt"/><path d="M278.71001,235.77335v-4.6h4.1l-0.1,5.9c0,0 -1.22087,-0.09678 -1.8632,-0.30554c-0.68788,-0.22356 -2.1368,-0.99446 -2.1368,-0.99446z" fill="#a95700" stroke="none" stroke-width="0" stroke-linecap="butt"/><path d="M256.14252,200.33378c-0.57113,0 -1.03411,-0.46299 -1.03411,-1.03411c0,-0.57113 0.46299,-1.03413 1.03411,-1.03413c0.57113,0 1.03411,0.463 1.03411,1.03413c0,0.57113 -0.46299,1.03411 -1.03411,1.03411z" fill="#000000" stroke="none" stroke-width="1.5" stroke-linecap="butt"/><path d="M250.88267,204.56937c-4.4635,-0.31439 -6.55245,-1.79392 -6.16985,-2.58011c0.11788,-0.24224 2.84645,1.06355 6.97038,1.3048c6.40897,0.37493 8.51033,-0.63173 8.51033,-0.63173v1.34616c0,0 -2.4135,1.04672 -9.31086,0.56089z" fill="#000000" stroke="#000000" stroke-width="0" stroke-linecap="butt"/><path d="M223.06994,199.29967c0,-0.57113 0.46299,-1.03413 1.03411,-1.03413c0.57113,0 1.03413,0.463 1.03413,1.03413c0,0.57113 -0.463,1.03411 -1.03413,1.03411c-0.57113,0 -1.03411,-0.46299 -1.03411,-1.03411z" fill="#000000" stroke="none" stroke-width="1.5" stroke-linecap="butt"/><path d="M229.36394,204.56937c-6.89736,0.48585 -9.31086,-0.56089 -9.31086,-0.56089v-1.34616c0,0 2.10136,1.00666 8.51033,0.63173c4.12393,-0.24126 6.85251,-1.54704 6.97039,-1.3048c0.3826,0.78618 -1.70634,2.26571 -6.16985,2.58011z" fill="#000000" stroke="#000000" stroke-width="0" stroke-linecap="butt"/><path d="M198.65004,191.60002c0,0 0.62601,-9.23895 1.24413,-13.38917c0.53714,-3.60652 2.25587,-10.11083 2.25587,-10.11083c0,0 0.04328,10.89292 5.54045,13.67636c15.26414,7.72883 45.59317,22.32365 56.95954,22.32365c9.11998,0 18.25,-27 18.25,-27l-0.25,56.75c0,0 -44.18678,-19.69216 -49.54301,-20.91449c-14.026,-3.20084 -34.45699,-21.33551 -34.45699,-21.33551z" fill="#d89116" stroke="none" stroke-width="0" stroke-linecap="butt"/><path d="M199.65004,180.10002c0,0 0.3768,-2.6782 0.70142,-4.31663c0.42917,-2.16607 1.64868,-7.54455 1.64868,-7.54455c0,0 1.20942,6.42818 1.92398,8.69901c0.4959,1.57595 1.95239,3.61986 1.95239,3.61986l6.71785,3.74849c0,0 22.72818,8.89359 32.34616,12.42974c7.67762,2.82276 20.70953,7.36408 20.70953,7.36408c0,0 4.58245,-3.12793 6.76327,-6.32014c3.18192,-4.65759 10.48673,-20.30486 10.48673,-20.30486l0.375,27.375c0,0 -7.06602,12.35726 -15.05626,9.59153c-8.49894,-2.94181 -18.89208,-6.58845 -25.59343,-9.11105c-9.83947,-3.70389 -26.95451,-10.77304 -33.6632,-13.55964c-1.29318,-0.53715 -6.29636,-6.30801 -8.55667,-9.48824c-0.82824,-1.16533 -0.75544,-2.1826 -0.75544,-2.1826z" fill="#ffc100" stroke="none" stroke-width="0" stroke-linecap="butt"/><path d="M277.51669,213.1155c0,7.96211 -6.49187,14.41667 -14.5,14.41667c-8.00813,0 -14.5,-6.45456 -14.5,-14.41667c0,-7.96211 6.49187,-14.41667 14.5,-14.41667c8.00813,0 14.5,6.45456 14.5,14.41667z" fill="#ffffff" stroke="#b6780e" stroke-width="4" stroke-linecap="butt"/><path d="M263.9285,210.87221l-6.46949,-1.3902l7.96364,-0.76188l1.10473,11.54728z" fill="#000000" stroke="#000000" stroke-width="1.5" stroke-linecap="round"/><path d="M267.66668,160.5c0,12.51845 -12.38679,22.66666 -27.66667,22.66666c-15.27988,0 -27.66666,-10.14821 -27.66666,-22.66666c0,-4.54612 4.96691,-11.11299 7.77938,-14.66143c-7.09368,33.38977 26.14669,40.92399 39.92061,17.29476c3.515,-6.03001 -0.41394,-12.54884 0.15901,-17.05833c0.76096,1.48685 4.29128,4.4463 6.10778,7.62092c1.47545,2.57857 1.36655,5.41251 1.36655,6.80408z" fill="#ffc100" stroke="#000000" stroke-width="0" stroke-linecap="butt"/><path d="M200.29939,108.09466c-0.13316,-2.29157 -8.34955,-39.29627 26.74255,-48.03017c43.51383,-9.98914 45.39879,26.65789 49.25598,32.84332c5.2888,8.48116 7.02368,4.9446 9.49205,11.71183c2.46837,6.76723 -8.91459,-0.4734 -8.91459,-0.4734c0,0 5.1347,9.50121 5.50004,19.99376c0.07685,1.83436 -1.39022,4.49792 -1.25373,6.51476c0.18747,2.7703 1.92636,4.85364 1.43268,6.74448c-1.14974,-0.07834 -3.90213,-1.568 -5.01998,-1.54322c-1.38982,0.03082 -1.77354,7.76994 -2.84881,7.98989c-0.88279,0.18058 -1.63681,-1.58304 -3.04591,-2.67902c-1.19661,-0.93071 -3.06128,-1.22534 -3.81114,-1.0729c-13.96377,2.83853 -42.80418,5.11273 -42.80418,5.11273c0,0 -2.16668,1.94157 -2.42349,3.9641c-0.32328,2.54609 -0.38575,4.91378 -1.065,5.06078c-0.8815,0.19077 -3.81053,-8.28898 -3.81053,-8.28898c0,0 -3.3889,8.7048 -4.13478,8.86929c-1.18791,0.26196 -2.1541,-4.71089 -2.1541,-4.71089l-1.95204,-12.50746c0,0 -1.90306,2.33591 -5.03183,3.88105c-1.93783,0.957 -2.69853,5.13128 -3.65258,3.40115c-0.95406,-1.73012 -0.09936,-5.04304 1.41696,-7.45532c1.35061,-2.14866 1.90295,-3.84562 1.90295,-3.84562c0,0 -3.89235,2.68407 -5.86431,3.63915c-2.05751,0.99652 2.05684,-5.79704 2.88024,-11.93048c0.77742,-5.79096 -5.748,-0.66285 -6.35855,-4.25477c-0.15257,-0.89756 2.28536,-2.27193 3.68706,-5.12567c1.44674,-2.94542 1.86082,-7.36493 1.83505,-7.80839z" fill="#000000" stroke="none" stroke-width="1.5" stroke-linecap="butt"/><path d="" fill="#000000" stroke="none" stroke-width="1.5" stroke-linecap="butt"/><path d="M195.52278,116.02179z" fill="#000000" stroke="none" stroke-width="1.5" stroke-linecap="butt"/><path d="M214.26332,123.68579c-2.05098,-7.02266 -3.16726,-16.86288 -3.16726,-16.86288c0,0 -1.08362,-7.22195 8.56751,-12.39999c7.41459,-3.97812 17.86388,2.16849 17.86388,2.16849c0,0 8.75536,-9.39527 18.91917,-10.01585c7.10368,-0.43374 10.05871,8.2762 10.05871,8.2762c0,0 1.22701,10.65623 2.05438,16.16105c0.74232,5.6362 -0.54456,9.81657 -0.53316,12.89976c0.0114,3.08319 0.84933,6.09135 1.10816,16.15275c0.16153,6.27901 -2.25612,9.58542 -6.82209,16.39473c-4.56597,6.80932 -6.9786,10.90337 -10.84129,11.77771c-3.7173,0.84144 -9.78737,-3.17257 -15.75852,-7.32529c-6.35829,-4.42199 -10.41594,-6.49104 -12.59644,-12.84262c-1.96377,-5.72027 -2.77911,-9.54246 -4.20597,-14.69974c-1.04286,-3.76932 -3.52694,-5.84912 -4.64703,-9.68432z" fill="#ffffff" stroke="#000000" stroke-width="1.5" stroke-linecap="butt"/><path d="M247.31159,146.86552c-1.01207,0.21063 -4.12819,-2.47114 -4.80012,-4.47964c-0.60119,-1.79706 0.50758,-4.01565 2.92731,-4.51923c2.41974,-0.50359 4.21395,-0.37571 4.79887,3.27955c0.4964,3.10211 -0.50632,5.21574 -2.92605,5.71933z" fill="#ffffff" stroke="#000000" stroke-width="1.15" stroke-linecap="butt"/><path d="M244.70656,116.66915c0,0 0.90929,3.86558 1.45769,6.97595c0.61664,3.49732 1.86259,11.83405 2.40124,18.47462c0.40995,5.05401 0.20424,9.16841 0.20424,9.16841c0,0 -2.98531,-5.10962 -3.9606,-8.70001c-1.89361,-6.97104 -3.75982,-15.85984 -4.74752,-19.06491c-0.93624,-3.0381 -2.04148,-5.41211 -2.04148,-5.41211" fill="#ffffff" stroke="#000000" stroke-width="1.3" stroke-linecap="round"/><path d="M217.98992,133.25035c0,0 -5.54525,-2.43835 -7.86353,-7.5308c-2.43927,-5.35824 -3.41359,-9.23092 -1.5658,-9.88015c1.84778,-0.64926 3.1308,1.77628 5.3568,7.41989c2.22598,5.64361 4.07255,9.99107 4.07255,9.99107z" data-paper-data="{&quot;index&quot;:null}" fill="#ffffff" stroke="#000000" stroke-width="1" stroke-linecap="butt"/><path d="M216.98728,129.42687c0,0 -4.08473,-2.13592 -5.94939,-7.39351c-1.04018,-2.93286 1.64692,-2.67177 1.64692,-2.67177" fill="none" stroke="#000000" stroke-width="0.25" stroke-linecap="round"/><path d="M218.58129,122.29662c-0.92728,-4.80371 2.61112,-14.2674 7.88731,-15.2859c5.27618,-1.01849 10.00848,6.85292 10.93577,11.65664c0.92728,4.80371 -1.78239,15.35465 -7.05858,16.37315c-5.27618,1.01849 -10.83722,-7.94017 -11.7645,-12.7439z" fill="#ffffff" stroke="#ffc100" stroke-width="1.4" stroke-linecap="butt"/><path d="M245.07018,116.78459c-0.79671,-4.8271 -2.87997,-14.83282 3.79485,-16.22196c7.2867,-1.51648 13.85382,7.55176 14.85065,12.34153c0.99683,4.78977 0.78587,15.48577 -4.89153,16.73968c-5.40024,1.19271 -12.92192,-7.81807 -13.75397,-12.85925z" fill="#ffffff" stroke="#ffc100" stroke-width="1.4" stroke-linecap="butt"/><path d="M268.92335,111.81163c-0.21037,-6.06309 -0.00155,-8.79909 1.95184,-8.94093c1.95339,-0.14184 2.60498,3.79799 2.50592,9.6845c-0.09415,5.59451 -4.2062,10.0427 -4.2062,10.0427c0,0 -0.04119,-4.72319 -0.25156,-10.78628z" data-paper-data="{&quot;index&quot;:null}" fill="#ffffff" stroke="#000000" stroke-width="1" stroke-linecap="butt"/><path d="M268.49857,107.74583c0,0 2.35983,-1.31145 2.57609,1.79289c0.38769,5.56498 -2.50576,9.15317 -2.50576,9.15317" data-paper-data="{&quot;index&quot;:null}" fill="none" stroke="#000000" stroke-width="0.25" stroke-linecap="round"/><path d="M258.10984,126.98189c5.17997,-1.20855 6.81466,-11.8861 6.81466,-11.8861c0,0 2.57418,14.01079 -5.83319,15.80223c-8.83467,1.90526 -13.78198,-11.12519 -13.78198,-11.12519c0,0 5.64888,8.87762 12.80051,7.20905z" data-paper-data="{&quot;index&quot;:null}" fill="#ffc100" stroke="#ffc100" stroke-width="1.15" stroke-linecap="butt"/><path d="M238.45672,120.43292c0,0 0.76387,14.4118 -8.09738,16.18935c-8.42402,1.71144 -11.65322,-12.16303 -11.65322,-12.16303c0,0 5.90664,9.23575 11.13869,8.27739c7.22353,-1.32314 8.6119,-12.30372 8.6119,-12.30372z" data-paper-data="{&quot;index&quot;:null}" fill="#ffc100" stroke="#ffc100" stroke-width="1.15" stroke-linecap="butt"/><path d="M229.83776,126.54276l-2.81613,-5.92022l9.90478,-2.78798" fill="none" stroke="#000000" stroke-width="1.15" stroke-linecap="round"/><path d="M255.14255,120.937l-1.82723,-7.04707l9.17523,-1.20326" fill="none" stroke="#000000" stroke-width="1.15" stroke-linecap="round"/><path d="M218.99587,122.58316c0,0 0.03457,-1.40262 0.1945,-2.34915c0.23336,-1.38119 1.07062,-5.1386 1.07062,-5.1386c0,0 4.09378,-6.75741 6.53886,-7.22316c2.13994,-0.40761 7.33865,4.57974 7.33865,4.57974c0,0 1.3946,2.72186 1.91652,3.97101c0.42876,1.0262 0.99081,2.98735 0.99081,2.98735c0,0 -2.48852,-5.67622 -9.91761,-4.5353c-5.45053,0.83708 -8.13234,7.70811 -8.13234,7.70811z" fill="url(#color-1)" stroke="none" stroke-width="0" stroke-linecap="butt"/><path d="M218.43134,121.91192c0,0 -0.66199,-13.92229 8.19925,-15.69984c8.42402,-1.71144 11.65322,12.16303 11.65322,12.16303c0,0 -5.93708,-9.99548 -11.16913,-9.03713c-7.22352,1.32313 -8.68334,12.57394 -8.68334,12.57394z" fill="#d89116" stroke="#d89116" stroke-width="1.15" stroke-linecap="butt"/><path d="M254.45812,110.36662c-7.69848,2.00736 -7.39006,8.13731 -7.39006,8.13731c0,0 -1.33573,-2.48261 -1.06718,-3.95836c0.22984,-1.26306 0.63984,-3.51613 0.63984,-3.51613c0,0 0.03722,-1.65013 0.6998,-2.87675c1.08115,-2.00151 3.16641,-4.0115 4.56144,-4.32523c2.57082,-0.57814 9.32981,3.92063 9.32981,3.92063c0,0 1.01658,1.49399 1.62593,2.38949c0.78233,1.14974 1.29611,4.29981 1.29611,4.29981c0,0 -4.04749,-5.54352 -9.69567,-4.07077z" data-paper-data="{&quot;index&quot;:null}" fill="url(#color-2)" stroke="none" stroke-width="0" stroke-linecap="butt"/><path d="M244.61853,116.46796c0,0 -4.5132,-14.33943 4.80599,-15.9163c8.59941,-1.44906 15.61562,12.22709 15.61562,12.22709c0,0 -5.98765,-9.72018 -14.50499,-7.98946c-5.56724,1.13126 -5.91661,11.67868 -5.91661,11.67868z" fill="#d89116" stroke="#d89116" stroke-width="1.15" stroke-linecap="butt"/><path d="M218.42839,139.443l-6.83059,-27.91303l4.87323,0.66823c0,0 6.73844,-6.73279 9.86128,-7.3144c4.27938,-0.79701 12.74114,1.529 12.74114,1.529c0,0 5.03336,-5.24893 8.69829,-6.56153c6.41076,-2.29604 16.42028,3.06272 16.42028,3.06272l3.59575,-3.43508l3.04071,29.6617c0,0 -2.42897,0.47755 -4.90268,0.96391c-0.59794,0.11756 -1.39734,0.63788 -2.35765,1.23523c-1.23477,0.76809 -3.45865,7.41255 -3.45865,7.41255c0,0 -3.3054,-5.42861 -4.5841,-5.65019c-1.28602,-0.22286 -2.63866,-0.43397 -4.04588,-0.15731c-1.10233,0.21673 -2.23178,0.43879 -3.37758,0.66406c-0.79282,0.15588 -2.25941,-1.2505 -3.0643,-1.09224c-0.93971,0.18475 -1.21929,1.93444 -2.16491,2.12036c-2.05473,0.40398 -4.10999,0.80806 -6.10744,1.20078c-1.21401,0.23868 -2.18792,1.0401 -3.1341,1.81727c-0.8896,0.73069 -2.4737,6.34454 -2.4737,6.34454c0,0 -2.97951,-4.88093 -4.30638,-5.24823c-1.07021,-0.29627 -2.06953,-0.55747 -2.84086,-0.40582c-3.41725,0.67186 -5.58187,1.09745 -5.58187,1.09745zM230.16862,137.0995c7.84834,-1.54824 9.54111,-13.10886 8.57241,-17.76347c-0.9687,-4.65461 -4.06317,-15.14002 -12.59165,-13.46831c-6.70473,1.31422 -9.2406,12.86432 -8.21252,17.50617c2.41838,10.91922 7.73592,14.61252 12.23176,13.72562zM259.58781,131.10319c5.10721,-1.60701 7.05772,-6.11083 4.94249,-17.67681c-0.85531,-4.67677 -8.12132,-16.0986 -16.95643,-12.70585c-7.26113,2.82415 -3.69189,12.58464 -2.72319,17.23925c0.9687,4.65461 5.98718,15.89662 14.73712,13.14341z" fill="#040404" stroke="none" stroke-width="0" stroke-linecap="butt"/><g stroke-linecap="butt"><path d="M263.26077,162.86782c-2.107,2.65138 -5.81176,5.76825 -11.57459,6.99823c-4.47787,0.9557 -8.95747,0.78605 -11.99812,-0.23965c-10.22881,-3.45045 -14.13,-19.25594 -14.13,-19.25594c0,0 9.26592,-3.54048 14.43118,-4.33268c3.42167,-1.37724 6.98896,1.55566 6.98896,1.55566c0,0 4.28255,-5.1157 8.23721,-4.88455c7.78957,0.25584 12.94578,0.35493 12.94578,0.35493c0,0 0.11856,13.48839 -4.9004,19.80403z" fill="#000000" stroke="none" stroke-width="0"/><path d="M243.02026,147.81563c1.84042,0.68025 5.8163,1.93255 5.2944,2.68997c-0.27291,0.41724 -20.64237,-0.12523 -19.20083,-0.49731c0.81297,-0.22322 3.71873,-0.50568 5.82502,-1.37444c3.32795,-1.37266 5.58601,-1.66847 8.08142,-0.81821z" data-paper-data="{&quot;noHover&quot;:false,&quot;origItem&quot;:[&quot;Path&quot;,{&quot;applyMatrix&quot;:true,&quot;segments&quot;:[[[356.58247,303.92478],[0,0],[-0.85156,0.32734]],[[354.44185,304.549],[0.33594,-0.02282],[-0.59374,0.03044]],[[354.51217,304.77738],[-0.64064,-0.19794],[0.8125,0.25122]],[[360.34811,305.42444],[-0.14062,0.15226],[0.26562,-0.27406]],[[359.37155,303.7573],[0.66406,0.44914],[-0.90626,-0.57856]],[[356.58249,303.92478],[1.92968,-0.74604],[0,0]]],&quot;closed&quot;:true,&quot;fillColor&quot;:[0,0,0,1]}]}" fill="#ffffff" stroke="none" stroke-width="0.5"/><path d="M247.0782,149.86397c0.73483,-1.21868 1.90379,-2.48891 3.36115,-3.63459c2.31444,-1.81948 5.38506,-3.18647 8.81771,-2.48541c1.98528,0.41582 4.18634,0.76804 4.89514,0.62053c3.06271,-0.45719 -3.64607,2.37207 -8.6813,3.98913c-4.42978,1.42261 -7.63285,2.20595 -7.63285,2.20595z" data-paper-data="{&quot;noHover&quot;:false,&quot;origItem&quot;:[&quot;Path&quot;,{&quot;applyMatrix&quot;:true,&quot;segments&quot;:[[[362.06679,304.89918],[0,0],[0,0.62422]],[[364.16055,305.50058],[-2.07032,0.02282],[1.85938,0]],[[367.63711,305.05144],[1.23438,0.07612],[-0.28906,0]],[[365.77773,304.40438],[0.7422,0.35018],[-2.09374,-0.9744]],[[362.06679,304.8992],[0,-1.24846],[0,0]]],&quot;closed&quot;:true,&quot;fillColor&quot;:[0,0,0,1]}]}" fill="#ffffff" stroke="none" stroke-width="0.5"/><path d="M227.06965,151.17118c0.17244,-0.03589 2.78562,0.46078 3.95426,0.79426c1.12558,0.4145 4.14484,4.99009 5.78066,6.41575c4.39002,3.80796 5.67719,4.74995 13.10995,3.20307c7.18379,-1.49506 8.70827,-4.59597 10.91178,-9.18147c1.40637,-2.94184 4.22248,-6.62233 5.01758,-6.06694c0.54245,0.30163 0.11691,6.07103 -0.65972,8.77367c-0.78733,2.93919 -3.34002,8.24771 -5.9032,9.95257c-2.50212,1.71018 -12.3218,3.9503 -16.25867,3.76044c-4.99056,-0.25892 -8.34153,-5.09233 -12.70951,-12.92369c-0.99286,-1.79371 -3.4156,-4.69158 -3.2432,-4.72747z" data-paper-data="{&quot;noHover&quot;:false,&quot;origItem&quot;:[&quot;Path&quot;,{&quot;applyMatrix&quot;:true,&quot;segments&quot;:[[[353.46525,305.2722],[0,0],[-0.07032,0]],[[353.77775,306.81754],[-0.24218,-0.84498],[1.07032,3.69208]],[[357.82463,312.52694],[-1.9297,-0.5481],[1.52344,0.4263]],[[364.34807,312.37468],[-1.11718,0.50244],[1.14062,-0.49482]],[[367.27775,309.51236],[-0.54686,1.17234],[0.52344,-1.07336]],[[368.18401,306.12478],[0.1875,0.1751],[-0.26562,-0.3045]],[[365.87151,307.89088],[0.78906,-1.11904],[-1.23438,1.74328]],[[361.11369,309.88536],[2.9297,0],[-3.03124,0]],[[356.08245,307.61682],[1.40624,1.99448],[-0.52344,-0.74602]],[[354.37151,305.74414],[0.40626,0.27404],[-0.42968,-0.2436]],[[353.46525,305.27216],[0.07032,0],[0,0]]],&quot;closed&quot;:true,&quot;fillColor&quot;:[0,0,0,1]}]}" fill="#ffffff" stroke="none" stroke-width="0.5"/><path d="M257.95252,153.09193c-2.22961,1.1364 -3.76922,1.91165 -10.11511,3.15254c-1.3253,0.25916 -3.51427,0.50858 -3.51427,0.50858c0,0 -0.59594,-2.51719 -1.37685,-3.85625c0.04155,-0.27818 0.07447,-0.55402 0.07096,-0.83562c1.63827,0.0762 3.05455,0.09241 3.63607,-0.02861c1.65605,-0.34465 11.78975,-3.66373 11.78975,-3.66373c0,0 0.90647,4.01103 -0.49057,4.72308z" fill="#ffffff" stroke="#000000" stroke-width="0"/><path d="M241.44493,156.64475c0,0 -1.55606,-0.13957 -2.22255,-0.26668c-1.56095,-0.2977 -3.80034,-4.87618 -3.80034,-4.87618c0,0 3.03385,0.28791 5.98681,0.47102l0.05628,0.27044c0.04169,0.20034 0.07425,0.36984 0.10872,0.5214c-0.30755,1.27327 -0.12891,3.88001 -0.12891,3.88001z" fill="#ffffff" stroke="#000000" stroke-width="0"/><path d="M258.62717,153.91761c0.02482,0.11926 -0.23841,2.61882 -2.71397,4.24307c-1.69344,1.11109 -4.22992,1.5905 -6.19265,1.96045c-0.95108,0.17925 -4.5438,0.88197 -6.74459,0.35364c-2.58837,-0.62137 -3.75089,-2.51443 -3.77348,-2.62299c-0.0418,-0.20086 7.0581,-0.07979 9.12654,-0.47651c5.81451,-1.11524 10.25634,-3.65852 10.29814,-3.45768z" fill="#ffffff" stroke="none" stroke-width="0"/></g><path d="M225.49845,98.93611l9.33199,4.59499l-6.40389,-1.32296l-13.58509,8.34298z" fill="#000000" stroke="#000000" stroke-width="1" stroke-linecap="round"/><path d="M263.18135,97.42653l-15.7856,-2.23046l-5.34439,3.76796l6.72398,-7.9365z" data-paper-data="{&quot;index&quot;:null}" fill="#000000" stroke="#000000" stroke-width="1" stroke-linecap="round"/></g></g></svg>