<svg version="1.1" xmlns="http://www.w3.org/2000/svg" xmlns:xlink="http://www.w3.org/1999/xlink" width="35.67311" height="35.67311" viewBox="0,0,35.67311,35.67311"><defs><linearGradient x1="240.00002" y1="162.91346" x2="240.00002" y2="197.08655" gradientUnits="userSpaceOnUse" id="color-1"><stop offset="0" stop-color="#8fffee"/><stop offset="1" stop-color="#73cec0"/></linearGradient></defs><g transform="translate(-222.16345,-162.16345)"><g data-paper-data="{&quot;isPaintingLayer&quot;:true}" stroke-miterlimit="10" stroke-dasharray="" stroke-dashoffset="0" style="mix-blend-mode: normal"><path d="M229.98312,162.91346h20.03379c3.9166,0 7.06966,3.15307 7.06966,7.06966v20.03379c0,3.91659 -3.15306,7.06966 -7.06966,7.06966h-20.03379c-3.91659,0 -7.06966,-3.15307 -7.06966,-7.06966v-20.03379c0,-3.91659 3.15307,-7.06966 7.06966,-7.06966z" fill="url(#color-1)" fill-rule="evenodd" stroke="#000000" stroke-width="1.5" stroke-linecap="round" stroke-linejoin="round"/><path d="M251.09325,185.5462c0,2.39527 -1.66792,4.33702 -3.72539,4.33702c-2.05748,0 -3.72539,-1.94175 -3.72539,-4.33702c0,-2.39527 1.66792,-4.33702 3.72539,-4.33702c2.05748,0 3.72539,1.94175 3.72539,4.33702z" fill="#000000" fill-rule="nonzero" stroke="#ffffff" stroke-width="1.15" stroke-linecap="butt" stroke-linejoin="miter"/><path d="M242.90808,178.75756c0,1.89402 -1.31888,3.42942 -2.94578,3.42942c-1.62691,0 -2.94578,-1.5354 -2.94578,-3.42942c0,-1.89402 1.31888,-3.42942 2.94578,-3.42942c1.62691,0 2.94578,1.5354 2.94578,3.42942z" fill="#000000" fill-rule="nonzero" stroke="#ffffff" stroke-width="1.15" stroke-linecap="butt" stroke-linejoin="miter"/><path d="M238.45511,187.15571c0,3.13262 -2.18136,5.6721 -4.87219,5.6721c-2.69084,0 -4.87219,-2.53948 -4.87219,-5.6721c0,-3.13262 2.18136,-5.6721 4.87219,-5.6721c2.69084,0 4.87219,2.53949 4.87219,5.6721z" fill="#000000" fill-rule="nonzero" stroke="#ffffff" stroke-width="1.15" stroke-linecap="butt" stroke-linejoin="miter"/><path d="M235.34721,172.82566c0,2.38558 -1.66117,4.31947 -3.71032,4.31947c-2.04915,0 -3.71032,-1.93389 -3.71032,-4.31947c0,-2.38558 1.66116,-4.31947 3.71032,-4.31947c2.04915,0 3.71032,1.93389 3.71032,4.31947z" fill="#000000" fill-rule="nonzero" stroke="#ffffff" stroke-width="1.15" stroke-linecap="butt" stroke-linejoin="miter"/><path d="M252.07342,172.1177c0,2.73133 -2.06287,4.9455 -4.60755,4.9455c-2.54468,0 -4.60755,-2.21417 -4.60755,-4.9455c0,-2.73133 2.06287,-4.94551 4.60755,-4.94551c2.54468,0 4.60755,2.21417 4.60755,4.94551z" fill="#000000" fill-rule="nonzero" stroke="#ffffff" stroke-width="1.15" stroke-linecap="butt" stroke-linejoin="miter"/></g></g></svg>