<svg version="1.1" xmlns="http://www.w3.org/2000/svg" xmlns:xlink="http://www.w3.org/1999/xlink" width="91.43203" height="256.10533" viewBox="0,0,91.43203,256.10533"><defs><linearGradient x1="241.41504" y1="119.21668" x2="241.41504" y2="186.46668" gradientUnits="userSpaceOnUse" id="color-1"><stop offset="0" stop-color="#000000"/><stop offset="1" stop-color="#000000" stop-opacity="0"/></linearGradient></defs><g transform="translate(-195.85544,-56.37591)"><g data-paper-data="{&quot;isPaintingLayer&quot;:true}" fill-rule="nonzero" stroke-linejoin="miter" stroke-miterlimit="10" stroke-dasharray="" stroke-dashoffset="0" style="mix-blend-mode: normal"><path d="M287.28747,56.37592v253.22501h-91.43203v-253.22501z" data-paper-data="{&quot;index&quot;:null}" fill-opacity="0.01" fill="#000000" stroke="none" stroke-width="0" stroke-linecap="butt"/><path d="M221.15833,170.10272l-9.2381,-13.66667c0,0 21.92546,-5.65995 30.71401,-5.86858c6.66298,-0.15817 28.90503,7.1543 28.90503,7.1543l-7.80952,12.38095z" fill="#101d1b" stroke="none" stroke-width="0" stroke-linecap="butt"/><path d="M211.88408,159.36461l-4.27251,-4.66667c0,0 21.38593,-6.35363 31.85246,-6.27483c11.56337,0.08705 34.56572,6.77483 34.56572,6.77483l-2.13339,5.33334c0,0 -6.47994,-2.41209 -13.92596,-4.60106c-6.16158,-1.81137 -12.98468,-3.46996 -17.34494,-3.48256c-9.59676,-0.02773 -28.74139,6.91695 -28.74139,6.91695z" fill="#325954" stroke="none" stroke-width="0" stroke-linecap="butt"/><path d="" fill="#60ab9f" stroke="none" stroke-width="1.5" stroke-linecap="butt"/><path d="M271.01286,103.36958c0.00092,0.00481 0.00185,0.00961 0.00278,0.01442c-0.02937,0.00182 -0.05875,0.00369 -0.08814,0.00559c0.02846,-0.00664 0.05691,-0.01332 0.08537,-0.02002z" fill="#60ab9f" stroke="none" stroke-width="1.5" stroke-linecap="butt"/><path d="M212.82397,169.37572l0.09344,-2.05526c0.4272,0.21953 0.85834,0.42911 1.29314,0.62896z" fill="#60ab9f" stroke="none" stroke-width="1.5" stroke-linecap="butt"/><path d="M271.01286,103.36957c0.00092,0.00481 0.00185,0.00961 0.00278,0.01442c-0.02937,0.00182 -0.05875,0.00369 -0.08814,0.00559c0.02846,-0.00664 0.05691,-0.01332 0.08537,-0.02002z" fill="#60ab9f" stroke="none" stroke-width="1.5" stroke-linecap="butt"/><path d="M197.11311,312.48125v-45.5h85v45.5z" fill="#202020" stroke="none" stroke-width="0" stroke-linecap="butt"/><path d="M196.69642,282.73125v-16h85.25v16z" fill="#505050" stroke="none" stroke-width="0" stroke-linecap="butt"/><path d="M205.3882,274.54636c0,0 4.72394,-0.87151 4.68226,-7.06425c-0.14043,-20.86613 -3.45815,-66.83569 -3.55356,-81.10481c-0.04269,-6.38458 9.41141,-30.03897 34.4835,-30.16412c24.74883,-0.12354 33.4631,26.59226 33.45693,32.39503c-0.04441,26.8149 -1.99213,61.07911 -1.83222,78.87594c0.05605,6.23824 5.34461,5.52312 5.34461,5.52312l-0.47028,5.32529c0,0 -7.48812,1.14569 -11.31714,-1.23126c-2.20436,-1.36841 -1.6917,-5.91003 -1.69372,-7.37079c-0.01788,-12.92703 1.13648,-81.58533 1.13648,-81.58533c0,0 -0.44089,-2.92716 -2.7055,-2.97011c-2.6896,-0.05102 -3.05662,2.43994 -3.05662,2.43994c0,0 0.51131,7.82484 0.52168,13.61771c0.00835,4.66578 -1.02504,14.57569 -1.07449,25.24328c-0.10614,22.90067 0.71373,51.09742 0.71373,51.09742c0,0 3.31431,16.64146 1.93749,16.97031c-0.27091,0.06471 1.60055,14.8804 1.60055,14.8804c0,0 -10.58981,2.26734 -12.21368,-0.89238c-0.73953,-1.43898 1.2131,-10.83911 1.51741,-18.54379c0.22359,-5.66103 -1.24792,-10.40676 -1.24792,-10.40676c0,0 -6.49105,-6.42572 -11.17109,-6.47771c-4.68004,-0.05199 -9.82077,6.2445 -9.82077,6.2445c0,0 -2.58629,3.99273 -3.20367,9.13036c-0.7867,6.54665 0.47018,17.04638 -1.11513,19.57234c-1.55968,2.48512 -8.41882,1.88193 -8.88242,1.78665c-1.46362,-0.30079 4.84154,-32.20737 4.84154,-32.20737c0,0 0.33783,-28.15258 0.0539,-51.14406c-0.14003,-11.33962 -0.99887,-21.42377 -1.01168,-26.25561c-0.01507,-5.68561 0.71861,-12.84313 0.71861,-12.84313c0,0 -0.78112,-2.28596 -3.25981,-2.29805c-2.43619,-0.01187 -3.20506,2.77812 -3.20506,2.77812c0,0 2.21203,68.59329 2.25199,81.61442c0.00352,1.14652 0.49214,5.80264 -0.96176,6.87168c-3.69938,2.72012 -11.7637,1.37648 -11.7637,1.37648z" fill="#ffffff" stroke="#000000" stroke-width="2" stroke-linecap="butt"/><path d="M219.91643,282.93611l0.8,-18h39.8c0,0 0.5015,9.23631 0.53842,12.59628c0.02463,2.24106 -0.33842,5.60372 -0.33842,5.60372c0,0 -4.66848,-1.81556 -9.90051,-3.3412c-3.7912,-1.10551 -7.4783,-4.6588 -10.29949,-4.6588c-2.40038,0 -6.15546,3.29881 -9.44271,4.18407c-0.84605,0.22784 -1.68761,0.46804 -2.50724,0.71185c-4.68291,1.39301 -8.65006,2.90407 -8.65006,2.90407z" fill="#73cec0" stroke="none" stroke-width="0" stroke-linecap="butt"/><path d="M218.91643,283.13614l0.6,-4h12.8l-1.4,4z" fill="#437870" stroke="none" stroke-width="0" stroke-linecap="butt"/><path d="M250.11642,282.93611l-0.8,-4.2l12.2,0.2l0.8,4z" fill="#437870" stroke="none" stroke-width="0" stroke-linecap="butt"/><path d="M220.31639,275.33612v-10.4h40.2v10.4c0,0 -13.41404,-5.6 -20.4,-5.6c-6.35404,0 -19.8,5.6 -19.8,5.6z" fill="#7ee1d2" stroke="none" stroke-width="0" stroke-linecap="butt"/><path d="M235.11642,277.73615l0.2,-13h1.8v12.4z" fill="#25423e" stroke="none" stroke-width="0" stroke-linecap="butt"/><path d="M243.91643,276.57876v-11.87122h1.8l0.2,12.82857z" data-paper-data="{&quot;index&quot;:null}" fill="#25423e" stroke="none" stroke-width="0" stroke-linecap="butt"/><path d="M235.11642,270.59328l0.12857,-5.92857h1.8l0.07143,5.4z" fill="#2f534e" stroke="none" stroke-width="0" stroke-linecap="butt"/><path d="M243.91643,270.30478v-5.59723h1.8l0.2,5.97143c0,0 -0.6469,-0.25053 -0.95955,-0.30903c-0.34983,-0.06545 -1.04045,-0.06517 -1.04045,-0.06517z" data-paper-data="{&quot;index&quot;:null}" fill="#2f534e" stroke="none" stroke-width="0" stroke-linecap="butt"/><path d="M274.11636,194.33615c0,0 1.78442,5.47903 1.77055,10.00052c-0.02594,8.45434 -0.11453,37.33634 -0.15275,49.79831c-0.01097,3.57699 -1.8178,6.40117 -1.8178,6.40117c0,0 -0.39851,-2.89963 -2.07753,-5.55089c-1.85612,-2.9309 -4.60231,-6.90789 -7.77247,-10.99336v-49.62473z" fill="#4a4a4a" stroke="none" stroke-width="0" stroke-linecap="butt"/><path d="M208.71641,259.73615c0,0 -1.45693,-2.6433 -1.54676,-6.81407c-0.28976,-13.45281 -0.92179,-42.79727 -1.08962,-50.58945c-0.07998,-3.71345 3.23638,-7.79648 3.23638,-7.79648l9.25,-0.02855c0,7.16666 0,19.96188 0,27.12855c0,8.0334 0,16.0668 0,24.1002c-5.6633,7.4057 -9.85,13.9998 -9.85,13.9998z" fill="#4a4a4a" stroke="none" stroke-width="0" stroke-linecap="butt"/><path d="M274.962,191.80644c2.44879,1.39846 1.15435,9.72973 1.15435,9.72973v8.6c0,0 -5.05491,-2.31036 -11.65,-4.83244c0,-5.97012 0,-12.05643 0,-14.76756c0,-0.70779 0,-1.37509 0,-1.98851c4.25123,0.78271 8.01542,1.84237 10.49566,3.25878z" fill="#2d2d2d" stroke="none" stroke-width="0" stroke-linecap="butt"/><path d="M206.11642,210.13616v-8.6c0,0 -0.07984,-10.81305 1.48004,-11.79128c2.38447,-1.49534 6.41378,-2.31369 10.96995,-2.75514c0,5.62346 0,11.70176 0,17.59205c-6.9672,2.78471 -12.45,5.55437 -12.45,5.55437z" fill="#2d2d2d" stroke="none" stroke-width="0" stroke-linecap="butt"/><path d="M248.77585,199.37234c-3.49552,-0.24621 -5.13143,-1.40488 -4.83181,-2.02057c0.09232,-0.18971 2.22914,0.8329 5.45873,1.02183c5.01907,0.29362 6.66472,-0.49473 6.66472,-0.49473v1.05423c0,0 -1.89009,0.81972 -7.29164,0.43925z" fill="#000000" stroke="#000000" stroke-width="0" stroke-linecap="butt"/><path d="M231.92377,199.37233c-5.40155,0.38048 -7.29164,-0.43925 -7.29164,-0.43925v-1.05422c0,0 1.64565,0.78834 6.66472,0.49472c3.22959,-0.18894 5.36642,-1.21153 5.45874,-1.02183c0.29962,0.61569 -1.3363,1.77435 -4.83182,2.02057z" fill="#000000" stroke="#000000" stroke-width="0" stroke-linecap="butt"/><path d="M240.75787,243.65988c-0.64135,0 -1.16126,-0.51991 -1.16126,-1.16126c0,-0.64135 0.51991,-1.16126 1.16126,-1.16126c0.64135,0 1.16126,0.51991 1.16126,1.16126c0,0.64135 -0.51991,1.16126 -1.16126,1.16126z" data-paper-data="{&quot;index&quot;:null}" fill="#000000" stroke="none" stroke-width="1.5" stroke-linecap="butt"/><path d="M221.0631,267.03129v-81h39.66666v81z" fill="#000000" stroke="none" stroke-width="0" stroke-linecap="butt"/><path d="M276.72965,196.86464v5.5c0,0 -7.39671,-4.44243 -16.08333,-8.465v-29.53396c18.34078,9.36397 16.08333,32.49896 16.08333,32.49896z" fill="#000000" stroke="none" stroke-width="0" stroke-linecap="butt"/><path d="M204.72975,202.36464v-5.5c0,0 -4.50832,-22.98293 16.41666,-32.41028c0,1.08121 0,2.1624 0,3.24361c0,8.5462 0,17.0924 0,25.6386c-8.76532,4.15887 -16.41666,9.02808 -16.41666,9.02808z" fill="#000000" stroke="none" stroke-width="0" stroke-linecap="butt"/><path d="M252.89503,196.05531c-0.44727,0 -0.80984,-0.36259 -0.80984,-0.80985c0,-0.44727 0.36258,-0.80986 0.80984,-0.80986c0.44727,0 0.80985,0.36259 0.80985,0.80986c0,0.44727 -0.36258,0.80985 -0.80985,0.80985z" fill="#000000" stroke="none" stroke-width="1.5" stroke-linecap="butt"/><path d="M220.60417,197.03129l-13.52212,-43c0,0 27.00478,20.16666 33.51136,20.16666c0.81112,0 1.89832,-0.27218 3.18505,-0.75221c9.60462,-3.58317 30.32631,-18.74779 30.32631,-18.74779l-13.32615,42.33334z" fill="#447a72" stroke="none" stroke-width="0" stroke-linecap="butt"/><path d="M240.58689,197.24558c0,0 2.81153,-3.01242 10.83983,-13.85714c8.57281,-11.58025 -2.45102,-10.40207 -7.74499,-9.42525c-1.51413,0.27938 -2.54687,0.23103 -2.54687,0.23103c0,0 0.77915,-0.1018 1.5719,-0.3494c1.04432,-0.32618 2.33478,-0.81855 3.49247,-1.49609c5.3502,-3.13118 27.92338,-17.38887 27.92338,-17.38887l-13.04166,42.14286z" fill="#63b3a7" stroke="none" stroke-width="0" stroke-linecap="butt"/><path d="M220.62694,197.20985l-13.39883,-42.67857c0,0 16.96207,27.56846 18.14777,37.7928c1.77025,4.18243 14.92528,4.74207 14.92528,4.74207z" fill="#2a4d47" stroke="none" stroke-width="0" stroke-linecap="butt"/><path d="M220.91643,266.94702v-21.2c0,0 12.69333,9.05631 19.50249,9.05631c7.41989,0 20.49751,-9.05631 20.49751,-9.05631v21.2z" fill="#1b1b1b" stroke="none" stroke-width="0" stroke-linecap="butt"/><path d="M239.51642,267.0743v-70.52728h3.2v70.52728z" fill="#223d39" stroke="none" stroke-width="0" stroke-linecap="butt"/><path d="M239.57098,267.03794v-12.36363h2.90909v12.36363z" fill="#3f7169" stroke="none" stroke-width="0" stroke-linecap="butt"/><path d="M274.31633,264.13614l0.2,5.6c0,0 -5.42393,-0.4 -10.2,-0.4c-0.53308,0 -1.14281,-0.00101 -1.82073,-0.00284c0.06829,-1.49141 0.23869,-2.96811 0.32257,-4.45676c6.47116,-0.37918 11.49816,-0.7404 11.49816,-0.7404z" fill="#000000" stroke="none" stroke-width="0" stroke-linecap="butt"/><path d="M207.51642,269.73615v-5.6c0,0 5.1131,0.36741 11.66403,0.7501c0.0529,1.46576 0.24193,2.88961 0.33435,4.34867c-0.33911,0.00239 -0.67338,0.00495 -1.00248,0.00769c-6.50733,0.05411 -10.9959,0.49354 -10.9959,0.49354z" fill="#000000" stroke="none" stroke-width="0" stroke-linecap="butt"/><path d="M251.14982,195.26305l1.93148,-5.3558l-4.00797,0.42413l3.49548,-2.27535l2.60422,-4.01902l2.22448,3.95721l3.2912,2.0127l-3.68841,0.00354l1.80659,5.38236l-3.69875,-2.79029z" fill="#2a4d47" stroke="#000000" stroke-width="1" stroke-linecap="butt"/><g fill="#2d2d2d" stroke="none" stroke-width="0" stroke-linecap="butt"><path d="M276.15004,221.35002v8.25l-12.82131,-4.7622c0.14379,-2.15252 0.00957,-4.38545 0.07131,-6.2378c0.01494,-0.44816 0.04545,-0.88826 0.07908,-1.32279z"/><path d=""/><path d="M205.90005,229.60002v-8.25l13.1677,-4.20246c0.03228,1.4247 0.21208,3.22824 0.40182,4.83098c-0.21087,0.8856 -0.22935,1.77789 -0.13598,2.66726z"/></g><g fill="#242424" stroke="none" stroke-width="0" stroke-linecap="butt"><path d="M276.15004,234.59069v6.75933l-12.82131,-3.90173c0.14379,-1.76359 0.00957,-3.59306 0.07131,-5.11071c0.01494,-0.36718 0.04545,-0.72776 0.07908,-1.08378z"/><path d=""/><path d="M205.90005,241.35002v-6.75933l13.1677,-3.44313c0.03228,1.16727 0.21208,2.64493 0.40182,3.95808c-0.21087,0.72558 -0.22935,1.45665 -0.13598,2.18532z"/></g><path d="M226.07504,159.09168l3.14667,-0.875c0,0 3.59281,-1.70633 12.7178,-1.745c8.53564,-0.03617 11.27553,2.395 11.27553,2.395l2.36,0.85c0,0 -1.40136,7.17628 -15.07986,7.56251c-12.49574,0.35283 -14.42014,-8.18751 -14.42014,-8.18751z" fill="url(#color-1)" stroke="none" stroke-width="0" stroke-linecap="butt"/><g><path d="M271.01286,103.36958c0.00092,0.00481 0.00185,0.00961 0.00278,0.01442c-0.02937,0.00182 -0.05875,0.00369 -0.08814,0.00559c0.02846,-0.00664 0.05691,-0.01332 0.08537,-0.02002z" fill="#60ab9f" stroke="none" stroke-width="1.5" stroke-linecap="butt"/><path d="M244.86405,83.34695c3.11068,0.14964 12.15298,0.57798 17.9246,3.17502c2.95872,1.33133 5.05794,5.76014 5.05794,5.76014l-0.14286,5.14286c0,0 0.55829,-9.60813 -22.11136,-11.18177c-9.68458,-0.67227 -30.88864,6.03891 -30.88864,6.03891l-0.42857,-2.57143c0,0 9.23215,-7.39114 30.58889,-6.36373z" fill="#333333" stroke="none" stroke-width="0" stroke-linecap="butt"/><path d="M214.418,103.71075v-13.85714c0,0 9.33361,-4.99411 29.4401,-5.64232c3.51961,-0.11347 7.36932,-0.09377 11.55686,0.1092c6.39881,0.31014 13.00304,9.81884 13.00304,9.81884l-2,9.57143z" fill="#151313" stroke="none" stroke-width="0" stroke-linecap="butt"/><path d="M260.41796,86.99645c4.28571,4.16897 5.28571,11.85714 5.28571,11.85714c0,0 -0.20928,4.77192 -6.70223,4.89942c-9.08222,0.17836 -39.82222,-3.64396 -39.82222,-3.64396c0,0 -1.1,-9.61446 4.66471,-15.40264c5.29818,-5.31975 11.23801,-7.28139 16.71688,-7.28139c11.44018,0 15.33281,5.17034 19.85714,9.57143z" fill="#73cec0" stroke="none" stroke-width="0" stroke-linecap="butt"/><path d="M218.56087,101.28217l1.14285,-10.42857c0,0 15.21908,6.9109 22.85968,6.93579c6.90356,0.02249 20.99747,-6.79293 20.99747,-6.79293l3.28571,9.71429c0,0 -2.94982,2.8877 -5.42957,2.91776c-7.19842,0.08725 -42.85614,-2.34633 -42.85614,-2.34633z" fill="#83e9da" stroke="none" stroke-width="0" stroke-linecap="butt"/><path d="M255.41801,97.28216c0,6.86411 -6.39593,12.42857 -14.28571,12.42857c-7.88978,0 -14.28571,-5.56446 -14.28571,-12.42857c0,-1.3415 0.2443,-2.63336 0.6963,-3.84374c1.23613,0.69686 2.3215,0.99193 2.78402,1.29211c1.09832,0.71284 2.33605,0.89297 3.46019,1.31408c0.3404,3.82675 3.42994,7.45184 7.3452,7.45184c3.96024,0 7.20357,-3.06941 7.48079,-6.95905c2.17839,-0.54985 4.35114,-1.21047 6.4986,-1.8275c0.20075,0.82994 0.30633,1.69037 0.30633,2.57225z" fill="#54978d" stroke="none" stroke-width="0" stroke-linecap="butt"/><path d="M241.13231,84.85359c6.79053,0 12.59947,4.49693 14.0515,10.02174c-2.25839,0.78982 -4.38765,1.49447 -6.57405,2.10885c0.09677,-0.48086 0.02255,-0.47837 0.02255,-0.98774c0,-4.14213 -3.35787,-7.5 -7.5,-7.5c-4.14213,0 -7.4963,7.77426 -7.48898,7.90999c-0.39787,-0.06931 -5.20957,-2.59346 -6.1876,-2.72619c1.77485,-5.10769 7.22652,-8.82665 13.67658,-8.82665z" fill="#437870" stroke="none" stroke-width="0" stroke-linecap="butt"/><path d="M212.82397,169.37572l0.09344,-2.05526c0.4272,0.21953 0.85834,0.42911 1.29314,0.62896z" fill="#60ab9f" stroke="none" stroke-width="1.5" stroke-linecap="butt"/><path d="M271.01286,103.36957c0.00092,0.00481 0.00185,0.00961 0.00278,0.01442c-0.02937,0.00182 -0.05875,0.00369 -0.08814,0.00559c0.02846,-0.00664 0.05691,-0.01332 0.08537,-0.02002z" fill="#60ab9f" stroke="none" stroke-width="1.5" stroke-linecap="butt"/><path d="M206.1415,120.51927c0,0 4.82667,-4.63761 4.92717,-5.3156c0.15476,-1.04421 0.08246,-11.71093 5.72687,-20.56099c1.37972,1.63903 5.33056,2.3545 6.91347,2.70628c3.41681,0.75929 6.85772,1.40403 10.27574,2.15855c3.37112,0.74416 6.81377,1.52551 10.25628,1.70731c0.8273,0.04356 1.7185,0.10011 2.63519,0.1425c1.23573,0.89633 2.75561,1.42485 4.39893,1.42485c0.4416,0 0.87429,-0.03817 1.29494,-0.11138c2.44206,0.22862 5.60325,-0.28148 7.5622,-0.28148c3.5294,0 6.26752,0.06718 8.89912,-2.51493c2.22179,6.76875 2.72758,20.62042 3.5861,22.95496c2.70166,7.34644 2.29764,9.91235 2.29764,9.91235l-4.5053,-4.77508c0,0 2.42075,4.53251 1.02662,12.63549c-1.22349,7.42487 -3.78652,29.48484 -3.78652,29.48484c0,0 -3.30088,-10.61206 -4.1916,-9.72336c-0.89074,0.88869 -0.85966,4.94773 -0.85966,4.94773c0,0 -2.21232,-3.67869 -2.60753,-5.6325c-0.34386,-1.69992 -0.63122,-4.93506 -0.63122,-4.93506c0,0 -4.52899,8.12851 -18.06979,8.01386c-5.15746,-0.0808 -17.59429,-7.02585 -17.59429,-7.02585c0,0 0.77632,3.6458 0.56483,5.25992c-0.23575,1.79924 -1.91447,5.04059 -1.91447,5.04059l-1.80685,-8.30143l-4.92433,8.91242l-3.62438,3.7282l1.12752,-29.37095c0,0 0.59676,-0.51271 -2.04863,0.17272c-3.31483,0.85888 -3.15444,2.98467 -3.15444,2.98467c0,0 -1.60307,-3.55647 -0.05559,-5.16403c1.37837,-1.43188 1.7869,-2.93052 1.7869,-2.93052c0,0 -0.79336,-0.00769 -2.45767,0.40992c-1.73651,0.43573 -3.72751,2.84436 -3.72751,2.84436c0,0 -0.10398,-0.65913 1.506,-5.23029c1.52007,-4.31591 5.64436,-14.15246 5.64436,-14.15246c0,0 -1.06635,0.51815 -2.60793,0.6227c-0.97716,0.06628 -1.86217,-0.0383 -1.86217,-0.0383z" fill="#000000" stroke="none" stroke-width="1.5" stroke-linecap="butt"/><path d="M219.28703,129.38562c-0.45194,-5.71157 0.26235,-13.43423 0.26235,-13.43423c0,0 1.72094,-3.38722 2.56977,-3.57821c0.83359,-0.18756 0.31165,8.10903 0.31165,8.10903c0,0 4.41706,-10.87331 6.51532,-11.49318c3.0504,-0.90115 3.88581,5.01537 3.88581,5.01537l4.10229,-3.7953l5.30054,5.12591l2.69832,-8.13534c0,0 6.86222,8.25198 7.30084,8.05556c2.5394,-1.04789 4.46416,-6.19176 5.97588,-4.86785c2.4829,2.17442 3.85161,6.06029 4.99935,6.77116c2.17938,1.34982 -0.02666,6.82179 -0.27068,11.17439c-0.33019,4.43975 -1.98388,7.43952 -2.46711,9.80524c-0.48323,2.36572 -0.32077,4.80578 -1.72776,12.56121c-0.87806,4.83992 -3.25927,6.98919 -7.84654,11.48136c-4.58727,4.49218 -7.09032,7.24613 -10.19137,7.30015c-2.98434,0.05199 -6.9978,-3.99413 -10.91328,-8.13082c-4.16934,-4.40492 -6.95022,-6.63872 -7.60853,-11.85644c-0.59288,-4.6991 -0.60813,-7.75969 -0.87919,-11.94148c-0.19812,-3.05635 -1.77081,-5.04732 -2.01763,-8.16652z" fill="#ffffff" stroke="#000000" stroke-width="1.5" stroke-linecap="butt"/><path d="M246.93623,151.20931c0.4467,0.16592 2.41485,1.09593 4.71748,2.0329c2.32097,0.94443 5.64922,1.79568 5.63395,1.9269c-0.01939,0.16654 -8.17181,0.17772 -10.71276,0.49512c-2.12936,0.26599 -5.23811,0.55261 -5.23811,0.55261c0,0 -5.56338,-0.90975 -10.39401,-1.91492c-3.87158,-0.8056 -8.14402,-1.30085 -8.15238,-1.3741c-0.01127,-0.09877 3.02943,-0.55658 5.34423,-1.09221c0.89736,-0.38891 4.26001,-1.16306 4.26001,-1.16306c0,0 3.88109,-0.21744 5.95828,0.45344c2.22568,0.71884 2.22054,1.9152 2.41448,1.9336c0,0 0.92751,-1.36995 1.85513,-1.64819c0.92763,-0.27823 3.98003,-0.32604 4.31372,-0.20211z" fill="#ffffff" stroke="#000000" stroke-width="1.4" stroke-linecap="butt"/><path d="M232.3324,154.77539c3.98704,0.80408 9.33303,2.19854 9.33303,2.19854c0,0 4.53415,-1.21844 6.61495,-1.43658c1.61319,-0.16913 8.78362,-0.55331 8.81828,-0.26138c0.03389,0.28543 -7.07263,10.10267 -16.56176,9.74776c-10.78338,-0.34127 -17.906,-11.85317 -17.87637,-11.98562c0.02964,-0.13245 5.68483,0.93322 9.67188,1.7373z" fill="#ffffff" stroke="#000000" stroke-width="1.9" stroke-linecap="butt"/><path d="M240.92669,152.43094c-0.80957,0 -2.7708,-2.55335 -2.96549,-4.20049c-0.17419,-1.47375 1.02991,-2.99783 2.96549,-2.99783c1.93559,0 3.2908,0.38434 3.15601,3.28018c-0.11439,2.45761 -1.22044,3.91815 -3.15601,3.91815z" fill="#ffffff" stroke="#000000" stroke-width="1.15" stroke-linecap="butt"/><path d="M243.74763,128.86353c0,0 0.08035,3.10885 0.00451,5.58109c-0.15016,4.89547 -0.84694,21.74031 -0.84694,21.74031l-2.33505,0.00677c0,0 -0.62881,-3.26781 -0.87963,-7.4396c-0.33951,-5.64688 -0.35202,-12.75974 -0.59788,-15.37468c-0.23305,-2.47871 -0.70163,-4.47523 -0.70163,-4.47523" fill="#ffffff" stroke="#000000" stroke-width="1.3" stroke-linecap="round"/><path d="M220.61809,137.31345c0,0 -3.86249,-2.75431 -4.82736,-7.02863c-1.01522,-4.49741 -1.1443,-7.62207 0.37601,-7.82501c1.52031,-0.20295 2.11697,1.86144 2.92314,6.54361c0.80615,4.68217 1.52823,8.31003 1.52823,8.31003z" data-paper-data="{&quot;index&quot;:null}" fill="#ffffff" stroke="#000000" stroke-width="1" stroke-linecap="butt"/><path d="M220.45946,134.22196c0,0 -2.79097,-2.2894 -3.38169,-6.61795c-0.32953,-2.41461 1.68902,-1.78567 1.68902,-1.78567" fill="none" stroke="#000000" stroke-width="0.25" stroke-linecap="round"/><path d="M222.09461,129.34447c0.05823,-4.01595 3.97199,-7.33601 8.38294,-7.27207c4.41093,0.06395 7.41082,3.48768 7.3526,7.50364c-0.05823,4.01594 -3.38516,7.21968 -7.79611,7.15573c-4.41093,-0.06394 -7.99766,-3.37135 -7.93943,-7.38731z" fill="#ffffff" stroke="#000000" stroke-width="1.4" stroke-linecap="butt"/><path d="M226.09458,128.90186c0.03132,-2.16021 1.80791,-3.88601 3.96811,-3.85469c2.16021,0.03132 3.886,1.8079 3.85468,3.9681c-0.03132,2.16021 -1.80789,3.88601 -3.9681,3.85469c-2.16021,-0.03132 -3.88601,-1.8079 -3.85469,-3.9681z" fill="#000000" stroke="#000000" stroke-width="1" stroke-linecap="butt"/><path d="M244.00853,129.57249c0.17231,-4.13843 3.7697,-7.49976 8.27189,-7.49976c4.50219,0 7.852,3.35775 7.852,7.49976c0,4.14201 -7.87858,15.90637 -7.87858,15.90637c0,0 -3.76139,-8.64985 -5.05692,-9.52748c-2.05746,-1.39379 -3.29882,-3.72684 -3.18839,-6.37889z" fill="#ffffff" stroke="#000000" stroke-width="1.4" stroke-linecap="butt"/><path d="M248.47925,131.41042c0,-2.20722 3.82985,-2.32985 3.82985,-2.32985c0,0 4.16319,0.12263 4.16319,2.32985c0,2.20722 -3.99652,8.66319 -3.99652,8.66319c0,0 -3.99652,-6.45597 -3.99652,-8.66319z" fill="#000000" stroke="#000000" stroke-width="1" stroke-linecap="butt"/><path d="M222.05145,128.50349c0,0 0.05203,-6.96893 8.67774,-6.82188c7.75268,0.12821 7.82187,7.27204 7.82187,7.27204c0,0 -5.71349,-1.7877 -8.54871,-1.86505c-2.65246,-0.07237 -7.9509,1.4149 -7.9509,1.4149z" fill="#25433f" stroke="#25433f" stroke-width="1.15" stroke-linecap="butt"/><path d="M243.71226,128.82073c0,0 -0.19672,-7.53728 8.92385,-7.25438c7.74135,0.26574 7.60787,7.69197 7.60787,7.69197c0,0 -5.59107,-1.22327 -8.42178,-1.29819c-2.67054,-0.07068 -8.10994,0.8606 -8.10994,0.8606z" fill="#25433f" stroke="#25433f" stroke-width="1.15" stroke-linecap="butt"/><path d="M263.08979,129.00339c0.80615,-4.68217 1.40283,-6.74656 2.92314,-6.54362c1.52031,0.20294 1.39123,3.3276 0.37601,7.825c-0.96486,4.27432 -4.82736,7.02864 -4.82736,7.02864c0,0 0.72207,-3.62786 1.52823,-8.31003z" data-paper-data="{&quot;index&quot;:null}" fill="#ffffff" stroke="#000000" stroke-width="1" stroke-linecap="butt"/><path d="M263.4129,125.81835c0,0 2.01855,-0.62895 1.68902,1.78567c-0.59073,4.32855 -3.38169,6.61795 -3.38169,6.61795" data-paper-data="{&quot;index&quot;:null}" fill="none" stroke="#000000" stroke-width="0.25" stroke-linecap="round"/><path d="M211.78531,108.25351c0,0 -2.49941,-5.39162 -1.84497,-8.37927c0.28822,-1.3158 4.62274,-10.67629 4.62274,-10.67629c0,0 0.48319,4.04863 2.18022,4.68928c8.81875,3.3292 33.58087,8.64405 43.15312,8.64405c7.65027,0 8,-11.33333 8,-11.33333c0,0 3.89086,3.79822 4.23169,4.93024c0.79038,2.62521 -1.3428,11.45865 -1.3428,11.45865l-0.40623,-0.88889h-58.16667z" fill="#333333" stroke="none" stroke-width="0" stroke-linecap="butt"/><path d="M211.86059,108.33178c0,0 -0.53722,-0.8577 -0.94253,-1.94982c-0.61755,-1.66403 -1.31579,-4.13024 -0.9069,-5.98c0.33581,-1.51913 4.38984,-10.95402 4.38984,-10.95402c0,0 0.44174,3.2951 2.73308,4.44516c2.20329,1.10586 8.72146,2.64575 8.72146,2.64575l13.90909,10.11688l-27.49662,0.22847z" fill="#202020" stroke="none" stroke-width="0" stroke-linecap="butt"/><path d="M258.69804,106.63604v-4.28572h0.92857v4.28572z" fill="#8fffee" stroke="none" stroke-width="0" stroke-linecap="butt"/><path d="M258.54571,106.70113v-2.16667h1.16666v2.16667z" fill="#60ab9f" stroke="none" stroke-width="0" stroke-linecap="butt"/><path d="M268.15683,91.9789l0.22222,5.44444l-0.44444,9.11111" fill="none" stroke="#141414" stroke-width="1" stroke-linecap="round"/><path d="M258.41796,86.78217c0,4.93112 -7.88193,-4.5 -17.42857,-4.5c-9.54664,0 -17.14285,9.43112 -17.14285,4.5c0,-4.93112 7.73908,-9.35715 17.28572,-9.35715c9.54664,0 17.28571,4.42603 17.28571,9.35715z" fill="#8fffee" stroke="none" stroke-width="0" stroke-linecap="butt"/><path d="M219.68339,130.06669l-2,-21.66666l27.16667,-0.66667l13.5,2.16667l6,9.16666l-4.33334,19.16667c0,0 -6.07819,9.63055 -9.22663,8.94012c-0.80215,-0.1759 -2.73573,-9.72753 -3.68357,-10.70372c-2.8139,-2.89804 -5.75356,-8.06898 -5.75356,-8.06898c0,0 -4.87548,9.10793 -8.21431,9.77546c-3.0187,0.60353 -11.28859,-0.27622 -11.28859,-0.27622zM230.11673,136.93335c4.41828,0 8,-3.58172 8,-8c0,-4.41828 -3.58172,-8 -8,-8c-4.41828,0 -8,3.58172 -8,8c0,4.41828 3.58172,8 8,8zM252.71672,143.8c0,0 7,-9.74839 7,-14.16667c0,-4.41828 -3.58172,-8 -8,-8c-4.41828,0 -7.6,3.48172 -7.6,7.9c0,2.31158 2.35403,6.10952 4.59889,9.20579c2.04589,2.82183 4.00111,5.06088 4.00111,5.06088z" fill="#000000" stroke="#000000" stroke-width="1.15" stroke-linecap="round"/><path d="M225.53011,118.5023c0,0 2.63887,-1.42451 6.29047,-1.78693c4.04643,-0.40162 6.08355,-0.0519 6.08355,-0.0519l0.23109,3.24018c0,0 -3.00373,-0.53304 -6.27911,-0.40812c-4.38042,0.16706 -5.20382,1.12218 -8.53438,1.48106c-2.8538,0.30751 -5.27615,0.12439 -5.27615,0.12439l-0.02027,-0.96446c0,0 2.81549,0.05793 4.09869,-0.05354c1.0591,-0.09201 3.1135,-0.73464 3.1135,-0.73464z" fill="#e6e6e6" stroke="none" stroke-width="1.5" stroke-linecap="butt"/><path d="M256.76553,120.3777c0,0 1.19372,0.24909 3.33285,0.8695c1.95385,0.56669 3.48443,1.36581 3.48443,1.36581l0.15279,0.91654c0,0 -5.67742,-2.45118 -11.83768,-1.9348c-4.92559,0.4129 -7.8025,2.20248 -7.8025,2.20248l0.03583,-3.27101c0,0 2.44923,-1.33463 6.15829,-1.45316c3.8407,-0.12274 6.3362,0.46303 6.3362,0.46303z" data-paper-data="{&quot;index&quot;:null}" fill="#dadada" stroke="none" stroke-width="1.5" stroke-linecap="butt"/><path d="M221.47005,143.78002l8.2,-6.4" fill="none" stroke="#000000" stroke-width="1" stroke-linecap="round"/></g><g fill="#d4d4d4"><path d="M259.78554,202.3439l-15.25321,0.07749" stroke="#000000" stroke-width="3" stroke-linecap="round"/><g stroke="none" stroke-linecap="butt"><g stroke-width="1" font-weight="normal" font-size="40" text-anchor="start"><text transform="translate(244.5323,202.03395) scale(0.07734,0.08132)" font-size="40" xml:space="preserve" fill="#d4d4d4" fill-rule="nonzero" stroke="none" stroke-width="1" stroke-linecap="butt" stroke-linejoin="miter" stroke-miterlimit="10" stroke-dasharray="" stroke-dashoffset="0" font-family="Pixel" font-weight="normal" text-anchor="start" style="mix-blend-mode: normal"><tspan x="0" dy="0">DONK</tspan></text><text transform="translate(244.34775,205.32681) scale(0.07734,0.08132)" font-size="40" xml:space="preserve" fill="#d4d4d4" fill-rule="nonzero" stroke="none" stroke-width="1" stroke-linecap="butt" stroke-linejoin="miter" stroke-miterlimit="10" stroke-dasharray="" stroke-dashoffset="0" font-family="Sans Serif" font-weight="normal" text-anchor="start" style="mix-blend-mode: normal"><tspan x="0" dy="0">Industries</tspan></text></g><path d="M254.03794,200.25174v-0.92985h5.82128v0.92985z" stroke-width="0"/><path d="M254.03794,201.78858v-0.90402h5.82128v0.90402z" stroke-width="0"/></g></g><path d="M244.47002,132.18l1.6,15.4" fill="none" stroke="#000000" stroke-width="1.5" stroke-linecap="round"/><path d="M249.07001,148.18l-0.2,-4.8l0.4,-2.2" fill="none" stroke="#000000" stroke-width="1.5" stroke-linecap="round"/><path d="M255.47001,153.38l0.8,-8.6l-0.2,5" fill="none" stroke="#000000" stroke-width="1.5" stroke-linecap="round"/><path d="M256.27001,147.38l0.2,-4l3,-3.2" fill="none" stroke="#000000" stroke-width="1.5" stroke-linecap="round"/><path d="M248.47002,144.98l-2.6,-10.6" fill="none" stroke="#000000" stroke-width="1.5" stroke-linecap="round"/><path d="M259.47002,141.98l-0.8,5.6l-1.8,-5.2" fill="none" stroke="#000000" stroke-width="1.5" stroke-linecap="round"/><path d="M252.07001,153.38v-8.2" fill="none" stroke="#000000" stroke-width="1.5" stroke-linecap="round"/></g></g></svg>