<svg version="1.1" xmlns="http://www.w3.org/2000/svg" xmlns:xlink="http://www.w3.org/1999/xlink" width="35.67311" height="35.67311" viewBox="0,0,35.67311,35.67311"><defs><linearGradient x1="240.00001" y1="162.91345" x2="240.00001" y2="197.08656" gradientUnits="userSpaceOnUse" id="color-1"><stop offset="0" stop-color="#da7f7f"/><stop offset="1" stop-color="#cc1414"/></linearGradient></defs><g transform="translate(-222.16345,-162.16345)"><g data-paper-data="{&quot;isPaintingLayer&quot;:true}" stroke-width="1.5" stroke-miterlimit="10" stroke-dasharray="" stroke-dashoffset="0" style="mix-blend-mode: normal"><path d="M229.98311,162.91345h20.03379c3.9166,0 7.06966,3.15307 7.06966,7.06966v20.03379c0,3.91659 -3.15306,7.06966 -7.06966,7.06966h-20.03379c-3.91659,0 -7.06966,-3.15307 -7.06966,-7.06966v-20.03379c0,-3.91659 3.15307,-7.06966 7.06966,-7.06966z" fill="url(#color-1)" fill-rule="evenodd" stroke="#000000" stroke-linecap="round" stroke-linejoin="round"/><path d="M240.9452,190.32748c-6.17612,3.1219 -12.86672,2.43054 -14.05937,2.83958c-1.27173,0.43616 7.27071,-3.66926 10.66758,-9.67872c0.54201,-0.95886 -0.65011,-10.06583 0.09191,-11.39068c2.5897,-4.62383 7.86472,-6.59357 11.7821,-4.39954c3.91738,2.19403 4.99369,7.72099 2.40399,12.34483c-0.62054,1.10796 -5.56697,7.59577 -10.88621,10.28455z" data-paper-data="{&quot;index&quot;:null}" fill="#000000" fill-rule="nonzero" stroke="#ffffff" stroke-linecap="butt" stroke-linejoin="miter"/></g></g></svg>