<svg version="1.1" xmlns="http://www.w3.org/2000/svg" xmlns:xlink="http://www.w3.org/1999/xlink" width="105.57069" height="263.21936" viewBox="0,0,105.57069,263.21936"><defs><linearGradient x1="241.10544" y1="93.20639" x2="239.13709" y2="160.76665" gradientUnits="userSpaceOnUse" id="color-1"><stop offset="0" stop-color="#000000"/><stop offset="1" stop-color="#000000" stop-opacity="0"/></linearGradient></defs><g transform="translate(-187.678,-42.28068)"><g data-paper-data="{&quot;isPaintingLayer&quot;:true}" fill-rule="nonzero" stroke-linejoin="miter" stroke-miterlimit="10" stroke-dasharray="" stroke-dashoffset="0" style="mix-blend-mode: normal"><g fill="#000000" stroke="none" stroke-linecap="butt"><path d="M290.12264,128.19246c0,0 -1.23885,0.09749 -2.59995,-0.02683c-2.14728,-0.19612 -3.61604,-0.90082 -3.61604,-0.90082c0,0 0.01483,5.44897 1.97549,11.01951c2.07663,5.89999 7.36655,11.09353 7.36655,11.09353c0,0 -1.98166,-0.03225 -4.38864,-0.65902c-2.3069,-0.60069 -4.57848,-1.75203 -4.57848,-1.75203c0,0 -1.75657,4.79035 0.1136,6.67401c2.09962,2.11476 5.43399,15.04152 5.43399,15.04152c0,0 -2.94192,-8.97491 -7.53559,-10.20594c-3.66596,-0.98242 -3.003,-6.6254 -3.003,-6.6254c0,0 -0.6956,4.57925 -3.89666,12.13491c-2.68571,6.33925 -7.03784,9.50661 -7.03784,9.50661l-0.04966,-2.65741c0,0 -10.97499,10.1044 -28.80201,9.84059c-18.89951,-0.40416 -26.29396,-11.64222 -26.29396,-11.64222l-0.20846,3.69971c0,0 -2.46314,-1.85046 -3.67305,-3.02098c-1.20989,-1.17053 -2.26345,-3.4001 -2.26345,-3.4001c0,0 0.07301,-12.33678 -3.04446,-12.23905c-3.33087,0.10442 -16.34301,12.84682 -16.34301,12.84682c0,0 1.79994,-10.75219 5.95958,-18.46999c4.57061,-8.48032 6.65891,-17.92315 6.65891,-17.92315c0,0 -2.87869,2.05516 -4.24585,3.02348c-1.46583,1.03821 -4.54959,3.00275 -4.54959,3.00275c0,0 3.19159,-7.92974 7.23475,-17.19676c2.94874,-6.75857 -2.13837,-43.18451 46.61391,-40.85012c39.44834,2.55056 37.79343,40.42097 38.09507,42.70135c0.11502,0.86946 6.67784,6.98505 6.67784,6.98505z" data-paper-data="{&quot;index&quot;:null}" stroke-width="1.5"/><path d="M194.50448,100.6328c0,0 6.68504,-5.72962 6.84584,-6.59104c0.20289,-1.08692 0.44031,-10.42319 4.88818,-19.85193c1.26235,-2.67597 5.52821,-6.10688 5.77573,-9.57633c0.46025,-6.45153 -3.96607,-12.77388 -3.96607,-12.77388c0,0 27.60796,1.79021 32.51902,1.75325c3.1228,0.0305 -8.98731,-11.31219 -8.98731,-11.31219c0,0 26.07622,11.33727 28.88979,12.20742c27.07313,8.37279 20.67297,36.70526 22.75337,42.55574c3.37212,9.48307 5.99882,17.58232 5.99882,17.58232c0,0 -2.86417,-2.13783 -4.21963,-3.25824c-1.26423,-1.04499 -3.92525,-3.26155 -3.92525,-3.26155c0,0 2.96492,10.43887 0.78253,20.72656c-1.92695,9.42886 -8.21304,16.99345 -8.21304,16.99345l-1.15233,-2.38192c0,0 -1.14462,2.16552 -2.37952,3.26483c-1.23491,1.09929 -3.71843,2.80563 -3.71843,2.80563l0.01061,-3.70547c0,0 -7.78108,10.79593 -26.04728,10.11727c-17.22292,-0.75736 -27.23816,-11.47331 -27.23816,-11.47331l-0.20009,2.65014c0,0 -4.01961,-3.41127 -6.24906,-9.89372c-2.65725,-7.72633 -3.0665,-12.33778 -3.0665,-12.33778c0,0 -2.52695,1.82634 -6.12183,2.59722c-4.5046,0.96596 -7.35039,0.13125 -7.35039,0.13125c0,0 3.89155,-2.60494 6.03933,-4.59596c1.91306,-1.77344 2.89492,-3.29431 2.89492,-3.29431c0,0 -2.2586,1.01936 -4.51977,1.48695c-2.35926,0.4879 -4.27393,0.40664 -4.27393,0.40664c0,0 5.40356,-4.88199 7.74587,-10.65323c2.21153,-5.44899 2.53782,-10.88802 2.53782,-10.88802c0,0 -1.45809,0.61943 -3.54201,0.69227c-1.32095,0.04618 -2.51119,-0.12208 -2.51119,-0.12208z" stroke-width="1.5"/><path d="M204.68058,212.19573c0,0 1.2415,-4.73486 -0.54028,-10.21081c-1.8975,-5.83163 -6.83865,-12.53438 -7.29481,-16.2935c-0.55469,-4.57112 3.03892,-13.01991 3.03892,-13.01991c0,0 3.8377,-10.32129 3.94683,-21.15739c0.11892,-11.80734 -9.27649,-21.23214 4.0749,-22.21923c2.87258,-0.21237 6.11601,6.91613 9.77718,11.84089c3.83529,5.15898 8.02487,8.13039 8.02487,8.13039c0,0 -3.23786,0.81417 -2.34268,6.0841c3.12969,18.42436 11.35306,42.82795 11.35306,42.82795c0,0 -10.58506,-17.59868 -10.37465,-8.99698c0.23484,9.60028 6.14681,36.09753 6.14681,36.09753c0,0 -11.5766,-17.78485 -16.76221,-27.85574c-1.75244,-3.40339 -2.8859,-9.91442 -2.8859,-9.91442z" stroke-width="0"/><path d="M270.4385,187.57754c0,0 -1.5106,6.434 -3.45823,9.72959c-5.76314,9.7519 -4.62358,36.23649 -4.62358,36.23649c0,0 -6.28734,-35.512 -5.49398,-45.08233c0.71084,-8.57485 -6.78234,16.50051 -6.78234,16.50051c0,0 5.53169,-32.00624 9.72874,-50.21715c1.20048,-5.20887 -1.9845,-6.21016 -1.9845,-6.21016c0,0 4.35547,-2.72245 8.48461,-7.64939c3.94168,-4.70325 7.59463,-11.63083 10.44997,-11.25157c13.27127,1.76274 3.34309,10.62453 2.77438,22.41879c-0.52192,10.82407 2.70835,21.35129 2.70835,21.35129c0,0 3.09563,8.64368 2.27575,13.17475c-0.67424,3.72618 -5.99723,10.12989 -8.23104,15.84115c-2.09756,5.36293 -5.42336,20.04132 -5.42336,20.04132z" data-paper-data="{&quot;index&quot;:null}" stroke-width="0"/></g><g><g><path d="M201.54539,304.39162c0,0 -0.63536,-94.38387 -0.79335,-118.01201c-0.05451,-8.15261 8.18688,-36.76129 40.20201,-36.9211c31.60235,-0.15775 39.85672,29.48704 39.84884,36.89673c-0.07659,46.24274 0.65429,117.98648 0.65429,117.98648l-10.49667,0.09614l-0.15882,-114.84311c0,0 0.07549,-3.0993 -2.81625,-3.15415c-3.43441,-0.06514 -2.94538,3.11562 -2.94538,3.11562c0,0 -4.95003,28.26622 -4.9205,44.77862c0.03718,20.78547 5.12598,70.09133 5.12598,70.09133l-48.21366,0.07222c0,0 4.21363,-44.83321 4.15975,-65.16568c-0.04695,-17.71739 -4.46514,-50.06741 -4.46514,-50.06741c0,0 0.27949,-2.919 -2.8856,-2.93443c-3.11083,-0.01515 -2.81569,2.90899 -2.81569,2.90899l0.35311,115.0668z" fill="#ffffff" stroke="#000000" stroke-width="2" stroke-linecap="butt"/><path d="M256.14252,200.33382c-0.57113,0 -1.03411,-0.46299 -1.03411,-1.03411c0,-0.57113 0.46299,-1.03413 1.03411,-1.03413c0.57113,0 1.03411,0.463 1.03411,1.03413c0,0.57113 -0.46299,1.03411 -1.03411,1.03411z" fill="#000000" stroke="none" stroke-width="1.5" stroke-linecap="butt"/><path d="M250.88269,204.56943c-4.4635,-0.31439 -6.55245,-1.79392 -6.16985,-2.58011c0.11788,-0.24224 2.84645,1.06355 6.97038,1.3048c6.40897,0.37493 8.51033,-0.63173 8.51033,-0.63173v1.34616c0,0 -2.4135,1.04672 -9.31086,0.56089z" fill="#000000" stroke="#000000" stroke-width="0" stroke-linecap="butt"/><path d="M223.06993,199.29973c0,-0.57113 0.46299,-1.03413 1.03411,-1.03413c0.57113,0 1.03413,0.463 1.03413,1.03413c0,0.57113 -0.463,1.03411 -1.03413,1.03411c-0.57113,0 -1.03411,-0.46299 -1.03411,-1.03411z" fill="#000000" stroke="none" stroke-width="1.5" stroke-linecap="butt"/><path d="M229.36393,204.56943c-6.89736,0.48585 -9.31086,-0.56089 -9.31086,-0.56089v-1.34616c0,0 2.10136,1.00666 8.51033,0.63173c4.12393,-0.24126 6.85251,-1.54704 6.97039,-1.3048c0.3826,0.78618 -1.70634,2.26571 -6.16985,2.58011z" fill="#000000" stroke="#000000" stroke-width="0" stroke-linecap="butt"/><path d="M240.64439,261.12113c-0.81895,0 -1.48284,-0.66389 -1.48284,-1.48284c0,-0.81895 0.66389,-1.48284 1.48284,-1.48284c0.81895,0 1.48284,0.66389 1.48284,1.48284c0,0.81895 -0.66389,1.48284 -1.48284,1.48284z" data-paper-data="{&quot;index&quot;:null}" fill="#000000" stroke="none" stroke-width="1.5" stroke-linecap="butt"/><g fill="#ffffff" stroke="#000000" stroke-width="2" stroke-linecap="round"><path d="M240.52122,202.18259c0.14273,5.60368 -2.57383,7.93839 -3.89249,9.02343c-5.12117,4.21387 -15.18067,3.25512 -17.60285,2.04502c-4.96567,-2.48081 -8.40378,-10.51264 -8.69751,-13.75788c-0.29521,-3.2616 0.55028,-8.14011 2.54293,-10.94893c2.55122,-3.59616 5.94201,-5.23391 5.94201,-5.23391"/><path d="M264.10865,183.81032c0,0 3.568,1.68802 5.59914,5.45989c1.4764,2.74171 1.66914,7.09237 1.38579,10.22295c-0.29373,3.24525 -3.73185,11.27706 -8.69752,13.75787c-2.42218,1.2101 -12.48168,2.16885 -17.60284,-2.04502c-1.31866,-1.08504 -4.49677,-3.65052 -4.35404,-9.2542" data-paper-data="{&quot;index&quot;:null}"/></g></g><g fill="#ff0000" stroke="none" stroke-width="0" stroke-linecap="butt"><path d="M242.78929,225.87056c-5.33481,19.80043 -12.8084,55.08219 -15.54163,53.35977c-2.73323,-1.72242 0.30891,-39.79677 5.64372,-59.59721c5.33481,-19.80043 6.19209,-14.11615 8.92532,-12.39373c2.73323,1.72242 6.3074,-1.16927 0.97259,18.63117z"/><path d="M245.69891,224.87219c-0.89199,21.37201 -1.1153,60.80478 -4.06547,60.5168c-2.95017,-0.28799 -7.51003,-40.1877 -6.61805,-61.5597c0.89199,-21.37201 2.89805,-16.4104 5.84822,-16.12241c2.95017,0.28799 5.72728,-4.20669 4.8353,17.16532z"/><path d="M238.13099,226.07155c-9.77267,15.33764 -18.13852,45.16132 -20.25572,42.00607c-1.46252,-2.1796 -5.18318,-53.57253 -2.16132,-58.31516c9.77267,-15.33764 23.9341,-4.69105 26.0513,-1.5358c2.1172,3.15525 6.13841,2.50726 -3.63426,17.8449z"/><path d="M248.72787,219.65452c5.38578,19.76813 7.4285,58.30341 4.69972,60.04229c-2.72877,1.73888 -9.19571,-33.97713 -14.58149,-53.74525c-5.38578,-19.76813 -2.15093,-16.67705 0.57785,-18.41593c2.72878,-1.73888 3.91814,-7.64923 9.30392,12.1189z"/><path d="M267.13778,207.88455c3.48796,4.65245 -1.83417,53.89524 -3.13503,56.17631c-1.94308,3.40722 -11.34842,-26.02739 -21.90149,-40.1037c-10.55307,-14.07631 -6.75764,-13.49577 -4.81456,-16.90299c1.94308,-3.40722 19.29801,-13.24594 29.85108,0.83038z"/></g><g stroke="none" stroke-width="0" stroke-linecap="butt"><g><g fill="#da7f7f"><path d="M202.75744,220.78121c-0.91601,4.78728 -2.97391,8.19854 -4.59646,7.61927c-1.62255,-0.57927 -2.19532,-4.92971 -1.27932,-9.71699c0.91601,-4.78728 2.97392,-8.19854 4.59646,-7.61927c1.62255,0.57927 2.19532,4.92971 1.27931,9.71699z"/><path d="M211.03608,211.06421c1.62255,-0.57927 3.68045,2.832 4.59645,7.61927c0.91601,4.78727 0.34323,9.13772 -1.27931,9.71699c-1.62255,0.57927 -3.68045,-2.832 -4.59646,-7.61927c-0.91601,-4.78727 -0.34323,-9.13772 1.27932,-9.71699z" data-paper-data="{&quot;index&quot;:null}"/><path d="M207.46891,221.69171c-0.38297,4.86598 -2.05167,8.50305 -3.72716,8.1236c-1.67549,-0.37945 -2.72329,-4.6317 -2.34032,-9.49768c0.38297,-4.86598 2.05168,-8.50305 3.72717,-8.1236c1.67549,0.37945 2.72328,4.6317 2.34031,9.49768z"/><path d="M208.11441,213.21191c1.67549,-0.37944 3.34419,3.25761 3.72716,8.12359c0.38297,4.86598 -0.66482,9.11824 -2.34031,9.49768c-1.67549,0.37944 -3.34419,-3.25762 -3.72717,-8.1236c-0.38297,-4.86598 0.66483,-9.11823 2.34032,-9.49767z" data-paper-data="{&quot;index&quot;:null}"/></g><path d="M197.4714,215.23541c0,0 1.57143,-4.9375 1.57143,-8.21173c0,-4.4673 0,-15.84359 0,-15.84359h14.75c0,0 0,12.09897 0,16.59181c0,3.07315 1.42857,7.61315 1.42857,7.61315z" fill="#a10000"/></g><g><g fill="#da7f7f"><path d="M271.61459,222.27763c-0.916,4.78728 -2.97391,8.19854 -4.59646,7.61927c-1.62255,-0.57927 -2.19532,-4.9297 -1.27932,-9.71698c0.916,-4.78728 2.97391,-8.19855 4.59646,-7.61928c1.62255,0.57927 2.19532,4.92971 1.27931,9.71699z"/><path d="M279.8932,212.56066c1.62255,-0.57927 3.68045,2.832 4.59645,7.61928c0.916,4.78727 0.34323,9.13771 -1.27931,9.71698c-1.62255,0.57927 -3.68045,-2.832 -4.59646,-7.61928c-0.916,-4.78727 -0.34323,-9.13771 1.27932,-9.71698z" data-paper-data="{&quot;index&quot;:null}"/><path d="M276.32605,223.18817c-0.38297,4.86598 -2.05167,8.50304 -3.72717,8.12359c-1.67549,-0.37945 -2.72328,-4.63169 -2.34031,-9.49767c0.38297,-4.86598 2.05167,-8.50305 3.72717,-8.1236c1.67549,0.37945 2.72328,4.6317 2.34031,9.49768z"/><path d="M276.9715,214.70833c1.67549,-0.37944 3.34419,3.25761 3.72717,8.12359c0.38297,4.86598 -0.66483,9.11824 -2.34032,9.49768c-1.67549,0.37944 -3.34419,-3.25761 -3.72717,-8.12359c-0.38297,-4.86598 0.66483,-9.11824 2.34032,-9.49768z" data-paper-data="{&quot;index&quot;:null}"/></g><path d="M266.32849,216.73186c0,0 1.57143,-4.9375 1.57143,-8.21173c0,-4.4673 0,-15.84359 0,-15.84359h14.75c0,0 0,12.09897 0,16.59181c0,3.07315 1.42857,7.61316 1.42857,7.61316z" fill="#a10000"/></g><path d="M199.15354,191.3585c0,0 1.82462,-20.19547 8.16591,-26.67681c3.91163,-3.99802 9.99521,-9.81164 17.97915,-13.16665c6.84618,-2.87689 15.34066,-1.51823 15.34066,-1.51823c0,0 18.7832,-0.65754 27.84739,8.105c9.79289,9.467 14.03833,34.78306 14.03833,34.78306c0,0 -27.153,11.32479 -40.91793,11.07278c-14.02084,-0.2567 -42.45349,-12.59914 -42.45349,-12.59914z" fill="#a10000"/></g><path d="M275.96673,158.16445c0,0 -3.13344,41.76527 -35.50957,43.63031c-27.40913,1.57891 -36.42376,-43.09698 -36.42376,-43.09698" fill="none" stroke="#000000" stroke-width="3" stroke-linecap="round"/><g stroke="#000000" stroke-width="0" stroke-linecap="butt"><path d="M274.73329,191.62505c0,5.5819 1.16156,15.61828 -6.08097,20.14541c-5.92482,3.70346 -47.78418,5.0292 -53.35521,2.04346c-8.51944,-4.5659 -7.06381,-15.80301 -7.06381,-21.93887c0,-5.75268 4.52516,-12.95155 12.50273,-12.91087c2.09459,0.01068 8.53711,-0.38952 11.4975,1.04964c5.65479,2.74901 9.62476,7.73623 9.62476,7.73623c0,0 3.67869,-4.49312 8.96296,-7.08089c4.01934,-1.96832 9.4944,-2.20212 11.91276,-2.20589c7.13139,-0.01112 11.99928,7.47635 11.99928,13.16178z" fill="#cc1414"/><path d="M269.73329,180.95841c4.5951,2.30887 5.92555,12.23618 4.79782,19.9632c-0.80495,5.51542 -2.86231,10.29668 -5.8788,12.18221c-5.92482,3.70346 -48.03418,3.6542 -53.60521,0.66846c-0.21961,-0.1177 17.5227,-6.02555 31.64158,-14.47409c13.23313,-7.91852 22.8882,-18.41836 23.04461,-18.33978z" fill="#a10000"/></g></g><path d="M263.01022,95.4936c0,0 1.51438,0.36233 4.22166,1.23376c2.47279,0.79596 4.39667,1.87287 4.39667,1.87287l0.16093,1.17554c0,0 -7.1554,-3.33977 -15.03744,-2.90976c-6.30229,0.34385 -10.04087,2.52106 -10.04087,2.52106l0.16737,-4.17373c0,0 3.17578,-1.61241 7.91436,-1.62577c4.90676,-0.01383 8.07019,0.82662 8.07019,0.82662z" data-paper-data="{&quot;index&quot;:null}" fill="#000000" stroke="none" stroke-width="1.5" stroke-linecap="butt"/><path d="M222.80982,98.4204c0,0 3.42117,-1.7201 8.09548,-2.04689c5.17972,-0.36214 7.76687,0.15998 7.76687,0.15998l0.17446,4.14431c0,0 -3.81409,-0.79206 -7.99937,-0.75441c-5.5973,0.05034 -6.68379,1.23881 -10.94819,1.57302c-3.65397,0.28637 -6.739,-0.03743 -6.739,-0.03743l0.00999,-1.23178c0,0 3.59149,0.17865 5.23348,0.08409c1.35524,-0.07806 4.00133,-0.8219 4.00133,-0.8219z" fill="#000000" stroke="none" stroke-width="1.5" stroke-linecap="butt"/><path d="M189.11783,79.46636c0,0 18.40917,-10.50725 25.48925,-14.54438c7.45432,-4.25054 7.7816,-8.52971 18.17179,-10.35162c10.3902,-1.82191 5.20455,10.40737 5.20455,10.40737c0,0 -5.82978,5.47273 -21.76167,10.32657c-4.15207,1.26498 -27.1039,4.16206 -27.1039,4.16206z" fill="#000000" stroke="none" stroke-width="0" stroke-linecap="butt"/><path d="M212.36027,108.86809c-0.2867,-5.7482 0.42656,-14.17322 0.73007,-17.0304c0.01383,-0.13023 2.70984,0.83347 5.71523,-0.15523c3.09417,-1.0179 6.57546,-1.88055 7.49619,-2.12364c0.24567,-0.06486 18.5357,-6.67181 18.5357,-6.67181l-5.22721,6.6927c0,0 27.28229,-9.88137 28.3476,-9.17781c2.73152,1.80393 0.63076,23.19934 0.15743,28.74583c-0.58655,5.65454 -2.80885,9.42189 -3.5136,12.42347c-0.70475,3.00159 3.57676,6.24343 1.49249,16.08999c-1.30072,6.14494 -8.58486,8.67833 -14.60702,14.24146c-6.02216,5.56314 -9.3194,8.98516 -13.27954,8.93879c-3.81109,-0.04462 -8.78333,-5.35826 -13.62715,-10.78387c-5.15787,-5.7774 -8.62425,-8.73199 -9.27048,-15.41627c-0.28204,-2.91728 -0.40525,-5.33838 -0.479,-7.66767c-0.07844,-2.47729 1.8885,-4.45932 1.79033,-7.21546c-0.13922,-3.90844 -4.06198,-6.89959 -4.26102,-10.89005z" fill="#ffffff" stroke="#000000" stroke-width="1.5" stroke-linecap="butt"/><path d="M236.27468,134.80703c-1.02557,-0.1299 -3.10037,-3.67916 -3.08269,-5.79701c0.0158,-1.89489 1.78571,-3.6324 4.2377,-3.32182c2.452,0.31058 4.10713,1.01491 3.47173,4.66173c-0.53924,3.09495 -2.17475,4.76769 -4.62673,4.45712z" fill="#ffffff" stroke="#000000" stroke-width="1.15" stroke-linecap="butt"/><path d="M264.70114,135.40789c-0.1146,3.93336 -13.32057,21.87135 -26.94931,21.47428c-13.62875,-0.39707 -21.91763,-22.46279 -21.80303,-26.39615c0.1146,-3.93336 7.74623,6.35328 21.37498,6.75035c13.62875,0.39707 27.49196,-5.76184 27.37736,-1.82848z" fill="#000000" stroke="#000000" stroke-width="0" stroke-linecap="butt"/><g stroke-linecap="butt"><path d="M259.73796,134.68064c-0.00312,0.10705 -2.48646,3.39264 -4.89421,5.297c-1.70383,1.34761 -3.15902,1.19808 -4.60346,2.30585c-3.63206,2.78552 -4.76819,3.50561 -5.76317,3.89631c-2.14858,0.8437 -4.3514,0.55981 -5.91051,0.51439c-8.38426,-0.24427 -14.57167,-8.48189 -14.51135,-10.55208c0.06031,-2.07019 6.43652,-0.31269 14.82078,-0.06841c8.38426,0.24427 20.92223,-3.46323 20.86192,-1.39304z" fill="#ffffff" stroke="#000000" stroke-width="0.5"/><path d="M252.80702,130.4653c5.32756,-0.42732 13.2994,1.94412 13.28681,2.03036c-0.0133,0.09101 -2.83745,3.16662 -6.97146,4.79637c-5.48779,2.16345 -12.84371,3.03096 -14.7002,3.20814c-2.72776,0.26031 -10.64157,0.48702 -14.89813,-1.02093c-2.79977,-0.99187 -5.51351,-3.04509 -8.13197,-4.67743c-4.49909,-2.80472 -6.69647,-8.12949 -6.69968,-8.1675c-0.00171,-0.0202 1.75349,0.78267 4.28224,1.94864c2.33464,1.07647 5.37597,0.83812 8.25547,2.17161c5.11821,2.37024 9.82735,6.19904 9.87634,6.20514c0,0 1.2348,-1.71409 2.42915,-2.03473c0.6014,-0.16145 10.79737,-4.26122 13.27145,-4.45968z" fill="#fefefe" stroke="#000000" stroke-width="1.4"/><path d="M239.61707,157.85451c-1.20488,-0.0351 -2.69703,-0.2488 -4.29173,-0.60767c-5.05163,-1.13681 -11.13232,-3.73032 -12.37023,-6.71788c-0.17379,-0.41942 3.1041,-4.42255 5.2215,-6.81337c0.1196,-0.13504 3.16894,3.00866 5.92196,4.58091c1.35167,0.77194 2.84092,0.50681 3.46996,0.57056c4.64599,0.47078 8.84153,-3.49502 10.37262,-3.45041c4.9726,0.14488 5.36842,4.45295 2.38539,7.98251c-2.21222,2.61754 -7.02179,4.56278 -10.70948,4.45534z" fill="#ffffff" stroke="none" stroke-width="0"/><path d="M266.12369,132.6247c0.00594,0.06657 0.18344,7.38958 -1.50045,13.57247c-0.62783,2.30524 -1.50793,7.73153 -5.95312,10.78974c-4.92001,3.38486 -13.61958,4.29861 -18.28265,4.29907c-9.07788,0.00088 -18.1124,-3.43811 -19.03962,-4.74343c-0.9742,-1.37146 -2.05722,-6.7961 -3.59512,-12.5641c-2.23371,-8.37768 -4.86711,-17.64842 -4.85885,-17.68086c0.01236,-0.04856 4.98881,6.27382 8.64366,12.36293c2.86391,4.77138 4.47948,9.48334 5.17516,10.31515c0.35045,0.41902 2.89151,2.61095 5.64662,3.27471c2.22503,0.53607 10.60166,2.59016 16.66319,-0.98808c9.50858,-5.61309 17.08802,-18.78495 17.10117,-18.63761z" fill="#ffffff" stroke="#000000" stroke-width="1.9"/></g><path d="M243.62976,105.40448c0,0 -0.39705,3.95118 -0.8898,7.07086c-0.97572,6.17748 -4.56124,27.40477 -4.56124,27.40477l-2.95912,-0.36609c0,0 -0.27224,-4.24057 0.0794,-9.56563c0.47597,-7.20795 1.60143,-16.22055 1.70956,-19.57262c0.10251,-3.17743 -0.17075,-5.78182 -0.17075,-5.78182" fill="#ffffff" stroke="#000000" stroke-width="1.3" stroke-linecap="round"/><g stroke="none" stroke-width="0" stroke-linecap="butt"><g fill="url(#color-1)"><path d="M208.52508,159.87478l-2.2415,-60.41562c0,0 48.58565,-5.85179 59.93621,-5.5211c4.52596,0.13186 9.28442,7.53782 9.28442,7.53782l-1.7568,60.29914z"/><path d="M208.52508,159.87478l-2.2415,-60.41562c0,0 48.58565,-5.85179 59.93621,-5.5211c4.52595,0.13186 9.28442,7.53782 9.28442,7.53782l-1.7568,60.29914z"/><path d="M208.52508,159.87478l-2.2415,-60.41562c0,0 48.58565,-5.85179 59.93621,-5.5211c4.52595,0.13186 9.28442,7.53782 9.28442,7.53782l-1.7568,60.29914z"/><path d="M208.52508,159.87478l-2.2415,-60.41562c0,0 48.58565,-5.85179 59.93621,-5.5211c4.52595,0.13186 9.28442,7.53782 9.28442,7.53782l-1.7568,60.29914z"/><path d="M208.52508,159.87478l-2.2415,-60.41562c0,0 48.58565,-5.85179 59.93621,-5.5211c4.52595,0.13186 9.28442,7.53782 9.28442,7.53782l-1.7568,60.29914z"/><path d="M208.52508,159.87478l-2.2415,-60.41562c0,0 48.58565,-5.85179 59.93621,-5.5211c4.52595,0.13186 9.28442,7.53782 9.28442,7.53782l-1.7568,60.29914z"/><path d="M208.52508,159.87478l-2.2415,-60.41562c0,0 48.58565,-5.85179 59.93621,-5.5211c4.52595,0.13186 9.28442,7.53782 9.28442,7.53782l-1.7568,60.29914z"/><path d="M208.52508,159.87478l-2.2415,-60.41562c0,0 48.58565,-5.85179 59.93621,-5.5211c4.52595,0.13186 9.28442,7.53782 9.28442,7.53782l-1.7568,60.29914z"/></g><path d="M206.11123,100.50739l7.06648,-25.07174l59.35722,0.04418l-0.73583,25.25618z" fill="#000000"/></g></g></g></svg>