<svg version="1.1" xmlns="http://www.w3.org/2000/svg" xmlns:xlink="http://www.w3.org/1999/xlink" width="35.67311" height="35.67311" viewBox="0,0,35.67311,35.67311"><defs><linearGradient x1="240.00001" y1="162.91345" x2="240.00001" y2="197.08656" gradientUnits="userSpaceOnUse" id="color-1"><stop offset="0" stop-color="#9966ff"/><stop offset="1" stop-color="#6712b1"/></linearGradient></defs><g transform="translate(-222.16345,-162.16345)"><g data-paper-data="{&quot;isPaintingLayer&quot;:true}" stroke-width="1.5" stroke-miterlimit="10" stroke-dasharray="" stroke-dashoffset="0" style="mix-blend-mode: normal"><path d="M229.98311,162.91345h20.03379c3.9166,0 7.06966,3.15307 7.06966,7.06966v20.03379c0,3.91659 -3.15306,7.06966 -7.06966,7.06966h-20.03379c-3.91659,0 -7.06966,-3.15307 -7.06966,-7.06966v-20.03379c0,-3.91659 3.15307,-7.06966 7.06966,-7.06966z" fill="url(#color-1)" fill-rule="evenodd" stroke="#000000" stroke-linecap="round" stroke-linejoin="round"/><g fill="#000000" fill-rule="nonzero" stroke="#ffffff" stroke-linejoin="miter"><path d="M251.37556,184.88501c-2.88271,6.71286 -10.31261,9.96761 -16.59515,7.26969c-6.28255,-2.69791 -9.03867,-10.32687 -6.15596,-17.03971c2.88271,-6.71285 10.31261,-9.9676 16.59516,-7.26969c6.28254,2.69791 9.03865,10.32685 6.15595,17.03971z" stroke-linecap="butt"/><path d="M238.0592,178.67076c-0.94895,1.67163 -3.15152,2.21311 -4.9196,1.20943c-1.76808,-1.0037 -2.43213,-3.17247 -1.48318,-4.84411c0.94894,-1.67163 3.15152,-2.21311 4.9196,-1.20943c1.76808,1.0037 2.43213,3.17247 1.48318,4.84411z" stroke-linecap="butt"/><path d="M248.60567,184.23652c-0.94895,1.67164 -3.15152,2.21311 -4.9196,1.20941c-1.76808,-1.0037 -2.43213,-3.17247 -1.48318,-4.84411c0.94895,-1.67163 3.15152,-2.21313 4.9196,-1.20943c1.76808,1.0037 2.43213,3.17248 1.48318,4.84411z" stroke-linecap="butt"/><path d="M229.32077,182.83933l15.94676,7.42924" stroke-linecap="round"/></g></g></g></svg>