<svg version="1.1" xmlns="http://www.w3.org/2000/svg" xmlns:xlink="http://www.w3.org/1999/xlink" width="35.67311" height="35.67311" viewBox="0,0,35.67311,35.67311"><defs><linearGradient x1="240.00001" y1="162.91345" x2="240.00001" y2="197.08656" gradientUnits="userSpaceOnUse" id="color-1"><stop offset="0" stop-color="#9966ff"/><stop offset="1" stop-color="#6712b1"/></linearGradient></defs><g transform="translate(-222.16345,-162.16345)"><g data-paper-data="{&quot;isPaintingLayer&quot;:true}" stroke-width="1.5" stroke-miterlimit="10" stroke-dasharray="" stroke-dashoffset="0" style="mix-blend-mode: normal"><path d="M229.98311,162.91345h20.03379c3.9166,0 7.06966,3.15307 7.06966,7.06966v20.03379c0,3.91659 -3.15306,7.06966 -7.06966,7.06966h-20.03379c-3.91659,0 -7.06966,-3.15307 -7.06966,-7.06966v-20.03379c0,-3.91659 3.15307,-7.06966 7.06966,-7.06966z" fill="url(#color-1)" fill-rule="evenodd" stroke="#000000" stroke-linecap="round" stroke-linejoin="round"/><path d="M225.85917,174.68943c1.38369,-2.9791 5.59031,-4.31058 9.06376,-2.97186c3.47344,1.33872 4.70993,4.77105 3.32624,7.75016c-1.38369,2.9791 -5.08663,4.39554 -8.56008,3.05683c-3.47344,-1.33871 -5.21361,-4.85602 -3.82992,-7.83513z" fill="#000000" fill-rule="nonzero" stroke="#ffffff" stroke-linecap="butt" stroke-linejoin="miter"/><path d="M228.71326,175.82791c0.78023,-1.67985 2.8583,-2.48448 4.64151,-1.7972c1.78322,0.68728 2.59628,2.6062 1.81605,4.28604c-0.78023,1.67985 -2.85829,2.48448 -4.64151,1.79722c-1.78321,-0.68728 -2.59628,-2.6062 -1.81605,-4.28605z" fill="#ffffff" fill-rule="nonzero" stroke="none" stroke-linecap="butt" stroke-linejoin="miter"/><path d="M241.74273,180.47654c1.46892,-2.94496 5.31822,-4.35571 8.77707,-3.07796c3.45885,1.27774 4.94796,4.65755 3.61026,7.65401c-1.3377,2.99646 -5.00769,4.62209 -8.80849,3.26857c-3.61525,-1.28744 -5.11292,-4.76904 -3.57885,-7.84461z" fill="#000000" fill-rule="nonzero" stroke="#ffffff" stroke-linecap="butt" stroke-linejoin="miter"/></g></g></svg>