<svg version="1.1" xmlns="http://www.w3.org/2000/svg" xmlns:xlink="http://www.w3.org/1999/xlink" width="112.13467" height="278.33712" viewBox="0,0,112.13467,278.33712"><g transform="translate(-183.79002,-53.56817)"><g data-paper-data="{&quot;isPaintingLayer&quot;:true}" fill-rule="nonzero" stroke-linejoin="miter" stroke-miterlimit="10" stroke-dasharray="" stroke-dashoffset="0" style="mix-blend-mode: normal"><path d="M200.75203,186.37971c-0.05451,-8.15261 8.18688,-36.76129 40.20201,-36.9211c31.60235,-0.15775 39.85672,29.48704 39.84884,36.89673c-0.00373,2.25092 14.36885,102.2299 14.11857,119.39687c-0.60106,41.22691 -16.41072,19.60738 -18.41755,18.55939c-1.02297,-0.53421 -0.9913,-35.76742 -2.18176,-70.06317c-1.13696,-32.75433 -3.52046,-64.65358 -3.52046,-64.65358c0,0 0.07549,-3.0993 -2.81625,-3.15415c-3.43441,-0.06514 -2.94538,3.11562 -2.94538,3.11562l0.20548,114.86995l-48.21366,0.07222l-0.30539,-115.23309c0,0 0.27949,-2.919 -2.8856,-2.93443c-3.11083,-0.01515 -2.81569,2.90899 -2.81569,2.90899c0,0 -0.61681,39.35193 -1.31447,75.00886c-0.36674,18.74412 0.32967,35.01984 -1.26871,47.15498c-0.76459,5.80487 -7.04215,7.75529 -7.04215,7.75529c0,0 -3.32686,-7.49326 -4.61199,-2.64074c-0.63184,2.38577 -2.42306,1.55566 -2.42306,1.55566c0,0 -9.31458,0.73769 -9.5144,0.58025c-1.20222,-0.94725 15.94183,-126.25879 15.90161,-132.27454z" fill="#447a72" stroke="#000000" stroke-width="2" stroke-linecap="butt"/><path d="M238.34547,208.41176c0,5.56613 -3.8759,10.07835 -8.65705,10.07835c-4.78116,0 -8.65706,-4.51223 -8.65706,-10.07835c0,-5.56612 3.8759,-10.07836 8.65706,-10.07836c4.78116,0 8.65705,4.51224 8.65705,10.07836z" fill="#000000" stroke="#000000" stroke-width="1.15" stroke-linecap="butt"/><path d="M258.84547,217.74011c0,4.09062 -2.84845,7.40672 -6.36218,7.40672c-3.51373,0 -6.36218,-3.3161 -6.36218,-7.40672c0,-4.09062 2.84845,-7.40672 6.36218,-7.40672c3.51373,0 6.36218,3.3161 6.36218,7.40672z" fill="#000000" stroke="#000000" stroke-width="1.15" stroke-linecap="butt"/><path d="M261.44802,189.72766c0,6.75312 -4.70245,12.22761 -10.50321,12.22761c-5.80076,0 -10.5032,-5.47449 -10.5032,-12.22761c0,-6.75312 4.70245,-12.22761 10.5032,-12.22761c5.80075,0 10.50321,5.47449 10.50321,12.22761z" fill="#000000" stroke="#000000" stroke-width="1.15" stroke-linecap="butt"/><path d="M249.34547,243.13562c0,9.55577 -6.65403,17.30223 -14.86218,17.30223c-8.20816,0 -14.86218,-7.74647 -14.86218,-17.30223c0,-9.55577 6.65403,-17.30224 14.86218,-17.30224c8.20816,0 14.86218,7.74647 14.86218,17.30224z" fill="#000000" stroke="#000000" stroke-width="1.15" stroke-linecap="butt"/><path d="M240.46083,287.67292c0,6.53881 -4.55322,11.83955 -10.16988,11.83955c-5.61666,0 -10.16987,-5.30074 -10.16987,-11.83955c0,-6.53881 4.55321,-11.83955 10.16987,-11.83955c5.61666,0 10.16988,5.30074 10.16988,11.83955z" fill="#000000" stroke="#000000" stroke-width="1.15" stroke-linecap="butt"/><path d="M260.44801,275.17292c0,4.60581 -3.2072,8.33955 -7.16346,8.33955c-3.95627,0 -7.16346,-3.73374 -7.16346,-8.33955c0,-4.60581 3.2072,-8.33955 7.16346,-8.33955c3.95626,0 7.16346,3.73374 7.16346,8.33955z" fill="#000000" stroke="#000000" stroke-width="1.15" stroke-linecap="butt"/><path d="M261.84547,246.20277c0,2.96544 -2.06495,5.36941 -4.61219,5.36941c-2.54724,0 -4.61218,-2.40396 -4.61218,-5.3694c0,-2.96544 2.06494,-5.3694 4.61218,-5.3694c2.54724,0 4.61219,2.40396 4.61219,5.36941z" fill="#000000" stroke="#000000" stroke-width="1.15" stroke-linecap="butt"/><path d="M235.35829,183.20277c0,4.89844 -3.41097,8.86941 -7.61859,8.86941c-4.20763,0 -7.61859,-3.97097 -7.61859,-8.8694c0,-4.89844 3.41096,-8.8694 7.61859,-8.8694c4.20763,0 7.61859,3.97097 7.61859,8.86941z" fill="#000000" stroke="#000000" stroke-width="1.15" stroke-linecap="butt"/><path d="M263.94802,169.45153c0,2.73463 -1.90423,4.95149 -4.25321,4.95149c-2.34898,0 -4.2532,-2.21686 -4.2532,-4.95149c0,-2.73463 1.90422,-4.95149 4.2532,-4.95149c2.34898,0 4.25321,2.21686 4.25321,4.95149z" fill="#000000" stroke="#000000" stroke-width="1.15" stroke-linecap="butt"/><path d="M242.51214,170.45153c0,1.63006 -1.13508,2.95149 -2.53526,2.95149c-1.40018,0 -2.53526,-1.32144 -2.53526,-2.95149c0,-1.63006 1.13507,-2.95149 2.53526,-2.95149c1.40018,0 2.53526,1.32143 2.53526,2.95149z" fill="#000000" stroke="#000000" stroke-width="1.15" stroke-linecap="butt"/><path d="M225.94803,164.95153c0,2.73463 -1.90422,4.95149 -4.25321,4.95149c-2.34898,0 -4.2532,-2.21686 -4.2532,-4.95149c0,-2.73463 1.90422,-4.95149 4.2532,-4.95149c2.34898,0 4.25321,2.21686 4.25321,4.95149z" fill="#000000" stroke="#000000" stroke-width="1.15" stroke-linecap="butt"/><g><path d="M270.99805,91.98389c0,0 -1.07089,0.3849 -2.30559,0.5838c-1.94789,0.31379 -3.42366,-0.02377 -3.42366,-0.02377c0,0 1.38263,5.27019 4.51631,10.20169c3.31901,5.22315 9.30163,9.00895 9.30163,9.00895c0,0 -1.76027,0.43355 -4.04602,0.39144c-2.1907,-0.04032 -4.48858,-0.62187 -4.48858,-0.62187c0,0 1.21291,1.30904 3.33992,2.69349c2.38798,1.5543 6.51569,3.38797 6.51569,3.38797c0,0 -2.47454,1.34405 -6.84561,1.22997c-3.48832,-0.09103 -6.19538,-1.41387 -6.19538,-1.41387c0,0 0.53589,4.59507 -0.39541,12.65839c-0.78137,6.76518 -3.83339,10.85135 -3.83339,10.85135l-0.71182,-2.56028c0,0 -7.16433,12.35328 -22.99305,16.27892c-16.81227,4.04134 -26.1749,-5.10095 -26.1749,-5.10095l0.74555,3.62957c0,0 -2.64296,-1.21325 -4.00694,-2.06235c-1.36397,-0.84911 -2.85589,-2.75986 -2.85589,-2.75986l-0.59618,2.54738c0,0 -7.33404,-6.25176 -10.99389,-15.13631c-4.06737,-9.67903 -3.38918,-20.45762 -3.38918,-20.45762c0,0 -2.02876,2.66418 -2.99421,3.92199c-1.03513,1.34859 -3.26799,3.97316 -3.26799,3.97316c0,0 0.82891,-8.42315 2.07469,-18.34027c0.90854,-7.2327 -12.74461,-41.29367 30.94823,-50.46823c35.52075,-6.78331 43.57575,30.25685 44.41562,32.39313c0.32022,0.81451 7.66006,5.19418 7.66006,5.19418z" data-paper-data="{&quot;index&quot;:null}" fill="#000000" stroke="none" stroke-width="1.5" stroke-linecap="butt"/><path d="M204.56174,123.08664c-2.20672,-6.97528 -3.54164,-16.78824 -3.54164,-16.78824c0,0 3.31346,-0.8092 12.847,-6.20069c7.32425,-4.14209 17.87898,-13.87593 17.87898,-13.87593c0,0 -1.42685,3.41469 -2.31437,5.11368c-0.94353,1.80623 -2.86123,5.34579 -2.86123,5.34579c0,0 7.26014,-3.39198 13.23048,-7.9164c7.55047,-5.3767 8.95488,-8.28562 11.58134,-7.3945c3.09988,1.05174 6.2308,22.35343 7.18043,27.83847c0.86753,5.61829 -0.32603,9.82626 -0.24603,12.90843c0.08,3.08218 0.98464,6.07095 1.46726,16.1241c0.30119,6.27387 -2.04231,9.63324 -6.45565,16.54245c-4.41334,6.90922 -6.7343,11.05593 -10.57658,12.016c-3.69766,0.92394 -9.85554,-2.95403 -15.9176,-6.97289c-6.45509,-4.27945 -10.55777,-6.2577 -12.87904,-12.55919c-2.09054,-5.67517 -2.99072,-9.47827 -4.53197,-14.60252c-1.12646,-3.74519 -3.6562,-5.76921 -4.86133,-9.57854z" fill="#447a72" stroke="#000000" stroke-width="1.5" stroke-linecap="butt"/><path d="M258.42895,105.94404c0,0 2.33008,-1.36362 2.61534,1.73513c0.5114,5.55497 -2.3015,9.20665 -2.3015,9.20665" data-paper-data="{&quot;index&quot;:null}" fill="none" stroke="#000000" stroke-width="0.25" stroke-linecap="round"/><path d="M233.23968,117.43471c1.90884,8.2476 -2.28685,16.26281 -9.37134,17.90246c-7.08449,1.63964 -14.37501,-3.71717 -16.28386,-11.96478c-1.90884,-8.2476 2.28685,-16.26281 9.37134,-17.90246c7.08449,-1.63964 14.37501,3.71717 16.28386,11.96478z" fill="#8fffee" stroke="#8fffee" stroke-width="1.15" stroke-linecap="butt"/><path d="M251.13031,145.95094c1.30477,5.63759 -1.56317,11.11635 -6.40572,12.23711c-4.84255,1.12077 -9.82596,-2.54086 -11.13074,-8.17845c-1.30477,-5.63759 1.56317,-11.11635 6.40572,-12.23711c4.84255,-1.12077 9.82596,2.54086 11.13074,8.17845z" fill="#000000" stroke="#000000" stroke-width="1.15" stroke-linecap="butt"/><path d="M254.66141,119.81505c1.30477,5.63759 -1.56317,11.11635 -6.40572,12.23711c-4.84255,1.12077 -9.82596,-2.54084 -11.13074,-8.17845c-1.30477,-5.63759 1.56316,-11.11636 6.40572,-12.23712c4.84257,-1.12077 9.82596,2.54086 11.13073,8.17846z" fill="#000000" stroke="#000000" stroke-width="1.15" stroke-linecap="butt"/><path d="M228.10895,145.52897c0.7732,3.3408 -0.92631,6.58746 -3.79598,7.25162c-2.86966,0.66416 -5.8228,-1.50569 -6.59599,-4.84647c-0.7732,-3.3408 0.92632,-6.58748 3.79598,-7.25164c2.86966,-0.66416 5.82278,1.5057 6.59599,4.8465z" fill="#000000" stroke="#000000" stroke-width="1.15" stroke-linecap="butt"/><path d="M244.24573,101.42128c0.7732,3.3408 -0.92632,6.58748 -3.79598,7.25164c-2.86966,0.66416 -5.8228,-1.50569 -6.596,-4.8465c-0.7732,-3.3408 0.92632,-6.58748 3.79598,-7.25164c2.86966,-0.66416 5.82278,1.5057 6.59599,4.8465z" fill="#000000" stroke="#000000" stroke-width="1.15" stroke-linecap="butt"/></g></g></g></svg>