<svg version="1.1" xmlns="http://www.w3.org/2000/svg" xmlns:xlink="http://www.w3.org/1999/xlink" width="113.89034" height="257.99682" viewBox="0,0,113.89034,257.99682"><defs><linearGradient x1="231.42968" y1="96.5509" x2="240.18792" y2="163.56996" gradientUnits="userSpaceOnUse" id="color-1"><stop offset="0" stop-color="#000000"/><stop offset="1" stop-color="#000000" stop-opacity="0"/></linearGradient></defs><g transform="translate(-178.03267,-47.50321)"><g data-paper-data="{&quot;isPaintingLayer&quot;:true}" fill-rule="nonzero" stroke-linejoin="miter" stroke-miterlimit="10" stroke-dasharray="" stroke-dashoffset="0" style="mix-blend-mode: normal"><g fill="#000000" stroke="none" stroke-linecap="butt"><path d="M285.48059,123.05699c0,0 -1.20778,0.2925 -2.57137,0.38535c-2.15123,0.14649 -3.71307,-0.31665 -3.71307,-0.31665c0,0 0.87777,5.37781 3.69607,10.56746c2.98499,5.49656 9.03079,9.78658 9.03079,9.78658c0,0 -1.96175,0.28205 -4.43762,0.04447c-2.37292,-0.22769 -4.7982,-1.00466 -4.7982,-1.00466c0,0 -0.97559,5.00811 1.16934,6.57175c2.40809,1.75548 7.748,13.99086 7.748,13.99086c0,0 -4.32643,-8.3956 -9.05711,-8.88344c-3.7753,-0.38931 -4.01456,-6.06607 -4.01456,-6.06607c0,0 0.03853,4.63163 -1.92526,12.59894c-1.64765,6.68464 -5.44311,10.5014 -5.44311,10.5014l-0.46997,-2.61601c0,0 -9.23585,11.71529 -26.8796,14.27866c-18.72492,2.59466 -27.80616,-7.3302 -27.80616,-7.3302l0.38021,3.68602c0,0 -2.72516,-1.43693 -4.10519,-2.40102c-1.38004,-0.9641 -2.77346,-2.99863 -2.77346,-2.99863c0,0 -1.8821,-12.19258 -4.94473,-11.60227c-3.27228,0.63072 -14.1017,15.2734 -14.1017,15.2734c0,0 0.07404,-10.90157 2.95865,-19.18081c3.1696,-9.09725 3.73576,-18.75166 3.73576,-18.75166c0,0 -2.51681,2.48521 -3.71332,3.65787c-1.28287,1.2573 -4.0165,3.68552 -4.0165,3.68552c0,0 1.8952,-8.33517 4.41939,-18.12565c1.84093,-7.14033 -8.95191,-42.30056 39.55462,-47.71814c39.3543,-3.73037 43.71906,33.92406 44.37811,36.12787c0.25129,0.84027 7.69997,5.83906 7.69997,5.83906z" data-paper-data="{&quot;index&quot;:null}" stroke-width="1.5"/><path d="M186.70412,110.99145c0,0 5.69305,-6.71621 5.71537,-7.59222c0.02816,-1.10534 -1.21631,-10.36133 1.68187,-20.37559c0.82252,-2.84215 4.49107,-6.90547 4.18589,-10.37032c-0.5675,-6.44299 -5.93941,-11.98436 -5.93941,-11.98436c0,0 27.54297,-2.60557 32.38618,-3.41998c3.0882,-0.46455 -10.66573,-9.74577 -10.66573,-9.74577c0,0 27.54285,7.06359 30.45874,7.47707c28.05759,3.97863 26.22618,32.96719 29.20704,38.41426c4.83168,8.82919 8.70816,16.4101 8.70816,16.4101c0,0 -3.16665,-1.65714 -4.68247,-2.5487c-1.41379,-0.83153 -4.39234,-2.59859 -4.39234,-2.59859c0,0 4.58104,9.83743 4.05579,20.34092c-0.40906,9.61505 -5.41754,18.07988 -5.41754,18.07988l-1.51507,-2.16931c0,0 -0.78714,2.31949 -1.83232,3.60053c-1.04517,1.28103 -3.22706,3.35921 -3.22706,3.35921l-0.57649,-3.66037c0,0 -5.97274,11.89217 -24.11582,14.11551c-17.12544,1.98035 -28.71168,-7.01386 -28.71168,-7.01386l0.22223,2.64836c0,0 -4.50922,-2.73148 -7.73736,-8.77894c-3.84757,-7.20787 -4.98212,-11.69625 -4.98212,-11.69625c0,0 -2.20576,2.20357 -5.63313,3.53414c-4.29472,1.66731 -7.23679,1.29391 -7.23679,1.29391c0,0 3.4298,-3.18848 5.23506,-5.49459c1.60798,-2.05408 2.33653,-3.71128 2.33653,-3.71128c0,0 -2.06861,1.36425 -4.22718,2.18413c-2.25219,0.85545 -4.15556,1.0785 -4.15556,1.0785c0,0 4.56201,-5.6763 5.96058,-11.74569c1.32047,-5.7305 0.78108,-11.15255 0.78108,-11.15255c0,0 -1.34155,0.84257 -3.38764,1.24459c-1.29695,0.25485 -2.49882,0.27724 -2.49882,0.27724z" stroke-width="1.5"/><path d="M214.42362,219.53393c0,0 0.4758,-4.87175 -2.15088,-9.99631c-2.79729,-5.45743 -8.7378,-11.29287 -9.78365,-14.93227c-1.27177,-4.42555 0.93817,-13.3369 0.93817,-13.3369c0,0 2.15432,-10.79889 0.5456,-21.51546c-1.7529,-11.67711 -12.5226,-19.49465 0.50387,-22.58418c2.80268,-0.66472 7.13433,5.86001 11.52937,10.14266c4.60406,4.48634 9.21143,6.75657 9.21143,6.75657c0,0 -3.06802,1.31677 -1.34936,6.37837c6.00863,17.696 17.9938,40.48888 17.9938,40.48888c0,0 -13.2391,-15.69978 -11.66882,-7.24002c1.75258,9.44188 11.78715,34.66811 11.78715,34.66811c0,0 -14.24762,-15.72655 -20.96301,-24.84887c-2.26942,-3.08282 -4.41994,-9.33211 -4.41994,-9.33211z" stroke-width="0"/><path d="M275.45173,184.81033c0,0 -0.47237,6.59204 -1.87337,10.15454c-4.14566,10.54168 1.17476,36.51138 1.17476,36.51138c0,0 -11.83316,-34.06771 -12.56578,-43.64289c-0.65642,-8.57918 -4.08298,17.36653 -4.08298,17.36653c0,0 0.39198,-32.47838 1.65139,-51.12419c0.36022,-5.33326 -2.94314,-5.8174 -2.94314,-5.8174c0,0 3.86925,-3.378 7.1658,-8.89681c3.1469,-5.26825 5.65639,-12.68699 8.53576,-12.76482c13.38294,-0.36173 4.98382,9.96084 6.29055,21.69627c1.19924,10.77008 6.05626,20.6527 6.05626,20.6527c0,0 4.42573,8.04419 4.33394,12.64793c-0.07549,3.78595 -4.31691,10.95197 -5.61783,16.94497c-1.22157,5.62748 -2.18029,20.64737 -2.18029,20.64737z" data-paper-data="{&quot;index&quot;:null}" stroke-width="0"/></g><g><path d="M201.54543,304.39162c0,0 -0.63536,-94.38387 -0.79335,-118.01201c-0.05451,-8.15261 8.18688,-36.76129 40.20201,-36.9211c31.60235,-0.15775 39.85672,29.48704 39.84884,36.89673c-0.07659,46.24274 0.65429,117.98648 0.65429,117.98648l-10.49667,0.09614l-0.15882,-114.84311c0,0 0.07549,-3.0993 -2.81625,-3.15415c-3.43441,-0.06514 -2.94538,3.11562 -2.94538,3.11562c0,0 -4.95003,28.26622 -4.9205,44.77862c0.03718,20.78547 5.12598,70.09133 5.12598,70.09133l-48.21366,0.07222c0,0 4.21363,-44.83321 4.15975,-65.16568c-0.04695,-17.71739 -4.46514,-50.06741 -4.46514,-50.06741c0,0 0.27949,-2.919 -2.8856,-2.93443c-3.11083,-0.01515 -2.81569,2.90899 -2.81569,2.90899l0.35311,115.0668z" fill="#ffffff" stroke="#000000" stroke-width="2" stroke-linecap="butt"/><path d="M256.14252,200.33382c-0.57113,0 -1.03411,-0.46299 -1.03411,-1.03411c0,-0.57113 0.46299,-1.03413 1.03411,-1.03413c0.57113,0 1.03411,0.463 1.03411,1.03413c0,0.57113 -0.46299,1.03411 -1.03411,1.03411z" fill="#000000" stroke="none" stroke-width="1.5" stroke-linecap="butt"/><path d="M250.88273,204.56943c-4.4635,-0.31439 -6.55245,-1.79392 -6.16985,-2.58011c0.11788,-0.24224 2.84645,1.06355 6.97038,1.3048c6.40897,0.37493 8.51033,-0.63173 8.51033,-0.63173v1.34616c0,0 -2.4135,1.04672 -9.31086,0.56089z" fill="#000000" stroke="#000000" stroke-width="0" stroke-linecap="butt"/><path d="M223.06997,199.29973c0,-0.57113 0.46299,-1.03413 1.03411,-1.03413c0.57113,0 1.03413,0.463 1.03413,1.03413c0,0.57113 -0.463,1.03411 -1.03413,1.03411c-0.57113,0 -1.03411,-0.46299 -1.03411,-1.03411z" fill="#000000" stroke="none" stroke-width="1.5" stroke-linecap="butt"/><path d="M229.36397,204.56943c-6.89736,0.48585 -9.31086,-0.56089 -9.31086,-0.56089v-1.34616c0,0 2.10136,1.00666 8.51033,0.63173c4.12393,-0.24126 6.85251,-1.54704 6.97039,-1.3048c0.3826,0.78618 -1.70634,2.26571 -6.16985,2.58011z" fill="#000000" stroke="#000000" stroke-width="0" stroke-linecap="butt"/><path d="M240.64443,261.12113c-0.81895,0 -1.48284,-0.66389 -1.48284,-1.48284c0,-0.81895 0.66389,-1.48284 1.48284,-1.48284c0.81895,0 1.48284,0.66389 1.48284,1.48284c0,0.81895 -0.66389,1.48284 -1.48284,1.48284z" data-paper-data="{&quot;index&quot;:null}" fill="#000000" stroke="none" stroke-width="1.5" stroke-linecap="butt"/><g fill="#ffffff" stroke="#000000" stroke-width="2" stroke-linecap="round"><path d="M240.52126,202.18259c0.14273,5.60368 -2.57383,7.93839 -3.89249,9.02343c-5.12117,4.21387 -15.18067,3.25512 -17.60285,2.04502c-4.96567,-2.48081 -8.40378,-10.51264 -8.69751,-13.75788c-0.29521,-3.2616 0.55028,-8.14011 2.54293,-10.94893c2.55122,-3.59616 5.94201,-5.23391 5.94201,-5.23391"/><path d="M264.10866,183.81032c0,0 3.568,1.68802 5.59914,5.45989c1.4764,2.74171 1.66914,7.09237 1.38579,10.22295c-0.29373,3.24525 -3.73185,11.27706 -8.69752,13.75787c-2.42218,1.2101 -12.48168,2.16885 -17.60284,-2.04502c-1.31866,-1.08504 -4.49677,-3.65052 -4.35404,-9.2542" data-paper-data="{&quot;index&quot;:null}"/></g></g><g fill="#ff0000" stroke="none" stroke-width="0" stroke-linecap="butt"><path d="M242.78933,225.87056c-5.33481,19.80043 -12.8084,55.08219 -15.54163,53.35977c-2.73323,-1.72242 0.30891,-39.79677 5.64372,-59.59721c5.33481,-19.80043 6.19209,-14.11615 8.92532,-12.39373c2.73323,1.72242 6.3074,-1.16927 0.97259,18.63117z"/><path d="M245.69895,224.8722c-0.89199,21.37201 -1.1153,60.80478 -4.06547,60.5168c-2.95017,-0.28799 -7.51003,-40.1877 -6.61805,-61.5597c0.89199,-21.37201 2.89805,-16.4104 5.84822,-16.12241c2.95017,0.28799 5.72728,-4.20669 4.8353,17.16532z"/><path d="M238.13103,226.07155c-9.77267,15.33764 -18.13852,45.16132 -20.25572,42.00607c-1.46252,-2.1796 -5.18318,-53.57253 -2.16132,-58.31516c9.77267,-15.33764 23.9341,-4.69105 26.0513,-1.5358c2.1172,3.15525 6.13841,2.50726 -3.63426,17.8449z"/><path d="M248.72791,219.65453c5.38578,19.76813 7.4285,58.30341 4.69972,60.04229c-2.72877,1.73888 -9.19571,-33.97713 -14.58149,-53.74525c-5.38578,-19.76813 -2.15093,-16.67705 0.57785,-18.41593c2.72878,-1.73888 3.91814,-7.64923 9.30392,12.1189z"/><path d="M267.13781,207.88454c3.48796,4.65245 -1.83417,53.89524 -3.13503,56.17631c-1.94308,3.40722 -11.34842,-26.02739 -21.90149,-40.1037c-10.55307,-14.07631 -6.75764,-13.49577 -4.81456,-16.90299c1.94308,-3.40722 19.29801,-13.24594 29.85108,0.83038z"/></g><g stroke="none" stroke-width="0" stroke-linecap="butt"><g><g fill="#da7f7f"><path d="M202.75748,220.78121c-0.91601,4.78728 -2.97391,8.19854 -4.59646,7.61927c-1.62255,-0.57927 -2.19532,-4.92971 -1.27932,-9.71699c0.91601,-4.78728 2.97392,-8.19854 4.59646,-7.61927c1.62255,0.57927 2.19532,4.92971 1.27931,9.71699z"/><path d="M211.03612,211.06421c1.62255,-0.57927 3.68045,2.832 4.59645,7.61927c0.91601,4.78727 0.34323,9.13772 -1.27931,9.71699c-1.62255,0.57927 -3.68045,-2.832 -4.59646,-7.61927c-0.91601,-4.78727 -0.34323,-9.13772 1.27932,-9.71699z" data-paper-data="{&quot;index&quot;:null}"/><path d="M207.46895,221.69171c-0.38297,4.86598 -2.05167,8.50305 -3.72716,8.1236c-1.67549,-0.37945 -2.72329,-4.6317 -2.34032,-9.49768c0.38297,-4.86598 2.05168,-8.50305 3.72717,-8.1236c1.67549,0.37945 2.72328,4.6317 2.34031,9.49768z"/><path d="M208.11445,213.21192c1.67549,-0.37944 3.34419,3.25761 3.72716,8.12359c0.38297,4.86598 -0.66482,9.11824 -2.34031,9.49768c-1.67549,0.37944 -3.34419,-3.25762 -3.72717,-8.1236c-0.38297,-4.86598 0.66483,-9.11823 2.34032,-9.49767z" data-paper-data="{&quot;index&quot;:null}"/></g><path d="M197.47144,215.23541c0,0 1.57143,-4.9375 1.57143,-8.21173c0,-4.4673 0,-15.84359 0,-15.84359h14.75c0,0 0,12.09897 0,16.59181c0,3.07315 1.42857,7.61315 1.42857,7.61315z" fill="#a10000"/></g><g><g fill="#da7f7f"><path d="M271.61462,222.27764c-0.916,4.78728 -2.97391,8.19854 -4.59646,7.61927c-1.62255,-0.57927 -2.19532,-4.9297 -1.27932,-9.71698c0.916,-4.78728 2.97391,-8.19855 4.59646,-7.61928c1.62255,0.57927 2.19532,4.92971 1.27931,9.71699z"/><path d="M279.89324,212.56066c1.62255,-0.57927 3.68045,2.832 4.59645,7.61928c0.916,4.78727 0.34323,9.13771 -1.27931,9.71698c-1.62255,0.57927 -3.68045,-2.832 -4.59646,-7.61928c-0.916,-4.78727 -0.34323,-9.13771 1.27932,-9.71698z" data-paper-data="{&quot;index&quot;:null}"/><path d="M276.32607,223.18817c-0.38297,4.86598 -2.05167,8.50304 -3.72717,8.12359c-1.67549,-0.37945 -2.72328,-4.63169 -2.34031,-9.49767c0.38297,-4.86598 2.05167,-8.50305 3.72717,-8.1236c1.67549,0.37945 2.72328,4.6317 2.34031,9.49768z"/><path d="M276.9715,214.70834c1.67549,-0.37944 3.34419,3.25761 3.72717,8.12359c0.38297,4.86598 -0.66483,9.11824 -2.34032,9.49768c-1.67549,0.37944 -3.34419,-3.25761 -3.72717,-8.12359c-0.38297,-4.86598 0.66483,-9.11824 2.34032,-9.49768z" data-paper-data="{&quot;index&quot;:null}"/></g><path d="M266.32849,216.73186c0,0 1.57143,-4.9375 1.57143,-8.21173c0,-4.4673 0,-15.84359 0,-15.84359h14.75c0,0 0,12.09897 0,16.59181c0,3.07315 1.42857,7.61316 1.42857,7.61316z" fill="#a10000"/></g><path d="M199.15358,191.35849c0,0 1.82462,-20.19547 8.16591,-26.67681c3.91163,-3.99802 9.99521,-9.81164 17.97915,-13.16665c6.84618,-2.87689 15.34066,-1.51823 15.34066,-1.51823c0,0 18.7832,-0.65754 27.84739,8.105c9.79289,9.467 14.03833,34.78306 14.03833,34.78306c0,0 -27.153,11.32479 -40.91793,11.07278c-14.02084,-0.2567 -42.45349,-12.59914 -42.45349,-12.59914z" fill="#a10000"/></g><path d="M275.96674,158.16445c0,0 -3.13344,41.76527 -35.50957,43.63031c-27.40913,1.57891 -36.42376,-43.09698 -36.42376,-43.09698" fill="none" stroke="#000000" stroke-width="3" stroke-linecap="round"/><g stroke="#000000" stroke-width="0" stroke-linecap="butt"><path d="M274.7333,191.62506c0,5.5819 1.16156,15.61828 -6.08097,20.14541c-5.92482,3.70346 -47.78418,5.0292 -53.35521,2.04346c-8.51944,-4.5659 -7.06381,-15.80301 -7.06381,-21.93887c0,-5.75268 4.52516,-12.95155 12.50273,-12.91087c2.09459,0.01068 8.53711,-0.38952 11.4975,1.04964c5.65479,2.74901 9.62476,7.73623 9.62476,7.73623c0,0 3.67869,-4.49312 8.96296,-7.08089c4.01934,-1.96832 9.4944,-2.20212 11.91276,-2.20589c7.13139,-0.01112 11.99928,7.47635 11.99928,13.16178z" fill="#cc1414"/><path d="M269.7333,180.95841c4.5951,2.30887 5.92555,12.23618 4.79782,19.9632c-0.80495,5.51542 -2.86231,10.29668 -5.8788,12.18221c-5.92482,3.70346 -48.03418,3.6542 -53.60521,0.66846c-0.21961,-0.1177 17.5227,-6.02555 31.64158,-14.47409c13.23313,-7.91852 22.8882,-18.41836 23.04461,-18.33978z" fill="#a10000"/></g><path d="M253.5309,95.06565c0,0 1.55266,0.11788 4.36379,0.54945c2.56765,0.39421 4.63783,1.15278 4.63783,1.15278l0.34511,1.1352c0,0 -7.59409,-2.16417 -15.3085,-0.49105c-6.16825,1.33781 -9.51475,4.07973 -9.51475,4.07973l-0.49587,-4.14755c0,0 2.88027,-2.0951 7.55691,-2.85891c4.84263,-0.7909 8.09925,-0.46215 8.09925,-0.46215z" data-paper-data="{&quot;index&quot;:null}" fill="#000000" stroke="none" stroke-width="1.5" stroke-linecap="butt"/><path d="M214.30165,104.32334c0,0 3.10551,-2.2403 7.66904,-3.30339c5.05695,-1.17804 7.69415,-1.07233 7.69415,-1.07233l0.82873,4.06435c0,0 -3.8914,-0.1779 -8.01788,0.52223c-5.51866,0.93632 -6.40317,2.2819 -10.56081,3.28739c-3.56248,0.86156 -6.65985,1.03053 -6.65985,1.03053l-0.18526,-1.21781c0,0 3.57444,-0.39251 5.18073,-0.74597c1.32576,-0.29174 3.82062,-1.44535 3.82062,-1.44535z" fill="#000000" stroke="none" stroke-width="1.5" stroke-linecap="butt"/><path d="M178.03267,90.94551c0,0 16.51237,-13.29065 22.86357,-18.39832c6.6869,-5.37764 6.33222,-9.65465 16.30262,-13.09937c9.97042,-3.44473 6.7874,9.45156 6.7874,9.45156c0,0 -4.88929,6.32708 -19.85117,13.64331c-3.89927,1.9067 -26.10241,8.40284 -26.10241,8.40284z" fill="#000000" stroke="none" stroke-width="0" stroke-linecap="butt"/><path d="M205.63898,116.29437c-1.19361,-5.63021 -1.82389,-14.06185 -1.97682,-16.93104c-0.00698,-0.13078 2.80764,0.3937 5.61849,-1.05858c2.89386,-1.49517 6.19455,-2.89838 7.06514,-3.28425c0.2323,-0.10296 17.24485,-9.52368 17.24485,-9.52368l-4.10108,7.4362c0,0 25.37261,-14.07821 26.53592,-13.55228c2.98278,1.34848 4.29764,22.80652 4.70886,28.35795c0.31656,5.67606 -1.28093,9.74787 -1.50134,12.82319c-0.22039,3.07534 4.52058,5.59804 4.02234,15.65043c-0.31093,6.27338 -7.10181,9.92864 -12.16672,16.37545c-5.06491,6.44682 -7.77846,10.34795 -11.69595,10.92946c-3.77004,0.55963 -9.5212,-3.89931 -15.1633,-8.48913c-6.00791,-4.88743 -9.89854,-7.25564 -11.59542,-13.75316c-0.74059,-2.83578 -1.24574,-5.20679 -1.68753,-7.49499c-0.46986,-2.43359 1.15829,-4.70217 0.62477,-7.40796c-0.75655,-3.83705 -5.1036,-6.16904 -5.93224,-10.0776z" fill="#ffffff" stroke="#000000" stroke-width="1.5" stroke-linecap="butt"/><path d="M233.36025,138.11771c-1.0332,0.03419 -3.64401,-3.1416 -3.96204,-5.23551c-0.28455,-1.87347 1.18779,-3.86939 3.65802,-3.95115c2.47024,-0.08174 4.21605,0.35151 4.16634,4.05295c-0.04219,3.14128 -1.39208,5.05199 -3.86231,5.13373z" fill="#ffffff" stroke="#000000" stroke-width="1.15" stroke-linecap="butt"/><g stroke-linecap="butt"><path d="M265.97083,134.8512c0.50991,3.90185 -12.46599,24.06827 -28.97323,26.22549c-16.50726,2.15722 -30.14312,-18.06126 -30.65302,-21.96314c-0.50991,-3.90185 10.39204,4.81901 26.8993,2.6618c16.50726,-2.15722 32.21706,-10.82602 32.72695,-6.92417z" fill="#000000" stroke="#000000" stroke-width="0"/><g><path d="M259.86337,135.06198c0.01387,0.10621 -2.44062,3.81201 -5.03156,6.14105c-1.83344,1.64815 -3.61364,1.77278 -5.17369,3.13578c-3.92274,3.42732 -5.17471,4.35021 -6.31069,4.92172c-2.45305,1.23419 -5.15731,1.3661 -7.04572,1.61289c-10.15509,1.32709 -18.97705,-5.64245 -19.24543,-7.69604c-0.26836,-2.05361 7.71355,-1.51228 17.86864,-2.83938c10.15509,-1.32709 24.67006,-7.32964 24.93842,-5.27603z" fill="#ffffff" stroke="#000000" stroke-width="0.5"/><path d="M250.80721,132.19965c6.35681,-1.41797 16.36485,-0.56938 16.36388,-0.48195c-0.00104,0.09227 -2.90132,3.65468 -7.62005,6.03566c-6.26401,3.1607 -14.9953,5.39228 -17.20578,5.91429c-3.24789,0.76697 -12.75782,2.47072 -18.14146,1.77916c-3.5411,-0.45488 -7.15332,-1.97293 -10.58124,-3.09358c-5.88992,-1.92553 -9.41827,-6.76765 -9.42842,-6.80456c-0.0054,-0.0196 2.2444,0.44419 5.48723,1.12152c2.99392,0.62534 6.62372,-0.17862 10.31731,0.59838c6.56523,1.3811 12.87729,4.27763 12.93739,4.27449c0,0 1.20722,-1.92197 2.59525,-2.46165c0.69892,-0.27176 12.32385,-6.22325 15.27589,-6.88176z" fill="#fefefe" stroke="#000000" stroke-width="1.4"/><path d="M239.40806,161.6871c-1.45936,0.19072 -3.29472,0.25898 -5.27772,0.20317c-6.28165,-0.17672 -14.04481,-1.59808 -16.03054,-4.3139c-0.27878,-0.38127 2.88158,-8.07223 5.04205,-10.82688c0.12204,-0.1556 4.31882,2.37549 7.89917,3.41169c1.75787,0.50876 3.51082,-0.03134 4.2802,-0.0861c5.68253,-0.40448 10.09057,-5.10158 11.94505,-5.34393c6.02286,-0.78708 7.34474,6.51763 4.32761,10.5576c-2.23752,2.99605 -7.71927,5.81464 -12.18583,6.39834z" fill="#ffffff" stroke="none" stroke-width="0"/><path d="M267.22838,131.83941c0.01815,0.06456 1.43898,7.25581 0.42637,13.67041c-0.37755,2.39165 -2.38495,4.32949 -7.24371,8.17792c-5.37776,4.25947 -15.72242,6.78797 -21.34791,7.66056c-10.95147,1.69867 -22.41748,-0.00434 -23.75118,-1.11867c-1.40128,-1.17079 -3.60174,-6.31987 -6.40754,-11.72261c-4.07527,-7.84717 -6.94009,-12.92062 -6.93547,-12.95417c0.00691,-0.05022 7.05236,5.25633 12.46499,10.57993c4.2413,4.17153 5.15585,5.15889 6.13218,5.84939c0.49183,0.34784 3.88971,1.81406 7.32288,1.95362c2.77264,0.11272 13.21675,0.57251 19.93978,-4.09123c10.54628,-7.31589 19.35947,-18.14804 19.39962,-18.00514z" fill="#ffffff" stroke="#000000" stroke-width="1.9"/></g></g><path d="M235.96502,107.92131c0,0 0.23385,3.96419 0.24147,7.12252c0.01513,6.25406 -0.16266,27.78128 -0.16266,27.78128l-2.97976,0.10727c0,0 -0.94051,-4.1439 -1.43682,-9.45745c-0.67179,-7.19233 -0.98817,-16.26943 -1.41238,-19.59631c-0.40211,-3.15356 -1.08445,-5.68177 -1.08445,-5.68177" fill="#ffffff" stroke="#000000" stroke-width="1.3" stroke-linecap="round"/><g stroke="none" stroke-width="0" stroke-linecap="butt"><g fill="url(#color-1)"><path d="M209.82111,167.53839l-11.78321,-59.2978c0,0 47.0453,-13.47401 58.30493,-14.94545c4.4897,-0.58673 10.3612,5.97198 10.3612,5.97198l7.81693,59.81613z"/><path d="M209.82111,167.53839l-11.78321,-59.2978c0,0 47.0453,-13.47401 58.30493,-14.94545c4.48969,-0.58673 10.3612,5.97198 10.3612,5.97198l7.81693,59.81613z"/><path d="M209.82111,167.53839l-11.78321,-59.2978c0,0 47.0453,-13.47401 58.30493,-14.94545c4.48969,-0.58673 10.3612,5.97198 10.3612,5.97198l7.81693,59.81613z"/><path d="M209.82111,167.53839l-11.78321,-59.2978c0,0 47.0453,-13.47401 58.30493,-14.94545c4.48969,-0.58673 10.3612,5.97198 10.3612,5.97198l7.81693,59.81613z"/><path d="M209.82111,167.53839l-11.78321,-59.2978c0,0 47.0453,-13.47401 58.30493,-14.94545c4.48969,-0.58673 10.3612,5.97198 10.3612,5.97198l7.81693,59.81613z"/><path d="M209.82111,167.53839l-11.78321,-59.2978c0,0 47.0453,-13.47401 58.30493,-14.94545c4.48969,-0.58673 10.3612,5.97198 10.3612,5.97198l7.81693,59.81613z"/><path d="M209.82111,167.53839l-11.78321,-59.2978c0,0 47.0453,-13.47401 58.30493,-14.94545c4.48969,-0.58673 10.3612,5.97198 10.3612,5.97198l7.81693,59.81613z"/><path d="M209.82111,167.53839l-11.78321,-59.2978c0,0 47.0453,-13.47401 58.30493,-14.94545c4.48969,-0.58673 10.3612,5.97198 10.3612,5.97198l7.81693,59.81613z"/></g><path d="M198.03377,109.3029l3.00583,-25.87455l58.6148,-9.35872l3.27411,25.05387z" fill="#000000"/></g></g></g></svg>