<svg version="1.1" xmlns="http://www.w3.org/2000/svg" xmlns:xlink="http://www.w3.org/1999/xlink" width="132.09915" height="264.87785" viewBox="0,0,132.09915,264.87785"><defs><linearGradient x1="180.93926" y1="-156.21464" x2="268.85944" y2="364.08638" gradientUnits="userSpaceOnUse" id="color-1"><stop offset="0" stop-color="#000000"/><stop offset="1" stop-color="#000000" stop-opacity="0"/></linearGradient><linearGradient x1="207.76608" y1="-159.57681" x2="295.68626" y2="360.7242" gradientUnits="userSpaceOnUse" id="color-2"><stop offset="0" stop-color="#000000"/><stop offset="1" stop-color="#000000" stop-opacity="0"/></linearGradient></defs><g transform="translate(-185.19287,-46.67103)"><g data-paper-data="{&quot;isPaintingLayer&quot;:true}" fill-rule="nonzero" stroke-linejoin="miter" stroke-miterlimit="10" stroke-dasharray="" stroke-dashoffset="0" style="mix-blend-mode: normal"><path d="M227.38456,311.54888l-42.19169,-249.68534l89.90746,-15.19251l42.19169,249.68534z" fill-opacity="0.01" fill="#000000" stroke="none" stroke-width="0" stroke-linecap="butt"/><path d="M200.75203,186.3796c-0.05451,-8.15261 8.18688,-36.76129 40.20201,-36.9211c31.60235,-0.15775 39.85672,29.48704 39.84884,36.89673c-0.0188,11.35257 0.01106,24.24207 0.06683,37.22967c-2.54077,-0.07752 -5.06977,-0.26595 -7.59424,-0.64758c-0.81207,-0.12273 -1.62122,-0.25349 -2.42822,-0.39177l-0.04557,-32.95081c0,0 0.07549,-3.0993 -2.81625,-3.15415c-3.43441,-0.06514 -2.94538,3.11562 -2.94538,3.11562l0.05702,31.87785c-0.70409,-0.15058 -1.40789,-0.30604 -2.11191,-0.46604c-3.42496,-0.77837 -6.84902,-1.4607 -10.31521,-2.02467c-3.43908,-0.55956 -6.84464,-1.46408 -10.24453,-2.22634c-3.40092,-0.76249 -6.74257,-1.82608 -10.0193,-3.0055c-3.29409,-1.18566 -6.59158,-2.32333 -9.83976,-3.63113c-1.92152,-0.77366 -3.87133,-1.54703 -5.79101,-2.37447l-0.04887,-18.44061c0,0 0.27949,-2.919 -2.8856,-2.93443c-3.11083,-0.01515 -2.81569,2.90899 -2.81569,2.90899l0.04835,15.75487c-2.46803,-1.26359 -4.86919,-2.57196 -7.27099,-4.0036c-1.00596,-0.59962 -2.01807,-1.26005 -2.96598,-1.99883c-0.03474,-5.17701 -0.06377,-9.50632 -0.08454,-12.61269z" fill="#ffffff" stroke="#000000" stroke-width="2" stroke-linecap="butt"/><path d="M264.18334,198.73334l0.33333,-42.83333c0,0 2.60448,1.08741 3.80852,1.87144c1.18453,0.77132 3.02481,3.96189 3.02481,3.96189l0.33333,37z" fill="#99670f" stroke="none" stroke-width="0" stroke-linecap="butt"/><path d="M263.85002,199.90001v-9.16667h8v9.16667z" fill="#68450a" stroke="none" stroke-width="0" stroke-linecap="butt"/><path d="M281.45718,304.34171l-10.49667,0.09614l-0.11255,-81.38492c0.782,0.13346 1.56604,0.25987 2.3528,0.37878c2.55,0.38529 5.10458,0.57552 7.67112,0.65341c0.1727,39.75543 0.5853,80.25659 0.5853,80.25659z" fill="#000000" stroke="#000000" stroke-width="2" stroke-linecap="butt"/><path d="M201.5454,304.3916c0,0 -0.47344,-70.3304 -0.70458,-104.76805c0.87275,0.65672 1.79099,1.25179 2.70573,1.79704c2.48516,1.48133 4.97045,2.8317 7.52873,4.13649l0.30304,98.74955z" fill="#000000" stroke="#000000" stroke-width="2" stroke-linecap="butt"/><path d="M265.24554,304.42616l-48.21366,0.07222l-0.25508,-96.24777c1.85896,0.79685 3.74403,1.54518 5.60282,2.29358c3.25395,1.31013 6.55725,2.45001 9.85718,3.63777c3.29626,1.18645 6.65805,2.2559 10.07925,3.02293c3.40958,0.76443 6.82473,1.6708 10.27362,2.23196c3.45598,0.56231 6.86982,1.24265 10.2847,2.01873c0.74125,0.16846 1.48227,0.33191 2.22363,0.48994z" fill="#000000" stroke="#000000" stroke-width="2" stroke-linecap="butt"/><path d="M270.07,259.28l-0.2,-15h12.6v25.8c0,0 -5.62083,-2.8504 -7.74118,-4.69716c-2.00671,-1.74778 -4.65882,-6.10284 -4.65882,-6.10284z" fill="#191919" stroke="none" stroke-width="0" stroke-linecap="butt"/><path d="M215.67,250.28001v-8c0,0 37.18748,-14.4 45.8,-14.4c3.72352,0 5,14.4 5,14.4v8l-7.8,-14.4c0,0 -18.62065,12.99402 -23.2,14.4c-16.93662,5.2 -19.8,0 -19.8,0z" fill="#191919" stroke="none" stroke-width="0" stroke-linecap="butt"/><path d="M200.07,239.08001l-0.2,-30h12.4l0.4,41.4c0,0 -3.10253,-1.10229 -4.5611,-2.42195c-2.32376,-2.10245 -8.0389,-8.97805 -8.0389,-8.97805z" fill="#191919" stroke="none" stroke-width="0" stroke-linecap="butt"/><path d="M199.2804,203.13335l-0.33038,-12.66667c0,0 50.37796,13 65.41534,13c8.03782,0 17.84057,-13 17.84057,-13l0.66077,65.66667c0,0 -11.68472,-6.91139 -15.24726,-11.36817c-3.39441,-4.24645 -5.64795,-14.77205 -5.64795,-14.77205c0,0 -28.10907,22.27141 -43.92788,14.11392c-16.09969,-8.30233 -18.76319,-40.97369 -18.76319,-40.97369z" fill="#a03a00" stroke="none" stroke-width="0" stroke-linecap="butt"/><path d="M199.2804,199.59697l-0.33038,-9.13029l66.0761,20l17.1798,-20l0.66077,47.33334c0,0 -11.68472,-4.98182 -15.24726,-8.19432c-3.39441,-3.06089 -5.64795,-10.64787 -5.64795,-10.64787c0,0 -28.10907,16.05351 -43.92788,10.17349c-16.09969,-5.98442 -18.76319,-29.53433 -18.76319,-29.53433z" fill="#ff8500" stroke="none" stroke-width="0" stroke-linecap="butt"/><path d="M278.31001,253.07335l0.5,-21.1h4v24c0,0 -2.09954,-1.08859 -2.91839,-1.61629c-0.6325,-0.40761 -1.58161,-1.28371 -1.58161,-1.28371z" fill="#702900" stroke="none" stroke-width="0" stroke-linecap="butt"/><path d="M278.71001,235.77335v-4.6h4.1l-0.1,5.9c0,0 -1.22087,-0.09678 -1.8632,-0.30554c-0.68788,-0.22356 -2.1368,-0.99446 -2.1368,-0.99446z" fill="#a95700" stroke="none" stroke-width="0" stroke-linecap="butt"/><path d="M256.14252,200.33378c-0.57113,0 -1.03411,-0.46299 -1.03411,-1.03411c0,-0.57113 0.46299,-1.03413 1.03411,-1.03413c0.57113,0 1.03411,0.463 1.03411,1.03413c0,0.57113 -0.46299,1.03411 -1.03411,1.03411z" fill="#000000" stroke="none" stroke-width="1.5" stroke-linecap="butt"/><path d="M250.88267,204.56937c-4.4635,-0.31439 -6.55245,-1.79392 -6.16985,-2.58011c0.11788,-0.24224 2.84645,1.06355 6.97038,1.3048c6.40897,0.37493 8.51033,-0.63173 8.51033,-0.63173v1.34616c0,0 -2.4135,1.04672 -9.31086,0.56089z" fill="#000000" stroke="#000000" stroke-width="0" stroke-linecap="butt"/><path d="M223.06994,199.29967c0,-0.57113 0.46299,-1.03413 1.03411,-1.03413c0.57113,0 1.03413,0.463 1.03413,1.03413c0,0.57113 -0.463,1.03411 -1.03413,1.03411c-0.57113,0 -1.03411,-0.46299 -1.03411,-1.03411z" fill="#000000" stroke="none" stroke-width="1.5" stroke-linecap="butt"/><path d="M229.36394,204.56937c-6.89736,0.48585 -9.31086,-0.56089 -9.31086,-0.56089v-1.34616c0,0 2.10136,1.00666 8.51033,0.63173c4.12393,-0.24126 6.85251,-1.54704 6.97039,-1.3048c0.3826,0.78618 -1.70634,2.26571 -6.16985,2.58011z" fill="#000000" stroke="#000000" stroke-width="0" stroke-linecap="butt"/><path d="M198.65004,191.60002c0,0 0.62601,-9.23895 1.24413,-13.38917c0.53714,-3.60652 2.25587,-10.11083 2.25587,-10.11083c0,0 0.04328,10.89292 5.54045,13.67636c15.26414,7.72883 45.59317,22.32365 56.95954,22.32365c9.11998,0 18.25,-27 18.25,-27l-0.25,56.75c0,0 -44.18678,-19.69216 -49.54301,-20.91449c-14.026,-3.20084 -34.45699,-21.33551 -34.45699,-21.33551z" fill="#d89116" stroke="none" stroke-width="0" stroke-linecap="butt"/><path d="M199.65004,180.10002c0,0 0.3768,-2.6782 0.70142,-4.31663c0.42917,-2.16607 1.64868,-7.54455 1.64868,-7.54455c0,0 1.20942,6.42818 1.92398,8.69901c0.4959,1.57595 1.95239,3.61986 1.95239,3.61986l6.71785,3.74849c0,0 22.72818,8.89359 32.34616,12.42974c7.67762,2.82276 20.70953,7.36408 20.70953,7.36408c0,0 4.58245,-3.12793 6.76327,-6.32014c3.18192,-4.65759 10.48673,-20.30486 10.48673,-20.30486l0.375,27.375c0,0 -7.06602,12.35726 -15.05626,9.59153c-8.49894,-2.94181 -18.89208,-6.58845 -25.59343,-9.11105c-9.83947,-3.70389 -26.95451,-10.77304 -33.6632,-13.55964c-1.29318,-0.53715 -6.29636,-6.30801 -8.55667,-9.48824c-0.82824,-1.16533 -0.75544,-2.1826 -0.75544,-2.1826z" fill="#ffc100" stroke="none" stroke-width="0" stroke-linecap="butt"/><path d="M277.51669,213.1155c0,7.96211 -6.49187,14.41667 -14.5,14.41667c-8.00813,0 -14.5,-6.45456 -14.5,-14.41667c0,-7.96211 6.49187,-14.41667 14.5,-14.41667c8.00813,0 14.5,6.45456 14.5,14.41667z" fill="#ffffff" stroke="#b6780e" stroke-width="4" stroke-linecap="butt"/><path d="M265.71395,216.23076l1.03895,-6.5351l1.19065,7.9109l-11.47081,1.72644z" fill="#000000" stroke="#000000" stroke-width="1.5" stroke-linecap="round"/><path d="M267.66668,160.5c0,12.51845 -12.38679,22.66666 -27.66667,22.66666c-15.27988,0 -27.66666,-10.14821 -27.66666,-22.66666c0,-4.54612 4.96691,-11.11299 7.77938,-14.66143c-7.09368,33.38977 26.14669,40.92399 39.92061,17.29476c3.515,-6.03001 -0.41394,-12.54884 0.15901,-17.05833c0.76096,1.48685 4.29128,4.4463 6.10778,7.62092c1.47545,2.57857 1.36655,5.41251 1.36655,6.80408z" fill="#ffc100" stroke="#000000" stroke-width="0" stroke-linecap="butt"/><path d="M199.31276,103.80215c-0.04649,-2.29496 -6.85896,-39.58366 28.53805,-46.98554c43.86016,-8.33804 44.35923,28.35404 47.97998,34.68078c4.9646,8.67492 6.83186,5.20643 9.0428,12.06208c2.21094,6.85565 -8.89034,-0.80986 -8.89034,-0.80986c0,0 4.77208,9.68842 4.74074,20.18728c0.00749,1.83595 -1.55916,4.44219 -1.49896,6.46274c0.08267,2.7754 1.74161,4.92295 1.17685,6.79379c-1.14596,-0.12172 -3.8401,-1.7143 -4.95809,-1.73177c-1.38999,-0.02171 -2.06582,7.69739 -3.14864,7.87656c-0.88898,0.1471 -1.57583,-1.64375 -2.94252,-2.79218c-1.16059,-0.97525 -3.0128,-1.34012 -3.76788,-1.21612c-14.06104,2.30895 -42.96678,3.49192 -42.96678,3.49192c0,0 -2.23849,1.85833 -2.57152,3.86971c-0.41924,2.53206 -0.57112,4.8957 -1.25544,5.01693c-0.88808,0.15733 -3.49465,-8.42703 -3.49465,-8.42703c0,0 -3.71535,8.57055 -4.46691,8.70674c-1.19696,0.21689 -1.97458,-4.78891 -1.97458,-4.78891l-1.47811,-12.57228c0,0 -1.98995,2.26234 -5.17487,3.68817c-1.9726,0.8831 -2.89047,5.02567 -3.77847,3.26073c-0.88801,-1.76493 0.09124,-5.04319 1.69761,-7.39646c1.43082,-2.0961 2.04688,-3.77098 2.04688,-3.77098c0,0 -3.99098,2.5351 -5.99761,3.415c-2.09369,0.91808 2.27439,-5.71519 3.32892,-11.81315c0.99565,-5.75745 -5.71885,-0.87954 -6.19326,-4.49196c-0.11855,-0.90268 2.36956,-2.18397 3.87808,-4.98271c1.55699,-2.88866 2.13774,-7.28937 2.12874,-7.73349z" fill="#000000" stroke="none" stroke-width="1.5" stroke-linecap="butt"/><path d="" fill="#000000" stroke="none" stroke-width="1.5" stroke-linecap="butt"/><path d="M194.24007,111.54316z" fill="#000000" stroke="none" stroke-width="1.5" stroke-linecap="butt"/><path d="M212.67769,119.90971c-1.7842,-7.09513 -2.52791,-16.9705 -2.52791,-16.9705c0,0 -0.81,-7.25773 9.02987,-12.06745c7.55959,-3.69515 17.7692,2.84185 17.7692,2.84185c0,0 9.10407,-9.05778 19.28407,-9.29393c7.115,-0.16505 9.73885,8.65031 9.73885,8.65031c0,0 0.82354,10.69498 1.44234,16.22713c0.52885,5.66022 -0.91504,9.78899 -1.02014,12.87041c-0.10509,3.08142 0.61859,6.11909 0.49711,16.18308c-0.07581,6.28063 -2.61665,9.49334 -7.43662,16.12528c-4.81997,6.63195 -7.38555,10.63193 -11.27852,11.35971c-3.74644,0.7004 -9.66052,-3.54008 -15.47052,-7.91542c-6.18669,-4.65905 -10.16327,-6.87992 -12.10225,-13.30935c-1.74625,-5.79038 -2.41661,-9.64064 -3.64761,-14.84815c-0.89971,-3.80603 -3.30344,-5.97819 -4.27784,-9.85297z" fill="#ffffff" stroke="#000000" stroke-width="1.5" stroke-linecap="butt"/><path d="M245.69384,145.28106c-1.01207,0.21063 -4.12819,-2.47114 -4.80012,-4.47964c-0.60119,-1.79706 0.50758,-4.01565 2.92731,-4.51923c2.41974,-0.50359 4.21395,-0.37571 4.79887,3.27955c0.4964,3.10211 -0.50632,5.21574 -2.92605,5.71933z" fill="#ffffff" stroke="#000000" stroke-width="1.15" stroke-linecap="butt"/><path d="M243.36428,114.04823c0,0 0.7626,3.89717 1.1931,7.02604c0.48407,3.51812 1.41417,11.89597 1.70155,18.55215c0.21872,5.06589 -0.14229,9.16958 -0.14229,9.16958c0,0 -2.79014,-5.21876 -3.62908,-8.84343c-1.62889,-7.0376 -3.15795,-15.99056 -4.02385,-19.23066c-0.82079,-3.0713 -1.83555,-5.48537 -1.83555,-5.48537" fill="#ffffff" stroke="#000000" stroke-width="1.3" stroke-linecap="round"/><path d="M216.04027,129.60823c0,0 -5.44917,-2.64611 -7.5734,-7.82251c-2.23509,-5.44657 -3.06241,-9.3533 -1.19141,-9.93225c1.87099,-0.57899 3.06146,1.89329 5.07265,7.61697c2.01117,5.72368 3.69218,10.1378 3.69218,10.1378z" data-paper-data="{&quot;index&quot;:null}" fill="#ffffff" stroke="#000000" stroke-width="1" stroke-linecap="butt"/><path d="M215.1828,125.7496c0,0 -4.00112,-2.28872 -5.66581,-7.613c-0.92863,-2.97006 1.74668,-2.60764 1.74668,-2.60764" fill="none" stroke="#000000" stroke-width="0.25" stroke-linecap="round"/><path d="M217.04506,118.68466c-0.74513,-4.83531 3.14828,-14.15856 8.45919,-14.977c5.31089,-0.81843 9.74243,7.22615 10.48757,12.06148c0.74513,4.83531 -2.36122,15.27635 -7.67212,16.09478c-5.31089,0.81843 -10.5295,-8.34394 -11.27463,-13.17927z" fill="#ffffff" stroke="#ffc100" stroke-width="1.4" stroke-linecap="butt"/><path d="M243.72328,114.17733c-0.61377,-4.85375 -2.31752,-14.93104 4.40501,-16.06701c7.33879,-1.2401 13.55862,8.06977 14.37378,12.89378c0.81516,4.82401 0.20025,15.5044 -5.52047,16.54293c-5.44145,0.98784 -12.61733,-8.30068 -13.25832,-13.3697z" fill="#ffffff" stroke="#ffc100" stroke-width="1.4" stroke-linecap="butt"/><path d="M267.7473,110.1091c0.01885,-6.06671 0.33088,-8.79287 2.28824,-8.86081c1.95735,-0.06794 2.45963,3.8937 2.13825,9.77226c-0.30545,5.58696 -4.58261,9.87662 -4.58261,9.87662c0,0 0.13728,-4.72137 0.15613,-10.78808z" data-paper-data="{&quot;index&quot;:null}" fill="#ffffff" stroke="#000000" stroke-width="1" stroke-linecap="butt"/><path d="M267.47643,106.03016c0,0 2.40769,-1.22136 2.50651,1.88894c0.17717,5.57565 -2.84978,9.05197 -2.84978,9.05197" data-paper-data="{&quot;index&quot;:null}" fill="none" stroke="#000000" stroke-width="0.25" stroke-linecap="round"/><path d="M256.36837,124.85999c5.22193,-1.01199 7.25886,-11.62015 7.25886,-11.62015c0,0 2.04301,14.09804 -6.42604,15.57057c-8.90034,1.57012 -13.35183,-11.63794 -13.35183,-11.63794c0,0 5.30945,9.0847 12.51901,7.68751z" data-paper-data="{&quot;index&quot;:null}" fill="#ffc100" stroke="#ffc100" stroke-width="1.15" stroke-linecap="butt"/><path d="M236.97671,117.5732c0,0 0.21884,14.43037 -8.70324,15.87187c-8.48266,1.39196 -11.18538,-12.59461 -11.18538,-12.59461c0,0 5.55349,9.45231 10.81801,8.6923c7.26836,-1.04929 9.07059,-11.96958 9.07059,-11.96958z" data-paper-data="{&quot;index&quot;:null}" fill="#ffc100" stroke="#ffc100" stroke-width="1.15" stroke-linecap="butt"/><path d="M233.98774,122.56213l-6.48922,0.93256l0.27668,-10.28596" fill="none" stroke="#000000" stroke-width="1.15" stroke-linecap="round"/><path d="M258.97101,118.70455l-7.27176,-0.34852l1.57648,-9.11852" fill="none" stroke="#000000" stroke-width="1.15" stroke-linecap="round"/><path d="M217.44851,118.98666c0,0 0.08754,-1.40031 0.28311,-2.34012c0.28538,-1.37139 1.26399,-5.09448 1.26399,-5.09448c0,0 4.34615,-6.59792 6.80709,-6.97096c2.15381,-0.32647 7.16039,4.85373 7.16039,4.85373c0,0 1.29077,2.77261 1.76513,4.04058c0.38968,1.04167 0.87724,3.02265 0.87724,3.02265c0,0 -2.27229,-5.76618 -9.73918,-4.90675c-5.47826,0.63056 -8.41775,7.39536 -8.41775,7.39536z" fill="url(#color-1)" stroke="none" stroke-width="0" stroke-linecap="butt"/><path d="M216.90975,118.29457c0,0 -0.13553,-13.93736 8.78654,-15.37886c8.48266,-1.39196 11.18538,12.59461 11.18538,12.59461c0,0 -5.55521,-10.21265 -10.81973,-9.45265c-7.26835,1.04928 -9.15219,12.2369 -9.15219,12.2369z" fill="#d89116" stroke="#d89116" stroke-width="1.15" stroke-linecap="butt"/><path d="M253.34699,108.11862c-7.76882,1.71508 -7.69221,7.8523 -7.69221,7.8523c0,0 -1.24098,-2.5313 -0.91687,-3.99585c0.27739,-1.25347 0.77222,-3.48945 0.77222,-3.48945c0,0 0.09954,-1.64755 0.80799,-2.84826c1.156,-1.95923 3.31571,-3.88901 4.72159,-4.14981c2.59083,-0.4806 9.17503,4.27031 9.17503,4.27031c0,0 0.95941,1.53133 1.53449,2.44921c0.73833,1.17848 1.13274,4.34571 1.13274,4.34571c0,0 -3.83516,-5.69248 -9.53495,-4.43417z" data-paper-data="{&quot;index&quot;:null}" fill="url(#color-2)" stroke="none" stroke-width="0" stroke-linecap="butt"/><path d="M243.28392,113.84386c0,0 -3.96823,-14.4997 5.40388,-15.72336c8.64802,-1.12314 15.14253,12.80832 15.14253,12.80832c0,0 -5.61614,-9.93946 -14.19279,-8.53176c-5.606,0.92012 -6.35361,11.44681 -6.35361,11.44681z" fill="#d89116" stroke="#d89116" stroke-width="1.15" stroke-linecap="butt"/><path d="M216.24447,135.81303l-5.77115,-28.15116l4.8445,0.85187c0,0 6.988,-6.4734 10.13058,-6.93662c4.30644,-0.63476 12.67428,2.00927 12.67428,2.00927c0,0 5.22807,-5.05502 8.93998,-6.22822c6.49293,-2.0522 16.29285,3.6809 16.29285,3.6809l3.72296,-3.29678l1.91791,29.7554c0,0 -2.44528,0.38544 -4.9356,0.778c-0.60195,0.09489 -1.42044,0.58463 -2.40263,1.14528c-1.26291,0.72089 -3.73623,7.27659 -3.73623,7.27659c0,0 -3.09795,-5.54961 -4.36736,-5.81935c-1.27668,-0.27129 -2.62038,-0.53335 -4.03705,-0.31005c-1.10973,0.17493 -2.24676,0.35416 -3.40026,0.53598c-0.79814,0.12582 -2.21055,-1.33497 -3.02085,-1.20723c-0.94602,0.14912 -1.2915,1.88699 -2.24347,2.03706c-2.06853,0.32606 -4.13758,0.65221 -6.14845,0.96918c-1.22216,0.19264 -2.22565,0.9567 -3.20052,1.69757c-0.91657,0.69656 -2.71163,6.24655 -2.71163,6.24655c0,0 -2.79298,-4.99001 -4.10503,-5.40718c-1.05825,-0.33649 -2.04699,-0.63526 -2.8235,-0.51286c-3.44019,0.54228 -5.61935,0.88578 -5.61935,0.88578zM228.06486,133.91475c7.90123,-1.25062 10.02956,-12.73903 9.2374,-17.42692c-0.79216,-4.68788 -3.48827,-15.28272 -12.07382,-13.93441c-6.74959,1.05997 -9.72002,12.50602 -8.86805,17.1834c2.00412,11.00279 7.17833,14.89435 11.70447,14.17794zM257.68959,129.03419c5.16428,-1.41291 7.28355,-5.83982 5.6068,-17.47746c-0.67801,-4.70575 -7.50731,-16.39393 -16.46429,-13.3374c-7.36264,2.54781 -4.16471,12.43617 -3.37255,17.12406c0.79216,4.68788 5.38233,16.11147 14.23004,13.6908z" fill="#040404" stroke="none" stroke-width="0" stroke-linecap="butt"/><g stroke-linecap="butt"><path d="M259.40145,160.88623c-2.20567,2.56988 -6.02554,5.54456 -11.83072,6.55594c-4.51078,0.78584 -8.98077,0.44707 -11.9805,-0.69277c-10.09115,-3.83443 -13.39242,-19.77603 -13.39242,-19.77603c0,0 9.39307,-3.18788 14.58457,-3.78437c3.47126,-1.24698 6.9252,1.81859 6.9252,1.81859c0,0 4.47277,-4.95025 8.41587,-4.56986c7.77434,0.54995 12.92313,0.84377 12.92313,0.84377c0,0 -0.39112,13.48324 -5.6451,19.60475z" fill="#000000" stroke="none" stroke-width="0"/><path d="M239.74406,145.0801c1.81341,0.7493 5.73914,2.15091 5.18899,2.88807c-0.28848,0.40663 -20.6229,-0.90502 -19.16833,-1.22237c0.82082,-0.19235 3.73518,-0.36482 5.87279,-1.15339c3.37743,-1.24595 5.64506,-1.45624 8.10656,-0.51231z" data-paper-data="{&quot;noHover&quot;:false,&quot;origItem&quot;:[&quot;Path&quot;,{&quot;applyMatrix&quot;:true,&quot;segments&quot;:[[[356.58247,303.92478],[0,0],[-0.85156,0.32734]],[[354.44185,304.549],[0.33594,-0.02282],[-0.59374,0.03044]],[[354.51217,304.77738],[-0.64064,-0.19794],[0.8125,0.25122]],[[360.34811,305.42444],[-0.14062,0.15226],[0.26562,-0.27406]],[[359.37155,303.7573],[0.66406,0.44914],[-0.90626,-0.57856]],[[356.58249,303.92478],[1.92968,-0.74604],[0,0]]],&quot;closed&quot;:true,&quot;fillColor&quot;:[0,0,0,1]}]}" fill="#ffffff" stroke="none" stroke-width="0.5"/><path d="M243.72172,147.28028c0.78035,-1.19005 1.99646,-2.41521 3.49607,-3.50501c2.38153,-1.73074 5.5016,-2.98075 8.90531,-2.1505c1.96815,0.49053 4.15433,0.92565 4.8682,0.80503c3.0778,-0.34115 -3.73308,2.23263 -8.82581,3.6583c-4.48036,1.25424 -7.71074,1.916 -7.71074,1.916z" data-paper-data="{&quot;noHover&quot;:false,&quot;origItem&quot;:[&quot;Path&quot;,{&quot;applyMatrix&quot;:true,&quot;segments&quot;:[[[362.06679,304.89918],[0,0],[0,0.62422]],[[364.16055,305.50058],[-2.07032,0.02282],[1.85938,0]],[[367.63711,305.05144],[1.23438,0.07612],[-0.28906,0]],[[365.77773,304.40438],[0.7422,0.35018],[-2.09374,-0.9744]],[[362.06679,304.8992],[0,-1.24846],[0,0]]],&quot;closed&quot;:true,&quot;fillColor&quot;:[0,0,0,1]}]}" fill="#ffffff" stroke="none" stroke-width="0.5"/><path d="M223.67807,147.83063c0.17367,-0.02935 2.76622,0.56569 3.92143,0.94309c1.10912,0.45673 3.95335,5.14312 5.53414,6.62956c4.24302,3.9711 5.49368,4.96105 12.97958,3.69608c7.23515,-1.22259 8.87569,-4.26369 11.25087,-8.76266c1.51651,-2.88661 4.46966,-6.45808 5.24321,-5.87304c0.53067,0.32191 -0.11254,6.07111 -0.99072,8.74248c-0.89781,2.90735 -3.64924,8.11563 -6.275,9.72244c-2.56494,1.61443 -12.46225,3.48196 -16.38913,3.1435c-4.97721,-0.44728 -8.14318,-5.40384 -12.21217,-13.39463c-0.92438,-1.82994 -3.23591,-4.81727 -3.06228,-4.84662z" data-paper-data="{&quot;noHover&quot;:false,&quot;origItem&quot;:[&quot;Path&quot;,{&quot;applyMatrix&quot;:true,&quot;segments&quot;:[[[353.46525,305.2722],[0,0],[-0.07032,0]],[[353.77775,306.81754],[-0.24218,-0.84498],[1.07032,3.69208]],[[357.82463,312.52694],[-1.9297,-0.5481],[1.52344,0.4263]],[[364.34807,312.37468],[-1.11718,0.50244],[1.14062,-0.49482]],[[367.27775,309.51236],[-0.54686,1.17234],[0.52344,-1.07336]],[[368.18401,306.12478],[0.1875,0.1751],[-0.26562,-0.3045]],[[365.87151,307.89088],[0.78906,-1.11904],[-1.23438,1.74328]],[[361.11369,309.88536],[2.9297,0],[-3.03124,0]],[[356.08245,307.61682],[1.40624,1.99448],[-0.52344,-0.74602]],[[354.37151,305.74414],[0.40626,0.27404],[-0.42968,-0.2436]],[[353.46525,305.27216],[0.07032,0],[0,0]]],&quot;closed&quot;:true,&quot;fillColor&quot;:[0,0,0,1]}]}" fill="#ffffff" stroke="none" stroke-width="0.5"/><path d="M254.46632,150.91677c-2.27095,1.05135 -3.83875,1.76788 -10.22699,2.76814c-1.33414,0.2089 -3.53098,0.37545 -3.53098,0.37545c0,0 -0.50041,-2.53791 -1.23018,-3.90551c0.05203,-0.27641 0.09535,-0.55081 0.10248,-0.83234c1.63422,0.13804 3.04888,0.20775 3.63455,0.10878c1.66789,-0.28184 11.91975,-3.21569 11.91975,-3.21569c0,0 0.75428,4.04241 -0.66866,4.70117z" fill="#ffffff" stroke="#000000" stroke-width="0"/><path d="M237.83629,153.8434c0,0 -1.54968,-0.19826 -2.21089,-0.35046c-1.54859,-0.35646 -3.6134,-5.01628 -3.6134,-5.01628c0,0 3.02081,0.40232 5.96474,0.69687l0.04602,0.27237c0.03409,0.20177 0.06022,0.37238 0.08894,0.52514c-0.35544,1.26074 -0.27541,3.87237 -0.27541,3.87237z" fill="#ffffff" stroke="#000000" stroke-width="0"/><path d="M255.1093,151.76735c0.0203,0.12011 -0.33718,2.60794 -2.87234,4.13751c-1.73421,1.04632 -4.28699,1.42956 -6.2623,1.72509c-0.95717,0.14319 -4.57388,0.70967 -6.75314,0.09857c-2.56305,-0.71872 -3.65322,-2.65434 -3.67169,-2.76368c-0.03418,-0.2023 7.05608,0.18692 9.13803,-0.13137c5.85249,-0.89477 10.38724,-3.26842 10.42142,-3.06614z" fill="#ffffff" stroke="none" stroke-width="0"/></g><path d="M224.83985,95.60216l9.15173,4.94428l-6.34934,-1.56396l-13.89059,7.82377z" fill="#000000" stroke="#000000" stroke-width="1" stroke-linecap="round"/><path d="M262.55288,95.51734l-15.69006,-2.82525l-5.48293,3.56336l7.01902,-7.6768z" data-paper-data="{&quot;index&quot;:null}" fill="#000000" stroke="#000000" stroke-width="1" stroke-linecap="round"/></g></g></svg>