<svg version="1.1" xmlns="http://www.w3.org/2000/svg" xmlns:xlink="http://www.w3.org/1999/xlink" width="35.67311" height="35.67311" viewBox="0,0,35.67311,35.67311"><defs><linearGradient x1="240.00001" y1="162.91345" x2="240.00001" y2="197.08656" gradientUnits="userSpaceOnUse" id="color-1"><stop offset="0" stop-color="#9966ff"/><stop offset="1" stop-color="#6712b1"/></linearGradient></defs><g transform="translate(-222.16345,-162.16345)"><g data-paper-data="{&quot;isPaintingLayer&quot;:true}" stroke-miterlimit="10" stroke-dasharray="" stroke-dashoffset="0" style="mix-blend-mode: normal"><path d="M229.98311,162.91345h20.03379c3.9166,0 7.06966,3.15307 7.06966,7.06966v20.03379c0,3.91659 -3.15306,7.06966 -7.06966,7.06966h-20.03379c-3.91659,0 -7.06966,-3.15307 -7.06966,-7.06966v-20.03379c0,-3.91659 3.15307,-7.06966 7.06966,-7.06966z" fill="url(#color-1)" fill-rule="evenodd" stroke="#000000" stroke-width="1.5" stroke-linecap="round" stroke-linejoin="round"/><path d="M229.79946,173.74254c3.54463,-4.86348 11.20496,-5.54085 16.54681,-1.64758c5.34183,3.89325 6.05127,10.67709 2.50665,15.54059c-3.54463,4.86348 -10.38632,5.90606 -15.72817,2.0128c-5.34183,-3.89325 -6.86993,-11.04231 -3.32529,-15.9058z" fill="#000000" fill-rule="nonzero" stroke="#ffffff" stroke-width="2.5" stroke-linecap="butt" stroke-linejoin="miter"/><path d="M227.59552,175.70446c0,0 2.83838,-10.57502 15.69663,-6.98624c11.55839,3.21955 8.83226,14.10777 8.83226,14.10777c0,0 -7.17299,-7.49492 -11.19399,-8.66235c-4.15114,-1.20521 -13.33489,1.54082 -13.33489,1.54082z" fill="#000000" fill-rule="nonzero" stroke="#ffffff" stroke-width="2.5" stroke-linecap="butt" stroke-linejoin="miter"/></g></g></svg>