<svg version="1.1" xmlns="http://www.w3.org/2000/svg" xmlns:xlink="http://www.w3.org/1999/xlink" width="94.32898" height="261.12421" viewBox="0,0,94.32898,261.12421"><defs><linearGradient x1="275.94296" y1="182.01337" x2="275.94296" y2="306.41337" gradientUnits="userSpaceOnUse" id="color-1"><stop offset="0" stop-color="#402b6b"/><stop offset="1" stop-color="#000000"/></linearGradient><linearGradient x1="205.79492" y1="182.01337" x2="205.79492" y2="306.41337" gradientUnits="userSpaceOnUse" id="color-2"><stop offset="0" stop-color="#402b6b"/><stop offset="1" stop-color="#000000"/></linearGradient><linearGradient x1="254.21948" y1="122.62166" x2="254.21948" y2="141.28833" gradientUnits="userSpaceOnUse" id="color-3"><stop offset="0" stop-color="#000000"/><stop offset="1" stop-color="#000000" stop-opacity="0"/></linearGradient></defs><g transform="translate(-192.83551,-50.77582)"><g data-paper-data="{&quot;isPaintingLayer&quot;:true}" fill-rule="nonzero" stroke-linejoin="miter" stroke-miterlimit="10" stroke-dasharray="" stroke-dashoffset="0" style="mix-blend-mode: normal"><path d="M201.5454,304.39162c0,0 -0.63536,-94.38387 -0.79335,-118.01201c-0.05451,-8.15261 8.18688,-36.76129 40.20201,-36.9211c18.96154,-0.09465 29.51769,10.53976 34.92704,20.66287c3.60617,6.74863 4.92495,13.27002 4.9218,16.23387c-0.07659,46.24274 0.65429,117.98648 0.65429,117.98648l-10.49667,0.09614c0,0 -0.12562,-90.83497 -0.14717,-106.4153c-0.00606,-4.38462 -0.01165,-8.42781 -0.01165,-8.42781c0,0 0.07549,-3.0993 -2.81625,-3.15415c-3.43441,-0.06514 -2.94538,3.11562 -2.94538,3.11562l0.20548,114.86995l-48.21366,0.07222l-0.30539,-115.23309c0,0 0.27949,-2.919 -2.8856,-2.93443c-3.11083,-0.01515 -2.81569,2.90899 -2.81569,2.90899l0.35311,115.0668z" fill="#ffffff" stroke="#000000" stroke-width="2" stroke-linecap="butt"/><path d="M195.98246,304.00083v-253.22501h91.18203v253.22501z" fill-opacity="0.01" fill="#000000" stroke="none" stroke-width="0" stroke-linecap="butt"/><path d="M216.58113,304.40603c0,0 0,-66.68394 0,-88.55065c0,-5.80021 -2.04205,-12.53293 -2.63738,-18.1783c-0.72512,-6.87616 -0.02928,-12.13919 -0.02928,-12.13919c0,0 3.42387,-10.06438 3.42387,-14.9727c0,-4.498 -0.75721,-13.6872 -0.75721,-13.6872c0,0 2.67319,-2.35297 4.6557,-3.74807c1.98251,-1.3951 5.17197,-2.80371 5.17197,-2.80371l14.55952,40.03867l13.83154,-40.03867c0,0 3.91276,1.51959 6.16585,2.94655c2.25309,1.42695 4.75379,3.60523 4.75379,3.60523c0,0 -0.75721,9.42463 -0.75721,14.19201c0,4.84193 3.25721,15.63937 3.25721,15.63937c0,0 0.32078,4.57848 -0.44662,11.69342c-0.63707,5.90663 -2.05338,13.98702 -2.05338,20.11927c0,21.87148 0,85.88399 0,85.88399z" fill="#402b6b" stroke="#402b6b" stroke-width="2" stroke-linecap="butt"/><path d="M215.3334,305.85537v-94.33333l25.83333,29.5l25.66667,-29.5v94.33333z" fill="#25193e" stroke="none" stroke-width="0" stroke-linecap="butt"/><path d="M230.29492,305.88003v-55.8h21.4v55.8z" fill="#000000" stroke="none" stroke-width="NaN" stroke-linecap="butt"/><path d="M240.64438,261.12113c-0.81895,0 -1.48284,-0.66389 -1.48284,-1.48284c0,-0.81895 0.66389,-1.48284 1.48284,-1.48284c0.81895,0 1.48284,0.66389 1.48284,1.48284c0,0.81895 -0.66389,1.48284 -1.48284,1.48284z" data-paper-data="{&quot;index&quot;:null}" fill="#000000" stroke="none" stroke-width="1.5" stroke-linecap="butt"/><path d="M281.49492,179.59336v3.2c0,0 -0.43136,14.8001 -15.88007,22.52232c0.00347,-0.06456 0.00629,-0.12929 0.00849,-0.19417c0.00128,-0.11165 0.00296,-0.2212 0.00551,-0.32815c0.38011,-15.99073 3.07222,-32.42325 0.07052,-48.08359c13.67498,8.93801 15.79556,22.88359 15.79556,22.88359z" fill="#000000" stroke="#ffffff" stroke-width="1" stroke-linecap="butt"/><path d="M198.69492,182.79337v-3.2c0,0 4.60562,-13.73092 17.00861,-22.67553c-0.00356,0.09114 -0.00643,0.18299 -0.00861,0.27553c-0.37404,15.8593 -0.3579,31.73126 -0.00906,47.59121c-18.47342,-7.87525 -16.99094,-21.9912 -16.99094,-21.9912z" fill="#000000" stroke="#ffffff" stroke-width="1" stroke-linecap="butt"/><path d="M281.97816,182.01337l0.71678,124.4h-13.14085v-91.93334l-0.03721,-0.12459l0.03348,-0.12533l-0.35936,-12.03268c7.42509,-10.92225 12.78716,-20.18406 12.78716,-20.18406z" fill="url(#color-1)" stroke="none" stroke-width="0" stroke-linecap="butt"/><path d="M200.41615,306.41337l-1.72122,-124.4c0,0 6.07849,10.708 14.2,22.67445v101.72555z" fill="url(#color-2)" stroke="none" stroke-width="0" stroke-linecap="butt"/><path d="M223.06994,199.29969c0,-0.57113 0.46299,-1.03413 1.03411,-1.03413c0.57113,0 1.03413,0.463 1.03413,1.03413c0,0.57113 -0.463,1.03411 -1.03413,1.03411c-0.57113,0 -1.03411,-0.46299 -1.03411,-1.03411z" fill="#000000" stroke="none" stroke-width="1.5" stroke-linecap="butt"/><path d="M256.14252,200.33379c-0.57113,0 -1.03411,-0.46299 -1.03411,-1.03411c0,-0.57113 0.46299,-1.03413 1.03411,-1.03413c0.57113,0 1.03411,0.463 1.03411,1.03413c0,0.57113 -0.46299,1.03411 -1.03411,1.03411z" fill="#000000" stroke="none" stroke-width="1.5" stroke-linecap="butt"/><path d="M215.16673,306.02207c0,0 0,-58.73745 0,-92.19107c0,-3.50069 -1.60259,-6.52478 -1.89473,-9.37578c-0.73581,-7.18088 -0.6397,-12.19482 -0.70527,-13.09981c-0.6,-8.28093 1.61145,-7.59835 1.62888,-11.12398c0.05539,-11.20691 1.17112,-20.27602 1.17112,-20.27602c0,0 -3.72263,-7.50545 15.97162,-8.70448c-0.01697,0.21994 -0.02682,0.44188 -0.02933,0.66558c-0.00015,0.03847 -0.00036,0.07665 -0.00064,0.11449c-0.38094,50.48158 -0.40334,100.96764 0,151.44904c0.00729,0.91262 0.11532,1.75996 0.30968,2.54204z" fill="#000000" stroke="none" stroke-width="0" stroke-linecap="butt"/><path d="M266.51671,160.15536c0,0 0.9075,8.02106 1.01104,18.6754c0.01324,1.3623 1.85564,4.95866 1.87936,9.80464c0.07842,16.0215 -1.17955,17.10448 -1.82386,20.41015c-0.22232,1.14066 -0.57158,2.01741 -0.56765,4.58462c0.05795,37.83729 -0.0989,92.39185 -0.0989,92.39185h-15.91804c0.19436,-0.78207 0.30239,-1.62942 0.30968,-2.54204c0.40334,-50.4814 0.38094,-100.96746 0,-151.44904c0,-0.11537 -0.00195,-0.23029 -0.00583,-0.34472c-0.00194,-0.07304 -0.00433,-0.14522 -0.00715,-0.21656c19.35584,1.84331 15.22134,8.68569 15.22134,8.68569z" fill="#000000" stroke="none" stroke-width="0" stroke-linecap="butt"/><path d="M214.90836,306.08002v-86c0,0 8.45262,32.48893 16.46884,52.42042c-0.03544,0.30527 -0.0573,0.61475 -0.06494,0.92779c-0.00071,0.08532 -0.00167,0.16932 -0.00307,0.25178c-0.18297,10.79836 -0.27853,21.59922 -0.27875,32.4z" fill="#1b1b1b" stroke="none" stroke-width="0" stroke-linecap="butt"/><path d="M266.90835,220.08002v86h-15.3118c-0.00023,-10.80078 -0.09819,-21.60164 -0.28575,-32.4c0,-0.25545 -0.0097,-0.50865 -0.02876,-0.75928c-0.03153,-0.52517 -0.08635,-1.00301 -0.16398,-1.43983c7.85436,-19.9992 15.7903,-51.40089 15.7903,-51.40089z" fill="#1b1b1b" stroke="none" stroke-width="0" stroke-linecap="butt"/><path d="M266.70827,156.89999l10.4,10.03333l-25.38954,7.8c0.08485,-7.78528 0.12214,-15.57134 0.11186,-23.3573c12.21947,1.73903 14.87768,5.52397 14.87768,5.52397z" fill="#1b1b1b" stroke="none" stroke-width="0" stroke-linecap="butt"/><path d="M203.60827,167.13333l11.6,-10.23333c0,0 6.51837,-5.01064 16.33333,-6.1256c0,0 -0.4,15.98719 -0.4,19.81894c0,1.56513 0.4,3.30666 0.4,3.30666c0,0.27774 -0.00118,0.55552 -0.00332,0.83333z" fill="#1b1b1b" stroke="none" stroke-width="0" stroke-linecap="butt"/><path d="M228.5416,306.06667c0,0 0,-87.35165 0,-115.16667c0,-15.8013 -9.5,-26.16667 -9.5,-26.16667c0,0 6.65985,-5.12319 12.6978,-9.05747c-0.33325,0.97899 -0.51894,2.02624 -0.53056,3.11523c-0.00013,0.03659 -0.00032,0.0729 -0.00058,0.10891c-0.35167,49.0542 -0.39828,98.11203 -0.08708,147.16667z" fill="#000000" stroke="#ffffff" stroke-width="1" stroke-linecap="butt"/><path d="M263.70827,165.39999c0,0 -10.66667,9.6987 -10.66667,25.5c0,27.81502 0,115.16667 0,115.16667h-1.74625c0.31121,-49.05464 0.26459,-98.11247 -0.08708,-147.16667c0,-0.10972 -0.00177,-0.21902 -0.00527,-0.32789c-0.01941,-0.76764 -0.08768,-1.44107 -0.20259,-2.03716c6.22485,4.02259 12.70786,8.86505 12.70786,8.86505z" fill="#000000" stroke="#ffffff" stroke-width="1" stroke-linecap="butt"/><path d="M228.46841,311.06667c0,0 0,-78.05835 0,-102.91414c0,-14.1202 -10.26013,-23.38281 -10.26013,-23.38281c0,0 6.97672,-4.57814 13.4978,-8.09385c-0.35992,0.87484 -0.34445,1.81066 -0.357,2.7838c-0.00015,0.03269 -0.00034,0.06514 -0.00062,0.09733c-0.3798,43.83535 -0.43016,87.67394 -0.09405,131.50968z" fill="#000000" stroke="#ffffff" stroke-width="1" stroke-linecap="butt"/><path d="M250.85894,311.40002c0.32755,-43.83574 0.27847,-87.67433 -0.09165,-131.50968c-0.00027,-0.03218 -0.00046,-0.06463 -0.00061,-0.09732c-0.01223,-0.97314 -0.20767,-1.90896 -0.55841,-2.7838c6.35497,3.51572 13.36446,8.09385 13.36446,8.09385c0,0 -9.99877,9.2626 -9.99877,23.38281c0,24.85579 0,102.91414 0,102.91414z" data-paper-data="{&quot;index&quot;:null}" fill="#000000" stroke="#ffffff" stroke-width="1" stroke-linecap="butt"/><path d="M196.62568,101.26842c0,0 6.16329,-5.92187 6.29161,-6.78761c0.33654,-2.27063 -0.16776,-40.17317 35.96775,-41.57382c44.63633,-0.91362 39.01489,35.34872 41.53088,42.1903c3.44981,9.38084 6.15664,17.40016 6.15664,17.40016c0,0 -2.76715,-2.05351 -4.0797,-3.13397c-1.2242,-1.00773 -3.80143,-3.14585 -3.80143,-3.14585c0,0 1.49111,10.3481 -0.28908,20.69498c-0.06679,4.06645 -0.72581,8.88887 -0.53675,13.1563c0.27033,6.10191 3.23893,13.06913 3.23893,13.06913c0,0 -4.7396,-2.96595 -6.36161,-4.89218c-1.5607,-1.85342 -3.19361,-6.45517 -3.19361,-6.45517c0,0 0.97734,2.59794 -0.16005,3.73274c-1.1374,1.13479 5.16127,12.11273 5.16127,12.11273c0,0 -4.75182,-1.1387 -6.5597,-2.50801c-2.00281,-1.51695 -4.93235,-6.1962 -4.93235,-6.1962c0,0 -6.2601,13.81795 -23.55066,13.67154c-8.56961,-0.13426 -15.38788,-10.8625 -19.92874,-13.9905c-0.95592,-0.65849 -12.56008,7.68281 -12.56008,7.68281l4.01731,-9.96751c0,0 -3.20561,3.28628 -5.02882,4.40318c-1.99927,1.22475 -6.48738,2.65166 -6.48738,2.65166c0,0 4.63864,-5.85395 5.74928,-9.86196c0.6624,-2.39041 0.92356,-1.64905 0.06927,-4.04558c-2.72545,-7.64567 -1.43946,-14.24324 -1.43946,-14.24324c0,0 -2.33908,1.89916 -5.71704,2.7744c-4.23278,1.09673 -7.34665,-1.05474 -7.34665,-1.05474c0,0 4.00795,-1.31717 5.98396,-3.36989c1.76007,-1.8284 2.64658,-3.37722 2.64658,-3.37722c0,0 -2.10758,1.0847 -4.23277,1.61795c-2.21739,0.5564 -4.03008,0.53093 -4.03008,0.53093c0,0 4.97492,-5.03728 7.03074,-10.87429c1.94102,-5.51108 2.09972,-10.95731 2.09972,-10.95731c0,0 -1.36165,0.66163 -3.33013,0.79513c-1.24776,0.08463 -2.37785,-0.0489 -2.37785,-0.0489z" fill="#000000" stroke="none" stroke-width="1.5" stroke-linecap="butt"/><path d="M213.55443,112.59004c-0.57709,-7.29323 0.335,-17.15448 0.335,-17.15448c0,0 8.21887,-1.07236 10.22971,-2.84491c2.29566,-2.02363 2.80332,-8.64369 2.80332,-8.64369c0,0 1.64498,4.98037 6.59876,7.26441c2.15138,0.99194 7.70875,-3.04528 9.38955,-0.68489c9.73946,3.52292 16.73992,3.61451 21.01149,5.00393c5.12532,1.66712 6.51036,4.26052 6.51036,4.26052c0,0 -0.82708,5.89699 -1.13868,11.45491c-0.42163,5.66922 -2.53327,9.49969 -3.15031,12.52053c-0.61704,3.02084 -0.4096,6.13662 -2.20622,16.0397c-1.12121,6.18021 -4.16183,8.92466 -10.01942,14.66081c-5.85759,5.73616 -9.05378,9.25275 -13.01359,9.32173c-3.81077,0.06639 -8.93565,-5.1002 -13.93542,-10.38244c-5.32393,-5.62474 -8.87489,-8.47713 -9.71551,-15.13975c-0.75707,-6.00039 -0.77653,-9.90853 -1.12266,-15.24835c-0.25298,-3.90273 -2.26119,-6.44504 -2.57636,-10.42801z" fill="#ffffff" stroke="#000000" stroke-width="1.5" stroke-linecap="butt"/><path d="M249.10352,122.5169c0,-3.0106 -0.79832,-7.57143 -0.79832,-7.57143l5.42857,0.57143c0,0 -1.68951,3.75318 -1.98575,6.45051c-0.49847,4.53871 -0.72853,18.26378 -0.72853,18.26378c0,0 -1.91597,-13.04655 -1.91597,-17.71429z" data-paper-data="{&quot;index&quot;:null}" fill="#000000" stroke="none" stroke-width="0" stroke-linecap="butt"/><path d="M253.38923,124.94547c0,-3.0106 -0.79833,-7.57143 -0.79833,-7.57143l5.42857,0.57143c0,0 -1.68951,3.75318 -1.98575,6.45051c-0.49847,4.53871 -0.72854,18.26377 -0.72854,18.26377c0,0 -1.91596,-13.04654 -1.91596,-17.71428z" data-paper-data="{&quot;index&quot;:null}" fill="#000000" stroke="none" stroke-width="0" stroke-linecap="butt"/><path d="M258.38925,126.23117c0,-3.0106 -0.79832,-7.57143 -0.79832,-7.57143l5.42857,0.57143c0,0 -1.68951,3.75318 -1.98575,6.45051c-0.49847,4.53871 -0.72853,18.26377 -0.72853,18.26377c0,0 -1.91597,-13.04654 -1.91597,-17.71428z" data-paper-data="{&quot;index&quot;:null}" fill="#000000" stroke="none" stroke-width="0" stroke-linecap="butt"/><path d="M246.59092,139.80262c0,0 -0.20585,-13.72506 -0.65185,-18.26377c-0.26506,-2.69733 -1.77672,-6.45051 -1.77672,-6.45051l4.85714,-0.57143c0,0 -0.71429,4.56083 -0.71429,7.57143c0,4.66774 -1.71429,17.71429 -1.71429,17.71429z" fill="#000000" stroke="none" stroke-width="0" stroke-linecap="butt"/><path d="M261.48156,99.13635c0,0 1.52429,0.31807 4.2558,1.11029c2.49492,0.72361 4.44935,1.74403 4.44935,1.74403l0.1951,1.17035c0,0 -7.24963,-3.12997 -15.1158,-2.4706c-6.2896,0.52724 -9.96319,2.8124 -9.96319,2.8124l0.04575,-4.17683c0,0 6.32269,-1.80632 7.86366,-1.85557c4.90428,-0.15672 8.09084,0.59125 8.09084,0.59125z" data-paper-data="{&quot;index&quot;:null}" fill="#000000" stroke="none" stroke-width="1.5" stroke-linecap="butt"/><path d="M241.0437,142.01715c-1.03376,0 -3.5381,-3.26042 -3.7867,-5.3637c-0.22243,-1.88186 1.31512,-3.82799 3.7867,-3.82799c2.47159,0 4.2021,0.49077 4.02999,4.18853c-0.14607,3.13818 -1.55841,5.00317 -4.02999,5.00317z" fill="#ffffff" stroke="#000000" stroke-width="1.15" stroke-linecap="butt"/><path d="M217.92201,112.1098c0.07093,-4.89188 4.83834,-8.93609 10.21137,-8.8582c5.37302,0.0779 9.02724,4.2484 8.95632,9.14029c-0.07093,4.89188 -4.12352,8.79439 -9.49655,8.7165c-5.37302,-0.0779 -9.74207,-4.1067 -9.67114,-8.99859z" fill="#ffffff" stroke="#000000" stroke-width="1.4" stroke-linecap="butt"/><path d="M222.35965,110.48661c0.03999,-2.75843 2.30855,-4.96213 5.06696,-4.92214c2.75843,0.03999 4.96213,2.30855 4.92214,5.06696c-0.03999,2.75843 -2.30854,4.96213 -5.06696,4.92214c-2.75843,-0.03999 -4.96213,-2.30855 -4.92214,-5.06696z" fill="#000000" stroke="none" stroke-width="1.5" stroke-linecap="butt"/><path d="M244.97829,112.11053c0.20353,-4.88817 4.45264,-8.85847 9.77048,-8.85847c5.31783,0 9.27453,3.96607 9.27453,8.85847c0,4.8924 -3.88585,9.07104 -9.69964,9.14188c-5.52997,0.06739 -9.55792,-4.03692 -9.34537,-9.14188z" fill="#ffffff" stroke="#000000" stroke-width="1.4" stroke-linecap="butt"/><path d="M249.58104,112.19609c0,-2.81845 2.2848,-5.10325 5.10325,-5.10325c2.81845,0 5.10325,2.2848 5.10325,5.10325c0,2.81845 -2.28479,5.10325 -5.10325,5.10325c-2.81845,0 -5.10325,-2.2848 -5.10325,-5.10325z" fill="#000000" stroke="none" stroke-width="1.5" stroke-linecap="butt"/><path d="M217.85358,111.57763c0,0 0.06357,-9.01512 10.60111,-8.8249c9.47101,0.16586 9.55554,9.40723 9.55554,9.40723c0,0 -5.85836,-3.20365 -8.9093,-3.29179c-3.58228,-0.10349 -11.24735,2.70946 -11.24735,2.70946z" fill="#6712b1" stroke="#6712b1" stroke-width="1.15" stroke-linecap="butt"/><path d="M221.50843,100.69096c0,0 3.36963,-1.819 8.03244,-2.28178c5.16698,-0.51283 7.76823,-0.06628 7.76823,-0.06628l0.29508,4.13747c0,0 -3.83554,-0.68065 -8.01795,-0.52113c-5.59346,0.21333 -6.64488,1.43293 -10.89774,1.89119c-3.64408,0.39266 -6.73723,0.15884 -6.73723,0.15884l-0.02589,-1.23155c0,0 3.59517,0.07398 5.23371,-0.06836c1.35239,-0.11749 3.9757,-0.93808 3.9757,-0.93808z" fill="#000000" stroke="none" stroke-width="1.5" stroke-linecap="butt"/><path d="M217.96038,114.7153l1.81818,3.36364l-2.63636,2.72727l0.72727,-5l-2.18182,1.27273l1.90909,-5.81818z" fill="#000000" stroke="#000000" stroke-width="1" stroke-linecap="round"/><path d="M264.96035,111.7153l1.90909,5.81818l-2.18182,-1.27272l0.72728,5l-2.63637,-2.72728l1.81819,-3.36364z" data-paper-data="{&quot;index&quot;:null}" fill="#000000" stroke="#000000" stroke-width="1" stroke-linecap="round"/><path d="M269.34437,112.10199c1.0294,-5.97877 1.7913,-8.61483 3.73262,-8.35569c1.94131,0.25914 1.77649,4.24909 0.48013,9.99193c-1.23206,5.45797 -6.16417,8.97502 -6.16417,8.97502c0,0 1.79602,-9.70865 1.95143,-10.61127z" data-paper-data="{&quot;index&quot;:null}" fill="#ffffff" stroke="#000000" stroke-width="1" stroke-linecap="butt"/><path d="M269.75689,108.03493c0,0 2.57754,-0.80312 2.15675,2.28016c-0.75431,5.52723 -4.31816,8.45061 -4.31816,8.45061" data-paper-data="{&quot;index&quot;:null}" fill="none" stroke="#000000" stroke-width="0.25" stroke-linecap="round"/><path d="M215.1112,122.71326c0,0 -4.93211,-3.51705 -6.16417,-8.97502c-1.29636,-5.74284 -1.46118,-9.7328 0.48013,-9.99193c1.94131,-0.25915 2.70321,2.37692 3.73262,8.35569c0.32762,1.90281 1.95143,10.61127 1.95143,10.61127z" data-paper-data="{&quot;index&quot;:null}" fill="#ffffff" stroke="#000000" stroke-width="1" stroke-linecap="butt"/><path d="M214.90862,118.76571c0,0 -3.56385,-2.92338 -4.31816,-8.45061c-0.42079,-3.08327 2.53175,-2.53016 2.53175,-2.53016" fill="none" stroke="#000000" stroke-width="0.25" stroke-linecap="round"/><path d="M244.60064,111.70852c0,0 -0.24686,-9.4582 11.19813,-9.1032c9.71427,0.33347 9.54677,9.65229 9.54677,9.65229c0,0 -2.42954,-2.85583 -10.31001,-3.01297c-8.27829,-0.16507 -10.43489,2.46388 -10.43489,2.46388z" fill="#6712b1" stroke="#6712b1" stroke-width="1.15" stroke-linecap="butt"/><path d="" fill="#cecece" stroke="none" stroke-width="0" stroke-linecap="butt"/><path d="M202.0587,100.68834c0,0 36.33205,1.28491 50.83274,1.40525c11.64642,0.09665 30.16726,-0.90525 30.16726,-0.90525c0,0 -18.88173,1.17802 -30.16875,1.08435c-14.61916,-0.12132 -50.83125,-1.58435 -50.83125,-1.58435z" fill="none" stroke="#b1b1b1" stroke-width="1.5" stroke-linecap="butt"/><path d="M244.88616,141.28833v-18.5c0,0 6.81008,1.66667 10,1.66667c3.02337,0 8.66667,-1.16667 8.66667,-1.16667v18z" fill="url(#color-3)" stroke="none" stroke-width="NaN" stroke-linecap="butt"/><path d="M211.20239,183.5667v-7h17v7z" fill="#808080" stroke="#000000" stroke-width="1" stroke-linecap="butt"/><path d="M211.70239,180.23336v-3.08333h16v3.08333z" fill="#a2a2a2" stroke="none" stroke-width="0" stroke-linecap="butt"/><text transform="translate(212.86905,181.52028) scale(0.11399,0.11399)" font-size="40" xml:space="preserve" fill="#201536" fill-rule="nonzero" stroke="none" stroke-width="1" stroke-linecap="butt" stroke-linejoin="miter" stroke-miterlimit="10" stroke-dasharray="" stroke-dashoffset="0" font-family="Sans Serif" font-weight="normal" text-anchor="start" style="mix-blend-mode: normal"><tspan x="0" dy="0">teresa</tspan></text><g stroke-linecap="butt"><path d="M260.83934,148.64661c-0.08368,3.23911 -11.60306,11.18467 -19.81383,11.04081c-8.21079,-0.14386 -19.22557,-9.53767 -19.14189,-12.77678c0.08369,-3.23911 12.34082,-1.37507 20.55158,-1.23121c8.21079,0.14386 18.48783,-0.27193 18.40414,2.96718z" fill="#000000" stroke="none" stroke-width="0"/><path d="M252.37072,146.52952c0,0 3.8428,3.36946 -10.3747,3.04059c-15.41723,0.21523 -13.63935,-3.84078 -13.63935,-3.84078z" fill="#ffffff" stroke="none" stroke-width="0"/><path d="M255.01738,152.58256c0,0 -2.2297,10.60325 -14.44124,10.2744c-10.73663,-0.28915 -12.63758,-10.35723 -12.63758,-10.35723c0,0 10.07658,2.50852 13.68256,2.51419c3.21746,0.00505 13.39626,-2.43135 13.39626,-2.43135z" fill="#ffffff" stroke="none" stroke-width="0"/><path d="M259.34513,147.3544c0,0 -5.42078,1.57954 -8.66823,1.34246c-4.59627,-0.33556 -1.1393,-0.94182 -8.549,-1.07976c-6.37849,-0.11875 -4.37412,1.28408 -9.52197,1.27033c-5.14785,-0.01376 -8.79495,-2.49344 -8.79495,-2.49344c0,0 9.1884,-5.29016 10.82237,-4.90382c4.733,1.11906 7.3549,2.2551 7.62632,2.27164c0,0 4.38278,-1.50666 7.52724,-1.7627c3.07401,-0.2503 9.55822,5.3553 9.55822,5.3553z" fill="#333333" stroke="#000000" stroke-width="1.25"/><path d="M247.38138,157.15004c2.39313,-1.37367 3.06991,-3.08293 5.02352,-5.47523c3.34643,-4.0979 7.09096,-2.98808 7.09096,-2.98808c0,0 -1.91808,7.69816 -5.24683,11.78609c-4.08074,5.01142 -6.92275,3.39473 -12.24986,3.48641c-6.0516,0.10416 -9.11806,1.03785 -12.98401,-2.71354c-3.86595,-3.7514 -6.21766,-13.80447 -6.21766,-13.80447c0,0 6.18325,0.13347 8.87535,4.26473c2.6921,4.13126 2.44723,4.34384 5.32174,5.67361c0,0 7.91563,1.18894 10.38679,-0.22952z" fill="#515151" stroke="#000000" stroke-width="1.9"/></g><g><path d="M224.83136,159.73592c0,0 -4.49345,-3.7096 -5.57316,-5.33545c-1.27617,-1.92168 -1.22446,-6.9086 -1.22446,-6.9086c0,0 11.24346,7.03759 21.73928,6.95238c14.98857,-0.12168 22.975,-6.66666 22.975,-6.66666c0,0 -0.51851,4.58564 -1.80939,6.66133c-1.13287,1.82161 -5.52394,5.13034 -5.52394,5.13034c0,0 -9.12847,11.11874 -14.46441,10.94379c-4.76628,-0.15627 -16.11892,-10.77712 -16.11892,-10.77712z" fill="#c6c6c6" stroke="#a7a7a7" stroke-width="1" stroke-linecap="butt"/><path d="M254.0385,156.94548c0,1.56895 -1.29235,3.85192 -3.11949,6.06603c-2.91622,3.53385 -7.19478,6.8923 -9.75551,6.8923c-2.92409,0 -8.9095,-3.96844 -12.21675,-7.74263c-1.40368,-1.60187 -2.32493,-3.16874 -2.32493,-4.38237c0,-1.00456 0.6109,-1.70369 1.59385,-2.18694c3.00254,-1.47617 9.4766,-0.93806 12.61449,-0.93806c2.33477,0 6.20228,-0.55975 9.15057,-0.33432c2.31136,0.17674 4.05777,0.83605 4.05777,2.62598z" fill="#e0e0e0" stroke="#a7a7a7" stroke-width="0" stroke-linecap="butt"/><path d="M221.60398,152.24308c0,0 12.43502,4.31261 18.19191,4.59178c5.69887,0.27635 17.92714,-4.25844 17.92714,-4.25844c0,0 -15.43661,5.82143 -17.68452,5.82143c-2.17848,0 -18.43453,-6.15476 -18.43453,-6.15476z" fill="#717171" stroke="none" stroke-width="0" stroke-linecap="butt"/><path d="M221.77064,155.15976c0,0 12.43501,4.31261 18.1919,4.59178c5.69887,0.27635 17.92714,-4.25844 17.92714,-4.25844c0,0 -15.43661,5.82143 -17.68452,5.82143c-2.17848,0 -18.43452,-6.15476 -18.43452,-6.15476z" fill="#878787" stroke="none" stroke-width="0" stroke-linecap="butt"/><path d="M224.85398,157.90976c0,0 10.74231,4.31261 15.71555,4.59178c4.92312,0.27635 15.48683,-4.25844 15.48683,-4.25844c0,0 -13.33532,5.82143 -15.27723,5.82143c-0.46463,0 -1.67051,-0.37515 -3.22333,-0.94021c-4.73679,-1.72369 -12.70182,-5.21456 -12.70182,-5.21456z" fill="#717171" stroke="none" stroke-width="0" stroke-linecap="butt"/><path d="M272.53205,110.45433c0,0 1.69858,3.50257 0.92458,5.51537c-1.71725,4.46568 -12.58779,34.79156 -12.58779,34.79156l-1.07424,-0.42294c0,0 5.63761,-31.46903 6.76457,-35.61017c0.44453,-1.63347 3.53414,-5.02778 3.53414,-5.02778" data-paper-data="{&quot;index&quot;:null}" fill="none" stroke="#a7a7a7" stroke-width="1" stroke-linecap="round"/><path d="M212.49458,109.93835c0,0 1.51883,1.85716 1.91298,3.43374c0.99922,3.99691 6.25117,36.16237 6.25117,36.16237l-0.95248,0.4082c0,0 -9.63842,-30.78635 -11.16103,-35.0965c-0.68628,-1.94269 0.81978,-4.77174 0.81978,-4.77174" fill="none" stroke="#a7a7a7" stroke-width="1" stroke-linecap="round"/></g><path d="M244.64582,111.92342c0,0 0.1026,3.96976 0.00576,7.12662c-0.19174,6.25113 -1.08147,27.7607 -1.08147,27.7607l-2.98167,0.00864c0,0 -0.80294,-4.17274 -1.12322,-9.49979c-0.43353,-7.21063 -0.4495,-16.29321 -0.76344,-19.63229c-0.29758,-3.16513 -0.89593,-5.71453 -0.89593,-5.71453" fill="#ffffff" stroke="#000000" stroke-width="1.3" stroke-linecap="round"/><path d="M244.4087,121.83833c0,0 -0.72845,-12.03422 -0.66936,-14.87072c0.02165,-1.03897 1.04436,-3.12928 1.04436,-3.12928c0,0 1.41146,-1.84286 3.46432,-2.13005c3.96959,-0.55534 10.33746,0.25505 13.53568,0.25505c2.72247,0 5.5,2.75 5.5,2.75c0,0 0.76237,1.69838 0.66107,2.88871c-0.24838,2.91849 -2.16107,14.73629 -2.16107,14.73629c0,0 -1.81696,0.90132 -4.29019,1.08556c-4.11422,0.3065 -10.04448,-0.04588 -12.44773,-0.10209c-2.02535,-0.04738 -4.63708,-1.48347 -4.63708,-1.48347z" fill="#dedede" stroke="#b1b1b1" stroke-width="1.5" stroke-linecap="butt"/><path d="M247.2837,120.46333v-16.125h16.625v16.125z" fill="#373737" stroke="#b1b1b1" stroke-width="1.5" stroke-linecap="butt"/></g></g></svg>