<svg version="1.1" xmlns="http://www.w3.org/2000/svg" xmlns:xlink="http://www.w3.org/1999/xlink" width="93.36935" height="253.17459" viewBox="0,0,93.36935,253.17459"><defs><radialGradient cx="227.6555" cy="118.33024" r="12.58478" gradientUnits="userSpaceOnUse" id="color-1"><stop offset="0" stop-color="#ffffff"/><stop offset="1" stop-color="#ffffff" stop-opacity="0"/></radialGradient></defs><g transform="translate(-193.01944,-55.50182)"><g data-paper-data="{&quot;isPaintingLayer&quot;:true}" fill-rule="nonzero" stroke-linejoin="miter" stroke-miterlimit="10" stroke-dasharray="" stroke-dashoffset="0" style="mix-blend-mode: normal"><path d="M203.28461,97.0926c0.3535,-2.25704 -0.17093,-39.72064 37.32662,-41.54475c0.01086,4.34504 0.09934,8.77099 0.59109,12.98001c0.80302,6.82574 0.11681,14.06781 0.11681,20.939c0,6.74398 -0.70585,14.43444 0.87075,20.98547c1.94894,6.46286 3.70141,13.67007 2.51827,20.41942c-1.24287,7.1228 -1.13243,13.86198 -0.14269,21.00423c0.27387,1.97414 0.72451,3.9461 1.22988,5.91949c-0.56584,0.01768 -1.14276,0.02454 -1.73089,0.01982c-17.23133,-0.25547 -27.55059,-10.6752 -27.55059,-10.6752l-0.12279,2.65484c0,0 -4.11573,-3.29276 -6.53213,-9.70754c-2.88007,-7.64567 -3.42324,-12.24324 -3.42324,-12.24324c0,0 -2.47178,1.89916 -6.04138,2.7744c-4.47291,1.09673 -7.34075,0.34526 -7.34075,0.34526c0,0 3.81264,-2.71717 5.90075,-4.76989c1.85992,-1.8284 2.79673,-3.37722 2.79673,-3.37722c0,0 -2.22715,1.0847 -4.4729,1.61795c-2.34319,0.5564 -4.25871,0.53093 -4.25871,0.53093c0,0 5.25716,-5.03728 7.42961,-10.87429c2.05114,-5.51108 2.21884,-10.95731 2.21884,-10.95731c0,0 -1.4389,0.66163 -3.51905,0.79513c-1.31637,0.08449 -2.5088,-0.04846 -2.51274,-0.0489c0.00921,-0.00838 6.51303,-5.92247 6.64853,-6.7876z" fill="#402b6b" stroke="none" stroke-width="1.5" stroke-linecap="butt"/><path d="M240.61125,55.54784c0.01086,4.34504 0.09934,8.77099 0.59109,12.98001c0.80302,6.82574 0.11681,14.06781 0.11681,20.939c0,6.74398 -0.70585,14.43444 0.87075,20.98547c1.94894,6.46286 3.70141,13.67007 2.51827,20.41942c-0.15895,0.91095 -0.29577,1.81563 -0.41145,2.71567c-5.96169,-7.68167 -10.87185,-15.70826 -15.92497,-24.205c-3.29507,-5.54062 -7.40401,-11.11005 -10.10154,-16.95897c-1.35966,-2.94807 -2.07723,-6.15177 -3.12229,-9.22547c-1.39334,-4.09806 -2.78668,-8.19613 -4.18003,-12.29419c5.27001,-7.85654 14.25493,-14.60736 29.64335,-15.35595z" fill="#6712b1" stroke="none" stroke-width="1.5" stroke-linecap="butt"/><path d="M201.54541,304.39162l-0.79335,-118.01201c0,0 8.18688,-36.76129 40.20201,-36.9211c31.60235,-0.15775 39.85672,29.48704 39.84884,36.89673c-0.00788,7.40969 4.47908,72.09914 0.65429,117.98648c-0.37892,4.54603 0.44876,-0.96422 0.34481,-0.37594c-0.20148,1.14025 -1.14613,4.51513 -1.84057,3.53404c-1.70196,-2.4045 -2.50128,-2.69718 -4.0401,-2.98746c-2.26178,-0.42665 -4.96082,-0.0745 -4.96082,-0.0745l-0.15882,-114.84311c0,0 0.07549,-3.0993 -2.81625,-3.15415c-3.43441,-0.06514 -2.94538,3.11562 -2.94538,3.11562l0.20548,114.86995l-48.21366,0.07222l-0.30539,-115.23309c0,0 0.27949,-2.919 -2.8856,-2.93443c-3.11083,-0.01515 -2.81569,2.90899 -2.81569,2.90899l0.35311,115.0668z" fill="#ffffff" stroke="#000000" stroke-width="2" stroke-linecap="butt"/><path d="M256.14252,200.33388c-0.57113,0 -1.03411,-0.46299 -1.03411,-1.03411c0,-0.57113 0.46299,-1.03413 1.03411,-1.03413c0.57113,0 1.03411,0.463 1.03411,1.03413c0,0.57113 -0.46299,1.03411 -1.03411,1.03411z" fill="#000000" stroke="none" stroke-width="1.5" stroke-linecap="butt"/><path d="M250.8827,204.56947c-4.4635,-0.31439 -6.55245,-1.79392 -6.16985,-2.58011c0.11788,-0.24224 2.84645,1.06355 6.97038,1.3048c6.40897,0.37493 8.51033,-0.63173 8.51033,-0.63173v1.34616c0,0 -2.4135,1.04672 -9.31086,0.56089z" fill="#000000" stroke="#000000" stroke-width="0" stroke-linecap="butt"/><path d="M223.06995,199.29977c0,-0.57113 0.46299,-1.03413 1.03411,-1.03413c0.57113,0 1.03413,0.463 1.03413,1.03413c0,0.57113 -0.463,1.03411 -1.03413,1.03411c-0.57113,0 -1.03411,-0.46299 -1.03411,-1.03411z" fill="#000000" stroke="none" stroke-width="1.5" stroke-linecap="butt"/><path d="M229.36394,204.56947c-6.89736,0.48585 -9.31086,-0.56089 -9.31086,-0.56089v-1.34616c0,0 2.10136,1.00666 8.51033,0.63173c4.12393,-0.24126 6.85251,-1.54704 6.97039,-1.3048c0.3826,0.78618 -1.70634,2.26571 -6.16985,2.58011z" fill="#000000" stroke="#000000" stroke-width="0" stroke-linecap="butt"/><path d="M240.64439,261.12113c-0.81895,0 -1.48284,-0.66389 -1.48284,-1.48284c0,-0.81895 0.66389,-1.48284 1.48284,-1.48284c0.81895,0 1.48284,0.66389 1.48284,1.48284c0,0.81895 -0.66389,1.48284 -1.48284,1.48284z" data-paper-data="{&quot;index&quot;:null}" fill="#000000" stroke="none" stroke-width="1.5" stroke-linecap="butt"/><path d="M216.58114,304.40603v-119.20147l-12.60844,-13.2756c0,0 -0.63435,-4.08574 -0.63435,-4.6971c0,-4.498 13.24279,-10.35386 13.24279,-10.35386c0,0 2.67319,-2.35297 4.6557,-3.74807c1.98251,-1.3951 5.17197,-2.80371 5.17197,-2.80371c0,0 -4.89366,43.52455 8.69552,46.06926c0.49148,0.09204 5.33481,-6.02814 5.864,-6.03059c4.83552,-0.02244 14.8963,-10.5254 14.8963,-10.5254l-1.06476,-29.51327c0,0 3.91276,1.51959 6.16585,2.94655c2.25309,1.42695 4.75379,3.60523 4.75379,3.60523c0,0 9.58291,8.86499 10.46976,10.02487c2.49516,3.26333 5.60636,11.00048 5.60636,11.00048c0,0 -5.35379,10.83279 -8.21813,12.22361c-2.41862,1.1744 -7.85799,-4.41758 -7.85799,-4.41758v36.86328c-1.66969,0.79634 -5.81183,2.57598 -7.28314,4.14848c-1.19871,1.28116 -1.70162,3.96734 -3.45612,3.96986c-7.35417,0.01056 -13.78545,0.4735 -20.65317,3.2251c-2.24347,0.89886 -5.97369,2.40371 -7.06237,4.70209c-1.85035,3.9064 -2.40157,8.34313 -0.5314,12.4235c0.77525,1.69146 3.34063,3.07592 4.03769,4.84252c0.65059,1.64884 -0.67556,5.6994 0.53176,7.49776c4.86338,7.24423 9.94292,5.06164 15.94314,8.91475c6.02562,3.86943 11.95892,6.09256 18.4736,5.24819v26.86115z" fill="#9966ff" stroke="#6712b1" stroke-width="2" stroke-linecap="butt"/><path d="M280.23215,97.70909c3.44981,9.38084 6.15664,17.40016 6.15664,17.40016c0,0 -2.76715,-2.05351 -4.0797,-3.13397c-1.2242,-1.00773 -3.80143,-3.14585 -3.80143,-3.14585c0,0 3.09111,10.3481 1.31092,20.69498c-1.5623,9.48098 -7.29782,17.22543 -7.29782,17.22543l-1.15522,-2.34735c0,0 -1.02266,2.19794 -2.16005,3.33274c-1.1374,1.13479 -3.43873,2.91273 -3.43873,2.91273l-0.09205,-3.70421c0,0 -6.33665,9.88893 -21.7057,10.80515c-0.48391,-2.00066 -0.91641,-4.00022 -1.17935,-6.00308c-0.92581,-7.04473 -1.02986,-13.68593 0.13017,-20.71115c1.13304,-6.89186 -0.51538,-14.23017 -2.40115,-20.8311c-1.48276,-6.46266 -0.79256,-14.08179 -0.79256,-20.7367c0,-6.91213 0.63769,-14.18104 -0.11659,-21.04889c-0.46272,-4.18529 -0.54443,-8.58565 -0.55381,-12.90568c44.2521,-0.7148 38.66713,35.37337 41.17644,42.19679z" fill="#000000" stroke="none" stroke-width="1.5" stroke-linecap="butt"/><path d="M196.44193,103.88021c0,0 0,0 0.00001,0c-0.00001,0.00001 -0.00001,0.00001 -0.00001,0.00001z" fill="#000000" stroke="none" stroke-width="1.5" stroke-linecap="butt"/><path d="M248.02441,85.4159c0,0 -2.16005,3.00503 -3.40781,4.46015c-1.32651,1.54696 -3.99292,4.56297 -3.99292,4.56297c0,0 7.838,-1.66761 14.67476,-4.72931c8.56837,-3.53575 10.59252,-6.05309 12.95042,-4.5927c2.7829,1.72362 1.03006,23.1827 0.71846,28.74062c-0.42163,5.66922 -2.53327,9.49969 -3.15031,12.52053c-0.61704,3.02084 -0.4096,6.13662 -2.20622,16.0397c-1.12121,6.18021 -4.16183,8.92466 -10.01942,14.66081c-5.85759,5.73616 -9.05378,9.25275 -13.01359,9.32173c-3.81077,0.06639 -8.93565,-5.1002 -13.93542,-10.38244c-2.42637,-2.56346 -4.48448,-4.55109 -6.0856,-6.58599c0.61837,-0.46494 1.2519,-0.92126 1.90919,-1.36209c3.838,-3.82858 7.8787,-7.85805 8.99958,-13.425c1.88786,-5.6341 5.42598,-10.59535 7.33335,-16.33334c0.90923,-4.54639 2.50298,-10.3963 1.34633,-15.02276c0,-3.11944 -0.24106,-6.38962 -0.52539,-9.50603c-0.10651,-1.16741 -0.54138,-2.37296 -0.7916,-3.55429c5.05436,-2.45471 9.19619,-4.81256 9.19619,-4.81256z" fill="#ffffff" stroke="#000000" stroke-width="1.5" stroke-linecap="butt"/><path d="M213.22781,115.20184c-0.57709,-7.29323 0.335,-17.15448 0.335,-17.15448c0,0 3.41059,-0.04124 13.91429,-3.14424c3.14798,-0.92999 6.96679,-2.57815 10.45398,-4.24266c0.2514,1.06641 0.5942,2.13722 0.69252,3.20916c0.28676,3.12643 0.52911,6.41116 0.52911,9.54135c1.12714,4.50841 1.18478,9.16574 0.29872,13.59628c-1.91604,5.73121 -7.08058,11.74106 -8.95239,17.38096c-1.0651,5.36352 -4.98627,9.2182 -8.66707,12.90832c-0.6476,0.42896 -1.27313,0.87333 -1.8844,1.32675c-1.57134,-2.18658 -2.61371,-4.51923 -3.02072,-7.74508c-0.75707,-6.00039 -0.77653,-9.90853 -1.12266,-15.24835c-0.25298,-3.90273 -2.26119,-6.44504 -2.57636,-10.42801z" fill="#5500ff" stroke="#000000" stroke-width="1.5" stroke-linecap="butt"/><path d="M261.29778,100.08148c0,0 1.52429,0.31807 4.2558,1.11029c2.49492,0.72361 4.44935,1.74403 4.44935,1.74403l0.1951,1.17035c0,0 -7.24963,-3.12997 -15.1158,-2.4706c-6.2896,0.52724 -9.96319,2.8124 -9.96319,2.8124l0.04575,-4.17683c0,0 3.12748,-1.70421 7.86366,-1.85557c4.90428,-0.15672 8.09084,0.59125 8.09084,0.59125z" data-paper-data="{&quot;index&quot;:null}" fill="#000000" stroke="none" stroke-width="1.5" stroke-linecap="butt"/><path d="M240.85995,144.62885c-1.03376,0 -3.5381,-3.26042 -3.7867,-5.3637c-0.22243,-1.88186 1.31512,-3.82799 3.7867,-3.82799c2.47159,0 4.2021,0.49077 4.02999,4.18853c-0.14607,3.13818 -1.55841,5.00317 -4.02999,5.00317z" fill="#ffffff" stroke="#000000" stroke-width="1.15" stroke-linecap="butt"/><path d="M214.92744,125.32506c0,0 -4.93211,-3.51705 -6.16417,-8.97502c-1.29636,-5.74284 -1.46118,-9.7328 0.48013,-9.99193c1.94131,-0.25915 2.70321,2.37692 3.73262,8.35569c1.0294,5.97877 1.95143,10.61127 1.95143,10.61127z" data-paper-data="{&quot;index&quot;:null}" fill="#ffffff" stroke="#9966ff" stroke-width="1" stroke-linecap="butt"/><path d="M214.72486,121.37751c0,0 -3.56385,-2.92338 -4.31816,-8.45061c-0.42079,-3.08327 2.15675,-2.28016 2.15675,-2.28016" fill="none" stroke="#9966ff" stroke-width="0.25" stroke-linecap="round"/><path d="M217.73825,114.72161c0.07093,-4.89188 4.83834,-8.93609 10.21137,-8.8582c5.37302,0.0779 9.02724,4.2484 8.95632,9.14029c-0.07093,4.89188 -4.12352,8.79439 -9.49655,8.7165c-5.37302,-0.0779 -9.74207,-4.1067 -9.67114,-8.99859z" fill="#ffffff" stroke="#000000" stroke-width="1.4" stroke-linecap="butt"/><path d="M244.79453,114.72233c0.20353,-4.88817 4.45264,-8.85847 9.77048,-8.85847c5.31783,0 9.27453,3.96607 9.27453,8.85847c0,4.8924 -3.88585,9.07104 -9.69964,9.14188c-5.52997,0.06739 -9.55792,-4.03692 -9.34537,-9.14188z" fill="#ffffff" stroke="#000000" stroke-width="1.4" stroke-linecap="butt"/><path d="M249.39729,114.80789c0,-2.81845 2.2848,-5.10325 5.10325,-5.10325c2.81845,0 5.10325,2.2848 5.10325,5.10325c0,2.81845 -2.28479,5.10325 -5.10325,5.10325c-2.81845,0 -5.10325,-2.2848 -5.10325,-5.10325z" fill="#000000" stroke="none" stroke-width="1.5" stroke-linecap="butt"/><path d="M244.41688,114.32033c0,0 -0.24686,-9.4582 11.19813,-9.1032c9.71427,0.33347 9.54677,9.65229 9.54677,9.65229c0,0 -6.68483,-4.19458 -10.22436,-4.28827c-3.36678,-0.08911 -10.52054,3.73918 -10.52054,3.73918z" fill="#ffffff" stroke="#000000" stroke-width="1.15" stroke-linecap="butt"/><path d="M221.19969,104.17776c0,0 3.36963,-1.819 8.03244,-2.28178c5.16698,-0.51283 7.76823,-0.06628 7.76823,-0.06628l0.29508,4.13747c0,0 -3.83554,-0.68065 -8.01795,-0.52113c-5.59346,0.21333 -6.64488,1.43293 -10.89774,1.89119c-3.64408,0.39266 -6.73723,0.15884 -6.73723,0.15884l-0.02589,-1.23155c0,0 3.59517,0.07398 5.23371,-0.06836c1.35239,-0.11749 3.9757,-0.93808 3.9757,-0.93808z" fill="#000000" stroke="none" stroke-width="1.5" stroke-linecap="butt"/><path d="M269.1606,114.71379c1.0294,-5.97877 1.7913,-8.61483 3.73262,-8.35569c1.94131,0.25914 1.77649,4.24909 0.48013,9.99193c-1.23206,5.45797 -6.16417,8.97502 -6.16417,8.97502c0,0 0.92203,-4.6325 1.95143,-10.61127z" data-paper-data="{&quot;index&quot;:null}" fill="#ffffff" stroke="#000000" stroke-width="1" stroke-linecap="butt"/><path d="M269.57313,110.64673c0,0 2.57754,-0.80312 2.15675,2.28016c-0.75431,5.52723 -4.31816,8.45061 -4.31816,8.45061" data-paper-data="{&quot;index&quot;:null}" fill="none" stroke="#000000" stroke-width="0.25" stroke-linecap="round"/><g data-paper-data="{&quot;index&quot;:null}" stroke="none" stroke-linecap="butt"><path d="M260.57361,147.83345c0,0 -7.41855,14.27345 -21.09671,13.99966c-14.45727,-0.28938 -22.65225,-16.52741 -22.65225,-16.52741c0,0 3.33149,-3.12712 11.56915,-4.27768c9.74333,-1.36086 12.3334,3.46527 12.3334,3.46527c0,0 1.87486,-3.8824 7.15378,-2.48241c7.05093,1.86995 12.69262,5.82256 12.69262,5.82256z" fill="#000000" stroke-width="0"/><path d="M241.25902,145.99832c0.41851,0.96581 0.1529,0.86995 -0.04536,1.14895c-0.28633,0.21461 -5.05131,0.07964 -7.54032,-0.32815c-2.55509,-0.49362 -5.96008,-1.18552 -7.10543,-1.40013c-5.96919,-0.98729 -3.10256,-2.38553 5.28949,-2.53575c5.30838,-0.06434 8.67472,1.4195 9.40162,3.11507z" data-paper-data="{&quot;noHover&quot;:false,&quot;origItem&quot;:[&quot;Path&quot;,{&quot;applyMatrix&quot;:true,&quot;segments&quot;:[[[698.98847,304.80029],[1.88282,-0.02282],[-2.97656,0.05328]],[[697.24629,305.59961],[-2.1172,-0.35018],[0.40624,0.07612]],[[699.58223,306.04875],[-0.90626,-0.17508],[0.88282,0.14464]],[[701.34785,306.19339],[-0.10156,0.07612],[0.07032,-0.09896]],[[701.22285,305.40169],[0.14844,0.34256],[-0.25782,-0.6014]]],&quot;closed&quot;:true,&quot;fillColor&quot;:[0,0,0,1]}]}" fill="#ffffff" stroke-width="0.5"/><path d="M250.27961,144.3021c8.44162,2.78898 3.99188,3.26958 -1.84514,3.26958c-2.55788,0 -7.22486,-0.2805 -7.94233,-0.58122c-0.66027,-0.27675 -0.18571,0.13034 0.19704,-0.50366c1.94441,-3.22066 4.61248,-4.28802 9.59043,-2.18471z" data-paper-data="{&quot;noHover&quot;:false,&quot;origItem&quot;:[&quot;Path&quot;,{&quot;applyMatrix&quot;:true,&quot;segments&quot;:[[[703.08221,305.69857],[0,-1.07336],[0,0.5481]],[[704.89471,306.26951],[-1.74218,0],[2.07032,0]],[[705.46503,305.24943],[1.66406,0.7232],[-1.76562,-0.74602]]],&quot;closed&quot;:true,&quot;fillColor&quot;:[0,0,0,1]}]}" fill="#ffffff" stroke-width="0.5"/><path d="M219.07048,145.80736c0.13217,0 3.48834,0.60069 7.51915,1.30898c3.96478,0.77268 9.01105,1.83178 11.01546,2.45419c3.34801,1.11608 4.28955,1.27413 8.5847,0.22245c4.62553,-1.18042 12.83218,-1.55965 12.83218,-0.63676c0,0.96581 -5.10409,5.27718 -9.06887,7.50927c-3.63435,2.03898 -4.85441,2.42686 -9.61211,2.42686c-6.10131,0 -8.99287,-1.23946 -14.56554,-5.59635c-2.88547,-2.31792 -7.58607,-7.68859 -6.70502,-7.68859z" data-paper-data="{&quot;noHover&quot;:false,&quot;origItem&quot;:[&quot;Path&quot;,{&quot;applyMatrix&quot;:true,&quot;segments&quot;:[[[694.58221,305.77469],[0,0],[-0.3125,0]],[[696.96503,308.46191],[-1.02344,-0.82214],[1.97656,1.54534]],[[702.01191,310.35743],[-2.16406,0],[1.6875,0]],[[705.34785,309.55811],[-1.28906,0.7232],[1.40626,-0.7917]],[[708.55879,306.94701],[0,0.34256],[0,-0.32734]],[[704.01191,307.19061],[1.64062,-0.41868],[-1.52344,0.37302]],[[701.10567,307.16777],[1.1875,0.39586],[-0.71094,-0.22076]],[[697.24629,306.24665],[1.40626,0.27406],[-1.42968,-0.25122]],[[694.58223,305.77467],[0.04688,0],[0,0]]],&quot;closed&quot;:true,&quot;fillColor&quot;:[0,0,0,1]}]}" fill="#ffffff" stroke-width="0.5"/></g><path d="M244.46206,114.53523c0,0 0.1026,3.96976 0.00576,7.12662c-0.19174,6.25113 -1.08147,27.7607 -1.08147,27.7607l-2.98167,0.00864c0,0 -0.80294,-4.17274 -1.12322,-9.49979c-0.43353,-7.21063 -0.4495,-16.29321 -0.76344,-19.63229c-0.29758,-3.16513 2.05645,-8.85738 2.05645,-8.85738" fill="#ffffff" stroke="#000000" stroke-width="1.3" stroke-linecap="round"/><path d="M193.05359,130.96377c0,0 2.31966,-1.65316 4.33123,-3.35468c0.222,1.15097 0.44997,2.30031 0.68833,3.44631c-3.11935,0.40629 -5.01956,-0.09163 -5.01956,-0.09163z" fill="#402b6b" stroke="none" stroke-width="1.5" stroke-linecap="butt"/><path d="M193.01946,124.96558c0,0 1.47842,-1.41658 3.19122,-3.6178c0.19853,1.06353 0.3953,2.12829 0.59382,3.19293c-2.12225,0.44698 -3.78503,0.42487 -3.78503,0.42487z" fill="#402b6b" stroke="none" stroke-width="1.5" stroke-linecap="butt"/><path d="M209.14409,81.07224c-0.62,-1.08007 -1.24129,-2.15824 -1.86446,-3.23396c0.13733,-0.33094 0.27958,-0.66239 0.42695,-0.99401c0.47917,1.40932 0.95834,2.81865 1.43751,4.22797z" fill="#402b6b" stroke="none" stroke-width="1.5" stroke-linecap="butt"/><path d="M227.84064,154.11828c0.05766,0.103 0.11534,0.20599 0.17306,0.30897c-0.01058,-0.00448 -0.02114,-0.00897 -0.03171,-0.01345c-0.04722,-0.09846 -0.09433,-0.19697 -0.14135,-0.29552z" fill="#402b6b" stroke="none" stroke-width="1.5" stroke-linecap="butt"/><path d="M223.43316,78.01608c-0.47434,0.15811 -0.63245,-0.31623 -0.63245,-0.31623l-0.15209,-0.46162c-2.14338,-4.03649 -3.96401,-8.46059 -5.83047,-12.66008c0,0 -0.20307,-0.45691 0.25383,-0.65998c0.45691,-0.20307 0.65998,0.25383 0.65998,0.25383c1.87109,4.20992 3.70372,8.61763 5.8362,12.67324l0.18123,0.53838c0,0 0.15811,0.47434 -0.31623,0.63245z" fill="#402b6b" stroke="none" stroke-width="0.5" stroke-linecap="butt"/><path d="M231.46198,78.06196c-0.35355,0.35356 -0.70711,0.00002 -0.70711,0.00002l-0.22915,-0.24288c-1.25715,-1.91311 -1.69561,-4.38557 -2.4918,-6.51665c-0.96077,-2.57157 -2.46071,-5.13371 -2.9187,-7.84517c0,0 -0.08219,-0.4932 0.411,-0.57539c0.4932,-0.08219 0.57539,0.411 0.57539,0.411c0.43326,2.63899 1.93534,5.15711 2.86914,7.65978c0.76035,2.03781 1.15836,4.50135 2.38702,6.31173l0.10419,0.09045c0,0 0.35356,0.35355 0.00002,0.70711z" fill="#402b6b" stroke="none" stroke-width="0.5" stroke-linecap="butt"/><path d="M237.27505,82.87505c-0.5,0 -0.5,-0.5 -0.5,-0.5v-0.16667c0.02863,-1.86242 -0.53765,-4.28668 -0.99329,-6.08505c-0.45407,-5.53416 -2.75993,-11.5191 -3.99436,-16.9712c0,0 -0.11041,-0.48766 0.37724,-0.59807c0.48766,-0.11041 0.59807,0.37724 0.59807,0.37724c1.24005,5.4769 3.53768,11.46877 4.00564,17.0288c0.47133,1.90939 0.98479,4.27912 1.00671,6.24828v0.16667c0,0 0,0.5 -0.5,0.5z" fill="#402b6b" stroke="none" stroke-width="0.5" stroke-linecap="butt"/><path d="M215.07186,118.23805c0.09313,-6.42302 6.35272,-11.73305 13.40749,-11.63078c7.05476,0.10228 11.85273,5.57813 11.75962,12.00117c-0.09313,6.42302 -5.41417,11.547 -12.46894,11.44473c-7.05476,-0.10228 -12.7913,-5.39208 -12.69817,-11.81511z" fill="url(#color-1)" stroke="none" stroke-width="0" stroke-linecap="butt"/><path d="M217.66982,114.18942c0,0 0.06357,-9.01512 10.60111,-8.8249c9.47101,0.16586 9.55554,9.40723 9.55554,9.40723c0,0 -6.97169,-4.48273 -10.27596,-4.57819c-3.41121,-0.09855 -9.88069,3.99586 -9.88069,3.99586z" fill="#ffffff" stroke="#000000" stroke-width="1.15" stroke-linecap="butt"/><path d="M216.58113,304.40603v-78.01595c3.48977,-2.98289 6.94493,-5.98712 10.4098,-8.91857c8.47939,-7.17657 16.92389,-14.54732 25.20768,-21.94648c3.05758,-2.73106 6.09853,-5.48393 9.15908,-8.21238c0.23095,-0.15863 0.46188,-0.31744 0.69278,-0.47645c6.0489,-4.16633 12.22358,-8.12822 18.36942,-12.13472c0.8245,1.83102 1.37573,3.20186 1.37573,3.20186c0,0 -5.35379,10.83279 -8.21813,12.22361c-2.41862,1.1744 -7.85799,-4.41758 -7.85799,-4.41758v36.86328c-1.66969,0.79634 -5.81183,2.57598 -7.28314,4.14848c-1.19871,1.28116 -1.70162,3.96734 -3.45612,3.96986c-7.35417,0.01056 -13.78545,0.4735 -20.65317,3.2251c-2.24347,0.89886 -5.97369,2.40371 -7.06237,4.70209c-1.85035,3.9064 -2.40157,8.34313 -0.5314,12.4235c0.77525,1.69146 3.34063,3.07592 4.03769,4.84252c0.65059,1.64884 -0.67556,5.6994 0.53176,7.49776c4.86338,7.24423 9.94292,5.06164 15.94314,8.91475c6.02562,3.86943 11.95892,6.09256 18.4736,5.24819v26.86115z" fill="#6712b1" stroke="#6712b1" stroke-width="2" stroke-linecap="butt"/><path d="" fill="#9966ff" stroke="#6712b1" stroke-width="2" stroke-linecap="butt"/><path d="" fill="#9966ff" stroke="#6712b1" stroke-width="2" stroke-linecap="butt"/></g></g></svg>