<svg version="1.1" xmlns="http://www.w3.org/2000/svg" xmlns:xlink="http://www.w3.org/1999/xlink" width="112.45738" height="264.32706" viewBox="0,0,112.45738,264.32706"><g transform="translate(-185.74413,-48.20089)"><g data-paper-data="{&quot;isPaintingLayer&quot;:true}" fill-rule="nonzero" stroke-linejoin="miter" stroke-miterlimit="10" stroke-dasharray="" stroke-dashoffset="0" style="mix-blend-mode: normal"><path d="M193.76587,306.49774v-253.22501h91.18203v253.22501z" fill-opacity="0.01" fill="#000000" stroke="none" stroke-width="0" stroke-linecap="butt"/><path d="M206.5454,309.39162c0,0 -0.63536,-94.38387 -0.79335,-118.01201c-0.05451,-8.15261 8.18688,-36.76129 40.20201,-36.9211c31.60235,-0.15775 39.85672,29.48704 39.84884,36.89673c-0.07659,46.24274 0.65429,117.98648 0.65429,117.98648l-10.49667,0.09614l-0.15882,-114.84311c0,0 0.07549,-3.0993 -2.81625,-3.15415c-3.43441,-0.06514 -2.94538,3.11562 -2.94538,3.11562l0.20548,114.86995l-48.21366,0.07222l-0.30539,-115.23309c0,0 0.27949,-2.919 -2.8856,-2.93443c-3.11083,-0.01515 -2.81569,2.90899 -2.81569,2.90899l0.35311,115.0668z" fill="#ffffff" stroke="#000000" stroke-width="2" stroke-linecap="butt"/><path d="M261.14252,205.33383c-0.57113,0 -1.03411,-0.46299 -1.03411,-1.03411c0,-0.57113 0.46299,-1.03413 1.03411,-1.03413c0.57113,0 1.03411,0.463 1.03411,1.03413c0,0.57113 -0.46299,1.03411 -1.03411,1.03411z" fill="#000000" stroke="none" stroke-width="1.5" stroke-linecap="butt"/><path d="M255.88268,209.56942c-4.4635,-0.31439 -6.55245,-1.79392 -6.16985,-2.58011c0.11788,-0.24224 2.84645,1.06355 6.97038,1.3048c6.40897,0.37493 8.51033,-0.63173 8.51033,-0.63173v1.34616c0,0 -2.4135,1.04672 -9.31086,0.56089z" fill="#000000" stroke="#000000" stroke-width="0" stroke-linecap="butt"/><path d="M228.06993,204.29972c0,-0.57113 0.46299,-1.03413 1.03411,-1.03413c0.57113,0 1.03413,0.463 1.03413,1.03413c0,0.57113 -0.463,1.03411 -1.03413,1.03411c-0.57113,0 -1.03411,-0.46299 -1.03411,-1.03411z" fill="#000000" stroke="none" stroke-width="1.5" stroke-linecap="butt"/><path d="M234.36392,209.56942c-6.89736,0.48585 -9.31086,-0.56089 -9.31086,-0.56089v-1.34616c0,0 2.10136,1.00666 8.51033,0.63173c4.12393,-0.24126 6.85251,-1.54704 6.97039,-1.3048c0.3826,0.78618 -1.70634,2.26571 -6.16985,2.58011z" fill="#000000" stroke="#000000" stroke-width="0" stroke-linecap="butt"/><path d="M245.64439,266.12113c-0.81895,0 -1.48284,-0.66389 -1.48284,-1.48284c0,-0.81895 0.66389,-1.48284 1.48284,-1.48284c0.81895,0 1.48284,0.66389 1.48284,1.48284c0,0.81895 -0.66389,1.48284 -1.48284,1.48284z" data-paper-data="{&quot;index&quot;:null}" fill="#000000" stroke="none" stroke-width="1.5" stroke-linecap="butt"/><path d="M194.40908,103.76538c0,0 6.16329,-5.92187 6.29161,-6.78761c0.33654,-2.27063 -0.16776,-40.17317 35.96775,-41.57382c44.63633,-0.91362 39.01489,35.34872 41.53088,42.1903c3.44981,9.38084 6.15664,17.40016 6.15664,17.40016c0,0 -2.76715,-2.05351 -4.0797,-3.13397c-1.2242,-1.00773 -3.80143,-3.14585 -3.80143,-3.14585c0,0 3.09111,10.3481 1.31092,20.69498c-1.5623,9.48098 -7.29782,17.22543 -7.29782,17.22543l-1.15522,-2.34735c0,0 -1.02266,2.19794 -2.16005,3.33274c-1.1374,1.13479 -3.43873,2.91273 -3.43873,2.91273l-0.09205,-3.70421c0,0 -7.0601,11.01795 -24.35066,10.87154c-16.30625,-0.25547 -26.07151,-10.6752 -26.07151,-10.6752l-0.1162,2.65484c0,0 -3.89477,-3.29276 -6.18145,-9.70754c-2.72545,-7.64567 -3.23946,-12.24324 -3.23946,-12.24324c0,0 -2.33908,1.89916 -5.71704,2.7744c-4.23278,1.09673 -6.94665,0.34526 -6.94665,0.34526c0,0 3.60795,-2.71717 5.58396,-4.76989c1.76007,-1.8284 2.64658,-3.37722 2.64658,-3.37722c0,0 -2.10758,1.0847 -4.23277,1.61795c-2.21739,0.5564 -4.03008,0.53093 -4.03008,0.53093c0,0 4.97492,-5.03728 7.03074,-10.87429c1.94102,-5.51108 2.09972,-10.95731 2.09972,-10.95731c0,0 -1.36165,0.66163 -3.33013,0.79513c-1.24776,0.08463 -2.37785,-0.0489 -2.37785,-0.0489z" fill="#000000" stroke="none" stroke-width="1.5" stroke-linecap="butt"/><path d="M211.19496,115.087c-0.57709,-7.29323 0.335,-17.15448 0.335,-17.15448c0,0 3.41059,-0.04124 13.91429,-3.14424c8.0696,-2.38394 20.54731,-9.48722 20.54731,-9.48722c0,0 -2.16005,3.00503 -3.40781,4.46015c-1.32651,1.54696 -3.99292,4.56297 -3.99292,4.56297c0,0 7.838,-1.66761 14.67476,-4.72931c8.56837,-3.53575 10.59252,-6.05309 12.95042,-4.5927c2.7829,1.72362 1.03006,23.1827 0.71846,28.74062c-0.42163,5.66922 -2.53327,9.49969 -3.15031,12.52053c-0.61704,3.02084 -0.4096,6.13662 -2.20622,16.0397c-1.12121,6.18021 -4.16183,8.92466 -10.01942,14.66081c-5.85759,5.73616 -9.05378,9.25275 -13.01359,9.32173c-3.81077,0.06639 -8.93565,-5.1002 -13.93542,-10.38244c-5.32393,-5.62474 -8.87489,-8.47713 -9.71551,-15.13975c-0.75707,-6.00039 -0.77653,-9.90853 -1.12266,-15.24835c-0.25298,-3.90273 -2.26119,-6.44504 -2.57636,-10.42801z" fill="#ffffff" stroke="#000000" stroke-width="1.5" stroke-linecap="butt"/><path d="M203.99254,203.83116c0,0 -5.77145,-15.15664 -2.7702,-22.32603c3.62433,-8.65781 25.66833,-24.66959 25.66833,-24.66959l-1.90081,46.66056z" fill="#6712b1" stroke="#402b6b" stroke-width="2" stroke-linecap="butt"/><path d="M267.59139,203.4961l-1.90081,-46.66056c0,0 22.04399,16.01177 25.66833,24.66959c3.00125,7.16939 -2.7702,22.32603 -2.7702,22.32603z" data-paper-data="{&quot;index&quot;:null}" fill="#6712b1" stroke="#402b6b" stroke-width="2" stroke-linecap="butt"/><path d="M226.52497,307.00005l-1,-148h41.5l-1,149z" fill="#9966ff" stroke="#402b6b" stroke-width="2" stroke-linecap="butt"/><path d="M259.16492,100.0371c0,0 1.52856,0.2969 4.27078,1.05117c2.50471,0.68895 4.47311,1.68217 4.47311,1.68217l0.21131,1.16754c0,0 -7.29233,-3.02914 -15.1486,-2.26078c-6.28168,0.61439 -9.92323,2.95027 -9.92323,2.95027l-0.01217,-4.17706c0,0 3.10355,-1.74741 7.83718,-1.96443c4.90163,-0.22471 8.09826,0.47901 8.09826,0.47901z" data-paper-data="{&quot;index&quot;:null}" fill="#000000" stroke="none" stroke-width="1.5" stroke-linecap="butt"/><path d="M245.77494,165.75l-1,140.5" fill="none" stroke="#402b6b" stroke-width="3" stroke-linecap="round"/><path d="M221.27494,311.00002c0,0 -0.37231,-45.10117 -1.18437,-79.73395c-0.35787,-15.26236 0.37859,-42.08878 1.80271,-48.80885c2.32452,-10.96884 -1.14632,-21.21836 1.64246,-25.36795c4.13365,-6.15069 14.2392,-3.08925 14.2392,-3.08925l1.5,156.5z" fill="#6712b1" stroke="#402b6b" stroke-width="2" stroke-linecap="butt"/><path d="M251.00093,311.00002l1.5,-156.5c0,0 10.10555,-3.06145 14.2392,3.08925c2.78879,4.14959 -0.68206,14.39911 1.64246,25.36795c1.42412,6.72007 2.16058,33.54648 1.80272,48.80884c-0.81206,34.63278 -1.18438,79.73396 -1.18438,79.73396z" data-paper-data="{&quot;index&quot;:null}" fill="#6712b1" stroke="#402b6b" stroke-width="2" stroke-linecap="butt"/><path d="M238.82712,144.51406c-1.03376,0 -3.5381,-3.26042 -3.7867,-5.3637c-0.22243,-1.88186 1.31512,-3.82799 3.7867,-3.82799c2.47159,0 4.2021,0.49077 4.02999,4.18853c-0.14607,3.13818 -1.55841,5.00317 -4.02999,5.00317z" fill="#ffffff" stroke="#000000" stroke-width="1.15" stroke-linecap="butt"/><path d="M212.89462,125.21022c0,0 -4.93211,-3.51705 -6.16417,-8.97502c-1.29636,-5.74284 -1.46118,-9.7328 0.48013,-9.99193c1.94131,-0.25915 2.70321,2.37692 3.73262,8.35569c1.0294,5.97877 1.95143,10.61127 1.95143,10.61127z" data-paper-data="{&quot;index&quot;:null}" fill="#ffffff" stroke="#000000" stroke-width="1" stroke-linecap="butt"/><path d="M212.69201,121.26266c0,0 -3.56385,-2.92338 -4.31816,-8.45061c-0.42079,-3.08327 2.15675,-2.28016 2.15675,-2.28016" fill="none" stroke="#000000" stroke-width="0.25" stroke-linecap="round"/><path d="M215.70543,114.60676c0.07093,-4.89188 4.83834,-8.93609 10.21137,-8.8582c5.37302,0.0779 9.02724,4.2484 8.95632,9.14029c-0.07093,4.89188 -4.12352,8.79439 -9.49655,8.7165c-5.37302,-0.0779 -9.74207,-4.1067 -9.67114,-8.99859z" fill="#ffffff" stroke="#000000" stroke-width="1.4" stroke-linecap="butt"/><path d="M220.14304,114.7247c0.03999,-2.75843 2.30855,-4.96213 5.06696,-4.92214c2.75843,0.03999 4.96213,2.30855 4.92214,5.06696c-0.03999,2.75843 -2.30854,4.96213 -5.06696,4.92214c-2.75843,-0.03999 -4.96213,-2.30855 -4.92214,-5.06696z" fill="#000000" stroke="none" stroke-width="1.5" stroke-linecap="butt"/><path d="M242.76168,114.60749c0.20353,-4.88817 4.45264,-8.85847 9.77048,-8.85847c5.31783,0 9.27453,3.96607 9.27453,8.85847c0,4.8924 -3.88585,9.07104 -9.69964,9.14188c-5.52997,0.06739 -9.55792,-4.03692 -9.34537,-9.14188z" fill="#ffffff" stroke="#000000" stroke-width="1.4" stroke-linecap="butt"/><path d="M247.41443,115.19304c0,-2.81845 2.2848,-5.10325 5.10325,-5.10325c2.81845,0 5.10325,2.2848 5.10325,5.10325c0,2.81845 -2.28479,5.10325 -5.10325,5.10325c-2.81845,0 -5.10325,-2.2848 -5.10325,-5.10325z" fill="#000000" stroke="none" stroke-width="1.5" stroke-linecap="butt"/><path d="M215.63699,114.07458c0,0 0.06357,-9.01512 10.60111,-8.8249c9.47101,0.16586 9.55554,9.40723 9.55554,9.40723z" fill="#ffffff" stroke="#000000" stroke-width="1.15" stroke-linecap="butt"/><path d="M219.16684,104.06292c0,0 3.36963,-1.819 8.03244,-2.28178c5.16698,-0.51283 7.76823,-0.06628 7.76823,-0.06628l0.29508,4.13747c0,0 -3.83554,-0.68065 -8.01795,-0.52113c-5.59346,0.21333 -6.64488,1.43293 -10.89774,1.89119c-3.64408,0.39266 -6.73723,0.15884 -6.73723,0.15884l-0.02589,-1.23155c0,0 3.59517,0.07398 5.23371,-0.06836c1.35239,-0.11749 3.9757,-0.93808 3.9757,-0.93808z" fill="#000000" stroke="none" stroke-width="1.5" stroke-linecap="butt"/><path d="M267.12777,114.59895c1.0294,-5.97877 1.7913,-8.61483 3.73262,-8.35569c1.94131,0.25914 1.77649,4.24909 0.48013,9.99193c-1.23206,5.45797 -6.16417,8.97502 -6.16417,8.97502c0,0 0.92203,-4.6325 1.95143,-10.61127z" data-paper-data="{&quot;index&quot;:null}" fill="#ffffff" stroke="#000000" stroke-width="1" stroke-linecap="butt"/><path d="M267.54028,110.53189c0,0 2.57754,-0.80312 2.15675,2.28016c-0.75431,5.52723 -4.31816,8.45061 -4.31816,8.45061" data-paper-data="{&quot;index&quot;:null}" fill="none" stroke="#000000" stroke-width="0.25" stroke-linecap="round"/><g stroke="none" stroke-width="0" stroke-linecap="butt"><path d="M252.6842,119.38613c5.79255,-0.20807 10.04223,-2.75937 10.04223,-2.75937c0,0 -1.19261,7.91273 -10.32208,7.81241c-8.7092,-0.09569 -9.82565,-6.81522 -9.82565,-6.81522c0,0 3.90713,1.98483 10.10552,1.76218z" fill="#000000"/><path d="M252.75721,120.95843c4.95788,-0.16765 7.83784,-1.87065 7.83784,-1.87065c0,0 -1.68324,3.81822 -7.6866,3.81852c-6.00336,0.00029 -7.9024,-3.38783 -7.9024,-3.38783c0,0 3.11636,1.52966 7.75117,1.43997z" fill="#ffffff"/><g><path d="M241.60971,115.48784c0,0 0.10135,-10.403 11.9029,-10.52355c10.87483,-0.11109 10.95383,10.63333 10.95383,10.63333c0,0 -5.41784,-2.1721 -11.56089,-2.41753c-6.57343,-0.26263 -11.29584,2.30776 -11.29584,2.30776z" fill="#000000"/><path d="M243.7807,113.2997c0,0 0.23299,-6.86487 9.98895,-6.86446c8.16035,0.00034 8.93706,7.14987 8.93706,7.14987c0,0 -3.09951,-1.33913 -9.84474,-1.45633c-6.08948,-0.1058 -9.08128,1.17091 -9.08128,1.17091z" fill="#ffffff"/></g></g><path d="M233.307,51.55991c0.14675,-0.13282 0.26514,-0.32927 0.5616,-0.48707c2.39876,-2.13294 6.87422,-4.31629 9.37539,-1.09768c2.71257,1.28564 6.79716,2.09141 9.88659,2.06829c3.48861,-0.00021 6.92654,-1.68919 10.34418,-1.15796c1.98369,0.30834 2.35633,4.24662 2.90236,6.07952c0.07864,0.26398 0.29323,1.65568 0.46586,1.77736c0.36873,0.2599 0.61296,-0.3765 0.6005,-0.58254c0.26095,-0.8062 2.19649,-4.85406 3.25378,-4.75591c0.81829,0.07596 1.92096,3.92662 2.25673,4.68009c0.50949,1.82088 2.20319,9.18662 4.05953,7.11933c2.17936,-2.71719 4.33155,-5.54885 6.74055,-8.06527c0.56166,-0.58671 3.43912,-4.25745 4.37847,-3.6675c0.64309,0.40389 -0.22651,4.44442 -0.2388,5.19267c-0.05724,3.48474 -0.78126,6.91135 -1.12294,10.40765c-0.1578,1.61476 -0.48003,10.07934 3.20003,6.98758c1.16628,-0.0382 4.34083,-0.82924 5.22158,0.25724c1.08642,1.3402 -0.6945,3.94543 -1.11432,5.34072c-0.16217,0.53896 -1.17744,2.2121 -1.09264,2.66633c0.15966,0.85511 2.35773,0.90888 2.90224,1.57294c0.76078,0.9278 1.44294,2.42957 1.91586,3.55537c0.74551,1.78858 -1.50206,3.23627 -2.71807,4.47721c-0.18723,0.19107 -1.15203,1.16318 -1.12814,1.40445c0.03638,0.36736 1.37112,1.96041 1.59925,2.17169c1.1998,1.24709 2.91016,4.79863 2.61023,6.59092c-0.15446,0.92303 -1.23993,2.23612 -1.70611,3.0724c-0.50631,2.21276 -3.95243,4.50503 -3.86795,6.82341c0.0255,0.6997 0.46273,1.6425 0.56863,2.39192c0.34988,2.47604 0.66959,4.95659 0.99692,7.43571c0.13724,1.03939 0.88588,2.63867 -0.6062,2.7067c-2.37137,-0.48711 -4.35557,-1.57735 -6.46695,-2.75678c-0.41087,-0.22952 -1.1586,-0.51232 -1.69192,-0.87414c0.22599,0.38169 0.40792,0.78738 0.6098,1.19112c0.50606,1.01182 2.04389,3.16392 1.46751,4.36361c-0.83756,1.74331 -5.03479,-2.62503 -3.90795,-0.17996c0.78137,1.70962 2.1213,5.10668 1.20352,6.97497c-0.63428,1.29119 -2.04006,-0.82966 -2.97972,0.32288c-0.40786,0.64767 0.17315,3.77729 -0.75626,3.96977c-0.71164,0.14738 -0.99121,-1.58026 -1.993,-0.84112c-0.34675,0.25584 -1.18951,3.18622 -1.39603,3.74045c-0.64038,-0.43082 -1.38362,-1.29932 -2.0815,-1.57236c-0.99798,-0.39045 -0.34366,0.96217 -1.38789,0.89746c-1.22105,-0.07567 -2.25623,-2.5129 -3.42953,-2.89007c-0.44633,-0.14348 -0.86363,0.30719 -1.45618,0.23406c-0.89634,-1.35761 -3.34056,-4.25116 -3.20014,-5.87614c0.09894,-1.1449 1.28155,-2.58679 1.8437,-3.62173c1.99651,-2.98631 3.28601,-5.94833 4.50164,-9.34646c1.16786,-3.26462 1.45367,-6.70037 1.2857,-10.19452c-0.15233,-3.20353 -1.81037,-6.78902 -3.07944,-9.7471c-0.71811,-1.67383 -1.41313,-3.39803 -2.21179,-4.96735c-0.14602,-0.28691 -0.46898,-2.05629 -0.82871,-2.11358c-0.79907,-0.12728 -1.09864,1.25155 -1.83291,1.59149c-1.89355,-0.33621 -1.44273,-3.34925 -2.92674,-4.45643c-0.82119,-0.61267 -3.30589,1.71535 -3.98104,2.18789c-2.15396,1.50753 -4.33459,3.28822 -6.71241,4.40925c-0.84443,0.39811 -1.63148,1.06588 -2.46479,0.44819c-0.71991,-0.34423 -2.16437,-2.45797 -2.96003,-2.21464c-1.92466,0.58861 -3.56472,2.509 -5.20945,3.5961c-0.96187,0.63575 -3.24858,2.69222 -4.41599,2.63087c-1.73224,-0.09103 -1.70687,-3.60436 -3.77897,-3.55432c-1.32032,0.00809 -2.83224,0.79861 -4.0403,1.34397c-2.01535,0.90979 -3.48664,0.53793 -5.32859,1.93496c-0.39984,0.61484 -1.62898,1.59396 -2.44234,0.98969c-0.45575,-0.33859 -0.50861,-1.79488 -1.30981,-1.89286c-0.85808,-0.10493 -2.18256,2.19977 -3.16295,2.28656c-0.64965,0.05751 -0.89904,-0.7594 -1.25341,-1.12261c-1.20791,-1.94566 -3.97542,2.88861 -5.27269,2.31124c-0.54548,-0.24277 -1.14816,-3.38522 -1.97677,-2.18622c-0.65164,3.61925 -3.17307,5.86245 -3.31596,9.57932c-0.13703,3.49508 -0.30331,6.93824 -0.2696,10.46097c0.03328,3.59279 1.44659,6.82577 1.69747,10.25792c0.84978,3.28649 2.25966,6.60023 3.38637,9.85442c0.63367,1.90681 -2.88863,5.54611 -4.32979,6.56662c-0.80486,0.56993 -1.41464,1.52893 -2.26855,0.8015c-0.58555,-0.86649 0.51874,-3.31532 -0.02895,-3.78476c-0.00982,-0.00842 -1.12297,1.73063 -1.22573,1.85563c-0.9283,1.12921 -1.92014,2.11526 -3.30255,2.63906c-0.25582,-1.45166 -0.28823,-3.28934 -0.05767,-4.75485c0.03181,-0.20217 0.70053,-2.11268 0.60944,-2.1618c-0.31962,-0.17234 -2.06336,1.85388 -2.38295,2.07665c-0.46865,0.4648 -2.82708,3.36572 -3.4775,3.16816c-0.31367,-0.09528 -0.48306,-1.41477 -0.48516,-1.67841c-0.01208,-1.51241 -0.33136,-2.96639 -0.33502,-4.47305c-0.00771,-3.19588 -2.89001,1.37213 -3.83853,1.1778c-1.13376,-0.23228 -0.11886,-3.9113 -0.04396,-4.6551c0.14401,-1.43003 0.73206,-4.50299 -0.17929,-5.75615c-0.84538,-1.16245 -2.93592,3.53429 -2.93572,0.17371c0.00226,-3.5935 0.74513,-6.94191 2.23194,-10.23508c0.49619,-1.09307 0.21759,-1.70388 0.22282,-2.80069c0.01071,-2.24561 1.40527,-5.12088 2.006,-7.29557c0.89214,-3.22963 2.89102,-6.78458 0.22998,-9.47943c-2.29704,-2.8713 -3.69747,-6.769 -0.45184,-9.36211c3.23483,-2.52807 -0.43481,-5.40126 -0.08563,-8.37791l-0.08681,-0.00935l0.05321,-0.4942c0.012,-0.12689 0.11885,-0.22616 0.24888,-0.22616c0.09898,0 0.18452,0.05752 0.22503,0.14095l0.20783,0.4065c1.22975,1.05448 4.27217,-1.47844 4.87743,-2.53852c-0.00695,-3.20089 1.50382,-7.15473 2.58852,-10.08585c1.23436,-3.28988 1.53774,-6.70972 2.94348,-10.02613c0.44469,-1.04912 0.79138,-3.20421 2.17668,-3.4377c0.95427,-0.16084 3.0558,3.01676 3.46011,4.27907l0.00112,-0.0007l0.00721,-0.02278l0.01959,0.0062l0.00273,-0.00169l-0.0052,-0.04551c0.36049,-0.46748 0.51136,-0.7028 0.58694,-1.28991c1.55942,-3.11377 3.27632,-6.34182 5.513,-9.02187c3.2982,-3.95199 4.08293,6.71631 6.70879,2.71284c0.0238,-1.84763 1.66588,-3.80836 2.38105,-5.4835c0.2353,-0.55113 0.45395,-1.52933 0.98495,-1.87578c0.6515,-0.42508 1.88463,0.35298 2.50294,0.73835c2.41181,1.51279 5.34328,1.55158 8.01219,2.49714z" fill="#000000" stroke="none" stroke-width="0.5" stroke-linecap="butt"/><path d="M271.11711,104.63522l-3.5,2.5" fill="none" stroke="#402b6b" stroke-width="3" stroke-linecap="round"/><path d="M205.86711,105.38522l5.5,4.5" fill="none" stroke="#402b6b" stroke-width="3" stroke-linecap="round"/><g stroke-linecap="butt"><path d="M237.96599,163.58059c-12.62708,-0.3058 -18.40476,-12.99582 -18.40476,-16.30953c0,-3.31371 11.95358,-0.2381 18.85714,-0.2381c6.90356,0 18.7619,-1.09942 18.7619,2.21429c0,3.31371 -6.31779,14.64566 -19.21429,14.33334z" fill="#000000" stroke="none" stroke-width="0"/><path d="M236.7279,163.29489c-9.19746,-0.18114 -17.6277,-16.36223 -17.6277,-16.36223l5.88336,-1.15834c0,0 4.04419,12.42721 12.89416,12.38141c10.47488,-0.05421 14.27875,-10.28941 14.27875,-10.28941l5.80101,1.46535c0,0 -5.0356,14.28217 -21.22958,13.96322z" fill="#ffffff" stroke="none" stroke-width="0"/><path d="M239.97351,146.23475c0.24666,0.0234 0.6086,-1.44147 2.34631,-2.08459c1.67939,-0.62153 4.07183,-0.42472 5.53918,-0.25563c1.61805,0.54491 10.03261,4.51373 10.03261,4.51373c0,0 -7.35924,0.71929 -10.57295,1.12073c-2.69313,0.33641 -7.62499,1.1275 -7.62499,1.1275l-20.10897,-4.41101c0,0 1.85053,-0.41485 4.59385,-1.34455c3.16904,-1.07398 4.04458,-1.54001 5.02564,-1.667c2.33124,-0.30176 5.0884,-0.29325 7.71556,0.55526c2.81497,0.90917 2.80847,2.42228 3.05375,2.44555z" fill="#ffffff" stroke="#000000" stroke-width="1.25"/><path d="M238.29821,169.58444c-20.14274,0.36386 -19.94817,-23.17 -19.94817,-23.17c0,0 3.74023,-0.19345 5.59805,3.29985c1.95451,3.67511 5.03118,11.26507 14.15209,11.46926c8.25391,0.18479 11.15973,-4.45993 14.51838,-9.54526c2.17091,-3.28697 5.38484,-2.76711 5.38484,-2.76711c0,0 1.58265,20.3287 -19.70519,20.71325z" fill="#ffffff" stroke="#000000" stroke-width="1.9"/></g><path d="M242.42921,114.42038c0,0 0.1026,3.96976 0.00576,7.12662c-0.19174,6.25113 -1.08147,27.7607 -1.08147,27.7607l-2.98167,0.00864c0,0 -0.80294,-4.17274 -1.12322,-9.49979c-0.43353,-7.21063 -0.4495,-16.29321 -0.76344,-19.63229c-0.29758,-3.16513 -0.89593,-5.71453 -0.89593,-5.71453" fill="#ffffff" stroke="#000000" stroke-width="1.3" stroke-linecap="round"/><path d="M212.49405,129.62682v-24h54.66667v24c0,0 -12.86913,4.37248 -21.56159,0.11862c-3.36114,-1.64485 -3.26285,-14.78529 -5.77174,-14.78529c-3.2241,0 -3.86924,11.4603 -8.11372,13.79308c-7.89288,4.33795 -19.21961,0.87359 -19.21961,0.87359z" fill="#9966ff" stroke="#402b6b" stroke-width="2.5" stroke-linecap="butt"/></g></g></svg>