<svg version="1.1" xmlns="http://www.w3.org/2000/svg" xmlns:xlink="http://www.w3.org/1999/xlink" width="92.94103" height="258.94285" viewBox="0,0,92.94103,258.94285"><defs><linearGradient x1="227.19396" y1="-169.1815" x2="227.19396" y2="358.49558" gradientUnits="userSpaceOnUse" id="color-1"><stop offset="0" stop-color="#000000"/><stop offset="1" stop-color="#000000" stop-opacity="0"/></linearGradient><linearGradient x1="253.46296" y1="-168.1815" x2="253.46296" y2="359.49558" gradientUnits="userSpaceOnUse" id="color-2"><stop offset="0" stop-color="#000000"/><stop offset="1" stop-color="#000000" stop-opacity="0"/></linearGradient></defs><g transform="translate(-193.52949,-46.55702)"><g data-paper-data="{&quot;isPaintingLayer&quot;:true}" fill-rule="nonzero" stroke-linejoin="miter" stroke-miterlimit="10" stroke-dasharray="" stroke-dashoffset="0" style="mix-blend-mode: normal"><path d="M195.05249,299.78203v-253.22501h91.18203v253.22501z" fill-opacity="0.01" fill="#000000" stroke="none" stroke-width="0" stroke-linecap="butt"/><path d="M200.75203,186.3796c-0.05451,-8.15261 8.18688,-36.76129 40.20201,-36.9211c31.60235,-0.15775 39.85672,29.48704 39.84884,36.89673c-0.0188,11.35257 0.01106,24.24207 0.06683,37.22967c-2.54077,-0.07752 -5.06977,-0.26595 -7.59424,-0.64758c-0.81207,-0.12273 -1.62122,-0.25349 -2.42822,-0.39177l-0.04557,-32.95081c0,0 0.07549,-3.0993 -2.81625,-3.15415c-3.43441,-0.06514 -2.94538,3.11562 -2.94538,3.11562l0.05702,31.87785c-0.70409,-0.15058 -1.40789,-0.30604 -2.11191,-0.46604c-3.42496,-0.77837 -6.84902,-1.4607 -10.31521,-2.02467c-3.43908,-0.55956 -6.84464,-1.46408 -10.24453,-2.22634c-3.40092,-0.76249 -6.74257,-1.82608 -10.0193,-3.0055c-3.29409,-1.18566 -6.59158,-2.32333 -9.83976,-3.63113c-1.92152,-0.77366 -3.87133,-1.54703 -5.79101,-2.37447l-0.04887,-18.44061c0,0 0.27949,-2.919 -2.8856,-2.93443c-3.11083,-0.01515 -2.81569,2.90899 -2.81569,2.90899l0.04835,15.75487c-2.46803,-1.26359 -4.86919,-2.57196 -7.27099,-4.0036c-1.00596,-0.59962 -2.01807,-1.26005 -2.96598,-1.99883c-0.03474,-5.17701 -0.06377,-9.50632 -0.08454,-12.61269z" fill="#ffffff" stroke="#000000" stroke-width="2" stroke-linecap="butt"/><path d="M264.18334,198.73334l0.33333,-42.83333c0,0 2.60448,1.08741 3.80852,1.87144c1.18453,0.77132 3.02481,3.96189 3.02481,3.96189l0.33333,37z" fill="#99670f" stroke="none" stroke-width="0" stroke-linecap="butt"/><path d="M263.85002,199.90001v-9.16667h8v9.16667z" fill="#68450a" stroke="none" stroke-width="0" stroke-linecap="butt"/><path d="M281.45718,304.34171l-10.49667,0.09614l-0.11255,-81.38492c0.782,0.13346 1.56604,0.25987 2.3528,0.37878c2.55,0.38529 5.10458,0.57552 7.67112,0.65341c0.1727,39.75543 0.5853,80.25659 0.5853,80.25659z" fill="#000000" stroke="#000000" stroke-width="2" stroke-linecap="butt"/><path d="M201.5454,304.3916c0,0 -0.47344,-70.3304 -0.70458,-104.76805c0.87275,0.65672 1.79099,1.25179 2.70573,1.79704c2.48516,1.48133 4.97045,2.8317 7.52873,4.13649l0.30304,98.74955z" fill="#000000" stroke="#000000" stroke-width="2" stroke-linecap="butt"/><path d="M265.24554,304.42616l-48.21366,0.07222l-0.25508,-96.24777c1.85896,0.79685 3.74403,1.54518 5.60282,2.29358c3.25395,1.31013 6.55725,2.45001 9.85718,3.63777c3.29626,1.18645 6.65805,2.2559 10.07925,3.02293c3.40958,0.76443 6.82473,1.6708 10.27362,2.23196c3.45598,0.56231 6.86982,1.24265 10.2847,2.01873c0.74125,0.16846 1.48227,0.33191 2.22363,0.48994z" fill="#000000" stroke="#000000" stroke-width="2" stroke-linecap="butt"/><path d="M270.07,259.28l-0.2,-15h12.6v25.8c0,0 -5.62083,-2.8504 -7.74118,-4.69716c-2.00671,-1.74778 -4.65882,-6.10284 -4.65882,-6.10284z" fill="#191919" stroke="none" stroke-width="0" stroke-linecap="butt"/><path d="M215.67,250.28001v-8c0,0 37.18748,-14.4 45.8,-14.4c3.72352,0 5,14.4 5,14.4v8l-7.8,-14.4c0,0 -18.62065,12.99402 -23.2,14.4c-16.93662,5.2 -19.8,0 -19.8,0z" fill="#191919" stroke="none" stroke-width="0" stroke-linecap="butt"/><path d="M200.07,239.08001l-0.2,-30h12.4l0.4,41.4c0,0 -3.10253,-1.10229 -4.5611,-2.42195c-2.32376,-2.10245 -8.0389,-8.97805 -8.0389,-8.97805z" fill="#191919" stroke="none" stroke-width="0" stroke-linecap="butt"/><path d="M199.2804,202.3744l-0.33038,-12.66667c0,0 50.37796,13 65.41534,13c8.03782,0 17.84057,-13 17.84057,-13l0.66077,65.66667c0,0 -11.68472,-6.91139 -15.24726,-11.36817c-3.39441,-4.24645 -5.64795,-14.77205 -5.64795,-14.77205c0,0 -28.10907,22.27141 -43.92788,14.11392c-16.09969,-8.30233 -18.76319,-40.97369 -18.76319,-40.97369z" fill="#a03a00" stroke="none" stroke-width="0" stroke-linecap="butt"/><path d="M199.2804,199.59697l-0.33038,-9.13029l66.0761,20l17.1798,-20l0.66077,47.33334c0,0 -11.68472,-4.98182 -15.24726,-8.19432c-3.39441,-3.06089 -5.64795,-10.64787 -5.64795,-10.64787c0,0 -28.10907,16.05351 -43.92788,10.17349c-16.09969,-5.98442 -18.76319,-29.53433 -18.76319,-29.53433z" fill="#ff8500" stroke="none" stroke-width="0" stroke-linecap="butt"/><path d="M278.31001,253.07335l0.5,-21.1h4v24c0,0 -2.09954,-1.08859 -2.91839,-1.61629c-0.6325,-0.40761 -1.58161,-1.28371 -1.58161,-1.28371z" fill="#702900" stroke="none" stroke-width="0" stroke-linecap="butt"/><path d="M278.71001,235.77335v-4.6h4.1l-0.1,5.9c0,0 -1.22087,-0.09678 -1.8632,-0.30554c-0.68788,-0.22356 -2.1368,-0.99446 -2.1368,-0.99446z" fill="#a95700" stroke="none" stroke-width="0" stroke-linecap="butt"/><path d="M256.14252,200.33378c-0.57113,0 -1.03411,-0.46299 -1.03411,-1.03411c0,-0.57113 0.46299,-1.03413 1.03411,-1.03413c0.57113,0 1.03411,0.463 1.03411,1.03413c0,0.57113 -0.46299,1.03411 -1.03411,1.03411z" fill="#000000" stroke="none" stroke-width="1.5" stroke-linecap="butt"/><path d="M250.88267,204.56937c-4.4635,-0.31439 -6.55245,-1.79392 -6.16985,-2.58011c0.11788,-0.24224 2.84645,1.06355 6.97038,1.3048c6.40897,0.37493 8.51033,-0.63173 8.51033,-0.63173v1.34616c0,0 -2.4135,1.04672 -9.31086,0.56089z" fill="#000000" stroke="#000000" stroke-width="0" stroke-linecap="butt"/><path d="M223.06994,199.29967c0,-0.57113 0.46299,-1.03413 1.03411,-1.03413c0.57113,0 1.03413,0.463 1.03413,1.03413c0,0.57113 -0.463,1.03411 -1.03413,1.03411c-0.57113,0 -1.03411,-0.46299 -1.03411,-1.03411z" fill="#000000" stroke="none" stroke-width="1.5" stroke-linecap="butt"/><path d="M229.36394,204.56937c-6.89736,0.48585 -9.31086,-0.56089 -9.31086,-0.56089v-1.34616c0,0 2.10136,1.00666 8.51033,0.63173c4.12393,-0.24126 6.85251,-1.54704 6.97039,-1.3048c0.3826,0.78618 -1.70634,2.26571 -6.16985,2.58011z" fill="#000000" stroke="#000000" stroke-width="0" stroke-linecap="butt"/><path d="M198.65004,191.60002c0,0 0.62601,-9.23895 1.24413,-13.38917c0.53714,-3.60652 2.25587,-10.11083 2.25587,-10.11083c0,0 0.04328,10.89292 5.54045,13.67636c15.26414,7.72883 45.59317,22.32365 56.95954,22.32365c9.11998,0 18.25,-27 18.25,-27l-0.25,56.75c0,0 -44.18678,-19.69216 -49.54301,-20.91449c-14.026,-3.20084 -34.45699,-21.33551 -34.45699,-21.33551z" fill="#d89116" stroke="none" stroke-width="0" stroke-linecap="butt"/><path d="M199.65004,180.10002c0,0 0.3768,-2.6782 0.70142,-4.31663c0.42917,-2.16607 1.64868,-7.54455 1.64868,-7.54455c0,0 1.20942,6.42818 1.92398,8.69901c0.4959,1.57595 1.95239,3.61986 1.95239,3.61986l6.71785,3.74849c0,0 22.72818,8.89359 32.34616,12.42974c7.67762,2.82276 20.70953,7.36408 20.70953,7.36408c0,0 4.58245,-3.12793 6.76327,-6.32014c3.18192,-4.65759 10.48673,-20.30486 10.48673,-20.30486l0.375,27.375c0,0 -7.06602,12.35726 -15.05626,9.59153c-8.49894,-2.94181 -18.89208,-6.58845 -25.59343,-9.11105c-9.83947,-3.70389 -26.95451,-10.77304 -33.6632,-13.55964c-1.29318,-0.53715 -6.29636,-6.30801 -8.55667,-9.48824c-0.82824,-1.16533 -0.75544,-2.1826 -0.75544,-2.1826z" fill="#ffc100" stroke="none" stroke-width="0" stroke-linecap="butt"/><path d="M277.51669,213.1155c0,7.96211 -6.49187,14.41667 -14.5,14.41667c-8.00813,0 -14.5,-6.45456 -14.5,-14.41667c0,-7.96211 6.49187,-14.41667 14.5,-14.41667c8.00813,0 14.5,6.45456 14.5,14.41667z" fill="#ffffff" stroke="#b6780e" stroke-width="4" stroke-linecap="butt"/><path d="M263.61644,214.27189l-6.12965,2.49286l6.1531,-5.11266l7.41336,8.922z" fill="#000000" stroke="#000000" stroke-width="1.5" stroke-linecap="round"/><path d="M267.66668,160.5c0,12.51845 -12.38679,22.66666 -27.66667,22.66666c-15.27988,0 -27.66666,-10.14821 -27.66666,-22.66666c0,-4.54612 4.96691,-11.11299 7.77938,-14.66143c-7.09368,33.38977 26.14669,40.92399 39.92061,17.29476c3.515,-6.03001 -0.41394,-12.54884 0.15901,-17.05833c0.76096,1.48685 4.29128,4.4463 6.10778,7.62092c1.47545,2.57857 1.36655,5.41251 1.36655,6.80408z" fill="#ffc100" stroke="#000000" stroke-width="0" stroke-linecap="butt"/><path d="M201.98731,90.26201c0.33654,-2.27063 -0.16776,-40.17317 35.96775,-41.57382c44.63633,-0.91362 39.01489,35.34872 41.53088,42.1903c3.44981,9.38084 5.86888,6.27196 6.90664,13.40016c1.03776,7.1282 -8.63113,-2.27982 -8.63113,-2.27982c0,0 3.09111,10.3481 1.31092,20.69498c-0.29851,1.81154 -2.27751,4.12031 -2.55482,6.12265c-0.38091,2.75038 0.89702,5.14432 0.02843,6.89491c-1.10966,-0.31096 -3.50079,-2.33017 -4.60024,-2.53367c-1.36695,-0.253 -3.31947,7.24559 -4.417,7.24184c-0.90106,-0.00308 -1.27993,-1.88333 -2.43616,-3.24343c-0.98187,-1.155 -2.7474,-1.82337 -3.51259,-1.82692c-14.2492,-0.06614 -42.94799,-3.7159 -42.94799,-3.7159c0,0 -2.51683,1.45938 -3.18034,3.38716c-0.83527,2.42681 -1.37884,4.73211 -2.0738,4.73762c-0.90188,0.00716 -2.04171,-8.8915 -2.04171,-8.8915c0,0 -5.09142,7.83171 -5.85517,7.84077c-1.21637,0.01443 -1.14907,-5.05097 -1.14907,-5.05097l0.63731,-12.64282c0,0 -2.33908,1.89916 -5.71704,2.7744c-2.09217,0.54209 -3.68742,4.47381 -4.26895,2.58559c-0.58153,-1.88822 0.93025,-4.9575 2.90626,-7.01022c1.76007,-1.8284 2.64658,-3.37722 2.64658,-3.37722c0,0 -4.35758,1.8347 -6.48277,2.36795c-2.21739,0.5564 3.19484,-5.25635 5.25066,-11.09336c1.94102,-5.51108 -5.49237,-1.8201 -5.35825,-5.46108c0.03351,-0.90982 2.70033,-1.75863 4.65408,-4.26691c2.01652,-2.58886 3.32239,-6.83129 3.38752,-7.2707z" fill="#000000" stroke="none" stroke-width="1.5" stroke-linecap="butt"/><path d="" fill="#000000" stroke="none" stroke-width="1.5" stroke-linecap="butt"/><path d="M195.69574,97.04962z" fill="#000000" stroke="none" stroke-width="1.5" stroke-linecap="butt"/><path d="M212.48161,108.37124c-0.57709,-7.29323 0.335,-17.15448 0.335,-17.15448c0,0 0.41059,-7.29124 10.91429,-10.39424c8.0696,-2.38394 17.04731,5.76278 17.04731,5.76278c0,0 10.48599,-7.41427 20.56303,-5.95095c7.04304,1.02274 8.16142,10.15206 8.16142,10.15206c0,0 -0.96994,10.6827 -1.28154,16.24062c-0.42163,5.66922 -2.53327,9.49969 -3.15031,12.52053c-0.61704,3.02084 -0.4096,6.13662 -2.20622,16.0397c-1.12121,6.18021 -4.16183,8.92466 -10.01942,14.66081c-5.85759,5.73616 -9.05378,9.25275 -13.01359,9.32173c-3.81077,0.06639 -8.93565,-5.1002 -13.93542,-10.38244c-5.32393,-5.62474 -8.87489,-8.47713 -9.71551,-15.13975c-0.75707,-6.00039 -0.77653,-9.90853 -1.12266,-15.24835c-0.25298,-3.90273 -2.26119,-6.44504 -2.57636,-10.42801z" fill="#ffffff" stroke="#000000" stroke-width="1.5" stroke-linecap="butt"/><path d="M240.11374,137.79834c-1.03376,0 -3.5381,-3.26042 -3.7867,-5.3637c-0.22243,-1.88186 1.31512,-3.82799 3.7867,-3.82799c2.47159,0 4.2021,0.49077 4.02999,4.18853c-0.14607,3.13818 -1.55841,5.00317 -4.02999,5.00317z" fill="#ffffff" stroke="#000000" stroke-width="1.15" stroke-linecap="butt"/><path d="M243.71588,107.70462c0,0 0.1026,3.96976 0.00576,7.12662c-0.10888,3.5496 -0.58768,11.96531 -1.41335,18.57633c-0.62841,5.03152 -1.66812,9.0177 -1.66812,9.0177c0,0 -1.8816,-5.61069 -2.10489,-9.32448c-0.43353,-7.21063 -0.4495,-16.29321 -0.76344,-19.63229c-0.29758,-3.16513 -0.89593,-5.71453 -0.89593,-5.71453" fill="#ffffff" stroke="#000000" stroke-width="1.3" stroke-linecap="round"/><path d="M214.18125,118.49446c0,0 -4.93211,-3.51705 -6.16417,-8.97502c-1.29636,-5.74284 -1.46118,-9.7328 0.48013,-9.99193c1.94131,-0.25915 2.70321,2.37692 3.73262,8.35569c1.0294,5.97877 1.95143,10.61127 1.95143,10.61127z" data-paper-data="{&quot;index&quot;:null}" fill="#ffffff" stroke="#000000" stroke-width="1" stroke-linecap="butt"/><path d="M213.97868,114.5469c0,0 -3.56385,-2.92338 -4.31816,-8.45061c-0.42079,-3.08327 2.15675,-2.28016 2.15675,-2.28016" fill="none" stroke="#000000" stroke-width="0.25" stroke-linecap="round"/><path d="M216.99205,107.891c0.07093,-4.89188 5.46334,-13.43609 10.83637,-13.3582c5.37302,0.0779 8.40224,8.7484 8.33132,13.64029c-0.07093,4.89188 -4.87352,14.66939 -10.24655,14.5915c-5.37302,-0.0779 -8.99207,-9.9817 -8.92114,-14.87359z" fill="#ffffff" stroke="#ffc100" stroke-width="1.4" stroke-linecap="butt"/><path d="M244.04835,107.89173c0.20353,-4.88817 0.20264,-15.10847 7.02048,-15.10847c7.44283,0 12.02453,10.21607 12.02453,15.10847c0,4.8924 -2.38585,15.32104 -8.19964,15.39188c-5.52997,0.06739 -11.05792,-10.28692 -10.84537,-15.39188z" fill="#ffffff" stroke="#ffc100" stroke-width="1.4" stroke-linecap="butt"/><path d="M268.4144,107.88319c1.0294,-5.97877 1.7913,-8.61483 3.73262,-8.35569c1.94131,0.25914 1.77649,4.24909 0.48013,9.99193c-1.23206,5.45797 -6.16417,8.97502 -6.16417,8.97502c0,0 0.92203,-4.6325 1.95143,-10.61127z" data-paper-data="{&quot;index&quot;:null}" fill="#ffffff" stroke="#000000" stroke-width="1" stroke-linecap="butt"/><path d="M268.82694,103.81613c0,0 2.57754,-0.80312 2.15675,2.28016c-0.75431,5.52723 -4.31816,8.45061 -4.31816,8.45061" data-paper-data="{&quot;index&quot;:null}" fill="none" stroke="#000000" stroke-width="0.25" stroke-linecap="round"/><path d="M254.73677,120.53196c5.31755,-0.12778 9.09351,-10.24827 9.09351,-10.24827c0,0 -0.33453,14.24137 -8.93054,14.28223c-9.03754,0.06522 -11.22611,-13.6999 -11.22611,-13.6999c0,0 3.72156,9.84236 11.06314,9.66594z" data-paper-data="{&quot;index&quot;:null}" fill="#ffc100" stroke="#ffc100" stroke-width="1.15" stroke-linecap="butt"/><path d="M236.83028,110.11603c0,0 -2.18857,14.26512 -11.22611,14.1999c-8.59601,-0.04086 -8.93054,-14.28223 -8.93054,-14.28223c0,0 3.90095,10.24549 9.21851,10.37327c7.34159,0.17641 10.93814,-10.29094 10.93814,-10.29094z" data-paper-data="{&quot;index&quot;:null}" fill="#ffc100" stroke="#ffc100" stroke-width="1.15" stroke-linecap="butt"/><path d="M225.75469,109.71406l-2.26946,-6.15054l10.11624,-1.88125" fill="none" stroke="#000000" stroke-width="1.15" stroke-linecap="round"/><path d="M253.91702,109.59406l-2.02794,-6.99196l9.13708,-1.46507" fill="none" stroke="#000000" stroke-width="1.15" stroke-linecap="round"/><path d="M217.33955,108.256c0,0 0.31963,-1.36615 0.66906,-2.26024c0.50988,-1.30467 2.09516,-4.81267 2.09516,-4.81267c0,0 5.38473,-5.78155 7.87342,-5.73934c2.1781,0.03695 6.25158,5.97892 6.25158,5.97892c0,0 0.81077,2.94891 1.06722,4.2782c0.21068,1.09203 0.36135,3.12656 0.36135,3.12656c0,0 -1.27978,-6.06419 -8.7855,-6.46088c-5.50675,-0.29103 -9.53228,5.88945 -9.53228,5.88945z" fill="url(#color-1)" stroke="none" stroke-width="0" stroke-linecap="butt"/><path d="M216.92363,107.48382c0,0 2.18857,-13.76512 11.22611,-13.6999c8.59601,0.04086 8.93054,14.28223 8.93054,14.28223c0,0 -3.77595,-10.99549 -9.09351,-11.12327c-7.34158,-0.17642 -11.06314,10.54094 -11.06314,10.54094z" fill="#d89116" stroke="#d89116" stroke-width="1.15" stroke-linecap="butt"/><path d="M253.80401,103.36656c-7.94599,0.39668 -8.89302,6.46088 -8.89302,6.46088c0,0 -0.80188,-2.70269 -0.23828,-4.09276c0.48237,-1.18973 1.34283,-3.312 1.34283,-3.312c0,0 0.37265,-1.60793 1.27126,-2.67382c1.46628,-1.73924 3.91733,-3.28219 5.34702,-3.3051c2.63469,-0.04221 8.33527,5.73934 8.33527,5.73934c0,0 0.69085,1.66978 1.10496,2.67065c0.53166,1.28502 0.39283,4.47369 0.39283,4.47369c0,0 -2.83309,-6.25191 -8.66286,-5.96088z" data-paper-data="{&quot;index&quot;:null}" fill="url(#color-2)" stroke="none" stroke-width="0" stroke-linecap="butt"/><path d="M243.67069,107.48972c0,0 -1.49686,-14.9582 7.94813,-14.6032c8.71427,0.33347 12.79677,15.15229 12.79677,15.15229c0,0 -3.88155,-10.73627 -12.57286,-10.77727c-5.68095,-0.0268 -8.17204,10.22818 -8.17204,10.22818z" fill="#d89116" stroke="#d89116" stroke-width="1.15" stroke-linecap="butt"/><path d="M213.34877,124.64655l-1,-28.71923l4.63485,1.64714c0,0 7.9689,-5.21859 11.14473,-5.15172c4.352,0.09164 12.16233,4.09294 12.16233,4.09294c0,0 5.99725,-4.11327 9.85274,-4.65161c6.7441,-0.94168 15.4518,6.34412 15.4518,6.34412l4.22022,-2.63039l-3.06667,29.65903c0,0 -2.47532,-0.02737 -4.99623,-0.05523c-0.60935,-0.00674 -1.498,0.33979 -2.55987,0.72895c-1.36537,0.50039 -4.89641,6.55235 -4.89641,6.55235c0,0 -2.12998,-5.98821 -3.33671,-6.46568c-1.21364,-0.48021 -2.49489,-0.9625 -3.92896,-0.97836c-1.12336,-0.01242 -2.27437,-0.02514 -3.44203,-0.03805c-0.80795,-0.00893 -1.95722,-1.68462 -2.77748,-1.69368c-0.95764,-0.01059 -1.58786,1.64543 -2.55152,1.63478c-2.09394,-0.02315 -4.18842,-0.0463 -6.22398,-0.0688c-1.23718,-0.01368 -2.35394,0.57249 -3.43862,1.14057c-1.01982,0.53411 -3.71451,5.70743 -3.71451,5.70743c0,0 -1.92252,-5.38562 -3.14671,-6.01556c-0.9874,-0.50811 -1.91253,-0.96744 -2.69858,-0.97613c-3.48246,-0.0385 -5.68838,-0.06288 -5.68838,-0.06288zM225.32021,124.74429c7.99916,0.08334 12.0119,-10.88987 12.0119,-15.64421c0,-4.75434 -0.89315,-15.6503 -9.58334,-15.75134c-6.83186,-0.07944 -11.66787,10.71168 -11.60714,15.46563c0.14285,11.18291 4.59633,15.88219 9.17857,15.92992zM255.34402,124.86794c5.3275,-0.5327 8.15476,-4.54463 8.44047,-16.29897c0.11553,-4.75293 -4.67086,-17.41562 -14.01191,-15.8942c-7.68424,1.28545 -6.17857,11.56843 -6.17857,16.32277c0,4.75434 2.62264,16.78305 11.75,15.8704z" fill="#040404" stroke="none" stroke-width="0" stroke-linecap="butt"/><g stroke-linecap="butt"><path d="M253.21406,156.71462c-2.60302,2.16646 -6.86513,4.4631 -12.75768,4.4931c-4.57866,0.02328 -8.92973,-1.05553 -11.6976,-2.67925c-9.31121,-5.4622 -9.91018,-21.731 -9.91018,-21.731c0,0 9.79292,-1.57827 15.01124,-1.30143c3.63051,-0.65118 6.52538,2.94703 6.52538,2.94703c0,0 5.23504,-4.13581 9.05965,-3.10375c7.57404,1.8376 12.6019,2.9852 12.6019,2.9852c0,0 -2.6322,13.2296 -8.83269,18.39014z" fill="#000000" stroke="none" stroke-width="0"/><path d="M236.46503,137.85416c1.66321,1.04097 5.30053,3.07709 4.63525,3.71228c-0.3522,0.35288 -20.18384,-4.3285 -18.69672,-4.39906c0.8414,-0.05289 3.74375,0.26262 5.98287,-0.15876c3.53782,-0.66579 5.80878,-0.49532 8.0786,0.84555z" data-paper-data="{&quot;noHover&quot;:false,&quot;origItem&quot;:[&quot;Path&quot;,{&quot;applyMatrix&quot;:true,&quot;segments&quot;:[[[356.58247,303.92478],[0,0],[-0.85156,0.32734]],[[354.44185,304.549],[0.33594,-0.02282],[-0.59374,0.03044]],[[354.51217,304.77738],[-0.64064,-0.19794],[0.8125,0.25122]],[[360.34811,305.42444],[-0.14062,0.15226],[0.26562,-0.27406]],[[359.37155,303.7573],[0.66406,0.44914],[-0.90626,-0.57856]],[[356.58249,303.92478],[1.92968,-0.74604],[0,0]]],&quot;closed&quot;:true,&quot;fillColor&quot;:[0,0,0,1]}]}" fill="#ffffff" stroke="none" stroke-width="0.5"/><path d="M240.0205,140.68634c0.96772,-1.04339 2.37097,-2.0488 4.03119,-2.87351c2.63661,-1.30974 5.92134,-2.02242 9.13914,-0.63666c1.85891,0.8116 3.94203,1.6049 4.66602,1.6049c3.09162,0.17643 -4.0529,1.57942 -9.31198,2.13663c-4.62671,0.4902 -7.9222,0.60448 -7.9222,0.60448z" data-paper-data="{&quot;noHover&quot;:false,&quot;origItem&quot;:[&quot;Path&quot;,{&quot;applyMatrix&quot;:true,&quot;segments&quot;:[[[362.06679,304.89918],[0,0],[0,0.62422]],[[364.16055,305.50058],[-2.07032,0.02282],[1.85938,0]],[[367.63711,305.05144],[1.23438,0.07612],[-0.28906,0]],[[365.77773,304.40438],[0.7422,0.35018],[-2.09374,-0.9744]],[[362.06679,304.8992],[0,-1.24846],[0,0]]],&quot;closed&quot;:true,&quot;fillColor&quot;:[0,0,0,1]}]}" fill="#ffffff" stroke="none" stroke-width="0.5"/><path d="M220.16532,137.88938c0.17613,0 2.6333,1.01869 3.70948,1.58328c1.01751,0.63514 3.04116,5.72993 4.35218,7.45898c3.52205,4.62255 4.59029,5.80704 12.18231,5.80704c7.33771,0 9.46203,-2.72524 12.55361,-6.76559c1.97627,-2.59358 5.48321,-5.62308 6.14847,-4.91734c0.46961,0.40583 -1.12252,5.9675 -2.43352,8.4552c-1.36968,2.71711 -4.95043,7.39417 -7.80721,8.54101c-2.79808,1.1645 -12.8682,1.35686 -16.6838,0.36884c-4.83312,-1.27032 -7.12898,-6.6851 -9.80969,-15.24216c-0.60656,-1.95838 -2.38804,-5.2891 -2.21194,-5.2891z" data-paper-data="{&quot;noHover&quot;:false,&quot;origItem&quot;:[&quot;Path&quot;,{&quot;applyMatrix&quot;:true,&quot;segments&quot;:[[[353.46525,305.2722],[0,0],[-0.07032,0]],[[353.77775,306.81754],[-0.24218,-0.84498],[1.07032,3.69208]],[[357.82463,312.52694],[-1.9297,-0.5481],[1.52344,0.4263]],[[364.34807,312.37468],[-1.11718,0.50244],[1.14062,-0.49482]],[[367.27775,309.51236],[-0.54686,1.17234],[0.52344,-1.07336]],[[368.18401,306.12478],[0.1875,0.1751],[-0.26562,-0.3045]],[[365.87151,307.89088],[0.78906,-1.11904],[-1.23438,1.74328]],[[361.11369,309.88536],[2.9297,0],[-3.03124,0]],[[356.08245,307.61682],[1.40624,1.99448],[-0.52344,-0.74602]],[[354.37151,305.74414],[0.40626,0.27404],[-0.42968,-0.2436]],[[353.46525,305.27216],[0.07032,0],[0,0]]],&quot;closed&quot;:true,&quot;fillColor&quot;:[0,0,0,1]}]}" fill="#ffffff" stroke="none" stroke-width="0.5"/><path d="M250.009,146.06224c-2.41438,0.65828 -4.07965,1.10357 -10.54526,1.02545c-1.3503,-0.01631 -3.54417,-0.21812 -3.54417,-0.21812c0,0 -0.07056,-2.58581 -0.56225,-4.05589c0.09736,-0.26388 0.18579,-0.52722 0.23973,-0.80363c1.58838,0.4084 2.97165,0.71284 3.56563,0.71284c1.69153,0 12.28892,-1.18471 12.28892,-1.18471c0,0 0.07021,4.11158 -1.44261,4.52405z" fill="#ffffff" stroke="#000000" stroke-width="0"/><path d="M233.12381,146.1771c0,0 -1.49498,-0.45369 -2.12159,-0.71393c-1.46755,-0.6095 -2.7271,-5.54821 -2.7271,-5.54821c0,0 2.91155,0.90002 5.76525,1.68096v0.27623c0,0.20463 -0.00266,0.37721 0.0002,0.53261c-0.56053,1.1839 -0.91676,3.77235 -0.91676,3.77235z" fill="#ffffff" stroke="#000000" stroke-width="0"/><path d="M250.50127,147.00806c0,0.12182 -0.767,2.51531 -3.52157,3.60109c-1.8843,0.74274 -4.46525,0.69529 -6.46219,0.65757c-0.96765,-0.01829 -4.62819,-0.06233 -6.67516,-1.02799c-2.40747,-1.13572 -3.15989,-3.22593 -3.15989,-3.33682c0,-0.20516 6.9263,1.35998 9.03218,1.39302c5.91977,0.09287 10.78662,-1.49204 10.78662,-1.28689z" fill="#ffffff" stroke="none" stroke-width="0"/></g><path d="M228.52382,86.42991l8.2,6.4l-6,-2.6l-15,5.4z" fill="#000000" stroke="#000000" stroke-width="1" stroke-linecap="round"/><path d="M265.72382,92.62991l-15,-5.4l-6,2.6l8.2,-6.4z" data-paper-data="{&quot;index&quot;:null}" fill="#000000" stroke="#000000" stroke-width="1" stroke-linecap="round"/></g></g></svg>