<svg version="1.1" xmlns="http://www.w3.org/2000/svg" xmlns:xlink="http://www.w3.org/1999/xlink" width="83" height="83" viewBox="0,0,83,83"><defs><linearGradient x1="197.375" y1="178.1328" x2="280.375" y2="178.1328" gradientUnits="userSpaceOnUse" id="color-1"><stop offset="0" stop-color="#8dc63f"/><stop offset="1" stop-color="#006838"/></linearGradient><radialGradient cx="238.875" cy="178.1328" r="33.9434" gradientUnits="userSpaceOnUse" id="color-2"><stop offset="0" stop-color="#d7df23"/><stop offset="1" stop-color="#009444"/></radialGradient></defs><g transform="translate(-197.375,-136.632)"><g data-paper-data="{&quot;isPaintingLayer&quot;:true}" fill-rule="nonzero" stroke="none" stroke-linecap="butt" stroke-linejoin="miter" stroke-miterlimit="10" stroke-dasharray="" stroke-dashoffset="0" style="mix-blend-mode: normal"><path d="M280.375,178.132c0,22.882 -18.616,41.5 -41.5,41.5c-22.883,0 -41.5,-18.618 -41.5,-41.5c0,-22.883 18.616,-41.5 41.5,-41.5c22.884,0 41.5,18.618 41.5,41.5z" fill="url(#color-1)" stroke-width="1"/><path d="M204.931,178.133c0,-18.74675 15.19725,-33.944 33.944,-33.944c18.74675,0 33.944,15.19725 33.944,33.944c0,18.74675 -15.19725,33.944 -33.944,33.944c-18.74675,0 -33.944,-15.19725 -33.944,-33.944z" fill="url(#color-2)" stroke-width="1"/><path d="M225.68897,196.67662c0.35466,0.85199 0.74495,1.705 0.49259,2.53966c-0.51567,1.70559 -1.50375,3.87991 -3.2476,4.24589c-3.90193,0.81889 -7.49546,-4.09468 -6.5055,-7.49345c0.44831,-1.53915 2.12236,-2.56277 3.59634,-3.19313c0.2357,-0.1008 0.48004,-0.15665 0.7303,-0.18171c-0.03914,-0.10705 -0.07307,-0.21738 -0.10145,-0.33112c-0.33559,-1.34494 3.21943,-5.32602 4.84043,-7.40231c-0.8025,-1.71759 -0.56495,-3.93341 -1.10017,-5.80242c-0.43432,-2.83826 -0.44932,-5.50005 -0.44932,-8.36472v-1.37028c0,0 0,-0.19789 0.05568,-0.48232c-0.82257,-1.40528 -1.9773,-3.67687 -2.27599,-4.35432c-0.16918,-0.38372 -0.02021,-1.01109 -0.39781,-1.19353c-0.44122,-0.21319 -0.94787,0.29399 -1.43773,0.30664c-0.88246,0.0228 -1.76041,-0.13418 -2.64061,-0.20128c0,0 -2.49264,-0.19174 -2.30089,-2.68438c0.19174,-2.49264 2.68438,-2.30089 2.68438,-2.30089c0.71049,0.05519 6.04387,0.46434 6.1009,0.49688c1.13581,0.64794 3.00455,4.21428 3.57786,5.57584c0.19457,0.46209 0.03136,1.1195 0.41112,1.44687c0.89181,0.76879 2.34451,-0.23565 3.52102,-0.28219c0.05322,-0.0021 5.20732,-0.00265 5.26876,-0.00046c8.46636,0.30241 17.28563,0.63347 25.6176,2.01207c0.72971,1.35369 1.74952,2.58741 2.18912,4.06108c0.96825,3.24588 0.12436,8.34719 0.25212,11.79414c0.06042,1.63003 0.11797,6.09255 -1.06175,7.07925c-0.03447,0.02883 -0.07217,0.05618 -0.11293,0.0821c0.58214,2.078 1.13118,3.74764 -0.28115,5.57389c3.00595,1.48994 7.80346,4.28315 -1.18708,7.28234c-1.52856,0.50992 -2.42591,-2.12157 -3.63887,-3.18235l-0.44784,-2.29388c-1.45286,-0.05072 -2.8839,-0.18133 -3.4764,-0.20122c-8.64597,-0.29024 -17.62152,-0.1792 -26.16664,-1.59724c-0.62207,-0.10323 -1.4055,-0.22628 -2.23209,-0.40953c-0.0535,0.32502 -0.15037,0.59757 -0.27636,0.82606zM227.45634,190.86379c2.30305,0.09816 4.94783,0.67106 7.17975,0.82558c6.64131,0.4598 13.2154,0.94967 19.87485,1.17012c1.49605,0.04952 2.98593,0.89176 4.45182,0.58884c0.84217,-0.17403 -0.36439,-1.68699 -0.66492,-2.49274l-0.06783,0.11268c0,0 -0.03446,-0.05169 -0.08436,-0.1442c-1.10962,-0.11561 -2.10035,-0.25949 -2.64913,-0.32804c-6.63416,-0.82873 -13.28426,-1.60416 -19.92851,-2.34453c-1.80044,-0.20063 -3.96963,-0.06424 -5.91742,-0.47742c-0.6389,1.01304 -1.45091,2.2596 -2.19426,3.0897zM228.94446,170.91915c-0.00237,2.40422 -0.03586,4.68371 0.33381,7.06983c0.26276,0.92171 0.6392,1.81836 0.78827,2.76513c0.10176,0.64633 -0.33911,1.37846 -0.04394,1.96239c0.34388,0.68029 5.52166,0.50177 6.091,0.56486c4.77016,0.52854 9.52591,1.23286 14.29666,1.76252c2.86412,0.31798 6.1843,0.18398 8.96053,0.9742c0.37773,0.10752 0.48938,0.70793 0.87324,0.79098c0.32699,0.07074 -0.59955,-0.42007 -0.67025,-0.74706c-0.34528,-1.59698 -0.1379,-3.26488 -0.19575,-4.89774c-0.10961,-3.09365 0.37196,-6.33898 -0.10358,-9.39714c-3.18627,0.65593 -6.22753,-0.2309 -9.4225,-0.33698c-5.32078,-0.17666 -10.64337,-0.78114 -15.96869,-0.78163c-1.37785,-0.00013 -3.19345,0.25992 -4.9388,0.27064z" fill="#ffffff" stroke-width="0.5"/><path d="M233.6875,181.41502c-2.5,0 -2.5,-2.5 -2.5,-2.5c0,-0.84827 0,-2.28381 0,-3.13208c0,0 0,-2.5 2.5,-2.5c2.5,0 2.5,2.5 2.5,2.5c0,0.84827 0,1.69654 0,2.54481v0.58726c0,0 0,2.5 -2.5,2.5z" fill="#ffffff" stroke-width="0.5"/><path d="M241.51769,181.61077c-2.5,0 -2.5,-2.5 -2.5,-2.5l0.00736,-0.19977c-0.06525,-0.84827 -0.1305,-1.69654 -0.19575,-2.54481c0,0 -0.19174,-2.49264 2.30089,-2.68438c2.49264,-0.19174 2.68438,2.30089 2.68438,2.30089c0.06525,0.84827 0.1305,1.69654 0.19575,2.54481l0.00736,0.58325c0,0 0,2.5 -2.5,2.5z" fill="#ffffff" stroke-width="0.5"/><path d="M249.93514,183.76408c-2.5,0 -2.5,-2.5 -2.5,-2.5c0,-0.97877 0,-3.32783 0,-4.3066c0,0 0,-2.5 2.5,-2.5c2.5,0 2.5,2.5 2.5,2.5c0,0.97877 0,1.95755 0,2.93632v1.37028c0,0 0,2.5 -2.5,2.5z" fill="#ffffff" stroke-width="0.5"/><path d="M255.61203,183.95983c-2.5,0 -2.5,-2.5 -2.5,-2.5c0,-0.91352 0,-3.19733 0,-4.11085c0,0 0,-2.5 2.5,-2.5c2.5,0 2.5,2.5 2.5,2.5c0,0.91352 0,1.82704 0,2.74057v1.37028c0,0 0,2.5 -2.5,2.5z" fill="#ffffff" stroke-width="0.5"/><path d="M230.75118,157.05653c0.42927,0 0.73569,0.12285 0.95442,0.29823c0.93784,0.10264 1.88223,0.17497 2.81678,0.20697c0.4465,0.01529 -0.77076,-0.48508 -1.04817,-0.83528c-0.54876,-0.69273 -1.65605,-2.92996 -1.6758,-3.76151c-0.07417,-3.12386 2.05406,-4.01899 4.62965,-4.13011c0,0 1.5,0 1.5,1.5c0,1.5 -1.5,1.5 -1.5,1.5c-3.97525,-0.33746 0.63831,3.68166 0.83155,4.66886c0.19767,1.00986 0.13182,2.22919 -0.4919,3.04764c-1.16575,1.5297 -4.64171,0.88173 -6.20258,0.68937l-1.31395,-1.68417c0,0 0,-1.5 1.5,-1.5z" fill="#ffffff" stroke-width="0.5"/><path d="M244.95844,161.74135c-1.42302,-0.47434 -0.94868,-1.89737 -0.94868,-1.89737l0.31453,-0.70019c0.03468,-1.87058 -0.38967,-4.20884 -2.63856,-3.43865c0,0 -0.02376,0.00594 -0.06597,0.01327c-0.19,1.42791 -0.40357,2.83842 -0.57121,4.1987l-0.22896,0.96077c0,0 -0.3638,1.45521 -1.81902,1.09141c-1.45521,-0.3638 -1.09141,-1.81902 -1.09141,-1.81902l0.16255,-0.60527c0.50012,-3.93852 1.53483,-8.56384 0.79563,-12.46543c0,0 -0.26833,-1.4758 1.20748,-1.74413c1.4758,-0.26833 1.74413,1.20748 1.74413,1.20748c0.3437,1.95816 0.32149,4.02903 0.14558,6.11242c3.71117,-0.25228 5.31075,2.75504 5.35975,6.48846l-0.46848,1.64887c0,0 -0.47434,1.42302 -1.89737,0.94868z" fill="#ffffff" stroke-width="0.5"/><path d="M251.89269,151.5754c0.90957,0 1.26759,0.55154 1.40852,0.98574c0.41864,0.04207 0.9056,0.25994 1.1705,0.96635c0.03675,0.09799 0.06409,0.19171 0.08317,0.28127c0.48272,0.48696 0.90638,1.03486 1.24539,1.77193c1.23813,2.692 0.30401,7.51717 -3.51607,7.41216c-3.66827,-0.10083 -4.32689,-4.84805 -3.15903,-7.52677c0.50375,-1.15544 0.88248,-1.65404 1.40768,-1.98119l-0.14016,-0.40949c0,0 0,-1.5 1.5,-1.5zM252.23289,156.10752c-0.28795,0.30385 -0.37641,0.74738 -0.40914,1.56344c-0.01177,0.29348 -0.42055,2.44346 0.46045,2.32189c2.09822,-0.28954 1.06631,-2.37512 -0.05131,-3.88533z" fill="#ffffff" stroke-width="0.5"/><path d="M262.46344,156.86077h0.58726c2.48807,0.21121 0.8,-1.43973 -0.69249,-2.06504c-0.03371,0.6977 -0.08745,1.39546 -0.15455,2.09288c0.15462,-0.02784 0.25978,-0.02784 0.25978,-0.02784zM261.84607,151.58457c3.54071,0.47433 8.75248,5.64619 3.28131,8.18661c-0.62843,0.2918 -1.38445,0.05973 -2.07668,0.08959h-0.58726c0,0 -0.27661,0 -0.59226,-0.11878c-0.15333,1.17079 -0.31865,2.33908 -0.46413,3.50295l-0.53829,1.26779c0,0 -0.67082,1.34164 -2.01246,0.67082c-1.34164,-0.67082 -0.67082,-2.01246 -0.67082,-2.01246l0.24473,-0.29825c0.39699,-3.17589 0.97215,-6.39933 0.96719,-9.60168c0,0 0,-1.4979 1.49685,-1.5c0.45272,-0.24204 0.95182,-0.18658 0.95182,-0.18658z" fill="#ffffff" stroke-width="0.5"/><path d="M213.72052,172.12964c1.5,0 1.5,1.5 1.5,1.5v0.19575c-0.0076,3.86057 0.78302,7.66561 0.78302,11.54953c0,0 0,1.5 -1.5,1.5c-1.5,0 -1.5,-1.5 -1.5,-1.5c0,-3.88563 -0.77626,-7.68252 -0.78302,-11.54953v-0.19575c0,0 0,-1.5 1.5,-1.5z" fill="#ffffff" stroke-width="0.5"/><path d="M218.97572,174.43509c-1.39272,0.55709 -1.9498,-0.83563 -1.9498,-0.83563l-0.13768,-0.55967c-0.42842,-0.50558 -0.91861,-0.96473 -1.28527,-1.51675c-0.38371,-0.57768 -0.26903,-2.25247 -0.86234,-1.89339c-0.86775,0.52518 -2.78367,3.69565 -3.53945,4.70423c0,0 -0.9,1.2 -2.1,0.3c-1.2,-0.9 -0.3,-2.1 -0.3,-2.1c1.12327,-1.49646 2.2423,-2.9424 3.61595,-4.22236c0.60347,-0.56231 1.02515,-1.6107 1.84931,-1.64416c2.77256,-0.11258 3.51044,2.82195 4.89957,4.42005l0.64534,1.39787c0,0 0.55709,1.39272 -0.83563,1.9498z" fill="#ffffff" stroke-width="0.5"/></g></g></svg>