<svg version="1.1" xmlns="http://www.w3.org/2000/svg" xmlns:xlink="http://www.w3.org/1999/xlink" width="35.67311" height="35.67311" viewBox="0,0,35.67311,35.67311"><defs><linearGradient x1="222.91345" y1="180.00001" x2="257.08656" y2="180.00001" gradientUnits="userSpaceOnUse" id="color-1"><stop offset="0" stop-color="#9a0000"/><stop offset="1" stop-color="#000000"/></linearGradient></defs><g transform="translate(-222.16345,-162.16345)"><g data-paper-data="{&quot;isPaintingLayer&quot;:true}" stroke-miterlimit="10" stroke-dasharray="" stroke-dashoffset="0" style="mix-blend-mode: normal"><path d="M229.98311,162.91345h20.03379c3.9166,0 7.06966,3.15307 7.06966,7.06966v20.03379c0,3.91659 -3.15306,7.06966 -7.06966,7.06966h-20.03379c-3.91659,0 -7.06966,-3.15307 -7.06966,-7.06966v-20.03379c0,-3.91659 3.15307,-7.06966 7.06966,-7.06966z" fill="url(#color-1)" fill-rule="evenodd" stroke="#ffffff" stroke-width="1.5" stroke-linecap="round" stroke-linejoin="round"/><path d="M252.20933,173.77013c3.28137,6.43086 0.47514,14.43329 -6.26788,17.87395c-6.74303,3.44066 -14.86941,1.01663 -18.15078,-5.41421c-3.28137,-6.43086 -0.47514,-14.43329 6.26788,-17.87395c6.74303,-3.44066 14.86941,-1.01663 18.15078,5.41421z" fill="#ffffff" fill-rule="nonzero" stroke="#000000" stroke-width="1" stroke-linecap="butt" stroke-linejoin="miter"/><path d="M235.49537,179.29471c1.26703,2.48314 1.20669,5.05103 -0.13477,5.73551c-0.45469,0.23201 -3.18786,-1.54485 -3.18786,-1.54485l1.40529,-2.83248l-3.53314,-0.36999c0,0 0.09725,-3.92343 0.72736,-4.24494c1.34148,-0.68448 3.45608,0.77362 4.72312,3.25675z" fill="#000000" fill-rule="nonzero" stroke="#000000" stroke-width="0" stroke-linecap="butt" stroke-linejoin="miter"/><path d="M245.50024,174.18967c1.26703,2.48314 1.20669,5.05103 -0.13477,5.73551c-0.45469,0.23201 -3.18786,-1.54485 -3.18786,-1.54485l1.40529,-2.83248l-3.53314,-0.36999c0,0 0.09725,-3.92343 0.72736,-4.24494c1.34148,-0.68448 3.45608,0.77362 4.72312,3.25675z" fill="#000000" fill-rule="nonzero" stroke="#000000" stroke-width="0" stroke-linecap="butt" stroke-linejoin="miter"/><path d="M249.08855,177.98484c0.51371,1.00677 -1.40166,8.78331 -5.38193,10.81425c-3.98026,2.03095 -12.63816,-1.31229 -13.15187,-2.31905c-0.51371,-1.00677 7.7422,1.33919 11.72245,-0.69176c3.98026,-2.03095 6.29763,-8.8102 6.81134,-7.80344z" fill="#000000" fill-rule="nonzero" stroke="none" stroke-width="0" stroke-linecap="butt" stroke-linejoin="miter"/><path d="M242.04949,181.36284c0.32257,0.63216 -1.28127,2.09641 -1.28127,2.09641c0,0 -2.12681,0.43932 -2.44936,-0.19284c-0.32257,-0.63216 1.28127,-2.09641 1.28127,-2.09641c0,0 2.12681,-0.43932 2.44936,0.19284z" fill="#000000" fill-rule="nonzero" stroke="none" stroke-width="0" stroke-linecap="butt" stroke-linejoin="miter"/></g></g></svg>