<svg version="1.1" xmlns="http://www.w3.org/2000/svg" xmlns:xlink="http://www.w3.org/1999/xlink" width="107.4209" height="239.04175" viewBox="0,0,107.4209,239.04175"><g transform="translate(-186.80243,-59.0799)"><g data-paper-data="{&quot;isPaintingLayer&quot;:true}" fill-rule="nonzero" stroke-linejoin="miter" stroke-miterlimit="10" stroke-dasharray="" stroke-dashoffset="0" style="mix-blend-mode: normal"><g stroke-linecap="butt"><path d="M201.68404,295.80027c0,0 -0.63536,-94.38387 -0.79335,-118.01201c-0.05451,-8.15261 8.18688,-36.76129 40.20201,-36.9211c31.60235,-0.15775 39.85672,29.48704 39.84884,36.89673c-0.07659,46.24274 0.65429,117.98648 0.65429,117.98648l-10.49667,0.09614l-0.15882,-114.84311c0,0 0.07549,-3.0993 -2.81625,-3.15415c-3.43441,-0.06514 -2.94538,3.11562 -2.94538,3.11562l0.20548,114.86995l-48.21366,0.07222l-0.30539,-115.23309c0,0 0.27949,-2.919 -2.8856,-2.93443c-3.11083,-0.01515 -2.81569,2.90899 -2.81569,2.90899l0.35311,115.0668z" fill="#ffffff" stroke="#000000" stroke-width="2"/><g data-paper-data="{&quot;index&quot;:null}" stroke="none" stroke-width="0"><path d="M287.86086,260.17564c-1.84392,0.95554 -19.74496,1.27699 -19.74496,1.22257c0,-18.31782 0,-64.05271 0,-64.05271l20.15,-26c0,0 -1.26512,24.27896 0.37113,40.97175c0.53769,5.48538 5.65354,44.52643 -0.77617,47.85839z" fill="#000000"/><path d="M288.84349,211.27561c0.00096,0.01103 -1.75355,1.42617 -3.41351,3.65039c-2.22128,2.97635 -5.33525,7.47127 -6.97178,9.12816c-4.67321,4.73138 -10.00896,7.93535 -10.00896,7.90145c0,-17.37122 0,-34.27677 0,-34.27677l20.15,-26c0,0 -1.19739,22.97921 0.24425,39.59675z" fill="#696969"/></g><g data-paper-data="{&quot;index&quot;:null}" stroke="none" stroke-width="0"><path d="M271.27332,157.90293c10.98591,-0.19999 22.95001,8.18129 22.95001,10.7c0,0.00185 -7.83197,7.51578 -8.07992,7.92553c-1.10373,1.82396 -6.57851,9.94225 -9.89853,17.58951c-2.29478,5.28573 -2.94341,10.28163 -3.4483,11.53667c-2.64077,6.56434 -7.64786,10.41495 -7.68993,10.41495c-19.83622,0 -13.66627,-57.8056 6.16667,-58.16666z" fill="#1c1c1c"/><path d="M294.22332,168.60294c0,0.00007 -11.51089,2.32897 -22.06405,11.04962c-9.69454,8.01113 -18.50281,22.48294 -18.53389,22.30358c-2.97026,-17.13723 4.19615,-43.80831 17.64794,-44.0532c10.98591,-0.19999 22.95001,8.18129 22.95001,10.7z" fill="#000000"/><path d="M256.99142,211.33961c-0.05774,-0.08735 16.14839,-6.9055 16.1338,-6.84436c-0.12297,0.51537 -0.22862,0.91077 -0.32864,1.15939c-2.64077,6.56434 -7.64786,10.41495 -7.68993,10.41495c-3.48587,0 -6.16861,-1.78514 -8.11523,-4.72998z" fill="#1c1c1c"/></g><g stroke="none" stroke-width="0"><path d="M195.41115,211.98393c1.63625,-16.69279 0.37113,-40.97175 0.37113,-40.97175l20.15,26c0,0 0,45.73489 0,64.05271c0,0.05442 -17.90104,-0.26703 -19.74496,-1.22257c-6.42971,-3.33196 -1.31386,-42.37301 -0.77617,-47.85839z" fill="#000000"/><path d="M195.53802,210.60893c1.44164,-16.61754 0.24425,-39.59675 0.24425,-39.59675l20.15,26c0,0 0,16.90555 0,34.27677c0,0.0339 -5.33575,-3.17007 -10.00896,-7.90145c-1.63653,-1.65689 -4.7505,-6.15181 -6.97178,-9.12816c-1.65996,-2.22422 -3.41447,-3.63936 -3.41351,-3.65039z" fill="#696969"/></g><path d="M256.28121,191.74247c-0.57113,0 -1.03411,-0.46299 -1.03411,-1.03411c0,-0.57113 0.46299,-1.03413 1.03411,-1.03413c0.57113,0 1.03411,0.463 1.03411,1.03413c0,0.57113 -0.46299,1.03411 -1.03411,1.03411z" fill="#000000" stroke="none" stroke-width="1.5"/><path d="M251.02134,195.97806c-4.4635,-0.31439 -6.55245,-1.79392 -6.16985,-2.58011c0.11788,-0.24224 2.84645,1.06355 6.97038,1.3048c6.40897,0.37493 8.51033,-0.63173 8.51033,-0.63173v1.34616c0,0 -2.4135,1.04672 -9.31086,0.56089z" fill="#000000" stroke="#000000" stroke-width="0"/><path d="M223.20858,190.70836c0,-0.57113 0.46299,-1.03413 1.03411,-1.03413c0.57113,0 1.03413,0.463 1.03413,1.03413c0,0.57113 -0.463,1.03411 -1.03413,1.03411c-0.57113,0 -1.03411,-0.46299 -1.03411,-1.03411z" fill="#000000" stroke="none" stroke-width="1.5"/><path d="M229.50258,195.97806c-6.89736,0.48585 -9.31086,-0.56089 -9.31086,-0.56089v-1.34616c0,0 2.10136,1.00666 8.51033,0.63173c4.12393,-0.24126 6.85251,-1.54704 6.97039,-1.3048c0.3826,0.78618 -1.70634,2.26571 -6.16985,2.58011z" fill="#000000" stroke="#000000" stroke-width="0"/><path d="M240.78304,252.52982c-0.81895,0 -1.48284,-0.66389 -1.48284,-1.48284c0,-0.81895 0.66389,-1.48284 1.48284,-1.48284c0.81895,0 1.48284,0.66389 1.48284,1.48284c0,0.81895 -0.66389,1.48284 -1.48284,1.48284z" data-paper-data="{&quot;index&quot;:null}" fill="#000000" stroke="none" stroke-width="1.5"/><g stroke="none" stroke-width="0"><path d="M215.91911,216.0696c-0.04207,0 -5.04916,-3.85061 -7.68993,-10.41495c-0.50489,-1.25504 -1.15352,-6.25094 -3.4483,-11.53667c-3.32002,-7.64726 -8.7948,-15.76555 -9.89853,-17.58951c-0.24795,-0.40975 -7.74658,-7.92368 -7.74658,-7.92553c0,-2.51871 11.63076,-10.89999 22.61667,-10.7c19.83294,0.36106 26.00289,58.16666 6.16667,58.16666z" fill="#1c1c1c"/><path d="M186.80243,168.60294c0,-2.51871 11.9641,-10.89999 22.95001,-10.7c13.45179,0.24489 20.6182,26.91597 17.64794,44.0532c-0.03108,0.17936 -8.83935,-14.29245 -18.53389,-22.30358c-10.55316,-8.72065 -22.06405,-11.04955 -22.06405,-11.04962z" fill="#000000"/><path d="M215.91911,216.0696c-0.04207,0 -5.04916,-3.85061 -7.68993,-10.41495c-0.10002,-0.24862 -0.20567,-0.64402 -0.32864,-1.15939c-0.01459,-0.06114 16.19154,6.75701 16.1338,6.84436c-1.94662,2.94484 -4.62936,4.72998 -8.11523,4.72998z" fill="#1c1c1c"/></g><path d="M274.51437,178.27164c0,5.35716 -15.08801,72.9 -33.7,72.9c-18.612,0 -33.7,-67.54284 -33.7,-72.9c0,-5.35716 15.088,-26.7 33.7,-26.7c18.612,0 33.7,21.34284 33.7,26.7z" fill="#000000" stroke="none" stroke-width="0"/><path d="M213.31438,293.12164v-91.6h54.8v91.6z" fill="#000000" stroke="none" stroke-width="0"/><path d="M213.31438,298.12164v-91.6l27.4,12.4l27.4,-12.4v91.6z" fill="#ffffff" stroke="none" stroke-width="0"/><g stroke="none"><path d="M227.72333,212.11066v-24.875h5.125v23z" fill="#940000" stroke-width="0"/><path d="M232.97333,208.89791c0,2.46345 -1.39313,14.46274 -2.94643,14.46274c-1.5533,0 -2.67857,-10.64764 -2.67857,-13.11109c0,-0.60834 1.45,-1.27353 2.87761,-1.61543c1.38421,-0.33151 2.74739,-0.35909 2.74739,0.26378z" fill="#000000" stroke-width="NaN"/></g><g data-paper-data="{&quot;index&quot;:null}" stroke="none"><path d="M248.17743,210.23565v-23h5.125v24.875z" fill="#940000" stroke-width="0"/><path d="M250.79982,208.63413c1.42761,0.3419 2.87761,1.00709 2.87761,1.61543c0,2.46345 -1.12527,13.11109 -2.67857,13.11109c-1.5533,0 -2.94643,-11.99929 -2.94643,-14.46274c0,-0.62287 1.36318,-0.59529 2.74739,-0.26378z" fill="#000000" stroke-width="NaN"/></g><g stroke="none" stroke-width="0"><path d="M280.47275,156.03114c0,0.02403 -0.04264,2.0611 -1.60465,3.89726c-2.72366,3.20172 -8.36651,8.36329 -14.25484,12.71213c-10.11626,7.47141 -22.98443,12.13712 -23.14052,12.13712c-0.14724,0 -13.25573,-4.54818 -23.406,-12.04203c-5.21481,-3.85005 -11.34846,-9.23557 -14.10281,-12.46932c-2.12032,-2.48936 -1.49118,-4.20463 -1.49118,-4.23515c0,-3.72732 3.76065,-9.20302 9.94432,-14.00154c7.14074,-5.54119 53.0409,-4.56339 60.1618,1.69205c4.95447,4.35231 7.89388,9.01419 7.89388,12.30948z" fill="#ffffff"/><path d="M277.30608,154.24025c0,0.02205 -0.03927,2.89076 -1.47792,4.57516c-2.50857,2.93711 -7.7058,7.67209 -13.12911,11.66151c-9.31737,6.85392 -21.16932,10.13403 -21.31307,10.13403c-0.13562,0 -12.20891,-3.17228 -21.5576,-10.0468c-4.80299,-3.53186 -10.45225,-8.47227 -12.98909,-11.43877c-1.95288,-2.28363 -1.37342,-4.85714 -1.37342,-4.88514c0,-0.54434 2.28293,-3.1337 4.58579,-4.78727c0.98824,-0.70961 15.9458,-7.60428 31.10176,-7.35274c15.7171,0.26084 31.64755,7.69147 32.43346,8.25117c1.85748,1.32282 3.71922,3.53278 3.71922,3.88885z" fill="#696969"/><path d="M263.47263,154.69431c0,0.11756 0.73272,5.43459 -4.82648,10.78145c-5.68584,5.46867 -17.66832,12.46855 -17.84011,12.46855c-0.0701,0 -11.89118,-6.70764 -17.43644,-12.02663c-5.74994,-5.51532 -5.23014,-11.15035 -5.23014,-11.22337c0,-7.04163 10.14817,-12.75 22.66658,-12.75c12.51841,0 22.66659,5.70837 22.66659,12.75z" fill="#000000"/></g></g><path d="M208.04329,99.05206c0,0 7.17935,-4.63806 7.47039,-5.46345c0.76331,-2.1648 7.49523,-39.46813 43.23485,-33.95305c43.99162,7.61405 31.55909,42.13926 32.72443,49.33505c1.59785,9.86652 2.72596,18.25483 2.72596,18.25483c0,0 -2.32484,-2.54345 -3.40729,-3.85436c-1.00959,-1.22266 -3.13186,-3.81296 -3.13186,-3.81296c0,0 1.0613,10.74764 -2.65909,20.56526c-3.3414,9.00915 -10.44834,15.51792 -10.44834,15.51792l-0.68645,-2.52455c0,0 -1.42298,1.96262 -2.75588,2.85974c-1.33291,0.8971 -3.93102,2.20362 -3.93102,2.20362l0.61593,-3.6538c0,0 -9.03139,9.46965 -25.97682,6.02909c-15.95838,-3.35993 -23.55773,-15.45046 -23.55773,-15.45046l-0.62027,2.58398c0,0 -3.19548,-3.97497 -4.21709,-10.70807c-1.21763,-8.02507 -0.84558,-12.6363 -0.84558,-12.6363c0,0 -2.65828,1.41832 -6.14115,1.63342c-4.36424,0.26954 -6.88504,-0.98561 -6.88504,-0.98561c0,0 4.05985,-1.97938 6.391,-3.61767c2.0764,-1.45926 3.24197,-2.81063 3.24197,-2.81063c0,0 -2.27574,0.66294 -4.46361,0.78119c-2.2828,0.1234 -4.05738,-0.24723 -4.05738,-0.24723c0,0 5.84412,-3.99629 8.97518,-9.33422c2.95622,-5.03987 4.15045,-10.35593 4.15045,-10.35593c0,0 -1.46282,0.38986 -3.42064,0.14558c-1.241,-0.15484 -2.3249,-0.50139 -2.3249,-0.50139z" fill="#000000" stroke="none" stroke-width="1.5" stroke-linecap="butt"/><path d="M222.36251,113.36658c0.82411,-7.26946 3.59974,-16.77588 3.59974,-16.77588c0,0 3.35588,0.60982 14.25853,-0.43349c8.3761,-0.80155 21.97929,-5.39536 21.97929,-5.39536c0,0 -2.6934,2.53804 -4.19572,3.72855c-1.59714,1.26565 -4.7897,3.71792 -4.7897,3.71792c0,0 8.01217,-0.14253 15.30728,-1.84448c9.08534,-1.83713 11.55234,-3.92234 13.58853,-2.03916c2.4032,2.22262 -3.40913,22.95379 -4.77476,28.35033c-1.49486,5.48482 -4.29812,8.84238 -5.47983,11.69015c-1.18171,2.84777 -1.57217,5.94594 -5.22407,15.32477c-2.27903,5.85304 -5.78716,7.96738 -12.63101,12.48141c-6.84385,4.51404 -10.65192,7.35669 -14.55223,6.66938c-3.75352,-0.66144 -7.79925,-6.71041 -11.70011,-12.84906c-4.15377,-6.53667 -7.09572,-10.0138 -6.65054,-16.71447c0.40093,-6.03466 1.127,-9.87481 1.80537,-15.18266c0.4958,-3.87937 -0.99082,-6.75794 -0.54076,-10.72794z" fill="#ffffff" stroke="#000000" stroke-width="1.5" stroke-linecap="butt"/><path d="M272.43363,107.68923c0,0 1.43568,0.60287 3.96602,1.90138c2.31118,1.18605 4.03518,2.5604 4.03518,2.5604l-0.03163,1.18608c0,0 -6.51983,-4.45485 -14.36741,-5.30744c-6.27474,-0.68168 -10.31665,0.8611 -10.31665,0.8611l0.84132,-4.09148c0,0 3.39505,-1.07662 8.0732,-0.32215c4.84419,0.78127 7.82967,2.1231 7.82967,2.1231z" data-paper-data="{&quot;index&quot;:null}" fill="#000000" stroke="none" stroke-width="1.5" stroke-linecap="butt"/><path d="M251.70715,147.45436c0.51954,0.31673 2.76017,1.9617 5.41838,3.69682c2.67938,1.74894 6.64408,3.62631 6.59299,3.78708c-0.06485,0.20403 -10.2866,-1.76684 -13.54896,-1.98764c-2.7339,-0.18503 -6.7005,-0.58265 -6.7005,-0.58265c0,0 -6.75218,-2.49491 -12.56262,-4.93102c-4.65687,-1.95245 -9.89178,-3.61346 -9.88441,-3.70731c0.00992,-0.12656 3.93289,0.03992 6.9649,-0.0679c1.21952,-0.26902 5.62308,-0.42068 5.62308,-0.42068c0,0 4.91787,0.67238 7.35828,2.01906c2.61487,1.44297 2.31714,2.94134 2.55576,3.01162c0,0 1.49618,-1.4914 2.72669,-1.61432c1.23052,-0.12291 5.06833,0.56034 5.45643,0.79693z" fill="#ffffff" stroke="#000000" stroke-width="1.4" stroke-linecap="butt"/><path d="M232.53304,148.36874c4.80197,1.97864 11.16363,5.0282 11.16363,5.0282c0,0 5.9802,-0.42336 8.64158,-0.19018c2.06331,0.18077 11.14495,1.445 11.11732,1.81937c-0.02701,0.36604 -11.32524,10.94166 -23.13342,8.18643c-13.43383,-3.05325 -19.55917,-19.21755 -19.48978,-19.37636c0.06939,-0.15881 6.89871,2.5539 11.70067,4.53255z" fill="#ffffff" stroke="#000000" stroke-width="1.9" stroke-linecap="butt"/><path d="M243.87677,147.52248c-1.01479,-0.19711 -2.85152,-3.87522 -2.69452,-5.98731c0.14047,-1.88975 2.02088,-3.507 4.44712,-3.03574c2.42625,0.47126 4.03143,1.28299 3.15742,4.88009c-0.74175,3.05275 -2.48378,4.61424 -4.91002,4.14297z" fill="#ffffff" stroke="#000000" stroke-width="1.15" stroke-linecap="butt"/><path d="M253.15083,118.66769c0,0 -0.65621,3.91649 -1.35319,6.99697c-1.38014,6.09989 -6.35482,27.04519 -6.35482,27.04519l-2.92861,-0.56004c0,0 0.00742,-4.24928 0.70873,-9.53967c0.94929,-7.161 2.66541,-16.08 2.9939,-19.41768c0.31138,-3.1638 0.21011,-5.78052 0.21011,-5.78052" fill="#ffffff" stroke="#000000" stroke-width="1.3" stroke-linecap="round"/><path d="M222.10075,123.62815c0,0 -4.17102,-4.39294 -4.33979,-9.9857c-0.17758,-5.88466 0.4214,-9.83285 2.37651,-9.71707c1.95511,0.11576 2.2004,2.84874 2.07094,8.9141c-0.12947,6.06536 -0.10765,10.78868 -0.10765,10.78868z" data-paper-data="{&quot;index&quot;:null}" fill="#ffffff" stroke="#000000" stroke-width="1" stroke-linecap="butt"/><path d="M222.65456,119.71438c0,0 -2.94106,-3.54927 -2.62764,-9.11893c0.17482,-3.10694 2.55194,-1.8271 2.55194,-1.8271" fill="none" stroke="#000000" stroke-width="0.25" stroke-linecap="round"/><path d="M226.88177,113.75517c1.00237,-4.78861 6.45344,-7.84961 11.71304,-6.74866c5.25959,1.10096 8.05157,5.8917 7.04921,10.68032c-1.00237,4.78861 -5.72471,7.84681 -10.98432,6.74586c-5.25959,-1.10096 -8.78031,-5.8889 -7.77793,-10.67752z" fill="#ffffff" stroke="#000000" stroke-width="1.4" stroke-linecap="butt"/><path d="M231.2155,114.71707c0.56521,-2.7002 3.21234,-4.43092 5.91252,-3.86571c2.7002,0.56521 4.43092,3.21234 3.86571,5.91252c-0.56521,2.7002 -3.21233,4.43092 -5.91252,3.86571c-2.7002,-0.56521 -4.43092,-3.21234 -3.86571,-5.91252z" fill="#000000" stroke="none" stroke-width="1.5" stroke-linecap="butt"/><path d="M253.44152,118.91476c1.13183,-4.75968 6.06002,-7.84696 11.28029,-6.83299c5.22027,1.01396 8.34816,5.6617 7.41531,10.46435c-0.93284,4.80264 -5.54415,8.1637 -11.26479,7.12471c-5.44137,-0.98826 -8.61284,-5.78529 -7.43081,-10.75606z" fill="#ffffff" stroke="#000000" stroke-width="1.4" stroke-linecap="butt"/><path d="M257.94353,119.87636c0.5374,-2.76674 3.21593,-4.57398 5.98267,-4.03658c2.76674,0.5374 4.57398,3.21593 4.03658,5.98267c-0.5374,2.76674 -3.21592,4.57398 -5.98267,4.03658c-2.76674,-0.5374 -4.57398,-3.21593 -4.03658,-5.98267z" fill="#000000" stroke="none" stroke-width="1.5" stroke-linecap="butt"/><path d="M226.91606,113.2197c0,0 1.78134,-8.83761 12.08928,-6.64166c9.26563,1.96868 7.58653,11.05662 7.58653,11.05662z" fill="#ffffff" stroke="#000000" stroke-width="1.15" stroke-linecap="butt"/><path d="M253.14746,118.44812c0,0 1.56109,-9.33175 12.72841,-6.80102c9.47247,2.17959 7.5312,11.29551 7.5312,11.29551z" fill="#ffffff" stroke="#000000" stroke-width="1.15" stroke-linecap="butt"/><path d="M232.29011,104.06476c0,0 3.65464,-1.14313 8.32015,-0.70835c5.16997,0.48178 7.63835,1.41612 7.63835,1.41612l-0.49923,4.11783c0,0 -3.63539,-1.39949 -7.77149,-2.04037c-5.53152,-0.8571 -6.79619,0.13965 -11.0584,-0.2214c-3.65209,-0.30937 -6.64391,-1.12868 -6.64391,-1.12868l0.20941,-1.21389c0,0 3.51511,0.75812 5.15073,0.93082c1.34998,0.14253 4.08163,-0.16281 4.08163,-0.16281z" fill="#000000" stroke="none" stroke-width="1.5" stroke-linecap="butt"/><path d="M277.36221,123.55231c2.1505,-5.6728 3.40105,-8.11523 5.25734,-7.49069c1.85628,0.62454 0.93371,4.50986 -1.43386,9.90016c-2.25014,5.12292 -7.76237,7.63503 -7.76237,7.63503c0,0 1.7884,-4.37171 3.9389,-10.04451z" data-paper-data="{&quot;index&quot;:null}" fill="#ffffff" stroke="#000000" stroke-width="1" stroke-linecap="butt"/><path d="M278.54268,119.63853c0,0 2.68338,-0.29692 1.68242,2.64956c-1.79436,5.282 -5.85023,7.47222 -5.85023,7.47222" data-paper-data="{&quot;index&quot;:null}" fill="none" stroke="#000000" stroke-width="0.25" stroke-linecap="round"/><path d="M219.00839,136.42713l-5.01678,3.4154l-1.18959,-6.50241l4.15839,-0.86276z" fill="#564023" stroke="#000000" stroke-width="1.5" stroke-linecap="butt"/><path d="M275.08896,155.12957l-4.52993,-8.50041l2.29561,-4.53943l6.8249,6.95197z" fill="#564023" stroke="#000000" stroke-width="1.5" stroke-linecap="butt"/><path d="M220.99777,102.03102l-4.01963,-15.38889l5.1605,-9.52727l3.05572,24.08495z" fill="#564023" stroke="#000000" stroke-width="1.5" stroke-linecap="butt"/><path d="M279.79204,112.3582l12.03241,-21.99789l0.32567,10.14805l-8.96705,14.61647z" fill="#564023" stroke="#000000" stroke-width="1.5" stroke-linecap="butt"/><g stroke-linecap="butt"><path d="M274.4101,128.85376c-1.75011,14.0448 -16.02361,24.67826 -30.55608,22.86738c-14.53247,-1.81088 -24.89463,-14.66444 -23.14451,-28.70925c0.92879,-7.45361 -4.22446,-29.49466 1.6416,-33.48729c5.18733,-3.53066 23.88419,8.69621 30.70424,9.54605c5.37482,0.66975 15.62588,-6.52542 21.61078,-4.28526c3.00212,1.1237 5.33341,-1.09962 5.51664,3.67807c0.0229,0.59703 0.57937,1.91472 0.9261,3.50053c0.24181,1.10595 0.38162,2.34231 0.16728,3.55557c-0.52163,2.95267 -2.11465,5.64022 -1.87656,6.10664c2.21422,4.33767 -4.34906,12.08815 -4.98948,17.22756z" fill="#000000" stroke="none" stroke-width="0"/><path d="M285.80609,98.24323c0,0 -19.69505,2.47773 -35.83682,0.46631c-16.14177,-2.01141 -29.26247,-9.1163 -29.26247,-9.1163c0,0 12.77735,-4.72705 24.91516,-4.50246c3.19396,0.0591 8.27267,3.70607 8.27267,3.70607c0,0 3.99347,-2.07361 6.35725,-1.57755c13.13512,2.75653 25.55422,11.02395 25.55422,11.02395z" fill="#ffffff" stroke="#000000" stroke-width="2.5"/><path d="M283.17871,99.17461c-0.13335,1.07011 -1.18505,13.05458 -1.2929,14.34441c-0.50667,6.05927 -2.95056,18.11497 -6.30813,25.44565c-0.85482,1.86636 -2.15437,5.79974 -4.79864,8.71095c-4.47035,4.92161 -11.34775,8.76684 -15.96522,8.19146c-7.65,-0.95326 -25.6827,-2.99872 -31.55869,-11.79772c-8.50783,-12.74005 -3.32777,-50.52414 -2.30827,-54.3487c0.08962,0.06215 0.0874,16.62363 0.17872,16.68379c0.03478,0.02647 2.87518,19.50838 5.33732,27.97212c2.10361,7.23126 9.60116,9.23911 9.70548,9.33576c0.52686,0.48812 9.33697,2.26433 19.13819,2.64302c6.46477,0.24978 10.53674,-2.23045 12.77471,-4.85866c10.1858,-11.96204 13.18575,-35.28543 12.23382,-27.64608z" fill="#ffffff" stroke="#000000" stroke-width="2.5"/><path d="M255.73585,111.00741c-0.43641,3.50227 -0.58145,7.47446 -1.54997,8.82932c-0.93301,1.30517 -2.65411,0.06227 -4.90333,-0.21801c-4.58407,-0.57121 -7.4719,-3.36366 -6.61508,-10.23975c0.85682,-6.8761 5.1124,-13.62063 9.69647,-13.04941c1.39461,0.17378 4.91447,0.389 5.51971,1.598c1.38416,2.76498 -1.55164,8.29566 -2.14779,13.07985z" fill="#ffffff" stroke="#000000" stroke-width="2.5"/><path d="M267.28536,112.62308c-0.37496,3.00913 1.86233,5.68278 0.05275,7.20406c-2.4721,2.07824 -9.2841,2.40615 -11.08609,2.1816c-3.12107,-0.38891 1.40085,-12.68124 2.28806,-19.80117c0.88721,-7.11994 7.2768,-2.95598 8.12164,-0.10342c0.67655,2.28437 1.01818,7.35273 0.62364,10.51894z" fill="#ffffff" stroke="#000000" stroke-width="2.5"/><path d="M231.13249,109.0532l6.1779,-14.94102c0,0 3.54554,-0.34029 5.11826,0.39082c1.6973,0.78901 4.72031,4.18276 4.72031,4.18276l-4.15462,17.70889c0,0 -8.81452,0.63353 -10.09064,-0.78575c-1.24528,-1.38498 -1.77123,-6.55569 -1.77123,-6.55569z" fill="#ffffff" stroke="#000000" stroke-width="2.5"/><path d="M237.43473,95.5867c-0.18838,1.51177 -6.23233,15.74463 -7.50026,15.58664c-1.26794,-0.158 -8.5862,-6.88088 -8.39783,-8.39265c0.18838,-1.51177 0.76018,-12.13495 2.02811,-11.97696c1.26794,0.158 6.18343,1.48143 5.99506,2.9932z" fill="#ffffff" stroke="#000000" stroke-width="2.5"/><path d="M281.71786,102.98757c-0.24914,1.99942 -0.5413,13.63356 -1.76046,13.48164c-0.45877,-0.05717 -5.47539,2.99626 -5.77947,2.55943c-0.504,-0.72403 2.96954,-15.34418 3.12493,-16.59121c0.24914,-1.99942 0.37986,-3.62917 1.59902,-3.47725c0.66439,0.08279 3.20831,-1.08416 3.51809,-0.27209c0.25869,0.67811 -0.58873,3.38965 -0.70212,4.29949z" fill="#ffffff" stroke="#000000" stroke-width="2.5"/><path d="M268.82986,122.90402l-1.79685,-23.00032c0,0 5.01175,-1.5276 6.62167,-1.32699c1.78604,0.22256 3.77516,1.36713 3.77516,1.36713c0,0 -0.10721,0.94693 -0.20954,1.85086c-0.28033,2.47613 -1.57238,13.88852 -1.57238,13.88852z" fill="#ffffff" stroke="#000000" stroke-width="2.5"/><path d="M232.53201,142.12529c0,0 -6.59374,-6.55742 -7.12957,-7.92677c-0.8146,-2.08176 0.84242,-3.87767 0.84242,-3.87767l12.70261,7.57024v6.28715z" fill="#ffffff" stroke="#000000" stroke-width="2.5"/><path d="M239.71732,144.30655l-0.64155,-5.13237l17.32174,1.02647v5.26068z" fill="#ffffff" stroke="#000000" stroke-width="2.5"/><path d="M257.29568,145.97456v-6.03053c0,0 2.39153,-0.18016 5.13082,-1.19882c2.2325,-0.8302 4.69598,-2.43276 6.2841,-3.1864c0.74763,-0.35479 -0.53046,-0.16348 0.26121,0.15102c2.46681,0.97996 1.40503,2.32832 0.29466,4.00439c-1.21186,1.82926 -2.60422,3.95077 -2.60422,3.95077z" fill="#ffffff" stroke="#000000" stroke-width="2.5"/></g></g></g></svg>