<svg version="1.1" xmlns="http://www.w3.org/2000/svg" xmlns:xlink="http://www.w3.org/1999/xlink" width="100.17159" height="260.4424" viewBox="0,0,100.17159,260.4424"><defs><linearGradient x1="241.68495" y1="220.68005" x2="241.68495" y2="270.68003" gradientUnits="userSpaceOnUse" id="color-1"><stop offset="0" stop-color="#000000"/><stop offset="1" stop-color="#000000" stop-opacity="0"/></linearGradient><linearGradient x1="251.20442" y1="116.15685" x2="252.14074" y2="143.30484" gradientUnits="userSpaceOnUse" id="color-2"><stop offset="0" stop-color="#1a1a1a"/><stop offset="1" stop-color="#1a1a1a" stop-opacity="0"/></linearGradient></defs><g transform="translate(-191.4316,-47.63019)"><g data-paper-data="{&quot;isPaintingLayer&quot;:true}" fill-rule="nonzero" stroke-linejoin="miter" stroke-miterlimit="10" stroke-dasharray="" stroke-dashoffset="0" style="mix-blend-mode: normal"><path d="M200.47534,308.07259l-8.72842,-253.07454l91.12785,-3.14296l8.72842,253.07454z" fill-opacity="0.01" fill="#000000" stroke="none" stroke-width="0" stroke-linecap="butt"/><path d="M200.0665,103.31315c0.24889,-2.54703 -1.7148,-44.85243 34.3453,-47.66197c11.9151,-0.68397 20.34358,1.72196 26.35111,5.75902c-0.43547,1.10409 -0.63774,2.31356 -0.60583,3.37702c0.12274,3.73735 1.6468,6.33171 -0.26985,10.02141c-0.27445,0.79658 -1.40529,4.10406 -0.39829,4.67472c1.46308,0.82911 3.66946,-2.84844 2.93398,-0.04301c-0.08148,0.31081 -0.3158,0.56141 -0.4391,0.85813c-0.65141,1.57362 -2.41596,3.17006 -2.81953,4.67882c-0.45171,1.68874 0.32456,2.87061 -0.94398,4.60254c-0.43477,1.08164 -1.39816,1.957 -1.79567,3.01614c-0.71769,1.91222 -0.87505,4.30696 -1.32454,6.34338l0.0244,0.02754l-0.02584,0.00009l0.00003,0.00806l-0.01653,0.00061l0.01838,0.49959c0,0.00002 0,0.00005 0,0.00007c0.00506,0.13772 0.12065,0.24541 0.25845,0.24066c0.13571,-0.00468 0.24242,-0.1167 0.24138,-0.25166l-0.00163,-0.4782c0.00508,-0.02288 0.01013,-0.04579 0.01514,-0.06874c0.51662,-0.69344 0.81805,-1.8153 1.234,-2.49744c0.6783,-1.1124 1.93155,-1.96043 2.4818,-3.10024l0.22283,-0.25204c2.37901,-1.64196 4.08601,-4.11324 5.79539,-6.37355c-0.00824,0.61435 0.14984,1.32702 0.12956,1.82332c-0.06787,1.66124 -0.29837,3.78646 -0.84886,5.3413l-0.16467,0.46607c-0.01145,0.03015 -0.01721,0.06302 -0.01603,0.09727c0.00476,0.13799 0.12048,0.24599 0.25847,0.24123c0.0665,-0.00229 0.12603,-0.03036 0.16934,-0.07427l0.35157,-0.35476l-0.03185,-0.03156c1.18612,-0.88591 2.33881,-2.2546 2.90599,-3.5856c-0.16625,1.54294 0.14319,3.36269 -0.12397,4.90929c-0.22666,1.31213 -1.48808,2.23552 -1.85701,3.5112c-0.00788,1.08563 -0.87303,1.7409 -0.92726,2.80994l0.00223,0.00807l-0.00218,0.00005l0.01148,0.49939c0.00002,0.00111 0.00005,0.00224 0.00009,0.00336c0.00476,0.13799 0.12048,0.24599 0.25847,0.24123c0.09631,-0.00332 0.17801,-0.06069 0.21696,-0.14196l0.22254,-0.44208l-0.02986,-0.01503c0.94582,-1.27553 1.63763,-2.67524 3.30313,-3.33611c0.50714,-0.20124 1.03675,0.78026 1.53708,0.56266c0.4071,-0.17706 1.0639,-1.89857 1.25074,-2.32106c0.12137,-0.27888 0.22068,-0.55479 0.29547,-0.83479c0.22618,0.32614 0.58422,0.5232 1.01756,0.36613c1.09223,-0.39588 2.12119,-1.36458 3.06374,-2.42832c0.40192,3.28066 0.67694,5.89312 1.20218,7.32114c3.80903,10.35593 6.82309,19.21717 6.82309,19.21717c0,0 -2.84459,-2.19762 -4.19797,-3.35884c-1.26228,-1.08305 -3.92032,-3.38169 -3.92032,-3.38169c0,0 3.4878,11.44836 2.10714,23.06326c-1.19624,10.64052 -6.6301,19.48582 -6.6301,19.48582l-1.24493,-2.58128c0,0 -0.93741,2.48952 -2.03042,3.79586c-1.09302,1.30633 -3.32451,3.37095 -3.32451,3.37095l-0.23465,-4.13303c0,0 -6.63158,12.54623 -23.91751,12.97874c-16.3064,0.2768 -26.46714,-11.02149 -26.46714,-11.02149l-0.01389,2.96845c0,0 -4.01927,-3.54251 -6.55163,-10.62658c-3.01828,-8.44337 -3.70904,-13.5594 -3.70904,-13.5594c0,0 -2.26455,2.20126 -5.6068,3.29502c-4.18803,1.37053 -6.92923,0.62497 -6.92923,0.62497c0,0 3.50116,-3.15841 5.39694,-5.51864c1.68861,-2.10229 2.51494,-3.8623 2.51494,-3.8623c0,0 -2.06455,1.28385 -4.16794,1.95254c-2.19464,0.69772 -4.00724,0.73176 -4.00724,0.73176c0,0 4.77797,-5.79622 6.60777,-12.3848c1.72763,-6.2207 1.67649,-12.30754 1.67649,-12.30754c0,0 -1.33536,0.78573 -3.29753,1.00265c-1.24101,0.13721 -2.3733,0.02784 -2.37831,0.02735c0.01122,-0.01291 5.93164,-6.82583 6.02645,-7.79603z" fill="#000000" stroke="none" stroke-width="1.5" stroke-linecap="butt"/><path d="M194.04003,111.10918c0,0 0,0 0.00001,0c-0.00001,0.00001 -0.00001,0.00002 -0.00001,0.00002z" fill="#000000" stroke="none" stroke-width="1.5" stroke-linecap="butt"/><path d="M201.54534,304.19158c0,0 -0.63536,-94.38387 -0.79335,-118.01201c-0.05451,-8.15261 8.18688,-36.76129 40.20201,-36.9211c31.60235,-0.15775 39.85672,29.48704 39.84884,36.89673c-0.07659,46.24274 0.65429,117.98648 0.65429,117.98648l-10.49667,0.09614c0,0 -0.02122,-15.34505 -0.03718,-26.88825c-0.01313,-9.49553 0.71052,-28.54829 0.68569,-46.50026c-0.02976,-21.51809 -0.80733,-41.4546 -0.80733,-41.4546c0,0 0.07549,-3.0993 -2.81625,-3.15415c-3.43441,-0.06514 -2.94538,3.11562 -2.94538,3.11562c0,0 0.11291,63.11778 0.15069,84.24323c0.00881,4.92398 -1.48101,9.86778 -1.47183,15.0004c0.0085,4.7492 1.51613,9.76793 1.52102,12.50175c0.0035,1.95459 0.00559,3.12457 0.00559,3.12457l-48.21366,0.07222c0,0 -0.00291,-1.09933 -0.00781,-2.94745c-0.00787,-2.96891 1.72914,-7.87019 1.71488,-13.25057c-0.01271,-4.79548 -1.77643,-9.97156 -1.78843,-14.49924c-0.05616,-21.19111 -0.22404,-84.53583 -0.22404,-84.53583c0,0 0.27949,-2.919 -2.8856,-2.93443c-3.11083,-0.01515 -2.81569,2.90899 -2.81569,2.90899c0,0 -1.42271,25.18603 -1.37476,40.81007c0.03232,10.53066 1.58923,29.07699 1.63809,44.99958c0.04893,15.94398 0.08978,29.25716 0.08978,29.25716z" fill="#ffffff" stroke="#000000" stroke-width="2" stroke-linecap="butt"/><path d="M232.48495,198.28005v-23.2c0,0 5.74495,8.6 8.6,8.6c3.1212,0 9.4,-8.6 9.4,-8.6v23.2z" fill="#000000" stroke="none" stroke-width="0" stroke-linecap="butt"/><path d="M217.86495,281.35005v-54.5h48v47.53245c-0.78573,1.11757 -1.69043,2.20734 -2.33342,3.25531c-1.08456,1.81177 -0.94419,-3.60844 -2.55626,-2.69781c-0.13601,0.07683 -0.11032,1.02409 -0.11032,1.20734c0,1.49099 0.05748,2.99571 -0.03244,4.48407c-0.01319,0.2191 -0.06165,0.4699 -0.14123,0.71863h-2.64769c-0.57043,-1.17026 -0.7512,-2.7483 -1.506,-3.77546l0.09505,-0.08342l-0.32888,-0.37477c-0.04584,-0.05277 -0.11343,-0.08614 -0.18882,-0.08614c-0.13806,0 -0.24998,0.11191 -0.25,0.24997v0.00001l-0.00007,0.49996c0,0.00001 0,0.00002 0,0.00003c-0.00017,0.33326 -0.00034,0.66654 -0.0005,0.9998c-0.00056,0.41046 0.09928,1.5811 0.02001,2.57002h-9.69996c-0.17511,-1.46893 -0.33109,-2.93575 -0.42786,-4.41323c-0.2297,-3.50714 -0.70279,-6.97202 -1.2794,-10.43946c-0.11494,-0.69117 -0.39053,-4.81923 -1.51395,-4.2491c-0.22168,0.1125 -0.2652,1.41137 -0.29718,1.66523c-0.18763,1.4896 -0.4951,2.972 -0.6135,4.4687c-0.18411,2.33598 -0.50703,4.60264 -0.9002,6.91233c-0.10593,0.62232 -0.38137,1.64238 -0.27472,2.36588c-0.07849,-0.10221 -0.16907,-0.19572 -0.26752,-0.28169l0.05087,-0.06293l-0.38737,-0.31313c-0.04316,-0.03548 -0.09842,-0.05677 -0.15865,-0.05677c-0.13807,0 -0.25,0.11192 -0.25,0.24999v0v0.5v0c0,0.50739 0.16375,2.30836 0.07102,3.65419h-10.19603c-0.22227,-0.85635 -0.38045,-1.841 -0.38099,-2.28845c-0.00592,-0.51756 -0.08304,-2.38189 -1.16761,-1.71728c-0.1786,0.10944 -0.47141,1.79596 -0.54134,2.07139c-0.17336,0.68282 -0.29099,1.34963 -0.30052,1.93435h-2.06178c-0.02353,-0.5029 -0.01568,-0.99146 -0.06114,-1.22297c-0.57286,-2.89103 -0.43703,-6.57264 -1.48074,-9.3743l0.03439,-0.00729l-0.10274,-0.48443c-0.02206,-0.11552 -0.12361,-0.20283 -0.24556,-0.20283c-0.10735,0 -0.19889,0.06766 -0.23432,0.16267l-0.18333,0.45891l0.00324,0.00129l-0.00785,0.0112c-0.36378,1.29334 -0.87112,2.5314 -1.19151,3.83658c-0.49561,2.01893 -1.3664,4.54902 -1.75564,6.82117z" fill="#000000" stroke="none" stroke-width="0" stroke-linecap="butt"/><path d="M216.68495,270.68003v-50h50v50z" fill="url(#color-1)" stroke="none" stroke-width="0" stroke-linecap="butt"/><path d="M198.69828,199.60005c0,0 1.4,-14.46152 1.4,-20.92c0,-4.10758 9,-16.08 9,-16.08l0.04875,0.00061c0.08758,0.78544 0.26614,1.54341 0.52489,2.26311c1.369,4.10699 2.80922,8.25582 3.97347,12.47841c0.8203,2.97513 1.93716,6.22279 2.27427,9.29186c0.19395,1.76572 -0.3106,4.588 -0.23472,6.24601c0.10312,2.25338 0.75807,4.51768 1.45445,6.76377z" fill="#000000" stroke="none" stroke-width="0" stroke-linecap="butt"/><path d="M281.36494,179.48005c0,6.45847 1.6,20.32 1.6,20.32l-15.62644,-0.03567c0.22904,-5.72084 0.38508,-11.45835 0.52144,-17.18433c0.11196,-4.70107 3.07556,-12.90745 5.1977,-18.3631c2.47725,3.79955 8.3073,12.41797 8.3073,15.26309z" fill="#000000" stroke="none" stroke-width="0" stroke-linecap="butt"/><path d="M250.17139,163.77729c-0.0349,-0.22401 -0.07191,-0.4454 -0.11106,-0.66415l0.34545,0.00433c-0.09422,0.54012 -0.18212,0.99534 -0.23439,0.65982z" fill="#000000" stroke="none" stroke-width="0" stroke-linecap="butt"/><path d="M256.1425,200.33383c-0.57113,0 -1.03411,-0.46299 -1.03411,-1.03411c0,-0.57113 0.46299,-1.03413 1.03411,-1.03413c0.57113,0 1.03411,0.463 1.03411,1.03413c0,0.57113 -0.46299,1.03411 -1.03411,1.03411z" fill="#000000" stroke="none" stroke-width="1.5" stroke-linecap="butt"/><path d="M250.88263,204.56942c-4.4635,-0.31439 -6.55245,-1.79392 -6.16985,-2.58011c0.11788,-0.24224 2.84645,1.06355 6.97038,1.3048c6.40897,0.37493 8.51033,-0.63173 8.51033,-0.63173v1.34616c0,0 -2.4135,1.04672 -9.31086,0.56089z" fill="#000000" stroke="#000000" stroke-width="0" stroke-linecap="butt"/><path d="M223.06988,199.29972c0,-0.57113 0.46299,-1.03413 1.03411,-1.03413c0.57113,0 1.03413,0.463 1.03413,1.03413c0,0.57113 -0.463,1.03411 -1.03413,1.03411c-0.57113,0 -1.03411,-0.46299 -1.03411,-1.03411z" fill="#000000" stroke="none" stroke-width="1.5" stroke-linecap="butt"/><path d="M229.36386,204.56942c-6.89736,0.48585 -9.31086,-0.56089 -9.31086,-0.56089v-1.34616c0,0 2.10136,1.00666 8.51033,0.63173c4.12393,-0.24126 6.85251,-1.54704 6.97039,-1.3048c0.3826,0.78618 -1.70634,2.26571 -6.16985,2.58011z" fill="#000000" stroke="#000000" stroke-width="0" stroke-linecap="butt"/><path d="M240.64432,261.12113c-0.81895,0 -1.48284,-0.66389 -1.48284,-1.48284c0,-0.81895 0.66389,-1.48284 1.48284,-1.48284c0.81895,0 1.48284,0.66389 1.48284,1.48284c0,0.81895 -0.66389,1.48284 -1.48284,1.48284z" data-paper-data="{&quot;index&quot;:null}" fill="#000000" stroke="none" stroke-width="1.5" stroke-linecap="butt"/><path d="M255.88495,165.08551l17.4,0.2255l-5.6,25.25588l-0.4,76.21863l-25.2,-33.82484c0,0 -0.70708,-14.62027 -0.94867,-19.61565c-0.14933,-3.08769 -0.36244,-7.49432 -0.36244,-7.49432z" fill="#ce0707" stroke="#cc0000" stroke-width="0" stroke-linecap="round"/><path d="M240.66667,201.9334l0.18244,-10.69329l12.41756,-37.97337l6.4,-2.8c0,0 15,9.19569 15,12.61333c0,2.6056 -15.8,8.54788 -15.8,14.2c0,7.45949 3.21836,5.57714 -0.09601,10.3903c-1.55841,2.26313 -11.10399,14.26304 -11.10399,14.26304z" fill="#454545" stroke="none" stroke-width="NaN" stroke-linecap="butt"/><path d="M242.36829,202.44197l-1.64444,30.31003l-25.2,33.65854l-0.4,-75.8439l-5.6,-25.13171l17.4,-0.22439z" data-paper-data="{&quot;index&quot;:null}" fill="#640303" stroke="#cc0000" stroke-width="0" stroke-linecap="round"/><path d="M234.86667,201.9334c0,0 -9.54559,-11.99991 -11.104,-14.26304c-3.31437,-4.81315 -0.096,-2.93081 -0.096,-10.3903c0,-5.65213 -15.8,-11.5944 -15.8,-14.2c0,-3.41764 15,-12.61334 15,-12.61334l6.4,2.8l12.41756,38.17338l0.18244,10.49329z" data-paper-data="{&quot;index&quot;:null}" fill="#0c0c0c" stroke="none" stroke-width="NaN" stroke-linecap="butt"/><path d="M211.01062,116.17482c-0.82814,-7.269 3.15064,-17.31461 13.54115,-20.77782c7.98263,-2.66067 20.20808,-10.18983 20.20808,-10.18983c0,0 -2.05519,3.0777 -3.25205,4.57496c-1.2724,1.59176 -3.83327,4.69789 -3.83327,4.69789c0,0 7.77586,-1.93679 14.50302,-5.23232c8.4414,-3.82899 -32.46706,74.61058 14.49311,23.66242c-0.22597,5.68038 -2.20432,9.58136 -2.71687,12.62168c-0.51255,3.04031 -0.19783,6.14709 -1.65204,16.10621c-0.90752,6.21518 -3.85173,9.06281 -9.50812,14.99746c-5.65639,5.93466 -8.72947,9.55933 -12.68455,9.76476c-3.80622,0.1977 -9.10614,-4.78917 -14.28501,-9.89593c-5.51465,-5.43789 -9.16181,-8.16618 -10.23159,-14.79587c-0.96345,-5.97073 -1.11761,-9.87588 -1.64759,-15.20059c-0.38735,-3.89169 -2.482,-6.36327 -2.93427,-10.33301z" fill="#ffffff" stroke="#000000" stroke-width="1.5" stroke-linecap="butt"/><path d="M258.53087,99.40652c0,0 1.53435,0.26534 4.29154,0.96294c2.51838,0.63718 4.50682,1.58963 4.50682,1.58963l0.23532,1.16293c0,0 -7.35321,-2.87822 -15.19198,-1.9481c-6.26769,0.74372 -9.86033,3.15415 -9.86033,3.15415l-0.09825,-4.17592c0,0 3.06688,-1.811 7.79503,-2.12552c4.89596,-0.32567 8.10641,0.31202 8.10641,0.31202z" data-paper-data="{&quot;index&quot;:null}" fill="#000000" stroke="none" stroke-width="1.5" stroke-linecap="butt"/><path d="M239.64066,144.63198c-1.03315,0.03563 -3.64838,-3.13653 -3.96933,-5.22999c-0.28716,-1.87307 1.18239,-3.87105 3.6525,-3.95624c2.47012,-0.08519 4.21652,0.34564 4.17197,4.04713c-0.03781,3.14135 -1.38503,5.05391 -3.85514,5.13911z" fill="#ffffff" stroke="#000000" stroke-width="1.15" stroke-linecap="butt"/><path d="M213.05818,126.23344c0,0 -5.05041,-3.34495 -6.46987,-8.75721c-1.49354,-5.69474 -1.79579,-9.67665 0.13543,-10.00254c1.93122,-0.32591 2.78353,2.28233 4.01841,8.22206c1.23487,5.93973 2.31603,10.5377 2.31603,10.5377z" data-paper-data="{&quot;index&quot;:null}" fill="#ffffff" stroke="#000000" stroke-width="1" stroke-linecap="butt"/><path d="M212.71964,122.29521c0,0 -3.6625,-2.7988 -4.60688,-8.29675c-0.52682,-3.06693 2.07687,-2.35315 2.07687,-2.35315" fill="none" stroke="#000000" stroke-width="0.25" stroke-linecap="round"/><path d="M215.50183,115.5394c-0.04499,-2.2521 0.91119,-4.35893 2.48055,-5.98733c1.83918,-1.90838 4.52051,-3.15966 7.41941,-3.21758c5.37251,-0.10735 9.16831,3.93472 9.26605,8.82614c0.09773,4.89142 -3.81794,8.9313 -9.19046,9.03866c-5.37251,0.10735 -9.87783,-3.76846 -9.97557,-8.65989z" fill="#fff7f7" stroke="#000000" stroke-width="1.4" stroke-linecap="butt"/><path d="M220.257,117.52213c-0.05511,-2.75817 2.13614,-5.03875 4.89429,-5.09387c2.75817,-0.05511 5.03875,2.13614 5.09387,4.89429c0.05511,2.75817 -2.13613,5.03875 -4.89429,5.09387c-2.75817,0.05511 -5.03875,-2.13614 -5.09387,-4.89429z" fill="#000000" stroke="none" stroke-width="1.5" stroke-linecap="butt"/><path d="M242.54205,114.60752c0.03492,-4.89228 4.14465,-9.00668 9.45933,-9.18999c5.31467,-0.1833 9.40573,3.64403 9.57436,8.53352c0.16864,4.88949 -3.57087,9.19959 -9.37876,9.47078c-5.52436,0.25796 -9.69139,-3.70507 -9.65493,-8.81432z" fill="#000000" stroke="#000000" stroke-width="2.5" stroke-linecap="butt"/><path d="M218.59776,104.88251c0,0 3.30493,-1.93407 7.94902,-2.55729c5.14623,-0.69063 7.76133,-0.334 7.76133,-0.334l0.43752,4.12484c0,0 -3.85672,-0.54804 -8.03115,-0.24445c-5.58278,0.406 -6.59154,1.66112 -10.82608,2.2657c-3.62838,0.51803 -6.72775,0.39097 -6.72775,0.39097l-0.06832,-1.22993c0,0 3.59558,-0.04999 5.22824,-0.24872c1.34754,-0.16404 3.941,-1.07456 3.941,-1.07456z" fill="#000000" stroke="none" stroke-width="1.5" stroke-linecap="butt"/><path d="M266.89336,113.75911c0.82271,-6.0107 1.49329,-8.67146 3.44239,-8.47938c1.94909,0.19207 1.9219,4.18533 0.82426,9.96944c-1.0432,5.49719 -5.85115,9.18216 -5.85115,9.18216c0,0 0.7618,-4.66153 1.58451,-10.67223z" data-paper-data="{&quot;index&quot;:null}" fill="#ffffff" stroke="#000000" stroke-width="1" stroke-linecap="butt"/><path d="M267.16549,109.68025c0,0 2.54833,-0.89149 2.23406,2.20446c-0.56334,5.54995 -4.02431,8.59443 -4.02431,8.59443" data-paper-data="{&quot;index&quot;:null}" fill="none" stroke="#000000" stroke-width="0.25" stroke-linecap="round"/><path d="M242.19352,233.20005l-0.68571,-9.37143c0,0 22.81693,34.28668 25.24101,37.64517c0.41567,0.5759 0.73042,1.5834 0.73042,1.5834c0,0 0.23701,0.75168 0.2035,1.17057c-0.02615,0.32688 -0.14672,0.92015 -0.26161,1.43514c-0.11674,0.52328 -0.2276,0.96572 -0.2276,0.96572z" fill="#640303" stroke="none" stroke-width="0" stroke-linecap="butt"/><path d="M215.60026,266.82858c0,0 -0.11087,-0.44244 -0.22761,-0.96571c-0.11488,-0.51499 -0.23546,-1.10827 -0.26161,-1.43515c-0.03351,-0.41888 0.2035,-1.17057 0.2035,-1.17057c0,0 0.31475,-1.0075 0.73042,-1.5834c2.42407,-3.3585 25.24101,-37.64517 25.24101,-37.64517l-0.68571,9.37143z" data-paper-data="{&quot;index&quot;:null}" fill="#ce0707" stroke="none" stroke-width="0" stroke-linecap="butt"/><path d="M282.91495,282.35005l2.4,4l-1.2,8h-14.45c0,-1.49 0,-2.98 0,-4.47c0,-2.51 0,-5.02 0,-7.53z" fill="#000000" stroke="none" stroke-width="0" stroke-linecap="butt"/><path d="M199.11495,294.35005l-1.4,-8.4l2.4,-3.6h11.85c0,2.73334 0,5.46666 0,8.2c0,1.26666 0,2.53334 0,3.8z" fill="#000000" stroke="none" stroke-width="0" stroke-linecap="butt"/><path d="M203.08495,227.68005c-0.04573,0 -0.08936,-0.00209 -0.131,-0.00608c0.0323,4.39713 0.07592,8.79434 0.1309,13.19233l0.00002,0.00125c0,0 0.0125,0.99992 -0.98743,1.01242c-0.99992,0.0125 -1.01242,-0.98742 -1.01242,-0.98742l-0.00001,-0.00125c-0.1334,-10.67165 -0.20006,-21.33877 -0.20006,-32.01125c0,0 0,-1 1,-1c1,0 1,1 1,1c0,0.20489 0.00003,0.40978 0.00008,0.61467c0.06176,-0.00953 0.12827,-0.01467 0.19993,-0.01467c1,0 1,1 1,1c0,5.33334 0,10.66666 0,16v0.2c0,0 0,1 -1,1z" fill="#000000" stroke="none" stroke-width="0.5" stroke-linecap="butt"/><path d="M201.48495,260.88005c0,-5.2 0,-10.4 0,-15.6c0,0 0,-1 1,-1c1,0 1,1 1,1c0,5.26666 0,10.53333 0,15.8l-1,-0.1l-1,0.1c0,-0.06667 0,-0.13333 0,-0.2c0,-0.00002 0.00001,-1 1,-1c1,0 1,1 1,1l-1,0.1z" fill="#000000" stroke="none" stroke-width="0.5" stroke-linecap="butt"/><path d="M203.28495,230.68005c0,-0.55229 0.44771,-1 1,-1c0.55229,0 1,0.44771 1,1c0,0.55229 -0.44771,1 -1,1c-0.55229,0 -1,-0.44771 -1,-1z" fill="#000000" stroke="none" stroke-width="0.5" stroke-linecap="butt"/><path d="M276.88495,231.48005c0,-10.53333 0,-21.06666 0,-31.6c0,0 0,-1 1,-1c0.16199,0 0.29773,0.02624 0.41149,0.07022c0.03943,-0.27061 0.21417,-0.87022 0.98851,-0.87022c1,0 1,1 1,1c0,5.26666 0,10.53333 0,15.8l-1,0.1l-0.4,-0.04c0,0.85333 0,1.70667 0,2.56c0.06462,-0.01312 0.13151,-0.02 0.2,-0.02c0.55228,0 1,0.44771 1,1c0,0.55229 -0.44772,1 -1,1c-0.06849,0 -0.13538,-0.00689 -0.2,-0.02c0,4.07333 0,8.14667 0,12.22001l-1,-0.1l-1,0.1c0,-0.06667 0,-0.13334 0,-0.2c0,-0.00002 0.00001,-1 1,-1c1,0 1,1 1,1l-1,0.1l-1,-0.1z" fill="#000000" stroke="none" stroke-width="0.5" stroke-linecap="butt"/><path d="M272.88495,223.88005c-0.14807,0 -0.27422,-0.02193 -0.38169,-0.05928c-0.00612,0.49017 -0.01226,0.98036 -0.01838,1.47053l-1.06321,-0.11226l-0.93663,0.08727c0.00077,-0.06197 0.00155,-0.12395 0.00233,-0.18592l-0.00242,-0.00025c0,0 0,-0.0215 0.00315,-0.0582c0.06565,-5.25146 0.13128,-10.50292 0.19693,-15.75438c0,0 0.0125,-0.99992 1.01242,-0.98742c0.99992,0.0125 0.98743,1.01242 0.98743,1.01242c-0.00331,0.26441 -0.00661,0.52881 -0.00991,0.79321c0.11755,-0.01887 0.25216,-0.01708 0.40611,0.01371c0.98058,0.19611 0.78447,1.17669 0.78447,1.17669c-0.7067,3.4389 0.01942,7.47286 0.01942,11.00388v0.6c0,0 0,1 -1,1z" fill="#000000" stroke="none" stroke-width="0.5" stroke-linecap="butt"/><path d="M245.86495,215.41255c0,2.5198 -1.90279,4.5625 -4.25,4.5625c-2.34721,0 -4.25,-2.0427 -4.25,-4.5625c0,-2.5198 1.90279,-4.5625 4.25,-4.5625c2.34721,0 4.25,2.0427 4.25,4.5625z" fill="#000000" stroke="#000000" stroke-width="2" stroke-linecap="butt"/><path d="M246.77923,215.31969c0,5.58927 -5.14286,5.60715 -5.14286,5.60715c0,0 1.16155,-2.58912 1.14358,-5.28476c-0.01845,-2.7677 -1.00072,-5.78666 -1.00072,-5.78666c0,0 4.54228,-0.63465 4.96807,5.04391c0.01049,0.13992 0.03193,0.27893 0.03193,0.42037z" fill="#131313" stroke="none" stroke-width="0" stroke-linecap="butt"/><path d="M244.61495,215.22505c0,1.69137 -1.31517,3.0625 -2.9375,3.0625c-1.62233,0 -2.9375,-1.37113 -2.9375,-3.0625c0,-1.69137 1.31517,-3.0625 2.9375,-3.0625c1.62233,0 2.9375,1.37113 2.9375,3.0625z" fill="#777777" stroke="#000000" stroke-width="0" stroke-linecap="butt"/><path d="M244.49352,215.14112c0,2.65686 -1.96428,3.14286 -1.96428,3.14286c0,0 0.09458,-2.05152 0.07064,-3.06889c-0.02368,-1.00632 -0.2135,-3.00254 -0.2135,-3.00254c0,0 2.10715,0.70029 2.10715,2.92857z" fill="#bcbcbc" stroke="none" stroke-width="0" stroke-linecap="butt"/><path d="M263.21495,256.55001l0.34188,-50.62513c0,0 -0.40209,-2.02719 -0.40321,-3.00011c-0.01539,-13.45742 -0.03868,-31.62475 -0.03868,-31.62475l3.25,-2.2c0,0 -1.5,1.43795 -1.5,3.825c0,5.30988 -0.33333,24.52666 -0.33333,24.52666c0,0 0.33333,2.42501 0.33333,3.55556c0,3.30647 0,6.43269 0,9.11777c0,15.5908 0,48.925 0,48.925z" fill="#4b0202" stroke="none" stroke-width="0" stroke-linecap="butt"/><path d="M218.29352,258.58574c0,0 0,-33.3342 0,-48.925c0,-2.68508 0,-5.81131 0,-9.11778c0,-1.13055 0.33333,-3.55556 0.33333,-3.55556c0,0 -0.33333,-19.21679 -0.33333,-24.52667c0,-2.38705 -1.5,-3.825 -1.5,-3.825l3.25,2.2c0,0 -0.02329,18.16733 -0.03868,31.62475c-0.00111,0.97292 -0.40321,3.00011 -0.40321,3.00011l0.34188,50.62514z" data-paper-data="{&quot;index&quot;:null}" fill="#2f0000" stroke="none" stroke-width="0" stroke-linecap="butt"/><path d="M241.69828,210.0445v-8.77778h0.44445v8.77778z" fill="#3e0202" stroke="none" stroke-width="0" stroke-linecap="butt"/><path d="M240.9205,223.93339v-3.11112h0.77777v3.11112z" fill="#3e0202" stroke="none" stroke-width="0" stroke-linecap="butt"/><path d="M216.61495,304.10005v-8.5c0,0 15.87876,3.75 24,3.75c8.37118,0 25.5,-3 25.5,-3v7.75z" fill="#000000" stroke="none" stroke-width="0" stroke-linecap="butt"/><path d="M260.16753,129.43786c0.25856,7.49671 -3.33516,13.70517 -8.02679,13.86699c-4.69163,0.16181 -8.70455,-5.7843 -8.96311,-13.28101c-0.18955,-5.49584 -2.32831,-8.41823 1.27443,-9.03975c1.31165,-0.22628 4.07281,3.03746 6.9906,2.08025c15.0232,-4.92849 8.46632,-1.12318 8.72487,6.37353z" fill="url(#color-2)" stroke="none" stroke-width="0" stroke-linecap="butt"/><path d="M245.30562,128.8652c0.1745,5.0596 -0.8723,14.03841 -1.51624,14.06062c-0.64395,0.02221 -0.6412,-8.92059 -0.8157,-13.98019c-0.1745,-5.0596 -0.15006,-9.834 0.49389,-9.85621c0.18774,-0.00648 1.71484,2.88028 4.42576,3.5233c3.45792,0.82021 8.2693,-0.42196 8.49432,1.19214c0.20367,1.46093 -11.14077,3.35736 -11.08203,5.06034z" fill="#000000" stroke="none" stroke-width="0" stroke-linecap="butt"/><path d="M257.24682,131.78866c0.1745,5.0596 -0.50436,9.18952 -1.51627,9.22442c-1.01192,0.0349 -1.9737,-4.03843 -2.14821,-9.09803c-0.1745,-5.0596 -11.5287,-5.10565 5.91019,-12.37774c0.93452,-0.3897 -2.42022,7.19176 -2.24571,12.25136z" fill="#000000" stroke="none" stroke-width="0" stroke-linecap="butt"/><path d="M249.69671,130.46479c0.11263,3.26574 -0.16894,5.92601 -0.62889,5.94188c-0.45997,0.01586 -0.92414,-2.61868 -1.03678,-5.88443c-0.11263,-3.26574 0.16894,-5.92601 0.62889,-5.94188c0.45997,-0.01586 0.92414,2.61868 1.03678,5.88443z" fill="#000000" stroke="#000000" stroke-width="1.15" stroke-linecap="butt"/><path d="M262.29552,128.27919c0.20306,5.88754 -0.00521,10.67319 -0.46516,10.68906c-0.45997,0.01586 -0.99745,-4.74407 -1.2005,-10.63161c-0.20306,-5.88754 0.00521,-10.67319 0.46516,-10.68906c0.45997,-0.01586 0.99745,4.74407 1.2005,10.63161z" fill="#000000" stroke="#000000" stroke-width="1.15" stroke-linecap="butt"/><path d="M263.61387,92.59352c0.0349,1.01192 -16.43661,33.41974 -17.67851,33.46258c-1.2419,0.04283 5.40314,-10.15595 5.36824,-11.16786c-0.0349,-1.01192 8.60391,-20.14187 9.84581,-20.1847c1.2419,-0.04283 2.42954,-3.12193 2.46444,-2.11001z" fill="#970000" stroke="none" stroke-width="0" stroke-linecap="butt"/><path d="M250.52679,102.87454c1.2419,-0.04283 7.14605,11.78149 7.18095,12.79341c0.0349,1.01192 2.72816,3.88447 1.48625,3.9273c-1.2419,0.04283 -9.33394,-14.70783 -9.36884,-15.71975c-0.0349,-1.01192 -0.54027,-0.95814 0.70163,-1.00097z" data-paper-data="{&quot;index&quot;:null}" fill="#ec0000" stroke="none" stroke-width="0" stroke-linecap="butt"/><path d="M215.09918,117.27848c-0.01541,-0.27195 0.07592,-0.59889 0.48393,-0.85109c0.85063,-0.52577 1.3764,0.32486 1.3764,0.32486c0.12299,0.19904 0.24669,0.39311 0.37132,0.58211c1.09738,0.45784 1.86077,1.54154 2.38627,2.82161c0.24192,0.20818 0.49021,0.39985 0.74594,0.57438c0.51065,-0.00628 0.7612,0.26303 0.88395,0.5188c1.23788,0.61365 2.65193,0.86316 4.33978,0.69366c0.43521,-0.33564 1.38235,-0.55124 2.46815,-0.65345c0.92787,-0.44826 2.08924,-1.08089 2.64129,-1.11969c-0.01313,-0.21471 0.05397,-0.46129 0.28954,-0.71369c0.68232,-0.73105 1.41338,-0.04875 1.41338,-0.04875c0.18047,0.17311 0.353,0.36013 0.51786,0.55978c-0.01804,-0.42296 -0.03454,-0.84603 -0.04914,-1.26926c-0.02914,-0.84492 -0.44305,-4.04337 0.69273,-4.36043c0.83683,-0.2336 1.73496,0.56402 2.30217,1.22214c0.84706,0.98285 0.33301,5.89163 -0.07711,7.02913c0.01532,0.26993 0.03066,0.53985 0.04599,0.80979l-0.21959,0.92435c0,0 -0.07739,0.26193 -0.28817,0.47157c0.05921,0.54016 0.11816,1.08876 0.17314,1.6425c0.60252,3.33642 0.57013,6.96156 0.16494,9.44897l0.03191,0.92533c0.01904,0.55196 -0.41297,1.01484 -0.96494,1.03387c-0.55196,0.01904 -1.01484,-0.41297 -1.03387,-0.96494l-0.04136,-1.19929l0.02479,-0.00085c0.01771,-0.11259 0.03472,-0.2288 0.05098,-0.3484c-0.61493,-0.82881 -0.17165,-2.43076 -0.21364,-3.64836c-0.0555,-1.60919 -0.13842,-3.21523 -0.2284,-4.82005c-0.01213,0.02587 -0.02457,0.04789 -0.03732,0.06574c-0.06382,0.0894 -0.13541,0.17048 -0.21328,0.24488l0.03141,0.02931l-0.77195,0.8271c-0.17461,0.1871 -0.42061,0.30758 -0.69658,0.3171c-0.55196,0.01904 -1.01484,-0.41298 -1.03387,-0.96494c-0.00256,-0.07425 0.00303,-0.14688 0.01599,-0.21704l0.14994,-0.91212c-0.04023,-1.01844 -0.11805,-2.04988 -0.11086,-3.06908c-0.82401,0.07849 -1.84875,0.2584 -2.19175,0.26956c-0.07317,0.00238 -0.15228,-0.00676 -0.2347,-0.02266c-0.43083,0.14421 -0.8782,0.26305 -1.33576,0.35588c-0.05975,0.91657 0.43403,2.63106 -0.25754,3.08728c-2.12818,1.40393 -3.84882,-0.69608 -5.20159,-2.17402c-0.0306,0.31282 -0.08749,0.58895 -0.18431,0.87245l0.22165,0.07451l-0.53705,1.5976c-0.12258,0.39498 -0.48418,0.68784 -0.92084,0.7029c-0.49126,0.01694 -0.91196,-0.32342 -1.01196,-0.78764l-0.2301,-0.97449l0.03796,-0.00896l-0.05587,-0.08805c-0.03937,-1.01148 0.08368,-2.22197 -0.12858,-3.28538c-0.42305,-0.20283 -0.83568,-0.43943 -1.20313,-0.79296c-0.12524,0.76142 0.09189,1.48526 0.24541,2.23147l0.22693,0.96106c0.01776,0.0691 0.02835,0.14119 0.03091,0.21543c0.01904,0.55195 -0.41297,1.01484 -0.96494,1.03387c-0.42898,0.0148 -0.80417,-0.24288 -0.95899,-0.61755l-0.42484,-0.9643l0.16696,-0.07356l-0.01776,-0.07526c-0.81175,-1.16756 -1.10835,-2.37703 -1.17088,-4.18993c-0.01805,-0.52329 -0.25301,-2.76533 0.47904,-3.2528zM225.11509,124.01667c-0.53381,0.02632 -1.06996,0.01846 -1.59935,-0.02444c0.48625,0.38482 0.98295,0.77872 1.50508,1.17637c-0.01875,-0.02597 -0.03116,-0.05127 -0.03385,-0.07445c-0.01717,-0.14755 0.04162,-0.58176 0.12812,-1.07749zM216.62086,120.50731c0.0648,-0.07787 0.13291,-0.15846 0.20444,-0.24212c-0.13744,-0.19273 -0.27075,-0.38879 -0.40096,-0.58675c0.09951,0.29229 0.1882,0.59795 0.19462,0.7839c0.00052,0.01495 0.00115,0.02994 0.00191,0.04497z" fill="#000000" stroke="none" stroke-width="0.5" stroke-linecap="butt"/><path d="M220.05147,132.95143c-0.55196,0.01904 -1.01484,-0.41297 -1.03387,-0.96494l-0.03447,-0.99941c-0.33314,0.01149 0.33314,-0.01149 0,0l1.99881,-0.06894l0.03447,0.99941c0.01904,0.55196 -0.41297,1.01484 -0.96494,1.03387z" fill="#000000" stroke="none" stroke-width="0.5" stroke-linecap="butt"/><path d="M212.19656,144.23335c0,-1 1,-1 1,-1l-0.14421,0.04955c1.62692,-0.5298 3.29413,-0.86494 4.95728,-1.2251c-0.62335,0.06357 -1.26647,0.11883 -1.93098,0.17409l-0.04128,-0.01458l0.00001,0.01546l-1.00681,0.00058c-0.00022,0 -0.00045,0 -0.00067,0c-0.55228,0 -1,-0.44772 -1,-1c0,-0.35261 0.1825,-0.6626 0.4582,-0.84065l0.40067,-0.26711c-0.01671,-0.07249 -0.02554,-0.148 -0.02554,-0.22556c0,-0.1246 0.02279,-0.24388 0.06443,-0.3539c-0.05827,0.00621 -0.11692,0.01256 -0.17597,0.01905l-0.05512,-0.01609v0.01761h-1.33333c-0.55228,0 -1,-0.44772 -1,-1c0,-0.33133 0.16113,-0.62502 0.40931,-0.80698l0.75562,-0.56671c0.09634,-0.49291 0.60782,-0.71211 0.60782,-0.71211c0.79448,-0.33564 1.62781,-0.59969 2.47811,-0.74411l0.08248,0.02154v-0.02495h0.1265c1.95658,-0.4354 4.34014,-0.63477 5.60399,-0.69985c0.79791,-0.04109 1.77582,-0.41797 2.39534,0.08656c0.56462,0.45982 0.76051,0.95402 0.73265,1.43986c0.28697,0.00382 0.55781,0.00677 0.8082,0.00677h1c0.55228,0 1,0.44772 1,1c0,0.31925 -0.1496,0.60355 -0.38252,0.78664l-1.55452,1.24362l-0.2081,-0.26013c-0.59677,0.46859 -1.21267,0.85332 -1.85114,1.17188c0.07768,0.30856 0.06154,0.66763 -0.07029,1.08342c-0.23172,0.73084 -1.17024,1.00729 -1.84066,1.37924c-2.58193,1.43246 -6.00449,1.2996 -8.78188,2.21244l-0.47755,0.04955c0,0 -1,0 -1,-1z" fill="#000000" stroke="none" stroke-width="0.5" stroke-linecap="butt"/><path d="M217.70725,78.85001l1.1577,10.75c0,0 -22.43866,-10.0773 -24.08004,-13.5c-4.07116,-8.4894 5.55693,-23.75 5.55693,-23.75c0,0 -0.13239,9.00952 3.70462,15c3.83701,5.99048 13.42925,11.75 13.42925,11.75" fill="#000000" stroke="#000000" stroke-width="1.5" stroke-linecap="round"/><path d="M256.04697,76.85001c0,0 10.46632,-5.75952 14.65296,-11.75c4.18665,-5.99048 4.04219,-15 4.04219,-15c0,0 10.50543,15.2606 6.0633,23.75c-1.79095,3.4227 -26.27428,13.5 -26.27428,13.5l1.26318,-10.75" data-paper-data="{&quot;index&quot;:null}" fill="#000000" stroke="#000000" stroke-width="1.5" stroke-linecap="round"/><path d="M269.76495,81.48573l-0.42858,-18.57143l2.42858,-0.71428l1.71428,18.42857z" fill="#ffffff" stroke="none" stroke-width="0" stroke-linecap="butt"/><path d="M269.62209,81.77144v-11.28571h3.28571l0.57143,11.28571z" fill="#8e8e8e" stroke="none" stroke-width="0" stroke-linecap="butt"/><path d="M267.71733,93.28335l0.41666,-6.83333l-0.41666,-7.45238l7.84524,0.66667v13.61905z" fill="#ffffff" stroke="#000000" stroke-width="1" stroke-linecap="butt"/><path d="M271.51277,86.08572l0.30435,2.13043l-1.43478,1.26087h-0.6087l-0.86957,-1.21739l0.17391,-2.13043l1.34783,-0.6087l-0.3913,0.52174l1.3913,-0.21739z" fill="none" stroke="#e21212" stroke-width="0.25" stroke-linecap="round"/><path d="M269.07799,87.21616l0.6087,-0.82609l0.3913,0.91304l-0.52174,0.73913z" fill="none" stroke="#e21212" stroke-width="0.25" stroke-linecap="round"/><path d="M269.55625,86.99877v0.34783" fill="none" stroke="#e21212" stroke-width="0.25" stroke-linecap="round"/><path d="M268.90408,87.99877l1.17391,0.56522l1.56522,-0.65217l-1.56522,1.30435z" fill="none" stroke="#e21212" stroke-width="0.25" stroke-linecap="round"/><path d="M270.42581,87.17268l0.52174,-0.91304l0.34783,0.86957l-0.34783,0.73913z" fill="none" stroke="#e21212" stroke-width="0.25" stroke-linecap="round"/><path d="M270.8606,86.95529l0.04348,0.3913" fill="none" stroke="#e21212" stroke-width="0.25" stroke-linecap="round"/><path d="M269.29538,86.17268l0.65217,-0.17391" fill="none" stroke="#e21212" stroke-width="0.25" stroke-linecap="round"/><path d="M270.42581,85.95529l0.86957,0.13043" fill="none" stroke="#e21212" stroke-width="0.25" stroke-linecap="round"/><path d="M268.8606,89.60747l-0.17391,-0.30435l0.13043,-0.26087l0.56522,-0.04348z" fill="none" stroke="#e21212" stroke-width="0.25" stroke-linecap="round"/><path d="M269.03452,92.60747v-3l0.3913,0.21739l0.17391,-0.30435" fill="none" stroke="#e21212" stroke-width="0.25" stroke-linecap="round"/><path d="M270.59974,89.43355l-0.34783,0.6087l-0.6087,-0.26087" fill="none" stroke="#e21212" stroke-width="0.25" stroke-linecap="round"/><path d="M271.03451,89.21616v0.47826l-0.69565,0.3913" fill="none" stroke="#e21212" stroke-width="0.25" stroke-linecap="round"/><path d="M273.76494,91.48572l-1.6,0.64348l-0.13043,-2.04348l-0.3913,-0.69565l-0.6087,0.26087" fill="none" stroke="#e21212" stroke-width="0.25" stroke-linecap="round"/><path d="M271.6432,92.56399l-0.17391,-2.82609" fill="none" stroke="#e21212" stroke-width="0.25" stroke-linecap="round"/><path d="M269.07799,91.34659l0.73913,1.34783" fill="none" stroke="#e21212" stroke-width="0.25" stroke-linecap="round"/><g stroke-linecap="butt"><path d="M259.1074,147.12178c0.18119,3.60873 -10.65807,13.28987 -18.85853,13.73141c-8.20048,0.44153 -19.95315,-9.19951 -20.13434,-12.80824c-0.18118,-3.60873 12.19531,-2.43348 20.39576,-2.87501c8.20048,-0.44153 18.41593,-1.65688 18.59711,1.95185z" fill="#000000" stroke="none" stroke-width="0"/><path d="M250.48857,145.38754c0,0 4.10777,3.46605 -10.0984,4.14187c-15.35822,1.36887 -13.9165,-3.27257 -13.9165,-3.27257z" fill="#ffffff" stroke="none" stroke-width="0"/><path d="M253.62266,151.92596c0,0 -1.3574,11.9565 -13.56299,12.48538c-10.7314,0.46498 -13.44983,-10.59369 -13.44983,-10.59369c0,0 10.25445,2.05181 13.85121,1.79394c3.20923,-0.2301 13.16161,-3.68563 13.16161,-3.68563z" fill="#ffffff" stroke="none" stroke-width="0"/><path d="M257.51163,145.79403c0,0 -5.27716,2.15393 -8.53526,2.12815c-4.61133,-0.03649 -1.21319,-0.96405 -8.61425,-0.57463c-6.37105,0.33522 -4.25745,1.74863 -9.39259,2.11047c-5.13514,0.36184 -8.97504,-2.12893 -8.97504,-2.12893c0,0 8.73149,-6.55698 10.39264,-6.24699c4.81171,0.8979 7.51938,1.96934 7.79142,1.96785c0,0 4.24791,-1.99682 7.363,-2.51196c3.0453,-0.5036 9.97007,5.25604 9.97007,5.25604z" fill="#ffffff" stroke="#000000" stroke-width="1.25"/><path d="M246.38036,157.56542c2.27447,-1.70315 2.80978,-3.65381 4.56268,-6.4577c3.00263,-4.80293 6.82777,-3.8429 6.82777,-3.8429c0,0 -1.28397,8.70258 -4.26978,13.49313c-3.66033,5.87276 -6.62679,4.28285 -11.93209,4.7751c-6.02683,0.55919 -9.00876,1.82232 -13.17082,-2.06684c-4.16206,-3.88916 -7.32881,-14.89811 -7.32881,-14.89811c0,0 6.17754,-0.30454 9.19994,4.0931c3.0224,4.39764 2.79555,4.65203 5.77099,5.92043c0,0 7.9915,0.74246 10.34013,-1.01622z" fill="#ffffff" stroke="#000000" stroke-width="1.9"/></g><path d="M270.2519,92.56399l-1.17391,-1.86957" fill="none" stroke="#e21212" stroke-width="0.25" stroke-linecap="round"/><path d="M268.42582,92.65095l0.17391,-2.56522l0.21739,-0.56522" fill="none" stroke="#e21212" stroke-width="0.25" stroke-linecap="round"/><path d="M268.68669,85.69442l1.04348,-1.34783l1.3913,0.04348l0.86957,1.26087l0.34783,3.21739l0.17391,0.3913l-1.04348,-0.56522l0.3913,0.34783l-0.21739,0.34783l-0.52174,-0.52174" fill="none" stroke="#e21212" stroke-width="0.25" stroke-linecap="round"/><path d="M272.03451,86.17268l0.65217,1.56522l-0.6087,-0.04348" fill="none" stroke="#e21212" stroke-width="0.25" stroke-linecap="round"/><path d="M271.29538,83.25964l0.30435,1.95652l-1.34783,-0.52174z" fill="none" stroke="#e21212" stroke-width="0.25" stroke-linecap="round"/><path d="M270.2519,80.69442h2.08696" fill="none" stroke="#e21212" stroke-width="0.25" stroke-linecap="round"/><path d="M272.90407,81.56399h-1.43478" fill="none" stroke="#e21212" stroke-width="0.25" stroke-linecap="round"/><path d="M272.8606,82.52051l1.13043,0.26087" fill="none" stroke="#e21212" stroke-width="0.25" stroke-linecap="round"/><path d="M270.46929,81.7379l-1.21739,-0.04348" fill="none" stroke="#e21212" stroke-width="0.25" stroke-linecap="round"/><path d="M269.59973,82.73789h0.86957" fill="none" stroke="#e21212" stroke-width="0.25" stroke-linecap="round"/><path d="M272.9078,84.48572h1.14286" fill="none" stroke="#e21212" stroke-width="0.25" stroke-linecap="round"/><path d="M273.19352,86.77144l1.14286,0.57143" fill="none" stroke="#e21212" stroke-width="0.25" stroke-linecap="round"/><path d="M272.76494,89.77144h0.85714" fill="none" stroke="#e21212" stroke-width="0.25" stroke-linecap="round"/><path d="M274.47923,88.77144l-0.85714,-0.42857" fill="none" stroke="#e21212" stroke-width="0.25" stroke-linecap="round"/><path d="M274.33637,90.48572l-1.14286,0.28571" fill="none" stroke="#e21212" stroke-width="0.25" stroke-linecap="round"/><path d="M242.20333,114.43198c0,0 0.23937,3.96386 0.2514,7.12219c0.02384,6.25402 -0.12394,27.78148 -0.12394,27.78148l-2.9796,0.11141c0,0 -0.94629,-4.14258 -1.45,-9.45543c-0.68182,-7.1914 -1.01084,-16.26803 -1.43969,-19.59431c-0.4065,-3.15299 -1.09237,-5.68025 -1.09237,-5.68025" fill="#ffffff" stroke="#000000" stroke-width="1.3" stroke-linecap="round"/></g></g></svg>