<svg version="1.1" xmlns="http://www.w3.org/2000/svg" xmlns:xlink="http://www.w3.org/1999/xlink" width="110.21286" height="289.40007" viewBox="0,0,110.21286,289.40007"><g transform="translate(-183.63998,-28.71862)"><g data-paper-data="{&quot;isPaintingLayer&quot;:true}" fill-rule="nonzero" stroke-linejoin="miter" stroke-miterlimit="10" stroke-dasharray="" stroke-dashoffset="0" style="mix-blend-mode: normal"><path d="M193.87048,318.11869l-1.16103,-253.22235l91.18107,-0.41806l1.16103,253.22235z" fill-opacity="0.01" fill="#000000" stroke="none" stroke-width="0" stroke-linecap="butt"/><path d="M198.8342,310.49165c0,0 -0.63536,-94.38387 -0.79335,-118.01201c-0.05451,-8.15261 8.18688,-36.76129 40.20201,-36.9211c31.60235,-0.15775 39.85672,29.48704 39.84884,36.89673c-0.07659,46.24274 0.65429,117.98648 0.65429,117.98648l-10.49667,0.09614l-0.15882,-114.84311c0,0 0.07549,-3.0993 -2.81625,-3.15415c-3.43441,-0.06514 -2.94538,3.11562 -2.94538,3.11562l0.20548,114.86995l-48.21366,0.07222l-0.30539,-115.23309c0,0 0.27949,-2.919 -2.8856,-2.93443c-3.11083,-0.01515 -2.81569,2.90899 -2.81569,2.90899l0.35311,115.0668z" fill="#000000" stroke="#000000" stroke-width="2" stroke-linecap="butt"/><path d="M253.43136,203.72269c-0.57113,0 -1.03411,-0.46299 -1.03411,-1.03411c0,-0.57113 0.46299,-1.03413 1.03411,-1.03413c0.57113,0 1.03411,0.463 1.03411,1.03413c0,0.57113 -0.46299,1.03411 -1.03411,1.03411z" fill="#000000" stroke="none" stroke-width="1.5" stroke-linecap="butt"/><path d="M248.17149,210.66942c-4.4635,-0.31439 -6.55245,-1.79392 -6.16985,-2.58011c0.11788,-0.24224 2.84645,1.06355 6.97038,1.3048c6.40897,0.37493 8.51033,-0.63173 8.51033,-0.63173v1.34616c0,0 -2.4135,1.04672 -9.31086,0.56089z" fill="#000000" stroke="#000000" stroke-width="0" stroke-linecap="butt"/><path d="M220.35874,202.68858c0,-0.57113 0.46299,-1.03413 1.03411,-1.03413c0.57113,0 1.03413,0.463 1.03413,1.03413c0,0.57113 -0.463,1.03411 -1.03413,1.03411c-0.57113,0 -1.03411,-0.46299 -1.03411,-1.03411z" fill="#000000" stroke="none" stroke-width="1.5" stroke-linecap="butt"/><path d="M226.65272,210.66942c-6.89736,0.48585 -9.31086,-0.56089 -9.31086,-0.56089v-1.34616c0,0 2.10136,1.00666 8.51033,0.63173c4.12393,-0.24126 6.85251,-1.54704 6.97039,-1.3048c0.3826,0.78618 -1.70634,2.26571 -6.16985,2.58011z" fill="#000000" stroke="#000000" stroke-width="0" stroke-linecap="butt"/><path d="M237.93318,267.2212c-0.81895,0 -1.48284,-0.66389 -1.48284,-1.48284c0,-0.81895 0.66389,-1.48284 1.48284,-1.48284c0.81895,0 1.48284,0.66389 1.48284,1.48284c0,0.81895 -0.66389,1.48284 -1.48284,1.48284z" data-paper-data="{&quot;index&quot;:null}" fill="#000000" stroke="none" stroke-width="1.5" stroke-linecap="butt"/><path d="M213.86993,310.50608l-3,-117.45147c0,0 -14.74279,-1.23105 -14.74279,-6.13937c0,-2.78231 5.2964,-19.6208 11.14109,-24.38161c3.60407,-2.93571 10.50121,-2.77152 11.2574,-3.30366c1.98251,-1.3951 5.17197,-2.80371 5.17197,-2.80371c0,0 -0.6016,24.10902 14.55952,24.03867c15.43477,-0.07162 13.83154,-24.03867 13.83154,-24.03867c0,0 3.91276,1.51959 6.16585,2.94655c0.65272,0.41339 7.25051,1.78705 10.47081,5.16855c6.76448,7.10307 12.27577,18.80001 12.27577,19.12869c0,4.84193 -16.24279,10.38937 -16.24279,10.38937l-1.75,116.44667z" fill="#ec0000" stroke="#970000" stroke-width="2" stroke-linecap="butt"/><g><path d="M197.51308,101.84711c0,0 6.8617,-5.09625 7.09831,-5.93886c0.62055,-2.20996 4.90613,-39.87282 40.92928,-36.69953c44.39443,4.72979 34.23924,39.9921 35.87123,47.0966c2.23771,9.74136 3.9103,18.03828 3.9103,18.03828c0,0 -2.48572,-2.38647 -3.65133,-3.62402c-1.08716,-1.15424 -3.37379,-3.60066 -3.37379,-3.60066c0,0 1.75974,10.65558 -1.31267,20.69487c-2.74693,9.20783 -9.41441,16.16608 -9.41441,16.16608l-0.84958,-2.47443c0,0 -1.292,2.05122 -2.56357,3.03332c-1.27158,0.98209 -3.77899,2.45522 -3.77899,2.45522l0.37641,-3.68619c0,0 -8.3948,10.03831 -25.52848,7.70984c-16.14349,-2.31237 -24.51492,-13.88173 -24.51492,-13.88173l-0.45049,2.61892c0,0 -3.44783,-3.75818 -4.90624,-10.41036c-1.73824,-7.92862 -1.66762,-12.55428 -1.66762,-12.55428c0,0 -2.56016,1.58861 -6.0216,2.03032c-4.33738,0.55349 -6.93465,-0.53464 -6.93465,-0.53464c0,0 3.92216,-2.23986 6.14154,-4.02664c1.97685,-1.59153 3.05183,-3.01601 3.05183,-3.01601c0,0 -2.22767,0.8099 -4.40319,1.07054c-2.2699,0.27197 -4.06486,0.01781 -4.06486,0.01781c0,0 5.57114,-4.36879 8.34753,-9.8995c2.62135,-5.22188 3.46646,-10.60448 3.46646,-10.60448c0,0 -1.4343,0.4844 -3.40387,0.36828c-1.24846,-0.0736 -2.35264,-0.34875 -2.35264,-0.34875z" fill="#000000" stroke="none" stroke-width="1.5" stroke-linecap="butt"/><path d="M212.73508,115.19761c0.34843,-7.30773 2.49837,-16.97488 2.49837,-16.97488c0,0 3.3885,0.38973 14.19994,-1.36216c8.30603,-1.34593 21.58078,-6.81684 21.58078,-6.81684c0,0 -2.5222,2.70824 -3.9437,3.99416c-1.51122,1.36708 -4.53712,4.02227 -4.53712,4.02227c0,0 7.98583,-0.66458 15.15446,-2.83852c8.94623,-2.42555 11.27205,-4.66715 13.42668,-2.92073c2.54299,2.06121 -1.90539,23.12722 -2.91629,28.6013c-1.13409,5.57061 -3.71249,9.10379 -4.70603,12.02254c-0.99354,2.91875 -1.18117,6.03578 -4.21385,15.63275c-1.89259,5.98917 -5.25541,8.32772 -11.79041,13.27834c-6.535,4.95063 -10.14963,8.0355 -14.08646,7.60393c-3.78865,-0.41532 -8.22015,-6.18766 -12.51292,-12.05893c-4.5711,-6.25195 -7.73348,-9.52989 -7.7261,-16.24533c0.00664,-6.04796 0.4808,-9.92728 0.81169,-15.26807c0.24183,-3.90344 -1.42929,-6.67897 -1.23903,-10.66985z" fill="#ffffff" stroke="#000000" stroke-width="1.5" stroke-linecap="butt"/><path d="M262.32954,106.26793c0,0 1.47193,0.50799 4.08155,1.63877c2.38359,1.03284 4.19353,2.29188 4.19353,2.29188l0.04577,1.18562c0,0 -6.79639,-4.02031 -14.68287,-4.35945c-6.30583,-0.27115 -10.23856,1.53187 -10.23856,1.53187l0.57279,-4.13762c0,0 3.31763,-1.29568 8.03502,-0.8478c4.88482,0.46378 7.95143,1.60812 7.95143,1.60812z" data-paper-data="{&quot;index&quot;:null}" fill="#000000" stroke="none" stroke-width="1.5" stroke-linecap="butt"/><path d="M244.23966,147.29974c0.53908,0.28219 2.88219,1.77757 5.64787,3.3357c2.7877,1.57054 6.86636,3.18543 6.82586,3.34919c-0.05142,0.20782 -10.37991,-1.09245 -13.64972,-1.10008c-2.74014,-0.00641 -6.72423,-0.14457 -6.72423,-0.14457c0,0 -6.90047,-2.0494 -12.85737,-4.1015c-4.77425,-1.64468 -10.10632,-2.96087 -10.10508,-3.055c0.00165,-0.12693 3.92713,-0.21658 6.94566,-0.52184c1.19938,-0.34795 5.5837,-0.78638 5.5837,-0.78638c0,0 4.95125,0.35032 7.47426,1.53503c2.70338,1.26942 2.50397,2.78401 2.74666,2.8386c0,0 1.39576,-1.58578 2.61565,-1.78865c1.21989,-0.20287 5.09408,0.22871 5.49678,0.4395z" fill="#ffffff" stroke="#000000" stroke-width="1.4" stroke-linecap="butt"/><path d="M225.16595,149.46225c4.92075,1.66137 11.4677,4.28969 11.4677,4.28969c0,0 5.93987,-0.81234 8.6108,-0.75317c2.07071,0.04587 11.21544,0.71532 11.21228,1.09071c-0.00308,0.36702 -10.5878,11.65674 -22.55048,9.67722c-13.60431,-2.17093 -20.77046,-17.9015 -20.71157,-18.06449c0.05889,-0.16299 7.05053,2.0987 11.97128,3.76007z" fill="#ffffff" stroke="#000000" stroke-width="1.9" stroke-linecap="butt"/><path d="M236.43038,147.87821c-1.02549,-0.13053 -3.09809,-3.68107 -3.07914,-5.7989c0.01697,-1.89488 1.78795,-3.63129 4.23974,-3.31921c2.45181,0.31208 4.1065,1.01743 3.46886,4.66387c-0.54115,3.09462 -2.17767,4.76635 -4.62947,4.45427z" fill="#ffffff" stroke="#000000" stroke-width="1.15" stroke-linecap="butt"/><path d="M243.8035,118.48018c0,0 -0.39947,3.95094 -0.89415,7.07031c-0.97952,6.17689 -4.57808,27.40196 -4.57808,27.40196l-2.95889,-0.36791c0,0 -0.26963,-4.24073 0.08528,-9.56558c0.4804,-7.20766 1.6114,-16.21956 1.72158,-19.57156c0.10446,-3.17737 -0.16721,-5.78192 -0.16721,-5.78192" fill="#ffffff" stroke="#000000" stroke-width="1.3" stroke-linecap="round"/><path d="M213.14288,125.45442c0,0 -4.44855,-4.11166 -4.98159,-9.68152c-0.56085,-5.86057 -0.22055,-9.8394 1.73794,-9.85133c1.95849,-0.01195 2.38145,2.69922 2.64769,8.76013c0.26624,6.0609 0.59595,10.77274 0.59595,10.77274z" data-paper-data="{&quot;index&quot;:null}" fill="#ffffff" stroke="#000000" stroke-width="1" stroke-linecap="butt"/><path d="M213.44036,121.51287c0,0 -3.1662,-3.34998 -3.21657,-8.92821c-0.0281,-3.11172 2.42739,-1.98959 2.42739,-1.98959" fill="none" stroke="#000000" stroke-width="0.25" stroke-linecap="round"/><path d="M221.65729,115.96806c0.38797,-2.7313 2.91663,-4.63093 5.64791,-4.24295c2.7313,0.38797 4.63093,2.91663 4.24295,5.64791c-0.38797,2.7313 -2.91662,4.63092 -5.64791,4.24295c-2.7313,-0.38797 -4.63093,-2.91663 -4.24295,-5.64791z" fill="#000000" stroke="none" stroke-width="1.5" stroke-linecap="butt"/><path d="M244.10969,118.70778c0.81912,-4.82334 5.53554,-8.22535 10.81081,-7.55388c5.27527,0.67147 8.69952,5.10539 8.08177,9.95864c-0.61775,4.85324 -5.00012,8.50778 -10.77633,7.84396c-5.49422,-0.63141 -8.97169,-5.21146 -8.11626,-10.24872z" fill="#ffffff" stroke="#000000" stroke-width="1.4" stroke-linecap="butt"/><path d="M248.66481,119.37382c0.35588,-2.79589 2.91089,-4.77391 5.70678,-4.41803c2.79589,0.35588 4.77391,2.91089 4.41803,5.70678c-0.35588,2.79589 -2.91088,4.77391 -5.70678,4.41803c-2.79589,-0.35588 -4.77391,-2.91089 -4.41803,-5.70678z" fill="#000000" stroke="none" stroke-width="1.5" stroke-linecap="butt"/><path d="M217.26937,114.75418c0,0 1.20138,-8.93494 11.63056,-7.41569c9.37426,1.36041 8.29124,10.53848 8.29124,10.53848z" fill="#ffffff" stroke="#000000" stroke-width="1.15" stroke-linecap="butt"/><path d="M243.78583,118.2613c0,0 0.94937,-9.41367 12.25794,-7.61639c9.59442,1.55739 8.2516,10.78048 8.2516,10.78048z" fill="#ffffff" stroke="#000000" stroke-width="1.15" stroke-linecap="butt"/><path d="M222.03511,105.26835c0,0 3.57234,-1.37897 8.25627,-1.24929c5.19038,0.1437 7.71442,0.91512 7.71442,0.91512l-0.22971,4.14162c0,0 -3.7189,-1.1595 -7.88798,-1.52937c-5.57562,-0.49465 -6.77263,0.58244 -11.04932,0.50003c-3.6645,-0.07061 -6.70336,-0.69312 -6.70336,-0.69312l0.12982,-1.22496c0,0 3.55705,0.52733 5.20046,0.59303c1.3564,0.05421 4.06233,-0.42857 4.06233,-0.42857z" fill="#000000" stroke="none" stroke-width="1.5" stroke-linecap="butt"/><path d="M268.28183,121.77595c1.77608,-5.80094 2.86473,-8.3197 4.75779,-7.81751c1.89305,0.50219 1.22575,4.4394 -0.78537,9.97258c-1.91136,5.25872 -7.24809,8.12485 -7.24809,8.12485c0,0 1.49958,-4.479 3.27567,-10.27994z" data-paper-data="{&quot;index&quot;:null}" fill="#ffffff" stroke="#000000" stroke-width="1" stroke-linecap="butt"/><path d="M269.20463,117.79353c0,0 2.65832,-0.47123 1.85158,2.53424c-1.44618,5.38774 -5.35063,7.83773 -5.35063,7.83773" data-paper-data="{&quot;index&quot;:null}" fill="none" stroke="#000000" stroke-width="0.25" stroke-linecap="round"/><path d="M229.30029,120.76473c-0.4866,2.22345 -1.73827,4.68576 -2.39215,6.99297c-0.27943,0.98598 -0.04901,2.0183 -0.62653,2.91372c-0.06634,0.56188 -0.50163,3.85746 -1.54551,3.12584c-0.19921,-0.13962 0.07903,-1.46184 0.10935,-1.70324c0.22231,-1.76966 0.39889,-3.63434 0.18627,-5.40313c-0.2528,-1.43373 -0.56566,-2.98948 -0.76564,-4.55107c-0.31612,1.17962 -1.02823,4.03011 -1.6985,3.93413c-0.93461,-0.13382 -1.13297,-5.99512 -2.35866,-3.39309c-1.1461,2.67114 -1.62849,6.41736 -3.0858,8.95266l0.03515,0.01461l-0.1898,0.45669c-0.04066,0.1044 -0.14834,0.17186 -0.26451,0.15708c-0.10401,-0.01323 -0.18491,-0.08859 -0.21019,-0.18407l-0.13123,-0.45376c-0.71971,-1.29723 -1.42977,-5.82602 -1.12503,-7.9732c-1.05222,2.26727 -1.25508,4.89334 -2.49619,7.0765c-1.43093,2.51597 -2.40802,-4.15179 -2.59801,-5.48204c-0.05315,-0.37213 -0.02967,-1.55464 -0.23453,-1.82766c-0.12043,-0.16047 -0.38777,0.14127 -0.5329,0.2798c-0.19689,0.21167 -0.59652,0.72535 -1.0911,1.33459c0.40232,0.90708 0.84203,1.77074 1.33416,2.55184c1.68243,2.41371 3.43618,6.975 3.07068,9.86036c-0.03502,0.27518 -0.07003,0.55036 -0.10506,0.82554c0.0977,-0.32552 0.21264,-0.62559 0.34874,-0.88745l0.09799,-0.18517c0,0 0.11693,-0.22098 0.3379,-0.10403c0.22098,0.11693 0.10403,0.3379 0.10403,0.3379l-0.09799,0.18517c-0.85658,1.58456 -0.17933,3.80083 -1.05643,5.35034l0.09184,0.06415l-0.2833,0.40561c-0.05102,0.07628 -0.1423,0.12152 -0.23953,0.10914c-0.10223,-0.01301 -0.18215,-0.08606 -0.20885,-0.17923l-0.14669,-0.47208l0.00539,-0.00167l-0.01144,-0.02173c-0.04216,-0.38678 -0.18793,-2.60505 -0.45096,-2.78994c-0.48683,-0.34219 -3.72005,0.51381 -4.45374,0.54178c-1.31791,-2.73989 -2.46648,2.6592 -3.50033,2.64759c-1.08611,-0.0122 -0.77708,-3.74862 -0.83318,-4.51379c-0.19568,-2.69073 -0.89299,-5.64418 -0.73317,-8.33589c-1.74274,0.70638 -4.73424,5.32929 -4.99633,2.08667c-0.78951,-2.83338 0.07004,-7.50752 0.18956,-10.51699c0.0118,-0.29713 0.16921,-1.5453 -0.08079,-1.75193c-0.08577,-0.07089 -1.02735,0.60452 -1.10747,0.63824c-1.71965,0.72379 -5.09175,3.68672 -5.98692,1.26872c-0.78118,-1.72122 1.14601,-5.80531 -0.47846,-7.26513c-0.51044,-0.45872 -2.05141,0.7972 -2.45274,1.00961c-1.50098,0.71353 -1.47759,-1.11361 -1.34388,-2.14813c0.30685,-2.37388 1.47945,-4.8831 1.49322,-7.24576c-0.22885,-0.95939 -2.53207,-0.01708 -3.09231,-0.75301c-0.17819,-0.23407 0.10222,-1.37029 0.14047,-1.6708c0.26381,-2.0726 0.85274,-3.34563 1.86698,-5.15885c0.75685,-1.31906 1.69261,-2.46882 2.53691,-3.72942c0.13554,-0.20237 0.93891,-1.27692 0.78854,-1.52111c-0.1766,-0.28678 -1.92561,0.34076 -2.73512,0.69406l-0.09456,0.1172c-0.05248,0.06732 -0.1381,0.10603 -0.22892,0.09448c-0.13696,-0.01743 -0.23387,-0.1426 -0.21644,-0.27957c0.00001,-0.00008 0.00002,-0.00016 0.00003,-0.00023l0.06353,-0.49592c0.44661,-3.48653 1.3015,-6.89447 2.07175,-10.32238c0.29097,-0.88091 0.52692,-2.86366 1.34972,-3.36924c0.75598,-0.46452 4.55827,1.85036 5.33935,2.87164l0.01026,-0.00813l0.00514,-0.0398l0.00022,0.00003l-0.00017,-0.00043c0.45827,-3.39184 1.42997,-6.90061 2.25623,-10.25479c0.17841,-0.72424 0.5241,-3.02958 1.14995,-3.47021c0.67788,-0.47726 4.57325,1.92134 5.3647,2.95011c0.2045,-1.31658 0.65202,-2.54776 0.81905,-3.88151c0.43644,-3.48493 0.51436,-6.92879 0.59766,-10.43861c-0.23194,-6.87013 4.78539,5.26603 5.45402,-0.1354c0.37003,-2.99121 -2.18619,-6.35451 -1.75935,-9.27235l-0.07846,-0.01047l0.06613,-0.49542c0.01806,-0.13627 0.14287,-0.23249 0.2794,-0.21511c0.06848,0.00872 0.12694,0.04436 0.16611,0.09496l0.30607,0.39531c0.00001,0.00001 0.00002,0.00002 0.00004,0.00005c1.12844,1.45582 2.54661,2.42282 4.1005,3.41943c1.65556,1.06188 3.54969,1.79898 5.35642,2.57207c0.34922,0.14943 1.67702,1.02995 2.05924,0.67771c0.13046,-0.12024 -0.20678,-1.56877 -0.18583,-1.81475c0.3124,-3.43684 -0.22398,-7.00283 -0.46133,-10.43789c-0.17503,-2.5334 -1.26824,-6.89897 -0.57192,-9.53799l-0.07542,-0.01964l0.12513,-0.48057c0.0298,-0.12182 0.14698,-0.20451 0.27435,-0.1883c0.0678,0.00863 0.12577,0.04365 0.16492,0.09343l0.30929,0.39267c1.39829,1.77572 3.38509,3.21951 5.03733,4.76827c1.53604,1.09669 2.80491,2.12474 4.55506,2.87926c0.19936,0.08595 1.56065,0.54679 1.69529,0.44515c0.13681,-0.10328 0.44167,-2.429 0.55067,-2.79365c0.79753,-2.66747 1.42712,-6.70181 3.39401,-8.91373l-0.04641,-0.035l0.29811,-0.39535c0.0519,-0.07155 0.14023,-0.1133 0.23409,-0.10135c0.12547,0.01597 0.21732,0.12235 0.21845,0.2454l0.01234,0.4761c0.19617,0.80447 0.41092,1.60604 0.5473,2.42293c0.66036,3.96291 2.5976,5.6943 4.97213,8.71828c1.52352,1.91766 4.22991,3.22791 6.25673,4.90384c0.04913,-0.00952 0.08821,-0.00455 0.08821,-0.00455c2.75623,0.37051 6.01922,-1.21456 8.81134,-1.36903c3.50084,-0.06438 6.99781,-0.12406 10.49944,-0.13671c3.58401,-0.22717 6.94809,-0.09159 10.49172,0.56955c1.00553,0.1876 6.71529,0.77243 5.72902,2.65318c-0.46454,0.88584 -2.9194,1.33727 -3.79567,1.6425c-0.1877,0.10509 -1.48351,0.69658 -1.47352,0.87901c0.02962,0.54122 1.19006,1.33492 1.55274,1.67011c1.4735,1.36182 2.9438,2.66318 4.53111,3.89097c2.82329,2.18384 5.7031,4.03685 8.61169,6.03436c0.32292,0.70263 1.17407,1.82455 0.53898,2.64771c-0.33286,0.43142 -1.57628,0.54335 -2.07647,0.63051c-1.96954,0.34324 -3.95231,0.58543 -5.91446,0.96934c-0.26136,0.05114 -2.07189,0.27857 -2.03449,0.45425c0.4228,1.98597 3.20804,4.82135 4.35901,6.54573c1.55197,2.32512 5.33236,6.29909 5.18734,9.15378c-0.4764,2.1687 -3.16941,-1.44241 -4.35905,-0.46131c-0.64122,0.52881 0.4836,4.38655 0.66259,5.14359c0.79492,3.36589 1.97735,6.82497 2.2941,10.23851c0.04743,0.51236 0.03826,1.00056 0.0559,1.50835c0.18331,5.27622 -3.68079,-5.65876 -3.67005,-0.79659c0.0078,3.52812 0.18263,6.92959 0.5268,10.43272c0.33888,3.46232 0.18553,7.03575 0.25784,10.5147c0.07226,3.49925 -0.15575,7.03081 -0.25403,10.52975c-0.6896,3.45047 -1.35387,6.86314 -2.2644,10.26731c-0.04703,0.31685 -0.12989,2.05131 -0.44055,2.16324c-0.54917,0.19787 -1.85422,-1.80217 -2.22808,-2.32103c-0.16794,0.71153 -0.79491,1.53171 -1.09886,2.11116c-1.08387,2.06631 -2.16775,4.13263 -3.25163,6.19894c-0.34092,0.64994 -1.57312,3.97713 -2.26878,4.11518c-1.38721,0.27529 -3.43934,-3.78196 -4.02112,-4.68795c-0.63297,-0.9867 -1.13144,-3.76964 -1.92376,-4.40663c-0.41853,-0.33647 -0.0361,1.07426 -0.09123,1.60843c-0.12119,1.17427 -0.22349,2.33511 -0.46573,3.49115c-0.34457,1.64436 -0.44823,3.97728 -1.33003,5.39722l-0.06221,0.27515c0,0 -0.01582,0.05881 -0.06086,0.11059c-0.06326,0.17548 -0.264,0.14993 -0.264,0.14993l0.00004,-0.00001c-0.89262,-0.13645 -2.09336,0.58834 -2.92694,0.2843c-2.03101,-0.74077 -3.21261,-2.46485 -4.34563,-4.14425c-0.23819,-0.31577 -1.56649,-2.67341 -1.67725,-2.63345c-1.09903,0.39652 -1.44368,6.40855 -2.86782,3.38856c-0.14969,-0.31743 -0.2837,-0.66025 -0.29373,-1.01106c-0.08296,-0.53186 -0.07318,-2.51638 -0.29555,-2.81024c-0.35655,-0.47117 -2.01917,-1.2388 -2.28237,-1.75253c-0.38979,-0.76082 1.44518,-3.77449 1.94079,-4.31381c0.29199,-0.41225 0.5834,-0.82448 0.87394,-1.2373c-1.80728,-2.56394 -3.98795,-5.74106 -6.45237,-7.5906c-0.83292,-0.80167 -0.94762,2.79559 -2.31965,1.26457c-0.72559,-0.80968 -1.89313,-5.83432 -3.50914,-5.13112c-0.21631,0.34995 -1.80824,2.29919 -2.23022,2.23769c-0.63769,-0.09293 -0.533,-1.25368 -0.58332,-1.63075c-0.17995,-1.34862 -1.11685,-4.38066 -2.1764,-5.23712c-1.1338,0.01131 -2.06753,3.33555 -3.13337,2.97171c-0.41816,-0.14275 -0.35034,-1.34317 -0.39549,-1.68052c-0.19918,-1.48811 -0.49729,-2.9096 -0.98143,-4.32817c-0.25333,-0.74226 -0.60564,-2.52799 -1.58249,-2.71921c-0.71393,-0.13975 -0.9935,1.23877 -1.62139,1.07571c-0.26593,-0.06906 -0.42368,-0.48968 -0.51432,-1.06345c-0.80511,1.08881 -1.46041,2.32784 -2.21289,3.52549zM211.9408,141.34747c-0.02589,-0.0033 -0.04873,-0.00894 -0.06888,-0.01643c0.05907,0.45392 0.09564,0.90106 0.12177,1.20133c0.02553,-0.37496 0.05347,-0.78216 0.08961,-1.20263c-0.03695,0.01696 -0.08363,0.02522 -0.14251,0.01772z" fill="#000000" stroke="none" stroke-width="0.5" stroke-linecap="butt"/><path d="M219.87179,116.62997c0.68804,-4.84377 5.92795,-8.25365 11.24814,-7.49794c5.32017,0.75571 8.41856,5.35424 7.73052,10.19803c-0.68804,4.84377 -5.20096,8.20334 -10.52115,7.44763c-5.32017,-0.75571 -9.14556,-5.30394 -8.45751,-10.14771z" fill="#ffffff" stroke="#000000" stroke-width="1.4" stroke-linecap="butt"/><path d="M236.96499,118.51496c-0.62762,4.93079 -4.41188,8.51105 -8.45237,7.99675c-4.0405,-0.5143 -6.80719,-4.9284 -6.17957,-9.85919c0.62762,-4.93079 4.41188,-8.51105 8.45237,-7.99675c4.0405,0.5143 6.80719,4.9284 6.17957,9.85919z" fill="#000000" stroke="none" stroke-width="0" stroke-linecap="butt"/></g><path d="M210.98336,161.82295v-16.92345h52.65074v16.92345z" fill="#000000" stroke="none" stroke-width="0" stroke-linecap="butt"/></g></g></svg>