<svg version="1.1" xmlns="http://www.w3.org/2000/svg" xmlns:xlink="http://www.w3.org/1999/xlink" width="117.926" height="370.9894" viewBox="0,0,117.926,370.9894"><defs><linearGradient x1="236.97958" y1="48.54264" x2="246.90357" y2="269.99543" gradientUnits="userSpaceOnUse" id="color-1"><stop offset="0" stop-color="#a50060"/><stop offset="1" stop-color="#ff0095"/></linearGradient><linearGradient x1="242.25656" y1="174.41299" x2="248.94081" y2="323.57131" gradientUnits="userSpaceOnUse" id="color-2"><stop offset="0" stop-color="#000000"/><stop offset="1" stop-color="#8a8a8a"/></linearGradient><linearGradient x1="238.24887" y1="83.66761" x2="242.34128" y2="174.98954" gradientUnits="userSpaceOnUse" id="color-3"><stop offset="0" stop-color="#ff0095"/><stop offset="1" stop-color="#710042"/></linearGradient><linearGradient x1="206.28811" y1="125.2622" x2="211.52211" y2="242.05815" gradientUnits="userSpaceOnUse" id="color-4"><stop offset="0" stop-color="#ff0095"/><stop offset="1" stop-color="#710042"/></linearGradient><linearGradient x1="274.66489" y1="131.5375" x2="279.89888" y2="248.33346" gradientUnits="userSpaceOnUse" id="color-5"><stop offset="0" stop-color="#ff0095"/><stop offset="1" stop-color="#710042"/></linearGradient><linearGradient x1="251.58579" y1="77.0959" x2="252.45484" y2="96.48857" gradientUnits="userSpaceOnUse" id="color-6"><stop offset="0" stop-color="#000000"/><stop offset="1" stop-color="#8a8a8a"/></linearGradient></defs><g transform="translate(-194.57094,37.54508)"><g data-paper-data="{&quot;isPaintingLayer&quot;:true}" fill-rule="nonzero" stroke-linejoin="miter" stroke-miterlimit="10" stroke-dasharray="" stroke-dashoffset="0" style="mix-blend-mode: normal"><path d="" data-paper-data="{&quot;index&quot;:null}" fill="#000000" stroke="none" stroke-width="1.5" stroke-linecap="butt"/><path d="" fill="#ffffff" stroke="none" stroke-width="0.5" stroke-linecap="butt"/><path d="" fill="#000000" stroke="none" stroke-width="0.5" stroke-linecap="butt"/><path d="" fill="#ff0000" stroke="none" stroke-width="0.5" stroke-linecap="butt"/><path d="" fill="#000000" stroke="none" stroke-width="0.5" stroke-linecap="butt"/><path d="" fill="#000000" stroke="none" stroke-width="0.5" stroke-linecap="butt"/><path d="" fill="#000000" stroke="none" stroke-width="0.5" stroke-linecap="butt"/><path d="" fill="#000000" stroke="none" stroke-width="0.5" stroke-linecap="butt"/><path d="" fill="#000000" stroke="none" stroke-width="0.5" stroke-linecap="butt"/><path d="" fill="#000000" stroke="none" stroke-width="0.5" stroke-linecap="butt"/><path d="M198.05051,86.62505c-0.41943,-8.14199 6.53293,-37.09095 38.50881,-38.68385c31.5636,-1.57237 41.13685,27.67316 41.46069,35.07577c1.49301,34.59762 9.78682,206.32145 9.78682,206.32145l-10.3908,0.46533l-9.24216,-203.10277c0,0 -0.06334,-3.09958 -2.95463,-3.02491c-3.43389,0.08868 -2.80295,3.24436 -2.80295,3.24436l10.65814,233.24527l-13.86655,0.64003c0,0 -5.05977,-117.73075 -6.7931,-120.60425c-1.51038,-2.50392 -15.86047,-2.31954 -17.40977,1.16283c-1.25636,2.82391 3.72395,120.38532 3.72395,120.38532l-13.81661,0.64665l-10.7742,-233.60358c0,0 0.14854,-2.92858 -3.01408,-2.80231c-3.10839,0.12414 -2.68263,3.03213 -2.68263,3.03213l9.36708,202.19341l-9.86126,0.63605c0,0 -8.97248,-187.28516 -9.89674,-205.22693z" fill="#ffffff" stroke="#000000" stroke-width="2" stroke-linecap="butt"/><path d="M253.2994,91.03092c-0.5694,0.0443 -1.06691,-0.38138 -1.1112,-0.95078c-0.0443,-0.5694 0.38138,-1.06693 0.95078,-1.11122c0.5694,-0.0443 1.06691,0.38139 1.11121,0.9508c0.0443,0.5694 -0.38138,1.06691 -0.95078,1.1112z" fill="#000000" stroke="none" stroke-width="1.5" stroke-linecap="butt"/><path d="M248.38388,95.66176c-4.47444,0.03279 -6.67186,-1.28026 -6.3514,-2.09376c0.09873,-0.25066 2.92037,0.83956 7.05059,0.76019c6.41875,-0.12333 8.43569,-1.28996 8.43569,-1.28996l0.10442,1.34211c0,0 -2.32504,1.23078 -9.2393,1.28142z" fill="#000000" stroke="#000000" stroke-width="0" stroke-linecap="butt"/><path d="M220.2462,92.56531c-0.0443,-0.5694 0.38138,-1.06693 0.95078,-1.11122c0.5694,-0.0443 1.06693,0.38139 1.11123,0.9508c0.0443,0.5694 -0.38139,1.06691 -0.9508,1.11121c-0.5694,0.0443 -1.06691,-0.38138 -1.1112,-0.95078z" fill="#000000" stroke="none" stroke-width="1.5" stroke-linecap="butt"/><path d="M226.92999,97.33092c-6.83889,1.0194 -9.32631,0.16302 -9.32631,0.16302l-0.10442,-1.34211c0,0 2.17312,0.84063 8.53369,-0.0303c4.09279,-0.56042 6.71187,-2.07391 6.84818,-1.84154c0.44243,0.75413 -1.52545,2.39124 -5.95113,3.05092z" fill="#000000" stroke="#000000" stroke-width="0" stroke-linecap="butt"/><path d="M241.24891,159.50573c-0.81813,0.03666 -1.51108,-0.59684 -1.54774,-1.41497c-0.03666,-0.81813 0.59684,-1.51108 1.41497,-1.54774c0.81813,-0.03666 1.51108,0.59684 1.54774,1.41497c0.03666,0.81813 -0.59684,1.51108 -1.41497,1.54774z" data-paper-data="{&quot;index&quot;:null}" fill="#000000" stroke="none" stroke-width="1.5" stroke-linecap="butt"/><path d="M216.90199,271.41454c0,0 0.00669,3.27214 0.44708,4.28933c0.44039,1.01719 3.23465,4.17118 3.65986,6.82447c0.57958,3.61649 0.8372,7.30125 2.17797,11.46578c1.47868,3.372 4.46855,8.4999 3.20916,9.85093c-1.04873,1.12505 -3.8027,-1.53786 -4.76219,-3.02139c-1.05937,-1.638 -1.85517,-4.69329 -1.97645,-5.03965c-0.29895,-0.85377 -1.12995,-1.61242 -1.58752,-2.35875c-0.34166,-0.55727 -0.39782,-0.28116 -0.39782,-0.28116c0,0 0.04193,0.66161 0.14773,2.18535c0.07421,1.06866 0.4051,2.39529 0.53186,3.33905c0.15502,1.15426 0.31861,2.91295 0.53726,3.91672c0.09565,0.43908 0.50097,1.29586 0.8503,2.17116c0.38077,0.95408 0.70795,1.92907 0.82403,2.38147c0.71348,2.78107 1.89453,4.16778 2.47992,5.6536c0.32264,0.8189 0.43,2.49299 0.09319,3.2479c-0.40094,0.89868 -1.17661,0.94527 -1.17661,0.94527c0,0 -0.33496,1.31672 -1.51357,1.2314c-1.33216,-0.09644 -3.00854,-1.89879 -3.00854,-1.89879c0,0 -0.69823,0.52279 -1.76485,-0.36241c-0.58706,-0.48721 -1.93722,-2.78895 -1.93722,-2.78895c0,0 -0.76522,0.38678 -1.70073,-0.83313c-0.96068,-1.2527 -1.68845,-2.85467 -2.54138,-4.88523c-0.49779,-1.18511 -1.48288,-2.99612 -2.26585,-4.95877c-0.55856,-1.40011 -1.23628,-2.86745 -1.33887,-4.24973c-0.13324,-1.91884 -0.10962,-3.64666 -0.29979,-5.26461c-0.49468,-4.20832 -0.59189,-7.35028 -0.05232,-10.73203c0.26686,-1.67255 0.94576,-3.30953 1.30504,-5.34862c0.22015,-1.24948 0.10137,-5.21034 0.10137,-5.21034" fill="#ffffff" stroke="#000000" stroke-width="2" stroke-linecap="butt"/><path d="M286.88502,268.43466c0,0 0.09691,4.01797 0.43401,5.26004c0.55015,2.02697 1.38818,3.61871 1.81119,5.28385c0.85528,3.36678 1.04231,6.54925 0.92285,10.84496c-0.04594,1.65154 0.13519,3.39462 0.17442,5.34493c0.02157,1.40554 -0.53296,2.9493 -0.97266,4.41432c-0.61635,2.05363 -1.45165,3.97247 -1.8492,5.2148c-0.68118,2.12859 -1.27428,3.81288 -2.13557,5.16558c-0.83874,1.31728 -1.65071,0.99618 -1.65071,0.99618c0,0 -1.16127,2.44772 -1.7129,2.99324c-1.00225,0.99111 -1.75861,0.52654 -1.75861,0.52654c0,0 -1.53784,1.97296 -2.88139,2.19153c-1.18868,0.19337 -1.64845,-1.10617 -1.64845,-1.10617c0,0 -0.79163,0.0235 -1.28037,-0.84777c-0.41055,-0.7319 -0.45379,-2.43262 -0.20075,-3.28912c0.45913,-1.55405 1.53193,-3.06213 2.00329,-5.93611c0.07667,-0.46754 0.32017,-1.4821 0.61993,-2.48042c0.27502,-0.91589 0.60855,-1.81816 0.66572,-2.27036c0.13068,-1.03376 0.13681,-2.82505 0.1892,-4.00506c0.04285,-0.96479 0.2581,-2.3349 0.23625,-3.42107c-0.03116,-1.54873 -0.04875,-2.22079 -0.04875,-2.22079c0,0 -0.08212,-0.27378 -0.37827,0.32018c-0.39662,0.79545 -1.17122,1.63733 -1.39704,2.52689c-0.09161,0.36088 -0.62159,3.51935 -1.54806,5.27019c-0.83908,1.58574 -3.39255,4.52593 -4.55947,3.48492c-1.40131,-1.25012 1.16747,-6.7016 2.36188,-10.24205c0.98234,-4.32843 0.90876,-8.07376 1.16823,-11.77941c0.19037,-2.7187 2.59738,-6.15219 2.95193,-7.21968c0.35454,-1.06749 0.06377,-4.37324 0.06377,-4.37324" data-paper-data="{&quot;index&quot;:null}" fill="#ffffff" stroke="#000000" stroke-width="2" stroke-linecap="butt"/><path d="M216.60503,176.87127l-4.137,-92.31684c0,0 4.40531,105.29762 2.13996,158.99943c-0.84198,19.95952 -7.34777,28.85329 -8.51615,28.23409c-2.87685,-1.5246 -8.56529,-194.43572 -8.65323,-196.398c-0.20137,-4.49349 13.7613,-19.1337 13.7613,-19.1337c0,0 2.68745,-2.47577 4.6962,-3.96228c2.00875,-1.48653 5.27785,-3.04304 5.27785,-3.04304c0,0 0.26922,9.31437 16.10552,8.53427c16.12212,-0.79418 13.55578,-9.86349 13.55578,-9.86349c0,0 4.15586,1.33489 6.57362,2.65492c2.41776,1.32004 5.12788,3.37906 5.12788,3.37906c0,0 16.25266,14.96664 16.4661,19.72924c0.10469,2.33632 11.74028,192.64247 8.05534,194.2888c-1.15225,0.51479 -9.20919,-10.97402 -12.11676,-33.30675c-7.04535,-54.11479 -11.11394,-151.90882 -11.11394,-151.90882l4.11441,91.81254z" fill="url(#color-1)" stroke="#000000" stroke-width="2" stroke-linecap="butt"/><path d="M252.4148,200.20148c0,0 -5.43709,2.03314 -9.08362,2.27669c-3.64652,0.24356 -8.32617,-1.11386 -8.32617,-1.11386l1.40317,0.501c0,0 0.14898,8.16469 -0.08109,13.39362c-0.23006,5.22892 3.11585,107.56659 3.11585,107.56659c0,0 -4.85085,0.71007 -7.42379,0.8813c-2.44472,0.16271 -5.24565,0.01417 -5.24565,0.01417c0,0 -6.83434,-100.04063 -7.36395,-107.08091c-0.33671,-4.47585 -0.41614,-9.60736 -0.70651,-14.37743c-0.3442,-5.65432 -0.88362,-10.80532 -1.06662,-13.81857c-0.31534,-5.19229 -0.23059,-12.04368 -0.23059,-12.04368c0,0 4.77297,-1.19486 9.94864,-1.21849c4.90263,-0.0224 10.70437,0.47941 14.60994,0.29544c3.86517,-0.18208 9.5694,-1.21641 14.52084,-1.65291c5.47398,-0.48258 10.66336,-0.0147 10.66336,-0.0147c0,0 0.72419,7.12876 0.89309,12.50385c0.07898,2.51345 0.04206,7.22253 0.22411,11.69661c0.1923,4.72626 0.60388,9.27844 0.68741,14.10503c0.14288,8.25367 3.52798,107.3947 3.52798,107.3947c0,0 -3.47891,3.25378 -5.76147,3.26257c-2.63638,0.01016 -8.10139,-1.32563 -8.10139,-1.32563c0,0 -5.52027,-102.3985 -6.2682,-107.7525c-0.74794,-5.354 -1.39361,-12.75697 -1.39361,-12.75697z" fill="url(#color-2)" stroke="#000000" stroke-width="2" stroke-linecap="butt"/><path d="M250.69238,330.92936l-13.8094,0.61884z" fill="#1c8d26" stroke="none" stroke-width="0" stroke-linecap="butt"/><path d="M250.59993,330.93349l13.8094,-0.61884z" fill="#17721e" stroke="none" stroke-width="0" stroke-linecap="butt"/><path d="M264.31686,330.31879l13.80941,-0.61884z" fill="#125a18" stroke="none" stroke-width="0" stroke-linecap="butt"/><path d="M278.03375,329.70409l13.8094,-0.61884z" fill="#0c3d10" stroke="none" stroke-width="0" stroke-linecap="butt"/><path d="M291.64684,329.09405l13.8094,-0.61884z" fill="#07250a" stroke="none" stroke-width="0" stroke-linecap="butt"/><path d="" fill="#5a5a5a" stroke="none" stroke-width="0" stroke-linecap="butt"/><path d="" fill="#3f3f3f" stroke="none" stroke-width="0" stroke-linecap="butt"/><path d="" fill="#2a2a2a" stroke="none" stroke-width="0" stroke-linecap="butt"/><path d="" fill="#191919" stroke="none" stroke-width="0" stroke-linecap="butt"/><path d="" fill="#0c0c0c" stroke="none" stroke-width="0" stroke-linecap="butt"/><path d="M222.54286,332.19082l14.63455,-0.65582z" fill="#21a42c" stroke="none" stroke-width="0" stroke-linecap="butt"/><path d="" fill="#727272" stroke="none" stroke-width="0" stroke-linecap="butt"/><path d="M208.91105,332.8017l13.8094,-0.61884z" fill="#26bc32" stroke="none" stroke-width="0" stroke-linecap="butt"/><path d="" fill="#8a8a8a" stroke="none" stroke-width="0" stroke-linecap="butt"/><path d="M194.57094,333.44432l14.63455,-0.65582z" fill="#2ad138" stroke="none" stroke-width="0" stroke-linecap="butt"/><path d="" fill="#9e9e9e" stroke="none" stroke-width="0" stroke-linecap="butt"/><path d="M217.02142,174.19778l-4.00626,-89.39936c0,0 18.17853,31.71016 27.31608,40.2235c8.38909,7.81601 25.45598,8.94357 25.45598,8.94357l1.30711,39.91482z" fill="url(#color-3)" stroke="#000000" stroke-width="2" stroke-linecap="butt"/><path d="M203.14503,214.98195l-4.00626,-89.39936c0,0 4.71258,10.6413 13.85013,19.15465c3.15501,2.93949 0.66744,13.50233 0.426,22.9515c-0.40052,15.67581 1.25078,35.69999 1.25078,35.69999l1.24249,38.47288z" fill="url(#color-4)" stroke="#000000" stroke-width="2" stroke-linecap="butt"/><path d="M275.51285,248.53001l-2.20378,-38.42982c0,0 -0.1464,-20.09161 -1.94748,-35.66877c-1.08566,-9.3897 -4.50809,-19.68769 -1.62865,-22.8976c8.33945,-9.29654 12.0813,-20.31672 12.0813,-20.31672l4.00626,89.39937z" data-paper-data="{&quot;index&quot;:null}" fill="url(#color-5)" stroke="#000000" stroke-width="2" stroke-linecap="butt"/><g><path d="M228.79325,-11.63911c0,0 8.52382,-1.97507 9.12054,-2.68365c1.56505,-1.85845 22.54467,-36.20684 53.70467,-17.83258c38.02924,23.43085 12.82763,52.97641 11.0787,60.494c-2.39804,10.30776 -4.65165,18.98783 -4.65165,18.98783c0,0 -1.16596,-3.34958 -1.65893,-5.03406c-0.45978,-1.57109 -1.41835,-4.89355 -1.41835,-4.89355c0,0 -3.2457,10.98242 -10.58466,19.31705c-6.66688,7.67456 -15.86039,11.52055 -15.86039,11.52055l0.35467,-2.73793c0,0 -2.10064,1.42031 -3.69734,1.82252c-1.59671,0.4022 -4.53479,0.75019 -4.53479,0.75019l2.0144,-3.3801c0,0 -12.15526,6.06919 -26.60394,-3.45689c-13.55986,-9.08932 -15.8828,-23.7624 -15.8828,-23.7624l-1.59684,2.32356c0,0 -1.41383,-5.07633 0.2868,-12.08565c2.02696,-8.35428 4.19121,-12.76676 4.19121,-12.76676c0,0 -3.03825,0.43645 -6.37142,-0.61205c-4.17664,-1.31383 -6.03308,-3.46393 -6.03308,-3.46393c0,0 4.56657,-0.48244 7.38642,-1.25421c2.51169,-0.68744 4.13135,-1.59816 4.13135,-1.59816c0,0 -2.38378,-0.16996 -4.47097,-0.84524c-2.17775,-0.70457 -3.68678,-1.71236 -3.68678,-1.71236c0,0 7.02557,-1.8255 12.04946,-5.95599c4.74336,-3.89985 7.95221,-8.70979 7.95221,-8.70979c0,0 -1.51798,-0.14502 -3.24772,-1.09454c-1.09643,-0.60187 -1.97079,-1.33592 -1.97079,-1.33592z" fill="#000000" stroke="none" stroke-width="1.5" stroke-linecap="butt"/><path d="M236.5072,7.65929c3.63346,-6.87017 9.96862,-15.23987 9.96862,-15.23987c0,0 2.88962,1.816 13.46941,4.73336c8.12807,2.24128 22.6258,2.63492 22.6258,2.63492c0,0 -3.51229,1.52791 -5.38263,2.15811c-1.98839,0.66999 -5.93243,1.93264 -5.93243,1.93264c0,0 7.52892,2.75943 15.0036,3.72156c9.19767,1.47679 12.32034,0.31349 13.47729,2.90749c1.36549,3.06156 -12.22552,21.40092 -15.62593,26.22819c-3.55574,4.86755 -7.49346,7.16382 -9.71789,9.54431c-2.22444,2.38048 -3.80957,5.29427 -10.91172,13.22099c-4.43223,4.94682 -8.53742,5.76203 -16.69945,7.73624c-8.16203,1.97421 -12.83399,3.39905 -16.20085,1.30958c-3.24015,-2.01081 -4.62964,-9.44008 -5.84869,-16.90533c-1.29807,-7.94928 -2.67163,-12.44293 0.38425,-18.88935c2.75215,-5.80569 4.94271,-9.32968 7.66719,-14.31824c1.99125,-3.646 1.73914,-7.02266 3.72344,-10.77459z" fill="#ffffff" stroke="#000000" stroke-width="1.5" stroke-linecap="butt"/><path d="M274.393,46.28002c-2.22444,2.38048 -0.56191,0.97367 -7.66407,8.90039c-0.67364,0.75184 -4.44267,1.95981 -6.39011,-0.54106c-1.15276,-1.48035 0.79799,-2.72042 -0.07492,-3.59685c-1.7272,-1.73415 -8.70842,6.68028 -11.78226,3.2879c-2.03607,-2.24706 2.62528,-8.5156 -0.41025,-7.78138c0,0 -5.69955,3.29851 0.90838,-9.15503c4.35237,-8.20264 27.63765,6.50555 25.41322,8.88604z" fill="#a00000" stroke="none" stroke-width="0" stroke-linecap="butt"/><path d="M243.11246,49.12761c-0.8688,-0.56167 -1.13234,-4.85346 -0.15355,-6.87939c0.87575,-1.81264 3.26691,-2.72682 5.34408,-1.38394c2.07718,1.34288 3.25439,2.72432 1.02164,5.9551c-1.89489,2.74186 -4.13499,3.65113 -6.21217,2.30824z" fill="#ffffff" stroke="#000000" stroke-width="1.15" stroke-linecap="butt"/><path d="M259.17686,63.87688c0,0 -7.69719,8.58559 -17.10644,8.80983c-3.33744,0.07953 -7.45348,-2.13454 -11.39946,-4.76877c-4.93411,-3.29386 -8.01006,-7.31515 -9.42841,-11.06647c-3.47398,-9.18815 1.55768,-18.10802 1.55768,-18.10802c0,0 7.51767,-0.88002 13.98099,2.90054c4.56482,2.56736 5.96282,9.04579 5.96282,9.04579c0,0 4.10284,-2.1474 9.45795,2.67902c4.8075,4.33285 6.97486,10.50809 6.97486,10.50809z" fill="#000000" stroke="none" stroke-width="0" stroke-linecap="butt"/><path d="M253.49238,57.278c3.20714,4.01722 2.53349,4.67193 -2.40563,2.21699c-1.74722,-0.88347 -4.68037,-2.40204 -6.03607,-3.03247l-4.81317,-4.15057l1.59666,-0.02983c3.98432,-1.24378 7.04678,-0.88887 11.65822,4.99586z" data-paper-data="{&quot;noHover&quot;:false,&quot;origItem&quot;:[&quot;Path&quot;,{&quot;applyMatrix&quot;:true,&quot;segments&quot;:[[[429.93415,305.67568],[0,-1.32458],[0,0]],[429.93415,306.54352],[[430.95759,306.42172],[0,0],[0.54688,-0.07612]],[[433.27009,306.14766],[-0.71874,0.07614],[2.02344,-0.22838]],[[433.57477,305.0743],[1.78908,0.60138],[-2.59374,-0.89828]]],&quot;closed&quot;:true,&quot;fillColor&quot;:[0,0,0]}]}" fill="#ffffff" stroke="none" stroke-width="0.5" stroke-linecap="butt"/><path d="M230.50601,40.96978c5.12757,2.03543 7.49285,3.57329 9.09244,5.88694c0.74641,1.12229 2.43458,5.49801 2.26499,6.12655c-0.17695,0.91909 -2.63774,-0.81289 -4.52419,-2.03247c-2.93646,-1.89841 -8.74874,-7.72008 -9.77312,-9.83407c-0.75264,-1.47086 -0.49907,-1.48444 2.93991,-0.147z" data-paper-data="{&quot;noHover&quot;:false,&quot;origItem&quot;:[&quot;Path&quot;,{&quot;applyMatrix&quot;:true,&quot;segments&quot;:[[[423.38725,304.62518],[0,0],[-1.33594,0.27406]],[[422.50443,305.22658],[-0.52342,-0.30452],[0.73438,0.44914]],[[427.29349,306.2695],[-1.28906,0],[0.82812,0]],[[428.16849,305.87364],[0.125,0.31974],[-0.07032,-0.22838]],[[428.02787,305.24942],[0,0.1218],[0,-0.15224]],[[427.19193,304.6252],[0.45312,0.19792],[-0.95312,-0.39586]],[[423.38725,304.6252],[2,-0.39586],[0,0]]],&quot;closed&quot;:true,&quot;fillColor&quot;:[0,0,0]}]}" fill="#ffffff" stroke="none" stroke-width="0.5" stroke-linecap="butt"/><path d="M224.32716,39.86189c0.17796,0.11504 1.135,1.55804 1.79505,2.6983c0.59564,1.12326 2.27027,4.817 3.705,8.22969c0,0 0.83777,4.2214 2.60872,6.04332c1.77094,1.82192 5.63846,5.00399 8.86828,5.76404c2.57061,0.60493 6.06274,-0.16895 6.06274,-0.16895c8.95492,-0.31294 10.86344,0.47842 7.65639,3.15396c-3.12068,2.65757 -9.30371,4.77828 -13.20746,4.41984c-3.17623,-0.28175 -4.5329,-0.84023 -9.80073,-4.24586c-8.89835,-5.75275 -10.59117,-9.39953 -9.41976,-19.27189c0.57576,-4.30286 1.25132,-6.93314 1.73184,-6.62248z" data-paper-data="{&quot;noHover&quot;:false,&quot;origItem&quot;:[&quot;Path&quot;,{&quot;applyMatrix&quot;:true,&quot;segments&quot;:[[[421.23883,305.52346],[0,0],[-0.21094,0]],[[422.00445,307.89096],[-0.66406,-1.44638],[1.57032,3.28862]],[[428.62163,311.8571],[-3.90624,0],[2.3125,0]],[[432.43413,311.2557],[-1.04688,0.54812],[1.28906,-0.6699]],[[435.67631,307.32002],[-0.45312,1.44638],[0.47656,-1.46922]],[[432.86381,307.83768],[2.73438,-1.88792],[0,0]],[431.00443,309.13942],[426.91069,309.13942],[[424.91069,307.73872],[0,0],[-1.11718,-0.76886]],[[422.14507,305.91932],[0.40624,0.22838],[-0.42968,-0.22076]],[[421.23883,305.52348],[0.07812,0],[0,0]]],&quot;closed&quot;:true,&quot;fillColor&quot;:[0,0,0]}]}" fill="#ffffff" stroke="none" stroke-width="0.5" stroke-linecap="butt"/><path d="M263.13356,24.03045c0,0 -2.15548,3.62456 -4.01954,6.40996c-3.69114,5.51559 -16.58528,24.36929 -16.58528,24.36929l-2.51074,-1.61226c0,0 1.68152,-4.18756 4.42053,-9.1506c3.70747,-6.7179 8.82296,-14.89184 10.44469,-18.06423c1.53725,-3.00714 2.47403,-5.62415 2.47403,-5.62415" fill="#ffffff" stroke="#000000" stroke-width="1.3" stroke-linecap="round"/><path d="M237.50407,67.38323l3.69432,-7.48503" fill="none" stroke="#a00000" stroke-width="2" stroke-linecap="round"/><path d="M234.53417,63.71723l3.15697,-6.3963" fill="none" stroke="#a00000" stroke-width="2" stroke-linecap="round"/><path d="M243.2117,60.81126c-2.09533,-0.05052 -8.85096,-4.41804 -10.20823,-6.5996c-0.96519,-1.41138 0.12673,-1.19973 5.50136,2.27495c5.14329,3.3251 6.03742,4.39748 4.70687,4.32465z" data-paper-data="{&quot;noHover&quot;:false,&quot;origItem&quot;:[&quot;Path&quot;,{&quot;applyMatrix&quot;:true,&quot;segments&quot;:[[[428.84035,307.89094],[2.25782,0],[-2.35938,0]],[[426.77003,308.18782],[-0.57812,-0.2436],[0.85156,0.40346]],[[431.05129,308.18782],[-0.66408,0.40346],[0.42968,-0.2436]]],&quot;closed&quot;:true,&quot;fillColor&quot;:[0,0,0]}]}" fill="#ffffff" stroke="none" stroke-width="0.5" stroke-linecap="butt"/><path d="M243.08949,57.02116c4.23826,2.81378 4.57909,3.14778 2.612,2.61423c-2.70668,-0.79022 -12.24148,-7.62406 -13.60712,-9.71264c-0.75583,-1.22682 -0.28456,-1.09739 2.35147,1.00046c1.79431,1.40611 5.96472,4.26757 8.64365,6.09794z" data-paper-data="{&quot;noHover&quot;:false,&quot;origItem&quot;:[&quot;Path&quot;,{&quot;applyMatrix&quot;:true,&quot;segments&quot;:[[[426.57475,306.89362],[0.83594,0.07614],[-1.23438,-0.1218]],[[425.64507,307.04588],[-0.47656,-0.22838],[0.83594,0.37302]],[[431.59819,307.31992],[-1,0.2969],[0.71876,-0.22838]],[[430.27007,307.04588],[1.875,0.02282],[-1.19532,-0.03046]]],&quot;closed&quot;:true,&quot;fillColor&quot;:[0,0,0]}]}" fill="#ffffff" stroke="none" stroke-width="0.5" stroke-linecap="butt"/><path d="M246.02757,-10.95361l63.54694,21.86888l-33.87072,34.73327c0,0 -8.60101,5.67002 -11.54137,5.59743c-2.53054,-0.06246 0.82682,-5.93796 -2.24474,-5.20525c-3.4594,0.82523 -6.43426,4.9923 -8.93163,4.95251c-3.12744,-0.04984 1.48985,-7.51604 -0.81061,-6.37157c-3.25634,1.62002 -9.84533,2.74977 -14.23564,6.54226c-6.1304,5.29563 -9.75284,13.31692 -9.75284,13.31692c0,0 -5.30242,-4.14081 -6.07215,-7.366c-1.0903,-4.56834 0.15045,-17.44599 0.15045,-17.44599l17.09094,-37.74406z" fill="#000000" stroke="#000000" stroke-width="0.5" stroke-linecap="round"/><path d="M263.30733,24.3793c2.93138,-4.28389 8.74444,-5.54452 13.21367,-2.6552c4.46921,2.88933 5.55489,8.60462 2.79216,13.00288c-2.76272,4.39827 -8.38814,6.04357 -13.31418,2.94846c-4.68556,-2.944 -5.75304,-8.82228 -2.69166,-13.29616z" fill="#ffffff" stroke="#000000" stroke-width="1.4" stroke-linecap="butt"/><path d="M265.05379,25.74297c2.30888,-3.67576 6.9662,-4.85464 10.40244,-2.63313c3.43624,2.22151 4.35014,7.00217 2.04126,10.67792c-2.30888,3.67576 -6.96619,4.85464 -10.40244,2.63313c-3.43624,-2.22151 -4.35014,-7.00217 -2.04126,-10.67792z" fill="#000000" stroke="none" stroke-width="1.5" stroke-linecap="butt"/></g><path d="M258.90983,86.48349c0.23998,5.35515 -1.66353,9.79035 -6.45499,10.00508c-4.79144,0.21471 -7.54865,-2.98891 -7.78863,-8.34407c-0.08704,-1.9423 -2.91772,-9.56933 -1.97995,-10.23088c1.64776,-1.16244 6.59641,4.65474 9.65,4.5179c2.49471,-0.11179 5.65138,-5.3875 7.12342,-4.961c1.35523,0.39264 -0.66489,6.44604 -0.54987,9.01297z" fill="url(#color-6)" stroke="#000000" stroke-width="1.5" stroke-linecap="butt"/></g></g></svg>