<svg version="1.1" xmlns="http://www.w3.org/2000/svg" xmlns:xlink="http://www.w3.org/1999/xlink" width="96.22975" height="238.5816" viewBox="0,0,96.22975,238.5816"><defs><linearGradient x1="239.43764" y1="150.76257" x2="239.43764" y2="306.06419" gradientUnits="userSpaceOnUse" id="color-1"><stop offset="0" stop-color="#7ba4a8"/><stop offset="1" stop-color="#5a787b"/></linearGradient><linearGradient x1="238.98261" y1="152.15437" x2="238.98261" y2="304.74138" gradientUnits="userSpaceOnUse" id="color-2"><stop offset="0" stop-color="#63f2ff"/><stop offset="1" stop-color="#1a4044"/></linearGradient><linearGradient x1="242.02047" y1="145.70389" x2="245.69702" y2="158.41881" gradientUnits="userSpaceOnUse" id="color-3"><stop offset="0" stop-color="#000000"/><stop offset="1" stop-color="#444444"/></linearGradient><linearGradient x1="237.82688" y1="140.10444" x2="241.64577" y2="153.31159" gradientUnits="userSpaceOnUse" id="color-4"><stop offset="0" stop-color="#000000"/><stop offset="1" stop-color="#444444"/></linearGradient><linearGradient x1="241.20188" y1="156.90516" x2="245.03635" y2="170.16623" gradientUnits="userSpaceOnUse" id="color-5"><stop offset="0" stop-color="#000000"/><stop offset="1" stop-color="#444444"/></linearGradient><radialGradient cx="220.75106" cy="132.08864" r="17.55025" gradientUnits="userSpaceOnUse" id="color-6"><stop offset="0" stop-color="#ffffff"/><stop offset="1" stop-color="#ffffff" stop-opacity="0"/></radialGradient><radialGradient cx="247.22691" cy="124.41813" r="17.55025" gradientUnits="userSpaceOnUse" id="color-7"><stop offset="0" stop-color="#ffffff"/><stop offset="1" stop-color="#ffffff" stop-opacity="0"/></radialGradient></defs><g transform="translate(-187.93569,-68.48867)"><g data-paper-data="{&quot;isPaintingLayer&quot;:true}" fill-rule="nonzero" stroke-linecap="butt" stroke-linejoin="miter" stroke-miterlimit="10" stroke-dasharray="" stroke-dashoffset="0" style="mix-blend-mode: normal"><path d="M199.87855,305.69631c0,0 -0.63536,-94.38387 -0.79335,-118.01201c-0.05451,-8.15261 8.18688,-36.76129 40.20201,-36.9211c31.60235,-0.15775 39.85672,29.48704 39.84884,36.89673c-0.07659,46.24274 0.65429,117.98648 0.65429,117.98648l-10.49667,0.09614l-0.15882,-114.84311c0,0 0.07549,-3.0993 -2.81625,-3.15415c-3.43441,-0.06514 -2.94538,3.11562 -2.94538,3.11562l-2.46119,115.20328l-42.21366,-0.26111l-3.63872,-115.23309c0,0 0.27949,-2.919 -2.8856,-2.93443c-3.11083,-0.01515 -2.81569,2.90899 -2.81569,2.90899l0.35311,115.0668z" fill="url(#color-1)" stroke="#000000" stroke-width="2"/><path d="M218.48761,304.74136l-3.76077,-118.61411c0,0 -0.231,13.99431 -3.30979,20.87111c-3.9536,8.83076 -16.61722,15.82057 -16.61722,13.13276c0,-2.21999 4.92149,-5.43501 1.01865,-43.6427c17.31242,-16.53244 18.90836,-17.95235 18.90836,-17.95235c0,0 2.67319,-2.29189 4.6557,-3.65077c1.98251,-1.35888 5.17197,-2.73093 5.17197,-2.73093c0,0 -1.22839,2.08689 13.93273,2.01837c15.43477,-0.06976 14.45833,-2.01836 14.45833,-2.01836c0,0 3.91276,1.48014 6.16585,2.87006c2.25309,1.3899 4.75379,3.51164 4.75379,3.51164c0,0 3.4404,-0.18388 6.62335,2.82496c4.14489,3.91815 12.67687,22.16151 12.67687,24.78811c0,1.88172 -9.26871,-10.38334 -12.12228,-8.47724c-4.29844,2.87124 -7.17794,8.94708 -7.17794,8.94708l0.62679,11.56734c0,0 -9.8535,38.21768 -13.802,67.19165c-17.22014,-40.53056 -9.76212,-16.27986 -18.66655,-40.54391c-8.74047,18.71472 -13.53584,79.90731 -13.53584,79.90731z" fill="url(#color-2)" stroke="#000000" stroke-width="2"/><path d="" data-paper-data="{&quot;index&quot;:null}" fill="#000000" stroke="none" stroke-width="1.5"/><path d="" fill="#ffffff" stroke="none" stroke-width="0.5"/><path d="" fill="#000000" stroke="none" stroke-width="0.5"/><path d="" fill="#ff0000" stroke="none" stroke-width="0.5"/><path d="" fill="#000000" stroke="none" stroke-width="0.5"/><path d="" fill="#000000" stroke="none" stroke-width="0.5"/><path d="" fill="#000000" stroke="none" stroke-width="0.5"/><path d="" fill="#000000" stroke="none" stroke-width="0.5"/><path d="" fill="#000000" stroke="none" stroke-width="0.5"/><path d="" fill="#000000" stroke="none" stroke-width="0.5"/><path d="M240.64435,261.12113c-0.81895,0 -1.48284,-0.66389 -1.48284,-1.48284c0,-0.81895 0.66389,-1.48284 1.48284,-1.48284c0.81895,0 1.48284,0.66389 1.48284,1.48284c0,0.81895 -0.66389,1.48284 -1.48284,1.48284z" data-paper-data="{&quot;index&quot;:null}" fill="#000000" stroke="none" stroke-width="1.5"/><g><path d="M187.9357,129.57821c0,0 4.2758,-7.40082 4.15859,-8.26813c-0.30743,-2.27475 -11.32021,-38.54562 23.00417,-49.92864c42.62595,-13.27647 47.29846,23.12031 51.61586,28.99377c5.91981,8.0534 10.74766,15.00525 10.74766,15.00525c0,0 -3.22867,-1.20406 -4.78968,-1.87741c-1.45595,-0.62802 -4.52567,-1.96611 -4.52567,-1.96611c0,0 5.84391,9.08224 7.00785,19.51642c1.13275,9.54184 -2.22586,18.5747 -2.22586,18.5747l-1.76179,-1.93409c0,0 -0.37187,2.39552 -1.14929,3.80159c-0.77743,1.40607 -2.49433,3.75329 -2.49433,3.75329l-1.11736,-3.53286c0,0 -3.72176,12.54546 -20.37254,17.20768c-15.7355,4.28403 -28.0108,-3.01311 -28.0108,-3.01311l0.62582,2.58263c0,0 -4.65614,-2.08131 -8.6347,-7.60847c-4.74196,-6.58773 -6.51283,-10.86158 -6.51283,-10.86158c0,0 -1.71949,2.47416 -4.7214,4.25326c-3.76156,2.22932 -6.57736,2.26128 -6.57736,2.26128c0,0 2.71121,-3.61244 4.03926,-6.13325c1.18292,-2.24535 1.60433,-3.97946 1.60433,-3.97946c0,0 -1.72333,1.62744 -3.61676,2.73003c-1.97558,1.15044 -3.724,1.62949 -3.724,1.62949c0,0 3.37992,-6.22094 3.73347,-12.39931c0.33379,-5.83336 -1.02657,-11.10935 -1.02657,-11.10935c0,0 -1.12428,1.01382 -2.97821,1.68886c-1.17515,0.4279 -2.29785,0.61353 -2.29785,0.61353z" fill="#000000" stroke="none" stroke-width="1.5"/><path d="M207.20586,135.79159c-2.58025,-6.84592 -4.44325,-16.57245 -4.44325,-16.57245c0,0 3.26492,-0.98699 12.49332,-6.88552c7.08983,-4.53165 17.10341,-14.82138 17.10341,-14.82138c0,0 -1.24032,3.48677 -2.0348,5.23123c-0.84461,1.85456 -2.56831,5.49253 -2.56831,5.49253c0,0 7.06633,-3.77918 12.78358,-8.61947c7.24903,-5.77667 8.49428,-8.75721 11.16505,-8.00925c3.15216,0.88277 7.42907,21.98425 8.67358,27.41c1.16973,5.56324 0.20519,9.82953 0.45154,12.90287c0.24636,3.07336 1.31111,6.0089 2.33602,16.02132c0.63961,6.24844 -1.51901,9.72948 -5.55272,16.86699c-4.03372,7.13751 -6.12731,11.40352 -9.91212,12.56972c-3.64236,1.12231 -10.00071,-2.4174 -16.27098,-6.10295c-6.67682,-3.92454 -10.88035,-5.67832 -13.5386,-11.84524c-2.39403,-5.55395 -3.4983,-9.3029 -5.31407,-14.33642c-1.32711,-3.67888 -3.96248,-5.5633 -5.37159,-9.30199z" fill="#000000" stroke="#000000" stroke-width="1.5"/><path d="M211.40543,134.07735c-1.2907,-4.71907 2.16573,-9.92839 7.34893,-11.34605c5.1832,-1.41765 9.85208,1.57368 11.14279,6.29276c1.2907,4.71907 -1.51838,9.59371 -6.70162,11.01137c-5.1832,1.41765 -10.49942,-1.23899 -11.79011,-5.95808z" fill="#ffffff" stroke="#000000" stroke-width="1.4"/><path d="M237.39713,126.56255c-1.16228,-4.75234 1.81677,-9.74668 6.92533,-11.22384c5.10856,-1.47715 10.01121,1.23376 11.37019,5.93363c1.35898,4.69987 -1.21323,9.79345 -6.77854,11.47642c-5.29364,1.60082 -10.30314,-1.22312 -11.51697,-6.18621z" fill="#ffffff" stroke="#000000" stroke-width="1.4"/><g><path d="M264.24312,140.49587c1.09305,3.78017 -5.99858,24.89599 -19.09654,28.68331c-13.09796,3.78731 -27.73421,-14.68921 -28.82726,-18.46937c-1.09305,-3.78017 9.31734,3.68178 22.41531,-0.10554c13.09796,-3.78731 24.41545,-13.88856 25.5085,-10.10838z" fill="#000000" stroke="#000000" stroke-width="0"/><path d="M259.29514,141.32031c0.02975,0.10289 -1.33058,3.99025 -3.04108,6.53936c-1.21042,1.80388 -2.64169,2.10625 -3.67844,3.60248c-2.60692,3.76231 -3.46862,4.79518 -4.29656,5.47128c-1.7879,1.46 -3.97208,1.86296 -5.47047,2.29622c-8.05773,2.32992 -16.46674,-3.62246 -17.04204,-5.61202c-0.57529,-1.98957 6.03296,-2.26493 14.09069,-4.59485c8.05773,-2.32992 18.86261,-9.69203 19.43791,-7.70246z" fill="url(#color-3)" stroke="#000000" stroke-width="0.5"/><path d="M251.40745,139.42503c4.94204,-2.03515 13.2572,-2.21362 13.27157,-2.12766c0.01516,0.09073 -1.73385,3.88231 -5.17195,6.69757c-4.56399,3.73718 -11.30277,6.81138 -13.01628,7.54747c-2.51768,1.08156 -9.98352,3.71612 -14.49727,3.58127c-2.96893,-0.0887 -6.18037,-1.21427 -9.17242,-1.96822c-5.14102,-1.29545 -10.50882,-5.63365 -10.5235,-5.66888c-0.0078,-0.01871 3.55694,0.14912 6.32104,0.48643c2.55192,0.31141 5.37488,-0.84506 8.52415,-0.45544c5.59773,0.69253 11.25173,2.89886 11.30024,2.8897c0,0 0.65184,-2.00946 1.69103,-2.6798c0.52327,-0.33754 8.97834,-7.35735 11.27338,-8.30246z" fill="url(#color-4)" stroke="#000000" stroke-width="1.4"/><path d="M247.21971,169.53491c-1.15796,0.33482 -2.64401,0.58741 -4.2721,0.73311c-5.15734,0.46154 -11.73974,-0.14943 -13.83152,-2.61569c-0.29367,-0.34624 1.6039,-5.15964 2.88926,-8.08321c0.07261,-0.16514 3.93686,1.89617 7.03867,2.55177c1.52292,0.32188 2.85987,-0.38572 3.4783,-0.51728c4.56757,-0.9717 7.35026,-6.03003 8.82173,-6.45552c4.77894,-1.38184 6.4725,2.59911 4.71097,6.8715c-1.30635,3.1684 -5.29126,6.49054 -8.83534,7.51532z" fill="url(#color-5)" stroke="none" stroke-width="0"/><path d="M264.74691,137.41107c0.02599,0.06158 0.40189,4.96152 0.68828,11.36321c0.10676,2.38682 -1.40662,6.76013 -4.70442,11.0306c-3.65007,4.72661 -7.28898,11.33622 -11.72878,12.76183c-8.64322,2.77533 -15.7856,-1.06965 -17.0674,-2.02911c-1.34674,-1.00808 -6.54681,-2.51038 -9.774,-7.53234c-4.68732,-7.29411 -10.02814,-15.31639 -10.03021,-15.3498c-0.00307,-0.05001 6.66757,4.44887 12.00858,9.12957c4.18515,3.66775 7.16355,7.66048 8.08017,8.23987c0.46175,0.29186 3.55114,1.60227 6.37729,1.39222c2.2824,-0.16963 10.88601,-0.77399 15.56386,-6.0336c7.33805,-8.25062 10.52905,-23.10874 10.58663,-22.97247z" fill="#000000" stroke="#000000" stroke-width="1.9"/></g><path d="M234.60002,128.08416c2.69239,9.31129 -1.32538,18.65244 -8.97395,20.86405c-7.64855,2.21161 -16.03155,-3.54382 -18.72394,-12.85513c-2.69239,-9.31129 1.32538,-18.65244 8.97395,-20.86405c7.64855,-2.21161 16.03155,3.54382 18.72394,12.85513z" fill="url(#color-6)" stroke="none" stroke-width="0"/><path d="M261.07586,120.41366c2.69239,9.31131 -1.32537,18.65245 -8.97395,20.86404c-7.64855,2.21161 -16.03155,-3.54382 -18.72394,-12.85513c-2.69239,-9.31129 1.32538,-18.65244 8.97395,-20.86405c7.64855,-2.21161 16.03155,3.54384 18.72393,12.85512z" fill="url(#color-7)" stroke="none" stroke-width="0"/></g></g></g></svg>