<svg version="1.1" xmlns="http://www.w3.org/2000/svg" xmlns:xlink="http://www.w3.org/1999/xlink" width="35.67311" height="35.67311" viewBox="0,0,35.67311,35.67311"><g transform="translate(-222.16346,-162.16346)"><g data-paper-data="{&quot;isPaintingLayer&quot;:true}" stroke="#000000" stroke-miterlimit="10" stroke-dasharray="" stroke-dashoffset="0" style="mix-blend-mode: normal"><path d="M229.98313,162.91346h20.03378c3.9166,0 7.06966,3.15307 7.06966,7.06966v20.03379c0,3.91659 -3.15306,7.06966 -7.06966,7.06966h-20.03378c-3.91659,0 -7.06967,-3.15307 -7.06967,-7.06966v-20.03379c0,-3.91659 3.15308,-7.06966 7.06967,-7.06966z" fill="#ffffff" fill-rule="evenodd" stroke-width="1.5" stroke-linecap="round" stroke-linejoin="round"/><g fill="#000000" fill-rule="nonzero" stroke-width="0" stroke-linecap="butt" stroke-linejoin="miter"><path d="M232.60384,183.32695c-1.35418,-1.74715 -2.75756,-4.38989 -2.75756,-4.38989c0,0 0.85491,-0.5755 2.99475,-3.09981c1.64395,-1.93934 3.61978,-5.80146 3.61978,-5.80146c0,0 -0.04789,1.11715 -0.12207,1.69155c-0.07886,0.61065 -0.25288,1.81448 -0.25288,1.81448c0,0 1.70412,-1.71997 2.92428,-3.6263c1.57914,-2.31301 1.6735,-3.28442 2.51123,-3.30609c0.98872,-0.02557 4.10124,5.68686 4.94336,7.1428c0.83276,1.50229 0.93386,2.81999 1.27845,3.68549c0.3446,0.8655 0.91324,1.61839 2.10006,4.41825c0.74066,1.74731 0.4271,2.94453 -0.10254,5.36437c-0.52964,2.41985 -0.75459,3.83793 -1.74367,4.51144c-0.95186,0.64816 -3.10277,0.19183 -5.24123,-0.31445c-2.27711,-0.53911 -3.64692,-0.67148 -4.9632,-2.21564c-1.18545,-1.39068 -1.83788,-2.37491 -2.81005,-3.66677c-0.71054,-0.94418 -1.63916,-1.25382 -2.37871,-2.20797z"/><path d="M235.00017,192.79615l-0.08844,-0.0527c-0.82186,-0.9969 -1.77003,-2.10145 -2.44202,-3.20696c-1.55289,-2.55469 -1.90205,-5.64408 -2.97238,-8.3231c-1.26733,-3.38803 -1.06637,-7.30418 0.64253,-9.56477c1.03718,-1.37201 2.46479,-2.46303 3.69931,-3.61595c1.13108,-1.05631 2.27112,-2.97634 4.07329,-2.94397c2.8755,0.05165 5.74156,3.29661 7.89099,5.72579c1.4482,1.9643 2.93951,3.85912 4.42788,5.78845c0.36734,0.47617 1.01786,0.90637 1.07808,1.44713c0.1659,1.48986 -1.67222,1.67743 -2.47561,2.13729c-2.45173,1.40336 -5.3859,0.89517 -8.42772,-1.25142c-0.01476,-0.01042 -0.03025,-0.02133 -0.04641,-0.03271c0.04631,1.22835 0.08731,2.47523 -0.08823,3.57641c-0.40247,2.52465 -1.76891,4.59495 -2.4634,6.94974c-0.52854,1.79209 -0.86327,3.68157 -1.414,5.46658c0,0 0.87925,0.13697 0.03483,-0.39661c-0.84442,-0.53359 -1.72367,-0.67056 -1.72367,-0.67056c0.10535,-0.34092 0.20271,-0.68558 0.29498,-1.03262z"/></g></g></g></svg>