<svg version="1.1" xmlns="http://www.w3.org/2000/svg" xmlns:xlink="http://www.w3.org/1999/xlink" width="107.83714" height="252.95512" viewBox="0,0,107.83714,252.95512"><defs><linearGradient x1="242.21516" y1="140.70549" x2="242.21516" y2="229.05869" gradientUnits="userSpaceOnUse" id="color-1"><stop offset="0" stop-color="#3d2865"/><stop offset="1" stop-color="#9966ff"/></linearGradient><linearGradient x1="204.11445" y1="124.16194" x2="253.96503" y2="124.16194" gradientUnits="userSpaceOnUse" id="color-2"><stop offset="0" stop-color="#ff0000"/><stop offset="1" stop-color="#a50000"/></linearGradient><linearGradient x1="242.64763" y1="227.86668" x2="242.64763" y2="302.98283" gradientUnits="userSpaceOnUse" id="color-3"><stop offset="0" stop-color="#6241a3"/><stop offset="1" stop-color="#3d2865"/></linearGradient><linearGradient x1="207.56738" y1="152.68879" x2="207.56738" y2="305.6162" gradientUnits="userSpaceOnUse" id="color-4"><stop offset="0" stop-color="#3d2865"/><stop offset="1" stop-color="#000000"/></linearGradient><linearGradient x1="276.22559" y1="153.11347" x2="276.22559" y2="305.04087" gradientUnits="userSpaceOnUse" id="color-5"><stop offset="0" stop-color="#3d2865"/><stop offset="1" stop-color="#000000"/></linearGradient></defs><g transform="translate(-179.45283,-52.66108)"><g data-paper-data="{&quot;isPaintingLayer&quot;:true}" fill-rule="nonzero" stroke-linejoin="miter" stroke-miterlimit="10" stroke-dasharray="" stroke-dashoffset="0" style="mix-blend-mode: normal"><path d="M201.76051,303.27369c0,0 -0.63536,-94.38387 -0.79335,-118.01201c-0.05451,-8.15261 8.18688,-36.76129 40.20201,-36.9211c31.60235,-0.15775 39.85672,29.48704 39.84884,36.89673c-0.07659,46.24274 0.65429,117.98648 0.65429,117.98648l-10.49667,0.09614l-0.15882,-114.84311c0,0 0.07549,-3.0993 -2.81625,-3.15415c-3.43441,-0.06514 -2.94538,3.11562 -2.94538,3.11562l0.20548,114.86995l-48.21366,0.07222l-0.30539,-115.23309c0,0 0.27949,-2.919 -2.8856,-2.93443c-3.11083,-0.01515 -2.81569,2.90899 -2.81569,2.90899l0.35311,115.0668z" fill="#ffffff" stroke="#000000" stroke-width="2" stroke-linecap="butt"/><path d="M256.35758,199.21587c-0.57113,0 -1.03411,-0.46299 -1.03411,-1.03411c0,-0.57113 0.46299,-1.03413 1.03411,-1.03413c0.57113,0 1.03411,0.463 1.03411,1.03413c0,0.57113 -0.46299,1.03411 -1.03411,1.03411z" fill="#000000" stroke="none" stroke-width="1.5" stroke-linecap="butt"/><path d="M251.09781,203.45147c-4.4635,-0.31439 -6.55245,-1.79392 -6.16985,-2.58011c0.11788,-0.24224 2.84645,1.06355 6.97038,1.3048c6.40897,0.37493 8.51033,-0.63173 8.51033,-0.63173v1.34616c0,0 -2.4135,1.04672 -9.31086,0.56089z" fill="#000000" stroke="#000000" stroke-width="0" stroke-linecap="butt"/><path d="M223.28503,198.18176c0,-0.57113 0.46299,-1.03413 1.03411,-1.03413c0.57113,0 1.03413,0.463 1.03413,1.03413c0,0.57113 -0.463,1.03411 -1.03413,1.03411c-0.57113,0 -1.03411,-0.46299 -1.03411,-1.03411z" fill="#000000" stroke="none" stroke-width="1.5" stroke-linecap="butt"/><path d="M229.57906,203.45147c-6.89736,0.48585 -9.31086,-0.56089 -9.31086,-0.56089v-1.34616c0,0 2.10136,1.00666 8.51033,0.63173c4.12393,-0.24126 6.85251,-1.54704 6.97039,-1.3048c0.3826,0.78618 -1.70634,2.26571 -6.16985,2.58011z" fill="#000000" stroke="#000000" stroke-width="0" stroke-linecap="butt"/><path d="M240.85951,260.0032c-0.81895,0 -1.48284,-0.66389 -1.48284,-1.48284c0,-0.81895 0.66389,-1.48284 1.48284,-1.48284c0.81895,0 1.48284,0.66389 1.48284,1.48284c0,0.81895 -0.66389,1.48284 -1.48284,1.48284z" data-paper-data="{&quot;index&quot;:null}" fill="#000000" stroke="none" stroke-width="1.5" stroke-linecap="butt"/><path d="M216.79622,303.2881v-119.20147c0,0 0.75721,-9.73105 0.75721,-14.63937c0,-4.498 -0.75721,-13.6872 -0.75721,-13.6872c0,0 2.67319,-2.35297 4.6557,-3.74807c1.98251,-1.3951 5.17197,-2.80371 5.17197,-2.80371c0,0 -0.6016,40.10902 14.55952,40.03867c15.43477,-0.07162 13.83154,-40.03867 13.83154,-40.03867c0,0 3.91276,1.51959 6.16585,2.94655c2.25309,1.42695 4.75379,3.60523 4.75379,3.60523c0,0 -0.75721,9.42463 -0.75721,14.19201c0,4.84193 0.75721,14.63937 0.75721,14.63937v118.69667z" fill="#ffffff" stroke="#000000" stroke-width="2" stroke-linecap="butt"/><path d="M182.87531,101.03948c0,0 6.16329,-5.92187 6.29161,-6.78761c0.33654,-2.27063 -0.16776,-40.17317 35.96775,-41.57382c44.63633,-0.91362 39.01489,35.34872 41.53088,42.1903c3.44981,9.38084 6.15664,17.40016 6.15664,17.40016c0,0 -2.76715,-2.05351 -4.0797,-3.13397c-1.2242,-1.00773 -3.80143,-3.14585 -3.80143,-3.14585c0,0 3.09111,10.3481 1.31092,20.69498c-1.5623,9.48098 -7.29782,17.22543 -7.29782,17.22543l-1.15522,-2.34735c0,0 -1.02266,2.19794 -2.16005,3.33274c-1.1374,1.13479 -3.43873,2.91273 -3.43873,2.91273l-0.09205,-3.70421c0,0 -7.0601,11.01795 -24.35066,10.87154c-16.30625,-0.25547 -26.07151,-10.6752 -26.07151,-10.6752l-0.1162,2.65484c0,0 -3.89477,-3.29276 -6.18145,-9.70754c-2.72545,-7.64567 -3.23946,-12.24324 -3.23946,-12.24324c0,0 -2.33908,1.89916 -5.71704,2.7744c-4.23278,1.09673 -6.94665,0.34526 -6.94665,0.34526c0,0 3.60795,-2.71717 5.58396,-4.76989c1.76007,-1.8284 2.64658,-3.37722 2.64658,-3.37722c0,0 -2.10758,1.0847 -4.23277,1.61795c-2.21739,0.5564 -4.03008,0.53093 -4.03008,0.53093c0,0 4.97492,-5.03728 7.03074,-10.87429c1.94102,-5.51108 2.09972,-10.95731 2.09972,-10.95731c0,0 -1.36165,0.66163 -3.33013,0.79513c-1.24776,0.08463 -2.37785,-0.0489 -2.37785,-0.0489z" fill="#000000" stroke="none" stroke-width="1.5" stroke-linecap="butt"/><path d="M199.66119,112.3611c-0.57709,-7.29323 0.335,-17.15448 0.335,-17.15448c0,0 3.41059,-0.04124 13.91429,-3.14424c8.0696,-2.38394 20.54731,-9.48722 20.54731,-9.48722c0,0 -2.16005,3.00503 -3.40781,4.46015c-1.32651,1.54696 -3.99292,4.56297 -3.99292,4.56297c0,0 7.838,-1.66761 14.67476,-4.72931c8.56837,-3.53575 10.59252,-6.05309 12.95042,-4.5927c2.7829,1.72362 1.03006,23.1827 0.71846,28.74062c-0.42163,5.66922 -2.53327,9.49969 -3.15031,12.52053c-0.61704,3.02084 -0.4096,6.13662 -2.20622,16.0397c-1.12121,6.18021 -4.16183,8.92466 -10.01942,14.66081c-5.85759,5.73616 -9.05378,9.25275 -13.01359,9.32173c-3.81077,0.06639 -8.93565,-5.1002 -13.93542,-10.38244c-5.32393,-5.62474 -8.87489,-8.47713 -9.71551,-15.13975c-0.75707,-6.00039 -0.77653,-9.90853 -1.12266,-15.24835c-0.25298,-3.90273 -2.26119,-6.44504 -2.57636,-10.42801z" fill="#ffffff" stroke="#000000" stroke-width="1.5" stroke-linecap="butt"/><path d="M247.7312,97.24074c0,0 1.52429,0.31807 4.2558,1.11029c2.49492,0.72361 4.44935,1.74403 4.44935,1.74403l0.1951,1.17035c0,0 -7.24963,-3.12997 -15.1158,-2.4706c-6.2896,0.52724 -9.96319,2.8124 -9.96319,2.8124l0.04575,-4.17683c0,0 3.12748,-1.70421 7.86366,-1.85557c4.90428,-0.15672 8.09084,0.59125 8.09084,0.59125z" data-paper-data="{&quot;index&quot;:null}" fill="#000000" stroke="none" stroke-width="1.5" stroke-linecap="butt"/><path d="M234.96707,140.22829c0.5704,0.21186 3.08357,1.39942 6.02385,2.59586c2.9637,1.20597 7.21362,2.29294 7.19412,2.4605c-0.02476,0.21265 -10.43477,0.22694 -13.67937,0.63224c-2.71902,0.33964 -6.68867,0.70564 -6.68867,0.70564c0,0 -7.10401,-1.16169 -13.27235,-2.44521c-4.94371,-1.02869 -10.39929,-1.66108 -10.40995,-1.75461c-0.01439,-0.12613 3.86835,-0.71071 6.82417,-1.39467c1.14585,-0.49661 5.43971,-1.48513 5.43971,-1.48513c0,0 4.95585,-0.27766 7.60826,0.579c2.84203,0.91791 2.83546,2.44556 3.0831,2.46906c0,0 1.18436,-1.74932 2.36886,-2.10461c1.18451,-0.35528 5.08219,-0.41633 5.50828,-0.25808z" fill="#ffffff" stroke="#000000" stroke-width="1.4" stroke-linecap="butt"/><path d="M216.31909,144.78185c5.09114,1.02674 11.91756,2.80736 11.91756,2.80736c0,0 5.78976,-1.55585 8.44678,-1.8344c2.05992,-0.21596 11.216,-0.70654 11.26026,-0.33377c0.04328,0.36447 -9.03119,12.90033 -21.14808,12.44714c-13.76954,-0.43578 -22.86459,-15.13559 -22.82675,-15.30472c0.03784,-0.16913 7.2591,1.19165 12.35024,2.2184z" fill="#ffffff" stroke="#000000" stroke-width="1.9" stroke-linecap="butt"/><path d="M227.29335,141.7882c-1.03376,0 -3.5381,-3.26042 -3.7867,-5.3637c-0.22243,-1.88186 1.31512,-3.82799 3.7867,-3.82799c2.47159,0 4.2021,0.49077 4.02999,4.18853c-0.14607,3.13818 -1.55841,5.00317 -4.02999,5.00317z" fill="#ffffff" stroke="#000000" stroke-width="1.15" stroke-linecap="butt"/><path d="M230.89545,111.69448c0,0 0.1026,3.96976 0.00576,7.12662c-0.19174,6.25113 -1.08147,27.7607 -1.08147,27.7607l-2.98167,0.00864c0,0 -0.80294,-4.17274 -1.12322,-9.49979c-0.43353,-7.21063 -0.4495,-16.29321 -0.76344,-19.63229c-0.29758,-3.16513 -0.89593,-5.71453 -0.89593,-5.71453" fill="#ffffff" stroke="#000000" stroke-width="1.3" stroke-linecap="round"/><path d="M201.36086,122.48432c0,0 -4.93211,-3.51705 -6.16417,-8.97502c-1.29636,-5.74284 -1.46118,-9.7328 0.48013,-9.99193c1.94131,-0.25915 2.70321,2.37692 3.73262,8.35569c1.0294,5.97877 1.95143,10.61127 1.95143,10.61127z" data-paper-data="{&quot;index&quot;:null}" fill="#ffffff" stroke="#000000" stroke-width="1" stroke-linecap="butt"/><path d="M201.15824,118.53676c0,0 -3.56385,-2.92338 -4.31816,-8.45061c-0.42079,-3.08327 2.15675,-2.28016 2.15675,-2.28016" fill="none" stroke="#000000" stroke-width="0.25" stroke-linecap="round"/><path d="M204.17167,111.88086c0.07093,-4.89188 4.83834,-8.93609 10.21137,-8.8582c5.37302,0.0779 9.02724,4.2484 8.95632,9.14029c-0.07093,4.89188 -4.12352,8.79439 -9.49655,8.7165c-5.37302,-0.0779 -9.74207,-4.1067 -9.67114,-8.99859z" fill="#ffffff" stroke="#000000" stroke-width="1.4" stroke-linecap="butt"/><path d="M205.16387,111.56812c0.03999,-2.75843 2.30855,-4.96213 5.06696,-4.92214c2.75843,0.03999 4.96213,2.30855 4.92214,5.06696c-0.03999,2.75843 -2.30854,4.96213 -5.06696,4.92214c-2.75843,-0.03999 -4.96213,-2.30855 -4.92214,-5.06696z" fill="#000000" stroke="none" stroke-width="1.5" stroke-linecap="butt"/><path d="M231.22794,111.88159c0.20353,-4.88817 4.45264,-8.85847 9.77048,-8.85847c5.31783,0 9.27453,3.96607 9.27453,8.85847c0,4.8924 -3.88585,9.07104 -9.69964,9.14188c-5.52997,0.06739 -9.55792,-4.03692 -9.34537,-9.14188z" fill="#ffffff" stroke="#000000" stroke-width="1.4" stroke-linecap="butt"/><path d="M235.83069,111.96714c0,-2.81845 2.2848,-5.10325 5.10325,-5.10325c2.81845,0 5.10325,2.2848 5.10325,5.10325c0,2.81845 -2.28479,5.10325 -5.10325,5.10325c-2.81845,0 -5.10325,-2.2848 -5.10325,-5.10325z" fill="#000000" stroke="none" stroke-width="1.5" stroke-linecap="butt"/><path d="M223.97507,111.8729c0,0 -0.0992,9.0148 -10.6359,8.78294c-9.47028,-0.20329 -9.51829,-9.44492 -9.51829,-9.44492c0,0 6.78714,5.03942 10.15985,5.1502c3.34513,0.10987 9.99435,-4.48822 9.99435,-4.48822z" fill="#ffffff" stroke="#000000" stroke-width="1.15" stroke-linecap="butt"/><path d="M230.85031,111.47958c0,0 -0.24686,-9.4582 11.19813,-9.1032c9.71427,0.33347 9.54677,9.65229 9.54677,9.65229z" fill="#ffffff" stroke="#000000" stroke-width="1.15" stroke-linecap="butt"/><path d="M207.63309,98.62775c0,0 3.36963,-1.819 8.03244,-2.28178c5.16698,-0.51283 7.76823,-0.06628 7.76823,-0.06628l0.29508,4.13747c0,0 -3.83554,-0.68065 -8.01795,-0.52113c-5.59346,0.21333 -6.64488,1.43293 -10.89774,1.89119c-3.64408,0.39266 -6.73723,0.15884 -6.73723,0.15884l-0.02589,-1.23155c0,0 3.59517,0.07398 5.23371,-0.06836c1.35239,-0.11749 3.9757,-0.93808 3.9757,-0.93808z" fill="#000000" stroke="none" stroke-width="1.5" stroke-linecap="butt"/><path d="M255.59398,111.87305c1.0294,-5.97877 1.7913,-8.61483 3.73262,-8.35569c1.94131,0.25914 1.77649,4.24909 0.48013,9.99193c-1.23206,5.45797 -6.16417,8.97502 -6.16417,8.97502c0,0 0.92203,-4.6325 1.95143,-10.61127z" data-paper-data="{&quot;index&quot;:null}" fill="#ffffff" stroke="#000000" stroke-width="1" stroke-linecap="butt"/><path d="M256.00655,107.80599c0,0 2.57754,-0.80312 2.15675,2.28016c-0.75431,5.52723 -4.31816,8.45061 -4.31816,8.45061" data-paper-data="{&quot;index&quot;:null}" fill="none" stroke="#000000" stroke-width="0.25" stroke-linecap="round"/><path d="" data-paper-data="{&quot;index&quot;:null}" fill="#000000" stroke="none" stroke-width="1.5" stroke-linecap="butt"/><path d="" fill="#ffffff" stroke="none" stroke-width="0.5" stroke-linecap="butt"/><path d="" fill="#000000" stroke="none" stroke-width="0.5" stroke-linecap="butt"/><path d="" fill="#ff0000" stroke="none" stroke-width="0.5" stroke-linecap="butt"/><path d="" fill="#000000" stroke="none" stroke-width="0.5" stroke-linecap="butt"/><path d="" fill="#000000" stroke="none" stroke-width="0.5" stroke-linecap="butt"/><path d="" fill="#000000" stroke="none" stroke-width="0.5" stroke-linecap="butt"/><path d="" fill="#000000" stroke="none" stroke-width="0.5" stroke-linecap="butt"/><path d="" fill="#000000" stroke="none" stroke-width="0.5" stroke-linecap="butt"/><path d="M207.4939,229.05868v-64.10718c0,0 7.14127,-8.30475 16.34918,-14.84925c7.71631,-5.48434 17.1285,-9.39676 22.64058,-9.39676c4.4802,0 10.80674,3.49985 16.23186,8.29997c7.82646,6.9248 14.22091,15.94605 14.22091,15.94605v64.10718z" fill="url(#color-1)" stroke="none" stroke-width="0" stroke-linecap="butt"/><path d="" fill="#000000" stroke="none" stroke-width="0.5" stroke-linecap="butt"/><path d="M263.19786,91.98897c4.54317,8.90286 8.1864,16.54245 8.1864,16.54245c0,0 -2.99215,-1.7091 -4.42411,-2.62544c-1.33557,-0.85465 -4.14925,-2.6704 -4.14925,-2.6704c0,0 4.3023,9.90598 3.76787,20.39127c-0.42129,9.5996 -5.19299,17.97237 -5.19299,17.97237l-1.42673,-2.19295c0,0 -0.75343,2.30415 -1.74748,3.56641c-0.99406,1.26225 -3.06711,3.30178 -3.06711,3.30178l-0.53284,-3.66684c0,0 -5.69674,11.78081 -22.88152,13.69602c-16.22049,1.68963 -27.15791,-7.49209 -27.15791,-7.49209l0.20101,2.64977c0,0 -4.1629,-2.74158 -7.19006,-8.69456c2.03056,-2.12889 4.07566,-4.2546 6.21356,-6.32212c0.73435,-0.71017 1.51547,-1.37068 2.29061,-2.03609c0.2879,-0.24715 4.25519,1.79813 5.73847,1.4862c0.49327,-0.10373 6.41045,-2.86543 6.71705,-3.0894c3.45018,-2.52045 2.15273,-8.22051 4.00419,-11.42728c1.32477,-2.29452 2.76566,-2.75218 4.64324,-4.16036c4.03374,-3.0253 6.66927,-10.22337 5.46589,-15.0369c-0.51772,-2.07086 -2.20772,-3.31224 -3.30695,-5.07471c-0.22896,-0.36711 4.14261,-3.54049 4.55089,-3.79365c1.36256,-0.84486 11.14477,-6.98441 11.9112,-7.40524c1.70271,-0.93493 6.04872,-2.63446 9.48535,-4.74096c1.11245,-0.54029 2.10969,-1.28076 2.94488,-2.17457c0.42706,-0.40382 0.79226,-0.81634 1.07717,-1.23571c0.02582,-0.03802 0.0513,-0.07619 0.07643,-0.11452c2.0701,6.36487 2.66845,12.12474 3.80275,14.34754z" fill="#000000" stroke="none" stroke-width="1.5" stroke-linecap="butt"/><path d="M253.93773,109.3649c0.257,5.67906 -1.38311,9.73389 -1.63574,12.80673c-0.25264,3.07285 0.32464,6.1417 -0.27899,16.18832c-0.37671,6.26979 -3.06859,9.35704 -8.20084,15.75038c-5.13225,6.39335 -7.88657,10.26578 -11.80994,10.80617c-3.7757,0.52006 -9.47978,-3.99896 -15.07342,-8.64772c-5.95631,-4.95019 -9.82189,-7.35907 -11.45052,-13.87403c-0.58164,-2.32671 -1.00891,-4.34057 -1.37389,-6.25187c0.63989,-0.59741 1.30858,-1.16407 1.97288,-1.73434c0.2879,-0.24715 4.25519,1.79813 5.73847,1.4862c0.34308,-0.07215 3.30998,-1.43008 5.18804,-2.32568c0.82216,-0.39207 1.43565,-0.69553 1.52901,-0.76372c3.45018,-2.52045 2.15273,-8.22051 4.00419,-11.42728c1.32477,-2.29452 2.76566,-2.75218 4.64324,-4.16036c4.03374,-3.0253 6.66927,-10.22337 5.46589,-15.0369c-0.51772,-2.07086 -2.20772,-3.31224 -3.30695,-5.07471c-0.22896,-0.36711 -4.47814,-3.54049 -4.06986,-3.79365c1.36256,-0.84486 19.76552,-6.98441 20.53195,-7.40524c1.05741,-0.58061 3.13423,-1.45609 5.3796,-2.54079c1.85336,6.0894 2.45681,21.43307 2.74688,25.9985z" fill="url(#color-2)" stroke="#000000" stroke-width="1.5" stroke-linecap="butt"/><path d="M244.68119,96.60092c0,0 1.55133,0.13415 4.35779,0.5952c2.56338,0.42113 4.62548,1.20136 4.62548,1.20136l0.33319,1.13876c0,0 -7.57098,-2.2437 -15.3025,-0.65159c-2.71339,0.55876 -4.88602,1.39372 -6.46986,2.15476c-0.5767,-1.13508 -1.48253,-2.0454 -2.2722,-3.0721c1.27829,-0.66528 3.46878,-1.60005 6.31919,-2.03495c4.85065,-0.74007 8.10364,-0.37717 8.10364,-0.37717z" data-paper-data="{&quot;index&quot;:null}" fill="#000000" stroke="none" stroke-width="1.5" stroke-linecap="butt"/><path d="M229.69786,143.26654c-1.0264,0.1232 -3.90144,-2.81554 -4.39892,-4.8742c-0.44511,-1.84194 0.84955,-3.95744 3.30352,-4.25198c2.45398,-0.29455 4.23065,-0.01351 4.50044,3.67841c0.22896,3.13323 -0.95106,5.15324 -3.40502,5.44779z" fill="#ff0000" stroke="#000000" stroke-width="1.15" stroke-linecap="butt"/><path d="" fill="#ffffff" stroke="#000000" stroke-width="1.4" stroke-linecap="butt"/><path d="" fill="#000000" stroke="none" stroke-width="1.5" stroke-linecap="butt"/><path d="M238.6855,103.14446c5.27993,-0.63375 9.68108,2.83253 10.26413,7.69007c0.58304,4.85753 -2.77713,9.46948 -8.54105,10.23266c-5.1831,0.68629 -9.47764,-2.48929 -10.26702,-7.14225c1.52319,-2.38062 2.54212,-5.34074 2.76274,-8.09033c1.50003,-1.4279 3.49705,-2.41598 5.7812,-2.69015z" fill="#ffffff" stroke="#000000" stroke-width="1.4" stroke-linecap="butt"/><path d="M233.95382,110.6406c-0.33588,-2.79837 1.66035,-5.33917 4.45871,-5.67505c2.79836,-0.33589 5.33917,1.66035 5.67505,4.45871c0.33588,2.79837 -1.66033,5.33916 -4.4587,5.67505c-2.79836,0.33589 -5.33917,-1.66034 -5.67506,-4.45871z" fill="#000000" stroke="none" stroke-width="1.5" stroke-linecap="butt"/><path d="" fill="#d0d0d0" stroke="#000000" stroke-width="1.15" stroke-linecap="butt"/><path d="M239.65094,102.37721c9.68478,-0.82659 10.62903,8.44578 10.62903,8.44578l-19.38936,1.80832c1.29853,-2.48235 2.07419,-5.38052 2.05843,-7.97307c1.49415,-1.13424 3.63655,-2.00919 6.7019,-2.28102z" fill="#ff0000" stroke="#000000" stroke-width="1.15" stroke-linecap="butt"/><path d="M254.23174,110.19192c0.30955,-6.05884 0.75187,-8.76691 2.71024,-8.74097c1.95836,0.02594 2.27021,4.00709 1.66748,9.8635c-0.57283,5.5659 -5.05066,9.64567 -5.05066,9.64567c0,0 0.36339,-4.70936 0.67294,-10.7682z" data-paper-data="{&quot;index&quot;:null}" fill="#ff0000" stroke="#000000" stroke-width="1" stroke-linecap="butt"/><path d="M254.15666,106.10467c0,0 2.46346,-1.10457 2.41312,2.00688c-0.09024,5.57774 -3.2803,8.905 -3.2803,8.905" data-paper-data="{&quot;index&quot;:null}" fill="#ff0000" stroke="#000000" stroke-width="0.25" stroke-linecap="round"/><path d="M207.10498,302.98283v-75.11615h71.0853v75.11615z" fill="url(#color-3)" stroke="none" stroke-width="0" stroke-linecap="butt"/><path d="M196.2131,305.6162v-122.06133c0,0 0.39876,-12.43656 7.55184,-21.93739c4.47226,-3.02807 15.15673,-8.92869 15.15673,-8.92869l-1.46507,152.9274z" fill="url(#color-4)" stroke="none" stroke-width="NaN" stroke-linecap="butt"/><path d="M266.55503,305.04087l-1.39383,-151.9274c0,0 10.57502,5.00561 13.59958,9.29853c1.53301,2.17588 6.10383,5.89954 7.42922,9.63461c2.07642,5.85154 0.57556,11.7311 0.57556,11.7311v121.26316z" data-paper-data="{&quot;index&quot;:null}" fill="url(#color-5)" stroke="none" stroke-width="NaN" stroke-linecap="butt"/><path d="M253.45009,256.55104l-22.41394,-59.91419" fill="none" stroke="#000000" stroke-width="3.5" stroke-linecap="round"/><path d="M224.57059,223.36116l25.00017,-12.06905" fill="none" stroke="#000000" stroke-width="3.5" stroke-linecap="round"/><path d="M233.19134,244.48199l24.13809,-10.77593" fill="none" stroke="#000000" stroke-width="3.5" stroke-linecap="round"/><g><path d="M237.42772,147.24608c0.57317,3.51293 -4.72103,7.30033 -11.82496,8.45942c-7.10392,1.15909 -13.32743,-0.74908 -13.9006,-4.262c-0.57317,-3.51293 4.72103,-7.30034 11.82495,-8.45943c7.10392,-1.15909 13.32743,0.74908 13.90061,4.26201z" fill="#ffffff" stroke="none" stroke-width="NaN" stroke-linecap="butt"/><path d="M241.73757,146.86621c0,0 -6.2863,2.19176 -12.8799,2.93775c-5.064,0.57293 -16.49634,-1.06104 -16.49634,-1.06104" fill="none" stroke="#000000" stroke-width="0.5" stroke-linecap="round"/><path d="M233.6559,141.40542c1.48006,-0.87591 2.67849,-1.21827 4.0827,-1.10541c2.17325,0.17468 9.47725,4.22924 9.47725,4.22924c0,0 -6.91154,1.22864 -9.87163,2.12137c-0.9663,0.29143 -4.15058,1.00978 -6.80957,0.98988c-4.16695,-0.03117 -8.29979,-0.94986 -10.20609,-1.07573c-3.12274,-0.2062 -4.12133,1.56265 -6.03333,1.71624c-2.55121,0.20494 -4.73625,-0.88593 -4.73625,-0.88593c0,0 1.79145,-1.98593 2.67336,-3.43278c0.94305,-1.54715 1.69877,-3.49382 4.45752,-4.01267c3.8185,-0.71817 8.71087,1.74651 11.32158,2.18665c2.79735,0.4716 4.45238,1.74603 4.68706,1.73149c0,0 -0.57406,-1.55601 0.9574,-2.46234z" fill="#ff0000" stroke="#000000" stroke-width="1.25" stroke-linecap="butt"/><path d="M228.31178,162.22083c-17.43577,1.90775 -18.74228,-14.21755 -18.74228,-14.21755c0,0 2.87287,0.98801 4.50951,2.04228c2.21484,1.42673 3.20161,4.59196 6.89262,4.61661c3.39276,0.02265 6.58255,-3.65445 9.76634,-4.96767c1.5376,-0.63422 4.12089,-1.26599 6.58919,-1.93347c2.38551,-0.64508 4.67141,-1.33434 5.36096,-1.47814c2.57592,-0.53717 5.54894,-0.81447 5.54894,-0.81447c0,0 -2.47086,14.84263 -19.92527,16.75241z" fill="#ff0000" stroke="#000000" stroke-width="1.9" stroke-linecap="butt"/></g><path d="M230.54295,120.03318c0.5546,6.22943 2.23458,27.69174 2.23458,27.69174l-2.95939,0.36391c0,0 -1.2945,-4.04731 -2.24734,-9.29823c-1.28976,-7.10758 -2.38801,-16.12352 -3.09764,-19.4014c-0.0171,-0.07899 -0.03435,-0.15756 -0.05172,-0.23568c0.82552,-0.6689 1.7304,-1.15698 2.76886,-1.93582c0.99296,-0.74473 1.9012,-1.74231 2.68831,-2.89494c0.193,1.4246 0.48748,3.72372 0.66435,5.71042z" fill="#ff0000" stroke="#000000" stroke-width="1.3" stroke-linecap="round"/></g></g></svg>