<svg version="1.1" xmlns="http://www.w3.org/2000/svg" xmlns:xlink="http://www.w3.org/1999/xlink" width="168.04052" height="244.5309" viewBox="0,0,168.04052,244.5309"><g transform="translate(-192.05987,-65.1553)"><g data-paper-data="{&quot;isPaintingLayer&quot;:true}" fill-rule="nonzero" stroke-linejoin="miter" stroke-miterlimit="10" stroke-dasharray="" stroke-dashoffset="0" style="mix-blend-mode: normal"><g stroke="none" stroke-width="1" stroke-linecap="butt"><path d="M320.76277,115.8087c2.55338,0.33764 5.06456,0.89685 7.53354,1.67764c2.44787,0.75968 4.52645,1.61433 6.23574,2.56394c6.77385,3.75622 12.64031,8.60976 17.59936,14.56062c6.18299,7.40692 8.76803,15.98503 7.75511,25.73431c-1.16063,11.31086 -4.27323,22.07306 -9.33779,32.28659c-13.99086,28.21384 -31.24202,54.20138 -51.75351,77.96262c-4.00944,4.64251 -8.27212,8.97905 -12.78802,13.0096c-1.66708,1.41386 -3.21811,2.92268 -4.65307,4.52645c-0.8863,1.01291 -1.93086,2.00473 -3.1337,2.97543c-1.62488,1.28724 -3.26031,2.49007 -4.9063,3.6085c-1.7726,1.13953 -3.74567,1.84646 -5.91921,2.12079c-2.21575,0.12661 -4.28378,-0.42205 -6.20409,-1.64598l-5.53937,-3.64015c-1.96252,-1.37165 -3.88283,-2.85937 -5.76094,-4.46315c-1.89921,-1.62488 -3.46079,-3.53464 -4.68472,-5.72929l-0.4115,-1.17118l2.27905,-17.37778l1.01291,-8.38818c0.99181,-9.0107 2.25795,-17.96865 3.79842,-26.87384c2.61669,-15.02487 5.8559,-29.88092 9.71763,-44.56816c4.66362,-17.72597 12.68251,-33.7321 24.05668,-48.01839c3.56629,-4.5159 7.1748,-8.29322 10.8255,-11.33196c3.65071,-3.05984 6.87937,-5.06456 9.68598,-6.01417c2.80661,-0.94961 5.30724,-1.57212 7.50188,-1.86756c2.17354,-0.29543 4.53701,-0.27433 7.09039,0.06331M294.5853,126.9824c-8.06109,7.47023 -16.26991,20.59589 -24.62644,39.37698c-8.39874,18.75998 -13.9803,39.29257 -16.74471,61.59775c-1.62488,13.14676 -3.19701,24.76361 -4.71637,34.85053l-0.44315,2.81716c-0.69638,4.13606 -1.18173,8.29322 -1.45606,12.47149c-0.12661,2.17354 0.64362,3.9989 2.31071,5.47606l3.26031,2.84882l3.48189,3.38693l7.59684,4.14661l17.78928,-15.38361c2.38457,-2.34236 4.67417,-4.77968 6.86881,-7.31196c4.72693,-5.42331 9.08456,-11.14204 13.0729,-17.15621l11.45857,-17.5677c3.6085,-5.59212 7.35417,-11.6485 11.237,-18.16912c3.86173,-6.52063 7.16425,-12.84078 9.90755,-18.96046c2.76441,-6.14078 5.39165,-12.18661 7.88173,-18.13747c2.49007,-5.97196 4.24157,-11.99668 5.25448,-18.07416c1.20283,-7.30141 0.68582,-14.47621 -1.55102,-21.52439c-2.27905,-7.217 -6.17244,-13.30503 -11.68015,-18.26408c-5.67653,-5.17008 -12.24991,-7.29086 -19.72014,-6.36236c-7.66015,0.80189 -14.05416,4.11496 -19.18203,9.93921M348.71283,152.05199c1.16063,9.24283 -2.44787,23.23368 -10.8255,41.97257c-8.37763,18.75998 -19.49857,38.16359 -33.36281,58.21082c-7.82897,11.33196 -15.65794,20.92298 -23.48691,28.77305l-17.06125,14.40235c1.62488,0.31654 3.22866,0.31654 4.81134,0c2.19465,-0.33764 4.1044,-1.23449 5.72929,-2.69055l4.9696,-4.77968l4.62141,-4.33653c4.32598,-3.88283 8.41984,-8.01889 12.28157,-12.40818c12.93574,-14.79275 24.61589,-30.53509 35.04045,-47.22705c9.09511,-14.58172 16.81857,-29.81762 23.17038,-45.70768c4.74803,-11.83842 4.87464,-23.53967 0.37984,-35.10375c-3.92504,-10.12913 -10.96267,-17.30392 -21.1129,-21.52439l7.88173,9.84424c3.48189,4.4737 5.80315,11.33196 6.96377,20.57479" fill="#e473ff"/><path d="M313.76734,117.0432c7.47023,-0.92851 14.04361,1.19228 19.72014,6.36236c5.50771,4.95905 9.4011,11.04708 11.68015,18.26408c2.23685,7.04818 2.75386,14.22298 1.55102,21.52439c-1.01291,6.07748 -2.76441,12.1022 -5.25448,18.07416c-2.49007,5.95086 -5.11732,11.99668 -7.88173,18.13747c-2.7433,6.11968 -6.04582,12.43983 -9.90755,18.96046c-3.88283,6.52063 -7.6285,12.577 -11.237,18.16912l-11.45857,17.5677c-3.98834,6.01417 -8.34598,11.7329 -13.0729,17.15621c-2.19465,2.53228 -4.48425,4.9696 -6.86881,7.31196l-17.78928,15.38361l-7.59684,-4.14661l-3.48189,-3.38693l-3.26031,-2.84882c-1.66708,-1.47716 -2.43732,-3.30252 -2.31071,-5.47606c0.27433,-4.17826 0.75968,-8.33543 1.45606,-12.47149l0.44315,-2.81716c1.51937,-10.08692 3.09149,-21.70376 4.71637,-34.85053c2.76441,-22.30518 8.34598,-42.83777 16.74471,-61.59775c8.35653,-18.78109 16.56534,-31.90675 24.62644,-39.37698c5.12787,-5.82425 11.52188,-9.13731 19.18203,-9.93921M288.7294,168.54347l-20.2266,28.01337l-2.31071,-4.68472l0.72803,6.96377l-5.95086,8.1033l7.50188,-7.6285l7.34362,19.3403c0,0 -16.01198,-5.46504 -17.34612,-9.44919c-1.37121,-4.09484 10.414,-11.25221 10.414,-11.25221c0,0 13.69013,12.18131 12.18752,18.89744c-1.54862,6.92179 -20.00594,16.04804 -20.00594,16.04804l14.65558,-11.83842l7.28031,21.14455l-14.90881,12.40818l14.75054,-10.95212l5.88755,14.18078l-4.81134,-14.75054l21.49274,-16.68141l2.88047,6.7422l-2.02583,-7.88173l16.30156,-13.16786l-16.33322,11.36361l-6.86881,-23.64518l20.66975,-19.46691l6.7422,28.99462l-5.28614,-30.1025l22.28408,-21.01794l-23.13872,18.20077l-8.45149,-34.81887l12.43983,-15.85841l-13.32613,14.8455l-5.12787,-16.39652l4.58976,17.66266l-21.1129,25.57604l-7.12204,-20.85967l6.20409,21.96754M319.18008,178.79921l-20.73306,19.15038l-8.03999,-28.26659l20.47983,-26.33573l8.29322,35.45194M282.08216,214.44108l16.33322,-13.80093l6.20409,23.77179l-21.1762,16.68141l-6.93212,-21.23951l5.53937,-5.3811l0.03165,-0.03165M268.88264,197.94959l20.06833,-26.5573l8.38818,27.47526l-21.52439,19.78345" data-paper-data="{&quot;origPos&quot;:null}" fill="#e473ff"/><path d="M341.74904,131.4772l-7.88173,-9.84424c10.15023,4.22047 17.18786,11.39527 21.1129,21.52439c4.4948,11.56409 4.36819,23.26534 -0.37984,35.10375c-6.3518,15.89007 -14.07526,31.12596 -23.17038,45.70768c-10.42456,16.69196 -22.10471,32.4343 -35.04045,47.22705c-3.86173,4.38929 -7.95559,8.52535 -12.28157,12.40818l-4.62141,4.33653l-4.9696,4.77968c-1.62488,1.45606 -3.53464,2.35291 -5.72929,2.69055c-1.58268,0.31654 -3.18645,0.31654 -4.81134,0l17.06125,-14.40235c7.82897,-7.85007 15.65794,-17.44109 23.48691,-28.77305c13.86424,-20.04723 24.98518,-39.45084 33.36281,-58.21082c8.37763,-18.73888 11.98613,-32.72974 10.8255,-41.97257c-1.16063,-9.24283 -3.48189,-16.10109 -6.96377,-20.57479" fill="#42214a"/><path d="M282.52531,146.57592l7.12204,20.85967l21.1129,-25.57604l-4.58976,-17.66266l5.12787,16.39652l13.32613,-14.8455l-12.43983,15.85841l8.45149,34.81887l23.13872,-18.20077l-22.28408,21.01794l5.28614,30.1025l-6.7422,-28.99462l-20.66975,19.46691l6.86881,23.64518l16.33322,-11.36361l-16.30156,13.16786l2.02583,7.88173l-2.88047,-6.7422l-21.49274,16.68141l4.81134,14.75054l-5.88755,-14.18078l-14.75054,10.95212l14.90881,-12.40818l-7.28031,-21.14455l-14.65558,11.83842c0,0 5.60059,-8.02078 11.52593,-12.00358c3.36868,-2.2643 -4.58326,-21.44364 -4.58326,-21.44364l-0.16882,-0.4537l-0.25323,0.31654l-6.61559,7.6285l5.95086,-8.1033l-0.72803,-6.96377l2.31071,4.68472l20.2266,-28.01337l-6.20409,-21.96754M310.88687,143.34727l-20.47983,26.33573l8.03999,28.26659l20.73306,-19.15038l-8.29322,-35.45194M282.05051,214.47272l-5.53937,5.3811l6.93212,21.23951l21.1762,-16.68141l-6.20409,-23.77179l-16.33322,13.80093v-0.03165l-0.03165,0.03165v0.03165M296.91711,199.07857l-8.17716,-27.47526l-20.06833,26.5573l6.93212,20.7014" data-paper-data="{&quot;origPos&quot;:null}" fill="#42214a"/><path d="M282.05051,214.47272v-0.03165h0.03165l-0.03165,0.03165" fill="#000000"/><path d="M282.05051,214.44108l0.03165,-0.03165v0.03165h-0.03165" fill="#ffffff"/><path d="M323.67489,220.36612c-3.88283,6.52063 -7.6285,12.577 -11.237,18.16912l-11.45857,17.5677c-3.98834,6.01417 -8.34598,11.7329 -13.0729,17.15621c-2.19465,2.53228 -4.48425,4.9696 -6.86881,7.31196l-17.78928,15.38361l-7.59684,-4.14661l-3.48189,-3.38693l-3.26031,-2.84882c-1.66708,-1.47716 -2.43732,-3.30252 -2.31071,-5.47606c0.27433,-4.17826 0.75968,-8.33543 1.45606,-12.47149l0.44315,-2.81716c1.51937,-10.08692 3.09149,-21.70376 4.71637,-34.85053M275.81476,220.65099c0,0 6.75801,-8.52009 5.2554,-1.80396c-1.54862,6.92179 -20.00594,16.04804 -20.00594,16.04804l14.65558,-11.83842l7.28031,21.14455l-14.90881,12.40818l14.75054,-10.95212l5.88755,14.18078l-4.81134,-14.75054l21.49274,-16.68141l2.88047,6.7422l-2.02583,-7.88173l-0.03166,-1.80425M304.61947,226.41194l-21.1762,16.68141l-6.93212,-21.23951M275.81476,220.651" fill="#c262da"/></g><g stroke="#000000" stroke-linecap="butt"><path d="M200.33724,308.16087c0,0 -0.63536,-94.38387 -0.79335,-118.01201c-0.05451,-8.15261 8.18688,-36.76129 40.20201,-36.9211c31.60235,-0.15775 39.85672,29.48704 39.84884,36.89673c-0.07659,46.24274 0.65429,117.98648 0.65429,117.98648l-10.49667,0.09614l-0.15882,-114.84311c0,0 0.07549,-3.0993 -2.81625,-3.15415c-3.43441,-0.06514 -2.94538,3.11562 -2.94538,3.11562l0.20548,114.86995l-48.21366,0.07222l-0.30539,-115.23309c0,0 0.27949,-2.919 -2.8856,-2.93443c-3.11083,-0.01515 -2.81569,2.90899 -2.81569,2.90899l0.35311,115.0668z" fill="#ffffff" stroke-width="2"/><path d="M200.87469,309.58141c0,0 13.16346,-48.96175 15.77741,-73.87281c2.34008,-22.30103 0.5092,-68.63187 0.5092,-68.63187l45.5,0.33334c0,0 2.74575,69.96857 5.64106,96.24696c1.99651,18.12075 11.72654,45.92438 11.72654,45.92438z" fill="#8500a6" stroke-width="0"/><path d="M263.2214,202.51956c0,39.50454 8.49973,85.30513 -23.5935,85.52293c-34.49163,0.23407 -23.77876,-63.74008 -23.77876,-103.24462c0,-4.06115 47.37226,17.72169 47.37226,17.72169z" fill="#5e0076" stroke-width="0"/><path d="M223.75802,250.59069c0,13.72491 -0.45012,39.62284 -6.79079,49.65329c-3.93863,6.23062 -20.10078,0.30102 -22.74044,-6.45692c-0.9989,-2.55734 -1.59089,-38.91421 1.77086,-58.26552c5.18471,-29.8449 16.12794,-46.30481 21.1489,-46.30481c8.27654,0 6.61147,39.12355 6.61147,61.37397z" fill="#7c009b" stroke-width="0"/><path d="M218.38778,254.56908c-1.81978,11.60484 -23.57996,4.75034 -23.90897,-5.95433c-0.80073,-26.05271 6.3697,-80.33978 14.63408,-81.10437c8.26438,-0.7646 13.22652,61.85895 9.27489,87.0587z" fill="#8500a6" stroke-width="0"/><path d="M243.42152,163.17693c4.51999,10.14304 -0.69162,25.58482 -11.64047,34.49017c-10.94885,8.90535 -32.74487,1.44073 -33.73874,-4.3948c-0.99387,-5.83553 6.42156,-24.86689 17.37041,-33.77223c10.94885,-8.90535 23.48881,-6.46616 28.0088,3.67688z" fill="#a300cc" stroke-width="0"/><path d="M262.64827,187.55145c5.02096,0 15.96419,16.53232 21.1489,46.50851c3.36175,19.43645 2.76976,55.95325 1.77086,58.52184c-2.63966,6.78768 -18.80181,12.74336 -22.74044,6.48533c-6.34067,-10.07457 -6.79079,-36.08643 -6.79079,-49.87172c0,-22.3483 -1.66507,-61.64396 6.61147,-61.64396z" data-paper-data="{&quot;index&quot;:null}" fill="#7c009b" stroke-width="0"/><path d="M271.38724,168.84517c8.26438,0.77281 15.43481,55.64294 14.63408,81.97547c-0.32901,10.81964 -22.08919,17.74776 -23.90897,6.01828c-3.95163,-25.47042 1.01051,-88.76656 9.27489,-87.99375z" data-paper-data="{&quot;index&quot;:null}" fill="#8500a6" stroke-width="0"/><path d="M237.57861,165.14225c4.51999,-11.94788 17.05995,-14.82109 28.0088,-4.33113c10.94885,10.48995 18.36428,32.90772 17.37041,39.78161c-0.99387,6.87389 -22.78989,15.66675 -33.73874,5.1768c-10.94885,-10.48995 -16.16046,-28.67942 -11.64047,-40.62729z" data-paper-data="{&quot;index&quot;:null}" fill="#a300cc" stroke-width="0"/><path d="M262.09729,179.91296c0,28.73712 6.69261,76.73107 -23.29523,76.46442c-30.55515,-0.27169 -20.50214,-49.77474 -16.43673,-78.20411c1.12412,-7.86097 39.73196,1.73969 39.73196,1.73969z" fill="#71008d" stroke-width="0"/><path d="M240.30673,219.33994c-13.82857,0 -23.53881,-30.68407 -23.53881,-52.68651c0,-10.57148 10.98329,-14.111 22.39562,-14.22675c12.34018,-0.12516 25.18201,4.03483 25.18201,15.46581c0,0 -10.21027,51.44746 -24.03882,51.44746z" fill="#8500a6" stroke-width="0"/><path d="M265.20093,159.38145c0,0 -21.49616,42.16105 -25.63345,42.44491c-4.19799,0.28803 -24.05915,-42.3777 -24.05915,-42.3777c0,0 4.99702,-8.05845 24.85775,-8.8605c13.7101,-0.55366 24.83485,8.79328 24.83485,8.79328z" data-paper-data="{&quot;index&quot;:null}" fill="#000000" stroke-width="0"/><path d="M199.38625,309.6862c0,0 8.14652,-43.62518 12.61262,-87.35373c2.88274,-28.22548 2.77367,-63.04158 2.83689,-63.08504c0.75842,-0.52137 6.49169,-5.0629 6.49169,-5.0629c0,0 2,70.64514 2,96.12954c0,26.42379 -6,59.19705 -6,59.19705z" fill="#1f0052" stroke-width="0"/><path d="M263.17267,309.51112c0,0 -6,-32.77326 -6,-59.19705c0,-25.4844 2,-96.12954 2,-96.12954c0,0 5.73327,4.54153 6.49169,5.0629c0.06322,0.04346 -0.04585,34.85956 2.83689,63.08504c4.4661,43.72855 12.61262,87.35373 12.61262,87.35373z" data-paper-data="{&quot;index&quot;:null}" fill="#1f0052" stroke-width="0"/></g><path d="M255.46483,91.87043h0.00001c0,0.00001 -0.00001,0.00001 -0.00001,0.00001z" fill="#000000" stroke="none" stroke-width="1.5" stroke-linecap="butt"/><path d="M197.39354,108.03789c0.26026,-1.7719 -2.89973,-23.84537 14.62957,-34.86207c0.28949,-0.18193 -3.3978,-1.09885 -3.3978,-1.09885c0,0 20.91696,-6.63983 25.73128,-6.85104c12.53798,-0.32841 28.67564,7.38489 28.67564,7.38489c0,0 6.16378,-0.85096 7.65479,2.75271c0.80709,1.95068 2.23965,7.97109 4.25765,11.36571c1.60471,2.69941 4.4641,1.5893 4.4641,1.5893l-3.31411,3.02925c0,0 4.29528,2.48774 3.79405,5.69898c-1.22793,7.86708 1.30393,20.33859 1.30393,20.33859l-2.7897,-0.32678l1.755,5.3256l-3.66607,0.82427c0,0 3.12634,4.77452 3.52227,9.37312c0.58475,6.79176 -1.41373,14.65479 -0.75809,18.04036c0.48954,2.52786 1.59329,7.72656 1.59329,7.72656l-4.61669,-3.64031c0,0 -0.53431,3.12424 -1.12561,4.49963c-0.59056,1.37364 -2.42,3.74745 -2.42,3.74745l-1.72656,-4.58397c0,0 -1.95274,2.8671 -2.48523,3.57612c-0.64283,0.85592 -2.3895,2.46046 -2.3895,2.46046l-0.5448,-3.38381l-7.48047,5.37177c0,0 -8.50988,4.12577 -19.79428,4.22869c-16.04909,0.14638 -22.43072,-6.10245 -22.43072,-6.10245c0,0 -0.44606,1.01844 -0.50103,1.66925c-0.06258,0.74092 0.14544,2.5411 0.14544,2.5411c0,0 -2.47846,-1.21811 -3.31757,-1.94727c-0.7704,-0.66947 -1.52855,-2.26395 -1.52855,-2.26395l-2.17247,3.88685c0,0 -1.50534,-1.89979 -1.88228,-3.01744c-0.46934,-1.39158 -0.71781,-4.69183 -0.71781,-4.69183l-2.68929,3.00549c0,0 -1.15425,-8.61886 -3.56275,-15.01831c-2.87065,-7.6274 1.06884,-9.91697 1.06884,-9.91697l-5.07969,1.67866c0,0 1.8512,-1.56912 1.95078,-3.7043c0.12839,-2.75242 -1.70962,-10.34732 -1.95834,-15.99224c-0.16588,-3.76499 1.23734,-6.66809 1.23734,-6.66809l-3.65928,1.10307c0,0 4.09742,-6.28162 4.22471,-7.14819z" fill="#000000" stroke="none" stroke-width="1.5" stroke-linecap="butt"/><g stroke="none" stroke-width="0" stroke-linecap="butt"><path d="M236.61737,124.77532c0.04431,6.90342 -6.01976,12.5389 -13.54448,12.5872c-7.52472,0.0483 -13.66064,-5.50887 -13.70495,-12.41229c-0.04431,-6.90342 6.01976,-12.5389 13.54448,-12.5872c7.52472,-0.0483 13.66064,5.50887 13.70495,12.41229z" fill="#ffffff"/><path d="M234.60991,124.65075c0.03975,6.19335 -5.17456,11.24773 -11.64648,11.28927c-6.47193,0.04154 -11.75069,-4.94548 -11.79044,-11.13883c-0.03975,-6.19335 5.17456,-11.24774 11.64649,-11.28928c6.47193,-0.04154 11.7507,4.94549 11.79045,11.13884z" fill="#42214a"/><path d="M226.23821,120.9187c0.01874,2.91916 -2.76901,5.3036 -6.22662,5.3258c-3.4576,0.02219 -6.27574,-2.32626 -6.29448,-5.24542c-0.01874,-2.91916 2.76901,-5.30359 6.22662,-5.32579c3.4576,-0.02219 6.27574,2.32626 6.29448,5.24541z" fill="#d2864c"/><path d="M215.03525,126.27643c0.00506,0.78896 -0.6736,1.43292 -1.51584,1.43833c-0.84223,0.00541 -1.52911,-0.62979 -1.53418,-1.41875c-0.00506,-0.78896 0.6736,-1.43293 1.51584,-1.43834c0.84223,-0.00541 1.52911,0.6298 1.53418,1.41876z" fill="#ca66e3"/><path d="M220.6757,129.66887c0.00861,1.34123 -1.27807,2.43682 -2.87389,2.44707c-1.59582,0.01024 -2.89646,-1.06874 -2.90507,-2.40997c-0.00861,-1.34123 1.27807,-2.43682 2.87389,-2.44707c1.59582,-0.01024 2.89646,1.06874 2.90507,2.40997z" fill="#ca66e3"/></g><g stroke="none" stroke-width="0" stroke-linecap="butt"><path d="M268.61991,125.0699c0.04431,6.90342 -6.01976,12.5389 -13.54448,12.5872c-7.52472,0.0483 -13.66064,-5.50887 -13.70495,-12.41229c-0.04431,-6.90342 6.01976,-12.5389 13.54448,-12.5872c7.52472,-0.0483 13.66064,5.50887 13.70495,12.41229z" fill="#ffffff"/><path d="M266.61245,124.94534c0.03975,6.19335 -5.17456,11.24773 -11.64648,11.28927c-6.47193,0.04154 -11.75069,-4.94548 -11.79044,-11.13883c-0.03975,-6.19335 5.17456,-11.24774 11.64649,-11.28928c6.47193,-0.04154 11.7507,4.94549 11.79045,11.13884z" fill="#ad6e3e"/><path d="M258.24075,121.21329c0.01874,2.91916 -2.76901,5.3036 -6.22662,5.3258c-3.4576,0.02219 -6.27574,-2.32626 -6.29448,-5.24542c-0.01874,-2.91916 2.76901,-5.30359 6.22662,-5.32579c3.4576,-0.02219 6.27574,2.32626 6.29448,5.24541z" fill="#d2864c"/><path d="M247.0378,126.57102c0.00506,0.78896 -0.6736,1.43292 -1.51584,1.43833c-0.84223,0.00541 -1.52911,-0.62979 -1.53418,-1.41875c-0.00506,-0.78896 0.6736,-1.43293 1.51584,-1.43834c0.84223,-0.00541 1.52911,0.6298 1.53418,1.41876z" fill="#d2864c"/><path d="M252.67825,129.96345c0.00861,1.34123 -1.27807,2.43682 -2.87389,2.44707c-1.59582,0.01024 -2.89646,-1.06874 -2.90507,-2.40997c-0.00861,-1.34123 1.27807,-2.43682 2.87389,-2.44707c1.59582,-0.01024 2.89646,1.06874 2.90507,2.40997z" fill="#d2864c"/></g><path d="M244.47119,158.32768c0,0 -1.51668,3.65699 -2.40873,4.55782c-0.54822,0.55362 -2.22576,1.16715 -2.22576,1.16715c0,0 -2.05727,-1.25745 -2.75094,-1.91088c-0.33232,-0.31305 -1.43401,-1.5838 -1.85285,-3.32409c-0.22942,-0.95324 0.24622,-3.18695 1.9489,-4.19338c0.83568,-0.49396 3.06569,-1.0655 4.40317,-0.35296c1.84517,0.98301 2.74521,3.46796 2.74521,3.46796" data-paper-data="{&quot;index&quot;:null}" fill="none" stroke="#ffffff" stroke-width="1" stroke-linecap="round"/><path d="M209.27512,125.4919c0,0 -1.60385,-14.34262 13.60555,-14.23087c14.94723,0.10982 14.39387,14.05115 14.39387,14.05115c0,0 -9.68242,2.5684 -14.41934,2.59881c-4.59171,0.02947 -13.58009,-2.41908 -13.58009,-2.41908z" fill="#000000" stroke="none" stroke-width="0" stroke-linecap="butt"/><path d="M241.27607,125.53649c0,0 -2.19996,-16.00962 13.00944,-15.89787c14.94724,0.10982 14.73999,15.71975 14.73999,15.71975c0,0 -1.36372,13.79271 -14.34811,13.64398c-13.38411,-0.15331 -13.40131,-13.46586 -13.40131,-13.46586z" fill="#000000" stroke="none" stroke-width="0" stroke-linecap="butt"/><path d="M254.59598,67.34367c0.7017,-1.24118 11.62491,-2.18837 11.62491,-2.18837l-5.72616,3.87115c0,0 -3.74105,1.81953 -2.61506,2.243c1.30894,0.49226 4.5569,1.19254 7.03572,0.73694c1.77808,-0.3268 3.15684,-1.80314 3.15684,-1.80314c0,0 -0.17963,1.83779 -0.87486,3.46928c-0.51951,1.21912 -1.64235,2.32507 -1.48412,2.452c0.06199,0.04972 0.12361,0.0996 0.18489,0.14964c-0.03077,0.01308 -0.06142,0.02621 -0.09196,0.03942c-0.14154,0.04146 -0.28469,0.10566 -0.43576,0.19646c-0.0998,0.04694 -0.19725,0.09419 -0.29171,0.14147l-0.00979,-0.03706l-0.4783,0.12632c-0.11036,0.02656 -0.19204,0.12627 -0.19128,0.24466c0.00006,0.00944 0.00065,0.01877 0.00173,0.02792c-0.45256,-0.00938 -0.90276,-0.05507 -1.34593,-0.16098c-3.41208,-0.80636 -6.51846,-1.64489 -9.54484,-3.55349c-1.41984,-0.19696 -4.36376,-3.0856 -4.83752,-5.13449c1.24596,0.11188 5.34614,0.19997 5.92319,-0.82073z" fill="#000000" stroke="none" stroke-width="1.5" stroke-linecap="butt"/><g stroke="none" stroke-linecap="butt"><path d="M199.53151,87.94735l-0.09914,-0.12231l0.34517,0.14532l-0.24603,-0.02301" fill="#cccccc" stroke-width="1"/><path d="M212.60673,79.4298l-0.61419,0.0777l-0.09851,-0.02396l0.39101,-0.37132l-0.54675,-0.90624c-1.62296,-2.5795 -3.26288,-3.97048 -4.91977,-4.17294c-1.85389,-0.25037 -3.37753,-0.12585 -4.57094,0.37357c-1.2099,0.48313 -2.07295,1.37383 -2.58916,2.6721c-0.51621,1.29827 -0.47411,2.74869 0.12628,4.35123c0.53388,1.45545 1.28012,2.79479 2.23869,4.01803l0.3967,0.5138l0.96647,1.17401l1.02697,-0.89176c-0.16034,0.55835 -0.64134,0.95485 -1.44304,1.18948l-1.74298,0.42919l-0.88449,0.10403l-0.96299,-0.6331l-0.00079,-0.12294l-0.0487,0.07407c-0.90573,-0.64986 -1.70564,-1.41514 -2.39975,-2.29585c-2.95781,-3.68558 -3.94508,-6.82648 -2.96185,-9.4227c0.59648,-1.56105 1.8909,-2.92169 3.88326,-4.08192c0.78394,-0.44761 1.66638,-0.87127 2.64733,-1.27097c6.52388,-2.56623 10.928,-0.84056 13.2123,5.17698l0.70279,2.23298c-0.37236,0.72364 -0.975,1.32581 -1.8079,1.80651" fill="#e473ff" stroke-width="1"/><path d="M210.73481,78.92547l-7.11515,6.21722l-0.07423,-0.0733c-3.5588,-2.82934 -3.79908,-5.78652 -0.72082,-8.87157c2.7246,-2.00091 5.10495,-1.45067 7.14106,1.65072l0.76913,1.07693" fill="#ffff80" stroke-width="1"/><path d="M199.38004,87.33363l0.96299,0.6331l1.33194,0.65532l-1.89744,-0.65169l-0.34517,-0.14532c-5.99909,-2.50222 -8.33702,-6.65895 -7.01381,-12.47017c0.7193,-2.85681 2.4341,-5.1217 5.14441,-6.79467c5.01948,-1.99925 9.3964,-1.95358 13.13078,0.13701c3.73438,2.09058 5.03362,5.31144 3.89772,9.66258l-0.17684,-0.7365l-0.70279,-2.23298c-2.28431,-6.01754 -6.68842,-7.74321 -13.2123,-5.17698c-0.98094,0.39969 -1.86338,0.82336 -2.64733,1.27097c-1.99236,1.16022 -3.28678,2.52086 -3.88326,4.08192c-0.98324,2.59622 0.00405,5.73713 2.96185,9.4227c0.69412,0.8807 1.49402,1.64598 2.39975,2.29585l0.04948,0.04886" fill="#000000" stroke-width="1"/><path d="M204.41355,86.24403l-1.02697,0.89175l-0.96647,-1.17401l-0.3967,-0.51379c-0.95858,-1.22324 -1.7048,-2.56258 -2.23869,-4.01803c-0.60039,-1.60254 -0.64249,-3.05296 -0.12628,-4.35123c0.51621,-1.29827 1.37926,-2.18898 2.58916,-2.6721c1.1934,-0.49942 2.71705,-0.62394 4.57094,-0.37357c1.65687,0.20246 3.29681,1.59344 4.91977,4.17294l0.54675,0.90624l-0.39101,0.37132l-7.48048,6.7605M209.96568,77.84855c-2.03611,-3.10139 -4.41646,-3.65163 -7.14106,-1.65072c-3.07826,3.08504 -2.83798,6.04223 0.72082,8.87157l0.07423,0.0733l7.11515,-6.21722l-0.76913,-1.07693" fill="#4a0000" stroke-width="1"/><path d="M209.98746,77.83713l0.77132,1.08284l-7.1485,6.24542l-0.07463,-0.07345c-3.5588,-2.82934 -3.80398,-5.82881 -0.72572,-8.91386c2.7246,-2.00091 5.14142,-1.44235 7.17753,1.65903" data-paper-data="{&quot;noHover&quot;:false,&quot;origItem&quot;:[&quot;Path&quot;,{&quot;applyMatrix&quot;:true,&quot;segments&quot;:[[[182.06768,52.57922],[0,0],[-4.1,-6.33334]],[[167.56768,49.12922],[5.56667,-4.03334],[-6.3,6.23334]],[[168.91768,67.17922],[-7.2,-5.8],[0,0]],[169.06768,67.32922],[183.61768,54.77922],[182.06768,52.57922]]}]}" fill="#ffbcbc" stroke-width="0.5"/></g><path d="M278.48258,89.65347l-0.24572,0.02617l0.34327,-0.14973l-0.09756,0.12356" fill="#cccccc" stroke="none" stroke-width="1" stroke-linecap="butt"/><path d="M265.29909,81.30447c-0.839,-0.46997 -1.44932,-1.06436 -1.83095,-1.78316l0.67407,-2.24181c2.20687,-6.04638 6.58847,-7.82843 13.14475,-5.34616c0.98599,0.38707 1.8738,0.79937 2.66341,1.23688c2.00709,1.13454 3.31888,2.47846 3.93535,4.03173c1.01649,2.58339 0.0696,5.73671 -2.84065,9.45995c-0.68275,0.88954 -1.47276,1.66504 -2.37008,2.32647l-0.04965,-0.07345l0.00079,0.12294l-0.95478,0.64541l-0.88576,-0.09267l-1.74835,-0.40678c-0.80464,-0.22432 -1.29071,-0.6146 -1.4582,-1.17085l1.03833,0.87849l0.95131,-1.18632l0.39008,-0.51884c0.9428,-1.23545 1.67178,-2.58425 2.18692,-4.04644c0.57978,-1.61012 0.60324,-3.06097 0.07041,-4.3525c-0.53283,-1.29154 -1.40724,-2.17108 -2.62324,-2.63864c-1.19971,-0.48405 -2.72484,-0.58902 -4.57536,-0.31487c-1.65415,0.22371 -3.27607,1.63563 -4.86578,4.23575l-0.53507,0.91318l0.39575,0.36628l-0.09819,0.02522l-0.61514,-0.06981" fill="#e473ff" stroke="none" stroke-width="1" stroke-linecap="butt"/><path d="M267.16438,80.77616l0.75524,-1.08671c1.99613,-3.12728 4.36922,-3.70802 7.11928,-1.74225c3.11761,3.04526 2.91532,6.0053 -0.60687,8.8801l-0.07329,0.07423l-7.19437,-6.12536" fill="#ffff80" stroke="none" stroke-width="1" stroke-linecap="butt"/><path d="M278.62616,89.03785l0.04886,-0.04949c0.89731,-0.66143 1.68733,-1.43692 2.37008,-2.32647c2.91024,-3.72325 3.85713,-6.87656 2.84065,-9.45995c-0.61647,-1.55327 -1.92826,-2.89718 -3.93535,-4.03173c-0.78961,-0.43751 -1.67742,-0.8498 -2.66341,-1.23688c-6.5563,-2.48227 -10.93789,-0.70022 -13.14475,5.34616l-0.67407,2.24181l-0.16737,0.73871c-1.19166,-4.3362 0.06614,-7.57347 3.77336,-9.71182c3.70723,-2.13835 8.08321,-2.2402 13.12793,-0.30555c2.73157,1.63804 4.47531,3.88073 5.23122,6.72807c1.39772,5.79376 -0.88667,9.98016 -6.85315,12.55919l-0.34327,0.14973l-1.88892,0.676l1.32343,-0.67237l0.95478,-0.64541" fill="#000000" stroke="none" stroke-width="1" stroke-linecap="butt"/><path d="M273.57908,88.01297l-7.56664,-6.6639l-0.39575,-0.36628l0.53507,-0.91318c1.5897,-2.60013 3.21163,-4.01204 4.86578,-4.23575c1.85052,-0.27415 3.37564,-0.16919 4.57536,0.31487c1.216,0.46755 2.09042,1.3471 2.62324,2.63864c0.53283,1.29154 0.50936,2.74238 -0.07041,4.3525c-0.51515,1.46218 -1.24412,2.81099 -2.18692,4.04644l-0.39008,0.51884l-0.95131,1.18632l-1.03833,-0.87849M267.91963,79.68943l-0.75524,1.08671l7.19437,6.12536l0.07329,-0.07423c3.52219,-2.8748 3.72448,-5.83483 0.60687,-8.8801c-2.75006,-1.96577 -5.12316,-1.38501 -7.11928,1.74226" fill="#4a0000" stroke="none" stroke-width="1" stroke-linecap="butt"/><path d="M267.8977,79.67833c1.99613,-3.12728 4.40558,-3.71682 7.15565,-1.75105c3.11761,3.04527 2.91096,6.04764 -0.61123,8.92243l-0.07368,0.07441l-7.22808,-6.15315l0.75735,-1.09265" data-paper-data="{&quot;noHover&quot;:false,&quot;origItem&quot;:[&quot;Path&quot;,{&quot;applyMatrix&quot;:true,&quot;segments&quot;:[[292.89462,54.07922],[291.34462,56.27922],[305.89462,68.82922],[[306.04462,68.67922],[0,0],[7.2,-5.8]],[[307.39462,50.62922],[6.3,6.23334],[-5.56666,-4.03334]],[[292.89462,54.07922],[4.1,-6.33334],[0,0]]]}]}" fill="#ffbcbc" stroke="none" stroke-width="0.5" stroke-linecap="butt"/><g stroke="none" stroke-width="0" stroke-linecap="butt"><path d="M270.86669,108.2214c0.05494,8.55897 -2.25992,22.42533 -26.31792,24.58447c-0.95836,0.086 -2.48993,-0.67667 -3.31375,-2.23205c-1.08753,-2.05327 -1.58134,-5.05945 -4.22022,-5.08102c-2.46925,-0.02017 -3.61835,2.78734 -4.77701,4.72118c-1.01759,1.69838 -2.12271,2.56004 -3.03997,2.46646c-24.60299,-2.50971 -27.60982,-15.90625 -27.66296,-24.18577c-0.00211,-0.32871 69.32953,-0.63132 69.33182,-0.27328z" fill="#1f0052"/><path d="M229.68303,132.77733c-3.09007,-0.31521 -5.83944,-0.80215 -8.28509,-1.42913c-1.26696,-0.3248 -1.96672,-0.4903 -3.07579,-0.88586c-0.43801,-0.15622 13.24636,-21.32248 13.24636,-21.32248c0,0 3.64569,-0.93662 5.81135,-0.94533c1.70655,-0.00685 4.0006,0.67591 4.0006,0.67591l0.73387,0.40763c0,0 -11.53063,23.59112 -12.43131,23.49925z" fill="#8500a6"/><path d="M258.80515,109.12027c0.00665,1.03563 11.33637,-1.15663 11.33637,-1.15663l-13.71139,22.44574c0,0 -9.60713,2.26531 -11.76584,2.58682c-1.01482,0.15114 14.13856,-24.23397 14.14086,-23.87593z" fill="#8500a6"/><path d="M201.65457,111.15546c0,0 -5.52178,-10.65796 -5.52701,-11.47327c-0.00451,-0.70278 5.49745,6.86868 5.49745,6.86868l70.43409,-0.59498c0,0 6.38359,-5.05049 6.3579,-2.78551c-0.02691,2.37221 -6.32834,7.3901 -6.32834,7.3901z" fill="#e473ff"/></g></g></g></svg>