<svg version="1.1" xmlns="http://www.w3.org/2000/svg" xmlns:xlink="http://www.w3.org/1999/xlink" width="35.67311" height="35.67311" viewBox="0,0,35.67311,35.67311"><g transform="translate(-222.16348,-162.16347)"><g data-paper-data="{&quot;isPaintingLayer&quot;:true}" stroke-miterlimit="10" stroke-dasharray="" stroke-dashoffset="0" style="mix-blend-mode: normal"><path d="M229.98314,162.91348h20.03379c3.9166,0 7.06966,3.15307 7.06966,7.06966v20.03379c0,3.91659 -3.15306,7.06966 -7.06966,7.06966h-20.03379c-3.91659,0 -7.06966,-3.15307 -7.06966,-7.06966v-20.03379c0,-3.91659 3.15307,-7.06966 7.06966,-7.06966z" fill="#7004dc" fill-rule="evenodd" stroke="#000000" stroke-width="1.5" stroke-linecap="round" stroke-linejoin="round"/><g fill-rule="nonzero" stroke-width="1" stroke-linecap="butt" stroke-linejoin="miter"><g fill="#ffffff" stroke="#000000"><path d="M224.69661,189.89786l28.96831,-22.61727c0,0 0.95172,0.62388 1.21645,1.07978c0.2805,0.48305 0.422,1.74176 0.422,1.74176l-28.96831,22.61727c0,0 -0.94752,-0.61666 -1.2113,-1.0709c-0.28126,-0.48434 -0.42716,-1.75064 -0.42716,-1.75064z"/><path d="M224.69661,189.89786l28.96831,-22.61727c0,0 0.23755,1.27911 0.50229,1.73501c0.2805,0.48305 1.13617,1.08653 1.13617,1.08653l-28.96831,22.61727c0,0 -0.94752,-0.61666 -1.2113,-1.0709c-0.28126,-0.48434 -0.42716,-1.75064 -0.42716,-1.75064z"/></g><g fill="none" stroke="none" font-family="sans-serif" font-weight="normal" font-size="12" text-anchor="start"/><g data-paper-data="{&quot;index&quot;:null}" fill="#ffffff" stroke="#000000"><path d="M232.92006,190.04979c-1.10129,0.87731 -2.34231,1.00072 -2.77191,0.27566c-0.4296,-0.72506 0.11492,-2.02405 1.2162,-2.90136c1.10129,-0.87731 2.34232,-1.00072 2.77191,-0.27566c0.4296,0.72506 -0.11492,2.02405 -1.2162,2.90135z"/><path d="M226.83626,188.26231c0,0 -0.06387,-1.60747 0.33018,-2.13999c0.56908,-0.76904 1.82009,-1.87374 1.82009,-1.87374c0,0 0.75336,-1.18545 0.93648,-1.35389c0.34953,-0.32152 1.68703,-0.33893 1.68703,-0.33893c0,0 1.28713,1.42179 1.80247,2.26073c0.37547,0.61126 1.00504,2.30978 1.00504,2.30978l-1.40876,1.49288l-0.79975,-0.94496c0,0 0.60298,1.15345 0.43261,1.3192c-0.58697,0.57103 -1.42451,0.82883 -2.14535,1.31196c-0.05309,0.03558 -0.53495,0.35012 -0.58788,0.3762c-1.03583,0.51053 -1.67047,-0.3054 -1.67047,-0.3054z"/></g></g></g></g></svg>