<svg version="1.1" xmlns="http://www.w3.org/2000/svg" xmlns:xlink="http://www.w3.org/1999/xlink" width="93.36936" height="250.26385" viewBox="0,0,93.36936,250.26385"><defs><linearGradient x1="239.43764" y1="150.76257" x2="239.43764" y2="306.06419" gradientUnits="userSpaceOnUse" id="color-1"><stop offset="0" stop-color="#7ba4a8"/><stop offset="1" stop-color="#5a787b"/></linearGradient><linearGradient x1="238.98261" y1="152.15437" x2="238.98261" y2="304.74138" gradientUnits="userSpaceOnUse" id="color-2"><stop offset="0" stop-color="#63f2ff"/><stop offset="1" stop-color="#1a4044"/></linearGradient><linearGradient x1="242.25209" y1="135.69922" x2="242.25209" y2="148.93502" gradientUnits="userSpaceOnUse" id="color-3"><stop offset="0" stop-color="#000000"/><stop offset="1" stop-color="#444444"/></linearGradient><linearGradient x1="239.77892" y1="129.15527" x2="239.77892" y2="142.90345" gradientUnits="userSpaceOnUse" id="color-4"><stop offset="0" stop-color="#000000"/><stop offset="1" stop-color="#444444"/></linearGradient><linearGradient x1="238.3543" y1="146.23231" x2="238.3543" y2="160.03662" gradientUnits="userSpaceOnUse" id="color-5"><stop offset="0" stop-color="#000000"/><stop offset="1" stop-color="#444444"/></linearGradient><radialGradient cx="225.60168" cy="116.7117" r="17.55025" gradientUnits="userSpaceOnUse" id="color-6"><stop offset="0" stop-color="#ffffff"/><stop offset="1" stop-color="#ffffff" stop-opacity="0"/></radialGradient><radialGradient cx="253.16628" cy="116.69735" r="17.55025" gradientUnits="userSpaceOnUse" id="color-7"><stop offset="0" stop-color="#ffffff"/><stop offset="1" stop-color="#ffffff" stop-opacity="0"/></radialGradient></defs><g transform="translate(-191.35256,-56.80641)"><g data-paper-data="{&quot;isPaintingLayer&quot;:true}" fill-rule="nonzero" stroke-linecap="butt" stroke-linejoin="miter" stroke-miterlimit="10" stroke-dasharray="" stroke-dashoffset="0" style="mix-blend-mode: normal"><path d="M199.87855,305.69631c0,0 -0.63536,-94.38387 -0.79335,-118.01201c-0.05451,-8.15261 8.18688,-36.76129 40.20201,-36.9211c31.60235,-0.15775 39.85672,29.48704 39.84884,36.89673c-0.07659,46.24274 0.65429,117.98648 0.65429,117.98648l-10.49667,0.09614l-0.15882,-114.84311c0,0 0.07549,-3.0993 -2.81625,-3.15415c-3.43441,-0.06514 -2.94538,3.11562 -2.94538,3.11562l-2.46119,115.20328l-42.21366,-0.26111l-3.63872,-115.23309c0,0 0.27949,-2.919 -2.8856,-2.93443c-3.11083,-0.01515 -2.81569,2.90899 -2.81569,2.90899l0.35311,115.0668z" fill="url(#color-1)" stroke="#000000" stroke-width="2"/><path d="M218.48761,304.74136l-3.76077,-118.61411c0,0 -0.231,13.99431 -3.30979,20.87111c-3.9536,8.83076 -16.61722,15.82057 -16.61722,13.13276c0,-2.21999 4.92149,-5.43501 1.01865,-43.6427c17.31242,-16.53244 18.90836,-17.95235 18.90836,-17.95235c0,0 2.67319,-2.29189 4.6557,-3.65077c1.98251,-1.35888 5.17197,-2.73093 5.17197,-2.73093c0,0 -1.22839,2.08689 13.93273,2.01837c15.43477,-0.06976 14.45833,-2.01836 14.45833,-2.01836c0,0 3.91276,1.48014 6.16585,2.87006c2.25309,1.3899 4.75379,3.51164 4.75379,3.51164c0,0 3.4404,-0.18388 6.62335,2.82496c4.14489,3.91815 12.67687,22.16151 12.67687,24.78811c0,1.88172 -9.26871,-10.38334 -12.12228,-8.47724c-4.29844,2.87124 -7.17794,8.94708 -7.17794,8.94708l0.62679,11.56734c0,0 -9.8535,38.21768 -13.802,67.19165c-17.22014,-40.53056 -9.76212,-16.27986 -18.66655,-40.54391c-8.74047,18.71472 -13.53584,79.90731 -13.53584,79.90731z" fill="url(#color-2)" stroke="#000000" stroke-width="2"/><path d="M194.77505,105.18481c0,0 6.16329,-5.92187 6.29161,-6.78761c0.33654,-2.27063 -0.16776,-40.17317 35.96775,-41.57382c44.63633,-0.91362 39.01489,35.34872 41.53088,42.1903c3.44981,9.38084 6.15664,17.40016 6.15664,17.40016c0,0 -2.76715,-2.05351 -4.0797,-3.13397c-1.2242,-1.00773 -3.80143,-3.14585 -3.80143,-3.14585c0,0 3.09111,10.3481 1.31092,20.69498c-1.5623,9.48098 -7.29782,17.22543 -7.29782,17.22543l-1.15522,-2.34735c0,0 -1.02266,2.19794 -2.16005,3.33274c-1.1374,1.13479 -3.43873,2.91273 -3.43873,2.91273l-0.09205,-3.70421c0,0 -7.0601,11.01795 -24.35066,10.87154c-16.30625,-0.25547 -26.07151,-10.6752 -26.07151,-10.6752l-0.1162,2.65484c0,0 -3.89477,-3.29276 -6.18145,-9.70754c-2.72545,-7.64567 -3.23946,-12.24324 -3.23946,-12.24324c0,0 -2.33908,1.89916 -5.71704,2.7744c-4.23278,1.09673 -6.94665,0.34526 -6.94665,0.34526c0,0 3.60795,-2.71717 5.58396,-4.76989c1.76007,-1.8284 2.64658,-3.37722 2.64658,-3.37722c0,0 -2.10758,1.0847 -4.23277,1.61795c-2.21739,0.5564 -4.03008,0.53093 -4.03008,0.53093c0,0 4.97492,-5.03728 7.03074,-10.87429c1.94102,-5.51108 2.09972,-10.95731 2.09972,-10.95731c0,0 -1.36165,0.66163 -3.33013,0.79513c-1.24776,0.08463 -2.37785,-0.0489 -2.37785,-0.0489z" fill="#000000" stroke="none" stroke-width="1.5"/><path d="M211.56095,116.50643c-0.57709,-7.29323 0.335,-17.15448 0.335,-17.15448c0,0 3.41059,-0.04124 13.91429,-3.14424c8.0696,-2.38394 20.54731,-9.48722 20.54731,-9.48722c0,0 -2.16005,3.00503 -3.40781,4.46015c-1.32651,1.54696 -3.99292,4.56297 -3.99292,4.56297c0,0 7.838,-1.66761 14.67476,-4.72931c8.56837,-3.53575 10.59252,-6.05309 12.95042,-4.5927c2.7829,1.72362 1.03006,23.1827 0.71846,28.74062c-0.42163,5.66922 -2.53327,9.49969 -3.15031,12.52053c-0.61704,3.02084 -0.4096,6.13662 -2.20622,16.0397c-1.12121,6.18021 -4.16183,8.92466 -10.01942,14.66081c-5.85759,5.73616 -9.05378,9.25275 -13.01359,9.32173c-3.81077,0.06639 -8.93565,-5.1002 -13.93542,-10.38244c-5.32393,-5.62474 -8.87489,-8.47713 -9.71551,-15.13975c-0.75707,-6.00039 -0.77653,-9.90853 -1.12266,-15.24835c-0.25298,-3.90273 -2.26119,-6.44504 -2.57636,-10.42801z" fill="#000000" stroke="#000000" stroke-width="1.5"/><path d="M216.07142,116.02619c0.07093,-4.89188 4.83834,-8.93609 10.21137,-8.8582c5.37302,0.0779 9.02724,4.2484 8.95632,9.14029c-0.07093,4.89188 -4.12352,8.79439 -9.49655,8.7165c-5.37302,-0.0779 -9.74207,-4.1067 -9.67114,-8.99859z" fill="#ffffff" stroke="#000000" stroke-width="1.4"/><path d="M243.12767,116.02692c0.20353,-4.88817 4.45264,-8.85847 9.77048,-8.85847c5.31783,0 9.27453,3.96607 9.27453,8.85847c0,4.8924 -3.88585,9.07104 -9.69964,9.14188c-5.52997,0.06739 -9.55792,-4.03692 -9.34537,-9.14188z" fill="#ffffff" stroke="#000000" stroke-width="1.4"/><path d="" data-paper-data="{&quot;index&quot;:null}" fill="#000000" stroke="none" stroke-width="1.5"/><path d="" fill="#ffffff" stroke="none" stroke-width="0.5"/><path d="" fill="#000000" stroke="none" stroke-width="0.5"/><path d="" fill="#ff0000" stroke="none" stroke-width="0.5"/><path d="" fill="#000000" stroke="none" stroke-width="0.5"/><path d="" fill="#000000" stroke="none" stroke-width="0.5"/><path d="" fill="#000000" stroke="none" stroke-width="0.5"/><path d="" fill="#000000" stroke="none" stroke-width="0.5"/><path d="" fill="#000000" stroke="none" stroke-width="0.5"/><path d="" fill="#000000" stroke="none" stroke-width="0.5"/><g><path d="M265.04686,136.86903c0,3.93503 -12.67797,22.25 -26.3125,22.25c-13.63453,0 -22.5625,-21.81497 -22.5625,-25.75c0,-3.93503 7.92797,6.125 21.5625,6.125c13.63453,0 27.3125,-6.56003 27.3125,-2.625z" fill="#000000" stroke="#000000" stroke-width="0"/><path d="M260.06459,136.2866c0,0.1071 -2.3866,3.46361 -4.73787,5.43728c-1.66386,1.39666 -3.12279,1.28957 -4.53436,2.43894c-3.5494,2.89011 -4.66408,3.64298 -5.64726,4.06249c-2.1231,0.90591 -4.33325,0.6863 -5.89302,0.6863c-8.38782,0 -14.8125,-8.05393 -14.8125,-10.125c0,-2.07107 6.42468,-0.5 14.8125,-0.5c8.38782,0 20.8125,-4.07107 20.8125,-2z" fill="url(#color-3)" stroke="#000000" stroke-width="0.5"/><path d="M253.01378,132.27492c5.31286,-0.58229 13.35038,1.55599 13.3403,1.64256c-0.01064,0.09136 -2.74403,3.24791 -6.82882,4.99736c-5.42246,2.32235 -12.74999,3.40371 -14.60054,3.63488c-2.71902,0.33964 -10.62287,0.79672 -14.92154,-0.58663c-2.82747,-0.90991 -5.59985,-2.88323 -8.26474,-4.43862c-4.57886,-2.67251 -8.53038,-8.33102 -8.5347,-8.36893c-0.0023,-0.02014 3.37554,1.13127 5.93717,2.2231c2.365,1.00802 5.3981,0.6812 8.31521,1.93027c5.18507,2.22018 10.00371,5.91022 10.05286,5.91489c0,0 1.18436,-1.74932 2.36886,-2.10461c0.59644,-0.1789 10.66869,-4.57386 13.13594,-4.84428z" fill="url(#color-4)" stroke="#000000" stroke-width="1.4"/><path d="M240.62709,160.03662c-1.20539,0 -2.70313,-0.17015 -4.30761,-0.48242c-5.08259,-0.98921 -11.23623,-3.40454 -12.56063,-6.35479c-0.18593,-0.41418 2.97399,-4.51107 5.02086,-6.96254c0.11562,-0.13847 3.25522,2.9151 6.05286,4.40651c1.37358,0.73225 2.85447,0.42386 3.4851,0.46926c4.65773,0.33528 8.736,-3.75102 10.26774,-3.75102c4.97471,0 5.49582,4.29472 2.61685,7.90966c-2.13505,2.68085 -6.88593,4.76534 -10.57519,4.76534z" fill="url(#color-5)" stroke="none" stroke-width="0"/><path d="M266.38772,134.04557c0.00788,0.06637 -0.9921,4.87791 -2.49521,11.10722c-0.56043,2.32255 -3.22905,6.10338 -7.58329,9.28974c-4.81935,3.52671 -10.15104,8.8654 -14.81212,9.00166c-9.074,0.26525 -14.86726,-5.41237 -15.8321,-6.69013c-1.01373,-1.34251 -5.59185,-4.23012 -7.29707,-9.95088c-2.47674,-8.30908 -5.37901,-17.49919 -5.3717,-17.53186c0.01094,-0.0489 5.1694,6.12587 9.00003,12.10596c3.00165,4.68595 4.75376,9.34886 5.47337,10.16006c0.3625,0.40864 2.96632,2.52563 5.73959,3.10888c2.2397,0.47104 10.6726,2.28032 16.62735,-1.47293c9.34108,-5.88762 16.53371,-19.27463 16.55115,-19.12773z" fill="#000000" stroke="#000000" stroke-width="1.9"/></g><path d="M240.64433,261.12113c-0.81895,0 -1.48284,-0.66389 -1.48284,-1.48284c0,-0.81895 0.66389,-1.48284 1.48284,-1.48284c0.81895,0 1.48284,0.66389 1.48284,1.48284c0,0.81895 -0.66389,1.48284 -1.48284,1.48284z" data-paper-data="{&quot;index&quot;:null}" fill="#000000" stroke="none" stroke-width="1.5"/><path d="M240.01796,116.7117c0,9.69273 -6.45439,17.55025 -14.41628,17.55025c-7.96189,0 -14.41628,-7.85751 -14.41628,-17.55025c0,-9.69273 6.45439,-17.55025 14.41628,-17.55025c7.96189,0 14.41628,7.85751 14.41628,17.55025z" fill="url(#color-6)" stroke="none" stroke-width="0"/><path d="M267.58256,116.69735c0,9.69274 -6.45438,17.55025 -14.41627,17.55025c-7.96189,0 -14.41628,-7.85751 -14.41628,-17.55025c0,-9.69273 6.45439,-17.55025 14.41628,-17.55025c7.96189,0 14.41627,7.85752 14.41627,17.55025z" fill="url(#color-7)" stroke="none" stroke-width="0"/></g></g></svg>