<svg version="1.1" xmlns="http://www.w3.org/2000/svg" xmlns:xlink="http://www.w3.org/1999/xlink" width="128.49306" height="251.7642" viewBox="0,0,128.49306,251.7642"><defs><linearGradient x1="237.47415" y1="157.58005" x2="237.47415" y2="250.1853" gradientUnits="userSpaceOnUse" id="color-1"><stop offset="0" stop-color="#45008a"/><stop offset="1" stop-color="#ca00ff"/></linearGradient></defs><g transform="translate(-183.3788,-54.75801)"><g data-paper-data="{&quot;isPaintingLayer&quot;:true}" fill-rule="nonzero" stroke-linejoin="miter" stroke-miterlimit="10" stroke-dasharray="" stroke-dashoffset="0" style="mix-blend-mode: normal"><path d="M224.36742,259.41395c0,0 -15.24694,-2.77851 -22.0721,-19.56302c-6.63268,-16.31117 -4.8485,-46.55386 -4.88792,-52.44899c-0.05451,-8.15261 8.18688,-36.76129 40.20201,-36.9211c31.60235,-0.15775 39.85672,29.48704 39.84884,36.89673c-0.01128,6.81015 0.32096,117.65315 0.32096,117.65315l-9.66334,-0.07053l-0.65882,-114.34311c0,0 0.07549,-3.0993 -2.81625,-3.15415c-3.43441,-0.06514 -2.94538,3.11562 -2.94538,3.11562l0.20548,114.86995l-48.21366,0.07222l-0.30539,-115.23309c0,0 0.27949,-2.919 -2.8856,-2.93443c-3.11083,-0.01515 -2.81569,2.90899 -2.81569,2.90899c0,0 2.26049,35.54817 6.09932,45.62037c3.3119,8.68964 15.58712,11.27976 15.58712,11.27976z" fill="#ffffff" stroke="#000000" stroke-width="2" stroke-linecap="butt"/><g stroke-linecap="butt"><g stroke="#000000" stroke-width="0"><path d="M216.09352,275.99757l84.74541,-131.34437c0,0 4.86413,0.53408 6.64679,1.68428c1.88883,1.21871 4.38613,5.43433 4.38613,5.43433l-84.7454,131.34437c0,0 -4.83588,-0.51586 -6.61207,-1.66188c-1.8939,-1.22197 -4.42086,-5.45673 -4.42086,-5.45673z" fill="#000000"/><path d="M216.09352,275.99757l84.74541,-131.34437c0,0 2.92344,4.11852 4.7061,5.26872c1.88883,1.21871 6.32683,1.84989 6.32683,1.84989l-84.7454,131.34437c0,0 -4.83588,-0.51586 -6.61207,-1.66188c-1.8939,-1.22197 -4.42086,-5.45673 -4.42086,-5.45673z" fill="#313131"/></g><g fill="none" stroke="none" stroke-width="1" font-family="sans-serif" font-weight="normal" font-size="12" text-anchor="start"/><g data-paper-data="{&quot;index&quot;:null}" fill="#ffffff" stroke="#000000" stroke-width="2"><path d="M250.15138,262.02763c-3.19518,5.05529 -8.11229,7.68268 -10.98265,5.86847c-2.87038,-1.81421 -2.60706,-7.38305 0.58812,-12.43833c3.19518,-5.05528 8.1123,-7.68268 10.98266,-5.86847c2.87038,1.81421 2.60705,7.38305 -0.58813,12.43833z"/><path d="M222.40621,266.42039c0,0 -2.70864,-5.58979 -1.89799,-8.17415c1.17072,-3.73222 4.63578,-9.85834 4.63578,-9.85834c0,0 1.29514,-5.53456 1.79208,-6.45517c0.94857,-1.75727 6.4238,-4.17883 6.4238,-4.17883c0,0 7.45792,2.77285 10.85424,4.83979c2.47456,1.50597 7.64868,6.42071 7.64868,6.42071l-3.52332,7.78152l-4.72755,-1.94121c0,0 4.23541,3.028 3.78679,3.91658c-1.54559,3.06132 -4.59853,5.45357 -6.82852,8.43928c-0.16424,0.2199 -1.66775,2.18587 -1.84577,2.37178c-3.48401,3.63865 -7.33609,1.86385 -7.33609,1.86385z"/></g></g><path d="M186.8013,107.08433l3.98392,-3.98493c0,0 0.48606,-3.67554 1.07539,-6.32764c0.43774,-1.96995 6.22211,-21.20628 6.2323,-21.27504c0.00481,-0.03244 8.7157,-11.59044 15.13792,-13.41549c3.68469,-1.0471 17.39259,-5.76791 17.71872,-5.78055c2.30506,-0.04718 8.44775,-0.93717 8.44775,-0.93717c0,0 2.07986,-0.76791 2.82476,-0.57415c0.60571,0.15756 1.31404,1.65074 1.31404,1.65074c0,0 2.70094,-1.44118 4.19824,-1.02987c2.6157,0.71854 10.11113,4.9607 10.11113,4.9607c0,0 -3.94854,0.50764 -3.04525,1.04541c3.43378,2.04425 6.096,4.54879 8.17044,7.29711c1.99994,2.64961 3.6737,7.54608 5.29187,11.0958c0.86313,1.89342 2.42593,3.88066 2.42593,3.88066l-1.6685,0.09004c0,0 1.29714,2.26136 1.70269,5.21406c0.58656,4.2706 0.39988,9.86604 0.8689,11.14142c0.2652,0.72115 1.85961,5.72989 1.85961,5.72989c0,0 -1.54133,-1.33732 -1.28296,-0.62042c2.66327,7.38993 4.57999,13.06847 4.57999,13.06847c0,0 -1.43382,-0.83129 -2.74637,-1.91175c-0.66578,-0.54805 -0.10579,1.26436 0.94908,3.03187c0.88477,1.4825 2.24949,2.9334 2.24949,2.9334l-5.24626,-0.40789c0,0 0.83687,2.31059 1.31572,3.20457c0.41961,0.78339 1.73652,1.76036 1.73652,1.76036l-2.87901,0.08888c0,0 1.58186,4.9008 1.488,6.91022c-0.13084,2.80127 -2.21517,6.80551 -2.21517,6.80551c0,0 -0.93579,-5.64258 -1.10373,-4.92702c-0.8044,3.42731 -1.23268,6.4357 -2.38279,8.93409c-1.68814,3.66716 -4.03352,5.88503 -4.03352,5.88503l0.87653,4.30345c0,0 -5.12308,-0.33867 -5.33465,-0.12758c-0.2147,0.21421 2.07067,3.7738 2.07067,3.7738l-6.54582,-0.7809c0,0 -3.15795,2.6123 -4.88322,3.52532c-1.63913,0.86744 -5.22322,1.82308 -5.22322,1.82308l-0.80634,-1.84707c0,0 -1.13993,1.17208 -3.34588,1.95635c-2.49259,0.88619 -6.22764,1.39585 -9.00478,1.37233c-16.30625,-0.25547 -23.64294,-7.84663 -23.64294,-7.84663l0.74094,3.22627c0,0 -1.7069,-1.84443 -3.28408,-3.97395c-1.69318,-2.28615 -3.30222,-4.90088 -4.47239,-5.91484c-0.15908,-0.13784 -0.51622,3.02926 -0.51622,3.02926c0,0 -1.45034,-2.64963 -2.20207,-4.50743c-0.84529,-2.08903 -1.34622,-3.99684 -1.54797,-4.5628c-0.36355,-1.01988 -1.67849,3.15969 -1.67849,3.15969c0,0 -1.39738,-3.58196 -1.42656,-5.11289c-0.02583,-1.35512 1.26029,-3.60972 1.26029,-3.60972l-3.5084,0.37072c0,0 1.90211,-2.30809 2.26494,-3.24337c0.39616,-1.02119 0.02084,-2.6487 0.02084,-2.6487c0,0 -2.15037,0.53107 -3.33357,0.83764c-4.23278,1.09673 -6.94665,0.34526 -6.94665,0.34526c0,0 3.60795,-2.71717 5.58396,-4.76989c1.76007,-1.8284 2.64658,-3.37722 2.64658,-3.37722c0,0 -2.10758,1.0847 -4.23277,1.61795c-2.21739,0.5564 -4.03008,0.53093 -4.03008,0.53093l4.39688,-5.46486l-2.46614,-0.00943c0,0 3.32084,-3.28243 4.01374,-6.73825c0.64181,-3.20099 1.48598,-9.21905 1.48598,-9.21905c0,0 0.33835,0.26163 -1.63013,0.39513c-1.24776,0.08463 -2.37785,-0.0489 -2.37785,-0.0489z" fill="#000000" stroke="none" stroke-width="1.5" stroke-linecap="butt"/><path d="M204.33711,117.10842c-0.57709,-7.29323 0.335,-17.15448 0.335,-17.15448c0,0 3.41059,-0.04124 13.91429,-3.14424c8.0696,-2.38394 7.29424,-1.65586 7.29424,-1.65586c0,0 3.56287,-1.21185 2.31511,0.24326c-1.32651,1.54696 3.53723,0.9485 3.53723,0.9485c0,0 6.33197,2.85049 13.16873,-0.21121c4.65385,-1.92042 6.84399,-0.01025 8.25161,0.44342c1.18399,0.3816 1.81435,-0.88402 2.89157,-0.21683c2.7829,1.72362 4.34333,13.84531 4.03173,19.40323c-0.42163,5.66922 -2.53327,9.49969 -3.15031,12.52053c-0.61704,3.02084 -0.4096,6.13662 -2.20622,16.0397c-1.12121,6.18021 -4.16183,8.92466 -10.01942,14.66081c-5.85759,5.73616 -9.05378,9.25275 -13.01359,9.32173c-3.81077,0.06639 -8.93565,-5.1002 -13.93542,-10.38244c-5.32393,-5.62474 -8.87489,-8.47713 -9.71551,-15.13975c-0.75707,-6.00039 -0.77653,-9.90853 -1.12266,-15.24835c-0.25298,-3.90273 -2.26119,-6.44504 -2.57636,-10.42801z" fill="#ffffff" stroke="#000000" stroke-width="1.5" stroke-linecap="butt"/><path d="M252.40709,97.82138c0,0 1.52429,0.31807 4.2558,1.11029c2.49492,0.72361 4.44935,1.74403 4.44935,1.74403l0.1951,1.17035c0,0 -7.24963,-3.12997 -15.1158,-2.4706c-6.2896,0.52724 -9.96319,2.8124 -9.96319,2.8124l0.04575,-4.17683c0,0 3.12748,-1.70421 7.86366,-1.85557c4.90428,-0.15672 8.09084,0.59125 8.09084,0.59125z" data-paper-data="{&quot;index&quot;:null}" fill="#000000" stroke="none" stroke-width="1.5" stroke-linecap="butt"/><path d="M231.96927,146.53552c-1.03376,0 -3.5381,-3.26042 -3.7867,-5.3637c-0.22243,-1.88186 1.31512,-3.82799 3.7867,-3.82799c2.47159,0 4.2021,0.49077 4.02999,4.18853c-0.14607,3.13818 -1.55841,5.00317 -4.02999,5.00317z" fill="#ffffff" stroke="#000000" stroke-width="1.15" stroke-linecap="butt"/><path d="M206.03678,127.23164c0,0 -4.93211,-3.51705 -6.16417,-8.97502c-1.29636,-5.74284 -1.46118,-9.7328 0.48013,-9.99193c1.94131,-0.25915 2.70321,2.37692 3.73262,8.35569c1.0294,5.97877 1.95143,10.61127 1.95143,10.61127z" data-paper-data="{&quot;index&quot;:null}" fill="#ffffff" stroke="#000000" stroke-width="1" stroke-linecap="butt"/><path d="M205.83416,123.28408c0,0 -3.56385,-2.92338 -4.31816,-8.45061c-0.42079,-3.08327 2.15675,-2.28016 2.15675,-2.28016" fill="none" stroke="#000000" stroke-width="0.25" stroke-linecap="round"/><path d="M208.84758,116.62818c0.07093,-4.89188 4.83834,-8.93609 10.21137,-8.8582c5.37302,0.0779 9.02724,4.2484 8.95632,9.14029c-0.07093,4.89188 -4.12352,8.79439 -9.49655,8.7165c-5.37302,-0.0779 -9.74207,-4.1067 -9.67114,-8.99859z" fill="#ffffff" stroke="#000000" stroke-width="1.4" stroke-linecap="butt"/><path d="M210.57627,116.74612c0.03999,-2.75843 2.30855,-4.96213 5.06696,-4.92214c2.75843,0.03999 4.96213,2.30855 4.92214,5.06696c-0.03999,2.75843 -2.30854,4.96213 -5.06696,4.92214c-2.75843,-0.03999 -4.96213,-2.30855 -4.92214,-5.06696z" fill="#000000" stroke="none" stroke-width="1.5" stroke-linecap="butt"/><path d="M235.90385,116.62891c0.20353,-4.88817 4.45264,-8.85847 9.77048,-8.85847c5.31783,0 9.27453,3.96607 9.27453,8.85847c0,4.8924 -3.88585,9.07104 -9.69964,9.14188c-5.52997,0.06739 -9.55792,-4.03692 -9.34537,-9.14188z" fill="#ffffff" stroke="#000000" stroke-width="1.4" stroke-linecap="butt"/><path d="M237.49668,116.71446c0,-2.81845 2.2848,-5.10325 5.10325,-5.10325c2.81845,0 5.10325,2.2848 5.10325,5.10325c0,2.81845 -2.28479,5.10325 -5.10325,5.10325c-2.81845,0 -5.10325,-2.2848 -5.10325,-5.10325z" fill="#b9b9b9" stroke="none" stroke-width="1.5" stroke-linecap="butt"/><path d="M255.62311,116.33752c0,0 0.29735,9.01045 -10.23936,9.24218c-9.47006,0.21338 -9.92444,-9.0172 -9.92444,-9.0172c0,0 6.42486,6.31364 9.78847,6.27611c3.35764,-0.03746 10.37533,-6.50108 10.37533,-6.50108z" fill="#ffffff" stroke="#000000" stroke-width="1.15" stroke-linecap="butt"/><path d="M212.07752,100.52876c0,0 3.36963,-1.819 8.03244,-2.28178c5.16698,-0.51283 7.76823,-0.06628 7.76823,-0.06628l0.29508,4.13747c0,0 -3.83554,-0.68065 -8.01795,-0.52113c-5.59346,0.21333 -6.64488,1.43293 -10.89774,1.89119c-3.64408,0.39266 -6.73723,0.15884 -6.73723,0.15884l-0.02589,-1.23155c0,0 3.59517,0.07398 5.23371,-0.06836c1.35239,-0.11749 3.9757,-0.93808 3.9757,-0.93808z" fill="#000000" stroke="none" stroke-width="1.5" stroke-linecap="butt"/><path d="M260.26986,116.62037c1.0294,-5.97877 1.7913,-8.61483 3.73262,-8.35569c1.94131,0.25914 1.77649,4.24909 0.48013,9.99193c-1.23206,5.45797 -6.16417,8.97502 -6.16417,8.97502c0,0 0.92203,-4.6325 1.95143,-10.61127z" data-paper-data="{&quot;index&quot;:null}" fill="#ffffff" stroke="#000000" stroke-width="1" stroke-linecap="butt"/><path d="M260.68244,112.55331c0,0 2.57754,-0.80312 2.15675,2.28016c-0.75431,5.52723 -4.31816,8.45061 -4.31816,8.45061" data-paper-data="{&quot;index&quot;:null}" fill="none" stroke="#000000" stroke-width="0.25" stroke-linecap="round"/><path d="" data-paper-data="{&quot;index&quot;:null}" fill="#000000" stroke="none" stroke-width="1.5" stroke-linecap="butt"/><path d="" fill="#ffffff" stroke="none" stroke-width="0.5" stroke-linecap="butt"/><path d="" fill="#000000" stroke="none" stroke-width="0.5" stroke-linecap="butt"/><path d="" fill="#ff0000" stroke="none" stroke-width="0.5" stroke-linecap="butt"/><path d="" fill="#000000" stroke="none" stroke-width="0.5" stroke-linecap="butt"/><path d="" fill="#000000" stroke="none" stroke-width="0.5" stroke-linecap="butt"/><path d="" fill="#000000" stroke="none" stroke-width="0.5" stroke-linecap="butt"/><path d="" fill="#000000" stroke="none" stroke-width="0.5" stroke-linecap="butt"/><path d="" fill="#000000" stroke="none" stroke-width="0.5" stroke-linecap="butt"/><path d="" fill="#000000" stroke="none" stroke-width="0.5" stroke-linecap="butt"/><path d="M255.73589,120.02173c0,0 1.04923,9.19842 -9.48748,9.43015c-9.47006,0.21338 -10.30038,-9.0172 -10.30038,-9.0172c0,0 1.56434,2.81946 3.55831,4.16669c2.10568,1.42271 4.69049,1.37681 6.41813,1.35754c1.6148,-0.01802 4.36513,-0.78455 6.395,-2.16089c2.19083,-1.48548 3.41643,-3.77629 3.41643,-3.77629z" fill="#b1b1b1" stroke="#000000" stroke-width="0" stroke-linecap="butt"/><path d="M212.06249,123.53484c2.02987,1.37633 4.7802,2.14287 6.395,2.16088c1.72763,0.01927 4.31244,0.06517 6.41813,-1.35754c1.99398,-1.34723 3.55831,-4.16669 3.55831,-4.16669c0,0 -0.83032,9.23058 -10.30038,9.0172c-10.53671,-0.23173 -9.48749,-9.43015 -9.48749,-9.43015c0,0 1.22559,2.29082 3.41643,3.77629z" data-paper-data="{&quot;index&quot;:null}" fill="#b1b1b1" stroke="#000000" stroke-width="0" stroke-linecap="butt"/><path d="M208.67932,250.78771l8.13257,-9.33739l6.02412,3.91568l-6.02412,10.54222z" fill="#a700bd" stroke="#000000" stroke-width="1" stroke-linecap="butt"/><path d="M268.92055,286.33005l-1.20482,-65.66296l9.6386,-15.96393l0.30121,81.02447z" fill="#a700bd" stroke="#000000" stroke-width="1" stroke-linecap="butt"/><path d="M213.49862,304.10122v-18.37358c0,0 17.38061,1.07455 25.2538,-0.03578c7.78863,-1.0984 22.03558,-29.78364 22.03558,-29.78364l-0.60241,48.19299z" fill="#a700bd" stroke="#000000" stroke-width="1" stroke-linecap="butt"/><path d="M252.57136,202.07784c0,-0.81115 0.65757,-1.46872 1.46872,-1.46872c0.81115,0 1.46872,0.65758 1.46872,1.46872c0,0.81115 -0.65757,1.46872 -1.46872,1.46872c-0.81115,0 -1.46872,-0.65757 -1.46872,-1.46872z" fill="#000000" stroke="none" stroke-width="1.5" stroke-linecap="butt"/><path d="M251.07647,205.73944c3.07429,0.08423 5.70257,-0.94671 6.01236,-0.94671c0.71283,0 1.29068,0.57787 1.29068,1.29068c0,0.71283 -0.57787,1.29068 -1.29068,1.29068c-0.38067,0 -5.59885,0.10289 -9.38376,-0.49047c-3.30251,-0.51773 -5.25889,-1.71425 -5.25889,-2.04641c0,-0.40303 4.6309,0.79262 8.63027,0.90219z" data-paper-data="{&quot;index&quot;:null}" fill="#000000" stroke="none" stroke-width="1.5" stroke-linecap="butt"/><path d="M198.73953,216.45021c0,0 -1.38055,-17.40313 -0.45752,-28.24979c0.66599,-7.82619 1.89159,-9.82154 3.10054,-14.23885c2.03011,-7.41769 11.51368,-15.64416 11.51368,-15.64416c0,0 1.60406,-0.65084 4.15398,-0.49256c3.49445,0.21691 8.50079,1.42443 11.17208,3.07436c5.07457,3.13432 4.65118,12.14146 10.24917,11.91956c2.99675,-0.11879 11.74745,-13.70189 15.26102,-11.27196c2.03505,1.40741 8.10084,-6.38823 9.27318,-3.18896c1.10765,3.02272 12.11057,11.25711 11.88393,16.56215c-0.15795,3.69726 3.82145,6.87901 1.19621,9.30601c-1.24487,1.15087 -4.2624,9.66218 -6.46615,10.44811c-3.96891,1.41545 -7.3256,-5.33248 -7.3256,-5.33248c0,0 -6.28901,7.17728 -11.22323,12.80844c-9.55545,10.90509 -42.09027,48.03522 -42.09027,48.03522c0,0 -5.75378,-9.20872 -7.44643,-14.78452c-1.72056,-5.66773 -2.79458,-18.95058 -2.79458,-18.95058z" fill="url(#color-1)" stroke="#000000" stroke-width="1" stroke-linecap="butt"/><path d="M200.24556,227.28724l-2.71086,-39.15681l28.01218,9.03619l36.14475,-9.03619c0,0 -15.09619,17.14312 -29.02145,33.64595c-11.79318,13.9761 -22.49102,27.91885 -25.11764,26.18476c-3.78108,-2.49625 -7.30697,-20.6739 -7.30697,-20.6739z" fill="#550060" stroke="#000000" stroke-width="1" stroke-linecap="butt"/><path d="M198.43832,192.04611c0,0 0.88186,-12.17544 3.47455,-18.26033c2.2891,-5.37239 11.28455,-16.37838 11.28455,-16.37838c0,0 5.28731,10.29891 8.57336,14.40647c2.54868,3.18584 9.49902,8.18399 9.49902,8.18399c0,0 5.47657,2.73721 8.81059,3.63483c5.73777,1.54478 22.51485,4.79894 22.51485,4.79894c0,0 -25.98013,9.03619 -36.44595,9.03619c-10.31523,0 -27.71097,-5.42171 -27.71097,-5.42171z" fill="#9b00af" stroke="#000000" stroke-width="1" stroke-linecap="butt"/><g><path d="M241.64883,153.68527c0,4.01748 -5.83501,7.27427 -13.03287,7.27427c-7.19786,0 -13.03287,-3.2568 -13.03287,-7.27427c0,-4.01748 5.69216,-4.84571 12.89002,-4.84571c7.19786,0 13.17573,0.82824 13.17573,4.84571z" fill="#ffffff" stroke="none" stroke-width="NaN" stroke-linecap="butt"/><path d="M233.2544,148.77692c0.24666,0.02641 0.6086,-1.62699 2.34631,-2.35288c1.67939,-0.70152 4.07183,-0.47938 5.53918,-0.28853c1.61805,0.61504 10.03261,5.09465 10.03261,5.09465c0,0 -6.35924,-0.0911 -9.57295,0.362c-2.69313,0.37971 -14.82476,-0.66433 -18.02124,-1.45574c-1.49167,-0.36932 -3.67129,0.50065 -5.67569,0.32552c-2.6745,-0.23368 -6.60846,-1.87291 -6.60846,-1.87291c0,0 7.6019,-5.78777 8.55758,-5.93574c4.65641,-0.72094 13.15736,6.09735 13.40264,6.12361z" fill="#ffffff" stroke="#000000" stroke-width="1.25" stroke-linecap="butt"/><path d="M245.1092,153.30041c0,0 -4.84153,1.66172 -11.79029,1.29699c-5.33676,-0.28011 -18.20971,-3.05735 -18.20971,-3.05735" fill="none" stroke="#000000" stroke-width="0.5" stroke-linecap="round"/><path d="M230.58862,166.04719c-16.27509,-0.75991 -18.7577,-16.86746 -18.7577,-16.86746c0,0 2.63751,0.0298 5.05334,1.46116c2.12793,1.26078 2.74938,4.96601 5.93042,5.38612c3.18105,0.4201 16.93874,-3.16583 19.57047,-3.47724c2.04031,-0.24143 9.09913,-0.5971 9.09913,-0.5971c0,0 -6.27707,14.51703 -20.89566,14.09453z" fill="#ffffff" stroke="#000000" stroke-width="1.9" stroke-linecap="butt"/></g><path d="M235.57137,116.4418c0,0 0.1026,3.96976 0.00576,7.12662c-0.19174,6.25113 -1.08147,27.7607 -1.08147,27.7607l-2.98167,0.00864c0,0 -0.80294,-4.17274 -1.12322,-9.49979c-0.43353,-7.21063 -0.4495,-16.29321 -0.76344,-19.63229c-0.29758,-3.16513 -0.89593,-5.71453 -0.89593,-5.71453" fill="#ffffff" stroke="#000000" stroke-width="1.3" stroke-linecap="round"/></g></g></svg>