<svg version="1.1" xmlns="http://www.w3.org/2000/svg" xmlns:xlink="http://www.w3.org/1999/xlink" width="35.67311" height="35.67311" viewBox="0,0,35.67311,35.67311"><defs><linearGradient x1="240.00004" y1="162.9135" x2="240.00004" y2="197.08659" gradientUnits="userSpaceOnUse" id="color-1"><stop offset="0" stop-color="#5425b1"/><stop offset="1" stop-color="#32166a"/></linearGradient></defs><g transform="translate(-222.16347,-162.1635)"><g data-paper-data="{&quot;isPaintingLayer&quot;:true}" stroke-miterlimit="10" stroke-dasharray="" stroke-dashoffset="0" style="mix-blend-mode: normal"><path d="M229.98311,162.91345h20.03379c3.9166,0 7.06966,3.15307 7.06966,7.06966v20.03379c0,3.91659 -3.15306,7.06966 -7.06966,7.06966h-20.03379c-3.91659,0 -7.06966,-3.15307 -7.06966,-7.06966v-20.03379c0,-3.91659 3.15307,-7.06966 7.06966,-7.06966z" fill-opacity="0.35" fill="#4d4d4d" fill-rule="evenodd" stroke="none" stroke-width="4.43922" stroke-linecap="round" stroke-linejoin="round"/><path d="M229.98314,162.9135h20.03379c3.9166,0 7.06966,3.15307 7.06966,7.06966v20.03379c0,3.91659 -3.15306,7.06966 -7.06966,7.06966h-20.03379c-3.91659,0 -7.06966,-3.15307 -7.06966,-7.06966v-20.03379c0,-3.91659 3.15307,-7.06966 7.06966,-7.06966z" fill="url(#color-1)" fill-rule="evenodd" stroke="#000000" stroke-width="1.5" stroke-linecap="round" stroke-linejoin="round"/><g fill="#000000" fill-rule="nonzero" stroke="#ffffff" stroke-width="1" stroke-linecap="butt" stroke-linejoin="miter"><path d="M229.81021,173.7707c3.56193,-4.88721 11.25963,-5.56789 16.62755,-1.65562c5.3679,3.91225 6.0808,10.72919 2.51888,15.61642c-3.56193,4.88721 -10.437,5.93488 -15.80492,2.02262c-5.3679,-3.91225 -6.90345,-11.09619 -3.34152,-15.98341z"/><path d="M227.59552,175.74219c0,0 2.85223,-10.62662 15.77322,-7.02033c11.61479,3.23526 8.87536,14.17661 8.87536,14.17661c0,0 -7.20799,-7.53149 -11.24861,-8.70462c-4.1714,-1.21109 -13.39996,1.54834 -13.39996,1.54834z"/></g></g></g></svg>