<svg version="1.1" xmlns="http://www.w3.org/2000/svg" xmlns:xlink="http://www.w3.org/1999/xlink" width="325.55784" height="261.35298" viewBox="0,0,325.55784,261.35298"><defs><linearGradient x1="309.56118" y1="90.80588" x2="309.56118" y2="347.15885" gradientUnits="userSpaceOnUse" id="color-1"><stop offset="0" stop-color="#fbf5f1"/><stop offset="1" stop-color="#f6e9e0"/></linearGradient></defs><g transform="translate(-146.78228,-88.30587)"><g data-paper-data="{&quot;isPaintingLayer&quot;:true}" fill-rule="nonzero" stroke-linejoin="miter" stroke-miterlimit="10" stroke-dasharray="" stroke-dashoffset="0" style="mix-blend-mode: normal"><path d="M149.28228,347.15885v-256.35298h320.55784v256.35298z" fill="url(#color-1)" stroke="#000000" stroke-width="5" stroke-linecap="butt"/><path d="M149.28228,347.15885v-256.35298h320.55784v256.35298z" fill="#ffffff" stroke="#000000" stroke-width="5" stroke-linecap="butt"/><path d="M151.36756,171.74708v-79.45043h142.5v79.45043z" fill="#000000" stroke="none" stroke-width="0" stroke-linecap="butt"/><text transform="translate(154.61756,108.06335) scale(0.37277,0.37277)" font-size="40" xml:space="preserve" fill="#ffffff" fill-rule="nonzero" stroke="none" stroke-width="1" stroke-linecap="butt" stroke-linejoin="miter" stroke-miterlimit="10" stroke-dasharray="" stroke-dashoffset="0" font-family="Serif" font-weight="normal" text-anchor="start" style="mix-blend-mode: normal"><tspan x="0" dy="0">Name: Dimitry Ruv</tspan><tspan x="0" dy="46.150000000000006px">Age: 27</tspan><tspan x="0" dy="46.150000000000006px">Gender: Male</tspan><tspan x="0" dy="46.150000000000006px">Allignment: LG</tspan></text><path d="M151.33476,194.07525v-23.23176h93.46352v23.23176z" fill="#000000" stroke="none" stroke-width="0" stroke-linecap="butt"/><text transform="translate(157.31651,187.11026) scale(0.42192,0.42192)" font-size="40" xml:space="preserve" fill="#ffffff" fill-rule="nonzero" stroke="none" stroke-width="1" stroke-linecap="butt" stroke-linejoin="miter" stroke-miterlimit="10" stroke-dasharray="" stroke-dashoffset="0" font-family="Serif" font-weight="normal" text-anchor="start" style="mix-blend-mode: normal"><tspan x="0" dy="0">Description:</tspan></text><text transform="translate(154.06694,206.93825) scale(0.28039,0.28039)" font-size="40" xml:space="preserve" fill="#000000" fill-rule="nonzero" stroke="none" stroke-width="1" stroke-linecap="butt" stroke-linejoin="miter" stroke-miterlimit="10" stroke-dasharray="" stroke-dashoffset="0" font-family="Serif" font-weight="normal" text-anchor="start" style="mix-blend-mode: normal"><tspan x="0" dy="0">Dimitry is our leader. He's been kidnapped by Donk multiple times,</tspan><tspan x="0" dy="48px">yet still remains our most loyal member. We appointed him to be our</tspan><tspan x="0" dy="48px">new leader about half a year ago when Arao started getting... cranky.</tspan><tspan x="0" dy="48px"> </tspan><tspan x="0" dy="48px">Not much to say. All round amazing guy, resilient, and useful. I think</tspan><tspan x="0" dy="48px">this attack will go perfect with him in charge. He also has several life</tspan><tspan x="0" dy="48px">threatening injuries, but hes living and that's the main part.</tspan><tspan x="0" dy="48px">(i love you)</tspan></text><path d="M468.67013,171.65297h-225" fill="none" stroke="#000000" stroke-width="2.5" stroke-linecap="round"/><text transform="translate(328.82813,109.56132) scale(0.43004,0.43004)" font-size="40" xml:space="preserve" fill="#000000" fill-rule="nonzero" stroke="none" stroke-width="1" stroke-linecap="butt" stroke-linejoin="miter" stroke-miterlimit="10" stroke-dasharray="" stroke-dashoffset="0" font-family="Serif" font-weight="normal" text-anchor="start" style="mix-blend-mode: normal"><tspan x="0" dy="0">Icon:</tspan></text><text transform="translate(397.66145,109.93667) scale(0.42367,0.42367)" font-size="40" xml:space="preserve" fill="#000000" fill-rule="nonzero" stroke="none" stroke-width="1" stroke-linecap="butt" stroke-linejoin="miter" stroke-miterlimit="10" stroke-dasharray="" stroke-dashoffset="0" font-family="Serif" font-weight="normal" text-anchor="start" style="mix-blend-mode: normal"><tspan x="0" dy="0">Sound:</tspan></text><g fill="#000000" stroke="#ff0000" stroke-width="1" stroke-linecap="butt"><path d="M461.95925,327.37685c0,7.13978 -5.78794,12.92772 -12.92772,12.92772c-7.13978,0 1.31468,-6.00705 1.31468,-13.14683c0,-7.13978 -8.45447,-12.70861 -1.31468,-12.70861c7.13978,0 12.92772,5.78794 12.92772,12.92772z"/><path d="M434.57001,331.97826v-9.86013l8.76456,-6.57342c0,0 1.12156,2.83253 2.54216,5.62998c1.18783,2.33908 2.27835,3.71126 2.27835,4.88749c0,0.90223 -0.86154,3.62391 -1.92707,5.83203c-1.72667,3.57819 -3.55077,7.75303 -3.55077,7.75303z"/><path d="M461.00976,316.45768c0,1.53475 -2.34164,-1.69063 -6.92011,-3.55443c-2.34085,-0.95291 -5.07216,-0.86437 -7.76052,-0.86437c-0.66484,0 -1.35286,0.13043 -1.93358,0.34429c-1.45839,0.53706 -2.77373,1.45416 -4.04713,2.29885c-4.28013,2.83917 -7.16613,6.7004 -7.16613,5.06237c0,-2.31942 6.29586,-10.70006 14.2424,-10.70006c7.94654,0 13.58506,5.09393 13.58506,7.41335z"/></g><text transform="translate(154.09962,325.37156) scale(0.16386,0.16386)" font-size="40" xml:space="preserve" fill="#000000" fill-rule="nonzero" stroke="none" stroke-width="1" stroke-linecap="butt" stroke-linejoin="miter" stroke-miterlimit="10" stroke-dasharray="" stroke-dashoffset="0" font-family="Sans Serif" font-weight="normal" text-anchor="start" style="mix-blend-mode: normal"><tspan x="0" dy="0">THIS DOCUMENT IS NOT TO BE</tspan><tspan x="0" dy="46.150000000000006px">SHARED WITH ANYBODY AFFILIATED</tspan><tspan x="0" dy="46.150000000000006px">WITH DONK INDUSTRIES</tspan></text><path d="M217.45353,296.96335c0,-0.55228 0.44772,-1 1,-1c0.55228,0 1,0.44772 1,1c0,0.55228 -0.44772,1 -1,1c-0.55228,0 -1,-0.44772 -1,-1z" fill="#000000" stroke="none" stroke-width="0.5" stroke-linecap="butt"/><path d="M224.43344,297.59789c0,-0.55228 0.44772,-1 1,-1c0.55228,0 1,0.44772 1,1c0,0.55228 -0.44772,1 -1,1c-0.55228,0 -1,-0.44772 -1,-1z" fill="#000000" stroke="none" stroke-width="0.5" stroke-linecap="butt"/><path d="M231.21684,302.60162c0.70711,0.70711 0,1.41421 0,1.41421l-0.63454,0.63454c-3.03867,2.83339 -9.04766,1.95148 -12.57599,0.18732c-0.44778,-0.22389 -2.79169,-1.35535 -2.94159,-1.63777c-0.38035,-0.71663 -0.09957,-1.61956 -0.14935,-2.42934c0,0 0,-1 1,-1c1,0 1,1 1,1c-0.04978,0.45929 -0.33391,0.95436 -0.14935,1.37788c0.30852,0.70797 1.44397,0.55501 2.13471,0.90038c2.57652,1.28826 8.18372,2.50839 10.26735,0.18732l0.63454,-0.63454c0,0 0.70711,-0.70711 1.41421,0z" fill="#000000" stroke="none" stroke-width="0.5" stroke-linecap="butt"/><path d="M220.99168,316.36493c-1,0 -1,-1 -1,-1l0.55279,-0.37465c-2.4958,-1.34155 -1.65395,-1.94584 -2.30705,-4.17592c-0.01948,-0.06651 -0.05106,-0.11919 -0.09253,-0.16042c0.03957,0.15311 0.03957,0.26923 0.03957,0.26923l-0.55279,1.52896c-1.29505,0.64752 -3.82051,1.33597 -4.8164,2.35083c-0.38086,0.38811 -0.32594,1.17679 -0.81591,1.41262c-0.73104,0.35186 -1.61956,0.09957 -2.42934,0.14935c-2.49174,0 -4.65906,-0.32893 -7.10209,-0.64203c-3.76564,-0.48261 -8.08619,0.6707 -11.68217,-0.70317c-0.55885,-0.21351 -0.71437,-1.04502 -1.26907,-1.26907c-0.5413,-0.21864 -1.17879,0.16667 -1.75068,0.04937c-3.27462,-0.67166 -5.46976,-4.13391 -6.42976,-7.00239c0,0 -0.31623,-0.94868 0.63246,-1.26491c0.94868,-0.31623 1.26491,0.63246 1.26491,0.63246c0.74411,2.24197 2.40871,5.18546 4.9919,5.68835c0.67308,0.13103 1.4191,-0.20335 2.05654,0.04937c0.55614,0.22048 0.7127,1.04918 1.26907,1.26907c0.55379,0.21887 1.1973,-0.15563 1.78535,-0.0619c2.5264,0.40269 4.71052,0.61529 7.35002,0.62032c2.98324,0.00569 5.857,0.63454 8.88352,0.63454c0.45929,0.04978 0.97021,0.36669 1.37788,0.14935c0.35689,-0.19027 0.16466,-0.84208 0.45316,-1.12553c1.08127,-1.06232 3.2388,-1.78168 4.78341,-2.46677c0.00013,-0.01254 0.0023,-0.12249 0.03883,-0.26518c-2.21738,0.01651 -4.43595,-0.0027 -6.65328,-0.0027c0,0 -1,0 -1,-1c0,-1 1,-1 1,-1c2.1921,0 8.99479,-1.13146 10.36871,1.10881c0.65376,1.06601 0.35689,2.93188 1.50017,3.43853l0.55279,2.1635c0,0 0,1 -1,1zM216.23212,310.90076c0.17774,-0.07942 0.347,-0.15842 0.50513,-0.23748z" fill="#000000" stroke="none" stroke-width="0.5" stroke-linecap="butt"/></g></g></svg>