<svg version="1.1" xmlns="http://www.w3.org/2000/svg" xmlns:xlink="http://www.w3.org/1999/xlink" width="35.67311" height="35.67311" viewBox="0,0,35.67311,35.67311"><defs><linearGradient x1="240.00003" y1="162.91347" x2="240.00003" y2="197.08656" gradientUnits="userSpaceOnUse" id="color-1"><stop offset="0" stop-color="#5425b1"/><stop offset="1" stop-color="#32166a"/></linearGradient></defs><g transform="translate(-222.16346,-162.16346)"><g data-paper-data="{&quot;isPaintingLayer&quot;:true}" stroke-miterlimit="10" stroke-dasharray="" stroke-dashoffset="0" style="mix-blend-mode: normal"><path d="M229.98311,162.91345h20.03379c3.9166,0 7.06966,3.15307 7.06966,7.06966v20.03379c0,3.91659 -3.15306,7.06966 -7.06966,7.06966h-20.03379c-3.91659,0 -7.06966,-3.15307 -7.06966,-7.06966v-20.03379c0,-3.91659 3.15307,-7.06966 7.06966,-7.06966z" fill-opacity="0.35" fill="#4d4d4d" fill-rule="evenodd" stroke="none" stroke-width="4.43922" stroke-linecap="round" stroke-linejoin="round"/><path d="M229.98313,162.91347h20.03379c3.9166,0 7.06966,3.15307 7.06966,7.06966v20.03379c0,3.91659 -3.15306,7.06966 -7.06966,7.06966h-20.03379c-3.91659,0 -7.06966,-3.15307 -7.06966,-7.06966v-20.03379c0,-3.91659 3.15307,-7.06966 7.06966,-7.06966z" fill="url(#color-1)" fill-rule="evenodd" stroke="#000000" stroke-width="1.5" stroke-linecap="round" stroke-linejoin="round"/><g fill="#000000" fill-rule="nonzero" stroke="#ffffff" stroke-width="1" stroke-linecap="butt" stroke-linejoin="miter"><path d="M246.68925,179.58447c-0.29061,0.4952 -0.64929,0.85729 -1.05432,1.12095c-0.31633,0.51625 -0.8487,0.92296 -1.73818,1.12841c-0.27281,0.06301 -0.54695,0.07248 -0.82182,0.04681c-1.88461,1.4047 -5.65536,1.42237 -7.05837,-0.48573c-0.26316,-0.35789 -0.34058,-0.77755 -0.32647,-1.22577c-1.40141,-1.24479 -1.34916,-2.77337 -1.4157,-4.9664c-0.02398,-0.79045 -0.39819,-1.80784 0.16106,-2.36698c0.49459,-0.49448 1.28122,-0.82452 2.16644,-1.00335c0.23663,-0.19088 0.47649,-0.34372 0.71854,-0.46328c0.09304,-0.63006 0.21501,-1.25214 0.70246,-1.57765c2.49927,-1.66898 5.6261,-1.02684 7.2746,1.44097c0.29526,0.442 0.40855,0.95936 0.45718,1.50063c1.37583,0.82931 3.07791,2.01973 2.51566,3.81919c0.43114,1.01786 0.62678,1.98726 0.42113,2.39375c-0.33223,0.65668 -1.15172,0.66812 -2.00223,0.63846z"/><path d="M231.76428,176.59802c0,0 -0.67455,-1.24614 0.57158,-1.92069c0.06578,-0.03561 0.12997,-0.06588 0.19256,-0.09123c0.26115,-0.63185 0.53284,-1.22533 0.80684,-1.75073l0.04622,-1.57488c1.54295,-1.94682 3.06597,-3.10293 5.46511,-3.78844c6.51842,-1.76296 13.85387,7.03966 9.39845,13.19857c-0.15556,0.21505 -0.32472,0.4141 -0.50577,0.59782c-0.15784,0.50754 -0.36393,0.97103 -0.52632,1.31242c-1.3638,2.86696 -4.19877,5.02113 -6.21149,7.41103c-1.25633,2.33458 -3.33891,4.23316 -5.56102,1.18409c-1.0671,-1.46422 0.07602,-2.87367 0.13868,-4.13219c-0.45033,-0.35508 -0.90022,-0.74771 -1.33057,-1.15407c-1.34284,-0.40922 -3.31879,-0.98202 -3.78729,-2.5262c-0.28909,-0.95284 0.34562,-3.92292 1.30908,-6.7543c-0.00202,-0.00374 -0.00405,-0.00748 -0.00608,-0.01121zM237.90961,170.87613c0.34129,0.09153 1.2345,0.4422 1.0659,1.58079c-0.20755,1.40171 -1.60927,1.19418 -1.60927,1.19418c-0.58176,-0.236 -1.56139,1.11041 -2.43166,2.8503c0.31504,0.58201 0.63011,1.16403 0.94515,1.74605c1.98938,0.49787 4.14879,1.88628 6.10292,2.31292c0.57708,-0.75634 1.12088,-1.37714 1.58435,-1.70322c0.83568,-0.58795 1.96848,-1.27701 2.93716,-1.02169c1.21239,-3.91502 -3.11094,-8.70842 -6.90243,-7.63191c-0.64956,0.17165 -1.20026,0.39221 -1.69213,0.67258zM237.82443,189.63813c0.02414,0.07003 0.07226,0.06989 0.1531,-0.02121c-0.05045,0.00982 -0.10156,0.01693 -0.1531,0.02121z"/><path d="M237.89401,170.85249c0.49188,-0.28037 1.05154,-0.50481 1.70111,-0.67646c3.79149,-1.07652 8.14731,3.75598 6.93492,7.671c-0.96868,-0.25532 -2.11004,0.44464 -2.94572,1.03259c-0.46347,0.32609 -1.01849,0.95213 -1.59557,1.70847c-1.95412,-0.42664 -4.14399,-1.82823 -6.13337,-2.3261c-0.31504,-0.58202 -0.63353,-1.17289 -0.94857,-1.7549c0.87028,-1.7399 1.85211,-3.10418 2.43387,-2.86818c0,0 1.41185,0.19599 1.61941,-1.20572c0.16859,-1.13859 -0.69361,-1.44181 -1.0349,-1.53334z" data-paper-data="{&quot;noHover&quot;:false,&quot;origItem&quot;:[&quot;Path&quot;,{&quot;applyMatrix&quot;:true,&quot;segments&quot;:[[[472.62381,327.80569],[0,0],[1.20428,0.32298]],[[476.38493,333.38363],[0.5949,-4.0176],[-0.73236,4.94604]],[[470.70651,337.59739],[0,0],[-2.0528,-0.83276]],[[462.12619,347.65491],[3.07084,-6.13936],[1.11166,2.05366]],[[465.46123,353.81599],[-1.11164,-2.05372],[7.0197,1.75676]],[[486.99585,361.97731],[-6.89528,-1.50544],[2.03626,-2.66882]],[[492.58635,355.96735],[-1.6354,1.15062],[2.94878,-2.07464]],[[502.95035,352.36223],[-3.41806,-0.90092],[4.27802,-13.81446]],[[478.59457,325.43245],[13.37858,-3.79858],[-2.29204,0.60568]],[[472.62375,327.80569],[1.73562,-0.9893],[0,0]]],&quot;closed&quot;:true,&quot;fillColor&quot;:[0,0,0,1]}]}"/></g></g></g></svg>