<svg version="1.1" xmlns="http://www.w3.org/2000/svg" xmlns:xlink="http://www.w3.org/1999/xlink" width="89.94688" height="251.4448" viewBox="0,0,89.94688,251.4448"><g transform="translate(-196.4419,-54.05505)"><g data-paper-data="{&quot;isPaintingLayer&quot;:true}" fill-rule="nonzero" stroke-linejoin="miter" stroke-miterlimit="10" stroke-dasharray="" stroke-dashoffset="0" style="mix-blend-mode: normal"><path d="M201.54539,304.39158c0,0 -0.63536,-94.38387 -0.79335,-118.01201c-0.05451,-8.15261 8.18688,-36.76129 40.20201,-36.9211c31.60235,-0.15775 39.85672,29.48704 39.84884,36.89673c-0.07659,46.24274 0.65429,117.98648 0.65429,117.98648l-10.49667,0.09614l-0.15882,-114.84311c0,0 0.07549,-3.0993 -2.81625,-3.15415c-3.43441,-0.06514 -2.94538,3.11562 -2.94538,3.11562l0.20548,114.86995l-48.21366,0.07222l-0.30539,-115.23309c0,0 0.27949,-2.919 -2.8856,-2.93443c-3.11083,-0.01515 -2.81569,2.90899 -2.81569,2.90899l0.35311,115.0668z" fill="#000000" stroke="#000000" stroke-width="2" stroke-linecap="butt"/><path d="M256.14252,200.33376c-0.57113,0 -1.03411,-0.46299 -1.03411,-1.03411c0,-0.57113 0.46299,-1.03413 1.03411,-1.03413c0.57113,0 1.03411,0.463 1.03411,1.03413c0,0.57113 -0.46299,1.03411 -1.03411,1.03411z" fill="#000000" stroke="none" stroke-width="1.5" stroke-linecap="butt"/><path d="M266.55537,185.44974c0.00714,-0.00979 0.01295,-0.01681 0.01732,-0.02081c4.30639,-3.94367 6.35629,5.24594 8.50731,6.24007c1.12761,2.05725 3.65865,3.73508 4.17344,6.10377c0.38804,1.78549 0.31238,3.50746 0.51124,5.35752c0.52699,4.90297 1.99311,8.97872 1.99311,14.00814c0,7.7771 0.49689,15.66991 0.49689,23.52028c0,7.62805 -0.38237,15.36044 0.12632,22.97159c1.9975,7.77566 0.37056,16.1858 0.37056,24.06898c0,4.01256 -0.49688,7.89247 -0.49688,12.00014c0,0.84594 0.40519,3.74685 -0.2183,4.34917c-0.87441,0.84471 -4.96098,0.21151 -6.16398,0.19162c-0.82534,-0.39865 -1.87688,-0.17512 -2.70503,-0.56827c-0.33239,-0.1578 -0.19498,-0.75279 -0.49689,-0.96001c-2.44353,-1.67719 -7.81312,-1.5938 -10.70737,-2.31097c-3.1006,-0.7683 -6.18175,-2.36973 -9.44427,-2.40082c-5.99461,-2.89549 -13.40561,-2.97364 -19.66527,-5.638c-2.17428,-0.92546 -5.86287,-2.58067 -6.37107,-4.89897c-1.32788,-0.80612 -1.71472,-1.86971 -2.92825,-2.79253c-6.65507,-5.06077 -10.23852,-13.25149 -13.44581,-20.6497c-1.19749,-3.37619 -2.64885,-6.31926 -3.37051,-9.80673c-1.1468,-5.54202 -1.38113,-11.66445 -1.87079,-17.34072c-0.44754,-5.21474 -1.56521,-10.70238 -1.1165,-15.96596c0.33845,-3.97021 0.98995,-7.92461 0.99024,-11.94131c0.04508,-1.29704 -0.04872,-2.68944 0.14247,-3.97091c0.13559,-0.90881 0.57917,-1.75072 0.93207,-2.60329c0.36152,-0.87338 0.86262,-3.05933 1.76326,-3.62628c1.428,-0.89893 2.85883,0.31215 3.80894,0.98839c2.68312,1.90969 6.73381,5.13067 10.17,5.16342c2.37257,1.14091 5.15358,0.94075 7.7789,0.94075c6.05329,0 13.74462,-0.74688 18.63698,-4.52237c4.81568,-2.33337 11.10948,-6.07913 14.68296,-9.77648c1.51859,-1.57124 2.5673,-4.20109 3.82309,-6.02078c0,0 0.02638,-0.03823 0.07581,-0.08893z" data-paper-data="{&quot;index&quot;:null}" fill="#23457d" stroke="none" stroke-width="0.5" stroke-linecap="butt"/><path d="M250.88267,204.56935c-4.4635,-0.31439 -6.55245,-1.79392 -6.16985,-2.58011c0.11788,-0.24224 2.84645,1.06355 6.97038,1.3048c6.40897,0.37493 8.51033,-0.63173 8.51033,-0.63173v1.34616c0,0 -2.4135,1.04672 -9.31086,0.56089z" fill="#000000" stroke="#000000" stroke-width="0" stroke-linecap="butt"/><path d="M223.06993,199.29965c0,-0.57113 0.46299,-1.03413 1.03411,-1.03413c0.57113,0 1.03413,0.463 1.03413,1.03413c0,0.57113 -0.463,1.03411 -1.03413,1.03411c-0.57113,0 -1.03411,-0.46299 -1.03411,-1.03411z" fill="#000000" stroke="none" stroke-width="1.5" stroke-linecap="butt"/><path d="M229.36392,204.56935c-6.89736,0.48585 -9.31086,-0.56089 -9.31086,-0.56089v-1.34616c0,0 2.10136,1.00666 8.51033,0.63173c4.12393,-0.24126 6.85251,-1.54704 6.97039,-1.3048c0.3826,0.78618 -1.70634,2.26571 -6.16985,2.58011z" fill="#000000" stroke="#000000" stroke-width="0" stroke-linecap="butt"/><path d="M240.64438,261.12113c-0.81895,0 -1.48284,-0.66389 -1.48284,-1.48284c0,-0.81895 0.66389,-1.48284 1.48284,-1.48284c0.81895,0 1.48284,0.66389 1.48284,1.48284c0,0.81895 -0.66389,1.48284 -1.48284,1.48284z" data-paper-data="{&quot;index&quot;:null}" fill="#000000" stroke="none" stroke-width="1.5" stroke-linecap="butt"/><path d="M196.44191,103.88008c0,0 6.16329,-5.92187 6.29161,-6.78761c0.08284,-0.55893 2.67652,-6.56349 2.33313,-11.93896c-0.24967,-3.90851 -3.45856,-7.71885 -3.45856,-7.71885c0,0 7.58583,-1.60447 8.29729,-3.6225c0.60165,-1.70655 -4.30245,-7.70862 -4.30245,-7.70862c0,0 7.04598,-1.67752 8.92439,-3.60985c2.01596,-2.07383 2.7879,-8.43864 2.7879,-8.43864c0,0 14.39914,5.4261 20.13937,5.2036c3.68619,-0.07545 17.46286,4.58188 20.38271,4.58716c7.19439,0.013 19.0705,11.2036 21.06183,17.27318c0.78947,2.4063 4.36675,12.46144 4.36675,12.46144c0,0 -3.40536,3.118 -3.03374,4.12852c3.44981,9.38084 6.15664,17.40016 6.15664,17.40016c0,0 -5.13273,0.14471 -7.08088,4.42415c-0.97145,2.13395 1.103,6.54826 0.51067,9.99101c-0.21841,1.32544 -2.28197,9.41568 -2.28197,9.41568c0,0 -2.54116,-1.85662 -2.4673,0.09024c0.06012,1.58442 -3.09394,2.86935 -3.8959,5.20295c-0.61586,1.7921 -2.91331,6.91335 -2.91331,6.91335l-2.58539,-4.20288c0,0 -7.0601,11.01795 -24.35066,10.87154c-16.30625,-0.25547 -26.07151,-10.6752 -26.07151,-10.6752l-4.35488,3.90151c0,0 0.34391,-4.53943 -1.94277,-10.95421c-2.72545,-7.64567 -4.43379,-2.89023 -4.43379,-2.89023c0,0 -0.2806,-10.92799 -0.77637,-12.01122c-0.69383,-1.51598 -5.75038,-5.25764 -3.69456,-11.09465c1.94102,-5.51108 2.09972,-10.95731 2.09972,-10.95731c0,0 -1.36165,0.66163 -3.33013,0.79513c-1.24776,0.08463 -2.37785,-0.0489 -2.37785,-0.0489z" fill="#000000" stroke="none" stroke-width="1.5" stroke-linecap="butt"/><path d="M261.29778,100.08134c0,0 1.52429,0.31807 4.2558,1.11029c2.49492,0.72361 4.44935,1.74403 4.44935,1.74403l0.1951,1.17035c0,0 -7.24963,-3.12997 -15.1158,-2.4706c-6.2896,0.52724 -9.96319,2.8124 -9.96319,2.8124l0.04575,-4.17683c0,0 3.12748,-1.70421 7.86366,-1.85557c4.90428,-0.15672 8.09084,0.59125 8.09084,0.59125z" data-paper-data="{&quot;index&quot;:null}" fill="#000000" stroke="none" stroke-width="1.5" stroke-linecap="butt"/><path d="M205.15819,88.18979c0.37973,-0.4989 0.87162,-0.92713 1.17381,-1.47681c0.30435,-0.55361 -0.21268,-1.28879 -0.03468,-1.89495c0.92737,-3.15818 4.00048,-8.05595 6.94058,-9.51095c1.44345,-0.71433 3.65027,-0.57162 5.28701,-0.55709c1.43048,0.01269 2.43111,0.60488 3.78701,1.05709c1.11721,0.55636 2.13901,0.70908 3.22959,1.15912c2.14997,0.88719 3.62161,3.08344 5.42994,4.43122c1.45455,1.08411 3.77548,2.63312 5.34047,3.40967c0.33104,0.16426 0.80002,-0.1504 1.10729,0.05492c0.3566,0.23829 0.33705,0.81386 0.64286,1.11458c1.96073,1.92803 4.47512,3.4745 6.47649,5.47691c1.41841,1.25354 2.60131,2.72963 3.96691,3.97069c1.03732,0.94271 2.15627,0.85298 3.12201,2.12927c3.91181,5.16969 7.63572,10.74427 10.5596,16.59438c4.47913,7.93036 4.82952,16.49198 4.551,25.55809c-2.34665,7.03995 -4.80605,19.88308 -14.21317,20.04408c-1.82524,0 -3.70854,-0.00514 -4.69291,-1.96299c-0.83518,-1.66112 0.12298,-5.27457 0.45259,-6.90715c0.79103,-3.91792 0.80255,-8.43831 -0.52671,-12.27377c-0.81954,-1.99599 -1.94224,-4.35173 -2.46291,-6.43378c-0.47661,-1.90589 -0.20721,-4.02384 -0.96297,-5.8853c-1.83882,-4.52903 -5.94676,-8.86848 -8.7213,-12.89157c-2.23233,-3.23688 -5.34021,-5.90198 -8.5214,-8.28491c-1.71849,-1.28727 -3.90157,-1.17599 -5.83586,-1.65531c-3.29688,-0.81697 -6.41963,-1.99164 -9.51808,-3.38248c-1.65213,-0.41526 -3.26179,-0.92368 -4.88276,-1.3428c-1.45124,-0.37523 -3.33001,0.76954 -4.46567,-0.83564c-0.1307,-0.18473 -0.11798,-2.04228 -0.11196,-2.40323c0.05131,-3.07345 1.53323,-5.96719 1.49995,-8.99107c0,0 0,-0.75 0.75,-0.75c0.75,0 0.75,0.75 0.75,0.75c-0.00471,0.54506 -0.04814,1.11243 -0.11672,1.68979z" fill="#ff0000" stroke="none" stroke-width="0.5" stroke-linecap="butt"/><path d="M249.1876,77.14863c2.74054,-0.99732 7.41135,-3.37959 10.11309,-2.34609c4.87442,1.86461 5.92978,7.49419 7.13348,12.26918c2.49196,9.88542 4.96267,19.13933 6.19098,29.16051c1.0467,8.62036 -4.61169,16.65337 -8.37028,23.94009c0,5.73339 -5.61297,9.09847 -10.36927,10.9963c-1.52254,0.60752 -2.77535,1.52374 -4.53298,1.06132c-1.77933,-0.46814 -2.90967,-2.40922 -4.46567,-3.33564c-0.42318,-5.26767 2.88693,-8.21246 4.72995,-12.84348c1.63839,-4.11684 1.65803,-9.1202 1.65803,-13.55082c0,-3.97549 -0.80875,-7.95485 -0.99477,-11.91537c-0.15941,-3.39399 -0.02584,-7.10948 -0.49798,-10.4806c-0.24251,-1.73155 -1.01172,-3.18688 -0.99756,-4.98389c-0.69871,-2.0897 -0.20634,-3.90195 -0.50244,-6.01611c-0.54494,-3.89088 -1.71723,-7.47384 -1.39524,-11.49832l1.30258,-0.77652c0,0 0.6601,-0.33005 0.99809,0.31945z" fill="#cc1414" stroke="none" stroke-width="0.5" stroke-linecap="butt"/><path d="M214.72485,121.37736c0,0 -3.56385,-2.92338 -4.31816,-8.45061c-0.42079,-3.08327 2.15675,-2.28016 2.15675,-2.28016" fill="none" stroke="#000000" stroke-width="0.25" stroke-linecap="round"/><path d="M281.02491,94.25c0.75,0 0.75,0.75 0.75,0.75v1c0,0.04732 0.00029,0.09446 0.00085,0.14144c0.16473,0.04586 0.3269,0.09486 0.48632,0.14705c0,0 0.71151,0.23717 0.47434,0.94868c-0.1829,0.5487 -0.6479,0.53321 -0.85113,0.49739c0.15251,1.33977 0.40517,2.62352 0.36955,4.09313c0.444,0.86078 1.02333,2.21107 1.40805,2.77802c0.20926,0.30838 0.79328,0.18991 1,0.5c0.1849,0.27735 -0.1849,0.72265 0,1c0.20672,0.31009 0.81133,0.17861 1,0.5c0.74245,1.26475 -0.1946,3.98127 -1.10766,4.92463c-3.04402,3.14502 -7.22255,4.34985 -9.56897,8.56658c-2.90631,3.12749 -5.38406,6.87352 -7.85218,10.34059c-0.83931,1.17901 -2.19425,1.98743 -3.08318,3.13067c-2.57436,3.31088 -5.09558,6.89845 -7.44599,10.40732c-1.47106,1.45814 -2.2412,3.32552 -3.47157,4.96304c-1.12267,1.49417 -2.87829,2.51035 -4,4c-2.93097,3.89238 -5.93516,7.56644 -10.40171,9.7814c-2.86847,0.94083 -3.71783,-0.33652 -6.37903,-0.99c-7.26952,-1.78508 -9.74141,-9.47807 -5.5455,-15.44727c-0.03663,-2.88656 3.4691,-6.04332 5.10939,-8.22119c3.2968,-4.3773 5.10518,-10.09582 8.99286,-14.02745c0.83035,-2.48334 2.99375,-3.46275 4.50714,-5.47255c1.53683,-2.04094 2.89053,-4.55607 4.52058,-6.52723c0.9463,-1.14432 2.47054,-1.73733 3.62428,-2.62381c2.52217,-1.93794 4.78164,-4.20438 7.31357,-6.11042c1.54475,-1.15542 2.68293,-2.766 4.21147,-3.90843c3.76658,-2.81516 10.24267,-4.35051 15.18853,-3.57248v-0.81909c0,0 0,-0.75 0.75,-0.75z" fill="#da7f7f" stroke="none" stroke-width="0.5" stroke-linecap="butt"/><path d="M210.6459,73.45109c-0.00275,-0.20663 0.07628,-0.4577 0.40918,-0.62415c0.6548,-0.3274 0.98219,0.3274 0.98219,0.3274c3.40247,6.80493 4.40606,15.47067 4.46489,23.11049c0.01671,3.83732 1.55747,7.20855 2.33907,10.96179c0.42899,2.06005 0.55801,4.04491 1.06062,6.09919c0.5997,2.45113 3.19539,4.70679 4.54609,6.7572c4.65458,3.68371 9.29148,8.17045 14.54594,10.80126c2.6212,1.31238 6.10266,1.86821 9.03911,2.84972c5.69878,2.67121 12.29829,3.99159 12.39806,11.41055c0.01122,0.83426 0.25305,2.44666 -0.03016,3.22221c-0.60791,1.66468 -2.29589,2.66991 -3.11135,4.20998c-6.05649,3.24634 -11.30512,1.51418 -17.68914,0.69699c-3.10767,-0.3978 -6.03787,-1.01848 -8.86038,-2.45359c-2.39493,-0.00297 -5.2645,1.15758 -7.81234,0.48726c-1.56705,-0.41228 -2.61387,-1.80587 -3.63308,-2.53004c-0.62583,-0.44466 -2.26166,-0.2635 -3.06113,-1.08121c-1.65498,-1.69272 -1.86191,-5.3915 -2.5921,-7.53188c-0.55025,-1.6758 -0.69718,-3.35874 -1.02782,-5.06136c-0.61348,-3.15908 -2.59039,-6.14478 -3.40886,-9.23564c-0.03971,-0.14997 -0.00458,-2.45969 -0.009,-2.48635c-0.5401,-3.25813 -1.11698,-6.36374 -1.68469,-9.6591c-1.59691,-9.35007 -1.74117,-18.53026 -1.74117,-28.03863c0,-3.44559 -1.25277,-9.55569 2.35692,-11.39207c0.30716,-0.15627 1.55636,-0.60683 2.51917,-0.84002z" fill="#23457d" stroke="none" stroke-width="0.5" stroke-linecap="butt"/><path d="M223.37587,114.4394c0.03999,-2.75843 2.30855,-4.96213 5.06696,-4.92214c2.75843,0.03999 4.96213,2.30855 4.92214,5.06696c-0.03999,2.75843 -2.30854,4.96213 -5.06696,4.92214c-2.75843,-0.03999 -4.96213,-2.30855 -4.92214,-5.06696z" fill="#000000" stroke="#ffffff" stroke-width="2" stroke-linecap="butt"/><path d="M236.94675,57.89527c1.9305,0.02149 4.15026,0.92756 5.98717,1.53849c2.73734,0.95659 5.32746,1.98845 7.73347,3.87756c3.38243,2.65576 5.01375,8.56183 6.26967,12.46381c0,9.09386 0.95394,18.26666 2.74615,27.22831c1.01921,5.50304 2.1009,10.99781 3.24347,16.46952c0.81926,3.92339 2.30998,6.92567 2.22978,10.99758c-1.12063,7.82691 -6.00465,15.68234 -11.92938,21.70506c-3.08761,3.06781 -12.17157,6.08446 -16.08375,4.40556c-2.20905,-0.94801 4.34069,-1.43715 2.86753,-3.63247c-1.66305,-6.39356 0.63861,-13.12268 1.93954,-19.62732c-0.00816,-2.07098 0.29726,-3.88427 0.39405,-5.94266c0.31887,-6.78108 -0.91319,-13.50897 -0.48981,-20.28314c0.54054,-8.61442 0.34211,-17.3132 0.34211,-25.9503c0,-7.76535 -7.841,-14.23462 -10.21151,-21.34616c0,0 -1.40384,-1.54484 -0.69233,-1.78201c0.05462,-0.01821 5.65384,-0.12182 5.65384,-0.12182z" fill="#488eff" stroke="none" stroke-width="0.5" stroke-linecap="butt"/><path d="M215.9672,170.44974c0.04943,0.0507 0.07581,0.08893 0.07581,0.08893c1.25579,1.81969 2.3045,4.44954 3.82309,6.02078c3.57348,3.69735 9.86728,7.44311 14.68296,9.77648c4.89236,3.77549 12.58369,4.52237 18.63698,4.52237c2.62532,0 5.40633,0.20016 7.7789,-0.94075c3.43619,-0.03275 7.48688,-3.25373 10.17,-5.16342c0.95011,-0.67624 2.38094,-1.88732 3.80894,-0.98839c0.90064,0.56695 1.40174,2.7529 1.76326,3.62628c0.3529,0.85257 0.79648,1.69448 0.93207,2.60329c0.19119,1.28147 0.09739,2.67387 0.14247,3.97091c0.00029,4.0167 0.65179,7.9711 0.99024,11.94131c0.44871,5.26358 -0.66896,10.75122 -1.1165,15.96596c-0.48966,5.67627 -0.72399,11.7987 -1.87079,17.34072c-0.72166,3.48747 -2.17302,6.43054 -3.37051,9.80673c-3.20729,7.39821 -6.79074,15.58893 -13.44581,20.6497c-1.21353,0.92282 -1.60037,1.98641 -2.92825,2.79253c-0.5082,2.3183 -4.19679,3.97351 -6.37107,4.89897c-6.25966,2.66436 -13.67066,2.74251 -19.66527,5.638c-3.26252,0.03109 -6.34367,1.63252 -9.44427,2.40082c-2.89425,0.71717 -8.26384,0.63378 -10.70737,2.31097c-0.30191,0.20722 -0.1645,0.80221 -0.49689,0.96001c-0.82815,0.39315 -1.87969,0.16962 -2.70503,0.56827c-1.203,0.01989 -5.28957,0.65309 -6.16398,-0.19162c-0.62349,-0.60232 -0.2183,-3.50323 -0.2183,-4.34917c0,-4.10767 -0.49688,-7.98758 -0.49688,-12.00014c0,-7.88318 -1.62694,-16.29332 0.37056,-24.06898c0.50869,-7.61115 0.12632,-15.34354 0.12632,-22.97159c0,-7.85037 0.49689,-15.74318 0.49689,-23.52028c0,-5.02942 1.46612,-9.10517 1.99311,-14.00814c0.19886,-1.85006 0.1232,-3.57203 0.51124,-5.35752c0.51479,-2.36869 3.04583,-4.04652 4.17344,-6.10377c2.15102,-0.99413 4.20092,-10.18374 8.50731,-6.24007c0.00437,0.004 0.01018,0.01102 0.01732,0.02081z" fill="#8cb8ff" stroke="none" stroke-width="0.5" stroke-linecap="butt"/><path d="M201.72846,211.70177c-0.23434,-0.11326 -0.35889,-0.33711 -0.35889,-0.33711l-0.72311,-1.31293c-0.90485,-3.5582 -1.87151,-6.87445 -1.87151,-10.55172c0,-5.65884 0.15616,-11.30536 1.52217,-16.68099c0.66521,-2.61778 0.56109,-5.35327 2.07915,-7.69545c1.67521,-3.29636 2.26003,-7.48165 4.54025,-10.56209c0.56094,-0.75779 1.42896,-1.2498 2,-2c0.56098,-0.73698 0.38209,-1.37268 1.0781,-2.09179c1.81217,-1.8723 6.36581,-7.46444 6.26027,-1.29736c-2.00233,4.16572 -1.22997,7.29244 -0.98109,11.78621c0.2525,4.55898 -0.18762,8.50519 1.92495,12.7121c3.95373,8.29803 6.62513,16.56765 13.29587,23.23839c2.51361,2.51361 4.74215,5.8231 7.46886,7.98256c1.16545,0.92299 3.24905,0.72652 4.66659,0.868c3.49169,0.34848 6.8114,0.52962 10.34291,0.47594c3.17035,-1.07434 6.54926,-2.45852 9.26405,-4.46491c0.70954,-0.52439 1.67046,-0.8316 2.11195,-1.59549c0.16051,-0.27771 -0.16173,-0.67591 -0.01693,-0.96212c1.99325,-3.9398 5.19578,-6.99729 6.55837,-11.18108c1.67113,-5.01341 2.38454,-9.23261 2.38454,-14.5319c0,-3.85691 -1.62158,-7.60835 1.46299,-10.69291c0.4656,-0.02066 2.46553,-0.18924 2.81734,0.16258c0.77732,0.77732 -0.04089,1.5567 0.19726,2.34837c0.25018,0.83167 1.21733,1.70145 1.49023,2.46462c0.12592,0.35214 -0.04154,1.73594 0.04667,2.16537c1.03665,5.04662 2.50274,10.17719 2.46544,15.37966c1.01493,2.02985 0.52007,4.91357 0.52007,7.17231c0,5.2699 -0.62284,10.93255 -0.5,16c0,2.86283 -0.9632,4.84175 -1.54025,7.53821c-1.42819,6.6737 -3.469,12.90771 -6.65148,18.96263c-2.95111,1.93186 -4.04309,6.08057 -6.52794,8.52949c-0.77848,0.76722 -2.45879,1.21755 -3.39726,1.78127c-2.93816,1.76488 -7.02457,4.41834 -10.46076,4.41834c-1.70743,0.85372 -3.82919,0.53326 -5.72533,0.51947c-2.46119,-0.0179 -5.24092,0.04932 -7.61929,-0.51947c-5.22136,-1.24869 -9.7336,-6.07519 -13.35878,-9.70037c-4.02723,-4.05038 -7.52464,-8.55971 -11.30992,-12.75744c-2.73704,-3.03528 -6.00759,-6.81477 -7.21917,-10.73152c-2.28044,-4.60969 -4.72975,-9.64559 -6.23631,-14.83885z" fill="#23457d" stroke="none" stroke-width="0.5" stroke-linecap="butt"/><path d="M202.22846,209.20177c-0.23434,-0.11326 -0.35889,-0.33711 -0.35889,-0.33711l-0.72311,-1.31293c-0.90485,-3.5582 -1.87151,-6.87445 -1.87151,-10.55172c0,-5.65884 0.15616,-11.30536 1.52217,-16.68099c0.66521,-2.61778 0.56109,-5.35327 2.07915,-7.69545c1.67521,-3.29636 2.26003,-7.48165 4.54025,-10.56209c0.56094,-0.75779 1.42896,-1.2498 2,-2c0.56098,-0.73698 0.38209,-1.37268 1.0781,-2.09179c1.81217,-1.8723 6.36581,-7.46444 6.26027,-1.29736c-2.00233,4.16572 -1.22997,7.29244 -0.98109,11.78621c0.2525,4.55898 -0.18762,8.50519 1.92495,12.7121c3.95373,8.29803 6.62513,16.56765 13.29587,23.23839c2.51361,2.51361 4.74215,5.8231 7.46886,7.98256c1.16545,0.92299 3.24905,0.72652 4.66659,0.868c3.49169,0.34848 6.8114,0.52962 10.34291,0.47594c3.17035,-1.07434 6.54926,-2.45852 9.26404,-4.46491c0.70954,-0.52439 1.67046,-0.8316 2.11195,-1.59549c0.1605,-0.27771 -0.16173,-0.67591 -0.01693,-0.96212c1.99325,-3.9398 5.19578,-6.99729 6.55837,-11.18108c1.67114,-5.01341 2.38454,-9.23261 2.38454,-14.5319c0,-3.85691 -1.62158,-7.60835 1.46299,-10.69291c0.4656,-0.02066 2.46553,-0.18924 2.81735,0.16258c0.77732,0.77732 -0.04089,1.5567 0.19726,2.34837c0.25018,0.83167 1.21733,1.70145 1.49023,2.46462c0.12592,0.35214 -0.04153,1.73594 0.04668,2.16537c1.03665,5.04662 2.50274,10.17719 2.46544,15.37966c1.01493,2.02985 0.52007,4.91357 0.52007,7.17231c0,5.2699 -0.62284,10.93255 -0.5,16c0,2.86283 -0.9632,4.84175 -1.54025,7.53821c-1.42819,6.6737 -3.469,12.90771 -6.65148,18.96263c-2.95111,1.93186 -4.04309,6.08057 -6.52794,8.52949c-0.77848,0.76722 -2.45879,1.21755 -3.39726,1.78127c-2.93816,1.76488 -7.02457,4.41834 -10.46076,4.41834c-1.70743,0.85372 -3.82919,0.53326 -5.72533,0.51947c-2.46119,-0.0179 -5.24092,0.04932 -7.61929,-0.51947c-5.22136,-1.24869 -9.7336,-6.07518 -13.35878,-9.70036c-4.02723,-4.05038 -7.52464,-8.55971 -11.30992,-12.75744c-2.73704,-3.03528 -6.00759,-6.81477 -7.21917,-10.73152c-2.28044,-4.60969 -4.72975,-9.64559 -6.23631,-14.83885z" fill="#0363ff" stroke="none" stroke-width="0.5" stroke-linecap="butt"/><path d="M216.55029,57.79172c0.02394,0.02394 0.04464,0.04789 0.06243,0.07172c0.34799,0.01712 0.76626,0.11694 1.27536,0.31989c0.47214,0.18822 0.95398,0.3604 1.40018,0.60381c3.64676,3.62659 7.45628,6.92431 11.52171,10.01452c3.43449,5.09561 6.6426,10.39232 10.99033,14.74005c2.27056,2.27056 4.74004,4.3018 6.7833,6.78678c2.00688,2.44074 2.72489,5.92377 3.7952,8.82889c2.24655,6.09779 5.44581,11.88421 7.07135,18.15334c1.46336,5.6979 1.56247,12.24986 1.47514,17.97944c-1.18661,1.85084 -1.62485,4.12852 -2.6908,6.04673c-2.07289,3.73021 -5.68129,7.15904 -8.68419,10.16193c-2.36542,2.32694 -6.52932,4.80068 -9.70128,5.87269c-1.96673,0.66469 -4.13981,0.62317 -6.07219,1.2673c-3.33163,0.02591 -11.24303,-2.99125 -11.33009,-6.99354c0.05371,-2.46902 4.48764,-5.46886 6.49904,-6.68246c0.99606,-0.60098 2.93568,-1.19049 3.39741,-2.1711c2.17838,-1.17252 5.2658,-3.89839 6.96446,-5.71046c2.02823,-2.16365 2.45884,-6.28881 3.39555,-9.01608c-0.04043,-4.71684 2.22362,-10.41271 1.00692,-15.05503c-0.25838,-0.98586 -0.72959,-1.89557 -0.92569,-2.9307c-1.15121,-6.13033 -4.55082,-12.90405 -7.81613,-18.18148c-3.44076,-5.56098 -8.05264,-10.95612 -10.96877,-16.7791c-2.38053,-4.76105 -8.00433,-7.75959 -11.65634,-11.37005c0,0 -0.35355,-0.35355 0,-0.70711c0.10248,-0.10248 0.20496,-0.14555 0.29883,-0.15504l0.10751,-0.21501l0.069,0.0345l0.02466,-0.16445c0.20077,-0.10038 0.37715,-0.2204 0.53351,-0.35573c0.21181,-0.445 0.5946,-0.95885 0.97395,-1.48916c0.40637,-1.00475 0.6085,-2.08132 1.2717,-2.56889l0.22085,-0.33622c0,0 0.35355,-0.35355 0.70711,0z" fill="#8cb8ff" stroke="none" stroke-width="0.5" stroke-linecap="butt"/><path d="M224.87244,122.71256c0.00288,-0.00385 0.00577,-0.0077 0.00866,-0.01156c-0.00372,-0.0013 -0.00745,-0.00264 -0.0112,-0.00401c0.00093,0.00536 0.00177,0.01056 0.00253,0.01557zM222.44821,124.91504c-0.57894,0 -0.57894,-0.57894 -0.57894,-0.57894v-0.15438c0,-1.84635 -0.7045,-4.15217 -0.40552,-5.99955c-0.48578,-0.81573 -0.8467,-1.72608 -1.12105,-2.81436c0,0 -0.14041,-0.56166 0.42124,-0.70207c0.56166,-0.14041 0.70207,0.42124 0.70207,0.42124c0.13356,0.53934 0.3034,1.06443 0.51196,1.56852c0.00235,-0.00003 0.00471,-0.00004 0.00707,-0.00004c0.31974,0 0.57894,0.2592 0.57894,0.57894v0.51367c0.07256,0.13749 0.14189,0.28223 0.21028,0.43094c0.09167,0.14123 0.18739,0.27971 0.28721,0.41524c0.10047,0.06784 0.15864,0.1454 0.15864,0.1454c0.07989,0.10944 0.15236,0.21905 0.21819,0.3289c0.5729,0.66872 1.26019,1.25024 2.07251,1.71526c0.42733,0.24463 2.44328,0.26575 2.64278,0.57146c0.28392,0.43507 -0.81356,2.93653 -0.97218,3.571c-0.56273,2.81366 -0.29466,5.80046 -0.29466,8.67293v0.15438c0,0 0,0.57894 -0.57894,0.57894c-0.57894,0 -0.57894,-0.57894 -0.57894,-0.57894v-0.15438c0,-2.96265 -0.25789,-6.02315 0.32287,-8.92695c0.09543,-0.38172 0.14617,-0.84461 0.23495,-1.28281c-0.67099,0.91172 -0.96841,2.04733 -1.46806,3.0582c0,0 -0.09363,0.18726 -0.28089,0.28025c0.08355,2.16318 0.0388,4.33704 0.03126,6.51479c0.48695,2.92169 0.46513,6.35635 0.46513,9.31084v0.61754c0,0 0,0.57894 -0.57894,0.57894c-0.57894,0 -0.57894,-0.57894 -0.57894,-0.57894v-0.61754c0,-2.93474 0.02237,-6.31405 -0.46118,-9.21534c-0.00996,-3.35857 0.10172,-6.69595 -0.30641,-10.01203c-0.05102,-0.41453 -0.0635,-0.8309 -0.08152,-1.24206c0.01933,0.89079 0,1.68415 0,2.09764v0.15438c0,0 0,0.57894 -0.57894,0.57894zM225.40189,122.07162c0.03507,-0.02685 0.07134,-0.05128 0.10931,-0.0736c-0.03854,-0.0173 -0.07672,-0.03508 -0.11456,-0.05334c0.00274,0.0445 0.00448,0.08678 0.00525,0.12694z" fill="#ff0000" stroke="#ff0000" stroke-width="1" stroke-linecap="butt"/></g></g></svg>