<svg version="1.1" xmlns="http://www.w3.org/2000/svg" xmlns:xlink="http://www.w3.org/1999/xlink" width="325.55784" height="261.35298" viewBox="0,0,325.55784,261.35298"><defs><linearGradient x1="309.56119" y1="90.80589" x2="309.56119" y2="347.15886" gradientUnits="userSpaceOnUse" id="color-1"><stop offset="0" stop-color="#fbf5f1"/><stop offset="1" stop-color="#f6e9e0"/></linearGradient><linearGradient x1="271.14013" y1="310.1" x2="273.54013" y2="310.1" gradientUnits="userSpaceOnUse" id="color-2"><stop offset="0" stop-color="#960000"/><stop offset="1" stop-color="#78ff72"/></linearGradient><linearGradient x1="274.94013" y1="310.92689" x2="282.34013" y2="310.92689" gradientUnits="userSpaceOnUse" id="color-3"><stop offset="0" stop-color="#960000"/><stop offset="1" stop-color="#78ff72"/></linearGradient><linearGradient x1="283.56476" y1="314.29192" x2="291.25325" y2="314.29192" gradientUnits="userSpaceOnUse" id="color-4"><stop offset="0" stop-color="#960000"/><stop offset="1" stop-color="#78ff72"/></linearGradient><linearGradient x1="293.27596" y1="317.70983" x2="301.32809" y2="317.70983" gradientUnits="userSpaceOnUse" id="color-5"><stop offset="0" stop-color="#960000"/><stop offset="1" stop-color="#78ff72"/></linearGradient><linearGradient x1="303.14013" y1="315.80303" x2="305.53722" y2="315.80303" gradientUnits="userSpaceOnUse" id="color-6"><stop offset="0" stop-color="#960000"/><stop offset="1" stop-color="#78ff72"/></linearGradient><linearGradient x1="309.34013" y1="315.04879" x2="316.75972" y2="315.04879" gradientUnits="userSpaceOnUse" id="color-7"><stop offset="0" stop-color="#960000"/><stop offset="1" stop-color="#78ff72"/></linearGradient><linearGradient x1="318.68046" y1="314.75178" x2="328.34013" y2="314.75178" gradientUnits="userSpaceOnUse" id="color-8"><stop offset="0" stop-color="#960000"/><stop offset="1" stop-color="#78ff72"/></linearGradient><linearGradient x1="329.77403" y1="314.00615" x2="334.16421" y2="314.00615" gradientUnits="userSpaceOnUse" id="color-9"><stop offset="0" stop-color="#960000"/><stop offset="1" stop-color="#78ff72"/></linearGradient><linearGradient x1="334.94013" y1="317.62781" x2="343.74013" y2="317.62781" gradientUnits="userSpaceOnUse" id="color-10"><stop offset="0" stop-color="#960000"/><stop offset="1" stop-color="#78ff72"/></linearGradient><linearGradient x1="343.254" y1="321.14304" x2="349.56072" y2="321.14304" gradientUnits="userSpaceOnUse" id="color-11"><stop offset="0" stop-color="#960000"/><stop offset="1" stop-color="#78ff72"/></linearGradient><linearGradient x1="349.54346" y1="321.49756" x2="356.94013" y2="321.49756" gradientUnits="userSpaceOnUse" id="color-12"><stop offset="0" stop-color="#960000"/><stop offset="1" stop-color="#78ff72"/></linearGradient><linearGradient x1="360.53525" y1="320.3" x2="366.14013" y2="320.3" gradientUnits="userSpaceOnUse" id="color-13"><stop offset="0" stop-color="#960000"/><stop offset="1" stop-color="#78ff72"/></linearGradient><linearGradient x1="368.12691" y1="320.09191" x2="376.54013" y2="320.09191" gradientUnits="userSpaceOnUse" id="color-14"><stop offset="0" stop-color="#960000"/><stop offset="1" stop-color="#78ff72"/></linearGradient><linearGradient x1="377.85798" y1="322.43584" x2="384.01432" y2="322.43584" gradientUnits="userSpaceOnUse" id="color-15"><stop offset="0" stop-color="#960000"/><stop offset="1" stop-color="#78ff72"/></linearGradient><linearGradient x1="271.34013" y1="331.58905" x2="278.55166" y2="331.58905" gradientUnits="userSpaceOnUse" id="color-16"><stop offset="0" stop-color="#960000"/><stop offset="1" stop-color="#78ff72"/></linearGradient><linearGradient x1="279.93748" y1="331.57997" x2="289.9615" y2="331.57997" gradientUnits="userSpaceOnUse" id="color-17"><stop offset="0" stop-color="#960000"/><stop offset="1" stop-color="#78ff72"/></linearGradient><linearGradient x1="288.94013" y1="334.18906" x2="296.54013" y2="334.18906" gradientUnits="userSpaceOnUse" id="color-18"><stop offset="0" stop-color="#960000"/><stop offset="1" stop-color="#78ff72"/></linearGradient><linearGradient x1="297.74012" y1="334.5" x2="305.14013" y2="334.5" gradientUnits="userSpaceOnUse" id="color-19"><stop offset="0" stop-color="#960000"/><stop offset="1" stop-color="#78ff72"/></linearGradient><linearGradient x1="305.54013" y1="334.89017" x2="312.94013" y2="334.89017" gradientUnits="userSpaceOnUse" id="color-20"><stop offset="0" stop-color="#960000"/><stop offset="1" stop-color="#78ff72"/></linearGradient><linearGradient x1="313.14013" y1="334.77698" x2="321.34013" y2="334.77698" gradientUnits="userSpaceOnUse" id="color-21"><stop offset="0" stop-color="#960000"/><stop offset="1" stop-color="#78ff72"/></linearGradient><linearGradient x1="320.34013" y1="332.90174" x2="325.54013" y2="332.90174" gradientUnits="userSpaceOnUse" id="color-22"><stop offset="0" stop-color="#960000"/><stop offset="1" stop-color="#78ff72"/></linearGradient><linearGradient x1="328.7174" y1="335.3348" x2="337.58519" y2="335.3348" gradientUnits="userSpaceOnUse" id="color-23"><stop offset="0" stop-color="#960000"/><stop offset="1" stop-color="#78ff72"/></linearGradient><linearGradient x1="339.11875" y1="335.942" x2="347.38482" y2="335.942" gradientUnits="userSpaceOnUse" id="color-24"><stop offset="0" stop-color="#960000"/><stop offset="1" stop-color="#78ff72"/></linearGradient><linearGradient x1="346.94013" y1="335.4" x2="353.54013" y2="335.4" gradientUnits="userSpaceOnUse" id="color-25"><stop offset="0" stop-color="#960000"/><stop offset="1" stop-color="#78ff72"/></linearGradient><linearGradient x1="356.34013" y1="337.44372" x2="365.15613" y2="337.44372" gradientUnits="userSpaceOnUse" id="color-26"><stop offset="0" stop-color="#960000"/><stop offset="1" stop-color="#78ff72"/></linearGradient><linearGradient x1="366.13226" y1="337.9152" x2="371.91093" y2="337.9152" gradientUnits="userSpaceOnUse" id="color-27"><stop offset="0" stop-color="#960000"/><stop offset="1" stop-color="#78ff72"/></linearGradient><linearGradient x1="371.74013" y1="333.6" x2="373.74013" y2="333.6" gradientUnits="userSpaceOnUse" id="color-28"><stop offset="0" stop-color="#960000"/><stop offset="1" stop-color="#78ff72"/></linearGradient><linearGradient x1="372.14354" y1="340.8" x2="374.53671" y2="340.8" gradientUnits="userSpaceOnUse" id="color-29"><stop offset="0" stop-color="#960000"/><stop offset="1" stop-color="#78ff72"/></linearGradient><linearGradient x1="374.94013" y1="336.79524" x2="380.79515" y2="336.79524" gradientUnits="userSpaceOnUse" id="color-30"><stop offset="0" stop-color="#960000"/><stop offset="1" stop-color="#78ff72"/></linearGradient><linearGradient x1="380.53246" y1="338.55679" x2="389.93941" y2="338.55679" gradientUnits="userSpaceOnUse" id="color-31"><stop offset="0" stop-color="#960000"/><stop offset="1" stop-color="#78ff72"/></linearGradient><linearGradient x1="394.74013" y1="333.8" x2="396.74013" y2="333.8" gradientUnits="userSpaceOnUse" id="color-32"><stop offset="0" stop-color="#960000"/><stop offset="1" stop-color="#78ff72"/></linearGradient><linearGradient x1="394.74013" y1="339.5" x2="396.94013" y2="339.5" gradientUnits="userSpaceOnUse" id="color-33"><stop offset="0" stop-color="#960000"/><stop offset="1" stop-color="#78ff72"/></linearGradient><linearGradient x1="397.94013" y1="339.51069" x2="405.54013" y2="339.51069" gradientUnits="userSpaceOnUse" id="color-34"><stop offset="0" stop-color="#960000"/><stop offset="1" stop-color="#78ff72"/></linearGradient><linearGradient x1="407.73829" y1="339.32525" x2="414.19728" y2="339.32525" gradientUnits="userSpaceOnUse" id="color-35"><stop offset="0" stop-color="#960000"/><stop offset="1" stop-color="#78ff72"/></linearGradient><linearGradient x1="414.54013" y1="337.33334" x2="416.54013" y2="337.33334" gradientUnits="userSpaceOnUse" id="color-36"><stop offset="0" stop-color="#960000"/><stop offset="1" stop-color="#78ff72"/></linearGradient><linearGradient x1="415.12413" y1="342.03334" x2="416.96413" y2="342.03334" gradientUnits="userSpaceOnUse" id="color-37"><stop offset="0" stop-color="#960000"/><stop offset="1" stop-color="#78ff72"/></linearGradient><linearGradient x1="418.34523" y1="341.235" x2="423.30894" y2="341.235" gradientUnits="userSpaceOnUse" id="color-38"><stop offset="0" stop-color="#960000"/><stop offset="1" stop-color="#78ff72"/></linearGradient><linearGradient x1="424.95918" y1="341.66729" x2="440.01324" y2="341.66729" gradientTransform="translate(-18929.1392,-2634.09883) scale(44.54343,7.67578)" gradientUnits="userSpaceOnUse" id="color-39"><stop offset="0" stop-color="#960000"/><stop offset="1" stop-color="#78ff72"/></linearGradient><linearGradient x1="390.11223" y1="318.28424" x2="392.33516" y2="318.28424" gradientUnits="userSpaceOnUse" id="color-40"><stop offset="0" stop-color="#960000"/><stop offset="1" stop-color="#78ff72"/></linearGradient><linearGradient x1="392.89001" y1="317.50371" x2="410.61138" y2="317.50371" gradientUnits="userSpaceOnUse" id="color-41"><stop offset="0" stop-color="#960000"/><stop offset="1" stop-color="#78ff72"/></linearGradient></defs><g transform="translate(-146.78228,-88.30587)"><g data-paper-data="{&quot;isPaintingLayer&quot;:true}" fill-rule="nonzero" stroke-linejoin="miter" stroke-miterlimit="10" stroke-dasharray="" stroke-dashoffset="0" style="mix-blend-mode: normal"><path d="M149.28229,347.15886v-256.35298h320.55784v256.35298z" fill="url(#color-1)" stroke="#000000" stroke-width="5" stroke-linecap="butt"/><path d="M149.28229,347.15886v-256.35298h320.55784v256.35298z" fill="#ffffff" stroke="#000000" stroke-width="5" stroke-linecap="butt"/><path d="M151.36757,171.74709v-79.45043h142.5v79.45043z" fill="#000000" stroke="none" stroke-width="0" stroke-linecap="butt"/><text transform="translate(154.61757,108.06336) scale(0.37277,0.37277)" font-size="40" xml:space="preserve" fill="#ffffff" fill-rule="nonzero" stroke="none" stroke-width="1" stroke-linecap="butt" stroke-linejoin="miter" stroke-miterlimit="10" stroke-dasharray="" stroke-dashoffset="0" font-family="Serif" font-weight="normal" text-anchor="start" style="mix-blend-mode: normal"><tspan x="0" dy="0">Name: Park'nson</tspan><tspan x="0" dy="46.15px">Age: 19</tspan><tspan x="0" dy="46.15px">Gender: Male</tspan><tspan x="0" dy="46.15px">Allignment: TN</tspan></text><path d="M151.33477,194.07526v-23.23176h93.46352v23.23176z" fill="#000000" stroke="none" stroke-width="0" stroke-linecap="butt"/><text transform="translate(157.31652,187.11027) scale(0.42192,0.42192)" font-size="40" xml:space="preserve" fill="#ffffff" fill-rule="nonzero" stroke="none" stroke-width="1" stroke-linecap="butt" stroke-linejoin="miter" stroke-miterlimit="10" stroke-dasharray="" stroke-dashoffset="0" font-family="Serif" font-weight="normal" text-anchor="start" style="mix-blend-mode: normal"><tspan x="0" dy="0">Description:</tspan></text><text transform="translate(153.4324,205.10644) scale(0.26476,0.26476)" font-size="40" xml:space="preserve" fill="#000000" fill-rule="nonzero" stroke="none" stroke-width="1" stroke-linecap="butt" stroke-linejoin="miter" stroke-miterlimit="10" stroke-dasharray="" stroke-dashoffset="0" font-family="Serif" font-weight="normal" text-anchor="start" style="mix-blend-mode: normal"><tspan x="0" dy="0">A 19 year old college student. Park'nson was a vocalist in his music</tspan><tspan x="0" dy="48px">course. At a gig, the drummer decided it'd be a cool effect to add</tspan><tspan x="0" dy="48px">a tiny bit of gunpowder inside of the bass drum. It'd be a cool way to</tspan><tspan x="0" dy="48px">end the show blowing off the front skin. They accidentially added too</tspan><tspan x="0" dy="48px">much, and it ended up blowing Park'nson into a wall covered in drain</tspan><tspan x="0" dy="48px">pipes. All it took was one kick. Park'nson hit the wall so hard the pipes</tspan><tspan x="0" dy="48px">impaled him in 3 different places. We found him and took care of him.</tspan><tspan x="0" dy="48px">but we cant remove the pipes.</tspan></text><path d="M468.67013,171.65298h-225" fill="none" stroke="#000000" stroke-width="2.5" stroke-linecap="round"/><text transform="translate(328.82813,109.56133) scale(0.43004,0.43004)" font-size="40" xml:space="preserve" fill="#000000" fill-rule="nonzero" stroke="none" stroke-width="1" stroke-linecap="butt" stroke-linejoin="miter" stroke-miterlimit="10" stroke-dasharray="" stroke-dashoffset="0" font-family="Serif" font-weight="normal" text-anchor="start" style="mix-blend-mode: normal"><tspan x="0" dy="0">Icon:</tspan></text><text transform="translate(397.66144,109.93668) scale(0.42367,0.42367)" font-size="40" xml:space="preserve" fill="#000000" fill-rule="nonzero" stroke="none" stroke-width="1" stroke-linecap="butt" stroke-linejoin="miter" stroke-miterlimit="10" stroke-dasharray="" stroke-dashoffset="0" font-family="Serif" font-weight="normal" text-anchor="start" style="mix-blend-mode: normal"><tspan x="0" dy="0">Sound:</tspan></text><g fill="#000000" stroke="#ff0000" stroke-width="1" stroke-linecap="butt"><path d="M461.95924,327.37685c0,7.13978 -5.78794,12.92772 -12.92772,12.92772c-7.13978,0 1.31468,-6.00705 1.31468,-13.14683c0,-7.13978 -8.45447,-12.70861 -1.31468,-12.70861c7.13978,0 12.92772,5.78794 12.92772,12.92772z"/><path d="M434.57,331.97827v-9.86013l8.76456,-6.57342c0,0 1.12156,2.83253 2.54216,5.62998c1.18783,2.33908 2.27835,3.71126 2.27835,4.88749c0,0.90223 -0.86154,3.62391 -1.92707,5.83203c-1.72667,3.57819 -3.55077,7.75303 -3.55077,7.75303z"/><path d="M461.00975,316.45769c0,1.53475 -2.34164,-1.69063 -6.92011,-3.55443c-2.34085,-0.95291 -5.07216,-0.86437 -7.76052,-0.86437c-0.66484,0 -1.35286,0.13043 -1.93358,0.34429c-1.45839,0.53706 -2.77373,1.45416 -4.04713,2.29885c-4.28013,2.83917 -7.16613,6.7004 -7.16613,5.06237c0,-2.31942 6.29586,-10.70006 14.2424,-10.70006c7.94654,0 13.58506,5.09393 13.58506,7.41335z"/></g><text transform="translate(154.09963,325.37156) scale(0.16386,0.16386)" font-size="40" xml:space="preserve" fill="#000000" fill-rule="nonzero" stroke="none" stroke-width="1" stroke-linecap="butt" stroke-linejoin="miter" stroke-miterlimit="10" stroke-dasharray="" stroke-dashoffset="0" font-family="Sans Serif" font-weight="normal" text-anchor="start" style="mix-blend-mode: normal"><tspan x="0" dy="0">THIS DOCUMENT IS NOT TO BE</tspan><tspan x="0" dy="46.15px">SHARED WITH ANYBODY AFFILIATED</tspan><tspan x="0" dy="46.15px">WITH DONK INDUSTRIES</tspan></text><path d="M272.14013,315.4c-1,0 -1,-1 -1,-1v-1c0,-2.54889 0.44358,-5.15821 0.4,-7.6c0,0 0,-1 1,-1c1,0 1,1 1,1c-0.03249,2.50095 -0.4,5.01034 -0.4,7.6v1c0,0 0,1 -1,1z" fill="url(#color-2)" stroke="none" stroke-width="0.5" stroke-linecap="butt"/><path d="M281.54013,311.6c0,1 -1,1 -1,1h-0.6c-0.52807,-0.00234 -1.04732,-0.03348 -1.56522,-0.07052c0.12117,0.73996 0.35604,1.46558 0.60006,2.12003l0.67226,0.64338c0,0 0.70711,0.70711 0,1.41421c-0.70711,0.70711 -1.41421,0 -1.41421,0l-0.92773,-0.95661c-0.49957,-1.19559 -0.79977,-2.2861 -0.86635,-3.34239c-0.16541,-0.00516 -0.3316,-0.0081 -0.49881,-0.0081c0,0 -1,0 -1,-1c0,-1 1,-1 1,-1c0.22265,0 0.44396,0.0056 0.66432,0.01492c0.19286,-0.82113 0.54449,-1.64902 1.07168,-2.5184c0.35577,-0.58671 0.55915,-2.12426 1.01437,-2.45677c2.34767,-1.71479 3.53445,0.56324 3.64963,2.36025c0,0 0,1 -1,1c-1,0 -1,-1 -1,-1c0.33099,-2.36012 -1.43952,1.48317 -1.68689,2.00771c-0.11182,0.23711 -0.19462,0.48094 -0.25271,0.72915c0.51131,0.03682 1.02292,0.06593 1.5396,0.06314h0.6c0,0 1,0 1,1z" fill="url(#color-3)" stroke="none" stroke-width="0.5" stroke-linecap="butt"/><path d="M290.94013,317.4c0,1 -1,1 -1,1h-0.4c-0.79188,-0.00351 -1.58528,-0.10607 -2.36059,-0.26728c-1.06876,-0.64231 -1.86561,-0.90416 -2.38304,-2.20171c-0.15915,-0.39913 -0.23254,-0.80266 -0.2345,-1.19992c-0.90571,-1.03456 -1.28857,-2.49926 -0.75035,-3.90247c0,0 0.37139,-0.92848 1.29987,-0.55709c0.92847,0.37139 0.55709,1.29987 0.55709,1.29987c-0.08681,0.20484 -0.13067,0.4132 -0.13696,0.61817c1.50659,-1.84458 4.35819,-2.58541 5.53236,0.02776c0.73591,1.63782 -0.8135,3.3226 -2.25695,3.7464c-0.37736,0.11079 -0.74926,0.16616 -1.11019,0.17293c0.06523,0.04483 0.13321,0.08839 0.20385,0.13064c0.53897,0.10049 1.09116,0.13568 1.63941,0.13272h0.4c0,0 1,0 1,1zM286.68962,313.95698c0.45312,0.20765 1.00328,0.2627 1.58357,0.07931c0.25588,-0.08087 1.12748,-0.61232 0.94306,-1.0536c-0.21245,-0.50831 -1.97061,-0.34328 -2.22189,0.1372c-0.1531,0.29275 -0.25335,0.57201 -0.30473,0.83709z" fill="url(#color-4)" stroke="none" stroke-width="0.5" stroke-linecap="butt"/><path d="M298.58734,326.09443c-0.89443,0.44722 -1.34164,-0.44721 -1.34164,-0.44721l-0.13027,-0.46634c-2.56779,-2.10019 -3.54602,-5.40076 -2.86993,-8.34245c-0.84118,-2.72841 -2.30641,-7.21223 1.69462,-7.63842c0,0 1,0 1,1c0,1 -1,1 -1,1c-0.93012,-0.34175 -0.60627,0.76734 -0.6,1.4c0.00288,0.29114 0.04503,0.83619 0.12772,1.48487c0.62282,-0.88511 1.45048,-1.66311 2.48574,-2.26733c0.64317,0.11423 1.38004,-0.01057 1.92951,0.3427c3.27871,2.10796 0.48407,9.68595 -3.4592,8.38843c-0.04951,-0.01629 -0.09752,-0.03339 -0.1441,-0.05128c0.38234,1.23501 1.09947,2.35611 2.08503,3.12173l0.66973,1.13366c0,0 0.44721,0.89442 -0.44721,1.34164zM296.09543,317.12753c0.25384,0.78373 0.57331,1.3879 0.96092,1.52379c1.67116,0.58589 3.45353,-4.60296 1.27031,-4.86887c-1.23802,0.81201 -1.95543,2.02282 -2.23123,3.34508z" fill="url(#color-5)" stroke="none" stroke-width="0.5" stroke-linecap="butt"/><path d="M304.78266,321.97014c-0.97015,0.24253 -1.21268,-0.72761 -1.21268,-0.72761l-0.22985,-1.04253c0,-3.13529 0.20053,-6.34792 -0.19018,-9.45932c-0.00647,-0.04597 -0.00982,-0.09293 -0.00982,-0.14068c0,-0.08242 0.00997,-0.16252 0.02877,-0.23914c0.05991,-0.29192 0.24932,-0.66649 0.81792,-0.74919c0.01684,-0.00259 0.03381,-0.00475 0.05091,-0.00649c0.57729,-0.06354 0.85494,0.25523 0.98528,0.5248c0.05847,0.1096 0.09713,0.23137 0.1112,0.36052c0.39436,3.19925 0.20592,6.48665 0.20592,9.7095l0.17014,0.55747c0,0 0.24254,0.97014 -0.72761,1.21267z" fill="url(#color-6)" stroke="none" stroke-width="0.5" stroke-linecap="butt"/><path d="M311.93854,316.19354c0.0837,0.24509 0.17897,0.49215 0.28736,0.74236c0.24729,0.5708 1.92931,1.19868 2.35397,0.61447c1.31068,-1.80313 -1.55536,-1.41483 -2.64133,-1.35683zM311.47864,314.2h0.26148c0.84956,0 2.88144,-0.28202 3.58269,0.07612c2.58749,1.32146 1.33312,4.79592 -1.02251,5.31097c-4.62921,1.01216 -4.96018,-5.18467 -4.96018,-8.18709c0,0 0,-1 1,-1c1,0 1,1 1,1c0,0.98856 0.01974,1.90243 0.13852,2.8z" fill="url(#color-7)" stroke="none" stroke-width="0.5" stroke-linecap="butt"/><path d="M328.34013,316c0,1 -1,1 -1,1l-1.3071,-0.29289c-0.28936,-0.29284 -0.53412,-0.57986 -0.76196,-0.85731c-0.11469,0.28676 -0.27853,0.58797 -0.49786,0.90335c-1.18563,1.70486 -4.83682,0.90342 -5.88374,-0.62742c-0.44143,-0.64547 -0.06777,-2.01673 0.07007,-2.72184c0,0 0.0871,-0.43552 0.43545,-0.66801c0.11871,-0.12622 0.23064,-0.19337 0.23064,-0.19337l1.24756,-0.70622c0.5668,-0.01381 1.18402,0.06092 1.77715,0.22075c0.47001,-0.48496 1.13699,-0.15147 1.13699,-0.15147c1.76182,0.89993 2.32706,2.07413 3.65989,3.38732l-0.1071,-0.29289c0,0 1,0 1,1zM320.7586,314.18926c-0.17631,0.33157 -0.39366,0.66848 -0.16782,0.88501c0.17492,0.16772 2.3669,1.00707 2.51626,0.57259c0.575,-1.6726 -0.33805,-1.81432 -1.69998,-1.88314z" fill="url(#color-8)" stroke="none" stroke-width="0.5" stroke-linecap="butt"/><path d="M331.90043,313.01692c0.02496,-0.7447 0.11727,-1.48737 0.25912,-2.21303c0,0 0.19612,-0.98058 1.17669,-0.78446c0.98058,0.19612 0.78447,1.17669 0.78447,1.17669c-0.42538,2.06998 1.10915,6.12496 -1.71364,6.7676c-2.47818,0.56419 -3.41767,-3.3582 -1.90093,-4.73706c0.34898,-0.31725 0.90068,-0.20145 1.39429,-0.20974zM332.09628,314.97673c-0.54809,-0.23973 -0.30723,1.88198 0.17365,0.93057c0.14562,-0.28811 -0.02864,-0.60715 -0.17365,-0.93057z" fill="url(#color-9)" stroke="none" stroke-width="0.5" stroke-linecap="butt"/><path d="M341.54013,319.8c0,1 -1,1 -1,1c-0.39224,0 -0.8364,0 -1.30194,0c0.15659,1.23363 0.29844,2.48505 0.30194,3.8v0.8c0,0 0,1 -1,1c-1,0 -1,-1 -1,-1v-0.8c0.00392,-1.28691 -0.1352,-2.54859 -0.29538,-3.8c-0.46652,0 -0.91163,0 -1.30462,0c0,0 -1,0 -1,-1c0,-1 1,-1 1,-1c0.34946,0 0.69891,0 1.04837,0c-0.29573,-2.49002 -0.41475,-4.97093 0.61965,-7.56252c1.64465,-4.1205 6.08747,-2.43613 6.13197,1.56252c0,0 0,1 -1,1c-1,0 -1,-1 -1,-1c0.04843,-3.14983 -2.12222,-1.96927 -2.62199,0.40855c-0.41513,1.97515 -0.32792,3.79088 -0.12817,5.59145c0.31672,0 0.63344,0 0.95016,0h0.6c0,0 1,0 1,1z" fill="url(#color-10)" stroke="none" stroke-width="0.5" stroke-linecap="butt"/><path d="M345.68249,320.2c-0.29798,0.41268 -0.51292,0.87724 -0.37865,1.33307c0.15249,0.51765 1.76427,1.42339 2.03409,1.06858c0.65663,-0.86345 -0.21733,-2.52255 -1.1978,-2.40165zM346.71365,318.28827c2.32072,0.58706 4.02551,3.83184 1.82867,5.91008c-1.57144,1.48661 -4.70173,-0.59476 -5.16591,-2.13142c-0.5034,-1.66653 0.64804,-2.95346 1.59549,-4.10712c0,0 0.64019,-0.76822 1.40841,-0.12804c0.17879,0.149 0.28129,0.30492 0.33334,0.45649z" fill="url(#color-11)" stroke="none" stroke-width="0.5" stroke-linecap="butt"/><path d="M356.94013,317.2c0,1 -1,1 -1,1h-0.2c-1.84932,0 -2.34568,0.36799 -3.50686,1.52139c0.53334,1.80338 1.21708,3.5033 1.85555,5.36238l0.05131,1.11623c0,0 0,1 -1,1c-1,0 -1,-1 -1,-1l0.05131,-0.48377c-0.644,-2.01002 -1.37725,-3.88185 -1.95328,-5.85849c-0.08409,-0.14561 -0.11742,-0.28758 -0.11933,-0.41947c-0.22181,-0.79974 -0.41548,-1.61913 -0.56511,-2.47387c0,0 -0.1644,-0.9864 0.822,-1.1508c0.9864,-0.1644 1.1508,0.822 1.1508,0.822c0.04728,0.30313 0.1005,0.60055 0.15898,0.89321c1.132,-0.92936 2.16782,-1.32881 4.05462,-1.32881h0.2c0,0 1,0 1,1z" fill="url(#color-12)" stroke="none" stroke-width="0.5" stroke-linecap="butt"/><path d="M363.14013,326.4c-1,0 -1,-1 -1,-1v-0.2c0,-2.37511 0.30904,-4.71757 0.48368,-7.06956c-0.41287,-0.03491 -0.82786,-0.07514 -1.24809,-0.14405c0,0 -0.9864,-0.1644 -0.822,-1.1508c0.1644,-0.9864 1.1508,-0.822 1.1508,-0.822c0.34489,0.05854 0.68574,0.09818 1.02483,0.1309c0.00853,-0.31442 0.01247,-0.62923 0.01077,-0.9445c0,0 0,-1 1,-1c1,0 1,1 1,1c-0.00169,0.38293 -0.01084,0.7651 -0.02572,1.14668c0.14011,0.02118 0.28066,0.04514 0.42183,0.07274l0.00389,-0.01942c0,0 1,0 1,1c0,1 -1,1 -1,1l-0.39612,-0.01942c-0.05053,-0.01038 -0.10102,-0.02026 -0.15145,-0.02965c-0.17775,2.27856 -0.45243,4.54817 -0.45243,6.84907v0.2c0,0 0,1 -1,1z" fill="url(#color-13)" stroke="none" stroke-width="0.5" stroke-linecap="butt"/><path d="M375.54013,325.6c-1,0 -1,-1 -1,-1l0.07153,0.17139c-1.26686,-3.20038 -1.2572,-3.99093 -4.1685,-3.13523c0.29636,0.84274 0.69443,1.75542 0.69697,2.56384v0.8c0,0 0,1 -1,1c-1,0 -1,-1 -1,-1v-0.8c0.0033,-0.88824 -0.33726,-1.63684 -0.62261,-2.38862c-0.13138,-0.10381 -0.248,-0.26093 -0.32608,-0.49515c-0.09039,-0.27118 -0.07743,-0.49067 -0.01281,-0.66588c-0.03598,-0.2232 -0.05151,-0.45239 -0.03768,-0.69078c0.08333,-1.43553 0.75791,-3.79402 1.27071,-5.13095c0,0 0.37139,-0.92848 1.29987,-0.55709c0.92847,0.37139 0.55708,1.29987 0.55708,1.29987c-0.45616,1.07644 -0.86176,2.73052 -1.06444,4.01646c1.78292,-0.56434 3.73273,-0.91351 4.96402,0.85152c0.74334,1.06556 0.82538,2.41616 1.30041,3.58924l0.07153,0.57139c0,0 0,1 -1,1z" fill="url(#color-14)" stroke="none" stroke-width="0.5" stroke-linecap="butt"/><path d="M383.72652,325.5644c-0.1644,0.9864 -1.1508,0.822 -1.1508,0.822l-1.11808,-0.1898c-2.9287,-0.12424 -3.87034,-2.43796 -3.53522,-4.50043c-0.0188,-0.16297 0.00874,-0.34792 0.1207,-0.54793c0.57869,-2.06894 2.45845,-3.6332 4.85015,-1.98131c2.02402,1.39794 1.06712,3.89842 -0.96403,4.41504c-0.61813,0.15722 -1.18837,0.09424 -1.72266,-0.09177c0.35944,0.45309 0.86529,0.75203 1.41603,0.71322l1.28192,0.2102c0,0 0.9864,0.1644 0.822,1.15079zM379.89986,321.06418c0.59035,0.41159 1.59922,0.99906 2.06126,0.5088c0.67908,-0.72057 -1.64287,-1.16938 -2.02728,-0.56469c-0.01174,0.01846 -0.02306,0.0371 -0.03398,0.0559z" fill="url(#color-15)" stroke="none" stroke-width="0.5" stroke-linecap="butt"/><path d="M271.34013,335.8c0,-1 1,-1 1,-1l1.10146,0.00486c1.96465,-0.36631 3.05326,-2.18532 3.15343,-4.05353c-1.59872,0.81865 -3.99653,0.81479 -4.99448,-1.20907c-0.228,-0.46237 0.10602,-1.02559 0.15902,-1.53838c0,0 0.04349,-0.21746 0.19191,-0.42708c-0.00739,-0.05516 -0.01133,-0.11401 -0.01133,-0.17681c0,-1 1,-1 1,-1h0.2c0.73568,0.00326 1.47533,0.07208 2.19611,0.21942c0.21578,0.04411 0.44148,0.06076 0.66025,0.09728c0.0624,-0.06097 0.13803,-0.11953 0.22915,-0.17419c0.85749,-0.5145 1.37199,0.343 1.37199,0.343c2.15137,3.80047 0.59343,8.96308 -3.95896,9.90963l-1.29854,0.00486c0,0 -1,0 -1,-1zM273.7195,328.39844c-0.77578,1.49164 2.55597,0.46991 2.51276,0.42081c-0.31561,-0.35861 -1.66056,-0.41499 -2.51276,-0.42081z" fill="url(#color-16)" stroke="none" stroke-width="0.5" stroke-linecap="butt"/><path d="M289.64723,335.3071c-0.57844,0.57844 -1.15687,0.21052 -1.34823,0.05746c-1.29125,-0.17194 -2.34499,-0.92541 -3.01822,-1.9675c-1.69641,0.78789 -3.81182,1.04091 -4.85593,-0.09823c-0.56064,-0.61167 -0.4827,-2.23914 -0.48472,-3.09884c0,0 0,-1 1,-1c1,0 1,1 1,1c-0.00153,0.56775 -0.41624,1.24025 -0.08472,1.70116c0.21819,0.30336 1.7335,-0.03711 2.69737,-0.35792c-0.10823,-0.59456 -0.11577,-1.21862 -0.00779,-1.84178c0.23609,-1.36253 0.69814,-2.99618 2.82913,-1.6748c0.83823,0.51977 0.58012,2.72387 0.27912,3.38106c-0.12592,0.27491 -0.33559,0.55133 -0.60703,0.8166c0.1261,0.70218 0.48342,1.2356 1.69392,1.17568l0.90711,0.4929c0,0 0.70711,0.7071 0,1.41421z" fill="url(#color-17)" stroke="none" stroke-width="0.5" stroke-linecap="butt"/><path d="M290.93432,338.88531c-0.0265,0.24187 -0.17394,0.91469 -0.99419,0.91469c-1,0 -1,-1 -1,-1l0.1425,-0.71449c1.12803,-1.87727 2.01843,-3.86856 3.23567,-5.54477c-0.76492,-0.28441 -1.4262,-1.07711 -2.23567,-2.42624c0,0 -0.51449,-0.85749 0.343,-1.37199c0.85749,-0.5145 1.37199,0.343 1.37199,0.343c0.03121,0.05203 0.97616,2.01904 1.26263,1.91769c0.4715,-0.16681 0.82758,-0.55728 1.24272,-0.84035l-0.06995,-0.06995l0.8,-0.8l0.4,0.4c0.30246,-0.16502 0.62249,-0.31503 0.96231,-0.44835l-0.2667,1.04683l0.4115,0.30862l-0.6,0.8l-0.07887,-0.05915l-0.0514,0.20175c-0.08498,0.05259 -0.16839,0.10338 -0.25027,0.15236c-0.36692,0.5849 -1.75845,2.04802 -1.93445,2.37059c-0.90153,1.65231 -1.7249,3.19305 -2.69082,4.81976z" fill="url(#color-18)" stroke="none" stroke-width="0.5" stroke-linecap="butt"/><path d="M301.34013,339.4c-1,0 -1,-1 -1,-1l0.01942,-0.40389c-0.28395,-1.42066 -0.44549,-2.8013 -0.53189,-4.19611c-0.38901,0 -0.75688,0 -1.08754,0c0,0 -1,0 -1,-1c0,-1 1,-1 1,-1c0.33675,0 0.67352,0 1.01027,0c-0.00719,-0.3965 -0.01027,-0.79611 -0.01027,-1.2c0,0 0,-1 1,-1c1,0 1,1 1,1c0,0.40446 0.00304,0.80397 0.01033,1.2c0.52989,0 1.05978,0 1.58967,0h0.8c0,0 1,0 1,1c0,1 -1,1 -1,1c-0.66326,0 -1.4762,0 -2.30934,0c0.08236,1.26217 0.23167,2.51353 0.48991,3.80388l0.01942,0.79611c0,0 0,1 -1,1z" fill="url(#color-19)" stroke="none" stroke-width="0.5" stroke-linecap="butt"/><path d="M311.94013,339.6c-1,0 -1,-1 -1,-1l0.01942,-0.40389c-0.25185,-1.54857 -1.37457,-1.91308 -2.63851,-1.98849c-0.11782,0.38842 -0.24675,0.77859 -0.39696,1.17079l0.01605,1.02157c0,0 0,1 -1,1c-1,0 -1,-1 -1,-1l0.01604,-1.37842c0.10658,-0.28981 0.20382,-0.5786 0.29487,-0.86645c-0.29535,-0.08141 -0.71091,-0.31048 -0.71091,-0.95513c0,-1 1,-1 1,-1c0.09156,0 0.18288,0.00024 0.27392,0.00079c0.32307,-1.15992 0.66222,-2.30734 1.23165,-3.448c0,0 0.44721,-0.89443 1.34164,-0.44722c0.89443,0.44722 0.44721,1.34165 0.44721,1.34165c-0.44248,0.88349 -0.72598,1.77062 -0.97943,2.66487c1.9456,0.25115 3.51857,1.04512 4.06558,3.4918l0.01942,0.79612c0,0 0,1 -1,1z" fill="url(#color-20)" stroke="none" stroke-width="0.5" stroke-linecap="butt"/><path d="M320.66747,335.85607c0.29165,0.09042 0.67266,0.32668 0.67266,0.94393c0,1 -1,1 -1,1l-0.98087,-0.37531c-0.1933,-0.24541 -0.38272,-0.49721 -0.56824,-0.7543c-0.94777,2.15704 -2.97908,3.59169 -4.73257,0.60146c-0.02473,-0.04217 -0.07339,-0.2331 -0.13118,-0.4886c-0.78715,-0.13074 -0.78715,-0.98326 -0.78715,-0.98326l0.21913,-1.0247c0.09752,-0.11845 0.18021,-0.24778 0.25379,-0.38369c0.02233,-0.05928 0.05138,-0.11858 0.08889,-0.17561c0.28468,-0.59877 0.44812,-1.2837 0.93109,-1.72312c0.36498,-0.33207 0.86053,-0.48855 1.35476,-0.59903c-0.08313,-0.2753 -0.16031,-0.85557 0.50513,-1.18829c0.89443,-0.44722 1.34164,0.44721 1.34164,0.44721c0.13783,0.27605 0.27977,0.55461 0.42593,0.83387c0.65299,0.35666 0.97712,1.05423 1.05215,1.87582c0.42239,0.69684 0.87351,1.37147 1.35484,1.9936zM315.55761,334.78126c0.61536,2.84323 1.62701,1.98314 1.93485,-0.08894c-0.18581,-0.30915 -0.36667,-0.62153 -0.54255,-0.9356c-0.41561,0.03657 -0.88851,0.13286 -0.90267,0.15039c-0.21042,0.2603 -0.35568,0.56345 -0.48962,0.87415z" fill="url(#color-21)" stroke="none" stroke-width="0.5" stroke-linecap="butt"/><path d="M324.18734,336.89443c-0.89443,0.44722 -1.34164,-0.44721 -1.34164,-0.44721l-0.2,-0.4c-0.69131,-1.3888 -1.05773,-2.58745 -1.03927,-3.84722c-0.09012,0 -0.17897,0 -0.26631,0c0,0 -1,0 -1,-1c0,-1 1,-1 1,-1c0.20008,0 0.40016,0 0.60024,0c0.07676,-0.25048 0.16707,-0.50711 0.27129,-0.77139c0,0 0.37139,-0.92847 1.29986,-0.55708c0.92847,0.37139 0.55709,1.29986 0.55709,1.29986c-0.00389,0.00955 -0.00774,0.01909 -0.01159,0.02861c0.09437,0 0.18874,0 0.28311,0h0.2c0,0 1,0 1,1c0,1 -1,1 -1,1c-0.3011,0 -0.62033,0 -0.94678,0c-0.02223,0.95693 0.28317,1.84222 0.84121,2.95279l0.2,0.4c0,0 0.44722,0.89443 -0.44721,1.34164z" fill="url(#color-22)" stroke="none" stroke-width="0.5" stroke-linecap="butt"/><path d="M328.90808,338.2453c0.5547,-0.83205 1.38675,-0.27735 1.38675,-0.27735l0.41669,0.30358c3.28607,1.39252 4.5891,-0.69745 4.86157,-3.30219c-0.74951,0.62935 -1.60754,1.06524 -2.19314,1.01774c-0.24072,-0.01952 -1.03302,-0.76548 -1.64107,-1.36813c-0.59546,0.02371 -0.89318,-0.57174 -0.89318,-0.57174l-0.30558,-0.84722c0.12131,-2.20364 3.06056,-3.47306 4.98714,-2.82037c0.11848,-0.1608 0.31007,-0.29888 0.61674,-0.36021c0.98058,-0.19612 1.17669,0.78446 1.17669,0.78446c1.0264,5.25072 -0.834,11.82464 -7.35197,9.32459l-0.78331,-0.49642c0,0 -0.83205,-0.5547 -0.27735,-1.38675zM332.57311,332.62032c1.01283,1.03636 1.69191,1.95753 2.57451,-0.09814c0.12032,-0.28023 -0.6015,-0.11077 -0.90603,-0.12705c-0.78109,-0.04174 -1.47965,-0.27137 -1.66848,0.22519z" fill="url(#color-23)" stroke="none" stroke-width="0.5" stroke-linecap="butt"/><path d="M342.06452,335.77733c-0.95155,2.46321 3.26818,0.45038 3.29603,-0.37626c0.01259,-0.37369 -0.72961,-0.18312 -1.1029,-0.20448c-0.96145,-0.055 -1.5832,0.13464 -2.19313,0.58074zM339.84824,337.1775c-0.13473,-0.04553 -0.27497,-0.13015 -0.41521,-0.27039c-0.70711,-0.70711 0,-1.41421 0,-1.41421l0.4,-0.4c1.48831,-1.47062 6.56518,-3.69213 7.48669,-0.09396c0.82429,3.21856 -6.43005,5.5536 -7.47147,2.17856z" fill="url(#color-24)" stroke="none" stroke-width="0.5" stroke-linecap="butt"/><path d="M349.74013,340.6c-1,0 -1,-1 -1,-1l0.01942,-0.00389c-0.35744,-1.82853 -0.34537,-3.60051 -0.29156,-5.39372c-0.1755,-0.00137 -0.35142,-0.0024 -0.52786,-0.0024c0,0 -1,0 -1,-1c0,-1 1,-1 1,-1c0.19613,0 0.39215,0.002 0.58801,0.0047c0.00732,-0.33307 0.01198,-0.66781 0.01198,-1.0047c0,0 0,-1 1,-1c1,0 1,1 1,1c0,0.33658 -0.00572,0.67105 -0.01468,1.00389c0.5421,-0.02224 1.08192,-0.07418 1.61857,-0.18446l0.39612,-0.01942c0,0 1,0 1,1c0,1 -1,1 -1,1l-0.00388,-0.01942c-0.69595,0.13605 -1.38907,0.19368 -2.08439,0.21611c-0.0614,1.66577 -0.07907,3.31412 0.26886,5.0072l0.01942,0.39612c0,0 0,1 -1,1z" fill="url(#color-25)" stroke="none" stroke-width="0.5" stroke-linecap="butt"/><path d="M364.74013,340.4c-0.8,0.6 -1.4,-0.2 -1.4,-0.2l-0.50711,-0.69289c-0.4099,-0.41185 -0.82697,-0.73414 -1.2317,-1.0234c0.00867,0.70918 -0.13719,1.35146 -0.4924,1.75579c-1.28012,1.45713 -3.66874,0.92669 -4.49268,-0.65681c-0.41015,-0.78826 -0.13874,-2.14205 0.14642,-3.15072c-0.22168,-0.13648 -0.42254,-0.38379 -0.42254,-0.83196c0,-1 1,-1 1,-1h0.2c0.23489,0 0.72521,-0.00762 1.21796,0.00397c0.04585,-0.29654 0.21974,-0.67131 0.78593,-0.78455c0.98058,-0.19612 1.17669,0.78447 1.17669,0.78447c0.34421,1.89032 2.19847,2.1665 3.52652,3.48901l0.6929,0.90711c0,0 0.6,0.8 -0.2,1.4zM358.87771,336.36123c-0.10042,0.49374 -0.46974,4.12468 0.69362,2.59928c0.32308,-0.42363 -0.36085,-2.32885 -0.59184,-2.53244c-0.03219,-0.02837 -0.06619,-0.05034 -0.10179,-0.06684z" fill="url(#color-26)" stroke="none" stroke-width="0.5" stroke-linecap="butt"/><path d="M368.14401,336.81942c2.63224,-0.47931 1.4555,-0.58897 -0.01829,-0.61298c-0.00414,0.20506 -0.0079,0.40887 -0.00923,0.61166zM370.81643,334.12072c2.81534,2.02274 -0.4808,4.27686 -2.28019,4.65986l-0.28199,0.00688c0.05516,0.29889 0.13102,0.59737 0.23456,0.89631l0.05131,1.11623c0,0 0,1 -1,1c-1,0 -1,-1 -1,-1l0.05131,-0.48378c-0.55617,-1.7203 -0.45131,-3.32067 -0.45131,-5.11622c0,-0.34729 0.12061,-0.57398 0.27806,-0.72193c0.14796,-0.15745 0.37464,-0.27807 0.72194,-0.27807c0.60066,0 3.33926,-0.32144 3.67631,-0.07928z" fill="url(#color-27)" stroke="none" stroke-width="0.5" stroke-linecap="butt"/><path d="M371.74013,333.6c0,-0.55228 0.44772,-1 1,-1c0.55228,0 1,0.44772 1,1c0,0.55228 -0.44772,1 -1,1c-0.55228,0 -1,-0.44772 -1,-1z" fill="url(#color-28)" stroke="none" stroke-width="0.5" stroke-linecap="butt"/><path d="M373.73624,343.98058c-0.98058,0.19612 -1.17669,-0.78446 -1.17669,-0.78446l-0.21456,-1.09758c-0.005,-1.12953 0.04253,-2.19304 -0.18545,-3.30242c0,0 -0.19611,-0.98058 0.78447,-1.17669c0.98058,-0.19612 1.17669,0.78447 1.17669,0.78447c0.23106,1.18201 0.22104,2.29705 0.21456,3.49757l0.18545,0.90242c0,0 0.19611,0.98058 -0.78447,1.17669z" fill="url(#color-29)" stroke="none" stroke-width="0.5" stroke-linecap="butt"/><path d="M378.89375,335.63698c0.06375,-0.02929 -0.48872,-1.57267 -0.60199,-1.67566c-0.22941,-0.20859 -0.6866,-0.24902 -1.15163,-0.23726c0,0.55865 0,1.11729 0,1.67594c0.58986,0 1.21765,0.48328 1.75362,0.23698zM374.94013,332.8c0,-1 1,-1 1,-1c1.21253,0 2.62511,-0.24389 3.64837,0.63867c1.03465,0.89238 1.79131,3.6224 0.59801,4.72435c-0.31178,0.2879 -2.47088,0.23698 -3.04638,0.23698c0,0.93511 0,1.87023 0,2.80535c0.1651,0.22702 0.44448,0.76439 -0.09289,1.30176c-0.70711,0.70711 -1.41421,0 -1.41421,0l-0.49289,-0.90711c0,-2.38742 0,-4.77483 0,-7.16226c-0.11755,-0.14592 -0.2,-0.3506 -0.2,-0.63774z" fill="url(#color-30)" stroke="none" stroke-width="0.5" stroke-linecap="butt"/><path d="M389.25636,337.65132c0.94869,0.31623 0.63245,1.26491 0.63245,1.26491l-0.1681,0.47989c-0.77503,3.83945 -4.41031,4.22425 -7.44876,2.72359c-0.07285,-0.033 -0.14407,-0.06943 -0.21355,-0.1091c-0.2506,-0.13233 -0.4965,-0.27748 -0.73569,-0.43455c-0.02107,-0.08245 -0.0412,-0.16627 -0.0603,-0.25131c-0.51204,-0.63625 -0.7944,-1.50749 -0.71742,-2.42328c0.10163,-1.20907 0.35438,-1.43941 0.90071,-2.54868c0,0 0.17459,-0.34918 0.52377,-0.5021c0.18777,-0.27522 0.40782,-0.52994 0.66355,-0.75779c1.05854,-0.94308 2.31141,-1.41735 3.48611,-0.11991c1.08586,1.19932 0.58144,4.39971 -0.46368,6.03911c1.04275,-0.08943 1.84222,-0.68491 2.1041,-2.00821l0.2319,-0.72012c0,0 0.31623,-0.94869 1.26491,-0.63245zM383.10592,340.48886c0.16246,-0.00286 0.38155,-0.09778 0.67141,-0.31545c0.91241,-0.6852 0.96663,-2.93153 0.78379,-3.94639c-0.08128,-0.4511 -0.73091,0.60217 -0.92515,1.01734c-0.53065,1.13424 -0.73123,1.94149 -0.67843,3.17959c0.04949,0.02217 0.09896,0.04381 0.14838,0.06491z" fill="url(#color-31)" stroke="none" stroke-width="0.5" stroke-linecap="butt"/><path d="M394.74013,333.8c0,-0.55228 0.44772,-1 1,-1c0.55228,0 1,0.44772 1,1c0,0.55228 -0.44772,1 -1,1c-0.55228,0 -1,-0.44772 -1,-1z" fill="url(#color-32)" stroke="none" stroke-width="0.5" stroke-linecap="butt"/><path d="M395.74013,342.8c-1,0 -1,-1 -1,-1c0,-1.06667 0,-3.13333 0,-4.2c0,0 0,-0.38507 0.23895,-0.67731c0.12021,-0.41739 0.50498,-0.72269 0.96105,-0.72269c0.55228,0 1,0.44772 1,1c0,0.22517 -0.07442,0.43295 -0.2,0.6001c0,0.99997 0,1.99993 0,2.99991v1c0,0 0,1 -1,1z" fill="url(#color-33)" stroke="none" stroke-width="0.5" stroke-linecap="butt"/><path d="M403.63302,342.70711c-0.52806,-0.52806 -0.26742,-1.05612 -0.10157,-1.28968c-0.10985,-2.30149 -1.26482,-2.41379 -3.59132,-2.41754c0,0.86671 0,1.73341 0,2.60012v0.4c0,0 0,1 -1,1c-1,0 -1,-1 -1,-1c0,-1.53334 0,-3.46666 0,-5c0,0 0,-1 1,-1c1,0 1,1 1,1c0,0.00212 0,0.00423 0,0.00635c3.44842,0.07696 5.6,0.89765 5.6,4.79366l-0.49289,0.90711c0,0 -0.70711,0.70711 -1.41421,0z" fill="url(#color-34)" stroke="none" stroke-width="0.5" stroke-linecap="butt"/><path d="M413.14013,342.93334c-1,0 -1,-1 -1,-1l0.01942,-0.39612c0.3948,-1.52231 -0.95034,-1.22301 -2.01924,-0.71802c-0.00012,0.03794 -0.00018,0.07599 -0.00018,0.11414v0.6c0,0 0,1 -1,1c-1,0 -1,-1 -1,-1v-0.59723c-0.01958,-0.02767 -0.03877,-0.05707 -0.0575,-0.08828c-0.31479,-0.52465 -0.11597,-0.92089 0.0858,-1.14946c0.02078,-0.88792 -0.00207,-1.7566 -0.35678,-2.59364c0,0 -0.37139,-0.92848 0.55709,-1.29987c0.92847,-0.37139 1.29987,0.55709 1.29987,0.55709c0.31176,0.81278 0.42536,1.59537 0.46336,2.39294c2.24479,-0.61591 4.51401,0.03235 3.98874,3.17456l0.01942,0.00389c0,0 0,1 -1,1z" fill="url(#color-35)" stroke="none" stroke-width="0.5" stroke-linecap="butt"/><path d="M414.54013,337.33334c0,-0.55228 0.44772,-1 1,-1c0.55228,0 1,0.44772 1,1c0,0.55228 -0.44772,1 -1,1c-0.55228,0 -1,-0.44772 -1,-1z" fill="url(#color-36)" stroke="none" stroke-width="0.5" stroke-linecap="butt"/><path d="M416.04413,344.33334c-0.92,0 -0.92,-0.92 -0.92,-0.92c0,-0.61334 0,-2.14666 0,-2.76c0,0 0,-0.92 0.92,-0.92c0.92,0 0.92,0.92 0.92,0.92c0,0.61334 0,1.22666 0,1.84v0.92c0,0 0,0.92 -0.92,0.92z" fill="url(#color-37)" stroke="none" stroke-width="0.5" stroke-linecap="butt"/><path d="M418.74013,343.33334c0,-1 1,-1 1,-1h0.4c0.0364,0.00339 0.07171,0.0067 0.10594,0.00992c-0.52276,-0.0722 -1.08971,-0.17652 -1.20156,-0.2915c-1.94059,-1.99488 0.61485,-3.56348 2.13121,-3.90481c0,0 0.9864,-0.1644 1.1508,0.822c0.1644,0.9864 -0.822,1.15079 -0.822,1.15079c-0.20064,0.01006 -1.12676,0.49138 -1.06878,0.49519c0.70691,0.04654 1.44493,-0.61916 2.13837,0.14508c2.08936,2.30262 -0.77218,3.49342 -2.43399,3.57334h-0.4c0,0 -1,0 -1,-1z" fill="url(#color-38)" stroke="none" stroke-width="0.5" stroke-linecap="butt"/><text transform="translate(424.95918,343.1704) scale(0.02245,0.13028)" font-size="40" xml:space="preserve" fill="url(#color-39)" fill-rule="nonzero" stroke="none" stroke-width="1" stroke-linecap="butt" stroke-linejoin="miter" stroke-miterlimit="10" stroke-dasharray="" stroke-dashoffset="0" font-family="Sans Serif" font-weight="normal" text-anchor="start" style="mix-blend-mode: normal"><tspan x="0" dy="0">(Donk Industries Crack Knowledge)</tspan></text><path d="M392.19541,317.94677c0.22361,0.11181 0.1118,0.33541 0.1118,0.33541l-0.19833,0.38171c-0.68469,0.49784 -1.44948,-0.76571 -1.50235,-0.11115c0,0 -0.04903,0.24515 -0.29417,0.19612c-0.24514,-0.04903 -0.19612,-0.29417 -0.19612,-0.29417c0.40148,-1.55327 1.33385,0.11433 1.60877,-0.11116l0.135,-0.28495c0,0 0.11181,-0.2236 0.33542,-0.1118z" fill="url(#color-40)" stroke="none" stroke-width="0.5" stroke-linecap="butt"/><path d="M410.36138,314.47593c0,0 0.25,0 0.25,0.25c0,0.25 -0.25,0.25 -0.25,0.25c-0.42192,0 -0.77701,-0.04625 -1.10973,0.2507c-0.07083,0.06321 0.73289,0.43511 0.73606,0.43891c0.70837,0.84852 -0.17116,1.58072 -1.0087,1.41665l-0.17388,-0.07709c0,0 -0.07405,-0.03702 -0.11562,-0.11107c-0.23795,-0.1223 -0.50829,-0.30701 -0.7731,-0.49247c0.22577,0.40042 0.29873,0.83412 -0.02414,1.08568c-0.29071,0.2265 -0.58426,0.15859 -0.83143,-0.04953c0.01821,1.3999 -0.70142,3.07054 -1.86613,3.09378h-0.22222c0,0 -0.25,0 -0.25,-0.25c0,-0.25 0.25,-0.25 0.25,-0.25h0.22222c0.87655,0.02661 1.40525,-1.58591 1.36827,-2.74854c-0.33126,0.75323 -1.12252,0.7505 -1.64285,0.3519c0.02146,1.09735 -0.61274,2.15669 -1.78749,2.39179l-0.21569,0.00485c0,0 -0.25,0 -0.25,-0.25c0,-0.25 0.25,-0.25 0.25,-0.25l0.11763,0.00486c0.65364,-0.13065 1.09486,-0.60008 1.28655,-1.17615c-0.3249,0.12153 -0.80139,-0.21725 -1.08814,-0.67136c-0.03621,0.35517 -0.29245,0.62315 -0.87894,0.62032c-0.54747,-0.00264 -0.75564,-0.61034 -1.0755,-0.9844c0.00762,0.08648 -0.02402,0.14514 -0.06436,0.18433c-0.01754,0.074 -0.07209,0.18906 -0.24169,0.18906c-0.07893,0 -0.13293,-0.02492 -0.16989,-0.05902c0.01968,0.12755 0.03048,0.26759 0.031,0.42013v0.27778c0,0 0,0.25 -0.25,0.25c-0.25,0 -0.25,-0.25 -0.25,-0.25v-0.27778c0.00414,-1.05073 -0.42601,-1.19099 -0.80508,-0.52013c0.02501,0.18973 0.06448,0.375 0.12559,0.55218l0.06092,0.24064c0,0 0.06063,0.24254 -0.18191,0.30317c-0.24253,0.06063 -0.30316,-0.18191 -0.30316,-0.18191l-0.0502,-0.2038c-0.02314,-0.07135 -0.04346,-0.14344 -0.06131,-0.21616c-0.02238,-0.00306 -0.04641,-0.00937 -0.07215,-0.01966c-0.23212,-0.09285 -0.13927,-0.32497 -0.13927,-0.32497c0.03598,-0.08886 0.07454,-0.17194 0.11525,-0.24923c-0.00399,-0.04328 -0.00745,-0.08666 -0.01045,-0.13014h-0.03935c-0.11097,0 -0.22185,-0.00122 -0.33258,-0.00424c0.01357,0.40389 -0.02853,0.82387 -0.02853,1.19869v0.22222c0,0 0,0.25 -0.25,0.25c-0.25,0 -0.25,-0.25 -0.25,-0.25v-0.22222c0,-0.3413 0.06463,-0.80678 0.04629,-1.22493c-0.18174,-0.01553 -0.36273,-0.03814 -0.54262,-0.07039c-0.03441,0.02279 -0.06351,0.03249 -0.06351,0.03249l-0.09572,0.01838c-0.1624,0.11715 -0.29764,0.18505 -0.44249,0.22375c-0.07873,0.06627 -0.16346,0.05823 -0.22307,0.03811c-0.07944,0.0073 -0.16542,0.00998 -0.26222,0.01037c0,0 -0.10868,0 -0.18272,-0.07165c-0.10002,0.05036 -0.2008,0.10976 -0.29645,0.17181c-0.02812,0.07891 -0.09306,0.12762 -0.09306,0.12762c-0.09367,0.05826 -0.15803,0.12311 -0.19789,0.19081c0.01252,0.0297 0.02011,0.06565 0.02011,0.10919c0,0.07941 -0.02523,0.1336 -0.05965,0.17057c0.05683,0.22465 0.30676,0.42605 0.5809,0.47317l0.11764,-0.00486c0,0 0.25,0 0.25,0.25c0,0.25 -0.25,0.25 -0.25,0.25l-0.2157,-0.00486c-0.52398,-0.1148 -0.88412,-0.47447 -0.95563,-0.88403c-0.02013,0 -0.04036,0 -0.06042,0c-0.03494,0.02828 -0.07765,0.04732 -0.12443,0.05343c0.02263,0.12485 0.05042,0.23597 0.08829,0.32594l0.01789,0.1484c0,0 0,0.25 -0.25,0.25c-0.25,0 -0.25,-0.25 -0.25,-0.25l0.01788,0.03729c-0.0282,-0.07326 -0.09395,-0.43532 -0.18151,-0.84285c-0.32558,-0.00002 -0.64032,-0.00128 -0.96163,-0.03248c-0.07175,0.45431 -0.11584,0.90159 -0.15738,1.10929c0,0 -0.04903,0.24514 -0.29417,0.19611c-0.24514,-0.04903 -0.19612,-0.29417 -0.19612,-0.29417c0.04967,-0.24836 0.10712,-0.75198 0.21659,-1.26309c-0.0006,-0.0175 0.0004,-0.03633 0.00329,-0.05657c0.0057,-0.03985 0.01689,-0.07236 0.03166,-0.09888c0.18959,-0.80269 0.5191,-1.56173 1.16096,-1.3116c0.50482,0.19673 0.60479,0.89784 0.67977,1.52916c0.08799,0 0.17599,0 0.26398,0h0.05479c0.02211,-0.05205 0.04947,-0.10369 0.0823,-0.15451c-0.0281,-0.14251 0.1018,-0.23994 0.1018,-0.23994c0.37541,-0.2775 0.74689,-0.46886 1.2053,-0.5438l0.20198,0.13414c0.0811,-0.02326 0.15933,-0.06639 0.25939,-0.14589l0.23761,-0.09273c0,0 0.00512,-0.0017 0.0141,-0.00386c0.08967,-0.08675 0.2251,-0.05966 0.2251,-0.05966c0.1456,0.02983 0.29265,0.05156 0.44054,0.06728c-0.02438,-0.07009 -0.05491,-0.13509 -0.09284,-0.19352c0,0 -0.12863,-0.21437 0.08575,-0.343c0.21438,-0.12862 0.343,0.08575 0.343,0.08575c0.08474,0.14896 0.14034,0.31231 0.17594,0.48433c0.12919,0.00406 0.25848,0.00541 0.38747,0.00541h0.02209c-0.00216,-0.28887 0.00569,-0.57794 0.00569,-0.86111c0,0 0,-0.25 0.25,-0.25c0.25,0 0.25,0.25 0.25,0.25c0,0.29365 -0.01327,0.60115 -0.01175,0.90829c0.43207,-0.33107 0.9144,-0.23458 1.16764,0.28748l0.04507,0.00353c0.0074,-0.00148 0.0148,-0.00295 0.0222,-0.00444c0.00088,-0.11875 0.00231,-0.2375 0.00416,-0.35624c0.67989,-1.35842 1.78152,-0.7682 2.26699,0.04145c0.04663,-0.36463 0.33054,-0.67492 1.01194,-0.76896c0.01101,-0.01131 0.02368,-0.02246 0.03818,-0.03334c0.13531,-0.10149 0.24774,-0.04276 0.30631,0.00585c0.00344,-0.0001 0.00689,-0.0002 0.01036,-0.00029c0,0 0.18273,0.00001 0.23575,0.15622c0.32412,-0.48748 0.95083,-0.56742 1.43234,-0.35702c0.00204,-0.00369 0.00418,-0.00741 0.00643,-0.01115c0.12862,-0.21438 0.343,-0.08575 0.343,-0.08575c0.02443,0.01638 0.04816,0.03376 0.0712,0.0521c-0.00348,-0.01819 -0.00538,-0.03811 -0.00538,-0.05994c0,-0.0793 0.02515,-0.13345 0.05951,-0.17042c-0.00257,-0.01595 -0.00395,-0.03318 -0.00395,-0.0518c0,-0.25 0.25,-0.25 0.25,-0.25c0.83409,0.05651 1.42362,1.0811 2.3644,1.27896c0.00806,-0.00079 0.01623,-0.00119 0.0245,-0.00119c0.03159,0 0.06182,0.00587 0.08965,0.01656c0.0325,0.01104 0.06847,0.02945 0.0981,0.06013c0.65013,-0.11988 -1.56504,-2.13224 1.03447,-2.13224zM406.942,315.97853c-0.00369,0.0294 -0.01012,0.04868 -0.01012,0.04868c-0.13561,0.39319 0.92824,1.37951 0.67638,1.04853c-0.2486,-0.32669 -0.25907,-1.04103 -0.66625,-1.09721zM404.93203,316.80334c0.09479,0.57956 0.95971,0.89184 1.19475,0.2251c0.29972,-0.85025 -1.00706,-1.16105 -1.19169,-0.40049l0.00962,0.09798c0,0 0,0.03426 -0.01268,0.07741zM404.00073,316.60158c-0.83591,0.42644 -0.06571,2.54905 0.12968,0.10891zM401.30228,316.74683c0.36404,0.3609 0.94936,1.21687 1.24626,0.9985c1.10237,-0.81076 -0.79117,-1.4207 -1.24626,-0.9985zM393.97318,316.72731c-0.15035,0.10694 -0.25843,0.41434 -0.33976,0.7787c0.25198,0.02272 0.50029,0.02541 0.75417,0.02556c-0.12471,-0.49168 -0.27226,-0.90537 -0.41441,-0.80426z" fill="url(#color-41)" stroke="none" stroke-width="0.5" stroke-linecap="butt"/></g></g></svg>