<svg version="1.1" xmlns="http://www.w3.org/2000/svg" xmlns:xlink="http://www.w3.org/1999/xlink" width="35.67311" height="35.67311" viewBox="0,0,35.67311,35.67311"><defs><linearGradient x1="240.00001" y1="162.91345" x2="240.00001" y2="197.08656" gradientUnits="userSpaceOnUse" id="color-1"><stop offset="0" stop-color="#008235"/><stop offset="1" stop-color="#475900"/></linearGradient></defs><g transform="translate(-222.16345,-162.16345)"><g data-paper-data="{&quot;isPaintingLayer&quot;:true}" stroke-miterlimit="10" stroke-dasharray="" stroke-dashoffset="0" style="mix-blend-mode: normal"><path d="M229.98311,162.91345h20.03379c3.9166,0 7.06966,3.15307 7.06966,7.06966v20.03379c0,3.91659 -3.15306,7.06966 -7.06966,7.06966h-20.03379c-3.91659,0 -7.06966,-3.15307 -7.06966,-7.06966v-20.03379c0,-3.91659 3.15307,-7.06966 7.06966,-7.06966z" fill-opacity="0.35" fill="#4d4d4d" fill-rule="evenodd" stroke="none" stroke-width="4.43922" stroke-linecap="round" stroke-linejoin="round"/><path d="M229.98311,162.91345h20.03379c3.9166,0 7.06966,3.15307 7.06966,7.06966v20.03379c0,3.91659 -3.15306,7.06966 -7.06966,7.06966h-20.03379c-3.91659,0 -7.06966,-3.15307 -7.06966,-7.06966v-20.03379c0,-3.91659 3.15307,-7.06966 7.06966,-7.06966z" fill="url(#color-1)" fill-rule="evenodd" stroke="#000000" stroke-width="1.5" stroke-linecap="round" stroke-linejoin="round"/><g fill="#000000" fill-rule="nonzero" stroke="#ffffff" stroke-width="1" stroke-linecap="butt" stroke-linejoin="miter"><path d="M230.33127,174.37916c0,0 2.12811,-0.94771 2.24113,-1.15777c0.29643,-0.55095 3.67513,-10.31433 13.06847,-7.32896c11.52753,3.89699 6.73025,12.67293 6.74204,14.65971c0.01617,2.72416 -0.03211,5.03052 -0.03211,5.03052c0,0 -0.51933,-0.78254 -0.75582,-1.18101c-0.22057,-0.37165 -0.68338,-1.1583 -0.68338,-1.1583c0,0 -0.16531,2.93893 -1.57931,5.4267c-1.278,2.28595 -3.46513,3.74048 -3.46513,3.74048l-0.0789,-0.70869c0,0 -0.46559,0.46882 -0.8622,0.65446c-0.39661,0.18564 -1.15114,0.42844 -1.15114,0.42844l0.31924,-0.95813c0,0 -2.82967,2.17114 -7.24873,0.53331c-4.15663,-1.57468 -5.69568,-5.14968 -5.69568,-5.14968l-0.2755,0.66984c0,0 -0.69371,-1.2046 -0.68622,-3.06074c0.00893,-2.21229 0.30268,-3.4385 0.30268,-3.4385c0,0 -0.77542,0.27038 -1.7224,0.18212c-1.18662,-0.1106 -1.8128,-0.55442 -1.8128,-0.55442c0,0 1.17641,-0.36265 1.87297,-0.706c0.62044,-0.30583 0.99105,-0.62083 0.99105,-0.62083c0,0 -0.64069,0.08301 -1.23486,0.02303c-0.61995,-0.06258 -1.08229,-0.23689 -1.08229,-0.23689c0,0 1.74159,-0.83092 2.80884,-2.13702c1.00766,-1.23318 1.55241,-2.61468 1.55241,-2.61468c0,0 -0.41031,0.04359 -0.92731,-0.10437c-0.32771,-0.09379 -0.60506,-0.23261 -0.60506,-0.23261z"/><path d="M233.58666,178.83515c0.52707,-1.92311 1.67357,-4.36672 1.67357,-4.36672c0,0 0.87816,0.30509 3.85808,0.48174c2.28936,0.13571 6.14558,-0.53044 6.14558,-0.53044c0,0 -0.83188,0.57045 -1.28643,0.828c-0.48324,0.2738 -1.44594,0.80021 -1.44594,0.80021c0,0 2.16369,0.29792 4.19974,0.14578c2.52383,-0.1134 3.27573,-0.57141 3.74504,0.02121c0.5539,0.69943 -1.88155,6.03846 -2.47584,7.43445c-0.63279,1.41434 -1.52865,2.20088 -1.96642,2.9182c-0.43777,0.71732 -0.67297,1.53528 -2.0501,3.90775c-0.85943,1.48059 -1.89293,1.90274 -3.92548,2.83113c-2.03255,0.92839 -3.1774,1.53409 -4.19892,1.18528c-0.98308,-0.33568 -1.81871,-2.13451 -2.61157,-3.9514c-0.84426,-1.9347 -1.49059,-2.99459 -1.08945,-4.78042c0.36127,-1.60833 0.71799,-2.61202 1.12347,-4.01298c0.29635,-1.02392 0.01683,-1.86153 0.30467,-2.91177z"/><path d="M237.52302,184.50418c0.25636,0.09255 0.16381,0.34891 0.16381,0.34891c-0.0617,0.17091 -0.20053,0.55545 -0.26223,0.72635c-0.49121,1.3146 -1.62387,1.10584 -2.71895,0.70874c-0.28614,-0.10376 -0.70374,-0.25627 -0.89042,-0.51329c-0.38394,-0.5286 -0.1235,-1.48855 0.07726,-2.05017c0,0 0.09255,-0.25636 0.34891,-0.16381c0.25636,0.09255 0.16381,0.34891 0.16381,0.34891c-0.12771,0.34966 -0.40997,1.20272 -0.15509,1.53642c0.59334,0.7768 2.31354,0.96116 2.66176,-0.05189c0.0617,-0.17091 0.12341,-0.34182 0.1851,-0.51272l0.07713,-0.21364c0,0 0.09255,-0.25636 0.34891,-0.16381z"/><path d="M243.71607,187.41617c0.25636,0.09255 0.16381,0.34891 0.16381,0.34891c-0.09769,0.2706 -0.22624,0.62666 -0.32393,0.89726c-0.08775,0.23484 -0.14966,0.50841 -0.41109,0.63603c-0.62911,0.30713 -2.1418,-0.44216 -2.72345,-0.70591c-0.16935,-0.07679 -0.615,-0.31654 -0.68812,-0.47746c-0.21263,-0.46797 0.30049,-1.3526 0.54492,-1.7205c0,0 0.15196,-0.22626 0.37822,-0.07429c0.22626,0.15197 0.07429,0.37822 0.07429,0.37822c-0.11522,0.16934 -0.614,0.97396 -0.50401,1.18491c0.06643,0.12739 0.52387,0.24932 0.65409,0.29616c0.54218,0.195 1.92059,1.00124 2.16241,0.29773c0.09769,-0.2706 0.19539,-0.54121 0.29308,-0.81181l0.03085,-0.08545c0,0 0.09255,-0.25636 0.34891,-0.16381z"/><path d="M235.25031,185.18084c-0.25636,-0.09255 -0.16381,-0.34891 -0.16381,-0.34891l0.11242,-0.2805c0.27665,-0.37646 0.40512,-0.82889 0.63251,-1.23685c0,0 0.13344,-0.23766 0.37109,-0.10422c0.23765,0.13344 0.10422,0.37109 0.10422,0.37109c-0.24203,0.42739 -0.37951,0.88592 -0.66568,1.28881l-0.04183,0.14676c0,0 -0.09255,0.25636 -0.34891,0.16381z"/><path d="M241.65426,188.0575c-0.21394,-0.16887 -0.04507,-0.38281 -0.04507,-0.38281l0.16545,-0.20826c0.29096,-0.51772 0.27934,-1.05241 0.47084,-1.5954c0,0 0.09255,-0.25636 0.34891,-0.16381c0.25636,0.09255 0.16381,0.34891 0.16381,0.34891c-0.21564,0.58017 -0.21397,1.14925 -0.53059,1.71353l-0.19056,0.24276c0,0 -0.16887,0.21393 -0.38281,0.04506z"/><path d="M238.16857,183.38496c-0.05511,0.15264 -0.16828,0.18158 -0.25085,0.18002c-0.03249,0.00066 -0.06567,-0.00452 -0.09806,-0.01621l-0.17091,-0.0617c-1.03635,-0.3785 -2.12978,-0.6277 -3.16533,-0.99787c0,0 -0.25636,-0.09255 -0.16381,-0.34891c0.09255,-0.25636 0.34891,-0.16381 0.34891,-0.16381c1.03136,0.37669 2.12758,0.62691 3.16533,0.99787l0.17091,0.0617c0,0 0.04197,0.01515 0.0858,0.05017c0.06452,0.05153 0.13311,0.14611 0.078,0.29874z"/><path d="M244.79953,186.02038c-0.09255,0.25636 -0.34891,0.16381 -0.34891,0.16381c-1.06817,-0.38564 -2.22179,-0.80212 -3.28996,-1.18776c0,0 -0.25636,-0.09255 -0.16381,-0.34891c0.09255,-0.25636 0.34891,-0.16381 0.34891,-0.16381c1.06817,0.38564 2.13634,0.77127 3.2045,1.15691l0.08545,0.03085c0,0 0.25636,0.09255 0.16381,0.34891z"/><path d="M234.04196,182.90935c0.05111,-0.14158 0.20733,-0.21492 0.34891,-0.16381c0.14158,0.05111 0.21492,0.20733 0.16381,0.34891c-0.05111,0.14158 -0.20733,0.21492 -0.34891,0.16381c-0.14158,-0.05111 -0.21492,-0.20733 -0.16381,-0.34891z"/><path d="M237.42447,183.84075c0.05111,-0.14158 0.20733,-0.21492 0.34891,-0.16381c0.14158,0.05111 0.21492,0.20733 0.16381,0.34891c-0.05111,0.14158 -0.20733,0.21492 -0.34891,0.16381c-0.14158,-0.05111 -0.21492,-0.20733 -0.16381,-0.34891z"/><path d="M240.61477,185.57208c0.05111,-0.14158 0.20733,-0.21492 0.34891,-0.16381c0.14158,0.05111 0.21492,0.20733 0.16381,0.34891c-0.05111,0.14158 -0.20733,0.21492 -0.34891,0.16381c-0.14158,-0.05111 -0.21492,-0.20733 -0.16381,-0.34891z"/><path d="M243.72194,186.59726c0.05111,-0.14158 0.20733,-0.21492 0.34891,-0.16381c0.14158,0.05111 0.21492,0.20733 0.16381,0.34891c-0.05111,0.14158 -0.20733,0.21492 -0.34891,0.16381c-0.14158,-0.05111 -0.21492,-0.20733 -0.16381,-0.34891z"/></g></g></g></svg>