<svg version="1.1" xmlns="http://www.w3.org/2000/svg" xmlns:xlink="http://www.w3.org/1999/xlink" width="35.67311" height="35.67311" viewBox="0,0,35.67311,35.67311"><defs><linearGradient x1="240.00001" y1="162.91345" x2="240.00001" y2="197.08656" gradientUnits="userSpaceOnUse" id="color-1"><stop offset="0" stop-color="#0362fc"/><stop offset="1" stop-color="#01378d"/></linearGradient></defs><g transform="translate(-222.16345,-162.16345)"><g data-paper-data="{&quot;isPaintingLayer&quot;:true}" stroke-miterlimit="10" stroke-dasharray="" stroke-dashoffset="0" style="mix-blend-mode: normal"><path d="M229.98311,162.91345h20.03379c3.9166,0 7.06966,3.15307 7.06966,7.06966v20.03379c0,3.91659 -3.15306,7.06966 -7.06966,7.06966h-20.03379c-3.91659,0 -7.06966,-3.15307 -7.06966,-7.06966v-20.03379c0,-3.91659 3.15307,-7.06966 7.06966,-7.06966z" fill-opacity="0.35" fill="#4d4d4d" fill-rule="evenodd" stroke="none" stroke-width="4.43922" stroke-linecap="round" stroke-linejoin="round"/><path d="M229.98311,162.91345h20.03379c3.9166,0 7.06966,3.15307 7.06966,7.06966v20.03379c0,3.91659 -3.15306,7.06966 -7.06966,7.06966h-20.03379c-3.91659,0 -7.06966,-3.15307 -7.06966,-7.06966v-20.03379c0,-3.91659 3.15307,-7.06966 7.06966,-7.06966z" fill="url(#color-1)" fill-rule="evenodd" stroke="#000000" stroke-width="1.5" stroke-linecap="round" stroke-linejoin="round"/><g fill="#000000" fill-rule="nonzero" stroke="#ffffff" stroke-width="1" stroke-linejoin="miter"><path d="M250.25107,167.96737c0.32198,0.05712 0.26486,0.37911 0.26486,0.37911l-0.02856,0.16099c-0.36688,1.01929 -0.85912,0.12928 -1.49579,0.72164c-0.28684,0.26687 -0.50433,0.94881 -0.9421,1.23946c-0.77724,0.51602 -1.19125,0.06848 -1.80985,0.84133c-0.80037,0.23715 -1.0788,1.15752 -2.03588,1.22173c-0.91647,0.0615 -3.05562,-0.29541 -3.74108,-0.8799c-0.63744,-0.54355 -0.73239,-1.06727 -1.60822,-1.22265c-1.70332,-0.30219 -2.9697,-1.44291 -4.0491,-2.60769c-0.50466,-0.54458 -0.36901,-1.24638 -0.86141,-1.64045c0,0 -0.23622,-0.22613 -0.01009,-0.46236c0.22613,-0.23622 0.46236,-0.01009 0.46236,-0.01009c0.55724,0.59192 0.33914,1.08743 0.87837,1.65727c1.06834,1.12901 2.05166,2.12794 3.69412,2.41933c0.99049,0.17572 1.18862,0.72387 1.86741,1.32969c0.55976,0.49959 2.56927,0.81966 3.33088,0.76384c0.74918,-0.05491 1.01661,-0.90296 1.69807,-1.10489c0.54875,-0.8462 1.16981,-0.35492 1.80985,-0.84133c0.38702,-0.29411 0.52075,-0.84359 0.80282,-1.10792c0.34834,-0.32643 1.6391,-0.03995 1.36569,-0.43129l0.02856,-0.16099c0,0 0.05712,-0.32198 0.37911,-0.26486z" stroke-linecap="butt"/><path d="M250.15859,168.44855l-0.95254,5.90402l0.19367,4.257l-4.42906,7.8493l-8.30918,7.25582l-4.20071,-11.08835l1.55784,-16.80397l3.83638,4.04924l2.27763,1.06831l4.00922,1.47041l2.21528,-1.78947l1.72713,-0.6425l0.56383,-1.03866z" stroke-linecap="round"/></g></g></g></svg>