<svg version="1.1" xmlns="http://www.w3.org/2000/svg" xmlns:xlink="http://www.w3.org/1999/xlink" width="149.3086" height="44.84087" viewBox="0,0,149.3086,44.84087"><g transform="translate(-165.3457,-157.57957)"><g data-paper-data="{&quot;isPaintingLayer&quot;:true}" fill="#ffffff" fill-rule="nonzero" stroke-linecap="butt" stroke-linejoin="miter" stroke-miterlimit="10" stroke-dasharray="" stroke-dashoffset="0" style="mix-blend-mode: normal"><path d="" stroke="#000000" stroke-width="5"/><path d="" stroke="#000000" stroke-width="5"/><path d="" stroke="#000000" stroke-width="5"/><path d="" stroke="#000000" stroke-width="5"/><path d="M175.88846,188.65776l-5.60162,11.40127c-0.41493,0.86759 -1.13164,1.25423 -2.15011,1.15994l-1.32968,-0.11316c-0.67898,-0.01887 -1.12222,-0.27348 -1.32968,-0.76387c-0.20747,-0.49039 -0.16975,-0.97132 0.11316,-1.44284l19.29446,-37.20266c0.811,-1.54657 1.87663,-2.31986 3.19687,-2.31986l2.31986,-0.05659c0.69785,0 1.2448,0.23576 1.64088,0.70727c0.39608,0.47151 0.56582,1.16937 0.50923,2.09353l-2.03696,37.82506c-0.03772,0.84873 -0.61299,1.2731 -1.72574,1.2731l-1.98037,-0.05659c-0.94303,0 -1.38625,-0.51866 -1.32968,-1.556l0.73556,-10.9486zM177.95367,184.47069h8.54389l1.32968,-20.1432z" stroke="none" stroke-width="1"/><path d="M234.84217,179.92279l3.22517,-0.16975c3.07428,-0.11316 5.20554,-1.27309 6.39377,-3.47979c0.75441,-1.3957 1.32024,-2.98941 1.69745,-4.78119c0.39608,-1.81063 0.59412,-3.31947 0.59412,-4.52656c0,-2.28214 -1.31081,-3.47979 -3.93245,-3.59295c-0.84873,-0.03772 -2.09355,-0.06601 -3.73443,-0.08488zM234.3895,163.25939c-0.64126,0 -1.25423,0 -1.83892,0c-0.56582,0 -0.96187,-0.16032 -1.18821,-0.48094c-0.22634,-0.33949 -0.28292,-0.72615 -0.16977,-1.15994l0.33949,-1.15993c0.07546,-0.33949 0.25462,-0.61297 0.53752,-0.82043c0.28292,-0.22634 0.54697,-0.33949 0.79216,-0.33949h9.08141c3.11202,0 5.4696,0.65068 7.07274,1.95207c1.62203,1.30139 2.43303,3.43263 2.43303,6.39377c0,2.18784 -0.47152,4.60199 -1.41455,7.24249c-0.92418,2.6405 -2.03695,4.46055 -3.33834,5.46017c-0.64126,0.49039 -1.09391,0.82987 -1.35796,1.01847c-0.24518,0.16975 -0.84872,0.48094 -1.81062,0.93361c-0.9619,0.45265 -1.91436,0.77329 -2.85739,0.9619c-1.98037,0.39608 -4.26253,0.61297 -6.84644,0.65069l-4.10219,16.06928c-0.22634,0.84873 -0.80159,1.2731 -1.72575,1.2731h-1.66917c-0.47152,0 -0.81101,-0.16974 -1.01849,-0.50923c-0.20747,-0.35836 -0.25459,-0.78271 -0.14138,-1.2731z" stroke="none" stroke-width="1"/><path d="M208.58594,158.90926c0,0 -3.51752,13.78714 -10.55255,41.36143c-0.22634,0.84873 -0.80158,1.27309 -1.72576,1.27309h-0.99017c-0.69785,0 -1.17879,-0.16974 -1.44284,-0.50923c-0.2829,-0.35836 -0.35836,-0.811 -0.22633,-1.35796l10.58084,-40.82393c0.22634,-0.84873 0.81101,-1.27309 1.75404,-1.27309h1.32968c1.05621,0 1.48056,0.44322 1.2731,1.32968z" stroke="none" stroke-width="1"/><path d="M257.33459,195.88023c2.65935,-4.18707 4.05505,-8.80793 4.18707,-13.8626c0.05659,-2.26327 -0.06601,-3.78155 -0.36778,-4.55484c-0.2829,-0.77329 -0.85817,-1.16936 -1.72575,-1.18823c-0.86759,-0.03772 -1.65973,0.36778 -2.37644,1.2165c-0.69785,0.82988 -1.37682,1.93322 -2.03695,3.31005c-1.75403,3.62125 -2.69707,7.68572 -2.82909,12.19343c-0.07544,3.48922 0.5281,5.28098 1.81062,5.37529c1.13164,0.03772 2.24442,-0.79214 3.33835,-2.48961zM247.48932,193.56033c0.18861,-5.20554 1.26367,-9.68495 3.22517,-13.43823c0.84873,-1.65973 1.54657,-2.85739 2.09355,-3.59296c0.54696,-0.75444 1.20709,-1.49943 1.98037,-2.23499c1.60316,-1.52773 3.53636,-2.27271 5.79965,-2.23499c1.94265,0.09431 3.4515,1.06563 4.52656,2.91397c0.79215,1.26367 1.13164,3.37607 1.01847,6.33719c-0.09431,2.94227 -0.59412,5.82795 -1.49943,8.65704c-0.88644,2.81024 -1.88606,5.1584 -2.99884,7.04448c-2.22555,3.71555 -5.06409,5.51673 -8.51559,5.40358c-1.26367,-0.05665 -2.40474,-0.59418 -3.4232,-1.61258c-0.67898,-0.64126 -1.23538,-1.58431 -1.66918,-2.82911c-0.41493,-1.26365 -0.59412,-2.73479 -0.53753,-4.41339z" stroke="none" stroke-width="1"/><path d="M307.27317,171.45757c0,0 0.29235,0 0.87702,0c1.30139,0 2.50847,0.49981 3.62125,1.49943c1.13164,0.99962 2.04638,2.24442 2.74423,3.7344c0.13202,0.24519 0.16975,0.56582 0.11318,0.9619c-0.03772,0.39606 -0.20747,0.68841 -0.50923,0.87702l-1.72574,0.99018c-0.32064,0.24519 -0.6507,0.34893 -0.99019,0.31121c-0.33949,-0.03772 -0.56583,-0.16974 -0.67898,-0.39608c-0.11318,-0.22634 -0.30179,-0.65068 -0.56582,-1.27309c-0.26405,-0.62241 -0.49039,-1.07505 -0.67898,-1.35797c-0.16974,-0.30177 -0.47152,-0.62239 -0.90531,-0.96188c-0.41494,-0.35836 -0.88646,-0.56582 -1.41455,-0.62241c-0.94305,0.18861 -1.84836,0.82988 -2.71594,1.92378c-0.84873,1.09392 -1.2731,2.62163 -1.2731,4.58315c0,0.84873 0.19804,1.44284 0.5941,1.78233c0.39608,0.33949 1.12222,0.61296 2.17841,0.82045l1.64088,0.33949c2.3576,0.50924 3.53638,2.46133 3.53638,5.85625c0,1.99922 -0.76386,4.31907 -2.29158,6.95957c-0.73557,1.2448 -1.72574,2.29158 -2.97054,3.14031c-1.22595,0.84873 -2.56506,1.2731 -4.01733,1.2731h-0.39607c-1.47114,0 -2.79137,-0.50924 -3.96074,-1.52773c-1.15049,-1.03734 -1.95207,-2.0841 -2.40474,-3.14029c-0.47152,-1.07507 -0.48098,-1.87665 -0.02839,-2.40474l1.2731,-1.04676c0.41494,-0.39608 0.84874,-0.56582 1.30139,-0.50925c0.45265,0.03772 0.75441,0.37723 0.90531,1.01849c0.16974,0.64126 0.64127,1.4051 1.41455,2.29156c0.79215,0.88646 1.5183,1.35798 2.1784,1.41455c1.16937,-0.18859 2.17843,-0.86758 3.02715,-2.03694c0.84873,-1.18823 1.2731,-2.53676 1.2731,-4.04562c0,-1.5277 -0.1509,-2.50847 -0.45267,-2.94227c-0.30177,-0.4338 -0.94303,-0.76384 -1.92378,-0.99017l-1.2731,-0.28293c-1.52772,-0.35836 -2.60278,-0.98075 -3.22517,-1.86721c-0.60354,-0.88644 -0.90532,-2.10295 -0.90532,-3.64952c0,-1.56544 0.40551,-3.18744 1.21651,-4.86604c0.81101,-1.67862 1.89549,-3.0743 3.25347,-4.18708c1.35798,-1.11277 2.74423,-1.66917 4.15877,-1.66917z" stroke="none" stroke-width="1"/><path d="M217.87761,158.90926c0,0 -3.51751,13.78714 -10.55255,41.36143c-0.22634,0.84873 -0.80158,1.27309 -1.72576,1.27309h-0.99017c-0.69785,0 -1.17879,-0.16974 -1.44284,-0.50923c-0.2829,-0.35836 -0.35835,-0.811 -0.22633,-1.35796l10.58084,-40.82393c0.22634,-0.84873 0.81101,-1.27309 1.75404,-1.27309h1.32968c1.05621,0 1.48056,0.44322 1.2731,1.32968z" stroke="none" stroke-width="1"/><path d="M280.06037,159.62398c0,0 -3.51751,13.78714 -10.55254,41.36143c-0.22634,0.84873 -0.80159,1.2731 -1.72577,1.2731h-0.99018c-0.69785,0 -1.17879,-0.16974 -1.44284,-0.50923c-0.2829,-0.35836 -0.35835,-0.81101 -0.22633,-1.35796l10.58084,-40.82392c0.22634,-0.84873 0.81101,-1.27309 1.75404,-1.27309h1.32968c1.0562,0 1.48056,0.44322 1.27309,1.32968z" stroke="none" stroke-width="1"/><path d="M285.20964,195.88023c2.65935,-4.18707 4.05505,-8.80793 4.18707,-13.8626c0.05659,-2.26327 -0.06601,-3.78155 -0.36778,-4.55484c-0.2829,-0.77329 -0.85817,-1.16936 -1.72574,-1.18823c-0.86759,-0.03772 -1.65973,0.36778 -2.37645,1.2165c-0.69785,0.82988 -1.37683,1.93322 -2.03696,3.31005c-1.75403,3.62125 -2.69707,7.68572 -2.82909,12.19343c-0.07544,3.48922 0.52811,5.28098 1.81063,5.37529c1.13164,0.03772 2.24442,-0.79214 3.33835,-2.48961zM275.36436,193.56033c0.18862,-5.20554 1.26367,-9.68495 3.22517,-13.43823c0.84873,-1.65973 1.54657,-2.85739 2.09355,-3.59296c0.54696,-0.75444 1.20709,-1.49943 1.98037,-2.23499c1.60316,-1.52773 3.53637,-2.27271 5.79966,-2.23499c1.94265,0.09431 3.4515,1.06563 4.52656,2.91397c0.79215,1.26367 1.13164,3.37607 1.01847,6.33719c-0.09431,2.94227 -0.59412,5.82795 -1.49943,8.65704c-0.88644,2.81024 -1.88606,5.1584 -2.99884,7.04448c-2.22555,3.71555 -5.06409,5.51673 -8.51559,5.40358c-1.26367,-0.05665 -2.40474,-0.59418 -3.42321,-1.61258c-0.67898,-0.64126 -1.23538,-1.58431 -1.66917,-2.82911c-0.41492,-1.26365 -0.59412,-2.73479 -0.53753,-4.41339z" stroke="none" stroke-width="1"/></g></g></svg>