<svg version="1.1" xmlns="http://www.w3.org/2000/svg" xmlns:xlink="http://www.w3.org/1999/xlink" width="34.17311" height="34.17311" viewBox="0,0,34.17311,34.17311"><defs><linearGradient x1="237.02476" y1="190.1241" x2="244.07724" y2="190.1241" gradientUnits="userSpaceOnUse" id="color-1"><stop offset="0" stop-color="#00ff46"/><stop offset="1" stop-color="#ff0000"/></linearGradient><linearGradient x1="226.87512" y1="188.38527" x2="234.05592" y2="188.38527" gradientUnits="userSpaceOnUse" id="color-2"><stop offset="0" stop-color="#00ff46"/><stop offset="1" stop-color="#ff0000"/></linearGradient><linearGradient x1="228.00565" y1="179.51015" x2="249.37834" y2="179.51015" gradientUnits="userSpaceOnUse" id="color-3"><stop offset="0" stop-color="#00ff46"/><stop offset="1" stop-color="#ff0000"/></linearGradient><linearGradient x1="228.06419" y1="178.88689" x2="251.25907" y2="178.88689" gradientUnits="userSpaceOnUse" id="color-4"><stop offset="0" stop-color="#00ff46"/><stop offset="1" stop-color="#ff0000"/></linearGradient><linearGradient x1="230.35647" y1="189.88658" x2="231.35647" y2="189.88658" gradientUnits="userSpaceOnUse" id="color-5"><stop offset="0" stop-color="#00ff46"/><stop offset="1" stop-color="#ff0000"/></linearGradient><linearGradient x1="227.12367" y1="188.21631" x2="228.3807" y2="188.21631" gradientUnits="userSpaceOnUse" id="color-6"><stop offset="0" stop-color="#00ff46"/><stop offset="1" stop-color="#ff0000"/></linearGradient><linearGradient x1="228.87143" y1="189.1665" x2="230.0137" y2="189.1665" gradientUnits="userSpaceOnUse" id="color-7"><stop offset="0" stop-color="#00ff46"/><stop offset="1" stop-color="#ff0000"/></linearGradient><linearGradient x1="238.87615" y1="191.37375" x2="240.04863" y2="191.37375" gradientUnits="userSpaceOnUse" id="color-8"><stop offset="0" stop-color="#00ff46"/><stop offset="1" stop-color="#ff0000"/></linearGradient><linearGradient x1="241.58728" y1="193.09109" x2="242.58728" y2="193.09109" gradientUnits="userSpaceOnUse" id="color-9"><stop offset="0" stop-color="#00ff46"/><stop offset="1" stop-color="#ff0000"/></linearGradient></defs><g transform="translate(-222.91348,-162.9135)"><g data-paper-data="{&quot;isPaintingLayer&quot;:true}" stroke-miterlimit="10" stroke-dasharray="" stroke-dashoffset="0" style="mix-blend-mode: normal"><path d="M229.98315,162.9135h20.03378c3.9166,0 7.06966,3.15307 7.06966,7.06966v20.03379c0,3.91659 -3.15306,7.06966 -7.06966,7.06966h-20.03378c-3.91659,0 -7.06967,-3.15307 -7.06967,-7.06966v-20.03379c0,-3.91659 3.15308,-7.06966 7.06967,-7.06966z" fill="#ffffff" fill-rule="evenodd" stroke="none" stroke-width="4.43922" stroke-linecap="round" stroke-linejoin="round"/><g data-paper-data="{&quot;index&quot;:null}" fill-rule="nonzero" stroke="#000000" stroke-width="1" stroke-linecap="butt" stroke-linejoin="miter"><path d="M240.36206,186.71814c0.13651,0.06462 0.1948,0.22766 0.13019,0.36417c-0.0039,0.00825 -0.00817,0.01622 -0.01277,0.02389l-0.1175,0.20099c0.02972,-0.00462 0.0604,-0.00782 0.09223,-0.00958l0.00173,-0.10484l0.27883,0.00459c0.03971,-0.00023 0.08008,0.00823 0.11837,0.02635c0.13651,0.06462 0.1948,0.22766 0.13019,0.36417c-0.01393,0.02943 -0.03243,0.05522 -0.05426,0.07693l-0.14536,0.15152c-0.0151,0.02921 -0.0348,0.0546 -0.05779,0.07571l-0.23794,0.22892c0.09588,0.06491 0.14026,0.18392 0.11107,0.29534l-0.00787,0.0327c0.07724,0.04397 0.14239,0.09537 0.15874,0.17665c0.03741,0.18593 -0.09242,0.41999 -0.28438,0.58869c0.07319,0.04211 0.13616,0.1084 0.18577,0.199c0.04685,-0.01426 0.10437,-0.01498 0.17399,0.00981c0.25762,0.09175 0.16587,0.34937 0.16587,0.34937l-0.03611,0.08955c0.07312,-0.03766 0.16232,-0.04205 0.24241,-0.00414c0.13651,0.06462 0.1948,0.22766 0.13019,0.36417c-0.00374,0.00792 -0.00782,0.01557 -0.01221,0.02295l-0.06943,0.11975c0.09231,-0.098 0.19427,-0.18085 0.30803,-0.24151c0.03988,-0.03302 0.08833,-0.05396 0.13926,-0.06065c0.07441,-0.02545 0.15343,-0.04183 0.23752,-0.04758c0.0563,-0.00385 0.10675,-0.00434 0.15256,-0.00155l0.09223,-0.01779c0,0 0.03162,0.01497 0.06689,0.0455c0.16822,0.05301 0.26752,0.17637 0.42278,0.3607c0.06669,0.07918 0.08192,0.31241 0.17081,0.25936c0.24686,-0.14735 0.1399,-0.72463 0.76707,-0.14669c0.05492,0.05061 0.08735,0.11481 0.10155,0.18638l0.06331,-0.00733c0.05042,-0.00668 0.10328,0.00061 0.15267,0.02399c0.13651,0.06462 0.1948,0.22766 0.13019,0.36417c-0.00322,0.00681 -0.00668,0.01341 -0.01038,0.01982l-0.12973,0.23c0.04127,0.01077 0.07991,0.03012 0.11528,0.05935c0.01754,0.01451 0.03148,0.03094 0.04234,0.04897l-0.12932,0.15211c-0.06969,0.17526 -0.12965,0.34625 -0.17864,0.5181l-0.0342,0.02997c-0.02585,0.0527 -0.04797,0.10727 -0.06676,0.16319c-0.16266,0.21889 -0.26606,0.47962 -0.38312,0.76919c-0.01805,0.01461 -0.0362,0.02903 -0.05443,0.04326l0.0268,0.0249c-0.00746,0.01834 -0.015,0.03678 -0.02263,0.05534l-0.27665,0.29772c-0.07861,0.08864 -0.20909,0.11884 -0.32158,0.0656c-0.13651,-0.06462 -0.1948,-0.22766 -0.13019,-0.36417c0.00175,-0.00369 0.00357,-0.00733 0.00546,-0.01091l0.08703,-0.16692c-0.01873,0.00334 -0.03788,0.00475 -0.05712,0.0041c-0.15362,0.12445 -0.32369,0.24373 -0.52541,0.36027l-0.05063,-0.58047c0.06397,-0.19165 0.1266,-0.37858 0.19777,-0.5609c-0.13656,0.15498 -0.25159,0.27985 -0.29334,0.32578c0,0 -0.05208,0.05723 -0.13127,0.08311c-0.02242,0.0368 -0.04435,0.07371 -0.06566,0.11075l-0.03638,0.12906c0,0 -0.08534,0.25982 -0.34516,0.17448c-0.25981,-0.08534 -0.17448,-0.34516 -0.17448,-0.34516l0.08194,-0.23115c0.3167,-0.55033 0.84931,-1.10311 0.96003,-1.73403c0,0 0.01179,-0.06256 0.05417,-0.12162c-0.02661,-0.02351 -0.05381,-0.04279 -0.08189,-0.0563c-0.38414,0.47076 -0.74084,0.98945 -1.13282,1.45526c-0.01157,0.01788 -0.02313,0.03584 -0.03467,0.05388l0.03958,0.03302l-0.07441,0.08919l-0.18409,0.33882c-0.06827,0.12789 -0.2257,0.1809 -0.35815,0.11821c-0.13063,-0.06183 -0.18963,-0.21379 -0.13786,-0.34638l0.02993,-0.07901c-0.00109,-0.04149 0.00729,-0.08386 0.02626,-0.12394c0.00347,-0.00732 0.00721,-0.01442 0.01122,-0.02127l0.14666,-0.2567c0.10107,-0.21419 0.20579,-0.48399 0.33242,-0.7499c-0.02255,0.03112 -0.04596,0.06232 -0.07024,0.09372c-0.14375,0.23712 -0.28345,0.47668 -0.41861,0.72025c0,0 -0.13271,0.23911 -0.37183,0.10641c-0.13788,-0.07652 -0.15213,-0.18843 -0.13948,-0.26946c-0.03267,-0.0625 -0.04093,-0.13694 -0.0191,-0.20745l0.00287,-0.00986c-0.15932,0.14457 -0.3457,0.27712 -0.57761,0.39587l0.07312,-0.65304c0.29065,-0.44923 0.55367,-0.86529 0.91288,-1.20008c0.02131,-0.02691 0.04222,-0.05315 0.06258,-0.07863c0.00021,-0.00595 0.0004,-0.01189 0.00058,-0.01782l-0.037,-0.03217l0.03852,-0.04429c0.00059,-0.07572 -0.00191,-0.14891 -0.00999,-0.21688c-0.00149,-0.01251 -0.45349,0.51903 -0.47534,0.55474c-0.21672,0.35413 -0.48572,0.67111 -0.70489,1.02467l-0.13593,0.2872c-0.06462,0.13651 -0.22766,0.1948 -0.36417,0.13019c-0.12404,-0.05871 -0.18349,-0.19867 -0.14487,-0.32617l0.1159,-0.40847l0.07059,0.02003c0.0128,-0.021 0.02572,-0.04234 0.03876,-0.064c0.05921,-0.34584 0.1607,-0.71645 0.30579,-1.02345c-0.12532,0.13987 -0.25619,0.27557 -0.36403,0.42904c-0.16099,0.2291 -0.29951,0.47305 -0.42848,0.72094l-0.00018,0.00014l0.00009,0.00005l-0.13578,0.25944c-0.06729,0.13031 -0.2263,0.18479 -0.3599,0.12155c-0.13651,-0.06462 -0.1948,-0.22766 -0.13019,-0.36417l0.20621,-0.43568l0.01877,0.00888c0.0264,-0.04814 0.05336,-0.0962 0.08088,-0.14408c0.00581,-0.02016 0.0117,-0.04025 0.01767,-0.06029c-0.06855,0.07891 -0.1282,0.14584 -0.17016,0.19435l-0.14986,0.21227c-0.07442,0.10959 -0.2196,0.1517 -0.34308,0.09325c-0.13651,-0.06462 -0.1948,-0.22766 -0.13019,-0.36417c0.00463,-0.00978 0.00976,-0.01915 0.01535,-0.02811l0.17586,-0.2898l0.02301,0.01396c0.05945,-0.07008 0.11554,-0.14034 0.16938,-0.21041c0.16909,-0.30621 0.39093,-0.57402 0.6358,-0.9443c0.46782,-0.70741 0.8268,-1.49965 1.39241,-2.13612l0.25276,-0.21296c0,0 0.19547,-0.16395 0.36716,0.01364c0.07839,-0.05766 0.18512,-0.07153 0.27925,-0.02698z" fill="url(#color-1)"/><path d="M231.15202,190.31804l0.02495,-0.15323c0.17672,-0.4175 0.29767,-0.84376 0.45718,-1.26749c0,0 0.01029,-0.02725 0.03303,-0.0606c0.00225,-0.02067 0.00442,-0.04142 0.00649,-0.06224c0.00222,-0.02233 0.00594,-0.14628 0.01411,-0.28984c-0.01645,0.02748 -0.03113,0.04375 -0.03113,0.04375l-0.0158,0.01705c0.00606,0.04959 -0.00138,0.10144 -0.02433,0.14993c-0.00334,0.00706 -0.00694,0.0139 -0.01079,0.02052l-0.15194,0.26772c-0.04785,0.10061 -0.09838,0.20057 -0.15093,0.2999c-0.11548,0.25649 -0.23636,0.49962 -0.38789,0.73221l0.06439,0.02811l-0.13925,0.31892c-0.00127,0.00294 -0.00259,0.00586 -0.00397,0.00878c-0.06462,0.13651 -0.22766,0.19481 -0.36417,0.13019c-0.06731,-0.03186 -0.11561,-0.08765 -0.13953,-0.15239c-0.01988,-0.01371 -0.03664,-0.02812 -0.05068,-0.04296c-0.02359,0.00926 -0.05066,0.01615 -0.08172,0.01993c-0.27147,0.03304 -0.3045,-0.23844 -0.3045,-0.23844c-0.07812,-0.73997 0.35402,-1.30159 0.6909,-1.91999l-0.03653,-0.01729c-0.19874,0.13191 -0.33977,0.33327 -0.47092,0.53877c-0.11558,0.28942 -0.2866,0.55792 -0.51696,0.87731l-0.11878,0.25095c-0.01653,0.03493 -0.03951,0.06474 -0.06684,0.08868c-0.00568,0.01277 -0.01132,0.02555 -0.0169,0.03836c0,0 -0.10966,0.25052 -0.36018,0.14086c-0.25052,-0.10966 -0.14087,-0.36018 -0.14087,-0.36018c0.04397,-0.10005 0.09075,-0.19881 0.13967,-0.29657l0.07601,-0.22907l0.0366,0.01215c0.04734,-0.08825 0.09605,-0.17585 0.14563,-0.26303c0.11025,-0.31551 0.27567,-0.60777 0.4933,-0.84876l0.15195,-0.28066c0.02319,-0.04359 0.05674,-0.0785 0.09612,-0.10312c-0.08797,-0.03071 -0.17482,-0.03936 -0.2607,0.00771c-0.07425,0.16253 -0.18001,0.32844 -0.29952,0.47834c-0.19656,0.32628 -0.37651,0.58837 -0.60587,0.8295c-0.01373,0.02566 -0.02756,0.05106 -0.04153,0.07615l0.03403,0.02408l-0.24549,0.34697c-0.07447,0.10943 -0.21954,0.15143 -0.34293,0.09303c-0.13652,-0.06461 -0.1948,-0.22766 -0.13019,-0.36417c0.00322,-0.00681 0.00668,-0.01341 0.01038,-0.01982l0.07876,-0.13964c-0.01642,-0.06062 -0.01216,-0.12718 0.01681,-0.18839c0.00408,-0.00861 0.00855,-0.01693 0.01338,-0.02491l0.1764,-0.29903l0.01287,0.00759c0.13741,-0.20011 0.24325,-0.36925 0.35207,-0.51708c0.09039,-0.14669 0.1874,-0.28581 0.29486,-0.4065l-0.02082,-0.02188l0.20896,-0.19886c0.01831,-0.01826 0.03897,-0.03364 0.06123,-0.04587c-0.11785,-0.04166 -0.39435,0.24875 -0.40995,0.26333c-0.29204,0.27294 -0.51202,0.58418 -0.69409,0.94417l-0.08564,0.2959c-0.00419,0.01549 -0.00981,0.03082 -0.01691,0.04583c-0.06462,0.13651 -0.22766,0.19481 -0.36417,0.13019c-0.11758,-0.05565 -0.17714,-0.18433 -0.1501,-0.30618l0.06701,-0.33673l0.02829,0.00563l0.00147,-0.0051l0.05967,0.01727l0.01196,0.00239c0.00003,-0.00027 0.00006,-0.00054 0.00008,-0.00081l-0.06348,-0.043c0.01608,-0.03168 0.03292,-0.06457 0.05051,-0.09845c-0.0191,0.02091 -0.03883,0.04128 -0.05927,0.06109l-0.0192,0.03165c-0.03677,0.06234 -0.09536,0.10542 -0.1612,0.12401l-0.01253,0.01822l0.05557,0.0869l-0.24851,0.1589c-0.0772,0.05115 -0.17848,0.06183 -0.26829,0.01933c-0.13652,-0.06461 -0.1948,-0.22766 -0.13019,-0.36417c0.0071,-0.01501 0.0154,-0.02908 0.02472,-0.04214l0.1854,-0.2696l0.00185,0.00128l0.00162,-0.00622c0.0998,-0.1322 0.19329,-0.25712 0.28535,-0.37471c0.00089,-0.00179 0.00179,-0.00359 0.00268,-0.00539c0.01797,-0.04039 0.03562,-0.0793 0.0531,-0.11692c0.13684,-0.51053 0.34082,-0.9936 0.59228,-1.48585l0.14133,-0.3229c0.00124,-0.00285 0.00252,-0.00569 0.00386,-0.00852c0.06461,-0.13652 0.22766,-0.19481 0.36417,-0.13019c0.13151,0.06224 0.19043,0.21584 0.13681,0.34907l-0.16961,0.4324l-0.00342,-0.00134c-0.00043,0.00542 -0.00088,0.01083 -0.00133,0.01625c0.09264,-0.17547 0.19747,-0.34475 0.2983,-0.51969l0.00627,-0.00446l-0.00246,-0.00159l0.17208,-0.26554c0.07257,-0.11582 0.22198,-0.16159 0.34858,-0.10167c0.12659,0.05992 0.18591,0.20448 0.14235,0.33403l-0.09627,0.30142l-0.00122,-0.00039c-0.01266,0.08346 -0.04142,0.1671 -0.09644,0.25542c-0.00125,0.002 -0.00249,0.00397 -0.00372,0.00591l0.15968,0.05198l0.10535,-0.06011c-0.00819,0.02761 -0.01349,0.05759 -0.01736,0.08875l0.0765,0.02491c0,0 0.06648,0.22923 -0.13893,0.3215l-0.00001,0.00001c-0.00091,0.00147 -0.00183,0.00294 -0.00277,0.00438c0.13422,0.02821 0.25259,0.08685 0.31722,0.1879c0.0272,0.04254 0.04468,0.09059 0.05361,0.14288c0.12312,-0.00517 0.25645,0.01233 0.40164,0.05718c0.06802,0.02101 0.41963,0.15664 0.55241,0.23159c0.07479,-0.01541 0.1519,-0.02672 0.2313,-0.03364l0.01228,0.00802c0.07184,-0.03461 0.15813,-0.03763 0.23582,-0.00086c0.04967,0.02351 0.08898,0.06005 0.11579,0.1036c0.00981,0.00335 0.01954,0.00727 0.02913,0.01181c0.02134,0.0101 0.04077,0.02261 0.05812,0.03704c0.07783,-0.09879 0.16613,-0.18395 0.27982,-0.18155c0.26421,0.00557 0.3817,0.10037 0.43313,0.23001l0.04475,-0.00227c0.03479,-0.04443 0.0819,-0.07607 0.13395,-0.09228l0.38535,-0.12129l0.01505,0.04779c0.1162,-0.0461 0.2358,-0.07992 0.35924,-0.09382l0.28206,0.02377c0,0 0.06166,0.00658 0.12312,0.04282c0.1049,-0.06763 0.21461,-0.1113 0.32092,-0.07181c0.24697,0.09174 0.20778,0.75068 0.18139,0.94229c-0.08213,0.59633 -0.43536,1.448 -0.82584,2.12381c-0.0296,0.07864 -0.05914,0.1586 -0.08798,0.24027l0.01536,0.00523l-0.11876,0.34904c-0.00359,0.01104 -0.00792,0.02198 -0.01302,0.03275c-0.06462,0.13651 -0.22766,0.19481 -0.36417,0.13019c-0.09314,-0.04408 -0.14986,-0.13398 -0.15599,-0.23001l-0.00436,0.01268c-0.00353,0.01074 -0.00777,0.02137 -0.01273,0.03185c-0.06462,0.13651 -0.22766,0.19481 -0.36417,0.13019c-0.12636,-0.05981 -0.1857,-0.20395 -0.14259,-0.33332l0.14045,-0.44432l0.01959,0.00619c0.15115,-0.37355 0.30174,-0.74074 0.41861,-1.12913c0.07545,-0.25076 0.14117,-0.44314 0.18496,-0.6973c0.01029,-0.05972 0.04488,-0.23134 0.01036,-0.18153c-0.25146,0.36302 -0.43185,1.05073 -0.71333,1.50233c-0.04007,0.13809 -0.08544,0.27552 -0.13581,0.41238l-0.10283,0.3376c-0.00406,0.01415 -0.00932,0.02816 -0.01582,0.0419c-0.06462,0.13651 -0.22766,0.19481 -0.36417,0.13019c-0.10371,-0.04909 -0.16227,-0.15498 -0.1561,-0.26289c-0.10492,-0.08457 -0.0959,-0.23318 -0.0959,-0.23318zM233.29944,188.33881c0.00093,0.00455 0.00183,0.00912 0.00269,0.01371c0.00624,-0.0038 0.01263,-0.00735 0.01914,-0.01063c-0.00701,-0.00096 -0.01429,-0.00199 -0.02183,-0.00308z" fill="url(#color-2)"/><path d="M239.92445,169.23619c0.20113,-0.42496 2.85747,-1.85267 2.85747,-1.85267l5.18923,1.85099c0,0 1.50603,1.11085 1.40204,4.29885c-0.06526,2.00054 -1.28128,5.5649 -2.29193,7.86307c-0.9184,2.08838 -2.22427,4.74933 -3.34842,6.76235c-0.56497,1.01171 0.65594,2.50177 0.36668,3.08409c-0.04941,0.09948 -0.25498,0.45806 -0.55794,0.3839c-0.87042,-0.21308 -2.53413,-1.23825 -3.11264,-1.54816c-0.85337,-0.45713 -1.63866,-0.93334 -1.75802,-1.33092c-0.06081,-0.20254 -0.04511,-0.78325 0.29414,-1.56733c0.76844,-1.77604 2.49268,-4.67887 3.73995,-7.18644c1.51803,-3.05195 2.82048,-6.14727 2.90727,-6.40449c0.35011,-1.03756 -1.22655,-3.81903 -2.59252,-2.49922c-1.4856,1.43539 -4.04573,7.09667 -4.04573,7.09667c0,0 -4.28738,10.43522 -5.40578,10.79744c-0.46379,0.15021 -5.89367,-1.9819 -5.54666,-2.87979c0.09608,-0.24861 0.08368,-0.87421 0.36722,-1.0797c0.89708,-0.65015 2.69263,-0.79795 3.22749,-2.05297c0.60867,-1.42822 1.27921,-3.12702 2.02196,-4.66722c0.86599,-1.79575 1.85291,-3.61529 2.69877,-5.01342c1.88934,-3.12291 3.52671,-3.92674 3.58743,-4.05503z" fill="url(#color-3)"/><path d="M238.56006,168.13658c0.20113,-0.42496 3.41459,-1.58898 3.41459,-1.58898l6.89535,2.6585c0,0 2.07756,1.38136 2.36875,4.75641c0.18273,2.11792 -0.90079,5.74499 -1.88976,8.05342c-0.8987,2.09771 -2.21763,4.75247 -3.38998,6.74268c-0.5892,1.00025 -1.28917,1.76268 -1.58226,2.34317c-0.08644,0.17121 -0.36216,0.1512 -0.73464,0.02788c-0.4632,-0.15334 -1.07607,-0.46642 -1.66076,-0.77012c-0.17447,-0.09062 -0.34701,-0.18151 -0.51492,-0.27201c-0.94296,-0.50825 -1.74005,-1.00459 -1.91481,-1.37683c-0.10487,-0.2234 -0.16207,-0.83861 0.16821,-1.62693c0.74814,-1.78564 2.57092,-4.64184 3.83518,-7.14137c1.53871,-3.04217 2.79542,-6.15912 2.87239,-6.421c0.31046,-1.05634 -2.08002,-4.22298 -3.65451,-3.00187c-1.71238,1.32805 -4.23893,7.00524 -4.23893,7.00524c0,0 -4.10407,10.52199 -5.48885,10.75813c-0.37732,0.06434 -2.54262,-0.68815 -3.89116,-1.46949c-0.70385,-0.4078 -1.1852,-0.82347 -1.07372,-1.13495c0.37479,-1.04718 0.98137,-2.38472 1.66339,-4.04678c0.58973,-1.43718 1.22272,-3.15376 1.96934,-4.69212c0.8705,-1.79362 1.89279,-3.59641 2.79044,-4.97003c2.00502,-3.06816 3.99595,-3.70465 4.05667,-3.83294z" fill="url(#color-4)"/><path d="M231.20836,189.1842c0.21132,0.17359 0.03774,0.3849 0.03774,0.3849l0.00834,-0.02626c-0.13405,0.30502 -0.23887,0.5801 -0.31615,0.90273c0,0 -0.06398,0.26589 -0.32986,0.20191c-0.26589,-0.06398 -0.20191,-0.32986 -0.20191,-0.32986c0.08528,-0.35297 0.20101,-0.66104 0.34706,-0.99451l0.06989,-0.10118c0,0 0.17359,-0.21132 0.3849,-0.03774z" fill="url(#color-5)"/><path d="M228.36552,187.90243c0.07991,0.26154 -0.18162,0.34145 -0.18162,0.34145l-0.28909,0.07963c-0.09912,0.10423 -0.19825,0.20845 -0.29737,0.31268c0,0 -0.19225,0.19449 -0.38674,0.00225c-0.19449,-0.19225 -0.00225,-0.38674 -0.00225,-0.38674c0.13445,-0.13207 0.26889,-0.26414 0.40334,-0.39621l0.41229,-0.13468c0,0 0.26154,-0.07991 0.34145,0.18162z" fill="url(#color-6)"/><path d="M229.89331,188.38795c0.2239,0.15703 0.06687,0.38092 0.06687,0.38092l-0.27014,0.38396c-0.10836,0.21427 -0.20842,0.43381 -0.28692,0.66073c0,0 -0.08992,0.25827 -0.34819,0.16835c-0.25827,-0.08992 -0.16835,-0.34819 -0.16835,-0.34819c0.09167,-0.26182 0.20905,-0.51461 0.33435,-0.76211l0.29145,-0.41679c0,0 0.15703,-0.2239 0.38092,-0.06687z" fill="url(#color-7)"/><path d="M239.9571,190.74687c0.19902,0.18756 0.01146,0.38658 0.01146,0.38658l-0.23879,0.25064c-0.11022,0.19402 -0.225,0.38579 -0.34998,0.57064c0,0 -0.15331,0.22646 -0.37977,0.07314c-0.22646,-0.15331 -0.07314,-0.37977 -0.07314,-0.37977c0.12964,-0.1912 0.24787,-0.39006 0.36367,-0.58996l0.27998,-0.29983c0,0 0.18756,-0.19901 0.38658,-0.01146z" fill="url(#color-8)"/><path d="M242.36431,192.62122c0.23938,0.13222 0.10715,0.37161 0.10715,0.37161l-0.0933,0.16711c-0.06879,0.10401 -0.13759,0.20802 -0.20637,0.31203c0,0 -0.15086,0.2281 -0.37896,0.07724c-0.2281,-0.15086 -0.07723,-0.37896 -0.07723,-0.37896c0.06879,-0.10401 0.13759,-0.20802 0.20637,-0.31203l0.07073,-0.12984c0,0 0.13222,-0.23938 0.37161,-0.10715z" fill="url(#color-9)"/></g></g></g></svg>