<svg version="1.1" xmlns="http://www.w3.org/2000/svg" xmlns:xlink="http://www.w3.org/1999/xlink" width="35.67311" height="35.67311" viewBox="0,0,35.67311,35.67311"><defs><linearGradient x1="240.00001" y1="162.91345" x2="240.00001" y2="197.08655" gradientUnits="userSpaceOnUse" id="color-1"><stop offset="0" stop-color="#00e306"/><stop offset="1" stop-color="#6b8672"/></linearGradient><linearGradient x1="240.00001" y1="162.91345" x2="240.00001" y2="197.08655" gradientUnits="userSpaceOnUse" id="color-2"><stop offset="0" stop-color="#ffffff"/><stop offset="1" stop-color="#000000"/></linearGradient></defs><g transform="translate(-222.16344,-162.16344)"><g data-paper-data="{&quot;isPaintingLayer&quot;:true}" stroke-miterlimit="10" stroke-dasharray="" stroke-dashoffset="0" style="mix-blend-mode: normal"><path d="M229.98311,162.91345h20.03379c3.9166,0 7.06966,3.15307 7.06966,7.06966v20.03379c0,3.91659 -3.15306,7.06966 -7.06966,7.06966h-20.03379c-3.91659,0 -7.06966,-3.15307 -7.06966,-7.06966v-20.03379c0,-3.91659 3.15307,-7.06966 7.06966,-7.06966z" fill="url(#color-1)" fill-rule="evenodd" stroke="url(#color-2)" stroke-width="1.5" stroke-linecap="round" stroke-linejoin="round"/><g data-paper-data="{&quot;index&quot;:null}" fill="#000000" fill-rule="nonzero" stroke="#ffffff" stroke-width="1" stroke-linecap="butt" stroke-linejoin="miter"><path d="M228.00782,179.40288c-3.24176,-3.36957 -2.79862,-9.05577 -2.79862,-9.05577c0,0 5.69908,-0.22306 8.94084,3.14651c3.24176,3.36957 4.49475,7.42397 2.79862,9.05577c-1.69613,1.6318 -5.69909,0.22306 -8.94085,-3.14651z"/><path d="M247.56602,185.71808c-4.67566,-0.03411 -8.45298,-1.85161 -8.43688,-4.05951c0.0161,-2.2079 3.81954,-3.97012 8.49521,-3.93601c4.67566,0.03411 8.43688,4.05951 8.43688,4.05951c0,0 -3.81954,3.97012 -8.4952,3.93601z"/><path d="M236.0508,187.47546c-3.61429,-0.85101 -5.85436,-4.47086 -5.00335,-8.08515c0.85102,-3.61429 4.47086,-5.85436 8.08515,-5.00335c3.61429,0.85101 5.85436,4.47085 5.00335,8.08515c-0.85101,3.61429 -4.47086,5.85436 -8.08515,5.00335z"/></g></g></g></svg>