<svg version="1.1" xmlns="http://www.w3.org/2000/svg" xmlns:xlink="http://www.w3.org/1999/xlink" width="135.55036" height="309.37538" viewBox="0,0,135.55036,309.37538"><g transform="translate(-175.42787,3.87553)"><g data-paper-data="{&quot;isPaintingLayer&quot;:true}" fill-rule="nonzero" stroke-linejoin="miter" stroke-miterlimit="10" stroke-dasharray="" stroke-dashoffset="0" style="mix-blend-mode: normal"><path d="M201.54534,304.39158c0,0 -0.63536,-94.38387 -0.79335,-118.01201c-0.05451,-8.15261 8.18688,-36.76129 40.20201,-36.9211c31.60235,-0.15775 39.85672,29.48704 39.84884,36.89673c-0.07659,46.24274 0.65429,117.98648 0.65429,117.98648l-10.49667,0.09614l-0.15882,-114.84311c0,0 0.07549,-3.0993 -2.81625,-3.15415c-3.43441,-0.06514 -2.94538,3.11562 -2.94538,3.11562l0.20548,114.86995l-48.21366,0.07222l-0.30539,-115.23309c0,0 0.27949,-2.919 -2.8856,-2.93443c-3.11083,-0.01515 -2.81569,2.90899 -2.81569,2.90899l0.35311,115.0668z" fill="#000000" stroke="#000000" stroke-width="2" stroke-linecap="butt"/><path d="M256.1425,200.33378c-0.57113,0 -1.03411,-0.46299 -1.03411,-1.03411c0,-0.57113 0.46299,-1.03413 1.03411,-1.03413c0.57113,0 1.03411,0.463 1.03411,1.03413c0,0.57113 -0.46299,1.03411 -1.03411,1.03411z" fill="#000000" stroke="none" stroke-width="1.5" stroke-linecap="butt"/><path d="M250.88263,204.56937c-4.4635,-0.31439 -6.55245,-1.79392 -6.16985,-2.58011c0.11788,-0.24224 2.84645,1.06355 6.97038,1.3048c6.40897,0.37493 8.51033,-0.63173 8.51033,-0.63173v1.34616c0,0 -2.4135,1.04672 -9.31086,0.56089z" fill="#000000" stroke="#000000" stroke-width="0" stroke-linecap="butt"/><path d="M223.06988,199.29967c0,-0.57113 0.46299,-1.03413 1.03411,-1.03413c0.57113,0 1.03413,0.463 1.03413,1.03413c0,0.57113 -0.463,1.03411 -1.03413,1.03411c-0.57113,0 -1.03411,-0.46299 -1.03411,-1.03411z" fill="#000000" stroke="none" stroke-width="1.5" stroke-linecap="butt"/><path d="M229.36386,204.56937c-6.89736,0.48585 -9.31086,-0.56089 -9.31086,-0.56089v-1.34616c0,0 2.10136,1.00666 8.51033,0.63173c4.12393,-0.24126 6.85251,-1.54704 6.97039,-1.3048c0.3826,0.78618 -1.70634,2.26571 -6.16985,2.58011z" fill="#000000" stroke="#000000" stroke-width="0" stroke-linecap="butt"/><path d="M240.64432,261.12113c-0.81895,0 -1.48284,-0.66389 -1.48284,-1.48284c0,-0.81895 0.66389,-1.48284 1.48284,-1.48284c0.81895,0 1.48284,0.66389 1.48284,1.48284c0,0.81895 -0.66389,1.48284 -1.48284,1.48284z" data-paper-data="{&quot;index&quot;:null}" fill="#000000" stroke="none" stroke-width="1.5" stroke-linecap="butt"/><path d="M216.58107,304.406v-119.20147c0,0 0.75721,-9.73105 0.75721,-14.63937c0,-4.498 -0.75721,-13.6872 -0.75721,-13.6872c0,0 2.67319,-2.35297 4.6557,-3.74807c1.98251,-1.3951 5.17197,-2.80371 5.17197,-2.80371c0,0 -0.6016,40.10902 14.55952,40.03867c15.43477,-0.07162 13.83154,-40.03867 13.83154,-40.03867c0,0 3.91276,1.51959 6.16585,2.94655c2.25309,1.42695 4.75379,3.60523 4.75379,3.60523c0,0 -0.75721,9.42463 -0.75721,14.19201c0,4.84193 0.75721,14.63937 0.75721,14.63937v118.69667z" fill="#000000" stroke="#000000" stroke-width="2" stroke-linecap="butt"/><path d="M229.88562,147.6225c5.09114,1.02674 11.91756,2.80736 11.91756,2.80736c0,0 5.78976,-1.55585 8.44678,-1.8344c2.05992,-0.21596 11.216,-0.70654 11.26026,-0.33377c0.04328,0.36447 -9.03119,12.90033 -21.14808,12.44714c-13.76954,-0.43578 -22.86459,-15.13559 -22.82675,-15.30472c0.03784,-0.16913 7.2591,1.19165 12.35024,2.2184z" fill="#ffffff" stroke="#000000" stroke-width="1.9" stroke-linecap="butt"/><path d="M214.92738,126.85416c0,0 -4.93211,-3.51705 -6.16417,-8.97502c-1.29636,-5.74284 -1.46118,-9.7328 0.48013,-9.99193c1.94131,-0.25915 2.70321,2.37692 3.73262,8.35569c1.0294,5.97877 1.95143,10.61127 1.95143,10.61127z" data-paper-data="{&quot;index&quot;:null}" fill="#ffffff" stroke="#000000" stroke-width="1" stroke-linecap="butt"/><path d="M214.72479,122.9066c0,0 -3.56385,-2.92338 -4.31816,-8.45061c-0.42079,-3.08327 2.15675,-2.28016 2.15675,-2.28016" fill="none" stroke="#000000" stroke-width="0.25" stroke-linecap="round"/><path d="M222.17582,116.36864c0.03999,-2.75843 2.30855,-4.96213 5.06696,-4.92214c2.75843,0.03999 4.96213,2.30855 4.92214,5.06696c-0.03999,2.75843 -2.30854,4.96213 -5.06696,4.92214c-2.75843,-0.03999 -4.96213,-2.30855 -4.92214,-5.06696z" fill="#000000" stroke="none" stroke-width="1.5" stroke-linecap="butt"/><path d="M300.95685,110.7771c0,29.98268 -26.72378,54.28845 -59.68922,54.28845c-32.96545,0 -59.68922,-24.30577 -59.68922,-54.28844c0,-29.98268 26.72377,-54.28845 59.68922,-54.28845c32.96545,0 59.68922,24.30577 59.68922,54.28845z" fill="#010101" stroke="#000000" stroke-width="2" stroke-linecap="butt"/><path d="M298.44448,102.60268c0,23.75552 -21.17346,43.01318 -47.29225,43.01318c-26.1188,0 -47.29226,-19.25765 -47.29226,-43.01317c0,-23.75552 21.17347,-43.01318 47.29226,-43.01318c26.11879,0 47.29225,19.25766 47.29225,43.01318z" fill="#ffffff" stroke="#000000" stroke-width="2" stroke-linecap="butt"/><path d="M282.46484,108.15609c0,5.71153 -11.96291,10.34165 -26.71991,10.34165c-14.757,0 -26.71992,-4.63012 -26.71992,-10.34164c0,-5.71153 11.96292,-10.34164 26.71992,-10.34164c14.75701,0 26.71991,4.63012 26.71991,10.34165z" fill="#000000" stroke="#000000" stroke-width="2" stroke-linecap="butt"/><path d="M264.78122,109.03858c0,5.71153 -3.50296,10.34165 -7.82408,10.34165c-4.32112,0 -7.82408,-4.63012 -7.82408,-10.34164c0,-5.71153 3.50296,-10.34164 7.82408,-10.34164c4.32112,0 7.82408,4.63012 7.82408,10.34165z" fill="#ffffff" stroke="#000000" stroke-width="2" stroke-linecap="butt"/><path d="M309.97823,82.16639c0,5.97596 -29.89627,10.82043 -66.77518,10.82043c-36.87891,0 -66.77518,-4.84447 -66.77518,-10.82043c0,-5.97596 29.89627,-10.82043 66.77518,-10.82043c36.87891,0 66.77518,4.84447 66.77518,10.82043z" fill="#ffffff" stroke="#000000" stroke-width="2" stroke-linecap="butt"/><path d="M198.96511,77.29492v-45.19682c0,0 82.93827,-34.97363 97.73958,-34.97363c13.98162,0 -11.25061,34.97363 -11.25061,34.97363v45.19682z" fill="#ff0000" stroke="#000000" stroke-width="2" stroke-linecap="butt"/><path d="M270.21779,139.36207c0,1.56743 -4.27454,55.07104 -8.01067,61.47742c-3.45733,5.92832 -6.22903,-35.43132 -10.10441,-28.95998c-4.86267,8.11998 -6.3325,16.68025 -12.00004,16.99179c-1.86651,0.1026 -6.1745,-4.92641 -8.13779,-4.92641c-5.64975,0 -5.61298,20.96737 -10.23079,20.18808c-9.93904,-1.67727 -16.0115,-61.05848 -16.0115,-64.7709c0,-5.43726 14.43774,-9.84503 32.24759,-9.84503c17.80985,0 32.24759,4.40777 32.24759,9.84503z" fill="#ffffff" stroke="#000000" stroke-width="2" stroke-linecap="butt"/><path d="M262.4814,143.93464c0,3.90024 -13.56375,16.13537 -28.18487,16.13537c-14.62111,0 -23.64257,-17.25658 -23.64257,-21.15682c0,-3.90024 9.02146,7.0328 23.64257,7.0328c14.62111,0 28.18487,-5.91159 28.18487,-2.01135z" fill="#fafafa" stroke="#000000" stroke-width="2" stroke-linecap="butt"/></g></g></svg>