<svg version="1.1" xmlns="http://www.w3.org/2000/svg" xmlns:xlink="http://www.w3.org/1999/xlink" width="169.86933" height="296.65483" viewBox="0,0,169.86933,296.65483"><defs><linearGradient x1="240.41499" y1="135.93214" x2="240.41499" y2="167.39516" gradientUnits="userSpaceOnUse" id="color-1"><stop offset="0" stop-color="#a25656"/><stop offset="1" stop-color="#790000"/></linearGradient><linearGradient x1="240.96934" y1="-27.48602" x2="240.96934" y2="52.16021" gradientUnits="userSpaceOnUse" id="color-2"><stop offset="0" stop-color="#a25656"/><stop offset="1" stop-color="#790000"/></linearGradient><linearGradient x1="239.45609" y1="36.32586" x2="239.45609" y2="79.9368" gradientUnits="userSpaceOnUse" id="color-3"><stop offset="0" stop-color="#ff8888"/><stop offset="1" stop-color="#790000"/></linearGradient><linearGradient x1="239.8661" y1="58.97116" x2="239.8661" y2="151.32833" gradientUnits="userSpaceOnUse" id="color-4"><stop offset="0" stop-color="#ff8888"/><stop offset="1" stop-color="#790000"/></linearGradient><linearGradient x1="240.00786" y1="100.14419" x2="240.00786" y2="115.92413" gradientUnits="userSpaceOnUse" id="color-5"><stop offset="0" stop-color="#ff8888"/><stop offset="1" stop-color="#790000"/></linearGradient><linearGradient x1="234.43432" y1="170.45532" x2="249.24129" y2="249.41688" gradientUnits="userSpaceOnUse" id="color-6"><stop offset="0" stop-color="#7d0000"/><stop offset="1" stop-color="#a58f8f"/></linearGradient><radialGradient cx="245.6682" cy="231.54893" r="29.40529" gradientUnits="userSpaceOnUse" id="color-7"><stop offset="0" stop-color="#ffffff"/><stop offset="1" stop-color="#ffb4b4"/></radialGradient><radialGradient cx="241.15179" cy="202.98251" r="26.14846" gradientUnits="userSpaceOnUse" id="color-8"><stop offset="0" stop-color="#ffffff"/><stop offset="1" stop-color="#ffb4b4"/></radialGradient><linearGradient x1="240.69192" y1="90.82259" x2="240.69192" y2="108.14707" gradientUnits="userSpaceOnUse" id="color-9"><stop offset="0" stop-color="#a25656"/><stop offset="1" stop-color="#790000"/></linearGradient></defs><g transform="translate(-150.47483,40.57056)"><g data-paper-data="{&quot;isPaintingLayer&quot;:true}" fill-rule="nonzero" stroke-linejoin="miter" stroke-miterlimit="10" stroke-dasharray="" stroke-dashoffset="0" style="mix-blend-mode: normal"><path d="M224.68345,151.66366c0,-8.68828 7.04324,-15.73152 15.73152,-15.73152c8.68828,0 15.73152,7.04324 15.73152,15.73152c0,8.68828 -7.04324,15.73152 -15.73152,15.73152c-8.68828,0 -15.73152,-7.04324 -15.73152,-15.73152z" fill="url(#color-1)" stroke="none" stroke-width="0.5" stroke-linecap="butt"/><path d="M227.42618,52.16021v-79.64623h27.08635v79.64623z" fill="url(#color-2)" stroke="#7d7d7d" stroke-width="0" stroke-linecap="butt"/><path d="M204.7959,79.9368v-43.61092h69.32042v43.61092z" fill="url(#color-3)" stroke="none" stroke-width="0" stroke-linecap="butt"/><path d="M215.07966,90.41104v-1.33309h0.19044v1.33309z" fill="#7d7d7d" stroke="none" stroke-width="0" stroke-linecap="butt"/><path d="M285.3146,105.14974c0,25.50373 -20.34798,46.17859 -45.44849,46.17859c-25.10051,0 -45.44849,-20.67486 -45.44849,-46.17859c0,-25.50373 20.34798,-46.17858 45.44849,-46.17858c25.10051,0 45.44849,20.67485 45.44849,46.17858z" fill="url(#color-4)" stroke="none" stroke-width="NaN" stroke-linecap="butt"/><path d="M187.87233,37.8505h2.56607" fill="none" stroke="#7d7d7d" stroke-width="0.5" stroke-linecap="round"/><path d="M215.73626,38.94683l-26.51612,-72.70548" fill="none" stroke="#000000" stroke-width="4.5" stroke-linecap="round"/><path d="M152.72483,-38.32056l55.02808,79.83347" fill="none" stroke="#000000" stroke-width="4.5" stroke-linecap="round"/><path d="M267.05776,38.37657l14.82622,-75.84181" fill="none" stroke="#000000" stroke-width="4.5" stroke-linecap="round"/><path d="M271.90479,42.36826l46.18937,-75.8418" fill="none" stroke="#000000" stroke-width="4.5" stroke-linecap="round"/><path d="M268.52572,105.54961c0,0 -12.39177,13.79231 -27.67779,13.79231c-15.28602,0 -27.67778,-13.7923 -27.67778,-13.7923c0,0 12.39176,-13.7923 27.67779,-13.7923c15.28602,0 27.67779,13.7923 27.67779,13.7923z" fill="#7f7f7f" stroke="none" stroke-width="0" stroke-linecap="butt"/><path d="M248.81364,108.03416c0,4.35752 -3.94248,7.88997 -8.80577,7.88997c-4.86329,0 -8.80578,-3.53246 -8.80578,-7.88997c0,-4.35752 3.94248,-7.88997 8.80578,-7.88997c4.86329,0 8.80577,3.53246 8.80577,7.88997z" fill="url(#color-5)" stroke="#000000" stroke-width="2" stroke-linecap="butt"/><path d="M243.78068,108.13763c0,1.82199 -1.64846,3.299 -3.68193,3.299c-2.03347,0 -3.68192,-1.47701 -3.68192,-3.299c0,-1.82199 1.64845,-3.299 3.68192,-3.299c2.03347,0 3.68193,1.47701 3.68193,3.299z" fill="#8c8c8c" stroke="#000000" stroke-width="2" stroke-linecap="butt"/><path d="M242.53604,79.86832c-0.51674,1.28037 -0.94973,1.80205 -2.32966,1.7557c-2.075,-0.0697 -2.42218,-2.25111 -2.30695,-3.627c0.12062,-1.44024 0.93923,-17.9791 2.2196,-17.46236c1.28036,0.51675 2.93376,18.0533 2.41701,19.33366z" data-paper-data="{&quot;index&quot;:null}" fill="#2d2d2d" stroke="none" stroke-width="0.5" stroke-linecap="butt"/><path d="M252.49969,81.28495c-0.9081,1.04005 -1.48824,1.39087 -2.77663,0.89448c-1.93735,-0.74641 -1.54986,-2.92103 -0.98973,-4.18302c0.58632,-1.32101 6.78417,-16.67648 7.82422,-15.76838c1.04005,0.9081 -3.14976,18.01686 -4.05786,19.05692z" data-paper-data="{&quot;index&quot;:null}" fill="#2d2d2d" stroke="none" stroke-width="0.5" stroke-linecap="butt"/><path d="M224.10956,63.24108c1.04005,-0.9081 7.2379,14.44737 7.82422,15.76838c0.56013,1.26199 0.94762,3.43661 -0.98973,4.18302c-1.2884,0.49639 -1.86853,0.14557 -2.77663,-0.89448c-0.9081,-1.04005 -5.09792,-18.14882 -4.05786,-19.05692z" data-paper-data="{&quot;index&quot;:null}" fill="#2d2d2d" stroke="none" stroke-width="0.5" stroke-linecap="butt"/><path d="M237.03014,86.75527c0,-1.89187 1.53367,-3.42554 3.42555,-3.42554c1.89187,0 3.42554,1.53367 3.42554,3.42554c0,1.89187 -1.53367,3.42554 -3.42554,3.42554c-1.89187,0 -3.42555,-1.53367 -3.42555,-3.42554z" fill="#2d2d2d" stroke="none" stroke-width="0.5" stroke-linecap="butt"/><path d="M245.73232,86.91395c0,-1.89187 1.53368,-3.42554 3.42555,-3.42554c1.89187,0 3.42554,1.53367 3.42554,3.42554c0,1.89187 -1.53367,3.42554 -3.42554,3.42554c-1.89187,0 -3.42555,-1.53367 -3.42555,-3.42554z" fill="#2d2d2d" stroke="none" stroke-width="0.5" stroke-linecap="butt"/><path d="M228.09201,87.4998c0,-1.89187 1.53368,-3.42554 3.42555,-3.42554c1.89187,0 3.42554,1.53367 3.42554,3.42554c0,1.89187 -1.53367,3.42554 -3.42554,3.42554c-1.89187,0 -3.42555,-1.53367 -3.42555,-3.42554z" fill="#2d2d2d" stroke="none" stroke-width="0.5" stroke-linecap="butt"/><path d="M249.35867,167.51814c0,4.65191 -4.2021,8.42303 -9.38566,8.42303c-5.18356,0 -9.38566,-3.77112 -9.38566,-8.42303c0,-4.65191 4.2021,-8.42303 9.38566,-8.42303c5.18356,0 9.38566,3.77112 9.38566,8.42303z" fill="#ff0000" stroke="#3a0000" stroke-width="2.5" stroke-linecap="butt"/><path d="M262.0492,142.00882l-0.09072,-0.81649" fill="none" stroke="none" stroke-width="0" stroke-linecap="round"/><path d="M286.82922,242.36834l-75.24732,13.71592c0,0 3.20045,-2.8463 3.65989,-7.57605c1.33515,-13.74468 1.34015,-42.88832 3.90206,-60.32568c1.1953,-8.13573 8.50942,-16.01214 17.2078,-18.07342c8.77073,-2.07841 22.32527,5.61179 25.43123,13.33628c6.55686,16.30685 13.63017,40.29397 18.43702,52.26281c2.04134,5.08285 6.60932,6.66017 6.60932,6.66017z" fill="url(#color-6)" stroke="none" stroke-width="0" stroke-linecap="butt"/><path d="M216.20633,229.26855l0.32936,-9.73414c0,0 4.17278,14.0738 8.06206,13.54988c2.55451,-0.34412 3.34425,-8.08536 8.83828,-9.23399c3.8961,-0.81458 9.93021,5.4508 12.00339,4.52843c1.84249,-0.81973 5.09493,-8.83176 10.27774,-9.69936c2.71216,-0.454 12.08134,5.08705 12.85895,4.67432c2.42874,-1.28902 2.34504,-14.55867 2.34504,-14.55867l3.2464,10.47778c0,0 -0.48172,9.05587 -4.37077,9.8367c-1.97064,0.39566 -8.42255,-5.69174 -13.69614,-4.69714c-4.70489,0.88735 -7.01918,8.61404 -9.77327,9.37614c-4.44762,1.23075 -8.8606,-5.11839 -11.92686,-4.20843c-5.32517,1.58031 -6.89522,9.47692 -9.45852,9.85898c-4.0287,0.60047 -8.73567,-10.17051 -8.73567,-10.17051z" fill="url(#color-7)" stroke="none" stroke-width="0.5" stroke-linecap="butt"/><path d="M217.72006,199.42709l46.90846,-8.72674l4.04729,12.05601l-51.55592,8.81259z" fill="url(#color-8)" stroke="none" stroke-width="0.5" stroke-linecap="butt"/><path d="M212.93422,105.13887c4.7866,-8.55546 13.16942,-14.02891 27.28241,-14.30822c19.80709,-0.39201 28.2573,13.64462 28.2573,15.2283c0,1.58368 -22.14582,1.80554 -29.15545,2.05149c-9.27949,0.32559 -27.1575,-1.58949 -26.38426,-2.97156z" fill="url(#color-9)" stroke="none" stroke-width="0.5" stroke-linecap="butt"/></g></g></svg>