<svg version="1.1" xmlns="http://www.w3.org/2000/svg" xmlns:xlink="http://www.w3.org/1999/xlink" width="149.30482" height="282.68914" viewBox="0,0,149.30482,282.68914"><defs><linearGradient x1="285.69476" y1="51.39051" x2="275.85231" y2="91.1916" gradientUnits="userSpaceOnUse" id="color-1"><stop offset="0" stop-color="#3f3f00"/><stop offset="1" stop-color="#886f09"/></linearGradient><radialGradient cx="275.77035" cy="116.23359" r="8.25" gradientUnits="userSpaceOnUse" id="color-2"><stop offset="0" stop-color="#e3e19b"/><stop offset="1" stop-color="#e3c600"/></radialGradient></defs><g transform="translate(-177.23341,-38.45369)"><g data-paper-data="{&quot;isPaintingLayer&quot;:true}" fill-rule="nonzero" stroke-linejoin="miter" stroke-miterlimit="10" stroke-dasharray="" stroke-dashoffset="0" style="mix-blend-mode: normal"><path d="M177.23341,299.2537l60.78912,-245.82024l88.5157,21.88913l-60.78912,245.82024z" fill-opacity="0.01" fill="#000000" stroke="none" stroke-width="0" stroke-linecap="butt"/><path d="M225.69636,107.84052c0,0 7.56214,-4.90592 7.91755,-5.80864c0.3204,-0.81378 1.66685,-6.19055 4.73577,-12.60649c0.36034,-0.75334 -3.96188,-5.78242 -3.15309,-5.44218c3.47097,1.46015 5.75496,0.50495 6.59046,-0.82443c6.73377,-10.7143 18.40282,-21.24669 37.82855,-17.32105c28.02236,6.2574 31.76816,24.10343 31.03673,38.16791c-0.09831,1.89039 11.70522,8.52447 8.49341,7.41918c-1.05758,-0.36396 -9.27085,0.18558 -9.42239,1.19715c-0.58172,3.88307 -1.17402,6.96638 -1.04139,8.67895c0.84752,10.94341 -0.44983,23.72722 -0.44983,23.72722c0,0 -0.35199,-6.36544 -1.33805,-7.84557c-0.91969,-1.38051 -2.85143,-4.3047 -2.85143,-4.3047c0,0 0.24139,11.90028 -4.24575,22.62985c-0.74894,1.82354 1.22677,10.72355 0.235,6.99185c-0.67207,-2.52878 -3.50889,-0.42309 -5.21271,1.0108c-3.59129,3.02235 -6.69988,8.81941 -6.69988,8.81941l-0.49552,-2.80844c0,0 -1.57884,2.12451 -2.98556,3.07511c-1.40673,0.95059 -4.11486,2.31526 -4.11486,2.31526l0.89837,-4.0163c0,0 -9.7916,10.18568 -26.53751,5.87704c-15.7613,-4.18995 -22.46258,-17.76966 -22.46258,-17.76966l-0.82072,2.83478c0,0 -2.90286,-4.48553 -3.41217,-11.95145c-0.60703,-8.8985 0.11994,-13.9794 0.11994,-13.9794c0,0 -2.77709,1.48632 -6.28966,1.61917c-4.40145,0.16647 -6.82614,2.4046 -6.82614,2.4046c0,0 4.21754,-5.7637 6.68313,-7.50276c2.19615,-1.54902 3.46973,-3.00628 3.46973,-3.00628c0,0 -2.33519,0.66367 -4.54042,0.7285c-2.30091,0.06765 -5.2972,2.76405 -5.2972,2.76405c0,0 7.41603,-7.39638 10.96818,-13.19684c3.3538,-5.47657 4.9601,-11.31108 4.9601,-11.31108c0,0 -1.49826,0.38655 -3.44477,0.05795c-1.23384,-0.20829 -2.29528,-0.62356 -2.29528,-0.62356z" fill="#000000" stroke="none" stroke-width="1.5" stroke-linecap="butt"/><path d="M281.79481,62.93532c-0.27601,0.59512 -0.60322,1.4 -0.99899,2.44923zM281.87822,62.75862c-0.20614,0.79151 -2.07015,7.60293 -4.9923,6.88031c-3.10181,-0.76705 -1.19225,-8.48899 -1.19225,-8.48899l1.61071,-4.75969c1.759,-3.12157 3.36095,-7.85888 5.27701,-9.36469c5.22665,-4.10761 6.23784,1.52357 8.28738,6.3923c0,0 1.74573,4.49714 -1.45118,10.8211c-3.1969,6.32396 -4.94262,1.82682 -4.94262,1.82682c-1.16959,-3.44469 -1.20718,-6.19641 -2.59674,-3.30716z" fill="#3f3f00" stroke="none" stroke-width="0.5" stroke-linecap="butt"/><path d="M267.13814,69.36493l11.07781,-30.91124l20.06233,4.96123l-4.92968,32.43161zM283.92605,58.40796c2.68067,0.66291 5.39118,-0.97282 6.05409,-3.65349c0.66291,-2.68067 -0.97282,-5.39118 -3.65349,-6.05409c-2.68067,-0.66291 -5.39118,0.97282 -6.05409,3.65349c-0.66291,2.68067 0.97282,5.39118 3.65349,6.05409z" fill="#737300" stroke="none" stroke-width="0" stroke-linecap="butt"/><path d="M200.40771,304.53963c0,0 -0.63536,-94.38387 -0.79335,-118.01201c-0.05451,-8.15261 8.18688,-36.76129 40.20201,-36.9211c31.60235,-0.15775 39.85672,29.48704 39.84884,36.89673c-0.07659,46.24274 0.65429,117.98648 0.65429,117.98648l-10.49667,0.09614l-0.15882,-114.84311c0,0 0.07549,-3.0993 -2.81625,-3.15415c-3.43441,-0.06514 -2.94538,3.11562 -2.94538,3.11562l0.20548,114.86995l-48.21366,0.07222l-0.30539,-115.23309c0,0 0.27949,-2.919 -2.8856,-2.93443c-3.11083,-0.01515 -2.81569,2.90899 -2.81569,2.90899l0.35311,115.0668z" fill="#ffffff" stroke="#000000" stroke-width="2" stroke-linecap="butt"/><path d="M255.00487,200.48181c-0.57113,0 -1.03411,-0.46299 -1.03411,-1.03411c0,-0.57113 0.46299,-1.03413 1.03411,-1.03413c0.57113,0 1.03411,0.463 1.03411,1.03413c0,0.57113 -0.46299,1.03411 -1.03411,1.03411z" fill="#000000" stroke="none" stroke-width="1.5" stroke-linecap="butt"/><g stroke="none" stroke-width="0" stroke-linecap="butt"><path d="M193.18144,290.43207c0,0 2.33194,-15.27189 2.60753,-34.61608c0.38527,-27.04278 -1.03552,-62.04422 1.05493,-74.40546c0.68137,-4.02906 5.91437,-13.82592 11.08699,-19.94358c5.41067,-6.3992 10.75526,-7.36822 10.75526,-7.36822c0,0 1.7152,26.41704 1.00722,32.64337c-0.29278,2.57482 -5.258,5.45942 -5.258,5.45942c0,0 -1.93218,45.23551 -1.93218,63.2018c0,12.40339 2.70505,35.02874 2.70505,35.02874z" fill="#ffd012"/><path d="M192.34811,290.76538c3.31385,-9.25031 5.72828,-21.9509 7.15941,-27.83086c0.30893,-1.26926 2.70155,-8.27821 3.27758,-12.06747c1.07605,-7.0785 2.44228,-30.90712 4.54155,-48.91439c0.49778,-4.26991 1.41875,-8.31229 2.42439,-11.97864c1.76797,-6.44564 4.4643,-11.72906 4.91621,-15.04335c0.86862,-6.37033 -4.63903,24.73245 -3.89939,18.94104c0.00709,6.28001 2.34166,96.89366 2.34166,96.89366z" data-paper-data="{&quot;index&quot;:null}" fill="#eabc00"/></g><path d="M249.745,204.7174c-4.4635,-0.31439 -6.55245,-1.79392 -6.16985,-2.58011c0.11788,-0.24224 2.84645,1.06355 6.97038,1.3048c6.40897,0.37493 8.51033,-0.63173 8.51033,-0.63173v1.34616c0,0 -2.4135,1.04672 -9.31086,0.56089z" fill="#000000" stroke="#000000" stroke-width="0" stroke-linecap="butt"/><path d="M221.93225,199.4477c0,-0.57113 0.46299,-1.03413 1.03411,-1.03413c0.57113,0 1.03413,0.463 1.03413,1.03413c0,0.57113 -0.463,1.03411 -1.03413,1.03411c-0.57113,0 -1.03411,-0.46299 -1.03411,-1.03411z" fill="#000000" stroke="none" stroke-width="1.5" stroke-linecap="butt"/><g data-paper-data="{&quot;index&quot;:null}" stroke="none" stroke-width="0" stroke-linecap="butt"><path d="M264.8379,289.43207c0,0 2.70504,-22.62535 2.70504,-35.02874c0,-17.96629 -1.93217,-63.2018 -1.93217,-63.2018c0,0 -4.96522,-2.88459 -5.258,-5.45942c-0.70799,-6.22633 1.00721,-32.64337 1.00721,-32.64337c0,0 5.3446,0.96901 10.75527,7.36821c5.17262,6.11766 10.40562,15.91452 11.08699,19.94358c2.09046,12.36124 0.66967,47.36269 1.05494,74.40547c0.27559,19.34418 2.60753,34.61607 2.60753,34.61607z" fill="#ffd012"/><path d="M265.43662,289.76538c0,0 2.33457,-90.61365 2.34167,-96.89366c0.73963,5.79142 -4.76801,-25.31137 -3.89939,-18.94104c0.45191,3.31429 4.64824,8.5977 6.41621,15.04335c1.00564,3.66635 1.92661,7.70872 2.42439,11.97863c2.09927,18.00727 1.9655,41.83589 3.04155,48.91439c0.57603,3.78926 2.96865,10.7982 3.27758,12.06747c1.43114,5.87996 3.84557,18.58056 7.15942,27.83086z" data-paper-data="{&quot;index&quot;:null}" fill="#eabc00"/></g><path d="M228.22623,204.7174c-6.89736,0.48585 -9.31086,-0.56089 -9.31086,-0.56089v-1.34616c0,0 2.10136,1.00666 8.51033,0.63173c4.12393,-0.24126 6.85251,-1.54704 6.97039,-1.3048c0.3826,0.78618 -1.70634,2.26571 -6.16985,2.58011z" fill="#000000" stroke="#000000" stroke-width="0" stroke-linecap="butt"/><path d="M239.50669,261.26918c-0.81895,0 -1.48284,-0.66389 -1.48284,-1.48284c0,-0.81895 0.66389,-1.48284 1.48284,-1.48284c0.81895,0 1.48284,0.66389 1.48284,1.48284c0,0.81895 -0.66389,1.48284 -1.48284,1.48284z" data-paper-data="{&quot;index&quot;:null}" fill="#000000" stroke="none" stroke-width="1.5" stroke-linecap="butt"/><path d="M215.44344,304.55404c0,0 0.13131,-15.77503 0.11533,-35.52574c-0.00244,-3.0126 0.12285,-26.52943 -0.00665,-30.17128c-0.61087,-17.17851 -5.94201,-24.30303 -5.94201,-32.31732c0,-5.8312 1.21918,-10.69187 2.18288,-14.94055c0.62978,-2.77653 3.65045,-7.91324 3.65045,-7.91324c0,0 0.75721,-8.06438 0.75721,-12.9727c0,-4.498 -0.75721,-13.6872 -0.75721,-13.6872c0,0 2.67319,-2.35297 4.6557,-3.74807c1.98251,-1.3951 5.17197,-2.80371 5.17197,-2.80371l14.55952,54.372l13.83154,-54.372c0,0 3.91276,1.51959 6.16585,2.94655c2.25309,1.42695 4.75379,3.60523 4.75379,3.60523c0,0 -0.75721,9.42463 -0.75721,14.19201c0,4.84193 0.75721,10.9727 0.75721,10.9727c0,0 3.10286,5.7747 3.79582,8.94333c0.93648,4.28216 1.03751,10.50135 1.03751,16.07232c0,8.24693 -4.02914,14.70887 -4.66578,32.33265c-0.28317,7.83897 -0.32726,24.61614 -0.24856,32.1579c0.18846,18.05911 0.08101,32.85714 0.08101,32.85714z" fill="#ffd012" stroke="#ffd012" stroke-width="2" stroke-linecap="butt"/><path d="M240.55997,117.65856c1.1906,-7.2185 7.76406,-15.79372 18.70552,-16.28447c8.40592,-0.37704 13.99734,-0.4504 13.99734,-0.4504c0,0 8.92528,3.75002 14.86887,9.53182c5.88807,5.7278 7.67506,16.63114 6.86054,19.27895c-1.77025,5.40223 -4.73969,8.61377 -6.06386,11.39814c-1.32418,2.78438 -1.87078,5.85885 -5.99219,15.04104c-2.57204,5.73033 -6.18258,7.6646 -13.2459,11.82684c-7.06332,4.16225 -11.01024,6.80873 -14.87082,5.92511c-3.71527,-0.85036 -7.45,-7.09615 -11.03552,-13.42417c-3.81797,-6.73832 -6.58035,-10.35975 -5.79697,-17.02934c0.70552,-6.00667 1.62482,-9.8052 2.57068,-15.07197c0.69131,-3.84934 -0.64787,-6.7994 0.00232,-10.74156z" fill="#ffffff" stroke="#000000" stroke-width="1.5" stroke-linecap="butt"/><path d="M290.85408,114.52001c0,0 1.40336,0.67469 3.86482,2.09947c2.24825,1.30138 3.90057,2.76114 3.90057,2.76114l-0.09156,1.18296c0,0 -6.28626,-4.77879 -14.08069,-6.02705c-6.23225,-0.99806 -10.34699,0.3384 -10.34699,0.3384l1.0471,-4.04371c0,0 3.44514,-0.90359 8.07916,0.08644c4.79849,1.02518 7.71231,2.51625 7.71231,2.51625z" data-paper-data="{&quot;index&quot;:null}" fill="#000000" stroke="none" stroke-width="1.5" stroke-linecap="butt"/><path d="M260.31983,152.85852c-1.00353,-0.24816 -2.65194,-4.01443 -2.38836,-6.11589c0.23583,-1.88023 2.19561,-3.40035 4.59492,-2.80702c2.39932,0.59333 3.96141,1.48517 2.90665,5.03349c-0.89515,3.01135 -2.7139,4.48276 -5.11321,3.88943z" fill="#ffffff" stroke="#000000" stroke-width="1.15" stroke-linecap="butt"/><g stroke="none" stroke-linecap="butt"><path d="M278.44714,162.02692c0,0 -3.49315,18.53 -13.24816,24.67977c-3.08,1.9417 -8.54294,0.81107 -13.27051,-0.55956c-3.98795,-1.15619 -8.06658,-2.81156 -9.99622,-5.53193c-7.35584,-10.3701 -1.43465,-28.55052 -1.43465,-28.55052c0,0 11.15044,-5.76444 16.89988,-4.25884c1.32234,0.34624 3.74154,3.7231 3.74154,3.7231c0,0 2.79552,-3.18207 6.89947,-0.41975c4.56943,3.42077 10.40859,10.9177 10.40859,10.9177z" fill="#000000" stroke-width="0"/><path d="M260.57989,153.67456c0.33844,1.0951 1.1895,0.57344 1.02604,0.68691c-0.94054,0.42703 -12.37383,-0.05875 -14.96804,-0.70027c-3.63617,-0.89919 -3.17964,-1.49491 3.38735,-3.32287c5.91094,-1.63846 5.11158,-2.33725 10.55466,3.33624z" data-paper-data="{&quot;noHover&quot;:false,&quot;origItem&quot;:[&quot;Path&quot;,{&quot;applyMatrix&quot;:true,&quot;segments&quot;:[[[698.34237,394.12604],[1.90626,-1.07338],[-2.11718,1.19516]],[[697.44393,395.4963],[-1.33594,0],[0.95312,0]],[[702.35019,394.59802],[-0.28908,0.22838],[0.04688,-0.05328]],[[702.03769,393.87482],[0.21094,0.35018],[-0.57032,-0.89828]]],&quot;closed&quot;:true,&quot;fillColor&quot;:[0,0,0]}]}" fill="#ffffff" stroke-width="0.5"/><path d="M265.2583,152.0112c2.98545,-0.11925 3.3577,0.65767 6.63878,4.63515l3.48159,4.44627l-2.23088,-0.28804c-2.17764,-0.3186 -12.77767,-6.11391 -13.07365,-7.1985c-0.30537,-0.95504 4.03305,-1.59383 5.18411,-1.59494z" data-paper-data="{&quot;noHover&quot;:false,&quot;origItem&quot;:[&quot;Path&quot;,{&quot;applyMatrix&quot;:true,&quot;segments&quot;:[[[704.70179,393.42568],[0,0],[-0.39844,0.09896]],[[704.15491,394.47622],[-0.1875,-0.30452],[0.19532,0.35018]],[[708.60803,395.69422],[-0.78124,0.07614],[0,0]],[709.39709,395.6181],[[707.80335,394.42294],[0,0],[-1.47656,-1.0962]],[[704.70179,393.4257],[1.02344,-0.2969],[0,0]]],&quot;closed&quot;:true,&quot;fillColor&quot;:[0,0,0]}]}" fill="#ffffff" stroke-width="0.5"/><path d="M264.24329,158.94865c2.24554,1.41283 3.41822,2.02924 -3.78441,0.31407c-4.35322,-1.01054 -6.36445,-2.01456 -6.28247,-2.34607c0.35356,-1.42971 6.62079,-0.18338 10.06687,2.03201z" data-paper-data="{&quot;noHover&quot;:false,&quot;origItem&quot;:[&quot;Path&quot;,{&quot;applyMatrix&quot;:true,&quot;segments&quot;:[[[700.70179,396.02156],[0,-0.52528],[0,0.1218]],[[703.51429,396.21948],[-1.59374,0.02284],[2.64062,-0.02284]],[[705.35023,395.8693],[0.89844,0.2969],[-1.38282,-0.47198]]],&quot;closed&quot;:true,&quot;fillColor&quot;:[0,0,0]}]}" fill="#ffffff" stroke-width="0.5"/><path d="M262.04415,172.81957c0,0 -3.07821,2.22313 -5.86382,1.53428c-2.78561,-0.68886 -4.63506,-4.09798 -4.63506,-4.09798z" data-paper-data="{&quot;noHover&quot;:false,&quot;origItem&quot;:[&quot;Path&quot;,{&quot;applyMatrix&quot;:true,&quot;segments&quot;:[[[700.29563,400.68044],[-1.04688,-1.02008],[0.74218,0.7232]],[[703.44407,401.97458],[-1.02344,0],[1.02344,0]],[[706.37375,400.50536],[-0.42968,0.7232],[0.38282,-0.70036]],[[705.35031,400.48252],[0.97656,-0.67752],[-0.88282,0.62422]],[[701.53781,400.58148],[1.02344,0.57094],[-1.76562,-0.9744]]],&quot;closed&quot;:true,&quot;fillColor&quot;:[0,0,0]}]}" fill="#ffffff" stroke-width="0.5"/><path d="M241.5566,166.49344c0.08654,-12.57709 0.50257,-13.76769 3.37579,-10.33077c0.63227,0.728 2.04836,4.6078 2.70448,8.06809c1.51797,8.00487 1.61189,10.51915 7.77847,12.04409c6.27289,1.55123 8.04271,-0.35608 12.23892,-7.0138c2.38567,-3.80746 5.22203,-6.2115 6.77433,-5.82763c0.44654,0.11043 1.36599,0.09195 1.33014,0.23691c-0.87104,3.52234 -6.3804,16.10809 -7.96037,18.02602c-3.09021,3.919 -3.93424,4.7329 -13.27203,2.70956c-7.06247,-1.46066 -5.86836,-1.12198 -8.51224,-3.20501c-3.73885,-2.94739 -4.55083,-5.93583 -4.45763,-14.70756z" data-paper-data="{&quot;noHover&quot;:false,&quot;origItem&quot;:[&quot;Path&quot;,{&quot;applyMatrix&quot;:true,&quot;segments&quot;:[[[696.79563,400.42922],[0,0],[0.71876,3.04502]],[[699.56125,404.9663],[-1.54686,-0.70036],[1.09374,0.49482]],[[703.65499,405.41544],[-2.5703,0.09896],[3.40626,-0.09896]],[[708.53781,403.39812],[-0.73438,1.62146],[0.38282,-0.79932]],[[709.75657,396.56968],[0,1.29412],[0,-0.05328]],[[709.44407,396.49356],[0.16406,0],[-0.57032,0]],[[707.60813,399.11228],[0.5,-1.52252],[-0.88282,2.66438]],[[703.30345,402.72062],[2.30468,0],[-2.26562,0]],[[698.51439,399.08182],[1.21094,2.64156],[-0.52344,-1.14188]],[[697.06127,396.61536],[0.28124,0.19792],[-1.28906,-0.94396]],[[696.79565,400.42924],[-1.04688,-4.36198],[0,0]]],&quot;closed&quot;:true,&quot;fillColor&quot;:[0,0,0]}]}" fill="#ffffff" stroke-width="0.5"/></g><path d="M271.0409,124.50952c0,0 -0.85338,3.87831 -1.70522,6.91961c-1.68678,6.02231 -7.71407,26.68931 -7.71407,26.68931l-2.89655,-0.70739c0,0 0.22225,-4.24347 1.19014,-9.49164c1.31013,-7.10385 3.47499,-15.92467 3.97181,-19.24148c0.47094,-3.14401 0.5021,-5.7625 0.5021,-5.7625" fill="#ffffff" stroke="#000000" stroke-width="1.3" stroke-linecap="round"/><path d="M239.77974,127.89376c0,0 -3.94358,-4.59821 -3.82938,-10.19234c0.12017,-5.88611 0.918,-9.79897 2.86475,-9.58449c1.94675,0.21446 2.05356,2.95635 1.61761,9.00741c-0.43596,6.05106 -0.65297,10.76944 -0.65297,10.76944z" data-paper-data="{&quot;index&quot;:null}" fill="#ffffff" stroke="#000000" stroke-width="1" stroke-linecap="butt"/><path d="M240.53072,124.01301c0,0 -2.75785,-3.69343 -2.16324,-9.24011c0.33168,-3.09412 2.64106,-1.69574 2.64106,-1.69574" fill="none" stroke="#000000" stroke-width="0.25" stroke-linecap="round"/><path d="M245.36877,121.71436l0.1315,-1.88142l-2.59325,-2.36484c0,0 0.51493,-1.85252 1.69094,-3.35894c0.8049,-1.03105 2.30649,-1.80427 2.62863,-2.0903c1.6805,-1.49209 4.26713,-0.59297 4.26713,-0.59297" fill="none" stroke="#000000" stroke-width="3" stroke-linecap="round"/><path d="M245.05381,118.27514c1.2432,-4.7318 6.84205,-7.51329 12.03927,-6.14783c5.1972,1.36547 7.7434,6.29125 6.50021,11.02306c-1.2432,4.7318 -6.11412,7.54733 -11.31133,6.18187c-5.1972,-1.36547 -8.47134,-6.32529 -7.22814,-11.05711z" fill="#ffffff" stroke="#000000" stroke-width="1.4" stroke-linecap="butt"/><path d="M287.28061,120.27566c0,0 2.70756,0.41008 3.49894,2.51345c0.1517,0.40321 1.11984,1.78717 1.35142,3.07453c0.33835,1.88092 -0.06949,3.75992 -0.06949,3.75992l-3.39656,0.88361l-0.76055,1.72586" data-paper-data="{&quot;index&quot;:null}" fill="none" stroke="#000000" stroke-width="3" stroke-linecap="round"/><path d="M250.66684,119.26962c0.70101,-2.66817 3.43225,-4.26284 6.1004,-3.56183c2.66817,0.70101 4.26284,3.43225 3.56183,6.1004c-0.70101,2.66817 -3.43224,4.26284 -6.1004,3.56183c-2.66817,-0.70101 -4.26284,-3.43225 -3.56183,-6.1004z" fill="#000000" stroke="none" stroke-width="1.5" stroke-linecap="butt"/><path d="M271.31872,124.77097c1.37103,-4.69637 6.449,-7.53053 11.61133,-6.25393c5.16233,1.2766 8.05123,6.07654 6.87676,10.82587c-1.17447,4.74934 -5.94981,7.87295 -11.6106,6.54606c-5.38444,-1.2621 -8.30933,-6.21334 -6.8775,-11.118z" fill="#ffffff" stroke="#000000" stroke-width="1.4" stroke-linecap="butt"/><path d="M274.61293,125.41619c0.6766,-2.73603 3.44307,-4.40553 6.17911,-3.72894c2.73603,0.6766 4.40553,3.44307 3.72894,6.17911c-0.6766,2.73603 -3.44306,4.40554 -6.17911,3.72894c-2.73603,-0.6766 -4.40553,-3.44307 -3.72894,-6.17911z" fill="#000000" stroke="none" stroke-width="1.5" stroke-linecap="butt"/><path d="M245.11513,117.74209c0,0 2.22588,-8.73624 12.40962,-6.02194c9.15424,2.43462 7.01782,11.42605 7.01782,11.42605z" fill="#ffd012" stroke="#ffd012" stroke-width="1.15" stroke-linecap="butt"/><path d="M271.04864,124.29006c0,0 2.03089,-9.24089 13.05599,-6.14879c9.35015,2.65572 6.95048,11.66183 6.95048,11.66183z" fill="#ffd012" stroke="#ffd012" stroke-width="1.15" stroke-linecap="butt"/><path d="M250.94517,108.87057c0,0 3.70776,-0.9569 8.34532,-0.28679c5.139,0.74255 7.55698,1.8005 7.55698,1.8005l-0.70679,4.08732c0,0 -3.55998,-1.58151 -7.65839,-2.43068c-5.48111,-1.13567 -6.79456,-0.20414 -11.03307,-0.78022c-3.63178,-0.49362 -6.57835,-1.46314 -6.57835,-1.46314l0.27051,-1.20175c0,0 3.47228,0.93487 5.09708,1.19004c1.34105,0.2106 4.08464,0.04376 4.08464,0.04376z" fill="#000000" stroke="none" stroke-width="1.5" stroke-linecap="butt"/><path d="M294.97433,130.61199c2.43456,-5.55682 3.80699,-7.9329 5.62934,-7.2153c1.82233,0.71759 0.70451,4.5513 -1.93257,9.81501c-2.50627,5.0026 -8.13846,7.2328 -8.13846,7.2328c0,0 2.00714,-4.27569 4.4417,-9.83252z" data-paper-data="{&quot;index&quot;:null}" fill="#ffffff" stroke="#000000" stroke-width="1" stroke-linecap="butt"/><path d="M296.35119,126.7629c0,0 2.69496,-0.16087 1.54631,2.73123c-2.05912,5.18452 -6.22054,7.16688 -6.22054,7.16688" data-paper-data="{&quot;index&quot;:null}" fill="none" stroke="#000000" stroke-width="0.25" stroke-linecap="round"/><path d="M273.42542,90.59146c0,0 1.11197,-22.54765 2.87608,-29.6814c1.05221,-4.25493 5.67203,-10.43976 5.67203,-10.43976l7.44248,1.84046c0,0 1.31404,7.18317 0.31256,11.23296c-1.75456,7.09511 -11.61114,28.20804 -11.61114,28.20804z" fill="url(#color-1)" stroke="none" stroke-width="0" stroke-linecap="butt"/><path d="M269.70454,115.81882l6.40159,-25.88689" fill="none" stroke="#000000" stroke-width="4" stroke-linecap="round"/><path d="M214.72639,305.51777v-14.33333c0,0 16.36991,6.66667 24.66667,6.66667c8.68544,0 26.33333,-6 26.33333,-6v13.66667z" fill="#eabc00" stroke="none" stroke-width="0" stroke-linecap="butt"/><path d="M246.30818,85.0914l-4.84232,-1.41054c0,0 1.95907,-3.48159 5.36259,-7.38799c4.85847,-5.57631 11.82869,-11.53716 14.67453,-11.53654c3.9994,0.00087 11.03687,-0.32119 11.03687,-0.32119l-0.64461,5.54766c0,0 -5.81372,0.38542 -9.35231,0.2216c-4.83536,-0.22386 -16.23475,14.887 -16.23475,14.887z" fill="#737300" stroke="none" stroke-width="0" stroke-linecap="butt"/><path d="M298.51045,79.44221c-3.20709,-1.50432 -8.1711,-4.55498 -8.1711,-4.55498l0.72099,-5.52877c0,0 7.37058,3.88506 10.90944,5.74832c2.51813,1.32584 6.39038,9.28118 8.08987,16.47921c1.19055,5.04247 0.8175,9.60301 0.8175,9.60301l-4.94163,-1.00894c0,0 -0.16551,-4.82992 -1.55581,-9.93584c-1.29984,-4.77369 -3.75174,-9.80878 -5.86925,-10.80202z" data-paper-data="{&quot;index&quot;:null}" fill="#737300" stroke="none" stroke-width="0" stroke-linecap="butt"/><g><path d="M277.16886,120.97303c-1.0938,4.42311 -5.56613,7.12206 -9.98925,6.02826c-4.42311,-1.0938 -7.12206,-5.56613 -6.02826,-9.98925c1.0938,-4.42311 5.56613,-7.12206 9.98925,-6.02826c4.42311,1.0938 7.12206,5.56613 6.02826,9.98925z" fill="url(#color-2)" stroke="none" stroke-width="0" stroke-linecap="butt"/><path d="M261.52006,116.37999l15.74785,3.8943" fill="none" stroke="#886f09" stroke-width="0.5" stroke-linecap="round"/><g fill="#886f09" stroke-width="0.5"><path d="M263.86819,123.08418c-1.34034,-0.33145 -2.1582,-1.68671 -1.82675,-3.02704c0.33145,-1.34034 1.68671,-2.1582 3.02704,-1.82675c1.34034,0.33145 2.1582,1.68671 1.82675,3.02704c-0.33145,1.34034 -1.68671,2.1582 -3.02704,1.82675z" data-paper-data="{&quot;index&quot;:null}" stroke="none" stroke-linecap="butt"/><path d="M265.01116,122.16501l-0.12519,3.74616c0,0 -0.79982,-0.51078 -1.20218,-0.83273c-0.42456,-0.33971 -1.28332,-1.61325 -1.28332,-1.61325l0.80137,-2.77774" data-paper-data="{&quot;index&quot;:null}" stroke="#886f09" stroke-linecap="round"/></g><g fill="#886f09" stroke-width="0.5"><path d="M270.48136,122.02978c0.33145,-1.34034 1.68671,-2.1582 3.02704,-1.82675c1.34034,0.33145 2.1582,1.68671 1.82675,3.02704c-0.33145,1.34034 -1.68671,2.1582 -3.02704,1.82675c-1.34034,-0.33145 -2.1582,-1.68671 -1.82675,-3.02704z" stroke="none" stroke-linecap="butt"/><path d="M274.01472,123.24694l-0.58565,2.83109c0,0 -1.35334,0.72649 -1.8873,0.82917c-0.50604,0.09731 -1.45175,0.17643 -1.45175,0.17643l1.63526,-3.37274" stroke="#886f09" stroke-linecap="round"/></g><path d="M268.12655,116.5088l2.47705,-3.50794l0.4959,4.24312l-2.90319,-3.10009l4.24707,1.05026z" fill="#886f09" stroke="#886f09" stroke-width="0.5" stroke-linecap="round"/></g></g></g></svg>