<svg version="1.1" xmlns="http://www.w3.org/2000/svg" xmlns:xlink="http://www.w3.org/1999/xlink" width="94.40348" height="290.19583" viewBox="0,0,94.40348,290.19583"><defs><linearGradient x1="217.74232" y1="139.64793" x2="233.047" y2="139.64793" gradientUnits="userSpaceOnUse" id="color-1"><stop offset="0" stop-color="#0028e0"/><stop offset="1" stop-color="#00a1e3"/></linearGradient><linearGradient x1="246.14234" y1="139.84797" x2="261.44702" y2="139.84797" gradientUnits="userSpaceOnUse" id="color-2"><stop offset="0" stop-color="#00a1e3"/><stop offset="1" stop-color="#0028e0"/></linearGradient><linearGradient x1="255.51319" y1="186.50669" x2="255.51319" y2="199.20284" gradientUnits="userSpaceOnUse" id="color-3"><stop offset="0" stop-color="#333333"/><stop offset="1" stop-color="#96d6ff"/></linearGradient></defs><g transform="translate(-191.51637,-27.42869)"><g data-paper-data="{&quot;isPaintingLayer&quot;:true}" fill-rule="nonzero" stroke-linejoin="miter" stroke-miterlimit="10" stroke-dasharray="" stroke-dashoffset="0" style="mix-blend-mode: normal"><path d="M192.90599,317.62452v-253.22501h91.18203v253.22501z" fill-opacity="0.01" fill="#000000" stroke="none" stroke-width="0" stroke-linecap="butt"/><path d="M201.54534,304.3916c0,0 -0.63536,-94.38387 -0.79335,-118.01201c-0.05451,-8.15261 8.18688,-36.76129 40.20201,-36.9211c31.60235,-0.15775 39.85672,29.48704 39.84884,36.89673c-0.07659,46.24274 0.65429,117.98648 0.65429,117.98648l-10.49667,0.09614l-0.15882,-114.84311c0,0 0.07549,-3.0993 -2.81625,-3.15415c-3.43441,-0.06514 -2.94538,3.11562 -2.94538,3.11562l0.20548,114.86995l-48.21366,0.07222l-0.30539,-115.23309c0,0 0.27949,-2.919 -2.8856,-2.93443c-3.11083,-0.01515 -2.81569,2.90899 -2.81569,2.90899l0.35311,115.0668z" fill="#ffffff" stroke="#000000" stroke-width="2" stroke-linecap="butt"/><path d="M256.1425,200.33378c-0.57113,0 -1.03411,-0.46299 -1.03411,-1.03411c0,-0.57113 0.46299,-1.03413 1.03411,-1.03413c0.57113,0 1.03411,0.463 1.03411,1.03413c0,0.57113 -0.46299,1.03411 -1.03411,1.03411z" fill="#000000" stroke="none" stroke-width="1.5" stroke-linecap="butt"/><path d="M250.88263,204.56937c-4.4635,-0.31439 -6.55245,-1.79392 -6.16985,-2.58011c0.11788,-0.24224 2.84645,1.06355 6.97038,1.3048c6.40897,0.37493 8.51033,-0.63173 8.51033,-0.63173v1.34616c0,0 -2.4135,1.04672 -9.31086,0.56089z" fill="#000000" stroke="#000000" stroke-width="0" stroke-linecap="butt"/><path d="M223.06988,199.29967c0,-0.57113 0.46299,-1.03413 1.03411,-1.03413c0.57113,0 1.03413,0.463 1.03413,1.03413c0,0.57113 -0.463,1.03411 -1.03413,1.03411c-0.57113,0 -1.03411,-0.46299 -1.03411,-1.03411z" fill="#000000" stroke="none" stroke-width="1.5" stroke-linecap="butt"/><path d="M229.36386,204.56937c-6.89736,0.48585 -9.31086,-0.56089 -9.31086,-0.56089v-1.34616c0,0 2.10136,1.00666 8.51033,0.63173c4.12393,-0.24126 6.85251,-1.54704 6.97039,-1.3048c0.3826,0.78618 -1.70634,2.26571 -6.16985,2.58011z" fill="#000000" stroke="#000000" stroke-width="0" stroke-linecap="butt"/><path d="M240.64432,261.12113c-0.81895,0 -1.48284,-0.66389 -1.48284,-1.48284c0,-0.81895 0.66389,-1.48284 1.48284,-1.48284c0.81895,0 1.48284,0.66389 1.48284,1.48284c0,0.81895 -0.66389,1.48284 -1.48284,1.48284z" data-paper-data="{&quot;index&quot;:null}" fill="#000000" stroke="none" stroke-width="1.5" stroke-linecap="butt"/><path d="M216.58107,304.40603v-119.20147c0,0 -0.6594,17.63069 -4.58453,24.03644c-4.91414,8.01981 -13.31814,4.96115 -13.31814,2.23239c0,-2.05732 -4.14927,-24.4195 -0.08479,-36.39896c4.82183,-14.21163 17.98746,-18.19644 17.98746,-18.19644c0,0 2.67319,-2.35297 4.6557,-3.74807c1.98251,-1.3951 5.17197,-2.80371 5.17197,-2.80371c0,0 -1.31929,23.6022 13.84183,23.53185c15.43477,-0.07162 14.54923,-23.53185 14.54923,-23.53185c0,0 3.91276,1.51959 6.16585,2.94655c1.22886,0.77828 16.7717,7.95801 22.16636,23.45985c4.4963,12.92036 -0.90575,34.68965 -0.90575,34.68965c0,0 -10.43159,5.19411 -13.67866,-1.19589c-3.23185,-6.36004 -2.14999,-27.1807 -2.14999,-24.80261c0,4.84193 -0.67816,0.28561 -0.67816,0.28561v118.69667z" fill="#525252" stroke="#000000" stroke-width="2" stroke-linecap="butt"/><path d="M194.93885,114.89211c0,0 6.16329,-5.92187 6.29161,-6.78761c0.33654,-2.27063 -0.16776,-40.17317 35.96775,-41.57382c44.63633,-0.91362 39.01489,35.34872 41.53088,42.1903c3.44981,9.38084 6.15664,17.40016 6.15664,17.40016c0,0 -2.76715,-2.05351 -4.0797,-3.13397c-1.2242,-1.00773 -3.80143,-3.14585 -3.80143,-3.14585c0,0 3.09111,10.3481 1.31092,20.69498c-1.5623,9.48098 -7.29782,17.22543 -7.29782,17.22543l-1.15522,-2.34735c0,0 -1.02266,2.19794 -2.16005,3.33274c-1.1374,1.13479 -3.43873,2.91273 -3.43873,2.91273l-0.09205,-3.70421c0,0 -7.0601,11.01795 -24.35066,10.87154c-16.30625,-0.25547 -26.07151,-10.6752 -26.07151,-10.6752l-0.1162,2.65484c0,0 -3.89477,-3.29276 -6.18145,-9.70754c-2.72545,-7.64567 -3.23946,-12.24324 -3.23946,-12.24324c0,0 -2.33908,1.89916 -5.71704,2.7744c-4.23278,1.09673 -6.94665,0.34526 -6.94665,0.34526c0,0 3.60795,-2.71717 5.58396,-4.76989c1.76007,-1.8284 2.64658,-3.37722 2.64658,-3.37722c0,0 -2.10758,1.0847 -4.23277,1.61795c-2.21739,0.5564 -4.03008,0.53093 -4.03008,0.53093c0,0 4.97492,-5.03728 7.03074,-10.87429c1.94102,-5.51108 2.09972,-10.95731 2.09972,-10.95731c0,0 -1.36165,0.66163 -3.33013,0.79513c-1.24776,0.08463 -2.37785,-0.0489 -2.37785,-0.0489z" fill="#000000" stroke="none" stroke-width="1.5" stroke-linecap="butt"/><path d="M211.72474,126.21373c-0.57709,-7.29323 0.335,-17.15448 0.335,-17.15448c0,0 3.41059,-0.04124 13.91429,-3.14424c8.0696,-2.38394 20.54731,-9.48722 20.54731,-9.48722c0,0 -2.16005,3.00503 -3.40781,4.46015c-1.32651,1.54696 -3.99292,4.56297 -3.99292,4.56297c0,0 7.838,-1.66761 14.67476,-4.72931c8.56837,-3.53575 10.59252,-6.05309 12.95042,-4.5927c2.7829,1.72362 1.03006,23.1827 0.71846,28.74062c-0.42163,5.66922 -2.53327,9.49969 -3.15031,12.52053c-0.61704,3.02084 -0.4096,6.13662 -2.20622,16.0397c-1.12121,6.18021 -4.16183,8.92466 -10.01942,14.66081c-5.85759,5.73616 -9.05378,9.25275 -13.01359,9.32173c-3.81077,0.06639 -8.93565,-5.1002 -13.93542,-10.38244c-5.32393,-5.62474 -8.87489,-8.47713 -9.71551,-15.13975c-0.75707,-6.00039 -0.77653,-9.90853 -1.12266,-15.24835c-0.25298,-3.90273 -2.26119,-6.44504 -2.57636,-10.42801z" fill="#ffffff" stroke="#000000" stroke-width="1.5" stroke-linecap="butt"/><path d="M258.79474,112.09337c0,0 1.52429,0.31807 4.2558,1.11029c2.49492,0.72361 4.44935,1.74403 4.44935,1.74403l0.1951,1.17035c0,0 -7.24963,-3.12997 -15.1158,-2.4706c-6.2896,0.52724 -9.96319,2.8124 -9.96319,2.8124l0.04575,-4.17683c0,0 3.12748,-1.70421 7.86366,-1.85557c4.90428,-0.15672 8.09084,0.59125 8.09084,0.59125z" data-paper-data="{&quot;index&quot;:null}" fill="#0028e0" stroke="none" stroke-width="1.5" stroke-linecap="butt"/><path d="M239.35688,155.64082c-1.03376,0 -3.5381,-3.26042 -3.7867,-5.3637c-0.22243,-1.88186 1.31512,-3.82799 3.7867,-3.82799c2.47159,0 4.2021,0.49077 4.02999,4.18853c-0.14607,3.13818 -1.55841,5.00317 -4.02999,5.00317z" fill="#ffffff" stroke="#000000" stroke-width="1.15" stroke-linecap="butt"/><path d="M213.42438,136.33695c0,0 -4.93211,-3.51705 -6.16417,-8.97502c-1.29636,-5.74284 -1.46118,-9.7328 0.48013,-9.99193c1.94131,-0.25915 2.70321,2.37692 3.73262,8.35569c1.0294,5.97877 1.95143,10.61127 1.95143,10.61127z" data-paper-data="{&quot;index&quot;:null}" fill="#ffffff" stroke="#000000" stroke-width="1" stroke-linecap="butt"/><path d="M213.22179,132.38939c0,0 -3.56385,-2.92338 -4.31816,-8.45061c-0.42079,-3.08327 2.15675,-2.28016 2.15675,-2.28016" fill="none" stroke="#000000" stroke-width="0.25" stroke-linecap="round"/><path d="M216.23519,125.73349c0.07093,-4.89188 4.83834,-8.93609 10.21137,-8.8582c5.37302,0.0779 9.02724,4.2484 8.95632,9.14029c-0.07093,4.89188 -4.12352,8.79439 -9.49655,8.7165c-5.37302,-0.0779 -9.74207,-4.1067 -9.67114,-8.99859z" fill="#000000" stroke="#000000" stroke-width="1.4" stroke-linecap="butt"/><path d="M220.67282,125.85143c0.03999,-2.75843 2.30855,-4.96213 5.06696,-4.92214c2.75843,0.03999 4.96213,2.30855 4.92214,5.06696c-0.03999,2.75843 -2.30854,4.96213 -5.06696,4.92214c-2.75843,-0.03999 -4.96213,-2.30855 -4.92214,-5.06696z" fill="#ffffff" stroke="none" stroke-width="1.5" stroke-linecap="butt"/><path d="M243.29146,125.73422c0.20353,-4.88817 4.45264,-8.85847 9.77048,-8.85847c5.31783,0 9.27453,3.96607 9.27453,8.85847c0,4.8924 -3.88585,9.07104 -9.69964,9.14188c-5.52997,0.06739 -9.55792,-4.03692 -9.34537,-9.14188z" fill="#000000" stroke="#000000" stroke-width="1.4" stroke-linecap="butt"/><path d="M247.89422,125.81977c0,-2.81845 2.2848,-5.10325 5.10325,-5.10325c2.81845,0 5.10325,2.2848 5.10325,5.10325c0,2.81845 -2.28479,5.10325 -5.10325,5.10325c-2.81845,0 -5.10325,-2.2848 -5.10325,-5.10325z" fill="#ffffff" stroke="none" stroke-width="1.5" stroke-linecap="butt"/><path d="M215.83341,124.26319c0,0 0.06357,-8.0571 10.60111,-7.8871c9.47101,0.14823 9.55554,8.40754 9.55554,8.40754c0,0 0.54204,3.71827 -1.63016,6.56995c-1.92102,2.52193 -6.47327,4.22082 -8.01456,4.18103c-1.78207,-0.04601 -6.88487,-1.08931 -9.13383,-4.00165c-2.07787,-2.69078 -1.3781,-7.26977 -1.3781,-7.26977z" fill="#ffffff" stroke="#000000" stroke-width="1.15" stroke-linecap="butt"/><path d="M242.91382,124.86062c0,0 -0.24686,-8.96875 11.19813,-8.63212c9.71427,0.31621 9.54677,9.15279 9.54677,9.15279c0,0 -0.4344,4.31075 -2.89601,7.25614c-1.99004,2.38115 -5.88239,3.52353 -7.42408,3.48483c-1.54519,-0.03878 -5.78443,-0.94768 -7.79186,-3.4211c-2.49563,-3.07496 -2.63296,-7.84055 -2.63296,-7.84055z" fill="#ffffff" stroke="#000000" stroke-width="1.15" stroke-linecap="butt"/><path d="M267.65754,125.72568c1.0294,-5.97877 1.7913,-8.61483 3.73262,-8.35569c1.94131,0.25914 1.77649,4.24909 0.48013,9.99193c-1.23206,5.45797 -6.16417,8.97502 -6.16417,8.97502c0,0 0.92203,-4.6325 1.95143,-10.61127z" data-paper-data="{&quot;index&quot;:null}" fill="#ffffff" stroke="#000000" stroke-width="1" stroke-linecap="butt"/><path d="M268.07011,121.65862c0,0 2.57754,-0.80312 2.15675,2.28016c-0.75431,5.52723 -4.31816,8.45061 -4.31816,8.45061" data-paper-data="{&quot;index&quot;:null}" fill="none" stroke="#000000" stroke-width="0.25" stroke-linecap="round"/><path d="M232.297,136.09536c0.75,0 0.75,0.75 0.75,0.75v0.2c-0.03193,1.54727 -1.88751,6.62475 -4.15969,6.12009c-2.79876,-0.62162 0.65458,-6.60193 -1.39916,-3.85853c-0.23296,0.31119 -0.4,0.66667 -0.6,1c-0.6703,0.67459 -1.83743,2.68449 -3.10455,2.21983c-0.55391,-0.20312 -1.19423,-3.99344 -1.19959,-3.98848c-0.89629,0.82959 -0.57836,4.31508 -3.00041,3.58848c-0.823,-0.2469 -1.37028,-3.58224 -1.75743,-4.34597c0,0 -0.33541,-0.67082 0.33541,-1.00623c0.67082,-0.33541 1.00623,0.33541 1.00623,0.33541c0.15801,0.31968 0.92881,2.07099 1.10652,3.03501c0.18323,-0.36523 0.43111,-0.79354 0.55184,-1.03501c0.17435,-0.3487 0.9112,-1.90986 1.18381,-1.9575c2.5752,-0.44999 2.12957,1.29476 2.42245,2.74582c0.03062,0.15171 0.0925,0.36542 0.1378,0.57413c0.3508,-0.3798 0.87082,-0.82561 1.13561,-1.0886c0.30927,-0.51545 1.74692,-2.78428 2.45851,-2.68541c1.20484,0.1674 1.17756,2.43705 1.27703,3.25533c0.07146,0.58789 -0.53294,2.20986 -0.13469,1.77155c1.01217,-1.11397 2.28842,-3.1748 2.24031,-4.67991v-0.2c0,0 0,-0.75 0.75,-0.75z" fill="url(#color-1)" stroke="none" stroke-width="0.5" stroke-linecap="butt"/><path d="M247.64233,137.04537v0.2c-0.04811,1.5051 1.22815,3.56594 2.24031,4.67991c0.39826,0.43831 -0.20615,-1.18365 -0.13469,-1.77155c0.09946,-0.81828 0.07218,-3.08793 1.27703,-3.25533c0.71158,-0.09887 2.14924,2.16996 2.45851,2.68541c0.26479,0.26299 0.78481,0.7088 1.13561,1.0886c0.0453,-0.20871 0.10718,-0.42242 0.1378,-0.57413c0.29288,-1.45106 -0.15275,-3.19581 2.42245,-2.74582c0.27261,0.04764 1.00946,1.6088 1.18381,1.9575c0.12073,0.24147 0.36861,0.66977 0.55184,1.035c0.1777,-0.96402 0.94851,-2.71533 1.10652,-3.035c0,0 0.33541,-0.67083 1.00623,-0.33541c0.67082,0.33541 0.33541,1.00623 0.33541,1.00623c-0.38715,0.76373 -0.93442,4.09907 -1.75743,4.34597c-2.42204,0.72661 -2.10411,-2.75888 -3.00041,-3.58847c-0.00537,-0.00496 -0.64568,3.78535 -1.19959,3.98847c-1.26712,0.46466 -2.43425,-1.54523 -3.10455,-2.21982c-0.2,-0.33334 -0.36704,-0.68881 -0.6,-1c-2.05373,-2.7434 1.3996,3.23692 -1.39915,3.85853c-2.27218,0.50466 -4.12777,-4.57282 -4.15969,-6.12009v-0.2c0,0 0,-0.75 0.75,-0.75c0.75,0 0.75,0.75 0.75,0.75z" data-paper-data="{&quot;index&quot;:null}" fill="url(#color-2)" stroke="none" stroke-width="0.5" stroke-linecap="butt"/><path d="M219.69474,111.51869c0,0 3.18656,-0.74797 8.09084,-0.59125c4.73618,0.15136 7.86366,1.85557 7.86366,1.85557l0.04575,4.17683c0,0 -3.67359,-2.28516 -9.96319,-2.8124c-7.86617,-0.65937 -15.1158,2.4706 -15.1158,2.4706l0.1951,-1.17035c0,0 1.95443,-1.02042 4.44935,-1.74403c2.73151,-0.79222 4.2558,-1.11029 4.2558,-1.11029z" data-paper-data="{&quot;index&quot;:null}" fill="#0028e0" stroke="none" stroke-width="1.5" stroke-linecap="butt"/><g stroke="#224ccc"><g><path d="M217.98613,102.01203l-14.96739,-4.71958l-3.52174,-16.51852l8.80435,-10.61905l12.32609,-11.79894l5.28261,-10.61905l10.56522,-8.25926l8.80435,-10.61905l5.28261,-1.17989h7.04348l8.80435,3.53968l10.56522,8.25926l-14.08696,3.53968l-8.80435,8.25926l-3.52174,11.79894l4.40217,7.07937h10.56522l5.28261,9.43915l7.04348,5.89947l2.6413,9.43915z" fill="#00578c" stroke-width="0.5" stroke-linecap="round"/><path d="M270.497,39.90091c0,-2.39323 1.86548,-4.33333 4.16667,-4.33333c2.30119,0 4.16667,1.9401 4.16667,4.33333c0,2.39323 -1.86548,4.33333 -4.16667,4.33333c-2.30119,0 -4.16667,-1.9401 -4.16667,-4.33333z" fill="#d5d5d5" stroke-width="0" stroke-linecap="butt"/></g><path d="M198.16367,104.90092v-11.66667h83v11.66667z" fill="#d5d5d5" stroke-width="0" stroke-linecap="butt"/></g><path d="M217.88439,303.02408l-0.5513,-108.79384l47.201,42.76657l0.71769,66.02727z" fill="#333333" stroke="#000000" stroke-width="0" stroke-linecap="butt"/><path d="M217.5516,303.02408l-0.88408,-54.83896l48.58425,13.21307v41.62588z" fill="#1a1a1a" stroke="none" stroke-width="0" stroke-linecap="butt"/><path d="M261.50193,192.85477c0,3.50594 -2.68125,6.34807 -5.98874,6.34807c-3.30749,0 -5.98874,-2.84213 -5.98874,-6.34807c0,-3.50594 2.68125,-6.34807 5.98874,-6.34807c3.30749,0 5.98874,2.84213 5.98874,6.34807z" fill="url(#color-3)" stroke="#000000" stroke-width="1" stroke-linecap="butt"/><g stroke-linecap="butt"><path d="M258.91001,160.33426c-0.08368,3.61231 -11.60306,12.47334 -19.81383,12.31291c-8.21079,-0.16043 -19.22557,-10.63658 -19.14189,-14.24889c0.08369,-3.61231 12.34082,-1.5335 20.55158,-1.37307c8.21079,0.16043 18.48783,-0.30326 18.40414,3.30905z" fill="#000000" stroke="none" stroke-width="0"/><path d="M252.44139,158.37326c0,0 1.8428,3.35768 -12.3747,2.99092c-15.41723,0.24003 -15.03935,-4.08331 -15.03935,-4.08331z" fill="#ffffff" stroke="none" stroke-width="0"/><path d="M253.08805,164.72372c0,0 -2.2297,11.82493 -14.44124,11.45819c-10.73663,-0.32246 -12.63758,-11.55057 -12.63758,-11.55057c0,0 1.58937,1.66575 4.82105,3.22239c2.14434,1.03289 4.85553,0.84183 8.46151,0.84815c3.21746,0.00563 6.02868,0.38658 8.114,-0.48033c3.77404,-1.56893 5.68226,-3.49783 5.68226,-3.49783z" fill="#ffffff" stroke="none" stroke-width="0"/><path d="M257.4158,158.89318c0,0 -5.42078,1.76153 -8.66823,1.49713c-4.59627,-0.37422 -1.1393,-1.05034 -8.549,-1.20417c-6.37849,-0.13243 -4.37412,1.43203 -9.52197,1.41669c-5.14785,-0.01534 -8.79495,-2.78073 -8.79495,-2.78073c0,0 8.98841,-7.09967 10.62237,-6.66883c4.733,1.248 7.5549,3.71493 7.82632,3.73337c0,0 4.38278,-2.68025 7.52724,-2.96579c3.07401,-0.27914 9.55822,6.97232 9.55822,6.97232z" fill="#ffffff" stroke="#000000" stroke-width="1.25"/><path d="M245.45205,171.41744c2.39313,-1.53194 3.06991,-5.03814 5.02352,-7.70608c3.34643,-4.57005 7.09096,-3.33236 7.09096,-3.33236c0,0 -1.71808,11.58513 -5.04683,16.14406c-4.08074,5.58882 -6.92275,4.11919 -12.24986,4.22144c-6.0516,0.11616 -9.31806,1.4241 -13.18401,-2.75952c-3.86595,-4.18363 -6.21766,-18.99499 -6.21766,-18.99499c0,0 6.18325,0.14885 8.87535,4.7561c2.6921,4.60725 1.84723,6.24433 4.72174,7.72731c0,0 8.51563,1.52593 10.98679,-0.05596z" fill="#ffffff" stroke="#000000" stroke-width="1.9"/></g><path d="M242.95899,125.54711c0,0 0.1026,3.96976 0.00576,7.12662c-0.19174,6.25113 -1.08147,27.7607 -1.08147,27.7607l-2.98167,0.00864c0,0 -0.80294,-4.17274 -1.12322,-9.49979c-0.43353,-7.21063 -0.4495,-16.29321 -0.76344,-19.63229c-0.29758,-3.16513 -0.89593,-5.71453 -0.89593,-5.71453" fill="#ffffff" stroke="#000000" stroke-width="1.3" stroke-linecap="round"/></g></g></svg>