<svg version="1.1" xmlns="http://www.w3.org/2000/svg" xmlns:xlink="http://www.w3.org/1999/xlink" width="34.17311" height="34.17311" viewBox="0,0,34.17311,34.17311"><defs><linearGradient x1="225.86079" y1="181.6575" x2="232.18383" y2="181.6575" gradientUnits="userSpaceOnUse" id="color-1"><stop offset="0" stop-color="#00ff08"/><stop offset="1" stop-color="#ff0000"/></linearGradient><linearGradient x1="237.93208" y1="184.20277" x2="250.77767" y2="184.20277" gradientUnits="userSpaceOnUse" id="color-2"><stop offset="0" stop-color="#00ff08"/><stop offset="1" stop-color="#ff0000"/></linearGradient><linearGradient x1="229.8683" y1="180" x2="254.13921" y2="180" gradientUnits="userSpaceOnUse" id="color-3"><stop offset="0" stop-color="#00ff08"/><stop offset="1" stop-color="#ff0000"/></linearGradient><linearGradient x1="241.43134" y1="185.31624" x2="248.26719" y2="185.31624" gradientUnits="userSpaceOnUse" id="color-4"><stop offset="0" stop-color="#00ff08"/><stop offset="1" stop-color="#ff0000"/></linearGradient><linearGradient x1="240.42915" y1="183.38101" x2="242.10897" y2="183.38101" gradientUnits="userSpaceOnUse" id="color-5"><stop offset="0" stop-color="#00ff08"/><stop offset="1" stop-color="#ff0000"/></linearGradient><linearGradient x1="240.81702" y1="174.24287" x2="241.81702" y2="174.24287" gradientUnits="userSpaceOnUse" id="color-6"><stop offset="0" stop-color="#00ff08"/><stop offset="1" stop-color="#ff0000"/></linearGradient></defs><g transform="translate(-222.91348,-162.9135)"><g data-paper-data="{&quot;isPaintingLayer&quot;:true}" stroke-miterlimit="10" stroke-dasharray="" stroke-dashoffset="0" style="mix-blend-mode: normal"><path d="M229.98315,162.9135h20.03378c3.9166,0 7.06966,3.15307 7.06966,7.06966v20.03379c0,3.91659 -3.15306,7.06966 -7.06966,7.06966h-20.03378c-3.91659,0 -7.06967,-3.15307 -7.06967,-7.06966v-20.03379c0,-3.91659 3.15308,-7.06966 7.06967,-7.06966z" fill="#ffffff" fill-rule="evenodd" stroke="none" stroke-width="4.43922" stroke-linecap="round" stroke-linejoin="round"/><g fill-rule="nonzero" stroke="#000000" stroke-width="1" stroke-linejoin="miter"><path d="M225.86079,181.49272c0,0 0.18634,-0.53721 0.57671,-0.76248c0.75769,-0.43723 3.65303,-1.67835 3.65303,-1.67835l2.0933,1.31567l-4.71217,3.89556c0,0 -0.84869,-0.95877 -1.11747,-1.42102c-0.26818,-0.46121 -0.4934,-1.34938 -0.4934,-1.34938z" fill="url(#color-1)" stroke-linecap="butt"/><path d="M237.93208,183.70399l1.21247,-3.28983l11.63312,4.2874l-1.21247,3.28983z" fill="url(#color-2)" stroke-linecap="butt"/><path d="M229.86831,179.07366l4.42285,-5.8796c0,0 1.81933,-2.36371 5.66576,-2.50474c1.76207,-0.0646 3.8591,0.75538 6.562,1.74074c7.99233,2.91365 7.61753,9.22077 7.61753,9.22077l-2.90493,7.66343l-2.91173,-1.31825c0,0 3.67041,-4.95945 -1.40507,-7.12618c-4.78718,-2.04366 -6.45331,3.64861 -6.45331,3.64861c0,0 -3.30464,-1.39054 -4.91368,-2.21758c-1.87974,-0.96617 -5.67943,-3.2272 -5.67943,-3.2272z" fill="url(#color-3)" stroke-linecap="butt"/><path d="M241.43134,183.86465l6.83585,2.90319" fill="url(#color-4)" stroke-linecap="round"/><path d="M240.46234,184.49306c0,0 -0.1117,-0.68718 0.07472,-1.02573c0.2473,-0.44909 1.27874,-1.43215 1.27874,-1.43215l0.29317,0.51618l-1.40604,2.17548z" fill="url(#color-5)" stroke-linecap="butt"/><path d="M241.74262,174.39973c-0.10239,0.27783 -0.37595,0.43283 -0.611,0.3462c-0.23506,-0.08663 -0.3426,-0.38208 -0.2402,-0.65991c0.10239,-0.27783 0.37595,-0.43283 0.611,-0.3462c0.23506,0.08663 0.3426,0.38208 0.2402,0.65991z" fill="url(#color-6)" stroke-linecap="butt"/></g></g></g></svg>