<svg version="1.1" xmlns="http://www.w3.org/2000/svg" xmlns:xlink="http://www.w3.org/1999/xlink" width="125.51551" height="251.60135" viewBox="0,0,125.51551,251.60135"><defs><linearGradient x1="233.97196" y1="70.38749" x2="233.97196" y2="118.80945" gradientUnits="userSpaceOnUse" id="color-1"><stop offset="0" stop-color="#000000"/><stop offset="1" stop-color="#000000" stop-opacity="0"/></linearGradient></defs><g transform="translate(-180.66678,-53.22998)"><g data-paper-data="{&quot;isPaintingLayer&quot;:true}" fill-rule="nonzero" stroke-linejoin="miter" stroke-miterlimit="10" stroke-dasharray="" stroke-dashoffset="0" style="mix-blend-mode: normal"><path d="M189.57092,114.84785c0,0 6.16329,-7.54248 6.29161,-8.64514c0.33654,-2.89202 -0.16776,-51.16716 35.96775,-52.95112c44.63633,-1.16365 39.01489,45.02242 41.53088,53.7363c3.44981,11.94805 6.15664,22.16197 6.15664,22.16197c0,0 -2.76715,-2.61548 -4.0797,-3.99163c-1.2242,-1.28351 -3.80143,-4.00676 -3.80143,-4.00676c0,0 3.09111,13.18001 1.31092,26.35847c-1.5623,12.07559 -7.29782,21.93943 -7.29782,21.93943l-1.15522,-2.98974c0,0 -1.02266,2.79944 -2.16005,4.24479c-1.1374,1.44534 -3.43873,3.70984 -3.43873,3.70984l-0.09205,-4.71792c0,0 -7.0601,14.03318 -24.35066,13.8467c-16.30625,-0.32538 -26.07151,-13.59663 -26.07151,-13.59663l-0.1162,3.38138c0,0 -3.89477,-4.19387 -6.18145,-12.36415c-2.72545,-9.73802 -3.23946,-15.59379 -3.23946,-15.59379c0,0 -2.33908,2.41889 -5.71704,3.53366c-4.23278,1.39687 -6.94665,0.43975 -6.94665,0.43975c0,0 3.60795,-3.46076 5.58396,-6.07524c1.76007,-2.32877 2.64658,-4.30145 2.64658,-4.30145c0,0 -2.10758,1.38154 -4.23277,2.06073c-2.21739,0.70867 -4.03008,0.67623 -4.03008,0.67623c0,0 4.97492,-6.41581 7.03074,-13.8502c1.94102,-7.01927 2.09972,-13.95594 2.09972,-13.95594c0,0 -1.36165,0.84269 -3.33013,1.01273c-1.24776,0.10779 -2.37785,-0.06228 -2.37785,-0.06228z" fill="#000000" stroke="none" stroke-width="1.5" stroke-linecap="butt"/><path d="M256.48492,199.66503c-0.57113,0 -1.03411,-0.46299 -1.03411,-1.03411c0,-0.57113 0.46299,-1.03413 1.03411,-1.03413c0.57113,0 1.03411,0.463 1.03411,1.03413c0,0.57113 -0.46299,1.03411 -1.03411,1.03411z" fill="#000000" stroke="none" stroke-width="1.5" stroke-linecap="butt"/><path d="M251.22505,203.90062c-4.4635,-0.31439 -6.55245,-1.79392 -6.16985,-2.58011c0.11788,-0.24224 2.84645,1.06355 6.97038,1.3048c6.40897,0.37493 8.51033,-0.63173 8.51033,-0.63173v1.34616c0,0 -2.4135,1.04672 -9.31086,0.56089z" fill="#000000" stroke="#000000" stroke-width="0" stroke-linecap="butt"/><path d="M223.41229,198.63092c0,-0.57113 0.46299,-1.03413 1.03411,-1.03413c0.57113,0 1.03413,0.463 1.03413,1.03413c0,0.57113 -0.463,1.03411 -1.03413,1.03411c-0.57113,0 -1.03411,-0.46299 -1.03411,-1.03411z" fill="#000000" stroke="none" stroke-width="1.5" stroke-linecap="butt"/><path d="M229.7063,203.90062c-6.89736,0.48585 -9.31086,-0.56089 -9.31086,-0.56089v-1.34616c0,0 2.10136,1.00666 8.51033,0.63173c4.12393,-0.24126 6.85251,-1.54704 6.97039,-1.3048c0.3826,0.78618 -1.70634,2.26571 -6.16985,2.58011z" fill="#000000" stroke="#000000" stroke-width="0" stroke-linecap="butt"/><path d="M240.98675,260.45238c-0.81895,0 -1.48284,-0.66389 -1.48284,-1.48284c0,-0.81895 0.66389,-1.48284 1.48284,-1.48284c0.81895,0 1.48284,0.66389 1.48284,1.48284c0,0.81895 -0.66389,1.48284 -1.48284,1.48284z" data-paper-data="{&quot;index&quot;:null}" fill="#000000" stroke="none" stroke-width="1.5" stroke-linecap="butt"/><path d="M181.88775,302.72284c0,0 19.36464,-93.38387 19.20665,-117.01201c-0.05451,-8.15261 8.18688,-36.76129 40.20201,-36.9211c31.60235,-0.15775 39.85672,29.48704 39.84884,36.89673c-0.07659,46.24274 23.65429,117.98648 23.65429,117.98648l-33.49667,0.09614l-0.15882,-114.84311c0,0 0.07549,-3.0993 -2.81625,-3.15415c-3.43441,-0.06514 -2.94538,3.11562 -2.94538,3.11562c0,0 0.98635,8.35374 -0.11817,19.31044c-1.3307,13.20035 -4.7933,30.17886 -4.77416,40.87911c0.03339,18.66413 5.09781,54.6804 5.09781,54.6804l-48.21366,0.07222c0,0 4.90013,-35.68558 4.84962,-54.74336c-0.02806,-10.5862 -5.56853,-27.69572 -6.95807,-41.02152c-1.15018,-11.03032 1.80306,-19.46821 1.80306,-19.46821c0,0 0.27949,-2.919 -2.8856,-2.93443c-3.11083,-0.01515 -2.81569,2.90899 -2.81569,2.90899l0.35311,115.0668z" fill="#ff1919" stroke="#000000" stroke-width="2" stroke-linecap="butt"/><path d="M206.35681,112.93002c-0.57709,-7.29323 0.335,-17.15448 0.335,-17.15448c0,0 3.41059,-0.04124 13.91429,-3.14424c8.0696,-2.38394 20.54731,-9.48722 20.54731,-9.48722c0,0 -2.16005,3.00503 -3.40781,4.46015c-1.32651,1.54696 -3.99292,4.56297 -3.99292,4.56297c0,0 7.838,-1.66761 14.67476,-4.72931c8.56837,-3.53575 10.59252,-6.05309 12.95042,-4.5927c2.7829,1.72362 1.03006,23.1827 0.71846,28.74062c-0.42163,5.66922 -2.53327,9.49969 -3.15031,12.52053c-0.61704,3.02084 -0.4096,6.13662 -2.20622,16.0397c-1.12121,6.18021 -4.16183,8.92466 -10.01942,14.66081c-5.85759,5.73616 -9.05378,9.25275 -13.01359,9.32173c-3.81077,0.06639 -8.93565,-5.1002 -13.93542,-10.38244c-5.32393,-5.62474 -8.87489,-8.47713 -9.71551,-15.13975c-0.75707,-6.00039 -0.77653,-9.90853 -1.12266,-15.24835c-0.25298,-3.90273 -2.26119,-6.44504 -2.57636,-10.42801z" fill="#ffffff" stroke="#000000" stroke-width="1.5" stroke-linecap="butt"/><path d="M254.4268,95.4052c0,0 1.52429,0.31807 4.2558,1.11029c2.49492,0.72361 4.44935,1.74403 4.44935,1.74403l0.1951,1.17035c0,0 -7.24963,-3.12997 -15.1158,-2.4706c-6.2896,0.52724 -9.96319,2.8124 -9.96319,2.8124l0.04575,-4.17683c0,0 3.12748,-1.70421 7.86366,-1.85557c4.90428,-0.15672 8.09084,0.59125 8.09084,0.59125z" data-paper-data="{&quot;index&quot;:null}" fill="#000000" stroke="none" stroke-width="1.5" stroke-linecap="butt"/><g><path d="M240.99962,148.24757c0,3.55938 -5.83501,6.44482 -13.03287,6.44482c-7.19786,0 -13.03287,-2.88545 -13.03287,-6.44482c0,-3.55938 5.83501,-6.44483 13.03287,-6.44483c7.19786,0 13.03287,2.88545 13.03287,6.44483z" fill="#ffffff" stroke="none" stroke-width="NaN" stroke-linecap="butt"/><path d="M245.31439,148.56669c0,0 -6.5572,1.15086 -13.18488,0.82533c-5.09017,-0.25001 -16.11019,-3.70364 -16.11019,-3.70364" fill="none" stroke="#000000" stroke-width="0.5" stroke-linecap="round"/><path d="M238.21756,141.87575c1.60179,-0.62614 2.83971,-0.77105 4.20742,-0.43354c2.11676,0.52236 8.67252,5.70019 8.67252,5.70019c0,0 -7.01919,0.09962 -10.08441,0.50403c-1.00062,0.13202 -4.25902,0.32822 -6.8801,-0.1196c-4.10755,-0.70178 -8.03851,-2.274 -9.89966,-2.7052c-3.04878,-0.70637 -4.31918,0.87859 -6.23096,0.72228c-2.55092,-0.20856 -4.53177,-1.63706 -4.53177,-1.63706c0,0 2.08787,-1.67153 3.19126,-2.95748c1.17988,-1.3751 2.23922,-3.17467 5.04552,-3.2425c3.88431,-0.0939 8.31594,3.12645 10.8217,3.98125c2.6849,0.91591 4.11311,2.44022 4.34706,2.46366c0,0 -0.316,-1.62814 1.34142,-2.27603z" fill="#ffffff" stroke="#000000" stroke-width="1.25" stroke-linecap="butt"/><path d="M229.59123,161.55892c-17.51543,-0.92487 -16.20819,-17.05011 -16.20819,-17.05011c0,0 2.67628,1.43774 4.12178,2.7418c1.95619,1.76477 2.42037,5.04759 6.05924,5.66629c3.34483,0.5687 7.08513,-2.54675 10.43884,-3.33014c1.61966,-0.37834 4.27097,-0.58587 6.81455,-0.84716c2.45826,-0.25252 4.82532,-0.56468 5.52902,-0.59556c2.6288,-0.11535 5.60768,0.08972 5.60768,0.08972c0,0 -4.82875,14.25103 -22.36291,13.32517z" fill="#ffffff" stroke="#000000" stroke-width="1.9" stroke-linecap="butt"/></g><path d="M233.98896,142.35711c-1.03376,0 -3.5381,-3.26042 -3.7867,-5.3637c-0.22243,-1.88186 1.31512,-3.82799 3.7867,-3.82799c2.47159,0 4.2021,0.49077 4.02999,4.18853c-0.14607,3.13818 -1.55841,5.00317 -4.02999,5.00317z" fill="#ffffff" stroke="#000000" stroke-width="1.15" stroke-linecap="butt"/><path d="M237.59105,112.26339c0,0 0.1026,3.96976 0.00576,7.12662c-0.19174,6.25113 -1.08147,27.7607 -1.08147,27.7607l-2.98167,0.00864c0,0 -0.80294,-4.17274 -1.12322,-9.49979c-0.43353,-7.21063 -0.4495,-16.29321 -0.76344,-19.63229c-0.29758,-3.16513 -0.89593,-5.71453 -0.89593,-5.71453" fill="#ffffff" stroke="#000000" stroke-width="1.3" stroke-linecap="round"/><path d="M208.05646,123.05323c0,0 -4.93211,-3.51705 -6.16417,-8.97502c-1.29636,-5.74284 -1.46118,-9.7328 0.48013,-9.99193c1.94131,-0.25915 2.70321,2.37692 3.73262,8.35569c1.0294,5.97877 1.95143,10.61127 1.95143,10.61127z" data-paper-data="{&quot;index&quot;:null}" fill="#ffffff" stroke="#000000" stroke-width="1" stroke-linecap="butt"/><path d="M207.85386,119.10567c0,0 -3.56385,-2.92338 -4.31816,-8.45061c-0.42079,-3.08327 2.15675,-2.28016 2.15675,-2.28016" fill="#000000" stroke="#000000" stroke-width="0.25" stroke-linecap="round"/><path d="M210.86727,112.44977c0.07093,-4.89188 4.83834,-8.93609 10.21137,-8.8582c5.37302,0.0779 9.02724,4.2484 8.95632,9.14029c-0.07093,4.89188 -4.12352,8.79439 -9.49655,8.7165c-5.37302,-0.0779 -9.74207,-4.1067 -9.67114,-8.99859z" fill="#000000" stroke="#000000" stroke-width="1.4" stroke-linecap="butt"/><path d="M215.30492,112.56771c0.03999,-2.75843 2.30855,-4.96213 5.06696,-4.92214c2.75843,0.03999 4.96213,2.30855 4.92214,5.06696c-0.03999,2.75843 -2.30854,4.96213 -5.06696,4.92214c-2.75843,-0.03999 -4.96213,-2.30855 -4.92214,-5.06696z" fill="#cc1414" stroke="none" stroke-width="1.5" stroke-linecap="butt"/><path d="M237.92356,112.4505c0.20353,-4.88817 4.45264,-8.85847 9.77048,-8.85847c5.31783,0 9.27453,3.96607 9.27453,8.85847c0,4.8924 -3.88585,9.07104 -9.69964,9.14188c-5.52997,0.06739 -9.55792,-4.03692 -9.34537,-9.14188z" fill="#000000" stroke="#000000" stroke-width="1.4" stroke-linecap="butt"/><path d="M242.5263,112.53605c0,-2.81845 2.2848,-5.10325 5.10325,-5.10325c2.81845,0 5.10325,2.2848 5.10325,5.10325c0,2.81845 -2.28479,5.10325 -5.10325,5.10325c-2.81845,0 -5.10325,-2.2848 -5.10325,-5.10325z" fill="#cc1414" stroke="none" stroke-width="1.5" stroke-linecap="butt"/><path d="M214.72943,98.29926c0,0 3.36963,-1.819 8.03244,-2.28178c5.16698,-0.51283 7.76823,-0.06628 7.76823,-0.06628l0.29508,4.13747c0,0 -3.83554,-0.68065 -8.01795,-0.52113c-5.59346,0.21333 -6.64488,1.43293 -10.89774,1.89119c-3.64408,0.39266 -6.73723,0.15884 -6.73723,0.15884l-0.02589,-1.23155c0,0 3.59517,0.07398 5.23371,-0.06836c1.35239,-0.11749 3.9757,-0.93808 3.9757,-0.93808z" fill="#000000" stroke="none" stroke-width="1.5" stroke-linecap="butt"/><path d="M262.28962,112.44197c1.0294,-5.97877 1.7913,-8.61483 3.73262,-8.35569c1.94131,0.25914 1.77649,4.24909 0.48013,9.99193c-1.23206,5.45797 -6.16417,8.97502 -6.16417,8.97502c0,0 0.92203,-4.6325 1.95143,-10.61127z" data-paper-data="{&quot;index&quot;:null}" fill="#ffffff" stroke="#000000" stroke-width="1" stroke-linecap="butt"/><path d="M262.70216,108.37491c0,0 2.57754,-0.80312 2.15675,2.28016c-0.75431,5.52723 -4.31816,8.45061 -4.31816,8.45061" data-paper-data="{&quot;index&quot;:null}" fill="#000000" stroke="#000000" stroke-width="0.25" stroke-linecap="round"/><path d="M199.38485,118.80945l4.94102,-45.45735l58.30399,-1.97641l5.92922,47.43376z" fill="url(#color-1)" stroke="none" stroke-width="0" stroke-linecap="butt"/><path d="M227.22761,195.02451c0,-1.38071 1.11929,-2.5 2.5,-2.5c1.38071,0 2.5,1.11929 2.5,2.5c0,1.38071 -1.11929,2.5 -2.5,2.5c-1.38071,0 -2.5,-1.11929 -2.5,-2.5z" fill="#d20000" stroke="none" stroke-width="0.5" stroke-linecap="butt"/><path d="M244.02706,180.20146c0,-1.38071 1.11929,-2.5 2.5,-2.5c1.38071,0 2.5,1.11929 2.5,2.5c0,1.38071 -1.11929,2.5 -2.5,2.5c-1.38071,0 -2.5,-1.11929 -2.5,-2.5z" fill="#d20000" stroke="none" stroke-width="0.5" stroke-linecap="butt"/><path d="M241.06245,214.78857c0,-1.38071 1.11929,-2.5 2.5,-2.5c1.38071,0 2.5,1.11929 2.5,2.5c0,1.38071 -1.11929,2.5 -2.5,2.5c-1.38071,0 -2.5,-1.11929 -2.5,-2.5z" fill="#d20000" stroke="none" stroke-width="0.5" stroke-linecap="butt"/><path d="M230.19222,231.58803c0,-1.38071 1.11929,-2.5 2.5,-2.5c1.38071,0 2.5,1.11929 2.5,2.5c0,1.38071 -1.11929,2.5 -2.5,2.5c-1.38071,0 -2.5,-1.11929 -2.5,-2.5z" fill="#d20000" stroke="none" stroke-width="0.5" stroke-linecap="butt"/><path d="M239.08604,256.29311c0,-1.38071 1.11929,-2.5 2.5,-2.5c1.38071,0 2.5,1.11929 2.5,2.5c0,1.38071 -1.11929,2.5 -2.5,2.5c-1.38071,0 -2.5,-1.11929 -2.5,-2.5z" fill="#d20000" stroke="none" stroke-width="0.5" stroke-linecap="butt"/><path d="M277.62597,225.65881c0,-1.38071 1.11929,-2.5 2.5,-2.5c1.38071,0 2.5,1.11929 2.5,2.5c0,1.38071 -1.11929,2.5 -2.5,2.5c-1.38071,0 -2.5,-1.11929 -2.5,-2.5z" fill="#d20000" stroke="none" stroke-width="0.5" stroke-linecap="butt"/><path d="M279.60238,289.89202c0,-1.38071 1.11929,-2.5 2.5,-2.5c1.38071,0 2.5,1.11929 2.5,2.5c0,1.38071 -1.11929,2.5 -2.5,2.5c-1.38071,0 -2.5,-1.11929 -2.5,-2.5z" fill="#d20000" stroke="none" stroke-width="0.5" stroke-linecap="butt"/><path d="M211.41635,175.26044c0,-1.38071 1.11929,-2.5 2.5,-2.5c1.38071,0 2.5,1.11929 2.5,2.5c0,1.38071 -1.11929,2.5 -2.5,2.5c-1.38071,0 -2.5,-1.11929 -2.5,-2.5z" fill="#d20000" stroke="none" stroke-width="0.5" stroke-linecap="butt"/><path d="M197.58151,252.3403c0,-1.38071 1.11929,-2.5 2.5,-2.5c1.38071,0 2.5,1.11929 2.5,2.5c0,1.38071 -1.11929,2.5 -2.5,2.5c-1.38071,0 -2.5,-1.11929 -2.5,-2.5z" fill="#d20000" stroke="none" stroke-width="0.5" stroke-linecap="butt"/><path d="M267.74394,170.31943c0,-1.38071 1.11929,-2.5 2.5,-2.5c1.38071,0 2.5,1.11929 2.5,2.5c0,1.38071 -1.11929,2.5 -2.5,2.5c-1.38071,0 -2.5,-1.11929 -2.5,-2.5z" fill="#d20000" stroke="none" stroke-width="0.5" stroke-linecap="butt"/></g></g></svg>