<svg version="1.1" xmlns="http://www.w3.org/2000/svg" xmlns:xlink="http://www.w3.org/1999/xlink" width="169.86936" height="294.86572" viewBox="0,0,169.86936,294.86572"><defs><linearGradient x1="240.41498" y1="135.93214" x2="240.41498" y2="167.39516" gradientUnits="userSpaceOnUse" id="color-1"><stop offset="0" stop-color="#a25656"/><stop offset="1" stop-color="#790000"/></linearGradient><linearGradient x1="240.96934" y1="-27.48602" x2="240.96934" y2="52.16021" gradientUnits="userSpaceOnUse" id="color-2"><stop offset="0" stop-color="#a25656"/><stop offset="1" stop-color="#790000"/></linearGradient><linearGradient x1="239.45609" y1="36.32586" x2="239.45609" y2="79.9368" gradientUnits="userSpaceOnUse" id="color-3"><stop offset="0" stop-color="#ff8888"/><stop offset="1" stop-color="#790000"/></linearGradient><linearGradient x1="239.8661" y1="58.97116" x2="239.8661" y2="151.32833" gradientUnits="userSpaceOnUse" id="color-4"><stop offset="0" stop-color="#ff8888"/><stop offset="1" stop-color="#790000"/></linearGradient><linearGradient x1="240.00786" y1="100.14419" x2="240.00786" y2="115.92413" gradientUnits="userSpaceOnUse" id="color-5"><stop offset="0" stop-color="#ff8888"/><stop offset="1" stop-color="#790000"/></linearGradient><linearGradient x1="241.21943" y1="169.1255" x2="229.15572" y2="248.55247" gradientUnits="userSpaceOnUse" id="color-6"><stop offset="0" stop-color="#7d0000"/><stop offset="1" stop-color="#a58f8f"/></linearGradient><radialGradient cx="231.67555" cy="230.50583" r="29.40529" gradientUnits="userSpaceOnUse" id="color-7"><stop offset="0" stop-color="#ffffff"/><stop offset="1" stop-color="#ffb4b4"/></radialGradient><radialGradient cx="236.83329" cy="202.04821" r="26.14846" gradientUnits="userSpaceOnUse" id="color-8"><stop offset="0" stop-color="#ffffff"/><stop offset="1" stop-color="#ffb4b4"/></radialGradient></defs><g transform="translate(-150.4748,40.57056)"><g data-paper-data="{&quot;isPaintingLayer&quot;:true}" fill-rule="nonzero" stroke-linejoin="miter" stroke-miterlimit="10" stroke-dasharray="" stroke-dashoffset="0" style="mix-blend-mode: normal"><path d="M224.68345,151.66366c0,-8.68828 7.04324,-15.73152 15.73152,-15.73152c8.68828,0 15.73152,7.04324 15.73152,15.73152c0,8.68828 -7.04324,15.73152 -15.73152,15.73152c-8.68828,0 -15.73152,-7.04324 -15.73152,-15.73152z" fill="url(#color-1)" stroke="none" stroke-width="0.5" stroke-linecap="butt"/><path d="M227.42617,52.16021v-79.64623h27.08635v79.64623z" fill="url(#color-2)" stroke="#7d7d7d" stroke-width="0" stroke-linecap="butt"/><path d="M204.7959,79.9368v-43.61092h69.32042v43.61092z" fill="url(#color-3)" stroke="none" stroke-width="0" stroke-linecap="butt"/><path d="M215.07966,90.41104v-1.33309h0.19044v1.33309z" fill="#7d7d7d" stroke="none" stroke-width="0" stroke-linecap="butt"/><path d="M285.3146,105.14974c0,25.50373 -20.34798,46.17859 -45.44849,46.17859c-25.10051,0 -45.44849,-20.67486 -45.44849,-46.17859c0,-25.50373 20.34798,-46.17858 45.44849,-46.17858c25.10051,0 45.44849,20.67485 45.44849,46.17858z" fill="url(#color-4)" stroke="none" stroke-width="NaN" stroke-linecap="butt"/><path d="M187.87231,37.8505h2.56607" fill="none" stroke="#7d7d7d" stroke-width="0.5" stroke-linecap="round"/><path d="M189.22014,-33.75865l26.51612,72.70548" fill="none" stroke="#000000" stroke-width="4.5" stroke-linecap="round"/><path d="M207.75289,41.51291l-55.02808,-79.83347" fill="none" stroke="#000000" stroke-width="4.5" stroke-linecap="round"/><path d="M281.88396,-37.46524l-14.82622,75.84181" fill="none" stroke="#000000" stroke-width="4.5" stroke-linecap="round"/><path d="M318.09416,-33.47354l-46.18937,75.8418" fill="none" stroke="#000000" stroke-width="4.5" stroke-linecap="round"/><path d="M268.52572,105.54961c0,0 -12.39177,13.79231 -27.67779,13.79231c-15.28602,0 -27.67778,-13.7923 -27.67778,-13.7923c0,0 12.39176,-13.7923 27.67779,-13.7923c15.28602,0 27.67779,13.7923 27.67779,13.7923z" fill="#7f7f7f" stroke="none" stroke-width="0" stroke-linecap="butt"/><path d="M248.81364,108.03416c0,4.35752 -3.94248,7.88997 -8.80577,7.88997c-4.86329,0 -8.80578,-3.53246 -8.80578,-7.88997c0,-4.35752 3.94248,-7.88997 8.80578,-7.88997c4.86329,0 8.80577,3.53246 8.80577,7.88997z" fill="url(#color-5)" stroke="#000000" stroke-width="2" stroke-linecap="butt"/><path d="M243.78068,108.13763c0,1.82199 -1.64846,3.299 -3.68193,3.299c-2.03347,0 -3.68192,-1.47701 -3.68192,-3.299c0,-1.82199 1.64845,-3.299 3.68192,-3.299c2.03347,0 3.68193,1.47701 3.68193,3.299z" fill="#8c8c8c" stroke="#000000" stroke-width="2" stroke-linecap="butt"/><path d="M242.53602,79.86832c-0.51674,1.28037 -0.94973,1.80205 -2.32966,1.7557c-2.075,-0.0697 -2.42218,-2.25111 -2.30695,-3.627c0.12062,-1.44024 0.93923,-17.9791 2.2196,-17.46236c1.28036,0.51675 2.93376,18.0533 2.41701,19.33366z" data-paper-data="{&quot;index&quot;:null}" fill="#2d2d2d" stroke="none" stroke-width="0.5" stroke-linecap="butt"/><path d="M252.49969,81.28495c-0.9081,1.04005 -1.48824,1.39087 -2.77663,0.89448c-1.93735,-0.74641 -1.54986,-2.92103 -0.98973,-4.18302c0.58632,-1.32101 6.78417,-16.67648 7.82422,-15.76838c1.04005,0.9081 -3.14976,18.01686 -4.05786,19.05692z" data-paper-data="{&quot;index&quot;:null}" fill="#2d2d2d" stroke="none" stroke-width="0.5" stroke-linecap="butt"/><path d="M224.10955,63.24108c1.04005,-0.9081 7.2379,14.44737 7.82422,15.76838c0.56013,1.26199 0.94762,3.43661 -0.98973,4.18302c-1.2884,0.49639 -1.86853,0.14557 -2.77663,-0.89448c-0.9081,-1.04005 -5.09792,-18.14882 -4.05786,-19.05692z" data-paper-data="{&quot;index&quot;:null}" fill="#2d2d2d" stroke="none" stroke-width="0.5" stroke-linecap="butt"/><path d="M237.03012,86.75527c0,-1.89187 1.53367,-3.42554 3.42555,-3.42554c1.89187,0 3.42554,1.53367 3.42554,3.42554c0,1.89187 -1.53367,3.42554 -3.42554,3.42554c-1.89187,0 -3.42555,-1.53367 -3.42555,-3.42554z" fill="#2d2d2d" stroke="none" stroke-width="0.5" stroke-linecap="butt"/><path d="M245.7323,86.91395c0,-1.89187 1.53368,-3.42554 3.42555,-3.42554c1.89187,0 3.42554,1.53367 3.42554,3.42554c0,1.89187 -1.53367,3.42554 -3.42554,3.42554c-1.89187,0 -3.42555,-1.53367 -3.42555,-3.42554z" fill="#2d2d2d" stroke="none" stroke-width="0.5" stroke-linecap="butt"/><path d="M228.09201,87.4998c0,-1.89187 1.53368,-3.42554 3.42555,-3.42554c1.89187,0 3.42554,1.53367 3.42554,3.42554c0,1.89187 -1.53367,3.42554 -3.42554,3.42554c-1.89187,0 -3.42555,-1.53367 -3.42555,-3.42554z" fill="#2d2d2d" stroke="none" stroke-width="0.5" stroke-linecap="butt"/><path d="M249.35867,167.51814c0,4.65191 -4.2021,8.42303 -9.38566,8.42303c-5.18356,0 -9.38566,-3.77112 -9.38566,-8.42303c0,-4.65191 4.2021,-8.42303 9.38566,-8.42303c5.18356,0 9.38566,3.77112 9.38566,8.42303z" fill="#ff0000" stroke="#3a0000" stroke-width="2.5" stroke-linecap="butt"/><path d="M261.95848,141.19233l0.09072,0.81649" fill="none" stroke="none" stroke-width="0" stroke-linecap="round"/><path d="M266.96519,254.29513l-75.5607,-11.86872c0,0 3.96011,-1.63151 5.95376,-5.94509c5.79356,-12.53529 15.4101,-40.04664 23.57965,-55.6634c3.81166,-7.2863 13.31423,-12.30975 22.20576,-11.38689c8.96547,0.93055 19.2253,12.66086 19.60988,20.97753c0.81184,17.55695 -0.42176,42.53478 0.16871,55.41928c0.25076,5.4717 4.04294,8.46732 4.04294,8.46732z" fill="url(#color-6)" stroke="none" stroke-width="0" stroke-linecap="butt"/><path d="M204.61422,218.63626l3.52133,-9.08087c0,0 -0.70235,14.66256 3.1421,15.45067c2.52508,0.51763 5.82375,-6.53001 11.38921,-5.80239c3.94675,0.51597 7.57687,8.42089 9.83826,8.23388c2.00975,-0.1662 7.72265,-6.65726 12.90161,-5.76698c2.71014,0.4659 9.7276,8.78695 10.59784,8.65378c2.71798,-0.41588 7.0154,-12.97067 7.0154,-12.97067l-0.3909,10.96221c0,0 -3.44148,8.3903 -7.37045,7.8448c-1.99088,-0.27641 -6.07411,-8.15111 -11.38066,-8.95143c-4.7343,-0.71402 -9.46743,5.81708 -12.31877,5.62822c-4.60468,-0.30497 -6.67674,-7.75431 -9.87155,-7.90654c-5.54842,-0.2644 -9.63499,6.67257 -12.18086,6.18785c-4.00133,-0.76183 -4.89257,-12.48254 -4.89257,-12.48254z" fill="url(#color-7)" stroke="none" stroke-width="0.5" stroke-linecap="butt"/><path d="M215.88522,190.96374l47.16198,7.23235l-0.15534,12.71627l-51.57772,-8.68407z" fill="url(#color-8)" stroke="none" stroke-width="0.5" stroke-linecap="butt"/></g></g></svg>