<svg version="1.1" xmlns="http://www.w3.org/2000/svg" xmlns:xlink="http://www.w3.org/1999/xlink" width="34.17311" height="34.17311" viewBox="0,0,34.17311,34.17311"><defs><linearGradient x1="224.8028" y1="179.89393" x2="255.27399" y2="179.89393" gradientUnits="userSpaceOnUse" id="color-1"><stop offset="0" stop-color="#07ff00"/><stop offset="1" stop-color="#ff0000"/></linearGradient><linearGradient x1="236.14989" y1="178.73994" x2="237.65351" y2="178.73994" gradientUnits="userSpaceOnUse" id="color-2"><stop offset="0" stop-color="#07ff00"/><stop offset="1" stop-color="#ff0000"/></linearGradient><linearGradient x1="246.3779" y1="182.78725" x2="247.88152" y2="182.78725" gradientUnits="userSpaceOnUse" id="color-3"><stop offset="0" stop-color="#07ff00"/><stop offset="1" stop-color="#ff0000"/></linearGradient><linearGradient x1="241.7582" y1="181.14122" x2="243.26182" y2="181.14122" gradientUnits="userSpaceOnUse" id="color-4"><stop offset="0" stop-color="#07ff00"/><stop offset="1" stop-color="#ff0000"/></linearGradient><linearGradient x1="232.37604" y1="177.31592" x2="233.87966" y2="177.31592" gradientUnits="userSpaceOnUse" id="color-5"><stop offset="0" stop-color="#07ff00"/><stop offset="1" stop-color="#ff0000"/></linearGradient><linearGradient x1="230.11584" y1="176.38012" x2="231.11584" y2="176.38012" gradientUnits="userSpaceOnUse" id="color-6"><stop offset="0" stop-color="#07ff00"/><stop offset="1" stop-color="#ff0000"/></linearGradient><linearGradient x1="250.70081" y1="184.17883" x2="252.20443" y2="184.17883" gradientUnits="userSpaceOnUse" id="color-7"><stop offset="0" stop-color="#07ff00"/><stop offset="1" stop-color="#ff0000"/></linearGradient></defs><g transform="translate(-222.91348,-162.9135)"><g data-paper-data="{&quot;isPaintingLayer&quot;:true}" stroke-miterlimit="10" stroke-dasharray="" stroke-dashoffset="0" style="mix-blend-mode: normal"><path d="M229.98315,162.9135h20.03378c3.9166,0 7.06966,3.15307 7.06966,7.06966v20.03379c0,3.91659 -3.15306,7.06966 -7.06966,7.06966h-20.03378c-3.91659,0 -7.06967,-3.15307 -7.06967,-7.06966v-20.03379c0,-3.91659 3.15308,-7.06966 7.06967,-7.06966z" fill="#ffffff" fill-rule="evenodd" stroke="none" stroke-width="4.43922" stroke-linecap="round" stroke-linejoin="round"/><g fill-rule="nonzero" stroke="#000000" stroke-width="1" stroke-linejoin="miter"><path d="M224.8028,178.59163l2.85611,-7.67366l27.61508,10.27826l-2.85611,7.67366z" fill="url(#color-1)" stroke-linecap="butt"/><path d="M236.14989,182.74185l1.50362,-8.00382" fill="url(#color-2)" stroke-linecap="round"/><path d="M247.88152,178.78534l-1.50362,8.00382" fill="url(#color-3)" stroke-linecap="round"/><path d="M243.26182,177.13931l-1.50362,8.00382" fill="url(#color-4)" stroke-linecap="round"/><path d="M233.87966,173.31401l-1.50362,8.00382" fill="url(#color-5)" stroke-linecap="round"/><path d="M230.72531,172.13913l-0.21894,8.48197" fill="url(#color-6)" stroke-linecap="round"/><path d="M252.20443,180.17692l-1.50362,8.00382" fill="url(#color-7)" stroke-linecap="round"/></g></g></g></svg>