<svg version="1.1" xmlns="http://www.w3.org/2000/svg" xmlns:xlink="http://www.w3.org/1999/xlink" width="35.67311" height="35.67311" viewBox="0,0,35.67311,35.67311"><defs><linearGradient x1="240.00003" y1="162.91346" x2="240.00003" y2="197.08655" gradientUnits="userSpaceOnUse" id="color-1"><stop offset="0" stop-color="#00e306"/><stop offset="1" stop-color="#6b8672"/></linearGradient><linearGradient x1="240.00002" y1="162.91346" x2="240.00002" y2="197.08658" gradientUnits="userSpaceOnUse" id="color-2"><stop offset="0" stop-color="#ffffff"/><stop offset="1" stop-color="#000000"/></linearGradient></defs><g transform="translate(-222.16347,-162.16346)"><g data-paper-data="{&quot;isPaintingLayer&quot;:true}" stroke-miterlimit="10" stroke-dasharray="" stroke-dashoffset="0" style="mix-blend-mode: normal"><path d="M229.98313,162.91346h20.03379c3.9166,0 7.06966,3.15307 7.06966,7.06966v20.03379c0,3.91659 -3.15306,7.06966 -7.06966,7.06966h-20.03379c-3.91659,0 -7.06966,-3.15307 -7.06966,-7.06966v-20.03379c0,-3.91659 3.15307,-7.06966 7.06966,-7.06966z" fill="url(#color-1)" fill-rule="evenodd" stroke="url(#color-2)" stroke-width="1.5" stroke-linecap="round" stroke-linejoin="round"/><g fill="#000000" fill-rule="nonzero" stroke="#ffffff" stroke-width="1" stroke-linecap="butt" stroke-linejoin="miter"><path d="M228.30911,187.7688c0,0 5.54386,-7.39085 6.35052,-11.8648c0.72445,-4.01802 -1.10564,-11.88341 -1.10564,-11.88341c0,0 3.03573,8.73122 4.87677,10.35206c2.08052,1.83169 11.12954,-3.6353 11.12954,-3.6353c0,0 -7.71942,5.34462 -9.8055,8.36144c-2.55896,3.70068 -4.42148,12.21317 -4.42148,12.21317z"/><path d="M236.97207,190.42964c0,0 9.80801,-0.81038 11.41954,-4.00517c0.37634,-0.74609 -4.55837,-3.35815 -5.25902,-4.59382c-1.35855,-2.39596 0.70617,-3.56201 0.70617,-3.56201l8.95239,4.51579c0,0 -2.31009,6.5273 -3.75275,8.40698c-0.88315,1.15068 -4.08186,1.80096 -4.08186,1.80096c0,0 -0.91698,-0.9727 -1.78793,-1.25224c-1.46625,-0.47061 -6.19654,-1.31049 -6.19654,-1.31049z"/></g></g></g></svg>