<svg version="1.1" xmlns="http://www.w3.org/2000/svg" xmlns:xlink="http://www.w3.org/1999/xlink" width="144.19147" height="253.22501" viewBox="0,0,144.19147,253.22501"><defs><linearGradient x1="239.25128" y1="147.45763" x2="239.25128" y2="302.49835" gradientUnits="userSpaceOnUse" id="color-1"><stop offset="0" stop-color="#f7dfaf"/><stop offset="1" stop-color="#f7aa11"/></linearGradient><linearGradient x1="228.59093" y1="68.75054" x2="228.59093" y2="165.77911" gradientUnits="userSpaceOnUse" id="color-2"><stop offset="0" stop-color="#f7dfaf"/><stop offset="1" stop-color="#f7aa11"/></linearGradient></defs><g transform="translate(-167.15839,-53.38749)"><g data-paper-data="{&quot;isPaintingLayer&quot;:true}" fill-rule="nonzero" stroke-linejoin="miter" stroke-miterlimit="10" stroke-dasharray="" stroke-dashoffset="0" style="mix-blend-mode: normal"><g stroke="#000000" stroke-width="2"><path d="M168.21206,302.39158c0,0 8.06529,-154.52609 69.74199,-154.93311c63.35795,-0.41811 72.33646,154.88321 72.33646,154.88321l-42.33,0.09614l-0.15882,-114.84311c0,0 0.07549,-3.0993 -2.81625,-3.15415c-3.43441,-0.06514 -2.94538,3.11562 -2.94538,3.11562l0.20548,114.86995l-48.21366,0.07222l-0.30539,-115.23309c0,0 0.27949,-2.919 -2.8856,-2.93443c-3.11083,-0.01515 -2.81569,2.90899 -2.81569,2.90899l0.35311,115.0668z" fill="url(#color-1)" stroke-linecap="butt"/><path d="M214.1795,302.73213v-25.69858h48.26318v25.69858z" fill="none" stroke-linecap="butt"/><path d="M214.53083,276.39345v-24.19746h25.86625v24.19746z" fill="none" stroke-linecap="butt"/><path d="M240.11895,276.39345v-24.75372h20.58175v24.75372z" fill="none" stroke-linecap="butt"/><path d="M213.4183,251.91786v-29.76009h48.11678v29.76009z" fill="none" stroke-linecap="butt"/><path d="M214.2527,221.87964v-22.8068h23.08493v22.8068z" fill="none" stroke-linecap="butt"/><path d="M236.50324,221.60151v-22.8068h24.75372v22.8068z" fill="none" stroke-linecap="butt"/><path d="M207.33235,282.09703l-36.21766,-1.15588" fill="none" stroke-linecap="round"/><path d="M207.33234,255.89703l-33.5206,-1.92647" fill="none" stroke-linecap="round"/><path d="M181.13234,222.37643l26.5853,1.92647" fill="none" stroke-linecap="round"/><path d="M208.10294,185.77347l-16.95295,6.16471" fill="none" stroke-linecap="round"/><path d="M200.78234,223.9176l-4.62353,-2.69706l2.69706,-31.20883" fill="none" stroke-linecap="round"/><path d="M179.59116,279.78527l1.54118,-25.81471" fill="none" stroke-linecap="round"/><path d="M201.93822,282.09703v18.49412" fill="none" stroke-linecap="round"/><path d="M267.43824,185.77348l18.49412,5.39412" fill="none" stroke-linecap="round"/><path d="M268.59412,218.52349l26.5853,-1.15588" fill="none" stroke-linecap="round"/><path d="M302.88532,249.34703l-34.29119,0.38529" fill="none" stroke-linecap="round"/><path d="M306.73825,274.00586l-38.14413,2.69706" fill="none" stroke-linecap="round"/><path d="M302.88531,301.36175l-3.08235,-27.74119" fill="none" stroke-linecap="round"/><path d="M279.76766,250.50291l-0.38529,24.65883" fill="none" stroke-linecap="round"/><path d="M287.85884,217.3676l4.62353,30.82354" fill="none" stroke-linecap="round"/><path d="M273.21765,188.85583l1.15588,29.66766" fill="none" stroke-linecap="round"/><path d="M190.37939,255.51173l-0.38529,-33.1353" fill="none" stroke-linecap="round"/><path d="M226.98235,252.42938l-4.62353,-2.69706l-1.15588,-27.74119" fill="none" stroke-linecap="round"/><path d="M251.25589,252.04408l0.38529,-30.05295" fill="none" stroke-linecap="round"/><path d="M223.12941,301.36175l1.15588,-25.04413" fill="none" stroke-linecap="round"/><path d="M253.95295,301.74704l0.38529,-24.27354" fill="none" stroke-linecap="round"/><path d="M226.21176,168.82053l-13.87059,14.25589l-7.70588,-15.41177" fill="none" stroke-linecap="round"/><path d="M273.60294,169.20582l-11.17353,14.64118l-11.94412,-15.79706" fill="none" stroke-linecap="round"/><path d="M218.50588,176.14112l37.37354,0.38529" fill="none" stroke-linecap="round"/><path d="M220.43235,197.3323l3.46765,-19.26471" fill="none" stroke-linecap="round"/><path d="M253.95295,196.94701l-5.00883,-20.80589" fill="none" stroke-linecap="round"/></g><path d="M194.40898,306.6125v-253.22501h91.18203v253.22501z" fill-opacity="0.01" fill="#000000" stroke="none" stroke-width="0" stroke-linecap="butt"/><path d="M178.53675,104.30715h0.00001c0,0.00001 -0.00001,0.00001 -0.00001,0.00001z" fill="#000000" stroke="none" stroke-width="1.5" stroke-linecap="butt"/><path d="M170.34093,165.27911l57.6506,-96.52857l58.8494,97.02857z" fill="url(#color-2)" stroke="#000000" stroke-width="2" stroke-linecap="butt"/><path d="M260.49101,129.40639c0,0 -14.7789,13.81014 -33.0096,13.81014c-18.2307,0 -33.0096,-13.81014 -33.0096,-13.81014c0,0 14.7789,-13.81014 33.0096,-13.81014c18.2307,0 33.0096,13.81014 33.0096,13.81014z" fill="#000000" stroke="#000000" stroke-width="0" stroke-linecap="butt"/><path d="M209.9955,129.40639c0,-4.46466 3.61933,-8.08398 8.08399,-8.08398c4.46466,0 8.08398,3.61932 8.08398,8.08398c0,4.46466 -3.61932,8.08399 -8.08398,8.08399c-4.46466,0 -8.08399,-3.61933 -8.08399,-8.08399z" fill="#ffffff" stroke="#000000" stroke-width="0" stroke-linecap="butt"/><path d="M195.72619,121.30158l62.80296,-1.54118" fill="none" stroke="#000000" stroke-width="2" stroke-linecap="round"/><path d="M250.82327,107.04569h-45.46472" fill="none" stroke="#000000" stroke-width="2" stroke-linecap="round"/><path d="M242.73209,94.33098l-30.05295,-0.38529" fill="none" stroke="#000000" stroke-width="2" stroke-linecap="round"/><path d="M234.25562,81.61627l-12.32942,-0.38529" fill="none" stroke="#000000" stroke-width="2" stroke-linecap="round"/><path d="M247.35562,138.63982l1.54118,-5.77941" fill="none" stroke="#000000" stroke-width="2" stroke-linecap="round"/><path d="M263.15269,139.02511l-1.92647,-14.25589" fill="none" stroke="#000000" stroke-width="2" stroke-linecap="round"/><path d="M250.43798,119.37511l-2.31177,-12.32942" fill="none" stroke="#000000" stroke-width="2" stroke-linecap="round"/><path d="M226.54973,107.04569l0.38529,9.24706" fill="none" stroke="#000000" stroke-width="2" stroke-linecap="round"/><path d="M209.98208,107.04569l-1.15588,12.32942" fill="none" stroke="#000000" stroke-width="2" stroke-linecap="round"/><path d="M218.45855,94.33098v12.32942" fill="none" stroke="#000000" stroke-width="2" stroke-linecap="round"/><path d="M238.10856,105.11922l-0.38529,-10.40294" fill="none" stroke="#000000" stroke-width="2" stroke-linecap="round"/><path d="M229.2468,92.7898l-1.54118,-10.40294" fill="none" stroke="#000000" stroke-width="2" stroke-linecap="round"/><path d="M178.38795,152.12512l100.1765,0.77059" fill="none" stroke="#000000" stroke-width="2" stroke-linecap="round"/><path d="M270.08798,140.56629l-85.15003,0.77059" fill="none" stroke="#000000" stroke-width="2" stroke-linecap="round"/><path d="M184.55266,164.83983l0.77059,-12.32942" fill="none" stroke="#000000" stroke-width="2" stroke-linecap="round"/><path d="M213.44973,151.79178v12.32942" fill="none" stroke="#000000" stroke-width="2" stroke-linecap="round"/><path d="M238.87915,163.7359l0.38529,-11.55883" fill="none" stroke="#000000" stroke-width="2" stroke-linecap="round"/><path d="M267.00562,163.7359l-0.38529,-11.17353" fill="none" stroke="#000000" stroke-width="2" stroke-linecap="round"/><path d="M253.52033,140.61824l-0.38529,10.40294" fill="none" stroke="#000000" stroke-width="2" stroke-linecap="round"/><path d="M227.32032,151.02119v-8.86177" fill="none" stroke="#000000" stroke-width="2" stroke-linecap="round"/><path d="M198.03796,140.61824l0.38529,13.1" fill="none" stroke="#000000" stroke-width="2" stroke-linecap="round"/><path d="M205.35855,140.61824v-5.77941" fill="none" stroke="#000000" stroke-width="2" stroke-linecap="round"/></g></g></svg>