<svg version="1.1" xmlns="http://www.w3.org/2000/svg" xmlns:xlink="http://www.w3.org/1999/xlink" width="580.68653" height="426.62288" viewBox="0,0,580.68653,426.62288"><defs><linearGradient x1="82.17143" y1="-33.31144" x2="82.17143" y2="380.25089" gradientUnits="userSpaceOnUse" id="color-1"><stop offset="0" stop-color="#000000"/><stop offset="1" stop-color="#000000" stop-opacity="0"/></linearGradient><linearGradient x1="397.82858" y1="392.04651" x2="397.82858" y2="-21.51582" gradientUnits="userSpaceOnUse" id="color-2"><stop offset="0" stop-color="#000000" stop-opacity="0"/><stop offset="1" stop-color="#000000"/></linearGradient><radialGradient cx="242.13395" cy="182.64706" r="276.42733" gradientUnits="userSpaceOnUse" id="color-3"><stop offset="0" stop-color="#000000" stop-opacity="0"/><stop offset="1" stop-color="#000000"/></radialGradient></defs><g transform="translate(50.34327,33.31144)"><g data-paper-data="{&quot;isPaintingLayer&quot;:true}" fill-rule="nonzero" stroke-linecap="butt" stroke-linejoin="miter" stroke-miterlimit="10" stroke-dasharray="" stroke-dashoffset="0" style="mix-blend-mode: normal"><path d="M-13.0566,375.015v-387.02701h504.61175v387.02703z" data-paper-data="{&quot;index&quot;:null}" fill="#000000" stroke="none" stroke-width="NaN"/><path d="M83.95453,138.96218c0,-2.48532 9.00016,-2.48532 9.00016,0c0,2.48532 -2.01476,4.50008 -4.50008,4.50008c-2.48532,0 -4.50008,-2.01476 -4.50008,-4.50008z" fill="#ffffff" stroke="#ffffff" stroke-width="0"/><path d="M119.42629,138.89094c0,-2.48533 9.00016,-2.48534 9.00016,0c0,2.48533 -2.01476,4.50008 -4.50008,4.50008c-2.48533,0 -4.50008,-2.01476 -4.50008,-4.50008z" fill="#ffffff" stroke="#ffffff" stroke-width="0"/><path d="M359.74029,178.9291c0,-7.26077 5.88602,-13.14679 13.14679,-13.14679c7.26076,0 13.14679,5.88601 13.14679,13.14679c0,7.26077 -5.88603,13.14679 -13.14679,13.14679c-7.26076,0 -13.14679,-5.88601 -13.14679,-13.14679z" fill="none" stroke="#ffffff" stroke-width="4"/><path d="M228.24646,108.77488c-1.67467,7.29687 -9.17861,12.08031 -17.17885,10.59156c-8.00024,-1.48876 -12.84246,-8.56308 -11.47281,-15.9233c1.36966,-7.36022 8.38542,-12.55878 17.15165,-11.03775c8.33824,1.44677 13.24895,8.74901 11.50002,16.36951z" fill="#ffffff" stroke="#000000" stroke-width="1.4"/><path d="M218.92986,106.98161c-0.48934,2.62962 -3.01776,4.36467 -5.64738,3.87531c-2.62962,-0.48934 -4.36465,-3.01776 -3.87531,-5.64738c0.48934,-2.62962 3.01775,-4.36465 5.64738,-3.87531c2.62962,0.48934 4.36465,3.01775 3.87531,5.64737z" fill="#000000" stroke="none" stroke-width="1.5"/><text transform="translate(177.60324,21.31892) scale(0.5,0.5)" font-size="40" xml:space="preserve" fill="#ffffff" fill-rule="nonzero" stroke="none" stroke-width="1" stroke-linecap="butt" stroke-linejoin="miter" stroke-miterlimit="10" stroke-dasharray="" stroke-dashoffset="0" font-family="Curly" font-weight="normal" text-anchor="start" style="mix-blend-mode: normal"><tspan x="0" dy="0">ZEDDBOX V3</tspan></text><text transform="translate(-0.40608,257.11961) rotate(25.96004) scale(1.05755,1.1122) skewX(-4.43332)" font-size="40" xml:space="preserve" fill="#ffffff" fill-rule="nonzero" stroke="#000c79" stroke-width="0" stroke-linecap="butt" stroke-linejoin="miter" stroke-miterlimit="10" stroke-dasharray="" stroke-dashoffset="0" font-family="Serif" font-weight="normal" text-anchor="start" style="mix-blend-mode: normal"><tspan x="0" dy="0">RETALIATE</tspan></text><g stroke="none" stroke-width="0"><path d="M-50.34326,380.25089v-413.56233h174.74465l90.28473,413.56233z" fill="url(#color-1)"/><path d="M530.34327,-21.51582v413.56233h-174.74465l-90.28473,-413.56233z" data-paper-data="{&quot;index&quot;:null}" fill="url(#color-2)"/><path d="M-34.29338,393.31144v-421.32876h552.85466v421.32876z" fill="url(#color-3)"/></g></g></g></svg>