<svg version="1.1" xmlns="http://www.w3.org/2000/svg" xmlns:xlink="http://www.w3.org/1999/xlink" width="113.2668" height="286.24388" viewBox="0,0,113.2668,286.24388"><g transform="translate(-186.05481,-52.56503)"><g data-paper-data="{&quot;isPaintingLayer&quot;:true}" fill-rule="nonzero" stroke-linejoin="miter" stroke-miterlimit="10" stroke-dasharray="" stroke-dashoffset="0" style="mix-blend-mode: normal"><path d="M201.54536,304.39158c0,0 -0.63536,-94.38387 -0.79335,-118.01201c-0.05451,-8.15261 8.18688,-36.76129 40.20201,-36.9211c31.60235,-0.15775 39.85672,29.48704 39.84884,36.89673c-0.07659,46.24274 0.65429,117.98648 0.65429,117.98648l-10.49667,0.09614l-0.15882,-114.84311c0,0 0.07549,-3.0993 -2.81625,-3.15415c-3.43441,-0.06514 -2.94538,3.11562 -2.94538,3.11562l0.20548,114.86995l-48.21366,0.07222l-0.30539,-115.23309c0,0 0.27949,-2.919 -2.8856,-2.93443c-3.11083,-0.01515 -2.81569,2.90899 -2.81569,2.90899l0.35311,115.0668z" fill="#000000" stroke="#000000" stroke-width="2" stroke-linecap="butt"/><path d="M256.14252,200.33376c-0.57113,0 -1.03411,-0.46299 -1.03411,-1.03411c0,-0.57113 0.46299,-1.03413 1.03411,-1.03413c0.57113,0 1.03411,0.463 1.03411,1.03413c0,0.57113 -0.46299,1.03411 -1.03411,1.03411z" fill="#000000" stroke="none" stroke-width="1.5" stroke-linecap="butt"/><path d="M250.88266,204.56935c-4.4635,-0.31439 -6.55245,-1.79392 -6.16985,-2.58011c0.11788,-0.24224 2.84645,1.06355 6.97038,1.3048c6.40897,0.37493 8.51033,-0.63173 8.51033,-0.63173v1.34616c0,0 -2.4135,1.04672 -9.31086,0.56089z" fill="#000000" stroke="#000000" stroke-width="0" stroke-linecap="butt"/><path d="M223.0699,199.29965c0,-0.57113 0.46299,-1.03413 1.03411,-1.03413c0.57113,0 1.03413,0.463 1.03413,1.03413c0,0.57113 -0.463,1.03411 -1.03413,1.03411c-0.57113,0 -1.03411,-0.46299 -1.03411,-1.03411z" fill="#000000" stroke="none" stroke-width="1.5" stroke-linecap="butt"/><path d="M229.3639,204.56935c-6.89736,0.48585 -9.31086,-0.56089 -9.31086,-0.56089v-1.34616c0,0 2.10136,1.00666 8.51033,0.63173c4.12393,-0.24126 6.85251,-1.54704 6.97039,-1.3048c0.3826,0.78618 -1.70634,2.26571 -6.16985,2.58011z" fill="#000000" stroke="#000000" stroke-width="0" stroke-linecap="butt"/><path d="M240.64436,261.12113c-0.81895,0 -1.48284,-0.66389 -1.48284,-1.48284c0,-0.81895 0.66389,-1.48284 1.48284,-1.48284c0.81895,0 1.48284,0.66389 1.48284,1.48284c0,0.81895 -0.66389,1.48284 -1.48284,1.48284z" data-paper-data="{&quot;index&quot;:null}" fill="#000000" stroke="none" stroke-width="1.5" stroke-linecap="butt"/><path d="M196.44189,103.88008c0,0 6.16329,-5.92187 6.29161,-6.78761c0.15928,-1.07465 1.56876,-8.8977 5.32483,-18.28804c0.97437,-2.43598 -7.1603,4.59626 -7.1603,4.59626c0,0 1.09258,-6.82682 5.89548,-11.61909c8.07901,-8.06113 22.75335,-15.90811 31.90774,-16.26294c44.63633,-0.91362 39.01489,35.34872 41.53088,42.1903c3.44981,9.38084 -1.72449,11.12034 -1.72449,11.12034c0,0 3.09111,10.3481 1.31092,20.69498c-1.5623,9.48098 -7.29782,17.22543 -7.29782,17.22543l-1.15522,-2.34735c0,0 -1.02266,2.19794 -2.16005,3.33274c-1.1374,1.13479 -3.43873,2.91273 -3.43873,2.91273l-0.09205,-3.70421c0,0 -7.0601,11.01795 -24.35066,10.87154c-16.30625,-0.25547 -26.07151,-10.6752 -26.07151,-10.6752l-0.1162,2.65484c0,0 -3.89477,-3.29276 -6.18145,-9.70754c-2.72545,-7.64567 -3.23946,-12.24324 -3.23946,-12.24324c0,0 -2.33908,1.89916 -5.71704,2.7744c-4.23278,1.09673 -6.94665,0.34526 -6.94665,0.34526c0,0 3.60795,-2.71717 5.58396,-4.76989c1.76007,-1.8284 2.64658,-3.37722 2.64658,-3.37722c0,0 -2.10758,1.0847 -4.23277,1.61795c-2.21739,0.5564 -4.03008,0.53093 -4.03008,0.53093c0,0 4.97492,-5.03728 7.03074,-10.87429c0.34819,-0.98861 -1.1657,-1.38528 -2.89269,0.4221c-2.00457,2.0979 -4.95567,5.54643 -4.95567,5.54643c0,0 2.08789,-5.80501 3.51648,-8.56033c1.6387,-3.16055 6.43159,-8.36551 6.43159,-8.36551c0,0 -1.36165,0.66163 -3.33013,0.79513c-1.24776,0.08463 -2.37785,-0.0489 -2.37785,-0.0489z" fill="#000000" stroke="none" stroke-width="1.5" stroke-linecap="butt"/><path d="M213.22776,115.2017c-0.57709,-7.29323 0.335,-17.15448 0.335,-17.15448c0,0 3.41059,-0.04124 13.91429,-3.14424c8.0696,-2.38394 20.54731,-9.48722 20.54731,-9.48722c0,0 -2.16005,3.00503 -3.40781,4.46015c-1.32651,1.54696 -3.99292,4.56297 -3.99292,4.56297c0,0 7.838,-1.66761 14.67476,-4.72931c8.56837,-3.53575 10.59252,-6.05309 12.95042,-4.5927c2.7829,1.72362 1.03006,23.1827 0.71846,28.74062c-0.42163,5.66922 -2.53327,9.49969 -3.15031,12.52053c-0.61704,3.02084 -0.4096,6.13662 -2.20622,16.0397c-1.12121,6.18021 -4.16183,8.92466 -10.01942,14.66081c-5.85759,5.73616 -9.05378,9.25275 -13.01359,9.32173c-3.81077,0.06639 -8.93565,-5.1002 -13.93542,-10.38244c-5.32393,-5.62474 -8.87489,-8.47713 -9.71551,-15.13975c-0.75707,-6.00039 -0.77653,-9.90853 -1.12266,-15.24835c-0.25298,-3.90273 -2.26119,-6.44504 -2.57636,-10.42801z" fill="#ffffff" stroke="#000000" stroke-width="1.5" stroke-linecap="butt"/><path d="M261.29776,100.08134c0,0 1.52429,0.31807 4.2558,1.11029c2.49492,0.72361 4.44935,1.74403 4.44935,1.74403l0.1951,1.17035c0,0 -7.24963,-3.12997 -15.1158,-2.4706c-6.2896,0.52724 -9.96319,2.8124 -9.96319,2.8124l0.04575,-4.17683c0,0 3.12748,-1.70421 7.86366,-1.85557c4.90428,-0.15672 8.09084,0.59125 8.09084,0.59125z" data-paper-data="{&quot;index&quot;:null}" fill="#000000" stroke="none" stroke-width="1.5" stroke-linecap="butt"/><path d="M248.53363,143.06889c0.5704,0.21186 3.08357,1.39942 6.02385,2.59586c2.9637,1.20597 7.21362,2.29294 7.19412,2.4605c-0.02476,0.21265 -10.43477,0.22694 -13.67937,0.63224c-2.71902,0.33964 -6.68867,0.70564 -6.68867,0.70564c0,0 -7.10401,-1.16169 -13.27235,-2.44521c-4.94371,-1.02869 -10.39929,-1.66108 -10.40995,-1.75461c-0.01439,-0.12613 3.86835,-0.71071 6.82417,-1.39467c1.14585,-0.49661 5.43971,-1.48513 5.43971,-1.48513c0,0 4.95585,-0.27766 7.60826,0.579c2.84203,0.91791 2.83546,2.44556 3.0831,2.46906c0,0 1.18436,-1.74932 2.36886,-2.10461c1.18451,-0.35528 5.08219,-0.41633 5.50828,-0.25808z" fill="#ffffff" stroke="#000000" stroke-width="1.4" stroke-linecap="butt"/><path d="M229.88566,147.62248c5.09114,1.02674 11.91756,2.80736 11.91756,2.80736c0,0 5.78976,-1.55585 8.44678,-1.8344c2.05992,-0.21596 11.216,-0.70654 11.26026,-0.33377c0.04328,0.36447 -9.03119,12.90033 -21.14808,12.44714c-13.76954,-0.43578 -22.86459,-15.13559 -22.82675,-15.30472c0.03784,-0.16913 7.2591,1.19165 12.35024,2.2184z" fill="#ffffff" stroke="#000000" stroke-width="1.9" stroke-linecap="butt"/><path d="M240.85992,144.6288c-1.03376,0 -3.5381,-3.26042 -3.7867,-5.3637c-0.22243,-1.88186 1.31512,-3.82799 3.7867,-3.82799c2.47159,0 4.2021,0.49077 4.02999,4.18853c-0.14607,3.13818 -1.55841,5.00317 -4.02999,5.00317z" fill="#ffffff" stroke="#000000" stroke-width="1.15" stroke-linecap="butt"/><path d="M244.46201,114.53508c0,0 0.1026,3.96976 0.00576,7.12662c-0.19174,6.25113 -1.08147,27.7607 -1.08147,27.7607l-2.98167,0.00864c0,0 -0.80294,-4.17274 -1.12322,-9.49979c-0.43353,-7.21063 -0.4495,-16.29321 -0.76344,-19.63229c-0.29758,-3.16513 -0.89593,-5.71453 -0.89593,-5.71453" fill="#ffffff" stroke="#000000" stroke-width="1.3" stroke-linecap="round"/><path d="M214.92742,125.32492c0,0 -4.93211,-3.51705 -6.16417,-8.97502c-1.29636,-5.74284 -1.46118,-9.7328 0.48013,-9.99193c1.94131,-0.25915 2.70321,2.37692 3.73262,8.35569c1.0294,5.97877 1.95143,10.61127 1.95143,10.61127z" data-paper-data="{&quot;index&quot;:null}" fill="#ffffff" stroke="#000000" stroke-width="1" stroke-linecap="butt"/><path d="M214.72481,121.37736c0,0 -3.56385,-2.92338 -4.31816,-8.45061c-0.42079,-3.08327 2.15675,-2.28016 2.15675,-2.28016" fill="none" stroke="#000000" stroke-width="0.25" stroke-linecap="round"/><path d="M217.73823,114.72146c0.07093,-4.89188 4.83834,-8.93609 10.21137,-8.8582c5.37302,0.0779 9.02724,4.2484 8.95632,9.14029c-0.07093,4.89188 -4.12352,8.79439 -9.49655,8.7165c-5.37302,-0.0779 -9.74207,-4.1067 -9.67114,-8.99859z" fill="#000000" stroke="#000000" stroke-width="1.4" stroke-linecap="butt"/><path d="M244.79448,114.72219c0.20353,-4.88817 4.45264,-8.85847 9.77048,-8.85847c5.31783,0 9.27453,3.96607 9.27453,8.85847c0,4.8924 -3.88585,9.07104 -9.69964,9.14188c-5.52997,0.06739 -9.55792,-4.03692 -9.34537,-9.14188z" fill="#ffffff" stroke="#000000" stroke-width="1.4" stroke-linecap="butt"/><path d="M249.39726,114.80774c0,-2.81845 2.2848,-5.10325 5.10325,-5.10325c2.81845,0 5.10325,2.2848 5.10325,5.10325c0,2.81845 -2.28479,5.10325 -5.10325,5.10325c-2.81845,0 -5.10325,-2.2848 -5.10325,-5.10325z" fill="#000000" stroke="none" stroke-width="1.5" stroke-linecap="butt"/><path d="M217.66979,114.18928c0,0 0.06357,-9.01512 10.60111,-8.8249c9.47101,0.16586 9.55554,9.40723 9.55554,9.40723z" fill="#ffffff" stroke="#000000" stroke-width="1.15" stroke-linecap="butt"/><path d="M244.41686,114.32018c0,0 -0.24686,-9.4582 11.19813,-9.1032c9.71427,0.33347 9.54677,9.65229 9.54677,9.65229z" fill="#ffffff" stroke="#000000" stroke-width="1.15" stroke-linecap="butt"/><path d="M221.19964,104.17762c0,0 3.36963,-1.819 8.03244,-2.28178c5.16698,-0.51283 7.76823,-0.06628 7.76823,-0.06628l0.29508,4.13747c0,0 -3.83554,-0.68065 -8.01795,-0.52113c-5.59346,0.21333 -6.64488,1.43293 -10.89774,1.89119c-3.64408,0.39266 -6.73723,0.15884 -6.73723,0.15884l-0.02589,-1.23155c0,0 3.59517,0.07398 5.23371,-0.06836c1.35239,-0.11749 3.9757,-0.93808 3.9757,-0.93808z" fill="#000000" stroke="none" stroke-width="1.5" stroke-linecap="butt"/><path d="M269.16056,114.71365c1.0294,-5.97877 1.7913,-8.61483 3.73262,-8.35569c1.94131,0.25914 1.77649,4.24909 0.48013,9.99193c-1.23206,5.45797 -6.16417,8.97502 -6.16417,8.97502c0,0 0.92203,-4.6325 1.95143,-10.61127z" data-paper-data="{&quot;index&quot;:null}" fill="#ffffff" stroke="#000000" stroke-width="1" stroke-linecap="butt"/><path d="M269.57313,110.64659c0,0 2.57754,-0.80312 2.15675,2.28016c-0.75431,5.52723 -4.31816,8.45061 -4.31816,8.45061" data-paper-data="{&quot;index&quot;:null}" fill="none" stroke="#000000" stroke-width="0.25" stroke-linecap="round"/><path d="M216.3624,63.56455c0,0 5.03739,-6.54388 9.75983,-7.89304c5.37622,-1.53594 20.79118,-0.83512 20.79118,-0.83512l33.76506,66.012c0,0 -0.08348,11.75322 -1.32713,16.17497c-1.21044,4.30369 -6.03784,10.01091 -6.03784,10.01091c0,0 -17.81451,-10.0575 -25.60447,-21.47476c-10.41862,-15.26993 -31.34662,-61.99496 -31.34662,-61.99496z" fill="#63c38b" stroke="none" stroke-width="0" stroke-linecap="butt"/><path d="M255.90136,134.66334l0.15959,-20.34847l8.64854,27.05131z" fill="#008235" stroke="none" stroke-width="0" stroke-linecap="butt"/><path d="M243.90908,119.269l2.15976,-18.57903l3.01666,27.13597z" fill="#008235" stroke="none" stroke-width="0" stroke-linecap="butt"/><path d="M229.08974,90.68798l11.36033,-15.43839l-5.97145,27.09001z" fill="#008235" stroke="none" stroke-width="0" stroke-linecap="butt"/><path d="M222.39006,76.41475l8.00162,-12.97533l-5.08554,19.84621z" fill="#008235" stroke="none" stroke-width="0" stroke-linecap="butt"/><path d="M232.03622,54.94172c0,0 7.82175,-2.52729 11.90381,-2.3696c3.4603,0.13367 11.03288,3.25565 11.03288,3.25565c0,0 10.7921,15.33152 14.81319,24.64194c4.32495,10.01398 10.29139,33.48516 10.29139,33.48516c0,0 1.54855,4.44782 1.6402,6.89171c0.10415,2.77722 -1.04801,8.89984 -1.04801,8.89984c0,0 -12.20266,-6.39582 -16.18761,-12.6945c-8.41113,-13.29478 -32.44584,-62.1102 -32.44584,-62.1102z" fill="#cc1414" stroke="none" stroke-width="0" stroke-linecap="butt"/><path d="M259.14324,108.13578l11.14018,-2.35645l-6.86498,9.60283z" fill="#a10000" stroke="none" stroke-width="0" stroke-linecap="butt"/><path d="M252.53254,96.69413l11.14019,-2.35645l-6.86498,9.60283z" fill="#a10000" stroke="none" stroke-width="0" stroke-linecap="butt"/><path d="M244.49612,79.48887l10.53204,-1.64695l-6.86499,9.60283z" fill="#a10000" stroke="none" stroke-width="0" stroke-linecap="butt"/><path d="M239.42823,70.06255l10.53203,-1.64695l-6.66227,9.40012z" fill="#a10000" stroke="none" stroke-width="0" stroke-linecap="butt"/><path d="M272.38831,95.14888l-17.41525,-39.45374c0,0 12.8579,4.55368 20.07671,14.55537c3.90553,5.41112 3.07126,15.64043 4.68662,20.27101c4.09032,11.72529 1.49172,40.43625 1.49172,40.43625z" fill="#da7f7f" stroke="none" stroke-width="0" stroke-linecap="butt"/><path d="M230.46021,120.4297l-7.5008,-5.26651" fill="none" stroke="#a10000" stroke-width="1.5" stroke-linecap="round"/><path d="M230.4602,116.12074l-7.5008,4.14938" fill="none" stroke="#a10000" stroke-width="1.5" stroke-linecap="round"/><path d="M199.07267,335.74447c0,-2.99345 -1.31032,-113.72871 -1.31032,-113.72871l15.02656,6.99919l1.07158,90.44149c0,0 -14.78783,17.17076 -14.78783,16.28804z" fill="#008235" stroke="none" stroke-width="0" stroke-linecap="butt"/><path d="M201.94248,245.35707c0,0 1.91319,-4.31788 3.2291,-4.87285c2.06928,-0.8727 7.98485,0.14348 7.98485,0.14348v10.63426c0,0 -5.23022,0.67292 -7.29387,-0.41373c-1.46582,-0.77185 -3.92007,-5.49116 -3.92007,-5.49116z" fill="#00421b" stroke="none" stroke-width="0" stroke-linecap="butt"/><g stroke="none" stroke-width="0" stroke-linecap="butt"><path d="M267.05749,319.4296l1.07158,-90.44149l15.02656,-6.99919c0,0 -1.31032,110.73527 -1.31032,113.72872c0,0.88272 -14.78783,-16.28804 -14.78783,-16.28804z" data-paper-data="{&quot;index&quot;:null}" fill="#008235"/><path d="M275.05544,250.8214c-2.06366,1.08665 -7.29388,0.41373 -7.29388,0.41373v-10.63426c0,0 5.91557,-1.01618 7.98485,-0.14348c1.31591,0.55498 3.22911,4.87285 3.22911,4.87285c0,0 -2.45425,4.71931 -3.92007,5.49116z" data-paper-data="{&quot;index&quot;:null}" fill="#00421b"/><path d="M275.21502,265.50382c-2.06366,1.08665 -7.29388,0.41373 -7.29388,0.41373v-10.63426c0,0 5.91556,-1.01618 7.98485,-0.14348c1.31591,0.55498 3.22911,4.87286 3.22911,4.87286c0,0 -2.45425,4.71931 -3.92007,5.49115z" data-paper-data="{&quot;index&quot;:null}" fill="#00421b"/><path d="M275.05544,279.54786c-2.06366,1.08665 -7.29388,0.41373 -7.29388,0.41373v-10.63426c0,0 5.91557,-1.01618 7.98485,-0.14348c1.31591,0.55498 3.22911,4.87286 3.22911,4.87286c0,0 -2.45425,4.71931 -3.92007,5.49115z" data-paper-data="{&quot;index&quot;:null}" fill="#00421b"/></g><path d="M214.31219,338.80892v-108.8727h52.29318v108.8727z" fill="#ff0000" stroke="none" stroke-width="0" stroke-linecap="butt"/><path d="M201.78291,260.03949c0,0 1.9132,-4.31788 3.22911,-4.87286c2.06928,-0.8727 7.98485,0.14348 7.98485,0.14348v10.63426c0,0 -5.23022,0.67292 -7.29388,-0.41373c-1.46582,-0.77185 -3.92007,-5.49115 -3.92007,-5.49115z" fill="#00421b" stroke="none" stroke-width="0" stroke-linecap="butt"/><path d="M201.94248,274.08353c0,0 1.91319,-4.31788 3.2291,-4.87286c2.06928,-0.8727 7.98485,0.14348 7.98485,0.14348v10.63426c0,0 -5.23022,0.67292 -7.29387,-0.41373c-1.46582,-0.77185 -3.92007,-5.49115 -3.92007,-5.49115z" fill="#00421b" stroke="none" stroke-width="0" stroke-linecap="butt"/><path d="M189.0149,217.44269l-2.96009,-34.63341l17.08189,-15.6755l24.30097,10.24689l-0.94944,2.28007c0,0 12.32453,20.93556 14.65558,21.01326c2.34193,0.07806 14.53864,-19.30982 14.53864,-19.30982l-0.70966,-2.58037l27.59903,-9.0022l16.04709,16.76807l-5.89705,31.77562c0,0 -37.15358,19.14634 -53.85462,19.00421c-17.7981,-0.15148 -49.85235,-19.88682 -49.85235,-19.88682z" fill="#cc1414" stroke="none" stroke-width="0" stroke-linecap="butt"/><path d="M292.61494,219.63296l-43.06389,-16.41369c0,0 24.90003,-26.44509 30.0167,-31.248c1.45821,-1.3688 2.81069,-2.63834 2.81069,-2.63834l16.94317,17.47265z" fill="#a10000" stroke="none" stroke-width="0" stroke-linecap="butt"/><path d="M188.87214,218.48387l-2.74424,-36.04098l17.38017,-15.73363l29.82071,36.40688z" fill="#a10000" stroke="none" stroke-width="0" stroke-linecap="butt"/><path d="M226.21085,179.40076c0,0 10.029,5.42323 15.18326,5.6585c4.74992,0.21681 14.62849,-4.29771 14.62849,-4.29771c0,0 -5.28248,8.5352 -7.75312,12.08123c-2.19227,3.14649 -6.9158,8.90768 -6.9158,8.90768c0,0 -3.78836,-4.39111 -5.76606,-7.21175c-2.80719,-4.00366 -9.37676,-15.13793 -9.37676,-15.13793z" fill="#00ff6a" stroke="none" stroke-width="0" stroke-linecap="butt"/><path d="M214.07012,255.94599v-26.53164c0,0 15.84378,6.26442 25.10205,6.26442c8.29461,0 27.87498,-6.26442 27.87498,-6.26442l-0.49456,27.68561c0,0 -18.1272,12.94729 -27.05672,12.75095c-8.54797,-0.18795 -25.42575,-13.90492 -25.42575,-13.90492z" fill="#a10000" stroke="none" stroke-width="0" stroke-linecap="butt"/><g fill="#000000" stroke="#a80000" stroke-width="0.5" stroke-linecap="butt"><path d="M267.67649,89.80165c-2.54819,1.87052 -5.82821,0.80729 -7.32612,-2.37476c-1.49791,-3.18205 2.41974,-0.98782 4.96793,-2.85834c2.54819,-1.87052 2.76199,-7.09745 4.2599,-3.91539c1.49791,3.18205 0.64648,7.27797 -1.90171,9.14849z"/><path d="M260.28806,78.80032l3.51909,-2.5832l4.18484,2.18405c0,0 -0.77561,1.24194 -1.47599,2.60796c-0.58562,1.1422 -0.84656,1.9877 -1.26636,2.29585c-0.322,0.23637 -1.47413,0.56545 -2.48575,0.66906c-1.63931,0.16789 -3.512,0.44866 -3.512,0.44866z"/><path d="M271.37436,86.51783c-0.54775,0.40207 0.11211,-1.48654 -0.18325,-4.01536c-0.15101,-1.29293 -0.75564,-2.48701 -1.31965,-3.68517c-0.13948,-0.29631 -0.33037,-0.56877 -0.52854,-0.77156c-0.49764,-0.50927 -1.10092,-0.85523 -1.66954,-1.20147c-1.91126,-1.16375 -3.89481,-1.43839 -3.3102,-1.86753c0.8278,-0.60765 5.13973,0.00269 6.80689,3.5443c1.66716,3.5416 1.03208,7.38913 0.20429,7.99678z"/></g></g></g></svg>