<svg version="1.1" xmlns="http://www.w3.org/2000/svg" xmlns:xlink="http://www.w3.org/1999/xlink" width="35.67311" height="35.67311" viewBox="0,0,35.67311,35.67311"><g transform="translate(-222.16345,-162.16345)"><g data-paper-data="{&quot;isPaintingLayer&quot;:true}" stroke-miterlimit="10" stroke-dasharray="" stroke-dashoffset="0" style="mix-blend-mode: normal"><path d="M229.98311,162.91345h20.03379c3.9166,0 7.06966,3.15307 7.06966,7.06966v20.03379c0,3.91659 -3.15306,7.06966 -7.06966,7.06966h-20.03379c-3.91659,0 -7.06966,-3.15307 -7.06966,-7.06966v-20.03379c0,-3.91659 3.15307,-7.06966 7.06966,-7.06966z" fill="#ffffff" fill-rule="evenodd" stroke="#000000" stroke-width="1.5" stroke-linecap="round" stroke-linejoin="round"/><g fill="#000000" fill-rule="nonzero" stroke="#ffffff" stroke-width="1" stroke-linejoin="miter"><path d="M233.33448,170.34989c0.1498,-0.13948 1.72694,1.13447 2.75897,0.73064c0.49177,0.02837 -0.14105,1.00504 0.06223,1.17375c0.23623,0.19607 0.43629,-0.33431 0.53798,-0.40683c0.04502,-0.03211 -0.03759,0.1053 -0.04241,0.1604c-0.01376,0.15718 0.06935,0.38698 0.08924,0.54807c0.02253,0.19596 -0.00114,0.9453 0.0603,1.06288c0.05797,0.11093 0.36796,-0.04133 0.36602,0.08382c-0.00536,0.34586 -0.67857,0.97513 -0.15275,1.22757c0.18836,-0.19119 0.77929,-0.79117 1.05802,-0.79539c0.10442,-0.00158 0.0563,0.43052 0.25269,0.45939c0.19327,0.02841 0.3087,-0.35534 0.40547,-0.36657c0.01375,-0.0016 0.24333,0.21845 0.26812,0.23824c0.06385,0.05099 0.28821,0.27669 0.36716,0.26786c0.19288,-0.02159 0.27479,-0.48716 0.43063,-0.5304c0.16354,-0.04538 0.4659,0.46096 0.6401,0.47078c0.28225,0.01592 0.56165,-0.52833 0.69069,-0.71759c0.22624,-0.33186 0.65672,-1.21973 1.02016,-1.38614c0.11096,-0.05081 0.33451,0.20015 0.41919,0.2386c0.18944,0.08602 0.40605,-0.00789 0.58061,-0.08788c0.09867,-0.06969 0.4028,-0.38524 0.51019,-0.3793c0.24101,0.01333 0.43731,0.47259 0.66601,0.4651c0.36341,-0.01191 0.63523,-0.99898 0.92128,-0.43914c0.08247,0.0889 0.15576,0.23074 0.32148,0.11981c0.10963,-0.07338 0.14318,-0.57067 0.17114,-0.70026c0.12794,-0.59294 0.41578,-1.1808 0.4922,-1.78165c0.03184,0.12391 0.09149,0.25308 0.12152,0.35251l0.0389,0.12879c0.00374,0.01302 0.01142,0.02505 0.02281,0.03414c0.02921,0.02333 0.07181,0.01856 0.09514,-0.01065c0.00759,-0.0095 0.01221,-0.02041 0.01397,-0.03163l0.0235,-0.13206l-0.01726,-0.00307c0.22175,-0.78542 -0.17047,-1.80591 -0.29108,-2.55961l-0.00014,-0.00119l0.0061,-0.01025c0.03693,0.02996 0.08133,0.05253 0.12456,0.07089c0.05919,0.02513 0.35962,0.21322 0.40102,0.19929c0.15533,-0.05228 0.20235,-0.83748 0.3952,-0.79474c0.23639,0.05239 0.56139,0.55498 0.75915,0.71404c0.29828,0.23838 0.41035,0.15462 0.08469,-0.10563c-0.13787,-0.1109 -0.36243,-0.41591 -0.57034,-0.59891c0.17693,0.11761 0.35472,0.24211 0.53332,0.37375c1.16215,0.88982 2.34531,-0.99091 2.34531,-0.99091c0,0 0.20208,1.40696 0.40879,1.83743c0.16248,0.33837 0.73103,0.53623 0.73103,0.53623l1.33155,0.31357c0,0 -0.44285,1.54364 -0.16704,1.80204c0.38409,0.35986 1.54374,0.42176 1.54374,0.42176c0,0 -0.68401,4.93037 -0.98974,6.02649c-0.26467,0.94894 0.24419,2.44931 0.24419,2.44931c0,0 -1.13947,0.35291 -1.93696,1.24183c-0.20568,0.22926 0.72167,1.17881 0.72167,1.17881c0,0 -1.56381,0.69486 -1.73916,1.13277c-0.15807,0.39473 -0.22987,2.41128 -0.22987,2.41128c0,0 -1.12177,-0.91888 -1.23956,-0.68082c-0.48285,0.9759 -0.43738,2.53871 -0.43738,2.53871c0,0 -0.80481,-0.45337 -0.89995,-0.90379c-0.02773,-0.13126 -0.00126,0.75755 -0.37786,1.64277c-0.50239,1.18094 -1.43843,2.47398 -1.43843,2.47398c0,0 -0.19554,-0.82038 -0.77081,-0.30919c-0.37362,0.33677 -3.098,2.60594 -3.098,2.60594c0,0 -0.06966,-0.6955 -0.29232,-1.08452c-0.10283,-0.17967 -0.23831,-0.29396 -0.41462,-0.24421c-0.51412,0.1451 -1.87217,1.23258 -1.87217,1.23258c0,0 -0.1189,-1.01311 -0.55132,-0.9652c-0.43243,0.04791 -1.21981,0.03521 -1.21981,0.03521l0.60649,-0.79933c0,0 -3.35573,1.13823 -6.9895,-1.81461c-3.40707,-2.80958 -3.71252,-6.66448 -3.71252,-6.66448l-0.47322,0.54211c0,0 0.07417,-0.89524 -0.11188,-1.18929c-0.21519,-0.34009 -1.10462,-0.73333 -1.10462,-0.73333c0,0 1.35224,-0.6043 1.549,-1.17598c0.29705,-0.86305 -0.75539,-0.66235 -0.75539,-0.66235l2.13888,-2.47562l-1.55615,0.03356c0,0 0.41278,-1.30696 0.83058,-1.77263c0.22874,-0.25495 0.00789,-0.20048 -0.53189,-0.44677c-0.5632,-0.25698 4.27878,-3.73522 3.83971,-4.03962c-0.27785,-0.19263 -0.49415,-0.41144 -0.49487,-0.41217c0.00326,-0.0003 2.30492,-0.21161 2.47825,-0.373z" stroke-linecap="butt"/><path d="M246.67539,187.07313c-3.7616,4.70997 -10.21073,5.81295 -14.40454,2.46358c-1.70445,-1.36125 -3.27709,-5.49352 -3.29131,-8.07445c-0.02076,-3.76947 2.32855,-6.29266 4.56135,-9.0884c2.15187,-2.6944 3.0397,1.35054 6.02524,1.17522c2.23336,-0.13115 4.53199,-2.50199 6.32668,-1.06867c4.19381,3.34937 4.54418,9.88276 0.78258,14.59272z" stroke-linecap="butt"/><path d="M237.0041,181.45391l-1.68732,-7.47041" stroke-linecap="round"/><path d="M232.70593,179.16923l9.52462,-2.3428" stroke-linecap="round"/><path d="M232.56953,183.65242l11.86426,3.35252" stroke-linecap="round"/><path d="M238.92192,185.28163l-0.32458,2.8022" stroke-linecap="round"/><path d="M235.60538,184.1636l-2.004,4.90503" stroke-linecap="round"/><path d="M245.03116,175.23635l3.3699,9.19688" stroke-linecap="round"/><path d="M243.12283,182.89653l6.34606,-6.02938" stroke-linecap="round"/></g></g></g></svg>