<svg version="1.1" xmlns="http://www.w3.org/2000/svg" xmlns:xlink="http://www.w3.org/1999/xlink" width="35.67311" height="35.67311" viewBox="0,0,35.67311,35.67311"><defs><linearGradient x1="240.00001" y1="162.91345" x2="240.00001" y2="197.08656" gradientUnits="userSpaceOnUse" id="color-1"><stop offset="0" stop-color="#5425b1"/><stop offset="1" stop-color="#32166a"/></linearGradient></defs><g transform="translate(-222.16345,-162.16345)"><g data-paper-data="{&quot;isPaintingLayer&quot;:true}" stroke-miterlimit="10" stroke-dasharray="" stroke-dashoffset="0" style="mix-blend-mode: normal"><path d="M229.98311,162.91345h20.03379c3.9166,0 7.06966,3.15307 7.06966,7.06966v20.03379c0,3.91659 -3.15306,7.06966 -7.06966,7.06966h-20.03379c-3.91659,0 -7.06966,-3.15307 -7.06966,-7.06966v-20.03379c0,-3.91659 3.15307,-7.06966 7.06966,-7.06966z" fill="url(#color-1)" fill-rule="evenodd" stroke="#000000" stroke-width="1.5" stroke-linecap="round" stroke-linejoin="round"/><g fill="#000000" fill-rule="nonzero" stroke="#ffffff" stroke-width="1" stroke-linecap="butt" stroke-linejoin="miter"><g><path d="M251.37598,176.73063c-0.59608,0.86958 -0.90294,1.88696 -2.77451,4.76996c-1.16798,1.79919 -2.61457,2.23516 -5.45646,3.21738c-2.8419,0.98223 -4.44005,1.64076 -5.89357,1.09731c-1.39881,-0.52299 -2.63466,-2.89256 -3.81066,-5.28094c-1.25224,-2.54323 -2.19787,-3.95445 -1.68658,-6.18666c0.46046,-2.01034 0.93322,-3.25208 1.46253,-4.99433c0.38686,-1.27337 18.75531,6.50768 18.15924,7.37727z"/><path d="M248.60148,181.50059c-1.16798,1.79919 -2.61457,2.23516 -5.45646,3.21738c-2.8419,0.98223 -4.44005,1.64077 -5.89357,1.09732c-1.39881,-0.52299 -2.63466,-2.89256 -3.81066,-5.28094c-0.39072,-0.79353 4.46446,0.18452 6.91153,-0.45c5.39572,-1.39908 11.43375,-3.95199 11.02366,-3.35372c0,0 -0.90294,1.88696 -2.7745,4.76996z"/></g><g><g><path d="M236.83531,182.88395l-7.57312,1.77837l-2.69059,-11.45777l7.57311,-1.77837z"/><path d="M226.59195,173.19285c0.80991,-0.19019 2.06913,2.22201 2.81254,5.3878c0.74341,3.16579 0.6895,5.88634 -0.1204,6.07653c-0.80991,0.19019 -2.06912,-2.22201 -2.81253,-5.38779c-0.74341,-3.16579 -0.6895,-5.88635 0.1204,-6.07653z"/></g><path d="M237.02705,183.05251l-2.30156,0.30926l-5.48758,-10.81903l4.86088,-1.159z"/></g><g data-paper-data="{&quot;index&quot;:null}"><g><path d="M249.85581,177.70744l4.13826,6.58706l-9.96591,6.261l-4.13827,-6.58706z"/><path d="M249.80336,188.6797c-2.75359,1.72992 -5.34459,2.56122 -5.78716,1.85677c-0.44257,-0.70446 1.43088,-2.6779 4.18447,-4.40782c2.75359,-1.72992 5.34459,-2.56122 5.78716,-1.85677c0.44257,0.70446 -1.43089,2.6779 -4.18448,4.40782z"/></g><path d="M249.91833,177.70951l2.64387,4.24045l-11.50702,3.84105l-1.42014,-1.83739z"/></g></g></g></g></svg>