<svg version="1.1" xmlns="http://www.w3.org/2000/svg" xmlns:xlink="http://www.w3.org/1999/xlink" width="93.9613" height="264.34376" viewBox="0,0,93.9613,264.34376"><g transform="translate(-193.01945,-45.73641)"><g data-paper-data="{&quot;isPaintingLayer&quot;:true}" fill-rule="nonzero" stroke-linejoin="miter" stroke-miterlimit="10" stroke-dasharray="" stroke-dashoffset="0" style="mix-blend-mode: normal"><path d="M209.42496,158.85001l-0.75,-15c0,0 2.19946,-4.75 7,-4.75c7.34587,0 38.35603,-0.72008 48.23987,-0.09093c3.22081,0.20502 5.51013,5.34093 5.51013,5.34093l-0.25,15z" fill="#23457d" stroke="none" stroke-width="NaN" stroke-linecap="butt"/><path d="M276.17494,156.10001c0,0 5.79046,19.11378 6.98295,27.00258c0.41434,2.74102 0.32638,20.17931 0.11968,37.7411c-2.6044,-3.3075 -4.80643,-6.41968 -7.98794,-9.39189c-1.34536,-1.25685 -1.96926,-3.14962 -3.4829,-4.25104c-3.10681,-5.13222 -8.53494,-10.03032 -13.62822,-13.37888c0.95815,-1.7308 1.92329,-3.45518 2.96654,-5.10491c0.8893,-1.40628 2.26182,-2.78852 2.85168,-4.21407c0.03628,-3.66853 0.47217,-7.51234 0.56436,-11.24613c0.0147,-0.5954 -0.28793,-3.91451 0.01331,-4.21775c0.26472,-0.26648 1.10579,-0.60087 1.47575,-0.96974c1.62991,-2.17322 1.16294,-4.78465 1.1963,-7.48764c0.01921,-1.55636 0.1029,-2.9953 0.204,-4.38881z" fill="#cc1414" stroke="none" stroke-width="0" stroke-linecap="butt"/><path d="M199.0398,180.44819c1.13397,-6.60833 5.46036,-20.01071 6.43803,-22.99864c2.82754,3.27924 5.49966,6.70677 7.96027,10.25751c1.49606,1.86201 1.96991,5.28419 3.97147,6.62667c0.86026,0.577 5.44447,1.14096 5.43406,1.30848c0.07018,3.31421 0.15862,6.62811 0.23945,9.94208c0.02362,0.9682 -0.32075,3.11146 0.18733,3.95473c0.62158,1.03164 2.22189,2.15622 2.986,3.3134c0.2394,0.3591 0.48396,0.74944 0.73503,1.1624c-1.71128,1.05049 -3.37933,2.11834 -5.01586,3.05248c-5.34782,2.89805 -12.80226,6.3414 -15.39709,12.06145c-0.98222,0.60497 -1.90285,2.56207 -2.62,3.75826c-1.88868,3.15025 -4.46777,6.96133 -5.64366,10.74899c0.00986,-19.35679 0.15883,-39.88852 0.72498,-43.18781z" fill="#cc1414" stroke="none" stroke-width="0" stroke-linecap="butt"/><path d="M201.54544,304.39162c0,0 -0.63536,-94.38387 -0.79335,-118.01201c-0.05451,-8.15261 8.18688,-36.76129 40.20201,-36.9211c31.60235,-0.15775 39.85672,29.48704 39.84884,36.89673c-0.07659,46.24274 0.65429,117.98648 0.65429,117.98648l-10.49667,0.09614l-0.15882,-114.84311c0,0 0.07549,-3.0993 -2.81625,-3.15415c-3.43441,-0.06514 -2.94538,3.11562 -2.94538,3.11562l0.20548,114.86995l-48.21366,0.07222l-0.30539,-115.23309c0,0 0.27949,-2.919 -2.8856,-2.93443c-3.11083,-0.01515 -2.81569,2.90899 -2.81569,2.90899l0.35311,115.0668z" fill="#ffffff" stroke="#000000" stroke-width="2" stroke-linecap="butt"/><path d="M216.58115,256.40603v-71.20147c0,0 0.75721,-9.73105 0.75721,-14.63937c0,-4.498 -0.75721,-13.6872 -0.75721,-13.6872c0,0 2.67319,-2.35297 4.6557,-3.74807c1.98251,-1.3951 5.17197,-2.80371 5.17197,-2.80371l13.55952,51.53867l14.83154,-51.53867c0,0 3.91276,1.51959 6.16585,2.94655c2.25309,1.42695 4.75379,3.60523 4.75379,3.60523c0,0 -0.75721,9.42463 -0.75721,14.19201c0,4.84193 0.75721,14.63937 0.75721,14.63937l-0.5,71.19667l-24.79246,-6.01001z" fill="#000000" stroke="#000000" stroke-width="2" stroke-linecap="butt"/><path d="M195.79873,310.08017c0,0 0,-130.7793 0,-177.53251c0,-30.52804 0,-75.6925 0,-75.6925h91.18203v253.22501z" fill="none" stroke="none" stroke-width="0" stroke-linecap="butt"/><path d="M198.42497,260.10006c0,0 -0.49688,-72.92335 0.61482,-79.40189c1.28091,-7.46462 6.63518,-23.59811 6.63518,-23.59811l3.72482,-0.03963c2.05822,4.59261 3.47467,9.84196 5.40349,14.46299c1.42067,3.40341 3.44032,6.4062 4.91424,9.75912c1.10201,2.5069 1.98567,4.92345 4.24003,6.5773c2.15028,0.55416 3.04175,2.51364 3.73302,4.34866c1.11407,2.95735 2.79989,5.86383 4.26465,8.68691c1.04425,0.80507 2.0744,1.5105 3.25454,2.01592c-14.39667,15.0173 -36.7848,57.18871 -36.7848,57.18871z" fill="#cc1414" stroke="none" stroke-width="0" stroke-linecap="butt"/><path d="M276.17494,156.35001c0,0 5.79045,19.11377 6.98295,27.00258c0.8727,5.77325 -0.48295,76.74742 -0.48295,76.74742c0,0 -21.50544,-51.12629 -36.40693,-60.30402c4.43724,-3.61444 7.47339,-7.07427 10.13216,-12.39181c2.55025,-5.10052 6.10312,-10.06927 7.48829,-15.63873c2.20218,-5.06518 3.24108,-10.52724 5.89428,-15.34744z" fill="#cc1414" stroke="none" stroke-width="0" stroke-linecap="butt"/><path d="M198.42497,259.85006c0,0 -0.09758,-14.32109 -0.1095,-30.83419c0.20296,-0.80677 0.34896,-1.61603 0.40571,-2.42807c0.04636,-1.16171 1.00713,-2.19045 1.27451,-3.38459c0.81575,-3.64321 2.91041,-6.61615 4.82046,-9.80202c0.63416,-1.05775 1.65548,-3.18747 2.4836,-3.5798c3.00761,-5.65396 9.62023,-8.87666 15.16194,-11.88022c1.40223,-0.80029 2.82986,-1.7068 4.28965,-2.61666c1.30426,3.37544 2.71552,6.7073 5.79898,8.82538c0.27633,0.20524 0.55235,0.3684 0.8325,0.51125c-14.38503,16.43693 -34.95785,55.18891 -34.95785,55.18891z" fill="#a10000" stroke="none" stroke-width="0" stroke-linecap="butt"/><path d="M259.23093,198.1393c5.29516,3.64478 8.42221,4.3078 11.8439,9.74292c1.53009,1.09489 2.16727,2.99846 3.51374,4.28272c2.57964,2.46047 6.20312,8.95724 8.25878,11.60497c0.67358,0.86758 -0.17239,36.08015 -0.17239,36.08015c0,0 -22.24846,-52.89272 -37.1667,-60.73822c0.33483,-0.45467 0.67556,-0.89409 1.02792,-1.30397c1.06931,-1.24758 2.46613,-2.84418 3.68782,-4.53018c4.54453,2.04695 8.75974,4.35145 9.00693,4.86161z" fill="#a10000" stroke="none" stroke-width="0" stroke-linecap="butt"/><path d="M240.64443,261.12113c-0.81895,0 -1.48284,-0.66389 -1.48284,-1.48284c0,-0.81895 0.66389,-1.48284 1.48284,-1.48284c0.81895,0 1.48284,0.66389 1.48284,1.48284c0,0.81895 -0.66389,1.48284 -1.48284,1.48284z" data-paper-data="{&quot;index&quot;:null}" fill="#000000" stroke="none" stroke-width="1.5" stroke-linecap="butt"/><path d="M215.47497,235.47506l-1.8,-53.2h9.19387c0.3573,0.70531 0.72224,1.38779 1.01856,2.02616c1.57688,3.39719 2.65969,6.75867 4.64709,9.99164c2.13247,3.46898 4.8572,6.17338 7.50267,9.22132c1.2456,1.4351 2.37278,3.12064 3.81048,4.33665l-0.42267,18.72422l-2.0334,0.0265z" fill="#0246b5" stroke="none" stroke-width="0" stroke-linecap="butt"/><path d="M241.75965,226.60157l-2.34623,-0.0265l-0.1317,-20.22506c4.82648,-2.45947 8.71343,-4.78729 12.28306,-9.24933c3.69322,-4.61652 6.53709,-9.45421 8.7607,-14.82561l9.29947,-16.25c0,0 -0.56626,17.94726 -0.63966,19.82736c-0.27337,7.00229 -1.93727,49.62264 -1.93727,49.62264z" data-paper-data="{&quot;index&quot;:null}" fill="#0363ff" stroke="none" stroke-width="0" stroke-linecap="butt"/><path d="M239.6302,225.11224c0,0 -5.24869,-2.86229 -7.02913,-6.02856c-1.67007,-2.96999 -4.62252,-8.46717 -8.10282,-15.02509c-0.9872,-1.86018 -3.99018,-7.54275 -4.45508,-8.42445c-9.65806,-18.31697 -20.75617,-39.65959 -20.75617,-39.65959c0,0 3.81791,-7.72972 6.22522,-8.978c1.92687,-0.99916 0.27759,-8.69371 0.27138,-14.14728c-0.0045,-3.95741 1.8253,-6.26135 1.8253,-6.26135c0,0 12.37656,36.40811 18.26104,50.11828c4.09486,9.54056 13.9999,24.26943 13.9999,24.26943z" fill="#0363ff" stroke="none" stroke-width="0" stroke-linecap="butt"/><path d="M239.19023,200.9756c0,0 13.12216,-13.56977 17.10862,-22.85777c5.89229,-13.72837 15.15232,-51.52993 15.15232,-51.52993c0,0 1.82981,2.30394 1.82531,6.26135c-0.00621,5.45357 -1.6555,13.14812 0.27137,14.14728c2.40731,1.24828 6.22522,8.978 6.22522,8.978c0,0 -26.7034,51.35297 -33.31408,63.10914c-1.78044,3.16627 -7.02913,6.02856 -7.02913,6.02856z" data-paper-data="{&quot;index&quot;:null}" fill="#0246b5" stroke="none" stroke-width="0" stroke-linecap="butt"/><path d="M270.67494,271.85006c0,-4.43064 0,-8.86128 0,-13.29192l10.5,38.54192l0.25,6.5h-10.5c0,-8.36224 -0.25,-27.42098 -0.25,-31.75z" fill="#000000" stroke="#000000" stroke-width="2" stroke-linecap="butt"/><path d="M201.92496,303.60006v-8.25l9.5,-38.38c0,4.21 0,8.42 0,12.63c0,7 0,14 0,21c0,4.10951 0,8.59899 0,13z" fill="#000000" stroke="#000000" stroke-width="2" stroke-linecap="butt"/><path d="M276.91688,95.44037c0,0 0.8418,-6.9886 0.09852,-9.98423c-0.68318,-2.75342 -4.3931,-7.32427 -4.3931,-7.32427l4.04404,-1.00341l4.29458,17.30851z" data-paper-data="{&quot;index&quot;:null}" fill="#a10000" stroke="none" stroke-width="0" stroke-linecap="butt"/><path d="M203.45568,93.93696l4.29459,-17.30851l4.04404,1.00341c0,0 -3.70992,4.57085 -4.3931,7.32428c-0.74328,2.99563 0.09852,9.98423 0.09852,9.98423z" data-paper-data="{&quot;index&quot;:null}" fill="#a10000" stroke="none" stroke-width="0" stroke-linecap="butt"/><path d="M271.70833,96.20107v-17.83333h4.16666c0,0 -2.5,5.32975 -2.5,8.16666c0,3.08647 2.5,9.66667 2.5,9.66667z" fill="#800000" stroke="none" stroke-width="0" stroke-linecap="butt"/><path d="M209.70832,97.70107c0,0 2,-6.30974 2,-9.5c0,-3.35681 -2,-10.16667 -2,-10.16667h3.66666v19.66667z" fill="#800000" stroke="none" stroke-width="0" stroke-linecap="butt"/><path d="M202.73354,100.56022c0.05638,-0.38041 0.08916,-1.7609 0.27459,-3.8023c2.98683,-0.37681 5.98584,-0.73195 8.9145,-0.99421c2.2951,-0.49512 4.58452,-0.93917 6.82508,-1.65258c1.3584,-0.43252 3.75658,-1.17636 4.96016,-1.96941c2.72091,-1.79283 4.24009,-5.78418 1.69521,-8.47164c-2.23106,-2.35605 -5.53022,-2.75688 -8.39877,-3.79988c-2.80421,-1.01961 -5.48036,-2.3383 -8.29785,-3.29005c3.83871,-7.06484 10.22281,-13.62369 20.89186,-16.32869c2.74155,-0.69509 10.10298,-14.51505 10.10298,-14.51505c0,0 7.39449,13.4369 10.90133,14.01791c14.3349,2.37499 21.30062,9.81444 24.84026,17.82146c-2.68758,1.45463 -5.43505,2.79279 -8.29032,3.90682c-1.65053,0.64398 -3.43432,0.80732 -4.99322,1.69127c-0.76535,0.43398 -3.41654,2.42518 -3.52108,3.14946c-0.41268,2.85926 1.3381,3.65337 3.25136,4.53019c3.50563,1.60659 7.27821,2.24571 10.86688,3.62759c2.20632,0.84612 4.44412,1.39483 6.69816,1.88124c0.20736,2.11342 0.40161,3.79223 0.7775,4.81436c3.44981,9.38084 6.15664,17.40016 6.15664,17.40016c0,0 -2.76715,-2.05351 -4.0797,-3.13397c-1.2242,-1.00773 -3.80143,-3.14585 -3.80143,-3.14585c0,0 0.0957,9.85911 1.08918,13.30606c0.74062,2.56966 4.33911,5.52796 4.33911,5.52796l-4.11737,1.86096c0,0 -0.41808,2.17383 -0.69575,3.21642c-0.21102,0.79233 2.30334,12.71629 2.30334,12.71629c0,0 -3.97494,-7.73063 -4.50479,-6.53638c-2.0882,4.70672 0.43271,14.99577 0.43271,14.99577l-7.48855,-9.01402l1.90122,11.41214l-9.42538,-6.03754c0,0 -3.72677,7.68462 -21.01733,7.53821c-8.93406,-0.13997 -15.90461,-3.3311 -20.38135,-6.18796c-1.99212,-1.27128 -9.7815,5.51638 -9.7815,5.51638l4.09135,-10.00361l-7.28287,8.65484c0,0 3.2719,-9.29276 0.98522,-15.70754c-0.98545,-2.76448 -4.96926,7.57529 -4.96926,7.57529l1.7298,-19.81853l-0.26704,-2.2256l-5.59665,7.34526l-0.56604,-7.21989l2.19658,-3.62722c0,0 -2.30758,1.7847 -4.43277,2.31795c-2.21739,0.5564 -4.03008,0.53093 -4.03008,0.53093c0,0 6.37492,-4.03728 8.43074,-9.87429c1.94102,-5.51108 0.69972,-9.55731 0.69972,-9.55731c0,0 -0.96165,0.46163 -2.93013,0.59513c-1.24776,0.08463 -3.37785,-0.4489 -3.37785,-0.4489c0,0 2.77667,-1.05683 4.61306,-3.26713c1.56045,-1.87818 2.21961,-4.92277 2.27855,-5.32047z" fill="#000000" stroke="none" stroke-width="1.5" stroke-linecap="butt"/><path d="M213.22782,118.66945c-0.57709,-7.29323 0.135,-13.15448 0.135,-13.15448c0,0 3.61059,-4.04124 14.11429,-7.14424c8.0696,-2.38394 14.38064,-10.82055 14.38064,-10.82055c0,0 4.00662,4.33836 2.75886,5.79348c-1.32651,1.54696 -3.99292,4.56297 -3.99292,4.56297c0,0 7.838,-1.66761 14.67476,-4.72931c4.33091,-1.78716 6.98989,-3.31413 8.86511,-4.19876c1.83476,-0.86554 3.51922,12.88383 4.68531,13.60606c2.7829,1.72362 0.43006,9.1827 0.11846,14.74062c-0.42163,5.66922 -2.53327,9.49969 -3.15031,12.52053c-0.61704,3.02084 -3.83817,1.56519 -5.63479,11.46827c-0.35933,1.98068 2.51276,8.17989 1.72959,9.66636c-1.66052,3.15169 -4.34013,5.66809 -8.32044,9.56588c-5.85759,5.73616 -9.05378,9.25275 -13.01359,9.32173c-3.81077,0.06639 -8.93565,-5.1002 -13.93542,-10.38244c-4.03182,-4.25963 -7.04683,-7.01122 -8.63792,-10.98962c-0.50991,-1.27499 2.12643,-6.81883 1.92241,-8.43584c-0.75707,-6.00039 -3.77653,-5.62282 -4.12266,-10.96264c-0.25298,-3.90273 -2.26119,-6.44504 -2.57636,-10.42801z" fill="#ffffff" stroke="#000000" stroke-width="1.5" stroke-linecap="butt"/><path d="M202.30357,102.74774c0,0 -0.53953,-2.7308 -0.49106,-4.18304c0.07515,-2.25211 0.89815,-8.01696 0.89815,-8.01696c0,0 29.15586,-3.58106 37.15113,-4.56307c1.66261,-0.20421 9.13692,-2.07303 16.11813,-4.79184c9.02243,-3.51377 17.76693,-8.04508 17.76693,-8.04508c0,0 2.42753,1.88458 3.35048,3.08168c0.72496,0.9403 1.33098,4.11832 1.33098,4.11832c0,0 -9.90941,5.32062 -19.04054,8.49101c-6.22105,2.15999 -12.40803,2.46458 -13.5736,2.76316c-8.99825,2.30503 -43.51059,11.14584 -43.51059,11.14584z" fill="#0363ff" stroke="none" stroke-width="0" stroke-linecap="butt"/><g><path d="M231.16426,164.2942v-16.56578h16.29949v16.56578z" fill="#000000" stroke="none" stroke-width="1.25" stroke-linecap="butt"/><path d="M240.00432,161.90375c-2.70058,0 -4.88984,-1.01137 -4.88984,-2.25897c0,-1.24759 2.18926,-2.25897 4.88984,-2.25897c2.70058,0 4.88984,1.01137 4.88984,2.25897c0,1.24759 -2.18927,2.25897 -4.88984,2.25897z" fill="#ffffff" stroke="#000000" stroke-width="1.25" stroke-linecap="butt"/><path d="M233.53343,154.05355c0,0 2.49381,5.94142 6.259,6.32511c3.76519,0.38369 7.04138,-4.96972 7.04138,-4.96972l7.82376,-0.4518c0,0 -2.40663,13.43698 -13.69157,13.55381c-13.39667,0.13869 -16.42988,-14.90919 -16.42988,-14.90919z" fill="#ffffff" stroke="#000000" stroke-width="1.9" stroke-linecap="round"/><path d="M240.00432,154.58066c-2.70058,0 -4.88984,-1.5947 -4.88984,-2.84229c0,-1.24759 2.18926,-2.25897 4.88984,-2.25897c2.70058,0 6.62155,1.01137 6.62155,2.25897c0,1.24759 -3.92098,2.84229 -6.62155,2.84229z" fill="#ffffff" stroke="#000000" stroke-width="1.25" stroke-linecap="butt"/><path d="M224.92731,152.69816c0,0 5.64525,-5.28733 10.17088,-8.13229c4.24029,-2.66558 5.08544,1.35538 5.08544,1.35538c0,0 1.1748,-3.20952 3.1295,-2.25897c1.95469,0.95055 10.17088,10.39126 10.17088,10.39126c0,0 -4.5915,0.67554 -7.43256,0c-2.84107,-0.67554 -5.86781,-3.16256 -5.86781,-3.16256c0,0 -3.41429,2.42013 -5.86781,2.71076c-2.45352,0.29063 -9.3885,-0.90359 -9.3885,-0.90359z" fill="#ffffff" stroke="#000000" stroke-width="1.25" stroke-linecap="round"/></g><path d="M202.49499,102.74774c0,0 23.84486,-9.4808 23.89247,-10.93304c0.07384,-2.25211 -23.49247,-1.26696 -23.49247,-1.26696c0,0 22.20202,-2.77525 32.87561,-4.10945c-0.1504,1.38097 -0.25346,2.74311 -0.27355,3.92688c-0.02268,1.33617 1.91499,2.0582 3.3567,2.90382c-12.99888,3.38881 -36.35876,9.47875 -36.35876,9.47875z" fill="#0250ce" stroke="none" stroke-width="0" stroke-linecap="butt"/><path d="M222.44969,97.70699c0,0 6.95234,-5.52795 6.46259,-6.60537c-0.62893,-1.38364 -7.42413,-3.01001 -7.42413,-3.01001l22.3173,-3.1923l-3.89423,4.17307c0,0 5.93246,1.48989 3.52049,2.63079c-3.18882,1.50837 -20.98203,6.00382 -20.98203,6.00382z" fill="#023c99" stroke="none" stroke-width="0" stroke-linecap="butt"/><path d="M257.37496,111.70107c4.97056,0 9,4.32791 9,9.66666c0,5.33876 -7.52943,13 -12.33333,14.5c-4.74464,1.4815 -9.5,-9.32791 -9.5,-14.66667c0,-5.33876 7.86276,-9.5 12.83333,-9.5z" data-paper-data="{&quot;index&quot;:null}" fill="#a6a6a6" stroke="none" stroke-width="0" stroke-linecap="butt"/><path d="M237.875,120.36775c0,5.33875 -4.75536,16.14817 -9.5,14.66667c-4.8039,-1.5 -12.33333,-9.16125 -12.33333,-14.5c0,-5.33875 4.02944,-9.66667 9,-9.66667c4.97056,0 12.83333,4.16125 12.83333,9.5z" fill="#a6a6a6" stroke="none" stroke-width="0" stroke-linecap="butt"/><path d="M267.29652,118.02398c0,6.35078 -5.21432,11.4991 -11.64652,11.4991c-6.4322,0 -11.64652,-5.14832 -11.64652,-11.4991c0,-6.35078 5.21432,-11.4991 11.64652,-11.4991c6.4322,0 11.64652,5.14832 11.64652,11.4991z" fill="#23457d" stroke="none" stroke-width="0" stroke-linecap="butt"/><path d="M237.8607,117.59541c0,6.19298 -5.08476,11.21338 -11.35714,11.21338c-6.27238,0 -11.35715,-5.0204 -11.35715,-11.21338c0,-6.19298 5.08477,-11.21339 11.35715,-11.21339c6.27238,0 11.35714,5.0204 11.35714,11.21339z" fill="#23457d" stroke="none" stroke-width="0" stroke-linecap="butt"/><path d="M237.86803,116.82146c0,5.84443 -4.79859,10.58228 -10.71795,10.58228c-5.91936,0 -10.71795,-4.73785 -10.71795,-10.58228c0,-5.84443 4.79859,-10.58228 10.71795,-10.58228c5.91936,0 10.71795,4.73785 10.71795,10.58228z" fill="#162c50" stroke="none" stroke-width="0" stroke-linecap="butt"/><path d="M265.43944,117.25003c0,5.84443 -4.79859,10.58228 -10.71795,10.58228c-5.91936,0 -10.71795,-4.73785 -10.71795,-10.58228c0,-5.84443 4.79859,-10.58228 10.71795,-10.58228c5.91936,0 10.71795,4.73785 10.71795,10.58228z" fill="#162c50" stroke="none" stroke-width="0" stroke-linecap="butt"/><path d="M260.96443,101.10854c0,0 1.52429,0.31807 4.2558,1.11029c2.49492,0.72361 4.44935,1.74403 4.44935,1.74403l0.1951,1.17035c0,0 -7.24963,-3.12997 -15.1158,-2.4706c-6.2896,0.52724 -9.96319,2.8124 -9.96319,2.8124l0.04575,-4.17683c0,0 3.12748,-1.70421 7.86366,-1.85557c4.90428,-0.15672 8.09084,0.59125 8.09084,0.59125z" data-paper-data="{&quot;index&quot;:null}" fill="#000000" stroke="none" stroke-width="1.5" stroke-linecap="butt"/><path d="M240.85998,147.7112c-1.03376,0 -3.5381,-3.26042 -3.7867,-5.3637c-0.22243,-1.88186 1.31512,-3.82799 3.7867,-3.82799c2.47159,0 4.2021,0.49077 4.02999,4.18853c-0.14607,3.13818 -1.55841,5.00317 -4.02999,5.00317z" fill="#ffffff" stroke="#000000" stroke-width="1.15" stroke-linecap="butt"/><path d="M244.46208,118.00282c0,0 0.1026,3.96976 0.00576,7.12662c-0.19174,6.25113 -1.08147,27.7607 -1.08147,27.7607l-2.98167,0.00864c0,0 -0.80294,-4.17274 -1.12322,-9.49979c-0.43353,-7.21063 -0.4495,-16.29321 -0.76344,-19.63229c-0.29758,-3.16513 -0.89593,-5.71453 -0.89593,-5.71453" fill="#a6a6a6" stroke="#000000" stroke-width="1.3" stroke-linecap="round"/><path d="M214.92748,128.79267c0,0 -4.93211,-3.51705 -6.16417,-8.97502c-1.29636,-5.74284 -1.46118,-9.7328 0.48013,-9.99193c1.94131,-0.25915 2.70321,2.37692 3.73262,8.35569c1.0294,5.97877 1.95143,10.61127 1.95143,10.61127z" data-paper-data="{&quot;index&quot;:null}" fill="#ffffff" stroke="#000000" stroke-width="1" stroke-linecap="butt"/><path d="M214.72488,124.84511c0,0 -3.56385,-2.92338 -4.31816,-8.45061c-0.42079,-3.08327 2.15675,-2.28016 2.15675,-2.28016" fill="none" stroke="#000000" stroke-width="0.25" stroke-linecap="round"/><path d="M221.1997,103.81203c0,0 3.36963,-1.819 8.03244,-2.28178c5.16698,-0.51283 7.76823,-0.06628 7.76823,-0.06628l0.29508,4.13747c0,0 -3.83554,-0.68065 -8.01795,-0.52113c-5.59346,0.21333 -6.64488,1.43293 -10.89774,1.89119c-3.64408,0.39266 -6.73723,0.15884 -6.73723,0.15884l-0.02589,-1.23155c0,0 3.59517,0.07398 5.23371,-0.06836c1.35239,-0.11749 3.9757,-0.93808 3.9757,-0.93808z" fill="#000000" stroke="none" stroke-width="1.5" stroke-linecap="butt"/><path d="M269.16064,118.18139c1.0294,-5.97877 1.7913,-8.61483 3.73262,-8.35569c1.94131,0.25914 1.77649,4.24909 0.48013,9.99193c-1.23206,5.45797 -6.16417,8.97502 -6.16417,8.97502c0,0 0.92203,-4.6325 1.95143,-10.61127z" data-paper-data="{&quot;index&quot;:null}" fill="#ffffff" stroke="#000000" stroke-width="1" stroke-linecap="butt"/><path d="M269.57313,114.11434c0,0 2.57754,-0.80312 2.15675,2.28016c-0.75431,5.52723 -4.31816,8.45061 -4.31816,8.45061" data-paper-data="{&quot;index&quot;:null}" fill="none" stroke="#000000" stroke-width="0.25" stroke-linecap="round"/><path d="M237.875,116.90782c0,4.99269 -4.36691,9.04007 -9.75376,9.04007c-5.38685,0 -9.75376,-4.04737 -9.75376,-9.04007c0,-4.99269 4.36691,-9.04007 9.75376,-9.04007c5.38685,0 9.75376,4.04737 9.75376,9.04007z" fill="#000000" stroke="none" stroke-width="0" stroke-linecap="butt"/><path d="M263.47542,116.99788c0,5.31857 -4.23848,9.63014 -9.46691,9.63014c-5.22843,0 -9.46691,-4.31155 -9.46691,-9.63014c0,-5.31857 4.23848,-9.63013 9.46691,-9.63013c5.22843,0 9.46691,4.31155 9.46691,9.63013z" fill="#000000" stroke="none" stroke-width="0" stroke-linecap="butt"/><path d="M244.79335,116.85325c0.17282,-4.15057 3.78076,-7.52178 8.29617,-7.52178c4.5154,0 7.87505,3.36761 7.87505,7.52178c0,4.15416 -3.2995,7.70227 -8.23602,7.76242c-4.69553,0.05722 -8.11568,-3.42777 -7.9352,-7.76242z" fill="#ffffff" stroke="#000000" stroke-width="1.4" stroke-linecap="butt"/><path d="M249.39732,116.75466c0,-1.79442 1.52928,-3.24908 3.41575,-3.24908c1.88647,0 3.41575,1.45466 3.41575,3.24908c0,1.79442 -1.52927,3.24908 -3.41575,3.24908c-1.88647,0 -3.41575,-1.45466 -3.41575,-3.24908z" fill="#a10000" stroke="none" stroke-width="1.5" stroke-linecap="butt"/><path d="M220.95829,116.70099c0.05902,-4.07013 4.02559,-7.43499 8.49604,-7.37018c4.47045,0.06481 7.51083,3.53474 7.45182,7.60488c-0.05902,4.07013 -3.43084,7.31709 -7.9013,7.25228c-4.47045,-0.06481 -8.10558,-3.41685 -8.04656,-7.48699z" fill="#ffffff" stroke="#000000" stroke-width="1.4" stroke-linecap="butt"/><path d="M226.1757,116.33614c0.02398,-1.65397 1.38422,-2.97533 3.03818,-2.95135c1.65397,0.02398 2.97533,1.38422 2.95135,3.03818c-0.02398,1.65397 -1.38422,2.97533 -3.03818,2.95135c-1.65397,-0.02398 -2.97533,-1.38422 -2.95135,-3.03818z" fill="#cc1414" stroke="none" stroke-width="1.5" stroke-linecap="butt"/><path d="M238.05601,90.40191c-1.1453,-0.29858 -7.22461,-0.60317 -13.33739,-2.76316c-8.97223,-3.17039 -18.70919,-8.491 -18.70919,-8.491c0,0 0.59548,-3.17803 1.30782,-4.11832c0.90689,-1.1971 3.29218,-3.08168 3.29218,-3.08168c0,0 8.59233,4.53131 17.45775,8.04508c6.85971,2.71881 14.20396,4.58763 15.83763,4.79184c7.85613,0.98202 36.50462,4.56307 36.50462,4.56307c0,0 0.80868,5.76485 0.88252,8.01696c0.04762,1.45224 -0.48252,4.18304 -0.48252,4.18304c0,0 -33.91176,-8.84081 -42.75342,-11.14584z" data-paper-data="{&quot;index&quot;:null}" fill="#0363ff" stroke="none" stroke-width="0" stroke-linecap="butt"/><path d="M222.60943,87.26893c1.44171,-0.84562 3.37938,-1.56766 3.3567,-2.90382c-0.02009,-1.18377 0.21018,-3.87925 0.05978,-5.26022c4.2164,0.52705 10.0025,4.09108 15.86349,5.18559c8.9758,1.67619 17.34546,2.2572 17.34546,2.2572c0,0 0.14202,3.76485 0.21586,6.01696c0.04762,1.45224 -0.28253,3.38304 -0.28253,3.38304c0,0 -9.30151,-1.93908 -18.96121,-4.45737c-6.27103,-1.63486 -12.48062,-2.88739 -17.59754,-4.22138z" data-paper-data="{&quot;index&quot;:null}" fill="#0250ce" stroke="none" stroke-width="0" stroke-linecap="butt"/><path d="M243.57497,92.52489c0,0 -6.6683,-0.18742 -10.02468,-1.13352c-3.70445,-1.04421 -11.26103,-4.86648 -11.26103,-4.86648l22.28571,-2l19.42857,2.71429c0,0 -6.70374,3.28898 -10.40192,4.24585c-2.93173,0.75856 -10.02665,1.03986 -10.02665,1.03986z" fill="#cc1414" stroke="none" stroke-width="0" stroke-linecap="butt"/><path d="M244.05199,92.5249c0,0 -4.08776,-0.18743 -6.14527,-1.13352c-2.27088,-1.04421 -6.90317,-4.86648 -6.90317,-4.86648l13.66145,-2l11.90998,2.71428c0,0 -4.10949,3.28898 -6.37652,4.24585c-1.79719,0.75856 -6.14647,1.03987 -6.14647,1.03987zM237.23385,88.50085c0.09978,1.49668 1.59646,1.3969 1.59646,1.3969c3.4793,-0.23206 6.90604,-0.36192 10.36864,0.10128l0.42047,0.01316c0,0 1.5,0 1.5,-1.5c0,-1.5 -13.98535,-1.50802 -13.88557,-0.01134z" fill="#a10000" stroke="none" stroke-width="0" stroke-linecap="butt"/><path d="M239.33498,124.30773c0,-2.14108 -1.2,-6.6 -1.2,-6.6l5.9,-0.1l-0.41457,10.69596c-1.41279,-0.03002 -2.82494,-0.06361 -4.23485,-0.08203c-0.02519,-1.29444 -0.05058,-2.86033 -0.05058,-3.91393z" fill="#ffffff" stroke="none" stroke-width="0" stroke-linecap="butt"/><path d="M239.45523,131.67807c1.35268,-0.06741 2.71633,-0.07282 4.08012,-0.05648l-0.04355,1.85953c-0.54453,0.00029 -1.37479,3.57449 -1.91899,3.58114c-0.77206,0.00944 -1.25776,-3.5447 -2.02756,-3.51551c-0.03325,-0.54665 -0.06511,-1.17448 -0.09002,-1.86868z" fill="#ffffff" stroke="none" stroke-width="0" stroke-linecap="butt"/><path d="M239.73498,135.52235c0,0 -0.05599,-0.49555 -0.12182,-1.36418c0.60529,-0.02291 1.21161,6.67598 1.81848,6.66605c0.67847,-0.0111 1.35762,-6.72966 2.03678,-6.72997l-0.03345,1.4281c0,0 -0.38453,6.85715 -1.86,6.85715c-1.61499,0 -1.84,-6.85715 -1.84,-6.85715z" fill="#ffffff" stroke="none" stroke-width="0" stroke-linecap="butt"/><path d="M239.40598,129.22155c1.39001,0.09448 2.78247,0.26822 4.17564,0.42529l-0.02289,0.97729c-1.38117,-0.01646 -2.76239,-0.01156 -4.13289,0.05534c-0.01069,-0.46443 -0.01775,-0.95156 -0.01986,-1.45791z" fill="#ffffff" stroke="none" stroke-width="0" stroke-linecap="butt"/><path d="M242.94639,272.13178l9.5,2.66667h11.83333v6l-7.68664,-0.1175z" fill="#ff0000" stroke="none" stroke-width="0" stroke-linecap="butt"/><path d="M227.19437,299.01431l-9.248,0.11749v-6h14.23699l11.42969,-2.66667z" data-paper-data="{&quot;index&quot;:null}" fill="#cc0000" stroke="none" stroke-width="0" stroke-linecap="butt"/><path d="M238.61305,280.13178l11.42969,2.66667h14.23698v6l-9.24799,-0.1175z" data-paper-data="{&quot;index&quot;:null}" fill="#e60000" stroke="none" stroke-width="0" stroke-linecap="butt"/><path d="M227.19437,276.0143l-9.24799,0.1175v-6h14.23699l11.42968,-2.66667z" data-paper-data="{&quot;index&quot;:null}" fill="#ff0000" stroke="none" stroke-width="0" stroke-linecap="butt"/><path d="M220.68128,120.16141c0,0 0.2301,-5.11385 0.91917,-6.49198c0.50945,-1.01891 1.91087,-2.42565 1.91087,-2.42565c0,0 1.98654,-1.20995 3.38506,-1.52364c1.39593,-0.31311 5.92905,1.03935 5.92905,1.03935c0,0 2.5859,0.89358 3.0596,2.31466c0.55731,1.67193 0.07438,7.08725 0.07438,7.08725c0,0 -1.43969,-2.00505 -3.02203,-2.5893c-0.7963,-0.29402 -2.08002,-1.44328 -3.50794,-1.60547c-3.5735,-0.40589 -8.74813,4.19477 -8.74813,4.19477z" fill="#ffffff" stroke="#000000" stroke-width="1.5" stroke-linecap="butt"/><path d="M244.87755,118.99533c0,0 0.2301,-5.11385 0.91916,-6.49198c0.50946,-1.01891 1.91087,-2.42565 1.91087,-2.42565c0,0 1.98654,-1.20995 3.38506,-1.52363c1.39594,-0.3131 5.92906,1.03934 5.92906,1.03934c0,0 2.5859,0.89358 3.05959,2.31467c0.55731,1.67193 0.07438,7.08725 0.07438,7.08725c0,0 -1.67238,-1.42335 -3.25473,-2.0076c-1.46271,-0.54008 -3.75566,-2.10522 -6.38034,-2.25451c-2.3801,-0.13538 -5.64305,4.26211 -5.64305,4.26211z" fill="#ffffff" stroke="#000000" stroke-width="1.5" stroke-linecap="butt"/><g fill="#000000" stroke="#a80000" stroke-width="0.5" stroke-linecap="butt"><path d="M265.45027,218.79698c0.48121,3.65961 -2.09541,7.01641 -5.75502,7.49762c-3.65961,0.48121 0.26901,-3.16762 -0.2122,-6.82723c-0.48121,-3.65961 -5.19,-5.9442 -1.53039,-6.42541c3.65961,-0.48121 7.0164,2.09541 7.49761,5.75502z"/><path d="M251.72159,223.00147l-0.66455,-5.05397l4.04938,-3.96002c0,0 0.76579,1.37625 1.68248,2.71439c0.76649,1.11888 1.41793,1.74871 1.4972,2.35161c0.06081,0.46245 -0.19734,1.91557 -0.59468,3.11919c-0.64387,1.95043 -1.29748,4.21325 -1.29748,4.21325z"/><path d="M264.22766,213.26417c0.10343,0.78666 -1.31419,-0.70873 -3.78658,-1.35547c-1.26407,-0.33067 -2.65808,-0.10119 -4.03605,0.08c-0.34078,0.0448 -0.68464,0.15803 -0.96788,0.30679c-0.71132,0.37357 -1.32372,0.9323 -1.91949,1.45108c-2.0025,1.74373 -3.22152,3.91738 -3.33192,3.07779c-0.15632,-1.18885 2.5059,-5.90883 6.57902,-6.44441c4.07312,-0.53558 7.30657,1.69538 7.46289,2.88423z"/></g></g></g></svg>