<svg version="1.1" xmlns="http://www.w3.org/2000/svg" xmlns:xlink="http://www.w3.org/1999/xlink" width="104.64372" height="249.83541" viewBox="0,0,104.64372,249.83541"><g transform="translate(-186.77655,-55.66446)"><g data-paper-data="{&quot;isPaintingLayer&quot;:true}" fill-rule="nonzero" stroke-linejoin="miter" stroke-miterlimit="10" stroke-dasharray="" stroke-dashoffset="0" style="mix-blend-mode: normal"><path d="M201.54538,304.3916c0,0 -0.63536,-94.38387 -0.79335,-118.01201c-0.05451,-8.15261 8.18688,-36.76129 40.20201,-36.9211c31.60235,-0.15775 39.85672,29.48704 39.84884,36.89673c-0.07659,46.24274 0.65429,117.98648 0.65429,117.98648l-10.49667,0.09614l-0.15882,-114.84311c0,0 0.07549,-3.0993 -2.81625,-3.15415c-3.43441,-0.06514 -2.94538,3.11562 -2.94538,3.11562l0.20548,114.86995l-48.21366,0.07222l-0.30539,-115.23309c0,0 0.27949,-2.919 -2.8856,-2.93443c-3.11083,-0.01515 -2.81569,2.90899 -2.81569,2.90899l0.35311,115.0668z" fill="#000a0a" stroke="#000000" stroke-width="2" stroke-linecap="butt"/><path d="M256.14252,200.33377c-0.57113,0 -1.03411,-0.46299 -1.03411,-1.03411c0,-0.57113 0.46299,-1.03413 1.03411,-1.03413c0.57113,0 1.03411,0.463 1.03411,1.03413c0,0.57113 -0.46299,1.03411 -1.03411,1.03411z" fill="#000a0a" stroke="none" stroke-width="1.5" stroke-linecap="butt"/><path d="M250.88267,204.56936c-4.4635,-0.31439 -6.55245,-1.79392 -6.16985,-2.58011c0.11788,-0.24224 2.84645,1.06355 6.97038,1.3048c6.40897,0.37493 8.51033,-0.63173 8.51033,-0.63173v1.34616c0,0 -2.4135,1.04672 -9.31086,0.56089z" fill="#000a0a" stroke="#000000" stroke-width="0" stroke-linecap="butt"/><path d="M223.06992,199.29966c0,-0.57113 0.46299,-1.03413 1.03411,-1.03413c0.57113,0 1.03413,0.463 1.03413,1.03413c0,0.57113 -0.463,1.03411 -1.03413,1.03411c-0.57113,0 -1.03411,-0.46299 -1.03411,-1.03411z" fill="#000a0a" stroke="none" stroke-width="1.5" stroke-linecap="butt"/><path d="M229.36389,204.56936c-6.89736,0.48585 -9.31086,-0.56089 -9.31086,-0.56089v-1.34616c0,0 2.10136,1.00666 8.51033,0.63173c4.12393,-0.24126 6.85251,-1.54704 6.97039,-1.3048c0.3826,0.78618 -1.70634,2.26571 -6.16985,2.58011z" fill="#000a0a" stroke="#000000" stroke-width="0" stroke-linecap="butt"/><path d="M240.64435,261.12113c-0.81895,0 -1.48284,-0.66389 -1.48284,-1.48284c0,-0.81895 0.66389,-1.48284 1.48284,-1.48284c0.81895,0 1.48284,0.66389 1.48284,1.48284c0,0.81895 -0.66389,1.48284 -1.48284,1.48284z" data-paper-data="{&quot;index&quot;:null}" fill="#000a0a" stroke="none" stroke-width="1.5" stroke-linecap="butt"/><path d="M216.58111,304.40603v-119.20147c0,0 0.75721,-9.73105 0.75721,-14.63937c0,-4.498 -0.75721,-13.6872 -0.75721,-13.6872c0,0 2.67319,-2.35297 4.6557,-3.74807c1.98251,-1.3951 5.17197,-2.80371 5.17197,-2.80371c0,0 -0.6016,40.10902 14.55952,40.03867c15.43477,-0.07162 13.83154,-40.03867 13.83154,-40.03867c0,0 3.91276,1.51959 6.16585,2.94655c2.25309,1.42695 4.75379,3.60523 4.75379,3.60523c0,0 -0.75721,9.42463 -0.75721,14.19201c0,4.84193 0.75721,14.63937 0.75721,14.63937v118.69667z" fill="#000a0a" stroke="#000000" stroke-width="2" stroke-linecap="butt"/><g stroke="none" stroke-width="0" stroke-linecap="butt"><path d="M191.14678,186.67974v-21.6351c0,0 38.15723,4.57808 54.96609,4.57808c15.50672,0 42.29598,-4.57808 42.29598,-4.57808v21.6351c0,0 -31.73942,6.2764 -48.07208,6.2764c-16.08423,0 -49.19,-6.2764 -49.19,-6.2764z" fill="#f7dfaf"/><path d="M191.59122,190.65271v-14.83161c0,0 38.15723,3.13843 54.9661,3.13843c15.50671,0 42.29599,-3.13843 42.29599,-3.13843v14.83161c0,0 -31.73943,4.3027 -48.07209,4.3027c-16.08423,0 -49.18999,-4.30269 -49.18999,-4.30269z" fill="#b57e0c"/></g><g stroke="none" stroke-width="0" stroke-linecap="butt"><path d="M191.81085,225.83152v-21.6351c0,0 38.15723,4.57808 54.96609,4.57808c15.50672,0 42.29598,-4.57808 42.29598,-4.57808v21.6351c0,0 -31.73943,6.2764 -48.07208,6.2764c-16.08423,0 -49.19,-6.2764 -49.19,-6.2764z" fill="#f7dfaf"/><path d="M192.25528,229.80449v-14.83161c0,0 38.15724,3.13843 54.9661,3.13843c15.50672,0 42.29599,-3.13843 42.29599,-3.13843v14.83161c0,0 -31.73943,4.3027 -48.07209,4.3027c-16.08423,0 -49.19,-4.30269 -49.19,-4.30269z" fill="#b57e0c"/></g><g stroke="none" stroke-width="0" stroke-linecap="butt"><path d="M193.71373,263.47659v-21.6351c0,0 38.15723,4.57808 54.96609,4.57808c15.50672,0 42.29598,-4.57808 42.29598,-4.57808v21.6351c0,0 -31.73942,6.27641 -48.07208,6.27641c-16.08423,0 -49.19,-6.27641 -49.19,-6.27641z" fill="#f7dfaf"/><path d="M194.15818,267.44958v-14.83161c0,0 38.15723,3.13843 54.9661,3.13843c15.50671,0 42.29599,-3.13843 42.29599,-3.13843v14.83161c0,0 -31.73943,4.30269 -48.07209,4.30269c-16.08423,0 -49.19,-4.30269 -49.19,-4.30269z" fill="#b57e0c"/></g><path d="M264.92098,196.93493c-1.81397,-0.93215 -1.3877,-2.58367 -1.16909,-3.16052c-0.1294,-4.14203 -0.22286,-8.28489 -0.32515,-12.42771c0,0 -0.00051,-0.02072 0.00044,-0.05842c-0.28856,-0.84044 -0.02577,-1.68419 -0.02577,-1.68419l0.29178,0.18625c-0.14968,-0.66794 -0.31013,-1.32931 -0.47932,-1.98575l-1.66219,-2.46845l0.07825,-0.05269c-0.12527,-0.15662 -0.24363,-0.31937 -0.354,-0.48919c-0.05732,-0.0882 -0.39497,-3.08608 -0.67453,-5.6457c-0.21452,-0.66905 -0.4287,-1.3407 -0.6403,-2.01679c0,0 -0.35061,-1.12088 0.19703,-2.06644c-0.11558,-1.01274 -0.22194,-2.02508 -0.32096,-3.03718c-0.73243,3.22867 -1.5796,6.43742 -2.5283,9.60004l0.16684,0.01491l-0.09699,1.08525c1.41875,0.50212 1.54267,2.17809 1.54267,2.17809c0.53889,7.28811 0.83995,14.6265 1.44553,21.90027c0.11027,1.32455 0.26002,2.6452 0.4366,3.96306c0.00646,0.02316 0.01291,0.04632 0.01937,0.06948l0.00574,0.11662c0.68365,5.03012 1.74969,10.02033 2.49474,15.03231l0.07751,2.73011c0,0 0.01392,0.52152 -0.20919,1.09444c0.33065,1.59259 0.64283,3.19006 0.92852,4.79558l-0.66839,0.83083c0.6217,2.61093 1.25904,5.21773 1.93443,7.8179l-1.72843,3.87085c0,0 -1.50137,1.99897 -3.50034,0.4976c-1.99897,-1.50137 -0.4976,-3.50034 -0.4976,-3.50034l0.88691,0.38871c-1.23245,-4.74644 -2.34055,-9.51452 -3.45596,-14.28967c0,0 -0.32718,-1.40069 0.57726,-2.32533c-0.16963,-0.76795 -0.3425,-1.53519 -0.51765,-2.3021c-0.30973,0.04059 -0.66426,0.02164 -1.06907,-0.08237c-2.01091,-0.51668 -1.92269,-2.2743 -1.835,-2.85532c-2.10222,-6.59839 -3.30215,-13.44375 -3.87401,-20.35086c-0.73042,-8.82226 -0.43995,-17.07298 -2.56515,-25.47178c-0.31396,1.46136 -0.69593,2.89663 -1.14935,4.33359l0.43225,0.08213l-0.92496,4.86805c-0.13373,0.78548 -0.63387,1.4461 -1.31834,1.7998l0.37565,1.60254c0.05126,0.19948 0.07852,0.40859 0.07852,0.62406c0,0.2865 -0.04819,0.56174 -0.13691,0.81806c0.71745,5.89276 1.34557,11.77999 2.50823,17.59113c0.49575,1.53245 1.0001,3.06253 1.52074,4.58815l0.07091,0.11561c0,0 0.7157,1.31503 0.02173,2.46363l-0.00164,0.38021c0,0 -0.20901,2.49125 -2.70026,2.28224c-2.49125,-0.20901 -2.28224,-2.70026 -2.28224,-2.70026l0.26383,-0.62137c-0.00679,-0.01983 -0.01357,-0.03966 -0.02036,-0.05948l-1.01562,-2.00261c-0.25197,-1.05516 -0.4833,-2.11292 -0.69748,-3.17293c-0.12208,-0.37876 -0.24367,-0.75766 -0.3649,-1.13665l-0.21746,1.64856c0,0 -0.33936,2.47686 -2.81622,2.1375c-2.47686,-0.33936 -2.1375,-2.81622 -2.1375,-2.81622l0.26674,-1.8595c0.14442,-3.30048 -0.23001,-6.57437 -0.88439,-9.81343c-2.30504,0.52476 -2.92846,-1.80045 -2.92846,-1.80045l-0.3591,-1.38046c-0.36781,-2.15635 -0.68304,-4.32587 -0.85428,-6.50665c0,0 -0.05103,-0.65789 0.23734,-1.32389c-1.40689,-2.76155 -1.98536,-6.24846 -2.16984,-9.57068c-0.6651,1.8184 -1.29981,3.67534 -2.03706,5.54987c-0.40421,1.02775 -0.2215,2.41137 -1.04906,3.14267c-4.26076,3.76516 -6.11864,3.02401 -7.67777,-1.95784c-1.49864,-4.78854 1.37565,-12.00129 2.49811,-16.67697c0,0 0.56463,-2.352 2.89661,-1.87361c0.3374,-1.17432 0.66458,-2.35176 0.97634,-3.534c0,0 0.63817,-2.41717 3.05535,-1.779c0.22278,0.05882 0.4196,0.13274 0.59336,0.2185l1.39121,-1.25472c0,0 2.24803,-1.09378 3.34181,1.15425c0.36456,0.74929 0.35787,1.37034 0.18691,1.86541c1.2027,0.18103 2.12476,1.21885 2.12476,2.47203c0,0.23584 -0.03266,0.46405 -0.0937,0.68037c0.79662,0.37039 1.2229,1.12811 1.2229,1.12811c0.0798,0.14203 0.15895,0.28405 0.23747,0.42609c0.73753,0.19209 1.34253,0.7125 1.64958,1.3958l1.90319,4.00112l-0.05119,0.02435c0.07251,0.13051 0.14171,0.26318 0.20725,0.3982c0.41159,0.8479 0.42936,1.79928 0.40502,2.76596c0.10498,0.24867 0.20931,0.49782 0.31307,0.7475c0.32439,-2.73401 1.07592,-5.52522 1.18688,-8.36915c0,-0.31002 0,-2.47437 0,-2.47437c0,-1.38071 1.11929,-2.5 2.5,-2.5c1.15557,0 2.12802,0.78402 2.41443,1.84914l0.70694,2.40741l-0.31772,0.0933c1.8343,2.96651 3.08069,5.98236 4.26523,9.26285c0.05024,-0.18736 0.0965,-0.37499 0.13676,-0.56304c1.10142,-5.14425 2.53842,-10.08224 3.27911,-15.29439l0.02313,-2.65709c0.00788,-1.05788 0.67282,-1.95944 1.60693,-2.31678c-0.45058,-0.88908 -0.176,-1.89088 -0.176,-1.89088l5.11007,-0.28586c0.20615,2.66258 0.38499,5.3193 0.57136,7.9735c1.01422,2.35756 0.40098,5.24471 0.84457,7.81328c0.79935,4.62853 1.7193,9.23712 2.67942,13.83527l-0.01042,0.06097l0.02038,-0.00327l0.50888,3.16875c0.01445,0.08102 0.025,0.16339 0.03144,0.24691c0.17343,0.67357 0.33819,1.35208 0.49233,2.03714l-0.29136,1.76086c0.13646,0.4268 0.14488,0.76759 0.14488,0.76759c0.10705,4.3356 0.20428,8.67126 0.34359,13.00596l-0.48159,1.62473c0,0 -1.14265,2.22359 -3.36624,1.08095z" fill="#000a0a" stroke="none" stroke-width="0.5" stroke-linecap="butt"/><g><path d="M188.15407,108.37258c0,0 5.56482,-6.48749 5.60923,-7.36156c0.11647,-2.29247 -4.03289,-39.97057 31.80012,-44.8421c44.34125,-5.20479 42.23547,31.43021 45.39816,37.99793c4.33653,9.00532 7.80251,16.72695 7.80251,16.72695c0,0 -2.95193,-1.77769 -4.36235,-2.72682c-1.3155,-0.88524 -4.08652,-2.76543 -4.08652,-2.76543c0,0 4.07258,10.00261 3.29634,20.47278c-0.64268,9.58732 -5.60632,17.84776 -5.60632,17.84776l-1.37575,-2.22528c0,0 -0.8064,2.28614 -1.8293,3.52513c-1.02293,1.23898 -3.14247,3.23013 -3.14247,3.23013l-0.44808,-3.67816c0,0 -5.96707,11.64622 -23.19147,13.16438c-16.25516,1.31488 -26.9778,-8.11676 -26.9778,-8.11676l0.13982,2.6537c0,0 -4.19357,-2.90268 -7.08694,-9.06764c-3.44856,-7.34792 -4.40261,-11.87468 -4.40261,-11.87468c0,0 -2.14547,2.11544 -5.42353,3.31169c-4.1076,1.49896 -6.88118,1.01215 -6.88118,1.01215c0,0 3.32973,-3.05175 5.09903,-5.2851c1.57595,-1.98929 2.3093,-3.61623 2.3093,-3.61623c0,0 -1.99342,1.28248 -4.05742,2.01776c-2.15357,0.7672 -3.96029,0.91629 -3.96029,0.91629c0,0 4.46709,-5.49265 5.95166,-11.50041c1.40167,-5.67229 1.03554,-11.10852 1.03554,-11.10852c0,0 -1.29167,0.78959 -3.23817,1.1119c-1.23383,0.20431 -2.37152,0.18015 -2.37152,0.18015z" fill="#000a0a" stroke="none" stroke-width="1.5" stroke-linecap="butt"/><path d="M205.8713,118.63601c-1.27625,-7.20385 -1.31735,-17.1071 -1.31735,-17.1071c0,0 3.39079,-0.36926 13.54714,-4.46864c7.80274,-3.14943 19.53898,-11.42048 19.53898,-11.42048c0,0 -1.86085,3.19895 -2.96279,4.76739c-1.17148,1.66743 -3.5353,4.92603 -3.5353,4.92603c0,0 7.64115,-2.41413 14.15156,-6.11953c8.18835,-4.34388 9.96086,-7.04433 12.44835,-5.81762c2.93586,1.44783 3.25618,22.97598 3.48088,28.5381c0.12588,5.68348 -1.60734,9.69938 -1.93083,12.76559c-0.32348,3.0662 0.18284,6.14756 -0.65245,16.17757c-0.52128,6.25942 -3.28369,9.28374 -8.5621,15.55695c-5.2784,6.27322 -8.12135,10.08105 -12.05615,10.53078c-3.78669,0.4328 -9.38498,-4.21664 -14.86986,-8.99323c-5.8405,-5.08631 -9.64946,-7.58374 -11.12733,-14.13455c-1.33098,-5.89968 -1.72644,-9.78782 -2.58482,-15.06955c-0.62738,-3.86027 -2.87091,-6.19754 -3.5679,-10.13168z" fill="#000a0a" stroke="#000000" stroke-width="1.5" stroke-linecap="butt"/><path d="M252.26314,98.95998c0,0 1.54782,0.16992 4.34288,0.6956c2.55298,0.48016 4.59653,1.30776 4.59653,1.30776l0.30682,1.14615c0,0 -7.51718,-2.41781 -15.2834,-1.00452c-6.20967,1.13005 -9.64631,3.75812 -9.64631,3.75812l-0.3564,-4.16185c0,0 2.94897,-1.99726 7.6486,-2.60369c4.86643,-0.62793 8.11018,-0.19009 8.11018,-0.19009z" data-paper-data="{&quot;index&quot;:null}" fill="#000a0a" stroke="none" stroke-width="1.5" stroke-linecap="butt"/><path d="M245.67854,136.37956c0.60007,-0.10081 3.37066,-0.32467 6.51591,-0.75383c3.17029,-0.43258 7.39613,-1.6097 7.46279,-1.45474c0.08458,0.19667 -8.93161,5.4002 -11.5419,7.36949c-2.18746,1.65029 -5.44581,3.94707 -5.44581,3.94707c0,0 -6.737,2.5356 -12.72373,4.49901c-4.79815,1.57361 -9.84236,3.74599 -9.89823,3.67023c-0.07537,-0.10215 2.99864,-2.54507 5.21966,-4.61189c0.74557,-1.00186 3.97451,-3.99991 3.97451,-3.99991c0,0 4.15724,-2.712 6.88351,-3.29213c2.92119,-0.62159 3.67728,0.70583 3.90365,0.60272c0,0 0.15426,-2.1069 1.00381,-3.00554c0.84956,-0.89864 4.19759,-2.8952 4.64584,-2.97051z" fill="#000a0a" stroke="#000000" stroke-width="1.4" stroke-linecap="butt"/><path d="M231.78531,149.62574c4.92496,-1.64882 11.72999,-3.50951 11.72999,-3.50951c0,0 4.24266,-4.23577 6.40685,-5.80219c1.67783,-1.21441 9.36962,-6.2055 9.59387,-5.90445c0.21927,0.29434 -1.39518,15.68548 -12.124,21.33498c-12.15265,6.48871 -27.36651,-1.71756 -27.41805,-1.88303c-0.05154,-0.16547 6.88637,-2.58697 11.81134,-4.23579z" fill="#000a0a" stroke="#000000" stroke-width="1.9" stroke-linecap="butt"/><path d="M239.80488,141.55831c-0.89605,0.5155 -4.69267,-1.06177 -5.95699,-2.76091c-1.13122,-1.52026 -0.76896,-3.97389 1.37339,-5.20638c2.14236,-1.23251 3.88708,-1.67006 5.58185,1.62096c1.4383,2.793 1.1441,5.11384 -0.99825,6.34634z" fill="#000a0a" stroke="#000000" stroke-width="1.15" stroke-linecap="butt"/><path d="M236.89644,114.96676c0,0 0.48414,3.94147 0.69154,7.09299c0.4107,6.24056 1.59499,27.73593 1.59499,27.73593l-2.96699,0.29554c0,0 -1.20076,-4.07611 -2.03218,-9.34761c-1.1254,-7.13544 -2.01533,-16.17433 -2.64913,-19.46771c-0.60079,-3.1218 -1.44169,-5.60179 -1.44169,-5.60179" fill="#000a0a" stroke="#000000" stroke-width="1.3" stroke-linecap="round"/><path d="M208.53722,128.54869c0,0 -5.24766,-3.02611 -6.99923,-8.34019c-1.84298,-5.59143 -2.39101,-9.54701 -0.48364,-9.99175c1.90736,-0.44476 2.91939,2.10575 4.51937,7.95772c1.59997,5.85197 2.96351,10.37423 2.96351,10.37423z" data-paper-data="{&quot;index&quot;:null}" fill="#000a0a" stroke="#000000" stroke-width="1" stroke-linecap="butt"/><path d="M207.9557,124.63894c0,0 -3.82862,-2.56686 -5.11132,-7.99584c-0.71555,-3.02848 1.92732,-2.47712 1.92732,-2.47712" fill="#000a0a" stroke="#000000" stroke-width="0.25" stroke-linecap="round"/><path d="M210.3146,117.72395c-0.40015,-4.876 3.95595,-9.36021 9.31154,-9.79975c5.35557,-0.43951 9.39418,3.35997 9.79434,8.23599c0.40015,4.876 -3.25809,9.15039 -8.61369,9.58991c-5.35557,0.43951 -10.09204,-3.15015 -10.49219,-8.02616z" fill="#000a0a" stroke="#000000" stroke-width="1.4" stroke-linecap="butt"/><path d="M214.74298,117.41431c-0.22564,-2.74947 1.82032,-5.16125 4.56978,-5.3869c2.74947,-0.22564 5.16125,1.82032 5.38689,4.56979c0.22564,2.74947 -1.82031,5.16125 -4.56979,5.38689c-2.74947,0.22564 -5.16125,-1.82032 -5.3869,-4.56978z" fill="#000a0a" stroke="none" stroke-width="1.5" stroke-linecap="butt"/><path d="M244.80969,112.35707c-0.15274,-2.78616 2.04155,-5.27327 5.06045,-5.56515c3.0189,-0.29187 5.48277,1.74248 5.75128,4.51986c0.26853,2.77739 -1.70812,5.36285 -5.00468,5.72216c-3.13563,0.34177 -5.64754,-1.76716 -5.80705,-4.67688z" fill="#000a0a" stroke="#ffffff" stroke-width="1.4" stroke-linecap="butt"/><path d="M210.19526,117.20082c0,0 -0.80426,-8.97939 9.70268,-9.8041c9.44301,-0.74632 10.41645,8.44402 10.41645,8.44402z" fill="#000a0a" stroke="#000000" stroke-width="1.15" stroke-linecap="butt"/><path d="M212.7453,106.89596c0,0 3.17895,-2.13483 7.77559,-3.04416c5.09364,-1.00767 7.7258,-0.81351 7.7258,-0.81351l0.69186,4.08987c0,0 -3.88324,-0.30839 -8.03089,0.25286c-5.54697,0.75061 -6.47615,2.06572 -10.66517,2.93111c-3.58938,0.74151 -6.69068,0.80644 -6.69068,0.80644l-0.14429,-1.22334c0,0 3.58561,-0.27233 5.20284,-0.5717c1.3348,-0.24709 3.86698,-1.31631 3.86698,-1.31631z" fill="#000a0a" stroke="none" stroke-width="1.5" stroke-linecap="butt"/><path d="M261.49754,112.76775c0.44928,-6.05008 0.95397,-8.74722 2.91121,-8.67611c1.95723,0.07112 2.17713,4.05841 1.43943,9.89936c-0.70111,5.5512 -5.27188,9.52655 -5.27188,9.52655c0,0 0.47196,-4.69973 0.92124,-10.74982z" data-paper-data="{&quot;index&quot;:null}" fill="#000a0a" stroke="#000000" stroke-width="1" stroke-linecap="butt"/><path d="M261.51681,108.67986c0,0 2.4883,-1.04743 2.36617,2.06203c-0.21892,5.57417 -3.48491,8.82694 -3.48491,8.82694" data-paper-data="{&quot;index&quot;:null}" fill="#000a0a" stroke="#000000" stroke-width="0.25" stroke-linecap="round"/><path d="M214.7102,114.04208c-0.15274,-2.78616 2.04154,-5.27328 5.06046,-5.56515c3.01889,-0.29187 5.48276,1.7425 5.75128,4.51987c0.26853,2.77739 -1.70811,5.36284 -5.00467,5.72214c-3.13563,0.34177 -5.64754,-1.76715 -5.80706,-4.67686z" fill="#000a0a" stroke="#ffffff" stroke-width="1.4" stroke-linecap="butt"/><path d="M247.68692,112.72116c-0.68851,-1.19679 -0.27648,-2.72513 0.92031,-3.41366c1.19679,-0.68851 2.72513,-0.27648 3.41366,0.92031c0.68851,1.19679 0.27648,2.72513 -0.92031,3.41366c-1.19679,0.68851 -2.72513,0.27648 -3.41366,-0.92031z" fill="#ffffff" stroke="none" stroke-width="0.5" stroke-linecap="butt"/><path d="M218.82084,114.3018c-0.68851,-1.19679 -0.27648,-2.72513 0.92031,-3.41366c1.19679,-0.68851 2.72513,-0.27648 3.41366,0.92031c0.68851,1.19679 0.27648,2.72513 -0.92031,3.41366c-1.19679,0.68851 -2.72513,0.27648 -3.41366,-0.92031z" fill="#ffffff" stroke="none" stroke-width="0.5" stroke-linecap="butt"/></g></g></g></svg>