<svg version="1.1" xmlns="http://www.w3.org/2000/svg" xmlns:xlink="http://www.w3.org/1999/xlink" width="98.38372" height="253.22501" viewBox="0,0,98.38372,253.22501"><g transform="translate(-190.18135,-64.04299)"><g data-paper-data="{&quot;isPaintingLayer&quot;:true}" fill-rule="nonzero" stroke-linejoin="miter" stroke-miterlimit="10" stroke-dasharray="" stroke-dashoffset="0" style="mix-blend-mode: normal"><path d="M201.54536,304.39158c0,0 -0.63536,-94.38387 -0.79335,-118.01201c-0.05451,-8.15261 8.18688,-36.76129 40.20201,-36.9211c31.60235,-0.15775 41.85672,28.23704 41.84884,35.64673c-0.07659,46.24274 -1.34571,119.23648 -1.34571,119.23648l-10.49667,0.09614l-0.15882,-114.84311c0,0 0.07549,-3.0993 -2.81625,-3.15415c-3.43441,-0.06514 -2.94538,3.11562 -2.94538,3.11562l0.20548,114.86995l-48.21366,0.07222l-0.30539,-115.23309c0,0 0.27949,-2.919 -2.8856,-2.93443c-3.11083,-0.01515 -2.81569,2.90899 -2.81569,2.90899l0.35311,115.0668z" fill="#000000" stroke="#000000" stroke-width="2" stroke-linecap="butt"/><path d="M256.14252,200.33376c-0.57113,0 -1.03411,-0.46299 -1.03411,-1.03411c0,-0.57113 0.46299,-1.03413 1.03411,-1.03413c0.57113,0 1.03411,0.463 1.03411,1.03413c0,0.57113 -0.46299,1.03411 -1.03411,1.03411z" fill="#000000" stroke="none" stroke-width="1.5" stroke-linecap="butt"/><path d="M199.12214,294.07812v-52.5l83,-11l1,35z" fill="#23457d" stroke="#000000" stroke-width="1" stroke-linecap="butt"/><path d="M250.88265,204.56935c-4.4635,-0.31439 -6.55245,-1.79392 -6.16985,-2.58011c0.11788,-0.24224 2.84645,1.06355 6.97038,1.3048c6.40897,0.37493 8.51033,-0.63173 8.51033,-0.63173v1.34616c0,0 -2.4135,1.04672 -9.31086,0.56089z" fill="#000000" stroke="#000000" stroke-width="0" stroke-linecap="butt"/><path d="M223.0699,199.29965c0,-0.57113 0.46299,-1.03413 1.03411,-1.03413c0.57113,0 1.03413,0.463 1.03413,1.03413c0,0.57113 -0.463,1.03411 -1.03413,1.03411c-0.57113,0 -1.03411,-0.46299 -1.03411,-1.03411z" fill="#000000" stroke="none" stroke-width="1.5" stroke-linecap="butt"/><path d="M229.36388,204.56935c-6.89736,0.48585 -9.31086,-0.56089 -9.31086,-0.56089v-1.34616c0,0 2.10136,1.00666 8.51033,0.63173c4.12393,-0.24126 6.85251,-1.54704 6.97039,-1.3048c0.3826,0.78618 -1.70634,2.26571 -6.16985,2.58011z" fill="#000000" stroke="#000000" stroke-width="0" stroke-linecap="butt"/><path d="M240.64434,261.12113c-0.81895,0 -1.48284,-0.66389 -1.48284,-1.48284c0,-0.81895 0.66389,-1.48284 1.48284,-1.48284c0.81895,0 1.48284,0.66389 1.48284,1.48284c0,0.81895 -0.66389,1.48284 -1.48284,1.48284z" data-paper-data="{&quot;index&quot;:null}" fill="#000000" stroke="none" stroke-width="1.5" stroke-linecap="butt"/><path d="M200.12214,272.74478c0,0 -1.72743,-82.83839 -1.6084,-90.3377c0.09976,-6.28512 9.94173,-19.32897 9.94173,-19.32897l75.66667,19l-1.33333,70.66667z" fill="#ff0000" stroke="#000000" stroke-width="1.5" stroke-linecap="butt"/><path d="M200.78881,272.07812l-0.66666,-48.33333l83,-32l-1,60.66666z" fill="#a10000" stroke="none" stroke-width="0" stroke-linecap="butt"/><path d="M200.01103,230.74479l-0.75,-33l50.75,-3.33334l34.66667,-2.66666z" fill="#cc1414" stroke="#000000" stroke-width="0" stroke-linecap="butt"/><g fill="#000000" stroke="#a80000" stroke-width="0.5" stroke-linecap="butt"><path d="M224.28678,182.63986c0.48121,3.65961 -2.09541,7.01641 -5.75502,7.49762c-3.65961,0.48121 0.26901,-3.16762 -0.2122,-6.82723c-0.48121,-3.65961 -5.19,-5.9442 -1.53039,-6.42541c3.65961,-0.48121 7.0164,2.09541 7.49761,5.75502z"/><path d="M210.5581,186.84435l-0.66455,-5.05397l4.04938,-3.96002c0,0 0.76579,1.37625 1.68248,2.71439c0.76649,1.11888 1.41793,1.74871 1.4972,2.35161c0.06081,0.46245 -0.19734,1.91557 -0.59468,3.11919c-0.64387,1.95043 -1.29748,4.21325 -1.29748,4.21325z"/><path d="M223.06417,177.10705c0.10343,0.78666 -1.31419,-0.70873 -3.78658,-1.35547c-1.26407,-0.33067 -2.65808,-0.10119 -4.03605,0.08c-0.34078,0.0448 -0.68464,0.15803 -0.96788,0.30679c-0.71132,0.37357 -1.32372,0.9323 -1.91949,1.45108c-2.0025,1.74373 -3.22152,3.91738 -3.33192,3.07779c-0.15632,-1.18885 2.5059,-5.90883 6.57902,-6.44441c4.07312,-0.53558 7.30657,1.69538 7.46289,2.88423z"/></g><g><path d="M195.4678,317.268v-253.22501h91.18203v253.22501z" fill-opacity="0.01" fill="#000000" stroke="none" stroke-width="0" stroke-linecap="butt"/><path d="M193.78763,120.16666c0,0 6.49429,-6.61115 6.6295,-7.57766c0.35461,-2.53492 -0.17677,-44.84919 37.89938,-46.41287c47.0335,-1.01996 41.11017,39.46319 43.76128,47.1011c3.63508,10.47274 6.48728,19.42548 6.48728,19.42548c0,0 -2.91576,-2.29253 -4.2988,-3.49875c-1.28995,-1.12503 -4.00558,-3.51202 -4.00558,-3.51202c0,0 3.25712,11.55258 1.38132,23.1038c-1.6462,10.58453 -7.68975,19.23041 -7.68975,19.23041l-1.21726,-2.62057c0,0 -1.07758,2.45377 -2.27605,3.72066c-1.19848,1.26688 -3.62341,3.25176 -3.62341,3.25176l-0.09699,-4.13537c0,0 -7.43926,12.3004 -25.6584,12.13695c-17.18197,-0.28521 -27.47167,-11.91776 -27.47167,-11.91776l-0.12244,2.96385c0,0 -4.10394,-3.67603 -6.51342,-10.83746c-2.87182,-8.5356 -3.41343,-13.66831 -3.41343,-13.66831c0,0 -2.4647,2.12022 -6.02407,3.09733c-4.4601,1.22439 -7.31972,0.38545 -7.31972,0.38545c0,0 3.80171,-3.03344 5.88384,-5.32509c1.85459,-2.04122 2.78871,-3.77032 2.78871,-3.77032c0,0 -2.22077,1.21096 -4.46009,1.80627c-2.33647,0.62116 -4.24651,0.59273 -4.24651,0.59273c0,0 5.2421,-5.6236 7.40832,-12.14002c2.04526,-6.15255 2.21248,-12.2327 2.21248,-12.2327c0,0 -1.43478,0.73864 -3.50897,0.88768c-1.31477,0.09448 -2.50555,-0.05459 -2.50555,-0.05459z" fill="#000000" stroke="none" stroke-width="1.5" stroke-linecap="butt"/><path d="M212.8969,125.8572c-0.57709,-7.29323 0.335,-17.15448 0.335,-17.15448c0,0 3.41059,-0.04124 13.91429,-3.14424c8.0696,-2.38394 20.54731,-9.48722 20.54731,-9.48722c0,0 -2.16005,3.00503 -3.40781,4.46015c-1.32651,1.54696 -3.99292,4.56297 -3.99292,4.56297c0,0 7.838,-1.66761 14.67476,-4.72931c8.56837,-3.53575 10.59252,-6.05309 12.95042,-4.5927c2.7829,1.72362 1.03006,23.1827 0.71846,28.74062c-0.42163,5.66922 -2.53327,9.49969 -3.15031,12.52053c-0.61704,3.02084 -0.4096,6.13662 -2.20622,16.0397c-1.12121,6.18021 -4.16183,8.92466 -10.01942,14.66081c-5.85759,5.73616 -9.05378,9.25275 -13.01359,9.32173c-3.81077,0.06639 -8.93565,-5.1002 -13.93542,-10.38244c-5.32393,-5.62474 -8.87489,-8.47713 -9.71551,-15.13975c-0.75707,-6.00039 -0.77653,-9.90853 -1.12266,-15.24835c-0.25298,-3.90273 -2.26119,-6.44504 -2.57636,-10.42801z" fill="#000000" stroke="#000000" stroke-width="1.5" stroke-linecap="butt"/><path d="M260.9669,110.73684c0,0 1.52429,0.31807 4.2558,1.11029c2.49492,0.72361 4.44935,1.74403 4.44935,1.74403l0.1951,1.17035c0,0 -7.24963,-3.12997 -15.1158,-2.4706c-6.2896,0.52724 -9.96319,2.8124 -9.96319,2.8124l0.04575,-4.17683c0,0 3.12748,-1.70421 7.86366,-1.85557c4.90428,-0.15672 8.09084,0.59125 8.09084,0.59125z" data-paper-data="{&quot;index&quot;:null}" fill="#000000" stroke="none" stroke-width="1.5" stroke-linecap="butt"/><path d="M214.39395,132.03286c0,0 -3.56385,-2.92338 -4.31816,-8.45061c-0.42079,-3.08327 2.15675,-2.28016 2.15675,-2.28016" fill="none" stroke="#000000" stroke-width="0.25" stroke-linecap="round"/><path d="M221.84498,125.4949c0.03999,-2.75843 2.30855,-4.96213 5.06696,-4.92214c2.75843,0.03999 4.96213,2.30855 4.92214,5.06696c-0.03999,2.75843 -2.30854,4.96213 -5.06696,4.92214c-2.75843,-0.03999 -4.96213,-2.30855 -4.92214,-5.06696z" fill="#000000" stroke="none" stroke-width="1.5" stroke-linecap="butt"/><path d="M255.56638,150.46324c0,-2.81845 2.2848,-5.10325 5.10325,-5.10325c2.81845,0 5.10325,2.2848 5.10325,5.10325c0,2.81845 -2.28479,5.10325 -5.10325,5.10325c-2.81845,0 -5.10325,-2.2848 -5.10325,-5.10325z" fill="#000000" stroke="none" stroke-width="1.5" stroke-linecap="butt"/><path d="M269.24225,121.30209c0,0 2.57754,-0.80312 2.15675,2.28016c-0.75431,5.52723 -4.31816,8.45061 -4.31816,8.45061" data-paper-data="{&quot;index&quot;:null}" fill="none" stroke="#000000" stroke-width="0.25" stroke-linecap="round"/><g stroke="#000000" stroke-width="1" stroke-linecap="butt"><path d="M238.3349,123.15028c0,10.63148 -6.98666,19.25 -15.60514,19.25c-8.61848,0 -15.60514,-8.61852 -15.60514,-19.25c0,-10.63148 6.98666,-19.25 15.60514,-19.25c8.61848,0 15.60514,8.61852 15.60514,19.25z" fill="#ffffff"/><path d="M231.95795,124.48362c0,12.56448 -4.2533,22.75 -9.5,22.75c-5.2467,0 -9.5,-10.18552 -9.5,-22.75c0,-12.56448 4.2533,-22.75 9.5,-22.75c5.2467,0 9.5,10.18552 9.5,22.75z" fill="#000000"/><path d="M274.8349,123.65028c0,10.63148 -6.98666,19.25 -15.60514,19.25c-8.61848,0 -15.60514,-8.61852 -15.60514,-19.25c0,-10.63148 6.98666,-19.25 15.60514,-19.25c8.61848,0 15.60514,8.61852 15.60514,19.25z" fill="#ffffff"/><path d="M268.62459,123.15028c0,12.56448 -4.25329,22.75 -9.5,22.75c-5.2467,0 -9.5,-10.18552 -9.5,-22.75c0,-12.56448 4.25329,-22.75 9.5,-22.75c5.24671,0 9.5,10.18552 9.5,22.75z" fill="#000000"/></g></g></g></g></svg>