<svg version="1.1" xmlns="http://www.w3.org/2000/svg" xmlns:xlink="http://www.w3.org/1999/xlink" width="35.67311" height="35.67311" viewBox="0,0,35.67311,35.67311"><g transform="translate(-222.16345,-162.16345)"><g data-paper-data="{&quot;isPaintingLayer&quot;:true}" stroke-miterlimit="10" stroke-dasharray="" stroke-dashoffset="0" style="mix-blend-mode: normal"><path d="M229.98312,162.91346h20.03379c3.9166,0 7.06966,3.15307 7.06966,7.06966v20.03379c0,3.91659 -3.15306,7.06966 -7.06966,7.06966h-20.03379c-3.91659,0 -7.06966,-3.15307 -7.06966,-7.06966v-20.03379c0,-3.91659 3.15307,-7.06966 7.06966,-7.06966z" fill="#ffffff" fill-rule="evenodd" stroke="#000000" stroke-width="1.5" stroke-linecap="round" stroke-linejoin="round"/><g fill-rule="nonzero" stroke-width="1" stroke-linecap="butt" stroke-linejoin="miter"><g fill="#000000" stroke="#ffffff"><path d="M228.09112,170.87016c0.97894,-0.68847 6.87653,7.74776 10.05831,9.15065c1.60996,0.70984 7.36357,-4.33644 7.36357,-4.33644l6.83294,9.6833c0,0 -4.23386,2.47899 -6.26187,3.42047c-3.65683,1.69765 -7.70733,2.7746 -10.24744,1.64086c-7.10147,-3.16962 -8.69283,-18.89262 -7.74553,-19.55884z"/><path d="M228.6221,178.68683c-0.70086,-2.99254 -3.50087,-7.19577 -1.07506,-8.90179c0.15557,-0.10942 0.34033,-0.28009 0.57076,-0.39953c0.5449,-0.28244 1.2854,-0.49848 1.97614,-0.27854c0.53498,0.17034 1.14058,0.792 1.44932,1.44357c1.42191,3.00102 4.62592,8.63211 6.59485,9.50021c3.18179,1.4029 4.78868,13.57782 -2.31279,10.4082c-3.61772,-1.6147 -6.13161,-7.19654 -7.20321,-11.77214z"/></g><g><g fill="none" stroke="none" font-family="sans-serif" font-weight="normal" font-size="12" text-anchor="start"/><g fill="#000000" stroke="#ffffff"><path d="M252.11592,178.13587c1.67229,2.86029 1.75119,6.11037 0.17623,7.25923c-1.57494,1.14886 -4.20737,-0.23853 -5.87965,-3.09884c-1.67229,-2.86029 -1.75118,-6.11037 -0.17623,-7.25923c1.57494,-1.14886 4.20735,0.23854 5.87964,3.09884z"/></g><g fill="#000000" stroke="#ffffff"><path d="M251.33393,178.91633c1.03011,1.7619 1.07871,3.76389 0.10856,4.47157c-0.97015,0.70769 -2.59167,-0.14694 -3.62179,-1.90883c-1.03011,-1.7619 -1.07871,-3.76391 -0.10856,-4.47158c0.97016,-0.70769 2.59166,0.14693 3.62177,1.90884z"/></g></g></g></g></g></svg>