<svg version="1.1" xmlns="http://www.w3.org/2000/svg" xmlns:xlink="http://www.w3.org/1999/xlink" width="93.36936" height="246.0024" viewBox="0,0,93.36936,246.0024"><g transform="translate(-196.58333,-59.49745)"><g data-paper-data="{&quot;isPaintingLayer&quot;:true}" fill-rule="nonzero" stroke-linejoin="miter" stroke-miterlimit="10" stroke-dasharray="" stroke-dashoffset="0" style="mix-blend-mode: normal"><path d="M201.54535,304.39158c0,0 -0.63536,-94.38387 -0.79335,-118.01201c-0.05451,-8.15261 8.18688,-36.76129 40.20201,-36.9211c31.60235,-0.15775 39.85672,29.48704 39.84884,36.89673c-0.07659,46.24274 0.65429,117.98648 0.65429,117.98648l-10.49667,0.09614l-0.15882,-114.84311c0,0 0.07549,-3.0993 -2.81625,-3.15415c-3.43441,-0.06514 -2.94538,3.11562 -2.94538,3.11562l0.20548,114.86995l-48.21366,0.07222l-0.30539,-115.23309c0,0 0.27949,-2.919 -2.8856,-2.93443c-3.11083,-0.01515 -2.81569,2.90899 -2.81569,2.90899l0.35311,115.0668z" fill="#000000" stroke="#000000" stroke-width="2" stroke-linecap="butt"/><path d="M256.14251,200.33376c-0.57113,0 -1.03411,-0.46299 -1.03411,-1.03411c0,-0.57113 0.46299,-1.03413 1.03411,-1.03413c0.57113,0 1.03411,0.463 1.03411,1.03413c0,0.57113 -0.46299,1.03411 -1.03411,1.03411z" fill="#000000" stroke="none" stroke-width="1.5" stroke-linecap="butt"/><path d="M250.88264,204.56935c-4.4635,-0.31439 -6.55245,-1.79392 -6.16985,-2.58011c0.11788,-0.24224 2.84645,1.06355 6.97038,1.3048c6.40897,0.37493 8.51033,-0.63173 8.51033,-0.63173v1.34616c0,0 -2.4135,1.04672 -9.31086,0.56089z" fill="#000000" stroke="#000000" stroke-width="0" stroke-linecap="butt"/><path d="M223.06989,199.29965c0,-0.57113 0.46299,-1.03413 1.03411,-1.03413c0.57113,0 1.03413,0.463 1.03413,1.03413c0,0.57113 -0.463,1.03411 -1.03413,1.03411c-0.57113,0 -1.03411,-0.46299 -1.03411,-1.03411z" fill="#000000" stroke="none" stroke-width="1.5" stroke-linecap="butt"/><path d="M229.36387,204.56935c-6.89736,0.48585 -9.31086,-0.56089 -9.31086,-0.56089v-1.34616c0,0 2.10136,1.00666 8.51033,0.63173c4.12393,-0.24126 6.85251,-1.54704 6.97039,-1.3048c0.3826,0.78618 -1.70634,2.26571 -6.16985,2.58011z" fill="#000000" stroke="#000000" stroke-width="0" stroke-linecap="butt"/><path d="M240.64433,261.12113c-0.81895,0 -1.48284,-0.66389 -1.48284,-1.48284c0,-0.81895 0.66389,-1.48284 1.48284,-1.48284c0.81895,0 1.48284,0.66389 1.48284,1.48284c0,0.81895 -0.66389,1.48284 -1.48284,1.48284z" data-paper-data="{&quot;index&quot;:null}" fill="#000000" stroke="none" stroke-width="1.5" stroke-linecap="butt"/><path d="M216.58108,304.40601v-119.20147c0,0 0.75721,-9.73105 0.75721,-14.63937c0,-4.498 -0.75721,-13.6872 -0.75721,-13.6872c0,0 2.67319,-2.35297 4.6557,-3.74807c1.98251,-1.3951 5.17197,-2.80371 5.17197,-2.80371c0,0 -0.6016,40.10902 14.55952,40.03867c15.43477,-0.07162 13.83154,-40.03867 13.83154,-40.03867c0,0 3.91276,1.51959 6.16585,2.94655c2.25309,1.42695 4.75379,3.60523 4.75379,3.60523c0,0 -0.75721,9.42463 -0.75721,14.19201c0,4.84193 0.75721,14.63937 0.75721,14.63937v118.69667z" fill="#000000" stroke="#000000" stroke-width="2" stroke-linecap="butt"/><path d="M229.88563,147.62248c5.09114,1.02674 11.91756,2.80736 11.91756,2.80736c0,0 5.78976,-1.55585 8.44678,-1.8344c2.05992,-0.21596 11.216,-0.70654 11.26026,-0.33377c0.04328,0.36447 -9.03119,12.90033 -21.14808,12.44714c-13.76954,-0.43578 -22.86459,-15.13559 -22.82675,-15.30472c0.03784,-0.16913 7.2591,1.19165 12.35024,2.2184z" fill="#000000" stroke="#000000" stroke-width="1.9" stroke-linecap="butt"/><path d="M256.38102,252.87564c11.17472,0 11.06659,-4.90874 11.06659,-4.90874l-0.64975,23.65967c0,0 1.35937,-0.27627 -11.26514,-0.27627c-13.58241,0 -42.87556,-1.67297 -42.87556,-1.67297c0,0 -1.98564,-8.66682 -0.64847,-10.1833c2.15554,-2.44457 3.24746,-12.82662 3.24746,-12.82662c0,0 26.80876,6.20824 41.12488,6.20824z" data-paper-data="{&quot;index&quot;:null}" fill="#402b6b" stroke="none" stroke-width="0" stroke-linecap="butt"/><path d="M213.81284,237.91772l0.64975,-20.73329c0,0 28.7038,-3.13726 43.69362,-3.13726c13.93267,0 8.86936,-2.71048 8.86936,-2.71048l2.59899,31.77902c0,0 2.19416,-8.40382 -10.1385,-8.40382c-15.79955,0 -45.67322,3.20583 -45.67322,3.20583z" fill="#9966ff" stroke="none" stroke-width="0" stroke-linecap="butt"/><path d="M265.64641,192.9789c10.92227,0 2.02716,2.26399 2.02716,2.26399l0.64975,11.3177c0,0 2.59953,4.20205 -9.16791,4.20205c-13.47835,0 -44.5272,-8.75029 -44.5272,-8.75029v-19.11468c0,0 37.165,10.08123 51.0182,10.08123z" data-paper-data="{&quot;index&quot;:null}" fill="#6712b1" stroke="none" stroke-width="0" stroke-linecap="butt"/><g><path d="M200.00581,97.55267c0,0 6.16329,-4.65824 6.29161,-5.33924c0.33654,-1.78611 -0.16776,-31.60086 35.96775,-32.70263c44.63633,-0.71867 39.01489,27.80587 41.53088,33.18756c3.44981,7.37912 6.15664,13.68724 6.15664,13.68724c0,0 -2.76715,-1.61532 -4.0797,-2.46523c-1.2242,-0.7927 -3.80143,-2.47458 -3.80143,-2.47458c0,0 3.09111,8.13998 1.31092,16.279c-1.5623,7.45789 -7.29782,13.5498 -7.29782,13.5498l-1.15522,-1.84646c0,0 -1.02266,1.72893 -2.16005,2.62159c-1.1374,0.89264 -3.43873,2.2912 -3.43873,2.2912l-0.09205,-2.91379c0,0 -7.0601,8.6669 -24.35066,8.55173c-16.30625,-0.20096 -26.07151,-8.39728 -26.07151,-8.39728l-0.1162,2.08834c0,0 -3.89477,-2.59014 -6.18145,-7.63611c-2.72545,-6.01421 -3.23946,-9.63073 -3.23946,-9.63073c0,0 -2.33908,1.49391 -5.71704,2.18239c-4.23278,0.86271 -6.94665,0.27159 -6.94665,0.27159c0,0 3.60795,-2.13737 5.58396,-3.75207c1.76007,-1.43825 2.64658,-2.65658 2.64658,-2.65658c0,0 -2.10758,0.85324 -4.23277,1.27271c-2.21739,0.43767 -4.03008,0.41764 -4.03008,0.41764c0,0 4.97492,-3.9624 7.03074,-8.55389c1.94102,-4.3351 2.09972,-8.6192 2.09972,-8.6192c0,0 -1.36165,0.52045 -3.33013,0.62546c-1.24776,0.06657 -2.37785,-0.03847 -2.37785,-0.03847z" fill="#000000" stroke="none" stroke-width="1.5" stroke-linecap="butt"/><path d="M217.08692,120.39445c-0.57709,-7.29323 0.335,-17.15448 0.335,-17.15448c0,0 3.41059,-0.04124 13.91429,-3.14424c8.0696,-2.38394 20.54731,-9.48722 20.54731,-9.48722c0,0 -2.16005,3.00503 -3.40781,4.46015c-1.32651,1.54696 -3.99292,4.56297 -3.99292,4.56297c0,0 7.838,-1.66761 14.67476,-4.72931c8.56837,-3.53575 10.59252,-6.05309 12.95042,-4.5927c2.7829,1.72362 1.03006,23.1827 0.71846,28.74062c-0.42163,5.66922 -2.53327,9.49969 -3.15031,12.52053c-0.61704,3.02084 -0.4096,6.13662 -2.20622,16.0397c-1.12121,6.18021 -4.16183,8.92466 -10.01942,14.66081c-5.85759,5.73616 -9.05378,9.25275 -13.01359,9.32173c-3.81077,0.06639 -8.93565,-5.1002 -13.93542,-10.38244c-5.32393,-5.62474 -8.87489,-8.47713 -9.71551,-15.13975c-0.75707,-6.00039 -0.77653,-9.90853 -1.12266,-15.24835c-0.25298,-3.90273 -2.26119,-6.44504 -2.57636,-10.42801z" fill="#000000" stroke="#000000" stroke-width="1.5" stroke-linecap="butt"/><path d="M265.05852,103.21532c0,0 1.52429,0.31807 4.2558,1.11029c2.49492,0.72361 4.44935,1.74403 4.44935,1.74403l0.1951,1.17035c0,0 -7.24963,-3.12997 -15.1158,-2.4706c-6.2896,0.52724 -9.96319,2.8124 -9.96319,2.8124l0.04575,-4.17683c0,0 3.12748,-1.70421 7.86366,-1.85557c4.90428,-0.15672 8.09084,0.59125 8.09084,0.59125z" data-paper-data="{&quot;index&quot;:null}" fill="#000000" stroke="none" stroke-width="1.5" stroke-linecap="butt"/><path d="M218.48557,124.51134c0,0 -3.56385,-2.92338 -4.31816,-8.45061c-0.42079,-3.08327 2.15675,-2.28016 2.15675,-2.28016" fill="none" stroke="#000000" stroke-width="0.25" stroke-linecap="round"/><path d="M221.59739,117.56815c0.07093,-4.89188 4.83834,-8.93609 10.21137,-8.8582c5.37302,0.0779 9.02724,4.2484 8.95632,9.14029c-0.07093,4.89188 -4.12352,8.79439 -9.49655,8.7165c-5.37302,-0.0779 -9.74207,-4.1067 -9.67114,-8.99859z" fill="#ffffff" stroke="#000000" stroke-width="1.4" stroke-linecap="butt"/><path d="M226.13343,121.38868c0.03999,-2.75843 2.30855,-4.96213 5.06696,-4.92214c2.75843,0.03999 4.96213,2.30855 4.92214,5.06696c-0.03999,2.75843 -2.30854,4.96213 -5.06696,4.92214c-2.75843,-0.03999 -4.96213,-2.30855 -4.92214,-5.06696z" fill="#000000" stroke="none" stroke-width="1.5" stroke-linecap="butt"/><path d="M248.55524,117.85617c0.20353,-4.88817 4.45264,-8.85847 9.77048,-8.85847c5.31783,0 9.27453,3.96607 9.27453,8.85847c0,4.8924 -3.88585,9.07104 -9.69964,9.14188c-5.52997,0.06739 -9.55792,-4.03692 -9.34537,-9.14188z" fill="#ffffff" stroke="#000000" stroke-width="1.4" stroke-linecap="butt"/><path d="M253.87971,121.35702c0,-2.81845 2.2848,-5.10325 5.10325,-5.10325c2.81845,0 5.10325,2.2848 5.10325,5.10325c0,2.81845 -2.28479,5.10325 -5.10325,5.10325c-2.81845,0 -5.10325,-2.2848 -5.10325,-5.10325z" fill="#000000" stroke="none" stroke-width="1.5" stroke-linecap="butt"/><path d="M224.96039,107.3116c0,0 3.36963,-1.819 8.03244,-2.28178c5.16698,-0.51283 7.76823,-0.06628 7.76823,-0.06628l0.29508,4.13747c0,0 -3.83554,-0.68065 -8.01795,-0.52113c-5.59346,0.21333 -6.64488,1.43293 -10.89774,1.89119c-3.64408,0.39266 -6.73723,0.15884 -6.73723,0.15884l-0.02589,-1.23155c0,0 3.59517,0.07398 5.23371,-0.06836c1.35239,-0.11749 3.9757,-0.93808 3.9757,-0.93808z" fill="#000000" stroke="none" stroke-width="1.5" stroke-linecap="butt"/><path d="M273.33388,113.78057c0,0 2.57754,-0.80312 2.15675,2.28016c-0.75431,5.52723 -4.31816,8.45061 -4.31816,8.45061" data-paper-data="{&quot;index&quot;:null}" fill="none" stroke="#000000" stroke-width="0.25" stroke-linecap="round"/><path d="M257.74078,130.80617c11.17472,0 26.0108,-17.90371 26.0108,-17.90371v24.95917c0,0 -14.23459,11.4192 -26.8591,11.4192c-13.58241,0 -51.97204,-11.4192 -51.97204,-11.4192v-24.95916c0,0 38.50423,17.90371 52.82035,17.90371z" data-paper-data="{&quot;index&quot;:null}" fill="#402b6b" stroke="none" stroke-width="0" stroke-linecap="butt"/><path d="M201.52789,119.09699v-22.03279c0,0 40.39927,-1.18801 55.38909,-1.18801c13.93267,0 31.61055,1.18801 31.61055,1.18801v22.03279c0,0 -17.94804,-2.55608 -30.2807,-2.55608c-15.79955,0 -56.71894,2.55608 -56.71894,2.55608z" fill="#9966ff" stroke="none" stroke-width="0" stroke-linecap="butt"/><path d="M257.25995,78.70641c10.92227,0 25.4181,-10.08123 25.4181,-10.08123v19.11468c0,0 -20.14166,8.75029 -31.9091,8.75029c-13.47835,0 -44.5272,-8.75029 -44.5272,-8.75029v-19.11468c0,0 37.165,10.08123 51.0182,10.08123z" data-paper-data="{&quot;index&quot;:null}" fill="#6712b1" stroke="none" stroke-width="0" stroke-linecap="butt"/></g></g></g></svg>