<svg version="1.1" xmlns="http://www.w3.org/2000/svg" xmlns:xlink="http://www.w3.org/1999/xlink" width="36.87501" height="35.87434" viewBox="0,0,36.87501,35.87434"><g transform="translate(-222.28274,-162.28307)"><g data-paper-data="{&quot;isPaintingLayer&quot;:true}" stroke-miterlimit="10" stroke-dasharray="" stroke-dashoffset="0" style="mix-blend-mode: normal"><path d="M259.15774,170.42694v20.49804c0,4.00745 -3.22497,7.23243 -7.23242,7.23243h-20.5c-3.66107,0 -6.66147,-2.69385 -7.1543,-6.21484c0.7952,3.03475 3.54108,5.26367 6.83204,5.26367h20.0332c3.9166,0 7.07032,-3.15372 7.07032,-7.07031v-20.03321c0,-3.2976 -2.23906,-6.0451 -5.28321,-6.83398c3.52994,0.48496 6.23438,3.49081 6.23438,7.15821z" fill-opacity="0.29839" fill="#000000" fill-rule="evenodd" stroke="none" stroke-width="4.54219" stroke-linecap="round" stroke-linejoin="round"/><path d="M230.10241,163.03307h20.03378c3.9166,0 7.06966,3.15307 7.06966,7.06966v20.03379c0,3.91659 -3.15307,7.06966 -7.06966,7.06966h-20.03378c-3.91659,0 -7.06967,-3.15307 -7.06967,-7.06966v-20.03379c0,-3.91659 3.15308,-7.06966 7.06967,-7.06966z" fill="#000000" fill-rule="evenodd" stroke="#ffffff" stroke-width="1.5" stroke-linecap="round" stroke-linejoin="round"/><g fill="#ffffff" fill-rule="nonzero" stroke="#000000" stroke-linecap="butt" stroke-linejoin="miter"><g stroke-width="0"><path d="M247.64053,171.76714c3.12819,5.2943 5.12884,16.90723 0.36398,19.72258c-4.76486,2.81537 -14.4909,-4.23298 -17.61908,-9.52725c-3.12819,-5.2943 -1.80137,-11.86847 2.96346,-14.68382c4.76486,-2.81537 11.16341,-0.8058 14.2916,4.4885z"/><path d="M245.8709,179.22566c-0.08179,0.64592 0.10693,1.79464 -0.97585,2.34908c-0.0244,0.00455 1.15398,9.17531 1.15398,9.17531c-0.12193,0.02265 -5.71358,-6.73247 -5.88427,-6.70073c-0.68285,0.12691 -0.36577,-1.24801 -0.72746,-1.83673c-0.18085,-0.29441 -0.25794,-0.70893 -0.21928,-1.04414c-0.00906,-0.04881 0.01079,-0.07771 0.05504,-0.11117l0.00604,-0.00872c-0.22774,-0.13473 -0.42153,-0.32043 -0.5628,-0.54375c-0.2292,0.39582 0.68385,5.0958 0.1473,5.1955l-1.53549,-1.91441c-0.70727,0.13145 -1.21397,-2.62096 -1.56206,-3.13654c-0.23823,0.34708 2.59612,7.17957 2.13278,7.26571c-0.78043,0.14501 -4.50013,-6.69962 -4.85556,-7.39045l-0.18819,-0.46962c-0.49316,-1.29601 -0.69362,-2.64641 -0.65026,-4.04214c0.13467,-1.31173 0.72345,-1.67351 1.18683,-1.75958c0.41458,-0.07704 0.79225,0.05464 1.13758,0.41936c0.0546,-0.79231 0.62873,-1.50448 1.38475,-1.64501l0.04878,-0.00907c0.51218,-0.09518 1.0055,0.11592 1.41775,0.56913c0.08354,-0.77245 0.63779,-1.45574 1.36939,-1.59171l0.02438,-0.00452c0.73168,-0.13595 1.49438,0.30263 1.84526,0.96905c0.24796,-0.70205 0.70855,-0.93902 1.05,-1.00249l0.21948,-0.04079c0.78043,-0.14501 1.50797,0.37571 1.88889,1.3394c0.16792,0.43296 0.30335,0.81792 0.41437,1.18538c0.35951,0.19075 0.70184,0.54193 0.99449,1.10106c0,0 -0.00001,-0.00002 0.00453,0.02436c0.57257,1.18036 0.79917,2.39974 0.67989,3.65818zM239.76795,180.73713c0.18373,0.0478 0.37972,0.07217 0.56766,0.04591c0.01519,-0.00225 0.03038,-0.00447 0.04556,-0.00734l0.02438,-0.00455c0.68285,-0.12691 1.10434,-0.70981 0.982,-1.3683l-0.06799,-0.36578l-0.44417,-2.39004c-0.02722,-0.1463 0.05223,-0.26198 0.19854,-0.28918c0.14632,-0.02718 0.26202,0.0522 0.28922,0.19851l0.44416,2.39002c0.10878,0.58532 0.67812,0.93365 1.28784,0.82034l0.21948,-0.04079c0.75603,-0.14049 0.8974,-0.87321 0.92245,-1.28155l-0.0339,-0.72538c-0.08904,-1.25134 -0.20214,-2.02195 -0.41894,-2.85606c-0.1215,-0.43923 -0.27625,-0.89246 -0.47623,-1.4181c-0.18197,-0.57175 -0.67016,-1.16224 -1.30422,-1.0444l-0.21948,0.04079c-0.39017,0.07248 -0.63298,0.39514 -0.72839,0.96795c-0.03067,0.10661 -0.11465,0.19794 -0.21218,0.21607l-0.24387,0.04532c-0.1219,0.02265 -0.262,-0.05224 -0.2892,-0.19858c-0.14677,-0.65394 -0.81191,-1.11064 -1.42161,-0.99734l-0.02438,0.00454c-0.6097,0.1133 -1.06637,0.77847 -0.9684,1.44147c0.02265,0.12193 -0.07661,0.26657 -0.19851,0.28922l-0.24388,0.04531c-0.09755,0.01814 -0.20419,-0.01248 -0.24668,-0.10551c-0.21431,-0.33861 -0.61745,-0.74308 -1.1296,-0.64793l-0.04878,0.00907c-0.6097,0.1133 -1.0664,0.77849 -0.9684,1.44148c0.02265,0.1219 -0.07659,0.26651 -0.19854,0.28918l-0.24391,0.04534c-0.12193,0.02265 -0.20421,-0.01251 -0.26656,-0.07662c-0.29656,-0.37382 -0.57667,-0.52361 -0.86933,-0.46919c-0.439,0.08156 -0.6835,0.53071 -0.76703,1.30313c-0.06153,1.29812 0.15431,2.59527 0.60947,3.82267l0.18366,0.44525c0.24606,0.50935 0.52163,0.63473 1.10699,0.52592c0.56091,-0.1042 0.90297,-0.57148 0.8078,-1.08364l-0.33085,-1.7803c-0.02722,-0.1463 0.05222,-0.26203 0.19855,-0.28925c0.14632,-0.02718 0.26201,0.05224 0.28925,0.19855l0.33086,1.78032l0.03172,0.17071l0.0181,0.09758c0.11786,0.63409 0.72062,1.02669 1.40347,0.89978l0.04881,-0.00906c0.68285,-0.12691 1.10439,-0.70984 0.98651,-1.34392l-0.38067,-2.04855c-0.02722,-0.1463 0.05222,-0.26201 0.19852,-0.28922c0.14632,-0.02718 0.262,0.05221 0.28923,0.19853l0.38069,2.04857l0.08607,0.46338c0.07974,0.42925 0.39516,0.75663 0.79476,0.88564zM244.77019,175.74661c-0.11397,-0.20591 -0.24779,-0.38289 -0.35266,-0.54001c0.17394,0.80027 0.26111,1.54099 0.30686,2.46598l0.03841,0.74973c-0.00879,0.47425 -0.12567,0.86926 -0.33368,1.16867c-0.22516,0.34037 -0.56432,0.56246 -0.99494,0.64248l-0.21946,0.04078c-0.50643,0.09413 -0.97652,-0.01619 -1.30765,-0.30054c-0.14341,0.6372 -0.66867,1.1472 -1.36206,1.27608l-0.02441,0.00453l-0.02439,0.00453c-0.24913,0.04627 -0.49351,0.039 -0.72167,-0.01298l-0.057,0.03153c-0.008,0.22853 0.04189,0.49683 0.1513,0.67831c0.29937,0.52465 0.96341,0.70402 1.54141,0.41997l2.98286,-1.46261c0.7595,-0.39344 0.91442,-1.05301 1.00705,-1.77664c0.10855,-1.18076 -0.09538,-2.27823 -0.62997,-3.38993z"/><path d="M245.56712,179.13407c-0.06133,0.47955 -0.16951,0.98176 -0.45652,1.38052c-0.14611,0.20299 -0.33855,0.37916 -0.59476,0.51185l0.65112,6.89058c2.73056,6.59486 -5.11398,-5.31564 -5.41337,-5.84031c-0.1094,-0.18149 -0.17764,-0.4705 -0.16966,-0.69905l0.3239,-0.23237c0.22818,0.05197 0.45556,0.03999 0.70467,-0.00631l0.02377,-0.00515l0.0238,-0.0051c0.69335,-0.12885 1.20492,-0.65054 1.34834,-1.28774c0.33113,0.28437 0.60983,0.3867 1.11626,0.29257l0.19967,-0.02592c0.43064,-0.08004 0.71632,-0.2114 0.94148,-0.55179c0.20796,-0.29938 0.32982,-0.60604 0.33866,-1.08028l-0.01811,-0.70898c-0.04574,-0.92501 -0.0671,-1.60921 -0.24101,-2.40944c0.10487,0.15712 0.40261,0.04391 0.51658,0.24981c0.53457,1.11165 0.8138,2.34623 0.70521,3.52698z" data-paper-data="{&quot;noHover&quot;:false,&quot;origItem&quot;:[&quot;Path&quot;,{&quot;applyMatrix&quot;:true,&quot;segments&quot;:[[[273.91213,176.61986],[-0.03151,0.36793],[0.00198,-0.07043]],[[273.90347,176.42697],[0.0031,0.05647],[-0.07704,0.23275]],[[273.60702,177.1093],[0.12908,-0.24538],[0,0]],[[273.50274,177.30839],[0,0],[-0.07449,0.12089]],[[273.23877,177.55879],[0.0992,-0.04549],[-0.10987,0.05344]],[[272.88449,177.57287],[0.12318,0.04495],[0,0]],[[272.82171,177.54996],[0,0],[-0.14486,-0.05286]],[[272.53043,177.27336],[0.04204,0.12372],[-0.134,0.14239]],[[271.98505,177.39483],[0.19833,0.07238],[0,0]],[271.97807,177.39228],[[271.9711,177.38973],[0,0],[-0.07126,-0.02601]],[[271.78706,177.27648],[0.0509,0.04814],[0,0]],[[271.76757,177.27592],[0,0],[-0.03686,0.05769]],[[271.70326,177.4738],[-0.00056,-0.06344],[-0.00274,0.18081]],[[272.03659,177.81679],[-0.19222,-0.01481],[0,0]],[[273.02814,177.89407],[0,0],[0.25567,0.01426]],[[273.55825,177.58952],[-0.13407,0.17242],[0.2078,-0.2878]]],&quot;closed&quot;:true,&quot;fillColor&quot;:[0,0,0,1]}]}"/><path d="M238.99682,180.01686l-0.08756,-0.46318l-0.464,-2.05868c-0.02722,-0.1463 -0.24881,-0.37968 -0.3951,-0.35252c-0.14632,0.02718 0.08972,0.06487 0.11693,0.2112l0.2455,1.95863c0.11786,0.63409 0.24125,3.28437 -0.44158,3.41128l0.9972,2.61167c-0.68285,0.12691 -3.00415,-4.64744 -3.122,-5.28154l-0.02067,-0.10002l-0.03624,-0.17533l-0.37151,-1.85476c-0.02722,-0.1463 -0.14554,-0.23863 -0.29187,-0.21147c-0.14632,0.02718 0.10144,0.07667 0.12866,0.223l0.29711,1.71273c0.09515,0.51214 -0.49776,1.1997 -1.05868,1.30396c-0.16616,0.03087 3.57544,6.85203 3.45056,6.83881c-0.31506,-0.03332 -4.40075,-7.02533 -4.57694,-7.39008l-0.19031,-0.45688c-0.45515,-1.22738 -0.68691,-2.632 -0.62538,-3.93013c0.08353,-0.77241 0.34105,-1.26197 0.78006,-1.34353c0.29266,-0.05437 0.87597,0.2356 1.17252,0.60937c0.06235,0.06411 -0.15879,-0.0405 -0.03684,-0.06316l0.24643,-0.05051c0.12193,-0.02265 0.22806,-0.17942 0.2054,-0.30137c-0.09798,-0.663 0.40443,-1.37664 1.01413,-1.48997l0.05018,-0.01004c0.51218,-0.09518 0.94015,0.29511 1.15447,0.63372c0.04251,0.09305 0.15807,0.1199 0.25556,0.10176l0.25643,-0.04965c0.12193,-0.02265 0.23466,-0.17075 0.21202,-0.29269c-0.09798,-0.663 0.40369,-1.33155 1.0134,-1.44488l0.02524,-0.00448c0.6097,-0.1133 1.33513,0.35891 1.48186,1.01285c0.02722,0.1463 0.18007,0.22791 0.30196,0.20525l0.2503,-0.0414c0.09758,-0.0181 -0.00106,0.17027 0.02962,0.06367c0.09537,-0.57282 0.52445,-1.17268 0.91463,-1.2452l0.22318,-0.03817c0.63409,-0.11786 1.15608,0.50519 1.33807,1.07693c0.20001,0.52563 0.37623,1.0148 0.49772,1.45403c0.21678,0.83409 0.34303,1.68887 0.43205,2.9402l0.03047,0.7458c-0.02504,0.40833 -0.18262,1.18364 -0.93866,1.32415l-0.2217,0.04473c-0.6097,0.1133 -1.46899,-0.40092 -1.57777,-0.98623l-0.46202,-2.27402c-0.02722,-0.1463 -0.1388,-0.21 -0.28509,-0.18281c-0.14632,0.02718 0.09694,0.05791 0.12417,0.20421l0.41803,2.52032l0.06071,0.37551c0.12234,0.65849 -0.35421,1.28576 -1.03709,1.41264l-0.02529,0.00496c-0.01522,0.00284 -0.03202,0.00587 -0.04716,0.00811c-0.18794,0.02626 -0.40413,0.01003 -0.58787,-0.03778c-0.3996,-0.12897 -0.7435,-0.44971 -0.82327,-0.87897z" data-paper-data="{&quot;noHover&quot;:false,&quot;origItem&quot;:[&quot;Path&quot;,{&quot;applyMatrix&quot;:true,&quot;segments&quot;:[[[271.86285,177.14434],[-0.08335,-0.0941],[0.04007,0.0403]],[[272.00217,177.24262],[-0.05244,-0.02185],[0.00426,0.00173]],[[272.01503,177.24767],[-0.00435,-0.00159],[0,0]],[[272.022,177.25022],[0,0],[0.19533,0.07128]],[[272.48348,177.04709],[-0.06874,0.18835],[0,0]],[272.52167,176.94245],[[272.77117,176.25881],[0,0],[0.01527,-0.04185]],[[272.86638,176.21451],[-0.04185,-0.01528],[0.04185,0.01528]],[[272.91069,176.30972],[0.01527,-0.04185],[0,0]],[[272.66119,176.99337],[0,0],[-0.0611,0.16742]],[[272.86819,177.40093],[-0.1744,-0.06365],[0,0]],[[272.93097,177.42384],[0,0],[0.21625,0.07892]],[[273.36389,177.234],[-0.06864,0.10143],[0,0]],[[273.46562,177.04189],[0,0],[0.16762,-0.33608]],[[273.79258,176.24196],[-0.07115,0.248],[0.03557,-0.13171]],[[273.88579,175.80393],[-0.0285,0.16593],[0.04017,-0.17507]],[[273.70869,175.33613],[0.18138,0.06619],[0,0]],[[273.64591,175.31322],[0,0],[-0.11161,-0.04074]],[[273.31077,175.45178],[0.11181,-0.13311],[-0.02414,0.02281]],[[273.22318,175.47515],[0.0279,0.01019],[0,0]],[[273.15342,175.44969],[0,0],[-0.03487,-0.01273]],[[273.10911,175.35447],[-0.01527,0.04185],[0.06176,-0.1909]],[[272.89459,174.88093],[0.1744,0.06365],[0,0]],[[272.88761,174.87838],[0,0],[-0.1744,-0.06365]],[[272.4185,175.10243],[0.07572,-0.1858],[-0.01273,0.03488]],[[272.32328,175.14674],[0.03488,0.01273],[0,0]],[[272.25352,175.12128],[0,0],[-0.0279,-0.01018]],[[272.20601,175.05651],[-0.00321,0.03045],[-0.00367,-0.11991]],[[272.01354,174.71749],[0.1465,0.05346],[0,0]],[[271.99959,174.7124],[0,0],[-0.1744,-0.06365]],[[271.53047,174.93645],[0.07572,-0.1858],[-0.01273,0.03487]],[[271.43526,174.98074],[0.03488,0.01273],[0,0]],[[271.36549,174.95528],[0,0],[-0.03488,-0.01273]],[[271.30846,174.89494],[0.00631,0.02602],[-0.01951,-0.14151]],[[271.15585,174.64162],[0.08371,0.03055],[-0.12557,-0.04583]],[[270.7597,174.86068],[0.13916,-0.18636],[-0.21355,0.32521]],[[270.33464,175.93875],[0.06961,-0.38566],[0,0]],[[270.31417,176.08148],[0,0],[-0.01415,0.16875]],[[270.51938,176.38561],[-0.16743,-0.0611],[0.16044,0.05856]],[[270.89261,176.22934],[-0.05347,0.14649],[0,0]],[[271.07846,175.72009],[0,0],[0.01527,-0.04185]],[[271.17368,175.67578],[-0.04185,-0.01528],[0.04185,0.01528]],[[271.21799,175.77101],[0.01527,-0.04185],[0,0]],[271.03214,176.28026],[271.01432,176.32909],[[271.00413,176.35699],[0,0],[-0.06619,0.18138]],[[271.22884,176.80264],[-0.19533,-0.07128],[0,0]],[[271.2428,176.80773],[0,0],[0.19533,0.07128]],[[271.70173,176.61158],[-0.06619,0.18138],[0,0]],[[271.91558,176.02561],[0,0],[0.01527,-0.04185]],[[272.01079,175.9813],[-0.04185,-0.01528],[0.04185,0.01528]],[[272.0551,176.07652],[0.01527,-0.04185],[0,0]],[271.84125,176.6625],[[271.79287,176.79505],[0,0],[-0.04481,0.12278]]],&quot;closed&quot;:true,&quot;fillColor&quot;:[0,0,0,1]}]}"/></g><g stroke-width="1"><path d="M247.10276,173.38043c3.12819,5.2943 5.12884,16.90723 0.36398,19.72259c-4.76486,2.81536 -14.4909,-4.23298 -17.61908,-9.52726c-3.12819,-5.2943 -1.80138,-11.86847 2.96346,-14.68382c4.76486,-2.81536 11.16342,-0.8058 14.2916,4.4885z"/><path d="M245.33312,180.83894c-0.08179,0.64591 0.10693,1.79464 -0.97585,2.34909c-0.0244,0.00456 1.15398,9.17531 1.15398,9.17531c-0.12193,0.02265 -5.71357,-6.73247 -5.88426,-6.70073c-0.68285,0.12691 -0.36576,-1.24801 -0.72746,-1.83673c-0.18085,-0.29442 -0.25794,-0.70893 -0.21928,-1.04414c-0.00906,-0.04881 0.01079,-0.07771 0.05504,-0.11118l0.00604,-0.00872c-0.22774,-0.13473 -0.42153,-0.32044 -0.5628,-0.54375c-0.22919,0.39582 0.68386,5.0958 0.1473,5.1955l-1.53549,-1.91441c-0.70727,0.13145 -1.21397,-2.62096 -1.56206,-3.13654c-0.23824,0.34708 2.59612,7.17957 2.13278,7.26571c-0.78043,0.14501 -4.50013,-6.69963 -4.85556,-7.39046l-0.18819,-0.46961c-0.49316,-1.29601 -0.69362,-2.64642 -0.65026,-4.04215c0.13466,-1.31173 0.72345,-1.67351 1.18683,-1.75958c0.41458,-0.07704 0.79225,0.05464 1.13758,0.41936c0.05459,-0.79231 0.62873,-1.50448 1.38475,-1.64501l0.04878,-0.00907c0.51218,-0.09519 1.0055,0.11592 1.41775,0.56913c0.08354,-0.77245 0.63778,-1.45574 1.36939,-1.59171l0.02438,-0.00451c0.73167,-0.13595 1.49438,0.30263 1.84527,0.96904c0.24796,-0.70205 0.70855,-0.93902 1.04999,-1.00249l0.21948,-0.04079c0.78043,-0.14501 1.50797,0.37571 1.88889,1.3394c0.16792,0.43296 0.30335,0.81792 0.41438,1.18538c0.35951,0.19075 0.70183,0.54193 0.99449,1.10106c0,0 -0.00001,-0.00002 0.00453,0.02436c0.57257,1.18035 0.79917,2.39974 0.67989,3.65818zM239.23018,182.35041c0.18373,0.0478 0.37972,0.07217 0.56767,0.04591c0.01519,-0.00225 0.03038,-0.00447 0.04556,-0.00734l0.02438,-0.00454c0.68285,-0.12691 1.10434,-0.70981 0.982,-1.3683l-0.06799,-0.36579l-0.44417,-2.39004c-0.02722,-0.1463 0.05223,-0.26198 0.19853,-0.28918c0.14632,-0.02718 0.26202,0.0522 0.28922,0.19851l0.44417,2.39002c0.10879,0.58533 0.67812,0.93365 1.28784,0.82033l0.21948,-0.04079c0.75604,-0.14049 0.8974,-0.87322 0.92246,-1.28156l-0.03391,-0.72538c-0.08904,-1.25134 -0.20214,-2.02196 -0.41893,-2.85606c-0.1215,-0.43923 -0.27625,-0.89245 -0.47623,-1.4181c-0.18197,-0.57175 -0.67016,-1.16224 -1.30422,-1.04441l-0.21948,0.04079c-0.39017,0.07248 -0.63298,0.39514 -0.72839,0.96795c-0.03067,0.10661 -0.11465,0.19794 -0.21218,0.21607l-0.24388,0.04532c-0.1219,0.02264 -0.262,-0.05224 -0.2892,-0.19858c-0.14676,-0.65395 -0.81192,-1.11064 -1.42161,-0.99734l-0.02438,0.00454c-0.60969,0.1133 -1.06638,0.77847 -0.9684,1.44147c0.02265,0.12193 -0.07662,0.26656 -0.19851,0.28922l-0.24388,0.04532c-0.09755,0.01814 -0.20419,-0.01248 -0.24668,-0.10551c-0.21431,-0.33861 -0.61746,-0.74308 -1.1296,-0.64793l-0.04878,0.00907c-0.60969,0.1133 -1.06639,0.77848 -0.9684,1.44147c0.02264,0.1219 -0.07659,0.26651 -0.19853,0.28918l-0.24392,0.04534c-0.12193,0.02265 -0.20421,-0.0125 -0.26656,-0.07662c-0.29657,-0.37382 -0.57667,-0.52361 -0.86932,-0.46919c-0.439,0.08156 -0.6835,0.53071 -0.76703,1.30313c-0.06153,1.29812 0.15431,2.59527 0.60947,3.82267l0.18366,0.44525c0.24606,0.50936 0.52162,0.63473 1.10699,0.52592c0.56092,-0.1042 0.90297,-0.57147 0.8078,-1.08364l-0.33085,-1.7803c-0.02722,-0.1463 0.05223,-0.26203 0.19855,-0.28925c0.14632,-0.02718 0.26201,0.05224 0.28925,0.19855l0.33087,1.78032l0.03172,0.17071l0.01809,0.09758c0.11786,0.6341 0.72062,1.0267 1.40347,0.89978l0.04881,-0.00906c0.68285,-0.12691 1.10438,-0.70984 0.9865,-1.34392l-0.38068,-2.04854c-0.02722,-0.1463 0.05222,-0.26201 0.19851,-0.28922c0.14632,-0.02718 0.26201,0.05222 0.28923,0.19853l0.38069,2.04857l0.08607,0.46338c0.07975,0.42925 0.39516,0.75664 0.79476,0.88564zM244.23243,177.3599c-0.11398,-0.20591 -0.24779,-0.38289 -0.35266,-0.54001c0.17394,0.80027 0.26111,1.54099 0.30686,2.46598l0.03841,0.74973c-0.0088,0.47425 -0.12568,0.86926 -0.33369,1.16866c-0.22516,0.34037 -0.56432,0.56246 -0.99494,0.64248l-0.21946,0.04078c-0.50643,0.09413 -0.97652,-0.01619 -1.30765,-0.30054c-0.14341,0.6372 -0.66867,1.1472 -1.36206,1.27608l-0.02442,0.00453l-0.02439,0.00453c-0.24913,0.04627 -0.49351,0.03899 -0.72167,-0.01298l-0.057,0.03153c-0.00799,0.22853 0.04189,0.49683 0.1513,0.67831c0.29937,0.52465 0.96341,0.70402 1.54141,0.41998l2.98286,-1.46262c0.7595,-0.39344 0.91442,-1.05301 1.00705,-1.77664c0.10855,-1.18076 -0.09538,-2.27824 -0.62997,-3.38993z"/><path d="M245.02935,180.74736c-0.06133,0.47955 -0.16951,0.98175 -0.45653,1.38052c-0.14611,0.20299 -0.33854,0.37917 -0.59476,0.51185l0.65112,6.89058c2.73056,6.59486 -5.11398,-5.31563 -5.41337,-5.84031c-0.1094,-0.18148 -0.17764,-0.4705 -0.16966,-0.69905l0.3239,-0.23237c0.22817,0.05197 0.45556,0.03999 0.70467,-0.00631l0.02377,-0.00515l0.0238,-0.0051c0.69335,-0.12885 1.20491,-0.65054 1.34834,-1.28774c0.33113,0.28437 0.60984,0.3867 1.11626,0.29257l0.19967,-0.02592c0.43064,-0.08003 0.71632,-0.2114 0.94147,-0.55179c0.20796,-0.29938 0.32982,-0.60604 0.33866,-1.08029l-0.01811,-0.70897c-0.04574,-0.92501 -0.0671,-1.60921 -0.24101,-2.40944c0.10488,0.15712 0.4026,0.0439 0.51658,0.24981c0.53457,1.11165 0.8138,2.34623 0.70521,3.52698z" data-paper-data="{&quot;noHover&quot;:false,&quot;origItem&quot;:[&quot;Path&quot;,{&quot;applyMatrix&quot;:true,&quot;segments&quot;:[[[273.91213,176.61986],[-0.03151,0.36793],[0.00198,-0.07043]],[[273.90347,176.42697],[0.0031,0.05647],[-0.07704,0.23275]],[[273.60702,177.1093],[0.12908,-0.24538],[0,0]],[[273.50274,177.30839],[0,0],[-0.07449,0.12089]],[[273.23877,177.55879],[0.0992,-0.04549],[-0.10987,0.05344]],[[272.88449,177.57287],[0.12318,0.04495],[0,0]],[[272.82171,177.54996],[0,0],[-0.14486,-0.05286]],[[272.53043,177.27336],[0.04204,0.12372],[-0.134,0.14239]],[[271.98505,177.39483],[0.19833,0.07238],[0,0]],[271.97807,177.39228],[[271.9711,177.38973],[0,0],[-0.07126,-0.02601]],[[271.78706,177.27648],[0.0509,0.04814],[0,0]],[[271.76757,177.27592],[0,0],[-0.03686,0.05769]],[[271.70326,177.4738],[-0.00056,-0.06344],[-0.00274,0.18081]],[[272.03659,177.81679],[-0.19222,-0.01481],[0,0]],[[273.02814,177.89407],[0,0],[0.25567,0.01426]],[[273.55825,177.58952],[-0.13407,0.17242],[0.2078,-0.2878]]],&quot;closed&quot;:true,&quot;fillColor&quot;:[0,0,0,1]}]}"/><path d="M238.45906,181.63014l-0.08756,-0.46318l-0.464,-2.05868c-0.02722,-0.1463 -0.24881,-0.37969 -0.3951,-0.35252c-0.14632,0.02718 0.08972,0.06487 0.11693,0.2112l0.2455,1.95864c0.11786,0.6341 0.24125,3.28436 -0.44158,3.41127l0.9972,2.61167c-0.68285,0.12691 -3.00414,-4.64744 -3.122,-5.28154l-0.02067,-0.10002l-0.03623,-0.17533l-0.37152,-1.85477c-0.02722,-0.1463 -0.14554,-0.23862 -0.29187,-0.21147c-0.14632,0.02718 0.10144,0.07667 0.12866,0.223l0.29711,1.71273c0.09516,0.51215 -0.49776,1.1997 -1.05869,1.30396c-0.16615,0.03087 3.57544,6.85204 3.45057,6.83882c-0.31506,-0.03332 -4.40075,-7.02533 -4.57694,-7.39008l-0.19031,-0.45688c-0.45515,-1.22738 -0.68692,-2.63201 -0.62538,-3.93013c0.08353,-0.77241 0.34105,-1.26197 0.78006,-1.34353c0.29266,-0.05437 0.87597,0.23561 1.17252,0.60937c0.06235,0.06411 -0.15879,-0.0405 -0.03684,-0.06316l0.24643,-0.05051c0.12193,-0.02265 0.22806,-0.17942 0.2054,-0.30137c-0.09798,-0.663 0.40443,-1.37664 1.01414,-1.48997l0.05018,-0.01004c0.51218,-0.09519 0.94015,0.29511 1.15447,0.63372c0.04251,0.09304 0.15807,0.1199 0.25556,0.10176l0.25643,-0.04965c0.12193,-0.02265 0.23466,-0.17075 0.21203,-0.29269c-0.09798,-0.663 0.40369,-1.33155 1.01339,-1.44488l0.02524,-0.00448c0.60969,-0.1133 1.33513,0.35892 1.48186,1.01285c0.02722,0.1463 0.18007,0.22792 0.30196,0.20525l0.25031,-0.0414c0.09758,-0.01809 -0.00106,0.17027 0.02962,0.06367c0.09537,-0.57282 0.52445,-1.17269 0.91463,-1.24521l0.22318,-0.03818c0.6341,-0.11786 1.15608,0.50519 1.33807,1.07693c0.20001,0.52563 0.37623,1.0148 0.49772,1.45403c0.21678,0.83409 0.34303,1.68887 0.43205,2.9402l0.03047,0.7458c-0.02504,0.40832 -0.18262,1.18364 -0.93866,1.32416l-0.2217,0.04473c-0.60969,0.1133 -1.46898,-0.40092 -1.57776,-0.98622l-0.46203,-2.27402c-0.02722,-0.1463 -0.1388,-0.21 -0.28509,-0.18281c-0.14632,0.02718 0.09694,0.05791 0.12417,0.20421l0.41803,2.52032l0.06071,0.37551c0.12235,0.65849 -0.35421,1.28576 -1.03709,1.41264l-0.02529,0.00497c-0.01522,0.00283 -0.03202,0.00587 -0.04717,0.00811c-0.18795,0.02626 -0.40413,0.01003 -0.58787,-0.03779c-0.3996,-0.12897 -0.7435,-0.4497 -0.82327,-0.87896z" data-paper-data="{&quot;noHover&quot;:false,&quot;origItem&quot;:[&quot;Path&quot;,{&quot;applyMatrix&quot;:true,&quot;segments&quot;:[[[271.86285,177.14434],[-0.08335,-0.0941],[0.04007,0.0403]],[[272.00217,177.24262],[-0.05244,-0.02185],[0.00426,0.00173]],[[272.01503,177.24767],[-0.00435,-0.00159],[0,0]],[[272.022,177.25022],[0,0],[0.19533,0.07128]],[[272.48348,177.04709],[-0.06874,0.18835],[0,0]],[272.52167,176.94245],[[272.77117,176.25881],[0,0],[0.01527,-0.04185]],[[272.86638,176.21451],[-0.04185,-0.01528],[0.04185,0.01528]],[[272.91069,176.30972],[0.01527,-0.04185],[0,0]],[[272.66119,176.99337],[0,0],[-0.0611,0.16742]],[[272.86819,177.40093],[-0.1744,-0.06365],[0,0]],[[272.93097,177.42384],[0,0],[0.21625,0.07892]],[[273.36389,177.234],[-0.06864,0.10143],[0,0]],[[273.46562,177.04189],[0,0],[0.16762,-0.33608]],[[273.79258,176.24196],[-0.07115,0.248],[0.03557,-0.13171]],[[273.88579,175.80393],[-0.0285,0.16593],[0.04017,-0.17507]],[[273.70869,175.33613],[0.18138,0.06619],[0,0]],[[273.64591,175.31322],[0,0],[-0.11161,-0.04074]],[[273.31077,175.45178],[0.11181,-0.13311],[-0.02414,0.02281]],[[273.22318,175.47515],[0.0279,0.01019],[0,0]],[[273.15342,175.44969],[0,0],[-0.03487,-0.01273]],[[273.10911,175.35447],[-0.01527,0.04185],[0.06176,-0.1909]],[[272.89459,174.88093],[0.1744,0.06365],[0,0]],[[272.88761,174.87838],[0,0],[-0.1744,-0.06365]],[[272.4185,175.10243],[0.07572,-0.1858],[-0.01273,0.03488]],[[272.32328,175.14674],[0.03488,0.01273],[0,0]],[[272.25352,175.12128],[0,0],[-0.0279,-0.01018]],[[272.20601,175.05651],[-0.00321,0.03045],[-0.00367,-0.11991]],[[272.01354,174.71749],[0.1465,0.05346],[0,0]],[[271.99959,174.7124],[0,0],[-0.1744,-0.06365]],[[271.53047,174.93645],[0.07572,-0.1858],[-0.01273,0.03487]],[[271.43526,174.98074],[0.03488,0.01273],[0,0]],[[271.36549,174.95528],[0,0],[-0.03488,-0.01273]],[[271.30846,174.89494],[0.00631,0.02602],[-0.01951,-0.14151]],[[271.15585,174.64162],[0.08371,0.03055],[-0.12557,-0.04583]],[[270.7597,174.86068],[0.13916,-0.18636],[-0.21355,0.32521]],[[270.33464,175.93875],[0.06961,-0.38566],[0,0]],[[270.31417,176.08148],[0,0],[-0.01415,0.16875]],[[270.51938,176.38561],[-0.16743,-0.0611],[0.16044,0.05856]],[[270.89261,176.22934],[-0.05347,0.14649],[0,0]],[[271.07846,175.72009],[0,0],[0.01527,-0.04185]],[[271.17368,175.67578],[-0.04185,-0.01528],[0.04185,0.01528]],[[271.21799,175.77101],[0.01527,-0.04185],[0,0]],[271.03214,176.28026],[271.01432,176.32909],[[271.00413,176.35699],[0,0],[-0.06619,0.18138]],[[271.22884,176.80264],[-0.19533,-0.07128],[0,0]],[[271.2428,176.80773],[0,0],[0.19533,0.07128]],[[271.70173,176.61158],[-0.06619,0.18138],[0,0]],[[271.91558,176.02561],[0,0],[0.01527,-0.04185]],[[272.01079,175.9813],[-0.04185,-0.01528],[0.04185,0.01528]],[[272.0551,176.07652],[0.01527,-0.04185],[0,0]],[271.84125,176.6625],[[271.79287,176.79505],[0,0],[-0.04481,0.12278]]],&quot;closed&quot;:true,&quot;fillColor&quot;:[0,0,0,1]}]}"/></g></g></g></g></svg>