<svg version="1.1" xmlns="http://www.w3.org/2000/svg" xmlns:xlink="http://www.w3.org/1999/xlink" width="274.33202" height="393.45875" viewBox="0,0,274.33202,393.45875"><defs><linearGradient x1="413.13962" y1="222.95873" x2="408.02545" y2="280.03053" gradientUnits="userSpaceOnUse" id="color-1"><stop offset="0" stop-color="#1a1a1a"/><stop offset="1" stop-color="#3c3c3c"/></linearGradient><radialGradient cx="399.02234" cy="225.92727" r="9.58478" gradientUnits="userSpaceOnUse" id="color-2"><stop offset="0" stop-color="#ffffff"/><stop offset="1" stop-color="#ff9090"/></radialGradient><radialGradient cx="425.37517" cy="231.76157" r="9.52652" gradientUnits="userSpaceOnUse" id="color-3"><stop offset="0" stop-color="#ffffff"/><stop offset="1" stop-color="#ff9090"/></radialGradient><linearGradient x1="207.29323" y1="122.93352" x2="207.29323" y2="135.44708" gradientUnits="userSpaceOnUse" id="color-4"><stop offset="0" stop-color="#000000"/><stop offset="1" stop-color="#000000" stop-opacity="0"/></linearGradient><linearGradient x1="278.65976" y1="122.36182" x2="278.65976" y2="134.87543" gradientUnits="userSpaceOnUse" id="color-5"><stop offset="0" stop-color="#000000"/><stop offset="1" stop-color="#000000" stop-opacity="0"/></linearGradient><linearGradient x1="242.39887" y1="120.12757" x2="242.39887" y2="132.64118" gradientUnits="userSpaceOnUse" id="color-6"><stop offset="0" stop-color="#000000"/><stop offset="1" stop-color="#000000" stop-opacity="0"/></linearGradient><linearGradient x1="253.31474" y1="-12.31643" x2="250.55572" y2="4.24432" gradientUnits="userSpaceOnUse" id="color-7"><stop offset="0" stop-color="#000000"/><stop offset="1" stop-color="#000000" stop-opacity="0"/></linearGradient><radialGradient cx="268.16284" cy="-8.16651" r="12.20725" gradientUnits="userSpaceOnUse" id="color-8"><stop offset="0" stop-color="#ffffff"/><stop offset="1" stop-color="#ffffff" stop-opacity="0"/></radialGradient></defs><g transform="translate(-190.06999,82.91379)"><g data-paper-data="{&quot;isPaintingLayer&quot;:true}" fill-rule="nonzero" stroke-linejoin="miter" stroke-miterlimit="10" stroke-dasharray="" stroke-dashoffset="0" style="mix-blend-mode: normal"><g fill="#884545" stroke="none" stroke-linecap="butt"><path d="M326.9935,147.47151c0.26864,-2.99794 2.91673,-5.21048 5.91467,-4.94183c2.99794,0.26864 5.21048,2.91673 4.94183,5.91467c-0.26864,2.99794 -2.91673,5.21048 -5.91467,4.94183c-2.99794,-0.26864 -5.21048,-2.91673 -4.94183,-5.91467z" stroke-width="NaN"/><path d="M328.53926,152.63007c0.26864,-2.99794 2.91673,-5.21048 5.91467,-4.94183c2.99794,0.26864 5.21048,2.91673 4.94183,5.91467c-0.26864,2.99794 -2.91673,5.21048 -5.91467,4.94183c-2.99794,-0.26864 -5.21047,-2.91673 -4.94182,-5.91467z" stroke-width="NaN"/><path d="M326.78692,157.7799c0.26864,-2.99794 2.91673,-5.21048 5.91467,-4.94183c2.99794,0.26864 5.21048,2.91673 4.94183,5.91467c-0.26864,2.99794 -3.48936,10.48039 -6.4873,10.21175c-2.99794,-0.26864 -4.63784,-8.18666 -4.36919,-11.1846z" stroke-width="NaN"/></g><path d="M202.29447,57.49634c-0.05451,-8.15261 8.18688,-36.76129 40.20201,-36.9211c31.60235,-0.15775 39.85672,29.48704 39.84884,36.89673c-0.05736,34.62977 -10.0012,3.23952 -10.0012,3.23952c0,0 0.07549,-3.0993 -2.81625,-3.15415c-3.43441,-0.06514 -2.94538,3.11562 -2.94538,3.11562l0.20548,233.48857l-13.8813,0.01861c0,0 0.21589,-117.83923 -1.38705,-120.78745c-1.39677,-2.56902 -15.74072,-3.02726 -17.44438,0.38226c-1.38152,2.76483 -1.66921,120.43134 -1.66921,120.43134l-13.83171,0.02746l-0.30539,-233.85171c0,0 0.27949,-2.919 -2.8856,-2.93443c-3.11083,-0.01515 -2.81569,2.90899 -2.81569,2.90899l0.30585,202.41004l-9.87984,0.19394c0,0 -0.57906,-187.49907 -0.69918,-205.46423z" fill="#ffffff" stroke="#000000" stroke-width="2" stroke-linecap="butt"/><path d="M251.70056,190.18133c0,0 -5.7036,0.55803 -9.35738,0.68936c-3.65377,0.13133 -8.08701,-0.06232 -8.08701,-0.06232l1.37933,0.92403c0,0 -0.21669,13.39057 -0.68062,21.94242c-0.46393,8.55183 -1.22172,21.02415 -1.22172,21.02415c0,0 -5.35889,1.59658 -7.93692,1.68824c-2.44955,0.0871 -7.16553,-1.15122 -7.16553,-1.15122c0,0 -0.42435,-8.9643 -0.63825,-20.54023c-0.13599,-7.35937 0.01439,-15.7743 -0.06214,-23.61243c-0.09072,-9.29111 -0.399,-17.77175 -0.44692,-22.72307c-0.08258,-8.53185 0.30881,-19.75313 0.30881,-19.75313c0,0 4.82167,-1.60752 9.99322,-1.26618c4.89872,0.32333 10.67217,1.57171 14.58206,1.55703c3.86945,-0.01453 9.61427,-1.2906 14.58028,-1.6423c5.4901,-0.38882 10.65332,0.759 10.65332,0.759c0,0 0.40433,11.73522 0.33242,20.55586c-0.03362,4.12464 -0.28132,11.83877 -0.29976,19.18391c-0.01948,7.75913 0.18789,15.24909 0.05527,23.16466c-0.22677,13.53594 -0.8023,24.71884 -0.8023,24.71884c0,0 -4.10221,1.13046 -6.38287,0.97725c-2.63419,-0.17696 -8.51504,-1.97805 -8.51504,-1.97805c0,0 -0.44941,-13.52092 -0.95691,-22.34953c-0.5075,-8.82863 -0.8211,-21.00743 -0.8211,-21.00743z" fill="#ab0000" stroke="#bd0000" stroke-width="2" stroke-linecap="butt"/><g><g><path d="M387.88813,309.05579l11.48757,-52.55752l12.78876,2.79526l-9.81905,44.92375l-2.28395,4.88027l-1.63843,-6.33027l0.1921,7.77769l-1.88432,-5.39315l-0.23617,5.34882l-2.22332,-6.35738l-1.80018,6.00009l-0.60851,-5.75024z" fill="#a2a2a2" stroke="none" stroke-width="0" stroke-linecap="butt"/><path d="M409.94771,274.22491l-14.68706,-3.21018" fill="none" stroke="#7a7a7a" stroke-width="4" stroke-linecap="round"/><path d="M411.96957,266.02505l-14.68707,-3.21018" fill="none" stroke="#7a7a7a" stroke-width="4" stroke-linecap="round"/><path d="M406.03397,289.82881l-14.68708,-3.21017" fill="none" stroke="#7a7a7a" stroke-width="4" stroke-linecap="round"/><path d="M393.36872,278.41881l14.68706,3.21018" fill="none" stroke="#7a7a7a" stroke-width="4" stroke-linecap="round"/><path d="M404.11851,298.20589l-14.68707,-3.21018" fill="none" stroke="#7a7a7a" stroke-width="4" stroke-linecap="round"/></g><g stroke="none" stroke-width="0.5" stroke-linecap="butt"><path d="M374.02109,275.50427c-0.10239,-0.18103 0.1229,-0.23756 0.1229,-0.23756l0.08747,-0.02195c0.76471,-0.19168 1.93477,-0.22137 2.53587,-0.63294c0.90781,-0.62156 0.13806,-2.43201 0.33362,-3.2711c0.40577,-0.83103 2.33085,-0.57452 3.42427,-0.78919c1.63997,-0.322 3.72835,-1.2764 5.16235,-1.92862c0.69174,-1.33275 0.1209,-2.30169 0.42499,-3.64523c0.27206,-1.20196 1.13448,-2.08983 1.39929,-3.31484c0.47213,-2.18408 -0.20545,-4.20909 1.68318,-6.02073c0,0 0.14481,-0.1389 0.34546,-0.00977c0.20067,0.12914 0.05586,0.26803 0.05586,0.26803c-1.82617,1.75174 -1.13838,3.75199 -1.5959,5.86861c-0.27881,1.28981 -1.7257,2.57678 -1.54184,3.92641c0.18081,1.32712 0.33136,1.97464 -0.37785,3.19335c-1.53385,0.76216 -4.01435,1.82766 -5.86232,2.10335c-0.71047,0.10599 -2.45341,-0.04049 -2.63677,0.48363c-0.23604,0.99764 0.59884,2.65693 -0.45412,3.42834c-0.6311,0.46234 -1.86833,0.49601 -2.69133,0.70278l-0.08748,0.02195c0,0 -0.22528,0.05653 -0.32767,-0.1245z" fill="#0015ff"/><path d="M383.62308,284.50846c-0.24423,-0.05338 -0.20445,-0.23537 -0.20445,-0.23537l0.07904,-0.36166c0.17171,-0.78473 0.46102,-1.63815 1.01363,-2.2859c0.68168,-0.78832 1.8776,-1.29809 2.52009,-2.05936c1.00547,-1.19133 0.46794,-3.06271 0.18359,-4.43899c-0.52294,-2.62566 2.24958,-4.75387 0.92222,-7.3009c-0.85375,-2.13662 -0.27581,-5.34489 3.67915,-4.51718c0,0 0.24423,0.05338 0.20446,0.23537c-0.03977,0.18198 -0.28401,0.1286 -0.28401,0.1286c-3.57901,-0.82678 -3.84908,2.27427 -3.13476,4.06802c1.37809,2.63955 -1.4298,4.70445 -0.89816,7.37389c0.30428,1.47277 0.82418,3.41455 -0.24705,4.68379c-0.6484,0.76825 -1.84034,1.26775 -2.52227,2.06191c-0.52576,0.60295 -0.7875,1.42209 -0.94842,2.15753l-0.07905,0.36163c0,0 -0.03976,0.18197 -0.28401,0.12859z" fill="#ff0000"/><path d="M393.46148,290.2869c-0.07714,0.17152 -0.31226,0.09057 -0.31226,0.09057l-0.47573,-0.16705c-1.88277,-1.32078 -2.50746,-1.90885 -2.10649,-3.74339c0.46043,-2.10652 2.06933,-4.88339 3.97403,-6.3808c1.01291,-2.43997 0.18949,-4.88918 0.72244,-7.35098c0.43309,-1.98147 0.97939,-4.7594 3.67557,-5.4375c0,0 0.22527,-0.05653 0.32767,0.1245c0.10239,0.18103 -0.12291,0.23757 -0.12291,0.23757c-2.52339,0.63183 -2.98711,3.33039 -3.39186,5.18221c-0.55226,2.50077 0.32409,4.9969 -0.77744,7.4669c-1.85696,1.52653 -3.45907,4.16046 -3.91902,6.26487c-0.37046,1.69491 0.13534,2.08618 1.85486,3.32855l0.39317,0.13208c0,0 0.23513,0.08094 0.15797,0.25246z" fill="#ff0000"/><path d="M401.50474,291.82691c-0.24204,-0.06208 -0.19055,-0.24129 -0.19055,-0.24129l0.08926,-0.30354c0.61114,-0.87482 1.11035,-1.63542 1.93574,-2.42296c1.14545,-0.98295 2.26294,-1.95599 3.56872,-2.81686c0.16484,-0.10868 1.74839,-0.88878 1.74954,-0.90033c0.05709,-0.57603 -1.13209,-0.9157 -1.52571,-1.4533c-1.3441,-1.84147 -0.57676,-2.89786 -0.1712,-4.75336c0.15843,-0.72485 0.77319,-1.9168 0.13382,-2.61974c-1.17886,-1.36373 -5.05184,-5.2272 -2.66325,-6.40416c0,0 0.20082,-0.09094 0.34539,0.07549c0.14457,0.16642 -0.05624,0.25736 -0.05624,0.25736c-2.06822,0.81889 1.90654,4.88466 2.77642,5.89019c1.83864,2.20847 -1.73385,4.94388 0.06011,7.40165c0.2118,0.29117 1.61862,1.43293 1.59539,1.66262c-0.01997,0.19732 -1.31501,0.7741 -1.54181,0.91849c-1.43082,0.91091 -2.64098,1.94685 -3.87736,3.00718c-0.79607,0.76004 -1.27508,1.48235 -1.86227,2.32594l-0.07249,0.25948c0,0 -0.05149,0.17921 -0.29353,0.11713z" fill="#ff0000"/><path d="M419.42376,294.4805c-0.24561,-0.0461 -0.2156,-0.23007 -0.2156,-0.23007l0.02395,-0.08548c-0.07645,-0.37422 -0.23344,-0.67653 -0.41349,-1.03807c-1.47482,-2.31061 -1.70031,-5.27551 -3.39345,-7.42219c-0.39593,-0.69803 -1.10616,-1.47441 -1.14688,-2.22407c-0.05789,-1.06571 0.71913,-1.52565 1.34595,-2.21301c0.44636,-0.4895 0.4943,-2.0856 0.47548,-2.71856c-2.94185,-2.69329 -1.2675,-4.58393 -0.6733,-7.33961c0.41064,-2.1932 -0.67356,-4.62006 -0.21353,-6.76395c0,0 0.03977,-0.18197 0.28401,-0.12859c0.24424,0.05338 0.20446,0.23537 0.20446,0.23537c-0.47503,2.12984 0.62422,4.57191 0.21447,6.75948c-0.60987,2.82925 -2.13467,4.36902 0.64199,7.13823c0.07393,0.74395 0.0126,2.45771 -0.514,3.05702c-0.56822,0.64669 -1.32574,0.99794 -1.27105,2.00486c0.03694,0.67991 0.73006,1.42062 1.08759,2.0548c1.67509,2.19833 1.91946,5.10557 3.40863,7.44683c0.19701,0.39428 0.36507,0.72918 0.4517,1.13768l-0.02126,0.19149c0,0 -0.03003,0.18397 -0.27566,0.13786z" fill="#0015ff"/><path d="M429.18707,288.64117c-0.03977,0.18198 -0.28401,0.1286 -0.28401,0.1286l-0.48577,-0.10617c-0.56379,-0.12579 -1.0991,-0.33551 -1.63376,-0.53862c-3.7512,-1.45268 -3.36768,-4.62609 -2.72556,-6.97991c-1.60848,-1.92394 -3.04812,-5.1798 -3.4284,-7.36398c-0.40261,-2.33279 -1.12058,-4.46981 -0.62765,-6.72498c0,0 0.03977,-0.18197 0.28401,-0.1286c0.24424,0.05338 0.20446,0.23537 0.20446,0.23537c-0.48414,2.21505 0.23384,4.32104 0.62974,6.61489c0.39792,2.32777 1.94147,5.21689 3.42335,7.34026c-0.39995,2.20748 -1.28263,5.2988 2.41387,6.671c0.50306,0.19119 1.0094,0.39434 1.54038,0.5108l0.4849,0.10598c0,0 0.24423,0.05338 0.20446,0.23537z" fill="#0015ff"/><path d="M410.52183,298.33488c-0.21844,-0.10911 -0.10219,-0.26424 -0.10219,-0.26424l0.00678,-0.00904c1.52106,-1.99186 0.61876,-5.2418 1.1121,-7.49893c0.50564,-2.31341 -0.57785,-5.47434 0.62845,-7.49993c1.46964,-2.84272 1.27866,-3.86625 -0.84492,-6.80095c-1.73029,-2.39475 -1.34892,-4.12977 -0.82396,-6.53153c0,0 0.03977,-0.18197 0.28401,-0.12859c0.24424,0.05338 0.20446,0.23537 0.20446,0.23537c-0.50704,2.31977 -0.91038,3.96302 0.76168,6.27377c2.19258,3.0348 2.4,4.19559 0.87786,7.13597c-1.18523,1.97383 -0.10351,5.15531 -0.59908,7.42267c-0.50993,2.333 0.36955,5.5315 -1.16371,7.61038l-0.00677,0.00905c0,0 -0.11626,0.15513 -0.33469,0.04601z" fill="#0015ff"/><path d="M403.10294,297.80484c-0.20131,0.09037 -0.3452,-0.07636 -0.3452,-0.07636l-0.1351,-0.15655c-1.2173,-1.41051 -3.18948,-3.50831 -3.1949,-5.10817c0.52359,-2.42113 1.38687,-4.7981 1.93172,-7.29091c0.21979,-1.00552 0.62539,-2.0749 0.52311,-3.13176c-0.13238,-1.36795 -1.51668,-2.84529 -1.96208,-4.21854c0.42525,-2.07857 0.5339,-4.58335 2.22703,-6.21356c0,0 0.14481,-0.1389 0.34546,-0.00977c0.20067,0.12914 0.05585,0.26803 0.05585,0.26803c-1.64657,1.57294 -1.664,3.99149 -2.13403,5.98372c0.48209,1.36286 1.82388,2.83117 1.96062,4.20258c0.10874,1.09055 -0.30075,2.18862 -0.52751,3.22605c-0.54248,2.48198 -1.39441,4.85226 -1.92681,7.26043c0.01178,1.49035 1.96678,3.53328 3.10413,4.85114l0.13511,0.15655c0,0 0.14389,0.16673 -0.05741,0.25711z" fill="#ff0000"/><path d="M391.76371,277.12932c-0.03977,0.18198 -0.28401,0.1286 -0.28401,0.1286l-0.47908,-0.10472c-0.34021,-0.07436 -0.6802,-0.14979 -1.01999,-0.22601c-1.29321,-0.67386 -0.98763,-1.01027 -1.44747,-1.91941c-0.24486,-0.4841 -1.09438,-0.91546 -1.46552,-1.39994c-0.96459,-1.25919 -0.76589,-2.52543 -0.48772,-3.79811c0.63545,-2.90733 -1.0702,-4.48977 -2.10476,-7.35963c-0.88451,-2.46484 -0.22082,-4.68396 2.99327,-5.49049c0,0 0.22528,-0.05653 0.32766,0.1245c0.10239,0.18103 -0.1229,0.23757 -0.1229,0.23757c-2.99501,0.75155 -3.54033,2.79015 -2.72177,5.07119c1.04404,2.92381 2.76799,4.54516 2.11696,7.52364c-0.20495,0.93767 -0.43056,1.88326 -0.0415,2.87579c0.34293,0.87486 1.57316,1.34459 1.9636,2.11497c0.42443,0.83745 -0.00249,1.04956 1.1558,1.68094c0.31152,0.06593 0.62278,0.13304 0.93387,0.20104l0.47908,0.10472c0,0 0.24423,0.05338 0.20445,0.23537z" fill="#ff0000"/><path d="M387.2963,283.85039c-0.12151,-0.17546 0.09405,-0.24746 0.09405,-0.24746l0.05205,-0.01739c0.58924,-0.19682 1.17786,-0.37202 1.79063,-0.53194c0.6414,-0.05387 1.21349,-0.42784 1.837,-0.44654c1.52841,-0.04585 3.18989,1.03174 4.73226,1.1478c0.96994,0.07299 2.14868,-0.53228 3.04794,-0.72712c0.44102,-0.01943 1.41264,0.02419 1.7056,-0.26563c0.48334,-0.47814 0.42507,-2.07868 0.57078,-2.72116c0.25888,-1.14148 1.05721,-2.04867 1.91733,-2.92755c2.13483,-2.18127 3.60631,-3.73819 4.2244,-6.56605c0.49561,-2.26752 1.87795,-3.96575 3.17155,-5.93442c0,0 0.10535,-0.16032 0.32926,-0.05899c0.22391,0.10132 0.11856,0.26163 0.11856,0.26163c-1.27365,1.93832 -2.64305,3.60661 -3.13089,5.83855c-0.62937,2.87946 -2.13231,4.49117 -4.30385,6.70994c-0.81852,0.83629 -1.59517,1.69715 -1.83825,2.78535c-0.15987,0.71566 -0.10317,2.32263 -0.65375,2.86727c-0.38273,0.3786 -1.38685,0.36231 -1.97188,0.38548c-0.97755,0.21619 -2.11755,0.79497 -3.18182,0.72956c-1.51264,-0.09296 -3.17636,-1.19038 -4.65708,-1.14564c-0.5786,0.01749 -1.14633,0.38607 -1.75395,0.43832c-0.58427,0.15544 -1.1474,0.32387 -1.71078,0.51205l-0.05206,0.01739c0,0 -0.21555,0.072 -0.33707,-0.10346z" fill="#0015ff"/><path d="M397.1785,279.30277c-0.16858,0.12181 -0.34972,-0.02355 -0.34972,-0.02355l-0.07034,-0.05644c-1.37329,-1.10394 -1.97015,-2.39437 -2.07649,-3.8197c0.17261,-0.8047 0.55493,-1.6938 0.55666,-2.52266c0.00079,-0.37969 -0.98241,-1.36273 -1.20469,-1.83041c-0.47689,-1.00333 -0.43201,-2.0852 -0.43613,-3.09835c0.4801,-2.22021 -0.87347,-4.53867 -0.40601,-6.67737c0,0 0.03977,-0.18197 0.28401,-0.12859c0.24424,0.05338 0.20445,0.23537 0.20445,0.23537c-0.46367,2.12138 0.89952,4.43703 0.41092,6.64679c0.00717,0.83328 -0.04694,1.74432 0.23739,2.5829c0.2476,0.73022 1.35243,1.64654 1.40372,2.28994c0.06532,0.81919 -0.38002,1.7793 -0.55608,2.56828c0.10843,1.31285 0.65317,2.4958 1.91937,3.51018l0.07034,0.05644c0,0 0.18115,0.14535 0.01257,0.26718z" fill="#0015ff"/><path d="M405.86454,284.09149c-0.08153,-0.18541 0.1521,-0.2253 0.1521,-0.2253l0.35108,-0.0578c0.7322,-0.34074 1.3961,-0.43693 2.24618,-0.59238c0.77455,-0.07402 1.55805,0.31123 2.11531,0.27468c1.15963,-0.07604 1.79058,-0.60998 2.70074,-0.94769c1.31741,-0.48881 2.68816,-0.25235 3.64571,-1.28052c1.74726,-1.86076 -0.84547,-5.0451 0.24524,-7.36116c0.53337,-1.12597 3.8234,-4.97631 5.82413,-3.72456c0,0 0.20066,0.12913 0.05586,0.26803c-0.1448,0.1389 -0.34547,0.00977 -0.34547,0.00977c-1.47628,-0.98711 -4.66184,2.75782 -5.06661,3.61369c-1.13463,2.38401 1.55771,5.4622 -0.29931,7.43985c-1.02546,1.08412 -2.41713,0.85223 -3.79407,1.37771c-0.92047,0.35128 -1.69277,0.98449 -2.9125,0.98415c-0.73733,-0.0002 -1.14796,-0.36306 -2.02395,-0.28035c-0.8324,0.15323 -1.44289,0.2484 -2.16169,0.57398l-0.41759,0.07343c0,0 -0.23363,0.03988 -0.31516,-0.14552z" fill="#ff0000"/><path d="M403.37772,289.89865c0.03977,-0.18198 0.28401,-0.1286 0.28401,-0.1286l0.16231,0.03548c0.49601,0.10856 0.95626,0.14655 1.45837,0.19311c3.53506,0.76812 5.91595,-1.35068 7.66967,-3.02011c2.1653,-1.88989 6.28478,-0.87308 7.96081,-3.42965c1.24024,-1.88735 2.24859,-4.08687 3.94401,-5.71316c0,0 0.1448,-0.1389 0.34546,-0.00977c0.20067,0.12914 0.05587,0.26804 0.05587,0.26804c-1.67721,1.60884 -2.67032,3.79003 -3.89752,5.65756c-1.73453,2.63366 -5.83902,1.59239 -8.01537,3.49276c-1.89979,1.71386 -4.35691,3.94967 -8.10178,3.1259c-0.51532,-0.04645 -0.98835,-0.09025 -1.49839,-0.20054l-0.16299,-0.03563c0,0 -0.24423,-0.05338 -0.20446,-0.23537z" fill="#ff0000"/><path d="M386.2001,283.0717c-0.14481,0.13889 -0.34547,0.00977 -0.34547,0.00977l-0.28281,-0.18256c-1.15583,-0.57479 -3.42601,-1.70846 -3.76071,-2.81458c-0.20832,-0.68844 0.37415,-1.86402 0.49811,-2.54187c-0.3882,-1.45056 -1.86652,-2.95676 -2.04466,-4.39435c-0.12571,-1.01446 0.49098,-2.25189 0.68316,-3.23732c-0.05026,-2.45404 -0.80944,-5.48051 -0.30627,-7.83087c0.30284,-1.38553 0.58956,-2.81739 1.29568,-4.0873c0.28084,-0.50508 0.95218,-1.29858 0.4176,-1.85721c0,0 -0.14457,-0.16642 0.05625,-0.25736c0.20082,-0.09093 0.34539,0.07548 0.34539,0.07548c0.94827,1.16642 -1.32515,4.85464 -1.62646,6.23317c-0.51926,2.32208 0.27171,5.36441 0.31168,7.79514c-0.18351,0.96221 -0.8076,2.19198 -0.68423,3.17834c0.17916,1.43236 1.67077,2.95914 2.04643,4.41537c-0.41626,2.53835 -0.22243,3.42405 3.02879,5.02816l0.31162,0.19997c0,0 0.20066,0.12913 0.05586,0.26803z" fill="#ff0000"/><path d="M379.54378,279.51067c0.03977,-0.18198 0.28401,-0.1286 0.28401,-0.1286l0.27095,0.06355c1.79204,0.09894 3.52146,0.1068 5.29531,0.06996c1.63324,-0.16289 4.72068,-0.0589 5.47114,-1.36103c0.44886,-0.77884 0.42669,-1.98373 0.61561,-2.84799c0.54773,-2.50595 2.92728,-4.09602 3.49985,-6.70439c0.70435,-1.87112 5.14397,-1.9988 6.73106,-3.53003c0,0 0.1448,-0.13889 0.34546,-0.00977c0.20067,0.12914 0.05586,0.26803 0.05586,0.26803c-1.47718,1.40956 -6.0425,1.73205 -6.64874,3.3974c-0.5668,2.60505 -2.95152,4.19887 -3.49502,6.68551c-0.1957,0.89537 -0.18098,2.12023 -0.64707,2.92897c-0.83968,1.45696 -3.99111,1.36992 -5.82959,1.55148c-1.7975,0.03905 -3.55195,0.03045 -5.36819,-0.06982l-0.37617,-0.07789c0,0 -0.24423,-0.05338 -0.20446,-0.23537z" fill="#0015ff"/><path d="M397.86134,290.33489c-0.03977,0.18198 -0.28401,0.1286 -0.28401,0.1286l-0.54039,-0.12321c-2.24498,-1.42564 -0.99419,-2.55753 -0.62736,-4.23575c0.30588,-1.27495 -0.21627,-2.73496 0.25104,-4.1337c0.35088,-1.05029 1.21354,-1.87219 1.5245,-2.93023c0.7824,-2.6622 -0.35052,-4.77247 0.74466,-7.22991c0.62436,-0.83389 1.72073,-1.62496 2.17622,-2.51806c0.52012,-1.0198 0.46557,-2.07839 1.18538,-3.05837c0,0 0.11497,-0.15578 0.33408,-0.04759c0.21912,0.1082 0.10416,0.26397 0.10416,0.26397c-0.71872,0.96863 -0.64287,2.00365 -1.15947,3.01655c-0.45999,0.90193 -1.55124,1.69611 -2.18484,2.53375c-1.06479,2.42333 0.06263,4.51409 -0.71659,7.16543c-0.31276,1.06419 -1.17573,1.88692 -1.52754,2.93996c-0.474,1.41878 0.02318,2.78508 -0.24312,4.10495c-0.3264,1.49332 -1.5777,2.54432 0.32855,3.79929l0.4303,0.08893c0,0 0.24423,0.05339 0.20446,0.23537z" fill="#ff0000"/><path d="M407.89755,291.32985c-0.24424,-0.05338 -0.20446,-0.23537 -0.20446,-0.23537l0.07751,-0.35465c0.10673,-0.4883 0.21331,-0.97662 0.32067,-1.46478c0.8083,-2.02276 2.63394,-5.00716 0.81376,-7.10643c-3.14132,-1.91413 -3.3458,-4.52787 -3.82652,-7.2055c-0.75441,-2.24868 0.17599,-4.50848 0.64521,-6.65526c0,0 0.03977,-0.18198 0.28401,-0.1286c0.24424,0.05338 0.20445,0.23536 0.20445,0.23536c-0.45956,2.10261 -1.38166,4.31989 -0.64843,6.52047c0.48008,2.64093 0.64297,5.09063 3.68759,6.99745c1.98832,2.2847 0.20958,5.27238 -0.67751,7.47174c-0.10443,0.48089 -0.20967,0.96158 -0.31476,1.44232l-0.07751,0.35466c0,0 -0.03977,0.18198 -0.28401,0.1286z" fill="#0015ff"/><path d="M415.651,292.03498c-0.07365,-0.18665 0.16259,-0.22029 0.16259,-0.22029l0.23671,-0.00426c0.15355,-1.94238 0.02633,-4.83698 1.27387,-6.46922c0.69564,-0.89552 1.79435,-1.5544 2.55629,-2.40108c0.85542,-0.95057 0.77255,-3.05369 1.03174,-4.23136c0.3536,-1.60652 0.72452,-3.19313 1.83151,-4.55349c0.32704,-0.4019 1.215,-0.7399 1.29124,-1.2136c0,0 0.03976,-0.18197 0.28401,-0.1286c0.24423,0.05338 0.20446,0.23537 0.20446,0.23537c-0.14939,0.58302 -0.95526,0.84915 -1.35061,1.33499c-1.0774,1.324 -1.42821,2.86939 -1.77224,4.43249c-0.27555,1.25198 -0.20679,3.33853 -1.09962,4.3625c-0.74075,0.84954 -1.85722,1.49333 -2.54274,2.38473c-1.37201,1.7517 -0.72566,4.52513 -1.33423,6.52943l-0.4631,0.09539c0,0 -0.23623,0.03364 -0.30988,-0.15301z" fill="#ff0000"/><path d="M395.69517,296.74635c-0.24418,-0.05364 -0.20403,-0.23556 -0.20403,-0.23556l0.0712,-0.28558c0.80462,-0.71652 1.72598,-1.52146 2.14727,-2.4523c0.44514,-0.96104 1.25436,-2.06916 2.39373,-2.64249c0.54695,-0.27523 1.812,-0.06335 2.40362,-0.36258c-1.31248,0.98608 -3.48004,1.32217 -4.32825,3.16939c-0.43618,0.93094 -1.32027,1.78279 -2.16383,2.48317l-0.03543,0.19768c0,0 -0.04013,0.18191 -0.28431,0.12827zM402.72977,290.58621c0.00111,-0.00154 0.0022,-0.00309 0.00328,-0.00463c0.3189,-0.45557 0.34337,-1.42428 0.33747,-1.97212c-0.01434,-2.34778 1.77643,-4.93711 0.30109,-7.2529c-0.97271,-1.72656 -1.56722,-5.14376 -1.20019,-6.87832c0,0 0.03976,-0.18198 0.28401,-0.1286c0.24424,0.05338 0.20446,0.23537 0.20446,0.23537c-0.3701,1.6327 0.22899,5.01547 1.15707,6.64953c1.53533,2.40828 -0.27762,4.9882 -0.25153,7.4194c0.0054,0.89071 -0.32759,1.48068 -0.83564,1.93226zM402.50698,290.76781c0.07739,-0.05814 0.15179,-0.11853 0.22278,-0.18163c-0.05426,0.07558 -0.13029,0.13485 -0.22278,0.18163z" fill="#0015ff"/></g><path d="M458.55331,204.44514c0.9562,0.17998 2.01873,1.64858 2.5134,2.65795l0.11246,-0.05565l0.22089,0.44633c0.02504,0.04952 0.03382,0.10765 0.02106,0.16606c-0.01035,0.04736 -0.03351,0.08864 -0.06504,0.12099c0.01185,0.00543 0.02371,0.01085 0.0356,0.01625c0.51624,0.23514 1.47735,0.36137 2.07683,0.66211c0.0924,0.02117 0.18501,0.04195 0.27783,0.06227l0.00002,0v0l0.45904,0.10047v0c0.13485,0.02951 0.22026,0.16274 0.19079,0.29761c-0.02948,0.13489 -0.16273,0.22033 -0.29762,0.19085l-0.48846,-0.10676l0.00003,-0.00015c-0.13671,-0.0301 -0.27295,-0.06111 -0.40875,-0.09299c-0.65113,-0.07614 -1.28832,-0.26101 -1.91714,-0.5089c-0.23529,-0.06904 -0.4697,-0.13996 -0.70345,-0.21248c-0.04377,0.08912 -0.08833,0.17779 -0.13364,0.26602c-0.06577,0.17425 -0.16446,0.35101 -0.2801,0.52457c-0.56897,1.02808 -1.22264,2.00785 -1.8483,3.00509c-0.39728,0.62768 -1.04022,1.44298 -1.80577,2.29689c0.47791,-0.11768 1.44676,-0.23707 1.54698,0.23616c0.09535,0.4502 -0.61556,0.58047 -1.38037,0.41588c-0.35851,0.12274 -0.70858,0.26391 -1.04997,0.42383c-0.06667,1.58619 0.12146,3.29838 -0.09468,4.59626c2.01806,-0.89757 0.83935,1.5887 1.23197,2.15043c0.37151,0.53153 -0.37749,4.01205 -0.95386,5.35561c3.04998,-1.31208 1.89164,1.85027 1.40729,4.06626c-0.08178,0.37418 -0.72862,2.04517 -0.70944,2.15203c0.05058,0.28167 0.63508,0.06105 0.80852,0.28866c0.43169,0.56649 -0.12819,1.32008 0.11703,1.92624c0.37316,0.92238 -0.87923,2.49217 -1.90791,1.79916c-0.40401,-0.27217 -0.30412,-0.9785 -0.67211,-1.29769c-0.16545,-0.41866 0.09288,-1.26025 -0.35527,-1.30296c-0.32788,-0.03126 -0.93405,0.96267 -1.37633,0.06947c-0.21239,-0.42892 0.77712,-1.13627 0.3697,-1.38747c-0.47419,-0.29238 -1.11634,0.14225 -1.66951,0.07631c-0.27493,-0.03278 -0.44202,-0.34973 -0.52883,-0.75295c-0.07395,0.92217 -0.04048,1.88503 0.15236,2.71622c0.09454,0.74509 1.56465,2.05999 0.71597,2.8685c-1.12436,1.07117 -5.2829,-2.0484 -6.62698,-2.34327c-3.2263,-1.0923 -6.4731,-2.58107 -9.89613,-2.90087c-3.06794,0.34234 -7.28309,-1.11556 -10.25664,-1.96833c-3.38767,-0.97237 -6.71113,-1.97321 -10.0019,-3.24138c-3.30044,-1.2719 -6.3613,-2.72952 -9.39299,-4.54558c-3.31275,-1.98441 -5.59331,-3.10095 -9.34068,-3.92047c-3.75823,-0.8219 -6.45561,-1.90821 -9.38582,-4.43647c-0.91712,-0.79253 -1.30024,-2.28316 -2.44895,-2.81982c-0.85364,-0.39882 -1.33483,0.74655 -2.11836,0.74836c-1.41819,0.00326 -2.2565,-1.36761 -3.27477,-1.52371c-0.72215,-0.1728 -2.25358,0.13834 -2.87654,-0.46326c-0.48096,-0.46448 0.02618,-1.08134 0.0259,-1.57581c-0.00038,-0.68331 -0.74301,-1.09927 -1.14613,-1.4944c-0.11941,-0.11704 -1.38413,0.06504 -2.25554,0.09081l-0.05168,0.23645l-0.48846,-0.10676v0c-0.13489,-0.02948 -0.22033,-0.16273 -0.19086,-0.29762c0.01321,-0.06046 0.04729,-0.11098 0.09299,-0.14568l0.38243,-0.29431c0.08372,-0.11554 -0.41572,-2.98297 0.08793,-3.96498c0.857,-1.67097 2.76719,-0.10256 3.60029,-1.50492c1.37216,-1.24843 2.62485,-1.19322 4.42345,-1.67062c0.40523,-0.10755 1.39405,-0.97666 1.18766,-1.4785c-0.09645,-0.23453 -2.23361,-0.74022 -2.58944,-0.85299c-0.24967,-0.07927 -1.53551,-0.29856 -1.61335,-0.5245c-0.13796,-0.4005 1.15267,-1.5166 1.41722,-1.74544c1.65087,-1.42796 3.76832,-2.64577 4.25302,-4.86333c0.18221,-0.83358 0.31622,-1.73944 0.47672,-2.64246c-0.3918,-0.92414 -0.4135,-2.19544 -0.27239,-2.89944c0.46859,-2.32278 1.9488,-4.47711 3.64592,-6.3086c-1.52824,-0.3136 -3.40067,-0.84492 -3.48699,-1.7992c-0.11119,-1.22933 4.12848,-1.20289 4.95323,-1.2906c0.6114,-0.03851 1.22098,-0.07503 1.82975,-0.10732c1.10544,-1.14385 2.62177,-2.7298 3.68853,-2.88249c0.22836,-1.68907 0.61632,-3.43144 1.24464,-3.79438c0.89569,-0.51736 1.66146,0.87069 2.08167,1.87068c0.13831,-0.46642 0.27732,-0.85628 0.34762,-1.05628c0.26606,-0.75698 2.17629,-4.81817 3.41196,-3.37568c0.18086,0.21113 0.24703,0.66861 0.23283,1.22248c0.38434,-0.50386 0.82061,-0.85472 1.29679,-1.0879c-0.00749,-0.01106 -0.01493,-0.02213 -0.02234,-0.03329c-1.76534,-2.65071 0.65113,-3.22336 2.77619,-2.56197c0.84829,0.26401 2.80265,1.22163 4.3323,2.21172c0.83968,0.01496 1.71214,0.04236 2.58729,0.11446c-0.00473,-0.02989 -0.00409,-0.06113 0.00277,-0.09246c0.02947,-0.13489 0.16273,-0.22033 0.29761,-0.19085c1.30259,0.2847 3.01121,0.65816 4.31378,0.94287c0.71027,0.15525 2.31427,0.71785 3.82803,1.08159c0.43002,0.06723 0.87628,0.15328 1.32415,0.25907c0.55553,0.07611 1.04709,0.0892 1.40885,-0.00128c-1.06241,-1.14964 -2.3568,-2.84512 -1.39918,-3.39751c0.82656,-0.47679 4.35689,2.13575 5.09006,2.58715c0.13613,0.0838 0.26716,0.17151 0.39378,0.26257c2.59781,0.41251 5.4293,0.85549 7.39345,2.08963c0.92274,0.63425 4.51481,4.08821 3.138,5.62313c0.37517,0.22065 0.74751,0.33671 1.09966,0.26281c1.05007,-0.22036 -0.02973,-5.83721 2.66299,-3.27716c1.33466,1.65399 2.6527,3.60611 3.48937,5.56049c0.10083,0.23553 0.73526,2.04894 0.91498,2.07021c0.39555,0.04682 0.55733,-0.57111 0.80556,-0.88263c1.48935,-2.78589 1.77744,-0.12178 1.73631,1.73158c-0.00371,0.1673 -0.46734,1.66944 -0.41965,1.71156c0.475,0.41963 2.59595,0.50901 3.28315,0.67507c2.49286,0.95523 3.77091,2.61676 3.78964,5.24469c0.00452,0.63347 0.80039,0.09321 1.0422,0.53586c0.10828,0.19821 -0.28117,1.61325 -0.33856,1.90992c0.01443,0.08572 0.02437,0.17312 0.03023,0.26196c0.05229,0.02512 0.10429,0.05045 0.15595,0.076c0.24772,0.12246 1.8776,0.64158 1.94174,0.8062c0.31205,0.80093 -1.7063,1.81036 -2.89224,2.46155c-0.07434,0.21189 -0.14387,0.41649 -0.20314,0.61076c-0.11734,0.38455 -0.21713,0.72421 -0.54544,0.997c-0.20054,0.16665 -0.97866,0.22789 -0.72583,0.2917c1.55694,0.39298 1.98796,0.62551 3.2185,1.64581c0.18518,0.39977 0.9338,2.9038 0.81749,3.10784c-0.39871,0.69939 -1.97464,1.45786 -3.40709,1.98862c-0.00293,0.04042 -0.0067,0.08115 -0.01147,0.12219c-0.04194,0.36186 -0.39146,0.55292 -0.80053,0.68228c0.45683,0.09984 0.91362,0.19969 1.37042,0.29952c0.02942,0.00647 0.05837,0.01305 0.08678,0.01974c0.70498,-0.15849 1.29696,-0.473 2.01188,-1.28393l0.15304,-0.43494c0.04008,-0.11936 0.16448,-0.19186 0.29029,-0.16436c0.13465,0.02942 0.22003,0.16226 0.19102,0.2969c-0.00001,0.00003 -0.00002,0.00006 -0.00002,0.00009l-0.0782,0.36283c0.07103,0.34935 0.16753,0.65736 0.28893,0.93719z" fill="#000000" stroke="none" stroke-width="0.5" stroke-linecap="butt"/><path d="M371.18425,208.67348c0,0 7.28565,-4.46924 7.59587,-5.28762c0.49283,-1.30012 3.52246,-15.36495 13.74673,-24.84318c6.65531,-6.16969 16.35908,-10.39596 30.39597,-7.89318c43.80194,8.63866 30.43982,42.66592 31.4369,49.88694c1.36714,9.90112 2.29917,18.31349 2.29917,18.31349c0,0 -2.26484,-2.59702 -3.3164,-3.93284c-0.98078,-1.24589 -3.04203,-3.88502 -3.04203,-3.88502c0,0 0.81019,10.76949 -3.13832,20.4976c-3.55074,8.92872 -10.80766,15.26984 -10.80766,15.26984l-0.62734,-2.53989c0,0 -1.46841,1.92888 -2.82188,2.79464c-1.35348,0.86576 -3.98138,2.11127 -3.98138,2.11127l0.70104,-3.63843c0,0 -9.24994,9.2563 -26.11045,5.4212c-15.87562,-3.73146 -23.19073,-15.99605 -23.19073,-15.99605l-0.68041,2.56879c0,0 -3.10184,-4.04845 -3.96603,-10.80357c-1.03001,-8.0513 -0.55044,-12.65259 -0.55044,-12.65259c0,0 -2.69066,1.3559 -6.1776,1.48966c-4.36935,0.16761 -6.86016,-1.14602 -6.86016,-1.14602c0,0 4.10494,-1.88409 6.47369,-3.46753c2.10989,-1.4104 3.30668,-2.73421 3.30668,-2.73421c0,0 -2.2906,0.60965 -4.48063,0.67681c-2.28505,0.07008 -4.05051,-0.34186 -4.05051,-0.34186c0,0 5.93579,-3.85881 9.19057,-9.12222c3.07304,-4.96951 4.39101,-10.25624 4.39101,-10.25624c0,0 -1.47153,0.35562 -3.42311,0.06571c-1.23705,-0.18377 -2.31256,-0.55551 -2.31256,-0.55551z" fill="#000000" stroke="none" stroke-width="1.5" stroke-linecap="butt"/><path d="M385.24621,223.50646c0.99354,-7.24825 56.23219,5.22568 54.74099,10.58887c-1.62246,5.44844 -4.50331,8.73965 -5.75116,11.55906c-1.24786,2.81941 -1.71051,5.90763 -5.5803,15.19868c-2.41501,5.79827 -5.97153,7.83015 -12.91886,12.18323c-6.94733,4.35309 -10.82072,7.10609 -14.70392,6.32795c-3.73706,-0.74885 -7.6405,-6.8906 -11.39704,-13.11861c-4.00009,-6.63183 -6.86008,-10.17667 -6.25864,-16.86512c0.54166,-6.02365 1.35715,-9.84582 2.15923,-15.13639c0.5862,-3.86674 -0.83283,-6.77923 -0.29024,-10.73764z" fill="url(#color-1)" stroke="#000000" stroke-width="1.5" stroke-linecap="butt"/><path d="M435.35547,218.81106c0,0 1.42121,0.63621 3.92057,1.99343c2.28286,1.23966 3.97434,2.65387 3.97434,2.65387l-0.05931,1.18502c0,0 -6.41408,-4.6058 -14.23964,-5.6413c-6.25712,-0.82794 -10.33393,0.62009 -10.33393,0.62009l0.93657,-4.07073c0,0 3.41926,-0.99709 8.07852,-0.13365c4.82463,0.8941 7.77799,2.30526 7.77799,2.30526z" data-paper-data="{&quot;index&quot;:null}" fill="#000000" stroke="none" stroke-width="1.5" stroke-linecap="butt"/><path d="M405.87675,257.96696c-1.00992,-0.22074 -2.7603,-3.94072 -2.55406,-6.04857c0.18453,-1.88595 2.10218,-3.45888 4.51675,-2.93113c2.41459,0.52777 4.00039,1.37672 3.04266,4.95244c-0.8128,3.03462 -2.59079,4.55501 -5.00537,4.02726z" fill="#ffffff" stroke="#000000" stroke-width="1.15" stroke-linecap="butt"/><path d="M415.8217,229.33648c0,0 -0.74742,3.90011 -1.51612,6.96349c-1.52212,6.06601 -6.98428,26.88951 -6.98428,26.88951l-2.91474,-0.62824c0,0 0.10659,-4.24794 0.93118,-9.52053c1.11615,-7.13689 3.03996,-16.01341 3.44625,-19.34251c0.38513,-3.15568 0.34496,-5.77405 0.34496,-5.77405" fill="#ffffff" stroke="#000000" stroke-width="1.3" stroke-linecap="round"/><path d="M389.67446,223.81221c1.11385,-4.7639 6.63488,-7.69687 11.86735,-6.47346c5.23247,1.22341 7.91189,6.07801 6.79803,10.84193c-1.11385,4.7639 -5.90629,7.71106 -11.13875,6.48767c-5.23247,-1.22341 -8.64048,-6.09221 -7.52663,-10.85613z" fill="url(#color-2)" stroke="#000000" stroke-width="1.4" stroke-linecap="butt"/><path d="M389.86307,224.43783c1.01215,-4.32896 5.34196,-7.01773 9.67088,-6.00558c4.32896,1.01216 7.01773,5.34196 6.00558,9.67089c-1.01217,4.32897 -5.34194,7.01773 -9.67088,6.00559c-4.32896,-1.01215 -7.01773,-5.34196 -6.00558,-9.67089z" fill="#000000" stroke="none" stroke-width="1.5" stroke-linecap="butt"/><path d="M416.10655,229.59028c1.2426,-4.73197 6.2415,-7.70339 11.43669,-6.56787c5.19519,1.13552 8.21376,5.855 7.16907,10.63456c-1.04468,4.77957 -5.73317,8.03209 -11.42801,6.85986c-5.41683,-1.11498 -8.47548,-5.98473 -7.17776,-10.92656z" fill="url(#color-3)" stroke="#000000" stroke-width="1.4" stroke-linecap="butt"/><path d="M395.30747,214.25065c0,0 3.68033,-1.05753 8.33442,-0.51399c5.15732,0.6023 7.60323,1.594 7.60323,1.594l-0.59521,4.10507c0,0 -3.60173,-1.48395 -7.72175,-2.22119c-5.51,-0.98596 -6.79759,-0.01901 -11.05022,-0.47942c-3.64389,-0.39451 -6.61576,-1.28343 -6.61576,-1.28343l0.23769,-1.20867c0,0 3.49645,0.83996 5.1276,1.05078c1.34629,0.17401 4.08432,-0.06751 4.08432,-0.06751z" fill="#000000" stroke="none" stroke-width="1.5" stroke-linecap="butt"/><path d="M419.36489,229.3145c1.01215,-4.32896 5.34196,-7.01773 9.67088,-6.00559c4.32896,1.01215 7.01772,5.34196 6.00557,9.67089c-1.01215,4.32897 -5.34194,7.01772 -9.67089,6.00558c-4.32896,-1.01215 -7.01772,-5.34196 -6.00557,-9.6709z" fill="#000000" stroke="none" stroke-width="1.5" stroke-linecap="butt"/><path d="M404.77489,231.68015c0.00254,-0.01527 0.00484,-0.0312 0.0069,-0.04775c0,0 0.05338,-0.24423 0.29762,-0.19085c0.24423,0.05338 0.19085,0.29762 0.19085,0.29762c-0.10859,0.39718 -0.25746,0.57737 -0.45211,0.65904c-0.05135,0.246 -0.10524,0.49139 -0.15891,0.73691c-0.20912,0.95673 -0.02721,1.8964 -0.41265,2.80588c-0.24906,0.58767 -1.21745,0.95979 -1.26361,1.58892c-0.04999,0.68153 0.66593,1.05383 0.51426,1.84583c0.02892,0.97037 -1.11116,5.79839 -2.77268,4.84323c-0.22799,-0.13107 -0.09917,-2.43413 -0.04651,-2.67504c0.12154,-0.55608 0.33096,-1.14596 0.37747,-1.7119c0.02657,-0.32326 -0.18874,-1.28355 -0.13615,-0.9635c0.33573,2.04273 -1.84466,1.89871 -1.67562,1.00061c-0.02678,0.0167 -0.05419,0.03343 -0.0823,0.05031c-1.66389,2.89907 -1.51643,0.11192 -0.98509,-1.79841c0.16194,-0.58224 -1.69605,-0.35579 -1.79706,0.24006c-0.23879,1.09253 -1.87564,6.53935 -3.15866,3.42084c-0.17058,-0.41464 0.27395,-1.76261 0.26024,-2.2899c0.17682,-0.81747 0.96475,-1.93207 0.74551,-2.801c-0.17004,-0.67397 -1.15205,-1.63644 -1.41186,-2.23196c-0.25501,-0.58448 -0.77399,1.09168 -1.35826,1.3472c-1.04426,-1.74676 0.06776,-2.20814 -0.10878,-3.7731c-0.07718,-0.6842 -1.01052,-0.60206 -0.68981,-1.51683c0.29276,-0.83508 0.67663,-1.87511 1.72786,-1.64534c0.62245,0.14421 0.97614,0.83983 1.36046,1.35024c0.95785,1.27209 4.24455,0.61229 5.47636,1.8994c1.86311,0.91115 2.70373,0.24497 4.51882,-0.13635c0.23123,-0.04858 0.48233,0.0447 0.68127,0.04646l0.13027,-0.22342c0,0 0.08091,-0.13592 0.22213,-0.12717z" fill="#7d2727" stroke="none" stroke-width="0.5" stroke-linecap="butt"/><path d="M417.93763,234.91987l0.00689,0.34102c0.17852,0.09523 0.44843,0.10248 0.63112,0.27602c1.43402,1.36214 1.85835,2.60044 3.96829,2.38238c1.73033,-0.99375 4.34203,1.43469 5.82038,0.32541c0.59317,-0.44509 1.24971,-1.135 1.87614,-1.00907c1.05126,0.22977 0.88463,1.70824 0.73705,2.88781c-0.16166,1.29215 -0.95487,0.73308 -1.35888,1.54423c-0.9241,1.85535 -0.15713,2.97249 -1.94512,4.62842c-0.39657,-0.6032 -0.03905,-2.93718 -0.55303,-2.33685c-0.52367,0.61167 -1.87194,1.32493 -2.35387,2.07792c-0.62132,0.97077 -0.46368,2.73969 -0.70616,3.84063c-0.27048,0.64754 -0.53372,2.53785 -0.88914,2.96877c-2.67304,3.24107 -1.46693,-4.31904 -1.14508,-5.79162c0.20163,-0.78879 -1.34657,-1.97979 -1.48712,-1.17802c-0.46118,2.63061 -1.69456,6.16114 -1.76044,1.74903c-0.01685,-0.03469 -0.03311,-0.0689 -0.04887,-0.10274c-0.28891,1.19716 -2.30643,0.30796 -1.00618,-2.06224c0.20372,-0.37137 -0.45886,0.71472 -0.59347,1.12883c-0.23563,0.72501 -0.33755,1.5595 -0.50139,2.30902c-0.07097,0.32472 -1.08393,3.24546 -1.35171,3.29642c-1.95147,0.3714 -0.60485,-6.1776 -0.10376,-7.36747c0.25248,-1.05699 1.0741,-1.16833 1.36325,-2.03846c0.26693,-0.80324 -0.41555,-1.73927 -0.35012,-2.59041c0.10126,-1.31727 0.72391,-2.39409 1.00576,-3.68364c0.07234,-0.33094 0.14438,-0.66181 0.21901,-0.9922c-0.13381,-0.19666 -0.17848,-0.49316 -0.08091,-1.03917c0,0 0.07194,-0.3292 0.31617,-0.27581c0.24423,0.05338 0.17229,0.38258 0.17229,0.38258c-0.00628,0.02156 -0.01202,0.04242 -0.01722,0.06262c0.13039,0.05831 0.13606,0.2666 0.13606,0.2666z" data-paper-data="{&quot;index&quot;:null}" fill="#7d2727" stroke="none" stroke-width="0.5" stroke-linecap="butt"/><path d="M375.47492,208.544c0.21044,-0.13496 0.34539,0.07549 0.34539,0.07549l0.10766,0.18403c0.04405,-0.02808 0.10412,-0.0432 0.18526,-0.02548c0.24423,0.05338 0.19086,0.29762 0.19086,0.29762c-0.00826,0.03778 -0.01634,0.07708 -0.02429,0.11784c0.57875,0.23671 1.81647,0.21682 2.16425,0.70094c0.94157,1.31066 -0.85537,2.95542 -0.9054,3.98944c-0.12907,1.8081 -2.36761,3.99267 -3.32879,5.49189c-0.60432,0.94261 -0.49422,2.27823 -1.52369,2.95154c-0.38842,0.56907 -1.92844,1.34748 -2.33123,0.1567c-0.27789,-0.82151 1.71955,-3.79219 2.11502,-4.61647c0.1016,-0.21175 -0.44881,-1.54969 -0.09681,-2.39948c0.67109,-0.73239 1.09474,-0.30099 1.74551,-0.64151c0.29194,-0.15275 0.38475,-1.36076 0.56469,-1.66184c0.84446,-1.41296 0.78674,-2.34562 1.04583,-3.76403c-0.09855,-0.09451 -0.17919,-0.22009 -0.23523,-0.38766l-0.09455,-0.12367c0,0 -0.13496,-0.21044 0.07549,-0.34539z" fill="#7d2727" stroke="none" stroke-width="0.5" stroke-linecap="butt"/><path d="M443.34421,196.26822c0.05338,-0.24424 0.29761,-0.19085 0.29761,-0.19085l0.35073,0.21813c0.14433,1.28209 0.81485,2.66475 0.42869,4.33517c-0.63012,0.78108 -2.19441,2.41268 -2.58578,3.31573c-0.69705,1.60841 -0.36125,3.49816 -0.81687,5.06066c-0.19232,0.32637 -0.6518,1.4368 -1.19339,1.32469c-0.60636,-0.12551 0.03347,-1.48025 -0.15647,-1.85923c-0.45487,-0.90757 -1.79134,-1.15614 -2.23586,-1.98527c-0.70511,-1.31521 1.268,-2.73847 2.12977,-3.27856c0.63099,-0.39546 1.68968,-0.59566 2.22207,-1.04233c0.80051,-0.67162 0.87275,-4.13966 1.6446,-5.4519c0,0 0.04903,-0.08238 0.13738,-0.11474c-0.01959,-0.06098 -0.03921,-0.1214 -0.05881,-0.18125l0.02715,0.14741c0,0 -0.24423,-0.05338 -0.19086,-0.29761z" fill="#7d2727" stroke="none" stroke-width="0.5" stroke-linecap="butt"/><path d="M416.7849,181.96856c0.0775,-0.09606 0.22041,-0.27319 0.29791,-0.36926c1.78597,-2.08892 2.43981,2.5411 2.43185,3.47963c-0.00186,0.21947 -0.13322,1.04043 -0.00265,1.20039c0.6995,0.85695 2.13368,0.41212 2.70717,1.90723c-0.457,2.30007 -1.36082,3.83202 -2.13135,5.91246c-0.43077,1.16307 -0.1488,2.77833 -1.2571,3.48904c-1.28274,-0.22104 -3.12668,-2.60558 -2.50378,-4.07102c0.5703,-1.34167 2.42428,-2.13316 1.84976,-3.60749c-1.46778,-2.43362 -3.03622,-5.43357 -1.81081,-8.23319c0,0 0.10025,-0.22903 0.32926,-0.12878c0.22903,0.10025 0.12878,0.32926 0.12878,0.32926c-0.01337,0.03054 -0.02637,0.06113 -0.03901,0.09172z" fill="#7d2727" stroke="none" stroke-width="0.5" stroke-linecap="butt"/><path d="M449.47332,240.74636c0.07417,0.0162 0.12089,0.05003 0.15,0.08925c0.04282,-0.0235 0.09939,-0.03474 0.17356,-0.01853c0.24423,0.05338 0.19086,0.29761 0.19086,0.29761c-0.04334,0.19831 -0.08832,0.39585 -0.13476,0.59272c2.63972,0.72732 0.16857,7.24221 -0.7545,8.80935c-0.36477,0.60311 -1.47756,5.14965 -3.04139,3.48049c-0.47556,-0.50759 0.96926,-4.00201 1.11946,-4.68876c0.65871,-2.40999 1.47287,-4.78868 2.08644,-7.28467c-0.01054,-0.00317 -0.02119,-0.00626 -0.03187,-0.00928c-0.05574,-0.17814 -0.11147,-0.3563 -0.16721,-0.53445l0.1118,-0.54288c0,0 0.05338,-0.24423 0.29762,-0.19086z" fill="#7d2727" stroke="none" stroke-width="0.5" stroke-linecap="butt"/><g stroke="none" stroke-width="0" stroke-linecap="butt"><path d="M444.43654,238.2461l0.56717,-41.82949l3.92893,3.22024l-0.52424,38.6631z" fill="#404040"/><path d="M387.59064,245.32355l-30.14588,-21.45286l-0.69932,-5.62871l32.88259,24.21862z" fill="#404040"/><path d="M451.65848,239.34017c-0.00181,0.133 -0.36603,3.56323 -1.40621,7.44765c-0.37688,1.40739 -0.9143,2.84938 -1.43585,4.25741c-1.5561,-1.1155 -4.5987,-1.62972 -5.81895,-1.8655c-1.27878,0.59801 -1.65525,1.60286 -2.6636,2.27459c-0.53337,0.35531 -1.68229,0.3299 -2.47075,0.4798c-5.27691,-4.0728 -12.71393,-8.20295 -21.26583,-8.31891c-10.87018,-0.1474 -20.54094,6.96743 -25.6934,11.27492c-2.22985,1.86417 4.26082,7.14299 4.26082,7.14299c0,0 -8.81514,-6.40843 -9.51041,-9.6345c-0.36697,-1.70279 -1.94531,-3.63408 -2.34689,-5.51251c-1.0153,-4.74922 -0.79893,-9.24563 -0.79572,-9.4836c0.03306,-2.43903 14.50899,-2.8869 34.20534,-2.61984c19.69635,0.26707 34.9745,2.11844 34.94143,4.5575z" fill="#ababab"/><path d="M436.63494,262.4489c0,0 0.98112,-0.61548 2.10057,-1.53813c-0.04279,0.18567 -0.0896,0.37355 -0.13937,0.56249c-1.1644,0.6025 -1.9612,0.97564 -1.9612,0.97564z" fill="#ababab"/><path d="M384.97431,252.473c0,0 -1.73552,-2.8394 -2.18329,-5.27819c-0.50168,-2.73255 -0.71352,-5.98388 -0.77922,-6.79838c-0.11223,-1.39102 0.34635,-3.96038 0.34635,-3.96038c0,0 22.79099,-5.80999 35.60246,-6.00669c16.41154,-0.25194 33.70191,8.61322 33.70191,8.61322c0,0 -0.33617,3.13081 -0.59752,4.35128c-0.12831,0.59916 -1.41729,4.91294 -2.24227,7.65591c-1.55417,-1.11865 -4.60334,-1.63393 -5.82527,-1.87003c-1.24357,0.58153 -1.63386,1.54785 -2.58175,2.21835c-6.91639,-1.62494 -16.93561,-3.70364 -23.37554,-3.82459c-10.62265,-0.19952 -32.06589,4.8995 -32.06589,4.8995z" fill="#565656"/><path d="M438.93907,281.4817c0,0 -15.59316,14.46595 -20.91986,17.47473c-1.40517,0.79371 -3.06107,0.64075 -3.06107,0.64075c0,0 -2.18559,-0.17132 -4.02466,-1.44008c-1.71797,-1.18523 -4.24232,-3.412 -6.9194,-5.93266c0.33114,0.00522 0.666,0.00516 1.00568,-0.00282l-0.00327,0.0152l0.48873,0.10514c0.00004,0.00001 0.00006,0.00001 0.00009,0.00002c0.13461,0.02895 0.26739,-0.05642 0.29681,-0.19104c0.02397,-0.10968 -0.02804,-0.21827 -0.12083,-0.27087l-0.42411,-0.25377c-1.42909,-0.85507 -2.84005,-1.72689 -4.23176,-2.6415c-0.59312,-0.38665 -2.54733,-1.99659 -2.70456,-2.67617c-0.22608,-0.97716 1.93238,-1.39049 2.10347,-2.47304c0.1615,-1.02181 -1.41449,-1.72706 -2.06532,-2.30822c-0.4494,-0.40129 -1.51922,-0.54025 -1.40867,-1.13252c0.0918,-0.49176 1.51979,-1.61612 1.86035,-2.17032c1.05108,-1.7104 0.66719,-3.37601 2.21305,-4.76855c0.94822,-0.85491 3.45832,-5.06865 1.78675,-6.11445c-0.95377,-0.59672 -2.86882,-0.63805 -3.97632,-0.88012c-2.69528,-0.58911 -5.39059,-1.17821 -8.08588,-1.76734l-0.32079,-14.63402l-6.2111,-23.02593l27.67441,-8.54337c0.19299,0.12014 0.42559,0.21394 0.70295,0.27714c1.67741,0.38008 4.79083,1.60841 6.98814,1.69327c-1.17075,0.7682 -2.35913,1.92104 -3.25876,2.52006c-0.25154,0.16749 -1.30248,0.83006 -1.26826,1.1803c0.10104,1.03436 2.08685,0.62047 2.63787,0.55161c0.35913,-0.08147 1.92787,-0.63406 2.23346,-0.30783c0.78823,0.84147 0.43577,2.23485 2.39786,2.21142c1.64323,-0.01962 2.28399,-2.24754 3.11749,-3.27146c0.62293,-0.77223 1.28359,-2.12006 2.17724,-2.56702c0.04689,-0.02345 0.09322,-0.04629 0.13901,-0.06857l21.88762,7.30279l-6.80687,21.24602c-1.15313,0.60443 -1.53935,1.55279 -2.50466,2.19583c-0.62138,0.41393 -2.0782,0.31116 -2.82722,0.57081c-1.26876,0.43982 -0.95389,3.13886 -0.38449,4.01413c0.41365,0.61495 1.63434,1.60134 1.7941,2.28924c0.42822,1.84362 -1.1256,5.4023 -1.52377,7.26516c0.06958,1.12992 0.77567,1.73286 0.9328,2.82215c0.32388,2.24527 0.27623,3.83099 1.5475,5.2243z" fill="#d6d6d6"/><path d="M404.05475,291.48518c-0.29217,-0.03222 -0.59442,-0.04099 -0.87231,-0.04844c-0.48628,-0.46318 -0.97533,-0.93339 -1.46332,-1.40628c0.77285,0.4946 1.55147,0.97808 2.33564,1.45472z" fill="#d6d6d6"/><path d="M390.3408,251.18051c0,0 -1.24145,-6.13105 -2.20887,-9.83305c-1.12229,-4.2946 -4.13179,-14.25511 -4.13179,-14.25511l27.71246,-8.72891c0.22264,0.18224 0.51232,0.32041 0.88119,0.40447c1.67742,0.38008 4.79084,1.60841 6.98815,1.69327c-1.17075,0.7682 -2.35914,1.92105 -3.25878,2.52007c-0.25154,0.16748 -1.30247,0.83004 -1.26825,1.18029c0.10104,1.03436 2.08684,0.62048 2.63787,0.5516c0.35912,-0.08147 1.92787,-0.63405 2.23345,-0.30783c0.78824,0.84147 0.43578,2.23486 2.39786,2.21141c1.64323,-0.01962 2.284,-2.24755 3.11749,-3.27146c0.62293,-0.77224 1.28359,-2.12006 2.17724,-2.56701c0.21281,-0.10645 0.41414,-0.20033 0.60522,-0.2871l21.7723,7.32933c0,0 -3.49485,9.86071 -4.83464,14.10669c-0.64559,2.04595 -1.44034,5.08686 -1.99513,7.28489c-0.05962,-0.01133 -0.11606,-0.02209 -0.16906,-0.03234c-1.00071,0.46797 -1.44886,1.18508 -2.07965,1.79672l-24.69324,-15.53485z" fill="#7e7e7e"/><path d="M448.21236,229.44162l-7.08952,21.32703c-0.23327,0.24554 -0.4818,0.48107 -0.78898,0.68571c-0.62138,0.41393 -2.07821,0.31116 -2.82721,0.5708c-1.26876,0.43982 -0.95389,3.13886 -0.38449,4.01413c0.41364,0.61496 1.63434,1.60134 1.7941,2.28924c0.42822,1.84362 -1.1256,5.4023 -1.52377,7.26516c0.06958,1.12992 0.77566,1.73285 0.93279,2.82215c0.16008,1.10973 0.2294,2.05833 0.41206,2.90223l-0.97278,8.42028c0,0 -20.96313,18.23222 -20.99704,18.25828c-0.88726,0.68178 -2.67292,0.36999 -3.05623,0.07523c-1.38745,-1.06692 -9.11613,-7.75384 -14.83153,-12.71838c0.59127,-0.44371 1.43987,-0.85553 1.54456,-1.51788c0.1615,-1.02181 -1.41449,-1.72707 -2.06532,-2.30822c-0.4494,-0.40128 -1.51922,-0.54024 -1.40867,-1.13251c0.09179,-0.49176 1.51979,-1.61612 1.86035,-2.17033c1.05108,-1.7104 0.66719,-3.37601 2.21304,-4.76855c0.94822,-0.85491 3.45831,-5.06865 1.78676,-6.11445c-0.95376,-0.59671 -2.86882,-0.63806 -3.97632,-0.88012c-2.27163,-0.49652 -4.54325,-0.99302 -6.81489,-1.48955l-0.52011,-14.26262l-5.87295,-22.71631l27.47851,-9.09651c1.74558,0.47312 4.4871,1.4879 6.47715,1.56475c-1.17075,0.7682 -2.35914,1.92105 -3.25877,2.52007c-0.25154,0.16749 -1.30247,0.83005 -1.26825,1.1803c0.10104,1.03437 2.08685,0.62047 2.63787,0.5516c0.35912,-0.08147 1.92786,-0.63406 2.23345,-0.30783c0.78824,0.84147 0.43578,2.23486 2.39787,2.21142c1.64323,-0.01962 2.284,-2.24755 3.11749,-3.27146c0.43953,-0.54488 0.89782,-1.37628 1.4435,-1.97563z" fill="#3e0000"/><path d="M391.53455,250.50089l-5.90479,-22.86786l27.10254,-8.8326c1.70584,0.41288 4.71145,1.5782 6.84959,1.66077c-1.17075,0.7682 -2.35913,1.92104 -3.25877,2.52006c-0.25154,0.16748 -1.30248,0.83005 -1.26825,1.18029c0.10104,1.03436 2.08685,0.62048 2.63787,0.5516c0.35912,-0.08147 1.92787,-0.63406 2.23345,-0.30783c0.78824,0.84147 0.43578,2.23486 2.39786,2.21142c1.64323,-0.01962 2.284,-2.24755 3.11749,-3.27146c0.48323,-0.59906 0.98918,-1.54451 1.60899,-2.14709l21.27805,7.99931l-7.79856,21.96772l-24.78036,-6.50324z" fill="#1e0000"/><path d="M412.07349,245.33979c-0.07738,5.70642 -4.65416,10.27118 -10.22252,10.19568c-5.56836,-0.07551 -10.01968,-4.76268 -9.9423,-10.4691c0.07738,-5.70642 4.65416,-10.27117 10.22251,-10.19568c5.56836,0.07551 10.01968,4.76267 9.94231,10.46909z" fill="#770000"/><path d="M440.29506,245.57949c-0.03245,2.39274 -0.85599,4.58478 -2.21199,6.31815c-0.21522,0.03131 -0.41272,0.07074 -0.57643,0.12748c-0.50997,0.17678 -0.76409,0.71858 -0.84867,1.3602c-1.78315,1.52145 -4.08426,2.42375 -6.58543,2.38982c-5.56836,-0.07551 -10.01968,-4.76268 -9.9423,-10.4691c0.07738,-5.70642 4.65414,-10.27118 10.22251,-10.19569c5.56836,0.07551 10.01969,4.76268 9.94231,10.4691z" fill="#770000"/><path d="M409.82314,242.27717c-0.08486,6.25867 -3.62313,11.28524 -7.90294,11.22721c-4.27981,-0.05802 -7.68049,-5.17872 -7.59562,-11.43737c0.08486,-6.25866 3.62314,-11.28524 7.90293,-11.2272c4.27981,0.05803 7.68049,5.17872 7.59562,11.43737z" fill="#1e0000"/><path d="M438.11672,242.32745c-0.08486,6.25867 -3.62313,11.28523 -7.90294,11.2272c-4.2798,-0.05802 -7.6805,-5.1787 -7.59563,-11.43737c0.08486,-6.25866 3.62314,-11.28526 7.90294,-11.22722c4.2798,0.05803 7.6805,5.17873 7.59562,11.43737z" fill="#1e0000"/><path d="M429.40506,281.06135c0,0 -5.93787,-3.33082 -14.70458,-3.44967c-8.7667,-0.11887 -15.04439,3.17132 -15.04439,3.17132c0,0 6.6022,-8.78629 15.36891,-8.66744c8.7667,0.11887 14.38004,8.94579 14.38004,8.94579z" fill="#770000"/></g><path d="M414.51705,140.25132c0.07973,-0.23695 0.31668,-0.15721 0.31668,-0.15721l0.50102,0.17653c1.58482,1.03065 2.11584,2.02014 2.02912,3.79837c-0.06256,1.02239 0.49527,1.87574 0.58666,2.82858c0.18914,1.97216 0.05587,5.48741 1.8536,6.77385c2.98488,2.15883 5.16689,4.43212 7.8206,6.86678c2.55891,2.34769 5.86194,3.67308 8.95827,5.20678c0.85377,0.34431 2.13518,0.6351 2.79078,1.31649c1.10759,1.15113 -0.15985,6.40726 -1.31195,7.36132c-0.51478,0.63237 -0.24073,1.75095 -0.77654,2.3225c-0.51439,0.54871 -1.45418,0.09678 -2.1005,0.16727c-1.9865,0.21667 -3.97388,0.3855 -5.96593,0.54198c-1.88773,0.39494 -6.81487,2.40003 -8.47778,1.09405c-0.58162,-0.45677 -0.24878,-1.26686 -0.71159,-1.85142c-1.7848,-2.30379 -7.12165,-1.4166 -9.79945,-1.72878c-3.84968,-0.83897 -6.38963,-0.9624 -10.19052,0.13647c-1.01662,-0.05346 -5.05932,-0.04784 -5.64889,-1.02862c-0.79206,-1.31761 1.41474,-3.82621 1.97744,-4.69032c0.70707,-1.06966 1.5279,-2.90873 2.48863,-3.67395c1.63322,-1.30087 3.54484,-1.43266 4.66661,-3.33822c0.59804,-0.99982 1.81525,-1.57397 2.34444,-2.54658c1.03031,-1.89364 0.83078,-4.75546 0.82276,-6.79281c0.17533,-0.64269 0.13227,-1.25663 0.96086,-1.36298c1.03523,-0.13286 3.41357,1.33282 4.32626,0.77992c0.28779,-0.17435 0.70812,-1.30777 1.01514,-1.63215c0.63502,-0.67095 0.98497,-0.89181 0.43497,-1.80778c-0.37333,-0.71052 -1.47712,-2.75034 -1.00902,-3.56934c0.80651,-1.41111 2.52794,-2.44966 2.915,-4.31055c0,0 0.02643,-0.12097 0.12722,-0.17402c-0.12246,-0.08801 -0.25435,-0.17641 -0.39622,-0.26601l-0.39046,-0.12346c0,0 -0.23697,-0.07973 -0.15722,-0.31667z" fill="#000000" stroke="none" stroke-width="0.5" stroke-linecap="butt"/></g><g stroke="#000000"><g stroke-width="2"><path d="M279.18734,155.52724c0,0 89.53731,-32.06198 100.84024,-35.99635c0.91535,-0.31862 3.3295,-1.55209 6.07602,-0.65273c4.04895,1.32584 9.35883,5.70683 9.35883,5.70683l-7.23398,4.00002l-105.11213,36.35578z" fill="#ffffff" stroke-linecap="butt"/><path d="M279.34789,66.63101l7.36258,89.08268l-14.81005,0.61415l-2.55335,-89.42216z" fill="#ffffff" stroke-linecap="butt"/><path d="M297.70819,159.83525c0,0 -20.68224,8.83725 -23.03976,5.75675c-3.26887,-4.27135 -2.98741,-9.76901 -3.05012,-14.4313c-0.0733,-5.44812 -0.17049,-9.7631 -0.17049,-9.7631" fill="#ffffff" stroke-linecap="round"/><path d="M283.18759,155.37823c0,0 2.08326,-1.71335 3.3588,-2.25698c1.03832,-0.44254 3.56512,-1.29478 3.56512,-1.29478" fill="none" stroke-linecap="round"/><path d="M285.59223,142.31777l0.9853,10.49242" fill="none" stroke-linecap="round"/></g><path d="M417.38835,129.3034l7.01537,4.23176l5.31499,10.56084l-7.2383,-7.27215l-12.52387,-2.71323l8.90283,5.14292l8.45392,12.04172l-12.5502,-9.24669l-14.45076,-3.84102l-1.99762,4.20441l12.13619,6.68939l9.83536,-1.14155l-10.9129,5.46311l-14.84138,-7.18344l-7.75266,-10.69212c0,0 1.11269,-4.58741 0.66124,-4.78509c-1.27351,-0.5577 -6.19484,-4.75696 -6.50354,-4.89214c0.60329,-0.84736 1.40148,-2.13744 1.69925,-2.52535l0.42387,-3.87713c1.27678,0.56473 -0.11074,-0.76189 1.66567,-0.79304c1.03549,-0.01815 5.44142,1.15755 6.04151,1.42297c1.88308,0.83286 13.69682,-1.20435 13.69682,-1.20435l12.17232,4.79985l10.25368,5.83317l4.6138,9.63647l-6.26309,-7.67196z" data-paper-data="{&quot;index&quot;:null}" fill="#ffffff" stroke-width="2" stroke-linecap="butt"/><path d="M390.1273,126.47976c-0.26394,1.44892 0.34459,2.77332 -2.28156,2.29493c-2.62615,-0.4784 -9.11886,1.69935 -8.85491,0.25043c0.26394,-1.44892 -0.12249,-9.33984 2.50366,-8.86144c1.20806,0.22008 1.07685,-0.88612 3.06412,-0.4495c0.9717,0.2135 2.93567,0.27155 4.10322,1.3666c1.63539,1.53386 1.54862,4.94247 1.46547,5.39897z" fill="#ffffff" stroke-width="0" stroke-linecap="butt"/></g><g fill="#000000" stroke="none" stroke-linecap="butt"><g data-paper-data="{&quot;index&quot;:null}"><path d="M206.80133,-16.254c0,0 8.35104,-3.27586 8.77753,-4.04221c1.11857,-2.00995 13.49659,-37.83859 51.12189,-25.71364c46.19877,15.74511 28.08131,47.75271 28.33998,55.122c0.35468,10.10442 0.40881,18.65217 0.40881,18.65217c0,0 -2.14602,-2.96034 -3.12773,-4.46457c-0.91565,-1.40299 -2.83765,-4.37223 -2.83765,-4.37223c0,0 -1.528,9.54951 -0.39369,19.11609c1.03233,8.70639 -1.24505,19.36768 -1.24505,19.36768c0,0 -7.41887,-16.63264 -10.47829,-17.95382c-2.86341,-1.23653 -7.3292,10.26382 -7.3292,10.26382c0,0 -1.7992,1.68638 -3.35459,2.33037c-1.55541,0.64397 -4.52623,1.45978 -4.52623,1.45978l1.16574,-3.51744c0,0 -11.00696,7.73426 -28.73251,1.1647c-16.67654,-6.30596 -23.17025,-19.73656 -23.17025,-19.73656l-1.02277,2.4532c0,0 -2.88361,-4.5451 -3.05175,-11.42776c-0.2004,-8.20333 0.83551,-12.71778 0.83551,-12.71778c0,0 -1.4572,5.49177 -5.22766,5.05823c-4.72464,-0.54326 -10.75891,6.72251 -10.75891,6.72251c0,0 7.85155,-10.79687 10.58142,-11.99205c2.43153,-1.06458 2.5583,-6.16526 2.5583,-6.16526c0,0 -2.53575,0.23598 -4.90197,-0.05313c-2.46887,-0.30165 -4.32373,-0.99989 -4.32373,-0.99989c0,0 6.82835,-2.88611 10.92789,-7.6101c3.8706,-4.46022 5.88686,-9.52245 5.88686,-9.52245c0,0 -1.62497,0.11564 -3.69406,-0.49108c-1.31154,-0.38457 -2.42787,-0.93051 -2.42787,-0.93051z" data-paper-data="{&quot;index&quot;:null}" stroke-width="1.5"/><path d="M305.8567,-6.74614c0,0 -1.16879,-0.28092 -2.38033,-0.8093c-1.91135,-0.83357 -3.03976,-1.9455 -3.03976,-1.9455c0,0 -1.69534,5.17835 -1.64104,11.05878c0.05752,6.2282 3.28886,12.75434 3.28886,12.75434c0,0 -1.81056,-0.62805 -3.82544,-1.94882c-1.93109,-1.26584 -3.65706,-3.04389 -3.65706,-3.04389c0,0 0.35425,1.77528 1.4817,4.12766c1.26581,2.64099 3.92775,6.49377 3.92775,6.49377c0,0 -2.9534,-0.26951 -6.78782,-2.82329c-3.06005,-2.03803 -4.739,-4.66522 -4.739,-4.66522c0,0 -2.07528,4.13836 -7.38597,10.34753c-4.4557,5.20955 -9.44767,6.90493 -9.44767,6.90493l0.78781,-2.53823c0,0 -13.25249,6.28556 -29.54856,0.66061c-17.23744,-6.08155 -20.50661,-18.98156 -20.50661,-18.98156l-1.35188,3.4501c0,0 -1.68269,-2.49963 -2.42719,-3.97582c-0.7445,-1.4762 -1.01322,-3.91082 -1.01322,-3.91082l-1.94704,1.79177c0,0 -3.06629,-9.34537 -1.39335,-18.82258c1.75097,-10.36984 8.34464,-18.98867 8.34464,-18.98867c0,0 -3.28939,1.08356 -4.84919,1.59082c-1.67236,0.54388 -5.12174,1.47955 -5.12174,1.47955c0,0 5.41932,-6.56722 12.04045,-14.14748c4.08484,-4.67657 8.54452,-33.37851 36.80018,-31.21623c2.93646,0.22472 31.35441,-0.73639 31.35441,-0.73639c0,0 -15.43109,6.0986 -12.5156,7.21784c4.55383,1.83916 30.88784,10.31997 30.88784,10.31997c0,0 -6.44,4.25331 -8.38286,10.42254c-1.0448,3.31764 1.66172,8.07616 1.85233,11.02877c0.67162,10.40354 -2.53859,19.17376 -2.74933,20.25919c-0.16702,0.86024 3.94465,8.64565 3.94465,8.64565z" stroke-width="1.5"/><path d="M258.73547,68.0464c0,0 -3.44692,5.63888 -6.32745,8.16011c-8.52374,7.46052 -25.82612,19.74656 -25.82612,19.74656c0,0 15.23587,-22.47051 18.98232,-31.31272c3.35677,-7.92248 -12.95503,4.5548 -12.95503,4.5548c0,0 16.61614,-19.67395 26.29765,-35.65893c2.76921,-4.57218 0.05711,-6.51928 0.05711,-6.51928c0,0 4.98839,-1.22385 10.45121,-4.61239c5.2148,-3.2347 10.85095,-8.67245 13.44448,-7.41927c12.05439,5.82458 -0.14714,11.13712 -4.37567,22.16195c-3.88072,10.11796 -4.10455,21.12736 -4.10455,21.12736c0,0 0.23728,9.17822 -1.95846,13.22564c-1.8057,3.32845 -8.8643,7.74633 -12.77213,12.47258c-3.66946,4.43798 -4.2549,9.29778 -4.2549,9.29778z" stroke-width="0"/><path d="M190.06999,78.49568c0,0 2.30114,-14.87349 2.32119,-20.63199c0.02135,-6.13253 -2.57584,-14.04431 -1.83356,-17.75754c0.90262,-4.51532 6.95814,-11.41653 6.95814,-11.41653c0,0 6.87293,-8.60347 10.3653,-18.86195c3.80541,-11.17795 -2.17142,-23.0682 10.81901,-19.83048c2.79492,0.6966 3.64642,8.48187 5.58386,14.30456c2.02958,6.09962 5.07979,10.23218 5.07979,10.23218c0,0 -3.33008,-0.23922 -4.12782,5.04633c-2.78903,18.47899 -9.40652,50.27851 -9.40652,50.27851c0,0 2.2462,-26.07443 -0.24391,-17.83838c-2.77919,9.19221 -21.67702,39.90873 -21.67702,39.90873c0,0 10.79274,-24.21256 9.01663,-35.40001c-0.60023,-3.78073 0.35932,-10.31965 0.35932,-10.31965z" data-paper-data="{&quot;index&quot;:null}" stroke-width="0"/></g><g><path d="M300.43142,9.6011c0,0 -1.24137,-0.05706 -2.5765,-0.34938c-2.10632,-0.46116 -3.47624,-1.34276 -3.47624,-1.34276c0,0 -0.66173,5.40867 0.59222,11.17951c1.32812,6.11214 5.93238,11.92222 5.93238,11.92222c0,0 -1.96233,-0.27801 -4.27287,-1.19874c-2.21448,-0.88242 -4.32556,-2.30686 -4.32556,-2.30686c0,0 -2.33766,4.53523 -0.71582,6.63649c1.82085,2.35906 3.52466,15.59976 3.52466,15.59976c0,0 -1.80499,-9.2707 -6.21031,-11.06248c-3.51564,-1.42991 -2.15726,-6.94695 -2.15726,-6.94695c0,0 -1.2587,4.45747 -5.37298,11.55729c-3.45191,5.9568 -8.16357,8.55938 -8.16357,8.55938l0.28062,-2.64301c0,0 -12.14447,8.66376 -29.80083,6.1889c-18.70313,-2.74728 -24.64526,-14.81637 -24.64526,-14.81637l-0.66616,3.64521c0,0 -2.21436,-2.14193 -3.26961,-3.4536c-1.05523,-1.31168 -1.82384,-3.65478 -1.82384,-3.65478c0,0 1.60397,-12.23228 -1.50152,-12.52233c-3.31807,-0.30989 -17.81142,10.71857 -17.81142,10.71857c0,0 3.12082,-10.44556 8.20639,-17.58726c5.58802,-7.84731 8.83244,-16.95783 8.83244,-16.95783c0,0 -3.11156,1.68189 -4.58835,2.473c-1.58337,0.8482 -4.88717,2.41473 -4.88717,2.41473c0,0 4.15132,-7.47218 9.31365,-16.16558c3.76495,-6.34023 3.23923,-43.11592 51.32459,-34.74732c38.82655,7.42806 32.48309,44.80009 32.49931,47.10026c0.00618,0.87701 5.75904,7.76003 5.75904,7.76003z" data-paper-data="{&quot;index&quot;:null}" stroke-width="1.5"/><path d="M208.97428,-29.61572c0,0 7.34462,-4.85539 7.61113,-5.69019c0.33625,-1.05332 1.73088,-10.2879 7.31484,-19.09154c1.58478,-2.49856 6.24357,-5.37334 6.91988,-8.78523c1.25759,-6.34449 -2.34959,-13.16742 -2.34959,-13.16742c0,0 27.17216,5.2037 32.04981,5.7767c3.09485,0.41793 -7.51346,-12.34039 -7.51346,-12.34039c0,0 24.46705,14.48675 27.15086,15.69946c25.82428,11.66896 15.95635,38.98773 17.29436,45.05122c2.16878,9.82834 3.76968,18.19102 3.76968,18.19102c0,0 -2.57662,-2.47685 -3.78251,-3.75687c-1.12473,-1.19385 -3.48998,-3.72361 -3.48998,-3.72361c0,0 1.64608,10.7262 -1.79658,20.66337c-3.08257,9.11671 -10.25913,15.84241 -10.25913,15.84241l-0.84772,-2.50656c0,0 -1.4046,2.00669 -2.76642,2.94417c-1.36182,0.93748 -4.03797,2.3223 -4.03797,2.3223l0.47053,-3.67549c0,0 -9.06114,9.74646 -27.10178,6.80542c-16.99566,-2.88961 -25.60313,-14.76598 -25.60313,-14.76598l-0.52753,2.6048c0,0 -3.56503,-3.88389 -4.97249,-10.59297c-1.67753,-7.99644 -1.51112,-12.62302 -1.51112,-12.62302c0,0 -2.73412,1.49851 -6.39691,1.81714c-4.58968,0.39927 -7.30982,-0.78226 -7.30982,-0.78226c0,0 4.18484,-2.10168 6.56316,-3.81067c2.11842,-1.52222 3.28149,-2.90944 3.28149,-2.90944c0,0 -2.36768,0.73108 -4.6694,0.91434c-2.40158,0.19124 -4.29136,-0.12708 -4.29136,-0.12708c0,0 5.96783,-4.17342 9.00849,-9.60924c2.87088,-5.13229 3.86987,-10.48874 3.86987,-10.48874c0,0 -1.52371,0.43362 -3.60055,0.2472c-1.31646,-0.11817 -2.4766,-0.43289 -2.4766,-0.43289z" stroke-width="1.5"/><path d="M205.2219,82.34751c0,0 1.8197,-4.54412 0.7315,-10.19891c-1.15886,-6.02208 -5.2297,-13.28638 -5.21565,-17.07305c0.01706,-4.60461 4.63174,-12.54193 4.63174,-12.54193c0,0 5.08933,-9.76504 6.54284,-20.50376c1.5838,-11.70124 -6.56891,-22.2195 6.80173,-21.54148c2.87672,0.14588 5.21011,7.6219 8.23159,12.96305c3.16518,5.5952 6.95346,9.06373 6.95346,9.06373c0,0 -3.31389,0.40591 -3.07986,5.7462c0.81823,18.67035 5.94844,43.90606 5.94844,43.90606c0,0 -8.31843,-18.77661 -9.17748,-10.21532c-0.95879,9.55516 1.61801,36.58138 1.61801,36.58138c0,0 -9.27919,-19.08442 -13.17446,-29.72116c-1.31638,-3.59462 -1.63276,-10.196 -1.63276,-10.196z" stroke-width="0"/><path d="M273.5273,66.08317c0,0 -2.29765,6.1967 -4.63933,9.22501c-6.9292,8.961 -9.08633,35.3822 -9.08633,35.3822c0,0 -1.83014,-36.01783 0.14518,-45.41563c1.76985,-8.42025 -8.77829,15.53089 -8.77829,15.53089c0,0 9.46226,-31.07194 15.88759,-48.62093c1.83784,-5.01954 -1.1982,-6.40848 -1.1982,-6.40848c0,0 4.65976,-2.16069 9.36859,-6.53692c4.49506,-4.17755 8.97976,-10.59804 11.76594,-9.86723c12.94978,3.39664 1.99826,10.95737 -0.03022,22.58978c-1.86161,10.67555 0.0368,21.52234 0.0368,21.52234c0,0 1.99864,8.96111 0.62259,13.35536c-1.1316,3.61365 -7.2084,9.30701 -10.13394,14.69678c-2.74711,5.06104 -7.86939,19.213 -7.86939,19.213z" data-paper-data="{&quot;index&quot;:null}" stroke-width="0"/></g></g><path d="M257.68499,71.45052c-0.57113,0 -1.03411,-0.46299 -1.03411,-1.03411c0,-0.57113 0.46299,-1.03413 1.03411,-1.03413c0.57113,0 1.03411,0.463 1.03411,1.03413c0,0.57113 -0.46299,1.03411 -1.03411,1.03411z" fill="#000000" stroke="none" stroke-width="1.5" stroke-linecap="butt"/><path d="M202.16052,135.44708v-12.51362h10.26543v12.51362z" fill="url(#color-4)" stroke="none" stroke-width="0" stroke-linecap="butt"/><path d="M273.94372,134.87543l-1.66667,-12.51362h12.76543l1.66667,12.51362z" fill="url(#color-5)" stroke="none" stroke-width="0" stroke-linecap="butt"/><g fill="#ff0000" stroke="none" stroke-width="0" stroke-linecap="butt"><path d="M243.53507,138.50259c-6.16833,21.49702 -14.8096,59.80186 -17.96988,57.93185c-3.16028,-1.87 0.35718,-43.20672 6.52551,-64.70374c6.16833,-21.49702 7.15955,-15.32568 10.31983,-13.45567c3.16028,1.87 7.29287,-1.26946 1.12454,20.22756z"/><path d="M246.8993,137.41869c-1.03135,23.20325 -1.28955,66.01479 -4.70066,65.70213c-3.41111,-0.31266 -8.68341,-43.63115 -7.65206,-66.83439c1.03135,-23.20325 3.35084,-17.81651 6.76196,-17.50384c3.41111,0.31267 6.62212,-4.56714 5.59077,18.63611z"/><path d="M238.14895,138.7208c-3.33181,4.90998 -6.52218,11.18733 -9.42762,17.51098c-6.94814,15.12256 -12.26672,30.50987 -13.9929,28.09435c-1.69102,-2.36635 -5.99301,-58.16284 -2.49901,-63.31185c11.29957,-16.65183 27.67361,-5.093 30.1216,-1.66739c2.44799,3.4256 7.09749,2.7221 -4.20208,19.37393z"/><path d="M250.69056,132.02534c6.22726,21.46194 8.58914,63.29908 5.43401,65.18696c-3.15512,1.88788 -10.63247,-36.88843 -16.85973,-58.35036c-6.22726,-21.46194 -2.487,-18.106 0.66814,-19.99388c3.15513,-1.88788 4.53032,-8.30465 10.75759,13.1573z"/><path d="M271.97688,119.2469c4.03293,5.05109 -2.12074,58.51321 -3.62485,60.98973c-2.24667,3.69916 -13.12152,-28.25753 -25.32342,-43.53995c-12.2019,-15.28242 -7.81347,-14.65215 -5.5668,-18.35131c2.24667,-3.69916 22.31317,-14.3809 34.51507,0.90153z"/></g><path d="M210.99575,132.64118v-12.51362h62.80621v12.51362z" fill="url(#color-6)" stroke="none" stroke-width="0" stroke-linecap="butt"/><path d="M199.96248,123.87213c0,0 -1.55359,-9.15336 -1.01141,-18.51251c0.29539,-5.09893 2.90509,-9.58202 2.8278,-14.23899c-0.10437,-6.28813 -2.58086,-11.01415 -2.5599,-11.73806c0.37892,-13.08713 -0.67182,-26.0603 5.26346,-38.16507c3.85447,-7.86102 23.11267,-22.85918 41.50144,-22.85595c16.41935,0.00289 32.44245,15.85416 35.89081,24.17141c5.23494,12.62633 4.26725,22.18684 4.11408,35.50337c-0.00061,0.05339 -2.38207,3.18274 -2.34459,7.78358c0.0336,4.12439 2.40211,3.49509 2.77366,8.82864c0.80674,11.58085 -0.05397,29.22359 -0.05397,29.22359z" fill="#610000" stroke="#000000" stroke-width="0" stroke-linecap="butt"/><path d="M252.42511,75.68613c-4.4635,-0.31439 -6.55245,-1.79392 -6.16985,-2.58011c0.11788,-0.24224 2.84645,1.06355 6.97038,1.3048c6.40897,0.37493 8.51033,-0.63173 8.51033,-0.63173v1.34616c0,0 -2.4135,1.04672 -9.31086,0.56089z" fill="#000000" stroke="#000000" stroke-width="0" stroke-linecap="butt"/><path d="M224.61236,70.41646c0,-0.57113 0.46299,-1.03413 1.03411,-1.03413c0.57113,0 1.03413,0.463 1.03413,1.03413c0,0.57113 -0.463,1.03411 -1.03413,1.03411c-0.57113,0 -1.03411,-0.46299 -1.03411,-1.03411z" fill="#000000" stroke="none" stroke-width="1.5" stroke-linecap="butt"/><path d="M230.90635,75.68613c-6.89736,0.48585 -9.31086,-0.56089 -9.31086,-0.56089v-1.34616c0,0 2.10136,1.00666 8.51033,0.63173c4.12393,-0.24126 6.85251,-1.54704 6.97039,-1.3048c0.3826,0.78618 -1.70634,2.26571 -6.16985,2.58011z" fill="#000000" stroke="#000000" stroke-width="0" stroke-linecap="butt"/><path d="" fill="#5a5a5a" stroke="none" stroke-width="0" stroke-linecap="butt"/><path d="" fill="#3f3f3f" stroke="none" stroke-width="0" stroke-linecap="butt"/><path d="" fill="#2a2a2a" stroke="none" stroke-width="0" stroke-linecap="butt"/><path d="" fill="#191919" stroke="none" stroke-width="0" stroke-linecap="butt"/><path d="" fill="#0c0c0c" stroke="none" stroke-width="0" stroke-linecap="butt"/><path d="" fill="#727272" stroke="none" stroke-width="0" stroke-linecap="butt"/><path d="" fill="#8a8a8a" stroke="none" stroke-width="0" stroke-linecap="butt"/><path d="" fill="#9e9e9e" stroke="none" stroke-width="0" stroke-linecap="butt"/><path d="M226.3804,-14.92181c0.62928,-7.28891 3.14951,-16.86621 3.14951,-16.86621c0,0 3.371,0.5198 14.24183,-0.81491c8.35166,-1.02542 21.82704,-5.98162 21.82704,-5.98162c0,0 -2.62451,2.60921 -4.09443,3.83951c-1.5627,1.30795 -4.68848,3.84476 -4.68848,3.84476c0,0 8.00549,-0.35688 15.25244,-2.25345c9.03293,-2.07961 11.44323,-4.23009 13.52909,-2.40207c2.46182,2.15751 -2.79365,23.03679 -4.01437,28.46796c-1.34755,5.52286 -4.05995,8.95423 -5.16503,11.83261c-1.10508,2.87838 -1.41249,5.98589 -4.81209,15.45909c-2.12159,5.91193 -5.57187,8.11939 -12.29247,12.81496c-6.7206,4.69558 -10.45123,7.63911 -14.36854,7.05643c-3.76987,-0.56076 -7.97604,-6.49929 -12.03978,-12.53134c-4.32721,-6.42317 -7.36115,-9.82034 -7.09545,-16.53051c0.23929,-6.04323 0.86233,-9.90143 1.39844,-15.22554c0.39181,-3.89125 -1.17131,-6.72902 -0.82766,-10.70962z" fill="#000000" stroke="#000000" stroke-width="1.5" stroke-linecap="butt"/><path d="M221.68283,-16.10973l5.08239,-30.50673l63.84622,10.63672l-5.08239,30.50673z" fill="#000000" stroke="#000000" stroke-width="1.9" stroke-linecap="butt"/><path d="M221.35644,-0.62022l2.75901,-16.56079l58.39859,9.72914l-2.75901,16.5608z" fill="url(#color-7)" stroke="#000000" stroke-width="0" stroke-linecap="butt"/><path d="M256.16164,-10.35051c1.28659,-6.13566 7.49341,-10.25926 14.21503,-9.13944c6.72161,1.11982 10.88762,6.96601 9.85739,13.1499c-1.03022,6.18387 -6.82178,10.64731 -14.18517,9.5126c-7.00394,-1.07929 -11.2309,-7.11524 -9.88725,-13.52303z" fill="url(#color-8)" stroke="#000000" stroke-width="0" stroke-linecap="butt"/><path d="M260.07282,-9.6673c0.7065,-4.24073 4.71701,-7.10578 8.95774,-6.39927c4.24073,0.7065 7.10578,4.71701 6.39928,8.95775c-0.7065,4.24074 -4.71699,7.10578 -8.95774,6.39927c-4.24073,-0.7065 -7.10577,-4.717 -6.39926,-8.95774z" fill="#ffffff" stroke="none" stroke-width="1.5" stroke-linecap="butt"/><path d="M212.85434,242.94454c0,0 -0.1398,3.26916 0.25461,4.30505c0.39441,1.03589 3.04467,4.31181 3.35068,6.98148c0.4171,3.63881 0.5095,7.33141 1.66248,11.55179c1.32624,3.43482 4.08355,8.69143 2.76494,9.98472c-1.09805,1.07697 -3.73005,-1.70656 -4.62215,-3.23156c-0.98498,-1.68378 -1.6432,-4.77164 -1.74885,-5.12308c-0.26043,-0.86629 -1.05663,-1.66139 -1.48034,-2.42745c-0.31637,-0.57201 -0.38483,-0.29869 -0.38483,-0.29869c0,0 0.01227,0.66282 0.04976,2.18977c0.02629,1.07091 0.29746,2.41103 0.38184,3.35951c0.10319,1.16005 0.18788,2.9243 0.36138,3.93685c0.07589,0.44292 0.44245,1.31699 0.75225,2.20706c0.33768,0.97017 0.62089,1.95883 0.71659,2.41598c0.58826,2.81022 1.70604,4.24842 2.22433,5.75896c0.28565,0.83252 0.31796,2.50974 -0.0523,3.24882c-0.44077,0.87984 -1.21775,0.89164 -1.21775,0.89164c0,0 -0.39357,1.30041 -1.56718,1.1624c-1.32651,-0.15598 -2.92052,-2.03158 -2.92052,-2.03158c0,0 -0.72094,0.49101 -1.74686,-0.44105c-0.56466,-0.513 -1.81042,-2.87288 -1.81042,-2.87288c0,0 -0.78177,0.35214 -1.66173,-0.90843c-0.90363,-1.29446 -1.55897,-2.92739 -2.32013,-4.9941c-0.44424,-1.20622 -1.34726,-3.05951 -2.04159,-5.05524c-0.49532,-1.42371 -1.10667,-2.91992 -1.14728,-4.30541c-0.04721,-1.92289 0.05375,-3.64792 -0.06381,-5.27276c-0.30579,-4.22624 -0.26224,-7.3694 0.42819,-10.72362c0.34147,-1.65893 1.09297,-3.26387 1.54318,-5.28484c0.27587,-1.23837 0.33453,-5.20058 0.33453,-5.20058" fill="#ffffff" stroke="#000000" stroke-width="2" stroke-linecap="butt"/><path d="M200.10249,138.73019c0,0 -1.55359,-10.99339 -1.01141,-22.23394c0.14784,-3.06501 9.16187,11.60753 14.15765,-3.71587c4.98587,-15.29302 5.95368,-60.58509 5.95368,-60.58509c0,0 3.22126,-5.71205 3.77009,5.94695c0.7217,15.33131 -0.67095,50.08356 4.93046,61.41141c2.8802,5.82469 10.1762,5.52898 14.4028,5.71037c4.69947,0.20169 18.69616,-1.10563 21.6891,-10.16889c5.07148,-15.35757 -2.15255,-43.63172 0.54054,-56.58437c1.52774,-7.3478 5.24725,-4.30096 5.24725,-4.30096c0,0 0.66213,43.82405 4.83224,61.55332c3.25648,13.845 11.86334,1.88441 11.94297,3.25721c0.80674,13.90886 -1.05397,20.31037 -1.05397,20.31037c0,0 -0.38945,8.26237 -1.20049,11.85835c-1.00277,4.4461 -4.36391,12.81319 -4.36391,12.81319c0,0 -1.42335,-11.1233 -2.1904,-14.35897c-0.43266,-1.82509 -2.01505,-3.38102 -2.01505,-3.38102c0,0 -0.02415,6.25532 -0.74869,8.78793c-0.86351,3.01839 -4.08899,8.12211 -4.08899,8.12211c0,0 0.2051,-7.14767 -1.31392,-9.81471c-1.51447,-2.65904 -7.78658,-6.16363 -7.78658,-6.16363c0,0 1.54756,5.82921 0.3633,9.07877c-1.18426,3.24955 -7.7039,11.06349 -7.7039,11.06349c0,0 1.95191,-6.67675 1.64326,-8.91493c-0.36291,-2.6316 -3.6844,-5.88635 -3.6844,-5.88635c0,0 -2.52441,10.78468 -3.2311,12.10896c-1.73768,3.2563 -7.73647,8.44356 -7.73647,8.44356c0,0 1.7844,-8.64817 1.92273,-12.2704c0.13335,-3.49197 -1.10713,-9.08655 -1.10713,-9.08655l-11.93023,19.77943l-3.36241,-17.88985l-2.91129,11.68373c0,0 -8.46786,9.61801 -9.88828,10.03862c-1.75982,0.52112 3.11566,-6.82202 3.86345,-12.17553c0.6699,-4.79588 -2.86141,-7.63928 -2.86141,-7.63928l-9.95688,20.73454z" fill="#420000" stroke="#000000" stroke-width="0" stroke-linecap="butt"/><g stroke="none" stroke-width="0" stroke-linecap="butt"><path d="M201.09567,92.42515c-5.66727,-0.16948 -4.51738,-7.94169 -0.60602,-8.61456c12.19214,-2.09739 52.21035,-7.03516 85.74804,-6.03226c5.72108,0.17108 4.80146,7.89283 0.60602,8.61456c-12.19398,2.09771 -52.21605,7.03499 -85.74803,6.03225z" fill="#cacaca"/><path d="M200.94284,92.43589c-2.21769,-0.06632 26.18505,-2.57908 50.43822,-6.78505c7.27945,-1.2624 -35.57707,2.0537 -29.95411,0.55284c7.11685,-1.89961 62.05997,-8.49229 64.6579,-8.4146c5.72108,0.17109 4.80147,7.89283 0.60602,8.61456c-12.19398,2.0977 -52.21604,7.03498 -85.74803,6.03225z" fill="#b3b3b3"/></g><path d="M278.16228,27.45638c0,0 -3.13344,33.77299 -35.50957,35.28113c-27.40913,1.27677 -36.42376,-34.84986 -36.42376,-34.84986" fill="none" stroke="#000000" stroke-width="3" stroke-linecap="round"/><g stroke="#000000" stroke-width="0" stroke-linecap="butt"><path d="M278.90316,54.58047c0,5.86474 1.23062,16.40968 -6.44249,21.1662c-6.27706,3.89112 -50.62503,5.28404 -56.52727,2.147c-9.02593,-4.79726 -7.48377,-16.60377 -7.48377,-23.05054c0,-6.04418 4.79419,-13.60782 13.24604,-13.56508c2.21912,0.01122 9.04466,-0.40926 12.18105,1.10283c5.99098,2.88831 10.19697,8.12823 10.19697,8.12823c0,0 3.89739,-4.72079 9.49582,-7.43969c4.2583,-2.06806 10.05886,-2.3137 12.62099,-2.31767c7.55536,-0.01168 12.71266,7.85519 12.71266,13.8287z" fill="#cc1414"/><path d="M273.60589,43.37334c4.86829,2.42586 6.27783,12.8562 5.08306,20.97476c-0.85281,5.79489 -3.03248,10.81842 -6.2283,12.7995c-6.27706,3.89112 -50.88989,3.83936 -56.79213,0.70233c-0.23267,-0.12366 16.86318,-0.3764 31.82145,-9.25304c3.88252,-2.30399 -28.81961,-5.38307 -25.65174,-7.8094c2.993,-2.29239 16.53696,-3.2289 25.01025,-6.02102c14.94331,-4.92413 26.68096,-11.43123 26.75742,-11.39313z" fill="#a10000"/></g><path d="M316.40171,144.39484c-0.24977,0.01066 -0.26044,-0.23911 -0.26044,-0.23911l0.0307,-0.26523c0.07793,-0.12844 0.15584,-0.25688 0.23378,-0.38532c0,0 0.12968,-0.21374 0.34342,-0.08407c0.21374,0.12968 0.08407,0.34342 0.08407,0.34342c-0.07793,0.12844 -0.15584,0.25688 -0.23378,0.38532l0.04137,-0.01546c0,0 0.01066,0.24977 -0.23911,0.26044z" fill="#ff8383" stroke="none" stroke-width="0.5" stroke-linecap="butt"/><g fill="#964d4d" stroke="none" stroke-linecap="butt"><path d="M312.73396,139.3378c0.26864,-2.99794 2.91673,-5.21048 5.91467,-4.94183c2.99794,0.26864 5.21048,2.91673 4.94183,5.91467c-0.26864,2.99794 -2.91673,5.21048 -5.91467,4.94183c-2.99794,-0.26864 -5.21048,-2.91673 -4.94183,-5.91467z" stroke-width="NaN"/><path d="M312.12421,143.9016c0.26864,-2.99794 2.91673,-5.21048 5.91467,-4.94183c2.99794,0.26864 5.21048,2.91673 4.94183,5.91467c-0.26864,2.99794 -2.91673,5.21048 -5.91467,4.94183c-2.99794,-0.26864 -5.21048,-2.91673 -4.94183,-5.91467z" stroke-width="NaN"/><path d="M314.54853,149.33963c0.26864,-2.99794 2.91673,-5.21048 5.91467,-4.94183c2.99794,0.26864 5.21048,2.91673 4.94183,5.91467c-0.26864,2.99794 -2.91673,5.21048 -5.91467,4.94183c-2.99794,-0.26864 -5.21048,-2.91673 -4.94183,-5.91467z" stroke-width="NaN"/><path d="M320.10083,151.24281c0.26864,-2.99794 2.91673,-5.21048 5.91467,-4.94183c2.99794,0.26864 5.21048,2.91673 4.94183,5.91467c-0.26864,2.99794 -2.91673,5.21048 -5.91467,4.94183c-2.99794,-0.26864 -5.21048,-2.91673 -4.94183,-5.91467z" stroke-width="NaN"/><path d="M316.85796,135.89211c0.26864,-2.99794 2.91673,-5.21047 5.91467,-4.94182c2.99794,0.26864 5.21048,2.91673 4.94183,5.91467c-0.26864,2.99794 -2.91673,5.21048 -5.91467,4.94183c-2.99794,-0.26864 -5.21048,-2.91673 -4.94183,-5.91467z" stroke-width="NaN"/></g><path d="M312.24908,137.79401c0.35387,-0.99735 2.21406,-0.78069 2.8692,-0.12312c0.3811,0.39516 0.65449,1.97548 1.11493,2.14787c2.42791,0.909 4.22322,-0.74669 5.14267,2.6979c-1.77259,1.89757 -6.11467,-1.59309 -6.79715,1.06057c0.00092,0.54924 -0.10138,2.68157 -1.02886,2.14433c-0.45035,-0.26086 -1.26497,-3.33335 -1.26606,-3.87912c-0.00046,-0.2311 0.58246,-0.72006 0.70686,-0.94843c-0.50169,-0.19244 -2.69523,-0.59963 -2.89384,-1.18887c-0.22522,-0.6682 1.21837,-1.60532 2.15226,-1.91112z" fill="#7d2727" stroke="none" stroke-width="0.5" stroke-linecap="butt"/><path d="M313.96903,149.84556c0.00033,-0.18021 0.13033,-0.23028 0.20288,-0.24419c0.04175,-0.20301 0.21862,-0.35492 0.64832,-0.40424c0,0 0.25,0.00047 0.24954,0.25046c-0.0001,0.05667 -0.01303,0.10047 -0.03296,0.13432c2.35757,-0.11159 5.672,-0.72537 4.49773,2.79643c-0.25486,0.57051 -1.29105,1.20136 -1.94371,1.41108c-0.19734,0.06342 -1.56049,-0.16955 -1.69568,0.02956c-0.43503,0.64068 -0.02441,2.29616 -0.936,2.57291c-0.45622,0.13851 -1.06601,-0.5029 -1.37126,-0.72907c-0.0919,-1.33335 0.02397,-2.4322 0.3872,-3.68715c0.06347,-0.2193 0.63291,-0.96695 0.59426,-1.09583c-0.07077,-0.23605 -0.2257,-0.51799 -0.32284,-0.78378l-0.02792,-0.00005c0,0 -0.25,-0.00047 -0.24954,-0.25046z" fill="#7d2727" stroke="none" stroke-width="0.5" stroke-linecap="butt"/><path d="M329.30492,156.52855c0.67898,0.75564 0.54522,2.96472 0.49392,3.53721c-0.25956,0.59536 0.06935,2.8876 -0.88839,2.84151c-2.03775,-0.09803 0.63315,-3.65812 -1.8765,-3.88249c-0.15714,-0.01408 -0.68698,-0.04632 -0.76715,-0.14225c-0.12096,-0.14476 0.18306,-0.72492 0.09551,-0.55781c-0.28415,0.54237 -1.41366,0.30811 -1.66771,-0.11579c-1.08865,-1.81653 0.17844,-3.98148 2.26701,-3.09336c1.25561,0.56496 2.37581,-0.25771 2.3433,1.41299z" fill="#7d2727" stroke="none" stroke-width="0.5" stroke-linecap="butt"/><path d="M327.45671,147.11002c-0.01779,0.00163 -0.03703,0.00166 -0.05787,-0.00021c-0.24901,-0.02232 -0.22669,-0.27132 -0.22669,-0.27132l0.09763,-0.26914c0.42038,-0.31679 0.63233,-0.22477 1.13864,-0.12491c0.14356,0.60664 2.23125,0.49608 2.64809,1.65007c0.08531,0.23618 -0.15488,1.01062 -0.36531,1.15109c-0.40305,0.26906 -1.01232,-0.14724 -1.33798,0.10036c-0.58772,0.44685 -0.57297,1.15747 -0.97197,1.71295c-0.16987,0.49887 -0.33984,1.24608 -1.16524,0.79684c-0.77447,-0.42152 -0.37962,-3.55285 0.24069,-4.74576z" fill="#7d2727" stroke="none" stroke-width="0.5" stroke-linecap="butt"/><path d="M337.9439,148.6978c0.00587,-0.03865 0.02333,-0.08058 0.05862,-0.12444c0.15669,-0.1948 0.35149,-0.03812 0.35149,-0.03812l0.29938,0.24237c0.5126,0.6086 0.63781,1.20568 -0.22153,1.55655c-0.80258,1.40757 -0.65994,3.75781 -1.6106,4.93059c-1.04794,1.29277 -1.71294,-0.76666 -1.40092,-1.65929c0.87674,-1.20541 0.20832,-4.702 2.52354,-4.90765z" fill="#7d2727" stroke="none" stroke-width="0.5" stroke-linecap="butt"/><path d="M337.51287,159.88566c0.13006,0.07308 0.11518,0.23906 0.11518,0.23906c-0.00556,0.0468 -0.01223,0.09398 -0.01994,0.14147c0.00433,0.036 0.0067,0.10965 -0.03227,0.17383c-0.19879,0.95659 -0.74977,2.02514 -0.84052,2.9239c-0.11255,1.11474 0.42012,2.16526 -0.03844,3.42748c-0.44355,0.38504 -0.47356,2.15983 -1.26131,2.11759c-1.88231,-0.10093 -0.77298,-4.43868 -0.60225,-5.56157c0.52213,-1.23234 2.03381,-1.8845 2.18805,-3.10489l-0.14519,-0.36962c-0.01512,-0.03623 -0.0219,-0.07657 -0.01815,-0.11839c0.01232,-0.13752 0.1338,-0.23902 0.27132,-0.22669c0.06877,0.00616 0.12853,0.0396 0.16954,0.0887l0.18135,0.21705l-0.02039,0.01704c0.01736,0.01044 0.03472,0.02088 0.05209,0.03132z" fill="#7d2727" stroke="none" stroke-width="0.5" stroke-linecap="butt"/></g></g></svg>