<svg version="1.1" xmlns="http://www.w3.org/2000/svg" xmlns:xlink="http://www.w3.org/1999/xlink" width="131.889" height="254.91794" viewBox="0,0,131.889,254.91794"><g transform="translate(-152.06876,-50.58194)"><g data-paper-data="{&quot;isPaintingLayer&quot;:true}" fill-rule="nonzero" stroke-linejoin="miter" stroke-miterlimit="10" stroke-dasharray="" stroke-dashoffset="0" style="mix-blend-mode: normal"><g stroke-linecap="butt"><g><path d="M201.03044,304.39162c0,0 -0.63536,-94.38387 -0.79335,-118.01201c-0.05451,-8.15261 8.18688,-36.76129 40.20201,-36.9211c31.60235,-0.15775 39.85672,29.48704 39.84884,36.89673c-0.07659,46.24274 0.65429,117.98648 0.65429,117.98648l-10.49667,0.09614l-0.15882,-114.84311c0,0 0.07549,-3.0993 -2.81625,-3.15415c-3.43441,-0.06514 -2.94538,3.11562 -2.94538,3.11562l0.20548,114.86995l-48.21366,0.07222l-0.30539,-115.23309c0,0 0.27949,-2.919 -2.8856,-2.93443c-3.11083,-0.01515 -2.81569,2.90899 -2.81569,2.90899l0.35311,115.0668z" fill="#ffffff" stroke="#000000" stroke-width="2"/><path d="M216.91668,304.66668v-15h47.33334v15z" fill="#000000" stroke="none" stroke-width="0"/><path d="M201.37501,283.83333c0,-0.69036 0.55964,-1.25 1.25,-1.25c0.69036,0 1.25,0.55964 1.25,1.25c0,0.25501 -0.07636,0.49219 -0.20747,0.68991c0.2949,-0.12237 0.6183,-0.18991 0.95747,-0.18991c0.5628,0 1.08217,0.18597 1.5,0.49982c0.41783,-0.31385 0.9372,-0.49982 1.5,-0.49982c1.38071,0 2.5,1.11929 2.5,2.5c0,1.38071 0.33333,18 0.33333,18l-9.08333,0.08333c0,0 -0.5,-14.45262 -0.5,-15.83333c0,-1.12076 0.2375,-2.06927 1.25367,-2.3867c0.03439,-0.63828 0.30821,-1.21292 0.73322,-1.63572c-0.07671,0.01472 -0.1559,0.02242 -0.2369,0.02242c-0.69036,0 -1.25,-0.55964 -1.25,-1.25z" fill="#000000" stroke="none" stroke-width="0.5"/><path d="M207.12501,281.58333c0,-0.69036 0.55964,-1.25 1.25,-1.25c0.69036,0 1.25,0.55964 1.25,1.25c0,0.69036 -0.55964,1.25 -1.25,1.25c-0.17949,0 -0.35014,-0.03783 -0.50442,-0.10595c0.00293,0.03493 0.00442,0.07027 0.00442,0.10595c0,0.69036 -0.55964,1.25 -1.25,1.25c-0.56154,0 -1.0366,-0.37027 -1.19433,-0.87999c-0.16738,0.08321 -0.35607,0.12999 -0.55567,0.12999c-0.69036,0 -1.25,-0.55964 -1.25,-1.25c0,-0.69036 0.55964,-1.25 1.25,-1.25c0.56154,0 1.0366,0.37027 1.19433,0.87999c0.16738,-0.08321 0.35607,-0.12999 0.55567,-0.12999c0.17949,0 0.35014,0.03783 0.50442,0.10596c-0.00293,-0.03493 -0.00442,-0.07027 -0.00442,-0.10596z" fill="#000000" stroke="none" stroke-width="0.5"/><path d="M207.62501,278.08333c0,-0.69036 0.55964,-1.25 1.25,-1.25c0.69036,0 1.25,0.55964 1.25,1.25c0,0.69036 -0.55964,1.25 -1.25,1.25c-0.69036,0 -1.25,-0.55964 -1.25,-1.25z" fill="#000000" stroke="none" stroke-width="0.5"/><path d="M203.62501,278.83333c0,-0.69036 0.55964,-1.25 1.25,-1.25c0.69036,0 1.25,0.55964 1.25,1.25c0,0.69036 -0.55964,1.25 -1.25,1.25c-0.69036,0 -1.25,-0.55964 -1.25,-1.25z" fill="#000000" stroke="none" stroke-width="0.5"/><path d="M202.37501,279.83333c0,-0.27614 0.22386,-0.5 0.5,-0.5c0.27614,0 0.5,0.22386 0.5,0.5c0,0.27614 -0.22386,0.5 -0.5,0.5c-0.27614,0 -0.5,-0.22386 -0.5,-0.5z" fill="#000000" stroke="none" stroke-width="0.5"/><path d="M203.87501,276.58333c0,-0.27614 0.22386,-0.5 0.5,-0.5c0.27614,0 0.5,0.22386 0.5,0.5c0,0.27614 -0.22386,0.5 -0.5,0.5c-0.27614,0 -0.5,-0.22386 -0.5,-0.5z" fill="#000000" stroke="none" stroke-width="0.5"/><path d="M206.87501,276.83333c0,-0.27614 0.22386,-0.5 0.5,-0.5c0.27614,0 0.5,0.22386 0.5,0.5c0,0.27614 -0.22386,0.5 -0.5,0.5c-0.27614,0 -0.5,-0.22386 -0.5,-0.5z" fill="#000000" stroke="none" stroke-width="0.5"/><path d="M205.87501,275.08333c0,-0.27614 0.22386,-0.5 0.5,-0.5c0.27614,0 0.5,0.22386 0.5,0.5c0,0.27614 -0.22386,0.5 -0.5,0.5c-0.27614,0 -0.5,-0.22386 -0.5,-0.5z" fill="#000000" stroke="none" stroke-width="0.5"/><path d="M206.37501,280.58333c0,-0.27614 0.22386,-0.5 0.5,-0.5c0.27614,0 0.5,0.22386 0.5,0.5c0,0.27614 -0.22386,0.5 -0.5,0.5c-0.27614,0 -0.5,-0.22386 -0.5,-0.5z" fill="#000000" stroke="none" stroke-width="0.5"/><path d="M202.12501,277.83333c0,-0.27614 0.22386,-0.5 0.5,-0.5c0.27614,0 0.5,0.22386 0.5,0.5c0,0.27614 -0.22386,0.5 -0.5,0.5c-0.27614,0 -0.5,-0.22386 -0.5,-0.5z" fill="#000000" stroke="none" stroke-width="0.5"/><path d="M207.62501,274.83333c0,-0.27614 0.22386,-0.5 0.5,-0.5c0.27614,0 0.5,0.22386 0.5,0.5c0,0.27614 -0.22386,0.5 -0.5,0.5c-0.27614,0 -0.5,-0.22386 -0.5,-0.5z" fill="#000000" stroke="none" stroke-width="0.5"/><path d="M205.37501,276.83333c0,-0.27614 0.22386,-0.5 0.5,-0.5c0.27614,0 0.5,0.22386 0.5,0.5c0,0.27614 -0.22386,0.5 -0.5,0.5c-0.27614,0 -0.5,-0.22386 -0.5,-0.5z" fill="#000000" stroke="none" stroke-width="0.5"/><path d="M202.87501,274.83333c0,-0.27614 0.22386,-0.5 0.5,-0.5c0.27614,0 0.5,0.22386 0.5,0.5c0,0.27614 -0.22386,0.5 -0.5,0.5c-0.27614,0 -0.5,-0.22386 -0.5,-0.5z" fill="#000000" stroke="none" stroke-width="0.5"/></g><path d="M255.62763,200.3338c-0.57113,0 -1.03411,-0.46299 -1.03411,-1.03411c0,-0.57113 0.46299,-1.03413 1.03411,-1.03413c0.57113,0 1.03411,0.463 1.03411,1.03413c0,0.57113 -0.46299,1.03411 -1.03411,1.03411z" fill="#000000" stroke="none" stroke-width="1.5"/><path d="M250.36774,204.56941c-4.4635,-0.31439 -6.55245,-1.79392 -6.16985,-2.58011c0.11788,-0.24224 2.84645,1.06355 6.97038,1.3048c6.40897,0.37493 8.51033,-0.63173 8.51033,-0.63173v1.34616c0,0 -2.4135,1.04672 -9.31086,0.56089z" fill="#000000" stroke="#000000" stroke-width="0"/><path d="M222.55498,199.29969c0,-0.57113 0.46299,-1.03413 1.03411,-1.03413c0.57113,0 1.03413,0.463 1.03413,1.03413c0,0.57113 -0.463,1.03411 -1.03413,1.03411c-0.57113,0 -1.03411,-0.46299 -1.03411,-1.03411z" fill="#000000" stroke="none" stroke-width="1.5"/><path d="M228.84899,204.56941c-6.89736,0.48585 -9.31086,-0.56089 -9.31086,-0.56089v-1.34616c0,0 2.10136,1.00666 8.51033,0.63173c4.12393,-0.24126 6.85251,-1.54704 6.97039,-1.3048c0.3826,0.78618 -1.70634,2.26571 -6.16985,2.58011z" fill="#000000" stroke="#000000" stroke-width="0"/><path d="M240.12945,261.12113c-0.81895,0 -1.48284,-0.66389 -1.48284,-1.48284c0,-0.81895 0.66389,-1.48284 1.48284,-1.48284c0.81895,0 1.48284,0.66389 1.48284,1.48284c0,0.81895 -0.66389,1.48284 -1.48284,1.48284z" data-paper-data="{&quot;index&quot;:null}" fill="#000000" stroke="none" stroke-width="1.5"/><path d="M213.92787,291.32496c0,0 -0.62598,-61.51103 4.81237,-79.95561c5.17086,-17.53738 17.42888,-27.63865 21.52581,-27.63865c3.79198,0 16.01921,7.36923 20.91736,23.45626c5.95975,19.57364 7.38217,83.85782 7.38217,83.85782z" fill="#22678c" stroke="none" stroke-width="0"/><g stroke="none" stroke-width="0"><path d="M215.30743,235.26199l50.43481,-0.80734l2.41823,37.93576c-1.11479,-1.03102 -3.49754,-2.94046 -4.25831,-2.61324c-0.20458,0.08799 -0.67997,1.52932 -0.93869,1.40363c-1.54915,-0.75261 -0.3483,-4.09896 -2.69807,-3.36624c-2.93325,1.63323 -6.40729,5.59859 -9.25965,3.45565c-1.77127,-1.5519 -2.98562,2.61633 -4.58369,1.44697c-0.74584,-0.54575 -0.58087,-2.31716 -1.08116,-3.08121c-0.64663,-0.98753 -1.7803,-1.96318 -2.69801,-2.35014c-1.10671,0.99549 -1.73483,3.21499 -2.90206,4.02467c-1.91171,1.32612 -4.11614,0.45185 -5.86611,-0.89466c-1.1021,-1.19632 -1.65669,0.01163 -2.83621,0.00677c-1.12186,-0.00462 -1.78594,-0.84057 -2.84008,-0.78411c-1.51624,0.08119 -2.86481,1.16494 -4.39837,1.23773c-1.27075,0.34864 -2.49923,1.18231 -3.83039,0.65632c-0.9965,-0.39375 -2.76475,-2.58261 -3.46868,-2.58686c-0.61802,-0.00373 -1.84513,0.83492 -2.45753,1.13646c-0.20024,0.14144 -0.37226,0.30348 -0.52275,0.48171z" fill="#00ab8c"/><path d="M242.76639,241.31704c0,0 1.00629,16.36436 12.86309,15.48771c8.85365,-0.65461 10.11276,-22.3501 10.11276,-22.3501l2.41823,37.93576c-1.11479,-1.03102 -3.49754,-2.94046 -4.25831,-2.61324c-0.20458,0.08799 -0.67997,1.52932 -0.93869,1.40363c-1.54915,-0.75261 -0.3483,-4.09896 -2.69807,-3.36624c-2.93325,1.63323 -6.40729,5.59859 -9.25965,3.45565c-1.77127,-1.5519 -2.98562,2.61633 -4.58369,1.44697c-0.74584,-0.54575 -0.58087,-2.31716 -1.08116,-3.08121c-0.64663,-0.98753 -1.7803,-1.96318 -2.69801,-2.35014c-1.10671,0.99549 -1.73483,3.21499 -2.90206,4.02467c-1.91171,1.32612 -4.11614,0.45185 -5.86611,-0.89466c-1.1021,-1.19632 -1.65669,0.01163 -2.83621,0.00677c-1.12186,-0.00462 -1.78594,-0.84057 -2.84008,-0.78411c-1.51624,0.08119 -2.86481,1.16494 -4.39837,1.23773c-1.27075,0.34864 -2.49923,1.18231 -3.83039,0.65632c-0.9965,-0.39375 -2.76475,-2.58261 -3.46868,-2.58686c-0.61802,-0.00373 -1.84513,0.83492 -2.45753,1.13646c-0.20024,0.14144 -0.37226,0.30348 -0.52275,0.48171c0,0 21.24089,-7.29593 26.60609,-12.21702c3.92776,-3.60263 2.63958,-17.0298 2.63958,-17.0298z" fill="#007962"/></g><g stroke="none" stroke-width="0"><path d="M199.10265,264.18832c0,0 -0.44533,-48.47072 1.29578,-63.27015c0.99541,-8.46097 8.2308,-17.70574 8.2308,-17.70574c0,0 4.06759,0.95493 5.38526,6.27267c1.29715,5.23491 2.46016,25.38918 2.46016,25.38918z" fill="#22678c"/><path d="M196.90458,238.7342c0,0 -0.44533,-48.47072 1.29577,-63.27016c0.99541,-8.46097 8.2308,-17.70574 8.2308,-17.70574l7.84542,31.66186z" fill="#2a81af"/></g><g data-paper-data="{&quot;index&quot;:null}" stroke="none" stroke-width="0"><path d="M264.3367,217.35255c0,0 1.16302,-20.15427 2.46016,-25.38918c1.31767,-5.31775 5.38525,-6.27268 5.38525,-6.27268c0,0 7.23539,9.24476 8.2308,17.70574c1.74111,14.79943 1.29577,63.27015 1.29577,63.27015z" fill="#22678c"/><path d="M266.53477,191.89843l6.44445,-31.94205c0,0 8.63636,9.52496 9.63177,17.98593c1.74111,14.79943 1.29577,63.27015 1.29577,63.27015z" fill="#2a81af"/></g><g stroke="#000000" stroke-width="0"><path d="M212.96135,191.90823l-8.96618,-46.5121l36.14495,38.38649l-24.93721,50.9952z" fill="#00ab8c"/><path d="M212.96135,191.90823l13.44928,8.686l14.00967,-17.0918l-25.2174,51.27539z" fill="#007962"/></g><g data-paper-data="{&quot;index&quot;:null}" stroke="#000000" stroke-width="0"><path d="M265.31403,234.45415l-24.93721,-50.71501l36.14494,-38.66669l-8.96618,46.5121z" fill="#00ab8c"/><path d="M265.31403,234.45414l-24.93721,-50.715l13.72948,16.53141l13.44928,-8.686z" fill="#007962"/></g></g><g fill="#000000" stroke="none" stroke-width="1.5" stroke-linecap="butt"><path d="M186.64819,105.86096c0,0 5.52928,-6.51781 5.56892,-7.3921c0.05036,-1.11109 -1.22373,-19.1869 6.40193,-29.82251c8.11226,-11.3143 25.15265,-15.1927 25.15265,-15.1927c0,0 -13.73695,3.58164 -12.80267,3.50161c0.65744,-0.05632 6.30929,-3.99205 12.89325,-5.63078c3.01623,-0.75073 9.79484,-0.90857 12.22424,-0.57989c33.41068,4.52029 30.28989,34.31369 33.29032,40.45832c4.38568,8.98149 7.8938,16.68405 7.8938,16.68405c0,0 -2.96159,-1.76154 -4.37719,-2.70295c-1.32031,-0.87804 -4.10156,-2.74306 -4.10156,-2.74306c0,0 4.12718,9.98021 3.40818,20.45446c-0.59028,9.59069 -5.50871,17.87814 -5.50871,17.87814l-1.38789,-2.21774c0,0 -0.7939,2.29052 -1.81002,3.53508c-1.01614,1.24455 -3.12477,3.24726 -3.12477,3.24726l-0.46818,-3.67565c0,0 -5.90333,11.67865 -23.11917,13.29093c-16.24773,1.4037 -27.02176,-7.96921 -27.02176,-7.96921l0.15431,2.6529c0,0 -4.20936,-2.87972 -7.13638,-9.02877c-3.48866,-7.32896 -4.46743,-11.85044 -4.46743,-11.85044c0,0 -2.13387,2.12714 -5.40535,3.34127c-4.09935,1.52139 -6.87555,1.04974 -6.87555,1.04974c0,0 3.313,-3.06991 5.07007,-5.3129c1.56506,-1.99787 2.28951,-3.62879 2.28951,-3.62879c0,0 -1.98638,1.29336 -4.04634,2.03991c-2.14933,0.77896 -3.95521,0.93791 -3.95521,0.93791c0,0 4.43701,-5.51697 5.88872,-11.53276c1.37066,-5.67987 0.97482,-11.11401 0.97482,-11.11401c0,0 -1.28732,0.79664 -3.23203,1.12958c-1.23269,0.21105 -2.37051,0.19311 -2.37051,0.19311z"/><path d="M272.27269,122.04535c1.20707,6.0696 5.41716,11.76162 5.41716,11.76162c0,0 -1.79798,-0.2319 -3.91402,-1.09721c-2.02807,-0.82931 -3.96047,-2.202 -3.96047,-2.202c0,0 0.65784,1.65891 2.14077,3.71849c1.66487,2.31225 4.8509,5.51373 4.8509,5.51373c0,0 -2.79302,0.35892 -6.82743,-1.32713c-3.21965,-1.34555 -5.26568,-3.5573 -5.26568,-3.5573c0,0 6.41912,-18.54087 7.55878,-12.81018z" data-paper-data="{&quot;index&quot;:null}"/><path d="M258.06644,69.30564c6.06886,1.21077 12.93965,-0.49693 12.93965,-0.49693c0,0 -0.90315,1.57187 -2.51322,3.19486c-1.54312,1.5555 -3.55148,2.81444 -3.55148,2.81444c0,0 1.78436,0.02801 4.25496,-0.55255c2.7737,-0.65179 6.95163,-2.36794 6.95163,-2.36794c0,0 -0.73869,2.71739 -3.84194,5.79782c-2.47653,2.45834 -5.30347,3.50072 -5.30347,3.50072c0,0 -14.66611,-13.03358 -8.93613,-11.8904z" data-paper-data="{&quot;index&quot;:null}"/><path d="M194.71372,86.15469c0,0 -2.98722,0.39321 -6.32336,-0.62991c-4.18039,-1.28201 -6.099,-3.34327 -6.099,-3.34327c0,0 4.49657,-0.42569 7.25487,-1.13983c2.45688,-0.63611 4.02314,-1.49142 4.02314,-1.49142c0,0 -2.36353,-0.17947 -4.45331,-0.83795c-2.18045,-0.68704 -3.71144,-1.65791 -3.71144,-1.65791c0,0 6.87602,-1.68654 11.68386,-5.58292c4.53937,-3.6788 -2.37477,14.68322 -2.37477,14.68322z" data-paper-data="{&quot;index&quot;:null}"/></g><path d="M204.49815,115.41729c-1.3156,-7.19676 -1.41082,-17.09965 -1.41082,-17.09965c0,0 3.38873,-0.38778 13.52252,-4.5426c7.78541,-3.19202 19.47628,-11.52709 19.47628,-11.52709c0,0 -1.84333,3.20907 -2.93669,4.78351c-1.16236,1.67381 -3.50832,4.94528 -3.50832,4.94528c0,0 7.62784,-2.45586 14.11789,-6.19678c8.16449,-4.38857 9.92221,-7.09866 12.41638,-5.88557c2.94372,1.43175 3.38169,22.95785 3.63678,28.51864c0.15694,5.68271 -1.55432,9.70802 -1.86103,12.77595c-0.30672,3.06793 0.21643,6.14646 -0.56404,16.18089c-0.48706,6.26218 -3.2329,9.30154 -8.47694,15.60351c-5.24404,6.30198 -8.06615,10.1253 -11.99842,10.59651c-3.78427,0.45348 -9.40788,-4.16529 -14.91879,-8.91184c-5.8682,-5.05432 -9.69076,-7.5309 -11.20441,-14.07353c-1.3632,-5.89232 -1.77991,-9.77823 -2.66713,-15.05519c-0.64846,-3.85679 -2.90474,-6.18175 -3.62322,-10.11204z" fill="#ffffff" stroke="#000000" stroke-width="1.5" stroke-linecap="butt"/><g stroke="none" stroke-linecap="butt"><path d="M256.59177,145.10622c0,0 1.42129,24.10964 -17.82022,26.1088c-21.99544,2.28528 -23.70015,-22.48634 -23.70015,-22.48634c0,0 4.03349,-8.75937 10.783,-9.62625c4.68897,-0.45467 10.1265,1.90141 10.1265,1.90141c0,0 4.50863,-3.90335 8.80511,-2.62849c6.74706,0.24361 11.80574,6.73085 11.80574,6.73085z" fill="#000000" stroke-width="0"/><path d="M230.49036,140.46969c1.26272,0.25261 6.20657,3.16536 5.71667,3.81804c-0.11023,0.1318 -6.30744,1.54228 -10.89177,2.27193l-8.59471,1.10245l1.67028,-1.91555c3.37996,-3.84057 8.19718,-5.94265 12.09953,-5.27687z" data-paper-data="{&quot;noHover&quot;:false,&quot;origItem&quot;:[&quot;Path&quot;,{&quot;applyMatrix&quot;:true,&quot;segments&quot;:[[[764.87909,394.12584],[1.42968,-1.32458],[0,0]],[764.16815,394.7729],[[767.37909,394.62066],[0,0],[1.76562,-0.09896]],[[770.66815,394.37706],[-0.04688,0.04568],[0.21094,-0.22838]],[[769.48065,392.65662],[0.46876,0.14464],[-1.45312,-0.40346]]],&quot;closed&quot;:true,&quot;fillColor&quot;:[0,0,0]}]}" fill="#ffffff" stroke-width="0.5"/><path d="M247.44554,140.07662c1.18713,0.52145 3.16144,2.18982 4.13816,3.27513l1.8367,2.03862l-1.92661,-0.18489c-1.0792,-0.07051 -4.5178,-0.21613 -7.17593,-0.40645c-18.66763,0.81394 -4.4321,-4.06484 -4.4321,-4.06484c0,0 4.45536,-1.98739 7.55978,-0.65756z" data-paper-data="{&quot;noHover&quot;:false,&quot;origItem&quot;:[&quot;Path&quot;,{&quot;applyMatrix&quot;:true,&quot;segments&quot;:[[[773.09785,393.22756],[0,0],[-0.5,1.02008]],[[774.71503,394.71962],[-1.92968,-0.2969],[1,0.17508]],[[777.26191,395.16876],[-0.40626,-0.06852],[0,0]],[777.98067,395.321],[[777.35567,394.49884],[0,0],[-0.32812,-0.44914]],[[775.95723,393.2047],[0.4297,0.2436],[-1.125,-0.62422]],[[773.09785,393.22754],[0.33594,-0.62424],[0,0]]],&quot;closed&quot;:true,&quot;fillColor&quot;:[0,0,0]}]}" fill="#ffffff" stroke-width="0.5"/><path d="M220.99414,149.54627c-0.16456,-1.6102 3.40712,-0.46278 6.258,2.21875c6.86626,6.26849 12.83456,5.76717 18.31726,-1.5022c1.59015,-2.19129 3.46864,-3.50554 4.46833,-3.60771c1.42812,-0.14595 1.29773,0.25589 -1.69673,4.23786c-7.02992,9.27556 -13.81315,10.18522 -22.64364,3.05288c-2.54508,-2.11017 -4.66863,-4.06156 -4.70317,-4.39954z" data-paper-data="{&quot;noHover&quot;:false,&quot;origItem&quot;:[&quot;Path&quot;,{&quot;applyMatrix&quot;:true,&quot;segments&quot;:[[[765.71503,395.71686],[0,0],[0,0.12942]],[[767.33221,397.53626],[-0.8828,-0.89828],[3.07032,3.04502]],[[775.83221,397.2622],[-3.02344,3.24296],[1.28906,-1.3931]],[[776.64471,395.7473],[0.54688,0],[-0.38282,0]],[[775.00409,396.88918],[0.6875,-0.76886],[-2.35938,2.54258]],[[767.80877,396.74454],[2.35938,2.64156],[-0.97656,-1.12666]],[[765.71501,395.71684],[0,-0.6166],[0,0]]],&quot;closed&quot;:true,&quot;fillColor&quot;:[0,0,0]}]}" fill="#ffffff" stroke-width="0.5"/><path d="M222.71852,154.28588c4.22132,3.78688 6.50231,5.1366 8.77265,5.76831c2.30909,0.60766 3.78838,0.54417 6.93032,0.02221c5.32502,-0.94592 8.70514,-3.10105 11.49591,-7.86567c1.01058,-1.81072 2.34889,-3.56066 2.80603,-3.92877c0.8244,-0.6065 1.39924,-0.45411 1.37741,2.96294c-0.09941,8.3061 -4.48293,14.26105 -12.24627,16.36013c-11.79698,3.17419 -22.02688,-3.08535 -24.62293,-14.97265l-0.80139,-3.56979l6.28823,5.2233z" data-paper-data="{&quot;noHover&quot;:false,&quot;origItem&quot;:[&quot;Path&quot;,{&quot;applyMatrix&quot;:true,&quot;segments&quot;:[[765.99629,397.51342],[763.99629,395.3743],[[764.16817,396.74456],[0,0],[0.52344,4.60558]],[[772.78535,403.24566],[-4.59374,0.74604],[3.02344,-0.49482]],[[778.00411,397.63522],[-0.35938,3.14398],[0.14062,-1.29414]],[[777.78537,396.39438],[0.33592,-0.19792],[-0.1875,0.1218]],[[776.57443,397.78748],[0.45312,-0.64708],[-1.24218,1.6976]],[[771.87911,400.42902],[2.0547,-0.15224],[-1.21094,0.07612]],[[769.09787,400.1093],[0.85156,0.31972],[-0.83594,-0.32734]],[[765.99631,397.51342],[1.45312,1.59864],[0,0]]],&quot;closed&quot;:true,&quot;fillColor&quot;:[0,0,0]}]}" fill="#ffffff" stroke-width="0.5"/></g><path d="M234.97895,141.88255c-1.02841,0.1051 -3.85125,-2.88381 -4.3124,-4.95091c-0.41261,-1.8495 0.91912,-3.94186 3.37789,-4.19315c2.45878,-0.25128 4.23022,0.061 4.43495,3.7571c0.17375,3.13677 -1.04166,5.13569 -3.50044,5.38697z" fill="#ffffff" stroke="#000000" stroke-width="1.15" stroke-linecap="butt"/><path d="M235.50278,111.57856c0,0 0.50567,3.93876 0.73029,7.08911c0.4448,6.23823 1.74655,27.7268 1.74655,27.7268l-2.96534,0.31174c0,0 -1.22302,-4.06948 -2.08324,-9.33636c-1.16439,-7.12919 -2.10369,-16.16309 -2.75549,-19.45294c-0.61784,-3.11847 -1.47228,-5.59383 -1.47228,-5.59383" fill="#ffffff" stroke="#000000" stroke-width="1.3" stroke-linecap="round"/><path d="" fill="#000000" stroke="none" stroke-width="0.5" stroke-linecap="butt"/><g fill="#000000" stroke="none" stroke-width="0.5" stroke-linecap="butt"><path d="M221.03197,114.74125c0.09826,0.96149 -0.60152,1.82059 -1.56301,1.91885c-0.82721,0.08454 -1.57863,-0.42163 -1.83496,-1.17696c-0.79156,-0.09823 -1.43928,-0.73173 -1.52382,-1.55894c-0.09826,-0.96149 0.60152,-1.82059 1.56301,-1.91885c0.52035,-0.05318 1.01072,0.12738 1.36672,0.45667c0.20994,0.19418 0.37315,0.44009 0.46824,0.72029c0.79156,0.09823 1.43928,0.73173 1.52382,1.55894z"/><path d="M224.39366,117.4778c-0.03691,-0.36119 0.03879,-0.70795 0.1987,-1.00535c-0.31423,-0.17819 -0.57032,-0.45162 -0.72543,-0.78539c-0.16212,0.07083 -0.33782,0.11808 -0.52326,0.13703c-0.96149,0.09826 -1.82059,-0.60152 -1.91885,-1.56301c-0.09826,-0.96149 0.60152,-1.82059 1.56301,-1.91885c0.76202,-0.07787 1.45973,0.34551 1.76534,1.00318c0.16212,-0.07083 0.33782,-0.11808 0.52326,-0.13703c0.96149,-0.09826 1.82059,0.60152 1.91885,1.56301c0.03691,0.36119 -0.03879,0.70795 -0.1987,1.00535c0.47631,0.27009 0.81903,0.75903 0.87894,1.34522c0.09826,0.96149 -0.60152,1.82059 -1.56301,1.91885c-0.96149,0.09826 -1.82059,-0.60152 -1.91885,-1.56301z"/><path d="M227.82022,120.86775c-0.09826,-0.96149 0.60152,-1.82059 1.56301,-1.91885c0.96149,-0.09826 1.82059,0.60152 1.91885,1.56301c0.09826,0.96149 -0.60152,1.82059 -1.56301,1.91885c-0.96149,0.09826 -1.82059,-0.60152 -1.91885,-1.56301z"/><path d="M246.93708,127.71434c-0.0228,-0.22308 0.10476,-0.42687 0.30062,-0.51063c-0.80293,-0.08781 -1.46349,-0.72593 -1.54893,-1.56187c-0.09826,-0.96149 0.60152,-1.82059 1.56301,-1.91885c0.96149,-0.09826 1.82059,0.60152 1.91885,1.56301c0.09755,0.95451 -0.59141,1.80812 -1.54211,1.9166c0.16285,0.06872 0.28414,0.22185 0.30338,0.41008c0.02808,0.27471 -0.17186,0.52017 -0.44658,0.54825c-0.27471,0.02808 -0.52017,-0.17186 -0.54825,-0.44658z"/><path d="M250.28342,125.39228c-0.09826,-0.96149 0.60152,-1.82059 1.56301,-1.91885c0.96149,-0.09826 1.82059,0.60152 1.91885,1.56301c0.09826,0.96149 -0.60152,1.82059 -1.56301,1.91885c-0.96149,0.09826 -1.82059,-0.60152 -1.91885,-1.56301z"/><path d="M243.64881,127.83039c-0.00854,-0.0836 0.00404,-0.16451 0.03341,-0.23739c-0.0689,0.01564 -0.13949,0.02727 -0.21155,0.03464c-0.96149,0.09826 -1.82059,-0.60152 -1.91885,-1.56301c-0.05648,-0.55261 0.15066,-1.07139 0.5196,-1.43134c-0.13742,0.0514 -0.28361,0.08623 -0.43641,0.10185c-0.96149,0.09826 -1.82059,-0.60152 -1.91885,-1.56301c-0.02589,-0.2533 0.00362,-0.49949 0.07869,-0.72654c-0.79306,-0.71995 -1.33339,-1.72393 -1.45086,-2.87337c-0.0069,-0.06748 -0.01226,-0.13475 -0.01613,-0.2018c-0.3056,0.10112 -0.62685,0.17078 -0.96032,0.20487c-0.92543,0.09457 -1.81398,-0.09835 -2.57684,-0.50646c-0.13993,0.04679 -0.28316,0.08697 -0.42935,0.12016c0.71662,0.1587 1.28347,0.76095 1.36219,1.53108c0.02383,0.23319 0.00072,0.46035 -0.06168,0.6721c0.04259,-0.00755 0.08575,-0.01359 0.12947,-0.01805c0.96149,-0.09826 1.82059,0.60152 1.91885,1.56301c0.09826,0.96149 -0.60152,1.82059 -1.56301,1.91885c-0.96149,0.09826 -1.82059,-0.60152 -1.91885,-1.56301c-0.02383,-0.23319 -0.00072,-0.46035 0.06168,-0.6721c-0.04259,0.00755 -0.08575,0.01359 -0.12947,0.01805c-0.96149,0.09826 -1.82059,-0.60152 -1.91885,-1.56301c-0.0787,-0.77015 0.3546,-1.47461 1.0243,-1.77498c-2.24166,-0.0438 -4.14939,-1.75499 -4.38312,-4.04197c-0.0605,-0.59192 -0.00336,-1.16874 0.15245,-1.70724c-1.40228,-0.35717 -2.56391,-1.37872 -3.0889,-2.7421c-0.56993,0.36069 -1.22996,0.59826 -1.94654,0.67149c-1.73629,0.17745 -3.34273,-0.65718 -4.23291,-2.02618c-0.18991,0.04493 -0.3849,0.07803 -0.58428,0.09841c-0.0348,0.00356 -0.06955,0.00671 -0.10423,0.00945c-0.72726,0.89077 -1.79389,1.50458 -3.02825,1.63073c-0.03924,0.00401 -0.0784,0.0075 -0.11751,0.01048c-0.72491,1.01908 -1.86858,1.73255 -3.21048,1.86968c-1.71864,0.17564 -2.69095,0.29729 -2.36838,0.50603c0.27369,-0.26968 0.63762,-0.45147 1.0496,-0.49357c0.96149,-0.09826 1.82059,0.60152 1.91885,1.56301c0.09826,0.96149 -0.60152,1.82059 -1.56301,1.91885c-0.41198,0.0421 -0.80516,-0.06231 -1.12774,-0.27105c-0.27369,0.26968 -0.63762,0.45147 -1.0496,0.49357c-0.71725,0.0733 -1.37753,-0.2975 -1.70749,-0.88976c-0.08554,1.11444 -0.20549,2.24501 -0.45816,3.23258c0.28257,-0.38479 0.72059,-0.65318 1.23293,-0.70553c0.32213,-0.03293 0.63276,0.02374 0.90715,0.1498c0.00781,-0.87981 0.67641,-1.63168 1.57215,-1.72323c0.96149,-0.09826 1.82059,0.60152 1.91885,1.56301c0.09826,0.96149 -0.60152,1.82059 -1.56301,1.91885c-0.32213,0.03293 -0.63276,-0.02374 -0.90715,-0.1498c-0.00456,0.5128 -0.23358,0.98213 -0.60125,1.3026c0.07202,0.16348 0.12004,0.34084 0.13917,0.52813c0.07853,0.76842 -0.35268,1.47146 -1.01982,1.77296c-0.26085,0.2224 -0.58958,0.37064 -0.9564,0.40813c-0.96149,0.09826 -1.82059,-0.60152 -1.91885,-1.56301c-0.07787,-0.76202 0.34551,-1.45973 1.00318,-1.76534c-0.07083,-0.16212 -0.11808,-0.33782 -0.13703,-0.52326c-0.00637,-0.06232 -0.00939,-0.1242 -0.0092,-0.18548c-0.48272,1.14041 -1.26249,1.92624 -2.56835,1.98681c-1.25111,0.05803 -2.51524,-0.01668 -3.75079,-0.22167c-3.32739,-0.55203 -2.63527,-6.19933 -2.86347,-8.46011c-0.45343,-4.49211 -6.31745,-12.30679 0.94589,-14.71793l0.06389,-0.44331c0.96509,-2.36049 1.29116,-4.95075 3.41875,-6.61119c3.96258,-3.09253 9.38971,-2.84055 13.73298,-5.1692c3.71915,-1.99402 6.14255,-5.81224 10.26782,-7.30325c2.48897,-0.8996 5.99024,-1.13132 7.44436,1.38802c0.27399,0.4747 0.99227,-0.46774 1.47177,-0.73325c0.97864,-0.5419 2.24244,-1.06534 3.12815,-1.69808c0.48917,-0.34945 0.82427,-0.72944 1.3884,-0.88284c3.75861,-1.02193 14.08139,-4.64667 17.02783,-3.44202c4.36901,1.78627 2.07774,7.8335 2.67919,11.00243c0.26574,1.40019 1.99788,2.53161 2.46565,3.8258c0.32423,0.89706 0.35335,2.76694 0.48661,3.53407c0.31995,1.84195 2.60911,4.26735 3.28399,6.30036c1.1076,3.33653 1.28492,13.67196 -0.63721,17.50437c-1.34157,2.67487 -2.90656,3.54307 -4.57892,3.63132c-0.25555,2.03216 -1.88321,3.69401 -4.00782,3.91115c-1.22474,0.12516 -2.38486,-0.25323 -3.27456,-0.96752c-0.63107,0.47223 -1.39435,0.78466 -2.23554,0.87063c-1.7563,0.17949 -3.37973,-0.67654 -4.2634,-2.07373c-0.7013,1.19312 -1.94171,2.04786 -3.42404,2.19936c-0.06057,0.00619 -0.12098,0.01114 -0.18122,0.0149c-0.09089,0.24293 -0.2346,0.46188 -0.41854,0.64133c0.13742,-0.0514 0.28361,-0.08623 0.43641,-0.10185c0.96149,-0.09826 1.82059,0.60152 1.91885,1.56301c0.06602,0.64596 -0.22817,1.24569 -0.7199,1.59955c0.17605,0.06274 0.30959,0.22208 0.32986,0.42039c0.02808,0.27471 -0.17186,0.52017 -0.44658,0.54825c-0.27471,0.02808 -0.52017,-0.17186 -0.54825,-0.44658z"/><path d="M214.77274,118.68106c-0.02808,-0.27471 0.17186,-0.52017 0.44658,-0.54825c0.27471,-0.02808 0.52017,0.17186 0.54825,0.44658c0.02808,0.27471 -0.17186,0.52017 -0.44658,0.54825c-0.27471,0.02808 -0.52017,-0.17186 -0.54825,-0.44658z"/><path d="M211.36054,121.88988c-0.02808,-0.27471 0.17186,-0.52017 0.44658,-0.54825c0.27471,-0.02808 0.52017,0.17186 0.54825,0.44658c0.02808,0.27471 -0.17186,0.52017 -0.44658,0.54825c-0.27471,0.02808 -0.52017,-0.17186 -0.54825,-0.44658z"/><path d="M216.06168,120.5294c-0.02605,-0.25491 0.14422,-0.48462 0.38839,-0.53884c0.00372,-0.25009 0.19424,-0.46331 0.44914,-0.48936c0.27471,-0.02808 0.52017,0.17186 0.54825,0.44658c0.02593,0.25374 -0.14266,0.48251 -0.38502,0.5381c-0.00112,0.00025 -0.00224,0.00051 -0.00337,0.00076c-0.00372,0.25009 -0.19424,0.46331 -0.44914,0.48936c-0.27471,0.02808 -0.52017,-0.17186 -0.54825,-0.44658z"/><path d="M218.60294,117.40958c-0.02808,-0.27471 0.17186,-0.52017 0.44658,-0.54825c0.27471,-0.02808 0.52017,0.17186 0.54825,0.44658c0.02808,0.27471 -0.17186,0.52017 -0.44658,0.54825c-0.27471,0.02808 -0.52017,-0.17186 -0.54825,-0.44658z"/><path d="M220.15412,119.67115c-0.02808,-0.27471 0.17186,-0.52017 0.44658,-0.54825c0.18745,-0.01916 0.36128,0.06785 0.46172,0.21233c0.06913,-0.16182 0.22177,-0.28219 0.40923,-0.30135c0.27471,-0.02808 0.52017,0.17186 0.54825,0.44658c0.02808,0.27471 -0.17186,0.52017 -0.44658,0.54825c-0.18745,0.01916 -0.36128,-0.06785 -0.46172,-0.21233c-0.06913,0.16182 -0.22177,0.28219 -0.40923,0.30135c-0.27471,0.02808 -0.52017,-0.17186 -0.54825,-0.44658z"/><path d="M213.87476,116.35273c-0.02808,-0.27471 0.17186,-0.52017 0.44658,-0.54825c0.27471,-0.02808 0.52017,0.17186 0.54825,0.44658c0.02808,0.27471 -0.17186,0.52017 -0.44658,0.54825c-0.27471,0.02808 -0.52017,-0.17186 -0.54825,-0.44658z"/><path d="M221.34926,118.44897c-0.02808,-0.27471 0.17186,-0.52017 0.44658,-0.54825c0.27471,-0.02808 0.52017,0.17186 0.54825,0.44658c0.02808,0.27471 -0.17186,0.52017 -0.44658,0.54825c-0.27471,0.02808 -0.52017,-0.17186 -0.54825,-0.44658z"/><path d="M224.35782,119.90155c-0.02808,-0.27471 0.17186,-0.52017 0.44658,-0.54825c0.27471,-0.02808 0.52017,0.17186 0.54825,0.44658c0.02808,0.27471 -0.17186,0.52017 -0.44658,0.54825c-0.27471,0.02808 -0.52017,-0.17186 -0.54825,-0.44658z"/><path d="M224.07812,121.47019c-0.0175,-0.17126 0.05361,-0.33114 0.17621,-0.43409c-0.00117,-0.00781 -0.00217,-0.01569 -0.00298,-0.02364c-0.02808,-0.27471 0.17186,-0.52017 0.44658,-0.54825c0.27471,-0.02808 0.52017,0.17186 0.54825,0.44658c0.0175,0.17126 -0.05361,0.33114 -0.17621,0.43409c0.00117,0.00781 0.00217,0.01569 0.00298,0.02364c0.02808,0.27471 -0.17186,0.52017 -0.44658,0.54825c-0.27471,0.02808 -0.52017,-0.17186 -0.54825,-0.44658z"/><path d="M222.67791,118.53317c-0.02808,-0.27471 0.17186,-0.52017 0.44658,-0.54825c0.27471,-0.02808 0.52017,0.17186 0.54825,0.44658c0.02808,0.27471 -0.17186,0.52017 -0.44658,0.54825c-0.27471,0.02808 -0.52017,-0.17186 -0.54825,-0.44658z"/><path d="M213.47112,121.01416c-0.02808,-0.27471 0.17186,-0.52017 0.44658,-0.54825c0.27471,-0.02808 0.52017,0.17186 0.54825,0.44658c0.02808,0.27471 -0.17186,0.52017 -0.44658,0.54825c-0.27471,0.02808 -0.52017,-0.17186 -0.54825,-0.44658z"/><path d="M217.78607,122.33324c-0.02808,-0.27471 0.17186,-0.52017 0.44658,-0.54825c0.27471,-0.02808 0.52017,0.17186 0.54825,0.44658c0.02808,0.27471 -0.17186,0.52017 -0.44658,0.54825c-0.27471,0.02808 -0.52017,-0.17186 -0.54825,-0.44658z"/><path d="M211.53855,123.63176c-0.02808,-0.27471 0.17186,-0.52017 0.44658,-0.54825c0.27471,-0.02808 0.52017,0.17186 0.54825,0.44658c0.02808,0.27471 -0.17186,0.52017 -0.44658,0.54825c-0.27471,0.02808 -0.52017,-0.17186 -0.54825,-0.44658z"/><path d="M209.23249,124.74746c-0.02808,-0.27471 0.17186,-0.52017 0.44658,-0.54825c0.27471,-0.02808 0.52017,0.17186 0.54825,0.44658c0.02808,0.27471 -0.17186,0.52017 -0.44658,0.54825c-0.27471,0.02808 -0.52017,-0.17186 -0.54825,-0.44658z"/><path d="M215.0223,123.27572c-0.02808,-0.27471 0.17186,-0.52017 0.44658,-0.54825c0.27471,-0.02808 0.52017,0.17186 0.54825,0.44658c0.02808,0.27471 -0.17186,0.52017 -0.44658,0.54825c-0.27471,0.02808 -0.52017,-0.17186 -0.54825,-0.44658z"/><path d="M218.21677,120.08914c-0.02808,-0.27471 0.17186,-0.52017 0.44658,-0.54825c0.27471,-0.02808 0.52017,0.17186 0.54825,0.44658c0.02808,0.27471 -0.17186,0.52017 -0.44658,0.54825c-0.27471,0.02808 -0.52017,-0.17186 -0.54825,-0.44658z"/><path d="M219.89666,121.45751c-0.02808,-0.27471 0.17186,-0.52017 0.44658,-0.54825c0.27471,-0.02808 0.52017,0.17186 0.54825,0.44658c0.02808,0.27471 -0.17186,0.52017 -0.44658,0.54825c-0.27471,0.02808 -0.52017,-0.17186 -0.54825,-0.44658z"/><path d="M221.63854,121.2795c-0.02808,-0.27471 0.17186,-0.52017 0.44658,-0.54825c0.27471,-0.02808 0.52017,0.17186 0.54825,0.44658c0.02808,0.27471 -0.17186,0.52017 -0.44658,0.54825c-0.27471,0.02808 -0.52017,-0.17186 -0.54825,-0.44658z"/><path d="M227.50299,114.07992c-0.02808,-0.27471 0.17186,-0.52017 0.44658,-0.54825c0.27471,-0.02808 0.52017,0.17186 0.54825,0.44658c0.02808,0.27471 -0.17186,0.52017 -0.44658,0.54825c-0.27471,0.02808 -0.52017,-0.17186 -0.54825,-0.44658z"/><path d="M228.22774,116.86595c-0.02808,-0.27471 0.17186,-0.52017 0.44658,-0.54825c0.27471,-0.02808 0.52017,0.17186 0.54825,0.44658c0.02808,0.27471 -0.17186,0.52017 -0.44658,0.54825c-0.27471,0.02808 -0.52017,-0.17186 -0.54825,-0.44658z"/><path d="M226.62416,120.54996c-0.02808,-0.27471 0.17186,-0.52017 0.44658,-0.54825c0.27471,-0.02808 0.52017,0.17186 0.54825,0.44658c0.02808,0.27471 -0.17186,0.52017 -0.44658,0.54825c-0.27471,0.02808 -0.52017,-0.17186 -0.54825,-0.44658z"/><path d="M238.04491,124.66296c-0.02808,-0.27471 0.17186,-0.52017 0.44658,-0.54825c0.27471,-0.02808 0.52017,0.17186 0.54825,0.44658c0.02808,0.27471 -0.17186,0.52017 -0.44658,0.54825c-0.27471,0.02808 -0.52017,-0.17186 -0.54825,-0.44658z"/><path d="M237.03568,121.24599c-0.02808,-0.27471 0.17186,-0.52017 0.44658,-0.54825c0.27471,-0.02808 0.52017,0.17186 0.54825,0.44658c0.02808,0.27471 -0.17186,0.52017 -0.44658,0.54825c-0.27471,0.02808 -0.52017,-0.17186 -0.54825,-0.44658z"/><path d="M229.44202,124.44213c-0.02808,-0.27471 0.17186,-0.52017 0.44658,-0.54825c0.27471,-0.02808 0.52017,0.17186 0.54825,0.44658c0.02808,0.27471 -0.17186,0.52017 -0.44658,0.54825c-0.27471,0.02808 -0.52017,-0.17186 -0.54825,-0.44658z"/><path d="M226.28249,123.665c-0.02808,-0.27471 0.17186,-0.52017 0.44658,-0.54825c0.27471,-0.02808 0.52017,0.17186 0.54825,0.44658c0.02808,0.27471 -0.17186,0.52017 -0.44658,0.54825c-0.27471,0.02808 -0.52017,-0.17186 -0.54825,-0.44658z"/><path d="M230.50845,124.11314c-0.02808,-0.27471 0.17186,-0.52017 0.44658,-0.54825c0.27471,-0.02808 0.52017,0.17186 0.54825,0.44658c0.02808,0.27471 -0.17186,0.52017 -0.44658,0.54825c-0.27471,0.02808 -0.52017,-0.17186 -0.54825,-0.44658z"/><path d="M232.09934,124.61057c-0.02808,-0.27471 0.17186,-0.52017 0.44658,-0.54825c0.27471,-0.02808 0.52017,0.17186 0.54825,0.44658c0.02808,0.27471 -0.17186,0.52017 -0.44658,0.54825c-0.27471,0.02808 -0.52017,-0.17186 -0.54825,-0.44658z"/><path d="M234.60568,125.45447c-0.02808,-0.27471 0.17186,-0.52017 0.44658,-0.54825c0.27471,-0.02808 0.52017,0.17186 0.54825,0.44658c0.02808,0.27471 -0.17186,0.52017 -0.44658,0.54825c-0.27471,0.02808 -0.52017,-0.17186 -0.54825,-0.44658z"/><path d="M236.48106,126.58286c-0.02808,-0.27471 0.17186,-0.52017 0.44658,-0.54825c0.27471,-0.02808 0.52017,0.17186 0.54825,0.44658c0.02808,0.27471 -0.17186,0.52017 -0.44658,0.54825c-0.27471,0.02808 -0.52017,-0.17186 -0.54825,-0.44658z"/><path d="M240.31606,127.51098c-0.02808,-0.27471 0.17186,-0.52017 0.44658,-0.54825c0.27471,-0.02808 0.52017,0.17186 0.54825,0.44658c0.02808,0.27471 -0.17186,0.52017 -0.44658,0.54825c-0.27471,0.02808 -0.52017,-0.17186 -0.54825,-0.44658z"/><path d="M244.95521,127.69688c-0.02808,-0.27471 0.17186,-0.52017 0.44658,-0.54825c0.27471,-0.02808 0.52017,0.17186 0.54825,0.44658c0.02808,0.27471 -0.17186,0.52017 -0.44658,0.54825c-0.27471,0.02808 -0.52017,-0.17186 -0.54825,-0.44658z"/><path d="M250.0076,127.62053c-0.02808,-0.27471 0.17186,-0.52017 0.44658,-0.54825c0.27471,-0.02808 0.52017,0.17186 0.54825,0.44658c0.02808,0.27471 -0.17186,0.52017 -0.44658,0.54825c-0.27471,0.02808 -0.52017,-0.17186 -0.54825,-0.44658z"/><path d="M251.35849,127.9225c-0.02808,-0.27471 0.17186,-0.52017 0.44658,-0.54825c0.27471,-0.02808 0.52017,0.17186 0.54825,0.44658c0.02808,0.27471 -0.17186,0.52017 -0.44658,0.54825c-0.27471,0.02808 -0.52017,-0.17186 -0.54825,-0.44658z"/><path d="M255.05998,127.54421c-0.02808,-0.27471 0.17186,-0.52017 0.44658,-0.54825c0.27471,-0.02808 0.52017,0.17186 0.54825,0.44658c0.02808,0.27471 -0.17186,0.52017 -0.44658,0.54825c-0.27471,0.02808 -0.52017,-0.17186 -0.54825,-0.44658z"/></g><path d="M208.93641,114.48098c-0.42679,-4.87374 3.90474,-9.3817 9.25785,-9.85049c5.3531,-0.46878 9.4124,3.30859 9.8392,8.18234c0.42679,4.87374 -3.20803,9.16806 -8.56114,9.63684c-5.3531,0.46878 -10.10911,-3.09495 -10.53591,-7.9687z" fill="#ffffff" stroke="#000000" stroke-width="1.4" stroke-linecap="butt"/><path d="M213.61174,114.12173c-0.24067,-2.7482 1.79209,-5.17112 4.54027,-5.41179c2.7482,-0.24067 5.17112,1.79209 5.41179,4.54027c0.24067,2.7482 -1.79208,5.17112 -4.54027,5.41179c-2.7482,0.24067 -5.17112,-1.79209 -5.41179,-4.54027z" fill="#000000" stroke="none" stroke-width="1.5" stroke-linecap="butt"/><path d="M235.85256,111.73092c-0.29451,-4.88354 3.52893,-9.26526 8.81922,-9.80593c5.29028,-0.54067 9.6297,3.00258 10.12711,7.86963c0.49741,4.86705 -2.94346,9.41911 -8.71993,10.08067c-5.49446,0.62927 -9.91882,-3.04425 -10.2264,-8.14437z" fill="#000000" stroke="#ffffff" stroke-width="1.4" stroke-linecap="butt"/><path d="M240.35724,111.35653c-0.28655,-2.80385 1.75411,-5.3091 4.55796,-5.59565c2.80385,-0.28655 5.3091,1.75411 5.59565,4.55796c0.28655,2.80385 -1.7541,5.3091 -4.55796,5.59565c-2.80385,0.28655 -5.3091,-1.75411 -5.59565,-4.55796z" fill="#ffffff" stroke="none" stroke-width="1.5" stroke-linecap="butt"/><path d="M218.20999,104.9626c5.3531,-0.46878 9.4124,3.30859 9.8392,8.18234c0.07091,0.80987 0.0297,1.60375 -0.11294,2.36673c-0.28567,0.0128 -0.57466,0.01924 -0.86838,0.01567c-1.37088,-0.01668 -1.97005,-1.47161 -3.37003,-0.31912c-1.38236,1.14056 -1.54565,-0.63571 -2.90069,-1.34064c-0.58536,-0.30452 -2.88771,0.60141 -3.24942,1.04545c-1.26218,1.04724 -1.01046,-0.82402 -1.84141,-1.35624c-0.35208,-0.22551 -3.47475,-0.19226 -3.60109,-0.06513c-0.31401,0.39439 -1.92379,0.10964 -3.11156,-0.38243c0.56806,-4.17745 4.49483,-7.73317 9.21633,-8.14664z" fill="#000000" stroke="#ffffff" stroke-width="1.4" stroke-linecap="butt"/><path d="M218.16775,109.04205c2.7482,-0.24067 5.17112,1.79209 5.41179,4.54027c0.05915,0.67546 -0.01904,1.33129 -0.21143,1.93988c-0.47123,0.13905 -0.82515,-0.28502 -1.30491,-0.93714c-0.42268,-0.57455 -0.89876,-1.44312 -2.26088,-0.6158c-0.58536,-0.30452 -2.22451,0.53363 -2.58622,0.97767c-1.26218,1.04724 -0.83618,-0.75806 -1.66713,-1.29028c-0.20577,-0.1318 -0.95191,-0.30047 -1.89917,-0.28842c0.29615,-2.27429 2.13899,-4.11786 4.51794,-4.32619z" fill="#ffffff" stroke="none" stroke-width="1.5" stroke-linecap="butt"/><path d="M155.15523,141.6883c-0.21441,0.92054 -0.48416,4.05989 -1.46306,4.43164c-1.00862,0.38304 -1.66677,-0.81518 -1.62118,-1.58973c0.08733,-1.48371 1.18638,-3.55469 2.40219,-4.31983c0,0 0.42745,-0.25939 0.68684,0.16806c0.17282,0.28479 0.04076,0.49499 -0.06664,0.60356c0.01071,0.03618 0.01738,0.07378 0.01962,0.11215l0.04211,0.5138l-0.03119,0.00255z" fill="#000000" stroke="none" stroke-width="0.5" stroke-linecap="butt"/><path d="M170.28799,173.57934c-0.14159,0.93451 -0.1644,4.08535 -1.11115,4.53269c-0.97549,0.46093 -1.72555,-0.682 -1.74082,-1.45775c-0.02925,-1.48599 0.90406,-3.63675 2.05616,-4.49485c0,0 0.4058,-0.29211 0.69791,0.1137c0.19462,0.27037 0.07944,0.49027 -0.01912,0.60693c0.01351,0.03522 0.02311,0.07219 0.02836,0.11027l0.08226,0.50891l-0.0309,0.00499z" fill="#000000" stroke="none" stroke-width="0.5" stroke-linecap="butt"/></g></g></svg>