<svg version="1.1" xmlns="http://www.w3.org/2000/svg" xmlns:xlink="http://www.w3.org/1999/xlink" width="35.67311" height="35.67311" viewBox="0,0,35.67311,35.67311"><g transform="translate(-222.16348,-162.1635)"><g data-paper-data="{&quot;isPaintingLayer&quot;:true}" stroke-miterlimit="10" stroke-dasharray="" stroke-dashoffset="0" style="mix-blend-mode: normal"><path d="M229.98315,162.9135h20.03378c3.9166,0 7.06966,3.15307 7.06966,7.06966v20.03379c0,3.91659 -3.15306,7.06966 -7.06966,7.06966h-20.03378c-3.91659,0 -7.06967,-3.15307 -7.06967,-7.06966v-20.03379c0,-3.91659 3.15308,-7.06966 7.06967,-7.06966z" fill="#ffffff" fill-rule="evenodd" stroke="#000000" stroke-width="1.5" stroke-linecap="round" stroke-linejoin="round"/><g fill="#000000" fill-rule="nonzero" stroke-linecap="butt" stroke-linejoin="miter"><path d="M241.87891,173.80019c-0.43467,4.21686 0.94941,5.30097 -2.49906,4.99867c-3.44846,-0.30231 -3.12162,-2.22557 -2.68695,-6.44243c0.43467,-4.21686 -0.14324,-5.69595 3.30523,-5.39364c3.44846,0.30231 2.31546,2.62054 1.88079,6.8374z" stroke="#000000" stroke-width="0"/><path d="M250.35632,179.94757c0.88824,6.46865 -2.66431,12.36587 -7.93485,13.17181c-5.27054,0.80594 -10.26323,-3.78461 -11.15147,-10.25326c-0.88824,-6.46865 1.24801,-10.94958 6.51855,-11.75551c5.27054,-0.80594 11.67952,2.36831 12.56776,8.83696z" stroke="#000000" stroke-width="0"/><path d="M236.86665,170.59073c2.92074,3.07249 4.64438,2.72607 2.17215,5.14916c-2.47224,2.42309 -3.72072,0.92407 -6.64146,-2.14841c-2.92074,-3.07249 -4.42017,-3.59534 -1.94793,-6.01843c2.47224,-2.42309 3.49651,-0.0548 6.41725,3.01769z" stroke="#000000" stroke-width="0"/><path d="M234.92901,175.15711c4.06732,1.19489 5.38524,0.03125 4.46034,3.3671c-0.9249,3.33585 -2.75655,2.66442 -6.82387,1.46953c-4.06732,-1.19489 -5.62688,-0.89584 -4.70199,-4.23169c0.9249,-3.33585 2.99819,-1.79983 7.06551,-0.60493z" stroke="#000000" stroke-width="0"/><path d="M252.0997,183.67315c-1.21912,6.46105 -6.19651,10.73946 -11.1173,9.55608c-4.92079,-1.18338 -7.92158,-7.38041 -6.70247,-13.84146c1.21912,-6.46105 6.55057,-8.96909 11.47137,-7.78571c4.92079,1.18338 7.56751,5.61004 6.34839,12.0711z" stroke="#ffffff" stroke-width="1"/></g></g></g></svg>