<svg version="1.1" xmlns="http://www.w3.org/2000/svg" xmlns:xlink="http://www.w3.org/1999/xlink" width="188.48835" height="247.75809" viewBox="0,0,188.48835,247.75809"><g transform="translate(-173.38583,-57.7418)"><g data-paper-data="{&quot;isPaintingLayer&quot;:true}" fill-rule="nonzero" stroke-linejoin="miter" stroke-miterlimit="10" stroke-dasharray="" stroke-dashoffset="0" style="mix-blend-mode: normal"><path d="M287.95995,153.97093c0,0 -1.20827,-0.07321 -2.50286,-0.38271c-2.04235,-0.48827 -3.35821,-1.387 -3.35821,-1.387c0,0 -0.76056,5.3955 0.33762,11.17791c1.16315,6.12438 5.52476,11.98969 5.52476,11.98969c0,0 -1.90598,-0.30339 -4.13748,-1.25351c-2.13872,-0.91059 -4.16508,-2.36139 -4.16508,-2.36139c0,0 -2.37475,4.50093 -0.83953,6.62159c1.72358,2.38085 3.10011,15.63273 3.10011,15.63273c0,0 -1.56012,-9.28652 -5.81395,-11.1343c-3.39474,-1.47461 -1.95312,-6.96931 -1.95312,-6.96931c0,0 -1.32183,4.43733 -5.48247,11.47752c-3.49082,5.90679 -8.13721,8.44569 -8.13721,8.44569l0.33,-2.63716c0,0 -12.01813,8.49804 -29.16808,5.7948c-18.164,-2.98907 -23.69511,-15.12563 -23.69511,-15.12563l-0.72709,3.63346c0,0 -2.11162,-2.16903 -3.11169,-3.49337c-1.00004,-1.32436 -1.69876,-3.67554 -1.69876,-3.67554c0,0 1.82469,-12.20113 -1.19482,-12.53146c-3.22622,-0.35293 -17.58354,10.47717 -17.58354,10.47717c0,0 3.26435,-10.39612 8.37224,-17.46547c5.61255,-7.76783 8.96873,-16.82841 8.96873,-16.82841c0,0 -3.06767,1.63987 -4.52348,2.41105c-1.56088,0.82684 -4.81337,2.34892 -4.81337,2.34892c0,0 4.20472,-7.41176 9.42062,-16.03053c3.80402,-6.28579 4.07926,-43.03764 50.75057,-34.04848c37.67042,7.92858 30.68964,45.18659 30.65619,47.48508c-0.01275,0.87636 5.44498,7.8287 5.44498,7.8287z" data-paper-data="{&quot;index&quot;:null}" fill="#000000" stroke="none" stroke-width="1.5" stroke-linecap="butt"/><path d="M200.2371,186.37961c-0.05451,-8.15261 8.18688,-36.76129 40.20201,-36.9211c13.72075,-0.06849 28.46501,8.55021 39.34305,27.09597c4.67459,7.96962 7.23015,18.43389 10.56667,27.2055c6.78226,17.83041 11.09341,49.83174 11.09341,49.83174l-2.99667,15.59614c0,0 -5.64637,-4.3747 -9.50265,-13.86384c-9.72691,-23.93494 -19.40165,-68.84414 -21.47242,-68.88342c-3.43441,-0.06514 -2.7399,117.98557 -2.7399,117.98557l-48.21366,0.07222c0,0 -0.0259,-118.15209 -3.19099,-118.16752c-3.11083,-0.01515 -12.93086,23.67688 -13.08885,0.04874z" fill="#000000" stroke="#000000" stroke-width="2" stroke-linecap="butt"/><g stroke="none" stroke-width="0" stroke-linecap="butt"><g fill="#5a5a5a"><g><path d="M209.66364,197.16105c0,-10.5134 7.79074,-19.03619 17.40111,-19.03619c9.61037,0 29.25852,8.52279 29.25852,19.03619c0,10.5134 -19.64815,19.03619 -29.25852,19.03619c-9.61037,0 -17.40111,-8.5228 -17.40111,-19.03619z"/><path d="M254.5853,216.31749c-9.61038,0 -29.25852,-8.52279 -29.25852,-19.03619c0,-10.5134 19.64815,-19.0362 29.25852,-19.0362c9.61038,0 17.40112,8.5228 17.40112,19.0362c0,10.5134 -7.79075,19.03619 -17.40112,19.03619z" data-paper-data="{&quot;index&quot;:null}"/></g><path d="M209.80374,197.34132c0,0 -0.3709,-2.61945 0.11388,-4.91271c1.13225,-5.35615 7.74548,-26.79895 7.74548,-26.79895h47.61844c0,0 4.92103,20.9045 6.343,26.47807c0.68293,2.6768 0.59173,5.94356 0.59173,5.94356z"/></g><g fill="#3f3f3f"><g><path d="M256.52477,197.36254c0,10.5134 -19.64815,19.03619 -29.25852,19.03619c-9.06328,0 -16.50821,-7.58006 -17.32647,-17.26126c0.68033,-0.01074 12.81701,1.71413 24.65994,1.23208c11.07317,-0.45072 21.92505,-3.11479 21.92505,-3.00701z"/><path d="M254.78679,216.51898c-8.86312,0 -25.98147,-4.42629 -28.63385,-13.80031c6.87938,0.54674 13.51869,-1.88573 20.02075,-3.33063c6.71,-1.49111 23.12288,-7.02069 24.99004,-8.35496c0.66291,2.01411 1.02418,4.18576 1.02418,6.44971c0,10.5134 -7.79075,19.03619 -17.40112,19.03619z" data-paper-data="{&quot;index&quot;:null}"/></g><path d="M271.82602,192.30922c0.68293,2.6768 0.59173,5.94356 0.59173,5.94356l-20.64443,-0.23484c4.69135,-1.24508 17.73755,-5.75793 19.67993,-7.19539c0.14137,0.57072 0.26679,1.07128 0.37277,1.48668z"/></g></g><g stroke="none" stroke-width="0" stroke-linecap="butt"><path d="" fill="#3f3f3f"/><path d="" fill="#2a2a2a"/></g><g data-paper-data="{&quot;index&quot;:null}" stroke="none" stroke-width="0" stroke-linecap="butt"><path d="" fill="#3f3f3f"/><path d="" fill="#2a2a2a"/></g><g><g stroke="none" stroke-linecap="butt"><path d="M196.6702,232.05978c18.21882,-15.32181 47.97175,-37.69522 74.7153,-45.7357c9.28088,-2.7903 -19.60153,31.08018 -11.8276,45.84548c1.70008,8.19489 37.81779,-0.25476 38.88686,2.80596c2.39142,6.84657 -11.31766,16.22125 -19.64043,22.43199c-4.36741,3.25912 -10.85782,6.74105 -18.12068,10.1255c-0.34032,0.15859 -16.09125,-3.37483 -30.10484,-11.05563c-17.66726,-9.68336 -34.35844,-24.03932 -33.90862,-24.41761z" fill="#5a2042" stroke-width="NaN"/><path d="M173.4706,252.27889c-1.94806,-5.94228 30.24241,-25.40729 38.37066,-32.10572c0.05511,-0.04541 8.38714,26.37198 26.89962,33.66056c19.63677,7.73121 40.22448,3.45361 40.06345,3.57377c-10.98436,8.19691 -57.64313,31.5965 -68.24162,32.36311c-12.45452,0.90087 7.19204,-23.01162 3.40867,-27.6736c-1.35366,-2.09253 -38.42658,-3.49105 -40.50079,-9.81812z" fill="#3f162e" stroke-width="NaN"/></g><path d="M229.50019,238.34092l120.74172,-81.67936l-9.56068,26.50159l-101.88332,68.92203z" fill="#000000" stroke="none" stroke-width="0" stroke-linecap="butt"/><path d="M327.29822,167.64094c2.29694,-4.7869 30.81279,-24.47134 34.31603,-19.29272c2.10647,3.11386 -8.92525,30.9433 -20.96416,39.08738c-7.21003,4.87744 -16.54812,-13.13355 -13.35187,-19.79466z" data-paper-data="{&quot;index&quot;:null}" fill="#8a3065" stroke="none" stroke-width="0" stroke-linecap="butt"/><path d="M231.51673,239.77221l124.3376,-84.11191" fill="none" stroke="#ffffff" stroke-width="1.5" stroke-linecap="round"/><path d="M353.3819,161.99192l-120.502,81.5172" fill="none" stroke="#ffffff" stroke-width="1.5" stroke-linecap="round"/><path d="M235.15027,246.86528l115.06822,-77.84136" fill="none" stroke="#ffffff" stroke-width="1.5" stroke-linecap="round"/><path d="M347.05509,176.05591l-110.59334,74.8142" fill="none" stroke="#ffffff" stroke-width="1.5" stroke-linecap="round"/><path d="M226.58077,239.15108l3.73585,-2.52722l10.29236,15.21459l-3.73584,2.52722z" fill="#3f3f3f" stroke="none" stroke-width="0" stroke-linecap="butt"/><path d="M354.82742,153.87792c0.92678,-0.62695 2.18632,-0.38389 2.81326,0.54289c0.62694,0.92678 0.38389,2.18632 -0.54289,2.81326c-0.92678,0.62695 -2.18632,0.38389 -2.81327,-0.54289c-0.62694,-0.92678 -0.38389,-2.18632 0.54289,-2.81326z" fill="#000000" stroke="none" stroke-width="0.5" stroke-linecap="butt"/><path d="M352.37379,160.35212c0.92678,-0.62695 2.18632,-0.3839 2.81327,0.54288c0.62694,0.92678 0.38389,2.18633 -0.54289,2.81327c-0.92678,0.62695 -2.18632,0.38388 -2.81327,-0.5429c-0.62694,-0.92678 -0.38389,-2.18631 0.54289,-2.81326z" fill="#000000" stroke="none" stroke-width="0.5" stroke-linecap="butt"/><path d="M349.21195,167.61601c0.92678,-0.62695 2.18632,-0.38388 2.81327,0.5429c0.62694,0.92678 0.38388,2.18631 -0.5429,2.81326c-0.92678,0.62695 -2.18631,0.38389 -2.81326,-0.54289c-0.62694,-0.92678 -0.38389,-2.18632 0.54289,-2.81327z" fill="#000000" stroke="none" stroke-width="0.5" stroke-linecap="butt"/><path d="M345.86836,174.38164c0.92678,-0.62695 2.18632,-0.38389 2.81327,0.54289c0.62694,0.92678 0.38389,2.18632 -0.54289,2.81327c-0.92678,0.62695 -2.18632,0.38389 -2.81327,-0.54289c-0.62694,-0.92678 -0.38389,-2.18632 0.54289,-2.81327z" fill="#000000" stroke="none" stroke-width="0.5" stroke-linecap="butt"/></g><path d="M201.78123,239.95076c-7.21952,-7.95186 -3.74037,-41.80149 -1.61001,-55.83628c0.62471,-4.11554 1.49903,-4.69921 1.49903,-4.69921l11.04073,6.07589c0,0 -1.61795,42.11222 5.8365,50.13637c0.17713,0.19067 -14.60148,6.70759 -16.76624,4.32324z" fill="#000000" stroke="#000000" stroke-width="2" stroke-linecap="butt"/><g stroke="none" stroke-width="0" stroke-linecap="butt"><g><path d="M209.78574,180.88743c0,-8.27363 13.62398,-14.98072 30.43001,-14.98072c16.80603,0 30.43002,6.70709 30.43002,14.98072c0,8.27363 -30.43002,33.0044 -30.43002,33.0044c0,0 -30.43001,-24.73077 -30.43001,-33.0044z" fill="#5a2042"/><path d="M209.51591,173.06477c0,-8.27363 13.62398,-14.98072 30.43001,-14.98072c16.80603,0 30.43002,6.7071 30.43002,14.98072c0,8.27363 -30.43002,33.0044 -30.43002,33.0044c0,0 -30.43001,-24.73077 -30.43001,-33.0044z" fill="#732854"/><path d="M209.62408,167.21798c0,-8.27363 13.62399,-14.98072 30.43002,-14.98072c16.80603,0 30.43001,6.70709 30.43001,14.98072c0,8.27363 -30.43001,33.0044 -30.43001,33.0044c0,0 -30.43002,-24.73077 -30.43002,-33.0044z" fill="#8a3065"/><path d="M209.35425,161.08891c0,-8.27363 13.62399,-14.98072 30.43002,-14.98072c16.80603,0 30.43001,6.7071 30.43001,14.98072c0,8.27363 -30.43001,33.0044 -30.43001,33.0044c0,0 -30.43002,-24.73077 -30.43002,-33.0044z" fill="#9e3874"/></g><path d="M259.73314,156.97541c0,3.66343 -9.06639,4.09285 -20.25034,4.09285c-11.18395,0 -20.25035,-0.42942 -20.25035,-4.09285c0,-3.66343 9.06639,-9.17363 20.25035,-9.17363c11.18395,0 20.25034,5.51019 20.25034,9.17363z" fill="#000000"/></g><path d="M252.99422,58.12802c25.95858,3.93883 34.63377,22.70076 35.594,41.41379c0.67256,13.10696 -3.54176,28.61693 -3.54176,28.61693l-1.90127,-10.72227c0,0 1.28455,10.72326 -2.23089,20.61611c-3.15334,9.07668 -10.12341,15.73182 -10.12341,15.73182l-0.7388,-2.50973c0,0 -1.38187,1.99179 -2.69582,2.91642c-1.31396,0.92462 -3.88435,2.28489 -3.88435,2.28489l0.53981,-3.66582c0,0 -8.83253,9.65539 -25.84583,6.56793c-16.02479,-3.02737 -23.87391,-14.95728 -23.87391,-14.95728l-0.56641,2.59632c0,0 -3.27743,-3.90767 -4.43883,-10.61808c-1.38424,-7.99802 -1.10816,-12.61598 -1.10816,-12.61598c0,0 -2.62821,1.47328 -6.10586,1.76076c-4.3577,0.36022 -6.90405,-0.84223 -6.90405,-0.84223c0,0 4.01782,-2.06337 6.3144,-3.74979c2.04561,-1.50212 3.18282,-2.87743 3.18282,-2.87743c0,0 -2.26147,0.71012 -4.44641,0.87384c-2.27974,0.17083 -4.06164,-0.16281 -4.06164,-0.16281c0,0 5.75976,-4.11694 8.77915,-9.51883c2.85078,-5.10025 3.93421,-10.43999 3.93421,-10.43999l-3.20987,4.44722c0,0 1.15404,-4.36735 2.58047,-7.42029c0.71101,-1.52177 8.9058,-42.49625 44.75237,-37.72551z" fill="#000000" stroke="none" stroke-width="1.5" stroke-linecap="butt"/><path d="M222.25968,112.89853c0.90259,-4.80842 6.28883,-7.9821 11.57019,-6.99076c5.28135,0.99136 8.17234,5.723 7.26977,10.53144c-0.90259,4.80842 -5.56032,7.96415 -10.84167,6.97281c-5.28135,-0.99136 -8.90086,-5.70505 -7.99827,-10.51348z" fill="#ffffff" stroke="#000000" stroke-width="1.4" stroke-linecap="butt"/><path d="M229.27915,114.4368c0.50894,-2.71137 3.11951,-4.49675 5.83085,-3.98781c2.71136,0.50894 4.49675,3.1195 3.98781,5.83085c-0.50894,2.71137 -3.11949,4.49676 -5.83086,3.98782c-2.71136,-0.50894 -4.49676,-3.11951 -3.98782,-5.83086z" fill="none" stroke="#000000" stroke-width="1.5" stroke-linecap="butt"/><path d="M248.92099,117.50476c1.03261,-4.78219 5.89554,-7.97126 11.13577,-7.06607c5.24022,0.9052 8.46408,5.48689 7.6313,10.30789c-0.83278,4.82101 -5.37321,8.27721 -11.11421,7.35741c-5.46074,-0.8749 -8.73127,-5.60494 -7.65286,-10.59922z" fill="#ffffff" stroke="#000000" stroke-width="1.4" stroke-linecap="butt"/><path d="M256.10866,119.03919c0.47975,-2.77732 3.12013,-4.63985 5.89744,-4.16011c2.77731,0.47975 4.63985,3.12013 4.1601,5.89745c-0.47975,2.77732 -3.12011,4.63986 -5.89744,4.1601c-2.77732,-0.47975 -4.63986,-3.12013 -4.16011,-5.89744z" fill="none" stroke="#000000" stroke-width="1.5" stroke-linecap="butt"/><path d="M232.06455,105.7999c9.30457,1.77558 9.98166,10.56744 9.98166,10.56744l-16.77946,-3.4283c0,0 -3.55357,-9.12028 6.79781,-7.13914z" fill="#000000" stroke="#000000" stroke-width="1.15" stroke-linecap="butt"/><path d="M248.61728,117.04433c0,0 1.3667,-9.3622 12.58424,-7.06422c2.37023,0.49372 4.87419,2.23183 5.6277,5.02747c0.58772,2.18051 -1.31484,5.17434 -1.31484,5.17434z" fill="#000000" stroke="#000000" stroke-width="1.15" stroke-linecap="butt"/><g fill="#000000" stroke="#000000" stroke-linecap="butt"><path d="M259.62039,220.62567c-1.36743,0.97001 -7.02194,4.15109 -8.7847,3.9631c-3.2975,-0.35168 -5.46259,-0.45694 -8.05723,-4.11464c-2.53174,-3.56903 -2.28499,-6.14923 -1.62499,-9.34287c0.37798,-1.82899 5.26642,-6.20369 6.69588,-7.21769c3.92544,-2.78456 6.99909,-1.47804 10.98076,4.13497c3.98166,5.613 4.71572,9.79257 0.79028,12.57712z" stroke-width="0"/><path d="M254.1303,222.41535c0,0 -40.00373,24.85678 -52.00839,17.54573c-2.20203,-1.34108 5.86055,-16.05563 8.31069,-14.60162c10.33726,6.13451 33.06679,-15.64484 33.06679,-15.64484z" stroke-width="2"/></g><g fill="#000000" stroke="#000000" stroke-width="0" stroke-linecap="butt"><path d="M299.4208,270.82852c-3.17893,-0.49079 -8.27563,-12.41716 -8.09429,-18.48204c0.14559,-4.8691 5.16411,-3.1347 6.21954,-9.97083c1.20597,-7.81124 6.68533,-16.56185 8.91773,-27.94975c1.04598,-5.33571 -4.26874,-16.94579 -4.26874,-16.94579c0,0 17.06644,-4.35181 18.18447,-2.17947c1.01413,1.97048 -0.70937,29.32901 -5.92642,48.02298c-4.42166,15.84386 -14.27015,27.62255 -15.03229,27.50488z"/><path d="M318.49274,186.31527c0.75127,1.49878 3.03748,7.57053 2.58416,9.28434c-0.84799,3.20594 -1.28056,5.33001 -5.28963,7.33955c-3.91188,1.96084 -6.42477,1.32542 -9.48127,0.18843c-1.75045,-0.65115 -5.33269,-6.14682 -6.11803,-7.71358c-2.15665,-4.30251 -0.39882,-7.14233 5.75337,-10.22613c6.1522,-3.0838 10.39475,-3.17513 12.55139,1.12739z"/></g></g></g></svg>