<svg version="1.1" xmlns="http://www.w3.org/2000/svg" xmlns:xlink="http://www.w3.org/1999/xlink" width="204.07613" height="227.81894" viewBox="0,0,204.07613,227.81894"><g transform="translate(-137.93758,-63.39999)"><g data-paper-data="{&quot;isPaintingLayer&quot;:true}" fill-rule="nonzero" stroke-linecap="butt" stroke-linejoin="miter" stroke-miterlimit="10" stroke-dasharray="" stroke-dashoffset="0" style="mix-blend-mode: normal"><path d="M139,288.50001l39.06563,-109.94694l-1.95213,-58.33265l14.8865,-48.7204l150,2l-35.2804,113.7444l-2.7196,101.25561z" fill="#e9e7bd" stroke="#000000" stroke-width="1.5"/><path d="M150.5,276.14605l34.61756,-97.42824l-1.72985,-51.69081l13.1915,-43.17303l132.92079,1.77228l-31.26333,100.7933l-2.40994,89.7265z" fill="#f7f6df" stroke="#000000" stroke-width="0"/><text transform="translate(228.42257,116.40804) rotate(12.15379) scale(0.39416,0.39416)" font-size="40" xml:space="preserve" fill="#e81f1f" fill-rule="nonzero" stroke-opacity="0" stroke="#000000" stroke-width="2" stroke-linecap="butt" stroke-linejoin="miter" stroke-miterlimit="10" stroke-dasharray="" stroke-dashoffset="0" font-family="Marker" font-weight="normal" text-anchor="start" style="mix-blend-mode: normal"><tspan x="0" dy="0">SMILE</tspan></text><text transform="translate(263.42257,100.40804) rotate(12.15379) scale(0.39416,0.39416)" font-size="40" xml:space="preserve" fill="#e81f1f" fill-rule="nonzero" stroke-opacity="0" stroke="#000000" stroke-width="2" stroke-linecap="butt" stroke-linejoin="miter" stroke-miterlimit="10" stroke-dasharray="" stroke-dashoffset="0" font-family="Marker" font-weight="normal" text-anchor="start" style="mix-blend-mode: normal"><tspan x="0" dy="0">SMILE</tspan></text><text transform="translate(268.42257,105.40804) rotate(12.15379) scale(0.39416,0.39416)" font-size="40" xml:space="preserve" fill="#e81f1f" fill-rule="nonzero" stroke-opacity="0" stroke="#000000" stroke-width="2" stroke-linecap="butt" stroke-linejoin="miter" stroke-miterlimit="10" stroke-dasharray="" stroke-dashoffset="0" font-family="Marker" font-weight="normal" text-anchor="start" style="mix-blend-mode: normal"><tspan x="0" dy="0">SMILE</tspan></text><path d="M243.3,198.70001c1.5,0 1.5,1.5 1.5,1.5v1.5c-0.02501,2.89334 -0.8655,7.35413 -3.85021,8.85196c-1.08825,0.54612 -2.43243,0.12367 -3.64979,0.14804c-1.4933,0.0299 -4.39693,0.23465 -5.81919,-0.74344c-2.51791,-1.73156 -3.69907,-5.58722 -4.60384,-8.28222c0,0 -0.47434,-1.42302 0.94869,-1.89737c1.42302,-0.47434 1.89736,0.94869 1.89736,0.94869c0.66959,2.02471 1.54434,5.33514 3.39616,6.71778c1.11879,0.83533 2.78508,0.2196 4.18081,0.25655c0.78468,0.02077 1.63277,0.46655 2.35021,0.14805c1.76608,-0.78403 2.16683,-4.59942 2.14979,-6.14805v-1.5c0,0 0,-1.5 1.5,-1.5z" fill="#e81f1f" stroke="none" stroke-width="0.5"/><path d="M196.8,225.70001c-0.31358,-0.02104 -2.23824,-2.49366 -3.19613,-4.04928c-0.24639,0.92951 -1.03271,2.09431 -1.72985,2.43511c-2.32397,1.13609 -7.07007,-4.43529 -6.56083,-5.96701c-0.63743,1.49482 -4.24875,2.54716 -5.57385,1.14185c-0.67063,-0.71122 -0.52398,-1.93576 -0.39921,-2.90529c0.10283,-0.79915 0.77055,-1.4212 1.05305,-2.17579c1.12546,-3.00628 1.63687,-6.2452 3.05936,-9.1386c0.48829,-0.99321 1.26472,-1.45248 1.36684,-2.58125c0.00297,-0.03288 -0.21032,-1.43597 -0.05171,-2.56222c-0.3408,0.10067 -0.70995,0.15029 -1.04828,0.24267c-1.51462,0.4136 -4.10052,1.37426 -5.26102,-0.76936c-1.03431,-1.91053 1.89937,-4.50902 2.41861,-6.14516c1.57956,-4.73869 1.77256,-9.58448 2.95009,-14.30932c0.75579,-3.03258 1.74211,-6.01718 2.52319,-9.10134c0.31782,-1.25495 0.23515,-2.58203 0.46912,-3.85528c0.63015,-3.42916 3.41183,-7.30193 5.82062,-9.71071c0.71807,-1.00055 1.84151,-1.64969 2.87142,-2.32499c1.37976,-0.9047 2.14017,-2.56561 3.5,-3.5c1.35288,-0.92962 3.16826,-0.90577 4.66181,-1.58679c0.95584,-0.43584 1.73408,-1.23485 2.7254,-1.58253c1.51896,-0.53273 3.22475,0.01426 4.82695,-0.14064c3.43979,-0.33256 6.60459,-0.91406 10.07444,-0.91406c3.97104,0 7.71731,-0.38278 11.45098,0.88639c0.44176,-0.38639 1.04903,-0.38639 1.04903,-0.38639c4.7523,0 12.59689,-1.12638 16.09654,2.97648c5.76525,6.75897 4.85491,19.31881 14.14374,22.54289c0.41291,-0.0029 5.4049,-0.29274 5.58223,0.77284c0.4024,2.41807 -0.83215,3.62224 -2.30925,4.52381c1.2572,0.44979 2.34506,1.71541 2.48674,3.18397c0.10499,1.08829 -1.20805,3.32503 -1.91032,4.03083c-0.70381,0.70735 -1.51091,1.33235 -2.39352,1.79784c-0.26912,0.14193 -0.8724,-0.35674 -0.9111,-0.05496c-0.17888,1.3951 1.02724,2.6488 1.20385,4.04418c0.33585,2.65348 1.23,5.34189 1.49985,7.99883c0.4919,4.84308 0.60562,10.89795 -0.54858,15.60265l-0.0343,0.04924l0.01715,0.00572l-0.48906,1.46719c-0.18851,0.61293 -0.75921,1.05847 -1.43397,1.05847c-0.56795,0 -1.06217,-0.31564 -1.31681,-0.78107l-1.47397,-2.57944l0.18479,-0.1056c-0.86669,-1.20488 -1.66086,-2.43026 -2.47165,-3.7552c-0.03819,0.168 -0.07603,0.32818 -0.10887,0.47527c-0.58676,2.62846 -1.76801,4.95629 -2.94797,7.36749c-0.5856,1.19667 -0.70363,2.67211 -1.58955,3.66715c-2.78862,3.13213 -3.28785,2.94618 -5.63038,-0.64393c-0.39708,-0.60855 -0.438,-1.38271 -0.56705,-2.10449c-0.44997,0.92594 -1.25764,1.8024 -1.31065,1.88411c-1.54265,2.37776 -3.3801,4.62473 -5.28895,6.71223l-0.18323,0.05706l0.03634,0.0545l-1.48293,0.98863c-0.24143,0.16609 -0.53392,0.2633 -0.84912,0.2633c-0.82843,0 -1.5,-0.67157 -1.5,-1.5c0,-0.17815 0.03106,-0.34904 0.08805,-0.50756l0.48892,-1.46678l0.15029,0.05009c0.03343,-0.19962 0.07467,-0.39315 0.12545,-0.58483c-1.57501,0.80611 -3.72288,1.87205 -3.99862,2.00907c-7.79822,3.87517 -17.59768,2.52452 -25.7178,0.12916c-2.45403,-0.7289 -6.44924,-1.7628 -8.43201,-3.4803c-0.49308,-0.42711 -0.93184,-0.89475 -1.32478,-1.39504c-0.23583,2.135 -0.91905,4.37769 -2.8795,4.24617zM239.62918,212.35837l1.97301,-0.9865c0.20845,-0.10975 0.44588,-0.17186 0.69781,-0.17186c0.45646,0 0.86531,0.20389 1.14042,0.52557c1.98479,-5.76587 2.33949,-12.18771 3.06945,-18.15633c0.34355,-2.80909 0.56505,-5.55994 0.68365,-8.33381c-1.39603,-2.38835 -2.77855,-4.79215 -4.30394,-7.09266c-0.21212,-0.3199 -0.11889,0.45508 -0.11775,1.04385c0.60953,0.84349 0.97325,1.89244 0.98805,3.16876l0.88177,1.67381c0,0 0.67082,1.34164 -0.67082,2.01246c-1.34164,0.67082 -2.01246,-0.67082 -2.01246,-0.67082l-0.15836,-0.32943v0.1586c0,0.82843 -0.67157,1.5 -1.5,1.5c-0.82843,0 -1.5,-0.67157 -1.5,-1.5v-2.36109c-0.30041,-1.17686 -0.75814,-2.2646 -1.28759,-3.31815c-1.39607,-0.16048 -2.93768,-0.09522 -4.17337,0.13975c0.02608,0.11184 0.0491,0.2229 0.06921,0.33324c0.24927,-0.18458 0.55776,-0.29374 0.89175,-0.29374c0.52892,0 0.9939,0.27376 1.26098,0.68731l0.98709,1.48064l-0.08191,0.0546l0.2056,0.17061c0.50593,1.94503 0.96582,3.88036 1.60257,5.78644c1.1692,3.57876 2.9066,9.97022 0.85941,13.50676c-2.59064,4.47537 -6.65746,2.52436 -8.31431,-1.18401c-1.40641,-3.14782 -2.4281,-8.23188 -2.0082,-11.68563c0.2885,-2.37296 2.17992,-5.3353 1.74284,-7.71561c-3.02019,2.03039 -2.75408,5.26356 -2.75408,8.89888c0,0 0,1.5 -1.5,1.5c-1.5,0 -1.5,-1.5 -1.5,-1.5c0,-5.29056 0.20437,-9.96939 5.90762,-12.37807c1.46411,-0.61835 3.26677,-0.96368 5.05986,-0.96209c-0.27408,-0.4861 -0.54485,-0.9769 -0.80357,-1.47801c-0.50997,-0.98775 -1.00037,-1.98775 -1.47733,-2.9956c-0.59961,0.25188 -1.21139,0.45929 -1.85193,0.56011l-0.58659,1.08571c0,0 -0.83205,1.24808 -2.08013,0.41602c-0.18792,-0.12528 -0.32868,-0.25999 -0.43222,-0.39845c-0.10749,0.14865 -0.90802,1.17162 -2.06778,0.39845c-1.24807,-0.83205 -0.41602,-2.08012 -0.41602,-2.08012c0.86863,-1.24025 2.17844,-2.13666 3.45948,-2.94393c0.67506,-0.4254 1.34232,-0.89193 2.02619,-1.3227c-0.61893,-1.40043 -1.22884,-2.804 -1.84561,-4.19936c-3.68574,2.43838 -8.11955,5.4186 -10.66408,8.72805c-1.68207,2.18773 -2.95366,5.26789 -4.40992,7.65242l-1.02383,1.67646c-0.2606,0.44344 -0.74261,0.74111 -1.29415,0.74111c-0.67476,0 -1.24546,-0.44554 -1.43397,-1.05847l-0.48906,-1.46719l0.47193,-0.15731c-0.35188,-1.07703 -0.54437,-2.20703 -0.5489,-3.31703c-0.00101,-0.24677 -0.00392,-2.84616 0.01586,-3.21898c-2.87559,2.73233 -6.16019,5.07664 -8.98503,7.80866c-1.17092,1.13244 -1.46361,2.91201 -2.12493,4.40068c-0.88499,1.99212 -1.98605,4.02393 -2.98077,5.99382l-0.46229,1.84919c-0.08963,0.39495 -0.33509,0.73069 -0.66833,0.93919c0.01877,1.20424 0.08555,2.39012 0.22168,3.54572c0.1617,1.37257 0.48404,2.77714 0.87554,4.18558c0.03576,-0.00255 0.07187,-0.00385 0.10828,-0.00385c0.30477,0 0.58831,0.09089 0.825,0.24705l2.2798,1.45286c1.6385,0.9555 3.2854,1.88862 4.89733,2.88214c-0.00082,-0.02731 -0.00153,-0.05465 -0.00213,-0.08205c0,0 0,-1.5 1.5,-1.5c1.5,0 1.5,1.5 1.5,1.5c-0.08363,2.40818 1.57734,4.49623 3.52114,5.91216c5.1711,1.86472 10.44675,3.19016 16.21463,3.47333c2.19775,-0.1841 4.26555,-0.61657 5.9917,-1.31133l0.33856,-1.01568c0.1885,-0.61293 0.75921,-1.05848 1.43397,-1.05848c0.82843,0 1.5,0.67157 1.5,1.5c0,0.04744 -0.00221,0.09435 -0.00651,0.14066c1.13156,-0.44354 2.24479,-0.93669 3.33569,-1.4823zM238.78147,218.83724c-1.71825,0.79524 -3.58477,1.31327 -5.34632,1.22144c-0.23827,0.4144 -0.50564,0.79161 -0.92737,0.96384c-0.55168,0.2253 -5.82841,0.17748 -6.70779,0.17748c-1.68771,0 -3.37543,0 -5.06314,0c-0.90186,0.03663 -1.80169,0.04125 -2.69421,0c-1.24755,0 -2.4951,0 -3.74265,0c-0.46287,0 -0.92821,0.00586 -1.39508,0.01449c-0.27417,0.29845 -0.6677,0.48551 -1.10492,0.48551c-0.33064,0 -0.63628,-0.10697 -0.88422,-0.2882l-0.2082,-0.1482c-1.11805,0.02335 -2.23677,0.03519 -3.34384,-0.00602c-0.27168,0.27326 -0.64795,0.44242 -1.06374,0.44242c-0.4457,0 -0.84599,-0.19439 -1.12073,-0.50301c-0.71149,0.01113 -1.4157,-0.01642 -1.93992,-0.43633c-0.62196,-0.4982 -0.24016,-1.57742 -0.42484,-2.35261c-0.24232,-1.01716 -0.53083,-1.97271 -0.81273,-2.91168c-1.17928,-1.85334 -2.33535,-3.70586 -3.38584,-5.61039c0.8522,3.62599 1.46874,8.14 4.30799,10.65745c1.63764,1.45203 5.31098,2.30807 7.36119,2.90831c7.34417,2.16646 16.4713,3.61633 23.52736,0.06498c1.63915,-0.82499 3.62854,-1.13283 4.95304,-2.40291c0.89199,-0.85533 1.37543,-2.0214 1.86887,-3.18189c-0.54837,0.36259 -1.17696,0.65977 -1.8529,0.90532zM233.79531,194.66533c-0.02174,-0.32913 -0.04681,-0.65325 -0.07434,-0.97299c0.01406,0.2472 0.0309,0.49262 0.05127,0.7359c0.00654,0.07816 0.01427,0.15734 0.02308,0.2371z" fill="#e81f1f" stroke="none" stroke-width="0.5"/><path d="M235.30232,170.49663c-0.13671,0.82931 -1.02799,1.12641 -1.02799,1.12641l-1.73407,0.5576c-0.18088,-0.00624 -0.35257,-0.00057 -0.516,0.016c-0.86761,0.63324 -1.69018,1.34491 -2.4777,2.00705l-0.31261,0.93785c-0.1885,0.61293 -0.75921,1.05847 -1.43397,1.05847c-0.82843,0 -1.5,-0.67157 -1.5,-1.5c0,-0.16566 0.02685,-0.32504 0.07645,-0.47404c-0.42008,-0.97198 0.48651,-1.69726 0.48651,-1.69726c0.07005,-0.05597 0.14014,-0.1121 0.21028,-0.16836c0.02128,-0.02227 0.0425,-0.04473 0.06369,-0.06739c-0.16913,-0.78108 0.64257,-1.51483 1.68611,-2.06948c0.85881,-1.06551 1.80018,-2.06709 3.04228,-2.4591c1.5233,-0.48075 3.05271,-0.5811 4.55642,-0.41518c1.04347,-0.07159 2.14301,0.04667 3.31293,0.41518c1.05635,0.33273 1.91761,1.14551 2.96964,1.49055l1.92906,0.48226c0.66798,0.15159 1.16663,0.74897 1.16663,1.46282c0,0.82843 -0.67157,1.5 -1.5,1.5c-0.13723,0 -0.27015,-0.01843 -0.39643,-0.05294l-1.96737,-0.49184l0.00754,-0.03017l-0.06312,0.01514c-0.27382,-0.09329 -0.53653,-0.21295 -0.79374,-0.34575c-0.32782,-0.11036 -0.63637,-0.34022 -1.00251,-0.564c-0.14075,-0.08051 -0.28208,-0.15968 -0.42498,-0.2352c-0.30937,-0.15011 -0.66554,-0.27194 -1.09966,-0.31461c-0.62688,-0.0616 -1.97018,-0.16016 -3.2574,-0.18401z" fill="#8e1212" stroke="none" stroke-width="0.5"/><path d="M234.3,197.20001c-1.5,0 -1.5,-1.5 -1.5,-1.5v-1c0,-1.66679 -0.55141,-3.24899 0,-4.35436c0,-0.21522 0,-0.43043 0,-0.64564v-2v0c0,-0.82843 0.67157,-1.5 1.5,-1.5c0.82843,0 1.5,0.67157 1.5,1.5c0,0.83334 0,3.66666 0,4.5c0,0 0,0.11057 -0.03002,0.27167c0.02573,0.67225 0.03002,1.39968 0.03002,2.22833v1c0,0 0,1.5 -1.5,1.5z" fill="#8e1212" stroke="none" stroke-width="0.5"/><path d="M249.72302,143.67434c-0.04575,0.13725 -0.10032,0.25685 -0.16159,0.36093c0.91958,5.23268 1.72132,10.49671 1.40706,15.66473h0.3315v3c0,0.82843 -0.67157,1.5 -1.5,1.5c-0.38876,0 -0.74298,-0.14789 -1.00946,-0.39048l-1.1746,-1.06072c-3.66242,-3.05156 -7.64718,-5.53948 -11.66815,-8.05677c-0.06278,0.26827 -0.12254,0.53922 -0.17915,0.81306l0.03135,0.19491c0,0 0,1.5 -1.5,1.5c-1.5,0 -1.5,-1.5 -1.5,-1.5l0.03135,-0.80509c0.15616,-0.74832 0.33394,-1.47671 0.53116,-2.18852c-0.13948,-0.3407 -0.16111,-0.7843 0.16925,-1.30738c0.11094,-0.17566 0.23085,-0.31162 0.35511,-0.41551c0.49576,-1.4951 1.07532,-2.92456 1.7165,-4.32271c-0.17811,-0.21914 -0.30337,-0.52734 -0.30337,-0.96079c0,-1.5 1.5,-1.5 1.5,-1.5c0.00133,0.00005 0.00266,0.00009 0.00398,0.00014c1.18061,-2.29481 2.49658,-4.55908 3.8443,-6.95314c1.16003,-2.06065 1.96211,-3.66178 3.17238,-5.19988l-0.26874,-0.17916l0.9871,-1.48064c0.26708,-0.41355 0.73206,-0.68731 1.26098,-0.68731c0.71385,0 1.31124,0.49866 1.46283,1.16664l0.49239,1.96956l-0.02787,0.00697l0.049,0.09151c0.33845,2.98943 0.87913,6.02047 1.42375,9.06779c0.3751,0.26415 0.81925,0.78289 0.52292,1.67187zM245.88951,143.89207c-1.22956,-1.84434 -2.05886,-1.79494 -4.01372,-2.73004c-0.74138,1.30435 -1.46167,2.58309 -2.13895,3.869c2.63326,1.5039 4.19379,4.6737 6.89521,6.42091l-0.33205,-0.25192c0,0 1.5,0 1.5,1.5c0,1.5 -1.5,1.5 -1.5,1.5l-1.33205,-0.25192c-1.72287,-1.17482 -3.24944,-2.70906 -4.69877,-4.15839c-0.94035,-0.94035 -1.21971,-1.75573 -1.80239,-2.2118c-0.62087,1.32955 -1.18252,2.68863 -1.66199,4.11154c4.00585,2.5147 7.98403,4.97038 11.68876,7.90893c-0.60739,-2.30427 -0.14493,-4.68078 -0.67131,-7.14097c-0.59975,-2.8031 -1.12281,-5.61173 -1.58009,-8.43218zM245.0912,135.81178c-0.55343,1.01279 -1.29337,2.00927 -1.72971,2.73694c0.83523,0.39531 1.55882,0.66889 2.21247,1.01774c-0.17226,-1.24845 -0.33287,-2.49983 -0.48276,-3.75468z" fill="#8e1212" stroke="none" stroke-width="0.5"/><path d="M195.86346,222.63509c-1.43508,-0.43653 -0.99854,-1.87161 -0.99854,-1.87161l0.34222,-1.12501c0.71859,-2.35554 1.53626,-4.73409 2.48302,-7.0676c-0.26942,-0.12003 -0.49691,-0.31715 -0.65448,-0.56334c-0.21737,0.12257 -0.46836,0.19249 -0.73569,0.19249c-0.82843,0 -1.5,-0.67157 -1.5,-1.5v-3h0.3302c-0.44795,-4.97055 0.41934,-9.31971 1.18756,-14.73012c0.31606,-2.22592 0.38391,-3.41812 0.86524,-4.79898c-0.55958,-1.00779 -1.01401,-2.02739 -1.2114,-3.07556c-0.19491,-0.33366 -0.39027,-0.66744 -0.58602,-1.00145l-0.00782,-0.12953l-0.04129,0.01585l-1.06289,-2.76859c-0.07217,-0.17566 -0.11198,-0.36804 -0.11198,-0.56972c0,-0.82843 0.67157,-1.5 1.5,-1.5c0.62765,0 1.16526,0.38549 1.38899,0.93264l1.18412,2.7189l-0.11566,0.05038c0.3321,0.56242 0.66261,1.12445 0.99125,1.68659l0.42872,-0.64308c0.26708,-0.41355 0.73206,-0.68731 1.26098,-0.68731c0.82843,0 1.5,0.67157 1.5,1.5c0,0.09375 -0.0086,0.18549 -0.02506,0.27448l-0.18662,1.11977c0.18672,-0.36808 0.37307,-0.73829 0.55797,-1.11147c0.1344,-0.46263 0.27672,-0.9255 0.42451,-1.38802c0.01041,-0.66491 0.02846,-1.32318 0.06432,-1.96872l0.16587,-2.98553c0.03825,-0.79435 0.6944,-1.42664 1.49823,-1.42664c0.14783,0 0.29067,0.02138 0.42559,0.06123c0.08246,-0.25204 0.16305,-0.50308 0.24133,-0.75302l0.22479,-0.18023l-0.07055,-0.05616l1.85967,-2.33602c0.27454,-0.35112 0.70209,-0.57683 1.18235,-0.57683c0.82843,0 1.5,0.67157 1.5,1.5c0,0.07286 -0.00519,0.14451 -0.01523,0.21459l-0.35935,2.8033l-0.45856,-0.05879c-0.15509,2.01107 -0.57226,3.96047 -1.19225,5.85153c0.15752,1.30665 0.22545,2.62214 0.23216,3.94447c0.17878,-0.46795 0.3535,-0.94723 0.52142,-1.44137c1.56722,-4.6119 3.12643,-9.34234 4.50729,-14.01488l0.09602,-0.09956l-0.04242,-0.02113l0.86732,-1.74164c0.0258,-0.09778 0.05174,-0.19554 0.0778,-0.29327l0.4457,-1.67139c0.15956,-0.65694 0.75165,-1.14471 1.45767,-1.14471c0.82843,0 1.5,0.67157 1.5,1.5v3h-0.3169c0.16524,1.07479 0.28281,2.15349 0.35782,3.23488c0.00782,-0.0118 0.01566,-0.02358 0.02352,-0.03535c0.46346,-1.64533 0.87085,-3.23838 1.33804,-4.80275c0.27509,-1.4964 0.52937,-3.00902 1.03145,-4.47055l0.60841,-2.28153c0.15956,-0.65694 0.75165,-1.14471 1.45767,-1.14471c0.82843,0 1.5,0.67157 1.5,1.5c0,0.13723 -0.01843,0.27016 -0.05294,0.39644l-0.49184,1.96737l-0.03108,-0.00777l-0.00356,0.01337l0.01114,0.07803c-0.03757,0.09927 -0.0747,0.19861 -0.11141,0.29801l-0.14393,0.53975l-0.04676,-0.01247c-0.08687,0.24524 -0.17141,0.49083 -0.25391,0.73672c0.00862,0.55203 -0.07478,1.09301 -0.20936,1.6463c0.49409,0.24538 0.83366,0.75516 0.83366,1.34425c0,0.22163 -0.04807,0.43204 -0.13434,0.62136l-1.16869,2.72696l-0.01616,-0.00692c-0.00846,0.0324 -0.01714,0.06475 -0.02607,0.09707c-0.07519,0.27229 -0.1882,0.52846 -0.32352,0.77512c-1.15881,3.42878 -2.40891,7.08898 -3.891,10.5853c-0.19401,5.67757 -0.98835,11.56332 -3.46736,16.57475l0.42742,0.16415l-0.97302,2.53361c-0.20735,0.57994 -0.76163,0.99491 -1.41284,0.99491c-0.70397,0 -1.29468,-0.48494 -1.45628,-1.13899l-0.08224,0.32671c-0.14317,0.62632 -0.67839,1.10327 -1.33371,1.15891c-0.68841,1.27877 -1.441,2.43568 -1.98838,2.57397c0.01718,0.85629 -0.02892,1.71199 -0.12564,2.56455c-0.0185,0.64035 -0.02818,1.2892 -0.02818,1.94855v3c0,0.82843 -0.67157,1.5 -1.5,1.5c-0.82843,0 -1.5,-0.67157 -1.5,-1.5v-3c0,-0.56599 0.00698,-1.12478 0.0204,-1.67753c-0.20111,-1.77701 0.20153,-3.6967 -0.24231,-5.6424c-0.35047,1.17507 -0.9748,2.23403 -1.59866,3.66923c-1.5775,3.62905 -3.25297,7.17289 -4.40214,10.96223l-0.34221,1.12501c0,0 -0.43653,1.43507 -1.87161,0.99854zM208.28967,201.12643c0.04077,-0.07294 0.08168,-0.14538 0.1226,-0.21723c0.13808,-0.80707 0.28404,-1.61294 0.43653,-2.4178c0.17926,-1.68274 0.6562,-3.42102 0.97816,-5.05197c-0.15371,0.18255 -0.30716,0.36473 -0.46022,0.54657c-0.01118,0.30253 -0.02942,0.60361 -0.07799,0.89729c-0.35733,2.16043 -0.70095,4.21651 -0.99909,6.24314z" fill="#8e1212" stroke="none" stroke-width="0.5"/><path d="M230.8,217.20001c-1.5,0 -1.5,-1.5 -1.5,-1.5c0,-3.33334 0,-7.66666 0,-11c0,0 0,-1.5 1.5,-1.5c1.5,0 1.5,1.5 1.5,1.5c0,3.33334 0,6.66666 0,10v1c0,0 0,1.5 -1.5,1.5z" fill="#8e1212" stroke="none" stroke-width="0.5"/><path d="M237.3,215.70001c-1.5,0 -1.5,-1.5 -1.5,-1.5c0,-2 0,-5 0,-7c0,0 0,-1.5 1.5,-1.5c1.5,0 1.5,1.5 1.5,1.5c0,2 0,4 0,6v1c0,0 0,1.5 -1.5,1.5z" fill="#8e1212" stroke="none" stroke-width="0.5"/><path d="M244.3,216.20001c-1.5,0 -1.5,-1.5 -1.5,-1.5v-0.5c0.02465,-2.88844 -1.15503,-5.83294 -1.94228,-8.58792c0,0 -0.41208,-1.44228 1.0302,-1.85437c1.44228,-0.41208 1.85437,1.03021 1.85437,1.03021c0.87705,3.07011 2.03628,6.20145 2.05772,9.41208v0.5c0,0 0,1.5 -1.5,1.5z" fill="#8e1212" stroke="none" stroke-width="0.5"/><path d="M202.99411,197.61279c-0.25537,0.36763 -0.73002,0.74941 -1.55792,0.54244c-1.45522,-0.36381 -1.09141,-1.81902 -1.09141,-1.81902c0.95551,-3.81359 2.38029,-6.91837 5.55522,-9.3362c0.63506,-0.48362 4.08586,-3.34759 5.03357,-2.65963c1.17112,0.85014 0.86996,2.76397 1.18855,4.17564c0.88302,3.91266 -1.65721,8.70326 -5.40274,9.62417c-0.79413,0.19525 -1.68405,0.86239 -2.40619,0.47863c-0.5747,-0.30541 -1.00686,-0.64434 -1.31908,-1.00603zM205.52717,195.65635c-0.05873,-0.06607 -0.11463,-0.1388 -0.16741,-0.2185c-0.17812,0.26808 -0.26601,0.45815 -0.07296,0.34335c0.07788,-0.0463 0.15819,-0.08752 0.24036,-0.12485z" fill="#f7f6df" stroke="none" stroke-width="0.5"/><path d="M204.3,181.70001c1.5,0 1.5,1.5 1.5,1.5v2c0,0.10138 0.00245,0.21192 0.00689,0.33058c0.22084,-0.19244 0.5379,-0.33058 0.99311,-0.33058c1.5,0 1.5,1.5 1.5,1.5c-0.00033,0.13619 -0.00124,0.27238 -0.00274,0.40856c0.00182,0.03025 0.00274,0.06073 0.00274,0.09144c0,0.0105 -0.0001,0.02097 -0.00032,0.03142l-0.0299,1.66172l-0.02468,-0.00044c-0.00109,0.02311 -0.0022,0.04622 -0.00332,0.06933l0.021,0.05125c-0.0114,0.06377 -0.02253,0.12794 -0.03339,0.19245c-0.18605,3.49633 -0.72733,6.97963 -1.48345,10.3933l-0.05686,0.06399l0.03393,0.01131l-0.48906,1.46719c-0.1885,0.61293 -0.75921,1.05847 -1.43397,1.05847c-0.82843,0 -1.5,-0.67157 -1.5,-1.5c0,-0.0711 0.00495,-0.14105 0.01452,-0.20952l0.36917,-2.95336l0.42523,0.05316c0.00118,-0.09321 0.00287,-0.18617 0.00505,-0.27893c-0.54182,-0.17151 -0.95051,-0.64237 -1.03196,-1.21844l-0.26342,-1.65746l0.44416,-0.07059c-0.75813,-2.92022 -0.46276,-5.7822 -0.46276,-9.16485v-2c0,0 0,-1.5 1.5,-1.5z" fill="#570b0b" stroke="none" stroke-width="0.5"/><path d="M169.8,286.2c0,-1.5 1.5,-1.5 1.5,-1.5c0.18698,0 0.37744,0 0.57099,0c0.73182,-4.28834 1.51585,-8.55563 2.46128,-12.80942c1.27267,-6.37916 3.23792,-12.16916 5.57224,-18.24186c3.29456,-8.57073 6.82801,-17.72598 14.02787,-23.76608c0.56603,-2.56083 1.30239,-5.10571 1.91241,-7.54644c0,0 0.36381,-1.45522 1.81902,-1.09141c1.45522,0.36381 1.09141,1.81902 1.09141,1.81902c-0.84272,3.36996 -1.37965,6.81173 -2.03072,10.2099c0.95203,-1.5158 1.89979,-2.94206 2.65916,-4.46721c-0.87446,-2.6875 -0.64009,-5.84817 0.66827,-7.93855c0,0 0.83205,-1.24808 2.08013,-0.41603c1.24808,0.83205 0.41602,2.08013 0.41602,2.08013c-0.16348,0.22187 -0.30059,0.44282 -0.41363,0.6632c0.12545,-0.00706 0.26249,0.00022 0.41215,0.02516c1.47959,0.2466 1.23299,1.72619 1.23299,1.72619c-0.21707,1.24244 -0.55281,2.37287 -0.97372,3.44059c0.04607,0.08522 0.09302,0.1707 0.14074,0.25646c0.30576,0.5495 1.26507,2.63836 2.41871,2.12071c1.12296,-0.50388 2.47173,-2.65873 3.54101,-2.56059c1.26524,0.11613 3.53473,4.38258 5.89715,3.08078c1.9766,-1.08918 2.91971,-4.48967 5.15188,-5.04443c2.38867,-0.59366 3.39632,1.60124 4.47781,2.97707c1.77916,1.78589 4.06795,3.28558 6.09085,0.69421c0.5456,-0.69894 0.63498,-2.31445 1.5126,-2.1881c1.54314,0.22217 4.10474,3.49701 5.92474,5.60712c-0.10229,-2.8724 -0.16137,-5.74797 -0.16137,-8.63043c0,0 0,-1.21967 1.09981,-1.45939c-0.00767,-0.02208 -0.01528,-0.04416 -0.02283,-0.06627l-0.07698,-0.97434c0,0 0,-1.5 1.5,-1.5c1.5,0 1.5,1.5 1.5,1.5l-0.07698,0.02566c0.32888,1.01915 0.8589,1.97368 1.44875,2.86751c0.73576,2.86902 2.12178,5.30231 3.10422,7.94919c0.31995,0.30205 0.44703,0.68331 0.44703,0.68331c5.12402,15.38331 8.15756,30.69174 8.57608,46.92422c0.00052,1.18337 0.00081,2.36674 0.00088,3.55011h0.00001c0,0 1.5,0 1.5,1.5c0,1.5 -1.5,1.5 -1.5,1.5c-0.11404,0 -0.22927,0 -0.34558,0c-0.21814,0.27539 -0.57398,0.5 -1.15442,0.5c-0.58044,0 -0.93628,-0.22461 -1.15442,-0.5c-1.64492,0 -3.34821,0 -4.84558,0c-0.00432,0 -0.00865,0 -0.01297,0l0.01297,1.5c0,0 0,1.5 -1.5,1.5c-1.5,0 -1.5,-1.5 -1.5,-1.5l0.01642,-1.49161c-11.74782,0.06425 -23.55314,0.47627 -35.36167,0.4912c-0.21811,0.27558 -0.57401,0.50042 -1.15475,0.50042c-0.58044,0 -0.93628,-0.22461 -1.15442,-0.5c-5.28186,0 -10.56372,0 -15.84558,0c-4.73607,0 -9.40757,-0.14119 -13.94389,1.2375l-0.49545,0.82316c0,0 -1.06066,1.06066 -2.12132,0c-0.91064,-0.91064 -0.25761,-1.82128 -0.05466,-2.06066c-0.09436,0 -0.18871,0 -0.28307,0c-0.0411,0.24316 -0.08216,0.48639 -0.12317,0.72969l-0.55008,1.72833c0,0 -0.45801,1.42836 -1.88638,0.97035c-1.42837,-0.45801 -0.97035,-1.88637 -0.97035,-1.88637l0.4914,-1.51967c0.00124,-0.00744 0.00247,-0.01489 0.0037,-0.02233h-0.06674c0,0 -1.5,0 -1.5,-1.5zM181.8,284.7c0,0 0.24561,0 0.53806,0.09938c7.89672,-1.10291 16.60957,-0.2618 24.42748,-0.11904c0.00057,-0.16096 0.00947,-0.32128 0.03446,-0.48034c0.03384,-0.21542 0.52663,-0.48522 0.32482,-0.56782c-1.75882,-0.71995 -3.96641,-0.60739 -5.38548,-1.87152c-0.64133,-0.5713 -0.7547,-1.54713 -1.21532,-2.27206c-1.53245,-2.41185 -2.95867,-4.62877 -3.91429,-7.38862c-0.01997,-0.05766 -0.75419,-3.7326 -1.34604,-4.31549c-2.10375,-2.07193 -6.62229,-2.18595 -9.48991,-1.73672c-0.30244,0.79879 -0.65744,1.56029 -1.10202,2.25908c-0.9292,3.91922 -2.23264,8.91106 -4.02429,12.5522c-0.51009,1.03665 -1.31542,2.4363 -1.94064,3.84096c1.08566,0 2.13517,0 3.09317,0zM174.8,288.2c0.00289,-0.08682 0.00736,-0.17408 0.01335,-0.26176c-0.01686,-0.08305 -0.02693,-0.16242 -0.03103,-0.23824c-0.01214,0 -0.02428,0 -0.03642,0zM177.95253,279.54098c1.82689,-3.58918 2.96446,-8.56013 3.9757,-12.44781c1.88994,-2.68075 2.15565,-6.82505 3.48695,-9.96959c1.40865,-3.32725 3.93504,-6.39692 4.9516,-9.88432c0.30605,-1.04993 0.15479,-2.22649 0.59947,-3.22563c0.29372,-0.65995 1.1962,-0.8977 1.52254,-1.54214c0.39447,-0.77898 0.22658,-1.75092 0.55478,-2.56005c0.03407,-0.08399 0.06878,-0.16769 0.1041,-0.25111c-0.70144,-0.84411 -0.13648,-2.23607 -0.10519,-3.34772c0.01418,-0.50374 0.04504,-1.00978 0.09024,-1.51744c-5.01833,5.55104 -7.78306,13.04923 -10.42799,19.92995c-2.27691,5.92335 -4.19637,11.56325 -5.437,17.78431c-0.8997,4.0492 -1.64828,8.11128 -2.35389,12.19057c0.2161,0 0.43326,0 0.65106,0c0.65468,-1.81907 1.61002,-3.63129 2.38763,-5.15902zM247.8,284.2c1.5,0 2.99999,0 4.49999,0c-0.00005,-1.17068 -0.00026,-2.34137 -0.00064,-3.51205c-0.32636,-13.5152 -2.54121,-26.36962 -6.28053,-39.17205c-0.01582,0.00885 -0.03182,0.01744 -0.048,0.02575c-1.34133,0.68917 -3.39016,-0.8364 -4.42182,-1.47965c-0.08951,-0.05581 -0.18297,-0.11383 -0.28003,-0.17399c0.15264,2.73349 0.3332,5.46724 0.52726,8.20566c0.34198,4.82569 1.57932,9.58555 1.98487,14.39876c0.28395,3.37009 -0.1672,5.91035 0.79047,9.19843c1.09193,4.22496 1.50044,8.35679 2.56079,12.50958c0.22257,-0.00029 0.44512,-0.00044 0.66764,-0.00044zM241.67675,272.4783c-0.98113,-3.4935 -0.58741,-6.20135 -0.88506,-9.73398c-0.40658,-4.82545 -1.64311,-9.59878 -1.98792,-14.43797c-0.24785,-3.47853 -0.47276,-6.95227 -0.64655,-10.42779c-2.3131,-1.6093 -4.7656,-3.68474 -5.42907,-5.84819c-0.44893,0.59852 -1.04985,1.09911 -1.6891,1.47495c-3.54443,2.08386 -6.43676,0.10575 -8.87223,-2.3225c-0.48596,-0.68992 -0.85323,-2.53735 -1.52219,-2.02293c-0.92051,0.70785 -1.38736,1.4709 -1.86275,2.22026c0.33969,-0.09513 0.68021,-0.15687 1.01812,-0.18014c0,0 1.5,0 1.5,1.5c0,0.35244 -0.08281,0.62206 -0.20951,0.82834c0.4759,0.12739 0.94417,0.26587 1.27017,0.611c1.8903,2.00125 1.06204,7.8701 -1.27206,9.33664c-0.85683,0.53835 -2.02072,0.29197 -3.02887,0.20466c-2.9184,-0.25276 -6.68576,-3.92003 -5.12358,-7.07933c0.3815,-0.77152 0.91496,-1.55677 1.54931,-2.2811c-1.73564,-0.00224 -4.25272,-0.66677 -5.06252,-1.40334c-0.46082,-0.41915 -0.16662,-1.4533 -0.72927,-1.72064c-0.37488,-0.17812 -0.14803,0.87149 -0.44268,1.16379c-1.18742,1.17797 -2.70691,1.79192 -4.38566,1.27562c-0.02097,-0.00645 -0.04188,-0.01301 -0.06273,-0.01967c0.0292,0.57054 0.12877,1.15953 -0.11678,1.65805c-0.88872,1.80434 -4.82586,4.72587 -7.0169,4.89954c-0.4829,1.27255 -0.9464,2.5406 -1.55771,3.75495c-0.3111,0.61799 -1.19397,0.82673 -1.47746,1.45786c-0.8142,1.8126 -0.76411,3.95383 -1.66947,5.72265c-0.53064,1.03672 -1.11664,2.06181 -1.69563,3.09193c0.02026,-0.00096 0.03135,-0.00096 0.03135,-0.00096c1.86993,0.01118 5.45488,-0.11519 7.06066,1.43934c0.50141,0.48541 0.481,1.31426 0.80211,1.93388c1.77777,3.43039 3.1762,6.95631 4.54571,10.61085c0.31824,0.84924 0.19939,1.91176 0.78358,2.60545c1.56565,1.85908 3.85075,3.47854 5.46796,5.4595c1.25179,1.53335 1.72611,3.35321 2.77562,5.01631c0.02146,0.64489 0.0429,1.28978 0.06436,1.93467v0.5c0,0 0,0.55803 -0.34036,0.99336c10.87039,-0.05293 21.73382,-0.40663 32.55144,-0.48004c-0.97512,-3.8806 -1.31494,-7.78943 -2.33433,-11.73504zM204.13998,275.151c-0.83659,-1.01918 -2.22369,-1.49878 -3.03205,-2.54049c-0.2442,-0.31469 -1.00902,-2.8419 -1.21641,-3.39456c-1.34689,-3.58918 -2.82686,-6.97524 -4.4543,-10.38915c-0.15553,-0.32627 0.04732,-0.80058 -0.19789,-1.06612c-0.71208,-0.77114 -4.47704,-0.5639 -4.93934,-0.56066c0,0 -0.87986,0 -1.29184,-0.67386c-0.29423,0.5772 -0.57216,1.15969 -0.82334,1.75029c-0.62142,1.46114 -1.0257,3.06742 -1.45198,4.65456c3.61284,-0.29088 8.18538,0.21498 10.60347,2.68454c1.5483,1.58126 1.4461,3.57919 2.10917,5.50536c0.88557,2.57252 2.24593,4.53158 3.6305,6.79052c0.33058,0.53934 0.32199,1.29656 0.78468,1.72794c1.07649,1.00362 2.81616,0.94197 4.24219,1.38333c-1.29995,-1.9714 -2.38766,-3.9527 -3.96286,-5.87168zM200.8,233.20001l0.67332,-0.96397c-0.13136,-0.12354 -0.25772,-0.25253 -0.37909,-0.38655c-0.77726,1.34612 -1.64195,2.67963 -2.50957,4.12489c-0.02768,0.04612 -0.05508,0.09231 -0.08219,0.13856c1.22405,-0.72149 2.44867,-1.68714 2.29752,-2.91293zM243.13899,237.51801c0.30116,0.18874 0.83903,0.42403 1.2045,0.67313c-0.01084,-0.30814 -0.00923,-0.6419 -0.03619,-0.84332c-0.09742,-0.72771 -0.18918,-1.46607 -0.42611,-2.161c-0.88274,-2.58907 -2.2078,-4.89674 -3.06041,-7.50675c0.03885,2.83031 0.13031,5.65396 0.25851,8.47578c0.67086,0.47717 1.3633,0.92574 2.05971,1.36217zM217.98471,235.48615c-0.14894,0.19682 -0.29371,0.38862 -0.43744,0.55273c-1.42525,1.62736 -3.06854,2.88803 -0.08825,4.31366c0.02126,0.01017 1.9025,0.69077 2.05238,0.57149c1.15776,-0.92138 1.46634,-4.55213 -0.18574,-4.801l-0.02566,0.07697c0,0 -0.91433,0 -1.31528,-0.71386z" fill="#570b0b" stroke="none" stroke-width="0.5"/><path d="M175.54883,284.74736c-0.2178,0 -0.43605,-0.00038 -0.65215,-0.00038c0.70561,-4.07929 1.44794,-8.14415 2.34764,-12.19335c1.24063,-6.22107 3.17074,-11.95349 5.44765,-17.87683c2.64492,-6.88072 5.43956,-14.37754 10.45789,-19.92858c-0.0452,0.50765 -0.07525,1.01401 -0.08943,1.51775c-0.0313,1.11166 -0.59352,2.50475 0.10791,3.34886c-0.03533,0.08343 -0.07001,0.16713 -0.10408,0.25112c-0.3282,0.80913 -0.20298,1.87151 -0.59745,2.65049c-0.32635,0.64444 -1.227,0.88303 -1.52072,1.54298c-0.44468,0.99913 -0.25066,2.08534 -0.5567,3.13527c-1.01656,3.4874 -3.54222,6.55745 -4.95087,9.8847c-1.3313,3.14454 -1.6341,7.38114 -3.52404,10.06189c-1.01124,3.88768 -2.14973,8.85836 -3.97662,12.44753c-0.77761,1.52773 -1.73433,3.33951 -2.38902,5.15857z" data-paper-data="{&quot;noHover&quot;:false,&quot;origItem&quot;:[&quot;Path&quot;,{&quot;applyMatrix&quot;:true,&quot;segments&quot;:[[[355.90505,559.08195],[-1.55523,3.05546],[3.65378,-7.17835]],[[363.85645,534.18634],[-2.02248,7.77536],[3.77987,-5.36151]],[[370.83035,514.24715],[-2.66259,6.28909],[2.81729,-6.65449]],[[380.73355,494.47851],[-2.03311,6.9748],[0.61209,-2.09985]],[[381.93249,488.02726],[-0.88937,1.99826],[0.58745,-1.3199]],[[384.97757,484.94298],[-0.65269,1.28889],[0.78894,-1.55795]],[[386.08714,479.82287],[-0.65641,1.61826],[0.06814,-0.16798]],[[386.29534,479.32065],[-0.07065,0.16685],[-1.40287,-1.68821]],[[386.08496,472.6252],[-0.06259,2.22331],[0.02836,-1.00747]],[[386.26544,469.59033],[-0.09039,1.01531],[-10.03666,11.10208]],[[365.40947,509.45023],[5.28984,-13.76143],[-4.55382,11.84669]],[[354.53547,545.01885],[2.48127,-12.44213],[-1.79939,8.09841]],[[349.82768,569.39999],[1.41122,-8.15857],[0.4322,0]],[[351.12979,569.39999],[-0.4356,0],[1.30936,-3.63813]]],&quot;closed&quot;:true}]}" fill="#510b0b" stroke="none" stroke-width="0.5"/><path d="M247.13314,284.25044c-1.06035,-4.15278 -1.48082,-8.28587 -2.57275,-12.51083c-0.95767,-3.28808 -0.5448,-5.86971 -0.82875,-9.23979c-0.40555,-4.81321 -1.61027,-9.62752 -1.95226,-14.45322c-0.19406,-2.73842 -0.36987,-5.47361 -0.5225,-8.2071c0.09706,0.06016 0.19102,0.11806 0.28053,0.17387c1.03167,0.64325 3.0901,2.1675 4.43143,1.47833c0.01618,-0.00831 0.03229,-0.0169 0.04811,-0.02575c3.73932,12.80243 5.97022,25.75476 6.29658,39.26996c0.00038,1.17068 -0.00151,2.34195 -0.00146,3.51263c-1.5,0 -3.00978,0.00143 -4.50978,0.00143c-0.22252,0 -0.44658,0.00019 -0.66915,0.00048z" data-paper-data="{&quot;noHover&quot;:false,&quot;origItem&quot;:[&quot;Path&quot;,{&quot;applyMatrix&quot;:true,&quot;segments&quot;:[[[495.59999,568.39999],[-0.44505,0],[2.99999,0]],[[504.59997,568.39999],[-2.99999,0],[-0.0001,-2.34137]],[[504.59868,561.37588],[0.00076,2.34137],[-0.65272,-27.0304]],[[492.03762,483.03179],[7.47864,25.60485],[-0.03164,0.0177]],[[491.94163,483.08328],[0.03235,-0.01662],[-2.68265,1.37834]],[[483.09798,480.12399],[2.06333,1.28649],[-0.17902,-0.11162]],[[482.53791,479.77601],[0.19412,0.12032],[0.30527,5.46697]],[[483.59244,496.18733],[-0.38813,-5.47683],[0.68397,9.65139]],[[487.56219,524.98485],[-0.8111,-9.62642],[0.56791,6.74017]],[[489.14313,543.38172],[-1.91534,-6.57616],[2.18385,8.44992]],[[494.26471,568.40087],[-2.12071,-8.30557],[0.44513,-0.00058]]],&quot;closed&quot;:true}]}" fill="#510b0b" stroke="none" stroke-width="0.5"/><path d="M206.80762,284.70734c-9.15983,-0.16726 -19.63153,-1.29194 -28.49636,0.8734c0.64062,-1.67435 1.67664,-3.45514 2.29021,-4.70209c1.79165,-3.64114 3.10416,-8.68631 4.03337,-12.60552c0.44458,-0.69878 0.80718,-1.46706 1.10961,-2.26585c2.86762,-0.44923 7.43058,-0.34239 9.53432,1.72953c0.59185,0.5829 1.34754,4.27137 1.3675,4.32904c0.95561,2.75986 2.39021,5.03287 3.92266,7.44473c0.46061,0.72494 0.48764,1.65079 1.12897,2.2221c1.41907,1.26413 3.62432,1.15537 5.38314,1.87532c0.20181,0.08261 -0.20446,0.40251 -0.2383,0.61793c-0.02498,0.15906 -0.03456,0.32047 -0.03514,0.48143z" data-paper-data="{&quot;noHover&quot;:false,&quot;origItem&quot;:[&quot;Path&quot;,{&quot;applyMatrix&quot;:true,&quot;segments&quot;:[[[413.59999,568.4],[-0.04997,0.31811],[0.06768,-0.43083]],[[414.24963,567.26435],[0.40361,0.16521],[-3.51764,-1.4399]],[[403.47867,563.52132],[2.83814,2.52826],[-1.28266,-1.14261]],[[401.04804,558.97719],[0.92123,1.44987],[-3.06491,-4.8237]],[[393.21947,544.19994],[1.91123,5.51971],[-0.03993,-0.11533]],[[390.52739,535.56895],[1.1837,1.16579],[-4.20749,-4.14385]],[[371.54757,532.0955],[5.73524,-0.89845],[-0.60487,1.59758]],[[369.34353,536.61366],[0.88917,-1.39757],[-1.8584,7.83843]],[[361.29494,561.71806],[3.5833,-7.28228],[-1.22714,2.4939]],[[356.70505,571.105],[1.28124,-3.34869],[17.72965,-4.33068]],[[413.53108,569.36067],[-18.31967,-0.33453],[0.00115,-0.32192]]],&quot;closed&quot;:true}]}" fill="#7a1010" stroke="none" stroke-width="0.5"/><path d="M244.04613,284.24897c-10.81762,0.07341 -21.72611,0.44045 -32.5965,0.49338c0.34036,-0.43534 0.3406,-0.99331 0.3406,-0.99331l-0.00018,-0.50004c-0.02146,-0.64489 -0.04378,-1.28997 -0.06524,-1.93486c-1.04952,-1.6631 -1.53247,-3.48571 -2.78426,-5.01906c-1.61721,-1.98097 -3.91787,-3.6108 -5.48352,-5.46988c-0.58419,-0.69369 -0.46968,-1.76106 -0.78793,-2.6103c-1.36951,-3.65454 -2.77854,-7.20947 -4.55631,-10.63986c-0.32111,-0.61961 -0.30063,-1.45343 -0.80204,-1.93883c-1.60578,-1.55453 -5.09107,-1.42005 -6.961,-1.43123c0,0 -0.1106,-0.00994 -0.13086,-0.00898c0.57899,-1.03011 1.16601,-2.06142 1.69665,-3.09814c0.90536,-1.76882 0.85909,-3.92084 1.67329,-5.73344c0.28349,-0.63113 1.16817,-0.84325 1.47928,-1.46124c0.61131,-1.21435 1.07918,-2.48867 1.56207,-3.76122c2.19103,-0.17366 6.14048,-3.10603 7.0292,-4.91036c0.24555,-0.49853 0.14754,-1.08844 0.11834,-1.65898c0.02085,0.00665 0.04183,0.01317 0.06281,0.01962c1.67875,0.5163 3.20599,-0.10125 4.39341,-1.27921c0.29465,-0.2923 0.06923,-1.3424 0.44411,-1.16428c0.56265,0.26734 0.26873,1.30139 0.72956,1.72054c0.8098,0.73657 3.33636,1.39904 5.072,1.40128c-0.63435,0.72433 -1.15183,1.60819 -1.53332,2.37972c-1.56217,3.1593 2.19852,6.72773 5.11692,6.98049c1.00815,0.08731 2.18269,0.33561 3.03952,-0.20274c2.3341,-1.46653 3.13705,-7.23869 1.24675,-9.23994c-0.326,-0.34513 -0.79142,-0.48305 -1.26732,-0.61043c0.1267,-0.20628 0.20937,-0.47593 0.20937,-0.82836c0,-1.5 -1.49667,-1.49954 -1.49667,-1.49954c-0.33791,0.02327 -0.67007,-0.01463 -1.00976,0.08051c0.47538,-0.74936 0.94529,-1.51211 1.8658,-2.21997c0.66897,-0.51442 1.03956,1.33354 1.52552,2.02346c2.43547,2.42825 5.34375,4.41245 8.88818,2.32859c0.63925,-0.37583 1.24119,-0.8758 1.69012,-1.47433c0.66348,2.16345 3.1265,4.24772 5.43959,5.85702c0.17379,3.47552 0.4081,6.96438 0.65595,10.44291c0.34481,4.83919 1.58338,9.64295 1.98996,14.4684c0.29765,3.53263 -0.1024,6.25527 0.87874,9.74877c1.01939,3.94561 1.35206,7.86327 2.32718,11.74387z" data-paper-data="{&quot;noHover&quot;:false,&quot;origItem&quot;:[&quot;Path&quot;,{&quot;applyMatrix&quot;:true,&quot;segments&quot;:[[[483.3535,544.95657],[2.03878,7.89121],[-1.96226,-6.987]],[[481.58337,525.48861],[0.5953,7.06526],[-0.81316,-9.65091]],[[477.60754,496.61267],[0.68962,9.67838],[-0.49571,-6.95706]],[[476.31444,475.75709],[0.34758,6.95104],[-4.62619,-3.2186]],[[465.45629,464.06071],[1.32695,4.3269],[-0.89786,1.19705]],[[462.07809,467.0106],[1.27851,-0.75167],[-7.08887,4.16772]],[[444.33363,462.36561],[4.87094,4.8565],[-0.97192,-1.37984]],[[441.28925,458.31975],[1.33793,-1.02884],[-1.84102,1.41571]],[[437.56375,462.76027],[0.95077,-1.49872],[0.67937,-0.19027]],[[439.59999,462.4],[-0.67582,0.04654],[0,0]],[[442.59999,465.4],[0,-3],[0,0.70487]],[[442.18098,467.05668],[0.2534,-0.41255],[0.9518,0.25478]],[[444.72131,468.27868],[-0.652,-0.69027],[3.7806,4.00251]],[[442.17718,486.95195],[4.6682,-2.93306],[-1.71367,1.07671]],[[436.11944,487.36126],[2.0163,0.17463],[-5.83679,-0.50551]],[[425.87227,473.20261],[-3.12435,6.3186],[0.76299,-1.54304]],[[428.9709,468.64041],[-1.26871,1.44866],[-3.47128,-0.00448]],[[418.84586,465.83373],[1.6196,1.47313],[-0.92165,-0.8383]],[[417.38732,462.39245],[1.1253,0.53468],[-0.74976,-0.35625]],[[416.50196,464.72003],[0.5893,-0.58461],[-2.37484,2.35593]],[[407.73064,467.27128],[3.3575,1.0326],[-0.04195,-0.0129]],[[407.60518,467.23195],[0.04169,0.01331],[0.0584,1.14108]],[[407.37163,470.54805],[0.4911,-0.99705],[-1.77745,3.60867]],[[393.33783,480.34712],[4.38207,-0.34733],[-0.96579,2.5451]],[[390.22241,487.85702],[1.22262,-2.42869],[-0.6222,1.23598]],[[387.26749,490.77275],[0.56699,-1.26226],[-1.62839,3.6252]],[[383.92855,502.21805],[1.81073,-3.53765],[-1.06128,2.07344]],[[380.53729,508.40191],[1.15798,-2.06023],[0.04053,-0.00191]],[[380.59999,508.4],[0,0],[3.73987,0.02236]],[[394.72131,511.27868],[-3.21157,-3.10907],[1.00282,0.97081]],[[396.32553,515.14643],[-0.64222,-1.23922],[3.55555,6.86079]],[[405.41695,536.36813],[-2.73901,-7.30908],[0.63649,1.69848]],[[406.98411,541.57902],[-1.16839,-1.38737],[3.1313,3.71817]],[[417.92002,552.49803],[-3.23441,-3.96193],[2.50358,3.06671]],[[423.47127,562.53065],[-2.09903,-3.32621],[0.04291,1.28978]],[[423.59999,566.4],[-0.04291,-1.28978],[0,0]],[423.59999,567.4],[[422.91927,569.38673],[0.68072,-0.87067],[21.74077,-0.10585]],[[488.02215,568.42665],[-21.63525,0.14682],[-1.95025,-7.76119]]],&quot;closed&quot;:true}]}" fill="#7a1010" stroke="none" stroke-width="0.5"/><path d="M219.3251,236.15677l0.02536,-0.07715c1.65209,0.24887 1.34136,3.9676 0.18361,4.88898c-0.14988,0.11927 -2.06877,-0.5582 -2.09004,-0.56836c-2.9803,-1.42562 -1.335,-2.78226 0.09025,-4.40963c0.14373,-0.16411 0.29879,-0.35756 0.44773,-0.55438c0.40095,0.71386 1.34309,0.72054 1.34309,0.72054z" data-paper-data="{&quot;noHover&quot;:false,&quot;origItem&quot;:[&quot;Path&quot;,{&quot;applyMatrix&quot;:true,&quot;segments&quot;:[[[435.96942,470.97228],[0.8019,1.42772],[-0.29789,0.39365]],[[435.09454,472.07775],[0.28746,-0.32822],[-2.85051,3.25473]],[[434.91805,480.70506],[-5.96059,-2.85125],[0.04253,0.02034]],[[439.0228,481.84805],[-0.29975,0.23855],[2.31552,-1.84276]],[[438.65131,472.24605],[3.30418,0.49774],[0,0]],[438.59999,472.4]],&quot;closed&quot;:true}]}" fill="#ffffff" stroke="none" stroke-width="0.5"/><path d="M217.07814,255.70001c0.18571,0.77405 0.47111,1.53541 0.65653,1.56437c1.9189,0.29964 2.68634,-2.32254 1.06533,-1.56437zM218.8,252.70001c1.02022,0.14644 2.27811,-0.23141 3.06066,0.43934c0.65753,0.5636 0.39635,1.6957 0.43934,2.56066c0.15662,3.1513 -1.96022,5.57757 -5.43467,4.43564c-3.02689,-0.99483 -2.84383,-3.3615 -2.56533,-5.93564c0.09315,-0.861 -0.17303,-1.94829 0.43934,-2.56066c0.61237,-0.61237 1.7071,-0.2929 2.56066,-0.43934c0,0 1.5,0 1.5,1.5z" fill="#ffffff" stroke="none" stroke-width="0.5"/><path d="M216.17917,278.06122c-0.49157,0.25737 -0.89337,0.59687 -0.55666,0.931c0.32556,0.32307 0.82443,1.18598 1.10346,0.82197c0.35965,-0.46916 0.18098,-1.17283 0.35716,-1.73712l-0.75747,0.04596c0,0 -0.05792,-0.0193 -0.14649,-0.06181zM218.22056,275.71833l1.2963,0.60462c0.08101,1.0739 0.51627,2.17999 0.24301,3.2217c-1.7809,6.78923 -10.43336,0.3345 -5.37036,-4.03669c0.52216,-0.45081 1.29076,-0.48731 1.93615,-0.73097c0,0 1.41812,-0.4727 1.8949,0.94134z" fill="#ffffff" stroke="none" stroke-width="0.5"/><path d="M220.8,201.20001c0,0 0,-1.5 1.5,-1.5c1.5,0 1.5,1.5 1.5,1.5c0,0.11221 0,0.22441 0,0.33662c0.5,0.44225 0.5,1.16338 0.5,1.16338v1.00402c-0.00417,0.91886 -0.15549,1.82792 -0.39968,2.72133l0.37248,0.06207l-0.48915,2.93486c-0.1074,0.72302 -0.73074,1.27772 -1.48364,1.27772c-0.82843,0 -1.5,-0.67157 -1.5,-1.5c0,-2.16666 0,-5.83334 0,-8z" fill="#570b0b" stroke="none" stroke-width="0.5"/><path d="M177.36066,288.26067c-1.06066,1.06066 -2.12132,0 -2.12132,0l0.56066,-0.06066c-0.5,0 -1,0 -1.5,0c0,0 -1.5,0 -1.5,-1.5c0,-1.5 1.5,-1.5 1.5,-1.5c0.5,0 1,0 1.5,0l1.56066,0.93934c0,0 1.06066,1.06066 0,2.12132z" fill="#000000" stroke="none" stroke-width="0.5"/><path d="M250.64558,285.2c0.21814,-0.27539 0.57397,-0.5 1.15442,-0.5c1.5,0 1.5,1.5 1.5,1.5l-1.5,2c-0.5,0 -1,0 -1.5,0c0,0 -1.5,0 -1.5,-1.5c0,-1.5 1.5,-1.5 1.5,-1.5c0.11519,0 0.23039,0 0.34558,0z" fill="#000000" stroke="none" stroke-width="0.5"/><path d="M232.37045,230.14536c-0.12742,0.01283 -0.25163,0.02657 -0.37222,0.04149c-1.01435,0.14407 -2.02872,0.28813 -3.04307,0.4322l-0.08827,-0.02459l0.00073,0.02934l-2.993,0.0748c-0.01447,0.00041 -0.02898,0.00062 -0.04354,0.00062c-0.82843,0 -1.5,-0.67157 -1.5,-1.5c0,-0.1595 0.0249,-0.31319 0.07101,-0.45739c-1.03599,0.1985 -2.07165,0.40859 -3.11168,0.62862c-0.04824,0.42646 -0.27529,0.79872 -0.60439,1.04002l-1.98603,1.48952l-0.23854,-0.31804c-1.62559,1.26981 -3.46672,2.05617 -5.96236,2.10477c-1.79101,0.03489 -6.25681,0.17607 -4.70435,-2.73379c-2.81014,0.60376 -5.65537,1.03405 -8.36004,1.241c-0.32939,0.0252 -1.84027,0.06661 -3.31015,-0.00156c-0.23185,0.06123 -0.50087,0.06509 -0.79599,-0.04926c-1.10394,-0.08787 -2.04639,-0.2566 -2.24543,-0.56606c-0.27699,-0.43067 -0.42838,-0.8283 -0.48,-1.19472l-2.06257,0.29847c-0.07833,0.01263 -0.15868,0.01918 -0.24057,0.01918c-0.82843,0 -1.5,-0.67157 -1.5,-1.5c0,-0.7269 0.51706,-1.33304 1.20345,-1.47069l2.89972,-0.64438l0.04719,0.21234c0.41288,-0.06402 0.82521,-0.13164 1.23706,-0.20225c0.90208,-0.28916 1.81724,-0.53437 2.74262,-0.74033c1.27673,-1.74099 2.82302,-3.35443 4.38849,-3.15457c1.22379,0.15624 2.73539,1.05445 2.96002,2.26274c2.7751,-0.09845 5.5742,0.02995 8.32852,0.27167l0.17444,0.1191l0.02262,-0.06054l2.77757,1.03741c0.20454,0.071 0.38897,0.18501 0.54245,0.33122c0.25454,0.0371 0.50723,0.07396 0.7579,0.11039c2.64641,-0.57595 5.27034,-1.10565 7.90241,-1.58134c0.27382,-0.29359 0.66406,-0.47716 1.09719,-0.47716c0.09375,0 0.18549,0.0086 0.27447,0.02506l0.61883,0.10313c2.73238,-0.46401 5.48178,-0.86801 8.28223,-1.20342c0.9752,-0.1168 5.63637,-0.95084 6.44475,0.16419c0.67066,0.92505 0.12465,2.47211 -0.56875,3.38023c-0.22165,0.29029 -0.47997,0.54226 -0.76758,0.76148l0.69506,0.69506c0.27144,0.27144 0.43934,0.64644 0.43934,1.06066c0,0.31204 -0.09528,0.60182 -0.25833,0.84185c1.11905,0.93911 2.11426,1.88554 2.92176,2.71135l0.04355,0.14215l0.04109,-0.0274l0.98863,1.48293c0.16609,0.24143 0.2633,0.53392 0.2633,0.84912c0,0.82843 -0.67157,1.5 -1.5,1.5c-0.17815,0 -0.34904,-0.03105 -0.50756,-0.08804l-2.81283,-0.93761l0.10589,-0.31767c-2.37945,-0.65414 -4.26044,-1.69235 -7.05724,-3.37044l-1.0699,-1.61542c0,0 -0.30921,-0.61842 -0.08791,-1.22547z" fill="#fafafa" stroke="none" stroke-width="0.5"/><path d="M194.11176,263.0612c-1.55265,-0.87246 -3.30251,-1.39208 -5.31176,-1.36119c0,0 -2,0 -2,-2c0,-2 2,-2 2,-2c0.41715,0.00464 0.82574,0.02533 1.22609,0.06125c0.04993,-0.08577 0.10765,-0.1729 0.17391,-0.26125c1.2,-1.6 2.8,-0.4 2.8,-0.4l2,1.5c0.65409,0.49799 1.22559,0.98159 1.73827,1.47524c3.55097,2.25352 6.28665,5.82844 8.70124,9.47473c1.1858,1.79068 2.42656,3.67955 2.82772,5.78947c0.17286,0.90915 0.25983,1.83331 0.43474,2.74207c0.23662,1.22943 1.63346,2.73629 0.79934,3.66995c-2.47451,2.76979 -6.10239,0.55209 -7.73681,-1.26997c-1.1977,-1.33521 -1.16325,-3.39513 -1.82994,-5.0603c-0.36515,-0.91202 -1.17622,-1.60671 -1.51139,-2.53017c-0.75496,-2.08008 -1.05803,-4.31896 -1.93753,-6.34953c-0.74956,-1.51276 -1.38988,-2.51986 -2.37388,-3.48031zM202.44704,272.20936c0.58571,1.44671 1.30065,2.84641 1.7447,4.34158c0.01201,0.04044 0.04979,0.1101 0.10687,0.202c-0.08236,-1.15675 -0.09833,-2.29575 -0.31209,-2.70952c-0.36634,-0.70912 -1.01811,-1.22526 -1.53948,-1.83405z" fill="#d81c1c" stroke="none" stroke-width="0.5"/><path d="M196.71421,284.11422c-1.41421,1.41421 -2.82843,0 -2.82843,0l-1.39619,-1.40331c-1.71007,-1.28255 -2.88762,-2.01521 -4.26601,-3.78008c-0.83586,-1.07023 -1.57594,-2.39306 -2.81802,-2.94197c0,0 -1.78885,-0.89443 -0.89443,-2.68328c0.89443,-1.78885 2.68328,-0.89443 2.68328,-0.89443c3.31531,1.77761 4.84207,4.97252 7.91598,7.27795l1.60381,1.59669c0,0 1.41421,1.41421 0,2.82843z" fill="#d81c1c" stroke="none" stroke-width="0.5"/><text transform="translate(233.42257,121.40804) rotate(12.15379) scale(0.39416,0.39416)" font-size="40" xml:space="preserve" fill="#e81f1f" fill-rule="nonzero" stroke-opacity="0" stroke="#000000" stroke-width="2" stroke-linecap="butt" stroke-linejoin="miter" stroke-miterlimit="10" stroke-dasharray="" stroke-dashoffset="0" font-family="Marker" font-weight="normal" text-anchor="start" style="mix-blend-mode: normal"><tspan x="0" dy="0">SMILE</tspan></text><text transform="translate(196.42257,93.40804) rotate(12.15379) scale(0.39416,0.39416)" font-size="40" xml:space="preserve" fill="#e81f1f" fill-rule="nonzero" stroke-opacity="0" stroke="#000000" stroke-width="2" stroke-linecap="butt" stroke-linejoin="miter" stroke-miterlimit="10" stroke-dasharray="" stroke-dashoffset="0" font-family="Marker" font-weight="normal" text-anchor="start" style="mix-blend-mode: normal"><tspan x="0" dy="0">SMILE</tspan></text><text transform="translate(201.42257,98.40804) rotate(12.15379) scale(0.39416,0.39416)" font-size="40" xml:space="preserve" fill="#e81f1f" fill-rule="nonzero" stroke-opacity="0" stroke="#000000" stroke-width="2" stroke-linecap="butt" stroke-linejoin="miter" stroke-miterlimit="10" stroke-dasharray="" stroke-dashoffset="0" font-family="Marker" font-weight="normal" text-anchor="start" style="mix-blend-mode: normal"><tspan x="0" dy="0">SMILE</tspan></text><text transform="translate(256.42256,243.40804) rotate(12.15379) scale(0.39416,0.39416)" font-size="40" xml:space="preserve" fill="#e81f1f" fill-rule="nonzero" stroke-opacity="0" stroke="#000000" stroke-width="2" stroke-linecap="butt" stroke-linejoin="miter" stroke-miterlimit="10" stroke-dasharray="" stroke-dashoffset="0" font-family="Marker" font-weight="normal" text-anchor="start" style="mix-blend-mode: normal"><tspan x="0" dy="0">SMILE</tspan></text><text transform="translate(261.42257,248.40804) rotate(12.15379) scale(0.39416,0.39416)" font-size="40" xml:space="preserve" fill="#e81f1f" fill-rule="nonzero" stroke-opacity="0" stroke="#000000" stroke-width="2" stroke-linecap="butt" stroke-linejoin="miter" stroke-miterlimit="10" stroke-dasharray="" stroke-dashoffset="0" font-family="Marker" font-weight="normal" text-anchor="start" style="mix-blend-mode: normal"><tspan x="0" dy="0">SMILE</tspan></text><text transform="translate(262.42257,149.40804) rotate(12.15379) scale(0.39416,0.39416)" font-size="40" xml:space="preserve" fill="#e81f1f" fill-rule="nonzero" stroke-opacity="0" stroke="#000000" stroke-width="2" stroke-linecap="butt" stroke-linejoin="miter" stroke-miterlimit="10" stroke-dasharray="" stroke-dashoffset="0" font-family="Marker" font-weight="normal" text-anchor="start" style="mix-blend-mode: normal"><tspan x="0" dy="0">SMILE</tspan></text><path d="M270.59999,79.4v-16h10v16z" fill="#000000" stroke="none" stroke-width="0"/><text transform="translate(189.42257,127.40804) rotate(12.15379) scale(0.39416,0.39416)" font-size="40" xml:space="preserve" fill="#e81f1f" fill-rule="nonzero" stroke-opacity="0" stroke="#000000" stroke-width="2" stroke-linecap="butt" stroke-linejoin="miter" stroke-miterlimit="10" stroke-dasharray="" stroke-dashoffset="0" font-family="Marker" font-weight="normal" text-anchor="start" style="mix-blend-mode: normal"><tspan x="0" dy="0">SMILE</tspan></text></g></g></svg>