<svg version="1.1" xmlns="http://www.w3.org/2000/svg" xmlns:xlink="http://www.w3.org/1999/xlink" width="93.96131" height="318.2109" viewBox="0,0,93.96131,318.2109"><g transform="translate(-195.01162,90.57448)"><g data-paper-data="{&quot;isPaintingLayer&quot;:true}" fill-rule="nonzero" stroke-linecap="butt" stroke-linejoin="miter" stroke-miterlimit="10" stroke-dasharray="" stroke-dashoffset="0" style="mix-blend-mode: normal"><path d="M288.97294,-25.58859v253.22501h-91.18203v-253.22501z" data-paper-data="{&quot;index&quot;:null}" fill-opacity="0.01" fill="#000000" stroke="none" stroke-width="0"/><path d="M212.11693,-86.58893l0.90048,178.37306c0,0 -0.29514,2.92414 2.81569,2.90899c3.16509,-0.01543 2.8856,-2.93443 2.8856,-2.93443l2.18577,-181.04652l44.4529,1.32581l1.6749,179.4298c0,0 -0.48903,3.18076 2.94538,3.11562c2.89174,-0.05485 2.81625,-3.15415 2.81625,-3.15415l1.4124,-176.89577l9.86988,-3.66463c0,0 -1.35768,137.55718 -1.28109,183.79992c0.00788,7.40969 -8.24649,37.05448 -39.84884,36.89673c-32.01513,-0.15981 -40.25652,-28.76849 -40.20201,-36.9211c0.15799,-23.62814 -0.46024,-181.94506 -0.46024,-181.94506z" data-paper-data="{&quot;index&quot;:null}" fill="#ffffff" stroke="#ffffff" stroke-width="2"/><path d="M198.43411,177.14386c0,0 1.13009,-0.13353 2.37785,-0.0489c1.96848,0.1335 3.33013,0.79513 3.33013,0.79513c0,0 -0.1587,-5.44623 -2.09972,-10.95731c-2.05582,-5.83701 -7.03074,-10.87429 -7.03074,-10.87429c0,0 1.81269,-0.02547 4.03008,0.53093c2.12519,0.53325 4.23277,1.61795 4.23277,1.61795c0,0 -0.88651,-1.54882 -2.64658,-3.37722c-1.97601,-2.05272 -5.58396,-4.76989 -5.58396,-4.76989c0,0 2.71387,-0.75147 6.94665,0.34526c3.37796,0.87524 5.71704,2.7744 5.71704,2.7744c0,0 0.51401,-4.59757 3.23946,-12.24324c2.28668,-6.41478 6.18145,-9.70754 6.18145,-9.70754l0.1162,2.65484c0,0 9.76526,-10.41973 26.07151,-10.6752c17.29056,-0.14641 24.35066,10.87154 24.35066,10.87154l0.09205,-3.70421c0,0 2.30133,1.77794 3.43873,2.91273c1.13739,1.1348 2.16005,3.33274 2.16005,3.33274l1.15522,-2.34735c0,0 5.73552,7.74445 7.29782,17.22543c1.78019,10.34688 -1.31092,20.69498 -1.31092,20.69498c0,0 2.57723,-2.13812 3.80143,-3.14585c1.31255,-1.08046 4.0797,-3.13397 4.0797,-3.13397c0,0 -2.70683,8.01932 -6.15664,17.40016c-2.51599,6.84158 3.10545,43.10392 -41.53088,42.1903c-36.13551,-1.40065 -35.63121,-39.30319 -35.96775,-41.57382c-0.12832,-0.86574 -6.29161,-6.78761 -6.29161,-6.78761z" data-paper-data="{&quot;index&quot;:null}" fill="#ffffff" stroke="none" stroke-width="1.5"/><path d="M215.22002,165.82221c0.31517,-3.98297 2.32338,-6.52528 2.57636,-10.42801c0.34613,-5.33982 0.36559,-9.24796 1.12266,-15.24835c0.84062,-6.66262 4.39158,-9.51501 9.71551,-15.13975c4.99977,-5.28224 10.12465,-10.44883 13.93542,-10.38244c3.95981,0.06898 7.156,3.58557 13.01359,9.32173c5.85759,5.73615 8.89821,8.4806 10.01942,14.66081c1.79662,9.90308 1.58918,13.01886 2.20622,16.0397c0.61704,3.02084 2.72868,6.85131 3.15031,12.52053c0.3116,5.55792 2.06444,27.017 -0.71846,28.74062c-2.3579,1.46039 -4.38205,-6.06332 -12.95042,-9.59907c-6.83676,-3.0617 -14.67476,0.27706 -14.67476,0.27706c0,0 -4.84315,-1.99036 -3.51664,-0.4434c1.24776,1.45512 -4.65801,0.84444 -4.65801,0.84444c0,0 3.09767,1.5188 -4.97193,-0.86514c-10.5037,-3.103 -13.91429,-3.14424 -13.91429,-3.14424c0,0 -0.91209,-9.86125 -0.335,-17.15448z" data-paper-data="{&quot;index&quot;:null}" fill="#ffffff" stroke="#ffffff" stroke-width="1.5"/></g></g></svg>