<svg version="1.1" xmlns="http://www.w3.org/2000/svg" xmlns:xlink="http://www.w3.org/1999/xlink" width="96.14792" height="251.71852" viewBox="0,0,96.14792,251.71852"><g transform="translate(-188.60801,-53.9217)"><g data-paper-data="{&quot;isPaintingLayer&quot;:true}" stroke-miterlimit="10" stroke-dasharray="" stroke-dashoffset="0" style="mix-blend-mode: normal"><path d="M197.11457,304.52297c0,0 -0.68879,-102.32019 -0.86006,-127.93512c-0.05909,-8.83812 8.87527,-39.85238 43.58242,-40.02563c34.25965,-0.17101 43.2081,31.96647 43.19955,39.99921c-0.08303,50.13108 0.70931,127.90744 0.70931,127.90744l-11.37928,0.10422l-0.17218,-124.49975c0,0 0.08184,-3.35991 -3.05305,-3.41937c-3.72319,-0.07062 -3.19305,3.3776 -3.19305,3.3776l0.22276,124.52886l-52.26774,0.07829l-0.33108,-124.92253c0,0 0.30299,-3.16445 -3.12823,-3.18117c-3.3724,-0.01643 -3.05245,3.15359 -3.05245,3.15359l0.3828,124.74226z" fill="#f54e52" fill-rule="nonzero" stroke="#000000" stroke-width="2" stroke-linecap="butt" stroke-linejoin="miter"/><path d="M256.30256,191.71541c-0.61915,0 -1.12106,-0.50192 -1.12106,-1.12106c0,-0.61915 0.50192,-1.12108 1.12106,-1.12108c0.61915,0 1.12106,0.50193 1.12106,1.12108c0,0.61915 -0.50192,1.12106 -1.12106,1.12106z" fill="#000000" fill-rule="nonzero" stroke="none" stroke-width="1.5" stroke-linecap="butt" stroke-linejoin="miter"/><path d="M250.60041,196.30715c-4.83881,-0.34083 -7.10341,-1.94476 -6.68864,-2.79706c0.12779,-0.2626 3.08579,1.15298 7.55649,1.41451c6.94787,0.40645 9.22593,-0.68485 9.22593,-0.68485v1.45936c0,0 -2.61645,1.13473 -10.09377,0.60805z" fill="#000000" fill-rule="nonzero" stroke="#000000" stroke-width="0" stroke-linecap="butt" stroke-linejoin="miter"/><path d="M220.44902,190.59434c0,-0.61915 0.50192,-1.12108 1.12106,-1.12108c0.61915,0 1.12109,0.50193 1.12109,1.12108c0,0.61915 -0.50193,1.12106 -1.12109,1.12106c-0.61915,0 -1.12106,-0.50192 -1.12106,-1.12106z" fill="#000000" fill-rule="nonzero" stroke="none" stroke-width="1.5" stroke-linecap="butt" stroke-linejoin="miter"/><path d="M227.27225,196.30715c-7.47733,0.5267 -10.09377,-0.60806 -10.09377,-0.60806v-1.45935c0,0 2.27805,1.0913 9.22592,0.68485c4.47069,-0.26155 7.42871,-1.67712 7.5565,-1.41451c0.41477,0.85229 -1.84982,2.45623 -6.68864,2.79706z" fill="#000000" fill-rule="nonzero" stroke="#000000" stroke-width="0" stroke-linecap="butt" stroke-linejoin="miter"/><path d="M239.50123,257.61411c-0.88781,0 -1.60753,-0.71971 -1.60753,-1.60753c0,-0.88781 0.71971,-1.60752 1.60753,-1.60752c0.88781,0 1.60753,0.71971 1.60753,1.60752c0,0.88781 -0.71971,1.60753 -1.60753,1.60753z" data-paper-data="{&quot;index&quot;:null}" fill="#000000" fill-rule="nonzero" stroke="none" stroke-width="1.5" stroke-linecap="butt" stroke-linejoin="miter"/><path d="M213.41459,304.53863v-129.2246c0,0 0.82088,-10.54929 0.82088,-15.87033c0,-4.87622 -0.82088,-14.8381 -0.82088,-14.8381c0,0 2.89797,-2.55083 5.04718,-4.06323c2.14921,-1.5124 5.60686,-3.03946 5.60686,-3.03946c0,0 -0.65219,43.4816 15.78376,43.40534c16.73262,-0.07764 14.99458,-43.40534 14.99458,-43.40534c0,0 4.24177,1.64737 6.68431,3.19431c2.44254,1.54694 5.15352,3.90838 5.15352,3.90838c0,0 -0.82088,10.2171 -0.82088,15.38535c0,5.24907 0.82088,15.87033 0.82088,15.87033v128.67735z" fill="#332a28" fill-rule="nonzero" stroke="#000000" stroke-width="2" stroke-linecap="butt" stroke-linejoin="miter"/><g fill-rule="evenodd" stroke="none" stroke-width="0.1" stroke-linecap="round" stroke-linejoin="round"><g><path d="M251.81265,280.64882c-4.90241,0.8395 1.06373,3.21698 -3.81425,-0.07475c-7.51445,-5.07088 -38.4961,-136.09496 -41.5436,-139.33619c-3.04752,-3.24123 -5.44542,-15.86113 -7.69904,-21.60261c-2.25365,-5.74148 -3.81915,-6.96534 -5.549,-12.9221c-1.72983,-5.95677 -2.65304,-9.55232 -3.6272,-21.26758c-0.33952,-4.08281 1.14833,-9.91262 3.46687,-13.83541c4.3343,-7.33332 12.94626,-13.72474 27.93467,-16.70275c23.00611,-4.57104 35.93469,7.95507 37.80045,13.0427c1.86576,5.08764 1.63577,10.82948 2.26396,16.04664c0.62818,5.21713 1.51748,10.90408 1.52252,15.24916c0.00506,4.3451 -0.79999,7.9672 -1.03436,10.70792c-0.23437,2.74075 -0.4014,2.69716 -0.42688,5.73487c-0.02545,3.0377 0.46895,8.76451 -0.10626,14.42936c-0.46206,4.55036 14.51728,150.07343 9.39909,155.33717c-4.18835,4.30743 -10.65508,-88.63942 -16.17247,-81.77752c-1.17792,1.46497 -14.02246,-17.98146 -14.91311,-17.82895z" fill="#000000"/><path d="M237.55734,181.06009c-4.29498,0.79884 15.20978,102.4917 10.56123,99.28547c-6.25085,-4.31138 -36.00236,-134.60875 -40.34992,-139.73287c-4.34759,-5.12411 -4.78849,-14.92904 -6.70968,-19.99693c-1.92117,-5.0679 -3.84693,-6.6844 -5.90982,-13.73742c-2.0629,-7.05303 -1.67821,-8.817 -3.57732,-19.97422c-0.7327,-4.30114 0.61132,-9.68448 2.71109,-13.51648c4.10468,-7.49086 11.61258,-13.27945 26.05764,-16.14951c22.17213,-4.40534 32.99497,7.09355 34.50277,11.20515c1.50783,4.11161 2.21577,11.71294 2.58886,16.78187c0.37311,5.06893 2.10858,12.59752 1.83721,16.66667c-0.27138,4.06914 -0.79426,5.79398 -1.15761,8.13208c-0.36337,2.33808 -0.5871,3.1784 -0.61166,6.10598c-0.02454,2.92757 0.89432,8.45945 -0.08219,14.00865c-0.9765,5.54921 -4.87938,10.01722 -9.86702,15.7164c-3.82522,4.37095 8.38976,54.22771 3.64507,55.30314z" fill="#ffffff"/></g><g><path d="M190.51005,112.83738c-2.88519,-7.51265 -1.90107,-8.93792 -0.85431,-9.40394c1.04675,-0.46603 2.80185,0.98359 3.63489,2.27777c0.51562,0.80109 2.3496,6.23212 4.02212,10.2996c1.02949,2.50373 1.96478,4.52783 1.82022,4.7214c-0.37936,0.50801 -5.73772,-0.38218 -8.62293,-7.89483z" fill="#000000"/><path d="M190.326,104.11146c0.95785,-0.14469 2.13594,1.47631 2.13594,1.47631l0.78912,1.94495c-0.30287,0.06571 -0.55947,0.16999 -0.75935,0.31943c-0.31721,0.23716 -0.4945,0.57228 -0.55636,0.95724c-0.12366,0.76989 0.18541,1.75432 0.72565,2.80564c1.02734,1.99927 2.90405,4.21696 4.46345,5.46044l1.22455,3.06685c-0.79984,-0.15056 1.91519,31.88484 -0.46261,28.77526c-1.46371,-1.91417 -7.48985,-37.84113 -7.90772,-39.317c-1.09665,-3.87337 -0.82462,-5.01387 0.15915,-5.43534c0.06148,-0.02635 0.1244,-0.04405 0.18817,-0.05377zM196.91266,116.5546c-1.43445,-1.2585 -3.07885,-3.26533 -3.99782,-5.0537c-0.52928,-1.02993 -0.81228,-1.988 -0.70377,-2.6636c0.05425,-0.3378 0.20009,-0.60113 0.45529,-0.79194c0.16852,-0.12596 0.39574,-0.21798 0.68123,-0.2746z" fill="#ffffff"/></g><g><path d="M260.13563,110.10815c-0.18554,-0.14013 0.06178,-2.32158 0.23534,-5.01691c0.28196,-4.37874 0.30414,-10.1038 0.52495,-11.0229c0.35676,-1.48485 1.4861,-3.39839 2.55302,-3.27385c1.06692,0.12451 2.3619,1.18063 2.02209,9.20606c-0.33981,8.02541 -4.8485,10.47534 -5.33544,10.10759z" fill="#000000"/><path d="M263.05453,91.64364c0.05943,-0.01017 0.12059,-0.01246 0.18295,-0.00618c0.99786,0.10133 1.57649,1.10339 1.74829,5.12211c0.06546,1.53124 -0.152,4.69163 -0.88529,6.95837c-1.19124,3.68229 -2.77786,5.20345 -3.44331,5.59027l0.19579,-3.26152c1.01653,-1.65783 2.02668,-4.33907 2.34748,-6.55385c0.1687,-1.16465 0.15199,-2.19523 -0.18542,-2.88998c-0.16869,-0.34736 -0.42516,-0.61218 -0.77684,-0.74116c-0.22162,-0.08129 -0.48022,-0.10235 -0.76847,-0.07261l0.12539,-2.09052c0,0 0.56644,-1.90085 1.45943,-2.05494zM261.45438,96.04492c0.27016,-0.03309 0.49903,-0.01478 0.68585,0.05372c0.28295,0.10378 0.49027,0.30987 0.63831,0.61469c0.29606,0.60963 0.3282,1.60724 0.16285,2.74818c-0.28698,1.98114 -1.15324,4.39103 -2.05444,6.02512z" fill="#ffffff"/></g></g><path d="M244.19469,73.93751c0,0 1.58723,-0.57468 4.55807,-1.39949c2.71354,-0.75335 5.09752,-0.92512 5.09752,-0.92512l0.84649,0.96849c0,0 0.24529,17.35323 -2.886,19.05555c-3.19191,1.73528 -9.78022,-12.13717 -11.78402,-7.567c-7.1232,1.70811 -8.55261,5.42139 -8.55261,5.42139l-2.05332,-6.19122c0,0 1.91441,-3.35314 6.1971,-6.19c4.4347,-2.93754 7.80011,-4.06231 7.80011,-4.06231z" data-paper-data="{&quot;index&quot;:null}" fill="#000000" fill-rule="nonzero" stroke="none" stroke-width="1.5" stroke-linecap="butt" stroke-linejoin="miter"/><g fill-rule="nonzero" stroke-linecap="butt" stroke-linejoin="miter"><g stroke="none"><path d="M252.0259,133.16722c0,0 -0.12585,9.23474 -4.23242,15.71911c-1.69758,2.6805 -6.93293,4.03711 -10.87327,4.88308c-4.2461,0.91164 -8.11136,0.6685 -11.07803,-1.33275c-6.34912,-4.28299 -10.35311,-12.47895 -10.35311,-12.47895c0,0 4.93554,-10.32533 9.85852,-11.24029c1.4546,-0.27036 7.89796,0.97981 7.89796,0.97981c0,0 4.27231,-4.67138 6.96632,-4.1245c6.65265,1.35048 11.81404,7.5945 11.81404,7.5945z" fill="#000000" stroke-width="0"/><path d="M220.11352,134.41296c3.18616,-3.27545 6.08623,-4.80032 8.61206,-3.9818c2.50845,0.73921 9.58016,1.55864 0.7745,4.29436c-2.13544,1.83971 -6.5266,3.09859 -10.56053,3.08849l-1.97709,-0.00081l3.15104,-3.40012z" data-paper-data="{&quot;noHover&quot;:false,&quot;origItem&quot;:[&quot;Path&quot;,{&quot;applyMatrix&quot;:true,&quot;segments&quot;:[[161.20514,198.58172],[160.4903,199.0575],[[160.84968,199.12982],[0,0],[0.73828,0.16367]],[[162.81452,198.99279],[-0.46484,0.25122],[0.5,-0.25883]],[[162.91999,198.24676],[0.42969,0.23599],[-0.42969,-0.25121]],[[161.20515,198.58171],[0.71484,-0.47198],[0,0]]],&quot;closed&quot;:true,&quot;fillColor&quot;:[0,0,0]}]}" fill="#ffffff" stroke-width="0.5"/><path d="M238.2061,127.7624c1.79124,-0.3924 3.40425,0.15131 7.02781,2.47538l4.38298,2.93535l-4.41601,0.70992c-3.17082,0.42441 -5.22011,0.27428 -6.43043,-0.4791c-0.88923,-0.55351 -6.55909,-0.61671 -6.92547,-0.53644c-0.87527,0.19174 0.64826,1.83644 1.00624,-0.42451c0.18872,-1.47556 3.60435,-4.29707 5.3549,-4.68056z" data-paper-data="{&quot;noHover&quot;:false,&quot;origItem&quot;:[&quot;Path&quot;,{&quot;applyMatrix&quot;:true,&quot;segments&quot;:[[[164.76764,198.12116],[0,0],[-0.33594,0]],[[164.24421,198.44469],[0.09375,-0.26263],[-0.15625,0.39966]],[[164.26764,198.87099],[-0.16797,0],[0.07031,0]],[[164.65827,199.1184],[-0.14063,-0.13703],[0.19141,0.18651]],[[165.74421,199.44193],[-0.59766,-0.04948],[0,0]],[166.56452,199.50664],[[165.87311,198.8177],[0,0],[-0.57031,-0.57094]],[[164.76764,198.12115],[0.34375,0],[0,0]]],&quot;closed&quot;:true,&quot;fillColor&quot;:[0,0,0]}]}" fill="#ffffff" stroke-width="0.5"/><path d="M237.35635,141.80835c-0.90752,0.53138 -2.79048,0.93585 -3.61313,0.78349c-1.15843,-0.22433 -0.55409,-0.80282 1.78673,-1.31562c2.6839,-0.50478 3.23273,-0.25394 1.82641,0.53219z" data-paper-data="{&quot;noHover&quot;:false,&quot;origItem&quot;:[&quot;Path&quot;,{&quot;applyMatrix&quot;:true,&quot;segments&quot;:[[[163.70514,200.50008],[0.51172,0.01523],[-0.44922,0]],[[163.37311,200.61427],[-0.20313,-0.08755],[0.14453,0.0609]],[[163.96686,200.61427],[-0.1875,0.0609],[0.28906,-0.08754]]],&quot;closed&quot;:true,&quot;fillColor&quot;:[0,0,0]}]}" fill="#ffffff" stroke-width="0.5"/><path d="M217.04432,139.58095c-0.08689,-0.39665 3.00755,-0.56541 6.21266,-0.24902c1.19343,0.09193 4.02918,1.42202 5.73623,2.69017c5.28234,3.95612 9.27523,3.05028 12.41983,-2.75191c1.77898,-3.17502 2.65434,-3.83599 5.19871,-4.39338l2.81882,-0.60059l-0.48055,3.68892c-1.1364,8.54251 -3.25747,11.10591 -11.46055,12.90294c-8.61021,1.88622 -11.23962,0.8459 -16.83339,-6.28459c-1.91537,-2.51119 -3.55523,-4.74454 -3.61172,-5.00238z" data-paper-data="{&quot;noHover&quot;:false,&quot;origItem&quot;:[&quot;Path&quot;,{&quot;applyMatrix&quot;:true,&quot;segments&quot;:[[[160.43168,199.4191],[0,0],[0,0.04948]],[[160.89653,200.46582],[-0.25,-0.53668],[0.73828,1.53012]],[[163.66996,202.23573],[-1.65235,0],[1.57422,0]],[[166.24418,200.38969],[-0.55078,1.5187],[0,0]],[166.48246,199.74262],[[165.9434,199.74262],[0,0],[-0.48828,0]],[[164.90825,200.30214],[0.45313,-0.51004],[-0.80859,0.93634]],[[162.43168,200.30214],[0.80859,0.93634],[-0.26172,-0.3007]],[[161.57621,199.62843],[0.21485,0.06471],[-0.57422,-0.18651]],[[160.43168,199.41908],[0,-0.07612],[0,0]]],&quot;closed&quot;:true,&quot;fillColor&quot;:[0,0,0]}]}" fill="#ffffff" stroke-width="0.5"/></g><path d="M229.42297,142.46873c1.16105,-0.07817 1.95844,1.53417 2.75853,1.64696c3.0711,0.43296 3.88282,0.36496 3.88282,0.36496c0,0 0.9885,0.08367 2.97624,-1.03503c0.76742,-0.4319 1.63582,-2.33981 2.48819,-3.11359c0.65548,-0.59504 1.07737,-2.78189 1.5536,-2.96697c0.79521,-0.30906 1.00027,-1.32199 1.9417,-1.80793c1.53624,-0.79297 3.71318,-1.02831 3.80781,-0.7944c0.04523,0.11178 2.88195,8.0727 2.24608,14.08646c-0.54999,5.20144 2.80801,10.20325 0.98138,12.4938c-1.61797,2.02891 -6.16422,-7.7645 -8.95058,-9.99573c-2.43193,-1.94739 -3.02557,3.69082 -5.61987,4.2951c-1.87985,0.44927 -3.56519,8.53094 -5.8459,8.88344c-2.99795,0.46335 0.39575,-7.60397 -2.4042,-10.00177c-1.54626,-1.32417 -1.09371,10.86041 -2.86042,10.00179c-3.27294,-1.59063 -2.90399,-13.53837 -5.24612,-17.79255c-1.93512,-3.51489 -4.05219,-6.86327 -4.05432,-6.90917c-0.00799,-0.17325 0.51798,-0.38488 4.95076,0.0621c0.36951,0.03726 4.3106,0.6332 4.74285,0.6041z" fill="#ffffff" stroke="#000000" stroke-width="1.9"/></g><path d="M232.16896,130.0428c-1.1046,0.18915 -4.37716,-2.83646 -5.02766,-5.0384c-0.58201,-1.97013 0.7048,-4.33097 3.34577,-4.78321c2.64097,-0.45224 4.57989,-0.24449 5.07258,3.73817c0.41813,3.37998 -0.74974,5.63119 -3.39069,6.08344z" fill="#ffffff" fill-rule="nonzero" stroke="#000000" stroke-width="1.15" stroke-linecap="butt" stroke-linejoin="miter"/><path d="M230.51142,97.22762c0,0 0.83601,4.22304 1.31018,7.61397c0.67697,4.84119 -0.34992,33.67066 0.97742,49.10208c0.51365,5.97161 -3.14428,10.51172 -3.14428,10.51172c0,0 -11.41537,14.2881 -12.61586,13.06968c-1.06021,-1.07603 5.7813,-16.50626 5.7813,-16.50626c0,0 -0.37723,-7.17681 0.8515,-13.07174c1.75476,-8.41858 4.72563,-19.32149 3.95105,-22.63488c-1.78262,-7.62547 -1.46161,-17.32757 -2.40804,-20.83804c-0.89712,-3.32759 -2.00296,-5.94222 -2.00296,-5.94222" fill="#ffffff" fill-rule="nonzero" stroke="#000000" stroke-width="1.3" stroke-linecap="round" stroke-linejoin="miter"/><path d="M201.99031,102.31664c-0.81931,-5.24011 3.5348,-10.43381 9.29032,-11.33372c5.7555,-0.89991 10.42327,2.88776 11.24259,8.12788c0.81931,5.24011 -2.45799,12.13093 -8.21351,13.03085c-5.7555,0.89991 -11.5001,-4.58488 -12.3194,-9.825z" fill="#ffffff" fill-rule="nonzero" stroke="#000000" stroke-width="1.4" stroke-linecap="butt" stroke-linejoin="miter"/><path d="M230.90094,97.36671c-0.67696,-5.2604 3.13688,-10.28029 8.81917,-11.25335c5.68227,-0.97305 10.63585,2.54084 11.53104,7.76852c0.8952,5.22768 -1.97258,20.0488 -5.64111,29.35716c-6.20251,-9.95609 -14.00212,-20.37864 -14.70909,-25.87235z" fill="#ffffff" fill-rule="nonzero" stroke="#000000" stroke-width="1.4" stroke-linecap="butt" stroke-linejoin="miter"/><text transform="translate(206.56739,109.27847) rotate(-10.0806) scale(0.4036,0.4036)" font-size="40" xml:space="preserve" fill="#000000" fill-rule="nonzero" stroke="none" stroke-width="1" stroke-linecap="butt" stroke-linejoin="miter" stroke-miterlimit="10" stroke-dasharray="" stroke-dashoffset="0" font-family="Sans Serif" font-weight="normal" text-anchor="start" style="mix-blend-mode: normal"><tspan x="0" dy="0">M</tspan></text><path d="M239.36998,95.70859c-0.07604,-3.05449 2.33847,-5.59229 5.39297,-5.66833c3.05449,-0.07604 5.59229,2.33847 5.66833,5.39297c0.0408,1.63919 -1.15301,11.72985 -2.48226,17.94453c-1.1477,5.36584 -2.45459,7.20718 -2.46092,5.79145c-0.01499,-3.34757 -6.04208,-20.40613 -6.11812,-23.46062z" fill="#000000" fill-rule="nonzero" stroke="none" stroke-width="1.5" stroke-linecap="butt" stroke-linejoin="miter"/><path d="M201.81982,101.76051c0,0 -1.58165,-9.64457 9.71286,-11.36946c10.15042,-1.55575 11.93172,8.30347 11.93172,8.30347z" fill="#ffffff" fill-rule="nonzero" stroke="#000000" stroke-width="1.15" stroke-linecap="butt" stroke-linejoin="miter"/><path d="M230.42385,97.00625c0,0 -1.99442,-10.06122 10.29987,-11.77608c10.44103,-1.42118 11.96719,8.56693 11.96719,8.56693z" fill="#ffffff" fill-rule="nonzero" stroke="#000000" stroke-width="1.15" stroke-linecap="butt" stroke-linejoin="miter"/><path d="M197.42149,303.59035v-124.94086l8.8954,2.5l0.5,122.44086z" fill="#ffffff" fill-rule="nonzero" stroke="none" stroke-width="0" stroke-linecap="butt" stroke-linejoin="miter"/><path d="M273.12676,303.59035v-124.60904l9.07609,-2.5l0.5,127.10904z" fill="#ffffff" fill-rule="nonzero" stroke="none" stroke-width="0" stroke-linecap="butt" stroke-linejoin="miter"/><g fill-rule="nonzero" stroke="none" stroke-linecap="butt" stroke-linejoin="miter"><path d="M279.33047,168.50125c0,2.52795 -1.72041,7.05643 -3.99556,7.05643c-2.27515,0 -4.24349,-4.52849 -4.24349,-7.05643c0,-2.52795 1.84438,-4.57725 4.11952,-4.57725c2.27515,0 4.11952,2.0493 4.11952,4.57725z" fill="#ffb66d" stroke-width="0"/><path d="M277.14444,170.77094c-0.16402,0.2115 -0.33745,0.65753 -0.83662,0.62733c-0.00959,-0.00349 -1.51032,3.48869 -1.51032,3.48869c-0.04789,-0.01748 -0.61428,-3.57761 -0.68133,-3.60207c-0.26822,-0.09788 0.13153,-0.51819 0.12663,-0.80219c-0.00244,-0.14202 0.05696,-0.30485 0.14074,-0.4154c0.007,-0.01917 0.02007,-0.02525 0.04273,-0.02784l0.00396,-0.00182c-0.05243,-0.09531 -0.08218,-0.20156 -0.08548,-0.31014c-0.16389,0.09216 -0.8236,1.94654 -1.03435,1.86962l-0.14311,-0.99866c-0.27781,-0.10138 0.11844,-1.18149 0.10306,-1.43676c-0.1569,0.07302 -0.58256,3.08393 -0.76456,3.01752c-0.30654,-0.11188 -0.19168,-3.31223 -0.17301,-3.63106l0.0316,-0.20556c0.09648,-0.56182 0.30793,-1.08168 0.61515,-1.5666c0.32197,-0.43609 0.60601,-0.44101 0.78801,-0.37457c0.16284,0.05943 0.26897,0.18501 0.31492,0.38631c0.18501,-0.269 0.53714,-0.40099 0.8341,-0.29263l0.01916,0.00699c0.20118,0.07342 0.33163,0.2513 0.38276,0.49791c0.1911,-0.25592 0.53015,-0.38185 0.81752,-0.27698l0.00957,0.0035c0.28739,0.10489 0.46561,0.41961 0.45044,0.72885c0.23457,-0.19662 0.44714,-0.18417 0.58126,-0.13523l0.08621,0.03146c0.30654,0.11188 0.45514,0.44832 0.38843,0.86905c-0.03111,0.18835 -0.06368,0.35292 -0.10123,0.50619c0.08735,0.14269 0.13507,0.33857 0.12172,0.59766c0,0 0,-0.00001 -0.00349,0.00957c-0.04419,0.53749 -0.21899,1.01645 -0.52437,1.4369zM274.66838,170.02964c0.05503,0.05534 0.1193,0.10495 0.19131,0.13496c0.00585,0.00238 0.01169,0.00477 0.01766,0.00693l0.00958,0.00349c0.26822,0.09788 0.53929,-0.02028 0.63369,-0.27892l0.05243,-0.14368l0.3426,-0.93878c0.02096,-0.05747 0.07327,-0.0818 0.13074,-0.06083c0.05747,0.02098 0.08182,0.07327 0.06085,0.13074l-0.3426,0.93877c-0.0839,0.22991 0.04476,0.47225 0.28425,0.55965l0.08621,0.03146c0.29696,0.10838 0.50022,-0.12139 0.59448,-0.26067l0.13969,-0.26382c0.23017,-0.4615 0.35129,-0.75789 0.44899,-1.09844c0.04885,-0.18086 0.08886,-0.37363 0.128,-0.60149c0.05516,-0.24041 0.00586,-0.55149 -0.24319,-0.64238l-0.08621,-0.03146c-0.15325,-0.05594 -0.30666,0.00748 -0.46021,0.19026c-0.03315,0.03132 -0.08197,0.04608 -0.12028,0.0321l-0.09579,-0.03496c-0.04788,-0.01748 -0.0818,-0.07328 -0.06083,-0.13076c0.08481,-0.26214 -0.0551,-0.56287 -0.29458,-0.65027l-0.00958,-0.00349c-0.23948,-0.0874 -0.54021,0.05252 -0.64418,0.30766c-0.01748,0.04789 -0.08286,0.07832 -0.13074,0.06085l-0.09579,-0.03496c-0.03832,-0.01398 -0.06966,-0.04712 -0.06524,-0.08893c-0.00504,-0.16466 -0.06314,-0.39212 -0.2643,-0.46554l-0.01916,-0.00699c-0.23948,-0.0874 -0.54022,0.05252 -0.64418,0.30766c-0.01748,0.04788 -0.08284,0.07831 -0.13074,0.06083l-0.09581,-0.03496c-0.04789,-0.01748 -0.06966,-0.04713 -0.07832,-0.08286c-0.02679,-0.19432 -0.0946,-0.30591 -0.20956,-0.34785c-0.17243,-0.06294 -0.35289,0.0449 -0.54398,0.30081c-0.29324,0.44657 -0.48811,0.9508 -0.58369,1.48039l-0.02811,0.19599c-0.01943,0.23173 0.05188,0.33373 0.28181,0.41763c0.22031,0.08042 0.43909,-0.01343 0.51251,-0.2146l0.2552,-0.69928c0.02096,-0.05747 0.07328,-0.08182 0.13076,-0.06085c0.05747,0.02098 0.08181,0.07328 0.06085,0.13076l-0.2552,0.69929l-0.02447,0.06705l-0.014,0.03832c-0.09089,0.24907 0.04034,0.51407 0.30856,0.61195l0.01917,0.007c0.26822,0.09788 0.53931,-0.02028 0.63019,-0.26935l0.29366,-0.80464c0.02096,-0.05747 0.07327,-0.08181 0.13074,-0.06085c0.05747,0.02098 0.08181,0.07327 0.06085,0.13075l-0.29366,0.80465l-0.06644,0.182c-0.06154,0.1686 -0.01837,0.35043 0.09608,0.47965zM277.48241,169.30944c0.00272,-0.09671 -0.00763,-0.18733 -0.01189,-0.26487c-0.10579,0.31961 -0.22984,0.6 -0.40708,0.93694l-0.14319,0.27338c-0.10229,0.16601 -0.22626,0.28137 -0.36249,0.34384c-0.15087,0.07338 -0.31735,0.08106 -0.48649,0.01933l-0.0862,-0.03146c-0.19892,-0.07259 -0.34223,-0.20994 -0.39996,-0.37982c-0.18401,0.19553 -0.47656,0.26619 -0.74892,0.1668l-0.00959,-0.0035l-0.00958,-0.0035c-0.09785,-0.03572 -0.18282,-0.0894 -0.2527,-0.15551l-0.02677,-0.00076c-0.05062,0.07921 -0.08907,0.1846 -0.0883,0.27171c-0.00376,0.24829 0.19375,0.45064 0.45772,0.47098l1.36157,0.10612c0.35108,0.01958 0.54384,-0.18146 0.72795,-0.4182c0.28534,-0.3952 0.44267,-0.82627 0.48594,-1.33152z" fill="#e2a261" stroke-width="1"/><path d="M277.05608,170.675c-0.12199,0.1569 -0.2653,0.31202 -0.45027,0.39313c-0.09416,0.04129 -0.19911,0.0634 -0.31754,0.05678l-1.21051,2.57491c-0.4127,2.9051 -0.69836,-2.95077 -0.6946,-3.19907c-0.00077,-0.08711 0.03552,-0.20367 0.08614,-0.28289l0.16323,-0.01451c0.06989,0.06611 0.15287,0.10942 0.25072,0.14513l0.00949,0.00315l0.00949,0.00317c0.27234,0.09939 0.56249,0.02173 0.7465,-0.1738c0.05773,0.16989 0.13497,0.26439 0.33389,0.33698l0.07609,0.03258c0.16915,0.06173 0.29773,0.07498 0.4486,0.00159c0.13621,-0.06247 0.24347,-0.14552 0.34577,-0.31152l0.14185,-0.25471c0.17725,-0.33695 0.31277,-0.58357 0.41856,-0.90316c0.00426,0.07754 0.13331,0.09973 0.13059,0.19644c-0.04327,0.50523 -0.20262,1.00057 -0.48797,1.39576z" data-paper-data="{&quot;noHover&quot;:false,&quot;origItem&quot;:[&quot;Path&quot;,{&quot;applyMatrix&quot;:true,&quot;segments&quot;:[[[273.91213,176.61986],[-0.03151,0.36793],[0.00198,-0.07043]],[[273.90347,176.42697],[0.0031,0.05647],[-0.07704,0.23275]],[[273.60702,177.1093],[0.12908,-0.24538],[0,0]],[[273.50274,177.30839],[0,0],[-0.07449,0.12089]],[[273.23877,177.55879],[0.0992,-0.04549],[-0.10987,0.05344]],[[272.88449,177.57287],[0.12318,0.04495],[0,0]],[[272.82171,177.54996],[0,0],[-0.14486,-0.05286]],[[272.53043,177.27336],[0.04204,0.12372],[-0.134,0.14239]],[[271.98505,177.39483],[0.19833,0.07238],[0,0]],[271.97807,177.39228],[[271.9711,177.38973],[0,0],[-0.07126,-0.02601]],[[271.78706,177.27648],[0.0509,0.04814],[0,0]],[[271.76757,177.27592],[0,0],[-0.03686,0.05769]],[[271.70326,177.4738],[-0.00056,-0.06344],[-0.00274,0.18081]],[[272.03659,177.81679],[-0.19222,-0.01481],[0,0]],[[273.02814,177.89407],[0,0],[0.25567,0.01426]],[[273.55825,177.58952],[-0.13407,0.17242],[0.2078,-0.2878]]],&quot;closed&quot;:true,&quot;fillColor&quot;:[0,0,0,1]}]}" fill="#f54e52" stroke-width="0.5"/><path d="M274.54607,169.61346l0.06587,-0.18224l0.26629,-0.82565c0.02096,-0.05747 -0.00866,-0.18641 -0.06612,-0.20739c-0.05747,-0.02098 0.01819,0.04172 -0.00278,0.0992l-0.3227,0.74455c-0.09089,0.24907 -0.60144,1.21287 -0.86965,1.11499l-0.19322,1.13287c-0.26822,-0.09788 -0.09137,-2.27307 -0.00048,-2.52214l0.0136,-0.03972l0.02384,-0.06963l0.25638,-0.73414c0.02096,-0.05747 -0.00161,-0.11489 -0.05908,-0.13588c-0.05747,-0.02098 0.01987,0.04835 -0.0011,0.10583l-0.25301,0.66831c-0.07342,0.20116 -0.42705,0.32051 -0.64738,0.24011c-0.06526,-0.02382 -0.16746,3.1728 -0.20889,3.14201c-0.10454,-0.07768 -0.0884,-3.40672 -0.07448,-3.57266l0.02819,-0.2015c0.09558,-0.52958 0.30729,-1.07518 0.60053,-1.52175c0.19109,-0.25591 0.38461,-0.37532 0.55704,-0.31238c0.11495,0.04196 0.26076,0.26657 0.28755,0.46087c0.00866,0.03573 -0.04773,-0.04754 0.00017,-0.03006l0.09778,0.03366c0.04789,0.01748 0.11824,-0.01581 0.13572,-0.06371c0.10397,-0.25514 0.43102,-0.40265 0.67051,-0.31526l0.01986,0.00694c0.20118,0.07342 0.27103,0.30105 0.27607,0.46571c-0.00441,0.04182 0.03087,0.07549 0.06917,0.08946l0.10114,0.03605c0.04789,0.01748 0.11876,-0.01136 0.13625,-0.05925c0.10397,-0.25514 0.42133,-0.38685 0.66082,-0.29946l0.00987,0.00369c0.23948,0.0874 0.39748,0.40623 0.31266,0.66836c-0.02096,0.05747 0.01607,0.11832 0.06395,0.13579l0.09725,0.03769c0.03832,0.014 -0.03598,0.06004 -0.00283,0.02873c0.15354,-0.18279 0.43085,-0.30537 0.58411,-0.24944l0.08697,0.03316c0.24907,0.09089 0.30352,0.42056 0.24837,0.66097c-0.03913,0.22786 -0.07906,0.43784 -0.12791,0.6187c-0.0977,0.34054 -0.23177,0.66947 -0.46194,1.13096l-0.14518,0.27033c-0.09425,0.13928 -0.31216,0.38073 -0.60912,0.27236l-0.08782,-0.03053c-0.23948,-0.0874 -0.43607,-0.44909 -0.35217,-0.67899l0.31202,-0.90145c0.02096,-0.05747 -0.00521,-0.10335 -0.06267,-0.12432c-0.05747,-0.02098 0.0222,0.04077 0.00124,0.09824l-0.3791,0.97942l-0.05704,0.1456c-0.0944,0.25864 -0.39424,0.38099 -0.66246,0.28309l-0.00999,-0.00353c-0.00598,-0.00218 -0.01256,-0.00462 -0.01839,-0.00699c-0.07201,-0.03001 -0.14513,-0.08096 -0.20016,-0.13631c-0.11446,-0.12921 -0.1691,-0.31464 -0.10757,-0.48325z" data-paper-data="{&quot;noHover&quot;:false,&quot;origItem&quot;:[&quot;Path&quot;,{&quot;applyMatrix&quot;:true,&quot;segments&quot;:[[[271.86285,177.14434],[-0.08335,-0.0941],[0.04007,0.0403]],[[272.00217,177.24262],[-0.05244,-0.02185],[0.00426,0.00173]],[[272.01503,177.24767],[-0.00435,-0.00159],[0,0]],[[272.022,177.25022],[0,0],[0.19533,0.07128]],[[272.48348,177.04709],[-0.06874,0.18835],[0,0]],[272.52167,176.94245],[[272.77117,176.25881],[0,0],[0.01527,-0.04185]],[[272.86638,176.21451],[-0.04185,-0.01528],[0.04185,0.01528]],[[272.91069,176.30972],[0.01527,-0.04185],[0,0]],[[272.66119,176.99337],[0,0],[-0.0611,0.16742]],[[272.86819,177.40093],[-0.1744,-0.06365],[0,0]],[[272.93097,177.42384],[0,0],[0.21625,0.07892]],[[273.36389,177.234],[-0.06864,0.10143],[0,0]],[[273.46562,177.04189],[0,0],[0.16762,-0.33608]],[[273.79258,176.24196],[-0.07115,0.248],[0.03557,-0.13171]],[[273.88579,175.80393],[-0.0285,0.16593],[0.04017,-0.17507]],[[273.70869,175.33613],[0.18138,0.06619],[0,0]],[[273.64591,175.31322],[0,0],[-0.11161,-0.04074]],[[273.31077,175.45178],[0.11181,-0.13311],[-0.02414,0.02281]],[[273.22318,175.47515],[0.0279,0.01019],[0,0]],[[273.15342,175.44969],[0,0],[-0.03487,-0.01273]],[[273.10911,175.35447],[-0.01527,0.04185],[0.06176,-0.1909]],[[272.89459,174.88093],[0.1744,0.06365],[0,0]],[[272.88761,174.87838],[0,0],[-0.1744,-0.06365]],[[272.4185,175.10243],[0.07572,-0.1858],[-0.01273,0.03488]],[[272.32328,175.14674],[0.03488,0.01273],[0,0]],[[272.25352,175.12128],[0,0],[-0.0279,-0.01018]],[[272.20601,175.05651],[-0.00321,0.03045],[-0.00367,-0.11991]],[[272.01354,174.71749],[0.1465,0.05346],[0,0]],[[271.99959,174.7124],[0,0],[-0.1744,-0.06365]],[[271.53047,174.93645],[0.07572,-0.1858],[-0.01273,0.03487]],[[271.43526,174.98074],[0.03488,0.01273],[0,0]],[[271.36549,174.95528],[0,0],[-0.03488,-0.01273]],[[271.30846,174.89494],[0.00631,0.02602],[-0.01951,-0.14151]],[[271.15585,174.64162],[0.08371,0.03055],[-0.12557,-0.04583]],[[270.7597,174.86068],[0.13916,-0.18636],[-0.21355,0.32521]],[[270.33464,175.93875],[0.06961,-0.38566],[0,0]],[[270.31417,176.08148],[0,0],[-0.01415,0.16875]],[[270.51938,176.38561],[-0.16743,-0.0611],[0.16044,0.05856]],[[270.89261,176.22934],[-0.05347,0.14649],[0,0]],[[271.07846,175.72009],[0,0],[0.01527,-0.04185]],[[271.17368,175.67578],[-0.04185,-0.01528],[0.04185,0.01528]],[[271.21799,175.77101],[0.01527,-0.04185],[0,0]],[271.03214,176.28026],[271.01432,176.32909],[[271.00413,176.35699],[0,0],[-0.06619,0.18138]],[[271.22884,176.80264],[-0.19533,-0.07128],[0,0]],[[271.2428,176.80773],[0,0],[0.19533,0.07128]],[[271.70173,176.61158],[-0.06619,0.18138],[0,0]],[[271.91558,176.02561],[0,0],[0.01527,-0.04185]],[[272.01079,175.9813],[-0.04185,-0.01528],[0.04185,0.01528]],[[272.0551,176.07652],[0.01527,-0.04185],[0,0]],[271.84125,176.6625],[[271.79287,176.79505],[0,0],[-0.04481,0.12278]]],&quot;closed&quot;:true,&quot;fillColor&quot;:[0,0,0,1]}]}" fill="#f54e52" stroke-width="0.5"/></g><path d="M207.12464,85.85486c0,0 3.54789,-0.05908 8.70732,1.23553c4.98257,1.25027 7.90359,3.77537 7.90359,3.77537l6.12291,18.84982c0,0 -9.7923,-14.12323 -16.33404,-16.12916c-8.18152,-2.50871 -17.4803,-3.46363 -17.4803,-3.46363l0.76521,-2.14996c0,0 2.48757,-0.88884 5.29716,-1.08128c3.07602,-0.21068 4.58174,0.06072 4.58174,0.06072z" data-paper-data="{&quot;index&quot;:null}" fill="#000000" fill-rule="nonzero" stroke="none" stroke-width="1.5" stroke-linecap="butt" stroke-linejoin="miter"/></g></g></svg>