<svg version="1.1" xmlns="http://www.w3.org/2000/svg" xmlns:xlink="http://www.w3.org/1999/xlink" width="99.7404" height="227.21516" viewBox="0,0,99.7404,227.21516"><g transform="translate(-190.53229,-86.9338)"><g data-paper-data="{&quot;isPaintingLayer&quot;:true}" stroke-miterlimit="10" stroke-dasharray="" stroke-dashoffset="0" style="mix-blend-mode: normal"><path d="M197.11456,304.52297c0,0 -0.68879,-102.32019 -0.86006,-127.93512c-0.05909,-8.83812 8.87527,-39.85238 43.58242,-40.02563c34.25965,-0.17101 43.2081,31.96647 43.19955,39.99921c-0.08303,50.13108 0.70931,127.90744 0.70931,127.90744l-11.37928,0.10422l-0.17218,-124.49975c0,0 0.08184,-3.35991 -3.05305,-3.41937c-3.72319,-0.07062 -3.19305,3.3776 -3.19305,3.3776l0.22276,124.52886l-52.26774,0.07829l-0.33108,-124.92253c0,0 0.30299,-3.16445 -3.12823,-3.18117c-3.3724,-0.01643 -3.05245,3.15359 -3.05245,3.15359l0.3828,124.74226z" fill="#f54e52" fill-rule="nonzero" stroke="#000000" stroke-width="2" stroke-linecap="butt" stroke-linejoin="miter"/><path d="M256.30255,191.7154c-0.61915,0 -1.12106,-0.50192 -1.12106,-1.12106c0,-0.61915 0.50192,-1.12108 1.12106,-1.12108c0.61915,0 1.12106,0.50193 1.12106,1.12108c0,0.61915 -0.50192,1.12106 -1.12106,1.12106z" fill="#000000" fill-rule="nonzero" stroke="none" stroke-width="1.5" stroke-linecap="butt" stroke-linejoin="miter"/><path d="M250.6004,196.30714c-4.83881,-0.34083 -7.10341,-1.94476 -6.68864,-2.79706c0.12779,-0.2626 3.08579,1.15298 7.55649,1.41451c6.94787,0.40645 9.22593,-0.68485 9.22593,-0.68485v1.45936c0,0 -2.61645,1.13473 -10.09377,0.60805z" fill="#000000" fill-rule="nonzero" stroke="#000000" stroke-width="0" stroke-linecap="butt" stroke-linejoin="miter"/><path d="M220.44901,190.59433c0,-0.61915 0.50192,-1.12108 1.12106,-1.12108c0.61915,0 1.12109,0.50193 1.12109,1.12108c0,0.61915 -0.50193,1.12106 -1.12109,1.12106c-0.61915,0 -1.12106,-0.50192 -1.12106,-1.12106z" fill="#000000" fill-rule="nonzero" stroke="none" stroke-width="1.5" stroke-linecap="butt" stroke-linejoin="miter"/><path d="M227.27224,196.30714c-7.47733,0.5267 -10.09377,-0.60806 -10.09377,-0.60806v-1.45935c0,0 2.27805,1.0913 9.22592,0.68485c4.47069,-0.26155 7.42871,-1.67712 7.5565,-1.41451c0.41477,0.85229 -1.84982,2.45623 -6.68864,2.79706z" fill="#000000" fill-rule="nonzero" stroke="#000000" stroke-width="0" stroke-linecap="butt" stroke-linejoin="miter"/><path d="M239.50122,257.6141c-0.88781,0 -1.60753,-0.71971 -1.60753,-1.60753c0,-0.88781 0.71971,-1.60752 1.60753,-1.60752c0.88781,0 1.60753,0.71971 1.60753,1.60752c0,0.88781 -0.71971,1.60753 -1.60753,1.60753z" data-paper-data="{&quot;index&quot;:null}" fill="#000000" fill-rule="nonzero" stroke="none" stroke-width="1.5" stroke-linecap="butt" stroke-linejoin="miter"/><path d="M213.41458,304.53862v-129.2246c0,0 0.82088,-10.54929 0.82088,-15.87033c0,-4.87622 -0.82088,-14.8381 -0.82088,-14.8381c0,0 2.89797,-2.55083 5.04718,-4.06323c2.14921,-1.5124 5.60686,-3.03946 5.60686,-3.03946c0,0 -0.65219,43.4816 15.78376,43.40534c16.73262,-0.07764 14.99458,-43.40534 14.99458,-43.40534c0,0 4.24177,1.64737 6.68431,3.19431c2.44254,1.54694 5.15352,3.90838 5.15352,3.90838c0,0 -0.82088,10.2171 -0.82088,15.38535c0,5.24907 0.82088,15.87033 0.82088,15.87033v128.67735z" fill="#332a28" fill-rule="nonzero" stroke="#000000" stroke-width="2" stroke-linecap="butt" stroke-linejoin="miter"/><path d="M197.42148,303.59034v-124.94086l8.8954,2.5l0.5,122.44086z" fill="#ffffff" fill-rule="nonzero" stroke="none" stroke-width="0" stroke-linecap="butt" stroke-linejoin="miter"/><path d="M273.12676,303.59034v-124.60904l9.07609,-2.5l0.5,127.10904z" fill="#ffffff" fill-rule="nonzero" stroke="none" stroke-width="0" stroke-linecap="butt" stroke-linejoin="miter"/><g fill-rule="nonzero" stroke="none" stroke-linecap="butt" stroke-linejoin="miter"><path d="M279.33047,168.50124c0,2.52795 -1.72041,7.05643 -3.99556,7.05643c-2.27515,0 -4.24349,-4.52849 -4.24349,-7.05643c0,-2.52795 1.84438,-4.57725 4.11952,-4.57725c2.27515,0 4.11952,2.0493 4.11952,4.57725z" fill="#ffb66d" stroke-width="0"/><path d="M277.14443,170.77093c-0.16402,0.2115 -0.33745,0.65753 -0.83662,0.62733c-0.00959,-0.00349 -1.51032,3.48869 -1.51032,3.48869c-0.04789,-0.01748 -0.61428,-3.57761 -0.68133,-3.60207c-0.26822,-0.09788 0.13153,-0.51819 0.12663,-0.80219c-0.00244,-0.14202 0.05696,-0.30485 0.14074,-0.4154c0.007,-0.01917 0.02007,-0.02525 0.04273,-0.02784l0.00396,-0.00182c-0.05243,-0.09531 -0.08218,-0.20156 -0.08548,-0.31014c-0.16389,0.09216 -0.8236,1.94654 -1.03435,1.86962l-0.14311,-0.99866c-0.27781,-0.10138 0.11844,-1.18149 0.10306,-1.43676c-0.1569,0.07302 -0.58256,3.08393 -0.76456,3.01752c-0.30654,-0.11188 -0.19168,-3.31223 -0.17301,-3.63106l0.0316,-0.20556c0.09648,-0.56182 0.30793,-1.08168 0.61515,-1.5666c0.32197,-0.43609 0.60601,-0.44101 0.78801,-0.37457c0.16284,0.05943 0.26897,0.18501 0.31492,0.38631c0.18501,-0.269 0.53714,-0.40099 0.8341,-0.29263l0.01916,0.00699c0.20118,0.07342 0.33163,0.2513 0.38276,0.49791c0.1911,-0.25592 0.53015,-0.38185 0.81752,-0.27698l0.00957,0.0035c0.28739,0.10489 0.46561,0.41961 0.45044,0.72885c0.23457,-0.19662 0.44714,-0.18417 0.58126,-0.13523l0.08621,0.03146c0.30654,0.11188 0.45514,0.44832 0.38843,0.86905c-0.03111,0.18835 -0.06368,0.35292 -0.10123,0.50619c0.08735,0.14269 0.13507,0.33857 0.12172,0.59766c0,0 0,-0.00001 -0.00349,0.00957c-0.04419,0.53749 -0.21899,1.01645 -0.52437,1.4369zM274.66837,170.02963c0.05503,0.05534 0.1193,0.10495 0.19131,0.13496c0.00585,0.00238 0.01169,0.00477 0.01766,0.00693l0.00958,0.00349c0.26822,0.09788 0.53929,-0.02028 0.63369,-0.27892l0.05243,-0.14368l0.3426,-0.93878c0.02096,-0.05747 0.07327,-0.0818 0.13074,-0.06083c0.05747,0.02098 0.08182,0.07327 0.06085,0.13074l-0.3426,0.93877c-0.0839,0.22991 0.04476,0.47225 0.28425,0.55965l0.08621,0.03146c0.29696,0.10838 0.50022,-0.12139 0.59448,-0.26067l0.13969,-0.26382c0.23017,-0.4615 0.35129,-0.75789 0.44899,-1.09844c0.04885,-0.18086 0.08886,-0.37363 0.128,-0.60149c0.05516,-0.24041 0.00586,-0.55149 -0.24319,-0.64238l-0.08621,-0.03146c-0.15325,-0.05594 -0.30666,0.00748 -0.46021,0.19026c-0.03315,0.03132 -0.08197,0.04608 -0.12028,0.0321l-0.09579,-0.03496c-0.04788,-0.01748 -0.0818,-0.07328 -0.06083,-0.13076c0.08481,-0.26214 -0.0551,-0.56287 -0.29458,-0.65027l-0.00958,-0.00349c-0.23948,-0.0874 -0.54021,0.05252 -0.64418,0.30766c-0.01748,0.04789 -0.08286,0.07832 -0.13074,0.06085l-0.09579,-0.03496c-0.03832,-0.01398 -0.06966,-0.04712 -0.06524,-0.08893c-0.00504,-0.16466 -0.06314,-0.39212 -0.2643,-0.46554l-0.01916,-0.00699c-0.23948,-0.0874 -0.54022,0.05252 -0.64418,0.30766c-0.01748,0.04788 -0.08284,0.07831 -0.13074,0.06083l-0.09581,-0.03496c-0.04789,-0.01748 -0.06966,-0.04713 -0.07832,-0.08286c-0.02679,-0.19432 -0.0946,-0.30591 -0.20956,-0.34785c-0.17243,-0.06294 -0.35289,0.0449 -0.54398,0.30081c-0.29324,0.44657 -0.48811,0.9508 -0.58369,1.48039l-0.02811,0.19599c-0.01943,0.23173 0.05188,0.33373 0.28181,0.41763c0.22031,0.08042 0.43909,-0.01343 0.51251,-0.2146l0.2552,-0.69928c0.02096,-0.05747 0.07328,-0.08182 0.13076,-0.06085c0.05747,0.02098 0.08181,0.07328 0.06085,0.13076l-0.2552,0.69929l-0.02447,0.06705l-0.014,0.03832c-0.09089,0.24907 0.04034,0.51407 0.30856,0.61195l0.01917,0.007c0.26822,0.09788 0.53931,-0.02028 0.63019,-0.26935l0.29366,-0.80464c0.02096,-0.05747 0.07327,-0.08181 0.13074,-0.06085c0.05747,0.02098 0.08181,0.07327 0.06085,0.13075l-0.29366,0.80465l-0.06644,0.182c-0.06154,0.1686 -0.01837,0.35043 0.09608,0.47965zM277.4824,169.30943c0.00272,-0.09671 -0.00763,-0.18733 -0.01189,-0.26487c-0.10579,0.31961 -0.22984,0.6 -0.40708,0.93694l-0.14319,0.27338c-0.10229,0.16601 -0.22626,0.28137 -0.36249,0.34384c-0.15087,0.07338 -0.31735,0.08106 -0.48649,0.01933l-0.0862,-0.03146c-0.19892,-0.07259 -0.34223,-0.20994 -0.39996,-0.37982c-0.18401,0.19553 -0.47656,0.26619 -0.74892,0.1668l-0.00959,-0.0035l-0.00958,-0.0035c-0.09785,-0.03572 -0.18282,-0.0894 -0.2527,-0.15551l-0.02677,-0.00076c-0.05062,0.07921 -0.08907,0.1846 -0.0883,0.27171c-0.00376,0.24829 0.19375,0.45064 0.45772,0.47098l1.36157,0.10612c0.35108,0.01958 0.54384,-0.18146 0.72795,-0.4182c0.28534,-0.3952 0.44267,-0.82627 0.48594,-1.33152z" fill="#e2a261" stroke-width="1"/><path d="M277.05607,170.67499c-0.12199,0.1569 -0.2653,0.31202 -0.45027,0.39313c-0.09416,0.04129 -0.19911,0.0634 -0.31754,0.05678l-1.21051,2.57491c-0.4127,2.9051 -0.69836,-2.95077 -0.6946,-3.19907c-0.00077,-0.08711 0.03552,-0.20367 0.08614,-0.28289l0.16323,-0.01451c0.06989,0.06611 0.15287,0.10942 0.25072,0.14513l0.00949,0.00315l0.00949,0.00317c0.27234,0.09939 0.56249,0.02173 0.7465,-0.1738c0.05773,0.16989 0.13497,0.26439 0.33389,0.33698l0.07609,0.03258c0.16915,0.06173 0.29773,0.07498 0.4486,0.00159c0.13621,-0.06247 0.24347,-0.14552 0.34577,-0.31152l0.14185,-0.25471c0.17725,-0.33695 0.31277,-0.58357 0.41856,-0.90316c0.00426,0.07754 0.13331,0.09973 0.13059,0.19644c-0.04327,0.50523 -0.20262,1.00057 -0.48797,1.39576z" data-paper-data="{&quot;noHover&quot;:false,&quot;origItem&quot;:[&quot;Path&quot;,{&quot;applyMatrix&quot;:true,&quot;segments&quot;:[[[273.91213,176.61986],[-0.03151,0.36793],[0.00198,-0.07043]],[[273.90347,176.42697],[0.0031,0.05647],[-0.07704,0.23275]],[[273.60702,177.1093],[0.12908,-0.24538],[0,0]],[[273.50274,177.30839],[0,0],[-0.07449,0.12089]],[[273.23877,177.55879],[0.0992,-0.04549],[-0.10987,0.05344]],[[272.88449,177.57287],[0.12318,0.04495],[0,0]],[[272.82171,177.54996],[0,0],[-0.14486,-0.05286]],[[272.53043,177.27336],[0.04204,0.12372],[-0.134,0.14239]],[[271.98505,177.39483],[0.19833,0.07238],[0,0]],[271.97807,177.39228],[[271.9711,177.38973],[0,0],[-0.07126,-0.02601]],[[271.78706,177.27648],[0.0509,0.04814],[0,0]],[[271.76757,177.27592],[0,0],[-0.03686,0.05769]],[[271.70326,177.4738],[-0.00056,-0.06344],[-0.00274,0.18081]],[[272.03659,177.81679],[-0.19222,-0.01481],[0,0]],[[273.02814,177.89407],[0,0],[0.25567,0.01426]],[[273.55825,177.58952],[-0.13407,0.17242],[0.2078,-0.2878]]],&quot;closed&quot;:true,&quot;fillColor&quot;:[0,0,0,1]}]}" fill="#f54e52" stroke-width="0.5"/><path d="M274.54607,169.61345l0.06587,-0.18224l0.26629,-0.82565c0.02096,-0.05747 -0.00866,-0.18641 -0.06612,-0.20739c-0.05747,-0.02098 0.01819,0.04172 -0.00278,0.0992l-0.3227,0.74455c-0.09089,0.24907 -0.60144,1.21287 -0.86965,1.11499l-0.19322,1.13287c-0.26822,-0.09788 -0.09137,-2.27307 -0.00048,-2.52214l0.0136,-0.03972l0.02384,-0.06963l0.25638,-0.73414c0.02096,-0.05747 -0.00161,-0.11489 -0.05908,-0.13588c-0.05747,-0.02098 0.01987,0.04835 -0.0011,0.10583l-0.25301,0.66831c-0.07342,0.20116 -0.42705,0.32051 -0.64738,0.24011c-0.06526,-0.02382 -0.16746,3.1728 -0.20889,3.14201c-0.10454,-0.07768 -0.0884,-3.40672 -0.07448,-3.57266l0.02819,-0.2015c0.09558,-0.52958 0.30729,-1.07518 0.60053,-1.52175c0.19109,-0.25591 0.38461,-0.37532 0.55704,-0.31238c0.11495,0.04196 0.26076,0.26657 0.28755,0.46087c0.00866,0.03573 -0.04773,-0.04754 0.00017,-0.03006l0.09778,0.03366c0.04789,0.01748 0.11824,-0.01581 0.13572,-0.06371c0.10397,-0.25514 0.43102,-0.40265 0.67051,-0.31526l0.01986,0.00694c0.20118,0.07342 0.27103,0.30105 0.27607,0.46571c-0.00441,0.04182 0.03087,0.07549 0.06917,0.08946l0.10114,0.03605c0.04789,0.01748 0.11876,-0.01136 0.13625,-0.05925c0.10397,-0.25514 0.42133,-0.38685 0.66082,-0.29946l0.00987,0.00369c0.23948,0.0874 0.39748,0.40623 0.31266,0.66836c-0.02096,0.05747 0.01607,0.11832 0.06395,0.13579l0.09725,0.03769c0.03832,0.014 -0.03598,0.06004 -0.00283,0.02873c0.15354,-0.18279 0.43085,-0.30537 0.58411,-0.24944l0.08697,0.03316c0.24907,0.09089 0.30352,0.42056 0.24837,0.66097c-0.03913,0.22786 -0.07906,0.43784 -0.12791,0.6187c-0.0977,0.34054 -0.23177,0.66947 -0.46194,1.13096l-0.14518,0.27033c-0.09425,0.13928 -0.31216,0.38073 -0.60912,0.27236l-0.08782,-0.03053c-0.23948,-0.0874 -0.43607,-0.44909 -0.35217,-0.67899l0.31202,-0.90145c0.02096,-0.05747 -0.00521,-0.10335 -0.06267,-0.12432c-0.05747,-0.02098 0.0222,0.04077 0.00124,0.09824l-0.3791,0.97942l-0.05704,0.1456c-0.0944,0.25864 -0.39424,0.38099 -0.66246,0.28309l-0.00999,-0.00353c-0.00598,-0.00218 -0.01256,-0.00462 -0.01839,-0.00699c-0.07201,-0.03001 -0.14513,-0.08096 -0.20016,-0.13631c-0.11446,-0.12921 -0.1691,-0.31464 -0.10757,-0.48325z" data-paper-data="{&quot;noHover&quot;:false,&quot;origItem&quot;:[&quot;Path&quot;,{&quot;applyMatrix&quot;:true,&quot;segments&quot;:[[[271.86285,177.14434],[-0.08335,-0.0941],[0.04007,0.0403]],[[272.00217,177.24262],[-0.05244,-0.02185],[0.00426,0.00173]],[[272.01503,177.24767],[-0.00435,-0.00159],[0,0]],[[272.022,177.25022],[0,0],[0.19533,0.07128]],[[272.48348,177.04709],[-0.06874,0.18835],[0,0]],[272.52167,176.94245],[[272.77117,176.25881],[0,0],[0.01527,-0.04185]],[[272.86638,176.21451],[-0.04185,-0.01528],[0.04185,0.01528]],[[272.91069,176.30972],[0.01527,-0.04185],[0,0]],[[272.66119,176.99337],[0,0],[-0.0611,0.16742]],[[272.86819,177.40093],[-0.1744,-0.06365],[0,0]],[[272.93097,177.42384],[0,0],[0.21625,0.07892]],[[273.36389,177.234],[-0.06864,0.10143],[0,0]],[[273.46562,177.04189],[0,0],[0.16762,-0.33608]],[[273.79258,176.24196],[-0.07115,0.248],[0.03557,-0.13171]],[[273.88579,175.80393],[-0.0285,0.16593],[0.04017,-0.17507]],[[273.70869,175.33613],[0.18138,0.06619],[0,0]],[[273.64591,175.31322],[0,0],[-0.11161,-0.04074]],[[273.31077,175.45178],[0.11181,-0.13311],[-0.02414,0.02281]],[[273.22318,175.47515],[0.0279,0.01019],[0,0]],[[273.15342,175.44969],[0,0],[-0.03487,-0.01273]],[[273.10911,175.35447],[-0.01527,0.04185],[0.06176,-0.1909]],[[272.89459,174.88093],[0.1744,0.06365],[0,0]],[[272.88761,174.87838],[0,0],[-0.1744,-0.06365]],[[272.4185,175.10243],[0.07572,-0.1858],[-0.01273,0.03488]],[[272.32328,175.14674],[0.03488,0.01273],[0,0]],[[272.25352,175.12128],[0,0],[-0.0279,-0.01018]],[[272.20601,175.05651],[-0.00321,0.03045],[-0.00367,-0.11991]],[[272.01354,174.71749],[0.1465,0.05346],[0,0]],[[271.99959,174.7124],[0,0],[-0.1744,-0.06365]],[[271.53047,174.93645],[0.07572,-0.1858],[-0.01273,0.03487]],[[271.43526,174.98074],[0.03488,0.01273],[0,0]],[[271.36549,174.95528],[0,0],[-0.03488,-0.01273]],[[271.30846,174.89494],[0.00631,0.02602],[-0.01951,-0.14151]],[[271.15585,174.64162],[0.08371,0.03055],[-0.12557,-0.04583]],[[270.7597,174.86068],[0.13916,-0.18636],[-0.21355,0.32521]],[[270.33464,175.93875],[0.06961,-0.38566],[0,0]],[[270.31417,176.08148],[0,0],[-0.01415,0.16875]],[[270.51938,176.38561],[-0.16743,-0.0611],[0.16044,0.05856]],[[270.89261,176.22934],[-0.05347,0.14649],[0,0]],[[271.07846,175.72009],[0,0],[0.01527,-0.04185]],[[271.17368,175.67578],[-0.04185,-0.01528],[0.04185,0.01528]],[[271.21799,175.77101],[0.01527,-0.04185],[0,0]],[271.03214,176.28026],[271.01432,176.32909],[[271.00413,176.35699],[0,0],[-0.06619,0.18138]],[[271.22884,176.80264],[-0.19533,-0.07128],[0,0]],[[271.2428,176.80773],[0,0],[0.19533,0.07128]],[[271.70173,176.61158],[-0.06619,0.18138],[0,0]],[[271.91558,176.02561],[0,0],[0.01527,-0.04185]],[[272.01079,175.9813],[-0.04185,-0.01528],[0.04185,0.01528]],[[272.0551,176.07652],[0.01527,-0.04185],[0,0]],[271.84125,176.6625],[[271.79287,176.79505],[0,0],[-0.04481,0.12278]]],&quot;closed&quot;:true,&quot;fillColor&quot;:[0,0,0,1]}]}" fill="#f54e52" stroke-width="0.5"/></g><g fill-rule="evenodd" stroke="none" stroke-width="0.1" stroke-linecap="round" stroke-linejoin="round"><g><path d="M270.81447,310.91185c-4.80359,1.2899 1.35708,3.10465 -3.80478,0.2788c-7.95177,-4.35318 -50.93418,-131.94505 -54.26875,-134.89013c-3.33459,-2.94507 -6.89089,-15.28867 -9.66654,-20.79678c-2.77568,-5.5081 -4.44779,-6.58172 -6.72185,-12.35269c-2.27404,-5.77097 -3.52626,-9.26557 -5.58117,-20.84028c-0.71616,-4.03382 0.2254,-9.97637 2.1707,-14.09702c3.63655,-7.70319 11.6196,-14.86469 26.26782,-19.21795c22.48393,-6.68195 36.51697,4.59304 38.84587,9.48602c2.3289,4.89299 2.63164,10.63146 3.74028,15.76802c1.10863,5.13654 2.52077,10.71669 2.92818,15.04263c0.40743,4.32596 -0.05872,8.00704 -0.03827,10.75769c0.02045,2.75067 -0.1499,2.72274 0.10605,5.74976c0.25597,3.027 1.2786,8.68342 1.23047,14.37719c-0.03867,4.57359 28.35293,148.08408 23.7442,153.79919c-3.77144,4.6768 -18.81803,-87.27176 -23.67625,-79.92839c-1.03719,1.56776 -15.62743,-16.60559 -16.50013,-16.37126z" fill="#000000"/><path d="M247.39768,213.07125c-4.20255,1.19316 24.636,100.6427 19.7105,97.88075c-6.62325,-3.71397 -48.31352,-130.69617 -53.11694,-135.39565c-4.80344,-4.69947 -6.15047,-14.42144 -8.53273,-19.28963c-2.38224,-4.8682 -4.44943,-6.29941 -7.15663,-13.13108c-2.70721,-6.83168 -2.48753,-8.62369 -5.41172,-19.55709c-1.12787,-4.21481 -0.28817,-9.69947 1.44771,-13.70947c3.39332,-7.83879 10.33289,-14.29781 24.45009,-18.49326c21.66887,-6.43973 33.5101,4.00746 35.39219,7.96176c1.88212,3.95431 3.29096,11.45741 4.13187,16.47c0.84093,5.01259 3.26615,12.34811 3.37279,16.4249c0.10662,4.07679 -0.25427,5.84264 -0.39953,8.20434c-0.14528,2.36169 -0.29023,3.21911 -0.04356,6.13638c0.24669,2.91727 1.6739,8.34028 1.21548,13.95606c-0.4584,5.6158 -3.93073,10.42605 -8.36915,16.56263c-3.404,4.70641 13.37564,53.21771 8.75094,54.72792z" fill="#ffffff"/></g><g><path d="M194.23458,149.49869c-3.56853,-7.21317 -2.72062,-8.72346 -1.72152,-9.28441c0.99909,-0.56096 2.88089,0.71989 3.83021,1.93136c0.58759,0.7499 2.91665,5.98775 4.95866,9.88286c1.25694,2.39763 2.37565,4.32642 2.24964,4.53254c-0.33069,0.54095 -5.74845,0.15082 -9.317,-7.06235z" fill="#000000"/><path d="M193.24324,140.82731c0.94034,-0.23277 2.26347,1.27216 2.26347,1.27216l0.96585,1.86351c-0.29548,0.09348 -0.54133,0.22107 -0.7265,0.38838c-0.29389,0.26552 -0.43937,0.61562 -0.46532,1.00465c-0.05183,0.77803 0.34708,1.72961 0.98236,2.72638c1.20808,1.89553 3.2821,3.9299 4.94995,5.02362l1.50331,2.94027c-0.81034,-0.07584 4.85976,31.57045 2.20421,28.69445c-1.63469,-1.77039 -10.96207,-36.98489 -11.51481,-38.41572c-1.45064,-3.75517 -1.2854,-4.91595 -0.34489,-5.42672c0.05878,-0.03193 0.11978,-0.05538 0.18238,-0.07097zM200.95393,152.607c-1.54484,-1.12025 -3.36801,-2.96617 -4.44866,-4.66175c-0.62239,-0.97649 -0.99289,-1.90424 -0.94741,-2.58698c0.02274,-0.34137 0.14356,-0.61708 0.37999,-0.8307c0.15613,-0.14102 0.37386,-0.25369 0.65287,-0.3365z" fill="#ffffff"/></g><g><path d="M263.30821,140.33328c-0.19772,-0.12234 -0.15348,-2.31732 -0.23028,-5.01714c-0.12476,-4.38604 -0.63286,-10.08854 -0.49811,-11.02415c0.21772,-1.51151 1.165,-3.52141 2.23886,-3.49621c1.07387,0.02517 2.46109,0.95682 2.86596,8.97924c0.40487,8.0224 -3.85756,10.87934 -4.37647,10.55826z" fill="#000000"/><path d="M264.5046,121.67782c0.05824,-0.01563 0.11891,-0.02358 0.18159,-0.0231c1.00296,0.00849 1.6719,0.95265 2.21513,4.93819c0.20699,1.51859 0.28313,4.68555 -0.23708,7.01045c-0.84511,3.77679 -2.28404,5.43834 -2.91081,5.88513l-0.10709,-3.26564c0.85863,-1.74485 1.61614,-4.50811 1.73045,-6.74309c0.06012,-1.17527 -0.05196,-2.19988 -0.45226,-2.86039c-0.20013,-0.33024 -0.48003,-0.57018 -0.84214,-0.66603c-0.2282,-0.06041 -0.48764,-0.05744 -0.77189,-0.00114l-0.06875,-2.09315c0,0 0.38797,-1.94514 1.26286,-2.18126zM263.31892,126.20836c0.26594,-0.05797 0.49551,-0.06093 0.68788,-0.01002c0.29134,0.07713 0.51686,0.26313 0.6925,0.55294c0.35125,0.57959 0.47563,1.56993 0.41666,2.72129c-0.10228,1.99921 -0.74164,4.47896 -1.48763,6.18948z" fill="#ffffff"/></g></g><path d="M244.08608,105.79435c0,0 1.52719,-0.7192 4.40888,-1.81559c2.63211,-1.00141 4.98994,-1.39322 4.98994,-1.39322l0.93255,0.88593c0,0 1.85128,17.25594 -1.1089,19.24093c-3.01749,2.02342 -10.86219,-11.17928 -12.43414,-6.44318c-6.9344,2.36044 -8.01379,6.19014 -8.01379,6.19014l-2.61785,-5.97446c0,0 1.59565,-3.51602 5.59722,-6.73731c4.1436,-3.3356 7.39039,-4.76721 7.39039,-4.76721z" data-paper-data="{&quot;index&quot;:null}" fill="#000000" fill-rule="nonzero" stroke="none" stroke-width="1.5" stroke-linecap="butt" stroke-linejoin="miter"/><path d="M237.30784,162.77223c-1.08234,0.29063 -4.62103,-2.41891 -5.47265,-4.55115c-0.76196,-1.90776 0.30069,-4.37763 2.88843,-5.0725c2.58774,-0.69487 4.53756,-0.66757 5.39697,3.25234c0.72935,3.32673 -0.22502,5.67643 -2.81275,6.37131z" fill="#ffffff" fill-rule="nonzero" stroke="#000000" stroke-width="1.15" stroke-linecap="butt" stroke-linejoin="miter"/><g fill-rule="nonzero" stroke-linecap="butt" stroke-linejoin="miter"><g data-paper-data="{&quot;index&quot;:null}" stroke="none"><path d="M256.98377,164.90235c0,0 5.05283,13.51723 -1.32985,21.04401c-1.99443,2.35192 -7.15157,3.76445 -11.70692,4.96648c-3.42123,0.90275 -6.89545,1.78709 -9.52365,1.14395c-10.64444,-2.60473 -15.90267,-17.98606 -15.90267,-17.98606c0,0 7.14739,-12.03115 10.85286,-13.24941c3.46473,-1.13911 7.88975,2.19746 7.88975,2.19746c0,0 0.81957,-5.26728 7.66021,-5.90788c3.2892,-0.30801 12.06028,7.79144 12.06028,7.79144z" fill="#000000" stroke-width="0"/><path d="M229.48604,162.89315c1.25077,-0.35196 2.79792,-0.45942 3.26294,-0.29549c0.46509,0.16392 4.18313,1.49147 4.88434,2.24658c0.95267,1.06987 1.52981,-0.61113 0.92043,-0.21289c-0.41154,0.27452 -5.16071,3.06851 -6.64383,4.16619c-1.46744,1.07062 -4.83228,2.56483 -6.88096,3.14132l-3.86532,1.00841l2.79304,-4.53473c2.21913,-3.52712 3.76096,-5.02182 5.5293,-5.51942z" data-paper-data="{&quot;noHover&quot;:false,&quot;origItem&quot;:[&quot;Path&quot;,{&quot;applyMatrix&quot;:true,&quot;segments&quot;:[[[597.82423,394.7731],[0,0],[-0.64062,0]],[[595.60549,396.02156],[1.07812,-0.9744],[0,0]],[594.23049,397.23956],[[595.60549,397.23956],[0,0],[0.74218,0]],[[598.05861,396.8437],[-0.59374,0.22078],[0.60156,-0.22838]],[[599.44143,396.34128],[-0.16408,0.05328],[0.24218,-0.07612]],[[599.46487,395.69422],[0.21874,0.44914],[-0.16406,-0.31972]],[[598.91799,394.9482],[0.14064,0.09896],[-0.14062,-0.09896]],[[597.82425,394.77312],[0.45312,0],[0,0]]],&quot;closed&quot;:true,&quot;fillColor&quot;:[0,0,0]}]}" fill="#ffffff" stroke-width="0.5"/><path d="M243.29471,158.91837c1.50959,-0.42479 3.31368,-0.05275 5.91853,1.59538c6.04806,3.87669 6.06819,4.19096 2.39546,4.70291c-1.80208,0.21231 -4.80027,0.32457 -6.201,0.0611c-1.41043,-0.2154 -8.04928,0.07317 -8.75538,0.0451c-1.0042,-0.01228 1.26416,0.59521 1.34483,-0.60673c1.48225,-2.57146 2.88231,-5.1181 5.29762,-5.79776z" data-paper-data="{&quot;noHover&quot;:false,&quot;origItem&quot;:[&quot;Path&quot;,{&quot;applyMatrix&quot;:true,&quot;segments&quot;:[[[602.94153,394.75028],[0,0],[-0.875,0]],[[601.53529,395.69424],[0.21874,-0.7232],[-0.14062,0.39586]],[[601.80091,396.3946],[-0.33594,-0.09898],[0.23438,0.07612]],[[603.06653,396.91986],[-0.45312,-0.20554],[0.44532,0.22076]],[[605.01965,397.4908],[-0.625,-0.09896],[1.28126,0.17508]],[[604.63683,395.7932],[1.66408,1.87268],[-0.71874,-0.79932]],[[602.94151,394.75028],[0.54688,0],[0,0]]],&quot;closed&quot;:true,&quot;fillColor&quot;:[0,0,0]}]}" fill="#ffffff" stroke-width="0.5"/><path d="M245.37961,167.00024c0.33562,0.20035 -1.97089,1.30455 -5.11941,2.19053c-5.32661,1.49889 -9.27787,1.18021 -5.52618,-0.37441c2.41882,-0.99815 9.86439,-2.27663 10.64559,-1.81612z" data-paper-data="{&quot;noHover&quot;:false,&quot;origItem&quot;:[&quot;Path&quot;,{&quot;applyMatrix&quot;:true,&quot;segments&quot;:[[[599.18365,397.1939],[0.90626,-0.10658],[-1.40626,0.16748]],[[600.84771,397.742],[-1.92968,0],[1.14062,0]],[[602.73053,397.56692],[0.09374,0.09896],[-0.21874,-0.22838]]],&quot;closed&quot;:true,&quot;fillColor&quot;:[0,0,0]}]}" fill="#ffffff" stroke-width="0.5"/><path d="M242.59278,176.34967c4.26989,-1.20153 5.43205,-1.19078 5.02125,-0.41755c-0.93112,1.73605 -8.9223,4.23163 -11.6611,3.59632c-2.78193,-0.62317 -3.37576,-1.42813 -1.02619,-1.43165c0.85705,-0.01436 4.58224,-0.87934 7.66606,-1.74712z" data-paper-data="{&quot;noHover&quot;:false,&quot;origItem&quot;:[&quot;Path&quot;,{&quot;applyMatrix&quot;:true,&quot;segments&quot;:[[[598.37115,400.33026],[0.28906,0.07614],[-0.78906,-0.22076]],[[598.58209,400.87836],[-0.875,-0.47198],[0.85938,0.47198]],[[602.63677,400.7794],[-0.47656,0.49482],[0.21094,-0.22076]],[[600.91803,400.48252],[1.54686,0],[-1.11718,0]]],&quot;closed&quot;:true,&quot;fillColor&quot;:[0,0,0]}]}" fill="#ffffff" stroke-width="0.5"/><path d="M222.43448,174.83496c0.90572,-0.25487 3.42769,0.79547 7.1397,3.15252c6.21674,3.89726 7.66532,4.14247 12.51753,2.77708c4.74433,-1.33504 6.86617,-3.03796 8.32668,-7.68957c0.66192,-2.11388 1.46066,-4.14854 1.7758,-4.60006c0.82225,-1.04779 3.69698,-2.80747 4.22499,-2.50249c0.65356,0.33765 0.95343,10.19062 0.38334,13.45783c-0.67482,4.13573 -3.35307,6.28048 -11.41013,8.91053c-10.64661,3.51752 -14.93196,2.09886 -21.02802,-6.66265c-4.28802,-6.14079 -4.3415,-6.45816 -2.48687,-6.98004z" data-paper-data="{&quot;noHover&quot;:false,&quot;origItem&quot;:[&quot;Path&quot;,{&quot;applyMatrix&quot;:true,&quot;segments&quot;:[[[594.30081,397.9856],[0,0],[-0.67188,0]],[[594.48831,400.52818],[-0.85938,-2.46646],[1.21876,3.517]],[[600.80081,404.63894],[-3.90624,0.1751],[2.95312,-0.1218]],[[605.39457,402.7967],[-0.6172,1.32458],[0.5,-1.04292]],[[606.54301,398.31292],[0.1875,0.17508],[-0.14844,-0.15226]],[[605.06645,398.6631],[0.375,-0.27406],[-0.14844,0.1218]],[[604.04301,400.0562],[0.42188,-0.64708],[-0.92968,1.42354]],[[600.46489,401.97456],[1.71874,0],[-1.75782,0]],[[596.39457,399.72886],[1.71876,1.89552],[-1.02344,-1.14188]],[[594.30083,397.98558],[0.32812,0],[0,0]]],&quot;closed&quot;:true,&quot;fillColor&quot;:[0,0,0]}]}" fill="#ffffff" stroke-width="0.5"/></g><path d="M235.9224,181.61233c5.63027,0.02927 5.02541,-0.30002 5.02541,-0.30002c0,0 5.58063,-3.23779 8.34899,-4.08886c0.84797,-0.26069 0.51659,-4.86174 1.67488,-6.88281c1.77336,-3.09428 5.18513,-3.71079 5.2607,-3.47651c0.03702,0.11476 0.44295,13.93966 -0.62641,19.89164c-0.92492,5.14801 2.06235,10.37969 0.07477,12.53206c-1.76054,1.90651 -5.58623,-8.19018 -8.20384,-10.61718c-2.28465,-2.11826 -3.2847,3.46221 -5.91592,3.87719c-1.90743,0.31206 -4.17314,8.25061 -6.47337,8.43715c-3.02362,0.24521 -3.78836,-8.20376 -6.40746,-10.79787c-1.44639,-1.43259 -2.04779,10.08781 -3.74774,9.1036c-3.14926,-1.82329 0.85116,-13.08027 -1.177,-17.49278c-1.67571,-3.6457 -2.31299,-6.20388 -2.31179,-6.24982c0.00412,-0.15653 1.24534,-0.35609 4.64432,0.91197c0.67956,0.25352 1.82642,1.64583 2.76453,1.65071z" fill="#ffffff" stroke="#000000" stroke-width="1.9"/></g><path d="M232.61847,130.25155c0,0 1.22351,4.12747 2.00966,7.45991c1.17903,4.99777 6.86011,36.63357 8.41521,51.69071c0.49818,4.82359 -1.52095,7.94579 -1.52095,7.94579c0,0 -19.1623,26.97385 -20.47047,25.87183c-1.1553,-0.97322 6.02289,-21.47899 6.02289,-21.47899c0,0 3.02948,-3.85456 5.37317,-8.04943c1.16162,-2.07914 3.16057,-4.24187 2.55313,-6.06032c-0.87707,-2.62561 0.40134,-9.17623 -0.22109,-16.69936c-1.13836,-13.75909 -5.94503,-30.77112 -6.76445,-32.97425c-1.20143,-3.23021 -2.54465,-5.7312 -2.54465,-5.7312" fill="#ffffff" fill-rule="nonzero" stroke="#000000" stroke-width="1.3" stroke-linecap="round" stroke-linejoin="miter"/><path d="M204.69121,137.95998c-1.30107,-5.14172 2.55336,-10.71633 8.2008,-12.14537c5.64742,-1.42905 10.6459,1.91007 11.94699,7.0518c1.30107,5.14172 -1.32401,12.30643 -6.97145,13.73549c-5.64742,1.42905 -11.87528,-3.50017 -13.17634,-8.6419z" fill="#ffffff" fill-rule="nonzero" stroke="#000000" stroke-width="1.4" stroke-linecap="butt" stroke-linejoin="miter"/><path d="M233.01919,130.35396c-1.1612,-5.17511 2.17136,-10.52662 7.73911,-12.02171c5.56774,-1.49509 10.82544,1.54495 12.20092,6.66726c1.37548,5.12231 -0.10742,20.14532 -2.89815,29.75341c-7.09788,-9.3389 -15.82918,-18.99436 -17.04187,-24.39898z" fill="#ffffff" fill-rule="nonzero" stroke="#000000" stroke-width="1.4" stroke-linecap="butt" stroke-linejoin="miter"/><path d="M240.04828,127.16868c-0.35859,-3.03432 1.81053,-5.78482 4.84486,-6.14341c3.03432,-0.35859 5.78482,1.81053 6.14341,4.84486c0.19243,1.62837 -1.56177,16.03622 -2.30978,22.34729c-0.64584,5.44907 -3.5266,-9.34648 -3.664,-10.75554c-0.21725,-2.22754 -5.67785,2.69145 -8.05503,-3.32719c-1.17842,-2.98358 3.1594,-5.96036 3.04056,-6.96602z" fill="#000000" fill-rule="nonzero" stroke="none" stroke-width="1.5" stroke-linecap="butt" stroke-linejoin="miter"/><text transform="translate(213.9139,146.46706) rotate(-20.53644) scale(0.39693,0.39693)" font-size="40" xml:space="preserve" fill="#000000" fill-rule="nonzero" stroke="none" stroke-width="1" stroke-linecap="butt" stroke-linejoin="miter" stroke-miterlimit="10" stroke-dasharray="" stroke-dashoffset="0" font-family="Sans Serif" font-weight="normal" text-anchor="start" style="mix-blend-mode: normal"><tspan x="0" dy="0">S</tspan></text><path d="M204.46994,137.42205c0,0 -2.46802,-9.45665 8.61822,-12.22009c9.96272,-2.48908 12.64941,7.16281 12.64941,7.16281z" fill="#ffffff" fill-rule="nonzero" stroke="#000000" stroke-width="1.15" stroke-linecap="butt" stroke-linejoin="miter"/><path d="M232.51077,130.03925c0,0 -2.91761,-9.83329 9.16504,-12.67932c10.26454,-2.382 12.70913,7.42186 12.70913,7.42186z" fill="#ffffff" fill-rule="nonzero" stroke="#000000" stroke-width="1.15" stroke-linecap="butt" stroke-linejoin="miter"/><path d="M208.27898,121.09347c0,0 3.52717,-0.38739 8.78432,0.42385c5.07694,0.78346 8.21925,3.02721 8.21925,3.02721l7.84225,18.20178c0,0 -11.05815,-13.15569 -17.75754,-14.54718c-8.37868,-1.74025 -17.72594,-1.82993 -17.72594,-1.82993l0.56281,-2.21159c0,0 2.39456,-1.11539 5.17426,-1.5672c3.04329,-0.49464 4.56768,-0.36385 4.56768,-0.36385z" data-paper-data="{&quot;index&quot;:null}" fill="#000000" fill-rule="nonzero" stroke="none" stroke-width="1.5" stroke-linecap="butt" stroke-linejoin="miter"/></g></g></svg>