<svg version="1.1" xmlns="http://www.w3.org/2000/svg" xmlns:xlink="http://www.w3.org/1999/xlink" width="35.67311" height="35.67311" viewBox="0,0,35.67311,35.67311"><g transform="translate(-222.16345,-162.16345)"><g data-paper-data="{&quot;isPaintingLayer&quot;:true}" stroke-miterlimit="10" stroke-dasharray="" stroke-dashoffset="0" style="mix-blend-mode: normal"><path d="M229.98311,162.91345h20.03379c3.9166,0 7.06966,3.15307 7.06966,7.06966v20.03379c0,3.91659 -3.15306,7.06966 -7.06966,7.06966h-20.03379c-3.91659,0 -7.06966,-3.15307 -7.06966,-7.06966v-20.03379c0,-3.91659 3.15307,-7.06966 7.06966,-7.06966z" fill="#000000" fill-rule="evenodd" stroke="#ffffff" stroke-width="1.5" stroke-linecap="round" stroke-linejoin="round"/><path d="M248.83374,178.86011c0.16431,1.0211 2.89849,1.20317 2.89849,1.20317c0,0 -2.8659,7.59413 -5.16527,9.08615c-4.36563,2.83276 -10.02827,1.3571 -12.92914,-3.11348c-0.19092,-0.29423 -1.58587,-0.83822 -2.73872,-2.11516c-2.17646,-2.41072 -4.47492,-5.96387 -3.10178,-5.04973c4.26655,2.84041 0.21054,-3.10656 0.2626,-4.1493c0.08167,-1.63575 4.28976,2.93871 6.20627,3.11246c1.51392,0.13726 -1.2248,-8.53063 -1.2248,-8.53063c0,0 4.01091,4.59262 7.06114,5.40977c0.71776,0.19228 -2.44221,-6.76306 -2.44221,-6.76306l5.10347,3.20443l-0.38434,-5.82689c0,0 2.30685,5.76277 3.06178,6.67195c0.87639,1.05546 1.35234,-2.20166 1.35234,-2.20166c0,0 1.98991,8.74958 2.04018,9.06196z" fill="#ffffff" fill-rule="nonzero" stroke="#000000" stroke-width="0" stroke-linecap="butt" stroke-linejoin="miter"/><path d="M246.87011,181.2324c0.10659,0.66236 1.88018,0.78047 1.88018,0.78047c0,0 -1.85904,4.92614 -3.35059,5.89398c-2.83189,1.83755 -6.50512,0.88032 -8.38684,-2.01964c-0.12385,-0.19087 -1.02872,-0.54374 -1.77654,-1.37206c-1.41182,-1.56378 -2.90277,-3.86863 -2.01205,-3.27564c2.76761,1.8425 0.13657,-2.01516 0.17034,-2.69156c0.05298,-1.06108 2.78267,1.90628 4.02587,2.01899c0.98204,0.08903 -0.7945,-5.53363 -0.7945,-5.53363c0,0 2.60179,2.97913 4.5804,3.5092c0.4656,0.12473 -1.5842,-4.38704 -1.5842,-4.38704l3.31051,2.07864l-0.24931,-3.77978c0,0 1.4964,3.73818 1.98611,4.32795c0.5685,0.68466 0.87723,-1.42817 0.87723,-1.42817c0,0 1.29082,5.67566 1.32342,5.87829z" fill="#ffffff" fill-rule="nonzero" stroke="#000000" stroke-width="0" stroke-linecap="butt" stroke-linejoin="miter"/><path d="M238.8572,189.72623c0,0 -0.47557,-3.58177 -1.08839,-4.81123c-0.86346,-1.73231 3.08597,-11.16165 3.08597,-11.16165l3.78682,-2.27875c0,0 -3.11487,9.06292 -2.51109,11.674c0.46212,1.99849 -1.00623,6.40371 -1.00623,6.40371z" data-paper-data="{&quot;index&quot;:null}" fill="#ffffff" fill-rule="nonzero" stroke="#ffffff" stroke-width="0" stroke-linecap="butt" stroke-linejoin="miter"/><path d="M247.88164,184.9751c0,0 -4.62938,-0.8908 -6.12396,-2.28417c-1.95271,-1.82047 -11.52725,-3.57072 -11.52725,-3.57072l4.21337,-1.89183c0,0 10.14827,0.89809 11.19532,2.51173c0.74311,1.14523 3.48639,3.53154 3.48639,3.53154z" fill="#ffffff" fill-rule="nonzero" stroke="#000000" stroke-width="0" stroke-linecap="butt" stroke-linejoin="miter"/><path d="M248.53018,182.31874c0.17444,1.084 3.07705,1.27729 3.07705,1.27729c0,0 -3.04244,8.06195 -5.48347,9.64588c-4.63457,3.00727 -10.64605,1.4407 -13.72562,-3.30528c-0.20268,-0.31236 -1.68357,-0.88986 -2.90744,-2.24546c-2.31054,-2.55923 -4.75058,-6.33127 -3.29286,-5.36081c4.52938,3.01538 0.22351,-3.29793 0.27877,-4.40491c0.0867,-1.73652 4.55402,3.11975 6.58859,3.3042c1.60718,0.14571 -1.30025,-9.05615 -1.30025,-9.05615c0,0 4.258,4.87555 7.49613,5.74304c0.76197,0.20413 -2.59265,-7.17968 -2.59265,-7.17968l5.41786,3.40184l-0.40802,-6.18585c0,0 2.44896,6.11777 3.25039,7.08297c0.93038,1.12049 1.43565,-2.33729 1.43565,-2.33729c0,0 2.1125,9.28859 2.16587,9.62021z" fill="#ffffff" fill-rule="nonzero" stroke="#000000" stroke-width="1.5" stroke-linecap="butt" stroke-linejoin="miter"/><path d="M246.44558,184.83717c0.11316,0.70316 1.99601,0.82855 1.99601,0.82855c0,0 -1.97356,5.2296 -3.557,6.25706c-3.00634,1.95075 -6.90585,0.93455 -8.90349,-2.14406c-0.13148,-0.20262 -1.09209,-0.57723 -1.88599,-1.45658c-1.49879,-1.66011 -3.08159,-4.10695 -2.136,-3.47743c2.9381,1.95601 0.14498,-2.1393 0.18083,-2.85737c0.05624,-1.12644 2.95409,2.02371 4.27387,2.14336c1.04254,0.09452 -0.84344,-5.87451 -0.84344,-5.87451c0,0 2.76206,3.16266 4.86256,3.72538c0.49428,0.13241 -1.68179,-4.6573 -1.68179,-4.6573l3.51444,2.20669l-0.26467,-4.01262c0,0 1.58858,3.96846 2.10846,4.59456c0.60352,0.72684 0.93127,-1.51614 0.93127,-1.51614c0,0 1.37033,6.0253 1.40495,6.24041z" fill="#ffffff" fill-rule="nonzero" stroke="#000000" stroke-width="1.05" stroke-linecap="butt" stroke-linejoin="miter"/><path d="M237.93906,193.85425c0,0 -0.50486,-3.80242 -1.15543,-5.10761c-0.91666,-1.83902 3.27607,-11.84925 3.27607,-11.84925l4.0201,-2.41913c0,0 -3.30676,9.62122 -2.66578,12.39316c0.4906,2.12161 -1.06822,6.7982 -1.06822,6.7982z" data-paper-data="{&quot;index&quot;:null}" fill="#000000" fill-rule="nonzero" stroke="#ffffff" stroke-width="1.5" stroke-linecap="butt" stroke-linejoin="miter"/><path d="M247.51942,188.81043c0,0 -4.91457,-0.94568 -6.50122,-2.42488c-2.073,-1.93262 -12.23737,-3.79069 -12.23737,-3.79069l4.47293,-2.00836c0,0 10.77343,0.95341 11.88499,2.66646c0.78889,1.21578 3.70116,3.74909 3.70116,3.74909z" fill="#ffffff" fill-rule="nonzero" stroke="#000000" stroke-width="1.5" stroke-linecap="butt" stroke-linejoin="miter"/></g></g></svg>