<svg version="1.1" xmlns="http://www.w3.org/2000/svg" xmlns:xlink="http://www.w3.org/1999/xlink" width="35.67311" height="35.67311" viewBox="0,0,35.67311,35.67311"><g transform="translate(-222.16347,-162.1635)"><g data-paper-data="{&quot;isPaintingLayer&quot;:true}" stroke-miterlimit="10" stroke-dasharray="" stroke-dashoffset="0" style="mix-blend-mode: normal"><path d="M229.98315,162.9135h20.03378c3.9166,0 7.06966,3.15307 7.06966,7.06966v20.03379c0,3.91659 -3.15306,7.06966 -7.06966,7.06966h-20.03378c-3.91659,0 -7.06967,-3.15307 -7.06967,-7.06966v-20.03379c0,-3.91659 3.15308,-7.06966 7.06967,-7.06966z" fill="#ffffff" fill-rule="evenodd" stroke="#000000" stroke-width="1.5" stroke-linecap="round" stroke-linejoin="round"/><g fill-rule="nonzero" stroke-linejoin="miter"><g stroke="#000000" stroke-width="0"><path d="M230.7756,175.74308c0.01007,-0.08454 0.02148,-0.13397 0.02148,-0.13397c0.59435,-2.56795 1.3301,-6.54204 4.28445,-7.53288c1.03961,-0.34867 2.24415,-0.30773 3.36747,-0.10599c1.38853,0.24938 1.58524,1.54414 2.86814,0.98203c1.60078,-0.7014 4.2,-4.04942 6.11015,-3.54843c4.24528,1.11344 4.04271,8.51986 2.54971,11.11365c-0.05071,0.0881 -1.36158,1.54869 -2.37177,2.53734c1.20847,-0.34597 2.79326,-0.73742 3.25889,-0.42458c1.30091,0.87403 1.85671,5.57229 1.29194,6.7817c-0.79772,1.70824 -4.35233,3.56907 -5.96784,4.61349c-0.87879,0.56813 -1.60924,1.45789 -2.66366,1.66616c-1.07969,0.21327 -2.37112,0.11733 -3.3588,-0.47655c-0.94035,-0.56542 -1.23929,-1.78744 -1.87538,-2.67074c-0.82347,-1.14349 -2.44517,-2.9737 -2.51136,-4.34541c-0.02841,-0.58871 0.73802,-0.8728 1.11547,-1.30205c0.29072,-0.33062 -0.75508,0.52774 -1.21156,0.58027c-2.42806,0.27946 -3.18898,0.32603 -5.1834,-1.54056c-0.82819,-0.77511 -1.91567,-1.61007 -2.05653,-2.68614c-0.13687,-1.04565 0.89751,-1.82673 1.34625,-2.74008z" fill="#000000" stroke-linecap="butt"/><path d="M244.34802,178.92802l1.47328,5.51809l-4.92835,-2.68267l-3.62121,-8.70146z" fill="#ffffff" stroke-linecap="round"/><path d="M243.164,181.23111l-2.43382,-3.24074" fill="#ffffff" stroke-linecap="round"/><path d="M239.64771,179.14346l-11.10021,0.03413" fill="#ffffff" stroke-linecap="round"/><path d="M246.3402,165.47037l-4.63172,11.23718" fill="#ffffff" stroke-linecap="round"/><path d="M237.14782,186.69257l4.10992,-4.7837" fill="#ffffff" stroke-linecap="round"/><path d="M243.30013,183.17805l1.09606,8.08974" fill="#ffffff" stroke-linecap="round"/><path d="M252.03124,185.06568l-6.6344,-2.10012" fill="#ffffff" stroke-linecap="round"/><path d="M244.36754,179.00502l6.40038,-7.53536" fill="#ffffff" stroke-linecap="round"/><path d="M238.05713,175.16076l-6.65386,-0.88284" fill="#ffffff" stroke-linecap="round"/><path d="M240.31895,175.47892l-0.19943,-6.68865" fill="#ffffff" stroke-linecap="round"/><path d="M237.30183,173.22267l-3.11304,-4.55956" fill="#ffffff" stroke-linecap="round"/><path d="M247.83945,189.22235l-2.27047,-4.888" fill="#ffffff" stroke-linecap="round"/></g><g stroke="#ffffff"><path d="M229.969,178.59491c0.01007,-0.08454 0.02148,-0.13397 0.02148,-0.13397c0.59435,-2.56795 1.3301,-6.54204 4.28445,-7.53288c1.03961,-0.34867 2.24415,-0.30773 3.36747,-0.10599c1.38853,0.24938 1.58524,1.54414 2.86814,0.98203c1.60078,-0.7014 4.2,-4.04942 6.11015,-3.54843c4.24528,1.11344 4.04271,8.51986 2.54971,11.11365c-0.05071,0.0881 -1.36158,1.54869 -2.37177,2.53734c1.20847,-0.34597 2.79326,-0.73742 3.25889,-0.42458c1.30091,0.87403 1.85671,5.57229 1.29194,6.7817c-0.79772,1.70824 -4.35233,3.56907 -5.96784,4.61349c-0.87879,0.56813 -1.60924,1.45789 -2.66366,1.66616c-1.07969,0.21327 -2.37112,0.11733 -3.3588,-0.47655c-0.94035,-0.56542 -1.23929,-1.78744 -1.87538,-2.67074c-0.82347,-1.14349 -2.44517,-2.9737 -2.51136,-4.34541c-0.02841,-0.58871 0.73802,-0.8728 1.11547,-1.30205c0.29072,-0.33062 -0.75508,0.52774 -1.21156,0.58027c-2.42806,0.27946 -3.18898,0.32603 -5.1834,-1.54056c-0.82819,-0.77511 -1.91567,-1.61007 -2.05653,-2.68614c-0.13687,-1.04565 0.89751,-1.82673 1.34625,-2.74008z" fill="#000000" stroke-width="1" stroke-linecap="butt"/><path d="M243.54141,181.77985l1.47328,5.51809l-4.92835,-2.68267l-3.62121,-8.70146z" fill="#000000" stroke-width="0.5" stroke-linecap="round"/><path d="M242.35739,184.08293l-2.43382,-3.24074" fill="#ffffff" stroke-width="0.5" stroke-linecap="round"/><path d="M238.8411,181.99528l-11.10021,0.03413" fill="#ffffff" stroke-width="0.5" stroke-linecap="round"/><path d="M245.53359,168.32219l-4.63172,11.23718" fill="#ffffff" stroke-width="0.5" stroke-linecap="round"/><path d="M240.45113,184.76069l-4.10992,4.7837" fill="#ffffff" stroke-width="0.5" stroke-linecap="round"/><path d="M243.58959,194.11961l-1.09606,-8.08974" fill="#ffffff" stroke-width="0.5" stroke-linecap="round"/><path d="M251.22464,187.9175l-6.6344,-2.10012" fill="#ffffff" stroke-width="0.5" stroke-linecap="round"/><path d="M249.96131,174.32148l-6.40038,7.53536" fill="#ffffff" stroke-width="0.5" stroke-linecap="round"/><path d="M237.25053,178.01258l-6.65386,-0.88284" fill="#ffffff" stroke-width="0.5" stroke-linecap="round"/><path d="M239.31292,171.6421l0.19943,6.68865" fill="#ffffff" stroke-width="0.5" stroke-linecap="round"/><path d="M233.38219,171.51494l3.11304,4.55956" fill="#ffffff" stroke-width="0.5" stroke-linecap="round"/><path d="M244.76238,187.18617l2.27047,4.888" fill="#ffffff" stroke-width="0.5" stroke-linecap="round"/></g></g></g></g></svg>