<svg version="1.1" xmlns="http://www.w3.org/2000/svg" xmlns:xlink="http://www.w3.org/1999/xlink" width="111.58314" height="259.63335" viewBox="0,0,111.58314,259.63335"><g transform="translate(-189.98805,-48.05338)"><g data-paper-data="{&quot;isPaintingLayer&quot;:true}" fill-rule="nonzero" stroke-linejoin="miter" stroke-miterlimit="10" stroke-dasharray="" stroke-dashoffset="0" style="mix-blend-mode: normal"><path d="M242.04237,52.79711c2.6477,-2.24657 5.20727,-2.98206 9.58473,-3.72989c3.75833,-0.64207 9.65672,-1.73385 13.39137,-0.33187c1.19587,0.44893 2.07164,1.49535 3.12498,2.21791c0.47583,0.3264 6.05922,3.98914 6.81574,4.64175c7.12177,6.14351 9.15198,17.06455 9.14067,25.91987c-0.99992,6.38887 -3.28654,12.10949 0.61037,17.94966c1.74476,2.61481 6.01209,4.87853 8.6815,6.36569c0.46776,0.26059 0.99419,0.77375 1.49565,0.586c0.00488,-0.00182 0.00971,-0.00369 0.01451,-0.0056c0.15857,-0.31161 0.34346,-0.6077 0.56711,-0.88117c0.03021,-0.03693 0.06065,-0.07363 0.09134,-0.11011l-0.03688,-0.01702l1.25422,-2.71748c0.38497,-0.88483 1.267,-1.50351 2.29351,-1.50351c1.38071,0 2.5,1.11929 2.5,2.5c0,0.36065 -0.07637,0.70346 -0.21381,1.01314l-1.04335,2.50405l-0.09455,-0.03939l-0.10012,0.21692c0.25431,0.87149 -0.50619,1.75245 -0.86819,2.58628c-1.30743,3.01156 -1.81261,3.95433 -3.85442,6.24786c-1.4801,1.66258 -2.79917,3.50011 -4.50776,4.92685c-3.81676,3.18716 -9.23182,3.33823 -13.79685,1.98723c-1.24755,-0.3692 -2.59038,-0.6772 -3.60881,-1.48681c-5.66284,-4.50176 -2.25575,-11.79841 -2.25575,-17.53018c0,-2.7944 -0.84093,-4.77817 -1.99515,-7.28375c-0.66862,-2.84814 -0.95263,-5.72387 -1.56501,-8.56901c-0.39923,-1.85485 -1.94823,-3.38094 -2.15933,-5.26649c-0.59814,-5.34244 3.0561,-10.54579 1.17374,-15.96588c-0.02977,-0.08572 -1.21104,-2.92029 -1.63809,-3.11963c-4.11653,-1.92155 -9.90101,1.61122 -14.25257,0.46951c-3.24166,-0.85051 -5.82342,-2.92832 -8.17159,-5.17662c-0.64448,0.40801 -1.70611,0.74568 -2.87855,-0.24638c-1.90847,-1.61485 -0.29361,-3.52332 -0.29361,-3.52332c0.81394,-0.9432 1.57327,-1.72874 2.32043,-2.39056c0.00777,-0.02887 0.01553,-0.05774 0.0233,-0.08661z" fill="#000000" stroke="none" stroke-width="0.5" stroke-linecap="butt"/><path d="M196.49538,99.64276c0.06876,-0.46389 1.12759,-3.04967 0.91244,-6.83283c-0.18617,-3.27353 -1.72825,-7.54408 -0.81986,-10.89443c0.60091,-2.2163 1.97852,-5.95974 4.04229,-9.51405c2.75119,-4.73822 6.2555,-9.14033 6.2555,-9.14033l0.9254,1.40655c0,0 3.68336,-4.73459 7.7681,-7.29185c2.43954,-1.52728 8.3222,-3.62524 8.3222,-3.62524l0.45037,1.1596c0,0 2.63545,-0.68303 5.93779,-1.3795c1.3669,-0.28829 2.64656,-0.17887 3.98776,-0.42428c1.93483,-0.35403 3.7815,-1.01403 4.38576,-1.03746c0.15156,-0.00588 2.72604,0.0607 3.59399,0.20172c2.59267,0.42121 5.80389,1.50653 10.18296,3.30848c0.78661,0.32368 2.17632,-0.11565 2.96264,0.28594c1.48295,0.75737 1.3774,1.33664 2.78634,2.38974c3.59103,2.68409 8.22663,6.24775 9.10077,7.43926c4.29274,5.85126 6.29588,11.03948 7.87421,15.72817c1.74295,5.17775 2.83613,9.74633 2.97477,13.92593c0.04567,1.37674 1.49869,3.33419 1.40148,5.21021c-0.23572,4.54893 -0.88136,5.33358 -0.74629,5.70086c0.33103,0.90014 2.54238,8.40902 1.34999,16.7771c-1.03839,7.28738 -4.7904,9.63179 -4.96356,10.63822c-1.5623,9.48098 -1.43421,11.91918 -5.01309,15.01082c-2.82322,2.43884 -10.03873,4.51273 -10.03873,4.51273l1.50795,-2.63755c0,0 -7.0601,7.35129 -24.35066,7.20488c-16.30625,-0.25547 -26.07151,-7.00854 -26.07151,-7.00854l-0.1162,1.78818c0,0 -4.58517,-1.81728 -7.73846,-4.7674c-1.80166,-1.68557 -2.05818,-4.41038 -3.44417,-6.29755c-0.77972,-1.06166 -1.41051,-1.15325 -1.79882,-2.24259c-0.55428,-1.55491 -1.05957,-4.34893 -1.28062,-7.36549c-0.17756,-2.42302 0.29925,-5.11867 0.14501,-7.76741c-0.09659,-1.65877 -0.98466,-3.53016 -1.06444,-5.16683c-0.4141,-8.4947 0.19505,-15.85369 0.19505,-15.85369c0,0 0.25531,-2.57563 0.38363,-3.44137z" data-paper-data="{&quot;index&quot;:null}" fill="#000000" stroke="none" stroke-width="1.5" stroke-linecap="butt"/><g stroke-linecap="butt"><path d="M201.79536,304.39159c0,0 -0.63536,-94.38387 -0.79335,-118.01201c-0.05451,-8.15261 8.18688,-36.76129 40.20201,-36.9211c31.60235,-0.15775 39.85672,29.48704 39.84884,36.89673c-0.07659,46.24274 0.65429,117.98648 0.65429,117.98648l-10.49667,0.09614l-0.15882,-114.84311c0,0 0.07549,-3.0993 -2.81625,-3.15415c-3.43441,-0.06514 -2.94538,3.11562 -2.94538,3.11562c0,0 -4.31769,46.01394 -4.2812,66.41038c0.03117,17.42313 4.48668,48.45957 4.48668,48.45957l-48.21366,0.07222c0,0 3.91807,-29.91656 3.8719,-47.33435c-0.05431,-20.49151 -4.17729,-67.89874 -4.17729,-67.89874c0,0 0.27949,-2.919 -2.8856,-2.93443c-3.11083,-0.01515 -2.81569,2.90899 -2.81569,2.90899l0.35311,115.0668z" fill="#ffffff" stroke="#000000" stroke-width="2"/><path d="M256.39252,200.33377c-0.57113,0 -1.03411,-0.46299 -1.03411,-1.03411c0,-0.57113 0.46299,-1.03413 1.03411,-1.03413c0.57113,0 1.03411,0.463 1.03411,1.03413c0,0.57113 -0.46299,1.03411 -1.03411,1.03411z" fill="#ffffff" stroke="none" stroke-width="1.5"/><path d="M251.13266,204.56936c-4.4635,-0.31439 -6.55245,-1.79392 -6.16985,-2.58011c0.11788,-0.24224 2.84645,1.06355 6.97038,1.3048c6.40897,0.37493 8.51033,-0.63173 8.51033,-0.63173v1.34616c0,0 -2.4135,1.04672 -9.31086,0.56089z" fill="#ffffff" stroke="#000000" stroke-width="0"/><path d="M223.31989,199.29966c0,-0.57113 0.46299,-1.03413 1.03411,-1.03413c0.57113,0 1.03413,0.463 1.03413,1.03413c0,0.57113 -0.463,1.03411 -1.03413,1.03411c-0.57113,0 -1.03411,-0.46299 -1.03411,-1.03411z" fill="#ffffff" stroke="none" stroke-width="1.5"/><path d="M229.61387,204.56936c-6.89736,0.48585 -9.31086,-0.56089 -9.31086,-0.56089v-1.34616c0,0 2.10136,1.00666 8.51033,0.63173c4.12393,-0.24126 6.85251,-1.54704 6.97039,-1.3048c0.3826,0.78618 -1.70634,2.26571 -6.16985,2.58011z" fill="#ffffff" stroke="#000000" stroke-width="0"/><path d="M240.89437,261.12113c-0.81895,0 -1.48284,-0.66389 -1.48284,-1.48284c0,-0.81895 0.66389,-1.48284 1.48284,-1.48284c0.81895,0 1.48284,0.66389 1.48284,1.48284c0,0.81895 -0.66389,1.48284 -1.48284,1.48284z" data-paper-data="{&quot;index&quot;:null}" fill="#ffffff" stroke="none" stroke-width="1.5"/><g stroke="none" stroke-width="0"><path d="M189.98805,306.36942l7.32163,-141.79288l15.63266,-9.25281v151.04568z" fill="#706bbd"/><path d="M189.98805,306.36942c0,0 3.1987,-54.28249 4.48127,-79.12122c0.0315,-0.60997 2.82203,4.64975 7.50611,8.05927c4.53399,3.30028 10.96691,4.74087 10.96691,4.95045c0,23.41563 0,66.11153 0,66.11153z" fill="#615ca2"/></g><g data-paper-data="{&quot;index&quot;:null}" stroke="none" stroke-width="0"><path d="M269.39158,307.68673v-151.04568l15.63267,9.25278l7.32162,141.79289z" fill="#706bbd"/><path d="M269.39158,307.68673c0,0 0,-42.69589 0,-66.11152c0,-0.20958 6.43291,-1.65017 10.96691,-4.95045c4.68408,-3.40952 7.47462,-8.66923 7.50611,-8.05926c1.28258,24.83874 4.48127,79.12123 4.48127,79.12123z" fill="#615ca2"/></g><g stroke="none" stroke-width="0"><path d="M215.01439,305.46925c0,0 5.92012,-28.88533 3.61615,-56.87628c-1.53607,-18.66163 -11.61615,-37.37012 -11.61615,-45.2263c0,-8.26041 8.2,-29.00205 8.2,-29.00205h51.40543c0,0 9.3,19.7813 9.3,28.50205c0,5.56261 -10.92256,30.8118 -11.82033,43.0364c-2.3205,31.59717 2.52033,59.56618 2.52033,59.56618z" fill="#403d6a"/><path d="M215.41443,305.46925c0,0 0.78845,-6.04459 2.56721,-17.26586c1.60191,-10.10561 3.85582,-24.86322 9.67783,-35.33297c5.9151,-10.63714 28.19297,-16.49378 29.13113,-21.42307c1.31013,-6.88376 -24.64694,-13.87745 -24.64694,-13.87745l43.0762,-8.6583c0,0 -4.07768,9.31903 -6.29892,19.13149c-2.46596,10.89354 -5.10108,21.9672 -5.10108,30.32359c0,17.02335 3.2,47.1026 3.2,47.1026z" fill="#302d4e"/><path d="M215.01439,305.46925c0,0 17.77045,-4.55203 26.50289,-14.93502c8.68981,-10.3323 8.33021,-26.48849 13.03659,-29.4623c7.07973,-4.47346 9.06594,9.38949 9.06594,9.38949l3,35.00783z" fill="#222038"/></g><g stroke="none" stroke-width="0"><path d="M285.58333,165.90001c0,11.59798 -15.35571,37.8 -45.4,37.8c-30.04429,0 -42.6,-26.20202 -42.6,-37.8c0,-11.59798 14.35571,-15.6 44.4,-15.6c30.04429,0 43.6,4.00202 43.6,15.6z" fill="#6b6b6b"/><path d="M285.58333,165.90001c0,11.59798 -15.35571,37.8 -45.4,37.8c-13.50573,0 -30.24319,-6.63878 -31.20608,-16.51659c-0.45744,-4.69265 40.91851,-3.60756 44.96394,-8.27403c6.38224,-7.36202 -17.62453,-9.94272 -17.62453,-9.94272c0,0 9.22806,-4.8165 13.93617,-5.53807c21.22977,-3.25368 35.33049,-7.02137 35.33049,2.4714z" fill="#4c4c4c"/></g></g><path d="M208.56108,110.03504c-0.57709,-7.29323 0.335,-17.15448 0.335,-17.15448c0,0 3.41059,-0.04124 13.91429,-3.14424c8.0696,-2.38394 20.54731,-9.48722 20.54731,-9.48722c0,0 -2.16005,3.00503 -3.40781,4.46015c-1.32651,1.54696 -3.99292,4.56297 -3.99292,4.56297c0,0 7.838,-1.66761 14.67476,-4.72931c8.56837,-3.53575 10.59252,-6.05309 12.95042,-4.5927c2.7829,1.72362 1.03006,23.1827 0.71846,28.74062c-0.42163,5.66922 -2.53327,9.49969 -3.15031,12.52053c-0.61704,3.02084 -0.4096,6.13662 -2.20622,16.0397c-1.12121,6.18021 -4.16183,8.92466 -10.01942,14.66081c-5.85759,5.73616 -9.05378,9.25275 -13.01359,9.32173c-3.81077,0.06639 -8.93565,-5.1002 -13.93542,-10.38244c-5.32393,-5.62474 -8.87489,-8.47713 -9.71551,-15.13975c-0.75707,-6.00039 -0.77653,-9.90853 -1.12266,-15.24835c-0.25298,-3.90273 -2.26119,-6.44504 -2.57636,-10.42801z" fill="#ffffff" stroke="#000000" stroke-width="1.5" stroke-linecap="butt"/><path d="M256.63107,94.91468c0,0 1.52429,0.31807 4.2558,1.11029c2.49492,0.72361 4.44935,1.74403 4.44935,1.74403l0.1951,1.17035c0,0 -7.24963,-3.12997 -15.1158,-2.4706c-6.2896,0.52724 -9.96319,2.8124 -9.96319,2.8124l0.04575,-4.17683c0,0 3.12748,-1.70421 7.86366,-1.85557c4.90428,-0.15672 8.09084,0.59125 8.09084,0.59125z" data-paper-data="{&quot;index&quot;:null}" fill="#000000" stroke="#000000" stroke-width="0" stroke-linecap="butt"/><path d="M236.19325,139.46214c-1.03376,0 -3.5381,-3.26042 -3.7867,-5.3637c-0.22243,-1.88186 1.31512,-3.82799 3.7867,-3.82799c2.47159,0 4.2021,0.49077 4.02999,4.18853c-0.14607,3.13818 -1.55841,5.00317 -4.02999,5.00317z" fill="#ffffff" stroke="#000000" stroke-width="1.15" stroke-linecap="butt"/><path d="M210.26076,120.15826c0,0 -4.93211,-3.51705 -6.16417,-8.97502c-1.29636,-5.74284 -1.46118,-9.7328 0.48013,-9.99193c1.94131,-0.25915 2.70321,2.37692 3.73262,8.35569c0.33637,1.95364 0.66128,3.76353 0.94629,5.31502c0.58723,3.19658 1.00514,5.29625 1.00514,5.29625z" data-paper-data="{&quot;index&quot;:null}" fill="#ffffff" stroke="#000000" stroke-width="1" stroke-linecap="butt"/><path d="M210.05813,115.98979c0,0 -3.56385,-2.92338 -4.31816,-8.45061c-0.42079,-3.08327 2.15675,-2.28016 2.15675,-2.28016" fill="none" stroke="#000000" stroke-width="0.25" stroke-linecap="round"/><path d="M213.07156,109.5548c0.07093,-4.89188 4.83834,-8.93609 10.21137,-8.8582c5.37302,0.0779 9.02724,4.2484 8.95632,9.14029c-0.07093,4.89188 -4.12352,8.79439 -9.49655,8.7165c-5.37302,-0.0779 -9.74207,-4.1067 -9.67114,-8.99859z" fill="#000000" stroke="#000000" stroke-width="1.4" stroke-linecap="butt"/><path d="M217.50917,109.67274c0.03999,-2.75843 2.30855,-4.96213 5.06696,-4.92214c2.75843,0.03999 4.96213,2.30855 4.92214,5.06696c-0.00458,0.31586 0.33486,1.95205 -0.73171,3.05328c-1.17146,1.20953 -3.78111,1.87689 -4.33525,1.86886c-2.75843,-0.03999 -4.96213,-2.30855 -4.92214,-5.06696z" fill="#ffffff" stroke="#000000" stroke-width="0" stroke-linecap="butt"/><path d="M240.12779,109.55553c0.20353,-4.88817 4.45264,-8.85847 9.77048,-8.85847c5.31783,0 9.27453,3.96607 9.27453,8.85847c0,4.8924 -3.88585,9.07104 -9.69964,9.14188c-5.52997,0.06739 -9.55792,-4.03692 -9.34537,-9.14188z" fill="#000000" stroke="#000000" stroke-width="1.4" stroke-linecap="butt"/><path d="M264.49389,109.54699c1.0294,-5.97877 1.7913,-8.61483 3.73262,-8.35569c1.94131,0.25914 1.77649,4.24909 0.48013,9.99193c-1.23206,5.45797 -6.16417,8.97502 -6.16417,8.97502c0,0 0.92203,-4.6325 1.95143,-10.61127z" data-paper-data="{&quot;index&quot;:null}" fill="#ffffff" stroke="#000000" stroke-width="1" stroke-linecap="butt"/><path d="M264.90644,105.47993c0,0 2.57754,-0.80312 2.15675,2.28016c-0.75431,5.52723 -4.31816,8.45061 -4.31816,8.45061" data-paper-data="{&quot;index&quot;:null}" fill="none" stroke="#000000" stroke-width="0.25" stroke-linecap="round"/><path d="M216.53297,99.01096c0,0 3.36963,-1.819 8.03244,-2.28178c5.16698,-0.51283 7.76823,-0.06628 7.76823,-0.06628l0.29508,4.13747c0,0 -3.83554,-0.68065 -8.01795,-0.52113c-5.59346,0.21333 -6.64488,1.43293 -10.89774,1.89119c-3.64408,0.39266 -6.73723,0.15884 -6.73723,0.15884l-0.02589,-1.23155c0,0 3.59517,0.07398 5.23371,-0.06836c1.35239,-0.11749 3.9757,-0.93808 3.9757,-0.93808z" fill="#000000" stroke="#000000" stroke-width="0" stroke-linecap="butt"/><g stroke-width="0" stroke-linecap="butt"><path d="M276.90309,85.7886l1.33333,8.04167c0,0 -27.02547,-10.46963 -40.27642,-10.58333c-14.64017,-0.12563 -40.51525,10.58333 -40.51525,10.58333l-1,-8.375c0,0 26.67764,-9.95833 41.21972,-10.08333c14.66446,-0.12605 39.23862,10.41667 39.23862,10.41667z" fill="#6d6d6d" stroke="none"/><g><path d="M266.60927,80.8154c-0.10124,7.59388 -6.90582,13.87189 -14.5748,13.75097c-7.66896,-0.12093 -12.88467,-6.59498 -12.78345,-14.18887c0.10124,-7.59388 5.88554,-13.65192 13.55452,-13.53101c7.66897,0.12093 13.90496,6.37502 13.80372,13.96891z" fill="#615ca2" stroke="#000000"/><path d="M256.50845,67.34649l-7.73194,26.80452l-1.73968,-0.73581l7.73194,-26.38406z" fill="#403d6a" stroke="#000000"/><path d="M253.51233,67.01398l-7.67966,25.66541l-2.37185,-1.44588l6.33545,-23.89453c0,0 1.27712,-0.4524 1.94582,-0.51089c0.54411,-0.04758 1.77024,0.18588 1.77024,0.18588z" fill="#403d6a" stroke="#000000"/><path d="M264.32901,80.50348c0,5.74733 -5.1565,10.40646 -11.51737,10.40646c-6.36087,0 -11.51737,-4.65913 -11.51737,-10.40646c0,-5.74733 5.1565,-10.40646 11.51737,-10.40646c6.36087,0 11.51737,4.65913 11.51737,10.40646z" fill="#d0d0d0" stroke="none"/><path d="M255.71649,70.44874c0,0 -4.1842,14.32997 -5.86985,20.17365c-0.01315,0.04558 -1.81238,-0.43183 -1.78614,-0.52136c1.6679,-5.69146 5.85336,-19.97371 5.85336,-19.97371z" fill="#e8e8e8" stroke="#000000"/><path d="M252.65568,70.05291l-5.8067,19.40597l-2.41909,-1.74154l4.52802,-17.02262c0,0 1.08232,-0.38825 1.67566,-0.49123c0.63626,-0.11043 2.02211,-0.15057 2.02211,-0.15057z" fill="#e8e8e8" stroke="#000000"/></g><g><path d="M235.50216,80.33326c-0.10124,7.59388 -6.90581,13.87189 -14.57479,13.75098c-7.66896,-0.12093 -12.88467,-6.59498 -12.78345,-14.18888c0.10124,-7.59388 5.88554,-13.65192 13.55452,-13.53101c7.66896,0.12093 13.90496,6.37502 13.80372,13.96891z" fill="#615ca2" stroke="#000000"/><path d="M225.40134,66.86433l-7.73194,26.80453l-1.73968,-0.73581l7.73194,-26.38406z" fill="#403d6a" stroke="#000000"/><path d="M222.40519,66.53182l-7.67966,25.66542l-2.37185,-1.44588l6.33545,-23.89453c0,0 1.27712,-0.4524 1.94582,-0.51089c0.54412,-0.04758 1.77024,0.18588 1.77024,0.18588z" fill="#403d6a" stroke="#000000"/><path d="M233.22188,80.02134c0,5.74733 -5.1565,10.40646 -11.51737,10.40646c-6.36087,0 -11.51737,-4.65913 -11.51737,-10.40646c0,-5.74733 5.1565,-10.40646 11.51737,-10.40646c6.36086,0 11.51737,4.65913 11.51737,10.40646z" fill="#d0d0d0" stroke="none"/><path d="M224.60935,69.96659c0,0 -4.18419,14.32997 -5.86984,20.17365c-0.01315,0.04558 -1.81238,-0.43183 -1.78614,-0.52136c1.6679,-5.69146 5.85336,-19.97371 5.85336,-19.97371z" fill="#e8e8e8" stroke="#000000"/><path d="M221.54855,69.57076l-5.8067,19.40597l-2.41908,-1.74155l4.52801,-17.02262c0,0 1.08233,-0.38825 1.67566,-0.49123c0.63626,-0.11043 2.02211,-0.15057 2.02211,-0.15057z" fill="#e8e8e8" stroke="#000000"/></g></g><path d="M249.90369,114.6397c-0.57934,0.0084 -2.78916,-0.76797 -3.99385,-2.03408c-0.99669,-1.0475 -1.06875,-2.58798 -1.0731,-2.88806c-0.03999,-2.75841 2.16371,-5.02697 4.92214,-5.06696c2.75841,-0.03999 5.02697,2.16371 5.06696,4.92214c0.03999,2.75841 -2.16371,5.02697 -4.92214,5.06696z" data-paper-data="{&quot;index&quot;:null}" fill="#ffffff" stroke="#000000" stroke-width="0" stroke-linecap="butt"/><path d="M206.55005,119.7c0,-1.10457 0.89543,-2 2,-2c1.10457,0 2,0.89543 2,2c0,1.10457 -0.89543,2 -2,2c-1.10457,0 -2,-0.89543 -2,-2z" fill="#222038" stroke="#302d4e" stroke-width="1" stroke-linecap="butt"/><path d="M261.85,119.9c0,-1.10457 0.89543,-2 2,-2c1.10457,0 2,0.89543 2,2c0,1.10457 -0.89543,2 -2,2c-1.10457,0 -2,-0.89543 -2,-2z" fill="#222038" stroke="#302d4e" stroke-width="1" stroke-linecap="butt"/><g stroke="none" stroke-linecap="butt"><path d="M257.09235,143.49071c0,0 0.14916,15.74821 -6.72494,23.80261c-2.39758,2.80926 -8.67577,2.79641 -13.99591,2.79641c-5.70451,0 -10.91972,-0.01373 -13.8233,-3.02185c-8.23522,-8.53186 -7.48535,-24.75285 -7.48535,-24.75285c0,0 10.32292,-8.00654 15.28545,-8.44736c1.52335,-0.13531 6.17783,3.64713 6.17783,3.64713c0,0 3.87821,-4.23729 8.04558,-2.84813c6.97919,2.32649 12.52064,8.82398 12.52064,8.82398z" fill="#000000" stroke-width="0"/><path d="M237.72393,139.9857c-0.71982,0.55262 -14.82851,2.61877 -17.35894,2.61877c-3.51205,0 -3.21116,-0.68229 2.70036,-4.01938c5.3226,-2.99706 8.95633,-3.78925 13.21575,0.77628c0,0 1.57372,0.47557 1.44282,0.62433z" data-paper-data="{&quot;noHover&quot;:false,&quot;origItem&quot;:[&quot;Path&quot;,{&quot;applyMatrix&quot;:true,&quot;segments&quot;:[[[332.0254,197.06293],[0.95313,-0.53669],[-1.05859,0.59758]],[[331.53713,197.74806],[-0.62891,0],[0.45313,0]],[[334.0254,197.29892],[-0.1289,0.09896],[0.02344,-0.02664]],[[333.87307,196.93732],[0.10547,0.17509],[-0.28906,-0.44914]]],&quot;closed&quot;:true,&quot;fillColor&quot;:[0,0,0]}]}" fill="#ffffff" stroke-width="0.5"/><path d="M249.94854,139.46155l4.49293,3.46162l-2.33659,0.25727c-2.72672,0.21254 -15.26264,-2.51303 -15.58982,-3.70333c1.34901,-1.25408 4.51089,-3.46796 6.49595,-3.46796c1.19974,0 4.07997,1.43311 6.93759,3.4524z" data-paper-data="{&quot;noHover&quot;:false,&quot;origItem&quot;:[&quot;Path&quot;,{&quot;applyMatrix&quot;:true,&quot;segments&quot;:[[[335.58448,196.62521],[0.21484,0],[-0.35547,0]],[[334.9087,197.16189],[-0.07422,-0.22457],[0.05859,0.21315]],[[337.13526,197.84702],[-0.48828,0.03806],[0,0]],[337.54932,197.80896],[[336.74073,197.21138],[0,0],[-0.51172,-0.3616]]],&quot;closed&quot;:true,&quot;fillColor&quot;:[0,0,0]}]}" fill="#ffffff" stroke-width="0.5"/><path d="M229.64674,143.95385c0,-1.53038 9.13083,-1.82691 13.18819,-0.50907c2.98852,1.04154 2.7982,1.27965 -4.9021,1.27965c-4.47182,0.06377 -8.28609,-0.43045 -8.28609,-0.77053z" data-paper-data="{&quot;noHover&quot;:false,&quot;origItem&quot;:[&quot;Path&quot;,{&quot;applyMatrix&quot;:true,&quot;segments&quot;:[[[333.20509,198.01069],[0,0],[0,0.0609]],[[334.61134,198.10965],[-0.80078,0.01142],[1.37891,0]],[[335.46682,197.92314],[0.53516,0.18651],[-0.72656,-0.23599]],[[333.20509,198.01068],[0,-0.27405],[0,0]]],&quot;closed&quot;:true,&quot;fillColor&quot;:[0,0,0]}]}" fill="#ffffff" stroke-width="0.5"/><path d="M226.99223,152.8464c0,-0.9777 0.54559,-0.85892 4.86474,1.22409c4.51543,2.16806 7.82979,2.02052 11.08004,-0.40264c2.20319,-1.67921 3.49479,-1.71003 2.81858,0.11795c-0.78527,2.29561 -4.7636,4.26833 -8.95185,4.26833c-3.40298,0 -4.6909,-0.58904 -7.02498,-2.33197c-1.52698,-1.1903 -2.78659,-2.53562 -2.78659,-2.8757z" data-paper-data="{&quot;noHover&quot;:false,&quot;origItem&quot;:[&quot;Path&quot;,{&quot;applyMatrix&quot;:true,&quot;segments&quot;:[[[332.72855,199.61694],[0,0],[0,0.0609]],[[333.22855,200.11556],[-0.27344,-0.21315],[0.41797,0.31211]],[[334.43168,200.48857],[-0.60938,0],[0.75,0]],[[335.99027,199.7806],[-0.14062,0.41108],[0.12109,-0.32734]],[[335.58402,199.74254],[0.39453,-0.3007],[-0.58203,0.43392]],[[333.50199,199.81486],[0.80859,0.38824],[-0.77344,-0.37301]],[[332.72855,199.61693],[0,-0.17508],[0,0]]],&quot;closed&quot;:true,&quot;fillColor&quot;:[0,0,0]}]}" fill="#ffffff" stroke-width="0.5"/><path d="M222.77549,148.94096c4.9299,9.67123 6.94066,10.95563 15.05537,10.55177c6.17332,-0.27632 7.18832,-0.79442 10.56947,-7.87251c2.0069,-4.12359 5.63264,-7.47843 6.63609,-6.4369c0.71988,0.76522 -1.63906,13.81664 -3.10059,16.87742c-2.26863,4.86748 -5.16507,6.08995 -15.0031,6.08995c-7.17676,0 -8.53626,-0.23035 -11.52478,-1.82451c-4.05736,-2.14684 -5.78722,-5.55798 -7.72867,-14.8679c-0.71982,-3.63467 -1.29863,-6.89905 -1.29863,-7.17537c0,-0.29759 1.00975,-0.15866 2.20949,0.3302c1.39608,0.6164 3.13834,2.24479 4.18541,4.32781z" data-paper-data="{&quot;noHover&quot;:false,&quot;origItem&quot;:[&quot;Path&quot;,{&quot;applyMatrix&quot;:true,&quot;segments&quot;:[[[331.21682,198.15914],[0.25,0.11038],[-0.21484,-0.08754]],[[330.8223,198.09824],[0,-0.05329],[0,0.04948]],[[331.06057,199.36953],[-0.1289,-0.65087],[0.34766,1.66715]],[[332.43166,201.98444],[-0.72656,-0.38444],[0.53516,0.28547]],[[334.4551,202.29655],[-1.28516,0],[1.76172,0]],[[337.09963,201.23841],[-0.40625,0.87163],[0.26172,-0.5481]],[[337.65822,198.2581],[0.12891,0.13703],[-0.17969,-0.18651]],[[336.56056,199.36953],[0.35938,-0.73842],[-0.60547,1.26749]],[[334.6465,200.83875],[1.10547,-0.04948],[-1.45312,0.07232]],[[331.88088,198.88233],[0.88281,1.73185],[-0.1875,-0.37301]]],&quot;closed&quot;:true,&quot;fillColor&quot;:[0,0,0]}]}" fill="#ffffff" stroke-width="0.5"/></g><path d="M212.68941,109.73666c0,0 0.06357,-9.01512 10.60111,-8.8249c9.47101,0.16586 9.55554,9.40723 9.55554,9.40723c0,0 -2.86442,-3.06382 -10.11316,-3.10834c-7.29086,-0.04478 -10.04349,2.52601 -10.04349,2.52601z" fill="#000000" stroke="#000000" stroke-width="1.15" stroke-linecap="butt"/><path d="M239.43647,109.86756c0,0 -0.24686,-9.4582 11.19813,-9.1032c9.71427,0.33347 9.54677,9.65229 9.54677,9.65229c0,0 -3.69266,-3.38155 -10.11723,-3.36995c-9.70875,0.01753 -10.62767,2.82086 -10.62767,2.82086z" fill="#000000" stroke="#000000" stroke-width="1.15" stroke-linecap="butt"/><path d="M239.79533,109.36842c0,0 0.1026,3.96976 0.00576,7.12662c-0.19174,6.25113 -1.08147,27.7607 -1.08147,27.7607l-2.98167,0.00864c0,0 -0.80294,-4.17274 -1.12322,-9.49979c-0.43353,-7.21063 -0.4495,-16.29321 -0.76344,-19.63229c-0.29758,-3.16513 -0.89593,-5.71453 -0.89593,-5.71453" fill="#ffffff" stroke="#000000" stroke-width="1.3" stroke-linecap="round"/></g></g></svg>