<svg version="1.1" xmlns="http://www.w3.org/2000/svg" xmlns:xlink="http://www.w3.org/1999/xlink" width="188.48835" height="249.34499" viewBox="0,0,188.48835,249.34499"><g transform="translate(-173.38583,-56.15489)"><g data-paper-data="{&quot;isPaintingLayer&quot;:true}" fill-rule="nonzero" stroke-linejoin="miter" stroke-miterlimit="10" stroke-dasharray="" stroke-dashoffset="0" style="mix-blend-mode: normal"><path d="M200.23711,186.37961c-0.05451,-8.15261 8.18688,-36.76129 40.20201,-36.9211c13.72075,-0.06849 28.46501,8.55021 39.34305,27.09597c4.67459,7.96962 7.23015,18.43389 10.56667,27.2055c6.78226,17.83041 11.09341,49.83174 11.09341,49.83174l-2.99667,15.59614c0,0 -5.64637,-4.3747 -9.50265,-13.86384c-9.72691,-23.93494 -19.40165,-68.84414 -21.47242,-68.88342c-3.43441,-0.06514 -2.7399,117.98557 -2.7399,117.98557l-48.21366,0.07222c0,0 -0.0259,-118.15209 -3.19099,-118.16752c-3.11083,-0.01515 -12.93086,23.67688 -13.08885,0.04874z" fill="#000000" stroke="#000000" stroke-width="2" stroke-linecap="butt"/><path d="M287.60113,144.23399c0,0 -1.20191,0.14383 -2.53097,0.07059c-2.09673,-0.11555 -3.55198,-0.76473 -3.55198,-0.76473c0,0 0.21559,5.44457 2.32915,10.93776c2.23858,5.81805 7.57787,10.80979 7.57787,10.80979c0,0 -1.92952,0.042 -4.29486,-0.49417c-2.26698,-0.51384 -4.51994,-1.5793 -4.51994,-1.5793c0,0 -1.53245,4.85278 0.35694,6.66505c2.1212,2.03462 5.84307,14.82739 5.84307,14.82739c0,0 -3.19408,-8.85839 -7.7096,-9.9165c-3.60356,-0.8444 -3.16678,-6.50826 -3.16678,-6.50826c0,0 -0.50782,4.60209 -3.34377,12.27233c-2.37939,6.43541 -6.49745,9.76356 -6.49745,9.76356l-0.14645,-2.65369c0,0 -10.30659,10.5084 -27.66357,10.91254c-18.40579,0.30407 -26.01615,-10.64909 -26.01615,-10.64909l-0.06627,3.70491c0,0 -2.46514,-1.75689 -3.68573,-2.88126c-1.22056,-1.1244 -2.32808,-3.31292 -2.32808,-3.31292c0,0 -0.38444,-12.33083 -3.41438,-12.11639c-3.23737,0.22912 -15.42888,13.44996 -15.42888,13.44996c0,0 1.35453,-10.81205 5.11729,-18.68022c4.13451,-8.64556 5.818,-18.15997 5.818,-18.15997c0,0 -2.72535,2.16153 -4.01996,3.1804c-1.38805,1.0924 -4.31628,3.17106 -4.31628,3.17106c0,0 2.81295,-8.04371 6.40516,-17.45565c2.61984,-6.86426 -3.67517,-43.07402 43.85124,-42.56745c38.48085,1.07109 38.26864,38.97684 38.64635,41.24433c0.14402,0.86454 6.75601,6.73 6.75601,6.73z" data-paper-data="{&quot;index&quot;:null}" fill="#000000" stroke="none" stroke-width="1.5" stroke-linecap="butt"/><g stroke="none" stroke-width="0" stroke-linecap="butt"><g fill="#5a5a5a"><g><path d="M209.66364,197.16105c0,-10.5134 7.79074,-19.03619 17.40111,-19.03619c9.61037,0 29.25852,8.52279 29.25852,19.03619c0,10.5134 -19.64815,19.03619 -29.25852,19.03619c-9.61037,0 -17.40111,-8.5228 -17.40111,-19.03619z"/><path d="M254.5853,216.31749c-9.61038,0 -29.25852,-8.52279 -29.25852,-19.03619c0,-10.5134 19.64815,-19.0362 29.25852,-19.0362c9.61038,0 17.40112,8.5228 17.40112,19.0362c0,10.5134 -7.79075,19.03619 -17.40112,19.03619z" data-paper-data="{&quot;index&quot;:null}"/></g><path d="M209.80374,197.34132c0,0 -0.3709,-2.61945 0.11388,-4.91271c1.13225,-5.35615 7.74548,-26.79895 7.74548,-26.79895h47.61844c0,0 4.92103,20.9045 6.343,26.47807c0.68293,2.6768 0.59173,5.94356 0.59173,5.94356z"/></g><g fill="#3f3f3f"><g><path d="M256.52477,197.36254c0,10.5134 -19.64815,19.03619 -29.25852,19.03619c-9.06328,0 -16.50821,-7.58006 -17.32647,-17.26126c0.68033,-0.01074 12.81701,1.71413 24.65994,1.23208c11.07317,-0.45072 21.92505,-3.11479 21.92505,-3.00701z"/><path d="M254.78679,216.51898c-8.86312,0 -25.98147,-4.42629 -28.63385,-13.80031c6.87938,0.54674 13.51869,-1.88573 20.02075,-3.33063c6.71,-1.49111 23.12288,-7.02069 24.99004,-8.35496c0.66291,2.01411 1.02418,4.18576 1.02418,6.44971c0,10.5134 -7.79075,19.03619 -17.40112,19.03619z" data-paper-data="{&quot;index&quot;:null}"/></g><path d="M271.82602,192.30922c0.68293,2.6768 0.59173,5.94356 0.59173,5.94356l-20.64443,-0.23484c4.69135,-1.24508 17.73755,-5.75793 19.67993,-7.19539c0.14137,0.57072 0.26679,1.07128 0.37277,1.48668z"/></g></g><g stroke="none" stroke-width="0" stroke-linecap="butt"><path d="" fill="#3f3f3f"/><path d="" fill="#2a2a2a"/></g><g data-paper-data="{&quot;index&quot;:null}" stroke="none" stroke-width="0" stroke-linecap="butt"><path d="" fill="#3f3f3f"/><path d="" fill="#2a2a2a"/></g><g><g stroke="none" stroke-linecap="butt"><path d="M196.6702,232.05978c18.21882,-15.32181 47.97175,-37.69522 74.7153,-45.7357c9.28088,-2.7903 -19.60153,31.08018 -11.8276,45.84548c1.70008,8.19489 37.81779,-0.25476 38.88686,2.80596c2.39142,6.84657 -11.31766,16.22125 -19.64043,22.43199c-4.36741,3.25912 -10.85782,6.74105 -18.12068,10.1255c-0.34032,0.15859 -16.09125,-3.37483 -30.10484,-11.05563c-17.66726,-9.68336 -34.35844,-24.03932 -33.90862,-24.41761z" fill="#5a2042" stroke-width="NaN"/><path d="M173.4706,252.27889c-1.94806,-5.94228 30.24241,-25.40729 38.37066,-32.10572c0.05511,-0.04541 8.38714,26.37198 26.89962,33.66056c19.63677,7.73121 40.22448,3.45361 40.06345,3.57377c-10.98436,8.19691 -57.64313,31.5965 -68.24162,32.36311c-12.45452,0.90087 7.19204,-23.01162 3.40867,-27.6736c-1.35366,-2.09253 -38.42658,-3.49105 -40.50079,-9.81812z" fill="#3f162e" stroke-width="NaN"/></g><path d="M229.50019,238.34092l120.74172,-81.67936l-9.56068,26.50159l-101.88332,68.92203z" fill="#000000" stroke="none" stroke-width="0" stroke-linecap="butt"/><path d="M327.29822,167.64094c2.29694,-4.7869 30.81279,-24.47134 34.31603,-19.29272c2.10647,3.11386 -8.92525,30.9433 -20.96416,39.08738c-7.21003,4.87744 -16.54812,-13.13355 -13.35187,-19.79466z" data-paper-data="{&quot;index&quot;:null}" fill="#8a3065" stroke="none" stroke-width="0" stroke-linecap="butt"/><path d="M231.51673,239.77221l124.3376,-84.11191" fill="none" stroke="#ffffff" stroke-width="1.5" stroke-linecap="round"/><path d="M353.3819,161.99192l-120.502,81.5172" fill="none" stroke="#ffffff" stroke-width="1.5" stroke-linecap="round"/><path d="M235.15027,246.86528l115.06822,-77.84136" fill="none" stroke="#ffffff" stroke-width="1.5" stroke-linecap="round"/><path d="M347.05509,176.05591l-110.59334,74.8142" fill="none" stroke="#ffffff" stroke-width="1.5" stroke-linecap="round"/><path d="M226.58077,239.15108l3.73585,-2.52722l10.29236,15.21459l-3.73584,2.52722z" fill="#3f3f3f" stroke="none" stroke-width="0" stroke-linecap="butt"/><path d="M354.82742,153.87792c0.92678,-0.62695 2.18632,-0.38389 2.81326,0.54289c0.62694,0.92678 0.38389,2.18632 -0.54289,2.81326c-0.92678,0.62695 -2.18632,0.38389 -2.81327,-0.54289c-0.62694,-0.92678 -0.38389,-2.18632 0.54289,-2.81326z" fill="#000000" stroke="none" stroke-width="0.5" stroke-linecap="butt"/><path d="M352.37379,160.35212c0.92678,-0.62695 2.18632,-0.3839 2.81327,0.54288c0.62694,0.92678 0.38389,2.18633 -0.54289,2.81327c-0.92678,0.62695 -2.18632,0.38388 -2.81327,-0.5429c-0.62694,-0.92678 -0.38389,-2.18631 0.54289,-2.81326z" fill="#000000" stroke="none" stroke-width="0.5" stroke-linecap="butt"/><path d="M349.21195,167.61601c0.92678,-0.62695 2.18632,-0.38388 2.81327,0.5429c0.62694,0.92678 0.38388,2.18631 -0.5429,2.81326c-0.92678,0.62695 -2.18631,0.38389 -2.81326,-0.54289c-0.62694,-0.92678 -0.38389,-2.18632 0.54289,-2.81327z" fill="#000000" stroke="none" stroke-width="0.5" stroke-linecap="butt"/><path d="M345.86836,174.38164c0.92678,-0.62695 2.18632,-0.38389 2.81327,0.54289c0.62694,0.92678 0.38389,2.18632 -0.54289,2.81327c-0.92678,0.62695 -2.18632,0.38389 -2.81327,-0.54289c-0.62694,-0.92678 -0.38389,-2.18632 0.54289,-2.81327z" fill="#000000" stroke="none" stroke-width="0.5" stroke-linecap="butt"/></g><path d="M201.78123,239.95076c-7.21952,-7.95186 -3.74037,-41.80149 -1.61001,-55.83628c0.62471,-4.11554 1.49903,-4.69921 1.49903,-4.69921l11.04073,6.07589c0,0 -1.61795,42.11222 5.8365,50.13637c0.17713,0.19067 -14.60148,6.70759 -16.76624,4.32324z" fill="#000000" stroke="#000000" stroke-width="2" stroke-linecap="butt"/><g stroke="none" stroke-width="0" stroke-linecap="butt"><g><path d="M209.78574,180.88743c0,-8.27363 13.62398,-14.98072 30.43001,-14.98072c16.80603,0 30.43002,6.70709 30.43002,14.98072c0,8.27363 -30.43002,33.0044 -30.43002,33.0044c0,0 -30.43001,-24.73077 -30.43001,-33.0044z" fill="#5a2042"/><path d="M209.51591,173.06477c0,-8.27363 13.62398,-14.98072 30.43001,-14.98072c16.80603,0 30.43002,6.7071 30.43002,14.98072c0,8.27363 -30.43002,33.0044 -30.43002,33.0044c0,0 -30.43001,-24.73077 -30.43001,-33.0044z" fill="#732854"/><path d="M209.62408,167.21798c0,-8.27363 13.62399,-14.98072 30.43002,-14.98072c16.80603,0 30.43001,6.70709 30.43001,14.98072c0,8.27363 -30.43001,33.0044 -30.43001,33.0044c0,0 -30.43002,-24.73077 -30.43002,-33.0044z" fill="#8a3065"/><path d="M209.35425,161.08891c0,-8.27363 13.62399,-14.98072 30.43002,-14.98072c16.80603,0 30.43001,6.7071 30.43001,14.98072c0,8.27363 -30.43001,33.0044 -30.43001,33.0044c0,0 -30.43002,-24.73077 -30.43002,-33.0044z" fill="#9e3874"/></g><path d="M259.73314,156.97541c0,3.66343 -9.06639,4.09285 -20.25034,4.09285c-11.18395,0 -20.25035,-0.42942 -20.25035,-4.09285c0,-3.66343 9.06639,-9.17363 20.25035,-9.17363c11.18395,0 20.25034,5.51019 20.25034,9.17363z" fill="#000000"/></g><path d="M236.0753,56.17971c26.24464,-0.76212 38.13215,16.14813 42.42007,34.38855c3.00334,12.77594 1.62772,28.78929 1.62772,28.78929l-3.78625,-10.2101c0,0 3.17963,10.32126 1.48813,20.68299c-1.48103,9.494 -7.15,17.28731 -7.15,17.28731l-1.17529,-2.33737c0,0 -1.0038,2.20663 -2.13142,3.35112c-1.12763,1.14449 -3.41366,2.94208 -3.41366,2.94208l-0.12378,-3.70329c0,0 -6.96547,11.07801 -24.25665,11.0797c-16.30783,-0.11579 -26.162,-10.4515 -26.162,-10.4515l-0.09345,2.65575c0,0 -3.92281,-3.25928 -6.26438,-9.65425c-2.79085,-7.62205 -3.34422,-12.21504 -3.34422,-12.21504c0,0 -2.32273,1.91912 -5.69307,2.82326c-4.22323,1.13294 -6.94345,0.40475 -6.94345,0.40475c0,0 3.58456,-2.74797 5.5429,-4.81756c1.74434,-1.84341 2.61755,-3.39976 2.61755,-3.39976c0,0 -2.09823,1.10271 -4.21876,1.65415c-2.21255,0.57537 -4.02538,0.56543 -4.02538,0.56543c0,0 4.93159,-5.07971 6.93734,-10.93411c1.89374,-5.5275 2.00578,-10.97489 2.00578,-10.97489l-2.36371,4.94913c0,0 0.35523,-4.50327 1.2133,-7.76192c0.4277,-1.62431 1.17044,-43.40363 37.29263,-45.11373z" fill="#000000" stroke="none" stroke-width="1.5" stroke-linecap="butt"/><path d="M215.62013,115.55991c0.02903,-4.89231 4.76163,-8.9772 10.13512,-8.94534c5.3735,0.03188 9.06329,4.17092 9.03429,9.06324c-0.02903,4.89231 -4.04805,8.8294 -9.42154,8.79753c-5.3735,-0.03188 -9.77689,-4.0231 -9.74785,-8.91542z" fill="#ffffff" stroke="#000000" stroke-width="1.4" stroke-linecap="butt"/><path d="M220.04711,116.01541c0.01635,-2.75867 2.26596,-4.98171 5.02461,-4.96535c2.75866,0.01636 4.98171,2.26595 4.96535,5.02461c-0.01635,2.75867 -2.26594,4.98172 -5.02462,4.96536c-2.75866,-0.01636 -4.98172,-2.26596 -4.96536,-5.02462z" fill="none" stroke="#000000" stroke-width="1.5" stroke-linecap="butt"/><path d="M242.67543,115.32891c0.16165,-4.88974 4.37661,-8.89628 9.69425,-8.94183c5.31763,-0.04555 9.30816,3.88649 9.35007,8.7787c0.04191,4.89223 -3.80802,9.10399 -9.62098,9.22463c-5.52919,0.11475 -9.59214,-3.9549 -9.42332,-9.0615z" fill="#ffffff" stroke="#000000" stroke-width="1.4" stroke-linecap="butt"/><path d="M247.26722,115.75058c-0.02414,-2.81835 2.24102,-5.12262 5.05936,-5.14678c2.81834,-0.02414 5.12262,2.24102 5.14677,5.05937c0.02414,2.81835 -2.24099,5.12264 -5.05936,5.14677c-2.81835,0.02414 -5.12263,-2.24101 -5.14678,-5.05936z" fill="none" stroke="#000000" stroke-width="1.5" stroke-linecap="butt"/><path d="M223.99907,106.8238c9.47209,0.08473 11.70898,8.61417 11.70898,8.61417l-17.12199,-0.37544c0,0 -5.12577,-8.3387 5.41302,-8.23874z" fill="#000000" stroke="#000000" stroke-width="1.15" stroke-linecap="butt"/><path d="M242.29435,114.93015c0,0 -0.32787,-9.45574 11.11975,-9.19878c2.4203,0.06232 5.1945,1.32514 6.43533,3.94118c0.96782,2.04044 -0.36928,5.326 -0.36928,5.326z" fill="#000000" stroke="#000000" stroke-width="1.15" stroke-linecap="butt"/><g fill="#000000" stroke="#000000" stroke-width="0" stroke-linecap="butt"><path d="M299.11816,271.0888c-3.19816,-0.34389 -8.83864,-12.02291 -8.93676,-18.08971c-0.07878,-4.87064 5.01429,-3.36917 5.75381,-10.24665c0.845,-7.85849 5.9156,-16.85213 7.62124,-28.33074c0.79917,-5.37822 -5.04453,-16.73125 -5.04453,-16.73125c0,0 16.84794,-5.13307 18.06482,-3.01451c1.10379,1.92169 0.64192,29.33056 -3.70878,48.24494c-3.68739,16.03066 -12.98305,28.25036 -13.7498,28.16791z"/><path d="M314.27821,185.78698c0.81949,1.4626 3.38286,7.42263 3.00894,9.1555c-0.69946,3.24159 -1.03377,5.38332 -4.94605,7.57534c-3.81744,2.13889 -6.35692,1.61986 -9.46254,0.62482c-1.77858,-0.56985 -5.61008,-5.89474 -6.46673,-7.42368c-2.35248,-4.19864 -0.72729,-7.11639 5.27638,-10.48021c6.00367,-3.36382 10.23752,-3.65042 12.58999,0.54823z"/></g><g fill="#000000" stroke="#000000" stroke-linecap="butt"><path d="M259.42479,258.01493c-1.67642,-0.0199 -8.1204,-0.77346 -9.43537,-1.96238c-2.45982,-2.22406 -4.14884,-3.58273 -4.09557,-8.06694c0.05196,-4.37551 1.76923,-6.31697 4.18154,-8.51145c1.38152,-1.25676 7.9081,-1.9191 9.66056,-1.89828c4.81245,0.05715 6.52957,2.92172 6.44787,9.80306c-0.08171,6.88134 -1.94658,10.69314 -6.75903,10.63598z" stroke-width="0"/><path d="M253.93222,256.23286c0,0 -46.97231,-3.42934 -52.37997,-16.40318c-0.99193,-2.37982 14.18369,-9.5369 15.30984,-6.91983c4.75129,11.04156 35.94375,6.7986 35.94375,6.7986z" stroke-width="2"/></g></g></g></svg>