<svg version="1.1" xmlns="http://www.w3.org/2000/svg" xmlns:xlink="http://www.w3.org/1999/xlink" width="101.29108" height="228.82601" viewBox="0,0,101.29108,228.82601"><defs><linearGradient x1="267.26704" y1="201.26251" x2="267.26704" y2="203.17958" gradientUnits="userSpaceOnUse" id="color-1"><stop offset="0" stop-color="#4f0000"/><stop offset="1" stop-color="#690000"/></linearGradient><linearGradient x1="213.18599" y1="214.54468" x2="213.18599" y2="216.46175" gradientUnits="userSpaceOnUse" id="color-2"><stop offset="0" stop-color="#4f0000"/><stop offset="1" stop-color="#690000"/></linearGradient><linearGradient x1="237.0072" y1="77.28246" x2="237.0072" y2="180.25681" gradientUnits="userSpaceOnUse" id="color-3"><stop offset="0" stop-color="#000000"/><stop offset="1" stop-color="#ff0000"/></linearGradient><linearGradient x1="240.58951" y1="155.50922" x2="240.58951" y2="304.12093" gradientUnits="userSpaceOnUse" id="color-4"><stop offset="0" stop-color="#000000"/><stop offset="1" stop-color="#8d0000"/></linearGradient><linearGradient x1="240.58951" y1="155.50922" x2="240.58951" y2="304.12093" gradientUnits="userSpaceOnUse" id="color-5"><stop offset="0" stop-color="#980000"/><stop offset="1" stop-color="#ff0000"/></linearGradient><linearGradient x1="238.90228" y1="101.34154" x2="238.90228" y2="167.20638" gradientUnits="userSpaceOnUse" id="color-6"><stop offset="0" stop-color="#000000"/><stop offset="1" stop-color="#ff0000"/></linearGradient><linearGradient x1="224.80722" y1="121.6317" x2="224.80722" y2="138.75021" gradientUnits="userSpaceOnUse" id="color-7"><stop offset="0" stop-color="#f8f8f8"/><stop offset="1" stop-color="#f8b0b0"/></linearGradient><linearGradient x1="235.80005" y1="146.03179" x2="235.80005" y2="147.94886" gradientUnits="userSpaceOnUse" id="color-8"><stop offset="0" stop-color="#000000"/><stop offset="1" stop-color="#ff0000"/></linearGradient><linearGradient x1="237.57815" y1="198.30235" x2="237.57815" y2="242.02287" gradientUnits="userSpaceOnUse" id="color-9"><stop offset="0" stop-color="#980000"/><stop offset="1" stop-color="#ff0000"/></linearGradient><linearGradient x1="241.41278" y1="171.60574" x2="241.41278" y2="178.57009" gradientUnits="userSpaceOnUse" id="color-10"><stop offset="0" stop-color="#980000"/><stop offset="1" stop-color="#ff0000"/></linearGradient><linearGradient x1="235.82316" y1="175.97045" x2="235.82316" y2="219.69096" gradientUnits="userSpaceOnUse" id="color-11"><stop offset="0" stop-color="#980000"/><stop offset="1" stop-color="#ff0000"/></linearGradient></defs><g transform="translate(-186.13442,-76.29633)"><g data-paper-data="{&quot;isPaintingLayer&quot;:true}" fill-rule="nonzero" stroke-linejoin="miter" stroke-miterlimit="10" stroke-dasharray="" stroke-dashoffset="0" style="mix-blend-mode: normal"><path d="M265.32786,202.60562l3.87833,-0.76914" fill="none" stroke="url(#color-1)" stroke-width="2" stroke-linecap="round"/><path d="M215.12516,215.11867l-3.87834,0.76914" fill="none" stroke="url(#color-2)" stroke-width="2" stroke-linecap="round"/><path d="M192.17692,127.89695c0,0 6.38668,-5.67632 6.51966,-6.50616c0.23463,-1.46429 -1.40549,-18.9846 9.86761,-30.4339c1.58935,-1.61419 4.19838,-4.902 7.16098,-7.38414c2.98761,-2.5031 7.80259,-3.78306 7.80259,-3.78306l0.74858,2.81941l6.75445,-4.15974l0.792,2.0753c0,0 2.24985,-2.31101 3.73724,-2.78116c1.84136,-0.58203 6.47743,-0.4476 6.47743,-0.4476c0,0 1.20132,2.71169 3.42718,3.39384c4.83775,1.48262 8.1838,-0.47316 11.33304,0.63516c6.94994,2.44591 11.4155,8.8703 14.51887,13.18701c7.48318,10.40891 6.18517,23.69054 7.68767,27.46982c3.57485,8.99186 6.37979,16.67866 6.37979,16.67866l-4.22757,-3.00402c0,0 2.81678,9.50535 0.97206,19.4232c-0.6937,3.89412 -3.29444,6.27081 -3.04105,8.83302c0.47203,4.77302 5.07632,6.35447 5.07632,6.35447c0,0 -3.42013,2.62824 -6.65379,3.02042c-2.36996,0.28744 -6.78087,-1.0255 -6.78087,-1.0255l2.93105,3.34526c0,0 -3.33624,0.30583 -5.07207,0.32246c-1.83111,0.01754 -5.64404,-0.21978 -5.64404,-0.21978c0,0 -1.51354,1.92277 -2.49379,2.67985c-0.98214,0.75856 -3.39339,1.86706 -3.39339,1.86706c0,0 1.31539,-2.94754 1.70623,-4.25533c0.23576,-0.78886 0.4189,-2.85556 0.4189,-2.85556c0,0 -1.71505,4.58457 -9.76079,6.39996c-2.80085,0.63196 -5.36851,-0.5987 -9.99518,-0.63493c-3.53491,-0.05123 -7.29602,0.34957 -10.0629,0.30988c-4.22762,-0.06066 -7.66459,0.08324 -9.88595,-0.36904c-3.27429,-0.66664 -4.10694,-2.23125 -4.10694,-2.23125c0,0 -3.54882,1.17819 -5.29148,1.35331c-1.70131,0.17095 -6.07961,-0.45175 -6.07961,-0.45175c0,0 2.34149,-1.31574 3.36758,-1.90599c0.87085,-0.50096 2.0929,-1.883 2.0929,-1.883c0,0 -3.84897,-2.4202 -5.37029,-3.95139c-1.69176,-1.70274 -4.76744,-6.07905 -4.76744,-6.07905l-3.35663,-0.14134l2.68075,-5.25544l-2.92058,-0.31592c0,0 1.41396,-1.42477 2.3118,-2.47987c1.08638,-1.27665 2.12095,-3.82128 2.12095,-3.82128c0,0 -0.79547,0.99881 -4.29587,1.83776c-4.3862,1.05125 -7.19844,0.33094 -7.19844,0.33094c0,0 3.73872,-2.6045 5.78636,-4.57211c1.82387,-1.75259 2.74251,-3.23718 2.74251,-3.23718c0,0 -2.18397,1.03972 -4.38619,1.55086c-2.29776,0.53333 -4.17615,0.50891 -4.17615,0.50891c0,0 5.15524,-4.82841 7.28558,-10.42339c0.51318,-1.34779 0.013,-2.70153 0.013,-2.70153l-3.11651,0.26392c0,0 2.16096,-2.81343 2.90931,-4.16223c0.56352,-1.01567 1.62985,-3.90313 1.62985,-3.90313c0,0 -0.67083,0.6342 -2.71066,0.76216c-1.29299,0.08112 -2.46404,-0.04687 -2.46404,-0.04687z" fill="#000000" stroke="url(#color-3)" stroke-width="2" stroke-linecap="butt"/><path d="M201.03042,304.01859c0,0 -0.15565,-22.16391 -0.33203,-47.29751c-0.03839,-5.4707 3.15139,-11.0821 3.11243,-16.63626c-0.03504,-4.99489 -3.29891,-9.94348 -3.33227,-14.70181c-0.0061,-0.86946 -0.01215,-1.73257 -0.01815,-2.58845c-0.01038,-1.48062 0.89223,-3.63958 0.88218,-5.07237c-0.00874,-1.24612 -0.93017,-1.77245 -0.9386,-2.97596c-0.0714,-10.18675 -0.13128,-18.74015 -0.1669,-23.84627c-0.02066,-2.96219 1.15068,-8.74176 4.35706,-14.78553c0.95329,-1.79688 4.19466,-1.68258 5.62486,-3.45907c1.59924,-1.98646 1.43916,-5.85275 3.46841,-7.636c6.15479,-5.40863 14.51482,-9.45102 26.75168,-9.50958c18.20854,-0.08712 28.66603,9.30934 34.25804,18.64842c1.20115,2.00601 -1.85863,3.62247 -1.07785,5.52862c0.74618,1.8217 3.52423,2.71654 3.93755,4.27814c0.25116,0.94894 -1.56276,2.70961 -1.41969,3.5135c0.21879,1.22936 2.32598,3.31746 2.32511,4.0981c-0.00374,2.16272 -3.42725,4.84438 -3.42733,7.11266c-0.00009,3.01922 5.25028,4.96165 5.25594,8.12317c0.07727,43.14305 0.65135,97.15833 0.65135,97.15833l-10.49667,0.09215l-0.15882,-110.08113c0,0 0.07549,-2.97079 -2.81625,-3.02336c-3.43441,-0.06244 -2.94538,2.98643 -2.94538,2.98643l0.20548,110.10686l-48.21366,0.06923l-0.30539,-110.45494c0,0 0.27949,-2.79796 -2.8856,-2.81275c-3.11083,-0.01452 -2.81569,2.78837 -2.81569,2.78837l0.35311,110.29554z" fill="url(#color-4)" stroke="url(#color-5)" stroke-width="2" stroke-linecap="butt"/><path d="M210.71282,130.58399c-0.57709,-6.99082 0.335,-16.44317 0.335,-16.44317c0,0 3.41059,-0.03953 13.91429,-3.01386c8.0696,-2.28509 20.54731,-9.09383 20.54731,-9.09383c0,0 -2.16005,2.88043 -3.40781,4.27521c-1.32651,1.48282 -3.99292,4.37377 -3.99292,4.37377c0,0 7.838,-1.59846 14.67476,-4.53321c8.56837,-3.38914 10.59252,-5.8021 12.95042,-4.40226c2.7829,1.65215 1.03006,22.22143 0.71846,27.54889c-0.42163,5.43415 -2.53327,9.10578 -3.15031,12.00136c-0.4226,1.98315 1.33832,3.13613 -0.21996,6.30657c-0.71695,1.45868 -0.74327,5.4281 -1.30941,8.41926c-1.12121,5.92395 -4.16183,1.41795 -10.01942,6.91625c-5.85759,5.49831 -10.40748,3.6788 -14.36729,3.74492c-3.81077,0.06364 -7.58195,2.24793 -12.58172,-2.81528c-5.32393,-5.39151 -8.87489,-4.23291 -9.71551,-10.61926c-0.75707,-5.75158 -1.45338,-7.55131 -1.79951,-12.66971c-0.25298,-3.7409 -2.26119,-6.1778 -2.57636,-9.99561z" fill="#000000" stroke="url(#color-6)" stroke-width="1.5" stroke-linecap="butt"/><path d="M215.22329,130.12366c0.07093,-4.68904 4.83834,-8.56555 10.21137,-8.49089c5.37302,0.07467 9.02724,4.07224 8.95632,8.76129c-0.07093,4.68904 -4.12352,8.42973 -9.49655,8.35507c-5.37302,-0.07467 -9.74207,-3.93642 -9.67114,-8.62546z" fill="url(#color-7)" stroke="#000000" stroke-width="1.4" stroke-linecap="butt"/><path d="M217.66093,130.2367c0.03999,-2.64405 2.30855,-4.75637 5.06696,-4.71804c2.75843,0.03833 4.96213,2.21283 4.92214,4.85686c-0.03999,2.64405 -2.30854,4.75637 -5.06696,4.71804c-2.75843,-0.03833 -4.96213,-2.21283 -4.92214,-4.85686z" fill="#000000" stroke="none" stroke-width="1.5" stroke-linecap="butt"/><path d="M242.27957,130.12435c0.20353,-4.68548 4.45264,-8.49115 9.77048,-8.49115c5.31783,0 9.27453,3.80162 9.27453,8.49115c0,4.68954 -3.88585,8.69491 -9.69964,8.76281c-5.52997,0.0646 -9.55792,-3.86953 -9.34537,-8.76281z" fill="#ffafaf" stroke="#000000" stroke-width="1.4" stroke-linecap="butt"/><path d="M251.0345,126.99506c0,-1.55982 1.31918,-2.8243 2.94648,-2.8243c1.6273,0 2.94648,1.26448 2.94648,2.8243c0,1.55982 -1.31918,2.8243 -2.94648,2.8243c-1.6273,0 -2.94648,-1.26448 -2.94648,-2.8243z" fill="#000000" stroke="none" stroke-width="1.5" stroke-linecap="butt"/><path d="M249.00374,125.31446c-0.22361,-0.10716 -0.1118,-0.3215 -0.1118,-0.3215l0.20121,-0.35824c0.29373,-0.15158 0.49973,-0.34349 0.72914,-0.48234c-0.38291,-0.22397 -0.67289,-0.5648 -0.94392,-1.34416c0,0 -0.07906,-0.22734 0.15811,-0.30312c0.23717,-0.07578 0.31623,0.15155 0.31623,0.15155c0.49281,1.41713 0.88339,1.16723 2.34475,1.78519l0.21936,0.19287c0,0 0.17678,0.16945 0,0.33889c-0.17678,0.16945 -0.35355,0 -0.35355,0l-0.08941,-0.10309c-0.39604,-0.20438 -0.73155,-0.3283 -1.02189,-0.43859c-0.0537,0.01995 -0.10136,0.01995 -0.10136,0.01995c-0.19688,-0.03973 -0.59844,0.39257 -0.9039,0.52174l-0.10755,0.23368c0,0 -0.1118,0.21434 -0.33541,0.10716z" fill="#ff0000" stroke="none" stroke-width="0.5" stroke-linecap="butt"/><path d="M255.77637,125.56552c-0.17678,0.16945 -0.35355,0 -0.35355,0l-0.15438,-0.14798c-0.65607,-0.65144 -1.84329,-0.30303 -1.12751,-1.46046c0.7226,-1.16845 1.47791,0.53792 1.94476,0.19929c0.14093,-0.10223 0.03582,-0.85221 0.03582,-0.98001c0,0 0,-0.23963 0.25,-0.23963c0.25,0 0.25,0.23963 0.25,0.23963c0,2.28145 -0.81426,0.7506 -2.00692,0.81332c-0.14385,0.00756 -0.22427,0.32328 -0.27791,0.48425c0.26803,0.01639 1.20847,0.53304 1.28531,0.60472l0.15438,0.14798c0,0 0.17678,0.16945 0,0.33889z" fill="#ff0000" stroke="none" stroke-width="0.5" stroke-linecap="butt"/><path d="M257.60657,128.59534c-0.25,0 -0.25,-0.23963 -0.25,-0.23963l0.1382,-0.5103c0.66963,-0.32094 -0.59425,-3.19276 1.76743,-2.21971c0,0 0.22361,0.10716 0.1118,0.3215c-0.1118,0.21434 -0.33541,0.10716 -0.33541,0.10716c-1.46211,-0.91071 -0.56817,1.85928 -1.32022,2.21971l0.1382,0.08163c0,0 0,0.23963 -0.25,0.23963z" fill="#ff0000" stroke="none" stroke-width="0.5" stroke-linecap="butt"/><path d="M257.35657,132.9431c0,-0.23963 0.25,-0.23963 0.25,-0.23963h0.15438c1.05427,0 1.02147,-0.84768 0.9936,-1.72187c-0.03098,-0.02922 -0.06092,-0.0588 -0.0897,-0.08876c-0.59716,-0.62168 0.92846,-2.46468 -1.10086,-1.43492l-0.08941,0.10309c0,0 -0.17678,0.16945 -0.35355,0c-0.17678,-0.16945 0,-0.33889 0,-0.33889l0.21936,-0.19287c0.28424,-0.13062 1.81845,-0.25892 2.02267,0.08835c0.21309,0.36235 -0.48917,0.84109 -0.43791,1.22557c0.02105,-0.00474 0.04458,-0.00739 0.07087,-0.00739c0.25,0 0.25,0.23963 0.25,0.23963c0,0.07059 0.00045,0.14154 0.00102,0.21258c0.48982,0.41921 1.3968,0.8487 1.74024,1.06784c0,0 0.20801,0.13293 0.06934,0.33231c-0.13868,0.19938 -0.34669,0.06646 -0.34669,0.06646c-0.43842,-0.2806 -0.99174,-0.56268 -1.46297,-0.88481c-0.02022,0.96843 -0.20382,1.81294 -1.486,1.81294h-0.15438c0,0 -0.25,0 -0.25,-0.23963z" fill="#ff0000" stroke="none" stroke-width="0.5" stroke-linecap="butt"/><path d="M256.83466,134.0353c0.25,0 0.25,0.23963 0.25,0.23963l-0.02639,0.40313c-0.413,0.77544 -1.05428,1.53786 -1.05428,2.4085c0,0 0,0.23963 -0.25,0.23963c-0.25,0 -0.25,-0.23963 -0.25,-0.23963c0,-1.47848 0.56131,-1.54831 1.10707,-2.62284l-0.02639,-0.18879c0,0 0,-0.23963 0.25,-0.23963z" fill="#ff0000" stroke="none" stroke-width="0.5" stroke-linecap="butt"/><path d="M245.76171,136.41301c-0.22361,-0.10716 -0.1118,-0.3215 -0.1118,-0.3215l0.17518,-0.32891c0.63358,-0.57468 1.32237,-0.83301 2.26722,-0.83301c0.86051,0.39543 0.76757,0.99061 1.47818,1.51863c0.44148,0.32804 1.25127,-0.01262 1.76385,0.10916c0.8356,0.19852 1.16765,0.99639 1.90695,1.35072c0,0 0.22361,0.10716 0.1118,0.3215c-0.1118,0.21434 -0.33541,0.10716 -0.33541,0.10716c-0.69538,-0.33327 -1.07378,-1.1372 -1.79822,-1.31293c-0.64676,-0.15689 -1.3427,0.2346 -1.94133,-0.1868c-0.65009,-0.45763 -0.65977,-1.11575 -1.3007,-1.44098c-0.65401,0 -1.3458,0.21991 -1.74672,0.6468l-0.13359,0.26301c0,0 -0.1118,0.21434 -0.33541,0.10716z" fill="#ff0000" stroke="none" stroke-width="0.5" stroke-linecap="butt"/><path d="M247.33218,133.93816c-0.1118,0.21434 -0.33541,0.10716 -0.33541,0.10716l-0.31462,-0.15088c-0.16143,-0.09455 -0.3616,-0.11787 -0.55461,-0.1202c-0.0009,0.01868 -0.00223,0.03759 -0.00402,0.05675c-0.0802,0.85923 -1.192,0.68358 -1.79382,0.68358c0,0 -0.25,0 -0.25,-0.23963c0,-0.23963 0.25,-0.23963 0.25,-0.23963c0.12469,0 1.36318,0.11762 1.29382,-0.20431c-0.22512,-1.04494 -0.82038,-1.67867 0.44696,-2.28607l0.30876,-0.14798c0,0 0.22361,-0.10716 0.33541,0.10716c0.1118,0.21434 -0.1118,0.3215 -0.1118,0.3215l-0.30876,0.14798c-0.89104,0.42705 -0.42833,0.74074 -0.23573,1.32234c0.29368,0.00614 0.60148,0.04259 0.85912,0.17565l0.30291,0.14508c0,0 0.22361,0.10716 0.1118,0.3215z" fill="#ff0000" stroke="none" stroke-width="0.5" stroke-linecap="butt"/><path d="M246.8222,126.11453c0.17678,0.16945 0,0.33889 0,0.33889l-0.21936,0.19287c-0.45324,0.20828 -1.35818,0.16262 -1.73071,0.46275c-0.29122,0.23463 0.05394,0.64818 0.23181,1.04291c0.21866,-0.10916 0.51591,-0.17621 0.92395,-0.18386l-0.02239,-0.07779c0,0 0.17678,-0.16945 0.35355,0c0.17678,0.16945 0,0.33889 0,0.33889l-0.33116,0.21817c-1.88572,-0.05222 -0.66585,1.62836 -1.17678,2.55c-0.31995,0.57714 -1.55002,0.40961 -2.06525,0.40961c0,0 -0.25,0 -0.25,-0.23963c0,-0.23963 0.25,-0.23963 0.25,-0.23963c2.13247,0 1.36002,-1.56305 1.91158,-2.41763c-0.00023,-0.00411 -0.00023,-0.00639 -0.00023,-0.00639c0,-0.15742 -0.30459,-1.54281 -0.29244,-1.56497c0.28748,-0.52433 1.50994,-0.48537 1.97446,-0.7211l0.08941,-0.10309c0,0 0.17678,-0.16945 0.35355,0z" fill="#ff0000" stroke="none" stroke-width="0.5" stroke-linecap="butt"/><path d="M246.07048,123.55397c0.22361,-0.10716 0.33541,0.10716 0.33541,0.10716l0.13359,0.26301c0.0708,0.06676 0.14159,0.13353 0.21239,0.2003c0.21303,-0.0473 0.28512,0.16001 0.28512,0.16001c0.13677,0.46766 0.3617,0.42517 0.60397,0.8565l0.02639,0.25515c0,0 0,0.23963 -0.25,0.23963c-0.25,0 -0.25,-0.23963 -0.25,-0.23963l0.02639,-0.04081c-0.18155,-0.39447 -0.36779,-0.37481 -0.55712,-0.75083c-0.09698,-0.00674 -0.16796,-0.07478 -0.16796,-0.07478c-0.1116,-0.10843 -0.2232,-0.21686 -0.3348,-0.32529l-0.17518,-0.32891c0,0 -0.1118,-0.21434 0.1118,-0.3215z" fill="#ff0000" stroke="none" stroke-width="0.5" stroke-linecap="butt"/><path d="M257.02761,142.32893c0,0 -11.41081,13.45486 -18.27722,13.52639c-7.30908,0.07616 -18.00261,-10.56677 -18.00261,-10.56677" fill="none" stroke="url(#color-8)" stroke-width="2" stroke-linecap="round"/><path d="M277.61596,199.42617c0,0 -19.65277,15.76657 -31.69064,22.25709c-13.60347,7.33466 -45.07881,19.17888 -45.07881,19.17888" fill="none" stroke="url(#color-9)" stroke-width="2" stroke-linecap="round"/><path d="M277.13531,179.73079c0,0 -27.94455,2.25885 -40.39151,1.02463c-10.69884,-1.06088 -29.84262,-7.98895 -29.84262,-7.98895" fill="none" stroke="url(#color-10)" stroke-width="2" stroke-linecap="round"/><path d="M279.14716,187.4191c0,0 -22.20871,7.71669 -34.24658,14.20722c-13.60347,7.33466 -45.80908,16.90393 -45.80908,16.90393" fill="none" stroke="url(#color-11)" stroke-width="2" stroke-linecap="round"/></g></g></svg>