<svg version="1.1" xmlns="http://www.w3.org/2000/svg" xmlns:xlink="http://www.w3.org/1999/xlink" width="188.48835" height="248.61961" viewBox="0,0,188.48835,248.61961"><g transform="translate(-173.38582,-56.88028)"><g data-paper-data="{&quot;isPaintingLayer&quot;:true}" fill-rule="nonzero" stroke-linejoin="miter" stroke-miterlimit="10" stroke-dasharray="" stroke-dashoffset="0" style="mix-blend-mode: normal"><path d="M288.07213,152.37279c0,0 -1.20939,-0.05156 -2.50931,-0.33783c-2.05077,-0.45162 -3.38251,-1.32664 -3.38251,-1.32664c0,0 -0.66382,5.40825 0.53774,11.17007c1.27264,6.10257 5.73858,11.88883 5.73858,11.88883c0,0 -1.91111,-0.26921 -4.15926,-1.17922c-2.15468,-0.87214 -4.2067,-2.28642 -4.2067,-2.28642c0,0 -2.29377,4.54274 -0.72082,6.63556c1.76594,2.3496 3.37956,15.57471 3.37956,15.57471c0,0 -1.72617,-9.25709 -6.01241,-11.0284c-3.4206,-1.41358 -2.07761,-6.93322 -2.07761,-6.93322c0,0 -1.24215,4.46029 -5.27605,11.57386c-3.38448,5.96836 -7.98466,8.59006 -7.98466,8.59006l0.28272,-2.64265c0,0 -11.86402,8.7119 -29.05963,6.31621c-18.21462,-2.66331 -23.96218,-14.69887 -23.96218,-14.69887l-0.66191,3.6459c0,0 -2.15012,-2.13087 -3.17375,-3.43709c-1.0236,-1.30624 -1.76431,-3.64453 -1.76431,-3.64453c0,0 1.6059,-12.23185 -1.41904,-12.50805c-3.23202,-0.2951 -17.3931,10.79037 -17.3931,10.79037c0,0 3.07765,-10.45291 8.05813,-17.6126c5.47254,-7.86709 8.66593,-16.98632 8.66593,-16.98632c0,0 -3.03781,1.69454 -4.47958,2.49167c-1.54582,0.85466 -4.77053,2.43474 -4.77053,2.43474c0,0 4.07132,-7.48587 9.13204,-16.19666c3.69084,-6.3529 3.30789,-43.10379 50.13269,-34.95186c37.80636,7.25271 31.49392,44.62976 31.50163,46.92848c0.00295,0.87645 5.5843,7.72994 5.5843,7.72994z" data-paper-data="{&quot;index&quot;:null}" fill="#000000" stroke="none" stroke-width="1.5" stroke-linecap="butt"/><path d="M200.2371,186.37961c-0.05451,-8.15261 8.18688,-36.76129 40.20201,-36.9211c13.72075,-0.06849 28.46501,8.55021 39.34305,27.09597c4.67459,7.96962 7.23015,18.43389 10.56667,27.2055c6.78226,17.83041 11.09341,49.83174 11.09341,49.83174l-2.99667,15.59614c0,0 -5.64637,-4.3747 -9.50265,-13.86384c-9.72691,-23.93494 -19.40165,-68.84414 -21.47242,-68.88342c-3.43441,-0.06514 -2.7399,117.98557 -2.7399,117.98557l-48.21366,0.07222c0,0 -0.0259,-118.15209 -3.19099,-118.16752c-3.11083,-0.01515 -12.93086,23.67688 -13.08885,0.04874z" fill="#000000" stroke="#000000" stroke-width="2" stroke-linecap="butt"/><g stroke="none" stroke-width="0" stroke-linecap="butt"><g fill="#5a5a5a"><g><path d="M209.66364,197.16105c0,-10.5134 7.79074,-19.03619 17.40111,-19.03619c9.61037,0 29.25852,8.52279 29.25852,19.03619c0,10.5134 -19.64815,19.03619 -29.25852,19.03619c-9.61037,0 -17.40111,-8.5228 -17.40111,-19.03619z"/><path d="M254.5853,216.31749c-9.61038,0 -29.25852,-8.52279 -29.25852,-19.03619c0,-10.5134 19.64815,-19.0362 29.25852,-19.0362c9.61038,0 17.40112,8.5228 17.40112,19.0362c0,10.5134 -7.79075,19.03619 -17.40112,19.03619z" data-paper-data="{&quot;index&quot;:null}"/></g><path d="M209.80374,197.34132c0,0 -0.3709,-2.61945 0.11388,-4.91271c1.13225,-5.35615 7.74548,-26.79895 7.74548,-26.79895h47.61844c0,0 4.92103,20.9045 6.343,26.47807c0.68293,2.6768 0.59173,5.94356 0.59173,5.94356z"/></g><g fill="#3f3f3f"><g><path d="M256.52477,197.36254c0,10.5134 -19.64815,19.03619 -29.25852,19.03619c-9.06328,0 -16.50821,-7.58006 -17.32647,-17.26126c0.68033,-0.01074 12.81701,1.71413 24.65994,1.23208c11.07317,-0.45072 21.92505,-3.11479 21.92505,-3.00701z"/><path d="M254.78679,216.51898c-8.86312,0 -25.98147,-4.42629 -28.63385,-13.80031c6.87938,0.54674 13.51869,-1.88573 20.02075,-3.33063c6.71,-1.49111 23.12288,-7.02069 24.99004,-8.35496c0.66291,2.01411 1.02418,4.18576 1.02418,6.44971c0,10.5134 -7.79075,19.03619 -17.40112,19.03619z" data-paper-data="{&quot;index&quot;:null}"/></g><path d="M271.82602,192.30922c0.68293,2.6768 0.59173,5.94356 0.59173,5.94356l-20.64443,-0.23484c4.69135,-1.24508 17.73755,-5.75793 19.67993,-7.19539c0.14137,0.57072 0.26679,1.07128 0.37277,1.48668z"/></g></g><g stroke="none" stroke-width="0" stroke-linecap="butt"><path d="" fill="#3f3f3f"/><path d="" fill="#2a2a2a"/></g><g data-paper-data="{&quot;index&quot;:null}" stroke="none" stroke-width="0" stroke-linecap="butt"><path d="" fill="#3f3f3f"/><path d="" fill="#2a2a2a"/></g><g><g stroke="none" stroke-linecap="butt"><path d="M196.6702,232.05978c18.21882,-15.32181 47.97175,-37.69522 74.7153,-45.7357c9.28088,-2.7903 -19.60153,31.08018 -11.8276,45.84548c1.70008,8.19489 37.81779,-0.25476 38.88686,2.80596c2.39142,6.84657 -11.31766,16.22125 -19.64043,22.43199c-4.36741,3.25912 -10.85782,6.74105 -18.12068,10.1255c-0.34032,0.15859 -16.09125,-3.37483 -30.10484,-11.05563c-17.66726,-9.68336 -34.35844,-24.03932 -33.90862,-24.41761z" fill="#5a2042" stroke-width="NaN"/><path d="M173.4706,252.27889c-1.94806,-5.94228 30.24241,-25.40729 38.37066,-32.10572c0.05511,-0.04541 8.38714,26.37198 26.89962,33.66056c19.63677,7.73121 40.22448,3.45361 40.06345,3.57377c-10.98436,8.19691 -57.64313,31.5965 -68.24162,32.36311c-12.45452,0.90087 7.19204,-23.01162 3.40867,-27.6736c-1.35366,-2.09253 -38.42658,-3.49105 -40.50079,-9.81812z" fill="#3f162e" stroke-width="NaN"/></g><path d="M229.50019,238.34092l120.74172,-81.67936l-9.56068,26.50159l-101.88332,68.92203z" fill="#000000" stroke="none" stroke-width="0" stroke-linecap="butt"/><path d="M327.29822,167.64094c2.29694,-4.7869 30.81279,-24.47134 34.31603,-19.29272c2.10647,3.11386 -8.92525,30.9433 -20.96416,39.08738c-7.21003,4.87744 -16.54812,-13.13355 -13.35187,-19.79466z" data-paper-data="{&quot;index&quot;:null}" fill="#8a3065" stroke="none" stroke-width="0" stroke-linecap="butt"/><path d="M355.85433,155.6603l-124.3376,84.11191" fill="none" stroke="#ffffff" stroke-width="1.5" stroke-linecap="round"/><path d="M353.3819,161.99192l-120.502,81.5172" fill="none" stroke="#ffffff" stroke-width="1.5" stroke-linecap="round"/><path d="M235.15027,246.86528l115.06822,-77.84136" fill="none" stroke="#ffffff" stroke-width="1.5" stroke-linecap="round"/><path d="M347.05509,176.05591l-110.59334,74.8142" fill="none" stroke="#ffffff" stroke-width="1.5" stroke-linecap="round"/><path d="M226.58077,239.15108l3.73585,-2.52722l10.29236,15.21459l-3.73584,2.52722z" fill="#3f3f3f" stroke="none" stroke-width="0" stroke-linecap="butt"/><path d="M354.82742,153.87792c0.92678,-0.62695 2.18632,-0.38389 2.81326,0.54289c0.62694,0.92678 0.38389,2.18632 -0.54289,2.81326c-0.92678,0.62695 -2.18632,0.38389 -2.81327,-0.54289c-0.62694,-0.92678 -0.38389,-2.18632 0.54289,-2.81326z" fill="#000000" stroke="none" stroke-width="0.5" stroke-linecap="butt"/><path d="M352.37379,160.35212c0.92678,-0.62695 2.18632,-0.3839 2.81327,0.54288c0.62694,0.92678 0.38389,2.18633 -0.54289,2.81327c-0.92678,0.62695 -2.18632,0.38388 -2.81327,-0.5429c-0.62694,-0.92678 -0.38389,-2.18631 0.54289,-2.81326z" fill="#000000" stroke="none" stroke-width="0.5" stroke-linecap="butt"/><path d="M349.21195,167.61601c0.92678,-0.62695 2.18632,-0.38388 2.81327,0.5429c0.62694,0.92678 0.38388,2.18631 -0.5429,2.81326c-0.92678,0.62695 -2.18631,0.38389 -2.81326,-0.54289c-0.62694,-0.92678 -0.38389,-2.18632 0.54289,-2.81327z" fill="#000000" stroke="none" stroke-width="0.5" stroke-linecap="butt"/><path d="M345.86836,174.38164c0.92678,-0.62695 2.18632,-0.38389 2.81327,0.54289c0.62694,0.92678 0.38389,2.18632 -0.54289,2.81327c-0.92678,0.62695 -2.18632,0.38389 -2.81327,-0.54289c-0.62694,-0.92678 -0.38389,-2.18632 0.54289,-2.81327z" fill="#000000" stroke="none" stroke-width="0.5" stroke-linecap="butt"/></g><path d="M201.78123,239.95076c-7.21952,-7.95186 -3.74037,-41.80149 -1.61001,-55.83628c0.62471,-4.11554 1.49903,-4.69921 1.49903,-4.69921l11.04073,6.07589c0,0 -1.61795,42.11222 5.8365,50.13637c0.17713,0.19067 -14.60148,6.70759 -16.76624,4.32324z" fill="#000000" stroke="#000000" stroke-width="2" stroke-linecap="butt"/><g stroke="none" stroke-width="0" stroke-linecap="butt"><g><path d="M209.78574,180.88743c0,-8.27363 13.62398,-14.98072 30.43001,-14.98072c16.80603,0 30.43002,6.70709 30.43002,14.98072c0,8.27363 -30.43002,33.0044 -30.43002,33.0044c0,0 -30.43001,-24.73077 -30.43001,-33.0044z" fill="#5a2042"/><path d="M209.51591,173.06477c0,-8.27363 13.62398,-14.98072 30.43001,-14.98072c16.80603,0 30.43002,6.7071 30.43002,14.98072c0,8.27363 -30.43002,33.0044 -30.43002,33.0044c0,0 -30.43001,-24.73077 -30.43001,-33.0044z" fill="#732854"/><path d="M209.62408,167.21798c0,-8.27363 13.62399,-14.98072 30.43002,-14.98072c16.80603,0 30.43001,6.70709 30.43001,14.98072c0,8.27363 -30.43001,33.0044 -30.43001,33.0044c0,0 -30.43002,-24.73077 -30.43002,-33.0044z" fill="#8a3065"/><path d="M209.35425,161.08891c0,-8.27363 13.62399,-14.98072 30.43002,-14.98072c16.80603,0 30.43001,6.7071 30.43001,14.98072c0,8.27363 -30.43001,33.0044 -30.43001,33.0044c0,0 -30.43002,-24.73077 -30.43002,-33.0044z" fill="#9e3874"/></g><path d="M259.73314,156.97541c0,3.66343 -9.06639,4.09285 -20.25034,4.09285c-11.18395,0 -20.25035,-0.42942 -20.25035,-4.09285c0,-3.66343 9.06639,-9.17363 20.25035,-9.17363c11.18395,0 20.25034,5.51019 20.25034,9.17363z" fill="#000000"/></g><path d="M251.39566,57.17141c26.02495,3.47333 35.03474,22.0769 36.32993,40.76973c0.90717,13.09281 -3.02872,28.67577 -3.02872,28.67577l-2.09298,-10.6865c0,0 1.47638,10.69854 -1.86134,20.65275c-2.99029,9.13169 -9.84006,15.91059 -9.84006,15.91059l-0.78363,-2.4961c0,0 -1.34598,2.01622 -2.64316,2.96423c-1.29719,0.948 -3.84281,2.35408 -3.84281,2.35408l0.47408,-3.6749c0,0 -8.65821,9.81201 -25.72407,7.02972c-16.07643,-2.73991 -24.13794,-14.52735 -24.13794,-14.52735l-0.51982,2.60605c0,0 -3.34688,-3.84835 -4.62827,-10.53689c-1.52725,-7.97195 -1.33391,-12.59411 -1.33391,-12.59411c0,0 -2.60141,1.52011 -6.07335,1.86982c-4.35055,0.4382 -6.91803,-0.71846 -6.91803,-0.71846c0,0 3.98023,-2.13499 6.24624,-3.86227c2.01838,-1.53851 3.13078,-2.93397 3.13078,-2.93397c0,0 -2.24839,0.7505 -4.43005,0.95333c-2.27632,0.21163 -4.0639,-0.09005 -4.0639,-0.09005c0,0 5.68511,-4.21943 8.60728,-9.67452c2.75899,-5.15048 3.74662,-10.50877 3.74662,-10.50877l-3.12971,4.50399c0,0 1.07564,-4.38732 2.44717,-7.46531c0.68364,-1.53426 8.14335,-42.64892 44.06961,-38.52088z" fill="#000000" stroke="none" stroke-width="1.5" stroke-linecap="butt"/><path d="M221.64687,112.48353c0.81634,-4.82381 6.14488,-8.09344 11.44314,-7.19684c5.29826,0.89662 8.27352,5.57573 7.4572,10.39956c-0.81634,4.82381 -5.41681,8.06245 -10.71506,7.16584c-5.29826,-0.89662 -9.0016,-5.54474 -8.18526,-10.36856z" fill="#ffffff" stroke="#000000" stroke-width="1.4" stroke-linecap="butt"/><path d="M227.69276,113.89585c0.4603,-2.72005 3.03848,-4.55189 5.7585,-4.09159c2.72004,0.4603 4.55189,3.03847 4.09159,5.7585c-0.4603,2.72005 -3.03846,4.5519 -5.75851,4.0916c-2.72004,-0.4603 -4.5519,-3.03848 -4.0916,-5.75851z" fill="none" stroke="#000000" stroke-width="1.5" stroke-linecap="butt"/><path d="M248.3864,116.61157c0.94681,-4.79992 5.75185,-8.07556 11.00745,-7.26436c5.25559,0.81121 8.56098,5.33444 7.81467,10.16958c-0.74631,4.83515 -5.22412,8.37211 -10.98067,7.55526c-5.47553,-0.77697 -8.83024,-5.44768 -7.84144,-10.46047z" fill="#ffffff" stroke="#000000" stroke-width="1.4" stroke-linecap="butt"/><path d="M254.60039,118.01704c0.42994,-2.78547 3.03654,-4.69498 5.822,-4.26505c2.78546,0.42994 4.69498,3.03654 4.26504,5.82201c-0.42994,2.78547 -3.03652,4.69499 -5.822,4.26504c-2.78547,-0.42994 -4.69499,-3.03654 -4.26505,-5.822z" fill="none" stroke="#000000" stroke-width="1.5" stroke-linecap="butt"/><path d="M231.32305,105.21045c9.33487,1.60867 10.1693,10.38699 10.1693,10.38699l-16.83816,-3.12726c0,0 -3.71633,-9.05518 6.66887,-7.25973z" fill="#000000" stroke="#000000" stroke-width="1.15" stroke-linecap="butt"/><path d="M248.07449,116.15666c0,0 1.19882,-9.38517 12.45572,-7.28844c2.37869,0.45119 4.91338,2.14419 5.71683,4.92588c0.62667,2.16964 -1.22197,5.19706 -1.22197,5.19706z" fill="#000000" stroke="#000000" stroke-width="1.15" stroke-linecap="butt"/><g fill="#000000" stroke="#000000" stroke-width="0" stroke-linecap="butt"><path d="M299.11815,271.0888c-3.19816,-0.34389 -8.83864,-12.02291 -8.93676,-18.08971c-0.07878,-4.87064 5.01429,-3.36917 5.75381,-10.24665c0.845,-7.85849 5.9156,-16.85213 7.62124,-28.33074c0.79917,-5.37822 -5.04453,-16.73125 -5.04453,-16.73125c0,0 16.84794,-5.13307 18.06482,-3.01451c1.10379,1.92169 0.64192,29.33056 -3.70878,48.24494c-3.68739,16.03066 -12.98305,28.25036 -13.7498,28.16791z"/><path d="M314.2782,185.78698c0.81949,1.4626 3.38286,7.42263 3.00894,9.1555c-0.69946,3.24159 -1.03377,5.38332 -4.94605,7.57534c-3.81744,2.13889 -6.35692,1.61986 -9.46254,0.62482c-1.77858,-0.56985 -5.61008,-5.89474 -6.46673,-7.42368c-2.35248,-4.19864 -0.72729,-7.11639 5.27638,-10.48021c6.00367,-3.36382 10.23752,-3.65042 12.58999,0.54823z"/></g><g fill="#000000" stroke="#000000" stroke-linecap="butt"><path d="M261.59929,228.1769c-1.47027,0.80567 -7.45419,3.31274 -9.18347,2.92251c-3.23486,-0.72999 -5.37333,-1.08447 -7.52837,-5.01725c-2.10281,-3.83744 -1.55986,-6.3719 -0.5356,-9.468c0.58659,-1.77312 5.94736,-5.55426 7.48432,-6.39646c4.22065,-2.3128 7.12292,-0.66019 10.43001,5.37493c3.30708,6.03512 3.55375,10.27148 -0.6669,12.58427z" stroke-width="0"/><path d="M255.9393,229.32085c0,0 -42.60573,20.0726 -53.68616,11.42462c-2.03249,-1.58632 7.67482,-15.27176 9.94073,-13.54463c9.55998,7.28682 34.65176,-11.72303 34.65176,-11.72303z" stroke-width="2"/></g></g></g></svg>