<svg version="1.1" xmlns="http://www.w3.org/2000/svg" xmlns:xlink="http://www.w3.org/1999/xlink" width="35.67311" height="35.67311" viewBox="0,0,35.67311,35.67311"><g transform="translate(-222.16345,-162.16345)"><g data-paper-data="{&quot;isPaintingLayer&quot;:true}" stroke-miterlimit="10" stroke-dasharray="" stroke-dashoffset="0" style="mix-blend-mode: normal"><path d="M229.98311,162.91345h20.03379c3.9166,0 7.06966,3.15307 7.06966,7.06966v20.03379c0,3.91659 -3.15306,7.06966 -7.06966,7.06966h-20.03379c-3.91659,0 -7.06966,-3.15307 -7.06966,-7.06966v-20.03379c0,-3.91659 3.15307,-7.06966 7.06966,-7.06966z" fill="#000000" fill-rule="evenodd" stroke="#ffffff" stroke-width="1.5" stroke-linecap="round" stroke-linejoin="round"/><g fill="#ffffff" fill-rule="nonzero" stroke="#000000" stroke-width="0" stroke-linejoin="miter"><g stroke-linecap="butt"><path d="M241.16772,189.55291c-2.27157,-2.64468 -5.59337,-6.96771 -6.81162,-10.87188c-0.42277,-1.35487 4.58138,2.82315 6.73182,1.66219c1.1975,-0.26146 -0.09496,-5.5378 0.35164,-5.69903c0.999,-0.36065 2.39275,1.63268 3.31497,2.84203c0.48394,0.63461 1.00374,1.57979 1.51045,2.63823c0.02374,0.0496 -0.4697,2.36161 -1.57314,4.42552c-1.39113,2.60202 -3.46803,5.06823 -3.52411,5.00294z"/><path d="M244.16405,192.91952c-0.86724,0.29434 -3.76685,-4.39009 -4.76019,-5.57021c-0.00673,-0.008 3.84923,-1.26845 4.88837,-3.9906c1.10226,-2.88747 0.44444,-5.8959 0.46228,-5.8725c1.21714,1.5961 4.715,8.39332 4.84342,9.94423c0.15091,1.82252 -3.38088,-1.01815 -4.05783,-0.45699c-0.30437,0.20143 -0.45266,5.63267 -1.37606,5.94607z"/></g><path d="M242.0375,184.73558l-12.14553,-17.55738l3.89558,1.3597l10.24855,14.81513z" stroke-linecap="butt"/><path d="M231.53481,170.52142c-0.70451,-0.32907 -3.63066,-4.47504 -2.87762,-4.99597c0.4528,-0.31323 4.54507,1.25988 5.75608,3.01049c0.72527,1.04843 -1.89811,2.44339 -2.87846,1.98548z" data-paper-data="{&quot;index&quot;:null}" stroke-linecap="butt"/><path d="M229.73679,166.35782l12.50724,18.08026" stroke-linecap="round"/><path d="M242.7892,184.23276l-12.12142,-17.52252" stroke-linecap="round"/><path d="M243.27723,183.89516l-11.57483,-16.73238" stroke-linecap="round"/><path d="M243.86171,183.697l-11.1247,-16.08168" stroke-linecap="round"/><path d="M242.1606,185.16187l-0.3758,-0.54324l2.2124,-1.53045l0.37579,0.54324z" stroke-linecap="butt"/><path d="M229.47734,166.51092c-0.09322,-0.13476 -0.05955,-0.31958 0.07521,-0.41281c0.13476,-0.09322 0.31959,-0.05955 0.41281,0.07521c0.09322,0.13476 0.05955,0.31959 -0.07521,0.41281c-0.13476,0.09322 -0.31959,0.05955 -0.41281,-0.07521z" stroke-linecap="butt"/><path d="M230.42918,166.86037c-0.09322,-0.13476 -0.05955,-0.31959 0.07521,-0.41281c0.13476,-0.09322 0.31959,-0.05955 0.41281,0.07522c0.09322,0.13476 0.05955,0.31958 -0.07521,0.41281c-0.13476,0.09322 -0.31959,0.05955 -0.41281,-0.07521z" stroke-linecap="butt"/><path d="M231.49776,167.31233c-0.09322,-0.13476 -0.05955,-0.31959 0.07522,-0.41281c0.13476,-0.09322 0.31959,-0.05955 0.41281,0.07522c0.09322,0.13476 0.05955,0.31959 -0.07522,0.41281c-0.13476,0.09322 -0.31959,0.05955 -0.41281,-0.07522z" stroke-linecap="butt"/><path d="M232.49364,167.79166c-0.09322,-0.13476 -0.05955,-0.31959 0.07521,-0.41282c0.13476,-0.09322 0.31959,-0.05955 0.41281,0.07522c0.09322,0.13476 0.05955,0.31959 -0.07522,0.41281c-0.13476,0.09322 -0.31958,0.05955 -0.41281,-0.07521z" stroke-linecap="butt"/></g><g fill="#ffffff" fill-rule="nonzero" stroke="#000000" stroke-width="0.5" stroke-linejoin="miter"><g stroke-linecap="butt"><path d="M240.83438,191.38624c-2.27156,-2.64468 -5.59337,-6.96771 -6.81163,-10.87188c-0.42277,-1.35488 4.58139,2.82314 6.73183,1.66219c1.1975,-0.26146 -0.09496,-5.5378 0.35163,-5.69903c0.99899,-0.36065 2.39276,1.63267 3.31497,2.84202c0.48394,0.63461 1.00374,1.57979 1.51045,2.63823c0.02374,0.0496 -0.46969,2.36161 -1.57313,4.42553c-1.39114,2.60203 -3.46803,5.06824 -3.52412,5.00294z"/><path d="M243.83072,194.75286c-0.86724,0.29434 -3.76685,-4.39009 -4.76019,-5.57021c-0.00673,-0.008 3.84923,-1.26845 4.88838,-3.99061c1.10225,-2.88747 0.44444,-5.8959 0.46228,-5.8725c1.21713,1.5961 4.715,8.39332 4.84342,9.94424c0.15091,1.82252 -3.38088,-1.01815 -4.05783,-0.45699c-0.30437,0.20143 -0.45266,5.63266 -1.37606,5.94607z"/></g><path d="M241.70417,186.56891l-12.14553,-17.55738l3.89557,1.3597l10.24854,14.81513z" stroke-linecap="butt"/><path d="M231.20148,172.35476c-0.70451,-0.32908 -3.63066,-4.47504 -2.87762,-4.99596c0.4528,-0.31323 4.54507,1.25987 5.75607,3.01049c0.72526,1.04843 -1.8981,2.4434 -2.87845,1.98548z" data-paper-data="{&quot;index&quot;:null}" stroke-linecap="butt"/><path d="M229.40346,168.19115l12.50724,18.08026" stroke-linecap="round"/><path d="M242.45587,186.06609l-12.12142,-17.52252" stroke-linecap="round"/><path d="M242.9439,185.72849l-11.57483,-16.73238" stroke-linecap="round"/><path d="M243.52838,185.53033l-11.1247,-16.08168" stroke-linecap="round"/><path d="M241.82726,186.9952l-0.37579,-0.54324l2.2124,-1.53045l0.37579,0.54324z" stroke-linecap="butt"/><path d="M229.144,168.34425c-0.09323,-0.13477 -0.05955,-0.31959 0.07521,-0.41281c0.13477,-0.09322 0.31959,-0.05955 0.41281,0.07521c0.09323,0.13477 0.05955,0.31959 -0.07521,0.41281c-0.13477,0.09322 -0.31959,0.05955 -0.41281,-0.07521z" stroke-linecap="butt"/><path d="M230.09585,168.6937c-0.09323,-0.13477 -0.05955,-0.31959 0.07521,-0.41281c0.13477,-0.09322 0.31959,-0.05955 0.41281,0.07521c0.09323,0.13477 0.05955,0.31959 -0.07522,0.41281c-0.13477,0.09322 -0.31959,0.05955 -0.41281,-0.07521z" stroke-linecap="butt"/><path d="M231.16442,169.14566c-0.09323,-0.13477 -0.05955,-0.31959 0.07522,-0.41281c0.13477,-0.09322 0.31959,-0.05955 0.41281,0.07522c0.09323,0.13477 0.05955,0.31959 -0.07521,0.41281c-0.13477,0.09322 -0.31959,0.05955 -0.41281,-0.07521z" stroke-linecap="butt"/><path d="M232.16031,169.62499c-0.09323,-0.13477 -0.05955,-0.31959 0.07521,-0.41281c0.13477,-0.09322 0.31959,-0.05955 0.41281,0.07521c0.09323,0.13477 0.05955,0.31959 -0.07521,0.41281c-0.13477,0.09322 -0.31959,0.05955 -0.41281,-0.07521z" stroke-linecap="butt"/></g></g></g></svg>