<svg version="1.1" xmlns="http://www.w3.org/2000/svg" xmlns:xlink="http://www.w3.org/1999/xlink" width="35.67311" height="35.67311" viewBox="0,0,35.67311,35.67311"><g transform="translate(-222.16348,-162.1635)"><g data-paper-data="{&quot;isPaintingLayer&quot;:true}" stroke-miterlimit="10" stroke-dasharray="" stroke-dashoffset="0" style="mix-blend-mode: normal"><path d="M229.98315,162.9135h20.03378c3.9166,0 7.06966,3.15307 7.06966,7.06966v20.03379c0,3.91659 -3.15306,7.06966 -7.06966,7.06966h-20.03378c-3.91659,0 -7.06967,-3.15307 -7.06967,-7.06966v-20.03379c0,-3.91659 3.15308,-7.06966 7.06967,-7.06966z" fill="#ffffff" fill-rule="evenodd" stroke="#000000" stroke-width="1.5" stroke-linecap="round" stroke-linejoin="round"/><g fill="#000000" fill-rule="nonzero" stroke-linecap="butt" stroke-linejoin="miter"><g stroke="#000000" stroke-width="0"><path d="M243.29153,190.1548c-0.40555,-1.27071 0.29581,-2.62959 1.56652,-3.03514c1.27071,-0.40555 2.62958,0.29581 3.03513,1.56652c0.40555,1.27071 -0.2958,2.62959 -1.56652,3.03514c-1.27071,0.40555 -2.62959,-0.29581 -3.03514,-1.56652z"/><path d="M244.38075,185.62412c-0.68846,-0.14689 -1.52715,-0.00513 -2.12503,-0.32609c-0.09118,-0.04895 -0.17676,-0.10866 -0.25535,-0.1818c-1.54396,-1.43681 -3.45691,-8.13894 -2.20782,-9.49948c0.738,-0.80384 5.18797,-2.09799 3.72861,-4.20414c-1.20813,-1.74358 -5.41835,-2.00293 -6.78022,-0.4593c-1.93545,2.19377 1.36215,9.17259 -4.22538,6.28871c-2.37236,-1.22444 -1.0652,-4.57744 -1.1078,-6.29988c-0.12549,-5.075 7.94404,-6.13579 11.53569,-5.34877c4.26431,0.93442 7.16961,5.9159 4.68245,9.88643c-0.76664,1.22387 -3.51086,1.62572 -3.11244,3.01384c0.33948,1.18278 2.28925,4.49242 1.48854,5.36458z"/></g><g stroke="#ffffff" stroke-width="1"><path d="M242.16152,191.95877c-0.40555,-1.27071 0.29581,-2.62959 1.56652,-3.03513c1.27071,-0.40555 2.62959,0.29581 3.03513,1.56652c0.40555,1.27071 -0.29581,2.62959 -1.56652,3.03513c-1.27071,0.40555 -2.62959,-0.29581 -3.03513,-1.56652z"/><path d="M243.25074,187.4281c-0.68846,-0.1469 -1.52715,-0.00514 -2.12502,-0.3261c-0.09118,-0.04895 -0.17676,-0.10866 -0.25535,-0.1818c-1.54395,-1.43681 -3.45691,-8.13894 -2.20782,-9.49948c0.738,-0.80384 5.18797,-2.09799 3.72861,-4.20414c-1.20813,-1.74358 -5.41836,-2.00293 -6.78022,-0.4593c-1.93544,2.19378 1.36215,9.17259 -4.22537,6.28871c-2.37236,-1.22444 -1.06521,-4.57744 -1.1078,-6.29988c-0.12549,-5.075 7.94404,-6.13579 11.53569,-5.34876c4.26431,0.93442 7.16961,5.9159 4.68245,9.88642c-0.76664,1.22388 -3.51086,1.62572 -3.11244,3.01384c0.33948,1.18278 2.28925,4.49242 1.48854,5.36458z"/></g></g></g></g></svg>