<svg version="1.1" xmlns="http://www.w3.org/2000/svg" xmlns:xlink="http://www.w3.org/1999/xlink" width="206.13232" height="254.89211" viewBox="0,0,206.13232,254.89211"><g transform="translate(-168.44183,-50.60779)"><g data-paper-data="{&quot;isPaintingLayer&quot;:true}" fill-rule="nonzero" stroke-linejoin="miter" stroke-miterlimit="10" stroke-dasharray="" stroke-dashoffset="0" style="mix-blend-mode: normal"><path d="M287.13325,133.86798c0,0 -1.18314,0.25581 -2.51322,0.30742c-2.09832,0.08141 -3.60801,-0.42856 -3.60801,-0.42856c0,0 0.72478,5.40043 3.34372,10.67141c2.77385,5.58271 8.55736,10.05222 8.55736,10.05222c0,0 -1.91709,0.22261 -4.32227,-0.08959c-2.30516,-0.29918 -4.64803,-1.14885 -4.64803,-1.14885c0,0 -1.07102,4.97501 0.97986,6.60228c2.3025,1.82693 7.20663,14.21469 7.20663,14.21469c0,0 -4.01003,-8.52016 -8.60481,-9.15052c-3.66683,-0.50306 -3.76265,-6.18291 -3.76265,-6.18291c0,0 -0.0744,4.62943 -2.17921,12.53164c-1.76596,6.63004 -5.55407,10.32938 -5.55407,10.32938l-0.39444,-2.62829c0,0 -9.27666,11.42785 -26.51942,13.45648c-18.29633,2.02727 -26.89947,-8.16465 -26.89947,-8.16465l0.28116,3.69481c0,0 -2.61892,-1.51819 -3.93948,-2.52325c-1.32053,-1.00508 -2.62824,-3.08022 -2.62824,-3.08022c0,0 -1.53808,-12.24057 -4.53462,-11.74318c-3.20167,0.53144 -14.10081,14.83641 -14.10081,14.83641c0,0 0.33554,-10.89141 3.34454,-19.07751c3.30627,-8.99491 4.0909,-18.6252 4.0909,-18.6252c0,0 -2.51084,2.40738 -3.70429,3.54306c-1.2796,1.21764 -4.00019,3.56153 -4.00019,3.56153c0,0 2.04691,-8.27187 4.74148,-17.97899c1.96517,-7.07954 -7.69484,-42.54019 39.66997,-46.48885c38.41192,-2.53909 41.75222,35.21979 42.34073,37.44191c0.22439,0.84723 7.35685,6.06738 7.35685,6.06738z" data-paper-data="{&quot;index&quot;:null}" fill="#000000" stroke="none" stroke-width="1.5" stroke-linecap="butt"/><path d="M200.2371,186.37962c-0.05451,-8.15261 8.18688,-36.76129 40.20201,-36.9211c13.72075,-0.06849 28.46501,8.55021 39.34305,27.09597c4.67459,7.96962 7.23015,18.43389 10.56667,27.2055c6.78226,17.83041 17.42674,61.49841 17.42674,61.49841l-6.99667,8.59614c0,0 -7.9797,-9.04137 -11.83598,-18.53051c-9.72691,-23.93494 -19.40165,-68.84414 -21.47242,-68.88342c-3.43441,-0.06514 -2.7399,117.98557 -2.7399,117.98557l-48.21366,0.07222c0,0 -0.0259,-118.15209 -3.19099,-118.16752c-3.11083,-0.01515 -12.93086,23.67688 -13.08885,0.04874z" fill="#000000" stroke="#000000" stroke-width="2" stroke-linecap="butt"/><g stroke="none" stroke-width="0" stroke-linecap="butt"><g fill="#5a5a5a"><g><path d="M209.66364,197.16106c0,-10.5134 7.79074,-19.03619 17.40111,-19.03619c9.61037,0 29.25852,8.52279 29.25852,19.03619c0,10.5134 -19.64815,19.03619 -29.25852,19.03619c-9.61037,0 -17.40111,-8.5228 -17.40111,-19.03619z"/><path d="M254.5853,216.3175c-9.61038,0 -29.25852,-8.52279 -29.25852,-19.03619c0,-10.5134 19.64815,-19.0362 29.25852,-19.0362c9.61038,0 17.40112,8.5228 17.40112,19.0362c0,10.5134 -7.79075,19.03619 -17.40112,19.03619z" data-paper-data="{&quot;index&quot;:null}"/></g><path d="M209.80374,197.34133c0,0 -0.3709,-2.61945 0.11388,-4.91271c1.13225,-5.35615 7.74548,-26.79895 7.74548,-26.79895h47.61844c0,0 4.92103,20.9045 6.343,26.47807c0.68293,2.6768 0.59173,5.94356 0.59173,5.94356z"/></g><g fill="#3f3f3f"><g><path d="M256.52477,197.36255c0,10.5134 -19.64815,19.03619 -29.25852,19.03619c-9.06328,0 -16.50821,-7.58006 -17.32647,-17.26126c0.68033,-0.01074 12.81701,1.71413 24.65994,1.23208c11.07317,-0.45072 21.92505,-3.11479 21.92505,-3.00701z"/><path d="M254.78679,216.51899c-8.86312,0 -25.98147,-4.42629 -28.63385,-13.80031c6.87938,0.54674 13.51869,-1.88573 20.02075,-3.33063c6.71,-1.49111 23.12288,-7.02069 24.99004,-8.35496c0.66291,2.01411 1.02418,4.18576 1.02418,6.44971c0,10.5134 -7.79075,19.03619 -17.40112,19.03619z" data-paper-data="{&quot;index&quot;:null}"/></g><path d="M271.82602,192.30923c0.68293,2.6768 0.59173,5.94356 0.59173,5.94356l-20.64443,-0.23484c4.69135,-1.24508 17.73755,-5.75793 19.67993,-7.19539c0.14137,0.57072 0.26679,1.07128 0.37277,1.48668z"/></g></g><g stroke="none" stroke-width="0" stroke-linecap="butt"><path d="" fill="#3f3f3f"/><path d="" fill="#2a2a2a"/></g><g data-paper-data="{&quot;index&quot;:null}" stroke="none" stroke-width="0" stroke-linecap="butt"><path d="" fill="#3f3f3f"/><path d="" fill="#2a2a2a"/></g><g><g stroke="none" stroke-linecap="butt"><path d="M195.44313,218.87727c21.07863,-11.06231 54.93441,-26.54108 82.77965,-28.66461c9.6632,-0.73693 -25.8057,26.15843 -21.37601,42.2465c-0.09528,8.36884 36.99408,7.8542 37.38251,11.0729c0.8689,7.19996 -14.53047,13.41954 -23.99069,17.70275c-4.9643,2.24764 -12.05003,4.25804 -19.86938,6.00771c-0.3664,0.08199 -14.99443,-6.74425 -27.03683,-17.24929c-15.18214,-13.24395 -28.40969,-30.84284 -27.88926,-31.11597z" fill="#5a2042" stroke-width="NaN"/><path d="M168.45008,233.65593c-0.62959,-6.22168 34.98395,-18.33732 44.35866,-23.13857c0.06356,-0.03255 2.54175,27.55658 19.0626,38.64247c17.52418,11.75914 38.5503,11.99212 38.36726,12.07498c-12.48557,5.65297 -63.07443,18.51176 -73.59104,16.98967c-12.3583,-1.78863 11.9556,-20.93618 9.259,-26.30053c-0.87387,-2.33397 -36.78613,-11.64346 -37.4565,-18.26802z" fill="#3f162e" stroke-width="NaN"/></g><path d="M226.16483,232.04687l135.43861,-53.91162l-15.01701,23.83758l-114.28474,45.49128z" fill="#000000" stroke="none" stroke-width="0" stroke-linecap="butt"/><path d="M336.84011,183.94358c3.26926,-4.18357 35.34054,-17.30089 37.65282,-11.49192c1.39036,3.49289 -15.34804,28.31228 -28.85235,33.6877c-8.08765,3.2193 -13.34973,-16.37422 -8.80047,-22.19578z" data-paper-data="{&quot;index&quot;:null}" fill="#8a3065" stroke="none" stroke-width="0" stroke-linecap="butt"/><path d="M367.30005,178.35978l-139.47219,55.5172" fill="none" stroke="#ffffff" stroke-width="1.5" stroke-linecap="round"/><path d="M228.35868,237.81919l135.16971,-53.80459" fill="none" stroke="#ffffff" stroke-width="1.5" stroke-linecap="round"/><path d="M229.85722,241.58387l129.07453,-51.37839" fill="none" stroke="#ffffff" stroke-width="1.5" stroke-linecap="round"/><path d="M230.28014,245.77669l124.05496,-49.38035" fill="none" stroke="#ffffff" stroke-width="1.5" stroke-linecap="round"/><path d="M223.13963,232.21268l4.19058,-1.66806l6.79336,17.06654l-4.19057,1.66807z" fill="#3f3f3f" stroke="none" stroke-width="0" stroke-linecap="butt"/><path d="M366.6789,176.39877c1.03959,-0.41381 2.2178,0.09348 2.6316,1.13307c0.4138,1.03959 -0.09348,2.2178 -1.13307,2.6316c-1.03959,0.41381 -2.2178,-0.09348 -2.63161,-1.13307c-0.4138,-1.03959 0.09348,-2.2178 1.13307,-2.6316z" fill="#000000" stroke="none" stroke-width="0.5" stroke-linecap="butt"/><path d="M362.89505,182.19688c1.03959,-0.41381 2.2178,0.09347 2.63161,1.13306c0.4138,1.03959 -0.09348,2.21781 -1.13307,2.63161c-1.03959,0.41381 -2.2178,-0.09349 -2.63161,-1.13308c-0.4138,-1.03959 0.09348,-2.21779 1.13307,-2.6316z" fill="#000000" stroke="none" stroke-width="0.5" stroke-linecap="butt"/><path d="M358.25025,188.6146c1.03959,-0.41381 2.2178,0.09349 2.63161,1.13308c0.4138,1.03959 -0.09349,2.21779 -1.13308,2.6316c-1.03959,0.41381 -2.21779,-0.09348 -2.6316,-1.13307c-0.4138,-1.03959 0.09348,-2.2178 1.13307,-2.63161z" fill="#000000" stroke="none" stroke-width="0.5" stroke-linecap="butt"/><path d="M353.53467,194.50668c1.03959,-0.41381 2.2178,0.09348 2.63161,1.13307c0.4138,1.03959 -0.09348,2.2178 -1.13307,2.63161c-1.03959,0.41381 -2.2178,-0.09348 -2.63161,-1.13307c-0.4138,-1.03959 0.09348,-2.2178 1.13307,-2.63161z" fill="#000000" stroke="none" stroke-width="0.5" stroke-linecap="butt"/></g><path d="M201.78123,239.95077c-7.21952,-7.95186 -3.74037,-41.80149 -1.61001,-55.83628c0.62471,-4.11554 1.49903,-4.69921 1.49903,-4.69921l11.04073,6.07589c0,0 -1.61795,42.11222 5.8365,50.13637c0.17713,0.19067 -14.60148,6.70759 -16.76624,4.32324z" fill="#000000" stroke="#000000" stroke-width="2" stroke-linecap="butt"/><g stroke="none" stroke-width="0" stroke-linecap="butt"><g><path d="M209.78574,180.88744c0,-8.27363 13.62398,-14.98072 30.43001,-14.98072c16.80603,0 30.43002,6.70709 30.43002,14.98072c0,8.27363 -30.43002,33.0044 -30.43002,33.0044c0,0 -30.43001,-24.73077 -30.43001,-33.0044z" fill="#5a2042"/><path d="M209.51591,173.06478c0,-8.27363 13.62398,-14.98072 30.43001,-14.98072c16.80603,0 30.43002,6.7071 30.43002,14.98072c0,8.27363 -30.43002,33.0044 -30.43002,33.0044c0,0 -30.43001,-24.73077 -30.43001,-33.0044z" fill="#732854"/><path d="M209.62408,167.21799c0,-8.27363 13.62399,-14.98072 30.43002,-14.98072c16.80603,0 30.43001,6.70709 30.43001,14.98072c0,8.27363 -30.43001,33.0044 -30.43001,33.0044c0,0 -30.43002,-24.73077 -30.43002,-33.0044z" fill="#8a3065"/><path d="M209.35425,161.08891c0,-8.27363 13.62399,-14.98072 30.43002,-14.98072c16.80603,0 30.43001,6.7071 30.43001,14.98072c0,8.27363 -30.43001,33.0044 -30.43001,33.0044c0,0 -30.43002,-24.73077 -30.43002,-33.0044z" fill="#9e3874"/></g><path d="M259.73314,156.97542c0,3.66343 -9.06639,4.09285 -20.25034,4.09285c-11.18395,0 -20.25035,-0.42942 -20.25035,-4.09285c0,-3.66343 9.06639,-9.17363 20.25035,-9.17363c11.18395,0 20.25034,5.51019 20.25034,9.17363z" fill="#000000"/></g><path d="M227.58382,51.0288c26.05779,-3.21776 39.47741,12.50429 45.4555,30.26272c4.18717,12.43834 4.31798,28.51013 4.31798,28.51013l-4.72623,-9.81044c0,0 4.13269,9.97794 3.41948,20.45258c-0.58498,9.59101 -5.49882,17.88118 -5.49882,17.88118l-1.38911,-2.21697c0,0 -0.79263,2.29097 -1.80806,3.53608c-1.01544,1.2451 -3.12298,3.24899 -3.12298,3.24899l-0.47022,-3.6754c0,0 -5.89687,11.68192 -23.11182,13.30369c-16.24695,1.41268 -27.02616,-7.95427 -27.02616,-7.95427l0.15579,2.65282c0,0 -4.21094,-2.8774 -7.14137,-9.02483c-3.49271,-7.32703 -4.474,-11.84797 -4.474,-11.84797c0,0 -2.13269,2.12831 -5.4035,3.34425c-4.0985,1.52365 -6.87497,1.05353 -6.87497,1.05353c0,0 3.31131,-3.07174 5.06714,-5.3157c1.56396,-1.99874 2.2875,-3.63006 2.2875,-3.63006c0,0 -1.98567,1.29446 -4.04522,2.04214c-2.14891,0.78014 -3.95469,0.94011 -3.95469,0.94011c0,0 4.43396,-5.51943 5.88236,-11.53601c1.36751,-5.68063 0.96867,-11.11455 0.96867,-11.11455l-1.88961,5.14882c0,0 -0.06826,-4.51673 0.48071,-7.84146c0.27363,-1.65723 -2.90143,-43.32236 32.90163,-48.40941z" fill="#000000" stroke="none" stroke-width="1.5" stroke-linecap="butt"/><path d="M212.78228,112.06432c-0.42949,-4.87352 3.89956,-9.38386 9.25241,-9.8556c5.35284,-0.47173 9.41422,3.30338 9.84372,8.17691c0.42949,4.87352 -3.20297,9.16982 -8.55581,9.64158c-5.35284,0.47173 -10.11082,-3.08935 -10.54031,-7.96288z" fill="#ffffff" stroke="#000000" stroke-width="1.4" stroke-linecap="butt"/><path d="M239.69692,109.29939c-0.29721,-4.88337 3.52381,-9.26721 8.81379,-9.81079c5.28997,-0.54358 9.63136,2.99726 10.13146,7.86403c0.5001,4.86678 -2.93826,9.42074 -8.71435,10.08549c-5.49411,0.63231 -9.92051,-3.03877 -10.23089,-8.13871z" fill="#ffffff" stroke="#000000" stroke-width="1.4" stroke-linecap="butt"/><path d="M219.41582,111.09859c-0.13761,-1.5615 1.01667,-2.93889 2.57816,-3.0765c1.56149,-0.13761 2.93889,1.01667 3.0765,2.57816c0.13761,1.5615 -1.01666,2.93889 -2.57816,3.0765c-1.56149,0.13761 -2.93889,-1.01667 -3.0765,-2.57816z" fill="none" stroke="#000000" stroke-width="1.5" stroke-linecap="butt"/><path d="M246.54593,108.73887c-0.1637,-1.5931 0.99505,-3.01727 2.58815,-3.18098c1.5931,-0.1637 3.01727,0.99505 3.18097,2.58816c0.1637,1.5931 -0.99504,3.01727 -2.58815,3.18097c-1.5931,0.1637 -3.01728,-0.99505 -3.18098,-2.58815z" fill="none" stroke="#000000" stroke-width="1.5" stroke-linecap="butt"/><g fill="#000000" stroke="#000000" stroke-linecap="butt"><path d="M261.2426,242.8607c-1.62629,0.40737 -8.04989,1.31852 -9.62412,0.50337c-2.94482,-1.52486 -4.92397,-2.40898 -6.01364,-6.7591c-1.06325,-4.24467 0.10342,-6.55924 1.87785,-9.29536c1.01621,-1.56697 7.15936,-3.86841 8.85941,-4.29425c4.66855,-1.16942 7.05814,1.16386 8.7303,7.83944c1.67216,6.67558 0.83873,10.83647 -3.82981,12.00588z" stroke-width="0"/><path d="M255.47735,242.53507c0,0 -46.29855,8.63724 -54.82981,-2.5333c-1.5649,-2.04903 11.28974,-12.83243 13.04481,-10.5881c7.40477,9.46892 36.4905,-2.57233 36.4905,-2.57233z" stroke-width="2"/></g><path d="M213.91629,113.95463l-1.61616,-8.65263l3.63007,6.09447l1.38998,2.30607z" fill="#ffffff" stroke="#000000" stroke-width="0" stroke-linecap="butt"/><path d="M254.53294,110.07558l0.92835,-2.52748l2.41086,-6.67141l0.05086,8.80212z" data-paper-data="{&quot;index&quot;:null}" fill="#ffffff" stroke="#000000" stroke-width="0" stroke-linecap="butt"/><g fill="#000000" stroke="#000000" stroke-width="0" stroke-linecap="butt"><path d="M301.15315,274.9196c-3.12799,-0.74979 -7.22966,-13.05389 -6.55164,-19.08348c0.54433,-4.84077 15.0369,-25.38524 18.1955,-36.55175c1.47994,-5.23198 -2.86494,-17.23874 -2.86494,-17.23874c0,0 17.36579,-2.93785 18.30194,-0.68114c0.84915,2.04699 -3.11174,29.1721 -9.84399,47.37536c-5.70584,15.42797 -16.48694,26.35949 -17.23686,26.17974z"/><path d="M326.76149,192.30927c0.62585,1.55533 2.40652,7.79409 1.81421,9.46497c-1.10799,3.12561 -1.71327,5.20706 -5.8736,6.88112c-4.05948,1.63349 -6.51181,0.79417 -9.4648,-0.5896c-1.69117,-0.79248 -4.81074,-6.56337 -5.46497,-8.18925c-1.79661,-4.46486 0.18814,-7.15098 6.57246,-9.71996c6.38434,-2.56898 10.62009,-2.31215 12.4167,2.15272z"/></g></g></g></svg>