<svg version="1.1" xmlns="http://www.w3.org/2000/svg" xmlns:xlink="http://www.w3.org/1999/xlink" width="35.67311" height="35.67311" viewBox="0,0,35.67311,35.67311"><g transform="translate(-222.16345,-162.16344)"><g data-paper-data="{&quot;isPaintingLayer&quot;:true}" stroke-miterlimit="10" stroke-dasharray="" stroke-dashoffset="0" style="mix-blend-mode: normal"><path d="M229.98311,162.91345h20.03379c3.9166,0 7.06966,3.15307 7.06966,7.06966v20.03379c0,3.91659 -3.15306,7.06966 -7.06966,7.06966h-20.03379c-3.91659,0 -7.06966,-3.15307 -7.06966,-7.06966v-20.03379c0,-3.91659 3.15307,-7.06966 7.06966,-7.06966z" fill="#000000" fill-rule="evenodd" stroke="#ffffff" stroke-width="1.5" stroke-linecap="round" stroke-linejoin="round"/><g fill="#ffffff" fill-rule="nonzero" stroke="#000000" stroke-width="0" stroke-linejoin="miter"><g stroke-linecap="butt"><path d="M238.31639,192.00344c-0.54236,-0.96051 -2.25034,-3.98529 -2.25034,-3.98529l14.89583,-8.35027c0,0 1.53071,2.71086 2.07941,3.68258c0.35945,0.63657 0.24167,1.94517 -0.77564,2.51544c-3.14908,1.7653 -9.81089,5.49976 -11.55806,6.47919c-0.82134,0.46042 -2.08411,0.20219 -2.3912,-0.34166z"/><path d="M238.2437,191.90959l-1.63158,-2.88948l14.93721,-8.37346l1.63158,2.88947z"/><path d="M233.80246,189.51171c-2.09968,-3.71846 -5.84406,-10.34962 -6.91637,-12.24864c-0.63934,-1.13225 -0.14466,-2.59064 0.85446,-3.15072c2.20946,-1.23857 10.93021,-6.12723 15.3105,-8.58272c1.5365,-0.86132 3.31565,-0.04771 3.88945,0.96848c1.08011,1.91283 4.7415,8.39701 6.75268,11.95872c0.80866,1.43212 0.0355,3.12892 -1.1884,3.81501c-2.30108,1.28993 -10.2632,5.75332 -14.54112,8.15142c-1.66337,0.93245 -3.19436,0.80066 -4.1612,-0.91157z"/><path d="M229.39602,181.74024l-2.04627,-3.62385l1.87272,-4.82988l4.68511,-2.60858z"/><path d="M231.9108,186.11648l-1.21997,-2.16053l6.53741,-15.2295l2.71789,-1.44873z"/><path d="M234.77263,187.6121c-1.78149,-3.15494 -4.95841,-8.78117 -5.86821,-10.39239c-0.54245,-0.96067 -0.13379,-2.19184 0.70287,-2.66085c1.85022,-1.03718 9.15303,-5.13098 12.82111,-7.18723c1.28667,-0.72127 2.78514,-0.02475 3.27199,0.83743c0.91643,1.62295 4.02293,7.12446 5.72932,10.14641c0.68612,1.21508 0.04466,2.6466 -0.98025,3.22114c-1.92694,1.0802 -8.59448,4.81787 -12.17684,6.82606c-1.39292,0.78083 -2.67967,0.66218 -3.49998,-0.79057z"/></g><path d="M239.37767,183.80456l-3.44139,-1.21356l0.82419,-4.15589" stroke-linecap="round"/><path d="M244.16504,169.04695l-0.93257,4.52385l3.11889,1.49108l-1.5601,3.93915l-4.61082,0.04151" stroke-linecap="round"/></g><g fill="#ffffff" fill-rule="nonzero" stroke="#000000" stroke-width="1" stroke-linejoin="miter"><g stroke-linecap="butt"><path d="M237.69139,194.25344c-0.54236,-0.9605 -2.25034,-3.98529 -2.25034,-3.98529l14.89583,-8.35027c0,0 1.53072,2.71085 2.07941,3.68258c0.35945,0.63658 0.24167,1.94516 -0.77564,2.51544c-3.14908,1.7653 -9.81089,5.49977 -11.55807,6.47919c-0.82134,0.46042 -2.08411,0.20219 -2.3912,-0.34166z"/><path d="M237.61869,194.15959l-1.63158,-2.88947l14.93721,-8.37346l1.63158,2.88947z"/><path d="M233.17746,191.76171c-2.09968,-3.71846 -5.84406,-10.34962 -6.91637,-12.24864c-0.63935,-1.13225 -0.14465,-2.59064 0.85446,-3.15072c2.20946,-1.23858 10.93021,-6.12723 15.31049,-8.58272c1.53649,-0.86133 3.31565,-0.04771 3.88946,0.96848c1.08011,1.91283 4.7415,8.39701 6.75267,11.95872c0.80866,1.43211 0.03551,3.12892 -1.18839,3.81501c-2.30108,1.28993 -10.2632,5.75332 -14.54112,8.15142c-1.66337,0.93245 -3.19436,0.80066 -4.1612,-0.91157z"/><path d="M228.77102,183.99024l-2.04626,-3.62386l1.87272,-4.82988l4.68511,-2.60858z"/><path d="M231.28579,188.36648l-1.21997,-2.16053l6.53741,-15.2295l2.71789,-1.44873z"/><path d="M234.14763,189.8621c-1.78149,-3.15494 -4.95841,-8.78116 -5.86821,-10.39239c-0.54245,-0.96067 -0.13379,-2.19184 0.70287,-2.66085c1.85022,-1.03719 9.15303,-5.13098 12.82111,-7.18722c1.28667,-0.72127 2.78514,-0.02476 3.27198,0.83743c0.91642,1.62295 4.02294,7.12446 5.72932,10.14641c0.68611,1.21508 0.04465,2.6466 -0.98025,3.22114c-1.92694,1.0802 -8.59448,4.81787 -12.17684,6.82606c-1.39292,0.78084 -2.67967,0.66218 -3.49999,-0.79057z"/></g><path d="M238.75267,186.05456l-3.4414,-1.21356l0.82419,-4.1559" stroke-linecap="round"/><path d="M243.54004,171.29695l-0.93256,4.52385l3.11889,1.49108l-1.5601,3.93914l-4.61082,0.04151" stroke-linecap="round"/></g></g></g></svg>