<svg version="1.1" xmlns="http://www.w3.org/2000/svg" xmlns:xlink="http://www.w3.org/1999/xlink" width="275.51327" height="398.73985" viewBox="0,0,275.51327,398.73985"><defs><linearGradient x1="413.08063" y1="225.72781" x2="406.91456" y2="282.69556" gradientUnits="userSpaceOnUse" id="color-1"><stop offset="0" stop-color="#1a1a1a"/><stop offset="1" stop-color="#3c3c3c"/></linearGradient><radialGradient cx="398.911" cy="228.43541" r="9.58478" gradientUnits="userSpaceOnUse" id="color-2"><stop offset="0" stop-color="#ffffff"/><stop offset="1" stop-color="#ff9090"/></radialGradient><radialGradient cx="425.15173" cy="234.75485" r="9.52652" gradientUnits="userSpaceOnUse" id="color-3"><stop offset="0" stop-color="#ffffff"/><stop offset="1" stop-color="#ff9090"/></radialGradient><linearGradient x1="207.29323" y1="122.93352" x2="207.29323" y2="135.44708" gradientUnits="userSpaceOnUse" id="color-4"><stop offset="0" stop-color="#000000"/><stop offset="1" stop-color="#000000" stop-opacity="0"/></linearGradient><linearGradient x1="278.65976" y1="122.36182" x2="278.65976" y2="134.87543" gradientUnits="userSpaceOnUse" id="color-5"><stop offset="0" stop-color="#000000"/><stop offset="1" stop-color="#000000" stop-opacity="0"/></linearGradient><linearGradient x1="242.39887" y1="120.12757" x2="242.39887" y2="132.64118" gradientUnits="userSpaceOnUse" id="color-6"><stop offset="0" stop-color="#000000"/><stop offset="1" stop-color="#000000" stop-opacity="0"/></linearGradient><linearGradient x1="246.90962" y1="-15.42537" x2="245.65192" y2="1.31646" gradientUnits="userSpaceOnUse" id="color-7"><stop offset="0" stop-color="#000000"/><stop offset="1" stop-color="#000000" stop-opacity="0"/></linearGradient><radialGradient cx="262.07089" cy="-12.62831" r="12.20725" gradientUnits="userSpaceOnUse" id="color-8"><stop offset="0" stop-color="#ffffff"/><stop offset="1" stop-color="#ffffff" stop-opacity="0"/></radialGradient></defs><g transform="translate(-189.08105,85.70864)"><g data-paper-data="{&quot;isPaintingLayer&quot;:true}" fill-rule="nonzero" stroke-linejoin="miter" stroke-miterlimit="10" stroke-dasharray="" stroke-dashoffset="0" style="mix-blend-mode: normal"><g fill="#884545" stroke="none" stroke-linecap="butt"><path d="M328.34166,148.66433c0.3239,-2.99247 3.01235,-5.15579 6.00482,-4.83188c2.99247,0.3239 5.15579,3.01235 4.83188,6.00482c-0.3239,2.99247 -3.01235,5.15579 -6.00482,4.83188c-2.99247,-0.3239 -5.15579,-3.01235 -4.83188,-6.00482z" stroke-width="NaN"/><path d="M329.792,153.85052c0.3239,-2.99247 3.01235,-5.15579 6.00482,-4.83188c2.99247,0.3239 5.15579,3.01235 4.83188,6.00482c-0.3239,2.99247 -3.01235,5.15579 -6.00482,4.83188c-2.99247,-0.3239 -5.15578,-3.01235 -4.83187,-6.00483z" stroke-width="NaN"/><path d="M327.94496,158.96716c0.3239,-2.99247 3.01235,-5.15579 6.00482,-4.83188c2.99247,0.3239 5.15579,3.01235 4.83188,6.00482c-0.3239,2.99247 -3.68209,10.41425 -6.67457,10.09034c-2.99247,-0.3239 -4.48603,-8.27082 -4.16213,-11.26329z" stroke-width="NaN"/></g><path d="M202.29447,57.49634c-0.05451,-8.15261 8.18688,-36.76129 40.20201,-36.9211c31.60235,-0.15775 39.85672,29.48704 39.84884,36.89673c-0.05736,34.62977 -10.0012,3.23952 -10.0012,3.23952c0,0 0.07549,-3.0993 -2.81625,-3.15415c-3.43441,-0.06514 -2.94538,3.11562 -2.94538,3.11562l0.20548,233.48857l-13.8813,0.01861c0,0 0.21589,-117.83923 -1.38705,-120.78745c-1.39677,-2.56902 -15.74072,-3.02726 -17.44438,0.38226c-1.38152,2.76483 -1.66921,120.43134 -1.66921,120.43134l-13.83171,0.02746l-0.30539,-233.85171c0,0 0.27949,-2.919 -2.8856,-2.93443c-3.11083,-0.01515 -2.81569,2.90899 -2.81569,2.90899l0.30585,202.41004l-9.87984,0.19394c0,0 -0.57906,-187.49907 -0.69918,-205.46423z" fill="#ffffff" stroke="#000000" stroke-width="2" stroke-linecap="butt"/><path d="M251.70056,190.18133c0,0 -5.7036,0.55803 -9.35738,0.68936c-3.65377,0.13133 -8.08701,-0.06232 -8.08701,-0.06232l1.37933,0.92403c0,0 -0.21669,13.39057 -0.68062,21.94242c-0.46393,8.55183 -1.22172,21.02415 -1.22172,21.02415c0,0 -5.35889,1.59658 -7.93692,1.68824c-2.44955,0.0871 -7.16553,-1.15122 -7.16553,-1.15122c0,0 -0.42435,-8.9643 -0.63825,-20.54023c-0.13599,-7.35937 0.01439,-15.7743 -0.06214,-23.61243c-0.09072,-9.29111 -0.399,-17.77175 -0.44692,-22.72307c-0.08258,-8.53185 0.30881,-19.75313 0.30881,-19.75313c0,0 4.82167,-1.60752 9.99322,-1.26618c4.89872,0.32333 10.67217,1.57171 14.58206,1.55703c3.86945,-0.01453 9.61427,-1.2906 14.58028,-1.6423c5.4901,-0.38882 10.65332,0.759 10.65332,0.759c0,0 0.40433,11.73522 0.33242,20.55586c-0.03362,4.12464 -0.28132,11.83877 -0.29976,19.18391c-0.01948,7.75913 0.18789,15.24909 0.05527,23.16466c-0.22677,13.53594 -0.8023,24.71884 -0.8023,24.71884c0,0 -4.10221,1.13046 -6.38287,0.97725c-2.63419,-0.17696 -8.51504,-1.97805 -8.51504,-1.97805c0,0 -0.44941,-13.52092 -0.95691,-22.34953c-0.5075,-8.82863 -0.8211,-21.00743 -0.8211,-21.00743z" fill="#ab0000" stroke="#bd0000" stroke-width="2" stroke-linecap="butt"/><g><g><path d="M386.24524,311.34442l12.45512,-52.33667l12.73502,3.03069l-10.64606,44.73497l-2.37359,4.83731l-1.52137,-6.35942l0.0486,7.77991l-1.78452,-5.42699l-0.33479,5.34356l-2.10567,-6.39731l-1.91056,5.96585l-0.50233,-5.76047z" fill="#a2a2a2" stroke="none" stroke-width="0" stroke-linecap="butt"/><path d="M394.31823,273.44581l14.62534,3.48056" fill="none" stroke="#7a7a7a" stroke-width="4" stroke-linecap="round"/><path d="M396.491,265.28465l14.62535,3.48056" fill="none" stroke="#7a7a7a" stroke-width="4" stroke-linecap="round"/><path d="M404.74266,292.45543l-14.62537,-3.48055" fill="none" stroke="#7a7a7a" stroke-width="4" stroke-linecap="round"/><path d="M392.29005,280.81374l14.62534,3.48056" fill="none" stroke="#7a7a7a" stroke-width="4" stroke-linecap="round"/><path d="M388.04765,297.31519l14.62535,3.48056" fill="none" stroke="#7a7a7a" stroke-width="4" stroke-linecap="round"/></g><g stroke="none" stroke-width="0.5" stroke-linecap="butt"><path d="M372.99947,277.5428c-0.09903,-0.18289 0.12726,-0.23525 0.12726,-0.23525l0.08787,-0.02033c0.76811,-0.17754 1.93852,-0.18565 2.54711,-0.58606c0.91912,-0.60471 0.1829,-2.42905 0.39391,-3.26439c0.42103,-0.82339 2.34105,-0.53142 3.43825,-0.72589c1.64563,-0.2917 3.75126,-1.20741 5.19705,-1.83306c0.7162,-1.31976 0.16333,-2.29908 0.49217,-3.63677c0.29418,-1.19674 1.17284,-2.06855 1.4602,-3.28847c0.51233,-2.175 -0.12778,-4.21216 1.79395,-5.98866c0,0 0.14735,-0.1362 0.34558,-0.00339c0.19826,0.13281 0.05092,0.26901 0.05092,0.26901c-1.85818,1.71775 -1.2074,3.73035 -1.70389,5.83817c-0.30256,1.28445 -1.77294,2.54451 -1.614,3.89729c0.15629,1.33024 0.29488,1.98041 -0.43669,3.18583c-1.54765,0.73373 -4.04738,1.75331 -5.90012,1.99485c-0.7123,0.09287 -2.45225,-0.08574 -2.64525,0.43492c-0.2544,0.99311 0.54973,2.66752 -0.51729,3.41939c-0.63952,0.45062 -1.87716,0.46146 -2.70384,0.65302l-0.08788,0.02033c0,0 -0.22629,0.05237 -0.32532,-0.13052z" fill="#0015ff"/><path d="M382.43373,286.72258c-0.2432,-0.05787 -0.20007,-0.2391 -0.20007,-0.2391l0.0857,-0.36014c0.18616,-0.78143 0.49115,-1.62936 1.05563,-2.26681c0.69611,-0.7756 1.90123,-1.26323 2.55765,-2.01253c1.02728,-1.17257 0.52437,-3.05355 0.26544,-4.43485c-0.47443,-2.63486 2.33689,-4.71156 1.05674,-7.28265c-0.81419,-2.152 -0.17717,-5.34906 3.76186,-4.44854c0,0 0.2432,0.05787 0.20008,0.2391c-0.04313,0.18122 -0.28634,0.12334 -0.28634,0.12334c-3.56315,-0.89267 -3.89037,2.20288 -3.20926,4.0095c1.32915,2.66453 -1.51633,4.67727 -1.03404,7.35606c0.27706,1.47813 0.76105,3.42917 -0.3334,4.67844c-0.66245,0.75616 -1.86342,1.23358 -2.55987,2.01504c-0.53679,0.59315 -0.81359,1.40732 -0.98806,2.13968l-0.0857,0.36011c0,0 -0.04312,0.18121 -0.28633,0.12333z" fill="#ff0000"/><path d="M392.16387,292.68152c-0.08029,0.17007 -0.31388,0.0848 -0.31388,0.0848l-0.47257,-0.1758c-1.85807,-1.35529 -2.47182,-1.95477 -2.03708,-3.78161c0.49921,-2.09766 2.15906,-4.84439 4.09105,-6.3064c1.05775,-2.42087 0.27965,-4.88486 0.85792,-7.3364c0.46957,-1.97314 1.06702,-4.74053 3.77524,-5.36877c0,0 0.22628,-0.05237 0.32532,0.13052c0.09903,0.18289 -0.12727,0.23526 -0.12727,0.23526c-2.53463,0.58518 -3.04804,3.27472 -3.48688,5.11875c-0.5983,2.49016 0.23186,5.00204 -0.91505,7.45129c-1.88481,1.49201 -3.53523,4.09594 -4.03392,6.1915c-0.40167,1.68779 0.09683,2.08832 1.79314,3.3622l0.39067,0.13931c0,0 0.23359,0.08527 0.15329,0.25533z" fill="#ff0000"/><path d="M400.17735,294.36964c-0.24086,-0.06654 -0.18606,-0.24477 -0.18606,-0.24477l0.09485,-0.30185c0.62717,-0.86339 1.14032,-1.61466 1.98011,-2.38684c1.16338,-0.96165 2.29864,-1.9139 3.62007,-2.75056c0.16682,-0.10562 1.76448,-0.85638 1.76584,-0.86791c0.0677,-0.57488 -1.11502,-0.93643 -1.49864,-1.48119c-1.3099,-1.86595 -0.5232,-2.90801 -0.08349,-4.75571c0.17177,-0.7218 0.80842,-1.90221 0.18211,-2.61683c-1.1535,-1.38524 -4.95455,-5.3195 -2.54466,-6.45219c0,0 0.20247,-0.08722 0.34394,0.08185c0.14148,0.16906 -0.06098,0.25628 -0.06098,0.25628c-2.08298,0.7806 1.81611,4.919 2.66728,5.94041c1.79758,2.242 -1.82475,4.91105 -0.07643,7.4015c0.2064,0.29503 1.59192,1.46253 1.56445,1.69176c-0.02361,0.19693 -1.32907,0.74971 -1.55849,0.88989c-1.44738,0.88436 -2.67645,1.89781 -3.93217,2.93515c-0.80996,0.74523 -1.30221,1.45859 -1.90486,2.2912l-0.07727,0.25809c0,0 -0.05478,0.17823 -0.29564,0.11169z" fill="#ff0000"/><path d="M418.04437,297.35333c-0.24472,-0.05063 -0.21132,-0.23401 -0.21132,-0.23401l0.02552,-0.08502c-0.06954,-0.37557 -0.22092,-0.68072 -0.39426,-1.04551c-1.43194,-2.33742 -1.6027,-5.30598 -3.25597,-7.48353c-0.38298,-0.70521 -1.07877,-1.49456 -1.10566,-2.24485c-0.03822,-1.0666 0.74715,-1.51213 1.38654,-2.18781c0.45533,-0.48118 0.53269,-2.07613 0.52555,-2.70933c-2.89168,-2.7471 -1.18273,-4.60653 -0.5378,-7.35078c0.45103,-2.18525 -0.58823,-4.6317 -0.08872,-6.76673c0,0 0.04313,-0.18121 0.28633,-0.12333c0.24321,0.05787 0.20008,0.2391 0.20008,0.2391c-0.51423,2.12072 0.53978,4.58265 0.08974,6.76229c-0.66196,2.81752 -2.21491,4.3289 0.51019,7.14886c0.0602,0.74519 -0.03274,2.45752 -0.5703,3.04701c-0.58006,0.6361 -1.34392,0.97332 -1.30782,1.98107c0.02439,0.68049 0.70372,1.43384 1.0495,2.07452c1.63425,2.22885 1.82495,5.1401 3.27068,7.50845c0.18971,0.39785 0.35156,0.73579 0.43064,1.14582l-0.0248,0.19107c0,0 -0.03343,0.18339 -0.27815,0.13275z" fill="#0015ff"/><path d="M427.91374,291.69509c-0.04313,0.18122 -0.28634,0.12334 -0.28634,0.12334l-0.48373,-0.11512c-0.56138,-0.13618 -1.09273,-0.35573 -1.62355,-0.56866c-3.72377,-1.52163 -3.28177,-4.68742 -2.59634,-7.029c-1.57272,-1.95327 -2.95205,-5.23516 -3.29198,-7.42598c-0.35951,-2.33982 -1.03794,-4.48972 -0.5035,-6.73541c0,0 0.04313,-0.18121 0.28634,-0.12334c0.24321,0.05787 0.20008,0.2391 0.20008,0.2391c-0.52492,2.20574 0.1541,4.32462 0.50761,6.62538c0.35491,2.33472 1.8449,5.25182 3.28736,7.40217c-0.44061,2.19973 -1.38016,5.27424 2.29039,6.71438c0.49945,0.20044 1.00196,0.41289 1.5307,0.53913l0.48287,0.1149c0,0 0.2432,0.05787 0.20008,0.2391z" fill="#0015ff"/><path d="M409.07286,301.04284c-0.21639,-0.11312 -0.09729,-0.26608 -0.09729,-0.26608l0.00694,-0.00891c1.55754,-1.96346 0.71535,-5.22949 1.25024,-7.47714c0.54824,-2.30368 -0.47676,-5.48407 0.7667,-7.48706c1.52182,-2.81512 1.34976,-3.84199 -0.71933,-6.81537c-1.68582,-2.42625 -1.27252,-4.15395 -0.70333,-6.54562c0,0 0.04313,-0.18121 0.28633,-0.12333c0.24321,0.05787 0.20008,0.2391 0.20008,0.2391c-0.54975,2.31002 -0.98333,3.94556 0.64582,6.28675c2.13623,3.07473 2.32219,4.23914 0.74608,7.15095c-1.22144,1.95163 -0.19859,5.15252 -0.73591,7.41036c-0.55289,2.3232 0.26745,5.53737 -1.3039,7.58761l-0.00694,0.00892c0,0 -0.1191,0.15296 -0.33548,0.03984z" fill="#0015ff"/><path d="M401.66501,300.37603c-0.20293,0.08664 -0.34374,-0.08271 -0.34374,-0.08271l-0.13219,-0.15901c-1.19107,-1.43273 -3.12422,-3.56655 -3.10014,-5.16623c0.56816,-2.41106 1.47514,-4.7717 2.06589,-7.25404c0.23829,-1.0013 0.66356,-2.06301 0.58078,-3.12157c-0.10712,-1.37016 -1.46393,-2.87278 -1.88392,-4.25402c0.46352,-2.07037 0.61836,-4.57272 2.34127,-6.17142c0,0 0.14735,-0.1362 0.34558,-0.00339c0.19826,0.13281 0.05091,0.26902 0.05091,0.26902c-1.6753,1.5423 -1.73735,3.96011 -2.24405,5.94334c0.45687,1.37151 1.77134,2.86434 1.88276,4.23803c0.08861,1.09237 -0.34108,2.1827 -0.58693,3.21577c-0.58818,2.47155 -1.48368,4.82571 -2.06042,7.22365c-0.01573,1.49032 1.90127,3.56896 3.01412,4.90757l0.1322,0.15901c0,0 0.14079,0.16936 -0.06214,0.25601z" fill="#ff0000"/><path d="M390.70909,279.49487c-0.04313,0.18122 -0.28634,0.12334 -0.28634,0.12334l-0.47706,-0.11354c-0.33878,-0.08063 -0.67732,-0.16231 -1.01565,-0.24478c-1.28057,-0.6976 -0.96882,-1.02832 -1.41181,-1.94579c-0.23589,-0.48853 -1.0773,-0.93549 -1.43945,-1.42673c-0.9412,-1.27677 -0.71918,-2.53913 -0.41757,-3.80646c0.68898,-2.89512 -0.9872,-4.50875 -1.96864,-7.39721c-0.8389,-2.48074 -0.13437,-4.68723 3.09404,-5.43434c0,0 0.22629,-0.05237 0.32531,0.13051c0.09903,0.18289 -0.12726,0.23526 -0.12726,0.23526c-3.00836,0.69618 -3.5912,2.72436 -2.81486,5.02011c0.98992,2.94257 2.68368,4.59545 1.97781,7.56142c-0.22221,0.93372 -0.46523,1.875 -0.09454,2.87453c0.32674,0.88104 1.54809,1.37339 1.92425,2.15082c0.40891,0.84513 -0.02185,1.04934 1.1246,1.70198c0.31024,0.07167 0.62022,0.14451 0.93,0.21823l0.47706,0.11354c0,0 0.2432,0.05787 0.20007,0.2391z" fill="#ff0000"/><path d="M386.11847,286.13237c-0.11824,-0.17767 0.09859,-0.24568 0.09859,-0.24568l0.05236,-0.01642c0.59276,-0.18591 1.18452,-0.35022 1.80013,-0.49882c0.64227,-0.04203 1.22118,-0.40537 1.84492,-0.41258c1.52899,-0.01766 3.17032,1.09041 4.71029,1.2349c0.96842,0.09088 2.15813,-0.49255 3.06083,-0.67078c0.44131,-0.01129 1.41195,0.05025 1.71021,-0.23412c0.49208,-0.46915 0.46334,-2.07048 0.62089,-2.71016c0.27988,-1.13651 1.09482,-2.02883 1.97101,-2.89168c2.17471,-2.14152 3.67465,-3.67103 4.34481,-6.487c0.53736,-2.258 1.95078,-3.93044 3.28048,-5.87491c0,0 0.10829,-0.15834 0.33029,-0.0529c0.22199,0.10544 0.11372,0.26378 0.11372,0.26378c-1.3092,1.91449 -2.70913,3.55724 -3.23807,5.7798c-0.68238,2.86736 -2.21479,4.45107 -4.42689,6.6294c-0.83381,0.82105 -1.62621,1.66743 -1.88932,2.75097c-0.17304,0.7126 -0.14599,2.32033 -0.70653,2.85472c-0.38964,0.37148 -1.39329,0.33667 -1.97866,0.34903c-0.98137,0.19812 -2.13187,0.75577 -3.19474,0.67074c-1.51067,-0.12085 -3.15387,-1.24878 -4.63516,-1.23135c-0.57882,0.00681 -1.15326,0.36487 -1.76174,0.4059c-0.58704,0.14463 -1.15317,0.30265 -1.71994,0.4804l-0.05237,0.01642c0,0 -0.21685,0.06801 -0.3351,-0.10965z" fill="#0015ff"/><path d="M396.08287,281.76784c-0.17079,0.11868 -0.34923,-0.03 -0.34923,-0.03l-0.06929,-0.05773c-1.3527,-1.12909 -1.92564,-2.43031 -2.00567,-3.85736c0.18742,-0.80138 0.58607,-1.68328 0.6031,-2.51197c0.0078,-0.37962 -0.9571,-1.38062 -1.17072,-1.85232c-0.4583,-1.01196 -0.39347,-2.09281 -0.3789,-3.10587c0.52097,-2.21098 -0.78961,-4.55401 -0.28277,-6.68372c0,0 0.04313,-0.18121 0.28633,-0.12333c0.24321,0.05787 0.20007,0.2391 0.20007,0.2391c-0.50272,2.11246 0.81752,4.45286 0.28825,6.65324c-0.0082,0.83327 -0.07912,1.74316 0.18971,2.58684c0.23409,0.73467 1.32184,1.6712 1.36124,2.31545c0.0502,0.82026 -0.41278,1.77199 -0.60335,2.55758c0.08421,1.31463 0.60703,2.50742 1.85429,3.54499l0.06929,0.05773c0,0 0.17844,0.14868 0.00764,0.26736z" fill="#0015ff"/><path d="M404.67911,286.71596c-0.0781,-0.18688 0.15623,-0.22246 0.15623,-0.22246l0.3521,-0.05132c0.73836,-0.32717 1.40393,-0.4111 2.25674,-0.55085c0.77578,-0.05972 1.55204,0.33991 2.10989,0.31366c1.16084,-0.05464 1.80153,-0.57685 2.71776,-0.89772c1.3262,-0.46443 2.69235,-0.20272 3.66872,-1.21305c1.78129,-1.82822 -0.75226,-5.05983 0.38098,-7.35539c0.55406,-1.11594 3.91454,-4.90494 5.89185,-3.61649c0,0 0.19824,0.1328 0.05092,0.26901c-0.14734,0.1362 -0.34559,0.00339 -0.34559,0.00339c-1.45783,-1.01417 -4.71191,2.67135 -5.1324,3.51961c-1.17842,2.36268 1.45669,5.49 -0.43649,7.43306c-1.04528,1.06503 -2.43245,0.8075 -3.81883,1.30748c-0.92679,0.33423 -1.71065,0.9531 -2.93016,0.93026c-0.73719,-0.0138 -1.14106,-0.38418 -2.01843,-0.31763c-0.83509,0.13785 -1.44723,0.22174 -2.17191,0.53401l-0.41888,0.06572c0,0 -0.23433,0.03556 -0.31243,-0.15131z" fill="#ff0000"/><path d="M402.08558,292.47625c0.04313,-0.18122 0.28634,-0.12334 0.28634,-0.12334l0.16162,0.03847c0.49392,0.11768 0.9534,0.16417 1.45455,0.21998c3.52028,0.83319 5.93985,-1.24132 7.72408,-2.87812c2.19979,-1.84962 6.29981,-0.757 8.02273,-3.28223c1.27484,-1.86415 2.3236,-4.0447 4.04873,-5.63943c0,0 0.14734,-0.1362 0.34558,-0.00339c0.19826,0.13281 0.05092,0.26902 0.05092,0.26902c-1.70661,1.57763 -2.73978,3.74013 -4.00123,5.5847c-1.78281,2.60122 -5.8674,1.48442 -8.07844,3.34431c-1.93107,1.67852 -4.42902,3.86862 -8.15806,2.97591c-0.51438,-0.05594 -0.98652,-0.10846 -1.49444,-0.22815l-0.16231,-0.03863c0,0 -0.2432,-0.05787 -0.20008,-0.2391z" fill="#ff0000"/><path d="M385.03682,285.33361c-0.14734,0.13619 -0.34559,0.00339 -0.34559,0.00339l-0.27938,-0.18775c-1.14504,-0.59601 -3.39391,-1.77136 -3.70815,-2.88347c-0.19558,-0.69217 0.40847,-1.8568 0.54492,-2.53225c-0.36139,-1.45747 -1.81166,-2.99068 -1.96325,-4.43132c-0.10697,-1.01661 0.53244,-2.24246 0.74276,-3.22416c-0.00498,-2.45456 -0.7082,-5.49451 -0.16176,-7.83519c0.32834,-1.37971 0.64144,-2.80604 1.37085,-4.0627c0.29011,-0.49982 0.97597,-1.28079 0.45179,-1.84919c0,0 -0.14148,-0.16906 0.06099,-0.25628c0.20247,-0.08721 0.34395,0.08184 0.34395,0.08184c0.9266,1.18371 -1.41448,4.82937 -1.74117,6.20211c-0.56201,2.3121 0.17271,5.36851 0.16783,7.79957c-0.20123,0.95866 -0.84789,2.1767 -0.74274,3.16518c0.15269,1.43542 1.61589,2.98945 1.96463,4.45237c-0.46301,2.53024 -0.28554,3.41935 2.93552,5.08318l0.30788,0.20569c0,0 0.19824,0.1328 0.05092,0.26901z" fill="#ff0000"/><path d="M378.44732,281.6504c0.04313,-0.18122 0.28634,-0.12334 0.28634,-0.12334l0.26973,0.06854c1.78991,0.13198 3.51889,0.17175 5.29312,0.16763c1.63597,-0.13274 4.72097,0.02818 5.49531,-1.25988c0.46315,-0.77042 0.46321,-1.97552 0.66803,-2.83615c0.59385,-2.49541 3.00234,-4.04134 3.62293,-6.63869c0.73875,-1.85781 5.17996,-1.90358 6.79504,-3.40526c0,0 0.14733,-0.13619 0.34558,-0.00339c0.19826,0.13281 0.05092,0.26901 0.05092,0.26901c-1.50293,1.38207 -6.07343,1.62029 -6.71028,3.27417c-0.61475,2.59415 -3.02847,4.14371 -3.61776,6.6199c-0.21218,0.89161 -0.22005,2.11652 -0.70099,2.91654c-0.8664,1.44122 -4.01571,1.29607 -5.85722,1.44368c-1.79792,0.00588 -3.55191,-0.03508 -5.36598,-0.16883l-0.37467,-0.08482c0,0 -0.2432,-0.05787 -0.20008,-0.2391z" fill="#0015ff"/><path d="M396.56209,292.81067c-0.04313,0.18122 -0.28634,0.12334 -0.28634,0.12334l-0.53802,-0.13317c-2.2183,-1.46682 -0.94684,-2.57543 -0.54912,-4.2466c0.32934,-1.26909 -0.16579,-2.73849 0.32724,-4.12837c0.3702,-1.04364 1.24787,-1.84949 1.57829,-2.90161c0.83139,-2.64731 -0.26243,-4.77812 0.87789,-7.21494c0.63963,-0.82223 1.75042,-1.59294 2.2223,-2.47748c0.53884,-1.01003 0.50383,-2.06945 1.24159,-3.03599c0,0 0.11783,-0.15364 0.33491,-0.04142c0.21709,0.11223 0.09927,0.26584 0.09927,0.26584c-0.73647,0.95521 -0.67971,1.99145 -1.21493,2.99464c-0.47655,0.8933 -1.58226,1.6672 -2.2312,2.49301c-1.10931,2.40328 -0.02065,4.51448 -0.84865,7.151c-0.33233,1.05825 -1.21034,1.86492 -1.58152,2.91129c-0.50008,1.40979 -0.0282,2.78503 -0.3188,4.09976c-0.35389,1.48704 -1.62436,2.51478 0.25842,3.80471l0.42858,0.09686c0,0 0.24321,0.05788 0.20008,0.2391z" fill="#ff0000"/><path d="M406.57824,293.99058c-0.24321,-0.05787 -0.20008,-0.2391 -0.20008,-0.2391l0.08404,-0.35316c0.11571,-0.48624 0.23129,-0.97251 0.34763,-1.45861c0.84547,-2.00751 2.72586,-4.95771 0.94471,-7.09022c-3.10548,-1.97175 -3.2617,-4.58882 -3.69296,-7.27486c-0.71281,-2.26222 0.25913,-4.50447 0.76787,-6.64223c0,0 0.04313,-0.18122 0.28634,-0.12334c0.24321,0.05787 0.20007,0.23909 0.20007,0.23909c-0.49826,2.09377 -1.46112,4.29367 -0.7686,6.50739c0.43128,2.64934 0.54895,5.10162 3.55788,7.06428c1.94583,2.32098 0.11228,5.27535 -0.81522,7.45797c-0.11328,0.47888 -0.22738,0.95754 -0.34132,1.43627l-0.08404,0.35317c0,0 -0.04313,0.18122 -0.28634,0.12334z" fill="#0015ff"/><path d="M414.31737,294.83862c-0.07019,-0.18798 0.16662,-0.21725 0.16662,-0.21725l0.23674,0.00011c0.18935,-1.93921 0.11556,-4.83567 1.39298,-6.44462c0.71204,-0.88254 1.82272,-1.52104 2.60014,-2.35351c0.87281,-0.93462 0.82874,-3.03892 1.10963,-4.2116c0.38317,-1.59973 0.78331,-3.17922 1.9152,-4.51893c0.3344,-0.3958 1.22845,-0.71736 1.31341,-1.18957c0,0 0.04312,-0.18121 0.28634,-0.12334c0.2432,0.05787 0.20008,0.2391 0.20008,0.2391c-0.16012,0.58016 -0.97076,0.83138 -1.37501,1.30985c-1.10164,1.30389 -1.4809,2.84255 -1.8537,4.39904c-0.2986,1.24669 -0.26834,3.33414 -1.17991,4.34147c-0.75629,0.83574 -1.88445,1.45881 -2.5863,2.33742c-1.40409,1.72609 -0.80901,4.51098 -1.45446,6.50371l-0.46478,0.08682c0,0 -0.23681,0.02927 -0.30701,-0.15871z" fill="#ff0000"/><path d="M394.27802,299.18107c-0.24315,-0.05814 -0.19965,-0.23928 -0.19965,-0.23928l0.07646,-0.28421c0.8177,-0.70155 1.75375,-1.48937 2.19215,-2.41228c0.46279,-0.95267 1.29232,-2.04568 2.44206,-2.59788c0.55194,-0.26509 1.81286,-0.02991 2.40989,-0.31817c-1.33045,0.96169 -3.50384,1.25775 -4.38598,3.08901c-0.45328,0.92274 -1.35293,1.75813 -2.20927,2.44283l-0.03907,0.19699c0,0 -0.04348,0.18114 -0.28663,0.12301zM401.42505,293.15175c0.00113,-0.00152 0.00226,-0.00304 0.00336,-0.00457c0.32725,-0.44961 0.36958,-1.41771 0.37379,-1.96556c0.02898,-2.34764 1.86721,-4.9035 0.43483,-7.24611c-0.94069,-1.74421 -1.47206,-5.1718 -1.0731,-6.89929c0,0 0.04312,-0.18122 0.28634,-0.12334c0.24321,0.05787 0.20008,0.2391 0.20008,0.2391c-0.40016,1.6256 0.13644,5.01884 1.0342,6.66975c1.49065,2.43618 -0.36959,4.98223 -0.38835,7.4135c-0.01103,0.89066 -0.35486,1.47439 -0.87115,1.9165zM401.19895,293.32921c0.07845,-0.0567 0.15395,-0.11571 0.2261,-0.17748c-0.05564,0.07457 -0.13274,0.13242 -0.2261,0.17748z" fill="#0015ff"/></g><path d="M458.82811,208.0551c0.95272,0.19759 1.98799,1.68555 2.46394,2.70386l0.11347,-0.05356l0.21262,0.45033c0.02412,0.04997 0.03183,0.10825 0.018,0.16642c-0.01122,0.04717 -0.03514,0.08801 -0.06726,0.11978c0.01175,0.00565 0.02351,0.01128 0.03529,0.0169c0.51182,0.24463 1.47043,0.38855 2.06426,0.70031c0.09199,0.02287 0.18421,0.04536 0.27663,0.06739l0.00002,0v0l0.45711,0.10892v0c0.13429,0.03199 0.21721,0.16678 0.18526,0.30109c-0.03197,0.13432 -0.16677,0.2173 -0.30109,0.18532l-0.48641,-0.11575l0.00003,-0.00015c-0.13613,-0.03261 -0.27177,-0.06614 -0.40696,-0.10051c-0.64962,-0.08814 -1.28328,-0.28472 -1.90744,-0.54417c-0.23397,-0.07337 -0.46703,-0.1486 -0.69941,-0.22543c-0.0454,0.0883 -0.09159,0.17613 -0.13853,0.26352c-0.06897,0.17301 -0.1709,0.34792 -0.28972,0.51931c-0.58784,1.0174 -1.25947,1.98496 -1.90342,2.97049c-0.40879,0.62024 -1.06666,1.42355 -1.84783,2.26319c0.48,-0.10885 1.45089,-0.21034 1.54236,0.26466c0.08703,0.45188 -0.62617,0.56901 -1.3878,0.39036c-0.36072,0.1161 -0.71333,0.25079 -1.0576,0.40439c-0.09591,1.58468 0.06059,3.30006 -0.17946,4.59374c2.03427,-0.86019 0.8099,1.60391 1.19209,2.17279c0.36164,0.53828 -0.45143,4.0044 -1.05249,5.3371c3.07366,-1.2556 1.85719,1.88485 1.33205,4.09153c-0.08866,0.37261 -0.76622,2.03139 -0.74902,2.13859c0.04538,0.28255 0.63385,0.07276 0.80306,0.30353c0.42117,0.57436 -0.15253,1.31749 0.08148,1.92808c0.35607,0.92911 -0.92505,2.47552 -1.94077,1.76366c-0.39892,-0.27958 -0.28601,-0.98395 -0.64806,-1.30987c-0.1577,-0.42164 0.11611,-1.25833 -0.33117,-1.30929c-0.32725,-0.0373 -0.95165,0.94527 -1.37737,0.04406c-0.20444,-0.43277 0.79795,-1.12174 0.39523,-1.38042c-0.46873,-0.30108 -1.11877,0.12163 -1.67064,0.04549c-0.27428,-0.03785 -0.4355,-0.35782 -0.51485,-0.76257c-0.09095,0.92065 -0.07525,1.88396 0.10222,2.71857c0.08079,0.74671 1.52639,2.0885 0.66293,2.88121c-1.14393,1.05025 -5.24422,-2.1455 -6.58263,-2.46512c-3.20561,-1.15163 -6.42439,-2.70004 -9.84093,-3.08292c-3.07373,0.28569 -7.26127,-1.24972 -10.21859,-2.1572c-3.36916,-1.03469 -6.67358,-2.09668 -9.94041,-3.42532c-3.27642,-1.33257 -6.30987,-2.8464 -9.30755,-4.71808c-3.27558,-2.04518 -5.53515,-3.2036 -9.26677,-4.09211c-3.74244,-0.89109 -6.41931,-2.02697 -9.30239,-4.60885c-0.90235,-0.80931 -1.25791,-2.30675 -2.39652,-2.86451c-0.84614,-0.4145 -1.34837,0.72181 -2.13181,0.70916c-1.41801,-0.02289 -2.23088,-1.40901 -3.24612,-1.58386c-0.71884,-0.18609 -2.25575,0.09675 -2.86751,-0.51625c-0.47231,-0.47327 0.04613,-1.08068 0.05497,-1.57507c0.01223,-0.68319 -0.7226,-1.11279 -1.11837,-1.51528c-0.11724,-0.11923 -1.38509,0.0395 -2.25683,0.04919l-0.05603,0.23546l-0.48641,-0.11575v0c-0.13432,-0.03197 -0.2173,-0.16677 -0.18534,-0.30108c0.01432,-0.0602 0.04933,-0.11008 0.09566,-0.14394l0.3878,-0.28721c0.08583,-0.11397 -0.36062,-2.99013 0.16105,-3.96268c0.88767,-1.65487 2.76862,-0.05149 3.62743,-1.43825c1.39496,-1.22291 2.64641,-1.14459 4.45352,-1.58874c0.40715,-0.10007 1.41183,-0.95078 1.21473,-1.45633c-0.09211,-0.23627 -2.21958,-0.7813 -2.57326,-0.90062c-0.24816,-0.08386 -1.52975,-0.32683 -1.60341,-0.55418c-0.13055,-0.40297 1.18045,-1.49509 1.44918,-1.719c1.67693,-1.39727 3.81649,-2.5758 4.342,-4.78404c0.19754,-0.83008 0.34826,-1.73332 0.52538,-2.63322c-0.37468,-0.93121 -0.37294,-2.20269 -0.21886,-2.90396c0.51136,-2.31375 2.03107,-4.4404 3.76167,-6.24028c-1.52219,-0.34174 -3.38451,-0.90751 -3.4532,-1.86321c-0.0885,-1.23116 4.14997,-1.12653 4.9762,-1.19901c0.61201,-0.02723 1.22216,-0.0525 1.83142,-0.07355c1.12635,-1.12327 2.67167,-2.68097 3.74107,-2.81396c0.25949,-1.68458 0.67951,-3.41949 1.31443,-3.77077c0.90507,-0.50074 1.64511,0.90118 2.04681,1.90877c0.14689,-0.4638 0.29307,-0.85102 0.36704,-1.04969c0.27998,-0.75194 2.2648,-4.77721 3.47365,-3.31217c0.17693,0.21442 0.23464,0.67305 0.21025,1.22657c0.39357,-0.49669 0.83624,-0.83945 1.31663,-1.0638c-0.00729,-0.0112 -0.01451,-0.02241 -0.02172,-0.03369c-1.71615,-2.68283 0.71047,-3.21079 2.82297,-2.51032c0.84328,0.27962 2.77963,1.27313 4.29077,2.29126c0.83926,0.03045 1.71106,0.07394 2.58474,0.16217c-0.00418,-0.02996 -0.00296,-0.0612 0.00447,-0.09239c0.03196,-0.13432 0.16677,-0.2173 0.30108,-0.18533c1.29711,0.30868 2.99855,0.71359 4.29566,1.02229c0.70729,0.16833 2.30063,0.76041 3.80743,1.15203c0.42871,0.07515 0.8733,0.16942 1.31914,0.28346c0.55403,0.08634 1.04526,0.1085 1.40863,0.02471c-1.04102,-1.16904 -2.30391,-2.88812 -1.33627,-3.42275c0.83522,-0.46146 4.31674,2.21576 5.04147,2.6806c0.13456,0.0863 0.26395,0.17641 0.38887,0.26978c2.58976,0.46036 5.4126,0.95549 7.35365,2.22566c0.91088,0.65117 4.43862,4.1708 3.03374,5.68007c0.37104,0.22753 0.74117,0.35044 1.09463,0.28305c1.05396,-0.20095 0.07795,-5.83677 2.72299,-3.22748c1.30392,1.67833 2.58572,3.65443 3.38621,5.62391c0.09647,0.23736 0.69734,2.06215 0.87664,2.08674c0.39461,0.0541 0.56777,-0.56073 0.82171,-0.86762c1.54049,-2.75795 1.77939,-0.08897 1.70406,1.76331c-0.0068,0.16721 -0.49805,1.66053 -0.45115,1.70353c0.46718,0.42832 2.58612,0.55682 3.27013,0.73551c2.47481,1.00104 3.722,2.68587 3.69226,5.3137c-0.00716,0.63345 0.79854,0.10796 1.03214,0.555c0.10461,0.20018 -0.31089,1.60779 -0.37374,1.90335c0.01285,0.08598 0.02117,0.17354 0.02539,0.26248c0.05182,0.02609 0.10334,0.05237 0.15452,0.07885c0.24542,0.12701 1.86544,0.6761 1.92654,0.84189c0.29723,0.80655 -1.7394,1.77857 -2.93715,2.40777c-0.07823,0.21049 -0.15153,0.41376 -0.21438,0.60691c-0.12442,0.38232 -0.23046,0.72008 -0.56373,0.98677c-0.20358,0.16292 -0.98269,0.20979 -0.73109,0.27826c1.54944,0.42163 1.97609,0.66208 3.18759,1.70491c0.17778,0.40312 0.88008,2.92053 0.76002,3.12239c-0.41154,0.69192 -2.00119,1.42119 -3.44319,1.92543c-0.00367,0.04035 -0.0082,0.08101 -0.01372,0.12196c-0.04861,0.36102 -0.40159,0.54561 -0.81298,0.6674c0.45491,0.10826 0.90978,0.21651 1.36466,0.32475c0.0293,0.00702 0.05812,0.01413 0.0864,0.02133c0.70779,-0.14546 1.30547,-0.449 2.03523,-1.24661l0.16104,-0.43204c0.04228,-0.11859 0.16798,-0.18879 0.29327,-0.15898c0.13408,0.0319 0.217,0.16629 0.18552,0.30038c0,0.00003 -0.00002,0.00006 -0.00002,0.00009l-0.08488,0.36133c0.06457,0.3506 0.15536,0.66034 0.2716,0.94236z" fill="#000000" stroke="none" stroke-width="0.5" stroke-linecap="butt"/><path d="M371.39593,210.67106c0,0 7.36685,-4.33408 7.69211,-5.14659c0.51673,-1.2908 3.8053,-15.29736 14.20267,-24.58537c6.76799,-6.04586 16.54807,-10.09242 30.53641,-7.33114c43.63514,9.44518 29.64759,43.22017 30.51131,50.45836c1.18426,9.92466 1.96096,18.35279 1.96096,18.35279c0,0 -2.21655,-2.63836 -3.24328,-3.99334c-0.95763,-1.26378 -2.96984,-3.94046 -2.96984,-3.94046c0,0 0.61138,10.78261 -3.5159,20.43622c-3.71484,8.8617 -11.08749,15.06788 -11.08749,15.06788l-0.58038,-2.55103c0,0 -1.50375,1.90146 -2.87295,2.74212c-1.36923,0.84064 -4.01965,2.03747 -4.01965,2.03747l0.76803,-3.62487c0,0 -9.41912,9.0841 -26.20601,4.93862c-15.80409,-4.02367 -22.89171,-16.42113 -22.89171,-16.42113l-0.72768,2.55581c0,0 -3.02663,-4.10499 -3.76607,-10.87489c-0.88131,-8.06894 -0.31694,-12.66059 -0.31694,-12.66059c0,0 -2.71521,1.30603 -6.20402,1.37545c-4.37169,0.08697 -6.83786,-1.27237 -6.83786,-1.27237c0,0 4.139,-1.80805 6.53655,-3.34753c2.13555,-1.37123 3.35656,-2.67275 3.35656,-2.67275c0,0 -2.30145,0.5673 -4.49234,0.59404c-2.28595,0.02792 -4.04352,-0.41652 -4.04352,-0.41652c0,0 6.00596,-3.74866 9.35728,-8.95113c3.16419,-4.91198 4.57946,-10.1735 4.57946,-10.1735c0,0 -1.47784,0.32841 -3.42375,0.00255c-1.23344,-0.20656 -2.30192,-0.59808 -2.30192,-0.59808z" fill="#000000" stroke="none" stroke-width="1.5" stroke-linecap="butt"/><path d="M385.18188,225.76092c1.12708,-7.22869 56.12622,6.26208 54.53635,11.59685c-1.72269,5.41758 -4.66377,8.65509 -5.96341,11.45101c-1.29966,2.79591 -1.81921,5.87507 -5.85972,15.09316c-2.52155,5.75273 -6.11495,7.71867 -13.14141,11.94285c-7.02645,4.2242 -10.94996,6.90528 -14.81815,6.05563c-3.72261,-0.81766 -7.5121,-7.03038 -11.15311,-13.32662c-3.87707,-6.70449 -6.67119,-10.30148 -5.94647,-16.9777c0.65268,-6.01264 1.53854,-9.81911 2.43808,-15.09398c0.65742,-3.85527 -0.70764,-6.79343 -0.09211,-10.74117z" fill="url(#color-1)" stroke="#000000" stroke-width="1.5" stroke-linecap="butt"/><path d="M435.36922,221.99065c0,0 1.40923,0.66232 3.88313,2.0654c2.2596,1.28157 3.92471,2.72674 3.92471,2.72674l-0.08116,1.18373c0,0 -6.32803,-4.72333 -14.13315,-5.90301c-6.24078,-0.94322 -10.34361,0.42936 -10.34361,0.42936l1.01151,-4.05275c0,0 3.43706,-0.93385 8.07961,0.0154c4.80732,0.98295 7.73415,2.44835 7.73415,2.44835z" data-paper-data="{&quot;index&quot;:null}" fill="#000000" stroke="none" stroke-width="1.5" stroke-linecap="butt"/><path d="M405.17322,260.59609c-1.00567,-0.23933 -2.68714,-3.99096 -2.44206,-6.09465c0.2193,-1.88223 2.16562,-3.41951 4.57005,-2.84731c2.40445,0.57222 3.97432,1.45028 2.95078,5.00772c-0.86863,3.01911 -2.67437,4.50644 -5.0788,3.93425z" fill="#ffffff" stroke="#000000" stroke-width="1.15" stroke-linecap="butt"/><path d="M415.64461,232.15394c0,0 -0.81924,3.88566 -1.64432,6.93434c-1.63377,6.0369 -7.47912,26.75609 -7.47912,26.75609l-2.90265,-0.6819c0,0 0.18493,-4.24525 1.10665,-9.50173c1.24762,-7.11508 3.33484,-15.95461 3.80247,-19.27564c0.44328,-3.14804 0.45141,-5.7667 0.45141,-5.7667" fill="#ffffff" stroke="#000000" stroke-width="1.3" stroke-linecap="round"/><path d="M389.60371,226.14828c1.20153,-4.74254 6.77573,-7.57316 11.98475,-6.25344c5.20902,1.31972 7.79841,6.22292 6.59687,10.96548c-1.20153,4.74254 -6.04753,7.60079 -11.25653,6.28108c-5.20902,-1.31972 -8.52663,-6.25056 -7.32509,-10.99314z" fill="url(#color-2)" stroke="#000000" stroke-width="1.4" stroke-linecap="butt"/><path d="M389.78075,226.77727c1.09183,-4.30955 5.4705,-6.91799 9.78001,-5.82616c4.30955,1.09184 6.91799,5.4705 5.82616,9.78002c-1.09185,4.30956 -5.47048,6.918 -9.78001,5.82617c-4.30955,-1.09183 -6.91799,-5.4705 -5.82616,-9.78002z" fill="#000000" stroke="none" stroke-width="1.5" stroke-linecap="butt"/><path d="M415.92474,232.41295c1.32968,-4.70824 6.38254,-7.58694 11.5559,-6.35579c5.17336,1.23116 8.10435,6.00552 6.97168,10.765c-1.13267,4.75949 -5.88035,7.92497 -11.55261,6.64789c-5.39534,-1.2147 -8.36364,-6.14005 -6.97499,-11.0571z" fill="url(#color-3)" stroke="#000000" stroke-width="1.4" stroke-linecap="butt"/><path d="M395.41215,216.69227c0,0 3.69921,-0.98946 8.34249,-0.36017c5.14533,0.69734 7.57253,1.73399 7.57253,1.73399l-0.67084,4.09339c0,0 -3.57374,-1.55014 -7.67947,-2.36326c-5.49087,-1.08743 -6.79608,-0.1444 -11.0395,-0.68318c-3.63599,-0.46166 -6.59096,-1.40525 -6.59096,-1.40525l0.25994,-1.20408c0,0 3.48037,0.90431 5.10734,1.14519c1.34285,0.19881 4.08487,0.00785 4.08487,0.00785z" fill="#000000" stroke="none" stroke-width="1.5" stroke-linecap="butt"/><path d="M419.18761,232.19733c1.09183,-4.30955 5.4705,-6.91799 9.78001,-5.82617c4.30955,1.09183 6.91798,5.47051 5.82615,9.78003c-1.09183,4.30956 -5.47049,6.91799 -9.78002,5.82616c-4.30955,-1.09183 -6.91798,-5.47051 -5.82615,-9.78004z" fill="#000000" stroke="none" stroke-width="1.5" stroke-linecap="butt"/><path d="M404.55645,234.29344c0.00282,-0.01522 0.00542,-0.0311 0.00777,-0.04761c0,0 0.05787,-0.2432 0.30109,-0.18532c0.2432,0.05787 0.18532,0.30109 0.18532,0.30109c-0.1159,0.39511 -0.26806,0.57252 -0.46419,0.65058c-0.05588,0.24502 -0.11429,0.48936 -0.17247,0.73385c-0.22672,0.95271 -0.06218,1.89557 -0.46434,2.79779c-0.25985,0.58298 -1.23495,0.93717 -1.29271,1.56535c-0.06256,0.6805 0.64638,1.06594 0.48012,1.855c0.01101,0.97074 -1.21793,5.7769 -2.86155,4.79126c-0.22554,-0.13525 -0.05425,-2.43554 0.00285,-2.67544c0.13178,-0.55374 0.35204,-1.13966 0.40898,-1.70464c0.03253,-0.32271 -0.16503,-1.28681 -0.11835,-0.96584c0.29798,2.04857 -1.87937,1.86436 -1.6938,0.96953c-0.02709,0.01619 -0.05481,0.03243 -0.0832,0.04877c-1.71709,2.86788 -1.51823,0.08393 -0.95175,-1.81628c0.17265,-0.57915 -1.6892,-0.38702 -1.80118,0.20687c-0.2589,1.08794 -1.99595,6.50364 -3.22122,3.36199c-0.16291,-0.41771 0.30642,-1.75726 0.30244,-2.28471c0.19187,-0.81407 1.00022,-1.91395 0.79704,-2.78678c-0.15758,-0.67699 -1.12166,-1.65742 -1.37044,-2.25762c-0.24418,-0.58909 -0.794,1.07721 -1.38288,1.32192c-1.01186,-1.76574 0.10848,-2.20652 -0.03916,-3.77446c-0.06454,-0.68551 -0.99924,-0.6206 -0.66172,-1.52931c0.30812,-0.82954 0.7111,-1.86232 1.75792,-1.61317c0.61968,0.15567 0.96048,0.85769 1.33532,1.37511c0.93421,1.28954 4.23254,0.69048 5.44039,2.00009c1.846,0.94536 2.69875,0.29481 4.52056,-0.05298c0.23208,-0.04431 0.48142,0.05358 0.6803,0.05902l0.13436,-0.22098c0,0 0.0834,-0.13439 0.22443,-0.12306z" fill="#7d2727" stroke="none" stroke-width="0.5" stroke-linecap="butt"/><path d="M417.65719,237.77541l0.0006,0.34108c0.17675,0.09851 0.44647,0.11074 0.62592,0.28761c1.40865,1.38835 1.81007,2.63428 3.92367,2.45518c1.74837,-0.96166 4.31482,1.51454 5.81339,0.43273c0.60128,-0.43407 1.27043,-1.11175 1.89444,-0.97429c1.04685,0.24912 0.85296,1.72427 0.68365,2.90091c-0.18548,1.28896 -0.96823,0.71534 -1.38713,1.5189c-0.95817,1.83798 -0.21194,2.96909 -2.03016,4.59175c-0.38538,-0.61041 0.01514,-2.9374 -0.50983,-2.34665c-0.53488,0.6019 -1.89607,1.29018 -2.3918,2.03414c-0.63912,0.95915 -0.51413,2.73068 -0.77689,3.82695c-0.28237,0.64244 -0.58045,2.52756 -0.94376,2.95187c-2.73237,3.19121 -1.38701,-4.34537 -1.03805,-5.81176c0.21615,-0.78493 -1.30982,-2.00429 -1.46514,-1.20525c-0.50963,2.62166 -1.80792,6.12883 -1.7924,1.71626c-0.0162,-0.035 -0.03183,-0.0695 -0.04697,-0.10361c-0.31095,1.19163 -2.31172,0.26536 -0.96796,-2.08045c0.21054,-0.36755 -0.47196,0.70612 -0.61419,1.1177c-0.24895,0.72054 -0.36626,1.553 -0.5439,2.29938c-0.07695,0.32336 -1.14362,3.22492 -1.41229,3.27093c-1.95799,0.33534 -0.4908,-6.1877 0.03215,-7.36812c0.27193,-1.05216 1.09546,-1.14832 1.40062,-2.01297c0.28169,-0.79817 -0.3834,-1.74664 -0.30228,-2.59643c0.12554,-1.31517 0.76795,-2.38033 1.07355,-3.66446c0.07843,-0.32955 0.15656,-0.65904 0.23727,-0.98799c-0.13016,-0.1991 -0.16935,-0.49636 -0.06172,-1.04049c0,0 0.078,-0.32781 0.32121,-0.26992c0.2432,0.05787 0.1652,0.38569 0.1652,0.38569c-0.00667,0.02144 -0.01279,0.04219 -0.01838,0.06229c0.12929,0.06071 0.13111,0.26906 0.13111,0.26906z" data-paper-data="{&quot;index&quot;:null}" fill="#7d2727" stroke="none" stroke-width="0.5" stroke-linecap="butt"/><path d="M375.68825,210.62075c0.2129,-0.13106 0.34394,0.08185 0.34394,0.08185l0.10424,0.186c0.04456,-0.02726 0.10491,-0.04128 0.1857,-0.02206c0.2432,0.05787 0.18534,0.30108 0.18534,0.30108c-0.00895,0.03762 -0.01775,0.07676 -0.02645,0.11737c0.57429,0.24735 1.81217,0.25028 2.15095,0.74075c0.91723,1.3278 -0.90974,2.93913 -0.97884,3.97205c-0.1624,1.80542 -2.44086,3.94832 -3.42953,5.42956c-0.6216,0.9313 -0.53617,2.26873 -1.57787,2.92293c-0.39885,0.56181 -1.95297,1.31169 -2.33371,0.11367c-0.26269,-0.8265 1.78922,-3.75983 2.19982,-4.57666c0.1055,-0.20983 -0.42014,-1.55771 -0.05253,-2.40086c0.68449,-0.71989 1.1001,-0.28075 1.75704,-0.6092c0.29471,-0.14734 0.40979,-1.35343 0.59524,-1.65115c0.87038,-1.39714 0.82988,-2.33071 1.11509,-3.7441c-0.09678,-0.09632 -0.17511,-0.22336 -0.22804,-0.39193l-0.09225,-0.1254c0,0 -0.13106,-0.2129 0.08185,-0.34394z" fill="#7d2727" stroke="none" stroke-width="0.5" stroke-linecap="butt"/><path d="M443.77244,199.59901c0.05787,-0.24321 0.30108,-0.18533 0.30108,-0.18533l0.34665,0.22455c0.12066,1.28453 0.76555,2.67933 0.34864,4.34234c-0.64443,0.76933 -2.23854,2.37178 -2.6465,3.26746c-0.7266,1.59528 -0.42571,3.4909 -0.91008,5.04473c-0.1983,0.32277 -0.67819,1.42453 -1.21762,1.30245c-0.60394,-0.13668 0.06077,-1.47937 -0.12214,-1.86179c-0.43806,-0.91581 -1.7697,-1.18899 -2.19885,-2.02617c-0.68072,-1.32798 1.3183,-2.71462 2.18989,-3.23872c0.63818,-0.38376 1.70038,-0.5644 2.24091,-1.00117c0.81275,-0.65674 0.94896,-4.12286 1.7449,-5.42063c0,0 0.05054,-0.08146 0.13947,-0.11219c-0.01846,-0.06133 -0.03696,-0.1221 -0.05545,-0.18231l0.02443,0.14788c0,0 -0.2432,-0.05787 -0.18534,-0.30107z" fill="#7d2727" stroke="none" stroke-width="0.5" stroke-linecap="butt"/><path d="M417.48142,184.81186c0.07927,-0.09462 0.22541,-0.26908 0.30467,-0.3637c1.82421,-2.05563 2.39252,2.58567 2.36725,3.5239c-0.00591,0.21939 -0.15239,1.0378 -0.0248,1.20014c0.68358,0.8697 2.12573,0.45141 2.67153,1.95684c-0.49935,2.29125 -1.43127,3.80627 -2.24005,5.87214c-0.45215,1.15493 -0.20004,2.77511 -1.32125,3.46526c-1.27844,-0.24467 -3.07808,-2.66281 -2.42826,-4.11651c0.59496,-1.33092 2.46321,-2.08807 1.91599,-3.57276c-1.42264,-2.46028 -2.93547,-5.48865 -1.65863,-8.26519c0,0 0.10446,-0.22713 0.33157,-0.12269c0.22713,0.10446 0.12269,0.33157 0.12269,0.33157c-0.01394,0.03029 -0.02749,0.06064 -0.04069,0.09098z" fill="#7d2727" stroke="none" stroke-width="0.5" stroke-linecap="butt"/><path d="M449.08003,244.18265c0.07386,0.01756 0.11994,0.05225 0.14832,0.092c0.04324,-0.0227 0.10002,-0.03291 0.17386,-0.01533c0.2432,0.05787 0.18534,0.30107 0.18534,0.30107c-0.047,0.19748 -0.09561,0.39415 -0.14568,0.59013c2.62585,0.7759 0.03495,7.24409 -0.91687,8.79393c-0.37584,0.59628 -1.57229,5.12152 -3.10508,3.42379c-0.46611,-0.51628 1.04292,-3.98345 1.20576,-4.66731c0.70305,-2.39743 1.56095,-4.76069 2.22047,-7.24493c-0.01048,-0.00337 -0.02107,-0.00665 -0.0317,-0.00987c-0.05244,-0.17914 -0.10489,-0.35829 -0.15733,-0.53745l0.1218,-0.54073c0,0 0.05787,-0.2432 0.30108,-0.18534z" fill="#7d2727" stroke="none" stroke-width="0.5" stroke-linecap="butt"/><g stroke="none" stroke-width="0" stroke-linecap="butt"><path d="M444.09022,241.5899l1.33869,-41.81191l3.86886,3.29217l-1.23735,38.64685z" fill="#404040"/><path d="M387.12344,247.61752l-29.74502,-22.00529l-0.59538,-5.64065l32.43024,24.82107z" fill="#404040"/><path d="M451.29077,242.81701c-0.00426,0.13294 -0.43169,3.55587 -1.54335,7.42044c-0.40278,1.4002 -0.96671,2.83203 -1.51414,4.2302c-1.53526,-1.14403 -4.56786,-1.71427 -5.78355,-1.97252c-1.2896,0.57432 -1.68453,1.57206 -2.70511,2.22507c-0.53983,0.34541 -1.68808,0.2988 -2.47918,0.43414c-5.20088,-4.16946 -12.56045,-8.43609 -21.10876,-8.70978c-10.86561,-0.3479 -20.66597,6.58733 -25.89701,10.79905c-2.26385,1.82272 4.12833,7.22037 4.12833,7.22037c0,0 -8.69544,-6.56995 -9.33107,-9.8083c-0.3355,-1.70926 -1.87794,-3.66935 -2.24479,-5.55487c-0.92753,-4.76714 -0.62825,-9.25881 -0.62064,-9.49666c0.07804,-2.43801 14.55979,-2.61877 34.24784,-1.98842c19.68808,0.63036 34.92947,2.76325 34.85141,5.20127z" fill="#ababab"/><path d="M435.8435,265.64467c0,0 0.99231,-0.59729 2.12859,-1.49911c-0.04621,0.18485 -0.09647,0.37184 -0.14972,0.55982c-1.17531,0.58092 -1.97886,0.93929 -1.97886,0.93929z" fill="#ababab"/><path d="M384.37568,254.7175c0,0 -1.68285,-2.87093 -2.08555,-5.31756c-0.45119,-2.74133 -0.60301,-5.99602 -0.65368,-6.8116c-0.08655,-1.39286 0.41934,-3.95331 0.41934,-3.95331c0,0 22.89428,-5.38859 35.7072,-5.34893c16.41339,0.05084 33.53729,9.23344 33.53729,9.23344c0,0 -0.39386,3.12408 -0.67768,4.33951c-0.13934,0.5967 -1.50768,4.88596 -2.38311,7.61325c-1.53326,-1.14713 -4.57242,-1.71857 -5.78978,-1.97716c-1.25409,0.55849 -1.66213,1.51745 -2.62223,2.17035c-6.88525,-1.75225 -16.8644,-4.01542 -23.30102,-4.25515c-10.61716,-0.39544 -32.15081,4.30716 -32.15081,4.30716z" fill="#565656"/><path d="M437.79615,284.71674c0,0 -15.85735,14.17584 -21.23864,17.08585c-1.41957,0.76765 -3.07238,0.58418 -3.07238,0.58418c0,0 -2.18206,-0.21161 -3.99741,-1.51408c-1.69582,-1.21672 -4.17865,-3.48968 -6.80879,-6.05929c0.33099,0.01133 0.66579,0.01745 1.00556,0.01572l-0.00356,0.01513l0.48671,0.11414c0.00004,0 0.00006,0.00001 0.00009,0.00002c0.13405,0.03143 0.26838,-0.05148 0.30029,-0.18552c0.02599,-0.10922 -0.024,-0.21875 -0.11581,-0.27306l-0.41936,-0.26155c-1.41307,-0.88129 -2.80772,-1.77898 -4.18231,-2.71912c-0.58589,-0.39753 -2.51007,-2.04324 -2.65473,-2.72561c-0.20802,-0.98115 1.9577,-1.35461 2.14873,-2.43382c0.18033,-1.01865 -1.3824,-1.75286 -2.02239,-2.34592c-0.44192,-0.40952 -1.50899,-0.56819 -1.38755,-1.15832c0.10085,-0.49 1.54934,-1.58781 1.90007,-2.13562c1.08246,-1.69072 0.72935,-3.36312 2.30064,-4.72692c0.96383,-0.83727 3.55124,-5.00399 1.89924,-6.08044c-0.94261,-0.6142 -2.85657,-0.69086 -3.9594,-0.95332c-2.68396,-0.63873 -5.36795,-1.27745 -8.05191,-1.9162l-0.05078,-14.63745l-5.78529,-23.13659l27.8273,-8.03141c0.19074,0.12367 0.42157,0.22175 0.69772,0.29007c1.67012,0.41096 4.76035,1.69651 6.95571,1.8219c-1.18473,0.74648 -2.39416,1.87719 -3.3047,2.45952c-0.2546,0.16282 -1.31756,0.8059 -1.28982,1.1567c0.08194,1.03604 2.07505,0.65887 2.62725,0.60017c0.36057,-0.07484 1.93923,-0.59839 2.23875,-0.26658c0.77258,0.85587 0.39447,2.24251 2.35666,2.25528c1.64332,0.01071 2.32506,-2.20502 3.17731,-3.2134c0.63708,-0.7606 1.32247,-2.09602 2.22422,-2.52641c0.04731,-0.02258 0.09406,-0.04456 0.14025,-0.066l21.74918,7.7053l-7.19763,21.11684c-1.16408,0.58306 -1.56773,1.52414 -2.54473,2.14925c-0.6289,0.40241 -2.08358,0.27277 -2.83728,0.51856c-1.27666,0.41634 -1.01163,3.12073 -0.45846,4.00635c0.40223,0.62248 1.60452,1.63121 1.75156,2.32194c0.39414,1.8512 -1.22505,5.38062 -1.65754,7.23581c0.04873,1.13101 0.74357,1.74687 0.88058,2.83887c0.2824,2.25087 0.20551,3.83544 1.45087,5.25196z" fill="#d6d6d6"/><path d="M402.73324,294.07501c-0.29152,-0.0376 -0.59356,-0.05195 -0.87127,-0.06452c-0.47766,-0.47207 -0.95794,-0.95122 -1.43714,-1.43303c0.76359,0.50878 1.53316,1.00653 2.30842,1.49756z" fill="#d6d6d6"/><path d="M389.7651,253.52422c0,0 -1.12814,-6.1529 -2.0271,-9.87213c-1.04287,-4.31458 -3.86813,-14.32891 -3.86813,-14.32891l27.86876,-8.21622c0.21925,0.18632 0.50633,0.3298 0.87357,0.42065c1.67013,0.41096 4.76037,1.6965 6.95572,1.82189c-1.18473,0.74648 -2.39417,1.8772 -3.30472,2.45952c-0.25459,0.16282 -1.31755,0.80588 -1.28981,1.15669c0.08194,1.03604 2.07504,0.65887 2.62725,0.60016c0.36056,-0.07484 1.93923,-0.59838 2.23874,-0.26657c0.77259,0.85586 0.39449,2.24252 2.35666,2.25527c1.64332,0.01071 2.32507,-2.20503 3.17731,-3.2134c0.63708,-0.7606 1.32247,-2.09602 2.22422,-2.5264c0.21474,-0.10251 0.41776,-0.19265 0.61041,-0.27589l21.6334,7.72971c0,0 -3.67615,9.79457 -5.09403,14.01511c-0.68322,2.0337 -1.53393,5.05942 -2.12917,7.24685c-0.05939,-0.01242 -0.11563,-0.02423 -0.16844,-0.03545c-1.00917,0.44943 -1.47047,1.15815 -2.11244,1.75805l-24.40248,-15.98772z" fill="#7e7e7e"/><path d="M448.02783,232.85656l-7.48173,21.19262c-0.23775,0.24119 -0.49058,0.4721 -0.80149,0.67104c-0.6289,0.40241 -2.08359,0.27277 -2.83726,0.51854c-1.27666,0.41634 -1.01163,3.12073 -0.45846,4.00635c0.40222,0.62249 1.60452,1.63121 1.75156,2.32194c0.39414,1.8512 -1.22505,5.38062 -1.65754,7.23581c0.04873,1.13101 0.74356,1.74687 0.88057,2.83887c0.13958,1.1125 0.19138,2.06221 0.35846,2.90934l-1.12794,8.4009c0,0 -21.29589,17.84241 -21.33027,17.86784c-0.89968,0.66529 -2.67929,0.32062 -3.0571,0.01884c-1.36753,-1.09233 -8.97154,-7.92068 -14.59439,-12.9898c0.59936,-0.43272 1.4554,-0.82882 1.5723,-1.48913c0.18033,-1.01865 -1.38239,-1.75287 -2.02239,-2.34592c-0.44192,-0.40951 -1.50899,-0.56818 -1.38755,-1.15831c0.10084,-0.48999 1.54934,-1.58781 1.90007,-2.13563c1.08246,-1.69072 0.72935,-3.36312 2.30063,-4.72692c0.96383,-0.83727 3.55123,-5.004 1.89925,-6.08044c-0.94259,-0.6142 -2.85657,-0.69087 -3.9594,-0.95332c-2.26208,-0.53834 -4.52416,-1.07666 -6.78626,-1.61501l-0.25692,-14.26979l-5.4529,-22.82078l27.64164,-8.58808c1.73655,0.50523 4.45888,1.57041 6.44718,1.68397c-1.18473,0.74648 -2.39417,1.8772 -3.30471,2.45952c-0.2546,0.16282 -1.31755,0.80589 -1.28981,1.1567c0.08193,1.03605 2.07505,0.65887 2.62725,0.60016c0.36056,-0.07484 1.93922,-0.59839 2.23874,-0.26657c0.77259,0.85586 0.39449,2.24252 2.35667,2.25527c1.64332,0.01071 2.32507,-2.20503 3.17731,-3.2134c0.4495,-0.53667 0.92305,-1.35949 1.47969,-1.94867z" fill="#3e0000"/><path d="M390.97118,252.86673l-5.48195,-22.97289l27.26086,-8.33115c1.69792,0.44427 4.68154,1.66485 6.81779,1.78684c-1.18473,0.74648 -2.39416,1.87719 -3.30471,2.45951c-0.25459,0.16282 -1.31756,0.80589 -1.28981,1.15669c0.08194,1.03604 2.07505,0.65888 2.62725,0.60016c0.36056,-0.07484 1.93923,-0.59839 2.23874,-0.26657c0.77259,0.85586 0.39449,2.24252 2.35666,2.25528c1.64332,0.01071 2.32507,-2.20503 3.17731,-3.2134c0.4942,-0.59004 1.01751,-1.526 1.64833,-2.11705l21.12687,8.39045l-8.20247,21.82012l-24.65618,-6.95925z" fill="#1e0000"/><path d="M411.60183,248.08539c-0.18264,5.70402 -4.84283,10.18358 -10.40885,10.00537c-5.56603,-0.17821 -9.93012,-4.9467 -9.7475,-10.65072c0.18264,-5.70402 4.84283,-10.18357 10.40884,-10.00537c5.56603,0.17821 9.93012,4.94669 9.7475,10.65071z" fill="#770000"/><path d="M439.81418,248.84563c-0.07658,2.39174 -0.94041,4.56821 -2.32816,6.27627c-0.21576,0.02734 -0.41396,0.06311 -0.57869,0.11683c-0.51315,0.16733 -0.77722,0.70436 -0.87361,1.34432c-1.8109,1.48829 -4.12828,2.348 -6.62839,2.26794c-5.56603,-0.17821 -9.93012,-4.9467 -9.7475,-10.65072c0.18264,-5.70402 4.84281,-10.18358 10.40884,-10.00538c5.56603,0.17821 9.93013,4.9467 9.74751,10.65072z" fill="#770000"/><path d="M409.40836,244.98177c-0.20029,6.25604 -3.83069,11.2165 -8.10869,11.07952c-4.27802,-0.13696 -7.58366,-5.31951 -7.38335,-11.57553c0.20029,-6.25603 3.8307,-11.2165 8.10868,-11.07951c4.27802,0.13697 7.58366,5.31951 7.38335,11.57553z" fill="#1e0000"/><path d="M437.6962,245.55399c-0.20029,6.25604 -3.83069,11.21649 -8.10869,11.07951c-4.27801,-0.13695 -7.58366,-5.31949 -7.38336,-11.57554c0.20029,-6.25603 3.8307,-11.21652 8.1087,-11.07953c4.27801,0.13696 7.58367,5.31952 7.38335,11.57553z" fill="#1e0000"/><path d="M428.27151,284.12058c0,0 -5.87541,-3.43979 -14.63844,-3.72034c-8.76302,-0.28057 -15.10033,2.89325 -15.10033,2.89325c0,0 6.76316,-8.66301 15.52618,-8.38246c8.76302,0.28057 14.21258,9.20953 14.21258,9.20953z" fill="#770000"/></g><path d="M415.9835,143.05988c0.08409,-0.23543 0.31953,-0.15134 0.31953,-0.15134l0.49767,0.18574c1.56554,1.05971 2.07822,2.05883 1.95871,3.83515c-0.08141,1.02106 0.46058,1.88455 0.53438,2.83892c0.15273,1.97531 -0.04537,5.48751 1.72834,6.80689c2.94456,2.21353 5.08425,4.52667 7.69261,7.00987c2.51516,2.39449 5.79318,3.78058 8.8607,5.37114c0.84726,0.36001 2.1231,0.67438 2.76602,1.36775c1.08617,1.17137 -0.27801,6.40322 -1.44751,7.33586c-0.52636,0.62276 -0.27299,1.74621 -0.81925,2.30778c-0.52443,0.53913 -1.45571,0.06994 -2.10322,0.12849c-1.99015,0.17998 -3.98032,0.31214 -5.97491,0.43183c-1.8947,0.36005 -6.85798,2.27392 -8.49652,0.93748c-0.57309,-0.46743 -0.22537,-1.27123 -0.67731,-1.86423c-1.74201,-2.33631 -7.09432,-1.54772 -9.7659,-1.90925c-3.83355,-0.90984 -6.37079,-1.08011 -10.19131,-0.05152c-1.01546,-0.0722 -5.05757,-0.14115 -5.62896,-1.13265c-0.76761,-1.332 1.48508,-3.79947 2.06363,-4.65304c0.72668,-1.05643 1.58129,-2.88006 2.55598,-3.62741c1.65694,-1.27052 3.57066,-1.36704 4.7274,-3.25158c0.61639,-0.98862 1.84398,-1.54022 2.39102,-2.5029c1.06506,-1.8743 0.91836,-4.73932 0.94793,-6.77649c0.18716,-0.63935 0.15542,-1.25398 0.98584,-1.34501c1.03751,-0.11374 3.38841,1.39557 4.31113,0.85958c0.29096,-0.169 0.73211,-1.29448 1.04508,-1.61315c0.64728,-0.65912 1.00126,-0.87349 0.46825,-1.79945c-0.36016,-0.71728 -1.42614,-2.77711 -0.94301,-3.58734c0.8324,-1.396 2.5727,-2.40261 2.99402,-4.25605c0,0 0.02865,-0.12046 0.13041,-0.17163c-0.12081,-0.09024 -0.25104,-0.18107 -0.39124,-0.27328l-0.38811,-0.13064c0,0 -0.23545,-0.08409 -0.15135,-0.31952z" fill="#000000" stroke="none" stroke-width="0.5" stroke-linecap="butt"/></g><g stroke="#000000"><g stroke-width="2"><path d="M280.39504,155.83681c0,0 90.11351,-30.40486 101.48709,-34.13006c0.92107,-0.30168 3.35757,-1.49041 6.08702,-0.54054c4.0238,1.40031 9.25196,5.8785 9.25196,5.8785l-7.30652,3.86589l-105.76488,34.41063z" fill="#ffffff" stroke-linecap="butt"/><path d="M282.19539,66.95868l5.71806,89.20334l-14.81887,0.34086l-0.90339,-89.45404z" fill="#ffffff" stroke-linecap="butt"/><path d="M298.83327,160.48574c0,0 -20.84174,8.45423 -23.14203,5.33076c-3.18951,-4.33092 -2.80669,-9.82245 -2.7834,-14.48511c0.02721,-5.44854 0.00964,-9.76459 0.00964,-9.76459" fill="#ffffff" stroke-linecap="round"/><path d="M284.39735,155.76163c0,0 2.11451,-1.67463 3.39986,-2.19464c1.0463,-0.4233 3.58841,-1.2288 3.58841,-1.2288" fill="none" stroke-linecap="round"/><path d="M287.83409,153.25656l-0.79158,-10.5088" fill="none" stroke-linecap="round"/></g><path d="M419.05627,132.16679l6.93611,4.36045l5.11926,10.65709l-7.10293,-7.40444l-12.47168,-2.94379l8.80644,5.30628l8.23036,12.19562l-12.37749,-9.47662l-14.37745,-4.10692l-2.07485,4.16685l12.01072,6.91212l9.85474,-0.95993l-11.01183,5.26086l-14.70634,-7.456l-7.55411,-10.8333c0,0 1.19712,-4.56611 0.7494,-4.77208c-1.26301,-0.5811 -6.10604,-4.87043 -6.4122,-5.01127c0.61882,-0.83608 1.44068,-2.11123 1.74554,-2.49357l0.49532,-3.86866c1.26615,0.58818 -0.09667,-0.7638 1.68001,-0.76217c1.03565,0.00095 5.41914,1.25773 6.01424,1.53418c1.8674,0.86745 13.71671,-0.95149 13.71671,-0.95149l12.08171,5.02357l10.14434,6.02132l4.43526,9.71994l-6.1205,-7.78619z" data-paper-data="{&quot;index&quot;:null}" fill="#ffffff" stroke-width="2" stroke-linecap="butt"/><path d="M391.85194,128.84074c-0.29062,1.4438 0.29337,2.77921 -2.3235,2.25245c-2.61688,-0.52676 -9.14865,1.53085 -8.85802,0.08704c0.29062,-1.4438 0.04982,-9.34051 2.6667,-8.81375c1.20379,0.24232 1.09301,-0.86611 3.07189,-0.3929c0.9676,0.23139 2.93016,0.32566 4.07732,1.44206c1.60682,1.56377 1.45719,4.97019 1.36562,5.42507z" fill="#ffffff" stroke-width="0" stroke-linecap="butt"/></g><g fill="#000000" stroke="none" stroke-linecap="butt"><g data-paper-data="{&quot;index&quot;:null}"><path d="M200.23059,-15.1617c0,0 8.02241,-4.014 8.37821,-4.81561c0.93318,-2.10244 10.03714,-38.89952 48.60081,-30.20928c47.42811,11.52428 32.26419,45.03226 33.18489,52.34838c1.26243,10.03152 2.08547,18.53972 2.08547,18.53972c0,0 -2.40368,-2.75523 -3.51677,-4.16503c-1.03817,-1.31491 -3.21955,-4.09917 -3.21955,-4.09917c0,0 -0.66254,9.64826 1.32797,19.07397c1.81154,8.57818 0.5027,19.40115 0.5027,19.40115c0,0 -8.88538,-15.89762 -12.05127,-16.93816c-2.96306,-0.97387 -6.37594,10.88167 -6.37594,10.88167c0,0 -1.64016,1.84143 -3.13129,2.62276c-1.49115,0.78132 -4.37652,1.86113 -4.37652,1.86113l0.84451,-3.60807c0,0 -10.26638,8.69329 -28.51116,3.74532c-17.1763,-4.77983 -24.85215,-17.57165 -24.85215,-17.57165l-0.79789,2.53528c0,0 -3.28088,-4.2672 -4.06764,-11.10681c-0.93772,-8.15202 -0.31222,-12.74137 -0.31222,-12.74137c0,0 -0.95714,5.60061 -4.75132,5.50809c-4.75436,-0.11593 -10.11038,7.66332 -10.11038,7.66332c0,0 6.8482,-11.45956 9.45945,-12.89552c2.32588,-1.27905 1.99318,-6.37045 1.99318,-6.37045c0,0 -2.50423,0.46319 -4.88687,0.38816c-2.486,-0.07827 -4.39616,-0.60678 -4.39616,-0.60678c0,0 6.54096,-3.48882 10.19881,-8.56252c3.45357,-4.7904 5.00615,-10.01352 5.00615,-10.01352c0,0 -1.60797,0.26138 -3.72326,-0.1567c-1.34082,-0.26499 -2.50175,-0.70828 -2.50175,-0.70828z" data-paper-data="{&quot;index&quot;:null}" stroke-width="1.5"/><path d="M299.73966,-14.6054c0,0 -1.18932,-0.17462 -2.4435,-0.59184c-1.9786,-0.65821 -3.20249,-1.66409 -3.20249,-1.66409c0,0 -1.22252,5.30989 -0.63931,11.16158c0.6177,6.19776 4.42316,12.40667 4.42316,12.40667c0,0 -1.85973,-0.46259 -3.98528,-1.59671c-2.03716,-1.08694 -3.91611,-2.70248 -3.91611,-2.70248c0,0 0.51255,1.73621 1.8471,3.97759c1.49831,2.51638 4.49612,6.11401 4.49612,6.11401c0,0 -2.96567,-0.00267 -7.01432,-2.20107c-3.23102,-1.75442 -5.13956,-4.21988 -5.13956,-4.21988c0,0 -1.69449,4.30831 -6.42494,10.97014c-3.96888,5.58934 -8.78805,7.72702 -8.78805,7.72702l0.55622,-2.59882c0,0 -12.63316,7.45252 -29.36926,3.31671c-17.71474,-4.50586 -22.13138,-17.05938 -22.13138,-17.05938l-1.03596,3.55774c0,0 -1.90078,-2.33809 -2.77509,-3.7413c-0.87431,-1.40322 -1.361,-3.80379 -1.361,-3.80379l-1.77792,1.9597c0,0 -3.89475,-9.03156 -3.08135,-18.62086c0.81079,-10.48532 6.6022,-19.66249 6.6022,-19.66249c0,0 -3.17854,1.37514 -4.68638,2.0207c-1.61664,0.69215 -4.96784,1.9344 -4.96784,1.9344c0,0 4.80642,-7.02821 10.71862,-15.17349c3.64747,-5.02515 5.50647,-34.01195 33.84208,-34.40087c2.94477,-0.04041 31.16097,-3.55467 31.16097,-3.55467c0,0 -14.81974,7.46235 -11.81537,8.31471c4.70085,1.42194 31.69114,7.49883 31.69114,7.49883c0,0 -6.03117,4.81553 -7.41104,11.13455c-0.74204,3.39819 2.38167,7.89388 2.83719,10.81736c1.605,10.30091 -0.80304,19.32441 -0.91526,20.4244c-0.08893,0.87178 4.70659,8.25564 4.70659,8.25564z" stroke-width="1.5"/><path d="M259.53939,64.12371c0,0 -2.92555,5.92616 -5.56754,8.69635c-7.81787,8.19722 -23.94456,21.99029 -23.94456,21.99029c0,0 13.15217,-23.75028 16.08781,-32.89373c2.63029,-8.19238 -12.49263,5.70202 -12.49263,5.70202c0,0 14.77848,-21.08926 22.98239,-37.88055c2.34658,-4.80281 -0.52973,-6.49797 -0.52973,-6.49797c0,0 4.85804,-1.66774 9.9938,-5.53408c4.90259,-3.69081 10.02659,-9.61363 12.72236,-8.59891c12.52959,4.7163 0.85557,11.10518 -2.36379,22.46578c-2.95457,10.4261 -2.18687,21.41099 -2.18687,21.41099c0,0 1.06217,9.11964 -0.76048,13.34821c-1.49888,3.47742 -8.13133,8.51252 -11.59804,13.57122c-3.25525,4.75016 -3.40102,9.64292 -3.40102,9.64292z" stroke-width="0"/><path d="M192.09267,80.70912c0,0 0.95349,-15.02021 0.45531,-20.75716c-0.53054,-6.10957 -3.8291,-13.75557 -3.42394,-17.52052c0.49268,-4.57822 5.90266,-11.99632 5.90266,-11.99632c0,0 6.07091,-9.18699 8.62606,-19.7181c2.78418,-11.47501 -4.23828,-22.77924 8.99079,-20.72353c2.84626,0.44229 4.39482,8.11936 6.84833,13.7441c2.57019,5.89226 5.97988,9.73359 5.97988,9.73359c0,0 -3.3381,0.06139 -3.65701,5.39728c-1.11498,18.65499 -4.84431,50.92096 -4.84431,50.92096c0,0 -0.10909,-26.17077 -1.84802,-17.74407c-1.94081,9.405 -17.99811,41.69734 -17.99811,41.69734c0,0 8.57032,-25.08548 5.79477,-36.06773c-0.93798,-3.71139 -0.5707,-10.31012 -0.5707,-10.31012z" data-paper-data="{&quot;index&quot;:null}" stroke-width="0"/></g><g><path d="M295.80731,2.1637c0,0 -1.24147,0.05487 -2.59749,-0.11613c-2.13927,-0.26977 -3.58296,-1.02452 -3.58296,-1.02452c0,0 -0.17237,5.44627 1.59574,11.08088c1.8727,5.96784 6.98107,11.34006 6.98107,11.34006c0,0 -1.97938,-0.10032 -4.3634,-0.80941c-2.28489,-0.67959 -4.51558,-1.90829 -4.51558,-1.90829c0,0 -1.9201,4.72718 -0.11577,6.67398c2.02573,2.18565 4.91403,15.21933 4.91403,15.21933c0,0 -2.63185,-9.07069 -7.18052,-10.45881c-3.63004,-1.10777 -2.7736,-6.72466 -2.7736,-6.72466c0,0 -0.85252,4.55264 -4.31127,11.99387c-2.90191,6.24323 -7.36029,9.25921 -7.36029,9.25921l0.04166,-2.65754c0,0 -11.31565,9.72138 -29.12307,8.84527c-18.87447,-1.05323 -25.87846,-12.53869 -25.87846,-12.53869l-0.33546,3.69036c0,0 -2.39811,-1.934 -3.5671,-3.14539c-1.16897,-1.21141 -2.1453,-3.47584 -2.1453,-3.47584c0,0 0.4968,-12.32699 -2.62218,-12.33643c-3.33249,-0.01008 -16.77472,12.27776 -16.77472,12.27776c0,0 2.16827,-10.684 6.5906,-18.25433c4.85925,-8.31829 7.27075,-17.68379 7.27075,-17.68379c0,0 -2.9476,1.95505 -4.34722,2.87582c-1.50063,0.98724 -4.65007,2.84469 -4.65007,2.84469c0,0 3.46214,-7.81541 7.8213,-16.93805c3.17919,-6.65328 -0.65347,-43.23249 47.98983,-39.22455c39.33743,3.90433 36.38243,41.69554 36.60555,43.98492c0.08507,0.8729 6.43392,7.21035 6.43392,7.21035z" data-paper-data="{&quot;index&quot;:null}" stroke-width="1.5"/><path d="M201.19244,-28.66474c0,0 6.87794,-5.49656 7.06825,-6.35195c0.24011,-1.0793 0.79816,-10.40191 5.56731,-19.67228c1.35353,-2.63103 5.73475,-5.91334 6.10132,-9.37224c0.68162,-6.43191 -3.52486,-12.90259 -3.52486,-12.90259c0,0 27.53017,2.73764 32.43958,2.86943c3.1199,0.13776 -8.59337,-11.61427 -8.59337,-11.61427c0,0 25.67132,12.22645 28.45336,13.19275c26.7695,9.29797 19.39974,37.39383 21.2779,43.31233c3.04433,9.59332 5.39122,17.77804 5.39122,17.77804c0,0 -2.78903,-2.23496 -4.10521,-3.40128c-1.22759,-1.0878 -3.81088,-3.39448 -3.81088,-3.39448c0,0 2.60454,10.53458 0.06999,20.74121c-2.24974,9.35709 -8.79202,16.70126 -8.79202,16.70126l-1.06982,-2.42011c0,0 -1.21834,2.12493 -2.49028,3.18115c-1.27194,1.05622 -3.81263,2.67622 -3.81263,2.67622l0.1379,-3.70292c0,0 -8.1474,10.52224 -26.37949,9.21643c-17.18673,-1.34862 -26.82791,-12.40231 -26.82791,-12.40231l-0.29101,2.6417c0,0 -3.90004,-3.54735 -5.90547,-10.10258c-2.39025,-7.81306 -2.64081,-12.43585 -2.64081,-12.43585c0,0 -2.58819,1.73844 -6.20745,2.38536c-4.53513,0.81062 -7.35056,-0.12135 -7.35056,-0.12135c0,0 3.97875,-2.46971 6.19365,-4.38576c1.97286,-1.70666 3.00639,-3.19291 3.00639,-3.19291c0,0 -2.29229,0.94116 -4.56818,1.33078c-2.37463,0.40656 -4.28539,0.25957 -4.28539,0.25957c0,0 5.56809,-4.69347 8.10731,-10.38084c2.39743,-5.36979 2.91039,-10.7944 2.91039,-10.7944c0,0 -1.47851,0.56897 -3.5637,0.57017c-1.32175,0.00077 -2.5055,-0.20829 -2.5055,-0.20829z" stroke-width="1.5"/><path d="M207.52971,83.18195c0,0 1.40344,-4.68942 -0.18916,-10.22335c-1.69602,-5.89338 -6.40399,-12.76192 -6.73072,-16.5345c-0.39733,-4.58747 3.48443,-12.90781 3.48443,-12.90781c0,0 4.19003,-10.18336 4.67138,-21.00931c0.5245,-11.79628 -8.54157,-21.5383 4.83584,-22.06612c2.87818,-0.11356 5.8748,7.12217 9.36461,12.16979c3.6558,5.2877 7.74081,8.40129 7.74081,8.40129c0,0 -3.26392,0.70245 -2.55032,6.00001c2.49486,18.52099 9.87498,43.19272 9.87498,43.19272c0,0 -9.9742,-17.95195 -10.05943,-9.34809c-0.09513,9.60267 4.90303,36.2874 4.90303,36.2874c0,0 -10.95876,-18.17207 -15.79532,-28.41516c-1.63448,-3.46159 -2.54357,-10.00772 -2.54357,-10.00772z" stroke-width="0"/><path d="M274.09457,60.83749c0,0 -1.73075,6.3783 -3.79045,9.60503c-6.09478,9.54814 -5.86579,36.05626 -5.86579,36.05626c0,0 -5.06359,-35.70705 -3.9419,-45.24447c1.00502,-8.54535 -7.34522,16.25776 -7.34522,16.25776c0,0 6.62803,-31.79731 11.44824,-49.85327c1.37873,-5.16455 -1.76998,-6.27467 -1.76998,-6.27467c0,0 4.44644,-2.57121 8.7424,-7.35339c4.10093,-4.56506 7.98973,-11.36305 10.83036,-10.8859c13.20288,2.21765 2.9761,10.73312 2.00253,22.50087c-0.89347,10.79976 1.97322,21.43173 1.97322,21.43173c0,0 2.79685,8.74493 1.82178,13.24517c-0.80186,3.70082 -6.34171,9.91787 -8.77042,15.54902c-2.28057,5.28769 -6.10869,19.84315 -6.10869,19.84315z" data-paper-data="{&quot;index&quot;:null}" stroke-width="0"/></g></g><path d="M257.68499,71.45052c-0.57113,0 -1.03411,-0.46299 -1.03411,-1.03411c0,-0.57113 0.46299,-1.03413 1.03411,-1.03413c0.57113,0 1.03411,0.463 1.03411,1.03413c0,0.57113 -0.46299,1.03411 -1.03411,1.03411z" fill="#000000" stroke="none" stroke-width="1.5" stroke-linecap="butt"/><path d="M202.16052,135.44708v-12.51362h10.26543v12.51362z" fill="url(#color-4)" stroke="none" stroke-width="0" stroke-linecap="butt"/><path d="M273.94372,134.87543l-1.66667,-12.51362h12.76543l1.66667,12.51362z" fill="url(#color-5)" stroke="none" stroke-width="0" stroke-linecap="butt"/><g fill="#ff0000" stroke="none" stroke-width="0" stroke-linecap="butt"><path d="M243.53507,138.50259c-6.16833,21.49702 -14.8096,59.80186 -17.96988,57.93185c-3.16028,-1.87 0.35718,-43.20672 6.52551,-64.70374c6.16833,-21.49702 7.15955,-15.32568 10.31983,-13.45567c3.16028,1.87 7.29287,-1.26946 1.12454,20.22756z"/><path d="M246.8993,137.41869c-1.03135,23.20325 -1.28955,66.01479 -4.70066,65.70213c-3.41111,-0.31266 -8.68341,-43.63115 -7.65206,-66.83439c1.03135,-23.20325 3.35084,-17.81651 6.76196,-17.50384c3.41111,0.31267 6.62212,-4.56714 5.59077,18.63611z"/><path d="M238.14895,138.7208c-3.33181,4.90998 -6.52218,11.18733 -9.42762,17.51098c-6.94814,15.12256 -12.26672,30.50987 -13.9929,28.09435c-1.69102,-2.36635 -5.99301,-58.16284 -2.49901,-63.31185c11.29957,-16.65183 27.67361,-5.093 30.1216,-1.66739c2.44799,3.4256 7.09749,2.7221 -4.20208,19.37393z"/><path d="M250.69056,132.02534c6.22726,21.46194 8.58914,63.29908 5.43401,65.18696c-3.15512,1.88788 -10.63247,-36.88843 -16.85973,-58.35036c-6.22726,-21.46194 -2.487,-18.106 0.66814,-19.99388c3.15513,-1.88788 4.53032,-8.30465 10.75759,13.1573z"/><path d="M271.97688,119.2469c4.03293,5.05109 -2.12074,58.51321 -3.62485,60.98973c-2.24667,3.69916 -13.12152,-28.25753 -25.32342,-43.53995c-12.2019,-15.28242 -7.81347,-14.65215 -5.5668,-18.35131c2.24667,-3.69916 22.31317,-14.3809 34.51507,0.90153z"/></g><path d="M210.99575,132.64118v-12.51362h62.80621v12.51362z" fill="url(#color-6)" stroke="none" stroke-width="0" stroke-linecap="butt"/><path d="M199.96248,123.87213c0,0 -1.55359,-9.15336 -1.01141,-18.51251c0.29539,-5.09893 2.90509,-9.58202 2.8278,-14.23899c-0.10437,-6.28813 -2.58086,-11.01415 -2.5599,-11.73806c0.37892,-13.08713 -0.67182,-26.0603 5.26346,-38.16507c3.85447,-7.86102 23.11267,-22.85918 41.50144,-22.85595c16.41935,0.00289 32.44245,15.85416 35.89081,24.17141c5.23494,12.62633 4.26725,22.18684 4.11408,35.50337c-0.00061,0.05339 -2.38207,3.18274 -2.34459,7.78358c0.0336,4.12439 2.40211,3.49509 2.77366,8.82864c0.80674,11.58085 -0.05397,29.22359 -0.05397,29.22359z" fill="#610000" stroke="#000000" stroke-width="0" stroke-linecap="butt"/><path d="M252.42511,75.68613c-4.4635,-0.31439 -6.55245,-1.79392 -6.16985,-2.58011c0.11788,-0.24224 2.84645,1.06355 6.97038,1.3048c6.40897,0.37493 8.51033,-0.63173 8.51033,-0.63173v1.34616c0,0 -2.4135,1.04672 -9.31086,0.56089z" fill="#000000" stroke="#000000" stroke-width="0" stroke-linecap="butt"/><path d="M224.61236,70.41646c0,-0.57113 0.46299,-1.03413 1.03411,-1.03413c0.57113,0 1.03413,0.463 1.03413,1.03413c0,0.57113 -0.463,1.03411 -1.03413,1.03411c-0.57113,0 -1.03411,-0.46299 -1.03411,-1.03411z" fill="#000000" stroke="none" stroke-width="1.5" stroke-linecap="butt"/><path d="M230.90635,75.68613c-6.89736,0.48585 -9.31086,-0.56089 -9.31086,-0.56089v-1.34616c0,0 2.10136,1.00666 8.51033,0.63173c4.12393,-0.24126 6.85251,-1.54704 6.97039,-1.3048c0.3826,0.78618 -1.70634,2.26571 -6.16985,2.58011z" fill="#000000" stroke="#000000" stroke-width="0" stroke-linecap="butt"/><path d="" fill="#5a5a5a" stroke="none" stroke-width="0" stroke-linecap="butt"/><path d="" fill="#3f3f3f" stroke="none" stroke-width="0" stroke-linecap="butt"/><path d="" fill="#2a2a2a" stroke="none" stroke-width="0" stroke-linecap="butt"/><path d="" fill="#191919" stroke="none" stroke-width="0" stroke-linecap="butt"/><path d="" fill="#0c0c0c" stroke="none" stroke-width="0" stroke-linecap="butt"/><path d="" fill="#727272" stroke="none" stroke-width="0" stroke-linecap="butt"/><path d="" fill="#8a8a8a" stroke="none" stroke-width="0" stroke-linecap="butt"/><path d="" fill="#9e9e9e" stroke="none" stroke-width="0" stroke-linecap="butt"/><path d="M219.85011,-15.59663c-0.02913,-7.31597 1.61911,-17.08119 1.61911,-17.08119c0,0 3.4041,0.21437 14.11073,-2.09308c8.22551,-1.77274 21.20028,-7.92135 21.20028,-7.92135c0,0 -2.37909,2.83478 -3.73234,4.19235c-1.43867,1.44325 -4.32352,4.25103 -4.32352,4.25103c0,0 7.94091,-1.07577 14.9878,-3.61672c8.80916,-2.88395 11.01619,-5.24259 13.25808,-3.60967c2.64597,1.92724 -0.70947,23.19472 -1.43654,28.71369c-0.84514,5.62171 -3.23778,9.28322 -4.07938,12.24936c-0.8416,2.96614 -0.86815,6.0887 -3.40157,15.82937c-1.58103,6.07885 -4.81869,8.58781 -11.08952,13.86905c-6.27083,5.28125 -9.72147,8.54853 -13.67532,8.32068c-3.80504,-0.21927 -8.52849,-5.75524 -13.11851,-11.39717c-4.88761,-6.00775 -8.21493,-9.11815 -8.55408,-15.82501c-0.30545,-6.04024 -0.03209,-9.93886 0.02277,-15.28961c0.04009,-3.91072 -1.77203,-6.59633 -1.78795,-10.59171z" fill="#000000" stroke="#000000" stroke-width="1.5" stroke-linecap="butt"/><path d="M215.0647,-16.35706l2.31678,-30.84029l64.54432,4.8487l-2.31678,30.84029z" fill="#000000" stroke="#000000" stroke-width="1.9" stroke-linecap="butt"/><path d="M216.13337,-0.90101l1.25769,-16.74187l59.03713,4.43498l-1.25768,16.74188z" fill="url(#color-7)" stroke="#000000" stroke-width="0" stroke-linecap="butt"/><path d="M249.92186,-13.72359c0.72929,-6.22654 6.53988,-10.8919 13.335,-10.38143c6.79511,0.51047 11.47026,5.95808 11.00063,12.20959c-0.46962,6.25148 -5.83606,11.21795 -13.27169,10.75039c-7.07264,-0.4447 -11.82557,-6.07583 -11.06395,-12.57852z" fill="url(#color-8)" stroke="#000000" stroke-width="0" stroke-linecap="butt"/><path d="M253.87866,-13.39507c0.32206,-4.2871 4.0585,-7.50139 8.34559,-7.17933c4.2871,0.32206 7.50139,4.0585 7.17933,8.3456c-0.32205,4.28711 -4.05848,7.50139 -8.34559,7.17933c-4.2871,-0.32206 -7.50138,-4.05849 -7.17932,-8.3456z" fill="#ffffff" stroke="none" stroke-width="1.5" stroke-linecap="butt"/><path d="M212.85434,242.94454c0,0 -0.1398,3.26916 0.25461,4.30505c0.39441,1.03589 3.04467,4.31181 3.35068,6.98148c0.4171,3.63881 0.5095,7.33141 1.66248,11.55179c1.32624,3.43482 4.08355,8.69143 2.76494,9.98472c-1.09805,1.07697 -3.73005,-1.70656 -4.62215,-3.23156c-0.98498,-1.68378 -1.6432,-4.77164 -1.74885,-5.12308c-0.26043,-0.86629 -1.05663,-1.66139 -1.48034,-2.42745c-0.31637,-0.57201 -0.38483,-0.29869 -0.38483,-0.29869c0,0 0.01227,0.66282 0.04976,2.18977c0.02629,1.07091 0.29746,2.41103 0.38184,3.35951c0.10319,1.16005 0.18788,2.9243 0.36138,3.93685c0.07589,0.44292 0.44245,1.31699 0.75225,2.20706c0.33768,0.97017 0.62089,1.95883 0.71659,2.41598c0.58826,2.81022 1.70604,4.24842 2.22433,5.75896c0.28565,0.83252 0.31796,2.50974 -0.0523,3.24882c-0.44077,0.87984 -1.21775,0.89164 -1.21775,0.89164c0,0 -0.39357,1.30041 -1.56718,1.1624c-1.32651,-0.15598 -2.92052,-2.03158 -2.92052,-2.03158c0,0 -0.72094,0.49101 -1.74686,-0.44105c-0.56466,-0.513 -1.81042,-2.87288 -1.81042,-2.87288c0,0 -0.78177,0.35214 -1.66173,-0.90843c-0.90363,-1.29446 -1.55897,-2.92739 -2.32013,-4.9941c-0.44424,-1.20622 -1.34726,-3.05951 -2.04159,-5.05524c-0.49532,-1.42371 -1.10667,-2.91992 -1.14728,-4.30541c-0.04721,-1.92289 0.05375,-3.64792 -0.06381,-5.27276c-0.30579,-4.22624 -0.26224,-7.3694 0.42819,-10.72362c0.34147,-1.65893 1.09297,-3.26387 1.54318,-5.28484c0.27587,-1.23837 0.33453,-5.20058 0.33453,-5.20058" fill="#ffffff" stroke="#000000" stroke-width="2" stroke-linecap="butt"/><path d="M200.10249,138.73019c0,0 -1.55359,-10.99339 -1.01141,-22.23394c0.14784,-3.06501 9.16187,11.60753 14.15765,-3.71587c4.98587,-15.29302 5.95368,-60.58509 5.95368,-60.58509c0,0 3.22126,-5.71205 3.77009,5.94695c0.7217,15.33131 -0.67095,50.08356 4.93046,61.41141c2.8802,5.82469 10.1762,5.52898 14.4028,5.71037c4.69947,0.20169 18.69616,-1.10563 21.6891,-10.16889c5.07148,-15.35757 -2.15255,-43.63172 0.54054,-56.58437c1.52774,-7.3478 5.24725,-4.30096 5.24725,-4.30096c0,0 0.66213,43.82405 4.83224,61.55332c3.25648,13.845 11.86334,1.88441 11.94297,3.25721c0.80674,13.90886 -1.05397,20.31037 -1.05397,20.31037c0,0 -0.38945,8.26237 -1.20049,11.85835c-1.00277,4.4461 -4.36391,12.81319 -4.36391,12.81319c0,0 -1.42335,-11.1233 -2.1904,-14.35897c-0.43266,-1.82509 -2.01505,-3.38102 -2.01505,-3.38102c0,0 -0.02415,6.25532 -0.74869,8.78793c-0.86351,3.01839 -4.08899,8.12211 -4.08899,8.12211c0,0 0.2051,-7.14767 -1.31392,-9.81471c-1.51447,-2.65904 -7.78658,-6.16363 -7.78658,-6.16363c0,0 1.54756,5.82921 0.3633,9.07877c-1.18426,3.24955 -7.7039,11.06349 -7.7039,11.06349c0,0 1.95191,-6.67675 1.64326,-8.91493c-0.36291,-2.6316 -3.6844,-5.88635 -3.6844,-5.88635c0,0 -2.52441,10.78468 -3.2311,12.10896c-1.73768,3.2563 -7.73647,8.44356 -7.73647,8.44356c0,0 1.7844,-8.64817 1.92273,-12.2704c0.13335,-3.49197 -1.10713,-9.08655 -1.10713,-9.08655l-11.93023,19.77943l-3.36241,-17.88985l-2.91129,11.68373c0,0 -8.46786,9.61801 -9.88828,10.03862c-1.75982,0.52112 3.11566,-6.82202 3.86345,-12.17553c0.6699,-4.79588 -2.86141,-7.63928 -2.86141,-7.63928l-9.95688,20.73454z" fill="#420000" stroke="#000000" stroke-width="0" stroke-linecap="butt"/><g stroke="none" stroke-width="0" stroke-linecap="butt"><path d="M201.09567,92.42515c-5.66727,-0.16948 -4.51738,-7.94169 -0.60602,-8.61456c12.19214,-2.09739 52.21035,-7.03516 85.74804,-6.03226c5.72108,0.17108 4.80146,7.89283 0.60602,8.61456c-12.19398,2.09771 -52.21605,7.03499 -85.74803,6.03225z" fill="#cacaca"/><path d="M200.94284,92.43589c-2.21769,-0.06632 26.18505,-2.57908 50.43822,-6.78505c7.27945,-1.2624 -35.57707,2.0537 -29.95411,0.55284c7.11685,-1.89961 62.05997,-8.49229 64.6579,-8.4146c5.72108,0.17109 4.80147,7.89283 0.60602,8.61456c-12.19398,2.0977 -52.21604,7.03498 -85.74803,6.03225z" fill="#b3b3b3"/></g><path d="M278.16228,27.45638c0,0 -3.13344,33.77299 -35.50957,35.28113c-27.40913,1.27677 -36.42376,-34.84986 -36.42376,-34.84986" fill="none" stroke="#000000" stroke-width="3" stroke-linecap="round"/><g stroke="#000000" stroke-width="0" stroke-linecap="butt"><path d="M278.90316,54.58047c0,5.86474 1.23062,16.40968 -6.44249,21.1662c-6.27706,3.89112 -50.62503,5.28404 -56.52727,2.147c-9.02593,-4.79726 -7.48377,-16.60377 -7.48377,-23.05054c0,-6.04418 4.79419,-13.60782 13.24604,-13.56508c2.21912,0.01122 9.04466,-0.40926 12.18105,1.10283c5.99098,2.88831 10.19697,8.12823 10.19697,8.12823c0,0 3.89739,-4.72079 9.49582,-7.43969c4.2583,-2.06806 10.05886,-2.3137 12.62099,-2.31767c7.55536,-0.01168 12.71266,7.85519 12.71266,13.8287z" fill="#cc1414"/><path d="M273.60589,43.37334c4.86829,2.42586 6.27783,12.8562 5.08306,20.97476c-0.85281,5.79489 -3.03248,10.81842 -6.2283,12.7995c-6.27706,3.89112 -50.88989,3.83936 -56.79213,0.70233c-0.23267,-0.12366 16.86318,-0.3764 31.82145,-9.25304c3.88252,-2.30399 -28.81961,-5.38307 -25.65174,-7.8094c2.993,-2.29239 16.53696,-3.2289 25.01025,-6.02102c14.94331,-4.92413 26.68096,-11.43123 26.75742,-11.39313z" fill="#a10000"/></g><path d="M317.80843,145.3928c-0.24993,0.00606 -0.25598,-0.24387 -0.25598,-0.24387l0.03559,-0.26462c0.08028,-0.12698 0.16056,-0.25396 0.24084,-0.38095c0,0 0.13359,-0.21131 0.34491,-0.07771c0.21131,0.13359 0.07771,0.34491 0.07771,0.34491c-0.08028,0.12698 -0.16056,0.25396 -0.24084,0.38095l0.04165,-0.01469c0,0 0.00606,0.24993 -0.24387,0.25598z" fill="#ff8383" stroke="none" stroke-width="0.5" stroke-linecap="butt"/><g fill="#964d4d" stroke="none" stroke-linecap="butt"><path d="M314.23459,140.26895c0.3239,-2.99247 3.01235,-5.15579 6.00482,-4.83188c2.99247,0.3239 5.15579,3.01235 4.83188,6.00482c-0.3239,2.99247 -3.01235,5.15579 -6.00482,4.83188c-2.99247,-0.3239 -5.15579,-3.01235 -4.83188,-6.00482z" stroke-width="NaN"/><path d="M313.54075,144.82073c0.3239,-2.99247 3.01235,-5.15579 6.00482,-4.83188c2.99247,0.3239 5.15579,3.01235 4.83188,6.00482c-0.3239,2.99247 -3.01235,5.15579 -6.00482,4.83188c-2.99247,-0.3239 -5.15579,-3.01235 -4.83188,-6.00482z" stroke-width="NaN"/><path d="M315.86434,150.30257c0.3239,-2.99247 3.01235,-5.15579 6.00482,-4.83188c2.99247,0.3239 5.15579,3.01235 4.83188,6.00482c-0.3239,2.99247 -3.01235,5.15579 -6.00482,4.83188c-2.99247,-0.3239 -5.15579,-3.01235 -4.83188,-6.00482z" stroke-width="NaN"/><path d="M321.38059,152.30784c0.3239,-2.99247 3.01235,-5.15579 6.00482,-4.83188c2.99247,0.3239 5.15579,3.01235 4.83188,6.00482c-0.3239,2.99247 -3.01235,5.15579 -6.00482,4.83188c-2.99247,-0.3239 -5.15579,-3.01235 -4.83188,-6.00482z" stroke-width="NaN"/><path d="M318.42145,136.89994c0.3239,-2.99247 3.01235,-5.15578 6.00483,-4.83187c2.99247,0.3239 5.15579,3.01235 4.83188,6.00482c-0.3239,2.99247 -3.01235,5.15579 -6.00482,4.83188c-2.99247,-0.3239 -5.15579,-3.01235 -4.83188,-6.00482z" stroke-width="NaN"/></g><path d="M313.77827,138.71647c0.3722,-0.99066 2.22808,-0.73972 2.87098,-0.07017c0.37375,0.40212 0.61794,1.98721 1.07512,2.16808c2.41073,0.95363 4.23628,-0.66865 5.09203,2.79231c-1.8073,1.86455 -6.08423,-1.70562 -6.81556,0.935c-0.00921,0.54917 -0.15082,2.67925 -1.06824,2.12499c-0.44546,-0.26912 -1.20327,-3.35612 -1.1943,-3.90182c0.0038,-0.23108 0.59565,-0.70919 0.72424,-0.93523c-0.49805,-0.20166 -2.68371,-0.64924 -2.87141,-1.24205c-0.21286,-0.67224 1.24777,-1.58257 2.18715,-1.8711z" fill="#7d2727" stroke="none" stroke-width="0.5" stroke-linecap="butt"/><path d="M315.27561,150.79771c0.00366,-0.18018 0.13456,-0.22783 0.20734,-0.2404c0.04548,-0.2022 0.22513,-0.35083 0.65567,-0.39222c0,0 0.24995,0.00508 0.24488,0.25503c-0.00115,0.05666 -0.01488,0.10021 -0.03543,0.13369c2.35922,-0.06808 5.68442,-0.62062 4.44538,2.87892c-0.26535,0.56571 -1.31298,1.17734 -1.96941,1.37499c-0.19848,0.05977 -1.55709,-0.1983 -1.69595,-0.00172c-0.44677,0.63255 -0.06677,2.29532 -0.9833,2.55521c-0.4587,0.13007 -1.05655,-0.52248 -1.35757,-0.75423c-0.06728,-1.33482 0.06883,-2.43134 0.45516,-3.67938c0.0675,-0.21809 0.65064,-0.95511 0.61438,-1.08469c-0.06641,-0.2373 -0.21611,-0.52207 -0.30833,-0.78961l-0.02791,-0.00056c0,0 -0.24995,-0.00508 -0.24488,-0.25503z" fill="#7d2727" stroke="none" stroke-width="0.5" stroke-linecap="butt"/><path d="M330.48561,157.76247c0.66493,0.76804 0.49044,2.97427 0.4286,3.54572c-0.2705,0.59048 0.01607,2.88839 -0.94066,2.82464c-2.03559,-0.13561 0.70052,-3.64582 -1.80456,-3.91645c-0.15686,-0.01698 -0.68601,-0.05898 -0.7644,-0.15638c-0.11827,-0.14697 0.19641,-0.72142 0.10579,-0.55595c-0.29411,0.53703 -1.4191,0.28197 -1.66528,-0.14654c-1.05495,-1.8363 0.25185,-3.97751 2.32369,-3.05102c1.24498,0.58803 2.38015,-0.21384 2.31684,1.45598z" fill="#7d2727" stroke="none" stroke-width="0.5" stroke-linecap="butt"/><path d="M328.81145,148.31145c-0.01781,0.0013 -0.03706,0.00097 -0.05786,-0.00128c-0.24855,-0.02691 -0.22165,-0.27545 -0.22165,-0.27545l0.10258,-0.2673c0.42614,-0.30898 0.63637,-0.21306 1.14075,-0.10388c0.13235,0.60919 2.22172,0.53715 2.6172,1.69863c0.08094,0.23771 -0.17349,1.00759 -0.38648,1.14416c-0.40794,0.26157 -1.00943,-0.16588 -1.3396,0.07566c-0.59586,0.43593 -0.59422,1.1467 -1.00341,1.69472c-0.17905,0.49565 -0.36277,1.2396 -1.17974,0.77521c-0.76655,-0.43573 -0.31402,-3.55925 0.3282,-4.74051z" fill="#7d2727" stroke="none" stroke-width="0.5" stroke-linecap="butt"/><path d="M339.26757,150.09241c0.00658,-0.03853 0.02481,-0.08014 0.06091,-0.12334c0.16026,-0.19189 0.35213,-0.03163 0.35213,-0.03163l0.29486,0.24786c0.50128,0.61796 0.61546,1.21724 -0.2502,1.5522c-0.82841,1.39252 -0.72914,3.745 -1.70128,4.90003c-1.0716,1.27322 -1.69852,-0.79813 -1.37007,-1.68485c0.89882,-1.18903 0.29502,-4.69736 2.61363,-4.86026z" fill="#7d2727" stroke="none" stroke-width="0.5" stroke-linecap="butt"/><path d="M338.63024,161.27041c0.12868,0.07547 0.11075,0.24115 0.11075,0.24115c-0.00642,0.04668 -0.01397,0.09373 -0.02255,0.14108c0.00367,0.03607 0.00468,0.10975 -0.03548,0.1732c-0.21641,0.95275 -0.787,2.01097 -0.89432,2.9079c-0.1331,1.11247 0.3801,2.17264 -0.10166,3.42619c-0.45058,0.3768 -0.51333,2.15072 -1.30016,2.09397c-1.88013,-0.13564 -0.69097,-4.45219 -0.49955,-5.57173c0.54478,-1.22249 2.06823,-1.84666 2.24495,-3.06399l-0.13834,-0.37224c-0.01445,-0.0365 -0.02048,-0.07695 -0.01595,-0.11871c0.01486,-0.13727 0.13819,-0.23651 0.27545,-0.22165c0.06864,0.00742 0.12778,0.04196 0.16787,0.09181l0.17732,0.22036l-0.02071,0.01665c0.01716,0.01075 0.03434,0.02151 0.05151,0.03226z" fill="#7d2727" stroke="none" stroke-width="0.5" stroke-linecap="butt"/></g></g></svg>