<svg version="1.1" xmlns="http://www.w3.org/2000/svg" xmlns:xlink="http://www.w3.org/1999/xlink" width="206.13232" height="256.52105" viewBox="0,0,206.13232,256.52105"><g transform="translate(-168.44183,-48.97885)"><g data-paper-data="{&quot;isPaintingLayer&quot;:true}" fill-rule="nonzero" stroke-linejoin="miter" stroke-miterlimit="10" stroke-dasharray="" stroke-dashoffset="0" style="mix-blend-mode: normal"><path d="M287.03226,135.15111c0,0 -1.19561,0.18916 -2.52649,0.16621c-2.09959,-0.03621 -3.57835,-0.62992 -3.57835,-0.62992c0,0 0.42125,5.43254 2.74094,10.8419c2.4569,5.72927 7.98107,10.51561 7.98107,10.51561c0,0 -1.92655,0.11491 -4.31047,-0.33147c-2.28479,-0.42779 -4.57641,-1.40731 -4.57641,-1.40731c0,0 -1.34791,4.90723 0.60863,6.64679c2.19659,1.95299 6.39938,14.59592 6.39938,14.59592c0,0 -3.52666,-8.73133 -8.07893,-9.61798c-3.63291,-0.70759 -3.41054,-6.3839 -3.41054,-6.3839c0,0 -0.3335,4.618 -2.87749,12.38996c-2.13443,6.52075 -6.12374,10.00218 -6.12374,10.00218l-0.24665,-2.64625c0,0 -9.902,10.89048 -27.2313,11.95043c-18.38114,0.9996 -26.40009,-9.65806 -26.40009,-9.65806l0.07383,3.70476c0,0 -2.5298,-1.66245 -3.79201,-2.73988c-1.26218,-1.07745 -2.45164,-3.22255 -2.45164,-3.22255c0,0 -0.85027,-12.30749 -3.86995,-11.97867c-3.2264,0.35133 -14.90944,14.02357 -14.90944,14.02357c0,0 0.94487,-10.85553 4.40752,-18.8603c3.80475,-8.79567 5.12739,-18.36691 5.12739,-18.36691c0,0 -2.6417,2.26301 -3.89687,3.33008c-1.34577,1.14408 -4.19334,3.33195 -4.19334,3.33195c0,0 2.50688,-8.14428 5.74076,-17.68529c2.3585,-6.95839 -5.30076,-42.90432 42.21084,-44.19462c38.49383,-0.38426 39.71461,37.50242 40.17777,39.75401c0.1766,0.85847 7.00557,6.4698 7.00557,6.4698z" data-paper-data="{&quot;index&quot;:null}" fill="#000000" stroke="none" stroke-width="1.5" stroke-linecap="butt"/><path d="M200.2371,186.37962c-0.05451,-8.15261 8.18688,-36.76129 40.20201,-36.9211c13.72075,-0.06849 28.46501,8.55021 39.34305,27.09597c4.67459,7.96962 7.23015,18.43389 10.56667,27.2055c6.78226,17.83041 11.09341,49.83174 11.09341,49.83174l-2.99667,15.59614c0,0 -5.64637,-4.3747 -9.50265,-13.86384c-9.72691,-23.93494 -19.40165,-68.84414 -21.47242,-68.88342c-3.43441,-0.06514 -2.7399,117.98557 -2.7399,117.98557l-48.21366,0.07222c0,0 -0.0259,-118.15209 -3.19099,-118.16752c-3.11083,-0.01515 -12.93086,23.67688 -13.08885,0.04874z" fill="#000000" stroke="#000000" stroke-width="2" stroke-linecap="butt"/><g stroke="none" stroke-width="0" stroke-linecap="butt"><g fill="#5a5a5a"><g><path d="M209.66364,197.16106c0,-10.5134 7.79074,-19.03619 17.40111,-19.03619c9.61037,0 29.25852,8.52279 29.25852,19.03619c0,10.5134 -19.64815,19.03619 -29.25852,19.03619c-9.61037,0 -17.40111,-8.5228 -17.40111,-19.03619z"/><path d="M254.5853,216.3175c-9.61038,0 -29.25852,-8.52279 -29.25852,-19.03619c0,-10.5134 19.64815,-19.0362 29.25852,-19.0362c9.61038,0 17.40112,8.5228 17.40112,19.0362c0,10.5134 -7.79075,19.03619 -17.40112,19.03619z" data-paper-data="{&quot;index&quot;:null}"/></g><path d="M209.80374,197.34133c0,0 -0.3709,-2.61945 0.11388,-4.91271c1.13225,-5.35615 7.74548,-26.79895 7.74548,-26.79895h47.61844c0,0 4.92103,20.9045 6.343,26.47807c0.68293,2.6768 0.59173,5.94356 0.59173,5.94356z"/></g><g fill="#3f3f3f"><g><path d="M256.52477,197.36255c0,10.5134 -19.64815,19.03619 -29.25852,19.03619c-9.06328,0 -16.50821,-7.58006 -17.32647,-17.26126c0.68033,-0.01074 12.81701,1.71413 24.65994,1.23208c11.07317,-0.45072 21.92505,-3.11479 21.92505,-3.00701z"/><path d="M254.78679,216.51899c-8.86312,0 -25.98147,-4.42629 -28.63385,-13.80031c6.87938,0.54674 13.51869,-1.88573 20.02075,-3.33063c6.71,-1.49111 23.12288,-7.02069 24.99004,-8.35496c0.66291,2.01411 1.02418,4.18576 1.02418,6.44971c0,10.5134 -7.79075,19.03619 -17.40112,19.03619z" data-paper-data="{&quot;index&quot;:null}"/></g><path d="M271.82602,192.30923c0.68293,2.6768 0.59173,5.94356 0.59173,5.94356l-20.64443,-0.23484c4.69135,-1.24508 17.73755,-5.75793 19.67993,-7.19539c0.14137,0.57072 0.26679,1.07128 0.37277,1.48668z"/></g></g><g stroke="none" stroke-width="0" stroke-linecap="butt"><path d="" fill="#3f3f3f"/><path d="" fill="#2a2a2a"/></g><g data-paper-data="{&quot;index&quot;:null}" stroke="none" stroke-width="0" stroke-linecap="butt"><path d="" fill="#3f3f3f"/><path d="" fill="#2a2a2a"/></g><g><g stroke="none" stroke-linecap="butt"><path d="M195.44313,216.54393c21.07863,-11.06231 54.93441,-26.54108 82.77965,-28.66461c9.6632,-0.73693 -25.8057,26.15843 -21.37601,42.2465c-0.09528,8.36884 36.99408,7.8542 37.38251,11.0729c0.8689,7.19996 -14.53047,13.41954 -23.99069,17.70275c-4.9643,2.24764 -12.05003,4.25804 -19.86938,6.00771c-0.3664,0.08199 -14.99443,-6.74425 -27.03683,-17.24929c-15.18214,-13.24395 -28.40969,-30.84284 -27.88926,-31.11597z" fill="#5a2042" stroke-width="NaN"/><path d="M168.45008,231.32259c-0.62959,-6.22168 34.98395,-18.33732 44.35866,-23.13857c0.06356,-0.03255 2.54175,27.55658 19.0626,38.64247c17.52418,11.75914 38.5503,11.99212 38.36726,12.07498c-12.48557,5.65297 -63.07443,18.51176 -73.59104,16.98967c-12.3583,-1.78863 11.9556,-20.93618 9.259,-26.30053c-0.87387,-2.33397 -36.78613,-11.64346 -37.4565,-18.26802z" fill="#3f162e" stroke-width="NaN"/></g><path d="M226.16483,229.71353l135.43861,-53.91162l-15.01701,23.83758l-114.28474,45.49128z" fill="#000000" stroke="none" stroke-width="0" stroke-linecap="butt"/><path d="M336.84011,181.61024c3.26926,-4.18357 35.34054,-17.30089 37.65282,-11.49192c1.39036,3.49289 -15.34804,28.31228 -28.85235,33.6877c-8.08765,3.2193 -13.34973,-16.37422 -8.80047,-22.19578z" data-paper-data="{&quot;index&quot;:null}" fill="#8a3065" stroke="none" stroke-width="0" stroke-linecap="butt"/><path d="M367.30005,176.02644l-139.47219,55.5172" fill="none" stroke="#ffffff" stroke-width="1.5" stroke-linecap="round"/><path d="M228.35868,235.48585l135.16971,-53.80459" fill="none" stroke="#ffffff" stroke-width="1.5" stroke-linecap="round"/><path d="M229.85722,239.25053l129.07453,-51.37839" fill="none" stroke="#ffffff" stroke-width="1.5" stroke-linecap="round"/><path d="M354.3351,194.063l-124.05496,49.38035" fill="none" stroke="#ffffff" stroke-width="1.5" stroke-linecap="round"/><path d="M223.13963,229.87934l4.19058,-1.66806l6.79336,17.06654l-4.19057,1.66807z" fill="#3f3f3f" stroke="none" stroke-width="0" stroke-linecap="butt"/><path d="M366.6789,174.06543c1.03959,-0.41381 2.2178,0.09348 2.6316,1.13307c0.4138,1.03959 -0.09348,2.2178 -1.13307,2.6316c-1.03959,0.41381 -2.2178,-0.09348 -2.63161,-1.13307c-0.4138,-1.03959 0.09348,-2.2178 1.13307,-2.6316z" fill="#000000" stroke="none" stroke-width="0.5" stroke-linecap="butt"/><path d="M362.89505,179.86354c1.03959,-0.41381 2.2178,0.09347 2.63161,1.13306c0.4138,1.03959 -0.09348,2.21781 -1.13307,2.63161c-1.03959,0.41381 -2.2178,-0.09349 -2.63161,-1.13308c-0.4138,-1.03959 0.09348,-2.21779 1.13307,-2.6316z" fill="#000000" stroke="none" stroke-width="0.5" stroke-linecap="butt"/><path d="M358.25025,186.28126c1.03959,-0.41381 2.2178,0.09349 2.63161,1.13308c0.4138,1.03959 -0.09349,2.21779 -1.13308,2.6316c-1.03959,0.41381 -2.21779,-0.09348 -2.6316,-1.13307c-0.4138,-1.03959 0.09348,-2.2178 1.13307,-2.63161z" fill="#000000" stroke="none" stroke-width="0.5" stroke-linecap="butt"/><path d="M353.53467,192.17334c1.03959,-0.41381 2.2178,0.09348 2.63161,1.13307c0.4138,1.03959 -0.09348,2.2178 -1.13307,2.63161c-1.03959,0.41381 -2.2178,-0.09348 -2.63161,-1.13307c-0.4138,-1.03959 0.09348,-2.2178 1.13307,-2.63161z" fill="#000000" stroke="none" stroke-width="0.5" stroke-linecap="butt"/></g><path d="M201.78123,239.95077c-7.21952,-7.95186 -3.74037,-41.80149 -1.61001,-55.83628c0.62471,-4.11554 1.49903,-4.69921 1.49903,-4.69921l11.04073,6.07589c0,0 -1.61795,42.11222 5.8365,50.13637c0.17713,0.19067 -14.60148,6.70759 -16.76624,4.32324z" fill="#000000" stroke="#000000" stroke-width="2" stroke-linecap="butt"/><g stroke="none" stroke-width="0" stroke-linecap="butt"><g><path d="M209.78574,180.88744c0,-8.27363 13.62398,-14.98072 30.43001,-14.98072c16.80603,0 30.43002,6.70709 30.43002,14.98072c0,8.27363 -30.43002,33.0044 -30.43002,33.0044c0,0 -30.43001,-24.73077 -30.43001,-33.0044z" fill="#5a2042"/><path d="M209.51591,173.06478c0,-8.27363 13.62398,-14.98072 30.43001,-14.98072c16.80603,0 30.43002,6.7071 30.43002,14.98072c0,8.27363 -30.43002,33.0044 -30.43002,33.0044c0,0 -30.43001,-24.73077 -30.43001,-33.0044z" fill="#732854"/><path d="M209.62408,167.21799c0,-8.27363 13.62399,-14.98072 30.43002,-14.98072c16.80603,0 30.43001,6.70709 30.43001,14.98072c0,8.27363 -30.43001,33.0044 -30.43001,33.0044c0,0 -30.43002,-24.73077 -30.43002,-33.0044z" fill="#8a3065"/><path d="M209.35425,161.08891c0,-8.27363 13.62399,-14.98072 30.43002,-14.98072c16.80603,0 30.43001,6.7071 30.43001,14.98072c0,8.27363 -30.43001,33.0044 -30.43001,33.0044c0,0 -30.43002,-24.73077 -30.43002,-33.0044z" fill="#9e3874"/></g><path d="M259.73314,156.97542c0,3.66343 -9.06639,4.09285 -20.25034,4.09285c-11.18395,0 -20.25035,-0.42942 -20.25035,-4.09285c0,-3.66343 9.06639,-9.17363 20.25035,-9.17363c11.18395,0 20.25034,5.51019 20.25034,9.17363z" fill="#000000"/></g><path d="M232.21478,49.10747c26.19708,-1.75362 38.7153,14.69518 43.68965,32.76049c3.48413,12.65328 2.7148,28.70718 2.7148,28.70718l-4.16949,-10.05969c0,0 3.5675,10.19369 2.26889,20.61196c-1.1211,9.54321 -6.49144,17.54522 -6.49144,17.54522l-1.26279,-2.29127c0,0 -0.91967,2.24299 -2.00322,3.42929c-1.08357,1.18629 -3.3,3.06902 -3.3,3.06902l-0.26368,-3.69596c0,0 -6.54174,11.3334 -23.82049,11.98869c-16.30056,0.50073 -26.53836,-9.4551 -26.53836,-9.4551l0.007,2.65738c0,0 -4.04322,-3.10867 -6.62483,-9.41055c-3.07696,-7.51111 -3.80356,-12.0799 -3.80356,-12.0799c0,0 -2.24852,2.00555 -5.58228,3.03644c-4.17739,1.29177 -6.92318,0.66692 -6.92318,0.66692c0,0 3.47811,-2.88151 5.35684,-5.02363c1.67342,-1.90803 2.48717,-3.49628 2.48717,-3.49628c0,0 -2.05504,1.18124 -4.15322,1.81243c-2.18922,0.65859 -4.00113,0.71719 -4.00113,0.71719c0,0 4.73606,-5.26249 6.51908,-11.18853c1.68345,-5.59514 1.5895,-11.04287 1.5895,-11.04287l-2.17495,5.03493c0,0 0.18476,-4.51347 0.91903,-7.80224c0.366,-1.63931 -0.47107,-43.41685 35.56066,-46.49116z" fill="#000000" stroke="none" stroke-width="1.5" stroke-linecap="butt"/><path d="M214.01882,109.21843c-0.15593,-4.88992 4.41888,-9.15078 9.78975,-9.32206c5.37086,-0.17126 9.21448,3.82534 9.37042,8.71527c0.15593,4.88992 -3.7114,8.97609 -9.08226,9.14738c-5.37086,0.17126 -9.92197,-3.65065 -10.0779,-8.54058z" fill="#ffffff" stroke="#000000" stroke-width="1.4" stroke-linecap="butt"/><path d="M241.04605,107.9649c-0.0233,-4.89235 4.03719,-9.05536 9.34931,-9.30188c5.31211,-0.24652 9.44842,3.53186 9.67522,8.419c0.2268,4.88715 -3.46116,9.24143 -9.26541,9.58171c-5.5209,0.32368 -9.73479,-3.58949 -9.75912,-8.69881z" fill="#ffffff" stroke="#000000" stroke-width="1.4" stroke-linecap="butt"/><path d="M220.69603,108.62565c-0.04996,-1.56676 1.17964,-2.87735 2.74638,-2.92731c1.56675,-0.04996 2.87735,1.17964 2.92731,2.74638c0.04996,1.56676 -1.17963,2.87735 -2.74638,2.92731c-1.56675,0.04996 -2.87735,-1.17964 -2.92731,-2.74638z" fill="none" stroke="#000000" stroke-width="1.5" stroke-linecap="butt"/><path d="M247.9157,107.78877c-0.07424,-1.59977 1.16244,-2.95682 2.76221,-3.03107c1.59977,-0.07424 2.95682,1.16244 3.03106,2.76222c0.07424,1.59977 -1.16243,2.95682 -2.76221,3.03106c-1.59977,0.07424 -2.95683,-1.16244 -3.03107,-2.76221z" fill="none" stroke="#000000" stroke-width="1.5" stroke-linecap="butt"/><g fill="#000000" stroke="#000000" stroke-linecap="butt"><path d="M262.92718,234.95371c-1.55367,0.62999 -7.78766,2.42725 -9.46011,1.83939c-3.12856,-1.09968 -5.21159,-1.69942 -6.89673,-5.85529c-1.64429,-4.05512 -0.81149,-6.50967 0.56441,-9.46633c0.78797,-1.69327 6.55054,-4.82819 8.17468,-5.48675c4.46008,-1.80848 7.15145,0.16909 9.73742,6.54658c2.58596,6.37748 2.3404,10.61391 -2.11967,12.42238z" stroke-width="0"/><path d="M257.1728,235.43453c0,0 -44.64352,15.00379 -54.64796,5.13087c-1.83513,-1.81101 9.39167,-14.28027 11.44233,-12.30236c8.65185,8.34485 35.77617,-7.63148 35.77617,-7.63148z" stroke-width="2"/></g><path d="M215.0452,111.16927l-1.12913,-8.72955l3.28312,6.28817l1.25867,2.38028z" fill="#ffffff" stroke="#000000" stroke-width="0" stroke-linecap="butt"/><path d="M255.81533,109.57061l1.06842,-2.47153l2.78064,-6.52595l-0.44209,8.79116z" data-paper-data="{&quot;index&quot;:null}" fill="#ffffff" stroke="#000000" stroke-width="0" stroke-linecap="butt"/><g fill="#000000" stroke="#000000" stroke-width="0" stroke-linecap="butt"><path d="M299.31654,271.23676c-3.05619,-1.00311 -6.13779,-13.60146 -4.96889,-19.55539c0.93842,-4.78003 17.06273,-24.07036 21.12404,-34.94112c1.9029,-5.09341 -1.44542,-17.4153 -1.44542,-17.4153c0,0 17.54789,-1.50769 18.29633,0.81802c0.67889,2.10958 -5.48724,28.81986 -13.68575,46.41152c-6.94855,14.90961 -18.58759,24.92275 -19.3203,24.68226z"/><path d="M331.59562,190.99765c0.49655,1.60131 1.76099,7.9648 1.03401,9.58164c-1.35992,3.02452 -2.13341,5.04949 -6.41672,6.37768c-4.17948,1.296 -6.55495,0.25892 -9.38487,-1.36173c-1.62069,-0.92814 -4.25782,-6.93484 -4.77688,-8.60878c-1.42542,-4.59684 0.77237,-7.11164 7.34542,-9.14985c6.57306,-2.03821 10.77362,-1.43581 12.19903,3.16104z"/></g></g></g></svg>