<svg version="1.1" xmlns="http://www.w3.org/2000/svg" xmlns:xlink="http://www.w3.org/1999/xlink" width="101.24765" height="234.03125" viewBox="0,0,101.24765,234.03125"><defs><linearGradient x1="267.26704" y1="199.17137" x2="267.26704" y2="201.12398" gradientUnits="userSpaceOnUse" id="color-1"><stop offset="0" stop-color="#4f0000"/><stop offset="1" stop-color="#690000"/></linearGradient><linearGradient x1="213.18599" y1="212.69978" x2="213.18599" y2="214.6524" gradientUnits="userSpaceOnUse" id="color-2"><stop offset="0" stop-color="#4f0000"/><stop offset="1" stop-color="#690000"/></linearGradient><linearGradient x1="241.5072" y1="71.89277" x2="241.5072" y2="176.77621" gradientUnits="userSpaceOnUse" id="color-3"><stop offset="0" stop-color="#000000"/><stop offset="1" stop-color="#ff0000"/></linearGradient><linearGradient x1="240.58951" y1="152.5698" x2="240.58951" y2="303.9367" gradientUnits="userSpaceOnUse" id="color-4"><stop offset="0" stop-color="#000000"/><stop offset="1" stop-color="#8d0000"/></linearGradient><linearGradient x1="240.58951" y1="152.56982" x2="240.58951" y2="303.9367" gradientUnits="userSpaceOnUse" id="color-5"><stop offset="0" stop-color="#980000"/><stop offset="1" stop-color="#ff0000"/></linearGradient><linearGradient x1="243.40228" y1="96.39789" x2="243.40228" y2="163.48383" gradientUnits="userSpaceOnUse" id="color-6"><stop offset="0" stop-color="#000000"/><stop offset="1" stop-color="#ff0000"/></linearGradient><linearGradient x1="229.30721" y1="117.06423" x2="229.30721" y2="134.50011" gradientUnits="userSpaceOnUse" id="color-7"><stop offset="0" stop-color="#f8f8f8"/><stop offset="1" stop-color="#f8b0b0"/></linearGradient><linearGradient x1="240.30005" y1="141.91667" x2="240.30005" y2="143.86928" gradientUnits="userSpaceOnUse" id="color-8"><stop offset="0" stop-color="#000000"/><stop offset="1" stop-color="#ff0000"/></linearGradient><linearGradient x1="237.57815" y1="196.15631" x2="237.57815" y2="240.68739" gradientUnits="userSpaceOnUse" id="color-9"><stop offset="0" stop-color="#980000"/><stop offset="1" stop-color="#ff0000"/></linearGradient><linearGradient x1="241.41278" y1="168.96475" x2="241.41278" y2="176.05822" gradientUnits="userSpaceOnUse" id="color-10"><stop offset="0" stop-color="#980000"/><stop offset="1" stop-color="#ff0000"/></linearGradient><linearGradient x1="235.82316" y1="173.4104" x2="235.82316" y2="217.94146" gradientUnits="userSpaceOnUse" id="color-11"><stop offset="0" stop-color="#980000"/><stop offset="1" stop-color="#ff0000"/></linearGradient></defs><g transform="translate(-190.66751,-70.90691)"><g data-paper-data="{&quot;isPaintingLayer&quot;:true}" fill-rule="nonzero" stroke-linejoin="miter" stroke-miterlimit="10" stroke-dasharray="" stroke-dashoffset="0" style="mix-blend-mode: normal"><path d="M265.32786,200.53937l3.87833,-0.7834" fill="none" stroke="url(#color-1)" stroke-width="2" stroke-linecap="round"/><path d="M215.12516,213.28442l-3.87834,0.7834" fill="none" stroke="url(#color-2)" stroke-width="2" stroke-linecap="round"/><path d="M196.67692,123.44564c0,0 6.38668,-5.78156 6.51966,-6.62678c0.23463,-1.49143 -1.40549,-19.33656 9.86761,-30.99812c1.58935,-1.64412 4.19838,-4.99288 7.16098,-7.52104c2.98761,-2.54951 7.80259,-3.8532 7.80259,-3.8532l0.74858,2.87168l6.75445,-4.23686l0.792,2.11377c0,0 2.24985,-2.35385 3.73724,-2.83272c1.84136,-0.59282 6.47743,-0.4559 6.47743,-0.4559c0,0 1.20132,2.76196 3.42718,3.45676c4.83775,1.51011 8.1838,-0.48193 11.33304,0.64694c6.94994,2.49126 11.4155,9.03475 14.51887,13.43149c7.48318,10.60189 6.18517,24.12975 7.68767,27.97909c3.57485,9.15857 6.37979,16.98787 6.37979,16.98787l-4.22757,-3.05971c0,0 2.81678,9.68157 0.97206,19.78329c-0.6937,3.96631 -3.29444,6.38707 -3.04105,8.99678c0.47203,4.86151 5.07632,6.47228 5.07632,6.47228c0,0 -3.42013,2.67696 -6.65379,3.07642c-2.36996,0.29276 -6.78087,-1.04451 -6.78087,-1.04451l2.93105,3.40728c0,0 -3.33624,0.3115 -5.07207,0.32844c-1.83111,0.01787 -5.64404,-0.22386 -5.64404,-0.22386c0,0 -1.51354,1.95842 -2.49379,2.72954c-0.98214,0.77262 -3.39339,1.90168 -3.39339,1.90168c0,0 1.31539,-3.00219 1.70623,-4.33422c0.23576,-0.80348 0.4189,-2.9085 0.4189,-2.9085c0,0 -1.71505,4.66956 -9.76079,6.51861c-2.80085,0.64368 -5.36851,-0.6098 -9.99518,-0.6467c-3.53491,-0.05218 -7.29602,0.35605 -10.0629,0.31562c-4.22762,-0.06178 -7.66459,0.08478 -9.88595,-0.37588c-3.27429,-0.679 -4.10694,-2.27262 -4.10694,-2.27262c0,0 -3.54882,1.20004 -5.29148,1.3784c-1.70131,0.17412 -6.07961,-0.46012 -6.07961,-0.46012c0,0 2.34149,-1.34014 3.36758,-1.94133c0.87085,-0.51025 2.0929,-1.91791 2.0929,-1.91791c0,0 -3.84897,-2.46506 -5.37029,-4.02464c-1.69176,-1.73431 -4.76744,-6.19175 -4.76744,-6.19175l-3.35663,-0.14396l2.68075,-5.35287l-2.92058,-0.32178c0,0 1.41396,-1.45118 2.3118,-2.52585c1.08638,-1.30032 2.12095,-3.89212 2.12095,-3.89212c0,0 -0.79547,1.01733 -4.29587,1.87183c-4.3862,1.07074 -7.19844,0.33708 -7.19844,0.33708c0,0 3.73872,-2.65279 5.78636,-4.65687c1.82387,-1.78508 2.74251,-3.2972 2.74251,-3.2972c0,0 -2.18397,1.059 -4.38619,1.57961c-2.29776,0.54322 -4.17615,0.51835 -4.17615,0.51835c0,0 5.15524,-4.91792 7.28558,-10.61663c0.51318,-1.37277 0.013,-2.75162 0.013,-2.75162l-3.11651,0.26882c0,0 2.16096,-2.86559 2.90931,-4.23939c0.56352,-1.0345 1.62985,-3.97549 1.62985,-3.97549c0,0 -0.67083,0.64595 -2.71066,0.77629c-1.29299,0.08262 -2.46404,-0.04774 -2.46404,-0.04774z" fill="#000000" stroke="url(#color-3)" stroke-width="2" stroke-linecap="butt"/><path d="M201.03042,303.83247c0,0 -0.15565,-22.57481 -0.33203,-48.17439c-0.03839,-5.57213 3.15139,-11.28756 3.11243,-16.94468c-0.03504,-5.08749 -3.29891,-10.12782 -3.33227,-14.97437c-0.0061,-0.88558 -0.01215,-1.76469 -0.01815,-2.63644c-0.01038,-1.50807 0.89223,-3.70705 0.88218,-5.16641c-0.00874,-1.26923 -0.93017,-1.80531 -0.9386,-3.03114c-0.0714,-10.37561 -0.13128,-19.08759 -0.1669,-24.28837c-0.02066,-3.01711 1.15068,-8.90383 4.35706,-15.05964c0.95329,-1.83019 4.19466,-1.71378 5.62486,-3.5232c1.59924,-2.02329 1.43916,-5.96125 3.46841,-7.77756c6.15479,-5.5089 14.51482,-9.62624 26.75168,-9.68588c18.20854,-0.08874 28.66603,9.48193 34.25804,18.99415c1.20115,2.0432 -1.85863,3.68963 -1.07785,5.63112c0.74618,1.85547 3.52423,2.7669 3.93755,4.35746c0.25116,0.96653 -1.56276,2.75984 -1.41969,3.57864c0.21879,1.25215 2.32598,3.37896 2.32511,4.17408c-0.00374,2.20282 -3.42725,4.93419 -3.42733,7.24453c-0.00009,3.0752 5.25028,5.05363 5.25594,8.27377c0.07727,43.9429 0.65135,98.9596 0.65135,98.9596l-10.49667,0.09386l-0.15882,-112.12198c0,0 0.07549,-3.02586 -2.81625,-3.07941c-3.43441,-0.0636 -2.94538,3.0418 -2.94538,3.0418l0.20548,112.14818l-48.21366,0.07051l-0.30539,-112.50272c0,0 0.27949,-2.84984 -2.8856,-2.8649c-3.11083,-0.01479 -2.81569,2.84006 -2.81569,2.84006l0.35311,112.34037z" fill="url(#color-4)" stroke="url(#color-5)" stroke-width="2" stroke-linecap="butt"/><path d="M215.21282,126.1825c-0.57709,-7.12042 0.335,-16.74802 0.335,-16.74802c0,0 3.41059,-0.04026 13.91429,-3.06974c8.0696,-2.32745 20.54731,-9.26243 20.54731,-9.26243c0,0 -2.16005,2.93383 -3.40781,4.35447c-1.32651,1.51031 -3.99292,4.45485 -3.99292,4.45485c0,0 7.838,-1.6281 14.67476,-4.61725c8.56837,-3.45197 10.59252,-5.90967 12.95042,-4.48388c2.7829,1.68278 1.03006,22.6334 0.71846,28.05963c-0.42163,5.53489 -2.53327,9.2746 -3.15031,12.22386c-0.4226,2.01992 1.33832,3.19428 -0.21996,6.42349c-0.71695,1.48572 -0.74327,5.52873 -1.30941,8.57535c-1.12121,6.03377 -4.16183,1.44424 -10.01942,7.04447c-5.85759,5.60025 -10.40748,3.747 -14.36729,3.81435c-3.81077,0.06482 -7.58195,2.2896 -12.58172,-2.86748c-5.32393,-5.49147 -8.87489,-4.31139 -9.71551,-10.81614c-0.75707,-5.85821 -1.45338,-7.69131 -1.79951,-12.9046c-0.25298,-3.81026 -2.26119,-6.29233 -2.57636,-10.18093z" fill="#000000" stroke="url(#color-6)" stroke-width="1.5" stroke-linecap="butt"/><path d="M219.72329,125.71363c0.07093,-4.77597 4.83834,-8.72436 10.21137,-8.64831c5.37302,0.07605 9.02724,4.14774 8.95632,8.92372c-0.07093,4.77597 -4.12352,8.58601 -9.49655,8.50997c-5.37302,-0.07605 -9.74207,-4.00939 -9.67114,-8.78537z" fill="url(#color-7)" stroke="#000000" stroke-width="1.4" stroke-linecap="butt"/><path d="M226.16093,125.82876c0.03999,-2.69307 2.30855,-4.84456 5.06696,-4.80551c2.75843,0.03904 4.96213,2.25385 4.92214,4.9469c-0.03999,2.69307 -2.30854,4.84456 -5.06696,4.80551c-2.75843,-0.03904 -4.96213,-2.25385 -4.92214,-4.9469z" fill="#000000" stroke="#000000" stroke-width="1" stroke-linecap="butt"/><path d="M246.77957,125.71433c0.20353,-4.77235 4.45264,-8.64857 9.77048,-8.64857c5.31783,0 9.27453,3.8721 9.27453,8.64857c0,4.77648 -3.88585,8.85611 -9.69964,8.92527c-5.52997,0.06579 -9.55792,-3.94127 -9.34537,-8.92527z" fill="#ffafaf" stroke="#000000" stroke-width="1.4" stroke-linecap="butt"/><path d="M248.0345,123.99149c0,-1.58874 1.31918,-2.87667 2.94648,-2.87667c1.6273,0 2.94648,1.28792 2.94648,2.87667c0,1.58874 -1.31918,2.87667 -2.94648,2.87667c-1.6273,0 -2.94648,-1.28792 -2.94648,-2.87667z" fill="#000000" stroke="none" stroke-width="1.5" stroke-linecap="butt"/><path d="M253.50374,120.81527c-0.22361,-0.10915 -0.1118,-0.32746 -0.1118,-0.32746l0.20121,-0.36488c0.29373,-0.15439 0.49973,-0.34986 0.72914,-0.49129c-0.38291,-0.22812 -0.67289,-0.57527 -0.94392,-1.36908c0,0 -0.07906,-0.23155 0.15811,-0.30874c0.23717,-0.07719 0.31623,0.15436 0.31623,0.15436c0.49281,1.4434 0.88339,1.18887 2.34475,1.81829l0.21936,0.19644c0,0 0.17678,0.17259 0,0.34517c-0.17678,0.17259 -0.35355,0 -0.35355,0l-0.08941,-0.105c-0.39604,-0.20817 -0.73155,-0.33438 -1.02189,-0.44672c-0.0537,0.02032 -0.10136,0.02032 -0.10136,0.02032c-0.19688,-0.04047 -0.59844,0.39985 -0.9039,0.53141l-0.10755,0.23801c0,0 -0.1118,0.21831 -0.33541,0.10915z" fill="#ff0000" stroke="none" stroke-width="0.5" stroke-linecap="butt"/><path d="M260.27637,121.07098c-0.17678,0.17259 -0.35355,0 -0.35355,0l-0.15438,-0.15072c-0.65607,-0.66352 -1.84329,-0.30865 -1.12751,-1.48754c0.7226,-1.19012 1.47791,0.54789 1.94476,0.20298c0.14093,-0.10412 0.03582,-0.86801 0.03582,-0.99817c0,0 0,-0.24408 0.25,-0.24408c0.25,0 0.25,0.24408 0.25,0.24408c0,2.32374 -0.81426,0.76452 -2.00692,0.8284c-0.14385,0.0077 -0.22427,0.32927 -0.27791,0.49323c0.26803,0.01669 1.20847,0.54292 1.28531,0.61593l0.15438,0.15072c0,0 0.17678,0.17259 0,0.34517z" fill="#ff0000" stroke="none" stroke-width="0.5" stroke-linecap="butt"/><path d="M262.10657,124.15697c-0.25,0 -0.25,-0.24408 -0.25,-0.24408l0.1382,-0.51976c0.66963,-0.32689 -0.59425,-3.25195 1.76743,-2.26086c0,0 0.22361,0.10915 0.1118,0.32746c-0.1118,0.21831 -0.33541,0.10915 -0.33541,0.10915c-1.46211,-0.9276 -0.56817,1.89375 -1.32022,2.26086l0.1382,0.08314c0,0 0,0.24408 -0.25,0.24408z" fill="#ff0000" stroke="none" stroke-width="0.5" stroke-linecap="butt"/><path d="M261.85657,128.58533c0,-0.24408 0.25,-0.24408 0.25,-0.24408h0.15438c1.05427,0 1.02147,-0.8634 0.9936,-1.7538c-0.03098,-0.02976 -0.06092,-0.05989 -0.0897,-0.09041c-0.59716,-0.6332 0.92846,-2.51037 -1.10086,-1.46152l-0.08941,0.105c0,0 -0.17678,0.17259 -0.35355,0c-0.17678,-0.17259 0,-0.34517 0,-0.34517l0.21936,-0.19644c0.28424,-0.13304 1.81845,-0.26372 2.02267,0.08999c0.21309,0.36907 -0.48917,0.85668 -0.43791,1.24829c0.02105,-0.00483 0.04458,-0.00753 0.07087,-0.00753c0.25,0 0.25,0.24408 0.25,0.24408c0,0.0719 0.00045,0.14416 0.00102,0.21653c0.48982,0.42698 1.3968,0.86443 1.74024,1.08763c0,0 0.20801,0.13539 0.06934,0.33848c-0.13868,0.20308 -0.34669,0.0677 -0.34669,0.0677c-0.43842,-0.2858 -0.99174,-0.57311 -1.46297,-0.90122c-0.02022,0.98638 -0.20382,1.84656 -1.486,1.84656h-0.15438c0,0 -0.25,0 -0.25,-0.24408z" fill="#ff0000" stroke="none" stroke-width="0.5" stroke-linecap="butt"/><path d="M261.33466,129.69778c0.25,0 0.25,0.24408 0.25,0.24408l-0.02639,0.4106c-0.413,0.78981 -1.05428,1.56638 -1.05428,2.45315c0,0 0,0.24408 -0.25,0.24408c-0.25,0 -0.25,-0.24408 -0.25,-0.24408c0,-1.50589 0.56131,-1.57702 1.10707,-2.67147l-0.02639,-0.19229c0,0 0,-0.24408 0.25,-0.24408z" fill="#ff0000" stroke="none" stroke-width="0.5" stroke-linecap="butt"/><path d="M250.26171,132.11959c-0.22361,-0.10915 -0.1118,-0.32746 -0.1118,-0.32746l0.17518,-0.33501c0.63358,-0.58533 1.32237,-0.84846 2.26722,-0.84846c0.86051,0.40277 0.76757,1.00897 1.47818,1.54678c0.44148,0.33412 1.25127,-0.01286 1.76385,0.11118c0.8356,0.2022 1.16765,1.01486 1.90695,1.37576c0,0 0.22361,0.10915 0.1118,0.32746c-0.1118,0.21831 -0.33541,0.10915 -0.33541,0.10915c-0.69538,-0.33945 -1.07378,-1.15828 -1.79822,-1.33728c-0.64676,-0.1598 -1.3427,0.23895 -1.94133,-0.19026c-0.65009,-0.46612 -0.65977,-1.13644 -1.3007,-1.4677c-0.65401,0 -1.3458,0.22398 -1.74672,0.65879l-0.13359,0.26789c0,0 -0.1118,0.21831 -0.33541,0.10915z" fill="#ff0000" stroke="none" stroke-width="0.5" stroke-linecap="butt"/><path d="M251.83218,129.59884c-0.1118,0.21831 -0.33541,0.10915 -0.33541,0.10915l-0.31462,-0.15368c-0.16143,-0.0963 -0.3616,-0.12006 -0.55461,-0.12243c-0.0009,0.01903 -0.00223,0.03829 -0.00402,0.0578c-0.0802,0.87516 -1.192,0.69625 -1.79382,0.69625c0,0 -0.25,0 -0.25,-0.24408c0,-0.24408 0.25,-0.24408 0.25,-0.24408c0.12469,0 1.36318,0.1198 1.29382,-0.2081c-0.22512,-1.06431 -0.82038,-1.70979 0.44696,-2.32845l0.30876,-0.15072c0,0 0.22361,-0.10915 0.33541,0.10915c0.1118,0.21831 -0.1118,0.32746 -0.1118,0.32746l-0.30876,0.15072c-0.89104,0.43496 -0.42833,0.75447 -0.23573,1.34685c0.29368,0.00626 0.60148,0.04338 0.85912,0.17891l0.30291,0.14777c0,0 0.22361,0.10915 0.1118,0.32746z" fill="#ff0000" stroke="none" stroke-width="0.5" stroke-linecap="butt"/><path d="M251.3222,121.63016c0.17678,0.17259 0,0.34517 0,0.34517l-0.21936,0.19644c-0.45324,0.21214 -1.35818,0.16563 -1.73071,0.47133c-0.29122,0.23898 0.05394,0.6602 0.23181,1.06224c0.21866,-0.11118 0.51591,-0.17947 0.92395,-0.18727l-0.02239,-0.07924c0,0 0.17678,-0.17259 0.35355,0c0.17678,0.17259 0,0.34517 0,0.34517l-0.33116,0.22222c-1.88572,-0.05319 -0.66585,1.65855 -1.17678,2.59728c-0.31995,0.58784 -1.55002,0.4172 -2.06525,0.4172c0,0 -0.25,0 -0.25,-0.24408c0,-0.24408 0.25,-0.24408 0.25,-0.24408c2.13247,0 1.36002,-1.59203 1.91158,-2.46245c-0.00023,-0.00419 -0.00023,-0.00651 -0.00023,-0.00651c0,-0.16034 -0.30459,-1.57141 -0.29244,-1.59398c0.28748,-0.53405 1.50994,-0.49437 1.97446,-0.73446l0.08941,-0.105c0,0 0.17678,-0.17259 0.35355,0z" fill="#ff0000" stroke="none" stroke-width="0.5" stroke-linecap="butt"/><path d="M250.57048,119.02213c0.22361,-0.10915 0.33541,0.10915 0.33541,0.10915l0.13359,0.26789c0.0708,0.068 0.14159,0.13601 0.21239,0.20401c0.21303,-0.04818 0.28512,0.16297 0.28512,0.16297c0.13677,0.47633 0.3617,0.43305 0.60397,0.87238l0.02639,0.25988c0,0 0,0.24408 -0.25,0.24408c-0.25,0 -0.25,-0.24408 -0.25,-0.24408l0.02639,-0.04157c-0.18155,-0.40178 -0.36779,-0.38176 -0.55712,-0.76475c-0.09698,-0.00686 -0.16796,-0.07616 -0.16796,-0.07616c-0.1116,-0.11044 -0.2232,-0.22088 -0.3348,-0.33132l-0.17518,-0.33501c0,0 -0.1118,-0.21831 0.1118,-0.32746z" fill="#ff0000" stroke="none" stroke-width="0.5" stroke-linecap="butt"/><path d="M261.52761,138.14518c0,0 -11.41081,13.7043 -18.27722,13.77717c-7.30908,0.07757 -18.00261,-10.76268 -18.00261,-10.76268" fill="none" stroke="url(#color-8)" stroke-width="2" stroke-linecap="round"/><path d="M277.61596,197.30096c0,0 -19.65277,16.05887 -31.69064,22.66973c-13.60347,7.47064 -45.07881,19.53445 -45.07881,19.53445" fill="none" stroke="url(#color-9)" stroke-width="2" stroke-linecap="round"/><path d="M277.13531,177.24045c0,0 -27.94455,2.30073 -40.39151,1.04362c-10.69884,-1.08055 -29.84262,-8.13706 -29.84262,-8.13706" fill="none" stroke="url(#color-10)" stroke-width="2" stroke-linecap="round"/><path d="M279.14716,185.07129c0,0 -22.20871,7.85976 -34.24658,14.47062c-13.60347,7.47064 -45.80908,17.21732 -45.80908,17.21732" fill="none" stroke="url(#color-11)" stroke-width="2" stroke-linecap="round"/></g></g></svg>