<svg version="1.1" xmlns="http://www.w3.org/2000/svg" xmlns:xlink="http://www.w3.org/1999/xlink" width="100.56246" height="249.9193" viewBox="0,0,100.56246,249.9193"><g transform="translate(-196.85357,-55.58059)"><g data-paper-data="{&quot;isPaintingLayer&quot;:true}" fill-rule="nonzero" stroke-linejoin="miter" stroke-miterlimit="10" stroke-dasharray="" stroke-dashoffset="0" style="mix-blend-mode: normal"><g stroke-linecap="butt"><g><path d="M201.03044,304.39162c0,0 -0.63536,-94.38387 -0.79335,-118.01201c-0.05451,-8.15261 8.18688,-36.76129 40.20201,-36.9211c31.60235,-0.15775 39.85672,29.48704 39.84884,36.89673c-0.07659,46.24274 0.65429,117.98648 0.65429,117.98648l-10.49667,0.09614l-0.15882,-114.84311c0,0 0.07549,-3.0993 -2.81625,-3.15415c-3.43441,-0.06514 -2.94538,3.11562 -2.94538,3.11562l0.20548,114.86995l-48.21366,0.07222l-0.30539,-115.23309c0,0 0.27949,-2.919 -2.8856,-2.93443c-3.11083,-0.01515 -2.81569,2.90899 -2.81569,2.90899l0.35311,115.0668z" fill="#ffffff" stroke="#000000" stroke-width="2"/><path d="M216.91668,304.66668v-15h47.33334v15z" fill="#000000" stroke="none" stroke-width="0"/><path d="M201.37501,283.83333c0,-0.69036 0.55964,-1.25 1.25,-1.25c0.69036,0 1.25,0.55964 1.25,1.25c0,0.25501 -0.07636,0.49219 -0.20747,0.68991c0.2949,-0.12237 0.6183,-0.18991 0.95747,-0.18991c0.5628,0 1.08217,0.18597 1.5,0.49982c0.41783,-0.31385 0.9372,-0.49982 1.5,-0.49982c1.38071,0 2.5,1.11929 2.5,2.5c0,1.38071 0.33333,18 0.33333,18l-9.08333,0.08333c0,0 -0.5,-14.45262 -0.5,-15.83333c0,-1.12076 0.2375,-2.06927 1.25367,-2.3867c0.03439,-0.63828 0.30821,-1.21292 0.73322,-1.63572c-0.07671,0.01472 -0.1559,0.02242 -0.2369,0.02242c-0.69036,0 -1.25,-0.55964 -1.25,-1.25z" fill="#000000" stroke="none" stroke-width="0.5"/><path d="M207.12501,281.58333c0,-0.69036 0.55964,-1.25 1.25,-1.25c0.69036,0 1.25,0.55964 1.25,1.25c0,0.69036 -0.55964,1.25 -1.25,1.25c-0.17949,0 -0.35014,-0.03783 -0.50442,-0.10595c0.00293,0.03493 0.00442,0.07027 0.00442,0.10595c0,0.69036 -0.55964,1.25 -1.25,1.25c-0.56154,0 -1.0366,-0.37027 -1.19433,-0.87999c-0.16738,0.08321 -0.35607,0.12999 -0.55567,0.12999c-0.69036,0 -1.25,-0.55964 -1.25,-1.25c0,-0.69036 0.55964,-1.25 1.25,-1.25c0.56154,0 1.0366,0.37027 1.19433,0.87999c0.16738,-0.08321 0.35607,-0.12999 0.55567,-0.12999c0.17949,0 0.35014,0.03783 0.50442,0.10596c-0.00293,-0.03493 -0.00442,-0.07027 -0.00442,-0.10596z" fill="#000000" stroke="none" stroke-width="0.5"/><path d="M207.62501,278.08333c0,-0.69036 0.55964,-1.25 1.25,-1.25c0.69036,0 1.25,0.55964 1.25,1.25c0,0.69036 -0.55964,1.25 -1.25,1.25c-0.69036,0 -1.25,-0.55964 -1.25,-1.25z" fill="#000000" stroke="none" stroke-width="0.5"/><path d="M203.62501,278.83333c0,-0.69036 0.55964,-1.25 1.25,-1.25c0.69036,0 1.25,0.55964 1.25,1.25c0,0.69036 -0.55964,1.25 -1.25,1.25c-0.69036,0 -1.25,-0.55964 -1.25,-1.25z" fill="#000000" stroke="none" stroke-width="0.5"/><path d="M202.37501,279.83333c0,-0.27614 0.22386,-0.5 0.5,-0.5c0.27614,0 0.5,0.22386 0.5,0.5c0,0.27614 -0.22386,0.5 -0.5,0.5c-0.27614,0 -0.5,-0.22386 -0.5,-0.5z" fill="#000000" stroke="none" stroke-width="0.5"/><path d="M203.87501,276.58333c0,-0.27614 0.22386,-0.5 0.5,-0.5c0.27614,0 0.5,0.22386 0.5,0.5c0,0.27614 -0.22386,0.5 -0.5,0.5c-0.27614,0 -0.5,-0.22386 -0.5,-0.5z" fill="#000000" stroke="none" stroke-width="0.5"/><path d="M206.87501,276.83333c0,-0.27614 0.22386,-0.5 0.5,-0.5c0.27614,0 0.5,0.22386 0.5,0.5c0,0.27614 -0.22386,0.5 -0.5,0.5c-0.27614,0 -0.5,-0.22386 -0.5,-0.5z" fill="#000000" stroke="none" stroke-width="0.5"/><path d="M205.87501,275.08333c0,-0.27614 0.22386,-0.5 0.5,-0.5c0.27614,0 0.5,0.22386 0.5,0.5c0,0.27614 -0.22386,0.5 -0.5,0.5c-0.27614,0 -0.5,-0.22386 -0.5,-0.5z" fill="#000000" stroke="none" stroke-width="0.5"/><path d="M206.37501,280.58333c0,-0.27614 0.22386,-0.5 0.5,-0.5c0.27614,0 0.5,0.22386 0.5,0.5c0,0.27614 -0.22386,0.5 -0.5,0.5c-0.27614,0 -0.5,-0.22386 -0.5,-0.5z" fill="#000000" stroke="none" stroke-width="0.5"/><path d="M202.12501,277.83333c0,-0.27614 0.22386,-0.5 0.5,-0.5c0.27614,0 0.5,0.22386 0.5,0.5c0,0.27614 -0.22386,0.5 -0.5,0.5c-0.27614,0 -0.5,-0.22386 -0.5,-0.5z" fill="#000000" stroke="none" stroke-width="0.5"/><path d="M207.62501,274.83333c0,-0.27614 0.22386,-0.5 0.5,-0.5c0.27614,0 0.5,0.22386 0.5,0.5c0,0.27614 -0.22386,0.5 -0.5,0.5c-0.27614,0 -0.5,-0.22386 -0.5,-0.5z" fill="#000000" stroke="none" stroke-width="0.5"/><path d="M205.37501,276.83333c0,-0.27614 0.22386,-0.5 0.5,-0.5c0.27614,0 0.5,0.22386 0.5,0.5c0,0.27614 -0.22386,0.5 -0.5,0.5c-0.27614,0 -0.5,-0.22386 -0.5,-0.5z" fill="#000000" stroke="none" stroke-width="0.5"/><path d="M202.87501,274.83333c0,-0.27614 0.22386,-0.5 0.5,-0.5c0.27614,0 0.5,0.22386 0.5,0.5c0,0.27614 -0.22386,0.5 -0.5,0.5c-0.27614,0 -0.5,-0.22386 -0.5,-0.5z" fill="#000000" stroke="none" stroke-width="0.5"/></g><path d="M255.62763,200.3338c-0.57113,0 -1.03411,-0.46299 -1.03411,-1.03411c0,-0.57113 0.46299,-1.03413 1.03411,-1.03413c0.57113,0 1.03411,0.463 1.03411,1.03413c0,0.57113 -0.46299,1.03411 -1.03411,1.03411z" fill="#000000" stroke="none" stroke-width="1.5"/><path d="M250.36774,204.56941c-4.4635,-0.31439 -6.55245,-1.79392 -6.16985,-2.58011c0.11788,-0.24224 2.84645,1.06355 6.97038,1.3048c6.40897,0.37493 8.51033,-0.63173 8.51033,-0.63173v1.34616c0,0 -2.4135,1.04672 -9.31086,0.56089z" fill="#000000" stroke="#000000" stroke-width="0"/><path d="M222.55498,199.29969c0,-0.57113 0.46299,-1.03413 1.03411,-1.03413c0.57113,0 1.03413,0.463 1.03413,1.03413c0,0.57113 -0.463,1.03411 -1.03413,1.03411c-0.57113,0 -1.03411,-0.46299 -1.03411,-1.03411z" fill="#000000" stroke="none" stroke-width="1.5"/><path d="M228.84899,204.56941c-6.89736,0.48585 -9.31086,-0.56089 -9.31086,-0.56089v-1.34616c0,0 2.10136,1.00666 8.51033,0.63173c4.12393,-0.24126 6.85251,-1.54704 6.97039,-1.3048c0.3826,0.78618 -1.70634,2.26571 -6.16985,2.58011z" fill="#000000" stroke="#000000" stroke-width="0"/><path d="M240.12945,261.12113c-0.81895,0 -1.48284,-0.66389 -1.48284,-1.48284c0,-0.81895 0.66389,-1.48284 1.48284,-1.48284c0.81895,0 1.48284,0.66389 1.48284,1.48284c0,0.81895 -0.66389,1.48284 -1.48284,1.48284z" data-paper-data="{&quot;index&quot;:null}" fill="#000000" stroke="none" stroke-width="1.5"/><path d="M213.92787,291.32496c0,0 -0.62598,-61.51103 4.81237,-79.95561c5.17086,-17.53738 17.42888,-27.63865 21.52581,-27.63865c3.79198,0 16.01921,7.36923 20.91736,23.45626c5.95975,19.57364 7.38217,83.85782 7.38217,83.85782z" fill="#22678c" stroke="none" stroke-width="0"/><g stroke="none" stroke-width="0"><path d="M215.30743,235.26199l50.43481,-0.80734l2.41823,37.93576c-1.11479,-1.03102 -3.49754,-2.94046 -4.25831,-2.61324c-0.20458,0.08799 -0.67997,1.52932 -0.93869,1.40363c-1.54915,-0.75261 -0.3483,-4.09896 -2.69807,-3.36624c-2.93325,1.63323 -6.40729,5.59859 -9.25965,3.45565c-1.77127,-1.5519 -2.98562,2.61633 -4.58369,1.44697c-0.74584,-0.54575 -0.58087,-2.31716 -1.08116,-3.08121c-0.64663,-0.98753 -1.7803,-1.96318 -2.69801,-2.35014c-1.10671,0.99549 -1.73483,3.21499 -2.90206,4.02467c-1.91171,1.32612 -4.11614,0.45185 -5.86611,-0.89466c-1.1021,-1.19632 -1.65669,0.01163 -2.83621,0.00677c-1.12186,-0.00462 -1.78594,-0.84057 -2.84008,-0.78411c-1.51624,0.08119 -2.86481,1.16494 -4.39837,1.23773c-1.27075,0.34864 -2.49923,1.18231 -3.83039,0.65632c-0.9965,-0.39375 -2.76475,-2.58261 -3.46868,-2.58686c-0.61802,-0.00373 -1.84513,0.83492 -2.45753,1.13646c-0.20024,0.14144 -0.37226,0.30348 -0.52275,0.48171z" fill="#00ab8c"/><path d="M242.76639,241.31704c0,0 1.00629,16.36436 12.86309,15.48771c8.85365,-0.65461 10.11276,-22.3501 10.11276,-22.3501l2.41823,37.93576c-1.11479,-1.03102 -3.49754,-2.94046 -4.25831,-2.61324c-0.20458,0.08799 -0.67997,1.52932 -0.93869,1.40363c-1.54915,-0.75261 -0.3483,-4.09896 -2.69807,-3.36624c-2.93325,1.63323 -6.40729,5.59859 -9.25965,3.45565c-1.77127,-1.5519 -2.98562,2.61633 -4.58369,1.44697c-0.74584,-0.54575 -0.58087,-2.31716 -1.08116,-3.08121c-0.64663,-0.98753 -1.7803,-1.96318 -2.69801,-2.35014c-1.10671,0.99549 -1.73483,3.21499 -2.90206,4.02467c-1.91171,1.32612 -4.11614,0.45185 -5.86611,-0.89466c-1.1021,-1.19632 -1.65669,0.01163 -2.83621,0.00677c-1.12186,-0.00462 -1.78594,-0.84057 -2.84008,-0.78411c-1.51624,0.08119 -2.86481,1.16494 -4.39837,1.23773c-1.27075,0.34864 -2.49923,1.18231 -3.83039,0.65632c-0.9965,-0.39375 -2.76475,-2.58261 -3.46868,-2.58686c-0.61802,-0.00373 -1.84513,0.83492 -2.45753,1.13646c-0.20024,0.14144 -0.37226,0.30348 -0.52275,0.48171c0,0 21.24089,-7.29593 26.60609,-12.21702c3.92776,-3.60263 2.63958,-17.0298 2.63958,-17.0298z" fill="#007962"/></g><g stroke="none" stroke-width="0"><path d="M199.10265,264.18832c0,0 -0.44533,-48.47072 1.29578,-63.27015c0.99541,-8.46097 8.2308,-17.70574 8.2308,-17.70574c0,0 4.06759,0.95493 5.38526,6.27267c1.29715,5.23491 2.46016,25.38918 2.46016,25.38918z" fill="#22678c"/><path d="M196.90458,238.7342c0,0 -0.44533,-48.47072 1.29577,-63.27016c0.99541,-8.46097 8.2308,-17.70574 8.2308,-17.70574l7.84542,31.66186z" fill="#2a81af"/></g><g data-paper-data="{&quot;index&quot;:null}" stroke="none" stroke-width="0"><path d="M264.3367,217.35255c0,0 1.16302,-20.15427 2.46016,-25.38918c1.31767,-5.31775 5.38525,-6.27268 5.38525,-6.27268c0,0 7.23539,9.24476 8.2308,17.70574c1.74111,14.79943 1.29577,63.27015 1.29577,63.27015z" fill="#22678c"/><path d="M266.53477,191.89843l6.44445,-31.94205c0,0 8.63636,9.52496 9.63177,17.98593c1.74111,14.79943 1.29577,63.27015 1.29577,63.27015z" fill="#2a81af"/></g><g stroke="#000000" stroke-width="0"><path d="M212.96135,191.90823l-8.96618,-46.5121l36.14495,38.38649l-24.93721,50.9952z" fill="#00ab8c"/><path d="M212.96135,191.90823l13.44928,8.686l14.00967,-17.0918l-25.2174,51.27539z" fill="#007962"/></g><g data-paper-data="{&quot;index&quot;:null}" stroke="#000000" stroke-width="0"><path d="M265.31403,234.45415l-24.93721,-50.71501l36.14494,-38.66669l-8.96618,46.5121z" fill="#00ab8c"/><path d="M265.31403,234.45414l-24.93721,-50.715l13.72948,16.53141l13.44928,-8.686z" fill="#007962"/></g></g><g fill="#000000" stroke="none" stroke-width="1.5" stroke-linecap="butt"><path d="M204.92696,106.21346c0,0 6.16329,-5.92187 6.29161,-6.78761c0.16306,-1.10021 0.73334,-19.21189 9.4008,-29.0171c9.22054,-10.4309 26.56695,-12.55672 26.56695,-12.55672c0,0 -14.02991,2.16645 -13.09234,2.18183c0.65976,0.01082 6.68246,-3.3299 13.39892,-4.29076c3.07692,-0.44018 9.83646,0.09197 12.21985,0.66595c32.77798,7.89372 26.64428,37.21544 29.00444,43.63328c3.44981,9.38084 6.15664,17.40016 6.15664,17.40016c0,0 -2.76715,-2.05351 -4.0797,-3.13397c-1.2242,-1.00773 -3.80143,-3.14585 -3.80143,-3.14585c0,0 3.09111,10.3481 1.31092,20.69498c-1.5623,9.48098 -7.29782,17.22543 -7.29782,17.22543l-1.15522,-2.34735c0,0 -1.02266,2.19794 -2.16005,3.33274c-1.1374,1.13479 -3.43873,2.91273 -3.43873,2.91273l-0.09205,-3.70421c0,0 -7.0601,11.01795 -24.35066,10.87154c-16.30625,-0.25547 -26.07151,-10.6752 -26.07151,-10.6752l-0.1162,2.65484c0,0 -3.89477,-3.29276 -6.18145,-9.70754c-2.72545,-7.64567 -3.23946,-12.24324 -3.23946,-12.24324c0,0 -2.33908,1.89916 -5.71704,2.7744c-4.23278,1.09673 -6.94665,0.34526 -6.94665,0.34526c0,0 3.60795,-2.71717 5.58396,-4.76989c1.76007,-1.8284 2.64658,-3.37722 2.64658,-3.37722c0,0 -2.10758,1.0847 -4.23277,1.61795c-2.21739,0.5564 -4.03008,0.53093 -4.03008,0.53093c0,0 4.97492,-5.03728 7.03074,-10.87429c1.94102,-5.51108 2.09972,-10.95731 2.09972,-10.95731c0,0 -1.36165,0.66163 -3.33013,0.79513c-1.24776,0.08463 -2.37785,-0.0489 -2.37785,-0.0489z"/><path d="M288.46232,131.01939c0.58372,6.16087 4.19329,12.25144 4.19329,12.25144c0,0 -1.76508,-0.4135 -3.78218,-1.48946c-1.93324,-1.0312 -3.71607,-2.59325 -3.71607,-2.59325c0,0 0.48577,1.7172 1.75162,3.91687c1.42115,2.46954 4.26518,5.97835 4.26518,5.97835c0,0 -2.81504,0.07309 -6.65713,-2.0144c-3.06617,-1.66592 -4.87673,-4.07423 -4.87673,-4.07423c0,0 8.2709,-17.79217 8.82202,-11.97531z" data-paper-data="{&quot;index&quot;:null}"/><path d="M279.6917,77.10862c5.91431,1.82152 12.92312,0.82121 12.92312,0.82121c0,0 -1.05828,1.47191 -2.82502,2.92278c-1.69327,1.39055 -3.81922,2.43878 -3.81922,2.43878c0,0 1.77227,0.20928 4.28909,-0.11709c2.8256,-0.36641 7.15636,-1.6489 7.15636,-1.6489c0,0 -1.01114,2.6282 -4.41149,5.37717c-2.71364,2.19382 -5.6319,2.94338 -5.6319,2.94338c0,0 -13.265,-14.45714 -7.68094,-12.73732z" data-paper-data="{&quot;index&quot;:null}"/><path d="M214.95423,87.42933c0,0 -3.01172,0.08746 -6.22656,-1.26954c-4.02839,-1.70039 -5.72748,-3.94603 -5.72748,-3.94603c0,0 4.51655,0.03368 7.33317,-0.39633c2.50883,-0.38302 4.15393,-1.07466 4.15393,-1.07466c0,0 -2.33304,-0.41883 -4.34504,-1.28638c-2.0993,-0.90517 -3.52365,-2.02666 -3.52365,-2.02666c0,0 7.01186,-0.97872 12.19093,-4.3661c4.88987,-3.19823 -3.8553,14.36569 -3.8553,14.36569z" data-paper-data="{&quot;index&quot;:null}"/></g><path d="M221.71284,117.53508c-0.57709,-7.29323 0.335,-17.15448 0.335,-17.15448c0,0 3.41059,-0.04124 13.91429,-3.14424c8.0696,-2.38394 20.54731,-9.48722 20.54731,-9.48722c0,0 -2.16005,3.00503 -3.40781,4.46015c-1.32651,1.54696 -3.99292,4.56297 -3.99292,4.56297c0,0 7.838,-1.66761 14.67476,-4.72931c8.56837,-3.53575 10.59252,-6.05309 12.95042,-4.5927c2.7829,1.72362 1.03006,23.1827 0.71846,28.74062c-0.42163,5.66922 -2.53327,9.49969 -3.15031,12.52053c-0.61704,3.02084 -0.4096,6.13662 -2.20622,16.0397c-1.12121,6.18021 -4.16183,8.92466 -10.01942,14.66081c-5.85759,5.73616 -9.05378,9.25275 -13.01359,9.32173c-3.81077,0.06639 -8.93565,-5.1002 -13.93542,-10.38244c-5.32393,-5.62474 -8.87489,-8.47713 -9.71551,-15.13975c-0.75707,-6.00039 -0.77653,-9.90853 -1.12266,-15.24835c-0.25298,-3.90273 -2.26119,-6.44504 -2.57636,-10.42801z" fill="#ffffff" stroke="#000000" stroke-width="1.5" stroke-linecap="butt"/><path d="M249.34499,146.96217c-1.03376,0 -3.5381,-3.26042 -3.7867,-5.3637c-0.22243,-1.88186 1.31512,-3.82799 3.7867,-3.82799c2.47159,0 4.2021,0.49077 4.02999,4.18853c-0.14607,3.13818 -1.55841,5.00317 -4.02999,5.00317z" fill="#ffffff" stroke="#000000" stroke-width="1.15" stroke-linecap="butt"/><g stroke="none" stroke-linecap="butt"><path d="M269.71724,153.39786c0,0 0.66258,13.08675 -10.66247,17.3163c-2.28631,0.85387 -5.50638,0.90159 -8.82844,0.89839c-3.20589,-0.00309 -6.18697,-0.33298 -8.54244,-1.26807c-11.82895,-4.69597 -13.50086,-19.03494 -13.50086,-19.03494c0,0 7.61836,-10.03965 13.4712,-9.89127c3.27614,0.08306 8.10448,4.50638 8.10448,4.50638c0,0 4.34672,-4.49229 10.52988,-3.00048c7.57029,1.82649 9.42864,10.47369 9.42864,10.47369z" fill="#000000" stroke-width="0"/><path d="M261.30897,145.56178c2.24057,1.52614 6.09272,5.57872 6.09272,6.257c0,1.9501 -17.52024,-2.84647 -17.96027,-3.51465c-0.81332,-1.23502 9.08313,-4.75598 11.86754,-2.74235z" data-paper-data="{&quot;noHover&quot;:false,&quot;origItem&quot;:[&quot;Path&quot;,{&quot;applyMatrix&quot;:true,&quot;segments&quot;:[[[498.32481,305.17317],[0,0],[0.14844,0.74602]],[[503.52013,306.81747],[0,0.70036],[0,-0.2436]],[[501.37951,304.70119],[0.80468,0.5481],[-1,-0.72318]],[[498.32483,305.17317],[-0.16406,-0.845],[0,0]]],&quot;closed&quot;:true,&quot;fillColor&quot;:[0,0,0]}]}" fill="#ffffff" stroke-width="0.5"/><path d="M241.73272,142.99775c0.47859,0 1.84334,0.42672 2.8875,0.78708c2.19707,0.82664 6.71348,4.20368 5.25601,4.62764c-4.37237,1.25059 -16.24924,3.3093 -17.44565,3.3093c-1.58801,0 -1.55059,-0.06203 0.3637,-2.22408c2.19713,-2.41637 7.82903,-6.49988 8.93845,-6.49988z" data-paper-data="{&quot;noHover&quot;:false,&quot;origItem&quot;:[&quot;Path&quot;,{&quot;applyMatrix&quot;:true,&quot;segments&quot;:[[[494.34827,303.78007],[0,0],[-0.39844,0]],[[491.27795,305.99531],[0.78908,-0.86782],[-0.6875,0.77648]],[[491.13733,306.77179],[-0.57032,0],[0.42968,0]],[[496.30139,305.62229],[-1.5703,0.44914],[0.52344,-0.15226]],[[495.34827,304.03127],[0.78906,0.29688],[-0.375,-0.12942]],[[494.34827,303.78005],[0.17188,0],[0,0]]],&quot;closed&quot;:true,&quot;fillColor&quot;:[0,0,0]}]}" fill="#ffffff" stroke-width="0.5"/><path d="M249.84252,150.67398c2.53119,0.07554 8.70748,1.05137 9.49057,1.89923c0.19574,0.19079 -4.27586,0.6567 -9.58368,0.6567c-5.37303,0 -10.07146,-0.53566 -10.07146,-0.8748c0,-0.91145 7.66293,-2.23216 10.16456,-1.68107z" data-paper-data="{&quot;noHover&quot;:false,&quot;origItem&quot;:[&quot;Path&quot;,{&quot;applyMatrix&quot;:true,&quot;segments&quot;:[[[497.27793,306.54351],[0,0],[-0.89844,-0.19792]],[[493.75449,307.04593],[0,-0.32734],[0,0.1218]],[[497.25449,307.26669],[-1.92968,0],[1.90626,0]],[[500.61387,307.12205],[0.0703,0.06852],[-0.28124,-0.3045]],[[498.16075,306.52065],[0.11718,-0.19792],[-0.07032,0.09896]],[[497.27793,306.54349],[0.40626,0.09896],[0,0]]],&quot;closed&quot;:true,&quot;fillColor&quot;:[0,0,0]}]}" fill="#ffffff" stroke-width="0.5"/><path d="M257.48421,155.01418c0,1.05981 -3.05088,1.90278 -7.70609,1.81797c-4.82923,0 -7.64175,-0.90669 -7.11967,-1.81814c0.47858,-0.76309 14.82576,-0.76292 14.82576,0.00017z" data-paper-data="{&quot;noHover&quot;:false,&quot;origItem&quot;:[&quot;Path&quot;,{&quot;applyMatrix&quot;:true,&quot;segments&quot;:[[[494.82481,308.01271],[0.17188,-0.27406],[-0.1875,0.32734]],[[497.30137,308.56081],[-1.73438,0],[1.67188,0.03046]],[[499.94981,308.01271],[0,0.38062],[0,-0.27406]]],&quot;closed&quot;:true,&quot;fillColor&quot;:[0,0,0]}]}" fill="#ffffff" stroke-width="0.5"/><path d="M243.20353,158.05147c0.65256,0.21195 4.53369,0.42429 7.84019,0.48789c4.91622,0.08481 5.70028,0.26936 4.11227,0.75686c-2.39282,0.82664 -10.36627,0.23865 -12.01949,-0.79999c-1.06588,-0.76309 -0.5113,-0.71679 0.61984,-0.37765z" data-paper-data="{&quot;noHover&quot;:false,&quot;origItem&quot;:[&quot;Path&quot;,{&quot;applyMatrix&quot;:true,&quot;segments&quot;:[[[495.02007,309.10887],[0,0],[-0.40624,-0.1218]],[[494.99663,309.26113],[-0.3828,-0.27406],[0.59374,0.37302]],[[499.11381,309.53519],[-0.85936,0.29688],[0.57032,-0.17508]],[[497.63725,309.28397],[1.76562,0.03046],[-1.1875,-0.02284]],[[495.02007,309.10889],[0.23436,0.07612],[0,0]]],&quot;closed&quot;:true,&quot;fillColor&quot;:[0,0,0]}]}" fill="#ffffff" stroke-width="0.5"/><path d="M233.24577,153.77603c1.39221,0.33914 3.72833,1.84573 5.57735,3.64741c6.17789,6.04101 16.05135,6.2998 21.68545,0.55555c3.263,-3.34904 7.55629,-4.74932 7.55629,-2.5449c0,0.76304 -0.44442,2.77227 -0.9665,4.362c-2.52341,7.63069 -6.54451,10.15891 -16.48577,10.22251c-7.41791,0 -9.99001,-1.02929 -13.90557,-5.05661c-2.32755,-2.41643 -4.90751,-7.10357 -5.88639,-10.5162c-0.41332,-1.37773 -0.2518,-1.46271 1.9235,-0.91162z" data-paper-data="{&quot;noHover&quot;:false,&quot;origItem&quot;:[&quot;Path&quot;,{&quot;applyMatrix&quot;:true,&quot;segments&quot;:[[[491.25447,307.51789],[0,0],[-0.78124,-0.19792]],[[490.56697,307.83761],[-0.14844,-0.4948],[0.35156,1.22562]],[[492.68415,311.55253],[-0.83592,-0.86784],[1.40624,1.44638]],[[497.56697,313.29581],[-2.66408,0],[3.57032,-0.02284]],[[503.40291,309.73315],[-0.90626,2.7405],[0.1875,-0.57094]],[[503.75447,308.18781],[0,0.27404],[0,-0.7917]],[[501.23103,309.04041],[1.17188,-1.20278],[-2.02344,2.063]],[[493.25447,308.83487],[2.21874,2.16958],[-0.66406,-0.64706]],[[491.25447,307.51791],[0.5,0.1218],[0,0]]],&quot;closed&quot;:true,&quot;fillColor&quot;:[0,0,0]}]}" fill="#ffffff" stroke-width="0.5"/></g><path d="M252.94709,116.86846c0,0 0.1026,3.96976 0.00576,7.12662c-0.19174,6.25113 -1.08147,27.7607 -1.08147,27.7607l-2.98167,0.00864c0,0 -0.80294,-4.17274 -1.12322,-9.49979c-0.43353,-7.21063 -0.4495,-16.29321 -0.76344,-19.63229c-0.29758,-3.16513 -0.89593,-5.71453 -0.89593,-5.71453" fill="#ffffff" stroke="#000000" stroke-width="1.3" stroke-linecap="round"/><path d="" fill="#000000" stroke="none" stroke-width="0.5" stroke-linecap="butt"/><g fill="#000000" stroke="none" stroke-width="0.5" stroke-linecap="butt"><path d="M238.22973,118.54352c0,0.9665 -0.7835,1.75 -1.75,1.75c-0.83152,0 -1.52759,-0.57994 -1.70579,-1.35742c-0.77747,-0.1782 -1.35742,-0.87427 -1.35742,-1.70579c0,-0.9665 0.7835,-1.75 1.75,-1.75c0.52306,0 0.99253,0.22948 1.31321,0.59325c0.18911,0.21452 0.32648,0.47575 0.39258,0.76416c0.77747,0.1782 1.35742,0.87427 1.35742,1.70579z"/><path d="M241.29577,121.60767c0,-0.36308 0.11057,-0.70034 0.29988,-0.97994c-0.29449,-0.20921 -0.52145,-0.50726 -0.64182,-0.85508c-0.16848,0.05398 -0.34808,0.08312 -0.53448,0.08312c-0.9665,0 -1.75,-0.7835 -1.75,-1.75c0,-0.9665 0.7835,-1.75 1.75,-1.75c0.76599,0 1.41704,0.49213 1.6542,1.17746c0.16848,-0.05398 0.34808,-0.08312 0.53448,-0.08312c0.9665,0 1.75,0.7835 1.75,1.75c0,0.36308 -0.11057,0.70034 -0.29988,0.97994c0.44638,0.31712 0.73762,0.83836 0.73762,1.42761c0,0.9665 -0.7835,1.75 -1.75,1.75c-0.9665,0 -1.75,-0.7835 -1.75,-1.75z"/><path d="M244.35992,125.32843c0,-0.9665 0.7835,-1.75 1.75,-1.75c0.9665,0 1.75,0.7835 1.75,1.75c0,0.9665 -0.7835,1.75 -1.75,1.75c-0.9665,0 -1.75,-0.7835 -1.75,-1.75z"/><path d="M262.68163,134.08315c0,-0.22424 0.14762,-0.41401 0.35098,-0.47742c-0.78985,-0.16899 -1.38211,-0.87096 -1.38211,-1.71126c0,-0.9665 0.7835,-1.75 1.75,-1.75c0.9665,0 1.75,0.7835 1.75,1.75c0,0.95948 -0.77217,1.73862 -1.72898,1.74988c0.15501,0.08492 0.26011,0.24959 0.26011,0.4388c0,0.27614 -0.22386,0.5 -0.5,0.5c-0.27614,0 -0.5,-0.22386 -0.5,-0.5z"/><path d="M266.24672,132.11334c0,-0.9665 0.7835,-1.75 1.75,-1.75c0.9665,0 1.75,0.7835 1.75,1.75c0,0.9665 -0.7835,1.75 -1.75,1.75c-0.9665,0 -1.75,-0.7835 -1.75,-1.75z"/><path d="M259.39861,133.86428c0,-0.08404 0.02074,-0.16324 0.05737,-0.23276c-0.07013,0.00855 -0.14154,0.01295 -0.21397,0.01295c-0.9665,0 -1.75,-0.7835 -1.75,-1.75c0,-0.55548 0.25881,-1.05052 0.66243,-1.3711c-0.14194,0.03716 -0.29091,0.05695 -0.4445,0.05695c-0.9665,0 -1.75,-0.7835 -1.75,-1.75c0,-0.25462 0.05438,-0.49653 0.15215,-0.71477c-0.71575,-0.79685 -1.15121,-1.85056 -1.15121,-3.00599c0,-0.06783 0.0015,-0.1353 0.00447,-0.2024c-0.3143,0.06952 -0.64096,0.10617 -0.97617,0.10617c-0.93025,0 -1.79458,-0.28227 -2.51199,-0.76583c-0.14396,0.03232 -0.29054,0.05773 -0.43935,0.07589c0.69677,0.23074 1.19946,0.88749 1.19946,1.66164c0,0.2344 -0.04609,0.45804 -0.12969,0.66235c0.04313,-0.00318 0.08669,-0.0048 0.13063,-0.0048c0.9665,0 1.75,0.7835 1.75,1.75c0,0.9665 -0.7835,1.75 -1.75,1.75c-0.9665,0 -1.75,-0.7835 -1.75,-1.75c0,-0.2344 0.04609,-0.45804 0.12969,-0.66235c-0.04313,0.00318 -0.08669,0.0048 -0.13063,0.0048c-0.9665,0 -1.75,-0.7835 -1.75,-1.75c0,-0.77416 0.50269,-1.43091 1.19946,-1.66164c-2.22559,-0.27148 -3.94946,-2.16776 -3.94946,-4.46666c0,-0.595 0.11548,-1.16303 0.32524,-1.68289c-1.3587,-0.49789 -2.41045,-1.63225 -2.79411,-3.04194c-0.60365,0.30088 -1.28442,0.47011 -2.00472,0.47011c-1.74533,0 -3.25859,-0.99362 -4.00497,-2.44604c-0.19349,0.02539 -0.39084,0.0385 -0.59126,0.0385c-0.03498,0 -0.06987,-0.0004 -0.10466,-0.00119c-0.81405,0.81221 -1.93756,1.3144 -3.17836,1.3144c-0.03944,0 -0.07876,-0.00051 -0.11796,-0.00152c-0.82477,0.9401 -2.03504,1.53359 -3.38393,1.53359c-1.72759,0 -2.70724,0.02216 -2.40755,0.26261c0.29969,-0.24045 0.68022,-0.3843 1.09434,-0.3843c0.9665,0 1.75,0.7835 1.75,1.75c0,0.9665 -0.7835,1.75 -1.75,1.75c-0.41412,0 -0.79465,-0.14385 -1.09434,-0.3843c-0.29969,0.24045 -0.68022,0.3843 -1.09434,0.3843c-0.72099,0 -1.34015,-0.43601 -1.60818,-1.05875c-0.1984,1.09997 -0.43267,2.21248 -0.78444,3.16925c0.32023,-0.35407 0.78327,-0.57653 1.29827,-0.57653c0.32381,0 0.62707,0.08795 0.88722,0.24125c0.09722,-0.87446 0.8388,-1.55446 1.7392,-1.55446c0.9665,0 1.75,0.7835 1.75,1.75c0,0.9665 -0.7835,1.75 -1.75,1.75c-0.32381,0 -0.62707,-0.08795 -0.88722,-0.24125c-0.05667,0.50968 -0.33223,0.9533 -0.73056,1.23472c0.05502,0.16995 0.08476,0.35128 0.08476,0.53955c0,0.77243 -0.50045,1.42798 -1.19479,1.66009c-0.28211,0.19473 -0.62421,0.30878 -0.99294,0.30878c-0.9665,0 -1.75,-0.7835 -1.75,-1.75c0,-0.76599 0.49213,-1.41704 1.17746,-1.6542c-0.05398,-0.16848 -0.08312,-0.34808 -0.08312,-0.53448c0,-0.06264 0.00329,-0.12451 0.00971,-0.18545c-0.59616,1.08542 -1.45179,1.7879 -2.75704,1.71539c-1.25052,-0.06947 -2.50051,-0.27232 -3.70882,-0.60186c-3.25403,-0.88746 -1.99133,-6.43514 -1.9885,-8.7074c0.00563,-4.51493 -5.03349,-12.88532 2.43735,-14.5455l0.10863,-0.43452c1.20008,-2.25014 1.78781,-4.79382 4.07319,-6.22935c4.25647,-2.67363 9.62986,-1.87118 14.18737,-3.74619c3.9026,-1.60556 6.70165,-5.15762 10.95713,-6.22149c2.56754,-0.64188 6.07422,-0.51643 7.26467,2.13769c0.22431,0.5001 1.03468,-0.36443 1.53869,-0.57981c1.02866,-0.43959 2.33914,-0.83183 3.28458,-1.37124c0.52216,-0.29791 0.89416,-0.64186 1.47096,-0.7371c3.84303,-0.6345 14.48085,-3.19094 17.28955,-1.69297c4.16476,2.22121 1.27054,8.00415 1.54669,11.21781c0.12201,1.41995 1.73014,2.72162 2.0639,4.05666c0.23135,0.92538 0.07021,2.78853 0.12478,3.56523c0.13102,1.86493 2.16173,4.51051 2.62642,6.6016c0.76263,3.43185 -0.11176,13.73175 -2.41357,17.34888c-1.60657,2.52461 -3.25172,3.2292 -4.92438,3.14696c-0.46083,1.99565 -2.24902,3.48341 -4.38469,3.48341c-1.23111,0 -2.34676,-0.49438 -3.15923,-1.29543c-0.67581,0.40562 -1.4669,0.63883 -2.31247,0.63883c-1.76545,0 -3.29344,-1.01665 -4.03047,-2.49644c-0.81897,1.11563 -2.13986,1.83984 -3.62991,1.83984c-0.06089,0 -0.12149,-0.00121 -0.18179,-0.0036c-0.11511,0.23243 -0.28035,0.43563 -0.48158,0.59546c0.14194,-0.03716 0.29091,-0.05695 0.4445,-0.05695c0.9665,0 1.75,0.7835 1.75,1.75c0,0.64932 -0.35363,1.21604 -0.8788,1.51807c0.16876,0.08031 0.28541,0.2524 0.28541,0.45174c0,0.27614 -0.22386,0.5 -0.5,0.5c-0.27614,0 -0.5,-0.22386 -0.5,-0.5z"/><path d="M231.60237,121.82654c0,-0.27614 0.22386,-0.5 0.5,-0.5c0.27614,0 0.5,0.22386 0.5,0.5c0,0.27614 -0.22386,0.5 -0.5,0.5c-0.27614,0 -0.5,-0.22386 -0.5,-0.5z"/><path d="M227.88161,124.67182c0,-0.27614 0.22386,-0.5 0.5,-0.5c0.27614,0 0.5,0.22386 0.5,0.5c0,0.27614 -0.22386,0.5 -0.5,0.5c-0.27614,0 -0.5,-0.22386 -0.5,-0.5z"/><path d="M232.69671,123.79635c0,-0.25624 0.19275,-0.46745 0.44116,-0.49657c0.02912,-0.24841 0.24034,-0.44116 0.49657,-0.44116c0.27614,0 0.5,0.22386 0.5,0.5c0,0.25506 -0.19098,0.46551 -0.43774,0.49616c-0.00114,0.00014 -0.00228,0.00028 -0.00343,0.00041c-0.02912,0.24841 -0.24034,0.44116 -0.49657,0.44116c-0.27614,0 -0.5,-0.22386 -0.5,-0.5z"/><path d="M235.54199,120.95107c0,-0.27614 0.22386,-0.5 0.5,-0.5c0.27614,0 0.5,0.22386 0.5,0.5c0,0.27614 -0.22386,0.5 -0.5,0.5c-0.27614,0 -0.5,-0.22386 -0.5,-0.5z"/><path d="M236.8552,123.35862c0,-0.27614 0.22386,-0.5 0.5,-0.5c0.18843,0 0.35251,0.10423 0.43774,0.25818c0.08523,-0.15395 0.24931,-0.25818 0.43774,-0.25818c0.27614,0 0.5,0.22386 0.5,0.5c0,0.27614 -0.22386,0.5 -0.5,0.5c-0.18843,0 -0.35251,-0.10423 -0.43774,-0.25818c-0.08523,0.15395 -0.24931,0.25818 -0.43774,0.25818c-0.27614,0 -0.5,-0.22386 -0.5,-0.5z"/><path d="M230.94576,119.41899c0,-0.27614 0.22386,-0.5 0.5,-0.5c0.27614,0 0.5,0.22386 0.5,0.5c0,0.27614 -0.22386,0.5 -0.5,0.5c-0.27614,0 -0.5,-0.22386 -0.5,-0.5z"/><path d="M238.16841,122.26428c0,-0.27614 0.22386,-0.5 0.5,-0.5c0.27614,0 0.5,0.22386 0.5,0.5c0,0.27614 -0.22386,0.5 -0.5,0.5c-0.27614,0 -0.5,-0.22386 -0.5,-0.5z"/><path d="M241.01369,124.01522c0,-0.27614 0.22386,-0.5 0.5,-0.5c0.27614,0 0.5,0.22386 0.5,0.5c0,0.27614 -0.22386,0.5 -0.5,0.5c-0.27614,0 -0.5,-0.22386 -0.5,-0.5z"/><path d="M240.57596,125.5473c0,-0.17215 0.087,-0.32398 0.21943,-0.41392c-0.00037,-0.00789 -0.00056,-0.01583 -0.00056,-0.02382c0,-0.27614 0.22386,-0.5 0.5,-0.5c0.27614,0 0.5,0.22386 0.5,0.5c0,0.17215 -0.087,0.32398 -0.21943,0.41392c0.00037,0.00789 0.00056,0.01583 0.00056,0.02382c0,0.27614 -0.22386,0.5 -0.5,0.5c-0.27614,0 -0.5,-0.22386 -0.5,-0.5z"/><path d="M239.48162,122.48314c0,-0.27614 0.22386,-0.5 0.5,-0.5c0.27614,0 0.5,0.22386 0.5,0.5c0,0.27614 -0.22386,0.5 -0.5,0.5c-0.27614,0 -0.5,-0.22386 -0.5,-0.5z"/><path d="M230.07029,124.01522c0,-0.27614 0.22386,-0.5 0.5,-0.5c0.27614,0 0.5,0.22386 0.5,0.5c0,0.27614 -0.22386,0.5 -0.5,0.5c-0.27614,0 -0.5,-0.22386 -0.5,-0.5z"/><path d="M234.22878,125.76616c0,-0.27614 0.22386,-0.5 0.5,-0.5c0.27614,0 0.5,0.22386 0.5,0.5c0,0.27614 -0.22386,0.5 -0.5,0.5c-0.27614,0 -0.5,-0.22386 -0.5,-0.5z"/><path d="M227.88161,126.42277c0,-0.27614 0.22386,-0.5 0.5,-0.5c0.27614,0 0.5,0.22386 0.5,0.5c0,0.27614 -0.22386,0.5 -0.5,0.5c-0.27614,0 -0.5,-0.22386 -0.5,-0.5z"/><path d="M225.47406,127.29824c0,-0.27614 0.22386,-0.5 0.5,-0.5c0.27614,0 0.5,0.22386 0.5,0.5c0,0.27614 -0.22386,0.5 -0.5,0.5c-0.27614,0 -0.5,-0.22386 -0.5,-0.5z"/><path d="M231.3835,126.42277c0,-0.27614 0.22386,-0.5 0.5,-0.5c0.27614,0 0.5,0.22386 0.5,0.5c0,0.27614 -0.22386,0.5 -0.5,0.5c-0.27614,0 -0.5,-0.22386 -0.5,-0.5z"/><path d="M234.88539,123.57748c0,-0.27614 0.22386,-0.5 0.5,-0.5c0.27614,0 0.5,0.22386 0.5,0.5c0,0.27614 -0.22386,0.5 -0.5,0.5c-0.27614,0 -0.5,-0.22386 -0.5,-0.5z"/><path d="M236.41746,125.10956c0,-0.27614 0.22386,-0.5 0.5,-0.5c0.27614,0 0.5,0.22386 0.5,0.5c0,0.27614 -0.22386,0.5 -0.5,0.5c-0.27614,0 -0.5,-0.22386 -0.5,-0.5z"/><path d="M238.16841,125.10956c0,-0.27614 0.22386,-0.5 0.5,-0.5c0.27614,0 0.5,0.22386 0.5,0.5c0,0.27614 -0.22386,0.5 -0.5,0.5c-0.27614,0 -0.5,-0.22386 -0.5,-0.5z"/><path d="M244.73445,118.54352c0,-0.27614 0.22386,-0.5 0.5,-0.5c0.27614,0 0.5,0.22386 0.5,0.5c0,0.27614 -0.22386,0.5 -0.5,0.5c-0.27614,0 -0.5,-0.22386 -0.5,-0.5z"/><path d="M245.17219,121.3888c0,-0.27614 0.22386,-0.5 0.5,-0.5c0.27614,0 0.5,0.22386 0.5,0.5c0,0.27614 -0.22386,0.5 -0.5,0.5c-0.27614,0 -0.5,-0.22386 -0.5,-0.5z"/><path d="M243.20237,124.89069c0,-0.27614 0.22386,-0.5 0.5,-0.5c0.27614,0 0.5,0.22386 0.5,0.5c0,0.27614 -0.22386,0.5 -0.5,0.5c-0.27614,0 -0.5,-0.22386 -0.5,-0.5z"/><path d="M254.14577,130.14352c0,-0.27614 0.22386,-0.5 0.5,-0.5c0.27614,0 0.5,0.22386 0.5,0.5c0,0.27614 -0.22386,0.5 -0.5,0.5c-0.27614,0 -0.5,-0.22386 -0.5,-0.5z"/><path d="M253.48917,126.64164c0,-0.27614 0.22386,-0.5 0.5,-0.5c0.27614,0 0.5,0.22386 0.5,0.5c0,0.27614 -0.22386,0.5 -0.5,0.5c-0.27614,0 -0.5,-0.22386 -0.5,-0.5z"/><path d="M245.60992,129.04918c0,-0.27614 0.22386,-0.5 0.5,-0.5c0.27614,0 0.5,0.22386 0.5,0.5c0,0.27614 -0.22386,0.5 -0.5,0.5c-0.27614,0 -0.5,-0.22386 -0.5,-0.5z"/><path d="M242.54577,127.95484c0,-0.27614 0.22386,-0.5 0.5,-0.5c0.27614,0 0.5,0.22386 0.5,0.5c0,0.27614 -0.22386,0.5 -0.5,0.5c-0.27614,0 -0.5,-0.22386 -0.5,-0.5z"/><path d="M246.70426,128.83032c0,-0.27614 0.22386,-0.5 0.5,-0.5c0.27614,0 0.5,0.22386 0.5,0.5c0,0.27614 -0.22386,0.5 -0.5,0.5c-0.27614,0 -0.5,-0.22386 -0.5,-0.5z"/><path d="M248.23634,129.48692c0,-0.27614 0.22386,-0.5 0.5,-0.5c0.27614,0 0.5,0.22386 0.5,0.5c0,0.27614 -0.22386,0.5 -0.5,0.5c-0.27614,0 -0.5,-0.22386 -0.5,-0.5z"/><path d="M250.64389,130.58126c0,-0.27614 0.22386,-0.5 0.5,-0.5c0.27614,0 0.5,0.22386 0.5,0.5c0,0.27614 -0.22386,0.5 -0.5,0.5c-0.27614,0 -0.5,-0.22386 -0.5,-0.5z"/><path d="M252.39483,131.89447c0,-0.27614 0.22386,-0.5 0.5,-0.5c0.27614,0 0.5,0.22386 0.5,0.5c0,0.27614 -0.22386,0.5 -0.5,0.5c-0.27614,0 -0.5,-0.22386 -0.5,-0.5z"/><path d="M256.11559,133.20768c0,-0.27614 0.22386,-0.5 0.5,-0.5c0.27614,0 0.5,0.22386 0.5,0.5c0,0.27614 -0.22386,0.5 -0.5,0.5c-0.27614,0 -0.5,-0.22386 -0.5,-0.5z"/><path d="M260.71181,133.86428c0,-0.27614 0.22386,-0.5 0.5,-0.5c0.27614,0 0.5,0.22386 0.5,0.5c0,0.27614 -0.22386,0.5 -0.5,0.5c-0.27614,0 -0.5,-0.22386 -0.5,-0.5z"/><path d="M265.74578,134.302c0,-0.27614 0.22386,-0.5 0.5,-0.5c0.27614,0 0.5,0.22386 0.5,0.5c0,0.27614 -0.22386,0.5 -0.5,0.5c-0.27614,0 -0.5,-0.22386 -0.5,-0.5z"/><path d="M267.05897,134.73975c0,-0.27614 0.22386,-0.5 0.5,-0.5c0.27614,0 0.5,0.22386 0.5,0.5c0,0.27614 -0.22386,0.5 -0.5,0.5c-0.27614,0 -0.5,-0.22386 -0.5,-0.5z"/><path d="M270.77974,134.73975c0,-0.27614 0.22386,-0.5 0.5,-0.5c0.27614,0 0.5,0.22386 0.5,0.5c0,0.27614 -0.22386,0.5 -0.5,0.5c-0.27614,0 -0.5,-0.22386 -0.5,-0.5z"/></g><path d="M226.2233,117.05485c0.07093,-4.89188 4.83834,-8.93609 10.21137,-8.8582c5.37302,0.0779 9.02724,4.2484 8.95632,9.14029c-0.07093,4.89188 -4.12352,8.79439 -9.49655,8.7165c-5.37302,-0.0779 -9.74207,-4.1067 -9.67114,-8.99859z" fill="#ffffff" stroke="#000000" stroke-width="1.4" stroke-linecap="butt"/><path d="M234.16093,117.6728c0.03999,-2.75843 2.30855,-4.96213 5.06696,-4.92214c2.75843,0.03999 4.96213,2.30855 4.92214,5.06696c-0.03999,2.75843 -2.30854,4.96213 -5.06696,4.92214c-2.75843,-0.03999 -4.96213,-2.30855 -4.92214,-5.06696z" fill="#000000" stroke="none" stroke-width="1.5" stroke-linecap="butt"/><path d="M253.27958,117.05559c0.20353,-4.88817 4.45264,-8.85847 9.77048,-8.85847c5.31783,0 9.27453,3.96607 9.27453,8.85847c0,4.8924 -3.88585,9.07104 -9.69964,9.14188c-5.52997,0.06739 -9.55792,-4.03692 -9.34537,-9.14188z" fill="#000000" stroke="#ffffff" stroke-width="1.4" stroke-linecap="butt"/><path d="M261.04898,117.64113c0,-2.81845 2.2848,-5.10325 5.10325,-5.10325c2.81845,0 5.10325,2.2848 5.10325,5.10325c0,2.81845 -2.28479,5.10325 -5.10325,5.10325c-2.81845,0 -5.10325,-2.2848 -5.10325,-5.10325z" fill="#ffffff" stroke="none" stroke-width="1.5" stroke-linecap="butt"/><path d="M236.41656,108.52864c5.37302,0.0779 9.02724,4.2484 8.95632,9.14029c-0.01179,0.81288 -0.13351,1.59846 -0.35298,2.34298c-0.28549,-0.01631 -0.57364,-0.03928 -0.86547,-0.0727c-1.36208,-0.15597 -1.81023,-1.66428 -3.32012,-0.66009c-1.49116,0.99411 -1.47301,-0.78957 -2.74936,-1.6286c-0.55137,-0.36245 -2.9339,0.3047 -3.33888,0.70967c-1.36211,0.91348 -0.92145,-0.92248 -1.69398,-1.53643c-0.32733,-0.26014 -3.43719,-0.54454 -3.57581,-0.43091c-0.35248,0.36042 -1.92497,-0.08652 -3.05656,-0.6968c0.98984,-4.09805 5.25777,-7.23611 9.99684,-7.16741z" fill="#000000" stroke="#ffffff" stroke-width="1.4" stroke-linecap="butt"/><path d="M239.20978,113.08265c2.75843,0.03999 4.96213,2.30855 4.92214,5.06696c-0.00983,0.67798 -0.15429,1.32245 -0.40756,1.90833c-0.9084,0.1701 -0.90007,-2.53562 -3.97275,-1.07409c-0.55137,-0.36245 -2.10057,-1.86197 -2.50555,-1.457c-1.36211,0.91348 -1.75478,1.24419 -2.52731,0.63024c-0.1913,-0.15204 0.50023,-1.14569 -0.44334,-1.23001c0.52584,-2.23239 2.54657,-3.87905 4.93437,-3.84444z" fill="#ffffff" stroke="none" stroke-width="1.5" stroke-linecap="butt"/></g></g></svg>