<svg version="1.1" xmlns="http://www.w3.org/2000/svg" xmlns:xlink="http://www.w3.org/1999/xlink" width="35.67311" height="35.67311" viewBox="0,0,35.67311,35.67311"><g transform="translate(-222.16345,-162.16345)"><g data-paper-data="{&quot;isPaintingLayer&quot;:true}" stroke-miterlimit="10" stroke-dasharray="" stroke-dashoffset="0" style="mix-blend-mode: normal"><path d="M229.98311,162.91345h20.03379c3.9166,0 7.06966,3.15307 7.06966,7.06966v20.03379c0,3.91659 -3.15306,7.06966 -7.06966,7.06966h-20.03379c-3.91659,0 -7.06966,-3.15307 -7.06966,-7.06966v-20.03379c0,-3.91659 3.15307,-7.06966 7.06966,-7.06966z" fill="#000000" fill-rule="evenodd" stroke="#ffffff" stroke-width="1.5" stroke-linecap="round" stroke-linejoin="round"/><g fill="#ffffff" fill-rule="nonzero" stroke="#000000" stroke-width="0" stroke-linecap="butt" stroke-linejoin="miter"><path d="M235.05622,192.60298l-6.30764,-12.10775c0,0 1.98514,-2.92215 4.26709,-0.48497c1.79379,1.9158 3.48061,8.65113 4.27661,8.23644c1.29748,-0.67594 3.73036,-2.57501 6.64866,-3.76788c1.96154,-0.80179 4.00327,-0.83091 4.92762,-2.86276c0.58044,-1.27589 -2.62166,-5.74052 -3.11477,-8.10446c-0.66163,-3.17181 2.19,-3.01629 2.19,-3.01629l6.30764,12.10775z"/><path d="M239.52831,183.89042l-8.923,-17.12803l5.02029,-2.61536l8.92301,17.12803z"/></g><g fill="#ffffff" fill-rule="nonzero" stroke="#000000" stroke-width="1.5" stroke-linecap="butt" stroke-linejoin="miter"><path d="M234.68121,194.97798l-6.30764,-12.10775c0,0 1.98514,-2.92215 4.26709,-0.48498c1.79378,1.9158 3.48061,8.65113 4.27661,8.23644c1.29748,-0.67594 3.73035,-2.57501 6.64866,-3.76787c1.96154,-0.80179 4.00327,-0.8309 4.92762,-2.86277c0.58044,-1.27589 -2.62166,-5.74053 -3.11477,-8.10445c-0.66163,-3.17181 2.19001,-3.01629 2.19001,-3.01629l6.30764,12.10775z"/><path d="M239.15331,186.26542l-8.923,-17.12803l5.02029,-2.61536l8.923,17.12803z"/></g></g></g></svg>