<svg version="1.1" xmlns="http://www.w3.org/2000/svg" xmlns:xlink="http://www.w3.org/1999/xlink" width="275.99264" height="396.2057" viewBox="0,0,275.99264,396.2057"><defs><linearGradient x1="409.57596" y1="226.84072" x2="402.03181" y2="283.6424" gradientUnits="userSpaceOnUse" id="color-1"><stop offset="0" stop-color="#1a1a1a"/><stop offset="1" stop-color="#3c3c3c"/></linearGradient><radialGradient cx="395.3449" cy="229.20432" r="9.58478" gradientUnits="userSpaceOnUse" id="color-2"><stop offset="0" stop-color="#ffffff"/><stop offset="1" stop-color="#ff9090"/></radialGradient><radialGradient cx="421.42485" cy="236.1575" r="9.52652" gradientUnits="userSpaceOnUse" id="color-3"><stop offset="0" stop-color="#ffffff"/><stop offset="1" stop-color="#ff9090"/></radialGradient><linearGradient x1="207.29323" y1="122.93351" x2="207.29323" y2="135.44708" gradientUnits="userSpaceOnUse" id="color-4"><stop offset="0" stop-color="#000000"/><stop offset="1" stop-color="#000000" stop-opacity="0"/></linearGradient><linearGradient x1="278.65976" y1="122.36182" x2="278.65976" y2="134.87543" gradientUnits="userSpaceOnUse" id="color-5"><stop offset="0" stop-color="#000000"/><stop offset="1" stop-color="#000000" stop-opacity="0"/></linearGradient><linearGradient x1="242.39887" y1="120.12756" x2="242.39887" y2="132.64118" gradientUnits="userSpaceOnUse" id="color-6"><stop offset="0" stop-color="#000000"/><stop offset="1" stop-color="#000000" stop-opacity="0"/></linearGradient><linearGradient x1="255.31628" y1="-12.05868" x2="251.3157" y2="4.24672" gradientUnits="userSpaceOnUse" id="color-7"><stop offset="0" stop-color="#000000"/><stop offset="1" stop-color="#000000" stop-opacity="0"/></linearGradient><radialGradient cx="269.80897" cy="-6.80037" r="12.20725" gradientUnits="userSpaceOnUse" id="color-8"><stop offset="0" stop-color="#ffffff"/><stop offset="1" stop-color="#ffffff" stop-opacity="0"/></radialGradient></defs><g transform="translate(-185.40046,82.47807)"><g data-paper-data="{&quot;isPaintingLayer&quot;:true}" fill-rule="nonzero" stroke-linejoin="miter" stroke-miterlimit="10" stroke-dasharray="" stroke-dashoffset="0" style="mix-blend-mode: normal"><g fill="#884545" stroke="none" stroke-linecap="butt"><path d="M326.72848,147.7473c0.39629,-2.98375 3.13635,-5.08131 6.1201,-4.68502c2.98375,0.39629 5.08131,3.13635 4.68502,6.1201c-0.39629,2.98375 -3.13635,5.08131 -6.1201,4.68502c-2.98375,-0.39629 -5.08131,-3.13635 -4.68502,-6.1201z" stroke-width="NaN"/><path d="M328.05278,152.9671c0.39629,-2.98375 3.13635,-5.08131 6.1201,-4.68502c2.98375,0.39629 5.08131,3.13635 4.68502,6.1201c-0.39629,2.98375 -3.13635,5.08131 -6.1201,4.68502c-2.98375,-0.39629 -5.0813,-3.13635 -4.68501,-6.1201z" stroke-width="NaN"/><path d="M326.08235,158.03749c0.39629,-2.98375 3.13635,-5.08131 6.1201,-4.68502c2.98375,0.39629 5.08131,3.13635 4.68502,6.1201c-0.39629,2.98375 -3.93327,10.322 -6.91702,9.92571c-2.98375,-0.39629 -4.28438,-8.37705 -3.88809,-11.3608z" stroke-width="NaN"/></g><path d="M202.29447,57.49634c-0.05451,-8.15261 8.18688,-36.76129 40.20201,-36.9211c31.60235,-0.15775 39.85672,29.48704 39.84884,36.89673c-0.05736,34.62977 -10.0012,3.23952 -10.0012,3.23952c0,0 0.07549,-3.0993 -2.81625,-3.15415c-3.43441,-0.06514 -2.94538,3.11562 -2.94538,3.11562l0.20548,233.48857l-13.8813,0.01861c0,0 0.21589,-117.83923 -1.38705,-120.78745c-1.39677,-2.56902 -15.74072,-3.02726 -17.44438,0.38226c-1.38152,2.76483 -1.66921,120.43134 -1.66921,120.43134l-13.83171,0.02746l-0.30539,-233.85171c0,0 0.27949,-2.919 -2.8856,-2.93443c-3.11083,-0.01515 -2.81569,2.90899 -2.81569,2.90899l0.30585,202.41004l-9.87984,0.19394c0,0 -0.57906,-187.49907 -0.69918,-205.46423z" fill="#ffffff" stroke="#000000" stroke-width="2" stroke-linecap="butt"/><path d="M251.70056,190.18132c0,0 -5.7036,0.55803 -9.35738,0.68936c-3.65377,0.13133 -8.08701,-0.06232 -8.08701,-0.06232l1.37933,0.92403c0,0 -0.21669,13.39057 -0.68062,21.94242c-0.46393,8.55183 -1.22172,21.02415 -1.22172,21.02415c0,0 -5.35889,1.59658 -7.93692,1.68824c-2.44955,0.0871 -7.16553,-1.15122 -7.16553,-1.15122c0,0 -0.42435,-8.9643 -0.63825,-20.54023c-0.13599,-7.35937 0.01439,-15.7743 -0.06214,-23.61243c-0.09072,-9.29111 -0.399,-17.77175 -0.44692,-22.72307c-0.08258,-8.53185 0.30881,-19.75313 0.30881,-19.75313c0,0 4.82167,-1.60752 9.99322,-1.26618c4.89872,0.32333 10.67217,1.57171 14.58206,1.55703c3.86945,-0.01453 9.61427,-1.2906 14.58028,-1.6423c5.4901,-0.38882 10.65332,0.759 10.65332,0.759c0,0 0.40433,11.73522 0.33242,20.55586c-0.03362,4.12464 -0.28132,11.83877 -0.29976,19.18391c-0.01948,7.75913 0.18789,15.24909 0.05527,23.16466c-0.22677,13.53594 -0.8023,24.71884 -0.8023,24.71884c0,0 -4.10221,1.13046 -6.38287,0.97725c-2.63419,-0.17696 -8.51504,-1.97805 -8.51504,-1.97805c0,0 -0.44941,-13.52092 -0.95691,-22.34953c-0.5075,-8.82863 -0.8211,-21.00743 -0.8211,-21.00743z" fill="#ab0000" stroke="#bd0000" stroke-width="2" stroke-linecap="butt"/><g><g><path d="M380.67462,311.7822l13.71917,-52.01963l12.65787,3.33827l-11.72652,44.46398l-2.49006,4.7784l-1.36689,-6.3944l-0.13986,7.7788l-1.65254,-5.46862l-0.46413,5.33388l-1.9501,-6.44644l-2.0545,5.91783l-0.36266,-5.77096z" fill="#a2a2a2" stroke="none" stroke-width="0" stroke-linecap="butt"/><path d="M389.66323,274.09026l14.53675,3.8338" fill="none" stroke="#7a7a7a" stroke-width="4" stroke-linecap="round"/><path d="M406.5698,269.81792l-14.53676,-3.8338" fill="none" stroke="#7a7a7a" stroke-width="4" stroke-linecap="round"/><path d="M385.08738,289.51301l14.53677,3.83379" fill="none" stroke="#7a7a7a" stroke-width="4" stroke-linecap="round"/><path d="M387.45717,281.4069l14.53675,3.8338" fill="none" stroke="#7a7a7a" stroke-width="4" stroke-linecap="round"/><path d="M397.35308,301.63455l-14.53676,-3.8338" fill="none" stroke="#7a7a7a" stroke-width="4" stroke-linecap="round"/></g><g stroke="none" stroke-width="0.5" stroke-linecap="butt"><path d="M368.25149,277.66966c-0.09457,-0.18523 0.13292,-0.2321 0.13292,-0.2321l0.08833,-0.0182c0.77219,-0.15888 1.94245,-0.13863 2.56056,-0.52419c0.9335,-0.58227 0.24168,-2.42391 0.47286,-3.25389c0.44085,-0.81296 2.35324,-0.47456 3.45482,-0.64239c1.65221,-0.25175 3.77941,-1.11619 5.23992,-1.70664c0.74796,-1.30203 0.21898,-2.29444 0.58011,-3.62378c0.32309,-1.18926 1.2226,-2.03953 1.53942,-3.25213c0.56487,-2.16195 -0.02571,-4.21402 1.93849,-5.94345c0,0 0.1506,-0.1326 0.34556,0.00498c0.19498,0.13758 0.04438,0.27017 0.04438,0.27017c-1.89924,1.67224 -1.2974,3.70001 -1.8448,5.79519c-0.33358,1.27674 -1.83405,2.50082 -1.70793,3.85706c0.12403,1.33363 0.24682,1.98698 -0.51373,3.17432c-1.56497,0.69603 -4.08866,1.65475 -5.94671,1.85135c-0.71434,0.07559 -2.44945,-0.14511 -2.655,0.37071c-0.27838,0.98666 0.48495,2.68006 -0.59996,3.40585c-0.65025,0.435 -1.88779,0.41586 -2.71886,0.58733l-0.08834,0.0182c0,0 -0.22749,0.04687 -0.32206,-0.13836z" fill="#0015ff"/><path d="M377.46063,287.07527c-0.24173,-0.06375 -0.19422,-0.24388 -0.19422,-0.24388l0.0944,-0.35796c0.20503,-0.77669 0.53048,-1.61699 1.11022,-2.24058c0.71469,-0.75852 1.93127,-1.21681 2.60565,-1.94998c1.05538,-1.14735 0.59817,-3.03996 0.37279,-4.42712c-0.41046,-2.64558 2.45033,-4.65358 1.23283,-7.25491c-0.76183,-2.1711 -0.04755,-5.35179 3.8685,-4.35612c0,0 0.24173,0.06375 0.19423,0.24388c-0.0475,0.18012 -0.28924,0.11637 -0.28924,0.11637c-3.54048,-0.97871 -3.94259,2.108 -3.30544,3.93059c1.26423,2.69594 -1.62919,4.63917 -1.21191,7.32886c0.24118,1.48441 0.67777,3.4466 -0.44663,4.66899c-0.68058,0.73989 -1.89275,1.18809 -2.60793,1.95244c-0.551,0.57997 -0.84745,1.3872 -1.0396,2.11511l-0.0944,0.35793c0,0 -0.04749,0.18011 -0.28924,0.11636z" fill="#ff0000"/><path d="M387.04357,293.26814c-0.08439,0.16807 -0.31584,0.07717 -0.31584,0.07717l-0.46817,-0.18719c-1.82471,-1.3999 -2.42375,-2.01408 -1.94488,-3.82984c0.54987,-2.08496 2.27577,-4.79067 4.24261,-6.20546c1.11608,-2.39454 0.39789,-4.87665 1.03537,-7.31347c0.51722,-1.96119 1.18153,-4.71329 3.90418,-5.27575c0,0 0.22748,-0.04687 0.32206,0.13836c0.09457,0.18523 -0.13293,0.23211 -0.13293,0.23211c-2.54805,0.52361 -3.12646,3.19993 -3.60984,5.0328c-0.65844,2.47493 0.11063,5.00618 -1.09526,7.42694c-1.92039,1.44592 -3.6334,4.00911 -4.18271,6.09198c-0.44243,1.67756 0.04622,2.09005 1.71118,3.40465l0.38718,0.14873c0,0 0.23146,0.0909 0.14706,0.25897z" fill="#ff0000"/><path d="M395.01381,295.14987c-0.23917,-0.07235 -0.18008,-0.2492 -0.18008,-0.2492l0.10213,-0.29946c0.6479,-0.84795 1.1791,-1.58656 2.03734,-2.33818c1.18634,-0.93319 2.34432,-1.85767 3.68564,-2.66206c0.16933,-0.10155 1.78471,-0.81339 1.78635,-0.82488c0.08161,-0.57307 -1.092,-0.96316 -1.46232,-1.51706c-1.26432,-1.89713 -0.45261,-2.91983 0.03173,-4.75634c0.18921,-0.71743 0.85426,-1.88207 0.24545,-2.61165c-1.11961,-1.41278 -4.82425,-5.43795 -2.38763,-6.51194c0,0 0.20452,-0.08229 0.34186,0.09016c0.13734,0.17244 -0.06717,0.25473 -0.06717,0.25473c-2.10127,0.72992 1.69643,4.96154 2.52262,6.00327c1.74275,2.28489 -1.94317,4.86541 -0.25569,7.39748c0.19919,0.29994 1.55602,1.50067 1.52301,1.72916c-0.02837,0.19629 -1.34684,0.7173 -1.57959,0.85188c-1.46838,0.84904 -2.72163,1.83242 -4.00211,2.83904c-0.82777,0.72539 -1.33716,1.42661 -1.9598,2.24438l-0.08349,0.25615c0,0 -0.05909,0.17685 -0.29826,0.1045z" fill="#ff0000"/><path d="M412.80332,298.56546c-0.24342,-0.05654 -0.20559,-0.23906 -0.20559,-0.23906l0.02757,-0.08438c-0.06042,-0.37714 -0.20437,-0.68587 -0.36883,-1.05476c-1.37491,-2.37142 -1.47371,-5.34324 -3.07374,-7.5602c-0.36579,-0.71428 -1.04226,-1.52026 -1.05096,-2.27097c-0.01237,-1.06721 0.78356,-1.49358 1.43913,-2.15358c0.46684,-0.47001 0.58282,-2.06262 0.59102,-2.6958c-2.82428,-2.81634 -1.0708,-4.63383 -0.35959,-7.36165c0.50383,-2.17369 -0.47586,-4.64459 0.07521,-6.7669c0,0 0.0475,-0.18011 0.28924,-0.11636c0.24174,0.06375 0.19423,0.24388 0.19423,0.24388c-0.56545,2.10764 0.42862,4.59438 -0.07408,6.76248c-0.73001,2.80066 -2.31911,4.27398 0.33689,7.15912c0.04213,0.74643 -0.09226,2.45601 -0.64394,3.03231c-0.59529,0.62186 -1.3671,0.94048 -1.35542,1.94881c0.0079,0.68087 0.66879,1.45047 0.99894,2.09933c1.57979,2.26779 1.69991,5.1828 3.08785,7.58546c0.18001,0.40233 0.33363,0.74409 0.40276,1.15591l-0.02941,0.19041c0,0 -0.03785,0.18252 -0.28129,0.12598z" fill="#0015ff"/><path d="M422.80684,293.14794c-0.0475,0.18012 -0.28924,0.11637 -0.28924,0.11637l-0.4808,-0.1268c-0.55791,-0.14973 -1.08379,-0.38209 -1.6093,-0.60782c-3.68582,-1.61138 -3.16727,-4.76554 -2.42532,-7.08983c-1.52494,-1.9908 -2.82438,-5.30512 -3.11114,-7.50353c-0.30273,-2.34784 -0.92888,-4.51354 -0.3402,-6.74563c0,0 0.0475,-0.18011 0.28924,-0.11637c0.24174,0.06375 0.19423,0.24388 0.19423,0.24388c-0.57819,2.19238 0.0493,4.32708 0.34698,6.63573c0.29826,2.34263 1.71715,5.29496 3.1071,7.47962c-0.49376,2.18841 -1.5075,5.23926 2.12709,6.7679c0.49445,0.21248 0.99166,0.43704 1.51719,0.57605l0.47994,0.12657c0,0 0.24173,0.06375 0.19423,0.24388z" fill="#0015ff"/><path d="M403.74507,302.03658c-0.21359,-0.11833 -0.09082,-0.26836 -0.09082,-0.26836l0.00716,-0.00874c1.60465,-1.92516 0.84181,-5.21063 1.43099,-7.44466c0.60387,-2.28973 -0.34379,-5.49401 0.94782,-7.46629c1.58957,-2.77744 1.44243,-3.80818 -0.55403,-6.8308c-1.62656,-2.46638 -1.17152,-4.18355 -0.54458,-6.56073c0,0 0.0475,-0.18011 0.28924,-0.11636c0.24174,0.06375 0.19423,0.24388 0.19423,0.24388c-0.60554,2.29603 -1.07861,3.92058 0.49335,6.30055c2.06112,3.12557 2.21883,4.29415 0.57265,7.16692c-1.26835,1.92147 -0.32334,5.1462 -0.91518,7.39036c-0.60899,2.30912 0.13324,5.54223 -1.4873,7.55381l-0.00715,0.00875c0,0 -0.12277,0.15003 -0.33635,0.03169z" fill="#0015ff"/><path d="M396.35554,301.19054c-0.20498,0.0817 -0.34163,-0.09102 -0.34163,-0.09102l-0.1283,-0.16217c-1.15602,-1.46116 -3.03691,-3.64118 -2.97408,-5.23981c0.6264,-2.39659 1.59029,-4.73457 2.24099,-7.20187c0.26248,-0.99523 0.71333,-2.04633 0.65623,-3.10659c-0.0739,-1.37235 -1.39392,-2.9074 -1.78033,-4.2984c0.51353,-2.05854 0.72894,-4.5564 2.49007,-6.1129c0,0 0.1506,-0.1326 0.34556,0.00498c0.19498,0.13758 0.04437,0.27017 0.04437,0.27017c-1.71217,1.50127 -1.83276,3.91687 -2.38735,5.88724c0.42351,1.38218 1.70144,2.9064 1.77956,4.28239c0.06212,1.0942 -0.39384,2.1738 -0.66465,3.20061c-0.64787,2.45658 -1.60013,4.78836 -2.23478,7.17162c-0.05181,1.4895 1.81426,3.61396 2.89436,4.97914l0.12831,0.16217c0,0 0.13665,0.17272 -0.06833,0.25443z" fill="#ff0000"/><path d="M385.90863,280.05012c-0.0475,0.18012 -0.28924,0.11637 -0.28924,0.11637l-0.47418,-0.12506c-0.33673,-0.08881 -0.67319,-0.17867 -1.00942,-0.26932c-1.26329,-0.72841 -0.94363,-1.05148 -1.36427,-1.97941c-0.22399,-0.49411 -1.05433,-0.96131 -1.40447,-1.46118c-0.91,-1.29919 -0.65746,-2.5558 -0.32525,-3.81546c0.7589,-2.87758 -0.8777,-4.53134 -1.78889,-7.44272c-0.77856,-2.50033 -0.0208,-4.68912 3.22477,-5.3578c0,0 0.22749,-0.04687 0.32205,0.13836c0.09457,0.18523 -0.13292,0.23211 -0.13292,0.23211c-3.02434,0.6231 -3.65613,2.63658 -2.93563,4.95046c0.91836,2.96569 2.57158,4.6591 1.79408,7.6071c-0.24476,0.92807 -0.51051,1.86318 -0.16414,2.8714c0.3053,0.88869 1.51437,1.41048 1.87159,2.19681c0.38832,0.85479 -0.04726,1.0485 1.08304,1.72872c0.30842,0.07916 0.61654,0.15949 0.92444,0.24069l0.47418,0.12506c0,0 0.24173,0.06375 0.19422,0.24388z" fill="#ff0000"/><path d="M381.15858,286.57449c-0.11391,-0.18048 0.10452,-0.24322 0.10452,-0.24322l0.05274,-0.01515c0.5971,-0.1715 1.19266,-0.32143 1.81169,-0.45507c0.64311,-0.02646 1.23064,-0.37568 1.85438,-0.36777c1.52897,0.01939 3.14297,1.16688 4.67899,1.34863c0.96594,0.1143 2.16943,-0.44013 3.07618,-0.59644c0.44145,-0.0006 1.41032,0.08443 1.71538,-0.19263c0.5033,-0.45709 0.51336,-2.05865 0.68634,-2.69433c0.30734,-1.1294 1.14364,-2.00171 2.04047,-2.84309c2.22594,-2.08821 3.7625,-3.58094 4.50066,-6.37986c0.59189,-2.24431 2.04542,-3.88203 3.42182,-5.79372c0,0 0.11209,-0.15568 0.33148,-0.04489c0.21938,0.11078 0.10729,0.26645 0.10729,0.26645c-1.35518,1.88222 -2.7945,3.49058 -3.37711,5.69967c-0.75163,2.84999 -2.32196,4.39612 -4.58617,6.52023c-0.85345,0.80061 -1.66612,1.62756 -1.9554,2.7044c-0.19025,0.70819 -0.20216,2.31611 -0.77547,2.83677c-0.39853,0.36193 -1.40104,0.30282 -1.98653,0.30101c-0.98588,0.17429 -2.14954,0.70391 -3.21005,0.59316c-1.5073,-0.1574 -3.12269,-1.3248 -4.60397,-1.34326c-0.57882,-0.00721 -1.16176,0.33682 -1.77105,0.3631c-0.59037,0.13037 -1.16017,0.27463 -1.73107,0.4386l-0.05275,0.01515c0,0 -0.21843,0.06274 -0.33235,-0.11774z" fill="#0015ff"/><path d="M391.22578,282.45259c-0.17362,0.11451 -0.3484,-0.03845 -0.3484,-0.03845l-0.06787,-0.05939c-1.32495,-1.16152 -1.86621,-2.47624 -1.91165,-3.9048c0.20678,-0.7966 0.62668,-1.66859 0.66377,-2.49662c0.01699,-0.37931 -0.92338,-1.4034 -1.12551,-1.88013c-0.43365,-1.02276 -0.34266,-2.10173 -0.30356,-3.11413c0.57438,-2.19771 -0.67906,-4.5718 -0.12079,-6.68861c0,0 0.0475,-0.18011 0.28924,-0.11636c0.24174,0.06375 0.19422,0.24388 0.19422,0.24388c-0.55374,2.09967 0.70942,4.47136 0.127,6.65827c-0.02838,0.83283 -0.12131,1.74073 0.12699,2.59068c0.21622,0.74012 1.28096,1.70273 1.30476,2.34774c0.03031,0.82123 -0.45558,1.76147 -0.66513,2.54222c0.05233,1.31628 0.54611,2.52139 1.76788,3.58886l0.06787,0.05939c0,0 0.17478,0.15295 0.00116,0.26747z" fill="#0015ff"/><path d="M399.69963,287.60748c-0.07355,-0.18872 0.16157,-0.21861 0.16157,-0.21861l0.35323,-0.04277c0.74607,-0.30919 1.41347,-0.37698 2.26941,-0.49602c0.777,-0.04091 1.54335,0.37741 2.10167,0.36467c1.16182,-0.0265 1.81497,-0.53304 2.73871,-0.83162c1.33706,-0.43217 2.69648,-0.13745 3.69702,-1.12383c1.82505,-1.78453 -0.62948,-5.07657 0.55904,-7.344c0.58092,-1.10219 4.03221,-4.80868 5.97772,-3.47272c0,0 0.19497,0.13757 0.04438,0.27017c-0.15059,0.1326 -0.34557,-0.00498 -0.34557,-0.00498c-1.43283,-1.04919 -4.77524,2.55644 -5.21615,3.39426c-1.2353,2.33344 1.32328,5.52368 -0.61642,7.42031c-1.07077,1.03939 -2.45129,0.74834 -3.84939,1.2146c-0.93462,0.31169 -1.73323,0.91138 -2.95183,0.85901c-0.73665,-0.03165 -1.13143,-0.4117 -2.01015,-0.36643c-0.83818,0.11758 -1.45217,0.18662 -2.18421,0.48124l-0.42034,0.05555c0,0 -0.23512,0.02988 -0.30867,-0.15883z" fill="#ff0000"/><path d="M396.96734,293.30326c0.0475,-0.18012 0.28924,-0.11637 0.28924,-0.11637l0.16065,0.04237c0.49093,0.12962 0.94914,0.18721 1.4488,0.25515c3.49907,0.91822 5.96818,-1.09708 7.79152,-2.69018c2.24395,-1.7958 6.3163,-0.60418 8.09987,-3.08693c1.31962,-1.83272 2.42089,-3.98723 4.18414,-5.53971c0,0 0.15059,-0.1326 0.34556,0.00498c0.19498,0.13758 0.04438,0.27018 0.04438,0.27018c-1.74432,1.53583 -2.82957,3.67267 -4.13532,5.48614c-1.8453,2.55727 -5.90163,1.34185 -8.15707,3.14765c-1.97117,1.63126 -4.52143,3.76021 -8.22775,2.77744c-0.51287,-0.06839 -0.9836,-0.13233 -1.48847,-0.26428l-0.16132,-0.04255c0,0 -0.24173,-0.06375 -0.19423,-0.24388z" fill="#ff0000"/><path d="M380.09659,285.74976c-0.1506,0.13259 -0.34557,-0.00498 -0.34557,-0.00498l-0.27476,-0.19446c-1.13026,-0.62357 -3.35001,-1.85306 -3.63722,-2.97245c-0.17876,-0.6967 0.45333,-1.84636 0.60609,-2.51831c-0.32597,-1.4658 -1.73869,-3.03369 -1.85534,-4.47757c-0.08232,-1.0189 0.5866,-2.2289 0.82064,-3.20523c0.05447,-2.45395 -0.57491,-5.51005 0.02807,-7.83681c0.36167,-1.37135 0.70921,-2.78968 1.46886,-4.02831c0.30213,-0.49264 1.00671,-1.25678 0.49645,-1.8377c0,0 -0.13734,-0.17244 0.06718,-0.25473c0.20452,-0.08228 0.34186,0.09015 0.34186,0.09015c0.89765,1.20581 -1.53104,4.79369 -1.89088,6.15811c-0.61785,2.29781 0.04262,5.37112 -0.02114,7.80134c-0.22439,0.95351 -0.90037,2.15553 -0.81919,3.14626c0.11789,1.4387 1.54301,3.02772 1.85621,4.49865c-0.52416,2.51828 -0.36829,3.41144 2.81154,5.15279l0.30281,0.21308c0,0 0.19497,0.13757 0.04438,0.27017z" fill="#ff0000"/><path d="M373.59824,281.90801c0.0475,-0.18012 0.28924,-0.11637 0.28924,-0.11637l0.26799,0.07505c1.78619,0.1753 3.5137,0.25693 5.28751,0.29579c1.6387,-0.09307 4.7189,0.14253 5.52422,-1.1264c0.48168,-0.75898 0.51093,-1.96372 0.73654,-2.81914c0.65413,-2.4803 3.09935,-3.96742 3.78267,-6.54899c0.78353,-1.83937 5.22455,-1.77754 6.87552,-3.23967c0,0 0.15059,-0.13259 0.34556,0.00498c0.19498,0.13758 0.04438,0.27017 0.04438,0.27017c-1.53597,1.34526 -6.11089,1.4727 -6.78762,3.11068c-0.67741,2.5785 -3.12795,4.06914 -3.77704,6.53033c-0.23372,0.88621 -0.27126,2.11058 -0.77143,2.8987c-0.90107,1.41981 -4.04592,1.19842 -5.89047,1.30138c-1.79753,-0.03767 -3.55002,-0.1211 -5.36032,-0.29876l-0.3725,-0.09387c0,0 -0.24173,-0.06375 -0.19423,-0.24388z" fill="#0015ff"/><path d="M391.43737,293.50378c-0.0475,0.18012 -0.28924,0.11637 -0.28924,0.11637l-0.53464,-0.14615c-2.18212,-1.52011 -0.88418,-2.59761 -0.4461,-4.25866c0.35999,-1.26074 -0.0994,-2.7417 0.42715,-4.11923c0.39537,-1.03437 1.2923,-1.81872 1.64811,-2.86253c0.89526,-2.6264 -0.14661,-4.78308 1.0524,-7.19156c0.65936,-0.8065 1.78848,-1.55008 2.28166,-2.42293c0.56315,-0.99668 0.55381,-2.05664 1.31477,-3.00502c0,0 0.12151,-0.15073 0.33581,-0.03329c0.2143,0.11745 0.0928,0.26817 0.0928,0.26817c-0.75939,0.93709 -0.72776,1.9744 -1.2871,2.96434c-0.49805,0.88149 -1.62218,1.62839 -2.29094,2.43824c-1.1672,2.3757 -0.12999,4.51265 -1.02161,7.12834c-0.35787,1.04988 -1.25515,1.83505 -1.65157,2.87212c-0.53409,1.39727 -0.09565,2.78353 -0.41801,4.09084c-0.38981,1.47804 -1.6848,2.4747 0.16618,3.80985l0.42611,0.10721c0,0 0.24173,0.06376 0.19423,0.24388z" fill="#ff0000"/><path d="M401.422,294.92597c-0.24174,-0.06375 -0.19423,-0.24388 -0.19423,-0.24388l0.09257,-0.35102c0.12746,-0.4833 0.25478,-0.96663 0.38286,-1.44977c0.89385,-1.98644 2.84514,-4.89024 1.11617,-7.06525c-3.05681,-2.04639 -3.1496,-4.66648 -3.51566,-7.36218c-0.6578,-2.27882 0.36816,-4.49687 0.92853,-6.62168c0,0 0.0475,-0.18012 0.28924,-0.11637c0.24174,0.06375 0.19422,0.24387 0.19422,0.24387c-0.54884,2.08109 -1.56469,4.25702 -0.926,6.48687c0.36698,2.65901 0.42522,5.11342 3.38573,7.14839c1.88905,2.36744 -0.01553,5.27652 -0.99563,7.43604c-0.12485,0.476 -0.2505,0.95176 -0.376,1.42758l-0.09257,0.35103c0,0 -0.0475,0.18012 -0.28924,0.11637z" fill="#0015ff"/><path d="M409.13832,295.96122c-0.06562,-0.18962 0.17184,-0.21315 0.17184,-0.21315l0.23668,0.00584c0.23627,-1.93406 0.23265,-4.83145 1.54868,-6.40899c0.73321,-0.86503 1.85903,-1.47644 2.65639,-2.28984c0.89519,-0.91321 0.90211,-3.01795 1.21131,-4.18349c0.42181,-1.58997 0.86008,-3.15932 2.02409,-4.47121c0.34389,-0.38758 1.24546,-0.6874 1.34184,-1.15741c0,0 0.04749,-0.18011 0.28924,-0.11637c0.24173,0.06375 0.19423,0.24388 0.19423,0.24388c-0.17413,0.57612 -0.99061,0.80763 -1.40633,1.27616c-1.1329,1.27683 -1.54932,2.80585 -1.95971,4.35285c-0.32871,1.23909 -0.34902,3.32667 -1.28472,4.31162c-0.77632,0.81717 -1.91923,1.41274 -2.64216,2.27409c-1.44549,1.69158 -0.91804,4.49005 -1.61156,6.46657l-0.46675,0.07555c0,0 -0.23745,0.02353 -0.30307,-0.16609z" fill="#ff0000"/><path d="M388.99967,299.817c-0.24167,-0.06401 -0.1938,-0.24405 -0.1938,-0.24405l0.08332,-0.28228c0.83445,-0.68154 1.78931,-1.44645 2.24993,-2.35847c0.48573,-0.94118 1.34149,-2.01377 2.50428,-2.53797c0.55819,-0.25165 1.81305,0.01401 2.4169,-0.25971c-1.35335,0.92919 -3.53327,1.17251 -4.45951,2.98187c-0.4755,0.91149 -1.39512,1.72485 -2.26779,2.3886l-0.04383,0.19599c0,0 -0.04785,0.18003 -0.28952,0.11602zM396.29065,293.96256c0.00117,-0.00149 0.00233,-0.00299 0.00347,-0.00449c0.33804,-0.44155 0.40382,-1.40834 0.42129,-1.95593c0.08583,-2.34625 1.98543,-4.85683 0.61022,-7.23345c-0.89817,-1.76648 -1.34636,-5.20593 -0.90567,-6.92326c0,0 0.04749,-0.18012 0.28924,-0.11637c0.24174,0.06375 0.19423,0.24388 0.19423,0.24388c-0.43941,1.61543 0.01483,5.02067 0.87235,6.69284c1.4312,2.47158 -0.49016,4.97182 -0.56781,7.40192c-0.0326,0.89013 -0.39046,1.46536 -0.91731,1.89485zM396.06032,294.13449c0.0798,-0.05479 0.15671,-0.11195 0.23033,-0.17196c-0.05743,0.0732 -0.13592,0.12917 -0.23033,0.17196z" fill="#0015ff"/></g><path d="M455.73808,210.2813c0.94765,0.22061 1.94657,1.7332 2.39773,2.76275l0.11473,-0.0508l0.20165,0.45535c0.0229,0.05054 0.0292,0.10899 0.01396,0.16681c-0.01236,0.04688 -0.03726,0.08713 -0.07014,0.11811c0.01161,0.00593 0.02323,0.01185 0.03487,0.01775c0.50574,0.25695 1.46059,0.42406 2.04669,0.7501c0.09141,0.02509 0.18305,0.0498 0.27492,0.07407l0.00002,0v0l0.45434,0.11996v0c0.13347,0.03524 0.21312,0.17199 0.17792,0.30548c-0.03521,0.13351 -0.17198,0.21319 -0.30549,0.17798l-0.48346,-0.1275l0.00004,-0.00015c-0.1353,-0.0359 -0.27009,-0.0727 -0.40441,-0.11034c-0.64729,-0.10385 -1.27601,-0.31573 -1.89369,-0.59022c-0.23213,-0.07901 -0.4633,-0.15987 -0.69375,-0.2423c-0.04753,0.08717 -0.09583,0.17386 -0.14487,0.26008c-0.07314,0.17129 -0.17928,0.34367 -0.30222,0.51214c-0.61231,1.00287 -1.30718,1.95387 -1.97481,2.92351c-0.42369,0.61016 -1.10083,1.39729 -1.90211,2.21777c0.4825,-0.09719 1.45556,-0.17514 1.5355,0.30194c0.07606,0.45386 -0.63976,0.55368 -1.39685,0.35662c-0.36342,0.10733 -0.71919,0.23344 -1.06709,0.37865c-0.13427,1.5819 -0.01936,3.30056 -0.29067,4.58804c2.05451,-0.81066 0.77081,1.62306 1.13911,2.20103c0.3485,0.54689 -0.5483,3.99229 -1.18146,5.31004c3.10318,-1.18078 1.81099,1.92928 1.23255,4.12259c-0.09767,0.37035 -0.8152,2.01223 -0.8006,2.11981c0.03852,0.28357 0.6319,0.08809 0.79547,0.32289c0.40713,0.58439 -0.18439,1.31341 0.03475,1.92948c0.33347,0.93746 -0.98474,2.45239 -1.98292,1.71613c-0.39203,-0.28916 -0.2621,-0.99058 -0.61614,-1.32518c-0.14744,-0.42534 0.14656,-1.25514 -0.29936,-1.31693c-0.32625,-0.04522 -0.97427,0.92195 -1.37804,0.01069c-0.1939,-0.43759 0.82488,-1.10208 0.42855,-1.37044c-0.46129,-0.31234 -1.12139,0.0945 -1.67125,0.00502c-0.27328,-0.04448 -0.4267,-0.36827 -0.49623,-0.77482c-0.11322,0.91818 -0.12086,1.88159 0.03635,2.72025c0.06267,0.74844 1.47535,2.12486 0.59295,2.89643c-1.16903,1.02223 -5.19071,-2.2719 -6.52099,-2.62384c-3.17677,-1.22894 -6.3571,-2.85486 -9.76337,-3.32039c-3.07975,0.21115 -7.22887,-1.42524 -10.16334,-2.40408c-3.34311,-1.116 -6.62084,-2.25771 -9.85452,-3.6651c-3.24318,-1.41154 -6.23907,-2.9984 -9.19053,-4.94214c-3.22508,-2.12392 -5.45593,-3.33673 -9.16493,-4.31537c-3.71975,-0.98148 -6.36833,-2.18186 -9.18802,-4.83282c-0.88248,-0.83093 -1.20166,-2.33655 -2.32643,-2.92172c-0.83585,-0.43487 -1.36546,0.68893 -2.14836,0.65731c-1.41704,-0.05724 -2.1961,-1.46263 -3.20679,-1.66202c-0.71412,-0.20345 -2.25743,0.04208 -2.85416,-0.58555c-0.46071,-0.48457 0.07229,-1.07924 0.0931,-1.57327c0.02877,-0.6827 -0.69544,-1.12997 -1.08134,-1.54193c-0.11431,-0.12203 -1.38564,0.00594 -2.25736,-0.00549l-0.06172,0.23403l-0.48346,-0.1275v0c-0.13351,-0.03521 -0.21319,-0.17198 -0.17799,-0.30549c0.01578,-0.05984 0.05198,-0.10886 0.09912,-0.14158l0.39464,-0.27773c0.08857,-0.11186 -0.28809,-2.99799 0.25699,-3.95762c0.9275,-1.63289 2.76905,0.01558 3.66121,-1.34996c1.42417,-1.18876 2.67336,-1.08016 4.49069,-1.4804c0.40945,-0.09017 1.43444,-0.9163 1.24965,-1.42649c-0.08636,-0.23843 -2.2,-0.83483 -2.55069,-0.96268c-0.24606,-0.08985 -1.52138,-0.36379 -1.58951,-0.59285c-0.12075,-0.40602 1.21632,-1.46605 1.49039,-1.68339c1.71028,-1.35624 3.87776,-2.48261 4.45661,-4.67747c0.2176,-0.82505 0.39014,-1.72437 0.58901,-2.61972c-0.35202,-0.94001 -0.31947,-2.21108 -0.14845,-2.90842c0.56725,-2.30068 2.13802,-4.3899 3.91172,-6.14733c-1.51347,-0.37851 -3.36153,-0.98922 -3.40706,-1.94631c-0.05865,-1.23295 4.17604,-1.02568 5.00378,-1.07812c0.61249,-0.01239 1.22307,-0.02288 1.83266,-0.02917c1.15323,-1.09565 2.73583,-2.61547 3.80814,-2.72252c0.30021,-1.67779 0.76214,-3.40202 1.40537,-3.73783c0.91694,-0.47868 1.6228,0.94077 1.99997,1.95778c0.15808,-0.4601 0.3136,-0.84367 0.39236,-1.04049c0.29811,-0.74494 2.37985,-4.72095 3.55286,-3.22706c0.17169,0.21865 0.21828,0.67854 0.18047,1.2313c0.40548,-0.48701 0.85632,-0.81894 1.34202,-1.03159c-0.00701,-0.01137 -0.01397,-0.02275 -0.0209,-0.03421c-1.65066,-2.72361 0.78804,-3.19265 2.88295,-2.44121c0.83626,0.29996 2.74798,1.34008 4.23401,2.39452c0.83828,0.05077 1.70877,0.11536 2.58005,0.22473c-0.00345,-0.03006 -0.00148,-0.06125 0.00671,-0.09226c0.0352,-0.13351 0.17198,-0.21319 0.30548,-0.17798c1.28926,0.34001 2.98039,0.78602 4.26963,1.12603c0.703,0.18541 2.28154,0.81592 3.77841,1.24391c0.42676,0.08551 0.86894,0.19052 1.31189,0.31532c0.55178,0.09974 1.04233,0.13379 1.40762,0.05882c-1.0124,-1.19392 -2.23328,-2.94307 -1.25297,-3.45411c0.84615,-0.4411 4.26181,2.31967 4.97506,2.80193c0.13243,0.08953 0.2596,0.18275 0.38222,0.27913c2.57785,0.52296 5.38786,1.08632 7.29758,2.40313c0.89484,0.67304 4.3363,4.27709 2.89526,5.75188c0.36542,0.23645 0.73247,0.36829 1.08745,0.30948c1.05851,-0.17536 0.21931,-5.83316 2.80037,-3.16058c1.26289,1.70942 2.49645,3.71599 3.24899,5.70428c0.09069,0.23962 0.64718,2.07844 0.82583,2.10736c0.39319,0.06365 0.58119,-0.54681 0.84248,-0.84746c1.60684,-2.71982 1.78102,-0.04584 1.66086,1.80407c-0.01084,0.16699 -0.53813,1.64798 -0.49228,1.6921c0.45667,0.43951 2.57187,0.61929 3.25136,0.81451c2.44984,1.0607 3.65585,2.77524 3.56246,5.40158c-0.02251,0.63309 0.79569,0.12727 1.01839,0.57983c0.09973,0.20265 -0.34973,1.59979 -0.41973,1.89374c0.01076,0.08626 0.01696,0.174 0.01903,0.26301c0.05117,0.02733 0.10204,0.05485 0.15257,0.08258c0.24227,0.13292 1.84852,0.72109 1.90558,0.8883c0.2776,0.81351 -1.78198,1.73592 -2.99461,2.33593c-0.08331,0.20853 -0.16151,0.40997 -0.22901,0.60154c-0.13364,0.37919 -0.24783,0.71429 -0.58747,0.97282c-0.20747,0.15794 -0.98749,0.18593 -0.73761,0.26047c1.53876,0.45904 1.95947,0.70975 3.14536,1.78161c0.16796,0.40731 0.80908,2.94099 0.68417,3.13988c-0.42818,0.68174 -2.03503,1.3723 -3.48882,1.84147c-0.00465,0.04026 -0.01016,0.08079 -0.01667,0.12159c-0.05734,0.35974 -0.41469,0.53572 -0.82891,0.64751c0.45215,0.11924 0.90427,0.23848 1.3564,0.35771c0.02912,0.00772 0.05776,0.01553 0.08586,0.02342c0.7111,-0.12827 1.31596,-0.41724 2.06482,-1.19694l0.17146,-0.42802c0.04514,-0.11754 0.17251,-0.18467 0.29704,-0.15183c0.13327,0.03514 0.21291,0.1715 0.17818,0.30478c-0.00001,0.00003 -0.00002,0.00006 -0.00002,0.00009l-0.09361,0.35916c0.05606,0.35206 0.13933,0.66391 0.24869,0.94866z" fill="#000000" stroke="none" stroke-width="0.5" stroke-linecap="butt"/><path d="M368.26818,210.7787c0,0 7.46967,-4.15437 7.81452,-4.95877c0.54784,-1.27791 4.17471,-15.2007 14.79401,-24.23414c6.91245,-5.88016 16.78767,-9.68863 30.70502,-6.58933c43.39355,10.49935 28.59202,43.92562 29.28015,51.1826c0.94352,9.95043 1.51584,18.3949 1.51584,18.3949c0,0 -2.15199,-2.69127 -3.14561,-4.07073c-0.92674,-1.2866 -2.87353,-4.01125 -2.87353,-4.01125c0,0 0.35003,10.79425 -4.00987,20.34506c-3.9284,8.76912 -11.44922,14.79489 -11.44922,14.79489l-0.51842,-2.56434c0,0 -1.54936,1.86448 -2.93853,2.67172c-1.38918,0.80723 -4.06782,1.93951 -4.06782,1.93951l0.85561,-3.60521c0,0 -9.63639,8.85328 -26.31795,4.30241c-15.70199,-4.4053 -22.48724,-16.97079 -22.48724,-16.97079l-0.78937,2.53743c0,0 -2.92631,-4.17709 -3.50155,-10.96292c-0.68561,-8.08791 -0.01019,-12.66455 -0.01019,-12.66455c0,0 -2.74605,1.23988 -6.23552,1.22477c-4.37252,-0.01894 -6.80503,-1.43763 -6.80503,-1.43763c0,0 4.18158,-1.70726 6.61572,-3.18821c2.16814,-1.31911 3.42031,-2.59066 3.42031,-2.59066c0,0 -2.31452,0.51138 -4.50542,0.48505c-2.28596,-0.02746 -4.03224,-0.51434 -4.03224,-0.51434c0,0 6.095,-3.60208 9.57135,-8.72185c3.28224,-4.83389 4.82454,-10.05959 4.82454,-10.05959c0,0 -1.48536,0.29252 -3.4228,-0.08038c-1.22808,-0.23637 -2.28676,-0.65366 -2.28676,-0.65366z" fill="#000000" stroke="none" stroke-width="1.5" stroke-linecap="butt"/><path d="M381.68458,226.19805c1.30184,-7.19927 55.95808,7.61974 54.23945,12.91444c-1.85341,5.37427 -4.87204,8.53959 -6.23903,11.3032c-1.367,2.76361 -1.96097,5.82928 -6.22358,14.94679c-2.66016,5.68997 -6.30012,7.56828 -13.42683,11.62103c-7.12671,4.05276 -11.11401,6.63802 -14.96048,5.69493c-3.70171,-0.90759 -7.3396,-7.21027 -10.82704,-13.59286c-3.71354,-6.79643 -6.41971,-10.46005 -5.53349,-17.11676c0.79813,-5.99506 1.77593,-9.77896 2.80297,-15.0305c0.75062,-3.83821 -0.54288,-6.80859 0.16808,-10.74025z" fill="url(#color-1)" stroke="#000000" stroke-width="1.5" stroke-linecap="butt"/><path d="M431.94852,223.64453c0,0 1.39278,0.69626 3.83196,2.15886c2.2279,1.33592 3.85751,2.821 3.85751,2.821l-0.10981,1.18141c0,0 -6.21176,-4.87523 -13.98602,-6.24362c-6.2161,-1.09411 -10.35098,0.17869 -10.35098,0.17869l1.10937,-4.02707c0,0 3.45868,-0.85032 8.07687,0.2111c4.7821,1.0991 7.67257,2.63496 7.67257,2.63496z" data-paper-data="{&quot;index&quot;:null}" fill="#000000" stroke="none" stroke-width="1.5" stroke-linecap="butt"/><path d="M400.82628,261.50725c-0.99958,-0.26362 -2.58968,-4.05488 -2.29371,-6.15202c0.26482,-1.87636 2.24782,-3.36605 4.63768,-2.73578c2.38988,0.63029 3.93802,1.54612 2.82862,5.07773c-0.94151,2.99718 -2.78274,4.44034 -5.17261,3.81007z" fill="#ffffff" stroke="#000000" stroke-width="1.15" stroke-linecap="butt"/><path d="M411.98353,233.32708c0,0 -0.91312,3.86468 -1.8118,6.89247c-1.77951,5.99556 -8.12501,26.56709 -8.12501,26.56709l-2.88529,-0.75201c0,0 0.28771,-4.23953 1.33647,-9.47214c1.41959,-7.08278 3.72031,-15.86915 4.26825,-19.17789c0.5194,-3.13638 0.59096,-5.75408 0.59096,-5.75408" fill="#ffffff" stroke="#000000" stroke-width="1.3" stroke-linecap="round"/><path d="M386.09575,226.69241c1.31606,-4.71205 6.95718,-7.40682 12.1327,-5.96132c5.17552,1.44551 7.6454,6.40999 6.32933,11.12206c-1.31606,4.71205 -6.22986,7.45208 -11.40537,6.00659c-5.17552,-1.44551 -8.37273,-6.45526 -7.05666,-11.16733z" fill="url(#color-2)" stroke="#000000" stroke-width="1.4" stroke-linecap="butt"/><path d="M386.2575,227.32551c1.1959,-4.28184 5.63647,-6.78346 9.91827,-5.58756c4.28184,1.19591 6.78346,5.63647 5.58756,9.91828c-1.19592,4.28185 -5.63645,6.78346 -9.91827,5.58757c-4.28184,-1.1959 -6.78346,-5.63647 -5.58756,-9.91828z" fill="#000000" stroke="none" stroke-width="1.5" stroke-linecap="butt"/><path d="M412.25729,233.5928c1.44333,-4.67465 6.56444,-7.43012 11.70646,-6.07401c5.14202,1.35611 7.95651,6.20006 6.70888,10.93071c-1.24762,4.73065 -6.07059,7.78021 -11.71024,6.36611c-5.36433,-1.34504 -8.21246,-6.34084 -6.70511,-11.22281z" fill="url(#color-3)" stroke="#000000" stroke-width="1.4" stroke-linecap="butt"/><path d="M392.13152,217.37987c0,0 3.72209,-0.89957 8.34876,-0.15798c5.12693,0.82176 7.52831,1.9169 7.52831,1.9169l-0.76979,4.07594c0,0 -3.53515,-1.63625 -7.61997,-2.54857c-5.46292,-1.22011 -6.79059,-0.30897 -11.01971,-0.95038c-3.62374,-0.5496 -6.55499,-1.56448 -6.55499,-1.56448l0.28903,-1.19743c0,0 3.45744,0.98835 5.07811,1.26856c1.33764,0.23128 4.08348,0.10679 4.08348,0.10679z" fill="#000000" stroke="none" stroke-width="1.5" stroke-linecap="butt"/><path d="M415.52443,233.45627c1.1959,-4.28184 5.63647,-6.78346 9.91827,-5.58757c4.28184,1.1959 6.78345,5.63647 5.58755,9.91828c-1.1959,4.28185 -5.63645,6.78345 -9.91828,5.58756c-4.28184,-1.1959 -6.78345,-5.63647 -5.58755,-9.91829z" fill="#000000" stroke="none" stroke-width="1.5" stroke-linecap="butt"/><path d="M400.8468,235.19737c0.00319,-0.01515 0.00617,-0.03096 0.00893,-0.04741c0,0 0.06375,-0.24173 0.30549,-0.17798c0.24173,0.06375 0.17798,0.30549 0.17798,0.30549c-0.12543,0.39219 -0.28186,0.56586 -0.47981,0.63915c-0.0618,0.24359 -0.12611,0.48645 -0.1902,0.72946c-0.24974,0.94694 -0.10808,1.89351 -0.53197,2.78572c-0.2739,0.57651 -1.25729,0.90698 -1.33024,1.53357c-0.07902,0.67878 0.62037,1.08128 0.43505,1.86609c-0.0125,0.97072 -1.3575,5.74571 -2.97676,4.72054c-0.22219,-0.14068 0.00476,-2.43614 0.06765,-2.67459c0.14515,-0.55039 0.37954,-1.1308 0.45015,-1.69424c0.04034,-0.32183 -0.13381,-1.29043 -0.09492,-0.96843c0.24828,2.05519 -1.92398,1.81829 -1.71678,0.92822c-0.02747,0.01554 -0.05557,0.03109 -0.08437,0.04675c-1.78605,2.82545 -1.51982,0.04713 -0.90747,-1.8388c0.18663,-0.5748 -1.67933,-0.42782 -1.80566,0.16318c-0.28518,1.08135 -2.1529,6.45338 -3.30171,3.28298c-0.15274,-0.42154 0.34889,-1.74932 0.35769,-2.27671c0.21153,-0.80918 1.04629,-1.88916 0.86432,-2.76665c-0.14113,-0.68061 -1.08119,-1.6841 -1.31536,-2.29016c-0.22984,-0.59483 -0.81986,1.05767 -1.41449,1.28803c-0.96879,-1.78972 0.1619,-2.20324 0.05228,-3.77431c-0.04792,-0.68687 -0.98392,-0.64462 -0.62448,-1.54488c0.32812,-0.82183 0.756,-1.84454 1.79648,-1.57013c0.61573,0.17063 0.93942,0.88071 1.30162,1.40705c0.90271,1.31179 4.21457,0.7928 5.39035,2.13129c1.82255,0.9898 2.69082,0.36009 4.52052,0.05654c0.23309,-0.03867 0.47998,0.06523 0.67867,0.07548l0.13968,-0.21766c0,0 0.08663,-0.13234 0.22735,-0.11758z" fill="#7d2727" stroke="none" stroke-width="0.5" stroke-linecap="butt"/><path d="M413.85935,238.99565l-0.00766,0.341c0.1743,0.10276 0.44365,0.12152 0.61877,0.30269c1.37461,1.42207 1.74573,2.67735 3.86305,2.5495c1.77115,-0.91903 4.27687,1.61861 5.8012,0.57341c0.61162,-0.41938 1.29699,-1.08066 1.91748,-0.92812c1.0405,0.27441 0.81095,1.74442 0.61319,2.91662c-0.21664,1.28408 -0.98527,0.69168 -1.42352,1.48486c-1.00241,1.81424 -0.28379,2.96308 -2.14079,4.54123c-0.37048,-0.61957 0.08628,-2.93617 -0.45284,-2.35831c-0.54929,0.58877 -1.92676,1.24387 -2.44037,1.97561c-0.66217,0.94338 -0.58013,2.71742 -0.86936,3.80701c-0.29786,0.63541 -0.6415,2.51277 -1.01498,2.92814c-2.80887,3.12409 -1.28135,-4.37769 -0.89697,-5.8352c0.2351,-0.77947 -1.26089,-2.03543 -1.43551,-1.24039c-0.57298,2.60854 -1.95585,6.08324 -1.83345,1.67234c-0.01535,-0.03538 -0.03014,-0.07025 -0.04444,-0.10473c-0.33972,1.18375 -2.31747,0.20929 -0.91729,-2.10329c0.21938,-0.36234 -0.48893,0.69449 -0.64108,1.10249c-0.26634,0.7143 -0.40377,1.54368 -0.59943,2.28553c-0.08476,0.3214 -1.22139,3.19627 -1.4911,3.23576c-1.96554,0.28781 -0.34077,-6.19778 0.21062,-7.36519c0.29734,-1.04526 1.12296,-1.12145 1.44897,-1.97845c0.30095,-0.79112 -0.34098,-1.75541 -0.2393,-2.60299c0.15736,-1.31175 0.82538,-2.36103 1.16199,-3.63738c0.08639,-0.32755 0.17248,-0.65505 0.26114,-0.98195c-0.1253,-0.20219 -0.15728,-0.50032 -0.03651,-1.04168c0,0 0.08592,-0.32583 0.32765,-0.26207c0.24173,0.06375 0.15581,0.38958 0.15581,0.38958c-0.00719,0.02127 -0.01382,0.04187 -0.01988,0.06183c0.12778,0.06382 0.12456,0.27216 0.12456,0.27216z" data-paper-data="{&quot;index&quot;:null}" fill="#7d2727" stroke="none" stroke-width="0.5" stroke-linecap="butt"/><path d="M372.56047,210.83237c0.21601,-0.12586 0.34186,0.09016 0.34186,0.09016l0.09971,0.18846c0.04521,-0.02618 0.10587,-0.03872 0.18618,-0.01755c0.24173,0.06375 0.17799,0.30549 0.17799,0.30549c-0.00986,0.03739 -0.01961,0.07631 -0.02929,0.1167c0.56813,0.26118 1.80557,0.29411 2.13238,0.79263c0.8848,1.34963 -0.98067,2.91624 -1.07476,3.94718c-0.20608,1.80095 -2.53578,3.88803 -3.56004,5.34489c-0.64398,0.91597 -0.59096,2.25507 -1.64821,2.88385c-0.41234,0.55198 -1.98417,1.26399 -2.33579,0.05711c-0.24259,-0.83262 1.87976,-3.71538 2.31003,-4.52204c0.11054,-0.20722 -0.38229,-1.56743 0.00564,-2.40143c0.70172,-0.7031 1.10658,-0.25402 1.77129,-0.56646c0.29819,-0.14016 0.44245,-1.34311 0.63507,-1.63624c0.90397,-1.37565 0.88609,-2.30992 1.20545,-3.71599c-0.09443,-0.09863 -0.16964,-0.22753 -0.21848,-0.39734l-0.08919,-0.12759c0,0 -0.12586,-0.21601 0.09016,-0.34186z" fill="#7d2727" stroke="none" stroke-width="0.5" stroke-linecap="butt"/><path d="M440.89165,201.46301c0.06375,-0.24174 0.30548,-0.17798 0.30548,-0.17798l0.34111,0.23289c0.08951,1.28708 0.70043,2.69708 0.24336,4.34951c-0.66287,0.75349 -2.29534,2.31687 -2.72487,3.2024c-0.76503,1.57721 -0.51015,3.47956 -1.03201,5.02121c-0.20607,0.31787 -0.7125,1.40769 -1.24881,1.27258c-0.60045,-0.15126 0.09659,-1.47747 -0.07701,-1.86421c-0.41574,-0.92615 -1.74039,-1.2315 -2.14913,-2.07884c-0.64836,-1.34409 1.38367,-2.68189 2.26769,-3.18472c0.64729,-0.36818 1.71355,-0.52304 2.26451,-0.94659c0.82843,-0.63686 1.04855,-4.09866 1.87568,-5.37678c0,0 0.0525,-0.08021 0.14215,-0.10878c-0.01697,-0.06176 -0.034,-0.12296 -0.05102,-0.18359l0.02084,0.14843c0,0 -0.24173,-0.06375 -0.17799,-0.30548z" fill="#7d2727" stroke="none" stroke-width="0.5" stroke-linecap="butt"/><path d="M414.96653,186.04337c0.08153,-0.09267 0.23186,-0.26354 0.31339,-0.35622c1.87346,-2.01083 2.32919,2.64287 2.2812,3.5802c-0.01122,0.21919 -0.17748,1.0338 -0.05386,1.19918c0.66231,0.88601 2.11416,0.50277 2.62334,2.02098c-0.5547,2.27848 -1.52305,3.77048 -2.38163,5.81616c-0.47999,1.14364 -0.26719,2.76945 -1.4048,3.43224c-1.27214,-0.27556 -3.01268,-2.73659 -2.32783,-4.17412c0.62702,-1.31612 2.51307,-2.0278 2.00197,-3.5253c-1.36263,-2.49402 -2.80166,-5.55815 -1.45794,-8.30294c0,0 0.10993,-0.22454 0.33445,-0.11462c0.22454,0.10993 0.11462,0.33445 0.11462,0.33445c-0.01466,0.02994 -0.02895,0.05995 -0.04289,0.08997z" fill="#7d2727" stroke="none" stroke-width="0.5" stroke-linecap="butt"/><path d="M445.11778,246.16213c0.07341,0.01935 0.11865,0.05514 0.14606,0.09557c0.04378,-0.02165 0.10078,-0.03047 0.17419,-0.01111c0.24173,0.06375 0.17799,0.30548 0.17799,0.30548c-0.05176,0.19628 -0.10513,0.39172 -0.15992,0.58643c2.60629,0.83927 -0.14053,7.24281 -1.12961,8.76914c-0.39017,0.587 -1.69589,5.08193 -3.1871,3.34758c-0.45347,-0.52741 1.1391,-3.95702 1.31846,-4.63674c0.76092,-2.3797 1.67581,-4.72149 2.3953,-7.18903c-0.0104,-0.00362 -0.0209,-0.00716 -0.03145,-0.01063c-0.04809,-0.18036 -0.09617,-0.36073 -0.14426,-0.5411l0.13486,-0.53762c0,0 0.06375,-0.24173 0.30549,-0.17799z" fill="#7d2727" stroke="none" stroke-width="0.5" stroke-linecap="butt"/><g stroke="none" stroke-width="0" stroke-linecap="butt"><path d="M440.19224,243.44928l2.35107,-41.76722l3.78798,3.38491l-2.1731,38.60554z" fill="#404040"/><path d="M383.09617,248.09528l-29.20328,-22.71933l-0.45857,-5.65342l31.81951,25.59932z" fill="#404040"/><path d="M447.36094,244.85044c-0.00748,0.1328 -0.5177,3.54437 -1.72264,7.38088c-0.43658,1.39003 -1.03502,2.80778 -1.61616,4.19228c-1.5071,-1.18087 -4.52499,-1.82441 -5.73407,-2.11203c-1.30313,0.54291 -1.72212,1.53079 -2.75821,2.15889c-0.54804,0.33223 -1.69483,0.25783 -2.48897,0.37396c-5.09836,-4.2942 -12.35242,-8.73785 -20.89159,-9.21852c-10.854,-0.61098 -20.81947,6.08483 -26.15099,10.1686c-2.30734,1.76735 3.95223,7.31825 3.95223,7.31825c0,0 -8.53374,-6.77864 -9.09075,-10.03144c-0.294,-1.71689 -1.78851,-3.71376 -2.10959,-5.60761c-0.81178,-4.78821 -0.40379,-9.2713 -0.39043,-9.50891c0.13708,-2.4354 14.61894,-2.26533 34.28596,-1.15828c19.66703,1.10706 34.85229,3.6085 34.7152,6.04392z" fill="#ababab"/><path d="M431.36527,267.29723c0,0 1.00648,-0.57307 2.16427,-1.44712c-0.05067,0.18368 -0.10545,0.36939 -0.16324,0.55603c-1.18904,0.55228 -2.00103,0.89109 -2.00103,0.89109z" fill="#ababab"/><path d="M380.17723,255.12661c0,0 -1.61281,-2.91085 -1.95614,-5.36652c-0.38466,-2.75146 -0.4576,-6.00887 -0.4885,-6.82543c-0.05279,-1.39454 0.51498,-3.942 0.51498,-3.942c0,0 23.01809,-4.83246 35.82629,-4.48245c16.40735,0.44839 33.3038,10.04308 33.3038,10.04308c0,0 -0.46942,3.11362 -0.7826,4.32183c-0.15375,0.59314 -1.62558,4.84801 -2.56682,7.55329c-1.50503,-1.18393 -4.52945,-1.82882 -5.74019,-2.11683c-1.26725,0.52795 -1.6984,1.47674 -2.67403,2.1062c-6.84078,-1.91851 -16.7622,-4.42273 -23.19111,-4.81829c-10.60447,-0.65249 -32.24571,3.52713 -32.24571,3.52713z" fill="#565656"/><path d="M432.85538,286.41101c0,0 -16.19607,13.78759 -21.64627,16.5664c-1.43775,0.73304 -3.08562,0.50958 -3.08562,0.50958c0,0 -2.17629,-0.2644 -3.95956,-1.61046c-1.66585,-1.25744 -4.0929,-3.58987 -6.66002,-6.22244c0.33062,0.01934 0.66517,0.03357 1.00488,0.04008l-0.00392,0.01505l0.4838,0.12589c0.00004,0.00001 0.00006,0.00001 0.00009,0.00002c0.13325,0.03467 0.26955,-0.04496 0.30469,-0.1782c0.02863,-0.10856 -0.0187,-0.21927 -0.10916,-0.27578l-0.4129,-0.27163c-1.39131,-0.91526 -2.7638,-1.84647 -4.11522,-2.81962c-0.57609,-0.4116 -2.45984,-2.10344 -2.58793,-2.78911c-0.18419,-0.98591 1.98994,-1.30679 2.20705,-2.38106c0.20494,-1.01399 -1.33953,-1.78583 -1.96497,-2.39422c-0.43187,-0.4201 -1.49479,-0.60457 -1.35908,-1.19158c0.11269,-0.4874 1.58735,-1.54982 1.95124,-2.08898c1.12309,-1.664 0.8106,-3.34447 2.41446,-4.6698c0.98383,-0.81368 3.6714,-4.91651 2.04596,-6.03266c-0.92745,-0.63686 -2.83899,-0.75985 -3.93515,-1.04895c-2.6677,-0.70355 -5.33542,-1.4071 -8.00313,-2.11067l0.30378,-14.63438l-5.22318,-23.26993l28.01367,-7.35502c0.18769,0.12826 0.41608,0.2319 0.69049,0.30688c1.65967,0.45129 4.71786,1.81132 6.90954,1.98984c-1.20246,0.71756 -2.43893,1.81865 -3.3633,2.37875c-0.25846,0.15661 -1.3367,0.77374 -1.31746,1.12512c0.05682,1.03773 2.05848,0.70893 2.61194,0.66364c0.36228,-0.06608 1.95316,-0.55124 2.24456,-0.21227c0.75162,0.87433 0.34004,2.25141 2.30134,2.3117c1.64257,0.0505 2.37779,-2.14806 3.25421,-3.13549c0.65531,-0.74495 1.37286,-2.06337 2.28476,-2.4718c0.04785,-0.02143 0.09511,-0.04227 0.14181,-0.06258l21.55616,8.22985l-7.70701,20.9363c-1.17786,0.55469 -1.60419,1.48571 -2.59605,2.08698c-0.63847,0.38705 -2.08958,0.22222 -2.849,0.44968c-1.28637,0.3853 -1.08692,3.09531 -0.55538,3.99407c0.38704,0.63204 1.56454,1.6696 1.69481,2.36369c0.34918,1.86021 -1.35503,5.34937 -1.83231,7.19354c0.02132,1.13186 0.70104,1.76437 0.81156,2.85937c0.2278,2.25704 0.11255,3.83929 1.32323,5.28556z" fill="#d6d6d6"/><path d="M397.57608,294.91724c-0.29053,-0.04465 -0.59213,-0.06631 -0.86945,-0.08561c-0.46608,-0.4835 -0.93462,-0.97415 -1.402,-1.46742c0.75105,0.52712 1.50833,1.04337 2.27146,1.55303z" fill="#d6d6d6"/><path d="M385.59397,254.06423c0,0 -0.97877,-6.17843 -1.78739,-9.91833c-0.93806,-4.33857 -3.51992,-14.41839 -3.51992,-14.41839l28.0596,-7.53877c0.21466,0.19157 0.49819,0.34197 0.86313,0.44169c1.65968,0.45129 4.71787,1.81132 6.90955,1.98984c-1.20246,0.71756 -2.43894,1.81866 -3.36332,2.37876c-0.25846,0.1566 -1.33669,0.77372 -1.31745,1.12511c0.05682,1.03773 2.05847,0.70894 2.61194,0.66363c0.36227,-0.06608 1.95316,-0.55123 2.24455,-0.21227c0.75163,0.87433 0.34005,2.25142 2.30134,2.31169c1.64257,0.0505 2.3778,-2.14807 3.25421,-3.13549c0.65531,-0.74496 1.37286,-2.06337 2.28476,-2.47179c0.21716,-0.09727 0.42231,-0.18248 0.61692,-0.26102l21.43982,8.25145c0,0 -3.91232,9.70265 -5.43202,13.88761c-0.73228,2.01655 -1.65603,5.02079 -2.30408,7.19315c-0.05908,-0.01386 -0.11501,-0.02702 -0.16753,-0.03952c-1.01976,0.42485 -1.4981,1.12219 -2.1544,1.70637l-24.00806,-16.5741z" fill="#7e7e7e"/><path d="M444.34022,234.81388l-7.99286,21.00518c-0.24353,0.23537 -0.50188,0.46008 -0.81751,0.65143c-0.63847,0.38705 -2.08959,0.22222 -2.84899,0.44967c-1.28637,0.3853 -1.08692,3.09531 -0.55538,3.99407c0.38703,0.63205 1.56454,1.6696 1.69481,2.36369c0.34918,1.86021 -1.35503,5.34937 -1.83231,7.19354c0.02132,1.13186 0.70103,1.76436 0.81155,2.85937c0.11259,1.11555 0.14138,2.06624 0.28788,2.91717l-1.3311,8.37112c0,0 -21.72182,17.32135 -21.75681,17.34594c-0.91554,0.64331 -2.68627,0.25563 -3.05666,-0.05521c-1.34067,-1.12514 -8.77706,-8.13567 -14.27547,-13.3395c0.60966,-0.41808 1.47506,-0.79333 1.60791,-1.45061c0.20494,-1.01399 -1.33953,-1.78584 -1.96497,-2.39422c-0.43187,-0.42009 -1.49479,-0.60456 -1.35908,-1.19157c0.11268,-0.4874 1.58735,-1.54982 1.95124,-2.08899c1.12309,-1.664 0.8106,-3.34447 2.41445,-4.6698c0.98383,-0.81368 3.67139,-4.91651 2.04597,-6.03266c-0.92744,-0.63685 -2.83899,-0.75986 -3.93515,-1.04895c-2.24838,-0.59297 -4.49675,-1.18593 -6.74514,-1.77891l0.0888,-14.27182l-4.89854,-22.94617l27.84155,-7.91602c1.72381,0.54715 4.41954,1.67796 6.4045,1.83964c-1.20246,0.71756 -2.43894,1.81866 -3.36331,2.37876c-0.25846,0.15661 -1.33669,0.77373 -1.31745,1.12512c0.05682,1.03774 2.05848,0.70893 2.61194,0.66363c0.36227,-0.06608 1.95315,-0.55124 2.24455,-0.21227c0.75163,0.87433 0.34005,2.25142 2.30135,2.3117c1.64257,0.0505 2.3778,-2.14807 3.25421,-3.13549c0.46237,-0.52563 0.95571,-1.33673 1.52646,-1.91225z" fill="#3e0000"/><path d="M386.81563,253.43615l-4.92389,-23.09894l27.45466,-7.66839c1.68667,0.48527 4.63984,1.77775 6.77251,1.95146c-1.20246,0.71756 -2.43893,1.81865 -3.36331,2.37875c-0.25846,0.1566 -1.3367,0.77373 -1.31745,1.12511c0.05682,1.03773 2.05848,0.70894 2.61194,0.66363c0.36227,-0.06608 1.95316,-0.55124 2.24455,-0.21227c0.75163,0.87433 0.34005,2.25142 2.30134,2.3117c1.64257,0.0505 2.3778,-2.14807 3.25421,-3.13549c0.50835,-0.5779 1.05417,-1.50091 1.69912,-2.0765l20.91744,8.89973l-8.72859,21.61504l-24.48038,-7.55443z" fill="#1e0000"/><path d="M407.55604,249.15592c-0.32074,5.69792 -5.08808,10.06329 -10.64815,9.75031c-5.56007,-0.31298 -9.80739,-5.18578 -9.48665,-10.8837c0.32074,-5.69792 5.08808,-10.06328 10.64814,-9.75031c5.56007,0.31298 9.80739,5.18577 9.48666,10.88369z" fill="#770000"/><path d="M435.7417,250.59931c-0.13449,2.38918 -1.05079,4.54409 -2.4795,6.21804c-0.21636,0.0221 -0.41536,0.05307 -0.58134,0.10277c-0.51705,0.15486 -0.79405,0.68533 -0.90592,1.32276c-1.84643,1.444 -4.18394,2.24731 -6.68138,2.10672c-5.56007,-0.31298 -9.80739,-5.18578 -9.48665,-10.8837c0.32074,-5.69792 5.08806,-10.06329 10.64814,-9.75032c5.56007,0.31298 9.8074,5.18578 9.48666,10.8837z" fill="#770000"/><path d="M405.43839,246.00009c-0.35177,6.24935 -4.10125,11.12041 -8.37469,10.87986c-4.27344,-0.24054 -7.45258,-5.50165 -7.1008,-11.75098c0.35177,-6.24934 4.10126,-11.12041 8.37468,-10.87985c4.27344,0.24055 7.45258,5.50165 7.1008,11.75098z" fill="#1e0000"/><path d="M433.70407,247.25732c-0.35177,6.24935 -4.10125,11.1204 -8.37469,10.87985c-4.27343,-0.24054 -7.45259,-5.50163 -7.10081,-11.75098c0.35177,-6.24934 4.10126,-11.12043 8.37469,-10.87987c4.27343,0.24055 7.45259,5.50166 7.1008,11.75098z" fill="#1e0000"/><path d="M423.34798,285.58432c0,0 -5.79037,-3.58109 -14.54403,-4.07382c-8.75365,-0.49274 -15.16598,2.52665 -15.16598,2.52665c0,0 6.97101,-8.49665 15.72467,-8.00392c8.75365,0.49274 13.98533,9.55109 13.98533,9.55109z" fill="#770000"/></g><path d="M414.48037,144.26737c0.08977,-0.23333 0.3231,-0.14356 0.3231,-0.14356l0.49303,0.19774c1.53941,1.09732 2.02774,2.10856 1.86524,3.88147c-0.10612,1.01879 0.4148,1.89516 0.46546,2.85103c0.10484,1.97843 -0.17827,5.4848 1.56295,6.84676c2.89007,2.2842 4.97312,4.6485 7.52055,7.19415c2.45643,2.45471 5.69991,3.9198 8.728,5.58419c0.8383,0.38042 2.10614,0.72561 2.73208,1.43434c1.05748,1.19733 -0.43303,6.39461 -1.62478,7.29865c-0.54129,0.60983 -0.31521,1.73909 -0.87491,2.28726c-0.53733,0.52627 -1.45698,0.03466 -2.10572,0.07751c-1.99393,0.13173 -3.98671,0.21563 -5.98362,0.28698c-1.90286,0.31405 -6.91105,2.10713 -8.51673,0.7314c-0.5616,-0.48117 -0.19451,-1.27632 -0.63196,-1.88009c-1.6849,-2.37783 -7.05474,-1.71911 -9.71678,-2.14524c-3.81039,-1.00243 -6.34276,-1.2341 -10.18707,-0.29837c-1.01341,-0.09678 -5.05267,-0.26362 -5.59987,-1.26866c-0.73513,-1.3502 1.57668,-3.76238 2.17573,-4.60169c0.75206,-1.03852 1.65059,-2.8409 2.64309,-3.56444c1.68723,-1.23001 3.60273,-1.28014 4.80477,-3.13611c0.64015,-0.9734 1.88074,-1.4951 2.45094,-2.44425c1.11015,-1.84796 1.03289,-4.71569 1.11179,-6.75153c0.20259,-0.63463 0.18576,-1.24984 1.01813,-1.32075c1.03996,-0.08858 3.35361,1.47723 4.28905,0.96376c0.29497,-0.16191 0.76326,-1.27637 1.08384,-1.58736c0.66306,-0.64325 1.02212,-0.84898 0.51169,-1.78758c-0.34268,-0.7258 -1.35845,-2.81085 -0.85584,-3.60913c0.86597,-1.37542 2.63014,-2.33959 3.09623,-4.18227c0,0 0.03157,-0.11973 0.13453,-0.16843c-0.11859,-0.09315 -0.24659,-0.1871 -0.38451,-0.28267l-0.38484,-0.14c0,0 -0.23335,-0.08977 -0.14357,-0.32309z" fill="#000000" stroke="none" stroke-width="0.5" stroke-linecap="butt"/></g><g stroke="#000000"><g stroke-width="2"><path d="M278.62219,153.75631c0,0 90.82354,-28.2132 102.28402,-31.66182c0.92811,-0.27928 3.39268,-1.40864 6.09833,-0.39294c3.9887,1.49736 9.10686,6.10088 9.10686,6.10088l-7.39803,3.68778l-106.56735,31.83868z" fill="#ffffff" stroke-linecap="butt"/><path d="M282.57484,64.94786l3.55568,89.31567l-14.82277,-0.01819l1.26365,-89.44968z" fill="#ffffff" stroke-linecap="butt"/><path d="M296.94241,158.85049c0,0 -21.0404,7.94692 -23.26436,4.76865c-3.08368,-4.40691 -2.56795,-9.88756 -2.43172,-14.54828c0.15918,-5.44629 0.24615,-9.76149 0.24615,-9.76149" fill="#ffffff" stroke-linecap="round"/><path d="M282.62516,153.7781c0,0 2.15445,-1.62292 3.45202,-2.11164c1.05625,-0.39784 3.61711,-1.14152 3.61711,-1.14152" fill="none" stroke-linecap="round"/><path d="M285.58476,140.8321l0.5368,10.5249" fill="none" stroke-linecap="round"/></g><path d="M417.81608,133.4519l6.82846,4.52718l4.85963,10.77796l-6.92149,-7.57431l-12.39672,-3.24502l8.67533,5.51803l7.93253,12.3914l-12.14432,-9.77365l-14.27375,-4.45398l-2.17516,4.11537l11.83978,7.20102l9.8751,-0.72094l-11.13602,4.9926l-14.52143,-7.81002l-7.28949,-11.01311c0,0 1.30737,-4.53577 0.86477,-4.75253c-1.24856,-0.61152 -5.98627,-5.0169 -6.28893,-5.16512c0.63889,-0.82085 1.49139,-2.07571 1.80543,-2.45056l0.58888,-3.85552c1.25153,0.61868 -0.07814,-0.76592 1.69798,-0.72126c1.03532,0.02604 5.38709,1.38862 5.97531,1.6794c1.84584,0.91243 13.73573,-0.61896 13.73573,-0.61896l11.95648,5.31474l9.99551,6.26527l4.19852,9.82452l-5.93011,-7.93215z" data-paper-data="{&quot;index&quot;:null}" fill="#ffffff" stroke-width="2" stroke-linecap="butt"/><path d="M390.7003,129.46788c-0.32551,1.43634 0.22597,2.7855 -2.37738,2.19551c-2.60335,-0.58999 -9.18305,1.3088 -8.85753,-0.12754c0.32551,-1.43634 0.27605,-9.33656 2.8794,-8.74657c1.19757,0.27141 1.11367,-0.83938 3.08051,-0.31838c0.96171,0.25476 2.92141,0.39654 4.04119,1.5404c1.56847,1.60223 1.33637,5.00403 1.23382,5.45657z" fill="#ffffff" stroke-width="0" stroke-linecap="butt"/></g><g fill="#000000" stroke="none" stroke-linecap="butt"><g data-paper-data="{&quot;index&quot;:null}"><path d="M209.23251,-19.49423c0,0 8.57439,-2.63648 9.05748,-3.36847c1.26702,-1.91983 16.31286,-36.7125 52.91616,-21.78347c44.87921,19.1857 24.39858,49.73521 24.10053,57.10301c-0.40866,10.10238 -0.99957,18.62985 -0.99957,18.62985c0,0 -1.91656,-3.11381 -2.78199,-4.68782c-0.80719,-1.46807 -2.4997,-4.57386 -2.4997,-4.57386c0,0 -2.24411,9.40701 -1.83478,19.03191c0.37253,8.75946 -2.7027,19.21855 -2.7027,19.21855c0,0 -6.14288,-17.14495 -9.0939,-18.69319c-2.76196,-1.44904 -8.08267,9.68162 -8.08267,9.68162c0,0 -1.9213,1.54583 -3.52084,2.07064c-1.59956,0.52479 -4.62346,1.11414 -4.62346,1.11414l1.42779,-3.41947c0,0 -11.5591,6.8818 -28.73849,-1.00634c-16.15326,-7.54615 -21.61519,-21.42839 -21.61519,-21.42839l-1.20494,2.36905c0,0 -2.53249,-4.7497 -2.18089,-11.62543c0.41907,-8.19507 1.79262,-12.6185 1.79262,-12.6185c0,0 -1.86737,5.36618 -5.59438,4.64941c-4.67019,-0.89816 -11.23543,5.89164 -11.23543,5.89164c0,0 8.64374,-10.17374 11.456,-11.15956c2.50492,-0.8781 3.01615,-5.95468 3.01615,-5.95468c0,0 -2.54633,0.044 -4.88399,-0.42281c-2.43908,-0.48705 -4.23597,-1.32324 -4.23597,-1.32324c0,0 7.02663,-2.36272 11.47089,-6.76396c4.19607,-4.15549 6.5885,-9.05118 6.5885,-9.05118c0,0 -1.62906,-0.00729 -3.64648,-0.76838c-1.27879,-0.48242 -2.35075,-1.11103 -2.35075,-1.11103z" data-paper-data="{&quot;index&quot;:null}" stroke-width="1.5"/><path d="M307.28824,-2.54024c0,0 -1.14426,-0.3683 -2.31249,-0.98658c-1.84301,-0.9754 -2.88432,-2.16929 -2.88432,-2.16929c0,0 -2.08119,5.03569 -2.47069,10.90345c-0.41253,6.21479 2.31724,12.96612 2.31724,12.96612c0,0 -1.75802,-0.76286 -3.66751,-2.23188c-1.83009,-1.40792 -3.41699,-3.31112 -3.41699,-3.31112c0,0 0.2193,1.79695 1.16607,4.22768c1.06295,2.72896 3.42663,6.77159 3.42663,6.77159c0,0 -2.92465,-0.49156 -6.55547,-3.32735c-2.89757,-2.26309 -4.37353,-5.00946 -4.37353,-5.00946c0,0 -2.38158,3.97 -8.14559,9.7608c-4.83604,4.85854 -9.94169,6.17247 -9.94169,6.17247l0.97706,-2.47156c0,0 -13.68893,5.26781 -29.51419,-1.57056c-16.72949,-7.3647 -19.0161,-20.47458 -19.0161,-20.47458l-1.60832,3.33827c0,0 -1.48931,-2.61946 -2.12032,-4.14761c-0.63101,-1.52816 -0.71528,-3.97612 -0.71528,-3.97612l-2.07667,1.63977c0,0 -2.35249,-9.55007 0.03069,-18.87406c2.52833,-10.20818 9.75346,-18.30499 9.75346,-18.30499c0,0 -3.36176,0.8323 -4.95539,1.22044c-1.70863,0.41616 -5.21877,1.08892 -5.21877,1.08892c0,0 5.89934,-6.13964 13.07349,-13.19877c4.42602,-4.35506 11.03841,-32.63874 39.05041,-28.35087c2.91114,0.44562 31.32061,1.63124 31.32061,1.63124c0,0 -15.84722,4.91702 -13.02448,6.25303c4.4021,2.17748 30.02122,12.62089 30.02122,12.62089c0,0 -6.74254,3.75532 -9.1453,9.76039c-1.29212,3.22936 1.04768,8.17851 1.01499,11.13709c-0.11519,10.42456 -3.97792,18.92759 -4.26995,19.99403c-0.23144,0.84519 3.28114,8.91861 3.28114,8.91861z" stroke-width="1.5"/><path d="M254.65859,68.48408c0,0 -3.86252,5.36276 -6.92506,7.65948c-9.06231,6.79618 -27.24229,17.74183 -27.24229,17.74183c0,0 16.88773,-21.257 21.29061,-29.79136c3.94491,-7.64665 -13.26174,3.56443 -13.26174,3.56443c0,0 18.05308,-18.36427 28.91299,-33.57328c3.10627,-4.35023 0.54879,-6.49639 0.54879,-6.49639c0,0 5.06651,-0.84401 10.76941,-3.81075c5.44398,-2.83205 11.47432,-7.82908 13.96591,-6.38381c11.5806,6.71742 -0.98696,11.09428 -6.03521,21.76867c-4.63301,9.79634 -5.68681,20.75748 -5.68681,20.75748c0,0 -0.45585,9.16996 -2.95069,13.04019c-2.05167,3.18273 -9.42346,7.05549 -13.67672,11.47344c-3.99383,4.14849 -4.94424,8.95027 -4.94424,8.95027z" stroke-width="0"/><path d="M185.40046,73.72312c0,0 3.41671,-14.65749 3.87115,-20.39807c0.48396,-6.11344 -1.50893,-14.19862 -0.48862,-17.84526c1.24071,-4.43435 7.79963,-10.85904 7.79963,-10.85904c0,0 7.50243,-8.06042 11.7588,-18.02618c4.63788,-10.85899 -0.42485,-23.16628 12.28429,-18.95772c2.7344,0.90548 2.99611,8.7328 4.48874,14.68507c1.56361,6.23536 4.29335,10.58626 4.29335,10.58626c0,0 -3.30254,-0.48978 -4.49678,4.72052c-4.17523,18.21591 -13.17297,49.42554 -13.17297,49.42554c0,0 4.20698,-25.83065 1.1026,-17.80594c-3.46478,8.95634 -24.62615,38.15957 -24.62615,38.15957c0,0 12.5887,-23.3293 11.66169,-34.61886c-0.31328,-3.81524 1.13686,-10.26313 1.13686,-10.26313z" data-paper-data="{&quot;index&quot;:null}" stroke-width="0"/></g><g><path d="M300.64511,13.3511c0,0 -1.23353,-0.15055 -2.5428,-0.54277c-2.06552,-0.61876 -3.36503,-1.6012 -3.36503,-1.6012c0,0 -1.0679,5.34333 -0.25291,11.19233c0.8632,6.19492 5.016,12.33581 5.016,12.33581c0,0 -1.93576,-0.42527 -4.17025,-1.51769c-2.14159,-1.04698 -4.13919,-2.62663 -4.13919,-2.62663c0,0 -2.67316,4.34594 -1.21447,6.56357c1.63768,2.48971 2.33769,15.82122 2.33769,15.82122c0,0 -1.10042,-9.38046 -5.358,-11.49949c-3.39774,-1.69107 -1.627,-7.08991 -1.627,-7.08991c0,0 -1.59141,4.3498 -6.22961,11.11899c-3.89148,5.67939 -8.78607,7.91908 -8.78607,7.91908l0.47922,-2.61431c0,0 -12.7635,7.72283 -30.18282,3.92294c-18.44256,-4.15051 -23.4572,-16.6335 -23.4572,-16.6335l-0.93927,3.58456c0,0 -2.04645,-2.30289 -2.99973,-3.69043c-0.95326,-1.38755 -1.54291,-3.78196 -1.54291,-3.78196c0,0 2.52226,-12.07641 -0.55249,-12.59992c-3.28523,-0.55934 -18.56932,9.34424 -18.56932,9.34424c0,0 3.89999,-10.18034 9.50987,-16.91801c6.16413,-7.40336 10.08665,-16.24314 10.08665,-16.24314c0,0 -3.22958,1.44235 -4.76185,2.11978c-1.64285,0.72633 -5.05542,2.03914 -5.05542,2.03914c0,0 4.70323,-7.13769 10.50672,-15.41684c4.23256,-6.03811 6.48288,-42.74865 53.79982,-30.77611c38.15548,10.33616 29.01057,47.12309 28.85321,49.41793c-0.06,0.87498 5.15717,8.1724 5.15717,8.1724z" data-paper-data="{&quot;index&quot;:null}" stroke-width="1.5"/><path d="M212.40734,-32.65393c0,0 7.69,-4.28744 8.01873,-5.09975c0.41476,-1.02495 2.50212,-10.12799 8.73435,-18.48526c1.76877,-2.37188 6.63117,-4.88698 7.56296,-8.23812c1.73267,-6.23153 -1.34948,-13.30716 -1.34948,-13.30716c0,0 26.70213,7.23887 31.52264,8.17823c3.0545,0.65023 -6.56103,-12.87207 -6.56103,-12.87207c0,0 23.30437,16.29138 25.88903,17.70311c24.87032,13.58402 12.96945,40.08044 13.84618,46.22759c1.4211,9.96395 2.38652,18.42358 2.38652,18.42358c0,0 -2.38241,-2.66418 -3.48829,-4.03153c-1.03145,-1.2753 -3.19911,-3.9763 -3.19911,-3.9763c0,0 0.83215,10.81982 -3.35041,20.46894c-3.76159,8.85816 -11.42512,15.02326 -11.42512,15.02326l-0.6562,-2.56337c0,0 -1.55199,1.895 -2.98066,2.72707c-1.42867,0.83207 -4.20167,2.01104 -4.20167,2.01104l0.74649,-3.62952c0,0 -9.77064,9.03506 -27.53797,4.74133c-16.72922,-4.16361 -24.41614,-16.65552 -24.41614,-16.65552l-0.72255,2.55758c0,0 -3.26185,-4.14178 -4.15913,-10.93793c-1.06946,-8.10021 -0.55447,-12.70105 -0.55447,-12.70105c0,0 -2.83938,1.28796 -6.51577,1.32935c-4.60672,0.05186 -7.22997,-1.33152 -7.22997,-1.33152c0,0 4.33147,-1.77997 6.83195,-3.30465c2.22723,-1.35806 3.49164,-2.65358 3.49164,-2.65358c0,0 -2.41609,0.55037 -4.72507,0.55945c-2.40916,0.00951 -4.26954,-0.45048 -4.26954,-0.45048c0,0 6.26568,-3.71128 9.70778,-8.90221c3.2499,-4.90107 4.65016,-10.16688 4.65016,-10.16688c0,0 -1.55208,0.31743 -3.60894,-0.02515c-1.30379,-0.21715 -2.43688,-0.6185 -2.43688,-0.6185z" stroke-width="1.5"/><path d="M200.21859,78.7071c0,0 2.15734,-4.39388 1.49887,-10.11465c-0.70122,-6.09235 -4.2124,-13.64307 -3.91271,-17.41789c0.36441,-4.5902 5.56476,-12.15674 5.56476,-12.15674c0,0 5.81155,-9.35324 8.0711,-19.9517c2.46209,-11.5484 -4.87384,-22.65177 8.40754,-20.96693c2.85752,0.3625 4.62023,7.99325 7.23013,13.54714c2.73403,5.81805 6.24983,9.5625 6.24983,9.5625c0,0 -3.33507,0.15474 -3.5046,5.49746c-0.59269,18.67887 2.619,44.22971 2.619,44.22971c0,0 -6.87812,-19.35068 -8.38063,-10.8786c-1.67695,9.45559 -1.14648,36.59919 -1.14648,36.59919c0,0 -7.81292,-19.7301 -10.8946,-30.6304c-1.04143,-3.68369 -0.85887,-10.29012 -0.85887,-10.29012z" stroke-width="0"/><path d="M269.55638,67.64242c0,0 -2.75861,6.00569 -5.32209,8.8487c-7.58551,8.41269 -11.72984,34.59584 -11.72984,34.59584c0,0 0.89244,-36.05325 3.57115,-45.27524c2.40007,-8.26273 -9.925,14.82435 -9.925,14.82435c0,0 11.77951,-30.2695 19.51051,-47.28372c2.2113,-4.86658 -0.7113,-6.48061 -0.7113,-6.48061c0,0 4.80949,-1.80298 9.83507,-5.81148c4.79742,-3.82651 9.75374,-9.89036 12.47684,-8.95143c12.65661,4.36396 1.16589,11.0769 -1.73442,22.52312c-2.66172,10.50468 -1.58706,21.46378 -1.58706,21.46378c0,0 1.31687,9.08636 -0.38678,13.36427c-1.40101,3.51798 -7.89002,8.73665 -11.21386,13.89034c-3.12111,4.83936 -9.29649,18.56454 -9.29649,18.56454z" data-paper-data="{&quot;index&quot;:null}" stroke-width="0"/></g></g><path d="M257.68499,71.45052c-0.57113,0 -1.03411,-0.46299 -1.03411,-1.03411c0,-0.57113 0.46299,-1.03413 1.03411,-1.03413c0.57113,0 1.03411,0.463 1.03411,1.03413c0,0.57113 -0.46299,1.03411 -1.03411,1.03411z" fill="#000000" stroke="none" stroke-width="1.5" stroke-linecap="butt"/><path d="M202.16052,135.44708v-12.51362h10.26543v12.51362z" fill="url(#color-4)" stroke="none" stroke-width="0" stroke-linecap="butt"/><path d="M273.94372,134.87543l-1.66667,-12.51362h12.76543l1.66667,12.51362z" fill="url(#color-5)" stroke="none" stroke-width="0" stroke-linecap="butt"/><g fill="#ff0000" stroke="none" stroke-width="0" stroke-linecap="butt"><path d="M243.53507,138.50259c-6.16833,21.49702 -14.8096,59.80186 -17.96988,57.93185c-3.16028,-1.87 0.35718,-43.20672 6.52551,-64.70374c6.16833,-21.49702 7.15955,-15.32568 10.31983,-13.45567c3.16028,1.87 7.29287,-1.26946 1.12454,20.22756z"/><path d="M246.8993,137.41869c-1.03135,23.20325 -1.28955,66.01479 -4.70066,65.70213c-3.41111,-0.31266 -8.68341,-43.63115 -7.65206,-66.83439c1.03135,-23.20325 3.35084,-17.81651 6.76196,-17.50384c3.41111,0.31267 6.62212,-4.56714 5.59077,18.63611z"/><path d="M238.14895,138.7208c-3.33181,4.90998 -6.52218,11.18733 -9.42762,17.51098c-6.94814,15.12256 -12.26672,30.50987 -13.9929,28.09435c-1.69102,-2.36635 -5.99301,-58.16284 -2.49901,-63.31185c11.29957,-16.65183 27.67361,-5.093 30.1216,-1.66739c2.44799,3.4256 7.09749,2.7221 -4.20208,19.37393z"/><path d="M250.69056,132.02534c6.22726,21.46194 8.58914,63.29908 5.43401,65.18696c-3.15512,1.88788 -10.63247,-36.88843 -16.85973,-58.35036c-6.22726,-21.46194 -2.487,-18.106 0.66814,-19.99388c3.15513,-1.88788 4.53032,-8.30465 10.75759,13.1573z"/><path d="M271.97688,119.24689c4.03293,5.05109 -2.12074,58.51321 -3.62485,60.98973c-2.24667,3.69916 -13.12152,-28.25753 -25.32342,-43.53995c-12.2019,-15.28242 -7.81347,-14.65215 -5.5668,-18.35131c2.24667,-3.69916 22.31317,-14.3809 34.51507,0.90153z"/></g><path d="M210.99575,132.64118v-12.51362h62.80621v12.51362z" fill="url(#color-6)" stroke="none" stroke-width="0" stroke-linecap="butt"/><path d="M199.96248,123.87213c0,0 -1.55359,-9.15336 -1.01141,-18.51251c0.29539,-5.09893 2.90509,-9.58202 2.8278,-14.23899c-0.10437,-6.28813 -2.58086,-11.01415 -2.5599,-11.73806c0.37892,-13.08713 -0.67182,-26.0603 5.26346,-38.16507c3.85447,-7.86102 23.11267,-22.85918 41.50144,-22.85595c16.41935,0.00289 32.44245,15.85416 35.89081,24.17141c5.23494,12.62633 4.26725,22.18684 4.11408,35.50337c-0.00061,0.05339 -2.38207,3.18274 -2.34459,7.78358c0.0336,4.12439 2.40211,3.49509 2.77366,8.82864c0.80674,11.58085 -0.05397,29.22359 -0.05397,29.22359z" fill="#610000" stroke="#000000" stroke-width="0" stroke-linecap="butt"/><path d="M252.42511,75.68613c-4.4635,-0.31439 -6.55245,-1.79392 -6.16985,-2.58011c0.11788,-0.24224 2.84645,1.06355 6.97038,1.3048c6.40897,0.37493 8.51033,-0.63173 8.51033,-0.63173v1.34616c0,0 -2.4135,1.04672 -9.31086,0.56089z" fill="#000000" stroke="#000000" stroke-width="0" stroke-linecap="butt"/><path d="M224.61236,70.41646c0,-0.57113 0.46299,-1.03413 1.03411,-1.03413c0.57113,0 1.03413,0.463 1.03413,1.03413c0,0.57113 -0.463,1.03411 -1.03413,1.03411c-0.57113,0 -1.03411,-0.46299 -1.03411,-1.03411z" fill="#000000" stroke="none" stroke-width="1.5" stroke-linecap="butt"/><path d="M230.90635,75.68613c-6.89736,0.48585 -9.31086,-0.56089 -9.31086,-0.56089v-1.34616c0,0 2.10136,1.00666 8.51033,0.63173c4.12393,-0.24126 6.85251,-1.54704 6.97039,-1.3048c0.3826,0.78618 -1.70634,2.26571 -6.16985,2.58011z" fill="#000000" stroke="#000000" stroke-width="0" stroke-linecap="butt"/><path d="" fill="#5a5a5a" stroke="none" stroke-width="0" stroke-linecap="butt"/><path d="" fill="#3f3f3f" stroke="none" stroke-width="0" stroke-linecap="butt"/><path d="" fill="#2a2a2a" stroke="none" stroke-width="0" stroke-linecap="butt"/><path d="" fill="#191919" stroke="none" stroke-width="0" stroke-linecap="butt"/><path d="" fill="#0c0c0c" stroke="none" stroke-width="0" stroke-linecap="butt"/><path d="" fill="#727272" stroke="none" stroke-width="0" stroke-linecap="butt"/><path d="" fill="#8a8a8a" stroke="none" stroke-width="0" stroke-linecap="butt"/><path d="" fill="#9e9e9e" stroke="none" stroke-width="0" stroke-linecap="butt"/><path d="M228.65527,-16.68869c1.1774,-7.22066 4.413,-16.58053 4.413,-16.58053c0,0 3.32218,0.77264 14.26272,0.26189c8.40522,-0.39241 22.21612,-4.31783 22.21612,-4.31783c0,0 -2.81388,2.40377 -4.37243,3.51966c-1.65692,1.18632 -4.96519,3.48008 -4.96519,3.48008c0,0 8.0096,0.24811 15.37898,-1.09631c9.16408,-1.39219 11.72976,-3.3547 13.67176,-1.37452c2.29203,2.33709 -4.5237,22.76037 -6.15069,28.08396c-1.76038,5.40545 -4.72393,8.62241 -6.04302,11.40921c-1.31909,2.7868 -1.86007,5.86226 -5.96469,15.05198c-2.56157,5.73502 -6.16856,7.67588 -13.22426,11.85103c-7.0557,4.17516 -10.99778,6.82885 -14.85996,5.95228c-3.71682,-0.84358 -7.46297,-7.08252 -11.06004,-13.40397c-3.83028,-6.73133 -6.59928,-10.34771 -5.82808,-17.01871c0.69454,-6.00795 1.60689,-9.80815 2.54314,-15.07664c0.68427,-3.8506 -0.6603,-6.79821 -0.01731,-10.74154z" fill="#000000" stroke="#000000" stroke-width="1.5" stroke-linecap="butt"/><path d="M224.06071,-18.22764l7.36948,-30.03634l62.86177,15.42328l-7.36948,30.03634z" fill="#000000" stroke="#000000" stroke-width="1.9" stroke-linecap="butt"/><path d="M222.56664,-2.8069l4.00058,-16.30544l57.49814,14.10729l-4.00058,16.30545z" fill="url(#color-7)" stroke="#000000" stroke-width="0" stroke-linecap="butt"/><path d="M258.00675,-9.88358c1.74583,-6.02111 8.24606,-9.66468 14.86404,-8.04094c6.61797,1.62374 10.33104,7.76757 8.8372,13.85611c-1.49383,6.08852 -7.60562,10.1023 -14.86242,8.41529c-6.90255,-1.60463 -10.66208,-7.94228 -8.83883,-14.23043z" fill="url(#color-8)" stroke="#000000" stroke-width="0" stroke-linecap="butt"/><path d="M261.85524,-8.90723c1.02443,-4.17534 5.23966,-6.72965 9.415,-5.70522c4.17534,1.02443 6.72965,5.23966 5.70522,9.41501c-1.02443,4.17535 -5.23964,6.72966 -9.415,5.70522c-4.17534,-1.02443 -6.72964,-5.23965 -5.70521,-9.415z" fill="#ffffff" stroke="none" stroke-width="1.5" stroke-linecap="butt"/><path d="M212.85434,242.94454c0,0 -0.1398,3.26916 0.25461,4.30505c0.39441,1.03589 3.04467,4.31181 3.35068,6.98148c0.4171,3.63881 0.5095,7.33141 1.66248,11.55179c1.32624,3.43482 4.08355,8.69143 2.76494,9.98472c-1.09805,1.07697 -3.73005,-1.70656 -4.62215,-3.23156c-0.98498,-1.68378 -1.6432,-4.77164 -1.74885,-5.12308c-0.26043,-0.86629 -1.05663,-1.66139 -1.48034,-2.42745c-0.31637,-0.57201 -0.38483,-0.29869 -0.38483,-0.29869c0,0 0.01227,0.66282 0.04976,2.18977c0.02629,1.07091 0.29746,2.41103 0.38184,3.35951c0.10319,1.16005 0.18788,2.9243 0.36138,3.93685c0.07589,0.44292 0.44245,1.31699 0.75225,2.20706c0.33768,0.97017 0.62089,1.95883 0.71659,2.41598c0.58826,2.81022 1.70604,4.24842 2.22433,5.75896c0.28565,0.83252 0.31796,2.50974 -0.0523,3.24882c-0.44077,0.87984 -1.21775,0.89164 -1.21775,0.89164c0,0 -0.39357,1.30041 -1.56718,1.1624c-1.32651,-0.15598 -2.92052,-2.03158 -2.92052,-2.03158c0,0 -0.72094,0.49101 -1.74686,-0.44105c-0.56466,-0.513 -1.81042,-2.87288 -1.81042,-2.87288c0,0 -0.78177,0.35214 -1.66173,-0.90843c-0.90363,-1.29446 -1.55897,-2.92739 -2.32013,-4.9941c-0.44424,-1.20622 -1.34726,-3.05951 -2.04159,-5.05524c-0.49532,-1.42371 -1.10667,-2.91992 -1.14728,-4.30541c-0.04721,-1.92289 0.05375,-3.64792 -0.06381,-5.27276c-0.30579,-4.22624 -0.26224,-7.3694 0.42819,-10.72362c0.34147,-1.65893 1.09297,-3.26387 1.54318,-5.28484c0.27587,-1.23837 0.33453,-5.20058 0.33453,-5.20058" fill="#ffffff" stroke="#000000" stroke-width="2" stroke-linecap="butt"/><path d="M200.10249,138.73019c0,0 -1.55359,-10.99339 -1.01141,-22.23394c0.14784,-3.06501 9.16187,11.60753 14.15765,-3.71587c4.98587,-15.29302 5.95368,-60.58509 5.95368,-60.58509c0,0 3.22126,-5.71205 3.77009,5.94695c0.7217,15.33131 -0.67095,50.08356 4.93046,61.41141c2.8802,5.82469 10.1762,5.52898 14.4028,5.71037c4.69947,0.20169 18.69616,-1.10563 21.6891,-10.16889c5.07148,-15.35757 -2.15255,-43.63172 0.54054,-56.58437c1.52774,-7.3478 5.24725,-4.30096 5.24725,-4.30096c0,0 0.66213,43.82405 4.83224,61.55332c3.25648,13.845 11.86334,1.88441 11.94297,3.25721c0.80674,13.90886 -1.05397,20.31037 -1.05397,20.31037c0,0 -0.38945,8.26237 -1.20049,11.85835c-1.00277,4.4461 -4.36391,12.81319 -4.36391,12.81319c0,0 -1.42335,-11.1233 -2.1904,-14.35897c-0.43266,-1.82509 -2.01505,-3.38102 -2.01505,-3.38102c0,0 -0.02415,6.25532 -0.74869,8.78793c-0.86351,3.01839 -4.08899,8.12211 -4.08899,8.12211c0,0 0.2051,-7.14767 -1.31392,-9.81471c-1.51447,-2.65904 -7.78658,-6.16363 -7.78658,-6.16363c0,0 1.54756,5.82921 0.3633,9.07877c-1.18426,3.24955 -7.7039,11.06349 -7.7039,11.06349c0,0 1.95191,-6.67675 1.64326,-8.91493c-0.36291,-2.6316 -3.6844,-5.88635 -3.6844,-5.88635c0,0 -2.52441,10.78468 -3.2311,12.10896c-1.73768,3.2563 -7.73647,8.44356 -7.73647,8.44356c0,0 1.7844,-8.64817 1.92273,-12.2704c0.13335,-3.49197 -1.10713,-9.08655 -1.10713,-9.08655l-11.93023,19.77943l-3.36241,-17.88985l-2.91129,11.68373c0,0 -8.46786,9.61801 -9.88828,10.03862c-1.75982,0.52112 3.11566,-6.82202 3.86345,-12.17553c0.6699,-4.79588 -2.86141,-7.63928 -2.86141,-7.63928l-9.95688,20.73454z" fill="#420000" stroke="#000000" stroke-width="0" stroke-linecap="butt"/><g stroke="none" stroke-width="0" stroke-linecap="butt"><path d="M201.09567,92.42515c-5.66727,-0.16948 -4.51738,-7.94169 -0.60602,-8.61456c12.19214,-2.09739 52.21035,-7.03516 85.74804,-6.03226c5.72108,0.17108 4.80146,7.89283 0.60602,8.61456c-12.19398,2.09771 -52.21605,7.03499 -85.74803,6.03225z" fill="#cacaca"/><path d="M200.94284,92.43589c-2.21769,-0.06632 26.18505,-2.57908 50.43822,-6.78505c7.27945,-1.2624 -35.57707,2.0537 -29.95411,0.55284c7.11685,-1.89961 62.05997,-8.49229 64.6579,-8.4146c5.72108,0.17109 4.80147,7.89283 0.60602,8.61456c-12.19398,2.0977 -52.21604,7.03498 -85.74803,6.03225z" fill="#b3b3b3"/></g><path d="M278.16228,27.45638c0,0 -3.13344,33.77299 -35.50957,35.28113c-27.40913,1.27677 -36.42376,-34.84986 -36.42376,-34.84986" fill="none" stroke="#000000" stroke-width="3" stroke-linecap="round"/><g stroke="#000000" stroke-width="0" stroke-linecap="butt"><path d="M278.90316,54.58047c0,5.86474 1.23062,16.40968 -6.44249,21.1662c-6.27706,3.89112 -50.62503,5.28404 -56.52727,2.147c-9.02593,-4.79726 -7.48377,-16.60377 -7.48377,-23.05054c0,-6.04418 4.79419,-13.60782 13.24604,-13.56508c2.21912,0.01122 9.04466,-0.40926 12.18105,1.10283c5.99098,2.88831 10.19697,8.12823 10.19697,8.12823c0,0 3.89739,-4.72079 9.49582,-7.43969c4.2583,-2.06806 10.05886,-2.3137 12.62099,-2.31767c7.55536,-0.01168 12.71266,7.85519 12.71266,13.8287z" fill="#cc1414"/><path d="M273.60589,43.37333c4.86829,2.42586 6.27783,12.8562 5.08306,20.97476c-0.85281,5.79489 -3.03248,10.81842 -6.2283,12.7995c-6.27706,3.89112 -50.88989,3.83936 -56.79213,0.70233c-0.23267,-0.12366 16.86318,-0.3764 31.82145,-9.25304c3.88252,-2.30399 -28.81961,-5.38307 -25.65174,-7.8094c2.993,-2.29239 16.53696,-3.2289 25.01025,-6.02102c14.94331,-4.92413 26.68096,-11.43123 26.75742,-11.39313z" fill="#a10000"/></g><path d="M316.27759,144.22159c-0.25,0 -0.25,-0.25 -0.25,-0.25l0.04199,-0.26368c0.08334,-0.125 0.16666,-0.25 0.25,-0.375c0,0 0.13868,-0.20801 0.34669,-0.06934c0.20801,0.13868 0.06934,0.34669 0.06934,0.34669c-0.08334,0.125 -0.16666,0.25 -0.25,0.375l0.04199,-0.01368c0,0 0,0.25 -0.25,0.25z" fill="#ff8383" stroke="none" stroke-width="0.5" stroke-linecap="butt"/><g fill="#964d4d" stroke="none" stroke-linecap="butt"><path d="M312.8289,139.01269c0.39629,-2.98375 3.13635,-5.08131 6.1201,-4.68502c2.98375,0.39629 5.08131,3.13635 4.68502,6.1201c-0.39629,2.98375 -3.13635,5.08131 -6.1201,4.68502c-2.98375,-0.39629 -5.08131,-3.13635 -4.68502,-6.1201z" stroke-width="NaN"/><path d="M312.02502,143.54632c0.39629,-2.98375 3.13635,-5.08131 6.1201,-4.68502c2.98375,0.39629 5.08131,3.13635 4.68502,6.1201c-0.39629,2.98375 -3.13635,5.08131 -6.1201,4.68502c-2.98375,-0.39629 -5.08131,-3.13635 -4.68502,-6.1201z" stroke-width="NaN"/><path d="M314.21515,149.08283c0.39629,-2.98375 3.13635,-5.08131 6.1201,-4.68502c2.98375,0.39629 5.08131,3.13635 4.68502,6.1201c-0.39629,2.98375 -3.13635,5.08131 -6.1201,4.68502c-2.98375,-0.39629 -5.08131,-3.13635 -4.68502,-6.1201z" stroke-width="NaN"/><path d="M319.68121,151.22113c0.39629,-2.98375 3.13635,-5.08131 6.1201,-4.68502c2.98375,0.39629 5.08131,3.13635 4.68502,6.1201c-0.39629,2.98375 -3.13635,5.08131 -6.1201,4.68502c-2.98375,-0.39629 -5.08131,-3.13635 -4.68502,-6.1201z" stroke-width="NaN"/><path d="M317.09614,135.74607c0.39629,-2.98375 3.13635,-5.0813 6.1201,-4.68501c2.98375,0.39629 5.08131,3.13635 4.68502,6.1201c-0.39629,2.98375 -3.13635,5.08131 -6.1201,4.68502c-2.98375,-0.39629 -5.08131,-3.13635 -4.68502,-6.1201z" stroke-width="NaN"/></g><path d="M312.41032,137.44961c0.39609,-0.98135 2.24535,-0.68553 2.87184,-0.00061c0.3639,0.41106 0.56962,2.0016 1.02229,2.19348c2.38692,1.01175 4.25123,-0.56585 5.0229,2.91483c-1.85193,1.82023 -6.04114,-1.85249 -6.83621,0.76964c-0.02251,0.54878 -0.21568,2.6748 -1.1194,2.09849c-0.43881,-0.27983 -1.12162,-3.38428 -1.09943,-3.9296c0.0094,-0.23091 0.61265,-0.69456 0.74668,-0.91741c-0.49302,-0.21367 -2.6672,-0.71406 -2.84049,-1.31124c-0.19651,-0.6772 1.28574,-1.55188 2.23183,-1.81757z" fill="#7d2727" stroke="none" stroke-width="0.5" stroke-linecap="butt"/><path d="M313.6146,149.56357c0.00802,-0.18003 0.14003,-0.22451 0.21311,-0.23531c0.05037,-0.20104 0.23356,-0.34527 0.66497,-0.37622c0,0 0.24975,0.01113 0.23863,0.26088c-0.00252,0.05661 -0.0173,0.09982 -0.03866,0.13279c2.36018,-0.01092 5.69778,-0.48275 4.37434,2.98575c-0.27897,0.55912 -1.34112,1.14519 -2.00214,1.32688c-0.19987,0.05494 -1.55184,-0.23597 -1.6954,-0.0428c-0.46196,0.62154 -0.12234,2.29303 -1.04491,2.53064c-0.46171,0.11892 -1.04359,-0.54792 -1.33891,-0.7869c-0.03494,-1.33606 0.1277,-2.42896 0.54414,-3.66728c0.07277,-0.21639 0.67358,-0.93907 0.64047,-1.06948c-0.06064,-0.23885 -0.2034,-0.52715 -0.28911,-0.79684l-0.02789,-0.00124c0,0 -0.24975,-0.01113 -0.23863,-0.26088z" fill="#7d2727" stroke="none" stroke-width="0.5" stroke-linecap="butt"/><path d="M328.65143,156.8947c0.64613,0.78392 0.41825,2.98528 0.34258,3.55506c-0.28472,0.58375 -0.0539,2.88793 -1.0088,2.80103c-2.03171,-0.18487 0.78863,-3.62778 -1.70917,-3.95901c-0.1564,-0.02077 -0.68438,-0.07558 -0.76038,-0.17485c-0.11467,-0.14979 0.21382,-0.71645 0.11922,-0.55323c-0.30703,0.52975 -1.42552,0.24752 -1.66125,-0.18683c-1.01017,-1.86132 0.34812,-3.97024 2.39691,-2.99384c1.23037,0.61801 2.38464,-0.15613 2.28089,1.51167z" fill="#7d2727" stroke="none" stroke-width="0.5" stroke-linecap="butt"/><path d="M327.20669,147.4059c-0.01784,0.00087 -0.03707,0.00008 -0.05781,-0.00268c-0.24783,-0.03292 -0.21491,-0.28074 -0.21491,-0.28074l0.10902,-0.26473c0.43351,-0.29857 0.64134,-0.19759 1.14293,-0.07622c0.11755,0.61221 2.20806,0.59081 2.57529,1.76153c0.07516,0.2396 -0.19785,1.00309 -0.41408,1.13446c-0.41416,0.25162 -1.00512,-0.19029 -1.34104,0.04319c-0.60625,0.42137 -0.62182,1.13197 -1.04416,1.66993c-0.191,0.49117 -0.39269,1.23045 -1.19817,0.74641c-0.75578,-0.45417 -0.22771,-3.56581 0.44292,-4.73117z" fill="#7d2727" stroke="none" stroke-width="0.5" stroke-linecap="butt"/><path d="M337.6166,149.43961c0.00751,-0.03836 0.02675,-0.07951 0.06388,-0.12183c0.16486,-0.18794 0.3528,-0.02309 0.3528,-0.02309l0.28877,0.25492c0.48617,0.62991 0.5858,1.23179 -0.28773,1.54568c-0.8619,1.37205 -0.81964,3.72624 -1.81947,4.85739c-1.10213,1.24689 -1.67868,-0.83903 -1.32886,-1.71754c0.92736,-1.16691 0.40871,-4.68883 2.7306,-4.79553z" fill="#7d2727" stroke="none" stroke-width="0.5" stroke-linecap="butt"/><path d="M336.7087,160.59889c0.12682,0.07856 0.10488,0.24376 0.10488,0.24376c-0.00755,0.04652 -0.01623,0.09337 -0.02596,0.14049c0.00279,0.03615 0.00202,0.10984 -0.03966,0.17229c-0.23942,0.94724 -0.83548,1.99131 -0.96449,2.88538c-0.16,1.10892 0.32737,2.18121 -0.18462,3.42272c-0.45957,0.36577 -0.56527,2.13766 -1.3505,2.06186c-1.87629,-0.18114 -0.58293,-4.46761 -0.36445,-5.5822c0.57423,-1.20894 2.11235,-1.79602 2.31851,-3.00872l-0.12929,-0.37548c-0.01356,-0.03684 -0.01861,-0.07743 -0.01308,-0.11906c0.01818,-0.13687 0.14387,-0.23309 0.28074,-0.21491c0.06844,0.00909 0.12672,0.04505 0.1656,0.09585l0.17193,0.22459l-0.0211,0.01615c0.0169,0.01117 0.0338,0.02234 0.05071,0.03351z" fill="#7d2727" stroke="none" stroke-width="0.5" stroke-linecap="butt"/></g></g></svg>