<svg version="1.1" xmlns="http://www.w3.org/2000/svg" xmlns:xlink="http://www.w3.org/1999/xlink" width="136.29473" height="268.62058" viewBox="0,0,136.29473,268.62058"><defs><linearGradient x1="205.88586" y1="241.03304" x2="205.88586" y2="270.31192" gradientUnits="userSpaceOnUse" id="color-1"><stop offset="0" stop-color="#6712b1"/><stop offset="1" stop-color="#ff0000"/></linearGradient><linearGradient x1="205.88585" y1="241.03305" x2="205.88585" y2="270.31192" gradientUnits="userSpaceOnUse" id="color-2"><stop offset="0" stop-color="#402b6b"/><stop offset="1" stop-color="#ff0000"/></linearGradient><linearGradient x1="205.88584" y1="199.31192" x2="205.88584" y2="227.45149" gradientUnits="userSpaceOnUse" id="color-3"><stop offset="0" stop-color="#6712b1"/><stop offset="1" stop-color="#ff0000"/></linearGradient><linearGradient x1="205.88584" y1="199.31192" x2="205.88584" y2="227.45149" gradientUnits="userSpaceOnUse" id="color-4"><stop offset="0" stop-color="#402b6b"/><stop offset="1" stop-color="#cc1414"/></linearGradient><linearGradient x1="275.06431" y1="164.81197" x2="275.06431" y2="213.31197" gradientUnits="userSpaceOnUse" id="color-5"><stop offset="0" stop-color="#9966ff"/><stop offset="1" stop-color="#ff0000"/></linearGradient><linearGradient x1="275.06431" y1="164.81197" x2="275.06431" y2="213.31197" gradientUnits="userSpaceOnUse" id="color-6"><stop offset="0" stop-color="#402b6b"/><stop offset="1" stop-color="#ff0000"/></linearGradient><linearGradient x1="188.63587" y1="188.31196" x2="222.56901" y2="188.31196" gradientUnits="userSpaceOnUse" id="color-7"><stop offset="0" stop-color="#9966ff"/><stop offset="1" stop-color="#ff0000"/></linearGradient><linearGradient x1="188.63587" y1="188.31196" x2="222.56901" y2="188.31196" gradientUnits="userSpaceOnUse" id="color-8"><stop offset="0" stop-color="#402b6b"/><stop offset="1" stop-color="#ff0000"/></linearGradient><linearGradient x1="242.37266" y1="258.08013" x2="242.37266" y2="313.81193" gradientUnits="userSpaceOnUse" id="color-9"><stop offset="0" stop-color="#ff1919"/><stop offset="1" stop-color="#9966ff"/></linearGradient><linearGradient x1="242.37266" y1="258.08013" x2="242.37266" y2="313.81193" gradientUnits="userSpaceOnUse" id="color-10"><stop offset="0" stop-color="#cc1414"/><stop offset="1" stop-color="#402b6b"/></linearGradient><linearGradient x1="242.19961" y1="161.81189" x2="242.19961" y2="229.17962" gradientUnits="userSpaceOnUse" id="color-11"><stop offset="0" stop-color="#9966ff"/><stop offset="1" stop-color="#ff0000"/></linearGradient><linearGradient x1="242.19961" y1="161.81189" x2="242.19961" y2="229.17962" gradientUnits="userSpaceOnUse" id="color-12"><stop offset="0" stop-color="#402b6b"/><stop offset="1" stop-color="#cc1414"/></linearGradient><linearGradient x1="223.82032" y1="177.97859" x2="223.82032" y2="222.04317" gradientUnits="userSpaceOnUse" id="color-13"><stop offset="0" stop-color="#402b6b"/><stop offset="1" stop-color="#cc1414"/></linearGradient><linearGradient x1="245.63585" y1="194.64526" x2="245.63585" y2="206.97859" gradientUnits="userSpaceOnUse" id="color-14"><stop offset="0" stop-color="#402b6b"/><stop offset="1" stop-color="#cc1414"/></linearGradient><linearGradient x1="253.61585" y1="205.64525" x2="253.61585" y2="210.62224" gradientUnits="userSpaceOnUse" id="color-15"><stop offset="0" stop-color="#402b6b"/><stop offset="1" stop-color="#cc1414"/></linearGradient><linearGradient x1="263.54112" y1="174.97859" x2="263.54112" y2="213.61405" gradientUnits="userSpaceOnUse" id="color-16"><stop offset="0" stop-color="#402b6b"/><stop offset="1" stop-color="#cc1414"/></linearGradient><linearGradient x1="224.69712" y1="258.11099" x2="224.69712" y2="311.97857" gradientUnits="userSpaceOnUse" id="color-17"><stop offset="0" stop-color="#cc1414"/><stop offset="1" stop-color="#402b6b"/></linearGradient><linearGradient x1="261.86208" y1="266.97364" x2="261.86208" y2="300.31191" gradientUnits="userSpaceOnUse" id="color-18"><stop offset="0" stop-color="#cc1414"/><stop offset="1" stop-color="#402b6b"/></linearGradient><linearGradient x1="205.88584" y1="269.81191" x2="205.88584" y2="284.31191" gradientUnits="userSpaceOnUse" id="color-19"><stop offset="0" stop-color="#ff0000"/><stop offset="1" stop-color="#422b6b"/></linearGradient><linearGradient x1="244.85516" y1="112.69796" x2="240.46354" y2="130.0007" gradientUnits="userSpaceOnUse" id="color-20"><stop offset="0" stop-color="#ffffff"/><stop offset="1" stop-color="#ff0000"/></linearGradient><linearGradient x1="246.03067" y1="123.88471" x2="286.88609" y2="134.25426" gradientUnits="userSpaceOnUse" id="color-21"><stop offset="0" stop-color="#cc1414"/><stop offset="1" stop-color="#6712b1"/></linearGradient><linearGradient x1="246.03067" y1="123.88471" x2="286.88609" y2="134.25426" gradientUnits="userSpaceOnUse" id="color-22"><stop offset="0" stop-color="#cc1414"/><stop offset="1" stop-color="#402b6b"/></linearGradient><linearGradient x1="250.02368" y1="127.56459" x2="284.61642" y2="136.34461" gradientUnits="userSpaceOnUse" id="color-23"><stop offset="0" stop-color="#cc1414"/><stop offset="1" stop-color="#402b6b"/></linearGradient></defs><g transform="translate(-185.83615,-46.94135)"><g data-paper-data="{&quot;isPaintingLayer&quot;:true}" fill-rule="nonzero" stroke-linejoin="miter" stroke-miterlimit="10" stroke-dasharray="" stroke-dashoffset="0" style="mix-blend-mode: normal"><path d="M270.49012,202.79683c0.17991,-1.64809 0.40658,-3.29423 0.63287,-4.99929c0.25996,-1.95883 1.42127,-3.67306 1.66075,-5.64656c0.23482,-1.93504 0.28102,-3.78858 0.77626,-5.69889c0.57645,-0.78616 1.58511,-2.3586 2.5057,-2.87559c3.08126,-1.73036 9.58912,-0.1273 11.07093,3.2666c1.07995,2.47347 -0.82236,4.29238 -1.26689,6.4121c-0.83228,3.96868 -1.29516,7.83897 -1.29516,12.00237c0,1.75929 0.3223,5.30233 -1.58929,6.37772c-1.64952,0.92796 -3.42067,-0.10171 -4.13707,-1.58141c-0.75067,-1.5505 0.15643,-1.85298 0.23735,-3.16529c0.00579,-0.09391 -0.01318,-0.20958 -0.04311,-0.33365c-0.06092,0.15572 -0.12557,0.30189 -0.17508,0.41583c-0.36038,0.82927 -0.50424,1.93238 -1.2846,2.38912c-1.07117,0.62694 -2.46879,0.0527 -3.78723,-0.90595c-0.02864,0.26151 -0.08921,0.5129 -0.21538,0.74449c-0.0461,0.08462 -0.09556,0.16689 -0.14789,0.24714l0.04937,0.02468l-0.65219,1.30438c-0.20043,0.42281 -0.63114,0.7152 -1.13014,0.7152c-0.59488,0 -1.0927,-0.41555 -1.21902,-0.9722l-0.32581,-1.30323l0.05346,-0.01336l-0.08141,-0.13708c-0.00721,-1.39539 0.0528,-2.7413 0.15599,-4.06875c-0.09339,-0.11642 -0.17628,-0.22261 -0.24751,-0.31624c0,0 -0.75,-1 0.25,-1.75c0.06964,-0.05223 0.13806,-0.09597 0.2051,-0.13215z" fill="#cc1414" stroke="#9d0000" stroke-width="0.5" stroke-linecap="butt"/><path d="M210.13558,240.02066c-0.38845,1.55205 -0.9226,3.15198 -1.4073,4.76729c0.03222,0.36182 0.06773,0.72435 0.10666,1.08767c0.34448,3.21487 2.18511,6.04463 2.9614,9.14977l0.49169,0.60625c0,0 0.69338,1.04006 -0.34669,1.73344c-1.04006,0.69338 -1.73344,-0.34669 -1.73344,-0.34669l-0.83692,-1.38666c-0.43952,-1.75809 -1.18409,-3.41572 -1.83207,-5.10331c-0.01609,0.27216 -0.02414,0.54366 -0.0232,0.81434v0.6643c0,0 0,0.28825 -0.13842,0.58791c-0.11021,4.09742 0.16114,8.71319 -0.92898,12.54778c0.01808,0.11158 0.03782,0.22214 0.05936,0.33157l0.31946,0.06389l-0.32761,1.63805c-0.10493,0.58424 -0.61583,1.02756 -1.23027,1.02756c-0.69036,0 -1.25,-0.55964 -1.25,-1.25v-1.23582c-0.42943,-2.14366 -1.26031,-5.93897 -1.04277,-8.71043c-0.10603,0.10512 -0.21341,0.20926 -0.32132,0.31305l-0.1527,0.61079c-0.12632,0.55665 -0.62414,0.9722 -1.21902,0.9722c-0.69036,0 -1.25,-0.55964 -1.25,-1.25v-1.3286c0,-3.86426 0.66445,-7.63255 0.67367,-11.44584c1.81206,-7.43884 1.76274,-15.87208 1.29978,-23.52573c-0.08682,-1.43535 -0.52318,-2.61216 -0.78272,-3.88384l-0.19428,-0.33834c0.00869,-0.41986 -0.0033,-0.79488 0.00491,-1.14434c-0.00237,-0.06098 -0.00402,-0.12239 -0.00491,-0.18426c0,0 0,-0.10301 0.02957,-0.24988c0.06954,-0.70121 0.30773,-1.32475 1.10257,-2.05377c0.43202,-0.39625 1.13227,-0.31303 1.67708,-0.52945c2.33777,-0.92867 7.10926,-3.84893 8.61349,-0.15776c0.44423,1.09008 -0.8156,3.62484 -0.96046,4.80435c-0.08059,0.65625 -0.18232,1.31064 -0.29429,1.96423c0.11227,-0.02905 0.23906,-0.04545 0.38225,-0.04545c1.25,0 1.25,1.25 1.25,1.25c0,2.37173 0.58812,4.73973 0.32607,7.09833c-0.44791,4.03137 -2.01059,7.81467 -2.99158,11.68994c0.00386,0.04972 0.00509,0.0972 0.00456,0.14138l0.00375,0.00291c0,0 0,0.05939 -0.01295,0.15229c-0.00997,0.09326 -0.02438,0.15088 -0.02438,0.15088zM210.66834,227.6369c0.15521,-1.39679 -0.01149,-2.81656 -0.16095,-4.23676c-0.22051,1.30674 -0.39707,2.61834 -0.44286,3.94312c-0.14622,1.59933 -0.24025,3.20509 -0.31978,4.81275c0.41045,-1.48239 0.75278,-2.98193 0.92359,-4.5191z" fill="#cc1414" stroke="#9d0000" stroke-width="0.5" stroke-linecap="butt"/><path d="M263.6491,274.96468v0.19021l0.29483,0.07371l-0.32581,1.30324c-0.12633,0.55665 -0.62414,0.9722 -1.21902,0.9722c-0.69036,0 -1.25,-0.55964 -1.25,-1.25v-1.3286c0,-8.76999 -0.76138,-17.48593 -1.98976,-26.15127c0.00419,-2.31483 -0.78533,-4.33812 -0.99533,-6.62852c-0.301,-3.28278 -0.70693,-6.60059 -1.09559,-9.9308c-0.16167,0.40702 -0.31414,0.82128 -0.45511,1.24422c-1.33428,4.00321 -1.81713,8.44273 -2.59392,12.66083c0.00313,3.66419 0.0018,7.32847 -0.00874,10.99259c-0.11921,0.59604 -0.21375,1.19674 -0.28675,1.8014c0.18591,2.57034 0.29283,5.14026 0.29283,7.70779c0,1.54525 0.08032,3.08601 0.18509,4.625c0.39364,3.26797 0.81136,6.51968 0.81136,9.65747v1.3286c0,0 0,1.25 -1.25,1.25c-1.25,0 -1.25,-1.25 -1.25,-1.25v-0.77511c-0.33215,-0.36899 -0.33215,-0.88564 -0.33215,-0.88564v-0.6643c0,-2.96107 -0.29649,-5.91178 -0.49331,-8.86961c-0.48863,-4.10349 -0.93081,-8.23049 -0.47346,-12.19771c-0.15668,-2.12 -0.3675,-4.24044 -0.61636,-6.36011c-0.67547,0.34704 -1.56439,0.36423 -2.30998,0.58114c-0.29438,0.08564 -1.03937,0.26915 -1.8988,0.46172c-0.26832,2.58684 -0.29552,5.22691 -0.02122,7.96355c0.43245,4.31448 2.5786,8.20318 3.28445,12.43697c0.63097,1.55782 1.25855,3.05291 1.66985,4.68441l0.03733,0.96747c0,0 0,1.25 -1.25,1.25c-0.32521,0 -0.5658,-0.08461 -0.74381,-0.2098c0.00092,0.37977 -0.13999,0.90417 -0.85381,1.14211c-1.18586,0.39529 -1.58114,-0.79057 -1.58114,-0.79057l-0.26433,-0.83272c-1.75292,-3.54656 -3.34128,-7.63817 -4.64115,-11.80609c0.0132,0.81898 0.02466,1.63854 0.02466,2.45843c0.3562,1.4248 0.34151,2.67602 0.34151,4.13854v0.6643c0,0 0,1.25 -1.25,1.25c-0.28903,0 -0.51123,-0.06683 -0.68205,-0.16958c0.12671,1.65078 0.28554,3.28857 0.50042,4.88184c0.35883,2.66062 1.90288,5.08472 2.17106,7.75601c0.00426,0.04243 0.00833,0.08486 0.0122,0.1273l0.01848,-0.0041l1.07296,4.8283c0.04655,0.19068 0.07123,0.38994 0.07123,0.59496c0,1.38071 -1.11929,2.5 -2.5,2.5c-0.85068,0 -1.60213,-0.42488 -2.0537,-1.07401l-1.64139,-2.29794l0.0897,-0.06406l-0.23408,-0.16298c-2.25895,-5.34173 -9.17323,-7.30033 -11.13292,-12.66455c-0.02573,-0.07045 -0.04768,-0.26229 -0.06629,-0.53757c-0.23748,0.90174 -0.47263,1.80367 -0.70463,2.70594c-0.38947,1.51471 -0.56149,3.09745 -0.80505,4.66753c0.15924,0.51394 0.31271,1.02783 0.45933,1.54106l0.64211,1.60086c0,0 0.46424,1.16059 -0.69636,1.62483c-0.60391,0.24156 -1.01927,0.04319 -1.2788,-0.20269c-0.1847,0.16897 -0.45388,0.29209 -0.84619,0.29209c-1.25,0 -1.25,-1.25 -1.25,-1.25l0.00937,-1.48133c0.14578,-0.59877 0.29215,-1.19752 0.43901,-1.79624c-0.82077,-2.55325 -1.78339,-5.08393 -2.69579,-7.58185c-0.74578,-2.04174 -2.17573,-3.3856 -2.72548,-5.59536c0.03988,-2.93017 1.788,-5.41095 2.70847,-8.17677c1.95422,-5.87202 5.06107,-11.75723 8.71577,-17.00656c0.155,-5.21234 -0.03562,-10.42289 -0.34849,-15.66168c-2.07161,-3.18362 -4.3691,-6.27594 -6.8254,-9.34587c0,0 -0.78087,-0.97609 0.19522,-1.75696c0.97609,-0.78087 1.75696,0.19522 1.75696,0.19522c1.68023,2.10059 3.28742,4.21343 4.80184,6.35835c0.07202,-2.8459 0.23337,-5.7415 -0.2662,-8.45293c-0.95768,-5.19778 -4.42683,-10.62221 -6.75135,-15.27125c0,0 -1.11804,-2.23607 1.11803,-3.3541c1.29575,-0.64787 2.21607,-0.16947 2.76096,0.34746c1.02365,0.02319 1.7856,0.78513 1.7856,0.78513l0.01457,0.196c8.02176,4.08159 16.74814,1.42905 25.2212,0.72239c2.35578,-0.19647 11.51701,-1.90346 13.29961,0.83059c0.95303,1.4617 -0.31798,3.49013 -0.74915,5.18097c-0.43703,1.7138 -1.00361,3.46707 -1.66927,5.20922c0.05922,0.00324 0.12116,0.01007 0.18593,0.02087c1.23299,0.2055 1.02749,1.43849 1.02749,1.43849c-0.46229,2.76812 -1.64138,5.58403 -1.99423,8.31158c-0.53419,4.12925 -0.14872,9.33413 0.32245,13.44884c0.70068,6.119 3.01566,12.04732 3.01739,18.22429c0,5.53855 3.3277,11.335 2.64784,16.76025c-0.31036,2.47667 -2.02237,4.8285 -2.65721,7.30731l0.00937,1.17587c0,0 0,1.25 -1.25,1.25c-1.25,0 -1.25,-1.25 -1.25,-1.25l0.00937,-1.48133c0.5952,-2.42237 2.3632,-4.94545 2.65721,-7.30731c0.1889,-1.51754 -0.62878,-3.70213 -0.87329,-5.151c-0.19,-1.12581 -0.41754,-2.20065 -0.64574,-3.25573c0.35143,3.33297 0.55706,6.57918 -0.64044,9.59516zM259.66619,226.90527c-0.18781,0.35246 -0.3769,0.70548 -0.56529,1.06029c0.15209,1.41942 0.31665,2.83834 0.48369,4.25495c-0.06052,-1.80944 -0.04732,-3.61793 0.08161,-5.31525zM248.52422,244.67856c-0.20517,0.34157 -0.41211,0.68394 -0.61956,1.02738c-0.47877,1.72982 -0.87326,3.46382 -1.164,5.21597c0.31753,-0.13018 0.63902,-0.23776 0.96824,-0.29251c0.46727,-0.0777 1.07603,0.26452 1.41974,-0.06143c0.0281,-0.02664 0.06356,-3.61202 0.06307,-3.87532c-0.00295,-1.57757 -0.0563,-3.16199 -0.11941,-4.75023c-0.17006,0.49828 -0.33431,0.99607 -0.49228,1.4937c0.33468,0.59164 -0.0558,1.24244 -0.0558,1.24244zM243.32732,254.71669c-0.52726,1.57441 -0.85391,3.15634 -1.05262,4.74397c1.34965,6.46945 3.69463,13.69556 6.5069,19.31573c-0.40025,-1.43777 -0.98365,-2.78092 -1.53637,-4.17778c-0.7353,-4.35519 -2.91492,-8.36113 -3.35855,-12.80646c-0.26509,-2.65623 -0.26527,-5.23168 -0.04711,-7.75874c-0.10003,0.01639 -0.1963,0.03143 -0.28805,0.0449c-0.07779,0.21179 -0.15259,0.42458 -0.2242,0.63838zM228.03199,259.33643c0.18755,-1.50014 0.33551,-2.99864 0.44916,-4.49621c-2.51009,4.09608 -4.62587,8.47682 -6.07931,12.83034c-0.73229,2.19344 -2.66789,4.81477 -2.60593,7.10214c0.49291,1.95697 1.87838,3.1775 2.58892,5.03346c0.49536,1.2939 0.99037,2.60972 1.46607,3.9366c0.98548,-3.96463 1.9835,-7.93045 2.96966,-11.90201c0.24162,-4.17739 0.69574,-8.37226 1.21143,-12.50432zM246.64244,241.32802c-0.71357,1.61125 -1.36879,3.26639 -1.99147,4.95302c0.31313,-0.53203 0.62999,-1.06072 0.94655,-1.58695c0.31639,-1.12262 0.66618,-2.24362 1.04492,-3.36607zM248.43387,237.63824c-0.04008,0.07498 -0.07996,0.15008 -0.11966,0.22531c0.04673,-0.0194 0.09605,-0.03585 0.14802,-0.04866c-0.00946,-0.05889 -0.0189,-0.11777 -0.02836,-0.17665zM254.2346,232.68989c0.60201,-1.80587 1.44608,-3.46358 2.31963,-5.08343c-0.01149,-0.11059 -0.02291,-0.22119 -0.03423,-0.33179c-1.33733,1.15186 -2.53968,2.38357 -3.63061,3.68377c0.26363,1.22016 0.52438,2.43916 0.77074,3.65604c0.17371,-0.6502 0.36377,-1.29253 0.57448,-1.92459zM251.86505,238.58912c-0.15658,-0.80405 -0.31724,-1.60877 -0.48068,-2.41424c0.05942,1.83426 0.21317,3.73096 0.32433,5.62082c0.16617,-1.09297 0.35157,-2.20407 0.15635,-3.20658zM262.71565,252.45435c0.09719,0.76997 0.19788,1.53975 0.29966,2.30967c-0.07366,-0.77212 -0.17633,-1.54176 -0.29966,-2.30967z" fill="#cc1414" stroke="#9d0000" stroke-width="0.5" stroke-linecap="butt"/><path d="M267.60643,313.73802l-48.21366,0.07222l-0.13821,-52.15021c1.51978,-1.2797 2.93555,-2.59361 4.83599,-3.55634c0.68998,-0.19804 0.99995,0.9017 1.233,1.44182c0.60136,1.39371 1.6364,6.34501 3.29179,4.02557c0.28652,-0.40145 0.57171,-0.80386 0.85686,-1.20629c2.08432,-2.09443 4.76751,5.09545 5.52447,6.69868c0.75715,1.60363 1.43991,3.40248 1.95766,5.05008c0.20694,0.65854 -0.37801,2.61317 0.10556,3.08781c0.53659,0.52667 1.69361,-0.38213 2.04923,-0.75187c2.37701,-2.57071 4.77154,-5.10658 7.24142,-7.58832c0.22043,-0.2236 1.9563,-1.64261 2.18423,-1.47973c1.34042,0.95784 1.59273,5.5168 1.86555,6.98088c0.30826,1.62941 0.22203,6.95124 1.99407,7.37015l0.02219,0.35939c0.00706,0.13175 0.11613,0.2364 0.24964,0.2364c0.09961,0 0.18561,-0.05826 0.2258,-0.14255l0.22212,-0.44192l-0.03178,-0.01597c1.78027,-2.48802 2.41947,-5.99647 3.90788,-8.64159c1.90544,-3.39119 3.79745,-5.20578 7.07414,-7.27697c1.1972,-0.75762 2.32605,-1.55215 3.45213,-2.33937z" fill="#ffffff" stroke="#000000" stroke-width="2" stroke-linecap="butt"/><path d="M203.11295,195.69148c-0.05451,-8.15261 8.18688,-36.76129 40.20201,-36.9211c23.26348,-0.11612 33.87494,15.91743 37.8521,27.34276c-1.22883,-0.17465 -2.3211,0.01102 -2.39098,1.27121c0.00316,0.38251 0.5497,3.66735 0.47201,3.7155c-0.4355,0.26995 -0.97079,-0.87765 -1.14752,-1.05535c-0.80471,-0.80913 -1.59772,-1.77104 -2.54135,-2.43995l0.03544,-0.04526l-0.39195,-0.30694c-0.04274,-0.03412 -0.09691,-0.05451 -0.15585,-0.05451c-0.13799,0 -0.24986,0.11179 -0.25,0.24974c0,0.00001 0,0.00002 0,0.00003l-0.00051,0.49954c-0.01698,3.0165 -0.49661,5.95463 -0.49748,8.96751c-0.00027,0.91949 0.53592,5.70095 -0.34544,6.10392c-0.18522,0.08469 -0.45682,-0.0141 -0.78538,-0.17066l-0.00545,-3.94132c0,0 0.07549,-3.0993 -2.81625,-3.15415c-3.43441,-0.06514 -2.94538,3.11562 -2.94538,3.11562l0.03945,22.05114c-0.78471,-0.28834 -1.51831,-0.5844 -2.148,-0.93066c0.01616,-1.74526 -1.36016,-5.50281 -2.17311,-7.04912c-0.16241,-0.30892 -0.84724,-1.86312 -1.26261,-1.83898c-0.5372,0.03123 -0.5384,0.7969 -0.57969,1.10948c-1.06526,3.31584 -1.78978,6.81686 -2.21653,10.26896c-0.0716,0.57924 -0.00698,2.27695 -0.61843,2.6075c-0.07642,0.04131 -0.76767,-1.23172 -0.83454,-1.38324c-0.75612,-1.71336 -1.50749,-3.33644 -2.51003,-4.91957c-1.87253,-2.95696 -3.74507,-5.91392 -5.6176,-8.87088c-1.47679,-2.33203 -4.30768,-8.5466 -6.88134,-5.55761c-2.01217,2.43687 -1.91638,4.97662 -3.25639,7.65873c-0.35668,0.71391 -0.75451,0.48907 -1.22375,0.09088c-1.77361,-0.96241 -3.21334,-2.34579 -5.01779,-3.29319c-0.64116,-0.33663 -1.52796,-1.04153 -2.05523,-0.00273c-0.28608,0.5636 -0.12226,1.89985 -0.216,2.56004c-0.20454,1.4405 -0.10098,3.52289 -1.02185,4.69633c-0.8081,1.02975 -1.98244,-0.00696 -2.68303,0.69827c-0.22213,0.22361 -0.33248,2.14752 -0.43982,2.56733c-0.39968,1.58674 0.47387,3.91311 -0.08101,5.3469c-0.1799,0.46486 -0.60459,-0.79987 -0.82647,-1.24621c-0.49093,-0.98759 -1.83684,-1.90818 -2.72933,-1.08041c-1.50834,1.97213 -1.4047,4.99984 -2.85456,6.8018c-0.11784,0.14646 -0.154,-0.34867 -0.27565,-0.49198c-0.21127,-0.24888 -0.46145,-0.50611 -0.7524,-0.70175l-0.07787,-29.38197c0,0 0.27949,-2.919 -2.8856,-2.93443c-3.11083,-0.01515 -2.81569,2.90899 -2.81569,2.90899l0.06864,22.36839c-0.01747,-0.00475 -0.03672,-0.00815 -0.05792,-0.00988c-0.24917,-0.02041 -0.26958,0.22875 -0.26958,0.22875l-0.01881,0.22966c-0.20138,2.51744 -1.46509,2.92607 -1.4734,0.10224c-0.00212,-0.71667 -0.34173,-4.61216 -1.40404,-4.29609c-1.01652,0.30244 -1.39039,4.97646 -1.5854,5.93816c-0.25837,1.27414 -0.07801,3.18563 -0.4417,4.30023c-0.06188,0.18963 -0.13758,-0.37775 -0.24431,-0.54626c-0.23458,-0.37039 -0.36774,-0.80236 -0.4682,-1.22912c-0.27334,-1.16115 -0.8358,-2.09778 -0.93747,-3.30774c-0.06382,-0.69139 -1.3202,-4.15358 -2.31635,-3.26739c-0.31494,0.28017 -0.60996,3.15485 -0.93623,4.7051c-0.08081,-12.02727 -0.14925,-22.22292 -0.18839,-28.0763z" fill="#ffffff" stroke="#000000" stroke-width="2" stroke-linecap="butt"/><path d="M203.9063,313.70349c0,0 -0.22268,-33.08017 -0.43717,-64.97509c0.10439,0.27802 0.21053,0.55553 0.31874,0.83248c0.31282,0.80061 0.82435,5.16936 1.48321,5.40922c0.66894,0.24354 1.63162,-3.90073 1.7702,-4.57095c0.62543,-0.27955 1.05073,1.40722 1.26301,1.87719c0.58409,1.29315 1.35303,3.47017 2.1486,4.50363c0.31771,0.41272 0.32181,1.20577 0.82894,1.32452c0.70464,0.16501 0.74187,-0.61166 0.81947,-0.95586c0.63421,-1.3297 0.73887,-1.78574 1.45668,-2.59451l0.18125,59.06439z" fill="#ffffff" stroke="#000000" stroke-width="2" stroke-linecap="butt"/><path d="M271.88581,197.31192h2.42785c0.08021,1.45937 0.43047,5.34514 -0.36025,5.70668c-0.39344,0.17989 -1.1766,-0.46806 -2.0676,-0.73907z" fill="#6712b1" stroke="#402b6b" stroke-width="3" stroke-linecap="butt"/><path d="M198.38584,270.31192v-19.93135c1.37867,-1.88123 1.5667,-6.29531 2.09979,-8.44909c0.06671,-0.27095 -0.06826,-0.58943 0.06499,-0.83461c0.17174,-0.31601 0.35596,0.62706 0.49481,0.95884c0.25548,0.61049 0.52105,1.21395 0.73326,1.84097c0.64321,1.90054 1.27893,3.79521 2.00919,5.6642c0.31282,0.80061 0.82435,5.16936 1.48321,5.40922c0.66894,0.24354 1.63162,-3.90073 1.7702,-4.57095c0.62543,-0.27955 1.05073,1.40722 1.26301,1.87719c0.58409,1.29315 1.35303,3.47017 2.1486,4.50363c0.31771,0.41272 0.32181,1.20577 0.82894,1.32452c0.70464,0.16501 0.74187,-0.61166 0.81947,-0.95586c0.57973,-1.21548 0.71698,-1.70095 1.28456,-2.39313v15.5564z" fill="url(#color-1)" stroke="url(#color-2)" stroke-width="3" stroke-linecap="butt"/><path d="M198.38584,199.31192h15v21.59758c-0.23878,-0.0123 -0.25858,0.22949 -0.25858,0.22949l-0.01881,0.22966c-0.20138,2.51744 -1.46509,2.92607 -1.4734,0.10224c-0.00212,-0.71667 -0.34173,-4.61216 -1.40404,-4.29609c-1.01652,0.30244 -1.39039,4.97646 -1.5854,5.93816c-0.25837,1.27414 -0.07801,3.18563 -0.4417,4.30023c-0.06188,0.18963 -0.13758,-0.37775 -0.24431,-0.54626c-0.23458,-0.37039 -0.36774,-0.80236 -0.4682,-1.22912c-0.27334,-1.16115 -0.8358,-2.09778 -0.93747,-3.30774c-0.06382,-0.69139 -1.3202,-4.15358 -2.31635,-3.26739c-0.44527,0.39612 -0.85074,5.9786 -1.36098,5.67154c-1.16141,-1.24341 -1.67635,-4.24921 -3.51711,-4.79178c-0.26598,-0.0784 -0.60848,-0.02556 -0.97363,0.09017z" fill="url(#color-3)" stroke="url(#color-4)" stroke-width="3" stroke-linecap="butt"/><path d="M265.63581,213.31197l1.33334,-18c0,0 -5.1788,-30.5 -1.55555,-30.5c1.73086,0 12.89125,12.14978 20.58819,20.76597c-0.11658,0.6738 -0.00178,1.63459 -0.20468,2.06826c-0.09385,0.2006 -0.21873,-0.40796 -0.40634,-0.52566c-0.30182,-0.18934 -0.71992,-0.02732 -1.06083,-0.13086c-1.28958,-0.39166 -5.41587,-2.09432 -5.55389,0.39466c0.00316,0.38251 0.5497,3.66735 0.47201,3.7155c-0.4355,0.26995 -0.97079,-0.87765 -1.14752,-1.05535c-0.80471,-0.80913 -1.59772,-1.77104 -2.54135,-2.43995l0.03544,-0.04526l-0.39195,-0.30694c-0.04274,-0.03412 -0.09691,-0.05451 -0.15585,-0.05451c-0.13799,0 -0.24986,0.11179 -0.25,0.24974c0,0.00001 0,0.00002 0,0.00003l-0.00051,0.49954c-0.01698,3.0165 -0.49661,5.95463 -0.49748,8.96751c-0.00027,0.91949 0.53592,5.70095 -0.34544,6.10392c-0.61172,0.27969 -2.1656,-1.44188 -3.60208,-0.63631c-0.2353,2.60253 -0.74747,5.18459 -0.01348,7.65707z" data-paper-data="{&quot;index&quot;:null}" fill="url(#color-5)" stroke="url(#color-6)" stroke-width="3.5" stroke-linecap="butt"/><path d="M258.50341,209.6457c-0.57113,0 -1.03411,-0.46299 -1.03411,-1.03411c0,-0.57113 0.46299,-1.03413 1.03411,-1.03413c0.57113,0 1.03411,0.463 1.03411,1.03413c0,0.57113 -0.46299,1.03411 -1.03411,1.03411z" fill="#000000" stroke="none" stroke-width="1.5" stroke-linecap="butt"/><path d="M188.63587,193.47862c0,0 29.63034,-29.66666 32.64999,-29.66666c4.07978,0 -2.87355,31 -2.87355,31l1.50134,18z" fill="url(#color-7)" stroke="url(#color-8)" stroke-width="3.5" stroke-linecap="butt"/><path d="M253.24359,213.88129c-0.47235,-0.03327 -0.91811,-0.07959 -1.33716,-0.13675c-0.32386,-0.51141 -0.64772,-1.02283 -0.97158,-1.53424c0.90924,0.17712 1.95455,0.32813 3.10926,0.39568c3.67493,0.21499 5.93355,-0.02428 7.19181,-0.26755c-0.14703,0.46214 -0.28748,0.92781 -0.42145,1.39638c-1.43637,0.22484 -3.85181,0.40845 -7.57088,0.14649z" fill="#000000" stroke="#000000" stroke-width="0" stroke-linecap="butt"/><path d="M247.07374,211.30118c0.07628,-0.15675 1.24569,0.33468 3.17894,0.76644c0.33247,0.525 0.66493,1.05001 0.9974,1.57501c-3.08549,-0.53978 -4.49656,-1.68345 -4.17634,-2.34146z" fill="#000000" stroke="#000000" stroke-width="0" stroke-linecap="butt"/><path d="M262.55442,213.32041c0,0 -0.35683,0.15476 -1.1882,0.31764c0.12765,-0.44306 0.26074,-0.88375 0.39928,-1.32161c0.003,-0.02748 0.00363,-0.05936 0.00275,-0.0941c0.18224,-0.04484 0.32989,-0.08713 0.4459,-0.12366c0.11325,0.21793 0.23204,0.47891 0.34027,0.72525z" fill="#000000" stroke="#000000" stroke-width="0" stroke-linecap="butt"/><path d="M225.43083,208.61159c0,-0.57113 0.46299,-1.03413 1.03411,-1.03413c0.57113,0 1.03413,0.463 1.03413,1.03413c0,0.57113 -0.463,1.03411 -1.03413,1.03411c-0.57113,0 -1.03411,-0.46299 -1.03411,-1.03411z" fill="#000000" stroke="none" stroke-width="1.5" stroke-linecap="butt"/><path d="M218.63587,313.81192c0,0 -0.74655,-23.00503 -1.43207,-50.56047c2.44929,-1.68431 4.17439,-3.7737 6.88678,-5.14775c0.68998,-0.19804 0.99995,0.9017 1.233,1.44182c0.60136,1.39371 1.6364,6.34501 3.29179,4.02557c0.28652,-0.40145 0.57171,-0.80386 0.85686,-1.20629c2.08432,-2.09443 4.76751,5.09545 5.52447,6.69868c0.75715,1.60363 1.43991,3.40248 1.95766,5.05008c0.20694,0.65854 -0.37801,2.61317 0.10556,3.08781c0.53659,0.52667 1.69361,-0.38213 2.04923,-0.75187c2.37701,-2.57071 4.77154,-5.10658 7.24142,-7.58832c0.22043,-0.2236 1.9563,-1.64261 2.18423,-1.47973c1.34042,0.95784 1.59273,5.5168 1.86555,6.98088c0.30826,1.62941 0.22203,6.95124 1.99407,7.37015l0.02219,0.35939c0.00706,0.13175 0.11613,0.2364 0.24964,0.2364c0.09961,0 0.18561,-0.05826 0.2258,-0.14255l0.22212,-0.44192l-0.03178,-0.01597c1.78027,-2.48802 2.41947,-5.99647 3.90788,-8.64159c1.90544,-3.39119 3.79745,-5.20578 7.07414,-7.27697c1.20605,-0.76323 2.34275,-1.5639 3.47712,-2.35684c-0.44064,27.51478 -0.90564,50.3595 -0.90564,50.3595z" fill="url(#color-9)" stroke="url(#color-10)" stroke-width="3.5" stroke-linecap="butt"/><path d="M216.38306,176.51803c0.63468,-12.60997 9.90322,-14.70611 9.90322,-14.70611c0.1826,0.95079 0.37528,1.90044 0.55981,2.85235c1.29904,3.47284 2.30808,6.52013 4.10711,9.64526c1.84997,3.1678 5.44306,4.46866 8.93048,4.47524c3.41877,0.00216 7.50778,0.86543 10.1009,-1.77151c2.8552,-1.76919 4.93366,-5.16435 6.46551,-8.19742c0.99366,-1.97646 1.89848,-4.56993 2.55431,-7.00393c0,0 8.76716,4.81456 9.05725,10.59227c0.36059,7.18202 0.29603,26.56437 0.05909,48.76001c-1.03961,-0.36907 -2.01965,-0.73095 -2.82833,-1.17564c0.01616,-1.74526 -1.36016,-5.50281 -2.17311,-7.04912c-0.16241,-0.30892 -0.84724,-1.86312 -1.26261,-1.83898c-0.5372,0.03123 -0.5384,0.7969 -0.57969,1.10948c-1.06526,3.31584 -1.78978,6.81686 -2.21653,10.26896c-0.0716,0.57924 -0.00698,2.27695 -0.61843,2.6075c-0.07642,0.04131 -0.76767,-1.23172 -0.83454,-1.38324c-0.75612,-1.71336 -1.50749,-3.33644 -2.51003,-4.91957c-1.87253,-2.95696 -3.74507,-5.91392 -5.6176,-8.87088c-1.47679,-2.33203 -4.30768,-8.5466 -6.88134,-5.55761c-2.01217,2.43687 -1.91638,4.97662 -3.25639,7.65873c-0.35668,0.71391 -0.75451,0.48907 -1.22375,0.09088c-1.77361,-0.96241 -3.21334,-2.34579 -5.01779,-3.29319c-0.64116,-0.33663 -1.52796,-1.04153 -2.05523,-0.00273c-0.28608,0.5636 -0.12226,1.89985 -0.216,2.56004c-0.20454,1.4405 -0.10098,3.52289 -1.02185,4.69633c-0.8081,1.02975 -1.98244,-0.00696 -2.68303,0.69827c-0.22213,0.22361 -0.33248,2.14752 -0.43982,2.56733c-0.39968,1.58674 0.47387,3.91311 -0.08101,5.3469c-0.1799,0.46486 -0.60459,-0.79987 -0.82647,-1.24621c-0.49093,-0.98759 -1.83684,-1.90818 -2.72933,-1.08041c-1.50834,1.97213 -1.4047,4.99984 -2.85456,6.8018c-0.11784,0.14646 -0.154,-0.34867 -0.27565,-0.49198c-0.41984,-0.4946 -0.99338,-1.02212 -1.73518,-1.03389c-0.76102,0.02087 -1.28624,0.09864 -1.74366,0.24335c-0.3854,-21.90114 -0.53075,-41.91532 -0.05578,-51.35229z" fill="url(#color-11)" stroke="url(#color-12)" stroke-width="3.5" stroke-linecap="butt"/><path d="M265.95656,62.20288c-0.92312,0.54633 -1.56237,1.6815 -2.63342,2.44195c-2.16581,-0.19975 -2.5547,-3.04539 -3.53404,-4.85421c2.37336,0.51571 4.53736,1.15623 6.51068,1.90296c-0.02963,0.18892 -0.10767,0.3699 -0.34322,0.50931z" fill="#000000" stroke="none" stroke-width="1.5" stroke-linecap="butt"/><path d="M269.49527,63.24004c-0.08334,0.15926 -0.24454,-0.041 -0.46012,-0.38875c0.18677,0.08805 0.37157,0.17715 0.55442,0.26729c-0.03108,0.04117 -0.06251,0.08166 -0.0943,0.12146z" fill="#000000" stroke="none" stroke-width="1.5" stroke-linecap="butt"/><path d="M266.76992,61.18742c0.51879,-0.67786 0.98074,0.86205 1.59413,1.87744c-0.87182,0.41078 -1.92637,0.41228 -2.85826,-0.03012c0.44178,-0.63083 0.82401,-1.27225 1.26413,-1.84732z" fill="#9966ff" stroke="#402b6b" stroke-width="1.5" stroke-linecap="butt"/><path d="M208.63584,200.64526l-10.66667,-7.66667" fill="none" stroke="#402b6b" stroke-width="3" stroke-linecap="round"/><path d="M223.67144,222.04317l0.29773,-44.06458" fill="none" stroke="url(#color-13)" stroke-width="3" stroke-linecap="round"/><path d="M223.66864,222.45914l-0.03279,4.85278" fill="none" stroke="#402b6b" stroke-width="3" stroke-linecap="round"/><path d="M233.30249,206.97859l24.66667,-12.33333" fill="none" stroke="url(#color-14)" stroke-width="3" stroke-linecap="round"/><path d="M249.9292,210.62224l7.37331,-4.97699" fill="none" stroke="url(#color-15)" stroke-width="3" stroke-linecap="round"/><path d="M263.63581,174.97859l-0.18939,38.63546" fill="none" stroke="url(#color-16)" stroke-width="3" stroke-linecap="round"/><path d="M224.42505,258.11099l0.54412,53.86759" fill="none" stroke="url(#color-17)" stroke-width="3" stroke-linecap="round"/><path d="M262.38581,265.31192l-0.02955,1.03425" fill="none" stroke="#402b6b" stroke-width="3" stroke-linecap="round"/><path d="M261.38581,300.3119l0.95252,-33.33825" fill="none" stroke="url(#color-18)" stroke-width="3" stroke-linecap="round"/><path d="M236.38584,284.31192l14.5,-2.5" fill="none" stroke="#402b6b" stroke-width="3" stroke-linecap="round"/><path d="M253.88584,285.31192l-21,6.5" fill="none" stroke="#402b6b" stroke-width="3" stroke-linecap="round"/><path d="M211.38584,196.31192l-10,-7.5" fill="none" stroke="#402b6b" stroke-width="3" stroke-linecap="round"/><path d="M196.88584,284.31191v-14.5h18v14.5z" fill="#6712b1" stroke="url(#color-19)" stroke-width="3.5" stroke-linecap="butt"/><path d="M226.24606,96.36585c1.02686,-2.05294 12.35012,-38.22808 47.1252,-28.30684c2.15569,0.65785 4.16014,1.36584 6.02321,2.11817c0.21895,0.45863 0.57629,0.70775 1.22571,0.51c0.81419,0.34902 1.5999,0.70687 2.35805,1.07296c0.85614,1.95772 0.38507,5.64485 2.85382,6.37532c1.61747,-0.55783 2.62633,-1.65248 3.6751,-2.57694c0.48363,0.33985 0.95065,0.68411 1.40159,1.03247c0.23784,1.08273 0.54818,2.22573 1.54676,1.59783c0.06653,-0.05175 0.13254,-0.10533 0.19807,-0.16062c17.37239,15.27282 6.83836,37.24696 7.04607,43.05582c0.35719,9.98868 0.4323,18.45218 0.4323,18.45218c0,0 -1.99013,-2.81307 -2.90098,-4.24853c-0.84954,-1.33883 -2.63284,-4.17318 -2.63284,-4.17318c0,0 -0.28487,10.79616 -5.19848,20.07428c-4.43691,8.52312 -12.29882,14.09654 -12.29882,14.09654l-0.36685,-2.59036c0,0 -1.65623,1.77021 -3.09044,2.49442c-1.43421,0.7242 -4.17476,1.69712 -4.17476,1.69712l1.06599,-3.54871c0,0 -10.13997,8.2717 -26.52528,2.74846c-15.41599,-5.32038 -21.45113,-18.26287 -21.45113,-18.26287l-0.93712,2.48666c0,0 -2.6758,-4.34184 -2.85129,-11.14974c-0.20915,-8.11423 0.73404,-12.64327 0.73404,-12.64327c0,0 -2.81417,1.07637 -6.29673,0.85622c-4.36385,-0.27585 -6.70878,-1.83503 -6.70878,-1.83503c0,0 4.27467,-1.45859 6.79163,-2.79394c2.24192,-1.18943 3.56662,-2.3852 3.56662,-2.3852c0,0 -2.34056,0.37448 -4.52614,0.21946c-2.28041,-0.16174 -3.99504,-0.75039 -3.99504,-0.75039c0,0 6.29613,-3.2377 10.06734,-8.14434c3.56062,-4.63267 5.40733,-9.7587 5.40733,-9.7587c0,0 -1.49997,0.20472 -3.41215,-0.28137c-1.21001,-0.3076 -2.24089,-0.78527 -2.24439,-0.78691c0.01083,-0.00522 7.70114,-3.7088 8.09239,-4.49099z" fill="#000000" stroke="none" stroke-width="1.5" stroke-linecap="butt"/><path d="M218.15367,100.85684c0,0 0,0.00001 0.00001,0.00001c-0.00001,0.00001 -0.00001,0.00001 -0.00001,0.00001z" fill="#000000" stroke="none" stroke-width="1.5" stroke-linecap="butt"/><path d="M230.57955,116.84255c1.72265,-7.11033 5.66008,-16.19728 5.66008,-16.19728c0,0 3.25386,1.02284 14.20158,1.34486c8.41073,0.24738 22.47998,-2.61729 22.47998,-2.61729c0,0 -2.9884,2.18301 -4.62723,3.17725c-1.74227,1.05698 -5.21527,3.09275 -5.21527,3.09275c0,0 7.96758,0.85598 15.41782,0.0754c9.24336,-0.69185 11.95075,-2.45373 13.73667,-0.33172c2.10783,2.50449 -6.24002,22.35084 -8.26682,27.53541c-2.16602,5.25607 -5.36543,8.23855 -6.89245,10.91705c-1.52702,2.67852 -2.30012,5.70398 -7.09114,14.55525c-2.98993,5.52381 -6.73397,7.18498 -14.08651,10.81195c-7.35255,3.62697 -11.48487,5.97347 -15.26928,4.80597c-3.64198,-1.12355 -6.90323,-7.62911 -10.00958,-14.20561c-3.30775,-7.00291 -5.79396,-10.81922 -4.51811,-17.41234c1.14903,-5.9378 2.3475,-9.6577 3.68135,-14.83982c0.97488,-3.78747 -0.14184,-6.82871 0.79891,-10.7118z" fill="#ffffff" stroke="#000000" stroke-width="1.5" stroke-linecap="butt"/><g stroke="none" stroke-linecap="butt"><path d="M267.11263,163.44274c0,0 -3.72966,15.30091 -12.37396,21.41668c-3.01501,2.13309 -9.09709,0.57614 -14.25372,-0.73267c-5.52919,-1.40337 -10.58075,-2.69968 -12.65506,-6.32966c-5.8832,-10.2956 -1.16584,-25.8336 -1.16584,-25.8336c0,0 11.97536,-5.22093 16.89382,-4.42737c1.50982,0.24361 5.09073,5.05486 5.09073,5.05486c0,0 4.80144,-3.15299 8.49899,-0.7813c6.19236,3.97195 9.96505,11.633 9.96505,11.633z" fill="#000000" stroke-width="0"/><path d="M249.20176,155.28062c-0.83365,0.35855 -15.01703,-1.10969 -17.4697,-1.7322c-3.40411,-0.864 -2.94462,-1.4513 3.60618,-3.23153c5.89633,-1.59554 9.61327,-1.46944 12.61862,4.00364c0,0 1.40836,0.84811 1.24489,0.96009z" data-paper-data="{&quot;noHover&quot;:false,&quot;origItem&quot;:[&quot;Path&quot;,{&quot;applyMatrix&quot;:true,&quot;segments&quot;:[[[332.0254,197.06293],[0.95313,-0.53669],[-1.05859,0.59758]],[[331.53713,197.74806],[-0.62891,0],[0.45313,0]],[[334.0254,197.29892],[-0.1289,0.09896],[0.02344,-0.02664]],[[333.87307,196.93732],[0.10547,0.17509],[-0.28906,-0.44914]]],&quot;closed&quot;:true,&quot;fillColor&quot;:[0,0,0]}]}" fill="#ffffff" stroke-width="0.5"/><path d="M261.17959,157.77995l3.50325,4.46054l-2.32808,-0.32547c-2.6952,-0.4648 -14.17534,-6.19056 -14.19964,-7.42477c1.61607,-0.88367 5.22541,-2.25165 7.14947,-1.76331c1.16287,0.29515 3.60202,2.39278 5.87505,5.05302z" data-paper-data="{&quot;noHover&quot;:false,&quot;origItem&quot;:[&quot;Path&quot;,{&quot;applyMatrix&quot;:true,&quot;segments&quot;:[[[335.58448,196.62521],[0.21484,0],[-0.35547,0]],[[334.9087,197.16189],[-0.07422,-0.22457],[0.05859,0.21315]],[[337.13526,197.84702],[-0.48828,0.03806],[0,0]],[337.54932,197.80896],[[336.74073,197.21138],[0,0],[-0.51172,-0.3616]]],&quot;closed&quot;:true,&quot;fillColor&quot;:[0,0,0]}]}" fill="#ffffff" stroke-width="0.5"/><path d="M240.39656,157.13974c0.37649,-1.48334 9.29965,0.47552 12.90811,2.75101c2.64045,1.74474 2.3974,1.92871 -5.06625,0.03435c-4.35008,-1.03831 -7.92554,-2.45568 -7.84187,-2.78531z" data-paper-data="{&quot;noHover&quot;:false,&quot;origItem&quot;:[&quot;Path&quot;,{&quot;applyMatrix&quot;:true,&quot;segments&quot;:[[[333.20509,198.01069],[0,0],[0,0.0609]],[[334.61134,198.10965],[-0.80078,0.01142],[1.37891,0]],[[335.46682,197.92314],[0.53516,0.18651],[-0.72656,-0.23599]],[[333.20509,198.01068],[0,-0.27405],[0,0]]],&quot;closed&quot;:true,&quot;fillColor&quot;:[0,0,0]}]}" fill="#ffffff" stroke-width="0.5"/><path d="M235.63598,165.10596c0.24052,-0.94765 0.74013,-0.6983 4.4141,2.38325c3.84329,3.21228 7.09208,3.88464 10.83857,2.33554c2.54859,-1.0856 3.80807,-0.79772 2.70294,0.80773c-1.32588,2.03188 -5.66725,2.96525 -9.72679,1.9349c-3.29839,-0.83717 -4.40182,-1.72495 -6.23539,-3.98852c-1.18723,-1.52937 -2.07717,-3.14322 -1.9935,-3.47285z" data-paper-data="{&quot;noHover&quot;:false,&quot;origItem&quot;:[&quot;Path&quot;,{&quot;applyMatrix&quot;:true,&quot;segments&quot;:[[[332.72855,199.61694],[0,0],[0,0.0609]],[[333.22855,200.11556],[-0.27344,-0.21315],[0.41797,0.31211]],[[334.43168,200.48857],[-0.60938,0],[0.75,0]],[[335.99027,199.7806],[-0.14062,0.41108],[0.12109,-0.32734]],[[335.58402,199.74254],[0.39453,-0.3007],[-0.58203,0.43392]],[[333.50199,199.81486],[0.80859,0.38824],[-0.77344,-0.37301]],[[332.72855,199.61693],[0,-0.17508],[0,0]]],&quot;closed&quot;:true,&quot;fillColor&quot;:[0,0,0]}]}" fill="#ffffff" stroke-width="0.5"/><path d="M232.50962,160.28317c2.39917,10.58682 4.03215,12.32641 11.99683,13.93126c6.05158,1.25088 7.16284,0.9984 12.18137,-5.03036c2.95967,-3.50314 7.2993,-5.86291 8.01568,-4.60653c0.5095,0.9188 -4.98773,12.98879 -7.15732,15.59595c-3.39636,4.15978 -6.50453,4.63213 -16.04021,2.21187c-6.9562,-1.76556 -8.21725,-2.32328 -10.72174,-4.60366c-3.40452,-3.07901 -4.24204,-6.81089 -3.83348,-16.3123c0.19647,-3.70005 0.43852,-7.0065 0.5065,-7.27433c0.07321,-0.28844 1.01775,0.09463 2.06035,0.86361c1.20154,0.9409 2.48964,2.94787 2.99209,5.22446z" data-paper-data="{&quot;noHover&quot;:false,&quot;origItem&quot;:[&quot;Path&quot;,{&quot;applyMatrix&quot;:true,&quot;segments&quot;:[[[331.21682,198.15914],[0.25,0.11038],[-0.21484,-0.08754]],[[330.8223,198.09824],[0,-0.05329],[0,0.04948]],[[331.06057,199.36953],[-0.1289,-0.65087],[0.34766,1.66715]],[[332.43166,201.98444],[-0.72656,-0.38444],[0.53516,0.28547]],[[334.4551,202.29655],[-1.28516,0],[1.76172,0]],[[337.09963,201.23841],[-0.40625,0.87163],[0.26172,-0.5481]],[[337.65822,198.2581],[0.12891,0.13703],[-0.17969,-0.18651]],[[336.56056,199.36953],[0.35938,-0.73842],[-0.60547,1.26749]],[[334.6465,200.83875],[1.10547,-0.04948],[-1.45312,0.07232]],[[331.88088,198.88233],[0.88281,1.73185],[-0.1875,-0.37301]]],&quot;closed&quot;:true,&quot;fillColor&quot;:[0,0,0]}]}" fill="#ffffff" stroke-width="0.5"/></g><path d="M279.78464,121.05355c0,0 1.34947,0.7769 3.69848,2.3803c2.14556,1.46453 3.68507,3.04281 3.68507,3.04281l-0.17904,1.17291c0,0 -5.91455,-5.23182 -13.59496,-7.05469c-6.14108,-1.45749 -10.34358,-0.42987 -10.34358,-0.42987l1.3441,-3.95492c0,0 3.50266,-0.64561 8.0505,0.68536c4.70925,1.37821 7.50447,3.08127 7.50447,3.08127z" data-paper-data="{&quot;index&quot;:null}" fill="#000000" stroke="none" stroke-width="1.5" stroke-linecap="butt"/><path d="M247.67459,153.41093c-0.98236,-0.3219 -2.34693,-4.20006 -1.92824,-6.27617c0.37463,-1.85756 2.44174,-3.22816 4.79044,-2.45852c2.3487,0.76963 3.84036,1.77487 2.52536,5.23519c-1.116,2.93668 -3.03888,4.26914 -5.38756,3.49952z" fill="#ffffff" stroke="#000000" stroke-width="1.15" stroke-linecap="butt"/><path d="M248.14355,64.80342c1.58123,0.61045 3.0192,1.43235 3.84673,3.02423c0.67405,1.33524 1.08444,2.84619 1.71056,4.13155c0.79101,1.62385 2.64169,3.09925 3.70271,4.55997c2.12773,2.9293 3.73096,5.61065 6.40151,8.16479c1.01851,0.97412 2.03719,1.94806 3.05584,2.92204c1.30442,-0.08805 2.60605,-0.18784 3.89635,-0.2246c4.21517,-0.12007 6.20839,1.60099 9.07319,4.52903c2.45322,2.50738 4.96377,4.89892 7.56643,7.2507c2.59781,2.34741 5.26432,4.59474 7.95423,6.83574c1.53406,1.27805 3.06034,2.69128 4.21278,4.33716c0.23145,0.33052 1.25624,1.44034 1.18514,1.83827c-0.05401,0.30232 -0.78199,0.99124 -1.3007,1.48165c1.84794,0.75368 3.80862,1.23955 5.84585,1.57445c2.39222,0.39324 4.45228,-0.41194 6.70052,-0.57588c2.14774,-0.15662 1.58175,1.66817 0.34787,2.4697c-0.32402,0.31187 -2.41072,1.73131 -2.1378,2.26197c0.13586,0.26416 0.61498,0.05778 0.86337,0.22068c1.34274,0.88059 2.9244,1.32472 4.37673,2.09394l0.01027,-0.02704l0.46604,0.17726c0.125,0.04663 0.19193,0.18409 0.15001,0.31202c-0.02067,0.06309 -0.06404,0.11236 -0.11809,0.14176l-0.43814,0.23968c-1.60154,0.87582 -3.2414,2.47477 -4.27603,3.96962c-0.25476,0.36808 -0.90406,1.58952 -0.46197,2.02437c0.38322,0.37693 1.18505,0.69564 1.65476,1.00779c0.68847,0.45846 2.215,1.38157 2.1243,2.31644c-0.16253,1.67532 -3.98537,4.65134 -5.39631,5.36371c-2.70373,1.34572 -7.23106,2.74978 -6.63635,6.4366c0.17527,1.08654 2.17544,5.81184 1.04443,6.526c-0.34157,0.21567 -3.40695,-0.58941 -4.02472,-0.62206c-2.04285,0.5178 -0.48804,7.94713 -4.17975,5.86383c-0.42904,-0.24212 -0.83314,-0.61497 -1.22942,-0.90861c-0.35226,-0.25264 -0.58198,-0.97352 -0.99394,-0.83863c-0.04435,0.01451 -0.54952,1.99957 -0.62059,2.21553c-0.67347,2.04649 -1.69984,4.02201 -2.56029,5.99764c-1.0628,1.9012 -1.86305,-1.26478 -2.92854,-0.75252c-0.84188,0.40475 -1.99991,6.38466 -3.31356,3.20264c-0.13561,-0.32847 -0.20756,-0.68461 -0.24192,-1.03831c-0.06345,-0.74231 0.30577,-1.27519 0.34545,-1.98275c0.0664,-1.18364 -0.86459,-2.24756 -0.91302,-3.33412c-0.01737,-0.38979 0.50233,-0.99419 0.36748,-1.38978c-0.28514,-0.83634 -0.66377,-2.48546 -0.3855,-3.42227c1.00927,-3.07608 3.55811,-6.29731 5.27626,-9.06395c1.81127,-2.91456 3.38955,-6.13617 4.45561,-9.39662c0.95434,-2.91877 2.21144,-7.08232 1.41127,-10.08273c-0.56973,-2.13983 -1.29209,-3.67025 -2.39493,-4.96894c-0.37135,0.05455 -0.75513,0.07313 -1.1526,0.05018c-0.94957,-0.06811 -2.30725,0.06838 -3.04355,-0.67423c-0.24547,-0.24756 -0.35834,-1.13606 -0.62811,-1.30427c-0.68322,-0.42599 -2.56784,0.05857 -3.42301,-0.18149c-0.84262,-0.23654 -1.11763,-1.08943 -2.05756,-1.23708c-1.15676,-0.19541 -3.65988,-0.15782 -4.50594,-1.06572c-0.28814,-0.30921 -0.20468,-1.13088 -0.49359,-1.39215c-0.51657,-0.46713 -3.52115,0.19347 -4.31238,0.12615c-1.77254,-0.26313 -0.26704,-3.40534 -0.7848,-3.53558c-1.38896,-0.34942 -4.67501,0.73792 -6.24842,0.96954c-0.88509,0.1303 -2.82607,0.3748 -3.64282,-0.10534c-1.31648,-0.77393 -0.26774,-3.13243 -1.14634,-3.77823c-0.29212,-0.21471 -2.3466,0.20246 -2.79758,0.22526c-1.98488,0.70844 -3.77433,-0.01939 -5.75648,0.7083c-0.53251,0.19549 -1.35702,0.76264 -1.62499,-0.20012c-0.14774,-0.53083 0.92776,-2.15433 1.16342,-2.67375c-1.70713,0.06404 -4.71426,1.172 -6.28101,0.77574c-1.19744,-0.30285 -2.10242,-1.44795 -3.50267,-1.72405c-0.80298,-0.17057 -0.91892,-0.50368 -0.93265,-0.8738c-0.04656,0.01644 -0.09829,0.01929 -0.14902,0.00539l-0.48158,-0.12813l0.00565,-0.02122c-1.58049,-0.04754 -4.6368,-0.27675 -5.03426,-0.97236c-0.13278,-0.23238 -0.127,-0.50844 -0.02863,-0.80559c-0.6044,-0.27135 -1.05666,-0.85536 -1.23848,-2.05977c-0.09378,-0.6212 -0.14155,-1.24099 -0.16216,-1.85948c-1.65885,0.84193 -4.31945,2.15901 -5.08804,3.45538c-0.64092,1.081 -0.63354,2.13774 -1.55048,3.09145c-1.44688,2.73939 -2.11327,6.51888 -3.16335,9.72518c-1.11074,3.3915 -2.00484,6.57885 -2.48063,10.11756c-0.46192,3.43561 -1.09524,6.92189 -1.07878,10.35972c-0.06903,2.22158 0.41018,5.49138 -0.45657,7.56821c-0.32543,0.77976 -1.73857,1.37511 -2.37369,1.97042c-0.66405,0.48027 -2.58384,2.46254 -3.36646,2.41696c-1.7483,-0.10184 -0.92965,-5.08811 -0.75315,-6.25218c0.07868,-0.51893 0.89801,-2.37458 0.77955,-2.73904c-0.08615,-0.26504 -1.78291,0.56725 -1.93163,0.68508c-1.03052,0.81638 -3.63477,2.75393 -4.20182,1.01015c-0.44959,-1.68804 -0.14045,-3.79643 -0.04977,-5.5481c0.02058,-0.39774 0.37792,-2.01393 0.10099,-2.30833c-0.41635,-0.44266 -1.72091,-0.20278 -2.2268,-0.13453c-0.70855,0.0956 -2.3143,0.25241 -2.53577,-0.79244c-0.15681,-0.73985 0.75725,-1.38822 1.1031,-1.82989c1.02684,-1.31128 1.72498,-3.7573 2.24287,-5.36115c0.03208,-0.46903 0.48628,-2.48965 0.28044,-2.80631c-0.55911,-0.8601 -2.88736,-0.06087 -2.96083,-1.75371c-0.05201,-1.19816 1.10057,-2.76695 1.66081,-3.76168c0.70404,-1.24981 2.54531,-3.82532 2.32941,-5.32962c-0.19898,-1.38639 -2.79341,-2.45983 -1.41605,-4.05675c1.01549,-1.08579 4.01406,-1.52484 4.65214,-2.61342c0.49534,-0.84509 0.04104,-3.80175 -0.00852,-4.83982c-0.17656,-3.69747 0.85867,-6.72329 1.31821,-10.34258c0.2741,-1.15169 0.64964,-5.53169 2.1164,-5.72702c0.63969,-0.0852 2.90955,2.2301 3.65025,2.64709c1.91035,-0.00688 1.28267,-2.13288 1.72468,-3.57954c0.52345,-1.71321 1.60899,-3.4664 2.41027,-5.07003c1.29192,-0.73744 2.64062,0.28319 3.77814,-0.49165c1.32634,-0.90346 1.76341,-4.39733 2.29605,-5.86137c0.353,-0.97028 0.97479,-3.34572 2.32226,-3.40708c0.61359,-0.02794 4.3073,4.59723 4.84539,2.27598c0.51828,-1.58158 1.44029,-6.84961 3.23246,-7.48421c0.51292,-0.18162 2.07406,0.64932 2.53599,0.88639c2.79832,1.44058 5.46685,1.68064 8.41694,2.64734c0,0 0.23756,0.07784 0.15972,0.31542c-0.07784,0.23757 -0.31542,0.15973 -0.31542,0.15973c-0.41592,-0.13629 -0.8265,-0.25842 -1.23282,-0.37168zM237.62212,97.62873c-1.38795,-0.45418 -2.3077,-0.27988 -3.72445,0.03843c-0.01003,0.00523 -0.02012,0.01049 -0.03029,0.01578c0.01704,0.67676 0.06453,1.35513 0.16721,2.03545c0.13716,0.90859 0.48503,1.40397 0.96078,1.66621c0.60497,-1.04617 1.98352,-2.19927 2.41583,-2.61398c0.30942,-0.29609 0.61677,-0.58011 0.92329,-0.85359c-0.30211,-0.12632 -0.56311,-0.23945 -0.7124,-0.2883zM249.45833,89.54294c-2.23379,1.32553 -4.37981,2.83012 -6.17435,4.70629c0.82759,-0.51228 1.69016,-1.00951 2.60676,-1.51568c1.34272,-0.64958 2.41933,-1.99078 3.56758,-3.19059z" fill="#000000" stroke="none" stroke-width="0.5" stroke-linecap="butt"/><path d="M260.46845,125.93512c0,0 -1.13866,3.80433 -2.2137,6.77409c-2.12875,5.88063 -9.67213,26.04374 -9.67213,26.04374l-2.83611,-0.92024c0,0 0.53634,-4.21531 1.89077,-9.37724c1.83335,-6.98712 4.6464,-15.62311 5.38782,-18.89393c0.70281,-3.10043 0.92807,-5.70941 0.92807,-5.70941" fill="#ffffff" stroke="#000000" stroke-width="1.3" stroke-linecap="round"/><path d="M229.04242,126.99168c0,0 -3.59172,-4.87801 -3.06297,-10.44827c0.55636,-5.86098 1.64217,-9.7039 3.56765,-9.34564c1.92549,0.35824 1.82867,3.10049 0.94516,9.10255c-0.88351,6.00206 -1.44984,10.69136 -1.44984,10.69136z" data-paper-data="{&quot;index&quot;:null}" fill="#ffffff" stroke="#000000" stroke-width="1" stroke-linecap="butt"/><path d="M230.07912,123.17734c0,0 -2.47634,-3.88778 -1.47203,-9.3751c0.56023,-3.061 2.75953,-1.49521 2.75953,-1.49521" fill="none" stroke="#000000" stroke-width="0.25" stroke-linecap="round"/><path d="M241.58788,108.84892c0,0 3.76852,-0.6793 8.34361,0.33288c5.06978,1.12161 7.40265,2.35596 7.40265,2.35596l-1.00796,4.02365c0,0 -3.4329,-1.84116 -7.45704,-2.99193c-5.38179,-1.53902 -6.76071,-0.70747 -10.94482,-1.59629c-3.58517,-0.76158 -6.45173,-1.94697 -6.45173,-1.94697l0.35888,-1.17838c0,0 3.39338,1.1898 4.99479,1.56477c1.32173,0.30947 4.07015,0.34655 4.07015,0.34655z" fill="#000000" stroke="none" stroke-width="1.5" stroke-linecap="butt"/><path d="M283.88344,133.79571c2.83995,-5.36097 4.38482,-7.62873 6.14893,-6.77796c1.7641,0.85076 0.36504,4.59102 -2.65514,9.64466c-2.87036,4.80296 -8.65244,6.60933 -8.65244,6.60933c0,0 2.31871,-4.11506 5.15866,-9.47604z" data-paper-data="{&quot;index&quot;:null}" fill="#ffffff" stroke="#000000" stroke-width="1" stroke-linecap="butt"/><path d="M285.54189,130.05932c0,0 2.69948,0.03943 1.33949,2.83838c-2.43793,5.01755 -6.7349,6.68582 -6.7349,6.68582" data-paper-data="{&quot;index&quot;:null}" fill="none" stroke="#000000" stroke-width="0.25" stroke-linecap="round"/><path d="M312.03307,113.47287c-7.08971,7.89735 -25.75977,2.69829 -41.70071,-11.61244c-15.94094,-14.31073 -23.11627,-32.31395 -16.02656,-40.21129c3.94496,-4.39436 11.47542,-4.73381 20.1261,-1.70486c0.07651,0.35792 0.18281,0.68425 0.36083,0.89911c0.42656,0.51484 1.19701,0.09432 1.92594,-0.03042c0.43742,0.17894 0.87707,0.36601 1.31864,0.56112c0.03573,0.06293 0.06982,0.13193 0.10213,0.20748c1.12704,2.32461 0.56934,4.91335 0.92338,7.25972c0.18827,1.24777 0.44889,2.39993 1.91617,1.70439c3.72859,-0.32706 1.37744,6.56139 4.85304,7.58979c1.87527,-0.64674 2.93246,-2.01505 4.18222,-3.00313c1.12424,-0.88884 0.5552,4.24242 2.44123,3.05648c1.43037,-1.11264 2.62219,-3.06885 3.75357,-4.74476c15.79908,14.28096 22.88364,32.165 15.82403,40.02882z" fill="#6712b1" stroke="#9966ff" stroke-width="3.5" stroke-linecap="butt"/><path d="M228.36674,133.32858c0,0 1.07868,-13.70092 2.29682,-18.50034c0.84264,-3.31996 4.31017,-7.53081 4.31017,-7.53081c0,0 11.53415,1.55676 18.23794,3.25826c7.37285,1.87131 34.15851,11.41125 34.15851,11.41125l-5.79969,25.5507z" fill="#000000" stroke="none" stroke-width="0" stroke-linecap="butt"/><path d="M267.74428,60.41235c1.54861,-1.66049 3.27478,-3.06911 5.13289,-4.22674c0.48232,0.76636 1.09014,1.48447 1.29805,2.30636c0.17639,0.69728 0.19384,1.84005 0.61752,2.35141c0.75074,0.90613 2.56681,-1.08517 3.34671,0.73819c1.12704,2.32461 0.56934,4.91335 0.92338,7.25972c0.18827,1.24777 0.44889,2.39993 1.91617,1.70439c3.72859,-0.32706 1.37744,6.56139 4.85304,7.58979c1.87527,-0.64674 2.93246,-2.01505 4.18222,-3.00313c1.12424,-0.88884 0.5552,4.24242 2.44123,3.05648c1.79919,-1.39953 3.22095,-4.13374 4.61973,-5.96597c0.34999,-0.45844 1.14976,-1.96756 1.60336,-2.0597c0.52287,0.87515 1.29859,3.69736 2.52589,3.61538c1.82579,-0.12194 3.01938,-3.4641 3.92346,-4.63667c1.92419,-2.54118 3.23636,-5.02788 5.91839,-6.56299c11.37772,11.81132 12.56329,29.56894 2.40509,40.46103c-10.54706,11.30903 -56.25419,-31.31852 -45.70714,-42.62754z" fill="#6712b1" stroke="#9966ff" stroke-width="3.5" stroke-linecap="butt"/><g stroke-linecap="butt"><path d="M260.75078,127.38568c1.59069,-4.62657 7.3804,-6.98519 12.46204,-5.23807c5.08163,1.74713 7.25551,6.84816 5.66483,11.47476c-1.59069,4.62658 -6.65699,7.07313 -11.73863,5.326c-5.08163,-1.74714 -7.97893,-6.93611 -6.38824,-11.5627z" fill="#ffffff" stroke="#000000" stroke-width="1.4"/><path d="M264.93106,128.87958c0.89695,-2.60882 3.73893,-3.99656 6.34774,-3.09962c2.60883,0.89695 3.99657,3.73894 3.09962,6.34775c-0.89695,2.60884 -3.73893,3.99657 -6.34774,3.09962c-2.60883,-0.89695 -3.99657,-3.73893 -3.09963,-6.34775z" fill="#000000" stroke="none" stroke-width="1.5"/><path d="M260.42696,126.81601c0,0 2.86763,-8.54711 12.82204,-5.08505c8.94848,3.10679 6.15114,11.91503 6.15114,11.91503c0,0 -1.68655,-6.27122 -8.1728,-8.45136c-5.91194,-1.98711 -10.80038,1.62139 -10.80038,1.62139z" fill="#ffffff" stroke="#000000" stroke-width="1.15"/><path d="M267.87605,135.42182c6.51863,2.08132 11.58952,-1.97559 11.58952,-1.97559c0,0 -2.95801,8.75559 -12.00978,5.96402c-10.07287,-3.10053 -7.32605,-11.68723 -7.32605,-11.68723c0,0 1.80485,5.80177 7.74631,7.69881z" data-paper-data="{&quot;index&quot;:null}" fill="#ffffff" stroke="#000000" stroke-width="1.15"/></g><path d="M233.58207,118.27489c1.59069,-4.62657 7.3804,-6.9852 12.46204,-5.23807c5.08163,1.74713 7.25551,6.84817 5.66484,11.47476c-1.59069,4.62657 -6.65699,7.07313 -11.73864,5.32601c-5.08163,-1.74714 -7.97893,-6.93611 -6.38823,-11.5627z" fill="url(#color-20)" stroke="#000000" stroke-width="1.4" stroke-linecap="butt"/><path d="M234.19721,120.35117c1.37408,-3.99656 5.72781,-6.12249 9.72435,-4.74841c3.99656,1.37408 6.12247,5.72781 4.74841,9.72434c-1.37408,3.99656 -5.7278,6.12247 -9.72435,4.74841c-3.99656,-1.37408 -6.12247,-5.7278 -4.74841,-9.72433z" fill="#000000" stroke="none" stroke-width="1.5" stroke-linecap="butt"/><path d="M301.67153,86.50417c-4.71553,4.74449 -12.13784,5.013 -16.57818,0.59974c-3.6137,-3.59165 -4.1387,-9.17727 -1.66715,-13.68989c0.35204,1.91144 0.53296,4.16727 2.40586,4.72143c1.87527,-0.64674 2.93246,-2.01506 4.18222,-3.00314c1.12424,-0.88884 0.55521,4.24242 2.44123,3.05648c1.79919,-1.39953 3.22095,-4.13375 4.61973,-5.96597c0.34999,-0.45844 1.14975,-1.96756 1.60335,-2.0597c0.52287,0.87515 1.2986,3.69736 2.5259,3.61538c0.96025,-0.06414 1.74562,-1.019 2.40597,-2.0805c2.87471,4.44303 2.19014,10.65174 -1.93893,14.80616z" fill="#9966ff" stroke="#402b6b" stroke-width="3" stroke-linecap="butt"/><path d="M299.53161,85.01908c-1.37103,1.10363 -1.30656,-0.92492 -2.47386,-2.37505c-1.1673,-1.45012 -3.12434,-1.77267 -1.75331,-2.87629c1.37103,-1.10362 3.42873,-0.82276 4.59604,0.62736c1.1673,1.45013 1.00216,3.52035 -0.36885,4.62398z" fill="#9966ff" stroke="#402b6b" stroke-width="1.5" stroke-linecap="butt"/><path d="M294.65763,89.03049l-11.07499,-11.69687" fill="none" stroke="#402b6b" stroke-width="3" stroke-linecap="round"/><path d="M249.54038,112.68468c0.54341,-0.70039 1.0849,-1.40378 1.6375,-2.09122l38.51068,12.61928l-7.97159,24.32722l-35.78128,-11.72489c0.83138,-1.11896 2.54246,-1.77378 3.72906,-2.48159c0.33833,-0.20182 1.73833,-0.80306 1.82998,-1.18552c0.12038,-0.50242 -0.92132,-1.52078 -1.28411,-1.72235c-0.1468,-0.63648 -0.89395,-0.87313 -0.98345,-1.52165c-0.09382,-0.6798 0.82701,-1.38156 1.26082,-1.75666c0.63425,-0.54843 6.08593,-2.28941 4.21043,-3.15759c-5.2271,-1.33705 0.24487,-2.8252 2.49381,-4.26658l0.05653,0.08397l0.41393,-0.27867c0.04967,-0.03312 0.0877,-0.08404 0.10354,-0.14645c0.03385,-0.13339 -0.04646,-0.26896 -0.1795,-0.30348l-0.47925,-0.12481c-1.06311,-0.32335 -2.21105,-1.47871 -3.25238,-2.05666c-1.17544,-1.29684 -3.37526,-1.97939 -5.3266,-2.85358c0.38656,-0.51462 0.74239,-1.04663 1.01191,-1.35875z" fill="url(#color-21)" stroke="url(#color-22)" stroke-width="3" stroke-linecap="butt"/><path d="M249.36288,130.16811l15.25967,-1.6694l20.1492,7.23392" fill="none" stroke="url(#color-23)" stroke-width="3" stroke-linecap="round"/><path d="M246.60752,116.54682c-0.24231,-0.0615 -0.18081,-0.30382 -0.18081,-0.30382l0.02429,-0.0957c0.32409,-1.07652 1.18664,-0.70408 2.03047,-1.21238c0,0 0.21484,-0.12785 0.34269,0.08698c0.12785,0.21483 -0.08698,0.34268 -0.08698,0.34268c-0.60726,0.35761 -1.67548,0.20982 -1.80155,0.90573l-0.02429,0.09569c0,0 -0.06151,0.24232 -0.30382,0.18082z" fill="#a10000" stroke="none" stroke-width="0.5" stroke-linecap="butt"/><path d="M242.92272,114.58449c-0.24231,-0.0615 -0.18081,-0.30382 -0.18081,-0.30382l0.05646,-0.17029c0.37314,-0.58174 0.74395,-0.78636 1.39032,-1.01689c0,0 0.23574,-0.08325 0.31898,0.15249c0.08325,0.23574 -0.15249,0.31897 -0.15249,0.31897c-0.55413,0.19341 -0.82519,0.33089 -1.13594,0.81537l0.0073,0.02335c0,0 -0.06151,0.24232 -0.30382,0.18081z" fill="#a10000" stroke="none" stroke-width="0.5" stroke-linecap="butt"/><path d="M241.03393,114.31121c-0.24231,-0.0615 -0.18081,-0.30382 -0.18081,-0.30382l0.05646,-0.17029c0.17056,-0.2659 0.34109,-0.53179 0.51165,-0.79769c0,0 0.13497,-0.21043 0.34541,-0.07546c0.21043,0.13496 0.07546,0.34541 0.07546,0.34541c-0.17056,0.2659 -0.34109,0.53179 -0.51164,0.79769l0.00731,0.02336c0,0 -0.06151,0.24232 -0.30382,0.18081z" fill="#a10000" stroke="none" stroke-width="0.5" stroke-linecap="butt"/><path d="M238.85172,114.78794c-0.24231,-0.0615 -0.18081,-0.30382 -0.18081,-0.30382l0.02457,-0.09682c0.11115,-0.42109 0.22944,-0.62273 0.60153,-0.8542c0,0 0.21484,-0.12785 0.34269,0.08698c0.12785,0.21483 -0.08698,0.3427 -0.08698,0.3427c-0.26781,0.1488 -0.30127,0.25109 -0.3726,0.54753l-0.02457,0.09682c0,0 -0.0615,0.24232 -0.30382,0.18082z" fill="#a10000" stroke="none" stroke-width="0.5" stroke-linecap="butt"/><path d="M245.77976,115.10351c-0.24231,-0.0615 -0.18082,-0.30382 -0.18082,-0.30382l0.02458,-0.09682c0.11462,-0.42004 0.31685,-0.62319 0.5764,-0.9801c0,0 0.14709,-0.20215 0.34924,-0.05505c0.20215,0.1471 0.05504,0.34924 0.05504,0.34924c-0.21258,0.29196 -0.41944,0.47035 -0.49605,0.80891l-0.02457,0.09682c0,0 -0.06151,0.24232 -0.30382,0.18081z" fill="#a10000" stroke="none" stroke-width="0.5" stroke-linecap="butt"/><path d="M249.01374,118.6039c-0.24231,-0.0615 -0.18081,-0.30382 -0.18081,-0.30382l0.09939,-0.22091c0.46769,-0.42212 0.70145,-0.87162 0.85165,-1.49586c0,0 0.06151,-0.24232 0.30382,-0.18081c0.24231,0.0615 0.18081,0.30382 0.18081,0.30382c-0.18712,0.70892 -0.45539,1.25131 -1.00128,1.74403l0.05024,-0.02726c0,0 -0.06151,0.24232 -0.30382,0.18081z" fill="#a10000" stroke="none" stroke-width="0.5" stroke-linecap="butt"/><path d="M249.68143,121.33665c-0.21043,-0.13496 -0.07546,-0.34541 -0.07546,-0.34541l0.17031,-0.26552c0.50034,-0.78365 0.66901,-1.35431 0.67186,-2.2623c0,0 0.00089,-0.24999 0.25089,-0.24911c0.25,0.00089 0.2491,0.25091 0.2491,0.25091c-0.00403,0.99829 -0.20745,1.67381 -0.75052,2.52971l-0.17078,0.26628c0,0 -0.13498,0.21043 -0.34541,0.07546z" fill="#a10000" stroke="none" stroke-width="0.5" stroke-linecap="butt"/><path d="M250.30684,122.84841c-0.24231,-0.06151 -0.18081,-0.30382 -0.18081,-0.30382l0.1157,-0.37852c0.55371,-0.35906 0.77904,-1.10808 0.93363,-1.72554c0,0 0.06151,-0.24231 0.30382,-0.18081c0.24231,0.0615 0.18081,0.30382 0.18081,0.30382c-0.15699,0.61117 -0.41838,1.58482 -1.01759,1.90164l-0.03175,0.20242c0,0 -0.06151,0.24232 -0.30382,0.18081z" fill="#a10000" stroke="none" stroke-width="0.5" stroke-linecap="butt"/><path d="M251.5224,124.05641c0.12785,0.21483 -0.08698,0.34269 -0.08698,0.34269c-0.08094,0.04817 -0.40465,0.24083 -0.48559,0.28899c0,0 -0.21484,0.12785 -0.34269,-0.08698c-0.00104,-0.00176 -0.00207,-0.0035 -0.00306,-0.00525c-0.13901,0.10572 -0.27509,0.21428 -0.43032,0.3075l-0.24279,0.1445c0,0 -0.21484,0.12786 -0.34269,-0.08698c-0.12785,-0.21483 0.08698,-0.34269 0.08698,-0.34269l0.2428,-0.1445c0.27063,-0.15934 0.48277,-0.36807 0.75296,-0.53032c0,0 0.21483,-0.12786 0.34268,0.08698c0.00581,0.00976 0.01091,0.01933 0.01535,0.02873l0.15064,-0.08966c0,0 0.21483,-0.12786 0.34269,0.08698z" fill="#a10000" stroke="none" stroke-width="0.5" stroke-linecap="butt"/><path d="M238.48442,147.4946c-0.72695,-0.18451 -0.54244,-0.91146 -0.54244,-0.91146l0.24535,-0.96669c0.67755,-2.6695 1.53917,-5.21769 2.25255,-7.88263c-1.24427,-0.29738 -2.49004,-0.63389 -3.7322,-0.98615c-0.36868,3.23267 -1.22331,6.35887 -2.02624,9.52239l-0.12268,0.48334c0,0 -0.18451,0.72696 -0.91145,0.54245c-0.72695,-0.18451 -0.54245,-0.91146 -0.54245,-0.91146l0.12268,-0.48335c0.80623,-3.17649 1.68528,-6.32046 2.01918,-9.57409c-1.22695,-0.35763 -2.44842,-0.7217 -3.65947,-1.06947c-0.22036,3.91745 -0.96413,7.74543 -1.92694,11.53885l-0.18401,0.72501c0,0 -0.18451,0.72695 -0.91146,0.54244c-0.72695,-0.18451 -0.54244,-0.91146 -0.54244,-0.91146l0.18401,-0.72501c0.95621,-3.76744 1.69539,-7.5637 1.89417,-11.45775c0,0 0.00261,-0.05084 0.0197,-0.12535c-0.56555,-0.15569 -1.12834,-0.30572 -1.68788,-0.44774c0,0 -0.72695,-0.18451 -0.54244,-0.91146c0.18451,-0.72695 0.91146,-0.54244 0.91146,-0.54244c5.96719,1.51453 12.10866,2.74865 17.96319,4.6508c1.15528,2.91024 -1.38644,8.08613 -2.17464,11.19159l-0.18402,0.72501c0,0 -0.18451,0.72695 -0.91146,0.54244c-0.72695,-0.18451 -0.54244,-0.91146 -0.54244,-0.91146l0.18401,-0.72501c0.56595,-2.22981 0.91394,-4.71135 1.74548,-6.85423c0.34062,-0.87777 1.04125,-1.86406 0.87167,-2.86059c-1.27554,-0.14282 -2.5605,-0.36373 -3.84919,-0.63662c-0.71525,2.67837 -1.58291,5.24225 -2.2628,7.92097l-0.24535,0.96668c0,0 -0.18451,0.72696 -0.91146,0.54245z" fill="#cc1414" stroke="none" stroke-width="0.5" stroke-linecap="butt"/><path d="M194.40901,300.16636v-253.22501h91.18203v253.22501z" fill-opacity="0.01" fill="#000000" stroke="none" stroke-width="0" stroke-linecap="butt"/><path d="M296.90379,85.98307c0,0 -1.40275,-0.13386 -1.85684,-0.4698c-0.43588,-0.32247 -0.81532,-1.50711 -0.81532,-1.50711" fill="none" stroke="#402b6b" stroke-width="1.5" stroke-linecap="round"/></g></g></svg>