<svg version="1.1" xmlns="http://www.w3.org/2000/svg" xmlns:xlink="http://www.w3.org/1999/xlink" width="120.67727" height="322.60936" viewBox="0,0,120.67727,322.60936"><defs><radialGradient cx="237.89607" cy="76.03414" r="69.24319" gradientUnits="userSpaceOnUse" id="color-1"><stop offset="0" stop-color="#000000"/><stop offset="1" stop-color="#000000" stop-opacity="0"/></radialGradient><radialGradient cx="237.60767" cy="102.49704" r="49.03706" gradientUnits="userSpaceOnUse" id="color-2"><stop offset="0" stop-color="#000000"/><stop offset="1" stop-color="#000000" stop-opacity="0"/></radialGradient><radialGradient cx="238.1877" cy="147.44176" r="28.49744" gradientUnits="userSpaceOnUse" id="color-3"><stop offset="0" stop-color="#000000"/><stop offset="1" stop-color="#000000" stop-opacity="0"/></radialGradient><radialGradient cx="248.085" cy="125.23675" r="11.51717" gradientUnits="userSpaceOnUse" id="color-4"><stop offset="0" stop-color="#000000"/><stop offset="1" stop-color="#000000" stop-opacity="0"/></radialGradient><radialGradient cx="227.71906" cy="125.02512" r="13.28542" gradientUnits="userSpaceOnUse" id="color-5"><stop offset="0" stop-color="#000000"/><stop offset="1" stop-color="#000000" stop-opacity="0"/></radialGradient><radialGradient cx="237.59231" cy="132.29982" r="18.22457" gradientUnits="userSpaceOnUse" id="color-6"><stop offset="0" stop-color="#000000"/><stop offset="1" stop-color="#000000" stop-opacity="0"/></radialGradient><radialGradient cx="238.20172" cy="159.89669" r="11.86206" gradientUnits="userSpaceOnUse" id="color-7"><stop offset="0" stop-color="#000000"/><stop offset="1" stop-color="#000000" stop-opacity="0"/></radialGradient><radialGradient cx="238.19944" cy="150.1268" r="25.0344" gradientUnits="userSpaceOnUse" id="color-8"><stop offset="0" stop-color="#000000"/><stop offset="1" stop-color="#000000" stop-opacity="0"/></radialGradient><radialGradient cx="243.74431" cy="162.77198" r="7.13987" gradientUnits="userSpaceOnUse" id="color-9"><stop offset="0" stop-color="#000000"/><stop offset="1" stop-color="#000000" stop-opacity="0"/></radialGradient><radialGradient cx="244.72512" cy="173.07123" r="3.87868" gradientUnits="userSpaceOnUse" id="color-10"><stop offset="0" stop-color="#000000"/><stop offset="1" stop-color="#000000" stop-opacity="0"/></radialGradient><radialGradient cx="256.94665" cy="71.7369" r="14.4039" gradientUnits="userSpaceOnUse" id="color-11"><stop offset="0" stop-color="#000000"/><stop offset="1" stop-color="#000000" stop-opacity="0"/></radialGradient><radialGradient cx="202.5638" cy="91.47274" r="12.29956" gradientUnits="userSpaceOnUse" id="color-12"><stop offset="0" stop-color="#000000"/><stop offset="1" stop-color="#000000" stop-opacity="0"/></radialGradient><radialGradient cx="203.39559" cy="91.47859" r="7.21224" gradientUnits="userSpaceOnUse" id="color-13"><stop offset="0" stop-color="#000000"/><stop offset="1" stop-color="#000000" stop-opacity="0"/></radialGradient><radialGradient cx="253.31911" cy="92.07351" r="14.3166" gradientUnits="userSpaceOnUse" id="color-14"><stop offset="0" stop-color="#000000"/><stop offset="1" stop-color="#000000" stop-opacity="0"/></radialGradient><radialGradient cx="252.12904" cy="91.951" r="9.34525" gradientUnits="userSpaceOnUse" id="color-15"><stop offset="0" stop-color="#000000"/><stop offset="1" stop-color="#000000" stop-opacity="0"/></radialGradient><radialGradient cx="219.43738" cy="71.82585" r="16.16514" gradientUnits="userSpaceOnUse" id="color-16"><stop offset="0" stop-color="#000000"/><stop offset="1" stop-color="#000000" stop-opacity="0"/></radialGradient><radialGradient cx="273.51188" cy="89.44445" r="11.53003" gradientUnits="userSpaceOnUse" id="color-17"><stop offset="0" stop-color="#000000"/><stop offset="1" stop-color="#000000" stop-opacity="0"/></radialGradient><radialGradient cx="272.30376" cy="89.56333" r="6.63721" gradientUnits="userSpaceOnUse" id="color-18"><stop offset="0" stop-color="#000000"/><stop offset="1" stop-color="#000000" stop-opacity="0"/></radialGradient><radialGradient cx="238.09261" cy="120.1554" r="5.5588" gradientUnits="userSpaceOnUse" id="color-19"><stop offset="0" stop-color="#000000"/><stop offset="1" stop-color="#000000" stop-opacity="0"/></radialGradient><radialGradient cx="237.76703" cy="110.09908" r="21.13737" gradientUnits="userSpaceOnUse" id="color-20"><stop offset="0" stop-color="#000000"/><stop offset="1" stop-color="#000000" stop-opacity="0"/></radialGradient><radialGradient cx="251.55689" cy="15.02235" r="22.13182" gradientUnits="userSpaceOnUse" id="color-21"><stop offset="0" stop-color="#000000"/><stop offset="1" stop-color="#000000" stop-opacity="0"/></radialGradient><radialGradient cx="251.21587" cy="13.64522" r="20.72703" gradientUnits="userSpaceOnUse" id="color-22"><stop offset="0" stop-color="#000000"/><stop offset="1" stop-color="#000000" stop-opacity="0"/></radialGradient><radialGradient cx="268.14066" cy="-5.29674" r="6.56531" gradientUnits="userSpaceOnUse" id="color-23"><stop offset="0" stop-color="#000000"/><stop offset="1" stop-color="#000000" stop-opacity="0"/></radialGradient><radialGradient cx="256.79479" cy="18.86922" r="12.39652" gradientUnits="userSpaceOnUse" id="color-24"><stop offset="0" stop-color="#000000"/><stop offset="1" stop-color="#000000" stop-opacity="0"/></radialGradient><radialGradient cx="265.51196" cy="24.51612" r="2.11315" gradientUnits="userSpaceOnUse" id="color-25"><stop offset="0" stop-color="#000000"/><stop offset="1" stop-color="#000000" stop-opacity="0"/></radialGradient><radialGradient cx="247.00427" cy="20.15596" r="1.71098" gradientUnits="userSpaceOnUse" id="color-26"><stop offset="0" stop-color="#000000"/><stop offset="1" stop-color="#000000" stop-opacity="0"/></radialGradient><radialGradient cx="253.99646" cy="10.58846" r="5.12475" gradientUnits="userSpaceOnUse" id="color-27"><stop offset="0" stop-color="#000000"/><stop offset="1" stop-color="#000000" stop-opacity="0"/></radialGradient><radialGradient cx="254.05821" cy="14.29386" r="1.81586" gradientUnits="userSpaceOnUse" id="color-28"><stop offset="0" stop-color="#000000"/><stop offset="1" stop-color="#000000" stop-opacity="0"/></radialGradient><radialGradient cx="256.44572" cy="17.49324" r="1.09031" gradientUnits="userSpaceOnUse" id="color-29"><stop offset="0" stop-color="#000000"/><stop offset="1" stop-color="#000000" stop-opacity="0"/></radialGradient><radialGradient cx="254.6536" cy="114.69634" r="10.85163" gradientUnits="userSpaceOnUse" id="color-30"><stop offset="0" stop-color="#000000"/><stop offset="1" stop-color="#000000" stop-opacity="0"/></radialGradient><radialGradient cx="215.48067" cy="86.68798" r="33.20446" gradientUnits="userSpaceOnUse" id="color-31"><stop offset="0" stop-color="#000000"/><stop offset="1" stop-color="#000000" stop-opacity="0"/></radialGradient><radialGradient cx="216.8252" cy="89.99299" r="18.42504" gradientUnits="userSpaceOnUse" id="color-32"><stop offset="0" stop-color="#000000"/><stop offset="1" stop-color="#000000" stop-opacity="0"/></radialGradient><radialGradient cx="213.96476" cy="97.10394" r="14.05962" gradientUnits="userSpaceOnUse" id="color-33"><stop offset="0" stop-color="#000000"/><stop offset="1" stop-color="#000000" stop-opacity="0"/></radialGradient><radialGradient cx="223.08186" cy="116.10803" r="5.53319" gradientUnits="userSpaceOnUse" id="color-34"><stop offset="0" stop-color="#000000"/><stop offset="1" stop-color="#000000" stop-opacity="0"/></radialGradient><radialGradient cx="215.48897" cy="119.94026" r="5.33946" gradientUnits="userSpaceOnUse" id="color-35"><stop offset="0" stop-color="#000000"/><stop offset="1" stop-color="#000000" stop-opacity="0"/></radialGradient><radialGradient cx="209.22721" cy="117.85977" r="6.49229" gradientUnits="userSpaceOnUse" id="color-36"><stop offset="0" stop-color="#000000"/><stop offset="1" stop-color="#000000" stop-opacity="0"/></radialGradient><radialGradient cx="233.43359" cy="103.74377" r="14.89991" gradientUnits="userSpaceOnUse" id="color-37"><stop offset="0" stop-color="#000000"/><stop offset="1" stop-color="#000000" stop-opacity="0"/></radialGradient><radialGradient cx="214.14537" cy="90.25891" r="5.70727" gradientUnits="userSpaceOnUse" id="color-38"><stop offset="0" stop-color="#000000"/><stop offset="1" stop-color="#000000" stop-opacity="0"/></radialGradient><radialGradient cx="207.11322" cy="89.22352" r="14.0804" gradientUnits="userSpaceOnUse" id="color-39"><stop offset="0" stop-color="#000000"/><stop offset="1" stop-color="#000000" stop-opacity="0"/></radialGradient><radialGradient cx="204.66215" cy="88.61523" r="5.82716" gradientUnits="userSpaceOnUse" id="color-40"><stop offset="0" stop-color="#000000"/><stop offset="1" stop-color="#000000" stop-opacity="0"/></radialGradient><radialGradient cx="229.36912" cy="93.00978" r="8.49034" gradientUnits="userSpaceOnUse" id="color-41"><stop offset="0" stop-color="#000000"/><stop offset="1" stop-color="#000000" stop-opacity="0"/></radialGradient><radialGradient cx="252.04226" cy="108.24199" r="5.13136" gradientUnits="userSpaceOnUse" id="color-42"><stop offset="0" stop-color="#000000"/><stop offset="1" stop-color="#000000" stop-opacity="0"/></radialGradient><radialGradient cx="258.29335" cy="110.61087" r="7.36572" gradientUnits="userSpaceOnUse" id="color-43"><stop offset="0" stop-color="#000000"/><stop offset="1" stop-color="#000000" stop-opacity="0"/></radialGradient><radialGradient cx="243.1862" cy="106.71818" r="9.15267" gradientUnits="userSpaceOnUse" id="color-44"><stop offset="0" stop-color="#000000"/><stop offset="1" stop-color="#000000" stop-opacity="0"/></radialGradient><radialGradient cx="247.70555" cy="109.15393" r="6.3406" gradientUnits="userSpaceOnUse" id="color-45"><stop offset="0" stop-color="#000000"/><stop offset="1" stop-color="#000000" stop-opacity="0"/></radialGradient><radialGradient cx="260.46034" cy="110.89452" r="10.50383" gradientUnits="userSpaceOnUse" id="color-46"><stop offset="0" stop-color="#000000"/><stop offset="1" stop-color="#000000" stop-opacity="0"/></radialGradient><radialGradient cx="254.00687" cy="110.06157" r="6.24141" gradientUnits="userSpaceOnUse" id="color-47"><stop offset="0" stop-color="#000000"/><stop offset="1" stop-color="#000000" stop-opacity="0"/></radialGradient><radialGradient cx="260.47597" cy="64.51528" r="16.07949" gradientUnits="userSpaceOnUse" id="color-48"><stop offset="0" stop-color="#000000"/><stop offset="1" stop-color="#000000" stop-opacity="0"/></radialGradient><radialGradient cx="260.63953" cy="58.88402" r="10.56394" gradientUnits="userSpaceOnUse" id="color-49"><stop offset="0" stop-color="#000000"/><stop offset="1" stop-color="#000000" stop-opacity="0"/></radialGradient><radialGradient cx="258.86471" cy="61.80187" r="5.83052" gradientUnits="userSpaceOnUse" id="color-50"><stop offset="0" stop-color="#000000"/><stop offset="1" stop-color="#000000" stop-opacity="0"/></radialGradient><radialGradient cx="260.53592" cy="58.3851" r="2.9357" gradientUnits="userSpaceOnUse" id="color-51"><stop offset="0" stop-color="#000000"/><stop offset="1" stop-color="#000000" stop-opacity="0"/></radialGradient><radialGradient cx="266.17804" cy="11.16947" r="5.69953" gradientUnits="userSpaceOnUse" id="color-52"><stop offset="0" stop-color="#000000"/><stop offset="1" stop-color="#000000" stop-opacity="0"/></radialGradient><radialGradient cx="255.97327" cy="31.74878" r="5.29979" gradientUnits="userSpaceOnUse" id="color-53"><stop offset="0" stop-color="#000000"/><stop offset="1" stop-color="#000000" stop-opacity="0"/></radialGradient><radialGradient cx="253.43517" cy="27.5346" r="16.12827" gradientUnits="userSpaceOnUse" id="color-54"><stop offset="0" stop-color="#000000"/><stop offset="1" stop-color="#000000" stop-opacity="0"/></radialGradient><radialGradient cx="254.82364" cy="27.17923" r="2.01372" gradientUnits="userSpaceOnUse" id="color-55"><stop offset="0" stop-color="#000000"/><stop offset="1" stop-color="#000000" stop-opacity="0"/></radialGradient><radialGradient cx="203.27357" cy="90.20786" r="10.56334" gradientUnits="userSpaceOnUse" id="color-56"><stop offset="0" stop-color="#000000"/><stop offset="1" stop-color="#000000" stop-opacity="0"/></radialGradient><radialGradient cx="253.74649" cy="113.7618" r="10.30169" gradientUnits="userSpaceOnUse" id="color-57"><stop offset="0" stop-color="#000000"/><stop offset="1" stop-color="#000000" stop-opacity="0"/></radialGradient><radialGradient cx="215.1197" cy="97.54821" r="13.3471" gradientUnits="userSpaceOnUse" id="color-58"><stop offset="0" stop-color="#970000"/><stop offset="1" stop-color="#ec0000"/></radialGradient><radialGradient cx="257.74419" cy="65.01296" r="5.53504" gradientUnits="userSpaceOnUse" id="color-59"><stop offset="0" stop-color="#970000"/><stop offset="1" stop-color="#ec0000"/></radialGradient><linearGradient x1="241.92169" y1="-697.60736" x2="241.92169" y2="689.59002" gradientUnits="userSpaceOnUse" id="color-60"><stop offset="0" stop-color="#ff0000"/><stop offset="1" stop-color="#ff0000" stop-opacity="0"/></linearGradient></defs><g transform="translate(-177.55741,12.05935)"><g data-paper-data="{&quot;isPaintingLayer&quot;:true}" fill-rule="nonzero" stroke-linejoin="miter" stroke-miterlimit="10" stroke-dasharray="" stroke-dashoffset="0" style="mix-blend-mode: normal"><g><path d="M189.20355,66.64981c0.04415,-0.36327 -1.16819,3.35605 -2.64355,4.97239c-2.06937,2.26711 -4.61907,2.75823 -4.61907,2.75823c0,0 9.89958,-23.12252 11.09969,-26.62772c0.21909,-0.63988 0.69228,-1.92967 0.69228,-1.92967l-7.09606,-0.24433l14.28161,-11.43022c0,0 4.03754,-6.72709 5.21723,-7.84841c0.99849,-0.94907 2.055,-1.85886 3.17297,-2.72151c1.20621,-0.93073 -4.35502,-4.38022 -4.35502,-4.38022c0,0 10.5011,0.45533 11.73684,-0.12511c1.95002,-0.91594 -1.46232,-8.45815 -1.46232,-8.45815c0,0 4.35685,3.06068 9.09,4.27558c3.70913,0.95207 7.7411,0.14096 9.47601,0.03945c1.19503,-0.04631 10.45324,-10.22012 10.45324,-10.22012c0,0 -3.73835,10.20782 -2.21415,10.30474c45.08116,2.86655 42.69409,45.69925 45.68476,54.03105c0.14492,0.40373 10.51667,16.26559 10.51667,16.26559c0,0 -3.68091,-2.5257 -5.90544,-2.08411c-1.46747,0.2913 -1.88208,3.29711 -1.679,4.10817c3.16138,12.62628 -0.30504,30.64837 -0.30504,30.64837c0,0 -1.21439,-4.91785 -2.0207,-6.91075c-0.85151,-2.10465 -2.96021,-5.40019 -2.96021,-5.40019l-0.74684,4.92435c0,0 1.3749,8.58708 2.05983,12.86494c0.6816,4.25704 2.03984,12.74007 2.03984,12.74007l-6.60575,-5.60775c0,0 -0.79892,1.51752 -1.23033,2.21731c-3.13409,5.08385 -7.1661,8.05366 -7.1661,8.05366l1.13521,-11.47985l-8.96202,10.83073l-1.41807,-6.71791c0,0 -4.66404,13.70282 -25.44161,13.85978c-19.59714,-0.00401 -26.97503,-12.0833 -26.97503,-12.0833l-0.78094,6.04294l-9.07093,-8.95927l-0.68539,11.1214c0,0 -9.13159,-14.41805 -9.80604,-16.35409c-0.26426,-0.75858 -1.59396,-4.68416 -1.59396,-4.68416l-5.37212,8.21882c0,0 1.25531,-7.1508 1.96402,-12.44785c0.63647,-4.75694 2.10056,-17.52705 2.10056,-17.52705c0,0 -1.50505,1.50268 -2.49257,1.84783c-1.42495,0.49805 -5.23698,0.85381 -5.23698,0.85381c0,0 2.75406,-3.81228 4.51107,-8.99041c0.3082,-0.90831 0.81232,-2.83779 0.81232,-2.83779l-8.84505,3.47237c0,0 5.93112,-7.36572 9.00316,-14.18832c2.43939,-5.41756 2.16595,-10.61117 2.17172,-10.65861z" fill="url(#color-1)" stroke="none" stroke-width="1.5" stroke-linecap="butt"/><path d="M205.0761,89.76805c-0.81975,-9.07302 0.05699,-21.37388 0.05699,-21.37388c0,0 1.74936,4.55315 2.72864,5.96386c0.64581,0.93032 0.01425,2.96528 0.01425,2.96528c0,0 2.42893,-1.80088 4.68032,-5.08614c2.43142,-3.54794 6.97224,-7.41268 8.83662,-8.0317c2.43397,-0.80813 3.39913,3.69406 3.39913,3.69406c0,0 5.70719,-6.29559 8.98725,-8.83965c3.5392,-2.74507 11.52974,-7.0736 11.52974,-7.0736c0,0 -2.47487,3.78529 -3.91,5.62217c-1.52569,1.95282 -3.45979,28.16912 -3.45979,28.16912c0,0 11.78042,-22.20876 19.73995,-26.15614c0.68107,-0.62666 4.42095,-1.79315 7.19877,-0.74046c3.04813,1.15512 5.12298,4.57244 5.12298,4.57244c0,0 0.6877,16.62062 0.43104,23.54957c-0.38354,7.06972 -2.78547,11.88222 -3.45008,15.65699c-0.66462,3.77478 -0.36028,7.65167 -2.27375,20.02194c-1.19414,7.7199 -4.70703,11.19784 -11.46562,18.45732c-6.75859,7.25949 -10.43883,11.70223 -15.08234,11.86565c-4.46872,0.15727 -10.58138,-6.17786 -16.54952,-12.65948c-6.35512,-6.90189 -10.57624,-10.38529 -11.69276,-18.66769c-0.39426,-2.9246 -3.2087,1.28821 -4.06006,-0.93576c-1.88602,-4.92685 2.75494,-13.99612 2.44452,-18.03536c-0.37319,-4.85621 -2.77858,-7.98358 -3.22628,-12.93852z" fill="url(#color-2)" stroke="#000000" stroke-width="1.5" stroke-linecap="butt"/><g stroke="none" stroke-linecap="butt"><g><path d="M266.68515,123.74388c0,0 -3.5245,38.57078 -8.76368,48.15935c-2.63225,4.81746 -16.09804,3.60492 -21.12951,4.21105c-8.18024,0.98551 -14.80143,-0.04211 -17.77497,-4.79018c-5.9859,-9.55813 -9.32673,-46.65673 -9.32673,-46.65673c0,0 14.0303,-5.17254 19.56321,-5.24663c3.60228,-0.04823 9.06564,4.64999 9.06564,4.64999c0,0 7.48496,-5.99983 9.77977,-5.62464c9.38165,1.53381 18.58626,5.2978 18.58626,5.2978z" fill="url(#color-3)" stroke-width="0"/><path d="M254.42223,122.48293c8.03657,2.48286 7.22811,3.08572 -6.00748,4.69746l-11.84692,1.51694l2.38178,-2.00888c-0.03536,-2.24907 7.66494,-6.62149 15.47262,-4.20553z" data-paper-data="{&quot;noHover&quot;:false,&quot;origItem&quot;:[&quot;Path&quot;,{&quot;applyMatrix&quot;:true,&quot;segments&quot;:[[[87.72283,305.82038],[0,-1.39308],[0,0]],[87.72283,306.59686],[[89.46501,306.42178],[0,0],[4.54688,-0.44914]],[[91.38689,305.05152],[2.74218,0.845],[-2.66406,-0.82216]]],&quot;closed&quot;:true,&quot;fillColor&quot;:[0,0,0,1]}]}" fill="url(#color-4)" stroke-width="0.5"/><path d="M220.09893,123.20899c6.97591,-2.66258 9.9962,-1.62969 13.44347,0.24599c1.8151,0.95987 7.44602,2.83514 7.46196,3.84864c0.0289,1.83843 -5.48953,1.18205 -16.14812,0.03964l-10.42261,-1.83998l5.66522,-2.29429z" data-paper-data="{&quot;noHover&quot;:false,&quot;origItem&quot;:[&quot;Path&quot;,{&quot;applyMatrix&quot;:true,&quot;segments&quot;:[[81.36343,304.9982],[79.41031,305.67572],[[81.98063,305.9726],[0,0],[3.64844,0.4263]],[[86.05875,305.77468],[0,0.59378],[0,-0.32734]],[[85.10563,304.77744],[0.61718,0.31972],[-1.17188,-0.62422]],[[81.36345,304.9982],[2.40624,-0.82216],[0,0]]],&quot;closed&quot;:true,&quot;fillColor&quot;:[0,0,0,1]}]}" fill="url(#color-5)" stroke-width="0.5"/><path d="M228.20041,130.36294c2.10047,0.27143 8.51432,0.39919 13.57129,0.31481c8.54214,-0.14251 15.51476,-3.36611 13.77783,-2.25264c-0.40425,0.25607 -1.14647,1.47879 -2.77022,2.11318c-0.29421,0.11493 -1.30823,1.12692 -1.84492,2.42935c-0.63183,1.53332 -0.77121,3.38292 -0.77121,3.38292c0,0 -0.88074,-2.04308 -1.5114,-2.69269c-0.60315,-0.6213 -2.19365,-1.1238 -2.19365,-1.1238c0,0 -7.2224,1.66666 -9.64684,1.70711c-1.89004,0.03153 -6.13287,-0.77268 -6.13287,-0.77268c0,0 -2.48959,0.38755 -3.32673,0.9222c-0.64814,0.41395 -1.27583,2.01728 -1.27583,2.01728c0,0 0.02266,-1.54854 -0.99167,-3.22171c-0.67096,-1.10679 -2.4108,-2.51745 -2.70577,-2.67653c-1.18987,-0.64169 -3.01069,-1.99987 -3.01069,-1.99987l9.41263,1.91836z" data-paper-data="{&quot;noHover&quot;:false,&quot;origItem&quot;:[&quot;Path&quot;,{&quot;applyMatrix&quot;:true,&quot;segments&quot;:[[83.43363,306.96974],[82.12895,306.77182],[[83.19927,307.34276],[0,0],[0.92968,0.47198]],[[87.01177,307.89086],[-2.35938,0],[2,0]],[[90.38677,307.51784],[-0.47656,0.27406],[0.60156,-0.35018]],[[87.88677,307.14482],[2.92968,0],[-1.73438,0]],[[83.43365,306.96974],[0.71874,0.09896],[0,0]]],&quot;closed&quot;:true,&quot;fillColor&quot;:[0,0,0,1]}]}" fill="url(#color-6)" stroke-width="0.5"/><path d="M227.85451,159.03637c0.17141,0.05063 2.24457,-3.73011 2.24457,-3.73011c0,0 -0.34354,1.18318 -0.10945,2.49704c0.26658,1.4962 1.14409,3.16419 1.68655,3.48817c1.41258,0.84364 2.86462,1.64553 3.70689,1.84327c2.36989,0.53918 6.39191,-1.2769 9.67232,-2.92162c0.40356,-0.20234 1.2115,-1.35219 1.46773,-2.56252c0.32273,-1.52432 0.04329,-3.14917 0.04329,-3.14917c0,0 1.96354,3.95423 2.35353,3.77788c2.62425,-1.19895 0.27696,4.1713 -2.46006,5.44292c-1.87622,0.95073 -6.2671,1.70568 -11.00886,1.54904c-5.69847,-0.14067 -6.51775,-2.21119 -7.93283,-3.8143c-1.48343,-1.60198 -1.56952,-2.95943 -0.24093,-2.51006z" data-paper-data="{&quot;noHover&quot;:false,&quot;origItem&quot;:[&quot;Path&quot;,{&quot;applyMatrix&quot;:true,&quot;segments&quot;:[[[83.55863,311.35458],[0,0],[-0.45312,-0.15226]],[[83.62895,311.78088],[-0.5,-0.52526],[0.47656,0.52526]],[[86.36333,312.45078],[-1.95312,-0.07612],[1.625,0.07612]],[[89.46489,312.1539],[-0.64844,0.29688],[0.94532,-0.39586]],[[89.81645,311.47638],[0.90626,-0.373],[-1.04688,0.4263]],[[85.22271,311.75804],[1.1875,0.27406],[-0.64062,-0.15226]],[[83.55865,311.35458],[0.25782,0.07612],[0,0]]],&quot;closed&quot;:true,&quot;fillColor&quot;:[0,0,0,1]}]}" fill="url(#color-7)" stroke-width="0.5"/><path d="M213.26358,128.32402c-0.57561,-1.8293 1.45945,-0.99417 3.79533,1.20658c1.48084,1.43701 3.42228,20.32304 5.0226,25.01145c3.05876,9.04922 3.80101,11.43626 12.14448,11.69786c18.09519,0.24041 16.30681,-2.61643 18.60707,-11.37782c0.79804,-2.866 4.22376,-22.4722 4.84337,-23.63776c1.14933,-2.25882 5.53702,-5.8071 5.5574,-4.51081c0.0063,0.4007 -2.85989,20.92854 -3.53899,25.56072c-1.31333,9.2165 -2.81875,16.30731 -5.69667,18.76004c-3.64423,2.98421 -20.98364,3.76994 -29.42917,1.36464c-3.47946,-1.02646 -3.89287,-1.42316 -5.47874,-5.19239c-0.94637,-2.22386 -2.4491,-8.0927 -3.3444,-12.86363c-0.84971,-4.77168 -2.1989,-25.38702 -2.48228,-26.01885z" data-paper-data="{&quot;noHover&quot;:false,&quot;origItem&quot;:[&quot;Path&quot;,{&quot;applyMatrix&quot;:true,&quot;segments&quot;:[[[78.98051,306.64252],[0,0],[0.09376,0.20554]],[[79.62895,309.80934],[-0.26562,-1.54534],[0.28126,1.54534]],[[80.69927,313.9201],[-0.3125,-0.72318],[0.52344,1.22562]],[[82.52739,315.59486],[-1.1875,-0.35018],[2.88282,0.82216]],[[91.51177,315.3208],[-1.26562,0.94396],[1,-0.77648]],[[93.91803,309.38302],[-0.5,2.9689],[0.25782,-1.49206]],[[94.38679,306.46742],[0,0.12942],[0,-0.41868]],[[92.62897,307.792],[0.40626,-0.72318],[-0.21874,0.37302]],[[91.74615,310.13666],[0.28908,-0.92112],[-0.83594,2.81664]],[[85.83989,313.22734],[4.26564,0.1751],[-2.85938,-0.12942]],[[81.60551,309.8626],[1,2.93844],[-0.52344,-1.5225]],[[80.10551,306.947],[0.5,0.47198],[-0.78906,-0.7232]],[[78.98051,306.6425],[-0.1875,-0.59378],[0,0]]],&quot;closed&quot;:true,&quot;fillColor&quot;:[0,0,0,1]}]}" fill="url(#color-8)" stroke-width="0.5"/></g><path d="M241.82887,167.49444l-0.18883,-12.00959l4.03518,-0.06731l0.17336,11.0252c0,0 -1.695,3.67148 -2.42592,3.68367c-0.57783,0.00963 -1.59378,-2.63196 -1.59378,-2.63196z" fill="url(#color-9)" stroke-width="0"/><path d="M248.6038,173.83145c0,0 -1.77255,1.01864 -3.78683,1.05224c-2.01428,0.0336 -3.97053,-0.75798 -3.97053,-0.75798c0,0 1.89924,-2.83407 3.91352,-2.86767c2.01428,-0.0336 3.84383,2.57341 3.84383,2.57341z" fill="url(#color-10)" stroke-width="0"/></g><path d="M262.19875,69.79103c0,0 1.65224,1.38808 4.5522,4.30895c2.64878,2.66789 4.5996,5.64248 4.5996,5.64248l-0.09771,2.38095c0,0 -7.41555,-9.75601 -16.57175,-12.43173c-7.32109,-2.1394 -12.13834,0.46745 -12.13834,0.46745l1.19543,-8.12355c0,0 4.03509,-1.74878 9.48075,0.34137c5.63895,2.16438 9.07026,5.22812 9.07026,5.22812z" data-paper-data="{&quot;index&quot;:null}" fill="url(#color-11)" stroke="none" stroke-width="1.5" stroke-linecap="butt"/><path d="M207.26803,102.34407c0,0 -2.4517,2.806 -4.08551,1.40695c-0.44069,-0.37738 0.21431,-4.35122 -0.24967,-4.82241c-0.87973,-0.89337 -1.76483,-1.95232 -2.51688,-3.16526c-0.75422,-1.21645 -1.37463,-2.58777 -1.72165,-4.10235c-1.63309,-7.12781 -0.73717,-12.46986 1.5349,-12.83062c2.27209,-0.36078 3.21739,2.90775 4.54198,10.33466c1.32458,7.42689 2.49685,13.17902 2.49685,13.17902z" data-paper-data="{&quot;index&quot;:null}" fill="url(#color-12)" stroke="#000000" stroke-width="1" stroke-linecap="butt"/><path d="M206.95309,97.43102c0,0 -1.2725,2.09974 -2.26281,1.29134c-0.48037,-0.39214 -0.47582,-3.38103 -1.02846,-3.96544c-1.6064,-1.69877 -3.29626,-4.21276 -3.7799,-7.55863c-0.55396,-3.83222 4.32569,-3.09102 4.32569,-3.09102" fill="url(#color-13)" stroke="#000000" stroke-width="0.25" stroke-linecap="round"/><path d="M242.14898,92.02646c0.11287,-8.00928 4.99482,-14.5945 11.23264,-14.69856c6.23779,-0.10407 10.98113,6.31368 11.1071,14.32588c0.12598,8.01221 -4.32452,14.93154 -11.14225,15.16132c-6.48489,0.21858 -11.31535,-6.42417 -11.19748,-14.78865z" fill="url(#color-14)" stroke="#000000" stroke-width="3.5" stroke-linecap="butt"/><path d="M248.07104,92.23228c-0.05392,-3.42912 3.90329,-9.90737 3.90329,-9.90737c0,0 4.15878,6.34286 4.21269,9.77197c0.05391,3.42912 -3.90999,9.48023 -3.90999,9.48023c0,0 -4.15207,-5.91571 -4.20599,-9.34482z" fill="url(#color-15)" stroke="#720000" stroke-width="2" stroke-linecap="butt"/><path d="M214.10105,70.91554c0,0 3.64172,-3.7595 8.99517,-5.48781c5.9323,-1.91522 12.5063,8.19154 12.5063,8.19154l-2.01008,3.57966c0,0 -5.0596,-6.89506 -9.90057,-5.77701c-6.47421,1.49522 -7.51084,3.77094 -12.3881,5.40844c-4.1791,1.40312 -7.81309,1.63505 -7.81309,1.63505l-0.21843,-2.07738c0,0 4.19355,-0.60408 6.07789,-1.17712c1.55527,-0.47298 4.48146,-2.39273 4.48146,-2.39273z" fill="url(#color-16)" stroke="none" stroke-width="1.5" stroke-linecap="butt"/><path d="M270.67551,88.06559c1.09039,-7.46719 1.93247,-10.76553 4.21469,-10.48074c2.28224,0.28479 4.50743,4.86281 3.09928,12.04135c-1.33831,6.82245 -9.39517,11.69478 -9.39517,11.69478c0,0 0.99081,-5.7882 2.0812,-13.25539z" data-paper-data="{&quot;index&quot;:null}" fill="url(#color-17)" stroke="#000000" stroke-width="1" stroke-linecap="butt"/><path d="M271.07981,82.99165c0,0 5.18055,-1.44303 4.74734,2.4057c-0.77654,6.89938 -7.0725,11.00266 -7.0725,11.00266" data-paper-data="{&quot;index&quot;:null}" fill="url(#color-18)" stroke="#000000" stroke-width="0.25" stroke-linecap="round"/><path d="M238.06481,125.88118c-1.2126,0.02024 -4.21403,-3.99189 -4.54684,-6.60683c-0.29777,-2.33966 1.46767,-4.79381 4.36682,-4.84217c2.89916,-0.04836 4.93866,0.52906 4.8092,5.13829c-0.10988,3.91173 -1.73002,6.26236 -4.62919,6.31072z" fill="url(#color-19)" stroke="#000000" stroke-width="1.15" stroke-linecap="butt"/><path d="M241.70071,88.32649c0,0 0.1981,4.94265 0.14633,8.87667c-0.10248,7.79005 -0.72488,34.59941 -0.72488,34.59941l-3.49732,0.06911c0,0 -1.02356,-5.18178 -1.50359,-11.81081c-0.64975,-8.97294 -0.84635,-20.28574 -1.28001,-24.43868c-0.41105,-3.9366 -1.16283,-7.10039 -1.16283,-7.10039" fill="url(#color-20)" stroke="#000000" stroke-width="1.3" stroke-linecap="round"/><path d="M233.93432,27.96642l34.4995,-35.74101l0.74564,45.07614c0,0 -8.18018,1.92536 -18.87875,-1.64982c-11.50445,-3.84449 -16.36638,-7.6853 -16.36638,-7.6853z" fill="url(#color-21)" stroke="none" stroke-width="0" stroke-linecap="butt"/><path d="M234.18511,28.16427l34.06152,-35.86898c0,0 -16.47533,21.37661 -20.04935,28.13178c-2.09069,3.95157 -0.26837,14.56808 -0.26837,14.56808c0,0 -5.18184,-2.16349 -7.57865,-3.35473c-2.15971,-1.0734 -6.16515,-3.47612 -6.16515,-3.47612z" fill="url(#color-22)" stroke="none" stroke-width="0" stroke-linecap="butt"/><path d="M274.67679,-5.29674c0,3.73489 -2.92632,6.76261 -6.53613,6.76261c-3.60981,0 -6.53613,-3.02774 -6.53613,-6.76261c0,-3.73489 2.92633,-6.76261 6.53613,-6.76261c3.60981,0 6.53613,3.02774 6.53613,6.76261z" fill="url(#color-23)" stroke="#000000" stroke-width="0" stroke-linecap="butt"/><path d="M268.32626,21.47612c-0.57409,0.00958 -0.7798,-0.38489 -0.85345,-0.66016c-1.09361,-0.99355 -2.11453,-0.83426 -3.62161,-0.54566c-2.99737,1.35572 -7.35293,3.66144 -10.4659,1.09311c-1.28183,-1.05755 -1.18489,-2.94989 -2.28962,-4.09456c-0.60187,-0.62362 -3.48611,0.20851 -4.01539,0.28361c0,0 -0.26262,0.03728 -0.51903,-0.08218l-0.70183,0.61614c0,0 -0.6778,0.59503 -1.23884,-0.12527c-0.56104,-0.72031 0.11676,-1.31537 0.11676,-1.31537l0.82666,-0.72574c0,0 0.48975,-0.42996 0.98124,-0.1165c0.16026,-0.08338 0.30027,-0.10325 0.30027,-0.10325c1.52405,-0.21623 3.98745,-1.04171 5.36859,0.12706c1.13731,0.96243 1.08911,3.18723 2.19593,4.01803c2.70779,2.03247 6.40774,-0.25777 8.93875,-1.36645c2.23505,-0.4384 3.86226,-0.52141 5.57167,1.2141l0.27085,0.83421c0,0 0.01468,0.93419 -0.86506,0.94885z" fill="url(#color-24)" stroke="none" stroke-width="0.5" stroke-linecap="butt"/><path d="M266.90087,23.03615c0.65585,0.13363 0.66791,0.89993 0.66791,0.89993l-0.00087,0.02805c0.08113,0.29408 0.08042,0.62713 -0.03094,0.98972l-0.01276,0.40848c-0.10165,0.10754 -0.2115,0.20512 -0.32771,0.29294c-0.53649,0.7842 -1.32888,0.90623 -1.96914,0.61092c-1.43432,-0.04025 -2.5737,-1.07628 -1.22847,-2.87642c0.71947,-0.96277 2.06761,-0.95588 2.90198,-0.35363z" fill="url(#color-25)" stroke="none" stroke-width="0.5" stroke-linecap="butt"/><path d="M246.92391,21.6524c-0.03123,0.00332 -0.04951,0.00362 -0.04951,0.00362l-1.16121,-0.568c-0.1174,-0.53307 -0.59457,-1.11644 -0.35217,-1.5992c0.38528,-0.76726 2.84126,-1.7326 3.28202,-0.07982c0.21362,0.80108 -0.04567,2.09452 -0.79126,2.35067c-0.28988,0.09959 -0.61838,0.04426 -0.92788,-0.10726z" fill="url(#color-26)" stroke="none" stroke-width="0.5" stroke-linecap="butt"/><path d="M251.75827,12.62449c-0.62902,0.59453 -1.2858,1.14066 -2.01706,1.55103c0,0 -0.5202,0.28725 -0.79125,-0.2654c-0.27104,-0.55266 0.24914,-0.83994 0.24914,-0.83994c0.07431,-0.04025 0.14801,-0.08204 0.22119,-0.1253c-0.01841,-0.03578 -0.03518,-0.07568 -0.04991,-0.1201c-0.19476,-0.58773 0.35855,-0.79397 0.35855,-0.79397l0.69988,-0.26085c0.29218,-0.1087 0.58643,-0.20633 0.88119,-0.30129c0.55874,-0.52542 1.09991,-1.0929 1.64463,-1.64379c-0.45871,-0.68219 -0.64657,-1.33834 -0.29465,-1.8523c0.26055,-0.38054 1.53091,-0.4883 2.87696,-0.3879c0.478,-0.35101 0.98203,-0.69841 1.04697,-0.65406c0.24902,0.17001 0.41793,0.47902 0.53421,0.8682c1.0918,0.22168 1.96145,0.58062 1.9995,1.03471c0.06273,0.74881 -0.70028,1.36197 -1.71161,1.85626c0.02008,0.59611 0.04582,1.12818 0.13279,1.47731l-0.01808,0.07554l0.02355,-0.00039l0.01176,0.74735c0.0054,0.34396 -0.2528,0.62718 -0.57671,0.63258c-0.16196,0.0027 -0.30967,-0.06457 -0.41757,-0.17548l-0.84329,-0.86692l0.0367,-0.04024c-0.3359,-0.25635 -0.69763,-0.54555 -1.05383,-0.854c-0.66761,0.20075 -1.23701,0.35703 -1.54873,0.47343c-0.46167,0.17177 -0.92852,0.31587 -1.39429,0.46553zM254.87771,10.03858c0.34557,-0.15189 0.70165,-0.30365 1.04454,-0.44032c-0.00645,-0.18997 -0.00399,-0.37364 0.01,-0.54548c-0.17218,0.00047 -0.35111,0.00481 -0.53093,0.00731c-0.23933,0.25453 -0.48641,0.51033 -0.69356,0.71099c0.06882,0.09065 0.12466,0.17527 0.16062,0.24869c0.0031,0.00632 0.0062,0.01258 0.00933,0.01882zM256.17515,11.4631c-0.01633,-0.07847 -0.03262,-0.15933 -0.0486,-0.24206c-0.04715,0.01702 -0.09435,0.03381 -0.14154,0.05044c0.06486,0.06165 0.12855,0.12508 0.19016,0.19163zM253.79785,8.81718c0.03091,0.0282 0.06373,0.05849 0.09799,0.09051c0.00925,-0.00854 0.01851,-0.01706 0.02776,-0.02557c-0.0438,-0.01953 -0.08578,-0.04111 -0.12573,-0.06496z" fill="url(#color-27)" stroke="none" stroke-width="0.5" stroke-linecap="butt"/><path d="M254.14452,12.42354c0.58649,-0.00979 0.5963,0.61302 0.5963,0.61302l0.01176,0.74735c0.00047,0.04733 -0.00047,0.09449 -0.0028,0.14149c0.02116,0.16531 -0.02029,0.30507 -0.02029,0.30507c-0.0116,0.03757 -0.02321,0.07513 -0.03479,0.11272c-0.02162,0.10287 -0.04871,0.20488 -0.08026,0.30603l0.13477,0.03339l-0.21616,0.98768c-0.05491,0.27833 -0.28524,0.48927 -0.56435,0.49393c-0.3239,0.00541 -0.59089,-0.26906 -0.59629,-0.61302l-0.01176,-0.74735l0.0421,-0.0007l-0.03611,-0.09917c0.07368,-0.2565 0.14737,-0.51301 0.22105,-0.76951c-0.00445,-0.04384 -0.00716,-0.08755 -0.00813,-0.13098l-0.01176,-0.74735c0,0 -0.00979,-0.6228 0.57671,-0.63258z" fill="url(#color-28)" stroke="none" stroke-width="0.5" stroke-linecap="butt"/><path d="M256.43603,16.38138c0.03613,-0.00655 0.07511,-0.0104 0.11716,-0.0111c0.34921,-0.00583 0.49396,0.2126 0.55393,0.3903c0.02619,0.06891 0.04112,0.14399 0.04236,0.2227c0.00047,0.03052 -0.00113,0.06058 -0.00467,0.09001l-0.01843,0.35655l-0.21878,0.73757c-0.06971,0.25572 -0.28993,0.44444 -0.55375,0.44884c-0.3239,0.00541 -0.59089,-0.26906 -0.59629,-0.61302l-0.01566,-0.99646c0,0 -0.0098,-0.6228 0.57671,-0.63258c0.04205,-0.00069 0.08112,0.00185 0.11744,0.00718z" fill="url(#color-29)" stroke="none" stroke-width="0.5" stroke-linecap="butt"/><path d="M263.70695,99.73101c0.05859,3.72621 -3.22328,16.97736 -9.2157,17.07734c-5.99242,0.09997 -11.8266,-12.1685 -11.88519,-15.89473c-0.05859,-3.72621 5.8402,0.21406 11.8326,0.11408c5.99241,-0.09997 9.20968,-5.02291 9.26827,-1.29669z" fill="url(#color-30)" stroke="none" stroke-width="0" stroke-linecap="butt"/><path d="M197.88132,114.44814l-0.96525,-61.38941l34.35203,-0.57309l2.77716,38.04288l-5.50481,23.57335c0,0 -4.634,-0.46443 -6.73047,0.61226c-2.29208,1.17715 -6.48753,6.17617 -6.48753,6.17617c0,0 -4.13301,-4.18419 -7.06566,-5.26741c-2.88012,-1.06381 -10.37548,-1.17477 -10.37548,-1.17477z" fill="url(#color-31)" stroke="none" stroke-width="0" stroke-linecap="butt"/><path d="M229.14214,90.63301c-2.51105,10.48168 -17.57204,18.33874 -17.57204,18.33874c0,0 -9.5242,-9.82171 -7.01316,-20.30338c2.51105,-10.48168 16.10643,-17.65412 16.10643,-17.65412c0,0 10.98981,9.13708 8.47876,19.61877z" fill="url(#color-32)" stroke="#ffffff" stroke-width="1.4" stroke-linecap="butt"/><path d="M227.579,89.95327c0.09581,6.09297 -5.97056,11.13479 -13.54961,11.26123c-7.57904,0.12644 -13.80074,-4.7104 -13.89653,-10.80336c-0.09581,-6.09297 5.97056,-11.13479 13.54961,-11.26123c7.57904,-0.12644 13.80074,4.7104 13.89653,10.80336z" fill="url(#color-33)" stroke="#000000" stroke-width="1" stroke-linecap="butt"/><path d="M224.72056,112.53461c0.33038,0.26611 0.33796,0.74817 0.33796,0.74817l0.01313,1.16967c-0.23419,1.23093 -1.1292,10.52337 -3.92166,6.23019c-0.26287,-0.40412 0.44754,-2.19865 0.57128,-2.76379c0.44323,-2.02427 1.44723,-4.54006 1.37943,-6.56127c0,0 -0.01468,-0.93418 0.86506,-0.94885c0.87974,-0.01468 0.89443,0.91951 0.89443,0.91951c0.00072,0.24084 -0.05142,0.66875 -0.1396,1.20637z" fill="url(#color-34)" stroke="none" stroke-width="0.5" stroke-linecap="butt"/><path d="M215.49447,115.10471c0,0 0.26427,-0.89088 1.10351,-0.60939c0.39945,0.13397 0.54891,0.40601 0.59587,0.65432c0.85427,0.00382 0.86868,0.91966 0.86868,0.91966l-0.03211,0.83c-0.75706,2.54604 -1.42288,4.82583 -2.87513,6.67381l0.30335,0.26724l-0.9822,1.25768c-0.15819,0.20506 -0.3972,0.33756 -0.66649,0.34205c-0.48586,0.00811 -0.88632,-0.40358 -0.89443,-0.91951c-0.00205,-0.13015 0.02106,-0.25448 0.06457,-0.3678l0.28911,-0.80599c0.4099,-2.70672 1.4364,-5.58134 2.22526,-8.24207z" fill="url(#color-35)" stroke="none" stroke-width="0.5" stroke-linecap="butt"/><path d="M210.5031,112.78906c0.17327,-0.06343 0.39057,-0.06605 0.6531,0.06785c0.79344,0.40466 0.41315,1.24678 0.41315,1.24678l-0.07943,0.04261c-0.23385,2.63282 -0.44775,5.36393 -1.05971,7.92555c-0.31504,1.31877 -0.4991,3.33072 -2.63437,2.0831c-1.76215,-1.02963 -0.72258,-2.15692 -0.4374,-3.35371c0.69047,-2.89747 0.88931,-5.97182 1.52982,-8.89921c0,0 0.19912,-0.90985 1.05615,-0.69752c0.85703,0.21234 0.65792,1.12218 0.65792,1.12218c-0.03374,0.15406 -0.06678,0.30818 -0.09925,0.46238z" fill="url(#color-36)" stroke="none" stroke-width="0.5" stroke-linecap="butt"/><path d="M232.91991,101.57253c0.05367,3.41385 0.10736,6.82768 0.16103,10.24151c0.02159,1.37347 0.65802,7.4272 -1.90028,7.27458c-1.74432,-0.10407 -1.09881,-4.54752 -0.99704,-5.48118c0.55642,-5.10457 -0.90008,-12.58143 1.26634,-17.43024l-0.28423,-0.14496l0.16666,-0.36902c-0.50767,-2.04282 -0.94145,-4.10433 -1.19573,-6.2122c0,0 -0.11173,-0.92685 0.761,-1.04461c0.87274,-0.11773 0.98449,0.80911 0.98449,0.80911c0.16777,1.39235 0.41236,2.76418 0.70411,4.12352l0.11246,-0.9487c0.04761,-0.46091 0.41184,-0.82275 0.8599,-0.83023c0.44158,-0.00736 0.81259,0.332 0.88267,0.78124l0.17855,1.03126c1.04062,4.60506 2.00525,9.28719 2.07901,14.02717c0.02421,1.55594 0.37897,3.38956 0.03766,4.88926c0.03341,0.52544 0.05438,1.0543 0.06135,1.58698l-0.04136,0.07132l0.03358,0.00537l-0.14865,1.05525c-0.0559,0.45134 -0.41607,0.80289 -0.85764,0.81026c-0.48586,0.00811 -0.88633,-0.40358 -0.89444,-0.91951c-0.00047,-0.02984 0.00038,-0.05937 0.00249,-0.08853l0.11617,-1.85346l0.00865,0.00061c-0.17599,-3.93444 -1.08915,-7.67316 -2.09679,-11.38475zM232.69747,93.84649c0.01302,-0.0651 0.02735,-0.13034 0.0431,-0.19611l-0.08923,-0.01201c0.01526,0.06939 0.03064,0.13879 0.04613,0.20814zM234.08915,99.29463c-0.03298,-0.16986 -0.06644,-0.33966 -0.1003,-0.50934c-0.01068,0.00778 -0.02156,0.01529 -0.03259,0.02256c0.04422,0.16227 0.08854,0.32455 0.13292,0.48678z" fill="url(#color-37)" stroke="none" stroke-width="0.5" stroke-linecap="butt"/><path d="M219.85226,90.16371c0.03554,2.26031 -2.4907,4.13524 -5.64254,4.18783c-3.15184,0.05258 -5.73571,-1.73712 -5.77125,-3.99742c-0.03554,-2.26031 2.4907,-4.13526 5.64254,-4.18784c3.15184,-0.05258 5.73571,1.73714 5.77125,3.99743z" fill="url(#color-38)" stroke="none" stroke-width="0" stroke-linecap="butt"/><path d="M204.41138,103.72706c0,0 -1.0747,-6.10572 -0.58104,-14.56743c0.15358,-2.6324 6.69544,-14.43966 6.69544,-14.43966" fill="url(#color-39)" stroke="#000000" stroke-width="2" stroke-linecap="round"/><path d="M203.34856,94.61751l2.62717,-12.00456" fill="url(#color-40)" stroke="#000000" stroke-width="2" stroke-linecap="round"/><path d="M227.92266,101.75528l2.89292,-17.49099" fill="url(#color-41)" stroke="#000000" stroke-width="2" stroke-linecap="round"/><path d="M253.2332,105.20085l-1.23793,8.32671l-1.14396,-10.57115" fill="url(#color-42)" stroke="#000000" stroke-width="1.5" stroke-linecap="round"/><path d="M259.26105,103.0238l-0.93472,15.17414l-1.00069,-13.89597" fill="url(#color-43)" stroke="#000000" stroke-width="1.5" stroke-linecap="round"/><path d="M243.75457,99.33708l0.65539,16.80883l-2.44753,-18.85545" fill="url(#color-44)" stroke="#000000" stroke-width="1.5" stroke-linecap="round"/><path d="M249.29712,103.60532l0.15668,9.96465l-1.69456,-8.2778l-0.6188,10.3929l-1.18314,-13.0623" fill="url(#color-45)" stroke="#000000" stroke-width="1.5" stroke-linecap="round"/><path d="M261.75685,100.07502l-2.59302,21.63899l1.23106,-21.20098" fill="url(#color-46)" stroke="#000000" stroke-width="1.5" stroke-linecap="round"/><path d="M254.80519,105.68245l-0.61227,10.8081l-0.98438,-12.85796" fill="url(#color-47)" stroke="#000000" stroke-width="1.5" stroke-linecap="round"/><path d="M276.55513,62.06104c0.04462,2.83775 -4.48488,17.83012 -7.24077,18.11893c-2.34578,0.24582 -2.73615,-14.13438 -5.12513,-13.07158c-2.16708,0.96408 -0.8871,8.65643 -3.50078,8.70003c-2.08439,0.03477 -2.15877,-8.92689 -3.0765,-7.01026c-6.56106,13.70265 -4.61157,0.15763 -6.15719,-1.07635c-1.7367,-1.38654 -3.9523,4.54088 -5.39996,3.85678c-1.05339,-0.49777 -1.63199,-7.39741 -1.65689,-8.98106c-0.11705,-7.44431 6.9867,-13.59922 15.86667,-13.74736c8.87996,-0.14814 16.1735,5.76657 16.29055,13.21089z" fill="url(#color-48)" stroke="#000000" stroke-width="1" stroke-linecap="butt"/><path d="M271.20345,62.69812c0,0 -1.21042,-0.95572 -2.72994,-0.25609c-2.4908,1.14683 -6.22147,4.02311 -9.84514,2.71118c-2.71713,-0.98371 -4.13565,-5.09936 -5.54131,-7.23241c-1.61263,-2.44712 -3.01147,-2.87183 -3.01147,-2.87183c0,0 1.30277,0.37278 3.49798,-0.47904c2.46101,-0.95494 5.99344,-3.09247 9.07711,-1.97606c3.4166,1.23694 4.90644,5.19692 6.26579,7.68081c0.96193,1.7577 2.28699,2.42342 2.28699,2.42342z" fill="url(#color-49)" stroke="#ffffff" stroke-width="1.4" stroke-linecap="butt"/><path d="M265.50689,60.65868c-1.27551,3.11849 -4.63459,4.57226 -7.50272,3.24709c-2.86812,-1.32518 -4.15916,-4.9275 -2.88365,-8.04599c1.27551,-3.11848 4.63459,-4.57225 7.5027,-3.24708c2.86811,1.32518 4.15917,4.92749 2.88366,8.04599z" fill="url(#color-50)" stroke="#000000" stroke-width="1" stroke-linecap="butt"/><path d="M263.47123,58.33614c0.02594,1.64972 -1.26721,3.00901 -2.88835,3.03605c-1.62114,0.02704 -2.95633,-1.2884 -2.98228,-2.93811c-0.02594,-1.64972 1.26721,-3.009 2.88834,-3.03605c1.62114,-0.02705 2.95634,1.2884 2.98229,2.93811z" fill="url(#color-51)" stroke="none" stroke-width="0" stroke-linecap="butt"/><path d="M269.47001,9.14978c0.03376,2.14703 -0.15656,7.87019 -1.36842,7.89041c-0.85592,0.01428 -4.78212,-1.51214 -5.16375,-2.77255c-0.09051,-0.29892 1.87977,0.09529 2.50751,-1.16408c0.47304,-0.94902 -0.35959,-3.60956 -0.36386,-3.88056c-0.00327,-0.2076 -2.26912,-1.95802 -2.19726,-2.0886c0.28732,-0.52221 3.36306,1.03356 3.65355,0.47085c0.38806,-0.75177 0.0508,-2.29596 0.67685,-2.3064c1.21187,-0.02021 2.22162,1.7039 2.25538,3.85095z" fill="url(#color-52)" stroke="none" stroke-width="0" stroke-linecap="butt"/><path d="M260.14789,30.46634c0.02412,1.5342 2.01205,13.87839 -2.78913,0.77914c-0.27178,-0.74151 -0.69338,3.52924 -1.53259,3.54325c-0.85454,0.01426 -0.81499,-2.57417 -1.49587,-2.97198c-1.25029,-0.7305 -2.93558,0.31538 -2.95947,-1.20399c-0.02084,-1.32513 1.14778,-0.35802 2.11732,-1.15366c0.7475,-0.61343 1.14925,-3.15113 2.2044,-3.16873c2.42371,-0.04043 4.41844,1.82922 4.45534,4.17598z" fill="url(#color-53)" stroke="none" stroke-width="0" stroke-linecap="butt"/><path d="M269.40396,32.78917c-0.47577,0.78544 -1.21592,0.27945 -1.21592,0.27945l-0.47257,-0.32432c-1.54106,-0.95083 -2.97163,-2.12366 -4.60937,-2.8812c-1.90166,-0.87963 -5.10878,1.30159 -6.81888,1.93411c-1.7824,0.3028 -4.76538,0.85965 -6.20546,-0.6862c-1.74153,-1.86939 -1.9475,-5.44614 -3.99629,-6.93271c-1.85047,-1.34268 -5.75784,0.26691 -7.59418,0.95135c0,0 -0.82996,0.30935 -1.1221,-0.57227c-0.29213,-0.8816 0.53783,-1.19094 0.53783,-1.19094c2.46848,-0.92004 6.68609,-2.47224 9.14053,-0.75171c2.26156,1.58534 2.59701,5.04035 4.27095,7.16833c0.76411,0.97136 3.56793,0.36455 4.53587,0.20252c2.33273,-0.8777 5.29632,-2.89115 7.87141,-1.8707c1.74242,0.69048 3.26793,2.03315 4.86972,3.01221l0.54405,0.37068c0,0 0.74014,0.50597 0.26438,1.29142z" fill="url(#color-54)" stroke="none" stroke-width="0.5" stroke-linecap="butt"/><path d="M255.24761,28.79616c-1.09763,0.83554 -1.49488,0.4065 -1.59887,-0.33061c-0.67695,-0.12118 -0.68925,-0.90402 -0.68925,-0.90402l0.16961,-1.47651c0.17487,-0.19598 0.39528,-0.37179 0.6403,-0.51856c0.20606,-0.17181 0.47827,-0.28667 0.76585,-0.33773c1.27182,-0.38112 2.63643,0.05463 1.98392,2.2026c-0.26985,0.88831 -0.75339,1.28883 -1.27157,1.3648z" fill="url(#color-55)" stroke="none" stroke-width="0.5" stroke-linecap="butt"/><path d="M201.46699,101.08866c-2.63346,0 -2.63346,-2.7126 -2.63346,-2.7126v-0.43401c0.01039,-6.10072 0.8148,-12.06815 3.99322,-17.29792c0,0 1.41384,-2.28851 3.63559,-0.83218c2.22174,1.45633 0.8079,3.74485 0.8079,3.74485c-2.67684,4.24304 -3.17935,9.40068 -3.16979,14.38526v0.43401c0,0 0,2.7126 -2.63346,2.7126z" fill="url(#color-56)" stroke="none" stroke-width="0.5" stroke-linecap="butt"/></g><path d="M190.72781,308.83552c0,0 5.31399,-111.57556 5.14341,-137.87558c-0.05886,-9.07451 8.83952,-40.91827 43.4068,-41.09615c17.43477,-0.08972 28.28792,8.48128 34.73233,17.98609c-0.32762,1.45244 -0.64028,2.9159 -1.01643,4.31226c-0.95708,2.31527 -1.90327,4.61676 -2.71645,6.98672c-0.111,0.32351 -0.8114,1.90439 -0.50726,2.18014c0.14459,0.13109 1.056,-0.24764 1.23269,-0.31394c1.26179,-1.05802 2.85048,-2.09765 3.88303,-3.41701c-0.0285,0.67403 0.18839,1.52403 0.23809,2.05766c0.21585,2.31727 0.48795,4.63213 0.54749,6.95901c0.08947,3.49661 0.21283,6.99378 0.22339,10.49157c0.00101,0.33333 0.00353,1.16657 0.00454,1.4999c0,0.00003 0,0.00007 0,0.0001c0.00041,0.13772 0.11218,0.24924 0.25,0.24924c0.07491,0 0.14213,-0.03295 0.18795,-0.08515l0.33076,-0.37326l-0.10338,-0.0916c1.4599,-2.02812 1.70058,-7.06158 2.33033,-9.23602c0.34791,-1.20134 0.97768,-2.30297 1.39182,-3.4678c0.05867,0.75878 0.30899,1.62493 0.3896,2.21865c0.29503,2.17296 0.46909,4.24141 0.47042,6.4347c0.00212,3.50477 0.05831,7.00125 0.15525,10.50466c0.08632,3.11973 -0.05925,6.43503 0.53899,9.50193l0.05271,0.48627c0.01208,0.12681 0.11889,0.226 0.24886,0.226c0.08994,0 0.16877,-0.04749 0.21282,-0.11875l0.26727,-0.41763l-0.03695,-0.02365c0.0351,-0.04326 0.06984,-0.08705 0.10423,-0.13136c0.07069,2.28376 0.14997,4.59387 0.23691,6.92326c1.83481,49.15955 7.08292,106.90752 7.08292,106.90752l-15.33344,0.44034c0,0 -0.02526,-17.07387 -0.04361,-31.41953c-0.03143,-24.56274 -3.12787,-102.59545 -3.12787,-102.59545c0,0 0.08151,-3.44977 -3.04075,-3.51082c-3.70819,-0.0725 -3.18018,3.46794 -3.18018,3.46794l0.22186,134.04487l-52.05712,0.08039l-0.32973,-134.44907c0,0 0.30177,-3.24908 -3.11563,-3.26625c-3.35882,-0.01687 -3.04015,3.23794 -3.04015,3.23794c0,0 -3.10599,81.3947 -3.0371,105.65622c0.03691,12.99757 1.41836,28.60775 1.41836,28.60775z" fill="#ffffff" stroke="#000000" stroke-width="2" stroke-linecap="butt"/><path d="M194.44264,160.53007c0.1713,-3.28432 1.77468,-7.28312 1.92772,-8.87799c0.3658,-3.81186 10.384,-6.21146 10.384,-6.21146l65.50284,-1.46872c0,0 1.01874,0.5357 2.3567,1.36532c-0.58832,2.23655 -1.02462,4.61478 -1.61998,6.82491c-0.95708,2.31527 -1.90327,4.61676 -2.71645,6.98672c-0.111,0.32351 -0.8114,1.90439 -0.50726,2.18014c0.14459,0.13109 1.056,-0.24764 1.23269,-0.31394c1.26179,-1.05802 2.85048,-2.09765 3.88303,-3.41701c-0.0285,0.67403 0.18839,1.52403 0.23809,2.05766c0.21585,2.31727 0.48795,4.63213 0.54749,6.95901c0.08947,3.49661 0.21283,6.99378 0.22339,10.49157c0.00101,0.33333 0.00353,1.16657 0.00454,1.4999c0,0.00003 0,0.00007 0,0.0001c0.00041,0.13772 0.11218,0.24924 0.25,0.24924c0.07491,0 0.14213,-0.03295 0.18795,-0.08515l0.33076,-0.37326l-0.10338,-0.0916c1.4599,-2.02812 1.70058,-7.06158 2.33033,-9.23602c0.34791,-1.20134 0.97768,-2.30297 1.39182,-3.4678c0.05867,0.75878 0.30899,1.62493 0.3896,2.21865c0.29503,2.17296 0.46909,4.24141 0.47042,6.4347c0.00212,3.50477 0.05831,7.00125 0.15525,10.50466c0.08632,3.11973 -0.05925,6.43503 0.53899,9.50193l0.05271,0.48627c0.01208,0.12681 0.11889,0.226 0.24886,0.226c0.08994,0 0.16877,-0.04749 0.21282,-0.11875l0.26727,-0.41763l-0.03695,-0.02365c0.77707,-0.95771 1.37636,-2.17638 1.90845,-3.45665c0.46301,11.2619 0.95733,24.13138 1.43975,37.14329c-0.38577,0.59154 -0.75351,1.19612 -1.09748,1.81823c-1.12904,2.04199 -2.25808,4.08397 -3.38712,6.12596c-0.2775,0.50189 -0.81165,1.22995 -1.01905,1.89066c-0.36426,-1.67476 -0.5734,-3.33567 -0.7717,-5.04498c-0.40319,-3.47539 -0.71677,-6.97616 -1.24779,-10.43426c-0.39487,-2.57148 -0.28692,-6.9781 -1.6775,-9.38512l0.06294,-0.03168l-0.22235,-0.44181c-0.04021,-0.08424 -0.12618,-0.14243 -0.22574,-0.14243c-0.12711,0 -0.23207,0.09487 -0.24793,0.21766l-0.07152,0.49109c-0.26405,1.81307 -0.5312,3.62389 -0.83237,5.4312c-0.57532,3.45247 -1.15363,6.90446 -1.72547,10.35751c-0.4619,2.78918 -1.5237,6.09988 -1.67635,8.92522c-0.19869,-0.86732 -0.37072,-1.73165 -0.51984,-2.6113c-0.58704,-3.46295 -1.29286,-6.8779 -2.05286,-10.30686c-0.75718,-3.41628 -1.34152,-6.85857 -1.94883,-10.30437c-0.10005,-0.56771 -0.4171,-4.47656 -0.92028,-4.62129c-0.86158,-0.24783 -0.74546,0.68532 -0.75389,1.01963c-0.04197,1.66416 -0.00059,3.3349 -0.00089,4.99967c-0.00939,3.48521 0.11748,7.00222 -0.13019,10.47877c-0.20774,2.9161 -0.31843,5.89598 -0.48694,8.77166c-0.02193,0.3743 -0.28495,-0.69367 -0.42174,-1.04277c-0.28605,-3.49447 -0.6667,-6.9414 -1.1924,-10.40752c-0.52401,-3.45497 -0.80761,-6.94509 -1.16309,-10.42123c-0.06343,-0.62027 -0.69563,-5.34789 -1.98108,-4.73138c-0.15226,0.07302 -0.12748,1.02823 -0.12818,1.21523c-0.00563,1.49964 -0.06276,2.98589 -0.14616,4.48316c-0.19632,3.52448 -0.37847,6.92221 -1.07104,10.38612c-0.68486,3.42534 -1.32599,6.81264 -1.75958,10.27854c-0.05361,-0.51044 -0.28339,-2.15069 -0.35346,-2.6187c-0.32268,-2.15526 -0.9606,-4.23638 -1.52617,-6.33988c-0.91005,-3.38469 -1.96081,-6.72253 -2.98476,-10.07425c-0.13264,-0.43419 -0.44336,-2.33664 -0.84133,-2.53251c-0.87698,-0.43162 -1.26017,1.03858 -1.51208,1.54322c-0.9034,1.80976 -1.78886,3.58113 -2.49481,5.47769c-1.22095,3.28014 -2.4419,6.56027 -3.66285,9.8404c-0.79662,2.14812 -1.08949,4.61172 -1.5674,6.85378c-0.04627,0.21707 -0.88383,1.96737 -0.94512,1.96357c-0.26244,-0.01622 -0.11516,-0.51827 -0.23143,-0.75412c-1.45253,-3.22075 -2.74457,-6.35905 -3.80513,-9.73026c-1.05492,-3.35332 -2.2707,-6.61831 -3.52521,-9.90175c-0.50256,-1.31536 -1.66137,-6.06056 -3.45517,-6.23492c-0.9796,-0.09521 -1.3699,2.61033 -1.5779,3.29893c-1.00973,3.34272 -2.33154,6.58873 -3.55739,9.85797c-1.22887,3.2773 -2.45482,6.55566 -3.67962,9.83447c-0.81033,2.16925 -1.73562,4.39091 -2.29963,6.63985c-0.14222,0.56712 -0.13716,2.6757 -0.6024,2.9266c0.77698,-2.83604 -0.39159,-7.38883 -0.76172,-10.29591c-0.43922,-3.44977 -0.65174,-7.03329 -1.42713,-10.42292c-0.15519,-0.67841 -0.94356,-5.68018 -2.17676,-4.07372c-0.71208,0.92761 -0.34469,3.99662 -0.97034,5.34031c-1.4863,3.19208 -3.00231,6.32877 -4.16709,9.6532c-1.14331,3.26314 -2.08288,6.71499 -3.63779,9.80381c-0.58575,1.16358 -1.22277,3.48216 -2.13945,4.35623c-0.20679,0.19718 -0.35694,-1.23988 -0.37934,-1.37446c-0.19139,-1.1498 -0.36944,-2.30083 -0.54234,-3.45355c-0.51997,-3.46662 -0.92997,-6.91701 -1.26375,-10.40642c-0.28725,-3.00304 -0.27052,-6.5365 -1.42727,-9.40339l0.02924,-0.00652l-0.10761,-0.48323c-0.02298,-0.11434 -0.12398,-0.20047 -0.24509,-0.20047c-0.11087,0 -0.20489,0.07217 -0.23763,0.17209l-0.16483,0.46589c-0.90431,2.556 -2.85365,4.94569 -4.39742,7.16516c-0.63205,0.90869 -1.2641,1.81739 -1.89615,2.72608c0.47024,-29.40716 1.10122,-59.61202 1.85927,-74.14602z" fill="#111111" stroke="none" stroke-width="0" stroke-linecap="butt"/><path d="M286.96317,227.81522c-0.72735,0.62708 -1.41487,1.27417 -1.8822,2.01296c-0.42266,1.04337 -1.03859,2.26528 -1.75067,3.4604c-0.04142,-14.65431 -0.16898,-28.73451 -0.30209,-39.47386c1.08974,-1.61478 1.81327,-3.74987 2.5689,-5.68708c0.67903,16.73489 1.20617,34.21723 1.36606,39.68759z" data-paper-data="{&quot;index&quot;:null}" fill="#070707" stroke="none" stroke-width="0" stroke-linecap="butt"/><path d="M272.97702,144.71392c0,0 0.61005,0.38184 1.53787,1.0064c-0.1473,0.57981 -0.28569,1.16785 -0.42048,1.75883c-0.68439,-1.73693 -1.11739,-2.76523 -1.11739,-2.76523z" data-paper-data="{&quot;index&quot;:null}" fill="#070707" stroke="none" stroke-width="0" stroke-linecap="butt"/><path d="M280.28694,165.60168c0.00291,0.03763 0.00629,0.07552 0.0101,0.11363c-0.00737,-0.02665 -0.01475,-0.05329 -0.02214,-0.07994c0.00403,-0.01122 0.00805,-0.02246 0.01205,-0.03369z" data-paper-data="{&quot;index&quot;:null}" fill="#070707" stroke="none" stroke-width="0" stroke-linecap="butt"/><path d="M191.42237,229.65737c0,0 1.79427,-63.87246 3.42158,-75.3076c0.46521,-3.26898 8.45531,-8.15169 8.45531,-8.15169c0,0 -7.46066,21.39501 -7.68394,33.62363c-0.17283,9.4655 -0.4305,29.74688 -0.50378,51.59151c-0.44167,0.63659 -0.88941,1.27084 -1.31606,1.91546c-0.78873,0.98987 -1.58143,1.97706 -2.37311,2.96519z" fill="#070707" stroke="none" stroke-width="0" stroke-linecap="butt"/><path d="M255.6773,186.49208c-0.61666,0 -1.11655,-0.51535 -1.11655,-1.15105c0,-0.63571 0.4999,-1.15107 1.11655,-1.15107c0.61666,0 1.11655,0.51536 1.11655,1.15107c0,0.63571 -0.4999,1.15105 -1.11655,1.15105z" fill="#000000" stroke="none" stroke-width="1.5" stroke-linecap="butt"/><path d="M249.99813,191.20662c-4.81932,-0.34994 -7.07479,-1.99678 -6.66169,-2.87187c0.12728,-0.26963 3.07336,1.18381 7.52604,1.45235c6.91988,0.41733 9.18875,-0.70317 9.18875,-0.70317v1.49838c0,0 -2.6059,1.16508 -10.0531,0.62431z" fill="#000000" stroke="#000000" stroke-width="0" stroke-linecap="butt"/><path d="M219.96822,185.34102c0,-0.63571 0.4999,-1.15107 1.11655,-1.15107c0.61666,0 1.11657,0.51536 1.11657,1.15107c0,0.63571 -0.49991,1.15105 -1.11657,1.15105c-0.61666,0 -1.11655,-0.51535 -1.11655,-1.15105z" fill="#000000" stroke="none" stroke-width="1.5" stroke-linecap="butt"/><path d="M226.76394,191.20662c-7.4472,0.54079 -10.0531,-0.62431 -10.0531,-0.62431v-1.49838c0,0 2.26887,1.1205 9.18875,0.70317c4.45268,-0.26854 7.39877,-1.72198 7.52605,-1.45235c0.4131,0.87508 -1.84236,2.52192 -6.66169,2.87187z" fill="#000000" stroke="#000000" stroke-width="0" stroke-linecap="butt"/><path d="M238.94365,260.33867c-0.88423,0 -1.60105,-0.73896 -1.60105,-1.65052c0,-0.91155 0.71681,-1.65052 1.60105,-1.65052c0.88423,0 1.60105,0.73896 1.60105,1.65052c0,0.91155 -0.71681,1.65052 -1.60105,1.65052z" data-paper-data="{&quot;index&quot;:null}" fill="#000000" stroke="none" stroke-width="1.5" stroke-linecap="butt"/><path d="M212.96214,308.51824v-138.8662c0,0 0.81757,-10.83144 0.81757,-16.29479c0,-5.00664 -0.81757,-15.23496 -0.81757,-15.23496c0,0 2.88629,-2.61904 5.02684,-4.17191c2.14055,-1.55285 5.58427,-3.12075 5.58427,-3.12075c0,0 -0.64956,36.29646 15.72016,36.21815c16.66519,-0.07972 14.93415,-36.21815 14.93415,-36.21815c0,0 4.22467,1.69143 6.65737,3.27975c2.4327,1.58831 5.13275,4.01291 5.13275,4.01291c0,0 -0.81757,10.49037 -0.81757,15.79685c0,5.38946 0.81757,16.29479 0.81757,16.29479v138.30432z" fill="#000000" stroke="#000000" stroke-width="2" stroke-linecap="butt"/><path d="M256.49333,159.94457c0,5.78877 -8.01648,10.48151 -17.90531,10.48151c-9.88883,0 -17.90532,-4.69274 -17.90532,-10.48151c0,-5.78877 8.01649,-10.4815 17.90532,-10.4815c9.88883,0 17.90531,4.69273 17.90531,10.4815z" fill="#e6e6e6" stroke="none" stroke-width="0" stroke-linecap="butt"/><path d="M271.24946,150.2979c0,5.78877 -6.44542,10.48151 -14.39623,10.48151c-7.95082,0 -14.39623,-4.69274 -14.39623,-10.48151c0,-5.78877 6.44542,-10.4815 14.39623,-10.4815c7.95081,0 14.39623,4.69273 14.39623,10.4815z" fill="#ffffff" stroke="none" stroke-width="0" stroke-linecap="butt"/><path d="M233.45935,148.8138c0,5.78877 -6.44542,10.48151 -14.39623,10.48151c-7.95082,0 -14.39623,-4.69274 -14.39623,-10.48151c0,-5.78877 6.44542,-10.4815 14.39623,-10.4815c7.95082,0 14.39623,4.69273 14.39623,10.4815z" fill="#ffffff" stroke="none" stroke-width="0" stroke-linecap="butt"/><path d="M224.10181,138.42504c0,5.78877 -4.99519,10.48151 -11.15707,10.48151c-6.16188,0 -11.15709,-4.69274 -11.15709,-10.48151c0,-5.78877 4.9952,-10.4815 11.15709,-10.4815c6.16188,0 11.15707,4.69273 11.15707,10.4815z" fill="#e6e6e6" stroke="none" stroke-width="0" stroke-linecap="butt"/><path d="M275.02847,138.98155c0,5.78877 -4.99519,10.48151 -11.15707,10.48151c-6.16188,0 -11.15707,-4.69274 -11.15707,-10.48151c0,-5.78877 4.9952,-10.4815 11.15707,-10.4815c6.16188,0 11.15707,4.69273 11.15707,10.4815z" fill="#e6e6e6" stroke="none" stroke-width="0" stroke-linecap="butt"/><path d="M261.46002,310.16256c-0.80979,0 -0.80979,-0.83481 -0.80979,-0.83481l0.04156,-0.10704c-1.51606,-4.68875 -4.43806,-8.40483 -5.77839,-13.42916c-0.64054,-2.40115 0.35254,-5.23086 0.33824,-7.61233c0,-0.51136 0.25357,-5.01309 -0.27218,-5.18975c-2.12065,-0.71257 -4.2592,3.78432 -6.49826,2.58654c-0.79655,-0.42612 -1.24597,-1.90508 -1.4751,-2.72879c-0.80191,-2.88288 -0.93922,-7.91868 -0.02184,-10.75587c-0.01775,-2.29225 -0.43344,-4.19257 -0.72421,-6.44276c-0.04908,-0.3798 0.26672,-1.19172 -0.10214,-1.14466c-3.34914,0.42734 -6.54602,10.91087 -9.87189,5.17194c-0.28205,-0.4867 -0.49615,-1.01199 -0.73923,-1.52054c-0.49353,-1.03254 -0.79491,-2.19983 -0.80979,-3.3508c0,-8.85352 4.08935,-25.70643 0.05029,-34.09379c-0.1861,-2.10214 -2.04033,-0.3156 -3.26638,0.52452c-2.01423,1.38019 -5.57805,3.7355 -8.16091,2.5543c-4.00371,-1.83097 -0.12241,-8.97289 -0.13999,-11.90207c0,-2.42396 -0.0093,-8.33068 -2.09166,-10.02375c-0.20483,-0.16654 -2.27494,1.02793 -2.54715,1.14831c-2.53651,1.12173 -4.10121,2.55897 -5.34409,5.16748c0,0 -0.36215,0.74669 -1.08644,0.37335c-0.7243,-0.37334 -0.36215,-1.12002 -0.36215,-1.12002c1.77868,-3.61281 3.878,-4.61369 7.20672,-6.31301c1.02025,-0.52084 1.50921,-1.5049 2.89732,-0.72817c0.86655,0.48488 1.18356,1.83385 1.46585,2.69819c0.97901,2.99774 1.48118,5.64472 1.48118,8.79761c-0.01354,2.70997 -1.43963,5.10051 -1.43963,7.79156c0,0.42347 -0.21607,2.31995 0.57982,2.56797c3.90933,1.2183 10.4746,-7.63947 12.32648,-2.11555c4.19831,8.58771 0.05029,25.61955 0.05029,34.67307c-0.01501,0.89522 0.24516,1.80599 0.6388,2.60411c0.01424,0.02888 1.04708,2.74564 1.60451,2.51983c2.84024,-1.15055 3.78967,-8.2952 7.93012,-7.04952c2.44952,0.73695 2.06662,7.35748 2.0529,9.47981c-0.7294,2.25581 -1.312,9.90953 0.66248,11.74515c0.06516,0.06058 3.47931,-2.22068 3.75071,-2.30262c4.33321,-1.30806 3.87508,3.22707 3.87508,6.37788c-0.01092,2.18597 -1.01464,5.04676 -0.38156,7.22873c1.43208,4.93583 4.2257,8.60583 5.7386,13.28478l0.04155,0.63501c0,0 0,0.83481 -0.80979,0.83481z" fill="#ec0000" stroke="none" stroke-width="0.5" stroke-linecap="butt"/><path d="M256.78349,310.44548c-0.7243,0.37334 -1.08644,-0.37335 -1.08644,-0.37335l-0.20822,-0.52509c-2.29681,-2.36778 -3.44804,-6.86485 -3.47633,-10.237c0,-1.39834 0.49584,-6.11341 -0.74342,-7.11433c-1.29262,-1.04401 -3.57955,1.81662 -5.35813,0.77025c-3.85946,-2.27063 -3.53979,-9.25917 -3.65283,-13.07141c-0.16708,-0.86449 0.09533,-5.86575 -0.90281,-6.15616c-2.09544,-0.60969 -4.18336,1.32096 -5.85851,1.85514c-1.16403,0.37119 -3.51223,-0.06921 -4.61821,-0.62033c-3.09771,-1.54362 -2.97977,-5.3847 -2.97977,-8.68456c0,-4.21833 0.45824,-14.93072 -0.00352,-19.11807c-0.08105,-0.73498 -0.07331,-3.65187 -0.69213,-4.16648c-1.04329,-0.86762 -4.24129,1.3382 -5.0981,1.57296c-3.85489,1.05624 -4.75587,-2.4124 -5.33619,-5.40807c-1.42608,-4.5202 0.87566,-9.11602 0.24631,-13.66859c-0.03526,-0.25508 -0.35659,-3.06412 -0.65694,-3.30669c-1.17364,-0.94792 -2.81894,1.69142 -3.07714,2.55497c0,0 -0.25608,0.79197 -1.02431,0.52798c-0.76823,-0.26399 -0.51215,-1.05597 -0.51215,-1.05597c1.25216,-3.67123 5.52698,-5.37985 6.59283,-0.67929c1.13892,5.02281 -1.6124,10.35836 -0.00325,15.19907c0.17024,0.8762 0.40638,3.34294 1.16367,4.01541c2.11975,1.88235 6.11931,-3.17568 8.55676,-1.17202c1.55027,1.27437 0.92862,2.19888 1.09903,3.77277c0.52742,4.87107 0.36474,16.00365 0.36474,20.93204c0,3.15168 -0.30897,6.55687 2.97374,7.34973c0.32137,0.07762 1.89834,0.59931 2.38489,0.41263c1.83603,-0.70443 4.78355,-2.9324 7.09809,-1.85514c2.3592,1.09806 1.48147,5.39969 1.89188,7.50699c0.12426,3.69511 -0.14934,8.0846 2.26659,11.12698c1.73693,2.18731 3.77855,-1.74579 6.0825,0.0114c1.91823,1.463 1.41601,6.43519 1.41601,8.46879c-0.03099,2.90243 1.03259,7.02615 3.00197,9.0564l0.51159,0.959c0,0 0.36215,0.74668 -0.36215,1.12002z" fill="#ec0000" stroke="none" stroke-width="0.5" stroke-linecap="butt"/><path d="M231.98995,210.06611l0.53041,0.10036c0.89975,0.97715 2.29268,1.12652 3.1976,1.88203c2.02783,1.69305 2.08473,3.53215 2.05659,5.94957c-1.83945,3.84842 -4.29973,5.09849 -8.26477,3.56028c-1.0941,-0.42445 -1.52954,-0.31985 -2.20985,-1.45806c-1.11495,-1.86542 -0.48937,-6.0068 0.3006,-7.80786c0.57704,-1.3156 2.1416,-1.53316 3.05478,-2.49699c0,0 0.57261,-0.5903 1.14521,0c0.08821,0.09094 0.14926,0.18189 0.18939,0.27068z" fill="#ec0000" stroke="none" stroke-width="0.5" stroke-linecap="butt"/><path d="M244.74365,246.87837c3.13706,2.16939 3.89089,1.02876 3.82809,4.81209c-0.73049,1.54804 -2.75129,7.47005 -4.56104,7.99015c-2.26779,0.65175 -4.37881,-3.54492 -4.58882,-5.1628c-0.47515,-3.66043 -0.30509,-6.33932 2.95647,-7.8117z" fill="#ec0000" stroke="none" stroke-width="0.5" stroke-linecap="butt"/><path d="M215.50329,296.88001c1.38997,-5.96717 2.09966,-12.12602 2.7852,-18.26822c-0.94834,-1.39684 -2.01954,-2.66268 -3.32213,-3.07934c-0.47505,-0.69266 -1.6638,-1.26614 -1.42514,-2.07797c0.23494,-0.79918 1.49566,-0.66676 2.28592,-0.85015c0.98507,-0.2286 2.07214,-0.28602 3.18176,-0.27451c0.13991,-1.14583 0.28686,-2.28857 0.4452,-3.42684c0.22878,-1.64469 0.45345,-3.21436 0.49183,-4.87665l0.03512,-1.46596c0.00932,-0.45271 0.36823,-0.81674 0.8096,-0.81674c0.33666,0 0.62533,0.21179 0.7475,0.51317l0.65026,1.5083l-0.21918,0.10042c1.37516,2.68801 1.75565,5.57513 2.50004,8.62996c0.84008,-0.00138 2.05735,0.02124 2.19346,0.16549c1.26387,1.33952 0.80467,2.55132 0.57738,4.04334c-0.14289,0.93793 -0.35345,1.87184 -0.61313,2.80014c1.56386,4.42488 3.39003,8.77387 4.98333,13.16448c0.72026,1.48503 1.26734,2.98416 1.83046,4.53795l0.005,0.04749l0.00741,-0.00191l0.35551,1.46595c0.01864,0.07028 0.02858,0.14425 0.02858,0.22063c0,0.46106 -0.36255,0.83481 -0.80979,0.83481c-0.38537,0 -0.70788,-0.27753 -0.78972,-0.64928l-0.34741,-1.43258c-0.01015,-0.02787 -0.0203,-0.0557 -0.03045,-0.08352c-2.96602,-3.20841 -5.52785,-7.02916 -8.03536,-10.7614c-0.41528,0.94487 -0.8297,1.87862 -1.22083,2.79939c-1.74157,3.5905 -2.57481,7.3957 -4.93804,10.63735l-0.43072,1.16132c-0.11162,0.32337 -0.41115,0.55487 -0.76313,0.55487c-0.38537,0 -0.70788,-0.27753 -0.78972,-0.64928l-0.3558,-1.46717l0.17274,-0.04452c-0.11991,-0.41596 -0.19477,-0.84006 -0.19692,-1.27104v-1.11308c0,0 0,-0.32991 0.20117,-0.57494zM219.66849,280.77243c-0.66021,5.77749 -1.39927,11.55025 -2.7468,17.1557v0.53556c1.8345,-2.98492 2.6582,-6.31461 4.21538,-9.52546c0.5161,-1.21684 1.06746,-2.44877 1.60784,-3.69399c-0.77512,-1.14519 -1.54986,-2.27214 -2.33464,-3.35999c-0.24325,-0.33719 -0.48957,-0.71402 -0.74178,-1.1118zM220.6336,272.38374c0.75864,0.03709 1.50981,0.08314 2.22836,0.10578c-0.15248,-0.59498 -0.29746,-1.19241 -0.43408,-1.79254c-0.2381,-1.04594 -0.72203,-2.37114 -1.08945,-3.68425c-0.08326,0.70424 -0.18127,1.40918 -0.28116,2.12725c-0.14995,1.0779 -0.28998,2.15951 -0.42368,3.24377zM229.52256,291.70201c-1.2162,-3.25975 -2.4942,-6.50086 -3.67816,-9.77322c-0.36634,1.01376 -0.77285,2.01902 -1.19451,3.01368c1.61039,2.21048 3.19744,4.44185 4.7979,6.65744c0.02452,0.03395 0.04946,0.06799 0.07479,0.10211zM223.52463,283.40752c0.53663,-1.30153 1.03731,-2.61639 1.45085,-3.94259c-0.59906,-1.74919 -1.16053,-3.51074 -1.66104,-5.29212c-0.96496,-0.00107 -1.9303,-0.00586 -2.89554,-0.0041c-0.17557,1.49288 -0.34286,2.98961 -0.51112,4.48736c0.02333,0.03038 0.04692,0.06069 0.07079,0.0909c1.2073,1.52954 2.38483,3.08752 3.54606,4.66055zM216.21215,274.27585c1.08817,0.51046 1.7283,1.33042 2.30997,2.24383c0.08762,-0.7808 0.17605,-1.56095 0.26665,-2.34002c-0.41334,0.00529 -0.82662,0.01283 -1.23981,0.02343c-0.28356,0.00727 -0.81674,0.08432 -1.33681,0.07276zM224.83022,273.87361c0.27031,0.97072 0.5624,1.93562 0.87137,2.89588c0.22346,-0.99541 0.40501,-2.22676 0.01419,-2.75409c-0.2008,-0.27092 -0.52594,-0.24293 -0.88555,-0.1418z" fill="#ec0000" stroke="none" stroke-width="0.5" stroke-linecap="butt"/><path d="M213.73977,305.46579c-0.57261,-0.5903 0,-1.1806 0,-1.1806l0.84254,-0.86857c0,-0.00841 0,-0.01681 0,-0.02524c0,0 0,-0.83481 0.80979,-0.83481c0.22549,0 0.38819,0.06473 0.50559,0.15814c0.05473,-0.03154 0.10947,-0.06306 0.1642,-0.09459l0.18706,0.77127h0.31284v1.11308h-0.04289l0.03243,0.13373c-0.02696,0.03772 -0.05392,0.07544 -0.08088,0.11316l0.04977,0.01711l-0.35401,1.09482c-0.10176,0.34112 -0.40986,0.58909 -0.77414,0.58909c-0.43164,0 -0.78439,-0.34813 -0.80847,-0.7869c-0.21939,0.09305 -0.53162,0.1222 -0.84385,-0.19967z" fill="#ec0000" stroke="none" stroke-width="0.5" stroke-linecap="butt"/><path d="M238.77879,207.04856c-0.71771,-0.37418 -0.35721,-1.11745 -0.35721,-1.11745c1.16561,-2.40325 2.7031,-4.41157 3.9836,-6.72546c0.2163,-0.39087 0.42025,-0.79107 0.61453,-1.19852c-2.24069,-2.78108 -4.47524,-5.56214 -6.76644,-8.2603l-0.59338,-0.69876c-0.12636,-0.14725 -0.20306,-0.34085 -0.20306,-0.5529c0,-0.46106 0.36255,-0.83481 0.80979,-0.83481h1.43963v0.14034c3.00704,-0.30237 6.10523,0.08144 9.17242,0.66435c0.67194,-1.60198 2.17882,-5.04058 3.30582,-4.47697c0.59323,0.29667 1.00394,3.19152 1.13357,3.92658c0.09926,0.51747 0.20016,1.03495 0.30194,1.55251c1.05637,0.23164 2.10105,0.4566 3.1287,0.65362c1.35213,0.25924 6.85677,0.08085 6.80006,2.40952c-0.02466,1.01261 -2.11855,3.12947 -2.77393,3.99432c-1.70537,1.18811 -3.46232,2.25357 -5.23989,3.26647c0.46934,3.08026 0.79085,6.17923 0.80568,9.31127l0.32363,1.0009c0.03076,0.08822 0.04754,0.18332 0.04754,0.28248c0,0.46106 -0.36255,0.83481 -0.80979,0.83481c-0.32327,0 -0.6023,-0.19528 -0.73215,-0.47765l-0.71646,-1.47718l0.00629,-0.00324c-1.77182,-1.95677 -3.49223,-3.97694 -5.18726,-6.02613c-2.15115,1.18902 -4.27968,2.42069 -6.33117,3.81802l-1.17942,0.41307c0,0 -0.6947,0.23873 -0.98307,-0.41889z" fill="#ffffff" stroke="none" stroke-width="0.5" stroke-linecap="butt"/><path d="M236.97925,210.01677c-0.71771,-0.37418 -0.35721,-1.11745 -0.35721,-1.11745c1.16561,-2.40325 2.7031,-4.41157 3.9836,-6.72546c0.2163,-0.39087 0.42025,-0.79107 0.61453,-1.19852c-2.24069,-2.78108 -4.47524,-5.56214 -6.76644,-8.2603l-0.59338,-0.69879c-0.12636,-0.14725 -0.20306,-0.34084 -0.20306,-0.5529c0,-0.46106 0.36255,-0.83481 0.80979,-0.83481h1.43963v0.14034c3.00704,-0.30237 6.10523,0.08143 9.17242,0.66434c0.67194,-1.60198 2.17882,-5.04058 3.30582,-4.47697c0.59323,0.29667 1.00394,3.19152 1.13357,3.92658c0.09926,0.51747 0.20016,1.03495 0.30194,1.55251c1.05637,0.23164 2.10105,0.4566 3.1287,0.65362c1.35214,0.25924 6.85677,0.08085 6.80005,2.40952c-0.02466,1.01261 -2.11853,3.12947 -2.77392,3.99432c-1.70537,1.18811 -3.46233,2.25357 -5.23989,3.26647c0.46934,3.08026 0.79085,6.17923 0.80568,9.31127l0.32363,1.0009c0.03076,0.08822 0.04754,0.18332 0.04754,0.28248c0,0.46106 -0.36255,0.83481 -0.80979,0.83481c-0.32327,0 -0.6023,-0.19528 -0.73215,-0.47765l-0.71646,-1.47718l0.00628,-0.00324c-1.77182,-1.95677 -3.49223,-3.97694 -5.18726,-6.02613c-2.15115,1.18902 -4.27968,2.42069 -6.33117,3.81802l-1.17942,0.41307c0,0 -0.6947,0.23873 -0.98307,-0.41888z" fill="#ec0000" stroke="none" stroke-width="0.5" stroke-linecap="butt"/><path d="M252.11593,272.98384c-0.09986,0.04711 -0.22256,0.07606 -0.37336,0.07606c-0.80979,0 -0.80979,-0.83481 -0.80979,-0.83481c0,-2.37118 -0.72847,-7.71771 1.3169,-9.49494c2.34647,-2.03886 5.38728,2.43797 5.69081,4.53788c0.45008,3.11377 -2.61644,8.64521 -5.77513,5.81622c-0.01648,-0.03346 -0.03295,-0.06693 -0.04943,-0.10039z" fill="#ec0000" stroke="none" stroke-width="0.5" stroke-linecap="butt"/><path d="M262.28198,292.17702c0.51709,0.02751 1.01958,0.15328 1.46911,0.53319c2.3745,2.00676 1.02417,5.94407 -1.69649,6.65679c-3.11907,0.8171 -3.34005,-2.77012 -2.47771,-5.4187c-0.11579,-0.43663 0.23082,-0.79394 0.23082,-0.79394l0.12836,-0.12058c0.30479,-0.64946 0.67597,-1.17673 1.07478,-1.46783c0,0 0.67379,-0.46307 1.12298,0.23153c0.08792,0.13596 0.13283,0.26304 0.14817,0.37953z" fill="#ec0000" stroke="none" stroke-width="0.5" stroke-linecap="butt"/><path d="M243.09745,177.10463c0,2.51547 -2.17119,4.55467 -4.84949,4.55467c-2.67829,0 -4.84949,-2.03919 -4.84949,-4.55467c0,-2.51547 2.17119,-4.55467 4.84949,-4.55467c2.67829,0 4.84949,2.03919 4.84949,4.55467z" fill="#ffffff" stroke="none" stroke-width="0" stroke-linecap="butt"/><path d="M242.01773,186.00927c0,1.96221 -1.73608,3.55289 -3.87763,3.55289c-2.14155,0 -3.87763,-1.59069 -3.87763,-3.55289c0,-1.96221 1.73608,-3.5529 3.87763,-3.5529c2.14155,0 3.87763,1.59069 3.87763,3.5529z" fill="#e8e8e8" stroke="none" stroke-width="0" stroke-linecap="butt"/><path d="M191.61334,69.48094c0.04191,-0.3348 -1.10899,3.09302 -2.50958,4.58268c-1.9645,2.08943 -4.38498,2.54206 -4.38498,2.54206c0,0 9.39789,-21.31029 10.53718,-24.54076c0.20799,-0.58973 0.6572,-1.77843 0.6572,-1.77843l-6.73644,-0.22518l13.55784,-10.53438c0,0 3.83292,-6.19985 4.95283,-7.23329c0.94789,-0.87469 1.95086,-1.71317 3.01217,-2.50821c1.14508,-0.85779 -4.13431,-4.03691 -4.13431,-4.03691c0,0 9.96892,0.41965 11.14204,-0.1153c1.8512,-0.84416 -1.38821,-7.79524 -1.38821,-7.79524c0,0 4.13605,2.8208 8.62933,3.94048c3.52116,0.87745 7.34879,0.12991 8.99578,0.03636c1.13447,-0.04268 9.92349,-9.41911 9.92349,-9.41911c0,0 -3.5489,9.40778 -2.10194,9.4971c42.79652,2.64189 40.53042,42.11756 43.36953,49.79634c0.13758,0.37209 9.9837,14.99077 9.9837,14.99077c0,0 -3.49437,-2.32775 -5.60616,-1.92076c-1.3931,0.26847 -1.7867,3.03869 -1.59391,3.78619c3.00117,11.63669 -0.28958,28.2463 -0.28958,28.2463c0,0 -1.15285,-4.53241 -1.91829,-6.36911c-0.80836,-1.9397 -2.81019,-4.97695 -2.81019,-4.97695l-0.70899,4.5384c0,0 1.30522,7.91407 1.95544,11.85665c0.64706,3.92339 1.93646,11.74156 1.93646,11.74156l-6.27098,-5.16824c0,0 -0.75843,1.39859 -1.16798,2.04353c-2.97526,4.68541 -6.80293,7.42245 -6.80293,7.42245l1.07768,-10.58011l-8.50784,9.98187l-1.3462,-6.19139c0,0 -4.42767,12.62885 -24.15227,12.77351c-18.60399,-0.00369 -25.60798,-11.13626 -25.60798,-11.13626l-0.74136,5.56932l-8.61123,-8.25709l-0.65066,10.24976c0,0 -8.66882,-13.28803 -9.30909,-15.07233c-0.25087,-0.69913 -1.51318,-4.31704 -1.51318,-4.31704l-5.09987,7.57467c0,0 1.19169,-6.59035 1.86449,-11.47225c0.60421,-4.38411 1.99411,-16.15336 1.99411,-16.15336c0,0 -1.42878,1.38491 -2.36625,1.70301c-1.35274,0.45902 -4.97158,0.78689 -4.97158,0.78689c0,0 2.61449,-3.51349 4.28246,-8.28578c0.29258,-0.83712 0.77115,-2.61538 0.77115,-2.61538l-8.3968,3.20022c0,0 5.63054,-6.78843 8.54689,-13.07631c2.31577,-4.99296 2.05618,-9.77951 2.06166,-9.82324z" fill="#000000" stroke="none" stroke-width="1.5" stroke-linecap="butt"/><path d="M206.6815,90.78728c-0.77821,-8.36192 0.0541,-19.69869 0.0541,-19.69869c0,0 1.66071,4.1963 2.59036,5.49644c0.61308,0.85741 0.01353,2.73288 0.01353,2.73288c0,0 2.30584,-1.65974 4.44313,-4.68751c2.3082,-3.26987 6.6189,-6.83171 8.38879,-7.40221c2.31062,-0.74479 3.22687,3.40453 3.22687,3.40453c0,0 5.41796,-5.80217 8.53179,-8.14684c3.35984,-2.52992 10.94543,-6.5192 10.94543,-6.5192c0,0 -2.34945,3.48861 -3.71185,5.18153c-1.44837,1.79977 -3.28445,25.96136 -3.28445,25.96136c0,0 11.18341,-20.46814 18.73956,-24.10614c0.64655,-0.57755 4.1969,-1.65261 6.83395,-0.68243c2.89366,1.06459 4.86336,4.21408 4.86336,4.21408c0,0 0.65285,15.31797 0.4092,21.70387c-0.3641,6.51563 -2.64431,10.95095 -3.27524,14.42987c-0.63094,3.47893 -0.34202,7.05197 -2.15852,18.45271c-1.13362,7.11485 -4.46849,10.32021 -10.88456,17.01072c-6.41608,6.69052 -9.90981,10.78506 -14.31799,10.93567c-4.24225,0.14494 -10.04513,-5.69367 -15.71082,-11.66729c-6.03305,-6.36095 -10.04025,-9.57134 -11.10019,-17.2046c-0.37428,-2.69538 -3.04609,1.18725 -3.8543,-0.86242c-1.79044,-4.54071 2.61532,-12.89916 2.32064,-16.62183c-0.35428,-4.47561 -2.63777,-7.35786 -3.06278,-11.92446z" fill="#ffffff" stroke="#000000" stroke-width="1.5" stroke-linecap="butt"/><g stroke="none" stroke-linecap="butt"><g><path d="M265.1683,122.10025c0,0 -3.34588,35.54778 -8.31955,44.38484c-2.49885,4.43989 -15.28222,3.32238 -20.0587,3.88101c-7.76568,0.90827 -14.05132,-0.03881 -16.87416,-4.41474c-5.68254,-8.80901 -8.85407,-42.99999 -8.85407,-42.99999c0,0 13.31927,-4.76714 18.57178,-4.83543c3.41972,-0.04445 8.60621,4.28554 8.60621,4.28554c0,0 7.10563,-5.52959 9.28415,-5.18381c8.9062,1.4136 17.64434,4.88258 17.64434,4.88258z" fill="#000000" stroke-width="0"/><path d="M253.52685,120.93811c7.62929,2.28826 6.8618,2.84387 -5.70303,4.3293l-11.24654,1.39805l2.26108,-1.85143c-0.03357,-2.0728 7.27649,-6.10252 14.68849,-3.87592z" data-paper-data="{&quot;noHover&quot;:false,&quot;origItem&quot;:[&quot;Path&quot;,{&quot;applyMatrix&quot;:true,&quot;segments&quot;:[[[87.72283,305.82038],[0,-1.39308],[0,0]],[87.72283,306.59686],[[89.46501,306.42178],[0,0],[4.54688,-0.44914]],[[91.38689,305.05152],[2.74218,0.845],[-2.66406,-0.82216]]],&quot;closed&quot;:true,&quot;fillColor&quot;:[0,0,0,1]}]}" fill="#ec0000" stroke-width="0.5"/><path d="M220.943,121.60727c6.62238,-2.4539 9.48961,-1.50196 12.76218,0.22671c1.72311,0.88464 7.06867,2.61293 7.0838,3.547c0.02744,1.69434 -5.21133,1.0894 -15.32976,0.03653l-9.89441,-1.69577l5.37812,-2.11447z" data-paper-data="{&quot;noHover&quot;:false,&quot;origItem&quot;:[&quot;Path&quot;,{&quot;applyMatrix&quot;:true,&quot;segments&quot;:[[81.36343,304.9982],[79.41031,305.67572],[[81.98063,305.9726],[0,0],[3.64844,0.4263]],[[86.05875,305.77468],[0,0.59378],[0,-0.32734]],[[85.10563,304.77744],[0.61718,0.31972],[-1.17188,-0.62422]],[[81.36345,304.9982],[2.40624,-0.82216],[0,0]]],&quot;closed&quot;:true,&quot;fillColor&quot;:[0,0,0,1]}]}" fill="#ec0000" stroke-width="0.5"/><path d="M228.63391,128.20053c1.99402,0.25016 8.08283,0.3679 12.88352,0.29014c8.10924,-0.13134 14.7285,-3.10229 13.07959,-2.07609c-0.38376,0.236 -1.08837,1.36289 -2.62983,1.94756c-0.2793,0.10593 -1.24193,1.0386 -1.75142,2.23895c-0.59981,1.41314 -0.73213,3.11778 -0.73213,3.11778c0,0 -0.83611,-1.88295 -1.4348,-2.48165c-0.57258,-0.5726 -2.08248,-1.03572 -2.08248,-1.03572c0,0 -6.85638,1.53603 -9.15795,1.57331c-1.79426,0.02906 -5.82207,-0.71212 -5.82207,-0.71212c0,0 -2.36342,0.35717 -3.15814,0.84992c-0.61529,0.3815 -1.21117,1.85917 -1.21117,1.85917c0,0 0.02151,-1.42717 -0.94141,-2.9692c-0.63696,-1.02005 -2.28862,-2.32014 -2.56865,-2.46676c-1.12957,-0.5914 -2.85811,-1.84313 -2.85811,-1.84313l8.93561,1.76801z" data-paper-data="{&quot;noHover&quot;:false,&quot;origItem&quot;:[&quot;Path&quot;,{&quot;applyMatrix&quot;:true,&quot;segments&quot;:[[83.43363,306.96974],[82.12895,306.77182],[[83.19927,307.34276],[0,0],[0.92968,0.47198]],[[87.01177,307.89086],[-2.35938,0],[2,0]],[[90.38677,307.51784],[-0.47656,0.27406],[0.60156,-0.35018]],[[87.88677,307.14482],[2.92968,0],[-1.73438,0]],[[83.43365,306.96974],[0.71874,0.09896],[0,0]]],&quot;closed&quot;:true,&quot;fillColor&quot;:[0,0,0,1]}]}" fill="#ffffff" stroke-width="0.5"/><path d="M228.30554,154.62666c0.16272,0.04666 2.13082,-3.43776 2.13082,-3.43776c0,0 -0.32613,1.09045 -0.1039,2.30134c0.25307,1.37894 1.08611,2.91619 1.60108,3.21478c1.34099,0.77752 2.71945,1.51656 3.51903,1.6988c2.24979,0.49692 6.06798,-1.17683 9.18214,-2.69264c0.38311,-0.18648 1.1501,-1.24621 1.39335,-2.36168c0.30637,-1.40485 0.0411,-2.90235 0.0411,-2.90235c0,0 1.86403,3.64431 2.23426,3.48179c2.49126,-1.10498 0.26292,3.84437 -2.33539,5.01633c-1.78114,0.87621 -5.94949,1.572 -10.45095,1.42764c-5.40968,-0.12965 -6.18744,-2.03789 -7.53081,-3.51536c-1.40825,-1.47642 -1.48998,-2.72749 -0.22872,-2.31334z" data-paper-data="{&quot;noHover&quot;:false,&quot;origItem&quot;:[&quot;Path&quot;,{&quot;applyMatrix&quot;:true,&quot;segments&quot;:[[[83.55863,311.35458],[0,0],[-0.45312,-0.15226]],[[83.62895,311.78088],[-0.5,-0.52526],[0.47656,0.52526]],[[86.36333,312.45078],[-1.95312,-0.07612],[1.625,0.07612]],[[89.46489,312.1539],[-0.64844,0.29688],[0.94532,-0.39586]],[[89.81645,311.47638],[0.90626,-0.373],[-1.04688,0.4263]],[[85.22271,311.75804],[1.1875,0.27406],[-0.64062,-0.15226]],[[83.55865,311.35458],[0.25782,0.07612],[0,0]]],&quot;closed&quot;:true,&quot;fillColor&quot;:[0,0,0,1]}]}" fill="#ffffff" stroke-width="0.5"/><path d="M214.45405,126.32143c-0.54644,-1.68593 1.38549,-0.91625 3.60299,1.11202c1.40579,1.32438 3.24884,18.73021 4.76806,23.05117c2.90375,8.33998 3.60838,10.53994 11.52902,10.78104c17.17816,0.22157 15.48041,-2.41136 17.66409,-10.48608c0.7576,-2.64137 4.00971,-20.71093 4.59792,-21.78514c1.09108,-2.08179 5.25641,-5.35196 5.27576,-4.15727c0.00598,0.3693 -2.71496,19.28826 -3.35964,23.55739c-1.24677,8.49415 -2.6759,15.02921 -5.40797,17.28971c-3.45955,2.75032 -19.92022,3.47447 -27.93775,1.25769c-3.30313,-0.94601 -3.69559,-1.31162 -5.20109,-4.78544c-0.89841,-2.04957 -2.32498,-7.45843 -3.17491,-11.85544c-0.80665,-4.39769 -2.08746,-23.3973 -2.35648,-23.97961z" data-paper-data="{&quot;noHover&quot;:false,&quot;origItem&quot;:[&quot;Path&quot;,{&quot;applyMatrix&quot;:true,&quot;segments&quot;:[[[78.98051,306.64252],[0,0],[0.09376,0.20554]],[[79.62895,309.80934],[-0.26562,-1.54534],[0.28126,1.54534]],[[80.69927,313.9201],[-0.3125,-0.72318],[0.52344,1.22562]],[[82.52739,315.59486],[-1.1875,-0.35018],[2.88282,0.82216]],[[91.51177,315.3208],[-1.26562,0.94396],[1,-0.77648]],[[93.91803,309.38302],[-0.5,2.9689],[0.25782,-1.49206]],[[94.38679,306.46742],[0,0.12942],[0,-0.41868]],[[92.62897,307.792],[0.40626,-0.72318],[-0.21874,0.37302]],[[91.74615,310.13666],[0.28908,-0.92112],[-0.83594,2.81664]],[[85.83989,313.22734],[4.26564,0.1751],[-2.85938,-0.12942]],[[81.60551,309.8626],[1,2.93844],[-0.52344,-1.5225]],[[80.10551,306.947],[0.5,0.47198],[-0.78906,-0.7232]],[[78.98051,306.6425],[-0.1875,-0.59378],[0,0]]],&quot;closed&quot;:true,&quot;fillColor&quot;:[0,0,0,1]}]}" fill="#970000" stroke-width="0.5"/></g><path d="M241.5717,162.42183l-0.17926,-11.06833l3.83068,-0.06204l0.16457,10.16109c0,0 -1.6091,3.38372 -2.30298,3.39496c-0.54855,0.00888 -1.51301,-2.42568 -1.51301,-2.42568z" fill="#000000" stroke-width="0"/><path d="M248.00329,168.2622c0,0 -1.68272,0.9388 -3.59492,0.96977c-1.9122,0.03097 -3.76931,-0.69858 -3.76931,-0.69858c0,0 1.80299,-2.61194 3.71519,-2.64291c1.9122,-0.03097 3.64903,2.37172 3.64903,2.37172z" fill="#000000" stroke-width="0"/></g><path d="M260.90927,72.37596c0,0 1.56851,1.27929 4.3215,3.97123c2.51454,2.45879 4.3665,5.20025 4.3665,5.20025l-0.09276,2.19434c0,0 -7.03974,-8.99138 -15.73192,-11.45739c-6.95007,-1.97172 -11.52319,0.43081 -11.52319,0.43081l1.13485,-7.48686c0,0 3.8306,-1.61172 9.00028,0.31461c5.35318,1.99474 8.61059,4.81837 8.61059,4.81837z" data-paper-data="{&quot;index&quot;:null}" fill="#000000" stroke="none" stroke-width="1.5" stroke-linecap="butt"/><path d="M208.76235,102.37765c0,0 -2.32745,2.58608 -3.87846,1.29668c-0.41836,-0.3478 0.20345,-4.01019 -0.23702,-4.44445c-0.83515,-0.82336 -1.67539,-1.79931 -2.38933,-2.91718c-0.716,-1.12111 -1.30497,-2.38495 -1.6344,-3.78083c-1.55033,-6.56916 -0.69981,-11.49253 1.45711,-11.82502c2.15694,-0.3325 3.05434,2.67985 4.3118,9.52468c1.25745,6.84481 2.37031,12.14611 2.37031,12.14611z" data-paper-data="{&quot;index&quot;:null}" fill="#ffffff" stroke="#000000" stroke-width="1" stroke-linecap="butt"/><path d="M208.46337,97.84966c0,0 -1.20801,1.93517 -2.14813,1.19013c-0.45603,-0.36141 -0.45171,-3.11604 -0.97634,-3.65465c-1.52499,-1.56563 -3.12921,-3.88258 -3.58834,-6.96622c-0.52589,-3.53187 4.10647,-2.84876 4.10647,-2.84876" fill="none" stroke="#000000" stroke-width="0.25" stroke-linecap="round"/><path d="M241.87559,92.86869c0.10715,-7.38155 4.74169,-13.45065 10.66339,-13.54655c5.92167,-0.09591 10.42462,5.81884 10.54421,13.20308c0.1196,7.38425 -4.10536,13.76127 -10.57758,13.97305c-6.15625,0.20145 -10.74191,-5.92067 -10.63001,-13.62958z" fill="#000000" stroke="#000000" stroke-width="3.5" stroke-linecap="butt"/><path d="M247.49753,93.05837c-0.05119,-3.16036 3.70548,-9.13088 3.70548,-9.13088c0,0 3.94802,5.84573 3.9992,9.00609c0.05118,3.16036 -3.71184,8.73721 -3.71184,8.73721c0,0 -3.94165,-5.45207 -3.99284,-8.61242z" fill="#ff0000" stroke="#720000" stroke-width="2" stroke-linecap="butt"/><path d="M215.24908,73.41234c0,0 3.45716,-3.46484 8.53931,-5.0577c5.63166,-1.76511 11.8725,7.54953 11.8725,7.54953l-1.90821,3.2991c0,0 -4.80319,-6.35465 -9.39883,-5.32423c-6.14611,1.37804 -7.1302,3.47539 -11.76029,4.98456c-3.96731,1.29315 -7.41714,1.50691 -7.41714,1.50691l-0.20736,-1.91456c0,0 3.98103,-0.55674 5.76987,-1.08487c1.47645,-0.43591 4.25435,-2.2052 4.25435,-2.2052z" fill="#000000" stroke="none" stroke-width="1.5" stroke-linecap="butt"/><path d="M268.95644,89.21825c1.03513,-6.88195 1.83454,-9.92178 4.0011,-9.65931c2.16658,0.26247 4.279,4.48168 2.94221,11.09761c-1.27049,6.28774 -8.91904,10.7782 -8.91904,10.7782c0,0 0.9406,-5.33455 1.97573,-12.2165z" data-paper-data="{&quot;index&quot;:null}" fill="#ffffff" stroke="#000000" stroke-width="1" stroke-linecap="butt"/><path d="M269.34025,84.54198c0,0 4.91801,-1.32993 4.50675,2.21715c-0.73719,6.35864 -6.71408,10.14032 -6.71408,10.14032" data-paper-data="{&quot;index&quot;:null}" fill="none" stroke="#000000" stroke-width="0.25" stroke-linecap="round"/><path d="M237.9984,124.07003c-1.15115,0.01865 -4.00047,-3.67902 -4.31641,-6.08902c-0.28268,-2.15629 1.39329,-4.4181 4.14552,-4.46267c2.75224,-0.04457 4.68838,0.48759 4.56548,4.73558c-0.10431,3.60514 -1.64235,5.77154 -4.39459,5.81611z" fill="#ffffff" stroke="#000000" stroke-width="1.15" stroke-linecap="butt"/><path d="M241.45003,89.4587c0,0 0.18806,4.55527 0.13891,8.18096c-0.09729,7.1795 -0.68814,31.88767 -0.68814,31.88767l-3.32008,0.06369c0,0 -0.97169,-4.77566 -1.42739,-10.88513c-0.61682,-8.26968 -0.80346,-18.69584 -1.21514,-22.52329c-0.39022,-3.62807 -1.1039,-6.54389 -1.1039,-6.54389" fill="#ffffff" stroke="#000000" stroke-width="1.3" stroke-linecap="round"/><path d="M234.07723,33.82938l32.75112,-32.93979l0.70785,41.54328c0,0 -7.76562,1.77446 -17.92201,-1.52052c-10.92142,-3.54317 -15.53696,-7.08296 -15.53696,-7.08296z" fill="#970000" stroke="none" stroke-width="0" stroke-linecap="butt"/><path d="M234.31531,34.01172l32.33534,-33.05773c0,0 -15.64039,19.70121 -19.03328,25.92694c-1.98474,3.64186 -0.25477,13.4263 -0.25477,13.4263c0,0 -4.91923,-1.99393 -7.19458,-3.0918c-2.05026,-0.98927 -5.85271,-3.20368 -5.85271,-3.20368z" fill="#ec0000" stroke="none" stroke-width="0" stroke-linecap="butt"/><path d="M272.75494,3.17323c0,3.44216 -2.77802,6.23259 -6.20489,6.23259c-3.42687,0 -6.20489,-2.79044 -6.20489,-6.23259c0,-3.44216 2.77803,-6.23259 6.20489,-6.23259c3.42687,0 6.20489,2.79044 6.20489,6.23259z" fill="#ffffff" stroke="#000000" stroke-width="0" stroke-linecap="butt"/><path d="M266.72625,27.84776c-0.545,0.00883 -0.74028,-0.35472 -0.8102,-0.60842c-1.03819,-0.91568 -2.00737,-0.76887 -3.43807,-0.50289c-2.84547,1.24947 -6.9803,3.37448 -9.93551,1.00744c-1.21687,-0.97467 -1.12484,-2.7187 -2.17359,-3.77365c-0.57137,-0.57475 -3.30944,0.19217 -3.8119,0.26139c0,0 -0.24931,0.03436 -0.49273,-0.07574l-0.66626,0.56785c0,0 -0.64345,0.54839 -1.17606,-0.11546c-0.53261,-0.66385 0.11084,-1.21227 0.11084,-1.21227l0.78477,-0.66886c0,0 0.46493,-0.39627 0.93151,-0.10737c0.15214,-0.07685 0.28505,-0.09516 0.28505,-0.09516c1.44681,-0.19928 3.78537,-0.96007 5.09652,0.1171c1.07967,0.887 1.03392,2.93743 2.08464,3.70311c2.57056,1.87317 6.08301,-0.23757 8.48575,-1.25935c2.12178,-0.40404 3.66653,-0.48055 5.28931,1.11895l0.25712,0.76883c0,0 0.01394,0.86097 -0.82122,0.87449z" fill="#ffffff" stroke="none" stroke-width="0.5" stroke-linecap="butt"/><path d="M265.37309,29.28551c0.62261,0.12316 0.63406,0.82939 0.63406,0.82939l-0.00083,0.02585c0.07702,0.27103 0.07634,0.57798 -0.02937,0.91215l-0.01211,0.37646c-0.0965,0.09911 -0.20078,0.18905 -0.3111,0.26998c-0.5093,0.72274 -1.26153,0.8352 -1.86935,0.56304c-1.36163,-0.0371 -2.44327,-0.99193 -1.16621,-2.65098c0.68301,-0.88731 1.96283,-0.88096 2.75491,-0.32591z" fill="#000000" stroke="none" stroke-width="0.5" stroke-linecap="butt"/><path d="M246.40853,28.01021c-0.02965,0.00306 -0.047,0.00333 -0.047,0.00333l-1.10236,-0.52348c-0.11145,-0.49129 -0.56444,-1.02894 -0.33432,-1.47386c0.36575,-0.70712 2.69727,-1.59681 3.11569,-0.07356c0.20279,0.7383 -0.04336,1.93036 -0.75116,2.16644c-0.27519,0.09178 -0.58704,0.04079 -0.88086,-0.09885z" fill="#000000" stroke="none" stroke-width="0.5" stroke-linecap="butt"/><path d="M271.81747,4.55601c0,1.9998 -2.77193,4.23918 -4.7118,4.23918c-1.93986,0 -3.76943,-1.0598 -3.76943,-1.0598c0,0 4.04207,-0.27544 5.56318,-1.38421c1.25409,-0.91413 2.91806,-4.79793 2.91806,-4.79793c0,0 0,1.00296 0,3.00275z" fill="#c3c3c3" stroke="none" stroke-width="0" stroke-linecap="butt"/><path d="M250.99789,19.68988c-0.59714,0.54793 -1.22064,1.05126 -1.91484,1.42947c0,0 -0.49384,0.26474 -0.75115,-0.2446c-0.2573,-0.50935 0.23651,-0.77411 0.23651,-0.77411c0.07054,-0.0371 0.14051,-0.07561 0.20998,-0.11548c-0.01748,-0.03298 -0.0334,-0.06975 -0.04738,-0.11069c-0.18489,-0.54166 0.34038,-0.73175 0.34038,-0.73175l0.66441,-0.24041c0.27737,-0.10018 0.55671,-0.19016 0.83653,-0.27768c0.53042,-0.48424 1.04417,-1.00724 1.56128,-1.51496c-0.43546,-0.62873 -0.6138,-1.23344 -0.27972,-1.70713c0.24735,-0.35072 1.45333,-0.45003 2.73116,-0.3575c0.45378,-0.3235 0.93226,-0.64367 0.99391,-0.6028c0.2364,0.15669 0.39675,0.44147 0.50714,0.80015c1.03647,0.2043 1.86205,0.53511 1.89817,0.95361c0.05955,0.69012 -0.66479,1.25522 -1.62487,1.71077c0.01906,0.54939 0.0435,1.03975 0.12606,1.36153l-0.01716,0.06962l0.02236,-0.00036l0.01116,0.68878c0.00513,0.317 -0.23999,0.57802 -0.54748,0.583c-0.15375,0.00249 -0.29398,-0.05951 -0.39641,-0.16173l-0.80055,-0.79898l0.03484,-0.03709c-0.31888,-0.23626 -0.66228,-0.50279 -1.00042,-0.78706c-0.63378,0.18501 -1.17432,0.32904 -1.47024,0.43633c-0.43827,0.15831 -0.88146,0.29111 -1.32363,0.42905zM253.95925,17.30663c0.32806,-0.13999 0.66609,-0.27985 0.9916,-0.40581c-0.00612,-0.17508 -0.00379,-0.34436 0.00949,-0.50273c-0.16345,0.00044 -0.33332,0.00443 -0.50402,0.00674c-0.2272,0.23458 -0.46176,0.47033 -0.65841,0.65527c0.06533,0.08355 0.11834,0.16154 0.15248,0.22919c0.00294,0.00583 0.00589,0.01159 0.00886,0.01734zM255.19093,18.61951c-0.0155,-0.07232 -0.03097,-0.14684 -0.04614,-0.22309c-0.04476,0.01568 -0.08957,0.03116 -0.13437,0.04649c0.06157,0.05682 0.12204,0.11528 0.18052,0.17661zM252.93411,16.18096c0.02934,0.02599 0.0605,0.0539 0.09302,0.08342c0.00878,-0.00787 0.01757,-0.01572 0.02635,-0.02356c-0.04158,-0.018 -0.08143,-0.03789 -0.11936,-0.05986z" fill="#000000" stroke="none" stroke-width="0.5" stroke-linecap="butt"/><path d="M253.26321,19.50467c0.55677,-0.00902 0.56608,0.56497 0.56608,0.56497l0.01116,0.68878c0.00045,0.04362 -0.00045,0.08708 -0.00266,0.1304c0.02009,0.15236 -0.01926,0.28116 -0.01926,0.28116c-0.01101,0.03462 -0.02203,0.06924 -0.03303,0.10388c-0.02052,0.09481 -0.04624,0.18882 -0.07619,0.28204l0.12794,0.03078l-0.20521,0.91027c-0.05213,0.25652 -0.27078,0.45093 -0.53575,0.45522c-0.30749,0.00498 -0.56094,-0.24797 -0.56607,-0.56497l-0.01116,-0.68878l0.03997,-0.00065l-0.03428,-0.0914c0.06995,-0.2364 0.1399,-0.4728 0.20985,-0.7092c-0.00422,-0.0404 -0.0068,-0.08069 -0.00772,-0.12072l-0.01116,-0.68878c0,0 -0.00929,-0.57399 0.54748,-0.583z" fill="#000000" stroke="none" stroke-width="0.5" stroke-linecap="butt"/><path d="M255.43859,23.15232c0.0343,-0.00604 0.0713,-0.00959 0.11122,-0.01023c0.33151,-0.00537 0.46893,0.19594 0.52586,0.35971c0.02486,0.06351 0.03904,0.13271 0.04021,0.20524c0.00045,0.02813 -0.00107,0.05583 -0.00443,0.08295l-0.0175,0.32861l-0.20769,0.67976c-0.06618,0.23568 -0.27524,0.4096 -0.52569,0.41366c-0.30749,0.00498 -0.56094,-0.24797 -0.56607,-0.56497l-0.01487,-0.91836c0,0 -0.0093,-0.57399 0.54748,-0.583c0.03992,-0.00064 0.07701,0.00171 0.11149,0.00662z" fill="#000000" stroke="none" stroke-width="0.5" stroke-linecap="butt"/><path d="M262.34103,99.96938c0.05562,3.43417 -3.05993,15.64676 -8.74866,15.7389c-5.68873,0.09213 -11.22725,-11.21479 -11.28287,-14.64897c-0.05562,-3.43417 5.54423,0.19728 11.23294,0.10514c5.68872,-0.09213 8.74295,-4.62923 8.79857,-1.19506z" fill="url(#color-57)" stroke="none" stroke-width="0" stroke-linecap="butt"/><path d="M199.85134,113.53305l-0.91633,-56.57799l32.61113,-0.52817l2.63642,35.06126l-5.22584,21.72578c0,0 -4.39916,-0.42803 -6.38938,0.56428c-2.17592,1.08489 -6.15875,5.69211 -6.15875,5.69211c0,0 -3.92356,-3.85625 -6.70758,-4.85457c-2.73416,-0.98043 -9.84967,-1.0827 -9.84967,-1.0827z" fill="#000000" stroke="none" stroke-width="0" stroke-linecap="butt"/><path d="M229.52791,91.58444c-2.38379,9.66017 -16.68152,16.90144 -16.68152,16.90144c0,0 -9.04153,-9.05193 -6.65774,-18.7121c2.38379,-9.66017 15.29018,-16.27047 15.29018,-16.27047c0,0 10.43286,8.42096 8.04907,18.08114z" fill="#ffffff" stroke="#ffffff" stroke-width="1.4" stroke-linecap="butt"/><path d="M228.04399,90.95799c0.09095,5.61543 -5.66798,10.2621 -12.86294,10.37863c-7.19495,0.11653 -13.10134,-4.34122 -13.19228,-9.95665c-0.09095,-5.61543 5.66798,-10.2621 12.86294,-10.37863c7.19495,-0.11653 13.10134,4.34122 13.19228,9.95665z" fill="url(#color-58)" stroke="#000000" stroke-width="1" stroke-linecap="butt"/><path d="M225.33041,111.7695c0.31364,0.24526 0.32083,0.68953 0.32083,0.68953l0.01246,1.07799c-0.22232,1.13446 -1.07197,9.69859 -3.72292,5.7419c-0.24955,-0.37245 0.42486,-2.02633 0.54233,-2.54717c0.42077,-1.86562 1.37389,-4.18423 1.30952,-6.04703c0,0 -0.01394,-0.86096 0.82122,-0.87449c0.83516,-0.01353 0.8491,0.84744 0.8491,0.84744c0.00068,0.22196 -0.04881,0.61634 -0.13253,1.11182z" fill="#000000" stroke="none" stroke-width="0.5" stroke-linecap="butt"/><path d="M216.57188,114.13817c0,0 0.25088,-0.82106 1.04759,-0.56163c0.37921,0.12347 0.52109,0.37418 0.56567,0.60304c0.81098,0.00352 0.82466,0.84758 0.82466,0.84758l-0.03048,0.76494c-0.71869,2.3465 -1.35077,4.4476 -2.72942,6.15075l0.28798,0.24629l-0.93242,1.15911c-0.15017,0.18899 -0.37707,0.3111 -0.63271,0.31524c-0.46124,0.00747 -0.8414,-0.37195 -0.8491,-0.84744c-0.00195,-0.11995 0.01999,-0.23454 0.0613,-0.33897l0.27446,-0.74282c0.38913,-2.49458 1.36361,-5.1439 2.11249,-7.59609z" fill="#000000" stroke="none" stroke-width="0.5" stroke-linecap="butt"/><path d="M211.83347,112.00401c0.16449,-0.05846 0.37078,-0.06087 0.62,0.06253c0.75323,0.37294 0.39221,1.14906 0.39221,1.14906l-0.0754,0.03927c-0.222,2.42648 -0.42506,4.94353 -1.00601,7.30438c-0.29907,1.21541 -0.47381,3.06967 -2.50086,1.91983c-1.67285,-0.94893 -0.68596,-1.98787 -0.41523,-3.09086c0.65548,-2.67038 0.84424,-5.50378 1.45229,-8.20173c0,0 0.18903,-0.83854 1.00263,-0.64285c0.8136,0.19569 0.62458,1.03423 0.62458,1.03423c-0.03203,0.14199 -0.0634,0.28403 -0.09422,0.42614z" fill="#000000" stroke="none" stroke-width="0.5" stroke-linecap="butt"/><path d="M233.11423,101.66658c0.05095,3.14629 0.10192,6.29256 0.15287,9.43883c0.0205,1.26583 0.62467,6.84509 -1.80398,6.70443c-1.65592,-0.09591 -1.04312,-4.1911 -0.94651,-5.05159c0.52822,-4.7045 -0.85447,-11.59536 1.20216,-16.06414l-0.26983,-0.1336l0.15821,-0.34009c-0.48194,-1.88271 -0.89374,-3.78265 -1.13513,-5.72532c0,0 -0.10607,-0.85421 0.72243,-0.96274c0.82851,-0.10851 0.9346,0.74569 0.9346,0.74569c0.15927,1.28323 0.39146,2.54753 0.66843,3.80033l0.10676,-0.87434c0.0452,-0.42478 0.39097,-0.75827 0.81632,-0.76516c0.4192,-0.00679 0.77141,0.30598 0.83794,0.72001l0.1695,0.95043c0.98788,4.24413 1.90363,8.5593 1.97365,12.92779c0.02298,1.43399 0.35976,3.1239 0.03575,4.50606c0.03172,0.48426 0.05162,0.97167 0.05824,1.4626l-0.03926,0.06573l0.03188,0.00495l-0.14112,0.97254c-0.05307,0.41596 -0.39498,0.73997 -0.81418,0.74676c-0.46124,0.00747 -0.84141,-0.37195 -0.84911,-0.84744c-0.00045,-0.0275 0.00036,-0.05472 0.00236,-0.08159l0.11028,-1.70819l0.00821,0.00056c-0.16707,-3.62608 -1.03395,-7.07177 -1.99053,-10.49246zM232.90306,94.54607c0.01236,-0.06 0.02596,-0.12013 0.04092,-0.18074l-0.08471,-0.01107c0.01449,0.06396 0.02909,0.12791 0.04379,0.19183zM234.22422,99.56721c-0.03131,-0.15654 -0.06307,-0.31304 -0.09522,-0.46942c-0.01014,0.00717 -0.02047,0.01409 -0.03094,0.02079c0.04198,0.14956 0.08405,0.29911 0.12618,0.44863z" fill="#000000" stroke="none" stroke-width="0.5" stroke-linecap="butt"/><path d="M220.70883,91.15193c0.03374,2.08315 -2.36448,3.81114 -5.35659,3.85961c-2.99211,0.04846 -5.44503,-1.60097 -5.47877,-3.68412c-0.03374,-2.08315 2.36448,-3.81116 5.35659,-3.85962c2.99211,-0.04846 5.44503,1.60099 5.47877,3.68413z" fill="#000000" stroke="none" stroke-width="0" stroke-linecap="butt"/><path d="M206.05047,103.65225c0,0 -1.02024,-5.62718 -0.55159,-13.42571c0.1458,-2.42609 6.35613,-13.30794 6.35613,-13.30794" fill="none" stroke="#000000" stroke-width="2" stroke-linecap="round"/><path d="M207.53554,84.19296l-2.49403,11.0637" fill="none" stroke="#000000" stroke-width="2" stroke-linecap="round"/><path d="M228.37023,101.835l2.74631,-16.12013" fill="none" stroke="#000000" stroke-width="2" stroke-linecap="round"/><path d="M252.39808,105.01053l-1.17519,7.6741l-1.08599,-9.74263" fill="none" stroke="#000000" stroke-width="1.5" stroke-linecap="round"/><path d="M258.12045,103.0041l-0.88735,13.98487l-0.94998,-12.80687" fill="none" stroke="#000000" stroke-width="1.5" stroke-linecap="round"/><path d="M243.39981,99.60633l0.62218,15.49143l-2.32349,-17.37765" fill="none" stroke="#000000" stroke-width="1.5" stroke-linecap="round"/><path d="M248.66147,103.54005l0.14874,9.18367l-1.60868,-7.62902l-0.58744,9.57835l-1.12318,-12.03854" fill="none" stroke="#000000" stroke-width="1.5" stroke-linecap="round"/><path d="M260.48976,100.28644l-2.46161,19.94303l1.16867,-19.53935" fill="none" stroke="#000000" stroke-width="1.5" stroke-linecap="round"/><path d="M253.8904,105.45438l-0.58124,9.96101l-0.93449,-11.85021" fill="none" stroke="#000000" stroke-width="1.5" stroke-linecap="round"/><path d="M274.53809,65.25182c0.04236,2.61534 -4.25759,16.43268 -6.87382,16.69885c-2.2269,0.22656 -2.59749,-13.02659 -4.8654,-12.04709c-2.05726,0.88852 -0.84214,7.97798 -3.32337,8.01816c-1.97876,0.03205 -2.04937,-8.22724 -2.92059,-6.46083c-6.22856,12.6287 -4.37786,0.14527 -5.84515,-0.99199c-1.64869,-1.27787 -3.752,4.18499 -5.1263,3.55451c-1.00001,-0.45876 -1.54928,-6.81764 -1.57292,-8.27716c-0.11112,-6.86086 6.63263,-12.53337 15.06257,-12.6699c8.42994,-0.13653 15.35385,5.31462 15.46497,12.17548z" fill="#000000" stroke="#000000" stroke-width="1" stroke-linecap="butt"/><path d="M269.45762,65.83896c0,0 -1.14908,-0.88082 -2.59159,-0.23602c-2.36457,1.05695 -5.90618,3.70779 -9.3462,2.49869c-2.57943,-0.90661 -3.92606,-4.69969 -5.26049,-6.66557c-1.5309,-2.25532 -2.85885,-2.64675 -2.85885,-2.64675c0,0 1.23675,0.34356 3.32071,-0.44149c2.33629,-0.8801 5.6897,-2.8501 8.6171,-1.82119c3.24345,1.13999 4.65779,4.78961 5.94825,7.07883c0.91318,1.61994 2.17109,2.23349 2.17109,2.23349z" fill="#ffffff" stroke="#ffffff" stroke-width="1.4" stroke-linecap="butt"/><path d="M264.04976,63.95936c-1.21087,2.87408 -4.39972,4.21391 -7.12249,2.99259c-2.72277,-1.22132 -3.94838,-4.54131 -2.73751,-7.41538c1.21087,-2.87407 4.39972,-4.2139 7.12248,-2.99258c2.72276,1.22132 3.94839,4.5413 2.73752,7.41538z" fill="url(#color-59)" stroke="#000000" stroke-width="1" stroke-linecap="butt"/><path d="M262.11726,61.81885c0.02463,1.52042 -1.20299,2.77318 -2.74197,2.7981c-1.53898,0.02492 -2.80651,-1.18742 -2.83114,-2.70784c-0.02463,-1.52042 1.20299,-2.77317 2.74196,-2.7981c1.53898,-0.02493 2.80652,1.18742 2.83115,2.70784z" fill="#000000" stroke="none" stroke-width="0" stroke-linecap="butt"/><path d="M267.81203,16.4875c0.03205,1.97876 -0.14863,7.25336 -1.29907,7.27199c-0.81254,0.01316 -4.53977,-1.39362 -4.90206,-2.55525c-0.08592,-0.27549 1.78451,0.08782 2.38043,-1.07285c0.44907,-0.87464 -0.34137,-3.32666 -0.34542,-3.57642c-0.0031,-0.19133 -2.15412,-1.80456 -2.08591,-1.9249c0.27276,-0.48128 3.19263,0.95256 3.46839,0.43394c0.36839,-0.69285 0.04823,-2.11601 0.64255,-2.12564c1.15045,-0.01863 2.10903,1.57036 2.14108,3.54913z" fill="#ff0000" stroke="none" stroke-width="0" stroke-linecap="butt"/><path d="M258.96234,36.13336c0.0229,1.41396 1.91008,12.79067 -2.64778,0.71808c-0.25801,-0.6834 -0.65824,3.25263 -1.45492,3.26554c-0.81123,0.01314 -0.77369,-2.37242 -1.42006,-2.73905c-1.18693,-0.67325 -2.78681,0.29066 -2.80949,-1.10962c-0.01978,-1.22127 1.08961,-0.32996 2.01002,-1.06324c0.70962,-0.56535 1.09101,-2.90416 2.09268,-2.92038c2.30088,-0.03726 4.19452,1.68585 4.22955,3.84868z" fill="#ff0000" stroke="none" stroke-width="0" stroke-linecap="butt"/><path d="M267.74933,38.27414c-0.45166,0.72388 -1.1543,0.25755 -1.1543,0.25755l-0.44862,-0.2989c-1.46296,-0.87631 -2.82103,-1.95722 -4.37577,-2.65539c-1.80529,-0.81069 -4.84988,1.19958 -6.47331,1.78252c-1.69207,0.27907 -4.52388,0.79228 -5.89098,-0.63242c-1.65327,-1.72288 -1.8488,-5.0193 -3.79376,-6.38935c-1.75669,-1.23745 -5.46604,0.24599 -7.20932,0.87678c0,0 -0.7879,0.2851 -1.06523,-0.52741c-0.27733,-0.81251 0.51057,-1.0976 0.51057,-1.0976c2.34338,-0.84793 6.34725,-2.27848 8.6773,-0.6928c2.14695,1.46109 2.4654,4.64531 4.05451,6.60651c0.72539,0.89523 3.38711,0.33597 4.306,0.18665c2.21451,-0.80891 5.02791,-2.66456 7.4725,-1.72408c1.65412,0.63636 3.10232,1.8738 4.62293,2.77613l0.51648,0.34163c0,0 0.70263,0.46632 0.25098,1.1902z" fill="#ffffff" stroke="none" stroke-width="0.5" stroke-linecap="butt"/><path d="M254.3104,34.59408c-1.042,0.77005 -1.41912,0.37464 -1.51784,-0.30469c-0.64264,-0.11168 -0.65432,-0.83316 -0.65432,-0.83316l0.16101,-1.36079c0.16601,-0.18062 0.37525,-0.34265 0.60785,-0.47792c0.19562,-0.15835 0.45403,-0.26421 0.72704,-0.31126c1.20737,-0.35125 2.50282,0.05035 1.88338,2.02997c-0.25617,0.81869 -0.71521,1.18782 -1.20713,1.25783z" fill="#000000" stroke="none" stroke-width="0.5" stroke-linecap="butt"/><path d="M190.78333,309.13338l1.41666,-47.33333l2.38766,-18.70722l0.27901,35.12388c0,0 1.78817,-7.66515 2.1997,-11.92843c0.43618,-4.51867 0.34774,-14.46203 0.34774,-14.46203l4.20533,15.70595l-1.14342,-29.47419l2.96936,11.26872l1.42129,12.47332l1,47.33333z" fill="#000000" stroke="none" stroke-width="0" stroke-linecap="butt"/><path d="M274.825,309.71669v-48.5c0,0 3.1118,33.51043 4.37318,30.80749c0.30874,-0.66159 -3.07545,-33.66052 -2.67859,-42.09538c0.2579,-5.48129 3.92942,19.66567 5.29566,22.42031c0.86939,1.75288 1.36516,-8.85557 1.54442,-10.40729c0.42411,-3.67125 2.10148,29.12228 2.50775,27.13054c1.34429,-6.59039 -0.54242,-50.35567 -0.54242,-50.35567l4.5,70z" fill="#000000" stroke="none" stroke-width="0" stroke-linecap="butt"/><path d="M247.325,244.46673c0,1.10457 -0.50368,2 -1.125,2c-0.62132,0 -1.125,-0.89543 -1.125,-2c0,-1.10457 0.50368,-2 1.125,-2c0.62132,0 1.125,0.89543 1.125,2z" fill="#ff0000" stroke="#310000" stroke-width="2" stroke-linecap="butt"/><path d="M257.325,244.34173c0,2.00203 -1.45507,3.625 -3.25,3.625c-1.79493,0 -3.25,-1.62297 -3.25,-3.625c0,-2.00203 1.45507,-3.625 3.25,-3.625c1.79493,0 3.25,1.62297 3.25,3.625z" fill="#ff0000" stroke="#310000" stroke-width="2" stroke-linecap="butt"/><path d="M252.575,266.25838c0,7.755 -2.12664,14.04167 -4.75,14.04167c-2.62336,0 -4.75,-6.28668 -4.75,-14.04167c0,-7.755 2.12664,-14.04166 4.75,-14.04166c2.62336,0 4.75,6.28667 4.75,14.04166z" fill="#ff0000" stroke="#310000" stroke-width="2" stroke-linecap="butt"/><path d="M198.15,243.91568c0,0.89747 -0.7835,1.625 -1.75,1.625c-0.9665,0 -1.75,-0.72753 -1.75,-1.625c0,-0.89747 0.7835,-1.625 1.75,-1.625c0.9665,0 1.75,0.72753 1.75,1.625z" fill="#ff0000" stroke="none" stroke-width="0" stroke-linecap="butt"/><path d="M283.14115,254.00301c0.95081,8.71581 1.05399,15.8542 0.23045,15.94404c-0.82354,0.08984 -2.26194,-6.90289 -3.21276,-15.6187c-0.95081,-8.71581 -1.05399,-15.8542 -0.23045,-15.94404c0.82354,-0.08984 2.26194,6.90289 3.21275,15.6187z" fill="#ff0000" stroke="none" stroke-width="0" stroke-linecap="butt"/><path d="M242.43615,245.91149c-4.05824,0 -8.30853,-14.45126 -11.27185,-9.69468c-4.23221,6.79334 -6.61918,33.01063 -8.72207,28.0061c-6.99114,-16.63772 -1.8473,-74.47326 17.42163,-74.47326c10.24441,0 23.84871,8.41861 23.53013,18.49082c-0.05502,1.73958 1.01613,48.31728 -3.6894,49.08479c-5.38849,0.8789 -9.63981,-44.24332 -9.60141,-40.83689c0.15108,13.4042 9.15214,50.51721 5.0836,54.76625c-2.64955,2.76709 -5.70463,-43.02448 -10.15617,-41.7922c-1.64491,0.45534 -0.6759,16.44907 -2.59444,16.44907z" fill="url(#color-60)" stroke="none" stroke-width="0" stroke-linecap="butt"/><path d="M220.73357,230.30709c0,0 10.48819,-9.64984 13.07702,-12.30944c1.34117,-1.37784 18.44821,-42.33145 18.44821,-42.33145l-1.20283,6.60876c0,0 -9.87826,32.40325 -14.4405,40.71341c-1.43223,2.60881 -8.25617,5.61963 -8.25617,5.61963z" fill="#ff0000" stroke="#310000" stroke-width="2" stroke-linecap="butt"/><path d="M226.23357,240.55709c0,0 10.82089,-9.95594 13.49184,-12.69989c1.38371,-1.42154 19.03339,-43.67423 19.03339,-43.67423l-1.24099,6.81838c0,0 -10.1916,33.43111 -14.89856,42.00487c-1.47766,2.69157 -8.51806,5.79789 -8.51806,5.79789z" fill="#ff0000" stroke="#310000" stroke-width="2" stroke-linecap="butt"/><path d="M228.73357,251.70517c0,0 10.48819,-9.64984 13.07702,-12.30943c1.34117,-1.37784 18.44821,-42.33145 18.44821,-42.33145l-1.20283,6.60875c0,0 -0.56026,24.87786 -2.82915,31.8637c-0.69526,2.14065 -2.54363,-15.0191 -3.32401,-12.69811c-2.89323,8.60495 -6.16532,17.68256 -8.28734,21.54782c-0.29393,0.53539 -2.35644,0.42026 -3.18557,4.69284c-0.98284,5.06462 -0.78746,14.6301 -1.71464,15.18546c-2.10203,1.25907 -3.35595,-14.25867 -3.35595,-14.25867z" fill="#ff0000" stroke="#310000" stroke-width="2" stroke-linecap="butt"/><path d="M203.25529,101.22063c-2.5,0 -2.5,-2.5 -2.5,-2.5v-0.4c0.00986,-5.62258 0.77351,-11.1223 3.79085,-15.94219c0,0 1.34219,-2.10915 3.45134,-0.76696c2.10915,1.34219 0.76696,3.45134 0.76696,3.45134c-2.54118,3.91049 -3.01823,8.6639 -3.00915,13.25781v0.4c0,0 0,2.5 -2.5,2.5z" fill="#000000" stroke="none" stroke-width="0.5" stroke-linecap="butt"/></g></g></svg>