<svg version="1.1" xmlns="http://www.w3.org/2000/svg" xmlns:xlink="http://www.w3.org/1999/xlink" width="36.17311" height="36.17311" viewBox="0,0,36.17311,36.17311"><g transform="translate(-221.91348,-161.9135)"><g data-paper-data="{&quot;isPaintingLayer&quot;:true}" stroke-miterlimit="10" stroke-dasharray="" stroke-dashoffset="0" style="mix-blend-mode: normal"><path d="M229.98316,162.9135h20.03378c3.9166,0 7.06966,3.15307 7.06966,7.06966v20.03379c0,3.91659 -3.15306,7.06966 -7.06966,7.06966h-20.03378c-3.91659,0 -7.06967,-3.15307 -7.06967,-7.06966v-20.03379c0,-3.91659 3.15308,-7.06966 7.06967,-7.06966z" fill="#ffffff" fill-rule="evenodd" stroke="#000000" stroke-width="2" stroke-linecap="round" stroke-linejoin="round"/><g fill="#000000" fill-rule="nonzero" stroke="#ffffff" stroke-width="0" stroke-linejoin="miter"><g><path d="M245.91771,192.46885l-3.67501,-8.93703l2.17464,-0.89424l3.14123,7.63896l0.16145,0.95427l-0.889,-0.76754l0.82331,1.12916l-0.82954,-0.60399l0.5118,0.81418l-0.97816,-0.71176l0.34736,1.07022l-0.6776,-0.78713z" stroke-linecap="butt"/><path d="M245.61601,185.06956l-2.49743,1.02697" stroke-linecap="round"/><path d="M245.07656,183.65177l-2.49743,1.02697" stroke-linecap="round"/><path d="M244.13534,188.80129l2.49743,-1.02697" stroke-linecap="round"/><path d="M243.59589,187.38351l2.49743,-1.02697" stroke-linecap="round"/><path d="M244.70862,190.23438l2.49743,-1.02697" stroke-linecap="round"/></g><g stroke-linecap="butt"><path d="M240.4403,188.93049c-0.03363,-0.01628 -0.00613,-0.04765 -0.00613,-0.04765l0.01068,-0.01218c0.09336,-0.10647 0.26314,-0.23045 0.30986,-0.35267c0.07056,-0.1846 -0.22818,-0.37333 -0.28505,-0.51725c-0.02501,-0.16422 0.28556,-0.32309 0.42512,-0.46655c0.20931,-0.21518 0.42023,-0.5696 0.56537,-0.81249c-0.03405,-0.26755 -0.2174,-0.35232 -0.3098,-0.58185c-0.08266,-0.20534 -0.04603,-0.42462 -0.13212,-0.63262c-0.15349,-0.37085 -0.46055,-0.6007 -0.36675,-1.06132c0,0 0.00719,-0.03531 0.05003,-0.03675c0.04284,-0.00144 0.03564,0.03387 0.03564,0.03387c-0.09069,0.44538 0.21534,0.67054 0.3641,1.02993c0.09065,0.21901 0.00847,0.55698 0.17357,0.73753c0.16234,0.17754 0.25077,0.25779 0.27058,0.51028c-0.14865,0.26934 -0.40614,0.68025 -0.65091,0.90984c-0.09411,0.08827 -0.36651,0.24477 -0.34003,0.34093c0.0671,0.17148 0.36001,0.33122 0.28333,0.55279c-0.04596,0.13279 -0.22526,0.26423 -0.32569,0.37888l-0.01068,0.01218c0,0 -0.0275,0.03138 -0.06113,0.0151z"/><path d="M242.77883,189.27904c-0.04153,0.01707 -0.05426,-0.01387 -0.05426,-0.01387l-0.02529,-0.0615c-0.05485,-0.13346 -0.09934,-0.28908 -0.08392,-0.44123c0.02012,-0.18611 0.14465,-0.38364 0.16175,-0.56175c0.02675,-0.27873 -0.24391,-0.5002 -0.42658,-0.67442c-0.3456,-0.33437 -0.15362,-0.93209 -0.61,-1.17262c-0.34448,-0.22832 -0.58703,-0.76127 0.08173,-1.04323c0,0 0.04154,-0.01708 0.05426,0.01387c0.01273,0.03094 -0.02881,0.04802 -0.02881,0.04802c-0.61314,0.24369 -0.33608,0.72932 -0.04723,0.92126c0.47333,0.24902 0.26965,0.841 0.621,1.18094c0.19547,0.18643 0.47072,0.4201 0.44223,0.71706c-0.01725,0.17975 -0.14225,0.37535 -0.1618,0.56235c-0.01603,0.14279 0.02903,0.29054 0.08043,0.41561l0.02529,0.06149c0,0 0.01273,0.03094 -0.02881,0.04802z"/><path d="M244.82259,189.12698c0.00614,0.03322 -0.03686,0.04529 -0.03686,0.04529l-0.08734,0.02395c-0.41309,-0.00265 -0.56546,-0.02566 -0.69373,-0.33761c-0.14729,-0.3582 -0.19347,-0.93279 -0.06519,-1.34864c-0.09978,-0.46392 -0.47172,-0.74152 -0.64462,-1.1596c-0.13855,-0.33693 -0.34178,-0.80307 -0.01286,-1.1788c0,0 0.0275,-0.03138 0.06112,-0.0151c0.03363,0.01628 0.00613,0.04765 0.00613,0.04765c-0.30814,0.35123 -0.10082,0.79722 0.02867,1.1121c0.17403,0.42582 0.55859,0.70493 0.64834,1.18235c-0.11825,0.41527 -0.08569,0.96806 0.06146,1.3259c0.11851,0.2882 0.23322,0.2943 0.61417,0.30205l0.07157,-0.02068c0,0 0.043,-0.01208 0.04913,0.02114z"/><path d="M246.16801,188.53237c-0.04209,0.01557 -0.0528,-0.01616 -0.0528,-0.01616l-0.01784,-0.05396c0.00085,-0.19168 -0.00315,-0.35505 0.03827,-0.55573c0.06872,-0.26226 0.13433,-0.52019 0.23921,-0.78081c0.01325,-0.0329 0.1674,-0.30997 0.16638,-0.3118c-0.05044,-0.09091 -0.2608,-0.01955 -0.37389,-0.05872c-0.38673,-0.13461 -0.38137,-0.36908 -0.51111,-0.68459c-0.05068,-0.12326 -0.08171,-0.36215 -0.248,-0.40062c-0.31351,-0.08094 -1.28043,-0.25574 -1.04792,-0.67371c0,0 0.02037,-0.03396 0.05873,-0.02415c0.03836,0.0098 0.018,0.04376 0.018,0.04376c-0.22178,0.33234 0.78085,0.52662 1.01211,0.58623c0.49729,0.13828 0.24921,0.90744 0.76538,1.08711c0.06104,0.02136 0.38553,0.04621 0.40558,0.08251c0.01722,0.03119 -0.11511,0.24875 -0.13386,0.29325c-0.11823,0.28079 -0.1911,0.55749 -0.26534,0.84046c-0.0399,0.19362 -0.03682,0.34927 -0.03733,0.53389l0.01581,0.04573c0,0 0.01071,0.03173 -0.03138,0.0473z"/><path d="M249.08593,187.09286c-0.04099,0.01829 -0.05536,-0.01194 -0.05536,-0.01194l-0.00519,-0.01508c-0.04954,-0.04746 -0.10363,-0.07606 -0.16717,-0.11106c-0.454,-0.19054 -0.79034,-0.60543 -1.25983,-0.74945c-0.12982,-0.06263 -0.31408,-0.10472 -0.39671,-0.21128c-0.11747,-0.15149 -0.04971,-0.29884 -0.02738,-0.46444c0.0159,-0.11792 -0.14016,-0.35857 -0.20763,-0.45014c-0.70979,-0.09713 -0.65573,-0.54751 -0.84961,-1.01527c-0.16351,-0.36591 -0.57169,-0.61355 -0.72286,-0.97723c0,0 -0.01273,-0.03095 0.02881,-0.04802c0.04153,-0.01708 0.05426,0.01387 0.05426,0.01387c0.14752,0.36314 0.55948,0.61149 0.72254,0.97648c0.19909,0.48022 0.13125,0.86349 0.8244,0.98872c0.08696,0.10233 0.25305,0.36173 0.23653,0.50407c-0.01783,0.1536 -0.09382,0.2829 0.01717,0.42604c0.07495,0.09665 0.25303,0.13521 0.37066,0.19234c0.4721,0.15349 0.80533,0.55793 1.26459,0.75154c0.0694,0.0381 0.12845,0.07039 0.183,0.12187l0.01643,0.03045c0,0 0.01437,0.03024 -0.02662,0.04853z"/><path d="M249.93117,185.23249c0.01273,0.03094 -0.02881,0.04802 -0.02881,0.04802l-0.0826,0.03397c-0.09613,0.03904 -0.19663,0.06278 -0.29636,0.08743c-0.70254,0.16884 -0.97024,-0.33909 -1.11597,-0.75239c-0.43422,-0.11977 -0.97963,-0.45353 -1.25904,-0.73727c-0.2979,-0.30341 -0.62236,-0.54568 -0.78004,-0.92915c0,0 -0.01273,-0.03094 0.0288,-0.04802c0.04153,-0.01708 0.05426,0.01387 0.05426,0.01387c0.15488,0.37665 0.47618,0.61433 0.7691,0.91267c0.29669,0.30315 0.81996,0.57212 1.25587,0.73429c0.16655,0.36693 0.35213,0.91374 1.03836,0.73861c0.09385,-0.02318 0.18939,-0.04492 0.27973,-0.08199l0.08245,-0.03391c0,0 0.04153,-0.01707 0.05425,0.01387z"/><path d="M248.16502,188.572c-0.04342,0.00621 -0.0421,-0.02858 -0.0421,-0.02858l0.00008,-0.00203c0.02108,-0.44967 -0.44435,-0.83747 -0.60218,-1.22128c-0.16176,-0.39338 -0.64487,-0.74951 -0.67372,-1.172c-0.07348,-0.57009 -0.2063,-0.70175 -0.81991,-0.91817c-0.50033,-0.17686 -0.62133,-0.47211 -0.78927,-0.88052c0,0 -0.01273,-0.03094 0.02881,-0.04802c0.04153,-0.01708 0.05426,0.01387 0.05426,0.01387c0.16221,0.39446 0.27058,0.6784 0.75373,0.84881c0.63403,0.22415 0.78331,0.37439 0.85902,0.96428c0.02668,0.41268 0.51162,0.77204 0.67016,1.15759c0.16313,0.39671 0.61995,0.77925 0.60595,1.24302l-0.00008,0.00203c0,0 -0.00131,0.0348 -0.04473,0.04101z"/><path d="M247.01506,189.25197c-0.0205,0.03392 -0.05879,0.024 -0.05879,0.024l-0.03595,-0.00932c-0.32397,-0.08393 -0.82968,-0.1922 -0.99399,-0.42795c-0.17012,-0.41112 -0.28555,-0.85044 -0.45986,-1.27433c-0.07031,-0.17099 -0.1197,-0.37038 -0.24282,-0.51604c-0.15937,-0.18852 -0.51483,-0.26525 -0.72097,-0.42255c-0.14964,-0.35048 -0.38959,-0.73154 -0.30613,-1.14538c0,0 0.00719,-0.03531 0.05003,-0.03675c0.04284,-0.00144 0.03564,0.03388 0.03564,0.03388c-0.08244,0.40062 0.16218,0.75963 0.29638,1.10193c0.2105,0.15202 0.55876,0.23176 0.71912,0.42034c0.12752,0.14997 0.17927,0.354 0.25181,0.53041c0.17355,0.42204 0.28998,0.85922 0.45747,1.26933c0.15407,0.21893 0.65162,0.32086 0.95431,0.39927l0.03595,0.00932c0,0 0.0383,0.00991 0.0178,0.04384z"/><path d="M243.22702,187.3571c0.01273,0.03094 -0.02881,0.04802 -0.02881,0.04802l-0.08147,0.0335c-0.05785,0.02379 -0.11577,0.04739 -0.17375,0.07086c-0.25989,0.03265 -0.24913,-0.04828 -0.40997,-0.13556c-0.08565,-0.04648 -0.25521,-0.02336 -0.35955,-0.05699c-0.27117,-0.08739 -0.37124,-0.29473 -0.46023,-0.51114c-0.20329,-0.49437 -0.61696,-0.55378 -1.06309,-0.87193c-0.38257,-0.27366 -0.51135,-0.66927 -0.11905,-1.11689c0,0 0.0275,-0.03138 0.06112,-0.0151c0.03363,0.01628 0.00613,0.04765 0.00613,0.04765c-0.36556,0.41712 -0.23774,0.77396 0.1163,1.02721c0.45305,0.32514 0.87338,0.38843 1.08165,0.8949c0.06557,0.15944 0.12889,0.32217 0.2878,0.42901c0.14007,0.09417 0.36979,0.03781 0.50619,0.11169c0.14828,0.08031 0.10691,0.15528 0.34252,0.13015c0.05275,-0.0221 0.10559,-0.04401 0.15848,-0.06576l0.08146,-0.03349c0,0 0.04153,-0.01708 0.05425,0.01386z"/><path d="M243.25412,188.80641c-0.03588,-0.0135 -0.0114,-0.04617 -0.0114,-0.04617l0.00591,-0.00789c0.06692,-0.08929 0.13595,-0.17534 0.21011,-0.26158c0.08923,-0.07351 0.13551,-0.18723 0.2257,-0.25372c0.22106,-0.16298 0.5766,-0.17364 0.81628,-0.31413c0.15072,-0.08835 0.26296,-0.29823 0.37587,-0.41892c0.06316,-0.04795 0.21113,-0.14081 0.22478,-0.21356c0.02252,-0.12003 -0.14968,-0.35047 -0.19382,-0.46026c-0.07843,-0.19506 -0.05323,-0.41065 -0.01602,-0.62837c0.09238,-0.54037 0.15059,-0.92073 -0.04715,-1.40159c-0.15855,-0.38557 -0.12794,-0.77769 -0.13809,-1.20069c0,0 -0.00083,-0.03445 0.0426,-0.04236c0.04342,-0.00792 0.04425,0.02653 0.04425,0.02653c0.00999,0.41647 -0.02177,0.80285 0.1343,1.18237c0.20134,0.48963 0.14408,0.88129 0.05011,1.43096c-0.03543,0.20718 -0.06215,0.41372 0.01317,0.59929c0.04953,0.12205 0.22215,0.3536 0.1965,0.49032c-0.01784,0.09504 -0.16781,0.19526 -0.25185,0.25848c-0.12229,0.13184 -0.23152,0.33386 -0.3954,0.43297c-0.23292,0.14087 -0.59083,0.14882 -0.80496,0.30677c-0.08367,0.06172 -0.12985,0.17418 -0.21426,0.24401c-0.07041,0.08267 -0.13637,0.16511 -0.20035,0.25049l-0.00591,0.00789c0,0 -0.02448,0.03267 -0.06036,0.01917z"/><path d="M244.24895,187.12469c-0.01245,0.03522 -0.05406,0.03226 -0.05406,0.03226l-0.01616,-0.00115c-0.31567,-0.0227 -0.53572,-0.15229 -0.6971,-0.35195c-0.05675,-0.1365 -0.09116,-0.3069 -0.17562,-0.4295c-0.03869,-0.05616 -0.28438,-0.10087 -0.36501,-0.14723c-0.17298,-0.09945 -0.27693,-0.26384 -0.38109,-0.41306c-0.15601,-0.37701 -0.5929,-0.5811 -0.74244,-0.94477c0,0 -0.01273,-0.03094 0.02881,-0.04802c0.04153,-0.01708 0.05426,0.01387 0.05426,0.01387c0.14833,0.36072 0.58635,0.56342 0.74004,0.93975c0.08622,0.12234 0.17135,0.26244 0.29906,0.35724c0.11121,0.08255 0.36805,0.10498 0.44138,0.19477c0.09338,0.11432 0.12572,0.30164 0.18036,0.43617c0.1502,0.18283 0.35156,0.30188 0.64226,0.32229l0.01616,0.00115c0,0 0.04161,0.00295 0.02917,0.03817z"/><path d="M246.02135,186.94422c-0.03099,-0.01906 -0.00057,-0.04883 -0.00057,-0.04883l0.04595,-0.04443c0.07333,-0.12517 0.16155,-0.20723 0.27123,-0.31707c0.10684,-0.09009 0.26194,-0.11327 0.34051,-0.17563c0.16351,-0.12975 0.20213,-0.27311 0.30205,-0.41602c0.14463,-0.20685 0.37125,-0.31203 0.4076,-0.56176c0.06789,-0.45342 -0.64051,-0.65876 -0.71613,-1.11233c-0.0363,-0.22082 0.05611,-1.12579 0.47956,-1.1454c0,0 0.04284,-0.00143 0.03564,0.03388c-0.00719,0.03531 -0.05003,0.03675 -0.05003,0.03675c-0.31895,0.00509 -0.4067,0.88382 -0.37901,1.0516c0.07607,0.4681 0.78836,0.64758 0.7162,1.12949c-0.04066,0.26494 -0.26991,0.37293 -0.41959,0.59127c-0.10005,0.14597 -0.1494,0.31842 -0.3296,0.44304c-0.10892,0.07533 -0.20666,0.06371 -0.32759,0.16546c-0.10728,0.10771 -0.18773,0.18415 -0.26063,0.30572l-0.05418,0.05353c0,0 -0.03043,0.02977 -0.06142,0.01072z"/><path d="M246.24756,188.05613c-0.01273,-0.03094 0.02881,-0.04802 0.02881,-0.04802l0.0276,-0.01135c0.08436,-0.03466 0.15622,-0.07609 0.23514,-0.12053c0.60064,-0.24786 0.73576,-0.80415 0.82416,-1.22998c0.12666,-0.50045 0.83905,-0.77131 0.8253,-1.32022c-0.00971,-0.40553 -0.08558,-0.83346 -0.00138,-1.24696c0,0 0.00719,-0.03531 0.05003,-0.03675c0.04284,-0.00144 0.03564,0.03388 0.03564,0.03388c-0.08329,0.40906 -0.00704,0.83272 0.00257,1.23399c0.01298,0.56628 -0.69968,0.83199 -0.82691,1.33512c-0.10544,0.44732 -0.23985,1.02869 -0.87717,1.28977c-0.08086,0.04581 -0.1552,0.08769 -0.24181,0.12353l-0.02772,0.01139c0,0 -0.04153,0.01708 -0.05425,-0.01387z"/><path d="M243.01262,188.80345c-0.00719,0.03531 -0.05003,0.03675 -0.05003,0.03675l-0.06043,0.00194c-0.22947,0.03324 -0.68065,0.09781 -0.84315,-0.03135c-0.10113,-0.08039 -0.13525,-0.31357 -0.18622,-0.42635c-0.2056,-0.17457 -0.57789,-0.24595 -0.75114,-0.44008c-0.12225,-0.13699 -0.15764,-0.3828 -0.22997,-0.54798c-0.25825,-0.35733 -0.67971,-0.72676 -0.84561,-1.12534c-0.09688,-0.2356 -0.20088,-0.47639 -0.22638,-0.73613c-0.01014,-0.1033 0.00791,-0.28913 -0.12814,-0.317c0,0 -0.03837,-0.0098 -0.01799,-0.04376c0.02037,-0.03396 0.05873,-0.02415 0.05873,-0.02415c0.25928,0.07536 0.30045,0.85249 0.39684,1.08689c0.16064,0.39605 0.58841,0.76458 0.84276,1.11951c0.07124,0.16088 0.10475,0.40631 0.22378,0.53938c0.17286,0.19325 0.54922,0.26631 0.75354,0.443c0.19796,0.41746 0.31711,0.52847 0.96128,0.43311l0.06647,-0.00231c0,0 0.04284,-0.00144 0.03565,0.03387z"/><path d="M241.66549,188.95779c-0.01273,-0.03094 0.0288,-0.04802 0.0288,-0.04802l0.04651,-0.01831c0.27481,-0.16855 0.53105,-0.34415 0.78929,-0.53089c0.22458,-0.19099 0.69124,-0.49118 0.66899,-0.76022c-0.01331,-0.16091 -0.13972,-0.33661 -0.20015,-0.48358c-0.17522,-0.42612 0.01372,-0.90418 -0.1683,-1.34797c-0.08721,-0.34836 0.55549,-0.82097 0.63341,-1.20936c0,0 0.00719,-0.03532 0.05003,-0.03675c0.04284,-0.00144 0.03565,0.03388 0.03565,0.03388c-0.07412,0.35917 -0.71546,0.87342 -0.6348,1.18136c0.18254,0.44271 -0.0068,0.92186 0.16707,1.34469c0.0626,0.15226 0.18997,0.33165 0.20379,0.49875c0.02489,0.30101 -0.44948,0.61026 -0.70248,0.82499c-0.2615,0.18948 -0.52153,0.36753 -0.80004,0.53836l-0.06352,0.02694c0,0 -0.04153,0.01707 -0.05426,-0.01387z"/><path d="M245.47737,188.68437c0.01273,0.03094 -0.02881,0.04802 -0.02881,0.04802l-0.09241,0.03703c-0.4773,0.01888 -0.40824,-0.27615 -0.52558,-0.56152c-0.08512,-0.21958 -0.31147,-0.38185 -0.38541,-0.63621c-0.05552,-0.191 -0.01211,-0.40056 -0.07432,-0.58862c-0.15653,-0.47319 -0.53956,-0.66908 -0.62896,-1.14399c0.00699,-0.18698 0.08808,-0.41589 0.06407,-0.59435c-0.02741,-0.20379 -0.14366,-0.35458 -0.1375,-0.57289c0,0 0.00107,-0.03476 0.04449,-0.04117c0.04343,-0.00642 0.04236,0.02834 0.04236,0.02834c-0.00716,0.21653 0.10983,0.36165 0.13705,0.56406c0.02424,0.18023 -0.05577,0.40907 -0.06374,0.59755c0.09041,0.46676 0.47063,0.66034 0.62652,1.13159c0.06257,0.18915 0.01919,0.39887 0.07486,0.59037c0.075,0.25801 0.28808,0.40899 0.38365,0.63116c0.10442,0.25393 0.02701,0.53706 0.43684,0.52759l0.07264,-0.03084c0,0 0.04153,-0.01708 0.05425,0.01387z"/><path d="M247.06144,187.80556c-0.04153,0.01708 -0.05425,-0.01387 -0.05425,-0.01387l-0.0248,-0.0603c-0.03414,-0.08303 -0.06831,-0.16605 -0.10235,-0.24913c-0.08735,-0.38138 -0.12272,-1.00879 -0.60613,-1.13282c-0.65962,0.03835 -0.95697,-0.32681 -1.30165,-0.67318c-0.34126,-0.25503 -0.4348,-0.6839 -0.58491,-1.04895c0,0 -0.01273,-0.03095 0.02881,-0.04802c0.04153,-0.01708 0.05426,0.01387 0.05426,0.01387c0.14703,0.35753 0.23744,0.77927 0.57066,1.02937c0.34083,0.34101 0.61527,0.68619 1.25986,0.65665c0.52719,0.13423 0.56982,0.75733 0.66359,1.17285c0.03373,0.0817 0.06731,0.16346 0.10092,0.24521l0.0248,0.0603c0,0 0.01273,0.03095 -0.02881,0.04802z"/><path d="M248.27872,187.11725c-0.02996,-0.02004 0.0015,-0.04915 0.0015,-0.04915l0.03453,-0.02482c-0.17585,-0.30259 -0.49049,-0.71713 -0.47305,-1.08573c0.01122,-0.20337 0.10616,-0.41298 0.13217,-0.61592c0.02919,-0.22783 -0.198,-0.53 -0.28008,-0.73044c-0.11197,-0.27343 -0.21935,-0.54569 -0.19488,-0.85976c0.00723,-0.09279 0.10384,-0.23347 0.06668,-0.31123c0,0 -0.01273,-0.03094 0.0288,-0.04802c0.04153,-0.01707 0.05426,0.01387 0.05426,0.01387c0.03752,0.10138 -0.0543,0.22305 -0.06305,0.33523c-0.02381,0.30567 0.08232,0.56979 0.19127,0.83582c0.08726,0.21308 0.31068,0.51424 0.28346,0.75675c-0.02259,0.20119 -0.1217,0.41039 -0.13184,0.61212c-0.02362,0.39896 0.35532,0.74254 0.47029,1.10079l-0.05866,0.06142c0,0 -0.03145,0.02912 -0.0614,0.00907z"/><path d="M245.81272,189.85277c-0.04155,0.01703 -0.05422,-0.01394 -0.05422,-0.01394l-0.01867,-0.04946c0.04561,-0.18807 0.09943,-0.40113 0.06652,-0.58168c-0.03248,-0.18744 -0.02621,-0.43382 0.08348,-0.63496c0.05265,-0.09655 0.26116,-0.19456 0.31797,-0.29922c-0.09308,0.27979 -0.37887,0.55097 -0.31536,0.91051c0.03073,0.18208 -0.0128,0.39826 -0.0658,0.58793l0.01497,0.03282c0,0 0.01266,0.03097 -0.02889,0.04801zM246.22214,188.2239c0.00001,-0.00034 0.00001,-0.00068 0.00001,-0.00102c0.00054,-0.09988 -0.09486,-0.24546 -0.15172,-0.32578c-0.24208,-0.34531 -0.24223,-0.91079 -0.69683,-1.10205c-0.32014,-0.1556 -0.75721,-0.59958 -0.88029,-0.89329c0,0 -0.01273,-0.03094 0.02881,-0.04802c0.04153,-0.01708 0.05425,0.01387 0.05425,0.01387c0.11221,0.27898 0.54645,0.71739 0.85053,0.86389c0.47292,0.19879 0.46883,0.76516 0.72116,1.12158c0.09184,0.13101 0.10295,0.25218 0.07407,0.37081zM246.2078,188.2735c0.00549,-0.0165 0.0103,-0.03302 0.01435,-0.04959c-0.00029,0.01671 -0.00546,0.03324 -0.01435,0.04959z"/></g><path d="M245.66321,169.79502c0.15963,-0.07115 0.46667,0.03717 0.6429,0.1357l0.01092,-0.01972l0.07825,0.04335c0.00876,0.00476 0.016,0.01244 0.02008,0.02237c0.00331,0.00805 0.00411,0.01652 0.00276,0.02452c0.00231,-0.00041 0.00462,-0.00082 0.00692,-0.00124c0.10028,-0.01803 0.25514,-0.09762 0.37442,-0.11447c0.01581,-0.00632 0.03162,-0.01272 0.04741,-0.0192v0v0l0.07807,-0.03207v0c0.02294,-0.00942 0.04917,0.00153 0.05859,0.02446c0.00943,0.02294 -0.00152,0.04917 -0.02445,0.05861l-0.08306,0.03416l-0.00001,-0.00002c-0.02327,0.00953 -0.04656,0.01887 -0.06987,0.02804c-0.10395,0.05531 -0.21696,0.09313 -0.33518,0.12078c-0.04181,0.01385 -0.08368,0.02733 -0.12562,0.04052c0.00264,0.01764 0.00512,0.03528 0.00745,0.05295c0.00809,0.03246 0.01159,0.06865 0.01224,0.10611c0.02104,0.21001 0.02463,0.42154 0.03414,0.63277c0.00547,0.13332 -0.00616,0.31945 -0.03196,0.52382c0.05856,-0.06623 0.18946,-0.18289 0.25263,-0.12323c0.0601,0.05675 -0.03159,0.14865 -0.16138,0.20251c-0.04041,0.05477 -0.07769,0.1114 -0.11176,0.16992c0.15227,0.2411 0.35506,0.47477 0.45579,0.68856c0.20633,-0.33883 0.28635,0.14887 0.40175,0.19171c0.1092,0.04054 0.35431,0.63118 0.40649,0.88854c0.31639,-0.50553 0.46852,0.07995 0.62347,0.45676c0.02617,0.06362 0.10141,0.37656 0.11516,0.39038c0.03626,0.03643 0.10004,-0.0559 0.14893,-0.04c0.12166,0.03955 0.11598,0.20808 0.21416,0.27255c0.14939,0.0981 0.12486,0.45797 -0.09792,0.46075c-0.08749,0.00109 -0.14492,-0.11345 -0.2319,-0.12298c-0.06723,-0.04493 -0.11509,-0.19563 -0.18564,-0.15614c-0.05162,0.0289 -0.03957,0.23766 -0.19618,0.15094c-0.07521,-0.04164 -0.00136,-0.24726 -0.08721,-0.24272c-0.09992,0.00528 -0.15035,0.13511 -0.2388,0.18191c-0.04396,0.02326 -0.10103,-0.00647 -0.15506,-0.05716c0.08333,0.14376 0.18668,0.28256 0.30012,0.38562c0.09011,0.10039 0.44164,0.14435 0.39893,0.35051c-0.05659,0.27313 -0.98967,0.2374 -1.21833,0.33122c-0.58818,0.16842 -1.2199,0.28037 -1.75818,0.58299c-0.41816,0.36413 -1.18976,0.57961 -1.71612,0.75757c-0.59975,0.20263 -1.19293,0.39448 -1.8086,0.54351c-0.61749,0.14946 -1.21856,0.24701 -1.85197,0.28863c-0.69212,0.04549 -1.14309,0.11366 -1.78035,0.37562c-0.63911,0.26272 -1.14855,0.37796 -1.83975,0.30402c-0.21646,-0.02332 -0.42541,-0.20433 -0.64993,-0.1662c-0.16685,0.02835 -0.12085,0.24669 -0.2364,0.32705c-0.20914,0.14543 -0.47307,0.02863 -0.63943,0.10965c-0.12433,0.04828 -0.31872,0.25077 -0.47223,0.22558c-0.11851,-0.01944 -0.10665,-0.1624 -0.15723,-0.2354c-0.0699,-0.10089 -0.2221,-0.08643 -0.32203,-0.10358c-0.0296,-0.00509 -0.19779,0.15107 -0.32387,0.24395l0.01653,0.04021l-0.08305,0.03416v0c-0.02294,0.00943 -0.04918,-0.00152 -0.05861,-0.02445c-0.00423,-0.01028 -0.00436,-0.02123 -0.00115,-0.03102l0.0264,-0.08256c0.00056,-0.02562 -0.36629,-0.3981 -0.39226,-0.59463c-0.0442,-0.3344 0.39824,-0.29798 0.37796,-0.59026c0.07507,-0.32465 0.26575,-0.44452 0.48261,-0.69886c0.04886,-0.0573 0.10609,-0.28674 0.02431,-0.33977c-0.03822,-0.02479 -0.40557,0.11896 -0.46965,0.13867c-0.04498,0.01381 -0.25732,0.11285 -0.2919,0.08743c-0.06131,-0.04505 0.01525,-0.34182 0.03093,-0.40266c0.09789,-0.37964 0.28618,-0.77594 0.13112,-1.15302c-0.05828,-0.14175 -0.13108,-0.28924 -0.19967,-0.43902c-0.15232,-0.09645 -0.28547,-0.28201 -0.33658,-0.40042c-0.1682,-0.39098 -0.16975,-0.86047 -0.10627,-1.30444c-0.25778,0.10988 -0.58865,0.22277 -0.69893,0.09065c-0.14207,-0.17021 0.48684,-0.59963 0.5997,-0.69688c0.08637,-0.06818 0.17267,-0.13588 0.25929,-0.20286c0.04637,-0.28194 0.10824,-0.67116 0.2502,-0.80275c-0.13891,-0.27282 -0.25969,-0.56983 -0.20397,-0.68765c0.07942,-0.16796 0.33439,-0.04121 0.49867,0.06354c-0.02724,-0.08303 -0.04656,-0.15482 -0.05662,-0.19155c-0.03807,-0.139 -0.17101,-0.93409 0.15894,-0.84733c0.04829,0.0127 0.10482,0.07351 0.15933,0.15677c0.00527,-0.11371 0.03385,-0.21012 0.08035,-0.29323c-0.00223,-0.00087 -0.00447,-0.00175 -0.0067,-0.00264c-0.53167,-0.21109 -0.23327,-0.54265 0.1482,-0.66216c0.15228,-0.04771 0.53882,-0.10601 0.86595,-0.11611c0.12555,-0.08361 0.25722,-0.16874 0.39385,-0.24753c-0.00375,-0.00393 -0.00686,-0.00861 -0.00904,-0.01394c-0.00943,-0.02294 0.00152,-0.04918 0.02446,-0.05861c0.2215,-0.09108 0.51203,-0.21055 0.73353,-0.30163c0.12078,-0.04966 0.41518,-0.13051 0.67596,-0.2315c0.07039,-0.03402 0.1451,-0.06692 0.22206,-0.09707c0.08983,-0.04554 0.16378,-0.09385 0.20796,-0.14418c-0.27442,-0.06122 -0.6389,-0.17935 -0.55392,-0.35881c0.07335,-0.1549 0.86181,-0.12985 1.01624,-0.13812c0.02867,-0.00153 0.05699,-0.00197 0.085,-0.00146c0.42587,-0.20458 0.88936,-0.42856 1.30561,-0.44702c0.20112,-0.00063 1.08469,0.1424 1.03821,0.50983c0.07797,-0.00576 0.14483,-0.02667 0.18929,-0.07358c0.13257,-0.13987 -0.601,-0.85913 0.05838,-0.75622c0.36618,0.10789 0.76038,0.26151 1.08371,0.46466c0.03896,0.02449 0.31802,0.22748 0.34674,0.21226c0.06321,-0.03351 0.02394,-0.14132 0.02877,-0.2127c-0.06476,-0.56371 0.25009,-0.19966 0.43344,0.0783c0.01655,0.02509 0.10161,0.29434 0.11295,0.29569c0.11305,0.01344 0.43545,-0.19014 0.55393,-0.23585c0.46583,-0.1137 0.82442,0.00109 1.09579,0.38733c0.06541,0.09311 0.12775,-0.06804 0.20871,-0.02737c0.03625,0.01821 0.12336,0.26702 0.1452,0.3167c0.01089,0.01118 0.0213,0.02308 0.03124,0.0356c0.01029,-0.00164 0.02056,-0.00321 0.0308,-0.00471c0.04911,-0.00723 0.3429,-0.09714 0.3692,-0.07938c0.12795,0.08641 -0.06699,0.44179 -0.1756,0.65919c0.01068,0.0389 0.02131,0.07622 0.03242,0.11098c0.02197,0.06879 0.04194,0.12916 0.02134,0.20301c-0.01259,0.04511 -0.12126,0.13368 -0.07739,0.11726c0.27013,-0.10108 0.35756,-0.11079 0.6436,-0.08586c0.06821,0.04012 0.43472,0.33346 0.43839,0.37548c0.01259,0.14405 -0.14266,0.41715 -0.29999,0.64196c0.0037,0.00627 0.0073,0.01267 0.01079,0.01922c0.03079,0.05773 -0.00131,0.12168 -0.04851,0.18259c0.07768,-0.03195 0.15536,-0.06389 0.23303,-0.09583c0.00501,-0.00205 0.00996,-0.00404 0.01484,-0.00596c0.08793,-0.09546 0.14322,-0.20242 0.16593,-0.39527l-0.02185,-0.07988c-0.00628,-0.02173 0.00468,-0.04515 0.02608,-0.05395c0.02289,-0.00941 0.04908,0.00147 0.05856,0.02433c0.00001,0 0,0.00001 0,0.00002l0.02554,0.06158c0.0462,0.04434 0.09193,0.07997 0.13846,0.10889z" stroke-linecap="butt"/><path d="M233.19069,179.34931c0,0 0.61933,-1.40477 0.5815,-1.55735c-0.06009,-0.2424 -1.05013,-2.62948 -0.50871,-5.07444c0.35243,-1.5915 1.35374,-3.20753 3.68285,-4.27254c7.35262,-3.20092 8.85682,3.19073 9.74213,4.15538c1.2139,1.3227 2.21137,2.46997 2.21137,2.46997c0,0 -0.59996,-0.15211 -0.89181,-0.24194c-0.27221,-0.08378 -0.84639,-0.26291 -0.84639,-0.26291c0,0 1.22039,1.50788 1.63146,3.34832c0.38813,1.68172 -0.03563,3.36002 -0.03563,3.36002l-0.35226,-0.31103c0,0 -0.01974,0.43498 -0.13116,0.70119c-0.11143,0.26621 -0.37228,0.71877 -0.37228,0.71877l-0.26833,-0.60906c0,0 -0.42019,2.31259 -3.30251,3.46941c-2.72626,1.07146 -5.06026,0.00759 -5.06026,0.00759l0.16205,0.44897c0,0 -0.87194,-0.28095 -1.69,-1.19037c-0.97504,-1.08393 -1.37449,-1.81257 -1.37449,-1.81257c0,0 -0.25883,0.47527 -0.7602,0.85142c-0.62824,0.47134 -1.1304,0.53188 -1.1304,0.53188c0,0 0.41375,-0.69785 0.60178,-1.17382c0.16749,-0.42396 0.20895,-0.74182 0.20895,-0.74182c0,0 -0.27602,0.32416 -0.59263,0.55792c-0.33034,0.2439 -0.63321,0.3635 -0.63321,0.3635c0,0 0.48233,-1.17664 0.42512,-2.28673c-0.05402,-1.0481 -0.3997,-1.96367 -0.3997,-1.96367c0,0 -0.181,0.20292 -0.49889,0.35957c-0.2015,0.0993 -0.39835,0.15431 -0.39835,0.15431z" stroke-linecap="butt"/><path d="M236.78373,180.10296c-0.59407,-1.17214 8.83978,-4.97549 9.16768,-4.03091c0.31723,0.97058 0.2281,1.75114 0.33196,2.29512c0.10386,0.54398 0.35115,1.04741 0.72919,2.81524c0.23592,1.10326 -0.08172,1.76686 -0.66294,3.1199c-0.58122,1.35304 -0.87196,2.15555 -1.52506,2.43751c-0.62852,0.27134 -1.83279,-0.23685 -3.0242,-0.7728c-1.26865,-0.57071 -2.05339,-0.80198 -2.64816,-1.85135c-0.53566,-0.94508 -0.80586,-1.59297 -1.22813,-2.45639c-0.30863,-0.63105 -0.8159,-0.91619 -1.14033,-1.55631z" stroke-linecap="butt"/><path d="M243.70512,174.2879c0,0 0.27495,-0.05129 0.78282,-0.10628c0.46389,-0.05023 0.85827,-0.01422 0.85827,-0.01422l0.11235,0.1811c0,0 -1.41813,-0.02473 -2.67982,0.62216c-1.00881,0.51724 -1.46298,1.14779 -1.46298,1.14779l-0.27773,-0.69698c0,0 0.40313,-0.49675 1.17957,-0.84543c0.804,-0.36105 1.38445,-0.45447 1.38445,-0.45447z" data-paper-data="{&quot;index&quot;:null}" stroke-linecap="butt"/><path d="M243.35303,183.08429c-0.17173,0.07062 -0.81047,-0.29993 -0.99545,-0.63235c-0.1655,-0.29742 -0.04302,-0.72575 0.36756,-0.89458c0.41058,-0.16884 0.73157,-0.20552 0.95558,0.42051c0.19011,0.53129 0.08289,0.93759 -0.32769,1.10642z" stroke-linecap="butt"/><path d="M241.89569,177.83903c0,0 0.28823,0.65245 0.48779,1.18349c0.39516,1.05154 1.7167,4.68551 1.7167,4.68551l-0.49473,0.20511c0,0 -0.41843,-0.63833 -0.83553,-1.50139c-0.56459,-1.16822 -1.18767,-2.67594 -1.46792,-3.20919c-0.26565,-0.50546 -0.53919,-0.8881 -0.53919,-0.8881" stroke-linecap="round"/><path d="M237.46904,179.69552c-0.32238,-0.81749 0.19332,-1.81498 1.09121,-2.16908c0.8979,-0.35409 1.78983,0.08909 2.11221,0.90658c0.32238,0.81749 -0.08425,1.74261 -0.98214,2.09671c-0.8979,0.35409 -1.89889,-0.01672 -2.22128,-0.83421z" stroke-linecap="butt"/><path d="M237.56084,179.76865c-0.29295,-0.74285 0.07177,-1.58253 0.81461,-1.87548c0.74285,-0.29295 1.58253,0.07176 1.87547,0.8146c0.29295,0.74285 -0.07176,1.58253 -0.8146,1.87548c-0.74285,0.29295 -1.58253,-0.07176 -1.87548,-0.8146z" stroke-linecap="butt"/><path d="M241.96371,177.8474c-0.3001,-0.82593 0.13455,-1.77574 1.01796,-2.13901c0.8834,-0.36326 1.81162,0.0253 2.14582,0.83803c0.3342,0.81273 -0.02586,1.77233 -0.98682,2.18125c-0.91404,0.38895 -1.86354,-0.01771 -2.17695,-0.88027z" stroke-linecap="butt"/><path d="M237.3238,177.70751c0,0 0.43551,-0.53235 1.17849,-0.92775c0.82331,-0.43816 1.28594,-0.54167 1.28594,-0.54167l0.33165,0.66717c0,0 -0.68366,0.14894 -1.36754,0.46114c-0.91461,0.41753 -1.00597,0.69196 -1.68116,1.0586c-0.57854,0.31416 -1.10834,0.48661 -1.10834,0.48661l-0.08842,-0.20282c0,0 0.60228,-0.2333 0.86476,-0.36888c0.21664,-0.11189 0.59637,-0.42742 0.59637,-0.42742z" stroke-linecap="butt"/><path d="M242.41679,177.47365c-0.29295,-0.74285 0.07176,-1.58253 0.8146,-1.87548c0.74285,-0.29295 1.58253,0.07176 1.87548,0.81461c0.29295,0.74285 -0.07176,1.58253 -0.81461,1.87549c-0.74285,0.29295 -1.58253,-0.07176 -1.87548,-0.81461z" stroke-linecap="butt"/><path d="M240.50359,179.31427c-0.00119,-0.00252 -0.00247,-0.00511 -0.00386,-0.00776c0,0 -0.01708,-0.04152 0.02446,-0.0586c0.04153,-0.01707 0.05861,0.02445 0.05861,0.02445c0.02456,0.06976 0.02098,0.11159 0.00058,0.14355c0.01756,0.04158 0.03468,0.08334 0.05185,0.12509c0.0669,0.16269 0.18981,0.28288 0.22583,0.4566c0.02328,0.11226 -0.08172,0.2662 -0.02424,0.36384c0.06227,0.10577 0.20607,0.08759 0.26462,0.22008c0.10345,0.14037 0.42851,0.97001 0.08548,0.99874c-0.04707,0.00394 -0.26343,-0.34939 -0.28028,-0.39035c-0.03889,-0.09456 -0.06824,-0.20309 -0.11922,-0.29143c-0.02912,-0.05046 -0.15906,-0.1703 -0.11858,-0.1284c0.25837,0.26741 -0.0784,0.46899 -0.14522,0.31906c-0.00225,0.0052 -0.00458,0.01048 -0.00701,0.01584c0.05055,0.59826 -0.21254,0.17151 -0.32932,-0.16495c-0.03559,-0.10255 -0.28687,0.1208 -0.24089,0.21913c0.0764,0.18578 0.39133,1.15759 -0.11691,0.82811c-0.06758,-0.04381 -0.13968,-0.28835 -0.1956,-0.36483c-0.05743,-0.13882 -0.05498,-0.38398 -0.17617,-0.48991c-0.094,-0.08217 -0.33741,-0.12396 -0.43666,-0.18537c-0.0974,-0.06026 -0.00274,0.24035 -0.06292,0.33781c-0.33277,-0.15127 -0.21569,-0.33307 -0.40171,-0.54618c-0.08133,-0.09317 -0.21079,0.01436 -0.25692,-0.15354c-0.04211,-0.15326 -0.09171,-0.34611 0.08704,-0.41962c0.10668,-0.04232 0.23002,0.02428 0.33895,0.06039c0.2715,0.08999 0.68951,-0.34339 1.00301,-0.27917c0.36831,-0.05584 0.42439,-0.24016 0.65351,-0.482c0.02919,-0.03081 0.0758,-0.0427 0.10537,-0.06277l-0.00359,-0.04632c0,0 -0.00194,-0.02834 0.01981,-0.04148z" stroke-linecap="butt"/><path d="M242.77889,178.44745l0.03588,0.04966c0.03611,-0.00418 0.07671,-0.03069 0.12143,-0.02373c0.35103,0.05463 0.54027,0.19416 0.82963,-0.0537c0.15401,-0.32363 0.78797,-0.23188 0.89294,-0.54682c0.04212,-0.12636 0.06858,-0.29537 0.17398,-0.3408c0.17876,-0.07351 0.30526,0.1619 0.40403,0.35121c0.10819,0.20738 -0.06611,0.20587 -0.04288,0.36697c0.05314,0.36849 0.2806,0.45511 0.18576,0.88244c-0.12023,-0.04856 -0.30597,-0.42984 -0.32053,-0.28864c-0.01483,0.14387 -0.14107,0.38702 -0.1353,0.5475c0.00744,0.20689 0.21153,0.45205 0.28824,0.63945c0.02624,0.12329 0.18056,0.4294 0.1721,0.52937c-0.06356,0.75192 -0.65811,-0.48801 -0.76108,-0.7384c-0.05083,-0.13712 -0.40124,-0.1548 -0.34006,-0.02201c0.20075,0.43568 0.37942,1.08322 -0.08126,0.43827c-0.00603,-0.00341 -0.01194,-0.0068 -0.01772,-0.01018c0.07969,0.20635 -0.30919,0.28122 -0.35939,-0.20176c-0.00786,-0.07568 0.00527,0.15247 0.02772,0.22739c0.0393,0.13117 0.10953,0.26485 0.16194,0.3923c0.02271,0.05522 0.17162,0.59015 0.13727,0.62505c-0.25028,0.25431 -0.72073,-0.85063 -0.76834,-1.07759c-0.07074,-0.18192 0.03923,-0.28234 -0.00699,-0.44042c-0.04267,-0.14592 -0.23915,-0.21443 -0.31648,-0.34683c-0.11968,-0.20491 -0.13777,-0.4276 -0.22794,-0.64688c-0.02314,-0.05627 -0.04632,-0.11251 -0.06906,-0.16893c-0.03986,-0.01537 -0.07676,-0.0546 -0.11816,-0.14522c0,0 -0.02302,-0.05598 0.01851,-0.07305c0.04153,-0.01707 0.06455,0.0389 0.06455,0.0389c0.00127,0.00383 0.00257,0.00749 0.00386,0.01101c0.02522,-0.00472 0.04735,0.02547 0.04735,0.02547z" data-paper-data="{&quot;index&quot;:null}" stroke-linecap="butt"/><path d="M233.8112,178.89165c0.01729,-0.04144 0.05873,-0.02415 0.05873,-0.02415l0.03471,0.01618c0.00363,-0.00865 0.01096,-0.01702 0.02476,-0.0227c0.04153,-0.01707 0.05861,0.02445 0.05861,0.02445c0.00264,0.00642 0.00547,0.01305 0.00846,0.01989c0.10968,-0.02419 0.29046,-0.15363 0.39131,-0.11767c0.27304,0.09735 0.17572,0.52395 0.27402,0.68179c0.16574,0.28026 0.05837,0.83171 0.06964,1.1514c0.00707,0.20099 0.15986,0.38701 0.07662,0.59169c0.00079,0.12375 -0.14712,0.39613 -0.32832,0.26141c-0.12501,-0.09294 -0.1336,-0.73587 -0.15944,-0.89804c-0.00664,-0.04166 -0.22469,-0.18302 -0.25955,-0.34452c0.02427,-0.17677 0.13093,-0.15635 0.19225,-0.27316c0.02751,-0.0524 -0.08225,-0.24031 -0.08644,-0.30317c-0.01968,-0.29501 -0.12354,-0.42687 -0.23024,-0.66285c-0.02422,-0.00388 -0.04896,-0.01419 -0.07436,-0.03321l-0.02661,-0.0086c0,0 -0.04144,-0.01729 -0.02415,-0.05873z" stroke-linecap="butt"/><path d="M242.58104,170.14174c-0.01708,-0.04153 0.02445,-0.0586 0.02445,-0.0586l0.0741,-0.00363c0.15236,0.17462 0.39271,0.31031 0.5064,0.5965c-0.01324,0.17977 -0.07752,0.58065 -0.04303,0.75403c0.06144,0.30881 0.30418,0.55361 0.39658,0.83097c0.00496,0.06786 0.05057,0.27884 -0.04088,0.31763c-0.10239,0.04343 -0.14635,-0.22206 -0.21314,-0.25862c-0.15994,-0.08756 -0.38276,0.01232 -0.53315,-0.06471c-0.23857,-0.12219 -0.0926,-0.53408 -0.02052,-0.70193c0.05278,-0.1229 0.18869,-0.26068 0.22167,-0.38106c0.04959,-0.18102 -0.2942,-0.70064 -0.31431,-0.97336c0,0 -0.00118,-0.01717 0.00856,-0.03099c-0.00913,-0.00701 -0.0182,-0.01392 -0.02721,-0.02076l0.01908,0.019c0,0 -0.04153,0.01707 -0.05861,-0.02445z" stroke-linecap="butt"/><path d="M237.19662,170.74419c0.00163,-0.0221 0.00463,-0.06289 0.00625,-0.08499c0.05029,-0.49108 0.6201,0.12596 0.71484,0.2654c0.02215,0.03261 0.08666,0.16729 0.12229,0.17757c0.19091,0.05508 0.35727,-0.1572 0.59479,0.00502c0.16758,0.38643 0.19067,0.70508 0.28949,1.09113c0.05525,0.21582 0.26199,0.42558 0.17093,0.64383c-0.21206,0.09846 -0.72813,-0.06528 -0.78591,-0.3454c-0.05289,-0.25645 0.14005,-0.56285 -0.0955,-0.7219c-0.46553,-0.20944 -1.00381,-0.49223 -1.10895,-1.03099c0,0 -0.00861,-0.04407 0.03547,-0.05267c0.04408,-0.0086 0.05268,0.03547 0.05268,0.03547c0.00115,0.00588 0.00235,0.01172 0.00361,0.01753z" stroke-linecap="butt"/><path d="M248.03232,176.08487c0.01261,-0.00519 0.02297,-0.00497 0.03128,-0.00215c0.00393,-0.00785 0.01113,-0.01529 0.02374,-0.02048c0.04153,-0.01707 0.05861,0.02445 0.05861,0.02445c0.01386,0.03372 0.02741,0.0675 0.04067,0.10132c0.46423,-0.16237 0.7651,1.05247 0.78894,1.37828c0.00776,0.12637 0.3081,0.91163 -0.09349,0.82493c-0.12212,-0.02636 -0.26587,-0.69017 -0.31388,-0.80696c-0.14902,-0.42329 -0.27189,-0.85784 -0.43637,-1.28922c-0.00188,0.0006 -0.00377,0.00125 -0.00566,0.00189c-0.02644,-0.02062 -0.05288,-0.04124 -0.07932,-0.06185l-0.03897,-0.09161c0,0 -0.01708,-0.04153 0.02445,-0.05861z" stroke-linecap="butt"/><g stroke-linecap="butt"><path d="M247.03282,176.23037l-4.1915,-6.23632l0.90944,0.07408l3.87422,5.76424z"/><path d="M239.35987,183.08579l-6.64529,-0.08753l-0.67859,-0.75991l7.33218,0.21633z"/><path d="M248.21136,175.65383c0.01332,0.01983 0.31012,0.5637 0.5535,1.24376c0.08818,0.2464 0.15619,0.51431 0.22306,0.77559c-0.34385,-0.00572 -0.84582,0.2293 -1.05015,0.3192c-0.12776,0.21903 -0.08066,0.40593 -0.16094,0.60821c-0.04246,0.10699 -0.21476,0.22067 -0.3159,0.32339c-1.19569,-0.06223 -2.71629,0.08785 -3.99128,0.94479c-1.62062,1.08925 -2.32184,3.12855 -2.64262,4.2914c-0.13883,0.50325 1.3594,0.61955 1.3594,0.61955c0,0 -1.95701,-0.04557 -2.38944,-0.45101c-0.22824,-0.214 -0.65876,-0.33795 -0.91007,-0.57435c-0.63536,-0.59771 -1.06297,-1.28395 -1.08682,-1.31943c-0.2444,-0.36363 1.84796,-1.90933 4.78447,-3.88299c2.93651,-1.97367 5.38237,-3.26175 5.62677,-2.89811z"/><path d="M248.35421,180.60258c0,0 0.08201,-0.19119 0.15305,-0.44188c0.01265,0.0318 0.02494,0.06433 0.0369,0.09733c-0.11041,0.208 -0.18995,0.34456 -0.18995,0.34456z"/><path d="M239.70415,184.4092c0,0 -0.54654,-0.24201 -0.86194,-0.55646c-0.35339,-0.35233 -0.71698,-0.81091 -0.80994,-0.9245c-0.15874,-0.19398 -0.35362,-0.62036 -0.35362,-0.62036c0,0 2.77248,-3.18756 4.64467,-4.52604c2.39829,-1.71459 5.85822,-2.17238 5.85822,-2.17238c0,0 0.27034,0.49679 0.35647,0.70377c0.04229,0.10161 0.2928,0.87051 0.4513,1.35998c-0.34389,-0.00638 -0.84693,0.22916 -1.05154,0.31917c-0.12424,0.213 -0.08312,0.39562 -0.1546,0.59154c-1.18766,0.4669 -2.87999,1.1839 -3.84354,1.82424c-1.58939,1.05624 -4.23547,4.00104 -4.23547,4.00104z"/><path d="M250.63983,183.17829c0,0 -0.82464,3.7304 -1.30389,4.71924c-0.12642,0.26085 -0.38664,0.40751 -0.38664,0.40751c0,0 -0.34033,0.19808 -0.74164,0.19864c-0.37489,0.00053 -0.97533,-0.07037 -1.62837,-0.16906c0.04945,-0.03307 0.09889,-0.0673 0.14825,-0.1032l0.00107,0.00258l0.08293,-0.03442c0,-0.00001 0,0 0.00001,-0.00001c0.02284,-0.00948 0.03373,-0.03566 0.02432,-0.05856c-0.00766,-0.01865 -0.02645,-0.02938 -0.04553,-0.02766l-0.08858,0.00587c-0.29847,0.01977 -0.59598,0.03521 -0.89502,0.04236c-0.12713,0.00351 -0.58032,-0.03454 -0.673,-0.11886c-0.13327,-0.12123 0.1433,-0.40288 0.05793,-0.58026c-0.08059,-0.16744 -0.38544,-0.11053 -0.54097,-0.12984c-0.10739,-0.01334 -0.27962,0.07548 -0.32382,-0.0233c-0.0367,-0.08202 0.0593,-0.39404 0.05296,-0.5107c-0.01956,-0.36006 -0.24651,-0.56684 -0.16051,-0.93052c0.05268,-0.22319 -0.00724,-1.10212 -0.36103,-1.08574c-0.20186,0.00934 -0.48895,0.19897 -0.67728,0.27641c-0.45832,0.18847 -0.91663,0.37693 -1.37494,0.56539l-1.54309,-2.12871l-3.27082,-2.76617l3.21441,-4.09041c0.04078,-0.00198 0.08472,-0.01189 0.13215,-0.03091c0.28661,-0.1153 0.87201,-0.25209 1.20524,-0.46414c-0.09441,0.23313 -0.15211,0.52487 -0.22376,0.7053c-0.02003,0.05045 -0.10754,0.25572 -0.06669,0.30396c0.12064,0.14245 0.37165,-0.12165 0.446,-0.18814c0.04472,-0.04874 0.21995,-0.29069 0.29843,-0.27374c0.20243,0.04373 0.29278,0.28555 0.58019,0.08155c0.2407,-0.17085 0.10764,-0.5654 0.1261,-0.80183c0.01308,-0.17773 -0.02709,-0.44433 0.05922,-0.60169c0.00453,-0.00826 0.00904,-0.01637 0.01352,-0.02434l3.97927,-1.15842l1.1661,3.83382c-0.10854,0.20714 -0.06866,0.38668 -0.14551,0.58033c-0.04947,0.12465 -0.27515,0.25837 -0.35925,0.37328c-0.14245,0.19464 0.17993,0.56111 0.35349,0.63219c0.12395,0.04855 0.40506,0.06949 0.49897,0.15476c0.25168,0.22855 0.38591,0.91298 0.51749,1.22883c0.12576,0.15978 0.29168,0.17666 0.42622,0.3215c0.27732,0.29853 0.43235,0.53762 0.76253,0.61348z"/><path d="M246.50972,188.22126c-0.04645,0.0251 -0.09198,0.0547 -0.13379,0.082c-0.11917,-0.01871 -0.23946,-0.03818 -0.35987,-0.05815c0.1647,-0.00594 0.32912,-0.0141 0.49366,-0.02385z"/><path d="M240.3647,183.6698c0,0 -0.81001,-0.77869 -1.33127,-1.22661c-0.60471,-0.51962 -2.06725,-1.68323 -2.06725,-1.68323l3.20107,-4.1217c0.05151,0.00416 0.10842,-0.00503 0.17149,-0.03032c0.28661,-0.11531 0.87201,-0.2521 1.20524,-0.46414c-0.09441,0.23313 -0.1521,0.52487 -0.22376,0.7053c-0.02003,0.05045 -0.10755,0.25572 -0.0667,0.30395c0.12064,0.14245 0.37165,-0.12164 0.446,-0.18813c0.04472,-0.04874 0.21995,-0.2907 0.29842,-0.27374c0.20243,0.04373 0.29279,0.28556 0.5802,0.08156c0.2407,-0.17085 0.10764,-0.56541 0.1261,-0.80184c0.01308,-0.17773 -0.0271,-0.44433 0.05921,-0.60169c0.02056,-0.03747 0.04069,-0.07192 0.06005,-0.10427l3.96496,-1.14272c0,0 0.49164,1.81366 0.72771,2.57774c0.11376,0.36818 0.30717,0.89856 0.44989,1.27992c-0.00996,0.00442 -0.01941,0.0086 -0.02828,0.0125c-0.09998,0.1714 -0.09288,0.32313 -0.12353,0.47794l-5.23505,0.22928z"/><path d="M246.69065,174.544l1.13263,3.87468c-0.00936,0.06011 -0.02199,0.1203 -0.04645,0.18192c-0.04947,0.12465 -0.27516,0.25837 -0.35925,0.37327c-0.14245,0.19464 0.17993,0.56111 0.35349,0.63219c0.12395,0.04855 0.40506,0.06949 0.49897,0.15476c0.25168,0.22855 0.3859,0.91298 0.51749,1.22883c0.12576,0.15978 0.29168,0.17667 0.42622,0.3215c0.13707,0.14755 0.24426,0.28057 0.35749,0.38655l0.71693,1.34313c0,0 -1.23286,4.83554 -1.2352,4.84286c-0.06137,0.19139 -0.35698,0.32784 -0.44373,0.32348c-0.31398,-0.01578 -2.13898,-0.21353 -3.49057,-0.36265c0.04198,-0.12597 0.12523,-0.27353 0.07299,-0.38206c-0.08059,-0.16744 -0.38544,-0.11053 -0.54097,-0.12985c-0.10739,-0.01334 -0.27962,0.07548 -0.32382,-0.0233c-0.0367,-0.08202 0.0593,-0.39404 0.05296,-0.5107c-0.01956,-0.36006 -0.24651,-0.56684 -0.16051,-0.93052c0.05268,-0.22319 -0.00725,-1.10212 -0.36103,-1.08574c-0.20186,0.00935 -0.48895,0.19897 -0.67727,0.27641c-0.38627,0.15884 -0.77255,0.31768 -1.15882,0.47652l-1.53456,-2.05347l-3.18922,-2.75502l3.12893,-4.15209c0.30619,-0.10853 0.81483,-0.23885 1.11662,-0.43089c-0.09441,0.23313 -0.15211,0.52487 -0.22376,0.70529c-0.02003,0.05045 -0.10755,0.25572 -0.0667,0.30396c0.12064,0.14246 0.37165,-0.12165 0.446,-0.18814c0.04472,-0.04874 0.21995,-0.29069 0.29843,-0.27373c0.20243,0.04373 0.29278,0.28555 0.58019,0.08155c0.2407,-0.17085 0.10764,-0.56541 0.1261,-0.80183c0.00923,-0.1254 -0.00806,-0.29505 0.01129,-0.43935z"/><path d="M240.47156,183.4474l-3.20942,-2.77414l3.10038,-4.07468c0.29416,-0.11337 0.8572,-0.24844 1.18145,-0.45478c-0.09441,0.23313 -0.1521,0.52487 -0.22376,0.70529c-0.02003,0.05045 -0.10755,0.25572 -0.0667,0.30396c0.12064,0.14245 0.37165,-0.12165 0.446,-0.18814c0.04472,-0.04874 0.21995,-0.29069 0.29843,-0.27373c0.20243,0.04373 0.29278,0.28555 0.58019,0.08155c0.2407,-0.17085 0.10764,-0.5654 0.1261,-0.80183c0.01015,-0.13787 -0.01176,-0.32923 0.0182,-0.48158l3.96042,-0.99325l1.09339,4.04177l-4.32482,1.57218z"/><path d="M242.97772,180.58586c0.57181,0.85077 0.36236,1.99278 -0.46783,2.55075c-0.83018,0.55798 -1.96672,0.32062 -2.53853,-0.53014c-0.57181,-0.85077 -0.36236,-1.99277 0.46783,-2.55075c0.83018,-0.55798 1.96672,-0.32062 2.53853,0.53014z"/><path d="M247.17064,177.73682c0.23977,0.35673 0.34217,0.76468 0.31905,1.15929c-0.02859,0.02663 -0.05373,0.05263 -0.07212,0.07775c-0.05726,0.07823 -0.03941,0.18423 0.01367,0.28765c-0.10787,0.40698 -0.35553,0.77543 -0.72843,1.02606c-0.83018,0.55798 -1.96672,0.32062 -2.53853,-0.53014c-0.57181,-0.85077 -0.36236,-1.99277 0.46783,-2.55075c0.83018,-0.55798 1.96672,-0.32062 2.53853,0.53014z"/><path d="M242.33232,180.36351c0.62715,0.9331 0.61829,2.03718 -0.01978,2.46603c-0.63807,0.42885 -1.66373,0.02009 -2.29088,-0.91301c-0.62715,-0.9331 -0.61828,-2.03718 0.01979,-2.46603c0.63807,-0.42885 1.66373,-0.02009 2.29088,0.91301z"/><path d="M246.51652,177.47912c0.62715,0.9331 0.61828,2.03717 -0.01979,2.46603c-0.63807,0.42885 -1.66373,0.0201 -2.29088,-0.913c-0.62715,-0.9331 -0.61828,-2.03718 0.01979,-2.46604c0.63807,-0.42885 1.66374,-0.02009 2.29088,0.91301z"/><path d="M249.18866,184.09065c0,0 -1.21747,0.11492 -2.5245,0.99339c-1.30703,0.87847 -1.89797,2.00606 -1.89797,2.00606c0,0 0.07715,-1.97255 1.38416,-2.85102c1.30703,-0.87847 3.0383,-0.14843 3.0383,-0.14843z"/></g><path d="M232.59785,164.81422c-0.01244,-0.04315 0.03071,-0.05559 0.03071,-0.05559l0.09205,-0.02513c0.33942,-0.00974 0.51898,0.08212 0.68792,0.35364c0.09525,0.1574 0.26487,0.22643 0.37575,0.35783c0.2295,0.27196 0.56911,0.8048 0.96612,0.81107c0.66153,0.01379 1.21616,0.12655 1.85696,0.21493c0.61791,0.08522 1.24124,-0.05661 1.85534,-0.14654c0.16129,-0.0364 0.38028,-0.12442 0.54676,-0.09079c0.28125,0.05682 0.63126,0.96271 0.5586,1.22138c-0.0114,0.14602 0.14339,0.28322 0.12268,0.42241c-0.01989,0.13362 -0.20489,0.16292 -0.29315,0.23939c-0.27127,0.23504 -0.54755,0.4631 -0.82579,0.68981c-0.23846,0.25128 -0.76128,1.05102 -1.14037,1.02809c-0.13259,-0.00802 -0.16623,-0.16169 -0.29433,-0.20073c-0.49909,-0.15785 -1.19668,0.51864 -1.62411,0.74623c-0.65436,0.26955 -1.04213,0.51091 -1.49122,1.0617c-0.15562,0.09601 -0.75217,0.51003 -0.93949,0.42543c-0.25166,-0.11367 -0.1821,-0.70974 -0.18731,-0.89488c-0.00489,-0.23026 -0.07162,-0.58579 -0.00793,-0.79701c0.10827,-0.35907 0.37715,-0.57392 0.34809,-0.97003c-0.01386,-0.2088 0.10725,-0.41802 0.086,-0.61576c-0.04136,-0.38501 -0.36333,-0.7873 -0.57275,-1.08741c-0.03979,-0.11285 -0.1089,-0.19913 0.00262,-0.29952c0.13933,-0.12543 0.64042,-0.15202 0.71871,-0.32698c0.02469,-0.05517 -0.02907,-0.26554 -0.01688,-0.34483c0.02522,-0.164 0.05433,-0.2324 -0.12052,-0.31147c-0.12776,-0.06679 -0.49928,-0.25526 -0.51385,-0.42407c-0.0251,-0.29086 0.12301,-0.6202 -0.01001,-0.93462c0,0 -0.00846,-0.02057 0.00101,-0.03871c-0.02708,-0.00048 -0.05561,-0.00006 -0.08571,0.00121l-0.07029,0.02167c0,0 -0.04315,0.01244 -0.05559,-0.03071z" stroke-linecap="butt"/></g><g fill="#000000" fill-rule="nonzero" stroke="#ffffff" stroke-width="0.5" stroke-linejoin="miter"><g><path d="M244.09477,194.94298l-3.67501,-8.93703l2.17463,-0.89424l3.14123,7.63896l0.16146,0.95427l-0.889,-0.76754l0.82331,1.12915l-0.82954,-0.60399l0.5118,0.81418l-0.97817,-0.71177l0.34736,1.07023l-0.6776,-0.78713z" stroke-linecap="butt"/><path d="M241.29564,188.57066l2.49743,-1.02697" stroke-linecap="round"/><path d="M243.25362,186.1259l-2.49743,1.02697" stroke-linecap="round"/><path d="M242.3124,191.27543l2.49743,-1.02697" stroke-linecap="round"/><path d="M241.77295,189.85764l2.49743,-1.02697" stroke-linecap="round"/><path d="M245.38311,191.68155l-2.49743,1.02697" stroke-linecap="round"/></g><g stroke-linecap="butt"><path d="M238.61735,191.40463c-0.03363,-0.01628 -0.00613,-0.04765 -0.00613,-0.04765l0.01068,-0.01218c0.09336,-0.10647 0.26314,-0.23045 0.30986,-0.35267c0.07056,-0.18459 -0.22818,-0.37333 -0.28505,-0.51725c-0.02501,-0.16422 0.28556,-0.32309 0.42512,-0.46655c0.20931,-0.21518 0.42023,-0.56959 0.56538,-0.81249c-0.03405,-0.26755 -0.2174,-0.35232 -0.3098,-0.58185c-0.08266,-0.20534 -0.04603,-0.42463 -0.13212,-0.63263c-0.15349,-0.37085 -0.46055,-0.6007 -0.36675,-1.06132c0,0 0.00719,-0.03532 0.05003,-0.03675c0.04284,-0.00144 0.03564,0.03388 0.03564,0.03388c-0.09069,0.44538 0.21534,0.67053 0.3641,1.02993c0.09065,0.21901 0.00847,0.55698 0.17358,0.73753c0.16235,0.17754 0.25077,0.25779 0.27057,0.51028c-0.14866,0.26934 -0.40613,0.68025 -0.65091,0.90984c-0.09411,0.08827 -0.36651,0.24477 -0.34003,0.34093c0.0671,0.17148 0.36001,0.33123 0.28332,0.55279c-0.04596,0.13279 -0.22526,0.26422 -0.32569,0.37888l-0.01068,0.01218c0,0 -0.0275,0.03138 -0.06112,0.0151z"/><path d="M240.95589,191.75318c-0.04153,0.01707 -0.05426,-0.01387 -0.05426,-0.01387l-0.02529,-0.0615c-0.05485,-0.13346 -0.09934,-0.28908 -0.08392,-0.44123c0.02012,-0.18611 0.14465,-0.38364 0.16175,-0.56175c0.02675,-0.27873 -0.24391,-0.5002 -0.42658,-0.67442c-0.3456,-0.33437 -0.15361,-0.93209 -0.60999,-1.17262c-0.34448,-0.22832 -0.58702,-0.76127 0.08173,-1.04324c0,0 0.04153,-0.01708 0.05426,0.01387c0.01273,0.03094 -0.0288,0.04802 -0.0288,0.04802c-0.61313,0.24369 -0.33608,0.72932 -0.04724,0.92126c0.47333,0.24902 0.26964,0.841 0.621,1.18094c0.19547,0.18643 0.47073,0.4201 0.44223,0.71706c-0.01725,0.17975 -0.14225,0.37535 -0.1618,0.56235c-0.01603,0.14279 0.02904,0.29054 0.08043,0.41561l0.02529,0.06149c0,0 0.01273,0.03094 -0.02881,0.04802z"/><path d="M242.99965,191.60112c0.00614,0.03322 -0.03686,0.04529 -0.03686,0.04529l-0.08734,0.02395c-0.41309,-0.00265 -0.56546,-0.02566 -0.69374,-0.33761c-0.14729,-0.3582 -0.19347,-0.93279 -0.06519,-1.34864c-0.09978,-0.46392 -0.47172,-0.74152 -0.64462,-1.1596c-0.13855,-0.33693 -0.34179,-0.80308 -0.01286,-1.1788c0,0 0.0275,-0.03138 0.06112,-0.0151c0.03363,0.01628 0.00613,0.04765 0.00613,0.04765c-0.30814,0.35124 -0.10082,0.79722 0.02867,1.1121c0.17403,0.42582 0.55859,0.70493 0.64834,1.18235c-0.11825,0.41527 -0.08569,0.96806 0.06146,1.3259c0.11851,0.2882 0.23322,0.2943 0.61417,0.30206l0.07157,-0.02068c0,0 0.043,-0.01208 0.04913,0.02114z"/><path d="M244.34507,191.0065c-0.04209,0.01557 -0.0528,-0.01617 -0.0528,-0.01617l-0.01784,-0.05396c0.00085,-0.19168 -0.00315,-0.35505 0.03827,-0.55573c0.06872,-0.26225 0.13433,-0.52019 0.23921,-0.78081c0.01324,-0.0329 0.1674,-0.30997 0.16639,-0.3118c-0.05044,-0.09091 -0.2608,-0.01955 -0.37389,-0.05872c-0.38674,-0.13461 -0.38137,-0.36908 -0.51111,-0.68459c-0.05068,-0.12326 -0.08171,-0.36215 -0.248,-0.40062c-0.31351,-0.08094 -1.28043,-0.25574 -1.04792,-0.67371c0,0 0.02037,-0.03396 0.05873,-0.02415c0.03836,0.0098 0.018,0.04376 0.018,0.04376c-0.22178,0.33234 0.78085,0.52662 1.0121,0.58623c0.49729,0.13828 0.24921,0.90744 0.76538,1.08711c0.06104,0.02136 0.38553,0.04621 0.40558,0.08251c0.01722,0.03119 -0.11511,0.24874 -0.13385,0.29324c-0.11823,0.28079 -0.1911,0.55749 -0.26534,0.84046c-0.0399,0.19363 -0.03683,0.34927 -0.03733,0.53389l0.01581,0.04573c0,0 0.01071,0.03173 -0.03138,0.0473z"/><path d="M247.26298,189.56699c-0.04099,0.01829 -0.05536,-0.01194 -0.05536,-0.01194l-0.0052,-0.01508c-0.04954,-0.04746 -0.10363,-0.07607 -0.16717,-0.11107c-0.454,-0.19055 -0.79033,-0.60543 -1.25983,-0.74944c-0.12982,-0.06263 -0.31408,-0.10472 -0.39671,-0.21129c-0.11747,-0.15149 -0.04972,-0.29884 -0.02739,-0.46444c0.0159,-0.11792 -0.14016,-0.35857 -0.20762,-0.45014c-0.70979,-0.09713 -0.65573,-0.54751 -0.84961,-1.01527c-0.16351,-0.36591 -0.57169,-0.61355 -0.72287,-0.97723c0,0 -0.01273,-0.03095 0.0288,-0.04802c0.04153,-0.01708 0.05426,0.01387 0.05426,0.01387c0.14752,0.36314 0.55948,0.61149 0.72255,0.97648c0.19909,0.48022 0.13125,0.86349 0.8244,0.98872c0.08696,0.10233 0.25306,0.36172 0.23653,0.50407c-0.01784,0.1536 -0.09382,0.2829 0.01717,0.42604c0.07495,0.09665 0.25303,0.13521 0.37066,0.19234c0.4721,0.15349 0.80533,0.55793 1.26459,0.75154c0.0694,0.0381 0.12845,0.07038 0.183,0.12187l0.01643,0.03046c0,0 0.01437,0.03024 -0.02662,0.04854z"/><path d="M248.10823,187.70662c0.01273,0.03094 -0.0288,0.04802 -0.0288,0.04802l-0.0826,0.03397c-0.09613,0.03904 -0.19663,0.06278 -0.29636,0.08743c-0.70254,0.16884 -0.97024,-0.33908 -1.11597,-0.75238c-0.43422,-0.11977 -0.97963,-0.45353 -1.25904,-0.73727c-0.2979,-0.30341 -0.62236,-0.54568 -0.78004,-0.92915c0,0 -0.01273,-0.03094 0.0288,-0.04802c0.04153,-0.01708 0.05426,0.01387 0.05426,0.01387c0.15488,0.37665 0.47618,0.61433 0.7691,0.91267c0.29669,0.30315 0.81996,0.57212 1.25587,0.73429c0.16655,0.36693 0.35213,0.91374 1.03836,0.73861c0.09385,-0.02317 0.1894,-0.04493 0.27973,-0.08199l0.08245,-0.03391c0,0 0.04153,-0.01707 0.05426,0.01387z"/><path d="M246.34208,191.04614c-0.04342,0.00621 -0.0421,-0.02858 -0.0421,-0.02858l0.00007,-0.00203c0.02109,-0.44967 -0.44435,-0.83747 -0.60218,-1.22128c-0.16176,-0.39338 -0.64487,-0.74952 -0.67372,-1.172c-0.07347,-0.57009 -0.2063,-0.70175 -0.81991,-0.91817c-0.50033,-0.17686 -0.62133,-0.47211 -0.78927,-0.88051c0,0 -0.01273,-0.03095 0.0288,-0.04802c0.04153,-0.01708 0.05426,0.01387 0.05426,0.01387c0.16221,0.39446 0.27058,0.6784 0.75373,0.84881c0.63403,0.22415 0.78331,0.3744 0.85902,0.96428c0.02668,0.41268 0.51162,0.77203 0.67017,1.15759c0.16313,0.39671 0.61995,0.77925 0.60595,1.24302l-0.00008,0.00203c0,0 -0.00132,0.0348 -0.04473,0.041z"/><path d="M245.19212,191.72611c-0.0205,0.03393 -0.05879,0.024 -0.05879,0.024l-0.03595,-0.00932c-0.32397,-0.08392 -0.82967,-0.1922 -0.99399,-0.42795c-0.17013,-0.41112 -0.28555,-0.85044 -0.45986,-1.27433c-0.07031,-0.17099 -0.1197,-0.37038 -0.24282,-0.51604c-0.15937,-0.18852 -0.51483,-0.26525 -0.72097,-0.42256c-0.14964,-0.35048 -0.38959,-0.73154 -0.30613,-1.14538c0,0 0.00719,-0.03531 0.05003,-0.03675c0.04284,-0.00144 0.03564,0.03388 0.03564,0.03388c-0.08244,0.40062 0.16218,0.75963 0.29638,1.10193c0.2105,0.15202 0.55876,0.23176 0.71912,0.42034c0.12752,0.14997 0.17927,0.35401 0.25181,0.53042c0.17355,0.42204 0.28998,0.85922 0.45747,1.26932c0.15407,0.21893 0.65163,0.32086 0.95431,0.39927l0.03595,0.00932c0,0 0.0383,0.00992 0.0178,0.04384z"/><path d="M241.40409,189.83123c0.01273,0.03094 -0.02881,0.04803 -0.02881,0.04803l-0.08146,0.0335c-0.05785,0.02378 -0.11578,0.0474 -0.17376,0.07086c-0.25988,0.03265 -0.24913,-0.04828 -0.40997,-0.13556c-0.08564,-0.04648 -0.25521,-0.02336 -0.35955,-0.05699c-0.27117,-0.0874 -0.37124,-0.29473 -0.46023,-0.51114c-0.20329,-0.49437 -0.61696,-0.55378 -1.06309,-0.87192c-0.38257,-0.27366 -0.51135,-0.66927 -0.11905,-1.11689c0,0 0.0275,-0.03138 0.06112,-0.0151c0.03363,0.01628 0.00612,0.04765 0.00612,0.04765c-0.36556,0.41712 -0.23774,0.77396 0.1163,1.02721c0.45304,0.32515 0.87338,0.38843 1.08165,0.8949c0.06557,0.15944 0.12889,0.32217 0.2878,0.429c0.14007,0.09417 0.36979,0.03782 0.5062,0.11169c0.14828,0.08031 0.1069,0.15527 0.34252,0.13015c0.05275,-0.0221 0.10559,-0.044 0.15848,-0.06576l0.08146,-0.0335c0,0 0.04153,-0.01708 0.05425,0.01387z"/><path d="M241.43118,191.28055c-0.03588,-0.0135 -0.0114,-0.04617 -0.0114,-0.04617l0.00591,-0.00789c0.06692,-0.08929 0.13595,-0.17534 0.21011,-0.26159c0.08923,-0.07351 0.13551,-0.18722 0.22569,-0.25371c0.22106,-0.16298 0.57661,-0.17364 0.81628,-0.31414c0.15072,-0.08835 0.26296,-0.29823 0.37587,-0.41892c0.06316,-0.04795 0.21113,-0.14081 0.22478,-0.21356c0.02252,-0.12003 -0.14968,-0.35047 -0.19382,-0.46026c-0.07843,-0.19506 -0.05323,-0.41065 -0.01602,-0.62837c0.09238,-0.54038 0.1506,-0.92073 -0.04714,-1.40159c-0.15855,-0.38557 -0.12795,-0.77769 -0.1381,-1.20069c0,0 -0.00083,-0.03445 0.0426,-0.04236c0.04343,-0.00792 0.04425,0.02653 0.04425,0.02653c0.00999,0.41647 -0.02176,0.80285 0.1343,1.18237c0.20134,0.48963 0.14408,0.88129 0.05011,1.43096c-0.03542,0.20718 -0.06215,0.41372 0.01317,0.59929c0.04953,0.12204 0.22215,0.3536 0.1965,0.49033c-0.01784,0.09504 -0.16781,0.19526 -0.25185,0.25848c-0.12229,0.13184 -0.23152,0.33385 -0.3954,0.43297c-0.23292,0.14087 -0.59082,0.14882 -0.80496,0.30677c-0.08367,0.06172 -0.12985,0.17419 -0.21426,0.24401c-0.07041,0.08267 -0.13637,0.16511 -0.20036,0.25049l-0.00591,0.00789c0,0 -0.02448,0.03267 -0.06036,0.01917z"/><path d="M242.42601,189.59882c-0.01245,0.03522 -0.05406,0.03226 -0.05406,0.03226l-0.01616,-0.00115c-0.31567,-0.0227 -0.53572,-0.15229 -0.6971,-0.35195c-0.05675,-0.1365 -0.09116,-0.3069 -0.17562,-0.4295c-0.03869,-0.05616 -0.28438,-0.10087 -0.36502,-0.14723c-0.17298,-0.09945 -0.27693,-0.26384 -0.38109,-0.41306c-0.15601,-0.37701 -0.5929,-0.5811 -0.74244,-0.94477c0,0 -0.01273,-0.03094 0.0288,-0.04802c0.04153,-0.01708 0.05426,0.01387 0.05426,0.01387c0.14833,0.36072 0.58636,0.56343 0.74005,0.93975c0.08623,0.12234 0.17135,0.26244 0.29906,0.35724c0.11121,0.08255 0.36805,0.10497 0.44138,0.19476c0.09338,0.11432 0.12573,0.30164 0.18036,0.43618c0.1502,0.18283 0.35157,0.30188 0.64226,0.32229l0.01616,0.00115c0,0 0.04161,0.00295 0.02917,0.03818z"/><path d="M244.19841,189.41836c-0.03099,-0.01905 -0.00057,-0.04882 -0.00057,-0.04882l0.04595,-0.04442c0.07333,-0.12517 0.16155,-0.20723 0.27122,-0.31707c0.10684,-0.0901 0.26194,-0.11327 0.34051,-0.17563c0.16351,-0.12976 0.20213,-0.2731 0.30205,-0.41601c0.14462,-0.20685 0.37126,-0.31202 0.40761,-0.56176c0.06789,-0.45342 -0.64052,-0.65876 -0.71614,-1.11233c-0.0363,-0.22082 0.05611,-1.1258 0.47956,-1.1454c0,0 0.04284,-0.00143 0.03565,0.03388c-0.00719,0.03532 -0.05003,0.03675 -0.05003,0.03675c-0.31894,0.00508 -0.4067,0.88381 -0.37901,1.0516c0.07607,0.4681 0.78836,0.64758 0.7162,1.12949c-0.04065,0.26494 -0.26991,0.37293 -0.41959,0.59127c-0.10005,0.14596 -0.1494,0.31843 -0.3296,0.44304c-0.10893,0.07533 -0.20666,0.06371 -0.32759,0.16546c-0.10728,0.10771 -0.18773,0.18416 -0.26063,0.30572l-0.05418,0.05353c0,0 -0.03043,0.02977 -0.06142,0.01072z"/><path d="M244.42463,190.53026c-0.01273,-0.03094 0.0288,-0.04802 0.0288,-0.04802l0.0276,-0.01135c0.08436,-0.03466 0.15622,-0.07609 0.23514,-0.12053c0.60065,-0.24786 0.73576,-0.80415 0.82416,-1.22998c0.12666,-0.50045 0.83904,-0.77131 0.8253,-1.32022c-0.00971,-0.40553 -0.08559,-0.83346 -0.00138,-1.24696c0,0 0.00719,-0.03532 0.05003,-0.03675c0.04284,-0.00144 0.03565,0.03388 0.03565,0.03388c-0.08329,0.40906 -0.00704,0.83272 0.00257,1.234c0.01298,0.56628 -0.69968,0.83199 -0.82691,1.33512c-0.10543,0.44732 -0.23985,1.02869 -0.87717,1.28976c-0.08086,0.04581 -0.15521,0.08769 -0.24181,0.12353l-0.02771,0.0114c0,0 -0.04153,0.01708 -0.05426,-0.01387z"/><path d="M241.18968,191.27758c-0.00719,0.03532 -0.05003,0.03675 -0.05003,0.03675l-0.06043,0.00194c-0.22947,0.03324 -0.68065,0.09782 -0.84314,-0.03135c-0.10113,-0.08039 -0.13525,-0.31356 -0.18622,-0.42635c-0.2056,-0.17457 -0.57789,-0.24595 -0.75114,-0.44008c-0.12225,-0.13699 -0.15764,-0.38279 -0.22997,-0.54798c-0.25824,-0.35733 -0.67971,-0.72676 -0.84561,-1.12535c-0.09688,-0.2356 -0.20088,-0.47639 -0.22638,-0.73613c-0.01014,-0.1033 0.00791,-0.28913 -0.12814,-0.317c0,0 -0.03837,-0.00981 -0.018,-0.04377c0.02037,-0.03396 0.05873,-0.02415 0.05873,-0.02415c0.25928,0.07536 0.30045,0.85249 0.39684,1.08689c0.16064,0.39605 0.58841,0.76457 0.84276,1.11951c0.07124,0.16088 0.10475,0.40631 0.22379,0.53938c0.17286,0.19325 0.54922,0.26631 0.75354,0.443c0.19795,0.41747 0.31711,0.52848 0.96128,0.43311l0.06647,-0.00231c0,0 0.04284,-0.00144 0.03565,0.03388z"/><path d="M239.84255,191.43192c-0.01273,-0.03094 0.0288,-0.04802 0.0288,-0.04802l0.04651,-0.01831c0.2748,-0.16855 0.53104,-0.34414 0.78928,-0.53088c0.22458,-0.19099 0.69124,-0.49119 0.66899,-0.76022c-0.01331,-0.16091 -0.13972,-0.33661 -0.20016,-0.48358c-0.17522,-0.42612 0.01372,-0.90418 -0.1683,-1.34797c-0.08721,-0.34836 0.55549,-0.82098 0.63341,-1.20936c0,0 0.00719,-0.03532 0.05003,-0.03675c0.04284,-0.00144 0.03565,0.03388 0.03565,0.03388c-0.07412,0.35917 -0.71547,0.87341 -0.6348,1.18135c0.18254,0.44271 -0.00679,0.92185 0.16708,1.34469c0.0626,0.15225 0.18997,0.33166 0.20379,0.49875c0.02489,0.30101 -0.44948,0.61026 -0.70248,0.82499c-0.2615,0.18948 -0.52152,0.36753 -0.80004,0.53836l-0.06352,0.02694c0,0 -0.04153,0.01707 -0.05426,-0.01387z"/><path d="M243.65443,191.15851c0.01273,0.03094 -0.02881,0.04803 -0.02881,0.04803l-0.09241,0.03703c-0.4773,0.01888 -0.40824,-0.27614 -0.52559,-0.56152c-0.08513,-0.21958 -0.31148,-0.38186 -0.38542,-0.63622c-0.05552,-0.191 -0.01211,-0.40056 -0.07432,-0.58862c-0.15653,-0.47319 -0.53955,-0.66908 -0.62896,-1.14399c0.00699,-0.18698 0.08807,-0.41589 0.06407,-0.59435c-0.02741,-0.20379 -0.14366,-0.35457 -0.1375,-0.57289c0,0 0.00106,-0.03476 0.04449,-0.04117c0.04343,-0.00642 0.04236,0.02834 0.04236,0.02834c-0.00715,0.21653 0.10983,0.36165 0.13705,0.56406c0.02424,0.18023 -0.05577,0.40907 -0.06374,0.59755c0.09041,0.46676 0.47062,0.66035 0.62652,1.13159c0.06257,0.18915 0.0192,0.39887 0.07486,0.59037c0.075,0.25801 0.28808,0.40899 0.38365,0.63116c0.10442,0.25393 0.02701,0.53706 0.43684,0.52759l0.07265,-0.03084c0,0 0.04153,-0.01708 0.05425,0.01387z"/><path d="M245.23851,190.27969c-0.04153,0.01708 -0.05426,-0.01387 -0.05426,-0.01387l-0.0248,-0.0603c-0.03414,-0.08303 -0.06831,-0.16606 -0.10235,-0.24913c-0.08735,-0.38138 -0.12273,-1.00878 -0.60613,-1.13281c-0.65962,0.03834 -0.95697,-0.32682 -1.30165,-0.67318c-0.34126,-0.25503 -0.4348,-0.6839 -0.58491,-1.04895c0,0 -0.01273,-0.03095 0.0288,-0.04802c0.04153,-0.01708 0.05426,0.01387 0.05426,0.01387c0.14703,0.35753 0.23744,0.77928 0.57066,1.02937c0.34083,0.341 0.61527,0.68619 1.25986,0.65665c0.52719,0.13423 0.56982,0.75733 0.66359,1.17284c0.03373,0.0817 0.06731,0.16346 0.10093,0.24521l0.0248,0.06031c0,0 0.01273,0.03095 -0.0288,0.04802z"/><path d="M246.45578,189.59138c-0.02996,-0.02004 0.0015,-0.04915 0.0015,-0.04915l0.03453,-0.02482c-0.17584,-0.30259 -0.49048,-0.71713 -0.47305,-1.08573c0.01122,-0.20337 0.10616,-0.41299 0.13217,-0.61592c0.02919,-0.22783 -0.198,-0.53 -0.28008,-0.73044c-0.11197,-0.27343 -0.21935,-0.54569 -0.19488,-0.85976c0.00723,-0.09279 0.10384,-0.23347 0.06668,-0.31123c0,0 -0.01273,-0.03094 0.0288,-0.04802c0.04153,-0.01707 0.05426,0.01387 0.05426,0.01387c0.03752,0.10138 -0.0543,0.22305 -0.06304,0.33522c-0.02382,0.30568 0.08232,0.56979 0.19126,0.83583c0.08726,0.21308 0.31068,0.51424 0.28346,0.75675c-0.02258,0.20119 -0.12169,0.41039 -0.13184,0.61212c-0.02361,0.39896 0.35532,0.74255 0.47029,1.10079l-0.05865,0.06142c0,0 -0.03145,0.02911 -0.06141,0.00907z"/><path d="M243.98978,192.3269c-0.04155,0.01703 -0.05421,-0.01394 -0.05421,-0.01394l-0.01868,-0.04946c0.04561,-0.18807 0.09943,-0.40113 0.06652,-0.58168c-0.03248,-0.18744 -0.02621,-0.43382 0.08348,-0.63496c0.05265,-0.09655 0.26116,-0.19456 0.31797,-0.29922c-0.09307,0.27979 -0.37888,0.55097 -0.31536,0.91051c0.03073,0.18208 -0.0128,0.39826 -0.0658,0.58793l0.01497,0.03282c0,0 0.01267,0.03097 -0.02889,0.04801zM244.3992,190.69803c0.00001,-0.00034 0.00001,-0.00068 0.00001,-0.00102c0.00054,-0.09988 -0.09486,-0.24546 -0.15172,-0.32578c-0.24208,-0.34531 -0.24222,-0.91079 -0.69682,-1.10205c-0.32014,-0.1556 -0.75721,-0.59957 -0.88029,-0.89329c0,0 -0.01273,-0.03094 0.0288,-0.04802c0.04153,-0.01708 0.05426,0.01387 0.05426,0.01387c0.11221,0.27898 0.54644,0.71739 0.85053,0.86389c0.47292,0.19879 0.46883,0.76515 0.72116,1.12158c0.09183,0.13101 0.10295,0.25218 0.07407,0.37081zM244.38486,190.74764c0.00549,-0.0165 0.0103,-0.03302 0.01434,-0.0496c-0.00029,0.01671 -0.00546,0.03324 -0.01434,0.0496z"/></g><path d="M243.84028,172.26916c0.15963,-0.07115 0.46667,0.03717 0.6429,0.1357l0.01092,-0.01972l0.07824,0.04335c0.00876,0.00476 0.016,0.01244 0.02008,0.02237c0.00331,0.00805 0.00411,0.01652 0.00276,0.02452c0.00231,-0.00041 0.00461,-0.00082 0.00692,-0.00124c0.10028,-0.01803 0.25515,-0.09762 0.37443,-0.11447c0.01581,-0.00632 0.03162,-0.01271 0.0474,-0.0192v0v0l0.07807,-0.03208v0c0.02294,-0.00942 0.04917,0.00153 0.0586,0.02446c0.00943,0.02294 -0.00152,0.04917 -0.02445,0.05861l-0.08306,0.03416l-0.00001,-0.00003c-0.02327,0.00953 -0.04656,0.01887 -0.06987,0.02804c-0.10396,0.05531 -0.21696,0.09313 -0.33518,0.12078c-0.04181,0.01385 -0.08368,0.02733 -0.12562,0.04052c0.00264,0.01764 0.00512,0.03529 0.00745,0.05295c0.0081,0.03246 0.01158,0.06866 0.01224,0.10611c0.02104,0.21001 0.02463,0.42153 0.03414,0.63277c0.00547,0.13332 -0.00616,0.31945 -0.03196,0.52382c0.05856,-0.06623 0.18946,-0.18289 0.25264,-0.12323c0.0601,0.05675 -0.03159,0.14866 -0.16138,0.20251c-0.04041,0.05477 -0.07769,0.1114 -0.11176,0.16992c0.15227,0.2411 0.35506,0.47477 0.45579,0.68856c0.20634,-0.33883 0.28635,0.14887 0.40175,0.19171c0.1092,0.04054 0.3543,0.63118 0.40649,0.88853c0.31639,-0.50553 0.46851,0.07995 0.62347,0.45676c0.02616,0.06362 0.10141,0.37655 0.11516,0.39037c0.03626,0.03643 0.10005,-0.0559 0.14893,-0.04c0.12166,0.03955 0.11598,0.20808 0.21416,0.27255c0.14939,0.0981 0.12485,0.45796 -0.09792,0.46074c-0.08749,0.00109 -0.14493,-0.11345 -0.23191,-0.12298c-0.06723,-0.04492 -0.11509,-0.19563 -0.18564,-0.15614c-0.05162,0.0289 -0.03957,0.23766 -0.19618,0.15093c-0.07521,-0.04164 -0.00135,-0.24725 -0.0872,-0.24272c-0.09992,0.00528 -0.15035,0.13511 -0.2388,0.18191c-0.04396,0.02326 -0.10103,-0.00647 -0.15507,-0.05716c0.08333,0.14376 0.18668,0.28257 0.30012,0.38562c0.09012,0.10039 0.44165,0.14435 0.39893,0.35051c-0.05659,0.27313 -0.98966,0.2374 -1.21832,0.33122c-0.58818,0.16842 -1.2199,0.28037 -1.75818,0.58299c-0.41816,0.36413 -1.18976,0.57961 -1.71612,0.75757c-0.59976,0.20263 -1.19293,0.39448 -1.8086,0.54351c-0.61749,0.14946 -1.21856,0.24701 -1.85197,0.28863c-0.69212,0.04549 -1.14309,0.11366 -1.78035,0.37562c-0.63911,0.26272 -1.14855,0.37796 -1.83975,0.30402c-0.21646,-0.02332 -0.42541,-0.20434 -0.64992,-0.1662c-0.16685,0.02834 -0.12085,0.24669 -0.2364,0.32705c-0.20914,0.14543 -0.47307,0.02863 -0.63943,0.10965c-0.12433,0.04828 -0.31872,0.25077 -0.47222,0.22558c-0.11851,-0.01945 -0.10665,-0.1624 -0.15723,-0.2354c-0.0699,-0.10088 -0.2221,-0.08643 -0.32203,-0.10358c-0.0296,-0.00509 -0.19779,0.15107 -0.32387,0.24395l0.01653,0.0402l-0.08306,0.03416v0c-0.02294,0.00943 -0.04918,-0.00152 -0.05861,-0.02445c-0.00423,-0.01028 -0.00436,-0.02123 -0.00115,-0.03102l0.0264,-0.08256c0.00056,-0.02562 -0.36629,-0.39811 -0.39226,-0.59463c-0.0442,-0.3344 0.39824,-0.29797 0.37796,-0.59026c0.07507,-0.32465 0.26574,-0.44452 0.48261,-0.69887c0.04886,-0.0573 0.10609,-0.28674 0.02431,-0.33977c-0.03822,-0.02479 -0.40557,0.11896 -0.46965,0.13867c-0.04498,0.01381 -0.25732,0.11284 -0.2919,0.08743c-0.06131,-0.04505 0.01524,-0.34182 0.03093,-0.40266c0.09789,-0.37964 0.28618,-0.77594 0.13112,-1.15302c-0.05828,-0.14175 -0.13108,-0.28924 -0.19967,-0.43902c-0.15232,-0.09645 -0.28547,-0.28201 -0.33658,-0.40042c-0.1682,-0.39098 -0.16975,-0.86047 -0.10627,-1.30444c-0.25778,0.10988 -0.58865,0.22277 -0.69893,0.09065c-0.14207,-0.17021 0.48684,-0.59963 0.5997,-0.69688c0.08638,-0.06818 0.17267,-0.13587 0.25929,-0.20286c0.04637,-0.28194 0.10823,-0.67116 0.25019,-0.80275c-0.13891,-0.27282 -0.25969,-0.56983 -0.20397,-0.68765c0.07942,-0.16796 0.3344,-0.04121 0.49867,0.06354c-0.02724,-0.08303 -0.04656,-0.15482 -0.05662,-0.19155c-0.03807,-0.139 -0.17101,-0.93409 0.15894,-0.84733c0.04829,0.0127 0.10482,0.07351 0.15934,0.15677c0.00527,-0.11371 0.03385,-0.21012 0.08035,-0.29323c-0.00223,-0.00087 -0.00447,-0.00174 -0.0067,-0.00264c-0.53167,-0.21109 -0.23328,-0.54265 0.1482,-0.66216c0.15228,-0.0477 0.53882,-0.10601 0.86595,-0.11612c0.12555,-0.08361 0.25722,-0.16874 0.39385,-0.24753c-0.00375,-0.00393 -0.00685,-0.00861 -0.00904,-0.01394c-0.00943,-0.02294 0.00152,-0.04918 0.02445,-0.05861c0.2215,-0.09108 0.51204,-0.21056 0.73353,-0.30164c0.12078,-0.04966 0.41519,-0.13051 0.67596,-0.23149c0.07039,-0.03402 0.14509,-0.06692 0.22206,-0.09707c0.08983,-0.04554 0.16378,-0.09384 0.20796,-0.14418c-0.27442,-0.06122 -0.6389,-0.17935 -0.55391,-0.35881c0.07335,-0.1549 0.86181,-0.12985 1.01624,-0.13811c0.02867,-0.00153 0.05699,-0.00197 0.085,-0.00146c0.42587,-0.20458 0.88936,-0.42855 1.30561,-0.44702c0.20112,-0.00063 1.0847,0.14239 1.03821,0.50983c0.07797,-0.00576 0.14483,-0.02667 0.18929,-0.07358c0.13257,-0.13987 -0.601,-0.85913 0.05838,-0.75622c0.36618,0.10788 0.76038,0.26151 1.08371,0.46466c0.03896,0.02448 0.31801,0.22748 0.34673,0.21226c0.06321,-0.03351 0.02394,-0.14132 0.02877,-0.2127c-0.06476,-0.56371 0.25009,-0.19966 0.43344,0.0783c0.01655,0.02509 0.1016,0.29434 0.11295,0.29569c0.11305,0.01344 0.43546,-0.19014 0.55393,-0.23585c0.46583,-0.11369 0.82443,0.00108 1.09579,0.38733c0.06541,0.0931 0.12774,-0.06804 0.20871,-0.02737c0.03625,0.01821 0.12336,0.26702 0.1452,0.3167c0.01089,0.01119 0.02129,0.02308 0.03124,0.0356c0.01029,-0.00164 0.02056,-0.00321 0.0308,-0.00471c0.04911,-0.00723 0.3429,-0.09714 0.3692,-0.07938c0.12795,0.08641 -0.067,0.44179 -0.1756,0.65919c0.01068,0.03889 0.02132,0.07622 0.03242,0.11098c0.02197,0.06879 0.04194,0.12916 0.02134,0.20301c-0.01259,0.04511 -0.12126,0.13369 -0.07739,0.11726c0.27013,-0.10109 0.35756,-0.11079 0.6436,-0.08586c0.06821,0.04012 0.43471,0.33346 0.43839,0.37548c0.01259,0.14405 -0.14266,0.41715 -0.29999,0.64196c0.0037,0.00627 0.0073,0.01267 0.01079,0.01922c0.03079,0.05773 -0.00131,0.12168 -0.04851,0.18259c0.07768,-0.03195 0.15536,-0.06389 0.23303,-0.09583c0.00501,-0.00205 0.00996,-0.00404 0.01483,-0.00596c0.08793,-0.09546 0.14322,-0.20242 0.16593,-0.39527l-0.02185,-0.07988c-0.00628,-0.02173 0.00468,-0.04515 0.02608,-0.05395c0.02289,-0.00942 0.04908,0.00147 0.05856,0.02433c0,0 0,0.00001 0,0.00002l0.02553,0.06158c0.0462,0.04434 0.09193,0.07997 0.13846,0.10889z" stroke-linecap="butt"/><path d="M231.36775,181.82345c0,0 0.61932,-1.40477 0.5815,-1.55735c-0.06009,-0.2424 -1.05013,-2.62947 -0.50872,-5.07443c0.35242,-1.5915 1.35374,-3.20753 3.68284,-4.27254c7.35262,-3.20092 8.85682,3.19072 9.74214,4.15538c1.2139,1.3227 2.21137,2.46997 2.21137,2.46997c0,0 -0.59996,-0.1521 -0.89181,-0.24194c-0.27221,-0.08378 -0.84639,-0.26291 -0.84639,-0.26291c0,0 1.22039,1.50788 1.63146,3.34832c0.38812,1.68171 -0.03564,3.36003 -0.03564,3.36003l-0.35226,-0.31103c0,0 -0.01974,0.43498 -0.13117,0.70119c-0.11143,0.26621 -0.37227,0.71877 -0.37227,0.71877l-0.26833,-0.60906c0,0 -0.42019,2.31259 -3.30251,3.46941c-2.72626,1.07146 -5.06026,0.00759 -5.06026,0.00759l0.16205,0.44896c0,0 -0.87193,-0.28094 -1.69,-1.19036c-0.97504,-1.08393 -1.37449,-1.81257 -1.37449,-1.81257c0,0 -0.25883,0.47527 -0.7602,0.85142c-0.62824,0.47134 -1.1304,0.53189 -1.1304,0.53189c0,0 0.41374,-0.69784 0.60178,-1.17382c0.16749,-0.42396 0.20895,-0.74182 0.20895,-0.74182c0,0 -0.27602,0.32416 -0.59263,0.55792c-0.33035,0.2439 -0.63321,0.3635 -0.63321,0.3635c0,0 0.48233,-1.17664 0.42512,-2.28673c-0.05402,-1.0481 -0.3997,-1.96367 -0.3997,-1.96367c0,0 -0.181,0.20293 -0.49889,0.35958c-0.2015,0.0993 -0.39835,0.15431 -0.39835,0.15431z" stroke-linecap="butt"/><path d="M234.96079,182.57709c-0.59407,-1.17214 8.83978,-4.97549 9.16768,-4.03091c0.31723,0.97058 0.2281,1.75115 0.33196,2.29512c0.10385,0.54398 0.35115,1.0474 0.72919,2.81524c0.23592,1.10326 -0.08171,1.76687 -0.66294,3.1199c-0.58123,1.35304 -0.87196,2.15555 -1.52506,2.43751c-0.62852,0.27134 -1.83279,-0.23685 -3.0242,-0.7728c-1.26865,-0.57071 -2.05339,-0.80197 -2.64816,-1.85135c-0.53566,-0.94508 -0.80586,-1.59297 -1.22813,-2.45638c-0.30863,-0.63105 -0.8159,-0.91619 -1.14033,-1.55632z" stroke-linecap="butt"/><path d="M241.88218,176.76203c0,0 0.27495,-0.05129 0.78282,-0.10628c0.46389,-0.05022 0.85827,-0.01422 0.85827,-0.01422l0.11236,0.18109c0,0 -1.41813,-0.02472 -2.67982,0.62216c-1.00882,0.51723 -1.46298,1.14779 -1.46298,1.14779l-0.27773,-0.69698c0,0 0.40312,-0.49675 1.17956,-0.84542c0.804,-0.36105 1.38445,-0.45447 1.38445,-0.45447z" data-paper-data="{&quot;index&quot;:null}" stroke-linecap="butt"/><path d="M241.5301,185.55842c-0.17173,0.07062 -0.81048,-0.29993 -0.99546,-0.63235c-0.1655,-0.29742 -0.04302,-0.72574 0.36756,-0.89458c0.41058,-0.16884 0.73158,-0.20552 0.95558,0.42051c0.19011,0.5313 0.08289,0.93759 -0.32769,1.10642z" stroke-linecap="butt"/><path d="M240.07275,180.31317c0,0 0.28823,0.65245 0.48778,1.18349c0.39516,1.05154 1.7167,4.68551 1.7167,4.68551l-0.49472,0.20511c0,0 -0.41843,-0.63833 -0.83553,-1.50139c-0.56459,-1.16822 -1.18767,-2.67594 -1.46792,-3.20919c-0.26565,-0.50547 -0.53919,-0.8881 -0.53919,-0.8881" stroke-linecap="round"/><path d="M235.6461,182.16965c-0.32239,-0.81749 0.19332,-1.81498 1.09121,-2.16908c0.8979,-0.35409 1.78983,0.08909 2.11221,0.90658c0.32239,0.81749 -0.08425,1.74262 -0.98215,2.09672c-0.8979,0.35409 -1.8989,-0.01672 -2.22128,-0.83421z" stroke-linecap="butt"/><path d="M235.73791,182.24278c-0.29296,-0.74285 0.07176,-1.58253 0.81461,-1.87548c0.74285,-0.29296 1.58253,0.07176 1.87548,0.81461c0.29295,0.74286 -0.07176,1.58253 -0.81461,1.87548c-0.74285,0.29296 -1.58253,-0.07176 -1.87548,-0.81461z" stroke-linecap="butt"/><path d="M240.14077,180.32154c-0.3001,-0.82593 0.13455,-1.77574 1.01796,-2.13901c0.8834,-0.36326 1.81162,0.0253 2.14582,0.83803c0.3342,0.81273 -0.02587,1.77234 -0.98682,2.18125c-0.91404,0.38895 -1.86354,-0.01771 -2.17695,-0.88027z" stroke-linecap="butt"/><path d="M235.50086,180.18165c0,0 0.43551,-0.53236 1.17849,-0.92775c0.82331,-0.43815 1.28594,-0.54167 1.28594,-0.54167l0.33165,0.66717c0,0 -0.68366,0.14894 -1.36755,0.46114c-0.91461,0.41753 -1.00597,0.69196 -1.68115,1.0586c-0.57854,0.31416 -1.10834,0.48661 -1.10834,0.48661l-0.08843,-0.20282c0,0 0.60229,-0.2333 0.86476,-0.36888c0.21664,-0.1119 0.59637,-0.42742 0.59637,-0.42742z" stroke-linecap="butt"/><path d="M240.59385,179.94778c-0.29296,-0.74285 0.07176,-1.58253 0.8146,-1.87548c0.74285,-0.29296 1.58253,0.07176 1.87548,0.81461c0.29296,0.74285 -0.07176,1.58253 -0.81461,1.87548c-0.74285,0.29296 -1.58253,-0.07176 -1.87548,-0.81461z" stroke-linecap="butt"/><path d="M238.68065,181.7884c-0.00119,-0.00252 -0.00247,-0.0051 -0.00386,-0.00776c0,0 -0.01708,-0.04153 0.02445,-0.05861c0.04153,-0.01707 0.05861,0.02445 0.05861,0.02445c0.02456,0.06976 0.02098,0.11159 0.00058,0.14355c0.01756,0.04158 0.03468,0.08334 0.05185,0.12509c0.0669,0.16269 0.18981,0.28288 0.22583,0.45661c0.02328,0.11226 -0.08173,0.2662 -0.02424,0.36384c0.06227,0.10577 0.20607,0.08759 0.26462,0.22008c0.10345,0.14037 0.42852,0.97001 0.08548,0.99874c-0.04707,0.00394 -0.26343,-0.34939 -0.28028,-0.39036c-0.03889,-0.09456 -0.06824,-0.20309 -0.11921,-0.29143c-0.02911,-0.05046 -0.15907,-0.17029 -0.11859,-0.1284c0.25837,0.26741 -0.0784,0.46898 -0.14522,0.31905c-0.00225,0.00521 -0.00458,0.01048 -0.00701,0.01584c0.05055,0.59826 -0.21254,0.17152 -0.32931,-0.16495c-0.03559,-0.10255 -0.28688,0.1208 -0.24089,0.21913c0.0764,0.18578 0.39133,1.15759 -0.11691,0.82811c-0.06757,-0.04381 -0.13969,-0.28834 -0.19561,-0.36483c-0.05743,-0.13881 -0.05498,-0.38398 -0.17617,-0.48991c-0.094,-0.08217 -0.33742,-0.12396 -0.43666,-0.18536c-0.0974,-0.06026 -0.00274,0.24035 -0.06292,0.33781c-0.33277,-0.15127 -0.21568,-0.33307 -0.40171,-0.54618c-0.08133,-0.09317 -0.21079,0.01436 -0.25692,-0.15354c-0.04211,-0.15326 -0.09171,-0.34612 0.08705,-0.41962c0.10668,-0.04232 0.23002,0.02428 0.33895,0.06039c0.27149,0.08999 0.68952,-0.34339 1.00301,-0.27918c0.36832,-0.05584 0.42439,-0.24016 0.65351,-0.482c0.02919,-0.03081 0.07581,-0.0427 0.10537,-0.06277l-0.00359,-0.04631c0,0 -0.00194,-0.02835 0.01981,-0.04149z" stroke-linecap="butt"/><path d="M240.95595,180.92159l0.03587,0.04966c0.0361,-0.00418 0.07671,-0.03069 0.12143,-0.02373c0.35103,0.05462 0.54027,0.19416 0.82963,-0.0537c0.15401,-0.32363 0.78797,-0.23188 0.89294,-0.54682c0.04212,-0.12636 0.06858,-0.29537 0.17398,-0.3408c0.17876,-0.07351 0.30526,0.1619 0.40402,0.35121c0.10819,0.20738 -0.06611,0.20587 -0.04288,0.36697c0.05313,0.36849 0.2806,0.45511 0.18576,0.88244c-0.12023,-0.04856 -0.30597,-0.42984 -0.32053,-0.28864c-0.01483,0.14387 -0.14107,0.38702 -0.1353,0.5475c0.00745,0.20689 0.21153,0.45205 0.28824,0.63945c0.02623,0.12329 0.18056,0.4294 0.1721,0.52937c-0.06356,0.75192 -0.65811,-0.48801 -0.76108,-0.73841c-0.05084,-0.13711 -0.40124,-0.1548 -0.34006,-0.02201c0.20075,0.43568 0.37942,1.08321 -0.08126,0.43827c-0.00603,-0.0034 -0.01193,-0.00679 -0.01772,-0.01018c0.07969,0.20635 -0.30919,0.28122 -0.35939,-0.20176c-0.00787,-0.07568 0.00527,0.15247 0.02772,0.22739c0.0393,0.13117 0.10954,0.26484 0.16194,0.3923c0.02271,0.05522 0.17161,0.59015 0.13727,0.62505c-0.25028,0.25431 -0.72073,-0.85063 -0.76834,-1.07759c-0.07074,-0.18193 0.03923,-0.28234 -0.00699,-0.44042c-0.04267,-0.14592 -0.23915,-0.21443 -0.31647,-0.34683c-0.11968,-0.20491 -0.13777,-0.4276 -0.22794,-0.64688c-0.02314,-0.05627 -0.04632,-0.11251 -0.06906,-0.16893c-0.03986,-0.01537 -0.07677,-0.0546 -0.11816,-0.14522c0,0 -0.02302,-0.05598 0.01851,-0.07306c0.04153,-0.01707 0.06455,0.0389 0.06455,0.0389c0.00127,0.00383 0.00256,0.00749 0.00386,0.01101c0.02522,-0.00472 0.04735,0.02547 0.04735,0.02547z" data-paper-data="{&quot;index&quot;:null}" stroke-linecap="butt"/><path d="M231.98826,181.36578c0.01729,-0.04144 0.05873,-0.02415 0.05873,-0.02415l0.03471,0.01618c0.00363,-0.00865 0.01097,-0.01702 0.02476,-0.0227c0.04153,-0.01707 0.05861,0.02445 0.05861,0.02445c0.00264,0.00642 0.00546,0.01306 0.00846,0.01989c0.10968,-0.02419 0.29046,-0.15363 0.39131,-0.11767c0.27303,0.09735 0.17572,0.52395 0.27402,0.68179c0.16574,0.28026 0.05837,0.83171 0.06963,1.1514c0.00708,0.20099 0.15985,0.38701 0.07662,0.59168c0.00079,0.12375 -0.14712,0.39613 -0.32832,0.26142c-0.12501,-0.09294 -0.13361,-0.73587 -0.15944,-0.89804c-0.00663,-0.04166 -0.22468,-0.18302 -0.25955,-0.34451c0.02427,-0.17677 0.13093,-0.15635 0.19225,-0.27316c0.02751,-0.0524 -0.08225,-0.24031 -0.08644,-0.30317c-0.01969,-0.29501 -0.12354,-0.42687 -0.23024,-0.66285c-0.02422,-0.00389 -0.04896,-0.01419 -0.07437,-0.03322l-0.02661,-0.0086c0,0 -0.04145,-0.01729 -0.02415,-0.05873z" stroke-linecap="butt"/><path d="M240.7581,172.61588c-0.01708,-0.04153 0.02445,-0.0586 0.02445,-0.0586l0.0741,-0.00363c0.15236,0.17462 0.39271,0.31031 0.5064,0.5965c-0.01324,0.17977 -0.07752,0.58064 -0.04304,0.75402c0.06144,0.30881 0.30418,0.55361 0.39658,0.83097c0.00496,0.06787 0.05057,0.27884 -0.04087,0.31763c-0.10238,0.04343 -0.14635,-0.22206 -0.21314,-0.25862c-0.15994,-0.08756 -0.38275,0.01232 -0.53315,-0.06471c-0.23857,-0.12219 -0.0926,-0.53408 -0.02052,-0.70193c0.05278,-0.1229 0.18869,-0.26068 0.22167,-0.38107c0.04959,-0.18102 -0.2942,-0.70064 -0.31431,-0.97335c0,0 -0.00118,-0.01718 0.00857,-0.03099c-0.00912,-0.00701 -0.0182,-0.01392 -0.02721,-0.02076l0.01908,0.019c0,0 -0.04153,0.01707 -0.05861,-0.02445z" stroke-linecap="butt"/><path d="M235.37368,173.21832c0.00163,-0.02211 0.00463,-0.06288 0.00626,-0.08499c0.05029,-0.49108 0.62009,0.12596 0.71484,0.2654c0.02215,0.03261 0.08666,0.16729 0.1223,0.17757c0.19091,0.05508 0.35727,-0.15721 0.59479,0.00501c0.16758,0.38644 0.19067,0.70509 0.28949,1.09113c0.05525,0.21582 0.26199,0.42558 0.17093,0.64383c-0.21206,0.09846 -0.72813,-0.06528 -0.78591,-0.3454c-0.05289,-0.25646 0.14005,-0.56285 -0.0955,-0.72189c-0.46553,-0.20944 -1.00381,-0.49223 -1.10895,-1.03099c0,0 -0.00861,-0.04407 0.03547,-0.05267c0.04408,-0.0086 0.05268,0.03547 0.05268,0.03547c0.00115,0.00588 0.00235,0.01172 0.00361,0.01753z" stroke-linecap="butt"/><path d="M246.20938,178.559c0.01261,-0.00519 0.02297,-0.00497 0.03128,-0.00215c0.00393,-0.00785 0.01113,-0.01529 0.02374,-0.02048c0.04153,-0.01707 0.05861,0.02445 0.05861,0.02445c0.01386,0.03372 0.02741,0.0675 0.04068,0.10132c0.46423,-0.16237 0.7651,1.05247 0.78894,1.37829c0.00776,0.12637 0.30809,0.91163 -0.09349,0.82493c-0.12212,-0.02637 -0.26587,-0.69017 -0.31388,-0.80696c-0.14902,-0.42329 -0.27189,-0.85784 -0.43637,-1.28922c-0.00188,0.00061 -0.00377,0.00124 -0.00565,0.00189c-0.02644,-0.02062 -0.05288,-0.04123 -0.07932,-0.06185l-0.03897,-0.09161c0,0 -0.01708,-0.04153 0.02445,-0.05861z" stroke-linecap="butt"/><g stroke-linecap="butt"><path d="M245.20989,178.7045l-4.1915,-6.23632l0.90944,0.07408l3.87422,5.76424z"/><path d="M237.53693,185.55993l-6.64529,-0.08753l-0.67859,-0.7599l7.33218,0.21633z"/><path d="M246.38842,178.12797c0.01333,0.01983 0.31012,0.56371 0.5535,1.24376c0.08818,0.2464 0.15618,0.51431 0.22306,0.77559c-0.34385,-0.00572 -0.84582,0.22931 -1.05015,0.3192c-0.12776,0.21903 -0.08066,0.40593 -0.16094,0.60821c-0.04246,0.107 -0.21476,0.22067 -0.3159,0.3234c-1.19569,-0.06223 -2.71629,0.08785 -3.99128,0.94479c-1.62063,1.08924 -2.32184,3.12855 -2.64262,4.2914c-0.13882,0.50325 1.35941,0.61955 1.35941,0.61955c0,0 -1.95701,-0.04557 -2.38944,-0.45101c-0.22824,-0.214 -0.65876,-0.33794 -0.91006,-0.57435c-0.63537,-0.5977 -1.06298,-1.28395 -1.08682,-1.31943c-0.2444,-0.36363 1.84796,-1.90933 4.78448,-3.88299c2.93651,-1.97366 5.38237,-3.26175 5.62677,-2.89811z"/><path d="M246.53127,183.07671c0,0 0.08201,-0.19119 0.15305,-0.44188c0.01266,0.0318 0.02494,0.06433 0.0369,0.09733c-0.11041,0.208 -0.18996,0.34455 -0.18996,0.34455z"/><path d="M237.88122,186.88333c0,0 -0.54654,-0.242 -0.86194,-0.55646c-0.35338,-0.35233 -0.71698,-0.81091 -0.80994,-0.9245c-0.15875,-0.19398 -0.35362,-0.62036 -0.35362,-0.62036c0,0 2.77247,-3.18756 4.64467,-4.52604c2.39829,-1.71459 5.85822,-2.17238 5.85822,-2.17238c0,0 0.27034,0.49679 0.35647,0.70377c0.04229,0.10161 0.2928,0.87051 0.4513,1.35998c-0.34389,-0.00638 -0.84693,0.22916 -1.05154,0.31917c-0.12424,0.213 -0.08312,0.39562 -0.1546,0.59154c-1.18766,0.4669 -2.87999,1.1839 -3.84355,1.82424c-1.58939,1.05625 -4.23547,4.00104 -4.23547,4.00104z"/><path d="M248.81689,185.65242c0,0 -0.82464,3.7304 -1.30389,4.71924c-0.12643,0.26085 -0.38664,0.4075 -0.38664,0.4075c0,0 -0.34033,0.19808 -0.74164,0.19865c-0.37489,0.00053 -0.97533,-0.07037 -1.62838,-0.16906c0.04944,-0.03307 0.09889,-0.06731 0.14825,-0.1032l0.00107,0.00258l0.08293,-0.03442h0.00001c0.02285,-0.00948 0.03373,-0.03566 0.02432,-0.05856c-0.00766,-0.01865 -0.02645,-0.02938 -0.04553,-0.02766l-0.08858,0.00586c-0.29847,0.01977 -0.59599,0.03521 -0.89502,0.04236c-0.12712,0.00351 -0.58032,-0.03454 -0.67299,-0.11885c-0.13327,-0.12123 0.1433,-0.40289 0.05793,-0.58027c-0.08058,-0.16743 -0.38544,-0.11052 -0.54097,-0.12984c-0.10739,-0.01334 -0.27961,0.07548 -0.32382,-0.0233c-0.0367,-0.08202 0.0593,-0.39404 0.05296,-0.5107c-0.01957,-0.36006 -0.24651,-0.56684 -0.16051,-0.93052c0.05268,-0.22319 -0.00724,-1.10212 -0.36103,-1.08574c-0.20187,0.00934 -0.48895,0.19897 -0.67727,0.27641c-0.45832,0.18846 -0.91663,0.37693 -1.37495,0.56539l-1.54309,-2.12871l-3.27082,-2.76618l3.21441,-4.09041c0.04078,-0.00198 0.08473,-0.0119 0.13216,-0.03091c0.28661,-0.1153 0.87201,-0.25209 1.20524,-0.46414c-0.09441,0.23313 -0.15211,0.52486 -0.22376,0.70529c-0.02003,0.05045 -0.10754,0.25572 -0.06669,0.30396c0.12064,0.14245 0.37165,-0.12165 0.446,-0.18814c0.04472,-0.04874 0.21995,-0.29069 0.29843,-0.27374c0.20243,0.04373 0.29278,0.28555 0.58019,0.08155c0.2407,-0.17085 0.10764,-0.56541 0.1261,-0.80184c0.01308,-0.17773 -0.0271,-0.44433 0.05922,-0.60169c0.00453,-0.00826 0.00904,-0.01637 0.01352,-0.02434l3.97927,-1.15843l1.1661,3.83382c-0.10854,0.20713 -0.06866,0.38669 -0.14551,0.58033c-0.04947,0.12465 -0.27515,0.25837 -0.35925,0.37328c-0.14245,0.19464 0.17993,0.56111 0.35348,0.63219c0.12395,0.04855 0.40506,0.06948 0.49897,0.15476c0.25168,0.22854 0.3859,0.91298 0.51749,1.22883c0.12576,0.15978 0.29168,0.17667 0.42622,0.3215c0.27732,0.29853 0.43235,0.53762 0.76253,0.61348z"/><path d="M244.68679,190.6954c-0.04645,0.02511 -0.09198,0.0547 -0.13379,0.082c-0.11917,-0.01871 -0.23946,-0.03818 -0.35987,-0.05815c0.1647,-0.00594 0.32912,-0.0141 0.49366,-0.02385z"/><path d="M238.54176,186.14393c0,0 -0.81001,-0.77869 -1.33127,-1.22661c-0.60471,-0.51962 -2.06725,-1.68323 -2.06725,-1.68323l3.20106,-4.1217c0.05151,0.00416 0.10842,-0.00504 0.1715,-0.03032c0.28661,-0.11531 0.87201,-0.25209 1.20524,-0.46414c-0.09441,0.23313 -0.15211,0.52487 -0.22376,0.70529c-0.02003,0.05045 -0.10754,0.25572 -0.0667,0.30396c0.12064,0.14245 0.37165,-0.12165 0.446,-0.18814c0.04472,-0.04874 0.21995,-0.29069 0.29842,-0.27374c0.20243,0.04373 0.29279,0.28555 0.5802,0.08156c0.2407,-0.17085 0.10764,-0.56541 0.1261,-0.80184c0.01308,-0.17773 -0.0271,-0.44433 0.05921,-0.60168c0.02056,-0.03747 0.0407,-0.07191 0.06006,-0.10426l3.96495,-1.14272c0,0 0.49164,1.81366 0.72771,2.57774c0.11376,0.36818 0.30717,0.89856 0.44989,1.27992c-0.00996,0.00442 -0.0194,0.0086 -0.02828,0.0125c-0.09998,0.1714 -0.09288,0.32313 -0.12353,0.47794l-5.23505,0.22928z"/><path d="M244.86771,177.01813l1.13263,3.87467c-0.00936,0.06011 -0.022,0.1203 -0.04645,0.18192c-0.04947,0.12465 -0.27516,0.25837 -0.35925,0.37327c-0.14245,0.19464 0.17993,0.56111 0.35348,0.63219c0.12395,0.04855 0.40506,0.06948 0.49897,0.15476c0.25168,0.22854 0.3859,0.91298 0.51749,1.22883c0.12576,0.15978 0.29168,0.17667 0.42622,0.3215c0.13706,0.14755 0.24426,0.28058 0.35749,0.38655l0.71693,1.34313c0,0 -1.23286,4.83554 -1.2352,4.84286c-0.06137,0.19139 -0.35698,0.32784 -0.44373,0.32348c-0.31398,-0.01578 -2.13898,-0.21353 -3.49057,-0.36265c0.04198,-0.12597 0.12523,-0.27353 0.07299,-0.38206c-0.08058,-0.16743 -0.38544,-0.11053 -0.54097,-0.12984c-0.10739,-0.01334 -0.27961,0.07548 -0.32382,-0.0233c-0.0367,-0.08202 0.0593,-0.39404 0.05296,-0.5107c-0.01957,-0.36006 -0.24651,-0.56684 -0.16051,-0.93052c0.05268,-0.22319 -0.00725,-1.10212 -0.36103,-1.08574c-0.20186,0.00935 -0.48895,0.19897 -0.67727,0.27641c-0.38627,0.15884 -0.77255,0.31768 -1.15882,0.47652l-1.53456,-2.05348l-3.18922,-2.75502l3.12894,-4.15209c0.30619,-0.10853 0.81483,-0.23885 1.11662,-0.43089c-0.09441,0.23313 -0.15211,0.52486 -0.22376,0.70529c-0.02003,0.05045 -0.10754,0.25572 -0.06669,0.30396c0.12064,0.14245 0.37165,-0.12165 0.446,-0.18814c0.04472,-0.04874 0.21995,-0.29069 0.29843,-0.27374c0.20243,0.04373 0.29278,0.28555 0.58019,0.08155c0.2407,-0.17085 0.10764,-0.56541 0.1261,-0.80183c0.00923,-0.1254 -0.00805,-0.29505 0.01129,-0.43934z"/><path d="M238.64862,185.92154l-3.20942,-2.77414l3.10037,-4.07468c0.29416,-0.11336 0.8572,-0.24844 1.18145,-0.45478c-0.09441,0.23313 -0.15211,0.52487 -0.22376,0.70529c-0.02003,0.05045 -0.10754,0.25572 -0.0667,0.30396c0.12064,0.14245 0.37165,-0.12165 0.446,-0.18814c0.04472,-0.04874 0.21995,-0.29069 0.29843,-0.27374c0.20243,0.04373 0.29279,0.28555 0.58019,0.08155c0.2407,-0.17085 0.10764,-0.56541 0.1261,-0.80184c0.01015,-0.13787 -0.01176,-0.32923 0.0182,-0.48158l3.96043,-0.99325l1.09339,4.04177l-4.32482,1.57218z"/><path d="M241.15479,183.06c0.57181,0.85077 0.36236,1.99278 -0.46783,2.55075c-0.83018,0.55798 -1.96672,0.32062 -2.53853,-0.53014c-0.57181,-0.85077 -0.36236,-1.99277 0.46783,-2.55075c0.83018,-0.55798 1.96672,-0.32062 2.53853,0.53014z"/><path d="M245.3477,180.21095c0.23977,0.35673 0.34216,0.76467 0.31905,1.15929c-0.02859,0.02662 -0.05373,0.05263 -0.07211,0.07775c-0.05726,0.07823 -0.03942,0.18423 0.01367,0.28765c-0.10788,0.40698 -0.35553,0.77544 -0.72843,1.02607c-0.83018,0.55798 -1.96672,0.32062 -2.53853,-0.53015c-0.57181,-0.85077 -0.36236,-1.99277 0.46783,-2.55075c0.83018,-0.55798 1.96672,-0.32062 2.53853,0.53014z"/><path d="M240.50938,182.83764c0.62715,0.9331 0.61829,2.03718 -0.01979,2.46603c-0.63807,0.42885 -1.66373,0.02009 -2.29088,-0.91301c-0.62715,-0.9331 -0.61828,-2.03718 0.01979,-2.46603c0.63807,-0.42885 1.66373,-0.02009 2.29088,0.91301z"/><path d="M244.69358,179.95326c0.62715,0.9331 0.61829,2.03717 -0.01979,2.46603c-0.63807,0.42885 -1.66373,0.0201 -2.29088,-0.913c-0.62715,-0.9331 -0.61829,-2.03718 0.01979,-2.46603c0.63807,-0.42885 1.66374,-0.02009 2.29088,0.91301z"/><path d="M247.36572,186.56478c0,0 -1.21748,0.11492 -2.5245,0.99339c-1.30702,0.87847 -1.89797,2.00606 -1.89797,2.00606c0,0 0.07715,-1.97256 1.38416,-2.85102c1.30702,-0.87847 3.03831,-0.14843 3.03831,-0.14843z"/></g><path d="M230.77491,167.28835c-0.01244,-0.04315 0.03071,-0.05559 0.03071,-0.05559l0.09205,-0.02513c0.33942,-0.00974 0.51899,0.08212 0.68793,0.35364c0.09525,0.1574 0.26487,0.22643 0.37575,0.35783c0.2295,0.27196 0.5691,0.8048 0.96612,0.81107c0.66153,0.01379 1.21616,0.12654 1.85696,0.21492c0.61791,0.08522 1.24124,-0.0566 1.85534,-0.14654c0.1613,-0.0364 0.38028,-0.12443 0.54676,-0.09079c0.28125,0.05682 0.63126,0.96271 0.5586,1.22138c-0.0114,0.14602 0.1434,0.28323 0.12268,0.42241c-0.0199,0.13362 -0.20489,0.16292 -0.29315,0.23939c-0.27127,0.23503 -0.54755,0.4631 -0.82579,0.68981c-0.23846,0.25127 -0.76128,1.05102 -1.14038,1.02809c-0.13259,-0.00802 -0.16623,-0.16169 -0.29433,-0.20073c-0.49909,-0.15786 -1.19668,0.51865 -1.62411,0.74623c-0.65436,0.26955 -1.04213,0.51092 -1.49122,1.06171c-0.15562,0.09601 -0.75217,0.51003 -0.93949,0.42543c-0.25166,-0.11367 -0.18211,-0.70974 -0.18731,-0.89488c-0.00489,-0.23026 -0.07161,-0.58579 -0.00792,-0.79701c0.10828,-0.35907 0.37715,-0.57392 0.34808,-0.97003c-0.01386,-0.2088 0.10725,-0.41801 0.086,-0.61576c-0.04136,-0.385 -0.36333,-0.78731 -0.57275,-1.08741c-0.03979,-0.11285 -0.1089,-0.19913 0.00262,-0.29952c0.13932,-0.12543 0.64042,-0.15202 0.71872,-0.32698c0.02469,-0.05517 -0.02907,-0.26554 -0.01688,-0.34483c0.02522,-0.164 0.05433,-0.2324 -0.12052,-0.31147c-0.12776,-0.06679 -0.49928,-0.25526 -0.51385,-0.42407c-0.0251,-0.29086 0.12301,-0.6202 -0.01001,-0.93461c0,0 -0.00846,-0.02057 0.00101,-0.03871c-0.02708,-0.00048 -0.0556,-0.00006 -0.08571,0.00121l-0.07029,0.02167c0,0 -0.04315,0.01244 -0.05559,-0.03071z" stroke-linecap="butt"/></g></g></g></svg>