<svg version="1.1" xmlns="http://www.w3.org/2000/svg" xmlns:xlink="http://www.w3.org/1999/xlink" width="492" height="367.57853" viewBox="0,0,492,367.57853"><defs><linearGradient x1="240.5" y1="332" x2="240.5" y2="365" gradientUnits="userSpaceOnUse" id="color-1"><stop offset="0" stop-color="#ffffff"/><stop offset="1" stop-color="#ffffff" stop-opacity="0"/></linearGradient><linearGradient x1="240.89463" y1="-2" x2="240.89463" y2="32.69503" gradientUnits="userSpaceOnUse" id="color-2"><stop offset="0" stop-color="#ffffff" stop-opacity="0"/><stop offset="1" stop-color="#ffffff"/></linearGradient><linearGradient x1="-3.5" y1="180.23215" x2="29.5" y2="180.23215" gradientUnits="userSpaceOnUse" id="color-3"><stop offset="0" stop-color="#ffffff" stop-opacity="0"/><stop offset="1" stop-color="#ffffff"/></linearGradient><linearGradient x1="450.5" y1="179.71073" x2="483.5" y2="179.71073" gradientUnits="userSpaceOnUse" id="color-4"><stop offset="0" stop-color="#ffffff"/><stop offset="1" stop-color="#ffffff" stop-opacity="0"/></linearGradient><linearGradient x1="428.30655" y1="36.30298" x2="446.00719" y2="36.30298" gradientUnits="userSpaceOnUse" id="color-5"><stop offset="0" stop-color="#000000"/><stop offset="1" stop-color="#000000" stop-opacity="0"/></linearGradient><linearGradient x1="428.30655" y1="40.78415" x2="446.00719" y2="40.78415" gradientUnits="userSpaceOnUse" id="color-6"><stop offset="0" stop-color="#000000"/><stop offset="1" stop-color="#000000" stop-opacity="0"/></linearGradient></defs><g transform="translate(5.5,2.57853)"><g data-paper-data="{&quot;isPaintingLayer&quot;:true}" fill-rule="nonzero" stroke-linejoin="miter" stroke-miterlimit="10" stroke-dasharray="" stroke-dashoffset="0" style="mix-blend-mode: normal"><path d="M-5.5,365l33,-33h424l35,33z" fill="url(#color-1)" stroke="none" stroke-width="0" stroke-linecap="butt"/><path d="M485.5,-2l-37,33l-418.21073,1.69503l-34,-33.48429z" data-paper-data="{&quot;index&quot;:null}" fill="url(#color-2)" stroke="none" stroke-width="0" stroke-linecap="butt"/><path d="M-3.5,-2l33,33v299.46429l-33,32z" fill="url(#color-3)" stroke="none" stroke-width="0" stroke-linecap="butt"/><path d="M483.5,362l-33,-30v-303.90576l33,-30.67277z" data-paper-data="{&quot;index&quot;:null}" fill="url(#color-4)" stroke="none" stroke-width="0" stroke-linecap="butt"/><path d="M28,331.5v-303h424v303z" fill="#ffffff" stroke="#000000" stroke-width="5" stroke-linecap="butt"/><path d="M34.75,326.8202v-74.3202h142.5v74.3202z" fill="#000000" stroke="none" stroke-width="0" stroke-linecap="butt"/><text transform="translate(39.59015,266.55803) scale(0.29391,0.29391)" font-size="40" xml:space="preserve" fill="#ffffff" fill-rule="nonzero" stroke="none" stroke-width="1" stroke-linecap="butt" stroke-linejoin="miter" stroke-miterlimit="10" stroke-dasharray="" stroke-dashoffset="0" font-family="Serif" font-weight="normal" text-anchor="start" style="mix-blend-mode: normal"><tspan x="0" dy="0">Name: Krakin</tspan><tspan x="0" dy="46.150000000000006px">Age: 33</tspan><tspan x="0" dy="46.150000000000006px">Gender: Male</tspan><tspan x="0" dy="46.150000000000006px">Role: Amalgam</tspan><tspan x="0" dy="46.150000000000006px">Status: Detained</tspan></text><path d="M194.25,59v-19.5h86v19.5z" fill="#000000" stroke="none" stroke-width="0" stroke-linecap="butt"/><text transform="translate(196.5,53.9009) scale(0.42192,0.42192)" font-size="40" xml:space="preserve" fill="#ffffff" fill-rule="nonzero" stroke="none" stroke-width="1" stroke-linecap="butt" stroke-linejoin="miter" stroke-miterlimit="10" stroke-dasharray="" stroke-dashoffset="0" font-family="Serif" font-weight="normal" text-anchor="start" style="mix-blend-mode: normal"><tspan x="0" dy="0">Description:</tspan></text><path d="M429.07853,298.09424h-241v-236.31414" fill="none" stroke="#000000" stroke-width="5" stroke-linecap="round"/><path d="M37.83201,243v-205h136.5312v205z" fill="#174752" stroke="#151515" stroke-width="6.5" stroke-linecap="butt"/><path d="M37.83201,243v-205h136.5312v205z" fill="#ffffff" stroke="#151515" stroke-width="6.5" stroke-linecap="butt"/><text transform="translate(349.55711,323.11998) scale(0.35959,0.35959)" font-size="40" xml:space="preserve" fill="#000000" fill-rule="nonzero" stroke="none" stroke-width="1" stroke-linecap="butt" stroke-linejoin="miter" stroke-miterlimit="10" stroke-dasharray="" stroke-dashoffset="0" font-family="Serif" font-weight="normal" text-anchor="start" style="mix-blend-mode: normal"><tspan x="0" dy="0">Click this to exit</tspan></text><text transform="translate(194.75,78.10475) scale(0.36265,0.36265)" font-size="40" xml:space="preserve" fill="#000000" fill-rule="nonzero" stroke="none" stroke-width="1" stroke-linecap="butt" stroke-linejoin="miter" stroke-miterlimit="10" stroke-dasharray="" stroke-dashoffset="0" font-family="Serif" font-weight="normal" text-anchor="start" style="mix-blend-mode: normal"><tspan x="0" dy="0">We used to call him Krok, but the</tspan><tspan x="0" dy="48px">twisted science department had other ideas</tspan><tspan x="0" dy="48px">and tore off his gigantic mouth.</tspan><tspan x="0" dy="48px">They essentially rebuilt his face and</tspan><tspan x="0" dy="48px">thought it'd be funny to make the mouth</tspan><tspan x="0" dy="48px">lazily.</tspan><tspan x="0" dy="48px"> </tspan><tspan x="0" dy="48px">We may as well keep him detained for</tspan><tspan x="0" dy="48px">now as he's so mentally lost at this</tspan><tspan x="0" dy="48px">point that he can't even form a sentence.</tspan></text><path d="M399.40297,43.92097l46.38016,-0.22406" fill="none" stroke="#000000" stroke-width="3" stroke-linecap="round"/><g stroke="none" stroke-linecap="butt"><g fill="#000000" stroke-width="1" font-weight="normal" font-size="40" text-anchor="start"><text transform="translate(399.40297,42.80068) scale(0.23516,0.23516)" font-size="40" xml:space="preserve" fill="#000000" fill-rule="nonzero" stroke="none" stroke-width="1" stroke-linecap="butt" stroke-linejoin="miter" stroke-miterlimit="10" stroke-dasharray="" stroke-dashoffset="0" font-family="Pixel" font-weight="normal" text-anchor="start" style="mix-blend-mode: normal"><tspan x="0" dy="0">DONK</tspan></text><text transform="translate(398.8418,52.32215) scale(0.23516,0.23516)" font-size="40" xml:space="preserve" fill="#000000" fill-rule="nonzero" stroke="none" stroke-width="1" stroke-linecap="butt" stroke-linejoin="miter" stroke-miterlimit="10" stroke-dasharray="" stroke-dashoffset="0" font-family="Sans Serif" font-weight="normal" text-anchor="start" style="mix-blend-mode: normal"><tspan x="0" dy="0">Industries</tspan></text></g><path d="M428.30655,37.64733v-2.6887h17.70064v2.6887z" fill="url(#color-5)" stroke-width="0"/><path d="M428.30655,42.09116v-2.61402h17.70064v2.61402z" fill="url(#color-6)" stroke-width="0"/></g><text transform="translate(186.81898,314.36666) scale(0.3147,0.3147)" font-size="40" xml:space="preserve" fill="#000000" fill-rule="nonzero" stroke="none" stroke-width="1" stroke-linecap="butt" stroke-linejoin="miter" stroke-miterlimit="10" stroke-dasharray="" stroke-dashoffset="0" font-family="Serif" font-weight="normal" text-anchor="start" style="mix-blend-mode: normal"><tspan x="0" dy="0">Written by: Nile Parkas</tspan></text><path d="M84.90674,238.51378c0,0 -0.39843,-63.58717 -0.49751,-79.50564c-0.03418,-5.49247 5.13399,-24.76638 25.21068,-24.87404c19.81783,-0.10628 24.99414,19.86565 24.9892,24.85762c-0.00479,3.10422 -0.00455,6.37902 -0.00023,9.75956c-1.16496,0.27397 -2.15204,1.00918 -2.75798,2.00238c-1.25421,0.76518 -2.09703,2.13815 -2.11912,3.70959l-0.00586,0.35767c-0.56684,0.2731 -1.02339,0.6605 -1.36967,1.03189l-0.01889,-14.67861c0,0 0.04734,-2.08802 -1.76606,-2.12497c-2.15372,-0.04389 -1.84705,2.09901 -1.84705,2.09901l0.0336,20.17754c-1.3498,2.99216 -1.30562,6.07493 -1.48631,10.48392c-0.12567,3.06641 -0.39535,6.13305 -0.32491,9.20122c0.10617,4.62463 1.207,9.17264 1.81838,13.7579c0.01623,0.12172 0.03261,0.24341 0.04913,0.36509l0.03027,18.18084c-0.59937,1.7882 -1.22413,3.58388 -2.09345,5.22568l-28.13264,0.04527l-0.19151,-77.63346c0,0 0.17526,-1.96656 -1.80956,-1.97695c-1.9508,-0.01021 -1.76572,1.95981 -1.76572,1.95981l0.22143,77.52142z" fill="#ffffff" stroke="#000000" stroke-width="2" stroke-linecap="butt"/><path d="" fill="#ffffff" stroke="#000000" stroke-width="2" stroke-linecap="butt"/><path d="" fill="#ffffff" stroke="#000000" stroke-width="2" stroke-linecap="butt"/><path d="M83.32518,244.5379v-47.15956h7.95934v47.15956z" fill="#000000" stroke="none" stroke-width="0" stroke-linecap="butt"/><path d="" fill="#000000" stroke="none" stroke-width="0" stroke-linecap="butt"/><path d="" fill="#000000" stroke="none" stroke-width="0" stroke-linecap="butt"/><path d="M128.66865,213.32783c-0.02147,0.57922 -0.11388,1.06631 -0.24053,1.51053v-1.91529z" fill="#000000" stroke="none" stroke-width="0" stroke-linecap="butt"/><path d="" fill="#000000" stroke="none" stroke-width="0" stroke-linecap="butt"/><path d="M119.14464,168.40922c-0.35816,0 -0.64849,-0.31192 -0.64849,-0.69669c0,-0.38478 0.29034,-0.6967 0.64849,-0.6967c0.35816,0 0.64849,0.31193 0.64849,0.6967c0,0.38478 -0.29034,0.69669 -0.64849,0.69669z" fill="#000000" stroke="none" stroke-width="1.5" stroke-linecap="butt"/><path d="M115.84615,171.26278c-2.79906,-0.21181 -4.10904,-1.20858 -3.86911,-1.73824c0.07393,-0.16319 1.78501,0.71652 4.37112,0.87905c4.01907,0.25259 5.33682,-0.4256 5.33682,-0.4256v0.90691c0,0 -1.5135,0.70518 -5.83884,0.37788z" fill="#000000" stroke="#000000" stroke-width="0" stroke-linecap="butt"/><path d="M98.40477,167.71254c0,-0.38478 0.29034,-0.6967 0.64849,-0.6967c0.35816,0 0.6485,0.31193 0.6485,0.6967c0,0.38478 -0.29035,0.69669 -0.6485,0.69669c-0.35816,0 -0.64849,-0.31192 -0.64849,-0.69669z" fill="#000000" stroke="none" stroke-width="1.5" stroke-linecap="butt"/><path d="M102.35176,171.26278c-4.32534,0.32732 -5.83884,-0.37788 -5.83884,-0.37788v-0.90691c0,0 1.31777,0.67819 5.33682,0.4256c2.58611,-0.16253 4.29721,-1.04225 4.37113,-0.87905c0.23993,0.52965 -1.07004,1.52643 -3.86911,1.73824z" fill="#000000" stroke="#000000" stroke-width="0" stroke-linecap="butt"/><path d="M109.42573,209.36215c-0.51356,0 -0.92989,-0.44726 -0.92989,-0.99901c0,-0.55173 0.41632,-0.99901 0.92989,-0.99901c0.51356,0 0.92989,0.44726 0.92989,0.99901c0,0.55173 -0.41632,0.99901 -0.92989,0.99901z" data-paper-data="{&quot;index&quot;:null}" fill="#000000" stroke="none" stroke-width="1.5" stroke-linecap="butt"/><path d="M94.33565,238.52352v-80.30699c0,0 0.47485,-6.55588 0.47485,-9.86266c0,-3.03034 -0.47485,-9.22118 -0.47485,-9.22118c0,0 1.67635,-1.58521 2.91958,-2.52511c1.24323,-0.93989 3.24334,-1.88888 3.24334,-1.88888c0,0 -0.37727,27.02177 9.13027,26.97437c9.67914,-0.04825 8.67376,-26.97437 8.67376,-26.97437c0,0 2.45369,1.02376 3.86661,1.98511c1.41291,0.96135 2.9811,2.42887 2.9811,2.42887c0,0 -0.47485,6.34945 -0.47485,9.56128c0,3.26205 0.47485,9.86266 0.47485,9.86266v79.96689z" fill="#ffffff" stroke="#000000" stroke-width="2" stroke-linecap="butt"/><path d="M94.01694,241.81302v-75.91867h32.24814v75.91867z" fill="#000000" stroke="#000000" stroke-width="2" stroke-linecap="butt"/><path d="M83.4139,172.17566v-10.94776h15.6775v22.31658l-7.72162,-6.99093l0.08129,9.72517l-8.04558,-0.06163l-0.00268,-6.75829l0.0111,-7.28315z" fill="#000000" stroke="#000000" stroke-width="2" stroke-linecap="butt"/><path d="M120.56815,183.5445v-22.31658h15.6775v7.44963c-0.20316,-0.02863 -0.41075,-0.04343 -0.62181,-0.04343c-1.59784,0 -2.9975,0.84853 -3.77294,2.11957c-1.25421,0.76518 -2.09703,2.13815 -2.11912,3.70959l-0.00586,0.35767c-1.45679,0.70188 -2.18518,2.15868 -2.18518,2.15868l0.23688,0.03302c-0.01049,0.01102 -0.02095,0.02204 -0.03139,0.03304z" fill="#000000" stroke="#000000" stroke-width="2" stroke-linecap="butt"/><path d="M93.90122,156.50013h-10.19037l-1.04516,-10.66704l55.26319,-0.42106l-2.09033,11.08811h-7.9694l-7.05487,9.40384h-21.42591z" fill="#000000" stroke="#000000" stroke-width="2" stroke-linecap="round"/><path d="M83.58021,155.23691h10.71296l4.31131,4.63174v7.71956l-2.94706,8.01938l0.59542,-6.33511l-1.4371,-2.66676l-1.6984,-2.66676l-3.00486,-2.38605l-2.09033,-0.70178l-2.22098,0.42106l-2.09033,1.26321z" fill="#ffffff" stroke="#ffffff" stroke-width="2" stroke-linecap="round"/><path d="M136.27402,162.53542l-2.09033,-1.26321l-2.22098,-0.42106l-2.09033,0.70178l-3.00486,2.38605l-1.69839,2.66676l-1.4371,2.66676l2.36667,11.94405l-4.7183,-13.62832v-7.71956l4.31131,-4.63174h10.71295z" data-paper-data="{&quot;index&quot;:null}" fill="#ffffff" stroke="#ffffff" stroke-width="2" stroke-linecap="round"/><path d="M132.35453,145.38989l-7.51771,2.33424l-7.80739,2.15587l-8.43449,3.16643l-8.30907,-3.53697l-6.58455,-2.02112l-6.58455,-2.02112l-4.86003,-0.84213l8.30907,-9.09505c0,0 12.84317,-1.98214 18.9664,-1.98214c6.77149,0 19.91378,1.98214 19.91378,1.98214l8.30907,8.92663z" fill="#ffffff" stroke="#ffffff" stroke-width="2" stroke-linecap="round"/><g fill="#ffffff" stroke="#000000" stroke-width="2" stroke-linecap="butt"><path d="M82.73176,197.69472v-10.89822h9.03761v10.89822z"/><path d=""/></g><g fill="#ffffff" stroke="#000000" stroke-width="2" stroke-linecap="butt"><path d="M82.73176,245.69642v-37.42547h9.03761v37.42547z"/><path d=""/></g><path d="" fill="#000000" stroke="none" stroke-width="0" stroke-linecap="butt"/><path d="M75.36599,98.89522c0,0 4.73391,-4.54848 4.83247,-5.21344c0.25849,-1.74403 -0.12885,-30.85626 27.62616,-31.93208c34.28433,-0.70173 29.96661,27.15069 31.8991,32.40558c2.64973,7.20525 4.7288,13.36474 4.7288,13.36474c0,0 -2.1254,-1.57726 -3.13354,-2.40714c-0.94029,-0.77402 -2.91981,-2.41627 -2.91981,-2.41627c0,0 2.37422,7.94818 1.00689,15.89543c-1.19997,7.28216 -5.60532,13.23053 -5.60532,13.23053l-0.8873,-1.80296c0,0 -0.78549,1.6882 -1.65909,2.55982c-0.87362,0.87161 -2.64122,2.23721 -2.64122,2.23721l-0.0707,-2.84513c0,0 -5.42273,8.46268 -18.70329,8.35023c-12.52453,-0.19622 -20.02504,-8.19942 -20.02504,-8.19942l-0.08925,2.03913c0,0 -2.9915,-2.52911 -4.74786,-7.45618c-2.09337,-5.8725 -2.48817,-9.4038 -2.48817,-9.4038c0,0 -1.7966,1.45871 -4.39115,2.13096c-3.25112,0.84238 -5.33559,0.26519 -5.33559,0.26519c0,0 2.7712,-2.08701 4.28894,-3.66366c1.35188,-1.40436 2.03279,-2.59398 2.03279,-2.59398c0,0 -1.61879,0.83314 -3.25111,1.24272c-1.70314,0.42736 -3.09543,0.4078 -3.09543,0.4078c0,0 3.82114,-3.86904 5.40018,-8.35234c1.49086,-4.23296 1.61276,-8.41611 1.61276,-8.41611c0,0 -1.04586,0.50819 -2.55781,0.61072c-0.95838,0.065 -1.82638,-0.03756 -1.82638,-0.03756z" fill="#000000" stroke="none" stroke-width="1.5" stroke-linecap="butt"/><path d="M88.25891,107.59114c-0.44325,-5.60179 0.25731,-13.17604 0.25731,-13.17604c0,0 2.61961,-0.03168 10.68731,-2.41503c6.19811,-1.83106 15.78201,-7.28696 15.78201,-7.28696c0,0 -1.65909,2.30811 -2.61748,3.42576c-1.01887,1.18819 -3.06689,3.50473 -3.06689,3.50473c0,0 6.02022,-1.28086 11.27141,-3.63249c6.58121,-2.71574 8.13592,-4.64927 9.94698,-3.52757c2.13749,1.32388 0.79117,17.8062 0.55184,22.07513c-0.32385,4.35442 -1.94576,7.29653 -2.41969,9.61679c-0.47394,2.32025 -0.31461,4.71342 -1.69456,12.31979c-0.86118,4.7469 -3.19662,6.85487 -7.69573,11.2607c-4.49911,4.40584 -6.95404,7.10686 -9.9955,7.15985c-2.92698,0.05099 -6.86331,-3.91737 -10.70354,-7.97456c-4.08921,-4.32026 -6.81664,-6.51113 -7.4623,-11.62856c-0.58149,-4.60879 -0.59644,-7.61056 -0.86229,-11.71197c-0.19431,-2.99761 -1.73678,-4.95032 -1.97885,-8.00956z" fill="#ffffff" stroke="#000000" stroke-width="1.5" stroke-linecap="butt"/><path d="M125.18058,95.97748c0,0 1.17078,0.2443 3.2688,0.85279c1.9163,0.55579 3.41746,1.33956 3.41746,1.33956l0.14985,0.89892c0,0 -5.56831,-2.40407 -11.61016,-1.89762c-4.83092,0.40496 -7.65254,2.16015 -7.65254,2.16015l0.03514,-3.20815c0,0 2.40216,-1.30897 6.03993,-1.42523c3.76689,-0.12037 6.21442,0.45413 6.21442,0.45413z" data-paper-data="{&quot;index&quot;:null}" fill="#000000" stroke="none" stroke-width="1.5" stroke-linecap="butt"/><path d="M115.3767,128.9954c0.43811,0.16273 2.36843,1.07487 4.62681,1.99383c2.27636,0.92628 5.54065,1.76116 5.52567,1.88986c-0.01902,0.16333 -8.01475,0.17431 -10.50687,0.48561c-2.08843,0.26087 -5.13744,0.54199 -5.13744,0.54199c0,0 -5.45646,-0.89227 -10.19424,-1.87812c-3.79717,-0.79012 -7.9875,-1.27584 -7.99569,-1.34768c-0.01105,-0.09688 2.97121,-0.54588 5.24152,-1.07122c0.88011,-0.38144 4.17814,-1.1407 4.17814,-1.1407c0,0 3.8065,-0.21327 5.84376,0.44472c2.18291,0.70503 2.17786,1.87839 2.36807,1.89644c0,0 0.90968,-1.34362 1.81948,-1.61651c0.9098,-0.27288 3.90354,-0.31978 4.23081,-0.19823z" fill="#ffffff" stroke="#000000" stroke-width="1.4" stroke-linecap="butt"/><path d="M101.05353,132.4929c3.91041,0.78862 9.15366,2.15628 9.15366,2.15628c0,0 4.44701,-1.19502 6.48781,-1.40897c1.58219,-0.16587 8.6148,-0.54268 8.6488,-0.25636c0.03324,0.27994 -6.93669,9.9085 -16.24345,9.56042c-10.57613,-0.33471 -17.56187,-11.62536 -17.5328,-11.75527c0.02906,-0.12991 5.57558,0.91528 9.48599,1.70391z" fill="#ffffff" stroke="#000000" stroke-width="1.9" stroke-linecap="butt"/><path d="M109.48265,130.19354c-0.79401,0 -2.71755,-2.50427 -2.90849,-4.11976c-0.17084,-1.44542 1.01012,-2.94021 2.90849,-2.94021c1.89838,0 3.22755,0.37695 3.09536,3.21713c-0.11219,2.41038 -1.19699,3.84284 -3.09536,3.84284z" fill="#ffffff" stroke="#000000" stroke-width="1.15" stroke-linecap="butt"/><path d="M112.24937,107.07912c0,0 0.07881,3.0491 0.00442,5.47382c-0.14727,4.80138 -0.83066,21.32248 -0.83066,21.32248l-2.29017,0.00664c0,0 -0.61672,-3.205 -0.86272,-7.29661c-0.33299,-5.53835 -0.34525,-12.51451 -0.58638,-15.0792c-0.22857,-2.43108 -0.68815,-4.38922 -0.68815,-4.38922" fill="#ffffff" stroke="#000000" stroke-width="1.3" stroke-linecap="round"/><path d="M89.56438,115.3666c0,0 -3.78826,-2.70138 -4.73458,-6.89355c-0.99571,-4.41097 -1.12231,-7.47558 0.36878,-7.67462c1.49108,-0.19905 2.07629,1.82567 2.86696,6.41785c0.79066,4.59218 1.49886,8.15032 1.49886,8.15032z" data-paper-data="{&quot;index&quot;:null}" fill="#ffffff" stroke="#000000" stroke-width="1" stroke-linecap="butt"/><path d="M89.40878,112.33455c0,0 -2.73733,-2.24539 -3.3167,-6.49076c-0.3232,-2.3682 1.65656,-1.75135 1.65656,-1.75135" fill="none" stroke="#000000" stroke-width="0.25" stroke-linecap="round"/><path d="M91.72331,107.22228c0.05448,-3.75736 3.71624,-6.86364 7.84316,-6.80382c4.12692,0.05983 6.93365,3.26312 6.87918,7.02049c-0.05448,3.75736 -3.1672,6.75481 -7.29412,6.69498c-4.12692,-0.05983 -7.4827,-3.15428 -7.42822,-6.91165z" fill="#ffffff" stroke="#000000" stroke-width="1.4" stroke-linecap="butt"/><path d="M112.50473,107.22284c0.15633,-3.75451 3.41999,-6.80403 7.50452,-6.80403c4.08453,0 7.12359,3.04626 7.12359,6.80403c0,3.75776 -2.98465,6.9673 -7.45011,7.02171c-4.24747,0.05176 -7.34126,-3.10068 -7.178,-7.02171z" fill="#ffffff" stroke="#000000" stroke-width="1.4" stroke-linecap="butt"/><path d="M94.38196,99.12375c0,0 2.58815,-1.39714 6.16957,-1.75259c3.96866,-0.3939 5.96663,-0.05091 5.96663,-0.05091l0.22665,3.17791c0,0 -2.94601,-0.52279 -6.15844,-0.40027c-4.29623,0.16385 -5.10381,1.10061 -8.37035,1.45259c-2.79895,0.30159 -5.17474,0.122 -5.17474,0.122l-0.01989,-0.94593c0,0 2.76138,0.05682 4.01992,-0.05251c1.03875,-0.09024 3.05366,-0.72052 3.05366,-0.72052z" fill="#000000" stroke="none" stroke-width="1.5" stroke-linecap="butt"/><path d="M131.21985,107.21628c0.79066,-4.59218 1.37586,-6.61689 2.86696,-6.41785c1.49108,0.19904 1.36449,3.26365 0.36878,7.67462c-0.94632,4.19217 -4.73458,6.89355 -4.73458,6.89355c0,0 0.70819,-3.55814 1.49886,-8.15032z" data-paper-data="{&quot;index&quot;:null}" fill="#ffffff" stroke="#000000" stroke-width="1" stroke-linecap="butt"/><path d="M131.53671,104.09245c0,0 1.97976,-0.61686 1.65656,1.75135c-0.57937,4.24536 -3.3167,6.49076 -3.3167,6.49076" data-paper-data="{&quot;index&quot;:null}" fill="none" stroke="#000000" stroke-width="0.25" stroke-linecap="round"/><path d="M99.19788,101.23604l2.73402,6.19322l-2.73402,6.19322l-2.73403,-6.19322z" data-paper-data="{&quot;index&quot;:null}" fill="#a03a00" stroke="none" stroke-width="0" stroke-linecap="butt"/><path d="M91.67075,106.81352c0,0 0.04883,-6.92435 8.14252,-6.77824c7.27451,0.12739 7.33943,7.22552 7.33943,7.22552z" fill="#000000" stroke="#000000" stroke-width="1.15" stroke-linecap="butt"/><path d="M120.09413,101.23408l2.73402,6.19322l-2.73402,6.19322l-2.73403,-6.19322z" data-paper-data="{&quot;index&quot;:null}" fill="#a03a00" stroke="none" stroke-width="0" stroke-linecap="butt"/><path d="M112.21467,107.12731c0,0 -0.18961,-7.26467 8.60108,-6.992c7.46135,0.25613 7.3327,7.41374 7.3327,7.41374z" fill="#000000" stroke="#000000" stroke-width="1.15" stroke-linecap="butt"/><g stroke="#000000" stroke-width="1" stroke-linecap="butt"><path d="M95.08009,134.82788c0,0 -2.28301,-2.06977 -2.82184,-3.18111c-0.59324,-1.22357 -0.59012,-3.85604 -0.59012,-3.85604l34.11953,0.21325c0,0 -0.30031,1.77299 -0.9124,2.82714c-0.66328,1.14231 -2.92604,3.78352 -2.92604,3.78352l-12.78889,15.03556z" fill="#000000"/><path d="M98.49205,138.23982c0,0 -4.34659,-4.01173 -5.49171,-5.84392c-0.95112,-1.5218 -0.9057,-4.39193 -0.9057,-4.39193h6.8239z" fill="#ff8500"/><path d="M99.00036,138.08549l0.26387,-9.80798l7.03614,-0.11926l0.16263,9.59474z" fill="#ff8500"/><path d="M106.67922,137.87422l0.26387,-9.80798l7.03614,-0.11925l0.16263,9.59473z" fill="#ff8500"/><path d="M114.14482,137.66294l0.26387,-9.80798l7.03614,-0.11926l0.16263,7.88876c0,0 -2.45073,1.43361 -3.64359,1.92381c-0.44478,0.18278 0.1468,-7.43232 0.1468,-7.43232z" fill="#ff8500"/><path d="M94.86685,135.46762c0,0 11.72372,2.55711 15.58902,2.36764c3.293,-0.16142 14.69206,-3.00738 14.69206,-3.00738l-15.14054,9.59612z" fill="#ff8500"/><path d="M121.73597,135.04113v-7.46365h3.83845c0,0 -0.53412,2.33375 -0.98424,3.35405c-0.5819,1.31897 -2.21446,3.89635 -2.21446,3.89635z" fill="#ff8500"/></g><path d="M129.16177,170.97342c0.34097,-1.20224 1.02293,-0.60112 1.02293,-0.60112l0.7863,0.71733c0.38287,0.50623 0.76575,1.01248 1.14863,1.51871c1.21444,1.60572 2.48772,3.13856 3.65975,4.83891c0.5139,0.74555 1.27965,1.21996 1.49713,2.32885c0.16569,0.84482 -0.2123,1.72139 -0.42299,2.57145c0.1417,0.96873 0.17286,1.95771 0.06413,2.896c-0.25341,2.1866 -0.89678,3.3236 -1.69834,4.06361c-0.04254,0.21381 -0.08309,0.42861 -0.12131,0.64459c-0.27927,1.5784 -0.8034,4.90336 -0.66807,6.48726c0.07288,0.85289 0.55614,1.49148 0.64609,2.32998c0.19547,0.10614 0.37323,0.263 0.51534,0.52203c1.30891,2.38596 -0.78936,7.84034 -1.91925,9.34408c-0.40512,0.53915 -0.91379,0.77969 -1.37067,1.16953l-1.24343,-0.29855c0,0 -0.75207,-0.22098 -0.62673,-1.54683c0.01263,-0.13355 0.03161,-0.25141 0.05555,-0.35538c-0.60757,-0.00452 -1.17484,-0.25235 -1.79733,-0.46727c0,0 -0.74764,-0.26361 -0.59811,-1.58165c0.14953,-1.31804 0.89717,-1.05443 0.89717,-1.05443c1.71145,0.6184 4.15485,-0.30376 4.55885,-3.54019c-0.01661,-0.00201 -0.03314,-0.00445 -0.0496,-0.0074c-1.01079,-0.43549 -2.02078,-1.12671 -2.85636,-2.2199c-0.49712,-0.65037 -1.18776,-1.0349 -1.46612,-2.0097c-0.30765,-1.07737 -0.3212,-2.4478 -0.13872,-3.61031c0.43634,-2.77975 2.09907,-3.96971 3.46726,-4.69222c0.43221,-0.22824 0.95797,-0.48874 1.44532,-0.88124c0.35888,-1.76803 0.80017,-3.60115 1.24544,-5.25585c-0.51834,-2.21677 -1.75873,-4.44691 -2.94505,-3.52587c-0.84954,0.65957 -1.91324,2.93649 -2.46567,4.25061c0,0 -0.45747,1.07531 -1.06743,0.26883c-0.60996,-0.80649 -0.15249,-1.8818 -0.15249,-1.8818c0.67845,-1.57919 2.08719,-4.51785 3.14843,-5.15361c0.14593,-0.08742 0.29235,-0.15387 0.43874,-0.20063c-0.3151,-0.43358 -0.62999,-0.86389 -0.94644,-1.2823c-0.38287,-0.50623 -0.76575,-1.01248 -1.14863,-1.51871l-0.55332,-0.46349c0,0 -0.68196,-0.60112 -0.34097,-1.80336zM132.91917,196.80409c-0.10916,-1.53383 0.2076,-4.31557 0.5088,-6.32748c-0.80031,0.44192 -1.60042,0.92186 -2.24239,1.88448c-1.60934,2.4132 -0.06771,4.37421 1.31732,5.44352c0.25258,0.19501 0.52495,0.28358 0.79927,0.3616c-0.16442,-0.43515 -0.34729,-0.86021 -0.383,-1.36212zM132.07469,207.14623c0.12553,-0.11825 0.24173,-0.24353 0.35021,-0.37589c-0.14825,0.12339 -0.30047,0.23543 -0.45607,0.33556z" fill="#570000" stroke="none" stroke-width="0.5" stroke-linecap="butt"/><path d="M133.88005,209.18903l-0.85473,0.33534c-0.46013,-0.05816 -0.98174,0.23481 -1.38037,-0.17447c-1.10111,-1.13052 -1.21472,-4.30477 -1.22405,-6.18819c0,-0.65063 -0.02395,-3.84608 0.09897,-4.20475c0.11693,-0.34121 0.26871,-0.62151 0.44586,-0.85268c0.01054,-0.2956 0.02312,-0.49872 0.03803,-0.56222c0.33342,-1.41968 1.35784,-1.73558 2.06827,-1.87231c0.08642,-0.01663 0.18,-0.00036 0.2756,0.02704c0.26834,-2.59575 -0.41156,-5.92367 -0.72735,-8.15227c-0.08831,-0.62321 -0.07685,-1.29789 -0.12126,-1.93915c-1.38855,-1.15735 -2.81151,-2.19392 -3.76759,-4.36814c0,0 -0.45747,-1.07531 0.15249,-1.8818c0.24691,-0.32647 0.46884,-0.34458 0.64554,-0.25047c-0.01667,-0.07093 -0.03381,-0.14138 -0.05161,-0.21118c0,0 -0.30034,-1.23546 0.40045,-1.76494c0.27881,-0.21065 0.49423,-0.14195 0.65257,0.01717c0.14769,-2.83997 1.31151,-4.90504 2.17558,-7.44385c0,0 0.39227,-1.15259 1.04607,-0.46104c0.65379,0.69156 0.26152,1.84415 0.26152,1.84415c-0.84359,2.47865 -2.25342,4.49184 -1.91453,7.61527c0.14402,1.32731 0.72793,2.43546 1.1957,3.545c0.29481,0.43339 0.57955,0.91168 0.83346,1.49092c0.07625,0.17395 0.15124,0.36202 0.22463,0.56185c0.42948,0.38793 0.83416,0.81596 1.18798,1.32711c0.7851,1.1342 0.77421,2.41347 1.18838,3.97591c0.62165,2.34524 1.29722,3.84004 1.07329,6.60785c-0.28433,3.51431 -2.22768,3.28554 -3.91658,3.47025c-0.0379,0.07747 -0.07708,0.15416 -0.11758,0.23006c-0.41582,0.97743 -0.88566,1.82919 -1.32196,2.75717c0.0077,0.28482 0.00951,0.5693 0.00134,0.85309c-0.00739,0.25665 -0.17978,0.53707 -0.09897,0.75094c0.24384,0.64534 0.82008,0.56119 1.2283,0.84987c0.23171,0.08201 0.46342,0.16402 0.69514,0.24602l0.76213,-0.00654c0,0 0.76244,0 0.76244,1.34414c0,1.34414 -0.76244,1.34414 -0.76244,1.34414l-0.57181,-0.0041c-0.03307,0.90247 -0.58289,1.14479 -0.58289,1.14479zM135.92007,196.52042c0.13972,-0.01652 0.31315,0.24648 0.41754,0.0819c0.09364,-0.14765 -0.04787,-0.43668 -0.05215,-0.65803c-0.03714,-1.91824 -0.2281,-2.64799 -0.59673,-3.9648c-0.05039,1.2812 -0.18271,3.44743 -0.29888,4.631c0.17637,-0.03713 0.35301,-0.06912 0.53023,-0.09007z" fill="#818181" stroke="none" stroke-width="0.5" stroke-linecap="butt"/><path d="M135.44145,173.64219l0.64347,1.2994c1.1546,2.73497 1.31593,4.72057 1.61917,8.04574c0.03482,0.38184 0.09652,0.76621 0.15459,1.15068c0.71878,0.25874 1.35771,0.9329 1.84349,2.39683c0.33186,1.00011 0.38867,2.26133 0.35674,3.41863c-0.02774,1.00575 -0.33247,1.92789 -0.53029,2.87251c-0.13476,0.64352 -0.14309,1.5047 -0.46633,1.88659c-1.62819,1.92361 -4.48393,0.78515 -6.33212,0.43909c-0.11348,0.13509 -0.23147,0.26263 -0.3392,0.40516c0.49365,1.76735 1.38003,3.48094 1.72994,5.15219c-0.01363,0.10377 -0.02727,0.20684 -0.04095,0.30919c0.30176,0.94891 0.52675,1.86704 0.57291,2.61766c0.10193,1.65751 -0.19032,2.91044 -0.70093,3.89384c0.01228,0.40461 -0.04527,1.10802 -0.55702,1.35612c-0.01214,0.00588 -0.02414,0.01132 -0.03599,0.01632c-0.11445,0.33561 -0.22507,0.6724 -0.3083,1.01758l-0.712,1.06814c0,0 -0.58789,0.8559 -1.07339,-0.18051c-0.06966,-0.14872 -0.11723,-0.29371 -0.1476,-0.43301c-0.46925,0.30179 -0.93146,0.57207 -1.34828,0.84032c0,0 -0.71654,0.45935 -0.97711,-0.80387c-0.06051,-0.29335 -0.06832,-0.54336 -0.04466,-0.75433c-0.09428,-0.68819 0.22207,-1.2459 0.22207,-1.2459l0.16745,-0.2952c0.60254,-1.04865 1.17275,-1.78438 1.68055,-2.53398c-0.01926,-0.02984 -0.03848,-0.05973 -0.05765,-0.08968c-0.45667,-0.71329 -0.97483,-1.385 -1.26633,-2.3299c-0.68582,-2.22309 -0.54601,-6.61234 0.29799,-8.59831c0.07812,-0.18382 0.16717,-0.34409 0.26493,-0.48551c-0.04916,-0.65881 -0.02396,-1.29095 0.19167,-1.78242c0.03496,-0.07967 0.16319,-0.16849 0.35124,-0.26019c0.00352,-0.03944 0.00722,-0.07911 0.0111,-0.11903c0.1617,-1.66285 0.75006,-3.24015 1.41936,-4.70481c-0.21625,-0.21327 -0.41864,-0.51249 -0.60334,-0.91949c-0.30371,-0.66926 -0.27907,-1.65146 -0.33335,-2.50318c-0.0067,-0.1051 -0.01305,-0.21092 -0.01906,-0.31741c-0.02847,-0.02514 -0.05624,-0.05312 -0.08322,-0.0844c-0.12568,-0.1457 -0.24843,-0.30263 -0.36697,-0.47c-0.08401,0.32216 -0.16546,0.64928 -0.24399,0.98271c0,0 -0.29325,1.24074 -0.99705,0.72377c-0.7038,-0.51698 -0.41055,-1.75772 -0.41055,-1.75772c0.17968,-0.7578 0.37102,-1.49112 0.57244,-2.20959c-0.92306,-3.34402 1.46192,-6.29867 2.35564,-8.67724l0.01985,-0.02037l-0.00739,-0.00977l0.49703,-1.16831c0.13874,-0.33359 0.36266,-0.55017 0.61528,-0.55017c0.42109,0 0.76244,0.60179 0.76244,1.34414c0,0.19485 -0.02352,0.38003 -0.06582,0.54718c0.38101,0.16113 0.74449,0.53661 1.06915,1.03639c0.37558,-0.07032 0.65037,0.48409 0.65037,0.48409zM131.24461,200.17005c-0.00369,-0.0237 -0.15981,-0.9633 -0.31676,-2.00156c-0.10885,-0.28725 -0.21019,-0.57235 -0.29938,-0.85213c-0.40435,2.09526 0.31676,4.96077 1.12527,6.13629c0.00126,0.00183 0.00251,0.00365 0.00377,0.00548c-0.17097,-1.09603 -0.34194,-2.19205 -0.51291,-3.28808zM135.11406,188.14769c0.07729,-0.10671 0.16785,-0.22452 0.26496,-0.35214c-0.03842,-0.28616 -0.09015,-0.56837 -0.15279,-0.83842c-0.41396,0.19272 -0.83354,0.4008 -1.24418,0.54113c-0.67317,1.22129 -1.33395,2.46146 -1.69393,3.97365c0.11918,-0.03095 0.23647,-0.06015 0.34957,-0.08716c0.88292,-1.24535 1.84309,-2.3627 2.47638,-3.23705zM135.91774,182.96141c-0.04228,0.20112 -0.09021,0.39743 -0.14311,0.58951c0.10202,0.1768 0.19795,0.36502 0.28757,0.56303c0.12933,-0.02623 0.25807,-0.04923 0.3859,-0.06743c-0.10382,-0.91448 -0.3253,-1.82738 -0.45375,-2.7458c-0.03064,0.8909 -0.06018,1.58254 -0.07661,1.66068zM134.48668,182.033c0.48242,-2.28877 0.26765,-6.26249 -1.18272,-7.34674c-0.11725,-0.08765 -0.21218,-0.03945 -0.29259,0.09444c-0.20734,2.03835 -0.39452,4.05167 -0.39575,6.24048c-0.00005,0.07875 -0.00159,0.15822 -0.00435,0.23829c0.74131,0.21171 1.26528,0.31751 1.87133,0.79257c0.00138,-0.00632 0.00274,-0.01267 0.00409,-0.01903zM132.47969,183.93487c0.02167,0.23516 0.06361,0.46048 0.13488,0.6716c0.07165,0.21227 0.26393,0.30669 0.52074,0.32566c0.11137,-0.22678 0.21967,-0.44988 0.32319,-0.66918c-0.30749,-0.15939 -0.61255,-0.23421 -0.97881,-0.32809zM136.00698,192.88971c0.62735,0.09077 1.6302,0.2072 2.03323,-0.17215c0.12725,-0.11977 0.00418,-0.51486 0.04504,-0.75874c0.28858,-1.72229 0.92951,-3.95885 -0.26562,-5.08215c-0.21153,0.77761 -0.56685,1.45635 -0.87859,2.12735c-0.04151,1.44717 -0.33869,2.84445 -0.93407,3.88569z" fill="#575757" stroke="none" stroke-width="0.5" stroke-linecap="butt"/><path d="M132.97095,165.25316c0.83895,0.74066 0.36274,1.56316 0.17978,1.8178c0.50585,0.19297 0.86519,0.68267 0.86519,1.2563c0,0.30749 -0.10325,0.59087 -0.27698,0.81735l-0.87747,1.16996l-0.01432,-0.01074l-0.42297,0.54986c-0.58661,0.75583 -0.96412,1.73623 -1.75984,2.26749c-0.05085,0.03395 -0.10259,0.06605 -0.15514,0.09645l0.01698,0.02264l-1.16996,0.87747c-0.22648,0.17372 -0.50986,0.27698 -0.81735,0.27698c-0.16464,0 -0.32236,-0.0296 -0.46813,-0.08377c-0.24367,0.24657 -0.58204,0.39935 -0.95608,0.39935c-0.74235,0 -1.34414,-0.60179 -1.34414,-1.34414c0,-0.04675 0.00239,-0.09293 0.00704,-0.13845l0.24186,-2.6605l0.03503,0.00319l-0.01823,-0.12544c0.0237,-0.03602 0.0474,-0.07203 0.0711,-0.10805l-0.04316,-0.01214l0.58241,-2.06942c0.14909,-0.57991 0.67544,-1.00844 1.30188,-1.00844c0.51563,0 0.96345,0.29034 1.18889,0.71646c0.44881,-0.63822 0.9465,-1.28023 1.4234,-1.993l0.51297,-0.59914c0,0 0.88959,-1.00765 1.89724,-0.11805z" fill="#000000" stroke="none" stroke-width="0.5" stroke-linecap="butt"/><path d="M126.01391,182.202c0,-0.74235 0.60179,-1.34414 1.34414,-1.34414c0.74235,0 1.34414,0.60179 1.34414,1.34414c0,0.74235 -0.60179,1.34414 -1.34414,1.34414c-0.74235,0 -1.34414,-0.60179 -1.34414,-1.34414z" fill="#000000" stroke="none" stroke-width="0.5" stroke-linecap="butt"/></g></g></svg>