<svg version="1.1" xmlns="http://www.w3.org/2000/svg" xmlns:xlink="http://www.w3.org/1999/xlink" width="492" height="367.57853" viewBox="0,0,492,367.57853"><defs><linearGradient x1="240.5" y1="332" x2="240.5" y2="365" gradientUnits="userSpaceOnUse" id="color-1"><stop offset="0" stop-color="#ffffff"/><stop offset="1" stop-color="#ffffff" stop-opacity="0"/></linearGradient><linearGradient x1="240.89463" y1="-2" x2="240.89463" y2="32.69503" gradientUnits="userSpaceOnUse" id="color-2"><stop offset="0" stop-color="#ffffff" stop-opacity="0"/><stop offset="1" stop-color="#ffffff"/></linearGradient><linearGradient x1="-3.5" y1="180.23215" x2="29.5" y2="180.23215" gradientUnits="userSpaceOnUse" id="color-3"><stop offset="0" stop-color="#ffffff" stop-opacity="0"/><stop offset="1" stop-color="#ffffff"/></linearGradient><linearGradient x1="450.5" y1="179.71073" x2="483.5" y2="179.71073" gradientUnits="userSpaceOnUse" id="color-4"><stop offset="0" stop-color="#ffffff"/><stop offset="1" stop-color="#ffffff" stop-opacity="0"/></linearGradient><linearGradient x1="428.30655" y1="36.30298" x2="446.00719" y2="36.30298" gradientUnits="userSpaceOnUse" id="color-5"><stop offset="0" stop-color="#000000"/><stop offset="1" stop-color="#000000" stop-opacity="0"/></linearGradient><linearGradient x1="428.30655" y1="40.78415" x2="446.00719" y2="40.78415" gradientUnits="userSpaceOnUse" id="color-6"><stop offset="0" stop-color="#000000"/><stop offset="1" stop-color="#000000" stop-opacity="0"/></linearGradient></defs><g transform="translate(5.5,2.57853)"><g data-paper-data="{&quot;isPaintingLayer&quot;:true}" fill-rule="nonzero" stroke-linejoin="miter" stroke-miterlimit="10" stroke-dasharray="" stroke-dashoffset="0" style="mix-blend-mode: normal"><path d="M-5.5,365l33,-33h424l35,33z" fill="url(#color-1)" stroke="none" stroke-width="0" stroke-linecap="butt"/><path d="M485.5,-2l-37,33l-418.21073,1.69503l-34,-33.48429z" data-paper-data="{&quot;index&quot;:null}" fill="url(#color-2)" stroke="none" stroke-width="0" stroke-linecap="butt"/><path d="M-3.5,-2l33,33v299.46429l-33,32z" fill="url(#color-3)" stroke="none" stroke-width="0" stroke-linecap="butt"/><path d="M483.5,362l-33,-30v-303.90576l33,-30.67277z" data-paper-data="{&quot;index&quot;:null}" fill="url(#color-4)" stroke="none" stroke-width="0" stroke-linecap="butt"/><path d="M28,331.5v-303h424v303z" fill="#ffffff" stroke="#000000" stroke-width="5" stroke-linecap="butt"/><path d="M34.75,326.8202v-74.3202h142.5v74.3202z" fill="#000000" stroke="none" stroke-width="0" stroke-linecap="butt"/><text transform="translate(39.59015,266.55803) scale(0.29391,0.29391)" font-size="40" xml:space="preserve" fill="#ffffff" fill-rule="nonzero" stroke="none" stroke-width="1" stroke-linecap="butt" stroke-linejoin="miter" stroke-miterlimit="10" stroke-dasharray="" stroke-dashoffset="0" font-family="Serif" font-weight="normal" text-anchor="start" style="mix-blend-mode: normal"><tspan x="0" dy="0">Name: Dr. C.J. Talimar</tspan><tspan x="0" dy="46.150000000000006px">Age: 42</tspan><tspan x="0" dy="46.150000000000006px">Gender: Male</tspan><tspan x="0" dy="46.150000000000006px">Role: Scientist</tspan><tspan x="0" dy="46.150000000000006px">Status: Alive</tspan></text><path d="M194.25,59v-19.5h86v19.5z" fill="#000000" stroke="none" stroke-width="0" stroke-linecap="butt"/><text transform="translate(196.5,53.9009) scale(0.42192,0.42192)" font-size="40" xml:space="preserve" fill="#ffffff" fill-rule="nonzero" stroke="none" stroke-width="1" stroke-linecap="butt" stroke-linejoin="miter" stroke-miterlimit="10" stroke-dasharray="" stroke-dashoffset="0" font-family="Serif" font-weight="normal" text-anchor="start" style="mix-blend-mode: normal"><tspan x="0" dy="0">Description:</tspan></text><path d="M429.07853,298.09424h-241v-236.31414" fill="none" stroke="#000000" stroke-width="5" stroke-linecap="round"/><path d="M37.83201,243v-205h136.5312v205z" fill="#174752" stroke="#151515" stroke-width="6.5" stroke-linecap="butt"/><path d="M37.83201,243v-205h136.5312v205z" fill="#ffffff" stroke="#151515" stroke-width="6.5" stroke-linecap="butt"/><text transform="translate(349.55711,323.11998) scale(0.35959,0.35959)" font-size="40" xml:space="preserve" fill="#000000" fill-rule="nonzero" stroke="none" stroke-width="1" stroke-linecap="butt" stroke-linejoin="miter" stroke-miterlimit="10" stroke-dasharray="" stroke-dashoffset="0" font-family="Serif" font-weight="normal" text-anchor="start" style="mix-blend-mode: normal"><tspan x="0" dy="0">Click this to exit</tspan></text><text transform="translate(194.75,80.00509) scale(0.36489,0.36489)" font-size="40" xml:space="preserve" fill="#000000" fill-rule="nonzero" stroke="none" stroke-width="1" stroke-linecap="butt" stroke-linejoin="miter" stroke-miterlimit="10" stroke-dasharray="" stroke-dashoffset="0" font-family="Serif" font-weight="normal" text-anchor="start" style="mix-blend-mode: normal"><tspan x="0" dy="0">Dr. C.J. Talimar is a scientist at our facility</tspan><tspan x="0" dy="48px">who had a very bad accident involving a </tspan><tspan x="0" dy="48px">subject who was very disobedient and</tspan><tspan x="0" dy="48px">had to be put down. The subject lashed </tspan><tspan x="0" dy="48px">out and ripped CJ's lower jaw off. </tspan><tspan x="0" dy="48px">Fortunately, we found a replacement in</tspan><tspan x="0" dy="48px">no time, and attached it where his lower</tspan><tspan x="0" dy="48px">jaw was. He now communicates in morse</tspan><tspan x="0" dy="48px">code using the music box.</tspan><tspan x="0" dy="48px">It's sort of devolved into a brassy sound</tspan><tspan x="0" dy="48px">overtime.</tspan></text><path d="M399.40297,43.92097l46.38016,-0.22406" fill="none" stroke="#000000" stroke-width="3" stroke-linecap="round"/><g stroke="none" stroke-linecap="butt"><g fill="#000000" stroke-width="1" font-weight="normal" font-size="40" text-anchor="start"><text transform="translate(399.40297,42.80068) scale(0.23516,0.23516)" font-size="40" xml:space="preserve" fill="#000000" fill-rule="nonzero" stroke="none" stroke-width="1" stroke-linecap="butt" stroke-linejoin="miter" stroke-miterlimit="10" stroke-dasharray="" stroke-dashoffset="0" font-family="Pixel" font-weight="normal" text-anchor="start" style="mix-blend-mode: normal"><tspan x="0" dy="0">DONK</tspan></text><text transform="translate(398.8418,52.32215) scale(0.23516,0.23516)" font-size="40" xml:space="preserve" fill="#000000" fill-rule="nonzero" stroke="none" stroke-width="1" stroke-linecap="butt" stroke-linejoin="miter" stroke-miterlimit="10" stroke-dasharray="" stroke-dashoffset="0" font-family="Sans Serif" font-weight="normal" text-anchor="start" style="mix-blend-mode: normal"><tspan x="0" dy="0">Industries</tspan></text></g><path d="M428.30655,37.64733v-2.6887h17.70064v2.6887z" fill="url(#color-5)" stroke-width="0"/><path d="M428.30655,42.09116v-2.61402h17.70064v2.61402z" fill="url(#color-6)" stroke-width="0"/></g><text transform="translate(186.81898,314.36666) scale(0.3147,0.3147)" font-size="40" xml:space="preserve" fill="#000000" fill-rule="nonzero" stroke="none" stroke-width="1" stroke-linecap="butt" stroke-linejoin="miter" stroke-miterlimit="10" stroke-dasharray="" stroke-dashoffset="0" font-family="Serif" font-weight="normal" text-anchor="start" style="mix-blend-mode: normal"><tspan x="0" dy="0">Written by: Nile Parkas</tspan></text><path d="M71.75309,83.86622c-0.48141,-0.91885 -1.52696,0.94733 -1.52696,0.94733c0,0 -0.33821,-2.47679 0.75559,-5.4224c1.4263,-3.84103 4.68475,-8.70526 8.16235,-12.2172c6.07508,-6.13504 15.26172,-9.29914 23.06729,-9.60169c14.00843,-0.28672 23.03195,5.479 27.66242,11.75427c6.75117,9.14926 3.65367,20.99604 4.8049,24.12651c2.66119,7.23639 4.96441,13.96043 4.96441,13.96043c0,0 -3.85594,0.46002 -4.86843,-0.37345c-0.94434,-0.77737 0.5279,0.49936 -0.84534,8.48096c-0.36578,2.21978 -2.17489,6.27652 -4.89041,9.19899c-1.9672,2.11711 -6.00842,10.48429 -6.26387,12.48474c-2.7832,-1.81899 -4.12208,-5.27507 -5.85098,-4.32795c-4.69159,2.57011 -9.76559,4.29204 -14.41083,4.25271c-8.17968,-0.12815 -11.13497,-4.05138 -14.74521,-7.20817c-0.13552,-0.11849 -2.01077,1.62337 -2.19366,1.45321c-1.32322,-1.23115 -4.97891,-0.91699 -4.97891,-0.91699c0,0 -3.22441,-2.05502 -4.98836,-7.00339c-2.10242,-5.89788 -0.56241,-9.44446 -0.56241,-9.44446c0,0 -0.67901,6.23083 -1.33642,5.23787c-0.30344,-0.4583 -1.92268,-1.8876 -2.45411,-4.1557c-0.74689,-3.18772 -0.39425,-7.40274 -0.39425,-7.40274c0,0 -0.92725,0.63801 -1.45781,0.87994c-0.63785,0.29086 -2.10703,0.74565 -2.10703,0.74565c0,0 0.43797,-1.16966 1.32471,-3.17333c0.61074,-1.38004 1.43951,-5.21719 1.43951,-5.21719c0,0 -0.68653,0.37635 -1.06865,0.46606c-0.44205,0.10378 -1.43013,0.12059 -1.43013,0.12059c0,0 1.83169,-3.48525 2.98331,-7.3784c1.40389,-4.74597 1.41011,-9.88293 1.20928,-10.26623z" fill="#000000" stroke="none" stroke-width="1.5" stroke-linecap="butt"/><path d="M74.44125,238.50232c0,0 -0.46066,-68.43206 -0.57521,-85.5634c-0.03952,-5.91097 5.93581,-26.6534 29.14806,-26.76927c22.91296,-0.11438 28.89771,21.37928 28.89199,26.7516c-0.05553,33.52783 0.47439,85.54489 0.47439,85.54489l-7.6105,0.06971l-0.11515,-83.26582c0,0 0.05473,-2.24712 -2.04189,-2.28688c-2.49008,-0.04723 -2.13552,2.25895 -2.13552,2.25895l0.14898,83.28528l-34.95682,0.05236l-0.22142,-83.54857c0,0 0.20264,-2.11639 -2.09217,-2.12758c-2.25548,-0.01098 -2.04149,2.10913 -2.04149,2.10913l0.25602,83.42801z" fill="#9ec3be" stroke="#000000" stroke-width="2" stroke-linecap="butt"/><path d="M114.02635,163.05627c-0.41409,0 -0.74977,-0.33569 -0.74977,-0.74977c0,-0.41409 0.33569,-0.74979 0.74977,-0.74979c0.41409,0 0.74977,0.33569 0.74977,0.74979c0,0.41409 -0.33569,0.74977 -0.74977,0.74977z" fill="#000000" stroke="none" stroke-width="1.5" stroke-linecap="butt"/><path d="M90.04739,162.3065c0,-0.41409 0.33569,-0.74979 0.74977,-0.74979c0.41409,0 0.74979,0.33569 0.74979,0.74979c0,0.41409 -0.33569,0.74977 -0.74979,0.74977c-0.41409,0 -0.74977,-0.33569 -0.74977,-0.74977z" fill="#000000" stroke="none" stroke-width="1.5" stroke-linecap="butt"/><path d="M106.8924,236.57147c1.353,-22.0218 1.55298,-66.39491 1.98506,-91.17729c0.04512,-2.58791 6.80924,-7.17254 6.86774,-9.22479c0.16425,-5.76247 -6.60319,-9.48216 -6.267,-9.4154c17.59266,3.49402 22.42179,21.32993 22.41666,26.15603c-0.05553,33.52783 0.47439,85.54489 0.47439,85.54489l-7.6105,0.06971l-0.11515,-83.26582c0,0 0.05473,-2.24712 -2.04189,-2.28688c-2.49008,-0.04723 -2.13552,2.25895 -2.13552,2.25895l0.14898,83.28528l-13.44327,0.02013c-0.13887,-0.11443 -0.28208,-0.22379 -0.42933,-0.3278c0.06436,-0.52607 0.11513,-1.07185 0.14985,-1.63702z" fill="#ebebeb" stroke="#ebebeb" stroke-width="3.5" stroke-linecap="butt"/><path d="M74.43001,238.49109c0,0 -0.46066,-68.43206 -0.57521,-85.5634c-0.0347,-5.19002 4.56771,-21.81425 21.40357,-25.87069c0.40276,-0.09704 -3.82334,2.88358 -3.65944,8.80979c0.06917,2.50099 4.5987,5.98641 4.64244,9.24332c0.33983,25.29854 0.06618,70.5653 1.56103,91.73242c0.04069,0.57615 0.1033,1.13272 0.18433,1.66913c-0.01565,0.01275 -0.03124,0.02557 -0.04678,0.03845l-12.28164,0.01839l-0.22142,-83.54857c0,0 0.20264,-2.11639 -2.09217,-2.12758c-2.25548,-0.01098 -2.04149,2.10913 -2.04149,2.10913l0.25602,83.42801z" fill="#ebebeb" stroke="#ebebeb" stroke-width="3.5" stroke-linecap="butt"/><path d="M82.91145,101.33216c-0.41841,-5.28788 0.24289,-12.43768 0.24289,-12.43768c0,0 2.47281,-0.0299 10.08841,-2.2797c5.85078,-1.72845 14.89762,-6.87861 14.89762,-6.87861c0,0 -1.56612,2.17877 -2.4708,3.23379c-0.96177,1.12161 -2.89503,3.30833 -2.89503,3.30833c0,0 5.68286,-1.20908 10.63978,-3.42894c6.21241,-2.56356 7.68,-4.38873 9.38957,-3.32989c2.01771,1.24969 0.74683,16.80838 0.52091,20.83809c-0.3057,4.11041 -1.83672,6.88765 -2.2841,9.07788c-0.44738,2.19023 -0.29698,4.44929 -1.5996,11.62942c-0.81292,4.4809 -3.01749,6.47073 -7.26448,10.62967c-4.24699,4.15894 -6.56435,6.70861 -9.43537,6.75863c-2.76296,0.04814 -6.4787,-3.69785 -10.10373,-7.52768c-3.86006,-4.07816 -6.43465,-6.14626 -7.04413,-10.97692c-0.54891,-4.35052 -0.56302,-7.18408 -0.81397,-11.05566c-0.18342,-2.82963 -1.63945,-4.67291 -1.86796,-7.56072z" fill="#ffffff" stroke="#000000" stroke-width="1.5" stroke-linecap="butt"/><path d="M117.76412,90.3693c0,0 1.10517,0.23061 3.08562,0.805c1.80892,0.52465 3.22596,1.26449 3.22596,1.26449l0.14146,0.84855c0,0 -5.25627,-2.26935 -10.95956,-1.79128c-4.56021,0.38227 -7.22371,2.0391 -7.22371,2.0391l0.03317,-3.02837c0,0 2.26755,-1.23562 5.70147,-1.34536c3.5558,-0.11363 5.86618,0.42868 5.86618,0.42868z" data-paper-data="{&quot;index&quot;:null}" fill="#000000" stroke="none" stroke-width="1.5" stroke-linecap="butt"/><path d="M102.94586,122.66796c-0.74952,0 -2.56526,-2.36393 -2.74551,-3.8889c-0.16127,-1.36442 0.95351,-2.77545 2.74551,-2.77545c1.792,0 3.04669,0.35583 2.9219,3.03685c-0.10591,2.27531 -1.12991,3.6275 -2.9219,3.6275z" fill="#ffffff" stroke="#000000" stroke-width="1.15" stroke-linecap="butt"/><path d="M105.55752,100.84883c0,0 0.07439,2.87823 0.00418,5.16708c-0.13902,4.53232 -0.78411,20.12761 -0.78411,20.12761l-2.16183,0.00626c0,0 -0.58216,-3.0254 -0.81438,-6.88773c-0.31433,-5.22799 -0.32591,-11.81323 -0.55352,-14.23419c-0.21576,-2.29485 -0.64958,-4.14326 -0.64958,-4.14326" fill="#ffffff" stroke="#000000" stroke-width="1.3" stroke-linecap="round"/><path d="M84.14376,108.67189c0,0 -3.57598,-2.55 -4.46927,-6.50725c-0.93991,-4.16379 -1.05941,-7.05667 0.34811,-7.24455c1.40753,-0.18789 1.95993,1.72336 2.7063,6.05821c0.74636,4.33485 1.41486,7.69359 1.41486,7.69359z" data-paper-data="{&quot;index&quot;:null}" fill="#ffffff" stroke="#000000" stroke-width="1" stroke-linecap="butt"/><path d="M83.99687,105.80976c0,0 -2.58393,-2.11957 -3.13084,-6.12703c-0.30509,-2.23549 1.56373,-1.65321 1.56373,-1.65321" fill="none" stroke="#000000" stroke-width="0.25" stroke-linecap="round"/><path d="M86.18171,100.98397c0.05143,-3.54681 3.50799,-6.47902 7.40365,-6.42255c3.89565,0.05648 6.54511,3.08026 6.49369,6.62707c-0.05143,3.54681 -2.98972,6.37628 -6.88538,6.31981c-3.89565,-0.05648 -7.06339,-2.97752 -7.01196,-6.52434z" fill="#ffffff" stroke="#000000" stroke-width="1.4" stroke-linecap="butt"/><path d="M89.39916,101.06948c0.02899,-1.99997 1.67379,-3.59774 3.67375,-3.56875c1.99997,0.02899 3.59774,1.67379 3.56875,3.67375c-0.02899,1.99997 -1.67378,3.59774 -3.67375,3.56875c-1.99997,-0.02899 -3.59774,-1.67379 -3.56875,-3.67375z" fill="#000000" stroke="none" stroke-width="1.5" stroke-linecap="butt"/><path d="M105.79858,100.9845c0.14757,-3.54412 3.22834,-6.42274 7.08399,-6.42274c3.85564,0 6.7244,2.87556 6.7244,6.42274c0,3.54718 -2.8174,6.57686 -7.03262,6.62823c-4.00945,0.04886 -6.92987,-2.92693 -6.77577,-6.62823z" fill="#ffffff" stroke="#000000" stroke-width="1.4" stroke-linecap="butt"/><path d="M109.13577,101.04652c0,-2.04349 1.65657,-3.70006 3.70006,-3.70006c2.04349,0 3.70006,1.65657 3.70006,3.70006c0,2.04349 -1.65656,3.70006 -3.70006,3.70006c-2.04349,0 -3.70006,-1.65657 -3.70006,-3.70006z" fill="#000000" stroke="none" stroke-width="1.5" stroke-linecap="butt"/><path d="M86.13209,100.59811c0,0 0.04609,-6.53632 7.68623,-6.3984c6.86686,0.12026 6.92815,6.82062 6.92815,6.82062z" fill="#ffffff" stroke="#000000" stroke-width="1.15" stroke-linecap="butt"/><path d="M105.52478,100.69302c0,0 -0.17898,-6.85757 8.11909,-6.60018c7.04323,0.24178 6.92179,6.99829 6.92179,6.99829z" fill="#ffffff" stroke="#000000" stroke-width="1.15" stroke-linecap="butt"/><path d="M88.69138,93.33926c0,0 2.44312,-1.31885 5.82384,-1.65438c3.74627,-0.37182 5.63228,-0.04806 5.63228,-0.04806l0.21394,2.99983c0,0 -2.78092,-0.4935 -5.81333,-0.37784c-4.05548,0.15467 -4.8178,1.03893 -7.9013,1.37119c-2.6421,0.28469 -4.88476,0.11517 -4.88476,0.11517l-0.01877,-0.89292c0,0 2.60664,0.05364 3.79465,-0.04956c0.98054,-0.08518 2.88254,-0.68015 2.88254,-0.68015z" fill="#000000" stroke="none" stroke-width="1.5" stroke-linecap="butt"/><path d="M123.46496,100.97831c0.74636,-4.33485 1.29876,-6.24609 2.7063,-6.05821c1.40753,0.18789 1.28803,3.08076 0.34811,7.24455c-0.89329,3.95725 -4.46927,6.50725 -4.46927,6.50725c0,0 0.66851,-3.35875 1.41486,-7.69359z" data-paper-data="{&quot;index&quot;:null}" fill="#ffffff" stroke="#000000" stroke-width="1" stroke-linecap="butt"/><path d="M123.76407,98.02953c0,0 1.86882,-0.58229 1.56373,1.65321c-0.5469,4.00746 -3.13084,6.12703 -3.13084,6.12703" data-paper-data="{&quot;index&quot;:null}" fill="none" stroke="#000000" stroke-width="0.25" stroke-linecap="round"/><path d="M84.08491,105.96117c0,0 -2.58393,-2.11957 -3.13084,-6.12703c-0.30509,-2.23549 1.56373,-1.65321 1.56373,-1.65321" fill="none" stroke="#000000" stroke-width="0.25" stroke-linecap="round"/><g stroke="none" stroke-linecap="butt"><path d="M77.99721,101.19967l0.57251,-10.34954c0,0 5.32896,-4.23559 23.67509,-4.43528c18.34612,-0.19968 23.5619,2.70911 23.5619,2.70911l1.59451,10.68667c0,0 -3.93577,5.364 -25.81668,5.57478c-15.05289,0.14501 -23.58733,-4.18574 -23.58733,-4.18574z" fill="#262626" stroke-width="0"/><path d="M86.704,101.5845l-0.38394,-13.65602c0,0 8.80794,-1.62054 15.25612,-1.64108c7.64634,-0.02435 15.16313,0.78581 15.16313,0.78581l0.38394,13.65602z" fill="#999999" stroke-width="NaN"/><path d="M82.19649,110.22983l-2.87744,-9.46839l1.62547,-7.6077c0,0 6.80346,-3.19171 19.22378,-3.65164c14.62438,-0.54155 22.97423,2.24298 22.97423,2.24298l2.61445,8.48177l-2.76459,8.74486c0,0 -2.49635,0.97321 -4.38944,1.49589c-2.3926,0.6606 -8.82175,2.15175 -8.82175,2.15175c0,0 -3.29313,-1.40818 -6.63717,-1.25874c-2.96141,0.13592 -5.18518,1.80984 -5.18518,1.80984c0,0 -6.11844,-0.61031 -8.82993,-1.11616c-2.53006,-0.472 -6.93241,-1.82445 -6.93241,-1.82445z" fill="#323232" stroke-width="0"/><path d="M80.3803,104.51749l-1.07455,-3.82168l7.79061,-9.55247l5.61407,-0.97268z" fill="#f3f3f3" stroke-width="0"/><path d="M81.38344,107.92358l15.158,-18.30963l11.36166,-0.09483l-18.98526,22.6395l-6.60368,-1.87118z" fill="#f3f3f3" stroke-width="0"/><path d="M109.74023,112.6808l13.19283,-20.9267l2.83427,8.36485l-2.82424,9.19061c0,0 -3.42649,1.02792 -5.44097,1.5423c-2.33807,0.59701 -7.76188,1.82893 -7.76188,1.82893z" fill="#000000" stroke-width="0"/></g><g stroke="none" stroke-width="0" stroke-linecap="butt"><path d="M65.56858,93.6655l2.50479,-2.35886c0,0 1.95986,-0.08213 2.97531,-1.23547c1.8287,-2.07703 6.22774,-8.84752 6.22774,-8.84752l0.65626,-7.90979c0,0 0.51996,-3.13185 15.02988,-3.07543c17.81694,0.06928 36.7106,8.93666 36.7106,8.93666c0,0 2.41238,4.82441 -1.64278,11.3061c-1.98324,3.16998 -6.36467,8.09659 -6.36467,8.09659c0,0 -7.96554,5.21548 -25.62328,4.07751c-1.1362,-0.07322 -2.24907,-0.17855 -3.33894,-0.29458c-21.21268,-2.2584 -27.1349,-8.69521 -27.1349,-8.69521z" fill="#73cec0"/><path d="M67.91258,91.24643c0,0 2.20902,-2.41941 3.54565,-3.88333c1.73934,-1.90499 6.00411,-6.57593 6.00411,-6.57593c0,0 -0.73654,5.41039 16.07358,6.00982c23.88931,0.85187 34.85846,-0.55281 34.85846,-0.55281c0,0 -3.1968,8.57333 -16.60479,12.11904c-4.84317,1.28076 -11.54588,1.11471 -19.1689,0.76556c-0.311,-0.01425 -0.61927,-0.03556 -0.92553,-0.05055c-19.23877,-0.94167 -23.78257,-7.83179 -23.78257,-7.83179z" fill="#00c2a8"/><path d="M130.98686,78.06348c0,0 -0.00375,-1.54939 0.05038,-2.5236c0.06256,-1.12592 0.30332,-3.84291 0.30332,-3.84291c0,0 2.28395,-0.54287 2.12217,5.65912c-0.1669,6.39808 -2.7285,8.08445 -2.7285,8.08445c0,0 -1.17017,-2.61529 -1.12647,-3.89116c0.04023,-1.1748 1.37911,-3.4859 1.37911,-3.4859z" fill="#447a72"/><path d="M96.25872,98.54409l9.50993,-11.53638l11.74598,0.01818l-9.4757,11.60483c0,0 -2.86904,0.94492 -6.54574,0.91933c-5.04443,-0.03511 -5.23446,-1.00595 -5.23446,-1.00595z" fill="#8fffee"/><path d="M85.05059,98.48956l10.06386,-11.77593l7.48346,0.22564l-10.513,11.77593c0,0 -0.63452,0.68691 -3.45307,0.06297c-3.87731,-0.85831 -3.58126,-0.28861 -3.58126,-0.28861z" fill="#8fffee"/></g><path d="M77.94563,130.23542l12.21467,8.07796l-0.0918,0.1388l-14.78492,-4.19148z" data-paper-data="{&quot;index&quot;:null}" fill="#bfbfbf" stroke="#bfbfbf" stroke-width="3.5" stroke-linecap="butt"/><path d="M83.61853,129.11746l9.85726,10.82985l-0.12307,0.11202l-13.30312,-7.69346z" data-paper-data="{&quot;index&quot;:null}" fill="#ebebeb" stroke="#ebebeb" stroke-width="3.5" stroke-linecap="butt"/><path d="M130.38836,135.08864l-14.78492,4.19148l-0.09179,-0.1388l12.21466,-8.07796z" data-paper-data="{&quot;index&quot;:null}" fill="#bfbfbf" stroke="#bfbfbf" stroke-width="3.5" stroke-linecap="butt"/><path d="M125.62234,133.19382l-13.30312,7.69346l-0.12307,-0.11201l9.85726,-10.82985z" data-paper-data="{&quot;index&quot;:null}" fill="#ebebeb" stroke="#ebebeb" stroke-width="3.5" stroke-linecap="butt"/><g><path d="M129.23555,123.50297l-2.7228,-0.12966v7.26082l-7.0015,-0.12966" fill="none" stroke="#447a72" stroke-width="3" stroke-linecap="round"/><path d="M117.30382,116.9044c-0.01227,1.17411 -0.05095,4.87161 -0.05095,4.87161l-28.82523,-0.09518c0,0 0.03465,-3.31375 0.04707,-4.50158c0.00813,-0.77815 1.27942,-1.92771 3.24803,-1.92121c6.09384,0.02013 18.98526,0.06269 22.36624,0.07385c1.58937,0.00525 3.22178,0.90771 3.21482,1.57251z" fill="#73cec0" stroke="none" stroke-width="0" stroke-linecap="butt"/><path d="M117.33148,117.02948l-0.03693,3.5321l-28.9053,-0.09544l0.03694,-3.5321z" fill="#447a72" stroke="none" stroke-width="0" stroke-linecap="butt"/><path d="M121.82182,121.58252c-0.04753,4.54546 -0.1323,12.6514 -0.15657,14.97276c-0.01448,1.38406 -1.96349,2.47429 -3.89689,2.46791c-4.27558,-0.01412 -21.15126,-0.06984 -29.62763,-0.09782c-2.9733,-0.00982 -4.89554,-1.6977 -4.88255,-2.9399c0.02446,-2.33825 0.10733,-10.26453 0.15287,-14.61838c0.01831,-1.75062 2.57531,-2.91527 4.9437,-2.90745c4.45288,0.0147 19.86054,0.06557 28.13882,0.09291c3.21882,0.01063 5.35017,0.93693 5.32828,3.02996z" fill="#73cec0" stroke="none" stroke-width="0" stroke-linecap="butt"/><path d="M121.74907,131.09193l-0.04632,4.42981l-6.798,3.48746l-9.05132,-0.0464z" fill="#8fffee" stroke="none" stroke-width="0" stroke-linecap="butt"/><path d="M121.74106,125.71945l-0.02762,2.64103l-22.36144,10.66441l-5.19658,-0.08666z" fill="#8fffee" stroke="none" stroke-width="0" stroke-linecap="butt"/><path d="M118.80602,122.83142c-0.04033,3.8566 -0.11224,10.73412 -0.13284,12.70368c-0.01228,1.17432 -1.64454,2.0994 -3.26357,2.09405c-3.5804,-0.01182 -17.71221,-0.05848 -24.8104,-0.08192c-2.48986,-0.00822 -4.09937,-1.44025 -4.08835,-2.49419c0.02075,-1.9839 0.09107,-8.70896 0.1297,-12.40299c0.01553,-1.48532 2.15691,-2.47357 4.14022,-2.46701c3.72887,0.01231 16.63135,0.05491 23.56365,0.0778c2.69547,0.0089 4.48016,0.79475 4.46158,2.57059z" fill="#00241f" stroke="none" stroke-width="0" stroke-linecap="butt"/></g><path d="M85.04156,173.46602v-11.85052h11.36964v11.85052c0,0 -5.64338,5.39258 -5.88546,5.07879c-0.24982,-0.32382 -5.48418,-5.07879 -5.48418,-5.07879z" fill="#ebebeb" stroke="#bfbfbf" stroke-width="1.5" stroke-linecap="butt"/><path d="M108.56129,172.986v-11.85052h11.68542v11.85052c0,0 -5.80012,5.39257 -6.04892,5.07879c-0.25677,-0.32382 -5.6365,-5.07879 -5.6365,-5.07879z" fill="#ebebeb" stroke="#bfbfbf" stroke-width="1.5" stroke-linecap="butt"/></g></g></svg>