<svg version="1.1" xmlns="http://www.w3.org/2000/svg" xmlns:xlink="http://www.w3.org/1999/xlink" width="492" height="367.57853" viewBox="0,0,492,367.57853"><defs><linearGradient x1="240.5" y1="332" x2="240.5" y2="365" gradientUnits="userSpaceOnUse" id="color-1"><stop offset="0" stop-color="#ffffff"/><stop offset="1" stop-color="#ffffff" stop-opacity="0"/></linearGradient><linearGradient x1="240.89463" y1="-2" x2="240.89463" y2="32.69503" gradientUnits="userSpaceOnUse" id="color-2"><stop offset="0" stop-color="#ffffff" stop-opacity="0"/><stop offset="1" stop-color="#ffffff"/></linearGradient><linearGradient x1="-3.5" y1="180.23215" x2="29.5" y2="180.23215" gradientUnits="userSpaceOnUse" id="color-3"><stop offset="0" stop-color="#ffffff" stop-opacity="0"/><stop offset="1" stop-color="#ffffff"/></linearGradient><linearGradient x1="450.5" y1="179.71073" x2="483.5" y2="179.71073" gradientUnits="userSpaceOnUse" id="color-4"><stop offset="0" stop-color="#ffffff"/><stop offset="1" stop-color="#ffffff" stop-opacity="0"/></linearGradient><linearGradient x1="428.30655" y1="36.30298" x2="446.00719" y2="36.30298" gradientUnits="userSpaceOnUse" id="color-5"><stop offset="0" stop-color="#000000"/><stop offset="1" stop-color="#000000" stop-opacity="0"/></linearGradient><linearGradient x1="428.30655" y1="40.78415" x2="446.00719" y2="40.78415" gradientUnits="userSpaceOnUse" id="color-6"><stop offset="0" stop-color="#000000"/><stop offset="1" stop-color="#000000" stop-opacity="0"/></linearGradient></defs><g transform="translate(5.5,2.57853)"><g data-paper-data="{&quot;isPaintingLayer&quot;:true}" fill-rule="nonzero" stroke-linejoin="miter" stroke-miterlimit="10" stroke-dasharray="" stroke-dashoffset="0" style="mix-blend-mode: normal"><path d="M-5.5,365l33,-33h424l35,33z" fill="url(#color-1)" stroke="none" stroke-width="0" stroke-linecap="butt"/><path d="M485.5,-2l-37,33l-418.21073,1.69503l-34,-33.48429z" data-paper-data="{&quot;index&quot;:null}" fill="url(#color-2)" stroke="none" stroke-width="0" stroke-linecap="butt"/><path d="M-3.5,-2l33,33v299.46429l-33,32z" fill="url(#color-3)" stroke="none" stroke-width="0" stroke-linecap="butt"/><path d="M483.5,362l-33,-30v-303.90576l33,-30.67277z" data-paper-data="{&quot;index&quot;:null}" fill="url(#color-4)" stroke="none" stroke-width="0" stroke-linecap="butt"/><path d="M28,331.5v-303h424v303z" fill="#ffffff" stroke="#000000" stroke-width="5" stroke-linecap="butt"/><path d="M34.75,326.8202v-74.3202h142.5v74.3202z" fill="#000000" stroke="none" stroke-width="0" stroke-linecap="butt"/><text transform="translate(39.59015,266.55803) scale(0.29391,0.29391)" font-size="40" xml:space="preserve" fill="#ffffff" fill-rule="nonzero" stroke="none" stroke-width="1" stroke-linecap="butt" stroke-linejoin="miter" stroke-miterlimit="10" stroke-dasharray="" stroke-dashoffset="0" font-family="Serif" font-weight="normal" text-anchor="start" style="mix-blend-mode: normal"><tspan x="0" dy="0">Name: Otis Alder</tspan><tspan x="0" dy="46.150000000000006px">Age: 37</tspan><tspan x="0" dy="46.150000000000006px">Gender: Male</tspan><tspan x="0" dy="46.150000000000006px">Role:  Surveillance</tspan><tspan x="0" dy="46.150000000000006px">Status: Alive</tspan></text><path d="M194.25,59v-19.5h86v19.5z" fill="#000000" stroke="none" stroke-width="0" stroke-linecap="butt"/><text transform="translate(196.5,53.9009) scale(0.42192,0.42192)" font-size="40" xml:space="preserve" fill="#ffffff" fill-rule="nonzero" stroke="none" stroke-width="1" stroke-linecap="butt" stroke-linejoin="miter" stroke-miterlimit="10" stroke-dasharray="" stroke-dashoffset="0" font-family="Serif" font-weight="normal" text-anchor="start" style="mix-blend-mode: normal"><tspan x="0" dy="0">Description:</tspan></text><path d="M429.07853,298.09424h-241v-236.31414" fill="none" stroke="#000000" stroke-width="5" stroke-linecap="round"/><path d="M37.83201,243v-205h136.5312v205z" fill="#174752" stroke="#151515" stroke-width="6.5" stroke-linecap="butt"/><path d="M37.83201,243v-205h136.5312v205z" fill="#ffffff" stroke="#151515" stroke-width="6.5" stroke-linecap="butt"/><text transform="translate(349.55711,323.11998) scale(0.35959,0.35959)" font-size="40" xml:space="preserve" fill="#000000" fill-rule="nonzero" stroke="none" stroke-width="1" stroke-linecap="butt" stroke-linejoin="miter" stroke-miterlimit="10" stroke-dasharray="" stroke-dashoffset="0" font-family="Serif" font-weight="normal" text-anchor="start" style="mix-blend-mode: normal"><tspan x="0" dy="0">Click this to exit</tspan></text><text transform="translate(195.65985,76.79305) scale(0.35149,0.35149)" font-size="40" xml:space="preserve" fill="#000000" fill-rule="nonzero" stroke="none" stroke-width="1" stroke-linecap="butt" stroke-linejoin="miter" stroke-miterlimit="10" stroke-dasharray="" stroke-dashoffset="0" font-family="Serif" font-weight="normal" text-anchor="start" style="mix-blend-mode: normal"><tspan x="0" dy="0">Otis Alder is a member of the surveillance</tspan><tspan x="0" dy="48px">team. Occasionally he is a spy, alongside</tspan><tspan x="0" dy="48px">his twin brother Solomon, or Agent Alder.</tspan><tspan x="0" dy="48px">Usually when i'm not here he writes these.</tspan><tspan x="0" dy="48px">He works in the field of being a surveillance</tspan><tspan x="0" dy="48px">officer for the robotics department. Usually</tspan><tspan x="0" dy="48px">he focuses on Drummonds crazy antics.</tspan><tspan x="0" dy="48px">Why haven't we got that man checked for</tspan><tspan x="0" dy="48px">psychosis yet? He literally almost blew</tspan><tspan x="0" dy="48px">the facility up numerous times, for fun?</tspan></text><path d="M399.40297,43.92097l46.38016,-0.22406" fill="none" stroke="#000000" stroke-width="3" stroke-linecap="round"/><g stroke="none" stroke-linecap="butt"><g fill="#000000" stroke-width="1" font-weight="normal" font-size="40" text-anchor="start"><text transform="translate(399.40297,42.80068) scale(0.23516,0.23516)" font-size="40" xml:space="preserve" fill="#000000" fill-rule="nonzero" stroke="none" stroke-width="1" stroke-linecap="butt" stroke-linejoin="miter" stroke-miterlimit="10" stroke-dasharray="" stroke-dashoffset="0" font-family="Pixel" font-weight="normal" text-anchor="start" style="mix-blend-mode: normal"><tspan x="0" dy="0">DONK</tspan></text><text transform="translate(398.8418,52.32215) scale(0.23516,0.23516)" font-size="40" xml:space="preserve" fill="#000000" fill-rule="nonzero" stroke="none" stroke-width="1" stroke-linecap="butt" stroke-linejoin="miter" stroke-miterlimit="10" stroke-dasharray="" stroke-dashoffset="0" font-family="Sans Serif" font-weight="normal" text-anchor="start" style="mix-blend-mode: normal"><tspan x="0" dy="0">Industries</tspan></text></g><path d="M428.30655,37.64733v-2.6887h17.70064v2.6887z" fill="url(#color-5)" stroke-width="0"/><path d="M428.30655,42.09116v-2.61402h17.70064v2.61402z" fill="url(#color-6)" stroke-width="0"/></g><text transform="translate(186.81898,314.36666) scale(0.3147,0.3147)" font-size="40" xml:space="preserve" fill="#000000" fill-rule="nonzero" stroke="none" stroke-width="1" stroke-linecap="butt" stroke-linejoin="miter" stroke-miterlimit="10" stroke-dasharray="" stroke-dashoffset="0" font-family="Serif" font-weight="normal" text-anchor="start" style="mix-blend-mode: normal"><tspan x="0" dy="0">Written by: Nile Parkas</tspan></text><path d="M76.84028,241.10349v-87.84563c0.10339,-1.02042 0.1452,-2.03387 0.14528,-3.12487l0.00003,-0.29187c0,0 0.00001,-0.15023 -0.1453,-0.16005v-71.19462h58.55564v162.61705z" fill-opacity="0.01" fill="#000000" stroke="none" stroke-width="0" stroke-linecap="butt"/><path d="M80.53072,239.67725c0,0 -0.40802,-60.61181 -0.50948,-75.78542c-0.03501,-5.23548 5.25748,-23.60751 25.81709,-23.71014c20.29452,-0.1013 25.59535,18.93611 25.59029,23.69449c-0.04918,29.69635 0.42017,75.76903 0.42017,75.76903l-6.74079,0.06174l-0.10199,-73.75041c0,0 0.04848,-1.99032 -1.80855,-2.02554c-2.20552,-0.04183 -1.89148,2.0008 -1.89148,2.0008l0.13196,73.76764l-30.96204,0.04638l-0.19612,-74.00085c0,0 0.17948,-1.87454 -1.85309,-1.88444c-1.99773,-0.00973 -1.80819,1.86811 -1.80819,1.86811l0.22676,73.89406z" fill="#ffffff" stroke="#000000" stroke-width="2" stroke-linecap="butt"/><path d="M124.18609,210.52751v-45.59506h9.63276v45.59506z" fill="#6712b1" stroke="#402b6b" stroke-width="3" stroke-linecap="butt"/><path d="M76.98557,211.81188v-45.59506h9.63276v45.59506z" fill="#6712b1" stroke="#402b6b" stroke-width="3" stroke-linecap="butt"/><path d="M120.17245,175.20742l0.85625,-11.55931c0,0 -3.32574,-19.58661 -0.99895,-19.58661c1.72218,0 17.98115,18.73036 17.98115,18.73036z" data-paper-data="{&quot;index&quot;:null}" fill="#9966ff" stroke="#402b6b" stroke-width="3.5" stroke-linecap="butt"/><path d="M115.59212,172.853c-0.36677,0 -0.66409,-0.29732 -0.66409,-0.66409c0,-0.36677 0.29732,-0.6641 0.66409,-0.6641c0.36677,0 0.66409,0.29733 0.66409,0.6641c0,0.36677 -0.29732,0.66409 -0.66409,0.66409z" fill="#000000" stroke="none" stroke-width="1.5" stroke-linecap="butt"/><path d="M70.72429,162.47076c0,0 19.02813,-19.05145 20.9673,-19.05145c2.61997,0 -1.84535,19.9077 -1.84535,19.9077l0.96414,11.55931z" fill="#9966ff" stroke="#402b6b" stroke-width="3.5" stroke-linecap="butt"/><path d="M112.21434,175.57303c-2.86639,-0.2019 -4.20788,-1.15203 -3.96218,-1.65691c0.0757,-0.15556 1.82794,0.68299 4.47627,0.83792c4.11574,0.24077 5.4652,-0.40569 5.4652,-0.40569v0.86448c0,0 -1.54991,0.67219 -5.97929,0.36019z" fill="#000000" stroke="#000000" stroke-width="0" stroke-linecap="butt"/><path d="M94.35343,172.18892c0,-0.36677 0.29732,-0.6641 0.66409,-0.6641c0.36677,0 0.6641,0.29733 0.6641,0.6641c0,0.36677 -0.29733,0.66409 -0.6641,0.66409c-0.36677,0 -0.66409,-0.29732 -0.66409,-0.66409z" fill="#000000" stroke="none" stroke-width="1.5" stroke-linecap="butt"/><path d="M89.98981,239.74688c0,0 -2.30671,-71.08143 -1.44672,-88.16794c0.40758,-8.09792 6.35969,-9.44403 6.35969,-9.44403c0.11726,0.61058 0.241,1.22043 0.3595,1.83173c0.83422,2.2302 1.48221,4.18712 2.63752,6.19403c1.18802,2.03431 3.49545,2.8697 5.73501,2.87393c2.19548,0.00139 4.82138,0.55577 6.48664,-1.13764c1.83356,-1.13615 3.16832,-3.31646 4.15205,-5.26425c0.63811,-1.26925 1.21917,-2.93474 1.64034,-4.49781c0,0 5.63013,3.09183 5.81642,6.80219c0.66374,13.22001 -0.91561,90.80978 -0.91561,90.80978z" fill="#9966ff" stroke="#402b6b" stroke-width="3.5" stroke-linecap="butt"/><path d="M77.25333,110.91201c0,0 3.95797,-3.80293 4.04037,-4.35889c0.21612,-1.45816 -0.10773,-25.79857 23.09791,-26.69804c28.66474,-0.58671 25.05474,22.70038 26.67047,27.09394c2.21541,6.02423 3.9537,11.1741 3.9537,11.1741c0,0 -1.77702,-1.31873 -2.61992,-2.01259c-0.78616,-0.64715 -2.44122,-2.02021 -2.44122,-2.02021c0,0 1.98506,6.64538 0.84185,13.28999c-1.00328,6.08853 -4.68654,11.0619 -4.68654,11.0619l-0.74186,-1.50743c0,0 -0.65674,1.41148 -1.38715,2.14023c-0.73042,0.72874 -2.2083,1.87051 -2.2083,1.87051l-0.05911,-2.37878c0,0 -4.53388,7.07555 -15.6376,6.98153c-10.47161,-0.16406 -16.74271,-6.85544 -16.74271,-6.85544l-0.07462,1.7049c0,0 -2.50116,-2.11456 -3.96963,-6.23403c-1.75024,-4.90993 -2.08033,-7.86241 -2.08033,-7.86241c0,0 -1.50212,1.21961 -3.67139,1.78168c-2.71822,0.7043 -4.46103,0.22172 -4.46103,0.22172c0,0 2.31697,-1.74492 3.58593,-3.06315c1.13029,-1.17417 1.69959,-2.1688 1.69959,-2.1688c0,0 -1.35345,0.69658 -2.71822,1.03902c-1.42397,0.35731 -2.58805,0.34095 -2.58805,0.34095c0,0 3.19481,-3.23486 4.51503,-6.9833c1.24649,-3.53913 1.34841,-7.03661 1.34841,-7.03661c0,0 -0.87443,0.42489 -2.13856,0.51062c-0.80129,0.05435 -1.52702,-0.0314 -1.52702,-0.0314z" fill="#000000" stroke="none" stroke-width="1.5" stroke-linecap="butt"/><path d="M88.03296,118.18258c-0.3706,-4.6836 0.21513,-11.01633 0.21513,-11.01633c0,0 2.19023,-0.02648 8.93553,-2.01918c5.18217,-1.53093 13.19515,-6.09254 13.19515,-6.09254c0,0 -1.38715,1.92978 -2.18844,2.86424c-0.85186,0.99343 -2.56419,2.93027 -2.56419,2.93027c0,0 5.03344,-1.07091 9.4239,-3.03709c5.50247,-2.2706 6.80235,-3.8872 8.31655,-2.94936c1.78713,1.10688 0.66149,14.88756 0.46138,18.45677c-0.27076,3.64068 -1.62683,6.10055 -2.02308,8.04048c-0.39625,1.93994 -0.26304,3.94084 -1.4168,10.30044c-0.72002,3.96883 -2.67266,5.73127 -6.43431,9.41494c-3.76165,3.68367 -5.81419,5.94197 -8.35712,5.98627c-2.44722,0.04263 -5.73833,-3.27527 -8.9491,-6.66744c-3.41894,-3.61212 -5.69931,-5.44388 -6.23915,-9.72251c-0.48618,-3.85335 -0.49868,-6.3631 -0.72095,-9.79225c-0.16246,-2.50627 -1.4521,-4.1389 -1.6545,-6.6967z" fill="#ffffff" stroke="#000000" stroke-width="1.5" stroke-linecap="butt"/><path d="M118.90274,110.91283c0,0 0.97887,0.20426 2.73301,0.71301c1.6022,0.46469 2.8573,1.11999 2.8573,1.11999l0.12529,0.75158c0,0 -4.6556,-2.01002 -9.70712,-1.58658c-4.03908,0.33859 -6.3982,1.80608 -6.3982,1.80608l0.02938,-2.68229c0,0 2.00842,-1.09442 5.04992,-1.19162c3.14945,-0.10064 5.19581,0.37969 5.19581,0.37969z" data-paper-data="{&quot;index&quot;:null}" fill="#000000" stroke="none" stroke-width="1.5" stroke-linecap="butt"/><path d="M110.70583,136.07841c0.3663,0.13605 1.98022,0.89869 3.86842,1.66702c1.90324,0.77445 4.63247,1.47249 4.61995,1.58009c-0.0159,0.13656 -6.70104,0.14574 -8.78467,0.40601c-1.74611,0.21811 -4.29536,0.45315 -4.29536,0.45315c0,0 -4.56208,-0.74602 -8.52329,-1.57027c-3.17477,-0.66061 -6.67826,-1.06672 -6.6851,-1.12678c-0.00924,-0.081 2.48419,-0.45641 4.38237,-0.89563c0.73585,-0.31891 3.49329,-0.95373 3.49329,-0.95373c0,0 3.18257,-0.17831 4.8859,0.37182c1.82511,0.58947 1.82089,1.5705 1.97992,1.58559c0,0 0.76058,-1.12339 1.52124,-1.35155c0.76067,-0.22816 3.2637,-0.26736 3.53733,-0.16573z" fill="#ffffff" stroke="#000000" stroke-width="1.4" stroke-linecap="butt"/><path d="M98.73039,139.00263c3.26945,0.65936 7.65327,1.80284 7.65327,1.80284c0,0 3.71809,-0.99914 5.42439,-1.17802c1.32285,-0.13869 7.20274,-0.45373 7.23116,-0.21434c0.02779,0.23406 -5.79969,8.28439 -13.58096,7.99335c-8.84258,-0.27985 -14.68327,-9.71983 -14.65897,-9.82845c0.0243,-0.10861 4.66168,0.76526 7.93113,1.42462z" fill="#ffffff" stroke="#000000" stroke-width="1.9" stroke-linecap="butt"/><path d="M105.77789,137.08016c-0.66386,0 -2.27211,-2.09379 -2.43176,-3.44448c-0.14284,-1.2085 0.84455,-2.45827 2.43176,-2.45827c1.58722,0 2.69852,0.31516 2.588,2.68981c-0.0938,2.01529 -1.00079,3.21296 -2.588,3.21296z" fill="#ffffff" stroke="#000000" stroke-width="1.15" stroke-linecap="butt"/><path d="M88.34523,82.91313c1.08702,0.05633 2.12892,0.27035 2.95224,1.07632c0.67835,0.68005 1.23094,1.52005 1.87007,2.17924c0.80744,0.83278 2.23187,1.36308 3.17146,2.04232c1.88423,1.36214 3.3988,2.67785 5.53927,3.70251c0.81634,0.39079 1.63277,0.78143 2.44917,1.17211c0.77842,-0.31458 1.55279,-0.63576 2.33286,-0.91622c2.54832,-0.91618 4.10886,-0.26448 6.44264,0.9495c1.9985,1.03957 4.00881,1.99699 6.06738,2.91172c2.05474,0.91304 4.13139,1.75126 6.22106,2.58094c1.19175,0.47317 2.40576,1.0304 3.43818,1.80434c0.20734,0.15542 1.05465,0.62777 1.09084,0.88483c0.02749,0.19529 -0.279,0.76128 -0.49747,1.16429c1.27843,0.09041 2.57211,-0.00516 3.88231,-0.20818c1.53851,-0.23839 2.63466,-1.14171 3.97387,-1.69133c1.27935,-0.52506 1.29886,0.7017 0.70616,1.43759c-0.13537,0.25511 -1.12495,1.53862 -0.85228,1.80788c0.13573,0.13404 0.38685,-0.08772 0.57101,-0.03798c0.99551,0.26888 2.04954,0.22363 3.08965,0.40262l0.00087,-0.01855l0.31985,0.01498c0.0856,0.00346 0.15394,0.07396 0.15394,0.16041c0,0.04263 -0.01661,0.08138 -0.04372,0.11013l-0.21945,0.23388c-0.80221,0.85473 -1.48321,2.15843 -1.81567,3.27756c-0.08187,0.27557 -0.23385,1.1508 0.1229,1.32777c0.30924,0.15339 0.86229,0.18754 1.21135,0.28411c0.51182,0.1421 1.62799,0.40018 1.75958,0.98882c0.23583,1.05488 -1.50197,3.63546 -2.22055,4.35233c-1.38086,1.3619 -3.86292,3.12406 -2.76274,5.25505c0.32423,0.62802 2.48977,3.11168 1.94238,3.77368c-0.16531,0.19992 -2.19698,0.3216 -2.58051,0.42521c-1.14313,0.7245 1.29136,4.94737 -1.37813,4.41426c-0.31025,-0.06196 -0.6314,-0.20869 -0.93195,-0.30864c-0.26549,-0.08373 -0.54983,-0.47771 -0.77426,-0.31301c-0.02416,0.01772 0.06451,1.33014 0.06432,1.47614c-0.00176,1.38356 -0.23306,2.79437 -0.36309,4.17208c-0.26839,1.37275 -1.38985,-0.39928 -1.93764,0.12639c-0.43282,0.41535 0.05628,4.2962 -1.38169,2.61703c-0.14844,-0.17334 -0.26357,-0.37627 -0.35526,-0.58525c-0.18716,-0.44031 -0.06841,-0.83933 -0.18567,-1.27906c-0.19617,-0.7356 -0.97707,-1.19869 -1.2239,-1.85209c-0.08854,-0.2344 0.10775,-0.70716 -0.05366,-0.9216c-0.34124,-0.45336 -0.90208,-1.38403 -0.9196,-2.01138c0.00078,-2.07901 0.91208,-4.55448 1.40735,-6.58642c0.52251,-2.14082 0.84145,-4.42245 0.84002,-6.62534c-0.00127,-1.97203 -0.06671,-4.76425 -1.15501,-6.43525c-0.77558,-1.19192 -1.52245,-1.98141 -2.45516,-2.55341c-0.21571,0.10755 -0.4462,0.19563 -0.69335,0.26111c-0.5931,0.14832 -1.39434,0.50311 -1.99217,0.19717c-0.19931,-0.10199 -0.44586,-0.62163 -0.64412,-0.67033c-0.50212,-0.12334 -1.55532,0.54923 -2.12521,0.57374c-0.56151,0.02415 -0.89989,-0.44133 -1.50302,-0.34348c-0.74499,0.11207 -2.26503,0.63556 -2.96289,0.2507c-0.23767,-0.13108 -0.35105,-0.6492 -0.5796,-0.75087c-0.40865,-0.18178 -2.11011,0.82219 -2.60643,0.93934c-1.13432,0.19388 -0.84393,-2.02473 -1.18594,-2.00068c-0.9175,0.06451 -2.70539,1.38518 -3.61925,1.84117c-0.51408,0.25651 -1.64967,0.79386 -2.24412,0.66417c-0.95816,-0.20904 -0.78978,-1.85804 -1.4551,-2.07645c-0.2212,-0.07261 -1.39154,0.59281 -1.6622,0.6969c-1.06962,0.82925 -2.30718,0.74292 -3.37129,1.58336c-0.28587,0.22579 -0.67562,0.73676 -1.03168,0.20282c-0.19631,-0.2944 0.13537,-1.50021 0.17531,-1.86432c-1.02898,0.38046 -2.64254,1.65793 -3.6779,1.72941c-0.7913,0.05463 -1.57255,-0.4632 -2.48228,-0.35169c-0.52412,0.05648 -0.66149,-0.12361 -0.74389,-0.34673c-0.02512,0.01934 -0.05612,0.03143 -0.08987,0.03309l-0.31951,0.01811l-0.0008,-0.01408c-0.97401,0.28704 -2.88497,0.75834 -3.26663,0.41332c-0.1275,-0.11526 -0.17918,-0.28488 -0.17857,-0.48589c-0.4231,-0.04473 -0.81588,-0.31069 -1.16768,-1.00933c-0.18145,-0.36034 -0.33454,-0.72901 -0.4708,-1.10233c-0.84396,0.84551 -2.20424,2.18131 -2.41404,3.12611c-0.17495,0.78785 0.04086,1.43126 -0.328,2.19663c-0.33517,1.96106 0.01394,4.40078 0.01429,6.56742c0.00037,2.29179 0.0921,4.41568 0.50939,6.67035c0.40513,2.18897 0.7158,4.44314 1.41331,6.53781c0.40212,1.36953 1.34843,3.26912 1.23478,4.70985c-0.04267,0.54093 -0.78599,1.18683 -1.05454,1.67713c-0.3092,0.42588 -1.08437,2.01947 -1.57108,2.14815c-1.08728,0.28746 -1.58479,-2.91914 -1.70987,-3.66482c-0.05575,-0.33241 0.07317,-1.62868 -0.072,-1.82741c-0.10558,-0.14452 -0.9746,0.7027 -1.0418,0.80434c-0.46563,0.70428 -1.66743,2.40745 -2.36218,1.45669c-0.61192,-0.94023 -0.84488,-2.28871 -1.13983,-3.37581c-0.06697,-0.24684 -0.1721,-1.30458 -0.39996,-1.42887c-0.3426,-0.18688 -1.09074,0.22038 -1.38582,0.36319c-0.41328,0.20003 -1.36185,0.61682 -1.70594,0.02348c-0.24364,-0.42014 0.18451,-0.9986 0.30725,-1.33729c0.36441,-1.00556 0.30133,-2.63786 0.29666,-3.72018c-0.07422,-0.29265 -0.20111,-1.61657 -0.39004,-1.76865c-0.51319,-0.41308 -1.7742,0.54024 -2.15756,-0.47814c-0.27134,-0.72078 0.11832,-1.90864 0.2613,-2.6277c0.17972,-0.90349 0.78834,-2.84341 0.35578,-3.71824c-0.39866,-0.80626 -2.19658,-0.94253 -1.67539,-2.19249c0.40258,-0.86568 2.14468,-1.73323 2.31639,-2.52514c0.1333,-0.61478 -0.73519,-2.32825 -0.97302,-2.95182c-0.84713,-2.2211 -0.82045,-4.27464 -1.26376,-6.57523c-0.06303,-0.75764 -0.70972,-3.50566 0.14632,-3.91817c0.37334,-0.17991 2.22153,0.77911 2.75692,0.88547c1.16442,-0.38621 0.35625,-1.5581 0.3367,-2.52933c-0.02315,-1.15017 0.28872,-2.43713 0.45703,-3.576c0.64094,-0.70837 1.66809,-0.35522 2.20731,-1.05555c0.62874,-0.81658 0.1968,-3.03612 0.22908,-4.03608c0.0214,-0.66271 -0.07417,-2.23668 0.73586,-2.54358c0.36886,-0.13975 3.54786,1.94416 3.41205,0.42c0.00001,-1.06881 -0.49077,-4.46803 0.47601,-5.21368c0.2767,-0.21341 1.39556,-0.01849 1.72485,0.0338c1.99576,0.31954 3.67225,-0.06758 5.66588,-0.06758c0,0 0.16055,0 0.16055,0.16055c0,0.16055 -0.16055,0.16055 -0.16055,0.16055c-0.28107,0 -0.55605,0.00757 -0.82666,0.0197zM88.48855,105.04892c-0.93782,0.00039 -1.46425,0.29067 -2.26518,0.76823c-0.00507,0.0052 -0.01018,0.01043 -0.01533,0.01569c0.14573,0.40959 0.31036,0.81408 0.50908,1.20871c0.26539,0.52705 0.57675,0.75979 0.91952,0.82469c0.15999,-0.7594 0.77066,-1.73876 0.95155,-2.07829c0.12961,-0.24257 0.26038,-0.47735 0.39275,-0.70554c-0.20963,-0.01668 -0.39152,-0.03352 -0.49239,-0.03348zM94.09475,97.74764c-1.09812,1.2556 -2.10687,2.60293 -2.82682,4.10673c0.4026,-0.47811 0.82956,-0.95404 1.28771,-1.44623c0.68951,-0.66491 1.07832,-1.69868 1.53912,-2.66049z" fill="#000000" stroke="none" stroke-width="0.5" stroke-linecap="butt"/><path d="M108.0911,117.75448c0,0 0.06589,2.54932 0.0037,4.5766c-0.12313,4.01438 -0.6945,17.82748 -0.6945,17.82748l-1.91478,0.00555c0,0 -0.51564,-2.67967 -0.72131,-6.10061c-0.27841,-4.63055 -0.28866,-10.46324 -0.49027,-12.60754c-0.1911,-2.0326 -0.57535,-3.66978 -0.57535,-3.66978" fill="#ffffff" stroke="#000000" stroke-width="1.3" stroke-linecap="round"/><path d="M89.12445,124.68355c0,0 -3.16732,-2.25859 -3.95853,-5.76361c-0.8325,-3.68796 -0.93835,-6.25025 0.30833,-6.41666c1.24668,-0.16642 1.73596,1.52642 2.39703,5.36589c0.66106,3.83947 1.25318,6.81439 1.25318,6.81439z" data-paper-data="{&quot;index&quot;:null}" fill="#ffffff" stroke="#000000" stroke-width="1" stroke-linecap="butt"/><path d="M88.99434,122.14849c0,0 -2.28865,-1.87735 -2.77305,-5.42685c-0.27022,-1.98003 1.38503,-1.46428 1.38503,-1.46428" fill="none" stroke="#000000" stroke-width="0.25" stroke-linecap="round"/><path d="M93.15238,111.10309c0,0 2.16392,-1.16813 5.1583,-1.46532c3.31815,-0.32933 4.98863,-0.04256 4.98863,-0.04256l0.1895,2.65702c0,0 -2.46312,-0.4371 -5.149,-0.33466c-3.59203,0.137 -4.26724,0.9202 -6.99835,1.21449c-2.34017,0.25216 -4.32654,0.102 -4.32654,0.102l-0.01663,-0.79088c0,0 2.30876,0.04751 3.361,-0.0439c0.86848,-0.07545 2.55313,-0.60242 2.55313,-0.60242z" fill="#000000" stroke="none" stroke-width="1.5" stroke-linecap="butt"/><path d="M123.95212,117.86916c0.66106,-3.83947 1.15034,-5.53231 2.39703,-5.36589c1.24668,0.16642 1.14083,2.7287 0.30833,6.41666c-0.79121,3.50502 -3.95853,5.76361 -3.95853,5.76361c0,0 0.59211,-2.97492 1.25318,-6.81439z" data-paper-data="{&quot;index&quot;:null}" fill="#ffffff" stroke="#000000" stroke-width="1" stroke-linecap="butt"/><path d="M124.21703,115.25736c0,0 1.65525,-0.51575 1.38503,1.46428c-0.48441,3.5495 -2.77305,5.42685 -2.77305,5.42685" data-paper-data="{&quot;index&quot;:null}" fill="none" stroke="#000000" stroke-width="0.25" stroke-linecap="round"/><path d="M137.06663,99.83795c-2.74731,6.23714 -15.18047,6.79782 -27.77025,1.25232c-12.58977,-5.5455 -20.56867,-15.09721 -17.82136,-21.33434c2.74731,-6.23714 15.18047,-6.79782 27.77025,-1.25232c12.58977,5.5455 20.56867,15.09721 17.82136,21.33434z" fill="#6712b1" stroke="#9966ff" stroke-width="3.5" stroke-linecap="butt"/><path d="M99.42862,76.31389c4.17494,-9.0105 15.71168,-12.53765 25.76804,-7.87811c10.05636,4.65953 14.82418,15.74127 10.64925,24.75177c-4.17494,9.0105 -40.59222,-7.86316 -36.41729,-16.87365z" fill="#6712b1" stroke="#9966ff" stroke-width="3.5" stroke-linecap="butt"/><g stroke-linecap="butt"><path d="M108.55345,118.58324c0.04555,-3.14149 3.1071,-5.73861 6.55758,-5.68859c3.45047,0.05003 5.79715,2.72825 5.75161,5.86975c-0.04555,3.14149 -2.64806,5.64762 -6.09853,5.5976c-3.45047,-0.05003 -6.2562,-2.63726 -6.21065,-5.77875z" fill="#ffffff" stroke="#000000" stroke-width="1.4"/><path d="M111.40323,118.65898c0.02568,-1.77142 1.48251,-3.1866 3.25392,-3.16092c1.77142,0.02568 3.1866,1.48251 3.16092,3.25392c-0.02568,1.77142 -1.48251,3.1866 -3.25392,3.16092c-1.77142,-0.02568 -3.1866,-1.48251 -3.16092,-3.25392z" fill="#000000" stroke="none" stroke-width="1.5"/><path d="M108.24193,118.30035c0,0 0.04082,-5.78937 6.80786,-5.66721c6.08213,0.10651 6.13641,6.04117 6.13641,6.04117c0,0 -2.28329,-3.48979 -6.67752,-3.52318c-4.00516,-0.03043 -6.26676,3.14921 -6.26676,3.14921z" fill="#ffffff" stroke="#000000" stroke-width="1.15"/><path d="M114.50869,122.0625c4.39423,-0.03339 6.67752,-3.52318 6.67752,-3.52318c0,0 -0.05428,5.93466 -6.13641,6.04117c-6.76704,0.12216 -6.80786,-5.66721 -6.80786,-5.66721c0,0 2.2616,3.17965 6.26676,3.14921z" data-paper-data="{&quot;index&quot;:null}" fill="#ffffff" stroke="#000000" stroke-width="1.15"/></g><g stroke-linecap="butt"><path d="M91.42854,118.36918c0.04555,-3.14149 3.1071,-5.73861 6.55758,-5.68859c3.45047,0.05003 5.79715,2.72825 5.75161,5.86975c-0.04555,3.14149 -2.64806,5.64762 -6.09853,5.5976c-3.45047,-0.05003 -6.2562,-2.63726 -6.21065,-5.77875z" fill="#ffffff" stroke="#000000" stroke-width="1.4"/><path d="M94.27831,118.44491c0.02568,-1.77142 1.48251,-3.1866 3.25392,-3.16092c1.77142,0.02568 3.1866,1.48251 3.16092,3.25392c-0.02568,1.77142 -1.48251,3.1866 -3.25392,3.16092c-1.77142,-0.02568 -3.1866,-1.48251 -3.16092,-3.25392z" fill="#000000" stroke="none" stroke-width="1.5"/><path d="M103.57966,120.6316c0,0 -1.76678,3.86897 -5.60126,3.54735c-4.73346,0.01513 -6.27271,-3.81558 -6.27271,-3.81558c0,0 3.86202,0.36246 5.82139,0.40672c1.99789,0.04513 6.05259,-0.1385 6.05259,-0.1385z" data-paper-data="{&quot;index&quot;:null}" fill="#ffffff" stroke="#000000" stroke-width="1.15"/><path d="M91.83413,116.3633c0,0 1.53925,-3.8307 6.27271,-3.81557c3.83449,-0.32161 5.60126,3.93267 5.60126,3.93267c0,0 -3.78166,0.14619 -5.72388,0.12703c-2.01323,-0.01985 -6.1501,-0.24413 -6.1501,-0.24413z" data-paper-data="{&quot;index&quot;:null}" fill="#ffffff" stroke="#000000" stroke-width="1.15"/></g><path d="M125.35051,85.45215c-1.92893,3.83831 -6.40474,5.48642 -9.997,3.68113c-3.59227,-1.80528 -4.94067,-6.38032 -3.01175,-10.21862c1.92893,-3.83831 6.40474,-5.48641 9.99701,-3.68113c3.59226,1.80528 4.94067,6.38031 3.01174,10.21862z" fill="#9966ff" stroke="#402b6b" stroke-width="3" stroke-linecap="butt"/><path d="M117.75391,81.33473c-0.61598,0.94766 -1.92788,1.18773 -2.93021,0.53622c-1.00233,-0.65152 -1.31554,-1.9479 -0.69956,-2.89557c0.61598,-0.94766 1.92788,-1.18773 2.93021,-0.53622c1.00233,0.65152 1.31554,1.9479 0.69956,2.89557z" fill="#9966ff" stroke="#402b6b" stroke-width="1.5" stroke-linecap="butt"/><path d="M123.74763,84.97377c-0.61598,0.94766 -1.92788,1.18773 -2.93021,0.53621c-1.00233,-0.65152 -1.31554,-1.9479 -0.69956,-2.89556c0.61598,-0.94766 1.92788,-1.18774 2.93021,-0.53622c1.00233,0.65152 1.31554,1.94791 0.69956,2.89557z" fill="#9966ff" stroke="#402b6b" stroke-width="1.5" stroke-linecap="butt"/><path d="M121.57543,88.39641l-9.0976,-4.92341" fill="none" stroke="#402b6b" stroke-width="3" stroke-linecap="round"/><path d="M76.718,162.14966l6.84996,4.92341" fill="none" stroke="#402b6b" stroke-width="3" stroke-linecap="round"/><path d="M125.30991,168.78555l6.20778,-4.92341" fill="none" stroke="#402b6b" stroke-width="3" stroke-linecap="round"/><path d="M93.20072,184.19797l0.21406,-31.68108" fill="none" stroke="#402b6b" stroke-width="3" stroke-linecap="round"/><path d="M99.4085,171.14023l15.84054,-7.92027" fill="none" stroke="#402b6b" stroke-width="3" stroke-linecap="round"/><path d="M114.82091,170.28398l-17.12491,11.55931" fill="none" stroke="#402b6b" stroke-width="3" stroke-linecap="round"/><path d="M118.67402,194.25885l0.21406,-43.66851" fill="none" stroke="#402b6b" stroke-width="3" stroke-linecap="round"/><path d="M115.4631,205.6041l-17.12491,-9.63276" fill="none" stroke="#402b6b" stroke-width="3" stroke-linecap="round"/><path d="M100.90692,202.17912l10.70307,6.20778" fill="none" stroke="#402b6b" stroke-width="3" stroke-linecap="round"/><path d="M94.05696,238.56954l-0.42812,-42.38414" fill="none" stroke="#402b6b" stroke-width="3" stroke-linecap="round"/><path d="M117.44316,231.0774l0.64218,-22.47644" fill="none" stroke="#402b6b" stroke-width="3" stroke-linecap="round"/><path d="M110.70023,219.197l-9.31167,1.60546" fill="none" stroke="#402b6b" stroke-width="3" stroke-linecap="round"/><path d="M112.62678,221.44464l-13.48586,4.1742" fill="none" stroke="#402b6b" stroke-width="3" stroke-linecap="round"/><path d="M85.33396,164.29026l-6.42184,-4.81638" fill="none" stroke="#402b6b" stroke-width="3" stroke-linecap="round"/><path d="M123.54391,164.61136l5.77966,-4.1742" fill="none" stroke="#402b6b" stroke-width="3" stroke-linecap="round"/><path d="M84.75599,126.24086v-16.43991h42.51258v16.43991z" fill="#6712b1" stroke="#402b6b" stroke-width="3" stroke-linecap="butt"/><path d="M126.11264,118.14934l-13.74274,-0.38531l-9.63276,4.36685l-8.09152,-6.2934l-9.50432,2.18343" fill="none" stroke="#402b6b" stroke-width="3" stroke-linecap="round"/><path d="M76.02229,220.80245v-9.31167h11.55931v9.31167z" fill="#6712b1" stroke="#402b6b" stroke-width="3.5" stroke-linecap="butt"/><path d="M123.54391,219.83917v-9.31167h10.91713v9.31167z" fill="#6712b1" stroke="#402b6b" stroke-width="3.5" stroke-linecap="butt"/></g></g></svg>