<svg version="1.1" xmlns="http://www.w3.org/2000/svg" xmlns:xlink="http://www.w3.org/1999/xlink" width="492" height="367.57853" viewBox="0,0,492,367.57853"><defs><linearGradient x1="240.5" y1="332" x2="240.5" y2="365" gradientUnits="userSpaceOnUse" id="color-1"><stop offset="0" stop-color="#ffffff"/><stop offset="1" stop-color="#ffffff" stop-opacity="0"/></linearGradient><linearGradient x1="240.89463" y1="-2" x2="240.89463" y2="32.69503" gradientUnits="userSpaceOnUse" id="color-2"><stop offset="0" stop-color="#ffffff" stop-opacity="0"/><stop offset="1" stop-color="#ffffff"/></linearGradient><linearGradient x1="-3.5" y1="180.23215" x2="29.5" y2="180.23215" gradientUnits="userSpaceOnUse" id="color-3"><stop offset="0" stop-color="#ffffff" stop-opacity="0"/><stop offset="1" stop-color="#ffffff"/></linearGradient><linearGradient x1="450.5" y1="179.71073" x2="483.5" y2="179.71073" gradientUnits="userSpaceOnUse" id="color-4"><stop offset="0" stop-color="#ffffff"/><stop offset="1" stop-color="#ffffff" stop-opacity="0"/></linearGradient><linearGradient x1="428.30655" y1="36.30298" x2="446.00719" y2="36.30298" gradientUnits="userSpaceOnUse" id="color-5"><stop offset="0" stop-color="#000000"/><stop offset="1" stop-color="#000000" stop-opacity="0"/></linearGradient><linearGradient x1="428.30655" y1="40.78415" x2="446.00719" y2="40.78415" gradientUnits="userSpaceOnUse" id="color-6"><stop offset="0" stop-color="#000000"/><stop offset="1" stop-color="#000000" stop-opacity="0"/></linearGradient></defs><g transform="translate(5.5,2.57853)"><g data-paper-data="{&quot;isPaintingLayer&quot;:true}" fill-rule="nonzero" stroke-linejoin="miter" stroke-miterlimit="10" stroke-dasharray="" stroke-dashoffset="0" style="mix-blend-mode: normal"><path d="M-5.5,365l33,-33h424l35,33z" fill="url(#color-1)" stroke="none" stroke-width="0" stroke-linecap="butt"/><path d="M485.5,-2l-37,33l-418.21073,1.69503l-34,-33.48429z" data-paper-data="{&quot;index&quot;:null}" fill="url(#color-2)" stroke="none" stroke-width="0" stroke-linecap="butt"/><path d="M-3.5,-2l33,33v299.46429l-33,32z" fill="url(#color-3)" stroke="none" stroke-width="0" stroke-linecap="butt"/><path d="M483.5,362l-33,-30v-303.90576l33,-30.67277z" data-paper-data="{&quot;index&quot;:null}" fill="url(#color-4)" stroke="none" stroke-width="0" stroke-linecap="butt"/><path d="M28,331.5v-303h424v303z" fill="#ffffff" stroke="#000000" stroke-width="5" stroke-linecap="butt"/><path d="M34.75,326.8202v-74.3202h142.5v74.3202z" fill="#000000" stroke="none" stroke-width="0" stroke-linecap="butt"/><text transform="translate(39.59015,266.55803) scale(0.29391,0.29391)" font-size="40" xml:space="preserve" fill="#ffffff" fill-rule="nonzero" stroke="none" stroke-width="1" stroke-linecap="butt" stroke-linejoin="miter" stroke-miterlimit="10" stroke-dasharray="" stroke-dashoffset="0" font-family="Serif" font-weight="normal" text-anchor="start" style="mix-blend-mode: normal"><tspan x="0" dy="0">Name: Klap</tspan><tspan x="0" dy="46.150000000000006px">Age:11</tspan><tspan x="0" dy="46.150000000000006px">Gender: Male</tspan><tspan x="0" dy="46.150000000000006px">Role: Amalgam</tspan><tspan x="0" dy="46.150000000000006px">Status: Contained</tspan></text><path d="M194.25,59v-19.5h86v19.5z" fill="#000000" stroke="none" stroke-width="0" stroke-linecap="butt"/><text transform="translate(196.5,53.9009) scale(0.42192,0.42192)" font-size="40" xml:space="preserve" fill="#ffffff" fill-rule="nonzero" stroke="none" stroke-width="1" stroke-linecap="butt" stroke-linejoin="miter" stroke-miterlimit="10" stroke-dasharray="" stroke-dashoffset="0" font-family="Serif" font-weight="normal" text-anchor="start" style="mix-blend-mode: normal"><tspan x="0" dy="0">Description:</tspan></text><path d="M429.07853,298.09424h-241v-236.31414" fill="none" stroke="#000000" stroke-width="5" stroke-linecap="round"/><path d="M37.83201,243v-205h136.5312v205z" fill="#174752" stroke="#151515" stroke-width="6.5" stroke-linecap="butt"/><path d="M37.83201,243v-205h136.5312v205z" fill="#ffffff" stroke="#151515" stroke-width="6.5" stroke-linecap="butt"/><text transform="translate(349.55711,323.11998) scale(0.35959,0.35959)" font-size="40" xml:space="preserve" fill="#000000" fill-rule="nonzero" stroke="none" stroke-width="1" stroke-linecap="butt" stroke-linejoin="miter" stroke-miterlimit="10" stroke-dasharray="" stroke-dashoffset="0" font-family="Serif" font-weight="normal" text-anchor="start" style="mix-blend-mode: normal"><tspan x="0" dy="0">Click this to exit</tspan></text><text transform="translate(194.75,78.082) scale(0.36202,0.36202)" font-size="40" xml:space="preserve" fill="#000000" fill-rule="nonzero" stroke="none" stroke-width="1" stroke-linecap="butt" stroke-linejoin="miter" stroke-miterlimit="10" stroke-dasharray="" stroke-dashoffset="0" font-family="Serif" font-weight="normal" text-anchor="start" style="mix-blend-mode: normal"><tspan x="0" dy="0">One of our spies interviewed a random</tspan><tspan x="0" dy="48px">kid in the streets, he asked him what</tspan><tspan x="0" dy="48px">should he be when he grows up, and the</tspan><tspan x="0" dy="48px">guy asked "I wanna be a drummer" So</tspan><tspan x="0" dy="48px">he then brang him to Yoko Jonn's lab,</tspan><tspan x="0" dy="48px">as he was our leading scientist. They</tspan><tspan x="0" dy="48px">used one of his machines, and then</tspan><tspan x="0" dy="48px">it turned him into this...weird</tspan><tspan x="0" dy="48px">looking creature, he grew three hands</tspan><tspan x="0" dy="48px">in his body, and thus he is now named</tspan><tspan x="0" dy="48px">as Klap, and is now contained.</tspan><tspan x="0" dy="48px"> </tspan><tspan x="0" dy="48px">This is sick and twisted.</tspan></text><path d="M399.40297,43.92097l46.38016,-0.22406" fill="none" stroke="#000000" stroke-width="3" stroke-linecap="round"/><g stroke="none" stroke-linecap="butt"><g fill="#000000" stroke-width="1" font-weight="normal" font-size="40" text-anchor="start"><text transform="translate(399.40297,42.80068) scale(0.23516,0.23516)" font-size="40" xml:space="preserve" fill="#000000" fill-rule="nonzero" stroke="none" stroke-width="1" stroke-linecap="butt" stroke-linejoin="miter" stroke-miterlimit="10" stroke-dasharray="" stroke-dashoffset="0" font-family="Pixel" font-weight="normal" text-anchor="start" style="mix-blend-mode: normal"><tspan x="0" dy="0">DONK</tspan></text><text transform="translate(398.8418,52.32215) scale(0.23516,0.23516)" font-size="40" xml:space="preserve" fill="#000000" fill-rule="nonzero" stroke="none" stroke-width="1" stroke-linecap="butt" stroke-linejoin="miter" stroke-miterlimit="10" stroke-dasharray="" stroke-dashoffset="0" font-family="Sans Serif" font-weight="normal" text-anchor="start" style="mix-blend-mode: normal"><tspan x="0" dy="0">Industries</tspan></text></g><path d="M428.30655,37.64733v-2.6887h17.70064v2.6887z" fill="url(#color-5)" stroke-width="0"/><path d="M428.30655,42.09116v-2.61402h17.70064v2.61402z" fill="url(#color-6)" stroke-width="0"/></g><text transform="translate(186.81898,314.36666) scale(0.3147,0.3147)" font-size="40" xml:space="preserve" fill="#000000" fill-rule="nonzero" stroke="none" stroke-width="1" stroke-linecap="butt" stroke-linejoin="miter" stroke-miterlimit="10" stroke-dasharray="" stroke-dashoffset="0" font-family="Serif" font-weight="normal" text-anchor="start" style="mix-blend-mode: normal"><tspan x="0" dy="0">Written by: Otis Alder</tspan></text><g><path d="M135.67088,136.34203c1.18653,-1.06375 2.30873,-2.61714 2.30873,-2.61714c0,0 0.5837,2.679 -0.18077,4.01662c-0.10985,0.19221 -0.37202,0.30754 -0.5211,0.44119c-0.71901,0.64461 -3.42721,0.98932 -4.31387,0.9807c-0.57652,-0.0056 0.52926,-0.20311 0.33541,-0.41933c-0.49198,-0.54877 1.18507,-1.3383 2.3716,-2.40204z" fill="#ffffff" stroke="#000000" stroke-width="2" stroke-linecap="butt"/><path d="M137.1693,133.03845c-0.4904,1.24124 -1.30845,2.08133 -1.82718,1.87638c-0.51873,-0.20494 -0.5417,-1.37731 -0.0513,-2.61855c0.4904,-1.24124 1.22338,-2.11494 1.22338,-2.11494c0,0 1.14548,1.61585 0.65509,2.85709z" fill="#ffffff" stroke="#000000" stroke-width="2" stroke-linecap="butt"/><path d="M134.43211,138.51149c0,0 -2.51307,3.24262 -4.80515,4.25135c-1.5555,0.68457 -2.93369,-0.59218 -3.64757,-1.00424c-1.76581,-1.01924 1.00463,-3.10913 2.74479,-6.12392c1.74017,-3.01478 2.91918,-5.13445 4.68498,-4.11521c0.90987,0.52519 1.91486,1.81316 1.93743,3.47392c0.02123,1.56231 -0.91449,3.51809 -0.91449,3.51809z" fill="#ffffff" stroke="#000000" stroke-width="2" stroke-linecap="butt"/><path d="M127.88276,138.48282c-0.77586,1.96376 -1.63096,2.30293 -2.48316,1.96624c-0.8522,-0.33669 -1.37876,-1.22175 -0.60291,-3.1855c0.77586,-1.96376 1.18202,-0.77396 2.03421,-0.43728c0.8522,0.33669 1.82771,-0.30721 1.05185,1.65654z" fill="#ffffff" stroke="#000000" stroke-width="2" stroke-linecap="butt"/><path d="M126.9874,138.98226l1.32934,0.75789" fill="none" stroke="#ffffff" stroke-width="2" stroke-linecap="round"/><path d="M126.52107,139.57362l1.37157,1.23993" fill="none" stroke="#ffffff" stroke-width="2" stroke-linecap="round"/><path d="M127.19038,136.30905c-0.6807,1.72292 -1.5147,3.31837 -2.31132,3.00364c-0.79662,-0.31473 -1.05292,-2.34095 -0.37222,-4.06386c0.42117,-1.06601 0.34282,-2.10742 0.94233,-2.52108c0.36944,-0.25491 1.42886,-0.14865 1.73259,-0.02865c0.79662,0.31473 0.68932,1.88705 0.00862,3.60997z" fill="#ffffff" stroke="#000000" stroke-width="2" stroke-linecap="butt"/><path d="M127.56798,140.06479l-0.66175,-1.26974l0.68496,0.42574" fill="none" stroke="#ffffff" stroke-width="2" stroke-linecap="round"/><path d="M127.31866,141.28481l-0.95661,-1.30867l-0.94418,-1.53644" fill="none" stroke="#ffffff" stroke-width="2" stroke-linecap="round"/><path d="M133.42891,132.29751c-0.87832,2.22312 -2.90277,4.12727 -3.68086,3.81986c-0.77809,-0.30741 0.17531,-2.01424 1.05363,-4.23735c0.87832,-2.22312 1.46111,-2.91296 1.46111,-2.91296c0,0 2.04444,1.10733 1.16612,3.33045z" fill="#ffffff" stroke="#000000" stroke-width="2" stroke-linecap="butt"/><path d="M129.93854,136.81311l0.68914,-1.7443" fill="none" stroke="#ffffff" stroke-width="2" stroke-linecap="round"/><path d="M135.31291,136.68155c-1.07745,1.22763 -1.74276,2.10734 -2.4464,1.48977c-0.70364,-0.61756 -0.4006,-2.11339 0.67685,-3.34102c1.07745,-1.22763 1.58372,-1.7048 2.28737,-1.08724c0.70364,0.61756 0.55964,1.71086 -0.51782,2.93849z" fill="#ffffff" stroke="#000000" stroke-width="2" stroke-linecap="butt"/><path d="M135.12046,133.00528c-1.13025,2.23458 -2.60155,3.2713 -3.3481,2.8937c-0.74655,-0.37761 0.4013,-2.07195 1.53156,-4.30652c1.13025,-2.23458 1.79236,-2.90431 1.79236,-2.90431c0,0 1.15444,2.08256 0.02418,4.31713z" fill="#ffffff" stroke="#000000" stroke-width="2" stroke-linecap="butt"/><path d="M131.56107,137.22147l1.95559,-3.18296" fill="none" stroke="#ffffff" stroke-width="2" stroke-linecap="round"/><path d="M132.51934,138.91859l3.61796,-6.0164" fill="none" stroke="#ffffff" stroke-width="2" stroke-linecap="round"/><path d="M131.5834,139.32442l1.29713,-3.67579" fill="none" stroke="#ffffff" stroke-width="2" stroke-linecap="round"/><path d="M135.43731,138.05487l-2.56014,-0.391" fill="none" stroke="#ffffff" stroke-width="2" stroke-linecap="round"/><path d="M128.74082,138.66673l-1.47595,-0.58313l2.03257,-0.82573" fill="none" stroke="#ffffff" stroke-width="2" stroke-linecap="round"/><path d="M134.86229,136.24716l-1.24352,1.57698" fill="none" stroke="#000000" stroke-width="1" stroke-linecap="round"/><path d="M133.92583,134.4294l-0.94242,2.38537" fill="none" stroke="#000000" stroke-width="1" stroke-linecap="round"/><path d="M130.98381,136.98996l0.51541,-2.00254" fill="none" stroke="#000000" stroke-width="1" stroke-linecap="round"/></g><path d="M82.77604,155.64843c-1.8218,-1.82048 -2.92973,-4.22541 -2.92973,-6.86199c0,-5.68161 5.14484,-10.28746 11.49131,-10.28746c0.39664,0 0.78859,0.01799 1.17489,0.05311" fill="none" stroke="#f4b700" stroke-width="3" stroke-linecap="butt"/><path d="M81.65487,154.74167c-2.06262,-1.85959 -3.33698,-4.42082 -3.33698,-7.24851c0,-5.6816 5.14483,-10.28745 11.4913,-10.28745c0.78258,0 1.54689,0.07003 2.28554,0.20348" fill="none" stroke="#dea700" stroke-width="3" stroke-linecap="butt"/><path d="M97.81371,154.87428c-0.30948,0.26904 -0.63584,0.52261 -0.97749,0.75933" fill="none" stroke="#dea700" stroke-width="3" stroke-linecap="butt"/><path d="M78.02414,239.13377c0,0 -0.4482,-66.58079 -0.55965,-83.24868c-0.00293,-0.43748 0.02801,-0.95847 0.09762,-1.54777c0.22848,0.02233 0.46015,0.03375 0.69449,0.03375c3.89596,0 7.05425,-3.1583 7.05425,-7.05425c0,-0.32289 -0.02169,-0.64071 -0.0637,-0.95209c3.70676,-0.21064 6.64768,-3.28324 6.64768,-7.04274c0,-1.93888 -0.78221,-3.69505 -2.04827,-4.97018c4.03586,-2.6726 9.26617,-4.4783 15.97746,-4.5118c22.2931,-0.11128 28.11595,20.80091 28.11039,26.02789c-0.05403,32.62081 0.46155,83.23067 0.46155,83.23067l-7.40462,0.06782c0,0 -1.29798,-45.90128 -1.31848,-60.7297c-0.01185,-8.56971 1.20644,-20.28356 1.20644,-20.28356c0,0 0.40597,-5.18438 -1.63394,-5.22308c-2.42272,-0.04595 -2.43046,5.1959 -2.43046,5.1959c0,0 -1.74902,9.36344 -1.73701,16.07945c0.02537,14.18106 1.88196,64.95274 1.88196,64.95274l-34.01115,0.05095l-0.21543,-81.28836c0,0 0.37352,-4.52813 -1.85922,-4.53901c-2.19446,-0.01069 -2.16262,4.52106 -2.16262,4.52106l0.24909,81.17105z" fill="#ffffff" stroke="#000000" stroke-width="2" stroke-linecap="butt"/><path d="M116.53832,165.72873c-0.40289,0 -0.72949,-0.3266 -0.72949,-0.72949c0,-0.40289 0.3266,-0.7295 0.72949,-0.7295c0.40289,0 0.72949,0.32661 0.72949,0.7295c0,0.40289 -0.3266,0.72949 -0.72949,0.72949z" fill="#000000" stroke="none" stroke-width="1.5" stroke-linecap="butt"/><path d="M112.82791,168.71662c-3.14867,-0.22178 -4.62227,-1.26548 -4.35237,-1.82008c0.08316,-0.17088 2.00796,0.75026 4.91708,0.92044c4.52105,0.26449 6.0034,-0.44564 6.0034,-0.44564v0.94962c0,0 -1.70254,0.73838 -6.56812,0.39567z" fill="#000000" stroke="#000000" stroke-width="0" stroke-linecap="butt"/><path d="M93.2081,164.99924c0,-0.40289 0.3266,-0.7295 0.72949,-0.7295c0.40289,0 0.7295,0.32661 0.7295,0.7295c0,0.40289 -0.32661,0.72949 -0.7295,0.72949c-0.40289,0 -0.72949,-0.3266 -0.72949,-0.72949z" fill="#000000" stroke="none" stroke-width="1.5" stroke-linecap="butt"/><path d="M97.64803,168.71662c-4.86557,0.34273 -6.56812,-0.39567 -6.56812,-0.39567v-0.94962c0,0 1.48235,0.71012 6.0034,0.44564c2.90913,-0.17019 4.83394,-1.09132 4.91709,-0.92044c0.2699,0.55459 -1.2037,1.59829 -4.35237,1.82008z" fill="#000000" stroke="#000000" stroke-width="0" stroke-linecap="butt"/><path d="M105.60555,208.60966c-0.57771,0 -1.04603,-0.46832 -1.04603,-1.04603c0,-0.57771 0.46832,-1.04603 1.04603,-1.04603c0.57771,0 1.04603,0.46832 1.04603,1.04603c0,0.57771 -0.46832,1.04603 -1.04603,1.04603z" data-paper-data="{&quot;index&quot;:null}" fill="#000000" stroke="none" stroke-width="1.5" stroke-linecap="butt"/><path d="M75.98166,239.98619l0.17636,-67.19178c0,0 0.20388,-2.17996 0.74168,-2.92309c1.03282,-1.42717 5.02901,-7.57868 7.33391,-10.20248c1.06055,-1.20729 1.62402,-0.27751 1.62402,-0.27751v80.59486z" fill="#000000" stroke="none" stroke-width="0" stroke-linecap="butt"/><path d="M75.9867,181.05295c0,0 -1.10853,-0.67983 -1.10853,-1.00775c0,-0.2616 0.50388,-1.10853 0.50388,-1.10853c0,0 3.39869,-0.01769 5.13567,-0.23274c1.78864,-0.22145 5.44572,-1.07733 5.44572,-1.07733c0,0 0.30232,0.29928 0.30232,0.60466c0,0.56543 -0.4031,1.51162 -0.4031,1.51162c0,0 -0.5828,-0.12424 -1.1419,-0.05007c-1.54628,0.20512 -8.73406,1.36015 -8.73406,1.36015z" fill="#ff8500" stroke="none" stroke-width="0" stroke-linecap="butt"/><path d="M76.08746,184.58008c0,0 -1.10853,-0.67983 -1.10853,-1.00775c0,-0.2616 0.50388,-1.10853 0.50388,-1.10853c0,0 3.39869,-0.01769 5.13567,-0.23274c1.78864,-0.22145 5.44572,-1.07733 5.44572,-1.07733c0,0 0.30232,0.29928 0.30232,0.60466c0,0.56543 -0.4031,1.51162 -0.4031,1.51162c0,0 -0.5828,-0.12424 -1.1419,-0.05007c-1.54628,0.20512 -8.73406,1.36015 -8.73406,1.36015z" fill="#de7300" stroke="none" stroke-width="0" stroke-linecap="butt"/><path d="M76.18823,187.7041c0,0 -1.10853,-0.67983 -1.10853,-1.00775c0,-0.2616 0.50388,-1.10853 0.50388,-1.10853c0,0 3.39869,-0.01769 5.13567,-0.23275c1.78864,-0.22145 5.44572,-1.07733 5.44572,-1.07733c0,0 0.30232,0.29928 0.30232,0.60466c0,0.56543 -0.4031,1.51162 -0.4031,1.51162c0,0 -0.5828,-0.12425 -1.1419,-0.05008c-1.54628,0.20512 -8.73406,1.36015 -8.73406,1.36015z" fill="#c76700" stroke="none" stroke-width="0" stroke-linecap="butt"/><path d="M76.28902,190.82813c0,0 -1.10852,-0.67983 -1.10852,-1.00775c0,-0.2616 0.50387,-1.10853 0.50387,-1.10853c0,0 3.39869,-0.01769 5.13567,-0.23275c1.78864,-0.22145 5.44572,-1.07733 5.44572,-1.07733c0,0 0.30232,0.29928 0.30232,0.60466c0,0.56543 -0.4031,1.51162 -0.4031,1.51162c0,0 -0.5828,-0.12425 -1.1419,-0.05008c-1.54628,0.20512 -8.73406,1.36015 -8.73406,1.36015z" fill="#c76700" stroke="none" stroke-width="0" stroke-linecap="butt"/><path d="M75.5836,240.20792v-44.03871l14.81394,11.38759l-0.20155,32.65112z" fill="#af8300" stroke="none" stroke-width="0" stroke-linecap="butt"/><path d="M83.74638,240.30869l0.10078,-37.79065l4.13178,3.12403v34.66663z" fill="#7f5f00" stroke="none" stroke-width="0" stroke-linecap="butt"/><path d="M87.44483,240.3389l-0.17636,-61.37202l48.32165,35.5055l-0.35271,25.7101z" fill="#ffc100" stroke="none" stroke-width="0" stroke-linecap="butt"/><path d="M76.47019,172.26549l-1.1172,-1.07594c0,0 5.29238,-7.50557 7.12664,-9.79294c1.05616,-1.31706 2.89954,-2.71005 2.89954,-2.71005l1.9234,2.08369c0,0 -7.62303,8.78767 -9.2572,10.63485c-0.69086,0.78091 -1.57518,0.86039 -1.57518,0.86039z" fill="#dea700" stroke="none" stroke-width="0" stroke-linecap="butt"/><path d="M119.91194,203.83315v-39.85654h2.46899c0,0 -1.05814,9.76681 -1.05814,15.51935c0,7.20375 1.05814,24.33719 1.05814,24.33719z" fill="#000000" stroke="none" stroke-width="0" stroke-linecap="butt"/><path d="M110.036,207.00754v-37.03484h2.8217v37.03484z" fill="#000000" stroke="none" stroke-width="0" stroke-linecap="butt"/><path d="M99.98369,196.07347v-16.22479h2.29263v16.22479z" fill="#000000" stroke="none" stroke-width="0" stroke-linecap="butt"/><path d="M105.80345,202.95137v-22.39726h2.11628v22.39726z" fill="#000000" stroke="none" stroke-width="0" stroke-linecap="butt"/><path d="M89.22595,192.7227v-30.50965h2.11628v30.50965z" fill="#000000" stroke="none" stroke-width="0" stroke-linecap="butt"/><path d="M95.57478,196.95525v-18.16471h2.46899v18.16471z" fill="#000000" stroke="none" stroke-width="0" stroke-linecap="butt"/><path d="M117.2666,205.24398v-31.39143h2.8217v31.39143z" fill="#000000" stroke="none" stroke-width="0" stroke-linecap="butt"/><path d="M117.44296,171.55993v-2.29263h2.46899v2.29263z" fill="#000000" stroke="none" stroke-width="0" stroke-linecap="butt"/><path d="M87.46239,193.07541v-13.57944l48.32165,34.21314l-0.17636,6.70154z" fill="#dea700" stroke="none" stroke-width="0" stroke-linecap="butt"/><path d="M108.84882,218.9126l0.09832,-14.43095l26.64299,-19.69499l-0.09832,34.21314z" data-paper-data="{&quot;index&quot;:null}" fill="#d89116" stroke="none" stroke-width="0" stroke-linecap="butt"/><path d="M125.7317,193.25177l0.52907,-28.74609c0,0 1.60896,22.57362 2.29263,22.57362c0.59339,0 -0.29801,-23.26622 0.82385,-28.61884c0.5968,-2.84749 2.7144,24.55597 3.65175,26.66926c1.00709,2.27052 0.8151,-20.62404 0.8151,-20.62404v28.74609z" fill="#000000" stroke="none" stroke-width="0" stroke-linecap="butt"/><path d="M116.94705,202.24594l-8.14555,2.46899l27.33524,-20.28098l-0.17768,7.58332z" fill="#9d6910" stroke="none" stroke-width="0" stroke-linecap="butt"/><path d="M108.62515,240.86797v-36.50577h1.05814v36.50577z" fill="#523708" stroke="none" stroke-width="0" stroke-linecap="butt"/><path d="M90.98951,218.47071v-14.81394h10.40503v14.81394z" fill="#dea700" stroke="none" stroke-width="0" stroke-linecap="butt"/><path d="M90.6368,218.47071v-8.11239h10.9341v8.11239z" fill="#aa8000" stroke="none" stroke-width="0" stroke-linecap="butt"/><path d="M118.70099,216.33093v-12.22737h14.69636v12.22737z" fill="#ffc100" stroke="#523708" stroke-width="1" stroke-linecap="butt"/><path d="M120.11184,214.92008v-6.93668h11.75709v6.93668z" fill="#d89116" stroke="#523708" stroke-width="0" stroke-linecap="butt"/><path d="M109.7656,240.43295l-0.23514,0.23514l25.63046,-15.40179v15.16665z" fill="#af8300" stroke="none" stroke-width="0" stroke-linecap="butt"/><path d="M116.34957,156.13463v-23.63175h1.9987v23.63175z" fill="#000000" stroke="none" stroke-width="0" stroke-linecap="butt"/><path d="M118.70099,154.13592v-21.3979h1.52842v21.3979z" fill="#000000" stroke="none" stroke-width="0" stroke-linecap="butt"/><path d="M121.28754,149.08037v-14.10851h1.41085v14.10851z" fill="#000000" stroke="none" stroke-width="0" stroke-linecap="butt"/><path d="M121.4051,153.4305v-3.17441h1.52842v3.17441z" fill="#000000" stroke="none" stroke-width="0" stroke-linecap="butt"/><path d="M91.89481,160.24961v-9.64082h9.87596v9.64082z" fill="#000000" stroke="none" stroke-width="0" stroke-linecap="butt"/><path d="M99.41936,152.48993v-4.58527h4.23255v4.58527z" fill="#000000" stroke="none" stroke-width="0" stroke-linecap="butt"/><path d="M124.49721,136.81773l2.99806,3.87984" fill="none" stroke="#ffffff" stroke-width="1.5" stroke-linecap="round"/><path d="M129.96426,141.05028l-2.29263,2.64535l1.93992,-4.0562l-4.0562,2.46899l2.46899,-3.35077l-2.64535,0.70543l0.17636,-4.0562" fill="none" stroke="#ffffff" stroke-width="1.5" stroke-linecap="round"/><path d="M128.02433,137.87587l-2.29263,0.88178" fill="none" stroke="#ffffff" stroke-width="1.5" stroke-linecap="round"/><path d="M124.53252,66.06356l0.7936,-4.49709" fill="none" stroke="#ffffff" stroke-width="2" stroke-linecap="round"/><path d="M125.32612,63.68275l0.17636,4.76162" fill="none" stroke="#ffffff" stroke-width="2" stroke-linecap="round"/><path d="M113.66113,58.45672h-0.94056" fill="none" stroke="#000000" stroke-width="1" stroke-linecap="round"/><path d="M116.09092,58.06482l-1.80275,-0.47028" fill="none" stroke="#000000" stroke-width="1" stroke-linecap="round"/><path d="M111.54484,61.98385l1.56761,1.01894l1.41085,3.05685" fill="none" stroke="#000000" stroke-width="1" stroke-linecap="round"/><path d="M119.06934,59.55405l-1.1757,-0.54866" fill="none" stroke="#000000" stroke-width="1" stroke-linecap="round"/><g><path d="M74.42401,97.68785c0,0 4.34774,-4.17744 4.43826,-4.78815c0.2374,-1.60176 -0.11834,-28.33918 25.37257,-29.32723c31.48761,-0.64449 27.5221,24.93589 29.29694,29.76211c2.43358,6.61748 4.34305,12.27452 4.34305,12.27452c0,0 -1.95202,-1.4486 -2.87792,-2.21078c-0.86358,-0.71088 -2.68163,-2.21916 -2.68163,-2.21916c0,0 2.18055,7.29981 0.92476,14.59877c-1.10209,6.68813 -5.14807,12.15126 -5.14807,12.15126l-0.81492,-1.65588c0,0 -0.72141,1.55048 -1.52375,2.351c-0.80235,0.80051 -2.42577,2.05471 -2.42577,2.05471l-0.06493,-2.61304c0,0 -4.98037,7.77234 -17.17758,7.66906c-11.50284,-0.18022 -18.39151,-7.53056 -18.39151,-7.53056l-0.08197,1.87279c0,0 -2.74747,-2.3228 -4.36055,-6.84795c-1.9226,-5.39345 -2.2852,-8.63669 -2.2852,-8.63669c0,0 -1.65005,1.33972 -4.03295,1.95713c-2.98591,0.77366 -4.90034,0.24356 -4.90034,0.24356c0,0 2.54514,-1.91676 3.93907,-3.3648c1.2416,-1.2898 1.86697,-2.38238 1.86697,-2.38238c0,0 -1.48674,0.76518 -2.9859,1.14134c-1.5642,0.3925 -2.84292,0.37453 -2.84292,0.37453c0,0 3.50944,-3.55343 4.95966,-7.671c1.36925,-3.88766 1.4812,-7.72957 1.4812,-7.72957c0,0 -0.96054,0.46673 -2.34916,0.5609c-0.8802,0.0597 -1.6774,-0.0345 -1.6774,-0.0345z" fill="#000000" stroke="none" stroke-width="1.5" stroke-linecap="butt"/><path d="M108.94262,76.18639c0,0 0.04645,-6.95677 -0.76336,-9.75994c-0.39538,-1.36863 -2.88135,-2.34986 -2.88135,-2.34986c0,0 3.95591,-1.85669 11.49472,0.51642c10.73208,3.3783 11.66675,8.65411 11.66675,8.65411l3.52713,7.52454c0,0 -3.74293,-7.42473 -7.04359,-6.544c-0.24547,0.0655 0.56379,8.82906 0.31236,8.88951c-0.83914,0.20174 -3.00001,-7.62333 -3.86444,-7.51108c-2.70141,0.35078 -3.84339,9.31041 -5.5173,7.75833c-1.59293,-1.47701 -2.27641,-14.53118 -3.1206,-14.70325c-1.55739,-0.31743 -3.81033,7.52523 -3.81033,7.52523z" fill="#ff8500" stroke="none" stroke-width="0" stroke-linecap="butt"/><path d="M86.2652,105.67441c-0.24938,-3.15166 -1.82448,-9.01293 -2.18762,-13.35462c-0.22965,-2.74576 0.66037,-5.09542 0.66037,-5.09542l7.74202,5.47365l-0.44571,-5.47734c0,0 16.58421,6.16395 21.65322,7.68163c2.55114,0.76382 6.81077,0.84057 6.81077,0.84057c0,0 -5.5753,-4.75338 -3.37674,-4.19541c4.27831,1.0858 7.78058,4.01477 7.78058,4.01477c0,0 0.90299,5.24322 0.68318,9.16391c-0.29743,3.99921 -1.78703,6.70132 -2.22231,8.8323c-0.38289,1.87453 -0.31573,3.8009 -1.15671,8.99256c-0.11505,0.71023 1.7281,5.57304 1.57558,6.41372c-0.79093,4.35968 -4.91105,2.20421 -9.04315,6.25064c-4.13209,4.04643 -6.38677,6.52713 -9.18012,6.57579c-2.68821,0.04683 -6.30344,-3.59781 -9.8304,-7.32404c-1.59034,-1.6802 -2.95252,-3.58183 -4.365,-4.27148c-1.92314,-0.93898 -3.69861,-0.59486 -4.04049,-3.30462c-0.14153,-1.1217 1.30543,-5.24364 1.22301,-6.20431c-0.22859,-2.66448 -0.28357,-4.88751 -0.46303,-7.65614c-0.17846,-2.75309 -1.5951,-4.5465 -1.81743,-7.35618z" fill="#ffffff" stroke="#000000" stroke-width="1.5" stroke-linecap="butt"/><path d="M120.17497,95.00812c0,0 1.07527,0.22437 3.00215,0.78323c1.75998,0.51045 3.13868,1.23028 3.13868,1.23028l0.13763,0.82559c0,0 -5.11407,-2.20796 -10.66307,-1.74282c-4.43684,0.37193 -7.02829,1.98394 -7.02829,1.98394l0.03227,-2.94644c0,0 2.2062,-1.20219 5.54723,-1.30897c3.4596,-0.11055 5.70748,0.41708 5.70748,0.41708z" data-paper-data="{&quot;index&quot;:null}" fill="#000000" stroke="none" stroke-width="1.5" stroke-linecap="butt"/><path d="M87.46416,112.81558c0,0 -3.47924,-2.48102 -4.34836,-6.33121c-0.91449,-4.05115 -1.03075,-6.86577 0.3387,-7.04856c1.36945,-0.18281 1.90691,1.67674 2.63309,5.89432c0.72617,4.21758 1.37659,7.48546 1.37659,7.48546z" data-paper-data="{&quot;index&quot;:null}" fill="#ffffff" stroke="#000000" stroke-width="1" stroke-linecap="butt"/><path d="M87.32126,110.03087c0,0 -2.51403,-2.06223 -3.04614,-5.96128c-0.29684,-2.17502 1.52143,-1.60848 1.52143,-1.60848" fill="none" stroke="#000000" stroke-width="0.25" stroke-linecap="round"/><path d="M88.15374,105.33563c0.05482,-3.45086 3.73951,-6.30375 7.89227,-6.2488c4.15276,0.05495 6.97707,2.99693 6.92226,6.44779c-0.05482,3.45086 -3.18703,6.20379 -7.3398,6.14884c-4.15276,-0.05495 -7.52956,-2.89697 -7.47474,-6.34783z" fill="#ffffff" stroke="#000000" stroke-width="1.4" stroke-linecap="butt"/><path d="M92.5774,105.41883c0.02821,-1.94587 1.62851,-3.50041 3.57436,-3.4722c1.94587,0.02821 3.50041,1.62851 3.4722,3.57436c-0.02821,1.94587 -1.6285,3.50041 -3.57436,3.4722c-1.94587,-0.02821 -3.50041,-1.62851 -3.4722,-3.57436z" fill="#ff8500" stroke="#000000" stroke-width="1" stroke-linecap="butt"/><path d="M108.5337,105.33615c0.15739,-3.44824 3.44324,-6.24899 7.55554,-6.24899c4.1123,0 7.17203,2.79777 7.17203,6.24899c0,3.45122 -3.00494,6.39894 -7.50076,6.44892c-4.27635,0.04754 -7.39117,-2.84775 -7.22681,-6.44892z" fill="#ffffff" stroke="#000000" stroke-width="1.4" stroke-linecap="butt"/><path d="M111.78006,105.3965c0,-1.98821 1.61176,-3.59996 3.59996,-3.59996c1.98821,0 3.59996,1.61176 3.59996,3.59996c0,1.98821 -1.61175,3.59996 -3.59996,3.59996c-1.98821,0 -3.59996,-1.61176 -3.59996,-3.59996z" fill="#ff8500" stroke="#000000" stroke-width="1" stroke-linecap="butt"/><path d="M87.98785,104.91945c0,0 0.0493,-6.99051 8.22031,-6.843c7.34401,0.12861 7.40956,7.29455 7.40956,7.29455c0,0 -3.22388,-4.83972 -7.73658,-4.81557c-4.69473,0.02513 -7.89328,4.36402 -7.89328,4.36402z" fill="#ffffff" stroke="#000000" stroke-width="1.15" stroke-linecap="butt"/><path d="M108.2668,105.03782c0,0 -0.19093,-6.9258 8.661,-6.66585c7.51334,0.24418 7.38379,7.06792 7.38379,7.06792z" fill="#ffffff" stroke="#000000" stroke-width="1.15" stroke-linecap="butt"/><path d="M91.88875,94.72332c0,0 2.37702,-1.28317 5.66629,-1.60963c3.64492,-0.36176 5.47991,-0.04676 5.47991,-0.04676l0.20816,2.91868c0,0 -2.70569,-0.48015 -5.65607,-0.36762c-3.94577,0.15049 -4.68747,1.01083 -7.68754,1.33409c-2.57063,0.27699 -4.75261,0.11205 -4.75261,0.11205l-0.01826,-0.86877c0,0 2.53612,0.05219 3.69199,-0.04822c0.95401,-0.08288 2.80456,-0.66175 2.80456,-0.66175z" fill="#000000" stroke="none" stroke-width="1.5" stroke-linecap="butt"/><path d="M125.7216,105.33012c0.72617,-4.21758 1.26363,-6.07712 2.63309,-5.89432c1.36945,0.1828 1.25318,2.99742 0.3387,7.04856c-0.86913,3.85019 -4.34836,6.33121 -4.34836,6.33121c0,0 0.65042,-3.26788 1.37659,-7.48546z" data-paper-data="{&quot;index&quot;:null}" fill="#ffffff" stroke="#000000" stroke-width="1" stroke-linecap="butt"/><path d="M126.0126,102.46111c0,0 1.81826,-0.56654 1.52143,1.60848c-0.53211,3.89905 -3.04614,5.96128 -3.04614,5.96128" data-paper-data="{&quot;index&quot;:null}" fill="none" stroke="#000000" stroke-width="0.25" stroke-linecap="round"/><path d="M104.00463,109.4186c0,4.25713 -4.50422,11.56233 -8.46511,11.56233c-3.96089,0 -7.64211,-6.45917 -7.64211,-10.7163c0,-0.96432 0.17682,-1.458 0.49639,-1.64478c0.26793,3.02963 2.10769,5.96891 7.14571,5.96891c2.36971,0 4.49683,-1.48034 6.17247,-2.82008c0.85694,-0.68516 0.58785,-1.88005 0.88178,-2.82008v-1.02256c0.86958,-0.24063 1.41085,0.05388 1.41085,1.49257z" fill="#000000" stroke="#000000" stroke-width="1.4" stroke-linecap="butt"/><path d="M124.10924,109.36071c0,5.05764 -4.50421,13.7365 -8.46511,13.7365c-3.96089,0 -7.64211,-7.67375 -7.64211,-12.73139c0,-1.14565 0.17681,-1.73217 0.49639,-1.95407c0.26793,3.59931 2.10769,7.0913 7.14571,7.0913c2.36971,0 4.49683,-1.7587 6.17247,-3.35036c0.85694,-0.81399 0.58786,-2.23358 0.88178,-3.35037v-1.21483c0.86958,-0.28588 1.41085,0.06402 1.41085,1.77323z" data-paper-data="{&quot;index&quot;:null}" fill="#000000" stroke="#000000" stroke-width="1.4" stroke-linecap="butt"/><path d="M106.82634,111.81039l-0.823,0.58785" fill="none" stroke="#000000" stroke-width="1" stroke-linecap="round"/><path d="M104.58893,135.18103c0,0 6.17253,0.57171 7.60301,-0.36009c1.21593,-0.79204 3.27886,-5.35838 4.14005,-5.44866c1.45312,-0.15234 7.34771,-0.07516 7.37893,0.18781c0.03053,0.25711 -8.91036,9.66456 -17.45793,9.34487c-5.9483,-0.18825 -11.50649,-5.27862 -14.25932,-8.34899c-1.74246,-1.94345 -4.81638,-2.40111 -4.80604,-2.44736c0.02669,-0.11931 1.8758,-1.13457 5.46722,-0.41028z" fill="#ffffff" stroke="#000000" stroke-width="1.9" stroke-linecap="butt"/><path d="M115.27915,125.75295c2.09067,0.85072 7.34603,3.59269 7.33228,3.71089c-0.00818,0.07028 -3.17259,0.52278 -6.984,0.23407c-4.32404,-0.32754 -9.35932,-1.40658 -9.35932,-1.40658c0,0 -6.98654,0.3092 -11.33785,-0.59623c-3.48742,-0.72566 -7.47701,-0.18417 -7.48453,-0.25015c-0.01015,-0.08898 0.47147,-2.05329 2.55658,-2.53577c0.80831,-0.35032 11.03265,-1.75307 11.03265,-1.75307l5.5448,3.20507c0,0 3.72619,-2.69214 4.02677,-2.5805c0,0 2.59848,1.12828 4.67263,1.97228z" fill="#ffffff" stroke="#000000" stroke-width="1.4" stroke-linecap="butt"/><path d="M105.7576,126.43303c-0.72924,0 -2.49587,-2.29998 -2.67123,-3.78369c-0.15691,-1.32751 0.92772,-2.70036 2.67123,-2.70036c1.74352,0 2.96427,0.3462 2.84286,2.9547c-0.10304,2.21375 -1.09934,3.52936 -2.84286,3.52936z" fill="#ffffff" stroke="#000000" stroke-width="1.15" stroke-linecap="butt"/><path d="M114.92864,130.41347c0,0.66937 -2.68911,4.65966 -2.68911,4.65966c0,0 -4.3015,-0.07439 -6.27987,-0.07439c-3.98026,0 -11.89146,-5.66136 -11.89146,-6.80232c0,-1.14096 7.40732,0.15117 12.19378,0.15117c4.78646,0 8.66665,0.92493 8.66665,2.06589z" fill="#000000" stroke="none" stroke-width="0" stroke-linecap="butt"/><path d="M106.06045,128.44835l9.06975,1.51163l-1.2093,2.21705l-1.00775,-2.4186l-1.41085,2.21705l-0.8062,-2.31782l-1.51163,2.21705l-1.2093,-2.72092l-1.6124,2.72092l-1.31007,-3.12403l-1.2093,2.8217l-1.51163,-2.8217l-1.41085,2.31782l-2.21705,-2.92248l-1.51162,2.4186l-1.91472,-2.62015z" fill="#ffffff" stroke="#000000" stroke-width="1" stroke-linecap="round"/><path d="M108.29864,105.20415c0,0 0.07238,2.80037 0.00406,5.0273c-0.13526,4.40971 -0.7629,19.58311 -0.7629,19.58311l-2.10335,0.00609c0,0 -0.56641,-2.94356 -0.79235,-6.70139c-0.11607,-1.93058 -0.40114,-12.38765 -0.53855,-13.84912c-0.20992,-2.23276 -0.63201,-4.03118 -0.63201,-4.03118" fill="#ffffff" stroke="#000000" stroke-width="1.3" stroke-linecap="round"/><path d="M104.71005,112.98611l2.70413,-2.11628v1.41085z" fill="none" stroke="#000000" stroke-width="1" stroke-linecap="round"/><path d="M104.59247,113.92667l3.29199,4.23255l-3.05684,-2.70413z" fill="none" stroke="#000000" stroke-width="1" stroke-linecap="round"/></g><path d="M119.37587,59.87487c0.86147,4.33056 -0.74731,8.06039 -3.25224,8.55869c-1.71745,0.34165 -6.82629,-0.31051 -8.95725,-2.4871c-0.89769,-0.91691 -0.77212,-4.10137 -0.77212,-4.10137c0,0 1.57877,1.72243 2.87248,1.82581c0.91436,0.07306 1.63315,-1.33198 1.78583,-1.77559c0.1925,-0.55932 -2.16509,-2.54166 -2.69626,-4.07743c-0.63189,-1.82697 2.66218,-5.29885 2.66218,-5.29885c0,0 -0.17289,1.32999 -0.04266,2.70105c0.01826,0.19231 0.325,1.6811 0.58086,2.10461c0.8761,1.45014 0.89315,1.62684 0.89315,1.62684c0,0 -0.53119,-2.18756 0.16314,-4.51205c0.57307,-1.91855 2.77639,-2.08417 2.77639,-2.08417l-0.81263,4.62337c0,0 0.78785,-0.42751 1.40561,-1.56598c0.88292,-1.62715 2.38196,-3.04524 2.38196,-3.04524c0,0 -0.8414,3.48883 -0.48741,5.93495c0.02529,0.17476 0.05744,-1.31203 0.77176,-2.30597c0.86453,-1.20295 2.43685,-1.97541 2.43685,-1.97541c0,0 -1.76003,5.60052 -1.70963,5.85387z" fill="#ffffff" stroke="#000000" stroke-width="2" stroke-linecap="butt"/><g><path d="M128.80989,63.21773c0.87117,-1.74232 1.44925,-4.01242 1.44925,-4.01242c0,0 1.86694,2.78356 1.59864,4.64767c-0.03855,0.26786 -0.28481,0.51675 -0.39426,0.73565c-0.52791,1.05582 -3.45201,2.66415 -4.46392,3.05262c-0.65796,0.25259 0.51048,-0.46864 0.19297,-0.6274c-0.80582,-0.40292 0.74617,-2.0538 1.61734,-3.79612z" fill="#ffffff" stroke="#000000" stroke-width="2" stroke-linecap="butt"/><path d="M129.02958,58.78885c0,1.63143 -0.5527,2.95397 -1.23449,2.95397c-0.68179,0 -1.23449,-1.32254 -1.23449,-2.95397c0,-1.63143 0.44089,-2.95397 0.44089,-2.95397c0,0 2.0281,1.32254 2.0281,2.95397z" fill="#ffffff" stroke="#000000" stroke-width="2" stroke-linecap="butt"/><path d="M128.37599,66.24059c0,0 -1.40061,4.81533 -3.55337,6.99168c-1.46096,1.47696 -3.60129,0.64448 -4.59798,0.49668c-2.46535,-0.36562 -0.25438,-3.98601 0.36985,-8.19514c0.62424,-4.20913 1.01256,-7.14855 3.4779,-6.78293c1.27033,0.1884 2.99141,1.20127 3.76304,3.07925c0.72588,1.76664 0.54055,4.41047 0.54055,4.41047z" fill="#ffffff" stroke="#000000" stroke-width="2" stroke-linecap="butt"/><path d="M120.91718,69.14979c0,2.58107 -0.81983,3.35077 -1.93992,3.35077c-1.12009,0 -2.11628,-0.7697 -2.11628,-3.35077c0,-2.58107 0.99619,-1.41085 2.11628,-1.41085c1.12009,0 1.93992,-1.17022 1.93992,1.41085z" fill="#ffffff" stroke="#000000" stroke-width="2" stroke-linecap="butt"/><path d="M121.97532,70.38428l-1.85174,-0.26453" fill="none" stroke="#ffffff" stroke-width="2" stroke-linecap="round"/><path d="M121.97532,71.79513l-2.11628,-0.7936" fill="none" stroke="#ffffff" stroke-width="2" stroke-linecap="round"/><path d="M119.15362,66.98942c0,2.26453 -0.23154,4.453 -1.27858,4.453c-1.04704,0 -2.24854,-2.18847 -2.24854,-4.453c0,-1.40112 -0.55685,-2.54991 -0.06107,-3.28948c0.30551,-0.45575 1.55769,-0.8108 1.9569,-0.8108c1.04704,0 1.6313,1.83576 1.6313,4.10029z" fill="#ffffff" stroke="#000000" stroke-width="2" stroke-linecap="butt"/><path d="M121.2699,71.08971l-1.32267,-1.14632l0.96996,0.17636" fill="none" stroke="#ffffff" stroke-width="2" stroke-linecap="round"/><path d="M121.53443,72.58874l-1.67539,-1.05814l-1.76356,-1.32267" fill="none" stroke="#ffffff" stroke-width="2" stroke-linecap="round"/><path d="M124.44431,59.62654c0,2.92197 -1.4463,5.99612 -2.46899,5.99612c-1.02269,0 -0.70543,-2.36872 -0.70543,-5.29069c0,-2.92197 0.35271,-3.96802 0.35271,-3.96802c0,0 2.8217,0.34062 2.8217,3.26259z" fill="#ffffff" stroke="#000000" stroke-width="2" stroke-linecap="butt"/><path d="M122.50439,66.32808v-2.29263" fill="none" stroke="#ffffff" stroke-width="2" stroke-linecap="round"/><path d="M128.5554,63.76451c-0.67354,1.87965 -1.03478,3.17862 -2.11214,2.79257c-1.07736,-0.38605 -1.40471,-2.22277 -0.73118,-4.10241c0.67354,-1.87965 1.03478,-2.64955 2.11214,-2.2635c1.07736,0.38605 1.40471,1.6937 0.73118,3.57334z" fill="#ffffff" stroke="#000000" stroke-width="2" stroke-linecap="butt"/><path d="M126.68534,59.67141c-0.28127,3.04816 -1.48832,4.88768 -2.50668,4.7937c-1.01836,-0.09397 -0.47442,-2.53584 -0.19315,-5.584c0.28127,-3.04816 0.73319,-4.10697 0.73319,-4.10697c0,0 2.24791,1.84911 1.96663,4.89727z" fill="#ffffff" stroke="#000000" stroke-width="2" stroke-linecap="butt"/><path d="M125.32609,61.56646l-0.7936,4.49709" fill="none" stroke="#ffffff" stroke-width="2" stroke-linecap="round"/><path d="M127.79508,59.09747l-1.41085,8.46511" fill="none" stroke="#ffffff" stroke-width="2" stroke-linecap="round"/><path d="M125.32609,63.68274l0.17636,4.76162" fill="none" stroke="#ffffff" stroke-width="2" stroke-linecap="round"/><path d="M126.22747,65.97537l3.08624,-0.70543" fill="none" stroke="#ffffff" stroke-width="2" stroke-linecap="round"/><path d="M121.97532,68.97343h-1.93992l1.93992,-1.85174" fill="none" stroke="#ffffff" stroke-width="2" stroke-linecap="round"/><path d="M127.14256,65.82449l0.70543,-2.35142" fill="none" stroke="#000000" stroke-width="1" stroke-linecap="round"/><path d="M125.96684,61.82708v3.13522" fill="none" stroke="#000000" stroke-width="1" stroke-linecap="round"/><path d="M123.77219,66.05964l-0.31352,-2.50818" fill="none" stroke="#000000" stroke-width="1" stroke-linecap="round"/></g><path d="M192.27806,202.13723v-15.46741h7.27878v15.46741z" fill="#000000" stroke="none" stroke-width="0" stroke-linecap="butt"/><path d="M191.36822,187.57967v-17.28711h214.72409v17.28711z" fill="#000000" stroke="none" stroke-width="0" stroke-linecap="butt"/><path d="M285.08254,153.9153v-16.37726h159.22337v16.37726z" fill="#000000" stroke="none" stroke-width="0" stroke-linecap="butt"/><path d="M190.45837,172.11225v-19.1068h219.27333v19.1068z" fill="#000000" stroke="none" stroke-width="0" stroke-linecap="butt"/></g></g></svg>