<svg version="1.1" xmlns="http://www.w3.org/2000/svg" xmlns:xlink="http://www.w3.org/1999/xlink" width="492" height="367.57853" viewBox="0,0,492,367.57853"><defs><linearGradient x1="240.5" y1="332" x2="240.5" y2="365" gradientUnits="userSpaceOnUse" id="color-1"><stop offset="0" stop-color="#ffffff"/><stop offset="1" stop-color="#ffffff" stop-opacity="0"/></linearGradient><linearGradient x1="240.89463" y1="-2" x2="240.89463" y2="32.69503" gradientUnits="userSpaceOnUse" id="color-2"><stop offset="0" stop-color="#ffffff" stop-opacity="0"/><stop offset="1" stop-color="#ffffff"/></linearGradient><linearGradient x1="-3.5" y1="180.23215" x2="29.5" y2="180.23215" gradientUnits="userSpaceOnUse" id="color-3"><stop offset="0" stop-color="#ffffff" stop-opacity="0"/><stop offset="1" stop-color="#ffffff"/></linearGradient><linearGradient x1="451.40985" y1="179.71073" x2="484.40985" y2="179.71073" gradientUnits="userSpaceOnUse" id="color-4"><stop offset="0" stop-color="#ffffff"/><stop offset="1" stop-color="#ffffff" stop-opacity="0"/></linearGradient><linearGradient x1="417.58064" y1="39.24387" x2="442.76428" y2="39.24387" gradientUnits="userSpaceOnUse" id="color-5"><stop offset="0" stop-color="#000000"/><stop offset="1" stop-color="#000000" stop-opacity="0"/></linearGradient><linearGradient x1="417.58064" y1="45.61947" x2="442.76428" y2="45.61947" gradientUnits="userSpaceOnUse" id="color-6"><stop offset="0" stop-color="#000000"/><stop offset="1" stop-color="#000000" stop-opacity="0"/></linearGradient></defs><g transform="translate(5.5,2.57853)"><g data-paper-data="{&quot;isPaintingLayer&quot;:true}" fill-rule="nonzero" stroke-linejoin="miter" stroke-miterlimit="10" stroke-dasharray="" stroke-dashoffset="0" style="mix-blend-mode: normal"><path d="M-5.5,365l33,-33h424l35,33z" fill="url(#color-1)" stroke="none" stroke-width="0" stroke-linecap="butt"/><path d="M485.5,-2l-37,33l-418.21073,1.69503l-34,-33.48429z" data-paper-data="{&quot;index&quot;:null}" fill="url(#color-2)" stroke="none" stroke-width="0" stroke-linecap="butt"/><path d="M-3.5,-2l33,33v299.46429l-33,32z" fill="url(#color-3)" stroke="none" stroke-width="0" stroke-linecap="butt"/><path d="M484.40985,362l-33,-30v-303.90576l33,-30.67277z" data-paper-data="{&quot;index&quot;:null}" fill="url(#color-4)" stroke="none" stroke-width="0" stroke-linecap="butt"/><path d="M28,331.5v-303h424v303z" fill="#ffffff" stroke="#000000" stroke-width="5" stroke-linecap="butt"/><path d="M34.75,325.0005v-72.50051h142.5v72.50051z" fill="#000000" stroke="none" stroke-width="0" stroke-linecap="butt"/><text transform="translate(40.5,269.7425) scale(0.37277,0.33334)" font-size="40" xml:space="preserve" fill="#ffffff" fill-rule="nonzero" stroke="none" stroke-width="1" stroke-linecap="butt" stroke-linejoin="miter" stroke-miterlimit="10" stroke-dasharray="" stroke-dashoffset="0" font-family="Serif" font-weight="normal" text-anchor="start" style="mix-blend-mode: normal"><tspan x="0" dy="0">Name: Matthew </tspan><tspan x="0" dy="46.150000000000006px">Age: 21</tspan><tspan x="0" dy="46.150000000000006px">Status: Dead</tspan><tspan x="0" dy="46.150000000000006px">Role: This is not him</tspan></text><path d="M194.25,59v-19.5h117.84467v19.5z" fill="#000000" stroke="none" stroke-width="0" stroke-linecap="butt"/><text transform="translate(199.22954,53.9009) scale(0.42192,0.42192)" font-size="40" xml:space="preserve" fill="#ffffff" fill-rule="nonzero" stroke="none" stroke-width="1" stroke-linecap="butt" stroke-linejoin="miter" stroke-miterlimit="10" stroke-dasharray="" stroke-dashoffset="0" font-family="Serif" font-weight="normal" text-anchor="start" style="mix-blend-mode: normal"><tspan x="0" dy="0">Documentation:</tspan></text><path d="M429.07853,298.09424h-241v-236.31414" fill="none" stroke="#000000" stroke-width="5" stroke-linecap="round"/><path d="M37.83201,243v-205h136.5312v205z" fill="#174752" stroke="#151515" stroke-width="6.5" stroke-linecap="butt"/><path d="M37.83201,243v-205h136.5312v205z" fill="#ffffff" stroke="#151515" stroke-width="6.5" stroke-linecap="butt"/><text transform="translate(349.55711,323.11998) scale(0.35959,0.35959)" font-size="40" xml:space="preserve" fill="#000000" fill-rule="nonzero" stroke="none" stroke-width="1" stroke-linecap="butt" stroke-linejoin="miter" stroke-miterlimit="10" stroke-dasharray="" stroke-dashoffset="0" font-family="Serif" font-weight="normal" text-anchor="start" style="mix-blend-mode: normal"><tspan x="0" dy="0">Click this to exit</tspan></text><text transform="translate(195.65985,87.86287) scale(0.40625,0.40625)" font-size="40" xml:space="preserve" fill="#000000" fill-rule="nonzero" stroke="none" stroke-width="1" stroke-linecap="butt" stroke-linejoin="miter" stroke-miterlimit="10" stroke-dasharray="" stroke-dashoffset="0" font-family="Serif" font-weight="normal" text-anchor="start" style="mix-blend-mode: normal"><tspan x="0" dy="0">What we have contained is not the</tspan><tspan x="0" dy="48px">original Matthew Hudgson.</tspan><tspan x="0" dy="48px"> </tspan><tspan x="0" dy="48px">This is a replica, a natural one, not</tspan><tspan x="0" dy="48px">synthetic. We have no idea how, so</tspan><tspan x="0" dy="48px">we kept it. </tspan><tspan x="0" dy="48px"> </tspan><tspan x="0" dy="48px">The original matthew was simply</tspan><tspan x="0" dy="48px">killed by this, he wasn't the most</tspan><tspan x="0" dy="48px">impressive guy.</tspan></text><g><path d="M376.458,50.08239l65.9875,-0.31878" fill="none" stroke="#000000" stroke-width="3" stroke-linecap="round"/><g stroke="none" stroke-linecap="butt"><g fill="#000000" stroke-width="1" font-weight="normal" font-size="40" text-anchor="start"><text transform="translate(376.45799,48.48849) scale(0.33457,0.33457)" font-size="40" xml:space="preserve" fill="#000000" fill-rule="nonzero" stroke="none" stroke-width="1" stroke-linecap="butt" stroke-linejoin="miter" stroke-miterlimit="10" stroke-dasharray="" stroke-dashoffset="0" font-family="Pixel" font-weight="normal" text-anchor="start" style="mix-blend-mode: normal"><tspan x="0" dy="0">DONK</tspan></text><text transform="translate(375.65959,62.03519) scale(0.33457,0.33457)" font-size="40" xml:space="preserve" fill="#000000" fill-rule="nonzero" stroke="none" stroke-width="1" stroke-linecap="butt" stroke-linejoin="miter" stroke-miterlimit="10" stroke-dasharray="" stroke-dashoffset="0" font-family="Sans Serif" font-weight="normal" text-anchor="start" style="mix-blend-mode: normal"><tspan x="0" dy="0">Industries</tspan></text></g><path d="M417.58064,41.15655v-3.82536h25.18364v3.82536z" fill="url(#color-5)" stroke-width="0"/><path d="M417.58064,47.47902v-3.7191h25.18364v3.7191z" fill="url(#color-6)" stroke-width="0"/></g></g><path d="M75.32092,239.02218l-0.74605,-162.71553l58.5911,-0.26864l0.74605,162.71553z" fill-opacity="0.01" fill="#000000" stroke="none" stroke-width="0" stroke-linecap="butt"/><path d="M77.79114,241.38138c0,0 -0.40827,-60.64916 -0.50979,-75.83212c-0.03503,-5.2387 5.26072,-23.62206 25.83299,-23.72475c20.30703,-0.10137 25.61112,18.94777 25.60605,23.70909c-0.04922,29.71464 0.42043,75.81571 0.42043,75.81571l-6.74495,0.06178l-0.10205,-73.79585c0,0 0.04851,-1.99155 -1.80967,-2.02679c-2.20688,-0.04186 -1.89264,2.00203 -1.89264,2.00203l0.13204,73.81309l-30.98112,0.04641l-0.19624,-74.04644c0,0 0.17959,-1.87569 -1.85423,-1.88561c-1.99896,-0.00974 -1.80931,1.86926 -1.80931,1.86926l0.2269,73.93959z" fill="#000000" stroke="#000000" stroke-width="2" stroke-linecap="butt"/><path d="M112.87416,172.77381c-0.367,0 -0.6645,-0.29751 -0.6645,-0.6645c0,-0.367 0.29751,-0.66451 0.6645,-0.66451c0.367,0 0.6645,0.29751 0.6645,0.66451c0,0.367 -0.29751,0.6645 -0.6645,0.6645z" fill="#000000" stroke="none" stroke-width="1.5" stroke-linecap="butt"/><path d="M109.49428,177.23764c-2.86815,-0.20202 -4.21047,-1.15274 -3.96462,-1.65793c0.07575,-0.15566 1.82907,0.68342 4.47902,0.83844c4.11827,0.24092 5.46857,-0.40594 5.46857,-0.40594v0.86502c0,0 -1.55087,0.6726 -5.98297,0.36042z" fill="#000000" stroke="#000000" stroke-width="0" stroke-linecap="butt"/><path d="M91.62237,172.10931c0,-0.367 0.29751,-0.66451 0.6645,-0.66451c0.367,0 0.66451,0.29751 0.66451,0.66451c0,0.367 -0.29751,0.6645 -0.66451,0.6645c-0.367,0 -0.6645,-0.29751 -0.6645,-0.6645z" fill="#000000" stroke="none" stroke-width="1.5" stroke-linecap="butt"/><path d="M95.66675,177.23764c-4.4321,0.3122 -5.98297,-0.36042 -5.98297,-0.36042v-0.86502c0,0 1.35029,0.64686 5.46857,0.40594c2.64995,-0.15503 4.40328,-0.9941 4.47903,-0.83844c0.24585,0.50518 -1.09646,1.4559 -3.96462,1.65793z" fill="#000000" stroke="#000000" stroke-width="0" stroke-linecap="butt"/><path d="M102.91535,213.57666c-0.52624,0 -0.95284,-0.4266 -0.95284,-0.95284c0,-0.52624 0.4266,-0.95284 0.95284,-0.95284c0.52624,0 0.95284,0.4266 0.95284,0.95284c0,0.52624 -0.4266,0.95284 -0.95284,0.95284z" data-paper-data="{&quot;index&quot;:null}" fill="#000000" stroke="none" stroke-width="1.5" stroke-linecap="butt"/><path d="M87.45279,241.39065l-1.92774,-75.47193c0,0 -9.47342,-0.79105 -9.47342,-3.94503c0,-1.78786 3.40336,-12.60793 7.15904,-15.66713c2.3159,-1.88643 6.74786,-1.78092 7.23378,-2.12286c1.27392,-0.89646 3.3234,-1.80161 3.3234,-1.80161c0,0 -0.38658,15.49197 9.35565,15.44676c9.91807,-0.04602 8.88787,-15.44676 8.88787,-15.44676c0,0 2.51426,0.97646 3.96205,1.89339c0.41942,0.26564 4.65903,1.14832 6.72833,3.32121c4.34672,4.56429 7.88816,12.0805 7.88816,12.29171c0,3.11133 -10.43729,6.676 -10.43729,6.676l-1.12451,74.82626z" fill="#ec0000" stroke="#970000" stroke-width="2" stroke-linecap="butt"/><g><path d="M78.46711,108.50854c0,0 4.40919,-3.27475 4.56123,-3.81619c0.39875,-1.42008 3.15258,-25.62146 26.30032,-23.58237c28.52696,3.03927 22.00144,25.69811 23.05012,30.26332c1.43791,6.2596 2.51268,11.59103 2.51268,11.59103c0,0 -1.59727,-1.5335 -2.34627,-2.32872c-0.69859,-0.74169 -2.16793,-2.31371 -2.16793,-2.31371c0,0 1.13077,6.84706 -0.8435,13.2981c-1.76512,5.91676 -6.04951,10.38799 -6.04951,10.38799l-0.54592,-1.59002c0,0 -0.83021,1.31807 -1.6473,1.94915c-0.81709,0.63107 -2.4283,1.57767 -2.4283,1.57767l0.24187,-2.36867c0,0 -5.39433,6.45041 -16.40408,4.95419c-10.37348,-1.48588 -15.75279,-8.92012 -15.75279,-8.92012l-0.28948,1.68286c0,0 -2.21551,-2.41493 -3.15265,-6.68949c-1.11696,-5.09477 -1.07158,-8.06713 -1.07158,-8.06713c0,0 -1.64511,1.02081 -3.86936,1.30464c-2.78711,0.35566 -4.45607,-0.34355 -4.45607,-0.34355c0,0 2.5203,-1.43929 3.94643,-2.58744c1.27028,-1.02268 1.96104,-1.93803 1.96104,-1.93803c0,0 -1.43146,0.52043 -2.8294,0.68791c-1.45859,0.17476 -2.612,0.01144 -2.612,0.01144c0,0 3.5799,-2.8073 5.36395,-6.36122c1.68443,-3.35547 2.22748,-6.81422 2.22748,-6.81422c0,0 -0.92165,0.31127 -2.18726,0.23665c-0.80224,-0.04729 -1.51176,-0.2241 -1.51176,-0.2241z" fill="#000000" stroke="none" stroke-width="1.5" stroke-linecap="butt"/><path d="M88.24846,117.0873c0.22389,-4.6958 1.6054,-10.90771 1.6054,-10.90771c0,0 2.17738,0.25043 9.12459,-0.8753c5.33729,-0.86487 13.86737,-4.38036 13.86737,-4.38036c0,0 -1.62071,1.74026 -2.53414,2.56657c-0.97108,0.87846 -2.91546,2.58463 -2.91546,2.58463c0,0 5.13153,-0.42705 9.73795,-1.82398c5.74867,-1.55861 7.24319,-2.99902 8.62771,-1.8768c1.63407,1.32449 -1.22436,14.86108 -1.87395,18.37861c-0.72874,3.57956 -2.38557,5.84991 -3.024,7.72544c-0.63843,1.87553 -0.759,3.87847 -2.70773,10.04529c-1.21614,3.84852 -3.37702,5.35122 -7.57628,8.53239c-4.19926,3.18117 -6.52195,5.16345 -9.05167,4.88613c-2.43451,-0.26688 -5.2821,-3.97606 -8.04055,-7.74882c-2.9373,-4.01738 -4.96938,-6.12371 -4.96463,-10.43892c0.00427,-3.8863 0.30895,-6.37907 0.52158,-9.81095c0.1554,-2.50827 -0.91843,-4.29177 -0.79618,-6.85623z" fill="#ffffff" stroke="#000000" stroke-width="1.5" stroke-linecap="butt"/><path d="M120.11685,111.34927c0,0 0.94583,0.32642 2.62272,1.05304c1.53165,0.66368 2.69468,1.47272 2.69468,1.47272l0.02941,0.76186c0,0 -4.36722,-2.58337 -9.43491,-2.80129c-4.052,-0.17424 -6.57909,0.98435 -6.57909,0.98435l0.36806,-2.65875c0,0 2.13184,-0.83258 5.16314,-0.54478c3.13889,0.29802 5.10943,1.03335 5.10943,1.03335z" data-paper-data="{&quot;index&quot;:null}" fill="#000000" stroke="none" stroke-width="1.5" stroke-linecap="butt"/><path d="M108.49266,137.71547c0.3464,0.18133 1.85204,1.14223 3.62921,2.14345c1.79132,1.0092 4.41218,2.04689 4.38616,2.15212c-0.03304,0.13354 -6.66992,-0.70199 -8.77103,-0.70689c-1.76076,-0.00412 -4.32085,-0.0929 -4.32085,-0.0929c0,0 -4.4341,-1.3169 -8.26188,-2.63554c-3.06784,-1.05684 -6.49412,-1.90259 -6.49332,-1.96308c0.00106,-0.08156 2.52349,-0.13917 4.46314,-0.33532c0.7707,-0.22359 3.58797,-0.50531 3.58797,-0.50531c0,0 3.18157,0.22511 4.80281,0.98638c1.73714,0.8157 1.609,1.78895 1.76495,1.82403c0,0 0.89689,-1.01899 1.68076,-1.14935c0.78388,-0.13036 3.27335,0.14696 3.53212,0.28241z" fill="#ffffff" stroke="#000000" stroke-width="1.4" stroke-linecap="butt"/><path d="M96.23628,139.10506c3.16197,1.06756 7.36891,2.75647 7.36891,2.75647c0,0 3.81684,-0.52199 5.53313,-0.48397c1.3306,0.02948 7.20681,0.45965 7.20478,0.70087c-0.00198,0.23584 -6.80351,7.49038 -14.49048,6.21838c-8.74185,-1.395 -13.34668,-11.50314 -13.30883,-11.60787c0.03784,-0.10473 4.53053,1.34858 7.6925,2.41614z" fill="#ffffff" stroke="#000000" stroke-width="1.9" stroke-linecap="butt"/><path d="M103.47458,138.08719c-0.65896,-0.08388 -1.99077,-2.36538 -1.97859,-3.72626c0.0109,-1.21761 1.1489,-2.33339 2.72437,-2.13286c1.57548,0.20054 2.63875,0.65378 2.22902,2.99691c-0.34773,1.98854 -1.39933,3.06276 -2.9748,2.86222z" fill="#ffffff" stroke="#000000" stroke-width="1.15" stroke-linecap="butt"/><path d="M108.21239,119.19661c0,0 -0.25669,2.53879 -0.57456,4.54324c-0.62942,3.96914 -2.94178,17.60794 -2.94178,17.60794l-1.90132,-0.23641c0,0 -0.17326,-2.72501 0.0548,-6.14665c0.3087,-4.6315 1.03545,-10.42236 1.10625,-12.57629c0.06712,-2.04171 -0.10745,-3.71534 -0.10745,-3.71534" fill="#ffffff" stroke="#000000" stroke-width="1.3" stroke-linecap="round"/><path d="M88.5105,123.67812c0,0 -2.85855,-2.64207 -3.20107,-6.22115c-0.36039,-3.76588 -0.14172,-6.3226 1.11676,-6.33026c1.25849,-0.00768 1.53027,1.73446 1.70135,5.62908c0.17108,3.89461 0.38295,6.92234 0.38295,6.92234z" data-paper-data="{&quot;index&quot;:null}" fill="#ffffff" stroke="#000000" stroke-width="1" stroke-linecap="butt"/><path d="M88.70166,121.14536c0,0 -2.03454,-2.15263 -2.0669,-5.73709c-0.01806,-1.99953 1.55979,-1.27847 1.55979,-1.27847" fill="none" stroke="#000000" stroke-width="0.25" stroke-linecap="round"/><path d="M93.98169,117.58237c0.2493,-1.75508 1.87417,-2.97574 3.62923,-2.72643c1.75508,0.2493 2.97574,1.87417 2.72643,3.62923c-0.2493,1.75508 -1.87416,2.97574 -3.62923,2.72643c-1.75508,-0.2493 -2.97574,-1.87417 -2.72643,-3.62923z" fill="#000000" stroke="none" stroke-width="1.5" stroke-linecap="butt"/><path d="M108.40915,119.34286c0.52635,-3.09938 3.55703,-5.28544 6.94681,-4.85397c3.38978,0.43147 5.59013,3.28062 5.19318,6.39922c-0.39695,3.11859 -3.21298,5.46693 -6.92465,5.04037c-3.53047,-0.40573 -5.76503,-3.34878 -5.21534,-6.58562z" fill="#ffffff" stroke="#000000" stroke-width="1.4" stroke-linecap="butt"/><path d="M111.33617,119.77085c0.22868,-1.79658 1.87048,-3.06762 3.66706,-2.83894c1.79658,0.22868 3.06762,1.87048 2.83894,3.66706c-0.22868,1.79658 -1.87047,3.06762 -3.66706,2.83894c-1.79658,-0.22868 -3.06762,-1.87048 -2.83894,-3.66706z" fill="#000000" stroke="none" stroke-width="1.5" stroke-linecap="butt"/><path d="M91.1621,116.80236c0,0 0.77198,-5.74141 7.47356,-4.76517c6.02371,0.87417 5.32778,6.77181 5.32778,6.77181z" fill="#ffffff" stroke="#000000" stroke-width="1.15" stroke-linecap="butt"/><path d="M108.20104,119.05596c0,0 0.61005,-6.04903 7.8767,-4.89414c6.16518,1.00075 5.30231,6.92732 5.30231,6.92732z" fill="#ffffff" stroke="#000000" stroke-width="1.15" stroke-linecap="butt"/><path d="M94.22447,110.70696c0,0 2.29551,-0.8861 5.30531,-0.80277c3.33523,0.09234 4.95713,0.58804 4.95713,0.58804l-0.14761,2.66132c0,0 -2.38969,-0.74507 -5.06866,-0.98274c-3.58278,-0.31785 -4.35195,0.37426 -7.10007,0.32131c-2.35473,-0.04537 -4.30744,-0.44538 -4.30744,-0.44538l0.08342,-0.78713c0,0 2.28569,0.33885 3.34171,0.38107c0.8716,0.03483 2.61037,-0.27539 2.61037,-0.27539z" fill="#000000" stroke="none" stroke-width="1.5" stroke-linecap="butt"/><path d="M123.94167,121.31441c1.14127,-3.72757 1.84082,-5.34607 3.05726,-5.02337c1.21644,0.3227 0.78764,2.85267 -0.50466,6.40818c-1.2282,3.37915 -4.65748,5.22086 -4.65748,5.22086c0,0 0.9636,-2.87811 2.10488,-6.60568z" data-paper-data="{&quot;index&quot;:null}" fill="#ffffff" stroke="#000000" stroke-width="1" stroke-linecap="butt"/><path d="M124.53464,118.75538c0,0 1.70818,-0.3028 1.18979,1.62845c-0.92929,3.46205 -3.43821,5.03637 -3.43821,5.03637" data-paper-data="{&quot;index&quot;:null}" fill="none" stroke="#000000" stroke-width="0.25" stroke-linecap="round"/><path d="M98.89293,120.66462c-0.31268,1.42874 -1.11698,3.01097 -1.53715,4.49354c-0.17956,0.63357 -0.03149,1.29692 -0.4026,1.8723c-0.04263,0.36105 -0.32234,2.47873 -0.99311,2.0086c-0.12801,-0.08972 0.05078,-0.93935 0.07027,-1.09447c0.14285,-1.13715 0.25632,-2.33535 0.11969,-3.47194c-0.16244,-0.92129 -0.36348,-1.92098 -0.49198,-2.92443c-0.20313,0.758 -0.66072,2.58967 -1.09142,2.52799c-0.60056,-0.08599 -0.72802,-3.85234 -1.51563,-2.18033c-0.73646,1.71642 -1.04643,4.12367 -1.98287,5.7528l0.02259,0.00939l-0.12196,0.29346c-0.02613,0.06709 -0.09532,0.11043 -0.16997,0.10094c-0.06683,-0.0085 -0.11882,-0.05693 -0.13506,-0.11828l-0.08433,-0.29158c-0.46247,-0.83357 -0.91874,-3.74368 -0.72292,-5.12342c-0.67614,1.4569 -0.80649,3.14436 -1.604,4.54722c-0.91949,1.61671 -1.54734,-2.66786 -1.66943,-3.52265c-0.03415,-0.23912 -0.01907,-0.99898 -0.1507,-1.17442c-0.07739,-0.10311 -0.24917,0.09078 -0.34243,0.17979c-0.12652,0.13601 -0.38331,0.4661 -0.70112,0.85758c0.25852,0.58287 0.54107,1.13784 0.8573,1.63976c1.0811,1.551 2.20802,4.48199 1.97316,6.33607c-0.0225,0.17683 -0.045,0.35365 -0.06751,0.53048c0.06278,-0.20917 0.13664,-0.40199 0.22409,-0.57026l0.06297,-0.11899c0,0 0.07514,-0.142 0.21713,-0.06685c0.142,0.07514 0.06685,0.21713 0.06685,0.21713l-0.06297,0.11899c-0.55042,1.01821 -0.11523,2.44234 -0.67884,3.43802l0.05901,0.04122l-0.18204,0.26064c-0.03278,0.04902 -0.09144,0.07809 -0.15392,0.07013c-0.06569,-0.00836 -0.11705,-0.0553 -0.1342,-0.11517l-0.09426,-0.30335l0.00346,-0.00107l-0.00735,-0.01396c-0.02709,-0.24854 -0.12076,-1.67395 -0.28978,-1.79276c-0.31283,-0.21988 -2.39043,0.33016 -2.86188,0.34814c-0.84686,-1.7606 -1.58491,1.70875 -2.24924,1.70129c-0.69791,-0.00784 -0.49934,-2.40879 -0.53538,-2.90047c-0.12574,-1.72901 -0.57382,-3.62684 -0.47112,-5.35647c-1.11985,0.45391 -3.04213,3.42449 -3.21054,1.34085c-0.50732,-1.82067 0.04501,-4.82418 0.12181,-6.758c0.00758,-0.19093 0.10873,-0.99298 -0.05191,-1.12575c-0.05511,-0.04555 -0.66015,0.38845 -0.71164,0.41012c-1.10501,0.46509 -3.27186,2.36901 -3.84707,0.81525c-0.50197,-1.10602 0.7364,-3.73037 -0.30745,-4.66842c-0.328,-0.29476 -1.31819,0.51226 -1.57608,0.64875c-0.9645,0.4585 -0.94947,-0.71558 -0.86355,-1.38034c0.19718,-1.52541 0.95066,-3.13778 0.95951,-4.65598c-0.14705,-0.61648 -1.62706,-0.01098 -1.98706,-0.48387c-0.1145,-0.15041 0.06568,-0.88052 0.09026,-1.07362c0.16952,-1.33181 0.54795,-2.14983 1.19968,-3.31497c0.48634,-0.8476 1.08764,-1.58641 1.63017,-2.39645c0.0871,-0.13004 0.60332,-0.82052 0.5067,-0.97743c-0.11348,-0.18428 -1.23736,0.21897 -1.75753,0.44599l-0.06076,0.07531c-0.03372,0.04326 -0.08874,0.06813 -0.1471,0.06071c-0.08801,-0.0112 -0.15028,-0.09163 -0.13908,-0.17965c0.00001,-0.00005 0.00001,-0.0001 0.00002,-0.00015l0.04082,-0.31867c0.28698,-2.24037 0.83632,-4.43025 1.33126,-6.63295c0.18697,-0.56605 0.33859,-1.84013 0.8673,-2.16501c0.48578,-0.29849 2.92905,1.189 3.43096,1.84526l0.00659,-0.00522l0.0033,-0.02557l0.00014,0.00002l-0.00011,-0.00028c0.29447,-2.17953 0.91887,-4.43419 1.44981,-6.58952c0.11464,-0.46538 0.33678,-1.94675 0.73893,-2.22989c0.43559,-0.30668 2.93868,1.23461 3.44725,1.89568c0.13141,-0.84601 0.41897,-1.63714 0.5263,-2.49418c0.28045,-2.23935 0.33052,-4.4523 0.38404,-6.70764c-0.14904,-4.41461 3.07499,3.38384 3.50464,-0.08701c0.23777,-1.92209 -1.4048,-4.08328 -1.13052,-5.95822l-0.05042,-0.00673l0.04249,-0.31835c0.0116,-0.08756 0.09181,-0.14939 0.17954,-0.13823c0.044,0.0056 0.08157,0.0285 0.10674,0.06102l0.19667,0.25402c0.00001,0.00001 0.00001,0.00001 0.00003,0.00003c0.72511,0.93548 1.6364,1.55685 2.6349,2.19726c1.06383,0.68234 2.28096,1.15599 3.44193,1.65276c0.2244,0.09602 1.07762,0.66182 1.32323,0.43548c0.08383,-0.07726 -0.13287,-1.00806 -0.11941,-1.16612c0.20074,-2.20844 -0.14392,-4.49988 -0.29644,-6.70718c-0.11247,-1.62791 -0.81495,-4.43314 -0.3675,-6.12892l-0.04846,-0.01262l0.08041,-0.3088c0.01915,-0.07828 0.09445,-0.13141 0.17629,-0.121c0.04357,0.00555 0.08082,0.02805 0.10597,0.06004l0.19874,0.25232c0.89851,1.14104 2.17519,2.06879 3.23689,3.06399c0.98703,0.70471 1.80238,1.36531 2.92699,1.85015c0.1281,0.05523 1.00284,0.35136 1.08936,0.28604c0.08791,-0.06637 0.28381,-1.56083 0.35385,-1.79514c0.51248,-1.71406 0.91704,-4.30645 2.18092,-5.72778l-0.02982,-0.02249l0.19156,-0.25404c0.03335,-0.04598 0.09011,-0.0728 0.15042,-0.06513c0.08062,0.01026 0.13965,0.07862 0.14037,0.15769l0.00793,0.30593c0.12605,0.51694 0.26405,1.03201 0.35168,1.55693c0.42433,2.54649 1.66916,3.65904 3.19499,5.60219c0.97898,1.23225 2.71805,2.07419 4.02045,3.15111c0.03157,-0.00612 0.05668,-0.00292 0.05668,-0.00292c1.7711,0.23808 3.86783,-0.78045 5.66199,-0.87971c2.24957,-0.04137 4.49665,-0.07972 6.74673,-0.08785c2.30301,-0.14597 4.4647,-0.05885 6.74177,0.36598c0.64613,0.12055 4.31511,0.49635 3.68135,1.70488c-0.2985,0.56922 -1.87595,0.8593 -2.43902,1.05544c-0.12061,0.06753 -0.95327,0.44761 -0.94685,0.56483c0.01903,0.34778 0.76471,0.85779 0.99776,1.07318c0.94684,0.87508 1.89163,1.71131 2.9116,2.50026c1.81419,1.40329 3.6647,2.594 5.5337,3.87756c0.2075,0.4515 0.75443,1.17242 0.34634,1.70136c-0.21389,0.27722 -1.01289,0.34915 -1.3343,0.40515c-1.26559,0.22056 -2.53967,0.37619 -3.80051,0.62288c-0.16794,0.03286 -1.33135,0.179 -1.30732,0.29189c0.27168,1.27614 2.06142,3.0981 2.80101,4.20615c0.99726,1.49407 3.42647,4.04767 3.33328,5.88203c-0.30612,1.39356 -2.0366,-0.92686 -2.80104,-0.29643c-0.41203,0.3398 0.31075,2.81871 0.42577,3.30517c0.5108,2.16285 1.2706,4.38559 1.47414,6.57906c0.03048,0.32923 0.02459,0.64294 0.03592,0.96924c0.11779,3.39039 -2.3652,-3.6362 -2.3583,-0.51187c0.00501,2.2671 0.11735,4.45281 0.33851,6.70385c0.21776,2.22482 0.11922,4.52103 0.16568,6.75653c0.04643,2.24855 -0.10008,4.51786 -0.16323,6.7662c-0.44312,2.2172 -0.86997,4.41011 -1.45506,6.59756c-0.03022,0.2036 -0.08346,1.31813 -0.28309,1.39005c-0.35289,0.12715 -1.19148,-1.15804 -1.43172,-1.49145c-0.10791,0.45721 -0.51079,0.98425 -0.70611,1.35659c-0.69647,1.32777 -1.39295,2.65554 -2.08943,3.98331c-0.21907,0.41764 -1.01085,2.55562 -1.45787,2.64433c-0.89139,0.1769 -2.21005,-2.43021 -2.58389,-3.01238c-0.40673,-0.63403 -0.72704,-2.42229 -1.23617,-2.83161c-0.26894,-0.21621 -0.0232,0.6903 -0.05862,1.03354c-0.07787,0.75456 -0.14361,1.50049 -0.29927,2.24334c-0.22141,1.05663 -0.28802,2.55572 -0.85465,3.46814l-0.03997,0.17681c0,0 -0.01017,0.03779 -0.03911,0.07106c-0.04065,0.11276 -0.16964,0.09634 -0.16964,0.09634l0.00003,-0.00001c-0.57358,-0.08768 -1.34515,0.37806 -1.88079,0.18269c-1.30509,-0.476 -2.06436,-1.58386 -2.79241,-2.66301c-0.15306,-0.20291 -1.00659,-1.71788 -1.07777,-1.6922c-0.70621,0.2548 -0.92768,4.118 -1.8428,2.17742c-0.09619,-0.20397 -0.1823,-0.42426 -0.18874,-0.64969c-0.05331,-0.34176 -0.04702,-1.61697 -0.18991,-1.8058c-0.22911,-0.30276 -1.29748,-0.79603 -1.4666,-1.12614c-0.25047,-0.48889 0.92864,-2.42541 1.24711,-2.77197c0.18763,-0.2649 0.37488,-0.52979 0.56158,-0.79506c-1.16132,-1.64754 -2.56258,-3.68909 -4.14616,-4.87757c-0.53522,-0.51514 -0.60892,1.79639 -1.49056,0.81259c-0.46625,-0.52028 -1.21649,-3.74902 -2.2549,-3.29715c-0.139,0.22487 -1.16194,1.47741 -1.43309,1.43789c-0.40977,-0.05971 -0.34249,-0.80559 -0.37483,-1.04789c-0.11563,-0.8666 -0.71767,-2.81492 -1.39851,-3.36527c-0.72856,0.00727 -1.32855,2.14336 -2.01344,1.90956c-0.2687,-0.09173 -0.22512,-0.86309 -0.25413,-1.07987c-0.12799,-0.95623 -0.31955,-1.86965 -0.63065,-2.78119c-0.16278,-0.47696 -0.38917,-1.62443 -1.01688,-1.74731c-0.45876,-0.0898 -0.6384,0.79601 -1.04187,0.69123c-0.17088,-0.04438 -0.27225,-0.31466 -0.33049,-0.68335c-0.51735,0.69965 -0.93843,1.49582 -1.42196,2.26541zM87.73807,133.89067c-0.01664,-0.00212 -0.03131,-0.00574 -0.04426,-0.01056c0.03796,0.29168 0.06146,0.579 0.07825,0.77195c0.01641,-0.24094 0.03436,-0.5026 0.05758,-0.77279c-0.02374,0.0109 -0.05374,0.01621 -0.09157,0.01139z" fill="#000000" stroke="none" stroke-width="0.5" stroke-linecap="butt"/><path d="M92.83436,118.0077c0.44212,-3.11251 3.80918,-5.30363 7.22783,-4.81802c3.41863,0.4856 5.4096,3.44053 4.96748,6.55305c-0.44212,3.11251 -3.34203,5.2713 -6.76068,4.7857c-3.41863,-0.4856 -5.87675,-3.4082 -5.43462,-6.52071z" fill="#ffffff" stroke="#000000" stroke-width="1.4" stroke-linecap="butt"/><path d="M103.81811,119.21896c-0.4033,3.16843 -2.83498,5.46903 -5.43132,5.13855c-2.59634,-0.33048 -4.37416,-3.16689 -3.97087,-6.33532c0.4033,-3.16843 2.83498,-5.46903 5.43132,-5.13855c2.59634,0.33048 4.37416,3.16689 3.97087,6.33532z" fill="#000000" stroke="none" stroke-width="0" stroke-linecap="butt"/></g></g></g></svg>