<svg version="1.1" xmlns="http://www.w3.org/2000/svg" xmlns:xlink="http://www.w3.org/1999/xlink" width="492" height="367.57853" viewBox="0,0,492,367.57853"><defs><linearGradient x1="240.5" y1="332" x2="240.5" y2="365" gradientUnits="userSpaceOnUse" id="color-1"><stop offset="0" stop-color="#ffffff"/><stop offset="1" stop-color="#ffffff" stop-opacity="0"/></linearGradient><linearGradient x1="240.89463" y1="-2" x2="240.89463" y2="32.69503" gradientUnits="userSpaceOnUse" id="color-2"><stop offset="0" stop-color="#ffffff" stop-opacity="0"/><stop offset="1" stop-color="#ffffff"/></linearGradient><linearGradient x1="-3.5" y1="180.23215" x2="29.5" y2="180.23215" gradientUnits="userSpaceOnUse" id="color-3"><stop offset="0" stop-color="#ffffff" stop-opacity="0"/><stop offset="1" stop-color="#ffffff"/></linearGradient><linearGradient x1="451.40985" y1="179.71073" x2="484.40985" y2="179.71073" gradientUnits="userSpaceOnUse" id="color-4"><stop offset="0" stop-color="#ffffff"/><stop offset="1" stop-color="#ffffff" stop-opacity="0"/></linearGradient><linearGradient x1="417.58064" y1="39.24387" x2="442.76428" y2="39.24387" gradientUnits="userSpaceOnUse" id="color-5"><stop offset="0" stop-color="#000000"/><stop offset="1" stop-color="#000000" stop-opacity="0"/></linearGradient><linearGradient x1="417.58064" y1="45.61947" x2="442.76428" y2="45.61947" gradientUnits="userSpaceOnUse" id="color-6"><stop offset="0" stop-color="#000000"/><stop offset="1" stop-color="#000000" stop-opacity="0"/></linearGradient></defs><g transform="translate(5.5,2.57853)"><g data-paper-data="{&quot;isPaintingLayer&quot;:true}" fill-rule="nonzero" stroke-linejoin="miter" stroke-miterlimit="10" stroke-dasharray="" stroke-dashoffset="0" style="mix-blend-mode: normal"><path d="M-5.5,365l33,-33h424l35,33z" fill="url(#color-1)" stroke="none" stroke-width="0" stroke-linecap="butt"/><path d="M485.5,-2l-37,33l-418.21073,1.69503l-34,-33.48429z" data-paper-data="{&quot;index&quot;:null}" fill="url(#color-2)" stroke="none" stroke-width="0" stroke-linecap="butt"/><path d="M-3.5,-2l33,33v299.46429l-33,32z" fill="url(#color-3)" stroke="none" stroke-width="0" stroke-linecap="butt"/><path d="M484.40985,362l-33,-30v-303.90576l33,-30.67277z" data-paper-data="{&quot;index&quot;:null}" fill="url(#color-4)" stroke="none" stroke-width="0" stroke-linecap="butt"/><path d="M28,331.5v-303h424v303z" fill="#ffffff" stroke="#000000" stroke-width="5" stroke-linecap="butt"/><path d="M34.75,325.0005v-72.50051h142.5v72.50051z" fill="#000000" stroke="none" stroke-width="0" stroke-linecap="butt"/><text transform="translate(40.5,269.7425) scale(0.37277,0.33334)" font-size="40" xml:space="preserve" fill="#ffffff" fill-rule="nonzero" stroke="none" stroke-width="1" stroke-linecap="butt" stroke-linejoin="miter" stroke-miterlimit="10" stroke-dasharray="" stroke-dashoffset="0" font-family="Serif" font-weight="normal" text-anchor="start" style="mix-blend-mode: normal"><tspan x="0" dy="0">Name: Dimitry</tspan><tspan x="0" dy="46.150000000000006px">Age: 26</tspan><tspan x="0" dy="46.150000000000006px">Status: Detained</tspan><tspan x="0" dy="46.150000000000006px">Role: Captive</tspan></text><path d="M194.25,59v-19.5h117.84467v19.5z" fill="#000000" stroke="none" stroke-width="0" stroke-linecap="butt"/><text transform="translate(199.22954,53.9009) scale(0.42192,0.42192)" font-size="40" xml:space="preserve" fill="#ffffff" fill-rule="nonzero" stroke="none" stroke-width="1" stroke-linecap="butt" stroke-linejoin="miter" stroke-miterlimit="10" stroke-dasharray="" stroke-dashoffset="0" font-family="Serif" font-weight="normal" text-anchor="start" style="mix-blend-mode: normal"><tspan x="0" dy="0">Documentation:</tspan></text><path d="M429.07853,298.09424h-241v-236.31414" fill="none" stroke="#000000" stroke-width="5" stroke-linecap="round"/><path d="M37.83201,243v-205h136.5312v205z" fill="#174752" stroke="#151515" stroke-width="6.5" stroke-linecap="butt"/><path d="M37.83201,243v-205h136.5312v205z" fill="#ffffff" stroke="#151515" stroke-width="6.5" stroke-linecap="butt"/><text transform="translate(349.55711,323.11998) scale(0.35959,0.35959)" font-size="40" xml:space="preserve" fill="#000000" fill-rule="nonzero" stroke="none" stroke-width="1" stroke-linecap="butt" stroke-linejoin="miter" stroke-miterlimit="10" stroke-dasharray="" stroke-dashoffset="0" font-family="Serif" font-weight="normal" text-anchor="start" style="mix-blend-mode: normal"><tspan x="0" dy="0">Click this to exit</tspan></text><text transform="translate(193.84015,87.86287) scale(0.40625,0.38098)" font-size="40" xml:space="preserve" fill="#000000" fill-rule="nonzero" stroke="none" stroke-width="1" stroke-linecap="butt" stroke-linejoin="miter" stroke-miterlimit="10" stroke-dasharray="" stroke-dashoffset="0" font-family="Serif" font-weight="normal" text-anchor="start" style="mix-blend-mode: normal"><tspan x="0" dy="0">Dimitry was one of the many, many</tspan><tspan x="0" dy="48px">rebellion members we found. When</tspan><tspan x="0" dy="48px">we took him hostage, they didn't take</tspan><tspan x="0" dy="48px">too well to it. He attempted to contact</tspan><tspan x="0" dy="48px">help, so we silenced him. We then</tspan><tspan x="0" dy="48px">revived him with our advanced</tspan><tspan x="0" dy="48px">technology and as of writing this, he</tspan><tspan x="0" dy="48px">is in our captivity, detained. We used</tspan><tspan x="0" dy="48px">a parasite to prevent his body from</tspan><tspan x="0" dy="48px">healing.</tspan><tspan x="0" dy="48px"> </tspan><tspan x="0" dy="48px">[SUBJECT TO CHANGE]</tspan></text><g><path d="M376.458,50.08239l65.9875,-0.31878" fill="none" stroke="#000000" stroke-width="3" stroke-linecap="round"/><g stroke="none" stroke-linecap="butt"><g fill="#000000" stroke-width="1" font-weight="normal" font-size="40" text-anchor="start"><text transform="translate(376.45799,48.48849) scale(0.33457,0.33457)" font-size="40" xml:space="preserve" fill="#000000" fill-rule="nonzero" stroke="none" stroke-width="1" stroke-linecap="butt" stroke-linejoin="miter" stroke-miterlimit="10" stroke-dasharray="" stroke-dashoffset="0" font-family="Pixel" font-weight="normal" text-anchor="start" style="mix-blend-mode: normal"><tspan x="0" dy="0">DONK</tspan></text><text transform="translate(375.65959,62.03519) scale(0.33457,0.33457)" font-size="40" xml:space="preserve" fill="#000000" fill-rule="nonzero" stroke="none" stroke-width="1" stroke-linecap="butt" stroke-linejoin="miter" stroke-miterlimit="10" stroke-dasharray="" stroke-dashoffset="0" font-family="Sans Serif" font-weight="normal" text-anchor="start" style="mix-blend-mode: normal"><tspan x="0" dy="0">Industries</tspan></text></g><path d="M417.58064,41.15655v-3.82536h25.18364v3.82536z" fill="url(#color-5)" stroke-width="0"/><path d="M417.58064,47.47902v-3.7191h25.18364v3.7191z" fill="url(#color-6)" stroke-width="0"/></g></g><path d="M76.5154,240.58177c0,0 -0.48467,-71.99859 -0.60519,-90.02278c-0.04158,-6.21903 6.24518,-28.04252 30.66719,-28.16442c24.10714,-0.12034 30.40379,22.49352 30.39778,28.14584c-0.05842,35.27523 0.49911,90.00331 0.49911,90.00331l-8.00715,0.07334l-0.12115,-87.60546c0,0 0.05759,-2.36423 -2.14831,-2.40607c-2.61986,-0.04969 -2.24682,2.37668 -2.24682,2.37668l0.15675,87.62594l-36.7787,0.05509l-0.23296,-87.90295c0,0 0.2132,-2.22669 -2.20121,-2.23846c-2.37303,-0.01156 -2.14789,2.21906 -2.14789,2.21906l0.26936,87.7761z" fill="#ffffff" stroke="#000000" stroke-width="2" stroke-linecap="butt"/><path d="M118.16358,161.20364c-0.43567,0 -0.78885,-0.35318 -0.78885,-0.78885c0,-0.43567 0.35318,-0.78886 0.78885,-0.78886c0.43567,0 0.78885,0.35319 0.78885,0.78886c0,0.43567 -0.35318,0.78885 -0.78885,0.78885z" fill="#000000" stroke="none" stroke-width="1.5" stroke-linecap="butt"/><path d="M114.15123,164.43468c-3.40488,-0.23983 -4.99839,-1.36845 -4.70653,-1.96818c0.08992,-0.18479 2.17135,0.8113 5.3172,0.99534c4.88894,0.28601 6.49191,-0.4819 6.49191,-0.4819v1.02689c0,0 -1.84108,0.79847 -7.10258,0.42786z" fill="#000000" stroke="#000000" stroke-width="0" stroke-linecap="butt"/><path d="M92.9349,160.41479c0,-0.43567 0.35318,-0.78886 0.78885,-0.78886c0.43567,0 0.78886,0.35319 0.78886,0.78886c0,0.43567 -0.35319,0.78885 -0.78886,0.78885c-0.43567,0 -0.78885,-0.35318 -0.78885,-0.78885z" fill="#000000" stroke="none" stroke-width="1.5" stroke-linecap="butt"/><path d="M97.73615,164.43468c-5.26149,0.37062 -7.10258,-0.42786 -7.10258,-0.42786v-1.02689c0,0 1.60297,0.76791 6.49191,0.4819c3.14585,-0.18404 5.22728,-1.18012 5.3172,-0.99534c0.29186,0.59972 -1.30164,1.72835 -4.70653,1.96818z" fill="#000000" stroke="#000000" stroke-width="0" stroke-linecap="butt"/><path d="M87.98505,240.5928v-90.93014c0,0 0.57762,-7.42311 0.57762,-11.16731c0,-3.4312 -0.57762,-10.44097 -0.57762,-10.44097c0,0 2.03918,-1.79491 3.5515,-2.85913c1.51231,-1.06422 3.94532,-2.13875 3.94532,-2.13875c0,0 -0.45892,30.59626 11.1064,30.54259c11.77406,-0.05463 10.55108,-30.54259 10.55108,-30.54259c0,0 2.98476,1.15918 4.70348,2.24771c1.71872,1.08852 3.62632,2.75017 3.62632,2.75017c0,0 -0.57762,7.18937 -0.57762,10.82605c0,3.69356 0.57762,11.16731 0.57762,11.16731v90.54506z" fill="#ffffff" stroke="#000000" stroke-width="2" stroke-linecap="butt"/><path d="M72.66791,176.1227c-0.47199,-0.5861 -0.4238,-1.71636 -0.4238,-1.71636v-8.66657c0,0 0.90859,0 2.09778,0c6.75566,0 67.70092,0 67.70092,0v9.51415c0,0 -0.07418,0.89971 -0.59331,1.20781c-0.51913,0.30811 -2.01302,0.33903 -2.01302,0.33903h-65.26412c0,0 -1.03247,-0.09197 -1.50446,-0.67807z" fill="#2a2a2a" stroke="none" stroke-width="0" stroke-linecap="butt"/><path d="M84.96081,241.67596v-75.67247h-11.59498c0,0 -2.16746,-24.15377 8.81591,-37.30371c1.52141,-1.82152 5.47452,-5.66325 8.29411,-6.72759c6.09518,-2.3008 12.49712,-0.58873 17.06538,-0.59914c6.43566,-0.01466 10.25978,-3.15734 16.4219,1.07594c1.62218,1.11441 4.74855,4.00632 7.15672,6.80267c2.11058,2.4508 3.56338,4.79282 4.39393,6.27571c4.01905,7.17573 4.38253,15.98759 4.49587,22.3425c0.08104,4.54409 0.33241,7.98105 0.33241,7.98105l-11.90011,0.15257v75.67247z" fill="#000000" stroke="none" stroke-width="0" stroke-linecap="butt"/><path d="M113.16927,195.21c0,1.21123 -0.97118,3.9535 -2.02443,3.9535c-0.19038,0 -1.84122,-0.67755 -2.0147,-0.73726c-0.78628,-0.27066 -0.88991,-2.28262 -0.88991,-3.27491c0,-1.21123 0.85382,-2.19313 1.90707,-2.19313c1.05324,0 3.02197,1.04057 3.02197,2.25181z" fill="#000000" stroke="#5d0000" stroke-width="3" stroke-linecap="butt"/><path d="M106.86641,196.7475c0,0 -0.43727,-0.36894 -0.06833,-0.80621c0.01947,-0.02308 0.03914,-0.04392 0.05893,-0.06268c0.005,-0.276 0.01963,-0.53913 0.04516,-0.77701l-0.21481,-0.59877c0.29293,-0.95924 0.69495,-1.61833 1.49566,-2.22971c2.19019,-1.62367 6.24518,0.60354 5.47852,3.57539c-0.02677,0.10377 -0.061,0.20352 -0.10197,0.29927c0.0155,0.21404 0.00637,0.41864 -0.00434,0.5709c-0.08994,1.27868 -0.83794,2.50635 -1.24213,3.70138c-0.12803,1.06273 -0.63091,2.0834 -1.91567,1.26494c-0.61697,-0.39304 -0.39509,-1.09135 -0.55709,-1.57363c-0.22162,-0.06708 -0.4486,-0.14832 -0.67027,-0.23762c-0.56507,0.04416 -1.39223,0.12018 -1.79599,-0.39117c-0.24914,-0.31553 -0.44845,-1.52548 -0.50374,-2.73177c-0.00131,-0.00111 -0.00262,-0.00221 -0.00394,-0.00332zM108.3327,193.69078c0.14178,-0.01591 0.52921,-0.01579 0.6337,0.43703c0.12864,0.55747 -0.42882,0.68612 -0.42882,0.68612c-0.25346,-0.00294 -0.42318,0.64757 -0.49378,1.42986c0.20422,0.17232 0.40846,0.34463 0.61268,0.51695c0.82116,-0.10616 1.83752,0.09734 2.63493,-0.03039c0.1054,-0.36937 0.21828,-0.68288 0.34441,-0.87378c0.22743,-0.3442 0.55163,-0.77021 0.95337,-0.81706c-0.12149,-1.6503 -2.45321,-2.81463 -3.71963,-1.85101c-0.21885,0.16029 -0.39332,0.32438 -0.53687,0.50228zM111.06678,200.7555c0.0194,0.02276 0.03746,0.01562 0.05442,-0.03054c-0.01751,0.01113 -0.03568,0.02134 -0.05442,0.03054z" fill="#5d0000" stroke="none" stroke-width="0.5" stroke-linecap="butt"/><g><path d="M120.9316,101.36637c0.32822,-2.12479 2.31677,-3.5812 4.44156,-3.25299c2.12479,0.32822 3.5812,2.31677 3.25298,4.44156c-0.32822,2.12479 -2.31676,3.5812 -4.44156,3.25299c-2.12479,-0.32822 -3.5812,-2.31677 -3.25298,-4.44156z" fill="#000000" stroke="none" stroke-width="1.5" stroke-linecap="butt"/><path d="M134.93808,105.673c1.47229,-4.38744 2.35366,-6.28599 3.78702,-5.86456c1.43334,0.42143 0.84445,3.4102 -0.80162,7.58869c-1.56443,3.97121 -5.69226,6.04831 -5.69226,6.04831c0,0 1.23457,-3.385 2.70687,-7.77243z" data-paper-data="{&quot;index&quot;:null}" fill="#ffffff" stroke="#000000" stroke-width="1" stroke-linecap="butt"/><path d="M135.72274,102.65494c0,0 2.0367,-0.3053 1.36041,1.97014c-1.21232,4.07906 -4.2395,5.86793 -4.2395,5.86793" data-paper-data="{&quot;index&quot;:null}" fill="none" stroke="#000000" stroke-width="0.25" stroke-linecap="round"/><path d="M121.53039,102.35494c0.54971,0.08492 1.09942,0.16983 1.64913,0.25474c1.922,0.29689 3.98985,-0.08824 4.4153,2.01975c-1.06713,2.67525 -2.44508,0.8407 -4.39841,0.96871c-0.57164,0.05124 -1.79845,0.14244 -2.06034,-0.5672c-0.1588,-0.4303 0.47089,-0.63102 0.22391,-0.99052c-0.41589,-0.60536 -0.64196,-0.88051 -0.41082,-1.65783c0,0 0.05547,-0.18245 0.23793,-0.12698c0.08571,0.02607 0.11892,0.08014 0.13004,0.13017l0.07191,-0.05267c0.04711,0.00728 0.09424,0.01456 0.14135,0.02184c0,0 0.18847,0.02912 0.15936,0.21759c-0.02911,0.18847 -0.21759,0.15936 -0.21759,0.15936l-0.1843,-0.14674c-0.00438,0.01696 -0.0084,0.03354 -0.01206,0.04979l-0.10435,-0.14248l0.14567,-0.10668c0.00384,0.01726 0.00504,0.03404 0.00487,0.04901l0.2084,-0.07985z" fill="#000000" stroke="none" stroke-width="0.5" stroke-linecap="butt"/><g><g stroke="none" stroke-linecap="butt"><g><path d="M97.16141,90.59608c-6.05705,-0.93563 -10.45704,-4.99705 -9.82767,-9.07143c0.62937,-4.07438 6.04978,-6.61882 12.10682,-5.68319c6.05704,0.93563 10.45704,4.99705 9.82767,9.07143c-0.62937,4.07438 -6.04979,6.61882 -12.10682,5.68319z" fill="#60323b" stroke-width="NaN"/><path d="M113.88786,77.13584c-0.758,4.9071 -6.28269,8.1266 -12.33973,7.19097c-6.05704,-0.93563 -10.7354,-3.19505 -9.9774,-8.10214c0.32681,-2.11568 1.18003,-4.44465 3.02053,-6.25903c2.42835,-2.39387 6.32281,-4.37202 9.76838,-3.83979c6.05704,0.93563 10.28622,6.1029 9.52822,11.01z" fill="#60323b" stroke-width="NaN"/><path d="M105.32473,64.88839c0.76719,-4.96658 2.97127,-8.63811 14.52434,-7.29457c7.32336,0.85166 12.34692,6.80139 11.57974,11.76798c-0.76719,4.96658 -7.29583,8.08037 -14.58213,6.95485c-7.28631,-1.12551 -12.28914,-6.46166 -11.52195,-11.42824z" fill="#60323b" stroke-width="0"/><path d="M113.67598,66.44762c-0.46785,2.62689 -3.48071,4.17934 -5.86321,3.81131c-2.3825,-0.36803 -2.75854,-4.07277 -2.35122,-6.70971c0.40733,-2.63694 2.66894,-4.47626 5.05144,-4.10824c2.3825,0.36803 3.80935,3.37746 3.16299,7.00665z" fill="#8a5c62" stroke-width="0"/><path d="M114.5803,76.85815c-0.70747,4.57995 -8.71672,11.29297 -14.67587,10.37246c-3.85583,-0.59561 -6.24837,-2.76767 -7.11172,-5.57994c-0.32207,-1.04913 -1.26997,-1.75779 -0.98221,-3.29133c0.13301,-0.70883 0.81897,-1.18479 0.89791,-1.69577c0.70747,-4.57995 6.55219,-11.0913 12.51134,-10.17078c5.95915,0.92051 10.06802,5.78541 9.36055,10.36537z" fill="#8a5c62" stroke-width="0"/></g><path d="M100.53732,78.78855c-2.0818,-0.32158 -3.62041,-2.54633 -3.3027,-5.10282c0.29876,-2.40396 2.18317,-3.94667 4.26497,-3.62509c2.0818,0.32158 3.46964,2.52305 3.09983,4.91712c-0.36981,2.39406 -1.9803,4.13238 -4.06209,3.8108z" fill="#60323b" stroke-width="0"/><path d="M111.78586,78.67359c-5.64167,-0.87148 -9.73516,-4.18556 -9.36535,-6.57964c0.36981,-2.39406 5.70339,-7.1079 11.34506,-6.23643c5.64167,0.87148 9.27487,7.66509 8.90506,10.05916c-0.36981,2.39406 -5.24309,3.62838 -10.88476,2.7569z" fill="#60323b" stroke-width="0"/><path d="M111.82569,79.91477c-5.64167,-0.87148 -9.73516,-4.18556 -9.36535,-6.57964c0.36981,-2.39406 5.70339,-7.1079 11.34506,-6.23643c5.64167,0.87148 9.27487,7.66509 8.90506,10.05916c-0.36981,2.39406 -5.2431,3.62838 -10.88477,2.7569z" fill="#8a5c62" stroke-width="0"/><path d="M100.11441,78.02853c-1.49889,-0.23154 -2.3424,-2.82477 -2.08514,-4.49022c0.25726,-1.66544 1.68091,-2.82785 3.1798,-2.59631c1.49889,0.23154 2.50543,1.76934 2.24817,3.43477c-0.25726,1.66544 -1.84394,3.88329 -3.34283,3.65175z" fill="#8a5c62" stroke-width="0"/></g><path d="M86.68282,84.65299c0.17041,-0.55008 -0.12994,-2.2818 1.50725,-6.57428l1.72144,0.53756c0.77422,2.02074 8.94536,2.56691 11.22498,1.8357c2.96966,-0.95253 4.48353,-3.75537 6.0816,-6.38132c0.20383,-0.33493 0.77006,0.16346 1.16152,0.18542c1.44232,0.08091 3.3534,0.12709 4.67311,-0.37781c3.44304,-1.31725 8.172,-7.04896 8.58663,-10.95792c0.10327,-0.97364 -0.74017,-2.1253 -1.08024,-2.88766c-0.32863,-0.73672 -0.48401,-1.56634 -0.70121,-2.358c32.33378,4.98283 24.09167,31.08382 25.17828,36.46802c1.50834,7.47382 2.6151,13.8347 2.6151,13.8347c0,0 -1.84697,-1.87035 -2.71067,-2.83775c-0.80555,-0.90228 -2.4995,-2.81431 -2.4995,-2.81431c0,0 1.12528,8.16126 -1.42171,15.75432c-2.28188,6.96564 -7.50768,12.13616 -7.50768,12.13616l-0.59755,-1.90416c0,0 -1.02693,1.53791 -2.01654,2.26096c-0.98962,0.72305 -2.93161,1.79542 -2.93161,1.79542l0.36197,-2.80328c0,0 -6.60559,7.48411 -19.62365,5.36019c-12.2633,-2.09151 -18.41178,-11.084 -18.41178,-11.084l-0.39677,1.98791c0,0 -2.55276,-2.93592 -3.52963,-8.03823c-1.16432,-6.08135 -1.01642,-9.60725 -1.01642,-9.60725c0,0 -1.98456,1.15936 -4.63309,1.42582c-3.31875,0.33389 -5.27719,-0.54867 -5.27719,-0.54867c0,0 3.03641,-1.62828 4.76514,-2.94568c1.53981,-1.17343 2.3885,-2.23784 2.3885,-2.23784c0,0 -1.71519,0.5723 -3.37944,0.72683c-1.73645,0.16124 -3.10005,-0.06905 -3.10005,-0.06905c0,0 4.33713,-3.21819 6.56672,-7.37923c2.10509,-3.92869 2.85896,-8.01604 2.85896,-8.01604c0,0 -1.10358,0.34022 -2.60313,0.21163c-0.94896,-0.08137 -1.78416,-0.313 -1.78692,-0.31377c0.00755,-0.0053 5.33617,-3.74712 5.53359,-4.3844z" fill="#000000" stroke="none" stroke-width="1.5" stroke-linecap="butt"/><path d="M92.71429,99.52738c0.41426,-5.56547 2.25025,-12.89351 2.25025,-12.89351c0,0 2.576,0.36608 10.85595,-0.75003c6.36118,-0.85749 16.59515,-4.75948 16.59515,-4.75948c0,0 -1.97838,2.0139 -3.0885,2.96559c-1.18019,1.01175 -3.54159,2.97497 -3.54159,2.97497c0,0 6.10316,-0.34443 11.61384,-1.85644c6.87132,-1.66774 8.69046,-3.32981 10.29798,-1.95426c1.89727,1.62349 -1.92315,17.59707 -2.8053,21.75082c-0.97806,4.22484 -3.01607,6.86667 -3.83303,9.07218c-0.81697,2.20551 -1.02342,4.57861 -3.53111,11.83518c-1.56497,4.52861 -4.17685,6.24352 -9.2608,9.88578c-5.08395,3.64228 -7.90304,5.92118 -10.89631,5.51205c-2.88062,-0.39373 -6.14253,-4.88556 -9.29665,-9.45c-3.35861,-4.8604 -5.70347,-7.4243 -5.56132,-12.54505c0.12802,-4.61177 0.56846,-7.56033 0.92936,-11.62626c0.26377,-2.97168 -0.95413,-5.12215 -0.72791,-8.16156z" fill="#ffffff" stroke="#000000" stroke-width="1.5" stroke-linecap="butt"/><path d="M130.71441,93.72625c0,0 1.1121,0.4173 3.07909,1.33263c1.79662,0.83607 3.1512,1.83294 3.1512,1.83294l0.01079,0.90503c0,0 -0.30758,-0.35072 -3.6237,-1.11256c-0.43484,-0.09991 -1.82107,-1.03156 -2.32987,-1.11309c-0.8923,-0.14299 -3.07142,-0.10587 -4.08635,-0.17666c-2.10521,-0.14681 -3.10805,-1.50616 -4.42737,-1.27301c-1.69071,0.29878 -4.47921,1.01247 -4.47921,1.01247l0.5209,-3.14353c0,0 2.55623,-0.92058 6.14439,-0.48314c3.71552,0.45297 6.03071,1.38794 6.03071,1.38794z" data-paper-data="{&quot;index&quot;:null}" fill="#000000" stroke="none" stroke-width="1.5" stroke-linecap="butt"/><path d="M116.16196,124.64754c0.40534,0.22614 2.16169,1.4141 4.239,2.65848c2.09385,1.25429 5.17122,2.56866 5.13701,2.69271c-0.04344,0.15743 -6.44369,-1.04408 -8.93694,-1.11637c-0.05144,-0.00149 -1.70421,2.27563 -1.83345,2.27101c-2.03495,-0.07272 -4.74059,-2.51795 -4.74059,-2.51795c0,0 -2.30111,-0.89142 -5.62448,-1.62636c-1.26812,-0.28044 -3.27167,0.04849 -4.49023,-0.40438c-0.12352,-0.04591 -7.25282,-3.82157 -7.24996,-3.89332c0.00384,-0.09676 2.99906,-0.08531 5.30706,-0.25673c0.92167,-0.24095 4.27387,-0.48614 4.27387,-0.48614c0,0 3.76848,0.3678 5.66833,1.32251c2.03567,1.02296 1.85282,2.17387 2.03677,2.22043c0,0 1.09659,-1.18086 2.03094,-1.31077c0.93436,-0.1299 3.87988,0.27797 4.18267,0.44689z" fill="#ffffff" stroke="#000000" stroke-width="1.4" stroke-linecap="butt"/><path d="M110.0782,129.71821c0,0 2.76375,1.90161 4.9955,1.8773c0.30212,-0.00329 1.34333,-2.28843 1.58603,-2.27657c0.59262,0.02894 1.56275,-0.38875 3.01913,-0.23965c2.42184,0.24794 5.51496,1.12061 5.50869,1.29932c-0.00981,0.27981 -8.31077,8.67367 -17.39275,6.92096c-10.32992,-1.93204 -15.47471,-14.07316 -15.42649,-14.19626c0.02344,-0.05984 2.85153,0.2556 4.80961,1.25545c1.8591,0.94931 2.85123,2.58322 2.94592,2.61803c0,0 2.92325,-0.15234 4.45508,0.26952c1.75567,0.48351 5.49928,2.47191 5.49928,2.47191z" fill="#ffffff" stroke="#000000" stroke-width="1.9" stroke-linecap="butt"/><path d="M110.1189,124.92991c-0.77933,-0.12038 -2.28764,-2.87001 -2.23013,-4.48459c0.05146,-1.44461 1.43724,-2.73271 3.30052,-2.44489c1.8633,0.28782 3.11076,0.85933 2.55038,3.62698c-0.47557,2.34882 -1.7575,3.59034 -3.62079,3.30252z" fill="#ffffff" stroke="#000000" stroke-width="1.15" stroke-linecap="butt"/><path d="M116.33899,102.66215c0,0 -0.38495,3.00469 -0.82558,5.37333c-0.87251,4.69031 -4.04813,20.80246 -4.04813,20.80246l-2.24885,-0.34072c0,0 -0.11939,-3.23927 0.25951,-7.29256c0.51287,-5.48648 1.55852,-12.33557 1.71069,-14.88942c0.14425,-2.4208 -0.00995,-4.41244 -0.00995,-4.41244" fill="#ffffff" stroke="#000000" stroke-width="1.3" stroke-linecap="round"/><path d="M92.81675,107.35706c0,0 -3.30868,-3.22581 -3.60191,-7.48398c-0.30853,-4.48041 0.03185,-7.50759 1.52556,-7.47686c1.4937,0.0307 1.76112,2.10672 1.84092,6.73391c0.0798,4.62719 0.23544,8.22694 0.23544,8.22694z" data-paper-data="{&quot;index&quot;:null}" fill="#ffffff" stroke="#000000" stroke-width="1" stroke-linecap="butt"/><path d="M93.12373,104.35746c0,0 -2.3463,-2.61892 -2.2713,-6.87365c0.04183,-2.37344 1.89148,-1.46782 1.89148,-1.46782" fill="none" stroke="#000000" stroke-width="0.25" stroke-linecap="round"/><path d="M96.17059,99.76687c0.62315,-3.67967 4.68819,-6.17336 8.72977,-5.48892c4.04157,0.68443 6.31077,4.25406 5.68763,7.93372c-0.46671,2.75591 -2.12277,6.07616 -4.96749,6.93727c-0.95352,0.28864 -2.64999,-0.30843 -3.66459,-0.48025c-0.9202,-0.15583 -2.00617,-1.29913 -2.77385,-1.71945c-2.60406,-1.42577 -3.49273,-4.3405 -3.01147,-7.18237z" fill="#ffffff" stroke="#000000" stroke-width="1.4" stroke-linecap="butt"/><path d="M99.74029,98.00076c0.35137,-2.07488 2.31824,-3.47204 4.39311,-3.12067c2.07488,0.35137 3.47204,2.31823 3.12067,4.39311c-0.35137,2.07488 -2.31822,3.47205 -4.39311,3.12067c-2.07488,-0.35137 -3.47204,-2.31824 -3.12067,-4.39311z" fill="#000000" stroke="none" stroke-width="1.5" stroke-linecap="butt"/><path d="M116.72041,102.84193c0.72268,-3.66143 4.38838,-6.15975 8.39742,-5.54048c4.00904,0.61928 6.53008,4.07001 5.96034,7.75832c-0.37232,2.41029 -1.73217,5.37485 -3.85533,6.96588c-1.12577,0.84362 -2.46615,1.30107 -3.98772,1.08498c-1.5631,-0.22198 -4.34895,-2.46186 -5.36996,-3.37376c-1.70725,-1.52482 -1.61704,-4.50214 -1.14476,-6.89494z" fill="#ffffff" stroke="#000000" stroke-width="1.4" stroke-linecap="butt"/><path d="M99.8554,91.68713c0,0 2.75214,-0.97891 6.32127,-0.7848c3.95504,0.21509 5.86408,0.85466 5.86408,0.85466l-0.25937,3.15354c0,0 -0.53562,0.29911 -1.61505,0.01734c-1.10267,-0.28783 -2.76618,-1.15859 -4.36888,-1.34393c-0.73418,-0.08491 -1.52186,0.32645 -2.0871,0.30711c-2.70036,-0.09242 -3.65344,-0.02658 -6.34879,-0.15044c-2.79295,-0.12835 -5.0976,-0.66483 -5.0976,-0.66483l0.12391,-0.93147c0,0 2.70173,0.47444 3.95358,0.55795c1.03323,0.06891 3.10646,-0.24422 3.10646,-0.24422z" fill="#000000" stroke="none" stroke-width="1.5" stroke-linecap="butt"/><path d="M99.41619,99.03991c0.02911,-0.18847 0.21759,-0.15936 0.21759,-0.15936l0.05399,0.02871c1.34629,-0.40254 3.11105,0.15477 4.38231,0.59674c0.88943,0.30944 2.73183,0.23417 3.44164,0.80727c0.75634,0.61067 -0.56442,1.53846 -0.96041,1.67383c-0.50844,0.36709 -1.83793,1.33477 -2.45953,1.38928c-0.63151,0.05537 -1.05759,-1.02786 -1.71736,-1.20006c-1.31913,-0.34588 -5.02261,-1.08968 -2.72305,-2.91386l-0.07583,-0.00496c0,0 -0.18847,-0.02912 -0.15935,-0.21759z" fill="#000000" stroke="none" stroke-width="0.5" stroke-linecap="butt"/><path d="M117.04208,70.25463l0.45532,-0.39797c0.87314,-0.86769 1.27486,-1.84465 2.46686,-2.34321c0,0 0.05712,-0.02285 0.1414,-0.03483c0.22687,-0.48456 0.39926,-0.99632 0.50665,-1.53633c0.22337,-1.21438 0.9956,-2.39474 0.87283,-3.65048c-0.1545,-1.58022 -1.4867,-2.75618 -1.73864,-4.35481c-0.02452,-0.0911 -0.02452,-0.16118 -0.02452,-0.16118l0.003,-0.00031c-0.00005,-0.00048 -0.00011,-0.00096 -0.00015,-0.00145l0.01423,0.00002l1.12433,-0.11388c0.14852,1.67157 1.5899,2.84091 1.76043,4.51884c0.1441,1.4179 -0.64422,2.62188 -0.88755,3.97779c-0.97458,4.84848 -6.45748,7.75739 -10.77402,9.02916c-0.78561,-0.06908 -1.9693,-0.69248 -2.72987,-0.4849c-1.51278,0.41288 -1.92965,2.86928 -2.73688,3.95532c-1.21052,1.62861 -3.49182,2.53781 -5.36059,3.09809c-2.59247,0.02086 -6.77452,-0.35294 -9.09151,-1.64215c-1.34281,-0.74716 -1.3346,-1.33907 -2.91357,-1.52408c0,0 -0.5682,-0.06685 -0.50135,-0.63505c0.06685,-0.5682 0.63505,-0.50135 0.63505,-0.50135c1.69168,0.19978 1.91184,0.86283 3.30641,1.64459c2.1093,1.18241 6.01441,1.50369 8.39485,1.52652c1.56283,-0.49612 3.60637,-1.26871 4.61484,-2.65245c1.02984,-1.41306 1.37921,-3.86396 3.36574,-4.3771c0.95823,-0.24752 1.96957,0.34056 2.90332,0.45397c1.95367,-0.63294 4.24787,-1.60501 6.13469,-2.99111c-0.36809,-0.42821 0.05872,-0.80166 0.05872,-0.80166z" fill="#b60000" stroke="none" stroke-width="0.5" stroke-linecap="butt"/><path d="M96.18096,99.28141c0,0 1.09776,-6.78897 9.01972,-5.41844c7.12075,1.22797 6.10829,8.20476 6.10829,8.20476z" fill="#ffffff" stroke="#000000" stroke-width="1.15" stroke-linecap="butt"/><path d="M116.32996,102.49488c0,0 0.91534,-7.15915 9.50221,-5.55872c7.28462,1.38266 6.07314,8.38848 6.07314,8.38848z" fill="#ffffff" stroke="#000000" stroke-width="1.15" stroke-linecap="butt"/><path d="M86.73254,105.10126l1.47256,-10.80858l52.30446,7.12598l-1.47256,10.80858z" fill="#000000" stroke="#000000" stroke-width="1" stroke-linecap="butt"/><path d="M90.04968,78.27736c0,0 0.5738,0.40297 1.06603,-0.33159c0.89967,-1.34259 2.90067,-6.61014 2.90067,-6.61014l4.50068,-4.4244l6.33147,-0.76283l2.6699,-5.95005l2.82246,-2.13592" fill="none" stroke="#000000" stroke-width="1.9" stroke-linecap="round"/><path d="M110.7223,57.75731l6.48403,-0.30513l3.73785,0.68654" fill="none" stroke="#000000" stroke-width="1.9" stroke-linecap="round"/></g></g></g></g></svg>