<svg version="1.1" xmlns="http://www.w3.org/2000/svg" xmlns:xlink="http://www.w3.org/1999/xlink" width="492" height="367.57853" viewBox="0,0,492,367.57853"><defs><linearGradient x1="240.5" y1="332" x2="240.5" y2="365" gradientUnits="userSpaceOnUse" id="color-1"><stop offset="0" stop-color="#ffffff"/><stop offset="1" stop-color="#ffffff" stop-opacity="0"/></linearGradient><linearGradient x1="240.89463" y1="-2" x2="240.89463" y2="32.69503" gradientUnits="userSpaceOnUse" id="color-2"><stop offset="0" stop-color="#ffffff" stop-opacity="0"/><stop offset="1" stop-color="#ffffff"/></linearGradient><linearGradient x1="-3.5" y1="180.23215" x2="29.5" y2="180.23215" gradientUnits="userSpaceOnUse" id="color-3"><stop offset="0" stop-color="#ffffff" stop-opacity="0"/><stop offset="1" stop-color="#ffffff"/></linearGradient><linearGradient x1="451.40985" y1="179.71073" x2="484.40985" y2="179.71073" gradientUnits="userSpaceOnUse" id="color-4"><stop offset="0" stop-color="#ffffff"/><stop offset="1" stop-color="#ffffff" stop-opacity="0"/></linearGradient><linearGradient x1="417.58064" y1="39.24387" x2="442.76428" y2="39.24387" gradientUnits="userSpaceOnUse" id="color-5"><stop offset="0" stop-color="#000000"/><stop offset="1" stop-color="#000000" stop-opacity="0"/></linearGradient><linearGradient x1="417.58064" y1="45.61947" x2="442.76428" y2="45.61947" gradientUnits="userSpaceOnUse" id="color-6"><stop offset="0" stop-color="#000000"/><stop offset="1" stop-color="#000000" stop-opacity="0"/></linearGradient><linearGradient x1="106.9927" y1="132.0354" x2="106.9927" y2="240.4113" gradientUnits="userSpaceOnUse" id="color-7"><stop offset="0" stop-color="#670000"/><stop offset="1" stop-color="#ff0000"/></linearGradient><linearGradient x1="97.41367" y1="103.70518" x2="97.41367" y2="113.34461" gradientUnits="userSpaceOnUse" id="color-8"><stop offset="0" stop-color="#ffffff"/><stop offset="1" stop-color="#ffffff" stop-opacity="0"/></linearGradient><linearGradient x1="116.6825" y1="103.69514" x2="116.6825" y2="113.33457" gradientUnits="userSpaceOnUse" id="color-9"><stop offset="0" stop-color="#ffffff"/><stop offset="1" stop-color="#ffffff" stop-opacity="0"/></linearGradient><linearGradient x1="101.20978" y1="154.9573" x2="107.52644" y2="154.9573" gradientUnits="userSpaceOnUse" id="color-10"><stop offset="0" stop-color="#000000"/><stop offset="1" stop-color="#ffffff"/></linearGradient><linearGradient x1="101.20978" y1="156.55645" x2="107.52644" y2="156.55645" gradientUnits="userSpaceOnUse" id="color-11"><stop offset="0" stop-color="#000000"/><stop offset="1" stop-color="#ffffff"/></linearGradient></defs><g transform="translate(5.5,2.57853)"><g data-paper-data="{&quot;isPaintingLayer&quot;:true}" fill-rule="nonzero" stroke-linejoin="miter" stroke-miterlimit="10" stroke-dasharray="" stroke-dashoffset="0" style="mix-blend-mode: normal"><path d="M-5.5,365l33,-33h424l35,33z" fill="url(#color-1)" stroke="none" stroke-width="0" stroke-linecap="butt"/><path d="M485.5,-2l-37,33l-418.21073,1.69503l-34,-33.48429z" data-paper-data="{&quot;index&quot;:null}" fill="url(#color-2)" stroke="none" stroke-width="0" stroke-linecap="butt"/><path d="M-3.5,-2l33,33v299.46429l-33,32z" fill="url(#color-3)" stroke="none" stroke-width="0" stroke-linecap="butt"/><path d="M484.40985,362l-33,-30v-303.90576l33,-30.67277z" data-paper-data="{&quot;index&quot;:null}" fill="url(#color-4)" stroke="none" stroke-width="0" stroke-linecap="butt"/><path d="M28,331.5v-303h424v303z" fill="#ffffff" stroke="#000000" stroke-width="5" stroke-linecap="butt"/><path d="M34.75,325.0005v-72.50051h142.5v72.50051z" fill="#000000" stroke="none" stroke-width="0" stroke-linecap="butt"/><text transform="translate(40.5,269.7425) scale(0.37277,0.33334)" font-size="40" xml:space="preserve" fill="#ffffff" fill-rule="nonzero" stroke="none" stroke-width="1" stroke-linecap="butt" stroke-linejoin="miter" stroke-miterlimit="10" stroke-dasharray="" stroke-dashoffset="0" font-family="Serif" font-weight="normal" text-anchor="start" style="mix-blend-mode: normal"><tspan x="0" dy="0">Name: Agent Alder</tspan><tspan x="0" dy="46.150000000000006px">Age: 37</tspan><tspan x="0" dy="46.150000000000006px">Status: Alive</tspan><tspan x="0" dy="46.150000000000006px">Role: Spy</tspan></text><path d="M194.25,59v-19.5h117.84467v19.5z" fill="#000000" stroke="none" stroke-width="0" stroke-linecap="butt"/><text transform="translate(199.22954,53.9009) scale(0.42192,0.42192)" font-size="40" xml:space="preserve" fill="#ffffff" fill-rule="nonzero" stroke="none" stroke-width="1" stroke-linecap="butt" stroke-linejoin="miter" stroke-miterlimit="10" stroke-dasharray="" stroke-dashoffset="0" font-family="Serif" font-weight="normal" text-anchor="start" style="mix-blend-mode: normal"><tspan x="0" dy="0">Documentation:</tspan></text><path d="M429.07853,298.09424h-241v-236.31414" fill="none" stroke="#000000" stroke-width="5" stroke-linecap="round"/><path d="M37.83201,243v-205h136.5312v205z" fill="#174752" stroke="#151515" stroke-width="6.5" stroke-linecap="butt"/><path d="M37.83201,243v-205h136.5312v205z" fill="#ffffff" stroke="#151515" stroke-width="6.5" stroke-linecap="butt"/><text transform="translate(349.55711,323.11998) scale(0.35959,0.35959)" font-size="40" xml:space="preserve" fill="#000000" fill-rule="nonzero" stroke="none" stroke-width="1" stroke-linecap="butt" stroke-linejoin="miter" stroke-miterlimit="10" stroke-dasharray="" stroke-dashoffset="0" font-family="Serif" font-weight="normal" text-anchor="start" style="mix-blend-mode: normal"><tspan x="0" dy="0">Click this to exit</tspan></text><text transform="translate(194.75,96.96134) scale(0.40625,0.40625)" font-size="40" xml:space="preserve" fill="#000000" fill-rule="nonzero" stroke="none" stroke-width="1" stroke-linecap="butt" stroke-linejoin="miter" stroke-miterlimit="10" stroke-dasharray="" stroke-dashoffset="0" font-family="Serif" font-weight="normal" text-anchor="start" style="mix-blend-mode: normal"><tspan x="0" dy="0">Solomon Alder is currently employed</tspan><tspan x="0" dy="48px">with us as a spy. His main role is to</tspan><tspan x="0" dy="48px">find out about the rebels and what</tspan><tspan x="0" dy="48px">their plans are. We do our research to</tspan><tspan x="0" dy="48px">expand our knowledge about human</tspan><tspan x="0" dy="48px">life as we know it, and yet they cannot</tspan><tspan x="0" dy="48px">see that. Agent Alder occasionally</tspan><tspan x="0" dy="48px">enters containment chambers to</tspan><tspan x="0" dy="48px">interrogate our pre-rebel captives.</tspan></text><g><path d="M376.458,50.08239l65.9875,-0.31878" fill="none" stroke="#000000" stroke-width="3" stroke-linecap="round"/><g stroke="none" stroke-linecap="butt"><g fill="#000000" stroke-width="1" font-weight="normal" font-size="40" text-anchor="start"><text transform="translate(376.45799,48.48849) scale(0.33457,0.33457)" font-size="40" xml:space="preserve" fill="#000000" fill-rule="nonzero" stroke="none" stroke-width="1" stroke-linecap="butt" stroke-linejoin="miter" stroke-miterlimit="10" stroke-dasharray="" stroke-dashoffset="0" font-family="Pixel" font-weight="normal" text-anchor="start" style="mix-blend-mode: normal"><tspan x="0" dy="0">DONK</tspan></text><text transform="translate(375.65959,62.03519) scale(0.33457,0.33457)" font-size="40" xml:space="preserve" fill="#000000" fill-rule="nonzero" stroke="none" stroke-width="1" stroke-linecap="butt" stroke-linejoin="miter" stroke-miterlimit="10" stroke-dasharray="" stroke-dashoffset="0" font-family="Sans Serif" font-weight="normal" text-anchor="start" style="mix-blend-mode: normal"><tspan x="0" dy="0">Industries</tspan></text></g><path d="M417.58064,41.15655v-3.82536h25.18364v3.82536z" fill="url(#color-5)" stroke-width="0"/><path d="M417.58064,47.47902v-3.7191h25.18364v3.7191z" fill="url(#color-6)" stroke-width="0"/></g></g><path d="M76.45291,90.51182c-0.45619,-0.87071 -1.44695,0.89769 -1.44695,0.89769c0,0 -0.32049,-2.34702 0.71599,-5.13828c1.35156,-3.63978 4.43928,-8.24914 7.73467,-11.57706c5.75676,-5.81359 14.46207,-8.81189 21.85864,-9.09859c13.27443,-0.2717 21.82516,5.19192 26.21301,11.13838c6.39744,8.66987 3.46223,19.89591 4.55314,22.86236c2.52175,6.85723 4.70429,13.22896 4.70429,13.22896c0,0 -3.6539,0.43592 -4.61335,-0.35388c-0.89487,-0.73664 0.50024,0.4732 -0.80105,8.03659c-0.34661,2.10348 -2.06093,5.94765 -4.63417,8.71699c-1.86412,2.00618 -5.6936,9.93495 -5.93567,11.83058c-2.63738,-1.72368 -3.9061,-4.99867 -5.54441,-4.10118c-4.44576,2.43544 -9.25391,4.06715 -13.65575,4.02988c-7.7511,-0.12144 -10.96843,-5.50672 -14.38951,-8.49809c-0.12841,-0.11229 -3.78147,0.28761 -3.95478,0.12636c-1.25389,-1.16664 -1.93691,-1.77644 -1.93691,-1.77644l-0.69662,1.53285c0,0 -2.84701,0.34562 -4.51853,-4.34347c-1.99226,-5.58885 -0.53294,-8.9496 -0.53294,-8.9496c0,0 -0.64343,5.90435 -1.2664,4.96342c-0.28754,-0.43429 -1.82194,-1.7887 -2.32552,-3.93795c-0.70775,-3.0207 -0.37359,-7.01486 -0.37359,-7.01486c0,0 -0.87867,0.60457 -1.38143,0.83383c-0.60443,0.27563 -1.99663,0.70658 -1.99663,0.70658c0,0 0.41503,-1.10837 1.2553,-3.00705c0.57874,-1.30773 1.36408,-4.94383 1.36408,-4.94383c0,0 -0.65056,0.35663 -1.01265,0.44164c-0.41889,0.09834 -1.3552,0.11427 -1.3552,0.11427c0,0 1.73572,-3.30263 2.827,-6.9918c1.33033,-4.49729 1.33622,-9.3651 1.14592,-9.72832z" fill="#000000" stroke="none" stroke-width="1.5" stroke-linecap="butt"/><path d="M74.62093,240.40988v-177.01508h63.74013v177.01508z" fill-opacity="0.01" fill="#000000" stroke="none" stroke-width="0" stroke-linecap="butt"/><path d="M79.51441,238.85735c0,0 -0.44414,-65.97835 -0.55459,-82.49542c-0.0381,-5.69902 5.72298,-25.69771 28.10292,-25.80942c22.09139,-0.11027 27.86155,20.6127 27.85604,25.79239c-0.05354,32.32565 0.45738,82.47758 0.45738,82.47758l-7.33762,0.06721l-0.11102,-80.28023c0,0 0.05277,-2.16654 -1.96868,-2.20489c-2.4008,-0.04554 -2.05895,2.17795 -2.05895,2.17795l0.14364,80.29899l-33.7034,0.05048l-0.21348,-80.55284c0,0 0.19538,-2.04051 -2.01716,-2.05129c-2.1746,-0.01059 -1.96829,2.03351 -1.96829,2.03351l0.24684,80.4366z" fill="#ffffff" stroke="#000000" stroke-width="2" stroke-linecap="butt"/><path d="M116.80385,166.11651c-0.39924,0 -0.72289,-0.32365 -0.72289,-0.72289c0,-0.39924 0.32365,-0.7229 0.72289,-0.7229c0.39924,0 0.72289,0.32366 0.72289,0.7229c0,0.39924 -0.32365,0.72289 -0.72289,0.72289z" fill="#000000" stroke="none" stroke-width="1.5" stroke-linecap="butt"/><path d="M113.12698,169.07737c-3.12018,-0.21977 -4.58044,-1.25403 -4.31299,-1.80361c0.0824,-0.16934 1.98979,0.74347 4.87259,0.91211c4.48014,0.26209 5.94908,-0.44161 5.94908,-0.44161v0.94102c0,0 -1.68714,0.7317 -6.50869,0.39209z" fill="#000000" stroke="#000000" stroke-width="0" stroke-linecap="butt"/><path d="M93.68467,165.39363c0,-0.39924 0.32365,-0.7229 0.72289,-0.7229c0.39924,0 0.7229,0.32366 0.7229,0.7229c0,0.39924 -0.32366,0.72289 -0.7229,0.72289c-0.39924,0 -0.72289,-0.32365 -0.72289,-0.72289z" fill="#000000" stroke="none" stroke-width="1.5" stroke-linecap="butt"/><path d="M98.08445,169.07737c-4.82155,0.33963 -6.50869,-0.39209 -6.50869,-0.39209v-0.94102c0,0 1.46894,0.7037 5.94908,0.44161c2.8828,-0.16865 4.7902,-1.08145 4.8726,-0.91211c0.26745,0.54957 -1.1928,1.58383 -4.31299,1.80361z" fill="#000000" stroke="#000000" stroke-width="0" stroke-linecap="butt"/><path d="M106.84629,208.60945c-0.57248,0 -1.03657,-0.46409 -1.03657,-1.03657c0,-0.57248 0.46409,-1.03657 1.03657,-1.03657c0.57248,0 1.03657,0.46409 1.03657,1.03657c0,0.57248 -0.46409,1.03657 -1.03657,1.03657z" data-paper-data="{&quot;index&quot;:null}" fill="#000000" stroke="none" stroke-width="1.5" stroke-linecap="butt"/><path d="M89.14872,239.74376v-83.32691c0,0 0.60699,81.25974 -0.96662,82.56062c-2.79313,2.30906 -8.24909,1.37953 -9.72563,0.32554c-1.10558,-0.78918 0.26767,-88.94149 0.26767,-90.05262c0,-3.14429 6.04302,-9.12978 6.04302,-9.12978c0,0 6.25024,-5.15007 7.6361,-6.12531c1.38586,-0.97523 3.61543,-1.95991 3.61543,-1.95991c0,0 0.01761,15.76954 10.61588,15.72036c10.78956,-0.05007 9.23068,-15.72036 9.23068,-15.72036c0,0 2.73519,1.06226 4.31019,2.05976c1.57501,0.9975 8.14282,5.14914 8.14282,5.14914c0,0 9.00739,6.90913 7.46301,9.32986c-0.58155,0.91156 -0.10552,90.37763 -0.10552,91.28928c0,1.55892 -11.71793,-1.84334 -11.59679,0.17768c0.14188,2.36699 -0.58042,-83.27138 -0.58042,-83.27138v82.97403z" fill="url(#color-7)" stroke="#000000" stroke-width="2" stroke-linecap="butt"/><path d="M87.68091,106.60557c-0.40341,-5.09828 0.23418,-11.99171 0.23418,-11.99171c0,0 2.38415,-0.02883 9.72668,-2.19796c5.64099,-1.66648 14.36345,-6.63197 14.36345,-6.63197c0,0 -1.50997,2.10064 -2.3822,3.11783c-0.92729,1.08139 -2.79122,3.18971 -2.79122,3.18971c0,0 5.4791,-1.16573 10.25828,-3.30599c5.98966,-2.47164 7.40462,-4.23137 9.0529,-3.21049c1.94537,1.20488 0.72006,16.2057 0.50223,20.09092c-0.29474,3.96303 -1.77086,6.64069 -2.2022,8.75238c-0.43134,2.1117 -0.28633,4.28976 -1.54224,11.21243c-0.78377,4.32023 -2.9093,6.23872 -7.004,10.24853c-4.09471,4.00982 -6.32898,6.46807 -9.09705,6.51629c-2.66389,0.04641 -6.2464,-3.56526 -9.74145,-7.25777c-3.72165,-3.93193 -6.20393,-5.92588 -6.79156,-10.58333c-0.52922,-4.19453 -0.54283,-6.92648 -0.78479,-10.65925c-0.17684,-2.72817 -1.58067,-4.50536 -1.80099,-7.28962z" fill="#ffffff" stroke="#000000" stroke-width="1.5" stroke-linecap="butt"/><path d="M121.2839,96.0358c0,0 1.06554,0.22234 2.97499,0.77614c1.74406,0.50583 3.11029,1.21915 3.11029,1.21915l0.13638,0.81812c0,0 -5.0678,-2.18798 -10.56659,-1.72705c-4.3967,0.36856 -6.96469,1.96599 -6.96469,1.96599l0.03198,-2.91978c0,0 2.18624,-1.19132 5.49703,-1.29712c3.4283,-0.10955 5.65584,0.41331 5.65584,0.41331z" data-paper-data="{&quot;index&quot;:null}" fill="#000000" stroke="none" stroke-width="1.5" stroke-linecap="butt"/><path d="M112.36122,126.08593c0.39873,0.1481 2.15555,0.97825 4.21093,1.81462c2.07175,0.84302 5.04263,1.60286 5.029,1.71999c-0.01731,0.14865 -7.29435,0.15864 -9.56246,0.44196c-1.90071,0.23742 -4.67567,0.49327 -4.67567,0.49327c0,0 -4.96601,-0.81207 -9.27794,-1.70931c-3.45586,-0.7191 -7.26955,-1.16117 -7.277,-1.22655c-0.01006,-0.08817 2.70414,-0.49682 4.77039,-0.97493c0.801,-0.34715 3.80259,-1.03817 3.80259,-1.03817c0,0 3.46435,-0.1941 5.3185,0.40475c1.9867,0.64166 1.98211,1.70955 2.15522,1.72598c0,0 0.82792,-1.22285 1.65593,-1.47121c0.82802,-0.24836 3.55267,-0.29103 3.85052,-0.18041z" fill="#ffffff" stroke="#000000" stroke-width="1.4" stroke-linecap="butt"/><path d="M99.32548,129.26908c3.55892,0.71774 8.33088,1.96246 8.33088,1.96246c0,0 4.04729,-1.08761 5.90466,-1.28232c1.43997,-0.15097 7.84046,-0.4939 7.8714,-0.23332c0.03025,0.25478 -6.31319,9.01788 -14.78341,8.70108c-9.6255,-0.30463 -15.98332,-10.58042 -15.95687,-10.69865c0.02645,-0.11823 5.07442,0.83301 8.63334,1.55076z" fill="#ffffff" stroke="#000000" stroke-width="1.9" stroke-linecap="butt"/><path d="M106.99697,127.17638c-0.72264,0 -2.47328,-2.27917 -2.64706,-3.74945c-0.15549,-1.3155 0.91932,-2.67593 2.64706,-2.67593c1.72775,0 2.93745,0.34307 2.81713,2.92796c-0.10211,2.19372 -1.0894,3.49743 -2.81713,3.49743z" fill="#ffffff" stroke="#000000" stroke-width="1.15" stroke-linecap="butt"/><path d="M88.86904,113.68214c0,0 -3.44776,-2.45857 -4.30902,-6.27392c-0.90621,-4.01449 -1.02143,-6.80364 0.33563,-6.98478c1.35706,-0.18116 1.88966,1.66157 2.60926,5.84098c0.71959,4.17942 1.36413,7.41773 1.36413,7.41773z" data-paper-data="{&quot;index&quot;:null}" fill="#ffffff" stroke="#000000" stroke-width="1" stroke-linecap="butt"/><path d="M88.72741,110.92262c0,0 -2.49128,-2.04357 -3.01858,-5.90734c-0.29415,-2.15534 1.50766,-1.59393 1.50766,-1.59393l-2.72843,-1.90696" fill="none" stroke="#000000" stroke-width="2" stroke-linecap="round"/><path d="M90.83392,106.26987c0.04958,-3.41963 3.38221,-6.24671 7.13818,-6.19226c3.75597,0.05446 6.31043,2.96981 6.26085,6.38945c-0.04958,3.41963 -2.88252,6.14765 -6.63849,6.09321c-3.75597,-0.05446 -6.81012,-2.87076 -6.76054,-6.2904z" fill="#ffffff" stroke="#000000" stroke-width="1.4" stroke-linecap="butt"/><path d="M93.93602,106.35231c0.02795,-1.92826 1.61377,-3.46874 3.54202,-3.44079c1.92826,0.02795 3.46874,1.61377 3.44079,3.54202c-0.02795,1.92826 -1.61377,3.46874 -3.54202,3.44079c-1.92826,-0.02795 -3.46874,-1.61377 -3.44079,-3.54202z" fill="#000000" stroke="none" stroke-width="1.5" stroke-linecap="butt"/><path d="M109.74741,106.27038c0.14228,-3.41704 3.11259,-6.19245 6.82998,-6.19245c3.71739,0 6.48329,2.77245 6.48329,6.19245c0,3.42 -2.71637,6.34104 -6.78046,6.39056c-3.86568,0.04711 -6.68139,-2.82198 -6.53281,-6.39056z" fill="#ffffff" stroke="#000000" stroke-width="1.4" stroke-linecap="butt"/><path d="M112.96493,106.33018c0,-1.97022 1.59717,-3.56739 3.56739,-3.56739c1.97022,0 3.56739,1.59717 3.56739,3.56739c0,1.97022 -1.59717,3.56739 -3.56739,3.56739c-1.97022,0 -3.56739,-1.59717 -3.56739,-3.56739z" fill="#000000" stroke="none" stroke-width="1.5" stroke-linecap="butt"/><path d="M90.78609,105.89785c0,0 0.04444,-6.30195 7.41063,-6.16898c6.62064,0.11594 6.67973,6.57605 6.67973,6.57605z" fill="#ffffff" stroke="#000000" stroke-width="1.15" stroke-linecap="butt"/><path d="M109.48342,105.98935c0,0 -0.17257,-6.61168 7.82797,-6.36352c6.79069,0.23311 6.6736,6.74736 6.6736,6.74736z" fill="#ffffff" stroke="#000000" stroke-width="1.15" stroke-linecap="butt"/><path d="M93.25359,98.89927c0,0 2.35551,-1.27156 5.61502,-1.59506c3.61194,-0.35849 5.43032,-0.04633 5.43032,-0.04633l0.20627,2.89227c0,0 -2.68121,-0.4758 -5.60489,-0.36429c-3.91007,0.14913 -4.64505,1.00168 -7.61798,1.32202c-2.54737,0.27449 -4.70961,0.11104 -4.70961,0.11104l-0.0181,-0.86091c0,0 2.51318,0.05172 3.65859,-0.04779c0.94538,-0.08213 2.77918,-0.65576 2.77918,-0.65576z" fill="#000000" stroke="none" stroke-width="1.5" stroke-linecap="butt"/><path d="M126.78033,106.26441c0.71959,-4.17942 1.2522,-6.02213 2.60926,-5.84098c1.35706,0.18115 1.24184,2.9703 0.33563,6.98478c-0.86126,3.81535 -4.30902,6.27392 -4.30902,6.27392c0,0 0.64454,-3.23831 1.36413,-7.41773z" data-paper-data="{&quot;index&quot;:null}" fill="#ffffff" stroke="#000000" stroke-width="1" stroke-linecap="butt"/><path d="M109.51498,106.13958c0,0 0.07172,2.77503 0.00403,4.98181c-0.13403,4.36981 -0.75599,19.40591 -0.75599,19.40591l-2.08431,0.00604c0,0 -0.56129,-2.91692 -0.78518,-6.64076c-0.30306,-5.04054 -0.31422,-11.38965 -0.53368,-13.72381c-0.20802,-2.21256 -0.62629,-3.9947 -0.62629,-3.9947z" fill="#ffffff" stroke="#000000" stroke-width="2" stroke-linecap="round"/><path d="M89.30779,103.70518h16.21178l-1.31447,9.63943h-14.45915z" fill="url(#color-8)" stroke="#000000" stroke-width="2" stroke-linecap="round"/><path d="M108.57662,103.69514h16.21178l-1.31447,9.63943h-14.45915z" fill="url(#color-9)" stroke="#000000" stroke-width="2" stroke-linecap="round"/><path d="M124.36028,105.4578l3.50524,-4.81972l-0.7968,2.78328c0,0 1.80181,-0.56142 1.50766,1.59393c-0.52729,3.86377 -3.01858,5.90734 -3.01858,5.90734" fill="none" stroke="#000000" stroke-width="2" stroke-linecap="round"/><g stroke="#ffffff" stroke-width="0" stroke-linecap="butt"><g fill="#ffffff" font-weight="normal" font-size="40" text-anchor="start"><text transform="translate(90.89524,157.27607) scale(0.08392,0.08392)" font-size="40" xml:space="preserve" fill="#ffffff" fill-rule="nonzero" stroke="#ffffff" stroke-width="0" stroke-linecap="butt" stroke-linejoin="miter" stroke-miterlimit="10" stroke-dasharray="" stroke-dashoffset="0" font-family="Pixel" font-weight="normal" text-anchor="start" style="mix-blend-mode: normal"><tspan x="0" dy="0">DONK</tspan></text><text transform="translate(90.69499,160.67391) scale(0.08392,0.08392)" font-size="40" xml:space="preserve" fill="#ffffff" fill-rule="nonzero" stroke="#ffffff" stroke-width="0" stroke-linecap="butt" stroke-linejoin="miter" stroke-miterlimit="10" stroke-dasharray="" stroke-dashoffset="0" font-family="Sans Serif" font-weight="normal" text-anchor="start" style="mix-blend-mode: normal"><tspan x="0" dy="0">Industries</tspan></text></g><path d="M101.20978,155.43705v-0.95949h6.31665v0.95949z" fill="url(#color-10)"/><path d="M101.20978,157.02288v-0.93284h6.31665v0.93284z" fill="url(#color-11)"/></g><path d="M89.01566,236.80323c0.4801,1.68037 -1.20026,2.16048 -1.20026,2.16048l-2.001,0.56749c-2.2344,0.32378 -4.01766,0.59292 -6.26773,0.2902c0,0 -1.73004,-0.24715 -1.48289,-1.97719c0.24715,-1.73004 1.97719,-1.48289 1.97719,-1.48289c1.82202,0.28002 3.22542,0.00717 5.04448,-0.24847l1.76975,-0.50987c0,0 1.68037,-0.48011 2.16047,1.20026z" fill="#670000" stroke="none" stroke-width="0.5" stroke-linecap="butt"/><path d="M136.48646,238.89936c0,1.74761 -1.74761,1.74761 -1.74761,1.74761l-0.02219,-0.01757c-4.15675,0.58463 -6.92965,0.46916 -10.25411,-2.27287c0,0 -1.34255,-1.11879 -0.22376,-2.46134c1.11879,-1.34255 2.46134,-0.22376 2.46134,-0.22376c2.49326,2.10373 4.32456,1.96274 7.52222,1.49787l0.51649,-0.01757c0,0 1.74761,0 1.74761,1.74761z" fill="#670000" stroke="none" stroke-width="0.5" stroke-linecap="butt"/></g></g></svg>