<svg version="1.1" xmlns="http://www.w3.org/2000/svg" xmlns:xlink="http://www.w3.org/1999/xlink" width="492" height="367.57853" viewBox="0,0,492,367.57853"><defs><linearGradient x1="240.5" y1="332" x2="240.5" y2="365" gradientUnits="userSpaceOnUse" id="color-1"><stop offset="0" stop-color="#ffffff"/><stop offset="1" stop-color="#ffffff" stop-opacity="0"/></linearGradient><linearGradient x1="240.89463" y1="-2" x2="240.89463" y2="32.69503" gradientUnits="userSpaceOnUse" id="color-2"><stop offset="0" stop-color="#ffffff" stop-opacity="0"/><stop offset="1" stop-color="#ffffff"/></linearGradient><linearGradient x1="-3.5" y1="180.23215" x2="29.5" y2="180.23215" gradientUnits="userSpaceOnUse" id="color-3"><stop offset="0" stop-color="#ffffff" stop-opacity="0"/><stop offset="1" stop-color="#ffffff"/></linearGradient><linearGradient x1="451.40985" y1="179.71073" x2="484.40985" y2="179.71073" gradientUnits="userSpaceOnUse" id="color-4"><stop offset="0" stop-color="#ffffff"/><stop offset="1" stop-color="#ffffff" stop-opacity="0"/></linearGradient><linearGradient x1="417.58064" y1="39.24387" x2="442.76428" y2="39.24387" gradientUnits="userSpaceOnUse" id="color-5"><stop offset="0" stop-color="#000000"/><stop offset="1" stop-color="#000000" stop-opacity="0"/></linearGradient><linearGradient x1="417.58064" y1="45.61947" x2="442.76428" y2="45.61947" gradientUnits="userSpaceOnUse" id="color-6"><stop offset="0" stop-color="#000000"/><stop offset="1" stop-color="#000000" stop-opacity="0"/></linearGradient></defs><g transform="translate(5.5,2.57853)"><g data-paper-data="{&quot;isPaintingLayer&quot;:true}" fill-rule="nonzero" stroke-linejoin="miter" stroke-miterlimit="10" stroke-dasharray="" stroke-dashoffset="0" style="mix-blend-mode: normal"><path d="M-5.5,365l33,-33h424l35,33z" fill="url(#color-1)" stroke="none" stroke-width="0" stroke-linecap="butt"/><path d="M485.5,-2l-37,33l-418.21073,1.69503l-34,-33.48429z" data-paper-data="{&quot;index&quot;:null}" fill="url(#color-2)" stroke="none" stroke-width="0" stroke-linecap="butt"/><path d="M-3.5,-2l33,33v299.46429l-33,32z" fill="url(#color-3)" stroke="none" stroke-width="0" stroke-linecap="butt"/><path d="M484.40985,362l-33,-30v-303.90576l33,-30.67277z" data-paper-data="{&quot;index&quot;:null}" fill="url(#color-4)" stroke="none" stroke-width="0" stroke-linecap="butt"/><path d="M28,331.5v-303h424v303z" fill="#ffffff" stroke="#000000" stroke-width="5" stroke-linecap="butt"/><path d="M34.75,325.0005v-72.50051h142.5v72.50051z" fill="#000000" stroke="none" stroke-width="0" stroke-linecap="butt"/><text transform="translate(40.5,269.7425) scale(0.37277,0.33334)" font-size="40" xml:space="preserve" fill="#ffffff" fill-rule="nonzero" stroke="none" stroke-width="1" stroke-linecap="butt" stroke-linejoin="miter" stroke-miterlimit="10" stroke-dasharray="" stroke-dashoffset="0" font-family="Serif" font-weight="normal" text-anchor="start" style="mix-blend-mode: normal"><tspan x="0" dy="0">Name: Manachrei</tspan><tspan x="0" dy="46.150000000000006px">Age: 33</tspan><tspan x="0" dy="46.150000000000006px">Status: Detained</tspan><tspan x="0" dy="46.150000000000006px">Role: Captive</tspan></text><path d="M194.25,59v-19.5h117.84467v19.5z" fill="#000000" stroke="none" stroke-width="0" stroke-linecap="butt"/><text transform="translate(199.22954,53.9009) scale(0.42192,0.42192)" font-size="40" xml:space="preserve" fill="#ffffff" fill-rule="nonzero" stroke="none" stroke-width="1" stroke-linecap="butt" stroke-linejoin="miter" stroke-miterlimit="10" stroke-dasharray="" stroke-dashoffset="0" font-family="Serif" font-weight="normal" text-anchor="start" style="mix-blend-mode: normal"><tspan x="0" dy="0">Documentation:</tspan></text><path d="M429.07853,298.09424h-241v-236.31414" fill="none" stroke="#000000" stroke-width="5" stroke-linecap="round"/><path d="M37.83201,243v-205h136.5312v205z" fill="#174752" stroke="#151515" stroke-width="6.5" stroke-linecap="butt"/><path d="M37.83201,243v-205h136.5312v205z" fill="#ffffff" stroke="#151515" stroke-width="6.5" stroke-linecap="butt"/><text transform="translate(349.55711,323.11998) scale(0.35959,0.35959)" font-size="40" xml:space="preserve" fill="#000000" fill-rule="nonzero" stroke="none" stroke-width="1" stroke-linecap="butt" stroke-linejoin="miter" stroke-miterlimit="10" stroke-dasharray="" stroke-dashoffset="0" font-family="Serif" font-weight="normal" text-anchor="start" style="mix-blend-mode: normal"><tspan x="0" dy="0">Click this to exit</tspan></text><text transform="translate(197.88397,88.28768) scale(0.40625,0.40625)" font-size="40" xml:space="preserve" fill="#000000" fill-rule="nonzero" stroke="none" stroke-width="1" stroke-linecap="butt" stroke-linejoin="miter" stroke-miterlimit="10" stroke-dasharray="" stroke-dashoffset="0" font-family="Serif" font-weight="normal" text-anchor="start" style="mix-blend-mode: normal"><tspan x="0" dy="0">We have Manachrei in a high scale</tspan><tspan x="0" dy="48px">containment chamber finally.</tspan><tspan x="0" dy="48px"> </tspan><tspan x="0" dy="48px">As of writing, this is now 5 months</tspan><tspan x="0" dy="48px">after the rebellions first attempt at</tspan><tspan x="0" dy="48px">destroying our facilities. This was</tspan><tspan x="0" dy="48px">their weapon. We have no idea what</tspan><tspan x="0" dy="48px">they did to this guy to make him so</tspan><tspan x="0" dy="48px">powerful but we decided to try</tspan><tspan x="0" dy="48px">everything to contain him for our</tspan><tspan x="0" dy="48px">research. We have him now.</tspan></text><g><path d="M376.458,50.08239l65.9875,-0.31878" fill="none" stroke="#000000" stroke-width="3" stroke-linecap="round"/><g stroke="none" stroke-linecap="butt"><g fill="#000000" stroke-width="1" font-weight="normal" font-size="40" text-anchor="start"><text transform="translate(376.45799,48.48849) scale(0.33457,0.33457)" font-size="40" xml:space="preserve" fill="#000000" fill-rule="nonzero" stroke="none" stroke-width="1" stroke-linecap="butt" stroke-linejoin="miter" stroke-miterlimit="10" stroke-dasharray="" stroke-dashoffset="0" font-family="Pixel" font-weight="normal" text-anchor="start" style="mix-blend-mode: normal"><tspan x="0" dy="0">DONK</tspan></text><text transform="translate(375.65959,62.03519) scale(0.33457,0.33457)" font-size="40" xml:space="preserve" fill="#000000" fill-rule="nonzero" stroke="none" stroke-width="1" stroke-linecap="butt" stroke-linejoin="miter" stroke-miterlimit="10" stroke-dasharray="" stroke-dashoffset="0" font-family="Sans Serif" font-weight="normal" text-anchor="start" style="mix-blend-mode: normal"><tspan x="0" dy="0">Industries</tspan></text></g><path d="M417.58064,41.15655v-3.82536h25.18364v3.82536z" fill="url(#color-5)" stroke-width="0"/><path d="M417.58064,47.47902v-3.7191h25.18364v3.7191z" fill="url(#color-6)" stroke-width="0"/></g></g><path d="M77.48842,242.3764c0,0 -0.41229,-61.24606 -0.51481,-76.57845c-0.03537,-5.29026 5.3125,-23.85454 26.08724,-23.95824c20.50689,-0.10236 25.86318,19.13425 25.85807,23.94243c-0.0497,30.00709 0.42457,76.56188 0.42457,76.56188l-6.81133,0.06239l-0.10306,-74.52214c0,0 0.04899,-2.01115 -1.82748,-2.04674c-2.2286,-0.04227 -1.91127,2.02174 -1.91127,2.02174l0.13334,74.53955l-31.28603,0.04686l-0.19817,-74.7752c0,0 0.18136,-1.89415 -1.87248,-1.90416c-2.01863,-0.00983 -1.82711,1.88765 -1.82711,1.88765l0.22913,74.66729z" fill="#000000" stroke="#000000" stroke-width="2" stroke-linecap="butt"/><path d="M112.91672,174.85288c-0.37061,0 -0.67104,-0.30044 -0.67104,-0.67104c0,-0.37061 0.30044,-0.67105 0.67104,-0.67105c0.37061,0 0.67104,0.30044 0.67104,0.67105c0,0.37061 -0.30044,0.67104 -0.67104,0.67104z" fill="#000000" stroke="none" stroke-width="1.5" stroke-linecap="butt"/><path d="M109.50357,177.60137c-2.89638,-0.20401 -4.25191,-1.16408 -4.00364,-1.67424c0.07649,-0.15719 1.84707,0.69014 4.52311,0.84669c4.15881,0.24329 5.52239,-0.40993 5.52239,-0.40993v0.87353c0,0 -1.56613,0.67922 -6.04185,0.36396z" fill="#000000" stroke="#000000" stroke-width="0" stroke-linecap="butt"/><path d="M91.45577,174.18184c0,-0.37061 0.30044,-0.67105 0.67104,-0.67105c0.37061,0 0.67105,0.30044 0.67105,0.67105c0,0.37061 -0.30044,0.67104 -0.67105,0.67104c-0.37061,0 -0.67104,-0.30044 -0.67104,-0.67104z" fill="#000000" stroke="none" stroke-width="1.5" stroke-linecap="butt"/><path d="M95.53995,177.60137c-4.47572,0.31527 -6.04185,-0.36396 -6.04185,-0.36396v-0.87353c0,0 1.36358,0.65323 5.52239,0.40993c2.67603,-0.15655 4.44662,-1.00388 4.52311,-0.84669c0.24827,0.51016 -1.10725,1.47023 -4.00364,1.67424z" fill="#000000" stroke="#000000" stroke-width="0" stroke-linecap="butt"/><path d="M102.85989,214.29804c-0.53142,0 -0.96222,-0.4308 -0.96222,-0.96222c0,-0.53142 0.4308,-0.96222 0.96222,-0.96222c0.53142,0 0.96222,0.4308 0.96222,0.96222c0,0.53142 -0.4308,0.96222 -0.96222,0.96222z" data-paper-data="{&quot;index&quot;:null}" fill="#000000" stroke="none" stroke-width="1.5" stroke-linecap="butt"/><path d="M89.35474,240.89305v-77.35029c0,0 0.49136,-6.31452 0.49136,-9.49954c0,-2.91877 -0.49136,-8.88168 -0.49136,-8.88168c0,0 1.73464,-1.52685 3.0211,-2.43214c1.28646,-0.90529 3.35611,-1.81934 3.35611,-1.81934c0,0 -2.27076,12.23742 7.56735,12.19177c10.01568,-0.04647 10.85572,-12.19177 10.85572,-12.19177c0,0 2.53901,0.98607 4.00104,1.91203c0.81953,0.51904 9.65807,3.58884 12.86092,11.69569c2.511,6.35566 -0.37425,18.22272 -0.37425,18.22272c0,0 -5.24742,6.07042 -7.52067,1.44411c-2.64512,-5.38311 -2.37261,-21.47755 -2.37261,-19.81382c0,3.14195 0.49136,9.49954 0.49136,9.49954v77.02273z" fill="#ffffff" stroke="none" stroke-width="0" stroke-linecap="butt"/><path d="M74.00644,112.28442c0,0 3.99938,-3.84272 4.08265,-4.40451c0.21838,-1.47342 -0.10886,-26.06853 23.33961,-26.97741c28.96469,-0.59285 25.31691,22.93792 26.94955,27.37745c2.2386,6.08726 3.99507,11.29103 3.99507,11.29103c0,0 -1.79561,-1.33253 -2.64733,-2.03365c-0.79439,-0.65392 -2.46676,-2.04135 -2.46676,-2.04135c0,0 2.00583,6.71492 0.85066,13.42905c-1.01378,6.15224 -4.73558,11.17765 -4.73558,11.17765l-0.74963,-1.5232c0,0 -0.66361,1.42625 -1.40166,2.16263c-0.73806,0.73637 -2.23141,1.89008 -2.23141,1.89008l-0.05973,-2.40368c0,0 -4.58133,7.14959 -15.80124,7.05458c-10.58119,-0.16578 -16.9179,-6.92718 -16.9179,-6.92718l-0.0754,1.72274c0,0 -2.52733,-2.13668 -4.01117,-6.29926c-1.76856,-4.9613 -2.1021,-7.94469 -2.1021,-7.94469c0,0 -1.51784,1.23237 -3.70981,1.80032c-2.74667,0.71167 -4.50771,0.22404 -4.50771,0.22404c0,0 2.34121,-1.76318 3.62345,-3.0952c1.14212,-1.18646 1.71738,-2.19149 1.71738,-2.19149c0,0 -1.36762,0.70387 -2.74666,1.04989c-1.43887,0.36105 -2.61513,0.34452 -2.61513,0.34452c0,0 3.22824,-3.26871 4.56227,-7.05637c1.25954,-3.57616 1.36252,-7.11024 1.36252,-7.11024c0,0 -0.88358,0.42933 -2.16093,0.51596c-0.80968,0.05492 -1.543,-0.03173 -1.543,-0.03173z" fill="#000000" stroke="none" stroke-width="1.5" stroke-linecap="butt"/><path d="M85.06917,119.61036c-0.37448,-4.73261 0.21738,-11.13161 0.21738,-11.13161c0,0 2.21315,-0.02676 9.02904,-2.04031c5.23639,-1.54695 13.33323,-6.15629 13.33323,-6.15629c0,0 -1.40166,1.94998 -2.21134,2.89421c-0.86078,1.00383 -2.59102,2.96093 -2.59102,2.96093c0,0 5.08611,-1.08212 9.52251,-3.06887c5.56005,-2.29436 6.87353,-3.92787 8.40358,-2.98022c1.80583,1.11846 0.66841,15.04334 0.46621,18.6499c-0.2736,3.67878 -1.64385,6.16439 -2.04425,8.12462c-0.4004,1.96023 -0.26579,3.98208 -1.43162,10.40822c-0.72756,4.01036 -2.70063,5.79125 -6.50164,9.51346c-3.80101,3.72222 -5.87503,6.00415 -8.44457,6.04891c-2.47282,0.04308 -5.79838,-3.30954 -9.04275,-6.73721c-3.45472,-3.64992 -5.75895,-5.50084 -6.30443,-9.82424c-0.49127,-3.89368 -0.50389,-6.42968 -0.7285,-9.89471c-0.16416,-2.5325 -1.46729,-4.18221 -1.67181,-6.76678z" fill="#000000" stroke="#000000" stroke-width="1.5" stroke-linecap="butt"/><path d="M116.26197,109.7987c0,0 0.98912,0.2064 2.76161,0.72047c1.61896,0.46955 2.8872,1.13171 2.8872,1.13171l0.1266,0.75944c0,0 -4.70431,-2.03105 -9.8087,-1.60318c-4.08135,0.34213 -6.46515,1.82498 -6.46515,1.82498l0.02969,-2.71036c0,0 2.02943,-1.10587 5.10276,-1.20409c3.18241,-0.1017 5.25018,0.38366 5.25018,0.38366z" data-paper-data="{&quot;index&quot;:null}" fill="#000000" stroke="none" stroke-width="1.5" stroke-linecap="butt"/><path d="M107.97929,137.69349c0.37013,0.13748 2.00094,0.90809 3.9089,1.68446c1.92316,0.78256 4.68095,1.4879 4.66829,1.59663c-0.01607,0.13799 -6.77116,0.14726 -8.8766,0.41026c-1.76438,0.22039 -4.3403,0.45789 -4.3403,0.45789c0,0 -4.60982,-0.75383 -8.61248,-1.58671c-3.20799,-0.66752 -6.74814,-1.07788 -6.75506,-1.13857c-0.00934,-0.08185 2.51019,-0.46118 4.42823,-0.90501c0.74355,-0.32225 3.52985,-0.96371 3.52985,-0.96371c0,0 3.21587,-0.18017 4.93703,0.37572c1.8442,0.59564 1.83994,1.58693 2.00064,1.60218c0,0 0.76854,-1.13514 1.53716,-1.36569c0.76863,-0.23054 3.29785,-0.27016 3.57434,-0.16747z" fill="#000000" stroke="#000000" stroke-width="1.4" stroke-linecap="butt"/><path d="M96.51715,145.88332c3.30366,0.66626 8.05267,3.56152 8.05267,3.56152c0,0 4.26789,-2.81154 5.99204,-2.9923c1.33669,-0.14014 5.17064,-5.50707 5.19936,-5.26517c0.02808,0.23651 -4.3596,13.09345 -12.2223,12.79937c-8.93511,-0.28278 -13.94285,-13.50313 -13.91829,-13.61288c0.02455,-0.10975 3.81639,4.45485 7.12005,5.12112z" fill="#000000" stroke="#000000" stroke-width="1.9" stroke-linecap="butt"/><path d="M105.40106,119.01209c0,0 0.06658,2.57599 0.00374,4.62449c-0.12442,4.05638 -0.70177,18.01403 -0.70177,18.01403l-1.93482,0.00561c0,0 -0.52103,-2.70771 -0.72886,-6.16445c-0.28132,-4.67901 -0.29168,-10.57273 -0.4954,-12.73947c-0.1931,-2.05387 -0.58137,-3.70818 -0.58137,-3.70818" fill="#ffffff" stroke="#000000" stroke-width="1.3" stroke-linecap="round"/><path d="M86.04061,123.61777c0,0 -2.3126,-1.89699 -2.80207,-5.48363c-0.27305,-2.00075 1.39952,-1.4796 1.39952,-1.4796" fill="none" stroke="#000000" stroke-width="0.25" stroke-linecap="round"/><path d="M87.99602,119.29873c0.04603,-3.17436 3.13962,-5.79866 6.6262,-5.74812c3.48657,0.05055 5.85781,2.7568 5.81179,5.93117c-0.04603,3.17436 -2.67577,5.70671 -6.16235,5.65617c-3.48657,-0.05055 -6.32167,-2.66485 -6.27564,-5.83922z" fill="#ffffff" stroke="#000000" stroke-width="1.4" stroke-linecap="butt"/><path d="M105.63809,119.19564c0.13207,-3.17195 2.88934,-5.7483 6.3401,-5.7483c3.45076,0 6.01828,2.5736 6.01828,5.7483c0,3.1747 -2.52154,5.88623 -6.29413,5.9322c-3.58842,0.04373 -6.20217,-2.61957 -6.06425,-5.9322z" fill="#ffffff" stroke="#000000" stroke-width="1.4" stroke-linecap="butt"/><path d="M107.44338,119.62915c0,-1.8289 1.48262,-3.31152 3.31152,-3.31152c1.8289,0 3.31152,1.48262 3.31152,3.31152c0,1.8289 -1.48261,3.31152 -3.31152,3.31152c-1.8289,0 -3.31152,-1.48262 -3.31152,-3.31152z" fill="#000000" stroke="none" stroke-width="1.5" stroke-linecap="butt"/><path d="M90.24215,112.45679c0,0 2.18657,-1.18036 5.21228,-1.48066c3.35287,-0.33278 5.04083,-0.04301 5.04083,-0.04301l0.19148,2.68482c0,0 -2.4889,-0.44168 -5.20288,-0.33816c-3.62962,0.13843 -4.31189,0.92983 -7.07159,1.2272c-2.36466,0.2548 -4.37181,0.10307 -4.37181,0.10307l-0.0168,-0.79916c0,0 2.33292,0.04801 3.39617,-0.04436c0.87757,-0.07624 2.57985,-0.60872 2.57985,-0.60872z" fill="#000000" stroke="none" stroke-width="1.5" stroke-linecap="butt"/><path d="M121.6319,116.65453c0,0 1.67258,-0.52115 1.39952,1.4796c-0.48947,3.58664 -2.80207,5.48363 -2.80207,5.48363" data-paper-data="{&quot;index&quot;:null}" fill="none" stroke="#000000" stroke-width="0.25" stroke-linecap="round"/><path d="M108.22058,154.29886c-1.50041,0.61684 -2.11725,-0.88358 -2.11725,-0.88358l-0.50348,-1.6195c0.02626,-0.56548 0.06963,-1.12871 0.12493,-1.6905c-0.86038,0.077 -1.79546,-0.26597 -2.46805,-0.79962c-0.00397,-0.00315 -0.00793,-0.0063 -0.01188,-0.00947l-0.3068,1.61907c0,0 -0.47799,1.55024 -2.02823,1.07226c-1.55024,-0.47799 -1.07226,-2.02823 -1.07226,-2.02823l0.36311,-0.35749c-0.27928,-1.0795 -0.59779,-2.13371 -0.94507,-3.1756c-0.57439,-0.1725 -1.14145,-0.35871 -1.69564,-0.567c-2.46297,-0.92569 -4.76255,-2.55597 -6.97842,-3.95646c0,0 -1.37108,-0.8671 -0.50397,-2.23819c0.8671,-1.37108 2.23819,-0.50397 2.23819,-0.50397c0.59721,0.37795 1.20462,0.78125 1.82225,1.18317c0.27272,-0.20795 0.61331,-0.33143 0.98274,-0.33143c0.09286,0 0.18389,0.0078 0.27249,0.02278l1.96278,0.2984c0.10744,-0.36662 0.37473,-0.73844 0.9623,-0.97241c1.50716,-0.60015 2.10732,0.90702 2.10732,0.90702c0.04426,0.11119 0.08838,0.22229 0.13234,0.33334c0.31633,0.01999 0.62944,0.08631 0.94077,0.17811c0.37674,0.01742 0.73761,0.07382 1.04542,0.26061l-0.00467,-0.03062l1.59976,-0.24416c0.08891,-0.01509 0.18028,-0.02295 0.27348,-0.02295c0.61447,0 1.14916,0.34163 1.42446,0.84533c0.32619,-0.02064 0.65166,-0.0423 0.97868,-0.05984c0.00733,-0.09699 0.01423,-0.19405 0.02069,-0.2912c0,0 0.03781,-0.56715 0.40438,-1.00764c-0.16909,-0.25608 -0.26752,-0.56292 -0.26752,-0.89274c0,-0.89595 0.72631,-1.62226 1.62226,-1.62226c0.89595,0 1.62226,0.72631 1.62226,1.62226c0,0.41135 -0.1531,0.78694 -0.40543,1.0729c0.29872,0.48322 0.26138,1.04331 0.26138,1.04331c-0.00443,0.06638 -0.00909,0.13274 -0.01395,0.19907c0.03411,0.00576 0.0683,0.01171 0.10257,0.01784l0.34115,-0.13373c0,0 0.59181,-0.0853 1.10865,0.20696c0.07205,-0.04825 0.14399,-0.09654 0.2158,-0.14492c0.13455,-0.11101 0.26885,-0.21717 0.41049,-0.27856c0.05146,-0.03522 0.10284,-0.07049 0.15412,-0.10583l1.31161,-1.17228c0.28754,-0.25928 0.66835,-0.41712 1.08601,-0.41712c0.89595,0 1.62226,0.72631 1.62226,1.62226c0,0.42833 -0.16601,0.8179 -0.43719,1.10787l-1.21045,1.30171l-0.04899,-0.04555c-0.0439,0.07379 -0.09,0.14645 -0.13853,0.21786c-0.37004,0.54441 -1.08983,0.72767 -1.70892,0.98784c-0.19686,0.21925 -0.45258,0.38457 -0.74229,0.47112c-0.92743,0.61832 -1.84775,1.24863 -2.70961,1.93349c-0.02472,0.01964 -0.05178,0.04185 -0.08103,0.0664c-0.22786,1.54788 -0.43168,3.09419 -0.49432,4.65005l0.26286,0.24459c0,0 0.61684,1.50041 -0.88358,2.11725z" fill="#000000" stroke="none" stroke-width="0.5" stroke-linecap="butt"/><path d="M117.06813,124.40866c0,3.16145 -2.75555,13.11855 -9.14829,13.11855c-6.39273,0 -9.53148,5.77896 -9.53148,2.61751c0,-3.16145 2.02115,-6.19034 8.41388,-6.19034c6.39273,0 10.26588,-12.70717 10.26588,-9.54572z" fill="#ffffff" stroke="#000000" stroke-width="1.3" stroke-linecap="butt"/><path d="M74.31332,111.65577c0,0 3.99938,-3.84272 4.08265,-4.40451c0.21838,-1.47342 -0.10886,-26.06853 23.33961,-26.97741c28.96469,-0.59285 6.41362,20.94956 8.04626,25.38908c2.2386,6.08726 -2.90206,12.9687 -2.90206,12.9687c0,0 2.5896,7.63584 1.73788,6.93473c-0.79439,-0.65392 -1.99843,2.08037 -1.99843,2.08037c0,0 2.60186,1.82683 1.44669,8.54096c-1.01378,6.15224 6.50422,7.20092 6.50422,7.20092l-6.07151,0.29948c0,0 0.10274,-1.68058 -0.63532,-0.9442c-0.73806,0.73637 1.30232,0.48166 1.30232,0.48166l3.81459,-1.9273c0,0 1.67719,5.4512 -9.54272,5.3562c-10.58119,-0.16578 -16.9179,-6.92718 -16.9179,-6.92718l-0.0754,1.72274c0,0 -2.52733,-2.13668 -4.01117,-6.29926c-1.76856,-4.9613 -2.1021,-7.94469 -2.1021,-7.94469c0,0 -1.51784,1.23237 -3.70981,1.80032c-2.74667,0.71167 -4.50771,0.22404 -4.50771,0.22404c0,0 2.34121,-1.76318 3.62345,-3.0952c1.14212,-1.18646 1.71738,-2.19149 1.71738,-2.19149c0,0 -1.36762,0.70387 -2.74666,1.04989c-1.43887,0.36105 -2.61513,0.34452 -2.61513,0.34452c0,0 3.22824,-3.26871 4.56227,-7.05637c1.25954,-3.57616 1.36252,-7.11024 1.36252,-7.11024c0,0 -0.88358,0.42933 -2.16093,0.51596c-0.80968,0.05492 -1.543,-0.03173 -1.543,-0.03173z" fill="#ffffff" stroke="none" stroke-width="1.5" stroke-linecap="butt"/><path d="M89.38583,119.70425c0.05237,-3.61207 3.02297,-6.49774 6.63501,-6.44537c3.61207,0.05237 6.49774,3.02297 6.44537,6.63501c-0.05237,3.61207 -3.02296,6.49774 -6.63501,6.44537c-3.61207,-0.05237 -6.49774,-3.02297 -6.44537,-6.63501z" fill="#000000" stroke="none" stroke-width="1.5" stroke-linecap="butt"/><path d="M111.20159,135.35811c0,0.11065 -0.76972,-0.26747 -0.77651,-0.14088c-0.18718,3.49005 -0.07403,2.38555 -6.24302,2.38555c-6.39273,0 -9.53148,5.77896 -9.53148,2.61751c0,-3.16145 2.02115,-6.19034 8.41388,-6.19034c6.39273,0 6.00838,-2.62036 6.00838,0.54109z" fill="#000000" stroke="#000000" stroke-width="1.3" stroke-linecap="butt"/><path d="M92.78693,119.54518c0.07295,-1.75198 1.59588,-3.17498 3.50186,-3.17498c1.90597,0 3.3241,1.42149 3.3241,3.17498c0,1.75349 -1.39274,3.25117 -3.47647,3.27656c-1.98201,0.02415 -3.42567,-1.44688 -3.34949,-3.27656z" fill="#ffffff" stroke="#000000" stroke-width="1.4" stroke-linecap="butt"/></g></g></svg>