<svg version="1.1" xmlns="http://www.w3.org/2000/svg" xmlns:xlink="http://www.w3.org/1999/xlink" width="154.08354" height="253.22501" viewBox="0,0,154.08354,253.22501"><g transform="translate(-162.95823,-59.88751)"><g data-paper-data="{&quot;isPaintingLayer&quot;:true}" fill-rule="nonzero" stroke-linejoin="miter" stroke-miterlimit="10" stroke-dasharray="" stroke-dashoffset="0" style="mix-blend-mode: normal"><path d="M195.42075,313.11253v-253.22501h91.18203v253.22501z" fill-opacity="0.01" fill="#000000" stroke="none" stroke-width="0" stroke-linecap="butt"/><path d="M200.66744,304.39162c0,0 -0.63536,-94.38387 -0.79335,-118.01201c-0.05451,-8.15261 8.18688,-36.76129 40.20201,-36.9211c31.60235,-0.15775 39.85672,29.48704 39.84884,36.89673c-0.07659,46.24274 0.65429,117.98648 0.65429,117.98648l-10.49667,0.09614l-0.15882,-114.84311c0,0 0.07549,-3.0993 -2.81625,-3.15415c-3.43441,-0.06514 -2.94538,3.11562 -2.94538,3.11562l0.20548,114.86995l-48.21366,0.07222l-0.30539,-115.23309c0,0 0.27949,-2.919 -2.8856,-2.93443c-3.11083,-0.01515 -2.81569,2.90899 -2.81569,2.90899l0.35311,115.0668z" fill="#000000" stroke="#a10000" stroke-width="2" stroke-linecap="butt"/><path d="M255.26458,200.33383c-0.57113,0 -1.03411,-0.46299 -1.03411,-1.03411c0,-0.57113 0.46299,-1.03413 1.03411,-1.03413c0.57113,0 1.03411,0.463 1.03411,1.03413c0,0.57113 -0.46299,1.03411 -1.03411,1.03411z" fill="#000000" stroke="none" stroke-width="1.5" stroke-linecap="butt"/><path d="M250.00474,204.56942c-4.4635,-0.31439 -6.55245,-1.79392 -6.16985,-2.58011c0.11788,-0.24224 2.84645,1.06355 6.97038,1.3048c6.40897,0.37493 8.51033,-0.63173 8.51033,-0.63173v1.34616c0,0 -2.4135,1.04672 -9.31086,0.56089z" fill="#000000" stroke="#000000" stroke-width="0" stroke-linecap="butt"/><path d="M222.19198,199.29972c0,-0.57113 0.46299,-1.03413 1.03411,-1.03413c0.57113,0 1.03413,0.463 1.03413,1.03413c0,0.57113 -0.463,1.03411 -1.03413,1.03411c-0.57113,0 -1.03411,-0.46299 -1.03411,-1.03411z" fill="#000000" stroke="none" stroke-width="1.5" stroke-linecap="butt"/><path d="M228.48597,204.56942c-6.89736,0.48585 -9.31086,-0.56089 -9.31086,-0.56089v-1.34616c0,0 2.10136,1.00666 8.51033,0.63173c4.12393,-0.24126 6.85251,-1.54704 6.97039,-1.3048c0.3826,0.78618 -1.70634,2.26571 -6.16985,2.58011z" fill="#000000" stroke="#000000" stroke-width="0" stroke-linecap="butt"/><path d="M252.33041,168.86113c0,1 -1,1 -1,1h-0.33334c-0.91536,0 -3.52709,-0.45437 -4.24454,0.32187c-0.59572,0.64453 -0.08879,3.67661 -0.08879,4.51147c0,4.50936 -1.47674,6.4373 -5.91752,7.16325c-2.62784,0 -5.52169,-0.85215 -6.06957,-3.83641c-0.30069,-1.63786 -0.38189,-3.34837 -0.66666,-5c-0.12246,-0.71025 0.1594,-1.70293 -0.62377,-2.20177c-1.39781,-0.89033 -3.13603,-0.96121 -4.72248,-0.95841c0,0 -1,0 -1,-1c0,-1 1,-1 1,-1c2.34083,0.00375 5.58087,0.19815 6.87842,2.52212c2.00923,3.59862 -0.83603,9.48129 5.0391,9.48129c0.78566,-0.1339 2.76129,-0.16737 3.32703,-0.82528c2.26469,-2.63366 -0.87651,-7.64959 1.33333,-10.16666c1.28836,-1.4675 4.04651,-1.01147 5.75546,-1.01147h0.33334c0,0 1,0 1,1z" fill="#ffffff" stroke="none" stroke-width="0.5" stroke-linecap="butt"/><path d="M239.76643,261.12113c-0.81895,0 -1.48284,-0.66389 -1.48284,-1.48284c0,-0.81895 0.66389,-1.48284 1.48284,-1.48284c0.81895,0 1.48284,0.66389 1.48284,1.48284c0,0.81895 -0.66389,1.48284 -1.48284,1.48284z" data-paper-data="{&quot;index&quot;:null}" fill="#000000" stroke="none" stroke-width="1.5" stroke-linecap="butt"/><path d="M215.70317,304.40603v-119.20147c0,0 0.75721,-9.73105 0.75721,-14.63937c0,-4.498 -0.75721,-13.6872 -0.75721,-13.6872c0,0 2.67319,-2.35297 4.6557,-3.74807c1.98251,-1.3951 5.17197,-2.80371 5.17197,-2.80371c0,0 -0.6016,40.10902 14.55952,40.03867c15.43477,-0.07162 13.83154,-40.03867 13.83154,-40.03867c0,0 3.91276,1.51959 6.16585,2.94655c2.25309,1.42695 4.75379,3.60523 4.75379,3.60523c0,0 -0.75721,9.42463 -0.75721,14.19201c0,4.84193 0.75721,14.63937 0.75721,14.63937v118.69667z" fill="#444444" stroke="#a10000" stroke-width="2" stroke-linecap="butt"/><path d="M196.06396,110.38017c0,0 6.16329,-5.92187 6.29161,-6.78761c0.33654,-2.27063 -0.16776,-40.17317 35.96775,-41.57382c44.63633,-0.91362 39.01489,35.34872 41.53088,42.1903c3.44981,9.38084 6.15664,17.40016 6.15664,17.40016c0,0 -2.76715,-2.05351 -4.0797,-3.13397c-1.2242,-1.00773 -3.80143,-3.14585 -3.80143,-3.14585c0,0 3.09111,10.3481 1.31092,20.69498c-1.5623,9.48098 -7.29782,17.22543 -7.29782,17.22543l-1.15522,-2.34735c0,0 -1.02266,2.19794 -2.16005,3.33274c-1.1374,1.13479 -3.43873,2.91273 -3.43873,2.91273l-0.09205,-3.70421c0,0 -7.0601,11.01795 -24.35066,10.87154c-16.30625,-0.25547 -26.07151,-10.6752 -26.07151,-10.6752l-0.1162,2.65484c0,0 -3.89477,-3.29276 -6.18145,-9.70754c-2.72545,-7.64567 -3.23946,-12.24324 -3.23946,-12.24324c0,0 -2.33908,1.89916 -5.71704,2.7744c-4.23278,1.09673 -6.94665,0.34526 -6.94665,0.34526c0,0 3.60795,-2.71717 5.58396,-4.76989c1.76007,-1.8284 2.64658,-3.37722 2.64658,-3.37722c0,0 -2.10758,1.0847 -4.23277,1.61795c-2.21739,0.5564 -4.03008,0.53093 -4.03008,0.53093c0,0 4.97492,-5.03728 7.03074,-10.87429c1.94102,-5.51108 2.09972,-10.95731 2.09972,-10.95731c0,0 -1.36165,0.66163 -3.33013,0.79513c-1.24776,0.08463 -2.37785,-0.0489 -2.37785,-0.0489z" fill="#a10000" stroke="none" stroke-width="1.5" stroke-linecap="butt"/><path d="M212.84984,121.70178c-0.57709,-7.29323 0.335,-17.15448 0.335,-17.15448c0,0 3.41059,-0.04124 13.91429,-3.14424c8.0696,-2.38394 20.54731,-9.48722 20.54731,-9.48722c0,0 -2.16005,3.00503 -3.40781,4.46015c-1.32651,1.54696 -3.99292,4.56297 -3.99292,4.56297c0,0 7.838,-1.66761 14.67476,-4.72931c8.56837,-3.53575 10.59252,-6.05309 12.95042,-4.5927c2.7829,1.72362 1.03006,23.1827 0.71846,28.74062c-0.42163,5.66922 -2.53327,9.49969 -3.15031,12.52053c-0.61704,3.02084 -0.4096,6.13662 -2.20622,16.0397c-1.12121,6.18021 -4.16183,8.92466 -10.01942,14.66081c-5.85759,5.73616 -9.05378,9.25275 -13.01359,9.32173c-3.81077,0.06639 -8.93565,-5.1002 -13.93542,-10.38244c-5.32393,-5.62474 -8.87489,-8.47713 -9.71551,-15.13975c-0.75707,-6.00039 -0.77653,-9.90853 -1.12266,-15.24835c-0.25298,-3.90273 -2.26119,-6.44504 -2.57636,-10.42801z" fill="#000000" stroke="#a10000" stroke-width="1.5" stroke-linecap="butt"/><path d="M260.91984,106.58143c0,0 1.52429,0.31807 4.2558,1.11029c2.49492,0.72361 4.44935,1.74403 4.44935,1.74403l0.1951,1.17035c0,0 -7.24963,-3.12997 -15.1158,-2.4706c-6.2896,0.52724 -9.96319,2.8124 -9.96319,2.8124l0.04575,-4.17683c0,0 3.12748,-1.70421 7.86366,-1.85557c4.90428,-0.15672 8.09084,0.59125 8.09084,0.59125z" data-paper-data="{&quot;index&quot;:null}" fill="#a10000" stroke="none" stroke-width="1.5" stroke-linecap="butt"/><path d="M240.48199,151.12885c-1.03376,0 -3.5381,-3.26042 -3.7867,-5.3637c-0.22243,-1.88186 1.31512,-3.82799 3.7867,-3.82799c2.47159,0 4.2021,0.49077 4.02999,4.18853c-0.14607,3.13818 -1.55841,5.00317 -4.02999,5.00317z" fill="#000000" stroke="#a10000" stroke-width="1.15" stroke-linecap="butt"/><path d="M244.08409,121.03517c0,0 0.1026,3.96976 0.00576,7.12662c-0.19174,6.25113 -1.08147,27.7607 -1.08147,27.7607l-2.98167,0.00864c0,0 -0.80294,-4.17274 -1.12322,-9.49979c-0.43353,-7.21063 -0.4495,-16.29321 -0.76344,-19.63229c-0.29758,-3.16513 -0.89593,-5.71453 -0.89593,-5.71453" fill="#000000" stroke="#a10000" stroke-width="1.3" stroke-linecap="round"/><path d="M214.54949,131.825c0,0 -4.93211,-3.51705 -6.16417,-8.97502c-1.29636,-5.74284 -1.46118,-9.7328 0.48013,-9.99193c1.94131,-0.25915 2.70321,2.37692 3.73262,8.35569c1.0294,5.97877 1.95143,10.61127 1.95143,10.61127z" data-paper-data="{&quot;index&quot;:null}" fill="#444444" stroke="#cc1414" stroke-width="1" stroke-linecap="butt"/><path d="M214.34689,127.87745c0,0 -3.56385,-2.92338 -4.31816,-8.45061c-0.42079,-3.08327 2.15675,-2.28016 2.15675,-2.28016" fill="none" stroke="#000000" stroke-width="0.25" stroke-linecap="round"/><path d="M217.3603,121.22155c0.07093,-4.89188 4.83834,-8.93609 10.21137,-8.8582c5.37302,0.0779 9.02724,4.2484 8.95632,9.14029c-0.07093,4.89188 -4.12352,8.79439 -9.49655,8.7165c-5.37302,-0.0779 -9.74207,-4.1067 -9.67114,-8.99859z" fill="#444444" stroke="#000000" stroke-width="1.4" stroke-linecap="butt"/><path d="M221.79792,121.33948c0.03999,-2.75843 2.30855,-4.96213 5.06696,-4.92214c2.75843,0.03999 4.96213,2.30855 4.92214,5.06696c-0.03999,2.75843 -2.30854,4.96213 -5.06696,4.92214c-2.75843,-0.03999 -4.96213,-2.30855 -4.92214,-5.06696z" fill="#a10000" stroke="none" stroke-width="1.5" stroke-linecap="butt"/><path d="M244.41656,121.22228c0.20353,-4.88817 4.45264,-8.85847 9.77048,-8.85847c5.31783,0 9.27453,3.96607 9.27453,8.85847c0,4.8924 -3.88585,9.07104 -9.69964,9.14188c-5.52997,0.06739 -9.55792,-4.03692 -9.34537,-9.14188z" fill="#444444" stroke="#000000" stroke-width="1.4" stroke-linecap="butt"/><path d="M249.01933,121.30783c0,-2.81845 2.2848,-5.10325 5.10325,-5.10325c2.81845,0 5.10325,2.2848 5.10325,5.10325c0,2.81845 -2.28479,5.10325 -5.10325,5.10325c-2.81845,0 -5.10325,-2.2848 -5.10325,-5.10325z" fill="#a10000" stroke="none" stroke-width="1.5" stroke-linecap="butt"/><path d="M220.82172,110.67771c0,0 3.36963,-1.819 8.03244,-2.28178c5.16698,-0.51283 7.76823,-0.06628 7.76823,-0.06628l0.29508,4.13747c0,0 -3.83554,-0.68065 -8.01795,-0.52113c-5.59346,0.21333 -6.64488,1.43293 -10.89774,1.89119c-3.64408,0.39266 -6.73723,0.15884 -6.73723,0.15884l-0.02589,-1.23155c0,0 3.59517,0.07398 5.23371,-0.06836c1.35239,-0.11749 3.9757,-0.93808 3.9757,-0.93808z" fill="#a10000" stroke="none" stroke-width="1.5" stroke-linecap="butt"/><path d="M268.78264,121.21374c1.0294,-5.97877 1.7913,-8.61483 3.73262,-8.35569c1.94131,0.25914 1.77649,4.24909 0.48013,9.99193c-1.23206,5.45797 -6.16417,8.97502 -6.16417,8.97502c0,0 0.92203,-4.6325 1.95143,-10.61127z" data-paper-data="{&quot;index&quot;:null}" fill="#444444" stroke="#cc1414" stroke-width="1" stroke-linecap="butt"/><path d="M269.19519,117.14668c0,0 2.57754,-0.80312 2.15675,2.28016c-0.75431,5.52723 -4.31816,8.45061 -4.31816,8.45061" data-paper-data="{&quot;index&quot;:null}" fill="none" stroke="#000000" stroke-width="0.25" stroke-linecap="round"/><path d="M200.45541,181.22227l-1.33333,-3.55556l-31.33333,-66.6111l40,52" fill="none" stroke="#a10000" stroke-width="2" stroke-linecap="round"/><path d="M271.12209,163.66671l41,-52l-32,66l-1,3.22223" fill="none" stroke="#a10000" stroke-width="2" stroke-linecap="round"/><g fill="#000000" stroke="#a10000" stroke-linecap="butt"><path d="M241.63603,151.68582c0.24666,0.02613 0.6086,0.3332 2.34631,-0.38524c1.67939,-0.69432 4.7385,-1.25185 6.20585,-1.06295c1.61805,0.60873 9.96594,5.50874 9.96594,5.50874c0,0 -7.95924,-0.82899 -11.17295,-0.38054c-2.69313,0.3758 -7.62499,2.0206 -7.62499,2.0206l-21.10897,-4.05612c0,0 9.63843,-4.07749 10.61949,-4.21935c2.33124,-0.3371 5.0884,0.83849 7.71556,1.78637c2.81497,1.01563 2.80847,0.76247 3.05375,0.78847z" stroke-width="1.25"/><path d="M219.61257,153.29499c0,0 7.40776,-0.0718 10.78376,0.85495c3.48786,0.95745 6.46932,2.72051 10.81875,2.9349c4.34943,0.21437 6.71999,-1.619 9.35172,-1.94072c2.04031,-0.24942 9.69913,1.01564 9.69913,1.01564c0,0 0.28353,5.30092 -6.80479,11.37048c-2.69148,2.30464 -7.81258,2.6701 -12.58621,2.57074c-4.77363,-0.09936 -9.72244,-1.02687 -12.60467,-3.08122c-5.5651,-3.96659 -8.65769,-13.72477 -8.65769,-13.72477z" stroke-width="1.9"/></g><path d="M172.87209,118.9792l31.25,50.5" fill="none" stroke="#da7f7f" stroke-width="2" stroke-linecap="round"/><path d="M306.87209,120.22921l-32,49.25" fill="none" stroke="#da7f7f" stroke-width="2" stroke-linecap="round"/><path d="M224.0474,203.10196c0.08489,-0.08694 0.14088,-0.1336 0.14088,-0.1336c2.91134,-2.42294 7.20444,-6.31169 11.47234,-5.18742c1.50185,0.39562 2.85636,1.35162 3.97779,2.42609c1.38619,1.32815 0.49111,2.92489 2.45867,3.26563c2.45511,0.42517 8.35602,-1.35524 10.12609,0.64848c3.93395,4.45325 -2.71847,12.5837 -6.68921,14.35648c-0.13487,0.06021 -2.91336,0.70322 -4.93587,1.0456c1.69436,0.52624 3.86239,1.28598 4.12859,1.98772c0.74374,1.96057 -2.68655,7.63522 -4.3864,8.56108c-2.40096,1.30774 -8.1155,0.7029 -10.88487,0.65023c-1.50646,-0.02865 -3.12047,0.41451 -4.51773,-0.14932c-1.43075,-0.57734 -2.83787,-1.66051 -3.46293,-3.07106c-0.59511,-1.34296 0.11896,-2.93559 0.15043,-4.40416c0.04073,-1.90116 -0.24453,-5.17354 0.86787,-6.75772c0.47741,-0.67988 1.60804,-0.41848 2.41562,-0.61334c0.62201,-0.15008 -1.32869,0.01966 -1.90098,-0.26653c-3.04408,-1.52221 -3.9625,-2.04512 -4.64635,-5.63984c-0.28397,-1.49273 -0.81528,-3.24833 -0.04525,-4.55827c0.74826,-1.27292 2.61879,-1.36485 3.92818,-2.04727z" fill="#000000" stroke="none" stroke-width="0.5" stroke-linecap="butt"/><path d="M232.59497,161.26172c-0.99388,-0.11946 -0.88345,-1.19464 -0.88345,-1.19464l0.11111,-1.08179c0.1127,-1.09723 0.21759,-2.14096 0.21611,-3.24609c0,0 0,-1.08179 1,-1.08179c1,0 1,1.08179 1,1.08179c-0.00144,1.18487 -0.10755,2.30905 -0.22834,3.48502l-0.11111,1.08179c0,0 -0.11043,1.07516 -1.10432,0.9557z" fill="#a10000" stroke="none" stroke-width="0.5" stroke-linecap="butt"/><path d="M233.49707,136.36112c1,0 1,1 1,1c0,0.66666 0,2.16667 0,2.83334c-0.05731,5.14862 -4.22618,5.83936 -8.5,5.83333c-1.11675,-0.00158 -2.74787,-0.00759 -3.71233,-0.66199c-1.98353,-1.34585 -2.28078,-4.98308 -2.28767,-7.17133c0,0 0,-1 1,-1c1,0 1,1 1,1c-0.00507,1.36575 0.08365,4.66131 1.379,5.49533c3.0154,1.9415 9.18143,0.43454 9.121,-3.49533c0,-0.66666 0,-1.33334 0,-2v-0.83334c0,0 0,-1 1,-1z" fill="#ffffff" stroke="none" stroke-width="0.5" stroke-linecap="butt"/><path d="M258.49707,138.69447c1,0 1,1 1,1c0,1.05555 0,2.44445 0,3.5c-0.01024,0.91977 0.11694,1.94096 -0.62622,2.7071c-1.7884,1.8437 -7.94217,1.14257 -10.278,0.95705c-0.68009,-0.05402 -2.51673,-0.32614 -2.96955,-0.79038c-1.31681,-1.35002 -0.64821,-5.04217 -0.26304,-6.61631c0,0 0.24254,-0.97014 1.21268,-0.72761c0.97015,0.24254 0.7276,1.21268 0.7276,1.21268c-0.18662,0.72795 -0.90545,4.12607 -0.26304,4.71703c0.38794,0.35686 2.11848,0.20771 2.62623,0.2071c2.11399,-0.00254 7.8753,1.0624 7.83334,-1.66666c0,-1.05555 0,-2.11112 0,-3.16667v-0.33333c0,0 0,-1 1,-1z" fill="#ffffff" stroke="none" stroke-width="0.5" stroke-linecap="butt"/><path d="M226.49707,141.5278c-1,0 -1,-1 -1,-1l0.03848,-1.10805c0.48569,-1.64382 0.36534,-3.36521 0.6418,-5.05635c0,0 0.1644,-0.9864 1.15079,-0.822c0.98639,0.1644 0.822,1.15079 0.822,1.15079c-0.30275,1.77643 -0.20591,3.53011 -0.69154,5.27699l0.03848,0.55861c0,0 0,1 -1,1z" fill="#ffffff" stroke="none" stroke-width="0.5" stroke-linecap="butt"/><path d="M252.18084,143.47645c-0.94869,-0.31623 -0.63246,-1.26491 -0.63246,-1.26491l0.31151,-0.92482c0.35908,-2.14916 -0.34718,-3.97988 -0.36282,-6.09228c0,0 0,-1 1,-1c1,0 1,1 1,1c-0.02135,2.27081 0.69344,4.2326 0.30384,6.57439l-0.35516,1.07518c0,0 -0.31623,0.94868 -1.26492,0.63245z" fill="#ffffff" stroke="none" stroke-width="0.5" stroke-linecap="butt"/><path d="M234.33041,131.69446c0,0.5954 -0.35451,0.8363 -0.64138,0.93377c-0.11132,0.04278 -0.23224,0.06623 -0.35862,0.06623h-0.66667c-4.04797,-0.01503 -8.13184,0.4873 -12.16666,0.5c0,0 -1,0 -1,-1c0,-1 1,-1 1,-1c4.02851,0.01496 8.12327,-0.48727 12.16666,-0.5h0.66667c0,0 0.16369,0 0.35862,0.06623c0.28687,0.09746 0.64138,0.33836 0.64138,0.93377z" fill="#ffffff" stroke="none" stroke-width="0.5" stroke-linecap="butt"/><path d="M260.49707,132.5278c0,1 -1,1 -1,1c-4.16666,0 -8.66667,0 -12.83334,0c0,0 -1,0 -1,-1c0,-1 1,-1 1,-1c4.16666,0 8.33334,0 12.5,0h0.33333c0,0 1,0 1,1z" fill="#ffffff" stroke="none" stroke-width="0.5" stroke-linecap="butt"/><path d="M219.49707,135.19447c0,-0.55229 0.44771,-1 1,-1c0.55229,0 1,0.44771 1,1c0,0.55229 -0.44771,1 -1,1c-0.55229,0 -1,-0.44771 -1,-1z" fill="#ffffff" stroke="none" stroke-width="0.5" stroke-linecap="butt"/><path d="M232.33041,134.19446c0,-0.55228 0.44771,-1 1,-1c0.55229,0 1,0.44772 1,1c0,0.55229 -0.44771,1 -1,1c-0.55229,0 -1,-0.44771 -1,-1z" fill="#ffffff" stroke="none" stroke-width="0.5" stroke-linecap="butt"/><path d="M245.49707,136.19447c0,-0.55229 0.44771,-1 1,-1c0.55229,0 1,0.44771 1,1c0,0.55229 -0.44771,1 -1,1c-0.55229,0 -1,-0.44771 -1,-1z" fill="#ffffff" stroke="none" stroke-width="0.5" stroke-linecap="butt"/><path d="M257.49707,135.86112c0,-0.55229 0.44772,-1 1,-1c0.55228,0 1,0.44771 1,1c0,0.55229 -0.44772,1 -1,1c-0.55228,0 -1,-0.44771 -1,-1z" fill="#ffffff" stroke="none" stroke-width="0.5" stroke-linecap="butt"/><path d="M226.16374,121.86113c0,-0.55228 0.44771,-1 1,-1c0.55229,0 1,0.44772 1,1c0,0.55228 -0.44771,1 -1,1c-0.55229,0 -1,-0.44772 -1,-1z" fill="#ffffff" stroke="none" stroke-width="0.5" stroke-linecap="butt"/><path d="M252.83041,121.19447c0,-0.55228 0.44771,-1 1,-1c0.55229,0 1,0.44772 1,1c0,0.55228 -0.44771,1 -1,1c-0.55229,0 -1,-0.44772 -1,-1z" fill="#ffffff" stroke="none" stroke-width="0.5" stroke-linecap="butt"/><path d="M203.18084,194.17091c-0.94868,-0.31623 -0.63246,-1.26491 -0.63246,-1.26491l0.3219,-0.96336c1.38154,-5.39829 1.29389,-14.03765 6.84624,-16.94817c0,0 0.89443,-0.44721 1.34164,0.44721c0.44721,0.89443 -0.44721,1.34164 -0.44721,1.34164c-1.78267,0.83165 -2.13005,2.13677 -2.86603,3.84346c-1.59187,3.69143 -1.98256,7.91369 -2.95439,11.87503l-0.34477,1.03664c0,0 -0.31623,0.94868 -1.26491,0.63246z" fill="#ffffff" stroke="none" stroke-width="0.5" stroke-linecap="butt"/><path d="M274.18083,189.17091c-0.94868,-0.31623 -0.63246,-1.26491 -0.63246,-1.26491l0.29493,-0.84395c-0.03921,-4.57467 -1.67922,-5.82369 -4.45292,-9.20583c-0.95547,-1.16506 -0.58472,-2.46696 -2.13586,-2.66385c0,0 -0.97014,-0.24254 -0.72761,-1.21268c0.24254,-0.97014 1.21268,-0.72761 1.21268,-0.72761c2.39955,0.75499 1.74143,1.62113 3.19747,3.33615c1.84487,2.173 4.06831,3.81869 4.86657,6.73757c0.28591,1.04545 0.02103,3.03944 0.01384,4.0566l-0.37174,1.15605c0,0 -0.31623,0.94868 -1.26491,0.63246z" fill="#ffffff" stroke="none" stroke-width="0.5" stroke-linecap="butt"/></g></g></svg>