<svg version="1.1" xmlns="http://www.w3.org/2000/svg" xmlns:xlink="http://www.w3.org/1999/xlink" width="116.83333" height="231.04374" viewBox="0,0,116.83333,231.04374"><defs><radialGradient cx="226.5228" cy="120.45701" r="10.5" gradientUnits="userSpaceOnUse" id="color-1"><stop offset="0" stop-color="#00ddff"/><stop offset="1" stop-color="#00ddff" stop-opacity="0"/></radialGradient><radialGradient cx="264.15875" cy="118.04035" r="10.5" gradientUnits="userSpaceOnUse" id="color-2"><stop offset="0" stop-color="#67ff8f"/><stop offset="1" stop-color="#67ff8f" stop-opacity="0"/></radialGradient></defs><g transform="translate(-183.45042,-63.97735)"><g data-paper-data="{&quot;isPaintingLayer&quot;:true}" fill-rule="nonzero" stroke-linecap="butt" stroke-linejoin="miter" stroke-miterlimit="10" stroke-dasharray="" stroke-dashoffset="0" style="mix-blend-mode: normal"><path d="M258.74192,186.85649c-0.57113,0 -1.03411,-0.46299 -1.03411,-1.03411c0,-0.57113 0.46299,-1.03413 1.03411,-1.03413c0.57113,0 1.03411,0.463 1.03411,1.03413c0,0.57113 -0.46299,1.03411 -1.03411,1.03411z" data-paper-data="{&quot;index&quot;:null}" fill="#000000" stroke="none" stroke-width="1.5"/><path d="M253.48206,191.09209c-4.4635,-0.31439 -6.55245,-1.79392 -6.16985,-2.58011c0.11788,-0.24224 2.84645,1.06355 6.97038,1.3048c6.40897,0.37493 8.51033,-0.63173 8.51033,-0.63173v1.34616c0,0 -2.4135,1.04672 -9.31086,0.56089z" data-paper-data="{&quot;index&quot;:null}" fill="#000000" stroke="#000000" stroke-width="0"/><path d="M225.66932,185.82237c0,-0.57113 0.46299,-1.03413 1.03411,-1.03413c0.57113,0 1.03413,0.463 1.03413,1.03413c0,0.57113 -0.463,1.03411 -1.03413,1.03411c-0.57113,0 -1.03411,-0.46299 -1.03411,-1.03411z" data-paper-data="{&quot;index&quot;:null}" fill="#000000" stroke="none" stroke-width="1.5"/><path d="M231.96328,191.09209c-6.89736,0.48585 -9.31086,-0.56089 -9.31086,-0.56089v-1.34616c0,0 2.10136,1.00666 8.51033,0.63173c4.12393,-0.24126 6.85251,-1.54704 6.97039,-1.3048c0.3826,0.78618 -1.70634,2.26571 -6.16985,2.58011z" data-paper-data="{&quot;index&quot;:null}" fill="#000000" stroke="#000000" stroke-width="0"/><path d="M221.59944,145.52109v149.5h-26.5v-149.5z" data-paper-data="{&quot;index&quot;:null}" fill="#49b666" stroke="none" stroke-width="0"/><path d="M292.59944,144.02107v149.5h-26.5v-149.5z" data-paper-data="{&quot;index&quot;:null}" fill="#49b666" stroke="none" stroke-width="0"/><path d="M267.09944,143.52109v150.5h-49.5v-150.5z" data-paper-data="{&quot;index&quot;:null}" fill="#49b666" stroke="#000000" stroke-width="1.5"/><g stroke="none" stroke-width="0"><g><path d="M273.03375,70.20703c15.04976,0 27.25,12.08831 27.25,27c0,14.91169 -12.20024,27 -27.25,27c-15.04976,0 -27.25,-12.08831 -27.25,-27c0,-14.91169 12.20024,-27 27.25,-27z" fill="#49b666"/><path d="M275.78375,76.04037c10.21727,0 18.5,8.65583 18.5,19.33333c0,10.6775 -8.28273,19.33333 -18.5,19.33333c-10.21727,0 -18.5,-8.65583 -18.5,-19.33333c0,-10.6775 8.28273,-19.33333 18.5,-19.33333z" fill="#cdffda"/></g><g data-paper-data="{&quot;index&quot;:null}"><path d="M237.95042,99.20703c0,14.91169 -12.20024,27 -27.25,27c-15.04976,0 -27.25,-12.08831 -27.25,-27c0,-14.91169 12.20024,-27 27.25,-27c15.04976,0 27.25,12.08831 27.25,27z" fill="#49b666"/><path d="M226.45042,97.3737c0,10.6775 -8.28273,19.33333 -18.5,19.33333c-10.21727,0 -18.5,-8.65583 -18.5,-19.33333c0,-10.6775 8.28273,-19.33333 18.5,-19.33333c10.21727,0 18.5,8.65583 18.5,19.33333z" fill="#cdffda"/></g></g><path d="M234.99168,77.25963c23.5943,-5.28691 46.97967,9.43156 52.23269,32.87462c5.25302,23.44306 -9.61554,46.73329 -33.20984,52.0202c-23.5943,5.28691 -46.97967,-9.43156 -52.23269,-32.87462c-5.25302,-23.44306 9.61554,-46.73329 33.20984,-52.0202z" fill="#49b666" stroke="none" stroke-width="0"/><path d="M241.59944,167.97889c12.15026,0 22,23.61698 22,52.75c0,29.13302 -9.84974,52.75 -22,52.75c-12.15026,0 -22,-23.61698 -22,-52.75c0,-29.13302 9.84974,-52.75 22,-52.75z" fill="#cdffda" stroke="none" stroke-width="0"/><path d="M225.99207,104.04036c7.43283,0 13.45833,5.74568 13.45833,12.83333c0,7.08766 -6.02549,12.83334 -13.45833,12.83334c-7.43284,0 -13.45834,-5.74569 -13.45834,-12.83334c0,-7.08766 6.0255,-12.83333 13.45834,-12.83333z" fill="#006271" stroke="#000000" stroke-width="2"/><path d="M225.61707,113.4987c2.27818,0 4.125,2.18261 4.125,4.875c0,2.69239 -1.84682,4.875 -4.125,4.875c-2.27818,0 -4.125,-2.18261 -4.125,-4.875c0,-2.69239 1.84682,-4.875 4.125,-4.875z" fill="#ababab" stroke="#000000" stroke-width="2"/><path d="M225.86707,102.29036c7.22572,0 12.91666,6.41282 12.91666,14.32343c0,0.09761 -26,0.15318 -26,0c0,-7.91062 5.85761,-14.32343 13.08334,-14.32343z" fill="#49b666" stroke="#000000" stroke-width="2"/><path d="M235.49207,132.37371c0,-2.27818 3.80558,-4.125 8.5,-4.125c4.69442,0 8.5,1.84682 8.5,4.125c0,1.13584 -0.94597,2.16446 -2.47644,2.91042c-1.53923,0.75024 -8.82793,1.03978 -10.01899,0.73139c-1.03317,-0.26751 -1.93913,-0.63552 -2.66244,-1.07716c-1.1532,-0.70411 -1.84213,-1.59535 -1.84213,-2.56466z" fill="#000000" stroke="none" stroke-width="0"/><path d="M264.99207,104.29036c7.43283,0 13.45833,5.74568 13.45833,12.83333c0,7.08766 -6.02549,12.83334 -13.45833,12.83334c-7.43283,0 -13.45833,-5.74569 -13.45833,-12.83334c0,-7.08766 6.02549,-12.83333 13.45833,-12.83333z" fill="#00e306" stroke="#000000" stroke-width="2"/><path d="M263.95039,113.91535c2.27817,0 4.125,2.18261 4.125,4.875c0,2.69239 -1.84683,4.875 -4.125,4.875c-2.27817,0 -4.125,-2.18261 -4.125,-4.875c0,-2.69239 1.84683,-4.875 4.125,-4.875z" fill="#ababab" stroke="#000000" stroke-width="2"/><path d="M264.86707,102.79036c7.22572,0 12.91666,6.41282 12.91666,14.32343c0,0.09761 -26,0.15318 -26,0c0,-7.91062 5.85761,-14.32343 13.08334,-14.32343z" fill="#49b666" stroke="#000000" stroke-width="2"/><path d="M226.5228,109.95701c5.0396,0 9.125,4.70101 9.125,10.5c0,5.79899 -4.0854,10.5 -9.125,10.5c-5.0396,0 -9.125,-4.70101 -9.125,-10.5c0,-5.79899 4.0854,-10.5 9.125,-10.5z" fill="url(#color-1)" stroke="none" stroke-width="0"/><path d="M264.15875,107.54035c5.0396,0 9.125,4.70101 9.125,10.5c0,5.79899 -4.0854,10.5 -9.125,10.5c-5.0396,0 -9.125,-4.70101 -9.125,-10.5c0,-5.79899 4.0854,-10.5 9.125,-10.5z" fill="url(#color-2)" stroke="none" stroke-width="0"/><path d="M220.00858,142.78922c1.56122,-1.56122 3.12245,-0.36482 3.46596,-0.06394c9.1243,0.02811 18.34638,0.40175 27.43546,-0.32697c3.6445,-0.2922 7.79574,-0.10277 10.95933,-2.01193c0,0 2.17061,-1.24035 3.41096,0.93026c1.24035,2.17061 -0.93026,3.41096 -0.93026,3.41096c-4.08261,2.24563 -8.43546,2.2871 -13.04067,2.65474c-9.5667,0.76372 -19.27108,0.34132 -28.86635,0.34132l-2.43443,-1.3989c0,0 -1.76777,-1.76777 0,-3.53553z" fill="#000000" stroke="none" stroke-width="0.5"/><g data-paper-data="{&quot;index&quot;:null}" stroke="#000000" stroke-width="1"><path d="M256.12262,77.79155c-6.06187,-3.9153 -7.40748,-12.61424 -7.40748,-12.61424c0,0 8.48263,-2.35098 14.54451,1.56432c6.06187,3.9153 9.37832,9.56289 7.40748,12.61424c-1.97084,3.05135 -8.48263,2.35098 -14.54451,-1.56432z" fill="#5fbd00"/><path d="M287.73803,80.36051c-7.03615,1.60265 -13.35358,0.20839 -14.11036,-3.11416c-0.75679,-3.32255 4.33364,-7.31521 11.36979,-8.91786c7.03615,-1.60265 14.11036,3.11416 14.11036,3.11416c0,0 -4.33364,7.31521 -11.36979,8.91786z" fill="#5fbd00"/><path d="M271.06075,87.07373c-5.73064,0 -10.37624,-4.6456 -10.37624,-10.37624c0,-5.73064 4.6456,-10.37624 10.37624,-10.37624c5.73064,0 10.37624,4.6456 10.37624,10.37624c0,5.73064 -4.6456,10.37624 -10.37624,10.37624z" fill="#bd0000"/></g><path d="M269.82992,142.12665c0.23192,3.10779 -10.71402,6.45805 -24.44846,7.48301c-13.73444,1.02496 -25.05641,-0.66351 -25.28833,-3.7713c-0.23192,-3.10779 10.71402,-6.45805 24.44846,-7.48301c13.73444,-1.02496 25.05641,0.66351 25.28833,3.7713z" fill="#000000" stroke="none" stroke-width="0"/></g></g></svg>