<svg version="1.1" xmlns="http://www.w3.org/2000/svg" xmlns:xlink="http://www.w3.org/1999/xlink" width="114.53766" height="256.86991" viewBox="0,0,114.53766,256.86991"><defs><radialGradient cx="225.3519" cy="103.59097" r="7.17671" gradientUnits="userSpaceOnUse" id="color-1"><stop offset="0" stop-color="#7f91e0"/><stop offset="1" stop-color="#000000"/></radialGradient><radialGradient cx="252.3519" cy="103.59097" r="7.17671" gradientUnits="userSpaceOnUse" id="color-2"><stop offset="0" stop-color="#7f91e0"/><stop offset="1" stop-color="#000000"/></radialGradient></defs><g transform="translate(-183.42871,-40.61997)"><g data-paper-data="{&quot;isPaintingLayer&quot;:true}" fill-rule="nonzero" stroke-linejoin="miter" stroke-miterlimit="10" stroke-dasharray="" stroke-dashoffset="0" style="mix-blend-mode: normal"><g data-paper-data="{&quot;index&quot;:null}" stroke="none" stroke-width="0" stroke-linecap="butt"><path d="M187.53785,149.11949c1.71689,-4.2033 2.78427,-8.19572 6.87801,-11.84687c3.66422,-3.26808 8.84188,-7.66234 14.28581,-9.27791c3.40661,-1.01096 6.91748,0.0802 10.22704,0.0802c20.52659,0 37.16667,8.80506 37.16667,19.66666c0,10.8616 -20.66549,-13.31346 -36.83334,-0.66666c-6.87423,5.37715 -14.3696,13.66929 -20.71995,17.14865c-3.48323,1.90846 -6.62196,0.11373 -9.12473,0.06144c-3.68286,-0.07694 -5.98865,0.51153 -5.98865,-3.21009c0,-3.18517 2.36011,-7.67342 4.10915,-11.95542z" fill="#7f91e0"/><path d="M186.03742,153.06025c1.67793,0.57883 2.86391,2.21034 4.13891,2.58631c0.92719,0.2734 1.90147,-0.70612 3.14625,-0.36482c0.89214,0.24462 3.64167,-0.55833 4.48961,-1.02803c1.61907,-0.89685 1.27148,-2.85605 2.59142,-3.74623c0.77177,-0.5205 3.10082,-0.01738 4.11391,-0.46442c1.15931,-0.51155 4.45011,-3.51149 5.34204,-3.85656c4.36001,-1.68679 10.28899,-5.81304 14.24885,-6.85324c1.65717,-0.43531 3.37586,-0.77333 5.11712,-1.03704c0.19704,0.18378 4.82016,0.39531 8.76024,1.70468c3.34254,1.1108 14.75098,7.27841 18.23059,8.98376c-2.22037,6.55009 -21.41095,-14.14067 -36.62099,-2.24309c-6.87423,5.37715 -14.3696,13.66929 -20.71996,17.14865c-3.48323,1.90846 -6.62196,0.11373 -9.12473,0.06144c-3.68286,-0.07694 -5.98864,0.51153 -5.98864,-3.21009c0,-2.12862 1.05407,-4.83923 2.27538,-7.68133z" fill="#6b7abc"/></g><path d="M193.13845,297.48988v-256.86991h92.4945v256.86991z" fill-opacity="0.01" fill="#000000" stroke="none" stroke-width="0" stroke-linecap="butt"/><g stroke="none" stroke-width="0" stroke-linecap="butt"><path d="M297.96636,162.32492c0,3.72161 -2.30579,3.13315 -5.98865,3.21009c-2.50277,0.05229 -5.6415,1.84702 -9.12473,-0.06144c-6.35035,-3.47936 -13.84573,-11.7715 -20.71996,-17.14865c-16.16784,-12.64679 -36.83333,11.52827 -36.83333,0.66666c0,-10.8616 16.64008,-19.66666 37.16667,-19.66666c3.30955,0 6.82043,-1.09116 10.22704,-0.0802c5.44394,1.61557 10.62159,6.00983 14.28581,9.27791c4.09374,3.65115 5.16112,7.64357 6.87801,11.84687c1.74904,4.282 4.10915,8.77025 4.10915,11.95542z" fill="#7f91e0"/><path d="M297.63303,161.99158c0,3.72162 -2.30578,3.13315 -5.98864,3.21009c-2.50277,0.05229 -5.6415,1.84702 -9.12473,-0.06144c-6.35035,-3.47936 -13.84573,-11.7715 -20.71996,-17.14865c-15.21004,-11.89758 -34.40062,8.79318 -36.62099,2.24309c3.47961,-1.70534 14.88804,-7.87296 18.23059,-8.98376c3.94008,-1.30937 8.5632,-1.5209 8.76024,-1.70468c1.74126,0.26371 3.45996,0.60173 5.11712,1.03704c3.95986,1.0402 9.88885,5.16645 14.24885,6.85324c0.89193,0.34507 4.18272,3.34501 5.34204,3.85656c1.01309,0.44703 3.34213,-0.05608 4.11391,0.46442c1.31993,0.89018 0.97235,2.84939 2.59142,3.74623c0.84794,0.4697 3.59747,1.27265 4.48961,1.02803c1.24478,-0.34131 2.21906,0.63822 3.14625,0.36482c1.275,-0.37597 2.46098,-2.00747 4.13891,-2.58631c1.22132,2.8421 2.27538,5.5527 2.27538,7.68133z" fill="#6b7abc"/></g><path d="M198.96786,295.23701c0,0 -0.6445,-95.74244 -0.80476,-119.71067c-0.0553,-8.26997 8.30472,-37.29043 40.78067,-37.45253c32.05723,-0.16002 40.43042,29.91147 40.42243,37.42782c-0.07769,46.90836 0.66371,119.68477 0.66371,119.68477l-10.64776,0.09752l-0.1611,-116.49616c0,0 0.07658,-3.14391 -2.85678,-3.19954c-3.48385,-0.06608 -2.98778,3.16046 -2.98778,3.16046l0.20844,116.52337l-48.90765,0.07326l-0.30979,-116.89175c0,0 0.28351,-2.96102 -2.92714,-2.97667c-3.15561,-0.01536 -2.85622,2.95086 -2.85622,2.95086l0.3582,116.72306z" fill="#ffffff" stroke="#000000" stroke-width="2" stroke-linecap="butt"/><path d="M254.3509,189.68139c-0.57935,0 -1.049,-0.46966 -1.049,-1.049c0,-0.57935 0.46966,-1.04901 1.049,-1.04901c0.57935,0 1.049,0.46966 1.049,1.04901c0,0.57935 -0.46965,1.049 -1.049,1.049z" fill="#000000" stroke="none" stroke-width="1.5" stroke-linecap="butt"/><path d="M249.01531,193.97796c-4.52775,-0.31891 -6.64677,-1.81975 -6.25865,-2.61725c0.11957,-0.24573 2.88743,1.07886 7.07071,1.32358c6.50122,0.38033 8.63282,-0.64082 8.63282,-0.64082v1.36553c0,0 -2.44824,1.06179 -9.44488,0.56896z" fill="#000000" stroke="#000000" stroke-width="0" stroke-linecap="butt"/><path d="M220.80223,188.6324c0,-0.57935 0.46966,-1.04901 1.049,-1.04901c0.57935,0 1.04901,0.46966 1.04901,1.04901c0,0.57935 -0.46966,1.049 -1.04901,1.049c-0.57935,0 -1.049,-0.46966 -1.049,-1.049z" fill="#000000" stroke="none" stroke-width="1.5" stroke-linecap="butt"/><path d="M227.1868,193.97796c-6.99664,0.49284 -9.44487,-0.56896 -9.44487,-0.56896v-1.36553c0,0 2.1316,1.02115 8.63282,0.64082c4.18329,-0.24473 6.95115,-1.56931 7.07072,-1.32358c0.38811,0.79749 -1.7309,2.29832 -6.25865,2.61724z" fill="#000000" stroke="#000000" stroke-width="0" stroke-linecap="butt"/><path d="M238.62965,251.34368c-0.83074,0 -1.50418,-0.67345 -1.50418,-1.50418c0,-0.83074 0.67345,-1.50418 1.50418,-1.50418c0.83074,0 1.50419,0.67345 1.50419,1.50418c0,0.83074 -0.67345,1.50418 -1.50419,1.50418z" data-paper-data="{&quot;index&quot;:null}" fill="#000000" stroke="none" stroke-width="1.5" stroke-linecap="butt"/><path d="M214.22002,295.25164v-120.91725c0,0 0.7681,-9.87111 0.7681,-14.8501c0,-4.56275 -0.7681,-13.88421 -0.7681,-13.88421c0,0 2.71167,-2.38684 4.72272,-3.80201c2.01104,-1.41518 5.24641,-2.84407 5.24641,-2.84407h28.79973c0,0 3.96909,1.54147 6.2546,2.98896c2.28552,1.44749 4.82222,3.65712 4.82222,3.65712c0,0 -0.76812,9.56029 -0.76812,14.39629c0,4.91162 0.76812,14.8501 0.76812,14.8501v120.40518z" fill="#009dff" stroke="#009dff" stroke-width="2" stroke-linecap="butt"/><path d="M193.79091,91.83935c0,0 6.25201,-6.0071 6.38218,-6.88531c0.34139,-2.30331 -0.17018,-40.75142 36.48547,-42.17223c45.27882,-0.92676 39.57646,35.85753 42.12867,42.79758c3.49947,9.51588 6.24526,17.65061 6.24526,17.65061c0,0 -2.80698,-2.08307 -4.13843,-3.17909c-1.24183,-1.02223 -3.85615,-3.19113 -3.85615,-3.19113c0,0 3.1356,10.49705 1.32978,20.99287c-1.58478,9.61746 -7.40287,17.47337 -7.40287,17.47337l-1.17185,-2.38115c0,0 -1.03739,2.22958 -2.19114,3.38071c-1.15377,1.15113 -3.48823,2.95466 -3.48823,2.95466l-0.09338,-3.75753c0,0 -7.16171,11.17655 -24.70115,11.02803c-16.54097,-0.25915 -26.44679,-10.82885 -26.44679,-10.82885l-0.11788,2.69304c0,0 -3.95082,-3.34016 -6.27043,-9.84727c-2.76468,-7.75571 -3.28609,-12.41947 -3.28609,-12.41947c0,0 -2.37275,1.9265 -5.79932,2.81433c-4.29371,1.11253 -7.04664,0.35022 -7.04664,0.35022c0,0 3.65988,-2.75629 5.66434,-4.83855c1.7854,-1.85472 2.68467,-3.42582 2.68467,-3.42582c0,0 -2.13791,1.10032 -4.29368,1.64124c-2.24931,0.56441 -4.08809,0.53857 -4.08809,0.53857c0,0 5.04653,-5.10978 7.13194,-11.03081c1.96896,-5.5904 2.12994,-11.11503 2.12994,-11.11503c0,0 -1.38125,0.67115 -3.37806,0.80657c-1.26572,0.08585 -2.41208,-0.04959 -2.41208,-0.04959z" fill="#000000" stroke="none" stroke-width="1.5" stroke-linecap="butt"/><path d="M210.81842,103.32394c-0.5854,-7.39821 0.33982,-17.40139 0.33982,-17.40139c0,0 3.45968,-0.04184 14.11457,-3.1895c8.18576,-2.41825 20.84307,-9.62377 20.84307,-9.62377c0,0 -2.19114,3.04828 -3.45686,4.52434c-1.3456,1.56924 -4.05039,4.62865 -4.05039,4.62865c0,0 7.95082,-1.6916 14.88598,-4.79738c8.6917,-3.58664 10.74498,-6.14021 13.13683,-4.6588c2.82296,1.74843 1.04489,23.51639 0.72881,29.15432c-0.4277,5.75083 -2.56973,9.63644 -3.19565,12.70075c-0.62592,3.06432 -0.4155,6.22495 -2.23798,16.27057c-1.13734,6.26917 -4.22172,9.05312 -10.16364,14.87184c-5.94191,5.81873 -9.1841,9.38594 -13.2009,9.45591c-3.86562,0.06735 -9.06427,-5.17361 -14.13601,-10.53189c-5.40056,-5.7057 -9.00263,-8.59915 -9.85535,-15.35767c-0.76797,-6.08675 -0.7877,-10.05116 -1.13882,-15.46783c-0.25663,-3.95891 -2.29373,-6.53781 -2.61344,-10.57811z" fill="#ffffff" stroke="#000000" stroke-width="1.5" stroke-linecap="butt"/><path d="M259.58033,87.98593c0,0 1.54623,0.32265 4.31706,1.12628c2.53083,0.73402 4.5134,1.76913 4.5134,1.76913l0.19789,1.1872c0,0 -7.35397,-3.17503 -15.33337,-2.50617c-6.38013,0.53482 -10.10661,2.85289 -10.10661,2.85289l0.04641,-4.23695c0,0 3.17249,-1.72874 7.97684,-1.88228c4.97488,-0.15897 8.2073,0.59976 8.2073,0.59976z" data-paper-data="{&quot;index&quot;:null}" fill="#000000" stroke="none" stroke-width="1.5" stroke-linecap="butt"/><path d="M246.63248,131.59225c0.57862,0.21491 3.12795,1.41956 6.11055,2.63322c3.00635,1.22333 7.31746,2.32595 7.29768,2.49592c-0.02512,0.21571 -10.58497,0.23021 -13.87627,0.64135c-2.75816,0.34453 -6.78494,0.71579 -6.78494,0.71579c0,0 -7.20627,-1.17841 -13.46339,-2.48041c-5.01487,-1.0435 -10.54898,-2.68498 -10.55979,-2.77986c-0.0146,-0.12795 3.92402,0.27905 6.9224,-0.41475c1.16234,-0.50376 5.51802,-1.50651 5.51802,-1.50651c0,0 5.02718,-0.28166 7.71777,0.58734c2.88294,0.93112 2.87627,2.48077 3.12748,2.5046c0,0 1.20141,-1.7745 2.40295,-2.1349c1.20156,-0.36039 5.15534,-0.42232 5.58756,-0.26179z" fill="#ffffff" stroke="#000000" stroke-width="1.4" stroke-linecap="butt"/><path d="M227.71607,136.21138c5.16441,1.04153 12.0891,2.84776 12.0891,2.84776c0,0 5.8731,-1.57824 8.56836,-1.86079c2.08957,-0.21907 11.37744,-0.7167 11.42234,-0.33858c0.0439,0.36972 -9.16117,13.08601 -21.45249,12.6263c-13.96774,-0.44204 -23.19371,-16.35345 -23.15532,-16.52502c0.03838,-0.17156 7.36358,2.20881 12.528,3.25034z" fill="#ffffff" stroke="#000000" stroke-width="1.9" stroke-linecap="butt"/><path d="M238.8483,133.1746c-1.04864,0 -3.58903,-3.30734 -3.84121,-5.44091c-0.22563,-1.90895 1.33405,-3.88309 3.84121,-3.88309c2.50716,0 4.26258,0.49783 4.088,4.24882c-0.14816,3.18335 -1.58084,5.07519 -4.088,5.07519z" fill="#ffffff" stroke="#000000" stroke-width="1.15" stroke-linecap="butt"/><path d="M242.50225,102.64773c0,0 0.10408,4.0269 0.00583,7.2292c-0.1945,6.3411 -1.09704,28.16029 -1.09704,28.16029l-3.02459,0.00876c0,0 -0.81449,-4.2328 -1.13938,-9.63653c-0.43977,-7.31443 -0.45598,-16.52773 -0.77444,-19.91487c-0.30186,-3.2107 -0.90882,-5.79678 -0.90882,-5.79678" fill="#ffffff" stroke="#000000" stroke-width="1.3" stroke-linecap="round"/><path d="M212.54252,113.59289c0,0 -5.00309,-3.56768 -6.25289,-9.1042c-1.31502,-5.8255 -1.48221,-9.87289 0.48704,-10.13575c1.96926,-0.26288 2.74212,2.41113 3.78635,8.47596c1.04422,6.06483 1.97952,10.76401 1.97952,10.76401z" data-paper-data="{&quot;index&quot;:null}" fill="#ffffff" stroke="#000000" stroke-width="1" stroke-linecap="butt"/><path d="M212.33702,109.58848c0,0 -3.61515,-2.96546 -4.38031,-8.57224c-0.42684,-3.12765 2.1878,-2.31297 2.1878,-2.31297" fill="none" stroke="#000000" stroke-width="0.25" stroke-linecap="round"/><path d="M215.39378,102.8368c0.07195,-4.96229 4.90798,-9.06472 10.35836,-8.9857c5.45036,0.07902 9.15718,4.30955 9.08524,9.27186c-0.07195,4.96229 -4.18287,8.92097 -9.63323,8.84196c-5.45036,-0.07902 -9.8823,-4.16582 -9.81035,-9.12812z" fill="#000000" stroke="#000000" stroke-width="1.4" stroke-linecap="butt"/><path d="M218.17519,103.59097c0,-3.96359 3.21312,-7.17671 7.17671,-7.17671c3.96359,0 7.17671,3.21312 7.17671,7.17671c0,3.96359 -3.2131,7.17671 -7.17671,7.17671c-3.96359,0 -7.17671,-3.21312 -7.17671,-7.17671z" fill="url(#color-1)" stroke="none" stroke-width="1.5" stroke-linecap="butt"/><path d="M242.83952,102.83752c0.20646,-4.95853 4.51673,-8.98597 9.91112,-8.98597c5.39437,0 9.40803,4.02315 9.40803,8.98597c0,4.96282 -3.94179,9.20161 -9.83926,9.27347c-5.60956,0.06836 -9.69549,-4.09503 -9.47989,-9.27347z" fill="#000000" stroke="#000000" stroke-width="1.4" stroke-linecap="butt"/><path d="M245.17519,103.59097c0,-3.96359 3.21312,-7.17671 7.17671,-7.17671c3.96359,0 7.17671,3.21312 7.17671,7.17671c0,3.96359 -3.2131,7.17671 -7.17671,7.17671c-3.96359,0 -7.17671,-3.21312 -7.17671,-7.17671z" fill="url(#color-2)" stroke="none" stroke-width="1.5" stroke-linecap="butt"/><path d="M215.32438,102.29695c0,0 0.06448,-9.14487 10.7537,-8.95193c9.60733,0.16825 9.69308,9.54264 9.69308,9.54264z" fill="#ffffff" stroke="#000000" stroke-width="1.15" stroke-linecap="butt"/><path d="M242.45642,102.42973c0,0 -0.25042,-9.59434 11.35931,-9.23423c9.8541,0.33827 9.68419,9.79122 9.68419,9.79122z" fill="#ffffff" stroke="#000000" stroke-width="1.15" stroke-linecap="butt"/><path d="M218.90503,92.14119c0,0 3.41813,-1.84518 8.14807,-2.31462c5.24136,-0.5202 7.88004,-0.06723 7.88004,-0.06723l0.29932,4.19703c0,0 -3.89074,-0.69045 -8.13336,-0.52862c-5.67397,0.21641 -6.74053,1.45356 -11.0546,1.91841c-3.69653,0.39832 -6.83421,0.16113 -6.83421,0.16113l-0.02627,-1.24927c0,0 3.64692,0.07505 5.30904,-0.06934c1.37186,-0.11919 4.03294,-0.95158 4.03294,-0.95158z" fill="#000000" stroke="none" stroke-width="1.5" stroke-linecap="butt"/><path d="M267.55631,102.82886c1.04422,-6.06483 1.81708,-8.73883 3.78635,-8.47596c1.96926,0.26288 1.80205,4.31025 0.48703,10.13575c-1.2498,5.53653 -6.25289,9.10421 -6.25289,9.10421c0,0 0.93529,-4.69918 1.97952,-10.76401z" data-paper-data="{&quot;index&quot;:null}" fill="#ffffff" stroke="#000000" stroke-width="1" stroke-linecap="butt"/><path d="M267.97481,98.70328c0,0 2.61464,-0.81468 2.18779,2.31297c-0.76516,5.60678 -4.38031,8.57224 -4.38031,8.57224" data-paper-data="{&quot;index&quot;:null}" fill="none" stroke="#000000" stroke-width="0.25" stroke-linecap="round"/><path d="M213.24422,296.02352v-19c0,0 16.50635,6 25,6c8.82686,0 27,-6 27,-6v19z" fill="#007ac5" stroke="none" stroke-width="0" stroke-linecap="butt"/><g><path d="M267.20172,296.21551c0,0 0,-94.15151 0,-110.703c0,-4.80379 -2.66666,-9.29701 -2.66666,-9.29701c0,0 -1.48356,-1.55229 -1.63373,-3.10403c-0.45018,-4.65185 1.30039,-27.89597 1.30039,-27.89597c0,0 16.2391,9.48567 18.76083,30.99172c3.20279,27.3143 2.90584,120.34162 2.90584,120.34162z" fill="#009dff" stroke="none" stroke-width="0" stroke-linecap="butt"/><path d="M267.0283,263.67747v-21h18.27332c0,0 0.54268,5.398 0.57825,8.50475c0.04312,3.76572 -0.09737,12.49525 -0.09737,12.49525z" fill="#0028e0" stroke="none" stroke-width="0" stroke-linecap="butt"/><path d="M267.2783,225.42747v-21h17.30442c0,0 0.51391,5.398 0.54759,8.50475c0.04083,3.76572 -0.09222,12.49525 -0.09222,12.49525z" fill="#0028e0" stroke="none" stroke-width="0" stroke-linecap="butt"/><path d="M267.50445,234.8663h17.75" fill="none" stroke="#0028e0" stroke-width="1" stroke-linecap="round"/></g><g data-paper-data="{&quot;index&quot;:null}"><path d="M192.51369,295.88217c0,0 -0.29695,-93.02731 2.90584,-120.34161c2.52173,-21.50604 18.76083,-30.99171 18.76083,-30.99171c0,0 1.75057,23.24412 1.30039,27.89597c-0.15017,1.55174 -1.63373,3.10403 -1.63373,3.10403c0,0 -2.66666,4.49322 -2.66666,9.29701c0,16.55149 0,110.70299 0,110.70299z" fill="#009dff" stroke="none" stroke-width="0" stroke-linecap="butt"/><path d="M192.59959,263.67747c0,0 -0.14049,-8.72954 -0.09737,-12.49525c0.03557,-3.10674 0.57825,-8.50475 0.57825,-8.50475h18.27332v21z" fill="#0028e0" stroke="none" stroke-width="0" stroke-linecap="butt"/><path d="M193.34399,225.42747c0,0 -0.13304,-8.72954 -0.09221,-12.49525c0.03368,-3.10674 0.54759,-8.50475 0.54759,-8.50475h17.30442v21z" fill="#0028e0" stroke="none" stroke-width="0" stroke-linecap="butt"/><path d="M210.87764,234.86631h-17.75" fill="none" stroke="#0028e0" stroke-width="1" stroke-linecap="round"/></g><path d="M215.81802,291.33229c0,0 2.75319,-8.41156 3.31746,-13.79538c0.56427,-5.38383 0.63609,-11.20462 0.63609,-11.20462h39.0929c0,0 -0.29912,7.86034 0.12712,11.92721c0.44624,4.2577 2.49309,13.07279 2.49309,13.07279z" fill="#0028e0" stroke="none" stroke-width="NaN" stroke-linecap="butt"/><path d="M192.7012,296.14652v-29l18.66667,8.66666v20.33334z" fill="#007ac5" stroke="none" stroke-width="0" stroke-linecap="butt"/><path d="M267.03453,296.14652v-20.33334l18.66667,-8.66666v29z" data-paper-data="{&quot;index&quot;:null}" fill="#007ac5" stroke="none" stroke-width="0" stroke-linecap="butt"/><g fill="none" stroke="#7f91e0" stroke-width="1.5" stroke-linecap="round"><g><path d="M254.99959,117.24197l-4.16667,9.83334"/><path d="M257.16626,124.07531l-8.16667,-4"/></g><g><path d="M257.82211,119.5702l-9.43087,5.01142"/><path d="M255.19967,126.24191l-3.82211,-8.25143"/></g></g></g></g></svg>