<svg version="1.1" xmlns="http://www.w3.org/2000/svg" xmlns:xlink="http://www.w3.org/1999/xlink" width="34.17311" height="34.17311" viewBox="0,0,34.17311,34.17311"><defs><linearGradient x1="224.37061" y1="183.59387" x2="255.05623" y2="183.59387" gradientUnits="userSpaceOnUse" id="color-1"><stop offset="0" stop-color="#1dff00"/><stop offset="1" stop-color="#ff0000"/></linearGradient><linearGradient x1="232.3443" y1="178.86591" x2="249.96096" y2="178.86591" gradientUnits="userSpaceOnUse" id="color-2"><stop offset="0" stop-color="#1dff00"/><stop offset="1" stop-color="#ff0000"/></linearGradient></defs><g transform="translate(-222.91348,-162.9135)"><g data-paper-data="{&quot;isPaintingLayer&quot;:true}" stroke-miterlimit="10" stroke-dasharray="" stroke-dashoffset="0" style="mix-blend-mode: normal"><path d="M229.98315,162.9135h20.03378c3.9166,0 7.06966,3.15307 7.06966,7.06966v20.03379c0,3.91659 -3.15306,7.06966 -7.06966,7.06966h-20.03378c-3.91659,0 -7.06967,-3.15307 -7.06967,-7.06966v-20.03379c0,-3.91659 3.15308,-7.06966 7.06967,-7.06966z" fill="#ffffff" fill-rule="evenodd" stroke="none" stroke-width="4.43922" stroke-linecap="round" stroke-linejoin="round"/><g fill-rule="nonzero" stroke="#000000" stroke-width="1" stroke-linecap="butt" stroke-linejoin="miter"><path d="M224.37061,178.68476l0.49089,-1.61263l30.19473,11.43084l-0.49089,1.61264z" fill="url(#color-1)"/><path d="M232.3443,180.06839l2.47677,-8.13649l15.13989,5.73152l-2.47677,8.13649z" fill="url(#color-2)"/><path d="M232.3443,180.06839l0.97063,-3.18862l15.13989,5.73152l-0.97063,3.18862z" fill="#ffffff"/></g></g></g></svg>