<svg version="1.1" xmlns="http://www.w3.org/2000/svg" xmlns:xlink="http://www.w3.org/1999/xlink" width="154.08353" height="275.63026" viewBox="0,0,154.08353,275.63026"><defs><linearGradient x1="168.78876" y1="142.89788" x2="208.78876" y2="142.89788" gradientUnits="userSpaceOnUse" id="color-1"><stop offset="0" stop-color="#f00000"/><stop offset="1" stop-color="#00ff48"/></linearGradient><linearGradient x1="272.1221" y1="143.03678" x2="313.1221" y2="143.03678" gradientUnits="userSpaceOnUse" id="color-2"><stop offset="0" stop-color="#f00000"/><stop offset="1" stop-color="#00ff48"/></linearGradient><linearGradient x1="173.87211" y1="140.98815" x2="205.12211" y2="140.98815" gradientUnits="userSpaceOnUse" id="color-3"><stop offset="0" stop-color="#f00000"/><stop offset="1" stop-color="#00ff48"/></linearGradient><linearGradient x1="275.8721" y1="141.61315" x2="307.8721" y2="141.61315" gradientUnits="userSpaceOnUse" id="color-4"><stop offset="0" stop-color="#f00000"/><stop offset="1" stop-color="#00ff48"/></linearGradient><linearGradient x1="228.66376" y1="171.58487" x2="253.33044" y2="171.58487" gradientUnits="userSpaceOnUse" id="color-5"><stop offset="0" stop-color="#f00000"/><stop offset="1" stop-color="#00ff48"/></linearGradient><linearGradient x1="203.49781" y1="181.31801" x2="212.1834" y2="181.31801" gradientUnits="userSpaceOnUse" id="color-6"><stop offset="0" stop-color="#f00000"/><stop offset="1" stop-color="#00ff48"/></linearGradient><linearGradient x1="267.48798" y1="177.98924" x2="276.9361" y2="177.98924" gradientUnits="userSpaceOnUse" id="color-7"><stop offset="0" stop-color="#f00000"/><stop offset="1" stop-color="#00ff48"/></linearGradient><linearGradient x1="221.49709" y1="121.45343" x2="235.99709" y2="121.45343" gradientUnits="userSpaceOnUse" id="color-8"><stop offset="0" stop-color="#f00000"/><stop offset="1" stop-color="#00ff48"/></linearGradient><linearGradient x1="226.99709" y1="117.7843" x2="229.66043" y2="117.7843" gradientUnits="userSpaceOnUse" id="color-9"><stop offset="0" stop-color="#f00000"/><stop offset="1" stop-color="#00ff48"/></linearGradient><linearGradient x1="220.9971" y1="112.20341" x2="235.83043" y2="112.20341" gradientUnits="userSpaceOnUse" id="color-10"><stop offset="0" stop-color="#f00000"/><stop offset="1" stop-color="#00ff48"/></linearGradient><linearGradient x1="247.16375" y1="112.78674" x2="261.99709" y2="112.78674" gradientUnits="userSpaceOnUse" id="color-11"><stop offset="0" stop-color="#f00000"/><stop offset="1" stop-color="#00ff48"/></linearGradient><linearGradient x1="220.99709" y1="115.45341" x2="222.99709" y2="115.45341" gradientUnits="userSpaceOnUse" id="color-12"><stop offset="0" stop-color="#f00000"/><stop offset="1" stop-color="#00ff48"/></linearGradient><linearGradient x1="233.83043" y1="114.45341" x2="235.83043" y2="114.45341" gradientUnits="userSpaceOnUse" id="color-13"><stop offset="0" stop-color="#f00000"/><stop offset="1" stop-color="#00ff48"/></linearGradient><linearGradient x1="246.34493" y1="123.17371" x2="260.99957" y2="123.17371" gradientUnits="userSpaceOnUse" id="color-14"><stop offset="0" stop-color="#f00000"/><stop offset="1" stop-color="#00ff48"/></linearGradient><linearGradient x1="252.99709" y1="119.12668" x2="255.41734" y2="119.12668" gradientUnits="userSpaceOnUse" id="color-15"><stop offset="0" stop-color="#f00000"/><stop offset="1" stop-color="#00ff48"/></linearGradient><linearGradient x1="246.99709" y1="116.45341" x2="248.99709" y2="116.45341" gradientUnits="userSpaceOnUse" id="color-16"><stop offset="0" stop-color="#f00000"/><stop offset="1" stop-color="#00ff48"/></linearGradient><linearGradient x1="258.99709" y1="116.12007" x2="260.99709" y2="116.12007" gradientUnits="userSpaceOnUse" id="color-17"><stop offset="0" stop-color="#f00000"/><stop offset="1" stop-color="#00ff48"/></linearGradient></defs><g transform="translate(-163.95825,-26.62857)"><g data-paper-data="{&quot;isPaintingLayer&quot;:true}" fill-rule="nonzero" stroke-linejoin="miter" stroke-miterlimit="10" stroke-dasharray="" stroke-dashoffset="0" style="mix-blend-mode: normal"><path d="M201.66746,301.15056c0,0 -0.63536,-94.38387 -0.79335,-118.01201c-0.05451,-8.15261 8.18688,-36.76129 40.20201,-36.9211c31.60235,-0.15775 39.85672,29.48704 39.84884,36.89673c-0.07659,46.24274 0.65429,117.98648 0.65429,117.98648l-10.49667,0.09614l-0.15882,-114.84311c0,0 0.07549,-3.0993 -2.81625,-3.15415c-3.43441,-0.06514 -2.94538,3.11562 -2.94538,3.11562l0.20548,114.86995l-48.21366,0.07222l-0.30539,-115.23309c0,0 0.27949,-2.919 -2.8856,-2.93443c-3.11083,-0.01515 -2.81569,2.90899 -2.81569,2.90899l0.35311,115.0668z" fill="#000000" stroke="#dedede" stroke-width="2" stroke-linecap="butt"/><path d="M256.26459,197.09277c-0.57113,0 -1.03411,-0.46299 -1.03411,-1.03411c0,-0.57113 0.46299,-1.03413 1.03411,-1.03413c0.57113,0 1.03411,0.463 1.03411,1.03413c0,0.57113 -0.46299,1.03411 -1.03411,1.03411z" fill="#000000" stroke="none" stroke-width="1.5" stroke-linecap="butt"/><path d="M251.00476,201.32836c-4.4635,-0.31439 -6.55245,-1.79392 -6.16985,-2.58011c0.11788,-0.24224 2.84645,1.06355 6.97038,1.3048c6.40897,0.37493 8.51033,-0.63173 8.51033,-0.63173v1.34616c0,0 -2.4135,1.04672 -9.31086,0.56089z" fill="#000000" stroke="#000000" stroke-width="0" stroke-linecap="butt"/><path d="M223.192,196.05866c0,-0.57113 0.46299,-1.03413 1.03411,-1.03413c0.57113,0 1.03413,0.463 1.03413,1.03413c0,0.57113 -0.463,1.03411 -1.03413,1.03411c-0.57113,0 -1.03411,-0.46299 -1.03411,-1.03411z" fill="#000000" stroke="none" stroke-width="1.5" stroke-linecap="butt"/><path d="M229.48599,201.32836c-6.89736,0.48585 -9.31086,-0.56089 -9.31086,-0.56089v-1.34616c0,0 2.10136,1.00666 8.51033,0.63173c4.12393,-0.24126 6.85251,-1.54704 6.97039,-1.3048c0.3826,0.78618 -1.70634,2.26571 -6.16985,2.58011z" fill="#000000" stroke="#000000" stroke-width="0" stroke-linecap="butt"/><path d="M240.76645,257.88007c-0.81895,0 -1.48284,-0.66389 -1.48284,-1.48284c0,-0.81895 0.66389,-1.48284 1.48284,-1.48284c0.81895,0 1.48284,0.66389 1.48284,1.48284c0,0.81895 -0.66389,1.48284 -1.48284,1.48284z" data-paper-data="{&quot;index&quot;:null}" fill="#000000" stroke="none" stroke-width="1.5" stroke-linecap="butt"/><path d="M216.70319,301.16498v-119.20147c0,0 0.75721,-9.73105 0.75721,-14.63937c0,-4.498 -0.75721,-13.6872 -0.75721,-13.6872c0,0 2.67319,-2.35297 4.6557,-3.74807c1.98251,-1.3951 5.17197,-2.80371 5.17197,-2.80371c0,0 -0.6016,40.10902 14.55952,40.03867c15.43477,-0.07162 13.83154,-40.03867 13.83154,-40.03867c0,0 3.91276,1.51959 6.16585,2.94655c2.25309,1.42695 4.75379,3.60523 4.75379,3.60523c0,0 -0.75721,9.42463 -0.75721,14.19201c0,4.84193 0.75721,14.63937 0.75721,14.63937v118.69667z" fill="#444444" stroke="#d2d2d2" stroke-width="2" stroke-linecap="butt"/><path d="M201.45543,177.98121l-1.33333,-3.55556l-31.33333,-66.6111l40,52" fill="none" stroke="url(#color-1)" stroke-width="2" stroke-linecap="round"/><path d="M272.1221,160.42566l41,-52l-32,66l-1,3.22223" fill="none" stroke="url(#color-2)" stroke-width="2" stroke-linecap="round"/><path d="M173.87211,115.73815l31.25,50.5" fill="none" stroke="url(#color-3)" stroke-width="2" stroke-linecap="round"/><path d="M307.8721,116.98815l-32,49.25" fill="none" stroke="url(#color-4)" stroke-width="2" stroke-linecap="round"/><path d="M225.04742,199.8609c0.08489,-0.08694 0.14088,-0.1336 0.14088,-0.1336c2.91134,-2.42294 7.20444,-6.31169 11.47234,-5.18742c1.50185,0.39562 2.85636,1.35162 3.97779,2.42609c1.38619,1.32815 0.49111,2.92489 2.45867,3.26563c2.45511,0.42517 8.35602,-1.35524 10.12609,0.64848c3.93395,4.45325 -2.71847,12.5837 -6.68921,14.35648c-0.13487,0.06021 -2.91336,0.70322 -4.93587,1.0456c1.69436,0.52624 3.86239,1.28598 4.12859,1.98772c0.74374,1.96057 -2.68655,7.63522 -4.3864,8.56108c-2.40096,1.30774 -8.1155,0.7029 -10.88487,0.65023c-1.50646,-0.02865 -3.12047,0.41451 -4.51773,-0.14932c-1.43075,-0.57734 -2.83787,-1.66051 -3.46293,-3.07106c-0.59511,-1.34296 0.11896,-2.93559 0.15043,-4.40416c0.04073,-1.90116 -0.24453,-5.17354 0.86787,-6.75772c0.47741,-0.67988 1.60804,-0.41848 2.41562,-0.61334c0.62201,-0.15008 -1.32869,0.01966 -1.90098,-0.26653c-3.04408,-1.52221 -3.9625,-2.04512 -4.64635,-5.63984c-0.28397,-1.49273 -0.81528,-3.24833 -0.04525,-4.55827c0.74826,-1.27292 2.61879,-1.36485 3.92818,-2.04727z" fill="#000000" stroke="none" stroke-width="0.5" stroke-linecap="butt"/><path d="M253.33043,165.62007c0,1 -1,1 -1,1h-0.33334c-0.91536,0 -3.52709,-0.45437 -4.24454,0.32187c-0.59572,0.64453 -0.08879,3.67661 -0.08879,4.51147c0,4.50936 -1.47674,6.4373 -5.91752,7.16325c-2.62784,0 -5.52169,-0.85215 -6.06957,-3.83641c-0.30069,-1.63786 -0.38189,-3.34837 -0.66666,-5c-0.12246,-0.71025 0.1594,-1.70293 -0.62377,-2.20177c-1.39781,-0.89033 -3.13603,-0.96121 -4.72248,-0.95841c0,0 -1,0 -1,-1c0,-1 1,-1 1,-1c2.34083,0.00375 5.58087,0.19815 6.87842,2.52212c2.00923,3.59862 -0.83603,9.48129 5.0391,9.48129c0.78566,-0.1339 2.76129,-0.16737 3.32703,-0.82528c2.26469,-2.63366 -0.87651,-7.64959 1.33333,-10.16666c1.28836,-1.4675 4.04651,-1.01147 5.75546,-1.01147h0.33334c0,0 1,0 1,1z" fill="url(#color-5)" stroke="none" stroke-width="0.5" stroke-linecap="butt"/><path d="M204.18085,190.92986c-0.94868,-0.31623 -0.63246,-1.26491 -0.63246,-1.26491l0.3219,-0.96336c1.38154,-5.39829 1.29389,-14.03765 6.84624,-16.94817c0,0 0.89443,-0.44721 1.34164,0.44721c0.44721,0.89443 -0.44721,1.34164 -0.44721,1.34164c-1.78267,0.83165 -2.13005,2.13677 -2.86603,3.84346c-1.59187,3.69143 -1.98256,7.91369 -2.95439,11.87503l-0.34477,1.03664c0,0 -0.31623,0.94868 -1.26491,0.63246z" fill="url(#color-6)" stroke="none" stroke-width="0.5" stroke-linecap="butt"/><path d="M275.18084,185.92986c-0.94868,-0.31623 -0.63246,-1.26491 -0.63246,-1.26491l0.29493,-0.84395c-0.03921,-4.57467 -1.67922,-5.82369 -4.45292,-9.20583c-0.95547,-1.16506 -0.58472,-2.46696 -2.13586,-2.66385c0,0 -0.97014,-0.24254 -0.72761,-1.21268c0.24254,-0.97014 1.21268,-0.72761 1.21268,-0.72761c2.39955,0.75499 1.74143,1.62113 3.19747,3.33615c1.84487,2.173 4.06831,3.81869 4.86657,6.73757c0.28591,1.04545 0.02103,3.03944 0.01384,4.0566l-0.37174,1.15605c0,0 -0.31623,0.94868 -1.26491,0.63246z" fill="url(#color-7)" stroke="none" stroke-width="0.5" stroke-linecap="butt"/><g><path d="M196.40901,293.37147v-253.22501h91.18203v253.22501z" fill-opacity="0.01" fill="#000000" stroke="none" stroke-width="0" stroke-linecap="butt"/><path d="M197.56398,90.63911c0,0 6.16329,-5.92187 6.29161,-6.78761c0.33654,-2.27063 -0.16776,-40.17317 35.96775,-41.57382c44.63633,-0.91362 39.01489,35.34872 41.53088,42.1903c3.44981,9.38084 6.15664,17.40016 6.15664,17.40016c0,0 -2.76715,-2.05351 -4.0797,-3.13397c-1.2242,-1.00773 -3.80143,-3.14585 -3.80143,-3.14585c0,0 3.09111,10.3481 1.31092,20.69498c-1.5623,9.48098 -7.29782,17.22543 -7.29782,17.22543l-1.15522,-2.34735c0,0 -1.02266,2.19794 -2.16005,3.33274c-1.1374,1.13479 -3.43873,2.91273 -3.43873,2.91273l-0.09205,-3.70421c0,0 -7.0601,11.01795 -24.35066,10.87154c-16.30625,-0.25547 -26.07151,-10.6752 -26.07151,-10.6752l-0.1162,2.65484c0,0 -3.89477,-3.29276 -6.18145,-9.70754c-2.72545,-7.64567 -3.23946,-12.24324 -3.23946,-12.24324c0,0 -2.33908,1.89916 -5.71704,2.7744c-4.23278,1.09673 -6.94665,0.34526 -6.94665,0.34526c0,0 3.60795,-2.71717 5.58396,-4.76989c1.76007,-1.8284 2.64658,-3.37722 2.64658,-3.37722c0,0 -2.10758,1.0847 -4.23277,1.61795c-2.21739,0.5564 -4.03008,0.53093 -4.03008,0.53093c0,0 4.97492,-5.03728 7.03074,-10.87429c1.94102,-5.51108 2.09972,-10.95731 2.09972,-10.95731c0,0 -1.36165,0.66163 -3.33013,0.79513c-1.24776,0.08463 -2.37785,-0.0489 -2.37785,-0.0489z" fill="#51a82f" stroke="#ffffff" stroke-width="0.5" stroke-linecap="butt"/><path d="M214.34986,101.96073c-0.57709,-7.29323 0.335,-17.15448 0.335,-17.15448c0,0 3.41059,-0.04124 13.91429,-3.14424c8.0696,-2.38394 20.54731,-9.48722 20.54731,-9.48722c0,0 -2.16005,3.00503 -3.40781,4.46015c-1.32651,1.54696 -3.99292,4.56297 -3.99292,4.56297c0,0 7.838,-1.66761 14.67476,-4.72931c8.56837,-3.53575 10.59252,-6.05309 12.95042,-4.5927c2.7829,1.72362 1.03006,23.1827 0.71846,28.74062c-0.42163,5.66922 -2.53327,9.49969 -3.15031,12.52053c-0.61704,3.02084 -0.4096,6.13662 -2.20622,16.0397c-1.12121,6.18021 -4.16183,8.92466 -10.01942,14.66081c-5.85759,5.73616 -9.05378,9.25275 -13.01359,9.32173c-3.81077,0.06639 -8.93565,-5.1002 -13.93542,-10.38244c-5.32393,-5.62474 -8.87489,-8.47713 -9.71551,-15.13975c-0.75707,-6.00039 -0.77653,-9.90853 -1.12266,-15.24835c-0.25298,-3.90273 -2.26119,-6.44504 -2.57636,-10.42801z" fill="#000000" stroke="#2e5e1a" stroke-width="1.5" stroke-linecap="butt"/><path d="M262.41985,86.84037c0,0 1.52429,0.31807 4.2558,1.11029c2.49492,0.72361 4.44935,1.74403 4.44935,1.74403l0.1951,1.17035c0,0 -7.24963,-3.12997 -15.1158,-2.4706c-6.2896,0.52724 -9.96319,2.8124 -9.96319,2.8124l0.04575,-4.17683c0,0 3.12748,-1.70421 7.86366,-1.85557c4.90428,-0.15672 8.09084,0.59125 8.09084,0.59125z" data-paper-data="{&quot;index&quot;:null}" fill="#51a82f" stroke="none" stroke-width="1.5" stroke-linecap="butt"/><path d="M241.98201,131.3878c-1.03376,0 -3.5381,-3.26042 -3.7867,-5.3637c-0.22243,-1.88186 1.31512,-3.82799 3.7867,-3.82799c2.47159,0 4.2021,0.49077 4.02999,4.18853c-0.14607,3.13818 -1.55841,5.00317 -4.02999,5.00317z" fill="#000000" stroke="#2e5e1a" stroke-width="1.15" stroke-linecap="butt"/><path d="M216.0495,112.08395c0,0 -4.93211,-3.51705 -6.16417,-8.97502c-1.29636,-5.74284 -1.46118,-9.7328 0.48013,-9.99193c1.94131,-0.25915 2.70321,2.37692 3.73262,8.35569c1.0294,5.97877 1.95143,10.61127 1.95143,10.61127z" data-paper-data="{&quot;index&quot;:null}" fill="#444444" stroke="#2e5e1a" stroke-width="1" stroke-linecap="butt"/><path d="M215.84691,108.13639c0,0 -3.56385,-2.92338 -4.31816,-8.45061c-0.42079,-3.08327 2.15675,-2.28016 2.15675,-2.28016" fill="none" stroke="#51a82f" stroke-width="0.25" stroke-linecap="round"/><path d="M218.86032,101.48049c0.07093,-4.89188 4.83834,-8.93609 10.21137,-8.8582c5.37302,0.0779 9.02724,4.2484 8.95632,9.14029c-0.07093,4.89188 -4.12352,8.79439 -9.49655,8.7165c-5.37302,-0.0779 -9.74207,-4.1067 -9.67114,-8.99859z" fill="#444444" stroke="#000000" stroke-width="1.4" stroke-linecap="butt"/><path d="M223.29794,101.59843c0.03999,-2.75843 2.30855,-4.96213 5.06696,-4.92214c2.75843,0.03999 4.96213,2.30855 4.92214,5.06696c-0.03999,2.75843 -2.30854,4.96213 -5.06696,4.92214c-2.75843,-0.03999 -4.96213,-2.30855 -4.92214,-5.06696z" fill="#a10000" stroke="none" stroke-width="1.5" stroke-linecap="butt"/><path d="M245.91658,101.48122c0.20353,-4.88817 4.45264,-8.85847 9.77048,-8.85847c5.31783,0 9.27453,3.96607 9.27453,8.85847c0,4.8924 -3.88585,9.07104 -9.69964,9.14188c-5.52997,0.06739 -9.55792,-4.03692 -9.34537,-9.14188z" fill="#444444" stroke="#000000" stroke-width="1.4" stroke-linecap="butt"/><path d="M250.51934,101.56677c0,-2.81845 2.2848,-5.10325 5.10325,-5.10325c2.81845,0 5.10325,2.2848 5.10325,5.10325c0,2.81845 -2.28479,5.10325 -5.10325,5.10325c-2.81845,0 -5.10325,-2.2848 -5.10325,-5.10325z" fill="#a10000" stroke="none" stroke-width="1.5" stroke-linecap="butt"/><path d="M218.79188,100.94831c0,0 0.06357,-9.01512 10.60111,-8.8249c9.47101,0.16586 9.55554,9.40723 9.55554,9.40723z" fill="#000000" stroke="#000000" stroke-width="1.15" stroke-linecap="butt"/><path d="M245.53895,101.07921c0,0 -0.24686,-9.4582 11.19813,-9.1032c9.71427,0.33347 9.54677,9.65229 9.54677,9.65229z" fill="#000000" stroke="#000000" stroke-width="1.15" stroke-linecap="butt"/><path d="M222.32174,90.93665c0,0 3.36963,-1.819 8.03244,-2.28178c5.16698,-0.51283 7.76823,-0.06628 7.76823,-0.06628l0.29508,4.13747c0,0 -3.83554,-0.68065 -8.01795,-0.52113c-5.59346,0.21333 -6.64488,1.43293 -10.89774,1.89119c-3.64408,0.39266 -6.73723,0.15884 -6.73723,0.15884l-0.02589,-1.23155c0,0 3.59517,0.07398 5.23371,-0.06836c1.35239,-0.11749 3.9757,-0.93808 3.9757,-0.93808z" fill="#51a82f" stroke="none" stroke-width="1.5" stroke-linecap="butt"/><path d="M270.28265,101.47268c1.0294,-5.97877 1.7913,-8.61483 3.73262,-8.35569c1.94131,0.25914 1.77649,4.24909 0.48013,9.99193c-1.23206,5.45797 -6.16417,8.97502 -6.16417,8.97502c0,0 0.92203,-4.6325 1.95143,-10.61127z" data-paper-data="{&quot;index&quot;:null}" fill="#444444" stroke="#2e5e1a" stroke-width="1" stroke-linecap="butt"/><path d="M270.6952,97.40562c0,0 2.57754,-0.80312 2.15675,2.28016c-0.75431,5.52723 -4.31816,8.45061 -4.31816,8.45061" data-paper-data="{&quot;index&quot;:null}" fill="none" stroke="#51a82f" stroke-width="0.25" stroke-linecap="round"/><path d="M234.99709,116.62007c1,0 1,1 1,1c0,0.66666 0,2.16667 0,2.83334c-0.05731,5.14862 -4.22618,5.83936 -8.5,5.83333c-1.11675,-0.00158 -2.74787,-0.00759 -3.71233,-0.66199c-1.98353,-1.34585 -2.28078,-4.98308 -2.28767,-7.17133c0,0 0,-1 1,-1c1,0 1,1 1,1c-0.00507,1.36575 0.08365,4.66131 1.379,5.49533c3.0154,1.9415 9.18143,0.43454 9.121,-3.49533c0,-0.66666 0,-1.33334 0,-2v-0.83334c0,0 0,-1 1,-1z" fill="url(#color-8)" stroke="none" stroke-width="0.5" stroke-linecap="butt"/><path d="M227.99709,121.78672c-1,0 -1,-1 -1,-1l0.03848,-1.10805c0.48569,-1.64382 0.36534,-3.36521 0.6418,-5.05635c0,0 0.1644,-0.9864 1.15079,-0.822c0.98639,0.1644 0.822,1.15079 0.822,1.15079c-0.30275,1.77643 -0.20591,3.53011 -0.69154,5.27699l0.03848,0.55861c0,0 0,1 -1,1z" fill="url(#color-9)" stroke="none" stroke-width="0.5" stroke-linecap="butt"/><path d="M235.83043,111.95341c0,0.5954 -0.35451,0.8363 -0.64138,0.93377c-0.11132,0.04278 -0.23224,0.06623 -0.35862,0.06623h-0.66667c-4.04797,-0.01503 -8.13184,0.4873 -12.16666,0.5c0,0 -1,0 -1,-1c0,-1 1,-1 1,-1c4.02851,0.01496 8.12327,-0.48727 12.16666,-0.5h0.66667c0,0 0.16369,0 0.35862,0.06623c0.28687,0.09746 0.64138,0.33836 0.64138,0.93377z" fill="url(#color-10)" stroke="none" stroke-width="0.5" stroke-linecap="butt"/><path d="M261.99709,112.78674c0,1 -1,1 -1,1c-4.16666,0 -8.66667,0 -12.83334,0c0,0 -1,0 -1,-1c0,-1 1,-1 1,-1c4.16666,0 8.33334,0 12.5,0h0.33333c0,0 1,0 1,1z" fill="url(#color-11)" stroke="none" stroke-width="0.5" stroke-linecap="butt"/><path d="M220.99709,115.45341c0,-0.55229 0.44771,-1 1,-1c0.55229,0 1,0.44771 1,1c0,0.55229 -0.44771,1 -1,1c-0.55229,0 -1,-0.44771 -1,-1z" fill="url(#color-12)" stroke="none" stroke-width="0.5" stroke-linecap="butt"/><path d="M233.83043,114.45341c0,-0.55228 0.44771,-1 1,-1c0.55229,0 1,0.44772 1,1c0,0.55229 -0.44771,1 -1,1c-0.55229,0 -1,-0.44771 -1,-1z" fill="url(#color-13)" stroke="none" stroke-width="0.5" stroke-linecap="butt"/><path d="M259.99709,118.95341c1,0 1,1 1,1c0,1.05555 0,2.44445 0,3.5c-0.01024,0.91977 0.11694,1.94096 -0.62622,2.7071c-1.7884,1.8437 -7.94217,1.14257 -10.278,0.95705c-0.68009,-0.05402 -2.51673,-0.32614 -2.96955,-0.79038c-1.31681,-1.35002 -0.64821,-5.04217 -0.26304,-6.61631c0,0 0.24254,-0.97014 1.21268,-0.72761c0.97015,0.24254 0.7276,1.21268 0.7276,1.21268c-0.18662,0.72795 -0.90545,4.12607 -0.26304,4.71703c0.38794,0.35686 2.11848,0.20771 2.62623,0.2071c2.11399,-0.00254 7.8753,1.0624 7.83334,-1.66666c0,-1.05555 0,-2.11112 0,-3.16667v-0.33333c0,0 0,-1 1,-1z" fill="url(#color-14)" stroke="none" stroke-width="0.5" stroke-linecap="butt"/><path d="M253.68085,123.7354c-0.94869,-0.31623 -0.63246,-1.26491 -0.63246,-1.26491l0.31151,-0.92482c0.35908,-2.14916 -0.34718,-3.97988 -0.36282,-6.09228c0,0 0,-1 1,-1c1,0 1,1 1,1c-0.02135,2.27081 0.69344,4.2326 0.30384,6.57439l-0.35516,1.07518c0,0 -0.31623,0.94868 -1.26492,0.63245z" fill="url(#color-15)" stroke="none" stroke-width="0.5" stroke-linecap="butt"/><path d="M246.99709,116.45341c0,-0.55229 0.44771,-1 1,-1c0.55229,0 1,0.44771 1,1c0,0.55229 -0.44771,1 -1,1c-0.55229,0 -1,-0.44771 -1,-1z" fill="url(#color-16)" stroke="none" stroke-width="0.5" stroke-linecap="butt"/><path d="M258.99709,116.12007c0,-0.55229 0.44772,-1 1,-1c0.55228,0 1,0.44771 1,1c0,0.55229 -0.44772,1 -1,1c-0.55228,0 -1,-0.44771 -1,-1z" fill="url(#color-17)" stroke="none" stroke-width="0.5" stroke-linecap="butt"/><path d="M227.16376,103.12007c0,-0.55228 0.44771,-1 1,-1c0.55229,0 1,0.44772 1,1c0,0.55228 -0.44771,1 -1,1c-0.55229,0 -1,-0.44772 -1,-1z" fill="#00ff48" stroke="none" stroke-width="0.5" stroke-linecap="butt"/><path d="M254.33043,103.45341c0,-0.55228 0.44771,-1 1,-1c0.55229,0 1,0.44772 1,1c0,0.55228 -0.44771,1 -1,1c-0.55229,0 -1,-0.44772 -1,-1z" fill="#00ff48" stroke="none" stroke-width="0.5" stroke-linecap="butt"/><g stroke="#f7f7f7" stroke-width="1" stroke-linecap="butt"><path d="M278.38176,65.56597l-66.94516,8.44975c0,0 -1.81289,11.50712 -3.3004,19.3644c-1.73289,9.15343 -6.47363,32.26374 -6.47363,32.26374c0,0 -24.95944,-73.67116 9.00417,-90.58031c58.08168,-28.91657 67.71501,30.50242 67.71501,30.50242z" fill="#ff0000"/><path d="M211.43664,74.01573c0,0 1.12581,-8.96554 6.19519,-19.36375c1.90004,-3.89731 7.70185,-8.30618 7.70185,-8.30618c0,0 -4.25255,9.19801 -5.42695,13.50341c-1.22346,4.48525 -4.0291,13.1727 -4.0291,13.1727z" fill="#f00000"/><path d="M194.75225,118.87447c0,-3.97226 3.22016,-7.19242 7.19242,-7.19242c3.97226,0 7.19242,3.22016 7.19242,7.19242c0,3.97226 -3.22016,7.19243 -7.19242,7.19243c-3.97226,0 -7.19242,-3.22016 -7.19242,-7.19243z" fill="#f0f0f0"/></g><g stroke="none" stroke-linecap="butt"><g><path d="M260.66872,136.84386c0,0 -1.31658,8.69454 -6.78994,13.49456c-2.50722,2.1988 -7.2018,2.72378 -12.13585,2.84575c-4.61812,0.11415 -9.30539,-0.98992 -11.86393,-3.05871c-6.42657,-5.19635 -7.26869,-14.31578 -7.26869,-14.31578c0,0 10.71228,-7.4238 14.88236,-7.69605c1.28949,-0.08418 4.78505,2.80565 4.78505,2.80565c0,0 3.41388,-3.89742 7.36557,-1.788c4.35182,2.32301 11.02543,7.7126 11.02543,7.7126z" fill="#2e5e1a" stroke-width="0"/><path d="M244.97388,130.55857c0.98978,-1.08249 4.48186,-0.21946 7.49153,1.90623c5.11038,3.62154 4.97855,3.98429 -0.6166,3.53162c-2.76731,-0.25585 -8.72518,-1.13697 -9.29079,-1.31412c-0.90895,-0.39367 1.60786,-3.33637 2.41584,-4.12366z" data-paper-data="{&quot;noHover&quot;:false,&quot;origItem&quot;:[&quot;Path&quot;,{&quot;applyMatrix&quot;:true,&quot;segments&quot;:[[[703.96647,351.30549],[0,0],[-0.3125,0.3045]],[[704.15397,352.98025],[-0.35156,-0.15226],[0.21876,0.06852]],[[706.48991,353.27713],[-1.07032,-0.09896],[2.16406,0.17508]],[[706.67741,352.02867],[1.97656,1.40072],[-1.16406,-0.82216]],[[703.96647,351.30547],[0.38282,-0.41868],[0,0]]],&quot;closed&quot;:true}]}" fill="#000000" stroke-width="0.5"/><path d="M230.34659,132.58073c4.08026,-2.38154 7.0451,-2.96701 9.1862,-1.80577c0.62616,0.39367 4.29,2.07799 4.29,2.90462c0,1.49587 -3.52526,1.17117 -8.99921,1.62383c-8.38263,0.64953 -9.20358,0.11157 -4.47698,-2.72264z" data-paper-data="{&quot;noHover&quot;:false,&quot;origItem&quot;:[&quot;Path&quot;,{&quot;applyMatrix&quot;:true,&quot;segments&quot;:[[[698.31819,352.05153],[0,0],[-1.82812,1.0962]],[[699.91975,353.00309],[-3.24218,0.25122],[2.11718,-0.17508]],[[702.13069,352.22661],[0,0.57856],[0,-0.31972]],[[701.67757,351.38161],[0.24218,0.15226],[-0.82812,-0.44914]],[[698.31819,352.05151],[1.57814,-0.92112],[0,0]]],&quot;closed&quot;:true}]}" fill="#000000" stroke-width="0.5"/><path d="M244.29516,137.13484c-0.92912,0.1181 -3.10207,0.11906 -4.21301,0.00095c-1.11099,-0.13775 -0.24883,-0.48309 1.77106,-0.48309c2.0401,0 3.37112,0.34439 2.44194,0.48215z" data-paper-data="{&quot;noHover&quot;:false,&quot;origItem&quot;:[&quot;Path&quot;,{&quot;applyMatrix&quot;:true,&quot;segments&quot;:[[[702.72435,353.70345],[0.78906,0],[-0.78124,0]],[[702.08373,353.80241],[-0.4297,-0.05328],[0.42968,0.04568]],[[703.51341,353.80241],[-0.35936,0.04568],[0.35938,-0.05328]]],&quot;closed&quot;:true}]}" fill="#000000" stroke-width="0.5"/><path d="M235.90111,140.45203c0,-0.70853 1.85473,-0.7782 8.07604,-0.26648c5.83751,0.51177 5.55883,1.79683 -0.42012,1.79683c-4.78724,0 -7.65598,-0.62491 -7.65598,-1.53029z" data-paper-data="{&quot;noHover&quot;:false,&quot;origItem&quot;:[&quot;Path&quot;,{&quot;applyMatrix&quot;:true,&quot;segments&quot;:[[[700.46647,355.09653],[0,0],[0,0.35018]],[[703.24773,355.62179],[-1.85158,0],[2.3125,0]],[[703.39617,355.02039],[2.2578,0.19794],[-2.40624,-0.19792]],[[700.46649,355.09651],[0,-0.27404],[0,0]]],&quot;closed&quot;:true}]}" fill="#000000" stroke-width="0.5"/><path d="M226.42892,136.76426c1.23215,0.17715 4.17563,1.72899 5.97337,3.20516c3.61566,2.97197 5.60297,3.67862 9.74379,3.67862c4.54477,0 6.50941,-0.47356 8.85249,-2.79605c2.14109,-2.06663 7.20015,-4.26537 7.9273,-3.43873c0.26258,0.19686 -0.6526,2.71247 -1.94535,5.42863c-3.39346,7.02654 -4.62612,7.74657 -14.96807,7.4907c-11.25091,-0.39367 -13.62127,-1.91973 -16.57033,-9.96971c-0.68675,-1.86978 -1.21898,-3.58884 -1.21898,-3.7266c0,-0.13781 0.97362,-0.06888 2.20576,0.12793z" data-paper-data="{&quot;noHover&quot;:false,&quot;origItem&quot;:[&quot;Path&quot;,{&quot;applyMatrix&quot;:true,&quot;segments&quot;:[[[696.79473,353.70345],[0,0],[-0.47656,-0.07612]],[[695.94317,353.65017],[0,-0.0533],[0,0.05328]],[[696.41973,355.07371],[-0.26562,-0.72318],[1.14062,3.11352]],[[702.72441,358.81147],[-4.35156,-0.15226],[4,0.09896]],[[708.41973,356.01767],[-1.3125,2.71768],[0.5,-1.05054]],[[709.17755,353.94705],[0.10156,0.07614],[-0.28124,-0.31972]],[[706.30255,355.21835],[0.82812,-0.79932],[-0.90624,0.89828]],[[702.87287,356.36785],[1.7578,0],[-1.60156,0]],[[698.91975,354.86819],[1.39844,1.14948],[-0.69532,-0.57094]],[[696.79475,353.70347],[0.47656,0.06852],[0,0]]],&quot;closed&quot;:true}]}" fill="#000000" stroke-width="0.5"/></g><path d="M232.33162,146.06765c-0.87692,-0.64274 -0.35795,-1.54732 -0.35795,-1.54732l0.52217,-0.91015c0.52963,-0.92314 1.03129,-1.8025 1.45792,-2.79426c0,0 0.41896,-0.97003 1.34783,-0.43111c0.92888,0.53891 0.50991,1.50894 0.50991,1.50894c-0.46022,1.06168 -0.99417,2.01253 -1.56181,3.00191l-0.52217,0.91015c0,0 -0.51898,0.90458 -1.39591,0.26183z" fill="#2e5e1a" stroke-width="0.5"/></g><path d="M245.58411,101.29411c0,0 0.1026,3.96976 0.00576,7.12662c-0.19174,6.25113 -1.08147,27.7607 -1.08147,27.7607l-2.98167,0.00864c0,0 -0.80294,-4.17274 -1.12322,-9.49979c-0.43353,-7.21063 -0.4495,-16.29321 -0.76344,-19.63229c-0.29758,-3.16513 -0.89593,-5.71453 -0.89593,-5.71453" fill="#000000" stroke="#2e5e1a" stroke-width="1.3" stroke-linecap="round"/></g></g></g></svg>