<svg version="1.1" xmlns="http://www.w3.org/2000/svg" xmlns:xlink="http://www.w3.org/1999/xlink" width="35.67311" height="35.67311" viewBox="0,0,35.67311,35.67311"><defs><linearGradient x1="240.00001" y1="162.91345" x2="240.00001" y2="197.08656" gradientUnits="userSpaceOnUse" id="color-1"><stop offset="0" stop-color="#00a1e3"/><stop offset="1" stop-color="#7f91e0"/></linearGradient><linearGradient x1="240.00001" y1="162.91345" x2="240.00001" y2="197.08656" gradientUnits="userSpaceOnUse" id="color-2"><stop offset="0" stop-color="#000000"/><stop offset="1" stop-color="#ffffff"/></linearGradient></defs><g transform="translate(-222.16345,-162.16345)"><g data-paper-data="{&quot;isPaintingLayer&quot;:true}" stroke-miterlimit="10" stroke-dasharray="" stroke-dashoffset="0" style="mix-blend-mode: normal"><path d="M229.98311,162.91345h20.03379c3.9166,0 7.06966,3.15307 7.06966,7.06966v20.03379c0,3.91659 -3.15306,7.06966 -7.06966,7.06966h-20.03379c-3.91659,0 -7.06966,-3.15307 -7.06966,-7.06966v-20.03379c0,-3.91659 3.15307,-7.06966 7.06966,-7.06966z" fill="url(#color-1)" fill-rule="evenodd" stroke="url(#color-2)" stroke-width="1.5" stroke-linecap="round" stroke-linejoin="round"/><g fill="#000000" fill-rule="nonzero" stroke="#ffffff" stroke-width="1" stroke-linejoin="miter"><path d="M230.24364,176.66537c0,0 3.41152,-3.56326 5.09926,-5.04555c1.60705,-1.41142 4.79696,-3.646 4.79696,-3.646c0,0 1.72304,-0.95444 3.76556,0.52818c0.34032,0.24703 1.51501,1.16457 2.40398,2.05255c0.8217,0.82079 1.36888,1.622 1.50415,1.71107c1.57631,1.03795 3.06624,0.51972 4.18923,1.68908c1.74578,1.81788 1.32682,3.90228 1.32682,3.90228c0,0 -0.76467,3.96611 -1.40702,5.8219c-0.71371,2.06195 -2.68374,5.99659 -2.68374,5.99659z" stroke-linecap="butt"/><path d="M251.95333,191.97776c-0.39831,0.58155 -0.4403,1.55542 -13.47565,-7.56138c-9.40482,-6.57765 -11.59389,-8.05567 -11.83902,-8.69348c-0.06903,-0.1796 0.17025,-0.35455 0.25777,-0.48233c0.39831,-0.58155 6.0674,2.18404 13.08024,6.98724c7.01284,4.8032 12.37497,9.16841 11.97665,9.74996z" stroke-linecap="butt"/><path d="M230.59698,176.36383c0,0 4.78424,2.43719 7.16356,3.97257c2.68762,1.73432 8.1112,5.70071 8.1112,5.70071" stroke-linecap="round"/></g></g></g></svg>