<svg version="1.1" xmlns="http://www.w3.org/2000/svg" xmlns:xlink="http://www.w3.org/1999/xlink" width="34.17311" height="34.17311" viewBox="0,0,34.17311,34.17311"><defs><linearGradient x1="227.09174" y1="180.2085" x2="253.56376" y2="180.2085" gradientUnits="userSpaceOnUse" id="color-1"><stop offset="0" stop-color="#35ff00"/><stop offset="1" stop-color="#ff0000"/></linearGradient><linearGradient x1="228.38808" y1="179.63457" x2="253.13121" y2="179.63457" gradientUnits="userSpaceOnUse" id="color-2"><stop offset="0" stop-color="#35ff00"/><stop offset="1" stop-color="#ff0000"/></linearGradient><linearGradient x1="224.43625" y1="187.23669" x2="251.29849" y2="187.23669" gradientUnits="userSpaceOnUse" id="color-3"><stop offset="0" stop-color="#35ff00"/><stop offset="1" stop-color="#ff0000"/></linearGradient><linearGradient x1="224.56262" y1="188.07526" x2="250.83536" y2="188.07526" gradientUnits="userSpaceOnUse" id="color-4"><stop offset="0" stop-color="#35ff00"/><stop offset="1" stop-color="#ff0000"/></linearGradient></defs><g transform="translate(-222.91345,-162.91345)"><g data-paper-data="{&quot;isPaintingLayer&quot;:true}" stroke-miterlimit="10" stroke-dasharray="" stroke-dashoffset="0" style="mix-blend-mode: normal"><path d="M229.98312,162.91346h20.03378c3.9166,0 7.06966,3.15307 7.06966,7.06966v20.03379c0,3.91659 -3.15306,7.06966 -7.06966,7.06966h-20.03378c-3.91659,0 -7.06967,-3.15307 -7.06967,-7.06966v-20.03379c0,-3.91659 3.15308,-7.06966 7.06967,-7.06966z" fill="#ffffff" fill-rule="evenodd" stroke="none" stroke-width="4.43922" stroke-linecap="round" stroke-linejoin="round"/><g fill-rule="nonzero" stroke="#000000" stroke-width="1" stroke-linejoin="miter"><g stroke-linecap="butt"><path d="M227.09174,182.62845l5.01516,-11.64225c0,0 4.80427,-3.82057 12.57856,-0.73378c8.32636,3.30599 8.8783,9.1924 8.8783,9.1924l-4.43473,11.92426z" fill="url(#color-1)"/><path d="M228.38808,182.71388l4.38027,-11.78612c0,0 4.14282,-3.76212 11.91711,-0.67533c8.32636,3.30599 8.44575,9.07508 8.44575,9.07508l-4.72473,10.90553z" fill="url(#color-2)"/></g><path d="M224.43625,182.48064l2.95436,-1.01656c0,0 2.55869,-0.32893 11.56032,3.33364c10.4089,4.23516 10.86348,5.50616 10.86348,5.50616l1.48408,2.71306c0,0 -8.67239,-3.88028 -13.10639,-5.61945c-4.51848,-1.7723 -13.75585,-4.91687 -13.75585,-4.91687z" fill="url(#color-3)" stroke-linecap="butt"/><path d="M224.56262,182.9366c0,0 6.56199,1.27069 13.65603,4.2261c7.55044,3.14555 12.61671,6.05122 12.61671,6.05122" fill="url(#color-4)" stroke-linecap="round"/></g></g></g></svg>