<svg version="1.1" xmlns="http://www.w3.org/2000/svg" xmlns:xlink="http://www.w3.org/1999/xlink" width="100" height="273.22121" viewBox="0,0,100,273.22121"><defs><linearGradient x1="214.89327" y1="165.55715" x2="214.89327" y2="232.54979" gradientUnits="userSpaceOnUse" id="color-1"><stop offset="0" stop-color="#ffd012"/><stop offset="1" stop-color="#7c6300"/></linearGradient><linearGradient x1="216.64408" y1="191.57631" x2="216.64408" y2="234.69102" gradientUnits="userSpaceOnUse" id="color-2"><stop offset="0" stop-color="#ffd012"/><stop offset="1" stop-color="#7c6300"/></linearGradient><linearGradient x1="212.61385" y1="217.59425" x2="212.61385" y2="285.58732" gradientUnits="userSpaceOnUse" id="color-3"><stop offset="0" stop-color="#ffd012"/><stop offset="1" stop-color="#7c6300"/></linearGradient><linearGradient x1="270.17194" y1="164.57758" x2="270.17194" y2="200.57352" gradientUnits="userSpaceOnUse" id="color-4"><stop offset="0" stop-color="#ffd012"/><stop offset="1" stop-color="#7c6300"/></linearGradient><linearGradient x1="270.4647" y1="190.59746" x2="270.4647" y2="226.5888" gradientUnits="userSpaceOnUse" id="color-5"><stop offset="0" stop-color="#ffd012"/><stop offset="1" stop-color="#7c6300"/></linearGradient><linearGradient x1="251.31319" y1="183.62844" x2="251.31319" y2="308.1454" gradientUnits="userSpaceOnUse" id="color-6"><stop offset="0" stop-color="#ffd012"/><stop offset="1" stop-color="#7c6300"/></linearGradient><linearGradient x1="244.51347" y1="123.68109" x2="244.51347" y2="184.95984" gradientUnits="userSpaceOnUse" id="color-7"><stop offset="0" stop-color="#ffd012"/><stop offset="1" stop-color="#7c6300"/></linearGradient><linearGradient x1="241.16638" y1="34.92419" x2="241.16638" y2="94.09106" gradientUnits="userSpaceOnUse" id="color-8"><stop offset="0" stop-color="#ffd012"/><stop offset="1" stop-color="#7c6300"/></linearGradient><linearGradient x1="240.83134" y1="87.55266" x2="240.83134" y2="98.24092" gradientUnits="userSpaceOnUse" id="color-9"><stop offset="0" stop-color="#ffd012"/><stop offset="1" stop-color="#7c6300"/></linearGradient></defs><g transform="translate(-190.70702,-34.92419)"><g data-paper-data="{&quot;isPaintingLayer&quot;:true}" fill-rule="nonzero" stroke-linejoin="miter" stroke-miterlimit="10" stroke-dasharray="" stroke-dashoffset="0" style="mix-blend-mode: normal"><path d="M201.54534,304.39158c0,0 -0.63536,-94.38387 -0.79335,-118.01201c-0.05451,-8.15261 8.18688,-36.76129 40.20201,-36.9211c31.60235,-0.15775 39.85672,29.48704 39.84884,36.89673c-0.07659,46.24274 0.65429,117.98648 0.65429,117.98648l-10.49667,0.09614l-0.15882,-114.84311c0,0 0.07549,-3.0993 -2.81625,-3.15415c-3.43441,-0.06514 -2.94538,3.11562 -2.94538,3.11562l0.20548,114.86995l-48.21366,0.07222l-0.30539,-115.23309c0,0 0.27949,-2.919 -2.8856,-2.93443c-3.11083,-0.01515 -2.81569,2.90899 -2.81569,2.90899l0.35311,115.0668z" fill="#ffffff" stroke="#000000" stroke-width="2" stroke-linecap="butt"/><path d="M216.58107,304.40601v-119.20147c0,0 0.75721,-9.73105 0.75721,-14.63937c0,-4.498 -0.75721,-13.6872 -0.75721,-13.6872c0,0 2.67319,-2.35297 4.6557,-3.74807c1.98251,-1.3951 5.17197,-2.80371 5.17197,-2.80371c0,0 -0.6016,40.10902 14.55952,40.03867c15.43477,-0.07162 13.83154,-40.03867 13.83154,-40.03867c0,0 3.91276,1.51959 6.16585,2.94655c2.25309,1.42695 4.75379,3.60523 4.75379,3.60523c0,0 -0.75721,9.42463 -0.75721,14.19201c0,4.84193 0.75721,14.63937 0.75721,14.63937v118.69667z" fill="#ffffff" stroke="#000000" stroke-width="2" stroke-linecap="butt"/><g><path d="M202.23024,305.93611c0,0 -0.63536,-94.38387 -0.79335,-118.01201c-0.05451,-8.15261 8.18688,-36.76129 40.20201,-36.9211c31.60235,-0.15775 39.85672,29.48704 39.84884,36.89673c-0.07659,46.24274 0.65429,117.98648 0.65429,117.98648l-10.49667,0.09614l-0.15882,-114.84311c0,0 0.07549,-3.0993 -2.81625,-3.15415c-3.43441,-0.06514 -2.94538,3.11562 -2.94538,3.11562l0.20548,114.86995l-48.21366,0.07222l-0.30539,-115.23309c0,0 0.27949,-2.919 -2.8856,-2.93443c-3.11083,-0.01515 -2.81569,2.90899 -2.81569,2.90899l0.35311,115.0668z" fill="#000000" stroke="#000000" stroke-width="2" stroke-linecap="butt"/><g stroke="none" stroke-width="0" stroke-linecap="butt"><path d="M226.11853,184.068c-0.29916,9.93662 14.8506,48.7628 5.46601,48.48025c-9.38459,-0.28254 -36.74977,-39.56682 -36.45061,-49.50344c0.29916,-9.93662 8.1494,-17.7628 17.53399,-17.48025c9.38459,0.28254 13.74978,8.56682 13.45061,18.50345z" fill="url(#color-1)"/><path d="M228.33611,210.05622c-0.23413,7.77625 13.18125,22.26823 6.96547,24.59611c-1.72684,0.64673 -21.57959,-7.02795 -23.49992,-7.08576c-8.83256,-0.26593 -15.75022,-8.53673 -15.45106,-18.47335c0.29916,-9.93662 7.70189,-17.77627 16.53444,-17.51034c4.7157,0.14198 8.88557,0.56574 11.70271,4.30656c2.45938,3.26577 3.8878,9.53533 3.74836,14.16679z" fill="url(#color-2)"/><path d="M227.58376,234.0449c-0.26593,8.83256 1.80581,51.79065 -6.47471,51.54134c-4.13428,-0.12448 -3.0675,-16.99608 -7.93963,-28.95147c-2.88543,-7.08036 -8.83973,-8.44854 -12.38584,-12.5684c-2.45892,-2.85676 -3.24076,-9.11331 -3.18623,-10.92428c0.26593,-8.83255 7.19419,-15.79065 15.47471,-15.54135c8.28052,0.2493 14.77763,7.61161 14.5117,16.44416z" fill="url(#color-3)"/></g><g data-paper-data="{&quot;index&quot;:null}" stroke="none" stroke-width="0" stroke-linecap="butt"><path d="M269.2778,164.59777c9.37725,-0.46638 17.37933,7.20446 17.87315,17.13332c0.49381,9.92885 -6.70763,18.35586 -16.08488,18.82224c-9.37725,0.46638 -17.37933,-7.20446 -17.87314,-17.13332c-0.49382,-9.92885 6.70763,-18.35586 16.08488,-18.82224z" fill="url(#color-4)"/><path d="M269.57057,190.61535c8.82565,-0.43894 16.38056,7.25414 16.87438,17.183c0.49381,9.92885 -6.26047,18.33362 -15.08612,18.77256c-8.82565,0.43894 -16.38056,-7.25414 -16.87438,-17.183c-0.49382,-9.92885 6.26047,-18.33362 15.08612,-18.77256z" fill="url(#color-5)"/><path d="M260.91299,183.63169c8.27405,-0.41152 24.33733,38.40949 24.77627,47.23514c0.43894,8.82565 -5.91266,16.31384 -14.1867,16.72535c-8.27405,0.41152 -5.33732,68.59051 -5.77626,59.76486c-0.0626,-1.25869 -48.74301,2.37082 -48.12497,-0.76996c0.36279,-1.84361 -0.9139,-10.94708 -0.64924,-20.02537c0.07239,-2.48295 0.18528,-6.11363 0.36282,-8.82482c1.25564,-19.17478 5.4382,-41.37692 10.08561,-44.83025c5.0671,-3.76519 12.47085,-2.25975 16.79433,-8.49591c10.0958,-14.56213 13.30692,-40.60939 16.71814,-40.77905z" fill="url(#color-6)"/></g><path d="M256.38894,183.35086l-15.72222,53.19444c0,0 -1.09946,-4.14501 -2.06651,-7.79079c-2.27742,-8.58594 -11.46127,-43.20921 -11.46127,-43.20921" fill="none" stroke="#ffffff" stroke-width="3.5" stroke-linecap="round"/><g fill="none" stroke-linecap="round"><path d="M211.88356,199.63293c0,0 1.40353,-7.83626 2.22677,-11.80608c0.83778,-4.03995 2.53554,-12.22691 2.53554,-12.22691" stroke="#000000" stroke-width="4.2"/><path d="M211.99431,198.19318l-0.99676,6.53431" data-paper-data="{&quot;index&quot;:null}" stroke="#ffffff" stroke-width="1.9"/></g><g data-paper-data="{&quot;index&quot;:null}" fill="none" stroke-linecap="round"><path d="M268.29799,174.3914c0,0 2.03001,8.18696 2.53553,13.99893c0.82324,3.96982 1.78376,13.46735 1.78376,13.46735" stroke="#000000" stroke-width="4.2"/><path d="M273.50331,206.95222l-0.99676,-6.53431" data-paper-data="{&quot;index&quot;:null}" stroke="#ffffff" stroke-width="1.9"/></g><g stroke="none" stroke-width="0" stroke-linecap="butt"><path d="M287.96826,149.50603c1.01821,9.30228 -9.38016,15.78487 -18.66615,22.07262c-4.23973,2.87081 -11.61499,9.66268 -11.61499,9.66268l-8.65349,-0.96077l-6.748,2.46674l-10.16269,2.21254c0,0 -8.33878,-3.43275 -16.64823,-9.56456c-7.68978,-5.67453 -15.44426,-13.71446 -14.38839,-22.19252c0.47906,-3.84664 2.55511,-29.51106 39.40452,-29.52167c22.26201,-0.00641 45.80315,10.52884 47.47743,25.82495z" fill="url(#color-7)"/><path d="M281.65577,149.15217c0.10454,5.34658 -2.78498,8.77235 -13.18398,15.69562c-10.83096,9.12579 -24.97926,20.40306 -24.97926,20.40306c0,0 -10.29268,-6.24243 -13.88497,-8.50281c-10.06219,-5.37686 -23.6013,-11.58906 -22.02602,-24.21748c1.15051,-9.22312 4.78931,-24.47473 34.78487,-25.21277c12.59023,-0.30978 39.10766,12.54155 39.28937,21.83438z" fill="#000000"/></g></g><path d="M196.44185,103.88008c0,0 6.16329,-5.92187 6.29161,-6.78761c0.33654,-2.27063 -0.16776,-40.17317 35.96775,-41.57382c44.63633,-0.91362 39.01489,35.34872 41.53088,42.1903c3.44981,9.38084 6.15664,17.40016 6.15664,17.40016c0,0 -2.76715,-2.05351 -4.0797,-3.13397c-1.2242,-1.00773 -3.80143,-3.14585 -3.80143,-3.14585c0,0 3.09111,10.3481 1.31092,20.69498c-1.5623,9.48098 -7.29782,17.22543 -7.29782,17.22543l-1.15522,-2.34735c0,0 -1.02266,2.19794 -2.16005,3.33274c-1.1374,1.13479 -3.43873,2.91273 -3.43873,2.91273l-0.09205,-3.70421c0,0 -7.0601,11.01795 -24.35066,10.87154c-16.30625,-0.25547 -26.07151,-10.6752 -26.07151,-10.6752l-0.1162,2.65484c0,0 -3.89477,-3.29276 -6.18145,-9.70754c-2.72545,-7.64567 -3.23946,-12.24324 -3.23946,-12.24324c0,0 -2.33908,1.89916 -5.71704,2.7744c-4.23278,1.09673 -6.94665,0.34526 -6.94665,0.34526c0,0 3.60795,-2.71717 5.58396,-4.76989c1.76007,-1.8284 2.64658,-3.37722 2.64658,-3.37722c0,0 -2.10758,1.0847 -4.23277,1.61795c-2.21739,0.5564 -4.03008,0.53093 -4.03008,0.53093c0,0 4.97492,-5.03728 7.03074,-10.87429c1.94102,-5.51108 2.09972,-10.95731 2.09972,-10.95731c0,0 -1.36165,0.66163 -3.33013,0.79513c-1.24776,0.08463 -2.37785,-0.0489 -2.37785,-0.0489z" fill="#000000" stroke="none" stroke-width="1.5" stroke-linecap="butt"/><path d="M213.22774,115.2017c-0.57709,-7.29323 0.335,-17.15448 0.335,-17.15448c0,0 3.41059,-0.04124 13.91429,-3.14424c8.0696,-2.38394 20.54731,-9.48722 20.54731,-9.48722c0,0 -2.16005,3.00503 -3.40781,4.46015c-1.32651,1.54696 -3.99292,4.56297 -3.99292,4.56297c0,0 7.838,-1.66761 14.67476,-4.72931c8.56837,-3.53575 10.59252,-6.05309 12.95042,-4.5927c2.7829,1.72362 1.03006,23.1827 0.71846,28.74062c-0.42163,5.66922 -2.53327,9.49969 -3.15031,12.52053c-0.61704,3.02084 -0.4096,6.13662 -2.20622,16.0397c-1.12121,6.18021 -4.16183,8.92466 -10.01942,14.66081c-5.85759,5.73616 -9.05378,9.25275 -13.01359,9.32173c-3.81077,0.06639 -8.93565,-5.1002 -13.93542,-10.38244c-5.32393,-5.62474 -8.87489,-8.47713 -9.71551,-15.13975c-0.75707,-6.00039 -0.77653,-9.90853 -1.12266,-15.24835c-0.25298,-3.90273 -2.26119,-6.44504 -2.57636,-10.42801z" fill="#ffffff" stroke="#000000" stroke-width="1.5" stroke-linecap="butt"/><path d="M261.29774,100.86267c0,0 1.52429,0.31807 4.2558,1.11029c2.49492,0.72361 4.44935,1.74403 4.44935,1.74403l0.1951,1.17035c0,0 -7.24963,-3.12997 -15.1158,-2.4706c-6.2896,0.52724 -9.96319,2.8124 -9.96319,2.8124l0.04575,-4.17683c0,0 3.12748,-1.70421 7.86366,-1.85557c4.90428,-0.15672 8.09084,0.59125 8.09084,0.59125z" data-paper-data="{&quot;index&quot;:null}" fill="#000000" stroke="none" stroke-width="1.5" stroke-linecap="butt"/><path d="" fill="#ffffff" stroke="#000000" stroke-width="1.4" stroke-linecap="butt"/><path d="" fill="#ffffff" stroke="#000000" stroke-width="1.9" stroke-linecap="butt"/><path d="M240.85988,144.6288c-1.03376,0 -3.5381,-3.26042 -3.7867,-5.3637c-0.22243,-1.88186 1.31512,-3.82799 3.7867,-3.82799c2.47159,0 4.2021,0.49077 4.02999,4.18853c-0.14607,3.13818 -1.55841,5.00317 -4.02999,5.00317z" fill="#ffffff" stroke="#000000" stroke-width="1.15" stroke-linecap="butt"/><path d="M214.92738,125.32492c0,0 -4.93211,-3.51705 -6.16417,-8.97502c-1.29636,-5.74284 -1.46118,-9.7328 0.48013,-9.99193c1.94131,-0.25915 2.70321,2.37692 3.73262,8.35569c1.0294,5.97877 1.95143,10.61127 1.95143,10.61127z" data-paper-data="{&quot;index&quot;:null}" fill="#ffffff" stroke="#000000" stroke-width="1" stroke-linecap="butt"/><path d="M214.72479,121.37736c0,0 -3.56385,-2.92338 -4.31816,-8.45061c-0.42079,-3.08327 2.15675,-2.28016 2.15675,-2.28016" fill="none" stroke="#000000" stroke-width="0.25" stroke-linecap="round"/><path d="M217.73819,114.72146c0.07093,-4.89188 4.83834,-8.93609 10.21137,-8.8582c5.37302,0.0779 9.02724,4.2484 8.95632,9.14029c-0.07093,4.89188 -4.12352,8.79439 -9.49655,8.7165c-5.37302,-0.0779 -9.74207,-4.1067 -9.67114,-8.99859z" fill="#ffffff" stroke="#000000" stroke-width="1.4" stroke-linecap="butt"/><path d="M222.17582,114.8394c0.03999,-2.75843 2.30855,-4.96213 5.06696,-4.92214c2.75843,0.03999 4.96213,2.30855 4.92214,5.06696c-0.03999,2.75843 -2.30854,4.96213 -5.06696,4.92214c-2.75843,-0.03999 -4.96213,-2.30855 -4.92214,-5.06696z" fill="#000000" stroke="none" stroke-width="1.5" stroke-linecap="butt"/><path d="" fill="#ffffff" stroke="#000000" stroke-width="1.4" stroke-linecap="butt"/><path d="" fill="#000000" stroke="none" stroke-width="1.5" stroke-linecap="butt"/><path d="" fill="#ffffff" stroke="#000000" stroke-width="1.15" stroke-linecap="butt"/><path d="M216.71987,114.32018c0,0 -0.24686,-9.4582 11.19813,-9.1032c9.71427,0.33347 9.54677,9.65229 9.54677,9.65229z" fill="#ffffff" stroke="#000000" stroke-width="1.15" stroke-linecap="butt"/><path d="" fill="#000000" stroke="none" stroke-width="1.5" stroke-linecap="butt"/><path d="M269.16054,114.71365c1.0294,-5.97877 1.7913,-8.61483 3.73262,-8.35569c1.94131,0.25914 1.77649,4.24909 0.48013,9.99193c-1.23206,5.45797 -6.16417,8.97502 -6.16417,8.97502c0,0 0.92203,-4.6325 1.95143,-10.61127z" data-paper-data="{&quot;index&quot;:null}" fill="#ffffff" stroke="#000000" stroke-width="1" stroke-linecap="butt"/><path d="M269.57311,110.64659c0,0 2.57754,-0.80312 2.15675,2.28016c-0.75431,5.52723 -4.31816,8.45061 -4.31816,8.45061" data-paper-data="{&quot;index&quot;:null}" fill="none" stroke="#000000" stroke-width="0.25" stroke-linecap="round"/><g><g stroke="none" stroke-width="0" stroke-linecap="butt"><path d="M200.74971,95.42441l1.33333,-42.66667c0,0 10.33243,-17.9024 38.5,-17.83333c30.16781,0.07397 39.16667,17.83333 39.16667,17.83333l0.83333,42.83333z" fill="#000000"/><path d="M204.91638,94.09106l-0.83334,-42.33333c0,0 8.33243,-16.9024 36.5,-16.83333c30.16781,0.07397 37.66667,18 37.66667,18l-1.33333,40z" fill="url(#color-8)"/></g><path d="M192.24801,98.24091l8,-6.83333c0,0 7.60966,-4.19045 40.33333,-3.83333c37.83955,0.41294 40.83333,3.83333 40.83333,3.83333l8,6.66667c0,0 -31.96109,-1.44575 -47.99986,-1.41824c-16.34435,0.02803 -49.16681,1.58491 -49.16681,1.58491z" fill="url(#color-9)" stroke="none" stroke-width="0" stroke-linecap="butt"/><path d="M193.20702,99.51325c0,0 22.12677,-4.12325 48.00099,-3.62566c27.53886,0.52961 46.99901,3.37566 46.99901,3.37566" fill="none" stroke="#000000" stroke-width="5" stroke-linecap="round"/></g><g stroke-linecap="butt"><path d="M245.35431,114.94518c0.07376,-5.08707 5.0314,-9.29264 10.61881,-9.21164c5.5874,0.08101 9.38743,4.41791 9.31368,9.50499c-0.07376,5.08707 -4.28805,9.1453 -9.87547,9.0643c-5.5874,-0.08101 -10.13079,-4.27056 -10.05703,-9.35764z" fill="#ffffff" stroke="#000000" stroke-width="1.4"/><path d="M249.96902,115.06782c0.04158,-2.86849 2.40066,-5.16012 5.26913,-5.11853c2.8685,0.04158 5.16012,2.40066 5.11854,5.26913c-0.04158,2.86849 -2.40066,5.16012 -5.26914,5.11854c-2.86849,-0.04158 -5.16012,-2.40067 -5.11853,-5.26914z" fill="#000000" stroke="none" stroke-width="1.5"/><path d="M245.28315,114.39176c0,0 0.0661,-9.37483 11.0241,-9.17702c9.84891,0.17248 9.93681,9.78258 9.93681,9.78258z" fill="#ffffff" stroke="#000000" stroke-width="1.15"/></g><path d="M221.12733,100.76043c0,0 3.18656,-0.74797 8.09084,-0.59125c4.73618,0.15136 7.86366,1.85557 7.86366,1.85557l0.04575,4.17683c0,0 -3.67359,-2.28516 -9.96319,-2.8124c-7.86617,-0.65937 -15.1158,2.4706 -15.1158,2.4706l0.1951,-1.17035c0,0 1.95443,-1.02042 4.44935,-1.74403c2.73151,-0.79222 4.2558,-1.11029 4.2558,-1.11029z" data-paper-data="{&quot;index&quot;:null}" fill="#000000" stroke="none" stroke-width="1.5" stroke-linecap="butt"/><g stroke="none" stroke-linecap="butt"><path d="M261.02601,149.71973c0,0 -1.60271,19.45006 -21.02765,19.45006c-21.05287,0 -20.48499,-21.07801 -20.48499,-21.07801c0,0 6.30401,-8.53418 12.18876,-8.69383c3.30527,-0.08964 9.50466,3.16375 9.50466,3.16375c0,0 5.29251,-3.08474 10.53504,-2.45853c2.91544,0.34827 9.28418,9.61656 9.28418,9.61656z" fill="#000000" stroke-width="0"/><path d="M225.39716,143.81479c4.06986,-2.82969 6.60029,-3.4049 9.94946,-2.18627c1.63218,0.59903 7.48736,4.23184 6.85143,4.8515c-0.38154,0.39239 -20.72935,0.8868 -20.72935,0.55632c0,-0.20658 1.8087,-1.73446 3.92845,-3.2216z" data-paper-data="{&quot;noHover&quot;:false,&quot;origItem&quot;:[&quot;Path&quot;,{&quot;applyMatrix&quot;:true,&quot;segments&quot;:[[[834.56139,393.52468],[0,0],[-0.78126,0.5481]],[[833.10827,394.67418],[0,-0.07614],[0,0.1218]],[[839.25671,394.3773],[-0.14062,0.14462],[0.23438,-0.22838]],[[838.03797,392.75582],[0.60156,0.22078],[-1.23438,-0.44914]],[[834.56141,393.52468],[1.5,-1.04292],[0,0]]],&quot;closed&quot;:true,&quot;fillColor&quot;:[0,0,0]}]}" fill="#ffffff" stroke-width="0.5"/><path d="M245.65689,142.14174c1.16588,-0.88816 4.68925,-0.68889 6.87254,0.4058c2.07731,1.01209 5.43257,5.20139 4.79664,5.80037c-0.25439,0.33047 -16.77864,-1.83193 -17.28738,-2.24505c-0.38154,-0.26851 4.85513,-3.42412 5.6182,-3.96112z" data-paper-data="{&quot;noHover&quot;:false,&quot;origItem&quot;:[&quot;Path&quot;,{&quot;applyMatrix&quot;:true,&quot;segments&quot;:[[[842.01447,392.95374],[0,0],[-0.28124,0.19792]],[[841.25665,394.34684],[-0.14062,-0.09896],[0.1875,0.15226]],[[846.13947,395.14616],[-0.09376,0.1218],[0.23438,-0.22076]],[[844.39729,393.12884],[0.76562,0.37302],[-0.80468,-0.40346]],[[842.01447,392.95376],[0.4297,-0.32734],[0,0]]],&quot;closed&quot;:true,&quot;fillColor&quot;:[0,0,0]}]}" fill="#ffffff" stroke-width="0.5"/><path d="M234.41473,151.57625c4.26066,2.10678 7.79222,2.14959 12.30722,0.33199c4.13347,-1.69371 5.9045,-1.45023 3.19126,0.51199c-2.39531,1.81766 -8.98132,3.31553 -12.41526,2.75785c-2.90404,-0.45441 -6.99007,-2.73348 -8.2195,-4.28258c-1.29303,-1.63174 1.00281,-1.34332 5.13628,0.68081z" data-paper-data="{&quot;noHover&quot;:false,&quot;origItem&quot;:[&quot;Path&quot;,{&quot;applyMatrix&quot;:true,&quot;segments&quot;:[[[835.99101,396.14338],[-0.47656,-0.6014],[0.45312,0.57094]],[[838.99101,397.63544],[-1.07032,-0.16748],[1.26562,0.20554]],[[843.39727,396.69148],[-0.88282,0.66992],[1,-0.7232]],[[842.42071,396.49356],[1.52344,-0.62424],[-1.66406,0.6699]],[[837.68633,396.36414],[1.57032,0.77648],[-1.52344,-0.74602]]],&quot;closed&quot;:true,&quot;fillColor&quot;:[0,0,0]}]}" fill="#ffffff" stroke-width="0.5"/><path d="M225.04378,150.00826c1.16588,0.53706 2.95152,1.77603 3.26946,2.45765c0.38153,0.74359 2.15529,2.04221 3.89345,3.0543c2.71324,1.56977 3.47127,1.76024 7.73193,1.76024c5.74448,0 8.93873,-1.1133 12.69066,-4.56264c1.29303,-1.15666 3.47604,-2.29617 4.23912,-2.29617c1.29308,0 1.43102,0.30182 1.04949,2.20207c-1.10223,6.03116 -4.96079,10.80582 -10.06934,12.29295c-3.0524,0.86748 -13.07062,0.87052 -16.16539,-0.05894c-3.09483,-0.88815 -6.41232,-4.48759 -8.46847,-9.07292c-3.1796,-6.96061 -2.87669,-7.80074 1.82911,-5.77661z" data-paper-data="{&quot;noHover&quot;:false,&quot;origItem&quot;:[&quot;Path&quot;,{&quot;applyMatrix&quot;:true,&quot;segments&quot;:[[[833.75677,397.93994],[-1.17188,-2.56542],[0.75782,1.68998]],[[836.85053,401.20572],[-1.14064,-0.32734],[1.14062,0.34256]],[[842.66303,401.22856],[-1.125,0.31972],[1.88282,-0.5481]],[[846.35053,396.79046],[-0.40624,2.22286],[0.14062,-0.70036]],[[845.96771,395.99114],[0.47658,0],[-0.28124,0]],[[844.59271,396.76762],[0.47656,-0.4263],[-1.38282,1.2713]],[[839.92083,398.48806],[2.1172,0],[-1.57032,0]],[[836.87395,397.81054],[1,0.57856],[-0.64062,-0.37302]],[[835.44427,396.66866],[0.14062,0.27406],[-0.11718,-0.25122]],[[834.42083,395.8465],[0.4297,0.19794],[-1.73438,-0.74602]]],&quot;closed&quot;:true,&quot;fillColor&quot;:[0,0,0]}]}" fill="#ffffff" stroke-width="0.5"/></g><path d="M244.46199,114.53508c0,0 0.1026,3.96976 0.00576,7.12662c-0.19174,6.25113 -1.08147,27.7607 -1.08147,27.7607l-2.98167,0.00864c0,0 -0.80294,-4.17274 -1.12322,-9.49979c-0.43353,-7.21063 -0.4495,-16.29321 -0.76344,-19.63229c-0.29758,-3.16513 -0.89593,-5.71453 -0.89593,-5.71453" fill="#ffffff" stroke="#000000" stroke-width="1.3" stroke-linecap="round"/></g></g></svg>