<svg version="1.1" xmlns="http://www.w3.org/2000/svg" xmlns:xlink="http://www.w3.org/1999/xlink" width="34.17311" height="34.17311" viewBox="0,0,34.17311,34.17311"><defs><linearGradient x1="226.72513" y1="173.7405" x2="235.60204" y2="173.7405" gradientUnits="userSpaceOnUse" id="color-1"><stop offset="0" stop-color="#10ff00"/><stop offset="1" stop-color="#ff0000"/></linearGradient><linearGradient x1="241.07419" y1="175.86792" x2="248.0757" y2="175.86792" gradientUnits="userSpaceOnUse" id="color-2"><stop offset="0" stop-color="#10ff00"/><stop offset="1" stop-color="#ff0000"/></linearGradient><linearGradient x1="233.75061" y1="182.15424" x2="239.25179" y2="182.15424" gradientUnits="userSpaceOnUse" id="color-3"><stop offset="0" stop-color="#10ff00"/><stop offset="1" stop-color="#ff0000"/></linearGradient><linearGradient x1="243.39776" y1="187.25941" x2="253.27489" y2="187.25941" gradientUnits="userSpaceOnUse" id="color-4"><stop offset="0" stop-color="#10ff00"/><stop offset="1" stop-color="#ff0000"/></linearGradient></defs><g transform="translate(-222.91348,-162.9135)"><g data-paper-data="{&quot;isPaintingLayer&quot;:true}" stroke-miterlimit="10" stroke-dasharray="" stroke-dashoffset="0" style="mix-blend-mode: normal"><path d="M229.98315,162.9135h20.03378c3.9166,0 7.06966,3.15307 7.06966,7.06966v20.03379c0,3.91659 -3.15306,7.06966 -7.06966,7.06966h-20.03378c-3.91659,0 -7.06967,-3.15307 -7.06967,-7.06966v-20.03379c0,-3.91659 3.15308,-7.06966 7.06967,-7.06966z" fill="#ffffff" fill-rule="evenodd" stroke="none" stroke-width="4.43922" stroke-linecap="round" stroke-linejoin="round"/><path d="M226.83282,174.7079c-0.53428,-2.39181 0.97155,-4.76389 3.36337,-5.29817c2.39181,-0.53428 4.76389,0.97155 5.29817,3.36337c0.53428,2.39181 -0.97155,4.76389 -3.36337,5.29817c-2.39181,0.53428 -4.76389,-0.97155 -5.29817,-3.36337z" fill="url(#color-1)" fill-rule="nonzero" stroke="#000000" stroke-width="1" stroke-linecap="butt" stroke-linejoin="miter"/><path d="M241.15913,176.63094c-0.4214,-1.8865 0.7663,-3.75743 2.6528,-4.17884c1.8865,-0.4214 3.75743,0.7663 4.17884,2.6528c0.4214,1.8865 -0.7663,3.75743 -2.6528,4.17884c-1.8865,0.4214 -3.75743,-0.7663 -4.17884,-2.6528z" fill="url(#color-2)" fill-rule="nonzero" stroke="#000000" stroke-width="1" stroke-linecap="butt" stroke-linejoin="miter"/><path d="M233.81735,182.75376c-0.3311,-1.48225 0.60209,-2.95227 2.08434,-3.28337c1.48225,-0.3311 2.95227,0.60209 3.28337,2.08434c0.3311,1.48225 -0.60209,2.95227 -2.08434,3.28337c-1.48225,0.3311 -2.95227,-0.60209 -3.28337,-2.08434z" fill="url(#color-3)" fill-rule="nonzero" stroke="#000000" stroke-width="1" stroke-linecap="butt" stroke-linejoin="miter"/><path d="M243.51759,188.33581c-0.59448,-2.66131 1.08103,-5.30066 3.74234,-5.89514c2.66131,-0.59448 5.30066,1.08103 5.89514,3.74234c0.59448,2.66131 -1.08103,5.30066 -3.74234,5.89514c-2.66131,0.59448 -5.30066,-1.08103 -5.89514,-3.74234z" fill="url(#color-4)" fill-rule="nonzero" stroke="#000000" stroke-width="1" stroke-linecap="butt" stroke-linejoin="miter"/></g></g></svg>