<svg version="1.1" xmlns="http://www.w3.org/2000/svg" xmlns:xlink="http://www.w3.org/1999/xlink" width="98.23691" height="268.22393" viewBox="0,0,98.23691,268.22393"><defs><linearGradient x1="241.15028" y1="150.32621" x2="241.15028" y2="304.40605" gradientUnits="userSpaceOnUse" id="color-1"><stop offset="0" stop-color="#feaa19"/><stop offset="1" stop-color="#ffd65d"/></linearGradient><linearGradient x1="227.64655" y1="192.03497" x2="227.64655" y2="199.56017" gradientTransform="translate(-2695.11002,-2390.01002) scale(12.26542,12.26542)" gradientUnits="userSpaceOnUse" id="color-2"><stop offset="0" stop-color="#d89116"/><stop offset="1" stop-color="#ffc100"/></linearGradient><linearGradient x1="225.47041" y1="120.02732" x2="225.47041" y2="123.52732" gradientUnits="userSpaceOnUse" id="color-3"><stop offset="0" stop-color="#d89116"/><stop offset="1" stop-color="#ffc100"/></linearGradient><linearGradient x1="252.30374" y1="119.52732" x2="252.30374" y2="123.02732" gradientUnits="userSpaceOnUse" id="color-4"><stop offset="0" stop-color="#d89116"/><stop offset="1" stop-color="#ffc100"/></linearGradient><linearGradient x1="232.21868" y1="192.82263" x2="232.21868" y2="193.32263" gradientUnits="userSpaceOnUse" id="color-5"><stop offset="0" stop-color="#d89116"/><stop offset="1" stop-color="#ffc100"/></linearGradient><linearGradient x1="232.21868" y1="193.9033" x2="232.21868" y2="194.4033" gradientUnits="userSpaceOnUse" id="color-6"><stop offset="0" stop-color="#d89116"/><stop offset="1" stop-color="#ffc100"/></linearGradient><linearGradient x1="232.28319" y1="194.9033" x2="232.28319" y2="195.4033" gradientUnits="userSpaceOnUse" id="color-7"><stop offset="0" stop-color="#d89116"/><stop offset="1" stop-color="#ffc100"/></linearGradient></defs><g transform="translate(-191.13154,-45.63803)"><g data-paper-data="{&quot;isPaintingLayer&quot;:true}" fill-rule="nonzero" stroke-linejoin="miter" stroke-miterlimit="10" stroke-dasharray="" stroke-dashoffset="0" style="mix-blend-mode: normal"><path d="M193.91081,313.86197v-253.22501h91.18203v253.22501z" fill-opacity="0.01" fill="#000000" stroke="none" stroke-width="0" stroke-linecap="butt"/><path d="M201.54537,304.39162c0,0 -0.63536,-94.38387 -0.79335,-118.01201c-0.05451,-8.15261 8.18688,-36.76129 40.20201,-36.9211c31.60235,-0.15775 39.85672,29.48704 39.84884,36.89673c-0.07659,46.24274 0.65429,117.98648 0.65429,117.98648l-10.49667,0.09614l-0.15882,-114.84311c0,0 0.07549,-3.0993 -2.81625,-3.15415c-3.43441,-0.06514 -2.94538,3.11562 -2.94538,3.11562l0.20548,114.86995l-48.21366,0.07222l-0.30539,-115.23309c0,0 0.27949,-2.919 -2.8856,-2.93443c-3.11083,-0.01515 -2.81569,2.90899 -2.81569,2.90899l0.35311,115.0668z" fill="#ffffff" stroke="#000000" stroke-width="2" stroke-linecap="butt"/><path d="M256.14252,200.33391c-0.57113,0 -1.03411,-0.46299 -1.03411,-1.03411c0,-0.57113 0.46299,-1.03413 1.03411,-1.03413c0.57113,0 1.03411,0.463 1.03411,1.03413c0,0.57113 -0.46299,1.03411 -1.03411,1.03411z" fill="#000000" stroke="none" stroke-width="1.5" stroke-linecap="butt"/><path d="M250.88266,204.56947c-4.4635,-0.31439 -6.55245,-1.79392 -6.16985,-2.58011c0.11788,-0.24224 2.84645,1.06355 6.97038,1.3048c6.40897,0.37493 8.51033,-0.63173 8.51033,-0.63173v1.34616c0,0 -2.4135,1.04672 -9.31086,0.56089z" fill="#000000" stroke="#000000" stroke-width="0" stroke-linecap="butt"/><path d="M223.06991,199.2998c0,-0.57113 0.46299,-1.03413 1.03411,-1.03413c0.57113,0 1.03413,0.463 1.03413,1.03413c0,0.57113 -0.463,1.03411 -1.03413,1.03411c-0.57113,0 -1.03411,-0.46299 -1.03411,-1.03411z" fill="#000000" stroke="none" stroke-width="1.5" stroke-linecap="butt"/><path d="M229.36389,204.56947c-6.89736,0.48585 -9.31086,-0.56089 -9.31086,-0.56089v-1.34616c0,0 2.10136,1.00666 8.51033,0.63173c4.12393,-0.24126 6.85251,-1.54704 6.97039,-1.3048c0.3826,0.78618 -1.70634,2.26571 -6.16985,2.58011z" fill="#000000" stroke="#000000" stroke-width="0" stroke-linecap="butt"/><path d="M240.64435,261.12113c-0.81895,0 -1.48284,-0.66389 -1.48284,-1.48284c0,-0.81895 0.66389,-1.48284 1.48284,-1.48284c0.81895,0 1.48284,0.66389 1.48284,1.48284c0,0.81895 -0.66389,1.48284 -1.48284,1.48284z" data-paper-data="{&quot;index&quot;:null}" fill="#000000" stroke="none" stroke-width="1.5" stroke-linecap="butt"/><path d="M216.5811,304.40603v-119.20147c0,0 0.75721,-9.73105 0.75721,-14.63937c0,-4.498 -0.75721,-13.6872 -0.75721,-13.6872c0,0 2.67319,-2.35297 4.6557,-3.74807c1.98251,-1.3951 5.17197,-2.80371 5.17197,-2.80371c0,0 -0.6016,20.05162 14.55952,19.98127c15.43477,-0.07162 13.83154,-19.98127 13.83154,-19.98127c0,0 3.91276,1.51959 6.16585,2.94655c2.25309,1.42695 4.75379,3.60523 4.75379,3.60523c0,0 -0.75721,9.42463 -0.75721,14.19201c0,4.84193 0.75721,14.63937 0.75721,14.63937v118.69667z" fill="url(#color-1)" stroke="#000000" stroke-width="2" stroke-linecap="butt"/><path d="M194.55402,111.12964c0,0 6.16329,-5.92187 6.29161,-6.78761c0.33654,-2.27063 -0.16776,-40.17317 35.96775,-41.57382c44.63633,-0.91362 39.01489,35.34872 41.53088,42.1903c3.44981,9.38084 6.15664,17.40016 6.15664,17.40016c0,0 -2.76715,-2.05351 -4.0797,-3.13397c-1.2242,-1.00773 -3.80143,-3.14585 -3.80143,-3.14585c0,0 3.09111,10.3481 1.31092,20.69498c-1.5623,9.48098 -7.29782,17.22543 -7.29782,17.22543l-1.15522,-2.34735c0,0 -1.02266,2.19794 -2.16005,3.33274c-1.1374,1.13479 -3.43873,2.91273 -3.43873,2.91273l-0.09205,-3.70421c0,0 -7.0601,11.01795 -24.35066,10.87154c-16.30625,-0.25547 -26.07151,-10.6752 -26.07151,-10.6752l-0.1162,2.65484c0,0 -3.89477,-3.29276 -6.18145,-9.70754c-2.72545,-7.64567 -3.23946,-12.24324 -3.23946,-12.24324c0,0 -2.33908,1.89916 -5.71704,2.7744c-4.23278,1.09673 -6.94665,0.34526 -6.94665,0.34526c0,0 3.60795,-2.71717 5.58396,-4.76989c1.76007,-1.8284 2.64658,-3.37722 2.64658,-3.37722c0,0 -2.10758,1.0847 -4.23277,1.61795c-2.21739,0.5564 -4.03008,0.53093 -4.03008,0.53093c0,0 4.97492,-5.03728 7.03074,-10.87429c1.94102,-5.51108 2.09972,-10.95731 2.09972,-10.95731c0,0 -1.36165,0.66163 -3.33013,0.79513c-1.24776,0.08463 -2.37785,-0.0489 -2.37785,-0.0489z" fill="#000000" stroke="none" stroke-width="1.5" stroke-linecap="butt"/><path d="M258.21241,153.52087l-9,12.25l-3.75,3.75l-6.75,1.25l-8.5,-6.25l-8.25,-11.625" fill="none" stroke="#000000" stroke-width="2.5" stroke-linecap="round"/><path d="M211.33991,122.45126c-0.57709,-7.29323 0.335,-17.15448 0.335,-17.15448c0,0 3.41059,-0.04124 13.91429,-3.14424c8.0696,-2.38394 20.54731,-9.48722 20.54731,-9.48722c0,0 -2.16005,3.00503 -3.40781,4.46015c-1.32651,1.54696 -3.99292,4.56297 -3.99292,4.56297c0,0 7.838,-1.66761 14.67476,-4.72931c8.56837,-3.53575 10.59252,-6.05309 12.95042,-4.5927c2.7829,1.72362 1.03006,23.1827 0.71846,28.74062c-0.42163,5.66922 -2.53327,9.49969 -3.15031,12.52053c-0.61704,3.02084 -0.4096,6.13662 -2.20622,16.0397c-1.12121,6.18021 -4.16183,8.92466 -10.01942,14.66081c-5.85759,5.73616 -9.05378,9.25275 -13.01359,9.32173c-3.81077,0.06639 -8.93565,-5.1002 -13.93542,-10.38244c-5.32393,-5.62474 -8.87489,-8.47713 -9.71551,-15.13975c-0.75707,-6.00039 -0.77653,-9.90853 -1.12266,-15.24835c-0.25298,-3.90273 -2.26119,-6.44504 -2.57636,-10.42801z" fill="#ffffff" stroke="#000000" stroke-width="1.5" stroke-linecap="butt"/><path d="M238.97205,151.87829c-1.03376,0 -3.5381,-3.26042 -3.7867,-5.3637c-0.22243,-1.88186 1.31512,-3.82799 3.7867,-3.82799c2.47159,0 4.2021,0.49077 4.02999,4.18853c-0.14607,3.13818 -1.55841,5.00317 -4.02999,5.00317z" fill="#ffffff" stroke="#000000" stroke-width="1.15" stroke-linecap="butt"/><g data-paper-data="{&quot;index&quot;:null}" stroke="none" stroke-linecap="butt"><path d="M258.33315,157.43815c0,0 -2.17178,10.88307 -7.42633,16.22537c-2.34606,2.38526 -6.06247,3.33096 -12.3832,2.4836c-4.86891,-0.65275 -10.00115,-0.42128 -12.27103,-3.47085c-4.37349,-5.87575 -6.90961,-16.81031 -6.90961,-16.81031c0,0 8.17615,-7.2295 13.22972,-7.02572c1.60465,0.0647 6.89513,2.82414 6.89513,2.82414c0,0 3.78685,-3.67315 7.96314,-2.21453c6.63639,2.3178 10.90216,7.9883 10.90216,7.9883z" fill="#000000" stroke-width="0"/><path d="M226.7092,152.5426c4.50713,-2.48319 6.55894,-2.61553 9.50754,-0.6659c1.70108,1.16452 5.26404,2.33372 4.2366,3.25141c-1.45312,1.29789 -8.62853,2.09276 -13.29221,1.65994c-2.61163,-0.26678 -4.81729,-0.86979 -4.81729,-1.13657c0,-0.26678 1.92222,-1.77492 4.3653,-3.10888z" data-paper-data="{&quot;noHover&quot;:false,&quot;origItem&quot;:[&quot;Path&quot;,{&quot;applyMatrix&quot;:true,&quot;segments&quot;:[[[800.91191,350.53662],[0,0],[-0.90624,0.49482]],[[799.29473,351.63282],[0,-0.09896],[0,0.09896]],[[801.05255,352.00584],[-0.96876,-0.09896],[2.95312,0.27406]],[[804.24787,350.2854],[1.52344,1.04292],[-1.09376,-0.7232]],[[800.91193,350.53662],[1.67188,-0.92112],[0,0]]],&quot;closed&quot;:true,&quot;fillColor&quot;:[0,0,0]}]}" fill="#ffffff" stroke-width="0.5"/><path d="M251.04801,153.51401c1.7902,1.47759 3.26887,3.18493 3.26887,3.51328c0,0.94403 -7.41829,0.78296 -10.11413,-0.22265c-0.90853,-0.34269 -4.28426,-0.72821 -4.18589,-1.4432c0.18092,-1.31474 2.00862,-4.69039 5.21163,-4.69039c1.5375,0 3.50277,0.95489 5.81952,2.84295z" data-paper-data="{&quot;noHover&quot;:false,&quot;origItem&quot;:[&quot;Path&quot;,{&quot;applyMatrix&quot;:true,&quot;segments&quot;:[[[807.74787,349.88954],[0.57032,0],[-1.54688,0]],[[807.38849,352.02866],[-1.45312,-0.5481],[1,0.37302]],[[810.96661,352.12762],[0,0.35018],[0,-0.1218]],[[809.74787,350.88678],[0.66406,0.5481],[-0.85938,-0.70036]]],&quot;closed&quot;:true,&quot;fillColor&quot;:[0,0,0]}]}" fill="#ffffff" stroke-width="0.5"/><path d="M237.73137,157.59432c1.15835,-0.80034 2.35045,-0.80044 4.07747,-0.0001c0.96878,0.47199 0.34895,0.86418 -1.84143,0.86418c-2.12723,0.08211 -2.93114,-0.39209 -2.2361,-0.86408z" data-paper-data="{&quot;noHover&quot;:false,&quot;origItem&quot;:[&quot;Path&quot;,{&quot;applyMatrix&quot;:true,&quot;segments&quot;:[[[805.00575,352.37884],[0,0],[-0.25782,0.17508]],[[805.72451,352.5996],[-0.78908,0.03046],[0.8125,0]],[[806.31827,352.37884],[0.35936,0.17508],[-0.64062,-0.29688]],[[805.00577,352.37884],[0.42968,-0.29688],[0,0]]],&quot;closed&quot;:true,&quot;fillColor&quot;:[0,0,0]}]}" fill="#ffffff" stroke-width="0.5"/><path d="M243.09152,163.94864c0.37909,0.06158 -0.1944,0.62109 -1.28962,1.03157c-2.04291,0.86197 -4.38608,0.51542 -6.23948,-0.88011c-1.09521,-0.82089 -0.6724,-1.0768 2.67633,-0.87159c2.04291,0.20521 4.53686,0.5765 4.85277,0.72014z" data-paper-data="{&quot;noHover&quot;:false,&quot;origItem&quot;:[&quot;Path&quot;,{&quot;applyMatrix&quot;:true,&quot;segments&quot;:[[[805.15403,354.54842],[0.7578,0.07612],[-1.24218,-0.07612]],[[804.20091,354.79964],[-0.40626,-0.3045],[0.6875,0.51766]],[[806.31809,355.09652],[-0.7578,0.31974],[0.40626,-0.15226]],[[806.79465,354.74634],[0.14062,0.02284],[-0.11718,-0.05328]]],&quot;closed&quot;:true,&quot;fillColor&quot;:[0,0,0]}]}" fill="#ffffff" stroke-width="0.5"/><path d="M223.37118,162.72079c-2.50632,-5.70516 -2.41141,-5.93676 2.538,-4.52074c1.79026,0.53361 4.06682,2.17821 6.57309,4.92819c2.75904,3.09882 3.81368,3.74124 5.68815,4.0696c3.2645,0.53356 5.54808,-0.41325 7.61207,-3.49158c1.66388,-2.48319 3.77763,-3.6681 7.44231,-4.46845c2.04291,-0.47204 2.12484,0.01445 0.77692,4.57038c-2.23248,7.88049 -4.51398,9.505 -14.139,9.505c-5.0126,0 -7.5235,-0.41979 -9.44009,-1.36382c-3.41197,-1.62123 -4.35565,-2.96937 -7.05149,-9.22863z" data-paper-data="{&quot;noHover&quot;:false,&quot;origItem&quot;:[&quot;Path&quot;,{&quot;applyMatrix&quot;:true,&quot;segments&quot;:[[[799.67749,354.2972],[0,0],[1,2.32182]],[[802.27125,357.6391],[-1.26564,-0.60138],[0.71094,0.35018]],[[805.67751,358.11108],[-1.85938,0],[3.57032,0]],[[810.84157,354.69306],[-0.82812,2.9232],[0.5,-1.68998]],[[810.56033,353.02592],[0.7578,-0.1751],[-1.35938,0.29688]],[[807.99001,354.62456],[0.6172,-0.92112],[-0.76562,1.14188]],[[805.06033,356.0405],[1.21094,0.19792],[-0.69532,-0.1218]],[[802.86501,354.3962],[1.02344,1.14948],[-0.92968,-1.02008]],[[800.60719,352.65292],[0.66408,0.19794],[-1.83594,-0.52526]],[[799.67751,354.29722],[-0.9297,-2.11628],[0,0]]],&quot;closed&quot;:true,&quot;fillColor&quot;:[0,0,0]}]}" fill="#ffffff" stroke-width="0.5"/></g><path d="M242.57416,121.78464c0,0 0.1026,3.96976 0.00576,7.12662c-0.19174,6.25113 -1.08147,27.7607 -1.08147,27.7607l-2.98167,0.00864c0,0 -0.80294,-4.17274 -1.12322,-9.49979c-0.43353,-7.21063 -0.4495,-16.29321 -0.76344,-19.63229c-0.29758,-3.16513 -0.89593,-5.71453 -0.89593,-5.71453" fill="#ffffff" stroke="#000000" stroke-width="1.3" stroke-linecap="round"/><path d="M213.03955,132.57448c0,0 -4.93211,-3.51705 -6.16417,-8.97502c-1.29636,-5.74284 -1.46118,-9.7328 0.48013,-9.99193c1.94131,-0.25915 2.70321,2.37692 3.73262,8.35569c1.0294,5.97877 1.95143,10.61127 1.95143,10.61127z" data-paper-data="{&quot;index&quot;:null}" fill="#ffffff" stroke="#000000" stroke-width="1" stroke-linecap="butt"/><path d="M212.83696,128.62692c0,0 -3.56385,-2.92338 -4.31816,-8.45061c-0.42079,-3.08327 2.15675,-2.28016 2.15675,-2.28016" fill="none" stroke="#000000" stroke-width="0.25" stroke-linecap="round"/><path d="M215.85036,121.97103c0.07093,-4.89188 4.83834,-8.93609 10.21137,-8.8582c5.37302,0.0779 9.02724,4.2484 8.95632,9.14029c-0.07093,4.89188 -4.12352,8.79439 -9.49655,8.7165c-5.37302,-0.0779 -9.74207,-4.1067 -9.67114,-8.99859z" fill="#000000" stroke="#000000" stroke-width="1.4" stroke-linecap="butt"/><path d="M220.28799,122.08897c0.03999,-2.75843 2.30855,-4.96213 5.06696,-4.92214c2.75843,0.03999 4.96213,2.30855 4.92214,5.06696c-0.03999,2.75843 -2.30854,4.96213 -5.06696,4.92214c-2.75843,-0.03999 -4.96213,-2.30855 -4.92214,-5.06696z" fill="#000000" stroke="none" stroke-width="1.5" stroke-linecap="butt"/><path d="M242.90663,121.97176c0.20353,-4.88817 4.45264,-8.85847 9.77048,-8.85847c5.31783,0 9.27453,3.96607 9.27453,8.85847c0,4.8924 -3.88585,9.07104 -9.69964,9.14188c-5.52997,0.06739 -9.55792,-4.03692 -9.34537,-9.14188z" fill="#000000" stroke="#000000" stroke-width="1.4" stroke-linecap="butt"/><path d="M247.50939,122.0573c0,-2.81845 2.2848,-5.10325 5.10325,-5.10325c2.81845,0 5.10325,2.2848 5.10325,5.10325c0,2.81845 -2.28479,5.10325 -5.10325,5.10325c-2.81845,0 -5.10325,-2.2848 -5.10325,-5.10325z" fill="#000000" stroke="none" stroke-width="1.5" stroke-linecap="butt"/><path d="M267.2727,121.96321c1.0294,-5.97877 1.7913,-8.61483 3.73262,-8.35569c1.94131,0.25914 1.77649,4.24909 0.48013,9.99193c-1.23206,5.45797 -6.16417,8.97502 -6.16417,8.97502c0,0 0.92203,-4.6325 1.95143,-10.61127z" data-paper-data="{&quot;index&quot;:null}" fill="#ffffff" stroke="#000000" stroke-width="1" stroke-linecap="butt"/><path d="M267.68525,117.89615c0,0 2.57754,-0.80312 2.15675,2.28016c-0.75431,5.52723 -4.31816,8.45061 -4.31816,8.45061" data-paper-data="{&quot;index&quot;:null}" fill="none" stroke="#000000" stroke-width="0.25" stroke-linecap="round"/><path d="M220.01422,198.68107v-6.05h15.65834v6.05z" fill="#2f2f2f" stroke="#2f2f2f" stroke-width="2" stroke-linecap="butt"/><text transform="translate(219.73232,194.85752) scale(0.08153,0.08153)" font-size="40" xml:space="preserve" fill="url(#color-2)" fill-rule="nonzero" stroke="none" stroke-width="1" stroke-linecap="butt" stroke-linejoin="miter" stroke-miterlimit="10" stroke-dasharray="" stroke-dashoffset="0" font-family="Sans Serif" font-weight="normal" text-anchor="start" style="mix-blend-mode: normal"><tspan x="0" dy="0">Donk</tspan><tspan x="0" dy="46.150000000000006px">Industries</tspan></text><path d="M223.72041,121.77732c0,-0.9665 0.7835,-1.75 1.75,-1.75c0.9665,0 1.75,0.7835 1.75,1.75c0,0.9665 -0.7835,1.75 -1.75,1.75c-0.9665,0 -1.75,-0.7835 -1.75,-1.75z" fill="url(#color-3)" stroke="none" stroke-width="0.5" stroke-linecap="butt"/><path d="M250.55374,121.27732c0,-0.9665 0.7835,-1.75 1.75,-1.75c0.9665,0 1.75,0.7835 1.75,1.75c0,0.9665 -0.7835,1.75 -1.75,1.75c-0.9665,0 -1.75,-0.7835 -1.75,-1.75z" fill="url(#color-4)" stroke="none" stroke-width="0.5" stroke-linecap="butt"/><path d="M224.47041,131.02732v10.33333" fill="none" stroke="#000000" stroke-width="0.5" stroke-linecap="round"/><path d="M217.83742,167.27087l-0.625,9l-0.5,-5.625" fill="none" stroke="#000000" stroke-width="2.5" stroke-linecap="round"/><path d="M242.77106,168.64642c0.06202,0.49614 -0.43412,0.55816 -0.43412,0.55816l-0.309,0.0099c-0.79718,0.38534 -1.5517,0.44969 -2.31741,0.29498l-0.02384,0.0053v0.10545h-0.52941c-0.15312,0 -0.29017,-0.06883 -0.38189,-0.17724l-0.3052,-0.06782c-0.21399,-0.04291 -0.3786,-0.22243 -0.39901,-0.44372c-0.36877,-0.1103 -0.5708,-0.22318 -0.68957,-0.40953c-0.00538,-0.00129 -0.01078,-0.00257 -0.0162,-0.00386l-0.06586,-0.07936l-0.02112,0.02957l-0.40634,-0.29024c-0.12983,-0.09031 -0.2148,-0.2406 -0.2148,-0.41074c0,-0.27614 0.22386,-0.5 0.5,-0.5c0.11048,0 0.2126,0.03583 0.29535,0.09652l0.34433,0.24595c0.50614,0.1057 0.7849,0.25658 1.31057,0.18943c0,0 0.49752,-0.04975 0.54727,0.44777c0.00058,0.0058 0.00109,0.01154 0.00152,0.01723c0.46498,-0.09785 1.09075,-0.01316 1.45132,-0.10263l0.51888,-0.11531c0.03814,-0.00931 0.07799,-0.01425 0.11899,-0.01425c0.16031,0 0.30299,0.07544 0.39449,0.19276l0.0729,-0.01243c0,0 0.49614,-0.06202 0.55816,0.43412z" fill="#ffffff" stroke="none" stroke-width="0.5" stroke-linecap="butt"/><path d="M227.98572,157.89614c1.31961,1.98885 2.58082,4.31676 4.37773,5.38823c0,0 0.424,0.265 0.159,0.689c-0.265,0.424 -0.689,0.159 -0.689,0.159c-2.51327,-1.62255 -4.11759,-5.20664 -6.05245,-7.53059l-0.00287,-0.10036l-0.03638,0.01213l-0.17278,-0.51834c-0.019,-0.05284 -0.02935,-0.1098 -0.02935,-0.16919c0,-0.27614 0.22386,-0.5 0.5,-0.5c0.11438,0 0.21979,0.03841 0.30404,0.10303l0.46655,0.34991l-0.03924,0.05232c0.5336,0.2647 0.98313,0.61232 1.3041,1.1829l0.05279,0.51772c0,0 0,0.21617 -0.14214,0.36424z" fill="#ffffff" stroke="none" stroke-width="0.5" stroke-linecap="butt"/><path d="M230.67872,137.09668c0.5,0 0.5,0.5 0.5,0.5v0.33334c0,1.71983 -0.54106,3.13523 -1.01224,4.77662c-0.82825,5.02122 -5.16059,4.58236 -9.06785,3.21692c-4.82761,0.04139 -3.92132,-4.6562 -3.32978,-8.24241c0,0 0.0822,-0.4932 0.5754,-0.411c0.49319,0.0822 0.411,0.5754 0.411,0.5754c-0.18344,1.09059 -1.05376,5.93165 -0.16559,6.70674c0.46746,0.40795 2.11295,0.37996 2.66915,0.38418c3.44257,1.10699 7.1786,2.03026 7.93215,-2.44974c0.44738,-1.57277 0.98776,-2.91836 0.98776,-4.55671v-0.33334c0,0 0,-0.5 0.5,-0.5z" fill="#000000" stroke="none" stroke-width="0.5" stroke-linecap="butt"/><path d="M258.93705,136.56615c0.5,0 0.5,0.5 0.5,0.5c0,1.4 0,3 0,4.4c0,0.99079 0.31727,2.7349 -0.15279,3.62361c-1.16566,2.20383 -6.47288,0.97396 -8.39648,0.97396c-0.87506,-0.17501 -2.06242,-0.0875 -2.82598,-0.58015c-1.67261,-1.07916 -1.52475,-5.51796 -1.52475,-7.31742c0,0 0,-0.5 0.5,-0.5c0.5,0 0.5,0.5 0.5,0.5c0,1.43029 -0.16592,5.60401 1.07525,6.48258c0.53674,0.37993 1.71432,0.28791 2.37402,0.41985c2.02372,0 3.85208,0.40506 5.85267,0.00728c0.26572,-0.05283 1.48931,-0.21815 1.55084,-0.43332c0.26772,-0.93621 0.04721,-2.20649 0.04721,-3.17639c0,-1.4 0,-2.8 0,-4.2v-0.2c0,0 0,-0.5 0.5,-0.5z" fill="#000000" stroke="none" stroke-width="0.5" stroke-linecap="butt"/><path d="M207.8807,175.41933c0.0446,0.00109 0.07171,0.00496 0.07171,0.00496c0.92342,0.13649 2.98074,0.70889 3.64309,1.29564c1.07851,0.9554 0.4335,1.311 0.27688,2.28125c-0.50876,3.15163 -2.83993,6.30737 -6.20999,5.55305c-0.45526,-0.1019 0.44949,0.82079 0.6172,1.25613c0.40739,1.822 1.49915,3.70176 0.85111,5.58928c-0.48075,1.40028 -1.2776,3.38111 -3.1004,2.01174c-0.50497,-0.37935 -0.15106,-1.3086 -0.51819,-1.82252c-1.80618,-2.52832 -0.84434,-6.04321 -0.84434,-9.27924c0.04267,-3.15012 2.0912,-4.80547 4.07681,-6.81604l0.67319,-0.21967c0,0 0.25127,0 0.46293,0.14544z" fill="#000000" stroke="none" stroke-width="0.5" stroke-linecap="butt"/><path d="M204.10394,204.48985c-0.15665,-0.10516 -0.29331,-0.28865 -0.29331,-0.6088c0,-0.75 0.75,-0.75 0.75,-0.75c3.64975,0.01015 5.6855,4.66119 1.87483,5.67514c0.77783,0.65445 0.91535,2.20558 1.23276,3.18004l0.53706,0.93986c0.06691,0.11222 0.10535,0.24339 0.10535,0.38354c0,0.41421 -0.33579,0.75 -0.75,0.75c-0.11082,0 -0.21602,-0.02403 -0.31068,-0.06717l-0.98476,-0.42204l0.08681,-0.20255c-2.25383,-0.76993 -4.91506,-2.42581 -4.52653,-4.77812c0.25384,-1.53681 2.03906,-2.50713 2.27847,-4.09988z" fill="#000000" stroke="none" stroke-width="0.5" stroke-linecap="butt"/><path d="M205.26499,248.35728l-0.30878,-0.31366c-0.16789,-0.10432 -0.33577,-0.20863 -0.50366,-0.31295c-4.54395,-0.97419 0.29422,-4.71269 1.51692,-6.31119c0.38659,-0.5054 0.80962,-1.87573 1.82004,-1.53838c1.02148,0.34105 0.54359,1.64482 0.65429,2.30837c0.47499,2.84712 1.43826,5.07649 1.43826,8.12014c0,2.90845 0.50466,5.71013 0.28316,8.63329c-0.16644,2.19655 -0.85127,3.84443 -1.1426,5.71109c-0.43064,2.75926 -2.76027,1.86593 -3.45194,-0.08641c-0.74401,-1.87641 -2.21219,-4.31542 -1.26631,-6.42089c0.50771,-1.13012 1.94069,-1.91645 2.43967,-3.02373c0.75171,-1.66813 -0.90056,-4.78022 -1.45708,-6.26429c0,0 -0.09224,-0.24599 -0.02196,-0.50138z" fill="#000000" stroke="none" stroke-width="0.5" stroke-linecap="butt"/><path d="M268.97614,173.30585l-0.80981,-0.28682c-3.09753,-3.17909 -0.69134,-6.2431 3.39327,-5.51731c1.58359,0.28139 1.92374,1.41653 2.79189,2.50171c0.42604,1.04396 1.50672,1.84585 1.78907,2.8917c0.85549,3.16883 1.03767,7.94521 0.29286,11.22966c-0.734,3.23678 -4.78692,1.44217 -5.79026,-0.48239c-0.65699,-0.82124 -3.14752,-4.61774 -2.04757,-5.64263c1.09363,-1.019 2.6503,0.97513 3.73622,0.12131c0.29494,-0.2319 0.02366,-0.75298 0.09293,-1.12172c0.6171,-3.28491 0.3524,-3.15403 -2.72127,-3.15403c0,0 -0.6021,0 -0.72735,-0.53948z" fill="#000000" stroke="none" stroke-width="0.5" stroke-linecap="butt"/><path d="M274.65095,216.66797c-0.00303,-0.15106 0.04863,-0.32217 0.20626,-0.4995c0.49827,-0.56056 1.05883,-0.06228 1.05883,-0.06228c1.53706,1.37834 5.95742,7.16518 3.71782,9.26081c-0.99199,0.92823 -3.09392,1.05026 -4.13683,1.99451c-0.67895,0.61472 -0.47406,3.19209 -0.47212,4.01952v0.85714c0,0.41421 -0.33579,0.75 -0.75,0.75c-0.39185,0 -0.71351,-0.3005 -0.7471,-0.68362l-0.14203,-1.42032l0.01675,-0.00167c-1.02286,-2.44009 -2.21225,-5.68224 -1.85755,-7.53098c0.43306,-2.25718 2.05904,-4.14934 2.89072,-6.24909z" fill="#000000" stroke="none" stroke-width="0.5" stroke-linecap="butt"/><path d="M235.15416,193.07263h-5.87097" fill="none" stroke="url(#color-5)" stroke-width="0.5" stroke-linecap="round"/><path d="M229.1219,194.13716l6.19355,0.03226" fill="none" stroke="url(#color-6)" stroke-width="0.5" stroke-linecap="round"/><path d="M229.02513,195.13715l6.51613,0.03226" fill="none" stroke="url(#color-7)" stroke-width="0.5" stroke-linecap="round"/><g data-paper-data="{&quot;index&quot;:null}" stroke-width="1" stroke-linecap="butt"><path d="M204.90326,82.43155c0,0 8.03996,-57.02894 66.12164,-28.11237c33.96361,16.90915 9.00417,90.58031 9.00417,90.58031c0,0 -4.74074,-23.11031 -6.47363,-32.26374c-1.48751,-7.85728 -3.3004,-19.3644 -3.3004,-19.3644l-70.1319,-1.27959z" fill="#ff0000" stroke="#f7f7f7"/><path d="M265.81402,92.27753c0,0 -2.80564,-8.68745 -4.0291,-13.1727c-1.1744,-4.3054 -5.42695,-13.50341 -5.42695,-13.50341c0,0 5.80181,4.40887 7.70185,8.30618c5.06938,10.39821 6.19519,19.36375 6.19519,19.36375z" fill="#f00000" stroke="#f7f7f7"/><path d="M279.74698,145.32253c-3.97226,0 -7.19242,-3.22017 -7.19242,-7.19243c0,-3.97226 3.22016,-7.19242 7.19242,-7.19242c3.97226,0 7.19242,3.22016 7.19242,7.19242c0,3.97227 -3.22016,7.19243 -7.19242,7.19243z" fill="#f0f0f0" stroke="#000000"/></g></g></g></svg>