<svg version="1.1" xmlns="http://www.w3.org/2000/svg" xmlns:xlink="http://www.w3.org/1999/xlink" width="93.9613" height="253.22501" viewBox="0,0,93.9613,253.22501"><defs><linearGradient x1="241.10443" y1="149.45788" x2="241.10443" y2="304.49836" gradientUnits="userSpaceOnUse" id="color-1"><stop offset="0" stop-color="#66c7ff"/><stop offset="1" stop-color="#ffffff"/></linearGradient><linearGradient x1="241.41718" y1="84.69428" x2="241.41718" y2="166.40092" gradientUnits="userSpaceOnUse" id="color-2"><stop offset="0" stop-color="#66c7ff"/><stop offset="1" stop-color="#ffffff"/></linearGradient><linearGradient x1="227.3221" y1="105.86218" x2="227.3221" y2="123.72122" gradientUnits="userSpaceOnUse" id="color-3"><stop offset="0" stop-color="#9bdbff"/><stop offset="1" stop-color="#ffffff"/></linearGradient><linearGradient x1="254.31293" y1="105.86374" x2="254.31293" y2="123.8649" gradientUnits="userSpaceOnUse" id="color-4"><stop offset="0" stop-color="#9bdbff"/><stop offset="1" stop-color="#ffffff"/></linearGradient><linearGradient x1="240.13529" y1="142.24864" x2="240.13529" y2="150.44356" gradientUnits="userSpaceOnUse" id="color-5"><stop offset="0" stop-color="#7eeeff"/><stop offset="1" stop-color="#ffffff"/></linearGradient><linearGradient x1="239.9317" y1="147.67152" x2="239.9317" y2="161.03065" gradientUnits="userSpaceOnUse" id="color-6"><stop offset="0" stop-color="#7eeeff"/><stop offset="1" stop-color="#ffffff"/></linearGradient></defs><g transform="translate(-193.01935,-53.3875)"><g data-paper-data="{&quot;isPaintingLayer&quot;:true}" fill-rule="nonzero" stroke-linejoin="miter" stroke-miterlimit="10" stroke-dasharray="" stroke-dashoffset="0" style="mix-blend-mode: normal"><path d="M195.79862,306.61251v-253.22501h91.18203v253.22501z" fill-opacity="0.01" fill="#000000" stroke="none" stroke-width="0" stroke-linecap="butt"/><path d="M201.54534,304.39162c0,0 -0.63536,-94.38387 -0.79335,-118.01201c-0.05451,-8.15261 8.18688,-36.76129 40.20201,-36.9211c31.60235,-0.15775 39.85672,29.48704 39.84884,36.89673c-0.07659,46.24274 0.65429,117.98648 0.65429,117.98648l-10.49667,0.09614l-0.15882,-114.84311c0,0 0.07549,-3.0993 -2.81625,-3.15415c-3.43441,-0.06514 -2.94538,3.11562 -2.94538,3.11562l0.20548,114.86995l-48.21366,0.07222l-0.30539,-115.23309c0,0 0.27949,-2.919 -2.8856,-2.93443c-3.11083,-0.01515 -2.81569,2.90899 -2.81569,2.90899l0.35311,115.0668z" fill="url(#color-1)" stroke="#000000" stroke-width="2" stroke-linecap="butt"/><path d="M256.1425,200.33379c-0.57113,0 -1.03411,-0.46299 -1.03411,-1.03411c0,-0.57113 0.46299,-1.03413 1.03411,-1.03413c0.57113,0 1.03411,0.463 1.03411,1.03413c0,0.57113 -0.46299,1.03411 -1.03411,1.03411z" fill="#000000" stroke="none" stroke-width="1.5" stroke-linecap="butt"/><path d="M250.88263,204.56941c-4.4635,-0.31439 -6.55245,-1.79392 -6.16985,-2.58011c0.11788,-0.24224 2.84645,1.06355 6.97038,1.3048c6.40897,0.37493 8.51033,-0.63173 8.51033,-0.63173v1.34616c0,0 -2.4135,1.04672 -9.31086,0.56089z" fill="#000000" stroke="#000000" stroke-width="0" stroke-linecap="butt"/><path d="M223.06988,199.29971c0,-0.57113 0.46299,-1.03413 1.03411,-1.03413c0.57113,0 1.03413,0.463 1.03413,1.03413c0,0.57113 -0.463,1.03411 -1.03413,1.03411c-0.57113,0 -1.03411,-0.46299 -1.03411,-1.03411z" fill="#000000" stroke="none" stroke-width="1.5" stroke-linecap="butt"/><path d="M229.36386,204.56941c-6.89736,0.48585 -9.31086,-0.56089 -9.31086,-0.56089v-1.34616c0,0 2.10136,1.00666 8.51033,0.63173c4.12393,-0.24126 6.85251,-1.54704 6.97039,-1.3048c0.3826,0.78618 -1.70634,2.26571 -6.16985,2.58011z" fill="#000000" stroke="#000000" stroke-width="0" stroke-linecap="butt"/><path d="M240.64432,261.12113c-0.81895,0 -1.48284,-0.66389 -1.48284,-1.48284c0,-0.81895 0.66389,-1.48284 1.48284,-1.48284c0.81895,0 1.48284,0.66389 1.48284,1.48284c0,0.81895 -0.66389,1.48284 -1.48284,1.48284z" data-paper-data="{&quot;index&quot;:null}" fill="#000000" stroke="none" stroke-width="1.5" stroke-linecap="butt"/><path d="M216.58107,303.64709v-119.20147c0,0 -1.62873,12.78328 -5.35923,15.91016c-5.43044,4.55176 -13.61605,-0.31806 -13.61605,-3.22762c0,-2.26361 -0.50695,-17.18846 4.26749,-26.93372c4.71281,-9.61946 14.70779,-14.07539 14.70779,-14.07539c0,0 2.67319,-2.35297 4.6557,-3.74807c1.98251,-1.3951 5.17197,-2.80371 5.17197,-2.80371c0,0 -2.11948,26.44806 13.04164,26.37771c15.43477,-0.07162 15.34942,-26.37771 15.34942,-26.37771c0,0 3.91276,1.51959 6.16585,2.94655c1.1911,0.75436 12.88766,5.54979 17.21026,18.4882c3.85402,11.53588 0.44554,31.41248 0.44554,31.41248c0,0 -6.75422,7.94906 -9.91808,-0.11046c-3.63319,-9.25506 -3.74114,-34.54126 -3.74114,-31.99298c0,4.84193 0.75721,14.63937 0.75721,14.63937v118.69667z" fill="#002125" stroke="#000000" stroke-width="2" stroke-linecap="butt"/><path d="M196.44183,103.8801c0,0 6.16329,-5.92187 6.29161,-6.78761c0.33654,-2.27063 -0.16776,-40.17317 35.96775,-41.57382c44.63633,-0.91362 39.01489,35.34872 41.53088,42.1903c3.44981,9.38084 6.15664,17.40016 6.15664,17.40016c0,0 -2.76715,-2.05351 -4.0797,-3.13397c-1.2242,-1.00773 -3.80143,-3.14585 -3.80143,-3.14585c0,0 3.09111,10.3481 1.31092,20.69498c-1.5623,9.48098 -7.29782,17.22543 -7.29782,17.22543l-1.15522,-2.34735c0,0 -1.02266,2.19794 -2.16005,3.33274c-1.1374,1.13479 -3.43873,2.91273 -3.43873,2.91273l-0.09205,-3.70421c0,0 -7.0601,11.01795 -24.35066,10.87154c-16.30625,-0.25547 -26.07151,-10.6752 -26.07151,-10.6752l-0.1162,2.65484c0,0 -3.89477,-3.29276 -6.18145,-9.70754c-2.72545,-7.64567 -3.23946,-12.24324 -3.23946,-12.24324c0,0 -2.33908,1.89916 -5.71704,2.7744c-4.23278,1.09673 -6.94665,0.34526 -6.94665,0.34526c0,0 3.60795,-2.71717 5.58396,-4.76989c1.76007,-1.8284 2.64658,-3.37722 2.64658,-3.37722c0,0 -2.10758,1.0847 -4.23277,1.61795c-2.21739,0.5564 -4.03008,0.53093 -4.03008,0.53093c0,0 4.97492,-5.03728 7.03074,-10.87429c1.94102,-5.51108 2.09972,-10.95731 2.09972,-10.95731c0,0 -1.36165,0.66163 -3.33013,0.79513c-1.24776,0.08463 -2.37785,-0.0489 -2.37785,-0.0489z" fill="#9bdbff" stroke="none" stroke-width="1.5" stroke-linecap="butt"/><path d="M213.22772,115.20172c-0.57709,-7.29323 0.335,-17.15448 0.335,-17.15448c0,0 3.41059,-0.04124 13.91429,-3.14424c8.0696,-2.38394 20.54731,-9.48722 20.54731,-9.48722c0,0 -2.16005,3.00503 -3.40781,4.46015c-1.32651,1.54696 -3.99292,4.56297 -3.99292,4.56297c0,0 7.838,-1.66761 14.67476,-4.72931c8.56837,-3.53575 10.59252,-6.05309 12.95042,-4.5927c2.7829,1.72362 1.03006,23.1827 0.71846,28.74062c-0.42163,5.66922 -2.53327,9.49969 -3.15031,12.52053c-0.61704,3.02084 -0.4096,6.13662 -2.20622,16.0397c-1.12121,6.18021 -4.16183,8.92466 -10.01942,14.66081c-5.85759,5.73616 -9.05378,9.25275 -13.01359,9.32173c-3.81077,0.06639 -8.93565,-5.1002 -13.93542,-10.38244c-5.32393,-5.62474 -8.87489,-8.47713 -9.71551,-15.13975c-0.75707,-6.00039 -0.77653,-9.90853 -1.12266,-15.24835c-0.25298,-3.90273 -2.26119,-6.44504 -2.57636,-10.42801z" fill="url(#color-2)" stroke="#000000" stroke-width="1.5" stroke-linecap="butt"/><path d="M261.0238,102.60845c0,0 1.38277,0.71594 3.80098,2.21295c2.20875,1.36736 3.81713,2.87539 3.81713,2.87539l-0.12653,1.17973c0,0 -6.14205,-4.96277 -13.89612,-6.4412c-6.19997,-1.1821 -10.35247,0.03198 -10.35247,0.03198l1.16634,-4.01095c0,0 3.47037,-0.80122 8.07306,0.32555c4.76605,1.16677 7.63445,2.74343 7.63445,2.74343z" data-paper-data="{&quot;index&quot;:null}" fill="#000000" stroke="none" stroke-width="1.5" stroke-linecap="butt"/><path d="" fill="#ffffff" stroke="#000000" stroke-width="1.4" stroke-linecap="butt"/><path d="" fill="#ffffff" stroke="#000000" stroke-width="1.9" stroke-linecap="butt"/><path d="M240.85986,144.62882c-1.03376,0 -3.5381,-3.26042 -3.7867,-5.3637c-0.22243,-1.88186 1.31512,-3.82799 3.7867,-3.82799c2.47159,0 4.2021,0.49077 4.02999,4.18853c-0.14607,3.13818 -1.55841,5.00317 -4.02999,5.00317z" fill="#ffffff" stroke="#000000" stroke-width="1.15" stroke-linecap="butt"/><path d="M214.92736,125.32494c0,0 -4.93211,-3.51705 -6.16417,-8.97502c-1.29636,-5.74284 -1.46118,-9.7328 0.48013,-9.99193c1.94131,-0.25915 2.70321,2.37692 3.73262,8.35569c1.0294,5.97877 1.95143,10.61127 1.95143,10.61127z" data-paper-data="{&quot;index&quot;:null}" fill="#ffffff" stroke="#000000" stroke-width="1" stroke-linecap="butt"/><path d="M214.72477,121.3774c0,0 -3.56385,-2.92338 -4.31816,-8.45061c-0.42079,-3.08327 2.15675,-2.28016 2.15675,-2.28016" fill="none" stroke="#000000" stroke-width="0.25" stroke-linecap="round"/><path d="M217.73817,114.72149c0.07093,-4.89188 4.83834,-8.93609 10.21137,-8.8582c5.37302,0.0779 9.02724,4.2484 8.95632,9.14029c-0.07093,4.89188 -4.12352,8.79439 -9.49655,8.7165c-5.37302,-0.0779 -9.74207,-4.1067 -9.67114,-8.99859z" fill="url(#color-3)" stroke="#000000" stroke-width="1.4" stroke-linecap="butt"/><path d="M244.79444,114.72221c0.20353,-4.88817 4.45264,-8.85847 9.77048,-8.85847c5.31783,0 9.27453,3.96607 9.27453,8.85847c0,4.8924 -3.88585,9.07104 -9.69964,9.14188c-5.52997,0.06739 -9.55792,-4.03692 -9.34537,-9.14188z" fill="url(#color-4)" stroke="#000000" stroke-width="1.4" stroke-linecap="butt"/><path d="" fill="#ffffff" stroke="#000000" stroke-width="1.15" stroke-linecap="butt"/><path d="" fill="#ffffff" stroke="#000000" stroke-width="1.15" stroke-linecap="butt"/><path d="M221.1723,102.14582c0,0 3.15498,-2.17009 7.74121,-3.13055c5.08211,-1.06433 7.71626,-0.89949 7.71626,-0.89949l0.73736,4.08191c0,0 -3.88643,-0.26513 -8.02757,0.34228c-5.53827,0.81233 -6.45275,2.1377 -10.63188,3.04968c-3.58091,0.78144 -6.68128,0.88089 -6.68128,0.88089l-0.15789,-1.22166c0,0 3.58235,-0.31224 5.19615,-0.62959c1.33198,-0.26193 3.85208,-1.35929 3.85208,-1.35929z" fill="#000000" stroke="none" stroke-width="1.5" stroke-linecap="butt"/><path d="M269.16052,114.71368c1.0294,-5.97877 1.7913,-8.61483 3.73262,-8.35569c1.94131,0.25914 1.77649,4.24909 0.48013,9.99193c-1.23206,5.45797 -6.16417,8.97502 -6.16417,8.97502c0,0 0.92203,-4.6325 1.95143,-10.61127z" data-paper-data="{&quot;index&quot;:null}" fill="#ffffff" stroke="#000000" stroke-width="1" stroke-linecap="butt"/><path d="M269.57309,110.64662c0,0 2.57754,-0.80312 2.15675,2.28016c-0.75431,5.52723 -4.31816,8.45061 -4.31816,8.45061" data-paper-data="{&quot;index&quot;:null}" fill="none" stroke="#000000" stroke-width="0.25" stroke-linecap="round"/><g stroke="#000000"><path d="M255.16934,151.1674c0,2.39041 -6.7717,4.32822 -15.125,4.32822c-8.3533,0 -15.125,-1.93781 -15.125,-4.32822c0,-2.39041 6.7717,-4.32822 15.125,-4.32822c8.3533,0 15.125,1.93781 15.125,4.32822z" fill="#ffffff" stroke-width="1.4" stroke-linecap="butt"/><g><path d="M262.16047,149.92588c-0.01403,0.09932 -0.76747,0.58034 -5.82875,0.51085c-2.24534,-0.03083 -11.40569,-3.44559 -14.48394,-3.24427c-3.31795,0.217 -15.64435,1.81324 -16.20272,1.71746c-4.94371,-0.84808 -7.52429,-1.26638 -7.53495,-1.34349c-0.01439,-0.10398 8.79861,-5.35678 15.28765,-5.31757c6.48904,0.03921 7.91995,3.16975 8.16759,3.18912c0,0 3.94733,-2.74537 7.42397,-2.37937c3.47663,0.36599 13.19064,6.72913 13.17114,6.86727z" fill="url(#color-5)" stroke-width="1.4" stroke-linecap="butt"/><path d="M241.84015,152.57174c6.31471,0.24 12.31429,-1.74844 13.44369,-1.84605c2.05992,-0.17804 6.591,-0.9947 6.63526,-0.68738c0.04328,0.30048 -9.03119,11.3567 -21.14808,10.98308c-13.76954,-0.35927 -22.86459,-13.1995 -22.82675,-13.33893c0.03784,-0.13943 3.0091,1.08548 8.10024,1.93195c0,0 9.48093,2.71733 15.79564,2.95733z" fill="url(#color-6)" stroke-width="1.9" stroke-linecap="butt"/><path d="M229.08179,149.15902l24.24457,0.5604" fill="none" stroke-width="0.5" stroke-linecap="round"/></g></g><path d="M244.46197,114.5351c0,0 0.1026,3.96976 0.00576,7.12662c-0.19174,6.25113 -1.08147,27.7607 -1.08147,27.7607l-2.98167,0.00864c0,0 -0.80294,-4.17274 -1.12322,-9.49979c-0.43353,-7.21063 -0.4495,-16.29321 -0.76344,-19.63229c-0.29758,-3.16513 -0.89593,-5.71453 -0.89593,-5.71453" fill="#ffffff" stroke="#000000" stroke-width="1.3" stroke-linecap="round"/><path d="M226.75,123.5c-4.14214,0 -8.5,-4.40279 -8.5,-6.75c0,-2.34721 5.35786,0.25 9.5,0.25c4.14214,0 9,-3.09721 9,-0.75c0,2.34721 -5.85786,7.25 -10,7.25z" fill="#ffffff" stroke="#000000" stroke-width="1.4" stroke-linecap="butt"/><path d="M244.75,116.25c0,-2.34721 4.85787,0.75 9,0.75c4.14213,0 9.5,-2.59721 9.5,-0.25c0,2.34721 -4.35787,6.75 -8.5,6.75c-2.31926,0 -5.17641,-0.53707 -7.242,-2.30196c-1.6235,-1.38716 -2.758,-3.91507 -2.758,-4.94804z" data-paper-data="{&quot;index&quot;:null}" fill="#ffffff" stroke="#000000" stroke-width="1.4" stroke-linecap="butt"/></g></g></svg>