<svg version="1.1" xmlns="http://www.w3.org/2000/svg" xmlns:xlink="http://www.w3.org/1999/xlink" width="169.86938" height="295.62203" viewBox="0,0,169.86938,295.62203"><defs><linearGradient x1="240.41496" y1="135.93212" x2="240.41496" y2="167.39515" gradientUnits="userSpaceOnUse" id="color-1"><stop offset="0" stop-color="#a25656"/><stop offset="1" stop-color="#790000"/></linearGradient><linearGradient x1="240.96932" y1="-27.48604" x2="240.96932" y2="52.16019" gradientUnits="userSpaceOnUse" id="color-2"><stop offset="0" stop-color="#a25656"/><stop offset="1" stop-color="#790000"/></linearGradient><linearGradient x1="239.45608" y1="36.32585" x2="239.45608" y2="79.93678" gradientUnits="userSpaceOnUse" id="color-3"><stop offset="0" stop-color="#ff8888"/><stop offset="1" stop-color="#790000"/></linearGradient><linearGradient x1="239.86609" y1="58.97114" x2="239.86609" y2="151.32831" gradientUnits="userSpaceOnUse" id="color-4"><stop offset="0" stop-color="#ff8888"/><stop offset="1" stop-color="#790000"/></linearGradient><linearGradient x1="240.00785" y1="100.14417" x2="240.00785" y2="115.92411" gradientUnits="userSpaceOnUse" id="color-5"><stop offset="0" stop-color="#ff8888"/><stop offset="1" stop-color="#790000"/></linearGradient><linearGradient x1="240.69778" y1="166.14566" x2="209.07385" y2="239.99757" gradientUnits="userSpaceOnUse" id="color-6"><stop offset="0" stop-color="#7d0000"/><stop offset="1" stop-color="#a58f8f"/></linearGradient><radialGradient cx="216.04506" cy="223.1621" r="29.40529" gradientUnits="userSpaceOnUse" id="color-7"><stop offset="0" stop-color="#ffffff"/><stop offset="1" stop-color="#ffb4b4"/></radialGradient><radialGradient cx="228.18418" cy="196.91176" r="26.14846" gradientUnits="userSpaceOnUse" id="color-8"><stop offset="0" stop-color="#ffffff"/><stop offset="1" stop-color="#ffb4b4"/></radialGradient></defs><g transform="translate(-150.47478,40.57059)"><g data-paper-data="{&quot;isPaintingLayer&quot;:true}" fill-rule="nonzero" stroke-linejoin="miter" stroke-miterlimit="10" stroke-dasharray="" stroke-dashoffset="0" style="mix-blend-mode: normal"><path d="M224.68344,151.66364c0,-8.68828 7.04324,-15.73152 15.73152,-15.73152c8.68828,0 15.73152,7.04324 15.73152,15.73152c0,8.68828 -7.04324,15.73152 -15.73152,15.73152c-8.68828,0 -15.73152,-7.04324 -15.73152,-15.73152z" fill="url(#color-1)" stroke="none" stroke-width="0.5" stroke-linecap="butt"/><path d="M227.42615,52.16019v-79.64623h27.08635v79.64623z" fill="url(#color-2)" stroke="#7d7d7d" stroke-width="0" stroke-linecap="butt"/><path d="M204.79588,79.93678v-43.61092h69.32042v43.61092z" fill="url(#color-3)" stroke="none" stroke-width="0" stroke-linecap="butt"/><path d="M215.07965,90.41102v-1.33309h0.19044v1.33309z" fill="#7d7d7d" stroke="none" stroke-width="0" stroke-linecap="butt"/><path d="M285.31458,105.14972c0,25.50373 -20.34798,46.17859 -45.44849,46.17859c-25.10051,0 -45.44849,-20.67486 -45.44849,-46.17859c0,-25.50373 20.34798,-46.17858 45.44849,-46.17858c25.10051,0 45.44849,20.67485 45.44849,46.17858z" fill="url(#color-4)" stroke="none" stroke-width="NaN" stroke-linecap="butt"/><path d="M187.87229,37.85048h2.56607" fill="none" stroke="#7d7d7d" stroke-width="0.5" stroke-linecap="round"/><path d="M189.22013,-33.75867l26.51612,72.70548" fill="none" stroke="#000000" stroke-width="4.5" stroke-linecap="round"/><path d="M152.72479,-38.32058l55.02808,79.83347" fill="none" stroke="#000000" stroke-width="4.5" stroke-linecap="round"/><path d="M281.88394,-37.46525l-14.82622,75.84181" fill="none" stroke="#000000" stroke-width="4.5" stroke-linecap="round"/><path d="M318.09416,-33.47356l-46.18937,75.8418" fill="none" stroke="#000000" stroke-width="4.5" stroke-linecap="round"/><path d="M268.52571,105.54959c0,0 -12.39177,13.79231 -27.67779,13.79231c-15.28602,0 -27.67778,-13.7923 -27.67778,-13.7923c0,0 12.39176,-13.7923 27.67779,-13.7923c15.28602,0 27.67779,13.7923 27.67779,13.7923z" fill="#7f7f7f" stroke="none" stroke-width="0" stroke-linecap="butt"/><path d="M248.81363,108.03414c0,4.35752 -3.94248,7.88997 -8.80577,7.88997c-4.86329,0 -8.80578,-3.53246 -8.80578,-7.88997c0,-4.35752 3.94248,-7.88997 8.80578,-7.88997c4.86329,0 8.80577,3.53246 8.80577,7.88997z" fill="url(#color-5)" stroke="#000000" stroke-width="2" stroke-linecap="butt"/><path d="M243.78067,108.13761c0,1.82199 -1.64846,3.299 -3.68193,3.299c-2.03347,0 -3.68192,-1.47701 -3.68192,-3.299c0,-1.82199 1.64845,-3.299 3.68192,-3.299c2.03347,0 3.68193,1.47701 3.68193,3.299z" fill="#8c8c8c" stroke="#000000" stroke-width="2" stroke-linecap="butt"/><path d="M242.536,79.8683c-0.51674,1.28037 -0.94973,1.80205 -2.32966,1.7557c-2.075,-0.0697 -2.42218,-2.25111 -2.30695,-3.627c0.12062,-1.44024 0.93923,-17.9791 2.2196,-17.46236c1.28036,0.51675 2.93376,18.0533 2.41701,19.33366z" data-paper-data="{&quot;index&quot;:null}" fill="#2d2d2d" stroke="none" stroke-width="0.5" stroke-linecap="butt"/><path d="M252.49968,81.28494c-0.9081,1.04005 -1.48824,1.39087 -2.77663,0.89448c-1.93735,-0.74641 -1.54986,-2.92103 -0.98973,-4.18302c0.58632,-1.32101 6.78417,-16.67648 7.82422,-15.76838c1.04005,0.9081 -3.14976,18.01686 -4.05786,19.05692z" data-paper-data="{&quot;index&quot;:null}" fill="#2d2d2d" stroke="none" stroke-width="0.5" stroke-linecap="butt"/><path d="M224.10953,63.24106c1.04005,-0.9081 7.2379,14.44737 7.82422,15.76838c0.56013,1.26199 0.94762,3.43661 -0.98973,4.18302c-1.2884,0.49639 -1.86853,0.14557 -2.77663,-0.89448c-0.9081,-1.04005 -5.09792,-18.14882 -4.05786,-19.05692z" data-paper-data="{&quot;index&quot;:null}" fill="#2d2d2d" stroke="none" stroke-width="0.5" stroke-linecap="butt"/><path d="M237.0301,86.75525c0,-1.89187 1.53367,-3.42554 3.42555,-3.42554c1.89187,0 3.42554,1.53367 3.42554,3.42554c0,1.89187 -1.53367,3.42554 -3.42554,3.42554c-1.89187,0 -3.42555,-1.53367 -3.42555,-3.42554z" fill="#2d2d2d" stroke="none" stroke-width="0.5" stroke-linecap="butt"/><path d="M245.73228,86.91393c0,-1.89187 1.53368,-3.42554 3.42555,-3.42554c1.89187,0 3.42554,1.53367 3.42554,3.42554c0,1.89187 -1.53367,3.42554 -3.42554,3.42554c-1.89187,0 -3.42555,-1.53367 -3.42555,-3.42554z" fill="#2d2d2d" stroke="none" stroke-width="0.5" stroke-linecap="butt"/><path d="M228.092,87.49978c0,-1.89187 1.53368,-3.42554 3.42555,-3.42554c1.89187,0 3.42554,1.53367 3.42554,3.42554c0,1.89187 -1.53367,3.42554 -3.42554,3.42554c-1.89187,0 -3.42555,-1.53367 -3.42555,-3.42554z" fill="#2d2d2d" stroke="none" stroke-width="0.5" stroke-linecap="butt"/><path d="M249.35866,167.51812c0,4.65191 -4.2021,8.42303 -9.38566,8.42303c-5.18356,0 -9.38566,-3.77112 -9.38566,-8.42303c0,-4.65191 4.2021,-8.42303 9.38566,-8.42303c5.18356,0 9.38566,3.77112 9.38566,8.42303z" fill="#ff0000" stroke="#3a0000" stroke-width="2.5" stroke-linecap="butt"/><path d="M261.95846,141.19231l0.09072,0.81649" fill="none" stroke="none" stroke-width="0" stroke-linecap="round"/><path d="M244.22944,255.05143l-70.15852,-30.46423c0,0 4.24292,-0.58471 7.25597,-4.25937c8.75593,-10.6786 24.97332,-34.89323 36.80296,-47.95786c5.51935,-6.09555 15.97894,-8.5716 24.35376,-5.44534c8.44445,3.15226 15.4296,17.08324 13.71325,25.22996c-3.62333,17.19817 -11.09018,41.06572 -13.75437,53.68559c-1.13141,5.35931 1.78694,9.21128 1.78694,9.21128z" fill="url(#color-6)" stroke="none" stroke-width="0" stroke-linecap="butt"/><path d="M192.83184,204.87689l5.68899,-7.90552c0,0 -4.36211,14.01628 -0.83878,15.7446c2.31416,1.13517 7.27702,-4.85819 12.48139,-2.75622c3.69069,1.4906 5.21928,10.05383 7.45516,10.44073c1.98709,0.34384 9.14702,-4.50449 13.93642,-2.34213c2.50629,1.13158 7.20915,10.94828 8.08494,11.03793c2.73532,0.28002 10.04795,-10.79318 10.04795,-10.79318l-3.13136,10.51273c0,0 -5.43828,7.25714 -9.10435,5.74242c-1.85766,-0.76753 -3.83242,-9.4153 -8.76793,-11.52263c-4.40326,-1.88008 -10.62489,3.25306 -13.33742,2.35419c-4.38052,-1.45159 -4.51539,-9.18256 -7.56959,-10.13224c-5.3042,-1.64933 -11.00192,4.03905 -13.34447,2.93051c-3.68177,-1.74228 -1.60099,-13.31119 -1.60099,-13.31119z" fill="url(#color-7)" stroke="none" stroke-width="0.5" stroke-linecap="butt"/><path d="M210.69114,180.92174l43.83425,18.84455l-3.34385,12.26973l-47.74391,-21.35869z" fill="url(#color-8)" stroke="none" stroke-width="0.5" stroke-linecap="butt"/></g></g></svg>