<svg version="1.1" xmlns="http://www.w3.org/2000/svg" xmlns:xlink="http://www.w3.org/1999/xlink" width="34.17311" height="34.17311" viewBox="0,0,34.17311,34.17311"><defs><linearGradient x1="227.45676" y1="183.8562" x2="252.54325" y2="183.8562" gradientUnits="userSpaceOnUse" id="color-1"><stop offset="0" stop-color="#42ff00"/><stop offset="1" stop-color="#ff0000"/></linearGradient><linearGradient x1="236.94017" y1="175.93234" x2="249.10684" y2="175.93234" gradientUnits="userSpaceOnUse" id="color-2"><stop offset="0" stop-color="#42ff00"/><stop offset="1" stop-color="#ff0000"/></linearGradient></defs><g transform="translate(-222.91348,-162.9135)"><g data-paper-data="{&quot;isPaintingLayer&quot;:true}" stroke-miterlimit="10" stroke-dasharray="" stroke-dashoffset="0" style="mix-blend-mode: normal"><path d="M229.98315,162.9135h20.03378c3.9166,0 7.06966,3.15307 7.06966,7.06966v20.03379c0,3.91659 -3.15306,7.06966 -7.06966,7.06966h-20.03378c-3.91659,0 -7.06967,-3.15307 -7.06967,-7.06966v-20.03379c0,-3.91659 3.15308,-7.06966 7.06967,-7.06966z" fill="#ffffff" fill-rule="evenodd" stroke="none" stroke-width="4.43922" stroke-linecap="round" stroke-linejoin="round"/><g fill-rule="nonzero" stroke="#000000" stroke-width="1" stroke-linecap="butt" stroke-linejoin="miter"><path d="M227.45676,186.39203l4.86134,-12.7574c0,0 3.50298,-0.45698 3.19682,2.86767c-0.24067,2.61343 -4.15516,8.34814 -3.31644,8.66773c1.3671,0.52094 4.40269,1.07821 7.2328,2.46743c1.90227,0.93376 3.28019,2.44069 5.41305,1.78207c1.33932,-0.41358 2.5499,-5.77276 3.98949,-7.71154c1.93158,-2.60137 3.70943,-0.36637 3.70943,-0.36637l-4.86134,12.7574z" fill="url(#color-1)"/><path d="M236.94017,183.94803l6.87701,-18.04706l5.28966,2.01568l-6.87701,18.04706z" fill="url(#color-2)"/></g></g></g></svg>