<svg version="1.1" xmlns="http://www.w3.org/2000/svg" xmlns:xlink="http://www.w3.org/1999/xlink" width="98.23691" height="268.22394" viewBox="0,0,98.23691,268.22394"><defs><linearGradient x1="241.15028" y1="150.32621" x2="241.15028" y2="304.40605" gradientUnits="userSpaceOnUse" id="color-1"><stop offset="0" stop-color="#feaa19"/><stop offset="1" stop-color="#ffd65d"/></linearGradient><linearGradient x1="227.64662" y1="192.03502" x2="227.64662" y2="199.56024" gradientTransform="translate(-2695.11007,-2390.01003) scale(12.26542,12.26542)" gradientUnits="userSpaceOnUse" id="color-2"><stop offset="0" stop-color="#d89116"/><stop offset="1" stop-color="#ffc100"/></linearGradient><linearGradient x1="226.47041" y1="112.02731" x2="226.47041" y2="115.52731" gradientUnits="userSpaceOnUse" id="color-3"><stop offset="0" stop-color="#d89116"/><stop offset="1" stop-color="#ffc100"/></linearGradient><linearGradient x1="253.30374" y1="111.52731" x2="253.30374" y2="115.02731" gradientUnits="userSpaceOnUse" id="color-4"><stop offset="0" stop-color="#d89116"/><stop offset="1" stop-color="#ffc100"/></linearGradient><linearGradient x1="232.21868" y1="192.82263" x2="232.21868" y2="193.32263" gradientUnits="userSpaceOnUse" id="color-5"><stop offset="0" stop-color="#d89116"/><stop offset="1" stop-color="#ffc100"/></linearGradient><linearGradient x1="232.21868" y1="193.9033" x2="232.21868" y2="194.4033" gradientUnits="userSpaceOnUse" id="color-6"><stop offset="0" stop-color="#d89116"/><stop offset="1" stop-color="#ffc100"/></linearGradient><linearGradient x1="232.28319" y1="194.9033" x2="232.28319" y2="195.4033" gradientUnits="userSpaceOnUse" id="color-7"><stop offset="0" stop-color="#d89116"/><stop offset="1" stop-color="#ffc100"/></linearGradient></defs><g transform="translate(-192.13154,-37.63802)"><g data-paper-data="{&quot;isPaintingLayer&quot;:true}" fill-rule="nonzero" stroke-linejoin="miter" stroke-miterlimit="10" stroke-dasharray="" stroke-dashoffset="0" style="mix-blend-mode: normal"><path d="M194.91081,305.86197v-253.22501h91.18203v253.22501z" fill-opacity="0.01" fill="#000000" stroke="none" stroke-width="0" stroke-linecap="butt"/><path d="M201.54537,304.39162c0,0 -0.63536,-94.38387 -0.79335,-118.01201c-0.05451,-8.15261 8.18688,-36.76129 40.20201,-36.9211c31.60235,-0.15775 39.85672,29.48704 39.84884,36.89673c-0.07659,46.24274 0.65429,117.98648 0.65429,117.98648l-10.49667,0.09614l-0.15882,-114.84311c0,0 0.07549,-3.0993 -2.81625,-3.15415c-3.43441,-0.06514 -2.94538,3.11562 -2.94538,3.11562l0.20548,114.86995l-48.21366,0.07222l-0.30539,-115.23309c0,0 0.27949,-2.919 -2.8856,-2.93443c-3.11083,-0.01515 -2.81569,2.90899 -2.81569,2.90899l0.35311,115.0668z" fill="#ffffff" stroke="#000000" stroke-width="2" stroke-linecap="butt"/><path d="M256.14252,200.33391c-0.57113,0 -1.03411,-0.46299 -1.03411,-1.03411c0,-0.57113 0.46299,-1.03413 1.03411,-1.03413c0.57113,0 1.03411,0.463 1.03411,1.03413c0,0.57113 -0.46299,1.03411 -1.03411,1.03411z" fill="#000000" stroke="none" stroke-width="1.5" stroke-linecap="butt"/><path d="M250.88266,204.56947c-4.4635,-0.31439 -6.55245,-1.79392 -6.16985,-2.58011c0.11788,-0.24224 2.84645,1.06355 6.97038,1.3048c6.40897,0.37493 8.51033,-0.63173 8.51033,-0.63173v1.34616c0,0 -2.4135,1.04672 -9.31086,0.56089z" fill="#000000" stroke="#000000" stroke-width="0" stroke-linecap="butt"/><path d="M223.06991,199.2998c0,-0.57113 0.46299,-1.03413 1.03411,-1.03413c0.57113,0 1.03413,0.463 1.03413,1.03413c0,0.57113 -0.463,1.03411 -1.03413,1.03411c-0.57113,0 -1.03411,-0.46299 -1.03411,-1.03411z" fill="#000000" stroke="none" stroke-width="1.5" stroke-linecap="butt"/><path d="M229.36389,204.56947c-6.89736,0.48585 -9.31086,-0.56089 -9.31086,-0.56089v-1.34616c0,0 2.10136,1.00666 8.51033,0.63173c4.12393,-0.24126 6.85251,-1.54704 6.97039,-1.3048c0.3826,0.78618 -1.70634,2.26571 -6.16985,2.58011z" fill="#000000" stroke="#000000" stroke-width="0" stroke-linecap="butt"/><path d="M240.64435,261.12113c-0.81895,0 -1.48284,-0.66389 -1.48284,-1.48284c0,-0.81895 0.66389,-1.48284 1.48284,-1.48284c0.81895,0 1.48284,0.66389 1.48284,1.48284c0,0.81895 -0.66389,1.48284 -1.48284,1.48284z" data-paper-data="{&quot;index&quot;:null}" fill="#000000" stroke="none" stroke-width="1.5" stroke-linecap="butt"/><path d="M216.5811,304.40603v-119.20147c0,0 0.75721,-9.73105 0.75721,-14.63937c0,-4.498 -0.75721,-13.6872 -0.75721,-13.6872c0,0 2.67319,-2.35297 4.6557,-3.74807c1.98251,-1.3951 5.17197,-2.80371 5.17197,-2.80371c0,0 -0.6016,20.05162 14.55952,19.98127c15.43477,-0.07162 13.83154,-19.98127 13.83154,-19.98127c0,0 3.91276,1.51959 6.16585,2.94655c2.25309,1.42695 4.75379,3.60523 4.75379,3.60523c0,0 -0.75721,9.42463 -0.75721,14.19201c0,4.84193 0.75721,14.63937 0.75721,14.63937v118.69667z" fill="url(#color-1)" stroke="#000000" stroke-width="2" stroke-linecap="butt"/><path d="M195.55402,103.12963c0,0 6.16329,-5.92187 6.29161,-6.78761c0.33654,-2.27063 -0.16776,-40.17317 35.96775,-41.57382c44.63633,-0.91362 39.01489,35.34872 41.53088,42.1903c3.44981,9.38084 6.15664,17.40016 6.15664,17.40016c0,0 -2.76715,-2.05351 -4.0797,-3.13397c-1.2242,-1.00773 -3.80143,-3.14585 -3.80143,-3.14585c0,0 3.09111,10.3481 1.31092,20.69498c-1.5623,9.48098 -7.29782,17.22543 -7.29782,17.22543l-1.15522,-2.34735c0,0 -1.02266,2.19794 -2.16005,3.33274c-1.1374,1.13479 -3.43873,2.91273 -3.43873,2.91273l-0.09205,-3.70421c0,0 -7.0601,11.01795 -24.35066,10.87154c-16.30625,-0.25547 -26.07151,-10.6752 -26.07151,-10.6752l-0.1162,2.65484c0,0 -3.89477,-3.29276 -6.18145,-9.70754c-2.72545,-7.64567 -3.23946,-12.24324 -3.23946,-12.24324c0,0 -2.33908,1.89916 -5.71704,2.7744c-4.23278,1.09673 -6.94665,0.34526 -6.94665,0.34526c0,0 3.60795,-2.71717 5.58396,-4.76989c1.76007,-1.8284 2.64658,-3.37722 2.64658,-3.37722c0,0 -2.10758,1.0847 -4.23277,1.61795c-2.21739,0.5564 -4.03008,0.53093 -4.03008,0.53093c0,0 4.97492,-5.03728 7.03074,-10.87429c1.94102,-5.51108 2.09972,-10.95731 2.09972,-10.95731c0,0 -1.36165,0.66163 -3.33013,0.79513c-1.24776,0.08463 -2.37785,-0.0489 -2.37785,-0.0489z" fill="#000000" stroke="none" stroke-width="1.5" stroke-linecap="butt"/><path d="M212.33991,114.45125c-0.57709,-7.29323 0.335,-17.15448 0.335,-17.15448c0,0 3.41059,-0.04124 13.91429,-3.14424c8.0696,-2.38394 20.54731,-9.48722 20.54731,-9.48722c0,0 -2.16005,3.00503 -3.40781,4.46015c-1.32651,1.54696 -3.99292,4.56297 -3.99292,4.56297c0,0 7.838,-1.66761 14.67476,-4.72931c8.56837,-3.53575 10.59252,-6.05309 12.95042,-4.5927c2.7829,1.72362 1.03006,23.1827 0.71846,28.74062c-0.42163,5.66922 -2.53327,9.49969 -3.15031,12.52053c-0.61704,3.02084 -0.4096,6.13662 -2.20622,16.0397c-1.12121,6.18021 -4.16183,8.92466 -10.01942,14.66081c-5.85759,5.73616 -9.05378,9.25275 -13.01359,9.32173c-3.81077,0.06639 -8.93565,-5.1002 -13.93542,-10.38244c-5.32393,-5.62474 -8.87489,-8.47713 -9.71551,-15.13975c-0.75707,-6.00039 -0.77653,-9.90853 -1.12266,-15.24835c-0.25298,-3.90273 -2.26119,-6.44504 -2.57636,-10.42801z" fill="#ffffff" stroke="#000000" stroke-width="1.5" stroke-linecap="butt"/><g data-paper-data="{&quot;index&quot;:null}" stroke="none" stroke-linecap="butt"><path d="M260.86807,149.86696c0,0 -5.50765,9.35738 -21.25316,8.64185c-12.10303,-0.54999 -22.09768,-10.01684 -22.09768,-10.01684c0,0 8.54292,-4.95413 14.08754,-4.77826c2.16057,0.06856 9.22174,2.96812 9.22174,2.96812c0,0 5.65297,-2.29377 8.26539,-1.67987c6.73941,1.58383 11.77618,4.86504 11.77618,4.86504z" fill="#000000" stroke-width="0"/><path d="M253.92678,147.66636c1.21176,0.65633 0.82249,0.88382 -2.8755,0.8043c-2.4235,0 -8.45411,0.10688 -9.20626,0.38532c-1.21175,0.43755 -1.84456,-0.03015 -1.84456,-1.14388c0,-0.77567 3.85652,-1.01375 4.81759,-1.21261c1.96391,-0.45746 7.39556,0.27192 9.10873,1.16687z" data-paper-data="{&quot;noHover&quot;:false,&quot;origItem&quot;:[&quot;Path&quot;,{&quot;applyMatrix&quot;:true,&quot;segments&quot;:[[[471.00636,152.47627],[0.36719,-0.08755],[-0.17969,0.03806]],[[470.73293,152.77316],[0,-0.14845],[0,0.21315]],[[471.00636,152.92541],[-0.22656,0.08374],[0.14063,-0.05329]],[[472.07668,152.82264],[-0.45312,0],[0.69141,0.01522]],[[472.61184,152.68561],[0.22656,0.12561],[-0.32031,-0.17128]]],&quot;closed&quot;:true,&quot;fillColor&quot;:[0,0,0,1]}]}" fill="#ffffff" stroke-width="0.5"/><path d="M223.62728,146.44089c1.14519,-1.16484 9.18602,-1.13978 14.26738,-0.04559c0.96177,0.2071 3.29028,2.69493 3.29028,2.69493c0,0 -3.27541,-0.26397 -11.00247,-1.96924c-3.57262,-0.13925 -6.74329,-0.5409 -6.55523,-0.6801z" data-paper-data="{&quot;noHover&quot;:false,&quot;origItem&quot;:[&quot;Path&quot;,{&quot;applyMatrix&quot;:true,&quot;segments&quot;:[[[467.08838,152.54853],[0,0],[-0.03516,0.02664]],[[468.25636,152.66272],[-0.66797,-0.02665],[0.67969,0.03806]],[[469.69777,152.82258],[-0.1211,-0.04948],[0.21094,0.10277]],[[469.80324,152.54853],[0.15625,0.25121],[-0.17969,-0.29689]],[[467.0884,152.54853],[0.28515,-0.29689],[0,0]]],&quot;closed&quot;:true,&quot;fillColor&quot;:[0,0,0,1]}]}" fill="#ffffff" stroke-width="0.5"/><path d="M225.99676,148.66064c3.30104,0 6.58693,0.45375 10.22224,1.48795c4.88889,1.43194 5.96362,1.57271 9.13927,0.71751c4.07405,-1.11373 13.56771,-1.18715 13.56771,-0.21261c0,0.97448 -6.11561,3.89103 -10.18966,4.72631c-5.47385,1.1734 -14.72336,0.40271 -19.6331,-1.66565c-2.29819,-0.91486 -4.97292,-2.49165 -6.03844,-3.38661l-1.91915,-1.58984l4.85113,-0.07712z" data-paper-data="{&quot;noHover&quot;:false,&quot;origItem&quot;:[&quot;Path&quot;,{&quot;applyMatrix&quot;:true,&quot;segments&quot;:[[467.52979,152.88736],[466.62354,152.89878],[[466.98291,153.19948],[0,0],[0.19922,0.17128]],[[468.11182,153.83513],[-0.42969,-0.17509],[0.91797,0.39585]],[[471.68604,154.14344],[-1.02344,0.22457],[0.76172,-0.15986]],[[473.58838,153.26039],[0,0.1865],[0,-0.18651]],[[471.05322,153.30987],[0.76172,-0.21315],[-0.59375,0.16367]],[[469.43603,153.18426],[0.91407,0.27405],[-0.67969,-0.19793]],[[467.52978,152.88737],[0.61719,0],[0,0]]],&quot;closed&quot;:true,&quot;fillColor&quot;:[0,0,0,1]}]}" fill="#ffffff" stroke-width="0.5"/></g><path d="M239.97205,143.87829c-1.03376,0 -3.5381,-3.26042 -3.7867,-5.3637c-0.22243,-1.88186 1.31512,-3.82799 3.7867,-3.82799c2.47159,0 4.2021,0.49077 4.02999,4.18853c-0.14607,3.13818 -1.55841,5.00317 -4.02999,5.00317z" fill="#ffffff" stroke="#000000" stroke-width="1.15" stroke-linecap="butt"/><path d="M243.57416,113.78463c0,0 0.1026,3.96976 0.00576,7.12662c-0.19174,6.25113 -1.08147,27.7607 -1.08147,27.7607l-2.98167,0.00864c0,0 -0.80294,-4.17274 -1.12322,-9.49979c-0.43353,-7.21063 -0.4495,-16.29321 -0.76344,-19.63229c-0.29758,-3.16513 -0.89593,-5.71453 -0.89593,-5.71453" fill="#ffffff" stroke="#000000" stroke-width="1.3" stroke-linecap="round"/><path d="M214.03955,124.57447c0,0 -4.93211,-3.51705 -6.16417,-8.97502c-1.29636,-5.74284 -1.46118,-9.7328 0.48013,-9.99193c1.94131,-0.25915 2.70321,2.37692 3.73262,8.35569c1.0294,5.97877 1.95143,10.61127 1.95143,10.61127z" data-paper-data="{&quot;index&quot;:null}" fill="#ffffff" stroke="#000000" stroke-width="1" stroke-linecap="butt"/><path d="M213.83696,120.62691c0,0 -3.56385,-2.92338 -4.31816,-8.45061c-0.42079,-3.08327 2.15675,-2.28016 2.15675,-2.28016" fill="none" stroke="#000000" stroke-width="0.25" stroke-linecap="round"/><path d="M216.85036,113.97102c0.07093,-4.89188 4.83834,-8.93609 10.21137,-8.8582c5.37302,0.0779 9.02724,4.2484 8.95632,9.14029c-0.07093,4.89188 -4.12352,8.79439 -9.49655,8.7165c-5.37302,-0.0779 -9.74207,-4.1067 -9.67114,-8.99859z" fill="#000000" stroke="#000000" stroke-width="1.4" stroke-linecap="butt"/><path d="M221.28799,114.08896c0.03999,-2.75843 2.30855,-4.96213 5.06696,-4.92214c2.75843,0.03999 4.96213,2.30855 4.92214,5.06696c-0.03999,2.75843 -2.30854,4.96213 -5.06696,4.92214c-2.75843,-0.03999 -4.96213,-2.30855 -4.92214,-5.06696z" fill="#000000" stroke="none" stroke-width="1.5" stroke-linecap="butt"/><path d="M243.90663,113.97175c0.20353,-4.88817 4.45264,-8.85847 9.77048,-8.85847c5.31783,0 9.27453,3.96607 9.27453,8.85847c0,4.8924 -3.88585,9.07104 -9.69964,9.14188c-5.52997,0.06739 -9.55792,-4.03692 -9.34537,-9.14188z" fill="#000000" stroke="#000000" stroke-width="1.4" stroke-linecap="butt"/><path d="M248.50939,114.05729c0,-2.81845 2.2848,-5.10325 5.10325,-5.10325c2.81845,0 5.10325,2.2848 5.10325,5.10325c0,2.81845 -2.28479,5.10325 -5.10325,5.10325c-2.81845,0 -5.10325,-2.2848 -5.10325,-5.10325z" fill="#000000" stroke="none" stroke-width="1.5" stroke-linecap="butt"/><path d="M268.2727,113.9632c1.0294,-5.97877 1.7913,-8.61483 3.73262,-8.35569c1.94131,0.25914 1.77649,4.24909 0.48013,9.99193c-1.23206,5.45797 -6.16417,8.97502 -6.16417,8.97502c0,0 0.92203,-4.6325 1.95143,-10.61127z" data-paper-data="{&quot;index&quot;:null}" fill="#ffffff" stroke="#000000" stroke-width="1" stroke-linecap="butt"/><path d="M268.68525,109.89614c0,0 2.57754,-0.80312 2.15675,2.28016c-0.75431,5.52723 -4.31816,8.45061 -4.31816,8.45061" data-paper-data="{&quot;index&quot;:null}" fill="none" stroke="#000000" stroke-width="0.25" stroke-linecap="round"/><path d="M220.01422,198.68107v-6.05h15.65834v6.05z" fill="#2f2f2f" stroke="#2f2f2f" stroke-width="2" stroke-linecap="butt"/><text transform="translate(219.73232,194.85752) scale(0.08153,0.08153)" font-size="40" xml:space="preserve" fill="url(#color-2)" fill-rule="nonzero" stroke="none" stroke-width="1" stroke-linecap="butt" stroke-linejoin="miter" stroke-miterlimit="10" stroke-dasharray="" stroke-dashoffset="0" font-family="Sans Serif" font-weight="normal" text-anchor="start" style="mix-blend-mode: normal"><tspan x="0" dy="0">Donk</tspan><tspan x="0" dy="46.150000000000006px">Industries</tspan></text><path d="M224.72041,113.77731c0,-0.9665 0.7835,-1.75 1.75,-1.75c0.9665,0 1.75,0.7835 1.75,1.75c0,0.9665 -0.7835,1.75 -1.75,1.75c-0.9665,0 -1.75,-0.7835 -1.75,-1.75z" fill="url(#color-3)" stroke="none" stroke-width="0.5" stroke-linecap="butt"/><path d="M251.55374,113.27731c0,-0.9665 0.7835,-1.75 1.75,-1.75c0.9665,0 1.75,0.7835 1.75,1.75c0,0.9665 -0.7835,1.75 -1.75,1.75c-0.9665,0 -1.75,-0.7835 -1.75,-1.75z" fill="url(#color-4)" stroke="none" stroke-width="0.5" stroke-linecap="butt"/><path d="M225.47041,123.02731v10.33333" fill="none" stroke="#000000" stroke-width="0.5" stroke-linecap="round"/><path d="M217.83742,167.27087l-0.625,9l-0.5,-5.625" fill="none" stroke="#000000" stroke-width="2.5" stroke-linecap="round"/><path d="M258.21241,153.52087l-9,12.25l-3.75,3.75l-6.75,1.25l-8.5,-6.25l-8.25,-11.625" fill="none" stroke="#000000" stroke-width="2.5" stroke-linecap="round"/><path d="M242.77106,168.64642c0.06202,0.49614 -0.43412,0.55816 -0.43412,0.55816l-0.309,0.0099c-0.79718,0.38534 -1.5517,0.44969 -2.31741,0.29498l-0.02384,0.0053v0.10545h-0.52941c-0.15312,0 -0.29017,-0.06883 -0.38189,-0.17724l-0.3052,-0.06782c-0.21399,-0.04291 -0.3786,-0.22243 -0.39901,-0.44372c-0.36877,-0.1103 -0.5708,-0.22318 -0.68957,-0.40953c-0.00538,-0.00129 -0.01078,-0.00257 -0.0162,-0.00386l-0.06586,-0.07936l-0.02112,0.02957l-0.40634,-0.29024c-0.12983,-0.09031 -0.2148,-0.2406 -0.2148,-0.41074c0,-0.27614 0.22386,-0.5 0.5,-0.5c0.11048,0 0.2126,0.03583 0.29535,0.09652l0.34433,0.24595c0.50614,0.1057 0.7849,0.25658 1.31057,0.18943c0,0 0.49752,-0.04975 0.54727,0.44777c0.00058,0.0058 0.00109,0.01154 0.00152,0.01723c0.46498,-0.09785 1.09075,-0.01316 1.45132,-0.10263l0.51888,-0.11531c0.03814,-0.00931 0.07799,-0.01425 0.11899,-0.01425c0.16031,0 0.30299,0.07544 0.39449,0.19276l0.0729,-0.01243c0,0 0.49614,-0.06202 0.55816,0.43412z" fill="#ffffff" stroke="none" stroke-width="0.5" stroke-linecap="butt"/><path d="M227.98572,157.89614c1.31961,1.98885 2.58082,4.31676 4.37773,5.38823c0,0 0.424,0.265 0.159,0.689c-0.265,0.424 -0.689,0.159 -0.689,0.159c-2.51327,-1.62255 -4.11759,-5.20664 -6.05245,-7.53059l-0.00287,-0.10036l-0.03638,0.01213l-0.17278,-0.51834c-0.019,-0.05284 -0.02935,-0.1098 -0.02935,-0.16919c0,-0.27614 0.22386,-0.5 0.5,-0.5c0.11438,0 0.21979,0.03841 0.30404,0.10303l0.46655,0.34991l-0.03924,0.05232c0.5336,0.2647 0.98313,0.61232 1.3041,1.1829l0.05279,0.51772c0,0 0,0.21617 -0.14214,0.36424z" fill="#ffffff" stroke="none" stroke-width="0.5" stroke-linecap="butt"/><path d="M231.67872,129.09668c0.5,0 0.5,0.5 0.5,0.5v0.33334c0,1.71983 -0.54106,3.13523 -1.01224,4.77662c-0.82825,5.02122 -5.16059,4.58236 -9.06785,3.21692c-4.82761,0.04139 -3.92132,-4.6562 -3.32978,-8.24241c0,0 0.0822,-0.4932 0.5754,-0.411c0.49319,0.0822 0.411,0.5754 0.411,0.5754c-0.18344,1.09059 -1.05376,5.93165 -0.16559,6.70674c0.46746,0.40795 2.11295,0.37996 2.66915,0.38418c3.44257,1.10699 7.1786,2.03026 7.93215,-2.44974c0.44738,-1.57277 0.98776,-2.91836 0.98776,-4.55671v-0.33334c0,0 0,-0.5 0.5,-0.5z" fill="#000000" stroke="none" stroke-width="0.5" stroke-linecap="butt"/><path d="M259.93705,128.56615c0.5,0 0.5,0.5 0.5,0.5c0,1.4 0,3 0,4.4c0,0.99079 0.31727,2.7349 -0.15279,3.62361c-1.16566,2.20383 -6.47288,0.97396 -8.39648,0.97396c-0.87506,-0.17501 -2.06242,-0.0875 -2.82598,-0.58015c-1.67261,-1.07916 -1.52475,-5.51796 -1.52475,-7.31742c0,0 0,-0.5 0.5,-0.5c0.5,0 0.5,0.5 0.5,0.5c0,1.43029 -0.16592,5.60401 1.07525,6.48258c0.53674,0.37993 1.71432,0.28791 2.37402,0.41985c2.02372,0 3.85208,0.40506 5.85267,0.00728c0.26572,-0.05283 1.48931,-0.21815 1.55084,-0.43332c0.26772,-0.93621 0.04721,-2.20649 0.04721,-3.17639c0,-1.4 0,-2.8 0,-4.2v-0.2c0,0 0,-0.5 0.5,-0.5z" fill="#000000" stroke="none" stroke-width="0.5" stroke-linecap="butt"/><path d="M207.8807,175.41933c0.0446,0.00109 0.07171,0.00496 0.07171,0.00496c0.92342,0.13649 2.98074,0.70889 3.64309,1.29564c1.07851,0.9554 0.4335,1.311 0.27688,2.28125c-0.50876,3.15163 -2.83993,6.30737 -6.20999,5.55305c-0.45526,-0.1019 0.44949,0.82079 0.6172,1.25613c0.40739,1.822 1.49915,3.70176 0.85111,5.58928c-0.48075,1.40028 -1.2776,3.38111 -3.1004,2.01174c-0.50497,-0.37935 -0.15106,-1.3086 -0.51819,-1.82252c-1.80618,-2.52832 -0.84434,-6.04321 -0.84434,-9.27924c0.04267,-3.15012 2.0912,-4.80547 4.07681,-6.81604l0.67319,-0.21967c0,0 0.25127,0 0.46293,0.14544z" fill="#000000" stroke="none" stroke-width="0.5" stroke-linecap="butt"/><path d="M204.10394,204.48985c-0.15665,-0.10516 -0.29331,-0.28865 -0.29331,-0.6088c0,-0.75 0.75,-0.75 0.75,-0.75c3.64975,0.01015 5.6855,4.66119 1.87483,5.67514c0.77783,0.65445 0.91535,2.20558 1.23276,3.18004l0.53706,0.93986c0.06691,0.11222 0.10535,0.24339 0.10535,0.38354c0,0.41421 -0.33579,0.75 -0.75,0.75c-0.11082,0 -0.21602,-0.02403 -0.31068,-0.06717l-0.98476,-0.42204l0.08681,-0.20255c-2.25383,-0.76993 -4.91506,-2.42581 -4.52653,-4.77812c0.25384,-1.53681 2.03906,-2.50713 2.27847,-4.09988z" fill="#000000" stroke="none" stroke-width="0.5" stroke-linecap="butt"/><path d="M205.26499,248.35728l-0.30878,-0.31366c-0.16789,-0.10432 -0.33577,-0.20863 -0.50366,-0.31295c-4.54395,-0.97419 0.29422,-4.71269 1.51692,-6.31119c0.38659,-0.5054 0.80962,-1.87573 1.82004,-1.53838c1.02148,0.34105 0.54359,1.64482 0.65429,2.30837c0.47499,2.84712 1.43826,5.07649 1.43826,8.12014c0,2.90845 0.50466,5.71013 0.28316,8.63329c-0.16644,2.19655 -0.85127,3.84443 -1.1426,5.71109c-0.43064,2.75926 -2.76027,1.86593 -3.45194,-0.08641c-0.74401,-1.87641 -2.21219,-4.31542 -1.26631,-6.42089c0.50771,-1.13012 1.94069,-1.91645 2.43967,-3.02373c0.75171,-1.66813 -0.90056,-4.78022 -1.45708,-6.26429c0,0 -0.09224,-0.24599 -0.02196,-0.50138z" fill="#000000" stroke="none" stroke-width="0.5" stroke-linecap="butt"/><path d="M268.97614,173.30585l-0.80981,-0.28682c-3.09753,-3.17909 -0.69134,-6.2431 3.39327,-5.51731c1.58359,0.28139 1.92374,1.41653 2.79189,2.50171c0.42604,1.04396 1.50672,1.84585 1.78907,2.8917c0.85549,3.16883 1.03767,7.94521 0.29286,11.22966c-0.734,3.23678 -4.78692,1.44217 -5.79026,-0.48239c-0.65699,-0.82124 -3.14752,-4.61774 -2.04757,-5.64263c1.09363,-1.019 2.6503,0.97513 3.73622,0.12131c0.29494,-0.2319 0.02366,-0.75298 0.09293,-1.12172c0.6171,-3.28491 0.3524,-3.15403 -2.72127,-3.15403c0,0 -0.6021,0 -0.72735,-0.53948z" fill="#000000" stroke="none" stroke-width="0.5" stroke-linecap="butt"/><path d="M274.65095,216.66797c-0.00303,-0.15106 0.04863,-0.32217 0.20626,-0.4995c0.49827,-0.56056 1.05883,-0.06228 1.05883,-0.06228c1.53706,1.37834 5.95742,7.16518 3.71782,9.26081c-0.99199,0.92823 -3.09392,1.05026 -4.13683,1.99451c-0.67895,0.61472 -0.47406,3.19209 -0.47212,4.01952v0.85714c0,0.41421 -0.33579,0.75 -0.75,0.75c-0.39185,0 -0.71351,-0.3005 -0.7471,-0.68362l-0.14203,-1.42032l0.01675,-0.00167c-1.02286,-2.44009 -2.21225,-5.68224 -1.85755,-7.53098c0.43306,-2.25718 2.05904,-4.14934 2.89072,-6.24909z" fill="#000000" stroke="none" stroke-width="0.5" stroke-linecap="butt"/><path d="M229.28319,193.07263h5.87097" fill="none" stroke="url(#color-5)" stroke-width="0.5" stroke-linecap="round"/><path d="M229.1219,194.13716l6.19355,0.03226" fill="none" stroke="url(#color-6)" stroke-width="0.5" stroke-linecap="round"/><path d="M229.02513,195.13715l6.51613,0.03226" fill="none" stroke="url(#color-7)" stroke-width="0.5" stroke-linecap="round"/><g data-paper-data="{&quot;index&quot;:null}" stroke-width="1" stroke-linecap="butt"><path d="M205.90326,74.43154c0,0 8.03996,-57.02894 66.12164,-28.11237c33.96361,16.90915 9.00417,90.58031 9.00417,90.58031c0,0 -4.74074,-23.11031 -6.47363,-32.26374c-1.48751,-7.85728 -3.3004,-19.3644 -3.3004,-19.3644l-70.1319,-1.27959z" fill="#ff0000" stroke="#f7f7f7"/><path d="M266.81402,84.27752c0,0 -2.80564,-8.68745 -4.0291,-13.1727c-1.1744,-4.3054 -5.42695,-13.50341 -5.42695,-13.50341c0,0 5.80181,4.40887 7.70185,8.30618c5.06938,10.39821 6.19519,19.36375 6.19519,19.36375z" fill="#f00000" stroke="#f7f7f7"/><path d="M280.74698,137.32252c-3.97226,0 -7.19242,-3.22017 -7.19242,-7.19243c0,-3.97226 3.22016,-7.19242 7.19242,-7.19242c3.97226,0 7.19242,3.22016 7.19242,7.19242c0,3.97227 -3.22016,7.19243 -7.19242,7.19243z" fill="#f0f0f0" stroke="#000000"/></g></g></g></svg>