<svg version="1.1" xmlns="http://www.w3.org/2000/svg" xmlns:xlink="http://www.w3.org/1999/xlink" width="35.67311" height="35.67311" viewBox="0,0,35.67311,35.67311"><defs><linearGradient x1="240.00001" y1="162.91345" x2="240.00001" y2="197.08656" gradientUnits="userSpaceOnUse" id="color-1"><stop offset="0" stop-color="#00e306"/><stop offset="1" stop-color="#6b8672"/></linearGradient><linearGradient x1="240.00001" y1="162.91345" x2="240.00001" y2="197.08656" gradientUnits="userSpaceOnUse" id="color-2"><stop offset="0" stop-color="#ffffff"/><stop offset="1" stop-color="#000000"/></linearGradient></defs><g transform="translate(-222.16345,-162.16345)"><g data-paper-data="{&quot;isPaintingLayer&quot;:true}" stroke-miterlimit="10" stroke-dasharray="" stroke-dashoffset="0" style="mix-blend-mode: normal"><path d="M229.98311,162.91345h20.03379c3.9166,0 7.06966,3.15307 7.06966,7.06966v20.03379c0,3.91659 -3.15306,7.06966 -7.06966,7.06966h-20.03379c-3.91659,0 -7.06966,-3.15307 -7.06966,-7.06966v-20.03379c0,-3.91659 3.15307,-7.06966 7.06966,-7.06966z" fill="url(#color-1)" fill-rule="evenodd" stroke="url(#color-2)" stroke-width="1.5" stroke-linecap="round" stroke-linejoin="round"/><path d="M253.45655,175.25463c-0.48883,1.35368 -1.84251,0.86485 -1.84251,0.86485c-5.64033,-2.03677 -11.7319,-4.2365 -17.37224,-6.27327c0,0 -1.35368,-0.48883 -0.86485,-1.84251c0.48883,-1.35368 1.84251,-0.86485 1.84251,-0.86485c5.64033,2.03677 11.28068,4.07356 16.921,6.11033l0.45122,0.16294c0,0 1.35368,0.48883 0.86485,1.84251z" fill="#000000" fill-rule="nonzero" stroke="#ffffff" stroke-width="1" stroke-linecap="butt" stroke-linejoin="miter"/><path d="M247.73476,182.62468c1.35368,0.48883 0.86485,1.84251 0.86485,1.84251c-0.51598,1.42888 -1.19491,3.309 -1.71089,4.73788c-0.46347,1.24007 -0.79049,2.6846 -2.171,3.35844c-3.32217,1.62156 -11.30968,-2.33567 -14.38096,-3.72862c-0.89422,-0.40557 -3.24742,-1.67173 -3.63346,-2.52152c-1.12261,-2.47119 1.58728,-7.14235 2.87815,-9.08495c0,0 0.80255,-1.1947 1.99726,-0.39216c1.19471,0.80256 0.39215,1.99725 0.39215,1.99725c-0.60846,0.89419 -3.24262,5.14277 -2.66188,6.25677c0.3507,0.67271 2.76621,1.31674 3.45384,1.56412c2.86291,1.02994 10.14131,5.2878 11.41855,1.57302c0.51598,-1.42888 1.03197,-2.85778 1.54795,-4.28666l0.16294,-0.45122c0,0 0.48883,-1.35368 1.84251,-0.86485z" fill="#000000" fill-rule="nonzero" stroke="#ffffff" stroke-width="1" stroke-linecap="butt" stroke-linejoin="miter"/><path d="M236.45297,186.33691c-1.12964,-0.89182 -0.23783,-2.02145 -0.23783,-2.02145l0.87376,-1.09964c1.53665,-2.73375 1.4755,-5.5572 2.48692,-8.42436c0,0 0.48883,-1.35368 1.84251,-0.86485c1.35368,0.48883 0.86485,1.84251 0.86485,1.84251c-1.13893,3.06351 -1.13031,6.06856 -2.80243,9.04815l-1.00635,1.28184c0,0 -0.89181,1.12963 -2.02146,0.23781z" fill="#000000" fill-rule="nonzero" stroke="#ffffff" stroke-width="1" stroke-linecap="butt" stroke-linejoin="miter"/><path d="M231.35898,172.88574c0.26997,-0.74762 1.09488,-1.13483 1.84251,-0.86485c0.74762,0.26997 1.13483,1.09488 0.86485,1.84251c-0.26997,0.74762 -1.09488,1.13483 -1.84251,0.86485c-0.74762,-0.26997 -1.13483,-1.09488 -0.86485,-1.84251z" fill="#000000" fill-rule="nonzero" stroke="#ffffff" stroke-width="1" stroke-linecap="butt" stroke-linejoin="miter"/><path d="M247.76609,178.30042c0.26997,-0.74762 1.0949,-1.13482 1.84251,-0.86485c0.74761,0.26997 1.13483,1.09488 0.86485,1.84251c-0.26997,0.74762 -1.0949,1.13482 -1.84251,0.86485c-0.74761,-0.26997 -1.13483,-1.09488 -0.86485,-1.84251z" fill="#000000" fill-rule="nonzero" stroke="#ffffff" stroke-width="1" stroke-linecap="butt" stroke-linejoin="miter"/></g></g></svg>