<svg version="1.1" xmlns="http://www.w3.org/2000/svg" xmlns:xlink="http://www.w3.org/1999/xlink" width="34.17311" height="34.17311" viewBox="0,0,34.17311,34.17311"><defs><linearGradient x1="225.18878" y1="176.7864" x2="237.7049" y2="176.7864" gradientUnits="userSpaceOnUse" id="color-1"><stop offset="0" stop-color="#00ff3a"/><stop offset="1" stop-color="#ff0000"/></linearGradient><linearGradient x1="239.12909" y1="181.72019" x2="256.06124" y2="181.72019" gradientUnits="userSpaceOnUse" id="color-2"><stop offset="0" stop-color="#00ff3a"/><stop offset="1" stop-color="#ff0000"/></linearGradient><linearGradient x1="230.86698" y1="180.93121" x2="244.31643" y2="180.93121" gradientUnits="userSpaceOnUse" id="color-3"><stop offset="0" stop-color="#00ff3a"/><stop offset="1" stop-color="#ff0000"/></linearGradient></defs><g transform="translate(-222.91348,-162.9135)"><g data-paper-data="{&quot;isPaintingLayer&quot;:true}" stroke-miterlimit="10" stroke-dasharray="" stroke-dashoffset="0" style="mix-blend-mode: normal"><path d="M229.98315,162.9135h20.03378c3.9166,0 7.06966,3.15307 7.06966,7.06966v20.03379c0,3.91659 -3.15306,7.06966 -7.06966,7.06966h-20.03378c-3.91659,0 -7.06967,-3.15307 -7.06967,-7.06966v-20.03379c0,-3.91659 3.15308,-7.06966 7.06967,-7.06966z" fill="#ffffff" fill-rule="evenodd" stroke="none" stroke-width="4.43922" stroke-linecap="round" stroke-linejoin="round"/><g data-paper-data="{&quot;index&quot;:null}" fill-rule="nonzero" stroke="#000000" stroke-width="1" stroke-linecap="butt" stroke-linejoin="miter"><path d="M228.00783,179.40289c-3.24176,-3.36957 -2.79862,-9.05577 -2.79862,-9.05577c0,0 5.69908,-0.22306 8.94084,3.14651c3.24176,3.36957 4.49475,7.42397 2.79862,9.05577c-1.69613,1.6318 -5.69909,0.22306 -8.94085,-3.14651z" fill="url(#color-1)"/><path d="M247.56603,185.71809c-4.67566,-0.03411 -8.45298,-1.85161 -8.43688,-4.05951c0.0161,-2.2079 3.81954,-3.97012 8.49521,-3.93601c4.67566,0.03411 8.43688,4.05951 8.43688,4.05951c0,0 -3.81954,3.97012 -8.4952,3.93601z" fill="url(#color-2)"/><path d="M236.05081,187.47547c-3.61429,-0.85101 -5.85436,-4.47086 -5.00335,-8.08515c0.85102,-3.61429 4.47086,-5.85436 8.08515,-5.00335c3.61429,0.85101 5.85436,4.47085 5.00335,8.08515c-0.85101,3.61429 -4.47086,5.85436 -8.08515,5.00335z" fill="url(#color-3)"/></g></g></g></svg>