<svg version="1.1" xmlns="http://www.w3.org/2000/svg" xmlns:xlink="http://www.w3.org/1999/xlink" width="604.68421" height="262.21053" viewBox="0,0,604.68421,262.21053"><defs><linearGradient x1="240" y1="53.79879" x2="240" y2="240.03036" gradientUnits="userSpaceOnUse" id="color-1"><stop offset="0" stop-color="#828282"/><stop offset="1" stop-color="#ffffff"/></linearGradient><linearGradient x1="217.97368" y1="31.80931" x2="217.97368" y2="63.07247" gradientUnits="userSpaceOnUse" id="color-2"><stop offset="0" stop-color="#d2da00"/><stop offset="1" stop-color="#d9a300"/></linearGradient><linearGradient x1="223.65789" y1="163.25668" x2="223.65789" y2="235.73036" gradientUnits="userSpaceOnUse" id="color-3"><stop offset="0" stop-color="#490000"/><stop offset="1" stop-color="#957000"/></linearGradient><linearGradient x1="352.85242" y1="71.12996" x2="361.42443" y2="214.77517" gradientUnits="userSpaceOnUse" id="color-4"><stop offset="0" stop-color="#fc0000"/><stop offset="1" stop-color="#ae0000"/></linearGradient><linearGradient x1="329.92969" y1="65.1526" x2="333.92739" y2="132.14384" gradientUnits="userSpaceOnUse" id="color-5"><stop offset="0" stop-color="#fc0000"/><stop offset="1" stop-color="#ae0000"/></linearGradient><linearGradient x1="65.92838" y1="64.32888" x2="41.00195" y2="206.05432" gradientUnits="userSpaceOnUse" id="color-6"><stop offset="0" stop-color="#fc0000"/><stop offset="1" stop-color="#ae0000"/></linearGradient><linearGradient x1="89.3839" y1="61.00942" x2="77.75906" y2="127.10534" gradientUnits="userSpaceOnUse" id="color-7"><stop offset="0" stop-color="#fc0000"/><stop offset="1" stop-color="#ae0000"/></linearGradient><linearGradient x1="2.68421" y1="165.38826" x2="2.68421" y2="259.17774" gradientUnits="userSpaceOnUse" id="color-8"><stop offset="0" stop-color="#e7e7e7"/><stop offset="1" stop-color="#ffffff"/></linearGradient><linearGradient x1="215.13158" y1="193.09878" x2="215.13158" y2="284.75668" gradientUnits="userSpaceOnUse" id="color-9"><stop offset="0" stop-color="#e7e7e7"/><stop offset="1" stop-color="#ffffff"/></linearGradient><linearGradient x1="505.05263" y1="195.25669" x2="505.05263" y2="286.91458" gradientUnits="userSpaceOnUse" id="color-10"><stop offset="0" stop-color="#e7e7e7"/><stop offset="1" stop-color="#ffffff"/></linearGradient></defs><g transform="translate(53.44737,-31.80931)"><g data-paper-data="{&quot;isPaintingLayer&quot;:true}" fill-rule="nonzero" stroke="none" stroke-linecap="butt" stroke-linejoin="miter" stroke-miterlimit="10" stroke-dasharray="" stroke-dashoffset="0" style="mix-blend-mode: normal"><path d="M492,53.79879v186.23157h-504v-186.23157z" data-paper-data="{&quot;index&quot;:null}" fill="url(#color-1)" stroke-width="NaN"/><g stroke-width="0"><path d="M163.97368,163.25668v-16.34211h115.81579v16.34211z" fill="#398e46"/><path d="M170.39474,149.07247v-16.34211h103.73684v16.34211z" fill="#45ae55"/><path d="M175.36842,136.283v-16.3421h94.5v16.3421z" fill="#398e46"/><path d="M181.07895,122.09879v-16.34211h83.13157v16.34211z" fill="#45ae55"/><path d="M184.63158,107.88826v-16.3421h73.18421v16.3421z" fill="#398e46"/><path d="M188.92106,93.70405v-16.34211h63.23684v16.34211z" fill="#45ae55"/><path d="M193.89474,81.6251v-16.34211h52.57894v16.34211z" fill="#398e46"/><path d="M202.44738,67.44089v-16.34211h37.65789v16.34211z" fill="#45ae55"/><path d="M231.47368,47.44089c0,3.04972 4.92995,10.15861 3.62564,12.5639c-2.3879,4.40356 -11.15051,-8.46462 -15.70459,-6.87969c-3.1793,1.10648 -8.98674,9.61416 -11.42284,9.53715c-2.523,-0.07976 1.0238,-7.23353 0.82827,-11.67152c-0.10062,-2.28366 -4.32648,-1.75867 -4.32648,-3.54984c0,-4.67623 5.32599,-1.76761 8.13648,-4.63221c2.37814,-2.42392 1.94623,-10.99937 5.36352,-10.99937c3.41394,0 2.26875,7.15153 4.64602,9.57122c2.81454,2.86476 8.85398,1.38027 8.85398,6.06036z" fill="url(#color-2)"/><path d="M214.42105,235.73036v-72.47368h18.47368v72.47368z" fill="url(#color-3)"/></g><g data-paper-data="{&quot;index&quot;:null}" stroke-width="0"><path d="M345.33884,216.40985l-8.57202,-143.64521l32.33525,-0.52016l7.78928,140.95889z" fill="url(#color-4)"/><path d="M369.69709,91.97139c0,0 -27.96886,1.8956 -37.52116,9.46475c-7.65592,6.06647 -15.37281,32.44792 -15.37281,32.44792l-20.70726,-0.66123c0,0 -1.40891,-7.70671 -0.19062,-14.99627c0.98269,-5.87985 4.5393,-11.57615 5.24114,-12.05855c1.51773,-1.04321 13.00823,-32.60583 17.32669,-35.78155c18.75462,-13.79179 49.86672,0.97918 49.86672,0.97918z" fill="url(#color-5)"/><path d="M344.6826,205.41309l-0.61522,-10.30947l32.17119,-3.26934l0.61522,10.30946z" fill="#fcfcfc"/><path d="M343.43078,184.82194l-0.61522,-10.30947l32.17119,-3.26934l0.61521,10.30946z" fill="#fcfcfc"/><path d="M341.47825,162.91907l-0.61522,-10.30946l33.40855,-3.39509l0.61522,10.30947z" fill="#fcfcfc"/><path d="M340.24959,141.55728l-0.61522,-10.30946l32.78987,-3.33222l0.61521,10.30947z" fill="#fcfcfc"/><path d="M339.65568,122.33343l-0.61522,-10.30947l32.17119,-3.26934l0.61521,10.30946z" fill="#fcfcfc"/><path d="M338.60892,105.17877l-1.02882,-6.8101l32.5848,-6.76871l0.61521,10.30947z" fill="#fcfcfc"/><path d="M332.88032,101.50969l13.99386,-36.68686l13.15627,1.42888l-20.3857,33.87909z" fill="#fcfcfc"/><path d="M324.27602,114.16462l-4.604,-45.86033l13.98348,-5.56984l-3.10723,41.80371z" fill="#fcfcfc"/><path d="M317.62611,133.53902l-20.03147,-24.50068c0,0 3.28774,-2.65126 3.93148,-4.55137c1.26562,-3.73566 5.83586,-13.18357 5.83586,-13.18357l14.21649,30.18682z" fill="#fcfcfc"/></g><g stroke-width="0"><path d="M25.81587,202.72581l23.84192,-139.14613l32.06412,4.21084l-24.92643,141.72544z" fill="url(#color-6)"/><path d="M50.51548,62.79368c0,0 32.59589,-11.1199 49.65209,4.72418c3.92739,3.64828 11.73682,36.31697 13.12544,37.52674c0.64213,0.55943 3.52469,6.62475 3.82921,12.57837c0.37753,7.38101 -1.9026,14.87631 -1.9026,14.87631l-20.64723,-1.70877c0,0 -4.65246,-27.09033 -11.56519,-33.99172c-8.62503,-8.61088 -36.19421,-13.68933 -36.19421,-13.68933z" fill="url(#color-7)"/><path d="M27.11667,191.74288l1.78898,-10.17168l31.58706,6.92329l-1.78898,10.17168z" fill="#fcfcfc"/><path d="M30.7127,171.42956l1.78898,-10.17168l31.58706,6.92329l-1.78898,10.17168z" fill="#fcfcfc"/><path d="M33.93983,149.62688l1.78898,-10.17168l32.80194,7.18957l-1.78898,10.17168z" fill="#fcfcfc"/><path d="M38.20833,128.67845l1.78898,-10.17168l32.1945,7.05643l-1.78898,10.17168z" fill="#fcfcfc"/><path d="M41.602,109.78145l1.78898,-10.17168l31.58706,6.92329l-1.78898,10.17168z" fill="#fcfcfc"/><path d="M44.60171,92.85869l1.78898,-10.17168l31.59817,10.44699l-1.8001,6.64798z" fill="#fcfcfc"/><path d="M75.73641,94.64873l-16.38177,-35.98621l13.23337,0.0835l9.711,38.04537z" fill="#fcfcfc"/><path d="M84.26982,100.06644l1.68892,-41.88499l13.25561,7.1309l-9.8131,45.03409z" fill="#fcfcfc"/><path d="M91.24423,117.93227l17.57206,-28.36504c0,0 3.46095,9.90818 4.29151,13.76397c0.42246,1.96121 3.38578,4.97071 3.38578,4.97071l-22.69937,22.0518z" fill="#fcfcfc"/></g><path d="M58.81579,212.283c0,25.89925 -25.13096,46.89474 -56.13158,46.89474c-31.00062,0 -56.13158,-20.99549 -56.13158,-46.89474c0,-25.89925 25.13096,-46.89474 56.13158,-46.89474c31.00062,0 56.13158,20.99549 56.13158,46.89474z" fill="url(#color-8)" stroke-width="0"/><path d="M104.28947,228.6251c0,18.4434 -17.01907,33.39474 -38.01316,33.39474c-20.99409,0 -38.01316,-14.95133 -38.01316,-33.39474c0,-18.4434 17.01907,-33.39474 38.01316,-33.39474c20.99409,0 38.01316,14.95133 38.01316,33.39474z" fill="#fcfcfc" stroke-width="0"/><path d="M145.5,275.16457c0,-0.19621 0.31811,-0.35526 0.71053,-0.35526c0.39241,0 0.71053,0.15906 0.71053,0.35526c0,0.19621 -0.31811,0.35526 -0.71053,0.35526c-0.39241,0 -0.71053,-0.15906 -0.71053,-0.35526z" fill="#ffffff" stroke-width="0"/><path d="M216.55263,223.29615c0,34.33612 -27.51681,62.17105 -61.46053,62.17105c-33.94371,0 -61.46053,-27.83493 -61.46053,-62.17105c0,-34.33612 27.51681,-62.17105 61.46053,-62.17105c33.94371,0 61.46053,27.83493 61.46053,62.17105z" fill="#ffffff" stroke-width="0"/><path d="M261.31579,238.92773c0,25.31063 -20.67738,45.82895 -46.18421,45.82895c-25.50684,0 -46.18421,-20.51832 -46.18421,-45.82895c0,-25.31063 20.67738,-45.82895 46.18421,-45.82895c25.50684,0 46.18421,20.51832 46.18421,45.82895z" fill="url(#color-9)" stroke-width="0"/><path d="M323.86842,220.83563c0,25.89925 -25.13096,46.89474 -56.13158,46.89474c-31.00062,0 -56.13158,-20.99549 -56.13158,-46.89474c0,-25.89925 25.13096,-46.89473 56.13158,-46.89473c31.00062,0 56.13158,20.99549 56.13158,46.89474z" fill="#fcfcfc" stroke-width="0"/><path d="M369.34211,237.17773c0,18.4434 -17.01907,33.39474 -38.01316,33.39474c-20.99408,0 -38.01316,-14.95134 -38.01316,-33.39474c0,-18.44341 17.01907,-33.39473 38.01316,-33.39473c20.99408,0 38.01316,14.95133 38.01316,33.39473z" fill="#ffffff" stroke-width="0"/><path d="M481.60526,231.84879c0,34.33612 -27.51681,62.17105 -61.46052,62.17105c-33.94371,0 -61.46052,-27.83493 -61.46052,-62.17105c0,-34.33613 27.51681,-62.17105 61.46052,-62.17105c33.94371,0 61.46052,27.83493 61.46052,62.17106z" fill="#fcfcfc" stroke-width="0"/><path d="M551.23684,241.08563c0,25.31063 -20.67738,45.82895 -46.18421,45.82895c-25.50684,0 -46.18421,-20.51832 -46.18421,-45.82895c0,-25.31063 20.67738,-45.82894 46.18421,-45.82894c25.50684,0 46.18421,20.51832 46.18421,45.82895z" fill="url(#color-10)" stroke-width="0"/></g></g></svg>