<svg version="1.1" xmlns="http://www.w3.org/2000/svg" xmlns:xlink="http://www.w3.org/1999/xlink" width="101.77321" height="280.5222" viewBox="0,0,101.77321,280.5222"><defs><linearGradient x1="231.3687" y1="188.07872" x2="239.28911" y2="188.07872" gradientUnits="userSpaceOnUse" id="color-1"><stop offset="0" stop-color="#000000"/><stop offset="1" stop-color="#000000" stop-opacity="0"/></linearGradient><linearGradient x1="231.3687" y1="190.08389" x2="239.28911" y2="190.08389" gradientUnits="userSpaceOnUse" id="color-2"><stop offset="0" stop-color="#000000"/><stop offset="1" stop-color="#000000" stop-opacity="0"/></linearGradient><linearGradient x1="239.73937" y1="30.79779" x2="239.73937" y2="92.32077" gradientUnits="userSpaceOnUse" id="color-3"><stop offset="0" stop-color="#ff0000"/><stop offset="1" stop-color="#840000"/></linearGradient></defs><g transform="translate(-192.89111,-25.5339)"><g data-paper-data="{&quot;isPaintingLayer&quot;:true}" fill-rule="nonzero" stroke-linejoin="miter" stroke-miterlimit="10" stroke-dasharray="" stroke-dashoffset="0" style="mix-blend-mode: normal"><path d="M194.40899,303.86176v-253.22501h91.18203v253.22501z" fill-opacity="0.01" fill="#000000" stroke="none" stroke-width="0" stroke-linecap="butt"/><path d="M283.97537,130.90244l-42.62499,40.875l-43.62499,-40.875c0,0 19.30771,-15.375 43.12499,-15.375c23.81728,0 43.12499,15.375 43.12499,15.375z" fill="#140309" stroke="none" stroke-width="0" stroke-linecap="butt"/><path d="M202.60521,94.22497c0.33654,-2.27063 -0.16776,-40.17317 35.96775,-41.57382c44.63633,-0.91362 39.01489,35.34872 41.53088,42.1903c0.84379,2.29446 3.98712,3.74677 5.23298,6.14244c1.77526,3.41366 1.08299,6.17518 2.24602,8.96764c1.3578,3.26008 5.67763,6.04008 5.67763,6.04008l-8.8297,0.61603c0,0 0.63473,6.2029 -0.74778,12.53765c-1.16541,5.33993 -4.34306,10.77355 -4.72552,12.66436c-0.75524,3.73378 1.43498,6.32255 1.43498,6.32255c0,0 -4.10398,0.57808 -5.90263,0.19723c-1.4047,-0.29744 -4.00259,-2.29458 -4.00259,-2.29458c0,0 -2.09412,2.88658 -3.36368,4.17913c-1.41437,1.43999 -4.73511,4.06634 -4.73511,4.06634l0.65795,-6.45421c0,0 -4.5601,7.26795 -21.85066,7.12154c-16.30625,-0.25547 -22.82151,-6.4252 -22.82151,-6.4252l1.1338,5.40484c0,0 -7.19586,-3.76665 -9.83038,-6.66517c-2.3777,-2.61597 -5.28543,-9.96541 -5.28543,-9.96541l-3.81564,1.67304c0,0 0.088,-7.21602 0.95345,-9.20121c0.7995,-1.83389 4.05709,-4.79203 4.05709,-4.79203c0,0 -2.33908,1.89916 -5.71704,2.7744c-4.23278,1.09673 -6.94665,0.34526 -6.94665,0.34526c0,0 3.60795,-2.71717 5.58396,-4.76989c1.76007,-1.8284 2.64658,-3.37722 2.64658,-3.37722c0,0 -2.10758,1.0847 -4.23277,1.61795c-2.21739,0.5564 -4.03008,0.53093 -4.03008,0.53093c0,0 4.47492,-4.53728 6.53074,-10.37429c0.11149,-0.31655 -0.6141,-10.67007 -0.73041,-10.66218c-1.24776,0.08463 -2.37785,-0.0489 -2.37785,-0.0489c0,0 6.16329,-5.92186 6.29161,-6.7876z" fill="#000101" stroke="none" stroke-width="1.5" stroke-linecap="butt"/><path d="M213.09949,112.3342c-0.57709,-7.29323 0.335,-17.15448 0.335,-17.15448c0,0 3.41059,-0.04124 13.91429,-3.14424c8.0696,-2.38394 20.54731,-9.48722 20.54731,-9.48722c0,0 -2.16005,3.00503 -3.40781,4.46015c-1.32651,1.54696 -3.99292,4.56297 -3.99292,4.56297c0,0 7.838,-1.66761 14.67476,-4.72931c8.56837,-3.53575 10.59252,-6.05309 12.95042,-4.5927c2.7829,1.72362 1.03006,23.1827 0.71846,28.74062c-0.42163,5.66922 -2.53327,9.49969 -3.15031,12.52053c-0.61704,3.02084 -0.4096,6.13662 -2.20622,16.0397c-1.12121,6.18021 -4.16183,8.92466 -10.01942,14.66081c-5.85759,5.73616 -9.05378,9.25275 -13.01359,9.32173c-3.81077,0.06639 -8.93565,-5.1002 -13.93542,-10.38244c-5.32393,-5.62474 -8.87489,-8.47713 -9.71551,-15.13975c-0.75707,-6.00039 -0.77653,-9.90853 -1.12266,-15.24835c-0.25298,-3.90273 -2.26119,-6.44504 -2.57636,-10.42801z" fill="none" stroke="#000000" stroke-width="1.5" stroke-linecap="butt"/><path d="M201.03043,304.39162c0,0 -0.63536,-94.38387 -0.79335,-118.01201c-0.05451,-8.15261 8.18688,-36.76129 40.20201,-36.9211c31.60235,-0.15775 39.85672,29.48704 39.84884,36.89673c-0.07659,46.24274 0.65429,117.98648 0.65429,117.98648l-10.49667,0.09614l-0.15882,-114.84311c0,0 0.07549,-3.0993 -2.81625,-3.15415c-3.43441,-0.06514 -2.94538,3.11562 -2.94538,3.11562l0.20548,114.86995l-48.21366,0.07222l-0.30539,-115.23309c0,0 0.27949,-2.919 -2.8856,-2.93443c-3.11083,-0.01515 -2.81569,2.90899 -2.81569,2.90899l0.35311,115.0668z" fill="#000000" stroke="#000000" stroke-width="2" stroke-linecap="butt"/><path d="M255.6276,200.33385c-0.57113,0 -1.03411,-0.46299 -1.03411,-1.03411c0,-0.57113 0.46299,-1.03413 1.03411,-1.03413c0.57113,0 1.03411,0.463 1.03411,1.03413c0,0.57113 -0.46299,1.03411 -1.03411,1.03411z" fill="#000000" stroke="none" stroke-width="1.5" stroke-linecap="butt"/><path d="M250.36772,204.56944c-4.4635,-0.31439 -6.55245,-1.79392 -6.16985,-2.58011c0.11788,-0.24224 2.84645,1.06355 6.97038,1.3048c6.40897,0.37493 8.51033,-0.63173 8.51033,-0.63173v1.34616c0,0 -2.4135,1.04672 -9.31086,0.56089z" fill="#000000" stroke="#000000" stroke-width="0" stroke-linecap="butt"/><path d="M222.55497,199.29974c0,-0.57113 0.46299,-1.03413 1.03411,-1.03413c0.57113,0 1.03413,0.463 1.03413,1.03413c0,0.57113 -0.463,1.03411 -1.03413,1.03411c-0.57113,0 -1.03411,-0.46299 -1.03411,-1.03411z" fill="#000000" stroke="none" stroke-width="1.5" stroke-linecap="butt"/><path d="M228.84896,204.56944c-6.89736,0.48585 -9.31086,-0.56089 -9.31086,-0.56089v-1.34616c0,0 2.10136,1.00666 8.51033,0.63173c4.12393,-0.24126 6.85251,-1.54704 6.97039,-1.3048c0.3826,0.78618 -1.70634,2.26571 -6.16985,2.58011z" fill="#000000" stroke="#000000" stroke-width="0" stroke-linecap="butt"/><path d="M240.12942,261.12113c-0.81895,0 -1.48284,-0.66389 -1.48284,-1.48284c0,-0.81895 0.66389,-1.48284 1.48284,-1.48284c0.81895,0 1.48284,0.66389 1.48284,1.48284c0,0.81895 -0.66389,1.48284 -1.48284,1.48284z" data-paper-data="{&quot;index&quot;:null}" fill="#000000" stroke="none" stroke-width="1.5" stroke-linecap="butt"/><path d="M216.06616,305.05609v-119.20147c0,0 -2.25848,12.18674 -5.17958,15.12166c-5.3468,5.3721 -12.91362,2.66378 -12.91362,-0.5104c0,-2.22689 -0.11528,-19.2734 4.36313,-29.3557c4.56732,-10.28247 13.73007,-13.58212 13.73007,-13.58212c0,0 2.67319,-2.35297 4.6557,-3.74807c1.98251,-1.3951 5.17197,-2.80371 5.17197,-2.80371c0,0 -1.90163,23.85867 13.25949,23.78832c15.43477,-0.07162 15.13157,-23.78832 15.13157,-23.78832c0,0 3.91276,1.51959 6.16585,2.94655c1.25193,0.79289 14.99639,8.65913 20.03186,20.11458c4.0268,9.16077 0.97227,28.99162 0.97227,28.99162c0,0 -7.69712,6.72901 -12.23869,-0.76736c-2.96663,-4.89677 -4.76887,-18.775 -4.76887,-16.89132c0,4.84193 0.75721,0.98908 0.75721,0.98908v118.69667z" fill="#ffd012" stroke="#000000" stroke-width="2" stroke-linecap="butt"/><path d="M212.71283,112.45101c-0.57709,-7.29323 0.335,-17.15448 0.335,-17.15448c0,0 3.41059,-0.04124 13.91429,-3.14424c8.0696,-2.38394 20.54731,-9.48722 20.54731,-9.48722c0,0 -2.16005,3.00503 -3.40781,4.46015c-1.32651,1.54696 -3.99292,4.56297 -3.99292,4.56297c0,0 7.838,-1.66761 14.67476,-4.72931c8.56837,-3.53575 10.59252,-6.05309 12.95042,-4.5927c2.7829,1.72362 1.03006,23.1827 0.71846,28.74062c-0.42163,5.66922 -2.53327,9.49969 -3.15031,12.52053c-0.61704,3.02084 -0.4096,6.13662 -2.20622,16.0397c-1.12121,6.18021 -4.16183,8.92466 -10.01942,14.66081c-5.85759,5.73616 -9.05378,9.25275 -13.01359,9.32173c-3.81077,0.06639 -8.93565,-5.1002 -13.93542,-10.38244c-5.32393,-5.62474 -8.87489,-8.47713 -9.71551,-15.13975c-0.75707,-6.00039 -0.77653,-9.90853 -1.12266,-15.24835c-0.25298,-3.90273 -2.26119,-6.44504 -2.57636,-10.42801z" fill="#ffffff" stroke="#000000" stroke-width="1.5" stroke-linecap="butt"/><path d="M260.78283,97.33065c0,0 1.52429,0.31807 4.2558,1.11029c2.49492,0.72361 4.44935,1.74403 4.44935,1.74403l0.1951,1.17035c0,0 -7.24963,-3.12997 -15.1158,-2.4706c-6.2896,0.52724 -9.96319,2.8124 -9.96319,2.8124l0.04575,-4.17683c0,0 3.12748,-1.70421 7.86366,-1.85557c4.90428,-0.15672 8.09084,0.59125 8.09084,0.59125z" data-paper-data="{&quot;index&quot;:null}" fill="#000000" stroke="none" stroke-width="1.5" stroke-linecap="butt"/><path d="M240.34497,141.87808c-1.03376,0 -3.5381,-3.26042 -3.7867,-5.3637c-0.22243,-1.88186 1.31512,-3.82799 3.7867,-3.82799c2.47159,0 4.2021,0.49077 4.02999,4.18853c-0.14607,3.13818 -1.55841,5.00317 -4.02999,5.00317z" fill="#ffffff" stroke="#000000" stroke-width="1.15" stroke-linecap="butt"/><g stroke="none" stroke-linecap="butt"><path d="M258.77152,149.10075c0,0 -0.139,17.29097 -19.71217,17.02883c-4.85855,-0.06507 -9.12518,-1.0865 -12.17144,-3.23408c-7.58133,-5.34477 -8.36639,-15.65245 -8.36639,-15.65245c0,0 9.22815,-6.76857 15.29903,-7.86149c2.49169,-0.44858 5.5637,2.60527 5.5637,2.60527c0,0 3.76713,-3.27485 7.73787,-2.36801c7.24294,1.65412 11.6494,9.48193 11.6494,9.48193z" fill="#000000" stroke-width="0"/><path d="M227.58635,143.34867c4.27653,-2.61464 7.94742,-2.81994 12.90447,0.39238c0.25159,1.12346 -2.83078,2.20012 -9.53911,2.93552c-3.96216,0.4698 -7.75798,0.4205 -8.0305,0.15496c-0.25159,-0.26554 -0.13325,-0.61571 0.20216,-0.81997c0.37733,-0.12258 2.34561,-1.39641 4.46292,-2.66289z" data-paper-data="{&quot;noHover&quot;:false,&quot;origItem&quot;:[&quot;Path&quot;,{&quot;applyMatrix&quot;:true,&quot;segments&quot;:[[[494.11529,397.11778],[0,0],[-0.78906,0.47198]],[[492.45123,398.06174],[0.14062,-0.04568],[-0.125,0.07612]],[[492.37311,398.35862],[-0.09376,-0.09896],[0.10156,0.09896]],[[495.25593,398.23682],[-1.47658,0.17508],[2.5,-0.27406]],[[497.88093,397.46796],[0.09376,0.41868],[-0.07812,-0.27406]],[[497.06843,396.61536],[0.38282,0.19792],[-0.95312,-0.52526]],[[494.11531,397.11778],[1.59374,-0.9744],[0,0]]],&quot;closed&quot;:true,&quot;fillColor&quot;:[0,0,0]}]}" fill="#ffffff" stroke-width="0.5"/><path d="M246.35971,140.83442c0.37733,0 2.90825,1.62065 5.00457,3.29564c2.18021,1.73628 3.8076,3.34289 3.7447,3.46547c-0.12579,0.08174 -1.97561,0.02364 -4.09292,-0.38487c-8.93046,-1.47073 -11.80181,-2.36571 -11.61312,-3.89773c2.04639,-0.85365 5.30071,-2.47851 6.95681,-2.47851z" data-paper-data="{&quot;noHover&quot;:false,&quot;origItem&quot;:[&quot;Path&quot;,{&quot;applyMatrix&quot;:true,&quot;segments&quot;:[[[501.06843,396.24232],[0,0],[-0.61718,0]],[[499.52155,397.39182],[0.07032,-0.47198],[-0.07032,0.57094]],[[502.68561,398.45758],[-3.32812,-0.5481],[0.78906,0.15224]],[[504.18561,398.63266],[-0.04688,0.03046],[0.02344,-0.04568]],[[502.77935,397.39182],[0.8125,0.64706],[-0.78124,-0.62422]],[[501.06841,396.24232],[0.14062,0],[0,0]]],&quot;closed&quot;:true,&quot;fillColor&quot;:[0,0,0]}]}" fill="#ffffff" stroke-width="0.5"/><path d="M245.36913,147.75911c1.27877,0.32683 -0.61242,0.79856 -4.76322,0.79856c-4.36041,-0.08168 -5.94076,-0.47175 -4.4104,-0.79859c2.89295,-0.6741 6.74187,-0.67408 9.17362,0.00003z" data-paper-data="{&quot;noHover&quot;:false,&quot;origItem&quot;:[&quot;Path&quot;,{&quot;applyMatrix&quot;:true,&quot;segments&quot;:[[[497.32625,398.73924],[1.07812,-0.25122],[-0.57032,0.1218]],[[498.88093,398.93716],[-1.625,-0.03044],[1.54688,0]],[[500.54499,398.73924],[0.47656,0.1218],[-0.90624,-0.25122]]],&quot;closed&quot;:true,&quot;fillColor&quot;:[0,0,0]}]}" fill="#ffffff" stroke-width="0.5"/><path d="M243.77198,152.59614c2.80913,-0.28593 2.81302,-0.23442 1.28266,0.78691c-2.05446,1.26648 -6.36398,1.33842 -9.17311,0.13323c-1.21587,-0.53114 -2.21863,-1.20651 -2.21863,-1.32908c0,-0.14302 1.53776,-0.03118 3.38255,0.23437c1.7819,0.26554 5.13332,0.35843 6.72652,0.17458z" data-paper-data="{&quot;noHover&quot;:false,&quot;origItem&quot;:[&quot;Path&quot;,{&quot;applyMatrix&quot;:true,&quot;segments&quot;:[[[497.63875,400.50534],[0.66406,0.09896],[-0.6875,-0.09896]],[[496.38093,400.40638],[0,-0.0533],[0,0.04568]],[[497.20905,400.87836],[-0.45312,-0.19794],[1.04688,0.44914]],[[500.42781,400.83268],[-0.76564,0.47198],[0.57032,-0.38062]],[[499.95125,400.55862],[1.04688,-0.10656],[-0.59374,0.06852]]],&quot;closed&quot;:true,&quot;fillColor&quot;:[0,0,0]}]}" fill="#ffffff" stroke-width="0.5"/><path d="M222.80425,148.50387c1.15303,0.26555 5.0389,2.22097 8.09956,4.16155c4.73775,3.02315 5.56698,3.41076 8.81633,3.61502c3.71051,0.18386 3.97359,0.24721 9.21446,-3.36836c2.93492,-2.06316 6.5177,-3.92912 7.33526,-3.92912c1.34166,0 1.41398,0.23007 0.91086,1.70081c-2.18021,5.88299 -5.0883,10.20032 -8.54728,12.05917c-2.28502,1.28687 -3.77094,1.58568 -9.01181,1.5244c-3.96211,-0.06128 -7.26798,-0.63327 -8.98697,-1.30737c-4.0879,-1.73628 -7.37882,-6.46635 -9.43323,-13.22771c-0.44028,-1.53202 -0.36778,-1.63699 1.60281,-1.22843z" data-paper-data="{&quot;noHover&quot;:false,&quot;origItem&quot;:[&quot;Path&quot;,{&quot;applyMatrix&quot;:true,&quot;segments&quot;:[[[492.32625,399.05896],[0,0],[-0.73438,-0.15226]],[[491.73251,399.5081],[-0.16408,-0.57094],[0.76562,2.51976]],[[495.23251,404.34206],[-1.52344,-0.64706],[0.64062,0.25122]],[[498.49813,404.7912],[-1.47656,-0.02284],[1.95312,0.02284]],[[501.77937,404.26594],[-0.85156,0.47958],[1.28906,-0.69274]],[[504.95125,399.85828],[-0.8125,2.19242],[0.1875,-0.5481]],[[504.61531,399.23406],[0.5,0],[-0.30468,0]],[[502.06843,400.62716],[1.09376,-0.76888],[-1.95312,1.34742]],[[498.63875,401.9289],[1.3828,0.06852],[-1.21094,-0.07612]],[[495.16219,400.5282],[1.76562,1.12664],[-1.14062,-0.7232]],[[492.32625,399.05898],[0.4297,0.09896],[0,0]]],&quot;closed&quot;:true,&quot;fillColor&quot;:[0,0,0]}]}" fill="#ffffff" stroke-width="0.5"/></g><path d="M243.94708,111.7844c0,0 0.1026,3.96976 0.00576,7.12662c-0.19174,6.25113 -1.08147,27.7607 -1.08147,27.7607l-2.98167,0.00864c0,0 -0.80294,-4.17274 -1.12322,-9.49979c-0.43353,-7.21063 -0.4495,-16.29321 -0.76344,-19.63229c-0.29758,-3.16513 -0.89593,-5.71453 -0.89593,-5.71453" fill="#ffffff" stroke="#000000" stroke-width="1.3" stroke-linecap="round"/><path d="M214.41247,122.57423c0,0 -4.93211,-3.51705 -6.16417,-8.97502c-1.29636,-5.74284 -1.46118,-9.7328 0.48013,-9.99193c1.94131,-0.25915 2.70321,2.37692 3.73262,8.35569c1.0294,5.97877 1.95143,10.61127 1.95143,10.61127z" data-paper-data="{&quot;index&quot;:null}" fill="#ffffff" stroke="#000000" stroke-width="1" stroke-linecap="butt"/><path d="M214.20988,118.62668c0,0 -3.56385,-2.92338 -4.31816,-8.45061c-0.42079,-3.08327 2.15675,-2.28016 2.15675,-2.28016" fill="none" stroke="#000000" stroke-width="0.25" stroke-linecap="round"/><path d="M217.22328,111.97078c0.07093,-4.89188 4.83834,-8.93609 10.21137,-8.8582c5.37302,0.0779 9.02724,4.2484 8.95632,9.14029c-0.07093,4.89188 -4.12352,8.79439 -9.49655,8.7165c-5.37302,-0.0779 -9.74207,-4.1067 -9.67114,-8.99859z" fill="#ffffff" stroke="#000000" stroke-width="1.4" stroke-linecap="butt"/><path d="M221.66092,112.08871c0.03999,-2.75843 2.30855,-4.96213 5.06696,-4.92214c2.75843,0.03999 4.96213,2.30855 4.92214,5.06696c-0.03999,2.75843 -2.30854,4.96213 -5.06696,4.92214c-2.75843,-0.03999 -4.96213,-2.30855 -4.92214,-5.06696z" fill="#000000" stroke="none" stroke-width="1.5" stroke-linecap="butt"/><path d="M244.27956,111.9715c0.20353,-4.88817 4.45264,-8.85847 9.77048,-8.85847c5.31783,0 9.27453,3.96607 9.27453,8.85847c0,4.8924 -3.88585,9.07104 -9.69964,9.14188c-5.52997,0.06739 -9.55792,-4.03692 -9.34537,-9.14188z" fill="#ffffff" stroke="#000000" stroke-width="1.4" stroke-linecap="butt"/><path d="M248.88231,112.05706c0,-2.81845 2.2848,-5.10325 5.10325,-5.10325c2.81845,0 5.10325,2.2848 5.10325,5.10325c0,2.81845 -2.28479,5.10325 -5.10325,5.10325c-2.81845,0 -5.10325,-2.2848 -5.10325,-5.10325z" fill="#000000" stroke="none" stroke-width="1.5" stroke-linecap="butt"/><path d="M217.15485,111.43859c0,0 0.06357,-9.01512 10.60111,-8.8249c9.47101,0.16586 9.55554,9.40723 9.55554,9.40723z" fill="#ffffff" stroke="#000000" stroke-width="1.15" stroke-linecap="butt"/><path d="M243.90191,111.5695c0,0 -0.24686,-9.4582 11.19813,-9.1032c9.71427,0.33347 9.54677,9.65229 9.54677,9.65229z" fill="#ffffff" stroke="#000000" stroke-width="1.15" stroke-linecap="butt"/><path d="M220.6847,101.42693c0,0 3.36963,-1.819 8.03244,-2.28178c5.16698,-0.51283 7.76823,-0.06628 7.76823,-0.06628l0.29508,4.13747c0,0 -3.83554,-0.68065 -8.01795,-0.52113c-5.59346,0.21333 -6.64488,1.43293 -10.89774,1.89119c-3.64408,0.39266 -6.73723,0.15884 -6.73723,0.15884l-0.02589,-1.23155c0,0 3.59517,0.07398 5.23371,-0.06836c1.35239,-0.11749 3.9757,-0.93808 3.9757,-0.93808z" fill="#000000" stroke="none" stroke-width="1.5" stroke-linecap="butt"/><path d="M268.64563,111.96296c1.0294,-5.97877 1.7913,-8.61483 3.73262,-8.35569c1.94131,0.25914 1.77649,4.24909 0.48013,9.99193c-1.23206,5.45797 -6.16417,8.97502 -6.16417,8.97502c0,0 0.92203,-4.6325 1.95143,-10.61127z" data-paper-data="{&quot;index&quot;:null}" fill="#ffffff" stroke="#000000" stroke-width="1" stroke-linecap="butt"/><path d="M269.05818,107.8959c0,0 2.57754,-0.80312 2.15675,2.28016c-0.75431,5.52723 -4.31816,8.45061 -4.31816,8.45061" data-paper-data="{&quot;index&quot;:null}" fill="none" stroke="#000000" stroke-width="0.25" stroke-linecap="round"/><path d="M206.56531,131.24794c0,0 3.84342,-8.03541 5.91599,-12.61836c0.73175,-1.61806 1.73968,-6.39458 1.73968,-6.39458c0,0 -2.52214,1.04801 -4.71649,1.47083c-2.70013,0.52029 -9.28392,1.41956 -9.28392,1.41956l6.34474,-22.09502l58.75,-21.51745l9.75,26.9771c0,0 -8.34116,15.54297 -14.64285,21.47054c-4.69389,4.41521 -20.2853,13.16168 -20.2853,13.16168l3.03296,-9.16157c0,0 -9.448,3.68577 -15.14872,4.82065c-6.41611,1.27731 -21.45609,2.46661 -21.45609,2.46661z" fill="#000000" stroke="none" stroke-width="0" stroke-linecap="butt"/><path d="M216.74855,304.34024v-37.70081c0,0 18.95235,-11.51149 26.55331,-20.6743c8.17431,-9.85396 20.8977,-36.52692 20.8977,-36.52692l0.65001,94.90203z" fill="#eabc00" stroke="none" stroke-width="0" stroke-linecap="butt"/><g stroke="#000000" stroke-linecap="butt"><g fill="#000000" stroke-width="1" font-weight="normal" font-size="40" text-anchor="start"><text transform="translate(218.43538,190.98621) scale(0.10523,0.10523)" font-size="40" xml:space="preserve" fill="#000000" fill-rule="nonzero" stroke="#000000" stroke-width="1" stroke-linecap="butt" stroke-linejoin="miter" stroke-miterlimit="10" stroke-dasharray="" stroke-dashoffset="0" font-family="Pixel" font-weight="normal" text-anchor="start" style="mix-blend-mode: normal"><tspan x="0" dy="0">DONK</tspan></text><text transform="translate(218.18427,195.24673) scale(0.10523,0.10523)" font-size="40" xml:space="preserve" fill="#000000" fill-rule="nonzero" stroke="#000000" stroke-width="1" stroke-linecap="butt" stroke-linejoin="miter" stroke-miterlimit="10" stroke-dasharray="" stroke-dashoffset="0" font-family="Sans Serif" font-weight="normal" text-anchor="start" style="mix-blend-mode: normal"><tspan x="0" dy="0">Industries</tspan></text></g><path d="M231.3687,188.68027v-1.2031h7.92041v1.2031z" fill="url(#color-1)" stroke-width="0.5"/><path d="M231.3687,190.66873v-1.16968h7.92041v1.16968z" fill="url(#color-2)" stroke-width="0.5"/></g><g stroke="#000000" stroke-width="1" stroke-linecap="butt"><path d="M200.31548,89.64586c0,0 4.66402,-9.85406 5.5387,-21.35517c0.77445,-10.18324 7.86572,-19.43725 7.86572,-19.43725c0,0 5.93184,-12.35644 16.09797,-18.4358c11.93423,-7.1367 17.34036,-3.47032 21.01037,-3.22983c17.71834,-0.38132 27.8289,29.03002 29.75725,34.62337c3.02299,8.76843 -23.49467,-11.62027 -23.49467,-11.62027c0,0 13.82784,7.77967 17.03532,14.29053c3.9814,8.08185 5.03711,25.16442 5.03711,25.16442z" fill="url(#color-3)"/><path d="M213.75086,93.99259c0,4.98593 -4.30351,9.02783 -9.61218,9.02783c-5.30867,0 -9.61219,-4.04189 -9.61219,-9.02783c0,-4.98593 4.30352,-9.02783 9.61219,-9.02783c5.30867,0 9.61218,4.0419 9.61218,9.02783z" fill="#ffffff"/><path d="M224.05861,96.31768c0,4.98593 -4.30352,9.02783 -9.61219,9.02783c-5.30867,0 -9.61219,-4.04189 -9.61219,-9.02783c0,-4.98593 4.30352,-9.02783 9.61219,-9.02783c5.30867,0 9.61219,4.0419 9.61219,9.02783z" fill="#ffffff"/><path d="M233.72334,94.89914c0.97572,4.90099 -2.4635,9.61692 -7.68173,10.53333c-5.21822,0.91641 -10.23942,-2.31373 -11.21514,-7.21472c-0.97572,-4.90099 2.4635,-9.61692 7.68172,-10.53333c5.21822,-0.91641 10.23942,2.31373 11.21515,7.21472z" fill="#ffffff"/><path d="M244.31049,95.40524c0.97572,4.90099 -2.4635,9.61692 -7.68173,10.53333c-5.21822,0.91641 -10.23942,-2.31373 -11.21514,-7.21472c-0.97572,-4.90099 2.4635,-9.61693 7.68172,-10.53334c5.21822,-0.91641 10.23942,2.31374 11.21515,7.21472z" fill="#ffffff"/><path d="M254.44874,95.04134c1.32677,4.8277 -1.76461,9.75151 -6.90481,10.99762c-5.14019,1.24612 -10.38271,-1.65734 -11.70948,-6.48504c-1.32677,-4.8277 1.76461,-9.75151 6.90479,-10.99762c5.14019,-1.24612 10.38271,1.65734 11.70948,6.48504z" fill="#ffffff"/><path d="M265.04807,94.87308c1.32677,4.8277 -1.76461,9.7515 -6.90479,10.99762c-5.14019,1.24612 -10.38271,-1.65733 -11.70948,-6.48503c-1.32677,-4.8277 1.76461,-9.75151 6.90481,-10.99762c5.14019,-1.24612 10.38271,1.65734 11.70948,6.48504z" fill="#ffffff"/><path d="M274.02862,91.23092c2.24894,4.51642 0.17378,9.88999 -4.63498,12.0022c-4.80876,2.11221 -10.53015,0.16323 -12.77909,-4.35319c-2.24894,-4.51642 -0.17378,-9.89 4.63498,-12.00222c4.80876,-2.11221 10.53016,-0.16321 12.7791,4.35321z" fill="#ffffff"/><path d="M284.41445,89.23581c2.24894,4.51642 0.17378,9.88999 -4.63498,12.0022c-4.80876,2.11221 -10.53016,0.16322 -12.7791,-4.3532c-2.24894,-4.51642 -0.17378,-9.89 4.63498,-12.00221c4.80876,-2.11221 10.53016,-0.16322 12.7791,4.3532z" fill="#ffffff"/><path d="M292.95448,57.85306c2.9984,6.02153 0.2317,13.18587 -6.17962,16.00199c-6.4113,2.81612 -14.03938,0.21761 -17.03777,-5.80392c-2.9984,-6.02153 -0.23171,-13.18587 6.17959,-16.00199c6.4113,-2.81612 14.03939,-0.21762 17.03778,5.80391z" fill="#ffffff"/></g></g></g></svg>