<svg version="1.1" xmlns="http://www.w3.org/2000/svg" xmlns:xlink="http://www.w3.org/1999/xlink" width="100.86515" height="253.99968" viewBox="0,0,100.86515,253.99968"><g transform="translate(-191.01319,-49.94144)"><g data-paper-data="{&quot;isPaintingLayer&quot;:true}" fill-rule="nonzero" stroke-linejoin="miter" stroke-miterlimit="10" stroke-dasharray="" stroke-dashoffset="0" style="mix-blend-mode: normal"><path d="M199.53916,301.28673c0,0 -0.63536,-92.49243 -0.79335,-115.64707c-0.05451,-7.98923 8.18688,-36.0246 40.20201,-36.18121c31.60235,-0.15459 39.85672,28.89612 39.84884,36.15732c-0.07659,45.31604 0.65429,115.62205 0.65429,115.62205l-10.49667,0.09421l-0.15882,-112.54167c0,0 0.07549,-3.03719 -2.81625,-3.09094c-3.43441,-0.06383 -2.94538,3.05318 -2.94538,3.05318l0.20548,112.56797l-48.21366,0.07077l-0.30539,-112.92384c0,0 0.27949,-2.8605 -2.8856,-2.87562c-3.11083,-0.01485 -2.81569,2.85069 -2.81569,2.85069l0.35311,112.76088z" fill="#ffffff" stroke="#000000" stroke-width="2" stroke-linecap="butt"/><path d="M214.57489,300.52227v-116.19688c0,0 0.75721,-9.48577 0.75721,-14.27037c0,-4.38462 -0.75721,-13.3422 -0.75721,-13.3422c0,0 2.67319,-2.29366 4.6557,-3.6536c1.98251,-1.35994 5.17197,-2.73304 5.17197,-2.73304c0,0 -0.6016,39.09803 14.55952,39.02945c15.43477,-0.06981 13.83154,-39.02945 13.83154,-39.02945c0,0 3.91276,1.48129 6.16585,2.87228c2.25309,1.39098 4.75379,3.51436 4.75379,3.51436c0,0 -0.75721,9.18707 -0.75721,13.83429c0,4.71988 0.75721,14.27037 0.75721,14.27037v115.7048z" fill="#ffffff" stroke="#000000" stroke-width="2" stroke-linecap="butt"/><g><path d="M200.92985,302.83443c0,0 -0.62587,-92.97398 -0.78149,-116.24917c-0.05371,-8.03083 8.06459,-36.21216 39.60148,-36.36958c31.13029,-0.15538 39.26135,29.04657 39.25357,36.34558c-0.07544,45.55197 0.64452,116.22403 0.64452,116.22403l-10.33988,0.09471l-0.15646,-113.12761c0,0 0.07436,-3.053 -2.77418,-3.10704c-3.38312,-0.06417 -2.90137,3.06909 -2.90137,3.06909l0.2024,113.15405l-47.49344,0.07114l-0.30082,-113.51176c0,0 0.27532,-2.8754 -2.84249,-2.89059c-3.06437,-0.01492 -2.77363,2.86553 -2.77363,2.86553l0.34783,113.34796z" fill="#000000" stroke="#000000" stroke-width="2" stroke-linecap="butt"/><path d="M200.14835,186.58526c0,0 0.00123,-0.33783 0.00714,-0.51903c0.28196,-8.65576 8.70412,-35.69635 39.59434,-35.85055c30.41795,-0.15183 38.8772,27.72553 39.24117,35.81073c0.00853,0.18934 0.01244,0.53486 0.01244,0.53486c0,0 -2.19192,-3.78566 -8.56199,-4.49346c-7.75548,-0.86173 -29.96804,-0.70975 -29.96804,-0.70975c0,0 -17.8483,-0.39341 -23.23087,-0.53068c-13.18065,0.2649 -17.09417,5.7579 -17.09417,5.7579z" fill="#ff0000" stroke="#000000" stroke-width="2" stroke-linecap="butt"/><path d="M254.71147,200.33101c-0.56261,0 -1.01866,-0.45607 -1.01866,-1.01866c0,-0.56261 0.45607,-1.01869 1.01866,-1.01869c0.56261,0 1.01866,0.45608 1.01866,1.01869c0,0.56261 -0.45607,1.01866 -1.01866,1.01866z" fill="#000000" stroke="none" stroke-width="1.5" stroke-linecap="butt"/><path d="M249.53014,204.50335c-4.39682,-0.30969 -6.45456,-1.76712 -6.07769,-2.54156c0.11613,-0.23862 2.80392,1.04766 6.86626,1.28531c6.31324,0.36934 8.3832,-0.6223 8.3832,-0.6223v1.32605c0,0 -2.37746,1.03108 -9.17179,0.55252z" fill="#000000" stroke="#000000" stroke-width="0" stroke-linecap="butt"/><path d="M222.13287,199.31237c0,-0.56261 0.45607,-1.01869 1.01866,-1.01869c0.56261,0 1.01869,0.45608 1.01869,1.01869c0,0.56261 -0.45608,1.01866 -1.01869,1.01866c-0.56261,0 -1.01866,-0.45607 -1.01866,-1.01866z" fill="#000000" stroke="none" stroke-width="1.5" stroke-linecap="butt"/><path d="M228.33283,204.50335c-6.79433,0.47859 -9.17179,-0.55252 -9.17179,-0.55252v-1.32605c0,0 2.06998,0.99161 8.3832,0.6223c4.06232,-0.23767 6.75015,-1.52393 6.86628,-1.28531c0.37689,0.77443 -1.68084,2.23187 -6.07769,2.54156z" fill="#000000" stroke="#000000" stroke-width="0" stroke-linecap="butt"/><path d="M239.4448,260.21035c-0.80671,0 -1.4607,-0.65398 -1.4607,-1.4607c0,-0.80671 0.65398,-1.4607 1.4607,-1.4607c0.80671,0 1.4607,0.65398 1.4607,1.4607c0,0.80671 -0.65398,1.4607 -1.4607,1.4607z" data-paper-data="{&quot;index&quot;:null}" fill="#000000" stroke="none" stroke-width="1.5" stroke-linecap="butt"/><path d="M240.5309,177.65832l-0.19701,125.69393" fill="none" stroke="#ff0000" stroke-width="1" stroke-linecap="round"/><path d="M240.46003,181.53522v-15.761" fill="none" stroke="#000000" stroke-width="1" stroke-linecap="round"/></g><path d="M194.43567,103.88008c0,0 6.16329,-5.92187 6.29161,-6.78761c0.33654,-2.27063 -0.16776,-40.17317 35.96775,-41.57382c44.63633,-0.91362 39.01489,35.34872 41.53088,42.1903c3.44981,9.38084 6.15664,17.40016 6.15664,17.40016c0,0 -2.76715,-2.05351 -4.0797,-3.13397c-1.2242,-1.00773 -3.80143,-3.14585 -3.80143,-3.14585c0,0 3.09111,10.3481 1.31092,20.69498c-1.5623,9.48098 -7.29782,17.22543 -7.29782,17.22543l-1.15522,-2.34735c0,0 -1.02266,2.19794 -2.16005,3.33274c-1.1374,1.13479 -3.43873,2.91273 -3.43873,2.91273l-0.09205,-3.70421c0,0 -7.0601,11.01795 -24.35066,10.87154c-16.30625,-0.25547 -26.07151,-10.6752 -26.07151,-10.6752l-0.1162,2.65484c0,0 -3.89477,-3.29276 -6.18145,-9.70754c-2.72545,-7.64567 -3.23946,-12.24324 -3.23946,-12.24324c0,0 -2.33908,1.89916 -5.71704,2.7744c-4.23278,1.09673 -6.94665,0.34526 -6.94665,0.34526c0,0 3.60795,-2.71717 5.58396,-4.76989c1.76007,-1.8284 2.64658,-3.37722 2.64658,-3.37722c0,0 -2.10758,1.0847 -4.23277,1.61795c-2.21739,0.5564 -4.03008,0.53093 -4.03008,0.53093c0,0 4.97492,-5.03728 7.03074,-10.87429c1.94102,-5.51108 2.09972,-10.95731 2.09972,-10.95731c0,0 -1.36165,0.66163 -3.33013,0.79513c-1.24776,0.08463 -2.37785,-0.0489 -2.37785,-0.0489z" fill="#000000" stroke="none" stroke-width="1.5" stroke-linecap="butt"/><path d="M211.22156,115.2017c-0.57709,-7.29323 0.335,-17.15448 0.335,-17.15448c0,0 3.41059,-0.04124 13.91429,-3.14424c8.0696,-2.38394 20.54731,-9.48722 20.54731,-9.48722c0,0 -2.16005,3.00503 -3.40781,4.46015c-1.32651,1.54696 -3.99292,4.56297 -3.99292,4.56297c0,0 7.838,-1.66761 14.67476,-4.72931c8.56837,-3.53575 10.59252,-6.05309 12.95042,-4.5927c2.7829,1.72362 1.03006,23.1827 0.71846,28.74062c-0.42163,5.66922 -2.53327,9.49969 -3.15031,12.52053c-0.61704,3.02084 -0.4096,6.13662 -2.20622,16.0397c-1.12121,6.18021 -4.16183,8.92466 -10.01942,14.66081c-5.85759,5.73616 -9.05378,9.25275 -13.01359,9.32173c-3.81077,0.06639 -8.93565,-5.1002 -13.93542,-10.38244c-5.32393,-5.62474 -8.87489,-8.47713 -9.71551,-15.13975c-0.75707,-6.00039 -0.77653,-9.90853 -1.12266,-15.24835c-0.25298,-3.90273 -2.26119,-6.44504 -2.57636,-10.42801z" fill="#ffffff" stroke="#000000" stroke-width="1.5" stroke-linecap="butt"/><path d="M259.29156,100.08134c0,0 1.52429,0.31807 4.2558,1.11029c2.49492,0.72361 4.44935,1.74403 4.44935,1.74403l0.1951,1.17035c0,0 -7.24963,-3.12997 -15.1158,-2.4706c-6.2896,0.52724 -9.96319,2.8124 -9.96319,2.8124l0.04575,-4.17683c0,0 3.12748,-1.70421 7.86366,-1.85557c4.90428,-0.15672 8.09084,0.59125 8.09084,0.59125z" data-paper-data="{&quot;index&quot;:null}" fill="#000000" stroke="none" stroke-width="1.5" stroke-linecap="butt"/><path d="" fill="#ffffff" stroke="#000000" stroke-width="1.4" stroke-linecap="butt"/><path d="" fill="#ffffff" stroke="#000000" stroke-width="1.9" stroke-linecap="butt"/><path d="M238.8537,144.6288c-1.03376,0 -3.5381,-3.26042 -3.7867,-5.3637c-0.22243,-1.88186 1.31512,-3.82799 3.7867,-3.82799c2.47159,0 4.2021,0.49077 4.02999,4.18853c-0.14607,3.13818 -1.55841,5.00317 -4.02999,5.00317z" fill="#ffffff" stroke="#000000" stroke-width="1.15" stroke-linecap="butt"/><path d="M212.9212,125.32492c0,0 -4.93211,-3.51705 -6.16417,-8.97502c-1.29636,-5.74284 -1.46118,-9.7328 0.48013,-9.99193c1.94131,-0.25915 2.70321,2.37692 3.73262,8.35569c1.0294,5.97877 1.95143,10.61127 1.95143,10.61127z" data-paper-data="{&quot;index&quot;:null}" fill="#ffffff" stroke="#000000" stroke-width="1" stroke-linecap="butt"/><path d="M212.71861,121.37736c0,0 -3.56385,-2.92338 -4.31816,-8.45061c-0.42079,-3.08327 2.15675,-2.28016 2.15675,-2.28016" fill="none" stroke="#000000" stroke-width="0.25" stroke-linecap="round"/><path d="" fill="#ffffff" stroke="#000000" stroke-width="1.4" stroke-linecap="butt"/><path d="" fill="#000000" stroke="none" stroke-width="1.5" stroke-linecap="butt"/><path d="" fill="#ffffff" stroke="#000000" stroke-width="1.4" stroke-linecap="butt"/><path d="" fill="#000000" stroke="none" stroke-width="1.5" stroke-linecap="butt"/><path d="M219.19343,101.84738c0,0 3.36963,-1.819 8.03244,-2.28178c5.16698,-0.51283 7.76823,-0.06628 7.76823,-0.06628l0.29508,4.13747c0,0 -3.83554,-0.68065 -8.01795,-0.52113c-5.59346,0.21333 -6.64488,1.43293 -10.89774,1.89119c-3.64408,0.39266 -6.73723,0.15884 -6.73723,0.15884l-0.02589,-1.23155c0,0 3.59517,0.07398 5.23371,-0.06836c1.35239,-0.11749 3.9757,-0.93808 3.9757,-0.93808z" fill="#000000" stroke="none" stroke-width="1.5" stroke-linecap="butt"/><path d="M267.15436,114.71365c1.0294,-5.97877 1.7913,-8.61483 3.73262,-8.35569c1.94131,0.25914 1.77649,4.24909 0.48013,9.99193c-1.23206,5.45797 -6.16417,8.97502 -6.16417,8.97502c0,0 0.92203,-4.6325 1.95143,-10.61127z" data-paper-data="{&quot;index&quot;:null}" fill="#ffffff" stroke="#000000" stroke-width="1" stroke-linecap="butt"/><path d="M267.56693,110.64659c0,0 2.57754,-0.80312 2.15675,2.28016c-0.75431,5.52723 -4.31816,8.45061 -4.31816,8.45061" data-paper-data="{&quot;index&quot;:null}" fill="none" stroke="#000000" stroke-width="0.25" stroke-linecap="round"/><g fill="#ffffff" stroke="#000000" stroke-linecap="butt"><path d="M246.81645,144.67187c0.5704,0.21186 3.08357,1.39942 6.02385,2.59586c2.9637,1.20597 7.21362,2.29294 7.19412,2.4605c-0.02476,0.21265 -10.43477,0.22694 -13.67937,0.63224c-2.71902,0.33964 -6.68867,0.70564 -6.68867,0.70564c0,0 -7.10401,-1.16169 -13.27235,-2.44521c-4.94371,-1.02869 -10.39929,-1.66108 -10.40995,-1.75461c-0.01439,-0.12613 3.86835,-0.71071 6.82417,-1.39467c1.14585,-0.49661 5.43971,-1.48513 5.43971,-1.48513c0,0 4.95585,-0.27766 7.60826,0.579c2.84203,0.91791 2.83546,2.44556 3.0831,2.46906c0,0 1.18436,-1.74932 2.36886,-2.10461c1.18451,-0.35528 5.08219,-0.41633 5.50828,-0.25808z" stroke-width="1.4"/><path d="M228.16846,149.22547c5.09114,1.02674 11.91756,2.80736 11.91756,2.80736c0,0 5.78976,-1.55585 8.44678,-1.8344c2.05992,-0.21596 11.216,-0.70654 11.26026,-0.33377c0.04328,0.36447 -9.03119,12.90033 -21.14808,12.44714c-13.76954,-0.43578 -22.86459,-15.13559 -22.82675,-15.30472c0.03784,-0.16913 7.2591,1.19165 12.35024,2.2184z" stroke-width="1.9"/></g><g stroke="none" stroke-linecap="butt"><path d="" fill="#000000" stroke-width="0"/><path d="" data-paper-data="{&quot;noHover&quot;:false,&quot;origItem&quot;:[&quot;Path&quot;,{&quot;applyMatrix&quot;:true,&quot;segments&quot;:[[[118.01187,438.36228],[0,0],[-0.21094,0]],[[114.03531,440.90486],[0.33594,-0.35016],[-0.38282,0.39584]],[[118.48843,440.509],[-1.5703,0.49482],[1.28906,-0.40346]],[[119.58999,439.51176],[0.25782,0.5481],[-0.125,-0.32734]],[[118.75405,438.63632],[0.32812,0.15224],[-0.3125,-0.15226]],[[118.01187,438.36226],[0.10156,0],[0,0]]],&quot;closed&quot;:true,&quot;fillColor&quot;:[0,0,0]}]}" fill="#ffffff" stroke-width="0.5"/><path d="" data-paper-data="{&quot;noHover&quot;:false,&quot;origItem&quot;:[&quot;Path&quot;,{&quot;applyMatrix&quot;:true,&quot;segments&quot;:[[[123.32437,438.63632],[0,0],[-0.73438,0.02284]],[[121.70719,439.63356],[0.11718,-0.52526],[-0.09374,0.35018]],[[123.11345,440.70692],[-1.21876,-0.50242],[0.85156,0.37302]],[[125.73063,441.35398],[-0.61718,0],[0,0]],[126.80095,441.35398],[[125.30095,439.98372],[0,0],[-0.83594,-0.74602]],[[123.32439,438.6363],[0.26562,0],[0,0]]],&quot;closed&quot;:true,&quot;fillColor&quot;:[0,0,0]}]}" fill="#ffffff" stroke-width="0.5"/><path d="" data-paper-data="{&quot;noHover&quot;:false,&quot;origItem&quot;:[&quot;Path&quot;,{&quot;applyMatrix&quot;:true,&quot;segments&quot;:[[[120.61343,441.12562],[1.07032,-0.02284],[-2.47656,0.03046]],[[120.16031,441.57476],[-2.4297,-0.02284],[1.11718,0.03044]],[[122.66031,441.74984],[-0.24218,-0.07612],[0.375,0.12942]],[[122.63687,441.50624],[0.39844,0.34256],[-0.33594,-0.27406]]],&quot;closed&quot;:true,&quot;fillColor&quot;:[0,0,0]}]}" fill="#ffffff" stroke-width="0.5"/><path d="" data-paper-data="{&quot;noHover&quot;:false,&quot;origItem&quot;:[&quot;Path&quot;,{&quot;applyMatrix&quot;:true,&quot;segments&quot;:[[[114.80093,441.94778],[0.75782,0.07612],[0,0]],[113.39469,441.80314],[[113.77751,442.572],[0,0],[0.21094,0.40346]],[[115.30095,444.01838],[-0.64062,-0.37302],[1.09376,0.67752]],[[120.59001,444.79486],[-4.07812,-0.07612],[3.97656,0.04568]],[[125.68377,444.29244],[-0.88282,0.52526],[0.52344,-0.31972]],[[127.09001,442.89934],[-0.26562,0.44914],[0,0]],[127.54313,442.10002],[[126.41813,442.10002],[0,0],[-0.59374,0]],[[124.89469,442.35124],[0.2422,-0.15226],[-0.28124,0.15226]],[[120.32437,442.3284],[2.66408,0.1751],[-2.28906,-0.12942]]],&quot;closed&quot;:true,&quot;fillColor&quot;:[0,0,0]}]}" fill="#ffffff" stroke-width="0.5"/></g><path d="M242.45581,114.53508c0,0 0.1026,3.96976 0.00576,7.12662c-0.19174,6.25113 -1.08147,27.7607 -1.08147,27.7607l-2.98167,0.00864c0,0 -0.80294,-4.17274 -1.12322,-9.49979c-0.43353,-7.21063 -0.4495,-16.29321 -0.76344,-19.63229c-0.29758,-3.16513 -0.89593,-5.71453 -0.89593,-5.71453" fill="#ffffff" stroke="#000000" stroke-width="1.3" stroke-linecap="round"/><g stroke-linecap="butt"><path d="M214.31759,115.27118c0.07093,-4.89188 4.83834,-8.93609 10.21137,-8.8582c5.37302,0.0779 9.02724,4.2484 8.95632,9.14029c-0.07093,4.89188 -4.12352,8.79439 -9.49655,8.7165c-5.37302,-0.0779 -9.74207,-4.1067 -9.67114,-8.99859z" fill="#ffffff" stroke="#000000" stroke-width="1.4"/><path d="M218.75521,115.38911c0.03999,-2.75843 2.30855,-4.96213 5.06696,-4.92214c2.75843,0.03999 4.96213,2.30855 4.92214,5.06696c-0.03999,2.75843 -2.30854,4.96213 -5.06696,4.92214c-2.75843,-0.03999 -4.96213,-2.30855 -4.92214,-5.06696z" fill="#000000" stroke="none" stroke-width="1.5"/><path d="M214.24916,115.489c0,0 0.06357,-9.76512 10.60111,-9.5749c9.47101,0.16586 9.55554,10.15723 9.55554,10.15723z" fill="#ffffff" stroke="#000000" stroke-width="1.15"/><path d="M233.23914,117.12753c0,0 -1.08453,7.69137 -8.72221,7.19056c-9.03754,0.02356 -9.76778,-7.60823 -9.76778,-7.60823c0,0 4.31195,2.14126 9.2768,2.38375c5.19442,0.25371 9.21318,-1.96608 9.21318,-1.96608z" data-paper-data="{&quot;index&quot;:null}" fill="#ffffff" stroke="#000000" stroke-width="1.15"/></g><g stroke-linecap="butt"><path d="M242.70669,114.83395c0.07093,-4.89188 4.83834,-8.93609 10.21137,-8.8582c5.37302,0.0779 9.02724,4.2484 8.95632,9.14029c-0.07093,4.89188 -4.12352,8.79439 -9.49655,8.7165c-5.37302,-0.0779 -9.74207,-4.1067 -9.67114,-8.99859z" fill="#ffffff" stroke="#000000" stroke-width="1.4"/><path d="M247.14431,114.95188c0.03999,-2.75843 2.30855,-4.96213 5.06696,-4.92214c2.75843,0.03999 4.96213,2.30855 4.92214,5.06696c-0.03999,2.75843 -2.30854,4.96213 -5.06696,4.92214c-2.75843,-0.03999 -4.96213,-2.30855 -4.92214,-5.06696z" fill="#000000" stroke="none" stroke-width="1.5"/><path d="M242.63826,115.05177c0,0 0.06357,-9.76512 10.60111,-9.5749c9.47101,0.16586 9.55554,10.15723 9.55554,10.15723z" fill="#ffffff" stroke="#000000" stroke-width="1.15"/><path d="M261.62824,116.6903c0,0 -1.08453,7.69137 -8.72221,7.19056c-9.03754,0.02356 -9.76778,-7.60823 -9.76778,-7.60823c0,0 4.31195,2.14126 9.2768,2.38375c5.19442,0.25371 9.21318,-1.96608 9.21318,-1.96608z" data-paper-data="{&quot;index&quot;:null}" fill="#ffffff" stroke="#000000" stroke-width="1.15"/></g><g stroke="none" stroke-width="0" stroke-linecap="butt"><path d="M201.59244,89.77939c0,0 1.89983,-3.00206 3.7488,-3.30434c1.86059,-0.30418 8.09037,-0.72967 12.45472,-1.03777c5.02456,-0.3547 12.15575,-0.50338 12.15575,-0.50338c0,0 10.39597,0.59843 14.99916,1.02664c3.89059,0.36192 10.84346,1.82807 10.84346,1.82807l2.58641,0.601c0,0 -6.70399,0.14684 -11.15343,0.09394c-3.71033,-0.04411 -8.09219,0.38034 -11.41004,0.43226c-9.64408,0.1509 -34.22481,0.86359 -34.22481,0.86359z" fill="#2e111f"/><path d="M201.25512,89.71242c0,0 -2.76949,-11.63102 0.01519,-16.94723c2.25289,-4.30097 7.3338,-14.63763 12.5054,-19.63156c3.42389,-3.30625 7.93187,-2.97393 7.93187,-2.97393c0,0 7.70063,-0.57448 15.94636,0.14062c8.17967,0.70937 16.88764,3.21102 21.14315,4.30207c4.39062,1.1257 10.64591,8.30309 10.64591,8.30309c0,0 23.24891,28.35728 22.41334,33.63527c-0.64825,4.0948 -10.31259,5.1727 -10.31259,5.1727c0,0 12.8302,-4.1076 0.7903,-8.53217c-6.96326,-2.55894 -21.56142,-7.26188 -35.10077,-9.15951c-6.02153,-0.84396 -21.87743,-2.27749 -32.85701,-0.43566c-8.36605,1.40341 -13.12115,6.12631 -13.12115,6.12631z" fill="#ff1616"/><path d="M230.30114,77.47161c1.45669,0.04743 3.61319,-0.3005 6.15554,-0.06763c6.47588,0.59316 15.4552,2.30407 21.74904,4.33611c3.20014,1.03321 6.68855,1.90778 9.87208,3.16021c8.55505,3.36561 16.89914,6.98097 19.82833,10.78328c0.41533,0.53912 0.5381,2.61252 -0.46869,3.22406c-0.53086,0.32246 -2.2945,2.0531 -4.25119,2.72118c-2.19993,0.75113 -6.04933,0.42692 -6.04933,0.42692c0,0 4.67549,-5.0857 -2.67733,-7.91541c-0.92481,-0.35592 -4.97161,-3.17929 -10.7583,-4.63748c-7.10904,-1.79144 -15.91957,-2.88844 -20.73659,-3.41539c-11.12046,-1.2165 -21.01809,-0.84676 -27.76483,-0.35388c-5.73272,0.41879 -9.19052,0.89517 -9.19052,0.89517c0,0 0.91449,-0.9785 2.64232,-1.63826c2.66695,-1.01836 6.96007,-1.90045 10.39908,-2.09243c3.27382,-0.18275 9.37109,-0.74428 14.84296,-0.60481c7.65325,0.19505 14.85214,1.94985 14.85214,1.94985c0,0 -2.87664,-1.48651 -6.44287,-2.72097c-5.73705,-1.9859 -13.10532,-4.08639 -12.00188,-4.05048z" fill="#900407"/><path d="M272.50877,93.04773c0,0 7.75468,3.35499 10.24033,5.47883c0.71677,0.61244 -0.42742,1.49278 -0.42742,1.49278c0,0 -3.30121,1.40221 -4.44673,1.91601c-1.03192,0.46285 -1.20366,0.93333 -1.20366,0.93333c0,0 -0.94722,-1.14351 -1.67177,-2.9581c-0.24092,-0.60334 -1.23653,-1.42324 -1.66464,-2.64123c-0.72577,-2.06482 -0.8261,-4.22163 -0.8261,-4.22163z" fill="#2e111f"/></g><g stroke="none" stroke-width="0" stroke-linecap="butt"><path d="M211.04064,125.15894l-3.7249,-19.99802l62.57142,-0.03323l-3.84638,20.28777l-21.72066,-0.38856c0,0 -2.37024,-7.73416 -5.99719,-7.74217c-3.73867,0.70724 -6.28281,7.97216 -6.28281,7.97216z" fill="#ff0000"/><path d="M207.17357,106.44671l0.32256,-1.40619l62.41348,-0.13841l0.32651,1.4111z" fill="#000000"/></g></g></g></svg>