<svg version="1.1" xmlns="http://www.w3.org/2000/svg" xmlns:xlink="http://www.w3.org/1999/xlink" width="35.67311" height="35.67311" viewBox="0,0,35.67311,35.67311"><defs><linearGradient x1="240.00001" y1="162.91345" x2="240.00001" y2="197.08656" gradientUnits="userSpaceOnUse" id="color-1"><stop offset="0" stop-color="#ffd012"/><stop offset="1" stop-color="#e3c600"/></linearGradient><linearGradient x1="240.00001" y1="162.91345" x2="240.00001" y2="197.08656" gradientUnits="userSpaceOnUse" id="color-2"><stop offset="0" stop-color="#ffffff"/><stop offset="1" stop-color="#000000"/></linearGradient></defs><g transform="translate(-222.16345,-162.16345)"><g data-paper-data="{&quot;isPaintingLayer&quot;:true}" stroke-miterlimit="10" stroke-dasharray="" stroke-dashoffset="0" style="mix-blend-mode: normal"><path d="M229.98311,162.91345h20.03379c3.9166,0 7.06966,3.15307 7.06966,7.06966v20.03379c0,3.91659 -3.15306,7.06966 -7.06966,7.06966h-20.03379c-3.91659,0 -7.06966,-3.15307 -7.06966,-7.06966v-20.03379c0,-3.91659 3.15307,-7.06966 7.06966,-7.06966z" fill="url(#color-1)" fill-rule="evenodd" stroke="url(#color-2)" stroke-width="1.5" stroke-linecap="round" stroke-linejoin="round"/><g fill="#000000" fill-rule="nonzero" stroke="#ffffff" stroke-width="1" stroke-linecap="butt" stroke-linejoin="miter"><path d="M246.47564,188.33152c-2.27982,5.0089 -8.59246,7.03741 -14.09966,4.53079c-5.50721,-2.50663 -8.12352,-8.59917 -5.8437,-13.60808c2.27982,-5.0089 8.59246,-7.03741 14.09966,-4.53079c5.50721,2.50663 8.12352,8.59917 5.8437,13.60808z"/><path d="M246.67749,186.77487c-1.80632,3.9686 -6.80787,5.5758 -11.17128,3.58978c-4.36341,-1.98602 -6.43633,-6.81319 -4.63001,-10.78179c1.80632,-3.9686 6.80787,-5.5758 11.17128,-3.58977c4.36341,1.98602 6.43633,6.81319 4.63001,10.78179z"/><path d="M231.98281,174.98275l3.43668,-7.55058c0,0 16.51499,0.46376 18.9877,1.58922c2.33577,1.06313 -4.53885,4.98722 -4.53885,4.98722l-3.43668,7.55058z"/></g></g></g></svg>