<svg version="1.1" xmlns="http://www.w3.org/2000/svg" xmlns:xlink="http://www.w3.org/1999/xlink" width="35.67311" height="35.67311" viewBox="0,0,35.67311,35.67311"><defs><linearGradient x1="240" y1="162.91345" x2="240" y2="197.08654" gradientUnits="userSpaceOnUse" id="color-1"><stop offset="0" stop-color="#e10000"/><stop offset="1" stop-color="#ff0000"/></linearGradient><linearGradient x1="239.99999" y1="162.91345" x2="239.99999" y2="197.08656" gradientUnits="userSpaceOnUse" id="color-2"><stop offset="0" stop-color="#000000"/><stop offset="1" stop-color="#ffffff"/></linearGradient></defs><g transform="translate(-222.16344,-162.16344)"><g data-paper-data="{&quot;isPaintingLayer&quot;:true}" stroke-miterlimit="10" stroke-dasharray="" stroke-dashoffset="0" style="mix-blend-mode: normal"><path d="M229.9831,162.91345h20.03379c3.9166,0 7.06966,3.15307 7.06966,7.06966v20.03379c0,3.91659 -3.15306,7.06966 -7.06966,7.06966h-20.03379c-3.91659,0 -7.06966,-3.15307 -7.06966,-7.06966v-20.03379c0,-3.91659 3.15307,-7.06966 7.06966,-7.06966z" fill="url(#color-1)" fill-rule="evenodd" stroke="url(#color-2)" stroke-width="1.5" stroke-linecap="round" stroke-linejoin="round"/><path d="M226.83281,174.70789c-0.53428,-2.39181 0.97155,-4.76389 3.36337,-5.29817c2.39181,-0.53428 4.76389,0.97155 5.29817,3.36337c0.53428,2.39181 -0.97155,4.76389 -3.36337,5.29817c-2.39181,0.53428 -4.76389,-0.97155 -5.29817,-3.36337z" fill="#000000" fill-rule="nonzero" stroke="#ffffff" stroke-width="1" stroke-linecap="butt" stroke-linejoin="miter"/><path d="M241.15912,176.63093c-0.4214,-1.8865 0.7663,-3.75743 2.6528,-4.17884c1.8865,-0.4214 3.75743,0.7663 4.17884,2.6528c0.4214,1.8865 -0.7663,3.75743 -2.6528,4.17884c-1.8865,0.4214 -3.75743,-0.7663 -4.17884,-2.6528z" fill="#000000" fill-rule="nonzero" stroke="#ffffff" stroke-width="1" stroke-linecap="butt" stroke-linejoin="miter"/><path d="M233.81734,182.75375c-0.3311,-1.48225 0.60209,-2.95227 2.08434,-3.28337c1.48225,-0.3311 2.95227,0.60209 3.28337,2.08434c0.3311,1.48225 -0.60209,2.95227 -2.08434,3.28337c-1.48225,0.3311 -2.95227,-0.60209 -3.28337,-2.08434z" fill="#000000" fill-rule="nonzero" stroke="#ffffff" stroke-width="1" stroke-linecap="butt" stroke-linejoin="miter"/><path d="M243.51758,188.3358c-0.59448,-2.66131 1.08103,-5.30066 3.74234,-5.89514c2.66131,-0.59448 5.30066,1.08103 5.89514,3.74234c0.59448,2.66131 -1.08103,5.30066 -3.74234,5.89514c-2.66131,0.59448 -5.30066,-1.08103 -5.89514,-3.74234z" fill="#000000" fill-rule="nonzero" stroke="#ffffff" stroke-width="1" stroke-linecap="butt" stroke-linejoin="miter"/></g></g></svg>