<svg version="1.1" xmlns="http://www.w3.org/2000/svg" xmlns:xlink="http://www.w3.org/1999/xlink" width="127.70091" height="282.61568" viewBox="0,0,127.70091,282.61568"><defs><linearGradient x1="268.95081" y1="43.0134" x2="262.87498" y2="83.56072" gradientUnits="userSpaceOnUse" id="color-1"><stop offset="0" stop-color="#3f3f00"/><stop offset="1" stop-color="#886f09"/></linearGradient><radialGradient cx="265.13609" cy="108.50055" r="8.25" gradientUnits="userSpaceOnUse" id="color-2"><stop offset="0" stop-color="#e3e19b"/><stop offset="1" stop-color="#e3c600"/></radialGradient></defs><g transform="translate(-184.15313,-30.83298)"><g data-paper-data="{&quot;isPaintingLayer&quot;:true}" fill-rule="nonzero" stroke-linejoin="miter" stroke-miterlimit="10" stroke-dasharray="" stroke-dashoffset="0" style="mix-blend-mode: normal"><path d="M184.15313,299.93631l37.52564,-250.4291l90.17527,13.51235l-37.52564,250.4291z" fill-opacity="0.01" fill="#000000" stroke="none" stroke-width="0" stroke-linecap="butt"/><path d="M214.49652,104.82879c0,0 7.07001,-5.59186 7.33942,-6.52387c0.24286,-0.84019 1.08041,-6.31934 3.53565,-12.99424c0.28829,-0.78375 -4.48546,-5.38642 -3.64839,-5.12334c3.59234,1.12903 5.77696,-0.03565 6.48443,-1.43737c5.7019,-11.29727 16.33445,-22.87512 36.04224,-20.78401c28.48485,3.60842 33.88375,21.02576 34.47128,35.09698c0.07897,1.89129 12.45136,7.39205 9.15024,6.59207c-1.087,-0.26342 -9.21283,1.05207 -9.26907,2.07338c-0.2159,3.92046 -0.51715,7.04566 -0.22489,8.73831c1.86758,10.81613 1.77186,23.66525 1.77186,23.66525c0,0 -0.94594,-6.30459 -2.06615,-7.68599c-1.0448,-1.28842 -3.24163,-4.01907 -3.24163,-4.01907c0,0 1.35362,11.82551 -2.11007,22.9278c-0.57506,1.88561 2.2246,10.56175 0.88807,6.9392c-0.9057,-2.45482 -3.53308,-0.09298 -5.09529,1.49402c-3.2928,3.34507 -5.84543,9.40752 -5.84543,9.40752l-0.75608,-2.74976c0,0 -1.37316,2.2629 -2.68479,3.34093c-1.31163,1.07802 -3.88021,2.69006 -3.88021,2.69006l0.5187,-4.08273c0,0 -8.79577,11.05703 -25.87132,8.33389c-16.08416,-2.69707 -24.02645,-15.59032 -24.02645,-15.59032l-0.55192,2.89913c0,0 -3.30976,-4.19429 -4.51528,-11.57982c-1.43684,-8.80269 -1.18838,-13.92931 -1.18838,-13.92931c0,0 -2.62587,1.73961 -6.1106,2.20048c-4.36657,0.5775 -6.57125,3.03266 -6.57125,3.03266c0,0 3.65984,-6.13298 5.95192,-8.09508c2.0416,-1.74768 3.17327,-3.31769 3.17327,-3.31769c0,0 -2.26286,0.87922 -4.45236,1.15007c-2.28449,0.28261 -5.01538,3.24749 -5.01538,3.24749c0,0 6.69157,-8.05773 9.68549,-14.16506c2.82675,-5.76631 3.88017,-11.7255 3.88017,-11.7255c0,0 -1.45552,0.52502 -3.42424,0.37996c-1.24791,-0.09194 -2.34355,-0.4061 -2.34355,-0.4061z" fill="#000000" stroke="none" stroke-width="1.5" stroke-linecap="butt"/><path d="M266.148,54.87243c-0.21912,0.61834 -0.46961,1.45029 -0.76548,2.53195zM266.21451,54.6887c-0.13119,0.80732 -1.34981,7.76326 -4.32674,7.31718c-3.15997,-0.47351 -1.98118,-8.34023 -1.98118,-8.34023l1.15837,-4.8895c1.45926,-3.27243 2.611,-8.13884 4.37778,-9.8173c4.81945,-4.57855 6.35301,0.93332 8.84904,5.58897c0,0 2.15878,4.31411 -0.43248,10.9094c-2.59126,6.5953 -4.75004,2.28119 -4.75004,2.28119c-1.48672,-3.32017 -1.78157,-6.0563 -2.89474,-3.04973z" fill="#3f3f00" stroke="none" stroke-width="0.5" stroke-linecap="butt"/><path d="M252.15711,62.645l8.13743,-31.81202l20.43847,3.06261l-1.87403,32.75056zM267.84635,50.16554c2.73093,0.40922 5.27653,-1.47291 5.68575,-4.20384c0.40922,-2.73093 -1.47291,-5.27653 -4.20384,-5.68575c-2.73093,-0.40922 -5.27653,1.47291 -5.68575,4.20384c-0.40922,2.73093 1.47291,5.27653 4.20384,5.68575z" fill="#737300" stroke="none" stroke-width="0" stroke-linecap="butt"/><path d="M200.40769,304.53962c0,0 -0.63536,-94.38387 -0.79335,-118.01201c-0.05451,-8.15261 8.18688,-36.76129 40.20201,-36.9211c31.60235,-0.15775 39.85672,29.48704 39.84884,36.89673c-0.07659,46.24274 0.65429,117.98648 0.65429,117.98648l-10.49667,0.09614l-0.15882,-114.84311c0,0 0.07549,-3.0993 -2.81625,-3.15415c-3.43441,-0.06514 -2.94538,3.11562 -2.94538,3.11562l0.20548,114.86995l-48.21366,0.07222l-0.30539,-115.23309c0,0 0.27949,-2.919 -2.8856,-2.93443c-3.11083,-0.01515 -2.81569,2.90899 -2.81569,2.90899l0.35311,115.0668z" fill="#ffffff" stroke="#000000" stroke-width="2" stroke-linecap="butt"/><path d="M255.00485,200.4818c-0.57113,0 -1.03411,-0.46299 -1.03411,-1.03411c0,-0.57113 0.46299,-1.03413 1.03411,-1.03413c0.57113,0 1.03411,0.463 1.03411,1.03413c0,0.57113 -0.46299,1.03411 -1.03411,1.03411z" fill="#000000" stroke="none" stroke-width="1.5" stroke-linecap="butt"/><g stroke="none" stroke-width="0" stroke-linecap="butt"><path d="M193.18142,290.43206c0,0 2.33194,-15.27189 2.60753,-34.61608c0.38527,-27.04278 -1.03552,-62.04422 1.05493,-74.40546c0.68137,-4.02906 5.91437,-13.82592 11.08699,-19.94358c5.41067,-6.3992 10.75526,-7.36822 10.75526,-7.36822c0,0 1.7152,26.41704 1.00722,32.64337c-0.29278,2.57482 -5.258,5.45942 -5.258,5.45942c0,0 -1.93218,45.23551 -1.93218,63.2018c0,12.40339 2.70505,35.02874 2.70505,35.02874z" fill="#ffd012"/><path d="M192.34809,290.76538c3.31385,-9.25031 5.72828,-21.9509 7.15941,-27.83086c0.30893,-1.26926 2.70155,-8.27821 3.27758,-12.06747c1.07605,-7.0785 2.44228,-30.90712 4.54155,-48.91439c0.49778,-4.26991 1.41875,-8.31229 2.42439,-11.97864c1.76797,-6.44564 4.4643,-11.72906 4.91621,-15.04335c0.86862,-6.37033 -4.63903,24.73245 -3.89939,18.94104c0.00709,6.28001 2.34166,96.89366 2.34166,96.89366z" data-paper-data="{&quot;index&quot;:null}" fill="#eabc00"/></g><path d="M249.74498,204.71739c-4.4635,-0.31439 -6.55245,-1.79392 -6.16985,-2.58011c0.11788,-0.24224 2.84645,1.06355 6.97038,1.3048c6.40897,0.37493 8.51033,-0.63173 8.51033,-0.63173v1.34616c0,0 -2.4135,1.04672 -9.31086,0.56089z" fill="#000000" stroke="#000000" stroke-width="0" stroke-linecap="butt"/><path d="M221.93223,199.44769c0,-0.57113 0.46299,-1.03413 1.03411,-1.03413c0.57113,0 1.03413,0.463 1.03413,1.03413c0,0.57113 -0.463,1.03411 -1.03413,1.03411c-0.57113,0 -1.03411,-0.46299 -1.03411,-1.03411z" fill="#000000" stroke="none" stroke-width="1.5" stroke-linecap="butt"/><g data-paper-data="{&quot;index&quot;:null}" stroke="none" stroke-width="0" stroke-linecap="butt"><path d="M264.83788,289.43206c0,0 2.70504,-22.62535 2.70504,-35.02874c0,-17.96629 -1.93217,-63.2018 -1.93217,-63.2018c0,0 -4.96522,-2.88459 -5.258,-5.45942c-0.70799,-6.22633 1.00721,-32.64337 1.00721,-32.64337c0,0 5.3446,0.96901 10.75527,7.36821c5.17262,6.11766 10.40562,15.91452 11.08699,19.94358c2.09046,12.36124 0.66967,47.36269 1.05494,74.40547c0.27559,19.34418 2.60753,34.61607 2.60753,34.61607z" fill="#ffd012"/><path d="M265.4366,289.76538c0,0 2.33457,-90.61365 2.34167,-96.89366c0.73963,5.79142 -4.76801,-25.31137 -3.89939,-18.94104c0.45191,3.31429 4.64824,8.5977 6.41621,15.04335c1.00564,3.66635 1.92661,7.70872 2.42439,11.97863c2.09927,18.00727 1.9655,41.83589 3.04155,48.91439c0.57603,3.78926 2.96865,10.7982 3.27758,12.06747c1.43114,5.87996 3.84557,18.58056 7.15942,27.83086z" data-paper-data="{&quot;index&quot;:null}" fill="#eabc00"/></g><path d="M228.22621,204.71739c-6.89736,0.48585 -9.31086,-0.56089 -9.31086,-0.56089v-1.34616c0,0 2.10136,1.00666 8.51033,0.63173c4.12393,-0.24126 6.85251,-1.54704 6.97039,-1.3048c0.3826,0.78618 -1.70634,2.26571 -6.16985,2.58011z" fill="#000000" stroke="#000000" stroke-width="0" stroke-linecap="butt"/><path d="M239.50667,261.26917c-0.81895,0 -1.48284,-0.66389 -1.48284,-1.48284c0,-0.81895 0.66389,-1.48284 1.48284,-1.48284c0.81895,0 1.48284,0.66389 1.48284,1.48284c0,0.81895 -0.66389,1.48284 -1.48284,1.48284z" data-paper-data="{&quot;index&quot;:null}" fill="#000000" stroke="none" stroke-width="1.5" stroke-linecap="butt"/><path d="M215.44342,304.55404c0,0 0.13131,-15.77503 0.11533,-35.52574c-0.00244,-3.0126 0.12285,-26.52943 -0.00665,-30.17128c-0.61087,-17.17851 -5.94201,-24.30303 -5.94201,-32.31732c0,-5.8312 1.21918,-10.69187 2.18288,-14.94055c0.62978,-2.77653 3.65045,-7.91324 3.65045,-7.91324c0,0 0.75721,-8.06438 0.75721,-12.9727c0,-4.498 -0.75721,-13.6872 -0.75721,-13.6872c0,0 2.67319,-2.35297 4.6557,-3.74807c1.98251,-1.3951 5.17197,-2.80371 5.17197,-2.80371l14.55952,54.372l13.83154,-54.372c0,0 3.91276,1.51959 6.16585,2.94655c2.25309,1.42695 4.75379,3.60523 4.75379,3.60523c0,0 -0.75721,9.42463 -0.75721,14.19201c0,4.84193 0.75721,10.9727 0.75721,10.9727c0,0 3.10286,5.7747 3.79582,8.94333c0.93648,4.28216 1.03751,10.50135 1.03751,16.07232c0,8.24693 -4.02914,14.70887 -4.66578,32.33265c-0.28317,7.83897 -0.32726,24.61614 -0.24856,32.1579c0.18846,18.05911 0.08101,32.85714 0.08101,32.85714z" fill="#ffd012" stroke="#ffd012" stroke-width="2" stroke-linecap="butt"/><path d="M230.21344,113.21326c0.51007,-7.29822 6.25248,-16.4508 17.10005,-17.96298c8.33378,-1.16178 13.89382,-1.7579 13.89382,-1.7579c0,0 9.23696,2.8986 15.69538,8.09901c6.3981,5.15184 9.19727,15.84019 8.63403,18.55259c-1.2571,5.54414 -3.91307,9.01939 -4.97096,11.91544c-1.05789,2.89605 -1.31447,6.00817 -4.5588,15.53566c-2.02468,5.94582 -5.43843,8.20938 -12.08139,13.01415c-6.64296,4.80478 -10.32499,7.8089 -14.2513,7.29031c-3.77853,-0.49906 -8.08119,-6.36807 -12.24297,-12.33291c-4.43161,-6.35159 -7.52067,-9.69871 -7.36467,-16.41234c0.14049,-6.04633 0.7004,-9.9142 1.1494,-15.24636c0.32816,-3.89713 -1.28113,-6.70897 -1.00258,-10.69467z" fill="#ffffff" stroke="#000000" stroke-width="1.5" stroke-linecap="butt"/><path d="M279.99339,105.38338c0,0 1.46032,0.54044 4.04428,1.7287c2.36014,1.08534 4.14177,2.38413 4.14177,2.38413l0.01951,1.18634c0,0 -6.70575,-4.16974 -14.58278,-4.68335c-6.29829,-0.41064 -10.26996,1.30489 -10.26996,1.30489l0.66421,-4.12393c0,0 3.3455,-1.22193 8.05181,-0.66976c4.87336,0.57178 7.91389,1.78371 7.91389,1.78371z" data-paper-data="{&quot;index&quot;:null}" fill="#000000" stroke="none" stroke-width="1.5" stroke-linecap="butt"/><path d="M253.17966,146.41028c-1.02235,-0.15319 -3.01587,-3.74874 -2.95004,-5.86563c0.0589,-1.89404 1.86787,-3.59084 4.31216,-3.22457c2.4443,0.36627 4.08298,1.10806 3.36479,4.73949c-0.60951,3.08188 -2.28263,4.71699 -4.72692,4.35072z" fill="#ffffff" stroke="#000000" stroke-width="1.15" stroke-linecap="butt"/><g stroke="none" stroke-linecap="butt"><path d="M273.03854,153.32209c0,0 -2.18623,15.59643 -10.17802,22.54323c-2.78741,2.42294 -8.99438,1.47986 -14.25578,0.69147c-5.64153,-0.84536 -10.79712,-1.63178 -13.22286,-5.03697c-6.87995,-9.65804 -3.73456,-25.58881 -3.73456,-25.58881c0,0 11.39544,-6.38838 16.3685,-6.08893c1.52658,0.09193 5.56915,4.52236 5.56915,4.52236c0,0 4.46332,-3.61579 8.37881,-1.6244c6.55737,3.33506 11.07476,10.582 11.07476,10.582z" fill="#000000" stroke-width="0"/><path d="M254.40341,146.98555c-0.79377,0.43985 -15.05286,0.39241 -17.55535,0.01742c-3.47327,-0.52045 -3.0746,-1.15062 3.26618,-3.57483c5.70797,-2.17521 9.41897,-2.42017 12.95479,2.72616c0,0 1.48587,0.70353 1.33437,0.83125z" data-paper-data="{&quot;noHover&quot;:false,&quot;origItem&quot;:[&quot;Path&quot;,{&quot;applyMatrix&quot;:true,&quot;segments&quot;:[[[332.0254,197.06293],[0.95313,-0.53669],[-1.05859,0.59758]],[[331.53713,197.74806],[-0.62891,0],[0.45313,0]],[[334.0254,197.29892],[-0.1289,0.09896],[0.02344,-0.02664]],[[333.87307,196.93732],[0.10547,0.17509],[-0.28906,-0.44914]]],&quot;closed&quot;:true,&quot;fillColor&quot;:[0,0,0]}]}" fill="#ffffff" stroke-width="0.5"/><path d="M266.57069,148.27877l3.93034,4.08921l-2.34892,-0.09183c-2.72811,-0.19388 -14.72171,-4.74707 -14.86889,-5.97271c1.51996,-1.04032 4.975,-2.7612 6.93815,-2.46703c1.18649,0.17779 3.82255,2.0219 6.34938,4.44237z" data-paper-data="{&quot;noHover&quot;:false,&quot;origItem&quot;:[&quot;Path&quot;,{&quot;applyMatrix&quot;:true,&quot;segments&quot;:[[[335.58448,196.62521],[0.21484,0],[-0.35547,0]],[[334.9087,197.16189],[-0.07422,-0.22457],[0.05859,0.21315]],[[337.13526,197.84702],[-0.48828,0.03806],[0,0]],[337.54932,197.80896],[[336.74073,197.21138],[0,0],[-0.51172,-0.3616]]],&quot;closed&quot;:true,&quot;fillColor&quot;:[0,0,0]}]}" fill="#ffffff" stroke-width="0.5"/><path d="M245.82733,149.71293c0.22679,-1.51348 9.30075,-0.45363 13.11802,1.45092c2.80118,1.47291 2.57767,1.68019 -5.03761,0.53907c-4.4319,-0.59962 -8.13081,-1.65362 -8.08042,-1.98995z" data-paper-data="{&quot;noHover&quot;:false,&quot;origItem&quot;:[&quot;Path&quot;,{&quot;applyMatrix&quot;:true,&quot;segments&quot;:[[[333.20509,198.01069],[0,0],[0,0.0609]],[[334.61134,198.10965],[-0.80078,0.01142],[1.37891,0]],[[335.46682,197.92314],[0.53516,0.18651],[-0.72656,-0.23599]],[[333.20509,198.01068],[0,-0.27405],[0,0]]],&quot;closed&quot;:true,&quot;fillColor&quot;:[0,0,0]}]}" fill="#ffffff" stroke-width="0.5"/><path d="M241.88434,158.11393c0.14489,-0.9669 0.66685,-0.76859 4.62963,1.93148c4.14429,2.81327 7.44392,3.15851 11.01737,1.24377c2.42771,-1.33418 3.70961,-1.17325 2.76998,0.53434c-1.11679,2.15389 -5.34353,3.51528 -9.48554,2.89462c-3.36541,-0.50429 -4.55182,-1.27768 -6.60184,-3.34726c-1.33373,-1.40344 -2.38007,-2.92057 -2.32967,-3.2569z" data-paper-data="{&quot;noHover&quot;:false,&quot;origItem&quot;:[&quot;Path&quot;,{&quot;applyMatrix&quot;:true,&quot;segments&quot;:[[[332.72855,199.61694],[0,0],[0,0.0609]],[[333.22855,200.11556],[-0.27344,-0.21315],[0.41797,0.31211]],[[334.43168,200.48857],[-0.60938,0],[0.75,0]],[[335.99027,199.7806],[-0.14062,0.41108],[0.12109,-0.32734]],[[335.58402,199.74254],[0.39453,-0.3007],[-0.58203,0.43392]],[[333.50199,199.81486],[0.80859,0.38824],[-0.77344,-0.37301]],[[332.72855,199.61693],[0,-0.17508],[0,0]]],&quot;closed&quot;:true,&quot;fillColor&quot;:[0,0,0]}]}" fill="#ffffff" stroke-width="0.5"/><path d="M238.29291,153.62672c3.44228,10.29501 5.2405,11.86321 13.32546,12.66633c6.14611,0.64156 7.22668,0.27959 11.6194,-6.21929c2.59582,-3.78066 6.67868,-6.56115 7.51671,-5.38242c0.59853,0.86345 -3.66846,13.42119 -5.56744,16.23159c-2.9649,4.47755 -6.01052,5.25729 -15.73992,3.79939c-7.09752,-1.06353 -8.40787,-1.4928 -11.12716,-3.51223c-3.69442,-2.7244 -4.89968,-6.35423 -5.44005,-15.84906c-0.17325,-3.70121 -0.26192,-7.01532 -0.22097,-7.28859c0.0441,-0.2943 1.02211,-0.00727 2.13616,0.65398c1.28932,0.81648 2.77103,2.68508 3.49786,4.90027z" data-paper-data="{&quot;noHover&quot;:false,&quot;origItem&quot;:[&quot;Path&quot;,{&quot;applyMatrix&quot;:true,&quot;segments&quot;:[[[331.21682,198.15914],[0.25,0.11038],[-0.21484,-0.08754]],[[330.8223,198.09824],[0,-0.05329],[0,0.04948]],[[331.06057,199.36953],[-0.1289,-0.65087],[0.34766,1.66715]],[[332.43166,201.98444],[-0.72656,-0.38444],[0.53516,0.28547]],[[334.4551,202.29655],[-1.28516,0],[1.76172,0]],[[337.09963,201.23841],[-0.40625,0.87163],[0.26172,-0.5481]],[[337.65822,198.2581],[0.12891,0.13703],[-0.17969,-0.18651]],[[336.56056,199.36953],[0.35938,-0.73842],[-0.60547,1.26749]],[[334.6465,200.83875],[1.10547,-0.04948],[-1.45312,0.07232]],[[331.88088,198.88233],[0.88281,1.73185],[-0.1875,-0.37301]]],&quot;closed&quot;:true,&quot;fillColor&quot;:[0,0,0]}]}" fill="#ffffff" stroke-width="0.5"/></g><path d="M261.20162,117.18263c0,0 -0.48682,3.94113 -1.0504,7.04879c-1.11598,6.1537 -5.18341,27.29392 -5.18341,27.29392l-2.95003,-0.43331c0,0 -0.17571,-4.24566 0.29696,-9.56135c0.63981,-7.19526 1.96997,-16.17992 2.15432,-19.52866c0.17475,-3.17428 -0.0392,-5.7842 -0.0392,-5.7842" fill="#ffffff" stroke="#000000" stroke-width="1.3" stroke-linecap="round"/><path d="M230.39415,123.47658c0,0 -4.35646,-4.20911 -4.76609,-9.7894c-0.43101,-5.87154 -0.00273,-9.84187 1.95554,-9.81046c1.95828,0.0314 2.32113,2.75127 2.45317,8.81657c0.13203,6.0653 0.35739,10.78329 0.35739,10.78329z" data-paper-data="{&quot;index&quot;:null}" fill="#ffffff" stroke="#000000" stroke-width="1" stroke-linecap="butt"/><path d="M230.77879,119.54258c0,0 -3.09128,-3.41923 -3.01818,-8.99722c0.04077,-3.11158 2.47084,-1.93537 2.47084,-1.93537" fill="none" stroke="#000000" stroke-width="0.25" stroke-linecap="round"/><path d="M235.38058,116.8014l-0.04509,-1.88547l-2.80311,-2.11186c0,0 0.33937,-1.89256 1.36929,-3.5024c0.70491,-1.10182 2.12758,-2.01213 2.42155,-2.32704c1.53354,-1.64276 4.19294,-0.98957 4.19294,-0.98957" fill="none" stroke="#000000" stroke-width="3" stroke-linecap="round"/><path d="M234.74526,113.40673c0.79508,-4.82736 6.10917,-8.12043 11.41133,-7.24716c5.30215,0.87327 8.29799,5.53925 7.50292,10.36662c-0.79508,4.82736 -5.38124,8.08622 -10.6834,7.21296c-5.30215,-0.87327 -9.02593,-5.50504 -8.23085,-10.33241z" fill="#ffffff" stroke="#000000" stroke-width="1.4" stroke-linecap="butt"/><path d="M276.97402,111.44809c0,0 2.73405,0.15498 3.71873,2.1751c0.18876,0.38725 1.28212,1.67457 1.63312,2.93462c0.51283,1.84101 0.28256,3.74993 0.28256,3.74993l-3.299,1.19749l-0.59576,1.78944" data-paper-data="{&quot;index&quot;:null}" fill="none" stroke="#000000" stroke-width="3" stroke-linecap="round"/><path d="M240.42671,113.87174c0.44832,-2.72205 3.0184,-4.56524 5.74043,-4.11692c2.72205,0.44832 4.56524,3.0184 4.11692,5.74043c-0.44832,2.72205 -3.01839,4.56524 -5.74043,4.11692c-2.72205,-0.44832 -4.56524,-3.0184 -4.11692,-5.74043z" fill="#000000" stroke="none" stroke-width="1.5" stroke-linecap="butt"/><path d="M261.50269,117.41695c0.92567,-4.80404 5.71622,-8.10082 10.97535,-7.31277c5.25911,0.78805 8.58439,5.29668 7.85938,10.13506c-0.72501,4.83838 -5.18719,8.39504 -10.94729,7.60354c-5.4789,-0.75285 -8.85415,-5.40874 -7.88744,-10.42584z" fill="#ffffff" stroke="#000000" stroke-width="1.4" stroke-linecap="butt"/><path d="M264.8428,117.75116c0.41767,-2.78733 3.01583,-4.70832 5.80316,-4.29065c2.78733,0.41767 4.70832,3.01583 4.29065,5.80316c-0.41767,2.78733 -3.01582,4.70832 -5.80316,4.29065c-2.78733,-0.41767 -4.70832,-3.01583 -4.29065,-5.80316z" fill="#000000" stroke="none" stroke-width="1.5" stroke-linecap="butt"/><path d="M234.75644,112.87028c0,0 1.39883,-8.90616 11.79183,-7.15647c9.34186,1.56755 8.05597,10.71941 8.05597,10.71941z" fill="#ffd012" stroke="#ffd012" stroke-width="1.15" stroke-linecap="butt"/><path d="M261.18879,116.96341c0,0 1.15748,-9.39035 12.4235,-7.34323c9.5576,1.76935 8.01098,10.96046 8.01098,10.96046z" fill="#ffd012" stroke="#ffd012" stroke-width="1.15" stroke-linecap="butt"/><path d="M239.73096,103.49226c0,0 3.60198,-1.29957 8.28189,-1.06625c5.18593,0.25853 7.69228,1.08563 7.69228,1.08563l-0.32131,4.13552c0,0 -3.69232,-1.24153 -7.8522,-1.70356c-5.56331,-0.61793 -6.78386,0.4324 -11.05767,0.25536c-3.66203,-0.15169 -6.68638,-0.84131 -6.68638,-0.84131l0.1569,-1.22179c0,0 3.54451,0.60593 5.18605,0.70798c1.35487,0.08422 4.07082,-0.33856 4.07082,-0.33856z" fill="#000000" stroke="none" stroke-width="1.5" stroke-linecap="butt"/><path d="M285.60099,121.01933c1.90403,-5.76021 3.04816,-8.25426 4.92964,-7.71029c1.88147,0.54396 1.1272,4.46543 -1.00588,9.95276c-2.02728,5.21513 -7.42613,7.96245 -7.42613,7.96245c0,0 1.59834,-4.44472 3.50238,-10.20492z" data-paper-data="{&quot;index&quot;:null}" fill="#ffffff" stroke="#000000" stroke-width="1" stroke-linecap="butt"/><path d="M286.61172,117.05832c0,0 2.6681,-0.41228 1.79504,2.57459c-1.56507,5.35442 -5.52279,7.71739 -5.52279,7.71739" data-paper-data="{&quot;index&quot;:null}" fill="none" stroke="#000000" stroke-width="0.25" stroke-linecap="round"/><path d="M260.40259,83.19025c0,0 -1.00228,-22.55279 0.08672,-29.82029c0.64954,-4.33471 4.6705,-10.92461 4.6705,-10.92461l7.58202,1.13613c0,0 1.98027,7.02873 1.36205,11.15445c-1.0831,7.22813 -8.92132,29.17057 -8.92132,29.17057z" fill="url(#color-1)" stroke="none" stroke-width="0" stroke-linecap="butt"/><path d="M259.05809,108.65507l3.95176,-26.37224" fill="none" stroke="#000000" stroke-width="4" stroke-linecap="round"/><path d="M214.72637,305.51777v-14.33333c0,0 16.36991,6.66667 24.66667,6.66667c8.68544,0 26.33333,-6 26.33333,-6v13.66667z" fill="#eabc00" stroke="none" stroke-width="0" stroke-linecap="butt"/><path d="M232.88974,80.25117l-4.95305,-0.95135c0,0 1.62477,-3.64959 4.64791,-7.85727c4.31549,-6.00637 10.69749,-12.59315 13.53091,-12.85877c3.98194,-0.37328 10.95842,-1.3523 10.95842,-1.3523l-0.12279,5.58363c0,0 -5.75216,0.92761 -9.29056,1.09555c-4.83509,0.22948 -14.77085,16.3405 -14.77085,16.3405z" fill="#737300" stroke="none" stroke-width="0" stroke-linecap="butt"/><path d="M284.33457,69.74315c-3.33376,-1.1977 -8.56139,-3.77058 -8.56139,-3.77058l0.2006,-5.57197c0,0 7.70171,3.17849 11.39936,4.70251c2.63112,1.08445 7.23062,8.64265 9.59605,15.65012c1.65706,4.90898 1.71229,9.48442 1.71229,9.48442l-5.01434,-0.54222c0,0 -0.61663,-4.79325 -2.4785,-9.74672c-1.74073,-4.63115 -4.65291,-9.41478 -6.85405,-10.20557z" data-paper-data="{&quot;index&quot;:null}" fill="#737300" stroke="none" stroke-width="0" stroke-linecap="butt"/><g><path d="M266.97186,113.08837c-0.67521,4.50604 -4.87544,7.61154 -9.38148,6.93634c-4.50604,-0.67521 -7.61154,-4.87544 -6.93634,-9.38148c0.67521,-4.50604 4.87544,-7.61154 9.38148,-6.93634c4.50604,0.67521 7.61154,4.87544 6.93634,9.38148z" fill="url(#color-2)" stroke="none" stroke-width="0" stroke-linecap="butt"/><path d="M250.962,109.97945l16.04311,2.40399" fill="none" stroke="#886f09" stroke-width="0.5" stroke-linecap="round"/><g fill="#886f09" stroke-width="0.5"><path d="M253.92702,116.43456c-1.36547,-0.20461 -2.30653,-1.47741 -2.10192,-2.84287c0.20461,-1.36547 1.47741,-2.30653 2.84287,-2.10192c1.36547,0.20461 2.30653,1.47741 2.10192,2.84287c-0.20461,1.36547 -1.47741,2.30653 -2.84287,2.10192z" data-paper-data="{&quot;index&quot;:null}" stroke="none" stroke-linecap="butt"/><path d="M254.97899,115.4125l0.22582,3.74144c0,0 -0.8441,-0.43372 -1.27481,-0.71661c-0.45448,-0.29851 -1.42861,-1.48612 -1.42861,-1.48612l0.53799,-2.84053" data-paper-data="{&quot;index&quot;:null}" stroke="#886f09" stroke-linecap="round"/></g><g fill="#886f09" stroke-width="0.5"><path d="M260.41255,114.76612c0.20461,-1.36547 1.47741,-2.30653 2.84287,-2.10192c1.36547,0.20461 2.30653,1.47741 2.10192,2.84287c-0.20461,1.36547 -1.47741,2.30653 -2.84287,2.10192c-1.36547,-0.20461 -2.30653,-1.47741 -2.10192,-2.84287z" stroke="none" stroke-linecap="butt"/><path d="M264.04427,115.64739l-0.31822,2.87346c0,0 -1.27944,0.84991 -1.80145,1.0021c-0.49471,0.14422 -1.42887,0.31147 -1.42887,0.31147l1.31256,-3.51093" stroke="#886f09" stroke-linecap="round"/></g><path d="M257.55157,109.48965l2.13801,-3.72429l0.89067,4.17812l-3.18047,-2.8149l4.32669,0.64834z" fill="#886f09" stroke="#886f09" stroke-width="0.5" stroke-linecap="round"/></g></g></g></svg>