<svg version="1.1" xmlns="http://www.w3.org/2000/svg" xmlns:xlink="http://www.w3.org/1999/xlink" width="35.67311" height="35.67311" viewBox="0,0,35.67311,35.67311"><defs><linearGradient x1="240.00001" y1="162.91345" x2="240.00001" y2="197.08656" gradientUnits="userSpaceOnUse" id="color-1"><stop offset="0" stop-color="#e3c600"/><stop offset="1" stop-color="#ffd012"/></linearGradient><linearGradient x1="240.00001" y1="162.91345" x2="240.00001" y2="197.08656" gradientUnits="userSpaceOnUse" id="color-2"><stop offset="0" stop-color="#ffffff"/><stop offset="1" stop-color="#000000"/></linearGradient></defs><g transform="translate(-222.16345,-162.16345)"><g data-paper-data="{&quot;isPaintingLayer&quot;:true}" stroke-miterlimit="10" stroke-dasharray="" stroke-dashoffset="0" style="mix-blend-mode: normal"><path d="M229.98311,162.91345h20.03379c3.9166,0 7.06966,3.15307 7.06966,7.06966v20.03379c0,3.91659 -3.15306,7.06966 -7.06966,7.06966h-20.03379c-3.91659,0 -7.06966,-3.15307 -7.06966,-7.06966v-20.03379c0,-3.91659 3.15307,-7.06966 7.06966,-7.06966z" fill="url(#color-1)" fill-rule="evenodd" stroke="url(#color-2)" stroke-width="1.5" stroke-linecap="round" stroke-linejoin="round"/><path d="M252.45616,183.34843c-1.84928,6.87935 -8.92524,10.95702 -15.80459,9.10773c-6.87935,-1.84928 -10.95702,-8.92524 -9.10773,-15.80459c1.84928,-6.87935 8.92524,-10.95702 15.80459,-9.10773c6.87935,1.84928 10.95702,8.92524 9.10773,15.80459z" fill="#000000" fill-rule="nonzero" stroke="#ffffff" stroke-width="1" stroke-linecap="butt" stroke-linejoin="miter"/><g fill="#000000" fill-rule="nonzero" stroke="#ffffff" stroke-width="1" stroke-linejoin="miter"><path d="M228.14009,175.67522l24.49291,6.58411" stroke-linecap="round"/><g><path d="M231.59901,186.22875c-2.08465,-0.56039 -3.32031,-2.70462 -2.75992,-4.78927c0.56039,-2.08465 2.70462,-3.32031 4.78927,-2.75992c2.08465,0.56039 3.32031,2.70462 2.75992,4.78927c-0.56039,2.08465 -2.70462,3.32031 -4.78927,2.75992z" data-paper-data="{&quot;index&quot;:null}" stroke-linecap="butt"/><path d="M233.41461,184.82804l-0.31388,5.85175c0,0 -1.23411,-0.82365 -1.85288,-1.33959c-0.65292,-0.54441 -1.95508,-2.56218 -1.95508,-2.56218l1.34027,-4.31666" data-paper-data="{&quot;index&quot;:null}" stroke-linecap="round"/></g><g><path d="M241.96945,184.78927c0.56039,-2.08465 2.70462,-3.32031 4.78927,-2.75992c2.08465,0.56039 3.32031,2.70462 2.75992,4.78927c-0.56039,2.08465 -2.70462,3.32031 -4.78927,2.75992c-2.08465,-0.56039 -3.32031,-2.70462 -2.75992,-4.78927z" stroke-linecap="butt"/><path d="M247.4541,186.80328l-1.00475,4.40685c0,0 -2.13836,1.0929 -2.97624,1.23656c-0.79407,0.13614 -2.27481,0.22999 -2.27481,0.22999l2.66251,-5.2204" stroke-linecap="round"/></g><path d="M238.46279,176.08501l3.9826,-5.40518l0.64128,6.64815l-4.44022,-4.93741l6.60554,1.77568z" stroke-linecap="round"/></g></g></g></svg>