<svg version="1.1" xmlns="http://www.w3.org/2000/svg" xmlns:xlink="http://www.w3.org/1999/xlink" width="100.44054" height="269.21886" viewBox="0,0,100.44054,269.21886"><g transform="translate(-190.15964,-37.49273)"><g data-paper-data="{&quot;isPaintingLayer&quot;:true}" fill-rule="nonzero" stroke-linejoin="miter" stroke-miterlimit="10" stroke-dasharray="" stroke-dashoffset="0" style="mix-blend-mode: normal"><path d="M201.54534,304.39159c0,0 -0.63536,-94.38387 -0.79335,-118.01201c-0.05451,-8.15261 8.18688,-36.76129 40.20201,-36.9211c2.44164,-0.01219 4.7439,0.15352 6.91375,0.47314c0.71162,0.28794 1.43116,0.54377 2.18345,0.66797c0.61499,0.10154 1.23676,0.13297 1.86103,0.13846c22.61054,5.74527 28.89749,29.15008 28.89061,35.61716c-0.07659,46.24274 0.65429,117.98648 0.65429,117.98648l-10.49667,0.09614l-0.15882,-114.84311c0,0 0.07549,-3.0993 -2.81625,-3.15415c-3.43441,-0.06514 -2.94538,3.11562 -2.94538,3.11562l0.20548,114.86995l-48.21366,0.07222l-0.30539,-115.23309c0,0 0.27949,-2.919 -2.8856,-2.93443c-3.11083,-0.01515 -2.81569,2.90899 -2.81569,2.90899l0.35311,115.0668z" fill="#ffffff" stroke="#000000" stroke-width="2" stroke-linecap="butt"/><path d="M216.58107,304.40602v-119.20147c0,0 0.75721,-9.73105 0.75721,-14.63937c0,-4.498 -0.75721,-13.6872 -0.75721,-13.6872c0,0 2.67319,-2.35297 4.6557,-3.74807c1.98251,-1.3951 5.17197,-2.80371 5.17197,-2.80371c0,0 -0.6016,40.10902 14.55952,40.03867c14.52234,-0.06739 13.96155,-35.45275 13.8445,-39.63616h0.97894c1.31004,0.54634 3.63111,1.5669 5.17395,2.54404c2.25309,1.42695 4.75379,3.60523 4.75379,3.60523c0,0 -0.75721,9.42463 -0.75721,14.19201c0,4.84193 0.75721,14.63937 0.75721,14.63937v118.69667z" fill="#ffffff" stroke="#000000" stroke-width="2" stroke-linecap="butt"/><g stroke-linecap="butt"><path d="M202.43893,305.3311c0,0 -0.63536,-94.38387 -0.79335,-118.01201c-0.05451,-8.15261 8.18688,-36.76129 40.20201,-36.9211c31.60235,-0.15775 39.85672,29.48704 39.84884,36.89673c-0.07659,46.24274 0.65429,117.98648 0.65429,117.98648l-10.49667,0.09614l-0.15882,-114.84311c0,0 0.07549,-3.0993 -2.81625,-3.15415c-3.43441,-0.06514 -2.94538,3.11562 -2.94538,3.11562l0.20548,114.86995l-48.21366,0.07222l-0.30539,-115.23309c0,0 0.27949,-2.919 -2.8856,-2.93443c-3.11083,-0.01515 -2.81569,2.90899 -2.81569,2.90899l0.35311,115.0668z" fill="#ffffff" stroke="#000000" stroke-width="2"/><path d="M257.0361,201.2733c-0.57113,0 -1.03411,-0.46299 -1.03411,-1.03411c0,-0.57113 0.46299,-1.03413 1.03411,-1.03413c0.57113,0 1.03411,0.463 1.03411,1.03413c0,0.57113 -0.46299,1.03411 -1.03411,1.03411z" fill="#000000" stroke="none" stroke-width="1.5"/><path d="M251.77622,205.5089c-4.4635,-0.31439 -6.55245,-1.79392 -6.16985,-2.58011c0.11788,-0.24224 2.84645,1.06355 6.97038,1.3048c6.40897,0.37493 8.51033,-0.63173 8.51033,-0.63173v1.34616c0,0 -2.4135,1.04672 -9.31086,0.56089z" fill="#000000" stroke="#000000" stroke-width="0"/><path d="M223.96346,200.23919c0,-0.57113 0.46299,-1.03413 1.03411,-1.03413c0.57113,0 1.03413,0.463 1.03413,1.03413c0,0.57113 -0.463,1.03411 -1.03413,1.03411c-0.57113,0 -1.03411,-0.46299 -1.03411,-1.03411z" fill="#000000" stroke="none" stroke-width="1.5"/><path d="M230.25746,205.5089c-6.89736,0.48585 -9.31086,-0.56089 -9.31086,-0.56089v-1.34616c0,0 2.10136,1.00666 8.51033,0.63173c4.12393,-0.24126 6.85251,-1.54704 6.97039,-1.3048c0.3826,0.78618 -1.70634,2.26571 -6.16985,2.58011z" fill="#000000" stroke="#000000" stroke-width="0"/><path d="M241.53792,262.06062c-0.81895,0 -1.48284,-0.66389 -1.48284,-1.48284c0,-0.81895 0.66389,-1.48284 1.48284,-1.48284c0.81895,0 1.48284,0.66389 1.48284,1.48284c0,0.81895 -0.66389,1.48284 -1.48284,1.48284z" data-paper-data="{&quot;index&quot;:null}" fill="#000000" stroke="none" stroke-width="1.5"/><path d="M201.17652,275.03803c0,0 -0.65306,-59.82616 -0.81545,-85.34614c-0.02052,-3.22536 -0.85002,-22.06088 -0.09034,-22.57334c12.49374,-8.42807 20.55898,-17.19455 41.41234,-17.30392c20.27378,-0.10634 37.20394,13.05396 41.37456,17.81894c0.74871,0.85541 0.21603,19.02403 0.21299,22.03202c-0.07871,49.94527 0.67252,85.31857 0.67252,85.31857l-12.98911,0.10383l-0.16325,-81.92353c0,0 0.19757,-1.46947 -1.48041,-1.52096c-1.42322,-0.04367 -1.29884,1.47935 -1.29884,1.47935l0.21121,81.95251l-51.12827,0.07801l-0.3139,-82.34473c0,0 0.63087,-1.60034 -1.39454,-1.59794c-1.81235,0.00215 -1.47983,1.57046 -1.47983,1.57046l0.36295,82.16512z" fill="#66b1ff" stroke="#000000" stroke-width="0"/><g stroke-width="0"><g fill="#000000"><path d="M240.31809,274.60859v-25.61457c0,0 0.82081,-1.49507 1.1912,-2.94645c0.42945,-1.68273 0.77311,-3.65363 0.77311,-3.65363l1.42057,-0.26225c0,0 -0.6179,2.27517 -1.00488,4.15457c-0.32195,1.56359 -1.04428,2.70775 -1.04428,2.70775v25.61458z" stroke="#ff0000"/><path d="M215.41068,171.97681l5.11842,-18.58797h43.01273l5.47762,18.40837l-8.35103,2.89756c0,0 -0.83707,0.36633 -0.35915,1.52294c0.31013,0.75055 1.43025,1.25311 1.43025,1.25311c0,0 12.91102,-4.54703 13.87457,-3.85505c1.33532,0.95899 -30.37196,70.46358 -33.71272,70.45713c-1.80933,-0.00349 -33.74565,-69.05512 -32.47927,-69.75788c1.34344,-0.74552 13.2809,2.83149 13.2809,2.83149c0,0 1.57594,-0.18037 1.65873,-0.81445c0.11071,-0.84799 -0.86535,-1.60508 -0.86535,-1.60508z" stroke="none"/></g><g stroke="#000000"><path d="M227.80265,176.23437c-0.75044,-7.26209 0.94286,-16.34304 0.94286,-16.34304h27.02889c0,0 0.96507,9.97266 0.62858,16.34304c-0.23434,4.43639 -8.45437,40.12885 -8.45437,40.12885l-5.5315,-8.07134l-6.39704,7.52457c0,0 -7.77232,-35.27491 -8.2174,-39.58208z" fill="#ffffff"/><path d="M239.52592,182.51224c0,0 -2.08933,-5.25092 -2.90135,-7.92936c-0.74135,-2.44535 -1.84791,-7.08669 -1.84791,-7.08669l15.78431,-1.4667c0,0 -1.63447,5.89992 -2.60335,8.74749c-0.93921,2.76037 -3.05385,7.66539 -3.05385,7.66539z" fill="#000000"/><path d="M239.53611,182.10111l5.34292,-0.20952c0,0 2.1295,6.08248 2.54266,10.78814c0.56122,6.39193 0.51864,24.07836 0.51864,24.07836l-5.99466,25.16276l-5.8827,-25.91258c0,0 0.23722,-15.4271 0.86508,-21.55675c0.50094,-4.89049 2.60807,-12.3504 2.60807,-12.3504z" fill="#000000"/></g></g><path d="M216.99497,306.71158v-41h51v41z" fill="#4fa4ff" stroke="none" stroke-width="0"/><path d="M270.99497,305.71158v-39h13v39z" fill="#4fa4ff" stroke="none" stroke-width="0"/><path d="M201.49497,306.71158v-39h13v39z" fill="#4fa4ff" stroke="none" stroke-width="0"/><path d="M240.36026,305.8395v-40.4h1.46667v40.4z" fill="#000000" stroke="none" stroke-width="0"/></g><path d="" data-paper-data="{&quot;index&quot;:null}" fill="#000000" stroke="none" stroke-width="1.5" stroke-linecap="butt"/><path d="" fill="#ffffff" stroke="#000000" stroke-width="1.15" stroke-linecap="butt"/><path d="" fill="#ffffff" stroke="#000000" stroke-width="1.3" stroke-linecap="butt"/><path d="M243.38628,149.42241l-2.98167,0.00864c0,0 -0.05861,-0.30457 -0.15047,-0.85418c1.05679,-0.08785 2.11594,-0.10547 3.16708,-0.00187c-0.02241,0.54445 -0.03494,0.84741 -0.03494,0.84741z" fill="#ffffff" stroke="#000000" stroke-width="1.3" stroke-linecap="butt"/><path d="" data-paper-data="{&quot;index&quot;:null}" fill="#ffffff" stroke="#000000" stroke-width="1" stroke-linecap="butt"/><path d="" fill="#ffffff" stroke="#000000" stroke-width="1.4" stroke-linecap="butt"/><path d="" fill="#000000" stroke="none" stroke-width="1.5" stroke-linecap="butt"/><path d="" fill="#ffffff" stroke="#000000" stroke-width="1.4" stroke-linecap="butt"/><path d="" fill="#000000" stroke="none" stroke-width="1.5" stroke-linecap="butt"/><path d="" fill="#ffffff" stroke="#000000" stroke-width="1.15" stroke-linecap="butt"/><path d="" fill="#ffffff" stroke="#000000" stroke-width="1.15" stroke-linecap="butt"/><path d="" fill="#000000" stroke="none" stroke-width="1.5" stroke-linecap="butt"/><path d="" data-paper-data="{&quot;index&quot;:null}" fill="#ffffff" stroke="#000000" stroke-width="1" stroke-linecap="butt"/><path d="M281.03888,90.5739c0,0.90372 1.16234,5.71576 2.92773,10.62386c1.68838,4.69398 3.98325,9.5124 3.98325,9.5124c0,0 -3.37609,-1.60601 -4.68762,-2.55409c-1.3853,-1.00141 -3.41503,-3.30317 -3.41503,-3.30317c0,0 3.43279,10.39935 1.5251,22.11709c-1.00789,6.19085 -7.74354,15.53217 -7.74354,15.53217l-1.04884,-2.70116c0,0 -0.566,2.63603 -1.3535,3.55779c-1.60191,1.87502 -4.01267,2.80358 -4.01267,2.80358l-0.05042,-3.96217c0,0 -6.08242,7.72764 -14.94848,11.33291c-6.63373,2.69752 -15.95849,1.76575 -19.29023,0.76046c-8.71674,-2.63015 -16.85534,-11.48894 -16.85534,-11.48894l0.11532,3.04873c0,0 -4.82584,-5.38747 -6.16474,-8.3366c-1.81151,-3.99013 -3.72169,-13.43973 -3.72169,-13.43973c0,0 -3.36733,1.77032 -5.15219,2.22333c-4.48329,1.1379 -7.24576,0.46998 -7.24576,0.46998c0,0 4.43342,-3.49967 5.80671,-5.02081c1.02216,-1.13221 2.18484,-2.9624 2.18484,-2.9624c0,0 -2.38627,1.32804 -3.6647,1.68979c-1.40328,0.39708 -4.4154,0.59659 -4.4154,0.59659c0,0 5.51989,-6.80185 6.91058,-10.28931c1.53749,-3.85559 1.91827,-11.85088 1.91827,-11.85088c0,0 -1.56277,0.92635 -2.1137,1.00775c-0.96603,0.14273 -3.17386,-0.22652 -3.17386,-0.22652c0,0 2.00204,-1.56428 3.0094,-2.60005c1.14006,-1.17221 3.48224,-4.07465 3.48224,-4.07465c0,0 0.19695,-1.64061 0.19695,-3.60837c0,-9.64973 4.18603,-22.80395 13.84901,-31.01985c1.82659,-1.55305 5.2378,-3.6001 8.37003,-4.89734c4.37135,-1.81042 8.50867,-2.62444 9.77366,-2.70202c7.05972,-0.43297 19.16508,1.08688 20.46065,1.50351c6.08613,1.95715 11.85729,4.17161 15.94557,9.91105c5.70637,8.01104 8.59839,20.56821 8.59839,28.34708z" fill="#000000" stroke="none" stroke-width="0" stroke-linecap="butt"/><g stroke-linecap="butt"><path d="M218.70273,140.25991v-2.39071h45.08199v2.39071c0,0 -2.81816,5.88345 -7.73392,11.56923c-4.59618,5.31613 -11.17646,10.45947 -14.80707,10.45947c-7.51366,0 -22.54099,-22.0287 -22.54099,-22.0287z" fill="#050505" stroke="none" stroke-width="0"/><path d="M265.58348,124.12692c-0.59171,5.33035 -1.24298,13.31493 -3.92509,17.88556c-7.16894,12.2167 -19.56233,18.40621 -20.71049,18.40621c-3.73786,0 -14.12938,-11.56085 -17.2871,-15.2951c-3.01538,-3.56592 -4.09231,-4.44889 -5.05781,-8.54814c-0.78095,-3.31572 -0.7689,-7.18246 -0.99113,-10.4698c-0.27279,-4.03501 5.31279,-4.27425 24.98533,-4.10917c16.42018,0.13779 23.33605,-1.02045 22.98628,2.13043z" fill="#ffffff" stroke="none" stroke-width="0"/><path d="M266.63522,118.93773c0,0.04258 -0.7475,2.26601 -1.09727,5.41688c-0.59171,5.33035 -47.74937,4.12764 -47.97161,0.8403c-0.27279,-4.03501 -0.68129,-6.05862 -0.68129,-6.2572c0,-0.11936 -1.6287,-5.77506 -2.17989,-10.5656c-0.59602,-5.18016 -0.73384,-10.63145 -0.2901,-13.53719c0.02634,-0.17244 -4.14208,-32.91001 27.79507,-35.11077c25.77716,-1.77628 26.54696,19.10729 27.82546,19.80033c0.33417,0.18115 0.69013,15.00804 -0.36013,25.87369c-0.79689,8.2444 -3.04025,13.20744 -3.04025,13.53954z" fill="#2d2945" stroke="#2d2945" stroke-width="0.5"/></g><g><path d="M250.46214,146.09407c0,3.55938 -5.83501,6.44482 -13.03287,6.44482c-7.19786,0 -13.03287,-2.88544 -13.03287,-6.44482c0,-3.55938 7.50167,-3.44483 14.69953,-3.44483c7.19786,0 11.3662,-0.11455 11.3662,3.44483z" fill="#ffffff" stroke="none" stroke-width="NaN" stroke-linecap="butt"/><path d="M242.06771,141.74541c0.24666,0.0234 0.6086,-1.44147 2.34631,-2.08459c1.67939,-0.62153 4.07183,-0.42472 5.53918,-0.25563c1.61805,0.54491 10.03261,4.51373 10.03261,4.51373c0,0 -7.35924,0.71929 -10.57295,1.12073c-2.69313,0.33641 -7.62499,1.1275 -7.62499,1.1275c0,0 -6.19977,-2.51608 -9.39625,-3.21725c-1.49167,-0.32721 -3.67129,0.44356 -5.67569,0.2884c-2.6745,-0.20703 -5.60846,-1.48216 -5.60846,-1.48216c0,0 1.75529,-1.91485 4.49861,-2.84455c3.16904,-1.07398 4.87791,-1.37334 5.85897,-1.50033c2.33124,-0.30176 4.92173,1.04008 7.54889,1.88859c2.81497,0.90917 2.80847,2.42228 3.05375,2.44555z" fill="#ffffff" stroke="#000000" stroke-width="1.25" stroke-linecap="butt"/><path d="M253.92251,145.95313c0,0 -6.04153,0.80907 -12.99029,0.48593c-5.33676,-0.24817 -17.00971,-3.48593 -17.00971,-3.48593" fill="none" stroke="#000000" stroke-width="0.5" stroke-linecap="round"/><path d="M239.20193,155.76178c-16.27509,-0.67326 -18.7577,-13.83667 -18.7577,-13.83667c0,0 2.63751,0.0264 5.05334,1.29455c2.12793,1.11702 2.74938,4.39976 5.93042,4.77196c3.18105,0.3722 5.86932,-1.60029 10.21875,-1.41644c4.34943,0.18384 6.71999,-1.38841 9.35172,-1.66431c2.04031,-0.2139 9.09913,-0.52901 9.09913,-0.52901c0,0 -6.27707,11.75425 -20.89566,11.37992z" fill="#ffffff" stroke="#000000" stroke-width="1.9" stroke-linecap="butt"/></g><g stroke-linecap="butt"><g stroke="none" stroke-width="0"><path d="M246.74111,132.64152c0,0.78981 -0.3804,2.27525 -1.0964,3.3846c-1.43491,2.22324 -3.74645,4.11399 -3.74645,4.11399c0,0 -2.06298,-0.84657 -3.4836,-2.93642c-0.84341,-1.2407 -0.96869,-4.38131 -0.96869,-5.26517c0,-2.37266 1.77766,-3.59308 4.45229,-3.59308c2.67463,0 4.84285,1.92341 4.84285,4.29606z" fill="#000000"/><path d="M242.83558,132.21191c0,1.31574 -1.48409,5.19433 -1.48409,5.19433c0,0 -0.09323,-0.19554 -0.96737,-1.39156c-0.28201,-0.38584 0.2168,2.34329 -0.0814,1.9149c-0.54999,-0.79015 -1.84133,-4.72359 -1.84133,-5.13185c0,-1.31574 0.84978,-2.14804 2.18709,-2.14804c1.33732,0 2.18709,0.24647 2.18709,1.56221z" fill="#ffffff"/></g><g><path d="M240.68571,143.71472c0,0 -0.94769,-5.82712 -1.26619,-10.32472c-0.47584,-6.71942 -1.31145,-26.07469 -1.31145,-26.07469h8.27971c0,0 -0.75384,12.74528 -0.96681,18.89491c-0.20314,5.86597 -0.5954,17.73882 -0.5954,17.73882z" fill="#000000" stroke="none" stroke-width="0"/><path d="M244.31148,127.48029c-0.154,6.97524 -0.25586,14.86753 -0.25586,14.86753l-2.67807,-0.13389c0,0 -0.63198,-9.92274 -0.91747,-14.40517c-0.24988,-3.92347 3.91302,-3.1196 3.8514,-0.32847z" fill="#ffffff" stroke="none" stroke-width="0"/><path d="M239.75717,116.77226c0,0 -0.47551,-7.44116 -0.69676,-9.70283c-0.13112,-1.34027 0.17468,-2.61627 0.17468,-2.61627c0,0 -0.86323,-2.31874 3.07978,-2.27635c2.93803,0.03158 3.21369,2.27635 3.21369,2.27635c0,0 -0.78972,9.98267 -1.01035,15.65866c-0.07903,2.03327 -0.21625,7.80377 -0.21625,7.80377l-3.8628,0.11113z" fill="#2d2945" stroke="#2d2945" stroke-width="0.5"/></g></g><path d="M262.7042,93.36042c0,0 1.55484,0.33423 4.3411,1.16672c2.54492,0.76039 4.53852,1.83268 4.53852,1.83268l0.19902,1.22984c0,0 -7.39493,-3.28906 -15.41875,-2.59617c-6.41566,0.55404 -10.16287,2.95535 -10.16287,2.95535l0.04667,-4.38913c0,0 3.19016,-1.79083 8.02127,-1.94988c5.00257,-0.16468 8.253,0.62131 8.253,0.62131z" data-paper-data="{&quot;index&quot;:null}" fill="#000000" stroke="none" stroke-width="1.5" stroke-linecap="butt"/><path d="M221.80242,97.6649c0,0 3.43717,-1.91146 8.19343,-2.39776c5.27053,-0.53889 7.92392,-0.06965 7.92392,-0.06965l0.301,4.34777c0,0 -3.91242,-0.71525 -8.17865,-0.54762c-5.70557,0.22417 -6.77806,1.50577 -11.11615,1.98731c-3.71712,0.41262 -6.87226,0.16692 -6.87226,0.16692l-0.02641,-1.29415c0,0 3.66723,0.07774 5.33861,-0.07183c1.37949,-0.12346 4.05538,-0.98576 4.05538,-0.98576z" fill="#000000" stroke="none" stroke-width="1.5" stroke-linecap="butt"/><g stroke="none" stroke-width="0" stroke-linecap="butt"><path d="M239.07462,108.08312c0,5.71888 -4.35435,10.25294 -10.35495,10.25294c-6.0006,0 -10.45698,-3.92194 -10.45698,-9.64083c0,-5.71888 4.45638,-10.0489 10.45698,-10.0489c6.0006,0 10.35495,3.7179 10.35495,9.43679z" fill="#000000"/><path d="M237.54433,108.33816c0,4.84556 -3.62505,8.67164 -8.9777,8.67164c-5.35265,0 -9.07972,-3.82608 -9.07972,-8.67164c0,-4.84556 3.72707,-8.56962 9.07972,-8.56962c5.35265,0 8.9777,3.72407 8.9777,8.56962z" fill="#ffffff"/><path d="M233.15752,109.99041c0,2.45095 -2.16959,4.43784 -4.84592,4.43784c-2.67633,0 -4.84591,-1.98689 -4.84591,-4.43784c0,-2.45095 2.16959,-4.43784 4.84591,-4.43784c2.67633,0 4.84592,1.98689 4.84592,4.43784z" fill="#2ba3ff"/><path d="M265.59534,108.31079c0,5.71888 -4.35435,10.25294 -10.35495,10.25294c-6.0006,0 -10.45697,-3.92194 -10.45697,-9.64083c0,-5.71888 4.45637,-10.0489 10.45697,-10.0489c6.0006,0 10.35495,3.7179 10.35495,9.43679z" fill="#000000"/><path d="M264.06506,108.56584c0,4.84556 -3.62505,8.67164 -8.9777,8.67164c-5.35265,0 -9.07972,-3.82608 -9.07972,-8.67164c0,-4.84556 3.72707,-8.56962 9.07972,-8.56962c5.35265,0 8.9777,3.72407 8.9777,8.56962z" fill="#ffffff"/><path d="M259.67823,110.2181c0,2.45095 -2.16959,4.43784 -4.84592,4.43784c-2.67633,0 -4.84591,-1.98689 -4.84591,-4.43784c0,-2.45095 2.16959,-4.43783 4.84591,-4.43783c2.67633,0 4.84592,1.98689 4.84592,4.43783z" fill="#2ba3ff"/></g><g fill="#020202" stroke="none" stroke-width="0" stroke-linecap="butt"><path d="M218.77278,110.37111c0,0 0.3996,-5.43045 1.43069,-6.9955c0.82868,-1.25782 3.74976,-3.96802 5.67296,-4.21479c8.7543,-1.12332 9.93357,2.03598 9.93357,2.03598c0,0 2.12804,3.21478 2.70988,4.56616c0.41454,0.96281 0.45272,4.60814 0.45272,4.60814c0,0 0.69666,-0.10202 -10.30395,-0.20403c-10.82917,-0.10043 -9.89587,0.20403 -9.89587,0.20403z"/><path d="M246.89567,103.60331c0.53037,-0.71996 2.21201,-3.00771 4.89128,-4.08608c2.00161,-0.80562 5.04294,-0.57406 5.96275,-0.47024c0.17802,0.0201 1.22685,0.28321 2.91938,0.6773c0.82482,0.19205 2.50147,0.65917 3.67745,1.70021c1.17598,1.04105 2.37952,3.21478 3.03012,4.56616c0.65061,1.35138 0.50623,4.60814 0.50623,4.60814c0,0 0.77899,-0.10202 -11.52164,-0.20403c-12.10892,-0.10043 -11.06533,0.20403 -11.06533,0.20403c0,0 0.44681,-5.43045 1.59976,-6.9955z"/></g><g stroke="#000000"><path d="M270.72459,108.73645c1.05003,-6.28266 1.8272,-9.05269 3.80743,-8.78038c1.98022,0.27231 1.81209,4.46506 0.48975,10.49979c-1.25675,5.73539 -6.28771,9.4312 -6.28771,9.4312c0,0 0.94051,-4.86796 1.99054,-11.15062z" data-paper-data="{&quot;index&quot;:null}" fill="#2d2945" stroke-width="1" stroke-linecap="butt"/><path d="M271.14542,104.46267c0,0 2.62921,-0.84394 2.19998,2.39605c-0.76942,5.80816 -4.40471,8.88013 -4.40471,8.88013" data-paper-data="{&quot;index&quot;:null}" fill="none" stroke-width="0.25" stroke-linecap="round"/></g><g stroke="#000000"><path d="M215.40447,119.88706c0,0 -5.03096,-3.69582 -6.28772,-9.4312c-1.32234,-6.03474 -1.49046,-10.22749 0.48976,-10.49979c1.98022,-0.27232 2.75738,2.49774 3.80743,8.78039c1.05003,6.28266 1.99054,11.15062 1.99054,11.15062z" data-paper-data="{&quot;index&quot;:null}" fill="#2d2945" stroke-width="1" stroke-linecap="butt"/><path d="M215.19782,115.73886c0,0 -3.63528,-3.07197 -4.40471,-8.88013c-0.42923,-3.23999 2.19998,-2.39605 2.19998,-2.39605" fill="none" stroke-width="0.25" stroke-linecap="round"/></g><path d="M247.46509,81.65434c0,5.62553 -32.81522,13.05632 -32.81522,13.05632c0,0 -7.48365,-16.75709 -0.33289,-28.33491c3.95312,-6.40053 21.8121,-10.92037 26.45323,-10.856c5.03973,0.06991 23.10113,2.19328 29.62303,9.54642c6.21873,7.01133 1.97219,19.22538 0.95511,20.97989c-0.74155,1.27922 -0.53198,-3.14582 -2.01167,-4.31634c-1.50629,-1.19155 -5.63578,0.87108 -7.72899,2.2238c-4.86721,3.14537 -21.67001,7.5656 -21.67001,7.5656c0,0 3.0369,-2.63359 4.83888,-5.19982c1.95545,-2.7848 2.68854,-5.49028 2.68854,-4.66496z" fill="#000000" stroke="none" stroke-width="0" stroke-linecap="butt"/><g><path d="M202.13736,86.06592c0,0 2.66761,-16.20881 4.51516,-23.45692c1.75922,-6.90157 6.31817,-19.04308 6.31817,-19.04308c0,0 2.93778,-5.86435 11.33906,-5.63451c1.39981,0.03829 6.35357,0.34868 10.46675,1.11549c3.80193,0.70878 6.81286,1.88035 7.35204,1.87052c6.28372,-0.11453 9.40189,-4.34187 14.68745,-3.24235c8.21686,1.70929 10.98804,8.22417 10.98804,8.22417c0,0 5.36216,12.33504 7.08942,18.64218c1.91915,7.00781 3.91058,21.52449 3.91058,21.52449z" fill="#000000" stroke="none" stroke-width="0" stroke-linecap="butt"/><path d="M290.59381,87.28319c0,2.34721 1.71717,5.10175 -51.25,4.58334c-38.21508,-0.37403 -47.01031,-0.31549 -48.8839,-1.6065c-0.52758,-0.36353 -0.19943,-1.29443 -0.19943,-1.81016c0,-2.34721 20.77874,-5.41667 49.08333,-5.41667c28.3046,0 51.25,1.90279 51.25,4.25z" fill="#000000" stroke="none" stroke-width="0" stroke-linecap="butt"/><path d="M202.54065,84.57263c0,0 17.72984,-2.30668 27.1557,-2.56563c10.64719,-0.29251 33.01096,0.39896 33.01096,0.39896" fill="none" stroke="#ffffff" stroke-width="1.5" stroke-linecap="round"/></g></g></g></svg>