<svg version="1.1" xmlns="http://www.w3.org/2000/svg" xmlns:xlink="http://www.w3.org/1999/xlink" width="112.13467" height="303.51397" viewBox="0,0,112.13467,303.51397"><defs><linearGradient x1="240" y1="137.75445" x2="240" y2="319.20175" gradientUnits="userSpaceOnUse" id="color-1"><stop offset="0" stop-color="#53d06d"/><stop offset="1" stop-color="#6effd8"/></linearGradient></defs><g transform="translate(-183.93268,-16.68778)"><g data-paper-data="{&quot;isPaintingLayer&quot;:true}" fill-rule="nonzero" stroke-linejoin="miter" stroke-miterlimit="10" stroke-dasharray="" stroke-dashoffset="0" style="mix-blend-mode: normal"><path d="M200.89469,174.67617c-0.05451,-8.15261 8.18688,-36.76129 40.20201,-36.9211c31.60235,-0.15775 39.85672,29.48704 39.84884,36.89673c-0.00373,2.25092 14.36885,102.2299 14.11857,119.39687c-0.60106,41.22691 -16.41072,19.60738 -18.41755,18.55939c-1.02297,-0.53421 -0.9913,-35.76742 -2.18176,-70.06317c-1.13696,-32.75433 -3.52046,-64.65358 -3.52046,-64.65358c0,0 0.07549,-3.0993 -2.81625,-3.15415c-3.43441,-0.06514 -2.94538,3.11562 -2.94538,3.11562l0.20548,114.86995l-48.21366,0.07222l-0.30539,-115.23309c0,0 0.27949,-2.919 -2.8856,-2.93443c-3.11083,-0.01515 -2.81569,2.90899 -2.81569,2.90899c0,0 -0.61681,39.35193 -1.31447,75.00886c-0.36674,18.74412 0.32967,35.01984 -1.26871,47.15498c-0.76459,5.80487 -7.04215,7.75529 -7.04215,7.75529c0,0 -3.32686,-7.49326 -4.61199,-2.64074c-0.63184,2.38577 -2.42306,1.55566 -2.42306,1.55566c0,0 -9.31458,0.73769 -9.5144,0.58025c-1.20222,-0.94725 15.94183,-126.25879 15.90161,-132.27454z" fill="url(#color-1)" stroke="#000000" stroke-width="2" stroke-linecap="butt"/><path d="M238.48811,196.70824c0,5.56613 -3.8759,10.07835 -8.65705,10.07835c-4.78116,0 -8.65706,-4.51223 -8.65706,-10.07835c0,-5.56612 3.8759,-10.07836 8.65706,-10.07836c4.78116,0 8.65705,4.51224 8.65705,10.07836z" fill="#000000" stroke="#000000" stroke-width="1.15" stroke-linecap="butt"/><path d="M258.98811,206.03659c0,4.09062 -2.84845,7.40672 -6.36218,7.40672c-3.51373,0 -6.36218,-3.3161 -6.36218,-7.40672c0,-4.09062 2.84845,-7.40672 6.36218,-7.40672c3.51373,0 6.36218,3.3161 6.36218,7.40672z" fill="#ffffff" stroke="#ffffff" stroke-width="1.15" stroke-linecap="butt"/><path d="M261.59067,178.02414c0,6.75312 -4.70245,12.22761 -10.50321,12.22761c-5.80076,0 -10.5032,-5.47449 -10.5032,-12.22761c0,-6.75312 4.70245,-12.22761 10.5032,-12.22761c5.80075,0 10.50321,5.47449 10.50321,12.22761z" fill="#000000" stroke="#000000" stroke-width="1.15" stroke-linecap="butt"/><path d="M249.48811,231.4321c0,9.55577 -6.65403,17.30223 -14.86218,17.30223c-8.20816,0 -14.86218,-7.74647 -14.86218,-17.30223c0,-9.55577 6.65403,-17.30224 14.86218,-17.30224c8.20816,0 14.86218,7.74647 14.86218,17.30224z" fill="#000000" stroke="#000000" stroke-width="1.15" stroke-linecap="butt"/><path d="M240.60348,275.9694c0,6.53881 -4.55322,11.83955 -10.16988,11.83955c-5.61666,0 -10.16987,-5.30074 -10.16987,-11.83955c0,-6.53881 4.55321,-11.83955 10.16987,-11.83955c5.61666,0 10.16988,5.30074 10.16988,11.83955z" fill="#ffffff" stroke="#ffffff" stroke-width="1.15" stroke-linecap="butt"/><path d="M260.59067,263.4694c0,4.60581 -3.2072,8.33955 -7.16346,8.33955c-3.95627,0 -7.16346,-3.73374 -7.16346,-8.33955c0,-4.60581 3.2072,-8.33955 7.16346,-8.33955c3.95626,0 7.16346,3.73374 7.16346,8.33955z" fill="#000000" stroke="#000000" stroke-width="1.15" stroke-linecap="butt"/><path d="M261.98811,234.49925c0,2.96544 -2.06495,5.36941 -4.61219,5.36941c-2.54724,0 -4.61218,-2.40396 -4.61218,-5.3694c0,-2.96544 2.06494,-5.3694 4.61218,-5.3694c2.54724,0 4.61219,2.40396 4.61219,5.36941z" fill="#000000" stroke="#000000" stroke-width="1.15" stroke-linecap="butt"/><path d="M235.50093,171.49925c0,4.89844 -3.41097,8.86941 -7.61859,8.86941c-4.20763,0 -7.61859,-3.97097 -7.61859,-8.8694c0,-4.89844 3.41096,-8.8694 7.61859,-8.8694c4.20763,0 7.61859,3.97097 7.61859,8.86941z" fill="#000000" stroke="#000000" stroke-width="1.15" stroke-linecap="butt"/><path d="M264.09067,157.74801c0,2.73463 -1.90423,4.95149 -4.25321,4.95149c-2.34898,0 -4.2532,-2.21686 -4.2532,-4.95149c0,-2.73463 1.90422,-4.95149 4.2532,-4.95149c2.34898,0 4.25321,2.21686 4.25321,4.95149z" fill="#000000" stroke="#000000" stroke-width="1.15" stroke-linecap="butt"/><path d="M242.65478,158.74801c0,1.63006 -1.13508,2.95149 -2.53526,2.95149c-1.40018,0 -2.53526,-1.32144 -2.53526,-2.95149c0,-1.63006 1.13507,-2.95149 2.53526,-2.95149c1.40018,0 2.53526,1.32143 2.53526,2.95149z" fill="#000000" stroke="#000000" stroke-width="1.15" stroke-linecap="butt"/><path d="M226.09068,153.24801c0,2.73463 -1.90422,4.95149 -4.25321,4.95149c-2.34898,0 -4.2532,-2.21686 -4.2532,-4.95149c0,-2.73463 1.90422,-4.95149 4.2532,-4.95149c2.34898,0 4.25321,2.21686 4.25321,4.95149z" fill="#ffffff" stroke="#ffffff" stroke-width="1.15" stroke-linecap="butt"/><g><path d="M281.47165,90.41582c0,0 -1.13608,0.0652 -2.37648,-0.09444c-1.95686,-0.25185 -3.27618,-0.99432 -3.27618,-0.99432c0,0 -0.1697,5.4459 1.43578,11.0639c1.70043,5.95026 6.36283,11.27811 6.36283,11.27811c0,0 -1.81094,-0.08378 -3.99077,-0.77275c-2.0892,-0.66031 -4.12761,-1.87002 -4.12761,-1.87002c0,0 0.79159,1.59941 2.43831,3.53053c1.84876,2.16804 5.28645,5.09765 5.28645,5.09765c0,0 -2.75421,0.58661 -6.91324,-0.76315c-3.31909,-1.07715 -5.5395,-3.11379 -5.5395,-3.11379c0,0 -0.79006,4.55825 -3.97118,12.02584c-2.669,6.26537 -6.75506,9.3175 -6.75506,9.3175l0.04395,-2.65702c0,0 -10.37527,9.81248 -26.66729,9.0851c-17.26797,-0.89555 -23.65146,-12.31883 -23.65146,-12.31883l-0.31504,3.69194c0,0 -2.19004,-1.91335 -3.257,-3.11462c-1.06695,-1.20127 -1.95534,-3.45682 -1.95534,-3.45682l-1.29454,2.27349c0,0 -5.25852,-8.07592 -6.24681,-17.63381c-1.1536,-10.43534 2.55533,-20.5784 2.55533,-20.5784c0,0 -2.70136,1.97897 -3.98405,2.91111c-1.37525,0.99942 -4.2611,2.88249 -4.2611,2.88249c0,0 3.18505,-7.84167 7.19376,-16.99764c2.92359,-6.67757 -0.50296,-43.21271 43.99725,-39.61157c35.98549,3.57514 33.19862,41.37844 33.39775,43.66522c0.07593,0.8719 5.87126,7.15433 5.87126,7.15433z" data-paper-data="{&quot;index&quot;:null}" fill="#000000" stroke="none" stroke-width="1.5" stroke-linecap="butt"/><path d="M208.94038,101.38765c-0.13666,-7.31475 1.36789,-17.10313 1.36789,-17.10313c0,0 3.40688,0.16432 14.07845,-2.30024c8.19856,-1.89345 21.08155,-8.23209 21.08155,-8.23209c0,0 -2.33717,2.86944 -3.67033,4.24674c-1.4173,1.46423 -4.26057,4.31413 -4.26057,4.31413c0,0 7.92423,-1.19237 14.93303,-3.83662c8.76582,-3.01311 10.93795,-5.40394 13.20359,-3.80414c2.67401,1.88814 -0.36848,23.20265 -1.01437,28.7317c-0.76241,5.63353 -3.10099,9.32982 -3.8989,12.30799c-0.79791,2.97819 -0.77856,6.1008 -3.16854,15.87765c-1.49151,6.10143 -4.69194,8.65772 -10.88449,14.03055c-6.19253,5.37284 -9.59478,8.69048 -13.55155,8.52078c-3.80785,-0.16332 -8.61215,-5.62928 -13.2846,-11.20314c-4.97539,-5.93526 -8.34806,-8.99641 -8.78575,-15.69758c-0.3942,-6.0351 -0.17817,-9.93731 -0.20197,-15.28829c-0.01739,-3.91089 -1.8688,-6.56957 -1.94343,-10.56429z" fill="#53d06d" stroke="#000000" stroke-width="1.5" stroke-linecap="butt"/><path d="M265.45777,100.23543c0,0 2.62125,-0.64636 2.01546,2.40595c-1.08593,5.47175 -4.81944,8.17511 -4.81944,8.17511" data-paper-data="{&quot;index&quot;:null}" fill="none" stroke="#000000" stroke-width="0.25" stroke-linecap="round"/><path d="M238.04331,104.10588c-0.51002,8.45025 -6.8077,14.94537 -14.06623,14.50727c-7.25854,-0.4381 -12.7293,-7.64353 -12.21928,-16.09376c0.51002,-8.45025 6.8077,-14.94537 14.06623,-14.50727c7.25854,0.4381 12.7293,7.64353 12.21928,16.09376z" fill="#000000" stroke="#000000" stroke-width="1.15" stroke-linecap="butt"/><path d="M247.10654,136.52667c-0.34862,5.77611 -4.65336,10.21583 -9.61489,9.91636c-4.96153,-0.29946 -8.70104,-5.22469 -8.35241,-11.0008c0.34862,-5.77611 4.65336,-10.21583 9.61489,-9.91636c4.96153,0.29946 8.70104,5.22469 8.35241,11.0008z" fill="#000000" stroke="#000000" stroke-width="1.15" stroke-linecap="butt"/><path d="M257.90899,112.46715c-0.34862,5.77611 -4.65336,10.21583 -9.61489,9.91636c-4.96153,-0.29946 -8.70104,-5.22467 -8.35241,-11.0008c0.34862,-5.77611 4.65336,-10.21583 9.61489,-9.91637c4.96154,0.29946 8.70104,5.22469 8.35242,11.00081z" fill="#000000" stroke="#000000" stroke-width="1.15" stroke-linecap="butt"/><path d="M225.15128,129.58936c-0.20659,3.42288 -2.75754,6.05381 -5.69771,5.87636c-2.94017,-0.17745 -5.15618,-3.09611 -4.94959,-6.51899c0.20659,-3.42288 2.75755,-6.05383 5.69772,-5.87637c2.94017,0.17745 5.15617,3.09611 4.94958,6.51899z" fill="#000000" stroke="#000000" stroke-width="1.15" stroke-linecap="butt"/><path d="M253.14099,91.87384c-0.20659,3.42288 -2.75755,6.05383 -5.69771,5.87637c-2.94017,-0.17745 -5.15618,-3.09611 -4.94959,-6.519c0.20659,-3.42288 2.75755,-6.05383 5.69772,-5.87637c2.94017,0.17745 5.15617,3.09611 4.94958,6.51899z" fill="#ffffff" stroke="#ffffff" stroke-width="1.15" stroke-linecap="butt"/><g data-paper-data="{&quot;index&quot;:null}" stroke-width="2.5" stroke-linecap="butt"><path d="M273.67857,64.29438l-67.33262,4.4012c0,0 -2.50286,11.37699 -4.46103,19.13039c-2.28121,9.03241 -8.40564,31.81511 -8.40564,31.81511c0,0 -22.86382,-83.96551 12.05681,-98.79777c9.14364,-3.88368 22.68507,-2.50049 29.48273,-2.90777c37.59873,-2.25267 38.65974,46.35882 38.65974,46.35882z" fill="#ff0000" stroke="#f7f7f7"/><path d="M206.34598,68.69559c0,0 1.6639,-8.88142 7.35053,-18.95534c2.13139,-3.77576 8.18828,-7.82709 8.18828,-7.82709c0,0 -4.79896,8.9251 -6.23062,13.15192c-1.49146,4.4034 -4.81539,12.90604 -4.81539,12.90604z" fill="#f00000" stroke="#f7f7f7"/><path d="M186.98933,112.46769c0.23931,-3.96505 3.64763,-6.98536 7.61267,-6.74603c3.96505,0.23931 6.98536,3.64763 6.74603,7.61267c-0.23931,3.96505 -5.89773,20.02003 -9.86278,19.78071c-3.96505,-0.23931 -4.73525,-16.6823 -4.49593,-20.64734z" fill="#f0f0f0" stroke="#000000"/></g></g></g></g></svg>