<svg version="1.1" xmlns="http://www.w3.org/2000/svg" xmlns:xlink="http://www.w3.org/1999/xlink" width="169.86938" height="286.48606" viewBox="0,0,169.86938,286.48606"><defs><linearGradient x1="240.41495" y1="135.93211" x2="240.41495" y2="167.39515" gradientUnits="userSpaceOnUse" id="color-1"><stop offset="0" stop-color="#a25656"/><stop offset="1" stop-color="#790000"/></linearGradient><linearGradient x1="240.96931" y1="-27.48605" x2="240.96931" y2="52.16018" gradientUnits="userSpaceOnUse" id="color-2"><stop offset="0" stop-color="#a25656"/><stop offset="1" stop-color="#790000"/></linearGradient><linearGradient x1="239.45607" y1="36.32585" x2="239.45607" y2="79.93677" gradientUnits="userSpaceOnUse" id="color-3"><stop offset="0" stop-color="#ff8888"/><stop offset="1" stop-color="#790000"/></linearGradient><linearGradient x1="239.86608" y1="58.97113" x2="239.86608" y2="151.3283" gradientUnits="userSpaceOnUse" id="color-4"><stop offset="0" stop-color="#ff8888"/><stop offset="1" stop-color="#790000"/></linearGradient><linearGradient x1="240.00784" y1="100.14416" x2="240.00784" y2="115.9241" gradientUnits="userSpaceOnUse" id="color-5"><stop offset="0" stop-color="#ff8888"/><stop offset="1" stop-color="#790000"/></linearGradient><linearGradient x1="240.69191" y1="90.82258" x2="240.69191" y2="108.14706" gradientUnits="userSpaceOnUse" id="color-6"><stop offset="0" stop-color="#a25656"/><stop offset="1" stop-color="#790000"/></linearGradient><linearGradient x1="238.26037" y1="165.57757" x2="238.26037" y2="245.91547" gradientUnits="userSpaceOnUse" id="color-7"><stop offset="0" stop-color="#7d0000"/><stop offset="1" stop-color="#a58f8f"/></linearGradient><radialGradient cx="238.04171" cy="227.69507" r="29.40529" gradientUnits="userSpaceOnUse" id="color-8"><stop offset="0" stop-color="#ffffff"/><stop offset="1" stop-color="#ffb4b4"/></radialGradient><radialGradient cx="238.8677" cy="198.78562" r="26.14846" gradientUnits="userSpaceOnUse" id="color-9"><stop offset="0" stop-color="#ffffff"/><stop offset="1" stop-color="#ffb4b4"/></radialGradient></defs><g transform="translate(-150.47478,40.57059)"><g data-paper-data="{&quot;isPaintingLayer&quot;:true}" fill-rule="nonzero" stroke-linejoin="miter" stroke-miterlimit="10" stroke-dasharray="" stroke-dashoffset="0" style="mix-blend-mode: normal"><path d="M224.68343,151.66363c0,-8.68828 7.04324,-15.73152 15.73152,-15.73152c8.68828,0 15.73152,7.04324 15.73152,15.73152c0,8.68828 -7.04324,15.73152 -15.73152,15.73152c-8.68828,0 -15.73152,-7.04324 -15.73152,-15.73152z" fill="url(#color-1)" stroke="none" stroke-width="0.5" stroke-linecap="butt"/><path d="M227.42614,52.16018v-79.64623h27.08635v79.64623z" fill="url(#color-2)" stroke="#7d7d7d" stroke-width="0" stroke-linecap="butt"/><path d="M204.79587,79.93677v-43.61092h69.32042v43.61092z" fill="url(#color-3)" stroke="none" stroke-width="0" stroke-linecap="butt"/><path d="M215.07964,90.41101v-1.33309h0.19044v1.33309z" fill="#7d7d7d" stroke="none" stroke-width="0" stroke-linecap="butt"/><path d="M285.31457,105.14971c0,25.50373 -20.34798,46.17859 -45.44849,46.17859c-25.10051,0 -45.44849,-20.67486 -45.44849,-46.17859c0,-25.50373 20.34798,-46.17858 45.44849,-46.17858c25.10051,0 45.44849,20.67485 45.44849,46.17858z" fill="url(#color-4)" stroke="none" stroke-width="NaN" stroke-linecap="butt"/><path d="M187.87228,37.85047h2.56607" fill="none" stroke="#7d7d7d" stroke-width="0.5" stroke-linecap="round"/><path d="M215.73624,38.9468l-26.51612,-72.70548" fill="none" stroke="#000000" stroke-width="4.5" stroke-linecap="round"/><path d="M152.72478,-38.32059l55.02808,79.83347" fill="none" stroke="#000000" stroke-width="4.5" stroke-linecap="round"/><path d="M281.88393,-37.46525l-14.82622,75.84181" fill="none" stroke="#000000" stroke-width="4.5" stroke-linecap="round"/><path d="M271.90479,42.36823l46.18937,-75.8418" fill="none" stroke="#000000" stroke-width="4.5" stroke-linecap="round"/><path d="M268.5257,105.54958c0,0 -12.39177,13.79231 -27.67779,13.79231c-15.28602,0 -27.67778,-13.7923 -27.67778,-13.7923c0,0 12.39176,-13.7923 27.67779,-13.7923c15.28602,0 27.67779,13.7923 27.67779,13.7923z" fill="#7f7f7f" stroke="none" stroke-width="0" stroke-linecap="butt"/><path d="M248.81362,108.03413c0,4.35752 -3.94248,7.88997 -8.80577,7.88997c-4.86329,0 -8.80578,-3.53246 -8.80578,-7.88997c0,-4.35752 3.94248,-7.88997 8.80578,-7.88997c4.86329,0 8.80577,3.53246 8.80577,7.88997z" fill="url(#color-5)" stroke="#000000" stroke-width="2" stroke-linecap="butt"/><path d="M243.78066,108.1376c0,1.82199 -1.64846,3.299 -3.68193,3.299c-2.03347,0 -3.68192,-1.47701 -3.68192,-3.299c0,-1.82199 1.64845,-3.299 3.68192,-3.299c2.03347,0 3.68193,1.47701 3.68193,3.299z" fill="#8c8c8c" stroke="#000000" stroke-width="2" stroke-linecap="butt"/><path d="M212.93421,105.13886c4.7866,-8.55546 13.16942,-14.02891 27.28241,-14.30822c19.80709,-0.39201 28.2573,13.64462 28.2573,15.2283c0,1.58368 -22.14582,1.80554 -29.15545,2.05149c-9.27949,0.32559 -27.1575,-1.58949 -26.38426,-2.97156z" fill="url(#color-6)" stroke="none" stroke-width="0.5" stroke-linecap="butt"/><path d="M242.53599,79.86829c-0.51674,1.28037 -0.94973,1.80205 -2.32966,1.7557c-2.075,-0.0697 -2.42218,-2.25111 -2.30695,-3.627c0.12062,-1.44024 0.93923,-17.9791 2.2196,-17.46236c1.28036,0.51675 2.93376,18.0533 2.41701,19.33366z" data-paper-data="{&quot;index&quot;:null}" fill="#2d2d2d" stroke="none" stroke-width="0.5" stroke-linecap="butt"/><path d="M252.49967,81.28494c-0.9081,1.04005 -1.48824,1.39087 -2.77663,0.89448c-1.93735,-0.74641 -1.54986,-2.92103 -0.98973,-4.18302c0.58632,-1.32101 6.78417,-16.67648 7.82422,-15.76838c1.04005,0.9081 -3.14976,18.01686 -4.05786,19.05692z" data-paper-data="{&quot;index&quot;:null}" fill="#2d2d2d" stroke="none" stroke-width="0.5" stroke-linecap="butt"/><path d="M224.10952,63.24105c1.04005,-0.9081 7.2379,14.44737 7.82422,15.76838c0.56013,1.26199 0.94762,3.43661 -0.98973,4.18302c-1.2884,0.49639 -1.86853,0.14557 -2.77663,-0.89448c-0.9081,-1.04005 -5.09792,-18.14882 -4.05786,-19.05692z" data-paper-data="{&quot;index&quot;:null}" fill="#2d2d2d" stroke="none" stroke-width="0.5" stroke-linecap="butt"/><path d="M237.03009,86.75524c0,-1.89187 1.53367,-3.42554 3.42555,-3.42554c1.89187,0 3.42554,1.53367 3.42554,3.42554c0,1.89187 -1.53367,3.42554 -3.42554,3.42554c-1.89187,0 -3.42555,-1.53367 -3.42555,-3.42554z" fill="#2d2d2d" stroke="none" stroke-width="0.5" stroke-linecap="butt"/><path d="M245.73227,86.91392c0,-1.89187 1.53368,-3.42554 3.42555,-3.42554c1.89187,0 3.42554,1.53367 3.42554,3.42554c0,1.89187 -1.53367,3.42554 -3.42554,3.42554c-1.89187,0 -3.42555,-1.53367 -3.42555,-3.42554z" fill="#2d2d2d" stroke="none" stroke-width="0.5" stroke-linecap="butt"/><path d="M228.09199,87.49977c0,-1.89187 1.53368,-3.42554 3.42555,-3.42554c1.89187,0 3.42554,1.53367 3.42554,3.42554c0,1.89187 -1.53367,3.42554 -3.42554,3.42554c-1.89187,0 -3.42555,-1.53367 -3.42555,-3.42554z" fill="#2d2d2d" stroke="none" stroke-width="0.5" stroke-linecap="butt"/><path d="M249.35865,167.51811c0,4.65191 -4.2021,8.42303 -9.38566,8.42303c-5.18356,0 -9.38566,-3.77112 -9.38566,-8.42303c0,-4.65191 4.2021,-8.42303 9.38566,-8.42303c5.18356,0 9.38566,3.77112 9.38566,8.42303z" fill="#ff0000" stroke="#3a0000" stroke-width="2.5" stroke-linecap="butt"/><path d="M261.95845,141.1923l0.09072,0.81649" fill="none" stroke="none" stroke-width="0" stroke-linecap="round"/><path d="M276.50347,245.91545l-76.48619,-0.38778c0,0 3.67021,-2.20767 4.99352,-6.77171c3.84554,-13.26313 9.22188,-41.90658 14.95375,-58.57303c2.67432,-7.77605 11.3148,-14.16948 20.2441,-14.59225c9.00354,-0.42628 20.9085,9.63039 22.53756,17.79501c3.43902,17.23597 5.97014,42.11583 8.48869,54.76557c1.06955,5.372 5.26857,7.76421 5.26857,7.76421z" fill="url(#color-7)" stroke="none" stroke-width="0" stroke-linecap="butt"/><path d="M209.50486,220.02367l2.11779,-9.50667c0,0 1.50738,14.60178 5.42659,14.80365c2.57417,0.13259 4.77716,-7.33047 10.38877,-7.44683c3.97948,-0.08253 8.75546,7.18765 10.96313,6.66319c1.96201,-0.46611 6.63541,-7.74143 11.88933,-7.63892c2.74938,0.05365 10.93677,7.2266 11.77715,6.96427c2.62471,-0.81931 4.98815,-13.87705 4.98815,-13.87705l1.25964,10.89661c0,0 -2.14255,8.81195 -6.10889,8.86262c-2.00981,0.02568 -7.22922,-7.14659 -12.59579,-7.14099c-4.78784,0.00499 -8.48658,7.17277 -11.33394,7.41422c-4.59826,0.38993 -7.76544,-6.66379 -10.94689,-6.33456c-5.52521,0.57176 -8.52378,8.04372 -11.11356,7.94679c-4.07035,-0.15234 -6.71151,-11.60632 -6.71151,-11.60632z" fill="url(#color-8)" stroke="none" stroke-width="0.5" stroke-linecap="butt"/><path d="M216.49269,190.97244l47.71325,0.06839l1.75593,12.59541l-52.29692,-0.84057z" fill="url(#color-9)" stroke="none" stroke-width="0.5" stroke-linecap="butt"/></g></g></svg>