<svg version="1.1" xmlns="http://www.w3.org/2000/svg" xmlns:xlink="http://www.w3.org/1999/xlink" width="492" height="367.57853" viewBox="0,0,492,367.57853"><defs><linearGradient x1="240.5" y1="332" x2="240.5" y2="365" gradientUnits="userSpaceOnUse" id="color-1"><stop offset="0" stop-color="#ffffff"/><stop offset="1" stop-color="#ffffff" stop-opacity="0"/></linearGradient><linearGradient x1="240.89463" y1="-2" x2="240.89463" y2="32.69503" gradientUnits="userSpaceOnUse" id="color-2"><stop offset="0" stop-color="#ffffff" stop-opacity="0"/><stop offset="1" stop-color="#ffffff"/></linearGradient><linearGradient x1="-3.5" y1="180.23215" x2="29.5" y2="180.23215" gradientUnits="userSpaceOnUse" id="color-3"><stop offset="0" stop-color="#ffffff" stop-opacity="0"/><stop offset="1" stop-color="#ffffff"/></linearGradient><linearGradient x1="450.5" y1="179.71073" x2="483.5" y2="179.71073" gradientUnits="userSpaceOnUse" id="color-4"><stop offset="0" stop-color="#ffffff"/><stop offset="1" stop-color="#ffffff" stop-opacity="0"/></linearGradient><linearGradient x1="428.30655" y1="36.30298" x2="446.00719" y2="36.30298" gradientUnits="userSpaceOnUse" id="color-5"><stop offset="0" stop-color="#000000"/><stop offset="1" stop-color="#000000" stop-opacity="0"/></linearGradient><linearGradient x1="428.30655" y1="40.78415" x2="446.00719" y2="40.78415" gradientUnits="userSpaceOnUse" id="color-6"><stop offset="0" stop-color="#000000"/><stop offset="1" stop-color="#000000" stop-opacity="0"/></linearGradient></defs><g transform="translate(5.5,2.57853)"><g data-paper-data="{&quot;isPaintingLayer&quot;:true}" fill-rule="nonzero" stroke-linejoin="miter" stroke-miterlimit="10" stroke-dasharray="" stroke-dashoffset="0" style="mix-blend-mode: normal"><path d="M-5.5,365l33,-33h424l35,33z" fill="url(#color-1)" stroke="none" stroke-width="0" stroke-linecap="butt"/><path d="M485.5,-2l-37,33l-418.21073,1.69503l-34,-33.48429z" data-paper-data="{&quot;index&quot;:null}" fill="url(#color-2)" stroke="none" stroke-width="0" stroke-linecap="butt"/><path d="M-3.5,-2l33,33v299.46429l-33,32z" fill="url(#color-3)" stroke="none" stroke-width="0" stroke-linecap="butt"/><path d="M483.5,362l-33,-30v-303.90576l33,-30.67277z" data-paper-data="{&quot;index&quot;:null}" fill="url(#color-4)" stroke="none" stroke-width="0" stroke-linecap="butt"/><path d="M28,331.5v-303h424v303z" fill="#ffffff" stroke="#000000" stroke-width="5" stroke-linecap="butt"/><path d="M34.75,326.8202v-74.3202h142.5v74.3202z" fill="#000000" stroke="none" stroke-width="0" stroke-linecap="butt"/><text transform="translate(39.59015,266.55803) scale(0.29391,0.29391)" font-size="40" xml:space="preserve" fill="#ffffff" fill-rule="nonzero" stroke="none" stroke-width="1" stroke-linecap="butt" stroke-linejoin="miter" stroke-miterlimit="10" stroke-dasharray="" stroke-dashoffset="0" font-family="Serif" font-weight="normal" text-anchor="start" style="mix-blend-mode: normal"><tspan x="0" dy="0">Name: The Test</tspan><tspan x="0" dy="46.150000000000006px">Age: Unknown</tspan><tspan x="0" dy="46.150000000000006px">Gender: Unknown</tspan><tspan x="0" dy="46.150000000000006px">Role: Test (?)</tspan><tspan x="0" dy="46.150000000000006px">Status: Contained</tspan></text><path d="M194.25,59v-19.5h86v19.5z" fill="#000000" stroke="none" stroke-width="0" stroke-linecap="butt"/><text transform="translate(196.5,53.9009) scale(0.42192,0.42192)" font-size="40" xml:space="preserve" fill="#ffffff" fill-rule="nonzero" stroke="none" stroke-width="1" stroke-linecap="butt" stroke-linejoin="miter" stroke-miterlimit="10" stroke-dasharray="" stroke-dashoffset="0" font-family="Serif" font-weight="normal" text-anchor="start" style="mix-blend-mode: normal"><tspan x="0" dy="0">Description:</tspan></text><path d="M429.07853,298.09424h-241v-236.31414" fill="none" stroke="#000000" stroke-width="5" stroke-linecap="round"/><path d="M37.83201,243v-205h136.5312v205z" fill="#174752" stroke="#151515" stroke-width="6.5" stroke-linecap="butt"/><path d="M37.83201,243v-205h136.5312v205z" fill="#ffffff" stroke="#151515" stroke-width="6.5" stroke-linecap="butt"/><text transform="translate(349.55711,323.11998) scale(0.35959,0.35959)" font-size="40" xml:space="preserve" fill="#000000" fill-rule="nonzero" stroke="none" stroke-width="1" stroke-linecap="butt" stroke-linejoin="miter" stroke-miterlimit="10" stroke-dasharray="" stroke-dashoffset="0" font-family="Serif" font-weight="normal" text-anchor="start" style="mix-blend-mode: normal"><tspan x="0" dy="0">Click this to exit</tspan></text><text transform="translate(196.5697,82.80184) scale(0.36676,0.36676)" font-size="40" xml:space="preserve" fill="#000000" fill-rule="nonzero" stroke="none" stroke-width="1" stroke-linecap="butt" stroke-linejoin="miter" stroke-miterlimit="10" stroke-dasharray="" stroke-dashoffset="0" font-family="Serif" font-weight="normal" text-anchor="start" style="mix-blend-mode: normal"><tspan x="0" dy="0">I don't get told much about this thing.</tspan><tspan x="0" dy="48px">I just call it "The Test" because I know</tspan><tspan x="0" dy="48px">it is a result of a test, I just have no idea</tspan><tspan x="0" dy="48px">which one. Whatever it was, it found</tspan><tspan x="0" dy="48px">the ability to speak in its own language.</tspan><tspan x="0" dy="48px">Just a repeated pattern of different</tspan><tspan x="0" dy="48px">pitched sounds, but it knows what</tspan><tspan x="0" dy="48px">it's saying.</tspan><tspan x="0" dy="48px"> </tspan><tspan x="0" dy="48px">Recently, Trazna somehow paid them</tspan><tspan x="0" dy="48px">a visit, and hacked a knife through its</tspan><tspan x="0" dy="48px">skull. It hasnt bothered removing it.</tspan></text><path d="M399.40297,43.92097l46.38016,-0.22406" fill="none" stroke="#000000" stroke-width="3" stroke-linecap="round"/><g stroke="none" stroke-linecap="butt"><g fill="#000000" stroke-width="1" font-weight="normal" font-size="40" text-anchor="start"><text transform="translate(399.40297,42.80068) scale(0.23516,0.23516)" font-size="40" xml:space="preserve" fill="#000000" fill-rule="nonzero" stroke="none" stroke-width="1" stroke-linecap="butt" stroke-linejoin="miter" stroke-miterlimit="10" stroke-dasharray="" stroke-dashoffset="0" font-family="Pixel" font-weight="normal" text-anchor="start" style="mix-blend-mode: normal"><tspan x="0" dy="0">DONK</tspan></text><text transform="translate(398.8418,52.32215) scale(0.23516,0.23516)" font-size="40" xml:space="preserve" fill="#000000" fill-rule="nonzero" stroke="none" stroke-width="1" stroke-linecap="butt" stroke-linejoin="miter" stroke-miterlimit="10" stroke-dasharray="" stroke-dashoffset="0" font-family="Sans Serif" font-weight="normal" text-anchor="start" style="mix-blend-mode: normal"><tspan x="0" dy="0">Industries</tspan></text></g><path d="M428.30655,37.64733v-2.6887h17.70064v2.6887z" fill="url(#color-5)" stroke-width="0"/><path d="M428.30655,42.09116v-2.61402h17.70064v2.61402z" fill="url(#color-6)" stroke-width="0"/></g><text transform="translate(186.81898,314.36666) scale(0.3147,0.3147)" font-size="40" xml:space="preserve" fill="#000000" fill-rule="nonzero" stroke="none" stroke-width="1" stroke-linecap="butt" stroke-linejoin="miter" stroke-miterlimit="10" stroke-dasharray="" stroke-dashoffset="0" font-family="Serif" font-weight="normal" text-anchor="start" style="mix-blend-mode: normal"><tspan x="0" dy="0">Written by: Nile Parkas</tspan></text><path d="M135.76745,88.10294l-2.22994,-4.16248l28.70725,-15.37915l2.22994,4.16248z" fill="#000000" stroke="#000000" stroke-width="2.5" stroke-linecap="butt"/><path d="M103.76803,108.5078c-19.06969,4.45843 -12.79817,-9.86593 -12.79817,-9.86593l46.56512,-19.88931l11.03691,7.15461c0,0 -25.73415,18.1422 -44.80385,22.60063z" fill="#ffffff" stroke="#000000" stroke-width="2.5" stroke-linecap="butt"/><path d="M56.86967,239.73367c0,0 -0.43122,-64.058 -0.53844,-80.09433c-0.037,-5.53315 5.55641,-24.94976 27.28496,-25.05822c21.4484,-0.10706 27.05061,20.01275 27.04527,25.04168c-0.05198,31.38478 0.44406,80.077 0.44406,80.077l-7.12405,0.06525l-0.10779,-77.94361c0,0 0.05123,-2.10348 -1.91138,-2.14071c-2.33092,-0.04421 -1.99902,2.11456 -1.99902,2.11456l0.13946,77.96183l-32.72244,0.04902l-0.20727,-78.20829c0,0 0.18969,-1.98111 -1.95845,-1.99159c-2.11131,-0.01028 -1.911,1.97432 -1.911,1.97432l0.23965,78.09543z" fill="#000000" stroke="#000000" stroke-width="2" stroke-linecap="butt"/><path d="M93.92457,169.11c-0.38762,0 -0.70185,-0.31423 -0.70185,-0.70185c0,-0.38762 0.31423,-0.70186 0.70185,-0.70186c0.38762,0 0.70185,0.31424 0.70185,0.70186c0,0.38762 -0.31423,0.70185 -0.70185,0.70185z" fill="#000000" stroke="none" stroke-width="1.5" stroke-linecap="butt"/><path d="M90.35472,171.98468c-3.02936,-0.21338 -4.44712,-1.21753 -4.18746,-1.75111c0.08,-0.16441 1.93188,0.72183 4.73077,0.88556c4.34975,0.25446 5.77593,-0.42875 5.77593,-0.42875v0.91363c0,0 -1.63803,0.71041 -6.31925,0.38067z" fill="#000000" stroke="#000000" stroke-width="0" stroke-linecap="butt"/><path d="M71.47829,168.40816c0,-0.38762 0.31423,-0.70186 0.70185,-0.70186c0.38762,0 0.70186,0.31424 0.70186,0.70186c0,0.38762 -0.31424,0.70185 -0.70186,0.70185c-0.38762,0 -0.70185,-0.31423 -0.70185,-0.70185z" fill="#000000" stroke="none" stroke-width="1.5" stroke-linecap="butt"/><path d="M75.74999,171.98468c-4.68121,0.32974 -6.31925,-0.38067 -6.31925,-0.38067v-0.91363c0,0 1.42619,0.68322 5.77593,0.42875c2.7989,-0.16374 4.65077,-1.04997 4.73078,-0.88556c0.25967,0.53358 -1.15809,1.53773 -4.18746,1.75111z" fill="#000000" stroke="#000000" stroke-width="0" stroke-linecap="butt"/><path d="M83.40602,210.36617c-0.55582,0 -1.0064,-0.45058 -1.0064,-1.0064c0,-0.55582 0.45058,-1.0064 1.0064,-1.0064c0.55582,0 1.0064,0.45058 1.0064,1.0064c0,0.55582 -0.45058,1.0064 -1.0064,1.0064z" data-paper-data="{&quot;index&quot;:null}" fill="#000000" stroke="none" stroke-width="1.5" stroke-linecap="butt"/><path d="M67.07436,239.74347v-80.90161c0,0 0.51392,-6.60443 0.51392,-9.93569c0,-3.05278 -0.51392,-9.28945 -0.51392,-9.28945c0,0 1.81428,-1.59695 3.15981,-2.5438c1.34552,-0.94685 3.5102,-1.90287 3.5102,-1.90287c0,0 -0.4083,27.22185 9.88149,27.1741c10.47552,-0.04861 9.38742,-27.1741 9.38742,-27.1741c0,0 2.65558,1.03134 4.18474,1.99981c1.52916,0.96847 3.22638,2.44686 3.22638,2.44686c0,0 -0.51392,6.39646 -0.51392,9.63207c0,3.2862 0.51392,9.93569 0.51392,9.93569v80.55901z" fill="#ffffff" stroke="#000000" stroke-width="2" stroke-linecap="butt"/><path d="M53.40594,103.64723c0,0 4.183,-4.01915 4.27009,-4.60673c0.22841,-1.54107 -0.11386,-27.26539 24.41118,-28.216c30.29452,-0.62007 26.47927,23.99105 28.18686,28.63441c2.34137,6.36674 4.17849,11.80943 4.17849,11.80943c0,0 -1.87805,-1.39371 -2.76888,-2.12701c-0.83086,-0.68394 -2.58002,-2.13508 -2.58002,-2.13508c0,0 2.09793,7.02322 0.88972,14.04561c-1.06033,6.43471 -4.953,11.69084 -4.953,11.69084l-0.78404,-1.59314c0,0 -0.69408,1.49173 -1.46602,2.26192c-0.77195,0.77018 -2.33385,1.97686 -2.33385,1.97686l-0.06247,-2.51403c0,0 -4.79166,7.47784 -16.52671,7.37848c-11.06699,-0.17339 -17.69464,-7.24522 -17.69464,-7.24522l-0.07886,1.80183c0,0 -2.64337,-2.23478 -4.19533,-6.58847c-1.84975,-5.18909 -2.19861,-8.30944 -2.19861,-8.30944c0,0 -1.58753,1.28895 -3.88013,1.88298c-2.87277,0.74435 -4.71467,0.23433 -4.71467,0.23433c0,0 2.4487,-1.84413 3.78981,-3.23731c1.19455,-1.24093 1.79622,-2.29211 1.79622,-2.29211c0,0 -1.43041,0.73618 -2.87277,1.0981c-1.50493,0.37763 -2.7352,0.36034 -2.7352,0.36034c0,0 3.37646,-3.41878 4.77174,-7.38034c1.31736,-3.74035 1.42507,-7.43669 1.42507,-7.43669c0,0 -0.92415,0.44905 -2.26015,0.53965c-0.84685,0.05744 -1.61384,-0.03319 -1.61384,-0.03319z" fill="#000000" stroke="none" stroke-width="1.5" stroke-linecap="butt"/><path d="M64.79846,111.33118c-0.39167,-4.94989 0.22736,-11.64268 0.22736,-11.64268c0,0 2.31476,-0.02799 9.44358,-2.13398c5.47681,-1.61797 13.94539,-6.43894 13.94539,-6.43894c0,0 -1.46602,2.0395 -2.31287,3.02709c-0.9003,1.04992 -2.70998,3.09687 -2.70998,3.09687c0,0 5.31962,-1.1318 9.95971,-3.20977c5.81532,-2.3997 7.18911,-4.10821 8.7894,-3.11705c1.88874,1.16981 0.6991,15.73402 0.48762,19.50616c-0.28616,3.84768 -1.71932,6.44741 -2.1381,8.49764c-0.41878,2.05023 -0.27799,4.1649 -1.49735,10.88609c-0.76096,4.19449 -2.82462,6.05714 -6.80014,9.95024c-3.97553,3.89311 -6.14477,6.27981 -8.83228,6.32663c-2.58636,0.04506 -6.06459,-3.46149 -9.45792,-7.04653c-3.61333,-3.81749 -6.02336,-5.7534 -6.59388,-10.27529c-0.51382,-4.07244 -0.52703,-6.72488 -0.76195,-10.349c-0.1717,-2.64877 -1.53466,-4.37423 -1.74857,-7.07745z" fill="#000000" stroke="#000000" stroke-width="1.5" stroke-linecap="butt"/><path d="M97.42341,101.06904c0,0 1.03453,0.21587 2.8884,0.75355c1.69329,0.49111 3.01976,1.18367 3.01976,1.18367l0.13241,0.79431c0,0 -4.9203,-2.1243 -10.25904,-1.67679c-4.26873,0.35784 -6.76198,1.90877 -6.76198,1.90877l0.03105,-2.8348c0,0 2.12261,-1.15664 5.33704,-1.25937c3.32852,-0.10637 5.49122,0.40128 5.49122,0.40128z" data-paper-data="{&quot;index&quot;:null}" fill="#000000" stroke="none" stroke-width="1.5" stroke-linecap="butt"/><path d="M88.76044,130.24454c0.38713,0.14379 2.09281,0.94978 4.08837,1.7618c2.01145,0.81849 4.89586,1.55621 4.88262,1.66993c-0.0168,0.14432 -7.08204,0.15402 -9.28414,0.4291c-1.84539,0.23051 -4.53958,0.47892 -4.53958,0.47892c0,0 -4.82147,-0.78843 -9.0079,-1.65956c-3.35528,-0.69817 -7.05796,-1.12737 -7.0652,-1.19085c-0.00977,-0.0856 2.62544,-0.48236 4.63154,-0.94656c0.77768,-0.33705 3.69191,-1.00795 3.69191,-1.00795c0,0 3.36352,-0.18845 5.1637,0.39297c1.92888,0.62298 1.92442,1.65979 2.09249,1.67574c0,0 0.80382,-1.18726 1.60774,-1.42839c0.80392,-0.24113 3.44926,-0.28256 3.73845,-0.17516z" fill="#000000" stroke="#000000" stroke-width="1.4" stroke-linecap="butt"/><path d="M76.10411,133.33504c3.45534,0.69684 8.08841,1.90535 8.08841,1.90535c0,0 3.92949,-1.05595 5.7328,-1.245c1.39806,-0.14657 7.61226,-0.47953 7.6423,-0.22653c0.02937,0.24736 -6.12944,8.75541 -14.35313,8.44783c-9.34534,-0.29576 -15.51812,-10.27247 -15.49243,-10.38726c0.02568,-0.11479 4.92673,0.80877 8.38206,1.50562z" fill="#000000" stroke="#000000" stroke-width="1.9" stroke-linecap="butt"/><path d="M85.99704,110.87874c0,0 0.06963,2.69426 0.00391,4.83681c-0.13013,4.24262 -0.73399,18.84109 -0.73399,18.84109l-2.02365,0.00586c0,0 -0.54495,-2.83202 -0.76233,-6.44747c-0.29424,-4.89383 -0.30507,-11.05814 -0.51814,-13.32437c-0.20197,-2.14816 -0.60806,-3.87843 -0.60806,-3.87843" fill="#000000" stroke="#000000" stroke-width="1.3" stroke-linecap="round"/><path d="M65.95202,118.20177c0,0 -3.34741,-2.38701 -4.1836,-6.09131c-0.87983,-3.89765 -0.9917,-6.60562 0.32586,-6.78149c1.31756,-0.17588 1.83466,1.61321 2.53332,5.67098c0.69865,4.05777 1.32443,7.20183 1.32443,7.20183z" data-paper-data="{&quot;index&quot;:null}" fill="#000000" stroke="#000000" stroke-width="1" stroke-linecap="butt"/><path d="M65.81451,115.52257c0,0 -2.41877,-1.98409 -2.93072,-5.7354c-0.28559,-2.0926 1.46378,-1.54754 1.46378,-1.54754" fill="none" stroke="#000000" stroke-width="0.25" stroke-linecap="round"/><path d="M67.85971,111.00524c0.04814,-3.3201 3.28376,-6.06489 6.93042,-6.01203c3.64665,0.05287 6.12676,2.88337 6.07862,6.20348c-0.04814,3.3201 -2.79862,5.96872 -6.44527,5.91586c-3.64665,-0.05287 -6.61191,-2.7872 -6.56377,-6.10731z" fill="#ffffff" stroke="#000000" stroke-width="1.4" stroke-linecap="butt"/><path d="M86.22269,111.00573c0.13814,-3.31758 3.02199,-6.01221 6.63119,-6.01221c3.60919,0 6.29459,2.69176 6.29459,6.01221c0,3.32045 -2.63731,6.15648 -6.58311,6.20456c-3.75317,0.04574 -6.48693,-2.73984 -6.34267,-6.20456z" fill="#ffffff" stroke="#000000" stroke-width="1.4" stroke-linecap="butt"/><path d="M70.20896,103.84917c0,0 2.28696,-1.23455 5.45159,-1.54864c3.50681,-0.34806 5.27227,-0.04498 5.27227,-0.04498l0.20027,2.80809c0,0 -2.60317,-0.46195 -5.44175,-0.35369c-3.79626,0.14479 -4.50986,0.97252 -7.39626,1.28354c-2.47322,0.2665 -4.57253,0.1078 -4.57253,0.1078l-0.01757,-0.83585c0,0 2.44003,0.05021 3.5521,-0.0464c0.91786,-0.07974 2.69829,-0.63667 2.69829,-0.63667z" fill="#000000" stroke="none" stroke-width="1.5" stroke-linecap="butt"/><path d="M102.75986,110.99994c0.69865,-4.05777 1.21575,-5.84685 2.53332,-5.67098c1.31756,0.17588 1.2057,2.88384 0.32586,6.78149c-0.83619,3.7043 -4.1836,6.09131 -4.1836,6.09131c0,0 0.62578,-3.14406 1.32443,-7.20183z" data-paper-data="{&quot;index&quot;:null}" fill="#000000" stroke="#000000" stroke-width="1" stroke-linecap="butt"/><path d="M103.03986,108.23964c0,0 1.74937,-0.54507 1.46378,1.54754c-0.51195,3.75131 -2.93072,5.7354 -2.93072,5.7354" data-paper-data="{&quot;index&quot;:null}" fill="none" stroke="#000000" stroke-width="0.25" stroke-linecap="round"/><g stroke="#000000" stroke-width="2.5"><path d="M55.66169,177.88488v-16.85325h60.64946v16.85325z" fill="#ffffff" stroke-linecap="butt"/><path d="M80.53015,177.74379l-2.84603,-16.51905" fill="none" stroke-linecap="round"/><path d="M103.16597,178.20767l-2.84603,-16.51905" fill="none" stroke-linecap="round"/><path d="M93.0727,178.34927l-2.84603,-16.51905" fill="none" stroke-linecap="round"/><path d="M69.38186,161.18731l2.84603,16.51905" fill="none" stroke-linecap="round"/><path d="M68.12104,177.70474l-5.6675,-16.51905" fill="none" stroke-linecap="round"/><path d="M109.65803,161.26925l2.84603,16.51905" fill="none" stroke-linecap="round"/></g><g stroke="#000000" stroke-width="2.5"><path d="M52.50931,205.19439v-16.85324h60.64946v16.85324z" fill="#ffffff" stroke-linecap="butt"/><path d="M77.3778,205.0533l-2.84603,-16.51904" fill="none" stroke-linecap="round"/><path d="M97.16757,188.99813l2.84603,16.51905" fill="none" stroke-linecap="round"/><path d="M89.92032,205.65879l-2.84603,-16.51905" fill="none" stroke-linecap="round"/><path d="M66.22951,188.49683l2.84603,16.51905" fill="none" stroke-linecap="round"/><path d="M64.96869,205.01425l-5.6675,-16.51904" fill="none" stroke-linecap="round"/><path d="M109.35168,205.09781l-2.84603,-16.51905" fill="none" stroke-linecap="round"/></g><g stroke="#000000" stroke-width="2.5"><path d="M53.36461,230.29429v-16.85325h60.64946v16.85325z" fill="#ffffff" stroke-linecap="butt"/><path d="M78.23308,230.15322l-2.84603,-16.51905" fill="none" stroke-linecap="round"/><path d="M98.02286,214.09803l2.84603,16.51905" fill="none" stroke-linecap="round"/><path d="M90.77561,230.75869l-2.84603,-16.51905" fill="none" stroke-linecap="round"/><path d="M67.0848,213.59674l2.84603,16.51905" fill="none" stroke-linecap="round"/><path d="M60.15648,213.59512l5.6675,16.51904" fill="none" stroke-linecap="round"/><path d="M107.36094,213.67866l2.84603,16.51905" fill="none" stroke-linecap="round"/></g></g></g></svg>