<svg version="1.1" xmlns="http://www.w3.org/2000/svg" xmlns:xlink="http://www.w3.org/1999/xlink" width="492" height="367.57853" viewBox="0,0,492,367.57853"><defs><linearGradient x1="240.5" y1="332" x2="240.5" y2="365" gradientUnits="userSpaceOnUse" id="color-1"><stop offset="0" stop-color="#ffffff"/><stop offset="1" stop-color="#ffffff" stop-opacity="0"/></linearGradient><linearGradient x1="240.89463" y1="-2" x2="240.89463" y2="32.69503" gradientUnits="userSpaceOnUse" id="color-2"><stop offset="0" stop-color="#ffffff" stop-opacity="0"/><stop offset="1" stop-color="#ffffff"/></linearGradient><linearGradient x1="-3.5" y1="180.23215" x2="29.5" y2="180.23215" gradientUnits="userSpaceOnUse" id="color-3"><stop offset="0" stop-color="#ffffff" stop-opacity="0"/><stop offset="1" stop-color="#ffffff"/></linearGradient><linearGradient x1="450.5" y1="179.71073" x2="483.5" y2="179.71073" gradientUnits="userSpaceOnUse" id="color-4"><stop offset="0" stop-color="#ffffff"/><stop offset="1" stop-color="#ffffff" stop-opacity="0"/></linearGradient><linearGradient x1="428.30655" y1="36.30298" x2="446.00719" y2="36.30298" gradientUnits="userSpaceOnUse" id="color-5"><stop offset="0" stop-color="#000000"/><stop offset="1" stop-color="#000000" stop-opacity="0"/></linearGradient><linearGradient x1="428.30655" y1="40.78415" x2="446.00719" y2="40.78415" gradientUnits="userSpaceOnUse" id="color-6"><stop offset="0" stop-color="#000000"/><stop offset="1" stop-color="#000000" stop-opacity="0"/></linearGradient></defs><g transform="translate(5.5,2.57853)"><g data-paper-data="{&quot;isPaintingLayer&quot;:true}" fill-rule="nonzero" stroke-linejoin="miter" stroke-miterlimit="10" stroke-dasharray="" stroke-dashoffset="0" style="mix-blend-mode: normal"><path d="M-5.5,365l33,-33h424l35,33z" fill="url(#color-1)" stroke="none" stroke-width="0" stroke-linecap="butt"/><path d="M485.5,-2l-37,33l-418.21073,1.69503l-34,-33.48429z" data-paper-data="{&quot;index&quot;:null}" fill="url(#color-2)" stroke="none" stroke-width="0" stroke-linecap="butt"/><path d="M-3.5,-2l33,33v299.46429l-33,32z" fill="url(#color-3)" stroke="none" stroke-width="0" stroke-linecap="butt"/><path d="M483.5,362l-33,-30v-303.90576l33,-30.67277z" data-paper-data="{&quot;index&quot;:null}" fill="url(#color-4)" stroke="none" stroke-width="0" stroke-linecap="butt"/><path d="M28,331.5v-303h424v303z" fill="#ffffff" stroke="#000000" stroke-width="5" stroke-linecap="butt"/><path d="M34.75,326.8202v-74.3202h142.5v74.3202z" fill="#000000" stroke="none" stroke-width="0" stroke-linecap="butt"/><text transform="translate(39.59015,266.55803) scale(0.29391,0.29391)" font-size="40" xml:space="preserve" fill="#ffffff" fill-rule="nonzero" stroke="none" stroke-width="1" stroke-linecap="butt" stroke-linejoin="miter" stroke-miterlimit="10" stroke-dasharray="" stroke-dashoffset="0" font-family="Serif" font-weight="normal" text-anchor="start" style="mix-blend-mode: normal"><tspan x="0" dy="0">Name: Erza</tspan><tspan x="0" dy="46.150000000000006px">Age: 35 (?)</tspan><tspan x="0" dy="46.150000000000006px">Gender: Unknown</tspan><tspan x="0" dy="46.150000000000006px">Role: Possible Clone</tspan><tspan x="0" dy="46.150000000000006px">Status: Contained</tspan></text><path d="M194.25,59v-19.5h86v19.5z" fill="#000000" stroke="none" stroke-width="0" stroke-linecap="butt"/><text transform="translate(196.5,53.9009) scale(0.42192,0.42192)" font-size="40" xml:space="preserve" fill="#ffffff" fill-rule="nonzero" stroke="none" stroke-width="1" stroke-linecap="butt" stroke-linejoin="miter" stroke-miterlimit="10" stroke-dasharray="" stroke-dashoffset="0" font-family="Serif" font-weight="normal" text-anchor="start" style="mix-blend-mode: normal"><tspan x="0" dy="0">Description:</tspan></text><path d="M429.07853,298.09424h-241v-236.31414" fill="none" stroke="#000000" stroke-width="5" stroke-linecap="round"/><path d="M37.83201,243v-205h136.5312v205z" fill="#174752" stroke="#151515" stroke-width="6.5" stroke-linecap="butt"/><path d="M37.83201,243v-205h136.5312v205z" fill="#ffffff" stroke="#151515" stroke-width="6.5" stroke-linecap="butt"/><text transform="translate(349.55711,323.11998) scale(0.35959,0.35959)" font-size="40" xml:space="preserve" fill="#000000" fill-rule="nonzero" stroke="none" stroke-width="1" stroke-linecap="butt" stroke-linejoin="miter" stroke-miterlimit="10" stroke-dasharray="" stroke-dashoffset="0" font-family="Serif" font-weight="normal" text-anchor="start" style="mix-blend-mode: normal"><tspan x="0" dy="0">Click this to exit</tspan></text><text transform="translate(194.75,79.67424) scale(0.38098,0.38098)" font-size="40" xml:space="preserve" fill="#000000" fill-rule="nonzero" stroke="none" stroke-width="1" stroke-linecap="butt" stroke-linejoin="miter" stroke-miterlimit="10" stroke-dasharray="" stroke-dashoffset="0" font-family="Serif" font-weight="normal" text-anchor="start" style="mix-blend-mode: normal"><tspan x="0" dy="0">We wanted this guy gone so we decided</tspan><tspan x="0" dy="48px">to tell police he murdered the original</tspan><tspan x="0" dy="48px">Matthew Hudgson. He didn't, but when</tspan><tspan x="0" dy="48px">you're as disrespectful and horrible</tspan><tspan x="0" dy="48px">as this guy was, I couldn't care less if</tspan><tspan x="0" dy="48px">you get arrested.</tspan><tspan x="0" dy="48px"> </tspan><tspan x="0" dy="48px">He's back but we have no idea who</tspan><tspan x="0" dy="48px">this is, this isn't the original guy, and</tspan><tspan x="0" dy="48px">we know that because this guy</tspan><tspan x="0" dy="48px">is still in prison. So we contained this.</tspan><tspan x="0" dy="48px">Even if it is Erza, I don't really care.</tspan></text><path d="M399.40297,43.92097l46.38016,-0.22406" fill="none" stroke="#000000" stroke-width="3" stroke-linecap="round"/><g stroke="none" stroke-linecap="butt"><g fill="#000000" stroke-width="1" font-weight="normal" font-size="40" text-anchor="start"><text transform="translate(399.40297,42.80068) scale(0.23516,0.23516)" font-size="40" xml:space="preserve" fill="#000000" fill-rule="nonzero" stroke="none" stroke-width="1" stroke-linecap="butt" stroke-linejoin="miter" stroke-miterlimit="10" stroke-dasharray="" stroke-dashoffset="0" font-family="Pixel" font-weight="normal" text-anchor="start" style="mix-blend-mode: normal"><tspan x="0" dy="0">DONK</tspan></text><text transform="translate(398.8418,52.32215) scale(0.23516,0.23516)" font-size="40" xml:space="preserve" fill="#000000" fill-rule="nonzero" stroke="none" stroke-width="1" stroke-linecap="butt" stroke-linejoin="miter" stroke-miterlimit="10" stroke-dasharray="" stroke-dashoffset="0" font-family="Sans Serif" font-weight="normal" text-anchor="start" style="mix-blend-mode: normal"><tspan x="0" dy="0">Industries</tspan></text></g><path d="M428.30655,37.64733v-2.6887h17.70064v2.6887z" fill="url(#color-5)" stroke-width="0"/><path d="M428.30655,42.09116v-2.61402h17.70064v2.61402z" fill="url(#color-6)" stroke-width="0"/></g><text transform="translate(187.72883,314.36666) scale(0.3147,0.3147)" font-size="40" xml:space="preserve" fill="#000000" fill-rule="nonzero" stroke="none" stroke-width="1" stroke-linecap="butt" stroke-linejoin="miter" stroke-miterlimit="10" stroke-dasharray="" stroke-dashoffset="0" font-family="Serif" font-weight="normal" text-anchor="start" style="mix-blend-mode: normal"><tspan x="0" dy="0">Written by: Nile Parkas</tspan></text><path d="M73.16665,240.90983v-180.97444h65.16583v180.97444z" fill-opacity="0.01" fill="#000000" stroke="none" stroke-width="0" stroke-linecap="butt"/><path d="M77.2737,239.3226c0,0 -0.45408,-67.45411 -0.56699,-84.34063c-0.03896,-5.82649 5.85099,-26.2725 28.73151,-26.38671c22.58552,-0.11274 28.48474,21.07375 28.4791,26.3693c-0.05474,33.04869 0.46761,84.32239 0.46761,84.32239l-7.50174,0.06871l-0.11351,-82.07589c0,0 0.05395,-2.215 -2.01271,-2.2542c-2.4545,-0.04655 -2.105,2.22667 -2.105,2.22667l0.14685,82.09507l-34.45726,0.05161l-0.21826,-82.3546c0,0 0.19975,-2.08615 -2.06228,-2.09717c-2.22324,-0.01083 -2.01231,2.07899 -2.01231,2.07899l0.25236,82.23575z" fill="#ffffff" stroke="#000000" stroke-width="2" stroke-linecap="butt"/><path d="M116.29308,164.95474c-0.40817,0 -0.73906,-0.33089 -0.73906,-0.73906c0,-0.40817 0.33089,-0.73907 0.73906,-0.73907c0.40817,0 0.73906,0.3309 0.73906,0.73907c0,0.40817 -0.33089,0.73906 -0.73906,0.73906z" fill="#000000" stroke="none" stroke-width="1.5" stroke-linecap="butt"/><path d="M112.53398,167.98183c-3.18997,-0.22469 -4.68289,-1.28208 -4.40946,-1.84395c0.08425,-0.17312 2.0343,0.7601 4.98158,0.93251c4.58035,0.26795 6.08215,-0.45148 6.08215,-0.45148v0.96207c0,0 -1.72488,0.74807 -6.65427,0.40086z" fill="#000000" stroke="#000000" stroke-width="0" stroke-linecap="butt"/><path d="M92.65681,164.21569c0,-0.40817 0.33089,-0.73907 0.73906,-0.73907c0.40817,0 0.73907,0.3309 0.73907,0.73907c0,0.40817 -0.3309,0.73906 -0.73907,0.73906c-0.40817,0 -0.73906,-0.33089 -0.73906,-0.73906z" fill="#000000" stroke="none" stroke-width="1.5" stroke-linecap="butt"/><path d="M97.15499,167.98183c-4.92939,0.34723 -6.65427,-0.40086 -6.65427,-0.40086v-0.96207c0,0 1.5018,0.71944 6.08215,0.45148c2.94728,-0.17242 4.89734,-1.10564 4.98159,-0.93251c0.27344,0.56187 -1.21948,1.61925 -4.40946,1.84395z" fill="#000000" stroke="#000000" stroke-width="0" stroke-linecap="butt"/><path d="M105.2169,208.39811c-0.58529,0 -1.05975,-0.47447 -1.05975,-1.05975c0,-0.58529 0.47447,-1.05975 1.05975,-1.05975c0.58529,0 1.05975,0.47447 1.05975,1.05975c0,0.58529 -0.47447,1.05975 -1.05975,1.05975z" data-paper-data="{&quot;index&quot;:null}" fill="#000000" stroke="none" stroke-width="1.5" stroke-linecap="butt"/><path d="M73.62634,96.0214c0,0 4.40477,-4.23223 4.49648,-4.85096c0.24052,-1.62277 -0.11989,-28.7109 25.70537,-29.71191c31.90062,-0.65294 27.8831,25.26297 29.68122,30.1525c2.4655,6.70428 4.40002,12.43552 4.40002,12.43552c0,0 -1.97762,-1.4676 -2.91567,-2.23978c-0.87491,-0.7202 -2.7168,-2.24827 -2.7168,-2.24827c0,0 2.20915,7.39556 0.93689,14.79025c-1.11654,6.77585 -5.21559,12.31064 -5.21559,12.31064l-0.82561,-1.6776c0,0 -0.73087,1.57082 -1.54374,2.38184c-0.81288,0.81101 -2.45759,2.08167 -2.45759,2.08167l-0.06579,-2.64732c0,0 -5.0457,7.87429 -17.40289,7.76965c-11.65372,-0.18258 -18.63274,-7.62933 -18.63274,-7.62933l-0.08305,1.89736c0,0 -2.78351,-2.35326 -4.41775,-6.93777c-1.94782,-5.4642 -2.31517,-8.74998 -2.31517,-8.74998c0,0 -1.67169,1.35729 -4.08584,1.9828c-3.02508,0.78381 -4.96462,0.24675 -4.96462,0.24675c0,0 2.57852,-1.9419 3.99074,-3.40894c1.25788,-1.30672 1.89145,-2.41363 1.89145,-2.41363c0,0 -1.50624,0.77521 -3.02507,1.15631c-1.58472,0.39765 -2.88021,0.37944 -2.88021,0.37944c0,0 3.55547,-3.60004 5.02472,-7.77162c1.38721,-3.93865 1.50062,-7.83095 1.50062,-7.83095c0,0 -0.97314,0.47285 -2.37997,0.56826c-0.89175,0.06048 -1.6994,-0.03495 -1.6994,-0.03495z" fill="#000000" stroke="none" stroke-width="1.5" stroke-linecap="butt"/><path d="M85.62285,104.11271c-0.41243,-5.21231 0.23942,-12.25994 0.23942,-12.25994c0,0 2.43747,-0.02947 9.94424,-2.24712c5.76717,-1.70375 14.68472,-6.78031 14.68472,-6.78031c0,0 -1.54374,2.14763 -2.43549,3.18757c-0.94803,1.10558 -2.85365,3.26106 -2.85365,3.26106c0,0 5.60165,-1.1918 10.48773,-3.37994c6.12363,-2.52692 7.57025,-4.32601 9.25539,-3.2823c1.98888,1.23183 0.73616,16.56817 0.51347,20.5403c-0.30133,4.05167 -1.81047,6.78922 -2.25146,8.94815c-0.44099,2.15893 -0.29273,4.38571 -1.57674,11.46323c-0.8013,4.41686 -2.97437,6.37826 -7.16066,10.47776c-4.18629,4.09951 -6.47054,6.61274 -9.30053,6.66204c-2.72347,0.04745 -6.38612,-3.645 -9.95934,-7.42011c-3.8049,-4.01988 -6.34269,-6.05842 -6.94346,-10.82005c-0.54106,-4.28835 -0.55497,-7.08141 -0.80234,-10.89767c-0.1808,-2.7892 -1.61602,-4.60613 -1.84127,-7.45267z" fill="#ffffff" stroke="#000000" stroke-width="1.5" stroke-linecap="butt"/><path d="M75.44922,163.88082c0,0 -4.12473,-10.83212 -1.9798,-15.95593c2.59023,-6.18755 18.3446,-17.63082 18.3446,-17.63082l-1.35847,33.34729z" fill="#6712b1" stroke="#402b6b" stroke-width="2" stroke-linecap="butt"/><path d="M120.90195,163.64136l-1.35847,-33.34729c0,0 15.75436,11.44327 18.3446,17.63082c2.14493,5.12381 -1.9798,15.95593 -1.9798,15.95593z" data-paper-data="{&quot;index&quot;:null}" fill="#6712b1" stroke="#402b6b" stroke-width="2" stroke-linecap="butt"/><path d="M91.55266,237.61339l-0.71468,-105.7724h29.65915l-0.71468,106.48708z" fill="#9966ff" stroke="#402b6b" stroke-width="2" stroke-linecap="butt"/><path d="M119.90594,93.35688c0,0 1.09243,0.21219 3.05223,0.75125c1.79006,0.49238 3.19683,1.20221 3.19683,1.20221l0.15102,0.83442c0,0 -5.21167,-2.16486 -10.82638,-1.61573c-4.48938,0.43909 -7.09192,2.10849 -7.09192,2.10849l-0.0087,-2.98525c0,0 2.21804,-1.24884 5.60106,-1.40394c3.50309,-0.1606 5.78765,0.34234 5.78765,0.34234z" data-paper-data="{&quot;index&quot;:null}" fill="#000000" stroke="none" stroke-width="1.5" stroke-linecap="butt"/><path d="M105.3102,136.66504l-0.71468,100.41231" fill="none" stroke="#402b6b" stroke-width="3" stroke-linecap="round"/><path d="M110.8552,124.02877c0.40765,0.15141 2.20376,1.00014 4.30512,1.85521c2.11809,0.86188 5.15542,1.63871 5.14148,1.75847c-0.0177,0.15198 -7.4575,0.16219 -9.77635,0.45185c-1.94322,0.24273 -4.78025,0.50431 -4.78025,0.50431c0,0 -5.07708,-0.83023 -9.48546,-1.74754c-3.53316,-0.73518 -7.43215,-1.18714 -7.43977,-1.25398c-0.01028,-0.09014 2.76463,-0.50793 4.87709,-0.99674c0.81891,-0.35492 3.88764,-1.06139 3.88764,-1.06139c0,0 3.54184,-0.19844 5.43746,0.4138c2.03114,0.65601 2.02644,1.74779 2.20342,1.76458c0,0 0.84644,-1.2502 1.69297,-1.50412c0.84654,-0.25391 3.63213,-0.29754 3.93665,-0.18444z" fill="#ffffff" stroke="#000000" stroke-width="1.4" stroke-linecap="butt"/><path d="M87.80058,240.47208c0,0 -0.26608,-32.23283 -0.84644,-56.98413c-0.25576,-10.90768 0.27057,-30.07994 1.28836,-34.88263c1.66128,-7.83919 -0.81925,-15.1643 1.17383,-18.12993c2.95423,-4.39577 10.17645,-2.20782 10.17645,-2.20782l1.07202,111.84717z" fill="#6712b1" stroke="#402b6b" stroke-width="2" stroke-linecap="butt"/><path d="M109.0451,240.47208l1.07202,-111.84717c0,0 7.22222,-2.18795 10.17645,2.20782c1.99309,2.96562 -0.48745,10.29073 1.17383,18.12993c1.01779,4.80269 1.54412,23.97494 1.28837,34.88262c-0.58036,24.7513 -0.84645,56.98414 -0.84645,56.98414z" data-paper-data="{&quot;index&quot;:null}" fill="#6712b1" stroke="#402b6b" stroke-width="2" stroke-linecap="butt"/><path d="M97.52788,127.28309c3.63853,0.73379 8.51722,2.00636 8.51722,2.00636c0,0 4.13782,-1.11193 6.03673,-1.31101c1.47218,-0.15434 8.01583,-0.50495 8.04746,-0.23854c0.03093,0.26048 -6.4544,9.21959 -15.11408,8.8957c-9.84079,-0.31144 -16.34083,-10.81708 -16.31378,-10.93795c0.02704,-0.12087 5.18792,0.85165 8.82645,1.58544z" fill="#ffffff" stroke="#000000" stroke-width="1.9" stroke-linecap="butt"/><path d="M105.37096,125.1436c-0.73881,0 -2.5286,-2.33015 -2.70627,-3.83332c-0.15897,-1.34492 0.93989,-2.73578 2.70627,-2.73578c1.76639,0 3.00315,0.35074 2.88015,2.99345c-0.10439,2.24279 -1.11376,3.57566 -2.88015,3.57566z" fill="#ffffff" stroke="#000000" stroke-width="1.15" stroke-linecap="butt"/><path d="M107.94529,103.6363c0,0 0.07333,2.8371 0.00412,5.09324c-0.13703,4.46755 -0.7729,19.83997 -0.7729,19.83997l-2.13094,0.00617c0,0 -0.57384,-2.98217 -0.80274,-6.78929c-0.30983,-5.15328 -0.32125,-11.6444 -0.54561,-14.03077c-0.21267,-2.26205 -0.6403,-4.08405 -0.6403,-4.08405" fill="#ffffff" stroke="#000000" stroke-width="1.3" stroke-linecap="round"/><path d="M86.83756,111.34756c0,0 -3.52487,-2.51356 -4.4054,-6.41425c-0.92648,-4.10428 -1.04427,-6.95582 0.34314,-7.14102c1.38741,-0.18521 1.93193,1.69873 2.66762,5.97163c0.73569,4.2729 1.39464,7.58365 1.39464,7.58365z" data-paper-data="{&quot;index&quot;:null}" fill="#ffffff" stroke="#000000" stroke-width="1" stroke-linecap="butt"/><path d="M86.69276,108.52633c0,0 -2.54701,-2.08928 -3.0861,-6.03947c-0.30073,-2.20355 1.54138,-1.62958 1.54138,-1.62958" fill="none" stroke="#000000" stroke-width="0.25" stroke-linecap="round"/><path d="M88.84638,103.7695c0.05069,-3.49612 3.45786,-6.38643 7.29785,-6.33076c3.83998,0.05567 6.45157,3.03624 6.40089,6.53237c-0.05069,3.49612 -2.94699,6.28516 -6.78698,6.22949c-3.83998,-0.05567 -6.96245,-2.93497 -6.91175,-6.4311z" fill="#ffffff" stroke="#000000" stroke-width="1.4" stroke-linecap="butt"/><path d="M92.01785,103.85379c0.02858,-1.97139 1.64987,-3.54633 3.62125,-3.51775c1.97139,0.02858 3.54633,1.64987 3.51775,3.62125c-0.02858,1.97139 -1.64986,3.54633 -3.62125,3.51775c-1.97139,-0.02858 -3.54633,-1.64987 -3.51775,-3.62125z" fill="#000000" stroke="none" stroke-width="1.5" stroke-linecap="butt"/><path d="M108.1829,103.77002c0.14546,-3.49347 3.18221,-6.33096 6.98275,-6.33096c3.80054,0 6.62831,2.83446 6.62831,6.33096c0,3.49649 -2.77713,6.48288 -6.93212,6.5335c-3.95215,0.04816 -6.83084,-2.8851 -6.67893,-6.5335z" fill="#ffffff" stroke="#000000" stroke-width="1.4" stroke-linecap="butt"/><path d="M111.50812,104.1885c0,-2.01429 1.6329,-3.64718 3.64718,-3.64718c2.01429,0 3.64718,1.6329 3.64718,3.64718c0,2.01429 -1.63289,3.64718 -3.64718,3.64718c-2.01429,0 -3.64718,-1.6329 -3.64718,-3.64718z" fill="#000000" stroke="none" stroke-width="1.5" stroke-linecap="butt"/><path d="M88.79747,103.38916c0,0 0.04543,-6.44291 7.57638,-6.30697c6.76873,0.11854 6.82914,6.72314 6.82914,6.72314z" fill="#ffffff" stroke="#000000" stroke-width="1.15" stroke-linecap="butt"/><path d="M91.32018,96.23404c0,0 2.4082,-1.3 5.74061,-1.63074c3.69273,-0.36651 5.55179,-0.04737 5.55179,-0.04737l0.21089,2.95696c0,0 -2.74118,-0.48645 -5.73026,-0.37244c-3.99752,0.15246 -4.74895,1.02408 -7.78838,1.35159c-2.60435,0.28063 -4.81495,0.11352 -4.81495,0.11352l-0.0185,-0.88016c0,0 2.56939,0.05287 3.74042,-0.04886c0.96652,-0.08397 2.84135,-0.67043 2.84135,-0.67043z" fill="#000000" stroke="none" stroke-width="1.5" stroke-linecap="butt"/><path d="M125.59682,103.76392c0.73569,-4.2729 1.2802,-6.15683 2.66762,-5.97163c1.38741,0.1852 1.26962,3.03673 0.34314,7.14102c-0.88053,3.90069 -4.4054,6.41425 -4.4054,6.41425c0,0 0.65895,-3.31075 1.39464,-7.58365z" data-paper-data="{&quot;index&quot;:null}" fill="#ffffff" stroke="#000000" stroke-width="1" stroke-linecap="butt"/><path d="M125.89163,100.85728c0,0 1.84211,-0.57397 1.54138,1.62958c-0.53909,3.95019 -3.0861,6.03947 -3.0861,6.03947" data-paper-data="{&quot;index&quot;:null}" fill="none" stroke="#000000" stroke-width="0.25" stroke-linecap="round"/><g stroke="none" stroke-width="0" stroke-linecap="butt"><path d="M115.27431,107.18521c4.13981,-0.1487 7.17696,-1.97206 7.17696,-1.97206c0,0 -0.85233,5.65506 -7.37697,5.58336c-6.22428,-0.06839 -7.02218,-4.87069 -7.02218,-4.87069c0,0 2.79234,1.41852 7.2222,1.25939z" fill="#000000"/><path d="M115.32649,108.3089c3.54329,-0.11982 5.60153,-1.33691 5.60153,-1.33691c0,0 -1.20298,2.7288 -5.49345,2.72901c-4.29047,0.00021 -5.64767,-2.42121 -5.64767,-2.42121c0,0 2.2272,1.09321 5.53959,1.02912z" fill="#ffffff"/><g><path d="M107.35961,104.39919c0,0 0.07243,-7.4348 8.50675,-7.52095c7.77201,-0.07939 7.82847,7.59941 7.82847,7.59941c0,0 -3.87201,-1.55235 -8.26232,-1.72776c-4.69789,-0.1877 -8.07289,1.64931 -8.07289,1.64931z" fill="#000000"/><path d="M108.91117,102.83537c0,0 0.16651,-4.90617 7.13889,-4.90588c5.83203,0.00024 6.38712,5.10986 6.38712,5.10986c0,0 -2.21515,-0.95705 -7.03582,-1.04081c-4.35202,-0.07561 -6.49019,0.83682 -6.49019,0.83682z" fill="#ffffff"/></g></g><path d="M101.42584,58.71128c0.10488,-0.09492 0.18949,-0.23532 0.40136,-0.3481c1.71434,-1.52437 4.91286,-3.08476 6.70039,-0.78449c1.93862,0.91882 4.85778,1.49469 7.06573,1.47816c2.49323,-0.00015 4.95025,-1.20723 7.39276,-0.82757c1.4177,0.22036 1.68402,3.03497 2.07425,4.3449c0.0562,0.18866 0.20957,1.18328 0.33294,1.27024c0.26352,0.18574 0.43807,-0.26908 0.42916,-0.41633c0.1865,-0.57617 1.56978,-3.46909 2.32541,-3.39895c0.58481,0.05429 1.37287,2.80627 1.61284,3.34476c0.36412,1.30134 1.57457,6.56548 2.90126,5.08803c1.55754,-1.94192 3.09567,-3.96564 4.81733,-5.76407c0.40141,-0.41931 2.45786,-3.04271 3.1292,-2.62108c0.4596,0.28865 -0.16188,3.17633 -0.17067,3.71109c-0.04091,2.49047 -0.55835,4.93939 -0.80254,7.43812c-0.11278,1.15403 -0.34307,7.20349 2.28699,4.99387c0.83352,-0.0273 3.1023,-0.59264 3.73175,0.18384c0.77644,0.95781 -0.49634,2.81971 -0.79638,3.8169c-0.1159,0.38518 -0.84149,1.58094 -0.78089,1.90557c0.11411,0.61113 1.68502,0.64956 2.07417,1.12415c0.54371,0.66308 1.03124,1.73636 1.36922,2.54095c0.5328,1.27826 -1.07349,2.31289 -1.94255,3.19977c-0.13381,0.13655 -0.82333,0.8313 -0.80626,1.00373c0.026,0.26254 0.97991,1.40106 1.14295,1.55206c0.85747,0.89127 2.07983,3.42948 1.86547,4.71039c-0.11039,0.65967 -0.88615,1.59811 -1.21932,2.19578c-0.36185,1.58141 -2.82472,3.21965 -2.76434,4.87654c0.01822,0.50006 0.3307,1.17386 0.40639,1.70945c0.25005,1.76957 0.47854,3.54237 0.71248,5.31414c0.09808,0.74283 0.63312,1.8858 -0.43324,1.93442c-1.69477,-0.34813 -3.11283,-1.1273 -4.62179,-1.97021c-0.29364,-0.16403 -0.82803,-0.36614 -1.20918,-0.62473c0.16151,0.27279 0.29153,0.56272 0.43581,0.85127c0.36167,0.72313 1.46072,2.26119 1.0488,3.11858c-0.59859,1.24591 -3.59826,-1.87605 -2.79293,-0.12861c0.55843,1.22183 1.51605,3.64963 0.86013,4.98486c-0.45331,0.92279 -1.45799,-0.59294 -2.12954,0.23076c-0.29149,0.46288 0.12375,2.69955 -0.54048,2.83711c-0.50859,0.10533 -0.7084,-1.12938 -1.42435,-0.60113c-0.24781,0.18284 -0.85012,2.27712 -0.99771,2.67322c-0.45767,-0.3079 -0.98884,-0.9286 -1.4876,-1.12373c-0.71323,-0.27905 -0.24561,0.68764 -0.99189,0.6414c-0.87266,-0.05408 -1.61248,-1.79592 -2.45101,-2.06547c-0.31898,-0.10254 -0.61722,0.21954 -1.0407,0.16728c-0.64059,-0.97025 -2.38743,-3.03821 -2.28707,-4.19955c0.07071,-0.81824 0.9159,-1.84872 1.31765,-2.58837c1.42686,-2.13425 2.34844,-4.25114 3.21722,-6.67971c0.83464,-2.33315 1.03891,-4.78861 0.91886,-7.2858c-0.10887,-2.28949 -1.29383,-4.85197 -2.20081,-6.96604c-0.51322,-1.19625 -1.00993,-2.4285 -1.58072,-3.55006c-0.10436,-0.20505 -0.33517,-1.46959 -0.59226,-1.51053c-0.57108,-0.09096 -0.78517,0.89446 -1.30994,1.1374c-1.35328,-0.24028 -1.03109,-2.39364 -2.09168,-3.18491c-0.58689,-0.43786 -2.36265,1.22592 -2.84516,1.56364c-1.53939,1.0774 -3.09784,2.35002 -4.79721,3.1512c-0.6035,0.28452 -1.16598,0.76176 -1.76153,0.32031c-0.5145,-0.24601 -1.54683,-1.75666 -2.11547,-1.58276c-1.37551,0.42067 -2.54763,1.79313 -3.72308,2.57005c-0.68743,0.45436 -2.32169,1.92407 -3.15601,1.88023c-1.23799,-0.06506 -1.21986,-2.57596 -2.70075,-2.5402c-0.9436,0.00578 -2.02414,0.57075 -2.88752,0.96051c-1.44033,0.65021 -2.49183,0.38445 -3.80823,1.38287c-0.28576,0.43941 -1.1642,1.13917 -1.74549,0.70731c-0.32571,-0.24198 -0.36349,-1.28276 -0.93609,-1.35279c-0.61325,-0.07499 -1.55983,1.57213 -2.26049,1.63415c-0.46429,0.0411 -0.64252,-0.54273 -0.89579,-0.80231c-0.86327,-1.39052 -2.84115,2.06443 -3.76828,1.65179c-0.38984,-0.1735 -0.82057,-2.41934 -1.41275,-1.56244c-0.46571,2.5866 -2.26772,4.18977 -2.36984,6.84613c-0.09793,2.49786 -0.21677,4.95861 -0.19268,7.47623c0.02378,2.56769 1.03385,4.87823 1.21315,7.33111c0.60732,2.34878 1.61493,4.71704 2.42017,7.04274c0.45287,1.36276 -2.06444,3.96368 -3.09441,4.69302c-0.57522,0.40732 -1.01101,1.09269 -1.62128,0.57281c-0.41848,-0.61926 0.37073,-2.36939 -0.02069,-2.70489c-0.00702,-0.00602 -0.80256,1.23684 -0.876,1.32618c-0.66344,0.80702 -1.37228,1.51173 -2.36026,1.88608c-0.18283,-1.03747 -0.20599,-2.35082 -0.04122,-3.39819c0.02273,-0.14449 0.50065,-1.50989 0.43555,-1.54499c-0.22843,-0.12317 -1.47464,1.32493 -1.70304,1.48414c-0.33493,0.33218 -2.02045,2.40541 -2.48529,2.26422c-0.22417,-0.06809 -0.34523,-1.01111 -0.34673,-1.19952c-0.00863,-1.08089 -0.23682,-2.12001 -0.23943,-3.19679c-0.00551,-2.28403 -2.06543,0.98063 -2.74331,0.84175c-0.81027,-0.16601 -0.08495,-2.79532 -0.03142,-3.3269c0.10292,-1.02201 0.52319,-3.21819 -0.12813,-4.1138c-0.60417,-0.83078 -2.09824,2.52588 -2.0981,0.12415c0.00162,-2.5682 0.53253,-4.96123 1.59512,-7.31479c0.35462,-0.78119 0.15551,-1.21773 0.15924,-2.00159c0.00765,-1.60489 1.00432,-3.65978 1.43364,-5.21399c0.63759,-2.30815 2.06615,-4.84879 0.16436,-6.77474c-1.64164,-2.05206 -2.6425,-4.83766 -0.32292,-6.6909c2.31186,-1.80676 -0.31075,-3.86016 -0.0612,-5.98751l-0.06204,-0.00668l0.03803,-0.35319c0.00858,-0.09069 0.08494,-0.16163 0.17787,-0.16163c0.07074,0 0.13187,0.04111 0.16082,0.10073l0.14853,0.29052c0.87888,0.75361 3.05323,-1.05661 3.48579,-1.81423c-0.00497,-2.28761 1.07475,-5.11333 1.84996,-7.20814c0.88217,-2.35121 1.09899,-4.79529 2.10364,-7.16546c0.31781,-0.74978 0.56558,-2.28998 1.55563,-2.45685c0.682,-0.11495 2.18391,2.15601 2.47287,3.05816l0.0008,-0.0005l0.00515,-0.01628l0.014,0.00443l0.00195,-0.00121l-0.00372,-0.03253c0.25763,-0.3341 0.36546,-0.50228 0.41947,-0.92187c1.11448,-2.22534 2.34152,-4.53236 3.94002,-6.44774c2.35715,-2.8244 2.91798,4.8 4.79463,1.93881c0.01701,-1.32046 1.19057,-2.72175 1.70168,-3.91894c0.16816,-0.39388 0.32443,-1.09298 0.70392,-1.34058c0.46561,-0.3038 1.3469,0.25227 1.7888,0.52768c1.72367,1.08116 3.81873,1.10888 5.72614,1.78465z" fill="#000000" stroke="none" stroke-width="0.5" stroke-linecap="butt"/><path d="M86.55128,114.50401v-17.15228h39.06909v17.15228c0,0 -9.19729,3.12492 -15.4096,0.08478c-2.40213,-1.17554 -2.33189,-10.56673 -4.12494,-10.56673c-2.30419,0 -2.76526,8.19043 -5.7987,9.85762c-5.64087,3.10024 -13.73584,0.62434 -13.73584,0.62434z" fill="#9966ff" stroke="#402b6b" stroke-width="2.5" stroke-linecap="butt"/><path d="M125.94654,98.42975l2.50137,-1.7867" fill="none" stroke="#402b6b" stroke-width="3" stroke-linecap="round"/><path d="M85.74588,100.39511l-3.93073,-3.21605" fill="none" stroke="#402b6b" stroke-width="3" stroke-linecap="round"/></g></g></svg>