<svg version="1.1" xmlns="http://www.w3.org/2000/svg" xmlns:xlink="http://www.w3.org/1999/xlink" width="492" height="367.57853" viewBox="0,0,492,367.57853"><defs><linearGradient x1="240.5" y1="332" x2="240.5" y2="365" gradientUnits="userSpaceOnUse" id="color-1"><stop offset="0" stop-color="#ffffff"/><stop offset="1" stop-color="#ffffff" stop-opacity="0"/></linearGradient><linearGradient x1="240.89463" y1="-2" x2="240.89463" y2="32.69503" gradientUnits="userSpaceOnUse" id="color-2"><stop offset="0" stop-color="#ffffff" stop-opacity="0"/><stop offset="1" stop-color="#ffffff"/></linearGradient><linearGradient x1="-3.5" y1="180.23215" x2="29.5" y2="180.23215" gradientUnits="userSpaceOnUse" id="color-3"><stop offset="0" stop-color="#ffffff" stop-opacity="0"/><stop offset="1" stop-color="#ffffff"/></linearGradient><linearGradient x1="450.5" y1="179.71073" x2="483.5" y2="179.71073" gradientUnits="userSpaceOnUse" id="color-4"><stop offset="0" stop-color="#ffffff"/><stop offset="1" stop-color="#ffffff" stop-opacity="0"/></linearGradient><linearGradient x1="428.30655" y1="36.30298" x2="446.00719" y2="36.30298" gradientUnits="userSpaceOnUse" id="color-5"><stop offset="0" stop-color="#000000"/><stop offset="1" stop-color="#000000" stop-opacity="0"/></linearGradient><linearGradient x1="428.30655" y1="40.78415" x2="446.00719" y2="40.78415" gradientUnits="userSpaceOnUse" id="color-6"><stop offset="0" stop-color="#000000"/><stop offset="1" stop-color="#000000" stop-opacity="0"/></linearGradient><linearGradient x1="99.78943" y1="164.69857" x2="104.57888" y2="164.69857" gradientUnits="userSpaceOnUse" id="color-7"><stop offset="0" stop-color="#000000"/><stop offset="1" stop-color="#000000" stop-opacity="0"/></linearGradient><linearGradient x1="99.78943" y1="165.91109" x2="104.57888" y2="165.91109" gradientUnits="userSpaceOnUse" id="color-8"><stop offset="0" stop-color="#000000"/><stop offset="1" stop-color="#000000" stop-opacity="0"/></linearGradient></defs><g transform="translate(5.5,2.57853)"><g data-paper-data="{&quot;isPaintingLayer&quot;:true}" fill-rule="nonzero" stroke-linejoin="miter" stroke-miterlimit="10" stroke-dasharray="" stroke-dashoffset="0" style="mix-blend-mode: normal"><path d="M-5.5,365l33,-33h424l35,33z" fill="url(#color-1)" stroke="none" stroke-width="0" stroke-linecap="butt"/><path d="M485.5,-2l-37,33l-418.21073,1.69503l-34,-33.48429z" data-paper-data="{&quot;index&quot;:null}" fill="url(#color-2)" stroke="none" stroke-width="0" stroke-linecap="butt"/><path d="M-3.5,-2l33,33v299.46429l-33,32z" fill="url(#color-3)" stroke="none" stroke-width="0" stroke-linecap="butt"/><path d="M483.5,362l-33,-30v-303.90576l33,-30.67277z" data-paper-data="{&quot;index&quot;:null}" fill="url(#color-4)" stroke="none" stroke-width="0" stroke-linecap="butt"/><path d="M28,331.5v-303h424v303z" fill="#ffffff" stroke="#000000" stroke-width="5" stroke-linecap="butt"/><path d="M34.75,326.8202v-74.3202h142.5v74.3202z" fill="#000000" stroke="none" stroke-width="0" stroke-linecap="butt"/><text transform="translate(39.59015,265.87564) scale(0.27419,0.27419)" font-size="40" xml:space="preserve" fill="#ffffff" fill-rule="nonzero" stroke="none" stroke-width="1" stroke-linecap="butt" stroke-linejoin="miter" stroke-miterlimit="10" stroke-dasharray="" stroke-dashoffset="0" font-family="Serif" font-weight="normal" text-anchor="start" style="mix-blend-mode: normal"><tspan x="0" dy="0">Name: Nile Parkas</tspan><tspan x="0" dy="46.150000000000006px">Age: 23</tspan><tspan x="0" dy="46.150000000000006px">Gender: Male</tspan><tspan x="0" dy="46.150000000000006px">Role: Communications (Head)</tspan><tspan x="0" dy="46.150000000000006px">Status: Alive</tspan></text><path d="M194.25,59v-19.5h86v19.5z" fill="#000000" stroke="none" stroke-width="0" stroke-linecap="butt"/><text transform="translate(196.5,53.9009) scale(0.42192,0.42192)" font-size="40" xml:space="preserve" fill="#ffffff" fill-rule="nonzero" stroke="none" stroke-width="1" stroke-linecap="butt" stroke-linejoin="miter" stroke-miterlimit="10" stroke-dasharray="" stroke-dashoffset="0" font-family="Serif" font-weight="normal" text-anchor="start" style="mix-blend-mode: normal"><tspan x="0" dy="0">Description:</tspan></text><path d="M429.07853,298.09424h-241v-236.31414" fill="none" stroke="#000000" stroke-width="5" stroke-linecap="round"/><path d="M37.83201,243v-205h136.5312v205z" fill="#174752" stroke="#151515" stroke-width="6.5" stroke-linecap="butt"/><path d="M37.83201,243v-205h136.5312v205z" fill="#ffffff" stroke="#151515" stroke-width="6.5" stroke-linecap="butt"/><text transform="translate(349.55711,323.11998) scale(0.35959,0.35959)" font-size="40" xml:space="preserve" fill="#000000" fill-rule="nonzero" stroke="none" stroke-width="1" stroke-linecap="butt" stroke-linejoin="miter" stroke-miterlimit="10" stroke-dasharray="" stroke-dashoffset="0" font-family="Serif" font-weight="normal" text-anchor="start" style="mix-blend-mode: normal"><tspan x="0" dy="0">Click this to exit</tspan></text><text transform="translate(194.75,83.15115) scale(0.37646,0.37646)" font-size="40" xml:space="preserve" fill="#000000" fill-rule="nonzero" stroke="none" stroke-width="1" stroke-linecap="butt" stroke-linejoin="miter" stroke-miterlimit="10" stroke-dasharray="" stroke-dashoffset="0" font-family="Serif" font-weight="normal" text-anchor="start" style="mix-blend-mode: normal"><tspan x="0" dy="0">Nile is our main communications person,</tspan><tspan x="0" dy="48px">which is ironic because he's never spoken</tspan><tspan x="0" dy="48px">a word to me. He writes most of  these</tspan><tspan x="0" dy="48px">documents, I only write these when he</tspan><tspan x="0" dy="48px">isn't here.</tspan><tspan x="0" dy="48px">Usually he isnt out and about the</tspan><tspan x="0" dy="48px">facility. I'm sorry if you have to read this,</tspan><tspan x="0" dy="48px">Nile, but you're a pretty miserable guy.</tspan><tspan x="0" dy="48px"> </tspan><tspan x="0" dy="48px">He'd make a better poet.</tspan></text><path d="M399.40297,43.92097l46.38016,-0.22406" fill="none" stroke="#000000" stroke-width="3" stroke-linecap="round"/><g stroke="none" stroke-linecap="butt"><g fill="#000000" stroke-width="1" font-weight="normal" font-size="40" text-anchor="start"><text transform="translate(399.40297,42.80068) scale(0.23516,0.23516)" font-size="40" xml:space="preserve" fill="#000000" fill-rule="nonzero" stroke="none" stroke-width="1" stroke-linecap="butt" stroke-linejoin="miter" stroke-miterlimit="10" stroke-dasharray="" stroke-dashoffset="0" font-family="Pixel" font-weight="normal" text-anchor="start" style="mix-blend-mode: normal"><tspan x="0" dy="0">DONK</tspan></text><text transform="translate(398.8418,52.32215) scale(0.23516,0.23516)" font-size="40" xml:space="preserve" fill="#000000" fill-rule="nonzero" stroke="none" stroke-width="1" stroke-linecap="butt" stroke-linejoin="miter" stroke-miterlimit="10" stroke-dasharray="" stroke-dashoffset="0" font-family="Sans Serif" font-weight="normal" text-anchor="start" style="mix-blend-mode: normal"><tspan x="0" dy="0">Industries</tspan></text></g><path d="M428.30655,37.64733v-2.6887h17.70064v2.6887z" fill="url(#color-5)" stroke-width="0"/><path d="M428.30655,42.09116v-2.61402h17.70064v2.61402z" fill="url(#color-6)" stroke-width="0"/></g><text transform="translate(186.81898,315.2765) scale(0.3147,0.3147)" font-size="40" xml:space="preserve" fill="#000000" fill-rule="nonzero" stroke="none" stroke-width="1" stroke-linecap="butt" stroke-linejoin="miter" stroke-miterlimit="10" stroke-dasharray="" stroke-dashoffset="0" font-family="Serif" font-weight="normal" text-anchor="start" style="mix-blend-mode: normal"><tspan x="0" dy="0">Written by: Otis Alder</tspan></text><path d="M134.20532,129.66771l-27.46281,26.33531l-28.1071,-26.33531c0,0 12.43974,-9.90594 27.78495,-9.90594c15.34521,0 27.78495,9.90594 27.78495,9.90594z" fill="#140309" stroke="none" stroke-width="0" stroke-linecap="butt"/><path d="M81.77942,106.03679c0.21683,-1.46294 -0.10809,-25.88313 23.17362,-26.78555c28.75869,-0.58864 25.13686,22.77479 26.75789,27.18274c0.54364,1.4783 2.56886,2.414 3.37155,3.95751c1.14378,2.19938 0.69776,3.9786 1.44709,5.77775c0.87482,2.10043 3.65803,3.89156 3.65803,3.89156l-5.68888,0.3969c0,0 0.40895,3.99646 -0.48179,8.07787c-0.75086,3.44046 -2.79819,6.94128 -3.0446,8.15951c-0.48659,2.40563 0.92454,4.07355 0.92454,4.07355c0,0 -2.64415,0.37245 -3.803,0.12707c-0.90503,-0.19164 -2.57882,-1.47837 -2.57882,-1.47837c0,0 -1.34922,1.85979 -2.16718,2.69257c-0.91126,0.92777 -3.05078,2.6199 -3.05078,2.6199l0.42391,-4.15838c0,0 -2.93802,4.68266 -14.07814,4.58833c-10.50594,-0.1646 -14.70365,-4.13969 -14.70365,-4.13969l0.73049,3.48228c0,0 -4.63621,-2.42681 -6.33361,-4.2943c-1.53193,-1.68544 -3.40534,-6.4206 -3.40534,-6.4206l-2.45837,1.07792c0,0 0.0567,-4.6492 0.6143,-5.92824c0.51511,-1.18156 2.61394,-3.08745 2.61394,-3.08745c0,0 -1.50704,1.22361 -3.68343,1.78752c-2.72713,0.70661 -4.47565,0.22245 -4.47565,0.22245c0,0 2.32456,-1.75064 3.59768,-3.07319c1.13399,-1.17802 1.70516,-2.17591 1.70516,-2.17591c0,0 -1.35789,0.69886 -2.72713,1.04243c-1.42864,0.35848 -2.59654,0.34207 -2.59654,0.34207c0,0 2.88314,-2.92332 4.20768,-6.68404c0.07183,-0.20395 -0.39566,-6.87461 -0.4706,-6.86952c-0.80392,0.05453 -1.53202,-0.03151 -1.53202,-0.03151c0,0 3.97094,-3.81539 4.05361,-4.37318z" fill="#000101" stroke="none" stroke-width="1.5" stroke-linecap="butt"/><path d="M88.54077,117.70437c-0.37181,-4.69895 0.21584,-11.05244 0.21584,-11.05244c0,0 2.19741,-0.02657 8.96482,-2.0258c5.19915,-1.53595 13.2384,-6.11251 13.2384,-6.11251c0,0 -1.3917,1.93611 -2.19561,2.87363c-0.85466,0.99669 -2.57259,2.93987 -2.57259,2.93987c0,0 5.04994,-1.07442 9.45479,-3.04704c5.52051,-2.27804 6.82464,-3.89994 8.34381,-2.95903c1.79299,1.11051 0.66366,14.93636 0.4629,18.51726c-0.27165,3.65262 -1.63216,6.12055 -2.02971,8.06684c-0.39755,1.94629 -0.2639,3.95376 -1.42144,10.3342c-0.72238,3.98184 -2.68142,5.75006 -6.4554,9.4458c-3.77398,3.69574 -5.83325,5.96144 -8.38451,6.00589c-2.45524,0.04277 -5.75714,-3.286 -8.97844,-6.68929c-3.43015,-3.62396 -5.71799,-5.46172 -6.2596,-9.75437c-0.48777,-3.86598 -0.50031,-6.38396 -0.72332,-9.82434c-0.16299,-2.51449 -1.45686,-4.15247 -1.65992,-6.71865z" fill="none" stroke="#000000" stroke-width="1.5" stroke-linecap="butt"/><path d="M80.76481,239.67258c0,0 -0.40936,-60.81048 -0.51115,-76.03383c-0.03512,-5.25264 5.27472,-23.68489 25.90171,-23.78786c20.36104,-0.10164 25.67924,18.99817 25.67417,23.77216c-0.04935,29.79369 0.42155,76.01738 0.42155,76.01738l-6.76289,0.06194l-0.10233,-73.99215c0,0 0.04864,-1.99684 -1.81448,-2.03218c-2.21275,-0.04197 -1.89768,2.00736 -1.89768,2.00736l0.13239,74.00944l-31.06353,0.04653l-0.19676,-74.24341c0,0 0.18007,-1.88068 -1.85916,-1.89062c-2.00427,-0.00976 -1.81412,1.87423 -1.81412,1.87423l0.2275,74.13627z" fill="#000000" stroke="#000000" stroke-width="2" stroke-linecap="butt"/><path d="M115.94116,172.62927c-0.36797,0 -0.66627,-0.2983 -0.66627,-0.66627c0,-0.36797 0.2983,-0.66628 0.66627,-0.66628c0.36797,0 0.66627,0.29831 0.66627,0.66628c0,0.36797 -0.2983,0.66627 -0.66627,0.66627z" fill="#000000" stroke="none" stroke-width="1.5" stroke-linecap="butt"/><path d="M112.55228,175.35822c-2.87578,-0.20256 -4.22167,-1.1558 -3.97517,-1.66234c0.07595,-0.15607 1.83394,0.68523 4.49094,0.84067c4.12923,0.24156 5.48311,-0.40702 5.48311,-0.40702v0.86732c0,0 -1.55499,0.67439 -5.99888,0.36138z" fill="#000000" stroke="#000000" stroke-width="0" stroke-linecap="butt"/><path d="M94.63283,171.96301c0,-0.36797 0.2983,-0.66628 0.66627,-0.66628c0.36797,0 0.66628,0.29831 0.66628,0.66628c0,0.36797 -0.29831,0.66627 -0.66628,0.66627c-0.36797,0 -0.66627,-0.2983 -0.66627,-0.66627z" fill="#000000" stroke="none" stroke-width="1.5" stroke-linecap="butt"/><path d="M98.68798,175.35822c-4.44389,0.31303 -5.99888,-0.36138 -5.99888,-0.36138v-0.86732c0,0 1.35388,0.64858 5.48311,0.40702c2.657,-0.15544 4.415,-0.99674 4.49095,-0.84067c0.2465,0.50653 -1.09938,1.45977 -3.97517,1.66234z" fill="#000000" stroke="#000000" stroke-width="0" stroke-linecap="butt"/><path d="M105.95586,211.79388c-0.52764,0 -0.95538,-0.42774 -0.95538,-0.95538c0,-0.52764 0.42774,-0.95538 0.95538,-0.95538c0.52764,0 0.95538,0.42774 0.95538,0.95538c0,0.52764 -0.42774,0.95538 -0.95538,0.95538z" data-paper-data="{&quot;index&quot;:null}" fill="#000000" stroke="none" stroke-width="1.5" stroke-linecap="butt"/><path d="M90.45217,240.10066v-76.80019c0,0 -1.45511,7.85178 -3.33715,9.74272c-3.44488,3.46118 -8.3201,1.71624 -8.3201,-0.32885c0,-1.43476 -0.07427,-12.41764 2.81112,-18.91355c2.94267,-6.62488 8.84613,-8.75081 8.84613,-8.75081c0,0 1.72231,-1.51599 2.99962,-2.41484c1.27731,-0.89885 3.33224,-1.8064 3.33224,-1.8064c0,0 -1.2252,15.37188 8.54294,15.32655c9.94445,-0.04614 9.7491,-15.32655 9.7491,-15.32655c0,0 2.52095,0.97906 3.97259,1.89843c0.8066,0.51085 9.66201,5.57898 12.90631,12.9596c2.59442,5.90218 0.62642,18.67898 0.62642,18.67898c0,0 -4.95917,4.33543 -7.88525,-0.4944c-1.91137,-3.15493 -3.07253,-12.09652 -3.07253,-10.88289c0,3.1196 0.48786,0.63725 0.48786,0.63725v76.47495z" fill="#cc1414" stroke="#000000" stroke-width="2" stroke-linecap="butt"/><path d="M88.29165,117.77963c-0.37181,-4.69895 0.21584,-11.05244 0.21584,-11.05244c0,0 2.19741,-0.02657 8.96482,-2.0258c5.19915,-1.53595 13.2384,-6.11251 13.2384,-6.11251c0,0 -1.3917,1.93611 -2.19561,2.87363c-0.85466,0.99669 -2.57259,2.93987 -2.57259,2.93987c0,0 5.04994,-1.07442 9.45479,-3.04704c5.52051,-2.27804 6.82464,-3.89994 8.34381,-2.95903c1.79299,1.11051 0.66366,14.93636 0.4629,18.51726c-0.27165,3.65262 -1.63216,6.12055 -2.02971,8.06684c-0.39755,1.94629 -0.2639,3.95376 -1.42144,10.3342c-0.72238,3.98184 -2.68142,5.75006 -6.4554,9.4458c-3.77398,3.69574 -5.83325,5.96144 -8.38451,6.00589c-2.45524,0.04277 -5.75714,-3.286 -8.97844,-6.68929c-3.43015,-3.62396 -5.71799,-5.46172 -6.2596,-9.75437c-0.48777,-3.86598 -0.50031,-6.38396 -0.72332,-9.82434c-0.16299,-2.51449 -1.45686,-4.15247 -1.65992,-6.71865z" fill="#ffffff" stroke="#000000" stroke-width="1.5" stroke-linecap="butt"/><path d="M119.26262,108.03775c0,0 0.98208,0.20493 2.74196,0.71535c1.60745,0.46621 2.86667,1.12366 2.86667,1.12366l0.1257,0.75404c0,0 -4.67086,-2.01661 -9.73894,-1.59178c-4.05232,0.33969 -6.41917,1.812 -6.41917,1.812l0.02948,-2.69109c0,0 2.015,-1.098 5.06647,-1.19552c3.15977,-0.10097 5.21284,0.38094 5.21284,0.38094z" data-paper-data="{&quot;index&quot;:null}" fill="#000000" stroke="none" stroke-width="1.5" stroke-linecap="butt"/><path d="M111.03883,135.73414c0.3675,0.1365 1.98671,0.90163 3.8811,1.67248c1.90948,0.77699 4.64766,1.47732 4.63509,1.58527c-0.01595,0.13701 -6.72301,0.14621 -8.81347,0.40735c-1.75183,0.21883 -4.30944,0.45464 -4.30944,0.45464c0,0 -4.57704,-0.74846 -8.55123,-1.57542c-3.18518,-0.66277 -6.70015,-1.07022 -6.70702,-1.13048c-0.00927,-0.08126 2.49234,-0.4579 4.39674,-0.89857c0.73826,-0.31996 3.50474,-0.95685 3.50474,-0.95685c0,0 3.193,-0.17889 4.90192,0.37304c1.83109,0.5914 1.82686,1.57565 1.98641,1.59079c0,0 0.76307,-1.12707 1.52623,-1.35598c0.76317,-0.2289 3.2744,-0.26824 3.54892,-0.16628z" fill="#ffffff" stroke="#000000" stroke-width="1.4" stroke-linecap="butt"/><path d="M99.02414,138.66797c3.28017,0.66152 7.67835,1.80875 7.67835,1.80875c0,0 3.73028,-1.00242 5.44217,-1.18188c1.32718,-0.13914 7.22634,-0.45522 7.25486,-0.21504c0.02788,0.23482 -5.8187,8.31154 -13.62547,8.01955c-8.87156,-0.28077 -14.7314,-9.75169 -14.70702,-9.86066c0.02438,-0.10897 4.67696,0.76777 7.95712,1.42929z" fill="#ffffff" stroke="#000000" stroke-width="1.9" stroke-linecap="butt"/><path d="M106.09473,136.73918c-0.66604,0 -2.27956,-2.10065 -2.43973,-3.45577c-0.14331,-1.21246 0.84732,-2.46633 2.43973,-2.46633c1.59242,0 2.70737,0.3162 2.59648,2.69862c-0.09411,2.02189 -1.00407,3.22349 -2.59648,3.22349z" fill="#ffffff" stroke="#000000" stroke-width="1.15" stroke-linecap="butt"/><path d="M108.41553,117.35013c0,0 0.0661,2.55767 0.00371,4.5916c-0.12354,4.02753 -0.69678,17.88591 -0.69678,17.88591l-1.92106,0.00557c0,0 -0.51733,-2.68845 -0.72368,-6.12061c-0.27932,-4.64573 -0.28961,-10.49753 -0.49188,-12.64887c-0.19173,-2.03926 -0.57724,-3.68181 -0.57724,-3.68181" fill="#ffffff" stroke="#000000" stroke-width="1.3" stroke-linecap="round"/><path d="M89.38671,124.30191c0,0 -3.1777,-2.266 -3.97151,-5.78251c-0.83523,-3.70005 -0.94142,-6.27074 0.30934,-6.43769c1.25076,-0.16697 1.74165,1.53142 2.40489,5.38348c0.66323,3.85206 1.25728,6.83672 1.25728,6.83672z" data-paper-data="{&quot;index&quot;:null}" fill="#ffffff" stroke="#000000" stroke-width="1" stroke-linecap="butt"/><path d="M89.25619,121.75854c0,0 -2.29615,-1.8835 -2.78214,-5.44463c-0.27111,-1.98652 1.38957,-1.46908 1.38957,-1.46908" fill="none" stroke="#000000" stroke-width="0.25" stroke-linecap="round"/><path d="M91.19769,117.47021c0.0457,-3.15178 3.11729,-5.75742 6.57907,-5.70724c3.46178,0.05019 5.81615,2.7372 5.77046,5.88899c-0.0457,3.15178 -2.65674,5.66613 -6.11852,5.61594c-3.46178,-0.05019 -6.27671,-2.6459 -6.23101,-5.79769z" fill="#ffffff" stroke="#000000" stroke-width="1.4" stroke-linecap="butt"/><path d="M94.05681,117.5462c0.02577,-1.77723 1.48737,-3.19705 3.26459,-3.17128c1.77723,0.02577 3.19705,1.48737 3.17128,3.26459c-0.02577,1.77723 -1.48737,3.19705 -3.26459,3.17128c-1.77723,-0.02577 -3.19705,-1.48737 -3.17128,-3.26459z" fill="#000000" stroke="none" stroke-width="1.5" stroke-linecap="butt"/><path d="M108.62975,117.47069c0.13113,-3.14939 2.86879,-5.70741 6.29501,-5.70741c3.42622,0 5.97548,2.5553 5.97548,5.70741c0,3.15212 -2.50361,5.84437 -6.24937,5.89001c-3.5629,0.04342 -6.15806,-2.60094 -6.02112,-5.89001z" fill="#ffffff" stroke="#000000" stroke-width="1.4" stroke-linecap="butt"/><path d="M111.59525,117.5258c0,-1.8159 1.47207,-3.28797 3.28797,-3.28797c1.8159,0 3.28797,1.47207 3.28797,3.28797c0,1.8159 -1.47206,3.28797 -3.28797,3.28797c-1.8159,0 -3.28797,-1.47207 -3.28797,-3.28797z" fill="#000000" stroke="none" stroke-width="1.5" stroke-linecap="butt"/><path d="M91.1536,117.12734c0,0 0.04096,-5.80834 6.83018,-5.68579c6.10207,0.10686 6.15653,6.06097 6.15653,6.06097z" fill="#ffffff" stroke="#000000" stroke-width="1.15" stroke-linecap="butt"/><path d="M108.38643,117.21167c0,0 -0.15905,-6.09381 7.21483,-5.86509c6.2588,0.21485 6.15088,6.21886 6.15088,6.21886z" fill="#ffffff" stroke="#000000" stroke-width="1.15" stroke-linecap="butt"/><path d="M93.42784,110.67694c0,0 2.17102,-1.17196 5.17521,-1.47013c3.32903,-0.33041 5.00498,-0.0427 5.00498,-0.0427l0.19012,2.66573c0,0 -2.4712,-0.43854 -5.16588,-0.33576c-3.6038,0.13745 -4.28122,0.92322 -7.02129,1.21847c-2.34784,0.25299 -4.34072,0.10234 -4.34072,0.10234l-0.01668,-0.79347c0,0 2.31633,0.04766 3.37202,-0.04404c0.87133,-0.0757 2.5615,-0.60439 2.5615,-0.60439z" fill="#000000" stroke="none" stroke-width="1.5" stroke-linecap="butt"/><path d="M124.32854,117.46518c0.66323,-3.85206 1.15411,-5.55044 2.40489,-5.38348c1.25076,0.16696 1.14457,2.73764 0.30934,6.43769c-0.7938,3.51651 -3.97151,5.78251 -3.97151,5.78251c0,0 0.59405,-2.98467 1.25728,-6.83672z" data-paper-data="{&quot;index&quot;:null}" fill="#ffffff" stroke="#000000" stroke-width="1" stroke-linecap="butt"/><path d="M124.59434,114.84482c0,0 1.66068,-0.51744 1.38957,1.46908c-0.48599,3.56113 -2.78214,5.44463 -2.78214,5.44463" data-paper-data="{&quot;index&quot;:null}" fill="none" stroke="#000000" stroke-width="0.25" stroke-linecap="round"/><path d="M84.33087,129.89028c0,0 2.47627,-5.17713 3.81161,-8.12987c0.47146,-1.0425 1.12086,-4.11996 1.12086,-4.11996c0,0 -1.62499,0.67522 -3.03878,0.94764c-1.73966,0.33522 -5.98153,0.91461 -5.98153,0.91461l4.08785,-14.23558l37.85198,-13.86346l6.28182,17.38105c0,0 -5.37412,10.01416 -9.43423,13.83323c-3.02422,2.84467 -13.06959,8.47992 -13.06959,8.47992l1.9541,-5.9027c0,0 -6.08724,2.3747 -9.76015,3.10589c-4.13383,0.82296 -13.82392,1.58921 -13.82392,1.58921z" fill="#000000" stroke="none" stroke-width="0" stroke-linecap="butt"/><path d="M90.89182,239.63946v-24.29021c0,0 12.21079,-7.41673 17.108,-13.32022c5.26662,-6.3488 13.46416,-23.53389 13.46416,-23.53389l0.41879,61.14433z" fill="#a10000" stroke="none" stroke-width="0" stroke-linecap="butt"/><g stroke="#ffffff" stroke-linecap="butt"><g fill="#000000" stroke-width="1" font-weight="normal" font-size="40" text-anchor="start"><text transform="translate(91.96869,166.45671) scale(0.06363,0.06363)" font-size="40" xml:space="preserve" fill="#000000" fill-rule="nonzero" stroke="#ffffff" stroke-width="1" stroke-linecap="butt" stroke-linejoin="miter" stroke-miterlimit="10" stroke-dasharray="" stroke-dashoffset="0" font-family="Pixel" font-weight="normal" text-anchor="start" style="mix-blend-mode: normal"><tspan x="0" dy="0">DONK</tspan></text><text transform="translate(91.81684,169.03305) scale(0.06363,0.06363)" font-size="40" xml:space="preserve" fill="#000000" fill-rule="nonzero" stroke="#ffffff" stroke-width="1" stroke-linecap="butt" stroke-linejoin="miter" stroke-miterlimit="10" stroke-dasharray="" stroke-dashoffset="0" font-family="Sans Serif" font-weight="normal" text-anchor="start" style="mix-blend-mode: normal"><tspan x="0" dy="0">Industries</tspan></text></g><path d="M99.78943,165.06232v-0.72751h4.78945v0.72751z" fill="url(#color-7)" stroke-width="0.5"/><path d="M99.78943,166.26474v-0.7073h4.78945v0.7073z" fill="url(#color-8)" stroke-width="0.5"/></g></g></g></svg>