<svg version="1.1" xmlns="http://www.w3.org/2000/svg" xmlns:xlink="http://www.w3.org/1999/xlink" width="492" height="367.57853" viewBox="0,0,492,367.57853"><defs><linearGradient x1="240.5" y1="332" x2="240.5" y2="365" gradientUnits="userSpaceOnUse" id="color-1"><stop offset="0" stop-color="#ffffff"/><stop offset="1" stop-color="#ffffff" stop-opacity="0"/></linearGradient><linearGradient x1="240.89463" y1="-2" x2="240.89463" y2="32.69503" gradientUnits="userSpaceOnUse" id="color-2"><stop offset="0" stop-color="#ffffff" stop-opacity="0"/><stop offset="1" stop-color="#ffffff"/></linearGradient><linearGradient x1="-3.5" y1="180.23215" x2="29.5" y2="180.23215" gradientUnits="userSpaceOnUse" id="color-3"><stop offset="0" stop-color="#ffffff" stop-opacity="0"/><stop offset="1" stop-color="#ffffff"/></linearGradient><linearGradient x1="450.5" y1="179.71073" x2="483.5" y2="179.71073" gradientUnits="userSpaceOnUse" id="color-4"><stop offset="0" stop-color="#ffffff"/><stop offset="1" stop-color="#ffffff" stop-opacity="0"/></linearGradient><linearGradient x1="428.30655" y1="36.30298" x2="446.00719" y2="36.30298" gradientUnits="userSpaceOnUse" id="color-5"><stop offset="0" stop-color="#000000"/><stop offset="1" stop-color="#000000" stop-opacity="0"/></linearGradient><linearGradient x1="428.30655" y1="40.78415" x2="446.00719" y2="40.78415" gradientUnits="userSpaceOnUse" id="color-6"><stop offset="0" stop-color="#000000"/><stop offset="1" stop-color="#000000" stop-opacity="0"/></linearGradient><radialGradient cx="98.17314" cy="109.53627" r="8.74656" gradientUnits="userSpaceOnUse" id="color-7"><stop offset="0" stop-color="#ffffff"/><stop offset="1" stop-color="#ffffff" stop-opacity="0"/></radialGradient></defs><g transform="translate(5.5,2.57853)"><g data-paper-data="{&quot;isPaintingLayer&quot;:true}" fill-rule="nonzero" stroke-linejoin="miter" stroke-miterlimit="10" stroke-dasharray="" stroke-dashoffset="0" style="mix-blend-mode: normal"><path d="M-5.5,365l33,-33h424l35,33z" fill="url(#color-1)" stroke="none" stroke-width="0" stroke-linecap="butt"/><path d="M485.5,-2l-37,33l-418.21073,1.69503l-34,-33.48429z" data-paper-data="{&quot;index&quot;:null}" fill="url(#color-2)" stroke="none" stroke-width="0" stroke-linecap="butt"/><path d="M-3.5,-2l33,33v299.46429l-33,32z" fill="url(#color-3)" stroke="none" stroke-width="0" stroke-linecap="butt"/><path d="M483.5,362l-33,-30v-303.90576l33,-30.67277z" data-paper-data="{&quot;index&quot;:null}" fill="url(#color-4)" stroke="none" stroke-width="0" stroke-linecap="butt"/><path d="M28,331.5v-303h424v303z" fill="#ffffff" stroke="#000000" stroke-width="5" stroke-linecap="butt"/><path d="M34.75,326.8202v-74.3202h142.5v74.3202z" fill="#000000" stroke="none" stroke-width="0" stroke-linecap="butt"/><text transform="translate(39.59015,266.55803) scale(0.29391,0.29391)" font-size="40" xml:space="preserve" fill="#ffffff" fill-rule="nonzero" stroke="none" stroke-width="1" stroke-linecap="butt" stroke-linejoin="miter" stroke-miterlimit="10" stroke-dasharray="" stroke-dashoffset="0" font-family="Serif" font-weight="normal" text-anchor="start" style="mix-blend-mode: normal"><tspan x="0" dy="0">Name: Dan Zhek</tspan><tspan x="0" dy="46.150000000000006px">Age: 18</tspan><tspan x="0" dy="46.150000000000006px">Gender: Male</tspan><tspan x="0" dy="46.150000000000006px">Role: Engineer</tspan><tspan x="0" dy="46.150000000000006px">Status: Immortal</tspan></text><path d="M194.25,59v-19.5h86v19.5z" fill="#000000" stroke="none" stroke-width="0" stroke-linecap="butt"/><text transform="translate(196.5,53.9009) scale(0.42192,0.42192)" font-size="40" xml:space="preserve" fill="#ffffff" fill-rule="nonzero" stroke="none" stroke-width="1" stroke-linecap="butt" stroke-linejoin="miter" stroke-miterlimit="10" stroke-dasharray="" stroke-dashoffset="0" font-family="Serif" font-weight="normal" text-anchor="start" style="mix-blend-mode: normal"><tspan x="0" dy="0">Description:</tspan></text><path d="M429.07853,298.09424h-241v-236.31414" fill="none" stroke="#000000" stroke-width="5" stroke-linecap="round"/><path d="M37.83201,243v-205h136.5312v205z" fill="#174752" stroke="#151515" stroke-width="6.5" stroke-linecap="butt"/><path d="M37.83201,243v-205h136.5312v205z" fill="#ffffff" stroke="#151515" stroke-width="6.5" stroke-linecap="butt"/><text transform="translate(349.55711,323.11998) scale(0.35959,0.35959)" font-size="40" xml:space="preserve" fill="#000000" fill-rule="nonzero" stroke="none" stroke-width="1" stroke-linecap="butt" stroke-linejoin="miter" stroke-miterlimit="10" stroke-dasharray="" stroke-dashoffset="0" font-family="Serif" font-weight="normal" text-anchor="start" style="mix-blend-mode: normal"><tspan x="0" dy="0">Click this to exit</tspan></text><text transform="translate(194.75,84.47359) scale(0.38792,0.38792)" font-size="40" xml:space="preserve" fill="#000000" fill-rule="nonzero" stroke="none" stroke-width="1" stroke-linecap="butt" stroke-linejoin="miter" stroke-miterlimit="10" stroke-dasharray="" stroke-dashoffset="0" font-family="Serif" font-weight="normal" text-anchor="start" style="mix-blend-mode: normal"><tspan x="0" dy="0">Dan is a gifted boy, he came here</tspan><tspan x="0" dy="48px">at 16 and asked me to show him around.</tspan><tspan x="0" dy="48px">He did some unimaginable things.</tspan><tspan x="0" dy="48px">I then tested on him to see how he</tspan><tspan x="0" dy="48px">could cope with becoming a cyborg</tspan><tspan x="0" dy="48px">and he did perfectly fine.</tspan><tspan x="0" dy="48px"> </tspan><tspan x="0" dy="48px">I do not think he likes me</tspan></text><path d="M399.40297,43.92097l46.38016,-0.22406" fill="none" stroke="#000000" stroke-width="3" stroke-linecap="round"/><g stroke="none" stroke-linecap="butt"><g fill="#000000" stroke-width="1" font-weight="normal" font-size="40" text-anchor="start"><text transform="translate(399.40297,42.80068) scale(0.23516,0.23516)" font-size="40" xml:space="preserve" fill="#000000" fill-rule="nonzero" stroke="none" stroke-width="1" stroke-linecap="butt" stroke-linejoin="miter" stroke-miterlimit="10" stroke-dasharray="" stroke-dashoffset="0" font-family="Pixel" font-weight="normal" text-anchor="start" style="mix-blend-mode: normal"><tspan x="0" dy="0">DONK</tspan></text><text transform="translate(398.8418,52.32215) scale(0.23516,0.23516)" font-size="40" xml:space="preserve" fill="#000000" fill-rule="nonzero" stroke="none" stroke-width="1" stroke-linecap="butt" stroke-linejoin="miter" stroke-miterlimit="10" stroke-dasharray="" stroke-dashoffset="0" font-family="Sans Serif" font-weight="normal" text-anchor="start" style="mix-blend-mode: normal"><tspan x="0" dy="0">Industries</tspan></text></g><path d="M428.30655,37.64733v-2.6887h17.70064v2.6887z" fill="url(#color-5)" stroke-width="0"/><path d="M428.30655,42.09116v-2.61402h17.70064v2.61402z" fill="url(#color-6)" stroke-width="0"/></g><text transform="translate(186.81898,313.84432) scale(0.30019,0.30019)" font-size="40" xml:space="preserve" fill="#000000" fill-rule="nonzero" stroke="none" stroke-width="1" stroke-linecap="butt" stroke-linejoin="miter" stroke-miterlimit="10" stroke-dasharray="" stroke-dashoffset="0" font-family="Serif" font-weight="normal" text-anchor="start" style="mix-blend-mode: normal"><tspan x="0" dy="0">Written by: Drummond Raylyn</tspan></text><path d="M81.2351,94.77587c0.24569,-1.56867 -0.1188,-27.60629 25.94242,-28.87406c0.00755,3.01985 0.06904,6.09594 0.41081,9.02125c0.55811,4.74397 0.08118,9.77728 0.08118,14.55284c0,4.68714 -0.49057,10.0321 0.60518,14.58514c1.35453,4.49176 2.57252,9.50085 1.75023,14.19172c-0.86381,4.95043 -0.78705,9.63423 -0.09917,14.59817c0.19034,1.37205 0.50354,2.74258 0.85478,4.11411c-0.39327,0.01229 -0.79423,0.01706 -1.20299,0.01378c-11.97597,-0.17755 -19.14797,-7.41938 -19.14797,-7.41938l-0.08534,1.84514c0,0 -2.86048,-2.2885 -4.5399,-6.74685c-2.00168,-5.31383 -2.37919,-8.50919 -2.37919,-8.50919c0,0 -1.71791,1.31994 -4.19883,1.92824c-3.10872,0.76224 -5.1019,0.23996 -5.1019,0.23996c0,0 2.64983,-1.88846 4.10109,-3.31513c1.29267,-1.27076 1.94376,-2.34721 1.94376,-2.34721c0,0 -1.54789,0.75388 -3.10872,1.12449c-1.62854,0.3867 -2.95985,0.369 -2.95985,0.369c0,0 3.65378,-3.50097 5.16366,-7.55775c1.42557,-3.83026 1.54212,-7.61545 1.54212,-7.61545c0,0 -1.00005,0.45984 -2.44578,0.55262c-0.91489,0.05872 -1.74364,-0.03368 -1.74638,-0.03399c0.0064,-0.00582 4.52663,-4.11618 4.6208,-4.71746z" fill="#402b6b" stroke="none" stroke-width="1.5" stroke-linecap="butt"/><path d="M107.17753,65.9018c0.00755,3.01985 0.06904,6.09594 0.41081,9.02125c0.55811,4.74397 0.08118,9.77728 0.08118,14.55284c0,4.68714 -0.49057,10.0321 0.60518,14.58514c1.35453,4.49176 2.57252,9.50085 1.75023,14.19172c-0.11047,0.63312 -0.20556,1.26188 -0.28596,1.88742c-4.14344,-5.33885 -7.55606,-10.91742 -11.06803,-16.82274c-2.29011,-3.85079 -5.14587,-7.72161 -7.02068,-11.78667c-0.94498,-2.04894 -1.4437,-4.27555 -2.17003,-6.4118c-0.96839,-2.8482 -1.93677,-5.6964 -2.90517,-8.5446c3.66272,-5.46038 9.90733,-10.15228 20.60246,-10.67256z" fill="#6712b1" stroke="none" stroke-width="1.5" stroke-linecap="butt"/><path d="M80.02634,238.851l-0.55139,-82.01966c0,0 5.68997,-25.54951 27.94084,-25.66058c21.96398,-0.10964 27.70086,20.49382 27.69539,25.64364c-0.00548,5.14982 3.11301,50.1097 0.45474,82.00192c-0.26335,3.15954 0.31189,-0.67014 0.23965,-0.26128c-0.14003,0.79249 -0.79657,3.13807 -1.27922,2.4562c-1.18288,-1.67115 -1.73842,-1.87457 -2.80791,-2.07632c-1.57196,-0.29653 -3.44783,-0.05178 -3.44783,-0.05178l-0.11038,-79.81724c0,0 0.05247,-2.15405 -1.95733,-2.19217c-2.38695,-0.04527 -2.04707,2.16539 -2.04707,2.16539l0.14281,79.83589l-33.50903,0.05019l-0.21225,-80.08828c0,0 0.19425,-2.02874 -2.00552,-2.03946c-2.16206,-0.01053 -1.95694,2.02178 -1.95694,2.02178l0.24542,79.97271z" fill="#ffffff" stroke="#000000" stroke-width="2" stroke-linecap="butt"/><path d="M117.97194,166.52971c-0.39694,0 -0.71872,-0.32178 -0.71872,-0.71872c0,-0.39694 0.32178,-0.71873 0.71872,-0.71873c0.39694,0 0.71872,0.32179 0.71872,0.71873c0,0.39694 -0.32178,0.71872 -0.71872,0.71872z" fill="#000000" stroke="none" stroke-width="1.5" stroke-linecap="butt"/><path d="M114.31631,169.47349c-3.10218,-0.2185 -4.55403,-1.24679 -4.28811,-1.79321c0.08193,-0.16836 1.97831,0.73918 4.84449,0.90685c4.45431,0.26058 5.91477,-0.43906 5.91477,-0.43906v0.9356c0,0 -1.67741,0.72748 -6.47115,0.38982z" fill="#000000" stroke="#000000" stroke-width="0" stroke-linecap="butt"/><path d="M94.98614,165.81099c0,-0.39694 0.32178,-0.71873 0.71872,-0.71873c0.39694,0 0.71873,0.32179 0.71873,0.71873c0,0.39694 -0.32179,0.71872 -0.71873,0.71872c-0.39694,0 -0.71872,-0.32178 -0.71872,-0.71872z" fill="#000000" stroke="none" stroke-width="1.5" stroke-linecap="butt"/><path d="M99.36053,169.47349c-4.79374,0.33767 -6.47115,-0.38982 -6.47115,-0.38982v-0.9356c0,0 1.46047,0.69964 5.91477,0.43906c2.86618,-0.16768 4.76257,-1.07521 4.8445,-0.90685c0.26591,0.5464 -1.18593,1.57469 -4.28811,1.79321z" fill="#000000" stroke="#000000" stroke-width="0" stroke-linecap="butt"/><path d="M107.20057,208.77753c-0.56918,0 -1.03059,-0.46141 -1.03059,-1.03059c0,-0.56918 0.46141,-1.03059 1.03059,-1.03059c0.56918,0 1.03059,0.46141 1.03059,1.03059c0,0.56918 -0.46141,1.03059 -1.03059,1.03059z" data-paper-data="{&quot;index&quot;:null}" fill="#000000" stroke="none" stroke-width="1.5" stroke-linecap="butt"/><path d="M90.47634,238.86101v-82.84635l-8.76301,-9.22669c0,0 -0.44088,-2.83963 -0.44088,-3.26454c0,-3.12616 9.20389,-7.19605 9.20389,-7.19605c0,0 1.8579,-1.63534 3.23576,-2.60495c1.37787,-0.96961 3.59458,-1.94861 3.59458,-1.94861c0,0 -3.40115,30.25005 6.04348,32.01865c0.34158,0.06397 3.70775,-4.18962 4.07555,-4.19133c3.36074,-0.0156 10.35309,-7.31527 10.35309,-7.31527l-0.74002,-20.51205c0,0 2.71941,1.05613 4.28533,2.04789c1.56592,0.99175 3.30394,2.50567 3.30394,2.50567c0,0 6.66023,6.16127 7.2766,6.9674c1.73416,2.26805 3.89648,7.64546 3.89648,7.64546c0,0 -3.72094,7.52891 -5.71169,8.49554c-1.68097,0.81622 -5.46139,-3.07027 -5.46139,-3.07027v25.62039c-1.16045,0.55347 -4.03929,1.79033 -5.06186,2.88324c-0.83312,0.89042 -1.18264,2.75735 -2.40204,2.7591c-5.11123,0.00734 -9.58104,0.32909 -14.35418,2.24148c-1.55924,0.62472 -4.15178,1.67061 -4.90843,3.268c-1.28601,2.71499 -1.66912,5.79857 -0.36933,8.63447c0.53881,1.17558 2.32178,2.1378 2.80624,3.36561c0.45217,1.14596 -0.46952,3.96115 0.36958,5.21103c3.3801,5.03482 6.91044,3.5179 11.08066,6.19585c4.18787,2.6893 8.31158,4.2344 12.83936,3.64755v18.6688z" fill="#9966ff" stroke="#6712b1" stroke-width="2" stroke-linecap="butt"/><path d="M134.7145,95.20434c2.39766,6.51979 4.27893,12.0933 4.27893,12.0933c0,0 -1.9232,-1.42721 -2.83544,-2.17814c-0.85083,-0.70038 -2.64204,-2.1864 -2.64204,-2.1864c0,0 2.14836,7.19204 0.9111,14.38324c-1.08582,6.58939 -5.07207,11.97187 -5.07207,11.97187l-0.80289,-1.63143c0,0 -0.71076,1.52759 -1.50126,2.31629c-0.79051,0.78869 -2.38996,2.02438 -2.38996,2.02438l-0.06398,-2.57447c0,0 -4.40404,6.87292 -15.0857,7.5097c-0.33632,-1.39048 -0.63692,-2.7802 -0.81966,-4.17221c-0.64345,-4.89617 -0.71576,-9.51187 0.09047,-14.39448c0.78748,-4.78992 -0.35819,-9.89013 -1.66883,-14.47785c-1.03053,-4.49162 -0.55084,-9.787 -0.55084,-14.41224c0,-4.80401 0.4432,-9.85598 -0.08103,-14.62921c-0.3216,-2.90882 -0.37838,-5.96712 -0.3849,-8.96959c30.7557,-0.49679 26.87409,24.58489 28.61808,29.32724z" fill="#000000" stroke="none" stroke-width="1.5" stroke-linecap="butt"/><path d="M76.47937,99.49334c0,0 0,0 0.00001,0c-0.00001,0.00001 -0.00001,0.00001 -0.00001,0.00001z" fill="#000000" stroke="none" stroke-width="1.5" stroke-linecap="butt"/><path d="M112.32976,86.66044c0,0 -1.50126,2.08853 -2.36847,3.09985c-0.92194,1.07515 -2.77512,3.17131 -2.77512,3.17131c0,0 5.4475,-1.15901 10.19912,-3.28692c5.95511,-2.45739 7.36192,-4.20696 9.00069,-3.19198c1.93415,1.19794 0.7159,16.11223 0.49934,19.97505c-0.29304,3.94017 -1.76065,6.60239 -2.1895,8.70191c-0.42885,2.09952 -0.28468,4.26502 -1.53335,11.14777c-0.77925,4.29531 -2.89252,6.20274 -6.96361,10.18943c-4.07109,3.9867 -6.29248,6.43076 -9.04459,6.47871c-2.64853,0.04614 -6.21038,-3.5447 -9.68527,-7.21591c-1.68635,-1.78163 -3.11676,-3.16306 -4.22956,-4.57734c0.42977,-0.32314 0.87008,-0.64029 1.32691,-0.94667c2.66745,-2.66091 5.47578,-5.46143 6.25481,-9.33052c1.31208,-3.91576 3.77112,-7.36389 5.09676,-11.35185c0.63192,-3.15979 1.7396,-7.22554 0.93571,-10.44099c0,-2.16805 -0.16754,-4.44086 -0.36515,-6.6068c-0.07403,-0.81136 -0.37627,-1.64923 -0.55017,-2.47027c3.51284,-1.70605 6.39145,-3.34478 6.39145,-3.34478z" fill="#ffffff" stroke="#000000" stroke-width="1.5" stroke-linecap="butt"/><path d="M88.14574,107.362c-0.40108,-5.06888 0.23283,-11.92255 0.23283,-11.92255c0,0 2.3704,-0.02866 9.67059,-2.18528c2.18788,-0.64635 4.842,-1.79184 7.26563,-2.9487c0.17473,0.74117 0.41298,1.48539 0.48131,2.2304c0.1993,2.1729 0.36774,4.45583 0.36774,6.63134c0.78337,3.1334 0.82344,6.37029 0.20761,9.44957c-1.33167,3.98325 -4.92108,8.16017 -6.22201,12.07996c-0.74026,3.72771 -3.46551,6.40675 -6.02371,8.97143c-0.45009,0.29813 -0.88484,0.60697 -1.30968,0.92211c-1.0921,-1.5197 -1.81656,-3.14092 -2.09943,-5.38292c-0.52617,-4.17034 -0.5397,-6.88654 -0.78026,-10.59777c-0.17582,-2.71244 -1.57155,-4.47937 -1.7906,-7.24758z" fill="#5500ff" stroke="#000000" stroke-width="1.5" stroke-linecap="butt"/><path d="M121.5549,96.85318c0,0 1.0594,0.22106 2.95783,0.77166c1.734,0.50292 3.09235,1.21212 3.09235,1.21212l0.1356,0.81341c0,0 -5.03857,-2.17536 -10.50565,-1.71709c-4.37134,0.36644 -6.92453,1.95465 -6.92453,1.95465l0.0318,-2.90294c0,0 2.17363,-1.18444 5.46533,-1.28964c3.40853,-0.10892 5.62322,0.41093 5.62322,0.41093z" data-paper-data="{&quot;index&quot;:null}" fill="#000000" stroke="none" stroke-width="1.5" stroke-linecap="butt"/><path d="M107.35038,127.8141c-0.71847,0 -2.45902,-2.26603 -2.6318,-3.72783c-0.15459,-1.30791 0.91402,-2.6605 2.6318,-2.6605c1.71778,0 2.92051,0.34109 2.80089,2.91107c-0.10152,2.18107 -1.08311,3.47726 -2.80089,3.47726z" fill="#ffffff" stroke="#000000" stroke-width="1.15" stroke-linecap="butt"/><path d="M89.327,114.39775c0,0 -3.42787,-2.44439 -4.28417,-6.23774c-0.90098,-3.99134 -1.01554,-6.7644 0.3337,-6.9445c1.34923,-0.18011 1.87876,1.65199 2.59421,5.8073c0.71544,4.15531 1.35627,7.37495 1.35627,7.37495z" data-paper-data="{&quot;index&quot;:null}" fill="#ffffff" stroke="#9966ff" stroke-width="1" stroke-linecap="butt"/><path d="M89.18621,111.65416c0,0 -2.47692,-2.03178 -3.00117,-5.87327c-0.29245,-2.14291 1.49897,-1.58474 1.49897,-1.58474" fill="none" stroke="#9966ff" stroke-width="0.25" stroke-linecap="round"/><path d="M91.28054,107.02823c0.0493,-3.39991 3.3627,-6.21068 7.09702,-6.15655c3.73431,0.05414 6.27403,2.95269 6.22474,6.3526c-0.0493,3.39991 -2.86589,6.1122 -6.60021,6.05806c-3.73431,-0.05414 -6.77085,-2.8542 -6.72155,-6.25412z" fill="#ffffff" stroke="#000000" stroke-width="1.4" stroke-linecap="butt"/><path d="M110.08496,107.02873c0.14146,-3.39733 3.09463,-6.15674 6.79059,-6.15674c3.69595,0 6.4459,2.75646 6.4459,6.15674c0,3.40027 -2.70071,6.30447 -6.74136,6.35371c-3.84339,0.04684 -6.64286,-2.8057 -6.49514,-6.35371z" fill="#ffffff" stroke="#000000" stroke-width="1.4" stroke-linecap="butt"/><path d="M113.28393,107.0882c0,-1.95885 1.58796,-3.54682 3.54682,-3.54682c1.95885,0 3.54682,1.58796 3.54682,3.54682c0,1.95885 -1.58795,3.54682 -3.54682,3.54682c-1.95885,0 -3.54682,-1.58796 -3.54682,-3.54682z" fill="#000000" stroke="none" stroke-width="1.5" stroke-linecap="butt"/><path d="M109.82249,106.74934c0,0 -0.17157,-6.57355 7.78282,-6.32683c6.75153,0.23177 6.63511,6.70845 6.63511,6.70845c0,0 -4.64603,-2.91528 -7.10604,-2.9804c-2.33995,-0.06193 -7.31189,2.59877 -7.31189,2.59877z" fill="#ffffff" stroke="#000000" stroke-width="1.15" stroke-linecap="butt"/><path d="M93.68628,99.70014c0,0 2.34193,-1.26423 5.58264,-1.58586c3.59111,-0.35642 5.39901,-0.04607 5.39901,-0.04607l0.20508,2.87559c0,0 -2.66574,-0.47306 -5.57256,-0.36219c-3.88752,0.14827 -4.61827,0.9959 -7.57405,1.3144c-2.53268,0.2729 -4.68245,0.1104 -4.68245,0.1104l-0.01799,-0.85594c0,0 2.49868,0.05142 3.63749,-0.04751c0.93993,-0.08166 2.76316,-0.65198 2.76316,-0.65198z" fill="#000000" stroke="none" stroke-width="1.5" stroke-linecap="butt"/><path d="M127.01965,107.0228c0.71544,-4.15531 1.24497,-5.9874 2.59421,-5.8073c1.34923,0.18011 1.23468,2.95316 0.3337,6.9445c-0.8563,3.79335 -4.28417,6.23774 -4.28417,6.23774c0,0 0.64082,-3.21964 1.35627,-7.37495z" data-paper-data="{&quot;index&quot;:null}" fill="#ffffff" stroke="#000000" stroke-width="1" stroke-linecap="butt"/><path d="M127.30636,104.19614c0,0 1.79142,-0.55818 1.49897,1.58474c-0.52425,3.84149 -3.00117,5.87327 -3.00117,5.87327" data-paper-data="{&quot;index&quot;:null}" fill="none" stroke="#000000" stroke-width="0.25" stroke-linecap="round"/><g data-paper-data="{&quot;index&quot;:null}" stroke="none" stroke-linecap="butt"><path d="M121.0516,130.04133c0,0 -5.15597,9.92021 -14.66245,9.72992c-10.04796,-0.20112 -15.74357,-11.48673 -15.74357,-11.48673c0,0 2.31542,-2.17338 8.04069,-2.97304c6.77172,-0.94581 8.57185,2.4084 8.57185,2.4084c0,0 1.30305,-2.69831 4.97196,-1.7253c4.90047,1.29964 8.82151,4.04674 8.82151,4.04674z" fill="#000000" stroke-width="0"/><path d="M107.62774,128.76589c0.29087,0.67125 0.10627,0.60462 -0.03153,0.79853c-0.199,0.14916 -3.51072,0.05535 -5.24061,-0.22807c-1.77582,-0.34307 -4.14232,-0.82395 -4.93835,-0.97311c-4.14865,-0.68618 -2.15631,-1.65797 3.67625,-1.76237c3.68938,-0.04472 6.02903,0.98657 6.53423,2.16501z" data-paper-data="{&quot;noHover&quot;:false,&quot;origItem&quot;:[&quot;Path&quot;,{&quot;applyMatrix&quot;:true,&quot;segments&quot;:[[[698.98847,304.80029],[1.88282,-0.02282],[-2.97656,0.05328]],[[697.24629,305.59961],[-2.1172,-0.35018],[0.40624,0.07612]],[[699.58223,306.04875],[-0.90626,-0.17508],[0.88282,0.14464]],[[701.34785,306.19339],[-0.10156,0.07612],[0.07032,-0.09896]],[[701.22285,305.40169],[0.14844,0.34256],[-0.25782,-0.6014]]],&quot;closed&quot;:true,&quot;fillColor&quot;:[0,0,0,1]}]}" fill="#ffffff" stroke-width="0.5"/><path d="M113.89715,127.587c5.86702,1.93837 2.7744,2.27239 -1.28239,2.27239c-1.77776,0 -5.02136,-0.19495 -5.52001,-0.40395c-0.45889,-0.19234 -0.12907,0.09059 0.13694,-0.35005c1.35139,-2.23839 3.20572,-2.98022 6.66546,-1.5184z" data-paper-data="{&quot;noHover&quot;:false,&quot;origItem&quot;:[&quot;Path&quot;,{&quot;applyMatrix&quot;:true,&quot;segments&quot;:[[[703.08221,305.69857],[0,-1.07336],[0,0.5481]],[[704.89471,306.26951],[-1.74218,0],[2.07032,0]],[[705.46503,305.24943],[1.66406,0.7232],[-1.76562,-0.74602]]],&quot;closed&quot;:true,&quot;fillColor&quot;:[0,0,0,1]}]}" fill="#ffffff" stroke-width="0.5"/><path d="M92.20646,128.63317c0.09186,0 2.42444,0.41749 5.22589,0.90976c2.75557,0.53702 6.26278,1.27311 7.65587,1.70569c2.3269,0.77569 2.98128,0.88553 5.96646,0.15461c3.21479,-0.82041 8.91851,-1.08397 8.91851,-0.44256c0,0.67125 -3.5474,3.6677 -6.30297,5.21903c-2.52591,1.41711 -3.37387,1.68669 -6.68052,1.68669c-4.24048,0 -6.25014,-0.86144 -10.12321,-3.88953c-2.00543,-1.61098 -5.2724,-5.34366 -4.66006,-5.34366z" data-paper-data="{&quot;noHover&quot;:false,&quot;origItem&quot;:[&quot;Path&quot;,{&quot;applyMatrix&quot;:true,&quot;segments&quot;:[[[694.58221,305.77469],[0,0],[-0.3125,0]],[[696.96503,308.46191],[-1.02344,-0.82214],[1.97656,1.54534]],[[702.01191,310.35743],[-2.16406,0],[1.6875,0]],[[705.34785,309.55811],[-1.28906,0.7232],[1.40626,-0.7917]],[[708.55879,306.94701],[0,0.34256],[0,-0.32734]],[[704.01191,307.19061],[1.64062,-0.41868],[-1.52344,0.37302]],[[701.10567,307.16777],[1.1875,0.39586],[-0.71094,-0.22076]],[[697.24629,306.24665],[1.40626,0.27406],[-1.42968,-0.25122]],[[694.58223,305.77467],[0.04688,0],[0,0]]],&quot;closed&quot;:true,&quot;fillColor&quot;:[0,0,0,1]}]}" fill="#ffffff" stroke-width="0.5"/></g><path d="M109.85389,106.89869c0,0 0.07131,2.75903 0.004,4.95308c-0.13326,4.3446 -0.75163,19.294 -0.75163,19.294l-2.07229,0.006c0,0 -0.55805,-2.9001 -0.78065,-6.60246c-0.30131,-5.01147 -0.31241,-11.32396 -0.5306,-13.64466c-0.20682,-2.1998 1.42926,-6.15598 1.42926,-6.15598" fill="#ffffff" stroke="#000000" stroke-width="1.3" stroke-linecap="round"/><path d="M74.12443,118.31671c0,0 1.61219,-1.14896 3.01025,-2.33154c0.15429,0.79994 0.31273,1.59874 0.4784,2.39522c-2.16798,0.28238 -3.48865,-0.06368 -3.48865,-0.06368z" fill="#402b6b" stroke="none" stroke-width="1.5" stroke-linecap="butt"/><path d="M74.10071,114.1479c0,0 1.02752,-0.98454 2.21793,-2.51441c0.13798,0.73917 0.27474,1.47919 0.41271,2.21912c-1.47499,0.31066 -2.63064,0.29529 -2.63064,0.29529z" fill="#402b6b" stroke="none" stroke-width="1.5" stroke-linecap="butt"/><path d="M85.30751,83.64154c-0.43091,-0.75066 -0.86271,-1.5 -1.29582,-2.24764c0.09545,-0.23001 0.19431,-0.46037 0.29673,-0.69085c0.33303,0.97949 0.66606,1.95899 0.99909,2.93849z" fill="#402b6b" stroke="none" stroke-width="1.5" stroke-linecap="butt"/><path d="M98.30182,134.40935c0.04007,0.07159 0.08016,0.14317 0.12028,0.21474c-0.00735,-0.00311 -0.01469,-0.00623 -0.02204,-0.00935c-0.03282,-0.06843 -0.06556,-0.1369 -0.09824,-0.20539z" fill="#402b6b" stroke="none" stroke-width="1.5" stroke-linecap="butt"/><path d="M95.23857,81.51748c-0.32967,0.10989 -0.43956,-0.21978 -0.43956,-0.21978l-0.1057,-0.32083c-1.48967,-2.80541 -2.75503,-5.8802 -4.05224,-8.7989c0,0 -0.14114,-0.31756 0.17641,-0.45869c0.31756,-0.14114 0.45869,0.17641 0.45869,0.17641c1.30043,2.92594 2.57413,5.98935 4.05622,8.80804l0.12596,0.37418c0,0 0.10989,0.32967 -0.21978,0.43956z" fill="#402b6b" stroke="none" stroke-width="0.5" stroke-linecap="butt"/><path d="M100.81869,81.54937c-0.24572,0.24573 -0.49145,0.00001 -0.49145,0.00001l-0.15926,-0.1688c-0.87373,-1.32963 -1.17847,-3.04802 -1.73183,-4.52914c-0.66775,-1.78727 -1.71022,-3.56799 -2.02853,-5.45248c0,0 -0.05712,-0.34278 0.28565,-0.3999c0.34278,-0.05712 0.3999,0.28565 0.3999,0.28565c0.30112,1.83413 1.34508,3.58425 1.99408,5.32363c0.52845,1.4163 0.80507,3.12849 1.65901,4.38672l0.07241,0.06286c0,0 0.24573,0.24572 0.00001,0.49145z" fill="#402b6b" stroke="none" stroke-width="0.5" stroke-linecap="butt"/><path d="M104.85884,84.89452c-0.34751,0 -0.34751,-0.34751 -0.34751,-0.34751v-0.11584c0.0199,-1.2944 -0.37367,-2.97929 -0.69035,-4.22918c-0.31558,-3.8463 -1.91818,-8.0059 -2.77612,-11.79517c0,0 -0.07674,-0.33893 0.26219,-0.41567c0.33893,-0.07674 0.41567,0.26219 0.41567,0.26219c0.86185,3.80651 2.45873,7.97092 2.78396,11.83521c0.32758,1.32705 0.68444,2.97404 0.69967,4.34262v0.11584c0,0 0,0.34751 -0.34751,0.34751z" fill="#402b6b" stroke="none" stroke-width="0.5" stroke-linecap="butt"/><path d="M89.42737,109.4722c0.06473,-4.46407 4.41521,-8.1546 9.31835,-8.08352c4.90314,0.07109 8.23778,3.87686 8.17307,8.34095c-0.06473,4.46407 -3.76291,8.02529 -8.66605,7.95421c-4.90314,-0.07109 -8.8901,-3.74756 -8.82537,-8.21163z" fill="url(#color-7)" stroke="none" stroke-width="0" stroke-linecap="butt"/><path d="M91.23299,106.65835c0,0 0.04418,-6.26561 7.36789,-6.1334c6.58246,0.11527 6.64121,6.53813 6.64121,6.53813c0,0 -4.8454,-3.11555 -7.14191,-3.18189c-2.37083,-0.06849 -6.86719,2.77717 -6.86719,2.77717z" fill="#ffffff" stroke="#000000" stroke-width="1.15" stroke-linecap="butt"/><path d="M90.47633,238.86101v-54.22195c2.42543,-2.07314 4.8268,-4.16112 7.23493,-6.19851c5.89327,-4.9878 11.76229,-10.11055 17.51962,-15.25305c2.12505,-1.89812 4.23855,-3.81139 6.36566,-5.7077c0.16051,-0.11025 0.32101,-0.22062 0.48149,-0.33114c4.20405,-2.89565 8.49552,-5.6492 12.76695,-8.43377c0.57304,1.27258 0.95615,2.22533 0.95615,2.22533c0,0 -3.72094,7.52891 -5.71169,8.49554c-1.68097,0.81622 -5.46139,-3.07027 -5.46139,-3.07027v25.62039c-1.16045,0.55347 -4.03929,1.79033 -5.06186,2.88324c-0.83312,0.89042 -1.18264,2.75735 -2.40204,2.7591c-5.11123,0.00734 -9.58104,0.32909 -14.35418,2.24148c-1.55924,0.62472 -4.15178,1.67061 -4.90843,3.268c-1.28601,2.71499 -1.66912,5.79857 -0.36933,8.63447c0.53881,1.17558 2.32178,2.1378 2.80624,3.36561c0.45217,1.14596 -0.46952,3.96115 0.36958,5.21103c3.3801,5.03482 6.91044,3.5179 11.08066,6.19585c4.18787,2.6893 8.31158,4.2344 12.83936,3.64755v18.6688z" fill="#6712b1" stroke="#6712b1" stroke-width="2" stroke-linecap="butt"/><path d="" fill="#9966ff" stroke="#6712b1" stroke-width="2" stroke-linecap="butt"/><path d="" fill="#9966ff" stroke="#6712b1" stroke-width="2" stroke-linecap="butt"/><path d="M369.63296,218.6025c-0.99786,-0.06543 -0.93243,-1.06329 -0.93243,-1.06329l0.12442,-0.35959c-0.014,-0.02361 -0.02099,-0.03761 -0.02099,-0.03761c-2.49999,-5.01221 -7.10581,-10.73351 -7.36536,-16.53589c-0.02684,-0.60002 -0.09349,-4.32546 0.27379,-4.63498c0.76567,-0.64523 2.06843,-0.54487 2.99877,-0.17468c0.74603,0.29686 0.93011,1.3101 1.43123,1.93744c1.04015,1.30217 2.24955,3.47863 3.34138,4.57877c0.92609,0.93313 2.25599,1.39149 3.19726,2.30931c1.17529,1.1867 2.79918,2.44839 4.47219,2.88199c0.70404,0.18247 1.63255,-0.32712 2.17634,0.15586c0.80324,0.71342 1.53888,1.89303 1.31307,2.94335c-0.16985,0.79 -3.23256,1.82562 -3.93191,2.32495c-2.32753,1.66183 -3.84486,3.30095 -6.50343,4.63024l0.48896,0.11169c0,0 -0.06543,0.99786 -1.06329,0.93243zM370.0796,215.36012c2.12174,-1.20803 3.41798,-2.59261 5.4682,-4.05913c0.93591,-0.66946 2.46231,-0.42454 3.19217,-1.31415c0.45071,-0.54936 -1.37197,-0.37129 -2.0622,-0.54018c-2.03137,-0.49706 -3.96377,-1.98761 -5.40413,-3.40365c-0.93511,-0.93328 -2.28262,-1.3834 -3.21116,-2.32322c-0.90561,-0.91661 -1.29592,-2.24705 -2.14701,-3.2145c-0.00035,-0.0004 -2.67195,-3.4565 -2.78864,-3.12015c-0.13238,0.38155 0.25366,0.77364 0.29336,1.17555c0.29906,3.02736 0.34432,4.35485 1.84781,7.05633c1.02804,1.84718 1.26989,3.8573 2.07501,5.6635c0.61153,1.3719 1.84266,2.6961 2.73659,4.07961z" fill="#000000" stroke="none" stroke-width="0.5" stroke-linecap="butt"/><path d="M392.50908,212.60856c1.47042,0.84504 2.87941,1.89092 4.44902,2.66786c1.4989,0.74194 3.12161,1.8418 4.97663,1.35307c3.29658,-0.86853 6.90887,-7.01516 7.68152,-10.07581c0.17016,-0.67404 -0.18085,-1.45002 0.10701,-2.08281c0.05076,-0.11158 0.44589,-0.53302 0.92916,-1.02553c-1.59603,0.7994 -3.42209,1.36728 -4.78013,2.21148c-1.6884,1.04956 -3.18506,2.58104 -5.12011,3.34669c-1.84746,0.73098 -3.66529,0.79389 -5.43792,1.91719c-1.14859,0.72785 -1.91975,1.30399 -2.80519,1.68788zM388.25988,213.14556l-0.36452,0v-2l1.81553,0.00001c2.73103,0.0207 4.05148,-1.7555 6.45038,-2.85037c1.22052,-0.55705 2.60819,-0.6604 3.85652,-1.15198c1.82115,-0.71715 3.20765,-2.19974 4.80013,-3.1859c2.20921,-1.36807 4.73254,-2.6 7.28543,-3.48056l-0.07378,-0.15143l1.77953,-0.86695c0.13683,-0.07031 0.29199,-0.11 0.45642,-0.11c0.55228,0 1,0.44772 1,1c0,0.16796 -0.04141,0.32624 -0.11457,0.46521l-0.88543,1.77086l-0.04226,-0.02113l-0.04093,0.15863c-0.85513,0.86613 -2.15226,1.41811 -2.6225,2.54074c-0.22902,0.54677 0.14433,1.20443 -0.00389,1.7784c-0.98506,3.81452 -5.05284,10.45768 -9.1129,11.52273c-3.08538,0.80937 -7.74688,-1.4993 -10.13106,-3.32471c-1.73235,-1.32635 -1.97315,-2.05507 -4.05211,-2.09355z" fill="#000000" stroke="none" stroke-width="0.5" stroke-linecap="butt"/><path d="M375.97718,221.24404c0,-0.55228 0.44772,-1 1,-1c0.55228,0 1,0.44772 1,1c0,0.55228 -0.44772,1 -1,1c-0.55228,0 -1,-0.44772 -1,-1z" fill="#000000" stroke="none" stroke-width="0.5" stroke-linecap="butt"/><path d="M387.8052,219.42434c0,-0.55228 0.44772,-1 1,-1c0.55228,0 1,0.44772 1,1c0,0.55228 -0.44772,1 -1,1c-0.55228,0 -1,-0.44772 -1,-1z" fill="#000000" stroke="none" stroke-width="0.5" stroke-linecap="butt"/><path d="M394.24083,229.87958c0.46293,0.88639 -0.42346,1.34933 -0.42346,1.34933l-0.07527,0.03931c-2.27073,1.10696 -1.99445,2.9575 -4.70715,3.68694c-3.20935,0.86298 -7.41472,-0.95418 -10.00637,-2.65063c-0.7008,-0.45873 -1.61049,-0.76131 -2.02323,-1.49015c-0.3769,-0.66556 -0.07888,-1.5277 -0.11833,-2.29155c0,0 0,-1 1,-1c1,0 1,1 1,1c-0.27508,3.13339 6.95275,5.07452 9.68842,4.48584c1.06692,-0.22959 1.44357,-1.63959 2.22114,-2.40538c0.54708,-0.53879 1.34643,-0.73857 2.01965,-1.10785l0.07527,-0.03931c0,0 0.88639,-0.46293 1.34933,0.42346z" fill="#000000" stroke="none" stroke-width="0.5" stroke-linecap="butt"/><path d="M423.21565,212.95219c0.91457,-0.00445 1.86049,-0.05654 2.89331,0.01306c0.84599,0.05701 1.95412,-0.33239 2.5268,0.29289c1.62702,1.77645 -0.25976,3.12112 -0.62925,4.54946c-0.58128,2.24705 0.69802,6.32397 2.25083,7.99206c0.70753,0.76006 2.86147,-4.0512 3.02359,-4.70461c0.30814,-1.24191 0.27014,-2.56455 0.67171,-3.77946c0.26383,-2.59222 0.01954,-5.19802 0.25469,-7.7774c0.03841,-0.42128 0.57009,-0.91517 0.29298,-1.23479c-0.67807,-0.78208 -1.94887,0.71615 -2.95919,0.9413c-3.26408,0.72741 -5.86721,1.71365 -8.32547,3.70749zM420.54135,212.66208c3.11761,-3.04037 6.36448,-4.43529 10.56516,-5.36958c1.34551,-0.29926 3.3605,-1.74017 4.80806,-0.40327c0.65283,0.60293 0.23728,1.76293 0.29277,2.64986c0.16952,2.70954 -0.01175,5.50745 -0.29989,8.19927c-0.91886,2.7327 -1.11749,4.99046 -2.55055,7.62313c-0.40555,0.74503 -0.52101,1.81694 -1.27737,2.20093c-3.13072,1.58942 -5.45682,-3.5945 -6.02881,-5.88744c-0.03859,-0.15472 -0.05038,-4.08079 0.01122,-4.33498c0.22835,-0.94232 1.95506,-2.11324 1.1596,-2.66764c-0.54055,-0.37675 -1.2333,-0.11629 -1.92731,0.09605c0.01505,0.30271 -0.11055,0.55391 -0.11055,0.55391l-0.03084,0.06168c-1.48588,2.97175 -2.33647,6.33637 -4.37573,8.9971c-2.07549,2.708 -4.59407,4.39495 -6.20453,7.43058c-1.44689,2.43746 -2.5605,3.94581 -2.93853,6.84165c-0.41289,3.16284 0.72401,6.75166 -0.36321,9.83539c-0.47132,1.33682 -1.71509,2.25735 -2.5618,3.39415c-0.47221,0.63399 -0.51088,1.63739 -1.18116,2.05649c-2.04469,1.27847 -6.43435,-0.23768 -8.36328,-0.85387c-1.36293,-0.43538 -2.75622,-1.0277 -3.78773,-2.01922c0,0 -0.70711,-0.70711 0,-1.41421c0.70711,-0.70711 1.41421,0 1.41421,0c1.55304,1.63822 4.2295,2.37579 6.51804,2.43227c1.05669,0.02608 2.31026,0.77241 3.16729,0.15373c0.44273,-0.3196 0.29881,-1.07094 0.60769,-1.52122c0.69545,-1.0138 1.90055,-1.72156 2.29769,-2.88505c0.99174,-2.90551 -0.11491,-6.42873 0.26723,-9.42283c0.40116,-3.14314 1.62313,-4.94328 3.18002,-7.57712c1.68396,-3.15319 4.21983,-4.89865 6.36318,-7.67064c1.84443,-2.3854 2.66173,-5.47248 3.94229,-8.1979c-0.72752,-0.00666 -1.36725,-0.03224 -2.00013,-0.12607c-0.2643,0.15439 -0.72797,0.2988 -1.19164,-0.16487c-0.04626,-0.04626 -0.08647,-0.09252 -0.12122,-0.13858c-0.44879,-0.14256 -0.91989,-0.33207 -1.43859,-0.58395c0,0 -0.89443,-0.44721 -0.44721,-1.34164c0.44721,-0.89443 1.34164,-0.44721 1.34164,-0.44721c0.42979,0.22277 0.84934,0.3844 1.26396,0.5011z" fill="#000000" stroke="none" stroke-width="0.5" stroke-linecap="butt"/><path d="M337.40651,283.09827c-0.05239,-0.02619 -0.10018,-0.05392 -0.14372,-0.08292c-0.76957,1.16002 -1.69046,2.66619 -1.38498,2.95852c0.29791,0.28509 4.59469,-0.73801 5.07184,-0.8044c2.75747,-0.38367 4.62409,-2.0746 7.22924,-2.86604c1.84621,-0.56087 4.12458,-0.58708 6.04006,-0.85243c5.85239,-1.50185 11.77852,-2.66874 17.81143,-2.95925l0.35095,-0.01637c0,0 0.99891,-0.04661 1.04552,0.95231c0.04661,0.99891 -0.95231,1.04552 -0.95231,1.04552l-0.35095,0.01637c-5.93949,0.2675 -11.75675,1.45483 -17.51823,2.92374c-1.84075,0.25793 -4.06799,0.26387 -5.84511,0.80375c-3.4176,1.03826 -5.83643,2.69542 -9.50886,3.21424c-0.9937,0.14039 -4.09584,0.77245 -4.86487,-0.12474c-1.17257,-1.368 0.30975,-3.83886 0.9441,-4.94171c1.33078,-2.31364 2.2923,-4.74796 3.65777,-7.07585c0.23122,-0.3942 1.52761,-2.37834 1.49211,-3.04926c-0.09813,-1.85482 -2.26362,-2.14319 -3.53631,-2.31347c-8.92107,-2.86309 -18.25962,-4.26616 -27.11934,-7.32718c-4.00024,-1.38208 -7.91262,-3.15717 -11.83265,-4.78483c-8.61161,0.37408 -17.24179,0.57082 -25.79284,1.66673c-0.04115,0.00527 -0.08228,0.01056 -0.1234,0.01586c2.58722,1.39485 5.09217,2.88588 7.53283,4.54654c2.15713,1.46775 3.74282,3.3301 6.3892,3.50932l0.0824,0.00728c0,0 0.99612,0.08801 0.90811,1.08413c-0.08801,0.99612 -1.08413,0.90811 -1.08413,0.90811l-0.0824,-0.00728c-3.13333,-0.32656 -4.80057,-2.12133 -7.33827,-3.84803c-2.73929,-1.86386 -5.55986,-3.5071 -8.49123,-5.04231c-0.42727,-0.22377 -0.85241,-0.45294 -1.27546,-0.68718c-6.71989,1.01985 -13.11803,2.48187 -19.67455,4.68317c-2.10347,0.70622 -5.00655,1.43101 -7.12175,2.77955c2.26778,2.02713 4.61894,3.91173 7.23912,5.6962c0.03442,0.01594 0.06903,0.03416 0.10316,0.055l0.33547,-0.16615c0,0 1,0 1,1c0,1 -1,1 -1,1l-0.55473,-0.06504c-0.19338,0.06504 -0.35512,0.06504 -0.35512,0.06504c-8,0 -16,0 -24,0h-1.30504c-0.27279,0.0613 -0.49784,-0.01459 -0.66712,-0.12322c-0.03635,-0.018 -0.07273,-0.03864 -0.10836,-0.06228c-2.99928,0.85572 -6.11921,1.36814 -9.20743,1.98578c0,0 -0.3371,0.06742 -0.65553,-0.07445c-0.61194,0.34658 -1.15754,-0.19903 -1.15754,-0.19903l-1.31533,-1.31533c-1.79992,-1.80086 -4.42054,-3.29874 -6.04024,-5.16444c-0.09918,-0.11424 -1.47777,-2.88045 -1.84795,-3.6234c-0.17111,-0.20608 -0.20765,-0.43588 -0.19344,-0.63141c-0.00676,-0.19616 0.03862,-0.42473 0.21799,-0.62431l0.12397,-0.22599c2.58985,-4.69799 6.98491,-7.88994 9.524,-12.57669c0.21669,-0.39997 0.43613,-0.75334 0.64599,-1.08341c-0.13408,-0.58556 -0.25923,-1.1716 -0.37497,-1.75769c-0.01097,0.00004 -0.02194,0.00008 -0.03291,0.00013c0,0 -1,0 -1,-1c0,-0.62496 0.39057,-0.85934 0.68353,-0.94725c-0.38892,-2.4143 -0.60929,-4.82145 -0.62834,-7.19164c-0.27662,-0.45579 -0.55324,-0.91158 -0.82987,-1.36737l-0.13518,-1.41192c0,0 0,-1 1,-1c0.19264,0 0.34817,0.03711 0.47374,0.09703c0.76575,-0.40535 1.26816,0.34827 1.26816,0.34827c1.18459,1.79804 2.58851,2.57343 4.06049,4.0937c1.85973,1.92075 3.20965,4.34697 4.92949,6.38737c0.2179,0.25852 0.43766,0.51575 0.65914,0.77176c0.11558,0.00815 0.2312,0.01602 0.34684,0.02356c0,-0.7186 0,-1.4372 0,-2.1558v-1.28711c0,0 0,-1 1,-1c0.54119,0 0.78949,0.29289 0.90342,0.56164c1.57693,-5.22215 3.9823,-9.66971 6.37758,-14.81752c2.0162,-4.33311 2.77396,-8.82782 5.21853,-12.97452l0.28841,-0.48557c0,0 0.51068,-0.85977 1.37045,-0.34909c0.85977,0.51068 0.34909,1.37045 0.34909,1.37045l-0.28841,0.48557c-2.43973,4.07298 -3.13349,8.51737 -5.12476,12.7969c-2.85889,6.14416 -5.74847,11.23543 -7.14552,17.96134c0.01707,0.00002 0.03414,0.00003 0.05121,0.00003h0.72954c0,0 1,0 1,1c0,1 -1,1 -1,1h-0.72954c-0.33343,-0.00001 -0.66677,-0.00481 -1,-0.01371c0,0.16358 0,0.32739 0,0.49141c2.01961,2.16515 4.13671,4.25852 6.26702,6.33169c0.04494,-0.10854 0.08956,-0.17546 0.08956,-0.17546c1.5804,-2.35141 3.67658,-3.91581 5.72962,-5.8394c2.88604,-2.70407 5.44513,-5.93733 8.74896,-8.12213l0.04744,-0.07225c-1.6952,-1.47263 -3.28932,-3.04582 -4.5177,-4.87347c0,0 -0.5547,-0.83205 0.27735,-1.38675c0.83205,-0.5547 1.38675,0.27735 1.38675,0.27735c1.06846,1.6176 2.47513,3.02681 3.98244,4.34266c0.22933,-0.20266 0.65695,-0.43503 1.20214,-0.06886c0.70646,0.47447 0.40794,1.14637 0.3033,1.33605c1.00061,0.81911 2.01076,1.61494 2.96627,2.41856c5.46911,4.59979 11.25158,9.25345 17.49833,12.79693c0.9398,-0.14087 1.88635,-0.27238 2.8409,-0.39471c7.36785,-0.94427 14.79474,-1.21946 22.21763,-1.51663c-2.73835,-1.41213 -5.41892,-2.86401 -7.99127,-4.61779c-1.25202,-0.8536 -3.34753,-1.84184 -2.9763,-3.94403c0.28448,-1.61099 4.24201,-3.06259 5.48505,-3.76863c2.86436,-1.62694 6.1502,-2.69724 8.9274,-4.40366c0.8863,-0.54458 1.69188,-1.19643 2.47697,-1.87522c-1.40459,-0.68387 -2.19296,-1.4523 -4.11421,-1.47997l-0.87952,0.00046c0,0 -1,0 -1,-1c0,-1 1,-1 1,-1l0.94018,0.00046c2.56537,0.11002 3.44669,1.24345 5.72547,2.01345c1.00781,-0.86654 2.05258,-1.68314 3.26105,-2.2808c-0.87786,-1.65975 -5.90157,-1.37356 -7.7464,-1.3725c-8.61211,0.00493 -17.22424,0 -25.83635,0c0,0 -1,0 -1,-1c0,-1 1,-1 1,-1c8.61211,0 17.22424,-0.00477 25.83635,0c2.06944,0.00115 4.05383,0.20611 6.09784,0.54428c0.82325,0.1362 1.85429,-0.10747 2.45936,0.46714c0.75535,0.71732 0.73936,1.94776 1.10904,2.92163c-0.93237,0.78009 -1.87376,1.62853 -2.83079,2.47914c3.03803,0.9594 6.03961,1.90423 8.79565,3.71369c6.45686,1.66885 12.22661,5.00108 18.45201,7.34596c4.55001,1.71382 9.20454,3.09851 13.75695,4.83703c0.07415,-0.01982 0.14814,-0.04017 0.22197,-0.06105l1.35161,-0.37506c0,0 0.96359,-0.26739 1.23098,0.6962c0.26739,0.96359 -0.6962,1.23098 -0.6962,1.23098l-0.17289,0.04798c-0.0131,0.0841 -0.03757,0.17393 -0.07587,0.26967c-0.37139,0.92848 -1.29987,0.55709 -1.29987,0.55709c-0.23466,-0.09386 -0.46964,-0.1866 -0.70493,-0.2783c-0.07885,0.01728 -0.15782,0.03406 -0.2369,0.05036c1.94886,4.7447 1.40337,9.52266 1.40337,14.75855c0,1.23773 0.49979,5.25178 -0.29289,6.17452c-0.43577,0.50726 -1.42892,-0.20266 -2.00107,0.14354c-1.13669,0.68781 -0.69877,2.78947 -1.77476,3.56883c-0.49984,0.36205 -1.32343,-0.25938 -1.85054,0.06168c-0.99392,0.6054 -0.9138,2.14223 -1.43426,3.18315l-0.03084,0.06168c0,0 -0.44721,0.89443 -1.34164,0.44721zM340.98412,277.66099c1.14278,-0.69607 0.7099,-2.81477 1.80295,-3.58659c0.44781,-0.31621 1.19349,0.46393 1.63832,0.14354c0.31119,-0.22413 -0.25478,-0.73099 -0.29289,-1.11259c-0.12085,-1.20989 0,-2.43181 0,-3.64772c0,-5.10612 0.62677,-9.83363 -1.4431,-14.4406c-4.83213,0.53356 -9.9921,-0.30322 -14.78482,-0.02024c-4.60372,0.27182 -9.24599,1.10212 -13.82666,1.64725c-3.81183,0.45261 -7.63946,0.73638 -11.47426,0.94669c2.60479,1.1063 5.21952,2.20076 7.87431,3.11799c8.79659,3.03921 18.07483,4.3998 26.92358,7.27053c0.71516,0.11768 1.48354,0.05785 2.14548,0.35304c4.09525,1.82626 2.62291,5.88518 0.77379,9.39757c0.24043,0.03996 0.47149,0.04793 0.66329,-0.0689zM330.6493,249.59584c-6.27335,-2.36294 -12.07655,-5.62704 -18.55899,-7.38983c-3.07808,-1.98217 -6.39199,-2.89871 -9.75409,-3.9974c-1.19385,1.01089 -2.41702,1.96492 -3.68157,2.74191c-2.25263,1.38411 -4.93291,2.13555 -7.24764,3.45105c-1.72429,0.97994 -3.44819,1.93526 -5.20259,2.85902c-0.35487,0.18685 -0.95389,0.19158 -1.05422,0.57988c-0.23616,0.91408 1.34618,1.34235 2.13498,1.86111c3.33021,2.19014 6.75616,3.9723 10.30557,5.7874c0.25853,0.10456 0.51696,0.21004 0.77533,0.31629c5.17335,-0.23018 10.33897,-0.53448 15.47549,-1.14721c4.62017,-0.54984 9.30103,-1.38352 13.94463,-1.65776c4.22807,-0.2497 8.8556,0.45661 13.20906,0.19016c-3.44907,-1.20599 -6.92731,-2.30695 -10.34596,-3.59463zM247.37228,244.53577c-3.30352,2.25216 -5.88245,5.43781 -8.79589,8.16755c-1.92945,1.80779 -3.96797,3.27138 -5.43297,5.48933c0,0 -0.15169,0.22753 -0.4154,0.3653c1.5573,1.5097 3.11224,3.01437 4.63198,4.53411c1.03591,1.03591 2.0627,2.03519 3.09873,3.00203c1.77443,-1.23669 3.97422,-2.00414 6.05119,-2.70291c6.53194,-2.19761 12.8835,-3.84266 19.51047,-4.99927c-5.55716,-3.41283 -10.75603,-7.60663 -15.70183,-11.76629c-0.91238,-0.76735 -1.86031,-1.52637 -2.80134,-2.30174zM239.57473,269.91319c0,0 -0.44721,0.89443 -1.34164,0.44721c-0.89443,-0.44721 -0.44721,-1.34164 -0.44721,-1.34164c0.31687,-0.60044 0.70476,-1.13427 1.14813,-1.61283c-0.99913,-0.93616 -1.9902,-1.90163 -2.98822,-2.89965c-3.55612,-3.55612 -7.30046,-7.03114 -10.82305,-10.6774c0,6.03287 0,12.24982 0,18.05524c0.3434,-0.14427 0.68315,-0.297 1.0188,-0.45915l0.2845,-0.13405c0,0 0.90461,-0.42624 1.33085,0.47836c0.31698,0.67271 -0.10203,1.08088 -0.33768,1.24594c5.91033,0 12.30012,0 18.14763,0c-1.8205,-1.3652 -3.53162,-2.79168 -5.20119,-4.29403c-0.32123,0.3615 -0.58957,0.75704 -0.79091,1.19201zM215.75041,242.55151c-0.84647,-0.87424 -1.67364,-1.5394 -2.4578,-2.27393c0.11068,2.34436 0.37694,4.70013 0.78058,7.04856c0.08485,-0.29426 0.31683,-0.69652 0.95107,-0.69652c1,0 1,1 1,1c-0.00056,0.02736 -0.00123,0.0547 -0.00202,0.082c1.31554,0.10381 2.63362,0.24012 3.95534,0.36728c-1.41289,-1.82926 -2.62725,-3.87498 -4.22718,-5.5274zM215.01543,251.83433c1.72616,7.02929 4.59498,13.88255 8.10731,20.04598c0,-6.72356 0,-13.44712 0,-20.17068c-0.44815,-0.48728 -0.89115,-0.97833 -1.32809,-1.47372c-2.01887,-0.17297 -4.03115,-0.41157 -6.03207,-0.55988c-0.17403,0.7398 -0.42866,1.45796 -0.74716,2.1583zM213.00845,274.85433c2.82095,-0.56419 5.72494,-1.00639 8.50601,-1.75554c-3.2511,-5.64879 -6.14402,-12.06981 -8.00446,-18.64939c-2.74269,3.98608 -7.02696,7.50273 -9.17977,11.38936c1.86071,3.42324 4.5324,5.15128 7.35626,7.97372l1.11213,1.11213c0.11992,-0.0523 0.20982,-0.07028 0.20982,-0.07028z" fill="#000000" stroke="none" stroke-width="0.5" stroke-linecap="butt"/><path d="M306.09386,283.92039c0.10315,0.99467 -0.89151,1.09782 -0.89151,1.09782l-0.28849,0.02992c-1.35209,0.13982 -2.88134,0.21964 -4.37377,0.35865c0.06408,0.13189 0.10002,0.27998 0.10002,0.43646c0,0.55228 -0.44772,1 -1,1c-0.55228,0 -1,-0.44772 -1,-1c0,-0.07434 0.00811,-0.14679 0.0235,-0.21651c-0.53974,0.08024 -1.06101,0.17635 -1.55209,0.29484c-1.27974,0.3088 -2.52399,0.90448 -3.84035,0.92166c0,0 -1,0 -1,-1c0,-1 1,-1 1,-1c1.16194,0.01955 2.24559,-0.60081 3.37675,-0.86719c2.43648,-0.57377 5.52955,-0.65415 8.05962,-0.91725l0.28849,-0.02992c0,0 0.99467,-0.10315 1.09782,0.89151z" fill="#000000" stroke="none" stroke-width="0.5" stroke-linecap="butt"/><path d="M307.73859,283.11369c0,-0.55228 0.44772,-1 1,-1c0.55228,0 1,0.44772 1,1c0,0.55228 -0.44772,1 -1,1c-0.55228,0 -1,-0.44772 -1,-1z" fill="#000000" stroke="none" stroke-width="0.5" stroke-linecap="butt"/><path d="M284.08254,280.38415c0,-1 1,-1 1,-1c1.27323,0 3.27601,0 4.54924,0c0,0 1,0 1,1c0,1 -1,1 -1,1c-1.27323,0 -2.54646,0 -3.8197,0h-0.72954c0,0 -1,0 -1,-1z" fill="#000000" stroke="none" stroke-width="0.5" stroke-linecap="butt"/><path d="M265.88559,279.4743c0,-0.55228 0.44772,-1 1,-1c0.55228,0 1,0.44772 1,1c0,0.55228 -0.44772,1 -1,1c-0.55228,0 -1,-0.44772 -1,-1z" fill="#000000" stroke="none" stroke-width="0.5" stroke-linecap="butt"/><path d="M290.45148,281.29399c0,-0.55228 0.44772,-1 1,-1c0.55228,0 1,0.44772 1,1c0,0.55228 -0.44772,1 -1,1c-0.55228,0 -1,-0.44772 -1,-1z" fill="#000000" stroke="none" stroke-width="0.5" stroke-linecap="butt"/><path d="M297.73026,275.83491c0,-1 1,-1 1,-1c0.66667,0 2.97272,0 3.63939,0c0,0 1,0 1,1c0,1 -1,1 -1,1c-0.66667,0 -1.33333,0 -2,0h-1.63939c0,0 -1,0 -1,-1z" fill="#000000" stroke="none" stroke-width="0.5" stroke-linecap="butt"/><path d="M273.16437,276.74475c0,-0.55228 0.44772,-1 1,-1c0.55228,0 1,0.44772 1,1c0,0.55228 -0.44772,1 -1,1c-0.55228,0 -1,-0.44772 -1,-1z" fill="#000000" stroke="none" stroke-width="0.5" stroke-linecap="butt"/><path d="M274.98407,281.29399c0,-0.55228 0.44772,-1 1,-1c0.55228,0 1,0.44772 1,1c0,0.55228 -0.44772,1 -1,1c-0.55228,0 -1,-0.44772 -1,-1z" fill="#000000" stroke="none" stroke-width="0.5" stroke-linecap="butt"/><path d="M261.49185,285.62187c0.12621,0.556 -0.13655,0.86696 -0.38576,1.03156l0.31102,-0.00495c3.82059,-0.04763 7.87362,-1.15841 11.67302,-1.79165c0,0 0.98639,-0.1644 1.15079,0.82199c0.1644,0.98639 -0.82199,1.15079 -0.82199,1.15079c-3.90718,0.6512 -8.03757,1.74403 -11.97002,1.81861l-0.91635,0.01457c0,0 -0.99987,0.0159 -1.01577,-0.98398c-0.00455,-0.28647 0.07427,-0.49217 0.18907,-0.63986c-3.10481,0.61249 -5.96523,0.71412 -9.19752,0.71412c0,0 -1,0 -1,-1c0,-1 1,-1 1,-1c3.4097,0 6.35143,-0.10521 9.67941,-0.86063l0.10756,-0.02441c0,0 0.97519,-0.22136 1.19655,0.75383z" fill="#000000" stroke="none" stroke-width="0.5" stroke-linecap="butt"/><path d="M280.62346,279.4743c0,1 -1,1 -1,1c-0.66667,0 -2.06288,0 -2.72954,0c0,0 -1,0 -1,-1c0,-1 1,-1 1,-1c0.66667,0 1.33333,0 2,0h0.72954c0,0 1,0 1,1z" fill="#000000" stroke="none" stroke-width="0.5" stroke-linecap="butt"/><path d="M404.34928,267.80993c-0.16365,0.98652 -1.15017,0.82286 -1.15017,0.82286l-0.00052,-0.00009c-0.4849,-0.08098 -0.97181,-0.16828 -1.46042,-0.26021c2.34041,3.44117 5.49543,7.75408 6.19325,11.51239l0.76957,0.79468c0,0 0.61442,0.78898 -0.17457,1.4034c-0.78898,0.61442 -1.4034,-0.17457 -1.4034,-0.17457l-1.16311,-1.6871c-0.33755,-2.23044 -1.46556,-2.92913 -2.58369,-4.85711c-1.34149,-2.31311 -2.47612,-4.61514 -3.95812,-6.85907c-0.14875,-0.22623 -0.29311,-0.45468 -0.43375,-0.68504c-4.29085,-0.89716 -8.6641,-1.90336 -12.9087,-1.90336c0,0 -1,0 -1,-1c0,-0.0059 0.00003,-0.01177 0.0001,-0.0176c-0.33442,0.20043 -0.6895,0.44495 -1.07083,0.7699c-1.6803,1.43184 -3.05816,4.41677 -4.40805,6.21663c0,0 -0.6,0.8 -1.4,0.2c-0.8,-0.6 -0.2,-1.4 -0.2,-1.4c1.44169,-1.92225 2.89017,-4.97708 4.69042,-6.52124c0.99721,-0.85536 2.59933,-0.82287 3.53297,-1.74719c1.55832,-1.54277 1.61463,-3.28951 3.56779,-4.78458c0.49796,-0.38117 3.31965,-2.85621 3.68071,-2.80784c0.72832,0.09758 2.46518,3.14298 2.89258,3.84053c1.46452,2.39021 2.5109,4.98242 3.89245,7.38498c1.09796,0.22194 2.18974,0.43109 3.2721,0.60935l0.00052,0.00009c0,0 0.98652,0.16365 0.82286,1.15017zM394.65595,259.71015c-0.34491,-0.56303 -0.74484,-1.09587 -1.03464,-1.68915c-0.18551,-0.37977 0.03868,-1.161 -0.3812,-1.20931c-0.41995,-0.04832 -0.35862,0.7814 -0.64635,1.09108c-1.53265,1.64954 -2.80968,1.86187 -3.86771,3.90148c-0.60851,1.17304 -1.19668,1.72754 -1.83572,2.12418c3.56928,0.10111 7.21247,0.84169 10.81671,1.5945c-0.99982,-1.93737 -1.89859,-3.93141 -3.05109,-5.81278z" fill="#000000" stroke="none" stroke-width="0.5" stroke-linecap="butt"/><path d="M414.28094,274.10536c-1,0 -1,-1 -1,-1c0,-3.94267 0,-8.7952 0,-12.73787c0,0 0,-1 1,-1c1,0 1,1 1,1c0,3.94267 0,7.88535 0,11.82802v0.90985c0,0 0,1 -1,1z" fill="#000000" stroke="none" stroke-width="0.5" stroke-linecap="butt"/><path d="M413.28094,283.11369c0,-0.55228 0.44772,-1 1,-1c0.55228,0 1,0.44772 1,1c0,0.55228 -0.44772,1 -1,1c-0.55228,0 -1,-0.44772 -1,-1z" fill="#000000" stroke="none" stroke-width="0.5" stroke-linecap="butt"/><path d="M382.34611,284.02354c0,-0.55228 0.44772,-1 1,-1c0.55228,0 1,0.44772 1,1c0,0.55228 -0.44772,1 -1,1c-0.55228,0 -1,-0.44772 -1,-1z" fill="#000000" stroke="none" stroke-width="0.5" stroke-linecap="butt"/><path d="M394.17413,284.93339c0,-0.55228 0.44772,-1 1,-1c0.55228,0 1,0.44772 1,1c0,0.55228 -0.44772,1 -1,1c-0.55228,0 -1,-0.44772 -1,-1z" fill="#000000" stroke="none" stroke-width="0.5" stroke-linecap="butt"/><path d="M400.4466,290.61171c0.69061,0.72323 -0.03261,1.41384 -0.03261,1.41384l-1.25349,1.12941c-4.54015,2.12156 -9.75571,0.61324 -14.31091,-0.90395c0,0 -0.94868,-0.31623 -0.63246,-1.26491c0.31623,-0.94868 1.26491,-0.63246 1.26491,-0.63246c3.93292,1.31205 8.89909,2.95009 12.81132,0.99908l0.73941,-0.77362c0,0 0.72323,-0.69061 1.41384,0.03261z" fill="#000000" stroke="none" stroke-width="0.5" stroke-linecap="butt"/><path d="M241.5,203.95693c0,1 -1,1 -1,1l-0.95314,-0.00094c-5.37427,-0.23286 -10.55873,-1.18503 -15.83036,-2.2201c-6.68238,-1.31206 -13.15553,-2.22935 -19.56515,-4.57448c-1.08104,-0.39553 -5.84273,-1.24884 -6.31927,-2.14264c-0.40468,-0.75902 0.603,-1.62193 0.7473,-2.4699c0.41105,-2.41535 -0.02253,-5.3315 -0.02253,-7.78891c0,0 0,-1 1,-1c1,0 1,1 1,1c0,2.42488 0.61414,5.88364 -0.02253,8.21109c-0.13026,0.47618 -1.06166,0.70603 -0.90335,1.17364c0.1371,0.40496 0.85751,-0.11332 1.28134,-0.05713c1.35361,0.17945 2.65816,0.73273 3.92554,1.19536c6.31013,2.30336 12.68371,3.19843 19.264,4.49044c5.17263,1.01563 10.25865,1.95603 15.5316,2.1845l0.86656,-0.00094c0,0 1,0 1,1z" fill="#000000" stroke="none" stroke-width="0.5" stroke-linecap="butt"/></g></g></svg>