<svg version="1.1" xmlns="http://www.w3.org/2000/svg" xmlns:xlink="http://www.w3.org/1999/xlink" width="492" height="367.57853" viewBox="0,0,492,367.57853"><defs><linearGradient x1="240.5" y1="332" x2="240.5" y2="365" gradientUnits="userSpaceOnUse" id="color-1"><stop offset="0" stop-color="#ffffff"/><stop offset="1" stop-color="#ffffff" stop-opacity="0"/></linearGradient><linearGradient x1="240.89463" y1="-2" x2="240.89463" y2="32.69503" gradientUnits="userSpaceOnUse" id="color-2"><stop offset="0" stop-color="#ffffff" stop-opacity="0"/><stop offset="1" stop-color="#ffffff"/></linearGradient><linearGradient x1="-3.5" y1="180.23215" x2="29.5" y2="180.23215" gradientUnits="userSpaceOnUse" id="color-3"><stop offset="0" stop-color="#ffffff" stop-opacity="0"/><stop offset="1" stop-color="#ffffff"/></linearGradient><linearGradient x1="450.5" y1="179.71073" x2="483.5" y2="179.71073" gradientUnits="userSpaceOnUse" id="color-4"><stop offset="0" stop-color="#ffffff"/><stop offset="1" stop-color="#ffffff" stop-opacity="0"/></linearGradient><linearGradient x1="428.30655" y1="36.30298" x2="446.00719" y2="36.30298" gradientUnits="userSpaceOnUse" id="color-5"><stop offset="0" stop-color="#000000"/><stop offset="1" stop-color="#000000" stop-opacity="0"/></linearGradient><linearGradient x1="428.30655" y1="40.78415" x2="446.00719" y2="40.78415" gradientUnits="userSpaceOnUse" id="color-6"><stop offset="0" stop-color="#000000"/><stop offset="1" stop-color="#000000" stop-opacity="0"/></linearGradient><linearGradient x1="98.46947" y1="128.31751" x2="98.46947" y2="239.1672" gradientUnits="userSpaceOnUse" id="color-7"><stop offset="0" stop-color="#a10000"/><stop offset="1" stop-color="#000000"/></linearGradient><linearGradient x1="73.46708" y1="188.32116" x2="73.46708" y2="239.61351" gradientUnits="userSpaceOnUse" id="color-8"><stop offset="0" stop-color="#ff0000"/><stop offset="1" stop-color="#000000"/></linearGradient><linearGradient x1="98.62569" y1="182.2753" x2="98.62569" y2="239.22347" gradientUnits="userSpaceOnUse" id="color-9"><stop offset="0" stop-color="#ff0000"/><stop offset="1" stop-color="#000000"/></linearGradient><linearGradient x1="123.55612" y1="177.85401" x2="123.55612" y2="239.48284" gradientUnits="userSpaceOnUse" id="color-10"><stop offset="0" stop-color="#ff0000"/><stop offset="1" stop-color="#000000"/></linearGradient><radialGradient cx="73.3716" cy="200.84368" r="18.91576" gradientUnits="userSpaceOnUse" id="color-11"><stop offset="0" stop-color="#000000"/><stop offset="1" stop-color="#da7f7f"/></radialGradient><linearGradient x1="78.29511" y1="131.5333" x2="78.29511" y2="159.51673" gradientUnits="userSpaceOnUse" id="color-12"><stop offset="0" stop-color="#ff0000"/><stop offset="1" stop-color="#000000"/></linearGradient><linearGradient x1="119.28132" y1="131.8973" x2="119.28132" y2="159.88074" gradientUnits="userSpaceOnUse" id="color-13"><stop offset="0" stop-color="#ff0000"/><stop offset="1" stop-color="#000000"/></linearGradient><radialGradient cx="-8.51742" cy="51.37933" r="0.00089" gradientUnits="userSpaceOnUse" id="color-14"><stop offset="0" stop-color="#000000"/><stop offset="1" stop-color="#3e3e3e"/></radialGradient><radialGradient cx="109.86465" cy="98.23219" r="8.46808" gradientUnits="userSpaceOnUse" id="color-15"><stop offset="0" stop-color="#a10000"/><stop offset="1" stop-color="#ffffff"/></radialGradient><radialGradient cx="87.03894" cy="98.51837" r="8.46808" gradientUnits="userSpaceOnUse" id="color-16"><stop offset="0" stop-color="#a10000"/><stop offset="1" stop-color="#ffffff"/></radialGradient></defs><g transform="translate(5.5,2.57853)"><g data-paper-data="{&quot;isPaintingLayer&quot;:true}" fill-rule="nonzero" stroke-linejoin="miter" stroke-miterlimit="10" stroke-dasharray="" stroke-dashoffset="0" style="mix-blend-mode: normal"><path d="M-5.5,365l33,-33h424l35,33z" fill="url(#color-1)" stroke="none" stroke-width="0" stroke-linecap="butt"/><path d="M485.5,-2l-37,33l-418.21073,1.69503l-34,-33.48429z" data-paper-data="{&quot;index&quot;:null}" fill="url(#color-2)" stroke="none" stroke-width="0" stroke-linecap="butt"/><path d="M-3.5,-2l33,33v299.46429l-33,32z" fill="url(#color-3)" stroke="none" stroke-width="0" stroke-linecap="butt"/><path d="M483.5,362l-33,-30v-303.90576l33,-30.67277z" data-paper-data="{&quot;index&quot;:null}" fill="url(#color-4)" stroke="none" stroke-width="0" stroke-linecap="butt"/><path d="M28,331.5v-303h424v303z" fill="#ffffff" stroke="#000000" stroke-width="5" stroke-linecap="butt"/><path d="M34.75,326.8202v-74.3202h142.5v74.3202z" fill="#000000" stroke="none" stroke-width="0" stroke-linecap="butt"/><text transform="translate(39.59015,266.55803) scale(0.29391,0.29391)" font-size="40" xml:space="preserve" fill="#ffffff" fill-rule="nonzero" stroke="none" stroke-width="1" stroke-linecap="butt" stroke-linejoin="miter" stroke-miterlimit="10" stroke-dasharray="" stroke-dashoffset="0" font-family="Serif" font-weight="normal" text-anchor="start" style="mix-blend-mode: normal"><tspan x="0" dy="0">Name: H-Skorph</tspan><tspan x="0" dy="46.150000000000006px">Age: Unknown</tspan><tspan x="0" dy="46.150000000000006px">Gender: Unknown(?)</tspan><tspan x="0" dy="46.150000000000006px">Role: Amalgam</tspan><tspan x="0" dy="46.150000000000006px">Status: Contained</tspan></text><path d="M194.25,59v-19.5h86v19.5z" fill="#000000" stroke="none" stroke-width="0" stroke-linecap="butt"/><text transform="translate(196.5,53.9009) scale(0.42192,0.42192)" font-size="40" xml:space="preserve" fill="#ffffff" fill-rule="nonzero" stroke="none" stroke-width="1" stroke-linecap="butt" stroke-linejoin="miter" stroke-miterlimit="10" stroke-dasharray="" stroke-dashoffset="0" font-family="Serif" font-weight="normal" text-anchor="start" style="mix-blend-mode: normal"><tspan x="0" dy="0">Description:</tspan></text><path d="M429.07853,298.09424h-241v-236.31414" fill="none" stroke="#000000" stroke-width="5" stroke-linecap="round"/><path d="M37.83201,243v-205h136.5312v205z" fill="#174752" stroke="#151515" stroke-width="6.5" stroke-linecap="butt"/><path d="M37.83201,243v-205h136.5312v205z" fill="#ffffff" stroke="#151515" stroke-width="6.5" stroke-linecap="butt"/><text transform="translate(349.55711,323.11998) scale(0.35959,0.35959)" font-size="40" xml:space="preserve" fill="#000000" fill-rule="nonzero" stroke="none" stroke-width="1" stroke-linecap="butt" stroke-linejoin="miter" stroke-miterlimit="10" stroke-dasharray="" stroke-dashoffset="0" font-family="Serif" font-weight="normal" text-anchor="start" style="mix-blend-mode: normal"><tspan x="0" dy="0">Click this to exit</tspan></text><text transform="translate(194.75,83.31363) scale(0.40625,0.40625)" font-size="40" xml:space="preserve" fill="#000000" fill-rule="nonzero" stroke="none" stroke-width="1" stroke-linecap="butt" stroke-linejoin="miter" stroke-miterlimit="10" stroke-dasharray="" stroke-dashoffset="0" font-family="Serif" font-weight="normal" text-anchor="start" style="mix-blend-mode: normal"><tspan x="0" dy="0">H-Skorph was just a name we gave it.</tspan><tspan x="0" dy="48px"> </tspan><tspan x="0" dy="48px">This is apparently a mutant scorpion,</tspan><tspan x="0" dy="48px">though not naturally. Its artificially</tspan><tspan x="0" dy="48px">mutated. Not sure who did this</tspan><tspan x="0" dy="48px">experiment but we kept it.</tspan><tspan x="0" dy="48px"> </tspan><tspan x="0" dy="48px">There have been reports of it dancing</tspan><tspan x="0" dy="48px">in its chamber whenever any type</tspan><tspan x="0" dy="48px">of funk song is played. We have</tspan><tspan x="0" dy="48px">no idea why.</tspan></text><path d="M399.40297,43.92097l46.38016,-0.22406" fill="none" stroke="#000000" stroke-width="3" stroke-linecap="round"/><g stroke="none" stroke-linecap="butt"><g fill="#000000" stroke-width="1" font-weight="normal" font-size="40" text-anchor="start"><text transform="translate(399.40297,42.80068) scale(0.23516,0.23516)" font-size="40" xml:space="preserve" fill="#000000" fill-rule="nonzero" stroke="none" stroke-width="1" stroke-linecap="butt" stroke-linejoin="miter" stroke-miterlimit="10" stroke-dasharray="" stroke-dashoffset="0" font-family="Pixel" font-weight="normal" text-anchor="start" style="mix-blend-mode: normal"><tspan x="0" dy="0">DONK</tspan></text><text transform="translate(398.8418,52.32215) scale(0.23516,0.23516)" font-size="40" xml:space="preserve" fill="#000000" fill-rule="nonzero" stroke="none" stroke-width="1" stroke-linecap="butt" stroke-linejoin="miter" stroke-miterlimit="10" stroke-dasharray="" stroke-dashoffset="0" font-family="Sans Serif" font-weight="normal" text-anchor="start" style="mix-blend-mode: normal"><tspan x="0" dy="0">Industries</tspan></text></g><path d="M428.30655,37.64733v-2.6887h17.70064v2.6887z" fill="url(#color-5)" stroke-width="0"/><path d="M428.30655,42.09116v-2.61402h17.70064v2.61402z" fill="url(#color-6)" stroke-width="0"/></g><text transform="translate(186.81898,314.36666) scale(0.3147,0.3147)" font-size="40" xml:space="preserve" fill="#000000" fill-rule="nonzero" stroke="none" stroke-width="1" stroke-linecap="butt" stroke-linejoin="miter" stroke-miterlimit="10" stroke-dasharray="" stroke-dashoffset="0" font-family="Serif" font-weight="normal" text-anchor="start" style="mix-blend-mode: normal"><tspan x="0" dy="0">Written by: Nile Parkas</tspan></text><g fill="#000000" stroke="none" stroke-width="0" stroke-linecap="butt"><path d="M110.05843,175.21295c0.30461,-4.06169 3.84419,-7.10741 7.90589,-6.80281c4.06169,0.30461 7.10742,3.84419 6.80281,7.90589c-0.30461,4.06169 -3.8442,7.10741 -7.90589,6.8028c-4.06169,-0.30461 -7.10741,-3.8442 -6.80281,-7.90589z"/><path d="M114.17824,168.08049c0.30461,-4.06169 3.8442,-7.10741 7.90589,-6.80281c4.06169,0.30461 7.10741,3.8442 6.8028,7.90589c-0.30461,4.06169 -3.8442,7.10741 -7.90589,6.80281c-4.06169,-0.30461 -7.10741,-3.84419 -6.80281,-7.90589z"/><path d="M116.13185,157.55835c0.30461,-4.06169 3.84419,-7.10741 7.90589,-6.80281c4.06169,0.30461 7.10741,3.84419 6.8028,7.90589c-0.30461,4.06169 -3.84419,7.10741 -7.90589,6.80281c-4.06169,-0.30461 -7.10741,-3.84419 -6.8028,-7.90589z"/><path d="M113.43884,148.03242c0.30461,-4.06169 3.8442,-7.10741 7.90589,-6.80281c4.06169,0.30461 7.10741,3.84419 6.8028,7.90589c-0.30461,4.06169 -3.84419,7.10741 -7.90589,6.80281c-4.06169,-0.30461 -7.10742,-3.84419 -6.80281,-7.90589z"/><path d="M130.81507,117.15213c-0.30461,4.06169 -3.8442,7.10741 -7.90589,6.80281c-4.06169,-0.30461 -7.10741,-3.84419 -6.8028,-7.90589c0.30461,-4.06169 3.84419,-7.10741 7.90589,-6.80281c4.06169,0.30461 7.10741,3.84419 6.80281,7.90589z" data-paper-data="{&quot;index&quot;:null}"/><path d="M123.56632,122.97419c-0.30461,4.06169 -3.84419,7.10741 -7.90589,6.80281c-4.06169,-0.30461 -7.10741,-3.8442 -6.8028,-7.90589c0.30461,-4.06169 3.8442,-7.10741 7.90589,-6.80281c4.06169,0.30461 7.10741,3.84419 6.8028,7.90589z" data-paper-data="{&quot;index&quot;:null}"/><path d="M121.61273,133.49632c-0.30461,4.06169 -3.8442,7.10741 -7.90589,6.80281c-4.06169,-0.30461 -7.10741,-3.84419 -6.8028,-7.90589c0.30461,-4.06169 3.84419,-7.10741 7.90588,-6.80281c4.06169,0.30461 7.10741,3.84419 6.80281,7.90589z" data-paper-data="{&quot;index&quot;:null}"/><path d="M124.30572,143.02226c-0.30461,4.06169 -3.8442,7.10741 -7.90589,6.8028c-4.06169,-0.30461 -7.10741,-3.84419 -6.8028,-7.90589c0.30461,-4.06169 3.84419,-7.10741 7.90589,-6.80281c4.06169,0.30461 7.10742,3.84419 6.80281,7.90589z" data-paper-data="{&quot;index&quot;:null}"/><path d="M150.00561,112.31978c-0.48183,6.42486 -7.21828,11.15733 -15.04627,10.57026c-7.82798,-0.58706 -13.78323,-6.27135 -13.30139,-12.69621c0.48183,-6.42486 7.21828,-11.15733 15.04628,-10.57026c7.82798,0.58707 13.78323,6.27135 13.30139,12.69621z"/><path d="M143.75049,116.2583c-2.09664,-1.39428 -2.69926,-4.17423 -1.34598,-6.20921c1.35327,-2.03497 4.14997,-2.55436 6.24661,-1.16009c0.92114,0.61257 4.08534,2.33415 5.72795,4.32974c2.09616,2.54664 2.5558,5.49178 1.79708,6.6327c-0.72788,1.09456 -2.47298,-1.41099 -5.35474,-2.52631c-2.47594,-0.95824 -6.10199,-0.42251 -7.0709,-1.06684z"/><path d="M105.52047,206.90208c-4.00397,-0.74725 -6.64405,-4.59886 -5.89681,-8.60283c0.74724,-4.00397 4.59886,-6.64407 8.60282,-5.89682c4.00397,0.74724 6.64407,4.59887 5.89681,8.60284c-0.74725,4.00397 -4.59887,6.64406 -8.60283,5.89681z" data-paper-data="{&quot;index&quot;:null}"/><path d="M112.30911,200.33831c-4.00397,-0.74724 -6.64405,-4.59887 -5.89681,-8.60284c0.74724,-4.00397 4.59887,-6.64406 8.60284,-5.89682c4.00397,0.74724 6.64407,4.59887 5.89681,8.60284c-0.74725,4.00397 -4.59887,6.64407 -8.60284,5.89682z" data-paper-data="{&quot;index&quot;:null}"/><path d="M113.11937,189.66707c-4.00397,-0.74724 -6.64405,-4.59887 -5.89681,-8.60284c0.74724,-4.00397 4.59886,-6.64406 8.60283,-5.89682c4.00397,0.74724 6.64407,4.59887 5.89682,8.60283c-0.74725,4.00397 -4.59887,6.64407 -8.60284,5.89681z" data-paper-data="{&quot;index&quot;:null}"/></g><path d="M66.10668,96.18388c0,0 4.40658,-4.23397 4.49833,-4.85295c0.24062,-1.62344 -0.11994,-28.72271 25.71595,-29.72414c31.91375,-0.65321 27.89457,25.27336 29.69344,30.16491c2.46652,6.70704 4.40183,12.44064 4.40183,12.44064c0,0 -1.97844,-1.4682 -2.91687,-2.2407c-0.87527,-0.7205 -2.71792,-2.2492 -2.71792,-2.2492c0,0 2.21006,7.39861 0.93727,14.79634c-1.117,6.77864 -5.21774,12.31571 -5.21774,12.31571l-0.82595,-1.67829c0,0 -0.73117,1.57147 -1.54438,2.38282c-0.81321,0.81134 -2.4586,2.08252 -2.4586,2.08252l-0.06581,-2.64841c0,0 -5.04778,7.87753 -17.41005,7.77285c-11.65852,-0.18265 -18.64041,-7.63247 -18.64041,-7.63247l-0.08308,1.89814c0,0 -2.78465,-2.35423 -4.41957,-6.94062c-1.94862,-5.46644 -2.31612,-8.75358 -2.31612,-8.75358c0,0 -1.67238,1.35785 -4.08753,1.98362c-3.02632,0.78413 -4.96666,0.24685 -4.96666,0.24685c0,0 2.57959,-1.9427 3.99238,-3.41034c1.2584,-1.30726 1.89223,-2.41462 1.89223,-2.41462c0,0 -1.50686,0.77553 -3.02631,1.15679c-1.58537,0.39781 -2.8814,0.3796 -2.8814,0.3796c0,0 3.55693,-3.60152 5.02679,-7.77482c1.38778,-3.94027 1.50124,-7.83418 1.50124,-7.83418c0,0 -0.97354,0.47305 -2.38095,0.5685c-0.89211,0.06051 -1.7001,-0.03496 -1.7001,-0.03496z" fill="#000000" stroke="none" stroke-width="1.5" stroke-linecap="butt"/><g fill="#000000" stroke="none" stroke-width="0" stroke-linecap="butt"><path d="M109.58023,188.16784c1.27109,-3.86968 5.43852,-5.97626 9.30821,-4.70517c3.86968,1.27109 5.97626,5.43852 4.70517,9.30821c-1.27109,3.86968 -5.43852,5.97625 -9.3082,4.70516c-3.86968,-1.27109 -5.97626,-5.43852 -4.70517,-9.3082z"/><path d="M115.29231,182.23345c1.27109,-3.86968 5.43852,-5.97626 9.3082,-4.70517c3.86968,1.27109 5.97626,5.43852 4.70516,9.30821c-1.27109,3.86968 -5.43852,5.97626 -9.30821,4.70517c-3.86968,-1.27109 -5.97626,-5.43852 -4.70516,-9.30821z"/><path d="M119.71559,172.48837c1.27109,-3.86968 5.43852,-5.97626 9.3082,-4.70517c3.86968,1.27109 5.97626,5.43852 4.70516,9.30821c-1.27109,3.86968 -5.43852,5.97626 -9.3082,4.70517c-3.86968,-1.27109 -5.97626,-5.43852 -4.70516,-9.30821z"/><path d="M119.389,162.59448c1.27109,-3.86968 5.43852,-5.97626 9.30821,-4.70517c3.86968,1.27109 5.97626,5.43852 4.70516,9.30821c-1.27109,3.86968 -5.43852,5.97626 -9.3082,4.70517c-3.86968,-1.27109 -5.97626,-5.43852 -4.70517,-9.30821z"/><path d="M143.67252,136.79068c-1.27109,3.86968 -5.43852,5.97626 -9.30821,4.70517c-3.86968,-1.27109 -5.97626,-5.43852 -4.70516,-9.30821c1.27109,-3.86968 5.43851,-5.97626 9.3082,-4.70517c3.86968,1.27109 5.97626,5.43852 4.70517,9.30821z" data-paper-data="{&quot;index&quot;:null}"/><path d="M135.23776,140.70161c-1.27109,3.86968 -5.43852,5.97626 -9.3082,4.70517c-3.86968,-1.27109 -5.97626,-5.43852 -4.70516,-9.30821c1.27109,-3.86968 5.43852,-5.97626 9.30821,-4.70517c3.86968,1.27109 5.97626,5.43852 4.70517,9.30821z" data-paper-data="{&quot;index&quot;:null}"/><path d="M130.81447,150.44669c-1.27109,3.86968 -5.43852,5.97626 -9.3082,4.70517c-3.86968,-1.27109 -5.97626,-5.43852 -4.70516,-9.30821c1.27109,-3.86968 5.43852,-5.97626 9.3082,-4.70517c3.86968,1.27109 5.97626,5.43852 4.70516,9.30821z" data-paper-data="{&quot;index&quot;:null}"/><path d="M131.14105,160.34058c-1.27109,3.86968 -5.43852,5.97625 -9.3082,4.70516c-3.86968,-1.27109 -5.97626,-5.43852 -4.70516,-9.30821c1.27109,-3.86968 5.43852,-5.97626 9.3082,-4.70517c3.86968,1.27109 5.97626,5.43852 4.70517,9.30821z" data-paper-data="{&quot;index&quot;:null}"/><path d="M163.46196,136.70825c-2.01063,6.12114 -9.68644,9.09739 -17.14437,6.64764c-7.45794,-2.44975 -11.87385,-9.39781 -9.86321,-15.51895c2.01063,-6.12114 9.68644,-9.09739 17.14438,-6.64764c7.45794,2.44975 11.87384,9.39782 9.8632,15.51895z"/><path d="M156.44406,139.0294c-1.70045,-1.85698 -1.61785,-4.70029 0.18452,-6.35074c1.80235,-1.65044 4.64195,-1.48302 6.34241,0.37396c0.74707,0.81586 3.40526,3.24692 4.52056,5.57857c1.42327,2.9755 1.16218,5.94483 0.15168,6.87017c-0.96944,0.88773 -2.06177,-1.96359 -4.59137,-3.73831c-2.17336,-1.52479 -5.82196,-1.87551 -6.60778,-2.73366z"/><path d="M97.56505,217.83987c-3.70735,-1.68691 -5.34523,-6.05983 -3.65832,-9.76718c1.68691,-3.70735 6.05984,-5.34524 9.76718,-3.65833c3.70735,1.68691 5.34524,6.05984 3.65833,9.76718c-1.68691,3.70735 -6.05984,5.34524 -9.76718,3.65833z" data-paper-data="{&quot;index&quot;:null}"/><path d="M105.7313,213.09843c-3.70735,-1.68691 -5.34523,-6.05984 -3.65832,-9.76718c1.68691,-3.70735 6.05984,-5.34524 9.76718,-3.65833c3.70735,1.68691 5.34523,6.05984 3.65832,9.76718c-1.68691,3.70735 -6.05984,5.34524 -9.76718,3.65833z" data-paper-data="{&quot;index&quot;:null}"/><path d="M109.0805,202.93406c-3.70735,-1.68691 -5.34523,-6.05984 -3.65832,-9.76718c1.68691,-3.70735 6.05983,-5.34524 9.76718,-3.65833c3.70735,1.68691 5.34524,6.05984 3.65833,9.76718c-1.68691,3.70735 -6.05984,5.34524 -9.76718,3.65833z" data-paper-data="{&quot;index&quot;:null}"/></g><path d="M109.22129,164.69239c-0.40834,0 -0.73936,-0.33103 -0.73936,-0.73936c0,-0.40834 0.33103,-0.73937 0.73936,-0.73937c0.40834,0 0.73936,0.33103 0.73936,0.73937c0,0.40834 -0.33103,0.73936 -0.73936,0.73936z" fill="#000000" stroke="none" stroke-width="1.5" stroke-linecap="butt"/><path d="M105.46062,167.72073c-3.19128,-0.22478 -4.68482,-1.2826 -4.41127,-1.84471c0.08428,-0.17319 2.03513,0.76041 4.98363,0.9329c4.58224,0.26806 6.08465,-0.45167 6.08465,-0.45167v0.96247c0,0 -1.72559,0.74838 -6.65701,0.40102z" fill="#000000" stroke="#000000" stroke-width="0" stroke-linecap="butt"/><path d="M85.57527,163.95303c0,-0.40834 0.33103,-0.73937 0.73936,-0.73937c0.40834,0 0.73937,0.33103 0.73937,0.73937c0,0.40834 -0.33103,0.73936 -0.73937,0.73936c-0.40834,0 -0.73936,-0.33103 -0.73936,-0.73936z" fill="#000000" stroke="none" stroke-width="1.5" stroke-linecap="butt"/><path d="M90.0753,167.72073c-4.93142,0.34737 -6.65701,-0.40102 -6.65701,-0.40102v-0.96247c0,0 1.50241,0.71973 6.08465,0.45167c2.9485,-0.17249 4.89936,-1.10609 4.98364,-0.9329c0.27355,0.5621 -1.21999,1.61992 -4.41127,1.84471z" fill="#000000" stroke="#000000" stroke-width="0" stroke-linecap="butt"/><path d="M98.14052,208.15368c-0.58553,0 -1.06019,-0.47466 -1.06019,-1.06019c0,-0.58553 0.47466,-1.06019 1.06019,-1.06019c0.58553,0 1.06019,0.47466 1.06019,1.06019c0,0.58553 -0.47466,1.06019 -1.06019,1.06019z" data-paper-data="{&quot;index&quot;:null}" fill="#000000" stroke="none" stroke-width="1.5" stroke-linecap="butt"/><path d="M70.18581,239.09087c0,0 -0.45426,-67.48187 -0.56722,-84.37534c-0.03897,-5.82889 5.85339,-26.28331 28.74333,-26.39757c22.59481,-0.11279 28.49646,21.08242 28.49083,26.38015c-0.05476,33.06229 0.4678,84.35709 0.4678,84.35709l-7.50483,0.06874l-0.11355,-82.10967c0,0 0.05397,-2.21591 -2.01354,-2.25513c-2.45551,-0.04657 -2.10587,2.22758 -2.10587,2.22758l0.14691,82.12886l-34.47144,0.05164l-0.21834,-82.38849c0,0 0.19983,-2.087 -2.06312,-2.09804c-2.22416,-0.01083 -2.01314,2.07985 -2.01314,2.07985l0.25246,82.2696z" fill="url(#color-7)" stroke="#000000" stroke-width="0" stroke-linecap="butt"/><path d="M69.56652,239.61351v-51.29235h7.80112v51.29235z" fill="url(#color-8)" stroke="none" stroke-width="0" stroke-linecap="butt"/><path d="M81.07318,239.22346c0,0 0.19503,-35.32865 0.19503,-37.83542c0,-0.3683 6.67294,-7.53413 14.00046,-11.55105c9.53973,-5.22965 20.32447,-7.56169 20.32447,-7.56169l0.58508,56.94817z" fill="url(#color-9)" stroke="none" stroke-width="0" stroke-linecap="butt"/><path d="M119.75307,239.48284v-53.82772c0,0 1.27056,-2.59119 2.33834,-3.74553c1.29388,-1.39879 4.87771,-4.05558 4.87771,-4.05558l0.39005,61.62884z" fill="url(#color-10)" stroke="none" stroke-width="0" stroke-linecap="butt"/><path d="M68.20336,219.75943v-37.83153h10.33649v37.83153z" fill="url(#color-11)" stroke="#000000" stroke-width="0" stroke-linecap="butt"/><path d="M89.04031,149.18725c-2.82699,7.29702 -16.03139,11.67784 -20.47726,9.95543c-4.44586,-1.7224 -3.7082,-12.46561 -0.8812,-19.76263c2.82699,-7.29702 15.75556,-8.94243 20.20142,-7.22003c4.44586,1.7224 3.98403,9.73021 1.15704,17.02722z" fill="url(#color-12)" stroke="none" stroke-width="0" stroke-linecap="butt"/><path d="M109.69318,132.52404c4.44587,-1.7224 17.37443,-0.077 20.20143,7.22002c2.82699,7.29702 3.56466,18.04022 -0.88121,19.76263c-4.44586,1.7224 -17.65027,-2.65841 -20.47726,-9.95542c-2.82699,-7.29702 -3.28882,-15.30482 1.15704,-17.02723z" data-paper-data="{&quot;index&quot;:null}" fill="url(#color-13)" stroke="none" stroke-width="0" stroke-linecap="butt"/><path d="M78.17932,103.89834c-0.56997,-5.19961 -0.13119,-12.26662 -0.13119,-12.26662c0,0 2.43647,-0.10315 9.87587,-2.54761c5.71541,-1.878 14.4791,-7.2239 14.4791,-7.2239c0,0 -1.47875,2.19419 -2.33903,3.26105c-0.91456,1.13419 -2.75495,3.34717 -2.75495,3.34717c0,0 5.56537,-1.36108 10.38509,-3.69681c6.04697,-2.71192 7.43913,-4.55465 9.15575,-3.56193c2.02602,1.17166 1.23695,16.54518 1.13434,20.52385c-0.17884,4.06059 -1.60516,6.84364 -1.98087,9.0158c-0.3757,2.17217 -0.16015,4.39436 -1.23015,11.51037c-0.66776,4.44088 -2.78143,6.46788 -6.84362,10.69374c-4.06218,4.22587 -6.27036,6.80803 -9.09873,6.94288c-2.72192,0.12977 -6.49601,-3.4518 -10.18319,-7.11872c-3.92624,-3.90469 -6.52554,-5.86641 -7.27022,-10.60967c-0.67067,-4.2718 -0.769,-7.06431 -1.13172,-10.87292c-0.2651,-2.7836 -1.75518,-4.55707 -2.06646,-7.39668z" fill="#000000" stroke="#000000" stroke-width="1.5" stroke-linecap="butt"/><path d="M56.09676,81.29937z" fill="url(#color-14)" stroke="none" stroke-width="0" stroke-linecap="butt"/><path d="M101.53063,99.73303c-1.3639,-7.57361 5.86445,-15.21409 5.86445,-15.21409c0,0 9.43968,4.63878 10.80358,12.2124c1.3639,7.57362 -5.86445,15.21409 -5.86445,15.21409c0,0 -9.43967,-4.63879 -10.80358,-12.2124z" data-paper-data="{&quot;index&quot;:null}" fill="url(#color-15)" stroke="none" stroke-width="NaN" stroke-linecap="butt"/><path d="M84.56938,112.23161c0,0 -7.22836,-7.64048 -5.86445,-15.21409c1.3639,-7.57361 10.80359,-12.2124 10.80359,-12.2124c0,0 7.22835,7.64047 5.86444,15.21408c-1.3639,7.57361 -10.80358,12.2124 -10.80358,12.2124z" data-paper-data="{&quot;index&quot;:null}" fill="url(#color-16)" stroke="none" stroke-width="NaN" stroke-linecap="butt"/><path d="M76.29537,124.73733c0,-4.25719 2.92385,-7.70831 6.53061,-7.70831c3.60676,0 6.53061,3.45113 6.53061,7.70831c0,1.2198 -4.41029,7.13455 -4.4068,8.01932c0.02181,5.54516 4.39732,11.77567 3.67723,10.97078c-0.67531,-0.75483 -5.63586,-2.89657 -8.73899,-7.50891c-2.6726,-3.97243 -3.59267,-10.46109 -3.59267,-11.4812z" fill="#ffffff" stroke="none" stroke-width="0" stroke-linecap="butt"/><path d="M117.19461,136.76647c-3.10313,4.61234 -8.06367,6.75407 -8.73899,7.50891c-0.72009,0.80488 3.65543,-5.42562 3.67724,-10.97078c0.00349,-0.88478 -4.4068,-6.79952 -4.4068,-8.01932c0,-4.25719 2.92385,-7.70832 6.53061,-7.70832c3.60676,0 6.53061,3.45113 6.53061,7.70832c0,1.02011 -0.92006,7.50877 -3.59266,11.48121z" data-paper-data="{&quot;index&quot;:null}" fill="#ffffff" stroke="none" stroke-width="0" stroke-linecap="butt"/><path d="M90.70587,126.70735c0,-1.36897 0.77402,-2.47873 1.72883,-2.47873c0.9548,0 1.72884,1.10977 1.72884,2.47873c0,1.36897 -1.72884,6.07288 -1.72884,6.07288c0,0 -1.72883,-4.70392 -1.72883,-6.07288z" fill="#ffffff" stroke="none" stroke-width="0" stroke-linecap="butt"/><path d="M94.10561,128.23548c0,-1.36897 0.77401,-2.47872 1.72883,-2.47872c0.95481,0 1.72883,1.10977 1.72883,2.47872c0,1.36897 -1.72883,6.07288 -1.72883,6.07288c0,0 -1.72883,-4.70391 -1.72883,-6.07288z" fill="#ffffff" stroke="none" stroke-width="0" stroke-linecap="butt"/><path d="M104.67482,132.94507c0,0 -1.72883,-4.70392 -1.72883,-6.07288c0,-1.36897 0.77403,-2.47872 1.72883,-2.47872c0.9548,0 1.72883,1.10977 1.72883,2.47872c0,1.36897 -1.72883,6.07288 -1.72883,6.07288z" data-paper-data="{&quot;index&quot;:null}" fill="#ffffff" stroke="none" stroke-width="0" stroke-linecap="butt"/><path d="M101.27508,134.47319c0,0 -1.72883,-4.70392 -1.72883,-6.07288c0,-1.36897 0.77402,-2.47872 1.72883,-2.47872c0.95481,0 1.72883,1.10977 1.72883,2.47872c0,1.36897 -1.72883,6.07288 -1.72883,6.07288z" data-paper-data="{&quot;index&quot;:null}" fill="#ffffff" stroke="none" stroke-width="0" stroke-linecap="butt"/><path d="M75.32734,97.37553v-15.29681h46.37108v15.29681l-23.0834,2.16895z" fill="#000000" stroke="#000000" stroke-width="1.5" stroke-linecap="butt"/></g></g></svg>