<svg version="1.1" xmlns="http://www.w3.org/2000/svg" xmlns:xlink="http://www.w3.org/1999/xlink" width="492" height="367.57853" viewBox="0,0,492,367.57853"><defs><linearGradient x1="240.5" y1="332" x2="240.5" y2="365" gradientUnits="userSpaceOnUse" id="color-1"><stop offset="0" stop-color="#ffffff"/><stop offset="1" stop-color="#ffffff" stop-opacity="0"/></linearGradient><linearGradient x1="240.89463" y1="-2" x2="240.89463" y2="32.69503" gradientUnits="userSpaceOnUse" id="color-2"><stop offset="0" stop-color="#ffffff" stop-opacity="0"/><stop offset="1" stop-color="#ffffff"/></linearGradient><linearGradient x1="-3.5" y1="180.23215" x2="29.5" y2="180.23215" gradientUnits="userSpaceOnUse" id="color-3"><stop offset="0" stop-color="#ffffff" stop-opacity="0"/><stop offset="1" stop-color="#ffffff"/></linearGradient><linearGradient x1="450.5" y1="179.71073" x2="483.5" y2="179.71073" gradientUnits="userSpaceOnUse" id="color-4"><stop offset="0" stop-color="#ffffff"/><stop offset="1" stop-color="#ffffff" stop-opacity="0"/></linearGradient><linearGradient x1="428.30655" y1="36.30298" x2="446.00719" y2="36.30298" gradientUnits="userSpaceOnUse" id="color-5"><stop offset="0" stop-color="#000000"/><stop offset="1" stop-color="#000000" stop-opacity="0"/></linearGradient><linearGradient x1="428.30655" y1="40.78415" x2="446.00719" y2="40.78415" gradientUnits="userSpaceOnUse" id="color-6"><stop offset="0" stop-color="#000000"/><stop offset="1" stop-color="#000000" stop-opacity="0"/></linearGradient><linearGradient x1="94.03381" y1="109.61494" x2="99.70574" y2="109.61494" gradientUnits="userSpaceOnUse" id="color-7"><stop offset="0" stop-color="#000000"/><stop offset="1" stop-color="#000000" stop-opacity="0"/></linearGradient><linearGradient x1="94.03381" y1="111.05087" x2="99.70574" y2="111.05087" gradientUnits="userSpaceOnUse" id="color-8"><stop offset="0" stop-color="#000000"/><stop offset="1" stop-color="#000000" stop-opacity="0"/></linearGradient></defs><g transform="translate(5.5,2.57853)"><g data-paper-data="{&quot;isPaintingLayer&quot;:true}" fill-rule="nonzero" stroke-linejoin="miter" stroke-miterlimit="10" stroke-dasharray="" stroke-dashoffset="0" style="mix-blend-mode: normal"><path d="M-5.5,365l33,-33h424l35,33z" fill="url(#color-1)" stroke="none" stroke-width="0" stroke-linecap="butt"/><path d="M485.5,-2l-37,33l-418.21073,1.69503l-34,-33.48429z" data-paper-data="{&quot;index&quot;:null}" fill="url(#color-2)" stroke="none" stroke-width="0" stroke-linecap="butt"/><path d="M-3.5,-2l33,33v299.46429l-33,32z" fill="url(#color-3)" stroke="none" stroke-width="0" stroke-linecap="butt"/><path d="M483.5,362l-33,-30v-303.90576l33,-30.67277z" data-paper-data="{&quot;index&quot;:null}" fill="url(#color-4)" stroke="none" stroke-width="0" stroke-linecap="butt"/><path d="M28,331.5v-303h424v303z" fill="#ffffff" stroke="#000000" stroke-width="5" stroke-linecap="butt"/><path d="M34.75,326.8202v-74.3202h142.5v74.3202z" fill="#000000" stroke="none" stroke-width="0" stroke-linecap="butt"/><text transform="translate(39.59015,266.55803) scale(0.29391,0.29391)" font-size="40" xml:space="preserve" fill="#ffffff" fill-rule="nonzero" stroke="none" stroke-width="1" stroke-linecap="butt" stroke-linejoin="miter" stroke-miterlimit="10" stroke-dasharray="" stroke-dashoffset="0" font-family="Serif" font-weight="normal" text-anchor="start" style="mix-blend-mode: normal"><tspan x="0" dy="0">Name: Statue</tspan><tspan x="0" dy="46.150000000000006px">Age: None</tspan><tspan x="0" dy="46.150000000000006px">Gender: None</tspan><tspan x="0" dy="46.150000000000006px">Role: Anomaly</tspan><tspan x="0" dy="46.150000000000006px">Status: Contained</tspan></text><path d="M194.25,59v-19.5h86v19.5z" fill="#000000" stroke="none" stroke-width="0" stroke-linecap="butt"/><text transform="translate(196.5,53.9009) scale(0.42192,0.42192)" font-size="40" xml:space="preserve" fill="#ffffff" fill-rule="nonzero" stroke="none" stroke-width="1" stroke-linecap="butt" stroke-linejoin="miter" stroke-miterlimit="10" stroke-dasharray="" stroke-dashoffset="0" font-family="Serif" font-weight="normal" text-anchor="start" style="mix-blend-mode: normal"><tspan x="0" dy="0">Description:</tspan></text><path d="M429.07853,298.09424h-241v-236.31414" fill="none" stroke="#000000" stroke-width="5" stroke-linecap="round"/><path d="M37.83201,243v-205h136.5312v205z" fill="#174752" stroke="#151515" stroke-width="6.5" stroke-linecap="butt"/><path d="M37.83201,243v-205h136.5312v205z" fill="#ffffff" stroke="#151515" stroke-width="6.5" stroke-linecap="butt"/><text transform="translate(349.55711,323.11998) scale(0.35959,0.35959)" font-size="40" xml:space="preserve" fill="#000000" fill-rule="nonzero" stroke="none" stroke-width="1" stroke-linecap="butt" stroke-linejoin="miter" stroke-miterlimit="10" stroke-dasharray="" stroke-dashoffset="0" font-family="Serif" font-weight="normal" text-anchor="start" style="mix-blend-mode: normal"><tspan x="0" dy="0">Click this to exit</tspan></text><text transform="translate(197.47954,79.58635) scale(0.37854,0.37854)" font-size="40" xml:space="preserve" fill="#000000" fill-rule="nonzero" stroke="none" stroke-width="1" stroke-linecap="butt" stroke-linejoin="miter" stroke-miterlimit="10" stroke-dasharray="" stroke-dashoffset="0" font-family="Serif" font-weight="normal" text-anchor="start" style="mix-blend-mode: normal"><tspan x="0" dy="0">This is a sentient statue, so we</tspan><tspan x="0" dy="48px">contained it.</tspan><tspan x="0" dy="48px"> </tspan><tspan x="0" dy="48px">I almost made a breakthrough with</tspan><tspan x="0" dy="48px">it's discovery. Im very sad they took</tspan><tspan x="0" dy="48px">it away from me. I spent a while</tspan><tspan x="0" dy="48px">studying how sentient life can</tspan><tspan x="0" dy="48px">posess inanimate things.</tspan><tspan x="0" dy="48px"> </tspan><tspan x="0" dy="48px">About a year ago when I wrote</tspan><tspan x="0" dy="48px">LOG_06 of my journal on my subject</tspan><tspan x="0" dy="48px">A, they took that from me too.</tspan></text><path d="M399.40297,43.92097l46.38016,-0.22406" fill="none" stroke="#000000" stroke-width="3" stroke-linecap="round"/><g stroke="none" stroke-linecap="butt"><g fill="#000000" stroke-width="1" font-weight="normal" font-size="40" text-anchor="start"><text transform="translate(399.40297,42.80068) scale(0.23516,0.23516)" font-size="40" xml:space="preserve" fill="#000000" fill-rule="nonzero" stroke="none" stroke-width="1" stroke-linecap="butt" stroke-linejoin="miter" stroke-miterlimit="10" stroke-dasharray="" stroke-dashoffset="0" font-family="Pixel" font-weight="normal" text-anchor="start" style="mix-blend-mode: normal"><tspan x="0" dy="0">DONK</tspan></text><text transform="translate(398.8418,52.32215) scale(0.23516,0.23516)" font-size="40" xml:space="preserve" fill="#000000" fill-rule="nonzero" stroke="none" stroke-width="1" stroke-linecap="butt" stroke-linejoin="miter" stroke-miterlimit="10" stroke-dasharray="" stroke-dashoffset="0" font-family="Sans Serif" font-weight="normal" text-anchor="start" style="mix-blend-mode: normal"><tspan x="0" dy="0">Industries</tspan></text></g><path d="M428.30655,37.64733v-2.6887h17.70064v2.6887z" fill="url(#color-5)" stroke-width="0"/><path d="M428.30655,42.09116v-2.61402h17.70064v2.61402z" fill="url(#color-6)" stroke-width="0"/></g><text transform="translate(186.81898,313.45681) scale(0.3147,0.3147)" font-size="40" xml:space="preserve" fill="#000000" fill-rule="nonzero" stroke="none" stroke-width="1" stroke-linecap="butt" stroke-linejoin="miter" stroke-miterlimit="10" stroke-dasharray="" stroke-dashoffset="0" font-family="Serif" font-weight="normal" text-anchor="start" style="mix-blend-mode: normal"><tspan x="0" dy="0">Written by: Yoko Jonn</tspan></text><path d="M115.43977,149.89752c-0.4974,0 -0.90062,-0.40322 -0.90062,-0.90062c0,-0.4974 0.40322,-0.90063 0.90062,-0.90063c0.4974,0 0.90062,0.40323 0.90062,0.90063c0,0.4974 -0.40322,0.90062 -0.90062,0.90062z" fill="#000000" stroke="none" stroke-width="1.5" stroke-linecap="butt"/><path d="M110.85891,153.58634c-3.88731,-0.27381 -5.7066,-1.56234 -5.37339,-2.24704c0.10266,-0.21097 2.479,0.92626 6.07058,1.13636c5.58164,0.32653 7.41174,-0.55018 7.41174,-0.55018v1.17238c0,0 -2.10194,0.9116 -8.10893,0.48849z" fill="#000000" stroke="#000000" stroke-width="0" stroke-linecap="butt"/><path d="M86.63649,148.9969c0,-0.4974 0.40322,-0.90063 0.90062,-0.90063c0.4974,0 0.90063,0.40323 0.90063,0.90063c0,0.4974 -0.40323,0.90062 -0.90063,0.90062c-0.4974,0 -0.90062,-0.40322 -0.90062,-0.90062z" fill="#000000" stroke="none" stroke-width="1.5" stroke-linecap="butt"/><path d="M92.11798,153.58634c-6.00698,0.42313 -8.10893,-0.48849 -8.10893,-0.48849v-1.17238c0,0 1.8301,0.87671 7.41174,0.55018c3.59157,-0.21012 5.96792,-1.34733 6.07059,-1.13636c0.33321,0.68469 -1.48607,1.97323 -5.37339,2.24704z" fill="#000000" stroke="#000000" stroke-width="0" stroke-linecap="butt"/><path d="M101.94226,202.83788c-0.71323,0 -1.29142,-0.57819 -1.29142,-1.29142c0,-0.71323 0.57819,-1.29142 1.29142,-1.29142c0.71323,0 1.29142,0.57819 1.29142,1.29142c0,0.71323 -0.57819,1.29142 -1.29142,1.29142z" data-paper-data="{&quot;index&quot;:null}" fill="#000000" stroke="none" stroke-width="1.5" stroke-linecap="butt"/><path d="M80.79348,239.31042v-103.81381c0,0 0.65946,-8.47487 0.65946,-12.74958c0,-3.91736 -0.65946,-11.92033 -0.65946,-11.92033c0,0 2.32811,-2.04923 4.0547,-3.26423c1.72659,-1.21501 4.50432,-2.44178 4.50432,-2.44178c0,0 0.9146,-0.78957 14.11858,-0.85084c13.4423,-0.06237 10.60749,0.85084 10.60749,0.85084c0,0 3.40766,1.32343 5.3699,2.56618c1.96224,1.24275 4.14013,3.13983 4.14013,3.13983c0,0 -0.65946,8.20801 -0.65946,12.35997c0,4.21689 0.65946,12.74958 0.65946,12.74958v103.37418z" fill="#447a72" stroke="#000000" stroke-width="2" stroke-linecap="butt"/><g stroke-linecap="butt"><path d="M104.459,135.87089v-10.81158h10.81158v10.81158z" fill="#73cec0" stroke="#000000" stroke-width="1"/><path d="M81.16865,132.18863c0,-9.20378 9.04943,-16.66493 20.21247,-16.66493c11.16303,0 20.21247,7.46114 20.21247,16.66493c0,9.20378 -9.04943,16.66493 -20.21247,16.66493c-11.16303,0 -20.21247,-7.46114 -20.21247,-16.66493z" fill="#ffffff" stroke="#9ec3be" stroke-width="2"/><path d="M108.3459,133.72145c0,7.6073 -2.98013,13.77423 -6.65632,13.77423c-3.67618,0 -6.65632,-6.16693 -6.65632,-13.77423c0,-7.6073 2.98013,-13.77423 6.65632,-13.77423c3.67618,0 6.65632,6.16693 6.65632,13.77423z" fill="#010101" stroke="#9ec3be" stroke-width="2"/></g><g stroke-linecap="butt"><path d="M104.99257,166.55203v-8.31441h8.31441v8.31441z" fill="#73cec0" stroke="#000000" stroke-width="1"/><path d="M87.08161,163.72026c0,-7.07798 6.95927,-12.81581 15.54397,-12.81581c8.5847,0 15.54397,5.73783 15.54397,12.81581c0,7.07798 -6.95927,12.81581 -15.54397,12.81581c-8.5847,0 -15.54397,-5.73783 -15.54397,-12.81581z" fill="#ffffff" stroke="#9ec3be" stroke-width="2"/><path d="M107.9817,164.89905c0,5.85023 -2.29181,10.59278 -5.1189,10.59278c-2.82709,0 -5.1189,-4.74255 -5.1189,-10.59278c0,-5.85023 2.29181,-10.59278 5.1189,-10.59278c2.82709,0 5.1189,4.74254 5.1189,10.59278z" fill="#000000" stroke="#9ec3be" stroke-width="2"/></g><g stroke-linecap="butt"><path d="M103.73148,190.13255v-5.90238h5.90238v5.90238z" fill="#73cec0" stroke="#000000" stroke-width="1"/><path d="M91.01654,188.12229c0,-5.02463 4.94037,-9.09791 11.03462,-9.09791c6.09426,0 11.03462,4.07327 11.03462,9.09791c0,5.02463 -4.94037,9.09791 -11.03462,9.09791c-6.09426,0 -11.03462,-4.07327 -11.03462,-9.09791z" fill="#ffffff" stroke="#9ec3be" stroke-width="2"/><path d="M105.85345,188.9591c0,4.15307 -1.62695,7.51979 -3.63389,7.51979c-2.00694,0 -3.63389,-3.36672 -3.63389,-7.51979c0,-4.15307 1.62696,-7.51978 3.63389,-7.51978c2.00694,0 3.63389,3.36672 3.63389,7.51978z" fill="#000000" stroke="#9ec3be" stroke-width="2"/></g><g stroke-linecap="butt"><path d="M105.11076,212.97211v-5.46726h5.46726v5.46726z" fill="#73cec0" stroke="#000000" stroke-width="1"/><path d="M93.33316,211.11006c0,-4.65422 4.57617,-8.42723 10.22117,-8.42723c5.645,0 10.22117,3.773 10.22117,8.42723c0,4.65422 -4.57617,8.42723 -10.22117,8.42723c-5.645,0 -10.22117,-3.773 -10.22117,-8.42723z" fill="#ffffff" stroke="#9ec3be" stroke-width="2"/><path d="M107.07632,211.88517c0,3.84691 -1.50701,6.96544 -3.36601,6.96544c-1.85899,0 -3.36601,-3.11853 -3.36601,-6.96544c0,-3.84691 1.50701,-6.96544 3.36601,-6.96544c1.85899,0 3.36601,3.11853 3.36601,6.96544z" fill="#000000" stroke="#9ec3be" stroke-width="2"/></g><g stroke-linecap="butt"><path d="M105.09374,230.06731v-4.13356h4.13356v4.13356z" fill="#73cec0" stroke="#000000" stroke-width="1"/><path d="M96.18921,228.65949c0,-3.51885 3.45984,-6.37145 7.72777,-6.37145c4.26793,0 7.72776,2.8526 7.72776,6.37145c0,3.51885 -3.45983,6.37145 -7.72776,6.37145c-4.26793,0 -7.72777,-2.8526 -7.72777,-6.37145z" fill="#ffffff" stroke="#9ec3be" stroke-width="2"/><path d="M106.57979,229.24552c0,2.90848 -1.13939,5.26626 -2.54489,5.26626c-1.4055,0 -2.54489,-2.35778 -2.54489,-5.26626c0,-2.90848 1.13939,-5.26626 2.54489,-5.26626c1.4055,0 2.54489,2.35778 2.54489,5.26626z" fill="#000000" stroke="#9ec3be" stroke-width="2"/></g><g stroke="none" stroke-linecap="butt"><g fill="#000000" stroke-width="1" font-weight="normal" font-size="40" text-anchor="start"><text transform="translate(84.77205,111.69704) scale(0.07535,0.07535)" font-size="40" xml:space="preserve" fill="#000000" fill-rule="nonzero" stroke="none" stroke-width="1" stroke-linecap="butt" stroke-linejoin="miter" stroke-miterlimit="10" stroke-dasharray="" stroke-dashoffset="0" font-family="Pixel" font-weight="normal" text-anchor="start" style="mix-blend-mode: normal"><tspan x="0" dy="0">DONK</tspan></text><text transform="translate(84.59224,114.74806) scale(0.07535,0.07535)" font-size="40" xml:space="preserve" fill="#000000" fill-rule="nonzero" stroke="none" stroke-width="1" stroke-linecap="butt" stroke-linejoin="miter" stroke-miterlimit="10" stroke-dasharray="" stroke-dashoffset="0" font-family="Sans Serif" font-weight="normal" text-anchor="start" style="mix-blend-mode: normal"><tspan x="0" dy="0">Industries</tspan></text></g><path d="M94.03381,110.04572v-0.86156h5.67193v0.86156z" fill="url(#color-7)" stroke-width="0"/><path d="M94.03381,111.46968v-0.83762h5.67193v0.83762z" fill="url(#color-8)" stroke-width="0"/></g><path d="M83.78191,112.06669l16.57938,0.24494l-1.88212,-0.01045" fill="none" stroke="#000000" stroke-width="0.5" stroke-linecap="round"/><path d="M245.04924,317.68791v-15.46741h62.7795v15.46741z" fill="#000000" stroke="none" stroke-width="0" stroke-linecap="butt"/></g></g></svg>