<svg version="1.1" xmlns="http://www.w3.org/2000/svg" xmlns:xlink="http://www.w3.org/1999/xlink" width="96.21132" height="253.82356" viewBox="0,0,96.21132,253.82356"><g transform="translate(-190.76935,-57.80332)"><g data-paper-data="{&quot;isPaintingLayer&quot;:true}" fill-rule="nonzero" stroke-linejoin="miter" stroke-miterlimit="10" stroke-dasharray="" stroke-dashoffset="0" style="mix-blend-mode: normal"><path d="M256.1425,200.3338c-0.57113,0 -1.03411,-0.46299 -1.03411,-1.03411c0,-0.57113 0.46299,-1.03413 1.03411,-1.03413c0.57113,0 1.03411,0.463 1.03411,1.03413c0,0.57113 -0.46299,1.03411 -1.03411,1.03411z" fill="#000000" stroke="none" stroke-width="1.5" stroke-linecap="butt"/><path d="M223.06988,199.29969c0,-0.57113 0.46299,-1.03413 1.03411,-1.03413c0.57113,0 1.03413,0.463 1.03413,1.03413c0,0.57113 -0.463,1.03411 -1.03413,1.03411c-0.57113,0 -1.03411,-0.46299 -1.03411,-1.03411z" fill="#000000" stroke="none" stroke-width="1.5" stroke-linecap="butt"/><path d="M250.88263,204.56939c-4.4635,-0.31439 -6.55245,-1.79392 -6.16985,-2.58011c0.11788,-0.24224 2.84645,1.06355 6.97038,1.3048c6.40897,0.37493 8.51033,-0.63173 8.51033,-0.63173v1.34616c0,0 -2.4135,1.04672 -9.31086,0.56089z" fill="#000000" stroke="#000000" stroke-width="0" stroke-linecap="butt"/><path d="M229.36386,204.56939c-6.89736,0.48585 -9.31086,-0.56089 -9.31086,-0.56089v-1.34616c0,0 2.10136,1.00666 8.51033,0.63173c4.12393,-0.24126 6.85251,-1.54704 6.97039,-1.3048c0.3826,0.78618 -1.70634,2.26571 -6.16985,2.58011z" fill="#000000" stroke="#000000" stroke-width="0" stroke-linecap="butt"/><path d="M195.79864,311.62687v-253.22501h91.18203v253.22501z" fill-opacity="0.01" fill="#000000" stroke="none" stroke-width="0" stroke-linecap="butt"/><path d="M201.54534,304.39162c0,0 -0.63536,-94.38387 -0.79335,-118.01201c-0.05451,-8.15261 8.18688,-36.76129 40.20201,-36.9211c31.60235,-0.15775 39.85672,29.48704 39.84884,36.89673c-0.07659,46.24274 0.65429,117.98648 0.65429,117.98648l-10.49667,0.09614l-0.15882,-114.84311c0,0 0.07549,-3.0993 -2.81625,-3.15415c-3.43441,-0.06514 -2.94538,3.11562 -2.94538,3.11562l0.20548,114.86995l-48.21366,0.07222l-0.30539,-115.23309c0,0 0.27949,-2.919 -2.8856,-2.93443c-3.11083,-0.01515 -2.81569,2.90899 -2.81569,2.90899l0.35311,115.0668z" fill="#ffffff" stroke="#000000" stroke-width="2" stroke-linecap="butt"/><path d="M240.64432,261.12113c-0.81895,0 -1.48284,-0.66389 -1.48284,-1.48284c0,-0.81895 0.66389,-1.48284 1.48284,-1.48284c0.81895,0 1.48284,0.66389 1.48284,1.48284c0,0.81895 -0.66389,1.48284 -1.48284,1.48284z" data-paper-data="{&quot;index&quot;:null}" fill="#000000" stroke="none" stroke-width="1.5" stroke-linecap="butt"/><path d="M216.58107,304.40603v-119.20147c0,0 0.75721,-9.73105 0.75721,-14.63937c0,-4.498 -0.75721,-13.6872 -0.75721,-13.6872c0,0 2.67319,-2.35297 4.6557,-3.74807c1.98251,-1.3951 5.17197,-2.80371 5.17197,-2.80371h28.39106c0,0 3.91276,1.51959 6.16585,2.94655c2.25309,1.42695 4.75379,3.60523 4.75379,3.60523c0,0 -0.75721,9.42463 -0.75721,14.19201c0,4.84193 0.75721,14.63937 0.75721,14.63937v118.69667z" fill="#000000" stroke="#000000" stroke-width="2" stroke-linecap="butt"/><path d="M214.5,304.5v-17.4c0,0 -2.11591,-64.40319 26.18495,-64.8c29.43364,-0.4127 27.01505,64.8 27.01505,64.8v17.4z" fill="#000000" stroke="#000000" stroke-width="2" stroke-linecap="butt"/><path d="M219.55,153.0325c0,-2.52125 0.60818,-4.45155 0.60818,-4.45155c0,0 0.90476,-1.10369 1.97658,-1.10369c3.95,0 28.06552,-0.75623 35.42461,-0.5124c1.34511,0.04457 2.1304,1.61609 2.1304,1.61609c0,0 0.76022,1.41207 0.76022,3.34786c0,3.14077 -0.37907,14.19773 -1.73442,28.05231c-4.10567,41.96851 -13.44054,115.02271 -18.33547,115.02271c-5.04065,0 -14.83248,-73.10636 -19.07961,-114.86987c-1.36683,-13.44053 -1.7505,-23.63484 -1.7505,-27.10146z" fill="#970000" stroke="#000000" stroke-width="2" stroke-linecap="butt"/><path d="M239.43651,310.47467v-159.69841h1.57143v159.69841z" fill="#ffffff" stroke="none" stroke-width="0" stroke-linecap="butt"/><path d="M283.21775,163.58334c0.9018,0 1.53225,0.66666 1.53225,0.66666c0,0 0.67452,0.44821 0.68813,1.23507c0.08882,5.13321 -0.24369,24.67901 -0.24369,28.22603c0,1.07616 -0.44444,2.03889 -0.44444,2.03889c0,0 -0.60928,0.57576 -1.72611,0.58368c-2.12905,0.01509 -9.00423,-4.75836 -16.60928,-10.59578c0.18283,-9.931 -0.28216,-19.8664 -0.41411,-29.79853c0.32689,-0.18052 -0.60604,0.11486 -0.30184,-0.11367c8.12341,4.08827 15.87973,7.75764 17.51909,7.75764z" fill="#000000" stroke="#000000" stroke-width="2" stroke-linecap="butt"/><path d="M196.25,195.75c0,0 -0.34797,-0.56401 -0.37249,-1.71252c-0.12654,-5.92813 -0.18307,-24.57949 -0.18307,-27.99303c0,-1.06572 0.55555,-1.79444 0.55555,-1.79444c0,0 0.5463,-0.67213 1.74711,-0.68207c2.96076,-0.02452 10.89444,-3.9761 18.67803,-8.07124c0.30504,0.12849 -1.10199,0.02847 -0.75762,0.14404c0.28378,9.48055 1.12921,19.00718 0.01316,28.34838c-8.75769,6.58629 -16.79733,12.33232 -18.19049,12.33232c-0.87849,0 -1.49018,-0.57143 -1.49018,-0.57143z" fill="#000000" stroke="#000000" stroke-width="2" stroke-linecap="butt"/><path d="M194.27432,108.89448c0,0 6.31181,-5.92187 6.44322,-6.78761c0.30073,-1.9813 -0.05416,-31.0923 24.43632,-39.40959c3.57641,-1.2146 -7.80182,-4.16423 -7.80182,-4.16423c0,0 14.06927,-1.3316 24.12905,-0.39724c6.82713,0.63411 10.29721,3.4986 12.10975,3.94266c28.25261,6.92167 24.26914,34.74029 26.49288,40.64489c3.53294,9.38084 6.305,17.40016 6.305,17.40016c0,0 -2.83383,-2.05351 -4.17801,-3.13397c-1.2537,-1.00773 -3.89304,-3.14585 -3.89304,-3.14585c0,0 3.1656,10.3481 1.34251,20.69498c-1.59995,9.48098 -7.47368,17.22543 -7.47368,17.22543l-1.18306,-2.34735c0,0 -1.0473,2.19794 -2.2121,3.33274c-1.16481,1.13479 -3.5216,2.91273 -3.5216,2.91273l-0.09427,-3.70421c0,0 -7.23023,11.01795 -24.93746,10.87154c-16.6992,-0.25547 -26.69978,-10.6752 -26.69978,-10.6752l-0.119,2.65484c0,0 -3.98863,-3.29276 -6.33041,-9.70754c-2.79113,-7.64567 -3.31752,-12.24324 -3.31752,-12.24324c0,0 -2.39545,1.89916 -5.85481,2.7744c-4.33478,1.09673 -7.11405,0.34526 -7.11405,0.34526c0,0 3.69489,-2.71717 5.71852,-4.76989c1.80248,-1.8284 2.71036,-3.37722 2.71036,-3.37722c0,0 -2.15837,1.0847 -4.33477,1.61795c-2.27082,0.5564 -4.1272,0.53093 -4.1272,0.53093c0,0 5.0948,-5.03728 7.20017,-10.87429c1.98779,-5.51108 2.15032,-10.95731 2.15032,-10.95731c0,0 -1.39446,0.66163 -3.41038,0.79513c-1.27783,0.08463 -2.43515,-0.0489 -2.43515,-0.0489z" fill="#000000" stroke="none" stroke-width="1.5" stroke-linecap="butt"/><g stroke-width="0" stroke-linecap="butt"><path d="M230.71421,139.20195c0,6.23646 -4.85464,11.29211 -10.84314,11.29211c-5.9885,0 -10.84313,-5.05565 -10.84313,-11.29211c0,-6.23646 4.85464,-11.29209 10.84313,-11.29209c5.9885,0 10.84314,5.05564 10.84314,11.29209z" fill="#970000" stroke="none"/><path d="M227.89792,139.04646c0,5.04238 -3.62964,9.13005 -8.10702,9.13005c-4.47739,0 -8.10702,-4.08767 -8.10702,-9.13005c0,-5.04238 3.62964,-9.13004 8.10702,-9.13004c4.47739,0 8.10702,4.08765 8.10702,9.13004z" fill="#ec0000" stroke="#000000"/></g><g stroke-width="0" stroke-linecap="butt"><path d="M273.17107,139.02009c0,5.91727 -5.02714,10.71417 -11.22844,10.71417c-6.20129,0 -11.22842,-4.7969 -11.22842,-10.71417c0,-5.91727 5.02714,-10.71415 11.22842,-10.71415c6.20129,0 11.22844,4.79689 11.22844,10.71415z" fill="#970000" stroke="none"/><path d="M270.2547,138.87256c0,4.78431 -3.75861,8.66276 -8.39509,8.66276c-4.63648,0 -8.39508,-3.87846 -8.39508,-8.66276c0,-4.78431 3.7586,-8.66275 8.39508,-8.66275c4.63648,0 8.39509,3.87844 8.39509,8.66275z" fill="#ec0000" stroke="#000000"/></g><path d="M213.22774,120.2161c-0.57709,-7.29323 0.335,-17.15448 0.335,-17.15448c0,0 3.41059,-0.04124 13.91429,-3.14424c8.0696,-2.38394 20.54731,-9.48722 20.54731,-9.48722c0,0 -2.16005,3.00503 -3.40781,4.46015c-1.32651,1.54696 -3.99292,4.56297 -3.99292,4.56297c0,0 7.838,-1.66761 14.67476,-4.72931c8.56837,-3.53575 10.59252,-6.05309 12.95042,-4.5927c2.7829,1.72362 1.03006,23.1827 0.71846,28.74062c-0.42163,5.66922 -2.55992,11.26797 -2.65002,12.06765c-0.80866,-0.28611 -10.75702,-0.46389 -11.16896,9.97486c-0.33333,8.44688 7.55502,9.74556 7.70585,9.73682c-1.29266,5.34955 -3.8049,6.09694 -9.26282,11.44171c-5.85759,5.73616 -9.05378,9.25275 -13.01359,9.32173c-3.81077,0.06639 -8.93565,-5.1002 -13.93542,-10.38244c-4.97244,-5.25339 -8.56495,-7.08841 -9.68051,-12.86807c4.25097,-0.03412 7.85317,-4.49073 7.85317,-8.74975c0,-10.44688 -9.34415,-9.43696 -9.34415,-9.43696c0,0 -1.92786,-5.77837 -2.24303,-9.76134z" fill="#ffffff" stroke="#000000" stroke-width="1.5" stroke-linecap="butt"/><path d="M261.13107,107.59573c0,0 1.52429,0.31807 4.2558,1.11029c2.49492,0.72361 4.44935,1.74403 4.44935,1.74403l0.1951,1.17035c0,0 -7.24963,-3.12997 -15.1158,-2.4706c-6.2896,0.52724 -9.96319,2.8124 -9.96319,2.8124l0.04575,-4.17683c0,0 3.12748,-1.70421 7.86366,-1.85557c4.90428,-0.15672 8.09084,0.59125 8.09084,0.59125z" data-paper-data="{&quot;index&quot;:null}" fill="#000000" stroke="none" stroke-width="1.5" stroke-linecap="butt"/><path d="M248.53361,148.08329c0.5704,0.21186 3.08357,1.39942 6.02385,2.59586c2.9637,1.20597 7.21362,2.29294 7.19412,2.4605c-0.02476,0.21265 -10.43477,0.22694 -13.67937,0.63224c-2.71902,0.33964 -6.68867,0.70564 -6.68867,0.70564c0,0 -7.10401,-1.16169 -13.27235,-2.44521c-4.94371,-1.02869 -10.39929,-1.66108 -10.40995,-1.75461c-0.01439,-0.12613 3.86835,-0.71071 6.82417,-1.39467c1.14585,-0.49661 5.43971,-1.48513 5.43971,-1.48513c0,0 4.95585,-0.27766 7.60826,0.579c2.84203,0.91791 2.83546,2.44556 3.0831,2.46906c0,0 1.18436,-1.74932 2.36886,-2.10461c1.18451,-0.35528 5.08219,-0.41633 5.50828,-0.25808z" fill="#ffffff" stroke="#000000" stroke-width="1.4" stroke-linecap="butt"/><path d="M229.88562,152.63685c5.09114,1.02674 11.91756,2.80736 11.91756,2.80736c0,0 5.78976,-1.55585 8.44678,-1.8344c2.05992,-0.21596 11.216,-0.70654 11.26026,-0.33377c0.04328,0.36447 -9.03119,12.90033 -21.14808,12.44714c-13.76954,-0.43578 -22.86459,-15.13559 -22.82675,-15.30472c0.03784,-0.16913 7.2591,1.19165 12.35024,2.2184z" fill="#ffffff" stroke="#000000" stroke-width="1.9" stroke-linecap="butt"/><path d="M240.85988,149.6432c-1.03376,0 -3.5381,-3.26042 -3.7867,-5.3637c-0.22243,-1.88186 1.31512,-3.82799 3.7867,-3.82799c2.47159,0 4.2021,0.49077 4.02999,4.18853c-0.14607,3.13818 -1.55841,5.00317 -4.02999,5.00317z" fill="#ffffff" stroke="#000000" stroke-width="1.15" stroke-linecap="butt"/><path d="M244.46199,119.54948c0,0 0.1026,3.96976 0.00576,7.12662c-0.19174,6.25113 -1.08147,27.7607 -1.08147,27.7607l-2.98167,0.00864c0,0 -0.80294,-4.17274 -1.12322,-9.49979c-0.43353,-7.21063 -0.4495,-16.29321 -0.76344,-19.63229c-0.29758,-3.16513 -0.89593,-5.71453 -0.89593,-5.71453" fill="#ffffff" stroke="#000000" stroke-width="1.3" stroke-linecap="round"/><path d="M214.92738,130.33932c0,0 -4.93211,-3.51705 -6.16417,-8.97502c-1.29636,-5.74284 -1.46118,-9.7328 0.48013,-9.99193c1.94131,-0.25915 2.70321,2.37692 3.73262,8.35569c1.0294,5.97877 1.95143,10.61127 1.95143,10.61127z" data-paper-data="{&quot;index&quot;:null}" fill="#ffffff" stroke="#000000" stroke-width="1" stroke-linecap="butt"/><path d="M214.72479,126.39176c0,0 -3.56385,-2.92338 -4.31816,-8.45061c-0.42079,-3.08327 2.15675,-2.28016 2.15675,-2.28016" fill="none" stroke="#000000" stroke-width="0.25" stroke-linecap="round"/><path d="M214.88105,119.73586c0,0 7.69548,-8.93609 13.06851,-8.8582c5.37302,0.0779 9.02724,4.2484 8.95632,9.14029c-0.07093,4.89188 -4.12352,8.79439 -9.49655,8.7165c-5.37302,-0.0779 -12.52828,-8.99859 -12.52828,-8.99859z" fill="#000000" stroke="#000000" stroke-width="1.4" stroke-linecap="butt"/><path d="M222.17582,119.8538c0.03999,-2.75843 2.30855,-4.96213 5.06696,-4.92214c2.75843,0.03999 4.96213,2.30855 4.92214,5.06696c-0.03999,2.75843 -2.30854,4.96213 -5.06696,4.92214c-2.75843,-0.03999 -4.96213,-2.30855 -4.92214,-5.06696z" fill="#ec0000" stroke="none" stroke-width="1.5" stroke-linecap="butt"/><path d="M244.79446,119.73659c0.20353,-4.88817 4.45264,-8.85847 9.77048,-8.85847c5.31783,0 12.41739,8.85847 12.41739,8.85847c0,0 -7.02871,9.07104 -12.8425,9.14188c-5.52997,0.06739 -9.55792,-4.03692 -9.34537,-9.14188z" fill="#000000" stroke="#000000" stroke-width="1.4" stroke-linecap="butt"/><path d="M249.39722,119.82214c0,-2.81845 2.2848,-5.10325 5.10325,-5.10325c2.81845,0 5.10325,2.2848 5.10325,5.10325c0,2.81845 -2.28479,5.10325 -5.10325,5.10325c-2.81845,0 -5.10325,-2.2848 -5.10325,-5.10325z" fill="#ec0000" stroke="none" stroke-width="1.5" stroke-linecap="butt"/><path d="M214.52689,118.81838c0,0 1.06357,-9.72941 13.74397,-8.8249c9.47101,0.16586 9.55554,9.40723 9.55554,9.40723c0,0 -6.93976,-0.80538 -10.64052,-0.89788c-4.03654,-0.10089 -12.65898,0.31555 -12.65898,0.31555z" fill="#ffffff" stroke="#000000" stroke-width="1.15" stroke-linecap="butt"/><path d="M244.41682,119.33458c0,0 -0.24686,-9.4582 11.19813,-9.1032c12.14284,-0.66653 12.26106,9.65229 12.26106,9.65229c0,0 -8.95394,-0.23282 -13.16236,-0.33133c-3.46654,-0.08114 -10.29683,-0.21776 -10.29683,-0.21776z" fill="#ffffff" stroke="#000000" stroke-width="1.15" stroke-linecap="butt"/><path d="M221.19961,108.47773c0,0 3.36963,-1.819 8.03244,-2.28178c5.16698,-0.51283 7.76823,-0.06628 7.76823,-0.06628l0.29508,4.13747c0,0 -3.83554,-0.68065 -8.01795,-0.52113c-5.59346,0.21333 -6.64488,1.43293 -10.89774,1.89119c-3.64408,0.39266 -6.73723,0.15884 -6.73723,0.15884l-0.02589,-1.23155c0,0 3.59517,0.07398 5.23371,-0.06836c1.35239,-0.11749 3.9757,-0.93808 3.9757,-0.93808z" fill="#000000" stroke="none" stroke-width="1.5" stroke-linecap="butt"/><path d="M269.16054,119.72805c1.0294,-5.97877 1.7913,-8.61483 3.73262,-8.35569c1.94131,0.25914 1.77649,4.24909 0.48013,9.99193c-1.23206,5.45797 -6.16417,8.97502 -6.16417,8.97502c0,0 0.92203,-4.6325 1.95143,-10.61127z" data-paper-data="{&quot;index&quot;:null}" fill="#ffffff" stroke="#000000" stroke-width="1" stroke-linecap="butt"/><path d="M269.57311,115.66099c0,0 2.57754,-0.80312 2.15675,2.28016c-0.75431,5.52723 -4.31816,8.45061 -4.31816,8.45061" data-paper-data="{&quot;index&quot;:null}" fill="none" stroke="#000000" stroke-width="0.25" stroke-linecap="round"/><path d="M214.47923,128.64295l6.71429,1.42857l3.71429,5l0.28571,7l-2.42857,5.42857l-5,1.85714" fill="none" stroke="#000000" stroke-width="2.5" stroke-linecap="round"/><path d="M262.76494,151.92866l-4.28571,-1.71429l-4,-6.28571l0.42857,-8.42857l5.42857,-4.85714l6.57143,-0.85714" fill="none" stroke="#000000" stroke-width="2.5" stroke-linecap="round"/><path d="M222.06494,128.58104l-1.33333,1.16667" fill="none" stroke="#000000" stroke-width="1.5" stroke-linecap="round"/><path d="M227.56494,134.41438l-1.83333,0.83333" fill="none" stroke="#000000" stroke-width="1.5" stroke-linecap="round"/><path d="M228.06495,142.24771l-2.66667,-0.33333" fill="none" stroke="#000000" stroke-width="1.5" stroke-linecap="round"/><path d="M254.39828,135.24771l-2.5,-1.33333" fill="none" stroke="#000000" stroke-width="1.5" stroke-linecap="round"/><path d="M259.23161,129.24771l0.83333,0.66667" fill="none" stroke="#000000" stroke-width="1.5" stroke-linecap="round"/><path d="M250.73161,143.58104l3.33333,0.16667" fill="none" stroke="#000000" stroke-width="1.5" stroke-linecap="round"/><path d="M258.06494,151.24771l-5.5,-3.83333" fill="none" stroke="#000000" stroke-width="1.5" stroke-linecap="round"/><path d="M221.23161,149.08105l6.83333,-3.5" fill="none" stroke="#000000" stroke-width="1.5" stroke-linecap="round"/><path d="M225.06494,139.74771l3.16667,-1.33333" fill="none" stroke="#000000" stroke-width="1.5" stroke-linecap="round"/><path d="M250.56494,138.74771l3.5,1" fill="none" stroke="#000000" stroke-width="1.5" stroke-linecap="round"/><path d="M240.67061,102.52514l2.28714,4.43474l-2.09907,2.99694l-2.51767,-3.56114l2.32961,-3.87054" fill="#000000" stroke="#000000" stroke-width="1" stroke-linecap="round"/><path d="M243.12495,178.79c0,0.35898 -0.29102,0.65 -0.65,0.65c-0.35898,0 -0.65,-0.29102 -0.65,-0.65c0,-0.35898 0.29101,-0.65 0.65,-0.65c0.35898,0 0.65,0.29102 0.65,0.65z" fill="#ffffff" stroke="none" stroke-width="0" stroke-linecap="butt"/><path d="M200.08495,205.78l-3,-11.2l20,-11.2l-6.4,22.4z" fill="#000000" stroke="none" stroke-width="0" stroke-linecap="butt"/><path d="M271.42494,205.78l-5.84,-22.4l18.25,11.2l-2.7375,11.2z" data-paper-data="{&quot;index&quot;:null}" fill="#000000" stroke="none" stroke-width="0" stroke-linecap="butt"/><path d="M200.28495,166.18l18.06834,-8h0.94701" fill="none" stroke="#ffffff" stroke-width="1.5" stroke-linecap="round"/><path d="M260.79416,158.84667h1.2918l18.599,7" fill="none" stroke="#ffffff" stroke-width="1.5" stroke-linecap="round"/><path d="M198.71495,166.88c0,0.93888 -0.72306,1.7 -1.615,1.7c-0.89194,0 -1.615,-0.76112 -1.615,-1.7c0,-0.93888 0.72306,-1.7 1.615,-1.7c0.89194,0 1.615,0.76111 1.615,1.7z" fill="none" stroke="#ffffff" stroke-width="0.75" stroke-linecap="butt"/><path d="M285.91495,166.88c0,0.93888 -0.76783,1.7 -1.715,1.7c-0.94717,0 -1.715,-0.76112 -1.715,-1.7c0,-0.93888 0.76783,-1.7 1.715,-1.7c0.94717,0 1.715,0.76111 1.715,1.7z" fill="none" stroke="#ffffff" stroke-width="0.75" stroke-linecap="butt"/><path d="M268.86494,232.97594v-12h14.25v12z" fill="#000000" stroke="none" stroke-width="0" stroke-linecap="butt"/><path d="M268.19352,224.11165v-2.28571h15.57143v2.28571z" fill="#ffffff" stroke="none" stroke-width="0" stroke-linecap="butt"/><path d="M267.62209,225.2545v-2.14286h16.42857v2.14286z" fill="#ec0000" stroke="none" stroke-width="0" stroke-linecap="butt"/><path d="M267.47923,225.54022v-1.42857h16.71429v1.42857z" fill="#970000" stroke="none" stroke-width="0" stroke-linecap="butt"/></g></g></svg>