<svg version="1.1" xmlns="http://www.w3.org/2000/svg" xmlns:xlink="http://www.w3.org/1999/xlink" width="96.61642" height="256.36858" viewBox="0,0,96.61642,256.36858"><g transform="translate(-192.71186,-50.24393)"><g data-paper-data="{&quot;isPaintingLayer&quot;:true}" fill-rule="nonzero" stroke-linejoin="miter" stroke-miterlimit="10" stroke-dasharray="" stroke-dashoffset="0" style="mix-blend-mode: normal"><path d="M194.40899,306.61251v-253.22501h91.18203v253.22501z" fill-opacity="0.01" fill="#000000" stroke="none" stroke-width="0" stroke-linecap="butt"/><path d="M201.0304,304.39159c0,0 -0.63536,-94.38387 -0.79335,-118.01201c-0.05451,-8.15261 8.18688,-36.76129 40.20201,-36.9211c31.60235,-0.15775 39.85672,29.48704 39.84884,36.89673c-0.07659,46.24274 0.65429,117.98648 0.65429,117.98648l-10.49667,0.09614l-0.15882,-114.84311c0,0 0.07549,-3.0993 -2.81625,-3.15415c-3.43441,-0.06514 -2.94538,3.11562 -2.94538,3.11562l0.20548,114.86995l-48.21366,0.07222l-0.30539,-115.23309c0,0 0.27949,-2.919 -2.8856,-2.93443c-3.11083,-0.01515 -2.81569,2.90899 -2.81569,2.90899l0.35311,115.0668z" fill="#ffffff" stroke="#000000" stroke-width="2" stroke-linecap="butt"/><path d="M197.90466,99.35536c0,0 6.16329,-5.92187 6.29161,-6.78761c0.05416,-0.36539 -2.11307,-3.18313 -2.99783,-5.85808c-0.89813,-2.71538 -0.50995,-5.3071 0.09974,-8.21385c0.31678,-1.51026 -9.22989,-4.91222 -7.59299,-5.72984c0.70723,-0.35326 8.44336,1.1744 8.75823,-0.84828c0.30993,-1.99088 5.53116,1.33226 5.82822,0.61541c1.22825,-2.96395 -6.17883,-12.65435 -4.16036,-15.51872c1.16501,-1.65324 6.05917,0.96092 9.76448,1.13065c4.09392,0.18753 7.07677,-2.01362 9.55501,-2.98664c4.68397,-1.83904 9.93565,-3.90176 16.71325,-4.16447c8.38024,-0.17153 14.98899,0.96733 20.21269,2.97585c1.95335,0.75107 8.20134,-3.38508 10.05507,-2.41384c2.13161,1.11684 -0.18132,7.37283 1.21465,8.71528c2.94441,2.83153 9.93726,6.08699 11.28865,9.43758c1.72413,4.27473 -3.18536,4.08079 -3.93332,7.98243c-0.53791,2.80592 5.97004,6.45887 6.82286,9.75754c0.64176,2.48232 -4.42551,4.93111 -4.12971,5.73546c3.44981,9.38084 6.15664,17.40016 6.15664,17.40016c0,0 -2.76715,-2.05351 -4.0797,-3.13397c-1.2242,-1.00773 -3.80143,-3.14585 -3.80143,-3.14585c0,0 5.4402,8.1447 5.32634,16.07599c-0.02867,1.99727 -3.65731,2.53757 -4.01542,4.61899c-0.53102,3.22254 0.38231,13.95035 -0.72387,16.53573c-2.14829,5.02103 -6.57395,0.6897 -6.57395,0.6897l-1.15522,-2.34735c0,0 -1.02266,2.19794 -2.16005,3.33274c-1.1374,1.13479 -3.43873,2.91273 -3.43873,2.91273l-0.09205,-3.70421c0,0 -7.0601,11.01795 -24.35066,10.87154c-16.30625,-0.25547 -26.07151,-10.6752 -26.07151,-10.6752l-0.1162,2.65484c0,0 -3.89477,-3.29276 -6.18145,-9.70754c-0.69744,-1.95653 -4.71772,-2.55757 -5.15397,-4.08892c-1.26853,-4.45283 1.91451,-8.15432 1.91451,-8.15432c0,0 -2.33908,1.89916 -5.71704,2.7744c-4.23278,1.09673 -6.94665,0.34526 -6.94665,0.34526c0,0 3.60795,-2.71717 5.58396,-4.76989c1.76007,-1.8284 2.64658,-3.37722 2.64658,-3.37722c0,0 -2.10758,1.0847 -4.23277,1.61795c-2.21739,0.5564 -4.03008,0.53093 -4.03008,0.53093c0,0 4.97492,-5.03728 7.03074,-10.87429c1.94102,-5.51108 2.09972,-10.95731 2.09972,-10.95731c0,0 -1.36165,0.66163 -3.33013,0.79513c-1.24776,0.08463 -2.37785,-0.0489 -2.37785,-0.0489z" fill="#505050" stroke="#000000" stroke-width="1.5" stroke-linecap="butt"/><path d="M214.69055,110.67699c-0.57709,-7.29323 0.335,-17.15448 0.335,-17.15448c0,0 3.41059,-0.04124 13.91429,-3.14424c8.0696,-2.38394 20.54731,-9.48722 20.54731,-9.48722c0,0 -2.16005,3.00503 -3.40781,4.46015c-1.32651,1.54696 -3.99292,4.56297 -3.99292,4.56297c0,0 7.838,-1.66761 14.67476,-4.72931c8.56837,-3.53575 10.59252,-6.05309 12.95042,-4.5927c2.7829,1.72362 1.03006,23.1827 0.71846,28.74062c-0.42163,5.66922 -2.53327,9.49969 -3.15031,12.52053c-0.61704,3.02084 -0.4096,6.13662 -2.20622,16.0397c-1.12121,6.18021 -4.16183,8.92466 -10.01942,14.66081c-5.85759,5.73616 -9.05378,9.25275 -13.01359,9.32173c-3.81077,0.06639 -8.93565,-5.1002 -13.93542,-10.38244c-5.32393,-5.62474 -8.87489,-8.47713 -9.71551,-15.13975c-0.75707,-6.00039 -0.77653,-9.90853 -1.12266,-15.24835c-0.25298,-3.90273 -2.26119,-6.44504 -2.57636,-10.42801z" fill="#ffffff" stroke="#000000" stroke-width="1.5" stroke-linecap="butt"/><path d="M242.32268,140.10408c-1.03376,0 -3.5381,-3.26042 -3.7867,-5.3637c-0.22243,-1.88186 1.31512,-3.82799 3.7867,-3.82799c2.47159,0 4.2021,0.49077 4.02999,4.18853c-0.14607,3.13818 -1.55841,5.00317 -4.02999,5.00317z" fill="#ffffff" stroke="#000000" stroke-width="1.15" stroke-linecap="butt"/><path d="M216.39018,120.8002c0,0 -4.93211,-3.51705 -6.16417,-8.97502c-1.29636,-5.74284 -1.46118,-9.7328 0.48013,-9.99193c1.94131,-0.25915 2.70321,2.37692 3.73262,8.35569c1.0294,5.97877 1.95143,10.61127 1.95143,10.61127z" data-paper-data="{&quot;index&quot;:null}" fill="#ffffff" stroke="#000000" stroke-width="1" stroke-linecap="butt"/><path d="M216.1876,116.85264c0,0 -3.56385,-2.92338 -4.31816,-8.45061c-0.42079,-3.08327 2.15675,-2.28016 2.15675,-2.28016" fill="none" stroke="#000000" stroke-width="0.25" stroke-linecap="round"/><path d="M270.62334,110.18894c1.0294,-5.97877 1.7913,-8.61483 3.73262,-8.35569c1.94131,0.25914 1.77649,4.24909 0.48013,9.99193c-1.23206,5.45797 -6.16417,8.97502 -6.16417,8.97502c0,0 0.92203,-4.6325 1.95143,-10.61127z" data-paper-data="{&quot;index&quot;:null}" fill="#ffffff" stroke="#000000" stroke-width="1" stroke-linecap="butt"/><path d="M271.03592,106.12188c0,0 2.57754,-0.80312 2.15675,2.28016c-0.75431,5.52723 -4.31816,8.45061 -4.31816,8.45061" data-paper-data="{&quot;index&quot;:null}" fill="none" stroke="#000000" stroke-width="0.25" stroke-linecap="round"/><path d="M211.10939,134.23324l10.11383,-19.2284l1.36372,7.1477l-10.11383,19.2284z" fill="#000000" stroke="none" stroke-width="0" stroke-linecap="butt"/><path d="M217.26761,203.50299l-1.54118,-44.69413c0,0 3.2343,-5.56394 6.57696,-5.8538c1.2987,-0.11262 2.73007,3.45693 4.20118,3.95703c4.42376,1.50386 8.21119,8.34403 12.83549,9.98924c6.34588,2.2577 9.7288,3.69729 12.71427,4.91261c3.88549,1.5817 12.98976,4.71845 12.98976,4.71845c0,0 0.0665,1.65912 -0.11059,5.79119c-0.2043,4.76705 -1.04529,21.17941 -1.04529,21.17941c0,0 -37.30022,58.95002 -45.85001,58.95002c-5.01782,0 -0.77059,-58.95002 -0.77059,-58.95002z" fill="#000000" stroke="#970000" stroke-width="1.5" stroke-linecap="butt"/><path d="M252.1105,220.3491c-0.70711,0.70711 -1.41421,0 -1.41421,0l-0.09169,-0.29323c-2.97458,-0.74364 -5.48726,-1.91687 -8.22783,-3.11507c-1.49112,-0.65193 -2.77431,-2.28375 -4.33534,-2.73874c-1.19831,-0.34927 -3.15766,0.04291 -4.43846,0.04291c-2.48096,-0.07518 -3.09875,1.26112 -4.57739,2.76655c-2.90829,2.96099 -7.59269,7.65216 -12.10895,4.85318c0,0 -0.83205,-0.5547 -0.27735,-1.38675c0.5547,-0.83205 1.38675,-0.27735 1.38675,-0.27735c1.54451,1.16954 4.40534,0.08519 5.7646,-1.05382c3.17884,-2.66376 5.23766,-6.81065 9.81233,-6.90182c1.5116,0 3.57416,-0.36471 5.01802,0.04291c1.69092,0.47738 2.97666,2.15924 4.56488,2.82389c2.67212,1.11826 5.02684,2.28458 7.9038,3.00382l1.02083,0.8193c0,0 0.70711,0.7071 0,1.41421z" fill="#ec0000" stroke="none" stroke-width="0.5" stroke-linecap="butt"/><path d="M241.8344,169.30016c0,1 -1,1 -1,1l0.16908,-0.10558c-2.84219,1.40867 -3.45259,2.92385 -4.79383,5.57142c-0.33371,1.32547 -0.08615,2.61043 -0.57027,3.92959c-2.43645,6.63897 -9.93322,9.51753 -16.49925,9.51753c0,0 -1,0 -1,-1c0,-1 1,-1 1,-1c5.86866,0 12.38606,-2.42232 14.65149,-8.2829c0.45935,-1.18832 0.23056,-2.60545 0.54226,-3.8581c1.52349,-3.08089 2.53211,-5.03254 5.77517,-6.66638l0.72535,-0.10557c0,0 1,0 1,1z" fill="#ec0000" stroke="none" stroke-width="0.5" stroke-linecap="butt"/><path d="M236.82803,166.24071c0,1 -1,1 -1,1h-0.8344c-2.88028,-0.02179 -5.80155,1.8722 -8.77803,2.21756c-2.99126,0.34708 -6.59419,-1.93728 -8.61698,-3.90111c0,0 -0.70711,-0.70711 0,-1.41422c0.70711,-0.70711 1.41421,0 1.41421,0c0.54282,0.56596 1.3232,0.84366 2.00787,1.226c1.54262,0.86145 2.24703,1.85198 4.08237,2.10431c3.3599,0.46194 6.63072,-2.21276 9.89056,-2.23254h0.8344c0,0 1,0 1,1z" fill="#ec0000" stroke="none" stroke-width="0.5" stroke-linecap="butt"/><path d="M255.74096,174.86279c0,0.46701 -0.21809,0.71592 -0.45058,0.84859c-0.5685,2.57486 -0.66195,5.11539 -0.66195,7.7735c0,5.30636 -0.32094,10.76009 2.11008,15.66609c1.06381,2.14687 3.07689,3.79008 4.39713,5.75161c0,0 0.5547,0.83205 -0.27735,1.38675c-0.83205,0.5547 -1.38675,-0.27735 -1.38675,-0.27735c-1.3445,-2.04046 -3.3859,-3.71207 -4.50308,-5.92992c-2.61575,-5.19284 -2.34003,-10.96403 -2.34003,-16.59719c0,-3.0297 0.12855,-5.92183 0.86425,-8.86462l1.24828,-0.75746c0,0 1,0 1,1z" fill="#ec0000" stroke="none" stroke-width="0.5" stroke-linecap="butt"/><path d="M231.09978,214.74815c1,0 1,1 1,1l-0.02985,0.52067c-0.57558,2.30232 -1.47017,4.29572 -1.94143,6.65201c-2.03042,8.13003 -0.5319,17.28521 -0.5319,25.64686c0,0 0,1 -1,1c-1,0 -1,-1 -1,-1c0,-8.51645 -1.49251,-17.80194 0.58062,-26.08563c0.47331,-2.36653 1.37743,-4.39832 1.95242,-6.69831l-0.02986,-0.0356c0,0 0,-1 1,-1z" fill="#970000" stroke="none" stroke-width="0.5" stroke-linecap="butt"/><path d="M232.04322,183.14671c0.89443,-0.44721 1.34164,0.44721 1.34164,0.44721l0.35385,0.76094c0.55555,2.37324 1.14238,4.07645 1.14238,6.63957c0,4.81206 -2.27396,8.60302 -2.78618,13.17073c-0.28938,2.58049 0.00486,5.36602 0.00486,7.96728c0,0 0,1 -1,1c-1,0 -1,-1 -1,-1c0,-2.67031 -0.28734,-5.51353 0.00486,-8.16435c0.49911,-4.52776 2.77645,-8.24233 2.77645,-12.97366c0,-2.4846 -0.47982,-3.85236 -1.08267,-6.15449l-0.20242,-0.35158c0,0 -0.44721,-0.89442 0.44721,-1.34164z" fill="#970000" stroke="none" stroke-width="0.5" stroke-linecap="butt"/><path d="M227.20593,168.02202c1,0 1,1 1,1v1.11253c0,3.96417 1.82439,7.30109 4.00403,10.57056c0,0 0.5547,0.83205 -0.27735,1.38675c-0.83205,0.5547 -1.38675,-0.27735 -1.38675,-0.27735c-2.40008,-3.60012 -4.33992,-7.30642 -4.33992,-11.67996v-1.11253c0,0 0,-1 1,-1z" fill="#970000" stroke="none" stroke-width="0.5" stroke-linecap="butt"/><path d="M225.53871,155.67405c0.83205,-0.5547 1.38675,0.27735 1.38675,0.27735l0.63873,0.98454c0.77627,3.04056 0.64174,6.16817 0.64174,9.30477c0,0 0,1 -1,1c-1,0 -1,-1 -1,-1c0,-2.82698 0.19112,-5.75016 -0.47078,-8.49566l-0.4738,-0.68425c0,0 -0.5547,-0.83205 0.27735,-1.38675z" fill="#970000" stroke="none" stroke-width="0.5" stroke-linecap="butt"/><path d="M257.395,212.28328c-0.70711,0.70711 -1.41422,0 -1.41422,0l-0.12572,-0.15319c-6.36113,-4.28148 -10.90558,-9.82212 -12.4001,-17.42142c-0.02527,-7.73346 1.27069,-15.70639 3.08444,-23.14787c0,0 0.24253,-0.97015 1.21268,-0.72761c0.97015,0.24254 0.72761,1.21268 0.72761,1.21268c-1.84722,7.16578 -3.00635,15.00432 -3.03446,22.46572c1.4137,6.93543 5.63682,12.07835 11.51923,15.95439l0.43054,0.40308c0,0 0.70711,0.70711 0,1.41422z" fill="#970000" stroke="none" stroke-width="0.5" stroke-linecap="butt"/><g stroke="#000000"><path d="M256.98222,147.84814c0,2.8995 -6.7717,5.25 -15.125,5.25c-8.3533,0 -15.125,-2.3505 -15.125,-5.25c0,-2.8995 6.7717,-5.25 15.125,-5.25c8.3533,0 15.125,2.3505 15.125,5.25z" fill="#ffffff" stroke-width="1.4" stroke-linecap="butt"/><g><path d="M263.97335,146.34222c-0.01403,0.12047 -0.76747,0.70394 -5.82875,0.61964c-2.24534,-0.0374 -11.40569,-4.1794 -14.48394,-3.9352c-3.31795,0.26322 -15.64435,2.19941 -16.20272,2.08323c-4.94371,-1.02869 -7.52429,-1.53608 -7.53495,-1.62961c-0.01439,-0.12613 8.79861,-6.49761 15.28765,-6.45005c6.48904,0.04756 7.91995,3.84481 8.16759,3.86831c0,0 3.94733,-3.33005 7.42397,-2.88611c3.47663,0.44394 13.19064,8.16223 13.17114,8.32979z" fill="#ffffff" stroke-width="1.4" stroke-linecap="butt"/><path d="M243.65304,149.55157c6.31471,0.29111 12.31429,-2.1208 13.44369,-2.2392c2.05992,-0.21596 6.591,-1.20654 6.63526,-0.83377c0.04328,0.36447 -9.03119,13.77533 -21.14808,13.32214c-13.76954,-0.43578 -22.86459,-16.01059 -22.82675,-16.17972c0.03784,-0.16913 3.0091,1.31665 8.10024,2.3434c0,0 9.48093,3.29604 15.79564,3.58715z" fill="#ffffff" stroke-width="1.9" stroke-linecap="butt"/><path d="M255.13924,146.0918l-24.24457,-0.67975" fill="none" stroke-width="0.5" stroke-linecap="round"/></g></g><path d="M217.86199,265.5337c0,-0.55228 0.44771,-1 1,-1c0.55229,0 1,0.44772 1,1c0,0.55228 -0.44771,1 -1,1c-0.55229,0 -1,-0.44772 -1,-1z" fill="#000000" stroke="none" stroke-width="0.5" stroke-linecap="butt"/><path d="M221.4777,263.30864c0,-0.55228 0.44771,-1 1,-1c0.55229,0 1,0.44772 1,1c0,0.55228 -0.44771,1 -1,1c-0.55229,0 -1,-0.44772 -1,-1z" fill="#000000" stroke="none" stroke-width="0.5" stroke-linecap="butt"/><path d="M225.37155,260.24921c0,-0.55228 0.44771,-1 1,-1c0.55229,0 1,0.44772 1,1c0,0.55228 -0.44771,1 -1,1c-0.55229,0 -1,-0.44772 -1,-1z" fill="#000000" stroke="none" stroke-width="0.5" stroke-linecap="butt"/><path d="M230.09979,256.07724c0,-0.55229 0.44771,-1 1,-1c0.55229,0 1,0.44771 1,1c0,0.55228 -0.44771,1 -1,1c-0.55229,0 -1,-0.44772 -1,-1z" fill="#000000" stroke="none" stroke-width="0.5" stroke-linecap="butt"/><path d="M234.27175,251.07088c0,-0.55229 0.44771,-1 1,-1c0.55229,0 1,0.44771 1,1c0,0.55229 -0.44771,1 -1,1c-0.55229,0 -1,-0.44771 -1,-1z" fill="#000000" stroke="none" stroke-width="0.5" stroke-linecap="butt"/><path d="M238.44374,246.0645c0,-0.55229 0.44771,-1 1,-1c0.55229,0 1,0.44771 1,1c0,0.55229 -0.44771,1 -1,1c-0.55229,0 -1,-0.44771 -1,-1z" fill="#000000" stroke="none" stroke-width="0.5" stroke-linecap="butt"/><path d="M241.78131,240.78c0,-0.55229 0.44771,-1 1,-1c0.55229,0 1,0.44771 1,1c0,0.55229 -0.44771,1 -1,1c-0.55229,0 -1,-0.44771 -1,-1z" fill="#000000" stroke="none" stroke-width="0.5" stroke-linecap="butt"/><path d="M245.67516,235.21737c0,-0.55229 0.44771,-1 1,-1c0.55229,0 1,0.44771 1,1c0,0.55229 -0.44771,1 -1,1c-0.55229,0 -1,-0.44771 -1,-1z" fill="#000000" stroke="none" stroke-width="0.5" stroke-linecap="butt"/><path d="M249.01274,229.93287c0,-0.55229 0.44771,-1 1,-1c0.55229,0 1,0.44771 1,1c0,0.55229 -0.44771,1 -1,1c-0.55229,0 -1,-0.44771 -1,-1z" fill="#000000" stroke="none" stroke-width="0.5" stroke-linecap="butt"/><path d="M252.07217,226.03902c0,-0.55229 0.44771,-1 1,-1c0.55229,0 1,0.44771 1,1c0,0.55229 -0.44771,1 -1,1c-0.55229,0 -1,-0.44771 -1,-1z" fill="#000000" stroke="none" stroke-width="0.5" stroke-linecap="butt"/><path d="M255.96604,222.14518c0,-0.55229 0.44771,-1 1,-1c0.55228,0 1,0.44771 1,1c0,0.55229 -0.44772,1 -1,1c-0.55228,0 -1,-0.44771 -1,-1z" fill="#000000" stroke="none" stroke-width="0.5" stroke-linecap="butt"/><path d="M259.02547,217.13881c0,-0.55229 0.44772,-1 1,-1c0.55228,0 1,0.44771 1,1c0,0.55229 -0.44772,1 -1,1c-0.55228,0 -1,-0.44771 -1,-1z" fill="#000000" stroke="none" stroke-width="0.5" stroke-linecap="butt"/><path d="M261.52865,211.85431c0,-0.55229 0.44772,-1 1,-1c0.55228,0 1,0.44771 1,1c0,0.55229 -0.44772,1 -1,1c-0.55228,0 -1,-0.44771 -1,-1z" fill="#000000" stroke="none" stroke-width="0.5" stroke-linecap="butt"/><path d="M266.53504,182.65048c0,-0.55229 0.44772,-1 1,-1c0.55228,0 1,0.44771 1,1c0,0.55229 -0.44772,1 -1,1c-0.55228,0 -1,-0.44771 -1,-1z" fill="#000000" stroke="none" stroke-width="0.5" stroke-linecap="butt"/><path d="M266.53504,177.64411c0,-0.55229 0.44772,-1 1,-1c0.55228,0 1,0.44771 1,1c0,0.55229 -0.44772,1 -1,1c-0.55228,0 -1,-0.44771 -1,-1z" fill="#000000" stroke="none" stroke-width="0.5" stroke-linecap="butt"/><path d="M263.19744,173.47213c0,-0.55229 0.44772,-1 1,-1c0.55228,0 1,0.44771 1,1c0,0.55229 -0.44772,1 -1,1c-0.55228,0 -1,-0.44771 -1,-1z" fill="#000000" stroke="none" stroke-width="0.5" stroke-linecap="butt"/><path d="M258.19106,170.69081c0,-0.55229 0.44772,-1 1,-1c0.55228,0 1,0.44771 1,1c0,0.55229 -0.44772,1 -1,1c-0.55228,0 -1,-0.44771 -1,-1z" fill="#000000" stroke="none" stroke-width="0.5" stroke-linecap="butt"/><path d="M251.51591,168.74389c0,-0.55229 0.44771,-1 1,-1c0.55229,0 1,0.44771 1,1c0,0.55229 -0.44771,1 -1,1c-0.55229,0 -1,-0.44771 -1,-1z" fill="#000000" stroke="none" stroke-width="0.5" stroke-linecap="butt"/><path d="M245.95329,166.51884c0,-0.55229 0.44771,-1 1,-1c0.55229,0 1,0.44771 1,1c0,0.55229 -0.44771,1 -1,1c-0.55229,0 -1,-0.44771 -1,-1z" fill="#000000" stroke="none" stroke-width="0.5" stroke-linecap="butt"/><path d="M214.24628,183.763c0,-0.55229 0.44771,-1 1,-1c0.55229,0 1,0.44771 1,1c0,0.55229 -0.44771,1 -1,1c-0.55229,0 -1,-0.44771 -1,-1z" fill="#000000" stroke="none" stroke-width="0.5" stroke-linecap="butt"/><path d="M213.13375,179.03477c0,-0.55229 0.44771,-1 1,-1c0.55229,0 1,0.44771 1,1c0,0.55229 -0.44771,1 -1,1c-0.55229,0 -1,-0.44771 -1,-1z" fill="#000000" stroke="none" stroke-width="0.5" stroke-linecap="butt"/><path d="M212.85562,173.47213c0,-0.55229 0.44771,-1 1,-1c0.55229,0 1,0.44771 1,1c0,0.55229 -0.44771,1 -1,1c-0.55229,0 -1,-0.44771 -1,-1z" fill="#000000" stroke="none" stroke-width="0.5" stroke-linecap="butt"/><path d="M245.9248,108.85448c0,0 0.1026,3.96976 0.00576,7.12662c-0.19174,6.25113 -1.08147,27.7607 -1.08147,27.7607l-2.98167,0.00864c0,0 -0.80294,-4.17274 -1.12322,-9.49979c-0.43353,-7.21063 -0.4495,-16.29321 -0.76344,-19.63229c-0.29758,-3.16513 -0.89593,-5.71453 -0.89593,-5.71453" fill="#ffffff" stroke="#000000" stroke-width="1.3" stroke-linecap="round"/><path d="M212.02122,167.35323c0,-0.55229 0.44771,-1 1,-1c0.55229,0 1,0.44771 1,1c0,0.55229 -0.44771,1 -1,1c-0.55229,0 -1,-0.44771 -1,-1z" fill="#000000" stroke="none" stroke-width="0.5" stroke-linecap="butt"/><path d="M212.02122,162.90313c0,-0.55229 0.44771,-1 1,-1c0.55229,0 1,0.44771 1,1c0,0.55229 -0.44771,1 -1,1c-0.55229,0 -1,-0.44771 -1,-1z" fill="#000000" stroke="none" stroke-width="0.5" stroke-linecap="butt"/><path d="M264.19743,277.24997c-0.14031,0 -0.26093,-0.01969 -0.36463,-0.05354c-0.01259,1.18481 -0.02603,2.35697 -0.02603,3.50364c0,5.84076 0,11.68153 0,17.5223c0,0.47324 0.09389,1.80681 -0.00396,2.93144c2.45772,1.79953 0.05575,2.21778 -1.15199,2.78931l-0.12218,-0.03918v0.04667h-1.11253c-0.37473,0 -0.70132,-0.20613 -0.87258,-0.51118c-2.19792,0.24588 -4.40208,0.23305 -6.63697,0.23305c-8.57925,0 -17.07405,0.85768 -25.68665,0.82953c-2.33309,-0.46662 -4.75635,-0.27327 -7.13289,-0.27327c-0.48711,0 -2.97546,0.02939 -3.25317,-0.11832c-1.26406,-0.67233 -1.06578,-1.73683 -1.08441,-2.8286c-0.05533,-3.24283 0,-6.49123 0,-9.73461c0,0 0,-0.28627 0.15317,-0.55248c-0.05806,-0.0983 -0.10458,-0.21811 -0.13374,-0.36394c-0.19611,-0.98058 0.78446,-1.1767 0.78446,-1.1767c3.21148,-0.63158 6.7614,-0.59307 9.88432,-1.63408c4.12577,-1.3753 7.05824,-5.16387 9.21413,-8.76722c5.14505,-7.71991 11.87387,-16.66456 20.36857,-20.91191c1.55002,-1.00788 3.62607,-1.88741 5.47699,-2.43454c0.12795,-0.24381 0.3778,-0.48186 0.86571,-0.48186c0.47376,0 0.72307,0.22445 0.85427,0.46068c0.25641,0.18105 0.42386,0.47969 0.42386,0.81745v1.39066h-0.2819c0.23337,1.68471 0.09762,3.24187 0.27704,5.18597c0.37273,4.03861 0.56113,7.96231 0.56113,12.0582v1.11253c0,0 0,1 -1,1z" fill="#000000" stroke="none" stroke-width="0.5" stroke-linecap="butt"/><path d="M209.7927,198.5912c0.89443,-0.44721 1.34164,0.44721 1.34164,0.44721l0.35385,0.76094c0.45134,1.80534 0.3005,3.01271 0.3005,4.81482c-1.88082,7.52326 -1.38316,16.01853 -1.38316,23.79715c0,3.50605 0.39813,6.73343 0.8269,10.16869c0.57501,4.60694 0.0075,9.66135 0.0075,14.3069c0,7.13042 0.55436,15.29527 -0.73168,22.36307c0.00327,0 0.00655,0 0.00982,0l1,1.27813c0,0 0,1 -1,1c-0.34734,0 -0.57404,-0.12065 -0.722,-0.27813c-3.09691,0 -6.19383,0 -9.29074,0c0,0 -1,0 -1,-1c0,-0.35329 0.1248,-0.58175 0.28624,-0.72951c-0.00811,-0.06451 -0.00811,-0.10488 -0.00811,-0.10488v-0.55626c0.03372,-8.39012 1.11252,-16.93364 1.11252,-25.30999c0,-8.47626 -1.66879,-16.52755 -1.66879,-25.03185c0.01364,-2.75371 0.53284,-5.43182 0.83926,-8.16436c0.55215,-4.92378 -0.00487,-10.23852 -0.00487,-15.19871c0,0 0,-0.41445 0.26681,-0.70971c-0.09701,-0.58764 0.45663,-0.95673 0.45663,-0.95673c2.22254,-1.37743 5.7432,-0.72421 8.34238,-0.72421h0.27814c0,0 0.04485,0 0.11554,0.00949c0.0726,-0.06575 0.16205,-0.12726 0.27164,-0.18205z" fill="#000000" stroke="none" stroke-width="0.5" stroke-linecap="butt"/><path d="M206.34606,274.8593c0,0 -0.87146,-2.81196 -0.25735,-5.20789c0.44709,-1.74432 2.59658,-2.74527 1.96159,-4.84091c-0.51816,-1.71007 -6.74445,-2.18197 -6.84491,-4.09975c-0.10069,-1.92226 3.53618,-4.36586 4.29799,-6.26968c1.064,-2.65901 -0.57176,-4.79392 -0.13353,-7.6573c0.44226,-2.88968 3.91847,-3.14084 3.7177,-6.1132c-0.15704,-2.3249 -8.04739,-2.99683 -8.07743,-5.31253c-0.03153,-2.43003 4.1909,-4.78023 5.1715,-7.05604c1.18805,-2.75728 -0.82092,-5.40535 -0.81118,-7.95387c0.00954,-2.49443 4.42254,-3.16822 4.3276,-5.2878c-0.09866,-2.20262 -8.22764,-3.34018 -8.24626,-5.00387c-0.01976,-1.76503 4.13631,-2.90805 4.12528,-3.89332c-0.03376,-3.01587 -0.06541,-5.84315 -0.06541,-5.84315" fill="none" stroke="#ffffff" stroke-width="1.5" stroke-linecap="round"/><path d="M274.68294,94.61879c0,17.30845 -14.45221,31.33973 -32.27992,31.33973c-17.82771,0 -32.27992,-14.03127 -32.27992,-31.33973c0,-17.30845 14.45221,-31.33973 32.27992,-31.33973c17.82771,0 32.27992,14.03127 32.27992,31.33973z" fill="#ec0000" stroke="#000000" stroke-width="5.5" stroke-linecap="butt"/><path d="M225.10533,109.29459l18.40204,-32.40567l17.43023,31.39697z" fill="none" stroke="#ffffff" stroke-width="3" stroke-linecap="round"/><path d="M243.66335,97.76234v-12.49252" fill="none" stroke="#ffffff" stroke-width="3" stroke-linecap="round"/><path d="M244.17323,103.88113c0,0.42241 -0.22829,0.76485 -0.5099,0.76485c-0.28161,0 -0.5099,-0.34243 -0.5099,-0.76485c0,-0.42241 0.22829,-0.76485 0.5099,-0.76485c0.28161,0 0.5099,0.34243 0.5099,0.76485z" fill="none" stroke="#ffffff" stroke-width="3" stroke-linecap="butt"/></g></g></svg>