<svg version="1.1" xmlns="http://www.w3.org/2000/svg" xmlns:xlink="http://www.w3.org/1999/xlink" width="35.67311" height="35.67311" viewBox="0,0,35.67311,35.67311"><defs><linearGradient x1="222.91345" y1="180.00001" x2="257.08655" y2="180.00001" gradientUnits="userSpaceOnUse" id="color-1"><stop offset="0" stop-color="#9a0000"/><stop offset="1" stop-color="#000000"/></linearGradient></defs><g transform="translate(-222.16344,-162.16344)"><g data-paper-data="{&quot;isPaintingLayer&quot;:true}" stroke-miterlimit="10" stroke-dasharray="" stroke-dashoffset="0" style="mix-blend-mode: normal"><path d="M229.98311,162.91345h20.03379c3.9166,0 7.06966,3.15307 7.06966,7.06966v20.03379c0,3.91659 -3.15306,7.06966 -7.06966,7.06966h-20.03379c-3.91659,0 -7.06966,-3.15307 -7.06966,-7.06966v-20.03379c0,-3.91659 3.15307,-7.06966 7.06966,-7.06966z" fill="url(#color-1)" fill-rule="evenodd" stroke="#ffffff" stroke-width="1.5" stroke-linecap="round" stroke-linejoin="round"/><g fill="#ffffff" fill-rule="nonzero" stroke="#000000" stroke-width="1" stroke-linecap="butt" stroke-linejoin="miter"><path d="M249.89642,179.49038l-9.12161,-13.77153l1.02337,-0.67783l9.12161,13.77153z"/><path d="M234.55342,187.38848l-8.11637,-12.25385l0.90611,-0.60016l8.11637,12.25385z"/><path d="M249.46112,174.60969c0.01964,0.02966 0.44807,0.84772 0.77872,1.87918c0.22821,0.71191 0.33199,1.54905 0.53993,2.20269c0.25119,0.78958 -1.52629,3.53317 -1.52629,3.53317c0,0 1.16963,-2.36292 -0.04613,-2.46763c-1.99101,-0.17148 -5.11298,-0.06901 -7.73029,1.66457c-2.69778,1.78688 -4.00351,4.97589 -4.62113,6.78901c-0.26729,0.78468 2.12755,0.86341 2.12755,0.86341c0,0 -3.13757,0.06101 -3.79595,-0.53466c-0.3475,-0.31441 -1.02767,-0.4765 -1.41021,-0.82388c-0.96718,-0.87829 -1.59303,-1.90693 -1.62818,-1.96c-0.36023,-0.54387 3.13514,-3.06564 8.0234,-6.30339c4.88827,-3.23775 8.92835,-5.38633 9.28858,-4.84246z"/><path d="M247.22937,171.72374l1.5063,6.19833l3.68627,7.26274c0,0 -2.63354,7.94864 -2.63834,7.96071c-0.12565,0.3157 -0.64435,0.56291 -0.79165,0.56345c-0.86405,0.00319 -8.43597,-0.42007 -8.43597,-0.42007l-4.88024,-6.52875l-5.12991,-4.18706l6.60284,-7.9925z"/><path d="M240.08438,182.68181c1.07951,1.62982 1.10986,3.51058 0.06779,4.20079c-1.04207,0.69022 -2.76196,-0.07148 -3.84147,-1.70129c-1.07951,-1.62982 -1.10986,-3.51058 -0.06779,-4.20079c1.04207,-0.69022 2.76196,0.07148 3.84147,1.70129z"/><path d="M246.90954,178.12071c1.04867,1.58325 1.05402,3.42626 0.01194,4.11648c-1.04207,0.69022 -2.73695,-0.03373 -3.78562,-1.61698c-1.04867,-1.58325 -1.05402,-3.42626 -0.01194,-4.11648c1.04207,-0.69022 2.73695,0.03373 3.78562,1.61698z"/><path d="M238.68392,182.23461c1.20289,1.81608 1.63393,3.64868 0.96276,4.09323c-0.67116,0.44455 -2.19038,-0.6673 -3.39327,-2.48338c-1.20289,-1.81608 -1.63393,-3.64868 -0.96276,-4.09323c0.67116,-0.44455 2.19038,0.6673 3.39327,2.48338z"/><path d="M245.70335,177.82788c1.20289,1.81608 1.63393,3.64868 0.96276,4.09323c-0.67116,0.44455 -2.19038,-0.6673 -3.39327,-2.48338c-1.20289,-1.81608 -1.63393,-3.64868 -0.96276,-4.09323c0.67116,-0.44455 2.19038,0.6673 3.39327,2.48338z"/><path d="M226.97956,175.956l-0.55846,-0.84315l0.89545,-0.5931l0.55846,0.84315z"/><path d="M241.50912,166.49405l-0.5957,-0.89936l0.76753,-0.50837l0.5957,0.89936z"/></g></g></g></svg>