<svg version="1.1" xmlns="http://www.w3.org/2000/svg" xmlns:xlink="http://www.w3.org/1999/xlink" width="352.42286" height="321.13974" viewBox="0,0,352.42286,321.13974"><g transform="translate(-34.90005,-17.10967)"><g data-paper-data="{&quot;isPaintingLayer&quot;:true}" fill-rule="nonzero" stroke-linejoin="miter" stroke-miterlimit="10" stroke-dasharray="" stroke-dashoffset="0" style="mix-blend-mode: normal"><g stroke-linecap="butt"><path d="M176.97463,32.95619c-0.08178,3.45501 -11.83967,11.93018 -19.86406,11.77674c-8.02441,-0.15344 -18.78915,-10.17341 -18.70737,-13.62842c0.08179,-3.45501 12.06069,-1.46672 20.08506,-1.31328c8.02441,0.15344 18.56816,-0.29005 18.48637,3.16496z" fill="#000000" stroke="none" stroke-width="0"/><path d="M175.23479,30.76181c0,0 -3.28099,4.16792 -17.17576,3.81713c-15.06726,0.22958 -16.84802,-3.9055 -16.84802,-3.9055z" fill="#ffffff" stroke="none" stroke-width="0"/><path d="M167.6277,25.54682c2.96854,1.00785 10.31644,6.3411 10.31644,6.3411c0,0 -4.64409,2.01243 -7.81782,1.75954c-4.49194,-0.35792 -4.69688,-1.64224 -11.93838,-1.78937c-6.2337,-0.12666 -7.53249,1.36967 -12.56349,1.355c-5.031,-0.01467 -8.92108,-2.49585 -8.92108,-2.49585c0,0 7.40343,-4.48786 11.35855,-5.26696c3.86909,-0.76216 9.98953,1.81284 10.25479,1.83047c0,0 6.34243,-2.7418 9.31097,-1.73395z" fill="#ffffff" stroke="#000000" stroke-width="1.25"/><path d="M170.78485,37.07234c0,0 -2.17909,10.01657 -14.11343,9.70591c-10.49291,-0.27315 -12.35071,-9.78417 -12.35071,-9.78417c0,0 1.55329,1.41101 4.71161,2.7296c2.09566,0.87493 4.74531,1.84252 8.26944,1.84787c3.14442,0.00477 5.89183,-0.80197 7.92981,-1.5363c3.68837,-1.329 5.55327,-2.96291 5.55327,-2.96291z" fill="#ffffff" stroke="none" stroke-width="0"/><path d="M151.40501,43.81192c2.66288,1.15918 10.6858,0.99115 13.11979,-0.32353c2.35713,-1.27317 3.35205,-5.29524 5.27628,-7.51253c3.29609,-3.79811 8.14093,-3.32354 8.14093,-3.32354c0,0 -2.45489,11.67826 -5.73358,15.46712c-4.01936,4.64479 -8.65722,4.69774 -13.9042,4.78272c-5.96057,0.09654 -10.55685,-0.58944 -14.36465,-4.06639c-3.8078,-3.47696 -7.24043,-17.33784 -7.24043,-17.33784c0,0 5.4336,0.95479 8.08521,4.78381c2.65161,3.82902 3.78936,6.29769 6.62063,7.53017z" fill="#ffffff" stroke="#000000" stroke-width="1.9"/></g><g stroke-linecap="butt"><path d="M226.44449,34.05702c-0.07398,3.00985 -11.56951,10.42948 -19.78067,10.32228c-8.21118,-0.10721 -19.25402,-8.79986 -19.18004,-11.80971c0.07399,-3.00985 12.33664,-1.31739 20.54778,-1.21018c8.21118,0.1072 18.48692,-0.31223 18.41293,2.69762z" fill="#000000" stroke="none" stroke-width="0"/><path d="M225.16976,32.15664c0,0 -3.34441,3.97311 -17.56291,3.68544c-15.41645,0.26792 -17.25123,-3.65727 -17.25123,-3.65727z" fill="#ffffff" stroke="none" stroke-width="0"/><path d="M223.64052,35.74416c0,0 -2.65802,10.81964 -17.40722,10.53186c-12.9678,-0.25302 -15.29669,-10.51094 -15.29669,-10.51094c0,0 1.92442,1.51672 5.83197,2.92731c2.59281,0.93597 5.87053,1.96976 10.22557,1.9615c3.88581,-0.00737 7.27817,-0.88904 9.7941,-1.68972c4.55336,-1.44908 6.85228,-3.22001 6.85228,-3.22001z" fill="#ffffff" stroke="none" stroke-width="0"/><path d="M217.36948,27.04381c3.0403,0.86814 9.57699,5.81096 9.57699,5.81096c0,0 -3.74757,2.03513 -6.99571,1.82532c-4.59725,-0.29697 -4.80814,-0.66504 -12.21821,-0.76933c-6.37881,-0.08978 -7.70598,0.46792 -12.85385,0.47174c-5.14787,0.0038 -9.13482,-2.00962 -9.13482,-2.00962c0,0 7.56043,-4.65695 11.60521,-5.34864c3.9568,-0.67666 10.22979,2.53951 10.50126,2.554c0,0 6.47882,-3.40256 9.51913,-2.53443z" fill="#ffffff" stroke="#000000" stroke-width="1.25"/><path d="M219.68409,36.33892c3.33565,-3.34877 7.74817,-2.94591 7.74817,-2.94591c0,0 -1.95167,10.26991 -5.26967,13.61051c-4.06756,4.09526 -9.36146,5.04121 -14.6883,5.13306c-6.05129,0.10435 -10.13428,-1.36774 -14.01006,-4.41103c-3.87577,-3.0433 -7.40005,-15.21379 -7.40005,-15.21379c0,0 5.51926,0.82135 8.22219,4.17784c2.70293,3.35649 3.36328,7.06454 13.80181,6.57354c10.69728,-0.50317 9.6486,-4.96925 11.59592,-6.92422z" fill="#ffffff" stroke="#000000" stroke-width="1.9"/></g><g fill="#ffffff"><path d="M214.77381,102.25352c0,2.43926 -4.81294,4.41667 -10.75,4.41667c-5.93706,0 -10.75,-1.97741 -10.75,-4.41667c0,-2.43926 4.81294,-4.41666 10.75,-4.41666c5.93706,0 10.75,1.97741 10.75,4.41666z" stroke="none" stroke-width="NaN" stroke-linecap="butt"/><path d="M212.73346,103.31958c1.67573,-0.36111 3.1966,-1.10565 3.63279,-1.14672c2.05992,-0.19392 8.24457,0.30024 8.28883,0.63497c0.0151,0.11418 -3.65413,6.06495 -11.37051,8.02876c-5.37923,1.36901 -17.87566,0.23948 -18.38056,0.14111c-7.72626,-1.5053 -11.23824,-10.13891 -11.22376,-10.19707c0.03784,-0.15187 2.51624,-0.68911 7.60738,0.23286c0,0 3.7697,1.81511 5.63014,2.30096c0,0 13.91282,0.41519 15.81569,0.00513z" stroke="#000000" stroke-width="1.9" stroke-linecap="butt"/><path d="M211.87378,94.17086l12.29183,7.69919c0,0 -4.08857,-0.22302 -6.44501,-0.18242c-2.69581,0.04643 -3.47783,0.42494 -3.47783,0.42494c0,0 -6.28422,-2.25436 -8.58665,-2.32947c-3.41737,-0.11149 -11.04486,2.71479 -11.04486,2.71479l-10.89208,-1.89026l14.25284,-6.834c0,0 1.95325,0.72442 2.95848,1.12444c1.38618,0.5516 4.44646,2.59334 4.44646,2.59334c0,0 2.83819,-2.18902 4.16857,-2.72257c0.90827,-0.36425 2.32824,-0.59798 2.32824,-0.59798z" stroke="#000000" stroke-width="1.4" stroke-linecap="round"/></g><g stroke-linecap="butt"><path d="M267.37836,105.13568c0,4.09899 -5.14173,7.42188 -11.48438,7.42188c-6.34265,0 -11.48438,-3.32289 -11.48438,-7.42187c0,-4.09899 5.14173,-7.42187 11.48438,-7.42187c6.34265,0 11.48438,3.32289 11.48438,7.42188z" fill="#000000" stroke="none" stroke-width="0"/><path d="M257.02255,99.5141c0.24666,0.0234 0.6086,-1.44147 2.34631,-2.08459c1.67939,-0.62153 4.07183,-0.42472 5.53918,-0.25563c1.61805,0.54491 10.03261,4.51373 10.03261,4.51373c0,0 -7.20299,0.56304 -10.4167,0.96448c-2.69313,0.33641 -4.6365,-1.26669 -7.78124,-1.3725c-3.14474,-0.10581 -5.02981,0.78805 -7.96412,0.58281c-6.18625,-0.43269 -12.14485,-2.33757 -12.14485,-2.33757c0,0 1.85053,-0.41485 4.59385,-1.34455c3.16904,-1.07398 4.04458,-1.54001 5.02564,-1.667c2.33124,-0.30176 5.0884,-0.29325 7.71556,0.55526c2.81497,0.90917 2.80847,2.42228 3.05375,2.44555z" fill="#ffffff" stroke="#000000" stroke-width="1.45"/><path d="M255.96929,115.53047c-13.27509,-0.33993 -20.5702,-15.83667 -20.5702,-15.83667c0,0 11.8762,1.99818 15.2522,2.79293c3.48786,0.82108 3.03685,4.89834 6.21082,4.98214c3.50791,0.09261 3.00446,-4.51341 5.63619,-4.78931c2.04031,-0.2139 12.55415,-0.52901 12.55415,-0.52901c0,0 -4.46457,13.75425 -19.08316,13.37992z" fill="#ffffff" stroke="#000000" stroke-width="1.9"/></g><g><path d="M133.44768,102.42142c0,5.40059 -7.60836,7.61232 -17.31372,7.61232c-9.70537,0 -17.83252,-2.21174 -17.83252,-7.61232c0,-2.20296 0.40793,-5.281 2.61688,-6.91592c3.20635,-2.37312 9.20977,-2.86269 14.95623,-2.86269c9.70537,0 17.57312,4.37804 17.57312,9.77862z" fill="#000000" stroke="none" stroke-width="1.25" stroke-linecap="butt"/><path d="M125.50596,97.15556c0,1.1257 -4.16082,2.03823 -9.29347,2.03823c-5.13266,0 -9.63142,-1.38291 -9.63142,-2.5086c0,-1.1257 4.49877,-1.56788 9.63142,-1.56788c5.13266,0 9.29348,0.91254 9.29348,2.03824z" fill="#ffffff" stroke="#ffffff" stroke-width="1.25" stroke-linecap="butt"/><path d="M123.64042,103.37958c0,1.1257 -2.80904,3.13576 -7.9417,3.13576c-5.13266,0 -7.94171,-2.6372 -7.94171,-3.7629c0,-1.1257 3.147,1.09751 8.27964,1.09751c5.13266,0 7.60375,-1.59605 7.60375,-0.47037z" fill="#ffffff" stroke="#ffffff" stroke-width="1.25" stroke-linecap="butt"/><path d="M99.90897,93.72042c2.63191,-1.2758 5.08862,-2.16832 8.04919,-2.46331c4.83699,-0.48196 7.73615,2.6172 7.73615,2.6172c0,0 4.81493,-2.59876 7.21534,-2.17737c0.9826,0.17249 3.26734,1.1236 5.25015,1.97528c2.86097,1.22887 5.94152,3.1695 5.94152,3.1695c0,0 -2.61975,1.34485 -17.82492,0.50564c-16.50811,-0.91112 -19.86102,-2.13189 -19.86102,-2.13189c0,0 1.82545,-0.68645 3.4936,-1.49506z" fill="#ffffff" stroke="#000000" stroke-width="1.25" stroke-linecap="round"/><path d="M95.15852,95.90397c0,0 6.23442,0.68701 7.50247,3.39396c1.57891,3.37056 3.43222,3.36408 5.52192,4.65127c1.79526,1.10584 7.79011,1.59801 8.32277,1.57889c2.40288,-0.08625 5.32106,-0.01459 6.68937,-0.86449c1.67469,-1.04021 2.84864,-1.3893 4.53044,-4.52514c1.35522,-2.5269 3.93106,-2.2276 3.93106,-2.2276l2.97391,-0.25087c0,0 -0.76788,8.49893 -9.74376,14.89218c-3.19378,1.98762 -5.55649,1.26109 -8.88139,1.25715c-4.70853,0.08193 -7.43408,0.21473 -10.78699,-1.50802c-6.33785,-3.25644 -10.05979,-16.39734 -10.05979,-16.39734z" fill="#ffffff" stroke="#000000" stroke-width="1.9" stroke-linecap="round"/><path d="M115.64311,102.78535c-3.87277,0.20929 -4.14193,-2.43577 -4.14193,-2.43577h8.28383c0,0 -0.38602,2.23279 -4.14193,2.43577z" fill="#ffffff" stroke="none" stroke-width="1.25" stroke-linecap="butt"/><path d="M115.58681,101.61326v-1.26367" fill="none" stroke="#000000" stroke-width="1.25" stroke-linecap="round"/></g><g><path d="M147.19049,109.90273v-14.74541h16.74141v14.74541z" fill="#000000" stroke="none" stroke-width="1.25" stroke-linecap="butt"/><path d="M161.82443,107.2261c0,1.60163 -2.32812,2.9 -5.2,2.9c-2.87188,0 -5.2,-1.29837 -5.2,-2.9c0,-1.60163 2.32812,-2.9 5.2,-2.9c2.87188,0 5.2,1.29837 5.2,2.9z" fill="#ffffff" stroke="none" stroke-width="0" stroke-linecap="butt"/><path d="M151.3549,100.78737c0,0 0.63041,6.10831 4.49769,6.44984c6.06729,0.34152 5.35508,-6.13349 5.35508,-6.13349l10.11309,0.48795c0,0 -3.07187,13.16043 -14.66277,13.26442c-13.75988,0.12345 -16.27533,-14.47086 -16.27533,-14.47086z" fill="#ffffff" stroke="#000000" stroke-width="1.9" stroke-linecap="round"/><path d="M140.78445,99.58093c0,0 2.12,-1.99762 4.24583,-3.55376c2.003,-1.46624 3.55719,-2.45638 5.81222,-3.68489c2.80086,-1.706 5.02902,2.20645 5.02902,2.20645c0,0 2.56675,-3.69016 4.57444,-2.84407c1.12381,0.4736 4.74254,2.72666 7.36888,5.20571c2.06565,1.94982 2.592,4.12701 2.592,4.12701c0,0 -5.00743,0.3513 -7.92552,-0.25c-2.9181,-0.6013 -6.0269,-2.81504 -6.0269,-2.81504c0,0 -3.50687,2.15419 -6.02691,2.41289c-2.52004,0.25869 -9.64303,-0.8043 -9.64303,-0.8043z" fill="#ffffff" stroke="#000000" stroke-width="1.25" stroke-linecap="round"/></g><g stroke-linecap="butt"><path d="M131.63329,30.69891c-0.08368,3.61231 -11.60306,12.47334 -19.81383,12.31291c-8.21079,-0.16043 -19.22557,-10.63658 -19.14189,-14.24889c0.08369,-3.61231 12.34082,-1.5335 20.55158,-1.37307c8.21079,0.16043 18.48783,-0.30326 18.40414,3.30905z" fill="#000000" stroke="none" stroke-width="0"/><path d="M123.16467,28.3379c0,0 3.8428,3.75768 -10.3747,3.39092c-15.41723,0.24003 -13.63935,-4.28331 -13.63935,-4.28331z" fill="#ffffff" stroke="none" stroke-width="0"/><path d="M125.81133,35.08836c0,0 -2.2297,11.82493 -14.44124,11.45819c-10.73663,-0.32246 -12.63758,-11.55057 -12.63758,-11.55057c0,0 10.07658,2.79755 13.68256,2.80387c3.21746,0.00563 13.39626,-2.71149 13.39626,-2.71149z" fill="#ffffff" stroke="none" stroke-width="0"/><path d="M130.13908,29.25782c0,0 -5.42078,1.76153 -8.66823,1.49713c-4.59627,-0.37422 -1.1393,-1.05034 -8.549,-1.20417c-6.37849,-0.13243 -4.37412,1.43203 -9.52197,1.41669c-5.14785,-0.01534 -8.79495,-2.78073 -8.79495,-2.78073c0,0 9.1884,-5.89968 10.82237,-5.46883c4.733,1.248 7.3549,2.51493 7.62632,2.53337c0,0 4.38278,-1.68025 7.52724,-1.96579c3.07401,-0.27914 9.55822,5.97233 9.55822,5.97233z" fill="#ffffff" stroke="#000000" stroke-width="1.25"/><path d="M118.17533,40.18209c2.39313,-1.53194 3.06991,-3.43814 5.02352,-6.10608c3.34643,-4.57005 7.09096,-3.33236 7.09096,-3.33236c0,0 -1.91808,8.58513 -5.24683,13.14406c-4.08074,5.58882 -6.92275,3.78586 -12.24986,3.88811c-6.0516,0.11616 -9.11806,1.15743 -12.98401,-3.02619c-3.86595,-4.18363 -6.21766,-15.39499 -6.21766,-15.39499c0,0 6.18325,0.14885 8.87535,4.7561c2.6921,4.60725 2.44723,4.84433 5.32174,6.32731c0,0 7.91563,1.32593 10.38679,-0.25596z" fill="#ffffff" stroke="#000000" stroke-width="1.9"/></g><g stroke-linecap="butt"><path d="M132.60315,160.90604c0,4.09899 -5.14173,7.42188 -11.48438,7.42188c-6.34265,0 -11.48438,-3.32289 -11.48438,-7.42187c0,-4.09899 5.14173,-7.42187 11.48438,-7.42187c6.34265,0 11.48438,3.32289 11.48438,7.42188z" fill="#000000" stroke="none" stroke-width="0"/><path d="M122.24734,155.28446c0.24666,0.0234 0.6086,-1.44147 2.34631,-2.08459c1.67939,-0.62153 4.07183,-0.42472 5.53918,-0.25563c1.61805,0.54491 10.03261,4.51373 10.03261,4.51373c0,0 -7.20299,0.56304 -10.4167,0.96448c-2.69313,0.33641 -4.6365,-1.26669 -7.78124,-1.3725c-3.14474,-0.10581 -5.02981,0.78805 -7.96412,0.58281c-6.18625,-0.43269 -12.14485,-2.33757 -12.14485,-2.33757c0,0 1.85053,-0.41485 4.59385,-1.34455c3.16904,-1.07398 4.04458,-1.54001 5.02564,-1.667c2.33124,-0.30176 5.0884,-0.29325 7.71556,0.55526c2.81497,0.90917 2.80847,2.42228 3.05375,2.44555z" fill="#ffffff" stroke="#000000" stroke-width="1.45"/><path d="M121.19408,171.30083c-13.27509,-0.33993 -20.5702,-15.83667 -20.5702,-15.83667c0,0 11.8762,1.99818 15.2522,2.79293c3.48786,0.82108 3.03685,4.89834 6.21082,4.98214c3.50791,0.09261 3.00446,-4.51341 5.63619,-4.78931c2.04031,-0.2139 12.55415,-0.52901 12.55415,-0.52901c0,0 -4.46457,13.75425 -19.08316,13.37992z" fill="#ffffff" stroke="#000000" stroke-width="1.9"/></g><g><path d="M152.81728,167.55348v-14.74541h16.74141v14.74541z" fill="#000000" stroke="none" stroke-width="1.25" stroke-linecap="butt"/><path d="M167.45122,164.87685c0,1.60163 -2.32812,2.9 -5.2,2.9c-2.87188,0 -5.2,-1.29837 -5.2,-2.9c0,-1.60163 2.32812,-2.9 5.2,-2.9c2.87188,0 5.2,1.29837 5.2,2.9z" fill="#ffffff" stroke="none" stroke-width="0" stroke-linecap="butt"/><path d="M156.98169,158.43812c0,0 0.63041,6.10831 4.49769,6.44984c6.06729,0.34152 5.35508,-6.13349 5.35508,-6.13349l10.11309,0.48795c0,0 -3.07187,13.16043 -14.66277,13.26442c-13.75988,0.12345 -16.27533,-14.47086 -16.27533,-14.47086z" fill="#ffffff" stroke="#000000" stroke-width="1.9" stroke-linecap="round"/><path d="M146.41124,157.23168c0,0 2.12,-1.99762 4.24583,-3.55376c2.003,-1.46624 3.55719,-2.45638 5.81222,-3.68489c2.80086,-1.706 5.02902,2.20645 5.02902,2.20645c0,0 2.56675,-3.69016 4.57444,-2.84407c1.12381,0.4736 4.74254,2.72666 7.36888,5.20571c2.06565,1.94982 2.592,4.12701 2.592,4.12701c0,0 -5.00743,0.3513 -7.92552,-0.25c-2.9181,-0.6013 -6.0269,-2.81504 -6.0269,-2.81504c0,0 -3.50687,2.15419 -6.02691,2.41289c-2.52004,0.25869 -9.64303,-0.8043 -9.64303,-0.8043z" fill="#ffffff" stroke="#000000" stroke-width="1.25" stroke-linecap="round"/></g><g stroke-linecap="butt"><path d="M221.25055,156.67028c-0.08368,3.61231 -11.60306,12.47334 -19.81383,12.31291c-8.21079,-0.16043 -19.22557,-10.63658 -19.14189,-14.24889c0.08369,-3.61231 12.34082,-1.5335 20.55158,-1.37307c8.21079,0.16043 18.48783,-0.30326 18.40414,3.30905z" fill="#000000" stroke="none" stroke-width="0"/><path d="M212.78193,154.30927c0,0 3.8428,3.75768 -10.3747,3.39092c-15.41723,0.24003 -13.63935,-4.28331 -13.63935,-4.28331z" fill="#ffffff" stroke="none" stroke-width="0"/><path d="M215.42859,161.05973c0,0 -2.2297,11.82493 -14.44124,11.45819c-10.73663,-0.32246 -12.63758,-11.55057 -12.63758,-11.55057c0,0 10.07658,2.79755 13.68256,2.80387c3.21746,0.00563 13.39626,-2.71149 13.39626,-2.71149z" fill="#ffffff" stroke="none" stroke-width="0"/><path d="M219.75634,155.22919c0,0 -5.42078,1.76153 -8.66823,1.49713c-4.59627,-0.37422 -1.1393,-1.05034 -8.549,-1.20417c-6.37849,-0.13243 -4.37412,1.43203 -9.52197,1.41669c-5.14785,-0.01534 -8.79495,-2.78073 -8.79495,-2.78073c0,0 9.1884,-5.89968 10.82237,-5.46883c4.733,1.248 7.3549,2.51493 7.62632,2.53337c0,0 4.38278,-1.68025 7.52724,-1.96579c3.07401,-0.27914 9.55822,5.97233 9.55822,5.97233z" fill="#ffffff" stroke="#000000" stroke-width="1.25"/><path d="M207.79259,166.15346c2.39313,-1.53194 3.06991,-3.43814 5.02352,-6.10608c3.34643,-4.57005 7.09096,-3.33236 7.09096,-3.33236c0,0 -1.91808,8.58513 -5.24683,13.14406c-4.08074,5.58882 -6.92275,3.78586 -12.24986,3.88811c-6.0516,0.11616 -9.11806,1.15743 -12.98401,-3.02619c-3.86595,-4.18363 -6.21766,-15.39499 -6.21766,-15.39499c0,0 6.18325,0.14885 8.87535,4.7561c2.6921,4.60725 2.44723,4.84433 5.32174,6.32731c0,0 7.91563,1.32593 10.38679,-0.25596z" fill="#ffffff" stroke="#000000" stroke-width="1.9"/></g><g fill="#ffffff"><path d="M258.63507,159.90427c0,2.43926 -4.81294,4.41667 -10.75,4.41667c-5.93706,0 -10.75,-1.97741 -10.75,-4.41667c0,-2.43926 4.81294,-4.41666 10.75,-4.41666c5.93706,0 10.75,1.97741 10.75,4.41666z" stroke="none" stroke-width="NaN" stroke-linecap="butt"/><path d="M256.59472,160.97033c1.67573,-0.36111 3.1966,-1.10565 3.63279,-1.14672c2.05992,-0.19392 8.24457,0.30024 8.28883,0.63497c0.0151,0.11418 -3.65413,6.06495 -11.37051,8.02876c-5.37923,1.36901 -17.87566,0.23948 -18.38056,0.14111c-7.72626,-1.5053 -11.23824,-10.13891 -11.22376,-10.19707c0.03784,-0.15187 2.51624,-0.68911 7.60738,0.23286c0,0 3.7697,1.81511 5.63014,2.30096c0,0 13.91282,0.41519 15.81569,0.00513z" stroke="#000000" stroke-width="1.9" stroke-linecap="butt"/><path d="M255.73504,151.82161l12.29183,7.69919c0,0 -4.08857,-0.22302 -6.44501,-0.18242c-2.69581,0.04643 -3.47783,0.42494 -3.47783,0.42494c0,0 -6.28422,-2.25436 -8.58665,-2.32947c-3.41737,-0.11149 -11.04486,2.71479 -11.04486,2.71479l-10.89208,-1.89026l14.25284,-6.834c0,0 1.95325,0.72442 2.95848,1.12444c1.38618,0.5516 4.44646,2.59334 4.44646,2.59334c0,0 2.83819,-2.18902 4.16857,-2.72257c0.90827,-0.36425 2.32824,-0.59798 2.32824,-0.59798z" stroke="#000000" stroke-width="1.4" stroke-linecap="round"/></g><g fill="#ffffff"><path d="M133.8886,210.03347c0,2.43926 -4.81294,4.41667 -10.75,4.41667c-5.93706,0 -10.75,-1.97741 -10.75,-4.41667c0,-2.43926 4.81294,-4.41666 10.75,-4.41666c5.93706,0 10.75,1.97741 10.75,4.41666z" stroke="none" stroke-width="NaN" stroke-linecap="butt"/><path d="M131.84825,211.09953c1.67573,-0.36111 3.1966,-1.10565 3.63279,-1.14672c2.05992,-0.19392 8.24457,0.30024 8.28883,0.63497c0.0151,0.11418 -3.65413,6.06495 -11.37051,8.02876c-5.37923,1.36901 -17.87566,0.23948 -18.38056,0.14111c-7.72626,-1.5053 -11.23824,-10.13891 -11.22376,-10.19707c0.03784,-0.15187 2.51624,-0.68911 7.60738,0.23286c0,0 3.7697,1.81511 5.63014,2.30096c0,0 13.91282,0.41519 15.81569,0.00513z" stroke="#000000" stroke-width="1.9" stroke-linecap="butt"/><path d="M130.98857,201.95081l12.29183,7.69919c0,0 -4.08857,-0.22302 -6.44501,-0.18242c-2.69581,0.04643 -3.47783,0.42494 -3.47783,0.42494c0,0 -6.28422,-2.25436 -8.58665,-2.32947c-3.41737,-0.11149 -11.04486,2.71479 -11.04486,2.71479l-10.89208,-1.89026l14.25284,-6.834c0,0 1.95325,0.72442 2.95848,1.12444c1.38618,0.5516 4.44646,2.59334 4.44646,2.59334c0,0 2.83819,-2.18902 4.16857,-2.72257c0.90827,-0.36425 2.32824,-0.59798 2.32824,-0.59798z" stroke="#000000" stroke-width="1.4" stroke-linecap="round"/></g><g><path d="M158.45844,217.69703v-14.74541h16.74141v14.74541z" fill="#000000" stroke="none" stroke-width="1.25" stroke-linecap="butt"/><path d="M173.09238,215.0204c0,1.60163 -2.32812,2.9 -5.2,2.9c-2.87188,0 -5.2,-1.29837 -5.2,-2.9c0,-1.60163 2.32812,-2.9 5.2,-2.9c2.87188,0 5.2,1.29837 5.2,2.9z" fill="#ffffff" stroke="none" stroke-width="0" stroke-linecap="butt"/><path d="M162.62285,208.58167c0,0 0.63041,6.10831 4.49769,6.44984c6.06729,0.34152 5.35508,-6.13349 5.35508,-6.13349l10.11309,0.48795c0,0 -3.07187,13.16043 -14.66277,13.26442c-13.75988,0.12345 -16.27533,-14.47086 -16.27533,-14.47086z" fill="#ffffff" stroke="#000000" stroke-width="1.9" stroke-linecap="round"/><path d="M152.0524,207.37523c0,0 2.12,-1.99762 4.24583,-3.55376c2.003,-1.46624 3.55719,-2.45638 5.81222,-3.68489c2.80086,-1.706 5.02902,2.20645 5.02902,2.20645c0,0 2.56675,-3.69016 4.57444,-2.84407c1.12381,0.4736 4.74254,2.72666 7.36888,5.20571c2.06565,1.94982 2.592,4.12701 2.592,4.12701c0,0 -5.00743,0.3513 -7.92552,-0.25c-2.9181,-0.6013 -6.0269,-2.81504 -6.0269,-2.81504c0,0 -3.50687,2.15419 -6.02691,2.41289c-2.52004,0.25869 -9.64303,-0.8043 -9.64303,-0.8043z" fill="#ffffff" stroke="#000000" stroke-width="1.25" stroke-linecap="round"/></g><g fill="#ffffff" stroke="#000000" stroke-linecap="butt"><path d="M124.91565,250.37805c0.24666,0.02241 0.6086,0.28574 2.34631,-0.33037c1.67939,-0.59543 4.7385,-1.07355 6.20585,-0.91156c1.61805,0.52203 9.96594,4.72415 9.96594,4.72415c0,0 -7.95924,-0.71092 -11.17295,-0.32634c-2.69313,0.32228 -7.62499,1.73281 -7.62499,1.73281l-21.10897,-3.47842c0,0 9.63843,-3.49675 10.61949,-3.6184c2.33124,-0.28909 5.0884,0.71907 7.71556,1.53194c2.81497,0.87098 2.80847,0.65387 3.05375,0.67617z" stroke-width="1.25"/><path d="M102.89216,251.75803c0,0 7.40776,-0.06157 10.78376,0.73318c3.48786,0.82108 6.46932,2.33304 10.81875,2.51689c4.34943,0.18384 6.71999,-1.38841 9.35172,-1.66431c2.04031,-0.2139 9.69913,0.87099 9.69913,0.87099c0,0 0.28353,4.54593 -6.80479,9.75102c-2.69148,1.9764 -7.81258,2.28981 -12.58621,2.2046c-4.77363,-0.08521 -9.72244,-0.88062 -12.60467,-2.64237c-5.5651,-3.40164 -8.65769,-11.77 -8.65769,-11.77z" stroke-width="1.9"/></g><g stroke-linecap="butt"><path d="M189.39848,259.43605c0,2.52443 -4.23651,4.57088 -9.46252,4.57088c-5.226,0 -9.46252,-2.04645 -9.46252,-4.57088c0,-2.52443 4.23651,-4.57088 9.46252,-4.57088c5.226,0 9.46252,2.04645 9.46252,4.57088z" fill="#000000" stroke="none" stroke-width="0"/><path d="M180.71683,254.41671c0.24666,0.0234 0.6086,-1.44147 2.34631,-2.08459c1.67939,-0.62153 4.07183,-0.42472 5.53918,-0.25563c1.61805,0.54491 10.03261,4.51373 10.03261,4.51373c0,0 -7.35924,0.71929 -10.57295,1.12073c-2.69313,0.33641 -7.62499,1.1275 -7.62499,1.1275l-20.10897,-4.41101c0,0 1.85053,-0.41485 4.59385,-1.34455c3.16904,-1.07398 4.04458,-1.54001 5.02564,-1.667c2.33124,-0.30176 5.0884,-0.29325 7.71556,0.55526c2.81497,0.90917 2.80847,2.42228 3.05375,2.44555z" fill="#ffffff" stroke="#000000" stroke-width="1.25"/><path d="M179.19069,268.89536c-13.27509,-0.33993 -20.09732,-14.29896 -20.09732,-14.29896c0,0 7.00776,1.33843 10.38376,2.13318c3.48786,0.82108 6.30894,4.09724 10.65837,4.28109c4.34943,0.18384 6.88037,-3.15261 9.5121,-3.42851c2.04031,-0.2139 9.09913,-0.52901 9.09913,-0.52901c0,0 -4.93745,12.21654 -19.55604,11.84221z" fill="#ffffff" stroke="#000000" stroke-width="1.9"/></g><g stroke-linecap="butt"><path d="M235.961,261.49878c0,2.52443 -4.11151,6.07088 -9.33752,6.07088c-5.226,0 -9.58752,-3.54645 -9.58752,-6.07088c0,-2.52443 4.23651,-4.57088 9.46252,-4.57088c5.226,0 9.46252,2.04645 9.46252,4.57088z" fill="#000000" stroke="none" stroke-width="0"/><path d="M227.27935,256.47943c0.24666,0.0234 0.6086,-1.44147 2.34631,-2.08459c1.67939,-0.62153 4.07183,-0.42472 5.53918,-0.25563c1.61805,0.54491 10.03261,4.51373 10.03261,4.51373c0,0 -7.35924,0.71929 -10.57295,1.12073c-2.69313,0.33641 -7.62499,1.1275 -7.62499,1.1275l-20.10897,-4.41101c0,0 1.85053,-0.41485 4.59385,-1.34455c3.16904,-1.07398 4.04458,-1.54001 5.02564,-1.667c2.33124,-0.30176 5.0884,-0.29325 7.71556,0.55526c2.81497,0.90917 2.80847,2.42228 3.05375,2.44555z" fill="#ffffff" stroke="#000000" stroke-width="1.25"/><path d="M226.25321,273.17355c-18.48767,-0.38653 -20.59732,-16.51444 -20.59732,-16.51444c0,0 7.00776,1.33843 10.38376,2.13318c3.48786,0.82108 3.80894,5.59724 10.40837,6.03109c6.59943,0.43385 7.13037,-4.90261 9.7621,-5.17851c2.04031,-0.2139 9.09913,-0.52901 9.09913,-0.52901c0,0 -1.15174,14.43202 -19.05604,14.05769z" fill="#ffffff" stroke="#000000" stroke-width="1.9"/></g><g stroke-linecap="butt"><path d="M297.07834,263.211c-0.08368,3.61231 -11.60306,12.47334 -19.81383,12.31291c-8.21079,-0.16043 -19.22557,-10.63658 -19.14189,-14.24889c0.08369,-3.61231 12.34082,-1.5335 20.55158,-1.37307c8.21079,0.16043 18.48783,-0.30326 18.40414,3.30905z" fill="#000000" stroke="none" stroke-width="0"/><path d="M288.60972,260.84999c0,0 3.8428,3.75768 -10.3747,3.39092c-15.41723,0.24003 -13.63935,-4.28331 -13.63935,-4.28331z" fill="#ffffff" stroke="none" stroke-width="0"/><path d="M291.25638,267.60045c0,0 -2.2297,11.82493 -14.44124,11.45819c-10.73663,-0.32246 -12.63758,-11.55057 -12.63758,-11.55057c0,0 10.07658,2.79755 13.68256,2.80387c3.21746,0.00563 13.39626,-2.71149 13.39626,-2.71149z" fill="#ffffff" stroke="none" stroke-width="0"/><path d="M295.58413,261.76991c0,0 -5.42078,1.76153 -8.66823,1.49713c-4.59627,-0.37422 -1.1393,-1.05034 -8.549,-1.20417c-6.37849,-0.13243 -4.37412,1.43203 -9.52197,1.41669c-5.14785,-0.01534 -8.79495,-2.78073 -8.79495,-2.78073c0,0 9.1884,-5.89968 10.82237,-5.46883c4.733,1.248 7.3549,2.51493 7.62632,2.53337c0,0 4.38278,-1.68025 7.52724,-1.96579c3.07401,-0.27914 9.55822,5.97233 9.55822,5.97233z" fill="#ffffff" stroke="#000000" stroke-width="1.25"/><path d="M283.62038,272.69418c2.39313,-1.53194 3.06991,-3.43814 5.02352,-6.10608c3.34643,-4.57005 7.09096,-3.33236 7.09096,-3.33236c0,0 -1.91808,8.58513 -5.24683,13.14406c-4.08074,5.58882 -6.92275,3.78586 -12.24986,3.88811c-6.0516,0.11616 -9.11806,1.15743 -12.98401,-3.02619c-3.86595,-4.18363 -6.21766,-15.39499 -6.21766,-15.39499c0,0 6.18325,0.14885 8.87535,4.7561c2.6921,4.60725 2.44723,4.84433 5.32174,6.32731c0,0 7.91563,1.32593 10.38679,-0.25596z" fill="#ffffff" stroke="#000000" stroke-width="1.9"/></g><g stroke-linecap="butt"><path d="M342.38712,261.5691c-0.07398,3.00985 -11.56951,10.42948 -19.78067,10.32228c-8.21118,-0.10721 -19.25402,-8.79986 -19.18004,-11.80971c0.07399,-3.00985 12.33664,-1.31739 20.54778,-1.21018c8.21118,0.1072 18.48692,-0.31223 18.41293,2.69762z" fill="#000000" stroke="none" stroke-width="0"/><path d="M341.11239,259.66872c0,0 -3.34441,3.97311 -17.56291,3.68544c-15.41645,0.26792 -17.25123,-3.65727 -17.25123,-3.65727z" fill="#ffffff" stroke="none" stroke-width="0"/><path d="M339.58315,263.25624c0,0 -2.65802,10.81964 -17.40722,10.53186c-12.9678,-0.25302 -15.29669,-10.51094 -15.29669,-10.51094c0,0 1.92442,1.51672 5.83197,2.92731c2.59281,0.93597 5.87053,1.96976 10.22557,1.9615c3.88581,-0.00737 7.27817,-0.88904 9.7941,-1.68972c4.55336,-1.44908 6.85228,-3.22001 6.85228,-3.22001z" fill="#ffffff" stroke="none" stroke-width="0"/><path d="M333.31211,254.55589c3.0403,0.86814 9.57699,5.81096 9.57699,5.81096c0,0 -3.74757,2.03513 -6.99571,1.82532c-4.59725,-0.29697 -4.80814,-0.66504 -12.21821,-0.76933c-6.37881,-0.08978 -7.70598,0.46792 -12.85385,0.47174c-5.14787,0.0038 -9.13482,-2.00962 -9.13482,-2.00962c0,0 7.56043,-4.65695 11.60521,-5.34864c3.9568,-0.67666 10.22979,2.53951 10.50126,2.554c0,0 6.47882,-3.40256 9.51913,-2.53443z" fill="#ffffff" stroke="#000000" stroke-width="1.25"/><path d="M335.62672,263.851c3.33565,-3.34877 7.74817,-2.94591 7.74817,-2.94591c0,0 -1.95167,10.26991 -5.26967,13.61051c-4.06756,4.09526 -9.36146,5.04121 -14.6883,5.13306c-6.05129,0.10435 -10.13428,-1.36774 -14.01006,-4.41103c-3.87577,-3.0433 -7.40005,-15.21379 -7.40005,-15.21379c0,0 5.51926,0.82135 8.22219,4.17784c2.70293,3.35649 3.36328,7.06454 13.80181,6.57354c10.69728,-0.50317 9.6486,-4.96925 11.59592,-6.92422z" fill="#ffffff" stroke="#000000" stroke-width="1.9"/></g><g stroke-linecap="butt"><path d="M387.3224,265.07703c-0.08368,3.61231 -11.60306,12.47334 -19.81383,12.31291c-8.21079,-0.16043 -19.22557,-10.63658 -19.14189,-14.24889c0.08369,-3.61231 12.34082,-1.5335 20.55158,-1.37307c8.21079,0.16043 18.48783,-0.30326 18.40414,3.30905z" fill="#000000" stroke="none" stroke-width="0"/><path d="M378.85378,262.71602c0,0 3.8428,3.75768 -10.3747,3.39092c-15.41723,0.24003 -13.63935,-4.28331 -13.63935,-4.28331z" fill="#ffffff" stroke="none" stroke-width="0"/><path d="M381.50044,269.46648c0,0 -2.2297,11.82493 -14.44124,11.45819c-10.73663,-0.32246 -12.63758,-11.55057 -12.63758,-11.55057c0,0 10.07658,2.79755 13.68256,2.80387c3.21746,0.00563 13.39626,-2.71149 13.39626,-2.71149z" fill="#ffffff" stroke="none" stroke-width="0"/><path d="M385.82819,263.63594c0,0 -5.42078,1.76153 -8.66823,1.49713c-4.59627,-0.37422 -1.1393,-1.05034 -8.549,-1.20417c-6.37849,-0.13243 -4.37412,1.43203 -9.52197,1.41669c-5.14785,-0.01534 -8.79495,-2.78073 -8.79495,-2.78073c0,0 9.1884,-5.89968 10.82237,-5.46883c4.733,1.248 7.3549,2.51493 7.62632,2.53337c0,0 4.38278,-1.68025 7.52724,-1.96579c3.07401,-0.27914 9.55822,5.97233 9.55822,5.97233z" fill="#ffffff" stroke="#000000" stroke-width="1.25"/><path d="M373.86444,274.56021c2.39313,-1.53194 3.06991,-3.43814 5.02352,-6.10608c3.34643,-4.57005 7.09096,-3.33236 7.09096,-3.33236c0,0 -1.91808,8.58513 -5.24683,13.14406c-4.08074,5.58882 -6.92275,3.78586 -12.24986,3.88811c-6.0516,0.11616 -9.11806,1.15743 -12.98401,-3.02619c-3.86595,-4.18363 -6.21766,-15.39499 -6.21766,-15.39499c0,0 6.18325,0.14885 8.87535,4.7561c2.6921,4.60725 2.44723,4.84433 5.32174,6.32731c0,0 7.91563,1.32593 10.38679,-0.25596z" fill="#ffffff" stroke="#000000" stroke-width="1.9"/></g><g stroke-linecap="butt"><path d="M139.76726,307.72776c-0.08368,3.61231 -11.60306,12.47334 -19.81383,12.31291c-8.21079,-0.16043 -19.22557,-10.63658 -19.14189,-14.24889c0.08369,-3.61231 12.34082,-1.5335 20.55158,-1.37307c8.21079,0.16043 18.48783,-0.30326 18.40414,3.30905z" fill="#000000" stroke="none" stroke-width="0"/><path d="M131.29864,305.36675c0,0 3.8428,3.75768 -10.3747,3.39092c-15.41723,0.24003 -13.63935,-4.28331 -13.63935,-4.28331z" fill="#ffffff" stroke="none" stroke-width="0"/><path d="M133.9453,312.11721c0,0 -2.2297,11.82493 -14.44124,11.45819c-10.73663,-0.32246 -12.63758,-11.55057 -12.63758,-11.55057c0,0 10.07658,2.79755 13.68256,2.80387c3.21746,0.00563 13.39626,-2.71149 13.39626,-2.71149z" fill="#ffffff" stroke="none" stroke-width="0"/><path d="M138.27305,306.28667c0,0 -5.42078,1.76153 -8.66823,1.49713c-4.59627,-0.37422 -1.1393,-1.05034 -8.549,-1.20417c-6.37849,-0.13243 -4.37412,1.43203 -9.52197,1.41669c-5.14785,-0.01534 -8.79495,-2.78073 -8.79495,-2.78073c0,0 9.1884,-5.89968 10.82237,-5.46883c4.733,1.248 7.3549,2.51493 7.62632,2.53337c0,0 4.38278,-1.68025 7.52724,-1.96579c3.07401,-0.27914 9.55822,5.97233 9.55822,5.97233z" fill="#ffffff" stroke="#000000" stroke-width="1.25"/><path d="M126.3093,317.21094c2.39313,-1.53194 3.06991,-3.43814 5.02352,-6.10608c3.34643,-4.57005 7.09096,-3.33236 7.09096,-3.33236c0,0 -1.91808,8.58513 -5.24683,13.14406c-4.08074,5.58882 -6.92275,3.78586 -12.24986,3.88811c-6.0516,0.11616 -9.11806,1.15743 -12.98401,-3.02619c-3.86595,-4.18363 -6.21766,-15.39499 -6.21766,-15.39499c0,0 6.18325,0.14885 8.87535,4.7561c2.6921,4.60725 2.44723,4.84433 5.32174,6.32731c0,0 7.91563,1.32593 10.38679,-0.25596z" fill="#ffffff" stroke="#000000" stroke-width="1.9"/></g><g stroke-linecap="butt"><path d="M343.62636,319.21985c-0.07398,3.00985 -11.56951,10.42948 -19.78067,10.32228c-8.21118,-0.10721 -19.25402,-8.79986 -19.18004,-11.80971c0.07399,-3.00985 12.33664,-1.31739 20.54778,-1.21018c8.21118,0.1072 18.48692,-0.31223 18.41293,2.69762z" fill="#000000" stroke="none" stroke-width="0"/><path d="M342.35163,317.31947c0,0 -3.34441,3.97311 -17.56291,3.68544c-15.41645,0.26792 -17.25123,-3.65727 -17.25123,-3.65727z" fill="#ffffff" stroke="none" stroke-width="0"/><path d="M340.82239,320.90699c0,0 -2.65802,10.81964 -17.40722,10.53186c-12.9678,-0.25302 -15.29669,-10.51094 -15.29669,-10.51094c0,0 1.92442,1.51672 5.83197,2.92731c2.59281,0.93597 5.87053,1.96976 10.22557,1.9615c3.88581,-0.00737 7.27817,-0.88904 9.7941,-1.68972c4.55336,-1.44908 6.85228,-3.22001 6.85228,-3.22001z" fill="#ffffff" stroke="none" stroke-width="0"/><path d="M334.55135,312.20664c3.0403,0.86814 9.57699,5.81096 9.57699,5.81096c0,0 -3.74757,2.03513 -6.99571,1.82532c-4.59725,-0.29697 -4.80814,-0.66504 -12.21821,-0.76933c-6.37881,-0.08978 -7.70598,0.46792 -12.85385,0.47174c-5.14787,0.0038 -9.13482,-2.00962 -9.13482,-2.00962c0,0 7.56043,-4.65695 11.60521,-5.34864c3.9568,-0.67666 10.22979,2.53951 10.50126,2.554c0,0 6.47882,-3.40256 9.51913,-2.53443z" fill="#ffffff" stroke="#000000" stroke-width="1.25"/><path d="M336.86596,321.50175c3.33565,-3.34877 7.74817,-2.94591 7.74817,-2.94591c0,0 -1.95167,10.26991 -5.26967,13.61051c-4.06756,4.09526 -9.36146,5.04121 -14.6883,5.13306c-6.05129,0.10435 -10.13428,-1.36774 -14.01006,-4.41103c-3.87577,-3.0433 -7.40005,-15.21379 -7.40005,-15.21379c0,0 5.51926,0.82135 8.22219,4.17784c2.70293,3.35649 3.36328,7.06454 13.80181,6.57354c10.69728,-0.50317 9.6486,-4.96925 11.59592,-6.92422z" fill="#ffffff" stroke="#000000" stroke-width="1.9"/></g><g><path d="M161.57805,325.49135v-14.74541h16.74141v14.74541z" fill="#000000" stroke="none" stroke-width="1.25" stroke-linecap="butt"/><path d="M176.21199,322.81472c0,1.60163 -2.32812,2.9 -5.2,2.9c-2.87188,0 -5.2,-1.29837 -5.2,-2.9c0,-1.60163 2.32812,-2.9 5.2,-2.9c2.87188,0 5.2,1.29837 5.2,2.9z" fill="#ffffff" stroke="none" stroke-width="0" stroke-linecap="butt"/><path d="M165.74246,316.37599c0,0 0.63041,6.10831 4.49769,6.44984c6.06729,0.34152 5.35508,-6.13349 5.35508,-6.13349l10.11309,0.48795c0,0 -3.07187,13.16043 -14.66277,13.26442c-13.75988,0.12345 -16.27533,-14.47086 -16.27533,-14.47086z" fill="#ffffff" stroke="#000000" stroke-width="1.9" stroke-linecap="round"/><path d="M155.17201,315.16955c0,0 2.12,-1.99762 4.24583,-3.55376c2.003,-1.46624 3.55719,-2.45638 5.81222,-3.68489c2.80086,-1.706 5.02902,2.20645 5.02902,2.20645c0,0 2.56675,-3.69016 4.57444,-2.84407c1.12381,0.4736 4.74254,2.72666 7.36888,5.20571c2.06565,1.94982 2.592,4.12701 2.592,4.12701c0,0 -5.00743,0.3513 -7.92552,-0.25c-2.9181,-0.6013 -6.0269,-2.81504 -6.0269,-2.81504c0,0 -3.50687,2.15419 -6.02691,2.41289c-2.52004,0.25869 -9.64303,-0.8043 -9.64303,-0.8043z" fill="#ffffff" stroke="#000000" stroke-width="1.25" stroke-linecap="round"/></g><g stroke-linecap="butt"><path d="M229.74196,320.0975c0,4.09899 -5.14173,7.42188 -11.48438,7.42188c-6.34265,0 -11.48438,-3.32289 -11.48438,-7.42187c0,-4.09899 5.14173,-7.42187 11.48438,-7.42187c6.34265,0 11.48438,3.32289 11.48438,7.42188z" fill="#000000" stroke="none" stroke-width="0"/><path d="M219.38615,314.47592c0.24666,0.0234 0.6086,-1.44147 2.34631,-2.08459c1.67939,-0.62153 4.07183,-0.42472 5.53918,-0.25563c1.61805,0.54491 10.03261,4.51373 10.03261,4.51373c0,0 -7.20299,0.56304 -10.4167,0.96448c-2.69313,0.33641 -4.6365,-1.26669 -7.78124,-1.3725c-3.14474,-0.10581 -5.02981,0.78805 -7.96412,0.58281c-6.18625,-0.43269 -12.14485,-2.33757 -12.14485,-2.33757c0,0 1.85053,-0.41485 4.59385,-1.34455c3.16904,-1.07398 4.04458,-1.54001 5.02564,-1.667c2.33124,-0.30176 5.0884,-0.29325 7.71556,0.55526c2.81497,0.90917 2.80847,2.42228 3.05375,2.44555z" fill="#ffffff" stroke="#000000" stroke-width="1.45"/><path d="M218.33289,330.49229c-13.27509,-0.33993 -20.5702,-15.83667 -20.5702,-15.83667c0,0 11.8762,1.99818 15.2522,2.79293c3.48786,0.82108 3.03685,4.89834 6.21082,4.98214c3.50791,0.09261 3.00446,-4.51341 5.63619,-4.78931c2.04031,-0.2139 12.55415,-0.52901 12.55415,-0.52901c0,0 -4.46457,13.75425 -19.08316,13.37992z" fill="#ffffff" stroke="#000000" stroke-width="1.9"/></g><g fill="#ffffff"><path d="M283.05135,319.08138c0,2.43926 -4.81294,4.41667 -10.75,4.41667c-5.93706,0 -10.75,-1.97741 -10.75,-4.41667c0,-2.43926 4.81294,-4.41666 10.75,-4.41666c5.93706,0 10.75,1.97741 10.75,4.41666z" stroke="none" stroke-width="NaN" stroke-linecap="butt"/><path d="M281.011,320.14744c1.67573,-0.36111 3.1966,-1.10565 3.63279,-1.14672c2.05992,-0.19392 8.24457,0.30024 8.28883,0.63497c0.0151,0.11418 -3.65413,6.06495 -11.37051,8.02876c-5.37923,1.36901 -17.87566,0.23948 -18.38056,0.14111c-7.72626,-1.5053 -11.23824,-10.13891 -11.22376,-10.19707c0.03784,-0.15187 2.51624,-0.68911 7.60738,0.23286c0,0 3.7697,1.81511 5.63014,2.30096c0,0 13.91282,0.41519 15.81569,0.00513z" stroke="#000000" stroke-width="1.9" stroke-linecap="butt"/><path d="M280.15132,310.99872l12.29183,7.69919c0,0 -4.08857,-0.22302 -6.44501,-0.18242c-2.69581,0.04643 -3.47783,0.42494 -3.47783,0.42494c0,0 -6.28422,-2.25436 -8.58665,-2.32947c-3.41737,-0.11149 -11.04486,2.71479 -11.04486,2.71479l-10.89208,-1.89026l14.25284,-6.834c0,0 1.95325,0.72442 2.95848,1.12444c1.38618,0.5516 4.44646,2.59334 4.44646,2.59334c0,0 2.83819,-2.18902 4.16857,-2.72257c0.90827,-0.36425 2.32824,-0.59798 2.32824,-0.59798z" stroke="#000000" stroke-width="1.4" stroke-linecap="round"/></g><text transform="translate(35.15005,39.40516) scale(0.5,0.51254)" font-size="40" xml:space="preserve" fill="#000000" fill-rule="nonzero" stroke="none" stroke-width="1" stroke-linecap="butt" stroke-linejoin="miter" stroke-miterlimit="10" stroke-dasharray="" stroke-dashoffset="0" font-family="Sans Serif" font-weight="normal" text-anchor="start" style="mix-blend-mode: normal"><tspan x="0" dy="0">I</tspan><tspan x="0" dy="46.150000000000006px"> </tspan><tspan x="0" dy="46.150000000000006px"> </tspan><tspan x="0" dy="46.150000000000006px">Dont</tspan><tspan x="0" dy="46.150000000000006px"> </tspan><tspan x="0" dy="46.150000000000006px">Want</tspan><tspan x="0" dy="46.150000000000006px"> </tspan><tspan x="0" dy="46.150000000000006px"> </tspan><tspan x="0" dy="46.150000000000006px">To</tspan><tspan x="0" dy="46.150000000000006px"> </tspan><tspan x="0" dy="46.150000000000006px">Be</tspan><tspan x="0" dy="46.150000000000006px"> </tspan><tspan x="0" dy="46.150000000000006px">Here</tspan></text></g></g></svg>