<svg version="1.1" xmlns="http://www.w3.org/2000/svg" xmlns:xlink="http://www.w3.org/1999/xlink" width="93.96132" height="256.35899" viewBox="0,0,93.96132,256.35899"><defs><linearGradient x1="240.63182" y1="149.45249" x2="240.63182" y2="304.49834" gradientUnits="userSpaceOnUse" id="color-1"><stop offset="0" stop-color="#ffffff"/><stop offset="1" stop-color="#000000"/></linearGradient></defs><g transform="translate(-192.50443,-50.25354)"><g data-paper-data="{&quot;isPaintingLayer&quot;:true}" fill-rule="nonzero" stroke-linejoin="miter" stroke-miterlimit="10" stroke-dasharray="" stroke-dashoffset="0" style="mix-blend-mode: normal"><path d="M195.28372,306.61253v-253.22501h91.18203v253.22501z" fill-opacity="0.01" fill="#000000" stroke="none" stroke-width="0" stroke-linecap="butt"/><path d="M201.0304,304.39158c0,0 -2.72962,-32.63582 -1.89169,-63.61572c0.11376,-4.20602 7.06094,-7.15103 7.03329,-11.26268c-0.12462,-18.53577 -5.87963,-34.85953 -5.93496,-43.13362c-0.02118,-3.16803 4.97111,-5.03743 8.36356,-11.51365c5.33767,-10.18968 12.26412,-25.30974 31.83845,-25.40745c17.34159,-0.08656 33.92059,0.65267 39.69384,9.91579c4.7476,7.61748 0.15856,23.63727 0.155,26.98094c-0.02046,12.35408 -3.11726,25.90145 -3.0518,40.04145c0.17959,38.78764 3.70609,77.94503 3.70609,77.94503l-10.49667,0.09614l-0.15882,-114.84311c0,0 0.07549,-3.0993 -2.81625,-3.15415c-3.43441,-0.06514 -2.94538,3.11562 -2.94538,3.11562l0.20548,114.86995l-48.21366,0.07222c0,0 11.17251,-47.69491 11.12014,-67.45854c-0.04922,-18.57343 -11.42553,-47.77455 -11.42553,-47.77455c0,0 0.27949,-2.919 -2.8856,-2.93443c-3.11083,-0.01515 -2.81569,2.90899 -2.81569,2.90899l0.35311,115.0668z" fill="url(#color-1)" stroke="#000000" stroke-width="2" stroke-linecap="butt"/><path d="M195.92691,103.8801c0,0 6.16329,-5.92187 6.29161,-6.78761c0.33654,-2.27063 -0.16776,-40.17317 35.96775,-41.57382c44.63633,-0.91362 39.01489,35.34872 41.53088,42.1903c3.44981,9.38084 6.15664,17.40016 6.15664,17.40016c0,0 -2.76715,-2.05351 -4.0797,-3.13397c-1.2242,-1.00773 -3.80143,-3.14585 -3.80143,-3.14585c0,0 3.09111,10.3481 1.31092,20.69498c-1.5623,9.48098 -7.29782,17.22543 -7.29782,17.22543l-1.15522,-2.34735c0,0 -1.02266,2.19794 -2.16005,3.33274c-1.1374,1.13479 -3.43873,2.91273 -3.43873,2.91273l-0.09205,-3.70421c0,0 -7.0601,11.01795 -24.35066,10.87154c-16.30625,-0.25547 -26.07151,-10.6752 -26.07151,-10.6752l-0.1162,2.65484c0,0 -3.89477,-3.29276 -6.18145,-9.70754c-2.72545,-7.64567 -3.23946,-12.24324 -3.23946,-12.24324c0,0 -2.33908,1.89916 -5.71704,2.7744c-4.23278,1.09673 -6.94665,0.34526 -6.94665,0.34526c0,0 3.60795,-2.71717 5.58396,-4.76989c1.76007,-1.8284 2.64658,-3.37722 2.64658,-3.37722c0,0 -2.10758,1.0847 -4.23277,1.61795c-2.21739,0.5564 -4.03008,0.53093 -4.03008,0.53093c0,0 4.97492,-5.03728 7.03074,-10.87429c1.94102,-5.51108 2.09972,-10.95731 2.09972,-10.95731c0,0 -1.36165,0.66163 -3.33013,0.79513c-1.24776,0.08463 -2.37785,-0.0489 -2.37785,-0.0489z" fill="#000000" stroke="none" stroke-width="1.5" stroke-linecap="butt"/><path d="M212.7128,115.20173c-0.57709,-7.29323 0.335,-17.15448 0.335,-17.15448c0,0 3.41059,-0.04124 13.91429,-3.14424c8.0696,-2.38394 20.54731,-9.48722 20.54731,-9.48722c0,0 -2.16005,3.00503 -3.40781,4.46015c-1.32651,1.54696 -3.99292,4.56297 -3.99292,4.56297c0,0 7.838,-1.66761 14.67476,-4.72931c8.56837,-3.53575 10.59252,-6.05309 12.95042,-4.5927c2.7829,1.72362 1.03006,23.1827 0.71846,28.74062c-0.42163,5.66922 -2.53327,9.49969 -3.15031,12.52053c-0.61704,3.02084 -0.4096,6.13662 -2.20622,16.0397c-1.12121,6.18021 -4.16183,8.92466 -10.01942,14.66081c-5.85759,5.73616 -9.05378,9.25275 -13.01359,9.32173c-3.81077,0.06639 -8.93565,-5.1002 -13.93542,-10.38244c-5.32393,-5.62474 -8.87489,-8.47713 -9.71551,-15.13975c-0.75707,-6.00039 -0.77653,-9.90853 -1.12266,-15.24835c-0.25298,-3.90273 -2.26119,-6.44504 -2.57636,-10.42801z" fill="#ffffff" stroke="#000000" stroke-width="1.5" stroke-linecap="butt"/><path d="M261.41204,148.97795c0,0 0.0573,19.32671 -7.93614,27.63844c-2.52381,2.6243 -9.01509,2.83817 -13.93345,2.64252c-4.14889,-0.16503 -9.58897,-1.29288 -12.11524,-3.47048c-9.63019,-8.30102 -8.9132,-27.37125 -8.9132,-27.37125c0,0 9.77391,-8.27265 15.71666,-8.19128c1.36679,0.01868 6.19257,2.71604 6.19257,2.71604c0,0 3.61656,-3.76011 8.26362,-2.06376c5.257,2.2238 12.72512,8.09976 12.72512,8.09976z" fill="#000000" stroke="#000000" stroke-width="1.5" stroke-linecap="butt"/><path d="M240.39555,145.15903c0.59143,0.98183 1.29238,0.27112 1.16094,0.42051c-0.81052,0.64033 -14.69277,2.91343 -17.36512,2.91343c-3.7457,0 -3.44553,-0.68789 2.49061,-4.03887c5.34476,-3.00953 7.06769,-3.49599 13.71358,0.70493z" data-paper-data="{&quot;noHover&quot;:false,&quot;origItem&quot;:[&quot;Path&quot;,{&quot;applyMatrix&quot;:true,&quot;segments&quot;:[[[698.34237,394.12604],[1.90626,-1.07338],[-2.11718,1.19516]],[[697.44393,395.4963],[-1.33594,0],[0.95312,0]],[[702.35019,394.59802],[-0.28908,0.22838],[0.04688,-0.05328]],[[702.03769,393.87482],[0.21094,0.35018],[-0.57032,-0.89828]]],&quot;closed&quot;:true,&quot;fillColor&quot;:[0,0,0]}]}" fill="#ffffff" stroke="#000000" stroke-width="0" stroke-linecap="butt"/><path d="M244.53784,142.42123c2.86952,-0.83245 5.08406,-0.16761 9.22403,2.90591l4.44715,3.48046l-2.23479,0.25593c-2.19044,0.21348 -15.5384,-2.86772 -16.08609,-3.84955c-0.52571,-0.85381 3.5325,-2.5154 4.64964,-2.7928z" data-paper-data="{&quot;noHover&quot;:false,&quot;origItem&quot;:[&quot;Path&quot;,{&quot;applyMatrix&quot;:true,&quot;segments&quot;:[[[704.70179,393.42568],[0,0],[-0.39844,0.09896]],[[704.15491,394.47622],[-0.1875,-0.30452],[0.19532,0.35018]],[[708.60803,395.69422],[-0.78124,0.07614],[0,0]],[709.39709,395.6181],[[707.80335,394.42294],[0,0],[-1.47656,-1.0962]],[[704.70179,393.4257],[1.02344,-0.2969],[0,0]]],&quot;closed&quot;:true,&quot;fillColor&quot;:[0,0,0]}]}" fill="#ffffff" stroke="#000000" stroke-width="0" stroke-linecap="butt"/><path d="M246.88456,149.39948c2.51904,0.83245 2.13873,1.14933 -5.26502,1.21337c-4.46851,0.06404 -8.32862,-0.4278 -8.32862,-0.7693c0,-1.47278 9.71649,-1.7674 13.59363,-0.44406z" data-paper-data="{&quot;noHover&quot;:false,&quot;origItem&quot;:[&quot;Path&quot;,{&quot;applyMatrix&quot;:true,&quot;segments&quot;:[[[700.70179,396.02156],[0,-0.52528],[0,0.1218]],[[703.51429,396.21948],[-1.59374,0.02284],[2.64062,-0.02284]],[[705.35023,395.8693],[0.89844,0.2969],[-1.38282,-0.47198]]],&quot;closed&quot;:true,&quot;fillColor&quot;:[0,0,0]}]}" fill="#ffffff" stroke="#000000" stroke-width="1.5" stroke-linecap="butt"/><path d="M236.18899,162.6743c1.25394,0.69953 2.87572,7.33607 4.51095,7.38333c2.10685,0.06089 4.23604,-6.67956 5.62964,-7.66494c2.73807,-1.89962 4.49571,-1.99125 3.42236,-0.02759c-1.20473,2.02771 -4.91675,15.08018 -7.78627,15.08018c-2.86952,0 -7.73194,-12.54964 -9.81286,-14.57734c-2.93524,-2.8601 -0.91432,-2.92564 4.03612,-0.19363z" data-paper-data="{&quot;noHover&quot;:false,&quot;origItem&quot;:[&quot;Path&quot;,{&quot;applyMatrix&quot;:true,&quot;segments&quot;:[[[700.29563,400.68044],[-1.04688,-1.02008],[0.74218,0.7232]],[[703.44407,401.97458],[-1.02344,0],[1.02344,0]],[[706.37375,400.50536],[-0.42968,0.7232],[0.38282,-0.70036]],[[705.35031,400.48252],[0.97656,-0.67752],[-0.88282,0.62422]],[[701.53781,400.58148],[1.02344,0.57094],[-1.76562,-0.9744]]],&quot;closed&quot;:true,&quot;fillColor&quot;:[0,0,0]}]}" fill="#ffffff" stroke="#000000" stroke-width="1.5" stroke-linecap="butt"/><path d="M222.33914,162.16981c-2.93524,-12.23009 -2.81719,-13.48574 0.79707,-10.83907c0.78854,0.55493 3.09461,3.98133 4.56222,7.18293c3.39523,7.40639 6.75664,21.7337 13.10897,21.7337c6.46185,0 9.38872,-14.1855 11.86397,-21.65587c1.40189,-4.26883 3.5782,-7.28346 5.17726,-7.28346c0.45999,0 1.34812,-0.23866 1.34812,-0.08933c0,3.62844 3.94103,23.43669 2.86768,25.67782c-2.05905,4.54624 -9.36405,12.43369 -18.9145,12.71115c-7.20659,0.27747 -20.54187,-10.58592 -23.60849,-11.97335c-4.33707,-1.96366 4.8128,-6.92696 2.79754,-15.46457z" data-paper-data="{&quot;noHover&quot;:false,&quot;origItem&quot;:[&quot;Path&quot;,{&quot;applyMatrix&quot;:true,&quot;segments&quot;:[[[696.79563,400.42922],[0,0],[0.71876,3.04502]],[[699.56125,404.9663],[-1.54686,-0.70036],[1.09374,0.49482]],[[703.65499,405.41544],[-2.5703,0.09896],[3.40626,-0.09896]],[[708.53781,403.39812],[-0.73438,1.62146],[0.38282,-0.79932]],[[709.75657,396.56968],[0,1.29412],[0,-0.05328]],[[709.44407,396.49356],[0.16406,0],[-0.57032,0]],[[707.60813,399.11228],[0.5,-1.52252],[-0.88282,2.66438]],[[703.30345,402.72062],[2.30468,0],[-2.26562,0]],[[698.51439,399.08182],[1.21094,2.64156],[-0.52344,-1.14188]],[[697.06127,396.61536],[0.28124,0.19792],[-1.28906,-0.94396]],[[696.79565,400.42924],[-1.04688,-4.36198],[0,0]]],&quot;closed&quot;:true,&quot;fillColor&quot;:[0,0,0]}]}" fill="#ffffff" stroke="#000000" stroke-width="2.5" stroke-linecap="butt"/><path d="M260.78281,100.08136c0,0 1.52429,0.31807 4.2558,1.11029c2.49492,0.72361 4.44935,1.74403 4.44935,1.74403l0.1951,1.17035c0,0 -7.24963,-3.12997 -15.1158,-2.4706c-6.2896,0.52724 -9.96319,2.8124 -9.96319,2.8124l0.04575,-4.17683c0,0 3.12748,-1.70421 7.86366,-1.85557c4.90428,-0.15672 8.09084,0.59125 8.09084,0.59125z" data-paper-data="{&quot;index&quot;:null}" fill="#000000" stroke="none" stroke-width="1.5" stroke-linecap="butt"/><path d="M240.34496,144.62882c-1.03376,0 -3.5381,-3.26042 -3.7867,-5.3637c-0.22243,-1.88186 1.31512,-3.82799 3.7867,-3.82799c2.47159,0 4.2021,0.49077 4.02999,4.18853c-0.14607,3.13818 -1.55841,5.00317 -4.02999,5.00317z" fill="#ffffff" stroke="#000000" stroke-width="1.15" stroke-linecap="butt"/><path d="M243.94705,114.5351c0,0 0.1026,3.96976 0.00576,7.12662c-0.19174,6.25113 -1.08147,27.7607 -1.08147,27.7607l-2.98167,0.00864c0,0 -0.80294,-4.17274 -1.12322,-9.49979c-0.43353,-7.21063 -0.4495,-16.29321 -0.76344,-19.63229c-0.29758,-3.16513 -0.89593,-5.71453 -0.89593,-5.71453" fill="#ffffff" stroke="#000000" stroke-width="1.3" stroke-linecap="round"/><path d="M214.41248,125.32494c0,0 -4.93211,-3.51705 -6.16417,-8.97502c-1.29636,-5.74284 -1.46118,-9.7328 0.48013,-9.99193c1.94131,-0.25915 2.70321,2.37692 3.73262,8.35569c1.0294,5.97877 1.95143,10.61127 1.95143,10.61127z" data-paper-data="{&quot;index&quot;:null}" fill="#ffffff" stroke="#000000" stroke-width="1" stroke-linecap="butt"/><path d="M214.20985,121.37738c0,0 -3.56385,-2.92338 -4.31816,-8.45061c-0.42079,-3.08327 2.15675,-2.28016 2.15675,-2.28016" fill="none" stroke="#000000" stroke-width="0.25" stroke-linecap="round"/><path d="M217.22328,114.72148c0.07093,-4.89188 4.83834,-8.93609 10.21137,-8.8582c5.37302,0.0779 9.02724,4.2484 8.95632,9.14029c-0.07093,4.89188 -4.12352,8.79439 -9.49655,8.7165c-5.37302,-0.0779 -9.74207,-4.1067 -9.67114,-8.99859z" fill="#ffffff" stroke="#000000" stroke-width="1.4" stroke-linecap="butt"/><path d="M221.66094,114.83942c0.03999,-2.75843 2.30855,-4.96213 5.06696,-4.92214c2.75843,0.03999 4.96213,2.30855 4.92214,5.06696c-0.03999,2.75843 -2.30854,4.96213 -5.06696,4.92214c-2.75843,-0.03999 -4.96213,-2.30855 -4.92214,-5.06696z" fill="#000000" stroke="none" stroke-width="1.5" stroke-linecap="butt"/><path d="M244.27958,114.72221c0.20353,-4.88817 4.45264,-8.85847 9.77048,-8.85847c5.31783,0 9.27453,3.96607 9.27453,8.85847c0,3.10521 -0.3118,14.698 -2.94198,16.36034c-1.51379,0.95675 -4.63388,-7.24433 -6.75766,-7.21846c-5.52997,0.06739 -9.55792,-4.03692 -9.34537,-9.14188z" fill="#ffffff" stroke="#000000" stroke-width="1.4" stroke-linecap="butt"/><path d="M250.76268,113.55417c0,-2.81845 2.2848,-5.10325 5.10325,-5.10325c2.81845,0 5.10325,2.2848 5.10325,5.10325c0,2.81845 0.84918,8.23722 -1.96928,8.23722c-2.81845,0 -8.23722,-5.41877 -8.23722,-8.23722z" fill="#000000" stroke="none" stroke-width="1.5" stroke-linecap="butt"/><path d="M217.15487,114.1893c0,0 0.06357,-9.01512 10.60111,-8.8249c9.47101,0.16586 9.55554,9.40723 9.55554,9.40723z" fill="#ffffff" stroke="#000000" stroke-width="1.15" stroke-linecap="butt"/><path d="M220.68468,104.17764c0,0 3.36963,-1.819 8.03244,-2.28178c5.16698,-0.51283 7.76823,-0.06628 7.76823,-0.06628l0.29508,4.13747c0,0 -3.83554,-0.68065 -8.01795,-0.52113c-5.59346,0.21333 -6.64488,1.43293 -10.89774,1.89119c-3.64408,0.39266 -6.73723,0.15884 -6.73723,0.15884l-0.02589,-1.23155c0,0 3.59517,0.07398 5.23371,-0.06836c1.35239,-0.11749 3.9757,-0.93808 3.9757,-0.93808z" fill="#000000" stroke="none" stroke-width="1.5" stroke-linecap="butt"/><path d="M268.64561,114.71368c1.0294,-5.97877 1.7913,-8.61483 3.73262,-8.35569c1.94131,0.25914 1.77649,4.24909 0.48013,9.99193c-1.23206,5.45797 -6.16417,8.97502 -6.16417,8.97502c0,0 0.92203,-4.6325 1.95143,-10.61127z" data-paper-data="{&quot;index&quot;:null}" fill="#ffffff" stroke="#000000" stroke-width="1" stroke-linecap="butt"/><path d="M269.05818,110.64662c0,0 2.57754,-0.80312 2.15675,2.28016c-0.75431,5.52723 -4.31816,8.45061 -4.31816,8.45061" data-paper-data="{&quot;index&quot;:null}" fill="none" stroke="#000000" stroke-width="0.25" stroke-linecap="round"/><path d="M197.48985,306.61252v-256.35898h86.49765v256.35898z" fill="#000000" stroke="none" stroke-width="0" stroke-linecap="butt"/><path d="M247.00663,112.8098c0.75,0 0.75,0.75 0.75,0.75l-0.46135,1.31903c-1.42099,0.58264 -2.41844,1.46349 -3.86024,2.04246c-0.75317,0.30244 -1.59879,0.59246 -2.47298,0.90281c1.07165,0.00002 2.1433,0.00007 3.21495,0.00007l0.32244,0c0,0 0.75,0 0.75,0.75c0,0.75 -0.75,0.75 -0.75,0.75l-0.32244,0c-2.28501,0.00001 -4.57002,-0.00024 -6.85503,0.0001c-1.92007,0.99481 -3.5181,2.34183 -4.00403,4.44615c0,0 -0.14401,0.57605 -0.68832,0.5749c-0.10951,2.23023 -0.31501,4.45482 -0.54909,6.6783c1.14344,0.09005 2.67362,0.29392 3.51118,0.00439c2.71864,-0.93981 4.43263,-4.30319 7.4779,-5.03452c1.35058,-0.32434 3.28059,-0.021 4.67624,-0.021h0.51436c0,0 0.09998,0 0.22693,0.0365c0.50178,-0.30247 0.99932,-0.611 1.49185,-0.92667l0.38493,-0.24565c0,0 0.63223,-0.40347 1.0357,0.22876c0.40347,0.63223 -0.22876,1.0357 -0.22876,1.0357l-0.38493,0.24565c-6.17502,3.92505 -13.12593,6.77054 -19.35461,10.65066c-0.16096,1.54887 -0.30653,3.09917 -0.41399,4.65244c0.87875,0.9246 1.6868,1.91556 2.50908,2.89165c3.62499,3.28687 8.67268,5.47044 12.45776,7.98085l1.27299,0.44536c0,0 0.70691,0.25055 0.45637,0.95746c-0.25055,0.70691 -0.95746,0.45637 -0.95746,0.45637l-1.43997,-0.51617c-1.5906,-1.04152 -3.34835,-2.02848 -5.12413,-3.05262c3.47432,2.66417 7.22328,4.99263 10.73063,7.5808c3.59801,2.65579 7.16458,4.94778 11.15187,6.98723l0.6712,1.17706c0,0 0.27948,0.69598 -0.41651,0.97546c-0.69598,0.27948 -0.97546,-0.41651 -0.97546,-0.41651l0.0377,-0.40056c-4.05855,-2.0759 -7.69718,-4.41249 -11.35961,-7.11583c-5.19199,-3.83341 -10.89335,-7.10731 -15.49725,-11.7013c-0.81605,-0.81429 -1.56359,-1.69459 -2.30622,-2.58047c-0.47049,-0.44148 -0.91841,-0.90185 -1.33878,-1.38418c-0.03077,0.74068 -0.05039,1.4822 -0.0564,2.22472l0.00002,0.62072c0,0 0,0.75 -0.75,0.75c-0.75,0 -0.75,-0.75 -0.75,-0.75l0.00002,-0.63287c0.01067,-1.31619 0.06411,-2.62925 0.14666,-3.94008c-0.0623,-0.08672 -0.14427,-0.23048 -0.16003,-0.40268c-0.1894,-0.3104 -0.36779,-0.62919 -0.53427,-0.9569c0,0 -0.33541,-0.67082 0.33541,-1.00623c0.21544,-0.10772 0.39629,-0.11165 0.54254,-0.06735c0.05042,-0.58186 0.10493,-1.16339 0.16232,-1.74467c-0.15229,0.0813 -0.64561,0.28671 -0.99349,-0.2351c-0.41603,-0.62404 0.20801,-1.04006 0.20801,-1.04006c0.32552,-0.21674 0.65343,-0.43 0.9835,-0.6401c0.53676,-5.00604 1.1897,-9.99992 1.1897,-15.03252c0,0 0,-0.75 0.75,-0.75c0.75,0 0.75,0.75 0.75,0.75c0,0.09977 -0.00026,0.19953 -0.00076,0.29927c0.5173,-0.84868 1.17832,-1.52312 1.93527,-2.0829c-1.3702,-0.10466 -4.05874,-0.43115 -4.59711,0.52713c-0.55292,0.98418 -0.40553,3.01882 -0.52894,4.1097c-0.60836,5.37794 -1.19603,10.50107 -1.19603,15.95064c0,0 0,0.75 -0.75,0.75c-0.75,0 -0.75,-0.75 -0.75,-0.75c0,-5.5051 0.60043,-10.68536 1.20539,-16.11797c0.13615,-1.22262 0.02878,-3.71422 0.76112,-4.75864c1.30564,-1.86202 4.46772,-1.18312 6.38425,-1.18379c0.722,-0.00025 1.444,-0.00041 2.166,-0.00052c2.24244,-0.94612 4.75919,-1.58035 6.82891,-2.80191c0.85246,-0.50313 1.63465,-1.14238 2.54632,-1.52799l-0.46135,0.06544c0,0 0,-0.75 0.75,-0.75zM243.4221,127.45149c-2.95033,0.70722 -4.6369,4.05966 -7.34029,4.9942c-1.04082,0.3598 -2.85316,0.12994 -4.16075,0.0596c-0.09556,0.87259 -0.19321,1.74517 -0.28888,2.61801c4.68195,-2.79442 9.71131,-5.07946 14.47699,-7.73787c-0.94105,-0.06569 -1.92504,-0.1166 -2.68706,0.06606z" fill="#ff0000" stroke="none" stroke-width="0.5" stroke-linecap="butt"/><path d="M237.58471,160.12861c0.44079,0.6068 -0.16601,1.04759 -0.16601,1.04759l-0.36369,0.26419c-1.1812,0.85625 -2.38397,1.59544 -3.60775,2.2163c0.09433,0.14025 0.18853,0.2805 0.28258,0.42078c1.67259,2.49466 3.79254,4.77089 5.16856,7.43109l0.0831,0.96994c0,0 0,0.3632 -0.25274,0.5841c1.77194,2.6332 3.50809,5.36478 4.44143,8.10364l0.15976,0.47514c0,0 0.23903,0.71089 -0.47186,0.94992c-0.71089,0.23903 -0.94992,-0.47186 -0.94992,-0.47186l-0.15976,-0.47514c-1.4178,-4.28235 -5.02128,-8.61947 -7.40815,-12.48788c-0.85622,-1.3877 -1.74868,-2.77337 -2.65571,-4.16208c-0.00795,0.00443 -0.01238,0.00664 -0.01238,0.00664l-1.36537,0.67186c-5.97612,0.89181 -11.76193,4.08342 -17.72867,4.87158c-1.33056,4.93148 -1.70333,9.89743 -1.80252,15.11102l0.00014,0.61253c0,0 0,0.75 -0.75,0.75c-0.75,0 -0.75,-0.75 -0.75,-0.75l0.00014,-0.64106c0.02774,-1.45776 0.07644,-2.89946 0.16068,-4.32822c-0.32794,1.45207 -0.54565,2.90472 -0.5412,4.34249c0,0 0,0.75 -0.75,0.75c-0.75,0 -0.75,-0.75 -0.75,-0.75c0.01206,-4.38649 1.91491,-8.82159 2.92835,-13.06459c0.14724,-0.61648 0.27762,-1.24068 0.39705,-1.86996c-0.23134,0.00927 -0.463,0.01425 -0.69501,0.01469c0,0 -0.75,0 -0.75,-0.75c0,-0.75 0.75,-0.75 0.75,-0.75c0.32148,0.00065 0.64223,-0.00805 0.96232,-0.02533c0.33213,-1.99635 0.60282,-4.02217 0.99558,-5.99591c-0.26952,-0.27912 -0.51918,-0.61964 -0.74834,-1.04167c0,0 -0.33541,-0.67082 0.33541,-1.00623c0.40332,-0.20166 0.6854,-0.03958 0.84623,0.12175c0.14993,-0.58737 0.31674,-1.16744 0.5056,-1.73792c1.68522,-5.05566 3.59071,-10.4294 4.45784,-15.68749l0.05374,-0.32493c0,0 0.12237,-0.73995 0.86232,-0.61758c0.1188,0.01965 0.21536,0.05521 0.29378,0.10108c-0.15531,-0.30119 -0.30874,-0.60321 -0.46018,-0.9061c0,0 -0.33541,-0.67082 0.33541,-1.00623c0.67082,-0.33541 1.00623,0.33541 1.00623,0.33541c0.49552,0.99104 1.01249,1.97269 1.54746,2.94622c0.28867,-0.43773 0.61745,-0.85966 1.01215,-1.26075c0,0 0.53033,-0.53033 1.06066,0c0.53033,0.53033 0,1.06066 0,1.06066c-0.39918,0.39153 -0.7245,0.81935 -1.00739,1.27059c0.45398,1.11984 0.95318,2.22576 1.48851,3.31982c2.84063,4.64711 5.98507,9.14565 9.03098,13.64125c1.21056,-0.60265 2.4003,-1.33 3.56936,-2.18113l0.36369,-0.26419c0,0 0.6068,-0.44079 1.04759,0.16601zM216.64374,165.0325c-0.88389,-0.26268 -1.69667,-0.41148 -2.43268,-0.61907c-0.35023,1.29454 -0.6681,2.58973 -0.95534,3.8777c-0.07582,0.22796 -0.14937,0.45592 -0.22071,0.6839c3.30528,-0.52381 6.55392,-1.79183 9.82127,-2.90808c-2.02665,-0.06275 -4.09815,-0.40609 -6.21254,-1.03445zM217.07105,163.59466c4.75078,1.41186 9.24895,1.29954 13.49935,-0.29915c-2.95346,-4.49175 -5.96666,-9.03674 -8.31135,-13.80558c-0.40993,-0.67107 -0.81358,-1.34522 -1.20978,-2.02286c-0.25476,0.55491 -0.51216,1.11647 -0.81738,1.6662c-2.39605,4.31566 -4.2453,9.08699 -5.63672,13.90615c0.78045,0.21717 1.65958,0.31265 2.47587,0.55523zM218.92068,148.40478c0.46893,-0.84345 0.83639,-1.68304 1.2368,-2.4924c-0.42262,-0.75165 -0.83513,-1.50794 -1.23593,-2.26942c0.00069,0.0757 -0.00752,0.12535 -0.00752,0.12535l-0.05374,0.32493c-0.48436,2.92088 -1.279,5.87667 -2.1796,8.79549c0.68919,-1.53636 1.4351,-3.03623 2.23999,-4.48396z" fill="#ff0000" stroke="none" stroke-width="0.5" stroke-linecap="butt"/><path d="M269.47473,260.76011c-0.53037,0.53029 -1.06066,-0.00008 -1.06066,-0.00008l-0.02348,-0.02349c-0.62902,-0.62911 -1.24173,-1.26086 -1.84013,-1.89607c0.05044,0.21558 0.0312,0.51068 -0.30911,0.74955c-0.61387,0.43088 -1.04476,-0.18299 -1.04476,-0.18299l-0.87445,-1.25745c-0.80472,-2.2969 -2.99109,-3.76137 -4.5535,-5.61175c-2.87511,-3.40503 -5.26345,-7.04055 -7.79833,-10.69335c-3.25145,2.51697 -7.0014,4.15988 -11.23849,5.28417c-5.50876,1.46171 -11.60585,2.10995 -17.59894,2.38371c-0.104,0.09612 -0.20773,0.19256 -0.31117,0.28931c0.78333,1.24739 1.59962,2.44445 2.44617,3.57518c2.07627,2.78137 4.17678,5.55933 6.52956,8.11812c0.2483,0.27004 3.40356,3.21932 3.40722,3.20832c0.10388,-0.31199 -0.15356,-0.63947 -0.23035,-0.9592v-0.38038c0,0 0,-0.75 0.75,-0.75c0.75,0 0.75,0.75 0.75,0.75v0.38038c-0.07678,0.68027 0.2769,1.58106 -0.23035,2.0408c-1.69243,1.5339 -3.5843,-1.29491 -4.4732,-2.18965c-2.84468,-2.86337 -5.29482,-6.09254 -7.70491,-9.32108c-0.1349,-0.18121 -0.26906,-0.36401 -0.40246,-0.54835c0.25902,0.74918 0.51658,1.49919 0.77377,2.24961c0.54695,2.56487 1.71959,4.4918 2.53133,6.95168l0.06654,0.20286c0,0 0.23375,0.71264 -0.47889,0.9464c-0.71264,0.23375 -0.9464,-0.47889 -0.9464,-0.47889l-0.06654,-0.20286c-0.80477,-2.46979 -2.00495,-4.4316 -2.55165,-7.01888c-0.58064,-1.68396 -1.16175,-3.36603 -1.75655,-5.041c-0.00781,0.00781 -0.01563,0.01561 -0.02344,0.02343c0,0 -0.53033,0.53033 -1.06066,0c-0.53033,-0.53033 0,-1.06066 0,-1.06066c0.17439,-0.17439 0.34971,-0.34774 0.52594,-0.52007c-0.02059,-0.05689 -0.04121,-0.11376 -0.06184,-0.17063c-2.32047,0.06911 -4.61032,0.09064 -6.8285,0.09064c0,0 -0.75,0 -0.75,-0.75c0,-0.75 0.75,-0.75 0.75,-0.75c2.04368,0 4.14937,-0.01782 6.28387,-0.07477c-0.00874,-0.02354 -0.01749,-0.04708 -0.02624,-0.07061c-2.51745,-4.44787 -4.64316,-9.33606 -6.27085,-14.08432c-0.40495,-0.73409 -0.82338,-1.4625 -1.25669,-2.18468c0,0 -0.37444,-0.62407 0.22914,-1.01155c-0.10537,-0.35118 -0.20777,-0.70082 -0.30716,-1.04867c0,0 -0.20604,-0.72114 0.5151,-0.92718c0.72114,-0.20604 0.92718,0.5151 0.92718,0.5151c0.3782,1.32371 0.8011,2.676 1.26614,4.04179c2.49527,4.54074 4.49072,9.29523 6.29291,14.13889c0.11024,0.19335 0.22125,0.3858 0.33301,0.57731c0.24886,-0.00918 0.498,-0.01895 0.74735,-0.02937c5.87023,-5.34274 12.57442,-9.73453 19.14627,-14.17605c1.13117,-0.76337 2.28672,-1.39699 3.48276,-2.03164c-0.04341,-0.07125 -0.08667,-0.14258 -0.12978,-0.21398c-1.16376,-1.92744 -2.17385,-3.94001 -3.20756,-5.93518c-1.11202,-1.30226 -2.26165,-2.55978 -3.45725,-3.75697v0.06971c0,0 0,0.75 -0.75,0.75c-0.75,0 -0.75,-0.75 -0.75,-0.75c0,-5.35007 0,-11.20567 0,-16.96121c-0.82155,-3.70003 -1.56977,-7.40071 -3.09077,-10.89657c-4.34267,-0.43722 -8.69038,-0.85157 -13.08269,-0.85157c0,0 -0.75,0 -0.75,-0.75c0,-0.56242 0.42175,-0.70308 0.63272,-0.73827c0.07037,-0.63853 0.74408,-0.63853 0.74408,-0.63853c2.84297,0 5.87704,0.3075 8.70122,0.00365c5.88917,-0.6336 11.66352,-2.8348 17.46504,-3.99741c2.41743,-0.47849 4.62732,-1.64854 6.94917,-2.46741l1.10893,-0.39091c0,0 0.70734,-0.24935 0.95668,0.45799c0.24935,0.70734 -0.45799,0.95668 -0.45799,0.95668l-1.10893,0.39091c-2.39601,0.84421 -4.65904,2.01809 -7.15312,2.52349c-4.47109,0.896 -8.92218,2.39892 -13.42397,3.34115c0.11312,0.11011 0.16969,0.22324 0.16969,0.22324c0.08942,0.17884 0.17653,0.35826 0.26146,0.53823c4.26057,0.42993 8.51901,0.85288 12.81238,0.89969c0.99819,0.01089 1.99643,0.01829 2.99467,0.02221l1.44066,0.00566c0,0 0.74999,0.00295 0.74705,0.75294c-0.00295,0.74999 -0.75294,0.74705 -0.75294,0.74705l-1.44066,-0.00566c-1.00173,-0.00394 -2.00345,-0.01137 -3.00513,-0.02229c-3.08617,-0.03365 -6.15406,-0.26183 -9.21753,-0.54725c0,3.43952 0,6.87903 0,10.31855c0.34897,1.54945 0.71471,3.09828 1.15695,4.63259c0.8666,3.00658 1.8976,5.36861 1.96558,8.56174c0.52168,1.53832 1.07966,2.70371 1.25092,4.33791l0.01051,0.10667c0,0 0.05998,0.60905 -0.47859,0.78099c0.26388,0.49303 0.52354,0.98868 0.78167,1.48545c3.70047,4.35224 6.99235,9.18715 10.17635,13.94489c0.60127,-0.5927 1.1819,-1.2263 1.74201,-1.90411l0.90255,-0.95854c0,0 0.51431,-0.54588 1.06019,-0.03158c0.54588,0.51431 0.03158,1.06019 0.03158,1.06019l-0.86976,0.92259c-0.64569,0.78089 -1.31822,1.50661 -2.01745,2.18154c0.53321,0.79794 1.06413,1.59227 1.59418,2.38033c4.24555,6.31214 8.40597,11.88091 13.78993,17.26565l0.02348,0.02349c0,0 0.53029,0.53037 -0.00008,1.06066zM238.35471,219.6934c0,0.29759 0,0.59518 0,0.89277l0,0.22612c0.21683,-0.20249 0.43217,-0.23205 0.60974,-0.19751c-0.19821,-0.31014 -0.4012,-0.61742 -0.60974,-0.92138zM240.34713,245.67882c4.07244,-1.0806 7.6555,-2.6474 10.76144,-5.0677c-1.74354,-2.48 -3.53318,-4.95254 -5.16581,-7.50854c-1.17767,0.62916 -2.32213,1.24938 -3.43629,2.00354c-6.00039,4.0553 -12.11887,8.06483 -17.59318,12.81307c5.28377,-0.31256 10.59067,-0.95526 15.43385,-2.24037zM240.00013,218.36503c-0.09483,-2.79846 -0.87149,-4.92227 -1.64542,-7.45256c0,2.18893 0,4.37786 0,6.56679c0.29142,0.05808 0.47679,0.30524 0.47679,0.30524c0.74866,0.99822 1.42511,2.03835 2.05869,3.10386c-0.25232,-0.82882 -0.59174,-1.61547 -0.89007,-2.52332zM231.79799,192.44182c0.4317,0.04183 0.86328,0.08448 1.29479,0.12755c-0.00994,-0.10822 -0.00088,-0.23371 0.05481,-0.35573c-0.44928,0.08303 -0.89912,0.15948 -1.3496,0.22818zM236.85471,194.44733c-0.46536,-0.04566 -0.93066,-0.09211 -1.39597,-0.1389c0.55622,1.38964 1.005,2.80714 1.39597,4.24097c0,-1.39089 0,-2.76135 0,-4.10207z" fill="#ff0000" stroke="none" stroke-width="0.5" stroke-linecap="butt"/><path d="M239.48509,100.90071c0,0 0.75,0 0.75,0.75c0,0.75 -0.75,0.75 -0.75,0.75c-0.37933,0 -0.75746,0.01063 -1.13424,0.03151c-0.0252,0.16178 -0.11131,0.33432 -0.32463,0.46792c0.17078,0.10082 0.32849,0.28703 0.32849,0.63095c0,0.75 -0.75,0.75 -0.75,0.75l-0.29449,-0.07763c-3.56312,1.75423 -7.23655,3.09678 -10.80782,4.87332c-2.71058,1.34839 -4.3351,3.83733 -7.51724,3.97419c-0.12829,0.03307 -0.28213,0.02863 -0.46201,-0.04745c-0.12988,-0.04562 -0.27648,-0.13074 -0.37141,-0.28956c-0.10185,-0.15447 -0.11488,-0.32349 -0.09959,-0.46029c0.00901,-0.18375 0.06524,-0.31909 0.14319,-0.41878c0.03313,-0.06938 0.06591,-0.13894 0.09832,-0.20869c-0.05053,-0.04759 -0.09727,-0.1072 -0.1376,-0.1815c-0.24055,0.5129 -0.48551,1.02412 -0.73556,1.53341c0.25,0.22112 0.25,0.58169 0.25,0.58169c0,4.51407 -1.54573,8.65541 -1.87532,13.12184l-0.00711,0.09615c0,0 -0.0553,0.74796 -0.80326,0.69266c-0.74796,-0.0553 -0.69266,-0.80326 -0.69266,-0.80326l0.00711,-0.09615c0.26892,-3.63039 1.35428,-7.04937 1.73691,-10.6251c-0.74303,1.59741 -1.60102,3.09588 -3.16783,3.92584c0,0 -0.67082,0.33541 -1.00623,-0.33541c-0.33541,-0.67082 0.33541,-1.00623 0.33541,-1.00623c1.92599,-0.88471 2.66587,-3.78676 3.60146,-5.65795c1.94374,-3.88748 3.5719,-7.89464 5.1967,-11.91037c1.21428,-5.86021 2.69634,-11.38937 2.69634,-17.48815c0,0 0,-0.75 0.75,-0.75c0.75,0 0.75,0.75 0.75,0.75c0,3.33267 -0.43346,6.49508 -1.02454,9.63232c0.56512,-1.65864 0.96482,-3.31031 1.35514,-5.09775l0.82456,-1.22111c0,0 0.26298,-0.35393 0.65703,-0.3174c-0.40405,-0.40405 -0.8081,-0.8081 -1.21215,-1.21215c0,0 -0.53033,-0.53033 0,-1.06066c0.53033,-0.53033 1.06066,0 1.06066,0c2.82843,2.82843 5.65685,5.65685 8.48528,8.48528c1.39165,1.39165 2.36625,3.08 4.02812,4.04279l0.78464,1.44625c0,0 0.3455,0.66568 -0.32019,1.01118c-0.66568,0.3455 -1.01118,-0.32019 -1.01118,-0.32019l-0.53694,-1.10009c-1.66243,-0.95202 -2.62248,-2.63663 -4.00511,-4.01927c-1.69847,-1.69847 -3.39695,-3.39695 -5.09542,-5.09542c2.50221,4.28825 6.14588,7.95832 8.57814,12.32141c0.57212,-0.04503 1.14731,-0.06815 1.72502,-0.06815zM220.29139,111.26065l-0.24202,0.09729c-0.00667,0.01603 -0.01335,0.03206 -0.02006,0.04807c2.17045,-0.57619 3.76085,-2.65537 5.805,-3.67224c3.56974,-1.77578 7.25458,-3.10988 10.8113,-4.87504l0.44448,-0.03598c-0.10414,-0.1057 -0.1562,-0.20983 -0.1562,-0.20983c-0.00844,-0.01692 -0.01689,-0.03383 -0.02537,-0.05073c-6.25633,0.7797 -12.06757,4.29811 -16.61714,8.69846zM219.2673,109.17499c0.31187,-0.54305 0.52894,-1.13872 0.68908,-1.7638c-0.41556,0.9722 -0.84027,1.94072 -1.27861,2.90397l0.19348,-0.04498c0.14081,-0.36195 0.27275,-0.7273 0.39605,-1.09519zM226.9881,88.32825c-0.55971,2.56312 -1.14811,4.87255 -2.17506,7.29088c-0.81599,1.9214 -1.59752,3.85325 -2.37884,5.78346c-0.08068,0.39454 -0.16007,0.79062 -0.23768,1.18853c-0.37181,1.90638 -0.40702,3.97043 -0.98593,5.8141c4.29241,-3.63675 9.44371,-6.42205 14.93521,-7.25085c-2.64684,-4.55813 -6.53619,-8.39505 -8.9669,-13.04519z" fill="#ff0000" stroke="none" stroke-width="0.5" stroke-linecap="butt"/></g></g></svg>