<svg version="1.1" xmlns="http://www.w3.org/2000/svg" xmlns:xlink="http://www.w3.org/1999/xlink" width="112.13467" height="280.65195" viewBox="0,0,112.13467,280.65195"><g transform="translate(-183.79001,-51.25332)"><g data-paper-data="{&quot;isPaintingLayer&quot;:true}" fill-rule="nonzero" stroke-linejoin="miter" stroke-miterlimit="10" stroke-dasharray="" stroke-dashoffset="0" style="mix-blend-mode: normal"><path d="M200.75203,186.37969c-0.05451,-8.15261 8.18688,-36.76129 40.20201,-36.9211c31.60235,-0.15775 39.85672,29.48704 39.84884,36.89673c-0.00373,2.25092 14.36885,102.2299 14.11857,119.39687c-0.60106,41.22691 -16.41072,19.60738 -18.41755,18.55939c-1.02297,-0.53421 -0.9913,-35.76742 -2.18176,-70.06317c-1.13696,-32.75433 -3.52046,-64.65358 -3.52046,-64.65358c0,0 0.07549,-3.0993 -2.81625,-3.15415c-3.43441,-0.06514 -2.94538,3.11562 -2.94538,3.11562l0.20548,114.86995l-48.21366,0.07222l-0.30539,-115.23309c0,0 0.27949,-2.919 -2.8856,-2.93443c-3.11083,-0.01515 -2.81569,2.90899 -2.81569,2.90899c0,0 -0.61681,39.35193 -1.31447,75.00886c-0.36674,18.74412 0.32967,35.01984 -1.26871,47.15498c-0.76459,5.80487 -7.04215,7.75529 -7.04215,7.75529c0,0 -3.32686,-7.49326 -4.61199,-2.64074c-0.63184,2.38577 -2.42306,1.55566 -2.42306,1.55566c0,0 -9.31458,0.73769 -9.5144,0.58025c-1.20222,-0.94725 15.94183,-126.25879 15.90161,-132.27454z" fill="#447a72" stroke="#000000" stroke-width="2" stroke-linecap="butt"/><path d="M286.73032,99.28269c0,0 -1.12899,0.14254 -2.37738,0.06785c-1.96948,-0.11781 -3.33637,-0.76856 -3.33637,-0.76856c0,0 0.20211,5.44479 2.18701,10.94022c2.10229,5.82043 7.11721,10.81789 7.11721,10.81789c0,0 -1.81243,0.03992 -4.03419,-0.49879c-2.12938,-0.51629 -4.24553,-1.58415 -4.24553,-1.58415c0,0 0.89883,1.54171 2.67342,3.35602c1.99231,2.0369 5.62181,4.72522 5.62181,4.72522c0,0 -2.70779,0.77308 -6.94918,-0.28987c-3.38483,-0.84828 -5.73898,-2.72874 -5.73898,-2.72874c0,0 -0.47734,4.60152 -3.14176,12.26867c-2.23547,6.43281 -6.10387,9.75651 -6.10387,9.75651l-0.13736,-2.65383c0,0 -9.68188,10.49725 -25.98558,10.8827c-17.28884,0.28424 -24.43656,-10.67707 -24.43656,-10.67707l-0.06252,3.70483c0,0 -2.31543,-1.75954 -3.46184,-2.88522c-1.1464,-1.1257 -2.18655,-3.31542 -2.18655,-3.31542l-1.13647,2.35648c0,0 -5.79708,-7.69848 -7.43491,-17.1667c-1.86262,-10.33236 1.1459,-20.70477 1.1459,-20.70477c0,0 -2.5601,2.1586 -3.77623,3.17606c-1.3039,1.09089 -4.05458,3.16639 -4.05458,3.16639c0,0 2.64282,-8.04064 6.01773,-17.44869c2.46137,-6.86142 -3.44898,-43.07779 41.19322,-42.52004c36.14553,1.11253 35.9434,39.01789 36.29803,41.28576c0.13521,0.86469 6.34553,6.73724 6.34553,6.73724z" data-paper-data="{&quot;index&quot;:null}" fill="#000000" stroke="none" stroke-width="1.5" stroke-linecap="butt"/><path d="M215.11624,115.17574c-0.63521,-7.2884 0.19823,-17.15661 0.19823,-17.15661c0,0 3.41015,-0.06843 13.88878,-3.25507c8.05034,-2.4482 20.47103,-9.65072 20.47103,-9.65072c0,0 -2.13602,3.02216 -3.37215,4.48717c-1.31414,1.55748 -3.95642,4.59466 -3.95642,4.59466c0,0 7.82446,-1.73004 14.6366,-4.84615c8.53991,-3.60395 10.54392,-6.13734 12.9134,-4.6958c2.79655,1.70138 1.21484,23.17375 0.94756,28.73398c-0.37642,5.6724 -2.45745,9.51958 -3.0504,12.54525c-0.59293,3.02566 -0.36067,6.13969 -2.07828,16.05678c-1.0719,6.18895 -4.09055,8.95755 -9.90223,14.74022c-5.81167,5.78267 -8.97973,9.32463 -12.93887,9.42518c-3.81012,0.09677 -8.97602,-5.0288 -14.01775,-10.27101c-5.3686,-5.58212 -8.94219,-8.40611 -9.8359,-15.06182c-0.80488,-5.99417 -0.8555,-9.90202 -1.24419,-15.23892c-0.28409,-3.90059 -2.3125,-6.42681 -2.65941,-10.40714z" fill="#447a72" stroke="#000000" stroke-width="1.5" stroke-linecap="butt"/><path d="M271.42346,110.17161c0,0 2.57106,-0.82364 2.17486,2.2629c-0.71022,5.53307 -4.25066,8.48477 -4.25066,8.48477" data-paper-data="{&quot;index&quot;:null}" fill="none" stroke="#000000" stroke-width="0.25" stroke-linecap="round"/><path d="M244.33678,115.90277c0.06749,8.46535 -5.77254,15.37487 -13.04405,15.43284c-7.27152,0.05797 -13.22097,-6.75756 -13.28845,-15.22291c-0.06749,-8.46535 5.77254,-15.37487 13.04405,-15.43284c7.27152,-0.05797 13.22097,6.75756 13.28845,15.22291z" fill="#000000" stroke="#000000" stroke-width="1.15" stroke-linecap="butt"/><path d="M255.59008,147.62995c0.04613,5.78644 -3.94579,10.5094 -8.91619,10.54902c-4.9704,0.03962 -9.03711,-4.61909 -9.08324,-10.40553c-0.04613,-5.78644 3.94579,-10.5094 8.91619,-10.54902c4.9704,-0.03962 9.03711,4.61909 9.08324,10.40553z" fill="#000000" stroke="#000000" stroke-width="1.15" stroke-linecap="butt"/><path d="M264.72646,122.88968c0.04613,5.78644 -3.94579,10.5094 -8.91619,10.54902c-4.9704,0.03962 -9.03711,-4.61908 -9.08324,-10.40553c-0.04613,-5.78644 3.94578,-10.50941 8.91619,-10.54903c4.97041,-0.03963 9.03711,4.61909 9.08324,10.40554z" fill="#000000" stroke="#000000" stroke-width="1.15" stroke-linecap="butt"/><path d="M233.2128,142.20618c0.02734,3.429 -2.33824,6.22779 -5.28366,6.25127c-2.94543,0.02348 -5.35533,-2.73723 -5.38267,-6.16623c-0.02734,-3.429 2.33825,-6.2278 5.28368,-6.25128c2.94543,-0.02348 5.35532,2.73724 5.38266,6.16625z" fill="#000000" stroke="#000000" stroke-width="1.15" stroke-linecap="butt"/><path d="M258.56508,102.66952c0.02734,3.429 -2.33825,6.2278 -5.28367,6.25128c-2.94543,0.02348 -5.35533,-2.73723 -5.38267,-6.16624c-0.02734,-3.429 2.33825,-6.2278 5.28368,-6.25128c2.94543,-0.02348 5.35532,2.73724 5.38266,6.16625z" fill="#000000" stroke="#000000" stroke-width="1.15" stroke-linecap="butt"/><path d="M238.34545,208.41176c0,5.56613 -3.8759,10.07835 -8.65705,10.07835c-4.78116,0 -8.65706,-4.51223 -8.65706,-10.07835c0,-5.56612 3.8759,-10.07836 8.65706,-10.07836c4.78116,0 8.65705,4.51224 8.65705,10.07836z" fill="#000000" stroke="#000000" stroke-width="1.15" stroke-linecap="butt"/><path d="M258.84545,217.74011c0,4.09062 -2.84845,7.40672 -6.36218,7.40672c-3.51373,0 -6.36218,-3.3161 -6.36218,-7.40672c0,-4.09062 2.84845,-7.40672 6.36218,-7.40672c3.51373,0 6.36218,3.3161 6.36218,7.40672z" fill="#000000" stroke="#000000" stroke-width="1.15" stroke-linecap="butt"/><path d="M261.44802,189.72766c0,6.75312 -4.70245,12.22761 -10.50321,12.22761c-5.80076,0 -10.5032,-5.47449 -10.5032,-12.22761c0,-6.75312 4.70245,-12.22761 10.5032,-12.22761c5.80075,0 10.50321,5.47449 10.50321,12.22761z" fill="#000000" stroke="#000000" stroke-width="1.15" stroke-linecap="butt"/><path d="M249.34545,243.13562c0,9.55577 -6.65403,17.30223 -14.86218,17.30223c-8.20816,0 -14.86218,-7.74647 -14.86218,-17.30223c0,-9.55577 6.65403,-17.30224 14.86218,-17.30224c8.20816,0 14.86218,7.74647 14.86218,17.30224z" fill="#000000" stroke="#000000" stroke-width="1.15" stroke-linecap="butt"/><path d="M240.46082,287.67292c0,6.53881 -4.55322,11.83955 -10.16988,11.83955c-5.61666,0 -10.16987,-5.30074 -10.16987,-11.83955c0,-6.53881 4.55321,-11.83955 10.16987,-11.83955c5.61666,0 10.16988,5.30074 10.16988,11.83955z" fill="#000000" stroke="#000000" stroke-width="1.15" stroke-linecap="butt"/><path d="M260.44801,275.17292c0,4.60581 -3.2072,8.33955 -7.16346,8.33955c-3.95627,0 -7.16346,-3.73374 -7.16346,-8.33955c0,-4.60581 3.2072,-8.33955 7.16346,-8.33955c3.95626,0 7.16346,3.73374 7.16346,8.33955z" fill="#000000" stroke="#000000" stroke-width="1.15" stroke-linecap="butt"/><path d="M261.84545,246.20277c0,2.96544 -2.06495,5.36941 -4.61219,5.36941c-2.54724,0 -4.61218,-2.40396 -4.61218,-5.3694c0,-2.96544 2.06494,-5.3694 4.61218,-5.3694c2.54724,0 4.61219,2.40396 4.61219,5.36941z" fill="#000000" stroke="#000000" stroke-width="1.15" stroke-linecap="butt"/><path d="M235.35827,183.20277c0,4.89844 -3.41097,8.86941 -7.61859,8.86941c-4.20763,0 -7.61859,-3.97097 -7.61859,-8.8694c0,-4.89844 3.41096,-8.8694 7.61859,-8.8694c4.20763,0 7.61859,3.97097 7.61859,8.86941z" fill="#000000" stroke="#000000" stroke-width="1.15" stroke-linecap="butt"/><path d="M263.94802,169.45153c0,2.73463 -1.90423,4.95149 -4.25321,4.95149c-2.34898,0 -4.2532,-2.21686 -4.2532,-4.95149c0,-2.73463 1.90422,-4.95149 4.2532,-4.95149c2.34898,0 4.25321,2.21686 4.25321,4.95149z" fill="#000000" stroke="#000000" stroke-width="1.15" stroke-linecap="butt"/><path d="M242.51212,170.45153c0,1.63006 -1.13508,2.95149 -2.53526,2.95149c-1.40018,0 -2.53526,-1.32144 -2.53526,-2.95149c0,-1.63006 1.13507,-2.95149 2.53526,-2.95149c1.40018,0 2.53526,1.32143 2.53526,2.95149z" fill="#000000" stroke="#000000" stroke-width="1.15" stroke-linecap="butt"/><path d="M225.94802,164.95153c0,2.73463 -1.90422,4.95149 -4.25321,4.95149c-2.34898,0 -4.2532,-2.21686 -4.2532,-4.95149c0,-2.73463 1.90422,-4.95149 4.2532,-4.95149c2.34898,0 4.25321,2.21686 4.25321,4.95149z" fill="#000000" stroke="#000000" stroke-width="1.15" stroke-linecap="butt"/></g></g></svg>