<svg version="1.1" xmlns="http://www.w3.org/2000/svg" xmlns:xlink="http://www.w3.org/1999/xlink" width="118.17191" height="264.98695" viewBox="0,0,118.17191,264.98695"><defs><linearGradient x1="248.31689" y1="119.57253" x2="241.07424" y2="186.43139" gradientUnits="userSpaceOnUse" id="color-1"><stop offset="0" stop-color="#000000"/><stop offset="1" stop-color="#000000" stop-opacity="0"/></linearGradient></defs><g transform="translate(-183.12576,-52.4943)"><g data-paper-data="{&quot;isPaintingLayer&quot;:true}" fill-rule="nonzero" stroke-linejoin="miter" stroke-miterlimit="10" stroke-dasharray="" stroke-dashoffset="0" style="mix-blend-mode: normal"><path d="M202.11312,317.48125v-45.5h85v45.5z" fill="#202020" stroke="none" stroke-width="0" stroke-linecap="butt"/><path d="M201.69643,287.73125v-16h85.25v16z" fill="#505050" stroke="none" stroke-width="0" stroke-linecap="butt"/><path d="M301.29767,62.3413l-27.27167,251.75218l-90.90024,-9.84699l27.27167,-251.75218z" data-paper-data="{&quot;index&quot;:null}" fill-opacity="0.01" fill="#000000" stroke="none" stroke-width="0" stroke-linecap="butt"/><path d="M222.69771,167.98101l-7.7125,-14.5821c0,0 22.4075,-3.26572 31.1674,-2.52663c6.64126,0.56034 27.96641,10.22569 27.96641,10.22569l-9.09749,11.46787z" fill="#101d1b" stroke="none" stroke-width="0" stroke-linecap="butt"/><path d="M214.63386,156.30654l-3.74507,-5.09967c0,0 21.94581,-4.01347 32.34298,-2.80791c11.48674,1.33189 33.63504,10.45806 33.63504,10.45806l-2.69537,5.07256c0,0 -6.18248,-3.09593 -13.34944,-6.07409c-5.93066,-2.46442 -12.53545,-4.84819 -16.86899,-5.33031c-9.53796,-1.06111 -29.31916,3.78135 -29.31916,3.78135z" fill="#325954" stroke="none" stroke-width="0" stroke-linecap="butt"/><path d="" fill="#60ab9f" stroke="none" stroke-width="1.5" stroke-linecap="butt"/><path d="M279.44925,107.00521c0.0004,0.00488 0.0008,0.00975 0.00121,0.01464c-0.0294,-0.00135 -0.05881,-0.00266 -0.08823,-0.00393c0.02901,-0.00354 0.05801,-0.00711 0.08703,-0.01071z" fill="#60ab9f" stroke="none" stroke-width="1.5" stroke-linecap="butt"/><path d="M214.49012,166.36065l0.31424,-2.03324c0.40107,0.26426 0.80713,0.51906 1.21788,0.76457z" fill="#60ab9f" stroke="none" stroke-width="1.5" stroke-linecap="butt"/><path d="M279.44926,107.0052c0.0004,0.00488 0.0008,0.00975 0.00121,0.01464c-0.0294,-0.00135 -0.05881,-0.00266 -0.08823,-0.00393c0.02901,-0.00354 0.05801,-0.00711 0.08703,-0.01071z" fill="#60ab9f" stroke="none" stroke-width="1.5" stroke-linecap="butt"/><path d="M195.77099,270.11877c0,0 4.79032,-0.35769 5.41583,-6.5189c2.10761,-20.75989 3.75999,-66.81939 5.20189,-81.01579c0.64516,-6.35204 12.59179,-28.85067 37.53153,-26.27489c24.61819,2.54256 30.40455,30.04148 29.77347,35.80984c-2.93205,26.65415 -8.5586,60.50931 -10.3163,78.21985c-0.61612,6.20799 4.7187,6.0666 4.7187,6.0666l-1.04106,5.24367c0,0 -7.56795,0.33258 -11.11871,-2.44293c-2.04416,-1.59785 -1.04537,-6.05785 -0.89005,-7.51033c1.37443,-12.85377 9.9164,-80.98841 9.9164,-80.98841c0,0 -0.12308,-2.95762 -2.36989,-3.24421c-2.66846,-0.34039 -3.30162,2.09656 -3.30162,2.09656c0,0 -0.33438,7.8344 -0.94795,13.59469c-0.49419,4.63954 -2.58884,14.38052 -3.78688,24.98074c-2.57187,22.75604 -4.79348,50.87709 -4.79348,50.87709c0,0 1.50279,16.90161 0.09856,17.08027c-0.2763,0.03516 -0.01134,14.96623 -0.01134,14.96623c0,0 -10.7724,1.11366 -12.04653,-2.20257c-0.58025,-1.51026 2.37339,-10.64542 3.5057,-18.27251c0.83197,-5.60402 -0.11988,-10.48063 -0.11988,-10.48063c0,0 -5.76126,-7.08742 -10.40848,-7.64313c-4.64722,-0.55572 -10.43617,5.15051 -10.43617,5.15051c0,0 -3.00125,3.69097 -4.16835,8.73223c-1.48718,6.42385 -1.36841,16.99787 -3.21653,19.33841c-1.81825,2.30269 -8.57253,0.9643 -9.02317,0.81964c-1.42271,-0.45667 8.28203,-31.49862 8.28203,-31.49862c0,0 3.36782,-27.95245 5.56167,-50.84079c1.08203,-11.28875 1.31422,-21.40674 1.82187,-26.21186c0.59734,-5.65416 2.0976,-12.69104 2.0976,-12.69104c0,0 -0.53038,-2.35679 -2.99336,-2.63576c-2.42074,-0.27417 -3.48561,2.41679 -3.48561,2.41679c0,0 -5.18815,68.43256 -6.55077,81.38226c-0.11998,1.14023 -0.13565,5.82189 -1.69623,6.72813c-3.97081,2.30589 -11.84352,0.10155 -11.84352,0.10155z" fill="#ffffff" stroke="#000000" stroke-width="2" stroke-linecap="butt"/><path d="M209.31117,280.02438l2.7339,-17.80915l39.56851,4.28636c0,0 -0.49614,9.2366 -0.8213,12.581c-0.21687,2.23068 -0.93996,5.53468 -0.93996,5.53468c0,0 -4.4458,-2.30778 -9.48309,-4.38803c-3.65009,-1.50738 -6.93306,-5.4371 -9.73784,-5.74093c-2.38642,-0.25851 -6.47493,2.6167 -9.8384,3.14278c-0.86567,0.1354 -1.7282,0.28357 -2.56932,0.43769c-4.8057,0.88057 -8.91251,1.95559 -8.91251,1.95559z" fill="#73cec0" stroke="none" stroke-width="0" stroke-linecap="butt"/><path d="M208.29544,280.11555l1.0273,-3.91212l12.72555,1.37853l-1.82265,3.82596z" fill="#437870" stroke="none" stroke-width="0" stroke-linecap="butt"/><path d="M239.33551,283.27684l-0.34302,-4.26173l12.1075,1.51274l0.36456,4.06289z" fill="#437870" stroke="none" stroke-width="0" stroke-linecap="butt"/><path d="M210.5273,272.51167l1.12005,-10.33951l39.96619,4.32944l-1.12005,10.33951c0,0 -12.73291,-7.01209 -19.67824,-7.76446c-6.31708,-0.68431 -20.28794,3.43502 -20.28794,3.43502z" fill="#7ee1d2" stroke="none" stroke-width="0" stroke-linecap="butt"/><path d="M224.98277,276.49166l1.5989,-12.90285l1.78953,0.19386l-1.33545,12.32788z" fill="#25423e" stroke="none" stroke-width="0" stroke-linecap="butt"/><path d="M233.85625,276.28874l1.2785,-11.80217l1.78953,0.19386l-1.18277,12.77549z" data-paper-data="{&quot;index&quot;:null}" fill="#25423e" stroke="none" stroke-width="0" stroke-linecap="butt"/><path d="M225.75204,269.39034l0.76631,-5.88024l1.78953,0.19386l-0.51055,5.37628z" fill="#2f534e" stroke="none" stroke-width="0" stroke-linecap="butt"/><path d="M234.53194,270.05125l0.60281,-5.56467l1.78953,0.19386l-0.44427,5.95824c0,0 -0.61616,-0.31874 -0.92069,-0.41057c-0.34075,-0.10275 -1.02738,-0.17684 -1.02738,-0.17684z" data-paper-data="{&quot;index&quot;:null}" fill="#2f534e" stroke="none" stroke-width="0" stroke-linecap="butt"/><path d="M272.73784,197.77693c0,0 1.18396,5.63934 0.68322,10.13304c-0.9363,8.40237 -4.13489,37.10685 -5.51501,49.49222c-0.39614,3.555 -2.49662,6.16817 -2.49662,6.16817c0,0 -0.08391,-2.92568 -1.46763,-5.74235c-1.52967,-3.11375 -3.83158,-7.36337 -6.54331,-11.76649l5.34445,-49.3361z" fill="#4a4a4a" stroke="none" stroke-width="0" stroke-linecap="butt"/><path d="M200.67487,255.75314c0,0 -1.16378,-2.78483 -0.80391,-6.94102c1.16076,-13.40577 3.69273,-42.64762 4.36507,-50.41256c0.32041,-3.70047 4.05722,-7.40258 4.05722,-7.40258l9.19927,0.96782c-0.77183,7.12498 -2.14984,19.84578 -2.92167,26.97076c-0.86518,7.98668 -1.73035,15.97335 -2.59553,23.96003c-6.42794,6.7527 -11.30045,12.85755 -11.30045,12.85755z" fill="#4a4a4a" stroke="none" stroke-width="0" stroke-linecap="butt"/><path d="M273.85101,195.35301c2.28394,1.65405 0.09977,9.79746 0.09977,9.79746l-0.9262,8.54998c0,0 -4.77669,-2.84132 -11.0618,-6.05901c0.64297,-5.9354 1.29845,-11.98631 1.59043,-14.68167c0.07623,-0.70367 0.14809,-1.36709 0.21416,-1.97694c4.14221,1.236 7.77038,2.69489 10.08365,4.37018z" fill="#2d2d2d" stroke="none" stroke-width="0" stroke-linecap="butt"/><path d="M203.43179,206.16163l0.9262,-8.54998c0,0 1.08516,-10.75876 2.74132,-11.5633c2.53165,-1.22984 6.62565,-1.60949 11.20287,-1.55768c-0.60563,5.59075 -1.26025,11.6337 -1.89462,17.48973c-7.22658,2.01816 -12.97578,4.18123 -12.97578,4.18123z" fill="#2d2d2d" stroke="none" stroke-width="0" stroke-linecap="butt"/><path d="M247.00233,200.05472c-3.44867,-0.62124 -4.95028,-1.94935 -4.5861,-2.52919c0.11221,-0.17866 2.12647,1.06813 5.31693,1.60378c4.95826,0.83245 6.67924,0.22592 6.67924,0.22592l-0.11354,1.0481c0,0 -1.96738,0.61139 -7.29654,-0.3486z" fill="#000000" stroke="#000000" stroke-width="0" stroke-linecap="butt"/><path d="M230.24827,198.23979c-5.41111,-0.20347 -7.20192,-1.22199 -7.20192,-1.22199l0.11354,-1.04809c0,0 1.55118,0.96099 6.57268,1.20962c3.23115,0.15998 5.46569,-0.62653 5.53704,-0.42799c0.23157,0.64438 -1.51962,1.62011 -5.02133,1.48844z" fill="#000000" stroke="#000000" stroke-width="0" stroke-linecap="butt"/><path d="M234.26134,243.22116c-0.63762,-0.06907 -1.09851,-0.64195 -1.02944,-1.27957c0.06907,-0.63762 0.64195,-1.09851 1.27957,-1.02944c0.63762,0.06907 1.09851,0.64195 1.02944,1.27957c-0.06907,0.63762 -0.64195,1.09851 -1.27957,1.02944z" data-paper-data="{&quot;index&quot;:null}" fill="#000000" stroke="none" stroke-width="1.5" stroke-linecap="butt"/><path d="M212.16408,264.33556l8.72349,-80.52888l39.43595,4.272l-8.72349,80.52888z" fill="#000000" stroke="none" stroke-width="0" stroke-linecap="butt"/><path d="M275.06362,200.57216l-0.59234,5.46801c0,0 -6.87525,-5.2132 -15.07813,-10.1479l3.18073,-29.36218c17.22563,11.28476 12.48973,34.04207 12.48973,34.04207z" fill="#000000" stroke="none" stroke-width="0" stroke-linecap="butt"/><path d="M202.89016,198.28597l0.59234,-5.46801c0,0 -2.0069,-23.33479 19.81168,-30.45374c-0.11644,1.07492 -0.23288,2.14982 -0.34933,3.22474c-0.9204,8.49649 -1.84081,16.99299 -2.76121,25.48948c-9.16224,3.19068 -17.29348,7.20754 -17.29348,7.20754z" fill="#000000" stroke="none" stroke-width="0" stroke-linecap="butt"/><path d="M251.45479,197.20061c-0.44467,-0.04817 -0.76608,-0.4477 -0.71791,-0.89236c0.04817,-0.44467 0.44769,-0.7661 0.89235,-0.71793c0.44467,0.04817 0.76609,0.4477 0.71792,0.89237c-0.04817,0.44467 -0.44769,0.76609 -0.89236,0.71792z" fill="#000000" stroke="none" stroke-width="1.5" stroke-linecap="butt"/><path d="M219.24663,194.69327l-8.81248,-44.2062c0,0 24.67582,22.95771 31.14455,23.65845c0.8064,0.08736 1.91659,-0.06615 3.24754,-0.40481c9.93465,-2.52794 32.16901,-15.37268 32.16901,-15.37268l-17.80783,40.65193z" fill="#447a72" stroke="none" stroke-width="0" stroke-linecap="butt"/><path d="M239.09005,197.0584c0,0 3.11961,-2.6921 12.26916,-12.60912c9.77011,-10.58963 -1.31649,-10.60554 -6.68487,-10.20455c-1.53541,0.11469 -2.55694,-0.04461 -2.55694,-0.04461c0,0 0.78558,-0.0173 1.60039,-0.17808c1.07337,-0.21181 2.40936,-0.56234 3.63328,-1.11126c5.6563,-2.53677 29.63371,-14.28046 29.63371,-14.28046l-17.50448,40.49319z" fill="#63b3a7" stroke="none" stroke-width="0" stroke-linecap="butt"/><path d="M219.25004,194.87325l-8.72453,-43.87336c0,0 13.89436,29.23488 13.97203,39.52745c1.30952,4.34876 14.32776,6.3219 14.32776,6.3219z" fill="#2a4d47" stroke="none" stroke-width="0" stroke-linecap="butt"/><path d="M212.02733,264.23598l2.28318,-21.07669c0,0 11.64416,10.37067 18.41372,11.104c7.37673,0.7991 21.35363,-6.79611 21.35363,-6.79611l-2.28318,21.07669z" fill="#1b1b1b" stroke="none" stroke-width="0" stroke-linecap="butt"/><path d="M230.50543,266.36569l7.5956,-70.11707l3.18139,0.34463l-7.5956,70.11707z" fill="#223d39" stroke="none" stroke-width="0" stroke-linecap="butt"/><path d="M230.56359,266.33542l1.33153,-12.29172l2.89217,0.3133l-1.33153,12.29172z" fill="#3f7169" stroke="none" stroke-width="0" stroke-linecap="butt"/><path d="M265.41937,267.19248l-0.40427,5.58897c0,0 -5.3493,-0.98182 -10.09759,-1.49619c-0.52998,-0.05741 -1.13605,-0.12408 -1.80983,-0.19891c0.22851,-1.47538 0.55696,-2.92514 0.80068,-4.3961c6.47436,0.31995 11.51102,0.50223 11.51102,0.50223z" fill="#000000" stroke="none" stroke-width="0" stroke-linecap="butt"/><path d="M198.40488,265.56574l0.60311,-5.56743c0,0 5.04379,0.91594 11.5154,2.00192c-0.10527,1.46293 -0.07068,2.89886 -0.13594,4.35939c-0.3374,-0.03415 -0.67,-0.0676 -0.99748,-0.10032c-6.47531,-0.64703 -10.9851,-0.69356 -10.9851,-0.69356z" fill="#000000" stroke="none" stroke-width="0" stroke-linecap="butt"/><path d="M249.80506,196.225l2.49705,-5.11663l-4.03034,-0.00998l3.7202,-1.88566l3.02191,-3.71518l1.78536,4.17376l3.05529,2.35545l-3.66734,-0.39371l1.21642,5.54562l-3.37673,-3.17241z" fill="#2a4d47" stroke="#000000" stroke-width="1" stroke-linecap="butt"/><g fill="#2d2d2d" stroke="none" stroke-width="0" stroke-linecap="butt"><path d="M271.85037,224.8527l-0.8885,8.20202l-12.23386,-6.11532c0.37477,-2.12451 0.48182,-4.35891 0.74269,-6.19384c0.06312,-0.44394 0.14085,-0.8782 0.22108,-1.30658z"/><path d=""/><path d="M201.12047,225.48898l0.8885,-8.20202l13.54371,-2.75989c-0.12134,1.41989 -0.13683,3.2323 -0.1208,4.84616c-0.30502,0.85774 -0.41949,1.74285 -0.42245,2.6371z"/></g><g fill="#242424" stroke="none" stroke-width="0" stroke-linecap="butt"><path d="M270.42438,238.01636l-0.72796,6.72002l-12.32653,-5.25986c0.33289,-1.73785 0.39648,-3.57113 0.62131,-5.0733c0.0544,-0.36344 0.12356,-0.71863 0.19534,-1.06896z"/><path d=""/><path d="M199.85502,237.17064l0.72796,-6.72002l13.46193,-2.00498c-0.09362,1.16396 -0.07401,2.65239 -0.02679,3.97833c-0.28779,0.69865 -0.38489,1.42348 -0.37054,2.15796z"/></g><path d="M228.77168,157.56353l3.2226,-0.53102c0,0 3.75568,-1.30947 12.83176,-0.36518c8.48989,0.88331 10.95201,3.59542 10.95201,3.59542l2.25473,1.09922c0,0 -2.16608,6.98362 -15.80661,5.89446c-12.46106,-0.99498 -13.45449,-9.6929 -13.45449,-9.6929z" fill="url(#color-1)" stroke="none" stroke-width="0" stroke-linecap="butt"/><path d="M279.44925,107.00521c0.0004,0.00488 0.0008,0.00975 0.00121,0.01464c-0.0294,-0.00135 -0.05881,-0.00266 -0.08823,-0.00393c0.02901,-0.00354 0.05801,-0.00711 0.08703,-0.01071z" fill="#60ab9f" stroke="none" stroke-width="1.5" stroke-linecap="butt"/><path d="M255.60892,84.28288c3.07647,0.48378 12.02005,1.88346 17.4784,5.08699c2.79813,1.64223 4.40817,6.27136 4.40817,6.27136l-0.6959,5.09756c0,0 1.58981,-9.49212 -20.77851,-13.49807c-9.55585,-1.71136 -31.35936,2.67716 -31.35936,2.67716l-0.14914,-2.60263c0,0 9.97446,-6.35387 31.09633,-3.03237z" fill="#333333" stroke="none" stroke-width="0" stroke-linecap="butt"/><path d="M223.14682,101.24928l1.49238,-13.77654c0,0 9.81718,-3.95986 29.87653,-2.43888c3.51136,0.26624 7.33656,0.70043 11.47788,1.35321c6.32819,0.99747 11.86995,11.16212 11.86995,11.16212l-3.01919,9.30037z" fill="#151313" stroke="none" stroke-width="0" stroke-linecap="butt"/><path d="M270.67932,89.58627c3.8118,4.60628 3.97798,12.35743 3.97798,12.35743c0,0 -0.72199,4.72163 -7.1909,4.14911c-9.0486,-0.80081 -39.19816,-7.91152 -39.19816,-7.91152c0,0 -0.05815,-9.67701 6.2964,-14.81068c5.84029,-4.71821 11.95683,-6.02873 17.40384,-5.43867c11.37364,1.23208 14.6868,6.79157 18.71083,11.65432z" fill="#73cec0" stroke="none" stroke-width="0" stroke-linecap="butt"/><path d="M227.52715,99.281l2.25933,-10.24483c0,0 14.38628,8.50976 21.97976,9.35738c6.86098,0.76585 21.60692,-4.49205 21.60692,-4.49205l2.2204,10.01165c0,0 -3.24366,2.55322 -5.71223,2.31604c-7.16595,-0.68851 -42.35418,-6.94818 -42.35418,-6.94818z" fill="#83e9da" stroke="none" stroke-width="0" stroke-linecap="butt"/><path d="M264.60071,99.27367c-0.73925,6.82419 -7.69725,11.66746 -15.54114,10.81775c-7.84389,-0.84971 -13.60334,-7.07063 -12.8641,-13.89482c0.14448,-1.3337 0.52649,-2.59173 1.10621,-3.74639c1.15389,0.82593 2.20117,1.23618 2.62867,1.58443c1.01516,0.82698 2.22629,1.13936 3.29854,1.67909c-0.07371,3.84115 2.60745,7.77789 6.49993,8.19956c3.93721,0.42651 7.49224,-2.27575 8.18675,-6.11291c2.22494,-0.31204 4.4562,-0.73482 6.65762,-1.11699c0.1102,0.84673 0.1225,1.71353 0.02752,2.59028z" fill="#54978d" stroke="none" stroke-width="0" stroke-linecap="butt"/><path d="M251.73662,85.37886c6.75103,0.73132 12.04188,5.8277 12.89046,11.47676c-2.33032,0.542 -4.52308,1.01324 -6.76293,1.38858c0.14799,-0.46764 0.07394,-0.47316 0.1288,-0.97957c0.4461,-4.11804 -2.53061,-7.81801 -6.64865,-8.26411c-4.11804,-0.4461 -8.28997,6.92171 -8.29731,7.05744c-0.38809,-0.11176 -4.89996,-3.13943 -5.85801,-3.37672c2.31461,-4.88684 8.1351,-7.99703 14.54764,-7.30238z" fill="#437870" stroke="none" stroke-width="0" stroke-linecap="butt"/><path d="M214.49012,166.36065l0.31424,-2.03324c0.40107,0.26426 0.80713,0.51906 1.21788,0.76457z" fill="#60ab9f" stroke="none" stroke-width="1.5" stroke-linecap="butt"/><path d="M279.44926,107.0052c0.0004,0.00488 0.0008,0.00975 0.00121,0.01464c-0.0294,-0.00135 -0.05881,-0.00266 -0.08823,-0.00393c0.02901,-0.00354 0.05801,-0.00711 0.08703,-0.01071z" fill="#60ab9f" stroke="none" stroke-width="1.5" stroke-linecap="butt"/><path d="M213.10823,117.06868c0,0 5.29806,-4.09082 5.47099,-4.75404c0.26632,-1.02147 1.34322,-11.63394 7.90793,-19.82463c1.19518,1.77809 5.04598,2.91489 6.5818,3.4351c3.31516,1.12286 6.66662,2.13442 9.9835,3.25267c3.27137,1.10289 6.60985,2.25046 10.01275,2.80195c0.8178,0.1324 1.69772,0.28461 2.60452,0.42547c1.13201,1.0242 2.58613,1.71333 4.21989,1.89032c0.43903,0.04756 0.87332,0.05621 1.2994,0.02873c2.40323,0.49029 5.60097,0.32361 7.54853,0.53459c3.50887,0.38011 6.22383,0.74178 9.11821,-1.54189c1.47989,6.96866 0.49095,20.79424 1.09305,23.20766c1.89475,7.59467 1.21674,10.10215 1.21674,10.10215l-3.96483,-5.23252c0,0 1.91853,4.76686 -0.34016,12.67256c-2.01601,7.24992 -6.93994,28.90555 -6.93994,28.90555c0,0 -2.13879,-10.90583 -3.12004,-10.11823c-0.98127,0.78759 -1.38752,4.82637 -1.38752,4.82637c0,0 -1.80327,-3.89555 -1.98576,-5.88056c-0.15878,-1.72707 -0.09606,-4.97434 -0.09606,-4.97434c0,0 -5.37807,7.59347 -18.82776,6.02118c-5.11876,-0.63578 -16.73529,-8.87984 -16.73529,-8.87984c0,0 0.37916,3.7082 -0.00493,5.29016c-0.42815,1.76339 -2.44619,4.80509 -2.44619,4.80509l-0.9023,-8.44774l-5.85553,8.33025l-4.00482,3.31618l4.28414,-29.07869c0,0 0.64851,-0.44546 -2.05532,-0.04892c-3.38805,0.49689 -3.45753,2.62759 -3.45753,2.62759c0,0 -1.21072,-3.70843 0.50089,-5.13998c1.52456,-1.2751 2.09212,-2.72103 2.09212,-2.72103c0,0 -0.78792,-0.09309 -2.48752,0.14285c-1.77334,0.24618 -4.01216,2.42637 -4.01216,2.42637c0,0 -0.03239,-0.66649 2.06053,-5.03768c1.97604,-4.1271 7.13571,-13.46226 7.13571,-13.46226c0,0 -1.11595,0.40029 -2.65982,0.33821c-0.97861,-0.03934 -1.84721,-0.23863 -1.84721,-0.23863z" fill="#000000" stroke="none" stroke-width="1.5" stroke-linecap="butt"/><path d="M225.22242,127.2992c0.16581,-5.72702 1.70766,-13.32784 1.70766,-13.32784c0,0 2.07573,-3.18218 2.94019,-3.28064c0.84894,-0.09669 -0.56348,8.09543 -0.56348,8.09543c0,0 5.5624,-10.33436 7.71521,-10.72465c3.12971,-0.56739 3.32307,5.40469 3.32307,5.40469l4.48717,-3.33142l4.71766,5.66695l3.55878,-7.79742c0,0 5.93359,8.94303 6.39081,8.79499c2.63749,-0.76831 5.10503,-5.67497 6.46538,-4.19595c2.23428,2.42917 3.17653,6.43985 4.24104,7.27019c2.02133,1.57668 -0.76119,6.77924 -1.47256,11.08025c-0.80642,4.37837 -2.77356,7.18259 -3.50876,9.48251c-0.7352,2.29992 -0.83647,4.74328 -3.07052,12.30208c-1.3942,4.7172 -3.99303,6.59752 -9.03741,10.56953c-5.04439,3.97202 -7.82947,6.44038 -10.9183,6.16011c-2.97258,-0.26972 -6.52694,-4.72454 -9.97414,-9.25886c-3.67069,-4.82833 -6.19482,-7.34863 -6.28737,-12.6069c-0.08335,-4.73562 0.23111,-7.78005 0.41199,-11.96671c0.13219,-3.05991 -1.21693,-5.20868 -1.12638,-8.33631z" fill="#ffffff" stroke="#000000" stroke-width="1.5" stroke-linecap="butt"/><path d="M250.36045,151.9737c0.42623,0.21306 2.28278,1.34963 4.4711,2.52914c2.20576,1.1889 5.42297,2.39364 5.39366,2.52245c-0.03721,0.16348 -8.14342,-0.7034 -10.70377,-0.6615c-2.14562,0.03512 -5.26716,-0.01473 -5.26716,-0.01473c0,0 -5.43304,-1.50362 -10.12732,-3.02319c-3.7623,-1.21787 -7.95655,-2.17037 -7.95698,-2.2441c-0.00057,-0.09941 3.07175,-0.22708 5.43077,-0.5103c0.93403,-0.29 4.36049,-0.6975 4.36049,-0.6975c0,0 3.88193,0.20181 5.87479,1.09249c2.13532,0.95436 2.00136,2.14321 2.19219,2.18239c0,0 1.06966,-1.26209 2.02185,-1.43881c0.9522,-0.17671 3.99199,0.1045 4.3104,0.26364z" fill="#ffffff" stroke="#000000" stroke-width="1.4" stroke-linecap="butt"/><path d="M235.4575,153.94624c3.87725,1.2288 9.04197,3.1909 9.04197,3.1909c0,0 4.639,-0.72304 6.73119,-0.71581c1.62202,0.00559 8.79212,0.39588 8.79514,0.68985c0.00295,0.28742 -8.11952,9.28221 -17.51524,7.90741c-10.68391,-1.50063 -16.5253,-13.71266 -16.48158,-13.84115c0.04373,-0.12849 5.55126,1.54003 9.42852,2.76883z" fill="#ffffff" stroke="#000000" stroke-width="1.9" stroke-linecap="butt"/><path d="M244.25429,152.54101c-0.80486,-0.08719 -2.4797,-2.83691 -2.49586,-4.49543c-0.01446,-1.48394 1.34678,-2.86948 3.2711,-2.66102c1.92433,0.20846 3.23027,0.73652 2.78439,3.601c-0.3784,2.431 -1.63532,3.76392 -3.55963,3.55547z" fill="#ffffff" stroke="#000000" stroke-width="1.15" stroke-linecap="butt"/><path d="M249.59697,129.41448c0,0 -0.25493,3.09942 -0.59659,5.54911c-0.67652,4.85082 -3.18339,21.52265 -3.18339,21.52265l-2.3222,-0.24475c0,0 -0.27322,-3.31652 -0.07329,-7.49106c0.27062,-5.6506 1.02422,-12.72344 1.06141,-15.34965c0.03526,-2.48939 -0.21558,-4.52476 -0.21558,-4.52476" fill="#ffffff" stroke="#000000" stroke-width="1.3" stroke-linecap="round"/><path d="M225.69193,135.32427c0,0 -3.54339,-3.15427 -4.04232,-7.50764c-0.52496,-4.58059 -0.31677,-7.70098 1.21656,-7.739c1.53332,-0.03804 1.90418,2.07861 2.20141,6.82037c0.2972,4.74176 0.62437,8.42628 0.62437,8.42628z" data-paper-data="{&quot;index&quot;:null}" fill="#ffffff" stroke="#000000" stroke-width="1" stroke-linecap="butt"/><path d="M225.86717,132.23367c0,0 -2.52817,-2.57666 -2.64929,-6.94366c-0.06757,-2.43606 1.87151,-1.59338 1.87151,-1.59338" fill="none" stroke="#000000" stroke-width="0.25" stroke-linecap="round"/><path d="M228.0181,127.56065c0.4904,-3.98632 4.73896,-6.86557 9.11737,-6.32695c4.37839,0.53862 6.9921,4.26552 6.50171,8.25185c-0.4904,3.98631 -4.14301,6.81312 -8.52142,6.27449c-4.37839,-0.53861 -7.58806,-4.21307 -7.09766,-8.1994z" fill="#ffffff" stroke="#000000" stroke-width="1.4" stroke-linecap="butt"/><path d="M234.47196,127.85509c0.26379,-2.14427 2.21591,-3.6687 4.36017,-3.40491c2.14427,0.26379 3.66869,2.2159 3.40491,4.36016c-0.26379,2.14427 -2.21589,3.6687 -4.36016,3.40492c-2.14427,-0.26379 -3.6687,-2.2159 -3.40492,-4.36016z" fill="#000000" stroke="#000000" stroke-width="1" stroke-linecap="butt"/><path d="M249.78,130.14742c0.61701,-4.0958 4.55548,-7.05015 9.03148,-6.56528c4.476,0.48487 7.44471,4.18386 6.99863,8.30178c-0.44608,4.11792 -9.54583,14.96535 -9.54583,14.96535c0,0 -2.80795,-9.00463 -4.00142,-10.01668c-1.89539,-1.60727 -2.87826,-4.06044 -2.48286,-6.68517z" fill="#ffffff" stroke="#000000" stroke-width="1.4" stroke-linecap="butt"/><path d="M256.45627,131.2414c0.23771,-2.19438 4.05849,-1.90383 4.05849,-1.90383c0,0 4.12577,0.57028 3.88806,2.76466c-0.23771,2.19438 -4.90628,8.18239 -4.90628,8.18239c0,0 -3.27798,-6.84884 -3.04027,-9.04322z" fill="#000000" stroke="#000000" stroke-width="1" stroke-linecap="butt"/><path d="M228.06576,126.71992c0,0 0.80226,-6.92279 9.36197,-5.84763c7.69378,0.96241 6.9932,8.07214 6.9932,8.07214c0,0 -5.48773,-2.39263 -8.29813,-2.77488c-2.62924,-0.35761 -8.05704,0.55038 -8.05704,0.55038z" fill="#25433f" stroke="#25433f" stroke-width="1.15" stroke-linecap="butt"/><path d="M249.56642,129.36812c0,0 0.61617,-7.51463 9.65322,-6.25111c7.6677,1.09792 6.73522,8.46658 6.73522,8.46658c0,0 -5.42681,-1.8183 -8.23298,-2.19764c-2.6474,-0.35788 -8.15545,-0.01782 -8.15545,-0.01782z" fill="#25433f" stroke="#25433f" stroke-width="1.15" stroke-linecap="butt"/><path d="M268.81157,131.63663c1.30572,-4.56812 2.12126,-6.55624 3.61087,-6.19075c1.48961,0.36549 1.02476,3.45808 -0.46891,7.81998c-1.41958,4.14555 -5.55625,6.46787 -5.55625,6.46787c0,0 1.10858,-3.52899 2.41431,-8.09711z" data-paper-data="{&quot;index&quot;:null}" fill="#ffffff" stroke="#000000" stroke-width="1" stroke-linecap="butt"/><path d="M269.47582,128.50491c0,0 2.07455,-0.4079 1.48688,1.95719c-1.05347,4.23975 -4.07476,6.21526 -4.07476,6.21526" data-paper-data="{&quot;index&quot;:null}" fill="none" stroke="#000000" stroke-width="0.25" stroke-linecap="round"/><path d="M220.0402,105.48208c0,0 -1.90421,-5.62944 -0.93181,-8.52923c0.42825,-1.27711 5.74566,-10.11634 5.74566,-10.11634c0,0 0.04435,4.07712 1.66252,4.89681c8.40891,4.25959 32.45461,12.21035 41.97119,13.24125c7.60577,0.82391 9.17404,-10.40583 9.17404,-10.40583c0,0 3.45917,4.19516 3.6761,5.35731c0.50305,2.69506 -2.56906,11.24739 -2.56906,11.24739l-0.30814,-0.92747l-57.82836,-6.2644z" fill="#333333" stroke="none" stroke-width="0" stroke-linecap="butt"/><path d="M220.10661,105.568c0,0 -0.44172,-0.91057 -0.72706,-2.03999c-0.43475,-1.72086 -0.86332,-4.24792 -0.25759,-6.04289c0.49746,-1.47413 5.54403,-10.41753 5.54403,-10.41753c0,0 0.0843,3.32351 2.23845,4.71365c2.07138,1.33672 8.38579,3.56964 8.38579,3.56964l12.73863,11.55601l-27.3613,-2.73417z" fill="#202020" stroke="none" stroke-width="0" stroke-linecap="butt"/><path d="M266.85427,108.9264l0.46156,-4.26079l0.92317,0.1l-0.46156,4.26079z" fill="#8fffee" stroke="none" stroke-width="0" stroke-linecap="butt"/><path d="M266.69582,108.9747l0.23334,-2.15407l1.15987,0.12565l-0.23334,2.15407z" fill="#60ab9f" stroke="none" stroke-width="0" stroke-linecap="butt"/><path d="M277.83658,95.37319l-0.36542,5.43671l-1.4231,9.01025" fill="none" stroke="#141414" stroke-width="1" stroke-linecap="round"/><path d="M268.71403,89.15784c-0.53107,4.90244 -7.35145,-5.32269 -16.84256,-6.35084c-9.49111,-1.02815 -18.05885,7.53003 -17.52778,2.62759c0.53107,-4.90244 8.70181,-8.46925 18.19292,-7.4411c9.49111,1.02815 16.7085,6.26191 16.17743,11.16435z" fill="#8fffee" stroke="none" stroke-width="0" stroke-linecap="butt"/><path d="M225.54312,128.01899l0.34508,-21.75604l27.08046,2.26299l13.18814,3.60798l4.97788,9.75953l-6.37234,18.5885c0,0 -7.08002,8.91993 -10.13579,7.89444c-0.77854,-0.26127 -1.67219,-9.96558 -2.50938,-11.03818c-2.48542,-3.18423 -4.85109,-8.64169 -4.85109,-8.64169c0,0 -5.82802,8.52988 -9.21932,8.83394c-3.06614,0.27491 -11.19318,-1.49037 -11.19318,-1.49037zM235.17626,135.96936c4.39258,0.47584 8.33921,-2.69931 8.81505,-7.09189c0.47584,-4.39258 -2.69931,-8.33921 -7.09189,-8.81505c-4.39258,-0.47584 -8.33921,2.69931 -8.81505,7.09189c-0.47584,4.39258 2.69931,8.33921 7.09189,8.81505zM256.90528,145.23003c0,0 8.00916,-8.93781 8.485,-13.33039c0.47584,-4.39258 -2.69931,-8.33921 -7.09189,-8.81505c-4.39258,-0.47584 -7.93077,2.64297 -8.40661,7.03555c-0.24895,2.29814 1.68236,6.32751 3.5807,9.64754c1.73009,3.02575 3.43279,5.46235 3.43279,5.46235z" fill="#000000" stroke="#000000" stroke-width="1.15" stroke-linecap="round"/><path d="M232.60129,117.15154c0,0 2.77694,-1.13203 6.44633,-1.09907c4.06615,0.03651 6.05376,0.60358 6.05376,0.60358l-0.11921,3.24622c0,0 -2.92885,-0.85343 -6.19864,-1.08199c-4.37293,-0.30567 -5.29441,0.55522 -8.64425,0.55332c-2.87032,-0.00163 -5.25886,-0.44456 -5.25886,-0.44456l0.08372,-0.96103c0,0 2.79288,0.36081 4.08062,0.38819c1.06285,0.02259 3.17451,-0.39505 3.17451,-0.39505z" fill="#e6e6e6" stroke="none" stroke-width="1.5" stroke-linecap="butt"/><path d="M263.45306,122.38c0,0 1.15995,0.3762 3.21982,1.22338c1.88145,0.77382 3.31707,1.73313 3.31707,1.73313l0.05319,0.92766c0,0 -5.38041,-3.04837 -11.56046,-3.19843c-4.94141,-0.11997 -7.99432,1.34936 -7.99432,1.34936l0.3879,-3.24813c0,0 2.57872,-1.06309 6.27897,-0.78148c3.83158,0.29161 6.24948,1.14273 6.24948,1.14273z" data-paper-data="{&quot;index&quot;:null}" fill="#dadada" stroke="none" stroke-width="1.5" stroke-linecap="butt"/><path d="M225.8425,141.84498l8.84157,-5.47966" fill="none" stroke="#000000" stroke-width="1" stroke-linecap="round"/><g fill="#d4d4d4"><path d="M257.62796,204.19471l-15.17284,-1.56569" stroke="#000000" stroke-width="3" stroke-linecap="round"/><g stroke="none" stroke-linecap="butt"><g stroke-width="1" font-weight="normal" font-size="40" text-anchor="start"><text transform="translate(242.49682,202.24383) rotate(6.1826) scale(0.07734,0.08132)" font-size="40" xml:space="preserve" fill="#d4d4d4" fill-rule="nonzero" stroke="none" stroke-width="1" stroke-linecap="butt" stroke-linejoin="miter" stroke-miterlimit="10" stroke-dasharray="" stroke-dashoffset="0" font-family="Pixel" font-weight="normal" text-anchor="start" style="mix-blend-mode: normal"><tspan x="0" dy="0">DONK</tspan></text><text transform="translate(241.95871,205.49766) rotate(6.1826) scale(0.07734,0.08132)" font-size="40" xml:space="preserve" fill="#d4d4d4" fill-rule="nonzero" stroke="none" stroke-width="1" stroke-linecap="butt" stroke-linejoin="miter" stroke-miterlimit="10" stroke-dasharray="" stroke-dashoffset="0" font-family="Sans Serif" font-weight="normal" text-anchor="start" style="mix-blend-mode: normal"><tspan x="0" dy="0">Industries</tspan></text></g><path d="M252.13911,201.49572l0.10014,-0.92444l5.78742,0.62694l-0.10014,0.92444z" stroke-width="0"/><path d="M251.9736,203.02362l0.09736,-0.89876l5.78742,0.62694l-0.09736,0.89876z" stroke-width="0"/></g></g><path d="M249.95799,132.78946l-0.06785,15.48275" fill="none" stroke="#000000" stroke-width="1.5" stroke-linecap="round"/><path d="M252.80806,149.19181l0.31811,-4.79362l0.63461,-2.14413" fill="none" stroke="#000000" stroke-width="1.5" stroke-linecap="round"/><path d="M258.61081,155.05083l1.72154,-8.46382l-0.73732,4.94938" fill="none" stroke="#000000" stroke-width="1.5" stroke-linecap="round"/><path d="M260.05235,149.17189l0.62963,-3.9552l3.32718,-2.8583" fill="none" stroke="#000000" stroke-width="1.5" stroke-linecap="round"/><path d="M252.5562,145.94581l-1.44329,-10.81836" fill="none" stroke="#000000" stroke-width="1.5" stroke-linecap="round"/><path d="M263.81531,144.14793l-1.39845,5.48127l-1.2295,-5.36361" fill="none" stroke="#000000" stroke-width="1.5" stroke-linecap="round"/><path d="M255.23059,154.68466l0.88312,-8.15231" fill="none" stroke="#000000" stroke-width="1.5" stroke-linecap="round"/></g></g></svg>