<svg version="1.1" xmlns="http://www.w3.org/2000/svg" xmlns:xlink="http://www.w3.org/1999/xlink" width="105.37924" height="259.46563" viewBox="0,0,105.37924,259.46563"><defs><linearGradient x1="246.15639" y1="97.03489" x2="245.41125" y2="164.6197" gradientUnits="userSpaceOnUse" id="color-1"><stop offset="0" stop-color="#000000"/><stop offset="1" stop-color="#000000" stop-opacity="0"/></linearGradient></defs><g transform="translate(-194.07666,-46.03441)"><g data-paper-data="{&quot;isPaintingLayer&quot;:true}" fill-rule="nonzero" stroke-linejoin="miter" stroke-miterlimit="10" stroke-dasharray="" stroke-dashoffset="0" style="mix-blend-mode: normal"><g fill="#000000" stroke="none" stroke-linecap="butt"><path d="M295.94688,130.87245c0,0 -1.23689,0.1199 -2.60001,0.02024c-2.15048,-0.15722 -3.63175,-0.83522 -3.63175,-0.83522c0,0 0.11346,5.4478 2.17463,10.98195c2.18308,5.86144 7.56615,10.95837 7.56615,10.95837c0,0 -1.98191,0.00362 -4.39985,-0.57947c-2.31739,-0.55883 -4.60944,-1.66887 -4.60944,-1.66887c0,0 -1.66958,4.82136 0.23438,6.67085c2.13755,2.07641 5.70536,14.9407 5.70536,14.9407c0,0 -3.10389,-8.9202 -7.7191,-10.06788c-3.68315,-0.9159 -3.12243,-6.56996 -3.12243,-6.56996c0,0 -0.61261,4.5911 -3.67637,12.20345c-2.57053,6.38683 -6.86461,9.63244 -6.86461,9.63244l-0.09775,-2.65609c0,0 -10.79029,10.3014 -28.61917,10.36031c-18.90373,-0.06201 -26.50039,-11.16438 -26.50039,-11.16438l-0.14146,3.70288c0,0 -2.49623,-1.80557 -3.72712,-2.954c-1.23089,-1.14844 -2.32463,-3.35857 -2.32463,-3.35857c0,0 -0.15031,-12.33608 -3.2655,-12.18194c-3.32844,0.16469 -16.1078,13.14053 -16.1078,13.14053c0,0 1.60503,-10.78302 5.62429,-18.57484c4.41636,-8.56166 6.3334,-18.04075 6.3334,-18.04075c0,0 -2.84102,2.10693 -4.19043,3.09984c-1.4468,1.06458 -4.49449,3.08462 -4.49449,3.08462c0,0 3.04753,-7.9862 6.92229,-17.3249c2.82592,-6.81084 -2.91968,-43.13872 45.86687,-41.68716c39.48804,1.8361 38.51888,39.73026 38.86175,42.00481c0.13074,0.86724 6.80317,6.86302 6.80317,6.86302z" data-paper-data="{&quot;index&quot;:null}" stroke-width="1.5"/><path d="M199.84554,105.04804c0,0 6.58023,-5.84968 6.72542,-6.71387c0.18318,-1.09042 0.25157,-10.42945 4.52805,-19.93715c1.2137,-2.69839 5.41677,-6.20595 5.60144,-9.67931c0.3434,-6.45881 -4.19663,-12.69999 -4.19663,-12.69999c0,0 27.63584,1.29019 32.54543,1.16435c3.12284,-0.02603 -9.1906,-11.14767 -9.1906,-11.14767c0,0 26.27716,10.86342 29.10602,11.6825c27.22024,7.88139 21.33397,36.32506 23.51992,42.13692c3.54321,9.42048 6.31608,17.47085 6.31608,17.47085c0,0 -2.9024,-2.08563 -4.27792,-3.18133c-1.28293,-1.02193 -3.98365,-3.18996 -3.98365,-3.18996c0,0 3.15339,10.3835 1.15756,20.709c-1.75596,9.46219 -7.90411,17.13934 -7.90411,17.13934l-1.19525,-2.36067c0,0 -1.10523,2.18589 -2.32004,3.30737c-1.2148,1.12147 -3.66704,2.87247 -3.66704,2.87247l-0.05647,-3.70506c0,0 -7.58439,10.935 -25.85989,10.58709c-17.2338,-0.4455 -27.44138,-10.97841 -27.44138,-10.97841l-0.15209,2.65332c0,0 -4.0807,-3.33795 -6.42712,-9.77899c-2.79666,-7.67697 -3.28932,-12.28024 -3.28932,-12.28024c0,0 -2.49349,1.87179 -6.07382,2.7076c-4.48638,1.04734 -7.3468,0.26428 -7.3468,0.26428c0,0 3.84377,-2.67495 5.95514,-4.70453c1.88064,-1.80778 2.83481,-3.34617 2.83481,-3.34617c0,0 -2.23978,1.06007 -4.49212,1.56853c-2.35004,0.53052 -4.26587,0.48393 -4.26587,0.48393c0,0 5.3143,-4.979 7.55178,-10.79169c2.11253,-5.48812 2.34032,-10.93217 2.34032,-10.93217c0,0 -1.44663,0.64572 -3.5289,0.75627c-1.31989,0.07009 -2.51299,-0.07661 -2.51299,-0.07661z" stroke-width="1.5"/><path d="M212.03934,216.4085c0,0 1.15559,-4.75657 -0.72502,-10.19936c-2.00275,-5.79633 -7.06441,-12.40855 -7.58854,-16.15879c-0.63734,-4.56034 2.80276,-13.07278 2.80276,-13.07278c0,0 3.65025,-10.38907 3.56321,-21.22536c-0.09483,-11.80756 -9.65929,-21.06075 3.67205,-22.28935c2.86827,-0.26434 6.24019,6.80429 9.98991,11.66198c3.92804,5.08872 8.17072,7.9838 8.17072,7.9838c0,0 -3.22259,0.87264 -2.23216,6.12551c3.46266,18.36469 12.12642,42.61544 12.12642,42.61544c0,0 -10.90188,-17.4042 -10.53581,-8.80772c0.40856,9.59446 6.79919,35.98035 6.79919,35.98035c0,0 -11.89663,-17.5724 -17.26367,-27.54777c-1.81376,-3.37111 -3.06489,-9.86056 -3.06489,-9.86056z" stroke-width="0"/><path d="M277.34088,190.60409c0,0 -1.3939,6.46028 -3.28154,9.79059c-5.58569,9.85462 -3.96692,36.31424 -3.96692,36.31424c0,0 -6.9291,-35.39238 -6.30909,-44.9755c0.55551,-8.5863 -6.48256,16.62058 -6.48256,16.62058c0,0 4.95146,-32.10112 8.81819,-50.38501c1.106,-5.22974 -2.09658,-6.17322 -2.09658,-6.17322c0,0 4.30549,-2.80084 8.34476,-7.80172c3.8559,-4.77383 7.38286,-11.76639 10.2446,-11.43888c13.30101,1.52223 3.53484,10.56228 3.17972,22.3649c-0.32591,10.83174 3.09438,21.29876 3.09438,21.29876c0,0 3.25158,8.58623 2.51385,13.1314c-0.60668,3.73779 -5.81289,10.23678 -7.94295,15.98755c-2.00014,5.40002 -5.05971,20.1362 -5.05971,20.1362z" data-paper-data="{&quot;index&quot;:null}" stroke-width="0"/></g><g><g><path d="M201.54539,304.39162c0,0 -0.63536,-94.38387 -0.79335,-118.01201c-0.05451,-8.15261 8.18688,-36.76129 40.20201,-36.9211c31.60235,-0.15775 39.85672,29.48704 39.84884,36.89673c-0.07659,46.24274 0.65429,117.98648 0.65429,117.98648l-10.49667,0.09614l-0.15882,-114.84311c0,0 0.07549,-3.0993 -2.81625,-3.15415c-3.43441,-0.06514 -2.94538,3.11562 -2.94538,3.11562c0,0 -4.95003,28.26622 -4.9205,44.77862c0.03718,20.78547 5.12598,70.09133 5.12598,70.09133l-48.21366,0.07222c0,0 4.21363,-44.83321 4.15975,-65.16568c-0.04695,-17.71739 -4.46514,-50.06741 -4.46514,-50.06741c0,0 0.27949,-2.919 -2.8856,-2.93443c-3.11083,-0.01515 -2.81569,2.90899 -2.81569,2.90899l0.35311,115.0668z" fill="#ffffff" stroke="#000000" stroke-width="2" stroke-linecap="butt"/><path d="M256.14252,200.33382c-0.57113,0 -1.03411,-0.46299 -1.03411,-1.03411c0,-0.57113 0.46299,-1.03413 1.03411,-1.03413c0.57113,0 1.03411,0.463 1.03411,1.03413c0,0.57113 -0.46299,1.03411 -1.03411,1.03411z" fill="#000000" stroke="none" stroke-width="1.5" stroke-linecap="butt"/><path d="M250.88269,204.56943c-4.4635,-0.31439 -6.55245,-1.79392 -6.16985,-2.58011c0.11788,-0.24224 2.84645,1.06355 6.97038,1.3048c6.40897,0.37493 8.51033,-0.63173 8.51033,-0.63173v1.34616c0,0 -2.4135,1.04672 -9.31086,0.56089z" fill="#000000" stroke="#000000" stroke-width="0" stroke-linecap="butt"/><path d="M223.06993,199.29973c0,-0.57113 0.46299,-1.03413 1.03411,-1.03413c0.57113,0 1.03413,0.463 1.03413,1.03413c0,0.57113 -0.463,1.03411 -1.03413,1.03411c-0.57113,0 -1.03411,-0.46299 -1.03411,-1.03411z" fill="#000000" stroke="none" stroke-width="1.5" stroke-linecap="butt"/><path d="M229.36393,204.56943c-6.89736,0.48585 -9.31086,-0.56089 -9.31086,-0.56089v-1.34616c0,0 2.10136,1.00666 8.51033,0.63173c4.12393,-0.24126 6.85251,-1.54704 6.97039,-1.3048c0.3826,0.78618 -1.70634,2.26571 -6.16985,2.58011z" fill="#000000" stroke="#000000" stroke-width="0" stroke-linecap="butt"/><path d="M240.64439,261.12113c-0.81895,0 -1.48284,-0.66389 -1.48284,-1.48284c0,-0.81895 0.66389,-1.48284 1.48284,-1.48284c0.81895,0 1.48284,0.66389 1.48284,1.48284c0,0.81895 -0.66389,1.48284 -1.48284,1.48284z" data-paper-data="{&quot;index&quot;:null}" fill="#000000" stroke="none" stroke-width="1.5" stroke-linecap="butt"/><g fill="#ffffff" stroke="#000000" stroke-width="2" stroke-linecap="round"><path d="M240.52122,202.18259c0.14273,5.60368 -2.57383,7.93839 -3.89249,9.02343c-5.12117,4.21387 -15.18067,3.25512 -17.60285,2.04502c-4.96567,-2.48081 -8.40378,-10.51264 -8.69751,-13.75788c-0.29521,-3.2616 0.55028,-8.14011 2.54293,-10.94893c2.55122,-3.59616 5.94201,-5.23391 5.94201,-5.23391"/><path d="M264.10865,183.81032c0,0 3.568,1.68802 5.59914,5.45989c1.4764,2.74171 1.66914,7.09237 1.38579,10.22295c-0.29373,3.24525 -3.73185,11.27706 -8.69752,13.75787c-2.42218,1.2101 -12.48168,2.16885 -17.60284,-2.04502c-1.31866,-1.08504 -4.49677,-3.65052 -4.35404,-9.2542" data-paper-data="{&quot;index&quot;:null}"/></g></g><g fill="#ff0000" stroke="none" stroke-width="0" stroke-linecap="butt"><path d="M242.78929,225.87056c-5.33481,19.80043 -12.8084,55.08219 -15.54163,53.35977c-2.73323,-1.72242 0.30891,-39.79677 5.64372,-59.59721c5.33481,-19.80043 6.19209,-14.11615 8.92532,-12.39373c2.73323,1.72242 6.3074,-1.16927 0.97259,18.63117z"/><path d="M245.69891,224.8722c-0.89199,21.37201 -1.1153,60.80478 -4.06547,60.5168c-2.95017,-0.28799 -7.51003,-40.1877 -6.61805,-61.5597c0.89199,-21.37201 2.89805,-16.4104 5.84822,-16.12241c2.95017,0.28799 5.72728,-4.20669 4.8353,17.16532z"/><path d="M238.13099,226.07155c-9.77267,15.33764 -18.13852,45.16132 -20.25572,42.00607c-1.46252,-2.1796 -5.18318,-53.57253 -2.16132,-58.31516c9.77267,-15.33764 23.9341,-4.69105 26.0513,-1.5358c2.1172,3.15525 6.13841,2.50726 -3.63426,17.8449z"/><path d="M248.72787,219.65453c5.38578,19.76813 7.4285,58.30341 4.69972,60.04229c-2.72877,1.73888 -9.19571,-33.97713 -14.58149,-53.74525c-5.38578,-19.76813 -2.15093,-16.67705 0.57785,-18.41593c2.72878,-1.73888 3.91814,-7.64923 9.30392,12.1189z"/><path d="M267.13777,207.88455c3.48796,4.65245 -1.83417,53.89524 -3.13503,56.17631c-1.94308,3.40722 -11.34842,-26.02739 -21.90149,-40.1037c-10.55307,-14.07631 -6.75764,-13.49577 -4.81456,-16.90299c1.94308,-3.40722 19.29801,-13.24594 29.85108,0.83038z"/></g><g stroke="none" stroke-width="0" stroke-linecap="butt"><g><g fill="#da7f7f"><path d="M202.75744,220.78121c-0.91601,4.78728 -2.97391,8.19854 -4.59646,7.61927c-1.62255,-0.57927 -2.19532,-4.92971 -1.27932,-9.71699c0.91601,-4.78728 2.97392,-8.19854 4.59646,-7.61927c1.62255,0.57927 2.19532,4.92971 1.27931,9.71699z"/><path d="M211.03608,211.06421c1.62255,-0.57927 3.68045,2.832 4.59645,7.61927c0.91601,4.78727 0.34323,9.13772 -1.27931,9.71699c-1.62255,0.57927 -3.68045,-2.832 -4.59646,-7.61927c-0.91601,-4.78727 -0.34323,-9.13772 1.27932,-9.71699z" data-paper-data="{&quot;index&quot;:null}"/><path d="M207.46891,221.69171c-0.38297,4.86598 -2.05167,8.50305 -3.72716,8.1236c-1.67549,-0.37945 -2.72329,-4.6317 -2.34032,-9.49768c0.38297,-4.86598 2.05168,-8.50305 3.72717,-8.1236c1.67549,0.37945 2.72328,4.6317 2.34031,9.49768z"/><path d="M208.11441,213.21192c1.67549,-0.37944 3.34419,3.25761 3.72716,8.12359c0.38297,4.86598 -0.66482,9.11824 -2.34031,9.49768c-1.67549,0.37944 -3.34419,-3.25762 -3.72717,-8.1236c-0.38297,-4.86598 0.66483,-9.11823 2.34032,-9.49767z" data-paper-data="{&quot;index&quot;:null}"/></g><path d="M197.4714,215.23541c0,0 1.57143,-4.9375 1.57143,-8.21173c0,-4.4673 0,-15.84359 0,-15.84359h14.75c0,0 0,12.09897 0,16.59181c0,3.07315 1.42857,7.61315 1.42857,7.61315z" fill="#a10000"/></g><g><g fill="#da7f7f"><path d="M271.61458,222.27764c-0.916,4.78728 -2.97391,8.19854 -4.59646,7.61927c-1.62255,-0.57927 -2.19532,-4.9297 -1.27932,-9.71698c0.916,-4.78728 2.97391,-8.19855 4.59646,-7.61928c1.62255,0.57927 2.19532,4.92971 1.27931,9.71699z"/><path d="M279.89321,212.56066c1.62255,-0.57927 3.68045,2.832 4.59645,7.61928c0.916,4.78727 0.34323,9.13771 -1.27931,9.71698c-1.62255,0.57927 -3.68045,-2.832 -4.59646,-7.61928c-0.916,-4.78727 -0.34323,-9.13771 1.27932,-9.71698z" data-paper-data="{&quot;index&quot;:null}"/><path d="M276.32605,223.18817c-0.38297,4.86598 -2.05167,8.50304 -3.72717,8.12359c-1.67549,-0.37945 -2.72328,-4.63169 -2.34031,-9.49767c0.38297,-4.86598 2.05167,-8.50305 3.72717,-8.1236c1.67549,0.37945 2.72328,4.6317 2.34031,9.49768z"/><path d="M276.9715,214.70834c1.67549,-0.37944 3.34419,3.25761 3.72717,8.12359c0.38297,4.86598 -0.66483,9.11824 -2.34032,9.49768c-1.67549,0.37944 -3.34419,-3.25761 -3.72717,-8.12359c-0.38297,-4.86598 0.66483,-9.11824 2.34032,-9.49768z" data-paper-data="{&quot;index&quot;:null}"/></g><path d="M266.32849,216.73186c0,0 1.57143,-4.9375 1.57143,-8.21173c0,-4.4673 0,-15.84359 0,-15.84359h14.75c0,0 0,12.09897 0,16.59181c0,3.07315 1.42857,7.61316 1.42857,7.61316z" fill="#a10000"/></g><path d="M199.15354,191.3585c0,0 1.82462,-20.19547 8.16591,-26.67681c3.91163,-3.99802 9.99521,-9.81164 17.97915,-13.16665c6.84618,-2.87689 15.34066,-1.51823 15.34066,-1.51823c0,0 18.7832,-0.65754 27.84739,8.105c9.79289,9.467 14.03833,34.78306 14.03833,34.78306c0,0 -27.153,11.32479 -40.91793,11.07278c-14.02084,-0.2567 -42.45349,-12.59914 -42.45349,-12.59914z" fill="#a10000"/></g><path d="M275.96673,158.16446c0,0 -3.13344,41.76527 -35.50957,43.63031c-27.40913,1.57891 -36.42376,-43.09698 -36.42376,-43.09698" fill="none" stroke="#000000" stroke-width="3" stroke-linecap="round"/><g stroke="#000000" stroke-width="0" stroke-linecap="butt"><path d="M274.73329,191.62506c0,5.5819 1.16156,15.61828 -6.08097,20.14541c-5.92482,3.70346 -47.78418,5.0292 -53.35521,2.04346c-8.51944,-4.5659 -7.06381,-15.80301 -7.06381,-21.93887c0,-5.75268 4.52516,-12.95155 12.50273,-12.91087c2.09459,0.01068 8.53711,-0.38952 11.4975,1.04964c5.65479,2.74901 9.62476,7.73623 9.62476,7.73623c0,0 3.67869,-4.49312 8.96296,-7.08089c4.01934,-1.96832 9.4944,-2.20212 11.91276,-2.20589c7.13139,-0.01112 11.99928,7.47635 11.99928,13.16178z" fill="#cc1414"/><path d="M269.73329,180.95841c4.5951,2.30887 5.92555,12.23618 4.79782,19.9632c-0.80495,5.51542 -2.86231,10.29668 -5.8788,12.18221c-5.92482,3.70346 -48.03418,3.6542 -53.60521,0.66846c-0.21961,-0.1177 17.5227,-6.02555 31.64158,-14.47409c13.23313,-7.91852 22.8882,-18.41836 23.04461,-18.33978z" fill="#a10000"/></g></g><path d="M268.24705,98.6697c0,0 1.5207,0.33486 4.2433,1.15713c2.48679,0.75107 4.42985,1.79298 4.42985,1.79298l0.18218,1.17243c0,0 -7.21468,-3.20971 -15.08764,-2.6371c-6.29503,0.45787 -9.99358,2.70239 -9.99358,2.70239l0.0918,-4.17608c0,0 3.14607,-1.66963 7.88364,-1.76877c4.90571,-0.10264 8.08384,0.68041 8.08384,0.68041z" data-paper-data="{&quot;index&quot;:null}" fill="#000000" stroke="none" stroke-width="1.5" stroke-linecap="butt"/><path d="M228.1062,102.32366c0,0 3.38948,-1.78174 8.05711,-2.19309c5.17231,-0.45583 7.76849,0.01937 7.76849,0.01937l0.24945,4.14047c0,0 -3.8278,-0.7229 -8.01172,-0.6095c-5.59547,0.15164 -6.66027,1.35959 -10.91793,1.77093c-3.64819,0.35247 -6.73858,0.08456 -6.73858,0.08456l-0.01231,-1.23176c0,0 3.59414,0.11361 5.23415,-0.01065c1.3536,-0.10257 3.9858,-0.89419 3.9858,-0.89419z" fill="#000000" stroke="none" stroke-width="1.5" stroke-linecap="butt"/><path d="M194.07666,83.98258c0,0 18.21597,-10.83874 25.22181,-15.00337c7.37615,-4.38476 7.62593,-8.66917 17.98143,-10.67883c10.35552,-2.00967 5.39208,10.31146 5.39208,10.31146c0,0 -5.72977,5.57735 -21.57119,10.71878c-4.12849,1.33992 -27.02412,4.65197 -27.02412,4.65197z" fill="#000000" stroke="none" stroke-width="0" stroke-linecap="butt"/><path d="M217.84748,112.95879c-0.3907,-5.74206 0.16995,-14.17862 0.42168,-17.04083c0.01147,-0.13046 2.72447,0.78428 5.71149,-0.25866c3.07523,-1.07374 6.54034,-1.99927 7.45651,-2.25898c0.24446,-0.0693 18.4119,-7.00623 18.4119,-7.00623l-5.10522,6.78622c0,0 27.09897,-10.37358 28.17684,-9.68942c2.76373,1.7542 1.05058,23.18412 0.67772,28.73826c-0.4841,5.66423 -2.63785,9.47119 -3.28816,12.48504c-0.65031,3.01386 3.68919,6.17767 1.78348,16.06034c-1.18928,6.16747 -8.42638,8.83231 -14.34685,14.50352c-5.92047,5.67123 -9.15524,9.15238 -13.11557,9.1777c-3.81128,0.02437 -8.87888,-5.1984 -13.82011,-10.53544c-5.2616,-5.68309 -8.78089,-8.57446 -9.54801,-15.24594c-0.3348,-2.9117 -0.5018,-5.33017 -0.61771,-7.65774c-0.12327,-2.47547 1.80748,-4.49278 1.65943,-7.24669c-0.20993,-3.90528 -4.1862,-6.82493 -4.45744,-10.81114z" fill="#ffffff" stroke="#000000" stroke-width="1.5" stroke-linecap="butt"/><path d="M242.22748,138.46061c-1.02775,-0.11132 -3.16645,-3.62244 -3.18712,-5.74026c-0.0185,-1.89487 1.71968,-3.66412 4.17688,-3.39798c2.45722,0.26615 4.12483,0.9404 3.55555,4.59813c-0.48313,3.10419 -2.0881,4.80628 -4.54531,4.54013z" fill="#ffffff" stroke="#000000" stroke-width="1.15" stroke-linecap="butt"/><g stroke-linecap="butt"><path d="M274.97352,139.80845c-0.04338,3.93479 -15.72403,22.07798 -32.37062,21.89446c-16.64661,-0.18353 -27.3064,-22.11735 -27.26302,-26.05215c0.04338,-3.93479 9.61186,6.23134 26.25846,6.41488c16.64661,0.18353 33.41857,-6.19198 33.37518,-2.25719z" fill="#000000" stroke="#000000" stroke-width="0"/><g><path d="M268.89703,139.15901c-0.00119,0.1071 -2.95202,3.43128 -5.84449,5.37317c-2.04683,1.37419 -3.82688,1.24746 -5.56296,2.37775c-4.36538,2.84216 -5.73461,3.57998 -6.93962,3.98622c-2.60212,0.87728 -5.2981,0.62792 -7.20244,0.60693c-10.24081,-0.11291 -17.99601,-8.25284 -17.97318,-10.32377c0.02284,-2.07094 7.84951,-0.41349 18.09032,-0.30058c10.24081,0.11291 25.45518,-3.79067 25.43234,-1.71972z" fill="#ffffff" stroke="#000000" stroke-width="0.5"/><path d="M260.33288,135.05264c6.49298,-0.51074 16.28252,1.73561 16.26927,1.82203c-0.01399,0.09121 -3.38603,3.21078 -8.3925,4.90513c-6.64597,2.24922 -15.60419,3.23187 -17.86609,3.43813c-3.32343,0.30302 -12.97842,0.65368 -18.21147,-0.78745c-3.44206,-0.94791 -6.80516,-2.95843 -10.04161,-4.5496c-5.56094,-2.73398 -8.37396,-8.02383 -8.37882,-8.06179c-0.00259,-0.02017 2.15972,0.75513 5.27522,1.88137c2.87635,1.03979 6.58311,0.75382 10.13088,2.04208c6.30605,2.28985 12.14852,6.04452 12.20847,6.04985c0,0 1.46529,-1.73328 2.91538,-2.07259c0.73017,-0.17086 13.07599,-4.42996 16.09127,-4.66716z" fill="#fefefe" stroke="#000000" stroke-width="1.4"/><path d="M244.90368,162.64594c-1.47168,-0.01622 -3.29842,-0.20652 -5.25392,-0.54039c-6.19451,-1.05757 -13.68095,-3.55559 -15.26539,-6.52347c-0.22244,-0.41666 3.98718,-7.58728 6.51326,-10.01104c0.14269,-0.13691 3.94221,2.95874 7.34145,4.48772c1.66895,0.7507 3.4804,0.46226 4.24984,0.51614c5.68299,0.39796 10.70727,-3.6332 12.5774,-3.61258c6.0737,0.06697 6.35613,7.48495 2.80129,11.06092c-2.63628,2.65195 -8.45968,4.67236 -12.96394,4.6227z" fill="#ffffff" stroke="none" stroke-width="0"/><path d="M276.64177,137.00323c0.00889,0.06647 0.40523,7.38602 -1.49862,13.59471c-0.70984,2.31487 -2.96961,3.95145 -8.32089,7.07902c-5.92289,3.46162 -16.5202,4.51156 -22.21249,4.58508c-11.0815,0.14309 -22.19449,-3.15406 -23.35839,-4.44472c-1.22288,-1.35607 -2.67804,-6.76324 -4.69689,-12.50661c-2.93228,-8.34192 -5.05584,-13.76756 -5.04655,-13.80013c0.0139,-0.04875 6.24386,6.19508 10.85481,12.22637c3.6131,4.72607 4.37986,5.83213 5.24949,6.65296c0.43808,0.41349 3.59624,2.34259 6.97574,2.96314c2.7293,0.50117 13.0052,2.42385 20.31682,-1.24902c11.46958,-5.76152 21.71731,-15.24792 21.73698,-15.10079z" fill="#ffffff" stroke="#000000" stroke-width="1.9"/></g></g><path d="M249.04914,108.92975c0,0 -0.32546,3.95772 -0.76167,7.0858c-0.86374,6.19414 -4.06445,27.48284 -4.06445,27.48284l-2.96527,-0.31247c0,0 -0.34895,-4.23494 -0.09375,-9.56551c0.34543,-7.21537 1.30757,-16.24688 1.355,-19.60036c0.04497,-3.17877 -0.27538,-5.77778 -0.27538,-5.77778" fill="#ffffff" stroke="#000000" stroke-width="1.3" stroke-linecap="round"/><g stroke="none" stroke-width="0" stroke-linecap="butt"><g fill="url(#color-1)"><path d="M214.7881,164.28208l-3.3347,-60.36516c0,0 48.47177,-6.73026 59.82645,-6.60508c4.5276,0.04992 9.41933,7.36853 9.41933,7.36853l-0.66506,60.32107z"/><path d="M214.7881,164.28208l-3.3347,-60.36516c0,0 48.47177,-6.73026 59.82645,-6.60508c4.52759,0.04991 9.41933,7.36853 9.41933,7.36853l-0.66506,60.32107z"/><path d="M214.7881,164.28208l-3.3347,-60.36516c0,0 48.47177,-6.73026 59.82645,-6.60508c4.52759,0.04991 9.41933,7.36853 9.41933,7.36853l-0.66506,60.32107z"/><path d="M214.7881,164.28208l-3.3347,-60.36516c0,0 48.47177,-6.73026 59.82645,-6.60508c4.52759,0.04991 9.41933,7.36853 9.41933,7.36853l-0.66506,60.32107z"/><path d="M214.7881,164.28208l-3.3347,-60.36516c0,0 48.47177,-6.73026 59.82645,-6.60508c4.52759,0.04991 9.41933,7.36853 9.41933,7.36853l-0.66506,60.32107z"/><path d="M214.7881,164.28208l-3.3347,-60.36516c0,0 48.47177,-6.73026 59.82645,-6.60508c4.52759,0.04991 9.41933,7.36853 9.41933,7.36853l-0.66506,60.32107z"/><path d="M214.7881,164.28208l-3.3347,-60.36516c0,0 48.47177,-6.73026 59.82645,-6.60508c4.52759,0.04991 9.41933,7.36853 9.41933,7.36853l-0.66506,60.32107z"/><path d="M214.7881,164.28208l-3.3347,-60.36516c0,0 48.47177,-6.73026 59.82645,-6.60508c4.52759,0.04991 9.41933,7.36853 9.41933,7.36853l-0.66506,60.32107z"/></g><path d="M211.30006,104.96811l6.6115,-25.19554l59.34829,-1.03023l-0.27856,25.26536z" fill="#000000"/></g></g></g></svg>