<svg version="1.1" xmlns="http://www.w3.org/2000/svg" xmlns:xlink="http://www.w3.org/1999/xlink" width="97.57158" height="275.02207" viewBox="0,0,97.57158,275.02207"><g transform="translate(-193.01945,-36.59044)"><g data-paper-data="{&quot;isPaintingLayer&quot;:true}" fill-rule="nonzero" stroke-linejoin="miter" stroke-miterlimit="10" stroke-dasharray="" stroke-dashoffset="0" style="mix-blend-mode: normal"><path d="M199.409,311.61251v-124.43628c1.68419,1.29033 3.79067,2.0571 6.07624,2.0571c5.52285,0 10,-4.47715 10,-10c0,-0.45772 -0.03075,-0.90826 -0.0903,-1.34967c5.25464,-0.2986 9.42364,-4.65427 9.42364,-9.98367c0,-5.52285 -4.47715,-10 -10,-10c-5.52285,0 -10,4.47715 -10,10c0,0.45772 0.03075,0.90826 0.0903,1.34967c-2.06277,0.11722 -3.95824,0.85965 -5.49988,2.04077v-112.90294h91.18203v253.22501z" fill-opacity="0.01" fill="#000000" stroke="none" stroke-width="0" stroke-linecap="butt"/><g><path d="M283.26453,158.67568c1.68201,-1.50795 3.27282,-3.71001 3.27282,-3.71001c0,0 0.82745,3.79771 -0.25625,5.6939c-0.15572,0.27247 -0.52737,0.43597 -0.7387,0.62543c-1.01926,0.91379 -4.85836,1.40244 -6.11527,1.39023c-0.81727,-0.00794 0.75027,-0.28792 0.47547,-0.59444c-0.69742,-0.77793 1.67993,-1.89715 3.36194,-3.40509z" fill="#ffffff" stroke="#000000" stroke-width="2" stroke-linecap="butt"/><path d="M285.38867,153.99257c-0.69518,1.75956 -1.85484,2.95046 -2.59018,2.65993c-0.73534,-0.29052 -0.7679,-1.95245 -0.07272,-3.71201c0.69518,-1.75956 1.73425,-2.9981 1.73425,-2.9981c0,0 1.62382,2.29061 0.92865,4.05017z" fill="#ffffff" stroke="#000000" stroke-width="2" stroke-linecap="butt"/><path d="M281.50847,161.75107c0,0 -3.56249,4.59669 -6.8117,6.02665c-2.20505,0.97043 -4.15875,-0.83946 -5.17074,-1.42359c-2.50318,-1.44486 1.42415,-4.40746 3.89097,-8.68117c2.46684,-4.2737 4.13819,-7.27851 6.64136,-5.83366c1.28982,0.7445 2.71447,2.5703 2.74647,4.92458c0.0301,2.2147 -1.29637,4.98719 -1.29637,4.98719z" fill="#ffffff" stroke="#000000" stroke-width="2" stroke-linecap="butt"/><path d="M272.22422,161.71043c-1.09984,2.78379 -2.31203,3.2646 -3.52009,2.78731c-1.20806,-0.47729 -1.95451,-1.73193 -0.85467,-4.51571c1.09984,-2.78379 1.67561,-1.09716 2.88367,-0.61988c1.20806,0.47729 2.59093,-0.4355 1.49109,2.34828z" fill="#ffffff" stroke="#000000" stroke-width="2" stroke-linecap="butt"/><path d="M270.95497,162.41842l1.88445,1.07437" fill="none" stroke="#ffffff" stroke-width="2" stroke-linecap="round"/><path d="M270.29391,163.25672l1.94432,1.75771" fill="none" stroke="#ffffff" stroke-width="2" stroke-linecap="round"/><path d="M271.24271,158.62893c-0.96495,2.44238 -2.14722,4.70407 -3.27649,4.25791c-1.12927,-0.44616 -1.4926,-3.31849 -0.52765,-5.76087c0.59704,-1.51116 0.48597,-2.98745 1.33583,-3.57385c0.52371,-0.36136 2.02553,-0.21072 2.45609,-0.04062c1.12927,0.44616 0.97717,2.67505 0.01222,5.11743z" fill="#ffffff" stroke="#000000" stroke-width="2" stroke-linecap="butt"/><path d="M271.77799,163.953l-0.93809,-1.79996l0.97099,0.60352" fill="none" stroke="#ffffff" stroke-width="2" stroke-linecap="round"/><path d="M271.42456,165.68249l-1.35608,-1.85515l-1.33846,-2.17803" fill="none" stroke="#ffffff" stroke-width="2" stroke-linecap="round"/><path d="M280.08635,152.94223c-1.24509,3.15146 -4.11492,5.85075 -5.21793,5.41497c-1.10301,-0.43578 0.24852,-2.85535 1.49361,-6.0068c1.24509,-3.15146 2.07125,-4.12936 2.07125,-4.12936c0,0 2.89817,1.56974 1.65307,4.7212z" fill="#ffffff" stroke="#000000" stroke-width="2" stroke-linecap="butt"/><path d="M276.11537,156.87078l-0.97692,2.47269" fill="none" stroke="#ffffff" stroke-width="2" stroke-linecap="round"/><path d="M282.75708,159.15697c-1.52738,1.74027 -2.47051,2.98733 -3.46798,2.11188c-0.99747,-0.87545 -0.56789,-2.99591 0.95949,-4.73618c1.52738,-1.74027 2.24506,-2.4167 3.24254,-1.54125c0.99747,0.87545 0.79333,2.42529 -0.73405,4.16555z" fill="#ffffff" stroke="#000000" stroke-width="2" stroke-linecap="butt"/><path d="M282.48427,153.94555c-1.60223,3.1677 -3.68792,4.63735 -4.74622,4.10206c-1.0583,-0.53529 0.56888,-2.93716 2.17111,-6.10486c1.60223,-3.1677 2.54082,-4.1171 2.54082,-4.1171c0,0 1.63652,2.9522 0.03428,6.1199z" fill="#ffffff" stroke="#000000" stroke-width="2" stroke-linecap="butt"/><path d="M277.43854,159.92236l2.77221,-4.51212" fill="none" stroke="#ffffff" stroke-width="2" stroke-linecap="round"/><path d="M278.79697,162.32817l5.12876,-8.52876" fill="none" stroke="#ffffff" stroke-width="2" stroke-linecap="round"/><path d="M279.30898,157.69273l-1.83879,5.21074" fill="none" stroke="#ffffff" stroke-width="2" stroke-linecap="round"/><path d="M282.93343,161.10378l-3.62922,-0.55427" fill="none" stroke="#ffffff" stroke-width="2" stroke-linecap="round"/><path d="M273.44059,161.97113l-2.09228,-0.82663l2.88134,-1.17054" fill="none" stroke="#ffffff" stroke-width="2" stroke-linecap="round"/><path d="M280.35549,160.77669l1.7628,-2.2355" fill="none" stroke="#000000" stroke-width="1" stroke-linecap="round"/><path d="M280.79078,155.96436l-1.33596,3.38146" fill="none" stroke="#000000" stroke-width="1" stroke-linecap="round"/><path d="M277.35085,156.7554l-0.73063,2.83877" fill="none" stroke="#000000" stroke-width="1" stroke-linecap="round"/></g><path d="M208.28165,186.04413c-2.58256,-2.58069 -4.15314,-5.98987 -4.15314,-9.72745c0,-8.05416 7.29324,-14.58334 16.2899,-14.58334c0.56227,0 1.11789,0.0255 1.6655,0.07529" fill="none" stroke="#f4b700" stroke-width="3" stroke-linecap="butt"/><path d="M206.6923,184.75871c-2.92394,-2.63612 -4.73045,-6.26688 -4.73045,-10.27537c0,-8.05415 7.29323,-14.58333 16.28989,-14.58333c1.10938,0 2.19285,0.09928 3.23994,0.28845" fill="none" stroke="#dea700" stroke-width="3" stroke-linecap="butt"/><path d="M229.59882,184.9467c-0.43872,0.38138 -0.90135,0.74084 -1.38568,1.07641" fill="none" stroke="#dea700" stroke-width="3" stroke-linecap="butt"/><path d="M201.54543,304.39162c0,0 -0.63536,-94.38387 -0.79335,-118.01201c-0.00415,-0.62017 0.03971,-1.35871 0.13839,-2.1941c0.32389,0.03165 0.6523,0.04785 0.9845,0.04785c5.52285,0 10,-4.47715 10,-10c0,-0.45772 -0.03075,-0.90826 -0.0903,-1.34967c5.25464,-0.2986 9.42364,-4.65427 9.42364,-9.98367c0,-2.74852 -1.10885,-5.23805 -2.9036,-7.04565c5.72117,-3.78863 13.13558,-6.34837 22.64939,-6.39586c31.60235,-0.15775 39.85672,29.48704 39.84884,36.89673c-0.07659,46.24274 0.65429,117.98648 0.65429,117.98648l-10.49667,0.09614c0,0 -1.83999,-65.06892 -1.86906,-86.08946c-0.0168,-12.14829 1.71023,-28.75365 1.71023,-28.75365c0,0 0.57549,-7.3493 -2.31625,-7.40415c-3.43441,-0.06514 -3.44538,7.36562 -3.44538,7.36562c0,0 -2.47938,13.27347 -2.46236,22.79397c0.03596,20.10285 2.66783,92.07598 2.66783,92.07598l-48.21366,0.07222l-0.30539,-115.23309c0,0 0.52949,-6.419 -2.6356,-6.43443c-3.11083,-0.01515 -3.06569,6.40899 -3.06569,6.40899l0.35311,115.0668z" fill="#ffffff" stroke="#000000" stroke-width="2" stroke-linecap="butt"/><path d="M256.14252,200.3338c-0.57113,0 -1.03411,-0.46299 -1.03411,-1.03411c0,-0.57113 0.46299,-1.03413 1.03411,-1.03413c0.57113,0 1.03411,0.463 1.03411,1.03413c0,0.57113 -0.46299,1.03411 -1.03411,1.03411z" fill="#000000" stroke="none" stroke-width="1.5" stroke-linecap="butt"/><path d="M250.8827,204.56939c-4.4635,-0.31439 -6.55245,-1.79392 -6.16985,-2.58011c0.11788,-0.24224 2.84645,1.06355 6.97038,1.3048c6.40897,0.37493 8.51033,-0.63173 8.51033,-0.63173v1.34616c0,0 -2.4135,1.04672 -9.31086,0.56089z" fill="#000000" stroke="#000000" stroke-width="0" stroke-linecap="butt"/><path d="M223.06997,199.29969c0,-0.57113 0.46299,-1.03413 1.03411,-1.03413c0.57113,0 1.03413,0.463 1.03413,1.03413c0,0.57113 -0.463,1.03411 -1.03413,1.03411c-0.57113,0 -1.03411,-0.46299 -1.03411,-1.03411z" fill="#000000" stroke="none" stroke-width="1.5" stroke-linecap="butt"/><path d="M229.36395,204.56939c-6.89736,0.48585 -9.31086,-0.56089 -9.31086,-0.56089v-1.34616c0,0 2.10136,1.00666 8.51033,0.63173c4.12393,-0.24126 6.85251,-1.54704 6.97039,-1.3048c0.3826,0.78618 -1.70634,2.26571 -6.16985,2.58011z" fill="#000000" stroke="#000000" stroke-width="0" stroke-linecap="butt"/><path d="M240.6444,261.12113c-0.81895,0 -1.48284,-0.66389 -1.48284,-1.48284c0,-0.81895 0.66389,-1.48284 1.48284,-1.48284c0.81895,0 1.48284,0.66389 1.48284,1.48284c0,0.81895 -0.66389,1.48284 -1.48284,1.48284z" data-paper-data="{&quot;index&quot;:null}" fill="#000000" stroke="none" stroke-width="1.5" stroke-linecap="butt"/><path d="M198.65005,305.59999l0.25,-95.25c0,0 0.28901,-3.09027 1.05139,-4.14373c1.46411,-2.02314 7.12904,-10.74341 10.39644,-14.46287c1.50342,-1.71143 2.30218,-0.39339 2.30218,-0.39339v114.25z" fill="#000000" stroke="none" stroke-width="0" stroke-linecap="butt"/><path d="M198.65719,222.05717c0,0 -1.57143,-0.96371 -1.57143,-1.42857c0,-0.37084 0.71429,-1.57143 0.71429,-1.57143c0,0 4.81793,-0.02508 7.28024,-0.32993c2.53555,-0.31393 7.71976,-1.52721 7.71976,-1.52721c0,0 0.42857,0.42426 0.42857,0.85715c0,0.80155 -0.57143,2.14285 -0.57143,2.14285c0,0 -0.82617,-0.17612 -1.61874,-0.07098c-2.19198,0.29077 -12.38126,1.92813 -12.38126,1.92813z" fill="#ff8500" stroke="none" stroke-width="0" stroke-linecap="butt"/><path d="M198.80003,227.05717c0,0 -1.57143,-0.96371 -1.57143,-1.42857c0,-0.37084 0.71429,-1.57143 0.71429,-1.57143c0,0 4.81793,-0.02508 7.28024,-0.32993c2.53555,-0.31393 7.71976,-1.52721 7.71976,-1.52721c0,0 0.42857,0.42426 0.42857,0.85715c0,0.80155 -0.57143,2.14285 -0.57143,2.14285c0,0 -0.82617,-0.17612 -1.61874,-0.07098c-2.19198,0.29077 -12.38126,1.92813 -12.38126,1.92813z" fill="#de7300" stroke="none" stroke-width="0" stroke-linecap="butt"/><path d="M198.94288,231.48574c0,0 -1.57143,-0.96371 -1.57143,-1.42857c0,-0.37084 0.71429,-1.57143 0.71429,-1.57143c0,0 4.81793,-0.02508 7.28024,-0.32994c2.53555,-0.31393 7.71976,-1.52721 7.71976,-1.52721c0,0 0.42857,0.42426 0.42857,0.85715c0,0.80155 -0.57143,2.14285 -0.57143,2.14285c0,0 -0.82617,-0.17613 -1.61874,-0.07099c-2.19198,0.29077 -12.38126,1.92813 -12.38126,1.92813z" fill="#c76700" stroke="none" stroke-width="0" stroke-linecap="butt"/><path d="M199.08575,235.91431c0,0 -1.57142,-0.96371 -1.57142,-1.42857c0,-0.37084 0.71428,-1.57143 0.71428,-1.57143c0,0 4.81793,-0.02508 7.28024,-0.32994c2.53555,-0.31393 7.71976,-1.52721 7.71976,-1.52721c0,0 0.42857,0.42426 0.42857,0.85715c0,0.80155 -0.57143,2.14285 -0.57143,2.14285c0,0 -0.82617,-0.17613 -1.61874,-0.07099c-2.19198,0.29077 -12.38126,1.92813 -12.38126,1.92813z" fill="#c76700" stroke="none" stroke-width="0" stroke-linecap="butt"/><path d="M198.08576,305.91431v-62.42857l21,16.14286l-0.28571,46.28571z" fill="#af8300" stroke="none" stroke-width="0" stroke-linecap="butt"/><path d="M209.65719,306.05717l0.14286,-53.57143l5.85714,4.42857v49.14286z" fill="#7f5f00" stroke="none" stroke-width="0" stroke-linecap="butt"/><path d="M214.90005,306.09999l-0.25,-87l68.5,50.33204l-0.5,36.44623z" fill="#ffc100" stroke="none" stroke-width="0" stroke-linecap="butt"/><path d="M199.34258,209.60021l-1.58373,-1.52523c0,0 7.5024,-10.63977 10.10261,-13.88232c1.4972,-1.86705 4.11034,-3.84172 4.11034,-3.84172l2.72658,2.9538c0,0 -10.80629,12.45726 -13.12286,15.0758c-0.97935,1.10701 -2.23295,1.21967 -2.23295,1.21967z" fill="#dea700" stroke="none" stroke-width="0" stroke-linecap="butt"/><path d="M260.92492,254.35002v-56.5h3.5c0,0 -1.5,13.84527 -1.5,21.99999c0,10.21192 1.5,34.50001 1.5,34.50001z" fill="#000000" stroke="none" stroke-width="0" stroke-linecap="butt"/><path d="M246.92494,258.84999v-52.5h4v52.5z" fill="#000000" stroke="none" stroke-width="0" stroke-linecap="butt"/><path d="M232.67494,243.35002v-23h3.25v23z" fill="#000000" stroke="none" stroke-width="0" stroke-linecap="butt"/><path d="M240.92494,253.10002v-31.75h3v31.75z" fill="#000000" stroke="none" stroke-width="0" stroke-linecap="butt"/><path d="M217.42494,238.60002v-43.25h3v43.25z" fill="#000000" stroke="none" stroke-width="0" stroke-linecap="butt"/><path d="M226.42494,244.60002v-25.75h3.5v25.75z" fill="#000000" stroke="none" stroke-width="0" stroke-linecap="butt"/><path d="M257.17492,256.34999v-44.5h4v44.5z" fill="#000000" stroke="none" stroke-width="0" stroke-linecap="butt"/><path d="M257.42492,208.60002v-3.25h3.5v3.25z" fill="#000000" stroke="none" stroke-width="0" stroke-linecap="butt"/><path d="M214.92494,239.10002v-19.25l68.5,48.5l-0.25,9.5z" fill="#dea700" stroke="none" stroke-width="0" stroke-linecap="butt"/><path d="M245.24201,275.72641l0.13937,-20.45709l37.76868,-27.9193l-0.13937,48.5z" data-paper-data="{&quot;index&quot;:null}" fill="#d89116" stroke="none" stroke-width="0" stroke-linecap="butt"/><path d="M269.17492,239.35002l0.75,-40.75c0,0 2.28084,32 3.25,32c0.84118,0 -0.42246,-32.98182 1.16787,-40.56961c0.84602,-4.03656 3.84789,34.81015 5.17666,37.80592c1.42764,3.21865 1.15547,-29.23631 1.15547,-29.23631v40.75z" fill="#000000" stroke="none" stroke-width="0" stroke-linecap="butt"/><path d="M256.72193,252.10002l-11.547,3.5l38.75,-28.75l-0.25188,10.75z" fill="#9d6910" stroke="none" stroke-width="0" stroke-linecap="butt"/><path d="M244.92494,306.84999v-51.75h1.5v51.75z" fill="#523708" stroke="none" stroke-width="0" stroke-linecap="butt"/><path d="M219.92494,275.09999v-21h14.75v21z" fill="#dea700" stroke="none" stroke-width="0" stroke-linecap="butt"/><path d="M219.42494,275.09999v-11.5h15.5v11.5z" fill="#aa8000" stroke="none" stroke-width="0" stroke-linecap="butt"/><path d="M259.20829,272.06667v-17.33333h20.83333v17.33333z" fill="#ffc100" stroke="#523708" stroke-width="1" stroke-linecap="butt"/><path d="M261.20829,270.06667v-9.83333h16.66667v9.83333z" fill="#d89116" stroke="#523708" stroke-width="0" stroke-linecap="butt"/><path d="M246.54163,306.23332l-0.33333,0.33333l36.33333,-21.83333v21.5z" fill="#af8300" stroke="none" stroke-width="0" stroke-linecap="butt"/><path d="M255.87496,186.73335v-33.5h2.83333v33.5z" fill="#000000" stroke="none" stroke-width="0" stroke-linecap="butt"/><path d="M259.20829,183.90002v-30.33333h2.16667v30.33333z" fill="#000000" stroke="none" stroke-width="0" stroke-linecap="butt"/><path d="M262.87494,176.73335v-20h2v20z" fill="#000000" stroke="none" stroke-width="0" stroke-linecap="butt"/><path d="M263.04159,182.90002v-4.5h2.16667v4.5z" fill="#000000" stroke="none" stroke-width="0" stroke-linecap="butt"/><path d="M221.20828,192.56669v-13.66667h14v13.66667z" fill="#000000" stroke="none" stroke-width="0" stroke-linecap="butt"/><path d="M231.87496,181.56669v-6.5h6v6.5z" fill="#000000" stroke="none" stroke-width="0" stroke-linecap="butt"/><path d="M267.42492,159.35002l4.25,5.5" fill="none" stroke="#ffffff" stroke-width="1.5" stroke-linecap="round"/><path d="M275.17492,165.35002l-3.25,3.75l2.75,-5.75l-5.75,3.5l3.5,-4.75l-3.75,1l0.25,-5.75" fill="none" stroke="#ffffff" stroke-width="1.5" stroke-linecap="round"/><path d="M272.42492,160.85002l-3.25,1.25" fill="none" stroke="#ffffff" stroke-width="1.5" stroke-linecap="round"/><path d="M267.47497,59.05003l1.125,-6.375" fill="none" stroke="#ffffff" stroke-width="2" stroke-linecap="round"/><path d="M268.84997,62.42503l-0.25,-6.75" fill="none" stroke="#ffffff" stroke-width="2" stroke-linecap="round"/><path d="M252.06387,48.2667h-1.33333" fill="none" stroke="#000000" stroke-width="1" stroke-linecap="round"/><path d="M255.5083,47.71114l-2.55555,-0.66666" fill="none" stroke="#000000" stroke-width="1" stroke-linecap="round"/><path d="M249.06385,53.2667l2.22222,1.44444l2,4.33334" fill="none" stroke="#000000" stroke-width="1" stroke-linecap="round"/><path d="M259.73046,49.82225l-1.66666,-0.77777" fill="none" stroke="#000000" stroke-width="1" stroke-linecap="round"/><g><path d="M196.44194,103.88012c0,0 6.16329,-5.92187 6.29161,-6.78761c0.33654,-2.27063 -0.16776,-40.17317 35.96775,-41.57382c44.63633,-0.91362 39.01489,35.34872 41.53088,42.1903c3.44981,9.38084 6.15664,17.40016 6.15664,17.40016c0,0 -2.76715,-2.05351 -4.0797,-3.13397c-1.2242,-1.00773 -3.80143,-3.14585 -3.80143,-3.14585c0,0 3.09111,10.3481 1.31092,20.69498c-1.5623,9.48098 -7.29782,17.22543 -7.29782,17.22543l-1.15522,-2.34735c0,0 -1.02266,2.19794 -2.16005,3.33274c-1.1374,1.13479 -3.43873,2.91273 -3.43873,2.91273l-0.09205,-3.70421c0,0 -7.0601,11.01795 -24.35066,10.87154c-16.30625,-0.25547 -26.07151,-10.6752 -26.07151,-10.6752l-0.1162,2.65484c0,0 -3.89477,-3.29276 -6.18145,-9.70754c-2.72545,-7.64567 -3.23946,-12.24324 -3.23946,-12.24324c0,0 -2.33908,1.89916 -5.71704,2.7744c-4.23278,1.09673 -6.94665,0.34526 -6.94665,0.34526c0,0 3.60795,-2.71717 5.58396,-4.76989c1.76007,-1.8284 2.64658,-3.37722 2.64658,-3.37722c0,0 -2.10758,1.0847 -4.23277,1.61795c-2.21739,0.5564 -4.03008,0.53093 -4.03008,0.53093c0,0 4.97492,-5.03728 7.03074,-10.87429c1.94102,-5.51108 2.09972,-10.95731 2.09972,-10.95731c0,0 -1.36165,0.66163 -3.33013,0.79513c-1.24776,0.08463 -2.37785,-0.0489 -2.37785,-0.0489z" fill="#000000" stroke="none" stroke-width="1.5" stroke-linecap="butt"/><path d="M245.37498,73.4c0,0 0.06585,-9.8618 -1.08212,-13.83554c-0.56049,-1.94015 -4.08455,-3.33113 -4.08455,-3.33113c0,0 5.60784,-2.63201 16.29473,0.73207c15.21362,4.78903 16.5386,12.26793 16.5386,12.26793l5,10.66667c0,0 -5.30592,-10.52518 -9.98488,-9.27667c-0.34797,0.09285 0.79922,12.51594 0.4428,12.60163c-1.18955,0.28598 -4.25277,-10.80671 -5.47817,-10.64759c-3.82947,0.49726 -5.44833,13.19829 -7.82123,10.99808c-2.25811,-2.09378 -3.227,-20.59917 -4.42372,-20.84309c-2.20773,-0.44998 -5.40147,10.66764 -5.40147,10.66764z" fill="#ff8500" stroke="none" stroke-width="0" stroke-linecap="butt"/><path d="M213.22783,115.20174c-0.35352,-4.46775 -2.58636,-12.77658 -3.10113,-18.9313c-0.32555,-3.89234 0.93613,-7.22318 0.93613,-7.22318l10.97497,7.75936l-0.63183,-7.76459c0,0 23.50951,8.73792 30.69526,10.88936c3.61646,1.08278 9.65484,1.19158 9.65484,1.19158c0,0 -7.90345,-6.73832 -4.78682,-5.94735c6.06486,1.53921 11.02963,5.69128 11.02963,5.69128c0,0 1.28006,7.4327 0.96846,12.99062c-0.42163,5.66922 -2.53327,9.49969 -3.15031,12.52053c-0.54278,2.65731 -0.44758,5.38809 -1.63974,12.74771c-0.16309,1.00681 2.44973,7.90026 2.23352,9.09199c-1.12121,6.18021 -6.96183,3.12466 -12.81942,8.86081c-5.85759,5.73616 -9.05378,9.25275 -13.01359,9.32173c-3.81077,0.06639 -8.93565,-5.1002 -13.93542,-10.38244c-2.25444,-2.38182 -4.18545,-5.07754 -6.18776,-6.05518c-2.72621,-1.33109 -5.24309,-0.84327 -5.72774,-4.68457c-0.20063,-1.59011 1.85055,-7.4333 1.73372,-8.79513c-0.32404,-3.77713 -0.40198,-6.92846 -0.65638,-10.85322c-0.25298,-3.90273 -2.26119,-6.44504 -2.57636,-10.42801z" fill="#ffffff" stroke="#000000" stroke-width="1.5" stroke-linecap="butt"/><path d="M261.29778,100.08138c0,0 1.52429,0.31807 4.2558,1.11029c2.49492,0.72361 4.44935,1.74403 4.44935,1.74403l0.1951,1.17035c0,0 -7.24963,-3.12997 -15.1158,-2.4706c-6.2896,0.52724 -9.96319,2.8124 -9.96319,2.8124l0.04575,-4.17683c0,0 3.12748,-1.70421 7.86366,-1.85557c4.90428,-0.15672 8.09084,0.59125 8.09084,0.59125z" data-paper-data="{&quot;index&quot;:null}" fill="#000000" stroke="none" stroke-width="1.5" stroke-linecap="butt"/><path d="M214.92745,125.32496c0,0 -4.93211,-3.51705 -6.16417,-8.97502c-1.29636,-5.74284 -1.46118,-9.7328 0.48013,-9.99193c1.94131,-0.25915 2.70321,2.37692 3.73262,8.35569c1.0294,5.97877 1.95143,10.61127 1.95143,10.61127z" data-paper-data="{&quot;index&quot;:null}" fill="#ffffff" stroke="#000000" stroke-width="1" stroke-linecap="butt"/><path d="M214.72488,121.3774c0,0 -3.56385,-2.92338 -4.31816,-8.45061c-0.42079,-3.08327 2.15675,-2.28016 2.15675,-2.28016" fill="none" stroke="#000000" stroke-width="0.25" stroke-linecap="round"/><path d="M215.905,114.7215c0.07771,-4.89188 5.30107,-8.93609 11.18796,-8.8582c5.88688,0.0779 9.89058,4.2484 9.81288,9.14029c-0.07771,4.89188 -4.51788,8.79439 -10.40478,8.7165c-5.88688,-0.0779 -10.67378,-4.1067 -10.59607,-8.99859z" fill="#ffffff" stroke="#000000" stroke-width="1.4" stroke-linecap="butt"/><path d="M222.17591,114.83944c0.03999,-2.75843 2.30855,-4.96213 5.06696,-4.92214c2.75843,0.03999 4.96213,2.30855 4.92214,5.06696c-0.03999,2.75843 -2.30854,4.96213 -5.06696,4.92214c-2.75843,-0.03999 -4.96213,-2.30855 -4.92214,-5.06696z" fill="#ff8500" stroke="#000000" stroke-width="1" stroke-linecap="butt"/><path d="M244.7953,114.72223c0.22311,-4.88817 4.88108,-8.85847 10.71062,-8.85847c5.82953,0 10.16695,3.96607 10.16695,8.85847c0,4.8924 -4.25976,9.07104 -10.63296,9.14188c-6.06208,0.06739 -10.47761,-4.03692 -10.24461,-9.14188z" fill="#ffffff" stroke="#000000" stroke-width="1.4" stroke-linecap="butt"/><path d="M249.39729,114.80778c0,-2.81845 2.2848,-5.10325 5.10325,-5.10325c2.81845,0 5.10325,2.2848 5.10325,5.10325c0,2.81845 -2.28479,5.10325 -5.10325,5.10325c-2.81845,0 -5.10325,-2.2848 -5.10325,-5.10325z" fill="#ff8500" stroke="#000000" stroke-width="1" stroke-linecap="butt"/><path d="M215.66983,114.13153c0,0 0.06988,-9.90963 11.65298,-9.70053c10.41075,0.18232 10.50367,10.34064 10.50367,10.34064c0,0 -4.57012,-6.86071 -10.96726,-6.82648c-6.65518,0.03562 -11.18939,6.18637 -11.18939,6.18637z" fill="#ffffff" stroke="#000000" stroke-width="1.15" stroke-linecap="butt"/><path d="M244.41695,114.29933c0,0 -0.27066,-9.8179 12.2777,-9.4494c10.65079,0.34615 10.46714,10.01937 10.46714,10.01937z" fill="#ffffff" stroke="#000000" stroke-width="1.15" stroke-linecap="butt"/><path d="M221.19968,99.67766c0,0 3.36963,-1.819 8.03244,-2.28178c5.16698,-0.51283 7.76823,-0.06628 7.76823,-0.06628l0.29508,4.13747c0,0 -3.83554,-0.68065 -8.01795,-0.52113c-5.59346,0.21333 -6.64488,1.43293 -10.89774,1.89119c-3.64408,0.39266 -6.73723,0.15884 -6.73723,0.15884l-0.02589,-1.23155c0,0 3.59517,0.07398 5.23371,-0.06836c1.35239,-0.11749 3.9757,-0.93808 3.9757,-0.93808z" fill="#000000" stroke="none" stroke-width="1.5" stroke-linecap="butt"/><path d="M269.1606,114.71369c1.0294,-5.97877 1.7913,-8.61483 3.73262,-8.35569c1.94131,0.25914 1.77649,4.24909 0.48013,9.99193c-1.23206,5.45797 -6.16417,8.97502 -6.16417,8.97502c0,0 0.92203,-4.6325 1.95143,-10.61127z" data-paper-data="{&quot;index&quot;:null}" fill="#ffffff" stroke="#000000" stroke-width="1" stroke-linecap="butt"/><path d="M269.57311,110.64663c0,0 2.57754,-0.80312 2.15675,2.28016c-0.75431,5.52723 -4.31816,8.45061 -4.31816,8.45061" data-paper-data="{&quot;index&quot;:null}" fill="none" stroke="#000000" stroke-width="0.25" stroke-linecap="round"/><path d="M238.37496,120.50945c0,6.03484 -6.38511,16.39057 -12,16.39057c-5.61489,0 -10.83333,-9.15642 -10.83333,-15.19126c0,-1.36701 0.25066,-2.06684 0.70368,-2.33162c0.37982,4.29475 2.98783,8.46143 10.12965,8.46143c3.35927,0 6.37463,-2.0985 8.75,-3.9977c1.21478,-0.97127 0.83333,-2.66513 1.25,-3.9977v-1.44956c1.2327,-0.34111 2,0.07638 2,2.11584z" fill="#000000" stroke="#000000" stroke-width="1.4" stroke-linecap="butt"/><path d="M266.87494,120.42738c0,7.16963 -6.3851,19.47264 -12,19.47264c-5.61489,0 -10.83333,-10.87818 -10.83333,-18.04782c0,-1.62406 0.25065,-2.45549 0.70367,-2.77006c0.37982,5.10233 2.98783,10.05252 10.12965,10.05252c3.35927,0 6.37463,-2.4931 8.75,-4.74942c1.21478,-1.1539 0.83334,-3.16629 1.25,-4.74943v-1.72213c1.2327,-0.40526 2,0.09075 2,2.5137z" data-paper-data="{&quot;index&quot;:null}" fill="#000000" stroke="#000000" stroke-width="1.4" stroke-linecap="butt"/><path d="M241.2083,124.73335l1.16667,-0.83333" fill="none" stroke="#000000" stroke-width="1" stroke-linecap="round"/><path d="M239.20326,157.02987c0,0 8.75008,0.81044 10.77791,-0.51046c1.72369,-1.12278 4.64806,-7.59596 5.86887,-7.72394c2.05992,-0.21596 10.416,-0.10654 10.46026,0.26623c0.04328,0.36447 -12.63119,13.70033 -24.74808,13.24714c-8.43221,-0.26686 -16.31142,-7.48289 -20.21379,-11.83539c-2.47009,-2.75501 -6.82763,-3.40377 -6.81296,-3.46934c0.03784,-0.16913 2.6591,-1.60835 7.75024,-0.5816z" fill="#ffffff" stroke="#000000" stroke-width="1.9" stroke-linecap="butt"/><path d="M254.35754,143.66476c2.9637,1.20597 10.41362,5.09294 10.39412,5.2605c-0.0116,0.09963 -4.49741,0.74109 -9.90041,0.33182c-6.12969,-0.46432 -13.26763,-1.99394 -13.26763,-1.99394c0,0 -9.90401,0.43831 -16.07235,-0.84521c-4.94371,-1.02869 -10.59929,-0.26108 -10.60995,-0.35461c-0.01439,-0.12613 0.66835,-2.91071 3.62417,-3.59467c1.14585,-0.49661 15.63971,-2.48513 15.63971,-2.48513l7.86022,4.54345c0,0 5.28219,-3.81633 5.70828,-3.65808c0,0 3.68356,1.59943 6.62384,2.79587z" fill="#ffffff" stroke="#000000" stroke-width="1.4" stroke-linecap="butt"/><path d="M240.85995,144.62884c-1.03376,0 -3.5381,-3.26042 -3.7867,-5.3637c-0.22243,-1.88186 1.31512,-3.82799 3.7867,-3.82799c2.47159,0 4.2021,0.49077 4.02999,4.18853c-0.14607,3.13818 -1.55841,5.00317 -4.02999,5.00317z" fill="#ffffff" stroke="#000000" stroke-width="1.15" stroke-linecap="butt"/><path d="M253.86067,150.27145c0,0.94889 -3.81204,6.60546 -3.81204,6.60546c0,0 -6.09774,-0.10546 -8.90225,-0.10546c-5.64236,0 -16.85714,-8.02545 -16.85714,-9.64286c0,-1.61741 10.5005,0.21429 17.28571,0.21429c6.78521,0 12.28571,1.31117 12.28571,2.92857z" fill="#000000" stroke="none" stroke-width="0" stroke-linecap="butt"/><path d="M241.28926,147.48572l12.85714,2.14286l-1.71429,3.14286l-1.42857,-3.42857l-2,3.14286l-1.14286,-3.28571l-2.14286,3.14286l-1.71429,-3.85714l-2.28571,3.85714l-1.85714,-4.42857l-1.71429,4l-2.14286,-4l-2,3.28571l-3.14286,-4.14286l-2.14285,3.42857l-2.71428,-3.71428z" fill="#ffffff" stroke="#000000" stroke-width="1" stroke-linecap="round"/><path d="M244.46208,114.53512c0,0 0.1026,3.96976 0.00576,7.12662c-0.19174,6.25113 -1.08147,27.7607 -1.08147,27.7607l-2.98167,0.00864c0,0 -0.80294,-4.17274 -1.12322,-9.49979c-0.16454,-2.73676 -0.56865,-17.56054 -0.76344,-19.63229c-0.29758,-3.16513 -0.89593,-5.71453 -0.89593,-5.71453" fill="#ffffff" stroke="#000000" stroke-width="1.3" stroke-linecap="round"/><path d="M239.37496,125.56669l3.83333,-3v2z" fill="none" stroke="#000000" stroke-width="1" stroke-linecap="round"/><path d="M239.20828,126.90002l4.66667,6l-4.33333,-3.83333z" fill="none" stroke="#000000" stroke-width="1" stroke-linecap="round"/></g><path d="M260.16499,50.27705c1.22121,6.13894 -1.05937,11.42628 -4.61032,12.13267c-2.43463,0.48432 -9.67684,-0.44017 -12.69765,-3.52567c-1.27255,-1.2998 -1.09454,-5.81403 -1.09454,-5.81403c0,0 2.23804,2.44169 4.07198,2.58824c1.29618,0.10357 2.31513,-1.8882 2.53156,-2.51705c0.27288,-0.79288 -3.0692,-3.60301 -3.82218,-5.7801c-0.89576,-2.58989 3.77387,-7.51157 3.77387,-7.51157c0,0 -0.24509,1.88537 -0.06047,3.82896c0.02589,0.27262 0.46072,2.3831 0.82342,2.98346c1.24195,2.0557 1.26612,2.30618 1.26612,2.30618c0,0 -0.75301,-3.10105 0.23126,-6.39621c0.81237,-2.7197 3.93576,-2.95448 3.93576,-2.95448l-1.15197,6.55401c0,0 1.11684,-0.60603 1.99257,-2.21991c1.25162,-2.30662 3.37663,-4.31689 3.37663,-4.31689c0,0 -1.19275,4.94571 -0.69095,8.41329c0.03585,0.24774 0.08142,-1.85992 1.09403,-3.26891c1.22554,-1.70528 3.45444,-2.80031 3.45444,-2.80031c0,0 -2.49499,7.93921 -2.42355,8.29836z" fill="#ffffff" stroke="#000000" stroke-width="2" stroke-linecap="butt"/><g><path d="M273.5385,55.01583c1.23495,-2.46989 2.05443,-5.68795 2.05443,-5.68795c0,0 2.64654,3.94593 2.2662,6.58847c-0.05465,0.37972 -0.40374,0.73253 -0.5589,1.04285c-0.74835,1.49671 -4.89351,3.77666 -6.32798,4.32735c-0.93272,0.35807 0.72365,-0.66434 0.27355,-0.88939c-1.14232,-0.57117 1.05776,-2.91143 2.29271,-5.38132z" fill="#ffffff" stroke="#000000" stroke-width="2" stroke-linecap="butt"/><path d="M273.84993,48.73752c0,2.31269 -0.7835,4.1875 -1.75,4.1875c-0.9665,0 -1.75,-1.87481 -1.75,-4.1875c0,-2.31269 0.625,-4.1875 0.625,-4.1875c0,0 2.875,1.87481 2.875,4.1875z" fill="#ffffff" stroke="#000000" stroke-width="2" stroke-linecap="butt"/><path d="M272.92341,59.30099c0,0 -1.98548,6.82613 -5.0372,9.91129c-2.07103,2.09372 -5.10513,0.91361 -6.51802,0.70408c-3.49484,-0.5183 -0.3606,-5.65051 0.5243,-11.6173c0.88491,-5.96679 1.43539,-10.13367 4.93022,-9.61537c1.8008,0.26707 4.24058,1.7029 5.33443,4.3651c1.029,2.50436 0.76627,6.25221 0.76627,6.25221z" fill="#ffffff" stroke="#000000" stroke-width="2" stroke-linecap="butt"/><path d="M262.34993,63.42502c0,3.65889 -1.16218,4.75 -2.75,4.75c-1.58782,0 -3,-1.09111 -3,-4.75c0,-3.65889 1.41218,-2 3,-2c1.58782,0 2.75,-1.65889 2.75,2z" fill="#ffffff" stroke="#000000" stroke-width="2" stroke-linecap="butt"/><path d="M261.22493,64.80002l2.625,0.375" fill="none" stroke="#ffffff" stroke-width="2" stroke-linecap="round"/><path d="M263.84993,67.17502l-3,-1.125" fill="none" stroke="#ffffff" stroke-width="2" stroke-linecap="round"/><path d="M259.84993,60.36252c0,3.21016 -0.32823,6.3125 -1.8125,6.3125c-1.48427,0 -3.1875,-3.10234 -3.1875,-6.3125c0,-1.9862 -0.78938,-3.61471 -0.08657,-4.66312c0.43309,-0.64607 2.20816,-1.14938 2.77407,-1.14938c1.48427,0 2.3125,2.60234 2.3125,5.8125z" fill="#ffffff" stroke="#000000" stroke-width="2" stroke-linecap="butt"/><path d="M262.84993,66.17502l-1.875,-1.625l1.375,0.25" fill="none" stroke="#ffffff" stroke-width="2" stroke-linecap="round"/><path d="M263.22493,68.30002l-2.375,-1.5l-2.5,-1.875" fill="none" stroke="#ffffff" stroke-width="2" stroke-linecap="round"/><path d="M267.34993,49.92502c0,4.14214 -2.05025,8.5 -3.5,8.5c-1.44975,0 -1,-3.35786 -1,-7.5c0,-4.14214 0.5,-5.625 0.5,-5.625c0,0 4,0.48286 4,4.625z" fill="#ffffff" stroke="#000000" stroke-width="2" stroke-linecap="butt"/><path d="M264.59993,59.42502v-3.25" fill="none" stroke="#ffffff" stroke-width="2" stroke-linecap="round"/><path d="M273.17774,55.79093c-0.9548,2.66456 -1.46689,4.50596 -2.99414,3.9587c-1.52725,-0.54726 -1.9913,-3.15096 -1.03651,-5.81551c0.9548,-2.66456 1.46689,-3.75596 2.99414,-3.2087c1.52725,0.54726 1.9913,2.40096 1.03651,5.06551z" fill="#ffffff" stroke="#000000" stroke-width="2" stroke-linecap="butt"/><path d="M270.52678,49.98862c-0.39873,4.32102 -2.10982,6.9287 -3.55343,6.79548c-1.44361,-0.13321 -0.67253,-3.59477 -0.2738,-7.91579c0.39873,-4.32102 1.03936,-5.82198 1.03936,-5.82198c0,0 3.1866,2.62127 2.78786,6.94229z" fill="#ffffff" stroke="#000000" stroke-width="2" stroke-linecap="butt"/><path d="M268.59993,52.67502l-1.125,6.375" fill="none" stroke="#ffffff" stroke-width="2" stroke-linecap="round"/><path d="M272.09993,49.17502l-2,12" fill="none" stroke="#ffffff" stroke-width="2" stroke-linecap="round"/><path d="M268.84993,62.42502l-0.25,-6.75" fill="none" stroke="#ffffff" stroke-width="2" stroke-linecap="round"/><path d="M269.87771,58.92502l4.375,-1" fill="none" stroke="#ffffff" stroke-width="2" stroke-linecap="round"/><path d="M263.84993,63.17502h-2.75l2.75,-2.625" fill="none" stroke="#ffffff" stroke-width="2" stroke-linecap="round"/><path d="M271.17492,58.71113l1,-3.33333" fill="none" stroke="#000000" stroke-width="1" stroke-linecap="round"/><path d="M269.50825,53.04446v4.44444" fill="none" stroke="#000000" stroke-width="1" stroke-linecap="round"/><path d="M266.39714,59.04447l-0.44444,-3.55556" fill="none" stroke="#000000" stroke-width="1" stroke-linecap="round"/></g></g></g></svg>