<svg version="1.1" xmlns="http://www.w3.org/2000/svg" xmlns:xlink="http://www.w3.org/1999/xlink" width="161.73032" height="265.78776" viewBox="0,0,161.73032,265.78776"><g transform="translate(-189.22908,-39.71209)"><g data-paper-data="{&quot;isPaintingLayer&quot;:true}" fill-rule="nonzero" stroke-linejoin="miter" stroke-miterlimit="10" stroke-dasharray="" stroke-dashoffset="0" style="mix-blend-mode: normal"><path d="M309.26889,73.8087l-3.85256,-5.79373l39.95749,-26.56985l3.85256,5.79373z" fill="#000000" stroke="#000000" stroke-width="2.5" stroke-linecap="butt"/><path d="M265.18496,108.21022c-27.34772,9.2047 -20.15084,-12.68234 -20.15084,-12.68234l65.52051,-35.68106l17.18853,8.95162c0,0 -35.21047,30.20708 -62.55819,39.41178z" fill="#ffffff" stroke="#000000" stroke-width="2.5" stroke-linecap="butt"/><path d="M201.54536,304.39159c0,0 -0.63536,-94.38387 -0.79335,-118.01201c-0.05451,-8.15261 8.18688,-36.76129 40.20201,-36.9211c31.60235,-0.15775 39.85672,29.48704 39.84884,36.89673c-0.07659,46.24274 0.65429,117.98648 0.65429,117.98648l-10.49667,0.09614l-0.15882,-114.84311c0,0 0.07549,-3.0993 -2.81625,-3.15415c-3.43441,-0.06514 -2.94538,3.11562 -2.94538,3.11562l0.20548,114.86995l-48.21366,0.07222l-0.30539,-115.23309c0,0 0.27949,-2.919 -2.8856,-2.93443c-3.11083,-0.01515 -2.81569,2.90899 -2.81569,2.90899l0.35311,115.0668z" fill="#000000" stroke="#000000" stroke-width="2" stroke-linecap="butt"/><path d="M256.14252,200.33377c-0.57113,0 -1.03411,-0.46299 -1.03411,-1.03411c0,-0.57113 0.46299,-1.03413 1.03411,-1.03413c0.57113,0 1.03411,0.463 1.03411,1.03413c0,0.57113 -0.46299,1.03411 -1.03411,1.03411z" fill="#000000" stroke="none" stroke-width="1.5" stroke-linecap="butt"/><path d="M250.88266,204.56936c-4.4635,-0.31439 -6.55245,-1.79392 -6.16985,-2.58011c0.11788,-0.24224 2.84645,1.06355 6.97038,1.3048c6.40897,0.37493 8.51033,-0.63173 8.51033,-0.63173v1.34616c0,0 -2.4135,1.04672 -9.31086,0.56089z" fill="#000000" stroke="#000000" stroke-width="0" stroke-linecap="butt"/><path d="M223.06989,199.29966c0,-0.57113 0.46299,-1.03413 1.03411,-1.03413c0.57113,0 1.03413,0.463 1.03413,1.03413c0,0.57113 -0.463,1.03411 -1.03413,1.03411c-0.57113,0 -1.03411,-0.46299 -1.03411,-1.03411z" fill="#000000" stroke="none" stroke-width="1.5" stroke-linecap="butt"/><path d="M229.36387,204.56936c-6.89736,0.48585 -9.31086,-0.56089 -9.31086,-0.56089v-1.34616c0,0 2.10136,1.00666 8.51033,0.63173c4.12393,-0.24126 6.85251,-1.54704 6.97039,-1.3048c0.3826,0.78618 -1.70634,2.26571 -6.16985,2.58011z" fill="#000000" stroke="#000000" stroke-width="0" stroke-linecap="butt"/><path d="M240.64437,261.12113c-0.81895,0 -1.48284,-0.66389 -1.48284,-1.48284c0,-0.81895 0.66389,-1.48284 1.48284,-1.48284c0.81895,0 1.48284,0.66389 1.48284,1.48284c0,0.81895 -0.66389,1.48284 -1.48284,1.48284z" data-paper-data="{&quot;index&quot;:null}" fill="#000000" stroke="none" stroke-width="1.5" stroke-linecap="butt"/><path d="M216.58108,304.40602v-119.20147c0,0 0.75721,-9.73105 0.75721,-14.63937c0,-4.498 -0.75721,-13.6872 -0.75721,-13.6872c0,0 2.67319,-2.35297 4.6557,-3.74807c1.98251,-1.3951 5.17197,-2.80371 5.17197,-2.80371c0,0 -0.6016,40.10902 14.55952,40.03867c15.43477,-0.07162 13.83154,-40.03867 13.83154,-40.03867c0,0 3.91276,1.51959 6.16585,2.94655c2.25309,1.42695 4.75379,3.60523 4.75379,3.60523c0,0 -0.75721,9.42463 -0.75721,14.19201c0,4.84193 0.75721,14.63937 0.75721,14.63937v118.69667z" fill="#ffffff" stroke="#000000" stroke-width="2" stroke-linecap="butt"/><path d="M190.63606,108.11959c0,0 5.57378,-6.47979 5.6194,-7.3538c0.11964,-2.29231 -3.97766,-39.97612 31.86205,-44.79812c44.34841,-5.14352 42.19201,31.48854 45.34562,38.06062c4.32408,9.01131 7.77939,16.73771 7.77939,16.73771c0,0 -2.94947,-1.78177 -4.35858,-2.73286c-1.31427,-0.88707 -4.08269,-2.77107 -4.08269,-2.77107c0,0 4.05875,10.00823 3.26805,20.47732c-0.65593,9.58643 -5.63098,17.84 -5.63098,17.84l-1.37267,-2.22718c0,0 -0.80956,2.28504 -1.83418,3.52261c-1.02463,1.23757 -3.14694,3.22578 -3.14694,3.22578l-0.443,-3.67878c0,0 -5.98314,11.63796 -23.20964,13.13233c-16.25696,1.29243 -26.96656,-8.15403 -26.96656,-8.15403l0.13615,2.65389c0,0 -4.18954,-2.90847 -7.07439,-9.07742c-3.4384,-7.35267 -4.38619,-11.88075 -4.38619,-11.88075c0,0 -2.14839,2.11247 -5.42809,3.30418c-4.10967,1.49329 -6.88258,1.00263 -6.88258,1.00263c0,0 3.33395,-3.04715 5.10633,-5.27806c1.5787,-1.98711 2.31429,-3.61304 2.31429,-3.61304c0,0 -1.99519,1.27972 -4.06022,2.01215c-2.15462,0.76422 -3.96155,0.91081 -3.96155,0.91081c0,0 4.47467,-5.48647 5.96755,-11.49216c1.40951,-5.67034 1.05089,-11.10708 1.05089,-11.10708c0,0 -1.29275,0.7878 -3.23969,1.10743c-1.23411,0.2026 -2.37177,0.17687 -2.37177,0.17687z" fill="#000000" stroke="none" stroke-width="1.5" stroke-linecap="butt"/><path d="M208.42019,117.79792c-1.26629,-7.20561 -1.29371,-17.10891 -1.29371,-17.10891c0,0 3.3913,-0.36457 13.5533,-4.44992c7.80709,-3.13864 19.55474,-11.39347 19.55474,-11.39347c0,0 -1.86527,3.19638 -2.96937,4.76329c-1.17379,1.66581 -3.54209,4.92115 -3.54209,4.92115c0,0 7.64447,-2.40357 14.15999,-6.09997c8.19435,-4.33257 9.97059,-7.03056 12.45639,-5.80041c2.93385,1.45188 3.22443,22.98046 3.44144,28.54288c0.11803,5.68365 -1.62075,9.69716 -1.94846,12.7629c-0.32771,3.06575 0.17434,6.1478 -0.67481,16.17665c-0.52992,6.2587 -3.29651,9.27919 -8.58358,15.5451c-5.28707,6.26592 -8.13528,10.06984 -12.07069,10.51411c-3.78729,0.42756 -9.37915,-4.22961 -14.85742,-9.01377c-5.83347,-5.09437 -9.63898,-7.59707 -11.1078,-14.14991c-1.32282,-5.90152 -1.71291,-9.79019 -2.56399,-15.0731c-0.62203,-3.86114 -2.86235,-6.20149 -3.55391,-10.13661z" fill="#000000" stroke="#000000" stroke-width="1.5" stroke-linecap="butt"/><path d="M254.8392,98.18601c0,0 1.54759,0.17205 4.34192,0.70159c2.55231,0.48369 4.59472,1.31412 4.59472,1.31412l0.30524,1.14656c0,0 -7.51384,-2.42819 -15.28199,-1.02564c-6.21123,1.12147 -9.6515,3.74479 -9.6515,3.74479l-0.35066,-4.16234c0,0 2.95172,-1.99319 7.65219,-2.59312c4.8673,-0.62122 8.11044,-0.17888 8.11044,-0.17888z" data-paper-data="{&quot;index&quot;:null}" fill="#000000" stroke="none" stroke-width="1.5" stroke-linecap="butt"/><path d="M262.41962,160.98936c0.4633,0.39446 2.41751,2.37117 4.76994,4.50255c2.37117,2.14836 5.99149,4.62558 5.91576,4.77632c-0.09612,0.1913 -9.88101,-3.36177 -13.06811,-4.09261c-2.67083,-0.61246 -6.52563,-1.62862 -6.52563,-1.62862c0,0 -6.27608,-3.52524 -11.63138,-6.84437c-4.29209,-2.66016 -9.20084,-5.12338 -9.17881,-5.2149c0.02969,-0.12343 3.87773,0.65761 6.88899,1.02771c1.24664,-0.07398 5.61931,0.46841 5.61931,0.46841c0,0 4.75105,1.43703 6.94944,3.15057c2.35555,1.83605 1.826,3.26899 2.05061,3.37591c0,0 1.712,-1.23769 2.94654,-1.16566c1.23454,0.07204 4.91725,1.35004 5.26334,1.64469z" fill="#000000" stroke="#000000" stroke-width="1.4" stroke-linecap="butt"/><path d="M243.34011,158.87851c4.43126,2.70884 10.23451,6.72045 10.23451,6.72045c0,0 5.9724,0.5219 8.56405,1.17051c2.00924,0.50284 10.77927,3.17885 10.69314,3.54422c-0.08421,0.35724 -12.90431,9.0255 -24.13263,4.44846c-12.78691,-5.12689 -16.29534,-22.05306 -16.20185,-22.19899c0.09349,-0.14593 6.41152,3.60652 10.84278,6.31537z" fill="#000000" stroke="#000000" stroke-width="1.9" stroke-linecap="butt"/><path d="M239.45037,114.17155c0,0 0.47869,3.94213 0.68173,7.09394c0.40208,6.24113 1.55667,27.73811 1.55667,27.73811l-2.96741,0.29143c0,0 -1.19513,-4.07777 -2.01926,-9.35041c-1.11554,-7.13699 -1.99298,-16.1771 -2.62223,-19.47135c-0.59647,-3.12263 -1.43395,-5.60378 -1.43395,-5.60378" fill="#000000" stroke="#000000" stroke-width="1.3" stroke-linecap="round"/><path d="M211.07245,127.71427c0,0 -5.24348,-3.03335 -6.98771,-8.34985c-1.83525,-5.59398 -2.37781,-9.55031 -0.46983,-9.99242c1.90798,-0.44213 2.91648,2.10979 4.50837,7.96395c1.59188,5.85416 2.94917,10.37832 2.94917,10.37832z" data-paper-data="{&quot;index&quot;:null}" fill="#000000" stroke="#000000" stroke-width="1" stroke-linecap="butt"/><path d="M210.49628,123.80373c0,0 -3.82508,-2.57214 -5.10029,-8.00291c-0.71136,-3.02946 1.93073,-2.47446 1.93073,-2.47446" fill="none" stroke="#000000" stroke-width="0.25" stroke-linecap="round"/><path d="M211.16727,117.70088c-0.39341,-4.87655 3.96888,-9.35474 9.32507,-9.78686c5.35619,-0.43211 9.38952,3.37295 9.78295,8.24951c0.39341,4.87655 -3.27073,9.14588 -8.62692,9.578c-5.35619,0.43211 -10.08769,-3.16409 -10.48111,-8.04065z" fill="#ffffff" stroke="#000000" stroke-width="1.4" stroke-linecap="butt"/><path d="M239.79909,114.32628c-0.26106,-4.88543 3.59228,-9.24088 8.88615,-9.74532c5.29385,-0.50443 9.60891,3.06844 10.07299,7.93879c0.46407,4.87034 -3.00789,9.39873 -8.78874,10.02072c-5.49865,0.59164 -9.89775,-3.1121 -10.1704,-8.2142z" fill="#ffffff" stroke="#000000" stroke-width="1.4" stroke-linecap="butt"/><path d="M215.31044,106.06736c0,0 3.1819,-2.13043 7.77978,-3.03341c5.09504,-1.00063 7.72692,-0.80284 7.72692,-0.80284l0.68621,4.09083c0,0 -3.88281,-0.31376 -8.03123,0.24177c-5.548,0.74294 -6.47899,2.05678 -10.66921,2.91638c-3.59041,0.73655 -6.69178,0.79718 -6.69178,0.79718l-0.14259,-1.22354c0,0 3.58598,-0.26738 5.20363,-0.5645c1.33515,-0.24525 3.86879,-1.31097 3.86879,-1.31097z" fill="#000000" stroke="none" stroke-width="1.5" stroke-linecap="butt"/><path d="M264.0545,112.00651c0.45763,-6.04945 0.96605,-8.7459 2.9232,-8.67207c1.95713,0.07382 2.17153,4.06142 1.42576,9.90134c-0.70878,5.55023 -5.28504,9.51925 -5.28504,9.51925c0,0 0.47846,-4.69907 0.93609,-10.74853z" data-paper-data="{&quot;index&quot;:null}" fill="#000000" stroke="#000000" stroke-width="1" stroke-linecap="butt"/><path d="M264.07941,107.91865c0,0 2.48974,-1.04399 2.36331,2.06529c-0.22661,5.57386 -3.4971,8.82211 -3.4971,8.82211" data-paper-data="{&quot;index&quot;:null}" fill="none" stroke="#000000" stroke-width="0.25" stroke-linecap="round"/><g stroke="#000000" stroke-width="2.5"><path d="M199.76552,213.26278v-24.83179h89.36169v24.83179z" fill="#ffffff" stroke-linecap="butt"/><path d="M232.21364,188.71553l4.19337,24.33938" fill="none" stroke-linecap="round"/><path d="M269.75892,213.73839l-4.19337,-24.33938" fill="none" stroke-linecap="round"/><path d="M254.88738,213.94703l-4.19337,-24.33938" fill="none" stroke-linecap="round"/><path d="M219.98098,188.66038l4.19337,24.33938" fill="none" stroke-linecap="round"/><path d="M209.77271,188.65799l8.35057,24.33938" fill="none" stroke-linecap="round"/><path d="M283.51779,213.12048l-4.19337,-24.33938" fill="none" stroke-linecap="round"/></g><g stroke="#000000" stroke-width="2.5"><path d="M195.12075,253.50097v-24.83178h89.36169v24.83178z" fill="#ffffff" stroke-linecap="butt"/><path d="M227.56893,228.95372l4.19338,24.33937" fill="none" stroke-linecap="round"/><path d="M265.11418,253.97657l-4.19338,-24.33938" fill="none" stroke-linecap="round"/><path d="M246.04924,229.84584l4.19338,24.33938" fill="none" stroke-linecap="round"/><path d="M215.33628,228.89857l4.19338,24.33938" fill="none" stroke-linecap="round"/><path d="M205.12799,228.89618l8.35057,24.33937" fill="none" stroke-linecap="round"/><path d="M278.87303,253.35866l-4.19338,-24.33938" fill="none" stroke-linecap="round"/></g><g stroke="#000000" stroke-width="2.5"><path d="M196.38096,290.48348v-24.83179h89.36169v24.83179z" fill="#ffffff" stroke-linecap="butt"/><path d="M228.82911,265.93624l4.19338,24.33938" fill="none" stroke-linecap="round"/><path d="M266.37438,290.95909l-4.19338,-24.33938" fill="none" stroke-linecap="round"/><path d="M247.30942,266.82835l4.19338,24.33938" fill="none" stroke-linecap="round"/><path d="M216.59647,265.88109l4.19338,24.33938" fill="none" stroke-linecap="round"/><path d="M214.73876,290.21807l-8.35057,-24.33937" fill="none" stroke-linecap="round"/><path d="M280.13323,290.34118l-4.19338,-24.33938" fill="none" stroke-linecap="round"/></g></g></g></svg>