<svg version="1.1" xmlns="http://www.w3.org/2000/svg" xmlns:xlink="http://www.w3.org/1999/xlink" width="102.16612" height="251.40306" viewBox="0,0,102.16612,251.40306"><g transform="translate(-189.30789,-54.83245)"><g data-paper-data="{&quot;isPaintingLayer&quot;:true}" fill-rule="nonzero" stroke-linejoin="miter" stroke-miterlimit="10" stroke-dasharray="" stroke-dashoffset="0" style="mix-blend-mode: normal"><path d="M197.83777,91.11215c-0.66398,-1.26731 -2.10603,1.30659 -2.10603,1.30659c0,0 -0.46647,-3.41608 1.04213,-7.47876c1.9672,-5.29768 6.46137,-12.0066 11.25779,-16.85039c8.37896,-8.46166 21.0495,-12.82569 31.8152,-13.24298c19.32091,-0.39546 31.76647,7.55683 38.15297,16.21189c9.31145,12.61897 5.03927,28.95846 6.62709,33.27612c3.67041,9.98068 6.84709,19.25471 6.84709,19.25471c0,0 -5.31824,0.63447 -6.71471,-0.51507c-1.30247,-1.07217 0.7281,0.68874 -1.16592,11.69724c-0.50449,3.0616 -2.99968,8.65679 -6.74502,12.68756c-2.71323,2.91999 -8.28702,14.4603 -8.63935,17.21938c-3.83869,-2.50881 -5.68531,-7.27556 -8.06988,-5.96926c-6.4708,3.54478 -13.46904,5.91973 -19.87591,5.86548c-11.2817,-0.17675 -15.35773,-5.58781 -20.3371,-9.94176c-0.18691,-0.16343 -2.77332,2.23901 -3.02557,2.00432c-1.82503,-1.69804 -6.86709,-1.26474 -6.86709,-1.26474c0,0 -4.44722,-2.83435 -6.88012,-9.65932c-2.89973,-8.13456 -0.7757,-13.02612 -0.7757,-13.02612c0,0 -0.93651,8.59377 -1.84324,7.22425c-0.41851,-0.6321 -2.65183,-2.60345 -3.38479,-5.73168c-1.03013,-4.39662 -0.54376,-10.21011 -0.54376,-10.21011c0,0 -1.2789,0.87996 -2.01066,1.21364c-0.87974,0.40117 -2.90609,1.02842 -2.90609,1.02842c0,0 0.60407,-1.61324 1.82708,-4.37676c0.84235,-1.9034 1.98542,-7.19573 1.98542,-7.19573c0,0 -0.94688,0.51907 -1.47392,0.64281c-0.60969,0.14314 -1.97249,0.16632 -1.97249,0.16632c0,0 2.52633,-4.80698 4.11469,-10.17654c1.93629,-6.5458 1.94487,-13.63088 1.66788,-14.15954z" fill="#000000" stroke="none" stroke-width="1.5" stroke-linecap="butt"/><path d="M201.54538,304.39162c0,0 -0.63536,-94.38387 -0.79335,-118.01201c-0.05451,-8.15261 8.18688,-36.76129 40.20201,-36.9211c31.60235,-0.15775 39.85672,29.48704 39.84884,36.89673c-0.07659,46.24274 0.65429,117.98648 0.65429,117.98648l-10.49667,0.09614l-0.15882,-114.84311c0,0 0.07549,-3.0993 -2.81625,-3.15415c-3.43441,-0.06514 -2.94538,3.11562 -2.94538,3.11562l0.20548,114.86995l-48.21366,0.07222l-0.30539,-115.23309c0,0 0.27949,-2.919 -2.8856,-2.93443c-3.11083,-0.01515 -2.81569,2.90899 -2.81569,2.90899l0.35311,115.0668z" fill="#9ec3be" stroke="#000000" stroke-width="2" stroke-linecap="butt"/><path d="M256.14252,200.33381c-0.57113,0 -1.03411,-0.46299 -1.03411,-1.03411c0,-0.57113 0.46299,-1.03413 1.03411,-1.03413c0.57113,0 1.03411,0.463 1.03411,1.03413c0,0.57113 -0.46299,1.03411 -1.03411,1.03411z" fill="#000000" stroke="none" stroke-width="1.5" stroke-linecap="butt"/><path d="M223.06991,199.2997c0,-0.57113 0.46299,-1.03413 1.03411,-1.03413c0.57113,0 1.03413,0.463 1.03413,1.03413c0,0.57113 -0.463,1.03411 -1.03413,1.03411c-0.57113,0 -1.03411,-0.46299 -1.03411,-1.03411z" fill="#000000" stroke="none" stroke-width="1.5" stroke-linecap="butt"/><path d="M246.30313,301.72852c1.8661,-30.37323 2.14193,-91.57416 2.73786,-125.75488c0.06223,-3.56933 9.39154,-9.89262 9.47222,-12.72315c0.22654,-7.9478 -9.10735,-13.07813 -8.64366,-12.98604c24.26441,4.81907 30.92491,29.41898 30.91783,36.07531c-0.07659,46.24274 0.65429,117.98648 0.65429,117.98648l-10.49667,0.09614l-0.15882,-114.84311c0,0 0.07549,-3.0993 -2.81625,-3.15415c-3.43441,-0.06514 -2.94538,3.11562 -2.94538,3.11562l0.20548,114.86995l-18.54143,0.02777c-0.19154,-0.15783 -0.38905,-0.30866 -0.59215,-0.45212c0.08877,-0.72557 0.15879,-1.47833 0.20668,-2.25783z" fill="#ebebeb" stroke="#ebebeb" stroke-width="3.5" stroke-linecap="butt"/><path d="M201.52988,304.37613c0,0 -0.63536,-94.38387 -0.79335,-118.01201c-0.04786,-7.15826 6.29994,-30.08697 29.52055,-35.68175c0.5555,-0.13384 -5.27328,3.97714 -5.04723,12.15077c0.0954,3.44945 6.34268,8.25666 6.40302,12.74871c0.4687,34.89263 0.09128,97.32611 2.15303,126.52053c0.05612,0.79464 0.14248,1.56229 0.25424,2.30212c-0.02158,0.01759 -0.04309,0.03527 -0.06452,0.05303l-16.93926,0.02537l-0.30539,-115.23309c0,0 0.27949,-2.919 -2.8856,-2.93443c-3.11083,-0.01515 -2.81569,2.90899 -2.81569,2.90899l0.35311,115.0668z" fill="#ebebeb" stroke="#ebebeb" stroke-width="3.5" stroke-linecap="butt"/><path d="M213.22777,115.20178c-0.57709,-7.29323 0.335,-17.15448 0.335,-17.15448c0,0 3.41059,-0.04124 13.91429,-3.14424c8.0696,-2.38394 20.54731,-9.48722 20.54731,-9.48722c0,0 -2.16005,3.00503 -3.40781,4.46015c-1.32651,1.54696 -3.99292,4.56297 -3.99292,4.56297c0,0 7.838,-1.66761 14.67476,-4.72931c8.56837,-3.53575 10.59252,-6.05309 12.95042,-4.5927c2.7829,1.72362 1.03006,23.1827 0.71846,28.74062c-0.42163,5.66922 -2.53327,9.49969 -3.15031,12.52053c-0.61704,3.02084 -0.4096,6.13662 -2.20622,16.0397c-1.12121,6.18021 -4.16183,8.92466 -10.01942,14.66081c-5.85759,5.73616 -9.05378,9.25275 -13.01359,9.32173c-3.81077,0.06639 -8.93565,-5.1002 -13.93542,-10.38244c-5.32393,-5.62474 -8.87489,-8.47713 -9.71551,-15.13975c-0.75707,-6.00039 -0.77653,-9.90853 -1.12266,-15.24835c-0.25298,-3.90273 -2.26119,-6.44504 -2.57636,-10.42801z" fill="#ffffff" stroke="#000000" stroke-width="1.5" stroke-linecap="butt"/><path d="M261.29778,100.08142c0,0 1.52429,0.31807 4.2558,1.11029c2.49492,0.72361 4.44935,1.74403 4.44935,1.74403l0.1951,1.17035c0,0 -7.24963,-3.12997 -15.1158,-2.4706c-6.2896,0.52724 -9.96319,2.8124 -9.96319,2.8124l0.04575,-4.17683c0,0 3.12748,-1.70421 7.86366,-1.85557c4.90428,-0.15672 8.09084,0.59125 8.09084,0.59125z" data-paper-data="{&quot;index&quot;:null}" fill="#000000" stroke="none" stroke-width="1.5" stroke-linecap="butt"/><path d="M240.85992,144.62885c-1.03376,0 -3.5381,-3.26042 -3.7867,-5.3637c-0.22243,-1.88186 1.31512,-3.82799 3.7867,-3.82799c2.47159,0 4.2021,0.49077 4.02999,4.18853c-0.14607,3.13818 -1.55841,5.00317 -4.02999,5.00317z" fill="#ffffff" stroke="#000000" stroke-width="1.15" stroke-linecap="butt"/><path d="M244.46202,114.53515c0,0 0.1026,3.96976 0.00576,7.12662c-0.19174,6.25113 -1.08147,27.7607 -1.08147,27.7607l-2.98167,0.00864c0,0 -0.80294,-4.17274 -1.12322,-9.49979c-0.43353,-7.21063 -0.4495,-16.29321 -0.76344,-19.63229c-0.29758,-3.16513 -0.89593,-5.71453 -0.89593,-5.71453" fill="#ffffff" stroke="#000000" stroke-width="1.3" stroke-linecap="round"/><path d="M214.92742,125.32499c0,0 -4.93211,-3.51705 -6.16417,-8.97502c-1.29636,-5.74284 -1.46118,-9.7328 0.48013,-9.99193c1.94131,-0.25915 2.70321,2.37692 3.73262,8.35569c1.0294,5.97877 1.95143,10.61127 1.95143,10.61127z" data-paper-data="{&quot;index&quot;:null}" fill="#ffffff" stroke="#000000" stroke-width="1" stroke-linecap="butt"/><path d="M214.72482,121.37744c0,0 -3.56385,-2.92338 -4.31816,-8.45061c-0.42079,-3.08327 2.15675,-2.28016 2.15675,-2.28016" fill="none" stroke="#000000" stroke-width="0.25" stroke-linecap="round"/><path d="M217.73823,114.72154c0.07093,-4.89188 4.83834,-8.93609 10.21137,-8.8582c5.37302,0.0779 9.02724,4.2484 8.95632,9.14029c-0.07093,4.89188 -4.12352,8.79439 -9.49655,8.7165c-5.37302,-0.0779 -9.74207,-4.1067 -9.67114,-8.99859z" fill="#ffffff" stroke="#000000" stroke-width="1.4" stroke-linecap="butt"/><path d="M222.17585,114.83948c0.03999,-2.75843 2.30855,-4.96213 5.06696,-4.92214c2.75843,0.03999 4.96213,2.30855 4.92214,5.06696c-0.03999,2.75843 -2.30854,4.96213 -5.06696,4.92214c-2.75843,-0.03999 -4.96213,-2.30855 -4.92214,-5.06696z" fill="#000000" stroke="none" stroke-width="1.5" stroke-linecap="butt"/><path d="M244.79449,114.72227c0.20353,-4.88817 4.45264,-8.85847 9.77048,-8.85847c5.31783,0 9.27453,3.96607 9.27453,8.85847c0,4.8924 -3.88585,9.07104 -9.69964,9.14188c-5.52997,0.06739 -9.55792,-4.03692 -9.34537,-9.14188z" fill="#ffffff" stroke="#000000" stroke-width="1.4" stroke-linecap="butt"/><path d="M249.39726,114.80781c0,-2.81845 2.2848,-5.10325 5.10325,-5.10325c2.81845,0 5.10325,2.2848 5.10325,5.10325c0,2.81845 -2.28479,5.10325 -5.10325,5.10325c-2.81845,0 -5.10325,-2.2848 -5.10325,-5.10325z" fill="#000000" stroke="none" stroke-width="1.5" stroke-linecap="butt"/><path d="M217.66979,114.18935c0,0 0.06357,-9.01512 10.60111,-8.8249c9.47101,0.16586 9.55554,9.40723 9.55554,9.40723z" fill="#ffffff" stroke="#000000" stroke-width="1.15" stroke-linecap="butt"/><path d="M244.41686,114.32025c0,0 -0.24686,-9.4582 11.19813,-9.1032c9.71427,0.33347 9.54677,9.65229 9.54677,9.65229z" fill="#ffffff" stroke="#000000" stroke-width="1.15" stroke-linecap="butt"/><path d="M221.19965,104.17769c0,0 3.36963,-1.819 8.03244,-2.28178c5.16698,-0.51283 7.76823,-0.06628 7.76823,-0.06628l0.29508,4.13747c0,0 -3.83554,-0.68065 -8.01795,-0.52113c-5.59346,0.21333 -6.64488,1.43293 -10.89774,1.89119c-3.64408,0.39266 -6.73723,0.15884 -6.73723,0.15884l-0.02589,-1.23155c0,0 3.59517,0.07398 5.23371,-0.06836c1.35239,-0.11749 3.9757,-0.93808 3.9757,-0.93808z" fill="#000000" stroke="none" stroke-width="1.5" stroke-linecap="butt"/><path d="M269.16058,114.71373c1.0294,-5.97877 1.7913,-8.61483 3.73262,-8.35569c1.94131,0.25914 1.77649,4.24909 0.48013,9.99193c-1.23206,5.45797 -6.16417,8.97502 -6.16417,8.97502c0,0 0.92203,-4.6325 1.95143,-10.61127z" data-paper-data="{&quot;index&quot;:null}" fill="#ffffff" stroke="#000000" stroke-width="1" stroke-linecap="butt"/><path d="M269.57313,110.64667c0,0 2.57754,-0.80312 2.15675,2.28016c-0.75431,5.52723 -4.31816,8.45061 -4.31816,8.45061" data-paper-data="{&quot;index&quot;:null}" fill="none" stroke="#000000" stroke-width="0.25" stroke-linecap="round"/><path d="M214.84625,121.58627c0,0 -3.56385,-2.92338 -4.31816,-8.45061c-0.42079,-3.08327 2.15675,-2.28016 2.15675,-2.28016" fill="none" stroke="#000000" stroke-width="0.25" stroke-linecap="round"/><g stroke="none" stroke-linecap="butt"><path d="M206.44988,115.01905l0.78962,-14.27444c0,0 7.34989,-5.84187 32.6535,-6.11729c25.30361,-0.27541 32.49739,3.7365 32.49739,3.7365l2.19921,14.73942c0,0 -5.42835,7.39821 -35.60726,7.68893c-20.76147,0.2 -32.53247,-5.77312 -32.53247,-5.77312z" fill="#262626" stroke-width="0"/><path d="M218.45859,115.54982l-0.52955,-18.83486c0,0 12.14821,-2.23511 21.04177,-2.26343c10.5461,-0.03358 20.91352,1.08382 20.91352,1.08382l0.52955,18.83486z" fill="#999999" stroke-width="NaN"/><path d="M212.24168,127.47375l-3.96867,-13.05913l2.24191,-10.49281c0,0 9.38357,-4.40212 26.5141,-5.03647c20.17045,-0.74692 31.68685,3.09359 31.68685,3.09359l3.60594,11.69835l-3.81302,12.06122c0,0 -3.44305,1.34228 -6.05407,2.06319c-3.29995,0.91112 -12.16727,2.96777 -12.16727,2.96777c0,0 -4.542,-1.94221 -9.15422,-1.7361c-4.08448,0.18746 -7.15158,2.49619 -7.15158,2.49619c0,0 -8.43877,-0.84176 -12.17854,-1.53945c-3.48954,-0.651 -9.56142,-2.51635 -9.56142,-2.51635z" fill="#323232" stroke-width="0"/><path d="M209.73672,119.5951l-1.48205,-5.27099l10.74508,-13.1751l7.74312,-1.34155z" fill="#f3f3f3" stroke-width="0"/><path d="M211.12029,124.2929l20.90644,-25.25328l15.67039,-0.13079l-26.18513,31.22519l-9.10803,-2.58079z" fill="#f3f3f3" stroke-width="0"/><path d="M250.23096,130.85422l18.19601,-28.86283l3.90912,11.53709l-3.89529,12.67601c0,0 -4.72593,1.41774 -7.50438,2.12719c-3.22475,0.82342 -10.70546,2.52253 -10.70546,2.52253z" fill="#000000" stroke-width="0"/></g><g stroke="none" stroke-width="0" stroke-linecap="butt"><path d="M189.30789,104.62766l3.45469,-3.25342c0,0 2.7031,-0.11327 4.10365,-1.704c2.5222,-2.86471 8.58951,-12.20281 8.58951,-12.20281l0.90513,-10.90946c0,0 0.71714,-4.31956 20.72973,-4.24174c24.57374,0.09555 50.63253,12.32575 50.63253,12.32575c0,0 3.32724,6.65399 -2.26578,15.59376c-2.73536,4.37214 -8.77837,11.1671 -8.77837,11.1671c0,0 -10.98635,7.19337 -35.34051,5.62385c-1.56708,-0.10099 -3.10199,-0.24626 -4.60518,-0.4063c-29.25726,-3.11486 -37.42539,-11.99273 -37.42539,-11.99273z" fill="#73cec0"/><path d="M192.54081,101.29119c0,0 3.04676,-3.33693 4.89028,-5.35602c2.39896,-2.62743 8.28108,-9.06975 8.28108,-9.06975c0,0 -1.01586,7.4622 22.16924,8.28895c32.94897,1.17493 48.078,-0.76246 48.078,-0.76246c0,0 -4.40914,11.82464 -22.9019,16.715c-6.67987,1.76647 -15.92448,1.53745 -26.43841,1.05588c-0.42894,-0.01965 -0.85412,-0.04904 -1.27652,-0.06972c-26.53478,-1.29878 -32.80175,-10.80188 -32.80175,-10.80188z" fill="#00c2a8"/><path d="M279.53505,83.10881c0,0 -0.00517,-2.13697 0.06948,-3.48063c0.08628,-1.55291 0.41835,-5.30028 0.41835,-5.30028c0,0 3.1501,-0.74875 2.92697,7.80525c-0.23019,8.82445 -3.76324,11.15036 -3.76324,11.15036c0,0 -1.61394,-3.6071 -1.55367,-5.36682c0.05549,-1.62033 1.90212,-4.80788 1.90212,-4.80788z" fill="#447a72"/><path d="M231.63679,111.35637l13.11642,-15.91138l16.20046,0.02507l-13.06922,16.00578c0,0 -3.95708,1.30327 -9.02811,1.26797c-6.95745,-0.04843 -7.21955,-1.38744 -7.21955,-1.38744z" fill="#8fffee"/><path d="M216.17815,111.28116l13.88043,-16.24177l10.32145,0.31121l-14.49989,16.24177c0,0 -0.87515,0.94741 -4.76259,0.08685c-5.34772,-1.18381 -4.9394,-0.39806 -4.9394,-0.39806z" fill="#8fffee"/></g><path d="M206.37874,155.06615l16.84689,11.1414l-0.12661,0.19144l-20.39188,-5.78103z" data-paper-data="{&quot;index&quot;:null}" fill="#bfbfbf" stroke="#bfbfbf" stroke-width="3.5" stroke-linecap="butt"/><path d="M214.203,153.52423l13.59547,14.93691l-0.16974,0.1545l-18.34813,-10.61108z" data-paper-data="{&quot;index&quot;:null}" fill="#ebebeb" stroke="#ebebeb" stroke-width="3.5" stroke-linecap="butt"/><path d="M278.70957,161.75989l-20.39188,5.78103l-0.1266,-0.19144l16.84688,-11.1414z" data-paper-data="{&quot;index&quot;:null}" fill="#bfbfbf" stroke="#bfbfbf" stroke-width="3.5" stroke-linecap="butt"/><path d="M272.13612,159.14648l-18.34813,10.61108l-0.16974,-0.15449l13.59547,-14.93691z" data-paper-data="{&quot;index&quot;:null}" fill="#ebebeb" stroke="#ebebeb" stroke-width="3.5" stroke-linecap="butt"/><g><path d="M277.11958,145.78053l-3.75538,-0.17883v10.01437l-9.65671,-0.17883" fill="none" stroke="#447a72" stroke-width="3" stroke-linecap="round"/><path d="M260.66292,136.67955c-0.01693,1.61938 -0.07027,6.7191 -0.07027,6.7191l-39.75675,-0.13127c0,0 0.04779,-4.57044 0.06492,-6.20874c0.01122,-1.07325 1.76462,-2.65876 4.4798,-2.6498c8.40484,0.02776 26.18513,0.08646 30.8483,0.10186c2.19212,0.00724 4.44359,1.25194 4.43399,2.16886z" fill="#73cec0" stroke="none" stroke-width="0" stroke-linecap="butt"/><path d="M260.70107,136.85206l-0.05094,4.87159l-39.86719,-0.13163l0.05095,-4.87159z" fill="#447a72" stroke="none" stroke-width="0" stroke-linecap="butt"/><path d="M266.8943,143.13178c-0.06556,6.26925 -0.18247,17.44925 -0.21595,20.65095c-0.01997,1.90895 -2.70812,3.41263 -5.37473,3.40383c-5.89703,-0.01947 -29.17255,-0.09632 -40.86346,-0.13492c-4.10088,-0.01354 -6.7521,-2.34153 -6.73418,-4.05481c0.03373,-3.225 0.14804,-14.1572 0.21084,-20.16217c0.02525,-2.41451 3.55195,-4.02084 6.81852,-4.01006c6.14156,0.02028 27.39234,0.09044 38.81003,0.12814c4.43951,0.01466 7.37914,1.29225 7.34895,4.17903z" fill="#73cec0" stroke="none" stroke-width="0" stroke-linecap="butt"/><path d="M266.79397,156.24748l-0.06388,6.10975l-9.37604,4.81003l-12.4839,-0.06399z" fill="#8fffee" stroke="none" stroke-width="0" stroke-linecap="butt"/><path d="M266.78292,148.83758l-0.03809,3.6426l-30.84167,14.70872l-7.1673,-0.11953z" fill="#8fffee" stroke="none" stroke-width="0" stroke-linecap="butt"/><path d="M262.73481,144.85431c-0.05562,5.31916 -0.15481,14.80487 -0.18322,17.52136c-0.01694,1.61966 -2.2682,2.89556 -4.50123,2.88818c-4.93821,-0.0163 -24.4293,-0.08066 -34.21936,-0.11299c-3.4341,-0.01134 -5.654,-1.98644 -5.6388,-3.44007c0.02862,-2.73627 0.12561,-12.0117 0.17889,-17.10664c0.02142,-2.0486 2.97489,-3.41163 5.71034,-3.40259c5.14298,0.01698 22.93854,0.07574 32.4998,0.10731c3.71769,0.01227 6.17919,1.09614 6.15357,3.54545z" fill="#00241f" stroke="none" stroke-width="0" stroke-linecap="butt"/></g><path d="M216.16569,214.6913v-16.34465h15.6814v16.34465c0,0 -7.78354,7.43763 -8.11743,7.00485c-0.34456,-0.44662 -7.56397,-7.00485 -7.56397,-7.00485z" fill="#ebebeb" stroke="#bfbfbf" stroke-width="1.5" stroke-linecap="butt"/><path d="M248.60492,214.02924v-16.34465h16.11694v16.34465c0,0 -7.99972,7.43762 -8.34288,7.00485c-0.35414,-0.44662 -7.77406,-7.00485 -7.77406,-7.00485z" fill="#ebebeb" stroke="#bfbfbf" stroke-width="1.5" stroke-linecap="butt"/></g></g></svg>