<svg version="1.1" xmlns="http://www.w3.org/2000/svg" xmlns:xlink="http://www.w3.org/1999/xlink" width="35.67311" height="35.67311" viewBox="0,0,35.67311,35.67311"><defs><linearGradient x1="240.00001" y1="162.91345" x2="240.00001" y2="197.08656" gradientUnits="userSpaceOnUse" id="color-1"><stop offset="0" stop-color="#ffc100"/><stop offset="1" stop-color="#d89116"/></linearGradient></defs><g transform="translate(-222.16345,-162.16345)"><g data-paper-data="{&quot;isPaintingLayer&quot;:true}" stroke-width="1.5" stroke-miterlimit="10" stroke-dasharray="" stroke-dashoffset="0" style="mix-blend-mode: normal"><path d="M229.98311,162.91345h20.03379c3.9166,0 7.06966,3.15307 7.06966,7.06966v20.03379c0,3.91659 -3.15306,7.06966 -7.06966,7.06966h-20.03379c-3.91659,0 -7.06966,-3.15307 -7.06966,-7.06966v-20.03379c0,-3.91659 3.15307,-7.06966 7.06966,-7.06966z" fill="url(#color-1)" fill-rule="evenodd" stroke="#000000" stroke-linecap="round" stroke-linejoin="round"/><g fill="#000000" fill-rule="nonzero" stroke="#ffffff" stroke-linejoin="miter"><path d="M250.5418,187.57691c-4.2289,5.88369 -12.37682,7.26106 -18.1989,3.07645c-5.82208,-4.18461 -7.11361,-12.34658 -2.88471,-18.23027c4.2289,-5.88369 12.37682,-7.26106 18.1989,-3.07645c5.82208,4.18461 7.11361,12.34658 2.88471,18.23027z" stroke-linecap="butt"/><path d="M248.02904,186.83602c-3.68441,5.12615 -10.7167,6.37402 -15.70705,2.78721c-4.99035,-3.58681 -6.04903,-10.65006 -2.36461,-15.7762c3.68441,-5.12615 10.7167,-6.37402 15.70705,-2.78721c4.99035,3.58681 6.04902,10.65006 2.36461,15.77621z" stroke-linecap="butt"/><path d="M243.59586,184.53011l-5.36503,-5.71711l6.15635,-2.68077" stroke-linecap="round"/><path d="M232.38473,173.76521l1.499,0.73904" stroke-linecap="round"/><path d="M231.17507,177.80205l1.27589,0.57868" stroke-linecap="round"/><path d="M232.24529,183.13919l-1.47111,0.63446" stroke-linecap="round"/><path d="M234.95395,185.25521l-1.23406,1.48157" stroke-linecap="round"/><path d="M238.12277,188.37871l0.65886,-1.38744" stroke-linecap="round"/><path d="M236.12874,171.38075l0.98655,1.21663" stroke-linecap="round"/><path d="M239.8623,172.54161l0.13247,-1.59661" stroke-linecap="round"/><path d="M243.33091,171.48185l-0.83316,0.9238" stroke-linecap="round"/><path d="M245.54456,178.99428l1.65936,0.51593" stroke-linecap="round"/><path d="M246.77861,182.92653l-1.61055,-0.81922" stroke-linecap="round"/><path d="M242.82196,187.01915l0.18824,1.15039" stroke-linecap="round"/><path d="M246.09883,175.16311l1.16783,-0.68327" stroke-linecap="round"/></g></g></g></svg>