<svg version="1.1" xmlns="http://www.w3.org/2000/svg" xmlns:xlink="http://www.w3.org/1999/xlink" width="112.86645" height="241.03366" viewBox="0,0,112.86645,241.03366"><defs><linearGradient x1="232.09881" y1="111.32142" x2="239.57574" y2="178.49552" gradientUnits="userSpaceOnUse" id="color-1"><stop offset="0" stop-color="#000000"/><stop offset="1" stop-color="#000000" stop-opacity="0"/></linearGradient></defs><g transform="translate(-179.46262,-64.46637)"><g data-paper-data="{&quot;isPaintingLayer&quot;:true}" fill-rule="nonzero" stroke-linejoin="miter" stroke-miterlimit="10" stroke-dasharray="" stroke-dashoffset="0" style="mix-blend-mode: normal"><g fill="#000000" stroke="none" stroke-linecap="butt"><path d="M286.27779,141.36995c0,0 -1.21313,0.26938 -2.57826,0.33617c-2.15365,0.1054 -3.70636,-0.3875 -3.70636,-0.3875c0,0 0.77493,5.39361 3.49362,10.63611c2.87949,5.55256 8.84227,9.95724 8.84227,9.95724c0,0 -1.96678,0.24454 -4.43767,-0.04027c-2.36813,-0.27296 -4.77814,-1.09609 -4.77814,-1.09609c0,0 -1.07105,4.98856 1.04365,6.59287c2.37414,1.80114 7.47945,14.13625 7.47945,14.13625c0,0 -4.16532,-8.47667 -8.88582,-9.05475c-3.76717,-0.46133 -3.89801,-6.14162 -3.89801,-6.14162c0,0 -0.0499,4.63152 -2.16547,12.55988c-1.77499,6.65195 -5.64264,10.39555 -5.64264,10.39555l-0.41994,-2.6245c0,0 -9.45787,11.53681 -27.14734,13.76281c-18.77105,2.23667 -27.66112,-7.8598 -27.66112,-7.8598l0.30976,3.6926c0,0 -2.69722,-1.4887 -4.05862,-2.47896c-1.36137,-0.99028 -2.7157,-3.05105 -2.7157,-3.05105c0,0 -1.64893,-12.2263 -4.72227,-11.69458c-3.28373,0.56813 -14.39077,15.00136 -14.39077,15.00136c0,0 0.28218,-10.89815 3.32434,-19.12081c3.34273,-9.03507 4.09314,-18.6769 4.09314,-18.6769c0,0 -2.5638,2.43669 -3.78249,3.58629c-1.30663,1.23256 -4.08614,3.60814 -4.08614,3.60814c0,0 2.05401,-8.29747 4.76469,-18.03796c1.97693,-7.10387 -8.14259,-42.46379 40.45856,-46.95417c39.41836,-2.97824 43.06333,34.75266 43.68019,36.96865c0.2352,0.84491 7.58707,5.98503 7.58707,5.98503z" data-paper-data="{&quot;index&quot;:null}" stroke-width="1.5"/><path d="M187.74973,127.42053c0,0 5.82025,-6.60627 5.85929,-7.48171c0.04926,-1.1046 -1.01824,-10.38268 2.07061,-20.33976c0.87664,-2.82592 4.62211,-6.81845 4.38314,-10.2885c-0.44437,-6.45265 -5.7095,-12.0956 -5.7095,-12.0956c0,0 27.58771,-2.07918 32.44558,-2.80096c3.09651,-0.4055 -10.4777,-9.94764 -10.4777,-9.94764c0,0 27.40296,7.58821 30.31042,8.05729c27.97651,4.51365 25.59191,33.46196 28.46822,38.96496c4.66222,8.91983 8.39324,16.57339 8.39324,16.57339c0,0 -3.13442,-1.71731 -4.63295,-2.63764c-1.39766,-0.85838 -4.34191,-2.68199 -4.34191,-2.68199c0,0 4.39236,9.92311 3.66666,20.41466c-0.59258,9.60549 -5.76179,17.97314 -5.76179,17.97314l-1.47338,-2.19785c0,0 -0.83129,2.30404 -1.90073,3.56488c-1.06946,1.26083 -3.29063,3.29698 -3.29063,3.29698l-0.50648,-3.6707c0,0 -6.19872,11.77595 -24.38095,13.65245c-17.16013,1.653 -28.57251,-7.56079 -28.57251,-7.56079l0.17161,2.65213c0,0 -4.45623,-2.81708 -7.56832,-8.92508c-3.70924,-7.28002 -4.75789,-11.78926 -4.75789,-11.78926c0,0 -2.24742,2.16104 -5.69958,3.42594c-4.32578,1.58499 -7.26018,1.15549 -7.26018,1.15549c0,0 3.49004,-3.12242 5.33903,-5.39362c1.64692,-2.023 2.40697,-3.66599 2.40697,-3.66599c0,0 -2.0943,1.32452 -4.2681,2.10301c-2.26811,0.8123 -4.17539,0.99895 -4.17539,0.99895c0,0 4.66956,-5.58815 6.18376,-11.62975c1.42965,-5.70424 0.99389,-11.1356 0.99389,-11.1356c0,0 -1.35741,0.8168 -3.41078,1.17967c-1.30159,0.23003 -2.50366,0.22947 -2.50366,0.22947z" stroke-width="1.5"/><path d="M213.39161,236.4725c0,0 0.56874,-4.86177 -1.95961,-10.03556c-2.69258,-5.50986 -8.52056,-11.45765 -9.49674,-15.11637c-1.18704,-4.44902 1.19265,-13.31656 1.19265,-13.31656c0,0 2.36013,-10.75578 0.95634,-21.50111c-1.52961,-11.70845 -12.14809,-19.73021 0.935,-22.57044c2.81486,-0.61107 7.02114,5.99518 11.33361,10.36096c4.51757,4.57341 9.08074,6.93124 9.08074,6.93124c0,0 -3.0926,1.25795 -1.4709,6.35144c5.66965,17.8075 17.2174,40.82508 17.2174,40.82508c0,0 -12.93691,-15.94972 -11.52843,-7.46151c1.57197,9.47362 11.12304,34.88686 11.12304,34.88686c0,0 -13.94472,-15.99572 -20.48472,-25.24461c-2.21013,-3.1256 -4.24094,-9.4148 -4.24094,-9.4148z" stroke-width="0"/><path d="M275.07161,202.92052c0,0 -0.59814,6.58183 -2.06692,10.11692c-4.34619,10.46059 0.47737,36.52715 0.47737,36.52715c0,0 -11.1805,-34.28745 -11.73014,-43.87487c-0.49248,-8.59015 -4.41385,17.2854 -4.41385,17.2854c0,0 1.01207,-32.46498 2.62727,-51.08334c0.462,-5.32541 -2.83153,-5.87253 -2.83153,-5.87253c0,0 3.93304,-3.30351 7.33438,-8.75835c3.24692,-5.2072 5.89761,-12.57667 8.77794,-12.59951c13.38741,-0.10611 4.79273,10.05419 5.87512,21.81242c0.99335,10.79102 5.6608,20.76459 5.6608,20.76459c0,0 4.27132,8.12724 4.09163,12.72838c-0.14777,3.78381 -4.52526,10.86755 -5.94037,16.83461c-1.3288,5.60313 -2.57415,20.60197 -2.57415,20.60197z" data-paper-data="{&quot;index&quot;:null}" stroke-width="0"/></g><g><g><path d="M201.54542,304.39162c0,0 -0.63536,-94.38387 -0.79335,-118.01201c-0.05451,-8.15261 8.18688,-36.76129 40.20201,-36.9211c31.60235,-0.15775 39.85672,29.48704 39.84884,36.89673c-0.07659,46.24274 0.65429,117.98648 0.65429,117.98648l-10.49667,0.09614l-0.15882,-114.84311c0,0 0.07549,-3.0993 -2.81625,-3.15415c-3.43441,-0.06514 -2.94538,3.11562 -2.94538,3.11562c0,0 -4.95003,28.26622 -4.9205,44.77862c0.03718,20.78547 5.12598,70.09133 5.12598,70.09133l-48.21366,0.07222c0,0 4.21363,-44.83321 4.15975,-65.16568c-0.04695,-17.71739 -4.46514,-50.06741 -4.46514,-50.06741c0,0 0.27949,-2.919 -2.8856,-2.93443c-3.11083,-0.01515 -2.81569,2.90899 -2.81569,2.90899l0.35311,115.0668z" fill="#ffffff" stroke="#000000" stroke-width="2" stroke-linecap="butt"/><path d="M256.14252,200.33382c-0.57113,0 -1.03411,-0.46299 -1.03411,-1.03411c0,-0.57113 0.46299,-1.03413 1.03411,-1.03413c0.57113,0 1.03411,0.463 1.03411,1.03413c0,0.57113 -0.46299,1.03411 -1.03411,1.03411z" fill="#000000" stroke="none" stroke-width="1.5" stroke-linecap="butt"/><path d="M250.88272,204.56943c-4.4635,-0.31439 -6.55245,-1.79392 -6.16985,-2.58011c0.11788,-0.24224 2.84645,1.06355 6.97038,1.3048c6.40897,0.37493 8.51033,-0.63173 8.51033,-0.63173v1.34616c0,0 -2.4135,1.04672 -9.31086,0.56089z" fill="#000000" stroke="#000000" stroke-width="0" stroke-linecap="butt"/><path d="M223.06996,199.29973c0,-0.57113 0.46299,-1.03413 1.03411,-1.03413c0.57113,0 1.03413,0.463 1.03413,1.03413c0,0.57113 -0.463,1.03411 -1.03413,1.03411c-0.57113,0 -1.03411,-0.46299 -1.03411,-1.03411z" fill="#000000" stroke="none" stroke-width="1.5" stroke-linecap="butt"/><path d="M229.36396,204.56943c-6.89736,0.48585 -9.31086,-0.56089 -9.31086,-0.56089v-1.34616c0,0 2.10136,1.00666 8.51033,0.63173c4.12393,-0.24126 6.85251,-1.54704 6.97039,-1.3048c0.3826,0.78618 -1.70634,2.26571 -6.16985,2.58011z" fill="#000000" stroke="#000000" stroke-width="0" stroke-linecap="butt"/><path d="M240.64442,261.12113c-0.81895,0 -1.48284,-0.66389 -1.48284,-1.48284c0,-0.81895 0.66389,-1.48284 1.48284,-1.48284c0.81895,0 1.48284,0.66389 1.48284,1.48284c0,0.81895 -0.66389,1.48284 -1.48284,1.48284z" data-paper-data="{&quot;index&quot;:null}" fill="#000000" stroke="none" stroke-width="1.5" stroke-linecap="butt"/><g fill="#ffffff" stroke="#000000" stroke-width="2" stroke-linecap="round"><path d="M240.52125,202.18259c0.14273,5.60368 -2.57383,7.93839 -3.89249,9.02343c-5.12117,4.21387 -15.18067,3.25512 -17.60285,2.04502c-4.96567,-2.48081 -8.40378,-10.51264 -8.69751,-13.75788c-0.29521,-3.2616 0.55028,-8.14011 2.54293,-10.94893c2.55122,-3.59616 5.94201,-5.23391 5.94201,-5.23391"/><path d="M264.10866,183.81032c0,0 3.568,1.68802 5.59914,5.45989c1.4764,2.74171 1.66914,7.09237 1.38579,10.22295c-0.29373,3.24525 -3.73185,11.27706 -8.69752,13.75787c-2.42218,1.2101 -12.48168,2.16885 -17.60284,-2.04502c-1.31866,-1.08504 -4.49677,-3.65052 -4.35404,-9.2542" data-paper-data="{&quot;index&quot;:null}"/></g></g><g fill="#ff0000" stroke="none" stroke-width="0" stroke-linecap="butt"><path d="M242.78932,225.87056c-5.33481,19.80043 -12.8084,55.08219 -15.54163,53.35977c-2.73323,-1.72242 0.30891,-39.79677 5.64372,-59.59721c5.33481,-19.80043 6.19209,-14.11615 8.92532,-12.39373c2.73323,1.72242 6.3074,-1.16927 0.97259,18.63117z"/><path d="M245.69894,224.8722c-0.89199,21.37201 -1.1153,60.80478 -4.06547,60.5168c-2.95017,-0.28799 -7.51003,-40.1877 -6.61805,-61.5597c0.89199,-21.37201 2.89805,-16.4104 5.84822,-16.12241c2.95017,0.28799 5.72728,-4.20669 4.8353,17.16532z"/><path d="M238.13102,226.07155c-9.77267,15.33764 -18.13852,45.16132 -20.25572,42.00607c-1.46252,-2.1796 -5.18318,-53.57253 -2.16132,-58.31516c9.77267,-15.33764 23.9341,-4.69105 26.0513,-1.5358c2.1172,3.15525 6.13841,2.50726 -3.63426,17.8449z"/><path d="M248.7279,219.65453c5.38578,19.76813 7.4285,58.30341 4.69972,60.04229c-2.72877,1.73888 -9.19571,-33.97713 -14.58149,-53.74525c-5.38578,-19.76813 -2.15093,-16.67705 0.57785,-18.41593c2.72878,-1.73888 3.91814,-7.64923 9.30392,12.1189z"/><path d="M267.1378,207.88454c3.48796,4.65245 -1.83417,53.89524 -3.13503,56.17631c-1.94308,3.40722 -11.34842,-26.02739 -21.90149,-40.1037c-10.55307,-14.07631 -6.75764,-13.49577 -4.81456,-16.90299c1.94308,-3.40722 19.29801,-13.24594 29.85108,0.83038z"/></g><g stroke="none" stroke-width="0" stroke-linecap="butt"><g><g fill="#da7f7f"><path d="M202.75747,220.78121c-0.91601,4.78728 -2.97391,8.19854 -4.59646,7.61927c-1.62255,-0.57927 -2.19532,-4.92971 -1.27932,-9.71699c0.91601,-4.78728 2.97392,-8.19854 4.59646,-7.61927c1.62255,0.57927 2.19532,4.92971 1.27931,9.71699z"/><path d="M211.03611,211.06421c1.62255,-0.57927 3.68045,2.832 4.59645,7.61927c0.91601,4.78727 0.34323,9.13772 -1.27931,9.71699c-1.62255,0.57927 -3.68045,-2.832 -4.59646,-7.61927c-0.91601,-4.78727 -0.34323,-9.13772 1.27932,-9.71699z" data-paper-data="{&quot;index&quot;:null}"/><path d="M207.46894,221.69171c-0.38297,4.86598 -2.05167,8.50305 -3.72716,8.1236c-1.67549,-0.37945 -2.72329,-4.6317 -2.34032,-9.49768c0.38297,-4.86598 2.05168,-8.50305 3.72717,-8.1236c1.67549,0.37945 2.72328,4.6317 2.34031,9.49768z"/><path d="M208.11444,213.21192c1.67549,-0.37944 3.34419,3.25761 3.72716,8.12359c0.38297,4.86598 -0.66482,9.11824 -2.34031,9.49768c-1.67549,0.37944 -3.34419,-3.25762 -3.72717,-8.1236c-0.38297,-4.86598 0.66483,-9.11823 2.34032,-9.49767z" data-paper-data="{&quot;index&quot;:null}"/></g><path d="M197.47143,215.23541c0,0 1.57143,-4.9375 1.57143,-8.21173c0,-4.4673 0,-15.84359 0,-15.84359h14.75c0,0 0,12.09897 0,16.59181c0,3.07315 1.42857,7.61315 1.42857,7.61315z" fill="#a10000"/></g><g><g fill="#da7f7f"><path d="M271.61461,222.27764c-0.916,4.78728 -2.97391,8.19854 -4.59646,7.61927c-1.62255,-0.57927 -2.19532,-4.9297 -1.27932,-9.71698c0.916,-4.78728 2.97391,-8.19855 4.59646,-7.61928c1.62255,0.57927 2.19532,4.92971 1.27931,9.71699z"/><path d="M279.89324,212.56066c1.62255,-0.57927 3.68045,2.832 4.59645,7.61928c0.916,4.78727 0.34323,9.13771 -1.27931,9.71698c-1.62255,0.57927 -3.68045,-2.832 -4.59646,-7.61928c-0.916,-4.78727 -0.34323,-9.13771 1.27932,-9.71698z" data-paper-data="{&quot;index&quot;:null}"/><path d="M276.32606,223.18817c-0.38297,4.86598 -2.05167,8.50304 -3.72717,8.12359c-1.67549,-0.37945 -2.72328,-4.63169 -2.34031,-9.49767c0.38297,-4.86598 2.05167,-8.50305 3.72717,-8.1236c1.67549,0.37945 2.72328,4.6317 2.34031,9.49768z"/><path d="M276.9715,214.70834c1.67549,-0.37944 3.34419,3.25761 3.72717,8.12359c0.38297,4.86598 -0.66483,9.11824 -2.34032,9.49768c-1.67549,0.37944 -3.34419,-3.25761 -3.72717,-8.12359c-0.38297,-4.86598 0.66483,-9.11824 2.34032,-9.49768z" data-paper-data="{&quot;index&quot;:null}"/></g><path d="M266.32849,216.73186c0,0 1.57143,-4.9375 1.57143,-8.21173c0,-4.4673 0,-15.84359 0,-15.84359h14.75c0,0 0,12.09897 0,16.59181c0,3.07315 1.42857,7.61316 1.42857,7.61316z" fill="#a10000"/></g><path d="M199.15357,191.35849c0,0 1.82462,-20.19547 8.16591,-26.67681c3.91163,-3.99802 9.99521,-9.81164 17.97915,-13.16665c6.84618,-2.87689 15.34066,-1.51823 15.34066,-1.51823c0,0 18.7832,-0.65754 27.84739,8.105c9.79289,9.467 14.03833,34.78306 14.03833,34.78306c0,0 -27.153,11.32479 -40.91793,11.07278c-14.02084,-0.2567 -42.45349,-12.59914 -42.45349,-12.59914z" fill="#a10000"/></g><path d="M275.96673,158.16445c0,0 -3.13344,41.76527 -35.50957,43.63031c-27.40913,1.57891 -36.42376,-43.09698 -36.42376,-43.09698" fill="none" stroke="#000000" stroke-width="3" stroke-linecap="round"/><g stroke="#000000" stroke-width="0" stroke-linecap="butt"><path d="M274.7333,191.62506c0,5.5819 1.16156,15.61828 -6.08097,20.14541c-5.92482,3.70346 -47.78418,5.0292 -53.35521,2.04346c-8.51944,-4.5659 -7.06381,-15.80301 -7.06381,-21.93887c0,-5.75268 4.52516,-12.95155 12.50273,-12.91087c2.09459,0.01068 8.53711,-0.38952 11.4975,1.04964c5.65479,2.74901 9.62476,7.73623 9.62476,7.73623c0,0 3.67869,-4.49312 8.96296,-7.08089c4.01934,-1.96832 9.4944,-2.20212 11.91276,-2.20589c7.13139,-0.01112 11.99928,7.47635 11.99928,13.16178z" fill="#cc1414"/><path d="M269.7333,180.95841c4.5951,2.30887 5.92555,12.23618 4.79782,19.9632c-0.80495,5.51542 -2.86231,10.29668 -5.8788,12.18221c-5.92482,3.70346 -48.03418,3.6542 -53.60521,0.66846c-0.21961,-0.1177 17.5227,-6.02555 31.64158,-14.47409c13.23313,-7.91852 22.8882,-18.41836 23.04461,-18.33978z" fill="#a10000"/></g></g><path d="M254.8684,112.77364c0,0 1.55013,0.14749 4.35251,0.63268c2.55966,0.44317 4.61497,1.24112 4.61497,1.24112l0.32337,1.14158c0,0 -7.55138,-2.30877 -15.29633,-0.78327c-6.19267,1.21978 -9.59092,3.8973 -9.59092,3.8973l-0.41659,-4.15625c0,0 2.91976,-2.03974 7.61012,-2.71409c4.85684,-0.69828 8.10659,-0.30742 8.10659,-0.30742z" data-paper-data="{&quot;index&quot;:null}" fill="#000000" stroke="none" stroke-width="1.5" stroke-linecap="butt"/><path d="M215.46954,121.28059c0,0 3.14772,-2.1806 7.73073,-3.15635c5.07853,-1.08127 7.71323,-0.92523 7.71323,-0.92523l0.75097,4.07943c0,0 -3.88729,-0.25217 -8.02639,0.36905c-5.53554,0.83079 -6.44559,2.15922 -10.62164,3.08514c-3.57828,0.79338 -6.67831,0.90316 -6.67831,0.90316l-0.16197,-1.22114c0,0 3.58129,-0.32418 5.19403,-0.6469c1.33109,-0.26638 3.84752,-1.37213 3.84752,-1.37213z" fill="#000000" stroke="none" stroke-width="1.5" stroke-linecap="butt"/><path d="M179.46262,107.21267c0,0 16.76315,-12.97293 23.21071,-17.9584c6.78837,-5.24899 6.51542,-9.53198 16.54978,-12.78571c10.03439,-3.25373 6.60569,9.57944 6.60569,9.57944c0,0 -5.0092,6.23258 -20.10807,13.26176c-3.93497,1.83191 -26.25812,7.9029 -26.25812,7.9029z" fill="#000000" stroke="none" stroke-width="0" stroke-linecap="butt"/><path d="M206.57987,133.08403c-1.08589,-5.65197 -1.55506,-14.09411 -1.65317,-16.9657c-0.00448,-0.13089 2.79961,0.44724 5.63768,-0.95111c2.92189,-1.43965 6.24877,-2.77958 7.12657,-3.14874c0.23422,-0.09851 17.42355,-9.19267 17.42355,-9.19267l-4.24232,7.35654c0,0 25.63678,-13.59116 26.78984,-13.04311c2.95648,1.40519 3.86138,22.88443 4.16653,28.44271c0.2081,5.68106 -1.46683,9.72162 -1.74591,12.79218c-0.27908,3.07056 4.41286,5.68333 3.72278,15.72438c-0.43065,6.2663 -7.29009,9.79122 -12.47718,16.14015c-5.18707,6.34894 -7.97463,10.19752 -11.90251,10.70412c-3.78003,0.48755 -9.44501,-4.0804 -14.99843,-8.77712c-5.91348,-5.00126 -9.75819,-7.44333 -11.33069,-13.97207c-0.68631,-2.84939 -1.1461,-5.22962 -1.54411,-7.52584c-0.4233,-2.44211 1.24786,-4.67919 0.76611,-7.39468c-0.68316,-3.85078 -4.9849,-6.26538 -5.73875,-10.18905z" fill="#ffffff" stroke="#000000" stroke-width="1.5" stroke-linecap="butt"/><path d="M233.87938,155.4327c-1.03366,0.01445 -3.58336,-3.21061 -3.86135,-5.31021c-0.24874,-1.87856 1.26146,-3.84601 3.73279,-3.88057c2.47134,-0.03457 4.20855,0.43195 4.08819,4.13175c-0.10215,3.13992 -1.48829,5.02448 -3.95963,5.05906z" fill="#ffffff" stroke="#000000" stroke-width="1.15" stroke-linecap="butt"/><g stroke-linecap="butt"><path d="M238.09559,188.09473c-7.20541,0.80201 -16.34878,-6.3779 -21.87799,-16.08001c-4.86931,-8.54418 -6.57153,-19.57505 -6.77537,-21.40638c-0.43531,-3.91088 11.54201,6.96749 25.09285,5.45918c13.55085,-1.50831 25.92803,-10.4511 26.36333,-6.54022c0,0 0.8313,6.08747 -0.64455,10.65475c-3.53995,10.95495 -12.59465,26.84818 -22.15829,27.91268z" fill="#000000" stroke="#000000" stroke-width="0"/><path d="M256.37345,150.40954c0.01185,0.10644 -1.9888,3.70637 -4.1073,5.92802c-1.49914,1.57215 -2.96097,1.6271 -4.23673,2.92557c-3.20789,3.26503 -4.23245,4.13657 -5.16319,4.66228c-2.00985,1.13521 -4.23074,1.16145 -5.78093,1.334c-8.33633,0.92789 -15.61254,-6.36588 -15.84164,-8.42424c-0.22911,-2.05837 6.32994,-1.20766 14.66627,-2.13554c8.33634,-0.92789 20.23441,-6.34844 20.46352,-4.29008z" fill="#ffffff" stroke="#000000" stroke-width="0.5"/><path d="M248.92217,147.20245c5.21583,-1.16645 13.44056,0.06957 13.44012,0.15672c-0.00047,0.09198 -2.36789,3.53153 -6.23408,5.72212c-5.13227,2.90795 -12.2952,4.79327 -14.10882,5.22774c-2.66475,0.63835 -10.46953,1.96697 -14.89485,1.06764c-2.91077,-0.59154 -5.88443,-2.24605 -8.70502,-3.49709c-4.84641,-2.14958 -7.7652,-7.11567 -7.77369,-7.15287c-0.00452,-0.01976 1.84555,0.53036 4.51222,1.33211c2.46199,0.74021 5.44032,0.07985 8.4777,0.99857c5.39885,1.63296 10.59613,4.76729 10.64549,4.76649c0,0 0.98357,-1.8696 2.1215,-2.35374c0.57299,-0.24379 10.09723,-5.726 12.51942,-6.2677z" fill="#fefefe" stroke="#000000" stroke-width="1.4"/><path d="M240.56422,184.61829c-1.19799,0.13336 -2.70536,0.12993 -4.33454,-0.00295c-5.16082,-0.42088 -11.54389,-2.14066 -13.18652,-4.92628c-0.2306,-0.39107 2.4567,-4.81237 4.21981,-7.47523c0.0996,-0.1504 3.55772,2.5371 6.50318,3.70986c1.44615,0.5758 2.88384,0.1055 3.51562,0.08085c4.66624,-0.18203 8.26743,-4.69441 9.78977,-4.86386c4.94418,-0.55032 5.93719,3.66039 3.47578,7.57163c-1.82538,2.90059 -6.31651,5.49784 -9.98312,5.90595z" fill="#ffffff" stroke="none" stroke-width="0"/><path d="M262.40987,147.48276c0.01517,0.06509 0.50088,19.03439 -0.30389,25.39175c-0.30007,2.37029 -0.41448,7.8663 -4.3895,11.51479c-4.39963,4.03821 -12.88663,6.15677 -17.50403,6.80783c-8.98897,1.26742 -18.41493,-0.87744 -19.5152,-2.04062c-1.15602,-1.22212 -2.9853,-6.44261 -5.31291,-11.93962c-3.38072,-7.9841 -5.09012,-27.8565 -5.08647,-27.88977c0.00546,-0.04981 3.77772,16.57134 8.24637,22.09096c3.5016,4.32513 5.75879,8.7656 6.56372,9.49221c0.40549,0.36604 3.22751,2.18199 6.04828,2.45487c2.27805,0.22038 10.85935,1.08569 16.36236,-3.30327c8.63244,-6.88483 14.85769,-32.72321 14.89127,-32.57914z" fill="#ffffff" stroke="#000000" stroke-width="1.9"/></g><path d="M237.06027,125.29157c0,0 0.1581,3.96794 0.10543,7.12585c-0.10428,6.2532 -0.6931,27.77312 -0.6931,27.77312l-2.98126,0.05035c0,0 -0.86122,-4.16111 -1.25598,-9.48315c-0.53433,-7.20385 -0.67734,-16.28534 -1.03795,-19.6197c-0.34181,-3.16065 -0.97577,-5.70144 -0.97577,-5.70144" fill="#ffffff" stroke="#000000" stroke-width="1.3" stroke-linecap="round"/><g stroke="none" stroke-width="0" stroke-linecap="butt"><g fill="url(#color-1)"><path d="M209.13872,181.88337l-10.64881,-59.51197c0,0 47.29399,-12.57326 58.57967,-13.82942c4.5001,-0.5009 10.24529,6.16874 10.24529,6.16874l6.67336,59.95448z"/><path d="M209.13872,181.88337l-10.64881,-59.51197c0,0 47.29399,-12.57326 58.57967,-13.82942c4.50009,-0.50089 10.24529,6.16874 10.24529,6.16874l6.67336,59.95448z"/><path d="M209.13872,181.88337l-10.64881,-59.51197c0,0 47.29399,-12.57326 58.57967,-13.82942c4.50009,-0.50089 10.24529,6.16874 10.24529,6.16874l6.67336,59.95448z"/><path d="M209.13872,181.88337l-10.64881,-59.51197c0,0 47.29399,-12.57326 58.57967,-13.82942c4.50009,-0.50089 10.24529,6.16874 10.24529,6.16874l6.67336,59.95448z"/><path d="M209.13872,181.88337l-10.64881,-59.51197c0,0 47.29399,-12.57326 58.57967,-13.82942c4.50009,-0.50089 10.24529,6.16874 10.24529,6.16874l6.67336,59.95448z"/><path d="M209.13872,181.88337l-10.64881,-59.51197c0,0 47.29399,-12.57326 58.57967,-13.82942c4.50009,-0.50089 10.24529,6.16874 10.24529,6.16874l6.67336,59.95448z"/><path d="M209.13872,181.88337l-10.64881,-59.51197c0,0 47.29399,-12.57326 58.57967,-13.82942c4.50009,-0.50089 10.24529,6.16874 10.24529,6.16874l6.67336,59.95448z"/><path d="M209.13872,181.88337l-10.64881,-59.51197c0,0 47.29399,-12.57326 58.57967,-13.82942c4.50009,-0.50089 10.24529,6.16874 10.24529,6.16874l6.67336,59.95448z"/></g><path d="M198.4655,123.43343l3.49934,-25.81244l58.78282,-8.2378l2.79511,25.11182z" fill="#000000"/></g></g></g></svg>