<svg version="1.1" xmlns="http://www.w3.org/2000/svg" xmlns:xlink="http://www.w3.org/1999/xlink" width="139.59131" height="282.71559" viewBox="0,0,139.59131,282.71559"><defs><linearGradient x1="240.42485" y1="117.42151" x2="240.42485" y2="280.44155" gradientUnits="userSpaceOnUse" id="color-1"><stop offset="0" stop-color="#402b6b"/><stop offset="1" stop-color="#000000"/></linearGradient><linearGradient x1="287.35714" y1="72.80037" x2="238.83729" y2="145.94641" gradientUnits="userSpaceOnUse" id="color-2"><stop offset="0" stop-color="#402b6b"/><stop offset="1" stop-color="#000000"/></linearGradient><linearGradient x1="253.55861" y1="123.77099" x2="249.43998" y2="129.98002" gradientUnits="userSpaceOnUse" id="color-3"><stop offset="0" stop-color="#402b6b"/><stop offset="1" stop-color="#000000"/></linearGradient><linearGradient x1="253.00551" y1="124.29504" x2="231.29686" y2="157.0219" gradientUnits="userSpaceOnUse" id="color-4"><stop offset="0" stop-color="#402b6b"/><stop offset="1" stop-color="#000000"/></linearGradient><linearGradient x1="256.79997" y1="117.98387" x2="251.34165" y2="126.21252" gradientUnits="userSpaceOnUse" id="color-5"><stop offset="0" stop-color="#402b6b"/><stop offset="1" stop-color="#000000"/></linearGradient><linearGradient x1="269.29792" y1="99.32082" x2="248.57565" y2="130.56064" gradientUnits="userSpaceOnUse" id="color-6"><stop offset="0" stop-color="#402b6b"/><stop offset="1" stop-color="#000000"/></linearGradient><linearGradient x1="245.52642" y1="75.60052" x2="234.25297" y2="92.59579" gradientUnits="userSpaceOnUse" id="color-7"><stop offset="0" stop-color="#402b6b"/><stop offset="1" stop-color="#000000"/></linearGradient><linearGradient x1="302.80662" y1="108.37212" x2="291.53316" y2="125.36741" gradientUnits="userSpaceOnUse" id="color-8"><stop offset="0" stop-color="#402b6b"/><stop offset="1" stop-color="#000000"/></linearGradient></defs><g transform="translate(-187.18951,-16.40664)"><g data-paper-data="{&quot;isPaintingLayer&quot;:true}" fill-rule="nonzero" stroke-linejoin="miter" stroke-miterlimit="10" stroke-dasharray="" stroke-dashoffset="0" style="mix-blend-mode: normal"><path d="M189.13081,282.66451v-266.25786h103.23392v266.25786z" fill-opacity="0.01" fill="#000000" stroke="none" stroke-width="0" stroke-linecap="butt"/><path d="M195.63707,280.32929c0,0 -8.1967,30.89193 -8.44757,-3.75771c-0.1575,-21.75301 7.61835,-110.74633 7.54936,-120.32809c-0.02837,-3.94057 -2.60067,0.71702 3.04275,-7.31877c3.19874,-4.55476 3.54039,3.22481 10.50876,-3.29631c7.48169,-7.0015 21.8241,-28.15925 31.96416,-28.20625c21.25485,-0.09853 33.74724,23.47913 39.92563,34.02709c4.222,7.20796 5.19381,1.60587 5.19019,4.76863c-0.02552,14.3135 4.55686,108.23347 4.64536,124.58577c0.2121,39.19624 -3.90459,-0.52683 -3.90459,-0.52683l-11.88406,0.10109c0,0 -1.20036,10.98942 -1.23176,-10.09967c-0.02819,-18.92808 1.05195,-110.65411 1.05195,-110.65411c0,0 0.08547,-3.25881 -3.18849,-3.31649c-3.88835,-0.06849 -3.33468,3.27597 -3.33468,3.27597c0,0 6.27053,115.67928 6.29942,130.67371c0.04294,22.29425 -6.06678,-9.89169 -6.06678,-9.89169l-54.58625,0.07594c0,0 -3.54598,25.95933 -3.60854,4.03356c-0.04969,-17.413 3.26279,-125.1974 3.26279,-125.1974c0,0 0.31643,-3.06923 -3.267,-3.08546c-3.522,-0.01593 -3.18785,3.05871 -3.18785,3.05871c0,0 4.63278,101.94628 4.69231,119.96111c0.07152,21.64475 -4.29251,1.02788 -4.29251,1.02788z" fill="url(#color-1)" stroke="#000000" stroke-width="2" stroke-linecap="butt"/><path d="M232.6104,65.17218c0,0 9.45765,-1.90238 10.09544,-2.60664c1.67278,-1.84712 23.69432,-36.05666 59.3586,-17.38185c43.56936,23.799 16.61695,53.16183 14.97949,60.67417c-2.2452,10.30055 -4.3981,18.97249 -4.3981,18.97249c0,0 -1.44793,-3.36444 -2.07154,-5.05557c-0.58163,-1.5773 -1.79625,-4.91274 -1.79625,-4.91274c0,0 -3.16537,10.96865 -11.02565,19.24969c-7.13606,7.62603 -17.26365,11.39594 -17.26365,11.39594l0.28036,-2.73852c0,0 -2.29099,1.40367 -4.06124,1.7923c-1.77027,0.38862 -5.0444,0.7111 -5.0444,0.7111l2.11094,-3.36687c0,0 -13.34832,5.96994 -29.92846,-3.69687c-15.56658,-9.22159 -18.79216,-23.93515 -18.79216,-23.93515l-1.68854,2.31261c0,0 -1.79899,-5.09574 -0.19393,-12.09952c1.91306,-8.34771 4.14775,-12.74705 4.14775,-12.74705c0,0 -3.38252,0.41018 -7.15842,-0.66923c-4.73142,-1.35254 -6.90119,-3.52198 -6.90119,-3.52198c0,0 5.09139,-0.44271 8.21511,-1.19059c2.78236,-0.66616 4.55665,-1.5638 4.55665,-1.5638c0,0 -2.67571,-0.19127 -5.04093,-0.88593c-2.46783,-0.72479 -4.20005,-1.74728 -4.20005,-1.74728c0,0 7.78682,-1.76584 13.23471,-5.85752c5.14367,-3.8632 8.53078,-8.6513 8.53078,-8.6513c0,0 -1.70544,-0.15863 -3.68221,-1.12474c-1.25302,-0.61237 -2.26308,-1.35516 -2.26308,-1.35516z" fill="#000000" stroke="none" stroke-width="1.5" stroke-linecap="butt"/><path d="M242.0679,84.565c3.77466,-6.84737 10.50977,-15.17241 10.50977,-15.17241c0,0 3.3121,1.84402 15.27971,4.8589c9.19427,2.3162 25.44021,2.8386 25.44021,2.8386c0,0 -3.86663,1.49893 -5.9335,2.11345c-2.19731,0.65332 -6.55857,1.8828 -6.55857,1.8828c0,0 8.54565,2.82975 16.95401,3.85931c10.35905,1.56015 13.80508,0.42287 15.21073,3.03063c1.65901,3.07779 -12.77367,21.32187 -16.3745,26.12562c-3.77298,4.84271 -8.08312,7.10729 -10.47178,9.47132c-2.38866,2.36404 -4.03894,5.26778 -11.65152,13.14246c-4.75077,4.91435 -9.31149,5.69436 -18.36417,7.59906c-9.05268,1.90471 -14.22188,3.29016 -18.07987,1.16809c-3.71278,-2.0422 -5.58479,-9.49384 -7.26753,-16.98001c-1.79182,-7.97156 -3.5209,-12.48346 -0.37475,-18.91162c2.83345,-5.78923 5.13545,-9.29864 7.97275,-14.26989c2.0737,-3.63336 1.64761,-7.01682 3.709,-10.7563z" fill="url(#color-2)" stroke="#000000" stroke-width="1.5" stroke-linecap="butt"/><g stroke-linecap="butt"><path d="M249.88285,158.28706c-8.42817,-4.44585 -24.8048,-16.24092 -26.4964,-17.20874c-3.13507,-1.79366 6.03176,-27.35494 7.27073,-29.22275c1.23897,-1.86782 4.78186,6.26239 7.91693,8.05605c1.69373,0.96903 12.48329,6.62051 19.59831,12.76289c6.05475,5.22708 15.33458,6.05233 14.76498,6.91105c0,0 -1.24085,4.33639 -3.40449,5.78284c-4.22153,2.82221 -14.89519,15.42684 -19.65006,12.91864z" fill="#000000" stroke="none" stroke-width="0"/><path d="M274.49223,140.16072c-0.15014,0.17672 -11.02965,-2.80153 -14.39794,-4.22809c-2.82267,-1.19549 -16.73225,-9.64222 -21.91598,-14.19311c-4.15458,-3.64736 -7.72735,-11.05947 -7.68208,-11.14909c0.06102,-0.12086 12.22122,8.02268 12.22122,8.02268c0,0 4.94203,2.48459 6.99009,4.71429c2.19447,2.38912 1.28098,3.7531 1.50572,3.9107c0,0 2.18045,-0.91286 3.53322,-0.57768c1.35277,0.3352 5.14616,2.43012 5.46291,2.80678c0,0 14.40112,10.55429 14.28282,10.69354z" fill="url(#color-3)" stroke="#000000" stroke-width="1.4"/><path d="M250.57392,164.87441c-6.25831,1.58247 -34.18388,-12.26425 -34.83885,-19.07774c-0.65163,-6.77871 14.28014,-34.55065 14.34843,-34.61576c0.05667,-0.05402 -6.31502,23.72886 -2.89448,30.42753c1.88873,3.69883 6.09986,4.96952 11.18217,7.90582c4.35679,2.51711 6.87201,4.71389 10.69635,5.30788c9.62419,1.49482 25.06772,-14.77082 24.93985,-14.51454c0,0 -15.64029,22.59623 -23.43345,24.56681z" fill="url(#color-4)" stroke="#000000" stroke-width="1.9"/></g><path d="M251.22899,126.14805c-0.99648,-0.57012 -1.4744,-4.87008 -0.46503,-6.8901c0.90309,-1.80737 3.54087,-2.70164 5.92333,-1.33856c2.38247,1.36308 3.75915,2.75681 1.39741,5.97223c-2.00434,2.72883 -4.47325,3.61952 -6.85571,2.25644z" fill="url(#color-5)" stroke="#000000" stroke-width="1.15" stroke-linecap="butt"/><path d="M272.57177,101.19389c0,0 -2.25847,3.61043 -4.22645,6.38312c-3.89694,5.49045 -17.5276,24.25571 -17.5276,24.25571l-2.87929,-1.63665c0,0 1.70391,-4.17837 4.55854,-9.12393c3.86399,-6.69425 9.24211,-14.83403 10.92233,-17.9964c1.5927,-2.99763 2.52983,-5.60992 2.52983,-5.60992" fill="url(#color-6)" stroke="#000000" stroke-width="1.3" stroke-linecap="round"/><path d="M237.69479,94.56494c0,0 -2.66574,-5.86861 -0.61226,-11.43421c2.16065,-5.8561 4.37114,-9.51891 6.39633,-8.68026c2.0252,0.83863 1.19425,3.61871 -1.36383,9.53879c-2.55809,5.92008 -4.42022,10.57571 -4.42022,10.57571z" data-paper-data="{&quot;index&quot;:null}" fill="url(#color-7)" stroke="#000000" stroke-width="1" stroke-linecap="butt"/><path d="M239.84368,90.91926c0,0 -1.69935,-4.58256 0.85578,-9.94668c1.42533,-2.9923 3.43301,-0.85181 3.43301,-0.85181" fill="none" stroke="#000000" stroke-width="0.25" stroke-linecap="round"/><path d="M246.70091,86.62259c2.97332,-4.34023 9.9704,-5.3315 15.10343,-2.29854c5.13302,3.03296 6.17891,8.7818 3.20559,13.12204c-2.97332,4.34023 -9.1972,5.59886 -14.33023,2.56592c-5.13302,-3.03295 -6.9521,-9.04918 -3.97879,-13.38942z" fill="#000000" stroke="#000000" stroke-width="1.4" stroke-linecap="butt"/><path d="M250.90848,89.17551c1.67658,-2.44736 5.17197,-3.16907 7.80718,-1.612c2.63523,1.55708 3.41232,4.80329 1.73574,7.25064c-1.67659,2.44736 -5.17196,3.16908 -7.80718,1.61202c-2.63521,-1.55707 -3.41232,-4.80329 -1.73574,-7.25065z" fill="#9966ff" stroke="none" stroke-width="1.5" stroke-linecap="butt"/><path d="M272.78113,101.54474c3.09893,-4.26377 9.55251,-5.47472 14.6786,-2.54193c5.12608,2.93277 6.58493,8.66543 3.67968,13.04524c-2.90525,4.37981 -9.13239,5.9776 -14.77861,2.83472c-5.37059,-2.98945 -6.81604,-8.88515 -3.57967,-13.33803z" fill="#000000" stroke="#000000" stroke-width="1.4" stroke-linecap="butt"/><path d="M296.27369,114.97496c4.54266,-4.78464 6.84245,-6.72433 8.55989,-5.42171c1.71743,1.30262 -0.81081,4.78364 -5.47069,9.20985c-4.42875,4.20665 -11.27154,4.63515 -11.27154,4.63515c0,0 3.6397,-3.63865 8.18236,-8.4233z" data-paper-data="{&quot;index&quot;:null}" fill="url(#color-8)" stroke="#000000" stroke-width="1" stroke-linecap="butt"/><path d="M299.08653,111.56155c0,0 2.96152,0.70254 0.72495,3.23071c-4.00935,4.53213 -9.18069,5.18376 -9.18069,5.18376" data-paper-data="{&quot;index&quot;:null}" fill="none" stroke="#000000" stroke-width="0.25" stroke-linecap="round"/></g></g></svg>