<svg version="1.1" xmlns="http://www.w3.org/2000/svg" xmlns:xlink="http://www.w3.org/1999/xlink" width="103.38336" height="268.13567" viewBox="0,0,103.38336,268.13567"><defs><linearGradient x1="238.34073" y1="119.29888" x2="241.54223" y2="186.47263" gradientUnits="userSpaceOnUse" id="color-1"><stop offset="0" stop-color="#000000"/><stop offset="1" stop-color="#000000" stop-opacity="0"/></linearGradient></defs><g transform="translate(-189.8412,-54.34558)"><g data-paper-data="{&quot;isPaintingLayer&quot;:true}" fill-rule="nonzero" stroke-linejoin="miter" stroke-miterlimit="10" stroke-dasharray="" stroke-dashoffset="0" style="mix-blend-mode: normal"><path d="M207.11313,322.48125v-45.5h85v45.5z" fill="#202020" stroke="none" stroke-width="0" stroke-linecap="butt"/><path d="M206.69644,292.73125v-16h85.25v16z" fill="#505050" stroke="none" stroke-width="0" stroke-linecap="butt"/><path d="M281.16956,54.34558l12.055,252.9379l-91.32836,4.3527l-12.055,-252.9379z" data-paper-data="{&quot;index&quot;:null}" fill-opacity="0.01" fill="#000000" stroke="none" stroke-width="0" stroke-linecap="butt"/><path d="M220.52946,171.09157l-9.87823,-13.21138c0,0 21.63115,-6.69731 30.39981,-7.32409c6.64789,-0.47518 29.21284,5.77014 29.21284,5.77014l-7.21126,12.73869z" fill="#101d1b" stroke="none" stroke-width="0" stroke-linecap="butt"/><path d="M210.75453,160.80714l-4.48983,-4.45799c0,0 21.05922,-7.36452 31.51762,-7.78408c11.5544,-0.46354 34.84906,5.12162 34.84906,5.12162l-1.87708,5.42885c0,0 -6.58742,-2.10087 -14.12921,-3.93289c-6.24083,-1.51599 -13.13515,-2.84788 -17.49106,-2.65289c-9.5872,0.42916 -28.37952,8.27736 -28.37952,8.27736z" fill="#325954" stroke="none" stroke-width="0" stroke-linecap="butt"/><path d="" fill="#60ab9f" stroke="none" stroke-width="1.5" stroke-linecap="butt"/><path d="M267.15058,102.06072c0.00115,0.00477 0.00231,0.00951 0.00346,0.01427c-0.02925,0.00322 -0.0585,0.00648 -0.08778,0.00978c0.02811,-0.00798 0.05621,-0.01602 0.08432,-0.02406z" fill="#60ab9f" stroke="none" stroke-width="1.5" stroke-linecap="butt"/><path d="M212.16994,170.76216l-0.00451,-2.05738c0.43717,0.19894 0.8778,0.38776 1.32162,0.56669z" fill="#60ab9f" stroke="none" stroke-width="1.5" stroke-linecap="butt"/><path d="M267.15058,102.06071c0.00115,0.00477 0.00231,0.00951 0.00346,0.01427c-0.02925,0.00322 -0.0585,0.00648 -0.08778,0.00978c0.02811,-0.00798 0.05621,-0.01602 0.08432,-0.02406z" fill="#60ab9f" stroke="none" stroke-width="1.5" stroke-linecap="butt"/><path d="M209.74934,276.16754c0,0 4.67709,-1.09541 4.34065,-7.27915c-1.13362,-20.83579 -6.63599,-66.59529 -7.41059,-80.84368c-0.34659,-6.37531 7.97071,-30.45295 33.00842,-31.77153c24.71489,-1.30158 34.6911,24.96907 34.96119,30.76556c1.23219,26.78661 0.91785,61.1047 1.92481,78.87374c0.35297,6.2285 5.60148,5.26243 5.60148,5.26243l-0.21624,5.34164c0,0 -7.42509,1.50087 -11.36293,-0.6911c-2.26701,-1.26192 -1.97114,-5.82279 -2.04269,-7.28181c-0.63326,-12.91152 -2.74875,-81.54693 -2.74875,-81.54693c0,0 -0.57974,-2.90286 -2.84383,-2.83795c-2.68897,0.07708 -2.937,2.58268 -2.937,2.58268c0,0 0.88324,7.79163 1.16937,13.57744c0.23046,4.66009 -0.32999,14.60796 0.12845,25.26581c0.98419,22.87975 3.14545,51.0055 3.14545,51.0055c0,0 4.10278,16.46481 2.74318,16.85883c-0.26752,0.07754 2.30713,14.78733 2.30713,14.78733c0,0 -10.46987,2.76891 -12.24231,-0.30993c-0.8072,-1.40215 0.69572,-10.88457 0.6329,-18.595c-0.04616,-5.66526 -1.74193,-10.33555 -1.74193,-10.33555c0,0 -6.78959,-6.10942 -11.4668,-5.93855c-4.67721,0.17087 -9.51236,6.70495 -9.51236,6.70495c0,0 -2.39328,4.11133 -2.76538,9.27252c-0.47415,6.57668 1.28115,17.00467 -0.1821,19.60324c-1.4396,2.55655 -8.31968,2.28058 -8.78729,2.20748c-1.47628,-0.23078 3.30279,-32.40134 3.30279,-32.40134c0,0 -1.00278,-28.13675 -2.38091,-51.08864c-0.6797,-11.3201 -2.01764,-21.35193 -2.26045,-26.17768c-0.28572,-5.67844 0.10638,-12.86278 0.10638,-12.86278c0,0 -0.88906,-2.24618 -3.36552,-2.14025c-2.43399,0.10412 -3.06917,2.92755 -3.06917,2.92755c0,0 5.47497,68.41021 6.13476,81.41468c0.0581,1.14505 0.76782,5.77264 -0.63353,6.90968c-3.56569,2.89314 -11.68484,1.93494 -11.68484,1.93494z" fill="#ffffff" stroke="#000000" stroke-width="2" stroke-linecap="butt"/><path d="M224.6605,283.85615l-0.05781,-18.01768l39.75488,-1.89472c0,0 0.94063,9.20196 1.13746,12.55636c0.13129,2.23735 -0.07127,5.61348 -0.07127,5.61348c0,0 -4.74962,-1.59125 -10.04834,-2.86609c-3.83953,-0.92377 -7.69161,-4.2975 -10.5096,-4.1632c-2.39766,0.11427 -5.99144,3.58811 -9.23282,4.62886c-0.83424,0.26786 -1.66341,0.54785 -2.47051,0.8304c-4.61129,1.61437 -8.502,3.31257 -8.502,3.31257z" fill="#73cec0" stroke="none" stroke-width="0" stroke-linecap="butt"/><path d="M223.67116,284.10356l0.4089,-4.02402l12.78549,-0.60935l-1.20799,4.06211z" fill="#437870" stroke="none" stroke-width="0" stroke-linecap="butt"/><path d="M254.82624,282.41845l-0.99903,-4.15715l12.19568,-0.38101l0.98952,3.95738z" fill="#437870" stroke="none" stroke-width="0" stroke-linecap="butt"/><path d="M224.6982,276.24574l-0.4951,-10.38821l40.15442,-1.91376l0.4951,10.38821c0,0 -13.66543,-4.95506 -20.64347,-4.62249c-6.34684,0.30249 -19.51096,6.53625 -19.51096,6.53625z" fill="#7ee1d2" stroke="none" stroke-width="0" stroke-linecap="butt"/><path d="M239.59571,277.93847l-0.4191,-12.99478l1.79796,-0.08569l0.59032,12.38594z" fill="#25423e" stroke="none" stroke-width="0" stroke-linecap="butt"/><path d="M248.33064,276.36347l-0.56514,-11.85776l1.79796,-0.08569l0.81049,12.80451z" data-paper-data="{&quot;index&quot;:null}" fill="#25423e" stroke="none" stroke-width="0" stroke-linecap="butt"/><path d="M239.25566,270.80371l-0.15381,-5.92797l1.79796,-0.08569l0.32842,5.39048z" fill="#2f534e" stroke="none" stroke-width="0" stroke-linecap="butt"/><path d="M248.03196,270.0966l-0.26646,-5.59089l1.79796,-0.08569l0.48404,5.95514c0,0 -0.65809,-0.21945 -0.97317,-0.263c-0.35255,-0.04873 -1.04237,-0.01556 -1.04237,-0.01556z" data-paper-data="{&quot;index&quot;:null}" fill="#2f534e" stroke="none" stroke-width="0" stroke-linecap="butt"/><path d="M274.5811,192.77641c0,0 2.04324,5.38787 2.24462,9.90489c0.37657,8.44599 1.66303,37.29946 2.21812,49.74912c0.15932,3.57346 -1.511,6.48045 -1.511,6.48045c0,0 -0.5361,-2.87737 -2.33943,-5.44569c-1.99355,-2.83922 -4.92594,-6.68096 -8.28701,-10.61088l-2.36243,-49.56847z" fill="#4a4a4a" stroke="none" stroke-width="0" stroke-linecap="butt"/><path d="M212.36873,261.21568c0,0 -1.58111,-2.57094 -1.86939,-6.73271c-0.92986,-13.42376 -2.95814,-42.70487 -3.49674,-50.48022c-0.25667,-3.70543 2.86155,-7.94172 2.86155,-7.94172l9.23815,-0.46887c0.34117,7.15853 0.9503,19.93925 1.29148,27.09779c0.38244,8.02429 0.76487,16.04858 1.14732,24.07287c-5.30433,7.66691 -9.17236,14.45285 -9.17236,14.45285z" fill="#4a4a4a" stroke="none" stroke-width="0" stroke-linecap="butt"/><path d="M275.30536,190.20931c2.51259,1.2803 1.61623,9.66375 1.61623,9.66375l0.40941,8.59025c0,0 -5.15916,-2.06709 -11.86684,-4.27235c-0.28421,-5.96335 -0.57396,-12.04276 -0.70302,-14.75082c-0.0337,-0.70699 -0.06546,-1.37353 -0.09466,-1.98626c4.28367,0.57944 8.09403,1.4587 10.6389,2.75544z" fill="#2d2d2d" stroke="none" stroke-width="0" stroke-linecap="butt"/><path d="M207.41043,211.7957l-0.40941,-8.59025c0,0 -0.59452,-10.79699 0.91702,-11.84837c2.31058,-1.60716 6.29636,-2.6164 10.82636,-3.27425c0.26771,5.61709 0.55708,11.68849 0.83748,17.5721c-6.82673,3.11323 -12.17146,6.14076 -12.17146,6.14076z" fill="#2d2d2d" stroke="none" stroke-width="0" stroke-linecap="butt"/><path d="M249.50907,199.01325c-3.50328,-0.07953 -5.19249,-1.159 -4.92252,-1.78826c0.08319,-0.19389 2.26626,0.72584 5.50119,0.7608c5.02736,0.05435 6.63361,-0.81144 6.63361,-0.81144l0.05019,1.05304c0,0 -1.84893,0.90877 -7.26246,0.78588z" fill="#000000" stroke="#000000" stroke-width="0" stroke-linecap="butt"/><path d="M232.6761,199.8155c-5.37731,0.63719 -7.30428,-0.09163 -7.30428,-0.09163l-0.05018,-1.05303c0,0 1.68131,0.7091 6.68072,0.17688c3.21693,-0.34247 5.30266,-1.46563 5.4039,-1.28054c0.32859,0.60073 -1.25032,1.83596 -4.73015,2.2483z" fill="#000000" stroke="#000000" stroke-width="0" stroke-linecap="butt"/><path d="M243.60852,243.63227c-0.64062,0.03053 -1.18469,-0.46404 -1.21522,-1.10466c-0.03053,-0.64062 0.46404,-1.18469 1.10466,-1.21522c0.64062,-0.03053 1.18469,0.46404 1.21522,1.10466c0.03053,0.64062 -0.46404,1.18469 -1.10466,1.21522z" data-paper-data="{&quot;index&quot;:null}" fill="#000000" stroke="none" stroke-width="1.5" stroke-linecap="butt"/><path d="M225.04871,267.91478l-3.85608,-80.90817l39.62168,-1.88837l3.85608,80.90817z" fill="#000000" stroke="none" stroke-width="0" stroke-linecap="butt"/><path d="M277.31179,195.17763l0.26183,5.49377c0,0 -7.59981,-4.08527 -16.46807,-7.68974l-1.40599,-29.50047c18.76576,8.48023 17.61224,31.69645 17.61224,31.69645z" fill="#000000" stroke="none" stroke-width="0" stroke-linecap="butt"/><path d="M205.65536,204.09901l-0.26183,-5.49377c0,0 -5.59733,-22.74225 14.85513,-33.15506c0.05148,1.07998 0.10294,2.15994 0.15441,3.23994c0.40685,8.53651 0.8137,17.07302 1.22055,25.60953c-8.5574,4.57144 -15.96826,9.79937 -15.96826,9.79937z" fill="#000000" stroke="none" stroke-width="0" stroke-linecap="butt"/><path d="M253.46567,195.50388c-0.44676,0.02129 -0.82618,-0.32362 -0.84747,-0.77038c-0.02129,-0.44676 0.32362,-0.82621 0.77036,-0.8475c0.44676,-0.02129 0.82619,0.32363 0.84748,0.77038c0.02129,0.44676 -0.32362,0.8262 -0.77037,0.84749z" fill="#000000" stroke="none" stroke-width="1.5" stroke-linecap="butt"/><path d="M221.25788,198.01599l-15.55384,-42.30752c0,0 27.93421,18.85821 34.43341,18.54846c0.8102,-0.03861 1.88321,-0.36224 3.14563,-0.90298c9.42315,-4.03635 29.39942,-20.17024 29.39942,-20.17024l-11.29573,42.91974z" fill="#447a72" stroke="none" stroke-width="0" stroke-linecap="butt"/><path d="M241.22815,197.27874c0,0 2.66493,-3.14285 10.16786,-14.35747c8.0118,-11.97524 -2.94344,-10.27359 -8.1849,-9.04586c-1.49911,0.35115 -2.53299,0.35201 -2.53299,0.35201c0,0 0.77342,-0.13878 1.55348,-0.42383c1.02761,-0.37553 2.29317,-0.92877 3.41728,-1.66066c5.19507,-3.38233 27.06391,-18.69847 27.06391,-18.69847l-11.02063,42.71594z" fill="#63b3a7" stroke="none" stroke-width="0" stroke-linecap="butt"/><path d="M221.28913,198.19326l-15.41539,-41.99232c0,0 18.25526,26.72971 19.92636,36.88601c1.96735,4.09342 15.13411,4.02616 15.13411,4.02616z" fill="#2a4d47" stroke="none" stroke-width="0" stroke-linecap="butt"/><path d="M224.89818,267.83758l-1.00925,-21.17597c0,0 13.11007,8.44177 19.91151,8.1176c7.41147,-0.35323 20.04313,-10.02185 20.04313,-10.02185l1.00925,21.17597z" fill="#1b1b1b" stroke="none" stroke-width="0" stroke-linecap="butt"/><path d="M243.48315,267.07925l-3.35751,-70.44732l3.19637,-0.15234l3.35751,70.44732z" fill="#223d39" stroke="none" stroke-width="0" stroke-linecap="butt"/><path d="M243.53592,267.04034l-0.58858,-12.34961l2.90579,-0.13849l0.58858,12.34961z" fill="#3f7169" stroke="none" stroke-width="0" stroke-linecap="butt"/><path d="M278.10373,262.48775l0.46637,5.58413c0,0 -5.43682,-0.14133 -10.20747,0.08603c-0.53248,0.02538 -1.14157,0.0534 -1.8188,0.08384c-0.00279,-1.49297 0.09712,-2.97611 0.11004,-4.46706c6.44577,-0.68682 11.44988,-1.28694 11.44988,-1.28694z" fill="#000000" stroke="none" stroke-width="0" stroke-linecap="butt"/><path d="M211.64615,271.26147l-0.26659,-5.59365c0,0 5.1248,0.12358 11.68651,0.19398c0.12262,1.46158 0.37922,2.87482 0.54099,4.32782c-0.33861,0.01854 -0.67239,0.037 -1.00098,0.0554c-6.49737,0.36384 -10.95993,1.01645 -10.95993,1.01645z" fill="#000000" stroke="none" stroke-width="0" stroke-linecap="butt"/><path d="M251.68473,194.7956l1.67433,-5.44168l-3.98324,0.61445l3.38319,-2.43917l2.40994,-4.13844l2.41034,3.84683l3.38328,1.85373l-3.68406,0.17913l2.06077,5.29025l-3.82739,-2.61105z" fill="#2a4d47" stroke="#000000" stroke-width="1" stroke-linecap="butt"/><g fill="#2d2d2d" stroke="none" stroke-width="0" stroke-linecap="butt"><path d="M277.89849,219.66284l0.39275,8.24065l-13.03348,-4.14643c0.04116,-2.15692 -0.19921,-4.38093 -0.22573,-6.23412c-0.00642,-0.44837 0.00311,-0.88941 0.01602,-1.32506z"/><path d=""/><path d="M208.1209,231.24779l-0.39275,-8.24065l12.9527,-4.82455c0.10006,1.42155 0.36552,3.21449 0.63134,4.80637c-0.16847,0.89464 -0.14445,1.78679 -0.00885,2.67071z"/></g><g fill="#242424" stroke="none" stroke-width="0" stroke-linecap="butt"><path d="M278.52883,232.8885l0.32179,6.75167l-12.99252,-3.28694c0.05967,-1.76843 -0.16149,-3.58944 -0.17207,-5.10831c-0.00256,-0.36747 0.01076,-0.7291 0.0274,-1.08631z"/><path d=""/><path d="M208.68026,242.98447l-0.32179,-6.75167l12.98885,-4.06609c0.08781,1.16441 0.33776,2.63183 0.58979,3.93447c-0.17609,0.73479 -0.15975,1.46592 -0.03179,2.18931z"/></g><path d="M224.91641,159.85895l3.10145,-1.02381c0,0 3.5075,-1.87543 12.62031,-2.34847c8.52424,-0.44247 11.37677,1.85551 11.37677,1.85551l2.39779,0.73668c0,0 -1.05814,7.23486 -14.70274,8.27183c-12.46478,0.9473 -14.79356,-7.49174 -14.79356,-7.49174z" fill="url(#color-1)" stroke="none" stroke-width="0" stroke-linecap="butt"/><path d="M267.15058,102.06072c0.00115,0.00477 0.00231,0.00951 0.00346,0.01427c-0.02925,0.00322 -0.0585,0.00648 -0.08778,0.00978c0.02811,-0.00798 0.05621,-0.01602 0.08432,-0.02406z" fill="#60ab9f" stroke="none" stroke-width="1.5" stroke-linecap="butt"/><path d="M240.07822,83.30563c3.11428,0.00138 12.16672,-0.00123 18.05542,2.31811c3.01874,1.18896 5.32643,5.51282 5.32643,5.51282l0.10213,5.14383c0,0 0.10026,-9.62381 -22.61861,-10.11646c-9.7056,-0.21046 -30.56613,7.50255 -30.56613,7.50255l-0.5505,-2.54811c0,0 8.86982,-7.82227 30.25126,-7.81272z" fill="#333333" stroke="none" stroke-width="0" stroke-linecap="butt"/><path d="M210.63613,105.09575l-0.65968,-13.84142c0,0 9.08528,-5.43278 29.13812,-7.03744c3.51021,-0.28089 7.3565,-0.44448 11.54896,-0.4411c6.40632,0.00517 13.45573,9.18869 13.45573,9.18869l-1.54207,9.65579z" fill="#151313" stroke="none" stroke-width="0" stroke-linecap="butt"/><path d="M255.78823,86.21053c4.47932,3.96022 5.84419,11.59207 5.84419,11.59207c0,0 0.01813,4.77647 -6.46139,5.21293c-9.06344,0.61053 -39.95055,-1.74406 -39.95055,-1.74406c0,0 -1.55646,-9.55119 3.92616,-15.60725c5.03892,-5.56595 10.87863,-7.80813 16.35129,-8.06896c11.42721,-0.54462 15.56157,4.43454 20.29028,8.61527z" fill="#73cec0" stroke="none" stroke-width="0" stroke-linecap="butt"/><path d="M214.65869,102.4727l0.6451,-10.47115c0,0 15.53083,6.17855 23.16395,5.83968c6.8968,-0.30618 20.65028,-7.78483 20.65028,-7.78483l3.74444,9.54685c0,0 -2.809,3.02486 -5.28451,3.17293c-7.1861,0.42984 -42.91925,-0.30347 -42.91925,-0.30347z" fill="#83e9da" stroke="none" stroke-width="0" stroke-linecap="butt"/><path d="M251.28361,96.72261c0.32677,6.85633 -5.79701,12.71896 -13.67784,13.09457c-7.88084,0.3756 -14.53442,-4.87807 -14.86118,-11.7344c-0.06386,-1.33997 0.11866,-2.642 0.51252,-3.87253c1.2679,0.63722 2.36609,0.88029 2.84238,1.15811c1.13101,0.65975 2.37591,0.78075 3.51882,1.14786c0.52219,3.8062 3.7808,7.28011 7.69162,7.09371c3.95575,-0.18853 7.04928,-3.40886 7.14102,-7.30729c2.14974,-0.65293 4.28859,-1.41623 6.40423,-2.1348c0.24003,0.81945 0.38645,1.67387 0.42844,2.55475z" fill="#54978d" stroke="none" stroke-width="0" stroke-linecap="butt"/><path d="M236.42244,84.98822c6.78283,-0.32327 12.79927,3.89202 14.51266,9.34144c-2.21823,0.89644 -4.31153,1.70165 -6.4662,2.41943c0.07377,-0.48492 -0.00025,-0.4789 -0.02449,-0.98769c-0.19719,-4.13743 -3.71111,-7.33165 -7.84854,-7.13445c-4.13743,0.19719 -7.1177,8.12231 -7.10393,8.25754c-0.40072,-0.05029 -5.32713,-2.34252 -6.31037,-2.42854c1.52969,-5.18639 6.79812,-9.16066 13.24087,-9.46773z" fill="#437870" stroke="none" stroke-width="0" stroke-linecap="butt"/><path d="M212.16994,170.76216l-0.00451,-2.05738c0.43717,0.19894 0.8778,0.38776 1.32162,0.56669z" fill="#60ab9f" stroke="none" stroke-width="1.5" stroke-linecap="butt"/><path d="M267.15058,102.06071c0.00115,0.00477 0.00231,0.00951 0.00346,0.01427c-0.02925,0.00322 -0.0585,0.00648 -0.08778,0.00978c0.02811,-0.00798 0.05621,-0.01602 0.08432,-0.02406z" fill="#60ab9f" stroke="none" stroke-width="1.5" stroke-linecap="butt"/><path d="M203.1692,122.27922c0,0 4.60042,-4.86213 4.66853,-5.54414c0.10488,-1.0504 -0.47515,-11.70158 4.74155,-20.81031c1.45619,1.57149 5.43661,2.09806 7.03446,2.37409c3.44908,0.59577 6.91678,1.07597 10.36685,1.66692c3.40272,0.58284 6.87867,1.1994 10.32593,1.21711c0.82843,0.00412 1.72131,0.01819 2.63898,0.01689c1.27699,0.83648 2.82032,1.29205 4.46178,1.21382c0.4411,-0.02103 0.87148,-0.07975 1.28817,-0.1729c2.45017,0.11211 5.5835,-0.5479 7.54022,-0.64116c3.52539,-0.16802 6.26361,-0.23126 8.7693,-2.93573c2.5415,6.65531 3.70614,20.46719 4.67483,22.75822c3.04833,7.2095 2.76692,9.79173 2.76692,9.79173l-4.72751,-4.55519c0,0 2.63378,4.41212 1.62697,12.57229c-0.86864,7.4747 -2.37857,29.63167 -2.37857,29.63167c0,0 -3.80233,-10.44289 -4.64974,-9.51279c-0.84742,0.93009 -0.62315,4.98304 -0.62315,4.98304c0,0 -2.38494,-3.5692 -2.87271,-5.50198c-0.4244,-1.68163 -0.86544,-4.89942 -0.86544,-4.89942c0,0 -4.13689,8.3349 -17.66779,8.86501c-5.15546,0.16482 -17.90881,-6.18029 -17.90881,-6.18029c0,0 0.949,3.6047 0.81459,5.22707c-0.14982,1.80843 -1.67234,5.12602 -1.67234,5.12602l-2.2,-8.206l-4.49446,9.13674l-3.44279,3.89651l-0.27199,-29.39133c0,0 0.57167,-0.54053 -2.03809,0.27005c-3.27019,1.01571 -3.00878,3.13146 -3.00878,3.13146c0,0 -1.77056,-3.47612 -0.30137,-5.15552c1.30864,-1.49588 1.64537,-3.01226 1.64537,-3.01226c0,0 -0.79283,0.03009 -2.43537,0.52646c-1.71379,0.5179 -3.58788,3.01858 -3.58788,3.01858c0,0 -0.13524,-0.65344 1.2553,-5.29606c1.31289,-4.38338 4.96422,-14.40512 4.96422,-14.40512c0,0 -1.04047,0.56832 -2.57533,0.74615c-0.9729,0.11273 -1.86188,0.0504 -1.86188,0.0504z" fill="#000000" stroke="none" stroke-width="1.5" stroke-linecap="butt"/><path d="M216.72191,130.50972c-0.72334,-5.68358 -0.3775,-13.43149 -0.3775,-13.43149c0,0 1.55774,-3.4653 2.39651,-3.69649c0.82371,-0.22703 0.69733,8.085 0.69733,8.085c0,0 3.89441,-11.07126 5.96079,-11.79032c3.00404,-1.04534 4.12016,4.8247 4.12016,4.8247l3.91696,-3.98629l5.53855,4.86776l2.30797,-8.25457c0,0 7.24728,7.91594 7.67605,7.69887c2.48664,-1.16759 4.16434,-6.39726 5.73737,-5.14681c2.5836,2.05376 4.13575,5.87006 5.31603,6.52548c2.24117,1.24454 0.29812,6.81533 0.26159,11.17461c-0.11846,4.45043 -1.62747,7.52552 -1.99752,9.91158c-0.37006,2.38604 -0.09163,4.8156 -1.12781,12.62922c-0.64665,4.87623 -2.92284,7.13643 -7.29107,11.84188c-4.36821,4.70547 -6.73732,7.57545 -9.83228,7.77704c-2.97848,0.194 -7.18001,-3.65646 -11.28798,-7.60207c-4.37432,-4.20144 -7.25838,-6.30033 -8.16434,-11.48079c-0.81592,-4.66555 -0.97685,-7.72194 -1.44667,-11.88609c-0.34339,-3.04345 -2.00909,-4.95729 -2.40411,-8.06121z" fill="#ffffff" stroke="#000000" stroke-width="1.5" stroke-linecap="butt"/><path d="M245.37869,150.9924c0.4541,0.14447 2.46429,0.97973 4.80891,1.80602c2.3633,0.83287 5.7283,1.5247 5.71929,1.6565c-0.01144,0.16728 -8.15409,0.56654 -10.67704,1.00454c-2.11428,0.36706 -5.20586,0.80135 -5.20586,0.80135c0,0 -5.60039,-0.64387 -10.47338,-1.41794c-3.90554,-0.62038 -8.19671,-0.91168 -8.20855,-0.98444c-0.01596,-0.09812 2.9995,-0.70017 5.28618,-1.34539c0.87783,-0.43118 4.19981,-1.36455 4.19981,-1.36455c0,0 3.86634,-0.40195 5.97311,0.16928c2.25738,0.61207 2.3092,1.80732 2.5038,1.81646c0,0 0.86124,-1.41255 1.77456,-1.73463c0.91333,-0.32208 3.96,-0.51514 4.2992,-0.40724z" fill="#ffffff" stroke="#000000" stroke-width="1.4" stroke-linecap="butt"/><path d="M230.96119,155.24966c4.0208,0.61336 9.42711,1.75174 9.42711,1.75174c0,0 4.471,-1.43291 6.53906,-1.74986c1.60331,-0.24574 8.74732,-0.97084 8.79584,-0.68089c0.04744,0.28349 -6.58366,10.42791 -16.07894,10.52514c-10.7874,0.17246 -18.44997,-10.9873 -18.42669,-11.12101c0.0233,-0.13371 5.72281,0.66153 9.74362,1.2749z" fill="#ffffff" stroke="#000000" stroke-width="1.9" stroke-linecap="butt"/><path d="M239.43412,152.49873c-0.80865,0.03854 -2.88921,-2.41854 -3.16209,-4.05456c-0.24416,-1.46379 0.88603,-3.04346 2.81941,-3.1356c1.93339,-0.09215 3.30537,0.22724 3.30858,3.12622c0.00273,2.46027 -1.03253,3.97181 -2.96591,4.06395z" fill="#ffffff" stroke="#000000" stroke-width="1.15" stroke-linecap="butt"/><path d="M241.12992,128.82375c0,0 0.22826,3.1015 0.27019,5.57455c0.08306,4.89707 0.18899,21.75598 0.18899,21.75598l-2.33208,0.11792c0,0 -0.78366,-3.23417 -1.2328,-7.38929c-0.60795,-5.62431 -0.95905,-12.72852 -1.32913,-15.32878c-0.35078,-2.46481 -0.91388,-4.43675 -0.91388,-4.43675" fill="#ffffff" stroke="#000000" stroke-width="1.3" stroke-linecap="round"/><path d="M218.42887,138.36519c0,0 -3.98923,-2.56731 -5.15649,-6.79085c-1.22817,-4.44398 -1.50586,-7.55895 0.00307,-7.83404c1.50892,-0.2751 2.20318,1.75855 3.23134,6.39703c1.02814,4.63849 1.9221,8.22786 1.9221,8.22786z" data-paper-data="{&quot;index&quot;:null}" fill="#ffffff" stroke="#000000" stroke-width="1" stroke-linecap="butt"/><path d="M218.12325,135.28476c0,0 -2.89679,-2.15394 -3.69291,-6.44946c-0.44411,-2.39619 1.6021,-1.86405 1.6021,-1.86405" fill="none" stroke="#000000" stroke-width="0.25" stroke-linecap="round"/><path d="M219.52435,130.33496c-0.13301,-4.01417 3.61825,-7.51678 8.02724,-7.66291c4.40898,-0.14611 7.56845,3.13093 7.70148,7.1451c0.13302,4.01416 -3.03763,7.37265 -7.44662,7.51876c-4.40898,0.14612 -8.14909,-2.98679 -8.2821,-7.00097z" fill="#ffffff" stroke="#000000" stroke-width="1.4" stroke-linecap="butt"/><path d="M222.95475,129.48649c-0.07155,-2.15925 1.62086,-3.96767 3.78011,-4.03923c2.15925,-0.07155 3.96766,1.62085 4.03922,3.7801c0.07155,2.15925 -1.62084,3.96767 -3.7801,4.03923c-2.15925,0.07155 -3.96767,-1.62085 -4.03923,-3.7801z" fill="#000000" stroke="#000000" stroke-width="1" stroke-linecap="butt"/><path d="M241.42427,129.51949c-0.0249,-4.14194 3.40839,-7.67072 7.90548,-7.88505c4.49708,-0.21434 8.00295,2.98014 8.20013,7.11745c0.19719,4.13731 -7.11241,16.26341 -7.11241,16.26341c0,0 -4.16891,-8.46097 -5.50475,-9.27594c-2.12148,-1.29426 -3.47249,-3.56557 -3.48845,-6.21987z" fill="#ffffff" stroke="#000000" stroke-width="1.4" stroke-linecap="butt"/><path d="M244.49978,130.04235c-0.10507,-2.20471 3.7146,-2.50953 3.7146,-2.50953c0,0 4.16431,-0.0757 4.26938,2.12902c0.10507,2.20471 -3.57958,8.84363 -3.57958,8.84363c0,0 -4.29933,-6.25839 -4.4044,-8.46311z" fill="#000000" stroke="#000000" stroke-width="1" stroke-linecap="butt"/><path d="M219.4412,129.49698c0,0 -0.27979,-6.9635 8.34314,-7.22726c7.75,-0.24101 8.15919,6.89143 8.15919,6.89143c0,0 -5.79212,-1.51368 -8.62781,-1.45597c-2.6529,0.05399 -7.87453,1.79181 -7.87453,1.79181z" fill="#25433f" stroke="#25433f" stroke-width="1.15" stroke-linecap="butt"/><path d="M241.09256,128.78269c0,0 -0.55531,-7.51937 8.56838,-7.67098c7.74523,-0.1031 7.96542,7.32107 7.96542,7.32107c0,0 -5.64296,-0.95571 -8.47404,-0.8958c-2.67088,0.05653 -8.05977,1.24571 -8.05977,1.24571z" fill="#25433f" stroke="#25433f" stroke-width="1.15" stroke-linecap="butt"/><path d="M260.45681,128.04266c0.58234,-4.71524 1.08006,-6.80569 2.60831,-6.67535c1.52825,0.13034 1.54807,3.2576 0.74809,7.79823c-0.76029,4.3154 -4.48729,7.25048 -4.48729,7.25048c0,0 0.54855,-3.65812 1.13089,-8.37336z" data-paper-data="{&quot;index&quot;:null}" fill="#ffffff" stroke="#000000" stroke-width="1" stroke-linecap="butt"/><path d="M260.62792,124.84584c0,0 1.98632,-0.72433 1.77211,1.70324c-0.38399,4.35177 -3.06281,6.77144 -3.06281,6.77144" data-paper-data="{&quot;index&quot;:null}" fill="none" stroke="#000000" stroke-width="0.25" stroke-linecap="round"/><path d="M208.22268,109.75869c0,0 -2.75325,-5.26652 -2.24178,-8.28194c0.22526,-1.32802 4.10924,-10.88426 4.10924,-10.88426c0,0 0.67538,4.02104 2.40099,4.58017c8.96724,2.9056 33.9543,7.0356 43.5157,6.57991c7.6416,-0.3642 7.45139,-11.70132 7.45139,-11.70132c0,0 4.06727,3.60869 4.4616,4.72319c0.91446,2.58461 -0.79578,11.50959 -0.79578,11.50959l-0.44808,-0.86855l-58.10073,2.76907z" fill="#333333" stroke="none" stroke-width="0" stroke-linecap="butt"/><path d="M208.30161,109.83329c0,0 -0.57744,-0.83115 -1.03429,-1.90274c-0.69607,-1.63275 -1.51092,-4.06292 -1.19055,-5.93005c0.26311,-1.5334 3.86338,-11.15059 3.86338,-11.15059c0,0 0.5981,3.27034 2.9416,4.31001c2.25344,0.99972 8.83753,2.22756 8.83753,2.22756l14.37494,9.44326l-27.45457,1.53721z" fill="#202020" stroke="none" stroke-width="0" stroke-linecap="butt"/><path d="M255.00523,105.90974l-0.20403,-4.28086l0.92752,-0.04421l0.20403,4.28086z" fill="#8fffee" stroke="none" stroke-width="0" stroke-linecap="butt"/><path d="M254.85616,105.98201l-0.10315,-2.16421l1.16534,-0.05554l0.10315,2.16421z" fill="#60ab9f" stroke="none" stroke-width="0" stroke-linecap="butt"/><path d="M263.75552,90.81892l0.48116,5.42769l-0.0102,9.12194" fill="none" stroke="#141414" stroke-width="1" stroke-linecap="round"/><path d="M253.7803,86.09171c0.23475,4.92553 -8.08722,-4.11967 -17.62304,-3.66519c-9.53581,0.45448 -16.67443,10.23652 -16.90918,5.311c-0.23475,-4.92553 7.28485,-9.71496 16.82067,-10.16944c9.53581,-0.45448 17.47682,3.59811 17.71157,8.52364z" fill="#8fffee" stroke="none" stroke-width="0" stroke-linecap="butt"/><path d="M217.15025,131.17115l-3.02919,-21.54689l27.10413,-1.95921l13.58784,1.52153l6.42959,8.87063l-3.41598,19.35123c0,0 -5.61283,9.90899 -8.79057,9.36922c-0.80962,-0.13751 -3.19571,-9.58626 -4.18895,-10.51622c-2.94867,-2.76079 -6.13116,-7.78592 -6.13116,-7.78592c0,0 -4.43637,9.32971 -7.73963,10.15543c-2.98655,0.74655 -11.28894,0.2615 -11.28894,0.2615zM227.89865,137.53333c4.41327,-0.21033 7.82042,-3.95851 7.61009,-8.37178c-0.21033,-4.41327 -3.95851,-7.82042 -8.37178,-7.61009c-4.41327,0.21033 -7.82042,3.95851 -7.61009,8.37178c0.21033,4.41327 3.95851,7.82042 8.37178,7.61009zM250.7999,143.3163c0,0 6.52799,-10.07058 6.31764,-14.48384c-0.21033,-4.41327 -3.95851,-7.82042 -8.37178,-7.61009c-4.41327,0.21033 -7.42563,3.83958 -7.21529,8.25285c0.11004,2.30896 2.64221,5.99053 5.03192,8.97642c2.17791,2.72123 4.2375,4.86466 4.2375,4.86466z" fill="#000000" stroke="#000000" stroke-width="1.15" stroke-linecap="round"/><path d="M222.4398,119.34153c0,0 2.56806,-1.54852 6.19827,-2.08437c4.02272,-0.5938 6.07418,-0.34145 6.07418,-0.34145l0.38508,3.22551c0,0 -3.0257,-0.38944 -6.29142,-0.10874c-4.3675,0.37541 -5.1445,1.36864 -8.45419,1.88567c-2.83593,0.44302 -5.26425,0.37543 -5.26425,0.37543l-0.06616,-0.96241c0,0 2.81506,-0.07617 4.09149,-0.2486c1.05352,-0.14232 3.075,-0.88203 3.075,-0.88203z" fill="#e6e6e6" stroke="none" stroke-width="1.5" stroke-linecap="butt"/><path d="M253.72908,119.72782c0,0 1.20423,0.19198 3.37046,0.70985c1.97861,0.47303 3.5455,1.19838 3.5455,1.19838l0.19625,0.90822c0,0 -5.78768,-2.17813 -11.91637,-1.36906c-4.90035,0.64692 -7.6888,2.57143 -7.6888,2.57143l-0.11993,-3.269c0,0 2.38291,-1.44972 6.08213,-1.74468c3.83051,-0.30544 6.35106,0.16086 6.35106,0.16086z" data-paper-data="{&quot;index&quot;:null}" fill="#dadada" stroke="none" stroke-width="1.5" stroke-linecap="butt"/><path d="M219.58771,144.78387l7.88602,-6.78311" fill="none" stroke="#000000" stroke-width="1" stroke-linecap="round"/><g fill="#d4d4d4"><path d="M245.41552,202.26085l15.23223,-0.80354" stroke="#000000" stroke-width="3" stroke-linecap="round"/><g stroke="none" stroke-linecap="butt"><g stroke-width="1" font-weight="normal" font-size="40" text-anchor="start"><text transform="translate(245.39704,201.87386) rotate(-2.7296) scale(0.07734,0.08132) skewX(-0.00241)" font-size="40" xml:space="preserve" fill="#d4d4d4" fill-rule="nonzero" stroke="none" stroke-width="1" stroke-linecap="butt" stroke-linejoin="miter" stroke-miterlimit="10" stroke-dasharray="" stroke-dashoffset="0" font-family="Pixel" font-weight="normal" text-anchor="start" style="mix-blend-mode: normal"><tspan x="0" dy="0">DONK</tspan></text><text transform="translate(245.36946,205.17177) rotate(-2.7296) scale(0.07734,0.08132) skewX(-0.00241)" font-size="40" xml:space="preserve" fill="#d4d4d4" fill-rule="nonzero" stroke="none" stroke-width="1" stroke-linecap="butt" stroke-linejoin="miter" stroke-miterlimit="10" stroke-dasharray="" stroke-dashoffset="0" font-family="Sans Serif" font-weight="normal" text-anchor="start" style="mix-blend-mode: normal"><tspan x="0" dy="0">Industries</tspan></text></g><path d="M254.80706,199.64114l-0.04427,-0.9288l5.81468,-0.27712l0.04427,0.9288z" stroke-width="0"/><path d="M254.88022,201.17624l-0.04303,-0.90299l5.81468,-0.27712l0.04303,0.90299z" stroke-width="0"/></g></g><path d="M242.00937,132.10207l2.33132,15.30637" fill="none" stroke="#000000" stroke-width="1.5" stroke-linecap="round"/><path d="M247.36584,147.86494l-0.42828,-4.78503l0.29481,-2.21655" fill="none" stroke="#000000" stroke-width="1.5" stroke-linecap="round"/><path d="M254.00614,152.75437l0.38968,-8.62833l0.03826,5.00385" fill="none" stroke="#000000" stroke-width="1.5" stroke-linecap="round"/><path d="M254.5196,146.72309l0.00935,-4.00499l2.84425,-3.33919" fill="none" stroke="#000000" stroke-width="1.5" stroke-linecap="round"/><path d="M246.6142,144.69713l-3.10167,-10.46421" fill="none" stroke="#000000" stroke-width="1.5" stroke-linecap="round"/><path d="M257.45891,141.17687l-0.5325,5.63173l-2.04551,-5.10841" fill="none" stroke="#000000" stroke-width="1.5" stroke-linecap="round"/><path d="M250.60999,152.91623l-0.39037,-8.1907" fill="none" stroke="#000000" stroke-width="1.5" stroke-linecap="round"/></g></g></svg>