<svg version="1.1" xmlns="http://www.w3.org/2000/svg" xmlns:xlink="http://www.w3.org/1999/xlink" width="107.90217" height="258.69408" viewBox="0,0,107.90217,258.69408"><defs><linearGradient x1="254.5427" y1="98.34491" x2="249.62662" y2="165.75481" gradientUnits="userSpaceOnUse" id="color-1"><stop offset="0" stop-color="#000000"/><stop offset="1" stop-color="#000000" stop-opacity="0"/></linearGradient></defs><g transform="translate(-196.44522,-46.80597)"><g data-paper-data="{&quot;isPaintingLayer&quot;:true}" fill-rule="nonzero" stroke-linejoin="miter" stroke-miterlimit="10" stroke-dasharray="" stroke-dashoffset="0" style="mix-blend-mode: normal"><g fill="#000000" stroke="none" stroke-linecap="butt"><path d="M302.14925,135.19175c0,0 -1.24193,0.04331 -2.5963,-0.14031c-2.13667,-0.28968 -3.57326,-1.05783 -3.57326,-1.05783c0,0 -0.22308,5.44442 1.49251,11.09526c1.81706,5.98503 6.8752,11.40457 6.8752,11.40457c0,0 -1.97836,-0.11874 -4.35568,-0.84999c-2.27847,-0.70083 -4.49762,-1.95025 -4.49762,-1.95025c0,0 -1.96404,4.70909 -0.17789,6.6726c2.00529,2.20441 4.77211,15.26442 4.77211,15.26442c0,0 -2.54728,-9.0948 -7.08283,-10.52521c-3.61958,-1.14153 -2.71087,-6.75019 -2.71087,-6.75019c0,0 -0.89487,4.54452 -4.42274,11.95321c-2.95992,6.21595 -7.44618,9.19028 -7.44618,9.19028l0.06641,-2.65705c0,0 -11.40567,9.61561 -29.20417,8.57374c-18.86384,-1.22891 -25.7606,-12.77909 -25.7606,-12.77909l-0.36979,3.68708c0,0 -2.38,-1.95623 -3.53765,-3.17846c-1.15764,-1.22224 -2.11285,-3.49568 -2.11285,-3.49568c0,0 0.61155,-12.32183 -2.50721,-12.3603c-3.33226,-0.0411 -16.88831,12.12105 -16.88831,12.12105c0,0 2.26766,-10.66336 6.76028,-18.19219c4.93649,-8.27269 7.43507,-17.61534 7.43507,-17.61534c0,0 -2.96567,1.92752 -4.37381,2.83523c-1.50976,0.97323 -4.67635,2.80126 -4.67635,2.80126c0,0 3.53475,-7.78283 7.97864,-16.8645c3.241,-6.62339 -0.25094,-43.23669 48.35294,-38.77605c39.29937,4.2704 35.99265,42.03245 36.19445,44.32383c0.07695,0.87365 6.36651,7.26993 6.36651,7.26993z" data-paper-data="{&quot;index&quot;:null}" stroke-width="1.5"/><path d="M207.82549,103.48377c0,0 6.92881,-5.43229 7.12707,-6.28587c0.25015,-1.07703 0.89496,-10.39403 5.75023,-19.61959c1.37797,-2.61831 5.78956,-5.8597 6.18831,-9.31504c0.74148,-6.42529 -3.40459,-12.93485 -3.40459,-12.93485c0,0 27.50348,2.99384 32.41147,3.17133c3.11849,0.16681 -8.48487,-11.69378 -8.48487,-11.69378c0,0 25.55638,12.46492 28.32928,13.45708c26.68177,9.5468 19.05075,37.57283 20.87373,43.50855c2.95488,9.62125 5.22547,17.82745 5.22547,17.82745c0,0 -2.7681,-2.26084 -4.07336,-3.43936c-1.2174,-1.09919 -3.77911,-3.42981 -3.77911,-3.42981c0,0 2.50635,10.55837 -0.12312,20.74096c-2.33676,9.33574 -8.94713,16.61868 -8.94713,16.61868l-1.04724,-2.42996c0,0 -1.23807,2.11349 -2.51979,3.15783c-1.28172,1.04433 -3.83738,2.64061 -3.83738,2.64061l0.17237,-3.70148c0,0 -8.245,10.44592 -26.46415,8.97043c-17.17343,-1.50858 -26.71128,-12.65156 -26.71128,-12.65156l-0.3156,2.63887c0,0 -3.86685,-3.58351 -5.81115,-10.15712c-2.31739,-7.83498 -2.52492,-12.45989 -2.52492,-12.45989c0,0 -2.60428,1.71428 -6.22939,2.32747c-4.54248,0.76837 -7.34911,-0.18978 -7.34911,-0.18978c0,0 4.00157,-2.43256 6.23422,-4.32791c1.98866,-1.68823 3.03598,-3.16478 3.03598,-3.16478c0,0 -2.30095,0.91978 -4.58038,1.28821c-2.37831,0.38443 -4.28761,0.21965 -4.28761,0.21965c0,0 5.61155,-4.64142 8.2036,-10.3049c2.44731,-5.34724 3.01076,-10.76684 3.01076,-10.76684c0,0 -1.48374,0.55518 -3.56886,0.53697c-1.3217,-0.01153 -2.50347,-0.2316 -2.50347,-0.2316z" stroke-width="1.5"/><path d="M213.12117,215.3846c0,0 1.44703,-4.67615 -0.09397,-10.22467c-1.64109,-5.90892 -6.28489,-12.821 -6.5765,-16.59645c-0.35459,-4.59098 3.60446,-12.87482 3.60446,-12.87482c0,0 4.28466,-10.1439 4.86677,-20.9649c0.6343,-11.79089 -8.34068,-21.6169 5.04108,-22.02014c2.87912,-0.08676 5.80823,7.17655 9.2509,12.25646c3.6064,5.32151 7.66225,8.473 7.66225,8.473c0,0 -3.27032,0.67203 -2.60607,5.97602c2.32231,18.54343 9.47242,43.28278 9.47242,43.28278c0,0 -9.80663,-18.04403 -9.97196,-9.44135c-0.18453,9.60138 4.56497,36.33147 4.56497,36.33147c0,0 -10.7891,-18.27332 -15.53008,-28.561c-1.60218,-3.47665 -2.4503,-10.03096 -2.4503,-10.03096z" stroke-width="0"/><path d="M279.8912,193.66081c0,0 -1.79007,6.36191 -3.87971,9.56933c-6.18341,9.49099 -6.20122,36.00008 -6.20122,36.00008c0,0 -4.73093,-35.75264 -3.52049,-45.2792c1.08453,-8.53563 -7.49627,16.18867 -7.49627,16.18867c0,0 6.92378,-31.73421 11.91189,-49.74452c1.42675,-5.15149 -1.71148,-6.29088 -1.71148,-6.29088c0,0 4.47018,-2.5297 8.81048,-7.27167c4.14326,-4.52668 8.09518,-11.28817 10.93124,-10.78461c13.18166,2.34047 2.87604,10.76036 1.79295,22.51854c-0.99399,10.79096 1.77359,21.44917 1.77359,21.44917c0,0 2.7153,8.77059 1.69838,13.26155c-0.83628,3.6932 -6.43377,9.8584 -8.9148,15.46669c-2.3297,5.26624 -6.29317,19.78543 -6.29317,19.78543z" data-paper-data="{&quot;index&quot;:null}" stroke-width="0"/></g><g><g><path d="M201.54539,304.39162c0,0 -0.63536,-94.38387 -0.79335,-118.01201c-0.05451,-8.15261 8.18688,-36.76129 40.20201,-36.9211c31.60235,-0.15775 39.85672,29.48704 39.84884,36.89673c-0.07659,46.24274 0.65429,117.98648 0.65429,117.98648l-10.49667,0.09614l-0.15882,-114.84311c0,0 0.07549,-3.0993 -2.81625,-3.15415c-3.43441,-0.06514 -2.94538,3.11562 -2.94538,3.11562c0,0 -4.95003,28.26622 -4.9205,44.77862c0.03718,20.78547 5.12598,70.09133 5.12598,70.09133l-48.21366,0.07222c0,0 4.21363,-44.83321 4.15975,-65.16568c-0.04695,-17.71739 -4.46514,-50.06741 -4.46514,-50.06741c0,0 0.27949,-2.919 -2.8856,-2.93443c-3.11083,-0.01515 -2.81569,2.90899 -2.81569,2.90899l0.35311,115.0668z" fill="#ffffff" stroke="#000000" stroke-width="2" stroke-linecap="butt"/><path d="M256.14252,200.33382c-0.57113,0 -1.03411,-0.46299 -1.03411,-1.03411c0,-0.57113 0.46299,-1.03413 1.03411,-1.03413c0.57113,0 1.03411,0.463 1.03411,1.03413c0,0.57113 -0.46299,1.03411 -1.03411,1.03411z" fill="#000000" stroke="none" stroke-width="1.5" stroke-linecap="butt"/><path d="M250.88269,204.56943c-4.4635,-0.31439 -6.55245,-1.79392 -6.16985,-2.58011c0.11788,-0.24224 2.84645,1.06355 6.97038,1.3048c6.40897,0.37493 8.51033,-0.63173 8.51033,-0.63173v1.34616c0,0 -2.4135,1.04672 -9.31086,0.56089z" fill="#000000" stroke="#000000" stroke-width="0" stroke-linecap="butt"/><path d="M223.06993,199.29973c0,-0.57113 0.46299,-1.03413 1.03411,-1.03413c0.57113,0 1.03413,0.463 1.03413,1.03413c0,0.57113 -0.463,1.03411 -1.03413,1.03411c-0.57113,0 -1.03411,-0.46299 -1.03411,-1.03411z" fill="#000000" stroke="none" stroke-width="1.5" stroke-linecap="butt"/><path d="M229.36393,204.56943c-6.89736,0.48585 -9.31086,-0.56089 -9.31086,-0.56089v-1.34616c0,0 2.10136,1.00666 8.51033,0.63173c4.12393,-0.24126 6.85251,-1.54704 6.97039,-1.3048c0.3826,0.78618 -1.70634,2.26571 -6.16985,2.58011z" fill="#000000" stroke="#000000" stroke-width="0" stroke-linecap="butt"/><path d="M240.64439,261.12113c-0.81895,0 -1.48284,-0.66389 -1.48284,-1.48284c0,-0.81895 0.66389,-1.48284 1.48284,-1.48284c0.81895,0 1.48284,0.66389 1.48284,1.48284c0,0.81895 -0.66389,1.48284 -1.48284,1.48284z" data-paper-data="{&quot;index&quot;:null}" fill="#000000" stroke="none" stroke-width="1.5" stroke-linecap="butt"/><g fill="#ffffff" stroke="#000000" stroke-width="2" stroke-linecap="round"><path d="M240.52122,202.18259c0.14273,5.60368 -2.57383,7.93839 -3.89249,9.02343c-5.12117,4.21387 -15.18067,3.25512 -17.60285,2.04502c-4.96567,-2.48081 -8.40378,-10.51264 -8.69751,-13.75788c-0.29521,-3.2616 0.55028,-8.14011 2.54293,-10.94893c2.55122,-3.59616 5.94201,-5.23391 5.94201,-5.23391"/><path d="M264.10865,183.81032c0,0 3.568,1.68802 5.59914,5.45989c1.4764,2.74171 1.66914,7.09237 1.38579,10.22295c-0.29373,3.24525 -3.73185,11.27706 -8.69752,13.75787c-2.42218,1.2101 -12.48168,2.16885 -17.60284,-2.04502c-1.31866,-1.08504 -4.49677,-3.65052 -4.35404,-9.2542" data-paper-data="{&quot;index&quot;:null}"/></g></g><g fill="#ff0000" stroke="none" stroke-width="0" stroke-linecap="butt"><path d="M242.78929,225.87056c-5.33481,19.80043 -12.8084,55.08219 -15.54163,53.35977c-2.73323,-1.72242 0.30891,-39.79677 5.64372,-59.59721c5.33481,-19.80043 6.19209,-14.11615 8.92532,-12.39373c2.73323,1.72242 6.3074,-1.16927 0.97259,18.63117z"/><path d="M245.69891,224.8722c-0.89199,21.37201 -1.1153,60.80478 -4.06547,60.5168c-2.95017,-0.28799 -7.51003,-40.1877 -6.61805,-61.5597c0.89199,-21.37201 2.89805,-16.4104 5.84822,-16.12241c2.95017,0.28799 5.72728,-4.20669 4.8353,17.16532z"/><path d="M238.13099,226.07155c-9.77267,15.33764 -18.13852,45.16132 -20.25572,42.00607c-1.46252,-2.1796 -5.18318,-53.57253 -2.16132,-58.31516c9.77267,-15.33764 23.9341,-4.69105 26.0513,-1.5358c2.1172,3.15525 6.13841,2.50726 -3.63426,17.8449z"/><path d="M248.72787,219.65453c5.38578,19.76813 7.4285,58.30341 4.69972,60.04229c-2.72877,1.73888 -9.19571,-33.97713 -14.58149,-53.74525c-5.38578,-19.76813 -2.15093,-16.67705 0.57785,-18.41593c2.72878,-1.73888 3.91814,-7.64923 9.30392,12.1189z"/><path d="M267.13777,207.88455c3.48796,4.65245 -1.83417,53.89524 -3.13503,56.17631c-1.94308,3.40722 -11.34842,-26.02739 -21.90149,-40.1037c-10.55307,-14.07631 -6.75764,-13.49577 -4.81456,-16.90299c1.94308,-3.40722 19.29801,-13.24594 29.85108,0.83038z"/></g><g stroke="none" stroke-width="0" stroke-linecap="butt"><g><g fill="#da7f7f"><path d="M202.75744,220.78121c-0.91601,4.78728 -2.97391,8.19854 -4.59646,7.61927c-1.62255,-0.57927 -2.19532,-4.92971 -1.27932,-9.71699c0.91601,-4.78728 2.97392,-8.19854 4.59646,-7.61927c1.62255,0.57927 2.19532,4.92971 1.27931,9.71699z"/><path d="M211.03608,211.06421c1.62255,-0.57927 3.68045,2.832 4.59645,7.61927c0.91601,4.78727 0.34323,9.13772 -1.27931,9.71699c-1.62255,0.57927 -3.68045,-2.832 -4.59646,-7.61927c-0.91601,-4.78727 -0.34323,-9.13772 1.27932,-9.71699z" data-paper-data="{&quot;index&quot;:null}"/><path d="M207.46891,221.69171c-0.38297,4.86598 -2.05167,8.50305 -3.72716,8.1236c-1.67549,-0.37945 -2.72329,-4.6317 -2.34032,-9.49768c0.38297,-4.86598 2.05168,-8.50305 3.72717,-8.1236c1.67549,0.37945 2.72328,4.6317 2.34031,9.49768z"/><path d="M208.11441,213.21192c1.67549,-0.37944 3.34419,3.25761 3.72716,8.12359c0.38297,4.86598 -0.66482,9.11824 -2.34031,9.49768c-1.67549,0.37944 -3.34419,-3.25762 -3.72717,-8.1236c-0.38297,-4.86598 0.66483,-9.11823 2.34032,-9.49767z" data-paper-data="{&quot;index&quot;:null}"/></g><path d="M197.4714,215.23541c0,0 1.57143,-4.9375 1.57143,-8.21173c0,-4.4673 0,-15.84359 0,-15.84359h14.75c0,0 0,12.09897 0,16.59181c0,3.07315 1.42857,7.61315 1.42857,7.61315z" fill="#a10000"/></g><g><g fill="#da7f7f"><path d="M271.61458,222.27764c-0.916,4.78728 -2.97391,8.19854 -4.59646,7.61927c-1.62255,-0.57927 -2.19532,-4.9297 -1.27932,-9.71698c0.916,-4.78728 2.97391,-8.19855 4.59646,-7.61928c1.62255,0.57927 2.19532,4.92971 1.27931,9.71699z"/><path d="M279.89321,212.56066c1.62255,-0.57927 3.68045,2.832 4.59645,7.61928c0.916,4.78727 0.34323,9.13771 -1.27931,9.71698c-1.62255,0.57927 -3.68045,-2.832 -4.59646,-7.61928c-0.916,-4.78727 -0.34323,-9.13771 1.27932,-9.71698z" data-paper-data="{&quot;index&quot;:null}"/><path d="M276.32605,223.18817c-0.38297,4.86598 -2.05167,8.50304 -3.72717,8.12359c-1.67549,-0.37945 -2.72328,-4.63169 -2.34031,-9.49767c0.38297,-4.86598 2.05167,-8.50305 3.72717,-8.1236c1.67549,0.37945 2.72328,4.6317 2.34031,9.49768z"/><path d="M276.9715,214.70834c1.67549,-0.37944 3.34419,3.25761 3.72717,8.12359c0.38297,4.86598 -0.66483,9.11824 -2.34032,9.49768c-1.67549,0.37944 -3.34419,-3.25761 -3.72717,-8.12359c-0.38297,-4.86598 0.66483,-9.11824 2.34032,-9.49768z" data-paper-data="{&quot;index&quot;:null}"/></g><path d="M266.32849,216.73186c0,0 1.57143,-4.9375 1.57143,-8.21173c0,-4.4673 0,-15.84359 0,-15.84359h14.75c0,0 0,12.09897 0,16.59181c0,3.07315 1.42857,7.61316 1.42857,7.61316z" fill="#a10000"/></g><path d="M199.15354,191.3585c0,0 1.82462,-20.19547 8.16591,-26.67681c3.91163,-3.99802 9.99521,-9.81164 17.97915,-13.16665c6.84618,-2.87689 15.34066,-1.51823 15.34066,-1.51823c0,0 18.7832,-0.65754 27.84739,8.105c9.79289,9.467 14.03833,34.78306 14.03833,34.78306c0,0 -27.153,11.32479 -40.91793,11.07278c-14.02084,-0.2567 -42.45349,-12.59914 -42.45349,-12.59914z" fill="#a10000"/></g><path d="M275.96673,158.16446c0,0 -3.13344,41.76527 -35.50957,43.63031c-27.40913,1.57891 -36.42376,-43.09698 -36.42376,-43.09698" fill="none" stroke="#000000" stroke-width="3" stroke-linecap="round"/><g stroke="#000000" stroke-width="0" stroke-linecap="butt"><path d="M274.73329,191.62506c0,5.5819 1.16156,15.61828 -6.08097,20.14541c-5.92482,3.70346 -47.78418,5.0292 -53.35521,2.04346c-8.51944,-4.5659 -7.06381,-15.80301 -7.06381,-21.93887c0,-5.75268 4.52516,-12.95155 12.50273,-12.91087c2.09459,0.01068 8.53711,-0.38952 11.4975,1.04964c5.65479,2.74901 9.62476,7.73623 9.62476,7.73623c0,0 3.67869,-4.49312 8.96296,-7.08089c4.01934,-1.96832 9.4944,-2.20212 11.91276,-2.20589c7.13139,-0.01112 11.99928,7.47635 11.99928,13.16178z" fill="#cc1414"/><path d="M269.73329,180.95841c4.5951,2.30887 5.92555,12.23618 4.79782,19.9632c-0.80495,5.51542 -2.86231,10.29668 -5.8788,12.18221c-5.92482,3.70346 -48.03418,3.6542 -53.60521,0.66846c-0.21961,-0.1177 17.5227,-6.02555 31.64158,-14.47409c13.23313,-7.91852 22.8882,-18.41836 23.04461,-18.33978z" fill="#a10000"/></g></g><path d="M276.49029,101.34036c0,0 1.49712,0.4281 4.16377,1.41689c2.43568,0.90316 4.31071,2.06303 4.31071,2.06303l0.10946,1.18144c0,0 -7.00277,-3.64898 -14.89606,-3.5635c-6.31129,0.06837 -10.14136,2.08028 -10.14136,2.08028l0.34943,-4.16244c0,0 3.24315,-1.47222 7.9778,-1.27869c4.90269,0.20041 8.02641,1.17817 8.02641,1.17817z" data-paper-data="{&quot;index&quot;:null}" fill="#000000" stroke="none" stroke-width="1.5" stroke-linecap="butt"/><path d="M236.20043,102.50926c0,0 3.49301,-1.56909 8.17713,-1.6915c5.19059,-0.13565 7.75248,0.49892 7.75248,0.49892l-0.00664,4.14797c0,0 -3.77587,-0.95783 -7.95881,-1.10294c-5.59416,-0.19408 -6.7315,0.94582 -11.00643,1.09353c-3.66299,0.12657 -6.73094,-0.33161 -6.73094,-0.33161l0.06376,-1.23017c0,0 3.58027,0.33528 5.22482,0.3125c1.35735,-0.01881 4.0334,-0.64642 4.0334,-0.64642z" fill="#000000" stroke="none" stroke-width="1.5" stroke-linecap="butt"/><path d="M203.36809,82.10234c0,0 18.85036,-9.6935 26.09994,-13.41768c7.63278,-3.92103 8.14657,-8.18184 18.6064,-9.54838c10.45983,-1.36654 4.74521,10.62467 4.74521,10.62467c0,0 -6.06316,5.21299 -22.19177,9.36663c-4.20334,1.0825 -27.25977,2.97476 -27.25977,2.97476z" fill="#000000" stroke="none" stroke-width="0" stroke-linecap="butt"/><path d="M225.30472,112.49078c-0.03547,-5.75523 1.04494,-14.14108 1.4729,-16.98229c0.0195,-0.1295 2.67086,0.95098 5.71656,0.09443c3.13566,-0.88184 6.65129,-1.59168 7.58175,-1.79434c0.24827,-0.05408 18.80931,-5.8562 18.80931,-5.8562l-5.51443,6.4581c0,0 27.68769,-8.68083 28.72127,-7.93144c2.65016,1.92147 -0.3827,23.20476 -1.09773,28.72529c-0.83286,5.62354 -3.21752,9.29027 -4.05265,12.25823c-0.83513,2.96796 3.30077,6.39364 0.7886,16.13981c-1.56776,6.08229 -8.95557,8.29525 -15.21486,13.59015c-6.25929,5.29491 -9.7028,8.56972 -13.65714,8.3505c-3.80551,-0.21096 -8.54102,-5.73663 -13.14334,-11.36853c-4.90071,-5.99708 -8.2348,-9.10019 -8.58859,-15.80631c-0.15441,-2.92681 -0.17179,-5.35098 -0.14378,-7.68127c0.02979,-2.47835 2.08139,-4.37262 2.10364,-7.13042c0.03156,-3.91079 -3.75688,-7.07035 -3.78151,-11.0657z" fill="#ffffff" stroke="#000000" stroke-width="1.5" stroke-linecap="butt"/><path d="M248.06386,139.44906c-1.01892,-0.17455 -2.93678,-3.81101 -2.82666,-5.92607c0.09851,-1.8924 1.9426,-3.55097 4.37868,-3.13364c2.4361,0.41734 4.0589,1.19325 3.2649,4.80886c-0.67385,3.06845 -2.38083,4.6682 -4.81692,4.25087z" fill="#ffffff" stroke="#000000" stroke-width="1.15" stroke-linecap="butt"/><g stroke-linecap="butt"><path d="M280.66423,142.81591c-0.28621,3.92461 -17.05702,21.06515 -33.66054,19.85429c-16.60352,-1.21086 -25.88889,-23.76093 -25.60268,-27.68554c0.28621,-3.92461 9.20883,6.81285 25.81235,8.02371c16.60352,1.21086 33.73709,-4.11707 33.45087,-0.19246z" fill="#000000" stroke="#000000" stroke-width="0"/><g><path d="M274.63942,141.79258c-0.00779,0.10682 -3.15822,3.24249 -6.16505,5.00211c-2.12776,1.2452 -3.89659,1.00882 -5.69914,2.02979c-4.53251,2.56724 -5.94468,3.21912 -7.17247,3.5502c-2.65131,0.71496 -5.32676,0.29965 -7.22617,0.16113c-10.21431,-0.74491 -17.4522,-9.34808 -17.30156,-11.41366c0.15064,-2.06558 7.86006,0.07189 18.07437,0.8168c10.21431,0.74491 25.64064,-2.21196 25.49,-0.14637z" fill="#ffffff" stroke="#000000" stroke-width="0.5"/><path d="M266.34511,137.16533c6.51212,-0.10892 16.14432,2.7375 16.12575,2.82294c-0.0196,0.09017 -3.57779,2.99561 -8.67932,4.37766c-6.77215,1.83464 -15.77394,2.26238 -18.04427,2.3286c-3.3358,0.09727 -12.99401,-0.14879 -18.12812,-1.91024c-3.37698,-1.1586 -6.60954,-3.37291 -9.74159,-5.16084c-5.38155,-3.07207 -7.86264,-8.52549 -7.86515,-8.56368c-0.00134,-0.02029 2.10898,0.88702 5.14901,2.20345c2.80667,1.21538 6.52402,1.15879 9.98549,2.66362c6.15266,2.67478 11.75219,6.78298 11.8117,6.792c0,0 1.5695,-1.63951 3.03777,-1.88866c0.73933,-0.12546 13.32453,-3.61427 16.34871,-3.66486z" fill="#fefefe" stroke="#000000" stroke-width="1.4"/><path d="M249.24187,163.75347c-1.46787,-0.10705 -3.27938,-0.40976 -5.21053,-0.86371c-6.1174,-1.43797 -13.43535,-4.3934 -14.83355,-7.45344c-0.19629,-0.4296 4.44798,-7.32666 7.11887,-9.58985c0.15087,-0.12784 3.75203,3.19647 7.05039,4.93239c1.61942,0.8523 3.44522,0.67624 4.20987,0.77752c5.64759,0.74804 10.91114,-2.96525 12.77643,-2.82922c6.05798,0.4418 5.88192,7.86307 2.1131,11.21276c-2.79496,2.48414 -8.73199,4.14119 -13.2246,3.81355z" fill="#ffffff" stroke="none" stroke-width="0"/><path d="M282.50247,140.11903c0.00477,0.06689 -0.05152,7.39695 -2.33503,13.47627c-0.8514,2.26663 -3.20789,3.76059 -8.74205,6.55182c-6.1253,3.08937 -16.76721,3.48308 -22.45318,3.20504c-11.0692,-0.5413 -21.95744,-4.51822 -23.03944,-5.87828c-1.13683,-1.42898 -2.2554,-6.91567 -3.91584,-12.77272c-2.4117,-8.50703 -4.19625,-14.05342 -4.18497,-14.08535c0.01688,-0.0478 5.8495,6.56873 10.07931,12.87318c3.31444,4.94011 4.01146,6.09139 4.82876,6.96435c0.41171,0.43975 3.44476,2.56013 6.7795,3.38813c2.69315,0.6687 12.83076,3.2221 20.35518,0.00762c11.80339,-5.04246 22.61722,-13.87811 22.62777,-13.73005z" fill="#ffffff" stroke="#000000" stroke-width="1.9"/></g></g><path d="M256.6956,110.39567c0,0 -0.56917,3.93008 -1.19766,7.02527c-1.24449,6.129 -5.75335,27.1795 -5.75335,27.1795l-2.94032,-0.49494c0,0 -0.08684,-4.24841 0.49695,-9.55305c0.79021,-7.18029 2.30808,-16.13517 2.56245,-19.47932c0.24113,-3.16993 0.08184,-5.78376 0.08184,-5.78376" fill="#ffffff" stroke="#000000" stroke-width="1.3" stroke-linecap="round"/><g stroke="none" stroke-width="0" stroke-linecap="butt"><g fill="url(#color-1)"><path d="M219.08273,163.5273l0.39832,-60.45588c0,0 48.7948,-3.72501 60.1201,-2.89908c4.51589,0.32934 8.94647,7.93598 8.94647,7.93598l-4.38772,60.16495z"/><path d="M219.08273,163.5273l0.39832,-60.45588c0,0 48.7948,-3.72501 60.1201,-2.89908c4.51588,0.32933 8.94647,7.93598 8.94647,7.93598l-4.38772,60.16495z"/><path d="M219.08273,163.5273l0.39832,-60.45588c0,0 48.7948,-3.72501 60.1201,-2.89908c4.51588,0.32933 8.94647,7.93598 8.94647,7.93598l-4.38772,60.16495z"/><path d="M219.08273,163.5273l0.39832,-60.45588c0,0 48.7948,-3.72501 60.1201,-2.89908c4.51588,0.32933 8.94647,7.93598 8.94647,7.93598l-4.38772,60.16495z"/><path d="M219.08273,163.5273l0.39832,-60.45588c0,0 48.7948,-3.72501 60.1201,-2.89908c4.51588,0.32933 8.94647,7.93598 8.94647,7.93598l-4.38772,60.16495z"/><path d="M219.08273,163.5273l0.39832,-60.45588c0,0 48.7948,-3.72501 60.1201,-2.89908c4.51588,0.32933 8.94647,7.93598 8.94647,7.93598l-4.38772,60.16495z"/><path d="M219.08273,163.5273l0.39832,-60.45588c0,0 48.7948,-3.72501 60.1201,-2.89908c4.51588,0.32933 8.94647,7.93598 8.94647,7.93598l-4.38772,60.16495z"/><path d="M219.08273,163.5273l0.39832,-60.45588c0,0 48.7948,-3.72501 60.1201,-2.89908c4.51588,0.32933 8.94647,7.93598 8.94647,7.93598l-4.38772,60.16495z"/></g><path d="M219.2631,104.11114l8.15434,-24.73932l59.29869,2.63561l-1.83779,25.19998z" fill="#000000"/></g></g></g></svg>