<svg version="1.1" xmlns="http://www.w3.org/2000/svg" xmlns:xlink="http://www.w3.org/1999/xlink" width="97.57157" height="284.3977" viewBox="0,0,97.57157,284.3977"><g transform="translate(-188.76367,-19.61288)"><g data-paper-data="{&quot;isPaintingLayer&quot;:true}" fill-rule="nonzero" stroke-linejoin="miter" stroke-miterlimit="10" stroke-dasharray="" stroke-dashoffset="0" style="mix-blend-mode: normal"><path d="M195.15321,304.01058v-124.43628c1.68419,1.29033 3.79067,2.0571 6.07624,2.0571c5.52285,0 10,-4.47715 10,-10c0,-0.45772 -0.03075,-0.90826 -0.0903,-1.34967c5.25464,-0.2986 9.42364,-4.65427 9.42364,-9.98367c0,-5.52285 -4.47715,-10 -10,-10c-5.52285,0 -10,4.47715 -10,10c0,0.45772 0.03075,0.90826 0.0903,1.34967c-2.06277,0.11722 -3.95824,0.85965 -5.49988,2.04077v-112.90294h91.18203v253.22501z" fill-opacity="0.01" fill="#000000" stroke="none" stroke-width="0" stroke-linecap="butt"/><g><path d="M278.38194,151.70055c1.68201,-1.50795 3.27282,-3.71001 3.27282,-3.71001c0,0 0.82745,3.79771 -0.25625,5.6939c-0.15572,0.27247 -0.52737,0.43597 -0.7387,0.62543c-1.01926,0.91379 -4.85836,1.40244 -6.11527,1.39023c-0.81727,-0.00794 0.75027,-0.28792 0.47547,-0.59444c-0.69742,-0.77793 1.67993,-1.89715 3.36194,-3.40509z" fill="#ffffff" stroke="#000000" stroke-width="2" stroke-linecap="butt"/><path d="M280.50608,147.01744c-0.69518,1.75956 -1.85484,2.95046 -2.59018,2.65993c-0.73534,-0.29052 -0.7679,-1.95245 -0.07272,-3.71201c0.69518,-1.75956 1.73425,-2.9981 1.73425,-2.9981c0,0 1.62382,2.29061 0.92865,4.05017z" fill="#ffffff" stroke="#000000" stroke-width="2" stroke-linecap="butt"/><path d="M276.62588,154.77594c0,0 -3.56249,4.59669 -6.8117,6.02665c-2.20505,0.97043 -4.15875,-0.83946 -5.17074,-1.42359c-2.50318,-1.44486 1.42415,-4.40746 3.89097,-8.68117c2.46684,-4.2737 4.13819,-7.27851 6.64136,-5.83366c1.28982,0.7445 2.71447,2.5703 2.74647,4.92458c0.0301,2.2147 -1.29637,4.98719 -1.29637,4.98719z" fill="#ffffff" stroke="#000000" stroke-width="2" stroke-linecap="butt"/><path d="M267.34164,154.7353c-1.09984,2.78379 -2.31203,3.2646 -3.52009,2.78731c-1.20806,-0.47729 -1.95451,-1.73193 -0.85467,-4.51571c1.09984,-2.78379 1.67561,-1.09716 2.88367,-0.61988c1.20806,0.47729 2.59093,-0.4355 1.49109,2.34828z" fill="#ffffff" stroke="#000000" stroke-width="2" stroke-linecap="butt"/><path d="M266.07239,155.44329l1.88445,1.07437" fill="none" stroke="#ffffff" stroke-width="2" stroke-linecap="round"/><path d="M267.35564,158.0393l-1.94432,-1.75771" fill="none" stroke="#ffffff" stroke-width="2" stroke-linecap="round"/><path d="M266.36012,151.6538c-0.96495,2.44238 -2.14722,4.70407 -3.27649,4.25791c-1.12927,-0.44616 -1.4926,-3.31849 -0.52765,-5.76087c0.59704,-1.51116 0.48597,-2.98745 1.33583,-3.57385c0.52371,-0.36136 2.02553,-0.21072 2.45609,-0.04062c1.12927,0.44616 0.97717,2.67505 0.01222,5.11743z" fill="#ffffff" stroke="#000000" stroke-width="2" stroke-linecap="butt"/><path d="M266.8954,156.97787l-0.93809,-1.79996l0.97099,0.60352" fill="none" stroke="#ffffff" stroke-width="2" stroke-linecap="round"/><path d="M266.54197,158.70736l-1.35608,-1.85515l-1.33846,-2.17803" fill="none" stroke="#ffffff" stroke-width="2" stroke-linecap="round"/><path d="M275.20376,145.9671c-1.24509,3.15146 -4.11492,5.85075 -5.21793,5.41497c-1.10301,-0.43578 0.24852,-2.85535 1.49361,-6.0068c1.24509,-3.15146 2.07125,-4.12936 2.07125,-4.12936c0,0 2.89817,1.56974 1.65307,4.7212z" fill="#ffffff" stroke="#000000" stroke-width="2" stroke-linecap="butt"/><path d="M270.25586,152.36834l0.97692,-2.47269" fill="none" stroke="#ffffff" stroke-width="2" stroke-linecap="round"/><path d="M277.87449,152.18184c-1.52738,1.74027 -2.47051,2.98733 -3.46798,2.11188c-0.99747,-0.87545 -0.56789,-2.99591 0.95949,-4.73618c1.52738,-1.74027 2.24506,-2.4167 3.24254,-1.54125c0.99747,0.87545 0.79333,2.42529 -0.73405,4.16555z" fill="#ffffff" stroke="#000000" stroke-width="2" stroke-linecap="butt"/><path d="M277.60168,146.97042c-1.60223,3.1677 -3.68792,4.63735 -4.74622,4.10206c-1.0583,-0.53529 0.56888,-2.93716 2.17111,-6.10486c1.60223,-3.1677 2.54082,-4.1171 2.54082,-4.1171c0,0 1.63652,2.9522 0.03428,6.1199z" fill="#ffffff" stroke="#000000" stroke-width="2" stroke-linecap="butt"/><path d="M272.55595,152.94723l2.77221,-4.51212" fill="none" stroke="#ffffff" stroke-width="2" stroke-linecap="round"/><path d="M273.91438,155.35304l5.12876,-8.52876" fill="none" stroke="#ffffff" stroke-width="2" stroke-linecap="round"/><path d="M274.4264,150.7176l-1.83879,5.21074" fill="none" stroke="#ffffff" stroke-width="2" stroke-linecap="round"/><path d="M278.05084,154.12865l-3.62922,-0.55427" fill="none" stroke="#ffffff" stroke-width="2" stroke-linecap="round"/><path d="M268.558,154.996l-2.09228,-0.82663l2.88134,-1.17054" fill="none" stroke="#ffffff" stroke-width="2" stroke-linecap="round"/><path d="M275.47291,153.80156l1.7628,-2.2355" fill="none" stroke="#000000" stroke-width="1" stroke-linecap="round"/><path d="M274.57223,152.37069l1.33596,-3.38146" fill="none" stroke="#000000" stroke-width="1" stroke-linecap="round"/><path d="M271.73763,152.61904l0.73063,-2.83877" fill="none" stroke="#000000" stroke-width="1" stroke-linecap="round"/></g><path d="M203.39907,179.069c-2.58256,-2.58069 -4.15314,-5.98987 -4.15314,-9.72745c0,-8.05416 7.29324,-14.58334 16.2899,-14.58334c0.56227,0 1.11789,0.0255 1.6655,0.07529" fill="none" stroke="#f4b700" stroke-width="3" stroke-linecap="butt"/><path d="M201.80971,177.78358c-2.92394,-2.63612 -4.73045,-6.26688 -4.73045,-10.27537c0,-8.05415 7.29323,-14.58333 16.28989,-14.58333c1.10938,0 2.19285,0.09928 3.23994,0.28845" fill="none" stroke="#dea700" stroke-width="3" stroke-linecap="butt"/><path d="M224.71623,177.97157c-0.43872,0.38138 -0.90135,0.74084 -1.38568,1.07641" fill="none" stroke="#dea700" stroke-width="3" stroke-linecap="butt"/><path d="M196.66285,297.41649c0,0 -0.63536,-94.38387 -0.79335,-118.01201c-0.00415,-0.62017 0.03971,-1.35871 0.13839,-2.1941c0.32389,0.03165 0.6523,0.04785 0.9845,0.04785c5.52285,0 10,-4.47715 10,-10c0,-0.45772 -0.03075,-0.90826 -0.0903,-1.34967c5.25464,-0.2986 9.42364,-4.65427 9.42364,-9.98367c0,-2.74852 -1.10885,-5.23805 -2.9036,-7.04565c5.72117,-3.78863 13.13558,-6.34837 22.64939,-6.39586c31.60235,-0.15775 39.85672,29.48704 39.84884,36.89673c-0.07659,46.24274 0.65429,117.98648 0.65429,117.98648l-10.49667,0.09614c0,0 -1.83999,-65.06892 -1.86906,-86.08946c-0.0168,-12.14829 1.71023,-28.75365 1.71023,-28.75365c0,0 0.57549,-7.3493 -2.31625,-7.40415c-3.43441,-0.06514 -3.44538,7.36562 -3.44538,7.36562c0,0 -2.47938,13.27347 -2.46236,22.79397c0.03596,20.10285 2.66783,92.07598 2.66783,92.07598l-48.21366,0.07222l-0.30539,-115.23309c0,0 0.52949,-6.419 -2.6356,-6.43443c-3.11083,-0.01515 -3.06569,6.40899 -3.06569,6.40899l0.35311,115.0668z" fill="#ffffff" stroke="#000000" stroke-width="2" stroke-linecap="butt"/><path d="M251.25993,193.35867c-0.57113,0 -1.03411,-0.46299 -1.03411,-1.03411c0,-0.57113 0.46299,-1.03413 1.03411,-1.03413c0.57113,0 1.03411,0.463 1.03411,1.03413c0,0.57113 -0.46299,1.03411 -1.03411,1.03411z" fill="#000000" stroke="none" stroke-width="1.5" stroke-linecap="butt"/><path d="M246.00012,197.59426c-4.4635,-0.31439 -6.55245,-1.79392 -6.16985,-2.58011c0.11788,-0.24224 2.84645,1.06355 6.97038,1.3048c6.40897,0.37493 8.51033,-0.63173 8.51033,-0.63173v1.34616c0,0 -2.4135,1.04672 -9.31086,0.56089z" fill="#000000" stroke="#000000" stroke-width="0" stroke-linecap="butt"/><path d="M218.18739,192.32456c0,-0.57113 0.46299,-1.03413 1.03411,-1.03413c0.57113,0 1.03413,0.463 1.03413,1.03413c0,0.57113 -0.463,1.03411 -1.03413,1.03411c-0.57113,0 -1.03411,-0.46299 -1.03411,-1.03411z" fill="#000000" stroke="none" stroke-width="1.5" stroke-linecap="butt"/><path d="M224.48136,197.59426c-6.89736,0.48585 -9.31086,-0.56089 -9.31086,-0.56089v-1.34616c0,0 2.10136,1.00666 8.51033,0.63173c4.12393,-0.24126 6.85251,-1.54704 6.97039,-1.3048c0.3826,0.78618 -1.70634,2.26571 -6.16985,2.58011z" fill="#000000" stroke="#000000" stroke-width="0" stroke-linecap="butt"/><path d="M235.76181,254.146c-0.81895,0 -1.48284,-0.66389 -1.48284,-1.48284c0,-0.81895 0.66389,-1.48284 1.48284,-1.48284c0.81895,0 1.48284,0.66389 1.48284,1.48284c0,0.81895 -0.66389,1.48284 -1.48284,1.48284z" data-paper-data="{&quot;index&quot;:null}" fill="#000000" stroke="none" stroke-width="1.5" stroke-linecap="butt"/><path d="M193.76746,298.62486l0.25,-95.25c0,0 0.28901,-3.09027 1.05139,-4.14373c1.46411,-2.02314 7.12904,-10.74341 10.39644,-14.46287c1.50342,-1.71143 2.30218,-0.39339 2.30218,-0.39339v114.25z" fill="#000000" stroke="none" stroke-width="0" stroke-linecap="butt"/><path d="M193.77461,215.08204c0,0 -1.57143,-0.96371 -1.57143,-1.42857c0,-0.37084 0.71429,-1.57143 0.71429,-1.57143c0,0 4.81793,-0.02508 7.28024,-0.32993c2.53555,-0.31393 7.71976,-1.52721 7.71976,-1.52721c0,0 0.42857,0.42426 0.42857,0.85715c0,0.80155 -0.57143,2.14285 -0.57143,2.14285c0,0 -0.82617,-0.17612 -1.61874,-0.07098c-2.19198,0.29077 -12.38126,1.92813 -12.38126,1.92813z" fill="#ff8500" stroke="none" stroke-width="0" stroke-linecap="butt"/><path d="M193.91744,220.08204c0,0 -1.57143,-0.96371 -1.57143,-1.42857c0,-0.37084 0.71429,-1.57143 0.71429,-1.57143c0,0 4.81793,-0.02508 7.28024,-0.32993c2.53555,-0.31393 7.71976,-1.52721 7.71976,-1.52721c0,0 0.42857,0.42426 0.42857,0.85715c0,0.80155 -0.57143,2.14285 -0.57143,2.14285c0,0 -0.82617,-0.17612 -1.61874,-0.07098c-2.19198,0.29077 -12.38126,1.92813 -12.38126,1.92813z" fill="#de7300" stroke="none" stroke-width="0" stroke-linecap="butt"/><path d="M194.0603,224.51061c0,0 -1.57143,-0.96371 -1.57143,-1.42857c0,-0.37084 0.71429,-1.57143 0.71429,-1.57143c0,0 4.81793,-0.02508 7.28024,-0.32994c2.53555,-0.31393 7.71976,-1.52721 7.71976,-1.52721c0,0 0.42857,0.42426 0.42857,0.85715c0,0.80155 -0.57143,2.14285 -0.57143,2.14285c0,0 -0.82617,-0.17613 -1.61874,-0.07099c-2.19198,0.29077 -12.38126,1.92813 -12.38126,1.92813z" fill="#c76700" stroke="none" stroke-width="0" stroke-linecap="butt"/><path d="M194.20316,228.93918c0,0 -1.57142,-0.96371 -1.57142,-1.42857c0,-0.37084 0.71428,-1.57143 0.71428,-1.57143c0,0 4.81793,-0.02508 7.28024,-0.32994c2.53555,-0.31393 7.71976,-1.52721 7.71976,-1.52721c0,0 0.42857,0.42426 0.42857,0.85715c0,0.80155 -0.57143,2.14285 -0.57143,2.14285c0,0 -0.82617,-0.17613 -1.61874,-0.07099c-2.19198,0.29077 -12.38126,1.92813 -12.38126,1.92813z" fill="#c76700" stroke="none" stroke-width="0" stroke-linecap="butt"/><path d="M193.20317,298.93918v-62.42857l21,16.14286l-0.28571,46.28571z" fill="#af8300" stroke="none" stroke-width="0" stroke-linecap="butt"/><path d="M204.77461,299.08204l0.14286,-53.57143l5.85714,4.42857v49.14286z" fill="#7f5f00" stroke="none" stroke-width="0" stroke-linecap="butt"/><path d="M210.01746,299.12486l-0.25,-87l68.5,50.33204l-0.5,36.44623z" fill="#ffc100" stroke="none" stroke-width="0" stroke-linecap="butt"/><path d="M194.46,202.62508l-1.58373,-1.52523c0,0 7.5024,-10.63977 10.10261,-13.88232c1.4972,-1.86705 4.11034,-3.84172 4.11034,-3.84172l2.72658,2.9538c0,0 -10.80629,12.45726 -13.12286,15.0758c-0.97935,1.10701 -2.23295,1.21967 -2.23295,1.21967z" fill="#dea700" stroke="none" stroke-width="0" stroke-linecap="butt"/><path d="M256.04233,247.37489v-56.5h3.5c0,0 -1.5,13.84527 -1.5,21.99999c0,10.21192 1.5,34.50001 1.5,34.50001z" fill="#000000" stroke="none" stroke-width="0" stroke-linecap="butt"/><path d="M242.04235,251.87486v-52.5h4v52.5z" fill="#000000" stroke="none" stroke-width="0" stroke-linecap="butt"/><path d="M227.79235,236.37489v-23h3.25v23z" fill="#000000" stroke="none" stroke-width="0" stroke-linecap="butt"/><path d="M236.04235,246.12489v-31.75h3v31.75z" fill="#000000" stroke="none" stroke-width="0" stroke-linecap="butt"/><path d="M212.54235,231.62489v-43.25h3v43.25z" fill="#000000" stroke="none" stroke-width="0" stroke-linecap="butt"/><path d="M221.54235,237.62489v-25.75h3.5v25.75z" fill="#000000" stroke="none" stroke-width="0" stroke-linecap="butt"/><path d="M252.29233,249.37486v-44.5h4v44.5z" fill="#000000" stroke="none" stroke-width="0" stroke-linecap="butt"/><path d="M252.54233,201.62489v-3.25h3.5v3.25z" fill="#000000" stroke="none" stroke-width="0" stroke-linecap="butt"/><path d="M210.04235,232.12489v-19.25l68.5,48.5l-0.25,9.5z" fill="#dea700" stroke="none" stroke-width="0" stroke-linecap="butt"/><path d="M240.35942,268.75128l0.13937,-20.45709l37.76868,-27.9193l-0.13937,48.5z" data-paper-data="{&quot;index&quot;:null}" fill="#d89116" stroke="none" stroke-width="0" stroke-linecap="butt"/><path d="M264.29233,232.37489l0.75,-40.75c0,0 2.28084,32 3.25,32c0.84118,0 -0.42246,-32.98182 1.16787,-40.56961c0.84602,-4.03656 3.84789,34.81015 5.17666,37.80592c1.42764,3.21865 1.15547,-29.23631 1.15547,-29.23631v40.75z" fill="#000000" stroke="none" stroke-width="0" stroke-linecap="butt"/><path d="M251.83934,245.12489l-11.547,3.5l38.75,-28.75l-0.25188,10.75z" fill="#9d6910" stroke="none" stroke-width="0" stroke-linecap="butt"/><path d="M240.04235,299.87486v-51.75h1.5v51.75z" fill="#523708" stroke="none" stroke-width="0" stroke-linecap="butt"/><path d="M215.04235,268.12486v-21h14.75v21z" fill="#dea700" stroke="none" stroke-width="0" stroke-linecap="butt"/><path d="M214.54235,268.12486v-11.5h15.5v11.5z" fill="#aa8000" stroke="none" stroke-width="0" stroke-linecap="butt"/><path d="M254.3257,265.09154v-17.33333h20.83333v17.33333z" fill="#ffc100" stroke="#523708" stroke-width="1" stroke-linecap="butt"/><path d="M256.3257,263.09154v-9.83333h16.66667v9.83333z" fill="#d89116" stroke="#523708" stroke-width="0" stroke-linecap="butt"/><path d="M241.65905,299.25819l-0.33333,0.33333l36.33333,-21.83333v21.5z" fill="#af8300" stroke="none" stroke-width="0" stroke-linecap="butt"/><path d="M250.99237,179.75822v-33.5h2.83333v33.5z" fill="#000000" stroke="none" stroke-width="0" stroke-linecap="butt"/><path d="M254.3257,176.92489v-30.33333h2.16667v30.33333z" fill="#000000" stroke="none" stroke-width="0" stroke-linecap="butt"/><path d="M257.99235,169.75822v-20h2v20z" fill="#000000" stroke="none" stroke-width="0" stroke-linecap="butt"/><path d="M258.159,175.92489v-4.5h2.16667v4.5z" fill="#000000" stroke="none" stroke-width="0" stroke-linecap="butt"/><path d="M216.3257,185.59156v-13.66667h14v13.66667z" fill="#000000" stroke="none" stroke-width="0" stroke-linecap="butt"/><path d="M226.99237,174.59156v-6.5h6v6.5z" fill="#000000" stroke="none" stroke-width="0" stroke-linecap="butt"/><path d="M262.54233,152.37489l4.25,5.5" fill="none" stroke="#ffffff" stroke-width="1.5" stroke-linecap="round"/><path d="M270.29233,158.37489l-3.25,3.75l2.75,-5.75l-5.75,3.5l3.5,-4.75l-3.75,1l0.25,-5.75" fill="none" stroke="#ffffff" stroke-width="1.5" stroke-linecap="round"/><path d="M267.54233,153.87489l-3.25,1.25" fill="none" stroke="#ffffff" stroke-width="1.5" stroke-linecap="round"/><path d="M264.34418,45.0731l-1.125,6.375" fill="none" stroke="#ffffff" stroke-width="2" stroke-linecap="round"/><path d="M264.59418,54.8231l-0.25,-6.75" fill="none" stroke="#ffffff" stroke-width="2" stroke-linecap="round"/><path d="M247.80808,40.66477h-1.33333" fill="none" stroke="#000000" stroke-width="1" stroke-linecap="round"/><path d="M248.69696,39.44255l2.55555,0.66666" fill="none" stroke="#000000" stroke-width="1" stroke-linecap="round"/><path d="M244.80806,45.66477l2.22222,1.44444l2,4.33334" fill="none" stroke="#000000" stroke-width="1" stroke-linecap="round"/><path d="M253.80801,41.44255l1.66666,0.77777" fill="none" stroke="#000000" stroke-width="1" stroke-linecap="round"/><path d="M192.18615,96.27819c0,0 6.16329,-5.92187 6.29161,-6.78761c0.33654,-2.27063 -0.16776,-40.17317 35.96775,-41.57382c44.63633,-0.91362 39.01489,35.34872 41.53088,42.1903c3.44981,9.38084 6.15664,17.40016 6.15664,17.40016c0,0 -2.76715,-2.05351 -4.0797,-3.13397c-1.2242,-1.00773 -3.80143,-3.14585 -3.80143,-3.14585c0,0 3.09111,10.3481 1.31092,20.69498c-1.5623,9.48098 -7.29782,17.22543 -7.29782,17.22543l-1.15522,-2.34735c0,0 -1.02266,2.19794 -2.16005,3.33274c-1.1374,1.13479 -3.43873,2.91273 -3.43873,2.91273l-0.09205,-3.70421c0,0 -7.0601,11.01795 -24.35066,10.87154c-16.30625,-0.25547 -26.07151,-10.6752 -26.07151,-10.6752l-0.1162,2.65484c0,0 -3.89477,-3.29276 -6.18145,-9.70754c-2.72545,-7.64567 -3.23946,-12.24324 -3.23946,-12.24324c0,0 -2.33908,1.89916 -5.71704,2.7744c-4.23278,1.09673 -6.94665,0.34526 -6.94665,0.34526c0,0 3.60795,-2.71717 5.58396,-4.76989c1.76007,-1.8284 2.64658,-3.37722 2.64658,-3.37722c0,0 -2.10758,1.0847 -4.23277,1.61795c-2.21739,0.5564 -4.03008,0.53093 -4.03008,0.53093c0,0 4.97492,-5.03728 7.03074,-10.87429c1.94102,-5.51108 2.09972,-10.95731 2.09972,-10.95731c0,0 -1.36165,0.66163 -3.33013,0.79513c-1.24776,0.08463 -2.37785,-0.0489 -2.37785,-0.0489z" fill="#000000" stroke="none" stroke-width="1.5" stroke-linecap="butt"/><path d="M241.11919,65.79807c0,0 0.06585,-9.8618 -1.08212,-13.83554c-0.56049,-1.94015 -4.08455,-3.33113 -4.08455,-3.33113c0,0 5.60784,-2.63201 16.29473,0.73207c15.21362,4.78903 16.5386,12.26793 16.5386,12.26793l5,10.66667c0,0 -5.30592,-10.52518 -9.98488,-9.27667c-0.34797,0.09285 0.79922,12.51594 0.4428,12.60163c-1.18955,0.28598 -4.25277,-10.80671 -5.47817,-10.64759c-3.82947,0.49726 -5.44833,13.19829 -7.82123,10.99808c-2.25811,-2.09378 -3.227,-20.59917 -4.42372,-20.84309c-2.20773,-0.44998 -5.40147,10.66764 -5.40147,10.66764z" fill="#ff8500" stroke="none" stroke-width="0" stroke-linecap="butt"/><path d="M208.97204,107.59981c-0.35352,-4.46775 -2.58636,-12.77658 -3.10113,-18.9313c-0.32555,-3.89234 0.93613,-7.22318 0.93613,-7.22318l10.97497,7.75936l-0.63183,-7.76459c0,0 23.50951,8.73792 30.69526,10.88936c3.61646,1.08278 9.65484,1.19158 9.65484,1.19158c0,0 -7.90345,-6.73832 -4.78682,-5.94735c6.06486,1.53921 11.02963,5.69128 11.02963,5.69128c0,0 1.28006,7.4327 0.96846,12.99062c-0.42163,5.66922 -2.53327,9.49969 -3.15031,12.52053c-0.54278,2.65731 -0.44758,5.38809 -1.63974,12.74771c-0.16309,1.00681 2.44973,7.90026 2.23352,9.09199c-1.12121,6.18021 -6.96183,3.12466 -12.81942,8.86081c-5.85759,5.73616 -9.05378,9.25275 -13.01359,9.32173c-3.81077,0.06639 -8.93565,-5.1002 -13.93542,-10.38244c-2.25444,-2.38182 -4.18545,-5.07754 -6.18776,-6.05518c-2.72621,-1.33109 -5.24309,-0.84327 -5.72774,-4.68457c-0.20063,-1.59011 1.85055,-7.4333 1.73372,-8.79513c-0.32404,-3.77713 -0.40198,-6.92846 -0.65638,-10.85322c-0.25298,-3.90273 -2.26119,-6.44504 -2.57636,-10.42801z" fill="#ffffff" stroke="#000000" stroke-width="1.5" stroke-linecap="butt"/><path d="M257.04199,92.47945c0,0 1.52429,0.31807 4.2558,1.11029c2.49492,0.72361 4.44935,1.74403 4.44935,1.74403l0.1951,1.17035c0,0 -7.24963,-3.12997 -15.1158,-2.4706c-6.2896,0.52724 -9.96319,2.8124 -9.96319,2.8124l0.04575,-4.17683c0,0 3.12748,-1.70421 7.86366,-1.85557c4.90428,-0.15672 8.09084,0.59125 8.09084,0.59125z" data-paper-data="{&quot;index&quot;:null}" fill="#000000" stroke="none" stroke-width="1.5" stroke-linecap="butt"/><path d="M210.67166,117.72303c0,0 -4.93211,-3.51705 -6.16417,-8.97502c-1.29636,-5.74284 -1.46118,-9.7328 0.48013,-9.99193c1.94131,-0.25915 2.70321,2.37692 3.73262,8.35569c1.0294,5.97877 1.95143,10.61127 1.95143,10.61127z" data-paper-data="{&quot;index&quot;:null}" fill="#ffffff" stroke="#000000" stroke-width="1" stroke-linecap="butt"/><path d="M210.46909,113.77547c0,0 -3.56385,-2.92338 -4.31816,-8.45061c-0.42079,-3.08327 2.15675,-2.28016 2.15675,-2.28016" fill="none" stroke="#000000" stroke-width="0.25" stroke-linecap="round"/><path d="M211.64921,107.11957c0.07771,-4.89188 5.30107,-8.93609 11.18796,-8.8582c5.88688,0.0779 9.89058,4.2484 9.81288,9.14029c-0.07771,4.89188 -4.51788,8.79439 -10.40478,8.7165c-5.88688,-0.0779 -10.67378,-4.1067 -10.59607,-8.99859z" fill="#ffffff" stroke="#000000" stroke-width="1.4" stroke-linecap="butt"/><path d="M219.8005,104.10354c0.03999,-2.75843 2.30855,-4.96213 5.06696,-4.92214c2.75843,0.03999 4.96213,2.30855 4.92214,5.06696c-0.03999,2.75843 -2.30854,4.96213 -5.06696,4.92214c-2.75843,-0.03999 -4.96213,-2.30855 -4.92214,-5.06696z" fill="#ff8500" stroke="#000000" stroke-width="1" stroke-linecap="butt"/><path d="M240.53951,107.1203c0.22311,-4.88817 4.88108,-8.85847 10.71062,-8.85847c5.82953,0 10.16695,3.96607 10.16695,8.85847c0,4.8924 -4.25976,9.07104 -10.63296,9.14188c-6.06208,0.06739 -10.47761,-4.03692 -10.24461,-9.14188z" fill="#ffffff" stroke="#000000" stroke-width="1.4" stroke-linecap="butt"/><path d="M247.64868,105.95226c0,-2.81845 2.2848,-5.10325 5.10325,-5.10325c2.81845,0 5.10325,2.2848 5.10325,5.10325c0,2.81845 -2.28479,5.10325 -5.10325,5.10325c-2.81845,0 -5.10325,-2.2848 -5.10325,-5.10325z" fill="#ff8500" stroke="#000000" stroke-width="1" stroke-linecap="butt"/><path d="M211.41404,106.5296c0,0 0.06988,-9.90963 11.65298,-9.70053c10.41075,0.18232 10.50367,10.34064 10.50367,10.34064c0,0 -4.57012,-6.86071 -10.96726,-6.82648c-6.65518,0.03562 -11.18939,6.18637 -11.18939,6.18637z" fill="#ffffff" stroke="#000000" stroke-width="1.15" stroke-linecap="butt"/><path d="M239.65075,108.26153c0,0 -1.65687,-9.68087 10.81742,-11.09128c10.59264,-1.16409 11.7793,8.43782 11.7793,8.43782z" fill="#ffffff" stroke="#000000" stroke-width="1.15" stroke-linecap="butt"/><path d="M216.94389,89.56856c0,0 3.36963,-1.819 8.03244,-2.28178c5.16698,-0.51283 7.76823,-0.06628 7.76823,-0.06628l0.29508,4.13747c0,0 -3.83554,-0.68065 -8.01795,-0.52113c-5.59346,0.21333 -6.64488,1.43293 -10.89774,1.89119c-3.64408,0.39266 -6.73723,0.15884 -6.73723,0.15884l-0.02589,-1.23155c0,0 3.59517,0.07398 5.23371,-0.06836c1.35239,-0.11749 3.9757,-0.93808 3.9757,-0.93808z" fill="#000000" stroke="none" stroke-width="1.5" stroke-linecap="butt"/><path d="M264.90481,107.11176c1.0294,-5.97877 1.7913,-8.61483 3.73262,-8.35569c1.94131,0.25914 1.77649,4.24909 0.48013,9.99193c-1.23206,5.45797 -6.16417,8.97502 -6.16417,8.97502c0,0 0.92203,-4.6325 1.95143,-10.61127z" data-paper-data="{&quot;index&quot;:null}" fill="#ffffff" stroke="#000000" stroke-width="1" stroke-linecap="butt"/><path d="M265.31732,103.0447c0,0 2.57754,-0.80312 2.15675,2.28016c-0.75431,5.52723 -4.31816,8.45061 -4.31816,8.45061" data-paper-data="{&quot;index&quot;:null}" fill="none" stroke="#000000" stroke-width="0.25" stroke-linecap="round"/><path d="M234.11917,112.90752c0,6.03484 -6.38511,16.39057 -12,16.39057c-5.61489,0 -10.83333,-9.15642 -10.83333,-15.19126c0,-1.36701 0.25066,-2.06684 0.70368,-2.33162c0.37982,4.29475 2.98783,8.46143 10.12965,8.46143c3.35927,0 6.37463,-2.0985 8.75,-3.9977c1.21478,-0.97127 0.83333,-2.66513 1.25,-3.9977v-1.44956c1.2327,-0.34111 2,0.07638 2,2.11584z" fill="#000000" stroke="#000000" stroke-width="1.4" stroke-linecap="butt"/><path d="M262.61915,112.82545c0,7.16963 -6.3851,19.47264 -12,19.47264c-5.61489,0 -10.83333,-10.87818 -10.83333,-18.04782c0,-1.62406 0.25065,-2.45549 0.70367,-2.77006c0.37982,5.10233 2.98783,10.05252 10.12965,10.05252c3.35927,0 6.37463,-2.4931 8.75,-4.74942c1.21478,-1.1539 0.83334,-3.16629 1.25,-4.74943v-1.72213c1.2327,-0.40526 2,0.09075 2,2.5137z" data-paper-data="{&quot;index&quot;:null}" fill="#000000" stroke="#000000" stroke-width="1.4" stroke-linecap="butt"/><path d="M238.11918,116.29809l-1.16667,0.83333" fill="none" stroke="#000000" stroke-width="1" stroke-linecap="round"/><path d="M234.32068,150.05474c0,0 8.75008,0.81044 10.77791,-0.51046c1.72369,-1.12278 4.64806,-7.59596 5.86887,-7.72394c2.05992,-0.21596 10.416,-0.10654 10.46026,0.26623c0.04328,0.36447 -12.63119,13.70033 -24.74808,13.24714c-8.43221,-0.26686 -16.31142,-7.48289 -20.21379,-11.83539c-2.47009,-2.75501 -6.82763,-3.40377 -6.81296,-3.46934c0.03784,-0.16913 2.6591,-1.60835 7.75024,-0.5816z" fill="#ffffff" stroke="#000000" stroke-width="1.9" stroke-linecap="butt"/><path d="M250.10175,136.06283c2.9637,1.20597 10.41362,5.09294 10.39412,5.2605c-0.0116,0.09963 -4.49741,0.74109 -9.90041,0.33182c-6.12969,-0.46432 -13.26763,-1.99394 -13.26763,-1.99394c0,0 -9.90401,0.43831 -16.07235,-0.84521c-4.94371,-1.02869 -10.59929,-0.26108 -10.60995,-0.35461c-0.01439,-0.12613 0.66835,-2.91071 3.62417,-3.59467c1.14585,-0.49661 15.63971,-2.48513 15.63971,-2.48513l7.86022,4.54345c0,0 5.28219,-3.81633 5.70828,-3.65808c0,0 3.68356,1.59943 6.62384,2.79587z" fill="#ffffff" stroke="#000000" stroke-width="1.4" stroke-linecap="butt"/><path d="M236.60416,137.02691c-1.03376,0 -3.5381,-3.26042 -3.7867,-5.3637c-0.22243,-1.88186 1.31512,-3.82799 3.7867,-3.82799c2.47159,0 4.2021,0.49077 4.02999,4.18853c-0.14607,3.13818 -1.55841,5.00317 -4.02999,5.00317z" fill="#ffffff" stroke="#000000" stroke-width="1.15" stroke-linecap="butt"/><path d="M248.97809,143.29632c0,0.94889 -3.81204,6.60546 -3.81204,6.60546c0,0 -6.09774,-0.10546 -8.90225,-0.10546c-5.64236,0 -16.85714,-8.02545 -16.85714,-9.64286c0,-1.61741 10.5005,0.21429 17.28571,0.21429c6.78521,0 12.28571,1.31117 12.28571,2.92857z" fill="#000000" stroke="none" stroke-width="0" stroke-linecap="butt"/><path d="M236.40668,140.51059l12.85714,2.14286l-1.71429,3.14286l-1.42857,-3.42857l-2,3.14286l-1.14286,-3.28571l-2.14286,3.14286l-1.71429,-3.85714l-2.28571,3.85714l-1.85714,-4.42857l-1.71429,4l-2.14286,-4l-2,3.28571l-3.14286,-4.14286l-2.14285,3.42857l-2.71428,-3.71428z" fill="#ffffff" stroke="#000000" stroke-width="1" stroke-linecap="round"/><path d="M240.20629,106.93319c0,0 0.1026,3.96976 0.00576,7.12662c-0.19174,6.25113 -1.08147,27.7607 -1.08147,27.7607l-2.98167,0.00864c0,0 -0.80294,-4.17274 -1.12322,-9.49979c-0.16454,-2.73676 -0.56865,-17.56054 -0.76344,-19.63229c-0.29758,-3.16513 -0.89593,-5.71453 -0.89593,-5.71453" fill="#ffffff" stroke="#000000" stroke-width="1.3" stroke-linecap="round"/><path d="M235.11917,117.96476l3.83333,-3v2z" fill="none" stroke="#000000" stroke-width="1" stroke-linecap="round"/><path d="M234.95249,119.29809l4.66667,6l-4.33333,-3.83333z" fill="none" stroke="#000000" stroke-width="1" stroke-linecap="round"/><g><path d="M266.17702,44.4379l4.375,-1" fill="none" stroke="#ffffff" stroke-width="2" stroke-linecap="round"/><g stroke="#000000"><g><path d="M259.16632,38.5999c0.40183,6.24632 -2.55543,11.18713 -6.16849,11.41956c-2.47721,0.15936 -9.53451,-1.71116 -12.12251,-5.16772c-1.09022,-1.45612 -0.31906,-5.90755 -0.31906,-5.90755c0,0 1.89687,2.71525 3.69552,3.10212c1.27124,0.27343 2.5437,-1.56675 2.84109,-2.16161c0.37496,-0.75002 -2.56779,-3.97594 -3.0274,-6.23325c-0.54676,-2.68532 4.73055,-6.94893 4.73055,-6.94893c0,0 -0.49133,1.83665 -0.56437,3.78762c-0.01025,0.27365 0.14276,2.42302 0.4232,3.06593c0.96031,2.2014 0.95127,2.45288 0.95127,2.45288c0,0 -0.33792,-3.17322 1.07188,-6.31c1.16358,-2.58897 4.29068,-2.41023 4.29068,-2.41023l-2.00535,6.34513c0,0 1.18694,-0.45362 2.26765,-1.93806c1.54458,-2.12163 3.91591,-3.83443 3.91591,-3.83443c0,0 -1.8339,4.74547 -1.79329,8.24894c0.0029,0.2503 0.32574,-1.83298 1.51514,-3.09629c1.43951,-1.52897 3.79324,-2.32082 3.79324,-2.32082c0,0 -3.51915,7.54133 -3.49565,7.90676z" fill="#ffffff" stroke-width="2" stroke-linecap="butt"/><path d="M250.07884,35.36421l1.32171,0.17565" fill="none" stroke-width="1" stroke-linecap="round"/><path d="M252.44274,34.44539l2.44545,0.99752" fill="none" stroke-width="1" stroke-linecap="round"/><path d="M257.24582,37.10129l1.54967,0.99056" fill="none" stroke-width="1" stroke-linecap="round"/></g><path d="M247.76803,40.10106l2.01256,1.7246l1.4117,4.55905" fill="none" stroke-width="1" stroke-linecap="round"/></g><g><path d="M266.259,38.03269c0.94453,-2.59487 1.39079,-5.88551 1.39079,-5.88551c0,0 3.08024,3.61755 3.00446,6.28624c-0.01089,0.38348 -0.31736,0.77388 -0.43603,1.0999c-0.57236,1.57244 -4.42973,4.31127 -5.79185,5.02232c-0.88568,0.46234 0.64297,-0.7427 0.17009,-0.91483c-1.20012,-0.43685 0.71803,-3.01326 1.66256,-5.60812z" fill="#ffffff" stroke="#000000" stroke-width="2" stroke-linecap="butt"/><path d="M265.85074,31.75991c0.26436,2.29753 -0.2997,4.24961 -1.25987,4.36009c-0.96016,0.11048 -1.95283,-1.66248 -2.21719,-3.96001c-0.26436,-2.29753 0.14224,-4.23149 0.14224,-4.23149c0,0 3.07046,1.53389 3.33482,3.83142z" fill="#ffffff" stroke="#000000" stroke-width="2" stroke-linecap="butt"/><path d="M266.13776,42.36007c0,0 -1.19219,7.00834 -3.87125,10.42212c-1.81813,2.31673 -4.96724,1.49118 -6.39481,1.44453c-3.53118,-0.11542 -1.00413,-5.57225 -0.80708,-11.60108c0.19706,-6.02883 0.26762,-10.23132 3.79879,-10.11591c1.81952,0.05947 4.40744,1.20701 5.79843,3.72672c1.30852,2.37032 1.47592,6.12364 1.47592,6.12364z" fill="#ffffff" stroke="#000000" stroke-width="2" stroke-linecap="butt"/><path d="M256.10498,47.66571c0.41824,3.63491 -0.6116,4.85171 -2.18901,5.03321c-1.57741,0.1815 -3.10506,-0.74103 -3.5233,-4.37594c-0.41824,-3.63491 1.17431,-2.14831 2.75172,-2.32981c1.57741,-0.1815 2.54235,-1.96236 2.96059,1.67254z" fill="#ffffff" stroke="#000000" stroke-width="2" stroke-linecap="butt"/><path d="M257.79522,49.23277l-2.65066,-0.07248" fill="none" stroke="#ffffff" stroke-width="2" stroke-linecap="round"/><path d="M254.91489,50.44496l3.10893,0.7747" fill="none" stroke="#ffffff" stroke-width="2" stroke-linecap="round"/><path d="M253.27133,44.90905c0.36695,3.18912 0.39549,6.30864 -1.07905,6.47831c-1.47454,0.16966 -3.52123,-2.71765 -3.88818,-5.90677c-0.22704,-1.97318 -1.1974,-3.50078 -0.61903,-4.62266c0.3564,-0.69134 2.0623,-1.39426 2.6245,-1.45894c1.47454,-0.16966 2.59481,2.32095 2.96176,5.51006z" fill="#ffffff" stroke="#000000" stroke-width="2" stroke-linecap="butt"/><path d="M256.91605,50.3405l-2.04846,-1.40002l1.39456,0.09119" fill="none" stroke="#ffffff" stroke-width="2" stroke-linecap="round"/><path d="M257.53152,52.40872l-2.53089,-1.21869l-2.69794,-1.57694" fill="none" stroke="#ffffff" stroke-width="2" stroke-linecap="round"/><path d="M259.52905,33.68263c0.47348,4.11499 -1.06519,8.67865 -2.50544,8.84436c-1.44025,0.16572 -1.37728,-3.22154 -1.85075,-7.33653c-0.47348,-4.11499 -0.14626,-5.64528 -0.14626,-5.64528c0,0 4.02898,0.02246 4.50246,4.13745z" fill="#ffffff" stroke="#000000" stroke-width="2" stroke-linecap="butt"/><path d="M257.5115,40.206l0.3715,3.2287" fill="none" stroke="#ffffff" stroke-width="2" stroke-linecap="round"/><path d="M265.98921,38.84395c-0.64396,2.75624 -0.94221,4.6441 -2.522,4.27501c-1.5798,-0.3691 -2.33843,-2.90269 -1.69447,-5.65891c0.64396,-2.75624 1.02794,-3.89902 2.60774,-3.52992c1.5798,0.3691 2.2527,2.1576 1.60874,4.91383z" fill="#ffffff" stroke="#000000" stroke-width="2" stroke-linecap="butt"/><path d="M262.69237,33.38267c0.09781,4.33828 -1.30399,7.12445 -2.75336,7.15712c-1.44937,0.03268 -1.07903,-3.49433 -1.17684,-7.83261c-0.09781,-4.33828 0.36705,-5.90263 0.36705,-5.90263c0,0 3.46534,2.23984 3.56314,6.57811z" fill="#ffffff" stroke="#000000" stroke-width="2" stroke-linecap="butt"/><path d="M261.08523,36.27172l-0.38891,6.46181" fill="none" stroke="#ffffff" stroke-width="2" stroke-linecap="round"/><path d="M263.54701,44.54455l0.6152,-12.14996" fill="none" stroke="#ffffff" stroke-width="2" stroke-linecap="round"/><path d="M261.42815,39.25205l1.01994,6.67718" fill="none" stroke="#ffffff" stroke-width="2" stroke-linecap="round"/><path d="M267.30108,40.84118l-4.23202,1.49354" fill="none" stroke="#ffffff" stroke-width="2" stroke-linecap="round"/><path d="M257.56657,47.24585l-2.73197,0.31435l2.43192,-2.92214" fill="none" stroke="#ffffff" stroke-width="2" stroke-linecap="round"/><path d="M264.33332,41.97395l0.61242,-3.42579" fill="none" stroke="#000000" stroke-width="1" stroke-linecap="round"/><path d="M262.53788,40.95024l-0.50803,-4.41531" fill="none" stroke="#000000" stroke-width="1" stroke-linecap="round"/><path d="M259.62495,42.85124l-0.84796,-3.48145" fill="none" stroke="#000000" stroke-width="1" stroke-linecap="round"/></g><path d="M274.72422,24.86288l-2,2" fill="none" stroke="#000000" stroke-width="1" stroke-linecap="round"/><path d="M274.72422,32.61288l3.25,-1.75" fill="none" stroke="#000000" stroke-width="1" stroke-linecap="round"/><path d="M274.22422,41.11288l4,0.25" fill="none" stroke="#000000" stroke-width="1" stroke-linecap="round"/><path d="M243.47422,22.61288l-1.25,-2.5" fill="none" stroke="#000000" stroke-width="1" stroke-linecap="round"/><path d="M241.22422,26.86288l-2.75,-1.25" fill="none" stroke="#000000" stroke-width="1" stroke-linecap="round"/><path d="M235.22422,30.86288l4,1" fill="none" stroke="#000000" stroke-width="1" stroke-linecap="round"/></g></g></g></svg>