<svg version="1.1" xmlns="http://www.w3.org/2000/svg" xmlns:xlink="http://www.w3.org/1999/xlink" width="51.21344" height="157.05678" viewBox="0,0,51.21344,157.05678"><defs><linearGradient x1="231.56366" y1="154.08036" x2="238.0763" y2="154.08036" gradientUnits="userSpaceOnUse" id="color-1"><stop offset="0" stop-color="#000000"/><stop offset="1" stop-color="#000000" stop-opacity="0"/></linearGradient><linearGradient x1="231.56366" y1="155.72912" x2="238.0763" y2="155.72912" gradientUnits="userSpaceOnUse" id="color-2"><stop offset="0" stop-color="#000000"/><stop offset="1" stop-color="#000000" stop-opacity="0"/></linearGradient></defs><g transform="translate(-215.32292,-146.943)"><g data-paper-data="{&quot;isPaintingLayer&quot;:true}" fill-rule="nonzero" stroke-linejoin="miter" stroke-miterlimit="10" stroke-dasharray="" stroke-dashoffset="0" style="mix-blend-mode: normal"><path d="M256.1425,200.33376c-0.57113,0 -1.03411,-0.46299 -1.03411,-1.03411c0,-0.57113 0.46299,-1.03413 1.03411,-1.03413c0.57113,0 1.03411,0.463 1.03411,1.03413c0,0.57113 -0.46299,1.03411 -1.03411,1.03411z" fill="#000000" stroke="none" stroke-width="1.5" stroke-linecap="butt"/><path d="M250.88264,204.56935c-4.4635,-0.31439 -6.55245,-1.79392 -6.16985,-2.58011c0.11788,-0.24224 2.84645,1.06355 6.97038,1.3048c6.40897,0.37493 8.51033,-0.63173 8.51033,-0.63173v1.34616c0,0 -2.4135,1.04672 -9.31086,0.56089z" fill="#000000" stroke="#000000" stroke-width="0" stroke-linecap="butt"/><path d="M223.06989,199.29965c0,-0.57113 0.46299,-1.03413 1.03411,-1.03413c0.57113,0 1.03413,0.463 1.03413,1.03413c0,0.57113 -0.463,1.03411 -1.03413,1.03411c-0.57113,0 -1.03411,-0.46299 -1.03411,-1.03411z" fill="#000000" stroke="none" stroke-width="1.5" stroke-linecap="butt"/><path d="M229.36387,204.56935c-6.89736,0.48585 -9.31086,-0.56089 -9.31086,-0.56089v-1.34616c0,0 2.10136,1.00666 8.51033,0.63173c4.12393,-0.24126 6.85251,-1.54704 6.97039,-1.3048c0.3826,0.78618 -1.70634,2.26571 -6.16985,2.58011z" fill="#000000" stroke="#000000" stroke-width="0" stroke-linecap="butt"/><path d="M240.64433,261.12113c-0.81895,0 -1.48284,-0.66389 -1.48284,-1.48284c0,-0.81895 0.66389,-1.48284 1.48284,-1.48284c0.81895,0 1.48284,0.66389 1.48284,1.48284c0,0.81895 -0.66389,1.48284 -1.48284,1.48284z" data-paper-data="{&quot;index&quot;:null}" fill="#000000" stroke="none" stroke-width="1.5" stroke-linecap="butt"/><path d="M216.36081,302.99976v-119.20147c0,0 0.75721,-9.73105 0.75721,-14.63937c0,-4.498 -0.75721,-13.6872 -0.75721,-13.6872c0,0 2.67319,-2.35297 4.6557,-3.74807c1.98251,-1.3951 5.17197,-2.80371 5.17197,-2.80371c0,0 1.05017,-0.9066 16.21129,-0.97696c15.43477,-0.07162 12.17977,0.97696 12.17977,0.97696c0,0 3.91276,1.51959 6.16585,2.94655c2.25309,1.42695 4.75379,3.60523 4.75379,3.60523c0,0 -0.75721,9.42463 -0.75721,14.19201c0,4.84193 0.75721,14.63937 0.75721,14.63937v118.69667z" fill="#447a72" stroke="#000000" stroke-width="2" stroke-linecap="butt"/><g stroke-linecap="butt"><path d="M243.53411,184.22806v-12.41411h12.41411v12.41411z" fill="#73cec0" stroke="#000000" stroke-width="1"/><path d="M216.79158,180c0,-10.568 10.39077,-19.13506 23.20843,-19.13506c12.81766,0 23.20843,8.56706 23.20843,19.13506c0,10.568 -10.39077,19.13506 -23.20843,19.13506c-12.81766,0 -23.20843,-8.56706 -23.20843,-19.13506z" fill="#ffffff" stroke="#9ec3be" stroke-width="2"/><path d="M247.99714,181.76002c0,8.73488 -3.42186,15.8159 -7.64294,15.8159c-4.22108,0 -7.64294,-7.08102 -7.64294,-15.8159c0,-8.73488 3.42186,-15.8159 7.64294,-15.8159c4.22108,0 7.64294,7.08102 7.64294,15.8159z" fill="#010101" stroke="#9ec3be" stroke-width="2"/></g><g stroke-linecap="butt"><path d="M244.14676,219.45686v-9.5468h9.5468v9.5468z" fill="#73cec0" stroke="#000000" stroke-width="1"/><path d="M223.58098,216.20536c0,-8.1271 7.9908,-14.71541 17.84795,-14.71541c9.85715,0 17.84795,6.58831 17.84795,14.71541c0,8.1271 -7.9908,14.71541 -17.84795,14.71541c-9.85715,0 -17.84795,-6.58831 -17.84795,-14.71541z" fill="#ffffff" stroke="#9ec3be" stroke-width="2"/><path d="M247.57896,217.55887c0,6.71737 -2.63151,12.16288 -5.87764,12.16288c-3.24613,0 -5.87764,-5.44551 -5.87764,-12.16288c0,-6.71737 2.63151,-12.16288 5.87764,-12.16288c3.24613,0 5.87764,5.4455 5.87764,12.16288z" fill="#000000" stroke="#9ec3be" stroke-width="2"/></g><g stroke-linecap="butt"><path d="M242.69876,246.53257v-6.77725h6.77725v6.77725z" fill="#73cec0" stroke="#000000" stroke-width="1"/><path d="M228.09917,244.22434c0,-5.7694 5.67265,-10.44643 12.67021,-10.44643c6.99757,0 12.67021,4.67703 12.67021,10.44643c0,5.7694 -5.67265,10.44643 -12.67021,10.44643c-6.99757,0 -12.67021,-4.67703 -12.67021,-10.44643z" fill="#ffffff" stroke="#9ec3be" stroke-width="2"/><path d="M245.13526,245.18519c0,4.76865 -1.8681,8.6344 -4.17252,8.6344c-2.30442,0 -4.17252,-3.86575 -4.17252,-8.6344c0,-4.76865 1.86811,-8.63439 4.17252,-8.63439c2.30442,0 4.17252,3.86575 4.17252,8.63439z" fill="#ffffff" stroke="#9ec3be" stroke-width="2"/></g><g stroke-linecap="butt"><path d="M244.28248,272.7575v-6.27764h6.27764v6.27764z" fill="#73cec0" stroke="#000000" stroke-width="1"/><path d="M230.75915,270.61944c0,-5.34409 5.25447,-9.67634 11.73619,-9.67634c6.48172,0 11.73619,4.33225 11.73619,9.67634c0,5.34409 -5.25447,9.67634 -11.73619,9.67634c-6.48172,0 -11.73619,-4.33225 -11.73619,-9.67634z" fill="#ffffff" stroke="#9ec3be" stroke-width="2"/><path d="M246.53938,271.50945c0,4.41711 -1.73039,7.99788 -3.86493,7.99788c-2.13454,0 -3.86493,-3.58077 -3.86493,-7.99788c0,-4.41711 1.73039,-7.99788 3.86493,-7.99788c2.13454,0 3.86493,3.58077 3.86493,7.99788z" fill="#ffffff" stroke="#9ec3be" stroke-width="2"/></g><g stroke-linecap="butt"><path d="M244.26293,292.38661v-4.74625h4.74625v4.74625z" fill="#73cec0" stroke="#000000" stroke-width="1"/><path d="M234.03854,290.77011c0,-4.04043 3.97267,-7.31585 8.87321,-7.31585c4.90054,0 8.8732,3.27542 8.8732,7.31585c0,4.04043 -3.97266,7.31585 -8.8732,7.31585c-4.90054,0 -8.87321,-3.27542 -8.87321,-7.31585z" fill="#ffffff" stroke="#9ec3be" stroke-width="2"/><path d="M245.96926,291.44301c0,3.33958 -1.30827,6.04684 -2.9221,6.04684c-1.61383,0 -2.9221,-2.70726 -2.9221,-6.04684c0,-3.33958 1.30827,-6.04684 2.9221,-6.04684c1.61383,0 2.9221,2.70726 2.9221,6.04684z" fill="#ffffff" stroke="#9ec3be" stroke-width="2"/></g><g stroke="none" stroke-linecap="butt"><g fill="#000000" stroke-width="1" font-weight="normal" font-size="40" text-anchor="start"><text transform="translate(220.92909,156.47107) scale(0.08652,0.08652)" font-size="40" xml:space="preserve" fill="#000000" fill-rule="nonzero" stroke="none" stroke-width="1" stroke-linecap="butt" stroke-linejoin="miter" stroke-miterlimit="10" stroke-dasharray="" stroke-dashoffset="0" font-family="Pixel" font-weight="normal" text-anchor="start" style="mix-blend-mode: normal"><tspan x="0" dy="0">DONK</tspan></text><text transform="translate(220.72262,159.97433) scale(0.08652,0.08652)" font-size="40" xml:space="preserve" fill="#000000" fill-rule="nonzero" stroke="none" stroke-width="1" stroke-linecap="butt" stroke-linejoin="miter" stroke-miterlimit="10" stroke-dasharray="" stroke-dashoffset="0" font-family="Sans Serif" font-weight="normal" text-anchor="start" style="mix-blend-mode: normal"><tspan x="0" dy="0">Industries</tspan></text></g><path d="M231.56366,154.57499v-0.98926h6.51264v0.98926z" fill="url(#color-1)" stroke-width="0"/><path d="M231.56366,156.21001v-0.96178h6.51264v0.96178z" fill="url(#color-2)" stroke-width="0"/></g><path d="M219.79219,156.89551l19.03683,0.28125l-2.16109,-0.012" fill="none" stroke="#000000" stroke-width="0.5" stroke-linecap="round"/></g></g></svg>