<svg version="1.1" xmlns="http://www.w3.org/2000/svg" xmlns:xlink="http://www.w3.org/1999/xlink" width="193.2039" height="236.11562" viewBox="0,0,193.2039,236.11562"><g transform="translate(-193.87075,-69.38424)"><g data-paper-data="{&quot;isPaintingLayer&quot;:true}" fill-rule="nonzero" stroke-linejoin="miter" stroke-miterlimit="10" stroke-dasharray="" stroke-dashoffset="0" style="mix-blend-mode: normal"><path d="M338.15907,122.51764l-0.98558,-6.88754l47.50112,-6.7972l0.98558,6.88754z" fill="#000000" stroke="#000000" stroke-width="2.5" stroke-linecap="butt"/><path d="M283.56385,134.60977c-28.64767,-3.45474 -12.7355,-20.11729 -12.7355,-20.11729l74.49744,-4.02579l11.66614,15.47509c0,0 -44.7804,12.12273 -73.42807,8.66799z" fill="#ffffff" stroke="#000000" stroke-width="2.5" stroke-linecap="butt"/><path d="M201.54536,304.39159c0,0 -0.63536,-94.38387 -0.79335,-118.01201c-0.05451,-8.15261 8.18688,-36.76129 40.20201,-36.9211c31.60235,-0.15775 39.85672,29.48704 39.84884,36.89673c-0.07659,46.24274 0.65429,117.98648 0.65429,117.98648l-10.49667,0.09614l-0.15882,-114.84311c0,0 0.07549,-3.0993 -2.81625,-3.15415c-3.43441,-0.06514 -2.94538,3.11562 -2.94538,3.11562l0.20548,114.86995l-48.21366,0.07222l-0.30539,-115.23309c0,0 0.27949,-2.919 -2.8856,-2.93443c-3.11083,-0.01515 -2.81569,2.90899 -2.81569,2.90899l0.35311,115.0668z" fill="#000000" stroke="#000000" stroke-width="2" stroke-linecap="butt"/><path d="M256.14252,200.33377c-0.57113,0 -1.03411,-0.46299 -1.03411,-1.03411c0,-0.57113 0.46299,-1.03413 1.03411,-1.03413c0.57113,0 1.03411,0.463 1.03411,1.03413c0,0.57113 -0.46299,1.03411 -1.03411,1.03411z" fill="#000000" stroke="none" stroke-width="1.5" stroke-linecap="butt"/><path d="M250.88266,204.56936c-4.4635,-0.31439 -6.55245,-1.79392 -6.16985,-2.58011c0.11788,-0.24224 2.84645,1.06355 6.97038,1.3048c6.40897,0.37493 8.51033,-0.63173 8.51033,-0.63173v1.34616c0,0 -2.4135,1.04672 -9.31086,0.56089z" fill="#000000" stroke="#000000" stroke-width="0" stroke-linecap="butt"/><path d="M223.06989,199.29966c0,-0.57113 0.46299,-1.03413 1.03411,-1.03413c0.57113,0 1.03413,0.463 1.03413,1.03413c0,0.57113 -0.463,1.03411 -1.03413,1.03411c-0.57113,0 -1.03411,-0.46299 -1.03411,-1.03411z" fill="#000000" stroke="none" stroke-width="1.5" stroke-linecap="butt"/><path d="M229.36387,204.56936c-6.89736,0.48585 -9.31086,-0.56089 -9.31086,-0.56089v-1.34616c0,0 2.10136,1.00666 8.51033,0.63173c4.12393,-0.24126 6.85251,-1.54704 6.97039,-1.3048c0.3826,0.78618 -1.70634,2.26571 -6.16985,2.58011z" fill="#000000" stroke="#000000" stroke-width="0" stroke-linecap="butt"/><path d="M240.64437,261.12113c-0.81895,0 -1.48284,-0.66389 -1.48284,-1.48284c0,-0.81895 0.66389,-1.48284 1.48284,-1.48284c0.81895,0 1.48284,0.66389 1.48284,1.48284c0,0.81895 -0.66389,1.48284 -1.48284,1.48284z" data-paper-data="{&quot;index&quot;:null}" fill="#000000" stroke="none" stroke-width="1.5" stroke-linecap="butt"/><path d="M216.58108,304.40602v-119.20147c0,0 0.75721,-9.73105 0.75721,-14.63937c0,-4.498 -0.75721,-13.6872 -0.75721,-13.6872c0,0 2.67319,-2.35297 4.6557,-3.74807c1.98251,-1.3951 5.17197,-2.80371 5.17197,-2.80371c0,0 -0.6016,40.10902 14.55952,40.03867c15.43477,-0.07162 13.83154,-40.03867 13.83154,-40.03867c0,0 3.91276,1.51959 6.16585,2.94655c2.25309,1.42695 4.75379,3.60523 4.75379,3.60523c0,0 -0.75721,9.42463 -0.75721,14.19201c0,4.84193 0.75721,14.63937 0.75721,14.63937v118.69667z" fill="#ffffff" stroke="#000000" stroke-width="2" stroke-linecap="butt"/><path d="M216.30409,102.45902c0,0 7.81914,-3.45192 8.2363,-4.2213c1.0941,-2.01791 13.60583,-37.79938 48.0343,-26.73514c42.24797,14.4342 24.54316,46.57603 24.56294,53.86555c0.02713,9.99503 -0.1773,18.45639 -0.1773,18.45639c0,0 -1.89615,-2.87727 -2.75909,-4.34202c-0.80486,-1.36616 -2.49359,-4.25784 -2.49359,-4.25784c0,0 -0.64125,10.78086 -5.85857,19.89165c-4.71596,8.37195 -12.75764,13.6827 -12.75764,13.6827l-0.2811,-2.60107c0,0 -1.71379,1.71456 -3.17113,2.39101c-1.45735,0.67644 -4.22853,1.55833 -4.22853,1.55833l1.18259,-3.51157c0,0 -10.4076,7.93234 -26.60159,1.871c-15.23188,-5.82657 -20.83632,-18.96131 -20.83632,-18.96131l-1.01872,2.45436c0,0 -2.53095,-4.42784 -2.48152,-11.23782c0.05892,-8.1167 1.15116,-12.61213 1.15116,-12.61213c0,0 -2.84818,0.98285 -6.32156,0.64782c-4.35236,-0.41981 -6.64453,-2.05558 -6.64453,-2.05558c0,0 4.32051,-1.31663 6.8802,-2.56814c2.27997,-1.11474 3.64345,-2.26611 3.64345,-2.26611c0,0 -2.35165,0.29699 -4.53092,0.06987c-2.27382,-0.23696 -3.96808,-0.88192 -3.96808,-0.88192c0,0 6.39963,-3.02801 10.3308,-7.80743c3.71166,-4.51255 5.72665,-9.57481 5.72665,-9.57481c0,0 -1.50592,0.15508 -3.40101,-0.3939c-1.20124,-0.34798 -2.21719,-0.8606 -2.21719,-0.8606z" fill="#000000" stroke="none" stroke-width="1.5" stroke-linecap="butt"/><path d="M228.19529,118.84635c1.95652,-7.04956 6.1919,-16.00153 6.1919,-16.00153c0,0 3.21831,1.12973 14.14943,1.81312c8.39798,0.525 22.55414,-1.87349 22.55414,-1.87349c0,0 -3.05886,2.08313 -4.72963,3.0227c-1.77622,0.99887 -5.31456,2.91884 -5.31456,2.91884c0,0 7.93497,1.11863 15.40692,0.58452c9.26117,-0.38622 12.02527,-2.05773 13.74014,0.1221c2.02396,2.57274 -6.97473,22.13259 -9.17163,27.2474c-2.3384,5.18167 -5.63458,8.05687 -7.24922,10.68349c-1.61464,2.62662 -2.48723,5.6249 -7.56794,14.31313c-3.17071,5.42206 -6.96757,6.95869 -14.43588,10.34086c-7.46831,3.38218 -11.67587,5.59093 -15.41966,4.29909c-3.60289,-1.24321 -6.64753,-7.85292 -9.535,-14.52841c-3.07468,-7.10833 -5.4335,-11.00466 -3.94061,-17.55206c1.3445,-5.89662 2.66515,-9.57491 4.16941,-14.71015c1.09942,-3.75321 0.08374,-6.82968 1.15222,-10.67958z" fill="#000000" stroke="#000000" stroke-width="1.5" stroke-linecap="butt"/><path d="M278.5364,121.10998c0,0 1.32307,0.82105 3.61785,2.50114c2.09602,1.53458 3.58257,3.16284 3.58257,3.16284l-0.21767,1.16636c0,0 -5.73855,-5.42429 -13.35456,-7.49979c-6.08959,-1.6595 -10.32376,-0.77122 -10.32376,-0.77122l1.47397,-3.90838c0,0 3.52207,-0.52959 8.02348,0.95084c4.66117,1.53298 7.39862,3.32741 7.39862,3.32741z" data-paper-data="{&quot;index&quot;:null}" fill="#000000" stroke="none" stroke-width="1.5" stroke-linecap="butt"/><path d="M262.41962,160.98936c0.4633,0.39446 2.41751,2.37117 4.76994,4.50255c2.37117,2.14836 5.99149,4.62558 5.91576,4.77632c-0.09612,0.1913 -9.88101,-3.36177 -13.06811,-4.09261c-2.67083,-0.61246 -6.52563,-1.62862 -6.52563,-1.62862c0,0 -6.27608,-3.52524 -11.63138,-6.84437c-4.29209,-2.66016 -9.20084,-5.12338 -9.17881,-5.2149c0.02969,-0.12343 3.87773,0.65761 6.88899,1.02771c1.24664,-0.07398 5.61931,0.46841 5.61931,0.46841c0,0 4.75105,1.43703 6.94944,3.15057c2.35555,1.83605 1.826,3.26899 2.05061,3.37591c0,0 1.712,-1.23769 2.94654,-1.16566c1.23454,0.07204 4.91725,1.35004 5.26334,1.64469z" fill="#000000" stroke="#000000" stroke-width="1.4" stroke-linecap="butt"/><path d="M243.34011,158.87851c4.43126,2.70884 10.23451,6.72045 10.23451,6.72045c0,0 5.9724,0.5219 8.56405,1.17051c2.00924,0.50284 10.77927,3.17885 10.69314,3.54422c-0.08421,0.35724 -12.90431,9.0255 -24.13263,4.44846c-12.78691,-5.12689 -16.29534,-22.05306 -16.20185,-22.19899c0.09349,-0.14593 6.41152,3.60652 10.84278,6.31537z" fill="#000000" stroke="#000000" stroke-width="1.9" stroke-linecap="butt"/><path d="M257.76764,128.92101c0,0 -1.26366,3.76466 -2.43619,6.69729c-2.32179,5.80712 -10.52691,25.71012 -10.52691,25.71012l-2.80418,-1.01341c0,0 0.67525,-4.1953 2.19941,-9.30968c2.06309,-6.92277 5.1598,-15.46115 6.00884,-18.70571c0.80481,-3.07553 1.1161,-5.67564 1.1161,-5.67564" fill="#000000" stroke="#000000" stroke-width="1.3" stroke-linecap="round"/><path d="M226.32386,128.93923c0,0 -3.42867,-4.99395 -2.71625,-10.54372c0.74961,-5.83942 1.96173,-9.64438 3.87433,-9.22273c1.91261,0.42163 1.72527,3.1592 0.64404,9.12881c-1.08124,5.96961 -1.80212,10.63765 -1.80212,10.63765z" data-paper-data="{&quot;index&quot;:null}" fill="#000000" stroke="#000000" stroke-width="1" stroke-linecap="butt"/><path d="M227.48594,125.16115c0,0 -2.34661,-3.96744 -1.16163,-9.4186c0.66101,-3.04084 2.80741,-1.40326 2.80741,-1.40326" fill="none" stroke="#000000" stroke-width="0.25" stroke-linecap="round"/><path d="M230.71695,119.94047c1.74261,-4.57152 7.60705,-6.73765 12.62822,-4.82366c5.02116,1.914 7.0254,7.08404 5.2828,11.65558c-1.74261,4.57152 -6.88695,6.84943 -11.90812,4.93544c-5.02116,-1.914 -7.74552,-7.19582 -6.00291,-11.76736z" fill="#d89116" stroke="#000000" stroke-width="1.4" stroke-linecap="butt"/><path d="M258.01589,129.2107c1.86591,-4.52261 7.2181,-6.79687 12.21411,-4.97497c4.996,1.8219 7.35445,6.90352 5.6783,11.49984c-1.67615,4.59631 -6.75844,7.19076 -12.24465,5.26549c-5.21839,-1.83127 -7.59642,-7.06718 -5.64776,-11.79037z" fill="#ffffff" stroke="#000000" stroke-width="1.4" stroke-linecap="butt"/><path d="M239.46161,111.22063c0,0 3.7889,-0.55447 8.32806,0.60825c5.02997,1.28843 7.32081,2.59915 7.32081,2.59915l-1.14029,3.98817c0,0 -3.37022,-1.95352 -7.35417,-3.23656c-5.32803,-1.71591 -6.73366,-0.93034 -10.88614,-1.95686c-3.55807,-0.87958 -6.38391,-2.15897 -6.38391,-2.15897l0.39761,-1.16589c0,0 3.35225,1.30122 4.94039,1.72886c1.3108,0.35295 4.05648,0.48078 4.05648,0.48078z" fill="#000000" stroke="none" stroke-width="1.5" stroke-linecap="butt"/><path d="M280.91028,137.55056c3.01544,-5.26426 4.63435,-7.47976 6.3694,-6.5712c1.73504,0.90855 0.21323,4.60057 -2.97219,9.55172c-3.02741,4.70555 -8.86598,6.31999 -8.86598,6.31999c0,0 2.45334,-4.03625 5.46878,-9.30052z" data-paper-data="{&quot;index&quot;:null}" fill="#000000" stroke="#000000" stroke-width="1" stroke-linecap="butt"/><path d="M282.69125,133.87098c0,0 2.6967,0.12856 1.24504,2.88107c-2.6023,4.9343 -6.95203,6.45977 -6.95203,6.45977" data-paper-data="{&quot;index&quot;:null}" fill="none" stroke="#000000" stroke-width="0.25" stroke-linecap="round"/><g stroke="#000000" stroke-width="2.5"><path d="M199.76552,213.26278v-24.83179h89.36169v24.83179z" fill="#ffffff" stroke-linecap="butt"/><path d="M236.40701,213.05491l-4.19337,-24.33938" fill="none" stroke-linecap="round"/><path d="M269.75892,213.73839l-4.19337,-24.33938" fill="none" stroke-linecap="round"/><path d="M254.88738,213.94703l-4.19337,-24.33938" fill="none" stroke-linecap="round"/><path d="M219.98098,188.66038l4.19337,24.33938" fill="none" stroke-linecap="round"/><path d="M209.77271,188.65799l8.35057,24.33938" fill="none" stroke-linecap="round"/><path d="M283.51779,213.12048l-4.19337,-24.33938" fill="none" stroke-linecap="round"/></g><g stroke="#000000" stroke-width="2.5"><path d="M195.12075,253.50097v-24.83178h89.36169v24.83178z" fill="#ffffff" stroke-linecap="butt"/><path d="M227.56893,228.95372l4.19338,24.33937" fill="none" stroke-linecap="round"/><path d="M260.9208,229.63719l4.19338,24.33938" fill="none" stroke-linecap="round"/><path d="M246.04924,229.84584l4.19338,24.33938" fill="none" stroke-linecap="round"/><path d="M215.33628,228.89857l4.19338,24.33938" fill="none" stroke-linecap="round"/><path d="M205.12799,228.89618l8.35057,24.33937" fill="none" stroke-linecap="round"/><path d="M278.87303,253.35866l-4.19338,-24.33938" fill="none" stroke-linecap="round"/></g><g stroke="#000000" stroke-width="2.5"><path d="M196.38096,290.48348v-24.83179h89.36169v24.83179z" fill="#ffffff" stroke-linecap="butt"/><path d="M228.82911,265.93624l4.19338,24.33938" fill="none" stroke-linecap="round"/><path d="M266.37438,290.95909l-4.19338,-24.33938" fill="none" stroke-linecap="round"/><path d="M251.5028,291.16773l-4.19338,-24.33938" fill="none" stroke-linecap="round"/><path d="M216.59647,265.88109l4.19338,24.33938" fill="none" stroke-linecap="round"/><path d="M214.73876,290.21807l-8.35057,-24.33937" fill="none" stroke-linecap="round"/><path d="M280.13323,290.34118l-4.19338,-24.33938" fill="none" stroke-linecap="round"/></g></g></g></svg>