<svg version="1.1" xmlns="http://www.w3.org/2000/svg" xmlns:xlink="http://www.w3.org/1999/xlink" width="109.17776" height="252.98542" viewBox="0,0,109.17776,252.98542"><defs><linearGradient x1="236.2226" y1="100.27439" x2="239.43255" y2="167.78706" gradientUnits="userSpaceOnUse" id="color-1"><stop offset="0" stop-color="#000000"/><stop offset="1" stop-color="#000000" stop-opacity="0"/></linearGradient></defs><g transform="translate(-183.95204,-52.51461)"><g data-paper-data="{&quot;isPaintingLayer&quot;:true}" fill-rule="nonzero" stroke-linejoin="miter" stroke-miterlimit="10" stroke-dasharray="" stroke-dashoffset="0" style="mix-blend-mode: normal"><g fill="#000000" stroke="none" stroke-linecap="butt"><path d="M288.39093,133.69208c0,0 -1.22775,0.19205 -2.59437,0.1723c-2.156,-0.03114 -3.6744,-0.62133 -3.6744,-0.62133c0,0 0.43198,5.43184 2.81337,10.83592c2.52225,5.72369 8.19427,10.49697 8.19427,10.49697c0,0 -1.97831,0.11955 -4.42622,-0.32108c-2.34611,-0.42231 -4.69918,-1.39634 -4.69918,-1.39634c0,0 -1.38467,4.91076 0.62424,6.64571c2.25537,1.9478 6.56965,14.58134 6.56965,14.58134c0,0 -3.62041,-8.72333 -8.29486,-9.59904c-3.73041,-0.69886 -3.50144,-6.37604 -3.50144,-6.37604c0,0 -0.34296,4.61908 -2.95615,12.39762c-2.19248,6.52626 -6.28934,10.01754 -6.28934,10.01754l-0.25297,-2.64582c0,0 -10.16916,10.91501 -27.96406,12.01684c-18.87498,1.04401 -27.10814,-9.59493 -27.10814,-9.59493l0.0754,3.70481c0,0 -2.59758,-1.65644 -3.89356,-2.73089c-1.29595,-1.07447 -2.51713,-3.21683 -2.51713,-3.21683c0,0 -0.87173,-12.30615 -3.97256,-11.97004c-3.3131,0.35913 -15.31147,14.06037 -15.31147,14.06037c0,0 0.97144,-10.85844 4.52798,-18.87204c3.90793,-8.80537 5.26714,-18.38036 5.26714,-18.38036c0,0 -2.7129,2.26952 -4.00191,3.33967c-1.38203,1.14739 -4.30633,3.34226 -4.30633,3.34226c0,0 2.57511,-8.15082 5.8969,-17.70019c2.42263,-6.96449 -5.43839,-42.89404 43.34953,-44.29906c39.52783,-0.47716 40.7772,37.40879 41.25256,39.65939c0.18125,0.85811 7.19302,6.45327 7.19302,6.45327z" data-paper-data="{&quot;index&quot;:null}" stroke-width="1.5"/><path d="M190.94341,113.53401c0,0 6.22674,-6.22461 6.32112,-7.09582c0.11908,-1.09927 -0.359,-10.42632 3.35392,-20.16791c1.05376,-2.76476 5.04444,-6.5122 5.02559,-9.99042c-0.03504,-6.46784 -4.93242,-12.43274 -4.93242,-12.43274c0,0 27.66399,-0.32876 32.55781,-0.74161c3.11597,-0.20868 -9.82702,-10.5909 -9.82702,-10.5909c0,0 26.86769,9.30754 29.73962,9.95973c27.6347,6.27545 23.42251,35.01477 25.94473,40.6888c4.08826,9.19705 7.32735,17.07143 7.32735,17.07143c0,0 -3.01943,-1.91226 -4.4567,-2.92561c-1.34053,-0.94513 -4.16344,-2.95145 -4.16344,-2.95145c0,0 3.75544,10.18124 2.3671,20.60581c-1.1994,9.54872 -6.8879,17.57238 -6.8879,17.57238l-1.33131,-2.2867c0,0 -0.97547,2.2468 -2.12257,3.43742c-1.14712,1.19061 -3.49272,3.08208 -3.49272,3.08208l-0.27312,-3.6954c0,0 -6.93168,11.35997 -25.19623,12.0818c-17.23035,0.56348 -28.03663,-9.35421 -28.03663,-9.35421l0.00339,2.65767c0,0 -4.26897,-3.0935 -6.9882,-9.38624c-3.24099,-7.50021 -4.00211,-12.06679 -4.00211,-12.06679c0,0 -2.3797,2.01445 -5.90501,3.0583c-4.41743,1.308 -7.31876,0.69362 -7.31876,0.69362c0,0 3.68068,-2.89524 5.66973,-5.04485c1.77167,-1.9147 2.6342,-3.50628 2.6342,-3.50628c0,0 -2.17393,1.1893 -4.39266,1.82863c-2.31498,0.6671 -4.23024,0.73265 -4.23024,0.73265c0,0 5.01392,-5.28137 6.9075,-11.21501c1.78785,-5.6023 1.69676,-11.05036 1.69676,-11.05036c0,0 -1.40639,0.72924 -3.47862,0.96141c-1.31354,0.14718 -2.51317,0.07054 -2.51317,0.07054z" stroke-width="1.5"/><path d="M209.6311,223.99037c0,0 0.87534,-4.81602 -1.32045,-10.13947c-2.33842,-5.66924 -7.77823,-11.97401 -8.52086,-15.68718c-0.90304,-4.51524 2.03317,-13.21436 2.03317,-13.21436c0,0 3.03622,-10.58482 2.3154,-21.39746c-0.78543,-11.78179 -10.87485,-20.4596 2.36178,-22.46599c2.8479,-0.43167 6.62757,6.42758 10.65505,11.05757c4.21903,4.85019 8.62379,7.49213 8.62379,7.49213c0,0 -3.16602,1.05967 -1.86999,6.24559c4.5311,18.13067 14.59873,41.83304 14.59873,41.83304c0,0 -11.90138,-16.73661 -11.03302,-8.17627c0.96916,9.55412 8.89247,35.52096 8.89247,35.52096c0,0 -12.90426,-16.84632 -18.84571,-26.49062c-2.00786,-3.25923 -3.63649,-9.66436 -3.63649,-9.66436z" stroke-width="0"/><path d="M273.3112,194.4099c0,0 -1.01356,6.53077 -2.70315,9.9658c-4.99961,10.16451 -1.83568,36.48411 -1.83568,36.48411c0,0 -8.98776,-34.9264 -8.92943,-44.52938c0.05225,-8.6041 -5.49913,16.97134 -5.49913,16.97134c0,0 3.06501,-32.33581 5.85547,-50.8146c0.79816,-5.28549 -2.45414,-6.03999 -2.45414,-6.03999c0,0 4.13426,-3.04794 7.87405,-8.27653c3.57002,-4.99123 6.68186,-12.17815 9.55787,-12.01861c13.36728,0.7415 4.14671,10.3374 4.48266,22.14057c0.30831,10.83226 4.33509,21.08127 4.33509,21.08127c0,0 3.74831,8.38131 3.27774,12.96185c-0.38698,3.76687 -5.20407,10.55932 -6.99406,16.42484c-1.6808,5.50778 -3.87305,20.39772 -3.87305,20.39772z" data-paper-data="{&quot;index&quot;:null}" stroke-width="0"/></g><g><g><path d="M201.54541,304.39162c0,0 -0.63536,-94.38387 -0.79335,-118.01201c-0.05451,-8.15261 8.18688,-36.76129 40.20201,-36.9211c31.60235,-0.15775 39.85672,29.48704 39.84884,36.89673c-0.07659,46.24274 0.65429,117.98648 0.65429,117.98648l-10.49667,0.09614l-0.15882,-114.84311c0,0 0.07549,-3.0993 -2.81625,-3.15415c-3.43441,-0.06514 -2.94538,3.11562 -2.94538,3.11562c0,0 -4.95003,28.26622 -4.9205,44.77862c0.03718,20.78547 5.12598,70.09133 5.12598,70.09133l-48.21366,0.07222c0,0 4.21363,-44.83321 4.15975,-65.16568c-0.04695,-17.71739 -4.46514,-50.06741 -4.46514,-50.06741c0,0 0.27949,-2.919 -2.8856,-2.93443c-3.11083,-0.01515 -2.81569,2.90899 -2.81569,2.90899l0.35311,115.0668z" fill="#ffffff" stroke="#000000" stroke-width="2" stroke-linecap="butt"/><path d="M256.14252,200.33382c-0.57113,0 -1.03411,-0.46299 -1.03411,-1.03411c0,-0.57113 0.46299,-1.03413 1.03411,-1.03413c0.57113,0 1.03411,0.463 1.03411,1.03413c0,0.57113 -0.46299,1.03411 -1.03411,1.03411z" fill="#000000" stroke="none" stroke-width="1.5" stroke-linecap="butt"/><path d="M250.88271,204.56943c-4.4635,-0.31439 -6.55245,-1.79392 -6.16985,-2.58011c0.11788,-0.24224 2.84645,1.06355 6.97038,1.3048c6.40897,0.37493 8.51033,-0.63173 8.51033,-0.63173v1.34616c0,0 -2.4135,1.04672 -9.31086,0.56089z" fill="#000000" stroke="#000000" stroke-width="0" stroke-linecap="butt"/><path d="M223.06995,199.29973c0,-0.57113 0.46299,-1.03413 1.03411,-1.03413c0.57113,0 1.03413,0.463 1.03413,1.03413c0,0.57113 -0.463,1.03411 -1.03413,1.03411c-0.57113,0 -1.03411,-0.46299 -1.03411,-1.03411z" fill="#000000" stroke="none" stroke-width="1.5" stroke-linecap="butt"/><path d="M229.36395,204.56943c-6.89736,0.48585 -9.31086,-0.56089 -9.31086,-0.56089v-1.34616c0,0 2.10136,1.00666 8.51033,0.63173c4.12393,-0.24126 6.85251,-1.54704 6.97039,-1.3048c0.3826,0.78618 -1.70634,2.26571 -6.16985,2.58011z" fill="#000000" stroke="#000000" stroke-width="0" stroke-linecap="butt"/><path d="M240.64441,261.12113c-0.81895,0 -1.48284,-0.66389 -1.48284,-1.48284c0,-0.81895 0.66389,-1.48284 1.48284,-1.48284c0.81895,0 1.48284,0.66389 1.48284,1.48284c0,0.81895 -0.66389,1.48284 -1.48284,1.48284z" data-paper-data="{&quot;index&quot;:null}" fill="#000000" stroke="none" stroke-width="1.5" stroke-linecap="butt"/><g fill="#ffffff" stroke="#000000" stroke-width="2" stroke-linecap="round"><path d="M240.52124,202.18259c0.14273,5.60368 -2.57383,7.93839 -3.89249,9.02343c-5.12117,4.21387 -15.18067,3.25512 -17.60285,2.04502c-4.96567,-2.48081 -8.40378,-10.51264 -8.69751,-13.75788c-0.29521,-3.2616 0.55028,-8.14011 2.54293,-10.94893c2.55122,-3.59616 5.94201,-5.23391 5.94201,-5.23391"/><path d="M264.10866,183.81032c0,0 3.568,1.68802 5.59914,5.45989c1.4764,2.74171 1.66914,7.09237 1.38579,10.22295c-0.29373,3.24525 -3.73185,11.27706 -8.69752,13.75787c-2.42218,1.2101 -12.48168,2.16885 -17.60284,-2.04502c-1.31866,-1.08504 -4.49677,-3.65052 -4.35404,-9.2542" data-paper-data="{&quot;index&quot;:null}"/></g></g><g fill="#ff0000" stroke="none" stroke-width="0" stroke-linecap="butt"><path d="M242.78931,225.87056c-5.33481,19.80043 -12.8084,55.08219 -15.54163,53.35977c-2.73323,-1.72242 0.30891,-39.79677 5.64372,-59.59721c5.33481,-19.80043 6.19209,-14.11615 8.92532,-12.39373c2.73323,1.72242 6.3074,-1.16927 0.97259,18.63117z"/><path d="M245.69893,224.8722c-0.89199,21.37201 -1.1153,60.80478 -4.06547,60.5168c-2.95017,-0.28799 -7.51003,-40.1877 -6.61805,-61.5597c0.89199,-21.37201 2.89805,-16.4104 5.84822,-16.12241c2.95017,0.28799 5.72728,-4.20669 4.8353,17.16532z"/><path d="M238.13101,226.07155c-9.77267,15.33764 -18.13852,45.16132 -20.25572,42.00607c-1.46252,-2.1796 -5.18318,-53.57253 -2.16132,-58.31516c9.77267,-15.33764 23.9341,-4.69105 26.0513,-1.5358c2.1172,3.15525 6.13841,2.50726 -3.63426,17.8449z"/><path d="M248.72789,219.65453c5.38578,19.76813 7.4285,58.30341 4.69972,60.04229c-2.72877,1.73888 -9.19571,-33.97713 -14.58149,-53.74525c-5.38578,-19.76813 -2.15093,-16.67705 0.57785,-18.41593c2.72878,-1.73888 3.91814,-7.64923 9.30392,12.1189z"/><path d="M267.13779,207.88454c3.48796,4.65245 -1.83417,53.89524 -3.13503,56.17631c-1.94308,3.40722 -11.34842,-26.02739 -21.90149,-40.1037c-10.55307,-14.07631 -6.75764,-13.49577 -4.81456,-16.90299c1.94308,-3.40722 19.29801,-13.24594 29.85108,0.83038z"/></g><g stroke="none" stroke-width="0" stroke-linecap="butt"><g><g fill="#da7f7f"><path d="M202.75746,220.78121c-0.91601,4.78728 -2.97391,8.19854 -4.59646,7.61927c-1.62255,-0.57927 -2.19532,-4.92971 -1.27932,-9.71699c0.91601,-4.78728 2.97392,-8.19854 4.59646,-7.61927c1.62255,0.57927 2.19532,4.92971 1.27931,9.71699z"/><path d="M211.0361,211.06421c1.62255,-0.57927 3.68045,2.832 4.59645,7.61927c0.91601,4.78727 0.34323,9.13772 -1.27931,9.71699c-1.62255,0.57927 -3.68045,-2.832 -4.59646,-7.61927c-0.91601,-4.78727 -0.34323,-9.13772 1.27932,-9.71699z" data-paper-data="{&quot;index&quot;:null}"/><path d="M207.46893,221.69171c-0.38297,4.86598 -2.05167,8.50305 -3.72716,8.1236c-1.67549,-0.37945 -2.72329,-4.6317 -2.34032,-9.49768c0.38297,-4.86598 2.05168,-8.50305 3.72717,-8.1236c1.67549,0.37945 2.72328,4.6317 2.34031,9.49768z"/><path d="M208.11443,213.21192c1.67549,-0.37944 3.34419,3.25761 3.72716,8.12359c0.38297,4.86598 -0.66482,9.11824 -2.34031,9.49768c-1.67549,0.37944 -3.34419,-3.25762 -3.72717,-8.1236c-0.38297,-4.86598 0.66483,-9.11823 2.34032,-9.49767z" data-paper-data="{&quot;index&quot;:null}"/></g><path d="M197.47142,215.23541c0,0 1.57143,-4.9375 1.57143,-8.21173c0,-4.4673 0,-15.84359 0,-15.84359h14.75c0,0 0,12.09897 0,16.59181c0,3.07315 1.42857,7.61315 1.42857,7.61315z" fill="#a10000"/></g><g><g fill="#da7f7f"><path d="M271.6146,222.27764c-0.916,4.78728 -2.97391,8.19854 -4.59646,7.61927c-1.62255,-0.57927 -2.19532,-4.9297 -1.27932,-9.71698c0.916,-4.78728 2.97391,-8.19855 4.59646,-7.61928c1.62255,0.57927 2.19532,4.92971 1.27931,9.71699z"/><path d="M279.89323,212.56066c1.62255,-0.57927 3.68045,2.832 4.59645,7.61928c0.916,4.78727 0.34323,9.13771 -1.27931,9.71698c-1.62255,0.57927 -3.68045,-2.832 -4.59646,-7.61928c-0.916,-4.78727 -0.34323,-9.13771 1.27932,-9.71698z" data-paper-data="{&quot;index&quot;:null}"/><path d="M276.32606,223.18817c-0.38297,4.86598 -2.05167,8.50304 -3.72717,8.12359c-1.67549,-0.37945 -2.72328,-4.63169 -2.34031,-9.49767c0.38297,-4.86598 2.05167,-8.50305 3.72717,-8.1236c1.67549,0.37945 2.72328,4.6317 2.34031,9.49768z"/><path d="M276.9715,214.70834c1.67549,-0.37944 3.34419,3.25761 3.72717,8.12359c0.38297,4.86598 -0.66483,9.11824 -2.34032,9.49768c-1.67549,0.37944 -3.34419,-3.25761 -3.72717,-8.12359c-0.38297,-4.86598 0.66483,-9.11824 2.34032,-9.49768z" data-paper-data="{&quot;index&quot;:null}"/></g><path d="M266.32849,216.73186c0,0 1.57143,-4.9375 1.57143,-8.21173c0,-4.4673 0,-15.84359 0,-15.84359h14.75c0,0 0,12.09897 0,16.59181c0,3.07315 1.42857,7.61316 1.42857,7.61316z" fill="#a10000"/></g><path d="M199.15356,191.35849c0,0 1.82462,-20.19547 8.16591,-26.67681c3.91163,-3.99802 9.99521,-9.81164 17.97915,-13.16665c6.84618,-2.87689 15.34066,-1.51823 15.34066,-1.51823c0,0 18.7832,-0.65754 27.84739,8.105c9.79289,9.467 14.03833,34.78306 14.03833,34.78306c0,0 -27.153,11.32479 -40.91793,11.07278c-14.02084,-0.2567 -42.45349,-12.59914 -42.45349,-12.59914z" fill="#a10000"/></g><path d="M275.96673,158.16445c0,0 -3.13344,41.76527 -35.50957,43.63031c-27.40913,1.57891 -36.42376,-43.09698 -36.42376,-43.09698" fill="none" stroke="#000000" stroke-width="3" stroke-linecap="round"/><g stroke="#000000" stroke-width="0" stroke-linecap="butt"><path d="M274.7333,191.62506c0,5.5819 1.16156,15.61828 -6.08097,20.14541c-5.92482,3.70346 -47.78418,5.0292 -53.35521,2.04346c-8.51944,-4.5659 -7.06381,-15.80301 -7.06381,-21.93887c0,-5.75268 4.52516,-12.95155 12.50273,-12.91087c2.09459,0.01068 8.53711,-0.38952 11.4975,1.04964c5.65479,2.74901 9.62476,7.73623 9.62476,7.73623c0,0 3.67869,-4.49312 8.96296,-7.08089c4.01934,-1.96832 9.4944,-2.20212 11.91276,-2.20589c7.13139,-0.01112 11.99928,7.47635 11.99928,13.16178z" fill="#cc1414"/><path d="M269.7333,180.95841c4.5951,2.30887 5.92555,12.23618 4.79782,19.9632c-0.80495,5.51542 -2.86231,10.29668 -5.8788,12.18221c-5.92482,3.70346 -48.03418,3.6542 -53.60521,0.66846c-0.21961,-0.1177 17.5227,-6.02555 31.64158,-14.47409c13.23313,-7.91852 22.8882,-18.41836 23.04461,-18.33978z" fill="#a10000"/></g></g><path d="M258.85461,103.16497c0,0 1.53768,0.24531 4.30373,0.90691c2.52647,0.60431 4.52716,1.53075 4.52716,1.53075l0.25046,1.15976c0,0 -7.3901,-2.78213 -15.21608,-1.74993c-6.25746,0.82535 -9.81838,3.2824 -9.81838,3.2824l-0.15267,-4.17428c0,0 3.04302,-1.85083 7.76666,-2.22694c4.8913,-0.38946 8.10979,0.20633 8.10979,0.20633z" data-paper-data="{&quot;index&quot;:null}" fill="#000000" stroke="none" stroke-width="1.5" stroke-linecap="butt"/><path d="M218.99629,109.16099c0,0 3.27944,-1.97698 7.91501,-2.66068c5.13679,-0.75764 7.75633,-0.43514 7.75633,-0.43514l0.49125,4.11879c0,0 -3.86353,-0.49772 -8.03366,-0.13975c-5.57702,0.47874 -6.56934,1.7469 -10.79563,2.40662c-3.62132,0.56529 -6.72209,0.47863 -6.72209,0.47863l-0.08435,-1.22894c0,0 3.59463,-0.09684 5.22456,-0.31683c1.34529,-0.18159 3.92666,-1.12584 3.92666,-1.12584z" fill="#000000" stroke="none" stroke-width="1.5" stroke-linecap="butt"/><path d="M183.95204,92.84211c0,0 17.55069,-11.88584 24.3009,-16.45319c7.10701,-4.80877 7.10571,-9.10045 17.32591,-11.7125c10.22022,-2.61205 5.98608,9.97836 5.98608,9.97836c0,0 -5.39366,5.903 -20.90719,11.96237c-4.04304,1.57916 -26.7057,6.22497 -26.7057,6.22497z" fill="#000000" stroke="none" stroke-width="0" stroke-linecap="butt"/><path d="M209.3773,120.37806c-0.72596,-5.70937 -0.65982,-14.16428 -0.57596,-17.03632c0.00381,-0.13091 2.76569,0.62356 5.68658,-0.59235c3.00715,-1.25181 6.41219,-2.37848 7.31159,-2.69133c0.23999,-0.08349 17.97049,-8.07136 17.97049,-8.07136l-4.69947,7.07326c0,0 26.44567,-11.94115 27.56172,-11.32121c2.86161,1.58951 2.4051,23.08296 2.35781,28.6494c-0.15191,5.68284 -2.07924,9.60928 -2.55213,12.65602c-0.47288,3.04674 4.04426,5.95126 2.71999,15.92849c-0.82643,6.22648 -7.89524,9.31013 -13.47379,15.318c-5.57855,6.00788 -8.60412,9.6723 -12.55619,9.92925c-3.80331,0.24731 -9.16778,-4.67006 -14.41278,-9.70889c-5.58505,-5.36555 -9.26747,-8.04608 -10.42357,-14.66126c-0.50457,-2.88712 -0.81278,-5.29168 -1.06465,-7.60849c-0.26787,-2.464 1.54154,-4.59082 1.23264,-7.33135c-0.43805,-3.8863 -4.57831,-6.56835 -5.08229,-10.53186z" fill="#ffffff" stroke="#000000" stroke-width="1.5" stroke-linecap="butt"/><g stroke-linecap="butt"><path d="M237.34918,175.65285c-7.22698,0.57607 -16.14112,-6.88654 -21.36392,-16.75697c-4.59947,-8.69241 -5.95556,-19.77115 -6.10197,-21.60798c-0.31268,-3.92259 11.31824,7.32537 24.90967,6.24197c13.59143,-1.08339 26.24247,-9.63435 26.55515,-5.71176c0,0 0.64035,6.11051 -0.97776,10.62935c-3.88113,10.83877 -13.42891,26.44079 -23.02117,27.20539z" fill="#000000" stroke="#000000" stroke-width="0"/><path d="M256.79773,138.55827c0.00851,0.10676 -2.10384,3.6423 -4.29084,5.79656c-1.54762,1.52445 -3.01045,1.53362 -4.32623,2.79152c-3.30852,3.16301 -4.35987,4.00207 -5.3066,4.49837c-2.0444,1.07174 -4.26502,1.02845 -5.81985,1.15239c-8.36129,0.66649 -15.40562,-6.85147 -15.57019,-8.916c-0.16456,-2.06453 6.36464,-1.00893 14.72594,-1.67541c8.36129,-0.66649 20.42321,-5.71194 20.58778,-3.64741z" fill="#ffffff" stroke="#000000" stroke-width="0.5"/><path d="M249.4505,135.11951c5.24979,-1.00261 13.43181,0.49026 13.42864,0.57735c-0.00335,0.09192 -2.47728,3.45568 -6.41014,5.52417c-5.22078,2.74587 -12.43922,4.40605 -14.26555,4.78354c-2.68343,0.55462 -10.52598,1.63828 -14.92097,0.60087c-2.89083,-0.68236 -5.81124,-2.42915 -8.5913,-3.76787c-4.77675,-2.30023 -7.53866,-7.35525 -7.54598,-7.39271c-0.00389,-0.01989 1.82804,0.58787 4.46832,1.47271c2.43761,0.81691 5.43515,0.25011 8.44229,1.26345c5.34509,1.80116 10.44171,5.09664 10.49107,5.09739c0,0 1.04161,-1.8379 2.19413,-2.28618c0.58034,-0.22573 10.27152,-5.40712 12.70948,-5.87274z" fill="#fefefe" stroke="#000000" stroke-width="1.4"/><path d="M239.92543,172.25539c-1.20159,0.09579 -2.70811,0.04518 -4.33233,-0.13862c-5.14512,-0.58222 -11.47122,-2.50096 -13.02585,-5.33664c-0.21825,-0.3981 2.60615,-4.73311 4.45175,-7.33948c0.10426,-0.14721 3.47655,2.64723 6.38385,3.91162c1.42742,0.62079 2.87912,0.19571 3.51137,0.19086c4.66965,-0.03588 8.41033,-4.43332 9.93723,-4.55503c4.95898,-0.39528 5.8197,3.84445 3.23707,7.67672c-1.91528,2.84203 -6.48552,5.29742 -10.16311,5.59056z" fill="#ffffff" stroke="none" stroke-width="0"/><path d="M262.92281,135.82188c0.01313,0.06553 -0.09519,16.48954 -1.09857,22.81859c-0.37412,2.35974 -0.66051,7.84947 -4.74779,11.37174c-4.52388,3.89851 -13.25527,5.75037 -17.89078,6.25657c-9.02424,0.98542 -18.37844,-1.45344 -19.44176,-2.6505c-1.1172,-1.25771 -2.78216,-6.5329 -4.93656,-12.10008c-3.12914,-8.08601 -4.03343,-25.45098 -4.02874,-25.48412c0.00702,-0.04961 2.89268,14.13027 7.18637,19.78707c3.36449,4.43262 5.66381,8.94157 6.4456,9.69302c0.39383,0.37855 3.15763,2.28195 5.96847,2.64299c2.27004,0.29158 10.82004,1.42508 16.45774,-2.78947c8.84372,-6.61124 16.05695,-29.69088 16.08601,-29.54583z" fill="#ffffff" stroke="#000000" stroke-width="1.9"/></g><path d="M235.20745,144.40992c-1.03251,-0.051 -3.37295,-3.43099 -3.51748,-5.54398c-0.12933,-1.89054 1.50237,-3.75845 3.97093,-3.63651c2.46857,0.12193 4.17277,0.69748 3.81846,4.38224c-0.3007,3.12715 -1.80335,4.9202 -4.27192,4.79827z" fill="#ffffff" stroke="#000000" stroke-width="1.15" stroke-linecap="butt"/><path d="M240.28983,114.53058c0,0 -0.09338,3.96999 -0.34583,7.11824c-0.49989,6.23406 -2.44969,27.67355 -2.44969,27.67355l-2.97847,-0.13846c0,0 -0.5961,-4.20728 -0.6532,-9.54364c-0.07727,-7.22323 0.35485,-16.29555 0.20602,-19.64606c-0.14107,-3.17595 -0.61292,-5.75177 -0.61292,-5.75177" fill="#ffffff" stroke="#000000" stroke-width="1.3" stroke-linecap="round"/><g stroke="none" stroke-width="0" stroke-linecap="butt"><g fill="url(#color-1)"><path d="M208.84212,169.24151l-6.86046,-60.06668c0,0 47.99501,-9.55443 59.33757,-10.09371c4.52278,-0.21505 9.83427,6.80487 9.83427,6.80487l2.86498,60.25666z"/><path d="M208.84212,169.24151l-6.86046,-60.06668c0,0 47.99501,-9.55443 59.33757,-10.09371c4.52277,-0.21504 9.83427,6.80487 9.83427,6.80487l2.86498,60.25666z"/><path d="M208.84212,169.24151l-6.86046,-60.06668c0,0 47.99501,-9.55443 59.33757,-10.09371c4.52277,-0.21504 9.83427,6.80487 9.83427,6.80487l2.86498,60.25666z"/><path d="M208.84212,169.24151l-6.86046,-60.06668c0,0 47.99501,-9.55443 59.33757,-10.09371c4.52277,-0.21504 9.83427,6.80487 9.83427,6.80487l2.86498,60.25666z"/><path d="M208.84212,169.24151l-6.86046,-60.06668c0,0 47.99501,-9.55443 59.33757,-10.09371c4.52277,-0.21504 9.83427,6.80487 9.83427,6.80487l2.86498,60.25666z"/><path d="M208.84212,169.24151l-6.86046,-60.06668c0,0 47.99501,-9.55443 59.33757,-10.09371c4.52277,-0.21504 9.83427,6.80487 9.83427,6.80487l2.86498,60.25666z"/><path d="M208.84212,169.24151l-6.86046,-60.06668c0,0 47.99501,-9.55443 59.33757,-10.09371c4.52277,-0.21504 9.83427,6.80487 9.83427,6.80487l2.86498,60.25666z"/><path d="M208.84212,169.24151l-6.86046,-60.06668c0,0 47.99501,-9.55443 59.33757,-10.09371c4.52277,-0.21504 9.83427,6.80487 9.83427,6.80487l2.86498,60.25666z"/></g><path d="M201.89007,110.23319l5.1262,-25.53917l59.18638,-4.50045l1.19998,25.23839z" fill="#000000"/></g></g></g></svg>