<svg version="1.1" xmlns="http://www.w3.org/2000/svg" xmlns:xlink="http://www.w3.org/1999/xlink" width="111.09891" height="247.65308" viewBox="0,0,111.09891,247.65308"><defs><linearGradient x1="233.13749" y1="105.17293" x2="238.50804" y2="172.54816" gradientUnits="userSpaceOnUse" id="color-1"><stop offset="0" stop-color="#000000"/><stop offset="1" stop-color="#000000" stop-opacity="0"/></linearGradient></defs><g transform="translate(-180.6557,-57.84696)"><g data-paper-data="{&quot;isPaintingLayer&quot;:true}" fill-rule="nonzero" stroke-linejoin="miter" stroke-miterlimit="10" stroke-dasharray="" stroke-dashoffset="0" style="mix-blend-mode: normal"><g fill="#000000" stroke="none" stroke-linecap="butt"><path d="M286.34933,136.90267c0,0 -1.22097,0.23127 -2.58752,0.2553c-2.15589,0.03793 -3.69241,-0.50333 -3.69241,-0.50333c0,0 0.60572,5.41522 3.15897,10.74026c2.70427,5.63997 8.52625,10.22915 8.52625,10.22915c0,0 -1.97347,0.18285 -4.43423,-0.17916c-2.35843,-0.34695 -4.74149,-1.24512 -4.74149,-1.24512c0,0 -1.22668,4.95259 0.83676,6.62231c2.3166,1.87457 7.03328,14.36345 7.03328,14.36345c0,0 -3.89794,-8.6029 -8.59803,-9.32846c-3.75088,-0.57903 -3.70385,-6.26063 -3.70385,-6.26063c0,0 -0.19485,4.62769 -2.55757,12.48594c-1.98234,6.59313 -5.96528,10.21383 -5.96528,10.21383l-0.33758,-2.63636c0,0 -9.81437,11.2351 -27.56485,12.90628c-18.83186,1.64799 -27.40153,-8.72181 -27.40153,-8.72181l0.19402,3.70049c0,0 -2.6493,-1.5724 -3.97903,-2.60479c-1.3297,-1.03241 -2.61886,-3.13456 -2.61886,-3.13456c0,0 -1.26541,-12.27192 -4.35389,-11.83667c-3.2999,0.46506 -14.8533,14.54354 -14.8533,14.54354c0,0 0.62318,-10.88398 3.92124,-19.00738c3.62391,-8.92601 4.67577,-18.53962 4.67577,-18.53962c0,0 -2.63882,2.35524 -3.8929,3.46613c-1.34457,1.19106 -4.19708,3.47847 -4.19708,3.47847c0,0 2.31274,-8.22911 5.32699,-17.87997c2.19833,-7.03851 -6.80937,-42.69786 41.90852,-45.6647c39.49227,-1.74288 41.95438,36.08362 42.50157,38.31784c0.20864,0.85186 7.39601,6.21959 7.39601,6.21959z" data-paper-data="{&quot;index&quot;:null}" stroke-width="1.5"/><path d="M188.3062,119.87591c0,0 6.02419,-6.42084 6.09062,-7.29463c0.08381,-1.10252 -0.69274,-10.40947 2.70628,-20.26498c0.96467,-2.79709 4.83328,-6.67042 4.70305,-10.14625c-0.24217,-6.4634 -5.32808,-12.26839 -5.32808,-12.26839c0,0 27.63927,-1.21459 32.51736,-1.78396c3.10769,-0.30837 -10.16118,-10.27074 -10.16118,-10.27074c0,0 27.152,8.44227 30.04335,9.00214c27.82151,5.38717 24.53192,34.24665 27.23457,39.83699c4.38072,9.0614 7.87034,16.828 7.87034,16.828c0,0 -3.07913,-1.81458 -4.54811,-2.78137c-1.37011,-0.90171 -4.25583,-2.81659 -4.25583,-2.81659c0,0 4.07959,10.05574 3.02583,20.51943c-0.89297,9.58223 -6.32157,17.78397 -6.32157,17.78397l-1.40386,-2.24289c0,0 -0.90301,2.27689 -2.01139,3.50364c-1.1084,1.22674 -3.39222,3.19236 -3.39222,3.19236l-0.39133,-3.68476c0,0 -6.5643,11.57614 -24.79636,12.88257c-17.20346,1.11503 -28.32184,-8.45148 -28.32184,-8.45148l0.08851,2.6562c0,0 -4.36586,-2.95519 -7.28523,-9.15761c-3.47954,-7.39256 -4.38652,-11.93242 -4.38652,-11.93242c0,0 -2.31396,2.08963 -5.80403,3.24585c-4.37327,1.44881 -7.29279,0.92766 -7.29279,0.92766c0,0 3.58607,-3.01164 5.50525,-5.22385c1.70944,-1.97046 2.52055,-3.58885 2.52055,-3.58885c0,0 -2.13473,1.25831 -4.33184,1.96838c-2.29243,0.7409 -4.20461,0.86776 -4.20461,0.86776c0,0 4.8422,-5.43924 6.54477,-11.43048c1.60751,-5.65669 1.34198,-11.09903 1.34198,-11.09903c0,0 -1.38231,0.77391 -3.44604,1.07233c-1.30815,0.18917 -2.50962,0.15099 -2.50962,0.15099z" stroke-width="1.5"/><path d="M210.52191,229.67709c0,0 0.72065,-4.84158 -1.64451,-10.09198c-2.51879,-5.59144 -8.15773,-11.71875 -9.0189,-15.40623c-1.04719,-4.484 1.60891,-13.2727 1.60891,-13.2727c0,0 2.69566,-10.67663 1.62891,-21.46064c-1.16236,-11.75059 -11.52453,-20.10081 1.64105,-22.53011c2.83261,-0.52266 6.83003,6.21202 11.00373,10.71065c4.3722,4.71258 8.85932,7.21209 8.85932,7.21209c0,0 -3.13046,1.16053 -1.669,6.30228c5.10945,17.97625 15.93103,41.34402 15.93103,41.34402c0,0 -12.4313,-16.34686 -11.28922,-7.81872c1.27465,9.51818 10.02554,35.21794 10.02554,35.21794c0,0 -13.43718,-16.42439 -19.68446,-25.87346c-2.11121,-3.19325 -3.94415,-9.54294 -3.94415,-9.54294z" stroke-width="0"/><path d="M273.22195,198.0723c0,0 -0.80388,6.55988 -2.38259,10.04726c-4.6715,10.31942 -0.66626,36.52419 -0.66626,36.52419c0,0 -10.10174,-34.62063 -10.351,-44.22055c-0.22334,-8.60136 -4.95276,17.13876 -4.95276,17.13876c0,0 2.02781,-32.41739 4.22502,-50.97607c0.62847,-5.30834 -2.64632,-5.95829 -2.64632,-5.95829c0,0 4.03452,-3.17878 7.60494,-8.52447c3.40833,-5.10301 6.2884,-12.3859 9.16804,-12.31856c13.38417,0.313 4.47566,10.19929 5.18946,21.98564c0.65508,10.81683 5.00804,20.93161 5.00804,20.93161c0,0 4.01482,8.25696 3.69119,12.85022c-0.26614,3.77733 -4.86322,10.72057 -6.46443,16.64041c-1.50354,5.55879 -3.21778,20.5113 -3.21778,20.5113z" data-paper-data="{&quot;index&quot;:null}" stroke-width="0"/></g><g><g><path d="M201.54541,304.39162c0,0 -0.63536,-94.38387 -0.79335,-118.01201c-0.05451,-8.15261 8.18688,-36.76129 40.20201,-36.9211c31.60235,-0.15775 39.85672,29.48704 39.84884,36.89673c-0.07659,46.24274 0.65429,117.98648 0.65429,117.98648l-10.49667,0.09614l-0.15882,-114.84311c0,0 0.07549,-3.0993 -2.81625,-3.15415c-3.43441,-0.06514 -2.94538,3.11562 -2.94538,3.11562c0,0 -4.95003,28.26622 -4.9205,44.77862c0.03718,20.78547 5.12598,70.09133 5.12598,70.09133l-48.21366,0.07222c0,0 4.21363,-44.83321 4.15975,-65.16568c-0.04695,-17.71739 -4.46514,-50.06741 -4.46514,-50.06741c0,0 0.27949,-2.919 -2.8856,-2.93443c-3.11083,-0.01515 -2.81569,2.90899 -2.81569,2.90899l0.35311,115.0668z" fill="#ffffff" stroke="#000000" stroke-width="2" stroke-linecap="butt"/><path d="M256.14252,200.33382c-0.57113,0 -1.03411,-0.46299 -1.03411,-1.03411c0,-0.57113 0.46299,-1.03413 1.03411,-1.03413c0.57113,0 1.03411,0.463 1.03411,1.03413c0,0.57113 -0.46299,1.03411 -1.03411,1.03411z" fill="#000000" stroke="none" stroke-width="1.5" stroke-linecap="butt"/><path d="M250.88271,204.56943c-4.4635,-0.31439 -6.55245,-1.79392 -6.16985,-2.58011c0.11788,-0.24224 2.84645,1.06355 6.97038,1.3048c6.40897,0.37493 8.51033,-0.63173 8.51033,-0.63173v1.34616c0,0 -2.4135,1.04672 -9.31086,0.56089z" fill="#000000" stroke="#000000" stroke-width="0" stroke-linecap="butt"/><path d="M223.06995,199.29973c0,-0.57113 0.46299,-1.03413 1.03411,-1.03413c0.57113,0 1.03413,0.463 1.03413,1.03413c0,0.57113 -0.463,1.03411 -1.03413,1.03411c-0.57113,0 -1.03411,-0.46299 -1.03411,-1.03411z" fill="#000000" stroke="none" stroke-width="1.5" stroke-linecap="butt"/><path d="M229.36395,204.56943c-6.89736,0.48585 -9.31086,-0.56089 -9.31086,-0.56089v-1.34616c0,0 2.10136,1.00666 8.51033,0.63173c4.12393,-0.24126 6.85251,-1.54704 6.97039,-1.3048c0.3826,0.78618 -1.70634,2.26571 -6.16985,2.58011z" fill="#000000" stroke="#000000" stroke-width="0" stroke-linecap="butt"/><path d="M240.64441,261.12113c-0.81895,0 -1.48284,-0.66389 -1.48284,-1.48284c0,-0.81895 0.66389,-1.48284 1.48284,-1.48284c0.81895,0 1.48284,0.66389 1.48284,1.48284c0,0.81895 -0.66389,1.48284 -1.48284,1.48284z" data-paper-data="{&quot;index&quot;:null}" fill="#000000" stroke="none" stroke-width="1.5" stroke-linecap="butt"/><g fill="#ffffff" stroke="#000000" stroke-width="2" stroke-linecap="round"><path d="M240.52124,202.18259c0.14273,5.60368 -2.57383,7.93839 -3.89249,9.02343c-5.12117,4.21387 -15.18067,3.25512 -17.60285,2.04502c-4.96567,-2.48081 -8.40378,-10.51264 -8.69751,-13.75788c-0.29521,-3.2616 0.55028,-8.14011 2.54293,-10.94893c2.55122,-3.59616 5.94201,-5.23391 5.94201,-5.23391"/><path d="M264.10866,183.81032c0,0 3.568,1.68802 5.59914,5.45989c1.4764,2.74171 1.66914,7.09237 1.38579,10.22295c-0.29373,3.24525 -3.73185,11.27706 -8.69752,13.75787c-2.42218,1.2101 -12.48168,2.16885 -17.60284,-2.04502c-1.31866,-1.08504 -4.49677,-3.65052 -4.35404,-9.2542" data-paper-data="{&quot;index&quot;:null}"/></g></g><g fill="#ff0000" stroke="none" stroke-width="0" stroke-linecap="butt"><path d="M242.78931,225.87056c-5.33481,19.80043 -12.8084,55.08219 -15.54163,53.35977c-2.73323,-1.72242 0.30891,-39.79677 5.64372,-59.59721c5.33481,-19.80043 6.19209,-14.11615 8.92532,-12.39373c2.73323,1.72242 6.3074,-1.16927 0.97259,18.63117z"/><path d="M245.69893,224.8722c-0.89199,21.37201 -1.1153,60.80478 -4.06547,60.5168c-2.95017,-0.28799 -7.51003,-40.1877 -6.61805,-61.5597c0.89199,-21.37201 2.89805,-16.4104 5.84822,-16.12241c2.95017,0.28799 5.72728,-4.20669 4.8353,17.16532z"/><path d="M238.13101,226.07155c-9.77267,15.33764 -18.13852,45.16132 -20.25572,42.00607c-1.46252,-2.1796 -5.18318,-53.57253 -2.16132,-58.31516c9.77267,-15.33764 23.9341,-4.69105 26.0513,-1.5358c2.1172,3.15525 6.13841,2.50726 -3.63426,17.8449z"/><path d="M248.72789,219.65453c5.38578,19.76813 7.4285,58.30341 4.69972,60.04229c-2.72877,1.73888 -9.19571,-33.97713 -14.58149,-53.74525c-5.38578,-19.76813 -2.15093,-16.67705 0.57785,-18.41593c2.72878,-1.73888 3.91814,-7.64923 9.30392,12.1189z"/><path d="M267.13779,207.88454c3.48796,4.65245 -1.83417,53.89524 -3.13503,56.17631c-1.94308,3.40722 -11.34842,-26.02739 -21.90149,-40.1037c-10.55307,-14.07631 -6.75764,-13.49577 -4.81456,-16.90299c1.94308,-3.40722 19.29801,-13.24594 29.85108,0.83038z"/></g><g stroke="none" stroke-width="0" stroke-linecap="butt"><g><g fill="#da7f7f"><path d="M202.75746,220.78121c-0.91601,4.78728 -2.97391,8.19854 -4.59646,7.61927c-1.62255,-0.57927 -2.19532,-4.92971 -1.27932,-9.71699c0.91601,-4.78728 2.97392,-8.19854 4.59646,-7.61927c1.62255,0.57927 2.19532,4.92971 1.27931,9.71699z"/><path d="M211.0361,211.06421c1.62255,-0.57927 3.68045,2.832 4.59645,7.61927c0.91601,4.78727 0.34323,9.13772 -1.27931,9.71699c-1.62255,0.57927 -3.68045,-2.832 -4.59646,-7.61927c-0.91601,-4.78727 -0.34323,-9.13772 1.27932,-9.71699z" data-paper-data="{&quot;index&quot;:null}"/><path d="M207.46893,221.69171c-0.38297,4.86598 -2.05167,8.50305 -3.72716,8.1236c-1.67549,-0.37945 -2.72329,-4.6317 -2.34032,-9.49768c0.38297,-4.86598 2.05168,-8.50305 3.72717,-8.1236c1.67549,0.37945 2.72328,4.6317 2.34031,9.49768z"/><path d="M208.11443,213.21192c1.67549,-0.37944 3.34419,3.25761 3.72716,8.12359c0.38297,4.86598 -0.66482,9.11824 -2.34031,9.49768c-1.67549,0.37944 -3.34419,-3.25762 -3.72717,-8.1236c-0.38297,-4.86598 0.66483,-9.11823 2.34032,-9.49767z" data-paper-data="{&quot;index&quot;:null}"/></g><path d="M197.47142,215.23541c0,0 1.57143,-4.9375 1.57143,-8.21173c0,-4.4673 0,-15.84359 0,-15.84359h14.75c0,0 0,12.09897 0,16.59181c0,3.07315 1.42857,7.61315 1.42857,7.61315z" fill="#a10000"/></g><g><g fill="#da7f7f"><path d="M271.6146,222.27764c-0.916,4.78728 -2.97391,8.19854 -4.59646,7.61927c-1.62255,-0.57927 -2.19532,-4.9297 -1.27932,-9.71698c0.916,-4.78728 2.97391,-8.19855 4.59646,-7.61928c1.62255,0.57927 2.19532,4.92971 1.27931,9.71699z"/><path d="M279.89323,212.56066c1.62255,-0.57927 3.68045,2.832 4.59645,7.61928c0.916,4.78727 0.34323,9.13771 -1.27931,9.71698c-1.62255,0.57927 -3.68045,-2.832 -4.59646,-7.61928c-0.916,-4.78727 -0.34323,-9.13771 1.27932,-9.71698z" data-paper-data="{&quot;index&quot;:null}"/><path d="M276.32606,223.18817c-0.38297,4.86598 -2.05167,8.50304 -3.72717,8.12359c-1.67549,-0.37945 -2.72328,-4.63169 -2.34031,-9.49767c0.38297,-4.86598 2.05167,-8.50305 3.72717,-8.1236c1.67549,0.37945 2.72328,4.6317 2.34031,9.49768z"/><path d="M276.9715,214.70834c1.67549,-0.37944 3.34419,3.25761 3.72717,8.12359c0.38297,4.86598 -0.66483,9.11824 -2.34032,9.49768c-1.67549,0.37944 -3.34419,-3.25761 -3.72717,-8.12359c-0.38297,-4.86598 0.66483,-9.11824 2.34032,-9.49768z" data-paper-data="{&quot;index&quot;:null}"/></g><path d="M266.32849,216.73186c0,0 1.57143,-4.9375 1.57143,-8.21173c0,-4.4673 0,-15.84359 0,-15.84359h14.75c0,0 0,12.09897 0,16.59181c0,3.07315 1.42857,7.61316 1.42857,7.61316z" fill="#a10000"/></g><path d="M199.15356,191.35849c0,0 1.82462,-20.19547 8.16591,-26.67681c3.91163,-3.99802 9.99521,-9.81164 17.97915,-13.16665c6.84618,-2.87689 15.34066,-1.51823 15.34066,-1.51823c0,0 18.7832,-0.65754 27.84739,8.105c9.79289,9.467 14.03833,34.78306 14.03833,34.78306c0,0 -27.153,11.32479 -40.91793,11.07278c-14.02084,-0.2567 -42.45349,-12.59914 -42.45349,-12.59914z" fill="#a10000"/></g><path d="M275.96673,158.16445c0,0 -3.13344,41.76527 -35.50957,43.63031c-27.40913,1.57891 -36.42376,-43.09698 -36.42376,-43.09698" fill="none" stroke="#000000" stroke-width="3" stroke-linecap="round"/><g stroke="#000000" stroke-width="0" stroke-linecap="butt"><path d="M274.7333,191.62506c0,5.5819 1.16156,15.61828 -6.08097,20.14541c-5.92482,3.70346 -47.78418,5.0292 -53.35521,2.04346c-8.51944,-4.5659 -7.06381,-15.80301 -7.06381,-21.93887c0,-5.75268 4.52516,-12.95155 12.50273,-12.91087c2.09459,0.01068 8.53711,-0.38952 11.4975,1.04964c5.65479,2.74901 9.62476,7.73623 9.62476,7.73623c0,0 3.67869,-4.49312 8.96296,-7.08089c4.01934,-1.96832 9.4944,-2.20212 11.91276,-2.20589c7.13139,-0.01112 11.99928,7.47635 11.99928,13.16178z" fill="#cc1414"/><path d="M269.7333,180.95841c4.5951,2.30887 5.92555,12.23618 4.79782,19.9632c-0.80495,5.51542 -2.86231,10.29668 -5.8788,12.18221c-5.92482,3.70346 -48.03418,3.6542 -53.60521,0.66846c-0.21961,-0.1177 17.5227,-6.02555 31.64158,-14.47409c13.23313,-7.91852 22.8882,-18.41836 23.04461,-18.33978z" fill="#a10000"/></g></g><path d="M255.85047,107.33718c0,0 1.54475,0.19594 4.33057,0.76861c2.54453,0.52308 4.57386,1.38497 4.57386,1.38497l0.28748,1.15114c0,0 -7.47541,-2.54402 -15.26432,-1.2617c-6.22782,1.02534 -9.70822,3.59517 -9.70822,3.59517l-0.28628,-4.16725c0,0 2.98218,-1.94734 7.69135,-2.47454c4.87632,-0.54591 8.11224,-0.05351 8.11224,-0.05351z" data-paper-data="{&quot;index&quot;:null}" fill="#000000" stroke="none" stroke-width="1.5" stroke-linecap="butt"/><path d="M216.20463,114.60668c0,0 3.21444,-2.081 7.82574,-2.91281c5.10989,-0.92177 7.73841,-0.68333 7.73841,-0.68333l0.62291,4.10094c0,0 -3.87749,-0.37373 -8.03401,0.11762c-5.55883,0.65711 -6.51002,1.9564 -10.71301,2.75114c-3.60136,0.68098 -6.70331,0.69367 -6.70331,0.69367l-0.12367,-1.22561c0,0 3.58968,-0.21192 5.21173,-0.484c1.33878,-0.22458 3.88859,-1.25102 3.88859,-1.25102z" fill="#000000" stroke="none" stroke-width="1.5" stroke-linecap="butt"/><path d="M180.65571,99.41854c0,0 17.16102,-12.44184 23.76148,-17.22304c6.94935,-5.03392 6.8106,-9.32336 16.9419,-12.26139c10.13132,-2.93803 6.30259,9.78152 6.30259,9.78152c0,0 -5.20184,6.07272 -20.51334,12.62583c-3.99039,1.70784 -26.49263,7.07708 -26.49263,7.07708z" fill="#000000" stroke="none" stroke-width="0" stroke-linecap="butt"/><path d="M206.94983,126.12606c-0.90844,-5.68319 -1.11312,-14.13588 -1.12129,-17.00913c-0.00038,-0.13097 2.78424,0.53466 5.66469,-0.77417c2.96552,-1.34748 6.33272,-2.58262 7.22164,-2.92412c0.23719,-0.09113 17.70277,-8.64276 17.70277,-8.64276l-4.47052,7.22014c0,0 26.04966,-12.782 27.18499,-12.19813c2.91105,1.49705 3.14315,22.99409 3.27416,28.55919c0.03017,5.68479 -1.77042,9.67094 -2.14548,12.73126c-0.37506,3.06032 4.23279,5.81868 3.22874,15.83321c-0.62659,6.24975 -7.59301,9.55822 -12.97629,15.74167c-5.38327,6.18346 -8.28993,9.9429 -12.23174,10.3263c-3.79344,0.36899 -9.31265,-4.37405 -14.71633,-9.24231c-5.75403,-5.18392 -9.52041,-7.74514 -10.88778,-14.3199c-0.59678,-2.86948 -0.98184,-5.26293 -1.30778,-7.57049c-0.34665,-2.45416 1.39372,-4.63784 0.99721,-7.36707c-0.56229,-3.87028 -4.78633,-6.41835 -5.41699,-10.36369z" fill="#ffffff" stroke="#000000" stroke-width="1.5" stroke-linecap="butt"/><path d="M233.5364,149.31833c-1.03361,-0.01791 -3.4811,-3.3212 -3.69323,-5.42848c-0.18981,-1.88543 1.38123,-3.80464 3.85243,-3.76182c2.47121,0.04281 4.19297,0.56348 3.95685,4.2577c-0.20039,3.13518 -1.64484,4.97543 -4.11605,4.93263z" fill="#ffffff" stroke="#000000" stroke-width="1.15" stroke-linecap="butt"/><g stroke-linecap="butt"><path d="M236.72813,182.09633c-7.22698,0.57607 -16.14112,-6.88653 -21.36392,-16.75697c-4.59947,-8.69241 -5.95556,-19.77116 -6.10197,-21.60798c-0.31268,-3.92259 11.31825,7.32537 24.90967,6.24198c13.59142,-1.08339 26.24247,-9.63436 26.55514,-5.71177c0,0 0.64034,6.11051 -0.97776,10.62935c-3.88113,10.83877 -13.4289,26.44078 -23.02117,27.20539z" fill="#000000" stroke="#000000" stroke-width="0"/><path d="M256.17668,145.00175c0.00851,0.10676 -2.10384,3.6423 -4.29085,5.79655c-1.54762,1.52445 -3.01045,1.53362 -4.32623,2.79152c-3.30852,3.16301 -4.35986,4.00206 -5.3066,4.49837c-2.0444,1.07174 -4.26502,1.02845 -5.81985,1.15239c-8.36129,0.66649 -15.40562,-6.85147 -15.57018,-8.916c-0.16457,-2.06453 6.36464,-1.00892 14.72593,-1.6754c8.3613,-0.66649 20.42322,-5.71194 20.58778,-3.64742z" fill="#ffffff" stroke="#000000" stroke-width="0.5"/><path d="M248.82944,141.56299c5.24979,-1.00261 13.4318,0.49026 13.42863,0.57735c-0.00335,0.09192 -2.47728,3.45568 -6.41014,5.52417c-5.22078,2.74587 -12.43922,4.40605 -14.26555,4.78354c-2.68343,0.55462 -10.52597,1.63828 -14.92097,0.60087c-2.89083,-0.68236 -5.81124,-2.42915 -8.59129,-3.76787c-4.77675,-2.30023 -7.53866,-7.35525 -7.54598,-7.3927c-0.0039,-0.01989 1.82804,0.58787 4.46831,1.4727c2.43761,0.81691 5.43515,0.25011 8.44229,1.26345c5.34509,1.80116 10.44171,5.09664 10.49107,5.09739c0,0 1.04161,-1.8379 2.19414,-2.28618c0.58034,-0.22573 10.27152,-5.40712 12.70948,-5.87274z" fill="#fefefe" stroke="#000000" stroke-width="1.4"/><path d="M239.30437,178.69887c-1.20158,0.09579 -2.7081,0.04518 -4.33232,-0.13863c-5.14512,-0.58222 -11.47122,-2.50096 -13.02585,-5.33664c-0.21825,-0.3981 2.60614,-4.73311 4.45174,-7.33948c0.10426,-0.14721 3.47656,2.64722 6.38386,3.91161c1.42742,0.62079 2.87912,0.19572 3.51137,0.19086c4.66965,-0.03588 8.41033,-4.43332 9.93722,-4.55503c4.95898,-0.39528 5.8197,3.84445 3.23707,7.67672c-1.91528,2.84203 -6.48551,5.29742 -10.1631,5.59056z" fill="#ffffff" stroke="none" stroke-width="0"/><path d="M262.30176,142.26536c0.01313,0.06553 -0.09519,19.04074 -1.09857,25.36979c-0.37412,2.35974 -0.66051,7.84947 -4.74779,11.37174c-4.52388,3.89851 -13.07304,5.75037 -17.70855,6.25657c-9.02424,0.98542 -18.37844,-1.45344 -19.44176,-2.6505c-1.1172,-1.25771 -2.78217,-6.5329 -4.93657,-12.10008c-3.12914,-8.08601 -4.21565,-28.00218 -4.21096,-28.03532c0.00702,-0.04961 3.25714,16.68147 7.55082,22.33827c3.3645,4.43262 5.48158,8.94157 6.26337,9.69302c0.39383,0.37855 3.15763,2.28195 5.96847,2.64299c2.27004,0.29158 10.82004,1.42508 16.45774,-2.78947c8.84372,-6.61124 15.87473,-32.24209 15.90378,-32.09704z" fill="#ffffff" stroke="#000000" stroke-width="1.9"/></g><path d="M237.65922,119.29154c0,0 0.03382,3.97094 -0.11768,7.12566c-0.29997,6.24687 -1.56213,27.73781 -1.56213,27.73781l-2.98138,-0.043c0,0 -0.73054,-4.18603 -0.95852,-9.51782c-0.30857,-7.21705 -0.16723,-16.29856 -0.42329,-19.64258c-0.24271,-3.1698 -0.79682,-5.72919 -0.79682,-5.72919" fill="#ffffff" stroke="#000000" stroke-width="1.3" stroke-linecap="round"/><g stroke="none" stroke-width="0" stroke-linecap="butt"><g fill="url(#color-1)"><path d="M207.97988,174.98159l-8.78071,-59.81614c0,0 47.66439,-11.08667 58.98386,-11.98895c4.51357,-0.35979 10.04717,6.48642 10.04717,6.48642l4.79336,60.13399z"/><path d="M207.97988,174.98159l-8.78071,-59.81614c0,0 47.66439,-11.08667 58.98386,-11.98895c4.51356,-0.35978 10.04717,6.48642 10.04717,6.48642l4.79336,60.13399z"/><path d="M207.97988,174.98159l-8.78071,-59.81614c0,0 47.66439,-11.08667 58.98386,-11.98895c4.51356,-0.35978 10.04717,6.48642 10.04717,6.48642l4.79336,60.13399z"/><path d="M207.97988,174.98159l-8.78071,-59.81614c0,0 47.66439,-11.08667 58.98386,-11.98895c4.51356,-0.35978 10.04717,6.48642 10.04717,6.48642l4.79336,60.13399z"/><path d="M207.97988,174.98159l-8.78071,-59.81614c0,0 47.66439,-11.08667 58.98386,-11.98895c4.51356,-0.35978 10.04717,6.48642 10.04717,6.48642l4.79336,60.13399z"/><path d="M207.97988,174.98159l-8.78071,-59.81614c0,0 47.66439,-11.08667 58.98386,-11.98895c4.51356,-0.35978 10.04717,6.48642 10.04717,6.48642l4.79336,60.13399z"/><path d="M207.97988,174.98159l-8.78071,-59.81614c0,0 47.66439,-11.08667 58.98386,-11.98895c4.51356,-0.35978 10.04717,6.48642 10.04717,6.48642l4.79336,60.13399z"/><path d="M207.97988,174.98159l-8.78071,-59.81614c0,0 47.66439,-11.08667 58.98386,-11.98895c4.51356,-0.35978 10.04717,6.48642 10.04717,6.48642l4.79336,60.13399z"/></g><path d="M199.14153,116.22619l4.30562,-25.69025l59.01188,-6.39371l2.00768,25.18701z" fill="#000000"/></g></g></g></svg>