<svg version="1.1" xmlns="http://www.w3.org/2000/svg" xmlns:xlink="http://www.w3.org/1999/xlink" width="35.67311" height="35.67311" viewBox="0,0,35.67311,35.67311"><defs><linearGradient x1="240" y1="162.91345" x2="240" y2="197.08655" gradientUnits="userSpaceOnUse" id="color-1"><stop offset="0" stop-color="#9966ff"/><stop offset="1" stop-color="#6712b1"/></linearGradient></defs><g transform="translate(-222.16344,-162.16344)"><g data-paper-data="{&quot;isPaintingLayer&quot;:true}" stroke-width="1.5" stroke-miterlimit="10" stroke-dasharray="" stroke-dashoffset="0" style="mix-blend-mode: normal"><path d="M229.9831,162.91345h20.03379c3.9166,0 7.06966,3.15307 7.06966,7.06966v20.03379c0,3.91659 -3.15306,7.06966 -7.06966,7.06966h-20.03379c-3.91659,0 -7.06966,-3.15307 -7.06966,-7.06966v-20.03379c0,-3.91659 3.15307,-7.06966 7.06966,-7.06966z" fill="url(#color-1)" fill-rule="evenodd" stroke="#000000" stroke-linecap="round" stroke-linejoin="round"/><g fill="#000000" fill-rule="nonzero" stroke="#ffffff" stroke-linecap="butt" stroke-linejoin="miter"><path d="M240.91957,174.13843c4.78643,1.67814 13.93917,7.56166 13.93917,7.56166l-1.07277,2.00956c0,0 -8.61283,-6.74044 -13.39927,-8.41858c-4.7291,-1.65804 -15.14941,-1.59069 -15.14941,-1.59069l0.34251,-2.69996c0,0 10.61066,1.47997 15.33976,3.13801z" data-paper-data="{&quot;index&quot;:null}"/><path d="M225.19083,173.83292l0.65055,-1.85553c0,0 8.09689,6.55954 12.826,8.21758c4.78643,1.67814 15.72268,1.79168 15.72268,1.79168l-0.65055,1.85553c0,0 -10.58925,-0.73603 -15.37569,-2.41416c-4.7291,-1.65804 -13.17299,-7.59509 -13.17299,-7.59509z"/><path d="M239.89519,188.81109c0,0 -0.0831,-1.23186 0.19195,-2.01632c0.47673,-1.35976 2.41328,-5.41435 2.41328,-5.41435l7.45554,1.13524c0,0 -1.24903,5.89623 -1.8043,7.41591c-0.26071,0.71352 -1.37725,1.2914 -1.37725,1.2914c0,0 -1.17784,0.51047 -2.17235,0.34436c-1.03166,-0.17232 -1.89243,-1.02533 -2.53147,-1.24938c-0.95496,-0.33481 -2.17538,-1.50684 -2.17538,-1.50684z"/><path d="M241.23659,188.73072c0,0 -0.40497,-0.68101 -0.27122,-1.06249c0.34317,-0.97879 2.12213,-5.13475 2.12213,-5.13475l5.33138,1.8692c0,0 -1.40391,4.29413 -1.81709,5.31906c-0.17255,0.42804 -0.84878,0.8157 -0.84878,0.8157z"/></g></g></g></svg>