<svg version="1.1" xmlns="http://www.w3.org/2000/svg" xmlns:xlink="http://www.w3.org/1999/xlink" width="105.78496" height="262.11903" viewBox="0,0,105.78496,262.11903"><defs><linearGradient x1="243.31095" y1="93.68754" x2="240.48474" y2="161.21736" gradientUnits="userSpaceOnUse" id="color-1"><stop offset="0" stop-color="#000000"/><stop offset="1" stop-color="#000000" stop-opacity="0"/></linearGradient></defs><g transform="translate(-187.31146,-43.38102)"><g data-paper-data="{&quot;isPaintingLayer&quot;:true}" fill-rule="nonzero" stroke-linejoin="miter" stroke-miterlimit="10" stroke-dasharray="" stroke-dashoffset="0" style="mix-blend-mode: normal"><g fill="#000000" stroke="none" stroke-linecap="butt"><path d="M290.23967,130.02936c0,0 -1.23999,0.08175 -2.5994,-0.05985c-2.14462,-0.22337 -3.60431,-0.94667 -3.60431,-0.94667c0,0 -0.05437,5.44872 1.83539,11.04371c2.00153,5.92589 7.22507,11.18619 7.22507,11.18619c0,0 -1.98109,-0.05742 -4.37992,-0.7147c-2.29908,-0.62994 -4.55586,-1.81003 -4.55586,-1.81003c0,0 -1.81727,4.76765 0.02883,6.67491c2.0726,2.14126 5.24253,15.10932 5.24253,15.10932c0,0 -2.8277,-9.01155 -7.40537,-10.30082c-3.65319,-1.0289 -2.91861,-6.66301 -2.91861,-6.66301c0,0 -0.7537,4.57005 -4.05046,12.08444c-2.766,6.30463 -7.15801,9.41647 -7.15801,9.41647l-0.01591,-2.65783c0,0 -11.10243,9.9642 -28.92466,9.47401c-18.89285,-0.64415 -26.14399,-11.97521 -26.14399,-11.97521l-0.25543,3.69676c0,0 -2.43944,-1.88159 -3.63439,-3.06738c-1.19493,-1.1858 -2.22009,-3.42857 -2.22009,-3.42857c0,0 0.22968,-12.33485 -2.88878,-12.27673c-3.33193,0.06211 -16.50485,12.63823 -16.50485,12.63823c0,0 1.93635,-10.72847 6.19366,-18.39281c4.67794,-8.42159 6.886,-17.83714 6.886,-17.83714c0,0 -2.90456,2.01843 -4.28391,2.96932c-1.47889,1.01951 -4.58735,2.94473 -4.58735,2.94473c0,0 3.29204,-7.88856 7.45256,-17.10349c3.03433,-6.72058 -1.58976,-43.20819 47.12895,-40.25483c39.41277,3.05135 37.27703,40.89768 37.5497,43.18171c0.10397,0.87085 6.58859,7.06929 6.58859,7.06929z" data-paper-data="{&quot;index&quot;:null}" stroke-width="1.5"/><path d="M194.97924,101.25757c0,0 6.75726,-5.64425 6.92899,-6.50357c0.21668,-1.08426 0.57265,-10.41676 5.1399,-19.78825c1.29623,-2.65972 5.60532,-6.03618 5.89688,-9.50221c0.54215,-6.44517 -3.80352,-12.82322 -3.80352,-12.82322c0,0 27.583,2.14068 32.49414,2.1661c3.12216,0.07015 -8.84293,-11.42542 -8.84293,-11.42542c0,0 25.93014,11.66752 28.73243,12.57333c26.96461,8.71595 20.20515,36.96485 22.21108,42.84128c3.25141,9.52513 5.77504,17.65708 5.77504,17.65708c0,0 -2.83678,-2.17403 -4.17791,-3.31156c-1.25086,-1.06096 -3.88351,-3.31113 -3.88351,-3.31113c0,0 2.83211,10.47569 0.51924,20.73483c-2.04654,9.40363 -8.4282,16.88778 -8.4282,16.88778l-1.12199,-2.39636c0,0 -1.17203,2.15081 -2.42079,3.23434c-1.24877,1.08352 -3.75377,2.75818 -3.75377,2.75818l0.05767,-3.70504c0,0 -7.91756,10.69624 -26.17367,9.78566c-17.21191,-0.97603 -27.09026,-11.8183 -27.09026,-11.8183l-0.23373,2.64738c0,0 -3.97596,-3.46204 -6.12291,-9.97229c-2.55891,-7.75946 -2.90956,-12.37573 -2.90956,-12.37573c0,0 -2.54994,1.7941 -6.15432,2.51926c-4.51651,0.90867 -7.35146,0.03789 -7.35146,0.03789c0,0 3.92432,-2.55531 6.09721,-4.51889c1.93543,-1.749 2.93652,-3.25728 2.93652,-3.25728c0,0 -2.27137,0.99059 -4.53829,1.42943c-2.36527,0.4579 -4.27875,0.35232 -4.27875,0.35232c0,0 5.46512,-4.81297 7.88054,-10.554c2.28055,-5.42046 2.67589,-10.85491 2.67589,-10.85491c0,0 -1.46584,0.60086 -3.55052,0.64723c-1.32143,0.0294 -2.50944,-0.15397 -2.50944,-0.15397z" stroke-width="1.5"/><path d="M203.73767,212.94073c0,0 1.30153,-4.71871 -0.41056,-10.21685c-1.82329,-5.85526 -6.67891,-12.62022 -7.08729,-16.38483c-0.4966,-4.5778 3.20403,-12.98027 3.20403,-12.98027c0,0 3.96847,-10.27172 4.21521,-21.10556c0.26886,-11.80488 -9.0061,-21.34824 4.35675,-22.16569c2.87505,-0.17587 6.02768,6.99324 9.62602,11.9641c3.76947,5.20727 7.92096,8.23165 7.92096,8.23165c0,0 -3.24794,0.77298 -2.41976,6.05385c2.89545,18.46262 10.80824,42.96868 10.80824,42.96868c0,0 -10.36071,-17.73169 -10.25955,-9.12801c0.11289,9.60249 5.68788,36.17268 5.68788,36.17268c0,0 -11.3498,-17.93044 -16.4071,-28.06637c-1.70907,-3.42537 -2.75976,-9.95027 -2.75976,-9.95027z" stroke-width="0"/><path d="M269.80295,189.15965c0,0 -1.59219,6.41429 -3.58151,9.68488c-5.88653,9.67792 -5.08341,36.17485 -5.08341,36.17485c0,0 -5.83584,-35.58899 -4.92099,-45.14847c0.81968,-8.56513 -6.99135,16.41304 -6.99135,16.41304c0,0 5.93773,-31.93341 10.36571,-50.08954c1.26654,-5.1932 -1.90547,-6.23486 -1.90547,-6.23486c0,0 4.3897,-2.66692 8.58107,-7.54102c4.00109,-4.65282 7.74173,-11.53344 10.59203,-11.11795c13.24782,1.93114 3.20789,10.66614 2.48944,22.45221c-0.65935,10.81657 2.43697,21.38396 2.43697,21.38396c0,0 2.9856,8.6823 2.10824,13.20259c-0.72151,3.71732 -6.1254,10.05291 -8.43156,15.73534c-2.1655,5.33586 -5.67745,19.97083 -5.67745,19.97083z" data-paper-data="{&quot;index&quot;:null}" stroke-width="0"/></g><g><g><path d="M201.54538,304.39162c0,0 -0.63536,-94.38387 -0.79335,-118.01201c-0.05451,-8.15261 8.18688,-36.76129 40.20201,-36.9211c31.60235,-0.15775 39.85672,29.48704 39.84884,36.89673c-0.07659,46.24274 0.65429,117.98648 0.65429,117.98648l-10.49667,0.09614l-0.15882,-114.84311c0,0 0.07549,-3.0993 -2.81625,-3.15415c-3.43441,-0.06514 -2.94538,3.11562 -2.94538,3.11562c0,0 -4.95003,28.26622 -4.9205,44.77862c0.03718,20.78547 5.12598,70.09133 5.12598,70.09133l-48.21366,0.07222c0,0 4.21363,-44.83321 4.15975,-65.16568c-0.04695,-17.71739 -4.46514,-50.06741 -4.46514,-50.06741c0,0 0.27949,-2.919 -2.8856,-2.93443c-3.11083,-0.01515 -2.81569,2.90899 -2.81569,2.90899l0.35311,115.0668z" fill="#ffffff" stroke="#000000" stroke-width="2" stroke-linecap="butt"/><path d="M256.14252,200.33381c-0.57113,0 -1.03411,-0.46299 -1.03411,-1.03411c0,-0.57113 0.46299,-1.03413 1.03411,-1.03413c0.57113,0 1.03411,0.463 1.03411,1.03413c0,0.57113 -0.46299,1.03411 -1.03411,1.03411z" fill="#000000" stroke="none" stroke-width="1.5" stroke-linecap="butt"/><path d="M250.88268,204.56942c-4.4635,-0.31439 -6.55245,-1.79392 -6.16985,-2.58011c0.11788,-0.24224 2.84645,1.06355 6.97038,1.3048c6.40897,0.37493 8.51033,-0.63173 8.51033,-0.63173v1.34616c0,0 -2.4135,1.04672 -9.31086,0.56089z" fill="#000000" stroke="#000000" stroke-width="0" stroke-linecap="butt"/><path d="M223.06992,199.29972c0,-0.57113 0.46299,-1.03413 1.03411,-1.03413c0.57113,0 1.03413,0.463 1.03413,1.03413c0,0.57113 -0.463,1.03411 -1.03413,1.03411c-0.57113,0 -1.03411,-0.46299 -1.03411,-1.03411z" fill="#000000" stroke="none" stroke-width="1.5" stroke-linecap="butt"/><path d="M229.36392,204.56942c-6.89736,0.48585 -9.31086,-0.56089 -9.31086,-0.56089v-1.34616c0,0 2.10136,1.00666 8.51033,0.63173c4.12393,-0.24126 6.85251,-1.54704 6.97039,-1.3048c0.3826,0.78618 -1.70634,2.26571 -6.16985,2.58011z" fill="#000000" stroke="#000000" stroke-width="0" stroke-linecap="butt"/><path d="M240.64438,261.12113c-0.81895,0 -1.48284,-0.66389 -1.48284,-1.48284c0,-0.81895 0.66389,-1.48284 1.48284,-1.48284c0.81895,0 1.48284,0.66389 1.48284,1.48284c0,0.81895 -0.66389,1.48284 -1.48284,1.48284z" data-paper-data="{&quot;index&quot;:null}" fill="#000000" stroke="none" stroke-width="1.5" stroke-linecap="butt"/><g fill="#ffffff" stroke="#000000" stroke-width="2" stroke-linecap="round"><path d="M240.52121,202.18258c0.14273,5.60368 -2.57383,7.93839 -3.89249,9.02343c-5.12117,4.21387 -15.18067,3.25512 -17.60285,2.04502c-4.96567,-2.48081 -8.40378,-10.51264 -8.69751,-13.75788c-0.29521,-3.2616 0.55028,-8.14011 2.54293,-10.94893c2.55122,-3.59616 5.94201,-5.23391 5.94201,-5.23391"/><path d="M264.10864,183.81031c0,0 3.568,1.68802 5.59914,5.45989c1.4764,2.74171 1.66914,7.09237 1.38579,10.22295c-0.29373,3.24525 -3.73185,11.27706 -8.69752,13.75787c-2.42218,1.2101 -12.48168,2.16885 -17.60284,-2.04502c-1.31866,-1.08504 -4.49677,-3.65052 -4.35404,-9.2542" data-paper-data="{&quot;index&quot;:null}"/></g></g><g fill="#ff0000" stroke="none" stroke-width="0" stroke-linecap="butt"><path d="M242.78928,225.87055c-5.33481,19.80043 -12.8084,55.08219 -15.54163,53.35977c-2.73323,-1.72242 0.30891,-39.79677 5.64372,-59.59721c5.33481,-19.80043 6.19209,-14.11615 8.92532,-12.39373c2.73323,1.72242 6.3074,-1.16927 0.97259,18.63117z"/><path d="M245.6989,224.87219c-0.89199,21.37201 -1.1153,60.80478 -4.06547,60.5168c-2.95017,-0.28799 -7.51003,-40.1877 -6.61805,-61.5597c0.89199,-21.37201 2.89805,-16.4104 5.84822,-16.12241c2.95017,0.28799 5.72728,-4.20669 4.8353,17.16532z"/><path d="M238.13098,226.07154c-9.77267,15.33764 -18.13852,45.16132 -20.25572,42.00607c-1.46252,-2.1796 -5.18318,-53.57253 -2.16132,-58.31516c9.77267,-15.33764 23.9341,-4.69105 26.0513,-1.5358c2.1172,3.15525 6.13841,2.50726 -3.63426,17.8449z"/><path d="M248.72786,219.65452c5.38578,19.76813 7.4285,58.30341 4.69972,60.04229c-2.72877,1.73888 -9.19571,-33.97713 -14.58149,-53.74525c-5.38578,-19.76813 -2.15093,-16.67705 0.57785,-18.41593c2.72878,-1.73888 3.91814,-7.64923 9.30392,12.1189z"/><path d="M267.13777,207.88454c3.48796,4.65245 -1.83417,53.89524 -3.13503,56.17631c-1.94308,3.40722 -11.34842,-26.02739 -21.90149,-40.1037c-10.55307,-14.07631 -6.75764,-13.49577 -4.81456,-16.90299c1.94308,-3.40722 19.29801,-13.24594 29.85108,0.83038z"/></g><g stroke="none" stroke-width="0" stroke-linecap="butt"><g><g fill="#da7f7f"><path d="M202.75743,220.7812c-0.91601,4.78728 -2.97391,8.19854 -4.59646,7.61927c-1.62255,-0.57927 -2.19532,-4.92971 -1.27932,-9.71699c0.91601,-4.78728 2.97392,-8.19854 4.59646,-7.61927c1.62255,0.57927 2.19532,4.92971 1.27931,9.71699z"/><path d="M211.03607,211.0642c1.62255,-0.57927 3.68045,2.832 4.59645,7.61927c0.91601,4.78727 0.34323,9.13772 -1.27931,9.71699c-1.62255,0.57927 -3.68045,-2.832 -4.59646,-7.61927c-0.91601,-4.78727 -0.34323,-9.13772 1.27932,-9.71699z" data-paper-data="{&quot;index&quot;:null}"/><path d="M207.4689,221.6917c-0.38297,4.86598 -2.05167,8.50305 -3.72716,8.1236c-1.67549,-0.37945 -2.72329,-4.6317 -2.34032,-9.49768c0.38297,-4.86598 2.05168,-8.50305 3.72717,-8.1236c1.67549,0.37945 2.72328,4.6317 2.34031,9.49768z"/><path d="M208.1144,213.21191c1.67549,-0.37944 3.34419,3.25761 3.72716,8.12359c0.38297,4.86598 -0.66482,9.11824 -2.34031,9.49768c-1.67549,0.37944 -3.34419,-3.25762 -3.72717,-8.1236c-0.38297,-4.86598 0.66483,-9.11823 2.34032,-9.49767z" data-paper-data="{&quot;index&quot;:null}"/></g><path d="M197.47139,215.2354c0,0 1.57143,-4.9375 1.57143,-8.21173c0,-4.4673 0,-15.84359 0,-15.84359h14.75c0,0 0,12.09897 0,16.59181c0,3.07315 1.42857,7.61315 1.42857,7.61315z" fill="#a10000"/></g><g><g fill="#da7f7f"><path d="M271.61458,222.27763c-0.916,4.78728 -2.97391,8.19854 -4.59646,7.61927c-1.62255,-0.57927 -2.19532,-4.9297 -1.27932,-9.71698c0.916,-4.78728 2.97391,-8.19855 4.59646,-7.61928c1.62255,0.57927 2.19532,4.92971 1.27931,9.71699z"/><path d="M279.8932,212.56065c1.62255,-0.57927 3.68045,2.832 4.59645,7.61928c0.916,4.78727 0.34323,9.13771 -1.27931,9.71698c-1.62255,0.57927 -3.68045,-2.832 -4.59646,-7.61928c-0.916,-4.78727 -0.34323,-9.13771 1.27932,-9.71698z" data-paper-data="{&quot;index&quot;:null}"/><path d="M276.32604,223.18816c-0.38297,4.86598 -2.05167,8.50304 -3.72717,8.12359c-1.67549,-0.37945 -2.72328,-4.63169 -2.34031,-9.49767c0.38297,-4.86598 2.05167,-8.50305 3.72717,-8.1236c1.67549,0.37945 2.72328,4.6317 2.34031,9.49768z"/><path d="M276.9715,214.70833c1.67549,-0.37944 3.34419,3.25761 3.72717,8.12359c0.38297,4.86598 -0.66483,9.11824 -2.34032,9.49768c-1.67549,0.37944 -3.34419,-3.25761 -3.72717,-8.12359c-0.38297,-4.86598 0.66483,-9.11824 2.34032,-9.49768z" data-paper-data="{&quot;index&quot;:null}"/></g><path d="M266.32849,216.73185c0,0 1.57143,-4.9375 1.57143,-8.21173c0,-4.4673 0,-15.84359 0,-15.84359h14.75c0,0 0,12.09897 0,16.59181c0,3.07315 1.42857,7.61316 1.42857,7.61316z" fill="#a10000"/></g><path d="M199.15353,191.35849c0,0 1.82462,-20.19547 8.16591,-26.67681c3.91163,-3.99802 9.99521,-9.81164 17.97915,-13.16665c6.84618,-2.87689 15.34066,-1.51823 15.34066,-1.51823c0,0 18.7832,-0.65754 27.84739,8.105c9.79289,9.467 14.03833,34.78306 14.03833,34.78306c0,0 -27.153,11.32479 -40.91793,11.07278c-14.02084,-0.2567 -42.45349,-12.59914 -42.45349,-12.59914z" fill="#a10000"/></g><path d="M275.96672,158.16445c0,0 -3.13344,41.76527 -35.50957,43.63031c-27.40913,1.57891 -36.42376,-43.09698 -36.42376,-43.09698" fill="none" stroke="#000000" stroke-width="3" stroke-linecap="round"/><g stroke="#000000" stroke-width="0" stroke-linecap="butt"><path d="M274.73328,191.62505c0,5.5819 1.16156,15.61828 -6.08097,20.14541c-5.92482,3.70346 -47.78418,5.0292 -53.35521,2.04346c-8.51944,-4.5659 -7.06381,-15.80301 -7.06381,-21.93887c0,-5.75268 4.52516,-12.95155 12.50273,-12.91087c2.09459,0.01068 8.53711,-0.38952 11.4975,1.04964c5.65479,2.74901 9.62476,7.73623 9.62476,7.73623c0,0 3.67869,-4.49312 8.96296,-7.08089c4.01934,-1.96832 9.4944,-2.20212 11.91276,-2.20589c7.13139,-0.01112 11.99928,7.47635 11.99928,13.16178z" fill="#cc1414"/><path d="M269.73328,180.9584c4.5951,2.30887 5.92555,12.23618 4.79782,19.9632c-0.80495,5.51542 -2.86231,10.29668 -5.8788,12.18221c-5.92482,3.70346 -48.03418,3.6542 -53.60521,0.66846c-0.21961,-0.1177 17.5227,-6.02555 31.64158,-14.47409c13.23313,-7.91852 22.8882,-18.41836 23.04461,-18.33978z" fill="#a10000"/></g></g><path d="M263.54472,96.9888c0,0 1.50966,0.38153 4.20565,1.28727c2.46248,0.8273 4.37253,1.92855 4.37253,1.92855l0.14599,1.17748c0,0 -7.11241,-3.43037 -14.99927,-3.1005c-6.30615,0.26378 -10.07208,2.39333 -10.07208,2.39333l0.22036,-4.17126c0,0 3.19601,-1.57195 7.93437,-1.52513c4.90654,0.04849 8.05904,0.92905 8.05904,0.92905z" data-paper-data="{&quot;index&quot;:null}" fill="#000000" stroke="none" stroke-width="1.5" stroke-linecap="butt"/><path d="M223.31039,99.40482c0,0 3.44274,-1.67651 8.12083,-1.94391c5.1839,-0.29633 7.76421,0.2586 7.76421,0.2586l0.12182,4.14619c0,0 -3.80372,-0.84044 -7.98915,-0.85594c-5.59749,-0.02074 -6.69899,1.15382 -10.96729,1.43385c-3.65731,0.23994 -6.73798,-0.12301 -6.73798,-0.12301l0.02563,-1.23156c0,0 3.58893,0.22425 5.23199,0.15055c1.35612,-0.06084 4.01145,-0.77102 4.01145,-0.77102z" fill="#000000" stroke="none" stroke-width="1.5" stroke-linecap="butt"/><path d="M189.86184,80.02443c0,0 18.54113,-10.2726 25.67191,-14.2195c7.5077,-4.15552 7.8893,-8.4302 18.30179,-10.12c10.4125,-1.6898 5.07196,10.47263 5.07196,10.47263c0,0 -5.89881,5.39825 -21.89107,10.04936c-4.1678,1.21215 -27.15458,3.8175 -27.15458,3.8175z" fill="#000000" stroke="none" stroke-width="0" stroke-linecap="butt"/><path d="M212.729,109.71896c-0.21368,-5.75137 0.60652,-14.16666 0.94629,-17.01976c0.01548,-0.13005 2.69903,0.86782 5.71675,-0.08264c3.10684,-0.97852 6.59881,-1.7969 7.52255,-2.02827c0.24648,-0.06174 18.61894,-6.43587 18.61894,-6.43587l-5.31179,6.62577c0,0 27.40558,-9.53409 28.46187,-8.81706c2.70839,1.83848 0.33608,23.20548 -0.20765,28.74551c-0.65832,5.64663 -2.92828,9.38545 -3.6711,12.37785c-0.74282,2.9924 3.49718,6.28835 1.28803,16.10765c-1.37865,6.12792 -8.69439,8.5686 -14.78671,14.0548c-6.09232,5.48621 -9.43276,8.86608 -13.39199,8.76942c-3.81021,-0.09301 -8.71457,-5.46938 -13.48909,-10.95606c-5.08408,-5.84244 -8.51266,-8.84082 -9.07395,-15.53276c-0.24497,-2.92063 -0.33742,-5.34309 -0.38158,-7.67314c-0.04697,-2.47808 1.94498,-4.43498 1.88182,-7.19214c-0.08957,-3.90989 -3.97403,-6.95062 -4.12238,-10.94329z" fill="#ffffff" stroke="#000000" stroke-width="1.5" stroke-linecap="butt"/><path d="M236.31206,135.95953c-1.02384,-0.14292 -3.05339,-3.71824 -3.00882,-5.8357c0.03986,-1.89454 1.8317,-3.60943 4.27954,-3.26773c2.44785,0.34169 4.0939,1.06699 3.41225,4.70545c-0.5785,3.08785 -2.23512,4.73968 -4.68297,4.398z" fill="#ffffff" stroke="#000000" stroke-width="1.15" stroke-linecap="butt"/><path d="M264.7286,136.92135c-0.16454,3.93159 -13.59726,21.70042 -27.21986,21.13029c-13.62261,-0.57012 -21.63058,-22.73933 -21.46604,-26.67092c0.16454,-3.93159 7.66492,6.45115 21.28753,7.02127c13.62261,0.57012 27.56292,-5.41223 27.39838,-1.48064z" fill="#000000" stroke="#000000" stroke-width="0" stroke-linecap="butt"/><path d="M259.77505,136.13112c-0.00448,0.10701 -2.52934,3.36079 -4.96108,5.23441c-1.72081,1.32586 -3.17398,1.15786 -4.63238,2.2472c-3.66714,2.73917 -4.81233,3.44477 -5.81219,3.8228c-2.15912,0.81634 -4.35816,0.50451 -5.91656,0.43929c-8.38048,-0.35073 -14.46277,-8.66626 -14.37617,-10.73552c0.0866,-2.06926 6.43997,-0.23092 14.82045,0.11982c8.38048,0.35073 20.96453,-3.19724 20.87793,-1.12798z" fill="#ffffff" stroke="#000000" stroke-width="0.5" stroke-linecap="butt"/><path d="M252.8982,131.82811c5.33256,-0.35963 13.27364,2.11287 13.25995,2.19894c-0.01445,0.09084 -2.87744,3.13033 -7.03181,4.70744c-5.51483,2.09358 -12.88116,2.8676 -14.73976,3.02119c-2.73084,0.22565 -10.64689,0.35183 -14.88396,-1.21006c-2.78695,-1.02734 -5.47439,-3.11486 -8.07191,-4.78032c-4.46311,-2.86164 -6.59269,-8.21387 -6.59542,-8.25193c-0.00146,-0.02022 1.74341,0.80487 4.25714,2.00286c2.32078,1.10603 5.36489,0.90632 8.22722,2.27628c5.0877,2.43505 9.74783,6.32335 9.79674,6.33007c0,0 1.25647,-1.69827 2.45479,-2.00372c0.6034,-0.1538 10.85061,-4.12375 13.32701,-4.29077z" fill="#fefefe" stroke="#000000" stroke-width="1.4" stroke-linecap="butt"/><path d="M239.36147,159.0476c-1.20434,-0.0504 -2.69365,-0.28303 -4.28367,-0.66213c-5.03678,-1.20087 -11.08404,-3.8714 -12.28391,-6.87444c-0.16845,-0.42159 3.16002,-4.38277 5.3076,-6.74651c0.12131,-0.13351 3.13048,3.04867 5.86331,4.65575c1.34176,0.78905 2.83425,0.54285 3.46243,0.61458c4.63964,0.52975 8.88521,-3.38245 10.41561,-3.3184c4.97036,0.20802 5.31143,4.52077 2.28382,8.01216c-2.24528,2.58923 -7.07917,4.47324 -10.7652,4.31897z" fill="#ffffff" stroke="none" stroke-width="0" stroke-linecap="butt"/><path d="M244.03995,106.65276c0,0 -0.44719,3.94582 -0.97953,7.05899c-1.05409,6.1646 -4.90891,27.34463 -4.90891,27.34463l-2.95424,-0.40364c0,0 -0.21836,-4.24368 0.20087,-9.56386c0.56748,-7.20132 1.8073,-16.19891 1.95799,-19.54933c0.14285,-3.17587 -0.09731,-5.78352 -0.09731,-5.78352" fill="#ffffff" stroke="#000000" stroke-width="1.3" stroke-linecap="round"/><path d="M266.18637,134.15644c0.0051,0.06664 0.08957,7.39131 -1.6727,13.55232c-0.65706,2.29708 -1.606,7.71176 -6.08967,10.71326c-4.9626,3.32211 -13.67308,4.12529 -18.33578,4.06653c-9.07716,-0.11441 -18.06727,-3.66786 -18.97784,-4.98485c-0.95671,-1.38372 -1.97075,-6.82168 -3.43527,-12.60874c-2.12713,-8.40538 -4.64258,-17.70881 -4.63391,-17.74114c0.01298,-0.0484 4.90873,6.33667 8.48595,12.4717c2.80308,4.80736 4.35868,9.53946 5.04374,10.38004c0.3451,0.42344 2.85812,2.64746 5.60457,3.34616c2.21804,0.56428 10.56791,2.7246 16.6744,-0.77638c9.5791,-5.49188 17.32521,-18.56642 17.33649,-18.41892z" fill="#ffffff" stroke="#000000" stroke-width="1.9" stroke-linecap="butt"/><g stroke="none" stroke-width="0" stroke-linecap="butt"><g fill="url(#color-1)"><path d="M209.88653,159.93678l-1.47405,-60.43922c0,0 48.65604,-5.23429 60.00149,-4.75946c4.52392,0.18933 9.18794,7.65513 9.18794,7.65513l-2.52245,60.27197z"/><path d="M209.88653,159.93678l-1.47405,-60.43922c0,0 48.65604,-5.23429 60.00149,-4.75946c4.52391,0.18933 9.18794,7.65513 9.18794,7.65513l-2.52245,60.27197z"/><path d="M209.88653,159.93678l-1.47405,-60.43922c0,0 48.65604,-5.23429 60.00149,-4.75946c4.52391,0.18933 9.18794,7.65513 9.18794,7.65513l-2.52245,60.27197z"/><path d="M209.88653,159.93678l-1.47405,-60.43922c0,0 48.65604,-5.23429 60.00149,-4.75946c4.52391,0.18933 9.18794,7.65513 9.18794,7.65513l-2.52245,60.27197z"/><path d="M209.88653,159.93678l-1.47405,-60.43922c0,0 48.65604,-5.23429 60.00149,-4.75946c4.52391,0.18933 9.18794,7.65513 9.18794,7.65513l-2.52245,60.27197z"/><path d="M209.88653,159.93678l-1.47405,-60.43922c0,0 48.65604,-5.23429 60.00149,-4.75946c4.52391,0.18933 9.18794,7.65513 9.18794,7.65513l-2.52245,60.27197z"/><path d="M209.88653,159.93678l-1.47405,-60.43922c0,0 48.65604,-5.23429 60.00149,-4.75946c4.52391,0.18933 9.18794,7.65513 9.18794,7.65513l-2.52245,60.27197z"/><path d="M209.88653,159.93678l-1.47405,-60.43922c0,0 48.65604,-5.23429 60.00149,-4.75946c4.52391,0.18933 9.18794,7.65513 9.18794,7.65513l-2.52245,60.27197z"/></g><path d="M208.22683,100.54353l7.38432,-24.97998l59.35187,0.79801l-1.05653,25.2448z" fill="#000000"/></g></g></g></svg>