<svg version="1.1" xmlns="http://www.w3.org/2000/svg" xmlns:xlink="http://www.w3.org/1999/xlink" width="140.88124" height="290.30348" viewBox="0,0,140.88124,290.30348"><defs><linearGradient x1="168.47932" y1="74.3611" x2="306.73008" y2="74.3611" gradientUnits="userSpaceOnUse" id="color-1"><stop offset="0" stop-color="#474747"/><stop offset="1" stop-color="#323232"/></linearGradient><linearGradient x1="245.43963" y1="52.85526" x2="245.43963" y2="323.53598" gradientUnits="userSpaceOnUse" id="color-2"><stop offset="0" stop-color="#3d5799"/><stop offset="1" stop-color="#111b2c"/></linearGradient><linearGradient x1="243.13397" y1="126.40906" x2="243.13397" y2="226.0694" gradientUnits="userSpaceOnUse" id="color-3"><stop offset="0" stop-color="#707070"/><stop offset="1" stop-color="#434343"/></linearGradient><linearGradient x1="242.61906" y1="134.8708" x2="242.61906" y2="217.60769" gradientUnits="userSpaceOnUse" id="color-4"><stop offset="0" stop-color="#e3e3e3"/><stop offset="1" stop-color="#bababa"/></linearGradient></defs><g transform="translate(-167.72932,-33.9863)"><g data-paper-data="{&quot;isPaintingLayer&quot;:true}" fill-rule="nonzero" stroke="#000000" stroke-linejoin="miter" stroke-miterlimit="10" stroke-dasharray="" stroke-dashoffset="0" style="mix-blend-mode: normal"><path d="M168.47932,107.39912l67.60099,-72.35852l70.64978,64.62244c0,0 -5.24817,8.53146 -10.35693,5.04926c-11.78991,-8.03613 -59.12444,-52.40851 -59.12444,-52.40851c0,0 -42.39994,49.88828 -54.81295,59.8331c-6.61492,5.29961 -13.95645,-4.73778 -13.95645,-4.73778z" fill="url(#color-1)" stroke-width="1.5" stroke-linecap="butt"/><path d="M184.95396,323.53598l-1.88038,-212.48336c0,0 16.90581,-16.43435 29.71845,-31.28853c6.00187,-6.9582 13.13304,-13.59574 18.07287,-18.68615c2.54943,-2.62713 5.01603,-8.1021 7.46032,-8.21781c3.02874,-0.14337 3.21131,2.90402 6.74726,5.75809c5.78153,4.66661 13.40325,12.79459 20.05907,19.29716c13.45323,13.14348 27.00428,24.3621 27.00428,24.3621l15.66986,220.63169z" fill="url(#color-2)" stroke-width="1.5" stroke-linecap="butt"/><path d="M292.96414,176.23923c0,27.52044 -22.30973,49.83017 -49.83017,49.83017c-27.52044,0 -49.83017,-22.30973 -49.83017,-49.83017c0,-27.52044 22.30973,-49.83017 49.83017,-49.83017c27.52044,0 49.83017,22.30973 49.83017,49.83017z" fill="url(#color-3)" stroke-width="1.5" stroke-linecap="butt"/><path d="M282.73392,176.23925c0,22.84716 -17.96003,41.36844 -40.11485,41.36844c-22.15482,0 -40.11485,-18.52128 -40.11485,-41.36844c0,-22.84716 17.96003,-41.36844 40.11485,-41.36844c22.15482,0 40.11485,18.52128 40.11485,41.36844z" fill="url(#color-4)" stroke-width="1.5" stroke-linecap="butt"/><path d="M239.48509,136.75119l0.62679,9.40192" fill="none" stroke-width="1.5" stroke-linecap="round"/><path d="M203.36216,181.08806l13.05648,-0.21761" fill="none" stroke-width="1.5" stroke-linecap="round"/><path d="M281.70104,172.81896l-11.09801,0.65282" fill="none" stroke-width="1.5" stroke-linecap="round"/><path d="M244.27246,209.1595l0.43522,7.39867" fill="none" stroke-width="1.5" stroke-linecap="round"/><path d="M211.19605,196.32062l7.61628,-3.48173" fill="none" stroke-width="1.5" stroke-linecap="round"/><path d="M223.81731,208.72428l3.48173,-6.74585" fill="none" stroke-width="1.5" stroke-linecap="round"/><path d="M262.55154,206.11298l-4.35216,-5.65781" fill="none" stroke-width="1.5" stroke-linecap="round"/><path d="M274.51998,192.83889l-8.0515,-3.91694" fill="none" stroke-width="1.5" stroke-linecap="round"/><path d="M223.3821,142.78904l5.4402,8.2691" fill="none" stroke-width="1.5" stroke-linecap="round"/><path d="M209.67279,159.10965l10.44518,4.13455" fill="none" stroke-width="1.5" stroke-linecap="round"/><path d="M255.58808,140.17774l-3.26412,8.0515" fill="none" stroke-width="1.5" stroke-linecap="round"/><path d="M263.20437,157.5864l10.66279,-4.56977" fill="none" stroke-width="1.5" stroke-linecap="round"/><path d="M243.40203,140.61297l-1.30565,37.21097" fill="none" stroke-width="3.5" stroke-linecap="round"/><path d="M260.37446,162.93833l-17.40664,15.8443" fill="none" stroke-width="3.5" stroke-linecap="round"/></g></g></svg>