<svg version="1.1" xmlns="http://www.w3.org/2000/svg" xmlns:xlink="http://www.w3.org/1999/xlink" width="637.66985" height="418.9167" viewBox="0,0,637.66985,418.9167"><defs><linearGradient x1="224.36343" y1="58.10108" x2="387.94266" y2="58.10108" gradientUnits="userSpaceOnUse" id="color-1"><stop offset="0" stop-color="#474747"/><stop offset="1" stop-color="#323232"/></linearGradient><linearGradient x1="315.42339" y1="32.65523" x2="315.42339" y2="352.92647" gradientUnits="userSpaceOnUse" id="color-2"><stop offset="0" stop-color="#3d5799"/><stop offset="1" stop-color="#111b2c"/></linearGradient><linearGradient x1="312.69532" y1="119.68458" x2="312.69532" y2="237.60336" gradientUnits="userSpaceOnUse" id="color-3"><stop offset="0" stop-color="#707070"/><stop offset="1" stop-color="#434343"/></linearGradient><linearGradient x1="312.08607" y1="129.69657" x2="312.08607" y2="227.59141" gradientUnits="userSpaceOnUse" id="color-4"><stop offset="0" stop-color="#e3e3e3"/><stop offset="1" stop-color="#bababa"/></linearGradient><linearGradient x1="404.8139" y1="205.88175" x2="404.8139" y2="359.96159" gradientUnits="userSpaceOnUse" id="color-5"><stop offset="0" stop-color="#d89116"/><stop offset="1" stop-color="#ffc100"/></linearGradient><linearGradient x1="391.31036" y1="247.59069" x2="391.31036" y2="255.1159" gradientTransform="translate(-4702.51372,-3071.42193) scale(12.26542,12.26542)" gradientUnits="userSpaceOnUse" id="color-6"><stop offset="0" stop-color="#d89116"/><stop offset="1" stop-color="#ffc100"/></linearGradient><linearGradient x1="386.68855" y1="165.00005" x2="386.68855" y2="168.50005" gradientUnits="userSpaceOnUse" id="color-7"><stop offset="0" stop-color="#d89116"/><stop offset="1" stop-color="#ffc100"/></linearGradient><linearGradient x1="413.85522" y1="164.50005" x2="413.85522" y2="168.00005" gradientUnits="userSpaceOnUse" id="color-8"><stop offset="0" stop-color="#d89116"/><stop offset="1" stop-color="#ffc100"/></linearGradient><linearGradient x1="395.8823" y1="248.37812" x2="395.8823" y2="248.87812" gradientUnits="userSpaceOnUse" id="color-9"><stop offset="0" stop-color="#d89116"/><stop offset="1" stop-color="#ffc100"/></linearGradient><linearGradient x1="395.8823" y1="249.45879" x2="395.8823" y2="249.95879" gradientUnits="userSpaceOnUse" id="color-10"><stop offset="0" stop-color="#d89116"/><stop offset="1" stop-color="#ffc100"/></linearGradient><linearGradient x1="395.94681" y1="250.45879" x2="395.94681" y2="250.95879" gradientUnits="userSpaceOnUse" id="color-11"><stop offset="0" stop-color="#d89116"/><stop offset="1" stop-color="#ffc100"/></linearGradient></defs><g transform="translate(111.63381,26.95696)"><g data-paper-data="{&quot;isPaintingLayer&quot;:true}" fill-rule="nonzero" stroke-linejoin="miter" stroke-miterlimit="10" stroke-dasharray="" stroke-dashoffset="0" style="mix-blend-mode: normal"><path d="M-44.53453,382.95295v-409.90991h570.57057v409.90991z" fill="#669bff" stroke="#000000" stroke-width="0" stroke-linecap="butt"/><g data-paper-data="{&quot;index&quot;:null}" stroke="#000000"><path d="M224.36343,97.19189l79.98594,-85.61509l83.59329,76.4617c0,0 -6.20967,10.09448 -12.25439,5.97432c-13.9499,-9.5084 -69.95643,-62.0101 -69.95643,-62.0101c0,0 -50.16789,59.02815 -64.85505,70.79493c-7.82682,6.27053 -16.51337,-5.60577 -16.51337,-5.60577z" fill="url(#color-1)" stroke-width="1.5" stroke-linecap="butt"/><path d="M243.85634,352.92647l-2.22488,-251.41174c0,0 20.00307,-19.44523 35.16307,-37.0208c7.10145,-8.23299 15.5391,-16.08657 21.38394,-22.10958c3.0165,-3.10844 5.935,-9.58646 8.8271,-9.72337c3.58363,-0.16964 3.79964,3.43606 7.9834,6.81301c6.84075,5.52156 15.85882,15.13864 23.73403,22.83253c15.91795,15.55145 31.95165,28.8254 31.95165,28.8254l18.54068,261.0529z" fill="url(#color-2)" stroke-width="1.5" stroke-linecap="butt"/><path d="M371.65471,178.64397c0,32.56237 -26.39702,58.95939 -58.95939,58.95939c-32.56237,0 -58.95939,-26.39702 -58.95939,-58.95939c0,-32.56237 26.39702,-58.95939 58.95939,-58.95939c32.56237,0 58.95939,26.39702 58.95939,58.95939z" fill="url(#color-3)" stroke-width="1.5" stroke-linecap="butt"/><path d="M359.55024,178.64399c0,27.03291 -21.25043,48.94742 -47.46416,48.94742c-26.21373,0 -47.46416,-21.9145 -47.46416,-48.94742c0,-27.03291 21.25043,-48.94742 47.46416,-48.94742c26.21373,0 47.46416,21.9145 47.46416,48.94742z" fill="url(#color-4)" stroke-width="1.5" stroke-linecap="butt"/><path d="M309.11956,143.04587l-0.74162,-11.12441" fill="none" stroke-width="1.5" stroke-linecap="round"/><path d="M265.63704,184.38114l15.44851,-0.25748" fill="none" stroke-width="1.5" stroke-linecap="round"/><path d="M345.19689,175.36951l13.13124,-0.77242" fill="none" stroke-width="1.5" stroke-linecap="round"/><path d="M314.04239,217.59546l0.51496,8.75416" fill="none" stroke-width="1.5" stroke-linecap="round"/><path d="M274.90616,202.40441l9.01163,-4.11961" fill="none" stroke-width="1.5" stroke-linecap="round"/><path d="M293.95932,209.09877l-4.11961,7.98173" fill="none" stroke-width="1.5" stroke-linecap="round"/><path d="M335.67032,213.99079l-5.1495,-6.69436" fill="none" stroke-width="1.5" stroke-linecap="round"/><path d="M340.30487,193.65025l9.52659,4.63455" fill="none" stroke-width="1.5" stroke-linecap="round"/><path d="M295.76165,148.84954l-6.43688,-9.78405" fill="none" stroke-width="1.5" stroke-linecap="round"/><path d="M273.10382,158.37614l12.35881,4.89203" fill="none" stroke-width="1.5" stroke-linecap="round"/><path d="M327.4311,135.97577l-3.86213,9.52659" fill="none" stroke-width="1.5" stroke-linecap="round"/><path d="M349.05903,151.16683l-12.61628,5.40698" fill="none" stroke-width="1.5" stroke-linecap="round"/><path d="M313.01249,136.49074l-1.54485,44.02827" fill="none" stroke-width="3.5" stroke-linecap="round"/><path d="M333.09438,162.90626l-20.59565,18.74708" fill="none" stroke-width="3.5" stroke-linecap="round"/></g><path d="M-51.2529,286.19048c0.05155,0.84398 0.49224,1.76173 0.61706,2.6372c0.57695,-0.13766 1.24331,-0.13622 1.56402,-0.59381c0.5045,-0.7198 0.60801,-1.62301 0.75814,-2.51104l-0.75448,0.37911c0,0 -1.12978,0.56489 -2.18475,0.08855zM-44.58766,279.99535c2.39418,0.55883 3.77621,2.03935 2.29293,5.38299c0.85371,0.78675 1.53157,1.85131 2.42523,2.59888c1.81674,1.51976 3.65481,3.04202 5.68233,4.26651c1.05795,0.63893 2.37927,0.87384 3.29054,1.70875c1.80316,1.65205 2.22084,4.72009 4.36441,5.89728c2.65388,1.45744 5.93506,1.43622 8.64561,2.78532c1.65813,0.82529 3.18913,1.90831 4.62993,3.07219c1.02298,0.82636 1.53988,2.27282 2.71573,2.86165c1.00926,0.50541 2.43844,-0.42997 3.3808,0.19133c1.03513,0.68247 0.84046,2.48761 1.82518,3.241c1.05179,0.8047 2.58454,0.61192 3.82321,1.08044c3.81715,1.44379 7.55976,3.0156 11.45576,4.34648c1.6817,0.00258 3.38739,-0.27533 5.0451,0.00774c2.95145,0.50399 5.51032,2.53185 8.46841,2.99526c2.47235,0.38732 5.05692,-0.50707 7.50751,0c1.54989,0.3207 2.94347,1.24038 4.5045,1.5015c1.53815,0.2573 3.14919,-0.27121 4.67843,0.0346c1.09743,0.21946 1.91104,1.2563 3.003,1.5015c1.14802,0.25779 2.37254,0.17865 3.52967,-0.0346c2.59352,-0.47795 4.7506,-2.43644 7.33358,-2.96841c1.47064,-0.30288 3.02867,0.27645 4.5045,0c2.20004,-0.4121 3.81591,-2.54096 6.00601,-3.003c2.18859,-0.46173 4.87426,0.30177 6.62011,-1.09648c4.9285,-3.94723 9.22797,-7.69553 15.01502,-10.51051c2.67865,-2.72399 4.82539,23.45421 8.18074,21.7094c0.8881,-0.46182 6.10768,-12.55234 7.003,-13c1.26618,-0.63309 -0.93519,-20.38072 0.33634,-21.003c1.01425,-0.49637 3.95765,33.15493 5.052,32.87658c1.08462,-0.27588 4.25023,-6.8982 5.33634,-7.16817c1.02777,-0.25546 -1.86155,-27.16026 -0.82307,-27.36793c1.55199,-0.31036 2.94042,-1.2593 4.5045,-1.5015c4.27564,-0.66208 23.7361,40.11288 28.17652,40.45381c3.82445,0.29363 -7.36596,-39.82077 -3.7021,-40.44606c1.40665,-0.24007 2.60269,-1.25953 4.00901,-1.5015c4.9529,-0.85221 11.01891,-0.06692 16.03495,0.02685c1.001,0.5005 1.90707,1.27473 3.003,1.5015c4.30453,0.89071 0.77464,15.25931 5.49242,16.70706c1.61144,0.4945 6.28639,-14.41496 7.88329,-13.87537c1.40019,0.47313 2.97129,-0.09434 4.43197,0.13108c1.87104,0.28875 3.74104,0.71154 5.50373,1.40226c0.9022,0.35353 4.77878,17.72683 5.70347,18.0165c0.95334,0.29865 -1.26811,-16.69531 -0.33627,-16.33514c1.58019,0.61077 2.66931,2.16914 4.24171,2.79969c0.99125,0.3975 2.17442,-0.11854 3.19865,0.184c3.84389,1.13539 6.08503,4.29672 9.46973,6.18198c0.65665,0.36575 1.13411,1.27187 1.88497,1.23757c0.93925,-0.04291 1.51857,-1.1983 2.42862,-1.43462c0.84645,-0.21981 1.84085,0.51923 2.62068,0.12342c1.098,-0.5573 1.51669,-1.97753 2.49794,-2.72141c3.45421,-2.61865 8.47034,-4.27126 12.35575,-6.21397l2.95802,-1.47901c0.34741,-0.18291 0.74312,-0.28642 1.16302,-0.28642c1.38071,0 2.5,1.11929 2.5,2.5c0,0.41989 -0.10352,0.81561 -0.28642,1.16302l-1.47901,2.95802l-0.04051,-0.02026c-0.05181,0.1227 -0.10749,0.24408 -0.16745,0.364c-2.0243,4.0486 -7.73207,6.91203 -10.51051,10.51051c-1.36793,1.77166 -1.66907,4.20861 -3.003,6.00601c-0.49896,0.67232 -1.05878,1.30704 -1.66913,1.88661c1.0435,0.00615 2.09822,0.12737 3.13952,0.15762c0.52059,0.01512 1.10945,0.4668 1.5508,0.1903c1.07211,-0.67167 1.5154,-2.10235 2.58348,-2.78041c1.5486,-0.9831 3.39012,-1.40212 5.09013,-2.09104c8.93472,-3.62077 15.98064,-11.31243 24.63873,-15.69361c0.91511,-1.37812 1.56344,-2.97686 2.74532,-4.13436c0.7273,-0.7123 2.21478,-0.42375 2.77601,-1.27308c0.49775,-0.75326 -0.09842,-1.80303 -0.14763,-2.70454l0.79832,-0.55467l-0.25639,-0.25639l3.003,-3.003c0.45241,-0.45241 1.07741,-0.73223 1.76777,-0.73223c1.38071,0 2.5,1.11929 2.5,2.5v3.003h-0.05648c0.00716,0.19056 0.00426,0.38197 -0.0104,0.57438c-0.13052,1.71331 -1.76739,2.98367 -2.27718,4.62458c-1.33221,4.28808 -0.58054,9.84377 -0.62675,14.25893c-0.01074,1.0259 0.05499,2.05546 -0.03223,3.07771c-0.04865,0.57016 -0.63871,1.16863 -0.37334,1.6756c0.60168,1.14945 2.58207,0.3318 3.87938,0.31583c4.42462,-0.05448 5.14491,0.17298 9.36011,-1.97214c2.26977,-1.15509 5.12256,-1.46813 6.89014,-3.30164c0.74237,-0.77006 0.64161,-2.13054 1.39507,-2.88974c1.32484,-1.33494 3.09053,-2.14436 4.6477,-3.19912c5.39854,-3.65675 11.23332,-6.39413 17.03661,-9.34555c2.59915,-1.56058 4.96544,-3.61956 7.81692,-4.64914c2.6114,-0.94289 5.39249,-1.47129 8.16266,-1.65753c1.33948,-0.09005 2.75046,0.51262 4.02639,0.0951c3.62979,-1.18775 4.56778,-5.54954 9.47275,-2.78063c1.54713,0.87337 2.24484,2.88003 2.69384,4.59898c1.6949,6.48873 -2.51162,13.82964 -2.83643,20.36033c-0.12583,2.53004 0.7543,5.24229 -0.08972,7.61259c1.15387,-0.06154 2.33546,0.13149 3.49603,0.13149c2.86954,0 5.78563,0.5474 8.60855,0.03228c2.9246,-0.53367 5.63105,-1.90898 8.45276,-2.84498c4.47923,-2.23641 10.45811,-2.83909 14.50995,-5.72441c1.44624,-1.02987 2.29482,-3.29734 4.06432,-3.44262c2.03793,-0.16732 4.16777,1.13002 5.53009,2.65489c0.87315,0.97734 0.06259,2.63624 0.34109,3.91688c1.0219,4.69897 3.25591,9.05329 4.20907,13.82089c0.26298,1.31539 -0.51999,3.30494 0.64355,3.97246c0.50004,0.28687 1.11378,-0.33058 1.68868,-0.37337c0.70699,-0.05263 3.43823,0.48209 4.11737,-0.63951c1.50533,-2.48603 1.46001,-5.64674 2.58194,-8.32771c2.46192,-5.88304 5.53417,-11.55347 9.48701,-16.52139c2.28548,-2.85215 3.32939,-4.43042 6.06994,-6.8122c1.52443,-1.32486 2.75831,-3.90594 4.77077,-3.73524c2.40807,0.20426 4.0585,2.7466 5.59223,4.61427c2.92376,3.56034 3.44272,9.22225 5.62653,13.23306c2.25392,4.13959 4.49511,7.81907 6.13937,12.30953c1.03246,2.81964 1.58992,5.81235 2.78651,8.56635c0.29855,0.68712 0.56451,1.61752 1.27683,1.84961c0.49395,0.16094 0.76932,-0.6987 1.14077,-1.06189c2.0789,-2.03265 3.47767,-4.68623 4.85218,-7.2483c1.53949,-2.86959 3.86598,-5.2804 5.31727,-8.19558c2.09608,-4.21038 1.16077,-10.06323 8.14704,-3.7403c1.45585,1.31762 1.55896,3.60445 2.33844,5.40668c1.35767,3.39417 3.72598,7.22561 4.28275,10.82834c0.20482,1.32533 -0.65062,2.77839 -0.14519,4.02056c0.36975,0.90872 1.3782,1.38576 2.16423,2.01882c0.22276,-0.55925 0.46066,-1.11489 0.60045,-1.63649c0.32407,-1.20915 -0.45351,-2.74823 0.3065,-3.74295c1.06348,-1.39193 2.86795,-2.14967 4.55525,-2.6203c1.63086,-0.45488 3.38584,-0.05287 5.07889,-0.06688c2.72562,-0.02255 6.99084,-0.67807 9.58339,0.06688c1.51305,0.43476 3.06821,1.06888 4.19639,2.16686c3.23919,3.15248 1.76867,7.78114 3.54493,11.32157c1.48058,2.95108 3.32799,5.74437 4.44684,8.85068c0.56135,1.18329 1.4043,2.27041 1.68405,3.54987c1.73963,7.95627 -4.78462,9.3588 -10.41945,11.85778c-1.16659,0.51737 -2.20326,1.39454 -3.45276,1.65402c-1.52694,0.3171 -3.13844,-0.21141 -4.67843,0.0346c-4.66382,0.74503 -7.08786,4.01451 -11.26229,5.67532c-1.14041,0.45372 -2.46917,0.0548 -3.6685,0.31553c-2.60428,0.56616 -4.82804,2.3543 -7.4178,2.98356c-2.00177,0.48639 -4.16258,-0.38245 -6.17993,0.0346c-1.54995,0.32042 -2.94316,1.24227 -4.5045,1.5015c-1.42408,0.23644 -2.91505,-0.31774 -4.33058,-0.0346c-1.09741,0.21951 -1.90291,1.29582 -3.003,1.5015c-1.74033,0.32539 -3.55087,-0.13644 -5.31119,0.05298c-3.27781,0.35272 -6.49546,1.18542 -9.77924,1.47737c-4.01618,0.7978 -8.48027,2.16586 -12.51043,2.72804c-10.51877,1.46729 -21.91698,0.31299 -32.52308,0.31299c-15.95588,0 -31.9125,0.04379 -47.86823,-0.02197c-3.18231,-0.86094 -6.50273,-1.10862 -9.77749,-1.48838c-2.58817,-0.30014 -5.07258,-1.30449 -7.67041,-1.5043c-1.60796,-0.12367 -3.25599,0.25883 -4.83783,-0.05523c-1.09773,-0.21794 -1.92096,-1.21571 -3.003,-1.5015c-2.23452,-0.59019 -4.62198,0.06688 -6.93313,0.06688c-3.003,0 -6.00601,0 -9.00901,0c-8.00801,0 -16.01602,0 -24.02402,0c-2.69406,0 -5.50443,0.7171 -8.08189,-0.06688c-1.64391,-0.50002 -2.98346,-1.76808 -4.62458,-2.27718c-3.12634,-0.96983 -6.60302,0.0194 -9.79432,-0.70872c-1.65413,-0.3774 -3.0899,-1.40243 -4.63485,-2.10365c-5.48007,-0.4956 -11.25139,-0.15798 -16.65425,-0.86175c-2.53068,-0.32964 -4.96105,-1.33242 -7.50751,-1.5015c-5.7805,-0.38381 -12.28949,-0.42651 -18.08132,0.00525c-3.28943,0.24521 -6.50915,1.09028 -9.78546,1.47274c-5.95378,0.69501 -12.14351,0.48415 -18.04699,1.50714c-8.17561,1.41671 -16.17188,3.89361 -24.3461,5.38175c-0.23008,0.04185 -9.89871,1.80284 -10.01779,1.81569c-3.05648,0.32978 -6.17739,-0.14268 -9.21725,0.31566c-6.10224,0.92007 -12.0652,2.80655 -18.2802,3.02596c-18.82666,0.66463 -37.7953,0.0015 -56.63321,0.0015c-5.69068,0 -12.07045,-0.77351 -17.68647,-0.02208c-3.28313,0.43928 -6.31436,2.09931 -9.5856,2.61976c-2.00741,0.31938 -8.27131,0.31505 -10.36097,0.33733c-8.14619,0.08683 -16.29246,0.068 -24.43903,0.068c-6.81559,0 -14.76092,1.13445 -21.42148,-0.03228c-0.29683,-0.052 -8.75313,-2.88538 -9.30752,-3.07042c-0.33644,-0.08398 -9.64732,-2.40471 -9.80255,-2.45714c-2.85948,-0.96594 -5.44868,-2.64005 -8.31659,-3.58065c-3.12773,-1.02581 -6.41445,-1.4923 -9.58182,-2.38826c-3.13384,-0.88648 -6.10802,-2.36916 -9.31013,-2.96353c-1.14548,-0.21262 -8.39504,-0.30229 -9.48443,-0.60815c-3.2709,-0.91834 -6.15398,-2.90457 -9.35019,-4.05628c-1.48465,-0.53497 -2.9602,-1.1026 -4.47462,-1.54633c-1.15118,-0.3373 -2.57965,-0.03626 -3.51021,-0.79324c-0.48544,-0.39489 -3.74579,-6.59306 -3.96968,-7.45635c-0.25128,-0.96895 0.23825,-2.03077 0,-3.003c-0.63604,-2.59557 -2.2998,-4.85749 -2.98613,-7.44022c-0.12131,-0.45652 -1.29677,-6.49049 -1.57309,-7.90283c-0.01815,-7.08911 -0.01217,-14.17823 -0.01217,-21.26737c0,-4.05606 -0.59048,-8.36417 1.9734,-11.97229c1.98601,-2.79488 7.8787,-5.7147 10.6406,-7.77475c2.9211,-2.1788 4.99387,-5.42541 7.82056,-7.71184c1.89233,-1.53065 4.10358,-2.67364 5.85178,-4.36703c3.00019,-2.90612 3.28851,-5.49306 5.71709,-8.6749c2.85438,-3.7397 3.54849,-3.55912 7.45973,-5.47585c5.69632,-0.10649 11.39368,-0.06688 17.0909,-0.06688c0.89775,0 6.52674,-0.04805 6.96271,0.1903c1.31861,0.7209 2.54536,1.73751 3.47064,2.9497z" fill="#1d9629" stroke="none" stroke-width="0.5" stroke-linecap="butt"/><text transform="translate(29.27319,88.90779) scale(1.86648,1.86648)" font-size="40" xml:space="preserve" fill="#961d1d" fill-rule="nonzero" stroke="none" stroke-width="1" stroke-linecap="butt" stroke-linejoin="miter" stroke-miterlimit="10" stroke-dasharray="" stroke-dashoffset="0" font-family="Sans Serif" font-weight="normal" text-anchor="start" style="mix-blend-mode: normal"><tspan x="0" dy="0">WIP</tspan></text><path d="M53.77961,365.17107v-253.22501h91.18203v253.22501z" fill-opacity="0.01" fill="#000000" stroke="none" stroke-width="0" stroke-linecap="butt"/><path d="M59.5263,362.95016c0,0 -0.63536,-94.38387 -0.79335,-118.01201c-0.05451,-8.15261 8.18688,-36.76129 40.20201,-36.9211c31.60235,-0.15775 39.85672,29.48704 39.84884,36.89673c-0.07659,46.24274 0.65429,117.98648 0.65429,117.98648l-10.49667,0.09614l-0.15882,-114.84311c0,0 0.07549,-3.0993 -2.81625,-3.15415c-3.43441,-0.06514 -2.94538,3.11562 -2.94538,3.11562l0.20548,114.86995l-48.21366,0.07222l-0.30539,-115.23309c0,0 0.27949,-2.919 -2.8856,-2.93443c-3.11083,-0.01515 -2.81569,2.90899 -2.81569,2.90899l0.35311,115.0668z" fill="#000000" stroke="#a10000" stroke-width="2" stroke-linecap="butt"/><path d="M114.12344,258.89236c-0.57113,0 -1.03411,-0.46299 -1.03411,-1.03411c0,-0.57113 0.46299,-1.03413 1.03411,-1.03413c0.57113,0 1.03411,0.463 1.03411,1.03413c0,0.57113 -0.46299,1.03411 -1.03411,1.03411z" fill="#000000" stroke="none" stroke-width="1.5" stroke-linecap="butt"/><path d="M108.8636,263.12795c-4.4635,-0.31439 -6.55245,-1.79392 -6.16985,-2.58011c0.11788,-0.24224 2.84645,1.06355 6.97038,1.3048c6.40897,0.37493 8.51033,-0.63173 8.51033,-0.63173v1.34616c0,0 -2.4135,1.04672 -9.31086,0.56089z" fill="#000000" stroke="#000000" stroke-width="0" stroke-linecap="butt"/><path d="M81.05084,257.85825c0,-0.57113 0.46299,-1.03413 1.03411,-1.03413c0.57113,0 1.03413,0.463 1.03413,1.03413c0,0.57113 -0.463,1.03411 -1.03413,1.03411c-0.57113,0 -1.03411,-0.46299 -1.03411,-1.03411z" fill="#000000" stroke="none" stroke-width="1.5" stroke-linecap="butt"/><path d="M87.34483,263.12795c-6.89736,0.48585 -9.31086,-0.56089 -9.31086,-0.56089v-1.34616c0,0 2.10136,1.00666 8.51033,0.63173c4.12393,-0.24126 6.85251,-1.54704 6.97039,-1.3048c0.3826,0.78618 -1.70634,2.26571 -6.16985,2.58011z" fill="#000000" stroke="#000000" stroke-width="0" stroke-linecap="butt"/><path d="M98.62529,319.67967c-0.81895,0 -1.48284,-0.66389 -1.48284,-1.48284c0,-0.81895 0.66389,-1.48284 1.48284,-1.48284c0.81895,0 1.48284,0.66389 1.48284,1.48284c0,0.81895 -0.66389,1.48284 -1.48284,1.48284z" data-paper-data="{&quot;index&quot;:null}" fill="#000000" stroke="none" stroke-width="1.5" stroke-linecap="butt"/><path d="M74.56203,362.96457v-119.20147c0,0 0.75721,-9.73105 0.75721,-14.63937c0,-4.498 -0.75721,-13.6872 -0.75721,-13.6872c0,0 2.67319,-2.35297 4.6557,-3.74807c1.98251,-1.3951 5.17197,-2.80371 5.17197,-2.80371c0,0 -0.6016,40.10902 14.55952,40.03867c15.43477,-0.07162 13.83154,-40.03867 13.83154,-40.03867c0,0 3.91276,1.51959 6.16585,2.94655c2.25309,1.42695 4.75379,3.60523 4.75379,3.60523c0,0 -0.75721,9.42463 -0.75721,14.19201c0,4.84193 0.75721,14.63937 0.75721,14.63937v118.69667z" fill="#444444" stroke="#a10000" stroke-width="2" stroke-linecap="butt"/><path d="M54.42282,162.4387c0,0 6.16329,-5.92187 6.29161,-6.78761c0.33654,-2.27063 -0.16776,-40.17317 35.96775,-41.57382c44.63633,-0.91362 39.01489,35.34872 41.53088,42.1903c3.44981,9.38084 6.15664,17.40016 6.15664,17.40016c0,0 -2.76715,-2.05351 -4.0797,-3.13397c-1.2242,-1.00773 -3.80143,-3.14585 -3.80143,-3.14585c0,0 3.09111,10.3481 1.31092,20.69498c-1.5623,9.48098 -7.29782,17.22543 -7.29782,17.22543l-1.15522,-2.34735c0,0 -1.02266,2.19794 -2.16005,3.33274c-1.1374,1.13479 -3.43873,2.91273 -3.43873,2.91273l-0.09205,-3.70421c0,0 -7.0601,11.01795 -24.35066,10.87154c-16.30625,-0.25547 -26.07151,-10.6752 -26.07151,-10.6752l-0.1162,2.65484c0,0 -3.89477,-3.29276 -6.18145,-9.70754c-2.72545,-7.64567 -3.23946,-12.24324 -3.23946,-12.24324c0,0 -2.33908,1.89916 -5.71704,2.7744c-4.23278,1.09673 -6.94665,0.34526 -6.94665,0.34526c0,0 3.60795,-2.71717 5.58396,-4.76989c1.76007,-1.8284 2.64658,-3.37722 2.64658,-3.37722c0,0 -2.10758,1.0847 -4.23277,1.61795c-2.21739,0.5564 -4.03008,0.53093 -4.03008,0.53093c0,0 4.97492,-5.03728 7.03074,-10.87429c1.94102,-5.51108 2.09972,-10.95731 2.09972,-10.95731c0,0 -1.36165,0.66163 -3.33013,0.79513c-1.24776,0.08463 -2.37785,-0.0489 -2.37785,-0.0489z" fill="#a10000" stroke="none" stroke-width="1.5" stroke-linecap="butt"/><path d="M71.2087,173.76032c-0.57709,-7.29323 0.335,-17.15448 0.335,-17.15448c0,0 3.41059,-0.04124 13.91429,-3.14424c8.0696,-2.38394 20.54731,-9.48722 20.54731,-9.48722c0,0 -2.16005,3.00503 -3.40781,4.46015c-1.32651,1.54696 -3.99292,4.56297 -3.99292,4.56297c0,0 7.838,-1.66761 14.67476,-4.72931c8.56837,-3.53575 10.59252,-6.05309 12.95042,-4.5927c2.7829,1.72362 1.03006,23.1827 0.71846,28.74062c-0.42163,5.66922 -2.53327,9.49969 -3.15031,12.52053c-0.61704,3.02084 -0.4096,6.13662 -2.20622,16.0397c-1.12121,6.18021 -4.16183,8.92466 -10.01942,14.66081c-5.85759,5.73616 -9.05378,9.25275 -13.01359,9.32173c-3.81077,0.06639 -8.93565,-5.1002 -13.93542,-10.38244c-5.32393,-5.62474 -8.87489,-8.47713 -9.71551,-15.13975c-0.75707,-6.00039 -0.77653,-9.90853 -1.12266,-15.24835c-0.25298,-3.90273 -2.26119,-6.44504 -2.57636,-10.42801z" fill="#000000" stroke="#a10000" stroke-width="1.5" stroke-linecap="butt"/><path d="M119.2787,158.63996c0,0 1.52429,0.31807 4.2558,1.11029c2.49492,0.72361 4.44935,1.74403 4.44935,1.74403l0.1951,1.17035c0,0 -7.24963,-3.12997 -15.1158,-2.4706c-6.2896,0.52724 -9.96319,2.8124 -9.96319,2.8124l0.04575,-4.17683c0,0 3.12748,-1.70421 7.86366,-1.85557c4.90428,-0.15672 8.09084,0.59125 8.09084,0.59125z" data-paper-data="{&quot;index&quot;:null}" fill="#a10000" stroke="none" stroke-width="1.5" stroke-linecap="butt"/><path d="M106.51457,201.62748c0.5704,0.21186 3.08357,1.39942 6.02385,2.59586c2.9637,1.20597 7.21362,2.29294 7.19412,2.4605c-0.02476,0.21265 -10.43477,0.22694 -13.67937,0.63224c-2.71902,0.33964 -6.68867,0.70564 -6.68867,0.70564c0,0 -7.10401,-1.16169 -13.27235,-2.44521c-4.94371,-1.02869 -10.39929,-1.66108 -10.40995,-1.75461c-0.01439,-0.12613 3.86835,-0.71071 6.82417,-1.39467c1.14585,-0.49661 5.43971,-1.48513 5.43971,-1.48513c0,0 4.95585,-0.27766 7.60826,0.579c2.84203,0.91791 2.83546,2.44556 3.0831,2.46906c0,0 1.18436,-1.74932 2.36886,-2.10461c1.18451,-0.35528 5.08219,-0.41633 5.50828,-0.25808z" fill="#000000" stroke="#a10000" stroke-width="1.4" stroke-linecap="butt"/><path d="M87.86659,206.18103c5.09114,1.02674 11.91756,2.80736 11.91756,2.80736c0,0 5.78976,-1.55585 8.44678,-1.8344c2.05992,-0.21596 11.216,-0.70654 11.26026,-0.33377c0.04328,0.36447 -9.03119,12.90033 -21.14808,12.44714c-13.76954,-0.43578 -22.86459,-15.13559 -22.82675,-15.30472c0.03784,-0.16913 7.2591,1.19165 12.35024,2.2184z" fill="#000000" stroke="#a10000" stroke-width="1.9" stroke-linecap="butt"/><path d="M98.84085,203.18739c-1.03376,0 -3.5381,-3.26042 -3.7867,-5.3637c-0.22243,-1.88186 1.31512,-3.82799 3.7867,-3.82799c2.47159,0 4.2021,0.49077 4.02999,4.18853c-0.14607,3.13818 -1.55841,5.00317 -4.02999,5.00317z" fill="#000000" stroke="#a10000" stroke-width="1.15" stroke-linecap="butt"/><path d="M102.44295,173.0937c0,0 0.1026,3.96976 0.00576,7.12662c-0.19174,6.25113 -1.08147,27.7607 -1.08147,27.7607l-2.98167,0.00864c0,0 -0.80294,-4.17274 -1.12322,-9.49979c-0.43353,-7.21063 -0.4495,-16.29321 -0.76344,-19.63229c-0.29758,-3.16513 -0.89593,-5.71453 -0.89593,-5.71453" fill="#000000" stroke="#a10000" stroke-width="1.3" stroke-linecap="round"/><path d="M72.90835,183.88354c0,0 -4.93211,-3.51705 -6.16417,-8.97502c-1.29636,-5.74284 -1.46118,-9.7328 0.48013,-9.99193c1.94131,-0.25915 2.70321,2.37692 3.73262,8.35569c1.0294,5.97877 1.95143,10.61127 1.95143,10.61127z" data-paper-data="{&quot;index&quot;:null}" fill="#444444" stroke="#cc1414" stroke-width="1" stroke-linecap="butt"/><path d="M72.70575,179.93598c0,0 -3.56385,-2.92338 -4.31816,-8.45061c-0.42079,-3.08327 2.15675,-2.28016 2.15675,-2.28016" fill="none" stroke="#000000" stroke-width="0.25" stroke-linecap="round"/><path d="M75.71916,173.28008c0.07093,-4.89188 4.83834,-8.93609 10.21137,-8.8582c5.37302,0.0779 9.02724,4.2484 8.95632,9.14029c-0.07093,4.89188 -4.12352,8.79439 -9.49655,8.7165c-5.37302,-0.0779 -9.74207,-4.1067 -9.67114,-8.99859z" fill="#444444" stroke="#000000" stroke-width="1.4" stroke-linecap="butt"/><path d="M80.49011,172.23136c0.03999,-2.75843 2.30855,-4.96213 5.06696,-4.92214c2.75843,0.03999 4.96213,2.30855 4.92214,5.06696c-0.03999,2.75843 -2.30854,4.96213 -5.06696,4.92214c-2.75843,-0.03999 -4.96213,-2.30855 -4.92214,-5.06696z" fill="#a10000" stroke="none" stroke-width="1.5" stroke-linecap="butt"/><path d="M102.77542,173.28081c0.20353,-4.88817 4.45264,-8.85847 9.77048,-8.85847c5.31783,0 9.27453,3.96607 9.27453,8.85847c0,4.8924 -3.88585,9.07104 -9.69964,9.14188c-5.52997,0.06739 -9.55792,-4.03692 -9.34537,-9.14188z" fill="#444444" stroke="#000000" stroke-width="1.4" stroke-linecap="butt"/><path d="M107.37819,172.1997c0,-2.81845 2.2848,-5.10325 5.10325,-5.10325c2.81845,0 5.10325,2.2848 5.10325,5.10325c0,2.81845 -2.28479,5.10325 -5.10325,5.10325c-2.81845,0 -5.10325,-2.2848 -5.10325,-5.10325z" fill="#a10000" stroke="none" stroke-width="1.5" stroke-linecap="butt"/><path d="M75.65072,170.87167c0,0 0.06357,-7.09909 10.60111,-6.9493c9.47101,0.13061 9.55554,7.40786 9.55554,7.40786z" fill="#000000" stroke="#000000" stroke-width="1.15" stroke-linecap="butt"/><path d="M102.39779,170.30685c0,0 -0.24686,-7.8267 11.19813,-7.53293c9.71427,0.27595 9.54677,7.9873 9.54677,7.9873z" fill="#000000" stroke="#000000" stroke-width="1.15" stroke-linecap="butt"/><path d="M79.18058,162.73624c0,0 3.36963,-1.819 8.03244,-2.28178c5.16698,-0.51283 7.76823,-0.06628 7.76823,-0.06628l0.29508,4.13747c0,0 -3.83554,-0.68065 -8.01795,-0.52113c-5.59346,0.21333 -6.64488,1.43293 -10.89774,1.89119c-3.64408,0.39266 -6.73723,0.15884 -6.73723,0.15884l-0.02589,-1.23155c0,0 3.59517,0.07398 5.23371,-0.06836c1.35239,-0.11749 3.9757,-0.93808 3.9757,-0.93808z" fill="#a10000" stroke="none" stroke-width="1.5" stroke-linecap="butt"/><path d="M127.1415,173.27227c1.0294,-5.97877 1.7913,-8.61483 3.73262,-8.35569c1.94131,0.25914 1.77649,4.24909 0.48013,9.99193c-1.23206,5.45797 -6.16417,8.97502 -6.16417,8.97502c0,0 0.92203,-4.6325 1.95143,-10.61127z" data-paper-data="{&quot;index&quot;:null}" fill="#444444" stroke="#cc1414" stroke-width="1" stroke-linecap="butt"/><path d="M127.55405,169.20521c0,0 2.57754,-0.80312 2.15675,2.28016c-0.75431,5.52723 -4.31816,8.45061 -4.31816,8.45061" data-paper-data="{&quot;index&quot;:null}" fill="none" stroke="#000000" stroke-width="0.25" stroke-linecap="round"/><path d="M59.31427,239.7808l-1.33333,-3.55556l-31.33333,-66.6111l40,52" fill="none" stroke="#a10000" stroke-width="2" stroke-linecap="round"/><path d="M129.98095,222.22525l41,-52l-32,66l-1,3.22223" fill="none" stroke="#a10000" stroke-width="2" stroke-linecap="round"/><path d="M31.73095,177.53774l31.25,50.5" fill="none" stroke="#da7f7f" stroke-width="2" stroke-linecap="round"/><path d="M133.73095,228.03774l32,-49.25" fill="none" stroke="#da7f7f" stroke-width="2" stroke-linecap="round"/><path d="M82.90626,261.66049c0.08489,-0.08694 0.14088,-0.1336 0.14088,-0.1336c2.91134,-2.42294 7.20444,-6.31169 11.47234,-5.18742c1.50185,0.39562 2.85636,1.35162 3.97779,2.42609c1.38619,1.32815 0.49111,2.92489 2.45867,3.26563c2.45511,0.42517 8.35602,-1.35524 10.12609,0.64848c3.93395,4.45325 -2.71847,12.5837 -6.68921,14.35648c-0.13487,0.06021 -2.91336,0.70322 -4.93587,1.0456c1.69436,0.52624 3.86239,1.28598 4.12859,1.98772c0.74374,1.96057 -2.68655,7.63522 -4.3864,8.56108c-2.40096,1.30774 -8.1155,0.7029 -10.88487,0.65023c-1.50646,-0.02865 -3.12047,0.41451 -4.51773,-0.14932c-1.43075,-0.57734 -2.83787,-1.66051 -3.46293,-3.07106c-0.59511,-1.34296 0.11896,-2.93559 0.15043,-4.40416c0.04073,-1.90116 -0.24453,-5.17354 0.86787,-6.75772c0.47741,-0.67988 1.60804,-0.41848 2.41562,-0.61334c0.62201,-0.15008 -1.32869,0.01966 -1.90098,-0.26653c-3.04408,-1.52221 -3.9625,-2.04512 -4.64635,-5.63984c-0.28397,-1.49273 -0.81528,-3.24833 -0.04525,-4.55827c0.74826,-1.27292 2.61879,-1.36485 3.92818,-2.04727z" fill="#000000" stroke="none" stroke-width="0.5" stroke-linecap="butt"/><path d="M92.20383,213.07096c-0.99388,-0.11043 -0.88345,-1.10432 -0.88345,-1.10432l0.11111,-1c0.1127,-1.01428 0.21759,-1.9791 0.21611,-3.00068c0,0 0,-1 1,-1c1,0 1,1 1,1c-0.00144,1.09529 -0.10755,2.13448 -0.22834,3.22154l-0.11111,1c0,0 -0.11043,0.99388 -1.10432,0.88345z" fill="#a10000" stroke="none" stroke-width="0.5" stroke-linecap="butt"/><path d="M91.85593,188.41966c1,0 1,1 1,1c0,0.66666 0,2.16667 0,2.83334c-0.05731,5.14862 -4.22618,5.83936 -8.5,5.83333c-1.11675,-0.00158 -2.74787,-0.00759 -3.71233,-0.66199c-1.98353,-1.34585 -2.28078,-4.98308 -2.28767,-7.17133c0,0 0,-1 1,-1c1,0 1,1 1,1c-0.00507,1.36575 0.08365,4.66131 1.379,5.49533c3.0154,1.9415 9.18143,0.43454 9.121,-3.49533c0,-0.66666 0,-1.33334 0,-2v-0.83334c0,0 0,-1 1,-1z" fill="#ffffff" stroke="none" stroke-width="0.5" stroke-linecap="butt"/><path d="M116.85593,190.753c1,0 1,1 1,1c0,1.05555 0,2.44445 0,3.5c-0.01024,0.91977 0.11694,1.94096 -0.62622,2.7071c-1.7884,1.8437 -7.94217,1.14257 -10.278,0.95705c-0.68009,-0.05402 -2.51673,-0.32614 -2.96955,-0.79038c-1.31681,-1.35002 -0.64821,-5.04217 -0.26304,-6.61631c0,0 0.24254,-0.97014 1.21268,-0.72761c0.97015,0.24254 0.7276,1.21268 0.7276,1.21268c-0.18662,0.72795 -0.90545,4.12607 -0.26304,4.71703c0.38794,0.35686 2.11848,0.20771 2.62623,0.2071c2.11399,-0.00254 7.8753,1.0624 7.83334,-1.66666c0,-1.05555 0,-2.11112 0,-3.16667v-0.33333c0,0 0,-1 1,-1z" fill="#ffffff" stroke="none" stroke-width="0.5" stroke-linecap="butt"/><path d="M84.85593,193.58633c-1,0 -1,-1 -1,-1l0.03848,-1.10805c0.48569,-1.64382 0.36534,-3.36521 0.6418,-5.05635c0,0 0.1644,-0.9864 1.15079,-0.822c0.98639,0.1644 0.822,1.15079 0.822,1.15079c-0.30275,1.77643 -0.20591,3.53011 -0.69154,5.27699l0.03848,0.55861c0,0 0,1 -1,1z" fill="#ffffff" stroke="none" stroke-width="0.5" stroke-linecap="butt"/><path d="M110.5397,195.535c-0.94869,-0.31623 -0.63246,-1.26491 -0.63246,-1.26491l0.31151,-0.92482c0.35908,-2.14916 -0.34718,-3.97988 -0.36282,-6.09228c0,0 0,-1 1,-1c1,0 1,1 1,1c-0.02135,2.27081 0.69344,4.2326 0.30384,6.57439l-0.35516,1.07518c0,0 -0.31623,0.94868 -1.26492,0.63245z" fill="#ffffff" stroke="none" stroke-width="0.5" stroke-linecap="butt"/><path d="M92.68927,183.753c0,0.5954 -0.35451,0.8363 -0.64138,0.93377c-0.11132,0.04278 -0.23224,0.06623 -0.35862,0.06623h-0.66667c-4.04797,-0.01503 -8.13184,0.4873 -12.16666,0.5c0,0 -1,0 -1,-1c0,-1 1,-1 1,-1c4.02851,0.01496 8.12327,-0.48727 12.16666,-0.5h0.66667c0,0 0.16369,0 0.35862,0.06623c0.28687,0.09746 0.64138,0.33836 0.64138,0.93377z" fill="#ffffff" stroke="none" stroke-width="0.5" stroke-linecap="butt"/><path d="M118.85593,184.58633c0,1 -1,1 -1,1c-4.16666,0 -8.66667,0 -12.83334,0c0,0 -1,0 -1,-1c0,-1 1,-1 1,-1c4.16666,0 8.33334,0 12.5,0h0.33333c0,0 1,0 1,1z" fill="#ffffff" stroke="none" stroke-width="0.5" stroke-linecap="butt"/><path d="M77.85593,187.253c0,-0.55229 0.44771,-1 1,-1c0.55229,0 1,0.44771 1,1c0,0.55229 -0.44771,1 -1,1c-0.55229,0 -1,-0.44771 -1,-1z" fill="#ffffff" stroke="none" stroke-width="0.5" stroke-linecap="butt"/><path d="M90.68927,186.253c0,-0.55228 0.44771,-1 1,-1c0.55229,0 1,0.44772 1,1c0,0.55229 -0.44771,1 -1,1c-0.55229,0 -1,-0.44771 -1,-1z" fill="#ffffff" stroke="none" stroke-width="0.5" stroke-linecap="butt"/><path d="M103.85593,188.253c0,-0.55229 0.44771,-1 1,-1c0.55229,0 1,0.44771 1,1c0,0.55229 -0.44771,1 -1,1c-0.55229,0 -1,-0.44771 -1,-1z" fill="#ffffff" stroke="none" stroke-width="0.5" stroke-linecap="butt"/><path d="M115.85593,187.91966c0,-0.55229 0.44772,-1 1,-1c0.55228,0 1,0.44771 1,1c0,0.55229 -0.44772,1 -1,1c-0.55228,0 -1,-0.44771 -1,-1z" fill="#ffffff" stroke="none" stroke-width="0.5" stroke-linecap="butt"/><path d="M84.35593,172.91966c0,-0.55228 0.44771,-1 1,-1c0.55229,0 1,0.44772 1,1c0,0.55228 -0.44771,1 -1,1c-0.55229,0 -1,-0.44772 -1,-1z" fill="#ffffff" stroke="none" stroke-width="0.5" stroke-linecap="butt"/><path d="M111.3944,172.1248c0,-0.55228 0.44771,-1 1,-1c0.55229,0 1,0.44772 1,1c0,0.55228 -0.44771,1 -1,1c-0.55229,0 -1,-0.44772 -1,-1z" fill="#ffffff" stroke="none" stroke-width="0.5" stroke-linecap="butt"/><path d="M111.18927,227.41966c0,1 -1,1 -1,1h-0.33334c-0.91536,0 -3.52709,-0.45437 -4.24454,0.32187c-0.59572,0.64453 -0.08879,3.67661 -0.08879,4.51147c0,4.50936 -1.47674,6.4373 -5.91752,7.16325c-2.62784,0 -5.52169,-0.85215 -6.06957,-3.83641c-0.30069,-1.63786 -0.38189,-3.34837 -0.66666,-5c-0.12246,-0.71025 0.1594,-1.70293 -0.62377,-2.20177c-1.39781,-0.89033 -3.13603,-0.96121 -4.72248,-0.95841c0,0 -1,0 -1,-1c0,-1 1,-1 1,-1c2.34083,0.00375 5.58087,0.19815 6.87842,2.52212c2.00923,3.59862 -0.83603,9.48129 5.0391,9.48129c0.78566,-0.1339 2.76129,-0.16737 3.32703,-0.82528c2.26469,-2.63366 -0.87651,-7.64959 1.33333,-10.16666c1.28836,-1.4675 4.04651,-1.01147 5.75546,-1.01147h0.33334c0,0 1,0 1,1z" fill="#ffffff" stroke="none" stroke-width="0.5" stroke-linecap="butt"/><path d="M62.0397,252.72945c-0.94868,-0.31623 -0.63246,-1.26491 -0.63246,-1.26491l0.3219,-0.96336c1.38154,-5.39829 1.29389,-14.03765 6.84624,-16.94817c0,0 0.89443,-0.44721 1.34164,0.44721c0.44721,0.89443 -0.44721,1.34164 -0.44721,1.34164c-1.78267,0.83165 -2.13005,2.13677 -2.86603,3.84346c-1.59187,3.69143 -1.98256,7.91369 -2.95439,11.87503l-0.34477,1.03664c0,0 -0.31623,0.94868 -1.26491,0.63246z" fill="#ffffff" stroke="none" stroke-width="0.5" stroke-linecap="butt"/><path d="M133.03969,247.72945c-0.94868,-0.31623 -0.63246,-1.26491 -0.63246,-1.26491l0.29493,-0.84395c-0.03921,-4.57467 -1.67922,-5.82369 -4.45292,-9.20583c-0.95547,-1.16506 -0.58472,-2.46696 -2.13586,-2.66385c0,0 -0.97014,-0.24254 -0.72761,-1.21268c0.24254,-0.97014 1.21268,-0.72761 1.21268,-0.72761c2.39955,0.75499 1.74143,1.62113 3.19747,3.33615c1.84487,2.173 4.06831,3.81869 4.86657,6.73757c0.28591,1.04545 0.02103,3.03944 0.01384,4.0566l-0.37174,1.15605c0,0 -0.31623,0.94868 -1.26491,0.63246z" fill="#ffffff" stroke="none" stroke-width="0.5" stroke-linecap="butt"/><path d="M359.46229,362.16807v-253.22501h91.18203v253.22501z" fill-opacity="0.01" fill="#000000" stroke="none" stroke-width="0" stroke-linecap="butt"/><path d="M365.20899,359.94716c0,0 -0.63536,-94.38387 -0.79335,-118.01201c-0.05451,-8.15261 8.18688,-36.76129 40.20201,-36.9211c31.60235,-0.15775 39.85672,29.48704 39.84884,36.89673c-0.07659,46.24274 0.65429,117.98648 0.65429,117.98648l-10.49667,0.09614l-0.15882,-114.84311c0,0 0.07549,-3.0993 -2.81625,-3.15415c-3.43441,-0.06514 -2.94538,3.11562 -2.94538,3.11562l0.20548,114.86995l-48.21366,0.07222l-0.30539,-115.23309c0,0 0.27949,-2.919 -2.8856,-2.93443c-3.11083,-0.01515 -2.81569,2.90899 -2.81569,2.90899l0.35311,115.0668z" fill="#ffffff" stroke="#000000" stroke-width="2" stroke-linecap="butt"/><path d="M419.80614,255.8894c-0.57113,0 -1.03411,-0.46299 -1.03411,-1.03411c0,-0.57113 0.46299,-1.03413 1.03411,-1.03413c0.57113,0 1.03411,0.463 1.03411,1.03413c0,0.57113 -0.46299,1.03411 -1.03411,1.03411z" fill="#000000" stroke="none" stroke-width="1.5" stroke-linecap="butt"/><path d="M414.54628,260.12498c-4.4635,-0.31439 -6.55245,-1.79392 -6.16985,-2.58011c0.11788,-0.24224 2.84645,1.06355 6.97038,1.3048c6.40897,0.37493 8.51033,-0.63173 8.51033,-0.63173v1.34616c0,0 -2.4135,1.04672 -9.31086,0.56089z" fill="#000000" stroke="#000000" stroke-width="0" stroke-linecap="butt"/><path d="M386.73353,254.85529c0,-0.57113 0.46299,-1.03413 1.03411,-1.03413c0.57113,0 1.03413,0.463 1.03413,1.03413c0,0.57113 -0.463,1.03411 -1.03413,1.03411c-0.57113,0 -1.03411,-0.46299 -1.03411,-1.03411z" fill="#000000" stroke="none" stroke-width="1.5" stroke-linecap="butt"/><path d="M393.02751,260.12498c-6.89736,0.48585 -9.31086,-0.56089 -9.31086,-0.56089v-1.34616c0,0 2.10136,1.00666 8.51033,0.63173c4.12393,-0.24126 6.85251,-1.54704 6.97039,-1.3048c0.3826,0.78618 -1.70634,2.26571 -6.16985,2.58011z" fill="#000000" stroke="#000000" stroke-width="0" stroke-linecap="butt"/><path d="M404.30797,316.67667c-0.81895,0 -1.48284,-0.66389 -1.48284,-1.48284c0,-0.81895 0.66389,-1.48284 1.48284,-1.48284c0.81895,0 1.48284,0.66389 1.48284,1.48284c0,0.81895 -0.66389,1.48284 -1.48284,1.48284z" data-paper-data="{&quot;index&quot;:null}" fill="#000000" stroke="none" stroke-width="1.5" stroke-linecap="butt"/><path d="M380.24472,359.96157v-119.20147c0,0 0.75721,-9.73105 0.75721,-14.63937c0,-4.498 -0.75721,-13.6872 -0.75721,-13.6872c0,0 2.67319,-2.35297 4.6557,-3.74807c1.98251,-1.3951 5.17197,-2.80371 5.17197,-2.80371c0,0 -0.6016,20.05162 14.55952,19.98127c15.43477,-0.07162 13.83154,-19.98127 13.83154,-19.98127c0,0 3.91276,1.51959 6.16585,2.94655c2.25309,1.42695 4.75379,3.60523 4.75379,3.60523c0,0 -0.75721,9.42463 -0.75721,14.19201c0,4.84193 0.75721,14.63937 0.75721,14.63937v118.69667z" fill="url(#color-5)" stroke="#000000" stroke-width="2" stroke-linecap="butt"/><path d="M360.1055,159.43571c0,0 6.16329,-5.92187 6.29161,-6.78761c0.33654,-2.27063 -0.16776,-40.17317 35.96775,-41.57382c44.63633,-0.91362 39.01489,35.34872 41.53088,42.1903c3.44981,9.38084 6.15664,17.40016 6.15664,17.40016c0,0 -2.76715,-2.05351 -4.0797,-3.13397c-1.2242,-1.00773 -3.80143,-3.14585 -3.80143,-3.14585c0,0 3.09111,10.3481 1.31092,20.69498c-1.5623,9.48098 -7.29782,17.22543 -7.29782,17.22543l-1.15522,-2.34735c0,0 -1.02266,2.19794 -2.16005,3.33274c-1.1374,1.13479 -3.43873,2.91273 -3.43873,2.91273l-0.09205,-3.70421c0,0 -7.0601,11.01795 -24.35066,10.87154c-16.30625,-0.25547 -26.07151,-10.6752 -26.07151,-10.6752l-0.1162,2.65484c0,0 -3.89477,-3.29276 -6.18145,-9.70754c-2.72545,-7.64567 -3.23946,-12.24324 -3.23946,-12.24324c0,0 -2.33908,1.89916 -5.71704,2.7744c-4.23278,1.09673 -6.94665,0.34526 -6.94665,0.34526c0,0 3.60795,-2.71717 5.58396,-4.76989c1.76007,-1.8284 2.64658,-3.37722 2.64658,-3.37722c0,0 -2.10758,1.0847 -4.23277,1.61795c-2.21739,0.5564 -4.03008,0.53093 -4.03008,0.53093c0,0 4.97492,-5.03728 7.03074,-10.87429c1.94102,-5.51108 2.09972,-10.95731 2.09972,-10.95731c0,0 -1.36165,0.66163 -3.33013,0.79513c-1.24776,0.08463 -2.37785,-0.0489 -2.37785,-0.0489z" fill="#000000" stroke="none" stroke-width="1.5" stroke-linecap="butt"/><path d="M376.89139,170.75733c-0.57709,-7.29323 0.335,-17.15448 0.335,-17.15448c0,0 3.41059,-0.04124 13.91429,-3.14424c8.0696,-2.38394 20.54731,-9.48722 20.54731,-9.48722c0,0 -2.16005,3.00503 -3.40781,4.46015c-1.32651,1.54696 -3.99292,4.56297 -3.99292,4.56297c0,0 7.838,-1.66761 14.67476,-4.72931c8.56837,-3.53575 10.59252,-6.05309 12.95042,-4.5927c2.7829,1.72362 1.03006,23.1827 0.71846,28.74062c-0.42163,5.66922 -2.53327,9.49969 -3.15031,12.52053c-0.61704,3.02084 -0.4096,6.13662 -2.20622,16.0397c-1.12121,6.18021 -4.16183,8.92466 -10.01942,14.66081c-5.85759,5.73616 -9.05378,9.25275 -13.01359,9.32173c-3.81077,0.06639 -8.93565,-5.1002 -13.93542,-10.38244c-5.32393,-5.62474 -8.87489,-8.47713 -9.71551,-15.13975c-0.75707,-6.00039 -0.77653,-9.90853 -1.12266,-15.24835c-0.25298,-3.90273 -2.26119,-6.44504 -2.57636,-10.42801z" fill="#ffffff" stroke="#000000" stroke-width="1.5" stroke-linecap="butt"/><path d="M412.19726,198.62451c0.5704,0.21186 3.08357,1.39942 6.02385,2.59586c2.9637,1.20597 7.21362,2.29294 7.19412,2.4605c-0.02476,0.21265 -10.43477,0.22694 -13.67937,0.63224c-2.71902,0.33964 -6.68867,0.70564 -6.68867,0.70564c0,0 -7.10401,-1.16169 -13.27235,-2.44521c-4.94371,-1.02869 -10.39929,-1.66108 -10.40995,-1.75461c-0.01439,-0.12613 3.86835,-0.71071 6.82417,-1.39467c1.14585,-0.49661 5.43971,-1.48513 5.43971,-1.48513c0,0 4.95585,-0.27766 7.60826,0.579c2.84203,0.91791 2.83546,2.44556 3.0831,2.46906c0,0 1.18436,-1.74932 2.36886,-2.10461c1.18451,-0.35528 5.08219,-0.41633 5.50828,-0.25808z" fill="#ffffff" stroke="#000000" stroke-width="1.4" stroke-linecap="butt"/><path d="M393.54927,203.17804c5.09114,1.02674 11.91756,2.80736 11.91756,2.80736c0,0 5.78976,-1.55585 8.44678,-1.8344c2.05992,-0.21596 11.216,-0.70654 11.26026,-0.33377c0.04328,0.36447 -9.03119,12.90033 -21.14808,12.44714c-13.76954,-0.43578 -22.86459,-15.13559 -22.82675,-15.30472c0.03784,-0.16913 7.2591,1.19165 12.35024,2.2184z" fill="#ffffff" stroke="#000000" stroke-width="1.9" stroke-linecap="butt"/><path d="M404.52353,200.18439c-1.03376,0 -3.5381,-3.26042 -3.7867,-5.3637c-0.22243,-1.88186 1.31512,-3.82799 3.7867,-3.82799c2.47159,0 4.2021,0.49077 4.02999,4.18853c-0.14607,3.13818 -1.55841,5.00317 -4.02999,5.00317z" fill="#ffffff" stroke="#000000" stroke-width="1.15" stroke-linecap="butt"/><path d="M408.12564,170.09071c0,0 0.1026,3.96976 0.00576,7.12662c-0.19174,6.25113 -1.08147,27.7607 -1.08147,27.7607l-2.98167,0.00864c0,0 -0.80294,-4.17274 -1.12322,-9.49979c-0.43353,-7.21063 -0.4495,-16.29321 -0.76344,-19.63229c-0.29758,-3.16513 -0.89593,-5.71453 -0.89593,-5.71453" fill="#ffffff" stroke="#000000" stroke-width="1.3" stroke-linecap="round"/><path d="M378.59103,180.88054c0,0 -4.93211,-3.51705 -6.16417,-8.97502c-1.29636,-5.74284 -1.46118,-9.7328 0.48013,-9.99193c1.94131,-0.25915 2.70321,2.37692 3.73262,8.35569c1.0294,5.97877 1.95143,10.61127 1.95143,10.61127z" data-paper-data="{&quot;index&quot;:null}" fill="#ffffff" stroke="#000000" stroke-width="1" stroke-linecap="butt"/><path d="M378.38844,176.93299c0,0 -3.56385,-2.92338 -4.31816,-8.45061c-0.42079,-3.08327 2.15675,-2.28016 2.15675,-2.28016" fill="none" stroke="#000000" stroke-width="0.25" stroke-linecap="round"/><path d="M381.40184,170.27709c0.07093,-4.89188 4.83834,-8.93609 10.21137,-8.8582c5.37302,0.0779 9.02724,4.2484 8.95632,9.14029c-0.07093,4.89188 -4.12352,8.79439 -9.49655,8.7165c-5.37302,-0.0779 -9.74207,-4.1067 -9.67114,-8.99859z" fill="#000000" stroke="#000000" stroke-width="1.4" stroke-linecap="butt"/><path d="M385.83947,170.39503c0.03999,-2.75843 2.30855,-4.96213 5.06696,-4.92214c2.75843,0.03999 4.96213,2.30855 4.92214,5.06696c-0.03999,2.75843 -2.30854,4.96213 -5.06696,4.92214c-2.75843,-0.03999 -4.96213,-2.30855 -4.92214,-5.06696z" fill="#000000" stroke="none" stroke-width="1.5" stroke-linecap="butt"/><path d="M408.45811,170.27782c0.20353,-4.88817 4.45264,-8.85847 9.77048,-8.85847c5.31783,0 9.27453,3.96607 9.27453,8.85847c0,4.8924 -3.88585,9.07104 -9.69964,9.14188c-5.52997,0.06739 -9.55792,-4.03692 -9.34537,-9.14188z" fill="#000000" stroke="#000000" stroke-width="1.4" stroke-linecap="butt"/><path d="M413.06087,170.36337c0,-2.81845 2.2848,-5.10325 5.10325,-5.10325c2.81845,0 5.10325,2.2848 5.10325,5.10325c0,2.81845 -2.28479,5.10325 -5.10325,5.10325c-2.81845,0 -5.10325,-2.2848 -5.10325,-5.10325z" fill="#000000" stroke="none" stroke-width="1.5" stroke-linecap="butt"/><path d="M432.82418,170.26927c1.0294,-5.97877 1.7913,-8.61483 3.73262,-8.35569c1.94131,0.25914 1.77649,4.24909 0.48013,9.99193c-1.23206,5.45797 -6.16417,8.97502 -6.16417,8.97502c0,0 0.92203,-4.6325 1.95143,-10.61127z" data-paper-data="{&quot;index&quot;:null}" fill="#ffffff" stroke="#000000" stroke-width="1" stroke-linecap="butt"/><path d="M433.23673,166.20221c0,0 2.57754,-0.80312 2.15675,2.28016c-0.75431,5.52723 -4.31816,8.45061 -4.31816,8.45061" data-paper-data="{&quot;index&quot;:null}" fill="none" stroke="#000000" stroke-width="0.25" stroke-linecap="round"/><path d="M383.67784,254.23656v-6.05h15.65834v6.05z" fill="#2f2f2f" stroke="#2f2f2f" stroke-width="2" stroke-linecap="butt"/><text transform="translate(383.39594,250.41303) scale(0.08153,0.08153)" font-size="40" xml:space="preserve" fill="url(#color-6)" fill-rule="nonzero" stroke="none" stroke-width="1" stroke-linecap="butt" stroke-linejoin="miter" stroke-miterlimit="10" stroke-dasharray="" stroke-dashoffset="0" font-family="Sans Serif" font-weight="normal" text-anchor="start" style="mix-blend-mode: normal"><tspan x="0" dy="0">Donk</tspan><tspan x="0" dy="46.150000000000006px">Industries</tspan></text><path d="M384.93855,166.75005c0,-0.9665 0.7835,-1.75 1.75,-1.75c0.9665,0 1.75,0.7835 1.75,1.75c0,0.9665 -0.7835,1.75 -1.75,1.75c-0.9665,0 -1.75,-0.7835 -1.75,-1.75z" fill="url(#color-7)" stroke="none" stroke-width="0.5" stroke-linecap="butt"/><path d="M412.10522,166.25005c0,-0.9665 0.7835,-1.75 1.75,-1.75c0.9665,0 1.75,0.7835 1.75,1.75c0,0.9665 -0.7835,1.75 -1.75,1.75c-0.9665,0 -1.75,-0.7835 -1.75,-1.75z" fill="url(#color-8)" stroke="none" stroke-width="0.5" stroke-linecap="butt"/><path d="M390.02189,179.33338v10.33333" fill="none" stroke="#000000" stroke-width="0.5" stroke-linecap="round"/><path d="M381.50104,222.82641l-0.625,9l-0.5,-5.625" fill="none" stroke="#000000" stroke-width="2.5" stroke-linecap="round"/><path d="M421.87603,209.07641l-9,12.25l-3.75,3.75l-6.75,1.25l-8.5,-6.25l-8.25,-11.625" fill="none" stroke="#000000" stroke-width="2.5" stroke-linecap="round"/><path d="M406.43468,224.20191c0.06202,0.49614 -0.43412,0.55816 -0.43412,0.55816l-0.309,0.0099c-0.79718,0.38534 -1.5517,0.44969 -2.31741,0.29498l-0.02384,0.0053v0.10545h-0.52941c-0.15312,0 -0.29017,-0.06883 -0.38189,-0.17724l-0.3052,-0.06782c-0.21399,-0.04291 -0.3786,-0.22243 -0.39901,-0.44372c-0.36877,-0.1103 -0.5708,-0.22318 -0.68957,-0.40953c-0.00538,-0.00129 -0.01078,-0.00257 -0.0162,-0.00386l-0.06586,-0.07936l-0.02112,0.02957l-0.40634,-0.29024c-0.12983,-0.09031 -0.2148,-0.2406 -0.2148,-0.41074c0,-0.27614 0.22386,-0.5 0.5,-0.5c0.11048,0 0.2126,0.03583 0.29535,0.09652l0.34433,0.24595c0.50614,0.1057 0.7849,0.25658 1.31057,0.18943c0,0 0.49752,-0.04975 0.54727,0.44777c0.00058,0.0058 0.00109,0.01154 0.00152,0.01723c0.46498,-0.09785 1.09075,-0.01316 1.45132,-0.10263l0.51888,-0.11531c0.03814,-0.00931 0.07799,-0.01425 0.11899,-0.01425c0.16031,0 0.30299,0.07544 0.39449,0.19276l0.0729,-0.01243c0,0 0.49614,-0.06202 0.55816,0.43412z" fill="#ffffff" stroke="none" stroke-width="0.5" stroke-linecap="butt"/><path d="M391.64934,213.45168c1.31961,1.98885 2.58082,4.31676 4.37773,5.38823c0,0 0.424,0.265 0.159,0.689c-0.265,0.424 -0.689,0.159 -0.689,0.159c-2.51327,-1.62255 -4.11759,-5.20664 -6.05245,-7.53059l-0.00287,-0.10036l-0.03638,0.01213l-0.17278,-0.51834c-0.019,-0.05284 -0.02935,-0.1098 -0.02935,-0.16919c0,-0.27614 0.22386,-0.5 0.5,-0.5c0.11438,0 0.21979,0.03841 0.30404,0.10303l0.46655,0.34991l-0.03924,0.05232c0.5336,0.2647 0.98313,0.61232 1.3041,1.1829l0.05279,0.51772c0,0 0,0.21617 -0.14214,0.36424z" fill="#ffffff" stroke="none" stroke-width="0.5" stroke-linecap="butt"/><path d="M396.2302,185.40278c0.5,0 0.5,0.5 0.5,0.5v0.33334c0,1.71983 -0.54106,3.13523 -1.01224,4.77662c-0.82825,5.02122 -5.16059,4.58236 -9.06785,3.21692c-4.82761,0.04139 -3.92132,-4.6562 -3.32978,-8.24241c0,0 0.0822,-0.4932 0.5754,-0.411c0.49319,0.0822 0.411,0.5754 0.411,0.5754c-0.18344,1.09059 -1.05376,5.93165 -0.16559,6.70674c0.46746,0.40795 2.11295,0.37996 2.66915,0.38418c3.44257,1.10699 7.1786,2.03026 7.93215,-2.44974c0.44738,-1.57277 0.98776,-2.91836 0.98776,-4.55671v-0.33334c0,0 0,-0.5 0.5,-0.5z" fill="#000000" stroke="none" stroke-width="0.5" stroke-linecap="butt"/><path d="M424.48853,184.87223c0.5,0 0.5,0.5 0.5,0.5c0,1.4 0,3 0,4.4c0,0.99079 0.31727,2.7349 -0.15279,3.62361c-1.16566,2.20383 -6.47288,0.97396 -8.39648,0.97396c-0.87506,-0.17501 -2.06242,-0.0875 -2.82598,-0.58015c-1.67261,-1.07916 -1.52475,-5.51796 -1.52475,-7.31742c0,0 0,-0.5 0.5,-0.5c0.5,0 0.5,0.5 0.5,0.5c0,1.43029 -0.16592,5.60401 1.07525,6.48258c0.53674,0.37993 1.71432,0.28791 2.37402,0.41985c2.02372,0 3.85208,0.40506 5.85267,0.00728c0.26572,-0.05283 1.48931,-0.21815 1.55084,-0.43332c0.26772,-0.93621 0.04721,-2.20649 0.04721,-3.17639c0,-1.4 0,-2.8 0,-4.2v-0.2c0,0 0,-0.5 0.5,-0.5z" fill="#000000" stroke="none" stroke-width="0.5" stroke-linecap="butt"/><path d="M371.54432,230.97482c0.0446,0.00109 0.07171,0.00496 0.07171,0.00496c0.92342,0.13649 2.98074,0.70889 3.64309,1.29564c1.07851,0.9554 0.4335,1.311 0.27688,2.28125c-0.50876,3.15163 -2.83993,6.30737 -6.20999,5.55305c-0.45526,-0.1019 0.44949,0.82079 0.6172,1.25613c0.40739,1.822 1.49915,3.70176 0.85111,5.58928c-0.48075,1.40028 -1.2776,3.38111 -3.1004,2.01174c-0.50497,-0.37935 -0.15106,-1.3086 -0.51819,-1.82252c-1.80618,-2.52832 -0.84434,-6.04321 -0.84434,-9.27924c0.04267,-3.15012 2.0912,-4.80547 4.07681,-6.81604l0.67319,-0.21967c0,0 0.25127,0 0.46293,0.14544z" fill="#000000" stroke="none" stroke-width="0.5" stroke-linecap="butt"/><path d="M367.76756,260.04534c-0.15665,-0.10516 -0.29331,-0.28865 -0.29331,-0.6088c0,-0.75 0.75,-0.75 0.75,-0.75c3.64975,0.01015 5.6855,4.66119 1.87483,5.67514c0.77783,0.65445 0.91535,2.20558 1.23276,3.18004l0.53706,0.93986c0.06691,0.11222 0.10535,0.24339 0.10535,0.38354c0,0.41421 -0.33579,0.75 -0.75,0.75c-0.11082,0 -0.21602,-0.02403 -0.31068,-0.06717l-0.98476,-0.42204l0.08681,-0.20255c-2.25383,-0.76993 -4.91506,-2.42581 -4.52653,-4.77812c0.25384,-1.53681 2.03906,-2.50713 2.27847,-4.09988z" fill="#000000" stroke="none" stroke-width="0.5" stroke-linecap="butt"/><path d="M368.92861,303.91277l-0.30878,-0.31366c-0.16789,-0.10432 -0.33577,-0.20863 -0.50366,-0.31295c-4.54395,-0.97419 0.29422,-4.71269 1.51692,-6.31119c0.38659,-0.5054 0.80962,-1.87573 1.82004,-1.53838c1.02148,0.34105 0.54359,1.64482 0.65429,2.30837c0.47499,2.84712 1.43826,5.07649 1.43826,8.12014c0,2.90845 0.50466,5.71013 0.28316,8.63329c-0.16644,2.19655 -0.85127,3.84443 -1.1426,5.71109c-0.43064,2.75926 -2.76027,1.86593 -3.45194,-0.08641c-0.74401,-1.87641 -2.21219,-4.31542 -1.26631,-6.42089c0.50771,-1.13012 1.94069,-1.91645 2.43967,-3.02373c0.75171,-1.66813 -0.90056,-4.78022 -1.45708,-6.26429c0,0 -0.09224,-0.24599 -0.02196,-0.50138z" fill="#000000" stroke="none" stroke-width="0.5" stroke-linecap="butt"/><path d="M432.63976,228.86135l-0.80981,-0.28682c-3.09753,-3.17909 -0.69134,-6.2431 3.39327,-5.51731c1.58359,0.28139 1.92374,1.41653 2.79189,2.50171c0.42604,1.04396 1.50672,1.84585 1.78907,2.8917c0.85549,3.16883 1.03767,7.94521 0.29286,11.22966c-0.734,3.23678 -4.78692,1.44217 -5.79026,-0.48239c-0.65699,-0.82124 -3.14752,-4.61774 -2.04757,-5.64263c1.09363,-1.019 2.6503,0.97513 3.73622,0.12131c0.29494,-0.2319 0.02366,-0.75298 0.09293,-1.12172c0.6171,-3.28491 0.3524,-3.15403 -2.72127,-3.15403c0,0 -0.6021,0 -0.72735,-0.53948z" fill="#000000" stroke="none" stroke-width="0.5" stroke-linecap="butt"/><path d="M438.31457,272.22348c-0.00303,-0.15106 0.04863,-0.32217 0.20626,-0.4995c0.49827,-0.56056 1.05883,-0.06228 1.05883,-0.06228c1.53706,1.37834 5.95742,7.16518 3.71782,9.26081c-0.99199,0.92823 -3.09392,1.05026 -4.13683,1.99451c-0.67895,0.61472 -0.47406,3.19209 -0.47212,4.01952v0.85714c0,0.41421 -0.33579,0.75 -0.75,0.75c-0.39185,0 -0.71351,-0.3005 -0.7471,-0.68362l-0.14203,-1.42032l0.01675,-0.00167c-1.02286,-2.44009 -2.21225,-5.68224 -1.85755,-7.53098c0.43306,-2.25718 2.05904,-4.14934 2.89072,-6.24909z" fill="#000000" stroke="none" stroke-width="0.5" stroke-linecap="butt"/><path d="M398.81778,248.62812h-5.87097" fill="none" stroke="url(#color-9)" stroke-width="0.5" stroke-linecap="round"/><path d="M392.78552,249.69265l6.19355,0.03226" fill="none" stroke="url(#color-10)" stroke-width="0.5" stroke-linecap="round"/><path d="M399.20488,250.72492l-6.51613,-0.03226" fill="none" stroke="url(#color-11)" stroke-width="0.5" stroke-linecap="round"/><path d="M211.79865,372.61252v-253.22501h91.18203v186.5625c-3.38858,0 -6.77717,0 -10.16576,0c-2.38675,0 -5.16678,-0.46331 -7.33541,0.57918c0,0 -0.67082,0.33541 -0.33541,1.00623c0.33541,0.67082 1.00623,0.33541 1.00623,0.33541c1.81599,-0.95667 4.62388,-0.42082 6.66459,-0.42082c3.0435,0 6.68176,0 10.16576,0v65.16251zM283.71489,288.46077c-8.66667,0 -18.33333,0 -27,0c-8.66667,0 -17.33333,0 -26,0c0,0 -0.75,0 -0.75,0.75c0,0.75 0.75,0.75 0.75,0.75c8.66667,0 17.33333,0 26,0c8.66667,0 18.33333,0 27,0c0,0 0.75,0 0.75,-0.75c0,-0.75 -0.75,-0.75 -0.75,-0.75zM282.91486,328.91039c-8.58333,0 -17.91667,0 -26.5,0c-8.58333,0 -17.16667,0 -25.75,0c0,0 -0.75,0 -0.75,0.75c0,0.75 0.75,0.75 0.75,0.75c8.58333,0 17.16667,0 25.75,0c8.58333,0 17.91667,0 26.5,0c0,0 0.75,0 0.75,-0.75c0,-0.75 -0.75,-0.75 -0.75,-0.75zM287.24401,219.0146l-0.29069,0.59824c-1.68009,5.20641 -4.01758,11.42285 -4.04412,16.99334c-0.1349,6.56909 -0.24436,13.1546 -0.24436,19.74383c0,0 0,0.75 0.75,0.75c0.75,0 0.75,-0.75 0.75,-0.75c0,-6.58355 0.09781,-13.16182 0.24425,-19.72533c0.00843,-5.36105 2.2623,-11.54693 3.96726,-16.5375l0.20931,-0.40176c0,0 0.33541,-0.67082 -0.33541,-1.00623c-0.67082,-0.33541 -1.00623,0.33541 -1.00623,0.33541zM225.91487,220.85001v0.5c0,5.76307 2.44279,11.67143 3.26399,17.39418c1.39596,5.47371 1.73601,12.19341 1.73601,17.85582c0,0 0,0.75 0.75,0.75c0.75,0 0.75,-0.75 0.75,-0.75c0,-5.78659 -0.38722,-12.53553 -1.76399,-18.14418c-0.79973,-5.62437 -3.23601,-11.45134 -3.23601,-17.10582v-0.5c0,0 0,-0.75 -0.75,-0.75c-0.75,0 -0.75,0.75 -0.75,0.75zM227.81487,305.95003h-0.5c-4.61729,0 -9.58551,0.60701 -14,0.5c0,0 -0.75,0 -0.75,0.75c0,0.75 0.75,0.75 0.75,0.75c4.50586,-0.07711 9.31551,-0.5 14,-0.5h0.5c0,0 0.75,0 0.75,-0.75c0,-0.75 -0.75,-0.75 -0.75,-0.75z" fill-opacity="0.01" fill="#000000" stroke="none" stroke-width="0" stroke-linecap="butt"/><path d="M212.44182,169.88013c0,0 6.16329,-5.92187 6.29161,-6.78761c0.33654,-2.27063 -0.16776,-40.17317 35.96775,-41.57382c44.63633,-0.91362 39.01489,35.34872 41.53088,42.1903c3.44981,9.38084 6.15664,17.40016 6.15664,17.40016c0,0 -2.76715,-2.05351 -4.0797,-3.13397c-1.2242,-1.00773 -3.80143,-3.14585 -3.80143,-3.14585c0,0 3.09111,10.3481 1.31092,20.69498c-1.5623,9.48098 -7.29782,17.22543 -7.29782,17.22543l-1.15522,-2.34735c0,0 -1.02266,2.19794 -2.16005,3.33274c-1.1374,1.13479 -3.43873,2.91273 -3.43873,2.91273l-0.09205,-3.70421c0,0 -7.0601,11.01795 -24.35066,10.87154c-16.30625,-0.25547 -26.07151,-10.6752 -26.07151,-10.6752l-0.1162,2.65484c0,0 -3.89477,-3.29276 -6.18145,-9.70754c-2.72545,-7.64567 -3.23946,-12.24324 -3.23946,-12.24324c0,0 -2.33908,1.89916 -5.71704,2.7744c-4.23278,1.09673 -6.94665,0.34526 -6.94665,0.34526c0,0 3.60795,-2.71717 5.58396,-4.76989c1.76007,-1.8284 2.64658,-3.37722 2.64658,-3.37722c0,0 -2.10758,1.0847 -4.23277,1.61795c-2.21739,0.5564 -4.03008,0.53093 -4.03008,0.53093c0,0 4.97492,-5.03728 7.03074,-10.87429c1.94102,-5.51108 2.09972,-10.95731 2.09972,-10.95731c0,0 -1.36165,0.66163 -3.33013,0.79513c-1.24776,0.08463 -2.37785,-0.0489 -2.37785,-0.0489z" fill="#000000" stroke="none" stroke-width="1.5" stroke-linecap="butt"/><path d="M289.13864,175.97865c0,0 1.85715,-3.85153 1.85715,-7.14286c0,-2.95893 -1.85715,-11.71429 -1.85715,-11.71429l2.42858,-2.85714c0,0 2.65564,7.96003 3.40852,11.77463c0.66467,3.36765 -0.12281,10.08251 -0.12281,10.08251z" fill="#d48e48" stroke="none" stroke-width="0" stroke-linecap="butt"/><path d="M224.16487,242.18334l-3.5,-10.25c0,0 24.4108,-12.66663 36.24296,-12.74995c11.83451,-0.08334 34.75704,12.24995 34.75704,12.24995l-1.5,10.75c0,0 -22.7615,-12 -34,-12c-10.73876,0 -32,12 -32,12z" fill="#333231" stroke="none" stroke-width="0" stroke-linecap="butt"/><path d="M248.66487,336.91039v-57.25h17.75v57.25z" fill="#80766a" stroke="#000000" stroke-width="2" stroke-linecap="butt"/><path d="M256.954,215.45852c12.73354,-0.06356 21.67647,4.7114 27.81565,10.92075c-1.01941,3.40634 -1.84473,6.92977 -1.86044,10.2269c-0.1094,5.32715 -0.20207,10.6651 -0.23319,16.00707c-1.9877,0.6555 -1.636,2.943 -1.636,2.943l0.05886,32.90455c-8.12799,0 -16.25597,0 -24.38396,0c-7.96683,0 -15.93367,0 -23.9005,0l-0.08797,-33.19547c0,0 0.08216,-0.85808 -0.34707,-1.64622c-0.12213,-5.03605 -0.58251,-10.4947 -1.72852,-15.16328c-0.53255,-3.74535 -1.79082,-7.58054 -2.57212,-11.39481c6.20551,-6.46595 15.45017,-11.53548 28.87525,-11.60249z" fill="#80766a" stroke="#000000" stroke-width="2" stroke-linecap="butt"/><path d="M296.95227,304.00831c-1.37912,0 -3.42491,0.94173 -4.80403,0.94173c-1.90088,0 -3.38456,-1.21849 -5.27681,-0.8352l-0.06462,-42.26238c3.25894,0 6.66255,0 9.9904,0c-0.00044,13.32098 0.06511,27.39938 0.15506,42.15585z" fill="#80766a" stroke="#000000" stroke-width="2" stroke-linecap="butt"/><path d="M296.80283,252.35526c-0.00292,1.7637 -0.00467,3.5406 -0.00533,5.33053c-3.33095,0 -6.66191,0 -9.99286,0l-0.00301,-2.09101c0,0 2.07213,-3.21154 -0.62572,-3.39591c0.02947,-5.28097 1.11567,-10.05733 1.23318,-15.32419c0.00452,-2.87381 0.15427,-3.98464 1.01883,-7.02131c8.19042,9.04196 8.37941,18.27123 8.37491,22.50189z" fill="#80766a" stroke="#000000" stroke-width="2" stroke-linecap="butt"/><path d="M227.18079,303.99393c-1.68621,0.00409 -3.41792,1.04757 -5.15126,1.14218c-1.64936,0.09003 -3.63352,-1.09128 -5.24804,-1.02832c-0.11722,-16.79076 -0.02947,-31.97186 -0.01651,-42.30651c3.45324,-0.07406 6.85677,-0.25262 10.27457,-0.3971z" fill="#80766a" stroke="#000000" stroke-width="2" stroke-linecap="butt"/><path d="M216.752,252.37963c-0.03009,-4.50013 0.2175,-13.23302 7.84589,-21.97359c0.78055,3.4653 0.84256,5.43455 1.33096,8.83815c1.06729,4.18497 2.51736,7.59829 2.67012,12.21057c-0.28961,-0.07721 -1.5738,3.78514 -1.5738,3.78514l0.00958,2.9978c-3.41583,0.14993 -6.81707,0.33515 -10.26846,0.41202c0.00121,-2.38599 -0.00237,-4.49017 -0.01427,-6.27008z" fill="#80766a" stroke="#000000" stroke-width="2" stroke-linecap="butt"/><path d="M277.74545,370.17619l-42.46366,0.32222l-2.35624,-40.08801c7.82977,0 15.65954,0 23.48931,0c8.00624,0 16.66502,0 24.75901,0z" fill="#80766a" stroke="#000000" stroke-width="2" stroke-linecap="butt"/><path d="M232.81835,297.96079c7.96551,0 15.93101,0 23.89652,0c7.80478,0 16.42056,0 24.38664,0l0.06967,22.69961c-8.25211,0 -16.50421,0 -24.75632,0c-7.8311,0 -15.66219,0 -23.49329,0z" fill="#80766a" stroke="#000000" stroke-width="2" stroke-linecap="butt"/><path d="M217.54533,370.39162c0,0 -0.21164,-29.10533 -0.42099,-60.2358c1.40838,-0.06366 2.83377,-2.47285 4.2642,-2.53945c1.93293,-0.08999 3.87507,1.83693 5.79682,1.83376l0.19289,60.85654z" fill="#80766a" stroke="#000000" stroke-width="2" stroke-linecap="butt"/><path d="M297.4571,370.34174l-10.49667,0.09614l-0.08693,-59.85952c1.78202,-0.53871 4.15548,-3.12833 5.94138,-3.12833c1.29373,0 2.69493,2.33334 4.14606,2.33334c0.19543,33.37283 0.49615,60.55837 0.49615,60.55837z" fill="#80766a" stroke="#000000" stroke-width="2" stroke-linecap="butt"/><path d="M278.17668,369.42619l-42.1773,0.07222l-2.35197,-39.08801c7.58916,0 15.17831,0 22.76747,0c7.87978,0 16.39165,0 24.37505,0z" fill="#756b5e" stroke="#000000" stroke-width="0" stroke-linecap="butt"/><path d="M257.25657,215.45852c12.40095,-0.02364 21.1327,5.44955 27.14789,12.1787c-0.84449,3.00924 -1.48148,6.0762 -1.49526,8.96896c-0.01814,0.88319 -0.03581,1.76667 -0.05283,2.65042c-5.70503,-1.94023 -14.12193,-3.89781 -26.67644,-3.88457c-12.14938,0.01282 -20.19764,1.3076 -25.55888,2.8792c-0.49644,-3.33162 -1.54884,-6.73261 -2.31285,-10.12522c5.94124,-6.92941 15.08191,-12.64106 28.94837,-12.66749z" fill="#796b59" stroke="#000000" stroke-width="0" stroke-linecap="butt"/><path d="M296.25708,369.54171l-8.11458,-0.10386l0.02051,-53.50376c2.84641,-1.3727 5.19702,-3.07767 7.8993,-4.86738c0.07521,31.51721 0.19477,58.47501 0.19477,58.47501z" fill="#756b5e" stroke="#000000" stroke-width="0" stroke-linecap="butt"/><path d="M218.51482,369.59165c0,0 -0.16015,-25.41901 -0.33489,-53.17667c2.57701,1.55372 5.23468,2.90025 7.95452,4.0441l-0.14057,48.84761z" fill="#756b5e" stroke="#000000" stroke-width="0" stroke-linecap="butt"/><path d="M272.14247,266.33381c-0.57113,0 -1.03411,-0.46299 -1.03411,-1.03411c0,-0.57113 0.46299,-1.03413 1.03411,-1.03413c0.57113,0 1.03411,0.463 1.03411,1.03413c0,0.57113 -0.46299,1.03411 -1.03411,1.03411z" fill="#000000" stroke="none" stroke-width="1.5" stroke-linecap="butt"/><path d="M266.88264,270.56943c-4.4635,-0.31439 -6.55245,-1.79392 -6.16985,-2.58011c0.11788,-0.24224 2.84645,1.06355 6.97038,1.3048c6.40897,0.37493 8.51033,-0.63173 8.51033,-0.63173v1.34616c0,0 -2.4135,1.04672 -9.31086,0.56089z" fill="#000000" stroke="#000000" stroke-width="0" stroke-linecap="butt"/><path d="M239.06987,265.29972c0,-0.57113 0.46299,-1.03413 1.03411,-1.03413c0.57113,0 1.03413,0.463 1.03413,1.03413c0,0.57113 -0.463,1.03411 -1.03413,1.03411c-0.57113,0 -1.03411,-0.46299 -1.03411,-1.03411z" fill="#000000" stroke="none" stroke-width="1.5" stroke-linecap="butt"/><path d="M245.36383,270.56942c-6.89736,0.48585 -9.31086,-0.56089 -9.31086,-0.56089v-1.34616c0,0 2.10136,1.00666 8.51033,0.63173c4.12393,-0.24126 6.85251,-1.54704 6.97039,-1.3048c0.3826,0.78618 -1.70634,2.26571 -6.16985,2.58011z" fill="#000000" stroke="#000000" stroke-width="0" stroke-linecap="butt"/><path d="M235.83106,370.90604l-3.25,-40.49566c7.94461,0 15.88922,0 23.83383,0c8.1864,0 17.05504,0 25.30454,0l-3.5,39.99567z" fill="#2c77a5" stroke="#000000" stroke-width="2" stroke-linecap="butt"/><path d="M232.58106,293.46077c8.04461,0 16.08923,2.5 24.13384,2.5c8.00701,0 16.86758,-2 25.00453,-2v30.69962c-8.43485,0 -16.86969,-0.75 -25.30454,-0.75c-7.94461,0 -15.88922,0.25 -23.83383,0.25z" fill="#2a709b" stroke="#000000" stroke-width="2" stroke-linecap="butt"/><path d="M232.58106,251.20458c0,0 -0.09698,0.16429 -0.26722,0.43205c-0.18786,-4.45923 -0.66594,-9.11904 -1.66299,-13.18081c-0.55622,-3.91181 -1.9041,-7.92162 -2.67336,-11.90324c4.49903,-4.19761 8.62122,-6.97366 9.25926,-7.42265c1.98251,-1.3951 5.17197,-2.80371 5.17197,-2.80371c0,0 -0.93493,34.44235 14.22619,34.37201c15.43477,-0.07162 14.16487,-34.372 14.16487,-34.372c0,0 3.91276,1.51959 6.16585,2.94655c0.67317,0.42634 4.03166,3.12466 7.81978,7.05383c-1.02666,3.42267 -1.86042,6.96543 -1.87621,10.27955c-0.11035,5.37353 -0.20368,10.75805 -0.23399,16.14661c-0.57555,-0.59859 -0.95578,-1.04339 -0.95578,-1.04339v36.75138c-8.33484,0 -16.66969,0 -25.00453,0c-8.04461,0 -16.08923,0 -24.13384,0z" fill="#2c77a5" stroke="#000000" stroke-width="2" stroke-linecap="butt"/><path d="M294.74641,236.83398c5.12186,8.28103 6.38969,18.04404 6.38969,18.04404c0,0 -9.45902,1.54465 -12.74804,0.96428c-0.78139,-0.13788 -1.79478,-0.85415 -2.71976,-1.65269c0.01884,-5.86222 0.1122,-11.71943 0.24476,-17.56493c0.00462,-2.88998 0.67247,-6.01965 1.55863,-9.07256c2.54868,2.71258 5.18442,5.90227 7.27472,9.28186z" fill="#2b73a0" stroke="#000000" stroke-width="2" stroke-linecap="butt"/><path d="M226.29274,255.99379c-3.03115,0.30813 -12.29994,0.88422 -12.29995,0.88422c0,0 -1.19073,-10.85092 3.09838,-18.71872c2.11375,-3.8774 5.07451,-7.43005 7.99842,-10.39196c0.76341,3.67742 1.8912,7.36412 2.3932,10.97684c1.12385,4.55084 1.54095,9.96295 1.64964,14.91265c-0.87263,1.13118 -1.94611,2.24612 -2.8397,2.33696z" fill="#2b73a0" stroke="#000000" stroke-width="2" stroke-linecap="butt"/><path d="M246.66487,328.23578v-2h21.25v2z" fill="#000000" stroke="none" stroke-width="0" stroke-linecap="butt"/><path d="M246.91487,292.48578v-1.25h21v1.25z" fill="#000000" stroke="none" stroke-width="0" stroke-linecap="butt"/><g stroke="none" stroke-width="0" stroke-linecap="butt"><path d="M277.93151,225.76485c0,14.08091 -9.56992,25.49575 -21.375,25.49575c-11.80508,0 -21.375,-11.41484 -21.375,-25.49575c0,-14.08091 9.56992,-25.49575 21.375,-25.49575c11.80508,0 21.375,11.41484 21.375,25.49575zM239.83115,239.04512c2.21509,3.40479 4.80826,5.26425 7.83897,7.62288c1.53929,1.19794 4.45021,1.21455 6.29638,1.82234c2.89362,0.03297 6.87459,0.199 9.50432,-1.11891c2.55182,-1.27886 4.33562,-3.07726 6.27427,-5.12417c0.50276,-1.70484 2.67694,-3.14434 3.36598,-4.97786c1.6351,-4.35099 1.72564,-8.24978 1.69955,-12.88143c-0.67355,-2.1445 -2.21723,-4.40184 -2.49029,-6.5864c-0.39388,-3.15116 -1.71455,-8.23868 -4.83735,-9.566c-2.95081,-3.08014 -10.4247,-6.3518 -14.62843,-4.96654c-5.94601,1.51832 -10.94957,6.03602 -12.46633,12.14294c-0.81912,3.37971 -1.80524,6.80504 -2.29669,10.27501c-0.15152,1.0698 -0.03408,2.20195 -0.36386,3.20848c-0.0097,0.02451 -0.01772,0.04862 -0.02434,0.07173c-0.08413,0.23945 -0.19485,0.47144 -0.34199,0.6934c0,0 -0.34534,0.53034 0.17267,0.88391c0.05229,0.03569 0.10283,0.06238 0.15143,0.08151c0.10201,3.03851 0.78077,5.62419 2.14574,8.41912z" fill="#c4c4c4"/><path d="M277.93151,225.87336c0,14.08091 -9.56992,25.49575 -21.375,25.49575c-11.80508,0 -21.375,-11.41484 -21.375,-25.49575c0,-1.08152 0.05646,-2.14731 0.16605,-3.19341c0.73088,1.01184 1.71187,1.8035 2.8499,2.41426c-0.03743,0.23355 -0.07282,0.46731 -0.10595,0.70127c-0.15151,1.0698 -0.03408,2.20195 -0.36386,3.20848c-0.0097,0.02451 -0.01772,0.04862 -0.02435,0.07172c-0.08413,0.23945 -0.19485,0.47144 -0.34199,0.6934c0,0 -0.34534,0.53034 0.17267,0.88391c0.05229,0.03569 0.10283,0.06238 0.15143,0.08151c0.10201,3.03851 0.78077,5.62419 2.14574,8.41912c2.21509,3.4048 4.80827,5.26425 7.83897,7.62288c1.53929,1.19794 4.4502,1.21455 6.29637,1.82234c2.89362,0.03297 6.8746,0.199 9.50433,-1.11891c2.55182,-1.27886 4.33561,-3.07726 6.27427,-5.12417c0.50276,-1.70484 2.67694,-3.14433 3.36598,-4.97786c1.54396,-4.10846 1.71075,-7.81373 1.70257,-12.11354c1.02513,-0.7718 2.04911,-1.96683 2.87661,-3.23437c0.15889,1.25351 0.24127,2.53696 0.24127,3.84336z" fill="#e3e3e3"/></g><path d="M229.22773,181.20175c-0.57709,-7.29323 0.335,-17.15448 0.335,-17.15448c0,0 3.41059,-0.04124 13.91429,-3.14424c8.0696,-2.38394 20.54731,-9.48722 20.54731,-9.48722c0,0 -2.16005,3.00503 -3.40781,4.46015c-1.32651,1.54696 -3.99292,4.56297 -3.99292,4.56297c0,0 7.838,-1.66761 14.67476,-4.72931c8.56837,-3.53575 10.59252,-6.05309 12.95042,-4.5927c2.7829,1.72362 1.03006,23.1827 0.71846,28.74062c-0.42163,5.66922 -3.15031,12.52053 -3.15031,12.52053l-2.20622,16.0397c0,0 -1.33609,4.72051 -2.62084,6.63518c-2.64859,-0.44178 -5.28468,-0.70292 -7.82496,-0.70292c-6.79401,0 -13.9066,-0.19159 -20.75,-0.25c-3.99665,0.04448 -12.22898,0.84852 -12.22898,0.84852l-1.25915,-8.67043l-3.12266,-14.64835c0,0 -2.26119,-6.44504 -2.57636,-10.42801z" fill="#80766a" stroke="#000000" stroke-width="1.5" stroke-linecap="butt"/><path d="M269.32458,227.47859c-3.6695,3.59343 -7.01259,9.09556 -7.01259,9.09556l-11.201,0.02617c0,0 -3.73565,-4.9002 -8.73542,-10.18244c-2.08056,-2.19811 -3.89034,-3.97283 -5.37342,-5.71702c3.7303,-0.31477 7.5099,-0.75673 11.14605,-0.70083c6.88387,-0.04596 13.92819,0.25 20.75,0.25c2.22039,0 4.51642,0.20588 6.82954,0.56034c-1.59217,2.00672 -3.69705,4.01821 -6.40316,6.66822z" fill="#80766a" stroke="#000000" stroke-width="1.5" stroke-linecap="butt"/><path d="M277.631,167.08139c0,0 1.52429,0.31807 4.2558,1.11029c2.49492,0.72361 4.44935,1.74403 4.44935,1.74403l0.1951,1.17035c0,0 -7.24963,-3.12997 -15.1158,-2.4706c-6.2896,0.52724 -9.96319,2.8124 -9.96319,2.8124l0.04575,-4.17683c0,0 3.12748,-1.70421 7.86366,-1.85557c4.90428,-0.15672 8.09084,0.59125 8.09084,0.59125z" data-paper-data="{&quot;index&quot;:null}" fill="#000000" stroke="none" stroke-width="1.5" stroke-linecap="butt"/><path d="M233.73821,180.72152c0.02623,-1.80894 1.79844,-4.91353 1.79844,-4.91353c0,0 5.02677,-3.99376 8.41293,-3.94467c5.37302,0.0779 9.02724,4.2484 8.95632,9.14029c-0.07093,4.89188 -4.12352,6.96106 -9.49655,6.88317c-3.71718,-0.05389 -8.57225,-2.97884 -8.57225,-2.97884c0,0 -1.12075,-2.67885 -1.09889,-4.18642z" fill="#000000" stroke="#000000" stroke-width="1.4" stroke-linecap="butt"/><path d="M239.17571,180.25105c0.03358,-2.31664 1.93882,-4.16741 4.25545,-4.13382c2.31664,0.03359 4.1674,1.93882 4.13382,4.25545c-0.03358,2.31664 -1.93881,4.16741 -4.25545,4.13382c-2.31664,-0.03359 -4.1674,-1.93882 -4.13382,-4.25545z" fill="#37c8ec" stroke="#37c8ec" stroke-width="1" stroke-linecap="butt"/><path d="M260.79444,180.72224c0.20353,-4.88817 4.45264,-8.85847 9.77048,-8.85847c3.32097,0 7.73824,3.89993 7.73824,3.89993c0,0 1.53629,3.12143 1.53629,4.95854c0,1.55988 -1.12161,4.35195 -1.12161,4.35195c0,0 -4.61789,2.90835 -8.57803,2.9566c-5.52997,0.06739 -9.55792,-2.20359 -9.34537,-7.30855z" fill="#000000" stroke="#000000" stroke-width="1.4" stroke-linecap="butt"/><path d="M265.89723,180.30781c0,-2.32139 1.88186,-4.20325 4.20325,-4.20325c2.32139,0 4.20325,1.88186 4.20325,4.20325c0,2.32139 -1.88185,4.20325 -4.20325,4.20325c-2.32139,0 -4.20325,-1.88186 -4.20325,-4.20325z" fill="#00a8d0" stroke="#37c8ec" stroke-width="1" stroke-linecap="butt"/><path d="M233.66972,180.18935c0,0 -0.09706,-1.37478 0.1409,-2.08826c0.29913,-0.89688 1.51273,-2.86979 1.51273,-2.86979c0,0 4.05316,-3.9552 8.94749,-3.86685c9.47101,0.16586 9.55554,9.40723 9.55554,9.40723z" fill="#696157" stroke="#696157" stroke-width="1.15" stroke-linecap="butt"/><path d="M260.41684,180.32024c0,0 -0.24686,-9.4582 11.19813,-9.1032c4.13112,0.14181 7.80492,3.89266 7.80492,3.89266l1.74185,5.75963z" fill="#696157" stroke="#696157" stroke-width="1.15" stroke-linecap="butt"/><path d="M237.19961,170.17767c0,0 3.36963,-1.819 8.03244,-2.28178c5.16698,-0.51283 7.76823,-0.06628 7.76823,-0.06628l0.29508,4.13747c0,0 -3.83554,-0.68065 -8.01795,-0.52113c-5.59346,0.21333 -6.64488,1.43293 -10.89774,1.89119c-3.64408,0.39266 -6.73723,0.15884 -6.73723,0.15884l-0.02589,-1.23155c0,0 3.59517,0.07398 5.23371,-0.06836c1.35239,-0.11749 3.9757,-0.93808 3.9757,-0.93808z" fill="#000000" stroke="none" stroke-width="1.5" stroke-linecap="butt"/><path d="M244.82595,261.93849l5.4785,-15.56393l9.43269,3.32031l-5.4785,15.56393z" fill="#e3e3e3" stroke="#9a9a9a" stroke-width="1.5" stroke-linecap="butt"/><path d="M255.96529,264.87566l-3.18009,-16.19065l9.81252,-1.92732l3.18008,16.19065z" fill="#ebebeb" stroke="#b6b6b6" stroke-width="1.5" stroke-linecap="butt"/><path d="M233.41487,287.35001v-5.5h47.25v5.5z" fill="#2a709b" stroke="none" stroke-width="0" stroke-linecap="butt"/><path d="M233.66487,334.59999v-3h47v3z" fill="#2a709b" stroke="none" stroke-width="0" stroke-linecap="butt"/><path d="M215.16486,162.43334l12.27898,-32.00557c0,0 14.94447,-10.31638 28.25264,-10.1821c15.99776,-0.82113 31.98416,9.27248 31.98416,9.27248l9.23423,29.9152z" fill="#0d1315" stroke="none" stroke-width="0" stroke-linecap="butt"/><path d="M214.96999,161.72747c0,0 36.24203,-2 51,-2c11.31884,0 31.75,-1 31.75,-1c0,0 -73.94699,15.14911 -82.48729,14.73682c-0.77686,-0.0375 -2.07036,-0.21393 -2.07036,-0.21393c0,0 -2.15008,-3.82422 -1.84933,-5.74134c0.3018,-1.92382 3.65699,-5.78155 3.65699,-5.78155z" fill="#0d1315" stroke="none" stroke-width="0" stroke-linecap="butt"/><path d="M255.69647,119.99566c15.94698,-0.81853 31.92604,9.21625 31.92604,9.21625l9.29235,29.97142l-2.58053,0.0947c-0.98993,-2.48655 -2.05609,-4.95664 -3.10102,-7.47542c-0.87449,-2.10794 -1.96469,-6.32416 -3.78782,-7.65514c-1.35516,-1.35515 -3.20031,-2.25362 -4.89598,-3.09373c-5.81912,-2.88304 -11.54369,-6.2414 -17.19716,-9.47149c-4.16839,-2.56042 -8.39668,-5.0169 -12.14788,-8.17731c-1.13681,-0.95777 -2.24676,-2.09837 -3.41484,-3.15601c1.86655,-0.18614 3.83369,-0.2742 5.90685,-0.25328z" fill="#121a1d" stroke="none" stroke-width="0" stroke-linecap="butt"/><path d="M215.21999,162.22748v-2.75h62l1,1c0,0 -36.45292,1.7348 -47.99846,2.05551c-6.73679,0.18713 -15.00154,-0.30551 -15.00154,-0.30551z" fill="#1c292d" stroke="none" stroke-width="0" stroke-linecap="butt"/><path d="M283.66483,196.90245l3.75,-30.75c0,0 5.81445,1.46891 8.51677,3.89643c1.57308,1.41311 3.23323,5.35357 3.23323,5.35357l-2,16.5c0,0 -3.05532,2.25 -4.5,2.25c-2.34859,0 -9,2.75 -9,2.75z" fill="#eda051" stroke="none" stroke-width="0" stroke-linecap="butt"/><path d="M283.49817,198.56912l3.83065,-33.25c0,0 1.30493,0.34897 2.97575,0.99007c-1.40611,5.12499 -1.81453,11.0178 -2.80275,16.06103c-0.01219,4.7676 0.61343,9.48972 0.95198,14.26006c-2.48676,0.85835 -4.95562,1.93884 -4.95562,1.93884z" fill="#6e462b" stroke="none" stroke-width="0" stroke-linecap="butt"/><g stroke="none" stroke-width="0" stroke-linecap="butt"><path d="M299.73483,267.62492c0,0.71933 -3.22649,0.62292 -7.7,0.62292c-4.4735,0 -7.5,0.32293 -7.5,-0.3964c0,-0.38195 -0.97758,-2.31111 0.65118,-2.54935c1.43875,-0.21045 4.75061,0.34082 6.84882,0.34082c2.5711,0 5.86242,-0.71344 7.34625,-0.41304c1.09791,0.22227 0.35375,2.08915 0.35375,2.39506z" fill="#2f76a3"/><path d="M299.93483,267.68155c0,0.52782 -1.73716,0.61644 -4.42947,0.62621c0.19177,-0.23704 0.34296,-0.47996 0.44828,-0.71722c0.29652,-0.77148 0.31656,-1.47941 0.0732,-2.1793c1.44451,-0.15553 2.75897,-0.28575 3.55424,-0.12475c1.09791,0.22227 0.35375,2.08915 0.35375,2.39506z" fill="#3583b4"/><path d="M284.73483,267.90807c0,-0.38195 -0.97758,-2.31111 0.65118,-2.54935c0.63392,-0.09272 1.63146,-0.03758 2.7286,0.05314c-0.43835,0.88188 -0.54233,2.03262 -0.13335,2.95547c-2.03016,0.03391 -3.24644,-0.00324 -3.24644,-0.45926z" fill="#3583b4"/></g><g stroke="none" stroke-width="0" stroke-linecap="butt"><path d="M229.53483,267.02493c0,0.71934 -3.2265,0.62292 -7.7,0.62292c-4.4735,0 -7.5,0.32293 -7.5,-0.39641c0,-0.38195 -0.97758,-2.3111 0.65118,-2.54935c1.43875,-0.21045 4.75061,0.34082 6.84882,0.34082c2.5711,0 5.86242,-0.71344 7.34626,-0.41304c1.09791,0.22227 0.35375,2.08916 0.35375,2.39506z" fill="#2f76a3"/><path d="M229.73483,267.08156c0,0.52782 -1.73716,0.61643 -4.42947,0.6262c0.19177,-0.23704 0.34296,-0.47996 0.44828,-0.71722c0.29652,-0.77148 0.31657,-1.47941 0.07321,-2.1793c1.44451,-0.15553 2.75897,-0.28575 3.55424,-0.12475c1.09791,0.22227 0.35375,2.08916 0.35375,2.39506z" fill="#3583b4"/><path d="M214.53483,267.30807c0,-0.38195 -0.97758,-2.3111 0.65118,-2.54935c0.63392,-0.09273 1.63145,-0.03758 2.7286,0.05313c-0.43835,0.88188 -0.54233,2.03262 -0.13335,2.95547c-2.03016,0.03391 -3.24643,-0.00324 -3.24643,-0.45925z" fill="#3583b4"/></g><path d="M287.52281,265.855v-3.4h8.6v3.4z" fill="#2a6991" stroke="none" stroke-width="0" stroke-linecap="butt"/><path d="M217.52281,265.05499v-2.6h8.6v2.6z" fill="#2a6991" stroke="none" stroke-width="0" stroke-linecap="butt"/><path d="M281.21483,258.10835l-4.66667,-3.66667l1.66667,-4.66667h-6.66667l9,-27.66667" fill="none" stroke="#96c4e1" stroke-width="0.5" stroke-linecap="round"/><path d="M237.11778,219.5625v-4.7h39v4.7z" fill="#000000" stroke="#000000" stroke-width="1.5" stroke-linecap="butt"/></g></g></svg>